<?xml version="1.0" encoding="utf-8"?>
<!-- Generator: Adobe Illustrator 23.0.1, SVG Export Plug-In . SVG Version: 6.00 Build 0)  -->
<svg version="1.1" id="Layer_1" xmlns="http://www.w3.org/2000/svg" xmlns:xlink="http://www.w3.org/1999/xlink" x="0px" y="0px"
	 viewBox="0 0 262.5 49.4" style="enable-background:new 0 0 262.5 49.4;" xml:space="preserve">
<style type="text/css">
	.st0{fill:#F9E065;}
</style>
<g>
	<path class="st0" d="M237.5,30.6H25.3v-5.9c0-2.6-2.8-4.2-5.1-2.9L1.7,32.4c-2.2,1.3-2.2,4.5,0,5.8L20.2,49
		c2.2,1.3,5.1-0.3,5.1-2.9v-5.9h212.2V30.6z"/>
	<path class="st0" d="M25,9.3h212.2V3.4c0-2.6,2.8-4.2,5.1-2.9l18.6,10.7c2.2,1.3,2.2,4.5,0,5.8l-18.6,10.7
		c-2.2,1.3-5.1-0.3-5.1-2.9v-5.9H25V9.3z"/>
</g>
</svg>
