<svg id="Layer_1" data-name="Layer 1" xmlns="http://www.w3.org/2000/svg" viewBox="0 0 554 318"><defs><style>.cls-1{fill:#fff;}.cls-2{fill:#6bc17a;}.cls-3{fill:#83cfca;}.cls-4{fill:#f4774d;}.cls-5{fill:#f37d89;}.cls-6{fill:#f05664;}.cls-14,.cls-7{fill:#e13226;}.cls-10,.cls-11,.cls-12,.cls-13,.cls-24,.cls-25,.cls-28,.cls-8,.cls-9{fill:none;stroke-miterlimit:10;}.cls-10,.cls-13,.cls-8,.cls-9{stroke:#fff;}.cls-9{stroke-dasharray:3.06 2.04;}.cls-10{stroke-dasharray:3.16 2.11;}.cls-11,.cls-12{stroke:#148dce;stroke-linecap:round;}.cls-11{stroke-width:2.4px;}.cls-12{stroke-width:1.2px;}.cls-13{stroke-width:6px;}.cls-14,.cls-27{font-size:26px;}.cls-14,.cls-20,.cls-27{font-family:Calibri, Calibri;}.cls-15{letter-spacing:-0.05em;}.cls-16{letter-spacing:-0.01em;}.cls-17{font-size:20px;}.cls-18{letter-spacing:-0.08em;}.cls-19{letter-spacing:-0.01em;}.cls-20{font-size:30px;}.cls-20,.cls-26{fill:#00ae4d;}.cls-21{letter-spacing:-0.01em;}.cls-22{letter-spacing:-0.01em;}.cls-23{letter-spacing:-0.09em;}.cls-24{stroke:#e13226;}.cls-24,.cls-25,.cls-28{stroke-width:2px;}.cls-25{stroke:#00ae4d;}.cls-27,.cls-29{fill:#00abae;}.cls-28{stroke:#00abae;}</style></defs><title>sensory-brain</title><rect class="cls-1" width="554" height="315"/><path class="cls-2" d="M278,145c2.94-5,3.7-11.46,7.89-15.56a9.28,9.28,0,0,1-.57-7.87,14.49,14.49,0,0,1,4.93-6.37,3.52,3.52,0,0,0,1.07-1.07,3.61,3.61,0,0,0,.13-2.07c-1-8.43,6.13-15.75,11.8-21.21a51.44,51.44,0,0,1,7.57-6.18,14.2,14.2,0,0,1,4.51-2c.57-.13,4.35-.07,4.5-.27,3.4-4.37,9.77-7.29,15.36-6.62a12.06,12.06,0,0,1,4.4,1.75A60.66,60.66,0,0,1,349.2,84a25,25,0,0,1,7,9.09,1.26,1.26,0,0,1-.56,2c-6.62,3.4-13.94,4-21.22,4.31A37.44,37.44,0,0,0,311,109c-6.43,5.79-9,12-9,23-6.24,1.33-12.65,6.76-14,13-2.81-.25-4.42.12-7-1Z"/><path class="cls-3" d="M260.84,184.89a10.85,10.85,0,0,1-2.21,1.3c-4.77,2-10.8-1.44-12.08-6.46-2.43-9.59,9.67-16.48,17.12-18.79,5.93-1.84,13.35-5.07,18.32.69a10.61,10.61,0,0,1,.07,13.32c-3.24,3.85-6.57,2.38-10.64,3.5C267,179.67,264.62,182.09,260.84,184.89Z"/><path class="cls-4" d="M379.2,177.77c5.43-1.28,11.39-14.58,4.92-22.31,5.07.49,11.76-6.4,12-10v0a43.05,43.05,0,0,1,3.71,15.86c.25,6.81,7.64,10,.26,27.88S379.2,202.7,379.2,202.7C386,196.48,387.9,182.58,379.2,177.77Z"/><path class="cls-5" d="M225.81,162.87c-5-4.07-3.3-13.39,1.51-20.05,3.06-4.24,7.35-7.4,11.94-7.47,0-9.23.31-18.22,8.39-20.47-.09-9.66,2.1-18,12.47-21.77.88-12.56,11.79-21.59,24.14-21.51.19-3-1.14-6.29-8.37-8.28l15,.45C298.36,65.83,301,72.39,301.6,76c-4.55-.21-8.88,3-8.94,7.55-8.5-2.29-19.12,4.35-19.12,13.49-14,3.69-13.45,20.38-10,33,1.87,6.78,6.38,17.52.91,22-5.81,4.71-7.6,5.59-12.84,13.31C252.31,161.08,235.27,158.23,225.81,162.87Z"/><path class="cls-6" d="M251.62,165.27a36.65,36.65,0,0,0-7.09-4.3c-1.55-.73-1.56-12.47,8.82-16.35a26.9,26.9,0,0,0,12-8.77c1.42,3.22,2.65,12.57,1.22,14.68,0,0-2.75,2.24-4,3.39-1.91,1.72-3.83,3.4-5.79,5.06C256,159.62,250.09,163.93,251.62,165.27Z"/><path class="cls-7" d="M246.09,170.07a45.18,45.18,0,0,1-14.89,1.28c-8.8-.49-11.81-5.25-2.76-8.9a28.77,28.77,0,0,1,18.25-1.12c6.86,1.84,5.34,7-.06,8.57Z"/><path class="cls-4" d="M197.54,201.38a13.42,13.42,0,0,1-.78,2c-2.61,5.21-11,4.12-8.52-2.57a68.8,68.8,0,0,1,11.46-19.35,64.36,64.36,0,0,1,9.08-8.8c2.31-1.84,5.84-5.54,9-5.64,1.77-.06,3.66,1.61,3.1,3.29-.9,2.74-4,3.7-6.11,5.24a56.14,56.14,0,0,0-6.7,5.81A37.8,37.8,0,0,0,198.46,198C198.15,199.1,197.9,200.26,197.54,201.38Z"/><path class="cls-6" d="M232.75,160.86l-6.94,2c-6.88-3.74-2.33-18.65,5.09-24,1-.72,4.35-.15,5.44,4.44C237.17,146.89,235.92,156.05,232.75,160.86Z"/><path class="cls-8" d="M244.53,161c-.27-.13-.5-.6-.63-1.32"/><path class="cls-9" d="M243.8,157.62a14.6,14.6,0,0,1,9.55-13,27.8,27.8,0,0,0,10.33-6.85"/><path class="cls-8" d="M264.37,137a14.87,14.87,0,0,0,.94-1.17"/><path class="cls-8" d="M230.9,138.89a2,2,0,0,1,1.45-.22"/><path class="cls-10" d="M234.23,139.57a6.76,6.76,0,0,1,2.11,3.77c.72,3.06-.11,10.26-2.36,15.27"/><path class="cls-8" d="M233.51,159.56a14.62,14.62,0,0,1-.76,1.3"/><path class="cls-11" d="M379.2,202.7c-.5,39.4-25.4,63.14-66.44,58.08-13.24-3-24.15-12.54-24.25-29.39"/><path class="cls-11" d="M279.08,215.4c.73,11.79,14.71,21.87,25,23.54"/><path class="cls-11" d="M351.26,150.53c4,9.21,1.58,15.47-2.85,20.83,3.32,21.08-16.27,35.48-27.29,33.38-4.61,3.54-10.23,4.59-16.29,4.58-7.67,6-18.5,7.12-31.1,5.57-4.25,5.61-12.71,10.6-20.19,11a15.59,15.59,0,0,1-5.22-1c-10.15,14.42-23.86,5.27-27.06,1-10.2,6.2-40.17-.91-34.08-20.62,11.28-36.52,51.68-54.52,64.44-40"/><path class="cls-11" d="M182.27,185.17c-13.72,1.63-21.34-1.77-27-11.08-5.12,1.09-16.9-1-22.39-11.21-13.62-10.67-4.72-46.84,10.69-50,5.35-17.95,21.77-28.54,33.22-26.73,6.87-8,26.39-15.43,38.95-14.52,15-8.5,32.35-11.44,54.64-7.54,27.79-5.26,80.16,11,86.76,29.84,12.07,7.53,24.15,19.13,25.5,33.49,0,0,16.39,12.95,17.15,34,.25,6.81,7.64,10,.26,27.88S379.2,202.7,379.2,202.7c-5.36,1.92-22.94,2.56-30.79-3.77-3.54.47-6.3-.14-8-2.46"/><path class="cls-11" d="M132.87,162.87c0,14.26,10,26.78,17.4,26.78,8.25,10.49,19.61,16.92,36.91,15.6"/><line class="cls-11" x1="329.15" y1="280.38" x2="312.76" y2="260.78"/><path class="cls-11" d="M253.54,225.88c3.05,7,14.82,18.3,25.54,15.45,2.44,9.28,22.29,25,35,39"/><path class="cls-11" d="M247.66,179.34c-.48-18,26-39.6,40.85-33.2,2.81-7.28,7.29-12.27,14.83-13.08-.75-9.25,1.44-16.58,6.73-21.91"/><path class="cls-11" d="M209.66,111.14c3.86,17.49,4.12,32.62-7.2,40.12a27.71,27.71,0,0,1-4.8,14.9c4.91,2.14,6.68,6.14,6,11.61"/><path class="cls-12" d="M202.78,167.76q9.66-9.87,19.36-19.7"/><path class="cls-12" d="M188.93,181.77q-10.28,10.71-20.54,21.33"/><path class="cls-12" d="M239.62,159l2.91-2.9"/><path class="cls-12" d="M186.38,210.63c2-1.95,4-3.91,6.05-5.83"/><path class="cls-12" d="M246.67,160.64q2.51-2.66,5-5.3"/><path class="cls-12" d="M196,210.3c-2.44,2.51-4.92,5-7.4,7.5"/><path class="cls-12" d="M218.42,214.09q-6.68,6.6-13.28,13.34"/><path class="cls-12" d="M231,219.25l-8.27,8.25"/><path class="cls-12" d="M251,225.62l13.91-13.9"/><path class="cls-12" d="M288.39,205.75c-9.54,9.69-19,19.14-28.54,28.55"/><path class="cls-12" d="M212.16,124.11q1.73-1.63,3.43-3.29"/><path class="cls-12" d="M164,172.3q-8.71,8.17-17.24,16.52"/><path class="cls-12" d="M200.65,161.94l19-19.05"/><path class="cls-12" d="M182.33,180.25,162.28,200.3"/><path class="cls-12" d="M228.14,160.79l4.15-4.14"/><path class="cls-12" d="M183.75,205.41q4.47-4.56,8.9-9.15"/><path class="cls-12" d="M251.34,163.6q9.86-9.43,19.6-19"/><path class="cls-12" d="M200.64,214.33c-2.67,2.59-5.31,5.2-8,7.79"/><path class="cls-12" d="M279,145q5.57-5.39,11.13-10.81"/><path class="cls-12" d="M208.36,215.57q-5.27,4.75-10.37,9.65"/><path class="cls-12" d="M224.11,217.44c-3.49,3.52-7,7-10.48,10.53"/><path class="cls-12" d="M239.75,219.41q-5.74,5.86-11.54,11.66"/><path class="cls-12" d="M360.24,212.84q12.21-12.32,24.47-24.59"/><path class="cls-12" d="M339.69,233.39c-12.35,12-24.21,24.27-36.09,36.28"/><path class="cls-12" d="M369.09,186.16Q358,197.35,346.93,208.6"/><path class="cls-12" d="M328.18,227.36c-10.68,11.46-22.27,22.35-33.76,33.38"/><path class="cls-12" d="M348.91,180.31l6.41-6.4"/><path class="cls-12" d="M333.89,195.34c-17.92,16.68-35.05,34-52.07,51.39"/><line class="cls-12" x1="369.43" y1="238.74" x2="355.25" y2="252.91"/><line class="cls-12" x1="327.78" y1="280.38" x2="328.53" y2="279.63"/><path class="cls-12" d="M398,183.28q-16.21,16.17-32.1,32.64"/><path class="cls-12" d="M320.68,261.41q13.09-13.1,26-26.23"/><path class="cls-12" d="M308,274l8.63-8.6"/><path class="cls-12" d="M338.73,208q12.69-12.24,25.23-24.65"/><path class="cls-12" d="M323.71,223.06c-11.9,10.39-23,21.65-33.91,33"/><path class="cls-12" d="M376.44,222.94c-2.17,2.18-4.35,4.35-6.52,6.53"/><path class="cls-12" d="M320,280.38q2.55-2.43,5-4.91"/><path class="cls-12" d="M365.49,233.9c-8.93,8.21-17,16.86-25,25.44"/><path class="cls-12" d="M312.56,199.12c-14,13.89-27.71,28-41.41,42"/><path class="cls-12" d="M253,214.8c-6,5.84-12,11.82-18,17.87"/><path class="cls-12" d="M329.39,208.6q14.88-14.95,29.89-29.77"/><path class="cls-12" d="M285.93,251.91q17.39-17.39,35-34.88"/><path class="cls-12" d="M299.46,203.46c-11.32,11.83-22.94,23.36-34.59,34.8"/><path class="cls-12" d="M322.21,198.25c-13.89,14.71-28.48,28.92-43.11,43.12"/><path class="cls-12" d="M280.48,204.89Q268,217.18,255.73,229.62"/><path class="cls-12" d="M398.77,192,388.66,202"/><path class="cls-12" d="M378.58,212.07c-2.85,2.85-5.72,5.69-8.57,8.54"/><path class="cls-12" d="M329.38,261.21l25.3-25.27"/><path class="cls-12" d="M312.22,278.38l8.3-8.31"/><path class="cls-12" d="M376.1,188.16,354.29,210"/><path class="cls-12" d="M333.52,230.79c-11.23,11.86-22.53,23.41-34.08,34.84"/><path class="cls-12" d="M127.9,155.75l3.54-3.54"/><path class="cls-12" d="M127.63,147.26l-1.31,1.31"/><path class="cls-12" d="M146,164c-3.65,3.53-7.26,7.06-10.88,10.6"/><path class="cls-12" d="M157.88,169.63q-7.76,8.06-15.62,16.07"/><path class="cls-12" d="M202.83,151.06q7.32-7.31,14.6-14.65"/><path class="cls-12" d="M175,178.68q-9,8.87-18.11,17.83"/><path class="cls-12" d="M203.39,176.2q10.63-10.69,21.23-21.42"/><path class="cls-12" d="M195.84,183.78q-10.49,10.45-20.86,21"/><path class="cls-12" d="M126.53,139.58l.11-.11"/><path class="cls-12" d="M134.93,157.5l-3.77,3.74"/><path class="cls-12" d="M139.86,161.33l-6.58,6.58"/><path class="cls-12" d="M152.37,166.37c-5.15,4.46-10,9-14.61,13.67"/><path class="cls-12" d="M211,134.09q2.61-2.4,5.18-4.84"/><path class="cls-12" d="M169.81,175.17q-8.78,8.42-17.37,17"/><path class="cls-13" d="M218.7,136.88C188.87,108.77,150.32,89,115.56,83.33"/><polygon class="cls-1" points="226.4 144.14 219.72 129.47 218.12 136.34 211.36 138.35 226.4 144.14"/><path class="cls-13" d="M241.11,98.26C225.37,79.21,202.58,58.85,177,42"/><polygon class="cls-1" points="247.86 106.43 243.05 91.04 240.61 97.65 233.65 98.81 247.86 106.43"/><path class="cls-13" d="M277.87,152.11c47.59-2.68,90.93-16.41,134.16-32.67"/><polygon class="cls-1" points="267.3 152.71 282.54 157.96 278.66 152.07 281.86 145.78 267.3 152.71"/><text class="cls-14" transform="translate(22.97 92.96)"><tspan class="cls-15">V</tspan><tspan x="13.46" y="0">e</tspan><tspan class="cls-16" x="26.39" y="0">s</tspan><tspan x="36.27" y="0">tibular </tspan></text><text class="cls-14" transform="translate(45.19 230.05)">Smell<tspan class="cls-17"><tspan x="-5.63" y="24">[behind]</tspan></tspan></text><text class="cls-14" transform="translate(177.05 268.91)">Hearing<tspan class="cls-17"><tspan x="6.84" y="24">[behind]</tspan></tspan></text><text class="cls-14" transform="translate(423.72 125.63)"><tspan class="cls-18">T</tspan><tspan x="10.64" y="0">a</tspan><tspan class="cls-16" x="23.09" y="0">s</tspan><tspan class="cls-19" x="32.97" y="0">t</tspan><tspan x="41.4" y="0">e </tspan><tspan class="cls-17"><tspan x="-7.25" y="24">[behind]</tspan></tspan></text><text class="cls-20" transform="translate(383.59 44.34)">Associ<tspan class="cls-21" x="76.22" y="0">a</tspan><tspan x="90.31" y="0">tion </tspan><tspan x="36.57" y="30">a</tspan><tspan class="cls-22" x="50.94" y="30">r</tspan><tspan x="61" y="30">eas</tspan></text><text class="cls-14" transform="translate(466.44 217.75)">Vision</text><text class="cls-14" transform="translate(107 44.94)"><tspan class="cls-23">T</tspan><tspan x="10.36" y="0">ouch</tspan></text><path class="cls-24" d="M218.7,136.88c-24-22.61-53.63-39.82-82.39-48.65"/><polygon class="cls-7" points="223.83 141.72 219.38 131.94 218.31 136.52 213.81 137.86 223.83 141.72"/><path class="cls-24" d="M174.14,212.84a109.28,109.28,0,0,1-45.63,8.48"/><polygon class="cls-7" points="180.64 210.1 169.9 210.22 173.65 213.05 173.05 217.71 180.64 210.1"/><path class="cls-24" d="M241.11,98.26C225.37,79.21,202.58,58.85,177,42"/><polygon class="cls-7" points="245.61 103.7 242.4 93.45 240.78 97.86 236.14 98.63 245.61 103.7"/><path class="cls-24" d="M414.43,191.23A224.31,224.31,0,0,1,461.07,205"/><polygon class="cls-7" points="407.48 190.02 416.58 195.73 414.95 191.32 417.98 187.72 407.48 190.02"/><path class="cls-24" d="M277.87,152.11c47.59-2.68,90.93-16.41,134.16-32.67"/><polygon class="cls-7" points="270.82 152.51 280.99 156.01 278.4 152.08 280.53 147.89 270.82 152.51"/><path class="cls-13" d="M324.39,155.34c20.15-37,46.66-67.23,75.45-95.89"/><polygon class="cls-1" points="319.32 164.64 331.81 154.46 324.77 154.65 321.11 148.62 319.32 164.64"/><path class="cls-25" d="M324.39,155.34c19.93-36.56,46.08-66.57,74.52-95"/><polygon class="cls-26" points="321.01 161.54 329.34 154.75 324.64 154.88 322.2 150.86 321.01 161.54"/><path class="cls-2" d="M209.3,197c3.66,2.76,8.5,3.31,13.09,3.58,5.24.31,10.5.38,15.75.24,4.06-.11,7.89,1.56,12,.35a13.47,13.47,0,0,1,3.44-.92,10.39,10.39,0,0,1,2.6.45,17.94,17.94,0,0,0,17.45-5.77c1.86,1.65,4.67,1.43,7.13,1.11a28.53,28.53,0,0,0,7.51-1.66,10.76,10.76,0,0,0,4-2.82c.94-1.1,1-2.33,2.55-2.56A39.83,39.83,0,0,0,309.18,184c3.54-2.07,8.12-3.29,10-7.33,1.55-3.28.35-7.93.37-11.56a2.14,2.14,0,0,0-.41-1.56,1.88,1.88,0,0,0-1.12-.43,11,11,0,0,0-7.63,2.32c-3.91,2.84-5.82,5.22-10.31,7.23-4.1,1.84-8,5-12.18,6.46-2,.7-3.73.9-5.64,2.08-1.6,1-3.07,2.17-4.69,3.11a18.61,18.61,0,0,1-7.49,2.42,13.31,13.31,0,0,0-2.73.39,10.23,10.23,0,0,0-2.57,1.42c-3.61,2.44-7.9,4.78-12.11,3.67a4,4,0,0,0-1.76-.25,3.52,3.52,0,0,0-1.44.83c-2.24,1.78-5.21,3.17-8.14,2.82a49.06,49.06,0,0,0-9.44.1,130.29,130.29,0,0,1-21.78-.4c-.66,0-.31.24-1,.27a1.8,1.8,0,0,0,.38,2"/><path class="cls-13" d="M293.82,174.51c48.27,16.16,86.78,38,121.5,62.12"/><polygon class="cls-1" points="283.77 171.14 295.99 181.66 294.57 174.76 299.86 170.1 283.77 171.14"/><text class="cls-27" transform="translate(395.26 260.64)">Thalamus<tspan class="cls-17"><tspan x="20.78" y="24">[inside]</tspan></tspan></text><path class="cls-28" d="M293.82,174.51c48.27,16.16,86.78,38,121.5,62.12"/><polygon class="cls-29" points="287.12 172.26 295.27 179.28 294.32 174.67 297.85 171.57 287.12 172.26"/><path class="cls-13" d="M229.77,179.34c-18.59,24.58-25.86,44.38-29.12,62.48"/><polygon class="cls-1" points="236.16 170.89 222.29 179.11 229.29 179.97 232.02 186.47 236.16 170.89"/><path class="cls-24" d="M229.77,179.34c-18.59,24.58-25.86,44.38-29.12,62.48"/><polygon class="cls-7" points="234.03 173.71 224.78 179.19 229.45 179.76 231.27 184.09 234.03 173.71"/><path class="cls-25" d="M356.59,76.26a109.13,109.13,0,0,1,42.59-16.16"/><polygon class="cls-26" points="350.66 80.1 361.22 78.11 357.04 75.98 356.81 71.28 350.66 80.1"/></svg>