<?xml version="1.0" encoding="iso-8859-1"?>
<!-- Generator: Adobe Illustrator 16.0.4, SVG Export Plug-In . SVG Version: 6.00 Build 0)  -->
<!DOCTYPE svg PUBLIC "-//W3C//DTD SVG 1.1//EN" "http://www.w3.org/Graphics/SVG/1.1/DTD/svg11.dtd">
<svg version="1.1" id="Layer_1" xmlns="http://www.w3.org/2000/svg" xmlns:xlink="http://www.w3.org/1999/xlink" x="0px" y="0px"
	 width="856px" height="865px" viewBox="0 0 856 865" style="enable-background:new 0 0 856 865;" xml:space="preserve">
<rect x="1.5" y="1.5" style="fill:#F6F6F7;stroke:#A8AEB3;stroke-width:3;stroke-miterlimit:10;" width="853" height="862"/>
<rect x="16.5" y="380.5" style="fill:#E6E7E8;stroke:#A8AEB3;stroke-width:3;stroke-miterlimit:10;" width="823" height="468"/>
<path style="fill:#676767;" d="M207.017,424.384c-0.632,0.633-1.659,0.633-2.294,0l-13.209-12.647c-0.634-0.633-0.634-1.737,0-1.737
	h28.714c0.635,0,0.635,1.104,0,1.737L207.017,424.384z"/>
<path style="fill:#676767;" d="M651.017,424.384c-0.632,0.633-1.659,0.633-2.294,0l-13.209-12.647c-0.634-0.633-0.634-1.737,0-1.737
	h28.714c0.635,0,0.635,1.104,0,1.737L651.017,424.384z"/>
</svg>
