<?xml version="1.0" encoding="iso-8859-1"?>
<!-- Generator: Adobe Illustrator 16.0.4, SVG Export Plug-In . SVG Version: 6.00 Build 0)  -->
<!DOCTYPE svg PUBLIC "-//W3C//DTD SVG 1.1//EN" "http://www.w3.org/Graphics/SVG/1.1/DTD/svg11.dtd">
<svg version="1.1" id="Layer_1" xmlns="http://www.w3.org/2000/svg" xmlns:xlink="http://www.w3.org/1999/xlink" x="0px" y="0px"
	 width="379.209px" height="31.692px" viewBox="0 0 379.209 31.692" style="enable-background:new 0 0 379.209 31.692;"
	 xml:space="preserve">
<circle style="fill:#ECEBE9;stroke:#A9AFB4;stroke-miterlimit:5;" cx="15.845" cy="15.846" r="15.345"/>
<radialGradient id="SVGID_1_" cx="15.7427" cy="16.6982" r="24.6265" gradientTransform="matrix(1 0 0 -1 0 32.4199)" gradientUnits="userSpaceOnUse">
	<stop  offset="0.5573" style="stop-color:#A9AFB4"/>
	<stop  offset="0.6924" style="stop-color:#EBEAE8"/>
</radialGradient>
<path style="fill:url(#SVGID_1_);" d="M15.743,0.376c-8.476,0-15.346,6.87-15.346,15.345c0,8.476,6.871,15.347,15.346,15.347
	s15.345-6.871,15.345-15.347C31.088,7.246,24.218,0.376,15.743,0.376z M15.743,28.87c-7.25,0-13.149-5.898-13.149-13.149
	c0-7.25,5.898-13.148,13.149-13.148c7.25,0,13.148,5.898,13.148,13.148S22.993,28.87,15.743,28.87z"/>
<linearGradient id="SVGID_2_" gradientUnits="userSpaceOnUse" x1="76.8062" y1="1.2104" x2="76.8062" y2="31.2104" gradientTransform="matrix(1 0 0 -1 0 32.4199)">
	<stop  offset="0.5464" style="stop-color:#CED0D0"/>
	<stop  offset="1" style="stop-color:#ECEBE9"/>
</linearGradient>
<path style="fill:url(#SVGID_2_);" d="M26.309,1.21h100.995c0,0-7.85,6.156-7.85,15.232c0,9.074,7.85,14.768,7.85,14.768H26.309
	c0,0,8.074-6.354,8.042-14.768C34.31,5.535,26.309,1.21,26.309,1.21z"/>
<circle style="fill:#ECEBE9;stroke:#A9AFB4;stroke-miterlimit:5;" cx="137.845" cy="15.846" r="15.345"/>
<linearGradient id="SVGID_3_" gradientUnits="userSpaceOnUse" x1="198.3687" y1="1.2104" x2="198.3687" y2="31.2104" gradientTransform="matrix(1 0 0 -1 0 32.4199)">
	<stop  offset="0.5464" style="stop-color:#CED0D0"/>
	<stop  offset="1" style="stop-color:#ECEBE9"/>
</linearGradient>
<path style="fill:url(#SVGID_3_);" d="M147.871,1.21h100.994c0,0-7.85,6.156-7.85,15.232c0,9.074,7.85,14.768,7.85,14.768H147.871
	c0,0,8.073-6.354,8.041-14.768C155.871,5.535,147.871,1.21,147.871,1.21z"/>
<circle style="fill:#ECEBE9;stroke:#A9AFB4;stroke-miterlimit:5;" cx="259.406" cy="15.846" r="15.346"/>
<linearGradient id="SVGID_4_" gradientUnits="userSpaceOnUse" x1="324.7144" y1="1.2104" x2="324.7144" y2="31.2104" gradientTransform="matrix(1 0 0 -1 0 32.4199)">
	<stop  offset="0.5464" style="stop-color:#CED0D0"/>
	<stop  offset="1" style="stop-color:#ECEBE9"/>
</linearGradient>
<path style="fill:url(#SVGID_4_);" d="M271.314,1.21h98.492c0,0,9.403,6.156,9.403,15.232c0,9.074-9.403,14.768-9.403,14.768h-99.59
	c0,0,8.072-6.354,8.042-14.768C278.217,5.535,271.314,1.21,271.314,1.21z"/>
<radialGradient id="SVGID_5_" cx="137.7427" cy="16.6982" r="24.6265" gradientTransform="matrix(1 0 0 -1 0 32.4199)" gradientUnits="userSpaceOnUse">
	<stop  offset="0.5573" style="stop-color:#A9AFB4"/>
	<stop  offset="0.6924" style="stop-color:#EBEAE8"/>
</radialGradient>
<path style="fill:url(#SVGID_5_);" d="M137.743,0.376c-8.476,0-15.346,6.87-15.346,15.345c0,8.476,6.871,15.347,15.346,15.347
	s15.345-6.871,15.345-15.347C153.088,7.246,146.218,0.376,137.743,0.376z M137.743,28.87c-7.25,0-13.149-5.898-13.149-13.149
	c0-7.25,5.898-13.148,13.149-13.148c7.25,0,13.148,5.898,13.148,13.148S144.993,28.87,137.743,28.87z"/>
<radialGradient id="SVGID_6_" cx="259.3081" cy="16.7002" r="24.6252" gradientTransform="matrix(1 0 0 -1 0 32.4199)" gradientUnits="userSpaceOnUse">
	<stop  offset="0.5573" style="stop-color:#A9AFB4"/>
	<stop  offset="0.6924" style="stop-color:#EBEAE8"/>
</radialGradient>
<path style="fill:url(#SVGID_6_);" d="M259.309,0.375c-8.476,0-15.347,6.87-15.347,15.345c0,8.477,6.871,15.346,15.347,15.346
	s15.345-6.871,15.345-15.346C274.656,7.245,267.785,0.375,259.309,0.375z M259.309,28.869c-7.25,0-13.149-5.898-13.149-13.149
	c0-7.25,5.898-13.148,13.149-13.148c7.25,0,13.147,5.898,13.147,13.148C272.458,22.971,266.559,28.869,259.309,28.869z"/>
</svg>
