<svg xmlns="http://www.w3.org/2000/svg" viewBox="0 0 1622.282 830.022"><defs><style>.a{opacity:0.34;}.b{fill-opacity:0;}.b,.e,.f{stroke:#000;stroke-linecap:round;stroke-linejoin:round;}.b,.f{stroke-width:14px;}.c{opacity:0.53;}.d{opacity:0.14;}.e,.f{fill:none;}.e{stroke-width:8px;}</style></defs><title>EFimage</title><path class="a" d="M342.3,164.471a145.255,145.255,0,0,1,23.252-8.921c3.743-1.1,34.467-7.376,35.843-1.927a64.173,64.173,0,0,1-4.569,43.546,55.472,55.472,0,0,1,43.525,14.139,34.094,34.094,0,0,1-10.074,23.138,116.958,116.958,0,0,1,53.39,22.478,45.874,45.874,0,0,1-17.38,18.971,68.357,68.357,0,0,1,31.642,15.622,42.881,42.881,0,0,1-22.689,22.209,117.364,117.364,0,0,1,19.612,46.387c.787,4.255-36.32,8.577-40.6,9.955a54.163,54.163,0,0,0-30.975,25.525,30.427,30.427,0,0,0-23.813-14.622,204.108,204.108,0,0,0-10.019-41.482c-1.687-4.742-3.644-9.568-7.217-13.113-8.487-8.418-23.645-6.3-32.391,1.852s-12.28,20.45-13.8,32.306-1.433,24-4.653,35.509c-4.64-13.708-20.514-22.53-34.6-19.231s-24.4,18.25-22.473,32.593c-4.744-4.132-12.405-3.018-17.411.792s-7.989,9.637-10.808,15.262c-3.636-15.034-19.208-23.084-33.728-21.074-2.4-4.777-1.747-10.709-4.579-15.789a31.544,31.544,0,0,0-41.213-13.314c2.556-19.438-8.4-44.025-30.563-45.9-16.955-1.433-30.6,12.976-41.412,26.113-3.754-10.085-14.044-16.67-24.637-18.564s-21.49.2-31.856,3.09c1.434-20.367,2.989-203.829.322-233.3,5.68-1.111,11.254,2.7,16.309,4.891a80.661,80.661,0,0,1,20.563,12.7c1.686-13.541,4.718-29.133,16.773-35.526,10.489-5.562,24.02-1.275,32.589,6.942s13.3,19.544,17.8,30.529a58.327,58.327,0,0,1,30.522-27.1,104.611,104.611,0,0,1,11.083,39.581,88.8,88.8,0,0,1,60.985-40.614L242.74,133.17A153.932,153.932,0,0,1,268,115.9c5.062-2.768,20.365-12.792,26.147-11.3,9.774,2.516,9.536,39.342,1.378,45.414,3.211-2.39,40.456-12.609,40.611-11.91a48.916,48.916,0,0,1-1.947,30.646C336.933,167.2,339.621,165.78,342.3,164.471Z"/><path class="b" d="M396.5,355.789c9.018,2.644,29.146,1.311,40.593-7.442-1.5-12.933-18.551-41.922-28.837-46.509,12.891,0,29.94-11.318,36.743-22.326-8.773-15.352-42.569-31.693-68.835-27.44"/><path class="b" d="M65.075,186.308C50.752,160.793,62.831,139.374,75.71,126.5c40.884,3.241,51.127,30.216,54.645,37.251"/><path class="b" d="M182.683,178.121c13.4-16.245,36.976-35.457,61.393-31.626,5.856,4.684,3.885,45.715.465,52.556"/><path class="b" d="M293.833,183.7c33.053-16.124,81.3-10.328,82.33-7.764,4.311,10.774-13.931,56.106-22.332,64.506"/><path class="b" d="M30.044,108.734C44.221,106,66.8,117.583,75.71,126.5c-.472-23.923,6.782-33.19,19.353-40.687,37.188,7.459,43.047,30.388,45.761,42.547,3.545-8.94,12.844-25.571,28.836-27.44,13.023,7.591,15.813,23.329,15.813,34.882,12.35-24.8,45-35.149,60.463-36.743,2.694,5.876.982,26.613-.465,30.233C256.9,117.853,276.886,106,297.562,104.171c6.507,19.715-1.456,39.075-3.72,45.114,6.259-3.479,27.217-11.092,40.093-8.226,3.143,9.122-.261,25.766-1.956,29.155"/><path class="b" d="M456.161,366.951c8.24,1.91,22.053,4.2,39.067-3.721.751-10.629-3.279-36.993-20.928-48.37,6.294-2.764,15.83-10.4,21.013-19.486-5.183-11.318-18.993-16.734-32.64-18.652,8.746-3.566,19.33-11.264,23.119-18.841-8.423-16.023-37.656-23.989-54.746-23.483,2.431-4.052,8.321-15.762,9.766-24.65-11.78-11.78-32.3-17.131-46.975-14.419,5.015-7.42,9.254-33.463,5.581-43.254-32.4-5.834-58.69,10.467-65.579,16.744"/><path class="b" d="M210.394,241.332a90.16,90.16,0,0,1,82.452,7.217c2.392,1.545,4.984,3.768,4.687,6.6a7.766,7.766,0,0,1-1.651,3.532A78.747,78.747,0,0,1,243.546,290.7a77.382,77.382,0,0,1,58.771,37.973,105.315,105.315,0,0,1-69.454,16.776"/><path class="c" d="M589.278,713.337c-1.762-12.81-9.862-24.354-10.134-37.281-.231-11,5.233-21.21,10.349-30.952s10.167-20.291,9.023-31.236-11.184-21.662-21.94-19.334c-11.335-85.209-7.777-171.743.383-257.314,4.427-46.424,12.534-97.282,48.006-127.555,13.849-11.82,32.018-19.634,50.106-17.558,28.932,3.321,49.73,30.509,58.413,58.305s8.771,57.577,15.8,85.837c-10.345-4.425-21.85-7-32.9-4.859s-21.459,9.693-24.816,20.432,2.1,24.119,12.791,27.627c-12.18,2.39-20.6,16.507-16.9,28.358s18.633,18.694,30.017,13.746a26.118,26.118,0,0,0,12.385,25.914c8.62,5,15.753,3.635,22.685-2.044,5.646,32.491,8.182,65.849,9.5,98.779.308,7.679-2.712,83.957-.441,84.61-12.061-3.469-20.226,10.239-27.064,18.206-6.26,7.294-11.26,16.787-9.375,26.213-14.459-1.917-28.828,11.872-27.507,26.4-12.552-6.839-30.652,3.049-31.679,17.306-8.929-3.32-19.1,2.3-24.507,10.138s-7.384,17.454-10.152,26.569c-4.75,15.642-23.016,38.412-40.863,22.855C574.547,762.627,591.713,731.045,589.278,713.337Z"/><path class="a" d="M76.715,501.112a35.4,35.4,0,0,0,18.177,10.224A49.111,49.111,0,0,0,96.1,537.81c-6.654-7.584-19.7-8.279-27.122-1.446s-7.807,19.89-.8,27.147c-5.25,1.807-7.551,8.766-5.277,13.831s8.049,7.966,13.6,7.924,10.83-2.6,15.22-6c3.216,8.074,14.736,11.357,21.725,6.191s7.23-17.143.454-22.586a12.026,12.026,0,0,0,2.985-10.21,16.091,16.091,0,0,0,12.33,7.129,18.311,18.311,0,0,0,4.219,21.8c-6.323.323-10.921,7.406-9.789,13.635s6.78,10.977,12.943,12.427,12.685.085,18.542-2.319a11.706,11.706,0,0,0,23.012-1.832,10.542,10.542,0,0,0,11.167,4.147,32.778,32.778,0,0,0,3.366,19.19,11.415,11.415,0,0,0-10.827,8.93c-3.661-6.108-13.091-7.686-18.54-3.1s-5.509,14.145-.117,18.8a15.229,15.229,0,0,0-11.719,11.228,13.809,13.809,0,0,0-11.5-1.432c1.2-10.636-10.466-20.522-20.76-17.587s-15,17.487-8.364,25.89a15.889,15.889,0,1,0,10.82,24.358c.739,8.813,7.637,17.284,16.449,18.026s17.583-8.235,15.169-16.743c-.841-2.963-2.828-5.933-1.883-8.864,2.109-6.542,15.163-3.937,16.255-10.724a20.759,20.759,0,0,0,37.874,2.545c9.067,2.5,18.353,5.113,25.958,10.65s13.288,14.716,11.994,24.033a115.205,115.205,0,0,0-49.9-3.785c-5.121.743-10.8,2.252-13.37,6.743-3.511,6.133.8,13.692,5.251,19.179A190.491,190.491,0,0,0,220.7,768.525a509.639,509.639,0,0,1-187.99-1.161,80.836,80.836,0,0,1,3.625-36.775c6.462-1.447,13.077,1.291,18.961,4.328s11.883,6.526,18.5,6.7,13.933-4.456,13.942-11.077c.01-7.788-8.943-11.972-16.392-14.246,7.516-2.273,9.8-13.176,5.048-19.425s-14.031-7.7-21.426-5.059-13.154,8.56-17.775,14.909A144.5,144.5,0,0,1,36.118,652.9c5.743,5.664,12.02,11.61,19.979,12.924s17.519-4.623,16.633-12.64c7.67,5.581,20.491.067,21.715-9.339s-9.758-18.018-18.6-14.587c7.181-5.576,3.884-18.562-4.436-22.228s-18.415.276-24.586,6.952-9.3,15.537-12.267,24.129q.327-38.5,2.681-76.939,1.15-18.8,2.787-37.574c.76-8.72-.624-24.441,3.824-31.825,4.523,3.2,6.062,9.719,10.7,13.16a15.139,15.139,0,0,0,11.81,2.9C67.426,507.652,78.28,502.768,76.715,501.112Z"/><path class="d" d="M544.982,685.2q-4.637,3.8-9.34,7.524c11.171-1.8,22.621-3.593,33.726-1.426,8.613,1.68,17.961,6.376,22.7,14.074,4.76,7.725-.916,19.275-6.208,25.6-5.994,7.168-14.216,12.047-22.27,16.786-18.472,10.868-37.17,21.837-57.7,28-24.161,7.256-49.784,7.545-75.009,7.776l-148.3,1.362c-43.429.4-63.78-21.8-95.268-48.495-5.224-4.429-10.988-10.352-9.452-17.026,1.62-7.04,10.158-9.688,17.34-10.476a133.1,133.1,0,0,1,51.984,4.627l-.312-15.777c-18.125-5.023-37.331-10.7-49.707-24.868s-13.494-39.707,2.62-49.409c13.734-8.269,31.576-1.218,44.621,8.1a40.7,40.7,0,0,1,8.655-36.99c-3.778-9.187-10.747-16.632-17.594-23.828s-13.863-14.58-17.773-23.711-4.107-20.54,2.123-28.277,19.807-9.239,25.856-1.36c-8.152-12.627-16.587-26.152-16.757-41.182s11.754-31.208,26.7-29.653c13.952,1.45,22.081,16.171,27.03,29.3a17.635,17.635,0,0,1,13.663-9.21,79.574,79.574,0,0,1-17.8-63.7c1.124-6.841,3.441-13.966,8.864-18.285,7.589-6.046,19.13-4.542,27.178.878s13.406,13.91,18.53,22.149a79.37,79.37,0,0,1,13.759-71.825c8.573-10.657,23.922-19.275,35.441-11.9,6.973,4.465,9.743,13.192,11.321,21.32a150.251,150.251,0,0,1-5.03,76.068c6.906-9.11,21.761-9.23,30.685-2.085s12.412,19.437,11.7,30.847c-1.389,22.11-13.084,47.069-19.172,68.522,14.188-10,36.02-.959,42.985,14.938s1.679,35.028-8.826,48.844-25.472,23.421-40.118,32.735c.452-.288,16.876,19.224,18.419,21.308a59.154,59.154,0,0,1,45.222-25.14,104.553,104.553,0,0,1,30.6-57.77c4.268-4.082,9.563-8.023,15.445-7.485,22.977,2.1,7.62,37.295,2.295,47.945,4.694-9.5,18.314-13.168,27.145-7.307s10.742,19.836,3.809,27.852c13.283-8.958,38.768-26.392,50.256-5.633,9.92,17.927-7.419,34.49-19.233,45.632Q562.924,670.478,544.982,685.2Z"/><path class="d" d="M763.2,544.93c-4.464-7.38-4.8-17.748-2.665-25.935,2.613-10,9.326-15.541,15.569-22.955,2.817-3.346,15.69-23.244,21.046-21.612l-38.794-11.819c-8.6-7.858-.816-23.431,10.282-26.962,9.79-3.114,19.533-.336,29.323,1.028,9.168,1.278,17.167,1.529,25.113,7.239a50.408,50.408,0,0,1,48.344-21c-3.25-.541-8.325-8.348-11.952-10.233-5.294-2.751-11.924-4.731-17.673-6.37a95.012,95.012,0,0,0-39.862-2.706L795.5,386.594c48.457-15.388,104.41-4.517,143.579,27.9-.368-46.184-35.343-89.849-80.332-100.291,18.2-5.7,38.412-.574,54.715,9.325s29.428,24.152,42.318,38.211a252.433,252.433,0,0,1,46.011-57.074c8.18-7.58,16.928-15.253,26.608-20.869a78.958,78.958,0,0,1,16.845-7.3c3.686-1.11,12.869-.914,15.63-3a203.89,203.89,0,0,0-25.671,23.123c-6.4,6.831-14.481,13.626-18.8,21.913-10.755,20.631-18.452,43.248-23.759,65.856a302.014,302.014,0,0,0-6.61,40.079c-.963,10.009,1.107,24.751-4.049,33.711,23.637-41.048,52.576-79.995,90.838-107.922s86.865-43.943,133.577-36.072a448.656,448.656,0,0,0-99.047,57.006,70.537,70.537,0,0,1,65.851,15.568,71.58,71.58,0,0,1,121.875,14.282c-22.279-7.832-45.914-15.775-69.055-11.066s-44.381,27.29-38.625,50.193c29.789-15.762,68.657-12.426,95.325,8.18a153.129,153.129,0,0,0-100.278,33.688c14.648,7.279,30.045,15.223,38.65,29.133s6.778,35.6-7.894,42.828c-11.679-18.572-28.327-39.634-50.066-36.677-15.176,2.064-26.436,16.205-30.031,31.093s-1.129,30.489,1.351,45.6l-18.945-33.232c-27.5,10.831-50.672,31.691-65.28,57.288-7.33,12.844-8.516,27.59-14.676,40.264-1.635,3.364-28.869,27.5-26.7,29.49-5.9-5.388-10.467-12.254-15.644-18.41,5.175-7.377,12.9-12.474,20.221-17.728s14.666-11.148,18.46-19.321,2.892-19.2-4.328-24.6c14.232-13.368,28.961-27.484,35.395-45.919,1.666-4.776,2.738-9.926,1.769-14.89s-4.333-9.692-9.179-11.139c-13.076-3.9-30.7,16.482-37.866,25.226l-7.137-10.933c-.318-.487,22.172-23.445,23.442-27.275,2.653-8-1.452-18.76-9.814-19.781,6.062-5.143,5.237-16.233-1.519-20.424s-17.057,0-18.972,7.714c.812-8.156-6.717-15.544-14.865-16.445s-16.17,3.434-21.728,9.459-9.083,13.6-12.522,21.034c1.554-3.361-8.13-9.046-10.32-9.71-11.98-3.632-22.565,6.512-25.145,17.694-1.782-4.157-7.249-5.691-11.59-4.422s-7.738,4.611-10.714,8.017c-10.5,12-19.856,24.556-23.36,40.442-.379-5.037-5.086-9.114-10.114-9.605s-10.03,2.122-13.276,5.992-4.92,8.849-5.7,13.84c-6.484-14.343-22.165-6.708-28.764,2.823-1.45,2.1-8.263,9.631-6.731,12.328-3.162-5.565-34.822-46.728-30.936-50.59C773.7,535.394,768.473,542.7,763.2,544.93Zm305.857-94.944c-3.33,9.43,3.851,7.864,11.584,10.182,1.743.523,21.22,7.6,20.824,8.448a211.6,211.6,0,0,1,38.744-56.51,61.62,61.62,0,0,0-45.585,7.088C1083.163,426.1,1073.537,437.3,1069.055,449.986Z"/><path class="a" d="M641.24,729.405c9.425-11.389,21.949-19.691,33.841-28.473a418.5,418.5,0,0,0,102.139-108.5c3.2-4.926,6.436-10.071,11.327-13.323s11.971-4.04,16.377-.157c7.684-14.418,25.738-22.431,41.585-18.456,7.517-6.071,15.036-12.143,22.713-18.01A539.631,539.631,0,0,1,980.553,476.9c3.631-1.588,7.586-3.168,11.451-2.292s7.087,5.4,5.144,8.851c6.657-3.7,15.388-2.238,21.475,2.339s9.779,11.771,11.582,19.17c4.288,17.6-1.734,25.339-12.2,37.954-4,4.816-5.991,12.948-1,16.724l28.583-17.255c2.6-1.57,5.5-3.2,8.5-2.713,3.917.638,6.439,4.84,6.552,8.808s-1.582,7.736-3.243,11.341c-4.531,9.838-6.018,19.586-9.542,29.137-3.557,9.644-15.228,12.153-18.77,21.538-2.286,5.846-.157,12.423-.615,18.684-1.069,14.607-14.649,24.3-24.079,33.844-3.849,3.9-9.473,7.315-8.089,13.489.791,3.524,8.61,10.463,12.586,7.656l44.743-31.587c13.192-9.313,23.647-21.493,37.165-30.368,3.9-2.563,8.835-4.949,13.047-2.933,2.124,1.016,3.607,2.977,5.105,4.794s3.236,3.642,5.526,4.192c4.447,1.069,11.907-6.264,15.779-8.086,5.693-2.678,13.939-2.609,16.735,3.028,3.206,6.465-3.3,13.183-6.428,19.685-5.368,11.148-.564,24.2.695,36.511s-5.158,28.26-17.5,27.354c4.943,17.8-3.4,38.421-19.339,47.769,5.072-2.963,6.68,16.688,5.43,19.289-1.684,3.5-7.681,8.731-11.923,8.731H668.728c-5.532,0-11.4.566-16.916,0C622.609,779.56,626.685,747,641.24,729.405Z"/><path class="b" d="M577.494,598.31C569.5,497.545,556,373.817,588.6,276.016c42.627-127.877,145.7-115.586,160.767,57.675"/><path class="b" d="M755.5,448.608c5.117,50.143,5.3,101.151,9.683,151.518"/><path class="b" d="M629.683,766.28c0-32.6,15.382-51.78,33.534-55.08"/><path class="b" d="M664.357,713.479h0"/><path class="b" d="M663.217,724.3c4.19-22.064,9.185-33.773,26.772-27.91"/><path class="b" d="M483.617,662.448c60.3-31.04,54.762,33.493,9.5,57.866"/><path class="b" d="M519.026,647.766c82.914-109.3,127.949-11.6,8.205,46.206"/><path class="b" d="M515.253,703.868c85.179-39.027,112.065,24.023,23.636,49.7"/><path class="b" d="M414.087,691.44c28.6-145.041,133.574-63.776,20.733,38.8"/><path class="b" d="M464.231,612.386c41.571-119.136,108.28-63,21.722,19.628"/><path class="b" d="M521.192,588.161c19.574-13.44,37.829-.568,31.89,22.235"/><path class="b" d="M690.892,714.7c3.822-23.349,9.064-45.653,30.659-44.91"/><path class="b" d="M722.847,678.426c4.979-22.2,6.78-54.873,33.684-44.91"/><path class="b" d="M756.962,648.2c-2.749-21.1,27.544-99.365,47.5-64.773"/><path class="b" d="M580.229,659.327c.548,6.589,1.553,25.521,2.059,32.113"/><path class="b" d="M802.736,596.812c2.125-19.432,29.554-54.638,42.318-27.205,11.31-39.151,40.119-24.416,23.319,13.387,19.1-5.536,17.153,17.314,3.885,35.409,13.929,6.714,8.218,25.4,3.827,35.062"/><path class="b" d="M873.511,555.141c.389-13.309,41.612-68.472,46.249-42.967"/><path class="b" d="M919.76,513.924c8.954-24.832,40.907-29.714,29.795.841,14.453,6.461-1.39,24.457-7.1,32.369"/><path class="b" d="M951.439,507.672c2.421-26.864,65.241-58.114,44.541-12.113,25.372-25.863,43.163-8.69,22.273,18.168"/><path class="b" d="M1028.019,506.3c18.84,14.226-8.587,34.634-18.95,44.347"/><path class="b" d="M1015.712,549.089c6.729,17.579-12.6,29.356-24.029,39.072"/><path class="b" d="M1017.1,563.155c33.266-40.371,56.631-21.712,37.1-2.344,17.488,13.91-25.753,43.424-37.1,56.9"/><path class="b" d="M958.589,588.746c19.495,7.472-2.061,32.142-10.045,41.722,22.279,3.7,7.192,27.354-.772,37.088,13.544,13.1-6.3,34.629-18.545,43.268"/><path class="b" d="M1027.774,610.4c19.394,19.452-26.476,51.053-41.755,68.03"/><path class="b" d="M991.683,674.835c6.532-.9,15.884,6.457,18.287,11.264,24.5-35.489,59.96-32.646,31.679,2.7"/><path class="b" d="M1113.914,713.28c34.249-14.211,40.541-65.082,9.636-48.041,36.177-30.607,38.631-77.756-11.2-32.451-7.027-35.976-51.026,11.554-63.135,28.058"/><path class="b" d="M1038.945,718.937c-16.787-15.585-41.966,15.249-52.926,27.429-3.71-30.05-58.64,10.589-66.259,23.007"/><path class="b" d="M1424.11,502.982c-83.719-50.265-215.86,22.674-252.655,105.465-3.024,6.8-14.682,30.453-14.682,52.542,14.5,6.177,33.264,5.18,45.378,2.667"/><path class="b" d="M1561.265,653.465c-23.279-46.8-88.12-56.355-135.026-49.8-30.467-87.065-139.695-32.653-184.861,12.512-39.386,39.385-73.146,100.177-90.449,152.084"/><path class="b" d="M1484.4,691.878c-7.3-21.9-28.034-49.179-47.137-63.722,42.514-9.312,92.748,7.064,115.738,43.846"/><path class="b" d="M1424.11,768.259c26.164-38.875,65.792-92.093,110.7-108.932"/><path class="b" d="M1482.954,537.492c26.65-18.109,51.6-7.058,75.6,8.209"/><path class="b" d="M1381.3,559.427c17.826-56.164,107.685-107.664,121.548-52.212,22.755-3.244,46.245,3.368,59.8,15.569"/><path class="b" d="M1479.46,629.3c-7.745,7.226-12.46,10.462-21.068,16.634"/><path class="b" d="M1514.767,533.73c6.772,13.747,6.51,29.93,2.162,44.362-3.286,10.907-8.875,20.1-15.755,28.569"/><path class="b" d="M316.445,766.28c-27.824-34.991-42.559-123.048.17-112.366,35.1,8.776,36.756,68.9,36.756,96.9"/><path class="b" d="M353.371,719.405c34.13-77.639,102.479-8.069,48.116,35.42"/><path class="b" d="M305.681,653.316c2.633-29.6,33.723-120.039,73.9-104.84S358.09,656.815,346.376,686.1"/><path class="b" d="M388.653,555.127c4.915-10.694,12.662-23.43,20.858-31.625,21.063-21.064,50.165-5.07,50.165,22.2,0,48.632-73.074,73.005-97.054,107.261"/><path class="b" d="M403.97,617.707c37.607,8.3,16.62,53.11-2.483,68.392"/><path class="b" d="M285.862,766.28c-62.841-54.448-43.2-113.946,2.759-54.863"/><path class="b" d="M401.487,754.825c39.65-47.092,139.8-43,102.99,1.166"/><path class="b" d="M288.621,674.762c-106.6-73.041-2.494-118.6,21.437-46.806"/><path class="b" d="M256.076,594.1c-106.207-108.423,3.884-101.826,67.744-3.53"/><path class="b" d="M295.4,554.2c-50.167-111.849,35.13-124.479,47.079,6.96"/><path class="b" d="M334.912,514.765c11.055-27.343,48.961-116.292,86.863-99.665s-17.926,100.437-38.36,132.55"/><path class="b" d="M296.1,466.122c-65.01-121.655,43.167-112.9,61.338.642"/><path class="b" d="M328.6,395.492c3.4-121.155,103.529-88.661,55.3,31.91"/><path class="b" d="M253.044,522.784c-48.9-31.514-18.643-120.258,27.614-50.871"/><path class="b" d="M245.171,696.709c-75.3-19.212-80.606-97.16-3.579-67.021"/><path class="b" d="M248.749,720.314c-53.569-35.085-93.172-3.255-60,21.608,18.815,14.1,35.745,20.213,41.557,28.436"/><path class="b" d="M719.156,416.4c-8,37.823,36.378,43.153,45.676,9.057"/><path class="b" d="M764.832,425.456c37.662,11.9,51.329-34.05,15.357-48.826"/><path class="b" d="M743.175,340.8c33.462-35.108,64.016,2.829,37.014,35.833"/><path class="b" d="M743.175,340.8c-24.981-23.138-66.568,11-40.557,37.014"/><path class="b" d="M702.618,377.811c-24.609,13.963-18.51,47.52,12.01,47.52"/><path class="b" d="M941.4,487.725c-8.089-78.124,17.075-170.779,92.464-208.473,5.128-2.565,21.99-11.238,27.454-9.416,5.414,1.8-28.842,26.541-38.584,43.761-5.8,10.248-38.263,51.7-38.263,158.494"/><path class="b" d="M1034.466,524.11c45.051-67.3,169.294-66.807,195.456,5.139"/><path class="b" d="M1054.841,578.478c23.582-53.537,120.008-99.756,156.676-32.535"/><path class="b" d="M1002.187,477.88C1018.249,426.1,1076.9,365.829,1131.02,372.8c29.754,3.832,71.654,23.753,50.1,81.108,2.848-56.82-102.2-63.34-115.152,5.884"/><path class="b" d="M1025.731,483.444c18.563-27.239,60.49-32.653,83.047-7.277"/><path class="b" d="M1127.614,524.11c5.756,7.671,12.44,76.2,4.28,76.2-2.5,0-7.089-25.974-8.133-29.108-5.349-16.045-12.031-32.989-26.1-39.384"/><path class="b" d="M1079.55,629.455c0-26.447,13.633-61.97,34.364-77.518"/><path class="b" d="M1134.891,534.813c7.25-5.3,19.554-12.4,39.172-18.394"/><path class="b" d="M1128.469,724.022c15.376.221,29.057-1.36,42.808-7.706"/><path class="b" d="M1221.789,506.988c12.522-.6,26.169-.485,38.1,3.853"/><path class="b" d="M985.92,460.756c46.557-115.49,149.77-161.491,230.733-144.688-38.379,8.027-84.459,33.191-112.079,57.453"/><path class="b" d="M1035.153,655.871c13.012-36.011,33.712-72.446,66.956-92.391"/><path class="b" d="M1102.685,469.147c7.633-15.477,22.849-37.634,38.169-55.472"/><path class="b" d="M1172.429,385.43c56.37-53.052,132.253-8.535,127.179,26.185-27.313-30.709-85.615-32.01-112.323-1.594"/><path class="b" d="M1168.543,427.723c-10.89,13.676-21.176,31.923-26.1,46.835"/><path class="b" d="M954.947,363.854C936.284,330.258,880,272,822.12,339.612c47.968-60.441,107.11,18.319,120.706,68.181"/><path class="b" d="M758.92,463.546c45.671,1.663,100.765,22.908,125.531,62.536"/><path class="b" d="M760.3,439.175c63.006-9.906,124.505,22.515,172.025,58.155"/><path class="b" d="M760.632,524.659c7.148-19.732,18.3-37.581,35.074-51"/><path class="b" d="M825.594,439.634c28.918-18.428,86.219-30.058,115.875-7.816"/><path class="b" d="M762.148,555.141c15.219-22.5,38.842-52.882,73.419-71.615"/><path class="b" d="M893.188,466.764c13.675-2.73,27.38-1.691,40.924-.46"/><path class="b" d="M801.173,510.4c16.42,4.092,39.025,20.712,47.871,35.458"/><path class="b" d="M806.282,406.067c19.425-2.986,47.655-1.085,62.074,13.335"/><path class="b" d="M800.765,386.3c47.945-15.384,98.91-5.474,136.1,27.589"/><path class="b" d="M778.169,538.029c12.38,8.473,20.794,24.579,25.814,35.873"/><path class="b" d="M1191.737,437.009c11.087-3.182,72.57-11.808,94.135,15.96-42.557-.223-93.092,16.713-107.6,27.589"/><path class="b" d="M735.252,367.685c4.221,11.255,1.41,19.49-7.818,26.67"/><path class="b" d="M738.229,377.559c7.644,4.334,15.921,2.471,22.07-3.678"/><path class="b" d="M737.308,386.3c9.374,1.112,11.7,8.926,12.416,17.472"/><path class="b" d="M604.324,210.241c-7.5,2.607-11.627,10.709-17.974,12.2-30.043,7.067-52.977-45.276-3.517-55.748-12.986-45.007,47.211-64.817,56.741-20.117,28.54-41.373,74.8-11.251,52.777,19.155-6.47,8.933-20.8,3.982-29.053,10.986"/><path class="b" d="M583.131,200.808c13.653-3.327,22.333,8.8,34.479,15.831"/><path class="b" d="M660.929,158.416c-.076,9.241,3.8,21.714,3.494,31.976"/><path class="b" d="M424.848,483.444c34.828-16.68,50.652,8.322,54.245,15.894,17.109-23.52,53.493-10.015,46.613,21.765,6.2-15,38.966-14.386,45.45,3.556"/><path class="b" d="M192.185,462.414c-24.958-2.927-12.384-35.29,8.375-20.025-6.124-28.56,30.671-25.365,20.754-1.455"/><path class="b" d="M214.321,477.629c-7.405,1.278-10.127,9.373-8.375,13.47-15.911-15.911-32.363,17.032-8.737,20.025"/><path class="b" d="M188.519,609.207c-32.019-8.771-8.849-37.241,8.737-19.3-.741-29.638,43.827-10.662,18.435,10.416a18.14,18.14,0,0,1,7.829,8.882"/><path class="b" d="M175.047,602.652c1.849,9.867-23.314,21.838-27.307-2.549-11.636,20.84-40.377-13.3-10.194-19.3-22.5-16.839,12.078-39.9,18.205-14.563,7.954-18.128,35.444,2.268,13.469,16.748"/><path class="b" d="M111.7,672.193c-16.687-32.792,33.154-37.948,28.287-8.375,21.316-13.279,32.383,27.18,3.388,25.122,25.321,21.567-19.905,40.635-19.905,6.492C101.623,724.587,70.15,674.371,111.7,672.193Z"/><path class="b" d="M143.919,553.638c-15.781-13.8,7.624-28.36,15.836-17.249-3.244-20.086,28.78-18.312,19.3,5.1,18.615-14.3,33.812,18.5,7.942,18.785"/><path class="b" d="M98.225,527.652c-3.188-3.349-4.222-9.544-3.64-14.2.516-4.133,3-5.095,6.188-6.919,14.524-8.3,15.556,6.19,18.57,6.19,1.5,0,.26-3.12,1.091-4.368a19.709,19.709,0,0,1,6.555-5.1c12.739-5.095,21.488,6.291,16.383,18.2"/><path class="b" d="M116.794,552.41c12.881-15.046-14.388-25.354-21.118-7.282-2.84-22.729-46.6-14.3-23.665,14.563-24.474,9.708,3.681,39.858,16.748,15.292,6.71,27.389,43.088,4.588,17.476-12.016"/><path class="b" d="M131.017,486.075c-28.653-6.493-.825-41.02,11.262-17.04,1-28.206,38.519-9.963,18.205,9.465,21.55,0,10.419,31.28-5.865,19.661"/><path class="b" d="M108.419,404.783c-10.155,2.938-11.694,20.562,1.749,27.055s25.2-6.957,21.553-14.5c3.646,7.546,18.952,11.411,24.672-1.266s-7.885-25.664-17.026-22.037c7.687-5.636,11.615-14.758,4.967-21.4-11.067-11.068-25.663-.773-24.627,8.662-1.036-9.435-21.122-12.45-27.164.3C85.587,396.28,98.264,407.721,108.419,404.783Z"/><path class="b" d="M62.91,467.577c3.095-16.047,27.607-15.619,29.126,1.093.319,3.511-.244,6.7-2.549,9.466-1.046,1.255-4.8,2.123-3.641,3.278,0,0,6.591-1.554,8.374-.365,9.63,6.42,8.095,24.562-4,26.578-7.732,1.288-11.118-6.917-14.927-6.917-4.868,0-13.53,19.345-22.938-1.82"/><path class="b" d="M53.444,618.673A15.159,15.159,0,0,1,60,610.3c10.772-6.463,20.025,2.993,20.025,13.472,0,2.334-4.928,4.539-3.278,6.189,1.165,1.164,27.356-.995,14.928,20.753-3.642,6.375-18.357,3.871-18.2,5.1,1.609,12.884-20.76,18.905-24.4,4.368"/><path class="b" d="M49.073,698.042c7.816-14.22,35.344-6.633,29.491,10.923-.4,1.194-6.344,8.27-6.188,8.375,3.66,2.438,8.749-2.532,13.107,4C95.651,736.6,73.448,748.769,60,737"/><path class="b" d="M153.583,662.431c-1.035-4.82,2.219-8.931,8.821-12.488-11.564-18.9,14.465-30.261,22.839-11.419"/><path class="b" d="M161.3,683.833c5.755,4.2,13.046.293,14.367-7-3.3,13.1,27.5,24.252,30.821,1.042"/><path class="e" d="M346.048,551.513c12.387-26,38.364-74.108,56.677-96.33"/><line class="f" x1="582.893" y1="733.68" x2="583.418" y2="770.358"/><path class="e" d="M607.016,460.9a41.151,41.151,0,0,1,15.66,20.77"/><path class="e" d="M639.081,517.341a94.309,94.309,0,0,1,4.835,29.77"/><path class="e" d="M605.707,545.171a25.342,25.342,0,0,1,12.949,12.685"/><path class="e" d="M612.53,603.008A40.711,40.711,0,0,1,626.6,616.6"/><path class="e" d="M669.514,591.707l-6.628,28.869"/><path class="e" d="M715.007,575.443a56.157,56.157,0,0,0-6.124,22.243"/><path class="e" d="M556.518,373.79l28.571,11.523"/><path class="e" d="M552.934,438.831A254.84,254.84,0,0,1,578.5,459.686"/><path class="e" d="M555.092,489.323A110.113,110.113,0,0,1,583.6,504.47"/><path class="e" d="M592.46,366.877a144.225,144.225,0,0,1,19.02,27.647"/><path class="e" d="M644.151,439.229a61.8,61.8,0,0,1,7.56,26.278"/><path class="e" d="M710.207,480.924a70.5,70.5,0,0,0-24.841,27.1"/><path class="e" d="M705.615,522.9a74.331,74.331,0,0,0-14.276,22.173"/><path class="e" d="M614.511,311.757a75.937,75.937,0,0,1,12.124,23.607"/><path class="e" d="M557.889,304.3a62.989,62.989,0,0,1,22.082,23.052"/><path class="e" d="M649.737,300.227a102.479,102.479,0,0,1,7.169,29.072"/><path class="e" d="M703.793,310.046a50.488,50.488,0,0,0-13.836,19.212"/><path class="e" d="M703.8,262.107a74.918,74.918,0,0,0-16.609,28.7"/><path class="e" d="M664.459,226.787l.166,30.346"/><path class="e" d="M623.276,245.67l12.813,19.556"/><path class="e" d="M729.808,203.831a58.3,58.3,0,0,0-23.6,30.369"/><path class="e" d="M696.777,184.3a74.292,74.292,0,0,0-8.756,29"/><path class="e" d="M739.263,494.5A67.994,67.994,0,0,1,766.9,484.271"/><path class="e" d="M745.322,586.886a57.534,57.534,0,0,1,31.039-18.856"/><path class="e" d="M611.383,674.313a96.923,96.923,0,0,1,17.037,23.64"/><path class="e" d="M650.832,672.656a55.448,55.448,0,0,1,18.43,29.529"/><path class="e" d="M711.23,628.564a87.426,87.426,0,0,0-5.549,29.146"/><path class="e" d="M606.368,730.625a103.839,103.839,0,0,1,22.367,17.386"/><path class="e" d="M756.654,695.061c4.484,2.6,6.774,7.833,7.773,12.92s1.006,10.357,2.371,15.358a29.776,29.776,0,0,0,23.111,21.01"/><path class="e" d="M785.735,690.012c10.438,10.438,11,27.291,7.709,41.681s-9.727,28.111-11.006,42.818"/><path class="e" d="M839.523,671.366a41.665,41.665,0,0,0,4.044,37.068"/><path class="e" d="M866.368,675.5A222.979,222.979,0,0,0,820.34,779.008"/><path class="e" d="M817.472,696.818a31.132,31.132,0,0,1-20.822,25.144"/><path class="e" d="M894.728,685.066c-11.868,7.363-19.974,19.3-28.848,30.086s-19.8,21.22-33.59,23.446"/><path class="e" d="M648.106,386.875a31.532,31.532,0,0,1,7-25.866"/><path class="e" d="M1419.875,630.4c-50.376,15.54-113.781,91.566-138.611,140.806"/><path class="e" d="M1409.313,738.6c-10.773-22.282-22.765-70.049-10.453-98.354-30.972-.086-62.9-7.475-91.93-18.278"/><path class="e" d="M1344.225,771.2c-8.424-21.677-13.31-55.282-6.215-79.827a497.862,497.862,0,0,1-109.542,1.287"/><path class="e" d="M1209.877,756.32a354.826,354.826,0,0,0,85.153-9.366,189.144,189.144,0,0,0,21.459,34.786"/><path class="e" d="M1196.422,615.048a61.9,61.9,0,0,0,37.782,5.539"/><path class="e" d="M1230.7,572.64a102.56,102.56,0,0,0,51.008,12.566"/><path class="e" d="M1268.474,539.222a310.888,310.888,0,0,0,66.362,23.967"/><path class="e" d="M1330.052,514.046a544.64,544.64,0,0,0,59.814,17.9"/><path class="e" d="M1469.744,543.772a107.646,107.646,0,0,0-34.193,57.315"/><path class="e" d="M1415.1,554.274a96.372,96.372,0,0,0,44.738-.454,166.771,166.771,0,0,0,12.051,42.748"/><path class="b" d="M1086.174,788.987c43.782-16.748,27.763-40.812,11.492-35.28,24.054-5.482,42.969-45.6,16.226-39.4"/><path class="e" d="M368.038,572.436c-18.636,18.539-35.732,54.381-38.412,80.53"/><path class="e" d="M313.849,678.9a581.723,581.723,0,0,1,20.333,82.751"/><path class="e" d="M397.312,709.553l-32.266,50.661"/><path class="e" d="M457.949,641.928c-16.563,27.715-25.341,58.541-33.97,89.358"/><path class="e" d="M482.661,739.134a116.308,116.308,0,0,0-48.7,30.239"/><path class="e" d="M303.505,499.082a379.323,379.323,0,0,1,22.839,74.058"/><path class="e" d="M240.781,540.488a158.344,158.344,0,0,1,71.2,68.054"/><path class="e" d="M265.324,612.532a105.868,105.868,0,0,1,30.333,44.057"/><path class="e" d="M209.736,646.155a276.011,276.011,0,0,1,73.077,51.319"/><path class="e" d="M202.551,724.771a243.953,243.953,0,0,1,69.4,44.424"/><path class="e" d="M501.233,676.757a435.957,435.957,0,0,1-44.589,44.5"/><path class="e" d="M400.167,639.1a245.188,245.188,0,0,0-46.954,57.106"/><path class="e" d="M433.98,542.334Q407,582.446,383.35,624.673"/><path class="e" d="M505.25,572.493a145,145,0,0,0-22.643,44.757"/><path class="e" d="M569.639,626.1A202.585,202.585,0,0,0,530,665.217"/><path class="e" d="M562.371,718.018a141.491,141.491,0,0,1-50.1,16.646"/><path class="e" d="M529.553,609.252l-40.339,44.437"/><path class="e" d="M365.826,345.79q-6.132,50.916-8.039,102.223"/><path class="e" d="M299.6,406.716a199.273,199.273,0,0,1,33.7,93.556"/><path class="e" d="M249.823,475.391l32.084,58.221"/><path class="e" d="M557.627,562.59a75.389,75.389,0,0,1,33.557,14.544"/><path class="e" d="M1152.235,566.856a61,61,0,0,0,39.008,6.123"/><path class="e" d="M1158.093,700.407a92.477,92.477,0,0,1,13.856-34.4"/><path class="e" d="M1108.813,604.453a87.485,87.485,0,0,0,62.988-4.236"/><path class="f" d="M1350.961,237.7c.11,33.976-28.636,63.75-64.073,63.751-32.6,0-61.635-27.632-62.747-60.682-1.021-30.382,22.875-59.645,52.848-64.717s62.165,14.7,71.2,43.727A60.856,60.856,0,0,1,1350.961,237.7Z"/><path class="e" d="M1327.341,333.055q6.579,25.977,14.028,51.723"/><path class="e" d="M1365.8,332.457c26.47,23.986,50.47,48.986,71.521,76.782"/><path class="e" d="M1388.84,300.693c37.434,25.75,76.434,48.75,114.742,72.756"/><path class="e" d="M1392.119,253.56c63.015,20.027,124.47,40.908,188.632,58.616"/><path class="e" d="M1197.742,269.586c-55.95,21.458-118.7,38.093-162.258,57.5"/><path class="e" d="M849.044,168.642c46.917,4.7,264.87,35.189,332.554,44.658"/><path class="e" d="M1182.907,95.463c16.265,20.377,32.406,44.543,47.8,65.278"/><path class="e" d="M1268.92,95.727l9.275,47.828"/><path class="e" d="M1371.017,70.535c-14.013,26.316-26.231,54.7-43.633,78.954"/><path class="e" d="M1424.11,107.5c-13.771,11.474-48.206,47.2-61.978,58.67"/><path class="e" d="M1532.384,111.4c-52.784,22.66-102.339,46.508-152.785,73.645"/><path class="e" d="M1586.75,200.142c-64.5,2.418-128.163,16.688-192.509,22.434"/><path class="f" d="M1236.139,460.756c10.518,1.713,21.678,11.334,23.749,22.688-3.681-22.688,28.656-42.033,48.527-20.548-6.306-11.755,1.683-25.334,8.9-31.267a26.393,26.393,0,0,1,26.382-3.88,32.642,32.642,0,0,1,61.371-.517,17.138,17.138,0,0,1,19.508,9.972,24.478,24.478,0,0,1,30.79-25.181,25.39,25.39,0,0,1,36.619-22.135,25.824,25.824,0,0,1,47.9,11.7,46.82,46.82,0,0,1,42.6,12.821"/><path class="e" d="M1496.251,732.8a165.046,165.046,0,0,0,81.843,14.934"/><path class="f" d="M995.354,376.549c-.308-4.929,4.9-8.707,9.838-8.765s10.669,4.554,10.48,9.488c2.02-6.08,4.614-12.11,8.866-16.9s10.4-8.229,16.8-7.97,12.737,3.521,13.785,9.842"/><path class="f" d="M1150.668,342.917a14.644,14.644,0,0,1,8.662,2.052c6.777,4.195,9.106,14.2,4.879,20.955,7.05-2.641,15.887,2.253,17.389,9.63"/><path class="f" d="M1214.34,392.244c10.138-2.993,22.057,2.188,26.783,11.643a23.212,23.212,0,0,1,15.713-14.552"/><path class="f" d="M1275.77,370.29a15.815,15.815,0,0,1,31.023,4.451c6.215-5.255,16.842-1.215,20.065,6.259s.522,16.389-4.414,22.86c5.651-7.167,14.224-12.708,23.337-12.207s17.861,8.723,16.711,17.777"/><path class="f" d="M911.341,395.487a16.983,16.983,0,0,1,15.639-21.341"/><path class="e" d="M783,268.56c35.068-2.726,343.93-26.6,399.905-22.357"/><path class="e" d="M1035.484,95.727c22.485,10.367,135.354,74.535,155.759,88.559"/><path class="e" d="M133.982,420.17l12.927,37.375"/><path class="e" d="M131.52,713.64a154.553,154.553,0,0,1,3.513,66.892"/><path class="e" d="M106.335,705.727a175.132,175.132,0,0,1,4.82,72.823"/><path class="e" d="M173.156,683.8a203.4,203.4,0,0,0-10.4,97.812"/><path class="e" d="M181.992,771.583a68.1,68.1,0,0,1,6.189-27.891"/><path class="e" d="M203.827,706.59l11.878-18.019"/><path class="e" d="M139.422,656.863a152.268,152.268,0,0,1,8.777-46.889"/><path class="e" d="M91.5,583.912a176.166,176.166,0,0,1,25,60.924"/><path class="e" d="M74.362,660.848A71.732,71.732,0,0,1,92.319,682.8"/><path class="e" d="M34.735,549.783A149.171,149.171,0,0,1,83.9,632.009"/><path class="e" d="M128.333,602.008a185.151,185.151,0,0,0-3.541,36.894"/><path class="e" d="M160.989,506.226l.9,14.971"/><path class="f" d="M273.7,403.168a34.6,34.6,0,0,0-26.561,25.805,29.264,29.264,0,0,0-37.593-25.425c4.953-28.747-32.25-39.286-44.145-27.39-.09-21.025-13.453-42.043-35.646-43.847-16.242-1.32-32.558,10.5-36.371,26.338,2.372-12.554-10.713-24.313-23.468-23.582s-23.446,10.9-28.473,22.645"/><path class="f" d="M397.645,378.383a29.893,29.893,0,0,1,23.939,18.569c9.01-41.857,67.98-30.545,57.9,15.358,6.182-5.918,16.682-5.561,23.683-.638s10.819,13.4,12.045,21.869c.013-7.835,3.894-16.034,10.979-19.379s17.072-.083,19.342,7.416a25.574,25.574,0,0,1,19.848-21.307"/><path class="c" d="M1123.784,707.384c7.686-7.2,15.716-14.96,18.4-25.145s-2.624-23.213-13.043-24.757c2.547-6.7,8.3-11.551,12.633-17.254s7.264-13.818,3.432-19.87c-3.52-5.558-11.492-6.789-17.678-4.55s-11,7.1-15.591,11.807c-8.886-7.814-23.172-8.636-32.895-1.891a164.628,164.628,0,0,1,32.885-70.194c-.655.815,15.457,20.149,17.023,21.986.335-11.108.442-35.178,7.391-43.6,9.8-11.872,35.535-24.466,49.82-15.175,8.681,5.647,11.184,15.59,18.206,22.469,6.1,5.98,4.022,4.914,11.685,2.315,1.52-.516,16.518-10.085,16.376-10.57l-6.526-22.363c15.872-2.982,29.484-5.037,44.284,3.46.441.253,15.241-10.023,17.558-11.2,19.5-9.863,45.014-13.624,66.655-15.114,24.565-1.692,49.459,1.762,71.432,13.341.01,0,27.557-17.462,32.188-18.6,21.1-5.172,40.341,1.65,44.133,24.493-1.008-6.072,40.967,2.478,44.375,4.046,10.584,4.869,30.363,17.508,17.66,30.864-6.491,6.823-13.368-1.909-19.221-4.917A57.76,57.76,0,0,0,1519.4,530.5c5.02,13.359,3.9,28.4-.35,42.029s-11.425,26.118-18.548,38.484a73.642,73.642,0,0,1,40.117,14.809c6.7,5.027,19.231,15.331,20.662,24.252,2.07,12.907-11.551,14.138-19.923,9.395-9.126-5.171-16.4-13.1-25.259-18.434-10.275-6.189-23.185-10-34.562-13.592-5.165,7.791-14.161,12.755-20.761,19.319a134.435,134.435,0,0,1,23.03,42.858c10.74-9,22.571-20.789,35.5-26.422,9.485-4.132,21.338-4.445,29.5,1.917,8.659,6.752,10.941,18.924,10.534,29.9-.2,5.482-.514,80.56,1.562,80.561H1255.651c-33.945,0-69.17-2.049-102.809.12-4.982-8.448,1.367-21.248,4.565-29.506,2.722-7.03,8.618-25.475,15.521-29.291-7.688,4.25-16.2,7.368-24.982,7.528C1134.735,724.666,1126.273,719.805,1123.784,707.384Z"/><path class="b" d="M45.515,437.373c-5.757-8.577-3.633-23.358,6.771-27.546A16.428,16.428,0,0,1,68.4,412.69c4.5,3.971,4.866,12.733,3.533,18.143,5.463-8.9,17.012-13.394,24.491-3.758,3.911,5.038,4.229,12.386,1.37,18.086a22.394,22.394,0,0,1-14.749,11.23"/><path class="e" d="M97,445.985c8.647,5.432,16.982,11.681,22.111,20.549"/><path class="a" d="M162.649,500.985a17.883,17.883,0,0,1-10.056-3.526l-7.734,6.222a72.781,72.781,0,0,1-1.386,28.406,12.762,12.762,0,0,1,14.091,6.747c-1.622-3.44,4.535-11.715,6.736-13.878,3.765-3.7,9.15-2.665,12.884,1.032,3.934,3.9,4.762,10.177,3.2,15.487,4.095-4.441,12.093-3.943,16.047.625s3.6,12.039-.314,16.639-10.741,6.222-16.533,4.5a38.192,38.192,0,0,1-4.441,18.127,29.678,29.678,0,0,1,22.192,5.313c-1.122-6.028,4.166-12.187,10.278-12.667s12.006,4.136,13.736,10.018-.364,12.515-4.6,16.945a20.519,20.519,0,0,1,5.822,22.661l18.885,1.885a49.436,49.436,0,0,1,4.26-26.87c1.2-2.559,2.656-5.194,2.432-8.012-.286-3.586-3.173-6.334-5.826-8.764-15.574-14.274-32.36-33.127-32.1-55.459a12.473,12.473,0,0,1-9.79-13.839c-11.072,2.949-16.8-10.326-17.929-18.8l-5.176-1.818c-2.835,3.745-5.528,7.679-10.226,8.657A18.308,18.308,0,0,1,162.649,500.985Z"/><path class="e" d="M268.611,714.937c12.124,19.907,28.479,36.549,38.575,57.623"/><path class="e" d="M1265.585,327.349c-3.128,18.441-7.321,37.48-7.321,37.48"/></svg>