<svg xmlns="http://www.w3.org/2000/svg" viewBox="0 0 1209.989 1145.482"><defs><style>.a{opacity:0.67;}.b{opacity:0.37;}.c,.d{fill:none;stroke:#000;stroke-linecap:round;stroke-linejoin:round;}.c{stroke-width:14px;}.d{stroke-width:8px;}</style></defs><title>EFimage</title><polygon class="a" points="139.435 1090.109 115.33 1050.351 97.436 843.095 120.846 883.511 139.435 1090.109"/><path class="b" d="M139.435,1090.109c.045.009,168.282,38.11,168.282,38.11l-8.93-93.082c-42.712-11.5-71.4,19.123-96.965,19.185,2.71-6.919,13.533-24.173,13.533-24.173l-36.17-2.162,9.03-14.548L171.691,1007c28.584-41.359,73.962-61.675,117.321-64.492-.064-7.7-1.544-31.72-4.308-34.864-1.185-1.348-123.739-24.029-164.524-31.531Z"/><path class="c" d="M975.877,323.384c15.669,27.4,26.586,58.71,36.5,88.714,33.815,102.3,65.971,206.356,94.237,309.862,35.024,128.254,53.309,262.817,66.366,394.839"/><path class="c" d="M669.18,684.639c-79.232,24.052-164.013,30.391-246.257,22.421-100.347-9.723-183.629-37.085-258.72-106.5-8.275-7.65-16.74-16.671-17.568-27.91-1.315-17.864,16.463-30.528,32.051-39.352C353.889,434.119,525.149,330,718.226,266.959c48.976-15.993,103.561-30.049,152.749-21.674"/><path class="c" d="M421.931,1003.411c32.548-101.356,94.116-213.2,158.843-296.134"/><path class="c" d="M382.187,1118.584q5.7-19.512,11.873-38.848"/><path class="c" d="M888.758,311.456c-27.971-77.7-36.079-166.667,13.906-239.221,18.972-27.538,50.131-52.212,82.9-45.553,20.408,4.147,37,20.152,46.038,38.911s11.442,40.037,11.616,60.861c.72,85.728-37.158,173.3-99.181,232.49"/><path class="c" d="M741.656,259.658c-25.519-26.025-55.688-99.472-34.228-153.728,7.926-20.038,28.51-36.834,49.711-32.956,62.452,11.425,71.662,119.2,66.872,169.812"/><path class="c" d="M932.978,267.752,966.929,116.6"/><path class="c" d="M579.5,480.054c2.67-32.558,23.831-62.964,53.433-76.779s66.5-10.5,93.167,8.363"/><path d="M633.237,499.965c-13.5-1.583-28.589-15.967-32.951-27.481-5.023-13.259-6.776-33.064,4.971-43.325a26.306,26.306,0,0,1,29.823-2.784c14,8.237,24.018,47.13,16.772,62.3C647.442,497.9,640.576,500.826,633.237,499.965Z"/><path class="d" d="M214.751,625.826,161.3,726.351"/><path class="d" d="M256.075,636.986c-19.127,47.342-26.263,65-45.391,112.346"/><path class="d" d="M297.822,663.166,275,757.927"/><path class="d" d="M200.275,515.028a374.465,374.465,0,0,1-48.92-104.586"/><path class="d" d="M232.816,505.748c-17.155-42.039-28.737-86.145-38.357-130.519q-2.037-9.394-3.959-18.816"/><path class="d" d="M264.071,481.963a443.838,443.838,0,0,1-13.034-121"/><path class="d" d="M555.139,358.376a434.04,434.04,0,0,0-70.975-93.219"/><path class="d" d="M586.153,339.584l-44.437-84.638"/><path class="d" d="M615.353,338.852a466.936,466.936,0,0,0-35.612-166"/><path d="M242.278,572.864a16.491,16.491,0,0,1-1.261,13.7c-8.748,14.214-31.457.019-43.4-1.172-3.5-.349-7.515-1.014-9.3-4.044-2.648-4.5,1.752-9.842,6-12.885,6.378-4.57,13.517-8.38,21.279-9.526s16.235.689,21.878,6.14A18.993,18.993,0,0,1,242.278,572.864Z"/><path class="c" d="M720,878.089C699.17,942.968,655.145,1033,528.551,1028.156c-36.43-1.395-72.388-12.121-106.62-24.745-20.523-7.569-41.623-14.178-60.688-25.114-17.964-10.3-32.059-25.539-52.264-31.907-37.579-11.845-78.606,4.431-108.094,27.91a152.721,152.721,0,0,0-25.512,25.593c-1.863,2.395-3.7,4.938-4.371,7.9,10.172,8.369,45.482-12.938,62.292-21.826"/><path class="c" d="M260.111,1007.933c-13.146,5.025-66.27,29.687-83.7,24.306,1.011-4.049,4.242-7.16,7.129-10.173,21.395-22.325,50-38.365,78.892-48.57"/><path class="c" d="M806.031,915.3c-23.439,70.778-74.113,143.673-145.074,174.054-100.05,42.835-208.895,14.453-303.754-27.438-26.386-11.653-61.706-31.481-93.125-27.448-11.36,1.458-21.531,7.455-31.945,12.219s-22.3,8.4-33.2,4.889A166.44,166.44,0,0,1,277.7,1001.8"/><line class="c" x1="120.18" y1="876.117" x2="286.097" y2="907.394"/><line class="c" x1="181.846" y1="778.054" x2="97.026" y2="839.011"/><path class="d" d="M203.014,789.243c-24.442,10.667-31.484,31.283-34.84,36.595-10.24,16.205-23.348,15.883-38.367,20.176,10.449-2.6,42.911-.547,58.711,7.373,26.387,13.226,57.435,17.265,88.467,17.55-1.205,5.234-9.205,9.234-10.4,14.467,4.584.125,15.754-1.645,15.754-1.645s.758,14.077.025,18.3"/><path class="c" d="M306.362,915.194C327.42,928.841,400,956.83,448.68,927.165"/><path class="d" d="M179.862,784.427c2.543,7.489,15.258,9.836,21.387,5.727"/><line class="c" x1="289.357" y1="939.834" x2="286.097" y2="907.394"/><polyline class="c" points="299.491 1040.658 308.364 1129.041 139.435 1090.109 117.293 1040.658 97.026 839.011 120.18 876.117"/><line class="d" x1="206.076" y1="819.702" x2="203.014" y2="789.243"/><line class="d" x1="210.331" y1="862.043" x2="208.016" y2="839.001"/><line class="d" x1="139.941" y1="1079.736" x2="119.674" y2="878.089"/><path class="c" d="M222.35,844.391c-10.684-2.469-34.34-4.492-36.518-5.369-5.137-2.07-4.821-9.53-1.284-12.864,2.062-1.943,4.783-3,7.43-4.012,7.166-2.738,24.169-4.218,35.406-4.218"/><path class="c" d="M209.173,801.609c34.02-9.449,57.439,25.509,81.94,42.237,58.425,39.889,130.631,47.909,205.258-8.466"/><path class="d" d="M699.05,615.292,857.6,774.711"/><path class="d" d="M726.345,590.348,911.6,716.45"/><path class="d" d="M753.288,561.658A1258.121,1258.121,0,0,1,995.453,678.079"/><path class="c" d="M317.661,687.907c4.151,12.6,8.336,25.279,14.436,36.834s14.289,22.043,24.819,28.4c8.645,5.216,19.945,7.171,27.9.707,5.278-4.291,8.113-11.584,8.935-18.849s-.129-14.62-1.078-21.866"/><path class="d" d="M362.941,752.9l-14.656-54.029"/><path class="c" d="M145.723,919.8l5.893-3.631q-1.731,24.724-3.464,49.447"/><path class="c" d="M195.509,922.473a16.022,16.022,0,0,0-19.8-2.06c-12.3,8.286-5.431,28.452,9.439,19.328,3.422-2.1,5.905-5.4,8.3-8.619L185.641,972.5"/><path class="c" d="M210.081,961.371c1.2-4.152,4.716-7.221,8.419-9.448s3.969-1.817,7.767-3.876c14.3-7.755,8.608-26.342-4.824-21.366-16.326,6.049-3.025,22.146,10.359,27.623"/><path class="c" d="M251.351,946.432c5.1-4.436,10.111-8.926,14.971-13.63l-1.8,11.206"/></svg>