<svg xmlns="http://www.w3.org/2000/svg" viewBox="0 0 1331.774 1298.24"><defs><style>.a{opacity:0.44;}.b{opacity:0.5;}.c,.f{fill:none;}.c,.d,.e,.f,.g{stroke:#000;stroke-linecap:round;stroke-linejoin:round;}.c,.d,.e,.g{stroke-width:14px;}.d{fill-opacity:0.2;}.e{fill-opacity:0.49;}.f{stroke-width:8px;}.g{fill-opacity:0.5;}</style></defs><title>EFimage</title><path class="a" d="M657.6,329.139c-4.514-6.58-9.076-13.216-14.883-18.69s-13.037-9.768-20.964-10.685-16.543,2.013-21.167,8.517c-5.812,8.175-4.119,19.652.375,28.62,1.083,2.161,15.509,23.305,16.854,22.676C622.9,357.2,659.01,333.7,657.6,329.139Z"/><path class="b" d="M436.183,1220.2l862.311,18.1c-54.213-168.293-236.823-270.446-290.91-438.78-37.074-115.381-6.915-240.15-6.084-361.338.435-63.346-7.786-128.557-35.348-186.249C942.191,201.773,912.976,146.9,863.528,117.934c-38.454-22.526-84.1-32.987-128.521-31.348-59.162,2.183-121.954,20.946-174.546,47.975-49.412,25.4-92.993,61.087-143.919,85.163q-34.738,16.424-70.968,29.412c-14.5,5.2-52.154,9-57.459,25.135-4.111,12.5,6.964,25.861,19.7,29.194s26.131-.433,38.752-4.176c-8.846,5.923-21.43,16.889-30.458,26.938a11.04,11.04,0,0,0,1.819,16.323c17.829,12.844,49.115,6.332,67.291-8.534-17.549,82.274-10.321,165.329,19.127,243.649-22.406,35.4-36.064,75.818-43.995,116.958-3.169,16.438-5.321,34.113,1.55,49.378,14.493,32.189,62.611,31.162,83.189,6.422,34.756,117.418,92.775,187.041,189.677,143.252l11.1,56.2C645.47,947.806,463.794,1174.115,436.183,1220.2ZM575.125,532.443c-51.161-3.419-104.227-34.988-115.549-85-7.825-34.561,5.725-71.365,28.411-98.587s53.576-46.258,84.92-62.789c92.085-48.567,196.691-75.365,283.449.438,36.621,32,63.52,77.2,65.852,125.776,2.129,44.34-18.986,90.568-56.239,113.854a101.885,101.885,0,0,1-11.107,6.021c-44.117,20.461-104.243,3.274-124.991-40.708C686.153,519.445,627.055,535.912,575.125,532.443Z"/><path class="c" d="M436.183,1220.2c27.611-46.084,209.287-272.393,209.68-270.323l-11.1-56.2c-96.9,43.789-154.922-25.834-189.677-143.252-20.578,24.74-68.7,25.767-83.189-6.422-6.871-15.265-4.719-32.94-1.55-49.378,7.931-41.14,21.589-81.555,44-116.958-29.448-78.32-36.676-161.375-19.127-243.649-18.176,14.866-49.462,21.378-67.291,8.534a11.04,11.04,0,0,1-1.819-16.323c9.028-10.049,21.612-21.015,30.458-26.938-12.621,3.743-26.016,7.509-38.752,4.176s-23.807-16.693-19.7-29.194c5.305-16.135,42.958-19.939,57.459-25.135q36.174-12.96,70.968-29.412c50.926-24.076,94.507-59.767,143.919-85.163,52.592-27.029,115.384-45.792,174.546-47.975C817.284,83.55,907.1,123.442,936.28,200.43c16.568-16.568,23.45-26.587,33.087-47.716"/><path class="c" d="M999.033,192.318c-19.7,0-40.421,11.23-54.132,22.668,44.12,64.282,57.135,145.226,56.6,223.191-.832,121.188-30.991,245.957,6.082,361.338,54.088,168.333,236.7,270.487,290.911,438.78"/><path class="c" d="M865.968,526.138a101.778,101.778,0,0,1-11.106,6.021c-44.117,20.461-104.243,3.274-124.991-40.708-43.718,27.994-102.816,44.461-154.746,40.992-51.161-3.419-104.227-34.988-115.549-85-7.825-34.561,5.725-71.365,28.411-98.587s53.576-46.258,84.92-62.789c92.085-48.567,196.691-75.365,283.449.438,36.621,32,63.52,77.2,65.852,125.776C924.337,456.624,903.222,502.852,865.968,526.138Z"/><path class="c" d="M655.246,392.874c-4.287-1.249-7.976-3.969-11.47-6.749a205.408,205.408,0,0,1-31.039-30.613c-7.032-8.591-13.563-18.251-14.921-29.27s4-23.554,14.508-27.132c6.816-2.32,14.5-.521,20.7,3.129s11.218,8.982,16.132,14.245c12.036,12.89,24.336,26.293,30.345,42.873,2.225,6.137,3.525,12.9,1.755,19.183C678.568,388.093,664.756,395.646,655.246,392.874Z"/><path class="c" d="M715.467,395.19c-5.829-5.221-8.627-13.415-7.91-21.208a32.6,32.6,0,0,1,10.455-20.443c9-8.411,23.705-11.687,33.87-4.726,8.6,5.887,11.813,17.84,8.956,27.86C755.635,394.924,732.086,410.077,715.467,395.19Z"/><path class="d" d="M767.335,415.178c8.969-7.25,21.5-10.458,32.465-6.87s19.5,14.566,18.828,26.08c-1.035,17.805-26.275,37.694-43.97,32.187C750.48,459.05,749.486,429.605,767.335,415.178Z"/><path class="e" d="M785.964,369.354c-2.571-7.039,1.73-15.575,9.248-18.353s17.084.632,20.571,7.332C825.756,377.491,793.187,389.129,785.964,369.354Z"/><path class="c" d="M680.6,300.133c.408-18.407,20.439-30.562,37.6-25.743,14.652,4.115,24.208,18.136,19.449,33.578-8.463,27.458-54.722,24.585-56.981-5.271Q680.574,301.4,680.6,300.133Z"/><path class="e" d="M590.909,417.076c2.442,8.954,13.012,14.767,21.868,11.987s14.2-13.644,10.963-22.341C616.337,386.86,585.141,395.931,590.909,417.076Z"/><path class="d" d="M527.942,399.906a31.626,31.626,0,0,1-11.512-22.565c-.683-10.835,2.813-22.126,10.47-29.821,16.361-16.442,40.073-6.79,47.132,13.467a36.328,36.328,0,0,1-6.47,34.752c-4.7,5.535-11.313,9.642-18.532,10.391A28.483,28.483,0,0,1,527.942,399.906Z"/><path class="f" d="M621.41,360.878l38.045-29.429"/><path class="f" d="M530.517,373.639l27.8,2.976"/><path class="f" d="M780.13,429.032l8.69,17.076"/><path class="g" d="M109.376,853.307c-.684-6.069,1.285-12.158,4.077-17.59,3.921-7.625,9.856-12.194,15.037-18.631,8.3-10.314,9.576-28,13.812-40.334,5.507-16.039,12.549-31.609,21.9-45.791,13.869-21.031,33.107-39.015,56.407-48.593,2.428-1,5.148-1.911,7.622-1.034,2.15.762,3.629,2.718,4.814,4.667a42.584,42.584,0,0,1-.954,44.724c-6.405,9.589-16.051,16.44-22.674,25.9-6.924,9.895-7.292,20.376-10.166,32.061a75.506,75.506,0,0,1-18.541,33.851c18.132-13.127,39.2-17.05,61.3-13.449,26.055,4.245,50.1,16.509,75.655,23.115,5.727,1.48,12.134,3.088,15.27,8.1,4.067,6.5.248,15.319-5.465,20.439a33.24,33.24,0,0,1-21.078,8.392c-16.111.436-30.278-10.731-46.195-13.265-17.355-2.762-35.446,5.543-46.594,19.129-21.056,25.663-24.654,78.475,1.733,101.853,21.765,19.281,57.478,12.386,73.161-10.441,14.112-20.541,24.293-62.311,55.626-61.217a32.836,32.836,0,0,1,25.322,13.734,10.588,10.588,0,0,1,2.3,5.768,9.775,9.775,0,0,1-1.782,5.209c-3.1,4.9-7.751,8.307-12.171,11.88-16.94,13.691-27.206,43.42-37.472,62.35-8.114,14.962-16.309,30.043-27.317,43.025-9.084,10.713-19.91,19.789-30.678,28.807-25.772,21.585-49.4,32.657-55.159,67.433q-7.6,45.93-15.206,91.859c-1.036,6.26-2.209,12.833-6.223,17.748-5.424,6.643-14.616,8.619-23.111,9.794a288.324,288.324,0,0,1-105.416-4.966c-2.93-.691-6.045-1.545-8-3.833-2.075-2.427-2.342-5.868-2.5-9.057-3.328-69.294.226-140.351,8.09-209.248,3.4-29.762,10.259-58.672,14.748-88.176,3.991-26.236,3.751-52.767,9.3-79.452s2.879-55.773,9.98-81.82c5.763-21.142,11.923-41.731,12.363-63.841.076-3.85.033-7.794,1.333-11.418,3.31-9.223,16.181-13.352,24.238-7.776,4.863,3.367,7.486,9.123,9.124,14.806,5.079,17.622,3.208,40.563,3.277,59.005"/><path class="d" d="M361.4,872.537c13.127,26.689-36.112,44.157-60.654,35.911-5.587-1.877-10.818-5.011-13.431-9.5-13.94-23.952,42.777-38.453,62.17-34.516C355.713,865.7,359.52,868.723,361.4,872.537Z"/><path class="e" d="M526.31,457.074c7.081-21.8-16.54-40.658-32.692-20.533-9.622,11.989-4.775,34.593,12.628,35.866C515.3,473.069,523.506,465.705,526.31,457.074Z"/><path class="c" d="M545.729,478.508a27.115,27.115,0,0,1,3.073-12.852c3.68-6.977,9.657-12.9,17.049-15.647,13.511-5.03,28.545.746,33.046,14.457,6.1,18.582-11.13,42.861-31.474,40.2C553.9,502.894,545.817,490.841,545.729,478.508Z"/><path class="c" d="M829.016,490.854c-1.993-6.843-1.18-15.292.972-21.726a124.984,124.984,0,0,1,29.7-48.249c3.934-3.96,8.248-7.725,13.427-9.806s11.4-2.244,16.1.76c25.875,16.525-18.777,90.606-43.831,91.108C835.985,503.127,831.045,497.823,829.016,490.854Z"/><path class="c" d="M841.806,446.819l38.838,17.117"/><path class="a" d="M892.867,423.854c-4.134-19.667-23.276-8.921-34.068-.75-7.393,5.6-12.6,17.3-17.92,24.937,4.364.034,43.625,17.271,43.049,18.589C889.856,453.05,895.915,438.355,892.867,423.854Z"/><path class="e" d="M635.118,459.053a16.232,16.232,0,0,1,10.063,1.487c29.055,14.395-13.858,51.068-24.256,23.623-2.152-5.682-.949-12.336,2.463-17.363A18.038,18.038,0,0,1,635.118,459.053Z"/><path class="d" d="M782.512,327.375c-6.941-1.45-13.735-5.065-17.459-11.1-8.8-14.25,4.76-38.934,20.315-42.184C832.9,264.162,830.462,337.388,782.512,327.375Z"/><path class="f" d="M780.748,297.623c5.186,4.62,12.735,4.3,18.336,8.481"/><path class="c" d="M669.82,445.966c.084-11.47,8.023-22.133,18.508-26.784,7.582-3.363,17.047-3.65,23.694,1.312a24.145,24.145,0,0,1,5.9,6.7c5.878,9.454,7.049,22.006,1.852,31.85C706.978,483.287,669.622,472.79,669.82,445.966Z"/><path class="e" d="M808.275,499.567c3.057,17.632-26.538,24.964-29.113,5.552-1.007-7.593,4.492-15.571,12-17.076S806.963,492.014,808.275,499.567Z"/><path class="c" d="M877.108,354.59a19.068,19.068,0,0,1,4.486,20.114c-5.082,14.741-28.614,22.867-38.228,8.137-5.831-8.937-1.82-21.206,5.079-28.457C857.149,345.236,869.853,347.219,877.108,354.59Z"/></svg>