<svg xmlns="http://www.w3.org/2000/svg" viewBox="0 0 1640.092 1001.007"><defs><style>.a{opacity:0.2;}.b{fill:none;stroke:#000;stroke-linecap:round;stroke-linejoin:round;stroke-width:14px;}.c{opacity:0.5;}.d{opacity:0.4;}.e{opacity:0.6;}.f{opacity:0.3;}</style></defs><title>EFimage</title><path class="a" d="M293.848,239.98c29.572-6.077,60.136-2.631,90.276-.883S445.649,240.634,473.07,228c-4.032,11.993-14.72,20.805-26.426,25.607s-24.49,6.157-37.074,7.464c-18.688,1.941-37.711,3.869-56.14.215-12.968-2.572-25.412-7.873-38.592-8.9-17.64-1.372-35.173,5.135-49.951,14.866-14.657,9.647-27.408,22.306-39.272,35.149C221.22,268.148,265.8,245.744,293.848,239.98Z"/><path class="b" d="M13.939,503.407c26.252-17.712,50.259-36.941,77.3-53.316l82.544-49.981"/><path class="b" d="M266.912,403.414c25.627,21.662,46.964,42.935,75.029,61.142L610.5,638.782"/><path class="b" d="M475.547,545.367c38.6-13.651,62.937-30.209,99.787-48.047,73.557-35.608,142.165-92.3,204.52-144.534"/><path class="b" d="M995.068,436.5c80.606-45.478,167.424-107.769,245.093-158.191"/><path class="b" d="M1281.144,275.305c49.362,37.909,100.365,70.193,154.639,100.273l172.478,95.591"/><path class="b" d="M756.2,619.184c-1.41-61.46,99.984-49.032,138-44.751,59.274,6.676,122.835,21.391,180.271-2.291,27.658-11.4,51.738-31.218,80.638-38.948,28.563-7.64,63.132-4.708,88.475,10.947,27.37-19.684,67.476-19.4,94.569.66"/><path class="b" d="M782,363.41c1.119-20.407-1.119-27.681,0-48.088"/><path class="b" d="M860.024,361.465c-1.851-16.347-1.82-21.758.222-38.083"/><path class="b" d="M313.589,704.676c-16.151-7.7-29.175-25.067-25.884-42.656,3.468-18.539,22.674-29.681,40.835-34.769C393.68,609,461.831,636.728,529.216,642.68c84.492,7.464,168.323-19.664,253.136-20.819,104.815-1.427,208.786,36.81,312.76,23.484,17.337-2.222,35.543-5.777,51.825.577s28.053,27.627,17.773,41.763c-3.658,5.03-9.317,8.171-14.9,10.9-52.56,25.7-113.3,28.645-171.711,25.23s-116.7-12.694-175.12-9.577c-43.522,2.323-83.48,11.523-127.366,5.656-47.349-6.331-93.684-20.6-141.759-20.935-40.037-.279-79.212,9.445-119.1,11.207C383.17,711.564,343.127,718.763,313.589,704.676Z"/><path class="b" d="M31.715,800.41c41.606-24.125,92.978-23.645,140.524-16.4s94.6,20.56,142.684,19.736c33.955-.581,67.329-8.214,100.847-13.681,54.178-8.836,109.868-12.011,163.849-2.041,28.057,5.182,55.614,13.894,84.108,15.361,44.284,2.279,87.283-13,130.329-23.649a640.236,640.236,0,0,1,355.91,14.71"/><path class="b" d="M753.132,718.806c38.543,22.461,72.788,42.746,85.3,50.4"/><path class="b" d="M1457.435,650.787q23.187,12.406,46.331,24.88"/><path class="b" d="M858.68,342.285c87.5,88.138,219.622,130.837,334.169,178.833q13.416,5.622,26.738,11.452"/><path class="b" d="M921.6,633.945c96.343-19.173,196.307-38.316,291.864-15.548,73.575,17.531,141.587,59.4,217.127,63.187,66.534,3.336,134.144-23.384,198.725-7.041"/><path class="b" d="M1114.605,487.089c22.223-11.616,50.956-9.474,71.211,5.307,21.321-17.18,64.317-22.329,90.5-17.985,30.8,5.111,59,22.154,90.12,24.7,17.813,1.455,90.164-17.65,94.8,14.177,1.046,7.183-4.133,14.11-10.582,17.441-11.641,6.012-36.59,4.627-42.269,19.269-7.547,19.46,37.624,17.747,46.207,18.451,22.5,1.844,45.452,3.6,66.4,12.764,7.2,3.152,14.209,7.274,19.085,13.438s7.3,14.689,4.677,22.1c-3.793,10.707-15.994,15.488-26.883,18.72-56.942,16.9-113.03,25.562-172.39,27.673"/><path class="c" d="M1120.915,492.913q-48.565-19.522-95.634-42.522c-30.442-14.876-60.273-30.9-89.649-47.776-29.1-16.715-50.7-36.651-75.4-59.994-.9,14.143-1.832,15.529-15,19.315a147.485,147.485,0,0,1-29.58,5.238c-2.156.159-51.474-6.757-38.887-15.886-30.42,22.064-57.714,49.26-88.256,71.657-55.159,40.449-114.271,70.247-173.436,103.763-14.671,9.781-30.855,14.5-47.559,20.373,13.476,13.418,30.5,19.6,45.746,30.127,17,11.736,34.336,22.77,52.084,33.559,10.152,6.172,35.307,28.394,46.707,28.394a619.806,619.806,0,0,0,141.742-20.3c-.3-16.887,12.218-31.977,27.389-39.4s32.585-8.559,49.474-8.663c29.722-.184,60.374-.276,88.975,7.077a277.011,277.011,0,0,0,84.832,8.055A286.4,286.4,0,0,0,1113.3,557.578c16.188-7.907,31.622-23.131,48.273-28.933,14.826-5.166,36.728-4.492,51.94-2.126C1182.845,521.749,1149.625,504.455,1120.915,492.913ZM942.949,548.485c-21.361,7.735-44.778.119-67.343-2.515-26.61-3.106-53.479.892-79.971,4.883-35.635,5.367-78.5,18.305-114.1,6.672-10.709-3.5-20.456-11.162-24.434-21.7-6.626-17.561,5.054-38.082,21.818-46.524s36.791-7.257,55.082-3.046,35.94,11.227,54.507,13.973c47.742,7.062,96.424-14.658,144.031-6.738,13.928,2.317,29.432,9.3,32.452,23.088S956.231,543.675,942.949,548.485Z"/><path class="b" d="M1621.3,507.908c-23.1-2.705-43.794,7.458-65.916,12.219-18.047,3.883-36.519,2.506-54.082-2.915-12.361-3.815-20.7-7.316-40.066-3.928"/><path class="b" d="M903.134,380.771c30.349-23.976,66.914-54.168,97.263-78.143,2.616,10.057,8.6,22.544,18.893,21.137,3.928-.537,7.338-3.2,11.278-3.643,5.813-.649,10.913,3.582,15.223,7.538l49.634,45.561"/><path class="b" d="M1482.385,396.159a121.255,121.255,0,0,1,74.107-9.842c15.147,2.819,31.238,8.458,45.365,2.31"/><path class="b" d="M1596.862,351.843c-32.752-5.365-67.534,6.581-98.946-4.567-10.075-3.575-19.973-9.349-30.624-8.441-9.947.849-21.582,7-28.7,0-5.325-5.238-3.375-14.553,1.3-20.375,9.058-11.267,25.141-14.308,39.533-12.948s28.263,6.274,42.647,7.72c24.521,2.466,48.8-5.226,72.246-12.82"/><path class="b" d="M530.2,428.685c26.781-23.9,50.8-46.868,77.584-70.766,6.623-5.91,14.027-12.148,22.9-12.446,12.2-.41,21.522,10.3,28.9,20.033a67.626,67.626,0,0,1,53.72,34.108"/><path class="b" d="M468.422,435.3c29.259-15,67-11.665,93.169,8.243,3.015,2.294,6.183,4.9,9.968,5.038,4.543.164,8.3-3.236,11.975-5.911a46.291,46.291,0,0,1,41.974-6.085"/><path class="b" d="M27.285,429.845a96.684,96.684,0,0,1,83.087,4.83"/><path class="b" d="M295.4,421.838c19.7-9.05,42.573-3.687,64.237-2.835,30.966,1.216,61.379-7.185,91.966-12.169s63.507-6.21,90.963,8.161"/><path class="b" d="M319.96,359.3q-.556-.214-1.112-.438c-4.261-1.716-8.443-3.939-11.493-7.374s-4.813-8.268-3.664-12.716c3.914-15.152,24.839-10.768,36.158-10.265,22.053.981,42.446-4.331,63.748-9.292,21.347-4.972,44.477-8.229,64.613.429,10.319,4.437,25.061,11.086,24.124,24.606-.424,6.122-4.644,11.524-9.917,14.663s-11.486,4.31-17.6,4.813A92.825,92.825,0,0,1,407.921,349.7C382.753,362.571,346.9,369.676,319.96,359.3Z"/><path class="b" d="M966.244,326.279c-6.911,1.929-14.469-3.4-16.413-10.307s.841-14.5,5.651-19.829,11.384-8.711,18.029-11.414c20.9-8.5,33.73-6.922,55.493-1.916,41.227,9.481,84.854-13.535,126-3.716,5.091,1.215,10.238,3.027,14.022,6.644s5.874,9.417,3.878,14.259c-4.612,11.184-20.312,6.855-29.356,6.144-16.924-1.332-31.913,3.227-47.753,8.787-16.924,5.941-35.532,11.517-52.436,5.519"/><path class="b" d="M769.394,325.5a272.158,272.158,0,0,0,31.964-28.516l34.012,29.193a102.943,102.943,0,0,1,36.435-2.956l-15.881-18.806c-2.062-2.443-4.2-4.944-7.017-6.448-7.788-4.149-38.885.694-47.549-.983"/><path class="b" d="M822.269,295.052V282.637"/><path class="b" d="M825.527,324.887l-1,46.868"/><path class="b" d="M799.767,363.777V337.839q3.492.5,6.986,1"/><path class="b" d="M840.355,238.035c-2.467-12.321,6.007-24.8,17.054-30.786s24.086-6.85,36.652-7.036,25.419.132,37.336-3.855c6.089-2.037,11.868-5.181,18.217-6.133s13.789.993,16.751,6.689c4.093,7.87-2.5,17.129-9.653,22.379a70.278,70.278,0,0,1-58.072,11.281c-5.848-1.49-12.355-3.674-17.6-.685-4.444,2.534-6.27,7.9-9.467,11.893-5.872,7.336-15.031,8.924-23.363,11.9-9.563,3.413-24.558,11.917-26.678,22.868,2.748-14.192-11.1-17.672.288-29.53C823.145,245.642,839.351,233.025,840.355,238.035Z"/><path class="b" d="M1244.707,275.986a45.585,45.585,0,0,1,0-18.954"/><path class="b" d="M1275.672,276.982l-1.181-20.94"/><path class="b" d="M1231.807,262.213c7.453-6.437,24.861-24.59,24.861-24.59s19.674,15.42,27.5,20.976"/><path class="b" d="M1273.685,221.24c1.215-6.555,5.807-12.962,12.365-14.165,5.356-.982,10.776,1.594,16.21,1.267,6.912-.417,12.621-5.355,19.1-7.79,8.415-3.161,17.758-1.984,26.663-.763,7.824,1.072,17.147,3.329,19.607,10.833,2.192,6.689-2.975,13.985-9.464,16.712s-13.831,2.1-20.844,1.5-14.4-1.073-20.776,1.908c-3.623,1.694-7,4.508-11,4.439-7.294-.126-11.746-9.6-19.038-9.873-9.92-.369-12.408,13.5-14.923,20.462C1274.4,238.748,1272.283,228.8,1273.685,221.24Z"/><path class="b" d="M173.762,408.33c.109-15.518.218-25.036.326-40.554"/><path class="b" d="M265.307,416.318l-1.11-48.556"/><path class="b" d="M205.432,414.982a297.692,297.692,0,0,0,1.021-41.225"/><path class="b" d="M244.7,336.925c-13.186-2.279-42.626-3.455-55.812-5.734-7.63,9.8-16.289,20.4-23.919,30.193,17.007,5.833,32.307,8.815,49.812,12.92,2.377-3.731,32.089-34.721,29.919-37.379l30.036,36.79"/><path class="b" d="M231.733,420.53q-.5-18.706.781-37.4l12.387-1.714"/><path class="b" d="M225.314,329.636l-.05-16.849"/><path class="b" d="M357.162,266.444c-11.4-2-21.885-7.371-32.757-11.349s-22.967-6.565-33.933-2.854c-15.837,5.361-24.795,22.008-38.693,31.3-5.183,3.466-11.018,5.875-16.161,9.4s-9.741,8.572-10.6,14.747c-7.226-14.85-2.216-32.929,6.335-47.058a74.393,74.393,0,0,1,18.032-20.84c12.8-9.785,28.941-13.749,44.054-19.323,19.5-7.191,38.341-17.491,59.052-19.223,30.25-2.531,59.431,13.62,89.778,12.922,6.309-.145,12.672-1.018,18.892.044s12.512,4.562,14.743,10.465c1.866,4.938.492,10.673-2.5,15.024s-7.409,7.512-11.971,10.17a89.714,89.714,0,0,1-55.148,11.343c-7.689-.9-13.682-2.635-21,.5C375.809,265.77,367.673,268.291,357.162,266.444Z"/><path class="a" d="M368.417,348.232a388.489,388.489,0,0,1,123.1-5.709c-10.587,17.224-33.042,26.169-52.572,20.941-9.633-2.578-18.482-8.2-28.418-9.046-12.134-1.037-23.549,5.156-35.305,8.332-12.506,3.379-51.782,5.493-56.4-10.922C335.706,354.889,351.835,351.7,368.417,348.232Z"/><path class="a" d="M872.149,221.493a41.548,41.548,0,0,1,10.9-2.633q21-2.913,42.168-4.323c11.585-.768,22.411-2.732,33.962-1.854a54.71,54.71,0,0,1-27.748,18.547c-16.932,4.809-32.894-1.687-49.66-3.324,1.247.122-12.217,15.345-13.935,16.393-6.194,3.776-14.028,6.02-21.14,4.652,4.663.9,12.438-15.124,14.683-18.046C865.194,225.944,868.228,223.209,872.149,221.493Z"/><path class="a" d="M1327.806,217.153c12.1-2.575,25.868-2.5,35.476,5.29-15.433,2.026-30.932,4.065-45.9,8.333-4.514,1.287-9.105,2.791-13.785,2.442-10.873-.811-9.459-5.6-2.039-9.3C1308.716,220.338,1319.918,218.832,1327.806,217.153Z"/><path class="a" d="M588.117,489.513l-86.028,44.975c-8.028,4.2-16.506,8.5-25.561,8.269-9.825-.256-18.626-5.8-26.864-11.16-25.357-16.5-50.206-31.742-77.689-44.309,16.507-.931,32.4-5.689,48.917-5.843,36.477-.341,72.072,9.316,108.282,12.183C546.281,494.983,572.144,497.5,588.117,489.513Z"/><path class="a" d="M347,904.722c24.982,2.263,49.364-.631,75.935-4.13a555.782,555.782,0,0,1,164.624,3.033c21.638,3.646,44.982,13.339,66.946,13.246,25.92-.11,54.985-12.395,80.726-16.814a842.83,842.83,0,0,1,175.033-11.545c77.981,3.017,154.931,16.85,231.941,28.481,75.214,11.36,154.561,24.363,230.234,9.838,48.364-9.284,93.773-30.493,142.026-40.335,27.9-5.691,86.914-7.334,114.853-2.645v95.26H27.285v-105.9c56.22,0,119.081-21.644,173.966-9.46,38.546,8.557,74.839,23.675,112.571,34.71A172.906,172.906,0,0,0,347,904.722Z"/><path class="a" d="M409.5,710.091c53.7-9.407,108.35-17.143,162.431-10.7,37.442,4.46,73.777,15.635,111.052,21.325,26.41,4.032,53.9,5.232,80.12-.774,11.524-2.64,21.408-7.363,33.12-7.569,12.549-.22,25.918,1.888,38.564,2.436,58.943,2.558,117.892,5,176.809,8.112h26.637c48.747,0,99.111-15.183,132.9-50.324-44.832,7.745-89.867,15.51-135.352,16.487-70.349,1.51-140.007-13.236-210.271-16.991-123.874-6.619-249.5,20.877-371.382-2.233-28.136-5.335-55.7-14.521-84.34-13.5-7.619.271-88.715,1.719-88.563,6.87.735,24.993,23.523,44.875,47.79,50.9s49.745,1.414,74.363-2.955Q406.434,710.628,409.5,710.091Z"/><path class="a" d="M1538.528,605.05c4.145,6.768.816,16.1-5.266,21.2s-14.141,7.013-21.881,8.767q-35.759,8.106-71.545,16.091c-23.211,5.18-46.753,10.351-70.513,9.329-62.7,0-115.6-46.807-178.157-49.764,54.546,5.234,107.06,14.477,162.26,14.216A913.2,913.2,0,0,0,1538.528,605.05Z"/><path class="a" d="M1424.182,521.143a35.556,35.556,0,0,1,6.143-1.566,29.653,29.653,0,0,1,26.209,9.2c-8.022-8.878-56.15,15.747-51.288,28.242C1398.921,540.762,1409.536,526.3,1424.182,521.143Z"/><path class="a" d="M1230.593,521.283c16.646-2.372,33.741.494,47.422,11.6-10.6-1.163-19.076,8.824-29.442,11.337-7.659,1.857-17.625-.145-24.269-4.285-2.561-1.595-14.357-13.064-16.61-12.088A89.832,89.832,0,0,1,1230.593,521.283Z"/><path class="d" d="M1469.88,651.363a34.038,34.038,0,0,1,5.956,3.806c5.656,4.377,18.288,23.087,26.174,21.973a321.106,321.106,0,0,1-145.954-13.282c29.956-7.051,60.742-9.295,91.2-13.175C1457.559,649.373,1463.093,648.075,1469.88,651.363Z"/><path class="b" d="M681.534,557.525c-10.709-3.5-20.456-11.161-24.434-21.7-6.626-17.561,5.054-38.082,21.818-46.524s36.791-7.257,55.082-3.046,35.94,11.227,54.507,13.973c47.742,7.062,96.424-14.658,144.031-6.738,13.928,2.317,29.432,9.3,32.452,23.088s-8.759,27.1-22.041,31.909c-21.361,7.735-44.778.119-67.343-2.515-26.61-3.106-53.479.893-79.971,4.883C760,556.22,717.131,569.158,681.534,557.525Z"/><path class="a" d="M742.193,531.007c26.713-4.534,53.074-12.288,80.165-12.764,46.777-.823,96.528,19.584,138.492-1.1-1.917,19.68-22.24,32.986-41.845,35.561s-39.313-2.483-59.031-3.969c-54.62-4.114-109.18,19.228-163.375,11.276-11.293-1.656-22.819-4.893-31.386-12.434-5.32-4.683-16.073-21.232-9.665-28.683,5.267-6.124,7.687.748,13.263,4.5C690.415,537.944,717.157,535.256,742.193,531.007Z"/><path class="e" d="M20.616,800.774c1.8-25.283,2.667-50.222,2.667-75.815,0-16.139-.537-31.5.68-47.658,17.087-7.829,36.488-8.811,55.27-8.1s37.609,2.988,56.316,1.177S173.355,662.112,186,648.2s16.89-36.377,6.264-51.88c-9.473-13.82-27.564-18.856-44.3-19.654-21.95-1.048-43.763,3.414-65.705,4.624s-45.321-1.316-62.938-14.451c5.652-22.222,3.966-48.718,3.966-71.6v-.278c26.31-18.464,53.2-36.075,80.022-53.781,13.411-8.854,26.818-17.716,40.125-26.726,7.783-5.269,26.763-13.387,30.352-22.6-2.471,3.249-1.54,8.16,1.1,11.275s6.561,4.807,10.412,6.164c6.283,2.214,78.818,6.638,78.846,6.879a34.891,34.891,0,0,1,2.54-17.637c58.257,60.973,135.305,103.091,204.927,149.717,24.184,16.195,50.23,33.413,75.428,49.533,13.558,8.672,27.052,17.62,40.965,25.715,7.181,4.178,21.7,17.471,29.955,16.265a438.083,438.083,0,0,1-155.657-5.38c-44.332-9.584-88.2-26.8-134.184-11.984-19.639,6.327-37.515,22.823-38.858,43.412-1.611,24.7,21.124,45.44,45.209,51.131s49.2.363,73.631-3.594c109.687-17.767,222.112-7.429,331.577,11.66,34.288,5.979,72.369,15.437,90.46,45.171-53.615,16.412-108.43,32.994-164.472,31.2-51.128-1.637-100.773-18.548-151.867-21.015-70.21-3.39-139.317,20.59-209.6,19.818-48.074-.528-95.224-12.616-143.049-17.538-26.095-2.686-52.753-3.051-78.654,1.6-26.863,4.824-48.948,10.519-63.351,35.05Q19.96,809.992,20.616,800.774Z"/><path class="d" d="M1112.105,486.505a411.549,411.549,0,0,1-66.584-25.938c-9.772-4.822-19.5-9.819-28.838-15.392-2.643-1.577-16.046-11.625-19.226-9.674,78.633-48.816,156.312-99.336,233.651-150.918,11.878-7.922,24.792-16.158,39.062-15.724,15.347.467,28.367,10.8,40.338,20.41,77.579,62.316,162.76,114.978,252.492,157.9q15.486,7.407,31.151,14.43c9.456,4.239,20.22,6.933,26.66,15.6v34.584c-49.941,8.341-102.8,15.085-150.537-1.777-15.776-5.572-30.758-13.813-47.241-16.685-23.5-4.095-47.6,3.126-71.386,1.312-22.421-1.71-43.344-11.3-64.662-18.454s-44.979-11.852-65.98-3.817c-15.838,6.059-30.329,19.227-47.131,16.933-9.456-1.291-17.623-7.559-27.225-8.1-9.207-.519-19.421,2.825-27.295,7.361Q1115.721,487.562,1112.105,486.505Z"/><path class="a" d="M1536.728,596.342c-7.193-16-23.162-17.107-37.915-20.7,9.226-5.488,20.766-5.118,31.347-3.308s21.114,4.9,31.83,4.271c23.426-1.371,45.344-20.251,67.988-14.1-1.98,23.692-.837,46.7-.837,70.51,0,4.167-3.355,39.656,0,41.706-26.919-16.185-65.328-2.151-93.82-.267-18.95,1.254-41.679-3.319-58.051-13.423-21.96-13.553,1.422-12.128,15.462-14.19C1515.24,643.538,1549.508,624.771,1536.728,596.342Z"/><path class="a" d="M1520.836,328.307c26.463,4.4,54.078,10.247,79.617,2.041l.175,20.32c-8.865-6.526-20.62-7.752-31.581-6.726s-21.657,4.051-32.612,5.133c-17.017,1.681-34.107-1.363-50.936-4.395-14.758-2.659-33.242-3.418-46.576-9.154C1463.588,321.863,1493.974,323.845,1520.836,328.307Z"/><path class="f" d="M1002.2,300.583c-2.125,6.966,3.57,14.157,10.174,17.23s14.12,3.49,21.029,5.8c26.049,8.693,37.714,41.4,63.381,51.161a455.127,455.127,0,0,0-96.43,60.429q-26.5-11.865-51.723-26.327c-8.639-4.952-43.727-21.4-41.931-30.725.945-4.909,19.633-15.947,23.813-19.342l23.9-19.407,24.851-20.183C984.084,315.3,1000.484,306.208,1002.2,300.583Z"/><path class="a" d="M567.5,447.669c25.195-17.683,62.483-15.479,85.42,5.048l60.5-43.378c-3.29-18.665-18.337-34.717-36.75-39.2-7.8-1.9-16.4-2.031-22.916-6.714-6.166-4.43-9.406-12.278-15.989-16.06-10.882-6.252-24.264,1.422-34.2,9.086A654.651,654.651,0,0,0,537.133,414.8c-9.321,9.453-9.03,10.319,2.565,14.334C542.647,430.15,570.685,445.436,567.5,447.669Z"/><path class="b" d="M1319.481,819.109A259.16,259.16,0,0,1,1454.6,784.685c56.582,1.392,114.335,21.227,168.581,5.076"/><path class="a" d="M946.543,309.352a999.468,999.468,0,0,0,173.944-11.943c16.615-2.612,34.6-5.44,49.47,2.412-10.307,9.556-26.6,3.033-40.616,2-20.756-1.53-39.827,10.363-59.86,16a102.414,102.414,0,0,1-62.471-2.385c-6.841-2.5-14.624-5.713-21.017-2.222-3.668,2-5.929,5.808-8.969,8.68-5.521,5.213-11.406,3.221-17.423.519C957.4,321.427,945.5,309.332,946.543,309.352Z"/><path class="b" d="M13.117,366.485c25.689-4.591,51.889,1.757,77.505,6.737s52.97,8.462,77.143-1.371"/><path class="b" d="M258.94,344.964c10.013,1.474,16.436-12.5,12.027-21.607-4.29-8.863-19.787-18.245-28.164-23.437-12.592-7.806-28.613-8.535-42.869-6.025-19.328,3.4-38.027,11.519-57.648,11.1-22.332-.477-42.752-11.892-64.145-18.32a147,147,0,0,0-68.4-3.812"/><path class="a" d="M172.745,345.167c-.739,14.447-12.9,26.449-26.687,30.838s-28.788,2.512-42.835-.953c-17.439-4.3-33.771-9.171-51.681-11.089-14.5-1.552-27.919,1.886-42.416.989-.087-.006.5-39.28,1.055-42.039,23.6.088,45.264,11.941,67.046,21.014,19.855,8.27,38.966,12.178,60.185,8.049C142,351.083,172.545,349.079,172.745,345.167Z"/><path class="b" d="M594.382,245.008c-4.988.553-10.348.867-14.707-1.621-6.842-3.907-8.477-13.728-5.189-20.888s10.215-11.98,17.36-15.3a75.1,75.1,0,0,1,39.466-6.527c9.26,1,19.474,4.732,22.961,13.369C665.149,240.98,608.405,243.453,594.382,245.008Z"/><path class="a" d="M651.344,218.1c-5.951,13.628-21.885,19.3-36.137,23.544-7.578,2.257-15.44,4.538-23.272,3.458-4.325-.6-14.971-4.558-15.507-10.129-.821-8.534,9.394-7.136,16.279-8.195C612.234,223.777,631.8,221,651.344,218.1Z"/><path class="b" d="M14.972,560.633c22.255,24.2,65.359,22.477,95.354,18.571,18.371-2.392,37.284-5.491,55.193-.746S200.145,598.374,199.9,616.9c-.449,33.645-33.579,52.016-62.343,54.591-20.925,1.873-41.962-.709-62.966-1.162s-42.771,1.431-61.258,11.411"/><path class="a" d="M18.005,619.352c18.471,11.972,41.289,15.667,63.283,14.8s43.563-5.982,65.135-10.358c7.5-1.521,15.261-2.955,22.735-1.328s14.643,7.108,15.852,14.661c1.331,8.314-4.729,16.068-11.548,21.006-21.918,15.874-51.6,13.686-78.531,11.04a184.788,184.788,0,0,0-64.079,4.305c-14.158,3.346-14.358,3.162-14.786-12.637C15.7,647.137,17.365,633.047,18.005,619.352Z"/></svg>