<svg xmlns="http://www.w3.org/2000/svg" viewBox="0 0 1691.969 865.099"><defs><style>.a,.d{fill:none;stroke:#000;stroke-linecap:round;stroke-linejoin:round;}.a{stroke-width:11.455px;}.b{opacity:0.32;}.c{opacity:0.13;}.d{stroke-width:6.546px;}</style></defs><title>EFimage</title><path class="a" d="M37.934,609.172c43.422-1.6,83.109-7.061,126.441-10.291a1723.089,1723.089,0,0,0,439.432-91.457c29.639-10.351,59.489-21.784,84.316-41,11.8-9.136,22.93-21.179,24.422-36.031,2.286-22.759-19.655-41.789-42.1-46.174S625,385.657,602.307,388.5c-75.02,9.392-149.692-13.92-223.226-31.5s-153.687-29.015-222.552,2.191c-19.132,8.669-37.7-1.465-57.817-7.506s-43.124-11.2-61.093-.322"/><path class="a" d="M648.619,159.329c8.713-7.162,19.847-10.579,30.774-13.378,33.632-8.614,67.71-4.673,100.5-11.051,31.576-6.142,60.781-20.529,92.141-27.386,27.844-6.088,58.754-3.607,87.552-6.784,69.2-7.633,141.753-9.715,207.405,17.082,24.426,9.97,47.556,23.812,73.37,29.257,29.948,6.316,61.011.824,91.593,2.027,24.646.97,53.473,10.155,60.2,33.885,5.121,18.054-5.68,37.584-20.987,48.445-29.447,20.892-60.594,18.086-94.065,19.2-22.364.745-43.558,12.275-65.626,15.689-55.484,8.584-112.026,7.921-167.953,5.369-59.806-2.729-110.985,27.158-172.6,13.9-40.275-8.665-75.135-34.224-115-44.607-22.258-5.8-45.577-6.723-67.781-12.729C660.235,220.7,612.036,189.4,648.619,159.329Z"/><path class="a" d="M1344.269,495.242c-31.742-28.23-78.687-30.531-120.9-25.809s-85.05,14.927-126.635,6.252c-14.846-3.1-29.709-8.927-40.039-20.03-24.276-26.095-3.262-59.635,25.754-70.044,17.468-6.265,36.527-5.519,55.034-6.886,57.437-4.243,110.96-29.169,165.967-46.236,100.257-31.107,200.1,5.264,300.709,18.808"/><path class="a" d="M1612.506,479.717c-48.078,18.726-85.209,25.277-134.572,10.26-49.329-15.006-102.491-1.2-151.289,15.456a748.048,748.048,0,0,1-157.589,35.99c-57.393,6.918-114.772,3.824-172.365,6.683C943.227,550.76,764.455,581.928,806.78,673.06c27.733,59.712,122.49,25.284,170.124,26.2,60.566,1.159,116.87,31.605,176.966,39.229,55.38,7.026,111.08-5.582,166.524-12.091,89.973-10.562,171.654,25.748,261.1,26.463,23.037.185,47.243-2.124,66.411-14.9"/><path class="a" d="M365.613,353.821a211.627,211.627,0,0,0,52.13-9.089c18.561-5.7,40.518-12.463,40.922-35.915.263-15.262-9.6-29.427-22.491-37.6-33.4-21.179-83.631-17.8-121.186-15.752-45.942,2.5-92.8,7.538-137.574-6.231-43.6-13.408-79.982-18.289-125.569-16.75"/><path class="a" d="M992.3,829.572c-10.519-34.4-43.229-57.948-77.421-69.115s-70.687-12.4-106.314-17.345c-102.779-14.267-201.128-59.947-304.886-58.8-114.229,1.261-227.267,59.415-338.753,34.5-44.359-9.915-76.978-13.742-120.983-2.358"/><path class="a" d="M664.39,218.142a469.932,469.932,0,0,0-62.668,8.68c-11.114,19.306-28.662,70.994-28.662,70.994s14.663,40.82,32.567,90.245"/><path class="a" d="M968.048,551.02c52.333-83.921,28.329-191.477-45.4-256.5q-3.2-2.822-6.472-5.53"/><path class="a" d="M643.584,492.129c9.9,26.869,18.216,49.077,22.658,60.183,3.678,8.9,46.289,114.324,46.139,114.357,29.324-6.244,58.734-12.621,87.979-19.211"/><path class="a" d="M803.894,516.282l.232.592c25.768,6.4,54.824,3.963,76.2-11.792,33.56-24.741,26.073-68.969,16.923-104.1C886.623,360.2,859.7,320.162,823.262,298.236a142.853,142.853,0,0,0-101.386-17.323C747.468,360.757,773.183,438.068,803.894,516.282Z"/><path class="a" d="M691.581,463.631c19.016,46.5,37.553,91.572,54.6,139.867,34.07-4.5,66.717-9.6,98.923-16.036"/><path class="a" d="M601.722,226.822c21,52.172,38.294,103.991,57.782,156.019"/><path class="a" d="M713.262,660.91c9.275-18.55,22.313-39.546,32.922-57.412"/><path class="a" d="M749.011,345.943A147.8,147.8,0,0,1,869.2,507.963"/><path class="b" d="M857.429,327.655a162.084,162.084,0,0,0-24.84-23.147c-31.358-23.456-73.844-33.957-110.87-21.209q11.94,31.7,23.881,63.407A133.3,133.3,0,0,1,848.155,408a138.528,138.528,0,0,1,17.423,106.446,80.435,80.435,0,0,0,36.277-43.8c9.941-29.375.259-66.337-12.522-93.4A213.83,213.83,0,0,0,857.429,327.655Z"/><path class="c" d="M601.185,228.544c21.645,51.949,40.317,104.831,63.9,155.821l-59.351,3.942C599,369.184,590.149,351.819,583.189,332.9c-2.3-6.262-14.8-28.1-11.893-33.984,8.407-16.676,13.917-33.2,21.224-50.2C593.891,245.521,602.325,231.455,601.185,228.544Z"/><path class="c" d="M693.792,460.038c-3.64,3.539-50.035,35.639-51.037,32.712,20.156,58.911,45.406,115.186,68.6,173.082q9.129-18.21,19.6-35.7c1.353-2.26,16.768-22.4,16.271-23.979-7.861-25.009-16.658-48.909-25.866-73.245q-7.068-18.684-14.138-37.368C705.854,491.918,692.074,461.692,693.792,460.038Z"/><path class="b" d="M711.538,665.357,797.593,648.8c3.277-19.544,19.766-53.623,41.554-59.227-29.521,7.593-61.01,11.148-91.433,12.046q-11.211,16.91-21.429,34.451C724.585,638.993,713.872,664.908,711.538,665.357Z"/><path class="c" d="M253.419,406.693c34.607.915,68.324,10.515,101.6,20.08s66.962,19.234,101.566,20.292c63.446,1.94,125.339-25.167,188.717-21.636,9.251.516,18.766,1.784,26.755,6.478s14.138,13.546,13.174,22.762c-1.169,11.181-11.63,18.763-21.335,24.438-92.075,53.855-204.873,75.107-308.621,94.339-41.084,7.614-82.491,14.242-123.942,19.479-18.326,2.315-36.014,2.191-54.115,2.855-45.066,1.654-91.221,13.395-136.36,17.627a904.314,904.314,0,0,1,5.271-181.258c30.675-19.5,69.27-4.185,102.708-5.113C184.705,426.04,216.717,405.723,253.419,406.693Z"/><path class="c" d="M702.61,181.913c18.907,2.541,36.537,3.451,54.81,7.915,19.922,4.867,41.729,1.513,61.149-3.952,23.6-6.639,45.964-17.082,69.428-24.175,48.532-14.672,100.121-14.595,150.822-14.4,43.1.169,89.346,1.313,124.277,26.555,12.07,8.723,22.406,20.12,35.935,26.345,17.434,8.022,37.111,6.128,55.42,2.749,17.78-3.282,35.042-2.885,53.168-2.672,17.236.2,41.449.033,57.781,6.107,7.551,2.808,13.917,10.573,12.293,18.464-2.059,10-14.208,13.631-24.271,15.357l-89.683,15.384c-47.106,8.08-94.383,16.184-142.186,18.642-42.448,2.183-82.34-4.977-124.668,1.936-36.82,6.014-73.816,16.961-111.464,12.417-30.175-3.642-57.878-17-84.932-30.051-28.567-13.782-53.155-21.594-84.5-25.844-15.51-2.1-36.469-4.858-50.785-11.487-13.552-6.275-18.956-26.164-5.392-35.8C671.357,177.205,689.556,180.16,702.61,181.913Z"/><path class="c" d="M1073.3,446.893c5.939-6.708,17.444-8.92,25.791-9.918,36.965-4.415,77.995-4.266,113.464-14.619,38.063-11.109,75.135-25.409,113.457-35.664,41.025-10.977,92.12-20.7,134.059-8.576,48.176,13.924,91.646,42.377,141.733,48.152a183.582,183.582,0,0,0-1.579,57.539c.509,3.885-50.571,12.977-56.32,13.372-39.135,2.684-72.279-13.49-110.4-14.481-29.43-.765-61.447,5.339-89.436,14.527-27.24-23.324-64.716-31.462-100.573-31-25.26.323-173.044,40.432-174.09-8.325A15.484,15.484,0,0,1,1073.3,446.893Z"/><path class="c" d="M852.764,658.848c65.226-27.51,139.637-9.131,210.343-12.56,66.616-3.23,130.438-26.077,194.719-43.853A550.216,550.216,0,0,1,1387.9,583.2c41.78-1.209,77.539,14.761,115.318,30.621,33.848,14.209,71.466,26.222,106.747,16.068-.818.169-2.07,113.29-2.578,122.008-61.337,8.285-122.485-6.012-181.22-22.522-50.168-14.1-112.662-2.126-163.922,4.36-42.783,5.414-86.306,13.646-128.644,5.45-46.227-8.949-87.621-36.955-134.407-42.255-33.981-3.85-67.962,4.6-101.725,10.043-16.409,2.644-47.016,8.708-61.938-1.89C812.327,688.6,835.568,666.1,852.764,658.848Z"/><path class="c" d="M306.556,303.785c19.5,4.08,39.12,7.613,59.191,8.121,19.487.493,38.171-3.656,57.488-3.656,6.176.367,13.009,1.032,17.188,5.6,5.226,5.706,3.611,15.358-1.6,21.081s-12.946,8.354-20.455,10.226c-12.959,3.11-27.984,9.84-41.2,9.169-9.087-.461-17.889-3.149-26.695-5.441-68.517-17.829-127.36-7.077-193.4,12.019-4.877,1.411-9.884,2.835-14.945,2.438-3.884-.3-7.6-1.669-11.25-3.02L102.165,349.7c-13.285-4.914-27.683-9.888-41.309-6.023a203.228,203.228,0,0,1,.228-52.3,504.684,504.684,0,0,0,70.41,10.694c29.516,2.368,52.723-11.329,81.641-11.952C244.878,289.433,275.57,297.3,306.556,303.785Z"/><path class="c" d="M329.333,837.809c52.288-44.819,125.185-63.917,193.693-64.532,29.8-.268,60.428,1.314,88.93,10.414a182.99,182.99,0,0,1,39.563,17.8c6.263,3.814,26.514,25.68,31.932,25.8A3431.7,3431.7,0,0,0,329.333,837.809Z"/><path class="d" d="M564.064,685.812q30.8-34.02,61.733-67.922,8.836-9.69,17.681-19.371"/><path class="d" d="M512.073,681.647C549.1,652,585.1,624.182,621.924,593.089a191.223,191.223,0,0,1,14.778-13.05"/><path class="d" d="M425.955,672.108l76.6-51.143,76.6-51.142,43.3-28.907"/><path class="d" d="M254.141,694.467q30.691-15.343,61.356-30.739t61.3-30.842q30.785-15.522,61.543-31.095,30.693-15.542,61.36-31.135,30.7-15.61,61.37-31.272l7.637-3.9"/><path class="d" d="M443.593,332.792,532.7,356.018l25.459,6.636"/><path class="d" d="M246.886,137.013c30.749,14.393,128.748,61.685,160.66,76.414,45.821,22.91,90.006,45.821,134.834,67.355"/><path class="d" d="M411.09,77.047c3,3.825,7.911,7.1,12,10.371,51.549,48.276,103.1,92.461,155.2,137.953"/><path class="d" d="M571.88,105.626c20.587,27.613,43.5,54.615,64.036,82.093"/><path class="d" d="M706.4,75.835q9.137,30.5,17.675,61.178"/><path class="d" d="M490.617,304.653,545.5,324.47"/><path class="d" d="M810.076,82.506c-.642,14.49-1.429,28.973-2.214,43.455"/><path class="d" d="M960.178,100.331l13.511-26.505"/><path class="d" d="M676.61,677.369c-6.41,9.817-8.865,22.091-16.169,31.948"/><path class="d" d="M830.74,702.43c1.012,15.766,2.148,31.524,3.009,47.3"/><path class="d" d="M756.838,684.21l-8.813,43.732"/><path class="d" d="M795.376,674.3l-5.6,66.684"/><path class="d" d="M908.6,709.081c5.806,17.864,11.453,35.785,16.478,53.886"/><path class="d" d="M985.209,700.532c1.649,3.837,4.1,6.292,6.558,10.383,23.729,40.094,48.276,76.915,70.752,117.04"/><path class="d" d="M1118.8,731.734c31.722,33.412,58.707,62.641,91.761,95.684"/><path class="d" d="M1055.487,717.886q20.451,23.469,41.358,46.536,21.128,23.235,42.926,45.848,6.128,6.341,12.317,12.622,3.163,3.211,6.344,6.4a22.586,22.586,0,0,1,2.933,2.985c.588.885.655,1.954,1.543,2.614"/><path class="d" d="M1027.829,482.085c26.943,8.724,53.126,17.725,80.128,26.725,28.638,10.638,56.458,19.638,84.67,30.165"/><path class="d" d="M1021.342,382.473c71.887-9.49,143.073-19.309,214.874-28.261"/><path class="d" d="M1390.474,172.887c26.777-9.373,52.961-20.01,78.9-29.629"/><path class="d" d="M996.275,326.035c42.95-18.511,87.135-33.239,129.307-51.184"/><path class="d" d="M1332.845,267.5c41.039-11.526,81.133-20.527,122.863-30.345,22.092-5.728,74.589-19.557,96.594-23.7"/><path class="d" d="M1010.5,353.947q53.046-15.471,106.337-30.086,53.369-14.68,106.9-28.773,30.4-8.034,60.826-15.961"/><path class="d" d="M1164.14,117.531q26.955-19.806,54.326-39.036"/><path class="d" d="M1260.554,738.482c37.234,25.619,71.6,55.075,110.057,78.8"/><path class="d" d="M1020.8,513.012c22.519,9.708,43.793,21.982,66.433,32.67"/><path class="d" d="M343.263,116.3,543,241.226"/><path class="d" d="M643.827,85.564l27.746,65.057"/><path class="d" d="M299.671,233.792c-22.515-8.742-45.515-16.742-68.515-25.742-23-8-45-17-68-24-11-4-21-9-32-12a29.94,29.94,0,0,1-8-4c-3-1-5-1-8.429-2.477"/><path class="d" d="M400.483,566.03c-74.327,27.02-148.327,54.02-223.327,81.02-12,5-24,9-36,14-12,4-23,9-35,12"/></svg>