<svg id="Layer_2" data-name="Layer 2" xmlns="http://www.w3.org/2000/svg" viewBox="0 0 1632.206 1081.616"><defs><style>.cls-1{opacity:0.51;}.cls-2{opacity:0.59;}.cls-3{fill-opacity:0.24;}.cls-4{opacity:0.37;}.cls-5{opacity:0.65;}.cls-6{opacity:0.23;}.cls-7{opacity:0.4;}.cls-8{opacity:0.36;}.cls-9{opacity:0.73;}.cls-10{fill-opacity:0.55;}.cls-11,.cls-19{fill:none;}.cls-11,.cls-18,.cls-19{stroke:#000;stroke-linecap:round;stroke-linejoin:round;}.cls-11,.cls-18{stroke-width:14px;}.cls-12{opacity:0.3;}.cls-13{opacity:0.12;}.cls-14{opacity:0.48;}.cls-15{opacity:0.74;}.cls-16{opacity:0.26;}.cls-17{opacity:0.6;}.cls-18{fill-opacity:0.7;}.cls-19{stroke-width:8px;}.cls-20{opacity:0.55;}.cls-21{opacity:0.75;}</style></defs><title>EFimage</title><path class="cls-1" d="M784.457,258.01c12.35-3.662,19.134-19.756,13.132-31.154,15.273-8.116,23.658-27.55,18.653-44.1s-23.146-28.145-40.2-25.3S745.5,177.564,747.3,194.765a55.147,55.147,0,0,0-47.44,10.046c-8.861,7.047-23.507,25.843-20.316,38.45,1.849,7.3,3.146,4.009,8.216-1.158,19.13-19.5,36.381-35.154,65.807-21.362C768.629,227.8,780.48,241.8,784.457,258.01Z"/><path class="cls-2" d="M1422.116,837.9c-1.713-11.078-1.643-22.433-2.252-33.622,7.847,1.771,16.744-1.684,20.907-8.567s2.889-16.723-3.22-21.956-16.434-4.768-21.706,1.307l-15.294-61.3a49.366,49.366,0,0,0,26.5-35.4l-30.93,10.62c-4.6-11.345-8.173-24.694-15.211-34.688-9.194-13.053-15.233-26.986-21.886-41.565,7.374-2.322,11.984-9.883,13.607-17.441s.921-15.4,1.328-23.117a81.443,81.443,0,0,1,32.4-60.278c-3.785,2.8,15.358,7.583,16.395,7.7,8.974.982,17.632.322,25.75-4.007.7,20.071,17.087,38.466,36.942,41.483a50.362,50.362,0,0,0,71.93,49.006c5.12,24.782-12.856,51.98-37.662,56.983a43.89,43.89,0,0,0,24.592,67.428c-.69,5.73.675,14.584,4.055,19.552,2.2,3.227,11.658,10.412,15.408,10.345a271.071,271.071,0,0,0-95.751,18.8c8.991-3.556,25.587,9.65,32.066,14.791a100.589,100.589,0,0,1,25.716,30.552c13.859,25.435,15.972,51.245,14.6,79.64a111.2,111.2,0,0,1-53.274,89.976c-12.966,7.946-27.6,11.675-40.491,19.8C1439.127,955.12,1431.176,896.5,1422.116,837.9Z"/><path class="cls-3" d="M505.609,371.016l3.6-1.655c-1.3.609,10.657,14.125,11.89,15.32,7.633,7.4,17.989,11.531,28.668,9.765a31.942,31.942,0,0,0,15.217-7.093,27.576,27.576,0,0,0,5.948-6.578c1.41-2.354,1.606-5.529,3.3-7.543,11.185,4.949,21.836,12.619,32.425,18.82l-.826,34.355a16.652,16.652,0,1,0,8.78,30.4l5.633,34.054L532.857,510.42c-6.019,1.347-12.326,2.691-18.279,1.078-7.011-1.9-12.407-7.685-15.784-14.115s-5.077-13.58-7.219-20.52a162.911,162.911,0,0,0-54.534-79.419c5.2,0,12.531-4.067,17.52-5.686,8.821-2.862,16.882-5.043,25.373-8.945Z"/><g class="cls-4"><path d="M584.881,230.8c16.68,2.922,30.712,15.87,34.305,35.557,3.694,20.244,1.46,46.32-8.676,64.478-8.448,15.135-15.247,26.314-31.618,20.618-.394,12.524-12.386,24.969-12.78,37.493a38.729,38.729,0,0,1-62.386-23.535c-.866-4.328,7.954-17.289,9.9-21.515,2.814-6.115,6.727-12.784,5.153-19.807-1.076-4.8-6.191-9.029-10.79-7.272-.08-11.508-3.935-29.4,1.955-39.8,1.663-2.936,5.621-5.971,8.684-7.239,1.062-.44,12.593-2.165,12.154.126a49.776,49.776,0,0,1,22.33-32.479C563.5,230.975,574.687,229.016,584.881,230.8Z"/><path d="M584.881,230.8c16.68,2.922,30.712,15.87,34.305,35.557,3.694,20.244,1.46,46.32-8.676,64.478-8.448,15.135-15.247,26.314-31.618,20.618-.394,12.524-12.386,24.969-12.78,37.493a38.729,38.729,0,0,1-62.386-23.535c-.866-4.328,7.954-17.289,9.9-21.515,2.814-6.115,6.727-12.784,5.153-19.807-1.076-4.8-6.191-9.029-10.79-7.272-.08-11.508-3.935-29.4,1.955-39.8,1.663-2.936,5.621-5.971,8.684-7.239,1.062-.44,12.593-2.165,12.154.126a49.776,49.776,0,0,1,22.33-32.479C563.5,230.975,574.687,229.016,584.881,230.8Z"/></g><path class="cls-5" d="M565.365,231.932c17.78-5.526,37.63,1.884,47.76,18.256-4.41-19.4-23.032-32.45-42.468-36.707-22.059-4.832-64.687-11.333-80.392,9.169a61.97,61.97,0,0,0-11.56,48.421c3.266,17.45,14.911,30.176,25.657,43.569-2.3-11.942-.94-25.719,4.446-36.731,2.11-4.315,3.916-7.225,8.964-8.973,1.256-.435,13.317-1.818,13.009.97C531.834,260.388,541.141,239.46,565.365,231.932Z"/><path class="cls-6" d="M683.451,244.6c-4.224,12.382-3.947,26.554-.5,38.962,5.576,20.057,15.645,43.6,36.265,52.084,6.334,2.605,11.838,2.07,18.319,2.815-.029,10.243,8.811,19.326,18.926,20.936s20.624-3.474,26.9-11.565c6.01-7.743,9.408-19.145,7.7-28.89-1.653-9.424-2.3-19.485-5.546-28.61,7.638-2.581,17.064-4.492,21.023-12.409a17.475,17.475,0,0,0-3.419-20.026c-5.747-5.63-12.676-2.341-19.843-.889-6.861-14.365-11.729-27.786-24.433-37.837-18.428-14.579-45.88-8.87-62.489,5.7A45.363,45.363,0,0,0,683.451,244.6Z"/><path class="cls-7" d="M528.571,717.4c32.944-15.382,56.75-48.8,60.518-84.968a84.182,84.182,0,0,0,51.072,42.9,93.434,93.434,0,0,0,45.6,1.269c2.836,19.171,5.664,38.492,4.711,57.848s-5.949,38.98-17.429,54.593a74.554,74.554,0,0,1-75.862,28.717c-9.295-1.99-15.457-6.972-22.746-12.856a125.783,125.783,0,0,1-37.8-51.86A120.669,120.669,0,0,1,528.571,717.4Z"/><path class="cls-7" d="M515.2,977.526c14.588,15.8,32.913,25.692,47.99,40.86,4.347,4.374,9.032,9.657,8.331,15.784-.877,7.666-9.378,11.641-16.664,14.18-10.646,3.709-21.626,7.469-32.884,6.875s-23-6.615-26.91-17.189c-1.6-4.317-1.786-9.007-1.959-13.607-.915-24.417.689-47.012,1.929-71.236C501.5,961.517,507.977,969.855,515.2,977.526Z"/><path class="cls-8" d="M1280.859,412.669c-22.039.236-34.738-22.472-42.8-39.85,6.907,15.233,6.112,36.875,3.992,53.042-.885,6.749-1.876,13.579-1.671,20.405.213,7.114,3.379,12.311,4.6,18.779,2.173,11.536-7.006,24.616-17.163,29.035,2.6-1.133,15.85,8.09,18.475,9.6q9.633,5.529,18.751,11.9a251.707,251.707,0,0,1,34,28.508c10.047,10.062,19.484,19.042,28.329,30.311l31.895,40.634c-2-2.923,12.9-24.482,13.457-29.4,2.111-18.7,1.893-33.837,14.1-49.774-.587.766-11.081-18.408-11.727-20.342-2.707-8.092-2.559-16.151-3.538-24.488.266,2.269-15.076,5.185-16.889,5.4a49.011,49.011,0,0,1-20.2-1.841c-15.917-4.935-16.058-14.543-12.736-29.821,1.553-7.142,3.609-14.306,3.283-21.608-.444-9.974-5.258-19.142-8.41-28.615s-4.407-20.721,1.526-28.752C1308.606,398.524,1296.765,412.5,1280.859,412.669Z"/><path class="cls-9" d="M1180.251,424.886c3.122-37.844,18.31-72.153,33.17-106.545a80.186,80.186,0,0,0,31.043,47.35c-.1-.071-4.042,9.047-4.673,10.231-2.243,4.211-4.521,6.981-4,12.127.5,4.977,2.852,9.543,4.9,14.107s3.866,9.5,3.207,14.456c-.608,4.571-3.257,8.63-4.248,13.134-1.758,7.994,1.856,16.057,4.906,23.653,3.286,8.184,5.259,16.434,1.366,24.726-3.61,7.692-9.244,14.512-14.619,21.02a55.192,55.192,0,0,0-30.577-10.959c.478-12.259,2.21-24.327-1.784-36.127A59.2,59.2,0,0,0,1180.251,424.886Z"/><path class="cls-9" d="M1338.7,321.437c-2.829,5.935-6.44,11.588-9.657,17.35-1.132,2.027-8.306,17.885-9.986,17.885,8.664,1.793,13.524,12.3,13.3,20.518-.237,8.676-7.688,15.8-10.768,23.768-2.962,7.667-4.069,16.344-1.389,24.114,2.235,6.482,7.018,12.238,7.279,19.09.3,7.824-5.363,14.537-7.361,22.108-6.085,23.048,25.037,39.269,43.863,30.967,14.264-6.29,13.236-17.5,12.928-30.534a121.484,121.484,0,0,1,4.051-34.061c2.934-11.028,7.694-18.739,2.912-30.442-2.432-5.953-6.2-7.834-5.334-14.8.577-4.654,1.965-10.12,1.223-14.781-.864-5.425-3.856-10.594-7.333-14.756-5.37-6.428-12.346-11.27-18.74-16.681S1341.231,329.422,1338.7,321.437Z"/><path class="cls-10" d="M388.7,485.747c-36.5-10.686-75.013,3.678-98.895,32.486-23.776,28.68-27.5,69.584-13.651,103.884,11.783,29.184,42.616,50.239,74.274,51.913,21.129,1.118,42.9-3.027,61.311-13.713C479.455,621.018,462.857,507.462,388.7,485.747Zm4.21,139.164c-14.375,0-22.611-6.942-22.534-19.423,9.036,0,33.352,1.164,41.358-1.079C411.276,611.382,406.247,624.911,392.907,624.911Z"/><path class="cls-11" d="M388.7,485.747c-36.5-10.686-75.013,3.678-98.895,32.486-23.776,28.68-27.5,69.584-13.651,103.884,11.783,29.184,42.616,50.239,74.274,51.913,21.129,1.118,42.9-3.027,61.311-13.713C479.455,621.018,462.857,507.462,388.7,485.747Z"/><path class="cls-12" d="M272.765,764.74a77.79,77.79,0,0,0,47.752-12.884c1.733-1.16,3.821-2.447,5.758-1.675,2.535,1.011,2.615,4.575,1.9,7.21A30.922,30.922,0,0,1,316.1,774.538a10.9,10.9,0,0,1,7.195,20.45c4.869,1.106,7.641,6.746,7.064,11.706s-3.669,9.253-7.023,12.951c-7,7.719-46.089,35.981-54.933,21.763-3.127-5.027,2.156-27.261,2.432-33.449Z"/><path class="cls-13" d="M216.6,855.188c-50.234-12.222-59.358-68.659-22.309-78.74,7-52.651,50.892-102.241,70.343-104.612,2.752-5.545-70.076-179.1-134.854-156.21-2.839,1.757-5,7.908-6.551,10.662-4.251,7.526-8.343,15.142-12.433,22.756-9.656,17.975-18.221,36.447-26.982,54.872,1.564-3.289-10.965-18.98-13.072-21.812-5.036-6.772-10.879-13.389-16.523-19.569-11.728-12.843-28.14-23.5-42.318-33.607Q6.12,790.1,8.386,1051.368c17.983-.458,213.71-4.856,213.71-4.862C224.981,983.827,229.5,878.764,216.6,855.188Z"/><path class="cls-12" d="M175.226,822.62a41.165,41.165,0,0,1,2.483-29.193c1.3-2.725,16.494-18.146,16.582-16.979,1.268,16.769,5.563,32.2,9.731,48.36,1.541,5.978,4.806,26.442,11.474,28.558C197.353,847.61,181.341,843.032,175.226,822.62Z"/><path class="cls-14" d="M443.617,933.356a29.382,29.382,0,0,1-20.847-2.1c-13.86-7.085-20.356-26.633-19.7-41.271.638-14.339,6.545-27.879,12.926-40.736-8-2.391-16.276-4.927-22.56-10.43s-10.016-14.858-6.5-22.433c4.012-8.635,14.936-11.193,24.427-11.967,26.221-2.137,53.186,1.461,77.016,12.608,22.32,11.16,36.226,27.12,52.6,45.2a68.846,68.846,0,0,0-37.469,94.8,84.208,84.208,0,0,1-55.656-25.2A28.016,28.016,0,0,1,443.617,933.356Z"/><path class="cls-14" d="M1230.237,195.879c-6.456-59.786-35.461-115.395-93.053-145.645C1067.873,13.828,978.6,32.614,923.6,86.539c-23.538,23.078-39.553,54.042-47.319,85.907a189.662,189.662,0,0,0-5.347,51.172c.136,4.055,6.632,48.834,8.287,48.114A60.478,60.478,0,0,0,844.387,316c-5.628,32.272,11.235,58.85,45.841,50.188-4.063,5.721-7.545,19.27-7.545,19.27s26.084.919,36.95-5.867c-1.853,22.447-20.937,31.087-40.542,31.533-5.858.134-.831,38.631,1.059,42.488,5.025,10.253,16.89,17.545,28.293,18.045,18.857.827,29.084-6.264,43.37,10.67,19.975-24.825,43.544-39.806,72.9-51.068a246.252,246.252,0,0,1,96.479-16.406c6.268.226,64.5,9.862,63.842,15.441,4.507-38.211,11.036-70.209,26.165-106.272C1227.8,284.449,1234.9,239.074,1230.237,195.879Z"/><path class="cls-9" d="M1268.678,256.05a232.213,232.213,0,0,1-51.061,47.228c5.923-14.88,12.254-28.611,15.191-44.406,2.964-15.941,4.013-32.465.342-48.385-1.931-8.375,40.9-11.2,45.6-10.642,13.724,1.638,34.056,5.6,40.305,19.9l1.61,51.439a80.957,80.957,0,0,1-51.928-15.207Z"/><path class="cls-15" d="M1447.057,421.81a33.167,33.167,0,0,0-21.161,24.923c-9.349-6.62-23.626-4.866-31.093,3.821s-7.06,23.065.888,31.314c-6.447-2.718-14.356.342-18.552,5.941s-5.135,13.11-4.07,20.028c1.717,11.151,5.646,18.238,11.877,27.548L1404.3,513.4c6.983,4.33,11.672,8.226,19.981,7.732,6.3-.374,18.353-2.637,21.619-9.169-2.178,2.242,2.22,13.987,3.192,16.468,2.679,6.837,7.467,15.1,13.484,19.581,6.9,5.143,12.982,6.708,16.988,15.3,3.471,7.446,4.676,15.76,7.833,23.345a48.564,48.564,0,0,0,72.679,21.128c.115,25.729-17.9,50.518-42.412,58.348a55.227,55.227,0,0,0-.513,35.125c3.163,9.81,9.007,18.5,14.777,27.038,6.577,9.734,13.4,19.716,23.151,26.264,20.536,13.789,49.759,14.265,73.445,16.523V528.451c-.976-16.58-.842-33.353-2.875-49.83-2.118-17.172-8.631-35.158-26.145-41.74-8.615-3.237-19.751-.327-24,7.836,1.163-10.253-5.93-20.824-15.858-23.636s-21.512,2.469-25.9,11.81c-1.785-12.171-12.832-22.328-25.11-23.087s-24.491,7.962-27.76,19.82a33.121,33.121,0,0,0-32.7-8.187Q1447.613,421.612,1447.057,421.81Z"/><path class="cls-7" d="M1398.613,166.038c8.592-5.311,19.357-10.16,28.4-5.652,14.952,7.458,12.268,33.7,27.743,40,8.836-8.493,18.561-17.427,30.719-18.97,15.125-1.92,31.859,15.9,27.469,31.15a18.1,18.1,0,0,1-14.123,12.562c.619-.124,10.484,27.066,11.153,29.372a23.489,23.489,0,0,0,8.3,12.949c1.4,1.2,14.818,10.756,16.253,8.849a179.014,179.014,0,0,1-59.812,50.78c5.946,25.18,13.167,50.665,24.584,74.083,0,0-34.147-31.226-54.7-33.119s-41.936-.52-61.094-8.2c-22.2-8.9-38.344-29.082-47.667-51.1-10.077-23.8-20.248-54.607-7.068-77.938C1343.45,204.788,1373.694,181.441,1398.613,166.038Z"/><path class="cls-16" d="M1399.969,252.426c11.814-13.736,23.36-27.792,35.251-41.427,5.456-6.256,12.834-13.147,20.837-10.945,6.944,1.91,10.245,9.722,12.014,16.7,8.24,32.52,4.381,69.831-14.374,98.156-11.053,16.692-28.013,31.8-47.22,38.2-12.352,4.117-28.264,4.483-40.137-1.4-5.156-2.554-30.725-29.357-25.814-34.249,14.328-14.271,27.04-29.246,40.763-44.032C1387.645,266.586,1393.843,259.549,1399.969,252.426Z"/><path class="cls-12" d="M77.325,238.133c2.549.217-16.859,22.856-19.735,24.53-18.081,10.526-30.124.77-48.844.77V454.5c0,25.542,1.226,51.254-2.13,76.59a139.185,139.185,0,0,1,74.275,74.562c21.779-28.959,46.531-57.359,45.9-90.537-19.544-2.556-35.446-21.653-34.422-41.336C106,469.011,116.6,460.9,126.939,451.091c9.651-9.153,19.089-16.822,26.705-28.315a130.355,130.355,0,0,0,16.712-36.413c3.485-12.289,8.971-23.437,11.959-36.119,6.868-29.147,9.687-59.19,9.528-89.105.017,3.192-12.654-4.818-13.6-5.589-4.564-3.732-8.835-7.346-12.453-12.064a59.567,59.567,0,0,1-12.317-33.044A97.777,97.777,0,0,1,77.325,238.133Z"/><path class="cls-17" d="M77.567,239.289a63.235,63.235,0,0,0,41.672-2.756c6.189-2.677,12.046-7.442,17.1-11.906,2.029-1.791,15.28-12.713,14.851-14.983a78.987,78.987,0,0,0,38.174,53.319c.814,49.885-4.329,96.428-25.346,142.38q-5.59,12.222-12.321,23.879a75.126,75.126,0,0,0,86.09-82.974c11.238-8.4,19.36-18.217,27.344-29.588,6.263-8.921,6.378-19.237,4.909-30.013-3.073-22.551-16.4-43.718-35.8-55.737.859-10.178,3.225-22.373-.338-32.093a70.8,70.8,0,0,0-14.541-23.451,75.5,75.5,0,0,0-22.179-16.551c-2-.98-25.33-9.279-25.715-6.966,3.411-20.511-3.624-42.325-17.819-57.418C140.029,79.942,115.091,75.9,96.592,81.6c1.723-.53-8.692-16.279-9.791-17.491a45.96,45.96,0,0,0-18.189-12.3c-22.79-8.288-56.017.906-58.868,27.886-2.019,19.11,0,39.556,0,58.767V262.705c10.576,7.623,32.926,7.49,44.28,1.3a46.652,46.652,0,0,0,21.468-25.336Q76.524,239,77.567,239.289Z"/><path class="cls-18" d="M645.478,910.005C691.247,810.2,753.779,722.246,806.6,626.911c30.574-55.186,83.78-92.713,139.6-120.108,60.726-29.8,134.642-38.494,201.272-31.013,36.331,4.078,75.315,12.152,106.173,32.762,36.3,24.247,68.169,51.654,93.148,87.874,26.7,38.717,43.9,82.868,57.542,127.621,15.538,50.981,42.989,241.774,42.989,297.753H1118.96c-43.94,0-87.876-.719-131.815-.927-21.286-.1-43.852-2.116-65.01.326-13.849,1.6-25.488,7.532-39.686,4.488-8.11-44.466-9.048-91.593-13.226-136.711C842.9,950.848,801.515,1040.647,729.017,1058.6c-26.68,6.606-56.459-7.136-81.214-16.05-43.265-15.581-90.2-30.441-125.447-61.235-28.8-25.155-32.55-69.612-12.3-99.266,35.4-51.824,85.288,9.749,148.368.876"/><path class="cls-11" d="M42.389,462.8c38.213,32.651,88.378-5.165,110.537-37.841,29.765-43.894,42.752-107.972,36.913-160.685"/><path class="cls-11" d="M24.1,269.5c22.19,7.96,49.629-8.185,53.448-31.448,27.795,11.308,63.283-2.736,75.813-30-1.083,31.141,26.463,60.405,57.612,61.206"/><path class="cls-11" d="M21.131,61.072a44.071,44.071,0,0,1,42.8-10.563A44.07,44.07,0,0,1,93.677,83.05c20.1-7.319,44.095-2.577,59.9,11.84s22.73,37.872,17.287,58.562a62.933,62.933,0,0,1,62.991,79.74c21.138,9.384,36.075,31.367,37.014,54.476s-12.165,46.231-32.472,57.3a71.232,71.232,0,0,1-84.466,83.557"/><path d="M155.132,315.607c-8.178-12.324-21.332,1.846-15.256,13.318,2.737,5.168,9.343,6.6,13.469,2.98S158.313,320.4,155.132,315.607Z"/><path d="M53.118,311.831c-3.518-1.284-7.409-.059-9.853,5.427-3.287,7.38.63,16.866,8.5,16.094C62.835,332.266,63.062,315.46,53.118,311.831Z"/><path class="cls-11" d="M78.2,377.013a27.943,27.943,0,0,0,47.053-8.852"/><path class="cls-11" d="M51.216,398.056a85.482,85.482,0,0,0,63.443,9.252"/><path class="cls-11" d="M96.406,472.967c-8.25,21.012,6.393,44.93,29.867,41.669"/><path class="cls-11" d="M126.273,514.636c13.56-2.776,29.361-1.414,43.022,6.886s24.208,20.792,33.952,33.466c25.866,33.643,54.9,106.512,64.864,113.134"/><path class="cls-11" d="M203.844,742.233c4.948-17.315,3.537-37-2.138-55.033s-15.689-34.324-24.269-51.171-15.927-22.509-15.523-41.41"/><path class="cls-11" d="M12.705,531.835l-1.109-.711A206.591,206.591,0,0,1,82.273,607.4c5.892-14.008,53.955-73.37,44-92.76"/><path class="cls-11" d="M1207.025,487c-14.621-19.812,3.282-42.325-21.464-56.594-7.377-4.253-15.9-6.009-24.29-7.462-42-7.268-85.812-8.361-126.695,3.7-23.592,6.961-46.009,18.557-64.761,34.543-18.932,16.139-28.764,30.579-40.585,52.652"/><path class="cls-11" d="M1008.28,483.961c44.249-31.445,97.232-39.413,149.96-24.516"/><path class="cls-11" d="M126.273,311.152c11.929-7.6,29.929-7.1,41.259,1.153"/><path class="cls-11" d="M26.757,318.774a34.731,34.731,0,0,1,23.3-11.8,33.507,33.507,0,0,1,24.276,8.691"/><path class="cls-11" d="M217.25,571.093c-1.45-39.015,8.881-79.112,22.98-115.412,24.775-63.783,83.284-90.588,149.986-76.363,25.591,5.458,49.142,18.84,67.82,37.048,21.725,21.177,29.218,50.021,40.207,77.642,2.766,6.952,6.082,14.514,12.831,17.744,6.356,3.042,13.857,1.312,20.674-.472l73.969-19.355c5.979-1.564,14.824-5.466,21.036-4.977,6.657.524,11.949,9.773,14.51,15.084,3.374,7,5.113,14.645,6.826,22.219,1.589,7.021,3.126,14.635.164,21.2-3.279,7.264-10.692,10.547-17.754,13.063-8.08,2.878-15.508,6.829-23.84,9.5-23.437,7.524-46.911,14.943-70.314,22.573-22.17,7.228-40.457,5.131-61.877-5.88"/><path class="cls-11" d="M317.848,380.593c11.614-20.661,6.417-44.11,2.333-66.25-6.47-35.069-3.393-75.9,18.869-105.169,22.742-29.9,70.044-38.354,102.577-18.353,16.884,10.382,24.579,29.568,26.227,48.6,1.94,22.415-11.963,40.563-11.219,61.2.307,8.524,3.977,16.591,4.906,25.07,2,18.283-10.034,34.569-26.337,41.43-9.757,4.106-25.955,4.5-25.326,17.1"/><path class="cls-11" d="M427.365,279.767a19.188,19.188,0,0,0-22.786-8.731c-11.825,4.341-15.726,22.692-10.489,33.42a16.251,16.251,0,0,0,14.072,8.923"/><path class="cls-11" d="M1491.872,178.4c-5.515-15.468-.836-32.451-.178-48.859s-5.717-36.1-21.716-39.8c-8.386-1.94-17.3,1.318-24.078,6.62s-11.817,12.468-16.749,19.523c2.674-9.146-6-18.872-15.51-19.5s-18.384,5.8-23.349,13.929-6.749,17.763-8.262,27.171c-2.373-7.66-12.254-11.188-19.781-8.422s-12.533,10.236-14.48,18.016-1.324,15.942-.688,23.936a24.419,24.419,0,0,0-22.77,10.919c-6.632,10.428-1.88,32.027-2.39,44.36-.723,17.46-1.3,34.4,1.867,51.708,6.339,34.608,26.4,68.312,58.274,83.207s75.45,5.558,92.521-25.206"/><path class="cls-11" d="M1461.835,198.8c3.2-13.006,17.181-22.517,30.385-20.275s23.334,16.277,20.878,29.444-17.432,22.64-30.268,18.815"/><path class="cls-11" d="M1432.4,395.357s.386-9,0-22.841c.465-2.2,14.856-4.765,16.984-5.5,2.039-.709,4.158.672,5.876,1.979l47.382,36.06c-5.009-14.018-12.211-27.132-17.811-40.908-4.233-10.414-13.491-28.842-6.933-39.4,2.814-4.529,7.227-7.8,11.661-10.766,8.564-5.725,17.623-10.728,25.806-16.985s15.59-13.979,19.484-23.516c1.537-3.767,2.941-8.247,6.726-9.741,5.863-2.313,25.233,7.6,28.863,12.635,2.45,3.4,1.492,8.095.3,12.113-4.237,14.293-9.8,33.333-20.556,44.093-4.187,4.5-8.574,9.138-14.295,11.382-11.322,4.441-23.787-1.684-34.39-7.641"/><path class="cls-11" d="M1502.17,228.842c5.4,17.47,7.424,37.824,27.628,44.4"/><path class="cls-11" d="M1385.907,311.679c27.45-18.713,36.639-34.7,41.841-57.33"/><path class="cls-11" d="M1347.316,269.788c-6.5,6.057-7.45,17.151-2.077,24.225s16.316,9.136,23.894,4.5,10.729-15.315,6.879-23.32"/><path d="M1393.183,236.238c.531,2.265.3,4.244-2.028,5.907-2.613,1.867-5.624,2.24-8.273.228-3.333-2.532-5.637-9.393-2.674-13.028C1384.422,224.177,1392.191,232,1393.183,236.238Z"/><path class="cls-11" d="M1365.451,220.1c5.14-13.4,21.147-21.552,35.006-17.838"/><path class="cls-11" d="M1323.105,237.773a199.752,199.752,0,0,1,79.9-74.346c9.38-4.776,21.771-8.447,29.582-1.391,6.151,5.557,6.183,14.949,7.975,23.041s8.818,17.042,16.636,14.29"/><path class="cls-11" d="M1620.824,484.791c-.357-8.729-.863-17.587-3.714-25.844s-8.381-15.969-16.355-19.535-18.492-2-23.76,4.97c1.24-11.02-6.841-22.314-17.671-24.7s-22.906,4.473-26.409,14.995c-1.01-12.718-11.978-23.916-24.673-25.19s-25.669,7.521-29.187,19.784c-6.9-10.322-21.07-15.11-32.822-11.1s-20.026,16.469-19.173,28.858c-8.865-7.514-23.451-6.991-31.755,1.139s-9.136,22.7-1.812,31.723c-26.03-3.223-24.419,30.074-14.156,44.2,2.094,2.881,3.152,4.92,5.3,7.761"/><path class="cls-17" d="M1395.145,166.71c6.313-3.872,12.966-7.548,20.282-8.7s15.5.675,20.308,6.3c4.829,5.649,5.344,13.65,7.109,20.87s6.374,15.092,13.791,15.555c13.442-4.841,22.989-17.486,27.165-31.149s3.664-28.311,2.02-42.5c-1.788-15.438-7.8-33.87-23.068-36.8-15.7-3.018-28.092,12.631-36.375,26.31,1.758-8.228-5.618-16.533-13.968-17.561s-16.6,3.848-21.628,10.6-7.344,15.107-8.963,23.362c2.159-11.011-25.177,1.506-27.444,3.816-8.813,8.981-10.193,23.98-6.731,35.381-12.4-.334-22.887,10.407-26.485,22.274s-1.9,24.611-.167,36.89C1343.369,210.229,1368.935,182.788,1395.145,166.71Z"/><path class="cls-11" d="M781.654,260.428c.436-3.991,4.42-7,8.433-7.136s7.828,2.1,10.456,5.132A19.27,19.27,0,0,1,786.5,290.3c-4.84,25.975-22.972,52.294-52.293,48.3-32.539-4.434-48.046-40.537-52.06-69.44q-.573-4.127-.813-8.29c-.944-16.454,8.692-29.507,21.239-38.627a82.552,82.552,0,0,1,13.233-7.789,42.735,42.735,0,0,1,21.88-4.025,43.422,43.422,0,0,1,30.129,16.748C774.309,235.645,782.877,249.223,781.654,260.428Z"/><path class="cls-19" d="M725.38,263.193c.416,4.583,1.268,9.454.786,13.92-.29,2.686-4.085,5.108.112,7.89,2.591,1.717,6.273.861,8.56-1.244"/><path class="cls-19" d="M754.4,292.254c-10.352,5.273-18.7,8.1-30.631,8.478A16.913,16.913,0,0,0,734.031,311.4c6.909,2.473,15.543-.738,19.4-6.857a16.319,16.319,0,0,0,1.928-12.784Q754.876,292.011,754.4,292.254Z"/><path class="cls-11" d="M1320.2,217.668c-22.347-22.044-63.118-27.932-86.432-4.665"/><path class="cls-11" d="M1333.29,312.211c1.015,42.859-42.893,79.163-83.549,55.658-14.61-8.447-31.334-30.363-35.586-52.62"/><path class="cls-11" d="M1269.081,257.385c15.869,8.523,32.054,15.561,50.653,12.461"/><path class="cls-19" d="M1269.081,324.592l10.124-2.094"/><path class="cls-19" d="M1258.5,337.207c11.556,6.459,27.637,3.108,35.651-7.43"/><path d="M1295.1,290.74a11.635,11.635,0,0,0-1.034-1.573,4.688,4.688,0,0,0-4.4-1.933c-1.843.376-3.058,2.181-3.607,3.981-1.209,3.96.556,11.711,6.389,10.289C1297.894,300.176,1297.168,294.488,1295.1,290.74Z"/><path class="cls-19" d="M1231.59,300.8a28.914,28.914,0,0,1,25.969-7.146"/><path class="cls-19" d="M1276.343,289.448a37.461,37.461,0,0,1,26.61-4.742"/><path class="cls-19" d="M1265.821,344.265a12.285,12.285,0,0,0,23.419-6.759"/><path class="cls-11" d="M1422.546,808.7c54.524-46.246,129.6-52.391,196.41-38.15"/><path class="cls-11" d="M54.34,399.3c3.055,14.087,15.921,25.46,30.277,26.763s29.059-7.568,34.6-20.875"/><path class="cls-11" d="M1377.07,482.322c-6.35-54.022,21.527-95.843,43.935-114.338"/><path class="cls-11" d="M1319.731,356.455c1.817,5.632,5.288,10.611,6.338,16.655,3.5,20.122-16.506,33.468-6.364,54.234,3.005,6.151,8.016,11.656,8.54,18.482.534,6.96-3.735,13.229-6.781,19.509-6.1,12.574,2.229,33.494,19.015,30.341,10.244,5.513,23.715,3.184,32.216-4.756"/><path class="cls-11" d="M1386.787,415.643c0-11.318-8.251-16.367-8.741-24.859-.388-6.744,2.91-9.474,3.014-14.638a33.479,33.479,0,0,0-3.99-16.587"/><path class="cls-19" d="M1352.9,485.248c-5.268-1.418-8.042-7.592-7.557-13.026s3.38-10.309,6.063-15.06,5.291-9.87,5.113-15.323c-.284-8.668-7.415-15.6-9.45-24.031-2.287-9.476,2.109-19.094,5.313-28.3,3.578-10.282,3.22-18.618-1.721-27.616-5.057-9.209-8.391-17.622-4.439-28.32"/><path d="M1241.63,299.26a12.482,12.482,0,0,0-.35,4.312,6.347,6.347,0,0,0,1.864,4.258c2.975,2.709,7.5.351,7.989-3.287.551-4.074-2.107-12.12-7.579-8.206A5.3,5.3,0,0,0,1241.63,299.26Z"/><path class="cls-11" d="M943.224,389.15a26.128,26.128,0,0,0-11.23-26.588c-6.129-3.917-13.617-5.037-20.194-8.142-21.709-10.25-27.181-38.149-17.222-58.143"/><path d="M909.393,283.89c14.893-4.411,2.556-29.513-2.73-36.48-1.415-1.865-3.136-3.734-5.429-4.2-5.028-1.031-8.577,4.989-9.231,10.08C890.882,262.011,895.509,288,909.393,283.89Z"/><path class="cls-19" d="M849.365,571.994c44.348,7.931,63.725,42.188,72.8,84.461,5.641,26.262,5.44,53.381,5.214,80.241"/><path class="cls-11" d="M1378.847,761.791a1551.884,1551.884,0,0,1,21.824,260.009"/><path class="cls-19" d="M1326.956,571a402.308,402.308,0,0,1,46.887,147.308"/><path class="cls-11" d="M984.033,235.616a58.661,58.661,0,0,1,22.718-40.205c9.351-7.054,21.851-11.183,32.93-7.381,15.679,5.381,22.5,23.848,24.063,40.351a129.791,129.791,0,0,1-14.795,73.173c-4.127,7.677-9.432,15.283-17.34,18.948s-18.9,1.827-22.926-5.905"/><path class="cls-11" d="M1028.2,221.008l-10.552,65.964"/><path class="cls-11" d="M870.99,186.22c7.626-7.9,16.043-16.23,26.884-17.979,12.343-1.991,24.676,5.465,32.066,15.549s10.824,22.448,14.114,34.509"/><path class="cls-11" d="M952.738,477.99c-9.031-9.03-24.312-8.441-30.853-8.234s-13.256.39-19.433-1.772c-37.387-13.091-25.951-74.071-12.277-99.648-19.8.029-38.19-1.863-44.959-24.786-7.624-25.818,12.676-56.1,32.474-70.693-18.841-50.722-9.323-111.827,19.465-156.99,29.63-46.483,76.058-71.961,128.711-83.652,36.177-8.032,82.527.73,114.887,17.624,48.288,25.208,79.853,76.6,88.5,130.377,7.5,46.668-.851,94.657-17.978,138.327-14.865,37.906-30.816,70.459-28,110.472"/><path class="cls-11" d="M884.629,389.68A40.249,40.249,0,0,0,919.47,374.6c2.715,25.253-16.457,38.617-41.851,38.145"/><path class="cls-11" d="M1218.407,305.1c15.363-8.824,48.963-39.019,53.741-62.376"/><path class="cls-11" d="M538.387,860.565a105.086,105.086,0,0,0-67.338-49.713c-19.664-4.434-40.026-4.377-60.184-4.3-7.674.03-16.323.476-21.429,6.2-6.013,6.746-3.759,17.975,2.427,24.563s15.128,9.688,23.7,12.555"/><path class="cls-11" d="M433.417,901.046c6.835,38.408,37.152,52,70.463,54.568"/><path class="cls-11" d="M433.065,839.6c-27.978,15.047-33.144,52.4-19.775,79.186,3.318,6.647,8.008,12.906,14.573,16.384s15.251,3.606,21-1.1"/><path class="cls-11" d="M44.162,800.473A76.842,76.842,0,0,1,63.92,780.638c5.5-3.794,11.664-6.913,18.3-7.694,8.575-1.009,17.538,3.418,25.993,4.943a139.408,139.408,0,0,0,32.708,1.765c11.018-.6,36.718-8.1,45.818,1"/><path class="cls-11" d="M296.223,656.072c-46.052,12.023-147.225,99.7-78.2,193.119-2.744-18.751,34.094-34.431,47.464-17.463-.154-.195,4.3-22.127,4.24-25.07-.193-8.987-2-17.966-1.462-26.973,1.229-20.626,17.162-32.381,30.713-46.179"/><path class="cls-11" d="M221.975,1029.117c-.029-15.443.4-30.243,3.006-45.29,2.9-16.767-.321-34.262-2.463-50.918-2.579-20.055-1.9-36.012,3.764-55.95"/><path class="cls-11" d="M7.835,854.107c11.219,15.944,23.578,21.663,41.7,25.478s33.36,8.037,52.528,6.551c34.328-2.662,85.1-.042,111.519-25.613"/><path class="cls-11" d="M272.765,764.74c7.05-1.762,19.851-1.746,26.161-5.073,4.241-2.236,13.367-6.015,18.11-6.717s10.4,1.55,11.533,6.209c1.174,4.816-2.822,9.266-6.729,12.317-15,11.708-35.056,18.644-51.811,27.68"/><path class="cls-11" d="M416.025,600.629a62.4,62.4,0,0,1-50.518.771"/><path class="cls-11" d="M399.189,575.905c-2.928,4.9-9.69,7.1-14.957,5.49"/><path d="M350.834,569.76c-9.112-6.633.27-24.267,9.9-16.806C368.032,558.6,362.633,578.349,350.834,569.76Z"/><path d="M413.112,554.309c7.652-11.7,21.488,8.986,10.2,15.206C413.063,575.164,408.411,561.5,413.112,554.309Z"/><path class="cls-11" d="M297.262,596.708c-10.591,13.143-26.137,2.322-28.028-10.756-1.766-12.208,1.743-31.257,17.446-32.658a15.484,15.484,0,0,1,15.8,10.994"/><path class="cls-11" d="M419.875,657.172c9.965,6.616,17.535,17.306,22.626,27.794,14.357,29.577,43.625,52.006,66.611,74.706,2.044,2.019,4.156,4.144,5.062,6.87.941,2.832.451,5.92-.136,8.846-1.375,6.862-3.377,13.91-8.074,19.1-7.281,8.041-19.642,9.743-30.141,7.016s-19.6-9.126-28.45-15.4"/><path class="cls-11" d="M418.384,716.879c8.728,33.456,16.513,55.523,18.219,89.857"/><path class="cls-11" d="M370.373,605.488c-.979,9.317,7.463,18.713,16.756,19.895s18.85-6.054,20.234-15.319"/><path class="cls-7" d="M321.205,530.892c5.771-7.7,15.741-15.584,24.621-19.205,11.292-4.605,25.007.53,36.731-.034,8.309-.4,15.869-4.222,23.805-5.2,8.062-.994,17.814,3.075,24.738,6.877-9.7-11.009-19.027-18.815-32.208-24.819-15.741-7.171-33.5-10.108-50.656-7.489-37.453,5.718-69.474,37.362-75.635,74.744,9.834-5.807,23.962-2.564,30.278,6.952C308.454,552.209,314.069,540.416,321.205,530.892Z"/><path class="cls-11" d="M426.878,721.475a11.74,11.74,0,0,1,4.073,23.081c7.872-1.849,17.054,3.059,18.911,10.929s-5.244,16.818-13.277,15.893a11.151,11.151,0,0,1,4.431,21.822,7.937,7.937,0,0,1,5.921,9.634"/><path class="cls-11" d="M273.112,819.177c10.128-.254,21.291-1.72,29.447-7.852,8.759-6.585,18-12.362,26.216-19.73,1.909-1.711,3.925-3.806,3.838-6.368-.113-3.308-7.748-8.842-19.8-6.9"/><path class="cls-11" d="M218.631,844.852c2.9,19.075,7.852,27.831,20.894,42.051"/><path class="cls-11" d="M245.183,872.157l4.988,8.979"/><path class="cls-11" d="M258.152,868.167c1,1,4,7,4.993,7.992"/><path class="cls-11" d="M268.128,861.183l7.981,8.979"/><path class="cls-11" d="M279.1,850.209l-6.983,1c-3.145-5.85-8.12-15.306-7.83-21.941"/><path class="cls-11" d="M517.19,774.2a69.956,69.956,0,0,1,26.368,14.789c5.772,5.153,9.3,16.185,16.9,18.214"/><path class="cls-11" d="M496.942,803.23c-.72,5.406,3.593,10.321,8.463,12.778,9.223,4.654,29.113,4.9,31,17.254"/><path class="cls-11" d="M555.369,821.408l-20.721-11.6,2.483,8.578"/><path class="cls-11" d="M324.033,797.942c3.6-1.152,7.139,2.958,6.881,6.731s-2.941,6.894-5.623,9.562a108.561,108.561,0,0,1-51.676,28.6"/><path class="cls-11" d="M303.592,1033.715q9.442-27.87,18.888-55.746c3.662-10.817,4.178-21.432,9.3-31.557,3.1.769,9.2-1.413,9.2-1.413"/><path class="cls-11" d="M320.55,989.874c1.578,12.322.2,24.971,1.951,37.385"/><path class="cls-11" d="M411.278,922.331c-2.1,4.66-4.56,9.22-6.814,13.767-7.779,15.693-2.069,30.921-3.7,47.747-1.624,16.77-3.679,34.267-2.284,50.967"/><path class="cls-11" d="M90.138,772.462c18.191-2.841,27.9-14.349,34.684-31.463"/><path class="cls-11" d="M180.247,783.929a45.959,45.959,0,0,0,31.814,69.52"/><path class="cls-12" d="M439.086,725.143c1.619,3.681.616,7.929.932,11.938s3.268,8.614,7.217,7.851a168.357,168.357,0,0,1,4.32,40.685c-.042,2.591-.192,5.336-1.648,7.479s-4.688,3.285-6.713,1.668a7.2,7.2,0,0,1-2.013-3.824q-7.242-25.208-14.483-50.415c-1.305-4.542-5.707-12.988-2.746-17.555C427.586,717.366,436.718,719.759,439.086,725.143Z"/><path class="cls-20" d="M269.144,847.7c-1.7-6.585-4.442-13.061-9.077-18.039s-11.388-8.285-18.157-7.625c-9.965.971-17.531,10.305-19.538,20.114s.382,19.95,3.244,29.544c.782,2.619,1.713,5.4,3.879,7.066,3.73,2.873,9.081,1.166,13.426-.647l24.547-10.243C276.108,864.269,271.49,856.767,269.144,847.7Z"/><path class="cls-20" d="M499.492,807.758a12.752,12.752,0,0,0,1.487,5.92c2.354,4.507,7.6,6.935,12.679,7.184a39.368,39.368,0,0,0,18.984-4.022c3.036-1.482,4.285-2.687,7.675-2.464,3.136.206,5.724,2.494,9.035,1.976,4.107-.643,6.529-5.365,6.138-9.5-.587-6.219-6.613-15.608-11.078-19.848-6.014-5.71-20.086-14.272-28.693-9.783-6.49,3.386-7.967,11.964-11.512,17.674C501.772,798.812,499.466,803.2,499.492,807.758Z"/><path class="cls-11" d="M787.794,614.173c-2.087-28.78-4.524-58.724-19.178-83.581A95.157,95.157,0,0,0,711.505,487.4"/><path class="cls-11" d="M697.175,472.8c19.04-33.433,13.6-71.4,13.3-108.388-.029-3.7-.068-7.465-1.186-10.992s-3.5-6.845-6.948-8.175-7.966-.093-9.557,3.248a9.342,9.342,0,0,0-17.832-5.3,10.158,10.158,0,0,0-19.538,2.627c-.617-4.031-4.86-6.849-8.937-6.741s-7.794,2.6-10.348,5.777-4.13,7.014-5.672,10.789c-3.2-2.637-8.327-1.363-11.151,1.669s-3.89,7.265-4.7,11.328c-7.444,37.168-6.049,81.173,12.165,115.316"/><path class="cls-11" d="M426.353,274.49c18.773-7.172,8.936-22.9,7.038-36.622-.985-7.123-.205-14.727,3.6-20.83s11.022-10.339,18.138-9.3"/><path class="cls-11" d="M391.622,309.679c-17.64,22.362-52.9,24.684-71.175,1.6"/><path class="cls-11" d="M461.057,302.007c7.588,4.553,13.527,13.668,5.921,22.024"/><path class="cls-11" d="M631.966,486.8c8.122-5.217,23.679-23.929,31.615-25.386,4.611-.846-4.031,19.9-3.636,20.577,6.816-1.345,36.845-20.315,39.361-13.884,2.03,5.188-22.094,24.161-22.094,24.161s30.529-13.973,31.781-4.5S690.179,504.1,683.364,508.9c5.133-1.724,21.714-6.606,24.863,1,2.658,6.417-9.407,12.866-14.034,15.855-12.423,8.026-27.1,13.236-41.957,13.574"/><path class="cls-11" d="M716.325,423.251a17.237,17.237,0,0,1,12.553,11.463c4.025,12.863-7.469,22.326-19.734,20.064"/><path class="cls-11" d="M606.757,426.4c-9.1-.1-16.839,9.821-14.534,18.627s13.91,13.658,21.8,9.114"/><path class="cls-11" d="M274.8,442.5c-6.921,29.885-17.729,58.614-23.532,88.914-5.929,30.958-9.076,62.6-7.6,94.13"/><path class="cls-19" d="M414.7,462.655c3.9-20.888,21.37-38.567,42.209-42.721"/><path class="cls-19" d="M277.305,422.284A58.915,58.915,0,0,1,304.869,385.9"/><path class="cls-20" d="M215.19,563.633c4.114-34.463,11.1-69.35,25.09-101.47,12.2-28.008,30.833-54,56.715-70.228,18.265-11.452,40.374-17.528,61.951-15.631,18.2,1.6,38.27,3.349,55.29,10.273a135.9,135.9,0,0,1,59.95,48.149c15.742,22.689,22.229,66.566,33.116,74.715s54.313-7.215,59.6-8.286c16.016-3.247,48.607-18.17,63.883-9.94,6.267,3.376,10.356,9.769,13.074,16.348,5.838,14.133,9.968,41.177-4.762,49.849-18.257,10.75-45.336,14.089-65.569,20.437-23.083,7.389-46.261,19.075-70.858,19.224-14.026.085-28.678-4.122-38.321-14.308-10.925-11.538-13.631-28.321-19.7-43.007-14.906-36.1-54.055-60.638-93.038-58.328-39.094,2.317-70.428,33.454-80,70.508-9.22,35.671,2.607,78.276,31.309,101.634-11.3,6.021-24.236,8.244-35.869,13.631,4.537-2.1-47.439-88.3-51.332-94.754C214.754,570.824,214.716,567.6,215.19,563.633Z"/><path class="cls-7" d="M408.418,386.8c-14.549-8.4-31.788-14.052-48.653-14.68-8.907-.332-34.943-2.013-40.552,7.073,9.9-16.038,5.045-41.491,5.5-59.658,18.158,15.234,49.658,9.567,61.367-11.041,3.728-6.56,5.549-14,8.4-20.99s7.134-13.894,13.914-17.2,16.416-1.521,19.62,5.31c7.168-5.53,8.692-15.747,8.015-24.775s-2.972-18.136-1.227-27.02,9.476-17.6,18.429-16.257c6.168.928,10.864,6.405,12.755,12.349s1.518,12.338,1.125,18.563l-4.931,78.09c-1.061,16.8-3.478,36.074-17.529,45.351-6.459,4.264-14.368,5.589-21.526,8.534S408.89,379.076,408.418,386.8Z"/><path class="cls-17" d="M322.207,241c-6.338,20.266-8.289,42.08-2.316,62.672,1.9,6.544,4.625,13.069,9.464,17.866,6.769,6.712,19.72,7.8,28.9,7.558,9.521-.251,20.659-4.384,27.531-11.219,9.051-9,5.949-17.942,6.82-29.29a21.617,21.617,0,0,1,15.546-18.723,19.172,19.172,0,0,1,9.551-.575c1.922.444,9.19,6.315,9.776,6.193,5.036-1.046,8.539-5.95,9.546-10.994s.021-10.247-.964-15.295c-2.227-11.413-6.6-20.557.664-30.249,2.706-3.61,18.591-16.812,23.811-12.322-22.942-19.732-48.889-33.322-80-24.434C352.853,190.034,330.8,213.538,322.207,241Z"/><path class="cls-11" d="M1239.764,362.324c-.559,4.92-4.162,9.546-4.845,14.765a38.046,38.046,0,0,0,1.137,15.322c2.651,9.282,9.6,16.5,7.963,26.9-1.084,6.891-6.048,12.893-6.218,19.866-.16,6.6,3.972,12.413,7.381,18.07,9.969,16.542-1.751,30.157-9.9,37.031"/><path class="cls-19" d="M1208.293,483.909c11.965-3.39,7.839-19.455,4.293-27.5-2.492-5.655-5.52-11.305-5.825-17.477-.376-7.587,3.4-14.674,5.378-22.008,3.484-12.916-5.74-21.211-7.5-33.394-1.676-11.572,5.18-18.73,8.139-28.962,2.42-8.366-.031-19.48-3.131-27.493"/><path class="cls-11" d="M1243.431,372.786c3.147,9.243,6.366,18.63,12,26.6s14.131,14.478,23.852,15.393c12.748,1.2,24.872-7.656,30.832-18.988s6.814-24.646,6.246-37.437"/><path class="cls-11" d="M1267.577,491.512a37.21,37.21,0,0,0,28.81-23.6"/><path class="cls-11" d="M544.044,767.5c-5.6-10.863-10.663-21.538-15.293-32.826-4.827-11.77-8.581-24.035-10.1-36.7-3-25.083,2.042-52.173,19.037-71.628,17.1-19.573,39.777-31.4,64.833-32.191,26.4-.838,48.968,12.577,63.306,34.327,16.312,24.743,19.978,55.275,22.441,84.121,1.163,13.618,2.528,26,.373,39.851-2.217,14.252-7.389,27.849-16.39,39.223-23.938,30.253-63.241,33.6-96.055,15.835"/><path class="cls-11" d="M600.265,775.717c12.4,11.827,38.526,4.841,43.844-11.013"/><path class="cls-11" d="M605.52,750.6c6.757,4.929,17.815,2.235,21.328-5.2"/><path d="M655.657,709.805c.786-5.013-.921-10.159-6.582-11.021-11.946-1.819-15.378,14.148-6.255,19.981C649.206,722.849,654.617,716.443,655.657,709.805Z"/><path d="M572.056,711.7c12.206-4.768,15.289,16.243,5.785,20.449-5.487,2.428-9.154-1.8-10.343-7.073S567.6,713.439,572.056,711.7Z"/><path class="cls-11" d="M528.763,721.407c35.141-16.646,60.382-53.945,60.8-93.069a90.518,90.518,0,0,0,89.533,54.187"/><path class="cls-11" d="M765.254,697.822c3.981-19.644,2.8-38.7-6.356-56.495-7.25-14.088-19.259-25.812-34.9-29.831-20.795-5.344-44.986,5.108-53.14,25.512"/><path class="cls-11" d="M517.084,683.52c-10.647-15.87-32.816-17.244-47.2-5.549A35.529,35.529,0,0,0,457,706.141"/><path class="cls-19" d="M659.457,737.656a19.2,19.2,0,0,1,2.151,5.809"/><path class="cls-21" d="M514.873,681.2c-4.945-13.835-23.961-16.034-35.35-9.478-8.292,4.773-16.8,13.4-20.615,22.218-2.578,5.958-3.326,12.978-.686,18.908,2.1,4.705,6.057,8.274,9.908,11.694,13.153,11.682,25.9,24.117,40.155,34.42,13.049,9.433,27.847,24,42.6,29.6,1.689-10.86-8.189-22.575-12.8-32-2.33-4.766-3.945-9.79-6.235-14.643-.776-1.645-6.162-15.594-7.357-15.594,4.159-2.5,7.818-5.559,11.895-8.211a118.785,118.785,0,0,0,11-8.1,123.972,123.972,0,0,0,26.908-31.267A122.728,122.728,0,0,0,583.48,660.2q1.9-4.818,3.371-9.788c.425-1.436,3.237-8.484,2.416-9.645,20.542,29.027,57,45.986,92.435,43q-.018,5.055.073,10.111a463.8,463.8,0,0,0,4.015,53.037c.965,7.212.983,15.781,5,21.937,3.594,5.5,7.3,10.191,14.193,11.408,14.419,2.544,25.167-12.535,31.949-25.511,9.37-17.927,18.812-36.037,24.027-55.581s5.918-40.921-1.994-59.538-25.548-33.775-45.733-35.08-41.154,13.893-42.958,34.041c-17.1-33.287-58.9-51.665-94.994-41.77S512.61,643.84,514.873,681.2Z"/><path class="cls-18" d="M493.017,1047.572c-2.371-24.1-1.351-57.7-.112-76.235"/><path class="cls-19" d="M571.53,757.809l.034,4.778"/><path class="cls-13" d="M782.714,573.807c.013,2.105-.336,23.184-.936,23.173L662.73,594.816c-20.246-.368-40.492-.771-60.739-1.105-15.25-.251-27.521,3.93-25.648-15.783,33.462-3.874,69.205-1.566,102.994-2.2Z"/><path class="cls-13" d="M774.568,551.017c2.783-6.307-1.367-13.953-7.354-17.369s-13.212-3.657-20.106-3.664a487.448,487.448,0,0,0-63.224,4.059c-7.741,1.006-48.219,2.057-31.49,16.78,10.713,9.428,43.963,2.238,57.624,1.881C716.8,552.527,772.765,555.1,774.568,551.017Z"/><path class="cls-13" d="M708.8,509.686l32.2-3.36a42.43,42.43,0,0,0-28.936-16.969L699.04,497.79a20.625,20.625,0,0,0,8.892,11.942"/><path class="cls-7" d="M654.479,538.806a75.474,75.474,0,0,0,44.642-14.383c4.059-2.961,8.081-6.81,8.643-11.8s-4.464-10.5-9.092-8.549c5.912-2.006,9.2-9.557,6.646-15.253s-10.384-8.258-15.813-5.175c1.646-2.249,3.324-4.566,4.049-7.256s.293-5.879-1.787-7.733c-3.362-3-8.617-1.112-12.645.9L658.216,480q.783-8.714,1.567-17.427c-10.521,7.456-20.6,15.233-31.8,21.5,7.126,6.782,14.9,15.008,18.654,24.113C647.681,510.7,654.671,538.807,654.479,538.806Z"/><path class="cls-21" d="M655.978,472.66c4.377-.147,8.616,1.352,12.908,2.221,12.091,2.446,26.279-1.114,32.74-11.622,3.787-6.159,4.433-13.677,4.982-20.886l4.862-63.829c.729-9.563.9-20.607-6.259-26.992a27.294,27.294,0,0,0-5.251-3.472c-14.5-7.874-31.408-12.325-47.647-9.388s-31.448,14.219-36.249,30.008c-1.79,5.886-2.12,12.1-2.437,18.245A417.819,417.819,0,0,0,614.1,440.6a108.686,108.686,0,0,0,4.714,24.368c.593,1.883,8.887,22.3,9.625,21.84C636.232,481.934,646.377,472.982,655.978,472.66Z"/><path class="cls-14" d="M729.343,430.675c-3.09-4.587-10.639-6.627-15.442-9.083-3.795,11.554-7.025,22.458-9.069,34.235,5.055.788,9.435-1.932,14.171-1.932a20.177,20.177,0,0,0,10.825-9.305C732.021,440.246,732.063,434.71,729.343,430.675Z"/><path class="cls-14" d="M589.026,439.428c-.961,4.2.789,8.733,3.842,11.777a21.479,21.479,0,0,0,11.487,5.5,64.024,64.024,0,0,0,12.9.541,86.851,86.851,0,0,1-5.828-16.546c-.6-2.482-.992-14.97-2.774-15.987-1.621-.926-8.323,3.753-10.016,4.627C594.354,431.55,590.175,434.4,589.026,439.428Z"/><path class="cls-13" d="M788.61,617.722c-.536,7.571-.584,15.435-1.78,22.894-4.574-1.437-8.131-3.407-13.066-3.332-6.462.1-11.89,2.941-18.484.823-8.645-2.776-13.831-11.366-18.246-19.3C740.467,618.768,788.43,619.473,788.61,617.722Z"/><path class="cls-19" d="M383.785,848.65a35.689,35.689,0,0,0-9.124-25.752A50.3,50.3,0,0,0,387.4,798.432"/><path class="cls-11" d="M63.92,780.638c5.4-3.293,10.227-13.845.12-24.908-4.264-4.667-10.891-6.511-15.538-10.8-6.756-6.228-8.841-15.9-10.579-24.922q-8.094-42.039-16.187-84.078"/><path class="cls-11" d="M795.418,252.492c6.835-13.465-2.473-33.253-13.53-42.014"/><path d="M705.327,259.327c2.2-.888,4.568.612,5.326,5.389.833,5.243-1.672,12.039-7.63,7.421a6.007,6.007,0,0,1-1.924-5.469C701.563,262.764,703.381,260.113,705.327,259.327Z"/><path d="M742.065,255.438a7.929,7.929,0,0,0-.755,10.119,4.943,4.943,0,0,0,6,1.482c2.411-1.193,3.394-4.267,2.982-6.925C749.119,252.583,744.776,252.588,742.065,255.438Z"/><path class="cls-11" d="M681.664,251.474a54.3,54.3,0,0,1,72.2-53.141"/><path class="cls-11" d="M796.549,225.643c8.816.406,17.085-6.045,20.26-14.28s1.811-17.736-2.148-25.624a43.07,43.07,0,0,0-31.63-22.887c-18.706-2.773-48.226,10.073-36.367,33.289"/><path class="cls-19" d="M694.532,256.908A15.927,15.927,0,0,1,710.61,243.6"/><path class="cls-19" d="M736.9,238.385a16.874,16.874,0,0,1,18.437,4.116"/><path class="cls-11" d="M784.323,288.616c5.153,11.752,9,24.5,7.766,37.272s-8.408,25.557-20.2,30.616-27.8-.059-32.158-12.128"/><path class="cls-11" d="M837.339,331.207c-15.064-6.574-29.214-13.416-44.754-18.931C806.627,316.591,823.3,326.892,837.339,331.207Z"/><path class="cls-11" d="M768.131,459.513c13.163,9.888,32.6,8.579,42.9-2.891"/><path class="cls-11" d="M853.8,533.444a366.928,366.928,0,0,1-3.056-94.795"/><path class="cls-11" d="M510.868,209.065c27.837-10.482,79.284,6.478,93.883,20.51,18.391,17.679,17.06,45.924,14.208,69.261-2.192,17.939-11.665,59.511-40.067,52.619-1.751,7.87-1.544,12.683-3.316,20.388"/><path class="cls-19" d="M507.955,211.82c29.887-9.491,68.9,6.676,83.293,31.148"/><path class="cls-19" d="M506.542,212.751c21.312,2.957,35.2,9.6,48.107,28.09"/><path class="cls-19" d="M580.041,309.254a10.553,10.553,0,0,0,9.752-.892c6.869-4.533,3.3-19.029,3.172-26.209"/><path class="cls-19" d="M560.25,318.131a26.411,26.411,0,0,0,16.424,6.97"/><path d="M577.594,281.4c-.007-2.352-.936-4.493-3.237-5.426-6.2-2.516-9.207,9.027-6,12.663C572.637,293.487,577.612,286.878,577.594,281.4Z"/><path d="M598.056,284.326a10.652,10.652,0,0,1,.871-5.841,4.4,4.4,0,0,1,5.011-2.218,4.736,4.736,0,0,1,2.864,3.811c.538,3.349-1.239,10.289-6.044,8.626C599.116,288.136,598.3,286.331,598.056,284.326Z"/><path class="cls-11" d="M460.047,393.825c5.382-4.306,12-6.694,18.192-9.719,23.889-11.666,43.864-33.346,41.047-61.55-.118-1.178-11.681-8.234-13.243-9.695-3.9-3.649-8.2-7.532-11.259-11.85a52.011,52.011,0,0,1-5.165-9.247"/><path class="cls-11" d="M531.683,273.111c-4.529-4.381-12.436-3.8-17.227.294s-6.724,10.8-6.364,17.09c.228,3.976,2.776,13.617,14.045,13.512"/><path class="cls-11" d="M505.5,367.211c5.946,8.706,12.078,17.606,20.689,23.688s20.365,8.857,29.835,4.223c9.424-4.61,16.3-11.562,19.55-23.279"/><path class="cls-11" d="M575.576,371.843c10.662,9.873,17.964,15.8,31.715,20.493"/><path class="cls-19" d="M486.115,233.845l-.687-.318c11.919,4.567,23.087,11.445,34.011,17.886,9.3,5.483,18.6,12.748,21.2,23.79"/><path class="cls-19" d="M557.785,265.251l20.205.353"/><path class="cls-19" d="M593.611,266.07l13.683.074"/><path class="cls-19" d="M490.576,224.791c10.281,2.979,20.993,3.858,30.374,9.074,9.129,5.076,17.455,12.08,23.062,20.971"/><path class="cls-19" d="M571.422,242.1a52.44,52.44,0,0,0-42.951-28.638c-4.227-.262-8.488-.056-12.723-.06"/><path class="cls-19" d="M509.648,215.656c-15.1-11.885-9.672-34.671,6.656-42.152"/><path class="cls-19" d="M475.476,180.266a38.633,38.633,0,0,1,22.066,35.485"/><path class="cls-19" d="M504.6,207.158a46.316,46.316,0,0,0,37.312-28.5"/><path class="cls-19" d="M503.723,283.627l-13.422-13.3c-4.765-4.72-5.652-8.737-9.771-14.031"/><path class="cls-19" d="M512.5,270.413l-17.168-15.48c-4.7-4.236-7.648-6.335-12.415-10.486"/><path class="cls-19" d="M474.4,194.6c.541,11.068,5.234,23.582,19.211,21.639"/><path class="cls-3" d="M453.808,701.755a38.42,38.42,0,0,1,66.276-18.741c-8.667-9.589,7.7-42.256,13.3-50.274,11.471-16.428,25.759-25.137,44.157-31.416l-1.861-27.96c-14.118,7.407-23.755,14.241-40.12,16.579-14.914,1.818-30.012,4.5-45.089,2.534-15.351-2-30.768-9.3-38.89-22.482,1.789,17.771.989,39.278-7.736,55.052-1.549,2.8-20.288,27.531-20.037,27.98,5.37,9.6,10.084,18.814,17.467,26.759C447.134,686.1,455.73,691.418,453.808,701.755Z"/><path class="cls-11" d="M1575.761,286.624c12.747-2.167,30-1.413,42.389,2.288"/><path d="M1419.105,612.56a11.78,11.78,0,0,1-5.311-.97c-4.5-1.81-7.172-6.676-7.768-11.489-1.971-15.923,16.666-28.118,21.395-9.079C1429.345,598.769,1427.586,611.882,1419.105,612.56Z"/><path class="cls-11" d="M1406.875,537.754c18.128,3.087,33.739,17.745,37.961,35.642"/><path class="cls-11" d="M1431.9,617.077a32.015,32.015,0,0,0-14.024,20.457c-1.847,9.213.036,15.081,8.959,18.8,3.665,1.528,7.552,2.564,11.013,4.511a23.9,23.9,0,0,1,11.717,16.889"/><path class="cls-11" d="M1399.159,685.25c12.473.587,17.155-4.076,28.4-9.08-.22,14.122-7.507,27.69-20.592,33.008"/><path class="cls-11" d="M1560.364,609.255c-.807,25.351-13.046,50.033-41.577,48.864"/><path class="cls-11" d="M1523.752,632.084l7.537-15.59"/><path class="cls-11" d="M1405.881,514.456c-15.236,11.406-24.265,25.02-29.827,43.181-5.74,18.74-.688,38.732-13.846,55.015"/><path class="cls-11" d="M1394.14,496.452c4.91,12.763,12.632,22.914,27.327,24.322a31.834,31.834,0,0,0,25.129-9c-1.39,21.385,13.876,40.9,34.494,45.982-.846,22.011,13.383,43.812,33.873,51.9s45.773,1.877,60.187-14.78"/><path class="cls-11" d="M1470.279,779.555c23.068,4.791,42.181,14.9,53.256,36.118a153.827,153.827,0,0,1-4.932,151.49c-13.446,22.132-40.014,34.284-64.895,39.271"/><path class="cls-11" d="M1415.052,768.307c15.8-.31,26.176,4.331,31.8,20.256"/><path class="cls-11" d="M1529.563,657.148c-24.852,26.38-19.056,61.162,12.288,70.111-1.926,11.407,6.528,36.51,29.414,37.033"/><path class="cls-19" d="M1528.056,771.483a158.557,158.557,0,0,1,69.263,183.125"/><path class="cls-11" d="M869.223,888.976c17.083-34.822,24.728-51.392,37.84-87.895"/><path class="cls-20" d="M1336.07,319.7c-10.958-21.623-14.207-24.313-15.4-48.525-9.387,2.071-17.3-.936-26.238-2.761-2.251-.46-25.738-9.719-24.65-11.1A327.207,327.207,0,0,1,1242,288.28c-4.858,4.766-10.135,9.092-15.005,13.829-1.3,1.264-13.372,11.244-13.394,11.156,2.466,9.62,7.323,18.8,12.657,27.109,5.1,7.949,18.2,17.591,20.29,26.621.908,3.916.444,8,.683,12.016a34.183,34.183,0,1,0,64.192-18.287c5.168-5.606,11.487-11.073,15.682-17.434C1329.414,339.786,1338.1,323.753,1336.07,319.7Zm-54.088,30.95c-9.834,1.695-13.413-2.9-16.3-10.608,8.739-.213,16.4-.164,24.389-4.184C1291.49,339.666,1285.982,349.965,1281.982,350.654Z"/></svg>