<svg xmlns="http://www.w3.org/2000/svg" viewBox="0 0 1494.98 1022.611"><defs><style>.a{opacity:0.41;}.b{opacity:0.61;}.c,.d{fill:none;stroke:#000;stroke-linecap:round;stroke-linejoin:round;}.c{stroke-width:14px;}.d{stroke-width:8px;}.e{opacity:0.32;}</style></defs><title>EFimage</title><path class="a" d="M1414.227,371.57c.136,10.929-10.865,31.7-19.413,45.184a11.039,11.039,0,0,1-17.077,2.008C1250.7,293.617,1090.65,197.306,920.894,143.14c13.531-26.829,34.1-46.768,64.619-57.312,62.851,17.357,130.18,46.528,187.776,77.092,0,0,50.523,101.073,73.4,105.178,41.555,7.455,30.912-57.5,30.912-57.5s9.081,73.665,47.024,101.345c20.809,15.181,37.522,9.029,37.522,9.029C1369.29,338.041,1387.941,354.881,1414.227,371.57Z"/><path class="b" d="M725.354,588.37c27.854,40.436,59.965,78.5,99.218,108s86.136,50.137,135.145,53.139a63.7,63.7,0,0,1,3.149-35.187A322.176,322.176,0,0,1,794.523,618.28c-39.107-42.449-83.968-114.127-80.059-174.528a83.763,83.763,0,0,1-36.906,2.447C683.218,494.729,697.4,547.791,725.354,588.37Z"/><path class="c" d="M1380.793,422.1a575.948,575.948,0,0,1-198.52,240.284c-27.383,18.9-56.92,35.6-89.288,43.29-36.037,8.567-58.736-3.853-92.333-8.771-23.671-3.465-45.179,14.206-40.574,39.729,2.813,15.544,12.08,29.022,20.9,42.129,23.174,34.449,44.986,70.428,57.333,110.068s14.585,83.629-1.031,122.1"/><path class="c" d="M1009.63,294.479c8.846,9.663,25.777,7.305,35.172-1.826s12.836-22.714,14.524-35.705c.711-5.469,1.2-11.013,1.89-16.5,1.941,6.075,4.97,10.63,8.814,13.643,10.659,8.357,27.5,5.978,37.148-3.526,6.276-6.182,9.587-14.855,9.928-23.689"/><path class="c" d="M920.894,143.14c-25.727.908-44.094,41.022-56.673,64.365-12.8,23.751-23.189,48.736-32.2,74.145-8.883,25.056-15.706,50.69-23.814,75.983-7.566,23.6-17.967,47.983-38.883,62.753-21.059,14.87-45.937,22.971-71.251,26.777-25.939,3.9-52.285,3.733-78.448,3.587-30.728-.172-61.3-1.471-91.964-3.366-31.594-1.953-63.259-3.852-94.924-2.722-26.313.939-52.648,4.166-78.13,10.929C123.484,516.932,99.731,758.782,21.5,941.091"/><path class="c" d="M1163.721,117.465c14.353,46.3,29.287,93.737,59.137,131.933,8.179,10.465,19.527,20.96,32.722,19.448,11.616-1.33,20.358-12.087,23.128-23.447s.838-23.272-1.1-34.8c3.252,20.558,7.252,41.222,15.676,60.255s21.689,36.512,39.881,46.625c8.851,4.921,19.892,7.944,28.989,3.494,9.343-4.571,13.76-15.929,13.219-26.317s-5.064-20.1-9.507-29.5c-1.612-3.412-3.783-7.26-7.515-7.815-3.175-.473-6.248,1.854-7.63,4.752s-1.43,6.234-1.318,9.442c1.457,41.71,27.351,81.67,64.826,100.039,12.954,6.35,28.369,7.681,32.4-8.825,2.994-12.243-.071-25.608-2.174-37.748-3.574-20.629-10.539-40.57-19.116-59.62-34.52-76.672-95.76-141.28-171.185-178.446q-3.268-1.609-6.57-3.15a352.312,352.312,0,0,0-140.961-32.713,341.835,341.835,0,0,0-72.4,6.12c-13.659,2.653-49.115,9.468-48.712,28.64"/><path class="c" d="M814.834,404.414a218.008,218.008,0,0,0,43.675-62.939c1.829,6.7-2.443,13.335-4.609,19.935s-.219,16.26,6.712,16.7c3.787.241,7.036-2.592,9.482-5.492a53.94,53.94,0,0,0,12.254-39.947"/><path class="c" d="M1000.138,306.484c12.07-24.02,3.859-56.334-18.212-71.679-40.123-27.894-86.62,8.6-101.379,46.966-7.014,18.233-6.632,39.917,3.982,56.317s32.354,25.786,50.8,19.358"/><path class="c" d="M953.958,256.126A226.128,226.128,0,0,0,926.9,318.242"/><path class="c" d="M1093.559,632.574a52.616,52.616,0,0,0-51.579-17.358c-8.891,2.107-18.587,9.441-16.39,18.309,2.046,8.258,12.351,10.679,20.743,12.078s18.657,5.587,18.635,14.1"/><path class="c" d="M1124.5,581.88c5.079,13.873,22.817,20.06,36.967,15.815s24.681-16.422,31.236-29.662,9.871-27.8,14.681-41.77,11.527-27.91,23.055-37.149"/><path class="c" d="M960.772,753.638C818.566,727.069,692.19,596.321,678.611,450.762"/><path class="c" d="M961.71,714.814c-64.683-10.646-124.754-45.795-166.776-95.961-39.938-47.679-77.666-104.6-82.21-168.373"/><path d="M1167.583,447.4c-3.59-2.061-8,.941-10.54,4.21-2.607,3.357-9.277,13.5-6.067,18.064,3.55,5.05,11.363-.466,14.429-3.941C1168.7,462,1173.682,450.905,1167.583,447.4Z"/><path d="M1248.88,520.5a12.631,12.631,0,0,1,4.32-8.329c4.1-3.814,13.435-8.891,14.853.466a10.468,10.468,0,0,1-2.8,8.167C1260.989,525.736,1248.182,534.149,1248.88,520.5Z"/><path class="d" d="M1129.093,475.106a17.467,17.467,0,0,0,22.072,14.851"/><path class="d" d="M1229.057,542.847c4.37,8.564,15.761,12.737,24.63,9.022"/><path class="d" d="M1112.217,477.342a30.988,30.988,0,0,0,35.941,29.607"/><path class="d" d="M1215.409,551.8a35.638,35.638,0,0,0,43.072,19.451"/><path class="d" d="M1272.756,543.916a22.039,22.039,0,0,0,12.4-11.917"/><path class="d" d="M1177.625,482.977a14.838,14.838,0,0,0,11.655-8.753"/><path class="d" d="M1127.644,445.623a16.936,16.936,0,0,1,11.182-10.234"/><path class="c" d="M1156.056,374.506c23.936-21.252,60.465-27.059,89.811-14.276"/><path class="c" d="M1343.2,412.988a67.241,67.241,0,0,1,9.752,62.162"/><path class="d" d="M1169.157,389.9a61.665,61.665,0,0,1,41.436-8.842"/><path class="d" d="M1326.914,432.381a44.037,44.037,0,0,1,3.592,40.782"/><path class="c" d="M650.329,915.694c-15-13.164-18.526-37.577-7.855-54.444"/><path class="c" d="M693.8,911.091c-5.929-10.744-16.206-18.276-26.208-25.387s-20.354-14.482-26.562-25.067-7.057-25.384,1.421-34.256"/><path class="c" d="M744.319,907.1c-32.3-23.326-69.915-41.773-92.293-74.74-4.521-6.659-8.388-14-9.475-21.974s.985-16.7,6.859-22.2,15.845-6.74,22.037-1.6"/><path class="c" d="M781.685,873.9c-27.6-15.5-57.3-34.386-80.873-55.5-10.843-9.711-28.917-24.054-32.422-38.533-2.7-11.164,4.145-24.815,15.536-26.293,7.527-.978,14.662,3.18,21.114,7.179L819.849,831.9"/><path class="c" d="M751.932,787.169c-15.087-11.7-4.09-41.116,14.377-41.617,7.028-.19,13.652,3,19.952,6.125,36.07,17.861,72.749,36.144,101.819,63.981,33.837,32.4,56.775,77.148,97.617,100.1"/><path class="d" d="M751.043,770.311c12.455,9.5,32.688,6.055,41.3-7.025"/><path class="d" d="M681.738,791.065a20.759,20.759,0,0,0,28.034-19.587"/><path class="d" d="M653.318,829.03c14.2.242,27.248-12.739,27.084-26.936"/><path class="d" d="M655.164,866.458a20.712,20.712,0,0,0,6.262-20.758"/><path class="c" d="M396.007,907.509c8.63-34.4,38.373-168.423,38.373-257.863"/><path class="d" d="M388.378,467.621c31.22,34.932,46.067,83.919,39.492,130.306"/><path class="e" d="M1013.328,560.257c-7.713-17.533-1.662-39.415,12.431-52.387s34.816-17.407,53.648-13.9c10.232,1.9,20.229,6.093,27.829,13.2s12.572,17.344,12.072,27.74c-.644,13.394-10.132,25.092-21.626,32C1072.907,581.8,1028.46,594.66,1013.328,560.257Z"/><path class="e" d="M1165.941,655.782c-2.727-3.9-2.871-9.037-2.294-13.76a54.706,54.706,0,0,1,77.615-42.857c2.609,1.229,5.38,3,5.942,5.833.679,3.417-2.158,6.434-4.773,8.737C1231.874,623.032,1179.145,674.654,1165.941,655.782Z"/><path class="c" d="M1414.227,371.57c.136,10.929-10.865,31.7-19.413,45.184a11.039,11.039,0,0,1-17.077,2.008C1250.7,293.617,1090.65,197.306,920.894,143.14c13.531-26.829,34.1-46.768,64.619-57.312,62.851,17.357,130.18,46.528,187.776,77.092"/><path class="d" d="M1134.256,259.276c-10.131,7.062-15.859,18.886-19.513,30.682s-5.695,24.134-10.62,35.459c-4.385,10.082-55.717,75.7-24.871,80.452,4.114.633,8.085-2.321,10.073-5.977s2.464-7.912,3.111-12.024a125.673,125.673,0,0,1,23.528-55.657"/><path class="d" d="M1416.116,504.911c.935,3.68,1.874,7.522,1.067,11.233s-3.94,7.211-7.735,7.089c-5-.162-7.724-5.882-8.747-10.782-4.182-20.025-2.684-46.254,4.231-65.524C1401.822,467.4,1411.223,485.65,1416.116,504.911Z"/><path class="d" d="M1181.228,283.008l-12.02,35.153c-.915,2.677-1.842,5.429-1.741,8.256s1.457,5.791,4.018,7c3.82,1.8,8.462-1.164,10.212-5.006s1.508-8.242,1.669-12.461.953-8.8,4.1-11.611"/><path class="d" d="M1286.513,367.709c-1.98,15.326-10.218,29.707-17.865,42.831-4.692,8.052-21.132,35.109-8.679,42.257,21,12.054,21.8-40.85,30.012-49.112"/></svg>