<svg id="Layer_2" data-name="Layer 2" xmlns="http://www.w3.org/2000/svg" viewBox="0 0 1476.482 911.576"><defs><style>.cls-1{opacity:0.13;}.cls-2{opacity:0.49;}.cls-3{opacity:0.24;}.cls-4{fill-opacity:0.7;}.cls-5{opacity:0.48;}.cls-6,.cls-7{fill:none;stroke:#000;stroke-linecap:round;stroke-linejoin:round;}.cls-6{stroke-width:14px;}.cls-7{stroke-width:8px;}.cls-8{fill-opacity:0.43;}.cls-9{opacity:0.69;}.cls-10{opacity:0.32;}.cls-11{opacity:0.41;}</style></defs><title>EFimage</title><path class="cls-1" d="M613.509,277.585c-.36,20.4-1.41,42.683-14.894,58-13.667,15.525-37.852,19.264-57.04,11.542s-33.344-25.232-40.409-44.671-7.7-40.684-5.652-61.266c5.376-54.085,29.947-107.048,71.567-142,33.7-28.307,78.39-43.35,122.364-39.831,40.318,3.227,77.235,5.552,105.426,39.157,21.887,26.09,23.166,55.677,26.529,87.927-17.429,6.194-36.462-46.158-43.023-57.9-21.341,32.508-55.528,47.232-92.914,50.9-7.438.729-72.37,7.21-71.6-4.651C611.584,209.766,614.122,242.8,613.509,277.585Z"/><path class="cls-2" d="M1122.464,579.66q.6-.582,1.23-1.134c-13.167-31.288,25.174-54.347,50.5-62.324-.774.244-4.211-18.933-4.726-20.474a54.188,54.188,0,0,0-43.089-36.513c3.192-12.024,6.4-19.818,2.817-32.321a58.57,58.57,0,0,0-18.446-28.839,55.668,55.668,0,0,0-42.1-12.28c-1.285-16.54-11.6-31.71-25.69-40.168-16.135-9.683-34.265-6.713-48.749,5.1-7.43-13.431-24.181-20.969-39.161-17.621s-26.929,17.3-27.934,32.617c-16.885,2.146-31.862,13.1-40.553,27.517-4.19,6.952-7.664,15.551-7.908,23.775-.078,2.629,5.267,22.6,6.071,22.08,24.973-16.083,50.3-25.016,75.943-27.35a57.571,57.571,0,0,0,11.034,24.4,58.765,58.765,0,0,0,51.541,21.75c-16.941,6.252-28.237,25.115-25.75,43s18.5,32.952,36.5,34.346c-40.993,3.626-38.433,57.4,1.269,48.771a43.968,43.968,0,0,0-27.164,67.483c-17.43,12.908-18.885,42.283-2.816,56.85s45.161,10.245,56.3-8.364c9.12,19.633,26.7,23.639,45.56,28.937-9.408-33.113-1.219-70.695,21.112-96.892-9.323-8.081-16.443-16.843-15.852-30.028A33.6,33.6,0,0,1,1122.464,579.66Z"/><path class="cls-3" d="M1008.415,716.116c21.064,7.234,35.957,1.023,50.721-13.361-2.038,1.986,14.358,16.192,16.741,17.6a35.253,35.253,0,0,0,27.807,3.682c2.583,15.659,10.042,30.02,15.275,45A165.119,165.119,0,0,1,1111,895.492c-8.876-.233-17.02,1.508-25.866,1.555-11.246.06-22.494.206-33.74.206-30.6.2-61.19.478-91.786.561q-4.9.014-9.792.015a935.4,935.4,0,0,1,23.051-92.261A568.529,568.529,0,0,1,1008.415,716.116Z"/><path class="cls-4" d="M344.926,707.41c11.478,20.6,15.424,45.452,10.21,68.491-15.107-19.49-35.956-25.257-56.567-36.747l-21.034,51.468-59.528-54.4-69.294,52.339L124.687,683.479c-1.95-8.527-59.877,38.937-64.195,44.181C20.06,776.76,15.6,831.147,7.628,890.746H449.47c5.864-64.868-26.616-117.1-69.1-162.816-14.236-15.321-33.761-23.8-48.4-38.446A93.2,93.2,0,0,1,344.926,707.41Z"/><path class="cls-5" d="M337.879,361.134c20.278,24.547,32.482,59.4,36.958,87.779,5.683,36.029,5.035,73.475,7.07,110,.709,12.709,1.4,25.651-1.72,37.993-4.805,19.032-20.961,30.662-36.9,40.429-10.948,6.71-22.969,9.579-31.182,20.363-9.59,12.592-9.8,29.125-11.05,44.2q-1.236,14.946-3.558,29.776a411.174,411.174,0,0,1-14.156,60.3c-32.155-28.2-68.555-53.787-92.243-90.128-12.435-19.079-17.256-43.108-22.629-65.071-5.952-24.328-10.458-49.346-10.271-74.475-.066,8.924-24.534,7.874-29.139,6-10.275-4.171-15.108-15.349-19.922-24.682-8.143-15.79-10.781-61.893,15.277-63.826-17.34-30.451-12.2-74.692,5.7-103.693,13.8-22.348,35.588-38.545,60.117-47.446,39.974-14.506,89.6-10.436,125.783,12.693A95.168,95.168,0,0,1,337.879,361.134Z"/><path class="cls-6" d="M770.425,302.117a160.317,160.317,0,0,0,49.847,5.346,7.021,7.021,0,0,0,4.014-1.053c2.494-1.925,1.447-5.85.15-8.722-10.954-24.248-20.947-48.555-32.1-72.764"/><path class="cls-6" d="M711.45,253.6c-5.273-7.818-6.821-17.625-6.535-27.051.331-10.847,3.08-21.929,9.736-30.5s17.67-14.188,28.4-12.537c14.492,2.23,24.465,16.888,26.227,31.445C772.81,244.174,736.5,290.75,711.45,253.6Z"/><path class="cls-6" d="M811.349,261.061c7.393-.429,9.78-3.36,13.684-9.819a62.763,62.763,0,0,0,6.14-50.438c-1.857-5.918-5.5-12.223-11.542-13.133-5.936-.894-11.3,3.873-14.86,8.857a57.753,57.753,0,0,0-10.385,27.46c-7.027.674-14.138-1.276-21.165-.6"/><path class="cls-6" d="M777.417,121.879c-7.9,50.824-103.69,79.137-160.954,53.256-1.379,40.574-2.547,91.622-5.627,132.1-.583,7.662-1.267,15.573-4.895,22.347-6.294,11.753-20.431,17.585-33.763,17.592-53,.027-85.1-48.446-81.145-96.978,5.712-70.131,38.783-137.424,102.473-172.108,82.1-44.709,219.157-19.556,225.18,87.77"/><path class="cls-6" d="M777.417,329.06c-6-.886-58.1-5-58.2-9.855.3,16.982,18.823,33.647,35.875,29.952A30.851,30.851,0,0,0,777.417,329.06Z"/><path class="cls-6" d="M571.512,348.522c-3.621,34.119-33.672,80.062-57.085,105.145-24.167,25.889-56.336,45.181-77.622,73.351-39.5,52.28-54.2,133.414-57.517,200.859"/><path class="cls-6" d="M519.587,454.129c18.52,20.227,38.689,39.434,62.714,51.23s52.571,15.446,76.874,4.324c9.326-4.267,18.034-10.845,23.327-20.128s8.888-25.817,4.127-35.426"/><path class="cls-6" d="M297.29,463.555c10.515,14.273,32.216,52.75,11.1,66.315-9.848,6.328-24.723,2.518-30.317-7.764"/><path class="cls-6" d="M333.828,550.981c-21.219,16.475-58.14,19.175-81.426,5.954"/><path class="cls-6" d="M138.786,487.194C92.89,459,99.932,554.351,125.778,567.868a27.09,27.09,0,0,0,31.642-5.6c10.053,47.393,5.82,109.051,37.462,148.525,8.963,11.181,70.976,68.846,88.042,80.435,11.738-28.657,14.97-50.4,15.471-79.83.41-24.022.064-38.367,17.812-57.148,16.776-17.744,38.769-18.235,53.727-39.837,15.83-22.866,12.649-46.045,11.207-72.09-3.543-63.956-3.221-137.968-49.771-188.639-45.812-49.867-137.21-42.71-183.912-.284-33.105,30.073-45.641,82.185-25.963,122.349"/><path class="cls-6" d="M297.137,735.313c22.874,6.561,42.028,26.207,56.713,40.891,3.2-38.537-.889-85.38-45.1-112.864"/><path class="cls-6" d="M132.992,677.375c-27.569,15.192-51.966,27.612-72.687,52.553-21.213,25.534-32.906,52.557-40.593,81.2"/><path class="cls-6" d="M340.093,695.153c36.326,27.152,72.392,62.01,91.675,103.789,14.4,31.21,15.7,61.142,20.868,94.323"/><path class="cls-6" d="M164.2,644.923C97.058,684.412,142.564,766.706,161.77,796.7c12.665-21.344,35.612-46.125,62.079-57.025"/><path class="cls-6" d="M361.475,413.732c-13.931-13.672-36.105-18.18-54.268-11.033"/><path class="cls-6" d="M248.1,406.774c-19.8-1.637-40.111,8.933-50.133,26.089"/><path class="cls-7" d="M253.464,510.743c1.423,7.831-5.193,14.979-12.357,18.448s-15.316,4.769-22.1,8.937-11.936,12.982-8.256,20.04"/><path class="cls-7" d="M357.974,545.561c-3.319-16.539-28.918-13.369-39.074-26.738"/><path d="M240.924,475.105a9.864,9.864,0,0,0,11.022-2.741c5.678-6.906-.409-23.559-10.72-20.7-10.256,2.839-9.707,18.664-.983,23.133Q240.578,474.964,240.924,475.105Z"/><path d="M343.3,464.467a17.035,17.035,0,0,0-3.014-9.943c-7.446-10.092-16.621.59-14,10.516,1.181,4.476,5.514,8.237,10.118,7.762C341.271,472.3,343.2,468.615,343.3,464.467Z"/><path class="cls-6" d="M137.263,540.56l-7.86-29.817"/><path class="cls-6" d="M926.393,696.644a109.512,109.512,0,0,0-45.362-58.662c-10.013-6.33-21.083-11.034-30.378-18.379-34.227-27.047-28.358-79.149-5.969-111.646-8.146-.081-14.656-8.262-14.747-16.408s4.95-15.664,11.425-20.608c10.2-7.785,22.291-10.21,32.9-18.1,25.729-19.119,52.526-45.726,87.591-35.86"/><path class="cls-6" d="M884.726,439.073a45.735,45.735,0,0,1,42.436-70.765c-3.488-36.071,49.612-50.606,64.571-16.668a46.51,46.51,0,0,1,76.782,32.5c19.6-3.509,40.862,5.041,52.577,21.143s13.306,38.963,3.936,56.532c3.162-5.93,28.379,8.155,31.487,11.174,10.44,10.141,15.643,28.422,16.868,42.443"/><path class="cls-6" d="M909.027,524.141c-4.465,14.385-19.282,29.213-35.069,30.184-13.933.857-31.579-10.581-31.5-25.732C853.671,533.15,889.327,536.848,909.027,524.141Z"/><path d="M926.154,457.38a15.521,15.521,0,0,0-1.065,2.586c-3.121,10.443,10.292,11,15.245,4.726,2.982-3.776,4.317-13.434-1.137-15.925C933.682,446.247,928.313,453.161,926.154,457.38Z"/><path class="cls-6" d="M962.877,380.886a57.656,57.656,0,0,0,60.367,76.991c-16.941,6.252-28.237,25.115-25.75,43s18.5,32.952,36.5,34.346c-40.993,3.626-38.433,57.4,1.269,48.771a43.968,43.968,0,0,0-27.164,67.483c-17.43,12.908-18.885,42.283-2.816,56.85s45.161,10.245,56.3-8.364c7.779,16.748,24.19,27.943,42.639,27.144"/><path class="cls-6" d="M924.212,698.693a51.945,51.945,0,0,0,38.581,24.548c15.72,1.622,31.768-3.307,42.492-14.914"/><path class="cls-6" d="M920.286,684.808A121.556,121.556,0,0,0,861.2,740.416c-13.289,26.028-10.453,48.328-11.291,75.966-.768,25.331-4.955,52.135-6.86,77.743-1.338-1.338-.174-1.252,1.164.087"/><path class="cls-6" d="M618.154,200.151,702.1,212.638"/><line class="cls-7" x1="891.468" y1="463.958" x2="891.468" y2="463.958"/><path class="cls-7" d="M909.061,483.506h-.652"/><line class="cls-7" x1="930.563" y1="486.764" x2="930.563" y2="486.764"/><path class="cls-7" d="M873.875,475.687h.652"/><path class="cls-6" d="M1008.828,715.912a723.905,723.905,0,0,0-55.567,176.576"/><path class="cls-6" d="M920.394,697.709C894.078,759.8,884.05,825.249,879.623,892"/><path class="cls-3" d="M876.531,892.218a679.322,679.322,0,0,1,45.407-200.484c-16.091-.087-31.282,8.78-41.89,20.88-20.293,23.148-28.079,55.347-31.238,85.1-.9,8.486-4.76,95.534-8.207,96.683C852.565,890.577,864.107,893.467,876.531,892.218Z"/><path class="cls-7" d="M39.6,769.468a76.311,76.311,0,0,1,40.273,30.123"/><path class="cls-7" d="M90.029,816.685a208.509,208.509,0,0,1,27.932,83.161"/><path class="cls-6" d="M734.215,583.174c-3,29.208,16.639,55.883,19.743,84.674,3.2,29.713-4.22,59.43-28.615,78.852-3.528,49.78,2.944,99.56-.585,149.34"/><path class="cls-6" d="M585.58,765.19c32.283-2.965,62.391-23.585,76.823-52.614"/><path class="cls-6" d="M787.928,894.644c-9.063-27.857-7.857-56.472-10.737-85.056-3.268-32.426-1.181-65.115.776-97.553,2.445-40.5,4.755-81.533-3.215-121.315-7.854-39.2-25.962-67.866-53.087-96.172-23.04-24.042-59-57.324-47.245-94.615,1.532-4.856,10.063-27.346,16.309-26.41,25.373,4.193,49.264,10.422,72.461-4.307,19.74-12.535,33.343-34.865,34.585-58.3"/><path class="cls-6" d="M500.374,611.971A885.84,885.84,0,0,0,481.26,899.848"/><path class="cls-7" d="M434.762,535.775c25.759,1.371,49.685,20.175,57.105,44.88"/><path class="cls-6" d="M383.54,706.345a130.083,130.083,0,0,0,96.805,12.733"/><path class="cls-6" d="M748.814,720.244c9.486-.751,17.4-1.362,26.127-5.243"/><path class="cls-8" d="M517.56,452.6c15.254,19.249,35.822,36.129,57.179,48.256s44.908,21.109,68.885,15.787,45.7-23.137,52.18-46.827c71.274,58.713,93.248,120.907,82.929,245.1-10.118.671-22.666,5.03-32.4,5.369l-21.414,26.173,3.964,150.363c-81.845,8.834-165.631,10.388-247.621,3.031-4.882-29.022-3.393-178.2-2.8-178.2-32.59-3.628-70.094,4.5-96.124-23.15,9.231-53.7,12.316-99.42,39.525-147.706,11.431-20.287,28.365-39.18,44.475-56C470.29,490.663,504.653,462.474,517.56,452.6Z"/><path class="cls-9" d="M882.661,847.787c-3.484,23.806-5.858,42.312-6.274,47.321.658-6.209,71.209-2.136,79.329-1.546,1.8-9.667.215-18.646,2.447-28.5,3.3-14.575,8.286-28.975,12.394-43.346,5.609-19.617,10.781-39.755,18.309-58.737,3.513-8.859,10.228-45.011,16.911-49.521-15.364,10.367-34.049,12.906-51.826,8.425-6.9-1.74-39.053-15.072-32.415-27.624C895.374,743.727,890.6,793.573,882.661,847.787Z"/><path class="cls-6" d="M1390.457,627.343c3.52,56.068-1.942,148.194-7.789,176.35-5.533,26.65-21.344,48.718-48.867,56.483-20.727,5.848-41.271,12.092-41.488,38.307"/><path class="cls-6" d="M1262.822,555.786c15.935,18.955,40.9,32.534,65.635,34.849,17.483,1.637,36.342-8.517,32.4-28.708a24.586,24.586,0,0,0-14.989-17.882"/><path d="M1301.873,685.872c-1.873-9.029-11.956-14.3-16.5-2.627-1.876,4.82-3.476,14.077,2.021,17.073,7.451,4.06,14.425-4.018,14.762-10.77A14.552,14.552,0,0,0,1301.873,685.872Z"/><path d="M1361.291,698.506c3.668,1.535,8.151.2,10.072-5.228,1.512-4.27,2.459-11.361.02-15.413-1.783-2.964-5.355-4.953-8.749-4.282-6.834,1.352-7.7,12.659-6.655,18.075A9.155,9.155,0,0,0,1361.291,698.506Z"/><path class="cls-6" d="M1333.908,694.818c7.2,14.127,15.311,31.759,14.008,48.019-.809,10.1-6.067,20.2-14.985,25.006s-21.434,3.014-27.319-5.235"/><path class="cls-6" d="M1280.509,572.21c-41.157-1.049-83.419,3.128-124.622,4.119-11.126.267-22.927.738-32.181,6.92-15.8,10.558-11.778,42.1,7.217,47.008,6.661,1.722,20.239-2.672,27.277-3.179,28.971-2.086,58.153-2.1,87.183-2.189,50.052-.151,101.176-1.572,151.105,2.74,6.988-18.464,3.041-35.7-5.881-53.313"/><path class="cls-6" d="M1198.554,686.42c9.741-4.87,14.434-17.885,10.044-27.851,19.682,7.926,28.689-16.331,29.8-31.092"/><path class="cls-6" d="M1280.485,804.939l29.091-3.268"/><path class="cls-6" d="M1360.856,561.927c6.513,8.851,27.766,17.08,37.112,11.3s13.726-18.08,11.156-28.764c-9.869-41.03-82.118-48.063-115.728-49.1-54.089-1.662-112.857,6.394-154.955,42.59-7.2,6.188-14.141,13.352-16.883,22.439-2.054,6.8-1.01,14.89,3.176,20.37"/><path class="cls-6" d="M1193.756,695.774c-.52-13.227-16.087-22.27-28.955-19.171s-22.071,15.087-25.721,27.81c-3.864,13.466-2.113,29.245,7.443,39.488s27.694,12.405,37.535,2.435"/><path class="cls-6" d="M1165.689,701.75l1.554,25.573.99-1.4"/><path class="cls-6" d="M1128.714,631.6c-18.172,13.958-21.814,42.485-23.5,63.862a150.143,150.143,0,0,0,13.385,75.043c19.024,40.7,14.234,91.9-12.11,128.648"/><path class="cls-6" d="M1151.418,801.037a54.9,54.9,0,0,0,16.437-43.472"/><path class="cls-10" d="M1277.755,772.73a18.26,18.26,0,0,1-1.116,3.708c-4.186,9.791-15.615,16.272-26.634,15.1s-20.675-9.886-22.5-20.314c-2.383-13.594,14.343-37.439,30.371-34.2C1271.638,739.806,1280.28,759.739,1277.755,772.73Z"/><path class="cls-10" d="M1378.66,744.541c5.194,6.037,6.252,14.714,5.09,22.593-1.342,9.09-6.194,18.545-14.864,21.586-7.495,2.629-16.392-.534-21.221-6.841s-5.7-15.179-3-22.649C1349.37,746.212,1366.029,729.864,1378.66,744.541Z"/><path class="cls-6" d="M1260.661,669.718a62.762,62.762,0,0,1,48.507-12.85"/><path class="cls-6" d="M1342.566,656.9a58.87,58.87,0,0,1,39.169,6.587"/><path class="cls-11" d="M1115,604.113c1-5.705,5.015-23.522,9.659-24.058,35.617-4.111,70.953-6.757,106.65-10.011,11.108-1.012,22.4-2.016,33.338.153,12.931,2.564,24.541,9.382,36.539,14.844s25.417,9.682,38.242,6.63,24.063-15.763,21.255-28.633c2.034,9.32,19.3,8.8,25.725,12.3,7.083,3.862,10.323,12.287,11.677,20.24a73.791,73.791,0,0,1-3.084,36.6c-28.131-10.107-54.406-7.893-83.661-7.679l-92.389.674-48.844.357a153.5,153.5,0,0,0-30.927,3.507c-10.545,2.248-14.968,6.142-21.1-4.083-3.93-6.551-4.36-12-3.257-19.739C1114.858,604.931,1114.918,604.559,1115,604.113Z"/></svg>