<svg id="Layer_2" data-name="Layer 2" xmlns="http://www.w3.org/2000/svg" viewBox="0 0 1623.018 1022.234"><defs><style>.cls-1{opacity:0.4;}.cls-2{opacity:0.7;}.cls-3,.cls-4{fill:none;stroke:#000;stroke-linecap:round;stroke-linejoin:round;}.cls-3{stroke-width:14px;}.cls-4{stroke-width:8px;}.cls-5{opacity:0.23;}.cls-6{opacity:0.13;}</style></defs><title>EFimage</title><path class="cls-1" d="M744.851,502.281c8.977,3.153,15.509,10.882,20.87,18.743a161.007,161.007,0,0,1-22.849,208.125l-45.117-79.281c-.351-.618,13.093-12.223,14.412-13.418,5.153-4.666,8.162-9.249,11.422-15.465a185.59,185.59,0,0,0,15.3-39.651c-21.009,12.2-45.26,13.615-67.882,21.181-7.73,2.585-13.839,8.454-19.422,14.507,1.959-2.125,1.191-15.118,1.758-18.489a133.55,133.55,0,0,1,4.936-19.811,139.033,139.033,0,0,1,18.388-36.392C690.271,523.062,718.062,492.87,744.851,502.281Z"/><path class="cls-2" d="M251.338,740.411c17.118-3.18,34.19-6.5,51.14-10.206a152.987,152.987,0,0,0-11.755,102.48l-39.637-5.746a120.642,120.642,0,0,0,57.681,58.3c2.166,14.171,18.8,24.142,32.316,19.375,5.912-2.084,11.07-6.724,12.942-12.707s-.013-13.184-5.094-16.857A120.61,120.61,0,0,0,363,830.293c.4-3.609-2.476-44.737-3.825-44.063,1.838-.75,28.3-10.184,28.3-10.283l1.184,78.594,77.252-28.572L464.6,903.242l72.669-21.19v57.5l72.975-18.66v59.669l75.943-17.082v38.491H17.142V585.54l68.4-16.509V646.75l95.211-17.081.117,63.548L255.927,675.6Z"/><path class="cls-3" d="M308.319,883.16c-21.447-3.773-35.949-16.473-46.9-34.479-1.945-3.2-9.986-23.6-12.61-24.2L293.158,834.7"/><path class="cls-3" d="M315.381,879.885c-.763,4.3-1.529,8.669-1.094,13.015s2.235,8.747,5.727,11.372,8.843,2.964,12.091.043c7.569-6.808,2.752-22.4-2.646-28.864"/><path class="cls-3" d="M310.429,740.646l-1.2-1.086c-8.925,2.555-16.7,6.077-25.888,7.639L249.8,752.9c-2.247.382-4.6.758-6.766.058-3.517-1.136-29.759-45.669-32.738-43.694l-13.527,9.248"/><polyline class="cls-3" points="17.142 501.117 1081.961 240.102 1081.961 991.532"/><path class="cls-3" d="M1085.161,240.1c114.155,44.521,413.66,168.457,527.815,212.978"/><polyline class="cls-3" points="17.142 585.54 85.544 569.031 85.544 646.75 180.755 629.669 180.872 693.217 255.927 675.6 251.338 740.411 317.907 728.046 317.907 795.158 387.475 775.947 388.659 854.541 465.911 825.969 464.602 903.242 537.271 882.052 537.271 939.556 610.246 920.896 610.246 980.565 686.189 963.483 686.189 1001.974"/><path class="cls-1" d="M1610.246,996.813V449.428C1434.1,378.15,1256.431,310.64,1080.284,239.362c.727,7.052.151-2.83.877,4.221v763.726c4.344,0,8.688-.047,13.032-.071h516.113ZM1414.609,735.139c0,31.453-.282,210.357-.282,210.357l-189.86-85.15v-190c0-47.74,4.282-161.962,110.227-119.105C1414.639,583.58,1416.065,697.3,1414.609,735.139Z"/><path class="cls-3" d="M1350.893,782.919c-22.77,3.043-46.429,4.024-68.46,10.895-7.391,2.305-17.333,2.2-20.719-4.765-3.649-7.5,3.476-15.564,9.911-20.877,31.242-25.793,59.015-56.791,102.012-60.283"/><path class="cls-3" d="M1406.325,769.885a40.824,40.824,0,0,1-32.993,16.469c-3.822,17.888-7,36.062-11.507,53.789-2.093,8.243-4.381,37.383-9.069,41.909l54.325-52.449"/><polyline class="cls-3" points="1225.449 851.267 1267.429 834.928 1415.154 903.242"/><path class="cls-3" d="M1267.016,770.462c.328-72.973,2.328-144.973,1.68-217.729"/><path class="cls-3" d="M1267.429,834.928q-.285-18.707-.366-37.414"/><path class="cls-3" d="M1307.1,324.942c9.62-2.66,34.4-10.08,40.719,1.88,3.184,6.03,1.98,13.336.7,20.032-5.506,28.707-9.8,57.036-16.162,85.562a86.559,86.559,0,0,1,31.473,11.121"/><path class="cls-3" d="M1319.334,207.393a169.329,169.329,0,0,0,75.274,10.081c1.974-.186,4.116-.487,5.494-1.912,2.86-2.96.345-7.8-2.2-11.04-12.3-15.671-23.98-32.237-37.088-47.237-8.816-10.087-25.8-22.469-39.49-24.061-14.914-1.735-31.638,3.643-43.953,11.8"/><path class="cls-3" d="M1398.674,363.127c9.29-.051,28-3.31,36.276,1.278,11.339,6.287,1.781,25.477.787,35.1-2.06,19.925-7.451,39.921-11.373,59.588l25.186,8.642"/><path class="cls-3" d="M1365.257,708.084a37.371,37.371,0,0,1,2.234-37.525c3.2-4.691,8.529-8.922,14.069-7.668,5.1,1.154,8.1,6.409,9.758,11.365,4.856,14.48,2.078,24.645-2.43,38.571a31.879,31.879,0,0,1,18.951-18.8"/><path class="cls-3" d="M1311.4,812.118c-15.653,6.423-20.254,10.317-34.65,19.2-3.344,2.064-6.742,4.173-9.33,7.13s-4.29,6.947-3.593,10.815c1.22,6.764,8.659,10.19,15.125,12.521L1314.1,874.46c3.477,1.254,7.068,2.577,9.72,5.153s4.1,6.777,2.412,10.065l-1.38-10.151"/><path d="M1357.1,739.7c-3.873.74-5.984,6.033-3.685,9.235s7.99,2.893,9.929-.539-.734-8.466-4.663-8.782l-2.553.146"/><path class="cls-4" d="M1341.63,713.2l-7.324-41.793"/><path class="cls-4" d="M1314.254,690.251l15.672,32.814"/><path class="cls-4" d="M1385.268,799l6.252,22.329"/><path class="cls-4" d="M1398.712,798.074l10.518,15.32"/><path class="cls-3" d="M1262.455,309.816c-13.259-23.718-7.881-53.046-2.244-79.628s10.758-56.03-2.889-79.528c-5.182-8.923-12.889-18.5-11.453-29.465,1-7.647,6.982-14.809,14.639-15.73,7.293-.878,14.338,3.877,18.338,10.038s5.564,13.542,7.054,20.735"/><path class="cls-3" d="M1219.916,295.337A466.922,466.922,0,0,0,1269.052,222"/><path class="cls-3" d="M1402.751,361.233c5.859-23.368,1.96-48.735-7.846-70.489a113.63,113.63,0,0,0-19.583-30.057c-9.739-10.637-22.565-16.665-34.9-23.855L1344.4,217"/><path d="M1324.229,158.5c3.866-.374,7.38,3.931,6.238,7.644s-6.468,5.3-9.455,2.817-2.4-8.009,1.038-9.812"/><path class="cls-4" d="M1303.306,154.3a12.927,12.927,0,0,1,14.369-8.4"/><path class="cls-4" d="M1348.305,733.983a37.628,37.628,0,0,1,25.879,3.95"/><path class="cls-3" d="M1292.429,845.426c11.073-23.97,23.765-45.662,47.974-58.587"/><path class="cls-4" d="M1369.751,238.609l5.093-18.218"/><path class="cls-4" d="M1389.078,242.77l-1.259-24.172"/><path class="cls-4" d="M1336.418,134.152l12.652-32.875"/><path class="cls-4" d="M1346.136,138.563l13.73-22.768"/><path class="cls-4" d="M1327.09,127.863l2.736-15.5"/><path class="cls-3" d="M1224.466,670.346v190l189.861,85.15s.282-178.9.282-210.357c1.456-37.836.03-151.558-79.915-183.9C1228.749,508.384,1224.466,622.606,1224.466,670.346Z"/><path class="cls-2" d="M1269.228,821.587q1.335-13.152,2.672-26.3a347.717,347.717,0,0,0,66.874-11.26c-18.159,12.869-28.683,29.611-38.438,49.047-5.434,10.826-4.389,9.83-15.353,6.486C1274.277,836.29,1267.933,834.333,1269.228,821.587Z"/><path class="cls-2" d="M1268.366,549.261c11.228-19.541,50.572-4.973,65.723.922,33.391,12.991,57.28,42.345,69.294,75.444,8,22.054,9.188,45.877,12.007,68.986A39.758,39.758,0,0,0,1390,706.756c10.072-10.62,4.489-43.736-13.876-41.508-8.225,1-13.947,9.382-14.772,17.626s2.063,16.357,4.907,24.139c-3.535-7.069-53.949,23.961-59.025,27.393-14.134,9.558-26.356,23.53-39.51,34.541V550.478Q1268.028,549.848,1268.366,549.261Z"/><path class="cls-5" d="M1270.266,547.448c-20.909,0-38.33,44.51-42.746,60.246-5.642,20.107-2.553,37.584-2.448,57.606.151,29,0,58,0,87,.732,33.329-1.694,66.468-1.694,99.628,0-5.787,41.055-15.976,45.419-17.366-8.7-58.518-.631-116.284.091-174.992C1269,650.214,1270.064,547.448,1270.266,547.448Z"/><path class="cls-3" d="M1155.23,219.806c.982-12.207,8.469-24.248,19.953-28.5s26.309,1.212,30.507,12.716c3.431,9.4-.4,19.886-5.491,28.5s-11.568,16.692-14.042,26.388.708,21.911,10.038,25.53"/><path class="cls-3" d="M501.514,380.922c-1.679-17.332-16.484-31.123-32.892-36.953s-34.3-5.27-51.7-4.64l-161.735,5.856c-31.138,1.128-92.406,13.476-113.054-18.16-9.75-14.94-5.908-36.071,5.849-49.489s29.754-19.992,47.5-21.8,35.614.632,53.363,2.427a746.338,746.338,0,0,0,207.768-8.14c12.841-2.325,26.02-5.153,36.735-12.6s18.439-20.685,15.632-33.43c-3.961-17.989-25.206-25.807-43.523-27.748-26.4-2.8-53.7.07-79.038-7.853-25.119-7.854-54.89-35.414-38.935-62.432C363.319,79.15,391.378,66.73,421.816,67.02c24.538.235,48.419,7.267,72.49,12.038,105.3,20.875,213.613-1.475,319.983-15.958,19.795-2.7,40.06-5.1,59.619-1.034s38.6,15.787,46.368,34.193c26.732,63.371-93.27,73.89-128.2,82.194-8.706,2.069-17.583,4.46-24.844,9.689s-12.667,13.936-11.55,22.815c.864,6.869,5.47,12.819,11.08,16.877,35.645,25.781,104.546,18.19,145.525,13.905,30.941-3.235,67.579-3.744,95.945-17.362,5.605-2.691,11.7-6.917,11.844-13.133.134-5.664-5.014-10.205-10.407-11.946s-11.2-1.537-16.772-2.592c-20.906-3.963-35.284-24.757-24.516-44.051,9.246-16.567,29.033-24.82,47.971-25.963s37.664,3.564,56.347,6.87a386.719,386.719,0,0,0,146.318-2.308"/><path class="cls-3" d="M1606.141,319.834l-83.074-8.97c-13.071-1.411-27.553-3.559-35.81-13.789-11.083-13.732-4.51-35.3,8.385-47.341s30.3-17.683,46.064-25.614,31.416-20.186,34.515-37.559c3.276-18.365-9.219-36.7-25.472-45.859-43.262-24.373-110.256-20.4-158.045-17.66-5.276.3-7.906.236-13.119,1.1"/><path class="cls-3" d="M268.941,352.944c-12.6,37.545-53.6,50.545-90.6,57.545-57,11-116,8-161.985,43.619"/><path class="cls-3" d="M16.1,307.735c40.245,9.754,80.245,13.754,121.659,13.377"/><path class="cls-6" d="M166.389,371.976c33.523-12.151,67.242-31.74,102.359-25.555-12.19,29.858-41.893,49.376-72.643,59.1s-63.36,11.43-95.193,16.6S36.495,436.706,12.844,458.63c-1.178-25.436-.89-51.02-1.678-76.68C65.362,383.035,113.4,391.183,166.389,371.976Z"/><ellipse class="cls-3" cx="743.315" cy="631.189" rx="95.513" ry="132.012"/><path class="cls-3" d="M685.063,734.253c17.663,8.619,39.418,6.314,56.651-3.135s30.287-25.29,39.469-42.667c30.534-57.778,16.806-128.276-19.325-181.2"/><path class="cls-6" d="M536.56,279.12c38.11-11.089,73.629-24.909,115.165-24.951,8.767-.008,17.851.49,25.655,4.484s14,12.358,12.865,21.052c-.931,7.146-6.5,13.473-5.754,20.641.649,6.22,6.122,11.075,12.086,12.955s12.384,1.387,18.616.875l93.524-7.683c-101.8,24.932-206.024,45.7-306.328,75.257-7.067-45.3-61.9-49.845-97.809-47.362l-159.1,11c-29.627,2.049-72.513,8.913-97.652-11.1-9.513-7.573-15.329-21.213-10.212-32.244,3.953-8.522,13.411-13.416,22.746-14.471s18.7,1.09,27.852,3.22c30.74,7.158,62.626,17.989,94.069,20.223,33.325,2.368,65.978-.85,99.185-.85,46.652,0,93.749-15.077,138.431-26.478C525.521,282.26,531.067,280.719,536.56,279.12Z"/><path class="cls-6" d="M1254.187,268.806a86.435,86.435,0,0,0,13.866,43.745c-15.418-5.94-91.562-25.328-93.236-41.209C1180.942,270.126,1254.187,275.367,1254.187,268.806Z"/><path class="cls-6" d="M1428.051,278.277c10.41,3.034,20.071,11.284,21.355,22.05,1.412,11.847-7.295,22.828-7.309,34.759-.014,11.993,9.032,22.5,19.778,27.831s23.008,6.485,34.953,7.558l109.545,9.834-1.429,74.649-206.583-86.5c.907.414,2.18-43.055,1.658-47.2-2.019-16.047-7.935-28.672-14.6-43.238C1398.628,278.463,1415.38,274.584,1428.051,278.277Z"/><path class="cls-3" d="M648.585,630.612c.055-6.617,3.61-12.838,8.41-17.394s10.77-7.664,16.766-10.463c22.426-10.47,47.417-12.878,68.986-25.016a133.2,133.2,0,0,1-17.1,43.052c-1.988,3.226-28.643,34.474-28.975,33.959l46.793,72.457"/><path class="cls-3" d="M708.578,669.074c14.923,2.819,34.705-2.439,49.984-3.387,2.7-.168,5.506-.32,8.023.675s4.66,3.49,4.332,6.179c-1.5,12.224-26.9,5.507-26.287,24.6"/><path class="cls-3" d="M666.781,711.438a23.2,23.2,0,0,1,25.726-8.237"/><path d="M671.233,621.385c2.637-1.881,6.987-.065,7.505,3.132s-3.037,6.293-6.133,5.341-4.3-5.511-2.071-7.865"/><path class="cls-4" d="M743.374,624.794l-8.208-17.955"/><path class="cls-4" d="M741.609,594.926l13.228,12.429"/><path class="cls-4" d="M670.508,601.141l3.69-27.176"/><path class="cls-4" d="M718.813,527.753,712.06,546.19"/><path class="cls-4" d="M739.27,534.341l-7.178,11.8"/><path class="cls-3" d="M294.212,835.144c-13.471-28.847-10.718-62.166,3.6-90.249"/><path class="cls-3" d="M348.741,903.155a17.656,17.656,0,0,0-4.871-31.186,103.22,103.22,0,0,0,19.114-83.12"/><path class="cls-3" d="M282.854,814.543a243.3,243.3,0,0,1-35.792-50.882l-12.973-.468"/><path d="M295.846,860.941c1.212-6.9-11.653-7.683-8.291.32C289.3,865.4,294.99,865.81,295.846,860.941Z"/><path class="cls-3" d="M228.136,704.091l8.98-5.684a82.994,82.994,0,0,0,12.068,22.718"/><path class="cls-4" d="M292.765,904.917l.662-24.165-.681,2.688"/><path class="cls-4" d="M267.283,893.177l11.97-18.413"/><path class="cls-5" d="M830.53,569.986c-6-18.28-15.692-32.362-29.252-45.606a86.023,86.023,0,0,0-21.97-15.625c-6.091-3.009-19.193-3.752-23.853-7.6,20.715,17.112,30.76,42.6,36.585,68.078a236.956,236.956,0,0,1,5.723,42.106c.175,3.894-2.584,39.746-1.678,40.218l35.553,18.519C839.39,637.185,841.069,602.091,830.53,569.986Z"/></svg>