<svg xmlns="http://www.w3.org/2000/svg" viewBox="0 0 1547.222 600.939"><defs><style>.a,.c{fill-opacity:0.73;}.a,.b,.d,.e,.f,.g,.h,.i,.j,.p{stroke:#000;stroke-linecap:round;stroke-linejoin:round;}.a,.b,.d,.e,.f,.g,.i,.j,.p{stroke-width:14px;}.b{fill-opacity:0.77;}.d,.h{fill:none;}.e,.l{fill-opacity:0.56;}.f{fill-opacity:0.35;}.g{fill-opacity:0.44;}.h{stroke-width:8px;}.i{fill-opacity:0.3;}.j{fill-opacity:0.76;}.k,.p{fill-opacity:0.5;}.m{fill-opacity:0.71;}.n{fill-opacity:0.18;}.o{opacity:0.11;}</style></defs><title>EFimage</title><path class="a" d="M1100.607,280.958c-5.12-3.381-12.745-14.425-12.024-20.517a17.031,17.031,0,0,1,10.859-13.7c-6.835-.956-11.562-9.191-8.942-15.576s11.77-8.924,17.306-4.8a13.583,13.583,0,1,1,21.33-1.238,19.055,19.055,0,0,1,18.707,10.8c3.175,7,1.406,22.915-4.2,28.174"/><path class="b" d="M926.278,256.224c-.187-2.009,1.01-5.822.482-7.769-2.389-8.805,2.5-17.775,7.207-25.591,1.916-3.183,4.206-6.648,7.825-7.489,5.193-1.208,9.858,3.739,11.713,8.737,5.041,13.577,5.064,22.215-2.667,34.681-2.117,3.414-.539,2.657-2.19,6.32"/><path class="c" d="M321.78,349.157c12.4-11.412,1.573-21.947,1.581-33.794.008-10.156,9.553-20.195,6.125-33.464a33.2,33.2,0,0,0-22.06-23.011,31.917,31.917,0,0,0-5.817-58.56c6.077-13.088-4.025-29.5-17.772-33.889s-28.945.631-40.89,8.726c6.769-9.451,3.126-23.782-5.938-31.061-12.572-10.1-29.823-15.9-44.693-7.01a33.573,33.573,0,0,0-16.027,28.04c-30.263-20.109-59.144,32.906-52.153,57.616-22.026,4.289-35.984,31.791-26.443,52.1-8.589,6.988-19.011,17.517-17.42,29.491A22.511,22.511,0,0,0,97.481,322.9c-17.958,10.709-27.829,38.554-8.6,53.578,5.509,4.3,19.735,7.67,25.726,4.188a31.4,31.4,0,0,0,7.684,23.02c15.673,17.658,36.023,7.948,49.8-6.467a41.406,41.406,0,0,0,60.2,10.388l58.019-58.474Z"/><path class="d" d="M610.84,260.807c51.22,10.376,102.244,22.685,153.4,33.468"/><path class="d" d="M307.383,194.771c22.251,5.967,44.274,13.209,66.441,19.452,32.217,9.073,64.941,16.071,97.864,22.148"/><path class="d" d="M13.354,230.7c34.493-15.794,74.414-28.249,113.422-36.518"/><path class="d" d="M610.94,225.869c41.6-14.945,83.581-27.923,128.407-20.389,36.045,6.059,68.375,23.709,103.6,31.145,56.639,11.957,111.479,33.254,166.787,50.015"/><path class="d" d="M1134.342,217.845a305.924,305.924,0,0,1,35.673,10.028"/><path class="d" d="M953.567,224.408c36.631-7.656,74.818-13.855,82.179-14.139a423.94,423.94,0,0,1,69.539,2.617"/><path class="d" d="M882.276,245.18c5.175-4.249,22.515-9.5,43.82-14.635"/><path class="d" d="M986.025,329.146c123.064-40.237,231.3-113.169,361.179-132.46,70.039-10.4,123.688-5.376,188.108,24.015"/><path class="d" d="M243,488.368c1.48-17.544,1.986-33.327.414-50.892"/><path class="d" d="M453.059,364.089c-57.874-10.983-104.876-3.97-162.751-14.953-22.569,29.878-51.136,48.9-66.077,83.237l173.162,23.94,56.8-89.636c.683-1.077,36.319,60.069,45.295,73.236-8.314,0-17.3-.222-25.613-.222"/><path class="d" d="M405.533,444.7c-1.178,24.932-2.357,39.864-3.536,64.8"/><path class="d" d="M442.779,392.436c10.93,17.682,17.722,31.144,31.092,47.255a527.53,527.53,0,0,0-3.026,58.842"/><path class="d" d="M206.443,501.325c18.87-12.34,46.941-7.476,60.559,10.493a40.806,40.806,0,0,1,65.952,9.99A62.09,62.09,0,0,1,426,542.627"/><path class="d" d="M321.78,349.157c12.4-11.412,1.573-21.947,1.581-33.794.008-10.156,9.553-20.195,6.125-33.464a33.2,33.2,0,0,0-22.06-23.011,31.917,31.917,0,0,0-5.817-58.56c6.077-13.088-4.026-29.5-17.772-33.889s-28.945.631-40.89,8.726c6.769-9.451,3.126-23.782-5.938-31.061-12.572-10.1-29.823-15.9-44.693-7.01a33.575,33.575,0,0,0-16.027,28.04c-30.262-20.109-59.144,32.905-52.153,57.616-22.026,4.289-35.984,31.791-26.443,52.1-8.59,6.988-19.011,17.517-17.419,29.491A22.51,22.51,0,0,0,97.48,322.9c-17.957,10.709-27.827,38.553-8.6,53.577,5.509,4.3,19.735,7.67,25.726,4.187a31.4,31.4,0,0,0,7.684,23.021c15.673,17.658,36.023,7.948,49.8-6.467a41.406,41.406,0,0,0,60.2,10.389"/><path class="d" d="M444.6,508.917l1.818-64.564-19.04,5.258c-4.343,15.824-3.5,48.682-3.5,48.682"/><path class="e" d="M428.424,353.159a27.811,27.811,0,0,1,12.2-47.379c-7.944-9.681-8.362-24.786-.964-34.891s21.924-14.269,33.552-9.62c-4.442-19.815,5.616-41.986,23.452-51.695s41.916-6.119,56.145,8.369c14.751-11.086,37.768-9.039,50.33,4.477s12.924,36.62.791,50.523c12.191,3.514,23.3,18.022,25.79,30.083,1.09,5.268-3.854,38.763-13.781,36.081a24.416,24.416,0,0,1,17.4,19.826c1.232,9.16-3.88,17.639-9.531,24.387-.857,1.024-16.119,15.455-16.522,11.269,1.863,19.353-13.753,29.122-32.084,26.1a35.717,35.717,0,0,1-24.341-16.423c-6.012,7.195-12.405,14.669-21.143,18.069s-20.477,1.054-24.4-7.464a18.8,18.8,0,0,1-11.832,7.577"/><path class="d" d="M545.621,415.83c-3.553,25.982-4.246,34.353-2.063,60.485"/><path class="d" d="M507.453,493.154c7.074-22.4,8.685-43.888,8.666-67.377"/><path class="d" d="M525.43,394.191a22.189,22.189,0,0,0,36.2-9.449,19.731,19.731,0,0,0,32.2-13.08"/><path class="f" d="M1018.982,315.423c-4.938-9.854-7.907-27.349-4.139-37.708s11.034-25.446,22.058-23.408c7.729,1.271,8.4,8.785,8.748,14.7,2.406-5.252,10.356-6.1,14.805-2.415s5.576,10.281,4.2,15.891-4.828,10.459-8.318,15.063"/><path class="e" d="M1182.522,245.18c-6.977-2.942-12.094-14.244-9.567-21.381a15.579,15.579,0,0,1,18.336-9.414c-4.421-6.688.833-16.843,8.682-18.476s16.014,3.983,18.916,11.456,1.31,16.108-2.467,23.179"/><path class="d" d="M177.813,405.774a184.644,184.644,0,0,1-5.8,86.979"/><path class="d" d="M218.554,477.619a114.58,114.58,0,0,1-6.645-55.915"/><path class="g" d="M1191.763,371.337c-15.85-33.784,12.071-75.1,50.06-69.786-7.579-18.686-.879-42.128,15.429-53.987s40.675-11.007,56.115,1.963c7.177-9.657,20.321-19.335,32.805-20.07a31.527,31.527,0,0,1,15.243,3.189c1.634.754,15.961,11.651,15.147,11.939a30.589,30.589,0,0,1,37.616,42.432,28.541,28.541,0,0,1,34.08,36.361c11.78,5.983,18.335,20.711,14.9,33.467s-16.507,22.195-29.7,21.448a26.953,26.953,0,0,1-29.16,43.2c3.1,16.046-5.623,33.638-20.267,40.89s-33.922,3.525-44.807-8.663c-5.446,12.383-20.076,19.962-33.332,17.268-13.69-2.781-22.664-15.084-24.146-28.413-27.139,25.888-72.651,9.681-68.1-30.448-10.725,6.5-26.5,2.181-32.429-8.867S1180.419,376.679,1191.763,371.337Z"/><path class="d" d="M1309.282,472.928a181.577,181.577,0,0,1-10.512,69.957"/><path class="d" d="M1342.649,463.5c-3.208,20.488-.062,51.926,8.9,70.627"/><path class="h" d="M1257.132,431.759l-.85,55.87"/><path class="d" d="M1240.932,500.778c-1.246,6.906,1,14.38,7.8,17.452,7.628,3.445,17.551-.987,20.746-8.723,5.42-13.125-6.163-28.015-19.616-21.567C1245.066,490.239,1241.914,495.332,1240.932,500.778Z"/><path class="e" d="M830.715,229.787c-4.357-6.622-.127-17.042,7.613-18.753s15.968,5.956,14.808,13.8c.052-4.52,5.216-7.9,9.622-6.882s7.485,5.451,7.833,9.959-1.618,8.944-4.437,12.479"/><path class="e" d="M777.759,210.176c2.211-7.833,11.886-12.58,19.434-9.537s11.224,13.174,7.384,20.35"/><path class="e" d="M972.052,269.706c.1-6.336.248-12.915,3.06-18.593s9.11-10.164,15.29-8.763c6.339,1.437,10.078,8.511,9.944,15.011-.159,7.694-3.35,15.034-6.713,21.76"/><path class="i" d="M339.354,201.159c-1.128-5.585-2.216-11.6.113-16.8s9.61-8.48,13.928-4.761a10.1,10.1,0,0,1,19.274-5.863c5.7-3.664,13.963.087,16.853,6.221,3.734,7.926-4.06,28.465-9.453,34.3"/><path class="e" d="M426.825,225.305c-1.639-4.158-2.835-8.611-2.429-13.063s2.641-8.915,6.531-11.117,9.453-1.52,12.061,2.11c-2.84-6.183,1.958-14.109,8.593-15.619s13.72,2.484,17.129,8.372,3.61,13.2,2.013,19.818-4.837,12.7-8.045,18.7"/><polyline class="d" points="344.472 496.621 347.385 467.972 379.092 472.643 377.245 489.622"/><polyline class="d" points="271.958 486.783 274.366 459.28 305.719 463.209 304.098 482.591"/><path class="d" d="M529.845,494.654a38.672,38.672,0,0,1,65.832-8.609,20.659,20.659,0,0,1,37.035,7.714"/><path class="e" d="M29.821,220.968c-4.188-12.769,2.046-28.119,13.95-34.353,2.2-4.757,5.253-9.284,9.61-12.2s10.192-3.976,14.941-1.754c5.079,2.375,8,8.007,8.655,13.576s-.591,11.165-1.826,16.634"/><path class="d" d="M1342.8,545.468a33.8,33.8,0,0,1,52.227-10.322,31.469,31.469,0,0,1,45.011-17.653"/><path class="d" d="M688.558,332.259A422.1,422.1,0,0,0,749.4,343.973c18.185,2.135,37.3.679,55.1,4.629a19.872,19.872,0,0,1,35.043-7.926c2.3-5.233,5.483-10.48,10.6-13.032s12.5-1.175,14.757,4.077c1.9-5.936,10.32-7.594,15.657-4.373s7.974,9.534,9.247,15.636c10.383,0,20.723.55,33.97-1.464"/><path class="j" d="M744.962,287.61c-3.906-5.812-4.241-16.83-.834-22.949a19.528,19.528,0,0,1,17.4-9.794c-1.939-6.794,4-14.222,11.014-15.036s13.916,3.948,16.976,10.316,2.777,13.936.724,20.7-5.736,16.891-9.383,22.942"/><path class="d" d="M86.081,565.754a41.177,41.177,0,0,1,32.8-30.354,41.177,41.177,0,0,1,40.564,18.747,37.2,37.2,0,0,1,66.971,14.484"/><path class="d" d="M100.632,465.553a41.087,41.087,0,0,1,58.241-.13,24.847,24.847,0,0,1,19.7-9.629"/><path class="k" d="M245.527,449.067c.071-2.734.264-5.761,2.215-7.677,2.328-2.287,6.074-1.985,9.306-1.526L401.742,460.4l-5.05,52.047-21-4.319c4.162-9.59,5.426-21.247-.035-30.162s-19.189-12.751-26.821-5.606l-7.94,42.348a137.221,137.221,0,0,1-38.029-17.616L299.811,463.4c-9.88-5.283-22.7,2.162-27.225,12.409s-3.135,22.015-1.656,33.12c-8.565-4.918-21.868-9.363-25.582-19.345C241.234,478.53,245.225,460.688,245.527,449.067Z"/><path class="d" d="M1065.717,274.778c3.747-1.659,7.29-3.534,11.4-4.055,6.55-.831,12.311,4.435,13.744,10.581"/><path class="l" d="M1070.216,271.862l15.451.451a2.355,2.355,0,0,1,2.756,2.367l3.125,13.739L1077.8,292.59c-2.5.759-9.888,4.466-12.2,2.875C1061.315,292.515,1069.044,275.78,1070.216,271.862Z"/><path class="d" d="M1251.73,401.145c3.756,10.925,11.433,21.036,22.242,25.115s24.715.594,30.365-9.483c2.949,16.147,19.137,26.856,35.2,24.93a32.242,32.242,0,0,0,25.258-18.86"/><path class="m" d="M1301.2,540.7a44.745,44.745,0,0,0,34.543,4.83c5.615-1.535,11.527-4.933,12.725-10.629.579-2.754-.057-5.6-.656-8.348a328.709,328.709,0,0,1-7.506-67.345c.031,4.118-17.467,9.913-20.584,10.827-9.915,2.905-9.165,3.714-9.453,14.369A215.9,215.9,0,0,1,1301.2,540.7Z"/><path class="m" d="M509.058,494.9c4.154-1.612,8.809.9,13.23.345,8.451-1.07,12.041-12.215,20.082-15.026a262.643,262.643,0,0,1,1.1-64.173c-7.118,4.088-15.452,3.51-22.287,6.758-6.125,2.911-4.957,12.911-5.847,20.263L512.146,469.4C511.8,472.231,510.937,494.171,509.058,494.9Z"/><path class="m" d="M172.319,496.64c7.488-2.31,14.612,4.651,22.391,5.6,12.129,1.478,22.283-11.724,34.453-10.642a223.149,223.149,0,0,1-16.478-78.075c-4.859-1.092-26.068-8.913-29.766-5.708s-.568,21.959-.743,27.011A253.758,253.758,0,0,1,172.319,496.64Z"/><path class="m" d="M452.074,405.921c-2.9-4.315-5.893-8.89-6.286-14.074-.575-7.581,4.469-14.308,9.244-20.225,12.465,23.38,27.322,45,41.467,67.307l-18.218.418c-6.531.15-9.621-8.738-12.848-13.541Q458.752,415.866,452.074,405.921Z"/><path class="n" d="M439.56,393.7c7.73,16.047,26.176,25.745,31.274,42.812,1.8,6.019,1.725,12.416,1.638,18.7-.2,14.718-1.669,29.105-2.555,43.822Q440.21,511.186,411.44,525.48c-1.876-4.726-6.072-7.741-8.033-12.2-1.7-3.86-1.212-9.071-.865-13.118q1.386-16.125,2.77-32.251c.565-6.576-.753-14.822,1.117-21.138,2.588-8.738,10.53-17.529,15.4-25.181Z"/><path class="d" d="M510.066,128.977c-21.081-6.789-39.994-18.923-60.324-27.71a202.912,202.912,0,0,0-75.756-16.555c-12.56-.281-28.414-1.464-32.686-13.279-3.582-9.906,4.382-20.436,13.452-25.794,27.231-16.088,61.459-5.227,92.786-.87,39.794,5.535,80.149-.36,120.231-3.11s81.975-1.991,118.1,15.587c12.843,6.248,26.19,17.583,24.4,31.753-1.131,8.986-8.436,16.23-16.733,19.862s-17.541,4.3-26.577,4.919c-27.609,1.89-61.608-1.018-87.909,7.8C554.794,129.709,536.541,138.905,510.066,128.977Z"/><path class="d" d="M925.764,104.208c-27.427-8.167-30.037-40.792.243-47.124,14.272-2.984,32.582,3.856,47.188,4.292a225.453,225.453,0,0,0,56.079-5.344c15.805-3.551,31.225-8.807,47.192-11.543,24.739-4.238,50.857-3.862,75.221,2.445,11.755,3.042,20.739,10.138,33.33,11.267,11.9,1.066,24.028-1.007,35.527-3.946,20.811-5.319,42.119-13.127,63.194-8.98,22.817,4.49,42.288,22.6,65.542,22.375,8.949-.086,17.637-2.949,26.542-3.84s18.916.7,24.63,7.588c9.272,11.178-1.693,25.467-12.709,28.835-17.4,5.322-36.842,2.989-54.687,6.133-18.923,3.333-37.081,5.917-56.55,5.342-14.2-.419-28.337-5.27-42.884-5.8a156.36,156.36,0,0,0-49.922,6.24c-21.934,6.483-37.331,4.785-59.547,1.448a566.355,566.355,0,0,0-82.81-6.275C1003.291,107.236,962.9,115.266,925.764,104.208Z"/><path class="d" d="M1533.534,152.824c-25.465-12.934-61.388-1.741-89.447-6.783-9.152-1.645-19.427-4.89-23.106-13.429-3.248-7.54.283-16.674,6.4-22.148s14.277-8.007,22.269-9.9c27.748-6.521,55.634-6.8,83.546-11.479"/><path class="d" d="M178.333,146.173c-27.522-17.217-47.571-3.237-75.255-.263-16.52,1.774-38.46-1.394-50.926-13.336-6.83-6.542-10.3-17.631-5.323-25.675,3.18-5.138,8.959-7.959,14.434-10.517C92.275,81.9,124.27,67.155,158.453,65.4c27.594-1.417,54.827,5.748,81.528,12.852l86.343,22.974c5.916,1.574,12.239,3.4,16.1,8.155,7.735,9.525.068,24.875-11.206,29.719-13.236,5.687-27.957,1.331-41.693,2.672-15.219,1.485-30.6,3.726-46.09,4.741"/><path class="o" d="M111.523,140.9c-22.2,2.723-46.953,3.585-64.42-10.383A315.616,315.616,0,0,1,135.42,109.5c67.052-5.989,134.037,9.577,199.006,27.21l-92.417,14.4a40.1,40.1,0,0,0-53.063-13.992c-10.231,5.459-9.114,7.033-20.337,3.89C149.838,135.748,130.523,138.566,111.523,140.9Z"/><path class="o" d="M439.181,93.67c22.009,8.488,42.248,21.692,65.139,27.388,26.99,6.717,55.352,2.461,82.833-1.826l93.22-14.541c13.141-2.05,29.352-7.088,30.937-20.293-10.553,11.537-28.581,12.12-43.887,8.928s-30.381-9.318-45.976-8.191c-14.56,1.052-27.937,8.346-42.289,11.015-29,5.392-57.606-8.368-85.694-17.382a276.581,276.581,0,0,0-119.933-10.7c-4,.522-21.768.407-19.627,7.835,1.259,4.365,20.7,3.751,24.927,4.243C399.349,82.529,419.84,86.211,439.181,93.67Z"/><path class="o" d="M989,111.223c.823-.012,1.7-.027,2.63-.054,28.455-.825,55.443-8.044,84.284-5.158,28.043,2.806,55.5,12.311,83.658,11.068,20.125-.889,39.664-7.256,59.756-8.713,20.713-1.5,41.4,2.247,62.132,3.529,11.394.706,22.978.628,34.235-1.464,9.291-1.726,17.669-5.721,27.117-6.277,21.1-1.242,40.415-5.121,59.106-15.746-15.347,8.724-34.437,7.338-51.576,3.106s-33.777-11.061-51.37-12.529c-25.409-2.119-50.331,7.094-75.747,9.121-29.6,2.36-58.963-5.051-88.282-9.732-60.362-9.638-119.672,13.506-180.471,5.566-6.814-.891-28.176-8.605-33.738-2.709-11.213,11.885,20.957,27.794,28.227,30.754-24.379,3.5-49.349,6.99-73.467,2-10.265-2.123-20.239-5.764-30.666-6.834s-21.868.883-29.223,8.35c26.877,3.459,51.525,16.5,77.8,23.12,16.513,4.162,34.795,5.357,51.228.172,12.184-3.845,19.366-10,26.981-19.816C977.713,111.11,980.777,111.34,989,111.223Z"/><path class="o" d="M1467.941,148.24c-10.145.753-20.676,1.624-30.324-2.535-7.874-3.393-14.33-19.126-18.865-20.683,37.888,13,82.117-9.367,120.17-1.683-1.322,10.6.356,16.205-.966,26.808C1519.64,144.174,1487.154,146.814,1467.941,148.24Z"/><path class="d" d="M969.826,114.9c-7.424,16.895-26.326,26.416-44.72,27.909s-36.613-3.613-54.362-8.67l-44.722-12.742c-3.63-1.034-7.453-2.183-10.017-4.953-3.273-3.534-3.671-9.087-1.9-13.567s5.372-8.009,9.311-10.781c21.187-14.907,49.952-9.829,75.224-4.13"/><path class="d" d="M113.65,299.923a19.716,19.716,0,0,0,15.294,34.223,24.021,24.021,0,0,0,38.3,26.4c3.114,12.126,15.1,21.36,27.624,21.274s24.382-9.482,27.331-21.649"/><path class="d" d="M1009.876,467.491a37.7,37.7,0,0,1,63.01,2.777,39.123,39.123,0,0,1,67.839,6.915,37.588,37.588,0,0,1,59.97-28.652"/><path class="p" d="M361.761,350.256l-.146-37.214a126.821,126.821,0,0,0,34.088,2.891c1.4,13.071-.2,26.141,1.2,39.212"/></svg>