<svg xmlns="http://www.w3.org/2000/svg" viewBox="0 0 1677.217 862.608"><defs><style>.a{opacity:0.16;}.b{opacity:0.44;}.c,.d{fill:none;stroke:#000;stroke-linecap:round;stroke-linejoin:round;}.c{stroke-width:12.716px;}.d{stroke-width:7.266px;}</style></defs><title>EFimage</title><path class="a" d="M1228.139,506c3.1-3.709,37.684-49.855,31.641-52.455,34.994,15.053,82.162-14.275,105.577-44.324,6.445,42.615,83.149,87.239,134.869,87.239,1.965-.944-9.9,56.358-11.278,61.354a365.055,365.055,0,0,1-22.2,59.666c-16.075,33.843-35.836,71.418-69.088,90.9-30.566,17.911-68.577,23.319-102.683,13.284l-30.635,67.085c0,1.212-68.982-2.139-76.146-2.457,3.077-15.611,8.344-30.421,11.241-46.127a220.977,220.977,0,0,0,2.94-50.458c-1.33-28.164-6.652-55.961-11.309-83.768C1188,587.6,1185.3,568.2,1192,550.847c5.759-14.93,17.75-25.4,28.6-36.577C1223.212,511.578,1225.76,508.844,1228.139,506ZM1421,565.55a45.25,45.25,0,0,0,40.863-23.361,46.987,46.987,0,0,0-38.328-23.553,46.3,46.3,0,0,0-23.168,5.309c-4.816,2.511-17.02,9.925-17.244,16.164-.221,6.175,10.363,14.539,14.818,17.59A44.412,44.412,0,0,0,1421,565.55Zm-149-15.559a68.185,68.185,0,0,0,47.269,1.671c7.115-2.378,14.6-6.943,15.908-14.33.675-3.8-.462-7.726-2.234-11.157-6.692-12.96-21.966-19.716-36.549-20.029-11.3-.242-36.462,2.447-43.62,12.989C1244.128,531.87,1261.987,545.837,1272,549.991Zm86.523,127.07c5.776-.7,15.987-2.17,17.213-9.345,1.262-7.4-8.8-15.869-14.128-19.377-9.926-6.537-22.138-8.867-34.023-8.772-10.265.083-20.75,1.962-29.559,7.231s-15.733,14.3-16.75,24.511c-.328,3.3.209,7.132,2.953,9,2.04,1.387,4.708,1.281,7.17,1.123C1313.659,680,1336.386,679.76,1358.524,677.061Z"/><path class="a" d="M1509.979,777.573h88.694l-1.915-77.221c-21.355,1.23-47.556,6.155-57.966,0C1504.8,720.564,1507.348,763.466,1509.979,777.573Z"/><path class="a" d="M862.71,687.976c-13.918-8.947-33.613-22.44-31.41-40.961,2.312-19.436,12.591-37.215,25.551-51.535,10.106-11.167,21.917-20.605,34-29.526,26.647-19.67,51.625-42.1,77.123-63.339,10.737-11.072,24.413-20.332,36.275-30.21l37.818-31.5,37.046-30.854c8.306-6.917,15.678-13.358,22.9-21.429l23.824-26.64c5.068-5.667,10.188-11.382,16.349-15.835s13.534-7.607,21.135-7.456c7.165.143,13.79,3.186,19.781,6.892,5.758,3.563,10.86,5.444,16.823,8.364,13.16,6.445,24.311,16.584,33.889,27.534,4.027,4.6,8.062,11.081,5.015,16.384-2.481,4.316-8.706,5.147-13.26,3.137s-7.818-6.069-10.9-9.98c-25.371,17.093-50.739,34.326-74.261,53.934-10.267,8.559-23.326,17.583-29.391,29.55a359.857,359.857,0,0,1-23.624,39.455c-10.9,16.035-22.714,31.424-34.52,46.8-22.542,29.355-45.714,59.3-76.791,79.4-1.272.851,2.625,8.42,2.943,9.518a43.865,43.865,0,0,1,1.131,14.728c-.7,10.75-4.421,21.194-9.765,30.488-7.479,13.01-18.737,24.5-33.038,29.042-21.652,6.883-40.749-7.4-54.889-22.37C876.764,695.537,869.683,692.459,862.71,687.976Z"/><path class="b" d="M880.39,786.137l-89.907,1.349a193.85,193.85,0,0,1,74.781-65.748l-32.058-2.433a204.94,204.94,0,0,0,34.715-31.486c-1.349,1.541,21.961,21.449,24.234,23.211,7.464,5.784,17.2,11.16,25.722,15.273-2-.966-13.653,9.354-15.458,10.832a39.573,39.573,0,0,0-9.827,11.267C885.664,759.984,881.054,772.549,880.39,786.137Z"/><path class="b" d="M980.73,784.394c11.013-3.365,24.96,1.138,36.45-.122a195.267,195.267,0,0,1,21.7-1.15H1185.8c10.97-17.754,13.345-39.2,15.908-59.91,4.122-33.3-3.335-66.782-7.563-100.072-3.377-26.592-9.178-52.814-.712-78.633,8.474-25.845,41.936-39.032,55.336-62.2,2.926-5.06,10.623-24.969,3.061-29.687,67.512,11.634,104.562-28.346,113.526-43.4,2.607,27.527,66.633,82.467,133.8,89.3-3.466,57.667-16.779,121.319-53.372,166.021-45.15,55.155-93.225,72.84-149.423,59.455-12.081,24.261-22.519,42.539-34.6,66.8,14.472.017,172.065-4.238,172.641-.331a86.126,86.126,0,0,1,20.888-69.026c15.952-17.73,43.122-31.517,67.037-26.477,14.248,3,27.442,6.76,42.188,7.137,15.059.385,31.091-4.464,45.651-2.865V525c-.759-7.7-1.2-15.429-1.96-23.127a64.418,64.418,0,0,1-42.026-18.466c-9.12-8.935-21.223-24.572-18.848-38.1-.654,3.727-27.078-11.3-29.065-14.288,4.678,7.034-19.6,23.965-26.784,5.972-2.709-6.787-.092-14.93,5.161-20.01,13.254-12.817,33.844-7.26,48.16.613q-3.744-13.462-7.5-26.923c.054.2-24.358,6.325-27.306,5.5-4.272-1.189-8.952-5.984-8.492-10.879.853-9.073,25.605-10.674,32.357-11.753-9.409-17.944-39.552-30.477-59.1-35.805s-40.255-4.6-60.35-2c-41.561-37.352-103.434-50.528-156.608-33.351-14.749,4.764-28.686,11.63-42.511,18.559-6.8,3.408-13.582,6.851-20.464,10.087-6.674,3.138-12.828,4.259-19.707,6.511,1.992,6.618,9.523,11.8,16.17,12.743,7.379,1.05,14.1-1.078,21.03,3.542,6.286,4.187,8.9,14.491,3.013,19.22a62.357,62.357,0,0,1,21.617,11.047c4.925,4.012,7.806,12.2,3.1,16.466-5.613,5.084-22.446-9.331-29.741-11.365-10.431-2.908-12.712,11.356-22.056,16.829-16.409,9.611-32.914,19.29-47.385,31.628-58.087,49.526-76.666,135.456-137.907,181.024,35.229,11.382,56.39,52.241,49.947,88.7S1016.137,773.577,980.73,784.394Z"/><path class="c" d="M1137.669,497.674c22.771-22.6,49.437-44.9,81.432-47.3,14.885-1.117,30.53,1.527,45.221,3.479a105.588,105.588,0,0,0,101.035-44.63"/><path class="c" d="M1365.357,409.219c17.765,51.418,77.374,74.087,100.025,80.844,21.149,6.309,43.833,6.215,64.5,15.048,17.813,7.612,33.879,21.762,38.908,40.469,4.1,15.27.542,31.767,4.358,47.112,4.9,19.72,22.9,35.472,43.1,37.721"/><path class="c" d="M1258.754,456.177c-12.649,40.286-62.029,69.479-82.782,105.289-9.483,16.362-16.059,34.573-15.667,53.619.456,22.122,6.877,43.711,6.6,65.89-.621,50.142-35.779,93.089-47.078,141.946"/><path class="c" d="M1259.768,716.6c70.206,28.6,147.018,4.089,189.435-58.16,33.475-49.126,42.562-101.542,52.677-160.122"/><path class="c" d="M1286.571,555.906c19.638,4.592,38.543-1.243,51.733-20.129-4.681-12.614-13.511-21.249-20.531-25.23-15.874-9-49.193-15.934-68.556,11.429C1254.416,541.92,1273.289,552.8,1286.571,555.906Z"/><path class="c" d="M1292.521,528.917l.661.661"/><path class="c" d="M1422.5,540.9l.661,1.322"/><path class="c" d="M1422.153,568.754a46.161,46.161,0,0,0,40.99-23.6,47.609,47.609,0,0,0-39.043-28.909,41.665,41.665,0,0,0-40.862,23.67C1386.475,555.237,1407.769,568.34,1422.153,568.754Z"/><path class="c" d="M1313.851,610.489c15.386-2.132,29.367,11.653,44.856,10.494,7.177-.537,14.266-4.293,21.259-2.587"/><path class="c" d="M1302.581,646.627c-11.7,5.581-20.918,18.152-18.89,30.956l87.87.436a30.51,30.51,0,0,0-5.949-24.792C1352.563,636.87,1319.666,638.477,1302.581,646.627Z"/><path class="d" d="M1336.257,643.936a107.712,107.712,0,0,1-4.8,31.049"/><path class="d" d="M1311.926,644.643l-5.653,29.014"/><path class="d" d="M1361.434,651.9l-5.452,25.084"/><path class="d" d="M1245.509,563.829a57.217,57.217,0,0,0,48.977,22.985"/><path class="d" d="M1235.658,578.505a41.934,41.934,0,0,0,27.118,15.841"/><path class="d" d="M1405,589.591c12.611,9.063,31.129,8.831,43.51-.544"/><path class="d" d="M1418.688,609.189a38.857,38.857,0,0,0,26.6-1.436"/><path class="c" d="M1286.571,456.185a98.6,98.6,0,0,1,57.551,17.808"/><path class="c" d="M1377.191,482.136a115.875,115.875,0,0,1,46.885-7.658"/><path class="c" d="M1513.416,615.553c2.763,17.31,6.164,35.091,14.659,50.633,7.059,12.915,21.2,31.173,35.209,36.6"/><path class="c" d="M1069.979,328.981a173.788,173.788,0,0,0,106.827,30.56c14.765-.734,29.41-3.366,44.191-3.607s30.157,2.147,42.369,10.478"/><path class="c" d="M1220.454,285.159c38.832,3.533,74.636,30.316,88.993,66.569"/><path class="c" d="M1242.984,396.914c.718-6.864-6.579-18.087-12.791-21.094s-13.331-3.357-20.227-3.652c7.1-1.628,13.379-1.774,12.038-7.823-.929-4.2-5.088-6.8-9.067-8.426a52.2,52.2,0,0,0-33.754-1.842l9.344-1.286c-7.667-12.163-25.4-14.387-38.649-8.814-21.9,9.21-31.657,31.74-48.753,46.249-22.927,19.459-46.326,38.39-69.481,57.578L892.678,562.961C869.7,582.005,845.8,602.3,835.07,630.15c-3.2,8.311-5.1,17.626-2.314,26.083,3.871,11.735,15.453,18.755,25.373,26.122,14.418,10.709,26.739,23.987,40.77,35.2s30.554,20.557,48.5,21.3c16.81.7,31.847-4.1,45.972-13.236"/><path class="c" d="M960.782,645.308c46-19.411,78.382-61.155,105.389-103.149,21.32-33.15,40.87-67.89,67.4-97.3,12.253-13.583,21.65-15.369,36.886-22.861,16.35-8.041,24.881-24.3,39.853-32.8,3.04-1.726,6.87.563,8.985,3.347s6.273,8.456,6.5,10.408"/><path class="c" d="M1556.453,374.749c7.522-2.284,20.606,9.564,27.616,12.446,9.9,4.07,19.745,6.9,25.521,16.763"/><path class="c" d="M1008.317,332.794a22.847,22.847,0,0,0-6.14,41.966c16,9.3,27.377,10.641,32.146,31.395,4.046,17.612-1.174,36.345,1.267,54.2,1.844,13.491,9.526,23.363,24.335,23.463A27.421,27.421,0,0,0,1082.4,472"/><path class="c" d="M925.5,477.942c13.222-4.317,27.553-8.649,40.758-4.281,8.218,2.717,15.087,8.616,20.385,15.461s9.183,14.655,13.034,22.406"/><path class="c" d="M737.039,521.615c14.518,5.189,30.689,2.91,45.406-1.684s28.7-11.409,43.582-15.433c10.989-2.971,23.2-4.264,33.367.855,11.334,5.707,17.535,17.9,25.7,27.613a76.628,76.628,0,0,0,61.134,26.811"/><path class="c" d="M653.524,578.423c3.9-11.733,17.27-18.307,29.621-17.772s23.738,6.713,33.93,13.709,19.821,15.022,31.086,20.114,24.865,6.885,35.786,1.092"/><path class="c" d="M567.247,459.185a103.872,103.872,0,0,1,69.963-7.946c9.766,2.35,20.308,7.283,23.316,16.867,1.653,5.27.761,11.334,3.62,16.06,5.784,9.561,22.079,6.909,28.593,15.988,4.131,5.758,2.539,13.892,5.4,20.375,2.49,5.638,7.994,9.3,11.558,14.33,5.891,8.312,5.887,19.28,5.813,29.468-.145,20.233.425,40.943,7.62,59.853s22.248,35.959,42,40.358"/><path class="c" d="M553,391.905c13.189,1.321,25.845-6.026,35.333-15.282s16.793-20.53,26.054-30.014,21.42-17.393,34.67-17.037c10.529.284,20.8,5.757,31.173,3.952,11.337-1.971,19.459-12,30.035-16.532,9.179-3.934,19.628-3.481,29.5-1.949s19.65,4.075,29.636,4.1,20.561-2.885,27.087-10.444,7.245-20.439-.319-26.959"/><path class="c" d="M757.873,429.6c17.156-12.5,41-12.433,60.935-5.133s36.865,20.841,53.4,34.156"/><path class="c" d="M856.657,346.119c-7.547,20.116,1.041,43.444,15.787,59.068s34.682,25.123,54.2,34.112"/><path class="c" d="M890.46,282.086a62.148,62.148,0,0,1,35.5,39.265c4.059,13.706,3.228,28.468,7.047,42.243s14.918,27.533,29.195,26.838"/><path class="c" d="M751.792,151.17a26.3,26.3,0,0,0,17.56,13.1c10.74,2.231,22.716-4.278,33.464-5.884a177.148,177.148,0,0,1,38.192-1.56c13.3.906,27.823,4.088,35.818,14.759,8.076,10.778,7.823,27.178,18.509,35.377,7.079,5.431,16.838,5.457,25.068,8.9,9.663,4.045,16.672,12.555,22.619,21.178s11.395,17.845,19.455,24.535,19.634,10.4,29.172,6.071"/><path class="c" d="M990.54,166.063c17.512-6.538,35.524-13.167,54.214-12.935s38.489,8.874,46.6,25.713c2.7,5.612,4.056,11.939,7.77,16.94,9.528,12.826,31.252,12.9,38.518,27.13,5.355,10.486-.068,22.964-.8,34.715a43.782,43.782,0,0,0,22.322,40.292"/><path class="c" d="M1096.069,283.794c-11.338-8.112-11.806-25.472-5.743-38.025s16.9-22.006,25.77-32.763,16.154-24.614,12.96-38.183c-2.207-9.375-9.11-17.087-11.492-26.419-2.123-8.311-.468-17.086-1.1-25.64s-4.824-18.068-13.148-20.138"/><path class="c" d="M1111.4,318.214c12.2-11.008,31.216-9.732,46.747-4.355s30.07,14.176,46.354,16.407c9.349,1.282,18.9.327,28.245,1.657,18.154,2.583,27.826,17.123,30.616,34.489"/><path class="c" d="M565.754,697.564c6.762,12.12,22.8,15.7,36.6,14.22s27.106-6.694,40.981-7.02c17.468-.41,34.184,6.959,49.288,15.743s29.391,19.174,45.551,25.818,35.041,9.183,50.9,1.846"/><path class="c" d="M346.462,713.494c7.8,12.514,24.011,16.957,38.755,17.117s29.563-2.878,44.155-.758c41.422,6.019,67.485,50.373,107.681,62.047"/><path class="c" d="M297.62,645.61c24.064,17.33,59.689,16.36,82.775-2.253,5.9-4.753,11.468-10.726,18.923-12.056,5.091-.909,10.294.533,15.465.468,11.2-.142,21.02-7.2,31.771-10.349,11.258-3.3,23.29-2.235,34.92-3.774s24.09-6.835,28.506-17.7"/><path class="c" d="M383.639,580.542c22.356-.705,41.639,15.151,56.75,31.642s29.393,35.242,50.1,43.7c24.062,9.829,52.03,3.7,76.764,11.685"/><path class="c" d="M514.338,510.5c2.1,4.6,7.2,7.175,12.205,7.946s10.1.1,15.161.1a58.551,58.551,0,0,1,49.7,28.65c7.848,13.568,9.806,29.65,15.008,44.436a106.783,106.783,0,0,0,65.241,64.614"/><path class="c" d="M338.379,465.371c2.172,11.106,11.634,19.3,21.41,25s20.588,9.963,28.881,17.663c9.558,8.874,15.474,22.033,27.226,27.69,21.1,10.154,45.092-6.131,66.811-3.932,21.96,2.223,49.871,18.383,56.815,40.577"/><path class="c" d="M363.2,402.416c15.194-10.105,36.731-9.509,51.342,1.422,13.811,10.332,20.528,27.69,32.959,39.646,10.3,9.911,23.889,15.525,37.129,20.919,12.073,4.918,26.195,9.755,37.576,3.4"/><path class="c" d="M462.89,348.708a72.555,72.555,0,0,0,54.02-33.194c9.327-14.885,13.469-33.558,26.893-44.886,9.89-8.346,23.258-11.221,36.149-12.348s26.014-.807,38.561-3.974c11.926-3.01,23.311-9.152,35.61-9.026,12.666.129,24.154,6.861,35.826,11.784s25.787,7.931,36.48,1.141"/><path class="c" d="M575.874,176.05a84.4,84.4,0,0,0,65.171,11.627c9.779-2.31,19.094-6.377,28.939-8.385S690.789,177.6,699,183.4c8.816,6.225,12.47,16.891,19.771,24.483,6.4,6.658,18.518,12.349,27.25,15.231,11.811,3.9,24.6,4,36.916,2.281"/><path class="c" d="M253.484,242.693a59.889,59.889,0,0,0,51.832,18.561c14.98-2.157,30.05-10.05,44.5-5.556,11.043,3.434,18.683,13.315,28.45,19.506,9.95,6.306,21.907,8.646,32.329,14.136,8.088,4.261,15.066,10.317,22.606,15.485s16.063,9.572,25.2,9.8,18.9-4.746,21.825-13.406"/><path class="c" d="M200.989,373.011a100.072,100.072,0,0,1,113.7,40.773"/><path class="c" d="M201.211,488.683a40.237,40.237,0,0,0,38.011,14.692c12.557-2.22,24.549-10.516,37.008-7.794,6.556,1.432,12.03,5.745,17.689,9.352s12.338,6.687,18.888,5.23"/><path class="c" d="M188.759,572.662A50.832,50.832,0,0,1,233.8,559.826c12.912,2.76,24.237,10.5,36.926,14.148a61.192,61.192,0,0,0,45.183-4.773"/><path class="c" d="M332.454,784.429c-7.181-15.079-23.012-24.209-38.954-29.191s-32.775-6.753-48.588-12.13-31.287-15.4-37.325-30.977"/><path class="c" d="M1210.651,37.929c17.815-9.38,42.187-3.459,53.713,13.049,9.394,13.455,10.691,32.078,22.647,43.318,7.4,6.956,17.947,10.045,24.745,17.589,11.012,12.222,10.418,34.012,25.148,41.34"/><path class="c" d="M1399.943,130.282a63.265,63.265,0,0,1,37.695,32.966c4.635,9.857,6.611,20.731,10.255,31s9.513,20.471,19.183,25.487"/><path class="c" d="M1385.073,226.494c-9.156.44-16.793,8-19.894,16.628-6.766,18.822.742,35.92,3.78,54.393a162.851,162.851,0,0,1-2.659,65.906"/><path class="c" d="M1289.9,187.944c-10.174,9.4-12.675,25.6-7.111,38.284,4.455,10.152,13.3,17.521,23.425,21.628a63.173,63.173,0,0,1,24.634,18.313c8.976,10.643,14.618,25.037,11.49,38.6"/><path class="c" d="M1271.23,304.661c-14.9.769-29.221,7.776-44.1,6.715-18.121-1.293-34.37-14.819-33.773-33.674.243-7.711,1.216-16.144-3.186-22.479-3.751-5.4-10.578-7.9-14.706-13.012a17.188,17.188,0,0,1,6.984-26.751"/><path class="c" d="M1433.509,349.787c.657-28.631,18.461-56.208,44.285-68.591,6.844-3.282,14.517-5.585,21.99-4.254s14.529,7.12,15.346,14.666-6.658,15.388-13.971,13.354c-6.94-1.931-9.683-11.1-7.105-17.822s8.766-11.333,14.947-15.032a130.88,130.88,0,0,1,49.267-17.31"/><path class="c" d="M1442.316,254.8c.794,10.446-3.984,20.52-9.733,29.278s-12.628,16.872-16.921,26.429-5.618,21.267-.123,30.187"/><path class="c" d="M1390.268,372.137c10.277,3.006,21.323,1.759,31.765-.607s20.662-5.826,31.275-7.247c14.625-1.957,27.225.853,37.773,11.257,8.937,8.814,15.248,20.672,19.255,32.48"/><path class="c" d="M1533.817,346.464a81,81,0,0,1,65.649-29.715c6.115.271,12.856,1.08,17.792-2.539"/><path class="c" d="M997.984,623.221c19.909,2.337,37.622,16.092,46.671,33.979s9.866,39.334,4.225,58.569-17.383,36.332-31.858,50.2c-5.934,5.684-11.375,7.687-18.014,12.528"/><path class="c" d="M1111.136,530.9c-41.157,49-27.322,105.08-22.67,121.129,15.242,52.585-4.995,96.181-35.74,137.575"/><path class="c" d="M1120.56,673.5a255.325,255.325,0,0,0,8.029-59.212c.3-17.008-2.758-32.383,4.82-48.584,8.8-18.812,24.255-34.113,40.895-46.151,24.606-17.8,48.8-41.3,66.565-68.146"/><path class="c" d="M901.213,719.366c48.834,24.289,96.771-36.119,70.877-79.412"/><path class="c" d="M863.075,688.6c-8.678,16.36-22.184,26.5-40.128,31.077-17.32,4.421-35.588,1.731-53.174-1.475"/><path class="c" d="M867.311,717.79c-19.944,12.154-40.091,24.464-56.671,40.913s-29.51,37.682-31.538,60.95"/><path class="c" d="M913.433,726.556a95.517,95.517,0,0,0-33.318,63.791"/><path class="c" d="M1052.2,697.564c14.853-56.924-26.986-79.357,9.678-148.809"/><path class="d" d="M859.867,665.3a10.412,10.412,0,0,0,10.853,2.47"/><path class="c" d="M1205.465,525.555c-16.072,17.664-16.988,43.21-15.721,67.058s7.634,47.121,10.54,70.825A247.531,247.531,0,0,1,1161.692,828.1"/><path class="c" d="M652.955,392.859c-4.48-10.157,6.047-21.783,17.1-22.844s21.456,4.771,31.06,10.342,20.13,11.27,31.149,9.918c12.732-1.564,22.53-12.1,34.773-15.934,13.748-4.3,29.971,1.173,38.3,12.925,7.374,10.4,8.384,23.821,10.562,36.382S822.61,449.793,833.743,456"/><path class="c" d="M763.828,560.312c7.856-10.709,24.417-13.742,35.558-6.51,6.863,4.454,11.232,11.775,16.855,17.718a54.4,54.4,0,0,0,42.36,16.657"/><path class="c" d="M701.253,674.906c-5.2-9.89.153-22.807,9.292-29.232s20.9-7.709,32.075-7.58,22.454,1.456,33.443-.557c11.092-2.032,21.257-7.352,31.8-11.348s19.611-6.684,30.355-3.26"/><path class="c" d="M1366.262,795.354c13.626-8.969,20.51-25.227,24.456-41.056s5.793-35.625,12.772-50.37"/><path class="c" d="M1308.346,795.2c23.267-12.388,38.684-38.279,38.49-64.638"/><path class="c" d="M1431.157,772.246a80.005,80.005,0,0,1,110.661-72.419c29.211,12.124,58.913-11.426,88.368.094"/><path class="c" d="M1539.432,702.471a66.429,66.429,0,0,0-29.453,75.1"/><path class="c" d="M1438.485,738.713c2.181-15.608,8.691-35.044,20.205-46.424,10.94-10.813,24.483-18.836,34.732-30.9,26.679-31.415,20.162-67.059,23.962-104.77,1.589-15.763,2.026-35.705,8.736-50.172"/><path class="a" d="M1506.815,393.882l32.383-5.309,6.029,26.012c-13.062-2.688-27.048-5.3-39.384-.238-5.958,2.445-11.432,7-13.205,13.192s1.318,13.89,7.5,15.713,13.544-4.767,11.243-10.782c17.434.06,31.489,14.137,41.345,28.519s18.317,30.717,33.15,39.879c5.7,3.521,13.324,5.7,18.893,1.975,5.247-3.508,6.388-10.62,6.915-16.91a433.557,433.557,0,0,0,.272-68.913c-.5-6.643-1.239-13.524-4.648-19.249-4.811-8.08-14.013-12.365-22.911-15.408a165.386,165.386,0,0,0-50.528-8.815C1520.071,373.308,1493.474,372.48,1506.815,393.882Z"/><path class="c" d="M563.053,748.765c9.537-11.463,28.13-13.976,40.368-5.457,7.3,5.08,11.936,13.041,17.558,19.93a81.828,81.828,0,0,0,46.55,28.167"/><path class="c" d="M1551.094,518.7c-4.261,23.966-8.5,48.789-2.6,72.406,4.722,18.91,15.465,39.638,28.487,54.14,11.265,12.546,21.32,28.341,19.244,45.074"/><path class="c" d="M1181.507,415.331c17.357-7.726,36.5-10.215,54.927-14.849s37.192-12.112,49.055-26.951"/><path class="c" d="M1436.736,405.249c22.7-.307,35.682,18.909,52.662,30.578a157.7,157.7,0,0,0,58.894,24.81"/><path class="c" d="M1219.833,241.531a21.842,21.842,0,0,1,25.23,1.269c5.116,4.2,8.088,10.619,13.372,14.6,8.565,6.457,21.225,5.133,29.72,11.682,6.861,5.289,9.317,14.329,12.113,22.529,4.386,12.862,13.689,21.9,25.54,28.149,5.453,2.873,11.224,6.6,12.833,12.549"/><path class="c" d="M1500.485,379.9c6.8-2.343,22.277-5.98,28.866-7.311,9.539-1.926,19.575-.984,25.7,7.62,2.837,3.984,4.211,8.822,6.708,13.028a28.216,28.216,0,0,0,19.207,13.214"/><path class="c" d="M1494.127,438.145c-2.455-5.191-1.148-11.533,1.9-16.4,3.466-5.543,9.369-12.721,16.183-13.209,9.129-.654,21.689,5.279,29.961,8.693-2.34-4.539-7.1-24.755-5.726-27.9-4.322,4.322-22.808,8.7-31.911,5.172"/><path class="c" d="M1595.9,500.017c-13.657-2.547-24.235-9.9-33.637-19.749-4.309-4.512-8.234-8.92-11.1-14.6-.686-1.361-5.648-18.15-4.388-17.944a51.976,51.976,0,0,1-32.343-19.241c-.315,5.592-1.148,12.088-5.956,14.961"/><path class="c" d="M1261.76,790.793l33.293-64.276"/><path class="c" d="M1531.31,371.292c-13.688-23.736-42.027-38.142-69.27-35.213,14.362-1.544,26.123-4.81,38.537-11.581,12.51-6.824,27.938-12.948,42.143-7.859,9.19,3.293,16.138,10.748,23.977,16.564a76.969,76.969,0,0,0,54.55,14.43"/><path class="c" d="M1370.73,335.5c.387-13.393,7.232-23.584,14.214-33.467s15.015-19.819,16.709-31.8"/><path class="c" d="M1242.382,132.184c.215-4.911-4.864-8.912-9.779-8.783s-9.276,3.426-12.122,7.435a26.6,26.6,0,0,0,.712,30.886c3.92,5.016,9.553,8.425,13.762,13.2,10.087,11.447,11.444,29.942,24.317,38.131,7.6,4.836,17.336,4.644,26.222,3.162s17.729-4.094,26.721-3.532,18.528,5.275,21.372,13.824"/><path class="c" d="M1058.92,378.062a41.179,41.179,0,0,0,28.916,19.337"/><path class="c" d="M1392.9,319.249a123.884,123.884,0,0,1,16.858,13.331"/><path class="c" d="M1489.34,696.886c17.544-7.889,31.005-20.768,35.088-36.972"/><path class="c" d="M1323.87,377.363c-5.56,12.231-17.225,21.2-30.041,25.229-37.48,11.79-67.381-.507-112.322,12.739"/><path class="c" d="M1467.2,387.575c15.012,8.227,23.642,20,27.643,36.694"/><path class="c" d="M1511.055,226.92c.947-10.749,13.84-16.472,24.6-15.607s20.847,5.89,31.6,6.756c13.424,1.082,26.381-4.352,39.181-8.538s27.222-7.094,39.377-1.3"/><path class="c" d="M55.26,640.032c14.771,50.75,104.264-1.869,131.922-1.039a70.235,70.235,0,0,1,54.934,30.038"/><path class="c" d="M19.522,765.116c34.518-40.5,124.388-9,139.638-57.664"/><path class="c" d="M56.793,527.823c29.969,17.32,73.043,5.606,90.111-24.508"/><path class="c" d="M55.065,339.844c15.5.753,26.474-15.1,41.139-20.177,18.331-6.34,38.024,5.181,57.407,4.465,17.913-.66,33.651-11.6,50.852-16.648s40.651-.528,44.962,16.871"/><path class="c" d="M104.743,409.241c1.008,11.011,10.645,20.6,21.663,21.543,14.3,1.229,26.309-11.524,39.99-10.642,15.584,1.006,16.7,8.446,29.833,15.425,27.309,14.517,57.932,19.839,87.658,8.766"/><path class="c" d="M160.61,156.724c.481-6,4.77-11.212,10.033-14.129,13.461-7.461,30.284-1.289,43.614,6.4s27.07,17.211,42.43,16.237c9.572-.606,19.135-5.336,28.39-2.82,15.63,4.25,19.571,25.316,32.885,34.54"/></svg>