<svg xmlns="http://www.w3.org/2000/svg" viewBox="0 0 1614.383 945.747"><defs><style>.a{opacity:0.32;}.b{opacity:0.57;}.c{opacity:0.7;}.d,.e{fill:none;stroke:#000;stroke-linecap:round;stroke-linejoin:round;}.d{stroke-width:14px;}.e{stroke-width:8px;}.f{opacity:0.12;}</style></defs><title>EFimage</title><path class="a" d="M909.753,611.293h378.132c29.891-36.889,70.473-61.808,110.312-87.635s78.9-60.412,87.92-107.025c4.084-21.1-2.655-48.4-23.609-53.172-9.037-2.06-18.488.789-26.869,4.748a104.264,104.264,0,0,0-55.269,65.91c-10.7-19.75-38.045-28.355-58.131-18.294,19.507-17.162,39.329-34.695,52.747-56.943s19.662-50.37,10.1-74.526-38.031-41.239-62.532-32.594c-21.881,7.721-33.344,31.14-42.6,52.418l-8-26.808c14.178-26.067,27.225-53.582,30.137-83.113s-5.982-61.708-29.147-80.254-61.617-18.112-79.759,5.37c4.553-5.893-10.688-30.029-14.086-34.794a89.678,89.678,0,0,0-28.064-25.407c-21.7-12.545-48.483-14.257-69.722.075a117.327,117.327,0,0,0-46.675,64.2c-8.106,28.175-2.224,64.456,3.054,93.977-3.277.548-30.391,3.07-30.385,3.308-.608-23.357-2.133-47.279-11.5-68.683s-28.14-44.081-51.3-47.166c-33.816-4.5-64.531,30.734-69.984,64.41-5.6,34.572,8.032,71.592,28.8,98.5,11.49,14.882,20.993,31.579,31.2,47.394a232.988,232.988,0,0,1-28.6-17.511c-11.6-8.391-25.834-14-40.079-12.576-17.614,1.759-33.106,14.46-40.546,30.521s-7.449,34.918-2.466,51.9c9.99,34.05,36.464,64.9,70.857,75.352,2.617,11.061,5.443,21.533,9.982,31.962,7.139,16.4,18.416,31.911,30.02,45.4l-60.011-58.987c-17.913-17.607-34.44-29.3-60.559-31.609-20.992-1.856-40.12,7.368-49,27.007-7.736,17.114.989,37.009,11.263,52.732C806.773,557.41,855.452,592.762,909.753,611.293Z"/><path class="a" d="M165.917,670.359c1.763-53.769,14.1-108.264,43.391-153.387s77.032-79.857,130.5-85.778c64.006-7.087,128.073,28.467,165.633,80.777s51.206,118.843,49.573,183.22S537.556,822.664,520.8,884.845L36.987,878.11c-.828,0-6.537-145.054,1.374-160.721C59.889,674.753,123.017,656.391,165.917,670.359Z"/><path class="b" d="M1329.591,829.565A176.271,176.271,0,0,1,1348.7,781.3c2.924-5.048,7.212-10.564,13.037-10.26,4.932.257,8.724,4.97,9.54,9.84s-.659,9.814-2.32,14.465a170.327,170.327,0,0,1-29.341,51.461c3.523,7.11,6.887,14.35,10.676,21.307,11.668-16.061,21.571-36.436,32.238-53.921,3.521-5.772,7.144-11.859,7.489-18.611.418-8.189-4.017-15.708-7.27-23.234-5.318-12.308-1.086-34.85,15.27-19.438,5.8,5.469,7.761,13.769,9.443,21.564,3.534-8.856,7.458-18.221,15.28-23.675s20.755-4.608,24.756,4.047c4.929,10.664-6.476,21.686-7.957,33.34-1.338,10.523,7.1,21.3,17.63,22.534-1.323-12.228-2.48-25.353,3.46-36.125s22.008-16.673,30.854-8.126c11.757,11.36-.507,32.016,5.294,47.3,6.547-12.544,27.544-13.332,35.013-1.314a54.4,54.4,0,0,1,26.648,1.84,78.271,78.271,0,0,1-23.646-61.4,40.253,40.253,0,0,1,24.795,15.938c-.5-9.881,2.647-47.311-5.169-52.148-4.2-2.6-20.105.364-25.306.364H1317.945c-6.691,0-12.622.022-19.126,1.483-10.406,2.339-10.244,5.214-12.818,15.593-1.605,6.472-3.692,13.253-2.652,20,1.162,7.539,8.211,12.607,12.841,18.318A227.691,227.691,0,0,1,1329.591,829.565Z"/><path class="b" d="M912.871,711.005a406.678,406.678,0,0,1,8.687,52.832c-10.747-5.151-26.927-9.813-35.392-17.809C888.761,742.876,913.294,711.852,912.871,711.005Z"/><path class="b" d="M555.224,681.959a155.07,155.07,0,0,0,35.058,41.594,363.731,363.731,0,0,1,3.188-92.53,136.309,136.309,0,0,0,35.609,63.262,368.66,368.66,0,0,1,10.933-75.2l40.367,82.328,30.313-88.9a466.172,466.172,0,0,1,36.48,80.508l14.637-50.037,12.267,53.895a109.538,109.538,0,0,1,26.6-42.821l14.56,41.427,31.071-43.043q8.637,50.024,17.277,100.056c2.278,13.231,16.056,21.563,27.007,27.108,2.826,1.431,36.9,13.341,36.629,11.524q5.859,38.5,8.089,77.438c-20.568-18.935-31.016-45.542-46.292-68.382-4.34-6.488-18.493-29.436-27.557-29.031-12.286.55-9.986,22.163-7.05,29.007,3.371,7.858,8.581,14.922,11.038,23.111-4.37-4.623-8.848-9.33-14.475-12.3-16.91-8.923-25.516,5.529-19.082,20.688,3.071,7.235,8.451,13.2,13.732,19.022s10.658,11.792,13.719,19.032l-57.417,4.461a276.736,276.736,0,0,0,8.888-38.329c1.143-7.235,6.984-25.626-1.852-30.23-2.8-1.459-6.348-.747-8.963,1.024s-4.472,4.437-6.154,7.11c-10.778,17.127-11.9,34.36-18.046,52.8-1.56,4.68-78.928,3.447-87.636,3.827l-92.6,4.045-44.645,1.95c-15.348.67-29.714,7.371-29.533-9.244.292-26.825,14.376-58.926,19.406-85.65Q550.1,732.052,555.224,681.959Z"/><polygon class="c" points="883.815 614.285 895.669 692.117 913.744 692.117 943.672 891.625 1254.931 903.596 1290.845 692.117 1304.672 692.117 1316.788 614.285 883.815 614.285"/><path class="d" d="M926.1,614.21a342.3,342.3,0,0,1-136.472-83.719c-20.637-20.72-39.588-51.291-26.7-77.541,12.239-24.925,47.744-29.737,72.978-18.149s43.026,34.473,61.458,55.241a552.223,552.223,0,0,0,57.32,55.827"/><path class="d" d="M1114.3,612.971a256.036,256.036,0,0,1-81.566-132.341c-6.225-25.284-8.626-51.72-18.819-75.681s-30.807-45.933-56.78-47.787c-32.128-2.294-59.546,28.572-62.911,60.605s11.678,63.306,30.767,89.25c30,40.779,64.842,85.618,110.606,107.268"/><path class="d" d="M1304.672,692.117l12.116-77.832H881.82c3.884,26.619,9.965,51.213,13.849,77.832Z"/><polyline class="d" points="1290.845 692.117 1254.931 903.596 943.672 891.625 913.744 692.117"/><path class="d" d="M1119.353,611.77c8.94-52.359,1.565-105.907-1.115-158.956s.061-108.85,26.7-154.8c10.509-18.129,25.259-34.729,44.713-42.514,27.672-11.074,62.336-.66,79.325,23.829,10.718,15.451,14.432,34.972,13.355,53.746s-6.629,37-13.107,54.657c-27.541,75.06-72.493,143.582-92.328,221.036"/><path class="d" d="M1236.746,610.8c35.813-45.466,96.528-65.708,132.613-110.958,11.909-14.934,18.748-35.71,16.2-55.091-1.474-11.194-7.536-22.2-17.494-27.519-11.382-6.081-25.461-3.832-37.5.8-22.536,8.677-41.179,25.113-53.52,45.751-13.723,22.949-29.921,45.254-44.943,67.479a567.046,567.046,0,0,1-50.256,63.935"/><path class="d" d="M1385.092,427.761a93.252,93.252,0,0,1,47.417-55.258c9.28-4.541,19.915-7.524,29.936-5.01,13.583,3.407,23.162,16.623,25.478,30.434s-1.507,27.988-7.255,40.758c-15.671,34.813-45.058,61.627-76.418,83.4s-65.42,39.553-95.981,62.435c-10.312,7.72-20.691,16.709-24.537,29"/><path class="d" d="M895.771,446.188c-26.737-9.554-48.288-26.889-61.626-51.954-13.4-25.182-20.01-51.971-8.11-79.378,5.06-11.654,13.33-22.373,24.764-27.911,18.262-8.845,40.958-2.552,56.771,10.162s26.22,30.787,36.259,48.421"/><path class="d" d="M983.263,358.563c-5.177-18.391-10.383-36.953-11.55-56.023s2.01-38.947,12.459-54.941,29.017-27.379,48.07-25.962c12.764.949,24.722,7.444,33.8,16.469s15.47,20.445,20.188,32.343c16.128,40.669,13.314,85.933,16.1,129.595,2.874,44.98,11.921,89.308,20.945,133.467"/><path class="d" d="M1281.5,295.372c7.788-15.044,17.509-29.638,31.448-39.267s32.812-13.47,48.123-6.22c13.76,6.515,22.586,21,25.226,35.993s-.174,30.459-4.753,44.978a189.594,189.594,0,0,1-62.439,90.783"/><path class="d" d="M957.664,357.1c-9.834-31.742-32.039-57.832-51.6-84.7s-37.541-57.508-36.636-90.726a87.986,87.986,0,0,1,32.03-64.975c11.562-9.388,26.272-15.839,41.1-14.424,17.779,1.7,32.865,14.367,42.855,29.172,18.336,27.176,22.7,61.148,25.982,93.768"/><path class="d" d="M1160.582,276.3a345.747,345.747,0,0,1,1.9-92.993c3.214-20.493,8.62-41.408,21.587-57.6,12.251-15.3,31.1-25.292,50.681-26.152s39.5,7.661,51.879,22.855c11.606,14.247,16.15,33.1,16.989,51.455a152.258,152.258,0,0,1-30.621,98.179c-1.638,2.154-1.859,1.508-3.413,3.724"/><path class="d" d="M1040.737,222.813c-9.554-36.376-19.046-75.353-6.725-110.888,16.623-47.94,76.1-80.143,122.177-50.582a73.9,73.9,0,0,1,33.348,58.13"/><path class="d" d="M1270.821,824.628l39.067,15.832a175.579,175.579,0,0,1-32.15-55.981"/><path class="d" d="M1280.388,761.449c3.8-1.607,8.348-.229,11.54,2.392s5.307,6.3,7.316,9.9a648.242,648.242,0,0,1,28.833,58.516,69.936,69.936,0,0,1,14.456-46.492c4.426-5.694,11.476-11.111,18.242-8.618,4.333,1.6,7.036,6.172,7.6,10.756s-.644,9.195-2.115,13.573a112.5,112.5,0,0,1-27.62,44.171l15.347,30.032"/><path class="d" d="M1268.283,847.71c7.406.369,15.589,1.078,20.694,6.457,5.417,5.706,5.762,15.175,11.835,20.178"/><path class="d" d="M1358.858,859.778c6.087-16.02,12.231-32.157,21.3-46.7,2.371-3.8,5.05-7.594,8.878-9.923s9.08-2.849,12.649-.141c2.806,2.128,4.058,5.833,4.03,9.354s-1.165,6.93-2.356,10.244c-5.934,16.521-13.508,32.4-21.068,48.24"/><path class="d" d="M1447.2,866.313a82.8,82.8,0,0,1-20.682-46.071c-.437-3.964-.562-8.1.9-11.81s4.852-6.9,8.838-7.04c4.364-.148,8.012,3.2,10.766,6.589a65.577,65.577,0,0,1,14,32.25c.732-11.408-1.18-22.8-1.651-34.226s.673-23.422,6.829-33.054c5.035-7.879,16.064-13.676,23.622-8.171,5.545,4.038,6.283,11.918,6.145,18.776-.438,21.631-7.084,45.858-14.785,66.087,6.436-14.9,19.431-39.511,35.643-45.751,3.984-1.534,9.061-.881,11.7,2.477,3.624,4.62,1.164,11.341-1.582,16.531-9.929,18.769-22.083,34.338-36.107,49.949"/><path class="d" d="M1390.566,798.257a208.2,208.2,0,0,1-11.086-32.291c-.947-3.731-1.794-7.631-1.005-11.4s3.653-7.367,7.479-7.792c4.553-.5,8.322,3.378,10.956,7.126a81.121,81.121,0,0,1,10.729,21.444c5.019-7.5,7.3-14,13.443-20.613s17.8-9.686,23.863-3c3.209,3.54,3.843,8.839,2.805,13.5s-3.52,8.858-5.966,12.963l-44.592,74.832"/><path class="d" d="M1533.6,815.141l31.748,9.233c-4.5-7.783-10.641-14.465-16.483-21.3s-11.511-14.027-14.826-22.386c-2.6-6.545-6.545-27.142,4.288-28.916,2.97-.486,5.874,1.064,8.356,2.765a54.264,54.264,0,0,1,17.585,20.02"/><path class="d" d="M1523.611,835.8l38.016,10.937"/><path class="d" d="M868.829,865.235a96.618,96.618,0,0,1-36.622-35.682c-3.5-5.979-5.819-14.772-.257-18.9,4.663-3.458,11.242-.746,16.22,2.242a197.451,197.451,0,0,1,34.317,26.095A163.97,163.97,0,0,1,855.4,795.3c-1.634-3.895-3.139-7.972-3.087-12.2s1.97-8.665,5.708-10.635c3.876-2.042,8.806-.961,12.4,1.552s6.123,6.23,8.557,9.873q27,40.412,51.368,82.507"/><path class="d" d="M929.2,800.53c-18.33-10.725-37.463-19.322-54.513-32.54-5.474-4.244-13.54-10.923-13.926-18.537-.3-5.889,3.994-11.52,10.329-10.493,7.538,1.222,15.67,7.877,22.252,11.514l29.991,16.572"/><path class="d" d="M775.489,861.725A328.332,328.332,0,0,1,792.621,816.3c2.285-4.922,5.641-10.462,11.055-10.824,4.194-.281,8,2.964,9.64,6.833s1.56,8.231,1.258,12.423a138.56,138.56,0,0,1-15.263,53.9"/><path class="d" d="M701.882,861.107,761.3,630.341a94.412,94.412,0,0,0,6.15,44.075,369.933,369.933,0,0,1,25.994,134.029"/><path class="d" d="M864.991,739q-8.109-44.189-17.695-88.087l-38.865,61.916C800.2,725.941,797.4,738.356,791.1,752.5"/><path class="d" d="M209.779,875.139a418.966,418.966,0,0,1-41.7-158.34c-5.681-90.1,12.4-194.169,87.468-252.744,43.824-34.194,105.757-47.414,156.884-25.6,40.128,17.119,71.458,44.38,94.514,81.4,23.608,37.9,37.622,81.492,42.951,125.708q.8,6.639,1.337,13.306c6.083,75.578-11.2,151.315-36.385,222.834"/><path class="d" d="M33.3,723.771c22.387-47.9,79.865-69.278,130.333-62.322"/><path class="e" d="M144.4,600.238l33.168-9.017q-12.923-18.216-27.5-35.185a4.127,4.127,0,0,1,2.236,3.033"/><path class="e" d="M172.1,527.183a160.344,160.344,0,0,0,25.153,1.879c1.494-.006,3.2-.129,4.127-1.3,1.061-1.332.556-3.274,0-4.885q-5.314-15.471-10.628-30.941"/><path class="e" d="M219.968,450.132a88.325,88.325,0,0,0,29.794,14.553l-5.534-38.65"/><path class="e" d="M292.637,412.693l20.723,23.476,9.192-36.023"/><path class="e" d="M378.529,400.069,388.7,428.827l20.258-25.365"/><path class="e" d="M463.4,430.7l-7.486,30.972,34.126-11.8"/><path class="e" d="M525.666,486.811,507.155,514.6l24.948,2.907"/><path class="e" d="M559.124,558.3l-24.706,26.8a169.709,169.709,0,0,0,32.856,9.693"/><path class="e" d="M577.246,678.725A113.479,113.479,0,0,1,550.168,661.3l23.6-24.51"/><path class="e" d="M572.519,758.652l-23.962-20.6a78.57,78.57,0,0,0,25.9-12.831"/><path class="e" d="M554.6,844.4a264.277,264.277,0,0,1-15.873-31.785l29.912-11.254"/><path class="e" d="M145.545,682.048l16.477-13.587c1.437-1.186,2.966-2.518,3.328-4.346.394-1.994-.719-3.948-1.837-5.645A101.929,101.929,0,0,0,150.592,642.6"/><path class="e" d="M150.894,783.216a200.647,200.647,0,0,0,21.333-26.253,81.473,81.473,0,0,0-27.983-10.991"/><path class="e" d="M176.175,865.025l13.905-29.193-32.514-3.586"/><path class="e" d="M244.356,784.5l42.592,15.221"/><path class="e" d="M250.233,814.864a244.032,244.032,0,0,0,21.184-42.335"/><path class="e" d="M349.194,738.38a279.32,279.32,0,0,0,35.232,17.482"/><path class="e" d="M355.711,764.173a285.874,285.874,0,0,0,17.577-34.8"/><path class="e" d="M479.133,682.521a117.467,117.467,0,0,0,27.959,19.5"/><path class="e" d="M483.906,711.079l19.033-35.387"/><path class="e" d="M228.331,686.849a113.49,113.49,0,0,0,32.145,18.762"/><path class="e" d="M234.11,714.243a200.384,200.384,0,0,1,17.174-33"/><path class="e" d="M338.864,635.512a165.875,165.875,0,0,0,30.449,25.431"/><path class="e" d="M337.1,669.288l29.184-38.126"/><path class="e" d="M458.357,588.645a216.88,216.88,0,0,1,32.484,19.075"/><path class="e" d="M462.309,616.209l19.61-34.691"/><path class="e" d="M421.126,510.122l29.155,14.87"/><path class="e" d="M428.042,532.582l17.039-32.722"/><path class="e" d="M336.709,534.113l29.121,21.475"/><path class="e" d="M333.763,568.419l23.454-38.468"/><path class="e" d="M214.229,574.679l25.56,16.173"/><path class="e" d="M216.176,599.541,235.5,568.047"/><path class="e" d="M272.676,486.467l22.638,13.259"/><path class="e" d="M272.4,506.382a146.311,146.311,0,0,0,18.95-31.71"/><path class="e" d="M346.522,457.768l34.62,14.548"/><path class="e" d="M349.162,481.971a204.016,204.016,0,0,1,21.22-33.283"/><path class="e" d="M361.92,831.89q18.292,7.334,37.049,13.432"/><path class="e" d="M366.256,864.732,386,824.725"/><path class="e" d="M473.758,804.251a229.472,229.472,0,0,0,36.574,12.663"/><path class="e" d="M475.778,830.86l21.294-39.9"/><path class="e" d="M110.4,849.11a103.025,103.025,0,0,1,25.825-27.368"/><path class="e" d="M107.055,824.378a347.618,347.618,0,0,0,33.04,22.287"/><path class="e" d="M88.921,740.17l36.536,24.008"/><path class="e" d="M94.206,770.5l18.525-37.63"/><path class="e" d="M42.911,663.216l26.7,16.952L69.8,644.88"/><path class="e" d="M121.531,632.288l11.847,25.748,12.765-30.877"/><path class="d" d="M558.225,689.205a402.726,402.726,0,0,1,98.211,187.4"/><path class="d" d="M637.067,811.655c-8.018-67.189-4.365-135.291,2.968-202.558,6.613,31.843,24.261,60.076,38.262,89.43a415.172,415.172,0,0,1,35.34,114.037"/><path class="d" d="M682.1,703.357l26.545-96.585q18.522,44.144,37.043,88.287"/><path class="d" d="M778.76,694.11l22.375-40.776a253.966,253.966,0,0,1,16.772,42.775"/><path class="d" d="M592,728.747c-4.29-32.177-2.125-64.944,2.488-97.075,6.038,25.97,21.636,50.633,37.788,71.846"/><path class="d" d="M547.473,768.56a288.391,288.391,0,0,0,43.974,119.332"/><path class="d" d="M1556.878,721.364l-.665-.665H1288.144"/><path class="d" d="M1313.451,677.638a81.665,81.665,0,0,1,50.856,17.605,16.124,16.124,0,0,1,32.031-2.4,49.613,49.613,0,0,1,39.092-10.886c3.635.572,8.068,2.713,7.645,6.369-.21,1.81-1.621,3.215-2.95,4.462l-18.644,17.5"/><path class="d" d="M1316.362,651.833l24.235,16.3c-5.577-5.315-2.542-15.84,4.4-19.173s15.571-.734,21.4,4.3,9.474,12.079,12.977,18.941a43.079,43.079,0,0,1,21.225-25.489c4.4-2.267,9.961-3.678,14.115-.991,3.7,2.391,4.978,7.389,4.223,11.726s-3.15,8.186-5.5,11.911c6.523-9.9,20.576-13.984,31.389-9.124a48.883,48.883,0,0,1-12.367,20.516"/><path class="d" d="M1319.944,626.761a31.025,31.025,0,0,1,32.084,14.441c.185-5.81.411-11.8,2.834-17.084s7.632-9.737,13.437-9.427a13.8,13.8,0,0,1,6.911,2.5c7.5,5.082,10.14,14.708,12.24,23.518,3.194-6.6,6.611-13.473,12.542-17.785s15.178-5.017,20.04.471c3.01,3.4,3.681,8.376,2.835,12.834s-3.017,8.538-5.159,12.539"/><path class="d" d="M1562.46,690.836a30.979,30.979,0,0,0-33.394,6.536c-1.1-9.208-12.719-13.955-21.633-11.4s-15.5,9.9-21.577,16.9c2.431-2.8-31.628-21.832-40.245-13.645"/><path class="d" d="M1448.219,659.863c16-2.391,33.027,7.292,39.152,22.27.233-9.24,3.2-18.719,9.747-25.243s17.039-9.432,25.455-5.61,13.1,15.073,8.561,23.124c6.524-13.527,23.475-21.026,37.872-16.756"/><path class="d" d="M1457.287,653.925c-3.2-4.826-6.482-9.892-7.138-15.643s2.235-12.353,7.813-13.9c5.424-1.5,10.922,2.144,14.777,6.245s7.224,9.022,12.385,11.268a37.537,37.537,0,0,1-1.352-31.768c1.983-4.667,6.11-9.469,11.113-8.647,2.8.461,5,2.6,6.894,4.72a88.864,88.864,0,0,1,16.835,27.809c2.187-6.163,4.482-12.508,8.911-17.319s11.6-7.729,17.663-5.286c5.3,2.132,8.476,7.822,9.228,13.482s-.5,11.372-1.748,16.944"/><path class="d" d="M1357.313,616.367a56.869,56.869,0,0,1-23.715-19.389c-1.618-2.31-3.122-5.123-2.331-7.83,1.377-4.71,7.938-4.994,12.711-3.853a79.145,79.145,0,0,1,30.868,15.071c-.846-8.336,6.756-15.93,15.069-16.976s16.586,3.213,22.407,9.24,9.621,13.672,13.33,21.185c-3.948-6.336,2.033-15.267,8.762-18.5s15.114-1.29,21,3.3,9.63,11.407,12.321,18.37a71.3,71.3,0,0,1,25.881-32.492c5.124-3.508,11.772-6.384,17.37-3.7,4.911,2.357,7.155,8.395,6.7,13.824s-3.039,10.418-5.577,15.239c4.014-1.605,7.363-4.478,10.732-7.187s6.963-5.361,11.163-6.383,9.17-.034,11.736,3.445,1.352,9.462-2.781,10.727"/><path class="d" d="M1376.064,587.473c-8.592-3.633-9.735-16.8-3.373-23.627s17.213-7.739,26.03-4.7,16.087,9.312,23.121,15.44c-5.475-6.439-1.856-17.549,5.778-21.175s17.194-.785,23.283,5.076,9.24,14.15,11.059,22.4a54.75,54.75,0,0,1,22.317-25.259c4.219-2.482,9.305-4.421,13.936-2.836,11.462,3.921,6.066,20.935,2.032,28.176"/><path class="d" d="M1411.76,561.913a20.2,20.2,0,1,1,33.533-21.3c2.792-6.525,6.178-13.1,11.791-17.446s13.994-5.838,19.8-1.759c5.461,3.835,7.124,11.316,6.474,17.958s-3.135,12.969-4.19,19.558l1.887-3.166"/><path class="f" d="M1290.881,693.272l17.836-2.113a225.217,225.217,0,0,1,9.341-64.586,29.637,29.637,0,0,1,30.546,8.891,54.456,54.456,0,0,1,10.186-20.256,61.022,61.022,0,0,1-25.576-17.234c-2.915-3.318-5.535-8.211-3.1-11.893,2.053-3.1,6.472-3.346,10.165-2.914a59.391,59.391,0,0,1,28.749,11.544,28.608,28.608,0,0,1,38.357-36.573c-4.805-10.262-.506-23.867,9.323-29.5s23.743-2.482,30.176,6.846a37.7,37.7,0,0,1,20.347-17.008c3.179-1.1,6.76-1.746,9.848-.412,6.072,2.623,6.827,11.071,4.967,17.419s-5.4,12.568-4.526,19.124c6.811-5.89,18.09-5.653,24.647.518s7.476,17.415,2.009,24.57c5.485-4.366,14.28.085,16.813,6.621s.79,13.861-.977,20.645c11.452-18.976,33.067-5.068,50.29-.547.071,38.674-.024,77.139,2.75,115.477-40.95,2.445-83.183-.666-124.355-1.105L1319.279,719.4c-6.664-.071-23.46,2.945-29.062-1.079C1284.171,713.981,1289.8,699.688,1290.881,693.272Z"/><path class="d" d="M883.977,744.107l29.777-37.034"/><path class="b" d="M1269.916,826.748a68.856,68.856,0,0,0,32.6,11.165,477.011,477.011,0,0,1-25.838-49.742l-7.418,41.488"/><path class="b" d="M1420.924,812.381a238.655,238.655,0,0,0,23.316,56.884c-13.556,1.129-47.345,8.754-52.1-10.029-2.163-8.537,4.64-17.306,9.123-23.869C1403.392,832.245,1421.305,813.814,1420.924,812.381Z"/><path class="b" d="M1521.529,837.5a333.255,333.255,0,0,0,42.277,15.021,18.247,18.247,0,0,0-4.748,15.922c-21.238.751-42.54,2.03-63.785,2.187C1499.982,868.3,1516.722,835.417,1521.529,837.5Z"/></svg>