<svg xmlns="http://www.w3.org/2000/svg" viewBox="0 0 1614.154 674.602"><defs><style>.a{opacity:0.15;}.b{opacity:0.75;}.c{opacity:0.4;}.d{opacity:0.81;}.e,.f{fill:none;stroke:#000;stroke-linecap:round;stroke-linejoin:round;}.e{stroke-width:14px;}.f{stroke-width:8px;}.g{opacity:0.63;}.h{opacity:0.74;}</style></defs><title>EFimage</title><path class="a" d="M417.91,528.033c-1.911,35,12.914,75.122,20.134,109.55.931,4.435,2.158,9.326,5.939,11.825,2.641,1.745,5.983,1.924,9.147,2.018q20.217.6,40.439-.415c3.261-.326-5.934-77.666-6.021-87-.325-35.006.015-70.032.022-105.04l.027-123.11c0,.989-66.642,1.677-72.726,2.667-25.728,4.186-12.951,24.186-8.685,43.754A545.614,545.614,0,0,1,417.91,528.033Z"/><path class="a" d="M220.866,291.532c25.186,26.573,64.555,38.836,100.376,31.266,7.168,48.51-19.348,101.55-40.386,143.708a430.925,430.925,0,0,1,1.126,96.29,431.18,431.18,0,0,1-7.708,48.689c-.455,2.087-6.212,36.78-6.119,36.768a153.919,153.919,0,0,1-52.665-2.641C194.723,558.549,186,463.412,200.4,374.739,201.871,365.7,224.112,294.956,220.866,291.532Z"/><path class="a" d="M455.724,271.324c-3.37.5-7.029.946-10-.728-5-2.821-5.31-9.779-4.991-15.512,1.4-25.21,2.88-50.809,11.207-74.645s24.575-46.1,47.9-55.769c-5.743,8.569,1.569,20.867,11.28,24.346s20.4,1.089,30.575-.588,21.564-2.323,29.843,3.832c11.861,8.819,11.374,26.412,9.711,41.1a102.339,102.339,0,0,0,46.063-21.428,31.012,31.012,0,0,0,43.5,34.164l15.424,54.16-68.374,33.274c-7.653,3.724-15.8,7.545-24.277,6.741-4.355-.414-8.588-2.05-12.96-1.886-10.574.4-18.213,10.856-28.557,13.085-11.24,2.423-22.557-5.939-27.427-16.355-4.9-10.479-4.617-22.18-4.854-33.449C502.612,257.838,473.666,268.761,455.724,271.324Z"/><path class="b" d="M766.05,94.387c-7.423,7.587-11.011,18.269-11.936,28.843s.578,21.192,2.079,31.7a59.687,59.687,0,0,0,38.765-26.015C798.7,138.342,813.2,141,820.03,133.5a34.855,34.855,0,0,1,1.945-55.16c7.819,13.272,27.075,18.16,40.278,10.225a243.969,243.969,0,0,0-12.205,56.041l8.5,1.143c-3.544,6.036,1.034,14.553,7.773,16.447s14.119-1.633,18.518-7.078,6.332-12.457,7.561-19.348a132.892,132.892,0,0,0,.974-38.885c-.9-7.633-3.43-16.457-10.656-19.075-4.4-1.595-9.3-.324-13.945-.9-10.207-1.269-17.13-10.872-26.335-15.461a29.291,29.291,0,0,0-33.77,6.338c-6.067,6.681-7.823,15.788-17.343,17.409C781.478,86.875,773.753,86.513,766.05,94.387Z"/><path class="c" d="M811.864,118.033c3.44,6.857,8.276,12.688,15.609,15.583a28.461,28.461,0,0,0,22.439-.792,352.366,352.366,0,0,1,11.3-37.387c.652-1.787,1.3-3.819.454-5.524a4.942,4.942,0,0,0-4.451-2.389,18.5,18.5,0,0,0-5.191,1.053c-5.58,1.58-11.657,2.037-17.118.089S824.753,82.035,823.888,76.3c.458,3.036-5.257,8.814-7.249,10.835a41.943,41.943,0,0,1-12.16,8.578C806.266,102.856,808.328,110.986,811.864,118.033Z"/><path class="d" d="M529.648,156.146c5.23-6.375,12.011-11.729,19.941-13.989s17.072-1.068,23.384,4.237c5.681,4.774,8.507,12.271,9.158,19.663s-.636,14.8-1.917,22.11A81.358,81.358,0,0,0,626.3,165.145c2.763,10.783,5.734,21.98,12.976,30.433s20.107,13.206,29.82,7.77a188.2,188.2,0,0,0,20.051,50.7c1.218,2.117,2.6,4.326,4.812,5.364,6.677,3.135,14.046-6.506,21-4.058-6.03-23.135-6.158-47.414-11-70.827-3.758-18.185-10.437-35.907-20.9-51.249s-24.829-28.234-41.854-35.65c-30.649-13.349-66.141-7.9-98.187,1.625-8.873,2.635-17.728,5.623-25.928,9.971-5.792,3.071-15.876,8.169-17.929,15.029C494.834,138.775,518.4,153.638,529.648,156.146Z"/><path class="e" d="M1336.346,516.394c62.335-.574,64.152-90.3-3.721-103.137A117.314,117.314,0,0,0,1282,414.518c-16.434,4.219-32.135,15.285-37.171,31.487-4.423,14.233-.078,29.543,4.254,43.8Q1267,548.763,1284.91,607.716c-9.285,12.126-21.722,12.929-34.025,20.541a19.473,19.473,0,0,0-6.115,5.283,8.006,8.006,0,0,0-1.008,7.715c1.633,3.457,5.936,4.542,9.7,5.23,22.844,4.18,85.27,8.863,80.237-29.339-1.457-11.061-4.3-22.458-4.982-33.815-.683-11.322.962-22.392,2.213-33.626,2.58-23.168,4.183-47.387-3.934-69.706a85.773,85.773,0,0,0-17.611-28.864"/><path class="e" d="M1253.424,502.912c-47.027-2.335-103.592-18.276-131.422-58.658"/><path class="e" d="M1202.807,395.569c-25.358-7.844-51.9-15.775-78.041-11.155s-51.36,26.118-50.6,52.65c.25,8.7,3.189,17.075,6.223,25.232a824.851,824.851,0,0,0,45.386,100.777,7.834,7.834,0,0,1,1.32,4.414c-.283,2.48-2.761,4.024-4.994,5.139-10.9,5.443-25.44,9.61-37.3,12.389-5.631,1.319-12.516,3.478-13.456,9.184-1.251,7.6,8.928,11.286,16.609,11.821a548.016,548.016,0,0,0,67.134.351c5.893-.346,12.481-1.147,16.173-5.752,6-7.483.156-18.188-4.308-26.676-14.107-26.825-4.581-67.949-14.821-100.36"/><path class="e" d="M1244.832,446.005c-16.019-10.9-35.424-29.541-37.826-48.767s.787-38.673,4.313-57.724c-7.49-.256-19.777-18.616-13.047-36.772,10.827-29.206,14.637-60.553,22.3-90.744"/><path class="e" d="M1382.674,461.869c-1.576-21.584-8.262-44.065-21.31-61.33-6.388-8.452-9.9-15.48-14.3-25.118-9.314-20.41,2.685-43.481,7.853-65.312,7.515-31.751-2.011-58.3-16.1-86.2-.246-.488.921.007.4.169"/><path class="e" d="M1234.664,196.69a112.578,112.578,0,0,0-11,74.963c3.683,18.085,13.029,35.158,34.9,25.964,5.471-2.3,10.1-6.18,14.642-10"/><path class="e" d="M1342.151,231.645c6.679,19.815,1.315,41.5-4.9,61.463-3.213,10.327-6.716,20.725-12.716,29.724s-14.855,16.57-25.434,18.815a8.725,8.725,0,0,1-5.637-.237,9.333,9.333,0,0,1-2.918-2.613c-10.512-12.766-15.85-29.219-17.337-45.688s.656-33.059,3.766-49.3c2.227-11.629,5.749-24.342,15.742-30.691,15.131-9.614,60.171,7.176,54.1-21.084"/><path class="f" d="M1242.031,329.3a26.005,26.005,0,0,0,27.808,12.164"/><path class="e" d="M1196.937,287.337a252.208,252.208,0,0,1-60.8,17.562c-4.413.691-8.935,1.262-13.324.438-13.432-2.523-21.367-17.721-20.58-31.366.627-10.867,6.155-21.3,11.066-30.8,3.88-7.508,12.6-21.79,12.6-35.768,0-22.291,38.569-6.588,51.866-7.15a57.06,57.06,0,0,1-21.689,12.194c-3.833,16.873-2.264,33-7.26,49.6"/><path class="e" d="M1152.133,244.94c21.383-18.07,44.382-28.541,70.042-39.481"/><path class="e" d="M1316.678,297.87c2.621-12.333-12.225-44.048-3.47-71.576,8.489,2.2,17.95-1.756,24.874-7.137,3.931-3.055,5.71-4.454,6.416-9.382"/><path class="e" d="M1218.026,206.258c9.607-6.692,27.975-14.521,32.059-26.407"/><path class="e" d="M1267,175.588a37.185,37.185,0,0,1-30.333-10.229c-14.966-14.738-11.519-38.037-4.381-55.831,8.607-21.454,27.522-39.506,50.349-43.15,19.843-3.167,43.481,6.376,52.838,24.394a49.84,49.84,0,0,1,16.3-6.009c11.732-2.105,17.818,5.325,22.717,14.971,10.265,20.208,12.875,39.966-3.631,57.494-5.438,5.775-13.21,9.895-21.1,9.056a79.492,79.492,0,0,1,7.162-21.971"/><path class="f" d="M1125.78,566.437a174.572,174.572,0,0,0,35.8,6.078"/><path class="f" d="M1284.91,601.218a112.363,112.363,0,0,0,46.232-1.688"/><path class="e" d="M1104.754,195.558a1386.706,1386.706,0,0,1,141.591,3.818c45.511,3.559,90.638,7.355,135.074,17.919"/><path class="e" d="M1505.444,365.813c-21.716-6.732-67.3-16.909-88.136-26.673-31.258-14.647-38.452-86.715-32.93-129.056,5.326-40.836,27.2-85.345,64.592-104.93,18.309-9.59,69.5,1.276,89.117,4.1"/><path class="e" d="M1446.927,349.593c-48.246-65.862-39.161-212.864,52.456-246.3"/><path class="e" d="M1513.46,238.138q33.918,7.02,67.463,15.7,9.533,2.468,19.031,5.068"/><path class="e" d="M1100.125,290.737c-13.715-.83-25.761-9.512-35.184-19.513-35.2-37.365-41.78-98.629-15.31-142.615,13.389-22.247,38.281-40.973,63.681-35.585,16.669,3.536,29.93,16.928,37.359,32.264s9.865,32.554,11.7,49.495"/><path class="e" d="M1342.132,113.12c2.7,7.215,1.99,15.29.061,22.749a74.762,74.762,0,0,1-38.788,47.669,109.57,109.57,0,0,1,16.785,21.173"/><path class="f" d="M1222.447,93.09a28.427,28.427,0,0,0,7.418,3.638c12.834,4.81,25.76,9.646,39.265,11.989,9.618,1.669,19.489,2.066,28.869,4.771"/><path class="f" d="M1219.668,106.978a190.232,190.232,0,0,0,75.573-11.786l.82-.307"/><path class="f" d="M1243.644,119.684a13.588,13.588,0,0,0,.912,7.9,3.185,3.185,0,0,0,1.946,2.043c1.1.244,2.127-.572,2.96-1.331l5.038-4.592"/><path class="f" d="M1257.913,136.729a81.009,81.009,0,0,1,12.417,3.257c3.835,1.34,7.764,3.12,10.115,6.432s2.421,8.545-.843,10.963c-1.943,1.439-4.539,1.585-6.954,1.462a41.506,41.506,0,0,1-22.71-8.245"/><path class="f" d="M1241.479,296a58.365,58.365,0,0,1,4.538-24.546"/><path class="e" d="M1144.6,191.472l-2.839-16.334c5.842-2.338,12.071-3.332,17.007.57a18.352,18.352,0,0,1,6.636,16.756c-.076-.652.819-2.028,1.378-1.684s1.244-.17,1.68-.661a27.061,27.061,0,0,0,6.49-14.028"/><path class="e" d="M1100.125,290.737c-1.458-.343-48.207,2.813-62.437-4.154-66.913-32.761-64-172.386,11.544-186.493,24.922-5.2,39.367-5.2,55.522-8"/><ellipse class="e" cx="1526.342" cy="238.201" rx="129.312" ry="62.205" transform="translate(1044.599 1705.983) rotate(-80.7)"/><path class="e" d="M1059.859,290.532c-25.2-23.971-45.035-56.352-48.518-90.959s10.3-71.122,35.647-94.942"/><path class="e" d="M987.109,204.707q-11,2-21.909,4.429"/><path class="f" d="M1316.1,123.517c3.476-2.171,8.45.168,10.111,3.914s.712,8.184-1.164,11.828a24.139,24.139,0,0,1-15.666,12.434,11.861,11.861,0,0,1-8.2-.6"/><path class="e" d="M1329.789,203.436a33.442,33.442,0,0,0,5.279-14.639"/><path class="f" d="M1264.405,153.785c-.273-.355-.6.547-.16.628s.766-.388.965-.789q3.022-6.087,6.047-12.173"/><path class="e" d="M824.767,261.5a243.614,243.614,0,0,0-7.7,54.874c-.182,7.174.011,14.62,3.108,21.093,2.285,4.776,6,8.7,9.653,12.527l40.32,42.293c2.555,2.68,5.163,5.439,6.612,8.846,3.784,8.9-1.259,19.627,2.2,28.659.733,1.912,2.188,3.9,4.236,3.931,2.587.042,7.048-3.883,7.879-6.334,4.831-14.262,10.67-27.882,5.524-42.034-2.683-7.378-13.844-13.545-18.907-19.545-7.51-8.9-13.021-18.8-20.532-27.7-9.076-10.756-10.365-26.466-6.843-40a85.625,85.625,0,0,0,9.692,5.581,137.442,137.442,0,0,0,7.879-61.488"/><path class="e" d="M808.525,244.576c-7.077,25.087-5.174,49.295-5.078,74.886.024,6.328.244,12.735,1.99,18.818,1.582,5.514,4.369,10.594,7.133,15.62,10.244,18.626,22.44,40.889,32.684,59.515-2.1,5.25-4.209,10.575-4.87,16.189s.29,11.646,3.8,16.078c8.719-11.709,19.167-25.462,23.88-39.374.188-.554.514-1.22,1.1-1.207s.372,1.236-.062.857c-9.425-8.223-15.559-25.778-20.939-36.8"/><path class="e" d="M868.968,165.744c-.314,19.335-.7,47.683,1.063,66.939-5.583,3.748-12.253,8.539-18.627,10.681-15.189,5.1-31.93.11-46.294-6.99,2.294-27.918,2.808-56.665,5.1-84.583a27.973,27.973,0,0,1,6.977-15.72"/><path class="f" d="M804.235,96.024l3.611,11.609c2.233,7.179,4.591,14.587,9.546,20.241s13.265,9.094,20.18,6.143"/><path class="e" d="M862.551,99.732a64.409,64.409,0,0,0-12.658,41.549,8.65,8.65,0,0,0,.97,4.148c1.759,2.853,6.181,2.881,8.914.939s4.183-5.173,5.512-8.249c-2.176,8.089-4.222,17.245.119,24.41a6.9,6.9,0,0,0,3.56,3.215c2.829.9,5.679-1.189,7.8-3.267,18.592-18.235,25.634-46.2,14.978-70.315-2.21-5-5.451-10.028-10.563-11.963-6.116-2.317-19.16-1-23.314,4.666"/><path class="f" d="M823.523,117.618a10.346,10.346,0,0,0,2.982,0"/><path class="e" d="M876.767,162.477c3.063,11.826,15.376,28.224,23.17,40.171,7.694,0,16.939,2.4,24.143,5.607a14.218,14.218,0,0,1,5.928,4.278c1.449,2,1.942,4.849.633,6.939a8.376,8.376,0,0,1-3.578,2.822c-8.73,4.28-23.269,3.772-32.258.064S875.5,201.21,869.322,193.7"/><path class="e" d="M811.356,142.477c-12.654,7.373-20.768,37.464-23.7,40.562-7.028,7.421-20.288,5.185-27.619,12.306a9.278,9.278,0,0,0-3.089,6.567c.039,2.488,1.755,5.017,4.2,5.45,1.47.26,14.883.347,22.161.347,7.409,0,19.967-8.42,24.294-12.51"/><path class="f" d="M932.405,221.724a502.959,502.959,0,0,1,30.837,67.166c5.412,14.516,10.2,29.514,10.818,44.994s-3.327,31.66-13.6,43.257c-13.192,14.891-36.39,19.851-54.517,11.654-2.882-1.3-6.081-2.932-9.04-1.816"/><path class="f" d="M803.16,280.417l-38.7-69.948"/><path class="f" d="M823.945,285.89a62.8,62.8,0,0,1,28.264,9.075"/><path class="f" d="M1312.77,121.827c7.687-18.2.1-41.5-16.83-51.686-.579-.348-1.243-.811-1.23-1.486s1.314-.863,1.231-.193"/><path class="e" d="M856.757,81.079c-3.375-14.556-19.178-25.021-33.9-22.447S796.828,76.413,798.593,91.25c-11.419-11.291-22.25-9.482-32,2.7-13.284,16.6-4.137,39.929-9.825,58.914-.5,1.668-.89,3.881.588,4.8a3.54,3.54,0,0,0,1.471.419c7.514.9,15.02-2.689,20.5-7.908s9.254-11.94,12.8-18.626"/><line class="f" x1="836.258" y1="105.062" x2="836.258" y2="105.062"/><path class="f" d="M806.482,97.443a44.476,44.476,0,0,0,17.1-22.279c1.858,6.466,5.869,12.572,11.862,15.63s14.057,2.406,18.629-2.531"/><line class="f" x1="814.434" y1="107.482" x2="814.434" y2="107.482"/><path class="e" d="M465.735,143.651c24.269-17.74,56.49-37.6,85.075-46.912s60.33-11.266,88.483-.723c40.425,15.138,63.707,57.216,67.833,98.538,2.472,24.766-.39,46.22,14.6,68.261a32.627,32.627,0,0,1-21.839-9.833"/><path class="e" d="M479.764,454.632l1.671-2.817c22.93,61.906,2.139,132.748,12.612,196.78-.561.3-1.3-.491-.958-1.028"/><path d="M614.655,256.057c4.932-6.014.521-16.226-10.678-11.629-8.13,3.337-10.275,14.976-.6,15.58C608.894,260.353,612.592,258.572,614.655,256.057Z"/><path class="e" d="M526.978,182.7c-2.058-11.747,1.356-24.764,10.3-32.649s23.566-9.3,32.882-1.86c5.921,4.731,9.117,12.217,10.188,19.719,1.063,7.448.037,14.86-.374,22.281,6.51-.682,51.686-17.081,51.258-23.87.458,7.261.938,14.633,3.384,21.484s7.165,13.235,13.9,15.988,15.529.937,19.389-5.229c6.16,25.393,13.115,52.24,30.257,72.839"/><path class="e" d="M499.928,128.823c3.19,14.211,17.227,25.178,31.788,24.836"/><path class="e" d="M475.823,466.35c11.489-37.023,13.123-89.137,7.957-127.556"/><path class="e" d="M434.3,476.614c-15.595-17.141-21.008-36.273-25.423-58.3-4.529-22.591-9.776-44.867-11.9-68.078"/><path class="e" d="M267.426,645.772c10.815-40.056,17.592-81.338,16.67-122.852-.477-21.488-7.417-44.284,1.364-65,2.867-6.762,7.281-12.729,11.146-18.974A133.662,133.662,0,0,0,316.1,376.6c1.094-18.308-.462-39.77,8.34-56.47,3.164-6,7.828-11.051,11.965-16.428a112.245,112.245,0,0,0,22.62-77.329"/><path class="e" d="M341.068,328.237a103.423,103.423,0,0,0,40.2-69.67"/><path class="e" d="M218.637,645.83c-14.192-51.61-19.02-103.775-25.294-156.673q-1.615-13.624-3.219-27.25c-1.363-11.628,1.891-19.957,4.219-30.765,2.975-13.812,3.479-28.71,5.468-42.737l15.437-108.9c4.52-31.885,9.88-65.687,30.951-90.042,16.283-18.822,42.254-29.911,66.689-25.181"/><path class="e" d="M463.835,268.384a77.011,77.011,0,0,1,51.159.452"/><path class="e" d="M516.245,248.6a87.754,87.754,0,0,0,11.113,51.983c4.225,7.367,10.49,14.673,18.936,15.567,17.029,1.8,28.291-22.726,45.318-20.907-2.378,6.089,4.732,12.549,11.235,11.884s11.59-5.844,15.371-11.177,7.027-11.305,12.374-15.067c7.761-5.461,18.018-5.036,27.434-6.241,13.414-1.717,18.735-8.962,26.329-19.087"/><path class="e" d="M417.952,336.52c24.366,5.5,41.191,4.425,65.828,2.274,12.936-18.016,20.587-41.5,27.879-67.608"/><path class="e" d="M216.694,282.467c1.906,8.411,7.651,15.592,14.628,20.662s15.145,8.236,23.366,10.841a211.586,211.586,0,0,0,64.718,9.864"/><path class="e" d="M189.125,413.667c-25.9,14.3-56.383,23.4-85.162,13.173C89.456,421.686,82.43,422.324,68.441,424c-10.189,1.223-20.506-3.878-27.793-10.575-15.189-13.96-11.3-35.953-17.9-54.778L18.138,269.43c3.716-28.644-.221-57.212,26.284-68.689,20.056-8.685,42.849-6.67,64.658-8.082,41.616-2.693,81.2-18.277,119.608-34.528s77-33.522,118.2-39.922,86.259-.584,118.844,25.442a264.959,264.959,0,0,0-24.556,118.93c.34,11.855,10.949,13.859,20.491,8.964-1.9.973-6.824,27.665-8.371,31.818-4.111,11.038-9.932,19.224-20.716,25.1-11.107,6.054-23.668,8.758-35.948,11.787-12.418,3.064-22.858,9.111-34.67,13.111-11.215,3.8-24.424,5.119-36.062,7.782"/><path class="e" d="M17.818,485.559a211.964,211.964,0,0,0,89.658-51.694"/><path class="e" d="M546.683,196.691l9.976-27.933"/><path class="e" d="M613.529,227.611a51.48,51.48,0,0,1,16.895,28.949"/><path class="e" d="M554.664,283.484a35.227,35.227,0,0,1,12.969,14.965"/><path class="e" d="M442.569,651.2C427.878,589.116,406.9,527.02,422.933,463.045"/><path class="e" d="M210.455,451.081a11.82,11.82,0,0,0,5.046,10.936"/><path class="c" d="M760.086,194.175c-2.18,1.743-3.661,4.667-2.882,7.347,1.1,3.8,5.762,5.111,9.7,5.437a64.664,64.664,0,0,0,37.457-8.427l2.162-45.466c-4.3,8.306-8.647,16.69-14.683,23.834a46.531,46.531,0,0,1-15.175,12.165C771.291,191.631,764.83,190.382,760.086,194.175Z"/><path class="c" d="M869.311,183.847a33.213,33.213,0,0,0,3.173,16.589,43.4,43.4,0,0,0,21.542,21.023c7.009,3.2,21.9,7.215,29.081,2.889a9.9,9.9,0,0,0,4.646-9.155c-.561-6.229-6.9-10.375-13-11.756-5.634-1.276-11.78-1.114-16.724-4.1-6.158-3.721-8.72-11.234-10.519-18.2s-3.584-14.5-9.014-19.222C873.527,167.455,869.972,176.5,869.311,183.847Z"/><path class="c" d="M805.334,293.736c-3.016,4.9-3.061,11.03-2.626,16.769,2.817,37.166,21.512,71,39.783,103.491,9.28-12.384,26.408-14.874,40.768-20.642,3.261-1.309,6.518-2.885,8.931-5.439s3.848-6.278,2.87-9.653c-1.431-4.937-6.971-7.136-11.5-9.57-10.1-5.432-17.576-14.93-22.394-25.339s-7.2-21.765-9.105-33.076c-1.024-6.089-2.04-12.485-5.8-17.384C838.423,282.668,812.528,282.039,805.334,293.736Z"/><path class="g" d="M803.871,292.484a37.823,37.823,0,0,1,53.354,10.682,278.644,278.644,0,0,0,8.335-63.23c-.04,2.418-23.792,4.449-26.32,4.576a110.523,110.523,0,0,1-14.41-.216c-4.067-.328-9.874-2.55-13.772-2.008-4.137.576-4.273,4.932-5.378,9.237a99.8,99.8,0,0,0-1.809,40.959Z"/><path class="c" d="M1213.473,345.018c-13.131-9.821-17.471-28.162-14.9-44.356s10.849-30.834,18.985-45.07c-3.346,14,3.142,29.787,15.362,37.387s29.251,6.438,40.325-2.752c.169,11.8.443,24.053,5.712,34.609s17.1,18.834,28.563,16.049c8.327-2.022,14.363-9.121,19.162-16.22a149.607,149.607,0,0,0,23.545-58.963c7.552,11.091,7.339,25.761,4.514,38.878s-7.96,25.76-9.373,39.1c-3.436,32.443,15.246,62.652,33.162,89.917a95.456,95.456,0,0,0-113.746-4.673c-15.162,10.152-23.064,16.533-37.219.774C1207.529,407.4,1201.319,372.537,1213.473,345.018Z"/><path class="g" d="M992.831,217.806a123.2,123.2,0,0,1,12.327-84.164c6.558-11.961,15.415-23.048,27.243-29.842,11.957-6.869,26-8.883,39.673-10.709,15.529-2.076,31.771-4.006,46.5,1.321,14.509,5.246,25.944,17.194,32.939,30.946s9.923,29.236,11.171,44.614a18.648,18.648,0,0,0-20.908,25.577c-1.3-4.2-7.488-4.9-11.028-2.3s-5.045,7.085-6.352,11.28l-26.112,83.833c-24.265,5.011-53.356,9.125-71.988-9.422A123.318,123.318,0,0,1,992.831,217.806Z"/><path class="g" d="M1380.9,239.313c1.089-33.417,12-66.237,29.7-94.6,11.293-18.1,26.393-35.222,46.671-41.849,19.589-6.4,40.9-2.1,60.943,2.7,19.514,4.678,39.885,10.325,54.177,24.41,18.567,18.3,22.647,46.57,22.828,72.636.357,51.571-12.353,106.307-49.514,142.067-10.207,9.822-22.5,18.158-36.453,20.591-12.4,2.162-25.11-.476-37.262-3.758-23.523-6.354-56.579-12.756-69.393-35.173A164.256,164.256,0,0,1,1380.9,239.313Z"/><path class="g" d="M112.825,427.916c-4.824,4.765-25.247-4.823-30.943-5.39C65.047,420.85,50.912,427.36,38.9,411.25c-9.554-12.81-16.422-29.652-17.531-45.683a842.726,842.726,0,0,0-7.664,123.4c.01.9,47.747-20.213,51.577-22.481A201.787,201.787,0,0,0,112.825,427.916Z"/><path class="f" d="M655.235,319.1a167.214,167.214,0,0,0-11.35,34.692c-.756,3.607-1.385,7.411-.28,10.927s4.489,6.588,8.141,6.093c5.653-.767,7.1-8.2,7.011-13.9a375.045,375.045,0,0,0-2.506-37.852"/><path class="f" d="M690.908,418.657c-.239-14.3-10.656-40.6-10.656-40.6s.544,26.034-.864,39c-.405,4.948.983,11.9,5.94,11.622C689.566,428.439,690.978,422.9,690.908,418.657Z"/><path class="h" d="M818.075,477.759c-.17.137-.335.28-.494.431-1.716,1.621-2.645,4.322-1.538,6.407,1.018,1.917,3.311,2.7,5.4,3.3,44.23,12.556,88.025,11.493,131.911-1.07,3.18-.91,7.111-2.925,6.556-6.186-.449-2.634-3.564-3.73-6.171-4.319-24.5-5.533-50.177-4.871-75.4-5.064-18.27-.14-36.89-1.622-54.462,3.832A17.121,17.121,0,0,0,818.075,477.759Z"/><path class="c" d="M1076.886,586.862c-3.057,1.061-6.391,2.349-7.909,5.207-1.7,3.2-.368,7.348,2.222,9.878s6.154,3.768,9.645,4.728c20.1,5.525,41.351,4.226,62.149,2.884,10.477-.676,22.838-2.537,27.52-11.934,4.691-9.417-2-21.3-11.412-26.006-11.482-5.739-26.338-5.4-37.57-.338C1107.462,577.628,1091.611,582.212,1076.886,586.862Z"/><path class="c" d="M1257.065,623.768c-2.281,1.063-4.591,2.136-6.925,3.291-6.037,2.986-11.1,11.2-3.474,16.121a19.715,19.715,0,0,0,6.97,2.447c14.757,2.908,33.689,3.351,48.376.118,9.229-2.031,18.287-6.046,24.722-12.966,5.826-6.265,13.138-24.265,3.608-30.553-4.737-3.126-16.068-2.822-21.618-2.889-7.5-.09-15.11,1.1-21.615,5.051-3.612,2.193-6.71,5.118-9.985,7.787C1270.8,617.332,1264.066,620.5,1257.065,623.768Z"/><path class="f" d="M608.168,448.215c-.936,4.929-.691,11.53,4.074,13.1,2.966.98,6.292-.846,7.974-3.477s2.075-5.867,2.265-8.985c.285-4.68-5.424-25.916-5.424-25.916S608.858,444.579,608.168,448.215Z"/><path class="h" d="M1332.438,593c0,13.654,3,27.086-5.2,39.488-7.677,11.6-26.586,13.689-39.23,18.124,40.841,1.964,79.136-10.509,118.716-17.043,14.05-2.319,28.022-5.03,41.975-7.871,11.173-2.274,19.918-7.462,30.775-10.571,20.261-5.8,43.376-3.691,61.348-16.258,3.847-2.69,7.6-7.036,6.332-11.557-1.287-4.6-6.811-6.308-11.511-7.173-34.072-6.271-67.854-4.5-102.32-4.879-35.1-.387-70.271-.4-105.272,2.65A67.165,67.165,0,0,1,1332.438,593Z"/><path class="h" d="M1083.249,610.191l73.963-7.92c4.472-.479,9.138-1.025,12.89-3.506s6.209-7.546,4.266-11.6c1.865,3.894,33.731,1.706,37.848,1.284l50.338-5.155c3.749-.384,7.749-.722,11.086,1.028,8.791,4.613,5.944,15.96,2.987,23.173-3.857,9.411-7.875,10.7-17.506,14.785-16.278,6.9-30.665,5.764-48.358,4.788A841.8,841.8,0,0,1,1083.249,610.191Z"/></svg>