<svg xmlns="http://www.w3.org/2000/svg" viewBox="0 0 1653.716 989.102"><defs><style>.a,.b{fill-opacity:0.4;}.b,.e,.f,.h,.i{stroke:#000;stroke-linecap:round;stroke-linejoin:round;}.b,.e{stroke-width:11.104px;}.c{opacity:0.6;}.d{opacity:0.11;}.e,.f,.h,.i{fill:none;}.f,.h,.i{stroke-width:6.345px;}.g{opacity:0.32;}.h{stroke-dasharray:0.745 5.213;}.i{stroke-dasharray:0.793 5.552;}</style></defs><title>EFimage</title><path class="a" d="M38.191,598.221l52.8,19.709A409.992,409.992,0,0,1,46.279,517.445c-3.014-10.327-4.1-24.353,5.6-29,8.227-3.94,17.511,2.443,24.1,8.751A274.553,274.553,0,0,1,123.7,557.97l4.752-132.5c-19.253-4.032-34.394-19.75-42.794-37.537S74.538,350.291,71.919,330.8q-4.573-34.05-9.148-68.1l39.463,39.785a139.824,139.824,0,0,1,29.277-91.041l7.886,7.883c-4.6,14.29,10.079,30.828,24.814,27.958-6.049,6.39-.151,19.152,8.635,18.686l5.391,33.151,43.017-47.059c2.679,23.913,5.362,47.97,3.875,71.987s-7.378,48.231-20.606,68.332c-13.408,20.376-28.132,31.628-49.357,42.605l-8.9,65.676a152.813,152.813,0,0,1,63.96-52.709c8.931-3.912,20.593-6.481,27.427.474,7.048,7.173,3.868,19.065.24,28.444-7.434,19.219-14.6,38.566-22.31,57.677-6.065,15.044-16.212,20.631-27.38,31.8-9.958,6.7-22.84,9.836-34.238,6.072-3.772-1.245-.585,70.472-.28,74.818.269,3.824,3.263,55.577,7.123,55.054L135.5,705.912a314.118,314.118,0,0,1-2.087-50.962c-.435,10.143-52.848-8.927-57.192-11.7a79.174,79.174,0,0,1-21.644-20.307C49.741,616.217,45.733,601.992,38.191,598.221Z"/><path class="b" d="M1586.336,561.824a25.346,25.346,0,0,1,16.478,21.913c.986,17.19-23.4,24.547-18.748,40.892,1.311,4.608,5.889,7.859,6.743,12.572,2.216,12.235-12.166,11.991-16.726,20.167-7.669,13.748,6.937,25.77,19.877,18.055a19.548,19.548,0,0,0,9.318-17.283,28.04,28.04,0,0,1-17.537,27.023c-32.88,12.5-45.189-40.043-38.152-61.783"/><path class="c" d="M846.8,820.278c.458-9.4-2.837-18.563-6.632-27.175s-8.175-17.088-10.106-26.3c-3.428-16.353,5.543-33.014,15.292-45.739,0,0-51.9-13.29-61.627-15.413-22.5-4.909-46.273-8.479-69.081-3.7-37.568,7.881-68.105,15.076-105.815,7.9-40.73-7.75-78.448-33.734-119.763-30.267-29.683,2.492-56.284,20.067-85.8,24.055-43.219,5.838-108.652-25.348-150.887-25.868-45.385-.559-70.484,26.28-109.911,26.28-44.547,0-61.341-24.006-103.07-21.365l2.15,261.523s798.728,3.5,804.048.9c12.38-8.8,6.3-31.945,1.14-42.515-4.241-8.7-11.426-20.322-12.279-22.592-3.047-8.1-1.619-17.608,1.175-25.562C839.619,843.088,846.209,832.307,846.8,820.278ZM324.939,784.584c-2.571.235-5.607-1.175-8.217-1.663a37.385,37.385,0,0,1-10.195-3.714q-.694-.354-1.4-.725c-4.087-2.142-11.623-1.586-14-6.258-2.922-5.75,1.66-14.691,5.56-18.911,5.2-5.622,12.4-9.874,20.086-10.717,10.328-1.134,21.578,5.291,24,15.789C343.072,768.3,336.23,783.55,324.939,784.584Zm468.555-24.193c-3.426,10.968-8,21.708-14.895,30.9-9.112,12.15-21.2,19.226-35.89,22.307-17.124,3.591-35.067-3.077-52.3-.032a47.563,47.563,0,0,0-29.939,18.78c-6.111,8.465-9.293,18.8-15.639,27.086a23.881,23.881,0,0,1-8.636,7.446,12.687,12.687,0,0,1-11.111.087c-3.37-1.8-5.48-5.451-6.151-9.213a26.456,26.456,0,0,1,.912-11.337c4.16-15.712,14.992-29.075,28.056-38.745a142.593,142.593,0,0,1,18.36-11.706c13.334-7.015,32.52-6.837,47.325-7.411,13.083-.507,26.243-3.031,37.877-9.248,6.244-3.337,10.173-9.7,13.809-15.772q5.1-8.512,10.19-17.024c2.2-3.669,4.9-7.7,9.123-8.407,4.762-.794,9.225,3.4,10.412,8.076S794.933,755.783,793.494,760.391Z"/><path class="d" d="M1606.363,708.2c-271.834,15.967-331.851-51.8-466.7-51.831-69.768-.016-294.316,64.694-294.316,64.694-9.749,12.726-18.719,29.386-15.292,45.739,1.931,9.211,6.311,17.687,10.106,26.3s7.09,17.774,6.632,27.174c-.587,12.03-7.177,22.811-11.169,34.174-2.794,7.954-4.222,17.463-1.176,25.562.854,2.27,8.038,13.894,12.28,22.591,4.975,10.2,10.811,32.114.086,41.539,7.853,0,766.155-4.227,766.155-4.227Z"/><path class="a" d="M1140.7,634.388c-2.594-20.358-4.8-40.712-6.871-61.261-2.314-23.723-4.429-48.737,5.464-70.422a14.731,14.731,0,0,0,16.63,4.5c2.5-1,5.782-2.51,5.374-5.72-.2-1.541-.914-3.013-.863-4.566.128-3.866,4.64-5.908,8.467-6.473a22.027,22.027,0,0,1,11.542.937c3.614,1.483,6.707,4.627,7.346,8.481.678,4.082-1.32,8.637.733,12.23,2.025,3.541,6.8,4.129,10.883,4.237,10.077.268,25.3-3.843,28.62,9.291,3.652,14.459-13.178,21.415-20.564,29.792-3.582,4.064-5.813,9.718-4.447,14.96,1.309,5.022,5.57,8.741,7.569,13.53,2.646,6.341.947,13.7-2,19.643-1.218,2.457-7.425,15.69-9.4,16.1,17.142-3.607,31.159-16.765,39.349-32.25s11.254-33.151,12.865-50.594c.908-9.839,1.385-19.834-.479-29.538-5.015-26.121-27.777-40.085-53.5-39.248-20.4.664-39.8,10.4-54.853,24.179,2.208-2.021,2.148-16.895,2.888-20.409a158.608,158.608,0,0,1,26.015-59.233c7.781-10.9,17.937-18.319,26.272-28.4,9.139-11.05,20.163-20.714,33.042-27.16,16.537-8.277,36.344-10.885,53.789-4.751a12.323,12.323,0,0,0,8.122,22.753c-6.28,3.574-8.367,11.775-7.807,18.979s3.115,14.151,3.56,21.363c.634,10.261-3.021,20.248-4.478,30.424s-.007,22,8.19,28.2c-2.4-4.709-.532-10.642,2.893-14.669s8.148-6.671,12.5-9.673,8.6-6.7,10.237-11.732c3.746-11.513-7.506-24.929-1.561-35.476,2.607-4.626,7.886-7.135,10.965-11.461,4.831-6.787,2.987-16.616-2.055-23.248s-12.105-9.549-18.729-14.134c-5.972-4.134-8.558-10.831-12.931-16.467-11.524-14.855-33.823-17.517-51.566-11.3-7.075,2.481-12.214,5.234-17.37,10.763-4.268,4.576-8.085,9.927-14.039,12.444-2.219.938-4.628,1.419-6.758,2.547-5.482,2.9-7.934,9.309-9.944,15.179,10.511-21.42-2.671-47.885,4.453-70.656,2.539-8.117,7.558-15.319,9.8-23.524a22.777,22.777,0,0,0-3.067-19.445c-4.341-6.272-9.256-6.356-16.571-5.855-14.831,1.016-29.33-3.879-43.881-6.926s-30.741-3.984-43.274,4.012-17.941,27.857-7.067,37.994c-1.635-5.345.937-11.289,5.057-15.065s9.536-5.778,14.884-7.4c7.744-2.351,16.142-4.035,24.249-2.9,8.884,1.249,12.245,6.938,18.994,12.128,3.585,2.756,7.022,6.913,6.013,11.321-.564,2.464-2.415,4.4-3.579,6.646-2.386,4.6-1.722,10.258.21,15.069s5.007,9.06,7.515,13.6c11.852,21.432,9.738,49.8-5.159,69.236-2.448-6.121-3.911-13.467-7.559-18.848-3.906-5.76-10.259-10.723-15.982-14.546-11.16-7.454-26.04-12.862-39.665-11.159-28.32,1.958-53.926,27.228-53.676,55.615.046,5.16,1.027,10.662,4.588,14.4s10.339,4.678,13.727.785c4.606-5.292.153-14.648,4.638-20.042,6.255-7.521,21.269,1.481,27.4-6.14,4.4-5.473-.592-13.669.894-20.534,2.061-9.517,16.023-11.582,23.913-5.875s11.229,15.63,14.634,24.753,8.093,18.865,17.044,22.7l-30.658,62.331c-1.272-24.389-20.306-46.759-44.177-51.918s-49.4,6.353-65.05,25.125c-11.979,14.373-23.125,37.956-22.821,57.033.194,12.251,4.444,24.77,4.737,37.289.1,4.074,1.152,33.816-2.626,35.185,10.527-3.814,14.543-16.49,15.864-27.608s1.816-23.445,9.581-31.511c3.359-3.49,7.983-6.035,9.874-10.495,2.406-5.679-.52-12.067-3.221-17.611s-5.205-12.268-2.116-17.605c3.675-6.35,12.685-6.557,19.924-5.361s15.6,2.709,21.145-2.094c2.932-2.539,4.381-6.363,6.808-9.387s6.9-5.241,10.114-3.071c1.559,1.054,2.389,2.87,3.144,4.593,4.027,9.188,6.579,17.453,14.6,23.806,6.83,5.413,15.063,9.465,23.851,10.129-8.26,19.686-10.247,43.116-7.778,64.206-.06-.517-8.1-5.18-9.107-6.162a35.577,35.577,0,0,1-7.129-10.551c-3.669-7.68-7.417-14.1-15.56-17.813-10.989-5.016-25.855-1.233-34.5,7.042-3.932,3.762-2.418,10.92-.589,15.46,1.892,4.7,5.88,9.128,4.825,14.081-1.089,5.117-7.238,8.167-7.79,13.369-.7,6.564,7.282,10.008,13.351,12.606s12.122,10.6,7.066,14.844c6.221-1.762,8.317-10.032,6.249-16.159-3.067-9.082-12.74-12.736-16.067-21.967-2.089-5.795-1.482-12.835,2.687-17.37,5.107-5.554,14.325-5.832,20.833-2.017s10.577,10.837,12.719,18.071,2.628,14.835,3.681,22.306c1.13,8.01,2.594,17.529,9.433,22.372,1.418,1,13.228,7.467,13.018,2.87.975,21.163,7.425,40.891,10.519,61.673a1.689,1.689,0,0,0,2.288,1.745l15.023-1.546Q1142.449,648.161,1140.7,634.388Z"/><path class="a" d="M426.85,492.216l18.409,37.126a101.6,101.6,0,0,0-54.939,17.03c23.173,7.388,45.724,5.153,67.424,19.36,7.491,4.9,14.365,10.851,22.475,14.645s18.082,5.137,25.805.608c-2.089,1.226,2.532,42.051,2.787,47.569.8,17.189.99,34.479-2.812,51.369a45.282,45.282,0,0,1,27.081,6.266c15.075-18.7,43.6-17.759,64.948-28.767,30.932-15.95,44.049-55.543,75.057-71.345a62.322,62.322,0,0,0-39.97-.351l27.636-79.912c.9-2.6,1.7-5.769-.083-7.86-1.953-2.286-5.582-1.672-8.458-.793-31.623,9.655-54.663,29.026-77.82,52.626,3.93-22.13,8.6-45.418,2.948-67.372a235.474,235.474,0,0,1-45.174,76.765c3.762-27.775,7.567-55.74,16.422-82.333s23.166-52.029,44.8-69.848,51.27-27.134,78.462-20.336C641.97,363.169,599.816,356.3,564.025,369.1c-.17-8.247-.723-15.749.616-23.847a109.9,109.9,0,0,0,1.154-23.793c-.847-15.84-4.456-31.4-8.678-46.641a615.067,615.067,0,0,0-29.084-81.954c-4.135,4.052-4.763,8.363-6.675,13.447-1.745,4.643-4.96,9.137-7.217,13.628a294.854,294.854,0,0,0-30.579,112.111q-.657,9.724-.661,19.479c0,2.3-1.1,17.729.611,18.7a112.824,112.824,0,0,1-48.536-55.566c-13.56,41.055,3.352,90.169,39.315,114.171,8.955,5.976,18.881,10.478,27.347,17.19,8.838,7,9.589,21.243,7.192,31.409-3.112-1.563-4.176-4.653-6.155-7.3-2.887-3.868-6.367-7.429-9.608-11-6.616-7.289-13.517-14.321-20.735-21.015-7.864-7.294-16.846-13.26-25.413-19.672-3.731-2.793-6.548-4.932-9.4-8.5-1.7-2.127-8.553-10.073-8.46-12.64-.556,15.928,3.09,34.535,14.848,46.028-8.18-2.876-16.557-5.787-25.228-5.774s-17.845,3.513-22.381,10.9c13.575,9.9,21.529,25.55,28.993,40.6Z"/><path class="e" d="M39.393,682.693c34.97-5.475,67.675,20.987,103.07,21.365,27.477.293,51.606-14.693,77.339-21.993,26.19-7.429,53.67-4.1,79.612,3.016,26.45,7.252,52.6,17.863,80.021,17.746,41.895-.179,81.152-25.43,122.975-22.975,27.431,1.61,52.158,14.793,77.723,23.5,25.548,8.7,55.842,11.318,82.734,8.715,20.992-2.032,41.684-9.017,62.8-11.981,45.708-6.416,91.028,19.788,111.75,20.983,13.519.78,134.72-32.383,161.776-39.438a785.917,785.917,0,0,1,124.325-21.946c20.69-1.954,40.636-4.19,61.083-.483,21.49,3.9,42.743,8.976,63.974,14.07a1694.589,1694.589,0,0,0,180.494,33.126c58.562,7.486,118.1,4.1,177.292,1.808"/><path class="e" d="M1127.851,658.4c-10.914-38.26-15.931-84.988-14.113-124.731,1.712-37.452,15.867-75.571,31.88-109.332,6.829-14.4,15.86-28,22.131-42.613,3.779-8.807,4.37-19.078,5.933-28.486,3.918-23.587-17.088-40.8-13.729-63.2.756-5.042,3.06-9.936,2.546-15.009-1.016-10.047-12.174-15.644-22.1-17.492-16.024-2.982-32.808-.121-42.033,14.843a35.222,35.222,0,0,0,1.22,37.922c-5.222-11.331-10.453-23-11.325-35.447s3.493-26.016,13.926-32.858c10.263-6.731,23.772-5.586,35.633-2.432s23.493,8.091,35.766,8.189c11.2.088,24.627-3.088,31.886,5.436,3.727,4.375,4.351,10.7,3.272,16.343s-3.634,10.88-5.676,16.252a93.6,93.6,0,0,0-5.975,36.553c.3,8.163,4.71,34.956-8.151,47.931"/><path class="e" d="M1143.881,653.557a347.645,347.645,0,0,1-8.135-39.543,356.6,356.6,0,0,1,2.61-118.237c6.245-32.655,20.992-58.072,38.842-85.8,32.4-50.339,86.336-86.643,142.947-48.015,6.957,4.748,13.881,12.765,10.957,20.665-2.734,7.386-12.434,9.713-16.57,16.415-6.843,11.087,5.135,25.608,1.546,38.131-1.777,6.2-7.034,10.655-11.925,14.857s-9.953,9.021-11.074,15.371,4.12,13.985,10.427,12.648c-8.6,1.813-16.844-5.915-18.962-14.446s.161-17.458,2.259-25.994,4-17.643,1.191-25.971c-4.19-12.418-7.718-21.235,1.234-30.807a23.275,23.275,0,0,0,3.629-4.28,5.155,5.155,0,0,0,.131-5.335c-2.912-4.18-10.43.871-14.4-2.321-2.783-2.237-1.655-6.744.288-9.739s4.583-6.08,4.1-9.617"/><path class="e" d="M321.327,763.373a7.342,7.342,0,0,0-8.733,3.559c-7.159,14.547,11.524,20.923,21.4,13,9.015-7.238,6.79-21.053.884-29.59C328.7,741.409,315.232,739.4,305.7,744.6s-15.038,16.142-15.63,26.983c-.065,1.189.223,1.412,1.152,2.157a7.354,7.354,0,0,0,3.322,1.212l15.073,2.857"/><path class="f" d="M1337.974,823.831l.791-.792"/><path class="f" d="M1335.712,804.952l1.583-1.582"/><path class="f" d="M1359.338,827h.791"/><path class="f" d="M1298.411,833.326l1.583.791"/><path class="f" d="M1284.023,844.44l.8,3.164"/><path class="f" d="M1232.737,869.723l.792.791"/><path class="f" d="M1253.371,732.085l1.569-2.382"/><path class="f" d="M1269.926,747.079h.792"/><path class="f" d="M1408.4,758.156l.791-1.582"/><path class="f" d="M1414.726,777.147h1.582"/><path class="f" d="M1341.746,748.564l.824-1.565"/><path class="f" d="M1411.537,878.36l2.358-.836"/><path class="f" d="M1387.823,876.053V873.68"/><path class="f" d="M991.405,789.015l1.583,2.374"/><path class="f" d="M960.546,796.928v.791"/><path class="f" d="M985.731,815.175l.84,2.356"/><path class="f" d="M1046,708.308l.791,1.582"/><path class="f" d="M1004.721,722.6l.84,2.357"/><path class="f" d="M1103.763,860.228h.791"/><path class="f" d="M1072.9,867.349l.791,1.583"/><path class="f" d="M1014.351,827.787v1.582"/><path class="f" d="M904.367,785.85v1.583"/><path class="f" d="M880.727,781.287l1.565-.824"/><path class="f" d="M910.7,834.117l1.583,1.582"/><path class="f" d="M860.011,865.006l1.559,2.389"/><path class="f" d="M935.414,872.945l-.72,2.395"/><path class="f" d="M956.738,719.423l.817-3.158"/><path class="f" d="M1100.6,686.152l.791,1.583"/><path class="f" d="M1190.01,717.011l.791-1.582"/><path class="e" d="M1163.707,493.286c.287-.227.6-.455.935-.686,4.623-3.154,14-3.821,17.7,1.112,3.255,4.346.79,11.989,5.024,16.606,9.235,10.072,29.165-3.353,38.8,6.333,4.942,4.966,3.806,13.581-.146,19.366s-10.014,9.711-15.172,14.452-9.719,11.16-9.029,18.132c.691,6.991,6.473,12.623,7.44,19.581,1.391,10-7.324,18.5-9.428,28.375-2.314,10.858,4.828,22.89,15.469,26.059s23.2-3,27.2-13.353c-3.909,4.961-8.913,9.373-15.01,11.02s-13.385-.067-16.972-5.266c-4.407-6.387-1.871-15.438,2.97-21.5s11.588-10.31,16.912-15.956c10.909-11.571,14.908-27.844,18.5-43.336,2.453-10.577,4.922-21.312,4.453-32.16a60.112,60.112,0,0,0-23.094-44.536,58.522,58.522,0,0,0-49.021-10.229c-8.77,2.2-19.657,5.962-26.456,12.2-8.338,7.648-12.389,19.134-17.834,28.787,2.311-4.1,17.79,11.555,22.205-3.353C1160.64,499.93,1159.33,496.757,1163.707,493.286Z"/><path class="e" d="M1083.97,450.432c-1.879-4.651-5.083-7.979-12.388-4.507-6.475,3.077-7.192,12.664-13.233,16.524-9.158,5.852-22.386-5.58-31.607.173-6.6,4.117-6.026,13.877-3.689,21.294s5.575,15.731,1.852,22.558c-2.691,4.937-8.4,7.6-11.3,12.411-3.3,5.464-2.3,12.345-2.395,18.724-.274,19.585-11.54,37.1-22.409,53.391,7.964-15.083,8.285-33.013,6.66-49.993s-5.011-33.939-3.78-50.952c1.709-23.631,13.083-46.9,32.244-60.841s46.132-17.37,67.207-6.545c28.83,14.808,34.657,46.51,27.46,76.138,2.414-6.025.892-13.583-4.483-17.222-3.434-2.325-7.673-3.049-11.513-4.612a28.512,28.512,0,0,1-16.28-18.631A77.051,77.051,0,0,0,1083.97,450.432Z"/><path class="e" d="M1152.292,407.7a44.421,44.421,0,0,1-18.469-29.8c-.978-6.763-.488-14.108-4.158-19.872-3.038-4.771-8.4-7.524-13.73-9.423-13.2-4.7-28.046-5.4-41.176-.517s-24.258,15.674-28.187,29.122.083,29.24,10.865,38.186"/><path class="e" d="M1069.992,414.514a14.51,14.51,0,0,1,4.791-26.123c3.414-.812,6.98-.363,10.487-.233s7.229-.13,10.121-2.115c11.63-7.987-15.63-16.369,2.264-26.975,4.938-2.927,11.135-3.074,16.7-1.659s10.645,4.249,15.654,7.053"/><path class="e" d="M1091.654,344.791c13.781-.645,28.483-3.694,41.444,1.032s27.324,20.423,27.763,34.212"/><path class="f" d="M1182.067,432.5a7.568,7.568,0,0,1,3.365,2.362,6.573,6.573,0,0,1,11.514-6.28c-2.26-3.171-.487-8.081,2.979-9.856s7.851-.857,11.011,1.418,5.3,5.692,7.06,9.165c1.021-4.9,8.548-5.941,12-2.312s3.179,9.577.953,14.06c6.047-.982,11.6,6.468,8.924,11.981-6.65,13.721-22.45-5.51-11.721-7.8-5.156,1.1-10.49-4.387-9.244-9.509a8.3,8.3,0,0,1-16.525.646c3.4,2.744,2.77,8.989-1.106,11s-9.345-1.069-9.634-5.426A7.2,7.2,0,1,1,1179.2,448.6a8.182,8.182,0,1,1-11.589,11.414l1.306,8.841a15.683,15.683,0,0,1-12.561-.109c2.492,1.133,1.747,8.057.45,9.728-2.034,2.62-10.67,3.239-13.811,4.076-3.067.817,3.4-14.9,4.459-16.448,3.48-5.087,7.842-11.131,14.512-11.759a7.715,7.715,0,0,1,10.783-10.023,7.846,7.846,0,0,1,9.316-11.822Z"/><path class="e" d="M1114.667,603.851c-8.134-1.348-14.24-8.54-17.064-16.287s-3.06-16.149-3.958-24.346-2.654-16.694-7.873-23.078c-5.795-7.088-16.27-10.528-24.635-6.808s-12.726,15.207-7.765,22.9c3.419,5.306,9.883,7.737,14.361,12.185a20.994,20.994,0,0,1-20.118,35.2c5.112-1.383,10.412-2.863,14.42-6.325s6.3-9.521,3.826-14.2c-2.416-4.572-8.075-6.09-13.011-7.631s-10.463-4.458-11.041-9.6c-.756-6.729,7.616-11.869,7-18.613-.326-3.6-3.157-6.426-4.422-9.809-1.8-4.8-.179-10.4,3.079-14.356s7.926-6.5,12.7-8.373c9.118-3.579,20.459-4.675,27.885,1.712,5.091,4.378,7.134,11.207,9.705,17.409s6.614,12.681,13.147,14.232"/><path class="f" d="M1236.561,308.012c-.69-5.775,6.787-10.642,11.789-7.673-.073-5.142,6.936-8.74,11.072-5.684,1.832-2.989,3.883-6.167,7.145-7.453s7.9.605,7.94,4.111c.023,2.373-2.077,4.339-4.363,4.973s-4.716.245-7.055-.147a8.531,8.531,0,0,1-11.8,10.766c-.409,5.474-7.657,9.058-12.255,6.059,3.07,3.807-.441,10.621-5.322,10.333.094,0-4.654,11.509-12.023,10.152,2.037,6.854-3.542,12.335-10.354,10.877-.041,13.965-11.9,5.363-8.807-4.52,1.656-5.293,5.935-6.281,9.38-10.292,3.8-4.424,5.267-13.552,13.194-10.216C1225.06,313.264,1230.161,307.3,1236.561,308.012Z"/><path class="e" d="M482.053,369.158c-11.752-8.473-23.748-17.191-31.935-29.144s-11.951-27.988-5.829-41.119c-21.445,40.081-9.489,94.931,26.692,122.451,10.119,7.7,21.8,13.432,30.766,22.44,17.731,17.8,4.706,37.869,3.039,59.359-2.208,28.475.572,57.418,1.042,85.714.5,30.294,7.041,58.606.021,88.919"/><path class="e" d="M533.886,627.154c-1.33-35.449-3.55-75.147,2.139-110.162s18.932-69.7,43.285-95.492a134.846,134.846,0,0,1,63.583-37.662c10.862-2.836,24.41-3.43,31.228,5.488-27.515-30.092-77.289-36.614-111.629-14.629"/><path class="e" d="M511.64,436.016c-26.767-33.205-33.079-79.255-26.5-121.393s24.667-81.483,42.555-120.2"/><path class="e" d="M537.193,207.208c-3.1,14.792,3.83,29.662,10.819,43.062,29.777,57.087,13.187,143.847-13.557,199.887"/><path class="e" d="M513.849,434.643c-7.044-6.68-7.122-18.019-4.233-27.287s8.166-17.722,10.376-27.174c2.271-9.717,1.163-19.866,1.771-29.827s3.472-20.631,11.434-26.646c-3.342,8.453.583,17.8,3.32,26.468,10.885,34.463,2.646,71.712-5.644,106.89"/><path class="f" d="M519.525,209.329c-6.814-10.1-6.061-29.978-3.961-39.5,1.23-5.581,3.5-11.284,8.093-14.69s11.958-3.5,15.415,1.046c1.148-6.371,5.337-12.342,11.356-14.726s13.7-.544,17.295,4.837,1.868,13.838-3.938,16.7c4.688-.181,9.467-.351,13.981.923s8.8,4.258,10.431,8.657-.25,10.151-4.646,11.788c5.363,1.852,10.921,3.822,14.95,7.817s6.03,10.645,3.033,15.462-11.76,5-13.659-.35c1.8,5.916,5.231,11.179,7.778,16.812s4.2,12.115,2.209,17.966-8.8,10.318-14.506,7.94c2.375,3.536,4.8,7.2,5.622,11.376s-.375,9.058-3.96,11.359c-5.006,3.212-12.127-.317-14.748-5.656s-1.985-11.644-1.078-17.523a15.489,15.489,0,0,1-2.089-26.228c-7.174-4.223-9.949-14.511-5.873-21.769-3.893,6.931-14.784,13.217-24.775,14.337"/><path class="e" d="M503.056,556.973c-19.446-10.131-31.88-21.975-54.543-24.245-28.767-2.882-51.739,5.564-74.041,23.707,18.965-6.583,43.135-9.525,61.693-.141,16.176,8.179,30.8,19.65,47.9,26.549,3.817,1.541,7.827,2.875,11.943,2.777s6.8-1.865,8.984-5.357"/><path class="e" d="M398.285,452.65c29.572,16.206,25.14,57.508,48.746,79.125"/><path class="f" d="M414.949,434a10.7,10.7,0,0,0-19.052.022,10.524,10.524,0,0,0-11.55-1.779c-8.726,4.253-8.26,20.953.691,24.721-7.121-3-14.278,10.942-13.3,16.072a9.834,9.834,0,0,0,6.1,7.222,12.712,12.712,0,0,0,.128,25.375c-5.076,1.3-7.919,7.544-6.316,12.533,2.952,9.192,15.039,10.594,22.118,5.511a12.512,12.512,0,0,0,5.336-10.944c-.386-4.229-3.7-8.168-7.9-8.788a12.878,12.878,0,0,0,4.125-23.394c4.765,1.3,10.2-2.762,10.3-7.7a11.311,11.311,0,0,0,10.344,9.906"/><path class="e" d="M438.287,431.506c-6.583-13.495-7.9-22.846-8.641-37.842,0,.176.233-.715.233-.539,0,14.425,15.058,24.362,26.018,33.74s22.889,17.715,32.7,28.289,17.53,24,17.639,38.426"/><path class="e" d="M530.705,640.011c13.81-65.536,62.17-122.754,124.489-147.291"/><path class="e" d="M535.728,665.234A174.125,174.125,0,0,0,612.913,567.2c.167,26.586-11.041,52.06-25.471,74.389-6.121,9.47-12.938,18.636-21.564,25.9s-19.237,12.551-30.488,13.3"/><path class="e" d="M663.163,507.812c-14.9,8.282-17.708,45.079-20.139,54.4-7.225,27.717-20.873,47.156-44.16,63.8"/><path class="e" d="M634.96,588.066a53.229,53.229,0,0,1,43.229-1.713c-12.587-.948-24.271,7.061-32.352,16.757s-13.658,21.24-21.39,31.218c-14.966,19.314-34.688,33.082-59.524,34.727"/><path class="e" d="M532.9,596.272c-.617-21.515,8.093-42.162,18-61.273s21.276-37.787,26.734-58.609a195.226,195.226,0,0,1-3.238,73.4"/><path class="f" d="M652.411,488.9a12.357,12.357,0,0,1,24.144,4.481c5.446-5,15.434-3.436,19.083,3s-.125,15.811-7.214,17.92a12.958,12.958,0,0,1,5.841,23.663c6.071,5.238,4.133,16.809-3.313,19.783a9.06,9.06,0,1,1-9.871,2.382,10.286,10.286,0,0,1-1.88-19.978c-4.02-2.725-4.29-9.491-.5-12.528A12.851,12.851,0,0,1,664.8,510.3"/><path class="e" d="M650.1,805.268c-13.8,10.6-29.953,27.261-31.783,45.319-.514,5.074.1,10.707,3.684,14.335,3.447,3.489,9.045,4.261,13.7,2.706s8.415-5.11,11.169-9.167c4.474-6.592,6.565-14.491,10.252-21.553,6.873-13.164,24.615-20.629,38.649-22.961,11.6-1.928,22.338-.758,33.879.491,9.513,1.029,16.033-1.123,24.773-5.859a86.287,86.287,0,0,0,38.2-42.314c2.555-6.138,4.385-13.105,2.142-19.364s-10.052-10.783-15.814-7.466c-4.422,2.545-5.759,8.142-7.409,12.969a53.078,53.078,0,0,1-26.128,29.922c-20.417,10.235-43.587,1.452-65.2,7.751A91.708,91.708,0,0,0,650.1,805.268Z"/><path class="f" d="M634.071,835.8a20.169,20.169,0,0,1,14.66,10.738"/><path class="f" d="M646.638,821.011a25.554,25.554,0,0,1,13.8,10.431"/><path class="f" d="M660.966,811.842a20.759,20.759,0,0,1,8.881,8.574"/><path class="f" d="M678.519,803.241a21.324,21.324,0,0,1,8.127,12.437"/><path class="f" d="M699.439,797.692a13.91,13.91,0,0,1,4.148,12.678"/><path class="f" d="M722.956,796.982a24.771,24.771,0,0,1,3.716,14.967"/><path class="f" d="M741,794.642c3.962,4.138,6,8.461,5.425,14.161"/><path class="f" d="M760.094,786.072a14.884,14.884,0,0,1,8.9,12.179"/><path class="f" d="M772.736,775.568a12.491,12.491,0,0,1,8.444,4.741"/><path class="f" d="M781.7,760.267a12.212,12.212,0,0,1,6.33,3.165"/><path class="f" d="M533.6,267.04a530.7,530.7,0,0,1,25.553,66.513q2.969,9.608,5.57,19.324"/><path class="f" d="M486.163,344.218a293.125,293.125,0,0,1,35.147-77.236"/><path class="e" d="M1344.032,693.237c-3.235-28.961-6.473-58.184-3.533-87.176s12.582-58.127,32.186-79.687c8.945-9.836,20.232-25.8,8.976-38.28-4.767-5.285-12.092-7.807-19.21-7.79-3.194.008-6.521.537-9.116,2.4s-4.232,5.327-3.2,8.35c1.464,4.284,7.143,5.709,9.206,9.74a7.142,7.142,0,0,1-4.29,9.7"/><path class="e" d="M1337.175,632.373c-4.118-1.2-7.524-4.04-10.788-6.824-4.5-3.843-9.576-9.6-15.736-7.693-6.028,1.87-9.3,10.63-7.1,16.147,2.338,5.862,8.769,9.368,10.962,15.285a12.185,12.185,0,0,1-21.2,11.507"/><path class="e" d="M1345.016,584.223c-.608,4.918,4.27,9.059,9.169,9.8,12.892,1.957,23.221-3.5,31.866,10.7a24.691,24.691,0,0,1,2.2,20.644"/><path class="e" d="M1127.851,658.4c9.569,25.01-4.286,62.617-27.214,76.451-4.2,2.536-9.275,5.268-9.938,10.132-.863,6.333,6.551,11.5,5.912,17.856-.369,3.666-3.306,6.454-5.208,9.61-4.88,8.1-2.044,19.891,5.988,24.886"/><path class="e" d="M1145.472,657.971c-2.325,5.785,5.005,18.193,7.557,23.881s5.9,11.173,6.81,17.341c1.972,13.346-5.629,26.241,1.036,39.131,6.325,12.233,18.305,20.344,23.287,33.678,3.748,10.032,3.487,21.033,4.409,31.7s3.469,21.974,11.282,29.3"/><path class="e" d="M1121.25,713.458c-2.754,23.463,24.651,42.514,21.933,65.981-.928,8.013-5.337,15.145-9.743,21.9s-9.021,13.695-10.456,21.632,1.217,17.234,8.337,21.026"/><path class="e" d="M1184.812,775.471c-3.681,10.638-10.85,19.649-16.337,29.478s-9.346,21.628-5.66,32.264"/><path class="e" d="M505.847,680.052c-4.188,6-4.922,13.751-4.593,21.063s1.581,14.632.823,21.911c-1.179,11.314-7.109,21.573-13.8,30.771s-14.319,17.794-19.72,27.806-8.426,21.967-5.072,32.836c3.052,9.891,11.2,18.82,9.632,29.051-.652,4.243-2.96,8.053-4.007,12.215s-.342,9.389,3.422,11.454"/><path class="e" d="M536.161,686.537c-3.709,6.824-1.132,15.373,2.724,22.115s9,12.989,10.7,20.569c3.146,14.088-6.449,28.029-6.312,42.464.19,19.953,18.207,34.857,25.158,53.561,1.608,4.327,2.634,8.9,4.862,12.947s6.03,7.614,10.634,7.956"/><path class="e" d="M531.619,852.268c4.539-.253,7.092-5.99,5.77-10.34s-5.135-7.415-8.862-10.018-7.736-5.2-9.846-9.229c-1.8-3.425-1.973-7.438-2.113-11.3-.443-12.3-.3-26.167,8.487-34.789,8.148-8,16.021-11.926,20.874-23.181"/><path class="e" d="M497.186,816.965c-6.737-8.109-13.727-16.753-15.424-27.159-1.927-11.813,1.395-25.19,6.513-36.009"/><path class="e" d="M438.481,843.045c-5.609-5.223-7.046-13.9-4.978-21.285s7.135-13.59,12.889-18.654,12.268-9.181,18.3-13.906"/><path class="e" d="M597.1,797.412c-8.052.931-15.472-5.052-19.527-12.071s-5.725-15.132-8.81-22.628c-4.614-11.216-11.6-24.026-19.184-33.492"/><path class="e" d="M517.489,753.28c.828-9.909,24.249-17.279,21.4-44.628"/><path class="e" d="M449.905,757.644c4.369-5.952,12.374-7.54,19.412-9.767a74.776,74.776,0,0,0,31.39-19.58"/><path class="f" d="M1160.068,367.639c-2.766-1.821-2.415-5.936-1.566-9.137s1.715-7.074-.593-9.45c-1.4-1.441-3.553-1.807-5.275-2.843-4.819-2.9-4.9-9.734-4.393-15.335a6.594,6.594,0,0,1-11.955-5.473,6.6,6.6,0,0,1-11.824-4.748c2.4,3.471.153,9.09-3.982,9.941s-8.422-3.424-7.583-7.562,6.452-6.4,9.929-4.01c-2.347-4.043.395-10.033,4.989-10.9s9.329,3.714,8.615,8.334a8.33,8.33,0,0,1,15.6,5.31,8.786,8.786,0,0,1,8.8,13.356,16.671,16.671,0,0,1,10.556,17.837"/><path class="e" d="M1229.476,330.336c16.249-5.178,37.9-11.215,53.186-3.656,14.416,7.128,14.316,23.061,30.747,30.987"/><path class="b" d="M785.125,532.664c3.691-19.489,2.2-37.571,1.988-57-.144-13.525-2.54-27.523-10.551-38.753l-1.6,44.838A127.416,127.416,0,0,0,744.882,429.6c-13.2,36.535,8.094,79.659,38.369,104"/><path class="b" d="M784.193,594.819c33.55-13.853,50.984-50.664,50.643-85.874-.007-.758-16.9,7.219-18.33,8.236-19.979,14.189-30.109,38.167-32.545,61.943"/><path class="e" d="M781.592,704.133c-.688-21.7-.475-41.849.187-63.549.494-16.225,1.244-32.44,2.06-48.652.968-19.209-2.994-38.856.895-57.794"/><path class="b" d="M788.018,600.437a54.476,54.476,0,0,0,43.179-8.922c-10.218,2.146-20.448-.073-29.839-4.636"/><path class="b" d="M782.045,638.409a78.37,78.37,0,0,0-41.009-43.757c-1.951-.869-18.762-7.3-18.707-6.939,4.991,32.6,27.375,58.751,59.212,68.01"/><path class="e" d="M779.167,658.289a79.474,79.474,0,0,1-58.419-17.673"/><path class="f" d="M726.45,586.425a12.27,12.27,0,0,0-23.908,5.531,8.487,8.487,0,0,0,1.475,16.473c-3.041,2.153-5.333,5.621-5.312,9.346s2.811,7.466,6.516,7.859,7.435-3.406,6.4-6.984c-.315-1.086-1-2.224-.552-3.264.393-.924,1.478-1.284,2.322-1.826a5.156,5.156,0,0,0,.091-8.194,12.638,12.638,0,0,0,9.2-6.94"/><path class="f" d="M743.238,426.928a6.538,6.538,0,1,0-12.213-3.86c-2.453-2.246-6.893-.789-8.253,2.245s-.13,6.753,2.2,9.128a6.912,6.912,0,0,0-1.386,13.225,15.491,15.491,0,0,0-4.629,7.9,9.089,9.089,0,0,0,2.574,8.5c2.335,2.038,6.232,2.265,8.466.117s1.86-6.518-.926-7.875a9.181,9.181,0,0,0,7.842-6.941c.541-2.415.062-4.956.477-7.395s2.3-5.011,4.766-4.752"/><path class="f" d="M832.51,505.038c-1.038-4.759,3.342-9.884,8.205-9.6s8.616,5.884,7.032,10.489a9.026,9.026,0,0,1,3.283,16.618,7.238,7.238,0,0,1-2.707,13.5c5.548,2.063,6.92,12.014,1.752,15.457-6.91,4.6-5.176-7.478-4.522-7.42a8.988,8.988,0,0,1-7.27-12.909"/><path class="e" d="M896.52,672.894c2.384-4,1.762-9.177-.127-13.431s-4.889-7.9-7.333-11.861-4.383-8.543-3.766-13.156,4.58-9.01,9.223-8.692c4.937.339,8.71,4.384,13.294.048,2.409-2.279,3.569-5.533,4.937-8.554s3.239-6.118,6.309-7.372,7.43.481,7.613,3.792"/><path class="e" d="M966.9,531.955c-11.48,2.921-17.5-11.939-10.96-19.8,1.811-2.178,3.894-4.328,4.525-7.089,1.688-7.38-11.908-8.118-14.143-15.075-2.189-6.811.126-16.6-9.612-18.088a13.323,13.323,0,0,0-11.2,4.139,21.973,21.973,0,0,0-5.43,10.963c-2.395,11.369-1.1,23.192,2.4,34.183,4.7,14.742,12.374,28.526,15.674,43.644,2.262,10.361,2.281,21.578-1.353,31.637-6.013,16.643-13.105,31.182-14.885,49.174a125.407,125.407,0,0,0,6.159,53.326"/><path class="e" d="M320.318,512.272a526.211,526.211,0,0,0-4.036,73.24c.524,36.005,2.506,71.336,9.48,106.9"/><path class="b" d="M319.66,517.759c-20.565-24.346-18.778-70.872-5.429-98.268-2.865,5.88,7.6,15.474,10.331,19.68a65.527,65.527,0,0,1,10.032,34.544,67.106,67.106,0,0,1-14.231,41.675"/><path class="e" d="M324.423,512.411a71.8,71.8,0,0,0,31.558-45.446"/><path class="b" d="M311.026,606.88c-25.115-10.205-41.341-38.771-37.245-65.569,18,5.568,35.4,20,41.675,37.763"/><path class="b" d="M319.1,631.69c10.763-28.973,30.515-47.5,63.309-47.6-4.809,30.274-32.341,59.687-62.08,67.113"/><path class="b" d="M320.324,655.173c20.093-12.275,56.889-21.318,79.7-15.476-4.694-12.166-18.523-20.062-31.386-17.923"/><path class="e" d="M255.809,590.381a250.933,250.933,0,0,1,56.88,19.2"/><path class="e" d="M316.464,591.407c3.737-17.051,13-32.642,26.993-43.078"/><path class="f" d="M308.538,414.217a8.245,8.245,0,0,1,16.336,1.449,8.079,8.079,0,0,1,11.613,10.265,17.4,17.4,0,0,1,7.051.472c2.237.793,4.226,2.789,4.241,5.162s-2.674,4.565-4.8,3.513c5.252,1.764,6.955,9.743,2.88,13.5s-11.887,1.406-13.216-3.973"/><path class="f" d="M275.623,536.583a7.5,7.5,0,1,0-14.925-.45,6.853,6.853,0,1,0-5.782,12.384c-3.3,1.727-6.2,4.9-6.2,8.625s4.152,7.23,7.5,5.593a20.178,20.178,0,0,0-3.645,8.6c-.368,3.12.636,6.555,3.166,8.417s6.641,1.532,8.33-1.117-.448-6.968-3.579-6.7a8.853,8.853,0,0,0,10.022-4.757"/><path class="e" d="M727.14,503.591a161.758,161.758,0,0,1,59.08,35.323"/><path class="f" d="M378.333,579.811c.286-5.138,6.389-9.014,11.161-7.088s6.476,8.953,3.115,12.85a6.228,6.228,0,0,1-1.068,12.309c4.706,2.42,4.154,10.732-.832,12.507,4.164-2.586,10.25,2.033,9.48,6.874s-6.963,7.605-11.429,5.584-6.613-7.659-5.422-12.414a16.735,16.735,0,0,1-5.045-14.729"/><path class="f" d="M466.177,497.176A143.283,143.283,0,0,1,504.1,516.2"/><path class="f" d="M424.052,492.172a86.834,86.834,0,0,1,20.813.19"/><path class="f" d="M543.783,596.17C555.4,571.655,580,556.705,604.754,548.058c8.053-2.813,16.283-5.091,24.558-7.149"/><path class="e" d="M408.493,433.19c16.489,8.2,33.442,12.877,49.541,21.684,18.164,9.937,35.542,22.083,48.2,38.706"/><path class="f" d="M1017.516,726.506v3.165"/><path class="f" d="M1311.863,705.406v2.11"/><path class="d" d="M316.775,742.6c-7.682.843-14.889,5.1-20.086,10.717-3.9,4.22-8.482,13.161-5.56,18.911,2.375,4.672,9.911,4.116,14,6.258q.707.371,1.4.725a37.385,37.385,0,0,0,10.195,3.714c2.61.488,5.646,1.9,8.217,1.663,11.291-1.034,18.133-16.284,15.841-26.2C338.353,747.887,327.1,741.462,316.775,742.6Z"/><path class="g" d="M795,746.179c-1.187-4.68-5.65-8.87-10.412-8.076-4.218.7-6.927,4.738-9.123,8.407q-5.1,8.511-10.19,17.024c-3.636,6.074-7.565,12.435-13.809,15.772-11.634,6.217-24.794,8.741-37.877,9.248-14.805.574-33.991.4-47.325,7.411a142.593,142.593,0,0,0-18.36,11.706c-13.064,9.67-23.9,23.033-28.056,38.745a26.456,26.456,0,0,0-.912,11.337c.671,3.762,2.781,7.411,6.151,9.213a12.687,12.687,0,0,0,11.111-.087,23.881,23.881,0,0,0,8.636-7.446c6.346-8.289,9.528-18.621,15.639-27.086a47.563,47.563,0,0,1,29.939-18.78c17.229-3.045,35.172,3.623,52.3.032,14.689-3.081,26.778-10.157,35.89-22.307,6.894-9.193,11.469-19.933,14.895-30.9C794.933,755.783,796.188,750.858,795,746.179Z"/><path class="e" d="M934.361,552.709c-3.186-6.657-8.348-13.144-14.883-16.573s-15.609-2.841-20.191,2.943c-1.916,2.419-2.92,5.5-5.072,7.715-2.625,2.7-7.088,4.491-7.139,8.254-.035,2.622,2.226,4.6,3.692,6.772,1.421,2.109,2.176,4.64,3.786,6.609,4.719,5.769,14.919,1.144,16.976-4.867"/><path class="e" d="M880.644,471.134a27.737,27.737,0,0,1,3.582-7.113,9.375,9.375,0,0,1,6.691-3.9c2.662-.123,5.47,1.658,5.933,4.282.291,1.653-.156,3.759,1.241,4.688.857.569,1.985.342,3.011.259,4.853-.392,9.352,3.1,11.651,7.389s5.228,9.274,5.738,14.116"/><path class="e" d="M921.758,659.229c1.5-4.8,1.584-9.646,4.542-13.714s7.427-7.312,12.445-7.659,10.383,2.841,11.479,7.751c.733,3.28-.425,6.723.053,10.05a10.312,10.312,0,0,0,15,7.664"/><path class="e" d="M1347.665,568.748c.643-5.615,1.275-11.4-.239-16.842s-5.713-10.54-11.306-11.35c-9.631-1.393-16.652,9.589-26.18,11.567-5.179,1.076-11.356-1.351-13.03-6.369s3.463-11.335,8.45-9.572"/><path class="e" d="M1364.574,536.887c1.689-4.486,11.69-4.109,15.433-1.116s6.085,7.572,10.143,10.124c3.363,2.114,8.106,3.137,9.283,6.932,1.793,5.78-6.877,10.753-5.527,16.652.8,3.486,4.62,5.163,7.568,7.187s5.333,6.492,2.691,8.9"/><path class="f" d="M1349.808,547.171c-.054-.121-.107-.242-.158-.363"/><path class="h" d="M1348.057,541.848c-1.534-6.312-1.865-12.863-6.8-17.865a20.171,20.171,0,0,0-12.161-5.81"/><path class="f" d="M1326.5,518.075c-.132,0-.264.009-.4.016"/><path class="i" d="M1346.368,585c5.81-.21,10.613-4.314,15.738-7.057s12.493-3.717,15.923.977"/><path class="i" d="M1378.35,529.533a21.162,21.162,0,0,1,24.585,6.221"/><path class="i" d="M1316.7,602.068a31.073,31.073,0,0,1,17.825,23.985"/><path class="i" d="M927.867,636.238c4.724-4.809,9.6-9.723,15.726-12.526s13.894-3.078,19.19,1.093"/><path class="i" d="M908.882,593.512a11.647,11.647,0,0,1,18.425,11.931"/><path class="i" d="M894.852,520.068a28.571,28.571,0,0,1,25.666,15.193"/><path class="i" d="M926.437,451.944a13.766,13.766,0,0,0-8.636,23.021"/><path class="f" d="M404.559,760.267v1.055"/><path class="f" d="M390.2,777.108l.817,3.159"/><path class="f" d="M376.417,754.3l.824,1.566"/><path class="f" d="M456.518,709.89v1.583"/><path class="f" d="M435.757,716.277l.72,2.395"/><path class="f" d="M273.738,853.9l-1.582,3.165"/><path class="f" d="M286.21,866.615l.72,2.395"/><path class="f" d="M304.6,822.248v2.374"/><path class="f" d="M324.19,832.591l.72,2.395"/><path class="f" d="M260.513,705.834l.714,1.617"/><path class="f" d="M251.583,721.759l.791,1.582"/><path class="f" d="M276.112,720.968v2.373"/><path class="f" d="M268.208,800.8a2.6,2.6,0,0,1,2.269,2.464"/><path class="f" d="M393.217,857.063l.792,3.165"/><path class="f" d="M421.7,863.393v.791"/><path class="f" d="M386.327,822.938l.711,1.618"/><path class="f" d="M618.725,730.463v1.582"/><path class="f" d="M647.21,736.793v.791"/><path class="f" d="M629.8,753.409v.791"/><path class="f" d="M708.132,751.826a2.11,2.11,0,0,0,1.587,2.372"/><path class="f" d="M742.014,722.587l.795,3.164"/><path class="f" d="M803.878,804.84h1.583"/><path class="f" d="M800.772,832.5l1.57,2.381"/><path class="f" d="M785.656,819.941l2.359.833"/><path class="f" d="M767.48,867.349l.792.792"/><path class="f" d="M743.558,865.864l.824,1.565"/><path class="f" d="M711.532,838.763l.711,1.618"/><path class="f" d="M679.716,873.646l.8,1.578"/><path class="f" d="M564.128,864.976v.791"/><path class="f" d="M584.7,875.262l.791,1.583"/><path class="f" d="M497.663,849.942l1.582,2.374"/><path class="f" d="M519.027,875.262v1.583"/><path class="f" d="M348.974,716.2l.787,2.375"/><path class="f" d="M352.864,871.306h.791"/><path class="f" d="M822.868,734.419l.791.791"/><path class="f" d="M880.63,739.166l.791.792"/><path class="b" d="M1612.425,457.123c1.706,15.831.139,32.406-2.776,46.992-9.4,47.059-43.333,78.023-64.1,119.659-13.4,26.865-18.874,60.937-2.143,85.865-7.472-.068-14.656-1.182-22.094.125-12.856-38.733-6.74-83.283,16.077-117.12,16.935-25.113,35.057-44.911,45.316-74.066,9.126-25.931,14.284-56.4,3.418-82.631A33.148,33.148,0,0,0,1565,417.07c-8.521-2.454-17.779-1.321-26.1,1.747-19.689,7.259-39.533,26.589-44.859,47.343-1.084,4.222-6.505,44-1.571,45.9A32.894,32.894,0,0,1,1512.411,535c6.5,28.305-20.268,38.65-33.092,57.814-5.16,7.712-6.117,19.392.953,25.4,4.087,3.475,10.06,4.432,13.546,8.509,4.835,5.654,2.2,15.163-3.9,19.421s-14.283,4.249-21.5,2.425c3.856,4.273,11.909.149,12.485-5.577s-3.926-10.841-9.01-13.54-10.879-3.762-16.112-6.159a34.3,34.3,0,0,1-7.672-57.544c9.618-8.011,15.89-11.619,12.769-19.431-2.958-7.4,2.527-18.434,12.787-20.02-8.232-30.871-3.536-67.029,13.618-91.063,19.861-27.826,60.993-51.8,94.032-32.378C1601.4,414.659,1610.06,435.176,1612.425,457.123Z"/><path class="e" d="M161.029,699.982c-4.523-43.993-14.422-84.677-6.156-129.112"/><path class="b" d="M1565,417.07c-9.64.571-21.113,7.857-22.523,17.857-1.507,10.684,8.94,17.163,11.012,27.435,4.038,20.022-18.573,41.579-25.06,59.742-2.579,7.222-2.89,15.64.987,22.258s12.629,10.568,19.651,7.483c-4.492,3.063-11.626.681-13.376-4.47-4.639-13.674,19.01-24.856,26.351-32.713,11.109-11.891-1.016-17.285,3.182-28.7,1.6-4.351,5.093-7.7,8.6-10.746,11.429-9.936,17.406-20.548,12.389-38.3"/><path class="b" d="M1451.987,356.868a8.888,8.888,0,0,1,5.138-.992c8.357,1,10.8,14.072,19.12,15.353,3.325.512,6.56-1.109,9.577-2.6s6.4-2.922,9.642-2.036c5.236,1.431,7.094,12.089,9.8,16.085a80.137,80.137,0,0,0,12.7,14.379c4.354,3.6,10.719,5.371,15.76,2.82,4.338-2.195,6.781-7.16,7.032-12.015s-1.374-9.621-3.445-14.02a69.71,69.71,0,0,0-42.928-36.712c-16.5-4.82-38.506-3.967-52.693,6.657-10.4,7.786-28.363,20.243-39.012,3.594-4.6-7.189.186-18.835,9.135-18.977-31.525.5-16.455,41.44,7.6,44.044a30.026,30.026,0,0,0,23.075-7.5C1445.515,362.205,1448.5,358.618,1451.987,356.868Z"/><path class="f" d="M1430.329,558.139a6.133,6.133,0,0,1,2.614-11.759,6.073,6.073,0,0,1,7.954-9.1,7.145,7.145,0,0,1,8.089-11.364c-1.18-.5,3.133-9.82,8.306-6.017a6.685,6.685,0,0,1,12.972-2.221c.885,2.451.422,5.541,2.314,7.334a7.786,7.786,0,0,1-10.062.755c1.281.995-.99,5.749-1.826,6.52a7.179,7.179,0,0,1-7.032.95,5,5,0,0,1-7.775,6.283c1.865,4.464-3.122,10.03-7.763,8.664a8.652,8.652,0,0,1-5.662,10.687c1.81-.5-2.425,10.155-5.151,11.027C1418.989,572.562,1419.572,555.728,1430.329,558.139Z"/><path class="e" d="M1494.882,851.076a50.514,50.514,0,0,0,8.747-43.484c-1.878-6.947-5.041-15.107-.477-20.671,3.622-4.415,10.806-4.982,13.744-9.878,2.3-3.827,1.009-8.838-1.253-12.687s-5.424-7.184-7.122-11.313c-3.216-7.818,4.08-18.24,7.669-24.946,2.585-4.831,4.484-10.97,1.508-15.571l1.792,5.518"/><path class="e" d="M1560.387,845.2c-11.444-18.427-8.063-45.3-3.117-64.943,1.632-6.483,3.112-13.912-.7-19.4-4.932-7.1-18.212-3.975-17.5-14.779.291-4.388,2.753-8.293,4.157-12.461a26.735,26.735,0,0,0-.959-19.324"/><path class="e" d="M1576.09,824.218c3.409-18.595-17.412-26.355-18.015-44.878"/><path class="e" d="M1480.7,816.766c-5.808-6.046-5.091-15.916-1.92-23.676s8.351-14.679,10.637-22.744c1.561-5.509,1.727-11.418,4-16.672s7.763-9.877,13.309-8.45"/><path class="f" d="M1468.015,736.94l.978-.978"/><path class="f" d="M1478.538,881.471l1.018-1.933"/><path class="f" d="M1507.11,907l.977-.978"/><path class="f" d="M1578.458,881.591h.978"/><path class="f" d="M1590.187,750.623l.977-.977"/><path class="f" d="M1529.59,865.953l.977-.977"/><path class="f" d="M1582.413,921.752l1.949-.989"/><path class="f" d="M1341.706,917.634l1.018-1.934"/><path class="f" d="M1351.708,921.663l.977-.977"/><path class="f" d="M1282.314,901.138l.978-.977"/><path class="f" d="M1190.441,918.731v-.977"/><path class="f" d="M1121.048,914.822v-.978"/><path class="f" d="M992.034,908.957V907"/><path class="f" d="M999.853,910.912v-.977"/><path class="f" d="M907.9,927.568l-.989-1.949"/><path class="f" d="M879.84,907.912l-.986-2.93"/><path class="f" d="M1062.405,934.369v-.977"/><path class="f" d="M1158.188,936.324l.977-.977"/><path class="f" d="M1244.107,925.528l.99-1.949"/><path class="f" d="M1430.875,919.709h0"/><path class="e" d="M1483.7,546.318a56.277,56.277,0,0,1-10.031-20.018"/><path class="f" d="M1515.83,454.317l4.422-.266a4.929,4.929,0,0,1-2.6-6.041c.883-2.178,3.691-3.731,6.507-3.6-3.446-.932-5.739-4.086-5.082-6.99.916-4.047,4.806-4.22,8.124-4.78a8.21,8.21,0,0,1,15.175-6.27c2.324,5.6-2.164,7.062-4.205,10.989-2.073,3.988-.243,8.65-6.971,9.292,2.177,3.428-1.6,8.237-6.34,8.076,3.2,3.122,1.048,8.719-3.773,9.8,4.018,2.222,3.316,8.116-1.151,9.67,3.939,2.544,2.927,8.508-1.709,10.093,1.832-.626,4.423,7.682-1.83,8.937-8.036,1.612-7.306-5.669-6.264-9.578.841-3.15,3.825-5.123,4.282-8.52.662-4.93-4.76-8.179,2.213-12.113C1514.378,460.526,1513.54,457.021,1515.83,454.317Z"/><path class="e" d="M178.994,305.715c15.645-24.926,28.228-42.91,50.508-61.688-6.63,62.677,0,132.516-51.137,178.54-7.949,7.154-18.539,15.083-22.894,25.054-5.97,13.671-6.343,32.894-6.739,47.586"/><path class="e" d="M137.027,698.662c-6.837-45.672-7.941-91.933-8.847-138.028-.393-20.009-3.088-39.949-2.122-59.754l3.489-71.525c-21.106-4.34-38.353-26.442-46.477-46.4s-9.685-41.866-11.712-63.319S66.569,276.2,56.411,257.2a101.4,101.4,0,0,1,42.326,46.754"/><path class="e" d="M153.805,410.732c26.7-40.534,30.476-96.257,20.025-142.756"/><path class="e" d="M132.3,408.435c-47.44-54.352-37.678-133.467-3.652-192.113"/><path class="e" d="M131.075,657.661c-56.72,5.951-81.707-39.7-111.313-78.451,24.024,31.3,74.278,42.214,109.1,56.677"/><path class="e" d="M98.312,623.622A181.333,181.333,0,0,1,47.494,501.708"/><path class="e" d="M61.319,487.287c26.513,19.283,61.838,42.87,67.434,78.44"/><path class="e" d="M141.652,539.466A32.9,32.9,0,0,0,153.1,567.89c20.481,17.037,40.339,2.557,52.154-15.741a266.621,266.621,0,0,0,37.357-92.121"/><path class="e" d="M145.526,505.417c15.586-31.694,43.757-57.46,79.894-61.294"/><path class="f" d="M226.766,440.8a12.1,12.1,0,0,1,22.221-4.5c2.762-5.922,11.332-8.134,16.616-4.288s5.811,12.682,1.024,17.13a15.068,15.068,0,0,1,2.472,27.271,14.481,14.481,0,0,1-6.906,25.179c-.248,6.524-.632,13.465-4.422,18.781s-12.318,7.753-16.9,3.1a9.448,9.448,0,0,1-.828-11.573,11.339,11.339,0,0,1,11.015-4.512,13.337,13.337,0,0,1,2.739-24.655,17.162,17.162,0,0,1-10.215-19.414"/><path class="e" d="M134.2,704.658c9.972,8.883,12.079,24.023,9.244,37.074s-9.746,24.777-15.481,36.839-10.443,25.351-8.4,38.551c.989,6.406,4.156,13.925,9.208,18.227,4.038,3.439,10.925,3.6,12.669,9.34a8.9,8.9,0,0,1-2.853,9.278"/><path class="f" d="M120.6,223.15a15.145,15.145,0,0,1,3.191-27.651c-4.944-7.784-1.434-19.585,6.96-23.4s19.594,1.295,22.21,10.138a11.379,11.379,0,0,1,9.516,18.219,11.341,11.341,0,0,1,6.679,21.47,10.791,10.791,0,0,1,12.831,7.565c1.33,5.5-2.429,10.694-7.42,12.6,12.979,5.491,12.644,24.709-3.6,23.449-8.761-.68-13-13.043-6.775-19.238a18.628,18.628,0,0,1-21.574-25.283,4.716,4.716,0,0,1-3.485-6.755"/><path class="f" d="M162.429,542.863c28.266-12.424,53.882-36.566,72.325-60.878"/><path class="f" d="M49.846,548.306a13.108,13.108,0,0,1-11.055,8.055,10.035,10.035,0,0,1-7.282,11.959A9.639,9.639,0,1,1,28.521,549.3a14.462,14.462,0,0,1-3.6-26.514c-5.375-3.025-5.864-11.934-.851-15.529a11.92,11.92,0,0,1,3.854-22.627c-5.493-4.057-6.532-12.937-2.124-18.153s13.338-5.67,18.253-.929c-.091-5.573,6.654-9.5,11.994-7.908s8.765,7.1,9.545,12.622-.584,11.094-2.027,16.478"/><path class="f" d="M144.885,389.976a209.9,209.9,0,0,0-8.966-64.05c-3.616-11.956-13.178-33.353-6.3-45.4L118,300.878"/><path class="e" d="M160.377,704.6c14.669,28.15,8.5,62.128,12.363,93.636a145.338,145.338,0,0,0,22.675,61.843"/><path class="e" d="M149.5,817.056a43.415,43.415,0,0,0-20.924-35.392"/><path class="e" d="M166.015,892.007c4.452-.641,5.263-7.088,3.11-11.048-5.746-10.568-5.992-18.078-.889-27.67,5.417-10.181,10.458-18.12,8.894-30.369"/><path class="e" d="M211.774,819.959c2.646-13.943-6.351-29.148-19.846-33.541-4.089-1.331-8.469-1.769-12.387-3.542s-7.466-5.454-7.213-9.747"/><path class="e" d="M80.352,827.048c10.452-11.4,6.088-20.853,8.8-33.6,6.213-29.217,46.978-23.371,53.756-52.548"/><path class="e" d="M213.068,772.119c-19.612-2.718-36.889-18.013-41.966-37.15"/><path class="f" d="M223.819,902.116v-.978"/><path class="f" d="M261.756,926.548l.021-1.954"/><path class="f" d="M277.574,919.709v-.978"/><path class="f" d="M91.873,904.071v-.978"/><path class="f" d="M124.126,926.55h0"/><path class="f" d="M81.122,736.94h0"/><path class="f" d="M395.972,926.47c-.307-.517,1.046-.5.727.009"/><path class="f" d="M415.384,920.686l.977-.977"/><path class="f" d="M557.1,928.505v-2.932"/><path class="f" d="M497.483,902.116l.978-1.955"/><path class="f" d="M650.931,929.482c-1.039,0-1.039-1.984,0-1.984s1.039,1.984,0,1.984"/><path class="f" d="M634.315,896.252h0"/><path class="f" d="M719.347,926.55v-.977"/><path class="f" d="M812.947,917.634l1.018-1.934"/><path class="f" d="M795.582,908.957h.977"/><path class="f" d="M753.555,941.211v-1.955"/><path class="f" d="M58.644,874.574l1.955.019"/><path class="f" d="M51.791,705.6l.95-.16"/><path class="f" d="M58.642,786.786v-1.955"/><path class="f" d="M59.625,768.247a.695.695,0,1,0,.641.243"/></svg>