<svg xmlns="http://www.w3.org/2000/svg" viewBox="0 0 1672.016 937.322"><defs><style>.a{opacity:0.68;}.b{opacity:0.13;}.c{opacity:0.49;}.d,.g{fill:none;stroke:#000;stroke-linecap:round;stroke-linejoin:round;}.d{stroke-width:11.036px;}.e{opacity:0.15;}.f{opacity:0.2;}.g{stroke-width:6.307px;}</style></defs><title>EFimage</title><path class="a" d="M885.215,566c5.248,1.642,9.7,3,9.688,2.918-.937-6.952-2.036-13.914-2.768-20.883,4.635.012,10.4,4.146,14.923,5.647,7.473,2.481,15,4.812,22.5,7.2,3.628,1.159,7.366,2.333,11.164,2.051s7.719-2.368,9.015-5.949-1.225-8.344-5.033-8.353c7.916,1.3,16.869.5,22.62-5.09s5.753-16.961-1.448-20.5a29.627,29.627,0,0,0,21.73-26.444c-19.376.26-38.627,3.655-58,3.559s-39.68-4.163-54.4-16.762c2.317,1.983-1.731,13.9-2.674,16.315a85.2,85.2,0,0,1-10,17.658c-7.823,11.105-10.713,14.309-20.73,23.418,3.662,9.3,15.573,15.386,26.79,19.886C869.4,561,878.051,563.759,885.215,566Z"/><path class="b" d="M730.256,711.644c12.215-6.879,25.139-13.348,26.976-11.514C772.12,715,787.9,729,803.268,743.444l24.509,23.039c6.415,6.03,19.5,14.206,23.4,21.993a309.514,309.514,0,0,1-31.69-148.03c.563-15.06,2.919-31.512,14.033-41.691,8.317-7.618,20.216-10.235,31.487-9.811a71.064,71.064,0,0,1,51.706,25.774c.841-3.924,5.465-6.059,9.444-5.542s7.409,2.957,10.626,5.356a533.141,533.141,0,0,1,157.252,188.449,524.157,524.157,0,0,1,24.461,57.172c2.175,6.058,6.83,12.267.318,14.561-1.513.533-4.213,0-5.816,0h-370.3c2.8,0-10.47-17.751-11.117-18.528-5.605-6.731-11.282-13.4-16.923-20.1-11.6-13.775-23.1-27.656-33.645-42.266-2.627-3.64-9.173-10.057-9.482-14.664-.3-4.536,5.354-11.67,7.59-15.474,7.344-12.494,17.148-29.6,28.739-38.425C709.891,723.705,719.814,717.525,730.256,711.644Z"/><path class="c" d="M1113.252,837.9c-9.544-26.349-64.352-152.208-192.325-235.008,3.832-13.993,5.9-30.965-.17-45.2,8.539,2.447,24.768,14.759,30.208,5.315s-11.381-16.755-14.276-17.307c9.238,1.761,23.319,3.74,30.638-2.165s3.407-25.98-5.906-24.674c13.072,2.2,25.4-11.154,22.206-24.019-37.033,14.192-73.152,7.868-105.34-15.3-9.186-6.611-18.064-14.805-29.256-16.489-11.789-1.774-22.337,4.166-31.095,11.458-8.006,6.666-6.437,19.718-14.312,27.694-3.429,3.474-7.806,5.847-12.225,7.921-42.972,20.167-102.22,18.279-133.206-21.453A220.026,220.026,0,0,0,631.5,532.9c-2.983,6.49-4.364,12.715-6.467,19.3q-.261.821-.54,1.649c-2.163,6.431-4.047,12.448,1.082,18.08,5.217,5.729,14.511,5.408,21.647,2.391,10.407-4.4,15.772-12.4,24.448-18.833,3.894-2.887,8.6-4.923,13.448-4.776,4.79.146,15.718,5.55,10.5,10.983-1.884,1.962-5.57,2.229-7.691,4.249a13.117,13.117,0,0,0-3.986,10.675c.708,5.639,5.82,6.793,10.588,8.349q11.672,3.808,22.983,8.617c3.949,1.679,8.35,4.031,9.2,8.238a9.188,9.188,0,0,1-1.908,7.059c-4.838,6.6-13.268,13.948-3.527,21.672,4.22,3.345,10.151,3.846,15.388,2.6s9.959-4.035,14.59-6.783c6.682,22.5,10.516,51.5,36.143,59.356,10.121,3.1,26.448-2.878,32.911-14.024,0,29.035,31.343,116.311,33.77,117.678-15.488-8.726-93.015-88.26-99.487-87.432-1.7.218-17.139,2.8-15.274,5.673-4.677-7.2-12.333-62.267-33.031-68.2-5.92-1.7-12.077,1.479-12.077,1.479-4.414-11.862-18.017-26.65-32.606-20.051-10.092,4.566-8.194,7.227-3,25.691-23.913-7.093-33.821,7.516-24.315,24.593-13.005-4-25.5,10.975-15.809,29.308-8.056,3.08-6.969,15.351-3.278,22.271,3.328,6.24,9.316,10.592,15.4,14.2,16.716,9.924,35.443,15.859,53.982,21.711-7.653,11.734-11.843,23.886-11.676,24.1,14.308,18.4,29.565,36.121,45.28,53.121-3.876-4.193-36.955.259-42.4.281q-51.651.2-103.3.321-135.221.358-270.44.61c-69.182.138-138.1,2.825-207.593,2.825q-21.449.033-42.9.064V211.383c42.9-24.941,110.508,6.66,150.795,42.494,20.974-19.723,56.186-38.322,85.286-35.353a72.844,72.844,0,0,1,37.5,14.859c5.372,4.221,25.233,23.284,22.076,31.384,9.525-24.437,36.787-27.486,50.933-2.335,30.648-30.367,83-35.615,119.064-11.938-.353-37.078,27.96-55.146,66.717-36.252.529-84.28,119.331-102.125,148.134-21.1,19.455-10.672,62.522,1.521,66.6,40.817,13.512-52,119.986-74.952,160.124-29.133,6.015-28.688,10.644-53.213,49.541-67.586,37.565-13.88,80.953,16.09,91.96,44.343,21.388-18.255,54.272-18,80.189-7.1s45.395,37.09,47.3,65.144c24.848-33.4,75.635-24.56,96.593,11.413-.165-25.257,19.572-55.043,42.776-65.018,39.543-17,72.783,5.788,100.164,33.251,6.648-15.517,14.831-32.66,31.127-37.069s36.185.927,49.749,10.976c-25.761-32.224,30.762-80.689,54.361-46.064,2.3,3.367,1.317,692.931,1.317,692.931C1608.918,840.048,1113.735,839.233,1113.252,837.9Z"/><path class="d" d="M652.735,491.61a282.738,282.738,0,0,0-28.847,57.4c-2.3,6.484-4.26,14-.815,19.955,5.622,9.719,20.718,7.519,29.775.883,9.7-7.112,20.482-22.964,34.229-19.758,3.14.732,6.149,2.982,6.783,6.143.822,4.094-2.4,7.8-5.449,10.649s-6.459,6.243-6.137,10.405c.233,3.021,2.5,5.573,5.154,7.034s5.689,2.035,8.646,2.7A127.741,127.741,0,0,1,720,594.92c1.984.88,4.06,1.912,5.173,3.776,1.456,2.438.8,5.69-.847,8.006-2.07,2.913-6.124,3.731-7.953,6.4-2.257,3.288-1.1,8.938,1.014,11.952,3.37,4.813,9.727,6.917,15.573,6.327s11.227-3.5,15.921-7.036c1.9,17.541,10.884,37.991,23.172,50.872,11.23,11.772,32.876,15.078,42.979,2.326"/><path class="d" d="M738.812,702.563a135.756,135.756,0,0,1-12.685-27.98c-2.325-7.624-2.341-15.922-6.124-23.074-4.832-9.132-16.655-15.432-25.79-10.608-8.169-19.177-22.037-24.42-32.606-20.051-4.359,1.8-9.816,12.059-3,25.691-4.629-2.924-15.554-4.894-23.427.165-8.6,5.524-6.81,16.366-.888,24.428a17.583,17.583,0,0,0-15.809,29.308c-5.382,1.009-8.521,7.19-8,12.641s3.728,10.238,7.007,14.624c11.512,15.4,48.007,21.134,63.323,32.759"/><path class="d" d="M757.5,887.376a897.93,897.93,0,0,0-85.325-105.4c13.528-38.372,45.492-69.768,84.1-82.606A1141.53,1141.53,0,0,1,886.31,828.3"/><path class="d" d="M795.944,504.509c-31.976,23.889-81.034,27.07-115.275,6.226A94.948,94.948,0,0,1,638.978,455.5c-14.194,6.493-33.44,10.255-48.732,7.129a74.838,74.838,0,0,1-40.034-22.762"/><path class="d" d="M723.371,528.853a96.309,96.309,0,0,0,78.961,106.509"/><path class="e" d="M516.289,663.782c-12.021-13.064-32.7-17.238-48.846-9.859s-26.526,25.743-24.517,43.383c-16.434.141-31.779,12.2-36.785,27.857s.057,33.792,11.716,45.375,29.192,16.553,45.412,13.908c-10.936,24.606-2.629,56.272,18.978,72.341s54.325,14.91,74.742-2.645c7.123,12.077,22.229,18.335,36.123,16.452s26.217-11.1,33.52-23.071,9.909-26.408,9.124-40.408c-.872-15.548-6.18-31.428-17.535-42.085s-29.444-14.8-43.082-7.285c7.408-4.636,19.27-14.377,17.833-23-1.388-9.849-14.864-17.407-25.755-9.6,7.259-8.081,6.453-21.507.344-25.6-7.139-5.876-15.9.31-24.614,6.113,0,0-14.426,6.8-16.641-2.708-1.434-6.158,1.332-13.656-.243-20.376A41.891,41.891,0,0,0,516.289,663.782Z"/><path class="d" d="M601.333,734.617l-34.395,28.207c15.078-11.8,38.553-8.665,52.624,4.324s19.418,33.536,17.428,52.582c-1.743,16.678-9.159,33.39-22.763,43.193s-33.847,11-46.727.268-14.214-33.641-.869-43.794c6.832,11.774,3.469,27.695-5.76,37.7s-23.152,14.672-36.751,15.285c-26.767,1.2-54.706-14.1-64.243-39.14s3.819-57.616,29.506-65.237c4.348-1.291,10.022-1.414,12.37,2.467,3.252,5.375-3.224,11.42-9.031,13.816-21.162,8.733-47.057,7.407-65.308-6.412s-26.4-40.825-15.912-61.176,40.275-28.847,58.329-14.771c3.3,2.577,6.342,6.276,6,10.452-.446,5.406-6.783,8.859-12.109,7.829s-9.478-5.275-12.332-9.887c-10.279-16.613-6.314-40.564,8.77-52.979s39.351-11.7,53.676,1.586c15.689,14.549,11.12,37.432,6.446,58.312a439.117,439.117,0,0,0,47.334-29.06"/><path class="d" d="M537.845,755.9c11.729-8.273,32.539-17.9,42.072-28.63"/><path class="d" d="M859.3,789a237.877,237.877,0,0,1,56.5,21.153"/><path class="d" d="M905.484,773.979c-18.048.1-36.473,3.993-53.7,9.361A312.508,312.508,0,0,1,820.312,671.7c-2.668-30.065-5.887-75.534,32.938-83.919,12.454-2.69,25.475,1.42,36.6,7.632a100.968,100.968,0,0,1,40.507,42.132c11.323,22.293,18.246,45.474,25.7,69.191q11.469,36.512,19.793,73.913,9.312,41.838,14.6,84.44"/><path class="d" d="M928.657,606.325c97.667,66.442,169.272,170.18,196.763,285.06"/><path class="d" d="M919.643,609.452a80.342,80.342,0,0,0,.457-50.229"/><path class="d" d="M861.993,555.139c10.322,4.215,22.528,18.081,30.966,12.645s.8-16.467-1.927-24.174c9.617,4.729,48.587,30.745,59.933,19.4,5.676-5.676-12.463-16.721-21.042-22.534,7.941-.789,15.433,3.487,23.287,4.907s18.186-2.285,18.327-10.264c.18-10.14-16.86-10.537-26.391-15.055,23.8,7.288,46.561-.577,37.337-20.509"/><path class="d" d="M834.332,547.508c9.068-6.653,18.215-13.378,25.639-21.826s13.09-18.879,13.882-30.1-3.977-23.176-13.523-29.123c-12.567-7.828-29.966-3.229-40.608,7.065s-15.844,24.913-19.5,39.261"/><path class="d" d="M818.228,528.7a130.416,130.416,0,0,1,27.235-32.187"/><path class="d" d="M34.574,211.223c58.034-21.453,128.644-2.5,168.135,45.13,19.7-25.262,58.083-44.752,90.289-37.814a76.511,76.511,0,0,1,54.2,46.228c2.719-11.293,13.857-19.959,25.472-19.817s22.539,9.076,24.982,20.432c27.73-36.123,87.634-41.08,120.924-10.006-3.73-16.394,3.871-34.749,18.1-43.707s34.065-7.877,47.236,2.573c1.16-35.343,30.2-67.729,65.212-72.716s71.94,18,82.922,51.615c28-11.97,64.56,10.436,66.6,40.817a104.8,104.8,0,0,1,160.124-29.133c2.418-32.711,29.231-62.025,61.6-67.342s67.148,13.879,79.9,44.1c23.1-15.933,54.651-18.726,80.189-7.1s44.148,37.261,47.3,65.144c24.794-29.221,79.292-22.781,96.593,11.413.108-27.445,17.615-54.055,42.776-65.018,37.547-16.359,78.877,4.232,100.114,36.479a47.6,47.6,0,0,1,80.925-29.321c-22.136-45.942,34.961-67.531,52.7-49.787"/><path class="d" d="M870.937,476.462c42.971,42.971,137.01,36.144,162.933-33.788"/><path class="d" d="M750.735,756.455a171.813,171.813,0,0,0-33.369,30.7c-5.41,6.5-10.708,16.308-14.124,24.04"/><path class="d" d="M363.684,473.025c.183,14.546,8.59,28.207,20.162,37.022,15.954,12.152,38.384,17.746,58.089,14.075a98.913,98.913,0,0,0,27.893-9.89c3.732-1.989,24.243-13.349,23.593-18.245,1.894,14.269,16.967,24.539,31.33,23.584s26.99-11.259,33.531-24.081c5.595,21.316,23.984,38.726,45.574,43.148"/><path class="d" d="M751.6,455.092c21.321,16.827,51.526,21.644,77.024,12.285"/><path class="d" d="M990.321,537.637c24.068,19.244,58,25.4,87.293,15.849s53.067-34.535,61.16-64.269c14.622,13.806,37.505,18.076,56.122,10.472s31.968-26.673,32.743-46.768"/><path class="f" d="M741.35,547.2c4.726-4.063,11.764-4.347,17.5-2.036s10.367,6.831,14.34,11.671c5.109,6.224,9.469,13.332,11.2,21.278s.533,16.837-4.468,23.153c-7.463,9.425-22.237,10.648-32.144,4.014C733.472,595.7,726.937,559.589,741.35,547.2Z"/><path class="d" d="M1026.31,366.394l4.2-3.146"/><path class="d" d="M1102.8,391.672l4.159,2.166"/><path class="d" d="M1290.554,357.9l6.291-2.1"/><path class="d" d="M1267.485,341.228l1.048,2.1"/><path class="d" d="M1115.44,242.661l2.1,4.194"/><path class="d" d="M1318.865,556.862l4.2,1.023"/><path class="d" d="M1104.35,627.491l5.214,2.167"/><path class="d" d="M502.046,575.5l5.215,2.166"/><path class="d" d="M1279.019,731.3l2.1,4.195"/><path class="d" d="M1344.853,586.719l2.22,4.128"/><path class="d" d="M1030.725,326.18l6.291-2.1"/><path class="d" d="M836.523,362.389l1.113,3.123"/><path class="d" d="M717.6,253.147l1.048,4.194"/><path class="d" d="M691.812,293.628h2.1"/><path class="d" d="M732.215,293.628h2.1"/><path class="d" d="M804.01,399.948h3.146"/><path class="d" d="M455.88,312.916l1.048,2.1"/><path class="d" d="M432.811,338.105l1.113,3.123"/><path class="d" d="M282.9,395.816l3.157-2.08"/><path class="d" d="M307,598.59l3.123,1.113"/><path class="d" d="M374.09,656.852h3.146"/><path class="d" d="M471.464,577.032l3.187-.9"/><path class="d" d="M283.987,802.854l3.174-.954"/><path class="d" d="M1102.777,677.824l3.146,1.048"/><path class="d" d="M617.362,208.057l3.146-2.1"/><path class="d" d="M566.943,361.064l4.179-4.209"/><path class="d" d="M295.286,281.618l2.1,2.1"/><path class="d" d="M449.545,465.047l2.091,1.061"/><path class="d" d="M1073.317,639.09l1.114,3.122"/><path class="d" d="M487.445,607.891l1.113,3.123"/><path class="d" d="M983.318,602.325l5.243-2.1"/><path class="d" d="M1251.756,752.387l4.194,2.1"/><path class="d" d="M1382.829,481.738l4.194,3.146"/><path class="d" d="M1308.191,773.811l3.112-3.179"/><path class="d" d="M1408.155,664.352l2.1-2.1"/><path class="d" d="M1395.412,276.215h2.1"/><path class="d" d="M981.739,336.5l3.159,3.133"/><path class="d" d="M678.18,441.1v3.146"/><path class="d" d="M319.523,581.991l1.049,2.1"/><path class="d" d="M1245.464,630.637l3.146-3.146"/><path class="d" d="M1172.174,800.488a5.49,5.49,0,0,0,4.068,4.285"/><path class="d" d="M410.791,205.96l3.145-2.1"/><path class="d" d="M507.341,161.867l2.08,3.157"/><path class="d" d="M480,169.26l3.146,2.1"/><path class="d" d="M863.779,111.588v4.194"/><path class="d" d="M883.7,129.413h1.048"/><path class="d" d="M1284.262,168.211l1.049-3.146"/><path class="d" d="M1389.121,149.337v-2.1"/><path class="d" d="M266.086,171.357v2.1"/><path class="d" d="M1115.44,101.1l1.049-1.049"/><path class="d" d="M1123.829,116.83l2.1-1.048"/><path class="d" d="M694.213,640.9c2.981,6.015,4.9,10.634,7.883,16.65"/><path class="g" d="M528.21,620.874c28.378-1.059,56.438-5.837,84.958-6.757"/><path class="g" d="M551.226,572.192l50.3,13.74"/><path class="g" d="M542.912,660A234.206,234.206,0,0,1,585.9,643.22"/><path class="d" d="M166.941,631.714l2.66-1.33"/><path class="d" d="M169.66,589.029a3.152,3.152,0,0,0,3.955-1.2"/><path class="d" d="M125.71,385.635a3.442,3.442,0,0,0,2.661,3.965"/><path class="d" d="M212.167,505.349l1.33,1.33"/><path class="d" d="M156.085,280.766l2.661,2.66"/><path class="d" d="M125.706,795.325l2.66-1.33"/><path class="d" d="M204.194,720.858a2.067,2.067,0,0,1,2.571,1.331"/><path class="d" d="M1518.388,617.083h1.33"/><path class="d" d="M1521.048,397.606l1.33-1.331"/><path class="d" d="M1495.559,346.84l4.025-3.956"/><path class="d" d="M1531.69,251.288l2.66-1.331"/><path class="d" d="M1521.056,762.093a2.068,2.068,0,0,1,2.572,1.331"/><path class="d" d="M1441.238,807.3v1.33"/><path class="d" d="M99.1,496.038l1.33,1.33"/><path class="d" d="M1554.3,486.727l1.331-1.331"/><path class="d" d="M139.107,177.555l1.061,2.924"/><path class="d" d="M1549.945,108.716v2.951"/></svg>