<svg xmlns="http://www.w3.org/2000/svg" viewBox="0 0 1779.638 1327.273"><defs><style>.a{fill-opacity:0.2;}.a,.b{opacity:0.65;}.b{fill-opacity:0.42;}.c{opacity:0.23;}.d{opacity:0.51;}.e,.f{fill:none;stroke:#000;stroke-linecap:round;stroke-linejoin:round;}.e{stroke-width:14px;}.f{stroke-width:8px;}.g{opacity:0.36;}</style></defs><title>EFimage</title><path class="a" d="M1262.257,325.61c37.067-23.127,77.932-15.753,119.814-14.558,16.455.469,48.984,5.771,51.055-18.207,1.826-21.144-20.8-48.529-38.9-56.769-20.972-9.547-44.816-11.178-65.982-20.286s-40.56-30.511-35.158-52.912c4.137-17.155,20.967-27.913,37.135-34.984,9.131-3.994,18.933-7.462,28.847-6.44s19.873,7.732,21.643,17.54-8.071,20.689-17.548,17.6c70.075,11,145.037,30.244,189.2,85.747,27.554,34.624,39.45,79.749,40.413,123.988,1.178,54.114-3.015,109.522-19.575,161.332-13.207,41.318-32.7,99.127-70.28,124.2-32.99,22-85.061,22.807-122.576,13.379-41.3-10.381-76.969-41.115-93.336-80.434,16.169-23.483,32.115-48.035,38.267-75.875s.613-59.976-20.787-78.82c-20.2-17.785-56.742-12.176-70.954,9.886-18.034-39.867-15.926-82,22.191-109.964Q1258.974,327.655,1262.257,325.61Z"/><path class="b" d="M991.437,1100.131c20.656-67.94,52.031-133.543,99.059-186.751,65.087-73.64,159.937-113.7,254.81-131.87C1403.6,770.349,1483.461,759,1542.15,770.3c57.744,11.116,116.943,51.094,163.5,85.222,15.734,11.533,31.336,24.415,40.124,41.832,9.01,17.86,9.917,38.575,10.5,58.571q3.606,124.271-.439,248.607c-.657,20.166,5.985,91.12-9.151,101.311-5.492,3.7-27.014-.107-33.54-.115q-119.273-.164-238.544.175-11.215.015-22.429.026c-100.938,0-201.989-1.089-302.877-.651l-2.783-28.478c.68,5.439-89.723-1.721-97.638-3.2-31.124-5.805-61.24-25.071-91.412-34.467C967.835,1188.711,976.553,1149.087,991.437,1100.131Z"/><path class="c" d="M831.683,431.082c-2.856-47.781-14.331-94.589-29.246-139.928-7.061-21.466-13.424-45.5-23.5-65.667-8.642-17.286-26.093-33.106-42.049-43.449-60.034-38.914-144.464-21.407-198.162,20.28a186.986,186.986,0,0,0-40.468,42.624c-2.439,3.619-14.077,35.371-14.5,43.106-28.26-13-58.454-21.633-89.547-20.66-23.212.725-46.7,5.659-66.646,17.56-19.022,11.354-34.013,28.562-45.677,47.4-11.765,19-18.835,40.06-29.173,59.63-10.78,20.408-20.749,41.412-30.931,62.192-22.826,46.585-45.928,93.045-68.481,139.761-20.927,43.349-41.09,87.539-63.817,129.965-16.391,30.6-32.434,60.832-45.247,92.968A245.2,245.2,0,0,0,31.443,952.317c4.087,21.641,10.04,42.276,23.645,59.859a150.954,150.954,0,0,0,47.217,39.836c25.3,13.786,63.706,16.9,90.594,6.085,21.537-8.665,42.176-19.356,62.436-30.648,9.854-5.492,19.969-10.82,29.166-17.283,2.48-1.743,26.53-13.839,26.432-14.586-3.408-25.985-5.942-52.265-10.243-78.115-3.646-21.909-14.333-42.536-25.433-61.536A280.7,280.7,0,0,0,257.38,829c-2.4-3.193-20.57-21.041-20-23.725,8.852-41.862,17.668-83.446,28.931-124.5a635.2,635.2,0,0,1,45.333-117.849c9.072-17.993,19.522-36.073,34.554-49.789a290.879,290.879,0,0,1,54.793-38.685c1.246,2.419,2.433,4.919,3.627,7.439,5.128,10.829,10.358,22.015,20.746,28.67a42.023,42.023,0,0,0,32.851,5.207c12.687,31.587,25.13,61.342,29.948,95.279,1.052,7.41,1.946,14.9,2.33,22.379.137,2.693-1.4,13.283.771,14.94a208.711,208.711,0,0,0,108.176,41.447c19.317,1.663,38.83-.1,58.057-1.054,21.315-1.058,42.538-5.357,62.176-13.833a134.884,134.884,0,0,0,27.724-16.021c31.886-24.019,54.773-64.762,67.887-101.857C829.493,516.848,834.219,473.531,831.683,431.082Zm-207.37,98.41c4.295,11.067,122.312-1.492,124.3-28.867C755.806,591.3,628.536,583.472,624.313,529.492Z"/><path class="c" d="M933.051,1002.652a549.511,549.511,0,0,0,97.034.08c-51.754,94.556-68.182,193.358-73.466,300-24.133-3.718-46.451-.054-70.008-7.68a140.8,140.8,0,0,1-44.792-24.786c-23.836-19.278-42.084-44.5-59-70.062q-9.428-14.246-18.43-28.769c-33.008-53.249-56.757-114.576-110.378-151.17-38.826-26.5-89.988-36.987-134.168-20.935-9.994,3.632-20.494,8.621-30.787,5.95-12.9-3.348-20.169-18.7-17.432-31.748s13.317-23.338,25.32-29.132,25.429-7.79,38.617-9.715l162.03-23.652c23.615-3.447,47.963-7.151,68.319-19.607,12.2-7.466,23.667-18.269,37.966-18.69,12.951-.382,25.484,9.356,28.314,22,3.141,14.032-5.289,23.983-15.108,32.477-4.638,4.011-10.031,6.86-14.469,11.168-4.863,4.721-8.889,10.228-13.28,15.371L765.6,981.56c15.416,13.127,30.332,28,47.6,38.5,17.488,10.633,34.71,22.461,52.78,32.061l29.516,17.929c4.919,2.988,9.8,6.063,14.764,8.969,2.02,1.182,10.7,5.692,10.733,7.936a250.94,250.94,0,0,1,3.287-45.715q1.863-11.322,4.754-22.442C929.225,1018.051,934.135,1002.746,933.051,1002.652Z"/><path class="d" d="M290.034,328.049q6.128-8.965,12.6-17.69c21.715-29.286,59.269-37.326,94.027-39.812,30.408-2.174,61.069-1.564,87.093,17.5a123.836,123.836,0,0,1,38.2-69.214c19.571-17.888,44.056-33.983,68.9-43.616,51.005-19.776,110.665-15.826,158.617,10.5C711.6,119.11,636.2,75.6,559.573,76.131c-36.09.251-70.864,14.454-100.335,34.59a257.876,257.876,0,0,0-41.832,35.831c-6.334,6.7-12.239,13.755-17.884,21.042-2.117,2.733-17.851,19.076-16.786,21.121a86.7,86.7,0,0,0-43.465-39.706c-26.068-10.726-51.618-5.021-77.461,2.607a160.892,160.892,0,0,0-65.776,38.649c-14.084,13.609-23.7,26.761-31.218,45.147a188.446,188.446,0,0,0-13.608,59.244c-1.967,30.831,1.228,64.508,18.795,90.7A109.176,109.176,0,0,0,230.5,429.191c-3.192-.9,11.958-18.384,13.371-20.44,7.063-10.275,11.527-23.191,17.561-34.164Q274.6,350.644,290.034,328.049Z"/><path class="e" d="M949.505,1315.056c12.059-98.061,24.506-187.607,63.087-278.563q2.264-5.336,4.657-10.616c26.521-58.471,65.3-112.856,116.541-152.133,77.695-59.548,173.936-88.111,268.876-96.454,60.749-5.339,115.1-15.61,174.291,2.987,58.476,18.371,127.6,67.243,169.131,112.4"/><path class="e" d="M1294.728,583.381c.694,31.044,38.3,54.883,61.864,68.616,38.43,22.4,85.235,26.683,126.093,8.177,39.232-17.769,56.338-53.087,74.719-90.167,24.881-50.191,39.661-108.676,36.631-164.952-3.665-68.093-13.277-149.261-71.817-194.939-46.924-36.615-110.863-53.519-169.681-43.862a164.853,164.853,0,0,0-20.543,4.379"/><path class="e" d="M411.437,903.129c-14.8,50.166-58.89,68.077-99.95,92.064-41.234,24.088-82.048,49.409-127.4,65.175-62.6,21.764-122.29-22.712-144.675-82.117-17.786-47.2-13.272-100.482,2.507-148.389,25.015-75.952,69.836-150.414,105.522-221.928,39.526-79.212,72.72-170.455,121.769-244.029,14.8-29.657,30.956-60.838,59.2-78.187,30.583-18.788,68.944-17.51,104.788-15.63,13.036.684,26.548,1.494,38.08,7.611s20.5,19.146,17.613,31.877c-3.084,13.607-18.5,21.448-32.435,20.778-4.751-.228-46.822-17.6-43.346-19.268a68.829,68.829,0,0,1-48.5,3.986l-14.847,30.714c23.383,21.411,29.772,52.673,18.084,82.977"/><path class="e" d="M455.663,341.271a99.8,99.8,0,0,0-59.53,5.475c4.83,17.776,11.546,34.364,11.709,52.753"/><path class="e" d="M211.289,892.673c47.538-112.535,43.12-242.616,107.831-346.954,20.433-32.945,50.453-41.756,76.29-65.371C425,453.3,448.668,418.372,479.53,391.11L506.2,367.548c2.592-8.429-9.82-16.665-17.786-20.449s-17.329-3.157-25.931-1.212a93.5,93.5,0,0,0-54.458,35.869"/><path class="e" d="M757.428,991.159c9.236-11.094,19.418-21.856,27.9-33.528,4.709-6.476,7.937-15.687,13.833-21.043,6.139-5.578,13.626-9.429,20.3-14.356s12.829-11.481,14.32-19.651c2.255-12.355-7.68-24.732-19.815-27.972s-25.289,1.105-35.414,8.54c-7.423,5.451-14.211,11.752-21.846,16.918-8.9,6.024-12.67,5.794-23.19,5.345a126.613,126.613,0,0,0-55.109,10.059c-25.524-4.729-49.578-1.562-71.751,11.937"/><path class="e" d="M1065.986,942.585c-41.3-252.042-247.337-243.96-306.4-301.934"/><path class="e" d="M355.671,248.886C385.683,141.873,491.628,57.39,608.3,81.219c42.682,8.717,82.211,31.533,111.7,63.523,31.407,34.072,56.422,64.487,68.961,110.64,12.869,47.371,32.063,90.882,38.934,140.769,13.306,96.622.636,230.312-111.3,261.718-52.069,14.609-111.737-2.642-147.977-42.782"/><path class="e" d="M685.493,480.67c10.38-.555,21.06-1.182,30.47-5.6s17.362-13.6,17.11-23.99c-.213-8.789-5.98-16.337-11.482-23.194-20.728-25.832-40.207-49.877-55.744-78.621"/><path class="e" d="M747.46,498.874c-14.381,18.332-68.218,38.676-123.147,30.618C648.122,609.78,763.613,561.175,747.46,498.874Z"/><path class="e" d="M462.958,334.87c10.373,1.336,20.959,2.667,31.225.673s20.346-7.921,24.6-17.474a25.042,25.042,0,0,0-3.038-25.022c-5.415-6.967-25.074-8.265-33.772-6.773"/><path class="e" d="M518.565,297.75c14.111,6.193,28.606,13.39,18.382,34.632-6.682,13.885-27.869,17.262-40.15,7.954"/><path class="e" d="M540.386,321.661c13.6,5.113,16.019,24.524,4.382,34.616s-31.7,7.987-40.992-4.3"/><path d="M602.346,415.586c29.2-14.092-11.657-60.124-23.612-27.4C573.752,401.821,586.381,423.286,602.346,415.586Z"/><path d="M714.576,340.1c2.639-7.1,9.034-11.076,19.315-5.267,18.718,10.577,6.552,52.429-14.082,31.716C713.4,360.116,711.6,348.113,714.576,340.1Z"/><path class="e" d="M769.194,207.839c-28.115-34.225-70.6-41.7-114.769-44.955-69.864-5.15-132.065,34.993-163.126,93.569"/><path class="e" d="M553.987,319.257c14.113-11.852,32.672-18.522,51.068-16.815"/><path class="e" d="M673.682,282.744c21.651-17.856,56.8-16.239,76.722,3.53"/><path class="e" d="M244.688,781.75c42.99-58,139.165-114.219,246.615-137.51,5.448-38.235-9.3-79.517-35.64-127.034"/><path class="e" d="M244.688,810.3c36.38,49.535,66.049,108.533,66.049,185.34"/><path class="e" d="M1112.075,505.457c-24.548,23.57-42.376,96.571,11.748,92.824"/><path class="e" d="M228.068,428.6c-99.261-20.006-94.387-184.477-23.089-249.428,47.91-43.646,140.278-56.363,178.874,6.526"/><path class="e" d="M574.069,530.438c30.986,4.15,53.923-21.3,57.571-46.376"/><path class="e" d="M333.487,982.5c1.02,50.054,10.174,99.252,16.318,148.8,6.223,50.178-5.855,92.03-16.323,141.31"/><path class="e" d="M491.3,644.24c30,43.558,126.347,51.851,178.314,42.017"/><path class="e" d="M517.412,942.585a31.872,31.872,0,0,0-25.678,14.55c-4.316,6.817-5.811,15.651-2.811,23.141,5.271,13.158,24.524,19.052,37.167,17.1,20.242-3.128,40.55-3.536,60.8-.1"/><path class="e" d="M403.982,474.412C406.434,493.34,422.344,513.2,441.568,517a41.316,41.316,0,0,0,36.853-11.4"/><path class="e" d="M425.877,451.307,444.362,477.2"/><path class="e" d="M969.623,1152.774C931.468,1065.48,831.6,1047.173,767.579,982.5"/><path class="e" d="M574.009,988.078c3.152,7.138,11.869,10,19.67,10.206s15.715-1.428,23.347.2c8.172,1.739,11.1,7.388,17.5,11.342,3.487,2.154,8.351,2.591,12.153,4.129,48.958,19.794,72.432,89.227,100.1,129.886,41.141,60.458,94.459,147.141,174.674,155.669"/><path class="e" d="M919.951,1088.875c21.8-74.689-6.891-113.559-8.125-186.479"/><path class="e" d="M537.984,1131.221c39.768,27.3,108.411,24.914,155.792,0"/><path class="e" d="M928.1,1008.116c26.009-2.235,65.483-5.316,97.676-.046"/><path d="M741.157,522.6c2,50.5-78.588,63.709-101.271,28.58C691.8,567.59,733.68,540.387,741.157,522.6Z"/><path class="e" d="M503.209,953.688c-48.08-8.408-36.8,72.611,2.041,47.694"/><path class="f" d="M812.6,923.212c-4.636.284-9.373.558-13.85-.681s-8.725-4.292-10.129-8.719a10.862,10.862,0,0,1,5.083-12.466c6.948-3.7,26.849,1.343,35.2,1.1"/><path class="e" d="M631.312,933.448c-18.566-15.226-46.264,1.947-67.7,1.2-11-.383-20.75-4.217-31.486-.24a37.347,37.347,0,0,0-21.513,20.345c-2.134,5.207-2.884,11.616.488,16.121,7.264,9.707,29.082,9.242,39.942,9.948a186.831,186.831,0,0,0,27.9-.276c8.5-.722,16.984-3.486,25.38-1.5,7.823,1.852,14.925,6.029,22.695,8.092s17.167,1.454,22.346-4.695"/><path class="f" d="M342.635,702.423c56.315,22.216,71.453,101.292,73.5,154.8"/><path class="f" d="M906.442,735.625a196.545,196.545,0,0,1,13.386,124.526"/><path class="e" d="M1238.407,560.6c-2.814,11.114,4.564,23.227,15.089,27.774s23.095,2.426,32.946-3.44,17.309-15.056,23.349-24.8a140.663,140.663,0,0,0,20.934-70.229c.4-16.138-2.172-32.755-10.381-46.655-18.732-31.72-64.01-32.279-86.184-3.205-6.851-3.225-13.406-36.547-14.126-44.464-1.867-20.527,6.341-42.223,20.662-56.882,36.758-37.623,114.6-27.858,162.2-29.5,11.809-.407,25.882-2.19,31.147-12.769,3.833-7.7,1.138-17.039-2.8-24.686-16.916-32.854-44.466-38.811-77.1-46.217-25.984-5.9-52.512-14.588-59.006-43.824-7.852-35.349,31.879-60.414,62.047-63.41,20.178-2,40.483,2.612,59.618,9.318"/><path class="e" d="M1281.855,472.224l-14.324,65.9"/><path class="e" d="M1295.094,180.229c-61.69,9.546-118.578,46.922-152.323,99.383-41.419,64.392-40.864,132.724-16.617,204.858"/><path class="e" d="M1090.165,361.273c33.439-6.853,70.316,8.217,89.386,36.527"/><path class="e" d="M1124,534.411c-12.653,10.5-33.146,7.309-44.693-4.4s-15.021-29.613-12.582-45.873c3.578-23.856,15.031-53.459,43.819-51.039"/><path class="e" d="M1250.574,810.3c-1.6-22.67-.839-39.383-20.4-50.95-24.8-14.66-54.429-6.219-79.574-18.188-21.766-10.361-35.859-32.771-32.813-56.963,2.129-16.909,9.232-33.028,10.069-50.05.785-15.946-3.969-31.564-6.762-47.283-4.753-26.744,1.427-84.193,27.782-97.458"/><path class="e" d="M1537.607,608.76c-26.214,49.015-29.438,109.729-8.563,161.245"/><path class="e" d="M1071.554,464.252c55.442-18.568,109.939-14.862,165.38-33.43"/><path class="e" d="M1329.578,478.916a94.779,94.779,0,0,1,18.823,82.066"/><path class="f" d="M1287.952,816.4a1790.473,1790.473,0,0,0,229.917-27.53"/><path class="e" d="M961.4,1238.962a254.339,254.339,0,0,0,107.5,39.4c38.155,4.641,72.434,5.142,108.708-10.714q5.949-69.6,11.9-139.2"/><line class="e" x1="1142.475" y1="1309.919" x2="1146.511" y2="1276.799"/><path class="f" d="M1092.681,959.6a168.755,168.755,0,0,1,84.354,87.137"/><path class="g" d="M398.219,346.217a83.938,83.938,0,0,0,10.263,31.546l45.341-39.1a134.224,134.224,0,0,0-55.734,5.132"/></svg>