<svg xmlns="http://www.w3.org/2000/svg" viewBox="0 0 1668.026 906.729"><defs><style>.a{opacity:0.49;}.b,.c{fill:none;stroke:#000;stroke-linecap:round;stroke-linejoin:round;}.b{stroke-width:14px;}.c{stroke-width:8px;}</style></defs><title>EFimage</title><path class="a" d="M344.233,514.84c12.846,34.054,32.691,65.725,57.793,87.378,17.871,15.416,39.981,30.573,43.032,53.976,2.825,21.668-15.713,43.684-37.546,44.588,15.916,49.866,8.022,106.769-20.867,150.42l136.874,1.407a93.438,93.438,0,0,0-34-50.886C513.091,771.029,507.639,715.7,456.51,698.8c30.483-16.22,47.864-53.85,40.45-87.574,32.2-4.419,59.461-32.912,62.46-65.271,6.3,17.768,49.445,18.493,61.98,9.656,16.113,28.067,49.408,23.842,49.408,23.842,3.708,30.03,11.651,52.746,15.481,82.761s3.421,61.515-8.71,89.235-37.913,50.892-68.085,53.17l-6.083,46.446,153.805,21a73.754,73.754,0,0,0-13.72-67.987c15.459-40.328,3.518-84.29-23.295-116.483.224.27,11.619-16.563,12.5-18.054,19.18-32.362,9.142-70.109-6.781-101.309,29.829-25.969,27.646-70.775,4.809-100.782a87.761,87.761,0,0,0-70.983-34c6.6-22.816-6.018-49.566-27.821-58.986S582,374.2,569.906,394.638c-12.889-20.236-38.834-31.22-62.335-26.388s-45.6,26.775-49.459,50.455c-11.968-10.8-31.7-8.921-44.609.74s-20.076,25.193-24.463,40.7C363.271,453.346,347.132,486.6,344.233,514.84Z"/><path class="a" d="M1648.736,372.832c-3.32-19.09-34.571-54.19-64.384-63.947a102.71,102.71,0,0,0-89.733,13.509c15.311-42.1,14.819-91.7-9.509-129.319s-75.2-58.738-116.642-41.712c3.713-52.114-40.566-95.444-92.155-97.281-40.775-1.452-81.11,24.793-96.3,62.66-22.739-33.367-55.055-62.671-95.4-64.4s-80.787,20.791-100.561,56C944.1,92.8,899.4,106.6,868.325,134.226c-15.1,13.429-29.106,31.463-36.178,50.558a83.709,83.709,0,0,0-5.075,32.6c.131,3,3.578,30.581,7.269,30.16-39.7,4.527-63.514,61.475-62.428,95.874,1.255,39.724,27.4,77.591,64.107,92.836,4.838-21.482,10.146-44.095,35.178-65.715a83.454,83.454,0,0,0,21.532,51.151c29.411,32.811,84.5,38.353,119.856,12.058-26.458,25.19-45.542,60.458-43.239,96.917s30.393,72.036,66.785,75.219c-29.867,28.094-35.446,78.413-12.459,112.368s71.778,47.466,108.956,30.172c-9.073,63.539,36.039,130.229,98.391,145.453l419.3-3.524S1653.123,398.063,1648.736,372.832Z"/><path class="a" d="M25.267,293.132A75,75,0,0,1,78.026,253.11a75,75,0,0,1,63.61,18.415c17.5-44.972,94.649-48.962,112.764-6.223a49.472,49.472,0,0,1,82.677,16.126c25.113-4.929,52.431,13.59,57.151,38.744S380.2,372.488,355.011,377c6.932,23.741-9.036,50.293-31.861,59.82s-49.879,4.252-70.857-8.848A72.063,72.063,0,0,1,204,460.828c-19.762,3.473-15.913.918-15.913.918,2.687,17.585-6.754,43.526-21.464,53.529s-34.856,11.115-50.828,3.283a68.17,68.17,0,0,1,18.053,59.085,66.864,66.864,0,0,1-11.348,26.5c-30.914-39.7-86.593-24.821-97.233-19.943Z"/><path class="b" d="M893.8,301.233c-29.99,32.283-30.482,87.646-1.07,120.456s84.5,38.353,119.856,12.058c-26.458,25.19-45.542,60.458-43.239,96.917s30.393,72.036,66.785,75.219c-29.867,28.094-35.446,78.413-12.459,112.368s71.778,47.466,108.956,30.172c-9.073,63.539,36.039,130.229,98.391,145.453"/><path class="b" d="M870.983,369.005c-26.3,27-33.058,68.385-35.309,106.556-2.395,40.6-2.267,83.619-23.365,118.388-8.973,14.788-21.39,27.266-30.26,42.117s-13.888,33.75-6.487,49.386c11.527,24.354,44.34,27.418,71.282,27.042a417.389,417.389,0,0,0,62.89,165.458"/><path class="b" d="M836.02,436.254c-36.7-15.246-62.852-53.113-64.107-92.837-1.086-34.4,22.729-91.347,62.428-95.874-3.691.421-7.138-27.162-7.269-30.16a83.709,83.709,0,0,1,5.075-32.6c7.072-19.095,21.076-37.129,36.178-50.558C899.4,106.6,944.1,92.8,984.054,108.337c19.774-35.2,60.219-57.727,100.561-56s80.533,27.172,95.4,64.4c15.265-37.838,55.651-64,96.422-62.473,51.586,1.937,95.781,45.353,91.967,97.46,41.473-16.945,92.306,4.27,116.561,41.938s24.65,87.263,9.257,129.337a101.04,101.04,0,0,1,154.019,50.738"/><path d="M862.39,529.644c-.015,6.521,1.882,13.187,5.058,17.617,3.677,5.129,11.438,8.4,17.367,5.492,4.631-2.273,6.6-7.348,7.449-12.066,1.895-10.519-3.432-34.568-18.28-32.531C864.238,509.493,862.408,521.664,862.39,529.644Z"/><path class="b" d="M864.406,447.734a76.657,76.657,0,0,1,72.573,54.435"/><path class="b" d="M859.5,764.258c35.361,5.4,73.158-12.925,90.808-44.039"/><path class="b" d="M837.6,592.094l.922-1.063"/><path class="b" d="M843.984,626.71l.84-1.117"/><path class="b" d="M878.659,603.568l.945-1.045"/><path class="b" d="M900.692,650.482l.97-.163"/><path class="b" d="M927.638,626.6l1-1"/><path class="b" d="M670.808,579.453c3.939,28.372,11.829,54.137,15.481,82.761,3.83,30.015,3.421,61.515-8.71,89.235s-37.913,50.892-68.085,53.17l-6.083,46.446"/><path class="b" d="M627.754,699.218l.724-.269C624.413,723.6,596.457,737.064,573.4,731c-1.558-.409-19.481-9.237-16.2-12.207C581.048,712.978,604.841,707.683,627.754,699.218Z"/><path class="b" d="M577.55,686.671c5.329-.6,10.749-1.406,15.534-3.828s8.9-6.744,9.763-12.036c.779-4.761-1.1-9.512-2.944-13.97l-17.1-41.378"/><line class="c" x1="621.815" y1="651.863" x2="622.268" y2="651.187"/><path class="c" d="M648.3,658.542c-1.015.068-1.016-1,0-.931"/><path class="c" d="M563.506,647.55v-1"/><path class="c" d="M547.561,666.505h0"/><path class="c" d="M522.846,682.18l-.336-.663"/><path d="M546.517,631.43c-.23,14.276-12.306,15.094-16.9,2.507-1.583-4.339-3.065-9.522-.372-13.273,2.635-3.672,8.483-3.912,12.118-1.227S546.589,626.908,546.517,631.43Z"/><path d="M617.6,601.349c-2-1.6-5.2-.5-6.682,1.594s-1.715,4.8-1.884,7.356c-.248,3.76-.439,7.679,1.032,11.148s5.127,6.318,8.822,5.582c3.026-.6,5.223-3.439,5.936-6.441s.207-6.151-.455-9.164c-1.073-4.882-4.129-10.779-9.081-10.1"/><path class="b" d="M523.519,852.609a93.438,93.438,0,0,0-34-50.886C513.091,771.029,507.639,715.7,456.51,698.8c30.483-16.22,47.864-53.85,40.45-87.574,32.2-4.419,59.461-32.912,62.46-65.271,26.513,33.78,88.117,7.89,99.447-37.921"/><path class="b" d="M621.4,553.845c7.078,21.453,46.287,34.851,63.157,17.981"/><path class="b" d="M354.533,487.479c0-17.5,19.918-32.592,34.507-27.329,4.387-15.512,11.558-31.045,24.463-40.7s32.641-11.54,44.609-.74c3.859-23.68,25.958-45.623,49.459-50.455s49.446,6.152,62.335,26.388C582,374.2,610.124,365.049,631.927,374.469s34.419,36.17,27.821,58.986a87.761,87.761,0,0,1,70.983,34c22.837,30.007,25.02,74.813-4.809,100.782,15.923,31.2,25.961,68.947,6.781,101.309-.883,1.491-12.278,18.324-12.5,18.054,26.813,32.193,38.754,76.155,23.295,116.483a73.754,73.754,0,0,1,13.72,67.987"/><path class="b" d="M408.552,731.489c-28.721,10.785-50.345,13.724-80.562,8.415,23.264,43.319,71.422,28.928,87.442,21.327"/><path class="b" d="M386.645,851.2c28.889-43.651,36.783-100.554,20.867-150.42,21.833-.9,40.371-22.92,37.546-44.588-3.051-23.4-25.161-38.56-43.032-53.976-44.637-38.5-72.652-108.688-74.244-167.616"/><path class="b" d="M95.881,626.382A67,67,0,0,0,115.8,518.558c15.972,7.832,36.118,6.719,50.828-3.283s23.185-28.671,20.5-46.256"/><path class="b" d="M147.4,446.406a71.075,71.075,0,0,0,104.9-18.435c20.978,13.1,48.032,18.374,70.857,8.848S361.943,400.74,355.011,377c25.191-4.511,43.937-31.674,39.217-56.827S362.19,276.5,337.077,281.428A49.472,49.472,0,0,0,254.4,265.3c-18.115-42.739-95.264-38.749-112.764,6.223a75,75,0,0,0-63.61-18.415,75,75,0,0,0-52.759,40.022"/><path class="b" d="M136.327,621.2c-11.738-14.666-25.2-28.584-42.169-36.639s-38.078-9.36-54.019.578"/><path class="b" d="M46.011,744.768a65.287,65.287,0,0,0,81.632-19.33"/><path class="b" d="M258.323,670.374c-.552-.407.438-1.383.837-.825"/><path class="b" d="M319.188,674.317c-.891-.525-.05-2.242.911-1.859"/><path class="b" d="M357,641.564l1-1"/><path class="b" d="M368.969,600.662h0"/><line class="b" x1="390.425" y1="628.137" x2="390.927" y2="626.686"/><path class="b" d="M250.673,564.448a78.451,78.451,0,0,1,52.575-40.029"/><path d="M303.109,607.165a11.57,11.57,0,0,0,1.972,2.254c14.821,12.679,24.7-5.178,21.374-18.945-1.272-5.257-4.168-10.328-8.788-13.139s-11.094-2.853-15.124.754C296.258,583.715,298.07,599.827,303.109,607.165Z"/><path class="c" d="M637.493,639.091c.136-.234-.473-.229-.333,0"/><path class="c" d="M528.626,661l.3-.591"/><path class="c" d="M594,712.088l3.146,12.019"/></svg>