<svg xmlns="http://www.w3.org/2000/svg" viewBox="0 0 1519.207 755.385"><defs><style>.a{opacity:0.3;}.b{fill-opacity:0.2;}.b,.d,.e{stroke:#000;stroke-linecap:round;stroke-linejoin:round;}.b,.e{stroke-width:5.717px;}.c{opacity:0.47;}.d,.e{fill:none;}.d{stroke-width:10.006px;}.f{fill-opacity:0.4;}.g{opacity:0.6;}</style></defs><title>EFimage</title><path class="a" d="M1115.5,463.586c-44.489,0-327.344,12.522-327.306,11.174.07-2.509-34.384-14.077-34.529-16.5-.107-1.788,348.188-8.142,348.188-8.142-14.34-14.341-26.833-23.833-37.836-33.65-167.564-2.8-349.945,5.028-542.344,20.046,15.77,14.442,27.617,33.261,36.237,52.985,11.239,25.719,17.563,53.253,24.841,80.361,1.724,6.422,3.519,12.848,5.444,19.234l623.527-12.135c-9.521-13.014-13.7-17.109-22.392-29.865-.991-1.455-469.62,10.183-469.62,8.423-5.02-5.02-18.129-10.344-30.418-13.27,0-1.174,486.536-10.812,486.536-11.986C1160.737,510.619,1125.284,473.579,1115.5,463.586Z"/><path class="a" d="M593.87,606.456c5.153,14.469,11.367,28.492,19.523,41.487,14.263,9.605,38.069,6.357,52.195-1.449,13.948,14.746,37.018,14.084,56.824,18.525a101.424,101.424,0,0,1,69.208,56.517c.766,1.708,502.795-2.165,499.844-8.111-20.654-41.609-44.7-83.653-68.866-122.972Z"/><path class="a" d="M1025.925,385q-4.794-3.335-9.661-6.529c-3.18-2.086-95.4,4.583-98.626,2.585-2.173-1.346-16.693-13.213-18.886-14.52-2.72-1.622,95.9-1.385,93.148-2.947a502.105,502.105,0,0,0-67.414-31.724c-4.626-1.784-279.213,4.729-274.272,4.246-5.448-5.448-11.542-12.95-25.667-16.139-7.235-.362,264.553-.509,257.6-2.614-69.694-21.1-143.876-30.874-216.678-36.715-53.214-4.269-108.8-6.406-157.8,14.793-24.592,10.639-46.927,28.546-61.919,50.825a96.13,96.13,0,0,0-14.773,33.667q-2.27,10.062-3.531,20.315c-.258,2.093-.272,17.663-1.433,18.274,20.978-11.037,46.758-9.7,68.581-.027l544.038-24.217Q1032.382,389.491,1025.925,385Z"/><path class="b" d="M729.372,183.128a13.912,13.912,0,0,0,.336-4.737c-1.132-12.889-19.7-12.6-24.013-1.76a10.905,10.905,0,0,0-.651,6.87"/><path class="c" d="M616.968,649.7a14.377,14.377,0,0,1-3.575-1.756,207.58,207.58,0,0,1-18.909-39.755c-.722-1.986-10.359-.19-10.359-.19-3.069-6.644-8.661-12-15.33-16.8,0,0,20.266.775,19.7-1.094-2.042-6.716-3.929-13.48-5.744-20.239-7.278-27.108-13.6-54.642-24.841-80.361-8.62-19.724-20.462-38.549-36.233-52.99-2.933-2.686-22.038,2.257-22.038,2.257-2.582-6.243-7.779-12.6-14.819-19.029,0,0,14.714,1.026,11.2-.6-22.119-10.262-48.571-11.9-70.008-.62.268-.141.475-1.087.638-2.475a126.235,126.235,0,0,0-14.779,12.12c-16.52,15.859-28.485,36.918-31.38,59.634-4.054,31.806,9.489,63.039,24.22,91.517,1.745,3.374-10.477,24.826-12.2,28.916-4.066,9.634-8.279,19.221-12.2,28.914-6.781,16.75-14.605,33.445-20.507,50.686-3.956,11.553-15.063,31.5,3.435,32.1,8.3.271,16.646,0,24.945,0H639.012c2.074,0-17.557-52.576-19.223-57.562A64.162,64.162,0,0,1,616.968,649.7Z"/><path d="M417.164,433.989c13.4-11.783,31.948-18.676,50.875-18.91a75.347,75.347,0,0,1,25.024,3.835c6.007-1.975,13.077-1.895,19.4-1.758-12.629-8.053-27.989-12.288-44.547-12.082-21.281.263-42.187,8.063-57.358,21.4-29.588,26.011-41.4,71.5-29.383,113.2,5.418,18.8,15.166,36.584,28.973,52.853a183.649,183.649,0,0,0,46.39,38.823,5,5,0,1,0,5.115-8.6,176.1,176.1,0,0,1-43.876-36.7c-12.885-15.181-21.965-31.717-26.987-49.148a110.534,110.534,0,0,1-1.14-55.886C394.282,462,403.8,445.741,417.164,433.989Z"/><path class="d" d="M435.281,612.406l32.877,89.807"/><path class="d" d="M632.4,696.413a517.309,517.309,0,0,0-37.12-84.1"/><path class="d" d="M381.33,685.011a157.143,157.143,0,0,1,18.3-97.2"/><path class="d" d="M264.442,706.18c-15.954-11.478-42.6-28.395-57.79-38.073,0-25.215-15.372-47.579-30.122-56.732-6.833-4.241-14.817-6.277-21.846-10.185s-13.446-10.7-13.2-18.739c.161-5.342,3.235-10.733,1.479-15.781-2.01-5.775-10.049-7.75-15.372-4.741s-7.919,9.48-7.957,15.6,2.051,12.019,4.113,17.776"/><path class="d" d="M130.014,702.317a106.8,106.8,0,0,1-59.051-42.685C67.1,653.9,64,645.65,68.768,640.653c3.085-3.232,8.159-3.433,12.579-2.786a47.8,47.8,0,0,1,22.683,9.812c3.09,2.455,6.077,5.777,5.96,9.721-.175,5.944-7.667,9.379-13.387,7.748s-9.849-6.472-13.62-11.07"/><path class="d" d="M84.381,632.826c1.7-5.913,7.294-10.2,13.321-11.442s12.358.213,17.9,2.889c5.938,2.867,14.3,7.41,18.494,12.632a10.129,10.129,0,0,1,2.4,8.172c-1.023,4.9-6.853,7.538-11.8,6.778s-9.128-3.963-12.991-7.147"/><path class="d" d="M87.938,597.685a53.46,53.46,0,0,0-5.788-34.87c-1.412-2.63-3.069-5.206-3.662-8.132s.175-6.384,2.707-7.966c2.481-1.55,5.744-.834,8.407.378,7.117,3.239,11.386,6.571,13.345,14.141"/><path class="d" d="M76.057,631.974c-5.872-9.3-3.086-22.565,5.062-29.955s20.452-9.163,30.99-6.007c4.169,1.249,8.25,3.3,10.993,6.673a12.77,12.77,0,0,1,2.018,12.209c-4.306,12.093-28.626,3.335-36.667.89"/><path class="d" d="M114.952,655.2l24.269-2.179c6.12-.55,12.314-1.1,18.383-.138s12.1,3.6,15.937,8.395"/><path class="b" d="M118.733,551.93c10.422,1.442,5.29,16.894,1.854,22.332-2.475,3.918-7.737,10.524-13.112,8.146-3.092-1.367-4.806-4.875-4.955-8.252s1-6.669,2.251-9.808a27.215,27.215,0,0,1,4.971-8.725C112.044,553.165,115.4,551.469,118.733,551.93Z"/><path class="b" d="M219.535,632.082a9.4,9.4,0,1,0,.852-.468"/><path class="b" d="M153.623,627.367c8.672-2.334,16.746,7.606,11.621,14.98-4.517,6.5-15.288,6.013-18.413-1.452C144.626,635.626,148.106,628.853,153.623,627.367Z"/><path class="b" d="M127.27,612.188a11.979,11.979,0,1,1,3.28,22.611,90.589,90.589,0,0,0-13.661-10.155L124.4,613.87A3.416,3.416,0,0,1,127.27,612.188Z"/><path class="b" d="M229.012,600.019c9.261,1.974,10.08,10.007,3.355,15.462-4.844,3.929-12.3,4.568-17.994,4.015-5.47-.532-10.816-5.775-9.285-11.052,1.393-4.8,7.1-6.646,11.992-7.67C221.011,599.952,225.084,599.182,229.012,600.019Z"/><path class="b" d="M258.59,571.95c10.644,3.285,6.624,17.973-3.011,19.172-9.121,1.134-14.145-9.924-7.857-16.265A11.1,11.1,0,0,1,258.59,571.95Z"/><path class="b" d="M367.177,611.879c-1.924-4.7-8.8-7.187-13.55-6.064a10.215,10.215,0,0,0-7.911,10.355c.04,6.546,6.912,12.145,13.331,10.861S369.657,617.937,367.177,611.879Z"/><path class="d" d="M354.883,700.626a200.828,200.828,0,0,1,24.856-59.32"/><path class="d" d="M177.547,703.51a36.5,36.5,0,0,0,17.845-20.65"/><path class="b" d="M187.963,584.587c6.635,13.275-14.412,21.6-19.707,9.082a10.855,10.855,0,0,1,19.707-9.082Z"/><path class="b" d="M228.365,571.748c3.421,13.974-18.394,17.877-21.455,5.046a11.02,11.02,0,0,1,21.455-5.046Z"/><path class="b" d="M280.339,547.165c1.773,9.124,16.744,18.289,24.435,18.951,7.482.644,10.029-8.651,7.374-14.213-4.21-8.817-29.923-27.557-31.941-7.315A8.845,8.845,0,0,0,280.339,547.165Z"/><path class="d" d="M356.809,517.779a98.269,98.269,0,0,1,23.645,7.36"/><path class="d" d="M155.118,363.269c-7.869,17.137-17.419,38.691-24.088,56.33-1.427,3.773-2.689,8.446-.041,11.491,1.688,1.941,4.447,2.5,7.008,2.743A49.238,49.238,0,0,0,161.15,430.4c-3.85,31.271-7.527,61.108-11.377,92.379-.468,3.795-.858,7.951,1.223,11.158,3.422,5.272,11.111,4.933,17.323,3.98l111.05-17.041c20.058-3.078,40.926-6.053,61.069-4.979"/><path class="e" d="M194.277,408.6a15.791,15.791,0,0,0,10.809,26.066,10.267,10.267,0,0,0,17.3,7.07"/><path class="e" d="M231.517,447.217a13.846,13.846,0,0,0,21.176-9.715"/><path class="e" d="M263.158,436.338a17.831,17.831,0,0,0,13.512-18"/><path class="e" d="M231.574,358.278a9.819,9.819,0,0,1,16.9,7.278"/><path class="e" d="M265.694,373.183a18.386,18.386,0,0,1,11.542,27.932"/><path class="b" d="M233.584,406.451c-4.971-3.554-13.95-2.193-16.292,3.861-1.538,3.977.431,9.251,3.471,12.1,4.084,3.828,11.417,3.27,14.913-1.1A10.758,10.758,0,0,0,233.584,406.451Z"/><path class="b" d="M202.673,483.562c1.917,5.212,8.7,7.925,13.736,5.578s7.339-9.154,4.877-14.131C215.331,462.969,197.909,470.605,202.673,483.562Z"/><path class="e" d="M234.746,511.226a155.161,155.161,0,0,0,59.6-89.19"/><path class="d" d="M333.43,354.41l21.016-38"/><path class="d" d="M372.9,294.217c8.775-1.7,37.362-1.7,37.362-1.7V306.81s-21.669-1.185-32.358-.53"/><path class="d" d="M146.825,282.877a46.932,46.932,0,0,0,13.553,27.87"/><path class="f" d="M519.676,148.816q-4.827-.959-9.622-2.039c-8.232-.092-16.468-.368-24.695-.342-13.718.043-27.432.361-41.144.73-13.513.362-26.934,1.636-40.429,2.29-6.667.323-13.425.579-20.055-.3-5.3-.7-6.074.141-15.848.141,1.4.146-27.626-17.32-28.41-15.976,13.689,0,38.835-.569,46.185.334,7.294.9,14.971.261,22.281-.19,13.772-.849,27.463-1.836,41.263-2.19,1.689-.043,3.377-.08,5.066-.121-23.5-7.512-46.858-15.634-70.555-22.473-45.426-13.111-93.722-21.5-139.887-11.294a180.958,180.958,0,0,0-97.845,58.819c-26.766,31.405-37.282,67.731-43.619,107.6,39.559,24.571,94.3,20.644,138.2,13.755,44.47-6.979,88.5-18.94,133.511-19.01,6.348-.01,13.49.191,19.534,2.351,6.116,2.187,8.623,6.186,13.481,10.457,9.271,8.149,20.923,13.9,33.367,14.656,16.642,1.008,34.19-8.166,40.439-23.623,2.822-6.98,3.251-14.484,2.67-22.048-3.039.112-6.09.475-9.057.83-7.7.922-34.093,2.519-34.093,2.519,3.82-3.819,9.077-8.885,10.933-14.327,0,0,20.119-2.812,30.234-3.43q-.154-.878-.31-1.751-1.857-10.4-3.713-20.808c-5.105.485-37.619,4.312-37.619,4.312-1.437-4.965-5.51-10.749-13.547-17.764,0,0,45.048-.176,48.77-.6-.462-3.886-.441-7.792,1.16-11.3,3.813-8.354,14.465-10.621,23.62-11.355s19.627-1.651,25.061-9.055a5.853,5.853,0,0,0,1.4-4.338C525.89,150.452,522.489,149.374,519.676,148.816Z"/><path d="M476.346,225.059c.078.436.157.882.235,1.326a73.77,73.77,0,0,1,10.062-.563c-.15-.852-.3-1.694-.447-2.52l-3.619-20.282c-3.327.137-6.67.5-10,.9Z"/><path d="M478.57,240.706c.507,6.792.158,13.691-2.314,19.806a31.618,31.618,0,0,1-14.147,15.507,39.1,39.1,0,0,1-21.351,5c-10.459-.634-21.243-5.4-30.367-13.42-1.227-1.079-2.328-2.177-3.393-3.238-3.063-3.055-6.23-6.213-11.707-8.171-6.724-2.4-14.218-2.644-20.775-2.644h-.451c-32.182.05-64.166,6.146-95.1,12.042-12.843,2.448-26.122,4.979-39.183,7.028-38.055,5.973-92.7,11.167-131.942-11.364,5.429-32.818,14.947-70.123,41.945-101.8a175.482,175.482,0,0,1,95.116-57.179c23.96-5.3,64.273-9.9,137.421,11.215,16,4.619,32.154,9.927,47.774,15.06q4.669,1.534,9.376,3.075,4.857-.215,9.726-.347,10.4-.267,20.809-.446c-12.4-3.776-24.683-7.81-36.788-11.787-15.705-5.162-31.945-10.5-48.123-15.168C349.017,93.459,295,80.95,242.746,92.5A185.553,185.553,0,0,0,142.173,152.96a172.372,172.372,0,0,0-30.345,52.109c-6.139,16.321-10.717,34.735-14.407,57.947a5,5,0,0,0,2.3,5.035c18.461,11.466,41.964,18,69.857,19.422,20.634,1.051,43.436-.53,71.759-4.975,13.221-2.075,26.582-4.622,39.5-7.085,30.478-5.809,61.994-11.816,93.238-11.864,5.8-.016,12.479.141,17.842,2.059,3.368,1.2,5.315,3.146,8.011,5.835,1.119,1.116,2.388,2.381,3.852,3.668,10.785,9.481,23.7,15.124,36.368,15.892q1.418.087,2.83.086c18.536,0,36.131-10.953,42.549-26.827,3.131-7.746,3.624-15.955,3.069-23.826A54.17,54.17,0,0,0,478.57,240.706Z"/><path d="M527.442,146.529q-1.3.06-2.6.109c-12.261.454-24.548-.144-36.819-.194,10.148,2.752,20.377,5.236,30.676,7.279a12.6,12.6,0,0,1,2.439.686c-.05.075-.106.156-.171.244-4.142,5.644-13.326,6.379-21.428,7.029-5.458.437-22.067,1.768-27.771,14.264-2.115,4.634-2.1,9.594-1.582,13.974,3.306-.405,6.637-.828,9.959-1.073-.4-3.344-.384-6.316.725-8.746,2.195-4.809,8.563-7.572,19.468-8.446,9.219-.739,21.846-1.75,28.695-11.081,2.007-2.735,2.777-5.49,2.288-8.191A8.828,8.828,0,0,0,527.442,146.529Z"/><path class="d" d="M449.209,340.621a28.01,28.01,0,0,0-16.161-5.253,191.442,191.442,0,0,0-29.555,97.924"/><path d="M870.581,318.343c7.421-.011,14.837-.234,22.254-.428A721.768,721.768,0,0,0,801.666,291.4a736.091,736.091,0,0,0-198.04-16.345c-23.358,1.244-42.15,3.458-59.139,6.968C523,286.463,504.6,292.957,488.248,301.877A139.1,139.1,0,0,0,442.4,341.758c-12.689,17.472-19.836,36.977-20.669,56.406a5,5,0,1,0,10,.428c.748-17.459,7.239-35.078,18.769-50.954a129.007,129.007,0,0,1,42.544-36.977c18.637-10.164,48.11-22.259,111.118-25.613A726.159,726.159,0,0,1,799.506,301.17q34.284,7.581,67.292,18.348A6.231,6.231,0,0,1,870.581,318.343Z"/><path d="M978,364.925c5.4-.268,10.828-.511,16.25-.579q-3.346-1.876-6.7-3.709-29.654-16.175-61-29.456c-.63.016-1.26.031-1.89.039-5.934.082-11.829-.6-17.769-.555-2.714.022-5.427.07-8.141.129a682.71,682.71,0,0,1,76.74,34.726A6.835,6.835,0,0,1,978,364.925Z"/><path d="M1044.89,395.782Q1032.07,387,1018.8,378.79c-.44-.007-10.361,1.169-17.344,1.227,3.3,1.9,1.812,1.052,5.049,3q11.319,6.8,22.368,14.065C1029.865,396.326,1040.691,395.925,1044.89,395.782Z"/><path class="d" d="M426.237,419.739A98.175,98.175,0,0,1,467.4,353.665"/><path class="d" d="M535.329,479.763c32.161,26.443,43.347,62.811,44.868,99.25"/><path class="d" d="M543.909,463.579c23.568,21.284,34.536,53.783,32.409,85.024"/><path class="d" d="M567.339,450.12a134.363,134.363,0,0,1,13.894,92.674"/><path class="d" d="M614.052,648.3a60.449,60.449,0,0,0,49.283-.724c7.661,8.552,19.265,12.435,30.585,14.347s22.942,2.22,34,5.3c21.01,5.841,37.96,20.989,54.085,35.67"/><path class="b" d="M183.74,462.2a11.672,11.672,0,1,1,12.24-15.877"/><path class="b" d="M297.345,472.414c29.738-4.923-1.286,41.039-14.258,23.035-2.717-3.771-1.45-9.135.942-13.121C286.967,477.43,291.71,473.347,297.345,472.414Z"/><path class="b" d="M374.951,420.617c-11.3-4.276-24.573,14.5-13.873,22.8C375.211,454.374,391.738,426.972,374.951,420.617Z"/><path class="b" d="M547.222,349.794c25.634-3.048,3.2,30.3-12,24.484C518.969,368.061,537.994,350.891,547.222,349.794Z"/><path class="b" d="M712.123,481.154c11.551-5.355,20.2,13.161,8.3,18.492C708.465,505,700.887,486.365,712.123,481.154Z"/><path class="b" d="M888.7,254.529c-2.07,7.7-19.239,11.877-27.917,7.42-17.167-8.815,10.951-25.963,22.257-17.587C888.054,248.08,889.493,251.566,888.7,254.529Z"/><path class="b" d="M996.462,250.121c13.773,5.768.637,29.857-12.394,21.011C972.7,263.415,984.526,245.123,996.462,250.121Z"/><path class="d" d="M291.624,313.989q9.841,22.856,18.709,46.116"/><path class="d" d="M272.914,272.749q5.711,11.968,11.15,24.063"/><path class="d" d="M365.95,291.087c4.974-9.241,11.445-19.7,16.42-28.943"/><path class="d" d="M381.788,292.761l13.532-24.593"/><path class="d" d="M269.336,297.571q-5.753-10.79-12.14-21.326"/><path class="d" d="M339.63,386.832c-5.127,30.039,7.738,96.5,18.028,149.237l-12.81-.5c-17.06-76.142-33.556-151.617-66.577-220.35"/><path class="e" d="M429.186,299.457A46.209,46.209,0,0,0,475.8,287.846"/><path class="e" d="M424.583,315.02a29.213,29.213,0,0,0,28.6-2.3"/><path class="e" d="M1481.119,120.354c-249.352,4.4-899.192,8.809-1148.545,13.214"/><path class="e" d="M355.374,151.025c241.854-3.855,883.892-7.71,1125.745-11.565"/><path class="e" d="M1483.19,196.915c-59.8-1.593-521.558-.644-581.406.518-155.788,3.025-313.012.328-468.475,10.251"/><path class="e" d="M419.034,188.812c220.641-4.042,841.444-8.083,1062.085-12.125"/><path class="e" d="M1482.886,330.476c-113.776.6-727.68.187-834.637,5.635"/><path class="e" d="M619.61,319.962c153.807.181,709.872-2,863.613-6.525"/><path class="e" d="M1483,577.83c-187.639-6.382-748.675,7.2-919.735,13.569"/><path class="e" d="M580.361,608.185c170.35-8.5,719.215-27.909,902.475-15.264"/><path class="e" d="M1479.916,379.142c-55.466-2.564-521.495,1.994-568.42,1.913"/><path class="e" d="M888.58,366.907c58.406-2.208,527.709-3.314,590.436-7.115"/><path class="e" d="M1482.886,415.226c-195.775,1.386-610.753-10.159-988.571,24.057"/><path class="e" d="M475.867,419.324c362.4-25.163,738.911-25.45,1007.33-25.163"/><path class="e" d="M1483.024,449.865c-147.755-7.4-692.377,6.605-745.634,9.041"/><path class="e" d="M786.183,474.76c49.815-3.306,503.417-21.443,696.857-8.974"/><path class="e" d="M895.279,517.222c52.788-2.322,522.949-4.484,588.1-6.6"/><path class="e" d="M1483.04,531.41c-130.479-8.691-746.5,7.375-803.655,11.044"/><path class="e" d="M713.285,555.519c54.774-3.081,623.314-15.065,769.72-8.89"/><path class="e" d="M777.418,636.021c109.072.033,217.846-5.685,326.711-6.56,123.79-.994,245.291-1.332,369.022-5.938"/><path class="e" d="M900.026,669.853q268.617-4.978,537.242-8.525"/><path class="e" d="M756.5,276.529c108.15-.443,618.555-.886,726.705-1.329"/><path class="e" d="M838.264,293.044c80.882-2.216,564.038-3.739,644.946-4.569"/><path class="e" d="M932.376,304.394c49.52-1.264,501.294-2.528,550.814-3.793"/><path class="e" d="M993.057,348.022c29.3-1.105,460.853-2.21,490.153-3.314"/><path class="d" d="M176.848,474.671c-.666.895,15.968-25,24.285-34.9"/><path class="d" d="M325.213,308.954c-38.854.093-78.265,6.021-105.363,30.864-14.22,13.037-25.192,29.228-38.857,42.846-1.622,1.616-3.463,3.283-5.742,3.5-3.944.385-6.8-3.541-8.765-6.979l-34.609-60.437c67.464-11.222,134.26-19.868,202.537-23.828"/><path class="g" d="M157.188,362.025,178.6,329.38l8.284,4.231A142.658,142.658,0,0,0,205.024,307.5c-1.363,2.522-73.44,11.145-73.44,11.145S158.5,360.028,157.188,362.025Z"/><path class="g" d="M181.69,348.048l11.058,6.743,35.109-49.136L334.5,294.66l-9.29,14.294c-70.754,1.429-99.341,12.864-148.317,78.195L164.409,374.7Z"/><path class="d" d="M217.677,264.693a395.871,395.871,0,0,0-64.749,53.183c-6.64-.761-10.731-6.365-13.966-12.213"/><path class="d" d="M323.558,312c4.149-8.958,11.07-16.99,20.245-20.634s20.681-2.115,27.384,5.133c8.559,9.253,7.042,23.854,3.351,35.906a140.786,140.786,0,0,1-16.221,34.94c-5.39,8.373-12.793,16.815-22.7,17.77-8.844.852-17.5-5.006-21.46-12.958s-3.744-17.51-1.04-25.973"/><path class="b" d="M555.842,240.326c-.967,3.492-.651,6.574,2.411,9.966,4.212,4.666,12.714,4.841,17.285.49a11.709,11.709,0,0,0,2.824-11.914"/><path class="b" d="M105.361,519.751A10.258,10.258,0,0,1,97.7,512.3a13.448,13.448,0,0,1,2.034-10.739,11.234,11.234,0,0,1,6.133-4.764c4.521-1.241,9.555,1.7,11.407,6C120.543,510.4,114.583,521.485,105.361,519.751Z"/><path class="b" d="M305.492,612.546c-2.147.918-3.768,3-4.581,6.039a22.23,22.23,0,0,0,3.649,18.328c3.47,5.016,12.007,9.478,15.593,2.007,1.4-2.908,1.191-6.307.767-9.5-.72-5.423-2.134-12.586-7.18-15.629C310.624,611.909,307.763,611.576,305.492,612.546Z"/><path class="b" d="M416.783,643.767c3.481,4.434,7.753,18.658.09,21.419-6.53,2.354-11.079-7.284-12.431-12.115a15.662,15.662,0,0,1-.581-7.693c.587-2.532,2.439-4.91,4.981-5.456C411.875,639.271,414.867,641.326,416.783,643.767Z"/><path class="e" d="M308.038,325.648a33.56,33.56,0,0,1,2.136-15.687"/><path class="e" d="M312.152,293.468a45.721,45.721,0,0,1,61.477-17.012"/><path class="e" d="M298.833,287.163c4.083-13.052,15.664-22.024,29.113-24.6"/><path class="e" d="M1482.886,215.111c-211.41-.357-825.081,3.938-1036.3,12.88"/><path class="e" d="M436.137,245.341c217.644-17.35,832.057-15.6,1047.053-12.788"/><path class="e" d="M780.906,505.451c99.909-3.753,602.225-7.5,702.134-11.257"/><path d="M1098.536,450.007a46.064,46.064,0,0,1,9.82-.494q-18.63-18.185-38.35-35.55a47.873,47.873,0,0,1-11.963.966,4.98,4.98,0,0,0,1.687,3.313q18.537,16.143,36.118,33.05A5.6,5.6,0,0,1,1098.536,450.007Z"/><path d="M1176.747,530.982c2.061-.043,4.118.011,6.174.1q-28.6-35.2-61.134-68.225a6.348,6.348,0,0,1-4.972,1.971c-2.575-.22-5.3-.636-8.007-.833q33.423,33.332,62.879,69.124A6.932,6.932,0,0,1,1176.747,530.982Z"/><path d="M1207.466,576.358q4.613-.655,9.221-1.021-9.51-13.306-19.567-26.369c-.7-.912-1.428-1.814-2.136-2.724-.171.009-.338.022-.516.02-4.206-.042-8.4-.385-12.6-.538q3.7,4.662,7.328,9.355,8.4,10.881,16.385,21.95A5.12,5.12,0,0,1,1207.466,576.358Z"/><path d="M1296.009,711.334a828.666,828.666,0,0,0-69.421-121.866,8.007,8.007,0,0,1-1.751.2c-3.32.018-6.661.132-9.977.445a820.693,820.693,0,0,1,72.059,125.4,5,5,0,1,0,9.09-4.182Z"/><path class="e" d="M708.936,444.7c124.663-4.7,651.491-7.328,774.1-12.175"/><path class="b" d="M1078.743,162.393c.388,3.842,2.852,7.574,6.5,8.832a8.87,8.87,0,0,0,9.946-3.325c3.577-5.3,1.094-11.725-4.952-13.247C1083.876,153.052,1077.969,154.742,1078.743,162.393Z"/><path class="b" d="M1233.817,105.7a9,9,0,0,1-8.664-4.546,14.19,14.19,0,0,1-1.416-6.11c-.256-5.149.774-10.7,4.4-14.361,4.173-4.217,14.018-4.689,15.536,2.529C1244.96,89.33,1241.092,104.921,1233.817,105.7Z"/><path class="b" d="M1275.75,245.425c-8.752,4.3-2.932,11.8,2.057,15.891,2.255,1.849,4.706,3.781,7.614,4.015a7.553,7.553,0,0,0,7.679-8.441c-.9-5.117-11-14.31-16.3-11.891"/></svg>