<svg xmlns="http://www.w3.org/2000/svg" viewBox="0 0 1231.836 1150.591"><defs><style>.a{opacity:0.42;}.b{opacity:0.18;}.c,.d{fill:none;stroke:#000;stroke-linecap:round;stroke-linejoin:round;}.c{stroke-width:14px;}.d{stroke-width:8px;}.e{opacity:0.6;}</style></defs><title>EFimage</title><path class="a" d="M1146.384,1085.068l48.623-1.476c-12.7-64.9-28.852-129.881-59.2-188.639-15.525-30.062-34.921-58.3-58.378-82.735-15.936-16.6-50.959-53.959-75.369-53.909-.623,13.609,15.755,29.831,23.357,40.4a709.361,709.361,0,0,1,41.059,63.775,692.1,692.1,0,0,1,59.973,139.087A680.034,680.034,0,0,1,1146.384,1085.068Z"/><path class="b" d="M287.9,973.3a98.311,98.311,0,0,0-15.448-72.135c7.341-14.122,10.658-30.772,6.787-46.21s-15.659-29.232-31.06-33.25c-9.473-2.472-19.469-1.249-29.181-.011-6.837.872-13.866,1.805-19.878,5.175-3.256,1.825-6.166,4.342-9.7,5.538-9.536,3.223-19.068-3.965-27.284-9.779s-20.434-10.309-27.473-3.114c8.314-21.209,16.764-44.146,11.212-66.24-2.343-9.323-8.753-19.08-18.345-19.727-7.3-.492-13.778,4.475-18.9,9.7-25.323,25.817-35.657,63.514-35.042,99.672s11.081,71.369,22.443,105.7c7.722,23.331,16.463,47.416,34.125,64.5,8.631,8.35,19.7,15.579,22.855,27.166,2.94,10.8-1.6,23.828,5.34,32.607,5.686,7.192,16.214,7.712,25.382,7.617l63.215-.65c11.913-.123,35.1,4.992,40.729-8.863,4.6-11.329-3.932-29.388-5.676-40.7C278.807,1009.56,287.9,993.039,287.9,973.3Z"/><path class="b" d="M330.727,850.415c9.868.5,19.529-3.045,28.249-7.692.579,17.882,19.237,32.911,36.832,29.669.141,8.439,2.1,17.936,9.24,22.43,8.025,5.05,18.41,1.461,27.4-1.547s20.486-4.667,26.574,2.6a219.974,219.974,0,0,1,88.4-69.751c-13.637-19.845-20.361-43.464-28.892-65.981s-19.849-45.261-39.491-59.189c-22.105-15.675-50.847-17.586-76.236-27.06-11.335-4.229-22.379-10.084-34.449-10.917s-25.852,5.362-28.567,17.151c20.5,7.087,39.336,21.51,47.368,41.658s2.88,46.02-14.924,58.41c-18.825,13.1-49.407,9.933-64.256,29.472C294.928,826.84,311.442,849.44,330.727,850.415Z"/><path class="b" d="M484.486,632.907a37.324,37.324,0,0,1-33.279-2.184c-15.09-8.987-19.237-25.544-17.3-41.969,1.7-14.437,8.61-27.746,16.546-39.926,1.733-2.659-32.339-49.319-35.175-54.786a236.581,236.581,0,0,1-22.629-65.764c1.25,6.757,26.989,17.18,32.779,20.589,11.6,6.828,21.433,13.407,35.242,15.09-2.533-.308,6.552-30.23,7.721-32.813,4.053-8.954,7.54-12.118,16.447-15.7,20.28-8.153,41.76-3.255,57.806,11.609,14.438,13.374,22.727,32.109,28.41,50.951,5.185,17.192,8.522,35.534,4.666,53.072-1.333,6.062-3.609,13.846-6.853,19.156-1.007,1.647-14.3,13.83-14.5,13.038,6.022,24.77,7.041,49.117,10.274,74.459,4.739,37.157,4,75.613,5.5,113.082-18.032-1.313-32.362-16.9-43.759-29.471C505.821,698.662,491.554,662.4,484.486,632.907Z"/><path class="c" d="M465.52,466.022c-9.58-17.279-.6-41.137,16.723-50.627s39.96-5.79,55.732,6.109c23.522,17.747,39.587,62.582,41.734,91.294,1.131,15.119-2.859,31.217-13.559,41.957-7.776,7.8-19.458,11.948-30.17,10.5"/><path class="c" d="M499.8,453.757l27.521,71.476"/><path class="c" d="M395.772,441.588c2.128,49.4,35.171,77.734,59.916,116.509,28.576,44.779,31.186,100.653,57.118,146.409,12.314,21.726,31.328,40.777,55.32,47.71"/><path class="c" d="M447.3,546.481c-5.43,12.932-10.913,26.06-12.707,39.97s.528,28.944,9.342,39.854,25.009,16.348,37.608,10.185"/><path class="c" d="M383.72,524.779c8.594,13.3,31.443,13.254,39.985-.078"/><path class="c" d="M524.1,642.252c5.218-36.126-9.482-72.68-31-102.165s-49.568-53.423-75.68-78.927C373.051,417.817,348.708,373.1,349.1,309.9c.541-88.2,62.931-167.2,140.984-205.111a260.776,260.776,0,0,1,166.238-20.43"/><path class="c" d="M1143.78,1090.594c3.219-73.141-28.753-143.2-66.244-206.081S995.971,761.791,970.645,693.1c-29.45-79.877-31.758-166.7-38.525-251.566s-19.463-172.592-65.985-243.889c-29.46-45.149-72.481-82.466-121.524-104.907-44.885-20.538-92.729-28.522-140.821-15"/><path class="c" d="M461.479,466.351c-48.595-11.764-87.588-52.208-104.465-98.053"/><path class="c" d="M455.713,436.773a155.058,155.058,0,0,1-74.584-56.348c-18.271-25.855-30.276-57.459-30.212-89.118"/><path class="c" d="M555.406,568.207c11.172,68,22.361,137.363,11.9,205.475-7.806,50.846-27.393,98.987-43.352,147.891s-28.485,100.494-21.494,151.459"/><path class="c" d="M567.6,554.2C583.82,624.549,600.08,695.159,606.7,767.051s3.324,145.577-18.877,214.274c-11.037,34.153-26.886,68.391-23.788,104.148"/><path class="c" d="M580.21,508.532C607.4,601.612,642,692.783,660.7,787.934s20.606,196.63-16.436,286.248"/><path class="c" d="M724.245,1079.1A1520.128,1520.128,0,0,0,734.486,598.74"/><path class="c" d="M893.966,1107.442c10.569-173.085-23.2-339.694-43.872-510.2"/><path class="c" d="M987.408,1081.408c6.547-123.726-39.306-243.829-53.35-366.93-8.865-77.694-5-156.265,1.226-234.215"/><path class="c" d="M1073.041,1085.478c8.627-78.79-16.244-157.231-45.23-231S962.964,707.516,952.5,628.949"/><path class="c" d="M354.478,1067.89C384.929,965.567,457.4,876.441,551.364,825.762"/><path class="c" d="M1001.268,753.275c58.495,26.885,103.924,77.327,134.106,134.191s46.291,120.122,57.831,183.456"/><path class="c" d="M153.106,1066.783l-10.615-39.912"/><path class="c" d="M156.641,1025.559c-15.7-.625-29.737-10.895-38.833-23.7s-14.063-28.015-18.9-42.961c-10.118-31.258-20.285-62.729-24.549-95.3-3.23-24.665-8.617-55.535,6.385-76.7,6.142-8.662,13.421-16.76,17.213-26.678,1.856-4.852,2.834-10.051,5.228-14.661,4.813-9.271,15.839-11.007,25.214-7.859,11.1,3.728,17.64,15.5,19.77,27.01,5,27.047-16.309,53.7-40.592,63.312"/><path class="c" d="M118.191,916.153q2.469-33.2,8.231-66.053c2.094-11.93,6.072-25.728,17.446-29.895,8.264-3.027,17.843.59,24.019,6.861s9.556,14.736,12.209,23.128a195.936,195.936,0,0,1,6.282,91.61"/><path class="c" d="M252.8,994.057c3.48-33.638-24.416-63.382-58.966-62.6"/><path class="c" d="M270.029,908.383c15.743,29.639,27.289,66.187,5.892,96.127a315.059,315.059,0,0,1,16.224,66.5"/><path class="c" d="M212.957,1040.409a76.855,76.855,0,0,0,39.031-12.039"/><path class="c" d="M180.768,835.508c13.727,2.329,24.825,13.179,30.938,25.689s8.01,26.607,9.494,40.451c1.172,10.924,1.384,23.793-7.147,30.717"/><path class="c" d="M195.849,832.426c1.522-4.454,6.405-7.123,11.111-7.246s9.222,1.842,13.271,4.243c23.42,13.891,48.432,63.149,25.662,87.454a21.739,21.739,0,0,1-20.858,6.057"/><path class="c" d="M226.267,825.9c7.314-6.993,19.444-6.969,28.262-2s14.757,13.867,18.846,23.122c5.068,11.472,7.79,24.422,4.951,36.638S266.25,907.041,254,909.721"/><path class="d" d="M126.363,856.381A27.508,27.508,0,0,0,171.477,844"/><path class="c" d="M441.313,721.7c-20.916,13.528-20.936,48.889-43.878,58.59-5.909,2.5-12.477,2.776-18.876,3.244-23.565,1.726-48.275,7.231-65.3,23.619-5.363,5.164-9.991,11.843-10,19.288-.02,11.974,12.209,20.956,24.128,22.1s23.558-3.308,34.958-6.969c16.278-5.227,29.8.016,41.108,12.809,7.3,8.261,12.84,17.976,20.331,26.066,8.105,8.752,18.463,14.563,30.632,13.941"/><path class="c" d="M411.726,760.265a209.807,209.807,0,0,1,5.34-50.423"/><path class="c" d="M338.421,681.388c7.868-10.471,17.765-18.981,31.251-19.907,21.831-1.5,42.229,13.014,61.811,20.473,19.483,7.422,39.984,13.928,56.042,27.8,10.988,9.494,17.458,23.052,23.624,36.2l38.085,81.209"/><path class="c" d="M360.914,846.731c2.175,7.438,5.085,14.823,10.025,20.794s12.184,10.4,19.932,10.478,15.69-4.945,17.6-12.454"/><path class="c" d="M431.562,890.476c-8.314,12.8-31.217,10.141-32.494-6.644"/><path class="c" d="M319.208,801.625c-24.106-9.864-73.378-18.645-80.405-48.8-2.175-9.333.582-19.057,3.746-28.1a301.361,301.361,0,0,1,18.124-41.5c3.483-6.577,7.694-13.465,14.585-16.276,6.736-2.748,14.382-.925,21.364,1.114a405.523,405.523,0,0,1,50.24,18.348c15.863,7.011,32.1,15.794,40.89,30.744,12.305,20.925,4.573,51.133-16.272,63.573"/><path class="c" d="M258.428,748.322c34.8,13.181,71.488,28.051,108.473,33.975"/><path class="c" d="M384.191,710.773a62.64,62.64,0,0,1-6-24.632"/><path class="c" d="M397.432,739.212a23.8,23.8,0,0,0,13.232,3.533"/><path class="d" d="M307.3,821.281c6.557-8.774,20.787-10.393,29.148-3.317s9.113,21.379,1.542,29.295"/><path class="c" d="M241.9,724.179l-81.1-27.213,12.471-32.452s52.006,16.974,79.529,27.327"/><path d="M371.117,735.74c.848,11.091-14.8,28.613-19.2,11.177-.986-3.908-.228-8.051.985-11.895,1.131-3.584,3-7.39,6.527-8.7C364.869,724.3,370.675,729.956,371.117,735.74Z"/><path class="c" d="M818.7,1097.424c3.876-186.515-11.834-372.909-25.922-558.7"/><path class="c" d="M125.472,766.175h1"/><path class="d" d="M286.02,719.469l-3.653-1.066c-1.328,4.836-1.984,10.263.429,14.658s8.95,6.682,12.639,3.285c2.867-2.64,2.7-7.492.5-10.709s-5.9-5.068-9.605-6.288a73.512,73.512,0,0,0,30.706,11.78"/><path class="d" d="M306.768,702.01c2.087-5.439-3.869-12.062-9.473-10.47s-7.1,10.509-2.276,13.77c4.594,3.1,10.745.473,15.624-2.161s11.083-5.2,15.615-2c3.817,2.69,4.118,8.942.882,12.308s-9.059,3.533-12.795.731a12.225,12.225,0,0,1-4.114-12.56"/><path class="c" d="M183.305,685.446l2.974,1.051"/><path class="e" d="M504.069,1097.385h641.306c.823-75.646-30.988-147.556-69.7-212.554s-83.556-127.3-109.087-198.517c-50.373-140.5-14.09-287.732-75.834-437.4C858.4,170.475,796.081,102.58,713.663,82.417c-82.884-20.278-191.836-6-260.9,43.29S341.747,255.571,350.211,340c3.009,30.011,12.364,60.061,31.261,83.568s48.228,39.648,78.353,38.193c-6.31-19.455,8.344-41.621,27.971-47.377s41.438,2.42,56.122,16.658S567.153,464.7,572.991,484.3c8.872,29.784,7.268,70.4-21.635,81.818,35.5,80.912,25.991,174.476,3.921,260.031S494.468,970.211,504.069,1097.385Z"/><path class="a" d="M503.431,1088.205c-14.993,1.74-148.584,5.876-149.392,11.862C369.85,982.9,450.4,881.1,554.6,827.369,523.794,911.394,492.492,999.384,503.431,1088.205Z"/></svg>