<svg id="Layer_2" data-name="Layer 2" xmlns="http://www.w3.org/2000/svg" viewBox="0 0 1653.716 1033.012"><defs><style>.cls-1{opacity:0.62;}.cls-2{opacity:0.45;}.cls-3,.cls-4,.cls-5,.cls-6,.cls-8{fill:none;stroke:#000;}.cls-3,.cls-4,.cls-5,.cls-6{stroke-linecap:round;stroke-linejoin:round;}.cls-3{stroke-width:14px;}.cls-4{stroke-width:11px;}.cls-5,.cls-8{stroke-width:12px;}.cls-6{stroke-width:8px;}.cls-7{opacity:0.19;}.cls-8{stroke-miterlimit:10;}.cls-9{opacity:0.75;}</style></defs><title>EFimage</title><path class="cls-1" d="M130.106,895.405q55.857-11.779,112.36-20.156c34.222-5.075,66.766-12.269,101.231-15.813L576.81,835.46c3.518,0,18.336-34.954,20.716-39.313a189.2,189.2,0,0,0,15.959-39.368,429.562,429.562,0,0,0,14.354-75.188c2.352-23.53-3.125-46.136-6.223-69.609-32.711,28.842-84.255,33.812-121.874,11.751-22.339,10.8-43.224,22.338-64.619,34.564q-70.273,40.089-141.715,78.081-52,27.652-104.583,54.179c-31.59,15.944-65.7,29.075-98.061,44.173,11.511,21.356,24.857,40.476,37.6,61.044Z"/><path class="cls-2" d="M583.484,830.557c117.932-17.883,239.525-19.211,358.509-13.854,26.038-34.845,67.747-57.495,111.152-60.36a248.995,248.995,0,0,0-51.059-296.378c-56.444,14.694-112.581,28.91-165.795,52.157-34.639,15.132-69.722,27.948-103.26,45-9.775,4.971-109.161,50.549-108.171,55.008,8.432,38.475,5.921,75.957-1.784,114.213-7.327,36.382-30.458,71.8-46.6,105.294Q579.977,831.088,583.484,830.557Z"/><path class="cls-3" d="M342.046,480.55a165.466,165.466,0,0,0,16.141,3.838"/><path class="cls-3" d="M78.4,805.011c-36.246-81.717-47.52-174.225-10.09-258.443,18-41,54-72,97-85,31-9,62-12,94-7,22,4,42,13,62.624,19.332"/><path class="cls-3" d="M130.682,894.407A484,484,0,0,1,93.73,836.248"/><path class="cls-3" d="M272.528,982.474a69,69,0,0,1-35.215,3.094c-36-6-61-34-83.236-60.731"/><path class="cls-3" d="M557.893,867.54a538.663,538.663,0,0,1-59.054,70.88c-19.879,19.936-43.147,38.236-70.832,45.546C409.94,988.737,391,987.7,373.26,982.049"/><path class="cls-3" d="M625.535,614.973a276.066,276.066,0,0,1,4.224,60.686,290.33,290.33,0,0,1-10.324,65.013,375.979,375.979,0,0,1-29.655,74.694q-4.192,8.031-8.718,15.882"/><path class="cls-3" d="M246.033,485.084c1.325,26.5,33.59,34.5,54.856,30.26,25.466-5.072,45.553-23.352,68.091-34.973,25.75-13.277,56.148-19.815,85.005-20.248,25.139-.377,50.468,4.327,73.378,14.82a152.073,152.073,0,0,1,28.409,17"/><path class="cls-3" d="M329.427,500.421a177.025,177.025,0,0,1-7.359-96.047c5.923-29.517,23.243-51.028,41.344-74.574,4.916-6.4,10.607-13.271,18.573-14.542,13.314-2.124,22.894,13.978,19.435,25.717-3.976,13.491-18.864,11.445-28.366,17.848-42.2,28.437-48.493,91.578-27.222,134.435"/><path class="cls-3" d="M370.916,363.406c17.392,34.226,57.14,53.618,95.528,53.109s74.96-18.467,104.3-43.224,52.356-56.052,74.311-87.547c-8.982,10-23.5,13.294-36.915,12.48s-26.341-5.12-39.484-7.945c-59.226-12.728-124.379,6.8-166.84,50.007"/><path class="cls-3" d="M393.478,354.523a248.815,248.815,0,0,0,102.679-12.1c29.744-10.042,55.927-38.587,89.085-25.293"/><path class="cls-3" d="M429.653,355.716a75.984,75.984,0,0,1,39.726,36.175"/><path class="cls-3" d="M492.261,346.845a59.13,59.13,0,0,1,36.233,22.316"/><path class="cls-3" d="M543.086,320.9c11.974-2.2,24.854,4.367,34.238,12.125"/><path class="cls-3" d="M435.9,354.041a44.626,44.626,0,0,0,20.064-28.859"/><path class="cls-3" d="M487.327,345.681a52.355,52.355,0,0,0,11.844-30.238"/><path class="cls-3" d="M539.88,318.255l5.678-14.347"/><path class="cls-3" d="M248.43,959.527a172.727,172.727,0,0,0,19.8,19.576c14.351,11.846,31.859,20.708,50.449,21.543,18.513.831,36.674-6.361,51.993-16.79a176.709,176.709,0,0,0,22.811-18.893"/><path class="cls-3" d="M963.9,869.6a282.751,282.751,0,0,1-95.583,48.971c-9,2-17,5-27,7-87,16-177-4-240.975-63.445"/><path class="cls-3" d="M1002.7,460.963a275.088,275.088,0,0,1,19.612,22.6c9,12,17,23,24,36,40,73,40,159,8.227,232.708"/><path class="cls-3" d="M965.009,428.667q9.417,6.711,18.118,14.039"/><path class="cls-3" d="M570.557,484.372c11.931-15.286,27.946-30.161,37.756-39.8a205.384,205.384,0,0,1,22-19c8-5,15-9,22-14,22-13,43-21,67-28,19-6,38-8,58-10"/><path class="cls-3" d="M1015.906,627.723c-3.829,28.435-30.825,51.847-59.516,51.614"/><path class="cls-3" d="M992.471,716.492q.612.188,1.263.337c20.393,4.65,37.154-37.764,17.371-47.349C989.1,658.821,968.955,709.252,992.471,716.492Z"/><path class="cls-3" d="M975.754,678.426a41.7,41.7,0,0,1-1.268,25.047,41.237,41.237,0,0,1-12.131,17.516"/><path class="cls-3" d="M993.7,747.839a30.607,30.607,0,0,0,.967-30.3"/><path class="cls-3" d="M1017.2,697.459a22.3,22.3,0,0,0,15.965,12.685"/><path class="cls-3" d="M1016.647,670.806a23.456,23.456,0,0,0,22.055-9.485"/><path class="cls-3" d="M669.917,874.215c1.731,8.058,11.541,13.259,19.183,10.17"/><path class="cls-3" d="M740.068,899.008a20.369,20.369,0,0,0,24.829,4.081"/><path class="cls-3" d="M856.126,892.22a20.641,20.641,0,0,0,23.514-8.74"/><path class="cls-3" d="M775.27,866.035c5.078,7.509,17.569,8.253,23.5,1.4"/><path class="cls-3" d="M1013.759,758.058a22.4,22.4,0,0,0,15.509-18.415"/><path d="M1531.21,970c-9.2-2.845-19.006-8.99-28.487-14.933a216.291,216.291,0,0,0-19.358-11.24,669.444,669.444,0,0,0-76.793-31.378c-51.587-17.682-130.236-40.584-281.783-60.92-19.494-2.616-39.342-4.367-58.537-6.06-8.633-.761-17.559-1.548-26.315-2.4-3.723-.363-7.59-.651-11.33-.93-10.216-.761-20.78-1.548-30.145-3.952-7-1.795-12.8-5.422-18.94-9.261q-.769-.481-1.546-.965c4.734-2.6,9.021-5,12.517-6.96,4.333-2.428,7.755-4.346,9.353-5.139,9.131-4.531,18.779-7.4,31.283-9.3,21.671-3.287,44.1-4.422,65.788-5.518,7.176-.363,14.6-.739,21.9-1.187,142.408-8.734,252.8-27.441,328.117-55.6a6,6,0,0,0-3.181-11.523c-107.979,19.745-206.928,15.192-272.4,12.179-26.874-1.237-48.1-2.216-63.1-1.285-26.189,1.619-64.919,5.027-98.753,15.88-33.951,10.889-57.952,27.729-71.461,50.094-35.128.33-72.045,1.1-112.683,2.357l-44.319,1.651-44.251,2.091c-6.381.316-12.85.7-19.106,1.076q-5.207.311-10.425.611c-79.117,4.632-158.407,11.38-235.672,20.058L434.8,841.614l-65.944,8.525c-3.188.43-6.371.9-9.553,1.371-1.705.252-3.41.5-5.134.753l-58.447,8.6L237.277,870.5C159.6,883.963,81.563,899.928,5.342,917.953L8.1,929.631c75.985-17.97,153.78-33.885,231.174-47.295l58.246-9.606,58.379-8.593q2.58-.372,5.158-.756c3.135-.463,6.269-.926,9.373-1.347l65.812-8.507,36.675-4.152c77.049-8.653,156.124-15.383,235.018-20q5.226-.3,10.45-.613c6.226-.371,12.664-.756,18.971-1.069l44.183-2.088,44.213-1.647c39.7-1.225,75.853-1.99,110.254-2.33a5.987,5.987,0,0,0,9.77-1.3c11.459-22.363,33.5-38.518,67.379-49.385,32.555-10.442,70.282-13.75,95.828-15.33,14.357-.887,35.3.075,61.812,1.3,49.885,2.3,119.048,5.478,197.035-1.728-66.667,15.644-150.274,26.608-249.75,32.71-7.241.443-14.629.817-21.773,1.178-21.984,1.112-44.717,2.262-66.982,5.64-13.786,2.091-24.525,5.3-34.817,10.41-1.867.927-5.231,2.812-9.885,5.42-5.665,3.174-13.423,7.521-21.742,11.945a6,6,0,0,0,.066,10.63c3.575,1.845,6.948,3.953,10.21,5.992,6.648,4.157,13.523,8.454,22.318,10.71,10.395,2.668,21.5,3.5,32.237,4.3,3.841.286,7.469.557,11.055.907,8.812.859,17.767,1.649,26.426,2.413,19.062,1.681,38.772,3.42,58,6,79.059,10.609,182.274,27.059,279.489,60.379a657.171,657.171,0,0,1,75.428,30.815l.255.125a1472.085,1472.085,0,0,0-364-50.312c-10.518-.129-46.019-2.712-83.489-12.976-29.653-8.122-67.919-23.31-81.826-49.532a6,6,0,0,0-8.112-2.49c-.086.046-.165.1-.247.147-35.618.317-73.053,1.09-114.36,2.365l-44.032,1.64-43.963,2.079c-6.3.311-12.684.692-18.859,1.061q-5.232.312-10.478.614c-78.569,4.6-157.321,11.3-234.075,19.922L438.407,871.4l-65.467,8.463c-3.143.426-6.28.89-9.418,1.353-1.713.254-3.427.507-5.16.756l-58.011,8.539-58,9.563c-77.038,13.35-154.422,29.181-230,47.052L15.114,958.8c75.344-17.816,152.488-33.6,229.239-46.9l57.8-9.53,57.941-8.529q2.593-.373,5.186-.76c3.088-.456,6.177-.913,9.236-1.327l65.335-8.447,36.418-4.122c76.538-8.6,155.076-15.279,233.42-19.866q5.253-.3,10.5-.615c6.145-.366,12.5-.746,18.725-1.055l43.894-2.076,43.925-1.635c41.182-1.271,78.527-2.042,114.054-2.358,13.894,22.149,43.1,39.445,86.916,51.448,34.6,9.479,70.693,13.207,86.511,13.4a1460.3,1460.3,0,0,1,413.452,65.037A6,6,0,1,0,1531.21,970Z"/><path class="cls-4" d="M1492.073,829.411c7.325-4.782,15.373-6.739,24.046-7.267,5.647-.344,21.894.229,26.452,2.153-7.819,19.41-25.195,48.183-48.94,48.7-12.16.264-20.988-9.414-18.769-21.331C1476.61,842.272,1484.358,834.449,1492.073,829.411Z"/><path class="cls-4" d="M1457.844,925.977c17.154,14.162,18.57,13.872,42.017,21.876,2.406-15.759.453-22.419-4.513-36.4-5.044-14.2-14.754-26.473-31.285-32.119"/><path d="M1483.381,810.813c2.678.911,5.07,1.863,7.484,2.812a4.513,4.513,0,0,1,1.669,7.255c-1.1,1.191-2.015,2.192-2.273,2.422-3.948,3.526-6.918,6.417-11.3,9.309C1475.524,831.641,1479.2,811.906,1483.381,810.813Z"/><path d="M1471.872,867.617c-5.105,3.366-6.1,8.024-2.841,14.02,3.23.723,8.249-.522,9.292-5.6S1474.52,867.617,1471.872,867.617Z"/><path class="cls-5" d="M1262.39,791.2c78.439-4.069,134.592-24.575,206.014-41.581-38.106,18.559-72.024,38.088-98.531,50.444"/><path class="cls-6" d="M1468.4,749.62c47.337-15.685,115.111-47.615,176.087-79.721"/><path class="cls-6" d="M1529.439,975.737c34.246,13.21,66.565,28.64,97.751,45"/><path class="cls-6" d="M1500.855,915.525l139.768,23.311"/><path class="cls-6" d="M1530.9,848.7c36.392-2.082,71.944-5.732,107.273-10.931"/><path class="cls-6" d="M1512.114,869.3q64.375,5.813,129.115,5.262"/><path class="cls-6" d="M1409.535,804.982A1665.919,1665.919,0,0,0,1641.23,761.7"/><path d="M1474.053,808.519c-18.541-3.581-39.2-2.919-56.219,6.024-14.376,7.555-27.241,24.159-15.834,39.926a164.457,164.457,0,0,1-27.593-4.147c14.891-7.5,26.235-21.83,35.831-35.1,2.395-3.313,6.5-8.081,5.838-12.573-.872-5.9-8.763-6.355-13.286-7.175-19.231-3.486-41.035-2.1-58.176,8.051-13.772,8.155-25.176,24.833-13.667,39.813a166.232,166.232,0,0,1-27.7-3.312c14.07-7.537,24.392-21.418,33.414-34.212,2.592-3.676,7.555-9.362,6.875-14.341-.844-6.177-8.84-6.437-13.543-7.159-19.005-2.918-40.248-.857-56.959,9.23-13.958,8.425-25.676,25.66-13.429,40.746a165.733,165.733,0,0,1-27.793-2.477c12.995-7.432,22.12-20.245,30.446-32.337,2.876-4.176,7.623-9.724,8.3-15.028.42-3.271.3-3.144-2.925-3.226-4.869-.123-10.121.855-14.979,1.227-10.09.772-20.162,1.839-30.237,2.789-5,.471-10.263.587-15.2,1.533-3.239.62-8.483,1.173-11.35,2.579-6.195,3.04-11.553,12.181-12.963,18.57a22.24,22.24,0,0,0,5.113,19.453,155.3,155.3,0,0,1-27.852-1.685c13.8-8.4,23.263-23.057,31.577-36.522-3.273.128-6.6-.083-9.862.136-3.223.216-2.986.307-5.123,2.47-2.888,2.924-5.016,7.357-7.631,10.607-5.522,6.862-12,13.5-20.429,16.637-8.059,3-18.633,2.815-24.612-4.273-6.247-7.406-.486-16.2,5.623-21.478-4.007.284-10.318-.711-14.014.621-3.267,1.178-4.776,6.764-5.308,10.359a22.379,22.379,0,0,0,5.87,18.369,169.531,169.531,0,0,1-27.889-.848c10.5-6.9,17.976-17.419,24.627-27.858-3.707-.01-10.732-1.554-13.477.223-2.444,1.583-4.634,6.4-6.605,8.693-4.485,5.225-9.751,9.956-16.2,12.572-11.9,4.825-35.32-1.315-25.566-18.126-3.284.592-7.154.828-10.282,1.99-3.59,1.335-3.366,3.587-2.862,7.693a22.835,22.835,0,0,0,6.39,12.992,168.039,168.039,0,0,1-27.9-.01c7.273-5.075,12.981-12.055,17.952-19.319-4.5.942-8.994,1.934-13.458,3.046-4.649,1.159-6.67,4.205-10.524,6.9a32.1,32.1,0,0,1-12.325,5.364c-4.081.784-8.586-.574-12.057,1.036-6.449,2.991-10.944,11.485-6.756,17.9,4.081,6.248,13.638,6.6,20.2,8.289-5.574-6.414-12.035-11.2-20.273-13.652,4.2-.906,7.008-2.562,11.236-2.074,4.834.559,9.391.922,14.051,2.467a62.646,62.646,0,0,1,13.135,6.134c2.8,1.729,2.929,1.307,2.512,3.745-.4,2.36-2.379,4.929-3,7.373,2.572.5,7.034,2.339,9.5,1.739,2.326-.568,2.589-3.627,4.625-5.744,3.96-4.115,9.851-4.073,15.02-2.691a28.874,28.874,0,0,1,13.427,8.1c2.566,2.708,3.413,4.927,7.008,5.79,3.84.923,8.227.935,12.157,1.372-7.164-10.943-15.177-21.271-28.057-25.47,2.555-.481,5.435-2.14,7.925-2.347,2.084-.174,5.227.634,7.32.93a55.138,55.138,0,0,1,16.959,5.59c2.177,1.1,6.263,2.666,7.762,4.651,1.542,2.043,1.108.306.648,2.619-.2.987-1.26,2.208-1.688,3.151-1.136,2.5-3.577,7.9-2.515,10.6.915,2.332,7.913,2.052,10.9,2.373-1.351-13.831,11.875-18.2,22.6-13.507a29.967,29.967,0,0,1,11.634,9.371c2.317,2.93,4.254,7.295,7.462,8.616,3.307,1.362,8.834.975,12.385,1.375-7.066-12.5-15.66-25.636-29.823-30.6,3.069-.488,6.109-1.836,9.071-1.862a41.021,41.021,0,0,1,7.266,1.141,56.464,56.464,0,0,1,18.8,7.625,18.264,18.264,0,0,1,3.692,2.473c2,2.132,2.071.491,1.428,3.275-.651,2.82-3.031,5.583-3.8,8.549-.487,1.874-2.166,8.679-.675,10.072,1.615,1.509,9.1,1.061,11.37,1.331-4.821-15.872,11.4-22.285,23.332-15.936,5.429,2.889,8.913,7.111,12.375,12.073,1.621,2.322,3.712,7.926,5.909,9.309,2.971,1.87,9.922,1.47,13.423,2.017-6.813-14.012-15.609-29.081-30.742-35.115,3.68-.45,6.659-1.523,10.191-1.268a45.131,45.131,0,0,1,7.2,1.309,56.277,56.277,0,0,1,18.493,8.578c.976.676,2.826,1.613,3.488,2.606,2.107,3.165.8.47.005,3.387-.848,3.128-3.233,5.916-4,9.262-.512,2.249-1.85,10.069.031,11.982,1.688,1.717,9.807,1.616,12.264,2.04-3.415-6.813-2.55-16.4,4.43-20.756,5.81-3.622,13.514-1.069,18.857,2.224,5.729,3.53,9.3,8.921,12.769,14.545,2.06,3.337,3.614,8.533,6.2,11.355,2.549,2.778,9.821,3.2,13.677,4.121-6.362-16.177-15.5-35.045-32.345-42.277,3.661-.352,6.716-1.349,10.228-1a44.264,44.264,0,0,1,10.45,2.563,57.854,57.854,0,0,1,9.969,4.819c1.553.93,9.749,5.282,9.876,7.3.093,1.457-4.416,6.892-5.054,8.629a26.813,26.813,0,0,0-1.6,11.22c.269,3.521.882,8.278,3.769,10.039,3.52,2.146,10.185,2.543,14.169,3.578-6.249-7.205-10.532-18.071-3.077-26.138,5.877-6.359,15.249-3.815,21.629.418,6.952,4.613,11.006,12.183,14.775,19.406a127.044,127.044,0,0,1,5.967,13.238c1.475,3.839,1.4,4.47,5.408,5.691q4.406,1.341,8.8,2.719c-5.3-19.287-14.941-44.334-34.283-53.292,4.715-.328,7.832-1.37,12.368-.208a60.769,60.769,0,0,1,12.58,4.361,62.428,62.428,0,0,1,12.1,7.932c3.157,2.644,3.092,2.32.874,5.474a28.13,28.13,0,0,0-3.124,5.763c-3.9,9.818-1.323,20.041,4.35,28.579,3.574,5.378,9.828,6.1,15.77,8.1q9.045,3.048,18.033,6.267c-10.385-5.267-21.792-13.579-27-24.314-4.828-9.953-.29-24.192,12.515-23,10.609.99,17.333,9.512,22.125,18.085a126.319,126.319,0,0,1,13.557,36.737q-1.861-.5-3.715-1.026,7.774,2.979,15.485,6.122c-3.237-23.044-12.6-56.317-35.186-67.614,4.2-.181,7.412-1.243,11.421-.031,4.074,1.231,7.889,2.2,11.748,4.1a59.53,59.53,0,0,1,11.8,7.7c.95.792,4.662,3.3,4.658,4.331,0,.8-2.848,3.436-3.3,4.126-11.44,17.618,1.288,36.766,15.2,48.236.628-3.1,1.632-6.334,1.921-9.479.08-.882.83-2.228.622-3.075-.585-2.385-5.811-6.395-7.328-8.786-3.571-5.632-5.508-12.389-2.495-18.711,3.229-6.774,9.746-9.24,16.816-7.012l3.922-19.356a152.937,152.937,0,0,1-26.641-4.865c8.638-3.952,16-10.372,22.486-17.208,3.76-3.962,9.3-8.676,11.386-13.616,1.759-4.178,1.979-9.771,2.88-14.218.318-1.566,1.548-4.449,1.208-5.96C1482.637,809.285,1476.725,809.042,1474.053,808.519ZM1209.4,826.326c-6.9-1.184-14.953-4.445-15.857-12.5-.819-7.285,5.961-13.532,11.355-17.314,14.844-10.409,34.876-12.3,52.4-9.947C1247.107,803.378,1231.747,827.367,1209.4,826.326Zm82.327,6.455c-8.118,2.3-18.435,1.461-23.855-5.842-5.349-7.206-.378-14.969,5.467-19.971,14.992-12.83,38.048-14.643,56.719-11.4C1320.952,809.567,1308.58,827.959,1291.731,832.781Zm60.638,10.723c-6.795-1.623-14.667-5.245-15.1-13.342-.391-7.318,6.773-13.217,12.373-16.691,15.327-9.509,35.662-10.216,52.888-6.749C1391.378,822.832,1374.526,846.075,1352.369,843.5Zm107.281-5.636c-8.353,8.711-18.6,17.415-31.3,17.736-9.707.246-23.543-7.182-18.667-18.806,4.1-9.78,16.906-14.9,26.383-17.182,12.612-3.032,25.992-2.468,38.583.379A183.143,183.143,0,0,1,1459.65,837.868Z"/><polygon points="1408.528 808.145 1408.527 808.145 1408.519 808.143 1408.528 808.145"/><polygon points="1336.096 796.837 1336.095 796.837 1336.086 796.834 1336.096 796.837"/><path class="cls-6" d="M1311.113,928.175a1050.538,1050.538,0,0,1,179.422,94.392"/><path class="cls-6" d="M1443.87,740.131a1839.589,1839.589,0,0,0,200.7-101.049"/><path class="cls-7" d="M14.2,954.906c75.408-17.831,152.613-33.626,229.471-46.945l57.829-9.535,58.009-8.54c1.737-.25,3.46-.5,5.183-.76l.214-.031c3.034-.449,6.067-.9,9.072-1.3l65.358-8.449,36.481-4.13c76.6-8.6,155.207-15.293,233.636-19.885q5.247-.3,10.474-.613l.365-.022c6.045-.36,12.3-.733,18.426-1.037l43.9-2.076,43.965-1.637c41.18-1.271,78.516-2.044,114.168-2.361l2.235-.02,1.189,1.894c13.343,21.271,41.8,38,84.583,49.717,34.231,9.377,69.889,13.067,85.5,13.259a1464.3,1464.3,0,0,1,414.584,65.215,2.023,2.023,0,0,0,2.5-1.321,2,2,0,0,0-1.32-2.5c-9.706-3-19.733-9.286-29.43-15.365a213.336,213.336,0,0,0-18.986-11.033,665.474,665.474,0,0,0-76.337-31.19q-32.22-11.041-65.127-19.886-10.548-2.83-21.15-5.451c-5.9-1.459-14.326-.97-15.938-7.431-2.754-11.038,2.717-24.076,11.76-30.607a69.151,69.151,0,0,0-61.768-8.891,77.87,77.87,0,0,1,35.774,40.313c-14.667-4.44-29.732-7.4-44.813-10.026-2.16-.376-8.9-.333-10.414-1.8-1.643-1.592-.773-6.01-.412-8.121a26.553,26.553,0,0,1,8.72-15.587c-14.407-14.608-38.349-18.754-56.83-9.841a46.488,46.488,0,0,1,26.841,31.107c-13.638-4.55-28.306-5.911-42.5-8.068-6.738-1.024-8.35-.571-5.188-7.794a44,44,0,0,1,9.2-13.476c-8.67-5.782-17.606-11.68-27.788-13.9s-22.042.044-28.475,8.243a43.354,43.354,0,0,1,23.746,23.808c-5.633-1.141-10.942-2.562-16.653-3.328-10.648-1.429-23.547-.662-33.249-5.174l12.706-16.527a71.524,71.524,0,0,0-64.735-3.87,56.167,56.167,0,0,1,29.48,20.274c-.984-.984-10.225-.7-12.523-1.213-10.883-2.415-22.223-2.766-33.32-3.159a140.179,140.179,0,0,1,26.105-26.249,27.373,27.373,0,0,1-4.641-7.434c-.987-2.765-.987-6.051.729-8.432,3.566-4.949,14.407-3.805,19.944-4.409,12.961-1.414,25.546-1.436,38.458-1.466a66.5,66.5,0,0,1-26.392,28.007,117.826,117.826,0,0,0,49.25-2.254c-3.938,1.036-8-10.082-8.882-12.335-1.77-4.514-3.265-8.947,1.279-12.719,3.424-2.842,8.124-3.443,12.546-3.932l52.139-5.758a126.688,126.688,0,0,1-37.488,40.57,201.235,201.235,0,0,0,53.32,2.86c-4.95-4.891-8.747-11.136-9.871-18s.662-14.347,5.462-19.385c7.749-8.134,22.439-7.178,32.846-8.638l39-5.473a122.454,122.454,0,0,1-51.292,53.321,157.854,157.854,0,0,0,55.382.746c-6.722-1.532-11.275-8.616-11.183-15.509s4.1-13.3,9.441-17.662,11.9-6.931,18.49-8.967a146.5,146.5,0,0,1,33.066-6.171c4.554-.316,10.018.039,12.361,3.957,2.128,3.561.457,8.121-1.478,11.791a95.214,95.214,0,0,1-39.6,39.569,114.35,114.35,0,0,0,48.32,6.274c-7.354-3.428-10.695-12.766-8.893-20.678s7.767-14.344,14.642-18.654,14.693-6.82,22.33-9.561a346.7,346.7,0,0,0,91.117-49.147,1431.923,1431.923,0,0,1-171.473,36.062c-5.181.762-11.248,1.213-14.859-2.579,8.8-2.728,17.225-5.317,26.31-6.794,47.057-7.648,94.133-17.614,139.131-33.6q3.664-1.3,7.306-2.662a2,2,0,0,0-1.059-3.841c-108.436,19.828-207.654,15.262-273.309,12.24l-.147-.007c-26.686-1.228-47.765-2.195-62.525-1.282-25.974,1.606-64.369,4.98-97.778,15.7-32.964,10.573-56.266,26.842-69.259,48.354l-1.154,1.91-2.232.021c-35.12.331-71.951,1.1-112.6,2.356l-44.293,1.65L736.969,819.7c-6.26.311-12.629.69-18.787,1.058l-.27.016q-5.213.31-10.437.612c-79.042,4.628-158.262,11.37-235.452,20.039l-36.769,4.164-65.882,8.516c-3.079.416-6.176.874-9.273,1.331l-.208.031c-1.708.253-3.418.5-5.146.755l-58.436,8.6s-58.062,9.575-58.377,9.628C158.274,887.586,80.659,901.094,6.791,921.833"/><path d="M1075.146,627.472c-.107,3.159-.313,6.31-.579,9.457,12.175-2.5,24.071-4.9,35.777-7.215a5.988,5.988,0,0,0,9.361-3.08,81.674,81.674,0,0,1,18.121-31.641,40.649,40.649,0,0,1-16.235,1.644c-.094-.012-.182-.033-.273-.048a91.356,91.356,0,0,0-11.189,20.936c-11.685,2.3-23.551,4.686-35.695,7.179A4.686,4.686,0,0,1,1075.146,627.472Z"/><path d="M1640.016,560.065a25.705,25.705,0,0,0,.4,4.532q.4-6.448.81-12.9A30.063,30.063,0,0,0,1640.016,560.065Z"/><path d="M1138.935,636.04c3.854,1.156,7.558,2.607,11.139,4.012,7.3,2.861,14.848,5.819,23.909,6.42,10.707.707,21.771-.523,32.471-1.712,3.83-.426,7.448-.829,11.038-1.145,8.812-.776,17.751-1.647,26.4-2.489,19.053-1.857,38.754-3.777,58.133-4.779,79.661-4.127,184.141-6.953,285.826,7.9,17.036,2.49,33.1,5.38,48.5,8.728q.09-6.105.258-12.209c-3.677-.785-7.378-1.554-11.132-2.289-8.178-20.985-22.665-46.072-44.214-52.236,4.1-.952,7.056-2.586,11.22-2.133,4.231.461,8.158.711,12.3,1.869a59.5,59.5,0,0,1,13.019,5.393c1.079.6,5.188,2.38,5.376,3.4.144.785-2.168,3.9-2.481,4.661-6.657,16.159,3.325,30.275,15.955,39.581q.195-6.983.476-13.964a10.8,10.8,0,0,1-1.246-1.1c-4.547-4.879-7.7-11.163-5.9-17.932a12.857,12.857,0,0,1,8.511-9.415q.552-9.927,1.168-19.854a173.225,173.225,0,0,1-21.23-.344c7.763-5.475,13.814-13.139,18.934-21.053,1.184-1.831,2.625-3.837,4-5.914.657-10.558,1.292-21.117,1.847-31.676a60.474,60.474,0,0,0-6.437.032c-18.883-.108-39.07,4.345-54.149,16.267-12.741,10.073-22.33,28.76-8.215,42.159a164.414,164.414,0,0,1-27.886,1c13.258-10.107,21.77-26.285,28.759-41.094a51.653,51.653,0,0,0,3.26-7.565q32.8-10.214,65.212-21.8.2-4.314.377-8.628-33.142,11.917-66.732,22.407c-3-3.18-9.187-2.475-13.071-2.452-2.623.015-5.277.133-7.94.344,6.614-5.145,13.512-10.62,20.607-16.255,14.164-11.248,30.218-24,46.961-36.42a5.975,5.975,0,0,0,2.271-3.508c5.923-3.355,12.228-7.1,18.852-11.193q-.023-4.686-.1-9.373c-7.88,4.942-15.479,9.513-22.667,13.583a5.978,5.978,0,0,0-4.372.192c-17,7.568-33.058,15.206-48.588,22.591-41.654,19.811-81.2,38.616-130.725,52.118,65.5-22.374,118.926-45.962,159.665-70.543a5.955,5.955,0,0,0,2.407-2.816c13.589-9.118,28.354-19.375,43.855-30.521q-.184-4.773-.438-9.546c-16.373,11.842-31.98,22.728-46.31,32.371a5.968,5.968,0,0,0-4.762-.229c-75.14,28.8-147.9,43.857-206.965,53.431,1.653,3.54,2.18,7.567,3.341,11.618,39.444-6.425,84.891-15.294,133.127-29.021-62.649,27.648-142.806,53.811-239.46,78.118-7.037,1.769-14.231,3.5-21.189,5.167-21.4,5.139-43.533,10.452-64.794,17.869-13.165,4.594-23.129,9.727-32.307,16.642-1.662,1.253-4.616,3.72-8.7,7.134-4.987,4.166-11.816,9.871-19.185,15.755a6,6,0,0,0,2.02,10.436Zm439.778-78.595c2.233-10.369,13.874-17.762,22.77-21.745,11.839-5.3,25.094-7.209,37.993-6.729a183.311,183.311,0,0,1-11.45,20.328c-6.607,10.1-15.082,20.542-27.5,23.194C1591.027,574.521,1576.06,569.767,1578.713,557.445Zm-8.094,38.623c10.61-.98,18.786,6.159,25.075,13.7a126.22,126.22,0,0,1,16.845,26.3q-11.209-1.978-22.957-3.7c-5.541-.81-11.378-1.621-17.547-2.416a40.791,40.791,0,0,1-9.485-8.987C1555.973,612.082,1557.813,597.251,1570.619,596.068ZM1216.44,631.662c-2.585.227-5.222.506-7.846.792,3.242-4.032,8.641-4.922,13.636-4.542a28.081,28.081,0,0,1,9.231,2.36C1226.457,630.751,1221.426,631.222,1216.44,631.662Zm50.4-10.841c-.012,1.006-.833,2.4-1.08,3.407-.183.746-.424,1.737-.644,2.825q-8.384.76-16.665,1.573c-6.774-5.816-14.327-10.36-23.637-11.577,2.422-.944,4.948-3.1,7.357-3.766,2.017-.554,5.254-.339,7.366-.433a55.124,55.124,0,0,1,17.7,2.373c2.343.682,6.647,1.468,8.486,3.144C1267.609,620.091,1266.862,618.463,1266.836,620.821Zm34.564,3.541c-8.3.43-16.636,1.028-24.942,1.712,2.639-6.943,11.351-9.988,19.65-8.067a29.035,29.035,0,0,1,11.9,6.021Q1304.727,624.191,1301.4,624.362Zm36.168-12.676c-.121,2.891-1.952,6.046-2.164,9.1-.031.448-.076,1.174-.105,2.03q-5.8.227-11.753.486c-7.7-8.019-16.65-14.929-27.875-16.645,2.926-1.044,5.666-2.929,8.572-3.5a41.037,41.037,0,0,1,7.352-.216,56.491,56.491,0,0,1,19.883,4.035,18.321,18.321,0,0,1,4.084,1.751C1337.92,610.458,1337.687,608.831,1337.568,611.686Zm8.346,10.742c-.125-10.108,11.606-15.649,22.1-12.357,5.868,1.84,10.069,5.349,14.386,9.589a20.241,20.241,0,0,1,1.528,1.763Q1365.8,621.743,1345.914,622.428Zm62.285-16.935c-.259,3.23-2.09,6.41-2.223,9.838a44.291,44.291,0,0,0,.222,5.823q-3.634.023-7.342.06c-8.419-10.465-18.623-20.2-32.048-22.837,3.534-1.119,6.264-2.722,9.784-3.122a45.222,45.222,0,0,1,7.314-.038,56.292,56.292,0,0,1,19.756,5.028c1.084.485,3.075,1.065,3.908,1.92C1410.224,604.888,1408.44,602.479,1408.2,605.493Zm9.534,15.625c-1.656-5.369-.927-11.471,3.444-15.483,5.043-4.63,13.086-3.538,18.943-1.285,6.281,2.415,10.783,7.057,15.228,11.946a64.093,64.093,0,0,1,4.019,5.352C1446.4,621.307,1432.55,621.12,1417.733,621.118Zm59.892-2.154c.279,1.044.612,2.195,1.03,3.325q-2.3-.093-4.633-.179c-8.8-13.1-20.266-26.368-35.859-29.863,3.534-1.02,6.353-2.562,9.869-2.869a44.247,44.247,0,0,1,10.744.6,57.845,57.845,0,0,1,10.685,2.9c1.7.628,10.554,3.4,11.05,5.353.359,1.415-3.072,7.587-3.38,9.412A26.822,26.822,0,0,0,1477.625,618.964Zm14.144,3.923c-4.084-5.552-5.963-12.4-1.842-18.965,4.606-7.332,14.287-6.557,21.336-3.571,7.684,3.255,13.062,9.95,18.1,16.356Q1532.887,621.2,1536,626C1522.669,624.783,1508.014,623.713,1491.769,622.887Zm56.533-29.626c3.591,2.017,3.467,1.711,1.868,5.219a28.086,28.086,0,0,0-2.011,6.239c-1.657,8.5,1.01,16.461,5.961,23.1-1.479-.163-2.971-.325-4.486-.484-8.846-16.49-21.892-34.55-39.967-39.139,4.573-1.19,7.445-2.788,12.118-2.481a60.743,60.743,0,0,1,13.167,1.971A62.353,62.353,0,0,1,1548.3,593.261ZM1566.15,529.2c-8,17.887-20.284,43.835-42.536,45.386-6.978-.345-15.381-2.456-17.3-10.335-1.731-7.12,4.226-14.238,9.09-18.683a57.209,57.209,0,0,1,18.305-10.972,5.963,5.963,0,0,0,2.287-.846A90.326,90.326,0,0,1,1566.15,529.2Zm-60.8-4.129a6.035,6.035,0,0,0-3.217-3.657c24.928-9.96,48.227-21.031,72.2-32.435l-4.8,3.811c-14.554,11.558-28.3,22.475-40.207,31a5.975,5.975,0,0,0-1.175,1.116,68.692,68.692,0,0,0-19.523,11.814c-12.037,10.55-20.176,29.043-6.106,41.649a166.217,166.217,0,0,1-27.842,1.843c12.443-10,20.034-25.541,26.547-39.777C1503.1,536.341,1506.936,529.838,1505.351,525.069Zm-66.137,28.148c12.374-15.37,34.7-21.395,53.652-21.642-6.378,15.434-15.154,35.79-30.827,43.629-7.555,3.758-17.851,4.83-24.523-1.35C1430.932,567.755,1434.389,559.209,1439.214,553.217Zm-11.059-7.945c1.4-.341,2.791-.682,4.17-1.03-9.7,11.105-14.659,27.27-1.591,38.361a165.926,165.926,0,0,1-27.773,2.681c11.4-9.7,18.015-23.971,23.974-37.388C1427.3,547.07,1427.719,546.189,1428.155,545.272Zm-58.137,10.268a52.29,52.29,0,0,1,6.517-5.6q22.239-6.618,42.993-13.392c-6.93,18.377-17.615,44.4-39.6,47.464-7,.106-15.516-1.617-17.886-9.364C1359.9,567.639,1365.413,560.251,1370.018,555.54Zm-15.236.733a34.326,34.326,0,0,0-4.289,14.527,22.241,22.241,0,0,0,8.606,18.18,155.425,155.425,0,0,1-27.686,3.47c10.424-9.367,16.775-22.76,21.993-35.785Zm-63.577,17.083q24.653-6.255,47.879-12.674c-1.046,2.443-1.977,5.015-3.153,7.207-4.165,7.762-9.312,15.482-17.018,20.113-7.369,4.43-17.8,6.2-24.978.33C1288.928,584.242,1289.066,578.56,1291.205,573.356Zm-12.542,3.141a28.848,28.848,0,0,0-.125,4.038,22.376,22.376,0,0,0,9.151,16.974,169.337,169.337,0,0,1-27.569,4.3c7.158-6.885,12.034-15.654,16.045-24.7Zm-16.676,4.03a17.6,17.6,0,0,1-.886,1.827c-3.447,5.962-7.752,11.58-13.613,15.34-9.127,5.854-27.765,5.534-29.435-5.735C1232.6,587.642,1247.439,584.023,1261.987,580.527Zm-62.052,17.279c.376-.134.746-.27,1.129-.4,2.128-.743,4.276-1.452,6.426-2.154.121.4.253.824.394,1.27a22.839,22.839,0,0,0,8.673,11.6,168.08,168.08,0,0,1-27.427,5.126A63.734,63.734,0,0,0,1199.935,597.806Zm-21.472,10.075a31.916,31.916,0,0,1-4.98,3.344C1175.1,610.056,1176.756,608.945,1178.463,607.881Zm-13.518,17.509c4.853-.34,9.4-.822,14.264-.161a62.608,62.608,0,0,1,14.04,3.612c3.073,1.183,3.119.745,3.158,3.218a8.294,8.294,0,0,1-.183,1.716,134.12,134.12,0,0,1-21.449.722,41.989,41.989,0,0,1-7.144-1.136,39.446,39.446,0,0,0-10.586-3.472q-.969-.375-1.949-.76C1158.593,627.531,1161,625.667,1164.945,625.39Z"/><path d="M1637.016,699.543a1052.216,1052.216,0,0,0-105.734-31.02q52.482-.822,104.978,2.131-.027-4.437,0-8.875c0-1.049.021-2.1.03-3.146a1472,1472,0,0,0-335.4,19.645c-10.362,1.809-45.732,5.8-84.451,2.611-30.64-2.525-71.049-10.409-89.545-33.625a6,6,0,0,0-8.431-.953c-.076.061-.144.128-.217.192-14.859,2.919-30.015,5.975-45.645,9.21-.449,4.159-.859,8.321-1.137,12.492,16.844-3.5,33.146-6.8,49.089-9.928,17.734,19.213,49.618,30.839,94.9,34.572,10.5.866,21.041,1.22,31.082,1.22,24.142,0,45.413-2.049,56.419-3.97a1460.918,1460.918,0,0,1,195.285-20.7,1045.609,1045.609,0,0,1,139.245,38.8Q1637.218,703.873,1637.016,699.543Z"/><path class="cls-4" d="M1459.512,374.984c4.518-7.49,10.916-12.75,18.5-17,4.937-2.764,19.818-9.309,24.759-9.557,1.393,20.879-1.751,54.344-22.912,65.128-10.837,5.522-22.994.643-26.175-11.054C1451.175,393.287,1454.753,382.874,1459.512,374.984Z"/><path class="cls-4" d="M1470.652,476.829c21.6,5.3,22.754,4.424,47.349,1.442-4.682-15.239-9.335-20.388-19.884-30.821-10.715-10.6-24.793-17.43-42.135-15.331"/><path d="M1443.6,362.012c2.808-.344,5.376-.525,7.963-.72a4.514,4.514,0,0,1,4.656,5.809c-.469,1.548-.863,2.85-1,3.169-2.023,4.891-3.442,8.786-6.128,13.293C1445.577,384.185,1440.308,364.814,1443.6,362.012Z"/><path d="M1457.923,418.173c-3.135,5.25-2.009,9.878,3.534,13.861,3.224-.752,7.2-4.055,5.934-9.083S1460.308,417.022,1457.923,418.173Z"/><path d="M1419.529,449.32a32.78,32.78,0,0,0-4.029-2.241,39.717,39.717,0,0,0-14.854-3.587,33.02,33.02,0,0,0,6.665-4.393c.715-.034,1.424-.092,2.13-.18l.222-.034a26.544,26.544,0,0,0,3.647-.732,48.352,48.352,0,0,1,10.222-.552,5.189,5.189,0,0,0,.77.055,59.556,59.556,0,0,1,17.611,3.93,27.108,27.108,0,0,0-1.124,5.127,27.792,27.792,0,0,0,6.3,21.581c6.785,8.182,17.545,12.957,27.582,15.545l-3.165-12.41c-6.527-2.276-12.662-5.62-16.5-10.264a16.031,16.031,0,0,1-3.693-12.789c.531-4.327,2.39-7.339,5.679-9.21a16.309,16.309,0,0,1,5.816-1.856l-4.88-19.136a145.7,145.7,0,0,1-25.11,6.838c6.018-7.475,9.562-16.709,12.127-25.035.352-1.143,2.313-8.224,3.981-15.614.061-.28.116-.529.175-.8l-5.495-21.55a90.31,90.31,0,0,0-8.919,1.829,96.637,96.637,0,0,0-23.881,9.709c-11.579,6.77-20.467,15.527-25.7,25.313a44.837,44.837,0,0,0-2.446,5.4c-2.6,6.984-2.868,13.609-.755,19.409a22.3,22.3,0,0,0,8.9,11.035h0c.328.217.648.44.989.643l-.738.3h0a145.617,145.617,0,0,1-25.028,7.132c5.93-7.544,9.366-16.82,11.833-25.175.338-1.147,2.217-8.251,3.8-15.66.059-.281.11-.53.167-.8,2.837-13.42,2.379-16.906.244-19.462a5.9,5.9,0,0,0-5.439-2.115h0l-.552.092a90.159,90.159,0,0,0-8.9,1.933,96.547,96.547,0,0,0-23.765,9.988c-11.5,6.9-20.286,15.764-25.4,25.611a44.726,44.726,0,0,0-2.383,5.425c-2.517,7.013-2.709,13.641-.528,19.417a22.309,22.309,0,0,0,9.027,10.929h0c.331.213.654.433,1,.632l-.734.305a145.473,145.473,0,0,1-24.943,7.424c5.841-7.613,9.168-16.927,11.538-25.311.325-1.151,2.12-8.276,3.615-15.7.055-.281.1-.531.157-.8,2.681-13.453,2.182-16.933.017-19.465a5.939,5.939,0,0,0-4.222-2.108c-17.357,11.31-35.939,20.58-54.318,30.239a53.858,53.858,0,0,0-5.093,8.124,44.69,44.69,0,0,0-2.32,5.453c-2.434,7.043-2.549,13.672-.3,19.421a22.319,22.319,0,0,0,9.154,10.825h0c.333.209.658.424,1,.618l-.731.315a145.587,145.587,0,0,1-24.855,7.715c5.753-7.682,8.971-17.035,11.243-25.445.311-1.154,2.023-8.3,3.431-15.744.052-.282.1-.532.148-.806.478-2.556.845-4.75,1.113-6.649-1,.535-2,1.066-2.992,1.606q-4.542,2.462-9.059,4.968c-1.067,5.531-2.308,11.072-2.943,13.434-3.505,13.012-8.944,26.85-22.9,31.72-1.059.226-2.108.481-3.148.775-6.259.889-13.6-1.592-15.974-7.479-1.806-4.481-.4-9.8,1.109-13.508q-6.309,3.623-12.631,7.224a24.421,24.421,0,0,0,1.683,10.345,22.312,22.312,0,0,0,9.279,10.716h0c.336.2.663.417,1.011.607l-.727.323v0a145.659,145.659,0,0,1-24.762,8c5.662-7.747,8.771-17.137,10.945-25.573.108-.423.4-1.653.78-3.4q-5.313,3.017-10.645,6c-.834.466-1.674.921-2.509,1.385-3.495,10.7-9.094,20.794-20.5,24.922-1.056.238-2.1.5-3.139.811-5.492.846-11.851-.9-14.966-5.321q-4.782,2.4-9.588,4.764a22.634,22.634,0,0,0,8.107,8.048h0c.338.2.668.409,1.018.6l-.723.332a145.658,145.658,0,0,1-24.668,8.293,57.51,57.51,0,0,0,6.63-12.6q-8.408,4.024-16.883,7.907a27.736,27.736,0,0,1-11.633,8.285c-1.052.25-2.1.53-3.129.847a18.369,18.369,0,0,1-5.585.042q-6.683,2.965-13.386,5.891a24.127,24.127,0,0,0,2.613,1.75h0c.339.2.672.4,1.024.583l-.719.341c-.711.338-1.46.68-2.241,1.025a139.016,139.016,0,0,1,7.093,16.562c.172.458.338.916.508,1.374.282-.072.558-.153.848-.213h0a26.7,26.7,0,0,1,10.627.155c5.127-1.209,10.272-2.343,15.452-3.33.721-.137,1.442-.267,2.162-.4-1.722-1.1-3.46-2.165-5.224-3.177a32.565,32.565,0,0,0-4.153-2,39.76,39.76,0,0,0-15.039-2.715,32.963,32.963,0,0,0,6.4-4.773c.711-.076,1.416-.176,2.115-.3l.22-.047a26.387,26.387,0,0,0,3.6-.943,48.315,48.315,0,0,1,10.172-1.147,5.229,5.229,0,0,0,.772.01,59.533,59.533,0,0,1,17.81,2.9,27.126,27.126,0,0,0-.823,5.182,30.211,30.211,0,0,0,.03,4.216q5.264-.876,10.539-1.686c-.005-.488,0-.978.029-1.482.278-4.351,1.958-7.466,5.132-9.526a16.3,16.3,0,0,1,5.7-2.193h0a27.615,27.615,0,0,1,15.279,1.724h0a21.816,21.816,0,0,1,2.768,1.37q4.031,2.383,7.89,5.083,7.66-.93,15.328-1.784a135.238,135.238,0,0,0-18.172-12.879,32.464,32.464,0,0,0-4.129-2.05,39.7,39.7,0,0,0-15.005-2.89,33.037,33.037,0,0,0,6.453-4.7c.711-.067,1.418-.159,2.118-.281l.22-.043a26.558,26.558,0,0,0,3.609-.9,48.31,48.31,0,0,1,10.186-1.028,4.95,4.95,0,0,0,.771.019,59.568,59.568,0,0,1,17.776,3.1,27.108,27.108,0,0,0-.884,5.172,27.876,27.876,0,0,0,3.357,15.779q6.09-.668,12.184-1.307c-.229-.229-.454-.46-.67-.7a16.038,16.038,0,0,1-4.286-12.6c.329-4.347,2.045-7.442,5.243-9.465a16.31,16.31,0,0,1,5.724-2.126v0a27.645,27.645,0,0,1,15.258,1.9h0a21.921,21.921,0,0,1,2.752,1.4A128.027,128.027,0,0,1,1237.5,531.83q5.334-.541,10.668-1.09c.945-.1,1.89-.209,2.835-.309a138.867,138.867,0,0,0-30.333-25.039,32.637,32.637,0,0,0-4.105-2.1,39.728,39.728,0,0,0-14.971-3.066,33,33,0,0,0,6.507-4.623c.713-.059,1.42-.142,2.122-.255l.221-.042a26.4,26.4,0,0,0,3.619-.859,48.343,48.343,0,0,1,10.2-.909,5.074,5.074,0,0,0,.771.028,59.552,59.552,0,0,1,17.738,3.311,27.171,27.171,0,0,0-.944,5.162,27.792,27.792,0,0,0,7.051,21.348,37.436,37.436,0,0,0,7.611,6.445q11.338-1.248,22.658-2.633c-1.919-.427-3.853-.936-5.757-1.534-6.6-2.046-12.851-5.172-16.853-9.679a16.03,16.03,0,0,1-4.139-12.653c.38-4.342,2.131-7.418,5.353-9.4a16.252,16.252,0,0,1,5.748-2.058v0a27.633,27.633,0,0,1,15.235,2.079h0a22.079,22.079,0,0,1,2.735,1.435,129.416,129.416,0,0,1,31.378,27.638q6.128-.756,12.257-1.485a140.625,140.625,0,0,0-38.366-35.612,32.481,32.481,0,0,0-4.081-2.146,39.718,39.718,0,0,0-14.933-3.24,33.03,33.03,0,0,0,6.56-4.547c.714-.051,1.422-.126,2.125-.231l.222-.038a26.6,26.6,0,0,0,3.628-.817,48.389,48.389,0,0,1,10.208-.791,4.805,4.805,0,0,0,.77.037,59.6,59.6,0,0,1,17.7,3.518,27.163,27.163,0,0,0-1,5.151,27.789,27.789,0,0,0,6.8,21.428c6.975,8.022,17.843,12.545,27.938,14.9.4.094.786.174,1.18.261,3.31-.357,6.619-.714,9.932-1.045,8.834-.88,17.666-1.742,26.492-2.7,4.923-.534,9.947-.783,14.919-1.253.065-.137.132-.273.185-.418a5.821,5.821,0,0,0-.6-5.182,141.2,141.2,0,0,0-41.753-41.579,32.453,32.453,0,0,0-4.056-2.2,39.752,39.752,0,0,0-14.895-3.414,32.97,32.97,0,0,0,6.614-4.469c.714-.042,1.423-.109,2.127-.206l.222-.036a26.419,26.419,0,0,0,3.638-.776,48.4,48.4,0,0,1,10.215-.669,5.069,5.069,0,0,0,.771.045,59.587,59.587,0,0,1,17.656,3.725,27.04,27.04,0,0,0-1.064,5.139,27.787,27.787,0,0,0,6.55,21.505c6.881,8.1,17.7,12.752,27.762,15.223a83.539,83.539,0,0,0,18.16,2.508c10.627.166,20.884-1.888,30.823-3.8a5.133,5.133,0,0,0,3.782-3.24,5.828,5.828,0,0,0-.537-5.19A141.22,141.22,0,0,0,1419.529,449.32Zm-142.077,14.824c-1.061.213-2.113.456-3.156.737-6.269.817-13.583-1.749-15.886-7.664-2.132-5.477.5-12.148,2.259-15.639,4.121-8.166,11-14.979,19.008-20.288a85.373,85.373,0,0,1,25.811-11.171c-1.011,6.986-3.706,18.817-4.763,22.575C1297.07,445.664,1291.468,459.437,1277.452,464.144Zm67.477,11.022h0a22.043,22.043,0,0,1,2.718,1.467,129.654,129.654,0,0,1,33.7,31.4,110.021,110.021,0,0,1-20.746,2.35,74.04,74.04,0,0,1-21.383-3.567c-6.579-2.122-12.79-5.321-16.74-9.874a16.032,16.032,0,0,1-3.99-12.7c.43-4.338,2.217-7.393,5.462-9.34a16.3,16.3,0,0,1,5.771-1.992h0A27.629,27.629,0,0,1,1344.929,475.166Zm-.933-29.82c-1.063.2-2.118.431-3.165.7-6.278.743-13.561-1.907-15.795-7.85-2.068-5.5.638-12.141,2.441-15.612,4.217-8.116,11.173-14.848,19.245-20.063a85.328,85.328,0,0,1,25.939-10.869c-1.093,6.974-3.926,18.773-5.027,22.517C1363.828,427.1,1358.066,440.8,1344,445.346Zm50.507-40.974c4.31-8.067,11.345-14.716,19.478-19.837a85.343,85.343,0,0,1,26.064-10.565c-1.174,6.96-4.145,18.726-5.289,22.457-3.957,12.881-9.879,26.52-24,30.9-1.066.188-2.123.406-3.173.663-6.286.67-13.538-2.066-15.7-8.034C1389.876,414.43,1392.659,407.822,1394.5,404.372Zm32.094,88.181a74.143,74.143,0,0,1-21.34-3.816c-6.553-2.2-12.726-5.471-16.623-10.07a16.036,16.036,0,0,1-3.842-12.746c.481-4.333,2.3-7.366,5.571-9.276a16.3,16.3,0,0,1,5.794-1.923v0a27.63,27.63,0,0,1,15.183,2.435h0a22.131,22.131,0,0,1,2.7,1.5,129.667,129.667,0,0,1,33.328,31.791A110.184,110.184,0,0,1,1426.6,492.553Z"/><polygon points="1378.407 390.516 1378.406 390.516 1378.398 390.517 1378.407 390.516"/><polygon points="1445.803 372.903 1445.795 372.904 1445.804 372.902 1445.803 372.903"/><path d="M1448.914,406.093a22.313,22.313,0,0,0,8.769,11.139l-7.788-30.538C1447.215,393.648,1446.868,400.269,1448.914,406.093Z"/><path class="cls-5" d="M1057.391,531.133c40.875-17.836,77.835-40.322,117.331-60.715,87.37-45.112,174.152-94.27,246.4-161.815q-70.946,40.94-145.044,76.061a1968.2,1968.2,0,0,1-251.7,98.732"/><path class="cls-5" d="M1078.741,610.985c14.768-4.84,28.794-9.644,41.553-13.529,123.811-37.691,249.449-75.691,378.82-79.279l-78.317-4.7c-21.908-1.316-43.835,3.308-65.9,4.819q-78.195,5.355-155.85,16.492-66.677,9.563-132.654,23.359"/><path class="cls-8" d="M115.439,872.582Q65.62,895.238,16.367,919.114"/><path class="cls-8" d="M99.606,846.828q-44.46,20.264-88.471,41.493"/><path class="cls-6" d="M1413.552,314.2q116.536-82.815,227.435-173.2"/><path class="cls-6" d="M1370.554,385.525a1922.942,1922.942,0,0,0,268.287-181.381"/><path class="cls-6" d="M1442.379,366.422A1197.616,1197.616,0,0,0,1640.987,244.4"/><path class="cls-6" d="M1481.34,411.7l157.5-81.651"/><path class="cls-6" d="M1493.5,517.432l151.583-2.184"/><path class="cls-6" d="M1505.269,454.138c38.371-3.807,76.8-7.616,115.356-8.061q6.908-.081,13.814-.015"/><path class="cls-6" d="M1490.322,439.489l153.717-44.818"/><path class="cls-4" d="M1057.1,363.789c8.457,2.235,16.712,1.56,25.111-.667,5.469-1.451,20.71-7.106,24.431-10.366-13.529-15.965-39.074-37.809-61.776-30.828-11.625,3.576-16.961,15.54-11.105,26.153C1038.373,356.447,1048.189,361.435,1057.1,363.789Z"/><path class="cls-4" d="M994.224,282.9c11.826-18.84,13.262-19.011,33-33.985,7.243,14.2,7.484,21.138,7.169,35.971-.32,15.068-5.676,29.771-19.59,40.331"/><path d="M1054.7,384.178c2.255-1.708,4.226-3.364,6.219-5.025a4.513,4.513,0,0,0-.7-7.412c-1.413-.785-2.6-1.446-2.919-1.583-4.857-2.105-8.586-3.914-13.652-5.282C1040.687,366.879,1050.383,384.457,1054.7,384.178Z"/><path d="M1025.9,333.879c-5.905-1.589-8.317-5.7-7.108-12.413,2.839-1.7,7.994-2.1,10.582,2.393S1028.414,333.046,1025.9,333.879Z"/><path d="M1054.7,384.177l-11.051-19.3-.683-.453c-6.34-4.147-12.677-7.867-13.725-8.443-7.635-4.194-16.606-8.36-26.13-9.539a145.551,145.551,0,0,1,22.792-12.563l-9.812-17.139a16.3,16.3,0,0,1-5.47,2.714c-3.663.945-7.094.076-10.487-2.662a16.033,16.033,0,0,1-6.248-11.754c-.472-6.01,1.607-12.68,4.71-18.856l-6.363-11.115c-5.407,8.843-9.811,19.76-8.989,30.358a27.786,27.786,0,0,0,10.494,19.882,27.049,27.049,0,0,0,4.375,2.9,59.576,59.576,0,0,1-9.913,15.078,5.276,5.276,0,0,0-.515.575,48.414,48.414,0,0,1-7.724,6.718,26.425,26.425,0,0,0-3.129,2.012l-.183.13q-.852.642-1.655,1.352a33.084,33.084,0,0,0-7.843,1.484,39.736,39.736,0,0,0,8.171-12.913,32.849,32.849,0,0,0,1.334-4.413,141.23,141.23,0,0,0,.362-58.925,5.829,5.829,0,0,0-3.226-4.1,5.131,5.131,0,0,0-4.971.305c-8.47,5.542-17.265,11.2-24.781,18.719a83.5,83.5,0,0,0-11.3,14.439c-5.509,8.779-10.04,19.643-9.343,30.251a27.783,27.783,0,0,0,10.262,20,26.99,26.99,0,0,0,4.34,2.95,59.6,59.6,0,0,1-10.088,14.962,4.982,4.982,0,0,0-.521.568,48.364,48.364,0,0,1-7.8,6.628A26.549,26.549,0,0,0,916.436,386l-.185.128q-.858.631-1.67,1.333a32.933,32.933,0,0,0-7.86,1.393,39.744,39.744,0,0,0,8.321-12.817,32.6,32.6,0,0,0,1.385-4.4,141.191,141.191,0,0,0,1.051-58.917,5.823,5.823,0,0,0-3.177-4.137c-.14-.067-.282-.118-.425-.171-3.9,3.122-7.678,6.439-11.585,9.482-7,5.456-13.945,10.983-20.9,16.5q-3.913,3.1-7.86,6.162c-.222.336-.447.665-.666,1.009-5.611,8.714-10.27,19.525-9.7,30.14A27.789,27.789,0,0,0,873.2,391.828a27.132,27.132,0,0,0,4.3,3,59.61,59.61,0,0,1-10.261,14.842,4.927,4.927,0,0,0-.529.563,48.381,48.381,0,0,1-7.879,6.535,26.549,26.549,0,0,0-3.175,1.938l-.186.127c-.578.414-1.139.853-1.687,1.312a33.05,33.05,0,0,0-7.875,1.3,39.724,39.724,0,0,0,8.47-12.719,32.617,32.617,0,0,0,1.437-4.38,140.61,140.61,0,0,0,2.77-52.274q-4.909,3.741-9.835,7.463a129.409,129.409,0,0,1-3.3,41.684,22.113,22.113,0,0,1-.966,2.934h0a27.628,27.628,0,0,1-9.494,12.095v0a16.256,16.256,0,0,1-5.56,2.522c-3.7.817-7.093-.173-10.388-3.028a16.036,16.036,0,0,1-5.833-11.966c-.261-6.023,2.05-12.615,5.368-18.679.951-1.755,1.986-3.466,3.068-5.108q-9.09,6.889-18.105,13.876a37.344,37.344,0,0,0-.98,9.925,27.787,27.787,0,0,0,9.792,20.238,27.066,27.066,0,0,0,4.27,3.05A59.56,59.56,0,0,1,806.185,441.8a4.911,4.911,0,0,0-.534.556A48.415,48.415,0,0,1,797.7,448.8a26.344,26.344,0,0,0-3.2,1.9l-.188.123q-.873.612-1.7,1.294a33.041,33.041,0,0,0-7.89,1.208,39.719,39.719,0,0,0,8.618-12.62,32.544,32.544,0,0,0,1.488-4.363,138.876,138.876,0,0,0,4.359-39.091c-.748.587-1.5,1.165-2.25,1.752q-4.215,3.313-8.421,6.641A127.964,127.964,0,0,1,784.5,433.1a22.134,22.134,0,0,1-1,2.923h0A27.644,27.644,0,0,1,773.862,448v0a16.3,16.3,0,0,1-5.59,2.457c-3.7.773-7.09-.256-10.351-3.149a16.033,16.033,0,0,1-5.693-12.034c-.01-.32-.01-.643,0-.967q-4.821,3.781-9.659,7.54a27.87,27.87,0,0,0,8.57,13.668,27.08,27.08,0,0,0,4.234,3.1,59.56,59.56,0,0,1-10.606,14.6,5.112,5.112,0,0,0-.541.551,48.391,48.391,0,0,1-8.03,6.35,26.657,26.657,0,0,0-3.219,1.863l-.189.123q-.88.6-1.716,1.272a33.079,33.079,0,0,0-7.9,1.116,39.722,39.722,0,0,0,8.765-12.517,32.609,32.609,0,0,0,1.538-4.346,135.222,135.222,0,0,0,4.088-21.894q-6.106,4.716-12.25,9.385-.9,4.618-2.128,9.14a21.874,21.874,0,0,1-1.034,2.911h0a27.626,27.626,0,0,1-9.774,11.871h0a16.318,16.318,0,0,1-5.618,2.39c-3.713.73-7.088-.339-10.315-3.269-.374-.34-.716-.691-1.052-1.044q-4.353,3.085-8.742,6.123a30.209,30.209,0,0,0,2.912,3.048,27.181,27.181,0,0,0,4.2,3.149,59.556,59.556,0,0,1-10.775,14.474,5.019,5.019,0,0,0-.547.544,48.407,48.407,0,0,1-8.1,6.256,26.447,26.447,0,0,0-3.241,1.826l-.19.119q-.888.591-1.731,1.253a33.121,33.121,0,0,0-7.917,1.024,39.728,39.728,0,0,0,8.911-12.414,32.625,32.625,0,0,0,1.589-4.328c.562-1.955,1.068-3.931,1.541-5.918-.612.4-1.22.813-1.833,1.216-4.407,2.9-8.891,5.662-13.415,8.362a26.714,26.714,0,0,1-7.523,7.507h0a16.289,16.289,0,0,1-5.646,2.324,10.836,10.836,0,0,1-3.936.026q-5.648,3.174-11.3,6.338,1.055.812,2.146,1.491a59.572,59.572,0,0,1-10.944,14.347,5.024,5.024,0,0,0-.553.538,48.41,48.41,0,0,1-8.176,6.161,26.513,26.513,0,0,0-3.263,1.788l-.191.117c-.6.386-1.177.8-1.746,1.232a33.054,33.054,0,0,0-7.927.932,39.717,39.717,0,0,0,9.055-12.309c.289-.628.548-1.259.794-1.89-10.781,6.877-21.281,14.131-32.039,21.153-5.846,3.815-11.9,8.118-18.264,11.351-.06.057-.116.115-.176.172a5.117,5.117,0,0,0-.56.53,48.245,48.245,0,0,1-8.247,6.065,26.349,26.349,0,0,0-3.283,1.751l-.193.115c-.525.331-1.033.69-1.537,1.058-.7,2.66-.964,5.415-1.719,8.071,1.9-1.213,3.735-2.524,5.565-3.717,5.751-3.748,12.047-6.389,18.312-9.15q20.664-9.105,41.709-17.342,15.037-5.909,30.146-11.713c-1.009-.267-2.025-.517-3.053-.719A145.579,145.579,0,0,1,659.1,527.141l.753-.257c-.126.377-.223.754-.33,1.132h0a24.23,24.23,0,0,0-.659,3.075q6.849-2.565,13.713-5.084a18.312,18.312,0,0,1,4.04-3.856q1.444-.738,2.836-1.569a27.732,27.732,0,0,1,14.12-2.146q8.788-3.106,17.627-6.07a57.468,57.468,0,0,0-13.527-4.432,145.568,145.568,0,0,1,23.486-11.211l.751-.265c-.122.378-.215.756-.318,1.136h0a22.636,22.636,0,0,0-.221,11.422q5.092-1.651,10.2-3.252c-.836-5.339,2.512-11.021,7.045-14.236.957-.5,1.895-1.038,2.819-1.6,11.061-4.971,22.108-1.618,32.063,3.633.923-.247,1.842-.506,2.766-.751q5.905-1.569,11.823-3.1c-1.491-.986-2.553-1.669-2.925-1.9-7.432-4.546-16.2-9.126-25.656-10.749a145.676,145.676,0,0,1,23.351-11.485h0l.746-.274c-.118.379-.205.759-.3,1.14h0A22.312,22.312,0,0,0,784.1,480.6a24.412,24.412,0,0,0,5.991,8.6q7.044-1.815,14.1-3.6c-3.665-1.608-8.375-4.455-10.2-8.929-2.394-5.879,1.153-12.77,6.267-16.487q1.426-.77,2.8-1.634c13.414-6.218,26.951-.066,38.522,6.84,2.1,1.255,6.848,4.37,11.463,7.6q4.986-1.349,9.963-2.736c1.09-.306,2.177-.619,3.266-.929-1.514-1.178-3.3-2.5-5.427-4l-.666-.475c-6.192-4.367-12.394-8.307-13.421-8.919-7.484-4.459-16.3-8.937-25.781-10.45A145.537,145.537,0,0,1,844.2,433.722l.744-.282c-.114.38-.2.76-.291,1.142h0a22.318,22.318,0,0,0,.959,14.145c2.386,5.693,7.082,10.373,13.732,13.737a44.69,44.69,0,0,0,5.46,2.3,54.016,54.016,0,0,0,9.311,2.291c19.92-5.854,39.716-12.128,60.051-16.085a5.937,5.937,0,0,0,1.565-4.452c-.207-3.324-2.27-6.17-13.557-13.966l-.672-.468c-6.243-4.294-12.49-8.162-13.524-8.761-7.536-4.372-16.407-8.747-25.9-10.149a145.634,145.634,0,0,1,23.08-12.026l.74-.291c-.108.382-.187.764-.277,1.147h0a22.3,22.3,0,0,0,1.123,14.131c2.453,5.665,7.2,10.291,13.892,13.576a44.5,44.5,0,0,0,5.486,2.238c10.525,3.513,23,3.762,36.063.717A96.538,96.538,0,0,0,986.2,423.3a89.78,89.78,0,0,0,7.734-4.8l.46-.317h0a5.9,5.9,0,0,0,2.435-5.3c-.245-3.321-2.342-6.143-13.719-13.806-.229-.156-.44-.3-.678-.46-6.291-4.221-12.584-8.016-13.625-8.6-7.586-4.283-16.508-8.554-26.017-9.844a145.742,145.742,0,0,1,22.937-12.3h0c.247-.1.5-.2.736-.3-.1.383-.178.766-.264,1.15h0a22.315,22.315,0,0,0,1.288,14.118c2.519,5.636,7.323,10.2,14.05,13.414a44.794,44.794,0,0,0,5.512,2.173c10.565,3.389,23.042,3.492,36.069.3a96.638,96.638,0,0,0,23.906-9.645A89.956,89.956,0,0,0,1054.7,384.177ZM902.905,432.843c3.374,1.964,13.543,8.585,19.13,12.9a85.361,85.361,0,0,1-26.309,9.939c-9.447,1.761-19.127,1.655-27.77-1.341-3.7-1.281-10.224-4.243-12.5-9.66-2.462-5.851,1-12.782,6.075-16.559.945-.523,1.869-1.082,2.78-1.667C877.647,420.079,891.254,426.073,902.905,432.843Zm-7.163-49.056h0a16.267,16.267,0,0,1-5.531,2.585c-3.685.86-7.094-.09-10.422-2.906a16.034,16.034,0,0,1-5.972-11.9c-.332-6.019,1.9-12.638,5.15-18.74a74.012,74.012,0,0,1,12.874-17.442,109.967,109.967,0,0,1,16.535-12.749,129.657,129.657,0,0,1-2.35,46,22.127,22.127,0,0,1-.931,2.945h0A27.638,27.638,0,0,1,895.742,383.787Zm68.105,15.8c3.4,1.923,13.641,8.424,19.279,12.672A85.3,85.3,0,0,1,956.934,422.5c-9.425,1.873-19.106,1.879-27.782-1.016-3.71-1.237-10.274-4.123-12.617-9.513-2.531-5.822.854-12.793,5.88-16.629.939-.535,1.857-1.1,2.76-1.7C938.441,387.117,952.118,392.952,963.847,399.586Zm-7.735-48.97v0a16.345,16.345,0,0,1-5.5,2.651c-3.675.9-7.1-.008-10.456-2.785a16.036,16.036,0,0,1-6.111-11.827c-.4-6.015,1.755-12.659,4.93-18.8a74.118,74.118,0,0,1,12.671-17.591,110.138,110.138,0,0,1,16.383-12.941,129.671,129.671,0,0,1-1.811,46.023,22.042,22.042,0,0,1-.9,2.955h0A27.636,27.636,0,0,1,956.112,350.616Zm87.711,27.448a85.338,85.338,0,0,1-26.071,10.551c-9.4,1.982-19.083,2.1-27.792-.692-3.725-1.194-10.322-4-12.728-9.364-2.6-5.792.705-12.8,5.686-16.7q1.4-.819,2.74-1.731c13.189-6.683,26.933-1.009,38.739,5.487C1027.815,367.5,1038.136,373.883,1043.823,378.064Z"/><polygon points="678.974 569.586 678.981 569.581 678.982 569.58 678.974 569.586"/><polygon points="616.067 599.507 616.074 599.502 616.075 599.502 616.067 599.507"/><polygon points="803.719 507.551 803.725 507.546 803.726 507.545 803.719 507.551"/><polygon points="988.036 409.081 988.042 409.076 988.043 409.075 988.036 409.081"/><polygon points="1048.702 374.823 1048.694 374.829 1048.701 374.824 1048.702 374.823"/><path d="M1027.837,348.824a22.312,22.312,0,0,1-1.453-14.1l15.658,27.35C1035.278,358.943,1030.421,354.429,1027.837,348.824Z"/><path class="cls-5" d="M487.177,604.857c-5.376-91.306,106.386-131.363,171.5-164.777C773.816,380.989,890.486,320.849,985.891,233.4q-26.485,28.94-52.97,57.878c-14.818,16.191-33.782,28.129-50.68,42.4q-59.881,50.57-123.4,96.611-58.581,42.462-119.975,80.851c-20,12.5-41.5,23.389-60.968,36.644-18.883,12.857-35.826,29.618-53.622,44.024a1218.882,1218.882,0,0,1,135.376-60.32c41.766-15.636,83.956-25.207,126.511-38.047,94.138-28.4,190.669-53.492,289.561-55.264q-79.44,19.969-157.093,46.312A1969.729,1969.729,0,0,0,634.153,606.716C613.7,617.477,593.31,628.924,571,634.975c-14.008,3.8-28.9,5.308-43.3,3.042-14.625-2.3-20.937-8.277-31.816-16.836"/><path class="cls-8" d="M483.889,599.375A4455.146,4455.146,0,0,1,13.525,836.25"/><path class="cls-8" d="M498.945,625.323A4485.546,4485.546,0,0,1,16.368,867.686"/><path class="cls-6" d="M1066.393,439.427q150.055-22.962,301.477-35.363"/><path class="cls-6" d="M985.877,418.124a1923.107,1923.107,0,0,1,318.891-56.441"/><path class="cls-6" d="M1050.751,381.861a1197.59,1197.59,0,0,1,227.542-50.582"/><path class="cls-6" d="M1047.22,322.23c136.6-40.97,272.71-78.92,393.232-158.068"/><path class="cls-6" d="M982.38,237.836,1209.743,23.784"/><path class="cls-6" d="M1034.875,275.1c30.2-23.968,60.453-47.974,88.452-74.486a662.727,662.727,0,0,0,83.23-95.491"/><path class="cls-6" d="M1034.335,296.025,1251,181.578"/><path class="cls-8" d="M72.5,805.794q-30.1,4.356-60.144,9.123"/><path class="cls-8" d="M64.487,776.643q-26.089,3.8-52.135,7.9"/><path class="cls-6" d="M740.115,143.439c28.98-37.071,52.364-78.762,77.309-118.793"/><path class="cls-6" d="M746.5,209.785c68.7-58.378,131.318-123.338,194.912-187.108"/><path class="cls-6" d="M806.579,251.708c64.6-33.791,129.535-60.476,198.963-82.718"/><path class="cls-6" d="M779.89,243.676A1312.251,1312.251,0,0,1,976.811,125.254"/><path class="cls-6" d="M724.877,351.53a1665.95,1665.95,0,0,1,311.984-105.544"/><path d="M11.31,754.176q21.264-10.4,42.482-21.033-1.841-5.808-3.278-11.783-19.992,10.046-40.042,19.868A87.436,87.436,0,0,0,11.31,754.176Z"/><path d="M832.452,262.276c-6.223-4.718-18.86-13.371-33.585-18.311-15.557-5.222-28.832-4.8-39.458,1.246a25.12,25.12,0,0,0-10.788,11.856,6.645,6.645,0,0,0-1.189-1.826,7.091,7.091,0,0,0-2.969-1.979c5.918-11.272,7.588-24.281,4.791-38.237-2.977-14.849-4.9-22.582-15.968-35.976a5.5,5.5,0,0,0-4.207-2,5.918,5.918,0,0,0-2.771.749q.749-1.461,1.491-2.914c5.073-9.947,10.32-20.231,16.739-27.394l.04-.045a6,6,0,1,0-8.927-8.019A1460.382,1460.382,0,0,1,579.386,289.34a45.347,45.347,0,0,0,13.988,2.347,5.345,5.345,0,0,1,1.631.27A1471.348,1471.348,0,0,0,707.063,187.671l-.156.241A657.76,657.76,0,0,1,658,253.079c-10.054,11.9-21.811,25.322-36.3,40.664a93.436,93.436,0,0,1,10.37-1.083,5.041,5.041,0,0,1,4.317,7.523c-1.379,2.325-2.853,4.6-4.391,6.84.186,1.81.337,3.624.442,5.44.475,8.134.882,16.711-2.717,24.239-3.3,6.907-10.039,13.9-18.346,11.462A14.246,14.246,0,0,1,603,341.818q-3.739,4.128-7.582,8.162a27.448,27.448,0,0,0,3.911,3.876c1.439,1.163,8.1,3.512,8.767,4.81.924,1.794-3.875,9.736-4.73,11.332a57.869,57.869,0,0,1-6.081,9.253,44.211,44.211,0,0,1-7.652,7.564c-2.836,2.1-5.97,2.812-9.292,4.39,7.029-9.721,8.668-22.026,8.164-34.176q-5.586,5.55-11.445,10.815a32.511,32.511,0,0,1-3.273,13c-2.894,5.568-8.194,11.714-15.04,11.588a13.241,13.241,0,0,1-8.911-3.758q-4.69,3.047-9.526,5.885c.241.269.456.5.627.682,2.371,2.48,5.849,3.648,8.183,5.9,2.178,2.1,1.918-.888,1.734,2.91-.057,1.192-1.164,2.946-1.655,4.027a56.265,56.265,0,0,1-11.466,16.855,45.237,45.237,0,0,1-5.5,4.818c-2.9,2.032-6.008,2.641-9.4,4.143,7.52-9.846,9.205-22.294,8.992-34.52-6,3.3-12.1,6.506-18.347,9.286-7.256,3.226-14.79,4.2-22.448,5.991-.169.039-.334.067-.5.091q-19.307,16.039-41.383,33.638-5.253,4.183-10.629,8.289a74.976,74.976,0,0,1,19.823-.274c1.149-.917,2.3-1.831,3.455-2.757q-.265,1.571-.656,3.079c3.625.465,7.253,1.09,10.86,1.789a73.473,73.473,0,0,0,1.909-14.6q4.526-3.654,9.145-7.422c.582.613,1.089,1.12,1.4,1.432,2.184,2.149,5.646,3.3,7.652,5.384,1.981,2.059,1.077.687.456,3.543a18.343,18.343,0,0,1-1.9,4.018A62.7,62.7,0,0,1,484.1,461.04c3.7.8,7.347,1.589,10.908,2.26,11.847,2.23,23.137,5.048,33.791,10.906a94.77,94.77,0,0,1,15.831,11.1q18.509-8.893,36.27-16.973c.718-2,2.476-3.641,3.856-5.167,2.882-3.187,5.874-6.278,8.892-9.337,2.378-2.41,4.818-5.026,7.367-7.562q-18.985,8.255-38.87,17.492a52.3,52.3,0,0,1-8.526.092c-6.57-.477-15.6-2.357-18.633-9.029-3.357-7.373,1.878-14.305,7.193-18.864,18.21-12.08,42.956-.238,60.289,8.886a56.557,56.557,0,0,1,9.719-7.763c-3.43-2.2-7.694-3.762-10.871-5.214-13.353-6.1-27.761-12.413-42.729-12.121a165.878,165.878,0,0,1,22.579-16.393c-2.765,19.234,16.14,28.009,32.443,28.073a65.286,65.286,0,0,0,9.543-.7c14.979-13.625,33.5-23.761,52.529-31.443a6.184,6.184,0,0,0-.506-2.275c-1.973-4.622-9.151-6.953-13.263-8.778-14.31-6.348-30.294-12.961-46.238-12.2a166.141,166.141,0,0,1,22.075-17.066c-2.186,18.764,16.162,27.222,32.168,27.151,19.921-.09,39.344-10.093,54.058-22.958,3.461-3.025,10-7.468,7.718-12.977-1.737-4.2-7.708-6.18-11.465-7.793-15.046-6.461-32.141-12.939-48.768-11.726a164.514,164.514,0,0,1,21.551-17.725c-1.695,19.388,17.869,27.031,34.086,26.135,19.192-1.06,37.264-11.1,51.336-23.692,1.818-1.634,5.976-4.412,6.243-6.7a1.9,1.9,0,0,0,.585-.058c1.831-2.156,3.395-4.2,4.979-6.255a4.513,4.513,0,0,0-2.292-7.083c-1.551-.46-2.855-.847-3.194-.911-1.482-.286-2.865-.564-4.213-.827.855.068,1.674.12,2.416.149q.951.037,1.895.037c8.3,0,16.366-2.169,25.218-6.757,4.132-2.143,19.536-11.649,23.5-17.059A5.5,5.5,0,0,0,832.452,262.276ZM491.269,429.751q14.247-11.715,29.12-24.369a19.681,19.681,0,0,1,.018,2.235c-.423,6.036-1.246,11.447-4.422,16.713C510.313,433.737,497.88,437.364,491.269,429.751Zm50.448,43.643c-.43.206-.86.411-1.291.619-12.538-6.3-26.169-12.124-40.182-12.233a155.438,155.438,0,0,1,23.036-15.745,22.241,22.241,0,0,0,5.6,19.32A34.317,34.317,0,0,0,541.717,473.394Zm119.792-72.988c-14.358,12.37-35.075,22.651-54.526,19.337-7.585-1.292-15.836-5.4-14.945-14.333.9-9.049,9.324-15.068,17.473-17.259C626.445,383.639,646.505,393.072,661.509,400.406Zm84.708-134.629a3.974,3.974,0,0,0,.574-.434,23.232,23.232,0,0,0,6.059,16.229,32.06,32.06,0,0,0,10.973,7.9c-3.32-1.053-6.883-1.793-9.839-2.619-9.078-2.536-18.689-4.268-28.131-3.225A153.084,153.084,0,0,1,746.217,265.777Zm-38.8-29.32c.073-2.812,2.465-8.871,1.788-11.252.07-.152.136-.306.193-.467,6.37-17.922,7.723-19.692,19.447-33.463,5.808,8.145,7.225,13.972,9.619,25.912,2.579,12.867.711,24.281-5.518,34.031l-.035-.038c-4.923,5.541-11.781,6.771-18.03,2.615C709.053,249.916,707.247,243.124,707.421,236.457ZM636.575,346.862c10.517-15.439,8.3-37.659,3.983-55.888,1.021-1.111,2.037-2.23,3.055-3.346.674,8.294,3.949,16.069,10.849,21.357a28.06,28.06,0,0,0,5.639,3.341c3.523,1.569,3.413,1.257,2.06,5.147a62.374,62.374,0,0,1-6.309,13.018,60.774,60.774,0,0,1-8.556,10.2C644,344.017,640.789,344.723,636.575,346.862Zm81.4,6.771c-13,11.818-30.818,21.651-48.852,21.359-6.589-.106-15.766-1.491-19.187-7.971-3.786-7.172,1.111-14.32,6.109-19.2C673.738,334.239,700.133,345.533,717.974,353.633Zm-40.958-53.048c-10.375,7.6-21.58-2.292-22.546-13.311a40.841,40.841,0,0,1,1.165-13.081q5.822-6.63,11.528-13.37,7.675-9.084,14.745-17.979a126.127,126.127,0,0,1,4.81,30.863C687.008,283.524,685.613,294.289,677.016,300.585Zm14.477.307C703.551,282,697.78,253.609,690,232.472q4.676-6.108,9.1-12.178c-4.616,16.311-4.015,36.156,13.189,44.59.738.362,4.534,1.164,4.946,1.848.536.888-1.365,4.941-1.773,6.108a59.532,59.532,0,0,1-6.179,12.665c-2.336,3.613-5.112,6.4-7.976,9.551C698.493,298.154,695.194,298.89,691.493,300.892Zm48.639,24.461c-9.3,2.91-22.921,5.086-31.463-1.2-10.152-7.472-2.091-20.95,6.365-25.722,11.062-6.243,24.328-4.037,35.968-.849a183.1,183.1,0,0,1,22.046,7.64C763.7,314.127,752.511,321.48,740.132,325.353ZM768.1,291.128c1.453.474,2.9.87,4.3,1.19-.69-.058-1.394-.108-2.124-.141a.942.942,0,0,0-.09.136A17.888,17.888,0,0,0,768.1,291.128ZM805,277.2c-7.761,4.023-14.633,5.767-21.618,5.494-4.631-.182-16.075-1.365-22.287-8.4a12.227,12.227,0,0,1-3.162-10.19,13.5,13.5,0,0,1,6.915-9.332c10.209-5.808,29.9-5.294,55.593,12.391A134.47,134.47,0,0,1,805,277.2Z"/><path d="M12.155,720.342q17.433-8.6,34.826-17.352c-.622-4.226-1.127-8.46-1.516-12.674q-15.552,7.855-31.149,15.568C13.584,710.66,12.817,715.488,12.155,720.342Z"/><path d="M418.733,404.7c-1.5.932-3,1.873-4.5,2.8-13.474,8.287-42.533,30.017-67.361,55.913q-2.88,3-5.588,5.975a43.763,43.763,0,0,1,6.449,10.787c2.619-2.954,5.238-5.783,7.8-8.457,26.887-28.044,56.026-48.487,64.986-54q5.365-3.3,10.7-6.648A71.716,71.716,0,0,1,418.733,404.7Z"/><polygon points="722.382 349.339 722.389 349.333 722.389 349.332 722.382 349.339"/><polygon points="666.029 396.229 666.035 396.222 666.036 396.222 666.029 396.229"/><path class="cls-6" d="M577.172,290.337c28.769-38.294,51.318-80.687,74-122.683A951.545,951.545,0,0,0,711.838,30.407"/><path class="cls-6" d="M749.555,239.509l172.3-148.234"/><path class="cls-3" d="M49.849,597.822a205.076,205.076,0,0,1-41.6-8.841"/><path class="cls-3" d="M319.489,451.031q-4.591,9.6-10.013,18.761"/><path class="cls-3" d="M9.684,170.842c50.986-23.2,110.731-29.859,165.515-17.873,34.5,7.548,65.27,25.176,92.528,47.212,17.629,14.251,31.361,34.334,52.728,43.228,24.042,10.007,32.807,16.752,30.887,45.2-1.4,20.816-2.84,41.778-5.366,62.527"/><path class="cls-3" d="M13.819,240.1c51.667-34.543,123.524-35.927,176.482-3.4"/><path class="cls-7" d="M13.032,354.787v198.3c0,9.721-2.069,22.079,0,31.619a21.079,21.079,0,0,1-.02,4.363c4.344-1.036,10.167,2.041,14.467,2.989,8.412,1.856,16.9,3.412,25.349,5.116C55.651,547.414,89.6,502.7,133.285,478.715c29.4-16.141,62.754-23.815,96.086-25.462,16.082-.795,31.855-.567,47.6,3.061a159.267,159.267,0,0,1,24.6,7.816c3.226,1.321,19.761,6.829,20.548,10.216-10.171-43.776-4.315-89.255,26.651-123.3,0-10.619-1.32-21.253-1.2-31.871.141-12.492,6.163-24.186,5.334-36.652-.752-11.314-6.071-22.471-15.091-29.493-6.242-4.859-13.7-7.664-20.3-11.929-5.9-3.81-10.465-8.469-16.473-12.118-11.994-7.286-19.978-17.973-30.669-26.489A249.541,249.541,0,0,0,43.292,158.651c-9.873,2.959-19.924,7.1-30.356,7.517,1.138,19.351.1,39.391.1,58.87Z"/><path class="cls-9" d="M334.587,419.162a100.535,100.535,0,0,1,40.65-59.55c7.249-4.969,15.306-9.106,20.928-15.86s8.052-17.3,2.644-24.223c-4.677-5.99-13.706-7.117-20.831-4.471s-12.695,8.274-17.632,14.052c-19.761,23.248-35.538,54.869-41.075,84.948a150.2,150.2,0,0,0-.753,46.6c.61,4.666,11.278,43.014,10.411,43.724,5.93-4.861,11.841-7.673,18.249-11.674-6.485-5.913-12.307-23.789-13.321-32.593C332.25,446.162,331.371,433.016,334.587,419.162Z"/><path class="cls-2" d="M414.723,403.255c39.714,18.659,88.208,11.842,126.163-10.176s66.481-57.5,88.293-95.571c-21.965,3.724-43.856-4.95-65.692-9.368-57.595-11.652-120.595,8.436-160.814,51.277-5.406,5.758-10.931,12.231-18.041,15.945-9.293,4.853-13.749,2.86-7.309,14.618C385.494,384.9,399.5,396.1,414.723,403.255Z"/><path class="cls-1" d="M444.355,457.482A172.867,172.867,0,0,0,331.6,507.4L321.909,466c.091.385-27.951-3.673-31.22-4.446-11.934-2.823-24.4-3.35-36.67-4.155-27.776-1.824-56.124-1.89-83.127,5.729-64.557,18.216-111.31,79.474-124.3,145.282-7.79,39.467-4.8,80.363,5.155,119.158,0,12.763,8.92,28.654,13.086,40.566,4.467,12.77,10.01,24.923,15.654,37.284,1.171,2.566,185.978-88.316,202.8-96.875,68.075-34.638,134.663-71.759,201.594-108.5l3.091-1.7c-11.988-7.843,11.878-50.613,17.884-59.252,13.537-19.475,33.023-34.966,55.521-42.722A172.868,172.868,0,0,0,444.355,457.482ZM180.1,533.379c-5.487,6.34-12.945,10.569-19.615,15.651a91.394,91.394,0,0,0-34.159,55.745c-2.085,11.473-2.235,28.911-14.045,35.611-9.944,5.641-17.85-1.262-18.937-11.839-4.1-39.872,19.688-85.525,47.248-113.127,6.183-6.193,13.232-12.072,21.751-14.075s18.765.995,22.665,8.83C188.742,517.681,185.586,527.038,180.1,533.379Z"/><path class="cls-1" d="M253.415,987.7a58.2,58.2,0,0,0,14.9-5.206c29,23.173,73.927,23.548,103.309.863a125.133,125.133,0,0,0,84.283-6.724c35.15-16.021,55.56-49.3,78.575-78.459,3.642-4.614,21.666-33.71,26.609-33.71-64.7,5.059-128.494,10.666-192.536,21.566L231.342,909.387c-26.56,4.52-52.979,7.757-79.593,13.207,5.973-1.223,40.923,43.762,48.08,49.442C215.875,984.771,234.486,991.479,253.415,987.7Z"/><path class="cls-2" d="M769.916,378.444c-5.406,2.836-20.056.857-26.443,1.651a222.632,222.632,0,0,0-26.031,4.837,231.446,231.446,0,0,0-50.4,18.987c-29.6,15.271-64.157,39.786-80.528,69.614,13.727-1.477,31.175-15.248,43.583-21.756l46.248-24.257Z"/><path class="cls-2" d="M950.511,852.01c5.3,7.129,11.318,16.244,12.631,18.359-33.665,35.375-90.6,51.6-137.548,56.936-50.326,5.723-103.06.192-150.306-18.479-29.03-11.474-52.284-28.891-77.663-46.78,2.2,1.549,25.733-2.671,31.278-2.483,14.385.489,29.317-1.545,43.7-2.3l89.895-4.74,179.789-9.48C943.423,842.98,946.791,847.006,950.511,852.01Z"/><path class="cls-2" d="M1017.663,697.936c-2.811,5.852-5.887,11.8-10.82,16.019s-12.2,6.353-18.066,3.574c-5.566-2.635-8.553-9.042-8.856-15.193s1.435-12.31,3.317-18.174l13.2-13.2c4.06-4.719,12.475-3.507,17.082.679s6.084,10.984,5.306,17.16-3.494,11.916-6.173,17.534"/><path class="cls-7" d="M700.414,493.933a11.965,11.965,0,0,1-5.657-7.716c-3.59-17.526,26.544-28.757,37.839-36.643-2.67,1.864-2.659,8.281-3.994,11.062-2.531,5.274-7.123,9.039-8.565,15.027-1.014,4.211-.142,9.173,3.252,11.864,3.671,2.912,9.207,2.3,13.18-.188,4.165-2.605,6.69-6.975,10.552-9.757,4.707-3.39,10.168-4.363,12.578-10.476,2.15-5.454-.132-11.856-4.114-16.159s-9.394-6.95-14.674-9.5l52.482-39.1a77.565,77.565,0,0,1-20.11,57c10.408-1.136,21.176-2.389,30.185-7.725,8.973-5.316,15.728-15.68,13-26.232-.682-2.633-11.347-28.316-13.335-26.742,21.795-17.25,44.217-35.383,66.154-53.1,21.666-17.494,45-33.807,63.739-54.279q26.485-28.938,52.97-57.878c-95.4,87.452-212.075,147.592-327.219,206.683C593.563,473.494,481.8,513.551,487.177,604.857l-3.288-5.482A4455.146,4455.146,0,0,1,13.525,836.25l2.843,31.436A4485.546,4485.546,0,0,0,498.945,625.323l-3.06-4.142c10.879,8.559,17.191,14.534,31.816,16.836,14.4,2.266,29.295.758,43.3-3.042,22.306-6.051,42.694-17.5,63.149-28.259A1969.729,1969.729,0,0,1,918.632,484.485q77.57-26.313,157.093-46.312c-7.99,2.009-18.465.547-26.759,1.037q-14.124.836-28.206,2.246c-19.278,1.918-38.477,4.6-57.57,7.881-18.1,3.111-36.012,6.954-53.955,10.819-8.056,1.735-16.892,1.908-25.053,2.67a33.215,33.215,0,0,1-36.676-36L805.92,449.213l28.1,5.891c5.045,1.058,16.335,1.517,19.994,5.882,9.691,11.56-28.4,19.383-35.167,21.674-8.4,2.845-20.319,6.681-27.738-.057-6.065-5.508-7.252-16.731-2.617-23.342l-39.781,19.646c8.038-.89,20.007-1.723,25.116,6.39,4.109,6.525-.194,12.962-6.6,15.714-8.169,3.51-17.326,6.73-26.285,7.1-3.858.16-8.855-.12-11.818-3.021-3.134-3.068-2.143-7.8-5.741-10.865a10.566,10.566,0,0,0-10.292-1.834c-1.91.7-3.591,1.96-5.539,2.551A8.97,8.97,0,0,1,700.414,493.933Z"/><path class="cls-7" d="M14.637,886.573c.091-.133.186-.266.283-.4,2.564-3.486,6.733-5.341,10.71-7.046,18.442-7.91,37.007-15.569,55.144-24.1,3.749-1.763,7.66-3.564,11.8-3.527,10.275.091,16.784,10.72,21.249,19.975L15.08,918.434c3.362-1.6-.45-10.638-1.038-12.9C12.427,899.3,10.68,892.369,14.637,886.573Z"/><path class="cls-7" d="M16.81,782.56l-1.128,31.172c19.032-4.568,38.429-2.034,57.546-8.951,1.095-.366-8.592-26.337-9.316-28.283l-48.1,6.188.948,15.97"/><path class="cls-7" d="M15,745.288c-.113-4.194,36.961-15.5,37.152-14.909-2.607-12.886-4.757-22.52-4.506-35.849a117.853,117.853,0,0,1-32.421,16.107C13.729,722.631,14.678,733.257,15,745.288Z"/><path class="cls-7" d="M437.686,465.145q-6.663.743-13.259,1.983c-12.792,2.409-25.189,2.712-37.811,6.271a142.794,142.794,0,0,0-16.65,5.684c-1.824.767-14.563,8.589-15.365,8.156l-15.3-8.267c13.579-14.213,26.907-28.477,41.763-41.31,13.283-11.475,29.065-20.632,46.382-23.5,9.607-1.595,19.419-1.227,29.151-.854l39.23,1.5c-5.382,5.039-10.587,10.262-16.062,15.269,3,8.119,12.924,12.263,21.4,10.485s15.324-8.315,19.55-15.87,6.208-16.123,8.141-24.56l19.25-6.353c-1.485,5.893,6.426,10.563,12.178,8.6s9.274-7.612,12.329-12.865l24.633-42.367c1.97,10.193,15.688,14.6,25,10.01s14.338-15.048,16.213-25.258a65.43,65.43,0,0,0-1.568-30.129l5.981-8.53c3.426,3.443,7.559,5.7,10.975,9.048,3.637,3.565,7.15,6.415,12.378,7.236a20.131,20.131,0,0,0,17.672-6.212c4.61-5.058,6.282-12.123,6.974-18.932a98.463,98.463,0,0,0-.8-25.386c-1.487-9.305-4.824-14.7-9.992-22.623l-36.816,40.448c-6.585,7.234-13.588,14.749-22.863,17.862-11.255,3.776-21.589-.468-32.592-2.368l135.8-131.868c-6.737,16.158-13.967,32.1-18.86,48.808-4.1,13.99-7.64,30.964,1.722,43.728a31.839,31.839,0,0,0,30.686,12.211c-10.113,10.2-20,20.636-30.468,30.461-14,13.137-28.928,25.219-43.92,37.19-10.973,8.763-28.974,16.3-20.274,33.647,3.805,7.587,11.766,12.451,20.043,14.334s16.913,1.152,25.321-.014l-10.7,16.747a123.692,123.692,0,0,0-57.179-15.465c-8.712-.184-17.866.7-25.147,5.488s-11.936,14.474-8.58,22.516c3.1,7.422,11.414,10.948,18.951,13.754l21.7,8.078-17.264,8.683a76.336,76.336,0,0,0-65.575-9.1c-8.343,2.749-17.417,9.022-16.672,17.774.779,9.164,11.377,13.579,20.242,16.027l31.561,8.716-26.385,16.207a184.5,184.5,0,0,0-115.123-25.093Z"/><path class="cls-2" d="M916.169,393.7c-4.977,7.093-7.139,15.7-1.663,23.568,5.063,7.28,14.286,10.754,23.149,11.033s17.556-2.187,26.08-4.629l15.943,20.551-37.106,6.741c-2.948.535-5.988,1.07-8.916.437-6.426-1.39-10.271-7.72-14.368-12.862a55.028,55.028,0,0,0-27.239-18.363c-16.312-4.662-36.377,2.5-52.653,5.249a81.212,81.212,0,0,0,14.322-63.73l21.122-13.982c-8.772,10.844-8.581,27.941.431,38.587a30.657,30.657,0,0,0,20.169,10.3C902.768,397.359,909.282,393.246,916.169,393.7Z"/><path class="cls-7" d="M1065.754,562.423c5.627,15.109,8.913,31.386,14.851,46.227,15.531-1.213,31.548-7.072,46.71-10.874-3.93,9.4-7.86,15.807-11.79,25.21-13.937.39-26.807,3.15-40.505,5.656-.409,11.915-1.228,35.745-1.228,35.745s48.978-15.141,49.027-14.985c2.684,8.616,9.413,15.537,17.185,20.124s16.577,7.089,25.349,9.209a356.212,356.212,0,0,0,113.54,8.6c18.109-1.536,35.918-6.5,53.817-8.031,18.118-1.551,36.375-3.051,54.546-4.566,21.692-1.81,256.669-16.684,256.583-7.921l.18-18.255-61.38-9.38c-5.567-.85-11.26-1.742-16.215-4.418-15.023-8.112-13.577-28.28-7.338-41.233.1-.2-25.533-9.913-28.415-10.375a51.224,51.224,0,0,0-31.291,4.742c9.01,1.956,20.647,5.284,26.867,12.634,7.16,8.461,12.89,19.773,19.461,29.051l-47.6.813c-3.4.058-6.921.094-10.046-1.25-6.877-2.956-9.5-11.86-7.766-19.14s6.727-13.284,11.595-18.97c-11.188-1.542-23.319-4.869-34.461-4.539-12.278.364-25.5,5.313-36.214,11a38.969,38.969,0,0,1,43.024,31.907,220.625,220.625,0,0,0-51.648-1.059c-1.117.109-2.082-15.529-1.944-17.028.458-5,1.878-9.246,5.383-13.124-19.609-10.225-46.213-8.191-64.119,4.559a50.979,50.979,0,0,1,41.736,24.918l-58.589,2.854,11.451-29.863c-10.132-.967-20.371-3.244-30.512-2.309-13.164,1.215-24.611,5.55-37.006,10a46.758,46.758,0,0,1,40.946,23.442c-17-.837-35.96-1.229-52.395,3.57a33.915,33.915,0,0,1,10.141-21.912c-11.926-3.748-24.059-7.531-36.558-7.7s-25.644,3.778-33.817,13.237c2.823-3.267,18.412,2.707,21.485,4.132,6.529,3.03,10.188,7.011,13.46,13.349l-42.623,5.06c7.212-7.677-.678-22.943-11.113-21.5l33.9-11.841-11.029-15.254,62.022-21.877-23.037,36.747,49.5-9.851c-18.88,3.757-17.441-17.111-16.284-28.853l66.174-18.543c-6.027,20.428-11.487,37.374-33.269,45.6,18.594-2.573,36.985-6.44,55.817-6.778-22.426-3.9-14.588-32.994-2.466-44.244l61.989-19.327c-12.295,24.316-21.413,49.761-45.749,64.567,18.98-1.342,37.53-1.566,55.824-6.685-7.642-1.946-12.467-10.3-12.168-18.176s4.769-15.1,10.4-20.62c14.933-14.662,36.966-18.934,57.715-21.659a96.47,96.47,0,0,1-35.42,62.91c15.789-1.391,30.779-4.523,46.594-5.912-8.615-1.346-12.7-12.407-10.024-20.7s9.768-14.271,16.531-19.774l84.377-68.664-74.645,32.77c-17.388,7.634-36.024,15.441-54.755,12.321l77.44-40.029-118.507,27.859c-19.482,4.58-38.922,9.43-58.465,13.745-13.833,3.054-30.007-1.748-41.833-9.593-12.036-7.985-20.156-23.118-16.5-37.09a76.049,76.049,0,0,0-61,11.382c13.66,3.184,27.033,4.794,38.953,12.5,2.695,1.742,27.708,25.732,26,26.4-16.08,6.3-33.643,12.691-50.213,7.822s-28.617-26.744-17.586-40.033c-20.889-7.228-45.892-.377-60.181,16.488,4.288-5.061,23.459,2.689,27.751,5.03,6.582,3.589,15.419,10.561,19.144,17.167l-54.768,9.587c-.391-9.417,1.607-18.423,2.528-27.848a74.087,74.087,0,0,0-63.212,16.39,48.516,48.516,0,0,1,26.543,3.165c4.735,2,13.774,10.736,19.388,8.865l-54.34,12.078c6.929-14.6,13.545-28.124,17.9-43.662-4.058-1.647-8.294-3.124-12.167-5.105,3.779-4.537,12.519-6.77,17.684-9.525,7-3.732,13.929-7.988,21.15-11.269,1.71-.777,15.074-4.325,14.987-4.087a161.635,161.635,0,0,1-14.543,30.53c8.594-2.126,16.6-5.22,24.875-7.952,4.416-1.458,8.965-2.091,13.327-3.888,2.111-.87,9.208-6.148,11.03-5.847a34.267,34.267,0,0,1-25.879-21.077l38.209-20.368c6.985-3.724,24.68-8.62,28.118-16.531l-25.686,59.1,48.357-18.849c-12.576,1.82-21.742-14.046-18.563-26.349,5.743-22.224,30.411-33.743,48.738-44.626a694.236,694.236,0,0,0,111.584-82.392c-17.755,8.11-35.207,14.607-52.294,23.993q-27.505,15.109-55.55,29.207c-89.047,44.764-183.416,84.89-279.689,111.071C1039.768,508.709,1054.865,533.187,1065.754,562.423Z"/></svg>