<svg xmlns="http://www.w3.org/2000/svg" viewBox="0 0 1246.85 1065.461"><defs><style>.a{opacity:0.37;}.b{opacity:0.65;}.c,.d{fill:none;stroke:#000;stroke-linecap:round;stroke-linejoin:round;}.c{stroke-width:14px;}.d{stroke-width:8px;}</style></defs><title>EFimage</title><path class="a" d="M192.149,826.147c14.111-8.85,32.391-13.284,45.2-23.47a81.7,81.7,0,0,0,29.1-49.976c3.682-21.8,4.56-45.632.081-67.407-7.693-37.4-28.014-71.089-51.607-101.117,9.372-10.761,20.172-20.311,35.724-14.967-1.969-8.661,2.478-18.057,9.769-23.13s16.891-6.138,25.543-4.13,16.435,6.84,23.148,12.654c-11.455-9.921,14.247-28.868,21.793-30.064,12.785-2.028,25.9,5.768,25.563,19.858,10.11-2.713,21.029-.6,30.547,3.75s17.886,10.827,26.159,17.24c8.848,6.86,18.069,14.2,22.323,24.553,5.477,13.333,1.438,28.749-5.184,41.552C422.3,647,413.4,665.744,402.452,679.085c-20.906,25.485-46.38,46.005-71.129,67.584-3.147,2.744-6.333,5.531-8.66,9-5.027,7.49-5.409,17.062-5.582,26.082q-1.031,53.671-.1,107.357c12.778-10.21,27.695-19.84,38.788-31.766,10.786-11.6,20.841-24.279,31.605-36.031q34.131-37.263,70.084-72.8c21.8-21.8,45.175-43.155,72.31-58.136a146.081,146.081,0,0,1,42.2-15.9c9.206-1.808,10.7-.476,15.174-8.856,4.295-8.044,7.776-16.648,11.636-24.912A93.672,93.672,0,0,1,530.357,612.1c-16.646-17.442-22.781-38.189-25.517-61.465-2.73-23.224-10.948-46.291-13.533-70.06a427.518,427.518,0,0,1,10.868-152.558c8.732-33.867,23.457-68.915,53.061-87.538,25.832-16.251,58.455-17.022,88.749-13.323,33.272,4.064,60.222,11.092,82.929,37.786,15.588,18.325,25.841,40.562,34.344,63.068a524.266,524.266,0,0,1,21.821,73.708c10.3-7.319,23.209-11.237,35.749-9.705s24.5,8.822,30.648,19.858c9.114,16.352,4.483,36.525,1,54.919a370.374,370.374,0,0,0-1.828,126.988c-39.718,7-79.889,20.691-108.518,49.1C693.5,689.141,703.793,756.184,722.728,812c-27.483,13.794-63.637,10.2-93.611,13-17.5,1.637-44.232-1.781-59.342-11.551-10.38-6.713-17.527-17.585-21.922-29.14-5.942-15.624-11.212-36.529-7.767-53.156-38.7,35.9-77.725,72.185-107.752,115.6S381.6,941.916,384.147,994.643c.432,8.957-103.4,20.444-113.934,21.218-41.281,3.034-83.512,1.637-124.317-5.608-19.271-3.421-21.809-9.847-20.187-28.622,2.165-25.063,12.888-52.129,21.589-75.545,8.388-22.572,17.461-51.279,33.1-69.993A48.894,48.894,0,0,1,192.149,826.147Z"/><path class="a" d="M795.727,936.424c-.621,18.5,6.738,38.438,22.761,47.711,12.128,7.019,26.942,6.932,40.952,6.648l232.73-4.705a168.652,168.652,0,0,0-59.233-218.253c12.9-35.634,62.922-48.012,73.34-84.451,7.758-27.134-10.146-54.3-27.093-76.87-6.48-8.628-13.171-17.454-22.311-23.189s-21.412-7.783-30.674-2.246-12.782,20.045-5.043,27.565c-14.286-13.5-42.733-1.158-42.637,18.5-5.959-11.466-24.592-13.089-32.444-2.826a185.424,185.424,0,0,1,39.488,106.6c1.133,27.81-4.426,56.528-19.876,79.68-22.856,34.25-62.5,50.3-101.015,59.724-14.657,3.587-39.415,2.745-51.367,12.512C800.691,893.123,796.229,921.443,795.727,936.424Z"/><path class="b" d="M818.256,146.281c-21.923-15.3-22.714,18.472-14.33,18.767-10.7-.376-20.011-3.7-30.14-5.921-10.725-2.348-22.817-1.945-33.754-2.289-33.792-1.065-67.9.243-100.821,7.951Q631.035,166.7,623,169.165c-20.789,6.389-41.713,15.563-59.073,28.845C546.332,211.472,531.457,228.478,519.4,247c-11.339,17.413-19.422,37.574-20.247,58.517a109.235,109.235,0,0,0,2.193,25.893c.282-1.132.543-2.269.834-3.4,8.732-33.867,23.457-68.915,53.061-87.538,25.832-16.251,58.455-17.022,88.748-13.323,33.273,4.064,60.223,11.092,82.93,37.786,15.588,18.326,25.841,40.562,34.344,63.068a524.266,524.266,0,0,1,21.821,73.708c10.3-7.319,23.209-11.237,35.749-9.7s24.5,8.821,30.648,19.857c9.114,16.352,4.483,36.525,1,54.919a369.649,369.649,0,0,0-6.371,62.367c.771-.09,1.542-.168,2.312-.277,39.7-5.648,67.171-36.1,84.78-70.084,9.362-18.066,17.641-37.077,20.326-57.278,2.966-22.321,3.627-45.009,5.045-67.483a176,176,0,0,0,26.631,28.5,33.445,33.445,0,0,0,9.282,6.157c3.476,1.357,7.57,1.579,10.831-.234,3.926-2.183,5.894-6.92,5.9-11.411s-1.625-8.813-3.411-12.934c-5.709-13.175-9.864-26.587-19.726-37.53a115.1,115.1,0,0,0,24.132,11.485c3.055,1.039,6.647,1.886,9.326.087,2.4-1.608,3.166-4.9,2.6-7.733s-2.2-5.311-3.8-7.71c-11.754-17.629-29.476-31.487-46.895-43.559a279.485,279.485,0,0,0-28.337-17.224c-14.167-7.506-28.271-14.031-43.1-20.268,10.389-25.189,39.929-40.828,66.6-35.26,5.076,1.06,10.883,2.646,15.037-.458,5.306-3.964,3.318-13.1-2.1-16.9s-12.565-3.786-19.181-3.467-13.662.694-19.411-2.595c7.4-.814,15.289-1.829,20.961-6.656s7.433-14.906,1.5-19.412c-2.233-1.7-5.088-2.3-7.855-2.751-37.894-6.132-78.6,11.111-100.561,42.6q-2.334-17.636-6.121-35.037c-.948-4.358-2.193-9.066-5.758-11.746-4.5-3.385-11.438-1.983-15.274,2.144s-4.932,10.224-4.2,15.809,3.082,10.813,5.4,15.947C827.279,157.068,824.018,150.3,818.256,146.281Z"/><path class="b" d="M712.654,765.249a167.926,167.926,0,0,1-1.89-28.553c.4-18.711-1.273-35.809,5.689-53.8,13.739-35.5,47.068-60.017,82.1-74.9,22.123-9.4,46.1-15.818,70.048-13.8,37.577,3.175,71.6,27.691,90.729,60.192s24.311,72.006,19.157,109.363c-2.964,21.487-9.546,43.164-23.571,59.709-15.421,18.19-38.115,28.332-60.3,37.087-23.245,9.176-47.31,17.576-72.288,18.385C758.942,880.991,721.307,822.6,712.654,765.249Z"/><path class="b" d="M1014.82,545.976c18.283-12.783,40.424-18.842,62.426-22.531,19.29-3.235,39.341-4.784,58.211.364,25.363,6.919,46.493,25.7,59.787,48.378s19.324,49.013,21.28,75.23c1.855,24.845-.178,51.159-13.542,72.186-11.177,17.584-29.154,29.7-47.589,39.407a308.151,308.151,0,0,1-64.248,25.1c-10.989,2.924-22.374,5.252-33.676,4s-22.63-6.578-28.773-16.147q34.7-34.032,66.711-70.675c6.16-7.053,12.434-14.54,14.646-23.639,2.772-11.4-1.313-23.316-6.408-33.884a174.612,174.612,0,0,0-34.685-48.474c-9.387-9.244-21.473-17.915-34.528-16.148-13.892,1.88-24.219,17.432-20.563,30.965-1.762-6.524-16.379-10.121-21.722-11.407-8.754-2.105-10.294-3.319-7.493-12.751C989.493,569.653,1001.025,555.622,1014.82,545.976Z"/><path class="b" d="M55.127,770.961C38.943,737.262,34.648,698.632,38.8,661.48c1.636-14.648,4.788-29.724,13.692-41.47,7.88-10.393,19.514-17.193,31.084-23.212,17.726-9.221,36.264-17.326,55.9-21.02s40.565-2.735,58.728,5.59c19.732,9.043,34.936,26.208,44.919,45.481s15.171,40.656,18.97,62.026c5.968,33.565,8.14,70.426-9.66,99.5-12.025,19.643-32.019,33.385-53.382,41.994-12.673,5.106-25.926,8.575-39.279,11.37C149,844,139.329,847.144,129,842.692a143.087,143.087,0,0,1-53.788-40.324A153.964,153.964,0,0,1,55.127,770.961Z"/><path class="b" d="M353.87,539.561a166.094,166.094,0,0,1,44.7,16.029c12.968,6.883,25.513,16.073,31.847,29.317,7.553,15.794,4.889,34.947-2.809,50.67S407.717,664.3,395.71,677.04c12.232,15.44,35.014,17.929,54.328,14.056,22.6-4.532,43.2-15.788,63.4-26.895,15.071-8.287,31.409-18.057,36.646-34.439-22.413-21.5-36.746-50.306-45.458-80.118s-12.169-60.866-15.59-91.736c-19.838-8.168-42.513-7.217-63.152-1.363-20.394,5.784-39,15.985-57.12,26.671-7.852,4.63-14.786,9.111-20.41,16.5-1.218,1.6-12.276,21.272-9.965,21.964A22.714,22.714,0,0,1,353.87,539.561Z"/><path class="c" d="M1016.869,611.105c-5.1-8.138,1.1-24.724,9.545-29.286s19.177-3,27.536,1.728,14.79,12.179,20.77,19.692a403.545,403.545,0,0,1,26.711,37.83c5.374,8.622,10.571,17.962,10.687,28.121.17,15.007-10.566,27.643-20.68,38.731-26.14,28.658-82.131,69.759-90.552,108.561-2.768,12.761.863,25.952,4.637,38.453a1421.5,1421.5,0,0,0,48.964,136.576"/><path class="c" d="M865.859,872.367C859.488,916.682,850.37,960.186,844,1004.5"/><path class="c" d="M938.927,620.434c17.38-8.564,33.2-.878,40.068,9.39-7.744-6.472-4.932-20.417,3.7-25.646s20.181-3.079,28.534,2.585,14.213,14.23,19.868,22.589"/><path class="c" d="M988.655,677.475c3.528-11.366,21.308-14.543,28.554-5.1"/><path class="c" d="M1046.328,661.24c3.435-10.605,16.63-16.823,27-12.722"/><path class="c" d="M728.412,820.092c-14.566-27.13-19.766-58.51-19.519-89.3.3-37.089,10.716-77.885,41.674-98.312,37.04-24.438,89.2-8.912,121.3,21.727a161.24,161.24,0,0,1,49.047,105.152c2.838,44.157-9.775,97.475-55.052,113.01C810.977,891.2,756.1,871.673,728.412,820.092Z"/><path class="c" d="M865.859,872.367s72.115-23.423,90.932-49.681c43.121-60.175,35.548-172.565-39.179-216.518-54.753-32.205-110.174-1.9-162.672,23.656"/><path class="c" d="M980.284,602.471c-1.985-27.317,17.528-53.746,43.233-63.2s55.665-3.247,77.906,12.735,37.195,40.72,44.965,66.987c14.585,49.311,5.843,149.912-54.472,167.635-21.878,6.429-47.13-.569-62.579-17.341"/><path class="c" d="M1058.066,785.928c52.644,54.647,67.283,142.471,35.211,211.239"/><path class="c" d="M810.054,884.85a100.605,100.605,0,0,0-13.17,79.826"/><path class="c" d="M722.714,811.336a226.769,226.769,0,0,1-103.062,14.5c-18.235-1.7-36.861-5.888-51.614-16.74a65.46,65.46,0,0,1-3.43-102.758c-83.107,82.409-195.625,170.926-180.778,301"/><path class="c" d="M283.888,970.228c2.13-36.125,23.256-68.571,48.372-94.623s54.678-47.5,79.774-73.576c25.672-26.669,46.395-57.887,73.088-83.533s61.849-45.978,98.752-43.075"/><path class="c" d="M316.9,887.508,321.7,757.133C361.536,728.2,393.17,693.117,419.318,651.4c10.576-16.872,20.148-36.828,14.888-56.034-4.725-17.25-20.11-29.092-34.562-39.628-6.721-4.9-13.613-9.886-21.581-12.272s-17.358-1.716-23.578,3.806c-9.687,8.6-7.364,25.3,1.359,34.871s21.691,13.83,34.05,17.707"/><path class="c" d="M179.612,839.661a500.074,500.074,0,0,0-55.867,154.3"/><path class="c" d="M554.01,237.858C514,280,492.908,337.717,487.933,395.611s5.174,116.187,21.193,172.042c9.708,33.848,37.127,79.591,88.142,68.34-7.967,37.243-30.2,72.14-53.3,102.421"/><path class="c" d="M846.618,586.993l-5.237-61.2c41.334-.659,72.873-29.318,91.8-66.069S956.5,380.6,958.364,339.305c24.575,34.606,35.461,80.236,32.191,122.554"/><path class="c" d="M774.1,415.138c5.752-19.015,29.017-29.525,48.084-23.949s32.535,24.42,34.868,44.148-5.2,39.739-17.344,55.46-28.584,27.6-45.718,37.652"/><path class="c" d="M781.086,478.079,815.7,440.861"/><path class="c" d="M682.414,547.025a260.223,260.223,0,0,0,55.867-55.867"/><path class="c" d="M523.063,531.587c21.4-10.976,49.458-7.159,67.145,9.134"/><path class="c" d="M549.033,398.049c.265,16.377-8.9,31.161-15.2,46.282s-9.221,34.262,1.668,46.5c13.15,14.775,36.89,10.208,55.806,4.428"/><path class="c" d="M581.352,397.891c24.79-4.648,49.579-14.3,74.369-18.944"/><path class="c" d="M498.892,379.3c13.3,4.428,36.838,14.318,50.141,18.747"/><path class="c" d="M839.258,496.277c57.536-13.471,110.2-78.978,117.449-151.391"/><path class="c" d="M530.775,259.547c-11.928-35.087,29.07-62.4,50.107-72.6,67.786-32.871,147.908-39.468,220.159-18.129-23.512-3.739-47.3-7.555-69.2-16.891s-42.069-24.916-52.036-46.537"/><path class="c" d="M759.835,376.072c33.139,9.317,141.118-25.366,191.19-64.99"/><path class="c" d="M847.544,406.447a449.7,449.7,0,0,0,108.763-69.728"/><path class="c" d="M860.344,440.861c43.365-21.044,67.5-49.7,86.513-82.064"/><path class="c" d="M749.951,347.442c52.036,11.355,158.447-40.207,176.3-58.062"/><path class="c" d="M735.754,312.3c66.106,16.948,128.327-61.456,194.84-46.184,26.019,5.974,47.062,25.959,60.443,49.06s20.177,49.326,26.824,75.181"/><path class="c" d="M579.14,224.939c73.1-45.044,157.28-56.477,241.817-41.443a212.882,212.882,0,0,1-64.78-120.973"/><path class="c" d="M620.741,237.379a483.639,483.639,0,0,1,213.61-44.7A310.616,310.616,0,0,1,826.63,62.521"/><path class="c" d="M690.332,243.612A288.305,288.305,0,0,1,864.749,213.2c-24.674-38.564-21.942-92.679,6.491-128.561"/><path class="c" d="M713.047,262.613c66.871-28.6,178.116-45.383,231.877,8.378"/><path class="c" d="M730.482,287.073c64.339-15.422,142.321-40.042,207.512-20"/><path class="c" d="M1080.262,320.406c-16.3,7.73-36.219,1.778-50.725-8.952s-25.265-25.634-37.793-38.618A188.006,188.006,0,0,0,891.858,219c19.042-27.818,48.3-44.881,83.1-30.024,15.856,6.769,29.3,18.051,44.057,26.96s32.256,15.6,49.051,11.7"/><path class="c" d="M998.163,69.074c-3.757,18.8-22.225,31.233-40.668,36.451s-38.042,5.338-56.456,10.659c-29.286,8.464-47.453,35.472-48.181,65.715,17.594-33.431,52.238-48.066,90.014-48.37,20.346-.164,40.257,5.557,60.511,7.494s42.536-.67,57.34-14.628"/><path class="c" d="M865.979,209.615c15.643-48.635,83.4-59.31,124.985-41.965,15.159,6.323,28.824,16.062,44.424,21.2s34.825,4.547,46.011-7.48"/><path d="M614.227,396.158a41.53,41.53,0,0,0-1.25,21.232c1.065,5.209,4.254,11.046,9.568,11.245,3.674.137,6.935-2.7,8.459-6.042s1.673-7.131,1.8-10.806c.179-5.324.262-11.02-2.613-15.5s-9.919-6.641-13.591-2.781"/><path d="M509.574,387.045A32.291,32.291,0,0,0,504.9,412.9a9.175,9.175,0,0,0,2.689,5.045,6.718,6.718,0,0,0,7.415.244,12.449,12.449,0,0,0,4.887-6.021,22.69,22.69,0,0,0-4.581-24.383"/><path class="c" d="M1008.731,547.025s98.345-48.748,143.379-19.67c61.479,39.7,94.188,156.718,37.188,210.6-21.207,20.046-67.417,36.4-93.43,48"/><path class="c" d="M388.077,598.671c3.049,13.961.318,32.506-14.392,38.986a22,22,0,0,1-18.639-.56"/><path class="c" d="M355.229,543.373c-2.49-12.05-16.163-20.5-28.053-17.329s-19.551,17.293-15.719,28.986c-8.244-5.2-16.682-10.492-26.168-12.74s-20.381-.939-27.454,5.77-8.393,19.5-1.13,26c-11.365-8.4-29.986-3.58-35.838,9.287"/><path class="c" d="M335.4,588.76a71.2,71.2,0,0,1,18.314,48.468c-.1,6.662-1.233,13.516-4.808,19.139s-9.978,9.781-16.62,9.25c-11.359-.907-15.133-11.328-18.441-20.157-4.334-11.565-12.564-22.147-18.76-32.828"/><path class="c" d="M270.529,673.743c5.62,8.373,17.689,11.652,26.773,7.274,19.188-9.248,12.506-40.205,5.657-55.172"/><path class="c" d="M185.754,767.8a176.608,176.608,0,0,1-9.029,49.1c-4.192,12.271-10.665,26.619-24.552,28.88-12.981,2.113-30.7-1.758-41.66-8.623C87.549,822.774,67.219,791.1,55.25,767.282a192.445,192.445,0,0,1-20.437-93.045c.518-13.967,2.662-28.146,8.945-40.631S60.927,610.452,74.444,606.9c15.971-4.2,33.109,1.994,46.484,11.683C166.175,651.356,188.259,711.489,185.754,767.8Z"/><path class="c" d="M338.691,526.029c12.169-55.689,79.215-59.015,110.329-18.193,21.242,27.87,36.494,55.464,43.6,89.684,9,43.354,5.148,95.677-50.061,100.306a61.446,61.446,0,0,1-41.806-12.134"/><path class="c" d="M160.207,843.071c19.789-9.368,40.4-17.084,59.953-26.759,8.557-4.235,17.311-8.614,23.843-15.577,26.223-27.956,27.151-80.193,21.147-115.7-5.4-31.959-19.213-63.138-41.885-86.61-24.47-25.334-60.022-29.476-92.986-19.952C104.559,585.9,81.5,600.3,58.822,614.53"/><path class="c" d="M368.723,485.973C387.806,475.858,426.33,458.8,447.64,454.4c19.208-3.967,36.649,3.332,41.483,15.417"/><path class="c" d="M470.314,689.485c16.062-9.472,32.134-19.384,49.164-26.965,12.985-5.781,22.406-12.152,24.491-27.947"/><path class="c" d="M526.6,240.986c-17.093,11.256-24.353,35.328-16.335,54.159"/><path class="c" d="M499.173,325.709a36.937,36.937,0,0,1,2.178-34.176"/><path class="d" d="M350.36,559.338a29.9,29.9,0,0,0,47.034-4.569"/></svg>