<svg xmlns="http://www.w3.org/2000/svg" viewBox="0 0 1232.41 1135.139"><defs><style>.a,.b{opacity:0.65;}.b{fill-opacity:0.2;}.c,.d{fill:none;}.c,.d,.e{stroke:#000;stroke-linecap:round;stroke-width:14px;}.c{stroke-miterlimit:10;}.d,.e{stroke-linejoin:round;}.e{fill-opacity:0.65;}</style></defs><title>EFimage</title><path class="a" d="M341.445,723.448c-20.162-31.9-16.065-78.426,9.438-106.24-31.769-16.773-48.571-42.544-47.051-76.133,1.568-34.685,47.8-70.892,80.708-59.81,35.2-31.08,116.323-24.514,129.382-.439,8.48-34.023,42.363-63.087,77.271-59.783s76.3,25.456,78.249,60.466c8.03-20.422,12.008-29.739,29.913-42.426s42.444-15.78,62.281-6.4,32,43.219,23.294,63.362c-42.962-5.8-86.158,37.267-91.18,78.615s12.812,80.87,50.5,98.6c0,44.445-38.488,78.1-74.113,88.327s-70.462.258-96.829-25.791c-9.839,23.784-26.45,35.026-51.84,39.243-25.832,4.29-60.14-1.52-78.177-19.911C405.769,776.387,358.444,750.34,341.445,723.448Z"/><path class="b" d="M758.676,808.834c83.475,16.533,203.007,50.367,240.077,134.6,20.507-10.382,20.21-18.42,30.363-39.04,3-6.085,5.451-12.517,9.539-17.929,7.06-9.344,17.792-14.486,27.555-20.425,10.376-6.312,17.836-14.3,26.788-22.241,21.791-19.323,42.358-39.729,52.758-67.7,8.409-22.616,6.457-99.9-34.015-90.905-2.03-43.391-4.362-84.131-18.37-125.852,2.744,8.171,26.61-3.149,29.819-6.089,8.464-7.757,12.679-23.318,12.378-34.525-.673-25.139-19.729-47.311-42.949-56.968s-49.693-8.507-74.142-2.619c7.88-1.9-9.519-88.371-11.337-97.176-6.535-31.66-15.819-63.211-32.8-90.976-14.769-24.144-34.84-44.622-56.134-63.267-29.294-25.649-62.017-48.48-98.632-62.323-39.734-15.023-81.9-15.373-123.742-18.362-1.415-.1-19.035,20.632-22.279,22.975a95.579,95.579,0,0,1-30.6,14.653c-20.67,5.667-49.71,7.247-67.655-6.212A294.545,294.545,0,0,0,357.327,446.138c.073,6.527-1.991,24.212,1.829,29.534,3.455,4.812,19.184,4.457,25.9,8.944a87.173,87.173,0,0,1,124.524-3.359c11.7-32.8,45.166-56.546,79.984-56.77s68.585,23.1,80.706,55.738c-3.6-9.683,21.381-32.571,27.75-37.5,12.262-9.488,30.415-18.883,46.266-16.642,37.727,0,45.673,43.323,47.463,71.055-38.778-20.177-82.3,28.136-93.34,61.624-8.371,25.388-6.249,58.191,9.153,80.759,7.287,10.677,36.688,24.34,36.36,37.506-1.642,42.394-28.634,64.918-66.2,79.067-33.858,12.753-74.6,7.228-102.943-15.589a94.193,94.193,0,0,1-59.618,37.44c-26.911,4.7-50.84-3.164-72.665-18.858l33.131,49.974C584.767,789.316,705.863,798.374,758.676,808.834Z"/><path class="c" d="M811.456,509.734c-31.621-28.389-72.751-13.366-96.391,17.153-27.337,35.292-30.737,79.591-4.6,116.964,14.928,21.344,39.185,36.5,65.172,38.243s53-10.864,66.514-33.131"/><path class="c" d="M751.57,539.846l39.041,97.2"/><path class="c" d="M1037.176,506.005c91.057,47.088,81.712,183.529,55.41,265.478"/><path class="c" d="M998.753,943.431a126.292,126.292,0,0,0,39.811-57.864"/><path class="c" d="M1004.644,897.85c66.688-24.208,136.053-76.294,145.959-145.542,3.715-25.973-4.677-54.995-24.174-71.525"/><path class="d" d="M695.421,131.028c65.365-2.72,131.987,12.6,187.074,47.813,99.32,63.481,133.851,174.151,139.977,286.362-.353-6.472,30.516-12.367,35.754-12.514,16.449-.461,34.7,7.44,47.719,16.932,17.417,12.695,30.275,33.19,29.253,54.719a47.612,47.612,0,0,1-19.471,35.531"/><path class="d" d="M357.993,481.265c-8.392-34.458-6.653-72.911,1.5-107.467C384.523,267.705,475.147,191.123,577,154.656"/><path class="c" d="M876.865,570.166a110.827,110.827,0,0,1,135.821-70.829"/><path class="c" d="M847.976,480.232c12.5-60.686,58.649-128.034,120.309-145.651"/><path class="d" d="M367.868,538.1c1.806-33.5,21.466-65.913,54.19-76.076,15.775-4.9,59.448-13.609,91.864,18.806,9.226-35.281,45.161-61.572,81.579-59.688s69.448,31.744,74.985,67.788c3.069-22.746,16.7-44.311,37.031-54.962s47.028-9.107,64.763,5.463c16.26,13.357,22.753,36.039,15.191,55.214"/><path class="d" d="M446.721,761.591c6.677,17.956,14.986,35.2,29.973,47.243"/><path class="d" d="M420.994,894.338c10.164-27.017-13.676-46.685-5.017-56.795,35.03-40.9,213.446-44.387,264.062-38.539,124.32,14.361,269.988,39.312,318.71,144.422"/><path class="d" d="M36.932,1094.146C196.514,950.757,451.644,857.861,666.753,862.51s430.6,102.788,536.391,266"/><path class="d" d="M166.329,1000.367c289.321-70.164,757.206-48.216,998.218,76.858"/><path d="M904.881,413.446c5.966.7,12.323,4.143,17.973,11.54,5.432,7.111,8.768,17.092,3.88,24.349-4.706,6.987-15.364,8.334-23.631,5.307C868.064,441.811,884.1,411.006,904.881,413.446Z"/><path class="c" d="M886.322,347.236a132.089,132.089,0,0,0-49.883,66.54"/><path class="d" d="M737.314,701.964c-11.707,31.131-40.1,55.4-72.675,62.124s-68.257-4.332-91.329-28.288c-21.121,53.852-92.634,55.168-130.017,19.332-35.738,14.159-80.453.25-101.848-31.684s-17.252-78.578,9.438-106.24c-32.945-12.583-52.838-52.2-43.252-86.139s47.265-57.3,81.925-50.785"/><path class="d" d="M394.451,695.245c9.511,22.865,31.769,39.922,56.321,43.16s50.471-7.466,65.584-27.084a86.289,86.289,0,0,0,132.423-38.057"/><path class="e" d="M669.624,38.866c3.624-4.918,8.278-11.195,14.188-9.648,3.177.831,5.285,3.772,6.978,6.585,30.64,50.909,11.231,115.323-47.194,130.071-35.234,8.893-93.365-4.484-72.442-52.88C588.723,72.358,644.64,72.771,669.624,38.866Z"/><path class="d" d="M1091.64,559.768c30.788-1.882,65.251,14.5,81.3,39.7,11.978,18.808,31.1,48.251,2.236,62.322-5.388,2.627-12.083.938-16.892-2.643s-8.137-8.765-11.353-13.829c11.835,18.635-22.531,49.569-35.149,28.958"/><path class="a" d="M1111.059,653.337c.111,9.691.808,21.357,9.3,26.033,6.867,3.783,15.962.513,20.971-5.518s6.782-14.077,7.777-21.854c3.848,9.125,17.054,11.561,25.3,6.075s11.526-16.446,10.233-26.264-6.4-18.7-12-26.869c-8.98-13.088-19.67-25.233-32.859-34.063-13.42-8.983-31.957-15.982-48.136-11.109C1104.475,589.487,1110.681,621.022,1111.059,653.337Z"/></svg>