<svg xmlns="http://www.w3.org/2000/svg" viewBox="0 0 1519.207 736.246"><defs><style>.a,.b,.h{opacity:0.65;}.b{fill-opacity:0.2;}.c{opacity:0.48;}.d,.f{fill:none;}.d,.e,.f{stroke:#000;stroke-linecap:round;stroke-linejoin:round;}.d,.e{stroke-width:14px;}.e{fill-opacity:0.65;}.f{stroke-width:7.266px;}.g{fill-opacity:0.7;}.h{fill-opacity:0.42;}</style></defs><title>EFimage</title><path class="a" d="M776.338,295.663c-29.968-24.978-12.389-69.766,16.034-78.881,19.082-6.119,41.657,2.475,52.873,20.129,9.245-17.591,24.17-33.124,42.947-36.7s40.789,8.541,44.338,28.455c-2.091-17.262,13.066-33.425,29.48-33.981S993.8,206.871,1000,223.039s4.25,34.82-2.326,50.668c15.98,15.816,20.559,43.071,10.659,63.455s-33.417,32.123-54.752,27.332c-6.582,16.248-23.352,27.115-40.107,25.99S881.126,376.32,876.188,359.3c-2.4,9.781-9.947,17.9-19.148,20.611s-19.211,5.271-26.2-1.745c-3.1.06,1.627.481-1.477.541-2.082.04,9.313-21.09,9.6-21.686a71.128,71.128,0,0,0,7-31.349c-.261-24.188-13.943-52.692-41.161-54.529-14.021-.946-28.6,10.619-28.128,24.664C772.989,293.723,779.588,298.372,776.338,295.663Z"/><path class="b" d="M899.553,466.574c9.273,0,32.55-41.234,37.388-48.93,10.374-16.5,19.138-31.557,23.153-50.539a46.16,46.16,0,0,1-82.063-7.248c-8.272,16.773-28.463,26.728-46.8,23.075,6.676-18.349,13.441-37.2,13.155-56.727s-9.165-40.164-26.614-48.926-42.979-.243-47.207,18.82c-15.714-19.236-12.05-51.217,7.606-66.4s51.526-10.65,66.168,9.413c8.153-16.507,21.005-31.786,38.484-37.57s39.713.847,47.126,17.7c1.989-16.055,21.035-27.487,36.14-21.691-15.469-53.2-59.695-97.787-112.359-115.214-26.806-8.871-55.44-10.7-83.434-8.2-10.569.942-16.645-.566-23.5,7.181-8.633,9.754-4.189,17.591-22.082,18.267-13.918.525-31.206-6.7-44.248-4.347-11.077,1.994-24.165,14.375-33.158,20.739-27.96,19.788-50.571,48.1-59.909,81.06s-6.7,72.227,14.1,99.446c-26.643,6.026-50.164,21.742-58,48.5-4.727,16.134-2.4,37.264,12.8,44.452,13.478,6.374,29.041-1.632,41.756-9.416,3.631-2.223,3.707-5.7,6.288-9.083-2.4,11.338,2.689,23.143,10.182,31.985s17.23,15.424,26.252,22.7c3.319,2.675,6.621,5.536,8.72,9.246s2.808,8.468.8,12.227c-2.568,4.806-8.717,6.589-14.15,6.176s-10.6-2.5-15.965-3.419c-8.285-1.415-17.228.161-23.99,5.152-16.74,12.353-15.876,45.928-5.517,61.75,10.432,15.934,32.494,21.138,50.412,19.744,13.685-1.065,14.741-5.1,21.906,7.424,5.942,10.382,10.918,18.465,24.371,20.382C746.737,510.272,819.749,475.368,899.553,466.574Z"/><path class="c" d="M394.783,521.785a384.057,384.057,0,0,1,5.088-41.368c9.335-53.081,27.1-104.5,34.68-157.86s3.813-111.158-26.414-155.779c-47.765-70.511-150.09-87.172-225.313-55.608-42.468,17.82-77.656,53.454-94.63,96.335-8.2,20.705-7.947,45.471-8.5,67.635-.17,6.835,11.969,78,14.658,76.111-20.906,14.681-39.742,37.414-35.1,64.528,3.809,22.251,23.881,42.452,47.785,37.519-12.547,2.589-20.068,40.248-20.775,51.208-2.248,34.857,26.877,66.37,62.51,63.938,12.89-.879,25.2-6.373,38.114-6.673,21.379-.5,40.961,13.635,52.817,31.433"/><path class="d" d="M394.783,521.785a384.057,384.057,0,0,1,5.088-41.368c9.335-53.081,27.1-104.5,34.68-157.86s3.813-111.158-26.414-155.779c-47.765-70.511-150.09-87.172-225.313-55.608-42.468,17.82-77.656,53.454-94.63,96.335-8.2,20.705-7.947,45.471-8.5,67.635-.17,6.835,11.969,78,14.658,76.111-20.906,14.681-39.742,37.414-35.1,64.528,3.809,22.251,23.881,42.452,47.785,37.519-12.547,2.589-20.068,40.248-20.775,51.208-2.248,34.857,26.877,66.37,62.51,63.938,12.89-.879,25.2-6.373,38.114-6.673,21.379-.5,40.961,13.635,52.817,31.433"/><path class="d" d="M124.633,387.647c-2.351,9.888-4.423,20.16-2.545,30.148s8.616,19.708,18.481,22.151c11.017,2.728,22.883-3.976,33.756-.722,9.123,2.729,15.027,12.038,16.572,21.434s-.443,18.973-2.422,28.287"/><path class="d" d="M91.292,488.5c21.432,4.34,44.954-4.041,58.812-20.956"/><path class="d" d="M260.356,301.035c6.956-8.8,16.347-16.065,27.271-18.617s23.4.243,30.9,8.589c6.555,7.3,8.564,17.572,9.241,27.357,1.388,20.055-1.723,40.208-6.863,59.642-2.942,11.128-6.677,22.325-13.712,31.435s-17.945,15.9-29.444,15.38-22.7-9.95-22.793-21.46"/><path d="M140.415,331.692c-4.018-20.017-24.7-13.835-21.1,5.195,1.861,9.84,7.652,13.753,12.774,12.958C137.728,348.97,142.558,342.379,140.415,331.692Z"/><path class="d" d="M99.876,256.213A62.224,62.224,0,0,1,180.9,304.582"/><path class="d" d="M381.571,524.722c7.634-2.5,15.755-4.858,23.589-3.085,10.7,2.421,18.458,12.272,21.569,22.793s2.413,21.74,1.685,32.688c-.485,7.253-106.518,33.832-118.289,37.694-35.882,11.771-68.295,25.816-102.625,42.519-3.472-46.705,32.6-65.232,67.073-85A574.529,574.529,0,0,1,381.571,524.722Z"/><path class="d" d="M415.357,585.088c60.819,31.889,81.886,83.349,108.844,142.827"/><path class="d" d="M347.4,579.279a114.321,114.321,0,0,1,45.454-15.262"/><path class="d" d="M277.972,382.384l13.561-62.777"/><path class="d" d="M962.131,368.337c-14.409,36.175-36.265,69.422-62.578,98.237"/><path class="d" d="M748.078,77.025c35.182-5.933,71.835-5.877,105.647,5.312,48.5,16.05,88.126,54.857,108.837,101.559q2.361,5.327,4.409,10.772"/><path class="d" d="M598.04,380.016c-12.715,7.784-28.278,15.79-41.756,9.416-15.2-7.188-17.523-28.318-12.8-44.452,7.84-26.756,31.361-42.472,58-48.5-20.795-27.219-23.436-66.49-14.1-99.446s31.949-61.272,59.909-81.06a204.73,204.73,0,0,1,38.409-21.209"/><path class="e" d="M605.216,380.035c-23.087,8.33-42.657,34.237-47.164,55.4-.683,3.208-1.126,6.7.319,9.646,2.152,4.386,7.918,5.962,12.676,4.849s8.737-4.265,12.543-7.33c0,9.45,9.359,14.164,12.555,14.575,8.6,1.106,14.075-7.347,17.124-14.685,4.952,5.395,10.895,10.261,18,12.035s15.523-.231,19.662-6.272,1.943-15.964-5-18.306"/><path class="d" d="M659.512,434.188a65.668,65.668,0,0,1-39.97-27.833c-19.173-29.4-14.259-65.953,13.226-88.1a72.344,72.344,0,0,1,55.886-14.935"/><path class="d" d="M597.642,457.3c-16.066,14.528-18.952,41.168-6.983,59.449,10.432,15.934,32.494,21.138,50.412,19.744,13.685-1.065,14.741-5.1,21.906,7.424,5.942,10.382,10.918,18.465,24.371,20.382"/><path d="M646.214,305.4a17.782,17.782,0,0,0,2.187-2.3c11.622-14.471-9.851-37.771-18.473-15.787C625.781,297.889,633.8,316.173,646.214,305.4Z"/><path class="d" d="M619.8,222.838c29.138-7.631,62.593,7.208,76.494,33.929"/><path class="e" d="M670.439,56.83a37.014,37.014,0,0,1,21.039-22.464c3.318-1.311,7.5-1.971,10.119.458,3.3,3.066,1.735,8.464,2.391,12.92,1.329,9.034,11.616,13.372,20.437,15.738,12.453,3.342,26.487,9.982,20.533,25.307-5.066,13.035-15.864,11.909-27.234,11.8-23.453-.223-52.158-6.405-48.874-36.555A34.407,34.407,0,0,1,670.439,56.83Z"/><path class="d" d="M776.338,295.663c-29.968-24.978-12.389-69.766,16.034-78.881,19.082-6.119,41.657,2.475,52.873,20.129,9.245-17.591,24.17-33.124,42.947-36.7s40.789,8.541,44.338,28.455c-2.091-17.262,13.066-33.425,29.48-33.981S993.8,206.871,1000,223.039s4.25,34.82-2.326,50.668c15.98,15.816,20.559,43.071,10.659,63.455s-33.417,32.123-54.752,27.332c-6.582,16.248-23.352,27.115-40.107,25.99S881.126,376.32,876.188,359.3c-2.4,9.781-9.947,17.9-19.148,20.611s-19.211,5.271-26.2-1.745"/><path class="d" d="M878.822,469.852c13.366-1.979,27.965-2.928,39.451,4.19,16.937,10.5,20.036,33.409,21.4,53.288a1495.31,1495.31,0,0,0-266.515,84.664c-4.546,1.929.225-27.4,1.389-29.856,3.967-8.375,10.812-14.43,17.508-20.814a346.575,346.575,0,0,1,186.768-91.472Z"/><path class="d" d="M776.338,295.663c.349-14.594,15.647-25.98,30.206-24.908s27.032,12.2,32.944,25.546,6.182,28.546,4.386,43.033c-2.055,16.571-7.053,33.477-18.466,45.665-5.708,6.095-13.207,10.92-21.517,11.735s-17.348-3.089-21.029-10.585"/><path class="d" d="M811.008,308.206l-5.723,51.828"/><path class="d" d="M678.971,606.477c-43.011,30.976-69.807,71.512-98.565,115.026"/><path class="d" d="M937.878,526.5c64.4,45.949,99.384,110.434,116.378,185.774"/><path class="d" d="M207.5,653.739a253.134,253.134,0,0,0-55.507,68.415"/><path class="d" d="M1249.968,170.791c-45.015,2.972-88.206,26.94-114.546,63.565a155.021,155.021,0,0,0-27.951,74.8c-2.634,26.351,7.575,48.15,8.617,73.362.508,12.3-9.489,24.785-18.442,34.419-7.089,7.628-14.646,15.089-19.354,24.376s-6.1,21.021-.614,29.874,19.173,12.484,26.783,5.378c2.8,17.232.1,34.807-1.551,52.187s-2.125,35.542,4.733,51.6,22.894,29.374,40.289,27.889c15.746-1.344,36.849-10.945,50.843-.469,14.189,10.622,10.842,31.058,27.948,41.271"/><path class="d" d="M1347.431,138.513c-23.8-17.492-59.759-15.83-81.841,3.782-9.363,8.316-16.5,20.6-14.421,32.952,4.935,29.282,36.306,25.989,58.981,25.217,30.055-1.022,66.21,9.89,84.252,36.071,3.1,4.5,5.459,10.445,2.931,15.284-2.773,5.309-9.751,6.418-15.722,6.9-22.69,1.812-44.19,5.126-66.507,8.293-27.254,3.867-50.428,11.475-66.074,36.384-13.752,21.894-17.959,58.233-4.11,81.048,7.06-6.167,13.584-12.963,22.146-17.246,8.308-4.156,18.262-5.817,26.966-2.571,14.25,5.315,21.076,21.858,22.1,37.031A84.509,84.509,0,0,1,1302.85,452.9c-5.478,8.454-13.067,16.253-22.853,18.643s-21.763-2.523-24.375-12.252"/><path class="d" d="M1288.656,394.308l-12.549,50.4"/><path class="d" d="M1107.816,514.088a36.28,36.28,0,0,0,33.2-5.8"/><path class="d" d="M1134.411,368.214c3-8.228,8.359-17.678,16.8-17.352,6.63.257,11.421,6.693,14.2,12.971,6.847,15.447,10.982,60.064-12.216,64.038C1122.687,433.1,1128.691,383.9,1134.411,368.214Z"/><path class="d" d="M1174.325,388.219c23.213-4.13,45.755-2.8,69.268-2.253"/><path class="d" d="M1315.261,394.356c14.7,8.4,22.079,27.76,16.7,43.813"/><path class="d" d="M1126.546,386.355l-29.267,1.248"/><path class="d" d="M1135.646,325.582c22.673-6.882,49.29,2.421,62.739,21.929"/><path class="d" d="M1140.8,462.169c1.288,10.746,11.132,17.987,19.276,25.116s15.829,18.153,11.359,28.01"/><path class="d" d="M1304.607,454.333c6.739,13.935,19.422,28.01,31.427,37.591,3.444,2.749,40.969,27.5,43.442,23.232,23.644-40.789,47.49-82.034,61.209-127.14,16.984-55.836,18.16-124.366-21.991-170.938-32.141-37.281-87-55.085-135.17-47.3"/><path class="d" d="M1392.2,612.093c-19.151-28.139-23.894-68.19-11.657-97.956"/><path class="d" d="M1185,712.362c8.5-12.837,21.254-40.435,29.757-53.272,39.706-39.706,152.931-52.613,190.728-43.24a233.421,233.421,0,0,1,55.794,100.728"/><path class="f" d="M818.293,652.3c41.707-2.009,85.707,20.991,99.6,62.27"/><path class="f" d="M697.52,721.493c24.48-31.2,56.48-58.2,95.1-66.266"/><path class="f" d="M1248.909,659.09a993.764,993.764,0,0,1,125.015-25.429"/><path class="g" d="M421.662,587.075c45.673,28.414,80.9,86.121,98.536,135.577,0,0-313.412,3.43-371.032,2.7,11.535-17.724,35.763-54.644,58.334-68.024C238.855,638.744,360.63,593.2,421.662,587.075Z"/><path class="f" d="M915.671,686.559l111.8-45.07"/><path class="h" d="M1185,712.362c8.5-12.837,21.254-40.435,29.757-53.272,39.706-39.706,152.931-52.613,190.728-43.24a233.421,233.421,0,0,1,55.794,100.728"/><path class="b" d="M1333.872,490.146c-12.165-9.976-22-23.738-23.941-39.35-2.109-16.928,5.129-33.879,3.7-50.878-1.336-15.939-11.673-31.631-27-36.2s-34.293,4.994-37.1,20.739c-17.88-17.9-19.391-48.08-7.641-70.483s34.376-37.539,58.377-45.534,49.58-9.672,74.835-11.115c7.76-.443,16.9-1.717,20.491-8.612,3.911-7.52-1.585-16.545-7.886-22.215-13.619-12.254-31.655-18.5-49.658-21.893-19.949-3.763-39.156-3.215-59.19-6.238-14.2-2.143-26.309-6.817-26.582-22.99-.487-28.894,31.234-50.439,58.279-45.25,2.875.552,5.811,1.421,7.989,3.377s3.384,5.252,2.166,7.914c-16.007,1.895-38.457,6.96-36.763,26.743,7.854,2.248,16.346-.174,24.3-1.028,8.79-.944,17.442,1.084,26.121,2.83,52.447,10.546,93.709,41.88,109.408,94.257,13.355,44.558,6.1,93.2-7.641,136.74a303.735,303.735,0,0,1-30.311,66.818c-4.586,7.51-20.519,49-29.152,49.009C1362.042,507.863,1347.219,501.091,1333.872,490.146Z"/></svg>