<svg xmlns="http://www.w3.org/2000/svg" viewBox="0 0 1758.024 932.115"><defs><style>.a{opacity:0.18;}.b{opacity:0.28;}.c{opacity:0.61;}.d{opacity:0.19;}.e,.f{fill:none;stroke:#000;stroke-linecap:round;stroke-linejoin:round;}.e{stroke-width:14px;}.f{stroke-width:8px;}.g{opacity:0.08;}</style></defs><title>EFimage</title><path class="a" d="M1532.291,73.39c15.089,0,30.791,6.309,45.631,8.729,10.544,1.719,21.19,1.093,31.785,1.556,10.52.46,21.017,3.315,31.434,5.509,29,6.107,75.351,12.2,104.03,4.735V30.772c-35.608-2.322-82.452.992-88.381,1.716a366.573,366.573,0,0,0-59.058,12.661c-15.412,4.517-31.712,4.585-47.746,5.512s-32.512,2.9-46.546,10.708c-10.769,5.992-20.592,15.8-25.455,27.238,7.958-5.148,13.953-10.709,23.484-13.352C1511.912,72.36,1521.692,73.39,1532.291,73.39Z"/><path class="b" d="M1745.171,471.845H1054.287l-1.667.231c-37.8,3.675-74.994,4.792-112.979,8.983-6.125.676-13.978,3.144-13.964,9.278.008,3.649,3.11,6.531,6.272,8.376,7.883,4.6,17.272,5.71,26.361,6.662,71.955,7.539,143.931,8.024,216.271,11.066,94.665,3.981,192.005,5.24,284.976,22.567,5.508,1.027,12.336,3.488,12.538,9.087.159,4.387-4.085,7.527-7.967,9.576a104.3,104.3,0,0,1-30.091,10.38c-5.807,1.049-11.81,1.636-17.146,4.156s-10,7.559-10.005,13.46c-.014,9.4,10.594,14.676,19.551,17.529,60.024,19.121,247.518,41.543,318.734,37.787Z"/><path class="c" d="M885.9,657.349l12.84-1.088c2.306,1.333,24.082,40.445,29.528,58.444,14.916,49.3,3.881,110.481.431,161.505-7.448,0-185.824,8.688-185.824,8.688,28.179-39.156,75.674-99.582,100.443-141.136q14.948-25.075,28.987-50.677C876.978,684.555,884.01,660.3,885.9,657.349Z"/><path class="d" d="M879.368,672.789c2.246-5.118,4.381-10.28,6.527-15.44l37.156-3.148c1.7-.144,28.65-2.836,28.457-1.369,3.271-24.833.13-50.5-6.193-74.614-1.635-6.237-3.177-17.294-8.82-21.39-4.272-3.1-10.2-1.789-15.234-.187a245.544,245.544,0,0,0-48,21.175c-18.468-25.2-54.538-17.726-81.253-17.726q-48.374,2.739-96.33,10.174A1006.482,1006.482,0,0,0,514.3,615.955q-44.145,15.612-86.7,35.317c-9.446,4.378-17.693,10.56-27.43,14.578a127.174,127.174,0,0,1-30.509,8.332c-17.555,2.5-34.145.627-51.729-.141-25.868-1.131-51.328,4.542-76.98,6.784-11.663,1.02-22.148,1.986-32.907-2.551-10.437-4.4-20.386-8-29.246-15.388-15.753-13.145-27.919-34.55-51.587-31.062C129.228,605.941,96.2,611.914,86,626.84c-12.586,18.4,1.452,38.463,13.2,53.323,32.527,41.156,76.725,76.393,128.919,87.173a239.38,239.38,0,0,0,48.589,4.489c7.548,0,15.756.42,23.046-1.28,7.739-1.8,15.355-3.987,23.173-5.514,31.625-6.174,63.966-7.572,96.119-7.275,67.015.618,133.629,8.8,200.725,9.46q15.234.15,30.469.025c-2.008.017-6.482,4.267-8.21,5.426-22.667,15.195-46.749,28.974-69.923,43.542-24.513,15.41-76.546,39.119-101.059,54.529,1.579-.993,266.337,15.509,271.831,14.16,4.855-1.191,30.4-29.772,33.634-34.01q11.02-14.452,21.128-29.572c15.006-22.448,26.546-46.592,40.358-69.624,14.187-23.658,26.8-47.953,38.671-72.833Q878.034,675.832,879.368,672.789Z"/><path class="e" d="M642.678,768.649c-50.794,43.276-113.671,77.165-171.639,102.089"/><path class="e" d="M783.569,560.752a824.736,824.736,0,0,0,29.9-84.534c24.789-84.085,36.441-176.086,6.27-258.393C777.739,103.237,657,28.072,535.123,21.644,351.734,11.973,178.624,143.627,55,338.443c-15.476,24.388-27.739,52.713-38.561,79.493"/><path class="e" d="M831.191,682.019c-23.959,41.737-69.519,67.492-116.4,78.352s-95.676,8.687-143.75,6.455C475.819,762.4,388.712,752.178,294.9,769.05,205.578,785.111,109.31,720.506,80.517,633.488c-1.623-4.905-1.035-7.185,2.744-10.708a11.43,11.43,0,0,1,14.243-.712"/><path class="e" d="M742.87,884.9A617.128,617.128,0,0,0,880.659,668.946c10.641-28.434,18.36-62.938-.037-87.088-20.779-27.277-61.7-25.281-95.661-20.525-120.138,16.826-242.145,35.458-351.735,87.481-16.8,7.977-33.357,16.755-51.179,22.086-23.237,6.952-46.738,5.73-70.633,4.662-23.255-1.04-47.019,3.05-70.272,5.171-10.864.991-22.016,1.958-32.519-.992-20.888-5.866-35.266-25.845-50.581-39.936-7.381-6.792-29.062-24.611-30.667-3.037-.4,5.447.452,11.319,3.507,15.846,20.185,29.906,34.925,44.552,69.1,57.737"/><path class="e" d="M374.24,670.482C565.784,513.217,500.627,328.669,474.7,283.149c-27.449-48.194-83.1-77.061-138.547-78.172s-109.691,23.355-150.507,60.907S98.617,383.746,80.517,436.172c-19.743,57.183-20.771,124.381,5.354,178.944"/><path class="e" d="M336.155,204.977C617.66,203.4,556.473,568.936,461.572,634.934"/><path class="e" d="M965.286,653.984c26.985,26.224,45.49,59.582,50.2,96.914,3.588,28.439.228,60.252-12.068,86.414-8.6,18.29-23.213,32.156-32.411,50.3"/><path class="e" d="M902.751,670.519c36.458,61.052,46.1,137.5,25.943,205.691"/><path class="e" d="M905.279,655.164c21.288,2.455,42.772-1,64.2-1.272s44.213,3.217,60.481,17.165c20.47,17.551,25.655,48.079,19.777,74.395s-20.941,49.506-35.726,72.055"/><path class="e" d="M1032.226,672.071a264.584,264.584,0,0,1,16.688-44c5.018-10.348,10.071-26.863,17.639-35.426,3.471-3.927,9.229-6.336,14.08-4.352,4.876,2,7.288,7.8,6.977,13.055s-2.761,10.122-5.161,14.812c-.2-8.991,11.61-15.644,19.194-10.812s6.545,18.35-1.69,21.965c.621-6.283,9.142-9.468,14.652-6.386s7.721,10.193,6.864,16.449-4.163,11.87-7.45,17.261c-13.888,22.775-27.1,46.042-40.338,69.305-6.308,11.085-12.775,22.371-22.228,30.933"/><path class="e" d="M883.693,573.123c2.628-8.049,13.93-7.623,18,.973-2.928-4.41,1.275-11.29,6.22-13.18s11.174,1.769,11.934,7.007c-3.222-3.956-.38-10.63,4.463-12.238s10.306.876,13.6,4.77,4.861,8.933,6.165,13.866A213.6,213.6,0,0,1,949.9,651.9"/><path class="e" d="M819.749,459.017q30.954,2.594,62.052,2.658c18.264.038,38.026-3.305,56.026-.957,38.082,4.969,76.193,9.349,114.793,11.358-37.8,3.675-74.994,4.792-112.979,8.983-6.125.676-13.978,3.144-13.964,9.278.008,3.649,3.11,6.531,6.272,8.376,7.883,4.6,17.272,5.71,26.361,6.662,71.955,7.539,143.931,8.024,216.271,11.066,94.665,3.981,192.005,5.24,284.976,22.567,5.508,1.027,12.336,3.488,12.538,9.087.159,4.387-4.085,7.527-7.967,9.576a104.3,104.3,0,0,1-30.091,10.38c-5.807,1.049-11.81,1.636-17.146,4.156s-10,7.559-10.005,13.46c-.014,9.4,10.594,14.676,19.551,17.529,96.877,30.861,217.344,39.111,318.734,37.787"/><line class="e" x1="1054.287" y1="471.845" x2="1745.171" y2="471.845"/><path class="e" d="M143.752,520.6c1,11.955,11.531,21.638,23.212,24.371s24.053-.376,34.825-5.657c37.54-18.406,57.276-59.562,73.908-97.922s35.4-79.7,72.217-99.5"/><path class="e" d="M130.864,626.946c-6.557-9.894-22.9-22.168-29.253-5.782-2.482,6.4-.83,13.61,1.292,20.14,12.267,37.743,42.673,65.362,75.721,87.037"/><path class="f" d="M141.753,659.355a25.335,25.335,0,0,0,4.079-27.922"/><path class="f" d="M108.876,644.789c9.9-1.819,16.976-12.982,14.4-22.711"/><path class="e" d="M1388.861,236.04c12.924,27.345,47.224,42.205,76.244,33.684s49.719-38.889,47.843-69.076c-2.33-37.488-40.2-70.9-78.333-61.955-17.6,4.128-32.732,16.642-41.468,32.47C1382.624,190.228,1379.369,215.956,1388.861,236.04Z"/><path class="f" d="M1432.374,445.51c4.63-48.311,9.261-86.621,13.891-134.932"/><path class="f" d="M1278.627,440.17c34.176-50.966,69.352-95.931,103.529-146.9"/><path class="f" d="M1379.318,409.485c12.124-36.308,20.566-61.591,32.689-97.9"/><path class="f" d="M1359.9,269.359c-34.512,31.559-83.633,65.118-118.146,96.677-29.745,27.2-60.921,52.577-91.844,78.43"/><path class="f" d="M1123.452,259.568c72.174-15.364,143.994-32.576,216.4-44.643"/><path class="f" d="M1289.341,105.144a749.438,749.438,0,0,1,74.625,49.012"/><path class="f" d="M1343.91,178.289l-50.547-13.3c-41-10.789-81.6-17.658-122.4-29.17"/><path class="f" d="M1390.507,41.2l29.184,65.214"/><path class="f" d="M1506.451,21.145c-2.128,9.648-6.862,25.907-11.734,42.517"/><path class="f" d="M1618.581,41.2l25.72-23.9"/><path class="f" d="M1519.625,133.162l9.994-9.288"/><path class="f" d="M1541.184,163.221l72.656-29.186"/><path class="f" d="M1497.415,300.974c15.651,29.86,65.971,141.928,65.971,141.928"/><path class="f" d="M1521.118,284.307C1558.069,316.429,1637.12,396,1669,433.155"/><path class="f" d="M1543.592,253.685l178.876,71.257"/><path class="f" d="M1550.071,214.484l182.941,17.27"/><path class="e" d="M942.5,456.4a242.3,242.3,0,0,1,81.461-154"/><path class="e" d="M1013.929,379a112.054,112.054,0,0,0,10.932-75.79c17.708,19.022,28.926,44.829,25.031,70.524"/><path class="e" d="M964.37,336.122a75.253,75.253,0,0,1,65.591-26.583,84.821,84.821,0,0,0-56.52-16.869c-7.65.528-16.435,3.063-19.206,10.214"/><path class="e" d="M1085.182,344.653c-6.524-26.511-34.685-45.782-61.76-42.263,20.631-16,49.721-21.2,72.536-8.506"/><path class="e" d="M873.8,459.511a143.627,143.627,0,0,1,32.051-82.936"/><path class="e" d="M927.4,397.756A37.541,37.541,0,0,0,906.438,375.7c7.11,2.9,5,25.95,5.188,31.3"/><path class="e" d="M885.069,369.92a29.6,29.6,0,0,1,27.146,6.209,95.811,95.811,0,0,1-2.584-28.987"/><path class="e" d="M934.985,375.219a55.545,55.545,0,0,0-25.314,1.978"/><path class="f" d="M970.234,462.87a56.6,56.6,0,0,1,10.012-29.783"/><path class="f" d="M965.286,429.122c3.557,1.373,7.636-.015,11.336.9,3.362.835,6.023,3.52,7.645,6.58a37.209,37.209,0,0,1,3.067,9.891"/><path class="f" d="M975.22,416.426l5.411,13.878a3.894,3.894,0,0,0,1.534,2.2c.938.492,2.07.143,3.1-.088a12.953,12.953,0,0,1,10.452,2.25"/><path class="f" d="M1014.6,468.131a35.6,35.6,0,0,1,10.129-19.423"/><path class="f" d="M1013.6,444.644l11-1.742,7.184,12.87"/><path class="f" d="M1026.169,433.155l.307,10.2c3.411.994,7.263,1.956,10.674,2.95"/><path class="f" d="M1044.215,491.036c175.593,4.809,349.593.809,526.593,19.809,12,1,23,5,32,14,5,6,6,13,2,20-6,9-36.58,16.682-58,19-3.585.388-16.157,7.821,16.578,11.88,53.49,6.632,127.853,6.12,181.785,6.632"/><path class="f" d="M1104.971,377.268c74.189-40.529,170.268-93.833,244.457-134.362"/><path class="f" d="M1307.086,38.045l76.684,85.829"/><path class="d" d="M1053.756,756.322a456.943,456.943,0,0,0,63.03-107.2c3.013-7.23,5.884-15.176,3.814-22.73-2.007-7.323-8.2-12.609-14.075-17.42L1086.6,592.656c-2.951-2.417-6.237-4.959-10.051-4.953-5.525.01-9.457,5.2-12.3,9.937a265.736,265.736,0,0,0-19.4,39.278c-4.081,10.325-13.163,27.222-9.16,38.069,4.968,13.461,13.094,24.524,16.332,39.031A118.1,118.1,0,0,1,1053.756,756.322Z"/><path class="c" d="M486.471,521.208C505.013,466.25,507.4,406.364,496.38,349.42c-9.373-48.441-30.338-97.581-70.9-125.675,65.224,19.91,97.717,85.114,110.094,147.122A326.775,326.775,0,0,1,527.539,530.9c-12.516,40.316-34.691,82.084-70.7,106.117-12.093,8.072-76.419,29.815-79.376,32.631C423.331,625.976,465.686,582.81,486.471,521.208Z"/><path class="f" d="M1166.02,795.075v1"/><path class="f" d="M1206.258,793.413h0"/><path class="f" d="M1181.65,775.455h1.33"/><path class="f" d="M1266.115,741.536l1.33-.665"/><path class="f" d="M1295.379,765.479v.665"/><path class="f" d="M1381.932,807.99c-.209-.352.711-.341.495.006"/><path class="f" d="M1404.452,760.158h1.33"/><path class="f" d="M1514.856,787.427l.665-.665"/><path class="f" d="M1518.838,768.085l.648-.1"/><path class="f" d="M1554.761,800.728h0"/><path class="f" d="M1566.067,697.641l.665-.665"/><path class="f" d="M1369.868,655.741v-.665"/><path class="f" d="M1184.975,640.444h0"/><path class="f" d="M1240.842,575.931h0"/><path class="f" d="M1277.422,653.08h.665"/><path class="f" d="M1066.591,776.786h.665"/><path class="f" d="M1280.082,831.322l.665-.665"/><path class="f" d="M1250.818,583.912l.665-.665"/><path class="f" d="M1118.467,566.62h.665"/><path class="f" d="M1130.438,577.261h0"/><path class="f" d="M986.781,624.482h.665"/><path class="f" d="M1343.382,559.3l-.012,1.33"/><path class="f" d="M1402.457,701.631l-.665.665"/><path class="f" d="M1492.355,677c-.06-.328.63-.305.547.019"/><path class="f" d="M987.446,555.978l.665.665"/><path class="f" d="M847.779,524.719v-.665"/><path class="f" d="M839.132,492.8h1.331"/><path class="f" d="M895.664,523.389l.666-.665"/><path class="f" d="M1494.238,655.076l.665-.666"/><path class="e" d="M830.486,242.059c36.059,3.808,69,4.166,104.726-3.473l103-22.02c9.792-2.094,20.046-4.412,27.584-11s11.06-18.927,4.83-26.767c-6-7.551-17.217-7.464-26.862-7.508-39.817-.185-78.105-13.993-116.871-23.085-49-11.492-96.27-2.772-145.633-4.028"/><path class="e" d="M16.44,134.246c13.261-3.414,45.614-16.913,79.543-16.224,9.679.2,19.31,1.231,28.989,1.39,25.667.422,50.239-10.286,72.4-23.249,11.315-6.62,23.748-17.1,21.293-29.981-1.771-9.294-11.193-15.462-20.537-16.946s-18.828.6-28.209,1.827C130.374,56.253,51.942,36.455,16.44,24.371"/><path class="e" d="M1745.171,152.315c-25.539,1.52-79.762-2.715-103.749-11.593-23.54-8.714-43.173-19.362-69.215-18.94-26.628.431-49.736,2.529-75.546-5.923-8.567-2.806-16.5-9.29-18.464-18.088-2.571-11.5,5.535-22.754,14.859-29.952,24.493-18.909,53.142-14.169,81.724-17.892,18.805-2.449,37.878-8.722,56.371-12.98,32.441-7.469,81.12-11.253,114.02-6.175"/><path class="f" d="M1538.841,51.534c6.449-12.863,12.265-24.212,15.92-30.389"/><path class="a" d="M1023.164,171.24c-34.1-6.975-67.227-11.828-100.962-19.491-33.517-7.613-68.033-9.092-102.29-8.4-8.726.176-36.354,12.853-42.983,3.516,11.1,15.629,21.5,32.5,33.837,47.092,10-10.769,15.356-6.6,27.546-4.227,14.586,2.844,30.112,2.274,44.923,2.591a423.764,423.764,0,0,0,73.614-4.853,264.963,264.963,0,0,0,34.9-7.971C999.9,177.1,1014.609,169.566,1023.164,171.24Z"/><path class="a" d="M217.02,58.491c-17.63-10.3-39.657-6.132-60.039-4.881C133.084,55.077,39.209,31.773,16.44,24.371c4.025,1.325,0,57.651,0,57.651C38.6,93.8,100.016,87.274,111.668,85.83a270.63,270.63,0,0,0,59.244-14.27C179.706,68.359,207.7,53.042,217.02,58.491Z"/><path class="g" d="M781.746,559.473q-.582,1.2-1.17,2.4c18.3-4.684,33.437-4.981,52.338-2.5,8.435,1.106,16.366,4.268,24.084,7.7,4.969,2.211,16.7,11.107,22.069,10.107,3.826-.714,9.159-7.946,13.015-10.112,7.684-4.315,16.964-6.99,25.435-9.243,5.267-1.4,11.222-2.434,15.893.375,14.079,8.464,14.616,27.844,15.449,42.3.408,7.079,4.758,53.253.079,55.934,30.243-17.323,58.027,3.551,82.222,18.858,10.234-22.074,16.878-45.548,25.223-68.351,2.386-6.52,5.713-13.925,12.452-15.6,5.942-1.474,11.8,2.26,16.791,5.809,12.438,8.851,25.538,18.538,30.893,32.833,6.693,17.865-2.3,31-11.864,45.06-12.2,17.933-24.18,36.229-36.587,54.123-12.706,18.324-21.092,38.53-32.561,57.817l-29.615,49.8c-10.385,17.465-23.238,31.034-34.373,47.527,34.4-1.645,69.524-.116,104.045-.116h669.607V640.983c-26.965,1.847-185.537-8.593-212.4-12.891q-47.021-7.522-93.554-17.756c-7.088-1.559-14.37-3.254-20.3-7.437s-10.241-11.51-8.722-18.606c3.45-16.111,33.279-17.64,45.959-21.706,6.741-2.162,14.731-5.838,15.162-12.9.277-4.538-3.049-8.678-7.09-10.762s-8.7-2.534-13.224-2.947c-21.878-2-44.013-3.136-65.635-6.889-70.075-12.165-144.529-9.715-215.555-13.194l-128.149-6.276-65.285-3.2c-14.15-.693-38.466,2.084-48.527-10.983-10.679-13.877,20.557-15.3,27.006-15.953,20.792-2.107,41.534-5.146,62.275-7.716-15.537,0-31.307-5-46.821-6.085-16.08-1.127-32.472-1.306-48.684-2.133q-51.79-2.642-103.576-5.391A502.566,502.566,0,0,1,781.746,559.473Z"/><path class="f" d="M1561.831,870.592l.665-.665"/><path class="f" d="M1627.009,781.471v-1.33"/><path class="f" d="M1698.838,722.944l.665-.665"/><path class="f" d="M1662.2,682.4l-.7-1.984"/><path class="f" d="M1699.5,853.965l.665-1.33"/><path class="f" d="M1695.512,837.338l1.33-2"/><path class="f" d="M1433.315,875.166l.692-1.315"/><path class="f" d="M1130.858,870.592v-1.33"/><path class="f" d="M89.844,648.792a9.159,9.159,0,0,0,9.608-6.944"/><path class="f" d="M1732.143,786l.869-1.737"/><path class="e" d="M987.94,46.6c-16.651,1.546-33.194,1.925-49.877,2.609-9.733.4-19.918,2.275-27.407,8.506s-11.147,17.869-5.9,26.076c5.909,9.24,18.878,9.865,29.844,10.009,47.1.623,87.867,21.671,136.545,18.358,32.376-2.2,64.184-9.365,95.839-16.5,6.972-1.572,14.289-3.319,19.546-8.16s7.4-13.852,2.575-19.126c-2.968-3.246-7.607-4.234-11.928-5.052-31.507-5.964-63.16-11.422-94.565-17.9-25.82-5.326-47.27-14.736-73.944-3.3C1001.862,44.847,994.926,45.947,987.94,46.6Z"/><path class="a" d="M1184.76,66.8q-35.428-10.25-71.685-17.215c-22.994-4.45-44.46-13.668-68.391-12.516-17.557.837-34.5,6.682-51.948,8.773-15.683,1.879-31.609.708-47.3,2.554-9.2,1.083-20.205-.092-28.343,4.664a33.149,33.149,0,0,0-11.26,10.924c-2.091,3.33-2.4,10.278-4.54,12.791,8.12-9.519,21.277-13.412,33.789-13.5,35.964-.24,71.613,7.711,107.858,6.533C1090.42,68.272,1138.608,55.564,1184.76,66.8Z"/></svg>