<svg xmlns="http://www.w3.org/2000/svg" viewBox="0 0 1443.433 1225.081"><defs><style>.a{opacity:0.2;}.b{opacity:0.5;}.c{opacity:0.49;}.d,.e{fill:none;stroke:#000;stroke-linecap:round;stroke-linejoin:round;}.d{stroke-width:14px;}.e{stroke-width:8px;}</style></defs><title>EFimage</title><path class="a" d="M509.672,360.272c23.7-113.359,115.813-209.541,228.043-238.122s239.124,11.826,314.161,100.04c-11.3,17.5-23.036,36.609-21.731,57.4s22.738,41.142,41.93,33.044c-9.087,15.128-18.351,30.726-21.216,48.139s2.126,37.306,16.688,47.275,38.754,4.527,43.663-12.424c23.456,14.7,47.79,30.281,61.924,54.083s14.3,58.37-7.2,75.807c-9.886,8.017-22.847,10.857-35.344,9.719-16.919-1.542-18.145-6.618-28.535,9.234-15.352,23.425-26.067,49.553-41.735,72.794-37.654,55.85-114.934,64.061-176.77,75.288A575.863,575.863,0,0,1,730.772,699.7C695.247,696.6,659.46,690,627.591,674c-32.2-16.169-55.135-40.522-70.489-72.773-15.989-33.589-34.127-64.932-43.548-101.635C501.906,454.211,500.069,406.2,509.672,360.272Z"/><path class="b" d="M922.589,253.157c5.206-4.51,10.867-8.664,17.332-11.043s13.857-2.837,20.158-.053c6.671,2.947,11.5,9.337,13.388,16.382s1.021,14.646-1.544,21.472c-4.258,11.328-12.961,20.549-22.895,27.459s-21.134,11.744-32.248,16.53L870.126,344C875.264,310.419,896.993,275.322,922.589,253.157Z"/><path class="c" d="M124.143,680.5c3.194,2.705,7.586,4.155,11.457,2.715,6.154-2.288,7.887-10.035,8.5-16.572,1.627-17.5,3.265-35.022,3.847-52.6.218-6.587.729-13.394.637-19.935-.042-3.055,2.146-21.63,1.233-22.911,2.917,4.09,8.942,5.212,13.562,3.238s7.819-6.489,9.159-11.33,1.03-10,.187-14.949c-.735-4.313-1.868-8.641-1.476-13,.78-8.684,8.03-11.466,15.72-12.4-1.758.214-.594-35.875-.095-38.683,1.033-5.81,2.619-12.885,7.6-16.669,9.927-7.535,14.445,3.559,17.609,11.545,2.021,5.1,4.98,9.976,9.351,13.289s10.318,4.849,15.5,3.052c6.413-2.224,10.155-8.655,14.569-13.812,3.794-4.434,8.738-7.509,13.475-10.82a306.8,306.8,0,0,1,9.242,34.288c14.735-6.372,24.589-22.581,23.463-38.595-.319-4.536-1.426-9.12-.511-13.574,2.327-11.338,14.448-15.731,22.53-22.043,10.465-8.174,20.725-16.66,30.518-25.631,35.534-32.552,52.286-79.087,96.334-104.343,4.116-2.36,8.436-4.562,11.708-8,14.369-15.091-9.652-26.346-22.533-23.34,6.9-17.233,25.321-28.388,12.542-50.148-14.025-23.884-60.27-17.317-83.364-15.724-26.318,2.171-52.325,5.92-77.661,13.59-25.9,7.84-47.985,20.636-71.578,33.411a81.483,81.483,0,0,0-73.453-1.914c-11.4,5.51-22.333,15.478-22.5,28.135-.11,8.229,4.5,15.953,10.6,21.476s13.611,9.2,21.011,12.8c-5.84,9.441-11.068,19.726-17.667,28.578A60.958,60.958,0,0,0,88.785,344.5c-18.141,9.724-47.731,44.52-17,58.365,10.056,4.53,22.079,2.523,31.859-2.573-2.422,11.74-5.7,24.761-15.859,31.121-11.02,6.9-23.11,6.48-31.086,18.473-3.6,5.412-4.164,13.294.221,18.091,2.46,2.69,6.093,4.1,8.488,6.847,4.852,5.569-4.121,18.119-6.355,23.683-4.171,10.388-8.025,20.908-11.382,31.589-6.4,20.366-11.012,41.342-12.673,62.652-1.673,21.467-7.93,105.74,25.342,106.461,13.287.288,15.69-13.8,19.722-23.932,4.351-10.937,12.954-34.132,28.7-23.966,8.985,5.8,7.023,20.125,13.937,27.793A14.812,14.812,0,0,0,124.143,680.5Z"/><path class="d" d="M506.761,723.808c24.666-21.522,66.05-41.408,109.153-50.093"/><path class="d" d="M189.293,1174.364c31.394-78.478,63.394-154.478,106.394-229.478,29-48,58-92,97-132,24-23,47-45,73.51-62.737"/><path class="d" d="M627.51,320.423a114.837,114.837,0,0,1-2.549-26.989c.576-17.935,6.62-36.174,19.226-48.945s32.294-19.1,49.293-13.35c19.031,6.434,30.711,25.585,37.612,44.451a183.749,183.749,0,0,1,10.981,55.338"/><path class="d" d="M551.535,325.831c8.479,26.581,39.411,37.988,66.824,43.184,107.578,20.388,222.443-.434,316.02-57.286,13.956-8.478,28.236-18.685,33.983-33.97S966.64,241.4,950.5,238.906c-12.425-1.923-23.638,7.276-32.217,16.468a251.243,251.243,0,0,0-53.226,88.015"/><path class="e" d="M899.212,330.928a200.7,200.7,0,0,1,35.433-54.17"/><path class="d" d="M563.619,492.018a98.8,98.8,0,0,0,141.884,47.8"/><path class="d" d="M829.916,279.192c-26.784-21.731-67.577-23.336-98.7-10.939"/><path class="e" d="M649.535,328.54c-2.263-9.107-4.583-20.555-2.548-29.89a20.263,20.263,0,0,1,4.269-9.273,10.689,10.689,0,0,1,9.157-3.783c14.16,1.991,11.83,31.369,9.26,40.978"/><path class="e" d="M698.4,330.066c-5.178-10.031-9.82-27.847-5.172-38.909,4.19-9.974,14.336-4.64,18.728,2.639,7.185,11.911,8.307,28.167,4.657,41.344"/><path class="d" d="M1071.9,466.448c3.31,25.258,15.8,50.571,37.881,63.273s54.2,8.723,68.193-12.562c11.959-18.186,8.119-42.877-1.828-62.238a115.966,115.966,0,0,0-55.448-52.455"/><path class="d" d="M632.691,154.417c-13.634,10.409-36.151,1.416-41.3-14.947s5.419-35.1,21.149-41.94,34.7-3.113,48.837,6.606C642.666,107,624.813,88.853,624.987,69.924s15.4-35.674,33.539-41.073,38.166-.887,54.558,8.58,29.652,23.486,41.749,38.045c-.249-11.055,7.006-21.348,16.516-26.99s20.927-7.229,31.982-7.019c35.614.679,70.36,19.967,89.771,49.835,7.329-12.245,22.559-18.1,36.819-17.553s27.747,6.484,40.29,13.29c60.358,32.748,107.767,88.66,130.208,153.559a118.572,118.572,0,0,1,65.017-37.12c8.75-1.727,20.856-.209,22.234,8.6.977,6.25-4.552,11.434-9.6,15.24a504.552,504.552,0,0,1-53.242,35.067c7.759-9.606,22.836-12.52,33.377-6.088s14.768,21.614,8.667,32.35-21.772,14.769-32.059,7.941a340.1,340.1,0,0,1,5.858,113.774"/><path class="d" d="M646.112,1021.135a119.389,119.389,0,0,1-72.648-18.641c-21.369-13.8-44.533-41.13-53.322-65-26.131,4.849-41.8-10.973-50.8-13.714-17.465-5.321-50.546,1.33-55.235-21.956-1.837-9.12,6.852-20.471,17.149-27.925,27.876-20.179,74.776-11.476,104.5,1.77.545-6.229,5.529-9.513,11.069-12.412"/><path class="d" d="M437.048,867.786c-3.98-17.776,7.776-36.455,24.016-44.707,29.715-15.1,74.187-3.595,103.82,6.638.032-5.9,2.961-10.084,7.927-13.275"/><path class="d" d="M503.006,777.2c-3.939-12.829,6.174-25.033,17.294-29.919,12.963-5.7,28.6-5.509,42.492-5.118a216.325,216.325,0,0,1,84.48,19.884,210.4,210.4,0,0,1,40.5,24.614"/><path class="d" d="M462.252,821.48c-3.833-13.148,3.59-27.659,14.806-35.517,31.433-22.023,87.862-9.251,117.484,10.3-.344-5.4,2.173-10.7,7.078-12.978"/><path class="d" d="M1187.783,1007.2c-82.4-45.97-310.811-117.879-389.966-153.253-87.84.245-163.256,106.345-134.946,202.9,20.577,34.1,103.644,84.94,130.373,103.608"/><path class="d" d="M270.5,696.422c-11.979.585-24.57.956-35.277-4.447s-18.461-18.637-13.631-29.614c5.049-11.475,19.756-14.28,32.229-15.544,23.647-2.4,47.82-4.765,70.951.7,10.325,2.441,20.951,6.962,26.606,15.938,4.457,7.074,5.147,15.811,7.889,23.709,4.318,12.44,13.568,22.427,20.559,33.585a102.719,102.719,0,0,1,15.305,49.525c.9,19.135-6.723,34.08-11.956,52.063"/><path class="d" d="M293.963,947.912c-7.635,11.765-25.485,15.326-39.454,14.074a39.635,39.635,0,0,1-32.319-23.643,31.251,31.251,0,0,1-13.339-49.632,38.364,38.364,0,0,1-6.5-62.951c-8.366-.392-15.642-6.765-18.936-14.465s-3.164-16.468-1.668-24.709c6.284-34.612,34.585-61.124,64.749-79.224,8.644-5.187,17.742-9.972,27.643-11.868s20.808-.578,28.836,5.52c15.6,11.852,14.349,36.586,4.518,53.534,12.981-1.37,23.253,11.459,25.062,24.385s-3.639,25.779-10.392,36.948c8.522-3.089,18.563,1.063,23.951,8.353s6.653,17,5.279,25.959-6.024,16.473-9.946,24.645"/><path class="d" d="M256.245,643.811l-5.463-45.965c14.381-4.082,19.546-21.6,21.079-36.471a264.12,264.12,0,0,0-10.115-103.949"/><path class="d" d="M229.7,651.748l-5.021-51.988c-7.438.5-14.6-3.715-19.336-9.467s-7.429-12.9-9.675-20a221.954,221.954,0,0,1-9.5-85.179"/><path class="d" d="M208.944,476.16c.923,16.964,4.251,53.224,8.5,71.181"/><path class="d" d="M213.1,433.952c-10.168,16.374-3.854,79.116,25.932,63.4,5.969-3.151,8.8-10.007,11.161-16.331,4.569-12.213,35.422-66.2,8.335-70.756"/><path class="d" d="M267.13,469.439c44.078-26.743,81.981-62.3,116.33-100.473,21.877-24.315,38.587-56.8,69.584-70.584,6.14-2.731,9.661-6.114,10.189-12.813.57-7.225-7.645-11.833-14.766-13.184-16.359-3.1-29.961,1.063-43.192,11.172-6.431-17.069,5.1-42.939,21.5-43.719"/><path class="d" d="M186.431,520.815c-12.029,11.853-25.786,17.492-33.116,33.413-6.62,14.38-8.328,30.8-8.246,46.458.125,23.939,3.806,48.3-1.845,71.559-1.373,5.651-4.3,12.079-10.042,12.984-11.38,1.792-15.789-18.893-19.448-26.126-3.006-5.942-8.642-11.761-15.232-10.8-4.527.657-7.976,4.346-10.577,8.109-5.724,8.28-9.138,17.81-11.974,27.393-2.295,7.752-3.741,17.55-13.823,18.44-7.438.657-13.5-5.866-17.173-12.365-8.976-15.861-11.384-34.573-12.011-52.787C31.183,585.955,42.232,533.852,65.259,488.1c10.778-21.414,22.109-41.541,30.858-64.308,8.9-23.158,17.258-46.605,28.693-68.677a275.7,275.7,0,0,1,222.1-148.062c18.29-1.558,36.773-1.308,55.062-2.34,9.027-.509,18.221-1,26.984,1.223a30.708,30.708,0,0,1,22.524,23.727c2.508,13.711-7.435,27.416-13.271,39.069"/><path class="d" d="M118.839,538.9c-.471,8.215,7.338,15.9,15.544,15.3,22.029-1.606,15.519-34.7,9.423-47.125"/><path class="d" d="M155.249,308.687c-9.558,4.318-24.5-3.668-29.53-12.869s-3.585-21.045,1.948-29.954,14.609-15.153,24.28-19.212a80.158,80.158,0,0,1,67.253,2.886"/><path class="d" d="M106.68,396.205c-5.558,4.674-16.752,9.686-24,10.13S67.77,403.793,63.7,397.78c-5.612-8.292-3.2-19.7,1.61-28.482,12.939-23.631,42.646-36.684,68.8-30.232"/><path class="d" d="M77.823,463.62c-6.46,12.54-23.8,14.47-25.369-4.179-.548-6.532,4.292-12.263,9.8-15.81a47.936,47.936,0,0,1,22.717-7.485"/><path class="e" d="M195.419,306.366c-2.8,13.312-4.285,27.164-1.544,40.487s10.187,26.139,21.951,32.967c14.082,8.175,32.249,6.558,46.932-.481s26.509-18.81,37.464-30.857"/><path class="d" d="M270.969,303.315c7.949,3.356,17.588-.413,23.1-7.048,12.022-14.463,3.479-43.057-18.218-39.944C255.225,259.283,252.454,295.5,270.969,303.315Z"/><path class="d" d="M1095.333,441.069a347.288,347.288,0,0,0,54.6,62.442"/><path class="d" d="M192.313,838.052a518.038,518.038,0,0,0-38.564,110.275c-6.416,28.254-10.347,58.373-.915,85.767s35.754,50.827,64.611,48.236"/><path class="d" d="M397.464,750.476c44.176-40.778,123.088-72.7,193.094-71.455"/><path class="d" d="M277.948,912.292c25.594-9.962,51.744-26.8,68.866-48.273"/><path class="d" d="M246,868.032c26.775-15.666,53.678-30.776,76.16-52.151"/><path class="d" d="M239.056,806.317c16.993-13.925,51.444-37.844,68.437-51.769"/><path d="M779.109,235.993c0-1.012-.016-2.023-.054-3.029-.142-3.768-.55-7.63-2.264-10.989s-4.982-6.142-8.747-6.324c-5.145-.247-9.252,4.134-12.117,8.414-6.087,9.094-17.572,30.059-2.723,37.453,9.109,4.536,19.442-2.337,23.205-10.79A36.443,36.443,0,0,0,779.109,235.993Z"/><path d="M611.64,252.779c.479-.765.9-1.5,1.256-2.193,2.965-5.747,4.1-12.794,1.451-18.692s-9.795-9.9-15.869-7.684c-3.752,1.369-6.433,4.68-8.567,8.056-4.668,7.386-12.456,22.153-5.825,30.569C593.04,274.2,606.135,261.591,611.64,252.779Z"/><path class="d" d="M240.65,497.457l3.427,43.883"/><path class="d" d="M274.059,501c1.248,2.008,3.941,2.751,6.26,2.292a13.63,13.63,0,0,0,6.1-3.452c12.22-10.7,16.613-29.432,10.426-44.451"/><path class="d" d="M149.687,565.709c2.664,3.258,5.567,6.682,9.593,7.91,10.177,3.1,13.273-8.9,13.215-16.073a63.818,63.818,0,0,0-3.424-20.084"/><path class="e" d="M221.941,666.906a25.644,25.644,0,0,0,21.477,9.587c12.019-.792,27.676-13.052,26.022-26.1"/><path class="d" d="M589.393,743.632c-.053-4.984,5.541-7.89,10.345-9.221,44.155-12.234,91.88,12.656,116.322,49.662,15.555,23.549,25.814,52.087,33.713,79.182"/><path class="d" d="M1119.541,376.741c-3.751,12.971-11.5,25.391-23.448,31.681s-28.387,4.866-37.05-5.491c-6.493-7.763-7.624-18.647-7.295-28.762,1.019-31.317,16.447-51.037,27.208-78.758-4.627,5-9.369,10.088-15.366,13.316s-13.585,4.314-19.573,1.067c-7.221-3.915-10.117-12.679-11.786-20.722-5.745-27.687,5.736-54.285,19.59-68.139-48.11-43.475-124.236-88.9-188.04-100.463A351.334,351.334,0,0,0,754.407,118.1c-35.973,4.85-67.406,14.456-98.08,33.113a323.174,323.174,0,0,0-71.911,59.82c-41.456,46.014-70.162,103.789-79.825,165.1-16.414,104.138,25,227.746,111.323,297.588,117.289,46.4,262.172,31.691,419.137-19a591.849,591.849,0,0,0,71.628-122.589"/><path class="d" d="M1035.051,654.714c160.345,60.915,280.935,190.452,339.635,350.316,22.771,62.015,32.482,129.814,20.341,194.752"/><path class="d" d="M734.7,173.983A78.2,78.2,0,0,1,851.88,224.891"/><path class="d" d="M593.442,200.984c17.077-20.871,46.55-30.724,72.745-24.318"/><path class="d" d="M566.488,272.744a79.758,79.758,0,0,1,59.909-5.711"/><path class="d" d="M1109.472,969.724a243.626,243.626,0,0,1,121.793,17.436"/><path class="e" d="M419.441,887.1A26.3,26.3,0,0,0,465.7,866.43"/><path class="e" d="M444.08,845.282a27.817,27.817,0,0,0,42.208-27.864"/><path class="e" d="M466.4,796.728c.547,4.21,5.105,6.647,9.269,7.473a29.847,29.847,0,0,0,35.588-27.288"/><path class="e" d="M525.892,774.19a33.578,33.578,0,0,0,22.7-27.979"/><path class="e" d="M618.3,748.807A21.23,21.23,0,0,0,632.45,733.6"/><path class="d" d="M312.387,707.624a11.543,11.543,0,0,0,14.684,4.1"/><path class="a" d="M213.4,933.743c-9.251-11.351-14.131-27.459-8.4-40.935-8.724-4.684-12.719-15.2-13.455-25.074s1.05-19.8.472-29.682c-1.043-17.818-9.695-34.646-9.9-52.493-.23-19.642,10.008-38.272,23.916-52.144s31.286-23.663,48.612-32.919c-14.765-4.691-32.307-12.77-33.1-28.241-.5-9.75,6.654-18.6,15.328-23.075s18.665-5.485,28.383-6.411c27.022-2.576,57.433-4.131,77.854,13.752,10.051,8.8,16.128,21.171,21.9,33.22,16.339,34.105,32.688,71.721,24.02,108.531-5.28,22.419-19.31,41.614-33.016,60.125L302.135,931.16c-7.046,9.516-14.3,19.236-24.2,25.742C254.26,972.47,228.855,952.705,213.4,933.743Z"/><path class="a" d="M548.906,983.509a117.726,117.726,0,0,1-8.244-8.8c-2.409-2.852-24.689-39.32-21.746-39.971-24.8,5.485-43.424-10.751-66.966-13.06-12.819-1.257-27.432-3.358-34.035-15.82-8.038-15.169,4.682-28.607,18.88-33.736-2.466.891,3.594-24.92,5.169-27.592,4.667-7.916,11.98-15.713,17.1-23.779,3.42-24.911,23.76-47,48.589-50.968,3.017-16.475,19.6-27.7,36.188-30s33.266,2.378,49.363,7c8.5-15.221,29.773-17.631,46.711-13.5,29.193,7.125,53.65,27.755,71.279,52.091s29.273,52.394,40.756,80.164c-1.859-4.494-52.637,41.831-56.384,46.562A180.422,180.422,0,0,0,661.7,981.093c-1.848,7.58-.751,30.737-5.47,35.9-13.809,15.123-63.987-5.931-77.791-12.719A117.318,117.318,0,0,1,548.906,983.509Z"/></svg>