<svg xmlns="http://www.w3.org/2000/svg" viewBox="0 0 1677.153 619.384"><defs><style>.a,.b{fill:none;stroke:#000;stroke-linecap:round;stroke-linejoin:round;}.a{stroke-width:12.716px;}.b{stroke-width:7.266px;}.c{opacity:0.44;}.d{opacity:0.16;}.e{opacity:0.2;}.f{opacity:0.7;}.g{opacity:0.76;}</style></defs><title>EFimage</title><path class="a" d="M526.105,477.876c32.644.368,58.4,24.978,91.872,5.717,22.358-12.867,36.811-36.482,44.493-61.107s9.446-50.632,12.144-76.286c5.623-53.464,24.54-87.483-7.149-140.931"/><path class="a" d="M669.3,392.257c3.41,6.179,19.322,6.759,24.642,2.121s6.6-12.678,4.839-19.512-6.055-12.71-10.5-18.192-9.2-10.853-12.157-17.26"/><path class="a" d="M658.346,407.479c-25.8,2.373-49.842,18.98-61.193,42.274q23.382-.717,46.763.747"/><path class="b" d="M633.418,444.832l13.308-30.591"/><path class="a" d="M638.107,309.885c-14.71-.062-28.027,19.937-38.153,28.948,5.24,6.3,10.572,12.684,17.262,17.228s15.035,7.086,22.736,4.927C663.291,354.444,666.271,310.032,638.107,309.885Z"/><path d="M642.975,334.322c-2.8-.061-4.945,4.384-3.59,7.453a3.8,3.8,0,0,0,6.96.176c1.453-3-.542-7.547-3.346-7.629"/><path class="a" d="M609.111,287.775a37.827,37.827,0,0,1,61.41,11.865"/><path class="b" d="M605.625,385.558a62.843,62.843,0,0,0,32.827-10.614"/><path class="b" d="M600.631,396.974a25.614,25.614,0,0,0,17.961-.925"/><path class="a" d="M620.238,530.781c22.546-20.35,45.313-40.458,67.6-61.093,9.991-9.25,19.962-18.553,29.482-28.291,3.5-3.581,8.095-7.35,10.981-11.406,4.295-6.033,4.852-13.744,9.057-20.089,3.906-5.894,10.65-10.446,17.681-9.7,6.176.654,11.241,5.095,17.112,7.124,10.137,3.5,28.189,2.539,28.89,17.317.211,4.462-.972,8.948-.354,13.372.593,4.249,2.8,8.1,3.878,12.251,4.394,16.957-16.289,12.328-25.887,16.3"/><path class="a" d="M378.516,510.622c-12.987-23.235-10.116-54.339,6.9-74.8s47.08-28.958,72.293-20.424c20.738,7.02,36.585,23.678,50.728,40.39a696.237,696.237,0,0,1,44.727,58.944c4.382,6.461,8.419,12.038,12.517,17.178"/><path class="a" d="M728.469,530.78Q740.067,489,755.44,448.4c2.724-7.191,7.477-15.676,15.152-15.194,5.15.323,9.163,5.044,10.377,10.059s.252,10.272-.743,15.335q-7.359,37.434-16.952,74.38"/><path class="a" d="M18.961,51.173H651.794c31.533,0,77-5.976,104.384,9.747,15.155,8.7,26.456,28.367,37.6,41.957q41.4,50.507,81.5,102.057c74.25,95.447,139.569,197.686,217.637,290.093,9.118,10.792,15.985,19.933,30.08,19.044,32.657-2.059,65.613,5.675,98.617,6.136l148.2,2.069,75.2,1.049,212.719,2.97"/><path class="a" d="M370.657,464.2c-7.521,34.287-30.182,56.294-39.032,68.574"/><path class="a" d="M533.9,483.826a204.937,204.937,0,0,0-58.6,49.152"/><path class="a" d="M706.475,532.777l42.147-70.268"/><path class="a" d="M570.04,109.366c26.9.2,55.538.9,77.916,15.838,17.083,11.4,28.165,29.627,38.7,47.261,35.66,59.7,71.328,119.437,104.116,180.78,21.694,40.584,68.059,103.852,55.752,153.226-9.856,39.542-65.162,26.9-95.052,26.9H312.909c-20.885,0-91.086,1.923-84.629-49.546,7.644-60.935,42.248-316.565,47.782-351.028,1.061-6.612,2.5-13.755,7.541-18.163,5.1-4.459,12.469-4.882,19.241-5.083,35.1-1.042,70.019-1.379,104.992-1.379Z"/><path class="a" d="M18.622,530.07H63.144c13.832,0,28.513-4.91,36.577-16.147s10.856-25.3,13.449-38.89c11.377-59.625,80.292-317.234,79.839-341.362-.12-6.4-.68-13.093-4.052-18.539s-10.562-8.054-16.967-8.054h-146"/><path class="a" d="M798.157,111.069l-1.33,1.33H751.438a15.351,15.351,0,0,0-13.274,23.082c56.73,96.862,127.94,193.844,182.172,290.686,19.4,34.644,40.478,71.006,75.163,90.334,38.739,21.587,94.6,15.4,121.694-2.671"/><path class="a" d="M444.443,411.867c15.7-2.152,29.064-15.182,37.782-28.412,15.746-23.894,18.469-45.6,41.017-65.323,27.485-24.035,67.167-29.4,96.079-51.7,17.18-13.252,28.5-32.466,41.591-49.034,13.242-16.756,10.582-40.38-2.911-56.667-13.4-16.177-34.25-24.261-54.794-28.649-34.853-7.445-79.113-8.6-113.1,2.893-35.08,11.868-64.989,35.13-93.057,58.606-50.672,42.383-98.753,87.753-146.8,133.091"/><path class="a" d="M339.283,466.14c4.1-25.61,24.51-45.5,46.077-59.9S431,380.662,449.468,362.448c21.8-21.5,34.415-51.563,58.51-70.455,13.074-10.252,28.721-16.546,43.789-23.544s30.172-15.15,40.722-27.986,15.628-31.4,8.578-46.449"/><path class="a" d="M234.849,432c1.862-7.487,7.05-13.749,12.951-18.719s12.6-8.895,18.767-13.532c26.572-19.984,32.476-60.052,62.944-74.687"/><path class="a" d="M232.325,509.547c10.183-20.111,21.321-40.229,40.408-53.1,10.643-7.176,22.239-13.254,31.121-22.52,10.51-10.965,16.334-25.443,23.21-38.985s15.767-27.14,29.533-33.557"/><path class="a" d="M286.243,530.193l28.719-36.083"/><path class="a" d="M1050.3,439.058c28.814.925,56.784,2.7,78.3-10.98,14.556-9.258,23.667-24.826,32.227-39.8l85.38-149.381c17.88-31.282,37.151-64,68.362-82,36.714-21.18,94.526-11.24,135.338-11.24h209.261"/><path class="a" d="M1118.3,433.184c11.648,11.648,84.163,17.786,115.679-14.867,14.267-14.782,22.314-34.324,30.039-53.361,14.74-36.324,29.536-72.791,39.854-110.671,7.455-27.37,26.586-78.943-21.579-67.5"/><path class="a" d="M1304.311,428.166c-4.356-4.949-4.681-8.834-4.344-17.652.477-12.453,4.81-24.393,9.095-36.1l54.777-149.6a153.861,153.861,0,0,1,6.228-15.221,48.28,48.28,0,0,1,10.862-15c16.553-14.748,41.172-8.917,61.517-9.047,27.358-.175,54.721-.75,81.819,1.321,21.507,1.645,42.292-1.6,56.637,18.373,13.106,18.243,14.687,42.067,15.8,64.5q2.138,42.984,4.276,85.97c.982,19.741,9.375,56.3-2.429,73.912-4.838,7.218-13.264,12.65-21.953,12.65H1406.256c-16.785,0-46.244,4.308-69.9,1.294"/><path class="a" d="M919.564,591.372a26.991,26.991,0,0,0,12.587-25.166c8.164,4.04,19.165,1.553,24.376-5.918s3.47-19.064-4-24.274-19.363-2.481-23.4,5.685c1.845-20.665-2.329-51.256-23.762-60.875a29.2,29.2,0,0,0-31.03,5.085c-9.028,8.356-11.665,21.369-13.826,33.479-2.458,13.769-4.924,27.778-3.292,41.669s7.991,27.9,19.743,35.485"/><path class="b" d="M179.359,593.838C197.944,462.585,212.875,330.7,235.7,200.464c3.425-19.541,6.893-39.108,9.012-58.667,1.662-15.343,2.345-33.444,11.727-46.4,5.511-7.61,15.338-13.986,24.573-12.257H583.954c41.893,0,69.9-2.373,102.238,27.125,30.623,27.938,49.031,69.752,69.561,105.567q73.481,128.181,137.088,261.694"/><path class="b" d="M114.114,587.12,221.875,148.1c2.477-10.094,4.973-20.375,4.352-30.751s-4.85-21.05-13.374-27c-7.971-5.562-18.259-6.208-27.967-6.666-55.851-2.634-111.3-3.211-167.273-3.211"/><path class="a" d="M1505.787,400.517c-33.576,19.721-77.632-22.185-66.636-56.908,4.688-14.806,17.154-27.492,16.637-43.014-.309-9.269-5.317-17.685-7.383-26.727-5.258-23.008,13.189-47.063,34.952-53.415a26.388,26.388,0,0,1-25.859-15.182c14.554,3.924,29.93,2.334,45,2.525s31.183,2.673,42.271,12.885c8.828,8.13,12.454,19.349,14.673,30.8,4,20.623-.56,38.564.732,59.685,1.207,19.742,19.07,37.829,14.426,55.473"/><path class="a" d="M1446.34,361.112c10.6-10.317,29.327-10.628,40.259-.667"/><path class="a" d="M1437.1,342.741c-16.887,13.129-30.392-18.83-9.817-30.933a33.741,33.741,0,0,1,24.425-3.747"/><path class="a" d="M1456.649,295.165l40.006-11.624"/><path class="a" d="M1469.761,436.573c33.054-36.021,79.9-66.813,129.436-69.037"/><path class="a" d="M1527.253,299.892c-.2-5.519,4.864-10.4,10.369-10.84s10.879,2.97,13.695,7.721,3.334,10.6,2.419,16.047a34.266,34.266,0,0,1-24.469,26.811"/><path class="c" d="M1515.056,270.255c-.226-10.185.324-21.06-4.988-29.752-6.6-10.8-20.047-14.823-32.3-17.993-3.7-3.081-1.636-9.669,2.588-11.978s9.381-1.661,14.142-.948l23.3,3.488c11.889,1.78,24.737,4.046,32.925,12.847,8.534,9.175,9.592,22.861,9.667,35.391a448.736,448.736,0,0,1-2.33,48.409c-3.665-7.233-7.827-14.963-15.164-18.414-8.059-3.791-14.228,5.789-19.27,4.148C1515.787,292.9,1515.2,276.751,1515.056,270.255Z"/><path class="d" d="M721.426,436.57c7.037-7.751,13.044-15.971,17.215-26.877,1.351-3.531,2.929-7.606,6.521-8.785a12,12,0,0,1,5.356-.082l27.7,3.777c6.17.841,12.825,1.916,17.178,6.369,8.15,8.336,4.869,25.769,5.241,36.387.2,5.688-4.561,33.215-16.625,17.4,1.062-6.161,2.115-12.566.436-18.589s-6.934-11.536-13.183-11.356c-7.3.211-12.132,7.413-15.684,13.795-16.149,29.012-34.775,56.679-51.576,85.457H620.165c12.3-21.8,33.279-29.772,51.178-45.634,13.271-11.76,24.209-25.664,36.559-38.015C712.663,445.65,717.228,441.194,721.426,436.57Z"/><path class="c" d="M406.883,420.837a50.218,50.218,0,0,1,7.559-3.372c11.061-3.862,23.1-4.21,34.2-7.948,16.011-5.388,29.042-17.551,38.537-31.525,13.624-20.051,15.661-44.364,35.506-59.411,24.069-18.25,52.832-29.451,78.835-44.519,25.649-14.862,51.4-35.582,62.616-63.915,11.944-30.162-13.357-58.471-38.9-72.458C577.2,111.383,513.6,117.235,468.68,147a1401.479,1401.479,0,0,0-189.5,150.685c-10.635,10.074-21.3,20.558-28.031,33.566-7.405,14.3-9.562,30.663-11.414,46.662-4.325,37.367-10.149,76.218-9.961,113.881.139,27.713,33.128,42.872,58.738,41.722,3.544-.159,46.884-4.29,45.186-2.008,15.971-21.47,26.326-39,36.263-63.615C377.193,449.978,389.315,430.446,406.883,420.837Z"/><path class="d" d="M687.014,351.435c-13.559-21.111-9.318-48.449-6.574-73.388s1.8-54.059-17.729-69.806c-12.438,29.375-39.576,49.71-67,66.007s-56.85,30.425-79.082,53.3c-23.627,24.31-37.492,56.92-61.816,80.533,20.377,12.274,60.2,36.672,68.546,60.4,5.01,14.238-7.982,22.3-17.627,30.893-6.215,5.538-28.536,31.983-36.2,31.983l98.992.352q-17.642-25.194-35.284-50.386c38.84,20.131,91.727,6.86,116.461-29.225a125.935,125.935,0,0,1-53.623-3.3,113.412,113.412,0,0,1,72.991-49.67c12.428-2.42,28.156-5.078,31.326-17.336C703.261,370.712,693.2,361.071,687.014,351.435ZM656.729,349c-7.034,9.54-20.528,13.085-31.931,9.856-27.781-7.868-23.3-28.965-1.629-41.441,9.123-5.252,21.375-6.5,29.821-.222C662.5,324.268,663.763,339.463,656.729,349Z"/><path class="a" d="M1332.466,440.934a115.851,115.851,0,0,1-.559,32.129c-1.551,9.808-4.748,20.013-12.364,26.385-18.269,15.286-54.514-3.582-54.825-26.441-.263-19.37,31.01-42.926,47.536-48.206,3.966-1.267,8.433-2.055,12.18-.24,5.241,2.539,7.041,9.03,7.829,14.8Q1332.37,440.147,1332.466,440.934Z"/><path class="a" d="M1262.95,487.008c-4.247,6.088-14.815,4.723-18.761-1.564s-1.927-15.037,3.145-20.456,12.5-8.022,19.82-9.239"/><path class="a" d="M1342.477,339.693c10.227.625,49.707.183,47.738,15.892-.947,7.563-5.208,14.98-7.392,22.278a161.489,161.489,0,0,0-6.744,49.621"/><path class="a" d="M1211.324,337.777a390.888,390.888,0,0,0,42.792,1.719"/><path class="a" d="M844.742,164.275c15,.514,30.009.258,45.013.137,14.907-.119,29.716.4,44.605.88,28.816.925,58.4-4.811,87.027.328,12.335,2.214,23.39,8.511,33.13,16.191,9.9,7.8,16.594,17.984,22.629,28.931,13.519,24.522,27.213,49.838,44.661,71.831,8.553,10.782,16.194,22.75,25.926,32.521a72.453,72.453,0,0,0,28.755,17.482c2.646.874,5.335,1.616,8.05,2.245"/><path class="a" d="M1061.785,194.38c-7.8-.377-16.17-.611-22.758,3.584-25.016,15.928,46.335,100.456,57.736,116.99,19.03,27.6,52.184,23.689,87.775,19.867"/><path class="a" d="M872.748,202c18.87-4.239,36.226-2.779,55.215-1.821,15.459.781,31.042-2.222,46.5-.012,35.771,5.112,42.382,39.044,57.377,68.268,5.744,11.194,11.378,22.446,16.72,33.837,3.137,6.688,12.927,19.923,13.656,26.625,2.7,24.792-66.72,19.551-81.551,19.211"/><path class="a" d="M912.755,242.149c13.764-21.149,45.475-13.916,61.58.168,21.3,18.624,8.82,57.835-9.358,74.847"/><path class="a" d="M951.41,441.224c21.734.621,49.467-1.758,71.2-1.137"/><path class="e" d="M1590.176,366.22c2.829-.87,6.339-1.539,8.388.6,1.426,1.487,1.522,3.766,1.534,5.827q.1,16.644.191,33.287c.053,9.319-.18,19.484-6.12,26.665-6.938,8.387-19.092,9.724-29.966,10.227-34.191,1.582-67.7-.969-101.912-.715C1501.98,410.225,1540.886,381.392,1590.176,366.22Z"/><path class="a" d="M1080.755,338.181c.106-3.992-4.417-6.872-8.387-6.436s-7.285,3.165-10.08,6.018a68.091,68.091,0,0,0-13.583,20.032c-3.3,7.461-4.855,17.161.842,23,4.581,4.694,12.354,4.877,18.343,2.2s10.611-7.619,15.058-12.439"/><line class="a" x1="989.01" y1="300.903" x2="984.413" y2="285.905"/><path class="a" d="M957.846,278.209l12.574,4.819"/><path class="f" d="M927.545,270.7l-11.388-16.993c-1.406-2.1-2.846-4.279-3.268-6.769-.963-5.682,3.671-10.867,8.733-13.628,14.47-7.893,29.277-6.134,43.282,1.85C963.522,241.2,932.909,278.686,927.545,270.7Z"/><path class="c" d="M957.619,247.1c2.392-3.074,4.635-6.22,6.715-9.385,1.1-1.671,14.678,16.287,15.629,18.609,3.77,9.2,3.094,20.242.188,29.561-3.823,12.263-11.5,22.935-19.61,32.891q-8.342-9.687-15.965-19.963c-1.75-2.359-16.8-24.327-18.725-23.3C938.072,268.662,948.854,258.355,957.619,247.1Z"/><path class="a" d="M895.988,260.749a69.777,69.777,0,0,0,3.759,56.567"/><path class="a" d="M860.336,213.2a5.822,5.822,0,0,0-4.956,3.492,17.123,17.123,0,0,0-1.316,6.219q-2.229,26.54-4.456,53.08"/><path class="a" d="M899.514,349.4l57.9,2.374"/><path class="a" d="M885.228,332.209a49.026,49.026,0,0,1,42.347-14.266"/><path class="a" d="M780.5,167.938c11.639-.663,29.278-.325,40.917-.988"/><path class="a" d="M25.99,412.8c16.921-.516,56.255-6.067,103.013-22.236"/><path class="a" d="M258.748,255.927c33.342-9.849,68.034-23.154,103.193-20.9,41.038,2.625,82.972,14.683,124.2,10.955,29.489-2.667,59.5-15.422,76.061-39.97"/><path class="a" d="M66.977,258.8c-14.523,10.209-20.941,30.572-14.9,47.263S76.1,334.282,93.788,332.824c24.8-2.044,42.014-21.781,61.919-34.465"/><path class="a" d="M336.686,191.651c-8.106-3.339-12.236-13.277-10.5-21.871,8.279-41.032,57.842-18.679,79.559-7.06,15.98,8.549,31.28,18.7,48.465,24.452a104.257,104.257,0,0,0,83.644-8.21"/><path class="a" d="M13.221,493.116c28.873-31.192,79.2-17.147,106.935-49.428"/><path class="c" d="M18.709,515.5c-.18,3.869-.284,8.034,1.854,11.263,3.336,5.036,10.4,5.558,16.436,5.563,17.8.014,37.242-.54,50.837-12.032,9.519-8.046,14.462-20.145,18.668-31.878a567.368,567.368,0,0,0,25.967-100.729c-.568,3.409-49.267,11.461-54.837,12.757-11.747,2.732-40.449,3.41-49.662,10.249-9.789,7.266-5.884,32.463-6.421,43.958Q20.13,485.074,18.709,515.5Z"/><path class="d" d="M985.476,201.7c10.256,5.613,19.069,14.941,25.152,24.03,7.2,10.757,12.058,22.835,16.163,35.051,3.522,10.484,9.176,17.833,13.985,27.624,1.47,2.992,23.241,48.641,22.354,48.96a198.57,198.57,0,0,1-80.988,11.17c2.861.2,13.413,21.866,15.494,25.012,5.318,8.043,10.863,16.472,17.527,23.483,13.1,13.784,23.236,30.613,35.578,45.32,7.63-2.612,15.952-.723,23.985-.009,27.936,2.484,56.54-11.115,72.866-33.8,8.891-12.355,18.545-23.525,25.878-37.171,3.772,0,14.334-33.451,16.01-37.283-13.332-1.359-26.751.566-40.142,1.068s-27.392-.589-38.972-7.332c-10.78-6.277-18.337-16.775-25.245-27.161a626.667,626.667,0,0,1-46.057-81.989c-4.093-8.771-7.8-19.156,1.425-25.131,5.355-3.467,20.038-8.594,25.538-2.328-36.932-42.073-78.773-27.7-126.177-29.389-31.681,0-63.46,1.807-95.292,2.661,5.812,5.359,11.829,9.574,16.539,15.964,1.584,2.149,13.245,22.083,14.469,21.919,14.043-1.88,28.542-5.04,42.622-5.506,10.248-.339,20.5-.165,30.75.109,7.614.2,16.038-1.287,23.419-.007A42.619,42.619,0,0,1,985.476,201.7Z"/><path class="e" d="M1659.443,526.776l-538.762-13a300.7,300.7,0,0,1-60.812,15.925c-20.518,3.2-42.339,1.816-60.748-7.794-21.135-11.032-35.494-31.429-48.882-51.157Q837.73,304.958,738.1,130.9c-1.655-2.891-3.366-6.163-2.557-9.4,1.163-4.649,6.679-6.5,11.393-7.369a166.044,166.044,0,0,1,51.859-1.329C786.385,78.1,752.5,49.881,715.648,49.881H267.714c-83.288-6.439-167.1-6.1-250.5-1.282l-3.291,57.136,148.355,1.075c7.588.055,15.908.377,21.573,5.426,8.155,7.268,6.717,20.172,4.605,30.889C166.451,254.794,144.416,366.574,114.549,476.4c-3.937,14.48-8.372,29.571-18.834,40.328-9.86,10.139-24.053,15.152-38.129,16.526-14.473,1.412-34.785-8.122-37.287,9.383-1.415,9.9,0,20.961,0,30.994,1.677,6.588.742,13.382-1,19.953H1659.4C1659.15,566.985,1659.692,553.377,1659.443,526.776Zm-812.921-20.3c-9.856,39.542-65.162,26.9-95.052,26.9H312.909c-20.885,0-91.086,1.923-84.629-49.546,7.644-60.935,42.248-316.565,47.782-351.028,1.061-6.612,2.5-13.755,7.541-18.163,5.1-4.459,12.469-4.882,19.241-5.083,35.1-1.042,70.019-1.379,104.992-1.379l162.2,1.193c26.9.2,55.538.9,77.916,15.839,17.083,11.4,28.165,29.626,38.7,47.259,35.66,59.7,71.328,119.438,104.116,180.781C812.464,393.83,858.829,457.1,846.522,506.471Z"/><path class="g" d="M728.469,530.78Q740.067,489,755.44,448.4c2.724-7.191,7.477-15.676,15.152-15.194,5.15.323,9.163,5.044,10.377,10.059s.252,10.272-.743,15.335q-7.359,37.434-16.952,74.38"/><path class="c" d="M1659.065,144.955q-132.59-2.821-265.269-5.51c-20.126-.428-40.591-.816-59.992,4.557s-37.936,17.435-46.26,35.764c10.2-4.259,22.129,4.072,25.806,14.5s1.453,21.9-.892,32.7c-8.316,38.29-17.751,76.465-31.777,113.052-16.462,42.94-43.549,87.107-87.7,99.988-12.376,3.611-28.794,6.456-41.812,5.5-3.237-.237-9.586-3.878-15.422-7.549-6.239-3.924-11.892-7.883-12.536-7.758-10.8,2.105-65.59,19.674-73.4,4.26,17.807,35.356,43.471,60.811,78.52,79.651,0,0,528.136,12.769,529.143,13.223S1659.065,144.955,1659.065,144.955ZM1598.552,429.63c-4.838,7.218-13.264,12.65-21.953,12.65H1406.256c-16.785,0-46.244,4.308-69.9,1.294-4.241-18.557-13.994-25.627-32.043-15.408-4.356-4.949-4.681-8.834-4.344-17.652.477-12.453,4.81-24.393,9.095-36.1l54.777-149.6a153.761,153.761,0,0,1,6.228-15.221,48.28,48.28,0,0,1,10.862-15c16.553-14.748,41.172-8.916,61.517-9.047,27.358-.176,54.721-.751,81.819,1.322,21.507,1.644,42.292-1.6,56.637,18.372,13.106,18.243,14.687,42.067,15.8,64.5q2.139,42.984,4.277,85.97C1601.963,375.458,1610.356,412.017,1598.552,429.63Z"/><path class="a" d="M751.725,350.277c-12.509.807-28.791-1.709-40.668,1.076"/><path class="a" d="M807.817,208.969l16.5,1.227-4.026,27.735"/><path class="a" d="M23.157,176.107c30.235,3.972,68.383-.88,96.908,8.147,16,5.064,30.429,19.2,30.185,35.986"/><path class="a" d="M1608.852,496.748c6.2-.7,10.141-1.788,10.23-3.234l1.056-17.288-79.952,1.909c-3.259.078-6.814.266-9.255,2.426C1514.123,495.433,1582.253,499.735,1608.852,496.748Z"/></svg>