<svg xmlns="http://www.w3.org/2000/svg" viewBox="0 0 1631.661 1045.509"><defs><style>.a,.c{fill:none;}.a,.b{stroke:#000;stroke-linecap:round;stroke-linejoin:round;stroke-width:14px;}.b{fill-opacity:0.25;}.d{opacity:0.32;}.e{opacity:0.17;}</style></defs><title>EFimage</title><path class="a" d="M777.534,992.856C647.84,895.046,567.014,735.427,564.93,573c-.443-34.591.388-74.372-25.667-97.131-19.854-17.342-48.551-18.312-74.568-22.561C377,438.985,298.1,372.14,276.689,285.9S297.6,99.72,377.7,61.256c61.152-29.364,137.245-21.278,194.061,15.786s94.171,100.594,104.681,167.612c7.98,50.892,4.358,110.1,42.259,144.99,33.357,30.7,84.114,28.255,129.4,30.5,136.255,6.751,269.925,72.97,357.451,191.143"/><path class="a" d="M1296.394,865.523A492.4,492.4,0,0,1,1313.937,979.3"/><path class="a" d="M1133.883,739.048c5.786,31.716,19.572,62.858,39.874,87.958,19.994,24.72,52.72,47.873,85.872,46.494,69.512-2.889,63.864-90.628,52.74-138.721-9.474-40.964-31.7-78.572-65.457-104.091l-.178-.134c-51.735-39-105.522-16.413-114.272,46.3A196.258,196.258,0,0,0,1133.883,739.048Z"/><path class="a" d="M1152.964,861.2a199.618,199.618,0,0,1-58.051-109.818c-11.785-69.813,12.191-142.487,82.867-167.343"/><path class="a" d="M534.529,445.732c53.4-20.321,98-62.72,121-115.018"/><path class="a" d="M574.27,459.114a182.681,182.681,0,0,0,72.948-63.507"/><path class="a" d="M750.436,402.447c9.342-36.183,32.075-69.379,64.295-88.307s73.895-22.322,107.45-5.874,56.873,53.408,54.191,90.681"/><path class="a" d="M981.146,441.281a46.723,46.723,0,0,0,23.55-80.234c-10.866-10.086-14.948-8.506-29.745-7.57"/><path class="b" d="M1078.016,310.176a6.139,6.139,0,0,1,2.923-1.275c6.449-.713,10.953,3.363,11.908,9.632.891,5.841-8.965,15.441-8.84,16.2,2.877,17.461-7.713,39.294-27.895,35.914-33.03-5.53-7.588-47.875,14.508-49.373C1070.385,321.288,1073.722,313.36,1078.016,310.176Z"/><path class="a" d="M1027.634,457.291a207.48,207.48,0,0,1,131.524-53.324c19.165-.623,38.805,1.383,57.167-4.14,22.636-6.809,40.406-24.177,55.97-41.967s30.318-36.971,50.332-49.548,47.2-17.169,66.96-4.2c17.621,11.565,25.146,35.133,20.809,55.759s-18.952,38.088-36.732,49.405-38.544,17.086-59.315,20.663c-16.541,2.848-34.311,4.828-47.228,15.545-16.555,13.737-20,37.2-25.791,57.921a198.247,198.247,0,0,1-48.572,84.431"/><path class="a" d="M1087.785,494.868c12.18-15.9,37.906-19.046,53.556-6.539s18.258,38.291,5.431,53.679"/><path class="a" d="M1039.26,447.3a42.666,42.666,0,0,1,69.391-36.736"/><path class="a" d="M1163.017,398.434c-16.216-3.326-29.079-18.918-29.1-35.471s12.93-32.241,29.217-35.2,34.007,7.3,39.406,22.95c2.694,7.809,2.519,16.263,3.307,24.486s2.859,16.886,8.862,22.56"/><path class="a" d="M1259.422,454.373c31.878,16.934,54.558,50.114,58.761,85.964"/><path class="a" d="M1246.421,508.291a86.918,86.918,0,0,1,53.1,44.051"/><path class="a" d="M1267.373,639.134a70.13,70.13,0,0,1,65.656,14.056"/><path class="a" d="M1341.887,967.037c28.467-27.549,55.885-57.193,73.25-92.8s23.685-78.26,9.045-115.07c-9.287-23.352-26.005-42.4-40.767-62.36-5.843-7.9-18.878-21.45-20.155-31.447-1.366-10.692,10.2-20.923,15.65-29.746,12.641-20.48,13.67-48.236.572-68.427s-40.547-30.556-63.044-22c-24.38,9.269-37.606,36.973-38.2,63.049-.2,8.979-.047,16.67,2.732,25.211"/><path class="a" d="M1302.25,612.336a66.473,66.473,0,0,1,41.384,15.616"/><path class="a" d="M1428.093,753.819c20.795,9.951,35.3,26.893,36.314,49.925.8,18.176-15.63,65.681-41.182,58.76"/><path class="a" d="M1395.451,709.3a61.294,61.294,0,0,1,46.411-36.334"/><path class="a" d="M1359.134,549.908c-6.206-15.635-3.548-34.713,7.514-47.384s30.321-17.821,45.873-11.41,25.686,24.433,22.131,40.875"/><path class="a" d="M1388.768,573.432a34.6,34.6,0,0,0,35.966-9.059"/><path class="a" d="M1414.023,573.624c.917,31.965,10.948,74.188,31.442,99.422,4.3,5.291,63.038,57.8,67.442,49.1a108.017,108.017,0,0,0-2.075,91.71c12.6,27.987,47.091,31.529,70.974,12.743"/><path class="a" d="M1540.292,718.331l31.913-8.024"/><path class="a" d="M1424.932,492.682c4.407-30.706,29.329-57.4,59.659-63.9s64,7.628,80.611,33.828"/><path class="a" d="M1311.071,434.238a39.8,39.8,0,0,0,51.451,51.3"/><path class="a" d="M1420.281,344.273A74.341,74.341,0,0,1,1507.8,428.5"/><path class="a" d="M1351.711,422.039c-9.361,24.936,1.9,55.879,25.092,68.97"/><path class="b" d="M1565.042,316.054c-14.895-10.357-43.322.962-41.919,20.931,1.4,19.925,31.262,22.386,44.415,12.4"/><path class="a" d="M1383.353,625.5a69.9,69.9,0,0,0,43.942,22.522"/><path class="a" d="M1397.292,907.822c25.468,5.632,52.691-3.694,72.8-20.307s33.849-39.775,43.851-63.864"/><path class="a" d="M1472.405,973.947a140.847,140.847,0,0,1,115.387-114.376"/><path class="a" d="M1472.515,891.5v-1.33c9.693,8.179,15.427,18.046,17.037,30.627"/><path class="a" d="M639.474,841.747c-20.651,14.694-41.62,29.4-65.118,38.9s-50.077,13.469-74.322,6.081a85.417,85.417,0,0,1-52.416-46.358c-16.516-37.158-.771-82.906,20.215-115.134,23.513-36.108,59.024-63.191,97.534-82.522"/><path class="a" d="M664.057,873.277c-28.872,32.632-38.837,80.91-25.245,122.307"/><path class="a" d="M562.508,884.922c12.352,28.136,9.619,62.389-7.038,88.211"/><path class="a" d="M363.006,972.367c8.979-49.492,43.307-93.689,89.039-114.636"/><path class="a" d="M188.708,450.416C249.851,483.009,295,544.122,308.193,612.142c26.239-8.209,56.648-2.525,77.454,15.447s30.854,47.89,24.079,74.536-30.549,48.407-57.835,51.778-56.134-12.54-66.921-37.828c-6.055-14.194-7.737-31.943-20.582-40.5-6.2-4.129-13.88-5.172-21.244-6.3-38.384-5.88-76.727-17.309-108.276-39.948s-55.64-57.717-58.526-96.441,18.707-79.859,54.934-93.812c-7.7,2.861-12.039-27.483-11.533-31.771,1.8-15.286,12.652-29.862,26.184-36.818,17.1-8.791,39.356-6.331,54.125,5.982,23.115,19.27,18.488,51.566.826,73.409"/><path class="b" d="M383.47,783.488c7.092.494,12.479,9.054,9.432,15.478,7.57-2.248,16.071,1.62,20.757,7.984,7.452,10.127,6.789,37.776-7.547,42.125-11.19,3.394-19.318-2.8-24.946-11.935-1.361-2.209-8.285-28.555-5.388-27.756a12.6,12.6,0,0,1-8.964-10.79C366.094,790.125,375.374,782.93,383.47,783.488Z"/><path class="a" d="M401.724,738.338a4.626,4.626,0,0,1-4.565-4.13c12.624,14.647,34.079,21,52.643,15.59"/><path class="a" d="M412.646,697.67c24.075-.467,46.9-13.258,62.756-31.38s25.279-41.143,30.488-64.652c3.7-16.709,5.467-34.028,12.143-49.786s19.679-30.235,36.61-32.726"/><path class="a" d="M361.065,612.424c-2.735-23.853,12.546-46.525,31.51-61.252s41.666-23.715,62.227-36.114,40.028-29.868,45.7-53.2"/><path class="a" d="M468.2,673.426A34.041,34.041,0,0,1,484.4,697.262"/><path class="a" d="M565.236,638.844a13.045,13.045,0,0,0-17.1-3.232c1.415-8.51-5.2-17.518-13.739-18.719s-17.383,5.633-18.37,14.2,6.065,17.236,14.657,18.009c-.436,4.435-2.369,9.147-2.8,13.581"/><path class="a" d="M363.172,942.4A46.034,46.034,0,0,1,327.2,928.486c-6.383-6.681-10.745-16.16-8.6-25.146,2.242-9.38,11.37-16.117,20.929-17.395s19.271,2.15,27.29,7.508S381.434,906,387.945,913.112"/><path class="a" d="M43.746,705.142a227.35,227.35,0,0,1,126.717,52.883,227.357,227.357,0,0,1,72.593,116.55c5.37,21.219,7.682,43.311,15.67,63.689s23.257,39.613,44.528,44.772"/><path class="a" d="M165.359,746.659a52.972,52.972,0,1,1,64.232,84.23"/><path class="a" d="M126.273,584.873c-.721-12.8,7.257-26.065,19.468-29.974,25.213-8.071,64.836,30.351,46.607,54.521C172.555,635.663,127.917,614.083,126.273,584.873Z"/><path class="a" d="M214.9,431.337c15.3-7.4,35.789-1.183,44.389,13.474s4.037,35.58-9.886,45.323"/><path class="a" d="M107.878,716.136a90.667,90.667,0,0,0,48.044-68.025"/><path class="a" d="M39.983,561.641A48.837,48.837,0,0,1,70.316,535.63"/><path class="a" d="M163.693,742.507c-5.757-29.943,6.288-62.627,30.1-81.673"/><path class="a" d="M235.4,853.055c23.32,10.674,52.234,7.958,73.16-6.869"/><path class="a" d="M325.6,827.392a99.134,99.134,0,0,0,21.972-66.327"/><path class="a" d="M280.9,858.159c17.466,43.508,102.366-12.215,60.975-51.788"/><path class="a" d="M275.2,522.784A78.662,78.662,0,0,1,388.7,552.164"/><path class="a" d="M400.273,432.605a127.573,127.573,0,0,0,49.1,85.444"/><path class="a" d="M516.117,561.638a72.1,72.1,0,0,0,43.924,4.052"/><path class="a" d="M320.7,371.484c-19.683,26.529-18.24,66.654,3.3,91.7s60.993,32.484,90.171,17"/><path class="a" d="M203.533,371.4c10.072-8.945,27.967-6.481,35.246,4.853a12.743,12.743,0,1,1,6.419,17.155c-3.311,10.624-14.672,18.109-25.739,16.96"/><path class="b" d="M101.1,323.625c-9.434-.07-15.41-10.417-16.9-19.734-1.433-8.977.568-20.021,8.878-23.706,8.542-3.787,18.756,3.123,21.975,11.895s1.456,18.491-.343,27.66c6.5.482,11.763,7.353,10.53,13.756s-8.667,10.832-14.884,8.865-9.754-9.864-7.08-15.812"/><path class="b" d="M714.783,291.147c-.733-12.305,8.488-24.449,20.538-27.047s25.456,4.665,29.86,16.179-.734,25.87-11.444,31.975c5.7,5.186,2.771,16.46-4.727,18.224-11.127,2.618-11.6-10.894-16.163-16.118C725.484,305.93,715.629,305.342,714.783,291.147Z"/><path class="b" d="M1028.546,258.777c-7.955-13.452-4.361-31.255,4.407-44.191,13.572-20.024,39.11-31.2,63.028-27.589,11.891,1.8,24.658,6.776,35.326,1.225,5.681-2.956,9.8-8.58,15.826-10.754,9.5-3.43,20.688,4.055,22.913,13.91s-3.206,20.383-11.515,26.131-18.916,7.316-28.991,6.559l-3.485,1.3c-1.068.4-5.385,12.783-6.731,14.705-3.8,5.422-8.974,8.163-13.479,12.624-2.153,2.133-6.035,1.777-7.907,4.195-1.332,1.72,1.261,5.522-.168,7.615-3.092,4.532-3.953,8.688-9.584,10.789-6.522,2.434-19.563-1.733-26.517-2.112C1048.067,272.442,1036.48,272.191,1028.546,258.777Z"/><path class="b" d="M983.7,202.066c-7.28,5.905-18.548,4.923-26.152-.559-10.1-7.28-14.484-19.759-10.126-31.678-8.056,1.382-16.428-5.9-16.176-14.077.821-26.5,35.619-6.931,25.214,3.491a26.794,26.794,0,0,1,23.278,2.4C993.341,170.219,996.8,191.438,983.7,202.066Z"/><path class="c" d="M488.54,695.579l48.43-35.394c-6.656-4.7-13.559-9.688-17.29-16.935s-3.095-17.443,3.6-22.086c6.429-4.455,15.757-1.939,21.339,3.541s8.319,13.151,10.882,20.541a13.515,13.515,0,0,1,11.686-3.43,494.265,494.265,0,0,1,1.021-82.7,65.545,65.545,0,0,1-40.178,3.372c-4.329-1.02-9.055-2.45-13.041-.478-5.076,2.51-6.264,9.064-7.056,14.67a218.416,218.416,0,0,1-21.522,68.275c-3.633,7.143-14.4,18.893-13.571,26.823C473.054,673.8,491.9,693.123,488.54,695.579Z"/><path class="d" d="M1587.1,857.627a158.962,158.962,0,0,0-93.083,68.393c3.541-5.637-26.193-32.158-30.179-35.605,24.57-13.545,39.972-43.794,47.707-70.35,14.322,20.221,44.566,27.069,66.2,14.99q-.8-186.066,6.117-372.058c-19.571-11.877-60.992-50.424-85.448-37.122,4.949-24.252-4.745-50.91-24.118-66.317s-47.528-18.852-70.043-8.571c11.844-26.949-21.646-55.72-50.836-51.921-29.85,3.884-60.568,28.835-78.559,51.8-10.1,12.886-15.337,25.274-29.93,34.688-2.854,1.842-37.063,14.815-36.815,12.514,2.951-27.442-10.05-78.353-45.964-72.665-17.271,2.734-32,18.676-31.725,36.161,0,17.737,16.443,31.963,33.588,31.707-12.409,14.228-42.631,14-60.268,17.568-9.073-15.808-28.549-12.225-43.52-7.267-12.967,4.293-19.311,13.83-21.124,26.924-2.33,16.829-3.26,17.431-15.986,28-.363.3-.726.613-1.088.926q16.086,8.575,31.456,18.284c55.26,34.851,108.151,78.39,151.246,127.3,48.253,20.271,87.137,61.757,104.246,111.219s12.167,106.091-13.239,151.839c-.322.579,5.222,14.471,5.815,16.613,3.282,11.86,5.669,24.165,7.917,36.265a505.919,505.919,0,0,1,7.376,62.67H807.188c-8.574,0-19.564,1.86-27.982,0-32.491-7.181-66.458-44.918-87.053-69.667-9.058-10.886-17.522-22.245-25.522-33.929-15.2,10.031-28.988,23.177-32.567,37.79-5.019,20.5-.708,47.418-1.36,68.958l394.531,5,553.955,7.023C1561.39,998.533,1580.366,871.3,1587.1,857.627ZM1323.671,540.681c-5.53-28.571-20.345-54.669-41.188-74.84-13.931-13.482-23.78-14.043-5.4-26.852,7.189-5.01,36.467-6.283,39.626-10.775-9.387,13.346-7.676,33.346,3.841,44.9s31.511,13.341,44.891,4q6.228,6.366,12.457,12.734a142.1,142.1,0,0,0-31.6,51.139A47.3,47.3,0,0,0,1323.671,540.681Zm70.422,164.04,1.269-4.2a41.881,41.881,0,0,1-10.046-75.207,65.759,65.759,0,0,0,42.175,23.136l19.056,23.356C1424.631,670.94,1402.845,684.609,1394.093,704.721Z"/><path class="d" d="M847.884,413.785c47.735-1.223,94.785,9.938,138.89,28.72a140.8,140.8,0,0,0,14.538-13.961c8.565-9.684,15.36-21.4,16.983-34.223s-2.611-26.8-12.72-34.862-26.245-8.534-35.474.52A105.5,105.5,0,0,0,905.639,302c-36.188-11.865-74.86-.815-104.123,22.178-27.9,21.922-44.138,52.217-57.9,84.148C774.533,421.155,812.96,414.68,847.884,413.785Z"/><path class="d" d="M643.376,843.254q-2.637-4.473-5.22-8.975A533.949,533.949,0,0,1,582.9,696.074a545.2,545.2,0,0,1-10.763-60.317c-5,1.943-9.754,3.093-13.1,2.343-.14-.031-.279-.066-.417-.1-8.141-2.206-11.282-14.395-19.029-18.972-8.641-5.106-21.813-3.64-26.277,5.349-3.334,6.712-.7,15.155,4.351,20.695s12.045,8.816,18.85,11.954c-15.933,12.493-32.122,29.836-50.58,38.147-2.214-9.012-5.218-15.376-10.78-23.508A290.234,290.234,0,0,0,521.087,560.82c9.391,3.794,26.357,8.691,36.387,4.824,11.072-4.268,9.935-13.89,9.907-26.072-.052-22.838-7.02-46.436-23.891-62.557-27.921-26.68-69.527-23.259-104.254-32.457-39.429-10.445-74.639-28.288-103.684-57.453-4.774-4.794-9.459-9.935-14-15.35q-.752,1.055-1.467,2.142c-17.352,26.506-13.7,67.315,9.392,89.432,10.968,10.5,25.435,16.02,40.3,18,4.619.615,43.247-3.092,43.557-2.636,5.36,7.856,29.049,45.456,40.757,41.71a342.021,342.021,0,0,0-69.818,29.02c-24.224-40.5-72.1-49.333-112.84-25.433-1.766-2.288-23.011-33.7-26.467-31.273,14.19-9.942,19.63-30.594,12.179-46.237s-26.914-24.432-43.576-19.68c.283-36.347,29.163-8.057,43.222-35.584,3.6-7.04,2.558-16.676-3.637-21.585s-17.156-2.66-19.635,4.845a19.057,19.057,0,0,0-17.782-12.836c-8.178,0-16.875,7.19-23.678,11.248-14.552-10.692-35.491-11.831-51.117-2.781-23.159,13.412-27.854,40.818-16.014,63.3C91.343,455.787,69.863,495.3,69.358,535.651c-23.715.064-27.1,34.3-29.533,51.568V902.834c0,16.077-1.167,32.649,0,48.685,1.291,17.749.213,18.267,17.709,20.782,68.386,9.831,144.8,0,214.054,0C268,972.3,240.86,870.239,240.016,860c2.757.141,47.921,4.7,43.9-6.157,20.323,54.868,114.931-25.765,52.589-51.932,4.567,1.917,7.269-40.938,6.87-43.88a72.539,72.539,0,0,0,50.249-29.263C382.561,744.094,447,748.442,450.75,747.506c-13.16,17.741-18.269,40.488-16.789,62.332.508,7.5,8.775,47.066,22.877,43.954a102.142,102.142,0,0,0-70.488,58.073c-11.588-21.279-47.531-43.028-61.485-10.661-10.022,23.249,18.781,51.819,41.947,41.618-6.3,2.773-6.2,28.536-8.07,34.788l84,.258c29.785.091,84.668,16.256,109.528-3.579,12.347-9.851,18.755-25.942,19.023-41.735s-5.074-31.278-12.839-45.033C556.954,884.858,609.339,858.756,643.376,843.254Zm-476.6-86.42a162.1,162.1,0,0,0-13.958-11.717,164.163,164.163,0,0,0-52.333-26.142c12.47-2.924,73.5-64.212,56.041-76.478,5.765,4.051,33.12,21.764,40.319,17.163C165.338,679.791,148.318,722.3,166.773,756.834Z"/><path class="e" d="M570.84,613.689c-2.467-22.53-4.531-45.134-7.441-67.634-3.071-23.747-6.839-49.071-22.835-66.89-20.2-22.5-54.106-27.1-82.507-30.629-45.682-5.672-88.693-27.917-121.072-60.431-32.411-32.546-60.916-80.755-67.262-126.356-10.348-74.362,25.941-153.215,89.154-193.724C448.3,10.719,569.629,54.7,629.928,134.76c38.215,50.738,43.362,111.628,55.884,171.554,6.937,33.2,13.578,70.707,41.578,92.747,23.386,18.407,54.566,12.554,82.564,16.179,40.956,5.3,85.308,4.943,124.093,18.485,42.706,14.912,84.954,27.1,125.4,48.057,54.885,28.436,106.222,78.269,146.708,124.22,48.252,20.271,87.137,61.757,104.245,111.219s12.167,106.091-13.239,151.839c-.321.58,5.222,14.471,5.815,16.613,3.283,11.86,5.669,24.165,7.917,36.265a505.921,505.921,0,0,1,7.377,62.67H808.621c-8.573,0-19.564,1.86-27.981,0-32.492-7.181-66.459-44.918-87.054-69.667-20.548-24.694-38.044-51.825-54-79.662a533.949,533.949,0,0,1-55.261-138.205C577.6,669.622,573.909,641.713,570.84,613.689Z"/></svg>