<svg xmlns="http://www.w3.org/2000/svg" viewBox="0 0 1549.641 832.226"><defs><style>.a{opacity:0.11;}.b,.h{fill-opacity:0.26;}.c{opacity:0.44;}.d{opacity:0.59;}.e{opacity:0.27;}.f,.g{fill:none;}.f,.g,.h{stroke:#000;stroke-linecap:round;stroke-linejoin:round;}.f,.h{stroke-width:14px;}.g{stroke-width:8px;}</style></defs><title>EFimage</title><g class="a"><path d="M1226.735,699.422a23.34,23.34,0,0,1,41.075,10.2l35.331-20.193c2.472-1.413,5.119-3.023,6.139-5.681,2.141-5.578-3.988-10.608-9.233-13.47,8.667-15.489,1.129-36.816-13.973-46.141s-35.267-7.76-50.759.9c-11.358,6.35-31.605,23.392-33.615,37.349C1200.757,668.93,1223.879,702.962,1226.735,699.422Z"/></g><g class="a"><path d="M800.21,656.662c9.7,6.965,22.227,8.274,34.121,9.356,16.837,1.532,36.772,1.794,47.05-11.631a65.816,65.816,0,0,0,99.071,22.1c8.869,17.085,26.132,29.26,45,33.088s39.009-.406,55.43-10.451c9.427-5.766,18.051-13.912,21.208-24.5s-.736-23.75-10.722-28.483c18.74-10.662,21.507-37.662,13.432-57.653-6.931-17.156-21.02-32.205-39.021-36.489s-39.311,4.61-45.817,21.932c-5.257-16.988-14.277-33.634-29.114-43.437S954.5,519.614,941.3,531.528a105.319,105.319,0,0,1-21.943,51.329c-7.2,9.021-17.018,17.3-28.561,17.511-10.12.181-19.137-5.819-28.451-9.782-21.988-9.355-48.383-6.632-68.578,5.879-13.486,8.354-15.212,13.287-11.594,28.421C785.049,636.915,789.8,649.184,800.21,656.662Z"/></g><path class="b" d="M598.776,653.566c2.691-10.5,15.73-15.273,26.371-13.191s19.592,8.941,28.787,14.686,20.008,10.67,30.579,8.259a62.731,62.731,0,0,0-17.138-34.627,43.273,43.273,0,0,1,32.342-2.923,29.553,29.553,0,0,1,50.472-3.646,64.7,64.7,0,0,1,26.11-3.8c3.03,9.693,6.132,19.537,11.783,27.975s14.313,15.426,24.4,16.634c8.936,1.071,17.937-2.427,26.884-1.452a27.848,27.848,0,0,1,23.583,21.379c-5.7,4.235-11.807,8.236-17.163,12.871,7.887,3.818,9.779,10.919,13.634,18.679,8.356-13.869,26.553-20.941,42.082-16.353,1.952-8.242,11.1-13.318,19.56-12.815s16.065,5.418,22.158,11.3c6.053,5.845,11.3,13.725,10.217,22.07l22.287.808c1.853.067,3.9.214,5.2,1.53,2.547,2.563.26,6.876-2.254,9.472a63.521,63.521,0,0,1-22.757,15.046c3.076.988,6.229,2.016,8.748,4.039s4.306,5.29,3.656,8.455c-.8,3.9-4.763,6.2-8.4,7.8-7.83,3.446-16.277,6.02-24.816,5.507s-17.2-4.541-21.642-11.854c-6.078-10.014-2.974-22.849.481-34.042-7.588,4.966-17.616,4.882-26.2,1.963s-16.06-8.341-23.387-13.685l-16.3,20.213a70.987,70.987,0,0,1,34.02,9.488c3.534,2.046,7.284,5.148,7.049,9.224-.249,4.306-4.755,6.947-8.8,8.444A77.148,77.148,0,0,1,849.6,765.7c-8.126-.426-17.4-3.1-20.53-10.607-2.258-5.419-.434-11.85,3.116-16.526s8.587-7.956,13.518-11.141a49.467,49.467,0,0,1-25.44-8.537c-7.993-5.448-9.625-13.078-12.153-22.054-11.976,5.214-26.846,4.451-38.755-.61-4.673-1.986-9.433-4.727-14.465-4.051-5.523.742-9.642,5.376-14.75,7.6-5.258,2.292-11.375,1.9-16.827.115s-10.376-4.851-15.241-7.89A68.526,68.526,0,0,1,685,702.839a50.988,50.988,0,0,1,27.477,16.073,48.81,48.81,0,0,1-36.06,19.479c-11.163.662-27.054-7.262-27.364-19.966-2.554,1.381-31.626,12.712-31.362,13.212,3.109,5.881.3,13.605-4.948,17.692s-12.257,5.176-18.908,5.023c-6.973-.16-14.6-1.951-18.684-7.606s-1.646-15.7,5.279-16.525c.808-5.92-4.267-11.386-10.011-13.03s-11.886-.391-17.665,1.128-11.664,3.316-17.61,2.728c-7.3-.722-17.438-7.332-18-15.11-.654-9.038,7.346-19.478,14.335-24.209-8.236-2.04-16.6-4.128-23.949-8.363-7.274-4.191-3.315-12.224,2.327-16.126,4.376-3.027,9.76-4.126,14.98-5.158,15.769-3.115,31.024-5.513,47.046-7.227,4.993-.533,10.808-1.261,15.62.619C591.659,647.1,595,651.059,598.776,653.566Z"/><g class="c"><path d="M965.73,105.713c-4.634,17.808-15.569,47.376-20.2,65.184a171.954,171.954,0,0,0-40.386-28.477c3.886-8.155,15.831-22.453,29.44-48.61C950.156,99.761,965.5,106.585,965.73,105.713Z"/></g><g class="a"><path d="M725.739,288.83c5.448-.2,10.637-.271,11.512-.448,25.278-5.1,48.026-22.976,59.889-46.277,13.988-27.477,19.094-48.383,42.062-70.41,17.019-16.322,39.639-28.254,63.2-27.258s47.117,17.527,51.223,40.749c3.732,21.106-1.427,34.93-12.892,53.04C899.774,250.1,860.3,270.412,831.873,302.2s-44.558,76.086-36.429,117.949c.262,1.351-26.831,22.4-29.748,25.806-9.8,11.434-14.582,23.333-16.077,38.089-11.733.575-28.19-1.559-33.708-13.836-6.546-14.566-1.93-38.988-1.59-54.493.917-41.907-5.944-83.028-2.313-125.227C712.094,289.489,719.108,289.07,725.739,288.83Z"/></g><g class="d"><path d="M103.139,530.529c-.023-30.611,19.578-60.351,47.718-72.4-.454.194.3-22.64.748-24.84a74.71,74.71,0,0,1,9.473-23.99c8.507-13.859,24.733-23.5,40.4-26.843a67.166,67.166,0,0,1,42.867,5.166c-2.124-1.026,2.977-15.554,3.717-17.3a48,48,0,0,1,10.4-15.356c9.6-9.484,22.168-15.11,35.416-17.488a80.706,80.706,0,0,1,65.689,17.8,72.894,72.894,0,0,1,61.549,90.026c13.959,2.708,29.5,6.464,36.989,18.554,7.8,12.6,3.582,28.764,1.134,43.385-5,29.852-.408,60.928,16.264,86.642-100.2-10.35-202.876-20.542-300.53,4.187-8.3,2.1-16.771,4.472-25.287,3.591-8.6-.89-13.292-5.143-18.625-11.27-4.409-5.067-9.429-9.342-13.356-14.963A79.236,79.236,0,0,1,103.139,530.529Z"/></g><g class="c"><path d="M203.667,737.622c-34.147-2.722-68.835-9.608-102.984-10.688C77.739,726.208,56.4,714.9,56.257,688.679c-.2-37.068,40.571-61.587,70.194-75.1,33.2-15.149,69.576-22.3,105.623-26.6a828.972,828.972,0,0,1,162.4-3.294c24.791,1.927,49.848,4.479,74.116,9.667,23.056,4.93,44.562,15.694,67.957,19.235a91.226,91.226,0,0,0,18.076,1.04c21.092-1.026,40.386-10.507,59.647-18.23,10.124-4.06,20.352-7.663,31.082-9.749,10.888-2.117,17.779-7.548,29.922-4.615,5.5,1.327,11.162,4.345,13.089,9.659,1.845,5.086-.4,10.995-4.352,14.691s-9.3,5.526-14.6,6.612c-6.049,1.239-25.345,4.482-13.92,15.528,1.85,1.788,4.389,2.617,6.753,3.633a39.419,39.419,0,0,1,18.413,16.392c1.309,2.281,5.535,17.4,7.629,17.447a62.5,62.5,0,0,0-30.86-1.132c1.354-.294-12.956-15.682-14.63-17.082-6.605-5.523-14.956-8.534-23.475-5.53-6.643,2.343-12.363,7.833-19.406,7.859-4.986.018-9.483-2.747-14.119-4.579-18.283-7.226-43.01,3.121-60.764,9.1-22.35,7.523-43.891,17.224-65.2,27.271-42.785,20.174-85.376,42.508-131.881,52.873q-4.824,1.076-9.684,1.969C280.58,742.642,241.866,740.668,203.667,737.622Z"/></g><g class="c"><path d="M1087.867,567.339c5.557,7.6,8.961,16.532,11.971,25.451q6.1,18.06,10.391,36.661l12.471,3.091c.9-9.721,10.051-17.95,19.813-17.809s18.674,8.632,19.289,18.374a19.635,19.635,0,0,1,35.155,14.705l10.2,2.924a68.514,68.514,0,0,1,16.869-19.927c-5.5,3.948-14.019-1.972-13.9-8.746s6.389-12.184,13.018-13.584c9.7-2.049,24.213.517,25.3,12.536a42.728,42.728,0,0,1,41.946,7.537c11.386,9.826,16.409,25.569,13.648,40.225,7.745,4.836,16.159-3.68,21.161-8.46a156.4,156.4,0,0,1,73.41-39.381c7.578-1.7,15.578-2.947,21.86-7.512s10.032-13.8,5.757-20.284c-17.77,3.705-36.324-3.369-50.892-14.2s-26.044-25.185-38.3-38.571-25.939-26.25-42.9-32.718c-15.121-5.766-31.729-6.019-47.9-5.531-57.429,1.732-115.683,12.245-167.217,38.541C1059.1,550.812,1079.678,556.143,1087.867,567.339Z"/></g><g class="d"><path d="M1020.229,563.968a77.218,77.218,0,0,1,56.968-9.216c2.852-16.937,20.988-26.2,37.172-31.946,44.255-15.72,91.694-25.07,138.28-19.127s92.306,28.587,119.373,66.966c10.178-3.313,20.525-6.71,29.285-12.861s15.855-15.58,16.566-26.26-6.53-22.09-17.113-23.692a37.014,37.014,0,0,0-16.379-58.883c11.413-7.814,23.182-16,30.271-27.875s8.118-28.567-1.4-38.6c-8.825-9.305-23.36-10.065-36.057-8.263-9.21,1.308-17.008,2-25.747,5.691-2.8,1.183-25.082,11.017-24.475,14.066-1.954-9.809-3.965-19.778-8.656-28.612s-12.534-16.53-22.32-18.6c3.3-9.278,6.094-18.833,6.793-28.655s-.812-20-5.675-28.558-13.347-15.318-23.084-16.786c-18.674-2.815-35.03,13.52-42.585,28.519a209.8,209.8,0,0,0-22.084,103.61l-12.908,7.692a27.041,27.041,0,0,0-17.755-2.958c12.3-25.4,23.493-52.987,20.135-81.009-1.5-12.547-9.95-27.337-22.425-25.319-6.286,1.017-11.013,6.157-14.844,11.244-10.54,15.809-19.086,31.616-23.636,50.247-4.265,17.46-1.944,34.7-2.984,52.559-2.881-7.164-10.31-11.981-18-12.679s-15.439,2.362-21.323,7.362-10.031,11.8-12.859,18.985c-.515-20.607-11.835-61.911-40.062-56.5-18.99,3.64-25.246,32.281-27.846,48.449a112.455,112.455,0,0,0-1.3,23.678c.236,4.528-1.866,14.7,1.117,18.311-7.222-8.745-12.422-19-19.51-27.853s-16.88-16.558-28.207-17.14c-10.944-.562-21.333,5.758-28.381,14.15s-11.328,18.7-15.5,28.835c-1,2.417,2.168,6.01,3.335,7.82a54.243,54.243,0,0,1,5.333,10.291c3.685,9.614,4.909,19.762,7.6,29.571,2.052,7.47,5.33,17.944,2.392,25.538,7.207-18.626,27.471-15.636,42.2-9.859C1000.673,532.86,1014.986,546.533,1020.229,563.968Z"/></g><g class="c"><path d="M782.992,603.476c7.606-16.141,15.3-32.544,18.176-50.153s.366-36.9-10.752-50.852a48.99,48.99,0,0,0-42.392-17.888c3.846-19.958,16.363-37.768,32.864-49.636s36.733-18.015,57.025-19.173c24.375-1.392,50.059,4.8,68.027,21.327,12.96,11.922,21.014,28.241,27.039,44.788,6.835,18.771,11.451,39.184,7.1,58.68-6.566,29.4-31.64,50.459-55.219,69.211,3.459-2.751-15.481-19.032-17.629-20.331-7.547-4.563-17.489-7.887-26.393-6.819C821.909,584.9,799.266,593.871,782.992,603.476Z"/></g><g class="e"><path d="M788.576,500.115c23.043,26.5,9.815,67.509-4.356,94.507-4.911,9.358-10.993,18.287-15.267,27.868a74.763,74.763,0,0,0-22.767,1.54c1.073-.241-7.386-8.534-8.341-9.089a19.227,19.227,0,0,0-12.922-2.606A24.868,24.868,0,0,0,705.008,629.1a38.431,38.431,0,0,0-41.67,5.453c-5.893,4.152-13.313-5.668-10.2-12.17s10.881-9.009,17.765-11.148c7.627-2.369,21.328-9.335,17.2-19.932-3.608-9.267-21.1-10.953-29.263-10.355-11.087.813-21.606,5.011-31.919,9.16-6.32,2.542-73.634,26.172-70.769,33.088-14.9-9.258-29.612-14.647-45.989-20.911-11.145-4.263-23.359-7.519-34.919-4.565-7.832-18.752-16.405-36.731-19.622-56.892-.021-.136-.043-.273-.065-.41-3.777-23.988-3.312-49.463,13.175-69.047a66.558,66.558,0,0,1,32.774-20.863c10.861-3.059,21.7-2.737,32.685-1.8,13.295,1.138,26.67-2.5,39.544-5.28,18.818-4.07,35.074-5.211,52.133,4.073,14.1,7.674,26.429,18.843,30.145,35.1,8.374-11.872,25.223-14.572,39.471-11.733,9.515,1.9,18.428,5.749,27.439,9.218,8.331,3.207,14.5,3.04,23.242,3.688C761.392,484.909,778.048,488.006,788.576,500.115Z"/></g><path class="f" d="M494.418,450.973V412.226c0-74.88-2.225-108.337-2.225-169.238,0-45.02,46.942-68.4,54.093-84.83s10.1-35.944,2.146-52"/><path class="f" d="M666.173,101.935c-5.238,21.91-1.232,41.747,6.936,62.214,6.639,16.635,41.784,48.733,41.784,83.507,0,61.793-1.683,163-1,224.613"/><path class="f" d="M564.675,108.3a188.708,188.708,0,0,0,97.23-7.09c4.758-1.625,10.2-4.416,10.647-9.424.522-5.885-6.129-9.568-11.784-11.282-22.309-6.764-46.435-6.847-69.291-3.058-8.027,1.331-58.036,9-44.709,24.017,3.285,3.7,8.476,4.912,13.319,5.928Q562.382,107.876,564.675,108.3Z"/><path class="f" d="M585.427,421.077c-7.528-77.9-8.041-136.47-1.53-214.459"/><path class="f" d="M714.893,290.213c10.523,1.835,42.183-5.245,50.724-11.66s15.007-15.181,20.764-24.18c14.382-22.478,18.342-40.637,33.56-62.559s36.214-41.567,62.3-47.2,57.174,6.95,65.546,32.289c7.3,22.1,3.168,39.128-7.48,59.825"/><path class="f" d="M794.362,421.135c-9.852-31.756,3.263-66.369,22.126-93.75,28.194-40.928,70.533-72.773,118.827-84.511,95.954-23.321,179.886,39.54,204.909,131.146"/><path class="f" d="M904.473,141.063C915,131.322,929.8,107.333,934.582,93.81l31.148,11.9c-7.463-2.852-23.071,52.812-22.969,58.458"/><path class="f" d="M479.705,598.828a129.755,129.755,0,0,1-24.543-94.072c2.271-16.907,8.649-34.323,22.3-44.55,23.185-17.369,56.032-7.669,84.61-12.408,13.313-2.207,26.228-7.717,39.712-7.2,19.853.76,37.561,15.188,45.811,33.262s8.111,39.082,3.5,58.406-13.419,37.35-22.155,55.193"/><path class="f" d="M525.216,467.16a54.166,54.166,0,0,0,51.968-3.317"/><path class="f" d="M653.414,486.077c9.091-16.9,31.091-22.9,48.091-15.9,13,6,25,13,39,15a226.021,226.021,0,0,1,26,1c10,2,20,7,25,16,19,33,5,70-12,101l-3,3c-2,5-6,8-9.016,12.906"/><path class="f" d="M748.755,483.849c1.358-21.308,18.886-42.891,36.347-54.137,15.061-9.7,32.917-14.42,50.767-15.943,17.819-1.521,36.612.251,51.863,9.594,31.532,19.32,49.49,56.3,52.033,92.435,1.213,17.241.877,38.25-8.392,53.139-11.048,17.747-29.276,30.148-46.981,40.518"/><path class="g" d="M539.288,396.489A103.313,103.313,0,0,1,551.722,465.8"/><path class="g" d="M720.473,501.779a113.048,113.048,0,0,1,24.341-61.828"/><path class="g" d="M846.851,441.242a26.062,26.062,0,0,1,15.965,26.48,30.208,30.208,0,0,1,27.79,20.077"/><path class="g" d="M845.59,460.052c12.994.514,24.354,12.792,23.859,25.787"/><path class="g" d="M869.643,442.923a25.719,25.719,0,0,1-6.748,23.762,31.369,31.369,0,0,1,30,3.966"/><path class="f" d="M692.681,494.227a58.237,58.237,0,0,0,47.112,7.437"/><path class="f" d="M143.718,597.829c-25.532-12.069-42.847-39.767-42.513-68.006s18.3-55.52,44.11-66.981a70.813,70.813,0,0,1,92.755-77.569,76.215,76.215,0,0,1,120.554-24.181c40-5.139,69.84,43.583,58.234,78.739a72.9,72.9,0,0,1,48.31,30.275"/><path class="f" d="M445.707,593.894a40.991,40.991,0,0,0,17.642-20.312"/><path class="f" d="M927.766,469.514c0-13.344,10.792-40.942,27.346-50.086,6.927-3.826,15.839-.792,22.855,2.869,12.3,6.419,21.623,17.6,27.929,29.951a188.727,188.727,0,0,1,15.342,41.979"/><path class="f" d="M1041.2,556.69c-19.152-43.158-32.039-101.93-21.842-148.033,2.853-12.9,8.527-27.325,21.123-31.305,10.691-3.378,22.565,2.654,29.355,11.576s12.65,28.714,15.151,39.644"/><path class="f" d="M1063.519,552.707c-2.852-19.365-1.477-56.945,2.684-76.065a157.484,157.484,0,0,1,22.567-54.029c4.912-7.32,11.392-14.72,19.858-17.9,8.4-3.151,17.173-.53,23.035,6.108,13.079,14.809,6.982,38.99,2,55.96a162.137,162.137,0,0,1-25.123,50.552q-2.085,2.825-4.293,5.556"/><path class="f" d="M1063.519,552.707c20.925-20.791,47.553-29.32,76.055-36.922s58.064-10.188,87.451-12.744c23.393-2.035,47.831-3.923,69.56,4.977,24.979,10.233,42.179,32.89,60.918,52.32s43.531,37.427,70.264,33.681c2.915,7.877-2.009,16.864-8.954,21.589s-15.471,6.31-23.622,8.34a189.369,189.369,0,0,0-81.826,43.97"/><path class="f" d="M1136.97,409.042a177.636,177.636,0,0,1,15.443-81.186c3.238-7.178,7.109-14.331,13.167-19.361s14.762-7.541,22.008-4.459c5.772,2.455,9.761,8.066,11.576,14.071s1.717,12.412,1.235,18.666a160.384,160.384,0,0,1-24.9,74.087"/><path class="f" d="M1139.637,445.139a44.206,44.206,0,0,1,60.3-29.589"/><path class="f" d="M1167.5,503.146c15.722-29.506,23.326-62.716,38.164-92.676s40.064-58.131,73.208-62.531c16.428-2.181,35.088,3,43.757,17.126,6.2,10.1,6.231,23.091,2.486,34.332s-10.876,21.022-18.454,30.129a290.676,290.676,0,0,1-88.445,71.414"/><path class="f" d="M1251.6,497.806a261.952,261.952,0,0,1,104.628-44.991c15.97-3.007,34.867-3.588,45.823,8.413,9.345,10.235,9,26.974,1.485,38.62s-20.767,18.617-34.321,21.508-27.585,2.18-41.426,1.454"/><path class="f" d="M1209.911,392.237a332.675,332.675,0,0,1,16.609-75.177c3.539-10.216,7.676-20.431,14.459-28.85s16.611-14.924,27.408-15.5c15.768-.847,30.327,11.783,34.487,27.016s-.746,31.933-10.112,44.645"/><path class="f" d="M1317.4,414.97a93.642,93.642,0,0,1,62.751-41.353c14.553-2.405,31.737-.155,40.154,11.958,8.128,11.7,4.6,28.5-4.338,39.589s-22.089,17.779-34.829,24.148"/><path class="f" d="M1395.306,508.56c9.978-1.209,20.01,5.616,23.683,14.972s1.426,20.458-4.607,28.5c-11.134,14.838-30.814,17.766-48.1,15.088"/><path class="g" d="M879.4,290.213c-3.328,3.114-7.5,5.13-11.4,7.5s-7.7,5.317-9.557,9.479-1.113,9.776,2.707,12.263c5.114,3.331,11.748-.419,16.644-4.063,7.871-5.858,16.54-13.259,16.333-23.068"/><path class="g" d="M889.437,423.02a150.134,150.134,0,0,1-19.922-71.852"/><path class="g" d="M925.53,328.075l85.475,80.084"/><path class="g" d="M949.3,276.987c55.087-5.437,112.145,22.765,141.282,69.831"/><path class="g" d="M1106.242,369.992l15.486,33.212"/><path class="g" d="M812.114,414.04a128.44,128.44,0,0,1,13.7-62.778"/><path class="f" d="M150.311,561.333c-11.254-23.767-16.593-51.484-8.672-76.56S173,438.642,199.3,439.012"/><path class="f" d="M220.525,409.742a45.808,45.808,0,0,1,62.861-18.709"/><path class="f" d="M356.372,403.938c20.486-3.6,42.695,6.32,53.679,23.984s10.062,41.97-2.229,58.751c18.666,10.72,25.793,37.552,14.908,56.123"/><path class="f" d="M200.974,569.911a90.952,90.952,0,0,1,67.814,13.949"/><path class="f" d="M197.215,523.176a149.021,149.021,0,0,1,96.536,58.549"/><path class="f" d="M222,485.483a270.668,270.668,0,0,1,86.265,95.991"/><path class="f" d="M306.035,501.759a195.277,195.277,0,0,0,25.889,54.058,142.873,142.873,0,0,1,22.117-51.5"/><path class="f" d="M369.96,522.926a60.52,60.52,0,0,0-4.561,58.848"/><path class="f" d="M241.914,456.857a38.907,38.907,0,0,1,68.906,2.072"/><path class="f" d="M324.573,338.96c40.953-43.235,109.653-57.377,164.353-33.832"/><path class="g" d="M559.411,253.754A254.252,254.252,0,0,1,520.78,243a287.77,287.77,0,0,1,62.155-15.846c32.57-4.971,66.57-2.971,99.916,4.789"/><path class="g" d="M695.465,244.078a257.445,257.445,0,0,1-70.5,14.083q-10.333.6-20.7.389"/><path class="g" d="M570.276,157.568a92.653,92.653,0,0,0,65.871-1.727"/><path class="f" d="M1030.552,710.9c24.532,3.282,50.454-9.38,62.946-30.745,6.271,1.916,13.664-3.09,14.213-9.624s-5.9-12.7-12.406-11.861c2.622-17.659-7.564-36.017-23.16-44.7s-35.5-8.1-51.475-.122-28.045,22.7-34.6,39.31a8.135,8.135,0,0,0-10.131,1.889c-6.1,7.66,11.3,30.033,16.754,35.886A64.119,64.119,0,0,0,1030.552,710.9Z"/><path class="f" d="M812.034,671.8a31.892,31.892,0,0,1,53.685,13.6l-20.052,6.232"/><path class="f" d="M900.886,694.789a31.309,31.309,0,0,1,52.821,16.449"/><path class="f" d="M813.627,665.05c-7.361-.089-14.145-4.483-18.811-10.177s-7.542-12.611-10.269-19.448c-3.252-8.154-6.416-17.2-3.585-25.5,3.17-9.307,12.795-14.626,21.885-18.372,13.737-5.662,28.545-9.8,43.328-8.318s29.552,9.469,36.032,22.839c3.043,6.278,4.27,13.586,8.843,18.854,4.188,4.823,11.38,8.771,10.539,15.1-.537,4.04-4.308,6.738-7.743,8.931l-31.28,19.973"/><path class="f" d="M947.639,599.541c-.455-6.348,2.868-12.516,7.5-16.876s10.482-7.183,16.312-9.736c7.875-3.448,16.235-6.584,24.814-6.028,9.617.623,18.561,5.993,24.719,13.405s9.727,16.711,11.518,26.181"/><path class="f" d="M940.673,530.828A49.124,49.124,0,0,1,992.4,527.14c16.03,8.751,30.2,30.227,28.9,48.445,7.758-15.135,25.294-24.64,42.21-22.878s32.117,14.678,36.589,31.087c2.288,8.4,2.125,17.786,7.116,24.915,2.336,3.337,5.9,6.676,5.1,10.671-.837,4.184-5.786,5.819-9.852,7.111s-8.785,4.342-7.922,8.52"/><path class="f" d="M897.116,624.285a53.013,53.013,0,0,1,93.473,11.073"/><path class="f" d="M882.5,660.429a49.555,49.555,0,0,0,34.87,26.169"/><path class="f" d="M945.357,691.5a55.665,55.665,0,0,0,32.981-15.033"/><path class="f" d="M1268.36,710.576c7.074-2.832,9.917-8.815,15.666-12.542,5.351-3.469,11.394-1.571,17.813-4.724,4.85-2.382,8.592-7.618,7.878-12.975s-6.979-9.633-11.848-7.285c10.737-15.039,4.043-38.155-11.394-48.311s-36.488-8.735-52.827-.105c-11.222,5.928-20.922,15.226-25.885,26.906-2.61,6.143-7.058,9.045-6.807,15.715a22.971,22.971,0,0,0,8.947,17.189"/><path class="f" d="M852.716,703.47c4.148,4.44,6.9,11.173,4.143,16.586-3.036,5.959-11.081,7.307-17.669,6.151a38.543,38.543,0,0,1-24.006-14.8,14.1,14.1,0,0,1-3.153-7.112C810.675,686.416,846.268,696.57,852.716,703.47Z"/><path class="f" d="M805.369,699.985c6.444-1.93,13.277-6.069,14.2-12.732.62-4.491-1.805-9.035-5.384-11.819s-8.142-4.024-12.653-4.478a43.151,43.151,0,0,0-28.307,7.181c-3.106,2.113-6.021,4.757-7.482,8.218C757.642,705.539,796.338,702.689,805.369,699.985Z"/><path class="f" d="M912.823,707.1c5.447,5.859,8.189,15.855,2.567,21.546-3.833,3.88-9.971,4.173-15.385,3.515a63.635,63.635,0,0,1-21.4-6.581C847.093,709.353,892.68,685.436,912.823,707.1Z"/><path class="f" d="M941.668,721.191c11.849-11.165,33.07-6.814,43.749,3.556,3.883,3.77-27.048,15.507-31.11,15.314C944.7,739.605,931.205,731.055,941.668,721.191Z"/><path class="f" d="M1137.037,636.334c-2.627,2.123-6.964,1-8.794-1.836s-1.394-6.737.438-9.575a16.64,16.64,0,0,1,7.963-6c5.059-2.041,10.973-2.574,15.895-.225s8.4,8.041,7.122,13.344-8.107,8.793-12.723,5.886"/><path class="f" d="M1159.847,713.389c-3.546,1.186-7.2,2.334-10.937,2.182s-7.624-1.856-9.41-5.141-1.076-7.545,1.043-10.638,5.424-5.184,8.853-6.7c5-2.213,10.643-3.385,15.976-2.179s10.239,5.122,11.6,10.418-1.632,11.64-6.9,13.091"/><path class="f" d="M1253.321,775.755c-3.057,1.064-6.213,2.144-9.445,1.958s-6.6-1.953-7.667-5.01c-.944-2.7.12-5.78,2-7.931a21.771,21.771,0,0,1,7.034-4.8c4.761-2.34,9.777-4.42,15.069-4.793s10.95,1.2,14.46,5.178,4.165,10.576.64,14.54-11.141,3.482-13.368-1.333"/><path class="f" d="M1191.942,756.722c-2.141,4.413-8.778,5.323-12.622,2.277s-4.789-8.828-3.032-13.407,5.739-8.015,10.134-10.192c5.59-2.768,12.339-3.721,18.1-1.325s10.062,8.622,9.094,14.785-8.086,10.929-13.843,8.527"/><path class="f" d="M1324.386,752.082c-6.038,1.574-13.71,2.619-17.391-2.419-2.2-3.016-1.936-7.361-.049-10.584s5.125-5.453,8.535-6.976c5.833-2.6,12.716-3.363,18.616-.913s10.447,8.507,10.052,14.883-6.557,12.138-12.868,11.148"/><path class="f" d="M1352.342,711.24a12.246,12.246,0,0,1-13.035-2.133c-10.954-10.16,2.332-19.193,12.217-19.827,5.566-.357,11.369-.328,16.43,2.017s9.164,7.578,8.55,13.122-7.361,9.959-12.156,7.11"/><path class="f" d="M1434.5,722.333c-7.254,1.947-14.761-5.912-13.476-13.313s9.607-12.332,17.011-11.066,13.288,7.659,15.29,14.9c1.5,5.434.91,11.755-2.834,15.97s-11.028,5.3-15.066,1.361"/><path class="f" d="M1450.873,657.293c-3.562,2.844-7.322,5.782-11.8,6.609s-9.858-1.256-11.114-5.638c-1.063-3.705,1.091-7.594,3.765-10.37a27.447,27.447,0,0,1,26.011-7.4c4.383,1.117,8.591,3.466,11.175,7.178s3.264,8.9,1.007,12.817-7.694,5.915-11.665,3.75"/><path class="f" d="M1426.753,602.972c4.227-3.06,9.148-5.365,14.355-5.716s10.706,1.467,14.057,5.468,4.052,10.272,1,14.5-9.928,5.341-13.717,1.752c-5.27,6.532-16.578,6.756-22.1.436"/><path class="f" d="M1387.236,578.621c3.891-2.745,8.358-4.972,13.118-5.117s9.815,2.2,11.78,6.543-.3,10.4-4.936,11.479"/><path class="f" d="M1417.491,705.422c-3.9,3.365-10.645,1.545-13.193-2.929s-1.318-10.432,2.006-14.365,8.343-6.084,13.394-7.085c4.635-.92,9.785-.88,13.677,1.8s5.679,8.677,2.659,12.312"/><path class="f" d="M1356.382,681.939c4.676-5.911,11.538-10.536,19.072-10.76s15.386,4.953,16.577,12.395-6.327,15.378-13.567,13.279"/><path class="f" d="M1413.075,682.294c-8.273-1.4-14.128-10.931-11.632-18.941s12.731-12.53,20.332-8.98"/><path class="f" d="M1431.177,680.252a15.968,15.968,0,0,0,14.241-13.807"/><path class="f" d="M1354.275,676.089c-4.853,2.071-10.686-2.564-11.039-7.828s3.463-10.107,8.144-12.543,10.1-2.945,15.359-3.32c3.8-.27,7.691-.486,11.366.527s7.159,3.484,8.4,7.09-.492,8.253-4.135,9.379"/><path class="f" d="M1240.555,756.408c-4.7.3-8.812-4.18-9.109-8.882s2.51-9.193,6.281-12.018,8.4-4.238,12.983-5.32c5.183-1.224,10.6-2.091,15.813-1s10.217,4.487,11.918,9.533-.949,11.523-6.1,12.864"/><path class="f" d="M1316.018,728.9c-3.579,2.793-9.468-.223-10.4-4.665s1.981-8.987,5.862-11.34,8.538-2.98,13.052-3.458c5.042-.535,10.208-.94,15.125.3s9.612,4.411,11.411,9.151-.207,10.966-4.946,12.767"/><path class="f" d="M1211.039,730.707c6.195,1.217,12.6-3.707,13.972-9.87S1223.3,708.05,1218.3,704.2s-11.6-5.188-17.9-4.779a37.171,37.171,0,0,0-22.7,9.787c-3.893,3.622-3.291,9.686-1.052,14.508a12.928,12.928,0,0,0,13.067,7.166"/><path class="f" d="M1133.109,696.7c-4.646,2.014-10.311-2.187-10.935-7.212s2.672-9.9,6.963-12.589,9.427-3.616,14.436-4.36c4.662-.692,9.436-1.27,14.062-.37s9.149,3.516,11.223,7.748.956,10.1-3.131,12.448"/><path class="f" d="M1165.485,633.048a18.729,18.729,0,0,1,33.081,10.353"/><path class="f" d="M1216.69,631.714c-4.245-.475-7.311-4.872-7.3-9.143s2.486-8.218,5.646-11.091c9.781-8.9,26.865-7.894,35.539,2.084"/><path class="g" d="M995.16,670.5c23.142,16.25,55.21,18.783,80.617,6.368"/><path class="g" d="M913.423,653.442a75.834,75.834,0,0,0,55.886,5.069"/><path class="g" d="M784.1,607.881a59.321,59.321,0,0,0,77.838,26.333"/><path class="g" d="M961.069,457.087a451.386,451.386,0,0,1,42.822,73.336"/><path class="g" d="M1041.038,421.038a200.963,200.963,0,0,1,18.432,88.738"/><path class="g" d="M1103.359,442.948A176.233,176.233,0,0,1,1078.6,533.48"/><path class="g" d="M1129.078,516a95.288,95.288,0,0,0,36.63-66.079"/><path class="g" d="M1173.028,501.065c21.12-15.9,33.831-40.2,47.805-62.642s31.481-44.966,56.634-53.1"/><path class="g" d="M1154.8,416.988a164.707,164.707,0,0,0,16.461-78.808"/><path class="g" d="M1228.921,373.171a110.5,110.5,0,0,1,48.485-69.123"/><path class="g" d="M1239.675,497.865c45.558-31.827,94.928-59.161,142.36-88.273"/><path class="g" d="M1293.732,499.9a700.2,700.2,0,0,1,85.446-11.8"/><path class="g" d="M1345.113,542.425a49.208,49.208,0,0,0,47.093-6.791"/><path class="g" d="M1257.6,297.3a136.035,136.035,0,0,0-8.071,29.405,62.79,62.79,0,0,1,28.984-.31"/><path class="g" d="M1258.139,370.749a101.3,101.3,0,0,0-19.228,38.84,77.509,77.509,0,0,1,46.652-3.674"/><path class="g" d="M1217.772,412.051a299.887,299.887,0,0,0-13.5,49.017,74.489,74.489,0,0,1,49.372-14.552"/><path class="g" d="M1368.109,397.9l-17.487,25.827,38.636,1.164"/><path class="g" d="M1329.579,419.055,1320.8,446.29l33.586-3.077"/><path class="g" d="M1368.337,471.88a68.033,68.033,0,0,0-18.934,19.064,67.279,67.279,0,0,1,28.83,14.946"/><path class="g" d="M1326.451,476.886a85.509,85.509,0,0,0-16.82,19.624l34.785,14.221"/><path class="g" d="M1085.154,457.853l13.685,33.241,20.4-29.977"/><path class="g" d="M1029.618,448l25.691,12.611,8.874-33.365-.122,2.74"/><path class="g" d="M1032.181,491.754a126.823,126.823,0,0,1,27.792,21.126"/><path class="g" d="M954.322,481.857a101.647,101.647,0,0,1,26.916,8.6,102.163,102.163,0,0,1,7.054-31.522"/><path class="g" d="M1000.392,523.789l6.053-33.907"/><path class="g" d="M1192.8,485.077a208.146,208.146,0,0,1,30.851-3.283"/><path class="g" d="M1152.88,455.2l5.586,18.689,19.3-9.05"/><path class="g" d="M1131.9,483.852a49.893,49.893,0,0,1,7.981,21.948"/><path class="g" d="M1159.7,349.7l9.158,17,11.923-12.544"/><path class="g" d="M1150.085,378.956a53.8,53.8,0,0,1,8.294,24.969,168.642,168.642,0,0,1,32.38-30.809"/><path class="g" d="M1382.09,519.655a71.408,71.408,0,0,1-23.142,25.922c9.918.619,17.93,6.508,24.547,13.921"/><path class="g" d="M838.037,323.341c-5.85,2.65-6.339,11.593-2.165,16.474s11.109,6.376,17.531,6.424a54.761,54.761,0,0,0,41.9-19.471"/><path class="g" d="M908.967,313.111c5.044-7.552,9.025-16.538,7.55-25.5s-10.285-17.074-19.115-14.951"/><path class="f" d="M573.219,625.625a745.284,745.284,0,0,0-346.254-37.5c-31.9,4.14-63.81,10.441-93.373,23.122s-56.835,32.138-74.928,58.735c-3.313,4.87-3.112,4.1-3.208,9.99a17.519,17.519,0,0,0,8.072,14.849"/><path class="f" d="M356.386,728.608c14.119-3.429,26.119-8.429,39.119-13.429,57-23,107-60,166.875-72.014"/><path class="f" d="M71.685,679.729a28.01,28.01,0,0,1,28.284-2.984c-8.364,14.943-36.824,10.685-40.129,29.57-.335,5.864,2.665,11.864,7.665,15.864s12,5,18,6c41,8,79,13,119,15,38,1,76,1,112.771-5.909"/><path class="f" d="M120.355,622.4c-1.307,2.628-.174,5.975,1.986,7.963s5.111,2.865,8,3.38a43.293,43.293,0,0,0,38.925-13.294c4.628-5.105,7.872-13.285,3.479-18.594"/><path class="g" d="M178.379,678.444A118.2,118.2,0,0,0,238.8,647.767c3.405-3.253,6.79-7.081,7.239-11.769.551-5.753-3.682-11.106-8.847-13.7s-11.111-3.012-16.878-3.386"/><path class="f" d="M294.493,617.5c20.2-6.893,40.584-13.827,61.769-16.464,6.232-.775,12.629-1.166,18.735.3s11.951,5.03,14.942,10.553c5.622,10.384-.967,23.985-11.051,30.129s-22.461,6.792-34.26,7.272l-38.87,1.58"/><path class="f" d="M432.484,631.37c8.251-6.258,19.444-6.466,29.8-6.409,4.735.026,9.644.09,13.925,2.113s7.747,6.6,6.908,11.255c-.692,3.847-4.123,6.739-7.842,7.943s-7.724,1.034-11.629.852l-32.066-1.5"/><path class="h" d="M324.252,734.135c17.939-12.346,39.8-4.076,54.359,9.883,3.341,3.2-22.411,13.685-24.834,13.981-10.088,1.233-22.678-2.8-31.584-7.439-2.886-1.5-5.239-4.515-4.949-7.755.264-2.958,2.563-5.3,4.9-7.127Q323.194,734.863,324.252,734.135Z"/><path class="h" d="M478.163,763.581c-7.811,4.954-15.169,6.483-25.312,4.813-2.032-.335-22.431-4.329-20.584-6.9,12.425-17.328,31.025-26.076,50.971-13.144,2.08,1.349,4.207,3.291,4.154,5.77-.047,2.233-1.85,3.994-3.593,5.391A62.994,62.994,0,0,1,478.163,763.581Z"/><path class="h" d="M432.7,701.444a53.46,53.46,0,0,0,44.444-1.094A19.145,19.145,0,0,0,460.5,687.533"/><path class="h" d="M533.756,739.978a30.013,30.013,0,0,0-9.322-24.076c-10.147-9.44-43.971-12.421-32.842,10.029C498.155,739.17,520.9,745.7,533.756,739.978Z"/><path class="h" d="M614.265,790.75a40.048,40.048,0,0,0,31.152-12.468,38.768,38.768,0,0,0-28.969-16.263c-6.719-.413-29.381,3.393-30.329,12.7C585.169,784.051,607.573,790.359,614.265,790.75Z"/><path class="h" d="M740.4,767.179a30.585,30.585,0,0,0-25.678-19.353c-12.6-.982-31.373,8.671-16.83,20.9C709.076,778.129,729.45,775.214,740.4,767.179Z"/><path class="h" d="M835.888,798.119a42.773,42.773,0,0,0-31.278-19.1c-13.079-1.288-48.042,12.137-25.05,24.824C796.169,813.005,821.178,808.679,835.888,798.119Z"/><path class="f" d="M554.082,615.822c32.242-8.722,61.022-22.645,93.109-31.91,10.972-3.168,37.2-7.232,39.986,9.715,1.415,8.617-8.275,14.8-16.8,16.7-4.766,1.06-9.807,1.651-13.907,4.3s-6.852,8.261-4.455,12.515c1.938,3.441,6.219,4.586,9.924,5.951a43.255,43.255,0,0,1,26.007,27.55"/><path class="f" d="M501.4,670.5a114.078,114.078,0,0,0,44.22,7.118c3.038-.118,6.654-.746,7.866-3.534,1.184-2.724-.723-5.772-2.792-7.9a36.487,36.487,0,0,0-22.313-10.79"/><path class="f" d="M620.092,741.106c2.455,4.865-23.1,11.455-26.43,11.54-4.414.113-29.083-11.439-27.589-12.171,11.5-5.631,21.284-12.636,34.338-11.315C608.378,729.967,616.484,733.957,620.092,741.106Z"/><path class="f" d="M681.664,738.1a44.3,44.3,0,0,0,29.787-16.528,40.469,40.469,0,0,0-34.415-13.818c-7.357.763-27.788,7.554-27.7,17.345C649.432,736.646,673.777,738.947,681.664,738.1Z"/><path class="h" d="M768.612,754.639a37.773,37.773,0,0,0,30.382-5.919,38.314,38.314,0,0,0-24.829-21.276c-7.2-1.917-26.775-3.04-28.7,6.982C743.592,744.213,761.508,752.93,768.612,754.639Z"/><path class="f" d="M859.845,735.065a50.126,50.126,0,0,1,32.991,18.486,56.017,56.017,0,0,1-38.256,10.91c-8.579-.767-29.717-4.853-28.29-16.623C827.826,735.18,850.923,734,859.845,735.065Z"/><path class="f" d="M938.977,737.622c11.917,3.054,22.23,10.8,30.258,20.121a50.021,50.021,0,0,1-34.11,9.066C901.833,763.31,905.815,729.125,938.977,737.622Z"/><path class="f" d="M1036.061,737.1c-10.675-3.767-22.476.8-30.125,8.691a11.618,11.618,0,0,0,2.363,18c8.66,5.35,9.323-2.3,14.817-3.768s2.335-.258,8.407.547c4.768.632,7.686,4.287,12.92,1.618,4.9-2.5,6.42-9.368,4.074-14.341A21.364,21.364,0,0,0,1036.061,737.1Z"/><path class="f" d="M1123.683,784.356c2.919,4.345,9.807,4.939,13.855,1.619s5.018-9.579,2.782-14.313-7.19-7.862-12.369-8.623a24.644,24.644,0,0,0-15.115,3.128,19.375,19.375,0,0,0-8.151,7.57c-1.762,3.324-1.984,7.625.123,10.742,2.2,3.251,6.557,4.61,10.416,3.9a16.936,16.936,0,0,0,9.7-6.237"/><path class="f" d="M1101.748,723.277c2.793,4.943,10.251,6.055,14.837,2.709s6.008-10.051,3.928-15.333-7.131-9.057-12.629-10.469-11.375-.684-16.762,1.11c-4.752,1.583-9.414,4.149-12.156,8.341s-3.019,10.265.386,13.939c2.754,2.971,7.307,3.772,11.24,2.8s7.326-3.456,10.26-6.249"/><path class="f" d="M1153.016,743.058c.613,4.828,6.432,7.961,11.045,6.408s7.37-6.851,6.715-11.673-4.238-8.943-8.635-11.03a24.353,24.353,0,0,0-14.294-1.557c-6.567,1.067-13.124,4.295-16.54,10s-2.659,14.086,2.759,17.948,14.751.525,15.276-6.108"/><path class="f" d="M1224.925,722.24c10.9,8.578,12.266-8.233,15.844-7.46,8.376,1.785,19.746,6.423,22.3-4.914,1.552-6.894-4.783-16.094-11.192-18.081-12.6-3.906-27.581,5.282-29.81,18.285"/><path class="f" d="M1313.918,682.522c2.379-7.5,12.939-10.874,19.227-6.141s5.967,15.813-.583,20.175c-8.776,5.844-23.039,5.5-29.846-2.548"/><path class="f" d="M1382.015,647.339a17.9,17.9,0,0,1,32.431-.985"/><path class="f" d="M1391.1,742.237c.114,5.046,6.729,8.258,11.2,5.92s5.989-8.551,3.957-13.171-6.844-7.588-11.811-8.487-10.087,0-14.948,1.36c-4.335,1.211-8.709,2.873-11.915,6.031s-4.975,8.134-3.271,12.3c2.034,4.972,8.392,7.086,13.6,5.768s9.357-5.252,12.644-9.5"/><path class="f" d="M1173.373,683.526a16.935,16.935,0,0,1,25.8-9.778"/><path class="f" d="M1108.527,663.932a18.417,18.417,0,0,1,30,9.555"/><path class="f" d="M1100.884,643.411a18.452,18.452,0,0,1,14.328-7.921c10.922-.4,19.928,11.632,14.513,21.854"/><path class="f" d="M1154.25,666.987a23.558,23.558,0,0,1,42.121-7.294"/><path class="f" d="M1133.9,643.472v-1c10.233-7.325,26.472-3.825,32.776,7.067"/><path class="f" d="M1503.489,692.031c-2.489,2.292-5.077,4.645-8.279,5.741s-7.209.6-9.276-2.084c-2.668-3.458-.936-8.606,1.848-11.971a23.971,23.971,0,0,1,20.288-8.442c5.812.531,11.639,3.564,14.324,8.746s1.318,12.478-3.716,15.431-12.852-.415-13.242-6.238"/><path class="f" d="M585.122,725.3c-2.795-.517-5.66-1.06-8.09-2.533s-4.371-4.1-4.2-6.94c.29-4.769,5.743-7.191,10.319-8.568,9.969-3,20.267-6.034,30.618-4.919s20.87,7.467,23.589,17.516a31.13,31.13,0,0,1-20.209,11.591"/><path class="f" d="M734.46,701.114a38.172,38.172,0,0,0,27.623-14.28,37.965,37.965,0,0,0-30.374-15.481C698.905,671.446,704.4,702.658,734.46,701.114Z"/><path class="f" d="M623.923,700.637a30.4,30.4,0,0,1,54.36,3.973"/><path class="f" d="M576.3,703.1a64.37,64.37,0,0,0-47.881-14.756c-21.253,2.265-15.377,23.633.49,29.259C545.708,723.556,566.881,718.882,576.3,703.1Z"/><path class="f" d="M667.845,686.3a25.282,25.282,0,0,1,40.285-9.158"/><path class="f" d="M675.984,698.345a31.935,31.935,0,0,0,30.926-5.992"/><path class="f" d="M729.18,670.573c-5.821-23.85,26.578-27.618,42.026-21.656,5.548,2.141,11.116,7.741,8.938,13.275a12.431,12.431,0,0,1-4.386,4.99,62.132,62.132,0,0,1-22.767,10.86"/><path class="f" d="M630.846,686.5c-14.181,3.989-27.879,6-39.634-8.129-4.466-5.369,20.931-16.555,25.125-16.4,11.814.433,23.057,9.857,26.036,21.159C638.515,684.212,634.663,685.428,630.846,686.5Z"/><path class="g" d="M1289.524,605.562a20.043,20.043,0,0,1,5.985-11.971"/><path class="g" d="M1308.325,575.526a53.875,53.875,0,0,1,19.122-16.827"/><path class="g" d="M1229.233,584.476A91.484,91.484,0,0,1,1279.18,528.9"/><path class="g" d="M1159.742,619.533a52.591,52.591,0,0,1,9.116-31.9"/><path class="g" d="M1181.781,562.665a59.227,59.227,0,0,1,21.855-25.085"/><path class="g" d="M1116.661,585.53a99.917,99.917,0,0,1,33.274-49.7"/><path class="g" d="M1221.277,664.823c15.459,15.753,40.3,21.491,61.1,14.113"/><path class="g" d="M400.017,342.212c18.208-26.071,55.251-45.153,87.133-37.216"/><path class="g" d="M432.473,438.908l14.988-26.923"/><path class="g" d="M456.393,394.012a267.1,267.1,0,0,1,28.055-46.83"/><path class="f" d="M554.143,680.55a33.682,33.682,0,0,1,36.887-2.8"/><path class="f" d="M547.1,658.374a34.351,34.351,0,0,1,58.831,6.481"/><path class="f" d="M638.866,668.909c11.871-9,29.568-9.369,41.805-.872"/><path class="f" d="M597.545,651.5a45.269,45.269,0,0,1,11.925-6.72c8.883-3.354,15.636-6.213,24.707-3.41a31.386,31.386,0,0,1,19.906,18.951"/><path class="f" d="M688.255,650.2a29.9,29.9,0,0,1,40.1,8.028"/><path class="f" d="M668.341,630.481c6.395-5.889,15.535-8.217,24.2-7.54s16.913,4.1,24.406,8.5c1.656.973-8.938,13.045-11.665,13.544"/><path class="f" d="M737.275,645.421c-1.766.16-3.237-1.625-3.347-3.4a8.384,8.384,0,0,1,1.736-4.929,32.887,32.887,0,0,1,45.236-9.732"/><path class="f" d="M702.3,623.989c10.588-15.956,32.535-14.964,46.182-3.236"/><path class="g" d="M559.239,90.919c33.526,9.946,74.377,4.948,106.834-6.892"/></svg>