<svg id="Layer_2" data-name="Layer 2" xmlns="http://www.w3.org/2000/svg" viewBox="0 0 1623.018 765.598"><defs><style>.cls-1{opacity:0.68;}.cls-2{opacity:0.29;}.cls-3{fill-opacity:0;}.cls-3,.cls-4,.cls-5,.cls-6{stroke:#000;stroke-linecap:round;stroke-linejoin:round;}.cls-3,.cls-4,.cls-6{stroke-width:14px;}.cls-4,.cls-5,.cls-8{fill:none;}.cls-5{stroke-width:8px;}.cls-6{fill-opacity:0.34;}.cls-7{opacity:0.13;}.cls-9{opacity:0.49;}.cls-10{opacity:0.81;}.cls-11{opacity:0.3;}.cls-12{opacity:0.12;}.cls-13{opacity:0.44;}</style></defs><title>EFimage</title><path class="cls-1" d="M121.754,587.612c5.023-9.032,15.586-27.493,16.043-26.963a27.033,27.033,0,0,1,23.341-44.527c5.258-11.4,10.306-22.9,15.481-34.337,3.733-8.247,8.281-16.4,11.694-24.73,3.1-7.561,1.621-15.9-.285-23.578-4.121-16.586-8.249-37.927-17.319-52.6-3.2-5.169-9.543-8.033-13.791-12.668-5.349-5.836-9.781-12.436-15.02-18.365a417.639,417.639,0,0,1-36.856-48.391c-4.31,30.155,6.439,60.787,11.179,90.365C81.352,427.7,47.435,464.512,12.566,500.4c0,30.364.59,60.794,0,91.152-.245,12.591-1.745,24.479-1.42,37.162.135,5.291,4.461,37.818,1.039,40.457,27.143-20.93,56.343-43.726,89.288-54.393a15.968,15.968,0,0,1,17.712-22.426C119.39,591.9,120.358,590.12,121.754,587.612Z"/><path class="cls-2" d="M1499.335,462.144c.354,1.73,97.978-1.592,107-3.418V271.318c0-9.753-.179-19.525,0-29.277.209-11.416,5.072-24.987,1.37-35.762-47-2.881-96.521,3.529-143.673,5.443,5.984,7.869,3.158,19.9-3.842,26.884s-16.99,9.964-26.679,11.924a188.37,188.37,0,0,1-74.617-.032c2.124,20.763,3.463,43.492-7.016,62.4,2.027-3.658,45.024,19.534,49.122,22.03,16.516,10.057,29.329,23.026,44.009,35.26C1473.28,393.742,1491.859,425.576,1499.335,462.144Z"/><path class="cls-3" d="M16.175,496.246c29.274-36.695,61.866-71.3,100.064-99.329"/><path class="cls-3" d="M852.929,404.555c-3.521,15.5-15.373,32.305-21.873,47.012l19.787,7.367"/><path class="cls-3" d="M837.2,357.926c-52.265,33.169-64.142,110.2-23.468,157.4,17.065,19.8,46.259,28.437,70.075,14.767,2.753-1.58,26.272,43.738,30.376,47.955"/><path class="cls-3" d="M869.536,488.864c4.677,18.52,44.648,10.114,31.418-26.113-11.359,13.029-45.3,22.055-57.275,23.353"/><path class="cls-4" d="M829.53,360.641c-11.282,4.322-27.166,11.015-38.676,2.59a17.1,17.1,0,0,1-6.036-18.467c3.22-10.156,15.083-14.774,25.7-15.656,18.285-1.52,36.6,4,52.816,12.591s30.619,20.164,44.916,31.664c17.716,14.249,29.687,25.13,53.859,22.543"/><path class="cls-4" d="M1136.566,548.449c0,22.481-6.6,35.257-13.707,56.378-4.266,12.671-8.551,26.444-4.337,39.132,4.63,13.935,18.47,22.816,32.422,27.393s28.825,6,42.6,11.082c26.893,9.926,33.189,39.539,43.96,62.915"/><path class="cls-4" d="M1134.229,578.205c14.425,8.886,34.568,7.181,47.294-4-6.457,33.793-44.957,33.707-55.019,29.243"/><path class="cls-4" d="M1181.523,550.393a28.466,28.466,0,0,0,47.466,19.255"/><path class="cls-4" d="M1266.481,503.793c8.916-19,30.7-27.1,48.386-11.14,29.273,26.415-1.662,82.234-39.293,74.65"/><path class="cls-4" d="M1135.162,555.834c-5.385-1.079-10.893-2.2-15.6-5.042s-8.519-7.778-8.473-13.27c.061-7.312,6.442-12.718,11.709-17.79,21.964-21.148,24.721-46.832,30.607-74.6,9.523-44.933,35.552-87.97,76.35-109.916,41.789-22.48,92.6-28.5,138.159-14.7,59.972,18.16,108.5,69.98,122.693,131.013,10.993,47.274,2.455,96.549.232,145.033-2.55,55.609,9.326,105.1,43.25,149.565"/><path d="M1169.135,505.228c15.577,11.155,22.954-24.638,7.154-23.965C1166.134,481.7,1160.844,499.284,1169.135,505.228Z"/><path class="cls-4" d="M1172.149,443.868A46.593,46.593,0,0,1,1212.1,497.26"/><path class="cls-4" d="M1222.564,344.888c28.509,20.5,36.994,74.6,32.056,107.062-1.379,9.067-3.595,18.184-2.577,27.3s6.19,18.518,14.933,21.288"/><path class="cls-4" d="M1303.014,571.646c9.336,54.5-20.171,84.61-36.5,131.769-4.826,13.943-4.661,30.905,5.26,41.827"/><path class="cls-4" d="M1280.984,543.362l14.182-26.585"/><path class="cls-4" d="M1054.9,355.6c-6.213.674-12.617,1.333-18.615-.419s-11.56-6.538-12.246-12.75c-.628-5.677,2.783-10.928,6.041-15.62l30.743-44.271c8.788-12.656,5.181-23.665,6.112-39.044a59.9,59.9,0,0,1,5.4-22.158"/><path class="cls-4" d="M1086.833,301.1c-8.331,1.257-14.912,8.194-18.133,15.98-5.508,13.315-2.39,27.015-4.284,40.588-2.608,18.685-10.221,37.927-15.138,56.164-2.773,10.287-5.4,21.866-.077,31.094,8.382,14.522,25.95,12.979,39.969,13.333,20.223.51,36.292,6.426,55.759,13.28"/><path class="cls-4" d="M1399.2,254.419a219.859,219.859,0,0,1-40.44-4.008c-10.071-28.242-46.129-38.447-72.53-44.465-43.318-9.875-89.087-11.1-133.327-10.472q-4.27.06-8.606.21c-29.232,1.051-66.494,10.765-71.966,25.655-11.825,0-85.095-4.629-96.163-5.915-5.765-.67-12.443-1.942-15.085-7.11-2.42-4.734-.013-10.787,4.076-14.185s9.441-4.774,14.6-6.055c53.58-13.306,97.543-25.778,145.82-52.979,84.846-47.8,178.08-51.832,263.24-1.675,38.433,22.637,131.134,108.938,36.341,119.625A219.243,219.243,0,0,1,1399.2,254.419Z"/><path class="cls-4" d="M1375.321,121.521c-4.313-27.21-10.568-53.137-41.146-61.424-16.414-4.448-33.556-5.306-50.542-6.14-45.625-2.241-97.695-22.55-140.164.812-33.123,18.222-45.242,62.7-54.357,97.261"/><path class="cls-4" d="M1356.463,246.426a107,107,0,0,1,2.9,51.846"/><path d="M1092.457,267.112c.2,4.348,2.108,8.367,6.083,10,17,6.96,20.243-28.375,2.976-24.757C1095.566,253.6,1092.162,260.711,1092.457,267.112Z"/><path class="cls-4" d="M1088.2,237.852c17.345-10.114,41.286,4.32,52.662,17.1"/><path class="cls-4" d="M1062.145,376.359a41.552,41.552,0,0,0,34.249-7.3"/><path class="cls-4" d="M1177.914,195.359c4.529,4.825,7.081,12.05,7.59,18.841,1.534,20.435-7.37,51.971,22.927,56.029,8.381-9.706,23.962-12.213,34.964-5.625s16.149,21.506,11.551,33.477"/><path class="cls-4" d="M1174.577,84.644a36.216,36.216,0,0,0,21.466,21.062"/><path d="M842.014,402.786c.5-4.068-.945-7.719-6.524-7.379-11.981.729-5.979,25.43,2.634,16.149A17.166,17.166,0,0,0,842.014,402.786Z"/><path d="M887.84,427.063c-5.263-2-1-15.573,2.21-17.746C903.581,400.149,902.1,432.479,887.84,427.063Z"/><path class="cls-4" d="M850.312,332.226c14.532-38.877,57.718-40.379,93.142-25.037,22.947,9.938,37.574,16.665,43.883,42.331,5.292,21.531,1.331,45.52-11.685,63.614l1.255-2.656"/><path class="cls-4" d="M941.6,393.483a83.72,83.72,0,0,0-2.14-69.835"/><path class="cls-4" d="M969.31,417.674c42.6,4.055,20.3,70.279-6.867,55.418a203.16,203.16,0,0,0,14.2,37.359"/><path class="cls-4" d="M948.474,599.706c30.932-22.618,42.085-39.236,56.822-73.627-7.221-5.162-15.789-19.44-23.01-24.6-10.292,15.3-18.857,34.685-31.173,48.079-6.429,6.992-16.367,11.727-16.441,20.3C934.6,577.767,945.1,592.326,948.474,599.706Z"/><path class="cls-4" d="M934.769,567.92c-7.73,14.159-13.225,20.493-15.266,37.084-5.928,48.2-21.774,94.99-33.64,142.062"/><path class="cls-4" d="M902.486,569.9c-6.089,16.257-12.011,22.533-25.378,33.547l-.4-27.466c-.173-11.854,9.048-19.994,14.818-30.351"/><path class="cls-4" d="M1005.3,532.376c22.965,8.281,34.361,11.151,48.918,33.182,14.278,21.608,22.717,46.843,26.675,72.324,6.05,38.956,2.388,78.69-1.286,117.942"/><path class="cls-3" d="M615.922,407.842c-.343-1,43.32,81.94,105.566,63.883-42.106-27.857-55.81-46.084-61.369-87.119,36.534-15.07,74.915-40.382,101.723-69.419s45.288-66.749,46.834-106.238S793.4,128.625,761.5,105.3C723.24,77.338,671.025,77.956,624.7,87.921A409.71,409.71,0,0,0,422,198.515c-25.634,25.72-48.6,56.74-53.266,92.752-7.054,54.419,32.041,107.9,82.805,128.738S565.212,428.81,615.922,407.842Z"/><path class="cls-4" d="M433.568,344.075c3.87-5.126,10.72-11.151,13.264-17.043,3.64-8.43,2.008-17.924,6.794-26.346,4.942-8.7,15.623-15.014,25.036-11.628,7.794,2.8,12.867,11.346,21.018,12.823,10.252,1.858,18.785-8.691,20.958-18.881s.665-21.029,3.864-30.945,14.407-18.735,23.623-13.876c10.691,5.637,10.735,25.091,22.732,26.561,7.188.88,13.013-6.383,14.344-13.5s-.21-14.474.5-21.681,4.884-15.106,12.055-16.115c12.809-1.8,19.119,17.626,31.925,14.931,10.832-2.279,13.987-22.025,18.195-31.072,1.323-2.845,2.838-5.894,5.645-7.3,4.306-2.151,9.754.819,12.007,5.073s2.17,9.314,2.033,14.126c6.884-9.523,15.759-20.068,27.5-19.56,5.457.236,10.643,2.96,16.1,2.763,7.419-.269,13.74-6.039,16.876-12.768s3.7-14.328,4.223-21.734"/><path class="cls-4" d="M874.213,582.967c-18.574,7.237-27.964,27.581-34.82,46.3a793.041,793.041,0,0,0-32.661,115.646"/><path class="cls-4" d="M1019.069,624.324c-5.219,18.642-3.123,39.07-5.755,58.491a453.732,453.732,0,0,1-14.258,66.865"/><path class="cls-5" d="M1019.909,599.435c-.624-17.862,12.513-35.263,29.862-39.556"/><path class="cls-5" d="M992.469,651.346c-16.936-2.409-33.725-3.9-50.83-5.165-3.7,18.57-10.453,38.5-14.148,57.075l21.38,21.168c14.478-4.223,31.91-9.944,37.321-25.672,1.588-4.614,5.772-47.562,10.162-46.837Q994.41,651.621,992.469,651.346Z"/><path class="cls-4" d="M962.048,453.849l9.444-10.528"/><path d="M76.272,521.912a15.97,15.97,0,0,0-5.164-7.169c-15.283-11.854-26.949,5.835-25.327,20.49.949,8.572,6.17,15.639,17.009,13.7C74.653,546.806,80.121,532.314,76.272,521.912Z"/><path class="cls-4" d="M1113.07,751.731c14.734-29.451,28.919-46.78,35.259-79.552"/><path class="cls-4" d="M1343.439,753.357c-44.489-19.635-11.368-80.377-5.434-111.223,7.217-37.517-1.4-64.562-14.787-99.111"/><path class="cls-4" d="M1289.869,481.463c-18.384-32.913,6.377-77.734-17.677-108.527"/><path class="cls-4" d="M237.035,411.014a96.118,96.118,0,0,0,32.083-24.332,112.556,112.556,0,0,0,27.351-70.37l66.677,2.074"/><path class="cls-4" d="M22.992,421.165h61.16"/><path class="cls-4" d="M159.643,372.931c3.191-1.091,6.407-2.354,9.689-3.832,14.279-6.433,28.644-14.5,44.741-14.624,15.208-.112,29.357,7.061,43.478,12.711q8.427,3.372,17.1,6.059"/><path class="cls-4" d="M14.825,369.909c32.889,11.248,66.974,14.249,101.209,11.114"/><path class="cls-4" d="M767.75,309.745v-1.952c0-1.611,26.718,1.78,29.065,1.451,14-1.961,24.234-9.1,34.337-19.505,20.911-21.54,32.225-52.938,27.484-82.829l79.156-.811"/><path class="cls-4" d="M1487.593,208.314h118.72"/><line class="cls-4" x1="370.638" y1="458.306" x2="579.434" y2="458.306"/><line class="cls-4" x1="741.384" y1="458.306" x2="764.903" y2="458.306"/><line class="cls-4" x1="1535.966" y1="462.215" x2="1573.158" y2="462.215"/><path class="cls-4" d="M24.432,174a259.4,259.4,0,0,1,88.736-56.313c21.325-8.046,45.035-13.228,66.789-6.428S219.9,140.206,215.5,162.568a52.446,52.446,0,0,1,87.645,32.283,44.308,44.308,0,0,1,73.713,26.924"/><path class="cls-4" d="M816.536,154.116c8.451-12.449,21.264-17.22,36.306-16.841a46.007,46.007,0,0,1,37.456,21.69A149.567,149.567,0,0,1,995.641,98.943c16.218-1.536,33.228-.209,47.57,7.516s25.441,19.822,25.015,36.107"/><path class="cls-4" d="M1436.437,141.149c13.427-9.748,27-19.58,42.274-26.069s32.615-9.431,48.576-4.9,30.037,17.582,32.729,33.955c11.918-12.315,29.348-18.644,46.422-18.023"/><path class="cls-6" d="M590.249,652.8c-18.111-5.547-34.17-26.7-31.98-46.234,2.657-23.7,29.518-16.232,26.8-9.339,1.7-10.7,5.936-21.414,13.981-28.7s20.395-10.4,30.15-5.637,14.78,18.359,8.763,27.394c1.419-12.536,19.336-19.346,28.724-10.917,7.077,6.355,7.676,17.673,3.98,26.437s-10.782,15.575-17.683,22.121c-8.131,7.714-13.992,16.379-20.663,25.386"/><path class="cls-6" d="M710.657,667.565c-.086-10.617-.124-21.515,3.6-31.458,2.121-5.663,5.643-11.07,10.937-13.992s12.56-2.745,16.835,1.532,3.807,12.711-1.545,15.525c2.169-7.121,4.617-14.339,9.2-20.2s11.747-10.213,19.162-9.567c9.736.848,17.187,10.452,17.72,20.209s-4.625,19.133-11.656,25.919-15.822,11.405-24.482,15.933"/><path class="cls-6" d="M620.131,541.72c-.644-8.437-1.42-17.28-6.061-24.355s-14.5-11.493-21.837-7.27c-7.523,4.333-7.574,17.266.034,21.446-3.745-9.818-12.588-20.451-22.638-17.383-8.451,2.579-11.268,14.017-7.829,22.156s11.016,13.641,18.244,18.723"/><path class="cls-6" d="M1554.65,578.159a56.465,56.465,0,0,1,4.578-32.662c2.511-5.366,6.105-10.533,11.39-13.21s12.517-2.136,16.247,2.467,1.673,13.048-4.134,14.22c1.6-8.678,15.059-10.614,20.9-4s4.514,17.319-.6,24.506-13.1,11.686-20.826,15.954"/><path class="cls-4" d="M1539.9,328.8q29.3-.217,58.59-.452"/><path class="cls-4" d="M1443.884,329.526q31.318-.255,62.637-.481"/><path class="cls-4" d="M180.7,432.69c3.56-10.085,1.763-21.441-2.6-31.2s-11.112-18.237-17.786-26.594l-57.06-71.452c2.755,46.44,10.683,88.523,36.669,128.242,2.686,4.1,5.551,8.215,6.9,12.933s.88,10.28-2.5,13.838c-5.172,5.447-14.849,3.609-20.075-1.786s-7.154-13.085-8.88-20.395"/><path class="cls-4" d="M170.613,381.611c24.863,2.044,44.392,13.264,63.312,28.583,17.962,14.544,38.216,27.5,57.474,40.575,16.449,11.165,32.945,22.358,50.586,31.526,19.307,10.035,40.612,18.122,54.76,34.653,6.33,7.395,10.907,16.165,17.308,23.5,9.185,10.525,18.329,9.22,29.478,13.818,11.44,4.719,23.877,17.447,32.712,25.945,15.865,15.261,28.391,34.062,46.1,47.139,10.1,7.46,21.632,12.846,31.6,20.49,10.667,8.182,19.251,18.722,27.63,29.234,13.644,17.118,27.027,34.441,40.41,51.764l14.64,18.95"/><path class="cls-4" d="M71.667,478.488c13.963,4.248,23.858,19.123,22.379,33.643"/><path class="cls-4" d="M211.97,471.7c10.267,12.259,19.948,24.725,29.824,37.212a201.977,201.977,0,0,1,27.822,47.369c11.032,26.393,16.826,55.424,15.805,84.065-1.078,30.255-8.179,56.978-1.9,87.944,2.225,10.969,6.12,22.713,15.606,28.653"/><path class="cls-4" d="M340.138,750.189c-13.046-21.644-17.413-46.626-14.771-71.55,2.359-22.243-1.278-46.423-5.207-68.556a354.92,354.92,0,0,0-57.285-139.667c-11.354-16.387-23.707-26.946-30.663-45.628"/><path class="cls-4" d="M289.289,449.787c21.918,18.086,33.072,43.18,46.811,66.982,13.9,24.08,23,48.072,26.818,76.019,3.858,28.223,4.129,56.981,10.4,84.769s19.634,55.489,43.439,71.135"/><path class="cls-4" d="M354,488.571c40.675,43.424,53.061,102.745,66.89,158.821,9.1,36.918,22.5,75.378,52.361,98.917"/><path class="cls-4" d="M411.227,537.076c21.633,35.4,41.317,74.614,68.037,106,24.361,28.617,38.362,71.508,45.032,107.838"/><path class="cls-4" d="M591.593,751.409c-12.435-5.594-22.344-15.8-29.763-27.235s-12.579-24.166-17.693-36.8c-10.516-25.987-21.733-49.656-36.862-73.257"/><path class="cls-4" d="M119.587,590.861c2.265-3.593,2.524-4.44,4.53-8.185l11.565-21.59"/><path class="cls-4" d="M138.852,605.362c7.511-12.769,15.05-25.459,21.949-38.568"/><path class="cls-4" d="M138.418,557.177c7.253,6.824,19.906,10.427,28.043,8.5,5.124-1.222,9.249-5.188,11.868-9.759,5.487-9.579,14.284-20.712,3.782-29.637-6.309-5.362-24.231-15.433-31.824-11.576-4.477,2.274-7.291,6.792-9.88,11.095-3.63,6.032-7.366,12.41-7.6,19.445C132.652,549.8,134.9,553.868,138.418,557.177Z"/><path class="cls-4" d="M162.627,511.025l50.9-112.364"/><path class="cls-4" d="M181.877,523.164a430.045,430.045,0,0,0,50.97-112.83"/><path class="cls-4" d="M101.454,607.91c-2.439,9.428,3.282,20.243,12.448,23.532s20.457-1.422,24.569-10.249C149.967,596.51,108.443,580.894,101.454,607.91Z"/><path class="cls-4" d="M115.348,636.256,130.033,692.5c1.941,7.433,3.894,15.182,2.372,22.712s-16.371,14.155-29.152,4.51"/><path class="cls-4" d="M133.819,628.2c5.982,25.022,16.433,49.383,17.944,75.065,1.537,26.107-18.965,42.085-36.832,21.16"/><path class="cls-4" d="M58.472,744.5a175.179,175.179,0,0,1,67.116-31.484"/><path class="cls-4" d="M157.892,712.3c45.846-7.475,73.537-48.918,75.773-93.081a120.631,120.631,0,0,0-19.288-71.436"/><path class="cls-4" d="M166.664,711.162a69.784,69.784,0,0,1,66.979,36.625"/><path class="cls-4" d="M11.481,699.3l95.855-64.4"/><path class="cls-4" d="M13.453,668.14,98.4,612.663"/><path class="cls-7" d="M62.546,227.852c10.059-5.73,20.4-10.854,31.586-14.208,20.467-6.138,43.91-5.832,61.82,5.822s27.823,36.445,18.469,55.656c10.342-20.76,35.546-32.914,58.23-28.081s40.744,26.206,41.725,49.379c1.772-26.061,28.388-47.635,54.251-43.976,24.062,3.405,39.374,25.579,41.012,48.526,1.2,16.817-.393,17.143-17.566,17.174-17.68.033-35.419-.919-53.094-1.378l-26.13,59.284c-32.18-26.417-82.459-27.7-115.942-2.955l-52.921-67.033,10.363,81.967-103.523-15.8c.369.057-1.324-52.089-1.174-55.758a320.561,320.561,0,0,1,9.164-64.153c1.014-4.079,29.107-15.772,33.659-18.525C55.814,231.774,59.164,229.779,62.546,227.852Z"/><path class="cls-7" d="M792,281.008c6.583-11.26,13.539-23.116,24.851-29.61s28.338-4.993,34.4,6.557c4.92,9.377-25.645,34.946-31.821,39.065-13.468,8.982-33.519,17.282-49.8,13.7C773.811,301.264,786,291.281,792,281.008Z"/><path class="cls-8" d="M77.672,422.446c-6.01-.543-57.437-5.734-57.849-2.7-.719,5.3-8.592,79.234-9.923,79.234Q43.787,460.713,77.672,422.446Z"/><path class="cls-2" d="M368.272,317.475c-1.491,52.713,43.73,90.9,94.325,105.763s102.016-3.223,153.325-15.4c7.032,16.787,27.418,44.284,44.315,51.047l-357.683-.583S250.3,424.344,227.9,409.618c28.072,4.544,71.235-62.543,68.406-91.27Z"/><path class="cls-6" d="M451.5,530.771a21.7,21.7,0,0,1-4.32-19.006c5.552-21.666,20.468-13.375,27.713.81-2.317-5.473,4.077-11.791,9.908-10.639s9.515,7.571,9.216,13.507-3.7,11.29-7.686,15.7"/><path class="cls-6" d="M716.894,535.229a13.927,13.927,0,0,1,18.763-19.185c.272-6.194,9.155-9.147,14.162-5.491s5.91,11.092,3.758,16.906-6.664,10.387-11.05,14.768"/><path class="cls-6" d="M1522.492,519.51c.375-8.285.971-17.185,6.164-23.652s16.783-8.243,21.266-1.266c2.395,3.727,1.993,8.719.1,12.726s-5.055,7.246-8.163,10.4"/><path class="cls-9" d="M17.127,418.126c13.825,0,27.593.822,41.383,1.805s28.336.437,40.362-6.383,20.5-21.533,16.238-34.682c-15.037,0-30.406-2.187-45.41-3.267-12.67-.911-32-6.161-44.266-2.9C10.9,376.559,17.127,405.242,17.127,418.126Z"/><path class="cls-9" d="M232.886,410.745A73.284,73.284,0,0,0,275.7,370.412c-10.772,1.755-20.848-4.889-30.821-9.322-10.612-4.717-27-8.006-38.506-6.751-4.443.485-40.986,16.185-41.8,14.89l8.244,12.179c8.694-3.112,24.162,3.376,32.18,7.3C208.326,390.339,232.89,410.64,232.886,410.745Z"/><path class="cls-2" d="M708.456,458.693h80.8c.381-32.683,11.295-65.143,31.567-90.783a21.593,21.593,0,0,1-30.828-28.1c4.892-9.457,16.305-14.057,26.952-13.886s20.8,4.238,30.66,8.246c13.838-23.927,41.669-39.03,69.272-37.591s53.713,19.352,64.989,44.588,7.2,56.638-10.143,78.159c17.362,5.583,27.321,30.907,16.915,39.885h86.1c-17.026-6.375-25.9-26.491-24.755-47.508s9.184-40.964,17.12-60.459c-3.125,10.343-18.028,13.438-26.813,7.149s-11.546-18.556-9.507-29.167,7.982-20,13.808-29.095l14.156-22.107c5.669-8.855,11.464-18.023,13.223-28.39s-1.555-22.343-10.6-27.7c-8.746-5.175-19.738-2.9-29.844-1.839a112.166,112.166,0,0,1-71.694-17.03l-102.589,4.606a90.138,90.138,0,0,1-84.774,102.72c-3.879.192-16.144,15.887-19.61,18.912a276.8,276.8,0,0,1-23.614,18.449c-17.445,12.173-37.01,19.045-54.972,29.776C641.686,396.993,687.551,446.672,708.456,458.693Z"/><path class="cls-1" d="M127.391,716.144a79.5,79.5,0,0,0-46.95,12.179c-10.55,6.654-22.525,13.3-28.547,24.722a62.447,62.447,0,0,0-35.6-2.366l-5.235-54.615c33.879-21.5,68.13-39.887,101.546-62.816a318.775,318.775,0,0,1,19.021,83.286Q129.514,716.278,127.391,716.144Z"/><path class="cls-10" d="M278.22,705.562a72.132,72.132,0,0,0,1.436,14.8c8.869,42.372,54.4,32.851,86.774,32.851H478.3c27.19,0,54.379-.276,81.57-.346,25.906-.067,53.238-2.1,78.862,1.6-12.819-22.343-25.7-44.777-41.63-65.017s-35.152-38.356-58.164-49.929c-7.336-3.689-15.091-6.741-21.6-11.744-8.218-6.315-13.882-15.282-20.069-23.6a188.9,188.9,0,0,0-74.3-59.541c-8.614-3.888-13.155-13.081-19-20.229-13.911-17.009-33.507-28.2-52.639-39.008-18.01-10.173-36.954-19.5-54.32-30.735-5.413-3.5-8.711-8.342-13.366-12.606-6.529-5.982-15.06-10.2-22.594-14.779-7.068-4.295-15.065-7.72-21.048-13.3A118.77,118.77,0,0,0,220.088,398.5a106.176,106.176,0,0,0-23.024-10.308c-2.225-.692-23.708-4.107-23.8-4.434l16.43,58.035,16.473-31.589c1.778-3.409,3.8-7.056,7.31-8.625,5.607-2.507,12.357,1.858,14.674,7.546,4.732,11.619-2.366,20.65-6.772,30.833-1.4,3.226-15.424,32.6-13.748,33.966,55.115,44.937,84.715,119.269,75.577,189.793C281.406,677.621,278.215,691.677,278.22,705.562Z"/><path class="cls-1" d="M154.518,706.925A124.177,124.177,0,0,1,232.552,740.1c12.573,11.846,13.5,14.24,31.438,11.577,12.171-1.806,21.739-1.149,34.138-.256-14.23-17.184-12.16-39.512-10.971-60.451,4.59-80.815-24.265-163.023-78.356-223.242-2.835,6.1-30.112,52.827-26.943,58.164,9.529,16.592-4.156,41.113-23.28,41.714,2.621-.082-17.557,30.212-18.229,31.893a61,61,0,0,0-3.7,26.414,121.341,121.341,0,0,0,2.431,14.7C143.72,662.943,149.31,684.728,154.518,706.925Z"/><path class="cls-11" d="M968.468,417.42c-8.459,9.59-18.5,22.173-28.685,5.157-4.8-8.015-1.544-18.159,2.013-26.039,9.3-.844,14.62,1.137,23.924.294a13.611,13.611,0,0,0,9.591,11.853C971.174,413.976,972.91,412.384,968.468,417.42Z"/><path class="cls-1" d="M931.316,305.281A67.818,67.818,0,0,1,990.9,386.767c-2.45,9.8-10.938,18.257-16.734,26.37-5.476-15.889-23.033-16.032-36.874-15.9,3.705-.036,11.422-33.183,11.383-38.213A93,93,0,0,0,931.316,305.281Z"/><path class="cls-1" d="M780.434,348.072c-.327-8.288,6.035-15.746,13.684-18.957s16.3-2.941,24.516-1.833a131.862,131.862,0,0,1,81.8,44.579c-17.9-20.964-40.97-25.4-66.185-14.169C819.5,364.26,781.565,376.764,780.434,348.072Z"/><path class="cls-2" d="M1079.255,753.24c-.258,1.026-130.489-6.487-142.719-6.523-45.364-.131-89,2.617-134.35,6.908,11.588-45.74,21.117-91.288,39.531-134.913,6.206-14.7,15.829-31.193,31.735-32.488a53.473,53.473,0,0,1,19.169-37.215l28.846,33.782a257.6,257.6,0,0,0,65.225-79.821c-7.126,13.589,25.749,32.267,35.252,36.314,20.793,8.855,36.414,26.319,45.593,46.753,11.308,25.173,13.075,52.926,16.778,79.777C1088.173,693.79,1086.17,725.746,1079.255,753.24Z"/><path class="cls-9" d="M1238.351,757.9c-.535-22.882-11.222-45.2-28.173-60.482a134.265,134.265,0,0,0-27.7-19.367c-3.02-1.527-31.6-12.249-33.179-7.8-10.62,29.821-19.869,58.38-38.184,84.542A304.7,304.7,0,0,0,1238.351,757.9Z"/><path class="cls-12" d="M1202,268.42c12.509,5.222,27.129-5.185,40.06-1.119,9.156,2.879,14.814,12.556,15.884,22.094s-1.544,19.063-4.133,28.306l71.093-5.916c9.774-.813,20.291-1.464,28.693,3.6,3.884-14.644,7.8-29.477,7.922-44.627s-3.939-30.9-14.2-42.045c-9.9-10.749-24.29-16.042-38.318-20.146a380.16,380.16,0,0,0-61.505-12.576q-16.177-1.938-32.483-2.5c-6.423-.218-12.728-1.729-19.051-2.126-5.57-.349-18.508,3.164-23.219.49C1201.436,208.123,1171.158,255.54,1202,268.42Z"/><path class="cls-13" d="M1372.161,122.645a22.478,22.478,0,0,1-1.862,3.724c3.985-6.412,49.4,34.161,53.517,37.636,15.629,13.189,31.855,26.887,38.633,46.855,2.561,7.547,3.371,15.947.683,23.45-6.312,17.614-29.7,16.808-45.224,18.542a289.015,289.015,0,0,1-63.08.126c-10.153-34.772-51.57-46.088-82.936-53.164-36.487-8.232-74.807-8.842-111.894-4.9q-.8.084-1.586.172c-31.874,3.522-65.089,7.19-91.857,25.535-4.042,2.771-23.886-2.244-29.13-2.736l-31.557-2.966c-10.021-.941-47.727,2.081-48.608-12.145-.3-4.924,2.786-9.565,6.8-12.435s8.854-4.289,13.6-5.623c38.7-10.874,77.425-18.43,115.362-31.9.79-.278,6.731-38.675,8.146-42.888,11.415-33.993,34.857-58.461,71.076-65.271,27.738-5.216,56.268-.446,84.087,4.323l68.241,11.7c13.036,2.235,25.953,3.814,34.588,15.4C1368.107,88.078,1378.08,107.45,1372.161,122.645Z"/><path class="cls-11" d="M1221.739,337.986c44.739-20.929,96.76-27.518,144.406-14.5s90.128,46.484,110.5,91.482c16.065,35.49,18.042,75.685,16.5,114.611s-6.343,77.926-2.829,116.724,16.443,78.439,44.794,105.157l-263.406.17c-11.331-18.682-9.471-42.712-2.508-63.422s18.487-39.613,26.053-60.11,10.854-44.121,1.206-63.725c14.869-6.863,27.179-20.348,30.035-36.474s-5.277-34.286-20.334-40.729c-13.316-5.7-35.2,1.286-40.075,15.924-.144.434-10.429-11.2-11.215-12.613a41.478,41.478,0,0,1-5.219-19.6c-.152-14.247,4.738-26.448,3.462-41.458A198.667,198.667,0,0,0,1221.739,337.986Z"/><path class="cls-9" d="M109.751,633.309l19.059,64.68c1.244,4.221,2.5,8.511,2.515,12.912.007,1.651-6.715,20.3-9.51,18a18.993,18.993,0,0,0,16.312,3.736c9.2-2.243,12.79-9.841,14.537-18.335,2.488-12.1-4.033-29.847-6.812-41.732a426.6,426.6,0,0,0-12.988-44.5L151.917,588.2c2.542-5.319,5.123-10.7,8.912-15.218,4.341-5.177,10.095-9.009,14.523-14.11a51.19,51.19,0,0,0,9.286-15.478c2.271-6.559-.532-13.059.426-19.74,1.29-8.992,7.786-17.9,12.063-25.692q7.72-14.073,14.6-28.584a544.024,544.024,0,0,0,24.026-59.5c.649-1.817-20.749-13.043-24.134-12.9-11.564,34.49-27.9,67.392-42.95,100.473-2.556,5.619-5.245,11.42-9.907,15.466-4.5,3.909-10.418,5.792-15.268,9.261-7.124,5.1-6.546,12.251-8.337,19.868-2.072,8.817-2.788,17.924-5.755,26.529-7.579,21.978-27.751,36.734-46.8,50.053-23.662,16.54-47.373,32.954-71.477,48.65-.521,5.727-1.467,11.183-2.432,16.726-.355,2.043.415,16.2-.7,16.885,8.573-5.284,16.128-12.155,24.639-17.422,8.148-5.043,16.591-9.578,24.691-14.994,17.109-11.976,34.634-24.736,52.293-35.643Z"/><path class="cls-4" d="M1207.068,316.977l17.644-27.333"/></svg>