<svg xmlns="http://www.w3.org/2000/svg" viewBox="0 0 1630.975 658.803"><defs><style>.a{fill:none;stroke:#000;stroke-linecap:round;stroke-linejoin:round;stroke-width:14px;}.b{opacity:0.16;}.c{opacity:0.11;}</style></defs><title>EFimage</title><path class="a" d="M995.508,391.757l-1.026,35.076"/><path class="a" d="M1104.9,397.791l-.377,34.917"/><path class="a" d="M1211.1,392.748c-.167,5.322-.167,15.322-.333,20.645"/><path class="a" d="M1230.928,379.667c-5.147,9.86-15.145,8.418-27.253,10.85-25.878,5.2-51.716,10.6-77.658,15.471-30.88-16.17-78.177-68.014-78.177-68.014s-53.926,52.819-60.608,57.2c-11.307,7.412-16.881,9.972-19.8-4.736-2.553-12.885-.819-26.7,6.1-37.932,7.317-11.871,18.547-20.71,29.541-29.29,11.252-8.781,22.737-17.695,36.115-22.669,12.944-4.813,26.968-5.679,40.754-6.5l53.911-3.2c7.916-.47,16.01-.921,23.636,1.251,8.337,2.375,15.471,7.7,22.395,12.912l36.41,27.426c13.866,10.444,20.9,22.821,16.979,40.448A27.493,27.493,0,0,1,1230.928,379.667Z"/><path class="a" d="M947.56,417.882c25.825,1.188,56.393,12.66,68.289,36.744"/><path class="a" d="M1295.246,436.417c-44.733-30.464-111.562-30.648-157.007-.422-64.325-11.634-133.927,12.106-177.736,60.622-43.308-24.578-96-34.959-144.814-25.132a211.088,211.088,0,0,0-124.2,77.184"/><path class="a" d="M1024.443,439.761l2-53.072a68.214,68.214,0,0,0,24.58-.718"/><path class="a" d="M1047.718,297.267l2.9-29.263a3.506,3.506,0,0,1,1-2.569c.828-.624,1.991-.39,3-.15a66.638,66.638,0,0,0,26.355.874c1.26-.212,2.723-.4,3.665.458a4.159,4.159,0,0,1,.914,3.072l.47,21.564"/><path class="a" d="M1061.642,264.646c-20.043-9.222-11.455-34.559-2.548-47.169,9.456-13.387,17.207-24.086,1.9-37.279-8.251-7.114-19.32-9.77-29.88-12.454s-21.6-5.929-29.149-13.79c-10.9-11.355-11.316-30.092-3.974-44.014s20.977-23.558,35.37-29.928c55.56-24.591,107.195-3.848,163.192,5.069,29.3,4.665,58.971.042,87.157-8.333,25.385-7.542,49.464-21.512,75.325-25.314,54.7-8.041,108.412-4.945,159.209,18.758,12.908,6.023,26.519,14.691,29.7,28.576,2.372,10.353-1.955,21.406-9.124,29.244s-16.849,12.908-26.672,16.95a182.389,182.389,0,0,1-121.626,5.687c-18.448-5.644-36.576-14.342-55.863-13.89-23.267.545-43.951,14.254-66.311,20.71a109.557,109.557,0,0,1-76.651-6.254c-23.141-11.006-50.566-33.606-77.223-19.311-15.509,8.316-23.592,29.583-15.072,44.985,6.863,12.4,16.749,20.99,9.649,36.27-5.846,12.581-48.917,37.7-31.52,53.325"/><path class="a" d="M1236.918,373.081a84.637,84.637,0,0,1,70.078,20.4c44.074-29.155,101.216-36.814,150.9-18.821"/><path class="a" d="M1011.693,161.055c-13.868,3.827-27.835,7.423-41.961,10.615-112.6,25.438-229.743,3.811-343.723-14.452C523.9,140.857,420.018,128.723,318.123,152.8,219.679,176.065,121.7,179.81,24.2,148.706c-6.278-2-4.943-1.395-11.1-3.749"/><path class="a" d="M1613.95,140.24c-28.352,1.076-56.764-.614-85.228-3.748"/><path class="a" d="M65.645,360.686c48.134-12.677,97.629-23.615,147.272-19.977S313,364.419,343.37,403.859c105.848-60.087,244.2-57.927,348.122,5.436"/><path class="b" d="M1073.9,103.719c8.581-7.4,19.969-10.965,31.272-11.74,42.505-2.915,80.186,30.378,122.767,31.831,39.669,1.353,75.391-25,114.907-28.737,33.566-3.175,66.157,10.151,98.953,17.97s71.31,8.762,95.925-14.278c4.214,9.759,1.46,21.564-5.034,29.979-24.2,31.355-82.794,32.927-118.07,28.233-36.176-4.814-69.529-26.346-106.578-14.288-10.916,3.553-21.205,8.826-32.085,12.488-45.375,15.272-75.163-4.079-115.052-21.664-19.352-8.531-47.373-9.065-61.649,9.779-9.586,12.655-5.877,46.117,8.71,54.848C1081.624,182.371,1040.831,132.239,1073.9,103.719Z"/><path class="c" d="M1089.393,349.033c-10.373-11.353-19.2-26.749-34.4-29.122-14.342-2.239-27.184,8.451-37.5,18.659-17.662,17.469-30.83,37.3-54.426,47.624l10.481,17.264,19.485-13.835a109.013,109.013,0,0,1-3.663,43.423c12.049,1.782,22.225,12.38,23.514,24.492,15.05-13.943,33.348-19.96,53.439-21.575,12.876-1.035,34.529-6.438,46.5-3.349,5.679,1.466,11.112,4.024,16.948,4.61,15.016,1.509,27.765-9.911,41.275-16.64,11.8-5.878,24.432-7.645,37.467-7.3-4.276-6.784-5.261-15.488,2.781-20.328,4.971-2.991,11.038-3.877,15.811-7.173,13.539-9.352,8.356-28.437-5.522-28.673-13.978-.237-31.911,9.644-45.883,12.472C1144.42,375.917,1112.205,374,1089.393,349.033Z"/><path class="a" d="M1085.672,281.582c54.308-6.908,107.521-21.477,159.809-37.889,164.027-51.484,261.129-66.116,365-24.149"/><path class="a" d="M614.61,269.324c76.1-29.634,160.956-36.049,240.728-18.744,64.655,14.027,125.771,34.376,191.679,33.79"/></svg>