<?xml version="1.0" encoding="utf-8"?>
<!-- Generator: Adobe Illustrator 18.1.1, SVG Export Plug-In . SVG Version: 6.00 Build 0)  -->
<!DOCTYPE svg PUBLIC "-//W3C//DTD SVG 1.1//EN" "http://www.w3.org/Graphics/SVG/1.1/DTD/svg11.dtd">
<svg version="1.1" id="Layer_1" xmlns="http://www.w3.org/2000/svg" xmlns:xlink="http://www.w3.org/1999/xlink" x="0px" y="0px"
	 viewBox="0 0 920 690" enable-background="new 0 0 920 690" xml:space="preserve">
<linearGradient id="SVGID_1_" gradientUnits="userSpaceOnUse" x1="425.8094" y1="-5.1941" x2="489.0463" y2="642.5042">
	<stop  offset="0" style="stop-color:#B6E9CF"/>
	<stop  offset="1" style="stop-color:#DDBF6B"/>
</linearGradient>
<rect x="0" y="0" fill="url(#SVGID_1_)" width="920" height="690"/>
<g opacity="0.1">
	<path fill="#6D6E70" d="M174.9,374l-33.8,7.1c-10.5,2.2-21.4,2.2-31.9,0L75.5,374c-0.6-0.1-1-0.6-1-1.2v-25.5
		c0-0.7,0.5-1.2,1.2-1.2h98.9c0.7,0,1.2,0.5,1.2,1.2v25.5C175.9,373.4,175.5,373.9,174.9,374z"/>
</g>
<g opacity="0.1">
	<path fill="#6D6E70" d="M200.2,565.1l-89.6,22.4c-9.9,2.5-19.6-5-19.6-15.3v-56h116.2v39.9C207.2,560.4,204.3,564.1,200.2,565.1z"
		/>
</g>
<path opacity="0.1" fill="#6D6E70" d="M790.4,424.7c-27.1,0-54.2,0-81.3,0c-9.4-18.4,10.1-43.1,0-62.9c27.1,0,54.2,0,81.3,0
	C799.3,386.6,780.4,404.9,790.4,424.7z"/>
<path opacity="0.1" fill="#6D6E70" d="M431.4,409c-21.8,0-43.5,0-65.3,0c-14.5-14.5-14.5-38,0-52.6c21.8,0,43.5,0,65.3,0
	C445.9,370.9,445.9,394.5,431.4,409z"/>
<path opacity="0.1" fill="#6D6E70" d="M498.4,535.4l-23.7,5.6c-3.8,0.9-7.9,0.9-11.7,0l-23.7-5.6v-26.2l23.7-5.6
	c3.8-0.9,7.9-0.9,11.7,0l23.7,5.6V535.4z"/>
</svg>
