<?xml version="1.0" encoding="utf-8"?>
<!-- Generator: Adobe Illustrator 18.1.1, SVG Export Plug-In . SVG Version: 6.00 Build 0)  -->
<!DOCTYPE svg PUBLIC "-//W3C//DTD SVG 1.1//EN" "http://www.w3.org/Graphics/SVG/1.1/DTD/svg11.dtd">
<svg version="1.1" id="Layer_1" xmlns="http://www.w3.org/2000/svg" xmlns:xlink="http://www.w3.org/1999/xlink" x="0px" y="0px"
	 viewBox="0 0 920 690" enable-background="new 0 0 920 690" xml:space="preserve">
<filter  height="170%" width="170%" id="ds1" y="-20%" x="-30%">
	<feOffset  in="SourceAlpha" result="offOut" dy="1" dx="0"></feOffset>
	<feGaussianBlur  in="offOut" stdDeviation="2" result="blurOut"></feGaussianBlur>
	<feComponentTransfer>
		<feFuncA  type="linear" slope="0.5"></feFuncA>
	</feComponentTransfer>
	<feMerge>
		<feMergeNode></feMergeNode>
		<feMergeNode  in="SourceGraphic"></feMergeNode>
	</feMerge>
</filter>
<g>
	<g filter="url(#ds1)">
		<path fill="#F9DA55" d="M669.5,55.7c-0.4-0.5-0.9-0.9-1.5-1.2c-1.4-0.8-2.4-2.1-2.9-3.7c-0.2-0.5-0.4-1-0.8-1.5
			c-1.6-2.1-4.7-2.5-6.7-0.9c-2.1,1.6-2.5,4.7-0.8,6.7c0.4,0.5,0.8,0.8,1.3,1.1c1.5,0.9,2.6,2.2,3.1,3.9c0.2,0.5,0.4,1.1,0.8,1.5
			s0.8,0.8,1.3,1.1c1.5,0.9,2.6,2.2,3.1,3.9c0.2,0.5,0.4,1.1,0.8,1.5c0.4,0.5,0.8,0.8,1.3,1.1c1.5,0.9,2.6,2.2,3.1,3.9
			c0.2,0.5,0.4,1.1,0.8,1.5c0.4,0.5,0.8,0.8,1.3,1.1c1.5,0.9,2.6,2.2,3.1,3.9c0.2,0.5,0.4,1.1,0.8,1.5c0.4,0.5,0.8,0.8,1.3,1.1
			c1.5,0.9,2.6,2.2,3.1,3.9c0.2,0.5,0.4,1.1,0.8,1.5c0.4,0.5,0.8,0.8,1.3,1.1c1.5,0.9,2.6,2.2,3.1,3.9c0.2,0.5,0.4,1.1,0.8,1.5
			c0.4,0.5,0.8,0.8,1.3,1.1c1.5,0.9,2.6,2.2,3.1,3.9c0.2,0.5,0.4,1.1,0.8,1.5c0.4,0.5,0.8,0.8,1.3,1.1c1.5,0.9,2.6,2.2,3.1,3.9
			c0.2,0.5,0.4,1.1,0.8,1.5c0.4,0.5,0.8,0.8,1.3,1.1c1.5,0.9,2.6,2.2,3.1,3.9c0.2,0.5,0.4,1.1,0.8,1.5c0.4,0.5,0.8,0.8,1.3,1.1
			c1.5,0.9,2.6,2.2,3.1,3.9c0.2,0.5,0.4,1.1,0.8,1.5c0.4,0.5,0.9,0.9,1.5,1.2c1.4,0.8,2.4,2.1,2.9,3.7c0.2,0.5,0.4,1,0.8,1.5
			c1.6,2.1,4.7,2.5,6.7,0.9c2.1-1.6,2.5-4.7,0.8-6.7c-0.4-0.5-0.8-0.8-1.3-1.1c-1.5-0.9-2.6-2.2-3.1-3.9c-0.2-0.5-0.4-1.1-0.8-1.5
			c-0.4-0.5-0.8-0.8-1.3-1.1c-1.5-0.9-2.6-2.2-3.1-3.9c-0.2-0.5-0.4-1.1-0.8-1.5c-0.4-0.5-0.8-0.8-1.3-1.1c-1.5-0.9-2.6-2.2-3.1-3.9
			c-0.2-0.5-0.4-1.1-0.8-1.5c-0.4-0.5-0.8-0.8-1.3-1.1c-1.5-0.9-2.6-2.2-3.1-3.9c-0.2-0.5-0.4-1.1-0.8-1.5c-0.4-0.5-0.8-0.8-1.3-1.1
			c-1.5-0.9-2.6-2.2-3.1-3.9c-0.2-0.5-0.4-1.1-0.8-1.5c-0.4-0.5-0.8-0.8-1.3-1.1c-1.5-0.9-2.6-2.2-3.1-3.9c-0.2-0.5-0.4-1.1-0.8-1.5
			s-0.8-0.8-1.3-1.1c-1.5-0.9-2.6-2.2-3.1-3.9c-0.2-0.5-0.4-1.1-0.8-1.5c-0.4-0.5-0.8-0.8-1.3-1.1c-1.5-0.9-2.6-2.2-3.1-3.9
			c-0.2-0.5-0.4-1.1-0.8-1.5c-0.4-0.5-0.8-0.8-1.3-1.1c-1.5-0.9-2.6-2.2-3.1-3.9c-0.2-0.5-0.4-1.1-0.8-1.5c-0.4-0.5-0.8-0.8-1.3-1.1
			c-1.5-0.9-2.6-2.2-3.1-3.9C670.2,56.7,669.9,56.2,669.5,55.7z"/>
		<path fill="none" stroke="#D6971A" stroke-miterlimit="10" d="M669.5,55.7c-0.4-0.5-0.9-0.9-1.5-1.2c-1.4-0.8-2.4-2.1-2.9-3.7
			c-0.2-0.5-0.4-1-0.8-1.5c-1.6-2.1-4.7-2.5-6.7-0.9c-2.1,1.6-2.5,4.7-0.8,6.7c0.4,0.5,0.8,0.8,1.3,1.1c1.5,0.9,2.6,2.2,3.1,3.9
			c0.2,0.5,0.4,1.1,0.8,1.5s0.8,0.8,1.3,1.1c1.5,0.9,2.6,2.2,3.1,3.9c0.2,0.5,0.4,1.1,0.8,1.5c0.4,0.5,0.8,0.8,1.3,1.1
			c1.5,0.9,2.6,2.2,3.1,3.9c0.2,0.5,0.4,1.1,0.8,1.5c0.4,0.5,0.8,0.8,1.3,1.1c1.5,0.9,2.6,2.2,3.1,3.9c0.2,0.5,0.4,1.1,0.8,1.5
			c0.4,0.5,0.8,0.8,1.3,1.1c1.5,0.9,2.6,2.2,3.1,3.9c0.2,0.5,0.4,1.1,0.8,1.5c0.4,0.5,0.8,0.8,1.3,1.1c1.5,0.9,2.6,2.2,3.1,3.9
			c0.2,0.5,0.4,1.1,0.8,1.5c0.4,0.5,0.8,0.8,1.3,1.1c1.5,0.9,2.6,2.2,3.1,3.9c0.2,0.5,0.4,1.1,0.8,1.5c0.4,0.5,0.8,0.8,1.3,1.1
			c1.5,0.9,2.6,2.2,3.1,3.9c0.2,0.5,0.4,1.1,0.8,1.5c0.4,0.5,0.8,0.8,1.3,1.1c1.5,0.9,2.6,2.2,3.1,3.9c0.2,0.5,0.4,1.1,0.8,1.5
			c0.4,0.5,0.8,0.8,1.3,1.1c1.5,0.9,2.6,2.2,3.1,3.9c0.2,0.5,0.4,1.1,0.8,1.5c0.4,0.5,0.9,0.9,1.5,1.2c1.4,0.8,2.4,2.1,2.9,3.7
			c0.2,0.5,0.4,1,0.8,1.5c1.6,2.1,4.7,2.5,6.7,0.9c2.1-1.6,2.5-4.7,0.8-6.7c-0.4-0.5-0.8-0.8-1.3-1.1c-1.5-0.9-2.6-2.2-3.1-3.9
			c-0.2-0.5-0.4-1.1-0.8-1.5c-0.4-0.5-0.8-0.8-1.3-1.1c-1.5-0.9-2.6-2.2-3.1-3.9c-0.2-0.5-0.4-1.1-0.8-1.5c-0.4-0.5-0.8-0.8-1.3-1.1
			c-1.5-0.9-2.6-2.2-3.1-3.9c-0.2-0.5-0.4-1.1-0.8-1.5c-0.4-0.5-0.8-0.8-1.3-1.1c-1.5-0.9-2.6-2.2-3.1-3.9c-0.2-0.5-0.4-1.1-0.8-1.5
			c-0.4-0.5-0.8-0.8-1.3-1.1c-1.5-0.9-2.6-2.2-3.1-3.9c-0.2-0.5-0.4-1.1-0.8-1.5c-0.4-0.5-0.8-0.8-1.3-1.1c-1.5-0.9-2.6-2.2-3.1-3.9
			c-0.2-0.5-0.4-1.1-0.8-1.5s-0.8-0.8-1.3-1.1c-1.5-0.9-2.6-2.2-3.1-3.9c-0.2-0.5-0.4-1.1-0.8-1.5c-0.4-0.5-0.8-0.8-1.3-1.1
			c-1.5-0.9-2.6-2.2-3.1-3.9c-0.2-0.5-0.4-1.1-0.8-1.5c-0.4-0.5-0.8-0.8-1.3-1.1c-1.5-0.9-2.6-2.2-3.1-3.9c-0.2-0.5-0.4-1.1-0.8-1.5
			c-0.4-0.5-0.8-0.8-1.3-1.1c-1.5-0.9-2.6-2.2-3.1-3.9C670.2,56.7,669.9,56.2,669.5,55.7z"/>
	</g>
	<g filter="url(#ds1)">
		<path fill="#F9DA55" d="M691.6,38.1c-0.4-0.5-0.9-0.9-1.5-1.2c-1.4-0.8-2.4-2.1-2.9-3.7c-0.2-0.5-0.4-1-0.8-1.5
			c-1.6-2.1-4.7-2.5-6.7-0.9c-2.1,1.6-2.5,4.7-0.8,6.7c0.4,0.5,0.8,0.8,1.3,1.1c1.5,0.9,2.6,2.2,3.1,3.9c0.2,0.5,0.4,1.1,0.8,1.5
			s0.8,0.8,1.3,1.1c1.5,0.9,2.6,2.2,3.1,3.9c0.2,0.5,0.4,1.1,0.8,1.5c0.4,0.5,0.8,0.8,1.3,1.1c1.5,0.9,2.6,2.2,3.1,3.9
			c0.2,0.5,0.4,1.1,0.8,1.5c0.4,0.5,0.8,0.8,1.3,1.1c1.5,0.9,2.6,2.2,3.1,3.9c0.2,0.5,0.4,1.1,0.8,1.5c0.4,0.5,0.8,0.8,1.3,1.1
			c1.5,0.9,2.6,2.2,3.1,3.9c0.2,0.5,0.4,1.1,0.8,1.5s0.8,0.8,1.3,1.1c1.5,0.9,2.6,2.2,3.1,3.9c0.2,0.5,0.4,1.1,0.8,1.5
			c0.4,0.5,0.8,0.8,1.3,1.1c1.5,0.9,2.6,2.2,3.1,3.9c0.2,0.5,0.4,1.1,0.8,1.5c0.4,0.5,0.8,0.8,1.3,1.1c1.5,0.9,2.6,2.2,3.1,3.9
			c0.2,0.5,0.4,1.1,0.8,1.5s0.8,0.8,1.3,1.1c1.5,0.9,2.6,2.2,3.1,3.9c0.2,0.5,0.4,1.1,0.8,1.5c0.4,0.5,0.8,0.8,1.3,1.1
			c1.5,0.9,2.6,2.2,3.1,3.9c0.2,0.5,0.4,1.1,0.8,1.5c0.4,0.5,0.9,0.9,1.5,1.2c1.4,0.8,2.4,2.1,2.9,3.7c0.2,0.5,0.4,1,0.8,1.5
			c1.6,2.1,4.7,2.5,6.7,0.9c2.1-1.6,2.5-4.7,0.8-6.7c-0.4-0.5-0.8-0.8-1.3-1.1c-1.5-0.9-2.6-2.2-3.1-3.9c-0.2-0.5-0.4-1.1-0.8-1.5
			c-0.4-0.5-0.8-0.8-1.3-1.1c-1.5-0.9-2.6-2.2-3.1-3.9c-0.2-0.5-0.4-1.1-0.8-1.5c-0.4-0.5-0.8-0.8-1.3-1.1c-1.5-0.9-2.6-2.2-3.1-3.9
			c-0.2-0.5-0.4-1.1-0.8-1.5c-0.4-0.5-0.8-0.8-1.3-1.1c-1.5-0.9-2.6-2.2-3.1-3.9c-0.2-0.5-0.4-1.1-0.8-1.5c-0.4-0.5-0.8-0.8-1.3-1.1
			c-1.5-0.9-2.6-2.2-3.1-3.9c-0.2-0.5-0.4-1.1-0.8-1.5c-0.4-0.5-0.8-0.8-1.3-1.1c-1.5-0.9-2.6-2.2-3.1-3.9c-0.2-0.5-0.4-1.1-0.8-1.5
			c-0.4-0.5-0.8-0.8-1.3-1.1c-1.5-0.9-2.6-2.2-3.1-3.9c-0.2-0.5-0.4-1.1-0.8-1.5c-0.4-0.5-0.8-0.8-1.3-1.1c-1.5-0.9-2.6-2.2-3.1-3.9
			c-0.2-0.5-0.4-1.1-0.8-1.5c-0.4-0.5-0.8-0.8-1.3-1.1c-1.5-0.9-2.6-2.2-3.1-3.9c-0.2-0.5-0.4-1.1-0.8-1.5c-0.4-0.5-0.8-0.8-1.3-1.1
			c-1.5-0.9-2.6-2.2-3.1-3.9C692.2,39.1,691.9,38.6,691.6,38.1z"/>
		<path fill="none" stroke="#D6971A" stroke-miterlimit="10" d="M691.6,38.1c-0.4-0.5-0.9-0.9-1.5-1.2c-1.4-0.8-2.4-2.1-2.9-3.7
			c-0.2-0.5-0.4-1-0.8-1.5c-1.6-2.1-4.7-2.5-6.7-0.9c-2.1,1.6-2.5,4.7-0.8,6.7c0.4,0.5,0.8,0.8,1.3,1.1c1.5,0.9,2.6,2.2,3.1,3.9
			c0.2,0.5,0.4,1.1,0.8,1.5s0.8,0.8,1.3,1.1c1.5,0.9,2.6,2.2,3.1,3.9c0.2,0.5,0.4,1.1,0.8,1.5c0.4,0.5,0.8,0.8,1.3,1.1
			c1.5,0.9,2.6,2.2,3.1,3.9c0.2,0.5,0.4,1.1,0.8,1.5c0.4,0.5,0.8,0.8,1.3,1.1c1.5,0.9,2.6,2.2,3.1,3.9c0.2,0.5,0.4,1.1,0.8,1.5
			c0.4,0.5,0.8,0.8,1.3,1.1c1.5,0.9,2.6,2.2,3.1,3.9c0.2,0.5,0.4,1.1,0.8,1.5s0.8,0.8,1.3,1.1c1.5,0.9,2.6,2.2,3.1,3.9
			c0.2,0.5,0.4,1.1,0.8,1.5c0.4,0.5,0.8,0.8,1.3,1.1c1.5,0.9,2.6,2.2,3.1,3.9c0.2,0.5,0.4,1.1,0.8,1.5c0.4,0.5,0.8,0.8,1.3,1.1
			c1.5,0.9,2.6,2.2,3.1,3.9c0.2,0.5,0.4,1.1,0.8,1.5s0.8,0.8,1.3,1.1c1.5,0.9,2.6,2.2,3.1,3.9c0.2,0.5,0.4,1.1,0.8,1.5
			c0.4,0.5,0.8,0.8,1.3,1.1c1.5,0.9,2.6,2.2,3.1,3.9c0.2,0.5,0.4,1.1,0.8,1.5c0.4,0.5,0.9,0.9,1.5,1.2c1.4,0.8,2.4,2.1,2.9,3.7
			c0.2,0.5,0.4,1,0.8,1.5c1.6,2.1,4.7,2.5,6.7,0.9c2.1-1.6,2.5-4.7,0.8-6.7c-0.4-0.5-0.8-0.8-1.3-1.1c-1.5-0.9-2.6-2.2-3.1-3.9
			c-0.2-0.5-0.4-1.1-0.8-1.5c-0.4-0.5-0.8-0.8-1.3-1.1c-1.5-0.9-2.6-2.2-3.1-3.9c-0.2-0.5-0.4-1.1-0.8-1.5c-0.4-0.5-0.8-0.8-1.3-1.1
			c-1.5-0.9-2.6-2.2-3.1-3.9c-0.2-0.5-0.4-1.1-0.8-1.5c-0.4-0.5-0.8-0.8-1.3-1.1c-1.5-0.9-2.6-2.2-3.1-3.9c-0.2-0.5-0.4-1.1-0.8-1.5
			c-0.4-0.5-0.8-0.8-1.3-1.1c-1.5-0.9-2.6-2.2-3.1-3.9c-0.2-0.5-0.4-1.1-0.8-1.5c-0.4-0.5-0.8-0.8-1.3-1.1c-1.5-0.9-2.6-2.2-3.1-3.9
			c-0.2-0.5-0.4-1.1-0.8-1.5c-0.4-0.5-0.8-0.8-1.3-1.1c-1.5-0.9-2.6-2.2-3.1-3.9c-0.2-0.5-0.4-1.1-0.8-1.5c-0.4-0.5-0.8-0.8-1.3-1.1
			c-1.5-0.9-2.6-2.2-3.1-3.9c-0.2-0.5-0.4-1.1-0.8-1.5c-0.4-0.5-0.8-0.8-1.3-1.1c-1.5-0.9-2.6-2.2-3.1-3.9c-0.2-0.5-0.4-1.1-0.8-1.5
			c-0.4-0.5-0.8-0.8-1.3-1.1c-1.5-0.9-2.6-2.2-3.1-3.9C692.2,39.1,691.9,38.6,691.6,38.1z"/>
	</g>
	<g filter="url(#ds1)">
		<path fill="#F9DA55" d="M682.7,49.3c-0.4-0.5-0.9-0.9-1.5-1.2c-1.4-0.8-2.4-2.1-2.9-3.7c-0.2-0.5-0.4-1-0.8-1.5
			c-1.6-2.1-4.7-2.5-6.7-0.9c-2.1,1.6-2.5,4.7-0.8,6.7c0.4,0.5,0.8,0.8,1.3,1.1c1.5,0.9,2.6,2.2,3.1,3.9c0.2,0.5,0.4,1.1,0.8,1.5
			s0.8,0.8,1.3,1.1c1.5,0.9,2.6,2.2,3.1,3.9c0.2,0.5,0.4,1.1,0.8,1.5c0.4,0.5,0.8,0.8,1.3,1.1c1.5,0.9,2.6,2.2,3.1,3.9
			c0.2,0.5,0.4,1.1,0.8,1.5c0.4,0.5,0.8,0.8,1.3,1.1c1.5,0.9,2.6,2.2,3.1,3.9c0.2,0.5,0.4,1.1,0.8,1.5s0.8,0.8,1.3,1.1
			c1.5,0.9,2.6,2.2,3.1,3.9c0.2,0.5,0.4,1.1,0.8,1.5c0.4,0.5,0.8,0.8,1.3,1.1c1.5,0.9,2.6,2.2,3.1,3.9c0.2,0.5,0.4,1.1,0.8,1.5
			c0.4,0.5,0.8,0.8,1.3,1.1c1.5,0.9,2.6,2.2,3.1,3.9c0.2,0.5,0.4,1.1,0.8,1.5c0.4,0.5,0.8,0.8,1.3,1.1c1.5,0.9,2.6,2.2,3.1,3.9
			c0.2,0.5,0.4,1.1,0.8,1.5s0.8,0.8,1.3,1.1c1.5,0.9,2.6,2.2,3.1,3.9c0.2,0.5,0.4,1.1,0.8,1.5c0.4,0.5,0.8,0.8,1.3,1.1
			c1.5,0.9,2.6,2.2,3.1,3.9c0.2,0.5,0.4,1.1,0.8,1.5c0.4,0.5,0.9,0.9,1.5,1.2c1.4,0.8,2.4,2.1,2.9,3.7c0.2,0.5,0.4,1,0.8,1.5
			c1.6,2.1,4.7,2.5,6.7,0.9c2.1-1.6,2.5-4.7,0.8-6.7c-0.4-0.5-0.8-0.8-1.3-1.1c-1.5-0.9-2.6-2.2-3.1-3.9c-0.2-0.5-0.4-1.1-0.8-1.5
			c-0.4-0.5-0.8-0.8-1.3-1.1c-1.5-0.9-2.6-2.2-3.1-3.9c-0.2-0.5-0.4-1.1-0.8-1.5c-0.4-0.5-0.8-0.8-1.3-1.1c-1.5-0.9-2.6-2.2-3.1-3.9
			c-0.2-0.5-0.4-1.1-0.8-1.5c-0.4-0.5-0.8-0.8-1.3-1.1c-1.5-0.9-2.6-2.2-3.1-3.9c-0.2-0.5-0.4-1.1-0.8-1.5c-0.4-0.5-0.8-0.8-1.3-1.1
			c-1.5-0.9-2.6-2.2-3.1-3.9c-0.2-0.5-0.4-1.1-0.8-1.5c-0.4-0.5-0.8-0.8-1.3-1.1c-1.5-0.9-2.6-2.2-3.1-3.9c-0.2-0.5-0.4-1.1-0.8-1.5
			c-0.4-0.5-0.8-0.8-1.3-1.1c-1.5-0.9-2.6-2.2-3.1-3.9c-0.2-0.5-0.4-1.1-0.8-1.5c-0.4-0.5-0.8-0.8-1.3-1.1c-1.5-0.9-2.6-2.2-3.1-3.9
			c-0.2-0.5-0.4-1.1-0.8-1.5c-0.4-0.5-0.8-0.8-1.3-1.1c-1.5-0.9-2.6-2.2-3.1-3.9c-0.2-0.5-0.4-1.1-0.8-1.5c-0.4-0.5-0.8-0.8-1.3-1.1
			c-1.5-0.9-2.6-2.2-3.1-3.9C683.4,50.3,683.1,49.8,682.7,49.3z"/>
		<path fill="none" stroke="#D6971A" stroke-miterlimit="10" d="M682.7,49.3c-0.4-0.5-0.9-0.9-1.5-1.2c-1.4-0.8-2.4-2.1-2.9-3.7
			c-0.2-0.5-0.4-1-0.8-1.5c-1.6-2.1-4.7-2.5-6.7-0.9c-2.1,1.6-2.5,4.7-0.8,6.7c0.4,0.5,0.8,0.8,1.3,1.1c1.5,0.9,2.6,2.2,3.1,3.9
			c0.2,0.5,0.4,1.1,0.8,1.5s0.8,0.8,1.3,1.1c1.5,0.9,2.6,2.2,3.1,3.9c0.2,0.5,0.4,1.1,0.8,1.5c0.4,0.5,0.8,0.8,1.3,1.1
			c1.5,0.9,2.6,2.2,3.1,3.9c0.2,0.5,0.4,1.1,0.8,1.5c0.4,0.5,0.8,0.8,1.3,1.1c1.5,0.9,2.6,2.2,3.1,3.9c0.2,0.5,0.4,1.1,0.8,1.5
			s0.8,0.8,1.3,1.1c1.5,0.9,2.6,2.2,3.1,3.9c0.2,0.5,0.4,1.1,0.8,1.5c0.4,0.5,0.8,0.8,1.3,1.1c1.5,0.9,2.6,2.2,3.1,3.9
			c0.2,0.5,0.4,1.1,0.8,1.5c0.4,0.5,0.8,0.8,1.3,1.1c1.5,0.9,2.6,2.2,3.1,3.9c0.2,0.5,0.4,1.1,0.8,1.5c0.4,0.5,0.8,0.8,1.3,1.1
			c1.5,0.9,2.6,2.2,3.1,3.9c0.2,0.5,0.4,1.1,0.8,1.5s0.8,0.8,1.3,1.1c1.5,0.9,2.6,2.2,3.1,3.9c0.2,0.5,0.4,1.1,0.8,1.5
			c0.4,0.5,0.8,0.8,1.3,1.1c1.5,0.9,2.6,2.2,3.1,3.9c0.2,0.5,0.4,1.1,0.8,1.5c0.4,0.5,0.9,0.9,1.5,1.2c1.4,0.8,2.4,2.1,2.9,3.7
			c0.2,0.5,0.4,1,0.8,1.5c1.6,2.1,4.7,2.5,6.7,0.9c2.1-1.6,2.5-4.7,0.8-6.7c-0.4-0.5-0.8-0.8-1.3-1.1c-1.5-0.9-2.6-2.2-3.1-3.9
			c-0.2-0.5-0.4-1.1-0.8-1.5c-0.4-0.5-0.8-0.8-1.3-1.1c-1.5-0.9-2.6-2.2-3.1-3.9c-0.2-0.5-0.4-1.1-0.8-1.5c-0.4-0.5-0.8-0.8-1.3-1.1
			c-1.5-0.9-2.6-2.2-3.1-3.9c-0.2-0.5-0.4-1.1-0.8-1.5c-0.4-0.5-0.8-0.8-1.3-1.1c-1.5-0.9-2.6-2.2-3.1-3.9c-0.2-0.5-0.4-1.1-0.8-1.5
			c-0.4-0.5-0.8-0.8-1.3-1.1c-1.5-0.9-2.6-2.2-3.1-3.9c-0.2-0.5-0.4-1.1-0.8-1.5c-0.4-0.5-0.8-0.8-1.3-1.1c-1.5-0.9-2.6-2.2-3.1-3.9
			c-0.2-0.5-0.4-1.1-0.8-1.5c-0.4-0.5-0.8-0.8-1.3-1.1c-1.5-0.9-2.6-2.2-3.1-3.9c-0.2-0.5-0.4-1.1-0.8-1.5c-0.4-0.5-0.8-0.8-1.3-1.1
			c-1.5-0.9-2.6-2.2-3.1-3.9c-0.2-0.5-0.4-1.1-0.8-1.5c-0.4-0.5-0.8-0.8-1.3-1.1c-1.5-0.9-2.6-2.2-3.1-3.9c-0.2-0.5-0.4-1.1-0.8-1.5
			c-0.4-0.5-0.8-0.8-1.3-1.1c-1.5-0.9-2.6-2.2-3.1-3.9C683.4,50.3,683.1,49.8,682.7,49.3z"/>
	</g>
	<g filter="url(#ds1)">
		<path fill="#F49F38" d="M677,38.1c0,0-0.1,0.1-0.1,0.1c-1,0.7-2.3,1-3.2,1.7c-1,0.8-1.6,2.1-2.6,2.9c-1,0.8-2.5,0.9-3.5,1.8
			c-0.9,0.8-1.4,2.1-2.4,2.9c-1.9,1.5-4.6,1.2-6.1-0.7c-1.5-1.9-1.2-4.6,0.7-6.1c0.7-0.6,1.5-0.7,2.3-1c0.8-0.3,1.7-1,2.2-1.8
			c0.4-0.7,0.6-1.4,1.3-1.9c1-0.8,2.3-0.7,3.4-1.4c1.2-0.8,1.4-2.4,2.5-3.3c1.9-1.5,4.6-1.2,6.1,0.7C679.2,33.8,678.9,36.6,677,38.1
			z"/>
		<path fill="none" stroke="#C66320" stroke-miterlimit="10" d="M677,38.1c0,0-0.1,0.1-0.1,0.1c-1,0.7-2.3,1-3.2,1.7
			c-1,0.8-1.6,2.1-2.6,2.9c-1,0.8-2.5,0.9-3.5,1.8c-0.9,0.8-1.4,2.1-2.4,2.9c-1.9,1.5-4.6,1.2-6.1-0.7c-1.5-1.9-1.2-4.6,0.7-6.1
			c0.7-0.6,1.5-0.7,2.3-1c0.8-0.3,1.7-1,2.2-1.8c0.4-0.7,0.6-1.4,1.3-1.9c1-0.8,2.3-0.7,3.4-1.4c1.2-0.8,1.4-2.4,2.5-3.3
			c1.9-1.5,4.6-1.2,6.1,0.7C679.2,33.8,678.9,36.6,677,38.1z"/>
	</g>
</g>
<g>
	<g filter="url(#ds1)">
		<path fill="#F9DA55" d="M631.6,95.5c-0.6-0.2-1.3-0.3-1.9-0.2c-1.6,0.2-3.2-0.4-4.4-1.4c-0.4-0.3-0.9-0.6-1.5-0.8
			c-2.5-0.9-5.3,0.5-6.1,3c-0.8,2.5,0.6,5.2,3.1,6c0.6,0.2,1.2,0.2,1.7,0.2c1.7-0.1,3.4,0.4,4.7,1.5c0.4,0.4,1,0.6,1.5,0.8
			c0.6,0.2,1.2,0.2,1.7,0.2c1.7-0.1,3.4,0.4,4.7,1.5c0.4,0.4,1,0.6,1.5,0.8c0.6,0.2,1.2,0.2,1.7,0.2c1.7-0.1,3.4,0.4,4.7,1.5
			c0.4,0.4,1,0.6,1.5,0.8c0.6,0.2,1.2,0.2,1.7,0.2c1.7-0.1,3.4,0.4,4.7,1.5c0.4,0.4,1,0.6,1.5,0.8s1.2,0.2,1.7,0.2
			c1.7-0.1,3.4,0.4,4.7,1.5c0.4,0.4,1,0.6,1.5,0.8s1.2,0.2,1.7,0.2c1.7-0.1,3.4,0.4,4.7,1.5c0.4,0.4,1,0.6,1.5,0.8
			c0.6,0.2,1.2,0.2,1.7,0.2c1.7-0.1,3.4,0.4,4.7,1.5c0.4,0.4,1,0.6,1.5,0.8c0.6,0.2,1.2,0.2,1.7,0.2c1.7-0.1,3.4,0.4,4.7,1.5
			c0.4,0.4,1,0.6,1.5,0.8s1.2,0.2,1.7,0.2c1.7-0.1,3.4,0.4,4.7,1.5c0.4,0.4,1,0.6,1.5,0.8c0.6,0.2,1.2,0.2,1.7,0.2
			c1.7-0.1,3.4,0.4,4.7,1.5c0.4,0.4,1,0.6,1.5,0.8c0.6,0.2,1.3,0.3,1.9,0.2c1.6-0.2,3.2,0.4,4.4,1.4c0.4,0.3,0.9,0.6,1.5,0.8
			c2.5,0.9,5.3-0.5,6.1-3c0.8-2.5-0.6-5.2-3.1-6c-0.6-0.2-1.2-0.2-1.7-0.2c-1.7,0.1-3.4-0.4-4.7-1.5c-0.4-0.4-1-0.6-1.5-0.8
			c-0.6-0.2-1.2-0.2-1.7-0.2c-1.7,0.1-3.4-0.4-4.7-1.5c-0.4-0.4-1-0.6-1.5-0.8c-0.6-0.2-1.2-0.2-1.7-0.2c-1.7,0.1-3.4-0.4-4.7-1.5
			c-0.4-0.4-1-0.6-1.5-0.8s-1.2-0.2-1.7-0.2c-1.7,0.1-3.4-0.4-4.7-1.5c-0.4-0.4-1-0.6-1.5-0.8c-0.6-0.2-1.2-0.2-1.7-0.2
			c-1.7,0.1-3.4-0.4-4.7-1.5c-0.4-0.4-1-0.6-1.5-0.8c-0.6-0.2-1.2-0.2-1.7-0.2c-1.7,0.1-3.4-0.4-4.7-1.5c-0.4-0.4-1-0.6-1.5-0.8
			s-1.2-0.2-1.7-0.2c-1.7,0.1-3.4-0.4-4.7-1.5c-0.4-0.4-1-0.6-1.5-0.8s-1.2-0.2-1.7-0.2c-1.7,0.1-3.4-0.4-4.7-1.5
			c-0.4-0.4-1-0.6-1.5-0.8c-0.6-0.2-1.2-0.2-1.7-0.2c-1.7,0.1-3.4-0.4-4.7-1.5c-0.4-0.4-1-0.6-1.5-0.8c-0.6-0.2-1.2-0.2-1.7-0.2
			c-1.7,0.1-3.4-0.4-4.7-1.5C632.7,95.9,632.2,95.6,631.6,95.5z"/>
		<path fill="none" stroke="#D6971A" stroke-miterlimit="10" d="M631.6,95.5c-0.6-0.2-1.3-0.3-1.9-0.2c-1.6,0.2-3.2-0.4-4.4-1.4
			c-0.4-0.3-0.9-0.6-1.5-0.8c-2.5-0.9-5.3,0.5-6.1,3c-0.8,2.5,0.6,5.2,3.1,6c0.6,0.2,1.2,0.2,1.7,0.2c1.7-0.1,3.4,0.4,4.7,1.5
			c0.4,0.4,1,0.6,1.5,0.8c0.6,0.2,1.2,0.2,1.7,0.2c1.7-0.1,3.4,0.4,4.7,1.5c0.4,0.4,1,0.6,1.5,0.8c0.6,0.2,1.2,0.2,1.7,0.2
			c1.7-0.1,3.4,0.4,4.7,1.5c0.4,0.4,1,0.6,1.5,0.8c0.6,0.2,1.2,0.2,1.7,0.2c1.7-0.1,3.4,0.4,4.7,1.5c0.4,0.4,1,0.6,1.5,0.8
			s1.2,0.2,1.7,0.2c1.7-0.1,3.4,0.4,4.7,1.5c0.4,0.4,1,0.6,1.5,0.8s1.2,0.2,1.7,0.2c1.7-0.1,3.4,0.4,4.7,1.5c0.4,0.4,1,0.6,1.5,0.8
			c0.6,0.2,1.2,0.2,1.7,0.2c1.7-0.1,3.4,0.4,4.7,1.5c0.4,0.4,1,0.6,1.5,0.8c0.6,0.2,1.2,0.2,1.7,0.2c1.7-0.1,3.4,0.4,4.7,1.5
			c0.4,0.4,1,0.6,1.5,0.8s1.2,0.2,1.7,0.2c1.7-0.1,3.4,0.4,4.7,1.5c0.4,0.4,1,0.6,1.5,0.8c0.6,0.2,1.2,0.2,1.7,0.2
			c1.7-0.1,3.4,0.4,4.7,1.5c0.4,0.4,1,0.6,1.5,0.8c0.6,0.2,1.3,0.3,1.9,0.2c1.6-0.2,3.2,0.4,4.4,1.4c0.4,0.3,0.9,0.6,1.5,0.8
			c2.5,0.9,5.3-0.5,6.1-3c0.8-2.5-0.6-5.2-3.1-6c-0.6-0.2-1.2-0.2-1.7-0.2c-1.7,0.1-3.4-0.4-4.7-1.5c-0.4-0.4-1-0.6-1.5-0.8
			c-0.6-0.2-1.2-0.2-1.7-0.2c-1.7,0.1-3.4-0.4-4.7-1.5c-0.4-0.4-1-0.6-1.5-0.8c-0.6-0.2-1.2-0.2-1.7-0.2c-1.7,0.1-3.4-0.4-4.7-1.5
			c-0.4-0.4-1-0.6-1.5-0.8s-1.2-0.2-1.7-0.2c-1.7,0.1-3.4-0.4-4.7-1.5c-0.4-0.4-1-0.6-1.5-0.8c-0.6-0.2-1.2-0.2-1.7-0.2
			c-1.7,0.1-3.4-0.4-4.7-1.5c-0.4-0.4-1-0.6-1.5-0.8c-0.6-0.2-1.2-0.2-1.7-0.2c-1.7,0.1-3.4-0.4-4.7-1.5c-0.4-0.4-1-0.6-1.5-0.8
			s-1.2-0.2-1.7-0.2c-1.7,0.1-3.4-0.4-4.7-1.5c-0.4-0.4-1-0.6-1.5-0.8s-1.2-0.2-1.7-0.2c-1.7,0.1-3.4-0.4-4.7-1.5
			c-0.4-0.4-1-0.6-1.5-0.8c-0.6-0.2-1.2-0.2-1.7-0.2c-1.7,0.1-3.4-0.4-4.7-1.5c-0.4-0.4-1-0.6-1.5-0.8c-0.6-0.2-1.2-0.2-1.7-0.2
			c-1.7,0.1-3.4-0.4-4.7-1.5C632.7,95.9,632.2,95.6,631.6,95.5z"/>
	</g>
	<g filter="url(#ds1)">
		<path fill="#F9DA55" d="M640,68.5c-0.6-0.2-1.3-0.3-1.9-0.2c-1.6,0.2-3.2-0.4-4.4-1.4c-0.4-0.3-0.9-0.6-1.5-0.8
			c-2.5-0.9-5.3,0.5-6.1,3c-0.8,2.5,0.6,5.2,3.1,6c0.6,0.2,1.2,0.2,1.7,0.2c1.7-0.1,3.4,0.4,4.7,1.5c0.4,0.4,1,0.6,1.5,0.8
			c0.6,0.2,1.2,0.2,1.7,0.2c1.7-0.1,3.4,0.4,4.7,1.5c0.4,0.4,1,0.6,1.5,0.8c0.6,0.2,1.2,0.2,1.7,0.2c1.7-0.1,3.4,0.4,4.7,1.5
			c0.4,0.4,1,0.6,1.5,0.8s1.2,0.2,1.7,0.2c1.7-0.1,3.4,0.4,4.7,1.5c0.4,0.4,1,0.6,1.5,0.8c0.6,0.2,1.2,0.2,1.7,0.2
			c1.7-0.1,3.4,0.4,4.7,1.5c0.4,0.4,1,0.6,1.5,0.8s1.2,0.2,1.7,0.2c1.7-0.1,3.4,0.4,4.7,1.5c0.4,0.4,1,0.6,1.5,0.8
			c0.6,0.2,1.2,0.2,1.7,0.2c1.7-0.1,3.4,0.4,4.7,1.5c0.4,0.4,1,0.6,1.5,0.8c0.6,0.2,1.2,0.2,1.7,0.2c1.7-0.1,3.4,0.4,4.7,1.5
			c0.4,0.4,1,0.6,1.5,0.8s1.2,0.2,1.7,0.2c1.7-0.1,3.4,0.4,4.7,1.5c0.4,0.4,1,0.6,1.5,0.8c0.6,0.2,1.2,0.2,1.7,0.2
			c1.7-0.1,3.4,0.4,4.7,1.5c0.4,0.4,1,0.6,1.5,0.8c0.6,0.2,1.3,0.3,1.9,0.2c1.6-0.2,3.2,0.4,4.4,1.4c0.4,0.3,0.9,0.6,1.5,0.8
			c2.5,0.9,5.3-0.5,6.1-3c0.8-2.5-0.6-5.2-3.1-6c-0.6-0.2-1.2-0.2-1.7-0.2c-1.7,0.1-3.4-0.4-4.7-1.5c-0.4-0.4-1-0.6-1.5-0.8
			c-0.6-0.2-1.2-0.2-1.7-0.2c-1.7,0.1-3.4-0.4-4.7-1.5c-0.4-0.4-1-0.6-1.5-0.8c-0.6-0.2-1.2-0.2-1.7-0.2c-1.7,0.1-3.4-0.4-4.7-1.5
			c-0.4-0.4-1-0.6-1.5-0.8c-0.6-0.2-1.2-0.2-1.7-0.2c-1.7,0.1-3.4-0.4-4.7-1.5c-0.4-0.4-1-0.6-1.5-0.8c-0.6-0.2-1.2-0.2-1.7-0.2
			c-1.7,0.1-3.4-0.4-4.7-1.5c-0.4-0.4-1-0.6-1.5-0.8c-0.6-0.2-1.2-0.2-1.7-0.2c-1.7,0.1-3.4-0.4-4.7-1.5c-0.4-0.4-1-0.6-1.5-0.8
			s-1.2-0.2-1.7-0.2c-1.7,0.1-3.4-0.4-4.7-1.5c-0.4-0.4-1-0.6-1.5-0.8s-1.2-0.2-1.7-0.2c-1.7,0.1-3.4-0.4-4.7-1.5
			c-0.4-0.4-1-0.6-1.5-0.8c-0.6-0.2-1.2-0.2-1.7-0.2c-1.7,0.1-3.4-0.4-4.7-1.5c-0.4-0.4-1-0.6-1.5-0.8c-0.6-0.2-1.2-0.2-1.7-0.2
			c-1.7,0.1-3.4-0.4-4.7-1.5C641,69,640.5,68.7,640,68.5z"/>
		<path fill="none" stroke="#D6971A" stroke-miterlimit="10" d="M640,68.5c-0.6-0.2-1.3-0.3-1.9-0.2c-1.6,0.2-3.2-0.4-4.4-1.4
			c-0.4-0.3-0.9-0.6-1.5-0.8c-2.5-0.9-5.3,0.5-6.1,3c-0.8,2.5,0.6,5.2,3.1,6c0.6,0.2,1.2,0.2,1.7,0.2c1.7-0.1,3.4,0.4,4.7,1.5
			c0.4,0.4,1,0.6,1.5,0.8c0.6,0.2,1.2,0.2,1.7,0.2c1.7-0.1,3.4,0.4,4.7,1.5c0.4,0.4,1,0.6,1.5,0.8c0.6,0.2,1.2,0.2,1.7,0.2
			c1.7-0.1,3.4,0.4,4.7,1.5c0.4,0.4,1,0.6,1.5,0.8s1.2,0.2,1.7,0.2c1.7-0.1,3.4,0.4,4.7,1.5c0.4,0.4,1,0.6,1.5,0.8
			c0.6,0.2,1.2,0.2,1.7,0.2c1.7-0.1,3.4,0.4,4.7,1.5c0.4,0.4,1,0.6,1.5,0.8s1.2,0.2,1.7,0.2c1.7-0.1,3.4,0.4,4.7,1.5
			c0.4,0.4,1,0.6,1.5,0.8c0.6,0.2,1.2,0.2,1.7,0.2c1.7-0.1,3.4,0.4,4.7,1.5c0.4,0.4,1,0.6,1.5,0.8c0.6,0.2,1.2,0.2,1.7,0.2
			c1.7-0.1,3.4,0.4,4.7,1.5c0.4,0.4,1,0.6,1.5,0.8s1.2,0.2,1.7,0.2c1.7-0.1,3.4,0.4,4.7,1.5c0.4,0.4,1,0.6,1.5,0.8
			c0.6,0.2,1.2,0.2,1.7,0.2c1.7-0.1,3.4,0.4,4.7,1.5c0.4,0.4,1,0.6,1.5,0.8c0.6,0.2,1.3,0.3,1.9,0.2c1.6-0.2,3.2,0.4,4.4,1.4
			c0.4,0.3,0.9,0.6,1.5,0.8c2.5,0.9,5.3-0.5,6.1-3c0.8-2.5-0.6-5.2-3.1-6c-0.6-0.2-1.2-0.2-1.7-0.2c-1.7,0.1-3.4-0.4-4.7-1.5
			c-0.4-0.4-1-0.6-1.5-0.8c-0.6-0.2-1.2-0.2-1.7-0.2c-1.7,0.1-3.4-0.4-4.7-1.5c-0.4-0.4-1-0.6-1.5-0.8c-0.6-0.2-1.2-0.2-1.7-0.2
			c-1.7,0.1-3.4-0.4-4.7-1.5c-0.4-0.4-1-0.6-1.5-0.8c-0.6-0.2-1.2-0.2-1.7-0.2c-1.7,0.1-3.4-0.4-4.7-1.5c-0.4-0.4-1-0.6-1.5-0.8
			c-0.6-0.2-1.2-0.2-1.7-0.2c-1.7,0.1-3.4-0.4-4.7-1.5c-0.4-0.4-1-0.6-1.5-0.8c-0.6-0.2-1.2-0.2-1.7-0.2c-1.7,0.1-3.4-0.4-4.7-1.5
			c-0.4-0.4-1-0.6-1.5-0.8s-1.2-0.2-1.7-0.2c-1.7,0.1-3.4-0.4-4.7-1.5c-0.4-0.4-1-0.6-1.5-0.8s-1.2-0.2-1.7-0.2
			c-1.7,0.1-3.4-0.4-4.7-1.5c-0.4-0.4-1-0.6-1.5-0.8c-0.6-0.2-1.2-0.2-1.7-0.2c-1.7,0.1-3.4-0.4-4.7-1.5c-0.4-0.4-1-0.6-1.5-0.8
			c-0.6-0.2-1.2-0.2-1.7-0.2c-1.7,0.1-3.4-0.4-4.7-1.5C641,69,640.5,68.7,640,68.5z"/>
	</g>
	<g filter="url(#ds1)">
		<path fill="#F9DA55" d="M639,82.8c-0.6-0.2-1.3-0.3-1.9-0.2c-1.6,0.2-3.2-0.4-4.4-1.4c-0.4-0.3-0.9-0.6-1.5-0.8
			c-2.5-0.9-5.3,0.5-6.1,3c-0.8,2.5,0.6,5.2,3.1,6c0.6,0.2,1.2,0.2,1.7,0.2c1.7-0.1,3.4,0.4,4.7,1.5c0.4,0.4,1,0.6,1.5,0.8
			c0.6,0.2,1.2,0.2,1.7,0.2c1.7-0.1,3.4,0.4,4.7,1.5c0.4,0.4,1,0.6,1.5,0.8c0.6,0.2,1.2,0.2,1.7,0.2c1.7-0.1,3.4,0.4,4.7,1.5
			c0.4,0.4,1,0.6,1.5,0.8c0.6,0.2,1.2,0.2,1.7,0.2c1.7-0.1,3.4,0.4,4.7,1.5c0.4,0.4,1,0.6,1.5,0.8c0.6,0.2,1.2,0.2,1.7,0.2
			c1.7-0.1,3.4,0.4,4.7,1.5c0.4,0.4,1,0.6,1.5,0.8c0.6,0.2,1.2,0.2,1.7,0.2c1.7-0.1,3.4,0.4,4.7,1.5c0.4,0.4,1,0.6,1.5,0.8
			c0.6,0.2,1.2,0.2,1.7,0.2c1.7-0.1,3.4,0.4,4.7,1.5c0.4,0.4,1,0.6,1.5,0.8c0.6,0.2,1.2,0.2,1.7,0.2c1.7-0.1,3.4,0.4,4.7,1.5
			c0.4,0.4,1,0.6,1.5,0.8c0.6,0.2,1.2,0.2,1.7,0.2c1.7-0.1,3.4,0.4,4.7,1.5c0.4,0.4,1,0.6,1.5,0.8c0.6,0.2,1.2,0.2,1.7,0.2
			c1.7-0.1,3.4,0.4,4.7,1.5c0.4,0.4,1,0.6,1.5,0.8c0.6,0.2,1.3,0.3,1.9,0.2c1.6-0.2,3.2,0.4,4.4,1.4c0.4,0.3,0.9,0.6,1.5,0.8
			c2.5,0.9,5.3-0.5,6.1-3c0.8-2.5-0.6-5.2-3.1-6c-0.6-0.2-1.2-0.2-1.7-0.2c-1.7,0.1-3.4-0.4-4.7-1.5c-0.4-0.4-1-0.6-1.5-0.8
			c-0.6-0.2-1.2-0.2-1.7-0.2c-1.7,0.1-3.4-0.4-4.7-1.5c-0.4-0.4-1-0.6-1.5-0.8c-0.6-0.2-1.2-0.2-1.7-0.2c-1.7,0.1-3.4-0.4-4.7-1.5
			c-0.4-0.4-1-0.6-1.5-0.8c-0.6-0.2-1.2-0.2-1.7-0.2c-1.7,0.1-3.4-0.4-4.7-1.5c-0.4-0.4-1-0.6-1.5-0.8c-0.6-0.2-1.2-0.2-1.7-0.2
			c-1.7,0.1-3.4-0.4-4.7-1.5c-0.4-0.4-1-0.6-1.5-0.8c-0.6-0.2-1.2-0.2-1.7-0.2c-1.7,0.1-3.4-0.4-4.7-1.5c-0.4-0.4-1-0.6-1.5-0.8
			c-0.6-0.2-1.2-0.2-1.7-0.2c-1.7,0.1-3.4-0.4-4.7-1.5c-0.4-0.4-1-0.6-1.5-0.8c-0.6-0.2-1.2-0.2-1.7-0.2c-1.7,0.1-3.4-0.4-4.7-1.5
			c-0.4-0.4-1-0.6-1.5-0.8s-1.2-0.2-1.7-0.2c-1.7,0.1-3.4-0.4-4.7-1.5c-0.4-0.4-1-0.6-1.5-0.8c-0.6-0.2-1.2-0.2-1.7-0.2
			c-1.7,0.1-3.4-0.4-4.7-1.5C640,83.2,639.5,83,639,82.8z"/>
		<path fill="none" stroke="#D6971A" stroke-miterlimit="10" d="M639,82.8c-0.6-0.2-1.3-0.3-1.9-0.2c-1.6,0.2-3.2-0.4-4.4-1.4
			c-0.4-0.3-0.9-0.6-1.5-0.8c-2.5-0.9-5.3,0.5-6.1,3c-0.8,2.5,0.6,5.2,3.1,6c0.6,0.2,1.2,0.2,1.7,0.2c1.7-0.1,3.4,0.4,4.7,1.5
			c0.4,0.4,1,0.6,1.5,0.8c0.6,0.2,1.2,0.2,1.7,0.2c1.7-0.1,3.4,0.4,4.7,1.5c0.4,0.4,1,0.6,1.5,0.8c0.6,0.2,1.2,0.2,1.7,0.2
			c1.7-0.1,3.4,0.4,4.7,1.5c0.4,0.4,1,0.6,1.5,0.8c0.6,0.2,1.2,0.2,1.7,0.2c1.7-0.1,3.4,0.4,4.7,1.5c0.4,0.4,1,0.6,1.5,0.8
			c0.6,0.2,1.2,0.2,1.7,0.2c1.7-0.1,3.4,0.4,4.7,1.5c0.4,0.4,1,0.6,1.5,0.8c0.6,0.2,1.2,0.2,1.7,0.2c1.7-0.1,3.4,0.4,4.7,1.5
			c0.4,0.4,1,0.6,1.5,0.8c0.6,0.2,1.2,0.2,1.7,0.2c1.7-0.1,3.4,0.4,4.7,1.5c0.4,0.4,1,0.6,1.5,0.8c0.6,0.2,1.2,0.2,1.7,0.2
			c1.7-0.1,3.4,0.4,4.7,1.5c0.4,0.4,1,0.6,1.5,0.8c0.6,0.2,1.2,0.2,1.7,0.2c1.7-0.1,3.4,0.4,4.7,1.5c0.4,0.4,1,0.6,1.5,0.8
			c0.6,0.2,1.2,0.2,1.7,0.2c1.7-0.1,3.4,0.4,4.7,1.5c0.4,0.4,1,0.6,1.5,0.8c0.6,0.2,1.3,0.3,1.9,0.2c1.6-0.2,3.2,0.4,4.4,1.4
			c0.4,0.3,0.9,0.6,1.5,0.8c2.5,0.9,5.3-0.5,6.1-3c0.8-2.5-0.6-5.2-3.1-6c-0.6-0.2-1.2-0.2-1.7-0.2c-1.7,0.1-3.4-0.4-4.7-1.5
			c-0.4-0.4-1-0.6-1.5-0.8c-0.6-0.2-1.2-0.2-1.7-0.2c-1.7,0.1-3.4-0.4-4.7-1.5c-0.4-0.4-1-0.6-1.5-0.8c-0.6-0.2-1.2-0.2-1.7-0.2
			c-1.7,0.1-3.4-0.4-4.7-1.5c-0.4-0.4-1-0.6-1.5-0.8c-0.6-0.2-1.2-0.2-1.7-0.2c-1.7,0.1-3.4-0.4-4.7-1.5c-0.4-0.4-1-0.6-1.5-0.8
			c-0.6-0.2-1.2-0.2-1.7-0.2c-1.7,0.1-3.4-0.4-4.7-1.5c-0.4-0.4-1-0.6-1.5-0.8c-0.6-0.2-1.2-0.2-1.7-0.2c-1.7,0.1-3.4-0.4-4.7-1.5
			c-0.4-0.4-1-0.6-1.5-0.8c-0.6-0.2-1.2-0.2-1.7-0.2c-1.7,0.1-3.4-0.4-4.7-1.5c-0.4-0.4-1-0.6-1.5-0.8c-0.6-0.2-1.2-0.2-1.7-0.2
			c-1.7,0.1-3.4-0.4-4.7-1.5c-0.4-0.4-1-0.6-1.5-0.8s-1.2-0.2-1.7-0.2c-1.7,0.1-3.4-0.4-4.7-1.5c-0.4-0.4-1-0.6-1.5-0.8
			c-0.6-0.2-1.2-0.2-1.7-0.2c-1.7,0.1-3.4-0.4-4.7-1.5C640,83.2,639.5,83,639,82.8z"/>
	</g>
	<g filter="url(#ds1)">
		<path fill="#F49F38" d="M627.9,76.7c0,0,0,0.1,0,0.1c-0.4,1.2-1.3,2.1-1.7,3.2c-0.4,1.2-0.1,2.6-0.5,3.8c-0.4,1.3-1.6,2.2-1.9,3.4
			c-0.3,1.2,0,2.5-0.3,3.7c-0.7,2.3-3.2,3.6-5.5,2.9c-2.3-0.7-3.6-3.2-2.9-5.5c0.3-0.9,0.9-1.4,1.4-2.1c0.5-0.8,0.9-1.8,0.8-2.7
			c0-0.8-0.2-1.5,0-2.3c0.4-1.2,1.5-1.9,2-3c0.6-1.3-0.2-2.8,0.2-4.2c0.7-2.3,3.2-3.6,5.5-2.9C627.3,71.9,628.6,74.4,627.9,76.7z"/>
		<path fill="none" stroke="#C66320" stroke-miterlimit="10" d="M627.9,76.7c0,0,0,0.1,0,0.1c-0.4,1.2-1.3,2.1-1.7,3.2
			c-0.4,1.2-0.1,2.6-0.5,3.8c-0.4,1.3-1.6,2.2-1.9,3.4c-0.3,1.2,0,2.5-0.3,3.7c-0.7,2.3-3.2,3.6-5.5,2.9c-2.3-0.7-3.6-3.2-2.9-5.5
			c0.3-0.9,0.9-1.4,1.4-2.1c0.5-0.8,0.9-1.8,0.8-2.7c0-0.8-0.2-1.5,0-2.3c0.4-1.2,1.5-1.9,2-3c0.6-1.3-0.2-2.8,0.2-4.2
			c0.7-2.3,3.2-3.6,5.5-2.9C627.3,71.9,628.6,74.4,627.9,76.7z"/>
	</g>
</g>
<g>
	<g filter="url(#ds1)">
		<path fill="#F9DA55" d="M772.9,80.8c0.6,0.3,1.2,0.5,1.8,0.6c1.6,0.2,3,1.1,4,2.3c0.3,0.4,0.8,0.8,1.3,1.1
			c2.2,1.4,5.3,0.6,6.6-1.7c1.3-2.3,0.5-5.2-1.8-6.5c-0.5-0.3-1.1-0.5-1.6-0.6c-1.7-0.3-3.2-1.1-4.3-2.4c-0.4-0.4-0.8-0.8-1.3-1.1
			s-1.1-0.5-1.6-0.6c-1.7-0.3-3.2-1.1-4.3-2.4c-0.4-0.4-0.8-0.8-1.3-1.1c-0.5-0.3-1.1-0.5-1.6-0.6c-1.7-0.3-3.2-1.1-4.3-2.4
			c-0.4-0.4-0.8-0.8-1.3-1.1c-0.5-0.3-1.1-0.5-1.6-0.6c-1.7-0.3-3.2-1.1-4.3-2.4c-0.4-0.4-0.8-0.8-1.3-1.1c-0.5-0.3-1.1-0.5-1.6-0.6
			c-1.7-0.3-3.2-1.1-4.3-2.4c-0.4-0.4-0.8-0.8-1.3-1.1s-1.1-0.5-1.6-0.6c-1.7-0.3-3.2-1.1-4.3-2.4c-0.4-0.4-0.8-0.8-1.3-1.1
			c-0.5-0.3-1.1-0.5-1.6-0.6c-1.7-0.3-3.2-1.1-4.3-2.4c-0.4-0.4-0.8-0.8-1.3-1.1c-0.5-0.3-1.1-0.5-1.6-0.6c-1.7-0.3-3.2-1.1-4.3-2.4
			c-0.4-0.4-0.8-0.8-1.3-1.1c-0.5-0.3-1.1-0.5-1.6-0.6c-1.7-0.3-3.2-1.1-4.3-2.4c-0.4-0.4-0.8-0.8-1.3-1.1c-0.5-0.3-1.1-0.5-1.6-0.6
			c-1.7-0.3-3.2-1.1-4.3-2.4c-0.4-0.4-0.8-0.8-1.3-1.1c-0.6-0.3-1.2-0.5-1.8-0.6c-1.6-0.2-3-1.1-4-2.3c-0.3-0.4-0.8-0.8-1.3-1.1
			c-2.2-1.4-5.3-0.6-6.6,1.7c-1.3,2.3-0.5,5.2,1.8,6.5c0.5,0.3,1.1,0.5,1.6,0.6c1.7,0.3,3.2,1.1,4.3,2.4c0.4,0.4,0.8,0.8,1.3,1.1
			c0.5,0.3,1.1,0.5,1.6,0.6c1.7,0.3,3.2,1.1,4.3,2.4c0.4,0.4,0.8,0.8,1.3,1.1c0.5,0.3,1.1,0.5,1.6,0.6c1.7,0.3,3.2,1.1,4.3,2.4
			c0.4,0.4,0.8,0.8,1.3,1.1c0.5,0.3,1.1,0.5,1.6,0.6c1.7,0.3,3.2,1.1,4.3,2.4c0.4,0.4,0.8,0.8,1.3,1.1c0.5,0.3,1.1,0.5,1.6,0.6
			c1.7,0.3,3.2,1.1,4.3,2.4c0.4,0.4,0.8,0.8,1.3,1.1c0.5,0.3,1.1,0.5,1.6,0.6c1.7,0.3,3.2,1.1,4.3,2.4c0.4,0.4,0.8,0.8,1.3,1.1
			s1.1,0.5,1.6,0.6c1.7,0.3,3.2,1.1,4.3,2.4c0.4,0.4,0.8,0.8,1.3,1.1c0.5,0.3,1.1,0.5,1.6,0.6c1.7,0.3,3.2,1.1,4.3,2.4
			c0.4,0.4,0.8,0.8,1.3,1.1c0.5,0.3,1.1,0.5,1.6,0.6c1.7,0.3,3.2,1.1,4.3,2.4c0.4,0.4,0.8,0.8,1.3,1.1c0.5,0.3,1.1,0.5,1.6,0.6
			c1.7,0.3,3.2,1.1,4.3,2.4C771.9,80.1,772.4,80.5,772.9,80.8z"/>
		<path fill="none" stroke="#D6971A" stroke-miterlimit="10" d="M772.9,80.8c0.6,0.3,1.2,0.5,1.8,0.6c1.6,0.2,3,1.1,4,2.3
			c0.3,0.4,0.8,0.8,1.3,1.1c2.2,1.4,5.3,0.6,6.6-1.7c1.3-2.3,0.5-5.2-1.8-6.5c-0.5-0.3-1.1-0.5-1.6-0.6c-1.7-0.3-3.2-1.1-4.3-2.4
			c-0.4-0.4-0.8-0.8-1.3-1.1s-1.1-0.5-1.6-0.6c-1.7-0.3-3.2-1.1-4.3-2.4c-0.4-0.4-0.8-0.8-1.3-1.1c-0.5-0.3-1.1-0.5-1.6-0.6
			c-1.7-0.3-3.2-1.1-4.3-2.4c-0.4-0.4-0.8-0.8-1.3-1.1c-0.5-0.3-1.1-0.5-1.6-0.6c-1.7-0.3-3.2-1.1-4.3-2.4c-0.4-0.4-0.8-0.8-1.3-1.1
			c-0.5-0.3-1.1-0.5-1.6-0.6c-1.7-0.3-3.2-1.1-4.3-2.4c-0.4-0.4-0.8-0.8-1.3-1.1s-1.1-0.5-1.6-0.6c-1.7-0.3-3.2-1.1-4.3-2.4
			c-0.4-0.4-0.8-0.8-1.3-1.1c-0.5-0.3-1.1-0.5-1.6-0.6c-1.7-0.3-3.2-1.1-4.3-2.4c-0.4-0.4-0.8-0.8-1.3-1.1c-0.5-0.3-1.1-0.5-1.6-0.6
			c-1.7-0.3-3.2-1.1-4.3-2.4c-0.4-0.4-0.8-0.8-1.3-1.1c-0.5-0.3-1.1-0.5-1.6-0.6c-1.7-0.3-3.2-1.1-4.3-2.4c-0.4-0.4-0.8-0.8-1.3-1.1
			c-0.5-0.3-1.1-0.5-1.6-0.6c-1.7-0.3-3.2-1.1-4.3-2.4c-0.4-0.4-0.8-0.8-1.3-1.1c-0.6-0.3-1.2-0.5-1.8-0.6c-1.6-0.2-3-1.1-4-2.3
			c-0.3-0.4-0.8-0.8-1.3-1.1c-2.2-1.4-5.3-0.6-6.6,1.7c-1.3,2.3-0.5,5.2,1.8,6.5c0.5,0.3,1.1,0.5,1.6,0.6c1.7,0.3,3.2,1.1,4.3,2.4
			c0.4,0.4,0.8,0.8,1.3,1.1c0.5,0.3,1.1,0.5,1.6,0.6c1.7,0.3,3.2,1.1,4.3,2.4c0.4,0.4,0.8,0.8,1.3,1.1c0.5,0.3,1.1,0.5,1.6,0.6
			c1.7,0.3,3.2,1.1,4.3,2.4c0.4,0.4,0.8,0.8,1.3,1.1c0.5,0.3,1.1,0.5,1.6,0.6c1.7,0.3,3.2,1.1,4.3,2.4c0.4,0.4,0.8,0.8,1.3,1.1
			c0.5,0.3,1.1,0.5,1.6,0.6c1.7,0.3,3.2,1.1,4.3,2.4c0.4,0.4,0.8,0.8,1.3,1.1c0.5,0.3,1.1,0.5,1.6,0.6c1.7,0.3,3.2,1.1,4.3,2.4
			c0.4,0.4,0.8,0.8,1.3,1.1s1.1,0.5,1.6,0.6c1.7,0.3,3.2,1.1,4.3,2.4c0.4,0.4,0.8,0.8,1.3,1.1c0.5,0.3,1.1,0.5,1.6,0.6
			c1.7,0.3,3.2,1.1,4.3,2.4c0.4,0.4,0.8,0.8,1.3,1.1c0.5,0.3,1.1,0.5,1.6,0.6c1.7,0.3,3.2,1.1,4.3,2.4c0.4,0.4,0.8,0.8,1.3,1.1
			c0.5,0.3,1.1,0.5,1.6,0.6c1.7,0.3,3.2,1.1,4.3,2.4C771.9,80.1,772.4,80.5,772.9,80.8z"/>
	</g>
	<g filter="url(#ds1)">
		<path fill="#F9DA55" d="M759,105.3c0.6,0.3,1.2,0.5,1.8,0.6c1.6,0.2,3,1.1,4,2.3c0.3,0.4,0.8,0.8,1.3,1.1c2.2,1.4,5.3,0.6,6.6-1.7
			c1.3-2.3,0.5-5.2-1.8-6.5c-0.5-0.3-1.1-0.5-1.6-0.6c-1.7-0.3-3.2-1.1-4.3-2.4c-0.4-0.4-0.8-0.8-1.3-1.1s-1.1-0.5-1.6-0.6
			c-1.7-0.3-3.2-1.1-4.3-2.4c-0.4-0.4-0.8-0.8-1.3-1.1c-0.5-0.3-1.1-0.5-1.6-0.6c-1.7-0.3-3.2-1.1-4.3-2.4c-0.4-0.4-0.8-0.8-1.3-1.1
			c-0.5-0.3-1.1-0.5-1.6-0.6c-1.7-0.3-3.2-1.1-4.3-2.4c-0.4-0.4-0.8-0.8-1.3-1.1c-0.5-0.3-1.1-0.5-1.6-0.6c-1.7-0.3-3.2-1.1-4.3-2.4
			c-0.4-0.4-0.8-0.8-1.3-1.1s-1.1-0.5-1.6-0.6c-1.7-0.3-3.2-1.1-4.3-2.4c-0.4-0.4-0.8-0.8-1.3-1.1c-0.5-0.3-1.1-0.5-1.6-0.6
			c-1.7-0.3-3.2-1.1-4.3-2.4c-0.4-0.4-0.8-0.8-1.3-1.1c-0.5-0.3-1.1-0.5-1.6-0.6c-1.7-0.3-3.2-1.1-4.3-2.4c-0.4-0.4-0.8-0.8-1.3-1.1
			c-0.5-0.3-1.1-0.5-1.6-0.6c-1.7-0.3-3.2-1.1-4.3-2.4c-0.4-0.4-0.8-0.8-1.3-1.1c-0.5-0.3-1.1-0.5-1.6-0.6c-1.7-0.3-3.2-1.1-4.3-2.4
			c-0.4-0.4-0.8-0.8-1.3-1.1c-0.6-0.3-1.2-0.5-1.8-0.6c-1.6-0.2-3-1.1-4-2.3c-0.3-0.4-0.8-0.8-1.3-1.1c-2.2-1.4-5.3-0.6-6.6,1.7
			c-1.3,2.3-0.5,5.2,1.8,6.5c0.5,0.3,1.1,0.5,1.6,0.6c1.7,0.3,3.2,1.1,4.3,2.4c0.4,0.4,0.8,0.8,1.3,1.1c0.5,0.3,1.1,0.5,1.6,0.6
			c1.7,0.3,3.2,1.1,4.3,2.4c0.4,0.4,0.8,0.8,1.3,1.1c0.5,0.3,1.1,0.5,1.6,0.6c1.7,0.3,3.2,1.1,4.3,2.4c0.4,0.4,0.8,0.8,1.3,1.1
			c0.5,0.3,1.1,0.5,1.6,0.6c1.7,0.3,3.2,1.1,4.3,2.4c0.4,0.4,0.8,0.8,1.3,1.1c0.5,0.3,1.1,0.5,1.6,0.6c1.7,0.3,3.2,1.1,4.3,2.4
			c0.4,0.4,0.8,0.8,1.3,1.1c0.5,0.3,1.1,0.5,1.6,0.6c1.7,0.3,3.2,1.1,4.3,2.4c0.4,0.4,0.8,0.8,1.3,1.1s1.1,0.5,1.6,0.6
			c1.7,0.3,3.2,1.1,4.3,2.4c0.4,0.4,0.8,0.8,1.3,1.1c0.5,0.3,1.1,0.5,1.6,0.6c1.7,0.3,3.2,1.1,4.3,2.4c0.4,0.4,0.8,0.8,1.3,1.1
			c0.5,0.3,1.1,0.5,1.6,0.6c1.7,0.3,3.2,1.1,4.3,2.4c0.4,0.4,0.8,0.8,1.3,1.1c0.5,0.3,1.1,0.5,1.6,0.6c1.7,0.3,3.2,1.1,4.3,2.4
			C758,104.7,758.5,105,759,105.3z"/>
		<path fill="none" stroke="#D6971A" stroke-miterlimit="10" d="M759,105.3c0.6,0.3,1.2,0.5,1.8,0.6c1.6,0.2,3,1.1,4,2.3
			c0.3,0.4,0.8,0.8,1.3,1.1c2.2,1.4,5.3,0.6,6.6-1.7c1.3-2.3,0.5-5.2-1.8-6.5c-0.5-0.3-1.1-0.5-1.6-0.6c-1.7-0.3-3.2-1.1-4.3-2.4
			c-0.4-0.4-0.8-0.8-1.3-1.1s-1.1-0.5-1.6-0.6c-1.7-0.3-3.2-1.1-4.3-2.4c-0.4-0.4-0.8-0.8-1.3-1.1c-0.5-0.3-1.1-0.5-1.6-0.6
			c-1.7-0.3-3.2-1.1-4.3-2.4c-0.4-0.4-0.8-0.8-1.3-1.1c-0.5-0.3-1.1-0.5-1.6-0.6c-1.7-0.3-3.2-1.1-4.3-2.4c-0.4-0.4-0.8-0.8-1.3-1.1
			c-0.5-0.3-1.1-0.5-1.6-0.6c-1.7-0.3-3.2-1.1-4.3-2.4c-0.4-0.4-0.8-0.8-1.3-1.1s-1.1-0.5-1.6-0.6c-1.7-0.3-3.2-1.1-4.3-2.4
			c-0.4-0.4-0.8-0.8-1.3-1.1c-0.5-0.3-1.1-0.5-1.6-0.6c-1.7-0.3-3.2-1.1-4.3-2.4c-0.4-0.4-0.8-0.8-1.3-1.1c-0.5-0.3-1.1-0.5-1.6-0.6
			c-1.7-0.3-3.2-1.1-4.3-2.4c-0.4-0.4-0.8-0.8-1.3-1.1c-0.5-0.3-1.1-0.5-1.6-0.6c-1.7-0.3-3.2-1.1-4.3-2.4c-0.4-0.4-0.8-0.8-1.3-1.1
			c-0.5-0.3-1.1-0.5-1.6-0.6c-1.7-0.3-3.2-1.1-4.3-2.4c-0.4-0.4-0.8-0.8-1.3-1.1c-0.6-0.3-1.2-0.5-1.8-0.6c-1.6-0.2-3-1.1-4-2.3
			c-0.3-0.4-0.8-0.8-1.3-1.1c-2.2-1.4-5.3-0.6-6.6,1.7c-1.3,2.3-0.5,5.2,1.8,6.5c0.5,0.3,1.1,0.5,1.6,0.6c1.7,0.3,3.2,1.1,4.3,2.4
			c0.4,0.4,0.8,0.8,1.3,1.1c0.5,0.3,1.1,0.5,1.6,0.6c1.7,0.3,3.2,1.1,4.3,2.4c0.4,0.4,0.8,0.8,1.3,1.1c0.5,0.3,1.1,0.5,1.6,0.6
			c1.7,0.3,3.2,1.1,4.3,2.4c0.4,0.4,0.8,0.8,1.3,1.1c0.5,0.3,1.1,0.5,1.6,0.6c1.7,0.3,3.2,1.1,4.3,2.4c0.4,0.4,0.8,0.8,1.3,1.1
			c0.5,0.3,1.1,0.5,1.6,0.6c1.7,0.3,3.2,1.1,4.3,2.4c0.4,0.4,0.8,0.8,1.3,1.1c0.5,0.3,1.1,0.5,1.6,0.6c1.7,0.3,3.2,1.1,4.3,2.4
			c0.4,0.4,0.8,0.8,1.3,1.1s1.1,0.5,1.6,0.6c1.7,0.3,3.2,1.1,4.3,2.4c0.4,0.4,0.8,0.8,1.3,1.1c0.5,0.3,1.1,0.5,1.6,0.6
			c1.7,0.3,3.2,1.1,4.3,2.4c0.4,0.4,0.8,0.8,1.3,1.1c0.5,0.3,1.1,0.5,1.6,0.6c1.7,0.3,3.2,1.1,4.3,2.4c0.4,0.4,0.8,0.8,1.3,1.1
			c0.5,0.3,1.1,0.5,1.6,0.6c1.7,0.3,3.2,1.1,4.3,2.4C758,104.7,758.5,105,759,105.3z"/>
	</g>
	<g filter="url(#ds1)">
		<path fill="#F9DA55" d="M763,91.6c0.6,0.3,1.2,0.5,1.8,0.6c1.6,0.2,3,1.1,4,2.3c0.3,0.4,0.8,0.8,1.3,1.1c2.2,1.4,5.3,0.6,6.6-1.7
			c1.3-2.3,0.5-5.2-1.8-6.5c-0.5-0.3-1.1-0.5-1.6-0.6c-1.7-0.3-3.2-1.1-4.3-2.4c-0.4-0.4-0.8-0.8-1.3-1.1s-1.1-0.5-1.6-0.6
			c-1.7-0.3-3.2-1.1-4.3-2.4c-0.4-0.4-0.8-0.8-1.3-1.1c-0.5-0.3-1.1-0.5-1.6-0.6c-1.7-0.3-3.2-1.1-4.3-2.4c-0.4-0.4-0.8-0.8-1.3-1.1
			c-0.5-0.3-1.1-0.5-1.6-0.6c-1.7-0.3-3.2-1.1-4.3-2.4c-0.4-0.4-0.8-0.8-1.3-1.1s-1.1-0.5-1.6-0.6c-1.7-0.3-3.2-1.1-4.3-2.4
			c-0.4-0.4-0.8-0.8-1.3-1.1s-1.1-0.5-1.6-0.6c-1.7-0.3-3.2-1.1-4.3-2.4c-0.4-0.4-0.8-0.8-1.3-1.1c-0.5-0.3-1.1-0.5-1.6-0.6
			c-1.7-0.3-3.2-1.1-4.3-2.4c-0.4-0.4-0.8-0.8-1.3-1.1c-0.5-0.3-1.1-0.5-1.6-0.6c-1.7-0.3-3.2-1.1-4.3-2.4c-0.4-0.4-0.8-0.8-1.3-1.1
			c-0.5-0.3-1.1-0.5-1.6-0.6c-1.7-0.3-3.2-1.1-4.3-2.4c-0.4-0.4-0.8-0.8-1.3-1.1c-0.5-0.3-1.1-0.5-1.6-0.6c-1.7-0.3-3.2-1.1-4.3-2.4
			c-0.4-0.4-0.8-0.8-1.3-1.1c-0.6-0.3-1.2-0.5-1.8-0.6c-1.6-0.2-3-1.1-4-2.3c-0.3-0.4-0.8-0.8-1.3-1.1c-2.2-1.4-5.3-0.6-6.6,1.7
			c-1.3,2.3-0.5,5.2,1.8,6.5c0.5,0.3,1.1,0.5,1.6,0.6c1.7,0.3,3.2,1.1,4.3,2.4c0.4,0.4,0.8,0.8,1.3,1.1c0.5,0.3,1.1,0.5,1.6,0.6
			c1.7,0.3,3.2,1.1,4.3,2.4c0.4,0.4,0.8,0.8,1.3,1.1c0.5,0.3,1.1,0.5,1.6,0.6c1.7,0.3,3.2,1.1,4.3,2.4c0.4,0.4,0.8,0.8,1.3,1.1
			c0.5,0.3,1.1,0.5,1.6,0.6c1.7,0.3,3.2,1.1,4.3,2.4c0.4,0.4,0.8,0.8,1.3,1.1c0.5,0.3,1.1,0.5,1.6,0.6c1.7,0.3,3.2,1.1,4.3,2.4
			c0.4,0.4,0.8,0.8,1.3,1.1c0.5,0.3,1.1,0.5,1.6,0.6c1.7,0.3,3.2,1.1,4.3,2.4c0.4,0.4,0.8,0.8,1.3,1.1s1.1,0.5,1.6,0.6
			c1.7,0.3,3.2,1.1,4.3,2.4c0.4,0.4,0.8,0.8,1.3,1.1s1.1,0.5,1.6,0.6c1.7,0.3,3.2,1.1,4.3,2.4c0.4,0.4,0.8,0.8,1.3,1.1
			c0.5,0.3,1.1,0.5,1.6,0.6c1.7,0.3,3.2,1.1,4.3,2.4c0.4,0.4,0.8,0.8,1.3,1.1c0.5,0.3,1.1,0.5,1.6,0.6c1.7,0.3,3.2,1.1,4.3,2.4
			C762.1,90.9,762.5,91.3,763,91.6z"/>
		<path fill="none" stroke="#D6971A" stroke-miterlimit="10" d="M763,91.6c0.6,0.3,1.2,0.5,1.8,0.6c1.6,0.2,3,1.1,4,2.3
			c0.3,0.4,0.8,0.8,1.3,1.1c2.2,1.4,5.3,0.6,6.6-1.7c1.3-2.3,0.5-5.2-1.8-6.5c-0.5-0.3-1.1-0.5-1.6-0.6c-1.7-0.3-3.2-1.1-4.3-2.4
			c-0.4-0.4-0.8-0.8-1.3-1.1s-1.1-0.5-1.6-0.6c-1.7-0.3-3.2-1.1-4.3-2.4c-0.4-0.4-0.8-0.8-1.3-1.1c-0.5-0.3-1.1-0.5-1.6-0.6
			c-1.7-0.3-3.2-1.1-4.3-2.4c-0.4-0.4-0.8-0.8-1.3-1.1c-0.5-0.3-1.1-0.5-1.6-0.6c-1.7-0.3-3.2-1.1-4.3-2.4c-0.4-0.4-0.8-0.8-1.3-1.1
			s-1.1-0.5-1.6-0.6c-1.7-0.3-3.2-1.1-4.3-2.4c-0.4-0.4-0.8-0.8-1.3-1.1s-1.1-0.5-1.6-0.6c-1.7-0.3-3.2-1.1-4.3-2.4
			c-0.4-0.4-0.8-0.8-1.3-1.1c-0.5-0.3-1.1-0.5-1.6-0.6c-1.7-0.3-3.2-1.1-4.3-2.4c-0.4-0.4-0.8-0.8-1.3-1.1c-0.5-0.3-1.1-0.5-1.6-0.6
			c-1.7-0.3-3.2-1.1-4.3-2.4c-0.4-0.4-0.8-0.8-1.3-1.1c-0.5-0.3-1.1-0.5-1.6-0.6c-1.7-0.3-3.2-1.1-4.3-2.4c-0.4-0.4-0.8-0.8-1.3-1.1
			c-0.5-0.3-1.1-0.5-1.6-0.6c-1.7-0.3-3.2-1.1-4.3-2.4c-0.4-0.4-0.8-0.8-1.3-1.1c-0.6-0.3-1.2-0.5-1.8-0.6c-1.6-0.2-3-1.1-4-2.3
			c-0.3-0.4-0.8-0.8-1.3-1.1c-2.2-1.4-5.3-0.6-6.6,1.7c-1.3,2.3-0.5,5.2,1.8,6.5c0.5,0.3,1.1,0.5,1.6,0.6c1.7,0.3,3.2,1.1,4.3,2.4
			c0.4,0.4,0.8,0.8,1.3,1.1c0.5,0.3,1.1,0.5,1.6,0.6c1.7,0.3,3.2,1.1,4.3,2.4c0.4,0.4,0.8,0.8,1.3,1.1c0.5,0.3,1.1,0.5,1.6,0.6
			c1.7,0.3,3.2,1.1,4.3,2.4c0.4,0.4,0.8,0.8,1.3,1.1c0.5,0.3,1.1,0.5,1.6,0.6c1.7,0.3,3.2,1.1,4.3,2.4c0.4,0.4,0.8,0.8,1.3,1.1
			c0.5,0.3,1.1,0.5,1.6,0.6c1.7,0.3,3.2,1.1,4.3,2.4c0.4,0.4,0.8,0.8,1.3,1.1c0.5,0.3,1.1,0.5,1.6,0.6c1.7,0.3,3.2,1.1,4.3,2.4
			c0.4,0.4,0.8,0.8,1.3,1.1s1.1,0.5,1.6,0.6c1.7,0.3,3.2,1.1,4.3,2.4c0.4,0.4,0.8,0.8,1.3,1.1s1.1,0.5,1.6,0.6
			c1.7,0.3,3.2,1.1,4.3,2.4c0.4,0.4,0.8,0.8,1.3,1.1c0.5,0.3,1.1,0.5,1.6,0.6c1.7,0.3,3.2,1.1,4.3,2.4c0.4,0.4,0.8,0.8,1.3,1.1
			c0.5,0.3,1.1,0.5,1.6,0.6c1.7,0.3,3.2,1.1,4.3,2.4C762.1,90.9,762.5,91.3,763,91.6z"/>
	</g>
	<g filter="url(#ds1)">
		<path fill="#F49F38" d="M772.5,100c0,0,0.1-0.1,0.1-0.1c0.6-1,1.7-1.8,2.4-2.8c0.7-1.1,0.7-2.5,1.3-3.6c0.7-1.2,2-1.8,2.6-3
			c0.6-1.1,0.5-2.5,1.1-3.6c1.2-2.1,3.9-2.8,5.9-1.6c2.1,1.2,2.8,3.9,1.6,5.9c-0.5,0.8-1.2,1.2-1.8,1.8c-0.6,0.6-1.2,1.6-1.4,2.5
			c-0.1,0.8-0.1,1.5-0.5,2.3c-0.6,1.1-1.9,1.5-2.6,2.5c-0.8,1.2-0.4,2.8-1.1,4c-1.2,2.1-3.9,2.8-5.9,1.6
			C772.1,104.7,771.4,102,772.5,100z"/>
		<path fill="none" stroke="#C66320" stroke-miterlimit="10" d="M772.5,100c0,0,0.1-0.1,0.1-0.1c0.6-1,1.7-1.8,2.4-2.8
			c0.7-1.1,0.7-2.5,1.3-3.6c0.7-1.2,2-1.8,2.6-3c0.6-1.1,0.5-2.5,1.1-3.6c1.2-2.1,3.9-2.8,5.9-1.6c2.1,1.2,2.8,3.9,1.6,5.9
			c-0.5,0.8-1.2,1.2-1.8,1.8c-0.6,0.6-1.2,1.6-1.4,2.5c-0.1,0.8-0.1,1.5-0.5,2.3c-0.6,1.1-1.9,1.5-2.6,2.5c-0.8,1.2-0.4,2.8-1.1,4
			c-1.2,2.1-3.9,2.8-5.9,1.6C772.1,104.7,771.4,102,772.5,100z"/>
	</g>
</g>
<g>
	<g filter="url(#ds1)">
		<path fill="#F9DA55" d="M669.4,154.2c-0.5,0.5-0.8,1.1-1,1.7c-0.5,1.5-1.7,2.7-3.2,3.4c-0.5,0.2-1,0.6-1.4,1
			c-1.8,1.9-1.8,5,0.1,6.8c1.9,1.8,5,1.7,6.8-0.2c0.4-0.4,0.7-0.9,0.9-1.5c0.6-1.6,1.8-2.9,3.3-3.6c0.5-0.3,1-0.6,1.4-1
			c0.4-0.4,0.7-0.9,0.9-1.5c0.6-1.6,1.8-2.9,3.3-3.6c0.5-0.3,1-0.6,1.4-1c0.4-0.4,0.7-0.9,0.9-1.5c0.6-1.6,1.8-2.9,3.3-3.6
			c0.5-0.3,1-0.6,1.4-1c0.4-0.4,0.7-0.9,0.9-1.5c0.6-1.6,1.8-2.9,3.3-3.6c0.5-0.3,1-0.6,1.4-1c0.4-0.4,0.7-0.9,0.9-1.5
			c0.6-1.6,1.8-2.9,3.3-3.6c0.5-0.3,1-0.6,1.4-1c0.4-0.4,0.7-0.9,0.9-1.5c0.6-1.6,1.8-2.9,3.3-3.6c0.5-0.3,1-0.6,1.4-1
			c0.4-0.4,0.7-0.9,0.9-1.5c0.6-1.6,1.8-2.9,3.3-3.6c0.5-0.3,1-0.6,1.4-1c0.4-0.4,0.7-0.9,0.9-1.5c0.6-1.6,1.8-2.9,3.3-3.6
			c0.5-0.3,1-0.6,1.4-1c0.4-0.4,0.7-0.9,0.9-1.5c0.6-1.6,1.8-2.9,3.3-3.6c0.5-0.3,1-0.6,1.4-1c0.4-0.4,0.7-0.9,0.9-1.5
			c0.6-1.6,1.8-2.9,3.3-3.6c0.5-0.3,1-0.6,1.4-1c0.5-0.5,0.8-1.1,1-1.7c0.5-1.5,1.7-2.7,3.2-3.4c0.5-0.2,1-0.6,1.4-1
			c1.8-1.9,1.8-5-0.1-6.8c-1.9-1.8-5-1.7-6.8,0.2c-0.4,0.4-0.7,0.9-0.9,1.5c-0.6,1.6-1.8,2.9-3.3,3.6c-0.5,0.3-1,0.6-1.4,1
			c-0.4,0.4-0.7,0.9-0.9,1.5c-0.6,1.6-1.8,2.9-3.3,3.6c-0.5,0.3-1,0.6-1.4,1c-0.4,0.4-0.7,0.9-0.9,1.5c-0.6,1.6-1.8,2.9-3.3,3.6
			c-0.5,0.3-1,0.6-1.4,1c-0.4,0.4-0.7,0.9-0.9,1.5c-0.6,1.6-1.8,2.9-3.3,3.6c-0.5,0.3-1,0.6-1.4,1c-0.4,0.4-0.7,0.9-0.9,1.5
			c-0.6,1.6-1.8,2.9-3.3,3.6c-0.5,0.3-1,0.6-1.4,1c-0.4,0.4-0.7,0.9-0.9,1.5c-0.6,1.6-1.8,2.9-3.3,3.6c-0.5,0.3-1,0.6-1.4,1
			c-0.4,0.4-0.7,0.9-0.9,1.5c-0.6,1.6-1.8,2.9-3.3,3.6c-0.5,0.3-1,0.6-1.4,1c-0.4,0.4-0.7,0.9-0.9,1.5c-0.6,1.6-1.8,2.9-3.3,3.6
			c-0.5,0.3-1,0.6-1.4,1s-0.7,0.9-0.9,1.5c-0.6,1.6-1.8,2.9-3.3,3.6c-0.5,0.3-1,0.6-1.4,1c-0.4,0.4-0.7,0.9-0.9,1.5
			c-0.6,1.6-1.8,2.9-3.3,3.6C670.2,153.4,669.8,153.8,669.4,154.2z"/>
		<path fill="none" stroke="#D6971A" stroke-miterlimit="10" d="M669.4,154.2c-0.5,0.5-0.8,1.1-1,1.7c-0.5,1.5-1.7,2.7-3.2,3.4
			c-0.5,0.2-1,0.6-1.4,1c-1.8,1.9-1.8,5,0.1,6.8c1.9,1.8,5,1.7,6.8-0.2c0.4-0.4,0.7-0.9,0.9-1.5c0.6-1.6,1.8-2.9,3.3-3.6
			c0.5-0.3,1-0.6,1.4-1c0.4-0.4,0.7-0.9,0.9-1.5c0.6-1.6,1.8-2.9,3.3-3.6c0.5-0.3,1-0.6,1.4-1c0.4-0.4,0.7-0.9,0.9-1.5
			c0.6-1.6,1.8-2.9,3.3-3.6c0.5-0.3,1-0.6,1.4-1c0.4-0.4,0.7-0.9,0.9-1.5c0.6-1.6,1.8-2.9,3.3-3.6c0.5-0.3,1-0.6,1.4-1
			c0.4-0.4,0.7-0.9,0.9-1.5c0.6-1.6,1.8-2.9,3.3-3.6c0.5-0.3,1-0.6,1.4-1c0.4-0.4,0.7-0.9,0.9-1.5c0.6-1.6,1.8-2.9,3.3-3.6
			c0.5-0.3,1-0.6,1.4-1c0.4-0.4,0.7-0.9,0.9-1.5c0.6-1.6,1.8-2.9,3.3-3.6c0.5-0.3,1-0.6,1.4-1c0.4-0.4,0.7-0.9,0.9-1.5
			c0.6-1.6,1.8-2.9,3.3-3.6c0.5-0.3,1-0.6,1.4-1c0.4-0.4,0.7-0.9,0.9-1.5c0.6-1.6,1.8-2.9,3.3-3.6c0.5-0.3,1-0.6,1.4-1
			c0.4-0.4,0.7-0.9,0.9-1.5c0.6-1.6,1.8-2.9,3.3-3.6c0.5-0.3,1-0.6,1.4-1c0.5-0.5,0.8-1.1,1-1.7c0.5-1.5,1.7-2.7,3.2-3.4
			c0.5-0.2,1-0.6,1.4-1c1.8-1.9,1.8-5-0.1-6.8c-1.9-1.8-5-1.7-6.8,0.2c-0.4,0.4-0.7,0.9-0.9,1.5c-0.6,1.6-1.8,2.9-3.3,3.6
			c-0.5,0.3-1,0.6-1.4,1c-0.4,0.4-0.7,0.9-0.9,1.5c-0.6,1.6-1.8,2.9-3.3,3.6c-0.5,0.3-1,0.6-1.4,1c-0.4,0.4-0.7,0.9-0.9,1.5
			c-0.6,1.6-1.8,2.9-3.3,3.6c-0.5,0.3-1,0.6-1.4,1c-0.4,0.4-0.7,0.9-0.9,1.5c-0.6,1.6-1.8,2.9-3.3,3.6c-0.5,0.3-1,0.6-1.4,1
			c-0.4,0.4-0.7,0.9-0.9,1.5c-0.6,1.6-1.8,2.9-3.3,3.6c-0.5,0.3-1,0.6-1.4,1c-0.4,0.4-0.7,0.9-0.9,1.5c-0.6,1.6-1.8,2.9-3.3,3.6
			c-0.5,0.3-1,0.6-1.4,1c-0.4,0.4-0.7,0.9-0.9,1.5c-0.6,1.6-1.8,2.9-3.3,3.6c-0.5,0.3-1,0.6-1.4,1c-0.4,0.4-0.7,0.9-0.9,1.5
			c-0.6,1.6-1.8,2.9-3.3,3.6c-0.5,0.3-1,0.6-1.4,1s-0.7,0.9-0.9,1.5c-0.6,1.6-1.8,2.9-3.3,3.6c-0.5,0.3-1,0.6-1.4,1
			c-0.4,0.4-0.7,0.9-0.9,1.5c-0.6,1.6-1.8,2.9-3.3,3.6C670.2,153.4,669.8,153.8,669.4,154.2z"/>
	</g>
	<g filter="url(#ds1)">
		<path fill="#F9DA55" d="M648.6,135.2c-0.5,0.5-0.8,1.1-1,1.7c-0.5,1.5-1.7,2.7-3.2,3.4c-0.5,0.2-1,0.6-1.4,1
			c-1.8,1.9-1.8,5,0.1,6.8c1.9,1.8,5,1.7,6.8-0.2c0.4-0.4,0.7-0.9,0.9-1.5c0.6-1.6,1.8-2.9,3.3-3.6c0.5-0.3,1-0.6,1.4-1
			c0.4-0.4,0.7-0.9,0.9-1.5c0.6-1.6,1.8-2.9,3.3-3.6c0.5-0.3,1-0.6,1.4-1c0.4-0.4,0.7-0.9,0.9-1.5c0.6-1.6,1.8-2.9,3.3-3.6
			c0.5-0.3,1-0.6,1.4-1c0.4-0.4,0.7-0.9,0.9-1.5c0.6-1.6,1.8-2.9,3.3-3.6c0.5-0.3,1-0.6,1.4-1c0.4-0.4,0.7-0.9,0.9-1.5
			c0.6-1.6,1.8-2.9,3.3-3.6c0.5-0.3,1-0.6,1.4-1c0.4-0.4,0.7-0.9,0.9-1.5c0.6-1.6,1.8-2.9,3.3-3.6c0.5-0.3,1-0.6,1.4-1
			c0.4-0.4,0.7-0.9,0.9-1.5c0.6-1.6,1.8-2.9,3.3-3.6c0.5-0.3,1-0.6,1.4-1c0.4-0.4,0.7-0.9,0.9-1.5c0.6-1.6,1.8-2.9,3.3-3.6
			c0.5-0.3,1-0.6,1.4-1c0.4-0.4,0.7-0.9,0.9-1.5c0.6-1.6,1.8-2.9,3.3-3.6c0.5-0.3,1-0.6,1.4-1c0.4-0.4,0.7-0.9,0.9-1.5
			c0.6-1.6,1.8-2.9,3.3-3.6c0.5-0.3,1-0.6,1.4-1c0.5-0.5,0.8-1.1,1-1.7c0.5-1.5,1.7-2.7,3.2-3.4c0.5-0.2,1-0.6,1.4-1
			c1.8-1.9,1.8-5-0.1-6.8c-1.9-1.8-5-1.7-6.8,0.2c-0.4,0.4-0.7,0.9-0.9,1.5c-0.6,1.6-1.8,2.9-3.3,3.6c-0.5,0.3-1,0.6-1.4,1
			c-0.4,0.4-0.7,0.9-0.9,1.5c-0.6,1.6-1.8,2.9-3.3,3.6c-0.5,0.3-1,0.6-1.4,1c-0.4,0.4-0.7,0.9-0.9,1.5c-0.6,1.6-1.8,2.9-3.3,3.6
			c-0.5,0.3-1,0.6-1.4,1c-0.4,0.4-0.7,0.9-0.9,1.5c-0.6,1.6-1.8,2.9-3.3,3.6c-0.5,0.3-1,0.6-1.4,1c-0.4,0.4-0.7,0.9-0.9,1.5
			c-0.6,1.6-1.8,2.9-3.3,3.6c-0.5,0.3-1,0.6-1.4,1c-0.4,0.4-0.7,0.9-0.9,1.5c-0.6,1.6-1.8,2.9-3.3,3.6c-0.5,0.3-1,0.6-1.4,1
			c-0.4,0.4-0.7,0.9-0.9,1.5c-0.6,1.6-1.8,2.9-3.3,3.6c-0.5,0.3-1,0.6-1.4,1s-0.7,0.9-0.9,1.5c-0.6,1.6-1.8,2.9-3.3,3.6
			c-0.5,0.3-1,0.6-1.4,1c-0.4,0.4-0.7,0.9-0.9,1.5c-0.6,1.6-1.8,2.9-3.3,3.6c-0.5,0.3-1,0.6-1.4,1c-0.4,0.4-0.7,0.9-0.9,1.5
			c-0.6,1.6-1.8,2.9-3.3,3.6C649.4,134.4,649,134.7,648.6,135.2z"/>
		<path fill="none" stroke="#D6971A" stroke-miterlimit="10" d="M648.6,135.2c-0.5,0.5-0.8,1.1-1,1.7c-0.5,1.5-1.7,2.7-3.2,3.4
			c-0.5,0.2-1,0.6-1.4,1c-1.8,1.9-1.8,5,0.1,6.8c1.9,1.8,5,1.7,6.8-0.2c0.4-0.4,0.7-0.9,0.9-1.5c0.6-1.6,1.8-2.9,3.3-3.6
			c0.5-0.3,1-0.6,1.4-1c0.4-0.4,0.7-0.9,0.9-1.5c0.6-1.6,1.8-2.9,3.3-3.6c0.5-0.3,1-0.6,1.4-1c0.4-0.4,0.7-0.9,0.9-1.5
			c0.6-1.6,1.8-2.9,3.3-3.6c0.5-0.3,1-0.6,1.4-1c0.4-0.4,0.7-0.9,0.9-1.5c0.6-1.6,1.8-2.9,3.3-3.6c0.5-0.3,1-0.6,1.4-1
			c0.4-0.4,0.7-0.9,0.9-1.5c0.6-1.6,1.8-2.9,3.3-3.6c0.5-0.3,1-0.6,1.4-1c0.4-0.4,0.7-0.9,0.9-1.5c0.6-1.6,1.8-2.9,3.3-3.6
			c0.5-0.3,1-0.6,1.4-1c0.4-0.4,0.7-0.9,0.9-1.5c0.6-1.6,1.8-2.9,3.3-3.6c0.5-0.3,1-0.6,1.4-1c0.4-0.4,0.7-0.9,0.9-1.5
			c0.6-1.6,1.8-2.9,3.3-3.6c0.5-0.3,1-0.6,1.4-1c0.4-0.4,0.7-0.9,0.9-1.5c0.6-1.6,1.8-2.9,3.3-3.6c0.5-0.3,1-0.6,1.4-1
			c0.4-0.4,0.7-0.9,0.9-1.5c0.6-1.6,1.8-2.9,3.3-3.6c0.5-0.3,1-0.6,1.4-1c0.5-0.5,0.8-1.1,1-1.7c0.5-1.5,1.7-2.7,3.2-3.4
			c0.5-0.2,1-0.6,1.4-1c1.8-1.9,1.8-5-0.1-6.8c-1.9-1.8-5-1.7-6.8,0.2c-0.4,0.4-0.7,0.9-0.9,1.5c-0.6,1.6-1.8,2.9-3.3,3.6
			c-0.5,0.3-1,0.6-1.4,1c-0.4,0.4-0.7,0.9-0.9,1.5c-0.6,1.6-1.8,2.9-3.3,3.6c-0.5,0.3-1,0.6-1.4,1c-0.4,0.4-0.7,0.9-0.9,1.5
			c-0.6,1.6-1.8,2.9-3.3,3.6c-0.5,0.3-1,0.6-1.4,1c-0.4,0.4-0.7,0.9-0.9,1.5c-0.6,1.6-1.8,2.9-3.3,3.6c-0.5,0.3-1,0.6-1.4,1
			c-0.4,0.4-0.7,0.9-0.9,1.5c-0.6,1.6-1.8,2.9-3.3,3.6c-0.5,0.3-1,0.6-1.4,1c-0.4,0.4-0.7,0.9-0.9,1.5c-0.6,1.6-1.8,2.9-3.3,3.6
			c-0.5,0.3-1,0.6-1.4,1c-0.4,0.4-0.7,0.9-0.9,1.5c-0.6,1.6-1.8,2.9-3.3,3.6c-0.5,0.3-1,0.6-1.4,1s-0.7,0.9-0.9,1.5
			c-0.6,1.6-1.8,2.9-3.3,3.6c-0.5,0.3-1,0.6-1.4,1c-0.4,0.4-0.7,0.9-0.9,1.5c-0.6,1.6-1.8,2.9-3.3,3.6c-0.5,0.3-1,0.6-1.4,1
			c-0.4,0.4-0.7,0.9-0.9,1.5c-0.6,1.6-1.8,2.9-3.3,3.6C649.4,134.4,649,134.7,648.6,135.2z"/>
	</g>
	<g filter="url(#ds1)">
		<path fill="#F9DA55" d="M661,142.2c-0.5,0.5-0.8,1.1-1,1.7c-0.5,1.5-1.7,2.7-3.2,3.4c-0.5,0.2-1,0.6-1.4,1c-1.8,1.9-1.8,5,0.1,6.8
			c1.9,1.8,5,1.7,6.8-0.2c0.4-0.4,0.7-0.9,0.9-1.5c0.6-1.6,1.8-2.9,3.3-3.6c0.5-0.3,1-0.6,1.4-1c0.4-0.4,0.7-0.9,0.9-1.5
			c0.6-1.6,1.8-2.9,3.3-3.6c0.5-0.3,1-0.6,1.4-1c0.4-0.4,0.7-0.9,0.9-1.5c0.6-1.6,1.8-2.9,3.3-3.6c0.5-0.3,1-0.6,1.4-1
			c0.4-0.4,0.7-0.9,0.9-1.5c0.6-1.6,1.8-2.9,3.3-3.6c0.5-0.3,1-0.6,1.4-1c0.4-0.4,0.7-0.9,0.9-1.5c0.6-1.6,1.8-2.9,3.3-3.6
			c0.5-0.3,1-0.6,1.4-1s0.7-0.9,0.9-1.5c0.6-1.6,1.8-2.9,3.3-3.6c0.5-0.3,1-0.6,1.4-1c0.4-0.4,0.7-0.9,0.9-1.5
			c0.6-1.6,1.8-2.9,3.3-3.6c0.5-0.3,1-0.6,1.4-1c0.4-0.4,0.7-0.9,0.9-1.5c0.6-1.6,1.8-2.9,3.3-3.6c0.5-0.3,1-0.6,1.4-1
			c0.4-0.4,0.7-0.9,0.9-1.5c0.6-1.6,1.8-2.9,3.3-3.6c0.5-0.3,1-0.6,1.4-1c0.4-0.4,0.7-0.9,0.9-1.5c0.6-1.6,1.8-2.9,3.3-3.6
			c0.5-0.3,1-0.6,1.4-1c0.5-0.5,0.8-1.1,1-1.7c0.5-1.5,1.7-2.7,3.2-3.4c0.5-0.2,1-0.6,1.4-1c1.8-1.9,1.8-5-0.1-6.8
			c-1.9-1.8-5-1.7-6.8,0.2c-0.4,0.4-0.7,0.9-0.9,1.5c-0.6,1.6-1.8,2.9-3.3,3.6c-0.5,0.3-1,0.6-1.4,1c-0.4,0.4-0.7,0.9-0.9,1.5
			c-0.6,1.6-1.8,2.9-3.3,3.6c-0.5,0.3-1,0.6-1.4,1c-0.4,0.4-0.7,0.9-0.9,1.5c-0.6,1.6-1.8,2.9-3.3,3.6c-0.5,0.3-1,0.6-1.4,1
			c-0.4,0.4-0.7,0.9-0.9,1.5c-0.6,1.6-1.8,2.9-3.3,3.6c-0.5,0.3-1,0.6-1.4,1c-0.4,0.4-0.7,0.9-0.9,1.5c-0.6,1.6-1.8,2.9-3.3,3.6
			c-0.5,0.3-1,0.6-1.4,1c-0.4,0.4-0.7,0.9-0.9,1.5c-0.6,1.6-1.8,2.9-3.3,3.6c-0.5,0.3-1,0.6-1.4,1c-0.4,0.4-0.7,0.9-0.9,1.5
			c-0.6,1.6-1.8,2.9-3.3,3.6c-0.5,0.3-1,0.6-1.4,1c-0.4,0.4-0.7,0.9-0.9,1.5c-0.6,1.6-1.8,2.9-3.3,3.6c-0.5,0.3-1,0.6-1.4,1
			c-0.4,0.4-0.7,0.9-0.9,1.5c-0.6,1.6-1.8,2.9-3.3,3.6c-0.5,0.3-1,0.6-1.4,1c-0.4,0.4-0.7,0.9-0.9,1.5c-0.6,1.6-1.8,2.9-3.3,3.6
			C661.9,141.4,661.4,141.7,661,142.2z"/>
		<path fill="none" stroke="#D6971A" stroke-miterlimit="10" d="M661,142.2c-0.5,0.5-0.8,1.1-1,1.7c-0.5,1.5-1.7,2.7-3.2,3.4
			c-0.5,0.2-1,0.6-1.4,1c-1.8,1.9-1.8,5,0.1,6.8c1.9,1.8,5,1.7,6.8-0.2c0.4-0.4,0.7-0.9,0.9-1.5c0.6-1.6,1.8-2.9,3.3-3.6
			c0.5-0.3,1-0.6,1.4-1c0.4-0.4,0.7-0.9,0.9-1.5c0.6-1.6,1.8-2.9,3.3-3.6c0.5-0.3,1-0.6,1.4-1c0.4-0.4,0.7-0.9,0.9-1.5
			c0.6-1.6,1.8-2.9,3.3-3.6c0.5-0.3,1-0.6,1.4-1c0.4-0.4,0.7-0.9,0.9-1.5c0.6-1.6,1.8-2.9,3.3-3.6c0.5-0.3,1-0.6,1.4-1
			c0.4-0.4,0.7-0.9,0.9-1.5c0.6-1.6,1.8-2.9,3.3-3.6c0.5-0.3,1-0.6,1.4-1s0.7-0.9,0.9-1.5c0.6-1.6,1.8-2.9,3.3-3.6
			c0.5-0.3,1-0.6,1.4-1c0.4-0.4,0.7-0.9,0.9-1.5c0.6-1.6,1.8-2.9,3.3-3.6c0.5-0.3,1-0.6,1.4-1c0.4-0.4,0.7-0.9,0.9-1.5
			c0.6-1.6,1.8-2.9,3.3-3.6c0.5-0.3,1-0.6,1.4-1c0.4-0.4,0.7-0.9,0.9-1.5c0.6-1.6,1.8-2.9,3.3-3.6c0.5-0.3,1-0.6,1.4-1
			c0.4-0.4,0.7-0.9,0.9-1.5c0.6-1.6,1.8-2.9,3.3-3.6c0.5-0.3,1-0.6,1.4-1c0.5-0.5,0.8-1.1,1-1.7c0.5-1.5,1.7-2.7,3.2-3.4
			c0.5-0.2,1-0.6,1.4-1c1.8-1.9,1.8-5-0.1-6.8c-1.9-1.8-5-1.7-6.8,0.2c-0.4,0.4-0.7,0.9-0.9,1.5c-0.6,1.6-1.8,2.9-3.3,3.6
			c-0.5,0.3-1,0.6-1.4,1c-0.4,0.4-0.7,0.9-0.9,1.5c-0.6,1.6-1.8,2.9-3.3,3.6c-0.5,0.3-1,0.6-1.4,1c-0.4,0.4-0.7,0.9-0.9,1.5
			c-0.6,1.6-1.8,2.9-3.3,3.6c-0.5,0.3-1,0.6-1.4,1c-0.4,0.4-0.7,0.9-0.9,1.5c-0.6,1.6-1.8,2.9-3.3,3.6c-0.5,0.3-1,0.6-1.4,1
			c-0.4,0.4-0.7,0.9-0.9,1.5c-0.6,1.6-1.8,2.9-3.3,3.6c-0.5,0.3-1,0.6-1.4,1c-0.4,0.4-0.7,0.9-0.9,1.5c-0.6,1.6-1.8,2.9-3.3,3.6
			c-0.5,0.3-1,0.6-1.4,1c-0.4,0.4-0.7,0.9-0.9,1.5c-0.6,1.6-1.8,2.9-3.3,3.6c-0.5,0.3-1,0.6-1.4,1c-0.4,0.4-0.7,0.9-0.9,1.5
			c-0.6,1.6-1.8,2.9-3.3,3.6c-0.5,0.3-1,0.6-1.4,1c-0.4,0.4-0.7,0.9-0.9,1.5c-0.6,1.6-1.8,2.9-3.3,3.6c-0.5,0.3-1,0.6-1.4,1
			c-0.4,0.4-0.7,0.9-0.9,1.5c-0.6,1.6-1.8,2.9-3.3,3.6C661.9,141.4,661.4,141.7,661,142.2z"/>
	</g>
	<g filter="url(#ds1)">
		<path fill="#F49F38" d="M650.8,149.5c0,0,0.1,0.1,0.1,0.1c0.9,0.9,1.3,2.1,2.2,2.9c0.9,0.9,2.3,1.2,3.3,2.1c1,0.9,1.3,2.3,2.3,3.2
			c1,0.8,2.3,1.1,3.2,1.9c1.8,1.6,1.9,4.4,0.3,6.2c-1.6,1.8-4.4,1.9-6.2,0.3c-0.7-0.6-0.9-1.4-1.4-2.2c-0.5-0.8-1.2-1.6-2.1-1.9
			c-0.8-0.3-1.4-0.4-2.1-1c-0.9-0.8-1.1-2.2-1.9-3.1c-0.9-1.1-2.6-1-3.7-2c-1.8-1.6-1.9-4.4-0.3-6.2
			C646.2,148,649,147.9,650.8,149.5z"/>
		<path fill="none" stroke="#C66320" stroke-miterlimit="10" d="M650.8,149.5c0,0,0.1,0.1,0.1,0.1c0.9,0.9,1.3,2.1,2.2,2.9
			c0.9,0.9,2.3,1.2,3.3,2.1c1,0.9,1.3,2.3,2.3,3.2c1,0.8,2.3,1.1,3.2,1.9c1.8,1.6,1.9,4.4,0.3,6.2c-1.6,1.8-4.4,1.9-6.2,0.3
			c-0.7-0.6-0.9-1.4-1.4-2.2c-0.5-0.8-1.2-1.6-2.1-1.9c-0.8-0.3-1.4-0.4-2.1-1c-0.9-0.8-1.1-2.2-1.9-3.1c-0.9-1.1-2.6-1-3.7-2
			c-1.8-1.6-1.9-4.4-0.3-6.2C646.2,148,649,147.9,650.8,149.5z"/>
	</g>
</g>
<g>
	<g filter="url(#ds1)">
		<path fill="#F9DA55" d="M770.9,125.6c0.7,0.1,1.3,0.1,1.9-0.1c1.6-0.4,3.2,0,4.6,0.8c0.5,0.3,1,0.5,1.6,0.6
			c2.6,0.5,5.2-1.2,5.6-3.8c0.5-2.6-1.2-5.1-3.9-5.6c-0.6-0.1-1.2-0.1-1.7,0c-1.7,0.3-3.4,0-4.9-0.9c-0.5-0.3-1-0.5-1.6-0.6
			c-0.6-0.1-1.2-0.1-1.7,0c-1.7,0.3-3.4,0-4.9-0.9c-0.5-0.3-1-0.5-1.6-0.6s-1.2-0.1-1.7,0c-1.7,0.3-3.4,0-4.9-0.9
			c-0.5-0.3-1-0.5-1.6-0.6c-0.6-0.1-1.2-0.1-1.7,0c-1.7,0.3-3.4,0-4.9-0.9c-0.5-0.3-1-0.5-1.6-0.6c-0.6-0.1-1.2-0.1-1.7,0
			c-1.7,0.3-3.4,0-4.9-0.9c-0.5-0.3-1-0.5-1.6-0.6c-0.6-0.1-1.2-0.1-1.7,0c-1.7,0.3-3.4,0-4.9-0.9c-0.5-0.3-1-0.5-1.6-0.6
			s-1.2-0.1-1.7,0c-1.7,0.3-3.4,0-4.9-0.9c-0.5-0.3-1-0.5-1.6-0.6c-0.6-0.1-1.2-0.1-1.7,0c-1.7,0.3-3.4,0-4.9-0.9
			c-0.5-0.3-1-0.5-1.6-0.6c-0.6-0.1-1.2-0.1-1.7,0c-1.7,0.3-3.4,0-4.9-0.9c-0.5-0.3-1-0.5-1.6-0.6s-1.2-0.1-1.7,0
			c-1.7,0.3-3.4,0-4.9-0.9c-0.5-0.3-1-0.5-1.6-0.6c-0.7-0.1-1.3-0.1-1.9,0.1c-1.6,0.4-3.2,0-4.6-0.8c-0.5-0.3-1-0.5-1.6-0.6
			c-2.6-0.5-5.2,1.2-5.6,3.8c-0.5,2.6,1.2,5.1,3.9,5.6c0.6,0.1,1.2,0.1,1.7,0c1.7-0.3,3.4,0,4.9,0.9c0.5,0.3,1,0.5,1.6,0.6
			c0.6,0.1,1.2,0.1,1.7,0c1.7-0.3,3.4,0,4.9,0.9c0.5,0.3,1,0.5,1.6,0.6s1.2,0.1,1.7,0c1.7-0.3,3.4,0,4.9,0.9c0.5,0.3,1,0.5,1.6,0.6
			s1.2,0.1,1.7,0c1.7-0.3,3.4,0,4.9,0.9c0.5,0.3,1,0.5,1.6,0.6c0.6,0.1,1.2,0.1,1.7,0c1.7-0.3,3.4,0,4.9,0.9c0.5,0.3,1,0.5,1.6,0.6
			s1.2,0.1,1.7,0c1.7-0.3,3.4,0,4.9,0.9c0.5,0.3,1,0.5,1.6,0.6c0.6,0.1,1.2,0.1,1.7,0c1.7-0.3,3.4,0,4.9,0.9c0.5,0.3,1,0.5,1.6,0.6
			c0.6,0.1,1.2,0.1,1.7,0c1.7-0.3,3.4,0,4.9,0.9c0.5,0.3,1,0.5,1.6,0.6c0.6,0.1,1.2,0.1,1.7,0c1.7-0.3,3.4,0,4.9,0.9
			c0.5,0.3,1,0.5,1.6,0.6c0.6,0.1,1.2,0.1,1.7,0c1.7-0.3,3.4,0,4.9,0.9C769.8,125.3,770.3,125.5,770.9,125.6z"/>
		<path fill="none" stroke="#D6971A" stroke-miterlimit="10" d="M770.9,125.6c0.7,0.1,1.3,0.1,1.9-0.1c1.6-0.4,3.2,0,4.6,0.8
			c0.5,0.3,1,0.5,1.6,0.6c2.6,0.5,5.2-1.2,5.6-3.8c0.5-2.6-1.2-5.1-3.9-5.6c-0.6-0.1-1.2-0.1-1.7,0c-1.7,0.3-3.4,0-4.9-0.9
			c-0.5-0.3-1-0.5-1.6-0.6c-0.6-0.1-1.2-0.1-1.7,0c-1.7,0.3-3.4,0-4.9-0.9c-0.5-0.3-1-0.5-1.6-0.6s-1.2-0.1-1.7,0
			c-1.7,0.3-3.4,0-4.9-0.9c-0.5-0.3-1-0.5-1.6-0.6c-0.6-0.1-1.2-0.1-1.7,0c-1.7,0.3-3.4,0-4.9-0.9c-0.5-0.3-1-0.5-1.6-0.6
			c-0.6-0.1-1.2-0.1-1.7,0c-1.7,0.3-3.4,0-4.9-0.9c-0.5-0.3-1-0.5-1.6-0.6c-0.6-0.1-1.2-0.1-1.7,0c-1.7,0.3-3.4,0-4.9-0.9
			c-0.5-0.3-1-0.5-1.6-0.6s-1.2-0.1-1.7,0c-1.7,0.3-3.4,0-4.9-0.9c-0.5-0.3-1-0.5-1.6-0.6c-0.6-0.1-1.2-0.1-1.7,0
			c-1.7,0.3-3.4,0-4.9-0.9c-0.5-0.3-1-0.5-1.6-0.6c-0.6-0.1-1.2-0.1-1.7,0c-1.7,0.3-3.4,0-4.9-0.9c-0.5-0.3-1-0.5-1.6-0.6
			s-1.2-0.1-1.7,0c-1.7,0.3-3.4,0-4.9-0.9c-0.5-0.3-1-0.5-1.6-0.6c-0.7-0.1-1.3-0.1-1.9,0.1c-1.6,0.4-3.2,0-4.6-0.8
			c-0.5-0.3-1-0.5-1.6-0.6c-2.6-0.5-5.2,1.2-5.6,3.8c-0.5,2.6,1.2,5.1,3.9,5.6c0.6,0.1,1.2,0.1,1.7,0c1.7-0.3,3.4,0,4.9,0.9
			c0.5,0.3,1,0.5,1.6,0.6c0.6,0.1,1.2,0.1,1.7,0c1.7-0.3,3.4,0,4.9,0.9c0.5,0.3,1,0.5,1.6,0.6s1.2,0.1,1.7,0c1.7-0.3,3.4,0,4.9,0.9
			c0.5,0.3,1,0.5,1.6,0.6s1.2,0.1,1.7,0c1.7-0.3,3.4,0,4.9,0.9c0.5,0.3,1,0.5,1.6,0.6c0.6,0.1,1.2,0.1,1.7,0c1.7-0.3,3.4,0,4.9,0.9
			c0.5,0.3,1,0.5,1.6,0.6s1.2,0.1,1.7,0c1.7-0.3,3.4,0,4.9,0.9c0.5,0.3,1,0.5,1.6,0.6c0.6,0.1,1.2,0.1,1.7,0c1.7-0.3,3.4,0,4.9,0.9
			c0.5,0.3,1,0.5,1.6,0.6c0.6,0.1,1.2,0.1,1.7,0c1.7-0.3,3.4,0,4.9,0.9c0.5,0.3,1,0.5,1.6,0.6c0.6,0.1,1.2,0.1,1.7,0
			c1.7-0.3,3.4,0,4.9,0.9c0.5,0.3,1,0.5,1.6,0.6c0.6,0.1,1.2,0.1,1.7,0c1.7-0.3,3.4,0,4.9,0.9C769.8,125.3,770.3,125.5,770.9,125.6z
			"/>
	</g>
	<g filter="url(#ds1)">
		<path fill="#F9DA55" d="M766,153.4c0.7,0.1,1.3,0.1,1.9-0.1c1.6-0.4,3.2,0,4.6,0.8c0.5,0.3,1,0.5,1.6,0.6c2.6,0.5,5.2-1.2,5.6-3.8
			c0.5-2.6-1.2-5.1-3.9-5.6c-0.6-0.1-1.2-0.1-1.7,0c-1.7,0.3-3.4,0-4.9-0.9c-0.5-0.3-1-0.5-1.6-0.6c-0.6-0.1-1.2-0.1-1.7,0
			c-1.7,0.3-3.4,0-4.9-0.9c-0.5-0.3-1-0.5-1.6-0.6c-0.6-0.1-1.2-0.1-1.7,0c-1.7,0.3-3.4,0-4.9-0.9c-0.5-0.3-1-0.5-1.6-0.6
			c-0.6-0.1-1.2-0.1-1.7,0c-1.7,0.3-3.4,0-4.9-0.9c-0.5-0.3-1-0.5-1.6-0.6s-1.2-0.1-1.7,0c-1.7,0.3-3.4,0-4.9-0.9
			c-0.5-0.3-1-0.5-1.6-0.6c-0.6-0.1-1.2-0.1-1.7,0c-1.7,0.3-3.4,0-4.9-0.9c-0.5-0.3-1-0.5-1.6-0.6s-1.2-0.1-1.7,0
			c-1.7,0.3-3.4,0-4.9-0.9c-0.5-0.3-1-0.5-1.6-0.6c-0.6-0.1-1.2-0.1-1.7,0c-1.7,0.3-3.4,0-4.9-0.9c-0.5-0.3-1-0.5-1.6-0.6
			s-1.2-0.1-1.7,0c-1.7,0.3-3.4,0-4.9-0.9c-0.5-0.3-1-0.5-1.6-0.6s-1.2-0.1-1.7,0c-1.7,0.3-3.4,0-4.9-0.9c-0.5-0.3-1-0.5-1.6-0.6
			c-0.7-0.1-1.3-0.1-1.9,0.1c-1.6,0.4-3.2,0-4.6-0.8c-0.5-0.3-1-0.5-1.6-0.6c-2.6-0.5-5.2,1.2-5.6,3.8c-0.5,2.6,1.2,5.1,3.9,5.6
			c0.6,0.1,1.2,0.1,1.7,0c1.7-0.3,3.4,0,4.9,0.9c0.5,0.3,1,0.5,1.6,0.6c0.6,0.1,1.2,0.1,1.7,0c1.7-0.3,3.4,0,4.9,0.9
			c0.5,0.3,1,0.5,1.6,0.6c0.6,0.1,1.2,0.1,1.7,0c1.7-0.3,3.4,0,4.9,0.9c0.5,0.3,1,0.5,1.6,0.6c0.6,0.1,1.2,0.1,1.7,0
			c1.7-0.3,3.4,0,4.9,0.9c0.5,0.3,1,0.5,1.6,0.6c0.6,0.1,1.2,0.1,1.7,0c1.7-0.3,3.4,0,4.9,0.9c0.5,0.3,1,0.5,1.6,0.6s1.2,0.1,1.7,0
			c1.7-0.3,3.4,0,4.9,0.9c0.5,0.3,1,0.5,1.6,0.6s1.2,0.1,1.7,0c1.7-0.3,3.4,0,4.9,0.9c0.5,0.3,1,0.5,1.6,0.6c0.6,0.1,1.2,0.1,1.7,0
			c1.7-0.3,3.4,0,4.9,0.9c0.5,0.3,1,0.5,1.6,0.6s1.2,0.1,1.7,0c1.7-0.3,3.4,0,4.9,0.9c0.5,0.3,1,0.5,1.6,0.6c0.6,0.1,1.2,0.1,1.7,0
			c1.7-0.3,3.4,0,4.9,0.9C764.9,153.1,765.4,153.3,766,153.4z"/>
		<path fill="none" stroke="#D6971A" stroke-miterlimit="10" d="M766,153.4c0.7,0.1,1.3,0.1,1.9-0.1c1.6-0.4,3.2,0,4.6,0.8
			c0.5,0.3,1,0.5,1.6,0.6c2.6,0.5,5.2-1.2,5.6-3.8c0.5-2.6-1.2-5.1-3.9-5.6c-0.6-0.1-1.2-0.1-1.7,0c-1.7,0.3-3.4,0-4.9-0.9
			c-0.5-0.3-1-0.5-1.6-0.6c-0.6-0.1-1.2-0.1-1.7,0c-1.7,0.3-3.4,0-4.9-0.9c-0.5-0.3-1-0.5-1.6-0.6c-0.6-0.1-1.2-0.1-1.7,0
			c-1.7,0.3-3.4,0-4.9-0.9c-0.5-0.3-1-0.5-1.6-0.6c-0.6-0.1-1.2-0.1-1.7,0c-1.7,0.3-3.4,0-4.9-0.9c-0.5-0.3-1-0.5-1.6-0.6
			s-1.2-0.1-1.7,0c-1.7,0.3-3.4,0-4.9-0.9c-0.5-0.3-1-0.5-1.6-0.6c-0.6-0.1-1.2-0.1-1.7,0c-1.7,0.3-3.4,0-4.9-0.9
			c-0.5-0.3-1-0.5-1.6-0.6s-1.2-0.1-1.7,0c-1.7,0.3-3.4,0-4.9-0.9c-0.5-0.3-1-0.5-1.6-0.6c-0.6-0.1-1.2-0.1-1.7,0
			c-1.7,0.3-3.4,0-4.9-0.9c-0.5-0.3-1-0.5-1.6-0.6s-1.2-0.1-1.7,0c-1.7,0.3-3.4,0-4.9-0.9c-0.5-0.3-1-0.5-1.6-0.6s-1.2-0.1-1.7,0
			c-1.7,0.3-3.4,0-4.9-0.9c-0.5-0.3-1-0.5-1.6-0.6c-0.7-0.1-1.3-0.1-1.9,0.1c-1.6,0.4-3.2,0-4.6-0.8c-0.5-0.3-1-0.5-1.6-0.6
			c-2.6-0.5-5.2,1.2-5.6,3.8c-0.5,2.6,1.2,5.1,3.9,5.6c0.6,0.1,1.2,0.1,1.7,0c1.7-0.3,3.4,0,4.9,0.9c0.5,0.3,1,0.5,1.6,0.6
			c0.6,0.1,1.2,0.1,1.7,0c1.7-0.3,3.4,0,4.9,0.9c0.5,0.3,1,0.5,1.6,0.6c0.6,0.1,1.2,0.1,1.7,0c1.7-0.3,3.4,0,4.9,0.9
			c0.5,0.3,1,0.5,1.6,0.6c0.6,0.1,1.2,0.1,1.7,0c1.7-0.3,3.4,0,4.9,0.9c0.5,0.3,1,0.5,1.6,0.6c0.6,0.1,1.2,0.1,1.7,0
			c1.7-0.3,3.4,0,4.9,0.9c0.5,0.3,1,0.5,1.6,0.6s1.2,0.1,1.7,0c1.7-0.3,3.4,0,4.9,0.9c0.5,0.3,1,0.5,1.6,0.6s1.2,0.1,1.7,0
			c1.7-0.3,3.4,0,4.9,0.9c0.5,0.3,1,0.5,1.6,0.6c0.6,0.1,1.2,0.1,1.7,0c1.7-0.3,3.4,0,4.9,0.9c0.5,0.3,1,0.5,1.6,0.6s1.2,0.1,1.7,0
			c1.7-0.3,3.4,0,4.9,0.9c0.5,0.3,1,0.5,1.6,0.6c0.6,0.1,1.2,0.1,1.7,0c1.7-0.3,3.4,0,4.9,0.9C764.9,153.1,765.4,153.3,766,153.4z"
			/>
	</g>
	<g filter="url(#ds1)">
		<path fill="#F9DA55" d="M765.2,139.1c0.7,0.1,1.3,0.1,1.9-0.1c1.6-0.4,3.2,0,4.6,0.8c0.5,0.3,1,0.5,1.6,0.6
			c2.6,0.5,5.2-1.2,5.6-3.8c0.5-2.6-1.2-5.1-3.9-5.6c-0.6-0.1-1.2-0.1-1.7,0c-1.7,0.3-3.4,0-4.9-0.9c-0.5-0.3-1-0.5-1.6-0.6
			c-0.6-0.1-1.2-0.1-1.7,0c-1.7,0.3-3.4,0-4.9-0.9c-0.5-0.3-1-0.5-1.6-0.6c-0.6-0.1-1.2-0.1-1.7,0c-1.7,0.3-3.4,0-4.9-0.9
			c-0.5-0.3-1-0.5-1.6-0.6c-0.6-0.1-1.2-0.1-1.7,0c-1.7,0.3-3.4,0-4.9-0.9c-0.5-0.3-1-0.5-1.6-0.6c-0.6-0.1-1.2-0.1-1.7,0
			c-1.7,0.3-3.4,0-4.9-0.9c-0.5-0.3-1-0.5-1.6-0.6c-0.6-0.1-1.2-0.1-1.7,0c-1.7,0.3-3.4,0-4.9-0.9c-0.5-0.3-1-0.5-1.6-0.6
			s-1.2-0.1-1.7,0c-1.7,0.3-3.4,0-4.9-0.9c-0.5-0.3-1-0.5-1.6-0.6c-0.6-0.1-1.2-0.1-1.7,0c-1.7,0.3-3.4,0-4.9-0.9
			c-0.5-0.3-1-0.5-1.6-0.6c-0.6-0.1-1.2-0.1-1.7,0c-1.7,0.3-3.4,0-4.9-0.9c-0.5-0.3-1-0.5-1.6-0.6c-0.6-0.1-1.2-0.1-1.7,0
			c-1.7,0.3-3.4,0-4.9-0.9c-0.5-0.3-1-0.5-1.6-0.6c-0.7-0.1-1.3-0.1-1.9,0.1c-1.6,0.4-3.2,0-4.6-0.8c-0.5-0.3-1-0.5-1.6-0.6
			c-2.6-0.5-5.2,1.2-5.6,3.8c-0.5,2.6,1.2,5.1,3.9,5.6c0.6,0.1,1.2,0.1,1.7,0c1.7-0.3,3.4,0,4.9,0.9c0.5,0.3,1,0.5,1.6,0.6
			c0.6,0.1,1.2,0.1,1.7,0c1.7-0.3,3.4,0,4.9,0.9c0.5,0.3,1,0.5,1.6,0.6s1.2,0.1,1.7,0c1.7-0.3,3.4,0,4.9,0.9c0.5,0.3,1,0.5,1.6,0.6
			c0.6,0.1,1.2,0.1,1.7,0c1.7-0.3,3.4,0,4.9,0.9c0.5,0.3,1,0.5,1.6,0.6c0.6,0.1,1.2,0.1,1.7,0c1.7-0.3,3.4,0,4.9,0.9
			c0.5,0.3,1,0.5,1.6,0.6c0.6,0.1,1.2,0.1,1.7,0c1.7-0.3,3.4,0,4.9,0.9c0.5,0.3,1,0.5,1.6,0.6c0.6,0.1,1.2,0.1,1.7,0
			c1.7-0.3,3.4,0,4.9,0.9c0.5,0.3,1,0.5,1.6,0.6c0.6,0.1,1.2,0.1,1.7,0c1.7-0.3,3.4,0,4.9,0.9c0.5,0.3,1,0.5,1.6,0.6
			c0.6,0.1,1.2,0.1,1.7,0c1.7-0.3,3.4,0,4.9,0.9c0.5,0.3,1,0.5,1.6,0.6c0.6,0.1,1.2,0.1,1.7,0c1.7-0.3,3.4,0,4.9,0.9
			C764.1,138.8,764.6,139,765.2,139.1z"/>
		<path fill="none" stroke="#D6971A" stroke-miterlimit="10" d="M765.2,139.1c0.7,0.1,1.3,0.1,1.9-0.1c1.6-0.4,3.2,0,4.6,0.8
			c0.5,0.3,1,0.5,1.6,0.6c2.6,0.5,5.2-1.2,5.6-3.8c0.5-2.6-1.2-5.1-3.9-5.6c-0.6-0.1-1.2-0.1-1.7,0c-1.7,0.3-3.4,0-4.9-0.9
			c-0.5-0.3-1-0.5-1.6-0.6c-0.6-0.1-1.2-0.1-1.7,0c-1.7,0.3-3.4,0-4.9-0.9c-0.5-0.3-1-0.5-1.6-0.6c-0.6-0.1-1.2-0.1-1.7,0
			c-1.7,0.3-3.4,0-4.9-0.9c-0.5-0.3-1-0.5-1.6-0.6c-0.6-0.1-1.2-0.1-1.7,0c-1.7,0.3-3.4,0-4.9-0.9c-0.5-0.3-1-0.5-1.6-0.6
			c-0.6-0.1-1.2-0.1-1.7,0c-1.7,0.3-3.4,0-4.9-0.9c-0.5-0.3-1-0.5-1.6-0.6c-0.6-0.1-1.2-0.1-1.7,0c-1.7,0.3-3.4,0-4.9-0.9
			c-0.5-0.3-1-0.5-1.6-0.6s-1.2-0.1-1.7,0c-1.7,0.3-3.4,0-4.9-0.9c-0.5-0.3-1-0.5-1.6-0.6c-0.6-0.1-1.2-0.1-1.7,0
			c-1.7,0.3-3.4,0-4.9-0.9c-0.5-0.3-1-0.5-1.6-0.6c-0.6-0.1-1.2-0.1-1.7,0c-1.7,0.3-3.4,0-4.9-0.9c-0.5-0.3-1-0.5-1.6-0.6
			c-0.6-0.1-1.2-0.1-1.7,0c-1.7,0.3-3.4,0-4.9-0.9c-0.5-0.3-1-0.5-1.6-0.6c-0.7-0.1-1.3-0.1-1.9,0.1c-1.6,0.4-3.2,0-4.6-0.8
			c-0.5-0.3-1-0.5-1.6-0.6c-2.6-0.5-5.2,1.2-5.6,3.8c-0.5,2.6,1.2,5.1,3.9,5.6c0.6,0.1,1.2,0.1,1.7,0c1.7-0.3,3.4,0,4.9,0.9
			c0.5,0.3,1,0.5,1.6,0.6c0.6,0.1,1.2,0.1,1.7,0c1.7-0.3,3.4,0,4.9,0.9c0.5,0.3,1,0.5,1.6,0.6s1.2,0.1,1.7,0c1.7-0.3,3.4,0,4.9,0.9
			c0.5,0.3,1,0.5,1.6,0.6c0.6,0.1,1.2,0.1,1.7,0c1.7-0.3,3.4,0,4.9,0.9c0.5,0.3,1,0.5,1.6,0.6c0.6,0.1,1.2,0.1,1.7,0
			c1.7-0.3,3.4,0,4.9,0.9c0.5,0.3,1,0.5,1.6,0.6c0.6,0.1,1.2,0.1,1.7,0c1.7-0.3,3.4,0,4.9,0.9c0.5,0.3,1,0.5,1.6,0.6
			c0.6,0.1,1.2,0.1,1.7,0c1.7-0.3,3.4,0,4.9,0.9c0.5,0.3,1,0.5,1.6,0.6c0.6,0.1,1.2,0.1,1.7,0c1.7-0.3,3.4,0,4.9,0.9
			c0.5,0.3,1,0.5,1.6,0.6c0.6,0.1,1.2,0.1,1.7,0c1.7-0.3,3.4,0,4.9,0.9c0.5,0.3,1,0.5,1.6,0.6c0.6,0.1,1.2,0.1,1.7,0
			c1.7-0.3,3.4,0,4.9,0.9C764.1,138.8,764.6,139,765.2,139.1z"/>
	</g>
	<g filter="url(#ds1)">
		<path fill="#F49F38" d="M776.9,143.8c0,0,0-0.1,0-0.1c0.3-1.2,1-2.2,1.3-3.4c0.3-1.3-0.2-2.6,0-3.9c0.2-1.3,1.3-2.4,1.5-3.7
			c0.2-1.2-0.4-2.5-0.1-3.7c0.4-2.4,2.7-4,5.1-3.5c2.4,0.4,4,2.7,3.5,5.1c-0.2,0.9-0.7,1.5-1.1,2.3c-0.4,0.8-0.7,1.9-0.5,2.8
			c0.2,0.8,0.4,1.4,0.3,2.3c-0.2,1.2-1.3,2.1-1.6,3.3c-0.4,1.4,0.6,2.8,0.3,4.2c-0.4,2.4-2.7,4-5.1,3.5
			C778.1,148.4,776.5,146.1,776.9,143.8z"/>
		<path fill="none" stroke="#C66320" stroke-miterlimit="10" d="M776.9,143.8c0,0,0-0.1,0-0.1c0.3-1.2,1-2.2,1.3-3.4
			c0.3-1.3-0.2-2.6,0-3.9c0.2-1.3,1.3-2.4,1.5-3.7c0.2-1.2-0.4-2.5-0.1-3.7c0.4-2.4,2.7-4,5.1-3.5c2.4,0.4,4,2.7,3.5,5.1
			c-0.2,0.9-0.7,1.5-1.1,2.3c-0.4,0.8-0.7,1.9-0.5,2.8c0.2,0.8,0.4,1.4,0.3,2.3c-0.2,1.2-1.3,2.1-1.6,3.3c-0.4,1.4,0.6,2.8,0.3,4.2
			c-0.4,2.4-2.7,4-5.1,3.5C778.1,148.4,776.5,146.1,776.9,143.8z"/>
	</g>
</g>
<g>
	<g filter="url(#ds1)">
		<path fill="#F9DA55" d="M735.6,41.4c0.2-0.7,0.2-1.3,0.1-1.9c-0.3-1.6,0.2-3.2,1.1-4.5c0.3-0.4,0.6-1,0.7-1.5
			c0.7-2.5-0.9-5.2-3.4-5.9c-2.6-0.7-5.2,0.9-5.8,3.5c-0.1,0.6-0.2,1.2-0.1,1.7c0.2,1.7-0.2,3.4-1.1,4.8c-0.3,0.5-0.6,1-0.7,1.6
			c-0.1,0.6-0.2,1.2-0.1,1.7c0.2,1.7-0.2,3.4-1.1,4.8c-0.3,0.5-0.6,1-0.7,1.6c-0.1,0.6-0.2,1.2-0.1,1.7c0.2,1.7-0.2,3.4-1.1,4.8
			c-0.3,0.5-0.6,1-0.7,1.6c-0.1,0.6-0.2,1.2-0.1,1.7c0.2,1.7-0.2,3.4-1.1,4.8c-0.3,0.5-0.6,1-0.7,1.6c-0.1,0.6-0.2,1.2-0.1,1.7
			c0.2,1.7-0.2,3.4-1.1,4.8c-0.3,0.5-0.6,1-0.7,1.6s-0.2,1.2-0.1,1.7c0.2,1.7-0.2,3.4-1.1,4.8c-0.3,0.5-0.6,1-0.7,1.6
			c-0.1,0.6-0.2,1.2-0.1,1.7c0.2,1.7-0.2,3.4-1.1,4.8c-0.3,0.5-0.6,1-0.7,1.6c-0.1,0.6-0.2,1.2-0.1,1.7c0.2,1.7-0.2,3.4-1.1,4.8
			c-0.3,0.5-0.6,1-0.7,1.6s-0.2,1.2-0.1,1.7c0.2,1.7-0.2,3.4-1.1,4.8c-0.3,0.5-0.6,1-0.7,1.6c-0.1,0.6-0.2,1.2-0.1,1.7
			c0.2,1.7-0.2,3.4-1.1,4.8c-0.3,0.5-0.6,1-0.7,1.6c-0.2,0.7-0.2,1.3-0.1,1.9c0.3,1.6-0.2,3.2-1.1,4.5c-0.3,0.4-0.6,1-0.7,1.5
			c-0.7,2.5,0.9,5.2,3.4,5.9c2.6,0.7,5.2-0.9,5.8-3.5c0.1-0.6,0.2-1.2,0.1-1.7c-0.2-1.7,0.2-3.4,1.1-4.8c0.3-0.5,0.6-1,0.7-1.6
			c0.1-0.6,0.2-1.2,0.1-1.7c-0.2-1.7,0.2-3.4,1.1-4.8c0.3-0.5,0.6-1,0.7-1.6c0.1-0.6,0.2-1.2,0.1-1.7c-0.2-1.7,0.2-3.4,1.1-4.8
			c0.3-0.5,0.6-1,0.7-1.6c0.1-0.6,0.2-1.2,0.1-1.7c-0.2-1.7,0.2-3.4,1.1-4.8c0.3-0.5,0.6-1,0.7-1.6c0.1-0.6,0.2-1.2,0.1-1.7
			c-0.2-1.7,0.2-3.4,1.1-4.8c0.3-0.5,0.6-1,0.7-1.6c0.1-0.6,0.2-1.2,0.1-1.7c-0.2-1.7,0.2-3.4,1.1-4.8c0.3-0.5,0.6-1,0.7-1.6
			c0.1-0.6,0.2-1.2,0.1-1.7c-0.2-1.7,0.2-3.4,1.1-4.8c0.3-0.5,0.6-1,0.7-1.6s0.2-1.2,0.1-1.7c-0.2-1.7,0.2-3.4,1.1-4.8
			c0.3-0.5,0.6-1,0.7-1.6c0.1-0.6,0.2-1.2,0.1-1.7c-0.2-1.7,0.2-3.4,1.1-4.8c0.3-0.5,0.6-1,0.7-1.6c0.1-0.6,0.2-1.2,0.1-1.7
			c-0.2-1.7,0.2-3.4,1.1-4.8C735.2,42.5,735.5,41.9,735.6,41.4z"/>
		<path fill="none" stroke="#D6971A" stroke-miterlimit="10" d="M735.6,41.4c0.2-0.7,0.2-1.3,0.1-1.9c-0.3-1.6,0.2-3.2,1.1-4.5
			c0.3-0.4,0.6-1,0.7-1.5c0.7-2.5-0.9-5.2-3.4-5.9c-2.6-0.7-5.2,0.9-5.8,3.5c-0.1,0.6-0.2,1.2-0.1,1.7c0.2,1.7-0.2,3.4-1.1,4.8
			c-0.3,0.5-0.6,1-0.7,1.6c-0.1,0.6-0.2,1.2-0.1,1.7c0.2,1.7-0.2,3.4-1.1,4.8c-0.3,0.5-0.6,1-0.7,1.6c-0.1,0.6-0.2,1.2-0.1,1.7
			c0.2,1.7-0.2,3.4-1.1,4.8c-0.3,0.5-0.6,1-0.7,1.6c-0.1,0.6-0.2,1.2-0.1,1.7c0.2,1.7-0.2,3.4-1.1,4.8c-0.3,0.5-0.6,1-0.7,1.6
			c-0.1,0.6-0.2,1.2-0.1,1.7c0.2,1.7-0.2,3.4-1.1,4.8c-0.3,0.5-0.6,1-0.7,1.6s-0.2,1.2-0.1,1.7c0.2,1.7-0.2,3.4-1.1,4.8
			c-0.3,0.5-0.6,1-0.7,1.6c-0.1,0.6-0.2,1.2-0.1,1.7c0.2,1.7-0.2,3.4-1.1,4.8c-0.3,0.5-0.6,1-0.7,1.6c-0.1,0.6-0.2,1.2-0.1,1.7
			c0.2,1.7-0.2,3.4-1.1,4.8c-0.3,0.5-0.6,1-0.7,1.6s-0.2,1.2-0.1,1.7c0.2,1.7-0.2,3.4-1.1,4.8c-0.3,0.5-0.6,1-0.7,1.6
			c-0.1,0.6-0.2,1.2-0.1,1.7c0.2,1.7-0.2,3.4-1.1,4.8c-0.3,0.5-0.6,1-0.7,1.6c-0.2,0.7-0.2,1.3-0.1,1.9c0.3,1.6-0.2,3.2-1.1,4.5
			c-0.3,0.4-0.6,1-0.7,1.5c-0.7,2.5,0.9,5.2,3.4,5.9c2.6,0.7,5.2-0.9,5.8-3.5c0.1-0.6,0.2-1.2,0.1-1.7c-0.2-1.7,0.2-3.4,1.1-4.8
			c0.3-0.5,0.6-1,0.7-1.6c0.1-0.6,0.2-1.2,0.1-1.7c-0.2-1.7,0.2-3.4,1.1-4.8c0.3-0.5,0.6-1,0.7-1.6c0.1-0.6,0.2-1.2,0.1-1.7
			c-0.2-1.7,0.2-3.4,1.1-4.8c0.3-0.5,0.6-1,0.7-1.6c0.1-0.6,0.2-1.2,0.1-1.7c-0.2-1.7,0.2-3.4,1.1-4.8c0.3-0.5,0.6-1,0.7-1.6
			c0.1-0.6,0.2-1.2,0.1-1.7c-0.2-1.7,0.2-3.4,1.1-4.8c0.3-0.5,0.6-1,0.7-1.6c0.1-0.6,0.2-1.2,0.1-1.7c-0.2-1.7,0.2-3.4,1.1-4.8
			c0.3-0.5,0.6-1,0.7-1.6c0.1-0.6,0.2-1.2,0.1-1.7c-0.2-1.7,0.2-3.4,1.1-4.8c0.3-0.5,0.6-1,0.7-1.6s0.2-1.2,0.1-1.7
			c-0.2-1.7,0.2-3.4,1.1-4.8c0.3-0.5,0.6-1,0.7-1.6c0.1-0.6,0.2-1.2,0.1-1.7c-0.2-1.7,0.2-3.4,1.1-4.8c0.3-0.5,0.6-1,0.7-1.6
			c0.1-0.6,0.2-1.2,0.1-1.7c-0.2-1.7,0.2-3.4,1.1-4.8C735.2,42.5,735.5,41.9,735.6,41.4z"/>
	</g>
	<g filter="url(#ds1)">
		<path fill="#F9DA55" d="M763.1,47.8c0.2-0.7,0.2-1.3,0.1-1.9c-0.3-1.6,0.2-3.2,1.1-4.5c0.3-0.4,0.6-1,0.7-1.5
			c0.7-2.5-0.9-5.2-3.4-5.9c-2.6-0.7-5.2,0.9-5.8,3.5c-0.1,0.6-0.2,1.2-0.1,1.7c0.2,1.7-0.2,3.4-1.1,4.8c-0.3,0.5-0.6,1-0.7,1.6
			c-0.1,0.6-0.2,1.2-0.1,1.7c0.2,1.7-0.2,3.4-1.1,4.8c-0.3,0.5-0.6,1-0.7,1.6c-0.1,0.6-0.2,1.2-0.1,1.7c0.2,1.7-0.2,3.4-1.1,4.8
			c-0.3,0.5-0.6,1-0.7,1.6c-0.1,0.6-0.2,1.2-0.1,1.7c0.2,1.7-0.2,3.4-1.1,4.8c-0.3,0.5-0.6,1-0.7,1.6s-0.2,1.2-0.1,1.7
			c0.2,1.7-0.2,3.4-1.1,4.8c-0.3,0.5-0.6,1-0.7,1.6s-0.2,1.2-0.1,1.7c0.2,1.7-0.2,3.4-1.1,4.8c-0.3,0.5-0.6,1-0.7,1.6
			c-0.1,0.6-0.2,1.2-0.1,1.7c0.2,1.7-0.2,3.4-1.1,4.8c-0.3,0.5-0.6,1-0.7,1.6c-0.1,0.6-0.2,1.2-0.1,1.7c0.2,1.7-0.2,3.4-1.1,4.8
			c-0.3,0.5-0.6,1-0.7,1.6s-0.2,1.2-0.1,1.7c0.2,1.7-0.2,3.4-1.1,4.8c-0.3,0.5-0.6,1-0.7,1.6c-0.1,0.6-0.2,1.2-0.1,1.7
			c0.2,1.7-0.2,3.4-1.1,4.8c-0.3,0.5-0.6,1-0.7,1.6c-0.2,0.7-0.2,1.3-0.1,1.9c0.3,1.6-0.2,3.2-1.1,4.5c-0.3,0.4-0.6,1-0.7,1.5
			c-0.7,2.5,0.9,5.2,3.4,5.9c2.6,0.7,5.2-0.9,5.8-3.5c0.1-0.6,0.2-1.2,0.1-1.7c-0.2-1.7,0.2-3.4,1.1-4.8c0.3-0.5,0.6-1,0.7-1.6
			c0.1-0.6,0.2-1.2,0.1-1.7c-0.2-1.7,0.2-3.4,1.1-4.8c0.3-0.5,0.6-1,0.7-1.6c0.1-0.6,0.2-1.2,0.1-1.7c-0.2-1.7,0.2-3.4,1.1-4.8
			c0.3-0.5,0.6-1,0.7-1.6c0.1-0.6,0.2-1.2,0.1-1.7c-0.2-1.7,0.2-3.4,1.1-4.8c0.3-0.5,0.6-1,0.7-1.6c0.1-0.6,0.2-1.2,0.1-1.7
			c-0.2-1.7,0.2-3.4,1.1-4.8c0.3-0.5,0.6-1,0.7-1.6c0.1-0.6,0.2-1.2,0.1-1.7c-0.2-1.7,0.2-3.4,1.1-4.8c0.3-0.5,0.6-1,0.7-1.6
			c0.1-0.6,0.2-1.2,0.1-1.7c-0.2-1.7,0.2-3.4,1.1-4.8c0.3-0.5,0.6-1,0.7-1.6c0.1-0.6,0.2-1.2,0.1-1.7c-0.2-1.7,0.2-3.4,1.1-4.8
			c0.3-0.5,0.6-1,0.7-1.6c0.1-0.6,0.2-1.2,0.1-1.7c-0.2-1.7,0.2-3.4,1.1-4.8c0.3-0.5,0.6-1,0.7-1.6c0.1-0.6,0.2-1.2,0.1-1.7
			c-0.2-1.7,0.2-3.4,1.1-4.8C762.7,49,762.9,48.4,763.1,47.8z"/>
		<path fill="none" stroke="#D6971A" stroke-miterlimit="10" d="M763.1,47.8c0.2-0.7,0.2-1.3,0.1-1.9c-0.3-1.6,0.2-3.2,1.1-4.5
			c0.3-0.4,0.6-1,0.7-1.5c0.7-2.5-0.9-5.2-3.4-5.9c-2.6-0.7-5.2,0.9-5.8,3.5c-0.1,0.6-0.2,1.2-0.1,1.7c0.2,1.7-0.2,3.4-1.1,4.8
			c-0.3,0.5-0.6,1-0.7,1.6c-0.1,0.6-0.2,1.2-0.1,1.7c0.2,1.7-0.2,3.4-1.1,4.8c-0.3,0.5-0.6,1-0.7,1.6c-0.1,0.6-0.2,1.2-0.1,1.7
			c0.2,1.7-0.2,3.4-1.1,4.8c-0.3,0.5-0.6,1-0.7,1.6c-0.1,0.6-0.2,1.2-0.1,1.7c0.2,1.7-0.2,3.4-1.1,4.8c-0.3,0.5-0.6,1-0.7,1.6
			s-0.2,1.2-0.1,1.7c0.2,1.7-0.2,3.4-1.1,4.8c-0.3,0.5-0.6,1-0.7,1.6s-0.2,1.2-0.1,1.7c0.2,1.7-0.2,3.4-1.1,4.8
			c-0.3,0.5-0.6,1-0.7,1.6c-0.1,0.6-0.2,1.2-0.1,1.7c0.2,1.7-0.2,3.4-1.1,4.8c-0.3,0.5-0.6,1-0.7,1.6c-0.1,0.6-0.2,1.2-0.1,1.7
			c0.2,1.7-0.2,3.4-1.1,4.8c-0.3,0.5-0.6,1-0.7,1.6s-0.2,1.2-0.1,1.7c0.2,1.7-0.2,3.4-1.1,4.8c-0.3,0.5-0.6,1-0.7,1.6
			c-0.1,0.6-0.2,1.2-0.1,1.7c0.2,1.7-0.2,3.4-1.1,4.8c-0.3,0.5-0.6,1-0.7,1.6c-0.2,0.7-0.2,1.3-0.1,1.9c0.3,1.6-0.2,3.2-1.1,4.5
			c-0.3,0.4-0.6,1-0.7,1.5c-0.7,2.5,0.9,5.2,3.4,5.9c2.6,0.7,5.2-0.9,5.8-3.5c0.1-0.6,0.2-1.2,0.1-1.7c-0.2-1.7,0.2-3.4,1.1-4.8
			c0.3-0.5,0.6-1,0.7-1.6c0.1-0.6,0.2-1.2,0.1-1.7c-0.2-1.7,0.2-3.4,1.1-4.8c0.3-0.5,0.6-1,0.7-1.6c0.1-0.6,0.2-1.2,0.1-1.7
			c-0.2-1.7,0.2-3.4,1.1-4.8c0.3-0.5,0.6-1,0.7-1.6c0.1-0.6,0.2-1.2,0.1-1.7c-0.2-1.7,0.2-3.4,1.1-4.8c0.3-0.5,0.6-1,0.7-1.6
			c0.1-0.6,0.2-1.2,0.1-1.7c-0.2-1.7,0.2-3.4,1.1-4.8c0.3-0.5,0.6-1,0.7-1.6c0.1-0.6,0.2-1.2,0.1-1.7c-0.2-1.7,0.2-3.4,1.1-4.8
			c0.3-0.5,0.6-1,0.7-1.6c0.1-0.6,0.2-1.2,0.1-1.7c-0.2-1.7,0.2-3.4,1.1-4.8c0.3-0.5,0.6-1,0.7-1.6c0.1-0.6,0.2-1.2,0.1-1.7
			c-0.2-1.7,0.2-3.4,1.1-4.8c0.3-0.5,0.6-1,0.7-1.6c0.1-0.6,0.2-1.2,0.1-1.7c-0.2-1.7,0.2-3.4,1.1-4.8c0.3-0.5,0.6-1,0.7-1.6
			c0.1-0.6,0.2-1.2,0.1-1.7c-0.2-1.7,0.2-3.4,1.1-4.8C762.7,49,762.9,48.4,763.1,47.8z"/>
	</g>
	<g filter="url(#ds1)">
		<path fill="#F9DA55" d="M748.8,47.8c0.2-0.7,0.2-1.3,0.1-1.9c-0.3-1.6,0.2-3.2,1.1-4.5c0.3-0.4,0.6-1,0.7-1.5
			c0.7-2.5-0.9-5.2-3.4-5.9c-2.6-0.7-5.2,0.9-5.8,3.5c-0.1,0.6-0.2,1.2-0.1,1.7c0.2,1.7-0.2,3.4-1.1,4.8c-0.3,0.5-0.6,1-0.7,1.6
			c-0.1,0.6-0.2,1.2-0.1,1.7c0.2,1.7-0.2,3.4-1.1,4.8c-0.3,0.5-0.6,1-0.7,1.6c-0.1,0.6-0.2,1.2-0.1,1.7c0.2,1.7-0.2,3.4-1.1,4.8
			c-0.3,0.5-0.6,1-0.7,1.6c-0.1,0.6-0.2,1.2-0.1,1.7c0.2,1.7-0.2,3.4-1.1,4.8c-0.3,0.5-0.6,1-0.7,1.6c-0.1,0.6-0.2,1.2-0.1,1.7
			c0.2,1.7-0.2,3.4-1.1,4.8c-0.3,0.5-0.6,1-0.7,1.6s-0.2,1.2-0.1,1.7c0.2,1.7-0.2,3.4-1.1,4.8c-0.3,0.5-0.6,1-0.7,1.6
			c-0.1,0.6-0.2,1.2-0.1,1.7c0.2,1.7-0.2,3.4-1.1,4.8c-0.3,0.5-0.6,1-0.7,1.6c-0.1,0.6-0.2,1.2-0.1,1.7c0.2,1.7-0.2,3.4-1.1,4.8
			c-0.3,0.5-0.6,1-0.7,1.6s-0.2,1.2-0.1,1.7c0.2,1.7-0.2,3.4-1.1,4.8c-0.3,0.5-0.6,1-0.7,1.6c-0.1,0.6-0.2,1.2-0.1,1.7
			c0.2,1.7-0.2,3.4-1.1,4.8c-0.3,0.5-0.6,1-0.7,1.6c-0.2,0.7-0.2,1.3-0.1,1.9c0.3,1.6-0.2,3.2-1.1,4.5c-0.3,0.4-0.6,1-0.7,1.5
			c-0.7,2.5,0.9,5.2,3.4,5.9c2.6,0.7,5.2-0.9,5.8-3.5c0.1-0.6,0.2-1.2,0.1-1.7c-0.2-1.7,0.2-3.4,1.1-4.8c0.3-0.5,0.6-1,0.7-1.6
			c0.1-0.6,0.2-1.2,0.1-1.7c-0.2-1.7,0.2-3.4,1.1-4.8c0.3-0.5,0.6-1,0.7-1.6c0.1-0.6,0.2-1.2,0.1-1.7c-0.2-1.7,0.2-3.4,1.1-4.8
			c0.3-0.5,0.6-1,0.7-1.6c0.1-0.6,0.2-1.2,0.1-1.7c-0.2-1.7,0.2-3.4,1.1-4.8c0.3-0.5,0.6-1,0.7-1.6c0.1-0.6,0.2-1.2,0.1-1.7
			c-0.2-1.7,0.2-3.4,1.1-4.8c0.3-0.5,0.6-1,0.7-1.6c0.1-0.6,0.2-1.2,0.1-1.7c-0.2-1.7,0.2-3.4,1.1-4.8c0.3-0.5,0.6-1,0.7-1.6
			s0.2-1.2,0.1-1.7c-0.2-1.7,0.2-3.4,1.1-4.8c0.3-0.5,0.6-1,0.7-1.6s0.2-1.2,0.1-1.7c-0.2-1.7,0.2-3.4,1.1-4.8
			c0.3-0.5,0.6-1,0.7-1.6c0.1-0.6,0.2-1.2,0.1-1.7c-0.2-1.7,0.2-3.4,1.1-4.8c0.3-0.5,0.6-1,0.7-1.6c0.1-0.6,0.2-1.2,0.1-1.7
			c-0.2-1.7,0.2-3.4,1.1-4.8C748.4,48.9,748.6,48.4,748.8,47.8z"/>
		<path fill="none" stroke="#D6971A" stroke-miterlimit="10" d="M748.8,47.8c0.2-0.7,0.2-1.3,0.1-1.9c-0.3-1.6,0.2-3.2,1.1-4.5
			c0.3-0.4,0.6-1,0.7-1.5c0.7-2.5-0.9-5.2-3.4-5.9c-2.6-0.7-5.2,0.9-5.8,3.5c-0.1,0.6-0.2,1.2-0.1,1.7c0.2,1.7-0.2,3.4-1.1,4.8
			c-0.3,0.5-0.6,1-0.7,1.6c-0.1,0.6-0.2,1.2-0.1,1.7c0.2,1.7-0.2,3.4-1.1,4.8c-0.3,0.5-0.6,1-0.7,1.6c-0.1,0.6-0.2,1.2-0.1,1.7
			c0.2,1.7-0.2,3.4-1.1,4.8c-0.3,0.5-0.6,1-0.7,1.6c-0.1,0.6-0.2,1.2-0.1,1.7c0.2,1.7-0.2,3.4-1.1,4.8c-0.3,0.5-0.6,1-0.7,1.6
			c-0.1,0.6-0.2,1.2-0.1,1.7c0.2,1.7-0.2,3.4-1.1,4.8c-0.3,0.5-0.6,1-0.7,1.6s-0.2,1.2-0.1,1.7c0.2,1.7-0.2,3.4-1.1,4.8
			c-0.3,0.5-0.6,1-0.7,1.6c-0.1,0.6-0.2,1.2-0.1,1.7c0.2,1.7-0.2,3.4-1.1,4.8c-0.3,0.5-0.6,1-0.7,1.6c-0.1,0.6-0.2,1.2-0.1,1.7
			c0.2,1.7-0.2,3.4-1.1,4.8c-0.3,0.5-0.6,1-0.7,1.6s-0.2,1.2-0.1,1.7c0.2,1.7-0.2,3.4-1.1,4.8c-0.3,0.5-0.6,1-0.7,1.6
			c-0.1,0.6-0.2,1.2-0.1,1.7c0.2,1.7-0.2,3.4-1.1,4.8c-0.3,0.5-0.6,1-0.7,1.6c-0.2,0.7-0.2,1.3-0.1,1.9c0.3,1.6-0.2,3.2-1.1,4.5
			c-0.3,0.4-0.6,1-0.7,1.5c-0.7,2.5,0.9,5.2,3.4,5.9c2.6,0.7,5.2-0.9,5.8-3.5c0.1-0.6,0.2-1.2,0.1-1.7c-0.2-1.7,0.2-3.4,1.1-4.8
			c0.3-0.5,0.6-1,0.7-1.6c0.1-0.6,0.2-1.2,0.1-1.7c-0.2-1.7,0.2-3.4,1.1-4.8c0.3-0.5,0.6-1,0.7-1.6c0.1-0.6,0.2-1.2,0.1-1.7
			c-0.2-1.7,0.2-3.4,1.1-4.8c0.3-0.5,0.6-1,0.7-1.6c0.1-0.6,0.2-1.2,0.1-1.7c-0.2-1.7,0.2-3.4,1.1-4.8c0.3-0.5,0.6-1,0.7-1.6
			c0.1-0.6,0.2-1.2,0.1-1.7c-0.2-1.7,0.2-3.4,1.1-4.8c0.3-0.5,0.6-1,0.7-1.6c0.1-0.6,0.2-1.2,0.1-1.7c-0.2-1.7,0.2-3.4,1.1-4.8
			c0.3-0.5,0.6-1,0.7-1.6s0.2-1.2,0.1-1.7c-0.2-1.7,0.2-3.4,1.1-4.8c0.3-0.5,0.6-1,0.7-1.6s0.2-1.2,0.1-1.7
			c-0.2-1.7,0.2-3.4,1.1-4.8c0.3-0.5,0.6-1,0.7-1.6c0.1-0.6,0.2-1.2,0.1-1.7c-0.2-1.7,0.2-3.4,1.1-4.8c0.3-0.5,0.6-1,0.7-1.6
			c0.1-0.6,0.2-1.2,0.1-1.7c-0.2-1.7,0.2-3.4,1.1-4.8C748.4,48.9,748.6,48.4,748.8,47.8z"/>
	</g>
	<g filter="url(#ds1)">
		<path fill="#F49F38" d="M754.1,36.4c0,0-0.1,0-0.1,0c-1.2-0.3-2.2-1.2-3.3-1.5c-1.2-0.3-2.6,0.1-3.9-0.2c-1.3-0.3-2.3-1.4-3.6-1.7
			c-1.2-0.2-2.5,0.2-3.7-0.1c-2.3-0.6-3.8-2.9-3.2-5.3s2.9-3.8,5.3-3.2c0.9,0.2,1.5,0.8,2.2,1.2c0.8,0.4,1.8,0.8,2.7,0.7
			c0.8-0.1,1.5-0.3,2.3-0.1c1.2,0.3,2,1.4,3.2,1.8c1.3,0.5,2.8-0.4,4.2-0.1c2.3,0.6,3.8,2.9,3.2,5.3
			C758.8,35.5,756.4,36.9,754.1,36.4z"/>
		<path fill="none" stroke="#C66320" stroke-miterlimit="10" d="M754.1,36.4c0,0-0.1,0-0.1,0c-1.2-0.3-2.2-1.2-3.3-1.5
			c-1.2-0.3-2.6,0.1-3.9-0.2c-1.3-0.3-2.3-1.4-3.6-1.7c-1.2-0.2-2.5,0.2-3.7-0.1c-2.3-0.6-3.8-2.9-3.2-5.3s2.9-3.8,5.3-3.2
			c0.9,0.2,1.5,0.8,2.2,1.2c0.8,0.4,1.8,0.8,2.7,0.7c0.8-0.1,1.5-0.3,2.3-0.1c1.2,0.3,2,1.4,3.2,1.8c1.3,0.5,2.8-0.4,4.2-0.1
			c2.3,0.6,3.8,2.9,3.2,5.3C758.8,35.5,756.4,36.9,754.1,36.4z"/>
	</g>
</g>
<g>
	<g filter="url(#ds1)">
		<path fill="#F9DA55" d="M660.1,102.7c-0.4-0.6-0.9-1-1.4-1.3c-1.4-0.8-2.3-2.3-2.6-3.8c-0.1-0.5-0.3-1.1-0.7-1.5
			c-1.4-2.2-4.5-2.8-6.6-1.4c-2.2,1.5-2.8,4.5-1.2,6.7c0.3,0.5,0.8,0.9,1.2,1.2c1.4,1,2.4,2.4,2.8,4.1c0.1,0.6,0.4,1.1,0.7,1.6
			c0.3,0.5,0.8,0.9,1.2,1.2c1.4,1,2.4,2.4,2.8,4.1c0.1,0.6,0.4,1.1,0.7,1.6c0.3,0.5,0.8,0.9,1.2,1.2c1.4,1,2.4,2.4,2.8,4.1
			c0.1,0.6,0.4,1.1,0.7,1.6c0.3,0.5,0.8,0.9,1.2,1.2c1.4,1,2.4,2.4,2.8,4.1c0.1,0.6,0.4,1.1,0.7,1.6c0.3,0.5,0.8,0.9,1.2,1.2
			c1.4,1,2.4,2.4,2.8,4.1c0.1,0.6,0.4,1.1,0.7,1.6c0.3,0.5,0.8,0.9,1.2,1.2c1.4,1,2.4,2.4,2.8,4.1c0.1,0.6,0.4,1.1,0.7,1.6
			c0.3,0.5,0.8,0.9,1.2,1.2c1.4,1,2.4,2.4,2.8,4.1c0.1,0.6,0.4,1.1,0.7,1.6c0.3,0.5,0.8,0.9,1.2,1.2c1.4,1,2.4,2.4,2.8,4.1
			c0.1,0.6,0.4,1.1,0.7,1.6c0.3,0.5,0.8,0.9,1.2,1.2c1.4,1,2.4,2.4,2.8,4.1c0.1,0.6,0.4,1.1,0.7,1.6c0.3,0.5,0.8,0.9,1.2,1.2
			c1.4,1,2.4,2.4,2.8,4.1c0.1,0.6,0.4,1.1,0.7,1.6c0.4,0.6,0.9,1,1.4,1.3c1.4,0.8,2.3,2.3,2.6,3.8c0.1,0.5,0.3,1.1,0.7,1.5
			c1.4,2.2,4.5,2.8,6.6,1.4c2.2-1.5,2.8-4.5,1.2-6.7c-0.3-0.5-0.8-0.9-1.2-1.2c-1.4-1-2.4-2.4-2.8-4.1c-0.1-0.6-0.4-1.1-0.7-1.6
			c-0.3-0.5-0.8-0.9-1.2-1.2c-1.4-1-2.4-2.4-2.8-4.1c-0.1-0.6-0.4-1.1-0.7-1.6c-0.3-0.5-0.8-0.9-1.2-1.2c-1.4-1-2.4-2.4-2.8-4.1
			c-0.1-0.6-0.4-1.1-0.7-1.6c-0.3-0.5-0.8-0.9-1.2-1.2c-1.4-1-2.4-2.4-2.8-4.1c-0.1-0.6-0.4-1.1-0.7-1.6c-0.3-0.5-0.8-0.9-1.2-1.2
			c-1.4-1-2.4-2.4-2.8-4.1c-0.1-0.6-0.4-1.1-0.7-1.6c-0.3-0.5-0.8-0.9-1.2-1.2c-1.4-1-2.4-2.4-2.8-4.1c-0.1-0.6-0.4-1.1-0.7-1.6
			s-0.8-0.9-1.2-1.2c-1.4-1-2.4-2.4-2.8-4.1c-0.1-0.6-0.4-1.1-0.7-1.6c-0.3-0.5-0.8-0.9-1.2-1.2c-1.4-1-2.4-2.4-2.8-4.1
			c-0.1-0.6-0.4-1.1-0.7-1.6c-0.3-0.5-0.8-0.9-1.2-1.2c-1.4-1-2.4-2.4-2.8-4.1c-0.1-0.6-0.4-1.1-0.7-1.6c-0.3-0.5-0.8-0.9-1.2-1.2
			c-1.4-1-2.4-2.4-2.8-4.1C660.7,103.7,660.5,103.2,660.1,102.7z"/>
		<path fill="none" stroke="#D6971A" stroke-miterlimit="10" d="M660.1,102.7c-0.4-0.6-0.9-1-1.4-1.3c-1.4-0.8-2.3-2.3-2.6-3.8
			c-0.1-0.5-0.3-1.1-0.7-1.5c-1.4-2.2-4.5-2.8-6.6-1.4c-2.2,1.5-2.8,4.5-1.2,6.7c0.3,0.5,0.8,0.9,1.2,1.2c1.4,1,2.4,2.4,2.8,4.1
			c0.1,0.6,0.4,1.1,0.7,1.6c0.3,0.5,0.8,0.9,1.2,1.2c1.4,1,2.4,2.4,2.8,4.1c0.1,0.6,0.4,1.1,0.7,1.6c0.3,0.5,0.8,0.9,1.2,1.2
			c1.4,1,2.4,2.4,2.8,4.1c0.1,0.6,0.4,1.1,0.7,1.6c0.3,0.5,0.8,0.9,1.2,1.2c1.4,1,2.4,2.4,2.8,4.1c0.1,0.6,0.4,1.1,0.7,1.6
			c0.3,0.5,0.8,0.9,1.2,1.2c1.4,1,2.4,2.4,2.8,4.1c0.1,0.6,0.4,1.1,0.7,1.6c0.3,0.5,0.8,0.9,1.2,1.2c1.4,1,2.4,2.4,2.8,4.1
			c0.1,0.6,0.4,1.1,0.7,1.6c0.3,0.5,0.8,0.9,1.2,1.2c1.4,1,2.4,2.4,2.8,4.1c0.1,0.6,0.4,1.1,0.7,1.6c0.3,0.5,0.8,0.9,1.2,1.2
			c1.4,1,2.4,2.4,2.8,4.1c0.1,0.6,0.4,1.1,0.7,1.6c0.3,0.5,0.8,0.9,1.2,1.2c1.4,1,2.4,2.4,2.8,4.1c0.1,0.6,0.4,1.1,0.7,1.6
			c0.3,0.5,0.8,0.9,1.2,1.2c1.4,1,2.4,2.4,2.8,4.1c0.1,0.6,0.4,1.1,0.7,1.6c0.4,0.6,0.9,1,1.4,1.3c1.4,0.8,2.3,2.3,2.6,3.8
			c0.1,0.5,0.3,1.1,0.7,1.5c1.4,2.2,4.5,2.8,6.6,1.4c2.2-1.5,2.8-4.5,1.2-6.7c-0.3-0.5-0.8-0.9-1.2-1.2c-1.4-1-2.4-2.4-2.8-4.1
			c-0.1-0.6-0.4-1.1-0.7-1.6c-0.3-0.5-0.8-0.9-1.2-1.2c-1.4-1-2.4-2.4-2.8-4.1c-0.1-0.6-0.4-1.1-0.7-1.6c-0.3-0.5-0.8-0.9-1.2-1.2
			c-1.4-1-2.4-2.4-2.8-4.1c-0.1-0.6-0.4-1.1-0.7-1.6c-0.3-0.5-0.8-0.9-1.2-1.2c-1.4-1-2.4-2.4-2.8-4.1c-0.1-0.6-0.4-1.1-0.7-1.6
			c-0.3-0.5-0.8-0.9-1.2-1.2c-1.4-1-2.4-2.4-2.8-4.1c-0.1-0.6-0.4-1.1-0.7-1.6c-0.3-0.5-0.8-0.9-1.2-1.2c-1.4-1-2.4-2.4-2.8-4.1
			c-0.1-0.6-0.4-1.1-0.7-1.6s-0.8-0.9-1.2-1.2c-1.4-1-2.4-2.4-2.8-4.1c-0.1-0.6-0.4-1.1-0.7-1.6c-0.3-0.5-0.8-0.9-1.2-1.2
			c-1.4-1-2.4-2.4-2.8-4.1c-0.1-0.6-0.4-1.1-0.7-1.6c-0.3-0.5-0.8-0.9-1.2-1.2c-1.4-1-2.4-2.4-2.8-4.1c-0.1-0.6-0.4-1.1-0.7-1.6
			c-0.3-0.5-0.8-0.9-1.2-1.2c-1.4-1-2.4-2.4-2.8-4.1C660.7,103.7,660.5,103.2,660.1,102.7z"/>
	</g>
	<g filter="url(#ds1)">
		<path fill="#F9DA55" d="M683.3,86.6c-0.4-0.6-0.9-1-1.4-1.3c-1.4-0.8-2.3-2.3-2.6-3.8c-0.1-0.5-0.3-1.1-0.7-1.5
			c-1.4-2.2-4.5-2.8-6.6-1.4c-2.2,1.5-2.8,4.5-1.2,6.7c0.3,0.5,0.8,0.9,1.2,1.2c1.4,1,2.4,2.4,2.8,4.1c0.1,0.6,0.4,1.1,0.7,1.6
			c0.3,0.5,0.8,0.9,1.2,1.2c1.4,1,2.4,2.4,2.8,4.1c0.1,0.6,0.4,1.1,0.7,1.6c0.3,0.5,0.8,0.9,1.2,1.2c1.4,1,2.4,2.4,2.8,4.1
			c0.1,0.6,0.4,1.1,0.7,1.6c0.3,0.5,0.8,0.9,1.2,1.2c1.4,1,2.4,2.4,2.8,4.1c0.1,0.6,0.4,1.1,0.7,1.6c0.3,0.5,0.8,0.9,1.2,1.2
			c1.4,1,2.4,2.4,2.8,4.1c0.1,0.6,0.4,1.1,0.7,1.6c0.3,0.5,0.8,0.9,1.2,1.2c1.4,1,2.4,2.4,2.8,4.1c0.1,0.6,0.4,1.1,0.7,1.6
			c0.3,0.5,0.8,0.9,1.2,1.2c1.4,1,2.4,2.4,2.8,4.1c0.1,0.6,0.4,1.1,0.7,1.6c0.3,0.5,0.8,0.9,1.2,1.2c1.4,1,2.4,2.4,2.8,4.1
			c0.1,0.6,0.4,1.1,0.7,1.6c0.3,0.5,0.8,0.9,1.2,1.2c1.4,1,2.4,2.4,2.8,4.1c0.1,0.6,0.4,1.1,0.7,1.6c0.3,0.5,0.8,0.9,1.2,1.2
			c1.4,1,2.4,2.4,2.8,4.1c0.1,0.6,0.4,1.1,0.7,1.6c0.4,0.6,0.9,1,1.4,1.3c1.4,0.8,2.3,2.3,2.6,3.8c0.1,0.5,0.3,1.1,0.7,1.5
			c1.4,2.2,4.5,2.8,6.6,1.4c2.2-1.5,2.8-4.5,1.2-6.7c-0.3-0.5-0.8-0.9-1.2-1.2c-1.4-1-2.4-2.4-2.8-4.1c-0.1-0.6-0.4-1.1-0.7-1.6
			c-0.3-0.5-0.8-0.9-1.2-1.2c-1.4-1-2.4-2.4-2.8-4.1c-0.1-0.6-0.4-1.1-0.7-1.6c-0.3-0.5-0.8-0.9-1.2-1.2c-1.4-1-2.4-2.4-2.8-4.1
			c-0.1-0.6-0.4-1.1-0.7-1.6c-0.3-0.5-0.8-0.9-1.2-1.2c-1.4-1-2.4-2.4-2.8-4.1c-0.1-0.6-0.4-1.1-0.7-1.6c-0.3-0.5-0.8-0.9-1.2-1.2
			c-1.4-1-2.4-2.4-2.8-4.1c-0.1-0.6-0.4-1.1-0.7-1.6c-0.3-0.5-0.8-0.9-1.2-1.2c-1.4-1-2.4-2.4-2.8-4.1c-0.1-0.6-0.4-1.1-0.7-1.6
			c-0.3-0.5-0.8-0.9-1.2-1.2c-1.4-1-2.4-2.4-2.8-4.1c-0.1-0.6-0.4-1.1-0.7-1.6c-0.3-0.5-0.8-0.9-1.2-1.2c-1.4-1-2.4-2.4-2.8-4.1
			c-0.1-0.6-0.4-1.1-0.7-1.6c-0.3-0.5-0.8-0.9-1.2-1.2c-1.4-1-2.4-2.4-2.8-4.1c-0.1-0.6-0.4-1.1-0.7-1.6c-0.3-0.5-0.8-0.9-1.2-1.2
			c-1.4-1-2.4-2.4-2.8-4.1C683.9,87.6,683.6,87.1,683.3,86.6z"/>
		<path fill="none" stroke="#D6971A" stroke-miterlimit="10" d="M683.3,86.6c-0.4-0.6-0.9-1-1.4-1.3c-1.4-0.8-2.3-2.3-2.6-3.8
			c-0.1-0.5-0.3-1.1-0.7-1.5c-1.4-2.2-4.5-2.8-6.6-1.4c-2.2,1.5-2.8,4.5-1.2,6.7c0.3,0.5,0.8,0.9,1.2,1.2c1.4,1,2.4,2.4,2.8,4.1
			c0.1,0.6,0.4,1.1,0.7,1.6c0.3,0.5,0.8,0.9,1.2,1.2c1.4,1,2.4,2.4,2.8,4.1c0.1,0.6,0.4,1.1,0.7,1.6c0.3,0.5,0.8,0.9,1.2,1.2
			c1.4,1,2.4,2.4,2.8,4.1c0.1,0.6,0.4,1.1,0.7,1.6c0.3,0.5,0.8,0.9,1.2,1.2c1.4,1,2.4,2.4,2.8,4.1c0.1,0.6,0.4,1.1,0.7,1.6
			c0.3,0.5,0.8,0.9,1.2,1.2c1.4,1,2.4,2.4,2.8,4.1c0.1,0.6,0.4,1.1,0.7,1.6c0.3,0.5,0.8,0.9,1.2,1.2c1.4,1,2.4,2.4,2.8,4.1
			c0.1,0.6,0.4,1.1,0.7,1.6c0.3,0.5,0.8,0.9,1.2,1.2c1.4,1,2.4,2.4,2.8,4.1c0.1,0.6,0.4,1.1,0.7,1.6c0.3,0.5,0.8,0.9,1.2,1.2
			c1.4,1,2.4,2.4,2.8,4.1c0.1,0.6,0.4,1.1,0.7,1.6c0.3,0.5,0.8,0.9,1.2,1.2c1.4,1,2.4,2.4,2.8,4.1c0.1,0.6,0.4,1.1,0.7,1.6
			c0.3,0.5,0.8,0.9,1.2,1.2c1.4,1,2.4,2.4,2.8,4.1c0.1,0.6,0.4,1.1,0.7,1.6c0.4,0.6,0.9,1,1.4,1.3c1.4,0.8,2.3,2.3,2.6,3.8
			c0.1,0.5,0.3,1.1,0.7,1.5c1.4,2.2,4.5,2.8,6.6,1.4c2.2-1.5,2.8-4.5,1.2-6.7c-0.3-0.5-0.8-0.9-1.2-1.2c-1.4-1-2.4-2.4-2.8-4.1
			c-0.1-0.6-0.4-1.1-0.7-1.6c-0.3-0.5-0.8-0.9-1.2-1.2c-1.4-1-2.4-2.4-2.8-4.1c-0.1-0.6-0.4-1.1-0.7-1.6c-0.3-0.5-0.8-0.9-1.2-1.2
			c-1.4-1-2.4-2.4-2.8-4.1c-0.1-0.6-0.4-1.1-0.7-1.6c-0.3-0.5-0.8-0.9-1.2-1.2c-1.4-1-2.4-2.4-2.8-4.1c-0.1-0.6-0.4-1.1-0.7-1.6
			c-0.3-0.5-0.8-0.9-1.2-1.2c-1.4-1-2.4-2.4-2.8-4.1c-0.1-0.6-0.4-1.1-0.7-1.6c-0.3-0.5-0.8-0.9-1.2-1.2c-1.4-1-2.4-2.4-2.8-4.1
			c-0.1-0.6-0.4-1.1-0.7-1.6c-0.3-0.5-0.8-0.9-1.2-1.2c-1.4-1-2.4-2.4-2.8-4.1c-0.1-0.6-0.4-1.1-0.7-1.6c-0.3-0.5-0.8-0.9-1.2-1.2
			c-1.4-1-2.4-2.4-2.8-4.1c-0.1-0.6-0.4-1.1-0.7-1.6c-0.3-0.5-0.8-0.9-1.2-1.2c-1.4-1-2.4-2.4-2.8-4.1c-0.1-0.6-0.4-1.1-0.7-1.6
			c-0.3-0.5-0.8-0.9-1.2-1.2c-1.4-1-2.4-2.4-2.8-4.1C683.9,87.6,683.6,87.1,683.3,86.6z"/>
	</g>
	<g filter="url(#ds1)">
		<path fill="#F9DA55" d="M673.7,97.2c-0.4-0.6-0.9-1-1.4-1.3c-1.4-0.8-2.3-2.3-2.6-3.8c-0.1-0.5-0.3-1.1-0.7-1.5
			c-1.4-2.2-4.5-2.8-6.6-1.4c-2.2,1.5-2.8,4.5-1.2,6.7c0.3,0.5,0.8,0.9,1.2,1.2c1.4,1,2.4,2.4,2.8,4.1c0.1,0.6,0.4,1.1,0.7,1.6
			c0.3,0.5,0.8,0.9,1.2,1.2c1.4,1,2.4,2.4,2.8,4.1c0.1,0.6,0.4,1.1,0.7,1.6c0.3,0.5,0.8,0.9,1.2,1.2c1.4,1,2.4,2.4,2.8,4.1
			c0.1,0.6,0.4,1.1,0.7,1.6c0.3,0.5,0.8,0.9,1.2,1.2c1.4,1,2.4,2.4,2.8,4.1c0.1,0.6,0.4,1.1,0.7,1.6c0.3,0.5,0.8,0.9,1.2,1.2
			c1.4,1,2.4,2.4,2.8,4.1c0.1,0.6,0.4,1.1,0.7,1.6c0.3,0.5,0.8,0.9,1.2,1.2c1.4,1,2.4,2.4,2.8,4.1c0.1,0.6,0.4,1.1,0.7,1.6
			c0.3,0.5,0.8,0.9,1.2,1.2c1.4,1,2.4,2.4,2.8,4.1c0.1,0.6,0.4,1.1,0.7,1.6c0.3,0.5,0.8,0.9,1.2,1.2c1.4,1,2.4,2.4,2.8,4.1
			c0.1,0.6,0.4,1.1,0.7,1.6c0.3,0.5,0.8,0.9,1.2,1.2c1.4,1,2.4,2.4,2.8,4.1c0.1,0.6,0.4,1.1,0.7,1.6c0.3,0.5,0.8,0.9,1.2,1.2
			c1.4,1,2.4,2.4,2.8,4.1c0.1,0.6,0.4,1.1,0.7,1.6c0.4,0.6,0.9,1,1.4,1.3c1.4,0.8,2.3,2.3,2.6,3.8c0.1,0.5,0.3,1.1,0.7,1.5
			c1.4,2.2,4.5,2.8,6.6,1.4c2.2-1.5,2.8-4.5,1.2-6.7c-0.3-0.5-0.8-0.9-1.2-1.2c-1.4-1-2.4-2.4-2.8-4.1c-0.1-0.6-0.4-1.1-0.7-1.6
			c-0.3-0.5-0.8-0.9-1.2-1.2c-1.4-1-2.4-2.4-2.8-4.1c-0.1-0.6-0.4-1.1-0.7-1.6c-0.3-0.5-0.8-0.9-1.2-1.2c-1.4-1-2.4-2.4-2.8-4.1
			c-0.1-0.6-0.4-1.1-0.7-1.6c-0.3-0.5-0.8-0.9-1.2-1.2c-1.4-1-2.4-2.4-2.8-4.1c-0.1-0.6-0.4-1.1-0.7-1.6c-0.3-0.5-0.8-0.9-1.2-1.2
			c-1.4-1-2.4-2.4-2.8-4.1c-0.1-0.6-0.4-1.1-0.7-1.6c-0.3-0.5-0.8-0.9-1.2-1.2c-1.4-1-2.4-2.4-2.8-4.1c-0.1-0.6-0.4-1.1-0.7-1.6
			c-0.3-0.5-0.8-0.9-1.2-1.2c-1.4-1-2.4-2.4-2.8-4.1c-0.1-0.6-0.4-1.1-0.7-1.6c-0.3-0.5-0.8-0.9-1.2-1.2c-1.4-1-2.4-2.4-2.8-4.1
			c-0.1-0.6-0.4-1.1-0.7-1.6c-0.3-0.5-0.8-0.9-1.2-1.2c-1.4-1-2.4-2.4-2.8-4.1c-0.1-0.6-0.4-1.1-0.7-1.6c-0.3-0.5-0.8-0.9-1.2-1.2
			c-1.4-1-2.4-2.4-2.8-4.1C674.3,98.2,674.1,97.7,673.7,97.2z"/>
		<path fill="none" stroke="#D6971A" stroke-miterlimit="10" d="M673.7,97.2c-0.4-0.6-0.9-1-1.4-1.3c-1.4-0.8-2.3-2.3-2.6-3.8
			c-0.1-0.5-0.3-1.1-0.7-1.5c-1.4-2.2-4.5-2.8-6.6-1.4c-2.2,1.5-2.8,4.5-1.2,6.7c0.3,0.5,0.8,0.9,1.2,1.2c1.4,1,2.4,2.4,2.8,4.1
			c0.1,0.6,0.4,1.1,0.7,1.6c0.3,0.5,0.8,0.9,1.2,1.2c1.4,1,2.4,2.4,2.8,4.1c0.1,0.6,0.4,1.1,0.7,1.6c0.3,0.5,0.8,0.9,1.2,1.2
			c1.4,1,2.4,2.4,2.8,4.1c0.1,0.6,0.4,1.1,0.7,1.6c0.3,0.5,0.8,0.9,1.2,1.2c1.4,1,2.4,2.4,2.8,4.1c0.1,0.6,0.4,1.1,0.7,1.6
			c0.3,0.5,0.8,0.9,1.2,1.2c1.4,1,2.4,2.4,2.8,4.1c0.1,0.6,0.4,1.1,0.7,1.6c0.3,0.5,0.8,0.9,1.2,1.2c1.4,1,2.4,2.4,2.8,4.1
			c0.1,0.6,0.4,1.1,0.7,1.6c0.3,0.5,0.8,0.9,1.2,1.2c1.4,1,2.4,2.4,2.8,4.1c0.1,0.6,0.4,1.1,0.7,1.6c0.3,0.5,0.8,0.9,1.2,1.2
			c1.4,1,2.4,2.4,2.8,4.1c0.1,0.6,0.4,1.1,0.7,1.6c0.3,0.5,0.8,0.9,1.2,1.2c1.4,1,2.4,2.4,2.8,4.1c0.1,0.6,0.4,1.1,0.7,1.6
			c0.3,0.5,0.8,0.9,1.2,1.2c1.4,1,2.4,2.4,2.8,4.1c0.1,0.6,0.4,1.1,0.7,1.6c0.4,0.6,0.9,1,1.4,1.3c1.4,0.8,2.3,2.3,2.6,3.8
			c0.1,0.5,0.3,1.1,0.7,1.5c1.4,2.2,4.5,2.8,6.6,1.4c2.2-1.5,2.8-4.5,1.2-6.7c-0.3-0.5-0.8-0.9-1.2-1.2c-1.4-1-2.4-2.4-2.8-4.1
			c-0.1-0.6-0.4-1.1-0.7-1.6c-0.3-0.5-0.8-0.9-1.2-1.2c-1.4-1-2.4-2.4-2.8-4.1c-0.1-0.6-0.4-1.1-0.7-1.6c-0.3-0.5-0.8-0.9-1.2-1.2
			c-1.4-1-2.4-2.4-2.8-4.1c-0.1-0.6-0.4-1.1-0.7-1.6c-0.3-0.5-0.8-0.9-1.2-1.2c-1.4-1-2.4-2.4-2.8-4.1c-0.1-0.6-0.4-1.1-0.7-1.6
			c-0.3-0.5-0.8-0.9-1.2-1.2c-1.4-1-2.4-2.4-2.8-4.1c-0.1-0.6-0.4-1.1-0.7-1.6c-0.3-0.5-0.8-0.9-1.2-1.2c-1.4-1-2.4-2.4-2.8-4.1
			c-0.1-0.6-0.4-1.1-0.7-1.6c-0.3-0.5-0.8-0.9-1.2-1.2c-1.4-1-2.4-2.4-2.8-4.1c-0.1-0.6-0.4-1.1-0.7-1.6c-0.3-0.5-0.8-0.9-1.2-1.2
			c-1.4-1-2.4-2.4-2.8-4.1c-0.1-0.6-0.4-1.1-0.7-1.6c-0.3-0.5-0.8-0.9-1.2-1.2c-1.4-1-2.4-2.4-2.8-4.1c-0.1-0.6-0.4-1.1-0.7-1.6
			c-0.3-0.5-0.8-0.9-1.2-1.2c-1.4-1-2.4-2.4-2.8-4.1C674.3,98.2,674.1,97.7,673.7,97.2z"/>
	</g>
	<g filter="url(#ds1)">
		<path fill="#F49F38" d="M668.8,85.6c0,0-0.1,0.1-0.1,0.1c-1,0.7-2.3,0.8-3.3,1.5c-1.1,0.7-1.7,2-2.7,2.7c-1.1,0.8-2.6,0.7-3.6,1.6
			c-1,0.8-1.5,2-2.6,2.7c-2,1.4-4.7,0.9-6.1-1.1c-1.4-2-0.9-4.7,1.1-6.1c0.8-0.5,1.6-0.6,2.4-0.8c0.9-0.3,1.8-0.9,2.3-1.6
			c0.5-0.7,0.7-1.3,1.5-1.8c1-0.7,2.4-0.6,3.5-1.1c1.3-0.7,1.6-2.3,2.8-3.2c2-1.4,4.7-0.9,6.1,1.1C671.2,81.5,670.7,84.2,668.8,85.6
			z"/>
		<path fill="none" stroke="#C66320" stroke-miterlimit="10" d="M668.8,85.6c0,0-0.1,0.1-0.1,0.1c-1,0.7-2.3,0.8-3.3,1.5
			c-1.1,0.7-1.7,2-2.7,2.7c-1.1,0.8-2.6,0.7-3.6,1.6c-1,0.8-1.5,2-2.6,2.7c-2,1.4-4.7,0.9-6.1-1.1c-1.4-2-0.9-4.7,1.1-6.1
			c0.8-0.5,1.6-0.6,2.4-0.8c0.9-0.3,1.8-0.9,2.3-1.6c0.5-0.7,0.7-1.3,1.5-1.8c1-0.7,2.4-0.6,3.5-1.1c1.3-0.7,1.6-2.3,2.8-3.2
			c2-1.4,4.7-0.9,6.1,1.1C671.2,81.5,670.7,84.2,668.8,85.6z"/>
	</g>
</g>
<g>
	<g filter="url(#ds1)">
		<rect x="678" y="59.3" fill="#FFFFFF" width="62.2" height="27.7"/>
	</g>
	<g>
		<g>
			<path fill="#6D6E70" d="M690.4,78.1h1.4v-8.8h-1.4v-1.2h7.8v2.7h-1.4v-1.3h-3.4v3.7h3.9v1.3h-3.9v3.6h1.5v1.2h-4.5V78.1z"/>
			<path fill="#6D6E70" d="M698.3,78.1h1.1l3.6-10.1h1.8l3.6,10.1h1.1v1.2h-3.9v-1.2h1.2l-0.9-2.5h-4l-0.9,2.5h1.2v1.2h-3.9V78.1z
				 M705.4,74.3l-1.4-3.9c-0.2-0.5-0.2-0.9-0.2-0.9h0c0,0,0,0.4-0.2,0.9l-1.4,3.9H705.4z"/>
			<path fill="#6D6E70" d="M711.9,78.1h1.4v-8.7h-2.7v1.8h-1.4v-3.1h9.7v3.1h-1.4v-1.8h-2.7v8.7h1.4v1.2h-4.5V78.1z"/>
			<path fill="#6D6E70" d="M721.8,76v0.8c0,0.8,1.1,1.3,2.3,1.3c1.3,0,2.2-0.6,2.2-1.7c0-1.3-1.3-1.7-2.7-2.3c-1.5-0.6-3-1.2-3-3.2
				c0-2.1,1.7-3,3.6-3c1.7,0,3.4,0.6,3.4,1.9v1.3h-1.5v-0.8c0-0.7-1-1-1.9-1c-1.1,0-2,0.5-2,1.6c0,1.2,1.1,1.6,2.4,2.1
				c1.7,0.6,3.3,1.3,3.3,3.4c0,2.2-1.8,3.3-3.9,3.3c-1.8,0-3.7-0.8-3.7-2.4V76H721.8z"/>
		</g>
	</g>
</g>
</svg>
