<?xml version="1.0" encoding="utf-8"?>
<!-- Generator: Adobe Illustrator 23.0.1, SVG Export Plug-In . SVG Version: 6.00 Build 0)  -->
<svg version="1.1" xmlns="http://www.w3.org/2000/svg" xmlns:xlink="http://www.w3.org/1999/xlink" x="0px" y="0px"
	 viewBox="0 0 477.8 418.9" style="enable-background:new 0 0 477.8 418.9;" xml:space="preserve">
<style type="text/css">
	.st0{display:none;}
	.st1{display:inline;fill:#99DDC1;}
	.st2{display:inline;}
	.st3{fill:#69AF98;}
	.st4{display:inline;fill:#72B774;}
	.st5{display:inline;fill:#7FCCBF;}
	.st6{display:inline;fill:#71AFA3;}
	.st7{display:inline;fill:#92C174;}
	.st8{display:inline;fill:#69AF69;}
	.st9{display:inline;fill:#76D39C;}
	.st10{display:inline;fill:#4BAF6A;}
	.st11{display:inline;fill:#88B56B;}
	.st12{display:inline;fill:#78C1A3;}
	.st13{display:inline;fill:#54917B;}
	.st14{display:inline;fill:none;}
	.st15{fill:#FFFFFF;}
	.st16{display:inline;fill:none;stroke:#F4D090;stroke-width:15;stroke-miterlimit:10;}
	.st17{fill:#F4D090;}
	.st18{fill:#FFFFFF;stroke:#FFFFFF;stroke-width:2;stroke-miterlimit:10;}
</style>
<g id="Layer_1" class="st0">
	<rect x="-434.1" y="-66.8" class="st1" width="1130" height="800"/>
</g>
<g id="Layer_16" class="st0">
	<g class="st2">
		<path class="st3" d="M-222.1,257.6c-62.4,39.9-68.1,222.7-72.3,339.5c-4.7,129,3.6,289.6-72.9,338.6l-99.9,63.9l-2.6-4.1
			c52.5-63.9,46.4-203.7,50.6-318.5c4.2-116.8,9.9-299.6,72.3-339.5L-222.1,257.6z"/>
		<path class="st3" d="M9.5,109.4c-62.4,39.9-68.1,222.7-72.3,339.5c-4.7,129,3.6,289.6-72.9,338.6l-124.9,79.9
			c76.5-49,68.2-209.6,72.9-338.6c4.2-116.8,9.9-299.6,72.3-339.5L9.5,109.4z"/>
	</g>
	<path class="st4" d="M-473.3,978.7l-105.4-164.9c-2.4-3.7-0.9-8.9,3.4-11.7l52.6-33.6c4.2-2.7,9.6-1.9,12,1.8l105.4,164.9
		c2.4,3.7,0.9,8.9-3.4,11.7l-52.6,33.6C-465.5,983.2-470.9,982.4-473.3,978.7z"/>
	<path class="st5" d="M-400.1,702.5l-46.8-73.1c-2.4-3.7-0.9-8.9,3.4-11.7l52.6-33.6c4.2-2.7,9.6-1.9,12,1.8l46.8,73.1
		c2.4,3.7,0.9,8.9-3.4,11.7l-52.6,33.6C-392.3,707.1-397.7,706.2-400.1,702.5z"/>
	<path class="st6" d="M-402.6,698.6l-18.2-28.4c-1.8-2.8-0.7-6.7,2.5-8.7l56.4-36.1c3.2-2,7.2-1.4,9,1.4l18.2,28.4
		c1.8,2.8,0.7,6.7-2.5,8.7l-56.4,36.1C-396.8,702-400.8,701.4-402.6,698.6z"/>
	<path class="st7" d="M-300.1,858.8L-418,674.6c-2.4-3.7-0.9-8.9,3.4-11.7l52.6-33.6c4.2-2.7,9.6-1.9,12,1.8l117.9,184.3
		c2.4,3.7,0.9,8.9-3.4,11.7l-52.6,33.6C-292.3,863.4-297.7,862.6-300.1,858.8z"/>
	<path class="st8" d="M-559.3,855.6l-7.5-11.8c-1.8-2.8-0.7-6.7,2.5-8.7l56.4-36.1c3.2-2,7.2-1.4,9,1.4l7.5,11.8
		c1.8,2.8,0.7,6.7-2.5,8.7l-56.4,36.1C-553.5,859-557.6,858.4-559.3,855.6z"/>
	<path class="st9" d="M-562.1,851.3l-67.3-105.1c-2.4-3.7-0.9-8.9,3.4-11.7l52.6-33.6c4.2-2.7,9.6-1.9,12,1.8l67.3,105.1
		c2.4,3.7,0.9,8.9-3.4,11.7l-52.6,33.6C-554.4,855.8-559.7,855-562.1,851.3z"/>
	<path class="st9" d="M-528.7,702.5l-22.4-35c-2.4-3.7-0.9-8.9,3.4-11.7l52.6-33.6c4.2-2.7,9.6-1.9,12,1.8l22.4,35
		c2.4,3.7,0.9,8.9-3.4,11.7l-52.6,33.6C-520.9,707-526.3,706.2-528.7,702.5z"/>
	<path class="st10" d="M-528.6,702.6l-11.6-18.2c-1.8-2.8-0.7-6.7,2.5-8.7l56.4-36.1c3.2-2,7.2-1.4,9,1.4l11.6,18.2
		c1.8,2.8,0.7,6.7-2.5,8.7l-56.4,36.1C-522.8,706-526.9,705.4-528.6,702.6z"/>
	<path class="st4" d="M-432.1,842.1L-533,684.2c-2.4-3.7-0.9-8.9,3.4-11.7l52.6-33.6c4.2-2.7,9.6-1.9,12,1.8l100.9,157.8
		c2.4,3.7,0.9,8.9-3.4,11.7l-52.6,33.6C-424.3,846.6-429.7,845.8-432.1,842.1z"/>
	<path class="st9" d="M-120.2,731.4l-77.6-121.3c-2.4-3.7-0.9-8.9,3.4-11.7l52.6-33.6c4.2-2.7,9.6-1.9,12,1.8l77.6,121.3
		c2.4,3.7,0.9,8.9-3.4,11.7l-52.6,33.6C-112.4,735.9-117.8,735.1-120.2,731.4z"/>
	<path class="st10" d="M-185.1,629.9l-21-32.8c-1.8-2.8-0.7-6.7,2.5-8.7l56.4-36.1c3.2-2,7.2-1.4,9,1.4l21,32.8
		c1.8,2.8,0.7,6.7-2.5,8.7l-56.4,36.1C-179.3,633.3-183.3,632.7-185.1,629.9z"/>
	<path class="st4" d="M-188.4,625.1L-338,391.2c-2.4-3.7-0.9-8.9,3.4-11.7l52.6-33.6c4.2-2.7,9.6-1.9,12,1.8l149.6,233.9
		c2.4,3.7,0.9,8.9-3.4,11.7l-52.6,33.6C-180.6,629.6-186,628.8-188.4,625.1z"/>
	<path class="st5" d="M-78.9,601.5l-20-31.3c-2.4-3.7-0.9-8.9,3.4-11.7l52.6-33.6c4.2-2.7,9.6-1.9,12,1.8l20,31.3
		c2.4,3.7,0.9,8.9-3.4,11.7l-52.6,33.6C-71.2,606-76.6,605.2-78.9,601.5z"/>
	<path class="st6" d="M-87.3,588.3l-26.4-41.2c-1.8-2.8-0.7-6.7,2.5-8.7l56.4-36.1c3.2-2,7.2-1.4,9,1.4l26.4,41.2
		c1.8,2.8,0.7,6.7-2.5,8.7l-56.4,36.1C-81.5,591.7-85.6,591.1-87.3,588.3z"/>
	<path class="st7" d="M-90.1,584L-263,313.7c-2.4-3.7-0.9-8.9,3.4-11.7l52.6-33.6c4.2-2.7,9.6-1.9,12,1.8l172.9,270.3
		c2.4,3.7,0.9,8.9-3.4,11.7l-52.6,33.6C-82.4,588.5-87.7,587.7-90.1,584z"/>
	<path class="st9" d="M-31.3,477.8l-121.8-190.5c-2.4-3.7-0.9-8.9,3.4-11.7l52.6-33.6c4.2-2.7,9.6-1.9,12,1.8L36.6,434.3
		c2.4,3.7,0.9,8.9-3.4,11.7l-52.6,33.6C-23.6,482.3-28.9,481.5-31.3,477.8z"/>
	<path class="st5" d="M-288.3,676.2l-80.2-125.4c-2.4-3.7-0.9-8.9,3.4-11.7l52.6-33.6c4.2-2.7,9.6-1.9,12,1.8l80.2,125.4
		c2.4,3.7,0.9,8.9-3.4,11.7l-52.6,33.6C-280.6,680.7-286,679.9-288.3,676.2z"/>
	<path class="st6" d="M-275.2,696.8l-26.9-42c-1.8-2.8-0.7-6.7,2.5-8.7l56.4-36.1c3.2-2,7.2-1.4,9,1.4l26.9,42
		c1.8,2.8,0.7,6.7-2.5,8.7l-56.4,36.1C-269.3,700.2-273.4,699.6-275.2,696.8z"/>
	<path class="st7" d="M-204,808l-95.3-149c-2.4-3.7-0.9-8.9,3.4-11.7l52.6-33.6c4.2-2.7,9.6-1.9,12,1.8l95.3,149
		c2.4,3.7,0.9,8.9-3.4,11.7l-52.6,33.6C-196.3,812.6-201.6,811.8-204,808z"/>
	<path class="st7" d="M226.7,475.1L124.3,315c-2.4-3.7-0.9-8.9,3.4-11.7l52.6-33.6c4.2-2.7,9.6-1.9,12,1.8l102.5,160.2
		c2.4,3.7,0.9,8.9-3.4,11.7L238.7,477C234.5,479.7,229.1,478.9,226.7,475.1z"/>
	<path class="st11" d="M135.6,332.6l-14.1-22c-1.8-2.8-0.7-6.7,2.5-8.7l56.4-36.1c3.2-2,7.2-1.4,9,1.4l14.1,22
		c1.8,2.8,0.7,6.7-2.5,8.7L144.6,334C141.4,336,137.4,335.4,135.6,332.6z"/>
	<path class="st5" d="M132.8,328.3L35.4,176c-2.4-3.7-0.9-8.9,3.4-11.7l52.6-33.6c4.2-2.7,9.6-1.9,12,1.8l97.4,152.3
		c2.4,3.7,0.9,8.9-3.4,11.7l-52.6,33.6C140.6,332.8,135.2,332,132.8,328.3z"/>
	<path class="st4" d="M33.5,366.7L-80.6,188.3c-2.4-3.7-0.9-8.9,3.4-11.7l52.6-33.6c4.2-2.7,9.6-1.9,12,1.8l114.1,178.4
		c2.4,3.7,0.9,8.9-3.4,11.7l-52.6,33.6C41.3,371.3,35.9,370.4,33.5,366.7z"/>
	<path class="st8" d="M31.6,363.5l-7.5-11.8c-1.8-2.8-0.7-6.7,2.5-8.7L83,306.9c3.2-2,7.2-1.4,9,1.4l7.5,11.8
		c1.8,2.8,0.7,6.7-2.5,8.7l-56.4,36.1C37.4,366.9,33.4,366.3,31.6,363.5z"/>
	<path class="st9" d="M107.4,481.9L26.6,355.6c-2.4-3.7-0.9-8.9,3.4-11.7l52.6-33.6c4.2-2.7,9.6-1.9,12,1.8l80.8,126.3
		c2.4,3.7,0.9,8.9-3.4,11.7l-52.6,33.6C115.2,486.5,109.8,485.7,107.4,481.9z"/>
	<path class="st12" d="M-260.6,867.4l124.9-79.9c-76.5,49-218.9-25.9-338-75.8c-66.5-27.8-156.1-65.7-229.6-81.3l102.5,160.2
		c0.8,0.3,1.5,0.6,2.3,1C-479.5,841.5-337.2,916.4-260.6,867.4z"/>
	<path class="st13" d="M-505.9,939.2l38.6,60.4l99.9-63.9C-402.5,958.2-451.6,954.5-505.9,939.2z"/>
	<path class="st12" d="M9.5,109.4l-124.9,79.9c62-39.7,228.4,30.6,336.3,75.7L118.5,104.8C72.9,95.2,33.4,94.1,9.5,109.4z"/>
	<path class="st12" d="M-223.1,259.7L-348,339.6c62.4-39.9,230.8,31.6,338.6,76.7c119.1,49.8,261.4,124.7,338,75.8l25-16l-38.6-60.4
		c-63.9-18.1-135.1-52.3-199.5-79.3C7.6,291.3-160.7,219.8-223.1,259.7z"/>
	<g class="st2">
		<path class="st3" d="M599.7-268.1c-62.4,39.9-68.1,222.7-72.3,339.5c-4.7,129,3.6,289.6-72.9,338.6l-99.9,63.9l-2.6-4.1
			c52.5-63.9,46.4-203.7,50.6-318.5c4.2-116.8,9.9-299.6,72.3-339.5L599.7-268.1z"/>
		<path class="st3" d="M831.3-416.2c-62.4,39.9-68.1,222.7-72.3,339.5c-4.7,129,3.6,289.6-72.9,338.6l-124.9,79.9
			c76.5-49,68.2-209.6,72.9-338.6c4.2-116.8,9.9-299.6,72.3-339.5L831.3-416.2z"/>
	</g>
	<path class="st4" d="M345.5,454L240.1,289.2c-2.4-3.7-0.9-8.9,3.4-11.7l52.6-33.6c4.2-2.7,9.6-1.9,12,1.8l105.4,164.9
		c2.4,3.7,0.9,8.9-3.4,11.7l-52.6,33.6C353.3,458.6,347.9,457.7,345.5,454z"/>
	<path class="st5" d="M421.7,176.9L375,103.8c-2.4-3.7-0.9-8.9,3.4-11.7l52.6-33.6c4.2-2.7,9.6-1.9,12,1.8l46.8,73.1
		c2.4,3.7,0.9,8.9-3.4,11.7l-52.6,33.6C429.5,181.4,424.1,180.6,421.7,176.9z"/>
	<path class="st6" d="M419.2,173l-18.2-28.4c-1.8-2.8-0.7-6.7,2.5-8.7L460,99.8c3.2-2,7.2-1.4,9,1.4l18.2,28.4
		c1.8,2.8,0.7,6.7-2.5,8.7l-56.4,36.1C425,176.4,421,175.7,419.2,173z"/>
	<path class="st7" d="M521.7,333.2L403.8,148.9c-2.4-3.7-0.9-8.9,3.4-11.7l52.6-33.6c4.2-2.7,9.6-1.9,12,1.8l117.9,184.3
		c2.4,3.7,0.9,8.9-3.4,11.7L533.7,335C529.5,337.7,524.1,336.9,521.7,333.2z"/>
	<path class="st8" d="M264.5,328l-7.5-11.8c-1.8-2.8-0.7-6.7,2.5-8.7l56.4-36.1c3.2-2,7.2-1.4,9,1.4l7.5,11.8
		c1.8,2.8,0.7,6.7-2.5,8.7l-56.4,36.1C270.3,331.4,266.3,330.8,264.5,328z"/>
	<path class="st9" d="M261.7,323.6l-67.3-105.1c-2.4-3.7-0.9-8.9,3.4-11.7l52.6-33.6c4.2-2.7,9.6-1.9,12,1.8l67.3,105.1
		c2.4,3.7,0.9,8.9-3.4,11.7l-52.6,33.6C269.5,328.2,264.1,327.4,261.7,323.6z"/>
	<path class="st9" d="M296.1,171.8l-22.4-35c-2.4-3.7-0.9-8.9,3.4-11.7l52.6-33.6c4.2-2.7,9.6-1.9,12,1.8l22.4,35
		c2.4,3.7,0.9,8.9-3.4,11.7l-52.6,33.6C303.9,176.4,298.5,175.6,296.1,171.8z"/>
	<path class="st10" d="M296.2,171.9l-11.6-18.2c-1.8-2.8-0.7-6.7,2.5-8.7l56.4-36.1c3.2-2,7.2-1.4,9,1.4l11.6,18.2
		c1.8,2.8,0.7,6.7-2.5,8.7l-56.4,36.1C302,175.3,298,174.7,296.2,171.9z"/>
	<path class="st4" d="M389.3,317.4L288.4,159.6c-2.4-3.7-0.9-8.9,3.4-11.7l52.6-33.6c4.2-2.7,9.6-1.9,12,1.8l100.9,157.8
		c2.4,3.7,0.9,8.9-3.4,11.7l-52.6,33.6C397.1,321.9,391.7,321.1,389.3,317.4z"/>
	<path class="st9" d="M698.6,207.7L621.1,86.4c-2.4-3.7-0.9-8.9,3.4-11.7L677,41.1c4.2-2.7,9.6-1.9,12,1.8l77.6,121.3
		c2.4,3.7,0.9,8.9-3.4,11.7l-52.6,33.6C706.4,212.2,701,211.4,698.6,207.7z"/>
	<path class="st10" d="M633.7,106.2l-21-32.8c-1.8-2.8-0.7-6.7,2.5-8.7l56.4-36.1c3.2-2,7.2-1.4,9,1.4l21,32.8
		c1.8,2.8,0.7,6.7-2.5,8.7l-56.4,36.1C639.5,109.6,635.5,109,633.7,106.2z"/>
	<path class="st4" d="M629.4,99.4L479.9-134.5c-2.4-3.7-0.9-8.9,3.4-11.7l52.6-33.6c4.2-2.7,9.6-1.9,12,1.8L697.4,56
		c2.4,3.7,0.9,8.9-3.4,11.7l-52.6,33.6C637.2,104,631.8,103.1,629.4,99.4z"/>
	<path class="st5" d="M742.9,75.8l-20-31.3c-2.4-3.7-0.9-8.9,3.4-11.7l52.6-33.6c4.2-2.7,9.6-1.9,12,1.8l20,31.3
		c2.4,3.7,0.9,8.9-3.4,11.7l-52.6,33.6C750.6,80.4,745.3,79.6,742.9,75.8z"/>
	<path class="st6" d="M734.5,62.7l-26.4-41.2c-1.8-2.8-0.7-6.7,2.5-8.7l56.4-36.1c3.2-2,7.2-1.4,9,1.4l26.4,41.2
		c1.8,2.8,0.7,6.7-2.5,8.7l-56.4,36.1C740.3,66.1,736.3,65.5,734.5,62.7z"/>
	<path class="st7" d="M731.7,58.4L558.8-212c-2.4-3.7-0.9-8.9,3.4-11.7l52.6-33.6c4.2-2.7,9.6-1.9,12,1.8L799.6,14.9
		c2.4,3.7,0.9,8.9-3.4,11.7l-52.6,33.6C739.5,62.9,734.1,62.1,731.7,58.4z"/>
	<path class="st9" d="M790.5-47.9L668.7-238.3c-2.4-3.7-0.9-8.9,3.4-11.7l52.6-33.6c4.2-2.7,9.6-1.9,12,1.8L858.4-91.3
		c2.4,3.7,0.9,8.9-3.4,11.7L802.5-46C798.3-43.3,792.9-44.1,790.5-47.9z"/>
	<path class="st5" d="M533.5,150.5L453.2,25.1c-2.4-3.7-0.9-8.9,3.4-11.7l52.6-33.6c4.2-2.7,9.6-1.9,12,1.8l80.2,125.4
		c2.4,3.7,0.9,8.9-3.4,11.7l-52.6,33.6C541.2,155.1,535.9,154.3,533.5,150.5z"/>
	<path class="st6" d="M546.7,171.1l-26.9-42c-1.8-2.8-0.7-6.7,2.5-8.7l56.4-36.1c3.2-2,7.2-1.4,9,1.4l26.9,42
		c1.8,2.8,0.7,6.7-2.5,8.7l-56.4,36.1C552.5,174.5,548.4,173.9,546.7,171.1z"/>
	<path class="st7" d="M617.8,282.4l-95.3-149c-2.4-3.7-0.9-8.9,3.4-11.7l52.6-33.6c4.2-2.7,9.6-1.9,12,1.8l95.3,149
		c2.4,3.7,0.9,8.9-3.4,11.7l-52.6,33.6C625.6,286.9,620.2,286.1,617.8,282.4z"/>
	<path class="st7" d="M1048.5-50.5L946.1-210.7c-2.4-3.7-0.9-8.9,3.4-11.7L1002-256c4.2-2.7,9.6-1.9,12,1.8L1116.5-94
		c2.4,3.7,0.9,8.9-3.4,11.7l-52.6,33.6C1056.3-46,1050.9-46.8,1048.5-50.5z"/>
	<path class="st11" d="M957.4-193l-14.1-22c-1.8-2.8-0.7-6.7,2.5-8.7l56.4-36.1c3.2-2,7.2-1.4,9,1.4l14.1,22
		c1.8,2.8,0.7,6.7-2.5,8.7l-56.4,36.1C963.2-189.6,959.2-190.2,957.4-193z"/>
	<path class="st5" d="M954.6-197.4l-97.4-152.3c-2.4-3.7-0.9-8.9,3.4-11.7l52.6-33.6c4.2-2.7,9.6-1.9,12,1.8l97.4,152.3
		c2.4,3.7,0.9,8.9-3.4,11.7l-52.6,33.6C962.4-192.8,957-193.6,954.6-197.4z"/>
	<path class="st4" d="M852.8-155.4L738.7-333.9c-2.4-3.7-0.9-8.9,3.4-11.7l52.6-33.6c4.2-2.7,9.6-1.9,12,1.8l114.1,178.4
		c2.4,3.7,0.9,8.9-3.4,11.7l-52.6,33.6C860.6-150.9,855.2-151.7,852.8-155.4z"/>
	<path class="st8" d="M850.4-159.2l-7.5-11.8c-1.8-2.8-0.7-6.7,2.5-8.7l56.4-36.1c3.2-2,7.2-1.4,9,1.4l7.5,11.8
		c1.8,2.8,0.7,6.7-2.5,8.7l-56.4,36.1C856.3-155.8,852.2-156.4,850.4-159.2z"/>
	<path class="st9" d="M926.2-40.7L845.4-167c-2.4-3.7-0.9-8.9,3.4-11.7l52.6-33.6c4.2-2.7,9.6-1.9,12,1.8l80.8,126.3
		c2.4,3.7,0.9,8.9-3.4,11.7l-52.6,33.6C934-36.2,928.6-37,926.2-40.7z"/>
	<path class="st12" d="M561.2,341.8l124.9-79.9c-76.5,49-218.9-25.9-338-75.8c-66.5-27.8-156.1-65.7-229.6-81.3L220.9,265
		c0.8,0.3,1.5,0.6,2.3,1C342.3,315.8,484.6,390.7,561.2,341.8z"/>
	<path class="st12" d="M314.9,415.5l38.6,60.4l99.9-63.9C418.3,434.5,369.2,430.9,314.9,415.5z"/>
	<path class="st12" d="M831.3-416.2l-124.9,79.9c62-39.7,228.4,30.6,336.3,75.7L940.3-420.8C894.7-430.5,855.2-431.5,831.3-416.2z"
		/>
	<path class="st12" d="M599.7-268.1l-124.9,79.9c62.4-39.9,230.8,31.6,338.6,76.7c119.1,49.8,261.4,124.7,338,75.8l25-16l-38.6-60.4
		c-63.9-18.1-135.1-52.3-199.5-79.3C830.5-236.5,662.1-308,599.7-268.1z"/>
</g>
<g id="Layer_4" class="st0">
	<path id="SVGID_x5F_1_x5F_" class="st14" d="M431.4,656.3C543,626.6,600.7,526.7,575.9,415.8"/>
	<text class="st2">	<textPath  xlink:href="#SVGID_x5F_1_x5F_" startOffset="2.11%">
<tspan  class="st17" style="font-family:'OpenSans-Extrabold'; font-size:32px; letter-spacing:150;">(CLICK HERE)</tspan>	</textPath>
</text>
</g>
<g id="Layer_26" class="st0">
	<g class="st2">
		<path class="st15" d="M374.8,530.3v-14.1c0-16.1,2.9-29.5,8.8-40.2c5.9-10.7,16.1-21.8,30.8-33.2c17.4-13.8,28.7-24.5,33.7-32.1
			c5.1-7.6,7.6-16.7,7.6-27.2c0-12.3-4.1-21.8-12.3-28.3c-8.2-6.6-20-9.9-35.4-9.9c-13.9,0-26.8,2-38.7,5.9s-23.4,8.7-34.7,14.3
			l-18.5-38.7c29.7-16.6,61.6-24.8,95.6-24.8c28.7,0,51.5,7,68.3,21.1c16.8,14.1,25.3,33.5,25.3,58.2c0,11-1.6,20.8-4.8,29.3
			c-3.2,8.6-8.1,16.7-14.6,24.5c-6.5,7.8-17.8,17.9-33.7,30.3c-13.6,10.7-22.7,19.6-27.4,26.6c-4.6,7-6.9,16.5-6.9,28.3v9.9H374.8z
			 M365.8,600.3c0-22.1,10.8-33.2,32.3-33.2c10.5,0,18.6,2.9,24.2,8.7c5.6,5.8,8.3,14,8.3,24.5c0,10.4-2.8,18.6-8.5,24.7
			c-5.6,6.1-13.7,9.1-24.1,9.1c-10.4,0-18.4-3-24-8.9C368.6,619.4,365.8,611,365.8,600.3z"/>
	</g>
</g>
<g id="Layer_8" class="st0">
	<circle class="st16" cx="399.6" cy="471.7" r="211.7"/>
	<g class="st2">
		<path class="st17" d="M446.3,642.3c-1.1-2.8-1.7-5.5-1.8-8c-0.2-2.5,0.1-4.9,0.9-7l4.8-1.8c-0.6,2.2-0.8,4.5-0.6,7.1
			c0.2,2.6,0.8,5.2,1.8,7.8c1,2.5,2.2,4.8,3.7,6.9c1.5,2,3.2,3.7,5.1,5l-4.7,1.8c-1.9-1-3.6-2.5-5.2-4.5
			C448.6,647.5,447.3,645.1,446.3,642.3z"/>
		<path class="st17" d="M468.2,623.1c-1.3,0.7-2.1,1.7-2.3,3.1c-0.2,1.4,0.2,3.1,1.1,5c2,3.9,4.4,5.2,7.4,3.7c0.9-0.4,1.7-1,2.4-1.7
			s1.4-1.4,2.1-2.2l2.3,4.7c-1.3,1.6-3.1,2.9-5.2,4c-3.1,1.5-5.9,1.8-8.4,0.8c-2.5-1-4.6-3.2-6.3-6.5c-1.1-2.1-1.6-4.2-1.6-6.2
			s0.5-3.8,1.6-5.4c1.1-1.6,2.6-2.9,4.6-3.9c2.2-1.1,4.6-1.7,7.1-1.7l0.5,5.2c-0.9,0-1.8,0.1-2.7,0.2
			C469.9,622.3,469,622.6,468.2,623.1z"/>
		<path class="st17" d="M491.2,631l-12.7-19l5.1-3.4l9.9,14.9l7.3-4.9l2.8,4.1L491.2,631z"/>
		<path class="st17" d="M511.4,616.5L496.8,599l4.8-4l14.6,17.5L511.4,616.5z"/>
		<path class="st17" d="M518.5,585.1c-1,1.1-1.4,2.3-1,3.7c0.3,1.4,1.2,2.9,2.8,4.3c3.2,3,5.9,3.3,8.2,0.9c0.7-0.7,1.3-1.5,1.7-2.4
			c0.4-0.9,0.9-1.8,1.2-2.8l3.8,3.6c-0.7,2-1.9,3.8-3.5,5.6c-2.4,2.5-4.9,3.7-7.6,3.7s-5.4-1.4-8.2-4c-1.7-1.6-2.9-3.4-3.6-5.3
			c-0.7-1.9-0.8-3.8-0.4-5.6c0.4-1.9,1.4-3.6,3-5.3c1.7-1.8,3.7-3.1,6-4l2.2,4.7c-0.9,0.3-1.7,0.7-2.5,1.2
			C519.9,583.9,519.2,584.4,518.5,585.1z"/>
		<path class="st17" d="M554.1,568.2l-4,5.7l-9.8-1.3l-0.1,2.1l6.3,4.3l-3.5,5.1l-18.8-13l3.5-5.1l8.2,5.6c-0.3-0.6-0.8-1.7-1.3-3.2
			l-3-7.9l3.8-5.6l4.3,11.7L554.1,568.2z"/>
		<path class="st17" d="M572.1,529l-2.2,5.8l-8.7-3.3l-2.6,6.7l8.7,3.3l-2.2,5.8l-21.3-8.2l2.2-5.8l7.9,3l2.6-6.7l-7.9-3l2.2-5.8
			L572.1,529z"/>
		<path class="st17" d="M578.2,504.4l-3,13.2l-22.3-5l3-13.2l4.8,1.1l-1.6,7.2l3.5,0.8l1.5-6.7l4.8,1.1l-1.5,6.7l4.2,1l1.6-7.2
			L578.2,504.4z"/>
		<path class="st17" d="M572.2,487l8.3,0.8l-0.6,6.1l-22.7-2.1l0.7-7.5c0.6-6.2,3.1-9.1,7.6-8.7c2.6,0.2,4.6,1.7,5.8,4.4l10.5-5.7
			l-0.6,7l-8.7,4.1L572.2,487z M567.6,486.6l0.1-1.2c0.2-2.1-0.7-3.3-2.5-3.5c-1.6-0.1-2.4,0.8-2.6,2.9l-0.1,1.2L567.6,486.6z"/>
		<path class="st17" d="M581.3,452.3l0.4,13.6l-22.8,0.7l-0.4-13.6l5-0.2l0.2,7.4l3.6-0.1l-0.2-6.8l5-0.2l0.2,6.8l4.3-0.1l-0.2-7.4
			L581.3,452.3z"/>
		<path class="st17" d="M570.3,435.6c2.9-0.4,5.6-0.3,8.1,0.1s4.6,1.3,6.5,2.5l0.6,5c-1.9-1.1-4.2-1.8-6.7-2.2
			c-2.5-0.4-5.2-0.4-7.9-0.1c-2.7,0.3-5.3,1-7.7,2c-2.4,1-4.4,2.3-6.1,3.8l-0.6-5.1c1.5-1.6,3.5-3,5.8-4
			C564.8,436.7,567.4,436,570.3,435.6z"/>
	</g>
</g>
<g id="Layer_7">
	<g>
		<path class="st18" d="M52.5,383.3L49,366.2l-23,15.1L22.5,403l-21,13.8l22.9-119L49.8,281l23.6,88.6L52.5,383.3z M45,345.9
			l-3.1-15c-0.7-3.3-1.6-7.6-2.6-13c-1-5.3-1.7-9.2-2-11.6c-0.3,2.6-0.9,6.9-1.7,13c-0.8,6.1-2.7,18.2-5.6,36.4L45,345.9z"/>
		<path class="st18" d="M167.9,307.8l-19.1,12.5l-0.2-80.6L131.3,251l-0.1-22.9l53.7-35.2l0.1,22.9l-17.2,11.3L167.9,307.8z"/>
		<path class="st18" d="M229.2,229.9l0.1,37.7l-19.1,12.5l-0.2-103.5l23.2-15.2c19.2-12.6,28.9-8.7,28.9,11.7c0,12-4,23.9-12,35.7
			l20.7,31.6l-21.7,14.2L234,226.7L229.2,229.9z M229.1,208.9l3.6-2.3c6.7-4.4,10-10.9,10-19.5c0-7.1-3.3-8.5-9.9-4.2l-3.8,2.5
			L229.1,208.9z"/>
		<path class="st18" d="M335.6,197.9l-3.5-17.1l-23,15.1l-3.5,21.7l-21,13.8l22.9-119l25.5-16.7l23.6,88.6L335.6,197.9z M328,160.5
			l-3.1-15c-0.7-3.3-1.6-7.6-2.6-13c-1-5.3-1.7-9.2-2-11.6c-0.3,2.6-0.8,6.9-1.7,13c-0.8,6.1-2.7,18.2-5.6,36.4L328,160.5z"/>
		<path class="st18" d="M379.1,169.4L378.8,66l19.2-12.6l0.2,103.5L379.1,169.4z"/>
		<path class="st18" d="M459.7,116.6l-19.1,12.5l-0.2-80.6l-17.3,11.3L423.1,37l53.7-35.2l0.1,22.9L459.5,36L459.7,116.6z"/>
	</g>
</g>
<g id="Layer_6" class="st0">
	<g class="st2">
		<path class="st18" d="M-149.3,290.9c-4.6,3-8.1,8-10.6,15.2c-2.5,7.1-3.8,15.5-3.8,25c0,19.9,5.2,26.5,15.6,19.7
			c3.1-2.1,6.2-4.7,9.1-7.9c2.9-3.2,5.9-6.7,8.9-10.4l0.1,23.6c-5.9,7.7-12.6,14-20,18.9c-10.7,7-18.9,7.8-24.6,2.5
			c-5.7-5.3-8.6-16.6-8.6-33.7c0-10.7,1.3-21,4.1-31c2.7-9.9,6.7-18.8,11.9-26.5c5.2-7.8,11.3-13.9,18.3-18.5c7.7-5,15-7.4,22-7.1
			l-5.8,25.8c-2.6-0.1-5.2,0.1-7.9,0.6C-143.4,287.7-146.2,289-149.3,290.9z"/>
		<path class="st18" d="M-57.9,313.2l-3.5-17.1l-23,15.1l-3.5,21.7l-21,13.8l22.9-119l25.5-16.7l23.6,88.6L-57.9,313.2z
			 M-65.4,275.8l-3.1-15c-0.7-3.3-1.6-7.6-2.6-13c-1-5.3-1.7-9.2-2-11.6c-0.3,2.6-0.9,6.9-1.7,13c-0.8,6.1-2.7,18.2-5.6,36.4
			L-65.4,275.8z"/>
		<path class="st18" d="M45.5,141.9l0.1,62.3c0,13.5-2.6,25.7-7.8,36.6c-5.2,10.9-12.8,19.5-22.7,26c-9.7,6.3-17.1,7.6-22.3,3.8
			c-5.2-3.8-7.8-12.5-7.8-26l-0.1-62.9L4.2,169l0.1,60.7c0,7.3,1,12,2.8,14.1c1.9,2.1,4.6,1.9,8.3-0.5c3.9-2.6,6.7-6.1,8.5-10.5
			c1.8-4.4,2.6-10.4,2.6-17.8l-0.1-60.6L45.5,141.9z"/>
		<path class="st18" d="M121.8,164.1c0,6.4-1.1,12.8-3.3,19.3c-2.2,6.4-5.4,12.4-9.6,17.9c-4.2,5.5-9.1,10.1-14.8,13.8
			c-4.7,3.1-8.7,5.2-11.9,6.3c-3.2,1.1-6.5,1.6-10,1.5L72.2,198c3.7,0.3,7.5,0,11.4-1.1c3.9-1,7.6-2.6,10.9-4.8
			c2.8-1.9,4.9-3.9,6.2-6.3c1.3-2.3,2-4.6,2-6.9c0-1.4-0.3-2.5-0.8-3.2c-0.5-0.7-1.4-1.2-2.6-1.5c-1.2-0.3-4.3-0.5-9.4-0.5
			c-4.6,0-8.1-0.7-10.4-2.1c-2.3-1.4-4-3.5-5.2-6.5c-1.1-3-1.7-7-1.7-12.1c0-9.5,2.3-18.5,7.1-27c4.7-8.4,11.3-15.4,19.6-20.8
			c7.3-4.8,14.8-7.2,22.4-7.3l-5.8,25.4c-6.6-0.1-12.4,1.4-17.2,4.6c-2.5,1.6-4.3,3.5-5.4,5.5c-1.1,2-1.7,4-1.7,5.9
			c0,2,0.7,3.4,2.2,4c1.4,0.7,5.3,1,11.7,1.1c6.1,0,10.4,1.5,12.7,4.6C120.6,152.1,121.8,157.1,121.8,164.1z"/>
		<path class="st18" d="M189.7,151.1l-42,27.5l-0.2-103.5l42-27.5l0,22.4l-22.9,15l0,16.3l21.2-13.9l0.1,22.4l-21.2,13.9l0,19.5
			l22.9-15L189.7,151.1z"/>
		<path class="st18" d="M263.2,71.4c0,6.4-1.1,12.8-3.3,19.3c-2.2,6.4-5.4,12.4-9.6,17.9s-9.1,10.1-14.8,13.8
			c-4.7,3.1-8.7,5.2-11.9,6.3c-3.2,1.1-6.5,1.6-10,1.5l-0.1-24.9c3.7,0.3,7.5,0,11.4-1.1c3.9-1,7.6-2.6,10.9-4.8
			c2.8-1.9,4.9-3.9,6.2-6.3c1.3-2.3,2-4.6,2-6.9c0-1.4-0.3-2.5-0.8-3.2c-0.5-0.7-1.4-1.2-2.6-1.5c-1.2-0.3-4.3-0.5-9.4-0.5
			c-4.6,0-8.1-0.7-10.4-2.1c-2.3-1.4-4-3.5-5.2-6.5c-1.1-3-1.7-7-1.7-12.1c0-9.5,2.3-18.5,7.1-27c4.7-8.4,11.3-15.4,19.6-20.8
			c7.3-4.8,14.8-7.2,22.4-7.3l-5.8,25.4c-6.6-0.1-12.4,1.4-17.2,4.6c-2.5,1.6-4.3,3.5-5.4,5.5s-1.7,4-1.7,5.9c0,2,0.7,3.4,2.2,4
			c1.4,0.7,5.3,1,11.7,1.1c6.1,0,10.4,1.5,12.7,4.6C262,59.4,263.2,64.5,263.2,71.4z"/>
	</g>
</g>
<g id="Layer_5" class="st0">
	<g class="st2">
		<path class="st18" d="M-255.1,301.8l-22.6,14.8l-6.9-40.6c-0.3-1.7-0.8-5.1-1.6-10.3c-0.7-5.2-1.2-9.5-1.6-13.1
			c-0.3,3.2-0.7,7.3-1.2,12.3c-0.6,4.9-1.1,9.5-1.7,13.7c-0.6,4.2-2.9,21.2-6.9,51l-22.6,14.8l-17.8-92l18.5-12.1l7.8,46.8
			c1.8,10.3,3,18.7,3.6,25c0.4-5.1,1.1-12.1,2.2-21.1c1.1-9,2.1-16.5,3-22.5l6.2-43.2l17.7-11.6l6.1,35.2c1,5.6,2.1,12.2,3.2,19.7
			c1.1,7.5,1.8,13.2,2.2,17c0.4-5.5,1.5-15.3,3.4-29.5l7.7-57.2l18.5-12.1L-255.1,301.8z"/>
		<path class="st18" d="M-153,234.9l-19.2,12.6l-0.1-42.2l-22.2,14.6l0.1,42.2l-19.2,12.6l-0.2-103.5l19.2-12.6l0.1,38.4l22.2-14.6
			l-0.1-38.4l19.2-12.6L-153,234.9z"/>
		<path class="st18" d="M-79.3,186.7l-3.5-17.1l-23,15.1l-3.5,21.7l-21,13.8l22.9-119L-82,84.4l23.6,88.6L-79.3,186.7z M-86.9,149.2
			l-3.1-15c-0.7-3.3-1.6-7.6-2.6-13s-1.7-9.2-2-11.6c-0.3,2.6-0.9,6.9-1.7,13c-0.8,6.1-2.7,18.2-5.6,36.4L-86.9,149.2z"/>
		<path class="st18" d="M-4.6,137.7l-19.1,12.5l-0.2-80.6L-41.2,81l-0.1-22.9L12.4,23l0.1,22.9L-4.8,57.1L-4.6,137.7z"/>
	</g>
</g>
</svg>
