<?xml version="1.0" encoding="utf-8"?>
<!-- Generator: Adobe Illustrator 22.0.0, SVG Export Plug-In . SVG Version: 6.00 Build 0)  -->
<svg version="1.1" id="Layer_1" xmlns="http://www.w3.org/2000/svg" xmlns:xlink="http://www.w3.org/1999/xlink" x="0px" y="0px"
	 viewBox="0 0 74.1 80.6" style="enable-background:new 0 0 74.1 80.6;" xml:space="preserve">
<style type="text/css">
	.st0{fill:#AD2121;}
	.st1{fill:#3E723E;}
	.st2{fill:#563C3C;}
	.st3{fill:#FFFFFF;}
</style>
<g>
	<g>
		<path class="st0" d="M35,17.5c-1.7-0.9-11-5.5-20.6-1.5C2,21.2,0.2,36.2,0,37.7c0,0-2.5,23.5,34.8,41.5c1.1,0.5,3.7,1.8,6.7,1.1
			c2.3-0.5,3.9-2,4.9-3.1c1,0.9,2.7,2.1,4.9,2.1c0.9,0,3.4-0.2,6.5-4C80,48.8,73,29.8,73,29.8c-1-2.7-6.2-17.1-19.1-19
			C44.2,9.5,36.5,16.2,35,17.5z"/>
	</g>
	<g>
		<path class="st1" d="M6,8.6c5-4.8,12.3-6.2,18.5-3.6C30.1,7.5,34,13,34.5,19.2c-1,0.5-9.9,4.7-19,0.1C9.2,16,6.7,10.3,6,8.6z"/>
	</g>
	<g>
		<path class="st2" d="M36.5,20.4c-4.1-2.3-6.7-6.6-6.6-11.1C30,3.9,33.8,0.5,34.4,0c1.4,0.7,2.8,1.3,4.2,2c-1,1-3.3,3.5-4.2,7.5
			C33.3,15.1,35.9,19.5,36.5,20.4z"/>
	</g>
	<g>
		<path class="st3" d="M44.1,18.2c0.2-2.1,6.1-4.5,11.2-3.3c4.7,1.2,9.2,5.6,8.5,8.7c-0.3,1.5-1.9,3-3.1,2.8
			c-1.5-0.2-1.3-2.7-3.7-4.8c-0.1-0.1-3-2.5-6.5-2.1c-2.2,0.2-3.1,1.4-4.6,0.8C45,20,44,19.1,44.1,18.2z"/>
	</g>
	<g>
		<ellipse transform="matrix(0.9859 -0.1671 0.1671 0.9859 -4.2638 11.346)" class="st3" cx="65.3" cy="31" rx="2" ry="3"/>
	</g>
</g>
</svg>
