<?xml version="1.0" encoding="utf-8"?>
<!-- Generator: Adobe Illustrator 22.0.0, SVG Export Plug-In . SVG Version: 6.00 Build 0)  -->
<svg version="1.1" xmlns="http://www.w3.org/2000/svg" xmlns:xlink="http://www.w3.org/1999/xlink" x="0px" y="0px"
	 viewBox="0 0 157.5 551.9" style="enable-background:new 0 0 157.5 551.9;" xml:space="preserve">
<style type="text/css">
	.st0{fill:#D3BDA3;}
	.st1{fill:#EF3F3F;}
	.st2{fill:#C13A3A;}
	.st3{fill:#E03D3D;}
	.st4{fill:#AF3838;}
	.st5{fill:#EF5454;}
	.st6{fill:#846855;}
	.st7{fill:#DB947B;}
	.st8{fill:#FFFFFF;}
	.st9{fill:#665B4F;}
</style>
<g id="Layer_1">
	<polygon class="st0" points="116.6,550.9 148.5,550.9 126.7,315.1 103.4,335.3 	"/>
	<polygon class="st0" points="40.3,551.9 8.4,551.9 30.3,316.1 53.6,336.3 	"/>
</g>
<g id="Layer_4">
	<g>
		<path class="st1" d="M31.7,153.1c0.2-5,1.1-12.4,4.7-19.2c8.7-16.6,26.6-16.5,42.5-16.4c15.2,0.1,29.3,0,39.8,12.1
			c5.3,6.1,6.8,17,7.4,23.6C94.6,153.1,63.2,153.1,31.7,153.1z"/>
		<path class="st2" d="M133.2,306.9c0.1,2.7,0.4,18.5-8.8,31.3s-20.8,13.1-22.8,13.1H56.2c-21.1,0-31.6-25.2-31.6-44.5
			C60.8,306.9,97,306.9,133.2,306.9z"/>
		<path class="st1" d="M24.6,306.9c0.4-9,0.7-16.4,1.1-25.4c35.5,0,71,0,106.5,0c0.3,8.3,0.6,17,1,25.4
			C97,306.9,60.8,306.9,24.6,306.9z"/>
		<path class="st2" d="M30.5,181.6c0.5-11.2,0.7-17.2,1.2-28.5c31.5,0,62.9,0,94.4,0c0.7,11.9,1.1,16.4,1.8,28.3
			C95.2,181.4,63,181.6,30.5,181.6z"/>
		<path class="st2" d="M25.7,281.6c0.2-4.2,0.4-8.1,0.6-12.3c34.3,0,70.3,0,105.5,0c0.1,3.8,0.3,8.4,0.5,12.3
			C96.1,281.6,61.5,281.6,25.7,281.6z"/>
		<path class="st3" d="M26.4,269.3c0.2-4.5,0.5-12.2,0.7-16.8c34.7,0,70.1-0.1,104-0.1c0.2,4.9,0.5,12,0.6,16.8
			C96.9,269.3,61.8,269.3,26.4,269.3z"/>
		<path class="st4" d="M27.1,252.5c0.3-6,0.5-10.6,0.8-16.6c33.7,0,68.5,0,102.5,0c0.2,5.8,0.5,10.7,0.7,16.5
			C96.4,252.5,62.8,252.5,27.1,252.5z"/>
		<path class="st5" d="M27.9,236c0.4-8.6,0.9-18.6,1.3-27.3c34.9,0,65.8,0,100.1,0c0.4,8.7,0.7,18.5,1.1,27.2
			C96.2,236,62.3,236,27.9,236z"/>
		<path class="st3" d="M29.2,208.7c0.2-5.2,0.5-11.5,0.8-16.7c33.3,0,64.3,0,98.4,0c0.2,4.9,0.6,11.8,0.8,16.7
			C95.4,208.7,62.9,208.7,29.2,208.7z"/>
		<path class="st5" d="M30,192c0.1-2.5,0.4-7.9,0.5-10.4c33.1,0,64.8-0.2,97.4-0.2c0.1,2.9,0.4,7.8,0.6,10.6
			C95.8,192,63.2,192,30,192z"/>
	</g>
</g>
<g id="Layer_5">
	<path class="st6" d="M32.8,23.1c-11.5,7.5-15.7,15.1-17.3,20.7C13.6,50,14.8,54,12.8,63.1C11.1,71.5,8,78,5.8,82.1
		c0.9-0.1,6.1-0.8,9.3-5.3c1.9-2.6,2.3-5.4,2.3-6.7c-4.2,12.5-2.5,19.2,0.3,23c3.2,4.3,8.5,5.8,9,10.3c0.3,3.3-2.1,6.2-4.3,8.3
		c2,0.2,5.6,0.2,9.7-1.3c4.4-1.6,7.3-4.2,8.7-5.7c0.1,0.7,1.4,6.8-2.7,11c-1.5,1.5-3.2,2.3-4.3,2.7c8.4-1.5,15.7-2.7,21.7-3.7
		c33.3-5.4,42.5-5.7,48-1.3c1.1,0.9,4.4,3.8,9.7,5.3c3.2,0.9,5.9,1,7.7,0.9c-4.1-2.1-6.6-6-6.4-9.9c0.2-2.3,1.3-4.1,2-5
		c0.2,1.1,0.9,3.9,3.3,6.3c3.7,3.6,8.6,3.3,9.4,3.2c-1-2.2-2.1-5.2-2.7-8.9c-0.7-4.4-0.4-8.1,0-10.7c2.3-3,1.2,0,3,1.8
		c1.3,1.3,2.3,2.1,5.7,2.5c-1.6-10.6,2.9-9.1,5.3-17.7c6.1-21.4,5.3-27.5,4.7-31c-0.7-3.8-2.4-9.6-7-16c1.1,0.4,3.1,0.9,5.7,0.7
		c3.1-0.3,5.3-1.6,6.3-2.3c-8-0.4-11.9-3-14-5.3c-1.8-2-2.8-4.4-6-6.3c-2.5-1.5-5-1.9-6.7-2c-1.8-3.3-4.7-7.4-9.3-11
		C100-2.8,82.4,1.1,79.4,1.8c-20.3-4.1-28.9-0.4-33,4c-2.9,3.1-4.7,8-10.4,10.5c-4.4,1.9-8.9,1.5-11.9,0.8c0,0.4,0.4,3.3,3.1,5.1
		C29.7,23.9,32.4,23.2,32.8,23.1z"/>
	<circle class="st0" cx="79.2" cy="66.3" r="58.5"/>
	<polygon class="st7" points="79.2,70 69.7,95.5 88.7,95.5 	"/>
	<path class="st0" d="M24.7,87.8c-6.4,0-11.7-5.3-11.7-11.7s5.3-11.7,11.7-11.7C24.7,72.3,24.7,80,24.7,87.8z"/>
	<path class="st0" d="M134,87.7c6.4,0,11.7-5.3,11.7-11.7s-5.3-11.7-11.7-11.7C134,72.2,134,79.9,134,87.7z"/>
	<path class="st6" d="M50.1,27.1c1,2.3,3.8,8.4,10.7,12.7c8.5,5.3,17.2,4,19.3,3.7c-1.8-1.2-3.9-3-5.5-5.7c-0.1-0.2-0.3-0.5-0.5-0.9
		c-0.8-1.6-1.7-4.3-1.7-8c1.4,2,3.5,4.6,6.3,7.3c1.9,1.8,5,4.7,8.7,6.3c9.6,4.4,24.8,1,32-1.7c1-0.4,3-1.2,5-0.3
		c3.3,1.4,4.5,6.7,4,10.7c-0.5,3.9-2.8,6.5-4,7.7c0.3,0.1,3.7,0.7,6.3-1.7c2.6-2.4,2.4-5.6,2.3-6c0.5,1.6,2.2,7.8-1,14.3
		c-1.8,3.7-4.5,5.9-6,7c3.5-1.1,11.2-4,14.3-11c4.4-10-3.8-21.5-9-28.7c-4.6-6.4-18.5-25.7-44.6-28.7C58.5,0.9,39.5,19.5,35.1,23.8
		c0,0-13.1,12.8-17.3,32c-1.9,8.7-0.6,12.6,1.3,15c3.1,3.9,8.2,4.5,10.3,4.7c-1.3-1.7-3.8-5.5-4.7-10.9c-0.9-5.6,0.3-10,1.1-12.1
		c-1.3,4.5-0.1,9,3,11.3c1.8,1.4,3.8,1.6,5,1.7c-0.8-1.4-2.3-4.5-2.3-8.7c0-2.9,0.7-5.3,1.3-6.7c0.8,2.4,1.6,4.9,2.3,7.3
		c3.2-4.7,6.6-10.4,9.7-17C47,35.7,48.7,31.2,50.1,27.1z"/>
</g>
<g id="Layer_8">
	<ellipse class="st6" cx="106.4" cy="52" rx="9.2" ry="5.6"/>
	<ellipse class="st6" cx="52.7" cy="52" rx="9.2" ry="5.6"/>
</g>
<g id="Layer_6">
	<circle class="st8" cx="52.2" cy="75.1" r="11.4"/>
	<circle class="st8" cx="107" cy="75.1" r="11.4"/>
</g>
<g id="Layer_7">
	<circle class="st9" cx="52.7" cy="76.1" r="7"/>
	<circle class="st9" cx="107" cy="76.1" r="7"/>
</g>
<g id="Layer_3">
	<polygon class="st0" points="22.7,243.1 0,243.1 13.3,150.2 32.4,146.7 	"/>
	<polygon class="st0" points="2.9,338.8 22.7,338.8 22.7,243.1 0,243.1 	"/>
</g>
<g id="Layer_2">
	<polygon class="st0" points="134.8,243.1 157.5,243.1 144.2,150.2 125.1,146.7 	"/>
	<polygon class="st0" points="154.6,338.8 134.8,338.8 134.8,243.1 157.5,243.1 	"/>
</g>
</svg>
