<?xml version="1.0" encoding="utf-8"?>
<!-- Generator: Adobe Illustrator 22.0.0, SVG Export Plug-In . SVG Version: 6.00 Build 0)  -->
<svg version="1.1" xmlns="http://www.w3.org/2000/svg" xmlns:xlink="http://www.w3.org/1999/xlink" x="0px" y="0px"
	 viewBox="0 0 157.5 551.9" style="enable-background:new 0 0 157.5 551.9;" xml:space="preserve">
<style type="text/css">
	.st0{fill:#D3BDA3;}
	.st1{fill:#EF3F3F;}
	.st2{fill:#C13A3A;}
	.st3{fill:#E03D3D;}
	.st4{fill:#AF3838;}
	.st5{fill:#EF5454;}
	.st6{fill:#846855;}
	.st7{fill:#DB947B;}
	.st8{fill:#FFFFFF;}
	.st9{fill:#665B4F;}
</style>
<g id="Layer_1">
	<polygon class="st0" points="41.6,550.9 9.6,550.9 31.5,315.1 54.8,335.3 	"/>
	<polygon class="st0" points="117.9,551.9 149.8,551.9 127.9,316.1 104.6,336.3 	"/>
</g>
<g id="Layer_4">
	<g>
		<path class="st1" d="M31.8,152.1c0.2-5,1.1-12.4,4.7-19.2c8.7-16.6,26.6-16.5,42.5-16.4c15.2,0.1,29.3,0,39.8,12.1
			c5.3,6.1,6.8,17,7.4,23.6C94.7,152.1,63.2,152.1,31.8,152.1z"/>
		<path class="st2" d="M133.3,306c0.1,2.7,0.4,18.5-8.8,31.3s-20.8,13.1-22.8,13.1H56.3c-21.1,0-31.6-25.2-31.6-44.5
			C60.9,306,97.1,306,133.3,306z"/>
		<path class="st1" d="M24.7,306c0.4-9,0.7-16.4,1.1-25.4c35.5,0,71,0,106.5,0c0.3,8.3,0.6,17,1,25.4C97.1,306,60.9,306,24.7,306z"
			/>
		<path class="st2" d="M30.6,180.6c0.5-11.2,0.7-17.2,1.2-28.5c31.5,0,62.9,0,94.4,0c0.7,11.9,1.1,16.4,1.8,28.3
			C95.3,180.4,63.1,180.6,30.6,180.6z"/>
		<path class="st2" d="M25.8,280.6c0.2-4.2,0.4-8.1,0.6-12.3c34.3,0,70.3,0,105.5,0c0.1,3.8,0.3,8.4,0.5,12.3
			C96.2,280.6,61.6,280.6,25.8,280.6z"/>
		<path class="st3" d="M26.5,268.3c0.2-4.5,0.5-12.2,0.7-16.8c34.7,0,70.1-0.1,104-0.1c0.2,4.9,0.5,12,0.6,16.8
			C97,268.3,61.9,268.3,26.5,268.3z"/>
		<path class="st4" d="M27.2,251.6c0.3-6,0.5-10.6,0.8-16.6c33.7,0,68.5,0,102.5,0c0.2,5.8,0.5,10.7,0.7,16.5
			C96.5,251.5,62.8,251.6,27.2,251.6z"/>
		<path class="st5" d="M28,235c0.4-8.6,0.9-18.6,1.3-27.3c34.9,0,65.8,0,100.1,0c0.4,8.7,0.7,18.5,1.1,27.2
			C96.3,235,62.4,235,28,235z"/>
		<path class="st3" d="M29.3,207.8c0.2-5.2,0.5-11.5,0.8-16.7c33.3,0,64.3,0,98.4,0c0.2,4.9,0.6,11.8,0.8,16.7
			C95.5,207.8,63,207.8,29.3,207.8z"/>
		<path class="st5" d="M30.1,191c0.1-2.5,0.4-7.9,0.5-10.4c33.1,0,64.8-0.2,97.4-0.2c0.1,2.9,0.4,7.8,0.6,10.6
			C95.9,191,63.3,191,30.1,191z"/>
	</g>
</g>
<g id="Layer_5">
	<path class="st6" d="M125.4,23.1c11.5,7.5,15.7,15.1,17.3,20.7c1.9,6.2,0.7,10.2,2.6,19.3c1.8,8.5,4.8,14.9,7.1,19
		c-0.9-0.1-6.1-0.8-9.3-5.3c-1.9-2.6-2.3-5.4-2.3-6.7c4.2,12.5,2.5,19.2-0.3,23c-3.2,4.3-8.5,5.8-9,10.3c-0.3,3.3,2.1,6.2,4.3,8.3
		c-2,0.2-5.6,0.2-9.7-1.3c-4.4-1.6-7.3-4.2-8.7-5.7c-0.1,0.7-1.4,6.8,2.7,11c1.5,1.5,3.2,2.3,4.3,2.7c-8.4-1.5-15.7-2.7-21.7-3.7
		c-33.3-5.4-42.5-5.7-48-1.3c-1.1,0.9-4.4,3.8-9.7,5.3c-3.2,0.9-5.9,1-7.7,0.9c4.1-2.1,6.6-6,6.4-9.9c-0.2-2.3-1.3-4.1-2-5
		c-0.2,1.1-0.9,3.9-3.3,6.3c-3.7,3.6-8.6,3.3-9.4,3.2c1-2.2,2.1-5.2,2.7-8.9c0.7-4.4,0.4-8.1,0-10.7c-2.3-3-1.2,0-3,1.8
		c-1.3,1.3-2.3,2.1-5.7,2.5c1.6-10.6-2.9-9.1-5.3-17.7c-6.1-21.4-5.3-27.5-4.7-31c0.7-3.8,2.4-9.6,7-16c-1.1,0.4-3.1,0.9-5.7,0.7
		c-3.1-0.3-5.3-1.6-6.3-2.3c8-0.4,11.9-3,14-5.3c1.8-2,2.8-4.4,6-6.3c2.5-1.5,5-1.9,6.7-2c1.8-3.3,4.7-7.4,9.3-11
		c14.1-10.9,31.7-7,34.6-6.3c20.3-4.1,28.9-0.4,33,4c2.9,3.1,4.7,8,10.4,10.5c4.4,1.9,8.9,1.5,11.9,0.8c0,0.4-0.4,3.3-3.1,5.1
		C128.5,23.9,125.8,23.2,125.4,23.1z"/>
	<circle class="st0" cx="79" cy="66.3" r="58.5"/>
	<polygon class="st7" points="79,70 88.5,95.5 69.5,95.5 	"/>
	<path class="st0" d="M133.5,87.8c6.4,0,11.7-5.3,11.7-11.7s-5.3-11.7-11.7-11.7C133.5,72.3,133.5,80,133.5,87.8z"/>
	<path class="st0" d="M24.2,87.7c-6.4,0-11.7-5.3-11.7-11.7s5.3-11.7,11.7-11.7C24.2,72.2,24.2,79.9,24.2,87.7z"/>
	<path class="st6" d="M35.9,57.2c-1.1-4.7-2.1-5.7-2.7-5.7c-1.5,0-3.3,5.2-3.2,10.2c0,5,1.8,5.4,1.7,10c-0.1,5.5-2.8,7.1-1.7,10.5
		c0.5,1.8,2.1,4.1,6.7,6c-1.8,1.4-4.2,1.8-6.2,1c-2.3-0.9-3.8-3-4-5.5c1,1.3,3.1,4.6,3.2,9.2c0.2,6.8-3.9,11.3-4.7,12.2
		c0.2-5.2-0.1-12.9-2.7-21.7c-0.9-3.1-1.7-4.8-2.2-6.2c-5-13.5,1.1-29.7,2.5-33.2c5.8-15.3,19.5-30.7,39.5-36.7c4-1.2,23.9-6.7,45,4
		c1.2,0.6,24.7,13,31.2,39c2.4,9.6,5,19.7,0.5,29.2c-1.9,4-5.7,9.3-4.5,16c0.6,3.1,2.1,5.5,3.2,7c-5.1-0.4-9.4-3.7-10.7-8.2
		c-1.4-4.8,1.1-8.8,1.5-9.5c-1.7,1.2-3.6,3.1-4.7,5.7c-0.7,1.7-0.8,3-1,3c-0.3,0-0.6-4.5,1.2-9c1.8-4.3,4.5-4.8,6.7-8
		c1.7-2.5,3.3-6.9,1.7-14.7c-0.8,0.5-2,1.4-3,3c-1.9,3.1-1.4,6.4-1.2,7.2c-1-1.1-4.5-5.4-4.5-11.7c0-4.3,1.6-7.5,2.5-9
		c-0.3,0-2.7-0.1-4.2,1.7c-0.8,1-0.9,2-1,2.5c-0.2-2-0.3-4.5,0-7.2c0.3-3.7,1.2-6.9,2-9.2c-0.9,0.9-3.3,3.2-7.2,4
		c-5.5,1.1-9.7-1.7-10.5-2.2c2.7,0.4,5.3-0.8,6.7-3c2.1-3.1,0.6-6.5,0.5-6.7c-5.2,2.2-11.3,4.3-18,6c-12.9,3.3-24.5,4.2-33.7,4.2
		c0.9-0.2,4.1-1.1,6.5-4.2c2.4-3.2,2.3-6.6,2.2-7.5c-1.5,2.2-3.9,5-7.5,7.5c-7.6,5.3-15.5,5.6-18.7,5.5c0.5-0.2,2.7-1.1,4-3.5
		c1.4-2.7,0.7-5.3,0.5-5.7c-5.9,2.2-7.8,4.9-8.5,7c-0.9,2.8,0.3,4.8-0.2,9.2C38.1,52.9,36.8,55.5,35.9,57.2z"/>
</g>
<g id="Layer_7">
	<ellipse class="st6" cx="51.8" cy="52" rx="9.2" ry="5.6"/>
	<ellipse class="st6" cx="105.5" cy="52" rx="9.2" ry="5.6"/>
</g>
<g id="Layer_6">
	<circle class="st8" cx="106" cy="75.1" r="11.4"/>
	<circle class="st8" cx="51.2" cy="75.1" r="11.4"/>
</g>
<g id="Layer_8">
	<circle class="st9" cx="105.5" cy="76.1" r="7"/>
	<circle class="st9" cx="51.2" cy="76.1" r="7"/>
</g>
<g id="Layer_3">
	<polygon class="st0" points="22.7,242.7 0,242.7 13.3,149.9 32.4,146.3 	"/>
	<polygon class="st0" points="2.9,338.4 22.7,338.4 22.7,242.7 0,242.7 	"/>
</g>
<g id="Layer_2">
	<polygon class="st0" points="134.8,243.1 157.5,243.1 144.3,150.2 125.2,146.7 	"/>
	<polygon class="st0" points="154.6,338.8 134.8,338.8 134.8,243.1 157.5,243.1 	"/>
</g>
</svg>
