<?xml version="1.0" encoding="utf-8"?>
<!-- Generator: Adobe Illustrator 22.0.0, SVG Export Plug-In . SVG Version: 6.00 Build 0)  -->
<svg version="1.1" id="Layer_1" xmlns="http://www.w3.org/2000/svg" xmlns:xlink="http://www.w3.org/1999/xlink" x="0px" y="0px"
	 viewBox="0 0 1130 800" style="enable-background:new 0 0 1130 800;" xml:space="preserve">
<style type="text/css">
	.st0{clip-path:url(#SVGID_2_);fill:#99DDC1;}
	.st1{clip-path:url(#SVGID_4_);}
	.st2{fill:#69AF98;}
	.st3{clip-path:url(#SVGID_6_);fill:#72B774;}
	.st4{clip-path:url(#SVGID_8_);fill:#7FCCBF;}
	.st5{clip-path:url(#SVGID_10_);fill:#71AFA3;}
	.st6{clip-path:url(#SVGID_12_);fill:#92C174;}
	.st7{clip-path:url(#SVGID_14_);fill:#69AF69;}
	.st8{clip-path:url(#SVGID_16_);fill:#76D39C;}
	.st9{clip-path:url(#SVGID_18_);fill:#76D39C;}
	.st10{clip-path:url(#SVGID_20_);fill:#4BAF6A;}
	.st11{clip-path:url(#SVGID_22_);fill:#72B774;}
	.st12{clip-path:url(#SVGID_24_);fill:#76D39C;}
	.st13{clip-path:url(#SVGID_26_);fill:#4BAF6A;}
	.st14{clip-path:url(#SVGID_28_);fill:#72B774;}
	.st15{clip-path:url(#SVGID_30_);fill:#7FCCBF;}
	.st16{clip-path:url(#SVGID_32_);fill:#71AFA3;}
	.st17{clip-path:url(#SVGID_34_);fill:#92C174;}
	.st18{clip-path:url(#SVGID_36_);fill:#76D39C;}
	.st19{clip-path:url(#SVGID_38_);fill:#7FCCBF;}
	.st20{clip-path:url(#SVGID_40_);fill:#71AFA3;}
	.st21{clip-path:url(#SVGID_42_);fill:#92C174;}
	.st22{clip-path:url(#SVGID_44_);fill:#92C174;}
	.st23{clip-path:url(#SVGID_46_);fill:#88B56B;}
	.st24{clip-path:url(#SVGID_48_);fill:#7FCCBF;}
	.st25{clip-path:url(#SVGID_50_);fill:#72B774;}
	.st26{clip-path:url(#SVGID_52_);fill:#69AF69;}
	.st27{clip-path:url(#SVGID_54_);fill:#76D39C;}
	.st28{clip-path:url(#SVGID_56_);fill:#78C1A3;}
	.st29{clip-path:url(#SVGID_58_);fill:#78C1A3;}
	.st30{clip-path:url(#SVGID_60_);fill:#78C1A3;}
	.st31{clip-path:url(#SVGID_62_);}
	.st32{clip-path:url(#SVGID_64_);fill:#72B774;}
	.st33{clip-path:url(#SVGID_66_);fill:#7FCCBF;}
	.st34{clip-path:url(#SVGID_68_);fill:#71AFA3;}
	.st35{clip-path:url(#SVGID_70_);fill:#92C174;}
	.st36{clip-path:url(#SVGID_72_);fill:#69AF69;}
	.st37{clip-path:url(#SVGID_74_);fill:#76D39C;}
	.st38{clip-path:url(#SVGID_76_);fill:#76D39C;}
	.st39{clip-path:url(#SVGID_78_);fill:#4BAF6A;}
	.st40{clip-path:url(#SVGID_80_);fill:#72B774;}
	.st41{clip-path:url(#SVGID_82_);fill:#76D39C;}
	.st42{clip-path:url(#SVGID_84_);fill:#4BAF6A;}
	.st43{clip-path:url(#SVGID_86_);fill:#72B774;}
	.st44{clip-path:url(#SVGID_88_);fill:#7FCCBF;}
	.st45{clip-path:url(#SVGID_90_);fill:#71AFA3;}
	.st46{clip-path:url(#SVGID_92_);fill:#92C174;}
	.st47{clip-path:url(#SVGID_94_);fill:#76D39C;}
	.st48{clip-path:url(#SVGID_96_);fill:#7FCCBF;}
	.st49{clip-path:url(#SVGID_98_);fill:#71AFA3;}
	.st50{clip-path:url(#SVGID_100_);fill:#92C174;}
	.st51{clip-path:url(#SVGID_102_);fill:#88B56B;}
	.st52{clip-path:url(#SVGID_104_);fill:#7FCCBF;}
	.st53{clip-path:url(#SVGID_106_);fill:#72B774;}
	.st54{clip-path:url(#SVGID_108_);fill:#69AF69;}
	.st55{clip-path:url(#SVGID_110_);fill:#76D39C;}
	.st56{clip-path:url(#SVGID_112_);fill:#78C1A3;}
	.st57{clip-path:url(#SVGID_114_);fill:#78C1A3;}
	.st58{clip-path:url(#SVGID_116_);fill:#78C1A3;}
	.st59{clip-path:url(#SVGID_118_);fill:none;stroke:#F4D090;stroke-width:10;stroke-miterlimit:10;}
</style>
<g>
	<g>
		<defs>
			<rect id="SVGID_1_" width="1130" height="800"/>
		</defs>
		<clipPath id="SVGID_2_">
			<use xlink:href="#SVGID_1_"  style="overflow:visible;"/>
		</clipPath>
		<rect class="st0" width="1130" height="800"/>
	</g>
	<g>
		<defs>
			<rect id="SVGID_3_" width="1130" height="800"/>
		</defs>
		<clipPath id="SVGID_4_">
			<use xlink:href="#SVGID_3_"  style="overflow:visible;"/>
		</clipPath>
		<g class="st1">
			<path class="st2" d="M212,324.4c-62.4,39.9-68.1,222.7-72.3,339.5c-4.7,129,3.6,289.6-72.9,338.6l-99.9,63.9l-2.6-4.1
				c52.5-63.9,46.4-203.7,50.6-318.5C19,627,24.6,444.2,87.1,404.3L212,324.4z"/>
			<path class="st2" d="M443.6,176.2c-62.4,39.9-68.1,222.7-72.3,339.5c-4.7,129,3.6,289.6-72.9,338.6l-124.9,79.9
				c76.5-49,68.2-209.6,72.9-338.6c4.2-116.8,9.9-299.6,72.3-339.5L443.6,176.2z"/>
		</g>
	</g>
	<g>
		<defs>
			<rect id="SVGID_5_" width="1130" height="800"/>
		</defs>
		<clipPath id="SVGID_6_">
			<use xlink:href="#SVGID_5_"  style="overflow:visible;"/>
		</clipPath>
		<path class="st3" d="M-39.2,1045.5l-105.4-164.9c-2.4-3.7-0.9-8.9,3.4-11.7l52.6-33.6c4.2-2.7,9.6-1.9,12,1.8L28.7,1002
			c2.4,3.7,0.9,8.9-3.4,11.7l-52.6,33.6C-31.4,1050-36.8,1049.2-39.2,1045.5z"/>
	</g>
	<g>
		<defs>
			<rect id="SVGID_7_" width="1130" height="800"/>
		</defs>
		<clipPath id="SVGID_8_">
			<use xlink:href="#SVGID_7_"  style="overflow:visible;"/>
		</clipPath>
		<path class="st4" d="M34,769.4l-46.8-73.1c-2.4-3.7-0.9-8.9,3.4-11.7L43.2,651c4.2-2.7,9.6-1.9,12,1.8l46.8,73.1
			c2.4,3.7,0.9,8.9-3.4,11.7L46,771.2C41.8,773.9,36.4,773.1,34,769.4z"/>
	</g>
	<g>
		<defs>
			<rect id="SVGID_9_" width="1130" height="800"/>
		</defs>
		<clipPath id="SVGID_10_">
			<use xlink:href="#SVGID_9_"  style="overflow:visible;"/>
		</clipPath>
		<path class="st5" d="M31.5,765.4L13.3,737c-1.8-2.8-0.7-6.7,2.5-8.7l56.4-36.1c3.2-2,7.2-1.4,9,1.4L99.4,722
			c1.8,2.8,0.7,6.7-2.5,8.7l-56.4,36.1C37.3,768.9,33.3,768.2,31.5,765.4z"/>
	</g>
	<g>
		<defs>
			<rect id="SVGID_11_" width="1130" height="800"/>
		</defs>
		<clipPath id="SVGID_12_">
			<use xlink:href="#SVGID_11_"  style="overflow:visible;"/>
		</clipPath>
		<path class="st6" d="M134,925.7L16.1,741.4c-2.4-3.7-0.9-8.9,3.4-11.7l52.6-33.6c4.2-2.7,9.6-1.9,12,1.8L202,882.2
			c2.4,3.7,0.9,8.9-3.4,11.7L146,927.5C141.7,930.2,136.4,929.4,134,925.7z"/>
	</g>
	<g>
		<defs>
			<rect id="SVGID_13_" width="1130" height="800"/>
		</defs>
		<clipPath id="SVGID_14_">
			<use xlink:href="#SVGID_13_"  style="overflow:visible;"/>
		</clipPath>
		<path class="st7" d="M-125.3,922.5l-7.5-11.8c-1.8-2.8-0.7-6.7,2.5-8.7l56.4-36.1c3.2-2,7.2-1.4,9,1.4l7.5,11.8
			c1.8,2.8,0.7,6.7-2.5,8.7l-56.4,36.1C-119.4,925.9-123.5,925.3-125.3,922.5z"/>
	</g>
	<g>
		<defs>
			<rect id="SVGID_15_" width="1130" height="800"/>
		</defs>
		<clipPath id="SVGID_16_">
			<use xlink:href="#SVGID_15_"  style="overflow:visible;"/>
		</clipPath>
		<path class="st8" d="M-128,918.1L-195.3,813c-2.4-3.7-0.9-8.9,3.4-11.7l52.6-33.6c4.2-2.7,9.6-1.9,12,1.8L-60,874.6
			c2.4,3.7,0.9,8.9-3.4,11.7L-116,920C-120.3,922.7-125.6,921.9-128,918.1z"/>
	</g>
	<g>
		<defs>
			<rect id="SVGID_17_" width="1130" height="800"/>
		</defs>
		<clipPath id="SVGID_18_">
			<use xlink:href="#SVGID_17_"  style="overflow:visible;"/>
		</clipPath>
		<path class="st9" d="M-94.6,769.3l-22.4-35c-2.4-3.7-0.9-8.9,3.4-11.7L-61,689c4.2-2.7,9.6-1.9,12,1.8l22.4,35
			c2.4,3.7,0.9,8.9-3.4,11.7l-52.6,33.6C-86.9,773.9-92.2,773-94.6,769.3z"/>
	</g>
	<g>
		<defs>
			<rect id="SVGID_19_" width="1130" height="800"/>
		</defs>
		<clipPath id="SVGID_20_">
			<use xlink:href="#SVGID_19_"  style="overflow:visible;"/>
		</clipPath>
		<path class="st10" d="M-94.5,769.4l-11.6-18.2c-1.8-2.8-0.7-6.7,2.5-8.7l56.4-36.1c3.2-2,7.2-1.4,9,1.4l11.6,18.2
			c1.8,2.8,0.7,6.7-2.5,8.7l-56.4,36.1C-88.7,772.8-92.8,772.2-94.5,769.4z"/>
	</g>
	<g>
		<defs>
			<rect id="SVGID_21_" width="1130" height="800"/>
		</defs>
		<clipPath id="SVGID_22_">
			<use xlink:href="#SVGID_21_"  style="overflow:visible;"/>
		</clipPath>
		<path class="st11" d="M2,908.9L-98.9,751.1c-2.4-3.7-0.9-8.9,3.4-11.7l52.6-33.6c4.2-2.7,9.6-1.9,12,1.8L70,865.4
			c2.4,3.7,0.9,8.9-3.4,11.7L14,910.7C9.8,913.4,4.4,912.6,2,908.9z"/>
	</g>
	<g>
		<defs>
			<rect id="SVGID_23_" width="1130" height="800"/>
		</defs>
		<clipPath id="SVGID_24_">
			<use xlink:href="#SVGID_23_"  style="overflow:visible;"/>
		</clipPath>
		<path class="st12" d="M313.9,798.2l-77.6-121.3c-2.4-3.7-0.9-8.9,3.4-11.7l52.6-33.6c4.2-2.7,9.6-1.9,12,1.8l77.6,121.3
			c2.4,3.7,0.9,8.9-3.4,11.7L325.9,800C321.7,802.7,316.3,801.9,313.9,798.2z"/>
	</g>
	<g>
		<defs>
			<rect id="SVGID_25_" width="1130" height="800"/>
		</defs>
		<clipPath id="SVGID_26_">
			<use xlink:href="#SVGID_25_"  style="overflow:visible;"/>
		</clipPath>
		<path class="st13" d="M249,696.7l-21-32.8c-1.8-2.8-0.7-6.7,2.5-8.7l56.4-36.1c3.2-2,7.2-1.4,9,1.4l21,32.8
			c1.8,2.8,0.7,6.7-2.5,8.7L258,698.1C254.8,700.1,250.8,699.5,249,696.7z"/>
	</g>
	<g>
		<defs>
			<rect id="SVGID_27_" width="1130" height="800"/>
		</defs>
		<clipPath id="SVGID_28_">
			<use xlink:href="#SVGID_27_"  style="overflow:visible;"/>
		</clipPath>
		<path class="st14" d="M245.7,691.9L96.1,458c-2.4-3.7-0.9-8.9,3.4-11.7l52.6-33.6c4.2-2.7,9.6-1.9,12,1.8l149.6,233.9
			c2.4,3.7,0.9,8.9-3.4,11.7l-52.6,33.6C253.5,696.4,248.1,695.6,245.7,691.9z"/>
	</g>
	<g>
		<defs>
			<rect id="SVGID_29_" width="1130" height="800"/>
		</defs>
		<clipPath id="SVGID_30_">
			<use xlink:href="#SVGID_29_"  style="overflow:visible;"/>
		</clipPath>
		<path class="st15" d="M355.2,668.3l-20-31.3c-2.4-3.7-0.9-8.9,3.4-11.7l52.6-33.6c4.2-2.7,9.6-1.9,12,1.8l20,31.3
			c2.4,3.7,0.9,8.9-3.4,11.7l-52.6,33.6C362.9,672.9,357.5,672,355.2,668.3z"/>
	</g>
	<g>
		<defs>
			<rect id="SVGID_31_" width="1130" height="800"/>
		</defs>
		<clipPath id="SVGID_32_">
			<use xlink:href="#SVGID_31_"  style="overflow:visible;"/>
		</clipPath>
		<path class="st16" d="M346.7,655.2L320.4,614c-1.8-2.8-0.7-6.7,2.5-8.7l56.4-36.1c3.2-2,7.2-1.4,9,1.4l26.4,41.2
			c1.8,2.8,0.7,6.7-2.5,8.7l-56.4,36.1C352.6,658.6,348.5,658,346.7,655.2z"/>
	</g>
	<g>
		<defs>
			<rect id="SVGID_33_" width="1130" height="800"/>
		</defs>
		<clipPath id="SVGID_34_">
			<use xlink:href="#SVGID_33_"  style="overflow:visible;"/>
		</clipPath>
		<path class="st17" d="M344,650.8L171.1,380.5c-2.4-3.7-0.9-8.9,3.4-11.7l52.6-33.6c4.2-2.7,9.6-1.9,12,1.8L412,607.3
			c2.4,3.7,0.9,8.9-3.4,11.7L356,652.7C351.7,655.4,346.4,654.6,344,650.8z"/>
	</g>
	<g>
		<defs>
			<rect id="SVGID_35_" width="1130" height="800"/>
		</defs>
		<clipPath id="SVGID_36_">
			<use xlink:href="#SVGID_35_"  style="overflow:visible;"/>
		</clipPath>
		<path class="st18" d="M402.8,544.6L281,354.2c-2.4-3.7-0.9-8.9,3.4-11.7l52.6-33.6c4.2-2.7,9.6-1.9,12,1.8l121.8,190.5
			c2.4,3.7,0.9,8.9-3.4,11.7l-52.6,33.6C410.5,549.2,405.2,548.4,402.8,544.6z"/>
	</g>
	<g>
		<defs>
			<rect id="SVGID_37_" width="1130" height="800"/>
		</defs>
		<clipPath id="SVGID_38_">
			<use xlink:href="#SVGID_37_"  style="overflow:visible;"/>
		</clipPath>
		<path class="st19" d="M145.7,743L65.5,617.6c-2.4-3.7-0.9-8.9,3.4-11.7l52.6-33.6c4.2-2.7,9.6-1.9,12,1.8l80.2,125.4
			c2.4,3.7,0.9,8.9-3.4,11.7l-52.6,33.6C153.5,747.6,148.1,746.7,145.7,743z"/>
	</g>
	<g>
		<defs>
			<rect id="SVGID_39_" width="1130" height="800"/>
		</defs>
		<clipPath id="SVGID_40_">
			<use xlink:href="#SVGID_39_"  style="overflow:visible;"/>
		</clipPath>
		<path class="st20" d="M158.9,763.6l-26.9-42c-1.8-2.8-0.7-6.7,2.5-8.7l56.4-36.1c3.2-2,7.2-1.4,9,1.4l26.9,42
			c1.8,2.8,0.7,6.7-2.5,8.7L167.9,765C164.7,767,160.7,766.4,158.9,763.6z"/>
	</g>
	<g>
		<defs>
			<rect id="SVGID_41_" width="1130" height="800"/>
		</defs>
		<clipPath id="SVGID_42_">
			<use xlink:href="#SVGID_41_"  style="overflow:visible;"/>
		</clipPath>
		<path class="st21" d="M230.1,874.9l-95.3-149c-2.4-3.7-0.9-8.9,3.4-11.7l52.6-33.6c4.2-2.7,9.6-1.9,12,1.8l95.3,149
			c2.4,3.7,0.9,8.9-3.4,11.7l-52.6,33.6C237.8,879.4,232.5,878.6,230.1,874.9z"/>
	</g>
	<g>
		<defs>
			<rect id="SVGID_43_" width="1130" height="800"/>
		</defs>
		<clipPath id="SVGID_44_">
			<use xlink:href="#SVGID_43_"  style="overflow:visible;"/>
		</clipPath>
		<path class="st22" d="M660.8,542L558.4,381.8c-2.4-3.7-0.9-8.9,3.4-11.7l52.6-33.6c4.2-2.7,9.6-1.9,12,1.8l102.5,160.2
			c2.4,3.7,0.9,8.9-3.4,11.7l-52.6,33.6C668.6,546.5,663.2,545.7,660.8,542z"/>
	</g>
	<g>
		<defs>
			<rect id="SVGID_45_" width="1130" height="800"/>
		</defs>
		<clipPath id="SVGID_46_">
			<use xlink:href="#SVGID_45_"  style="overflow:visible;"/>
		</clipPath>
		<path class="st23" d="M569.7,399.5l-14.1-22c-1.8-2.8-0.7-6.7,2.5-8.7l56.4-36.1c3.2-2,7.2-1.4,9,1.4l14.1,22
			c1.8,2.8,0.7,6.7-2.5,8.7l-56.4,36.1C575.5,402.9,571.5,402.3,569.7,399.5z"/>
	</g>
	<g>
		<defs>
			<rect id="SVGID_47_" width="1130" height="800"/>
		</defs>
		<clipPath id="SVGID_48_">
			<use xlink:href="#SVGID_47_"  style="overflow:visible;"/>
		</clipPath>
		<path class="st24" d="M566.9,395.1l-97.4-152.3c-2.4-3.7-0.9-8.9,3.4-11.7l52.6-33.6c4.2-2.7,9.6-1.9,12,1.8l97.4,152.3
			c2.4,3.7,0.9,8.9-3.4,11.7L578.9,397C574.6,399.7,569.3,398.9,566.9,395.1z"/>
	</g>
	<g>
		<defs>
			<rect id="SVGID_49_" width="1130" height="800"/>
		</defs>
		<clipPath id="SVGID_50_">
			<use xlink:href="#SVGID_49_"  style="overflow:visible;"/>
		</clipPath>
		<path class="st25" d="M467.6,433.6L353.5,255.1c-2.4-3.7-0.9-8.9,3.4-11.7l52.6-33.6c4.2-2.7,9.6-1.9,12,1.8L535.6,390
			c2.4,3.7,0.9,8.9-3.4,11.7l-52.6,33.6C475.3,438.1,470,437.3,467.6,433.6z"/>
	</g>
	<g>
		<defs>
			<rect id="SVGID_51_" width="1130" height="800"/>
		</defs>
		<clipPath id="SVGID_52_">
			<use xlink:href="#SVGID_51_"  style="overflow:visible;"/>
		</clipPath>
		<path class="st26" d="M465.7,430.3l-7.5-11.8c-1.8-2.8-0.7-6.7,2.5-8.7l56.4-36.1c3.2-2,7.2-1.4,9,1.4l7.5,11.8
			c1.8,2.8,0.7,6.7-2.5,8.7l-56.4,36.1C471.5,433.7,467.5,433.1,465.7,430.3z"/>
	</g>
	<g>
		<defs>
			<rect id="SVGID_53_" width="1130" height="800"/>
		</defs>
		<clipPath id="SVGID_54_">
			<use xlink:href="#SVGID_53_"  style="overflow:visible;"/>
		</clipPath>
		<path class="st27" d="M541.5,548.8l-80.8-126.3c-2.4-3.7-0.9-8.9,3.4-11.7l52.6-33.6c4.2-2.7,9.6-1.9,12,1.8l80.8,126.3
			c2.4,3.7,0.9,8.9-3.4,11.7l-52.6,33.6C549.2,553.3,543.9,552.5,541.5,548.8z"/>
	</g>
	<g>
		<defs>
			<rect id="SVGID_55_" width="1130" height="800"/>
		</defs>
		<clipPath id="SVGID_56_">
			<use xlink:href="#SVGID_55_"  style="overflow:visible;"/>
		</clipPath>
		<path class="st28" d="M173.5,934.2l124.9-79.9c-76.5,49-218.9-25.9-338-75.8c-66.5-27.8-156.1-65.7-229.6-81.3l102.5,160.2
			c0.8,0.3,1.5,0.6,2.3,1C-45.4,908.3,96.9,983.2,173.5,934.2z"/>
	</g>
	<g>
		<defs>
			<rect id="SVGID_57_" width="1130" height="800"/>
		</defs>
		<clipPath id="SVGID_58_">
			<use xlink:href="#SVGID_57_"  style="overflow:visible;"/>
		</clipPath>
		<path class="st29" d="M443.6,176.2l-124.9,79.9c62-39.7,228.4,30.6,336.3,75.7L552.5,171.7C506.9,162,467.5,161,443.6,176.2z"/>
	</g>
	<g>
		<defs>
			<rect id="SVGID_59_" width="1130" height="800"/>
		</defs>
		<clipPath id="SVGID_60_">
			<use xlink:href="#SVGID_59_"  style="overflow:visible;"/>
		</clipPath>
		<path class="st30" d="M209,326.6L84.1,406.4c62.4-39.9,230.8,31.6,338.6,76.7c119.1,49.8,261.4,124.7,338,75.8l25-16L747,482.5
			c-63.9-18.1-135.1-52.3-199.5-79.3C439.7,358.1,271.4,286.6,209,326.6z"/>
	</g>
	<g>
		<defs>
			<rect id="SVGID_61_" width="1130" height="800"/>
		</defs>
		<clipPath id="SVGID_62_">
			<use xlink:href="#SVGID_61_"  style="overflow:visible;"/>
		</clipPath>
		<g class="st31">
			<path class="st2" d="M1033.8-201.2c-62.4,39.9-68.1,222.7-72.3,339.5c-4.7,129,3.6,289.6-72.9,338.6l-99.9,63.9l-2.6-4.1
				c52.5-63.9,46.4-203.7,50.6-318.5c4.2-116.8,9.9-299.6,72.3-339.5L1033.8-201.2z"/>
			<path class="st2" d="M1265.4-349.4c-62.4,39.9-68.1,222.7-72.3,339.5c-4.7,129,3.6,289.6-72.9,338.6l-124.9,79.9
				c76.5-49,68.2-209.6,72.9-338.6c4.2-116.8,9.9-299.6,72.3-339.5L1265.4-349.4z"/>
		</g>
	</g>
	<g>
		<defs>
			<rect id="SVGID_63_" width="1130" height="800"/>
		</defs>
		<clipPath id="SVGID_64_">
			<use xlink:href="#SVGID_63_"  style="overflow:visible;"/>
		</clipPath>
		<path class="st32" d="M779.6,520.9L674.2,356c-2.4-3.7-0.9-8.9,3.4-11.7l52.6-33.6c4.2-2.7,9.6-1.9,12,1.8l105.4,164.9
			c2.4,3.7,0.9,8.9-3.4,11.7l-52.6,33.6C787.4,525.4,782,524.6,779.6,520.9z"/>
	</g>
	<g>
		<defs>
			<rect id="SVGID_65_" width="1130" height="800"/>
		</defs>
		<clipPath id="SVGID_66_">
			<use xlink:href="#SVGID_65_"  style="overflow:visible;"/>
		</clipPath>
		<path class="st33" d="M855.8,243.7L809,170.6c-2.4-3.7-0.9-8.9,3.4-11.7l52.6-33.6c4.2-2.7,9.6-1.9,12,1.8l46.8,73.1
			c2.4,3.7,0.9,8.9-3.4,11.7l-52.6,33.6C863.6,248.3,858.2,247.4,855.8,243.7z"/>
	</g>
	<g>
		<defs>
			<rect id="SVGID_67_" width="1130" height="800"/>
		</defs>
		<clipPath id="SVGID_68_">
			<use xlink:href="#SVGID_67_"  style="overflow:visible;"/>
		</clipPath>
		<path class="st34" d="M853.3,239.8l-18.2-28.4c-1.8-2.8-0.7-6.7,2.5-8.7l56.4-36.1c3.2-2,7.2-1.4,9,1.4l18.2,28.4
			c1.8,2.8,0.7,6.7-2.5,8.7l-56.4,36.1C859.1,243.2,855.1,242.6,853.3,239.8z"/>
	</g>
	<g>
		<defs>
			<rect id="SVGID_69_" width="1130" height="800"/>
		</defs>
		<clipPath id="SVGID_70_">
			<use xlink:href="#SVGID_69_"  style="overflow:visible;"/>
		</clipPath>
		<path class="st35" d="M955.8,400L837.9,215.7c-2.4-3.7-0.9-8.9,3.4-11.7l52.6-33.6c4.2-2.7,9.6-1.9,12,1.8l117.9,184.3
			c2.4,3.7,0.9,8.9-3.4,11.7l-52.6,33.6C963.6,404.6,958.2,403.8,955.8,400z"/>
	</g>
	<g>
		<defs>
			<rect id="SVGID_71_" width="1130" height="800"/>
		</defs>
		<clipPath id="SVGID_72_">
			<use xlink:href="#SVGID_71_"  style="overflow:visible;"/>
		</clipPath>
		<path class="st36" d="M698.6,394.8L691,383c-1.8-2.8-0.7-6.7,2.5-8.7l56.4-36.1c3.2-2,7.2-1.4,9,1.4l7.5,11.8
			c1.8,2.8,0.7,6.7-2.5,8.7l-56.4,36.1C704.4,398.2,700.4,397.6,698.6,394.8z"/>
	</g>
	<g>
		<defs>
			<rect id="SVGID_73_" width="1130" height="800"/>
		</defs>
		<clipPath id="SVGID_74_">
			<use xlink:href="#SVGID_73_"  style="overflow:visible;"/>
		</clipPath>
		<path class="st37" d="M695.8,390.5l-67.3-105.1c-2.4-3.7-0.9-8.9,3.4-11.7l52.6-33.6c4.2-2.7,9.6-1.9,12,1.8L763.7,347
			c2.4,3.7,0.9,8.9-3.4,11.7l-52.6,33.6C703.5,395,698.2,394.2,695.8,390.5z"/>
	</g>
	<g>
		<defs>
			<rect id="SVGID_75_" width="1130" height="800"/>
		</defs>
		<clipPath id="SVGID_76_">
			<use xlink:href="#SVGID_75_"  style="overflow:visible;"/>
		</clipPath>
		<path class="st38" d="M730.2,238.7l-22.4-35c-2.4-3.7-0.9-8.9,3.4-11.7l52.6-33.6c4.2-2.7,9.6-1.9,12,1.8l22.4,35
			c2.4,3.7,0.9,8.9-3.4,11.7l-52.6,33.6C738,243.2,732.6,242.4,730.2,238.7z"/>
	</g>
	<g>
		<defs>
			<rect id="SVGID_77_" width="1130" height="800"/>
		</defs>
		<clipPath id="SVGID_78_">
			<use xlink:href="#SVGID_77_"  style="overflow:visible;"/>
		</clipPath>
		<path class="st39" d="M730.3,238.8l-11.6-18.2c-1.8-2.8-0.7-6.7,2.5-8.7l56.4-36.1c3.2-2,7.2-1.4,9,1.4l11.6,18.2
			c1.8,2.8,0.7,6.7-2.5,8.7l-56.4,36.1C736.1,242.2,732.1,241.6,730.3,238.8z"/>
	</g>
	<g>
		<defs>
			<rect id="SVGID_79_" width="1130" height="800"/>
		</defs>
		<clipPath id="SVGID_80_">
			<use xlink:href="#SVGID_79_"  style="overflow:visible;"/>
		</clipPath>
		<path class="st40" d="M823.4,384.2L722.5,226.4c-2.4-3.7-0.9-8.9,3.4-11.7l52.6-33.6c4.2-2.7,9.6-1.9,12,1.8l100.9,157.8
			c2.4,3.7,0.9,8.9-3.4,11.7L835.4,386C831.2,388.8,825.8,388,823.4,384.2z"/>
	</g>
	<g>
		<defs>
			<rect id="SVGID_81_" width="1130" height="800"/>
		</defs>
		<clipPath id="SVGID_82_">
			<use xlink:href="#SVGID_81_"  style="overflow:visible;"/>
		</clipPath>
		<path class="st41" d="M1132.7,274.5l-77.6-121.3c-2.4-3.7-0.9-8.9,3.4-11.7l52.6-33.6c4.2-2.7,9.6-1.9,12,1.8l77.6,121.3
			c2.4,3.7,0.9,8.9-3.4,11.7l-52.6,33.6C1140.5,279.1,1135.1,278.3,1132.7,274.5z"/>
	</g>
	<g>
		<defs>
			<rect id="SVGID_83_" width="1130" height="800"/>
		</defs>
		<clipPath id="SVGID_84_">
			<use xlink:href="#SVGID_83_"  style="overflow:visible;"/>
		</clipPath>
		<path class="st42" d="M1067.8,173.1l-21-32.8c-1.8-2.8-0.7-6.7,2.5-8.7l56.4-36.1c3.2-2,7.2-1.4,9,1.4l21,32.8
			c1.8,2.8,0.7,6.7-2.5,8.7l-56.4,36.1C1073.6,176.5,1069.6,175.9,1067.8,173.1z"/>
	</g>
	<g>
		<defs>
			<rect id="SVGID_85_" width="1130" height="800"/>
		</defs>
		<clipPath id="SVGID_86_">
			<use xlink:href="#SVGID_85_"  style="overflow:visible;"/>
		</clipPath>
		<path class="st43" d="M1063.5,166.3L913.9-67.6c-2.4-3.7-0.9-8.9,3.4-11.7l52.6-33.6c4.2-2.7,9.6-1.9,12,1.8l149.6,233.9
			c2.4,3.7,0.9,8.9-3.4,11.7l-52.6,33.6C1071.3,170.8,1065.9,170,1063.5,166.3z"/>
	</g>
	<g>
		<defs>
			<rect id="SVGID_87_" width="1130" height="800"/>
		</defs>
		<clipPath id="SVGID_88_">
			<use xlink:href="#SVGID_87_"  style="overflow:visible;"/>
		</clipPath>
		<path class="st44" d="M1177,142.7l-20-31.3c-2.4-3.7-0.9-8.9,3.4-11.7l52.6-33.6c4.2-2.7,9.6-1.9,12,1.8l20,31.3
			c2.4,3.7,0.9,8.9-3.4,11.7l-52.6,33.6C1184.7,147.2,1179.3,146.4,1177,142.7z"/>
	</g>
	<g>
		<defs>
			<rect id="SVGID_89_" width="1130" height="800"/>
		</defs>
		<clipPath id="SVGID_90_">
			<use xlink:href="#SVGID_89_"  style="overflow:visible;"/>
		</clipPath>
		<path class="st45" d="M1168.6,129.5l-26.4-41.2c-1.8-2.8-0.7-6.7,2.5-8.7l56.4-36.1c3.2-2,7.2-1.4,9,1.4l26.4,41.2
			c1.8,2.8,0.7,6.7-2.5,8.7l-56.4,36.1C1174.4,132.9,1170.3,132.3,1168.6,129.5z"/>
	</g>
	<g>
		<defs>
			<rect id="SVGID_91_" width="1130" height="800"/>
		</defs>
		<clipPath id="SVGID_92_">
			<use xlink:href="#SVGID_91_"  style="overflow:visible;"/>
		</clipPath>
		<path class="st46" d="M1165.8,125.2L992.9-145.2c-2.4-3.7-0.9-8.9,3.4-11.7l52.6-33.6c4.2-2.7,9.6-1.9,12,1.8l172.9,270.3
			c2.4,3.7,0.9,8.9-3.4,11.7l-52.6,33.6C1173.5,129.7,1168.2,128.9,1165.8,125.2z"/>
	</g>
	<g>
		<defs>
			<rect id="SVGID_93_" width="1130" height="800"/>
		</defs>
		<clipPath id="SVGID_94_">
			<use xlink:href="#SVGID_93_"  style="overflow:visible;"/>
		</clipPath>
		<path class="st47" d="M1224.6,19l-121.8-190.5c-2.4-3.7-0.9-8.9,3.4-11.7l52.6-33.6c4.2-2.7,9.6-1.9,12,1.8l121.8,190.5
			c2.4,3.7,0.9,8.9-3.4,11.7l-52.6,33.6C1232.3,23.5,1227,22.7,1224.6,19z"/>
	</g>
	<g>
		<defs>
			<rect id="SVGID_95_" width="1130" height="800"/>
		</defs>
		<clipPath id="SVGID_96_">
			<use xlink:href="#SVGID_95_"  style="overflow:visible;"/>
		</clipPath>
		<path class="st48" d="M967.6,217.4L887.3,91.9c-2.4-3.7-0.9-8.9,3.4-11.7l52.6-33.6c4.2-2.7,9.6-1.9,12,1.8l80.2,125.4
			c2.4,3.7,0.9,8.9-3.4,11.7l-52.6,33.6C975.3,221.9,969.9,221.1,967.6,217.4z"/>
	</g>
	<g>
		<defs>
			<rect id="SVGID_97_" width="1130" height="800"/>
		</defs>
		<clipPath id="SVGID_98_">
			<use xlink:href="#SVGID_97_"  style="overflow:visible;"/>
		</clipPath>
		<path class="st49" d="M980.7,238l-26.9-42c-1.8-2.8-0.7-6.7,2.5-8.7l56.4-36.1c3.2-2,7.2-1.4,9,1.4l26.9,42
			c1.8,2.8,0.7,6.7-2.5,8.7l-56.4,36.1C986.6,241.4,982.5,240.8,980.7,238z"/>
	</g>
	<g>
		<defs>
			<rect id="SVGID_99_" width="1130" height="800"/>
		</defs>
		<clipPath id="SVGID_100_">
			<use xlink:href="#SVGID_99_"  style="overflow:visible;"/>
		</clipPath>
		<path class="st50" d="M1051.9,349.2l-95.3-149c-2.4-3.7-0.9-8.9,3.4-11.7l52.6-33.6c4.2-2.7,9.6-1.9,12,1.8l95.3,149
			c2.4,3.7,0.9,8.9-3.4,11.7l-52.6,33.6C1059.7,353.8,1054.3,352.9,1051.9,349.2z"/>
	</g>
	<g>
		<defs>
			<rect id="SVGID_101_" width="1130" height="800"/>
		</defs>
		<clipPath id="SVGID_102_">
			<use xlink:href="#SVGID_101_"  style="overflow:visible;"/>
		</clipPath>
		<path class="st51" d="M1391.5-126.2l-14.1-22c-1.8-2.8-0.7-6.7,2.5-8.7l56.4-36.1c3.2-2,7.2-1.4,9,1.4l14.1,22
			c1.8,2.8,0.7,6.7-2.5,8.7l-56.4,36.1C1397.3-122.8,1393.3-123.4,1391.5-126.2z"/>
	</g>
	<g>
		<defs>
			<rect id="SVGID_103_" width="1130" height="800"/>
		</defs>
		<clipPath id="SVGID_104_">
			<use xlink:href="#SVGID_103_"  style="overflow:visible;"/>
		</clipPath>
		<path class="st52" d="M1388.7-130.5l-97.4-152.3c-2.4-3.7-0.9-8.9,3.4-11.7l52.6-33.6c4.2-2.7,9.6-1.9,12,1.8l97.4,152.3
			c2.4,3.7,0.9,8.9-3.4,11.7l-52.6,33.6C1396.5-126,1391.1-126.8,1388.7-130.5z"/>
	</g>
	<g>
		<defs>
			<rect id="SVGID_105_" width="1130" height="800"/>
		</defs>
		<clipPath id="SVGID_106_">
			<use xlink:href="#SVGID_105_"  style="overflow:visible;"/>
		</clipPath>
		<path class="st53" d="M1286.9-88.6L1172.8-267c-2.4-3.7-0.9-8.9,3.4-11.7l52.6-33.6c4.2-2.7,9.6-1.9,12,1.8l114.1,178.4
			c2.4,3.7,0.9,8.9-3.4,11.7l-52.6,33.6C1294.7-84.1,1289.3-84.9,1286.9-88.6z"/>
	</g>
	<g>
		<defs>
			<rect id="SVGID_107_" width="1130" height="800"/>
		</defs>
		<clipPath id="SVGID_108_">
			<use xlink:href="#SVGID_107_"  style="overflow:visible;"/>
		</clipPath>
		<path class="st54" d="M1284.5-92.4l-7.5-11.8c-1.8-2.8-0.7-6.7,2.5-8.7l56.4-36.1c3.2-2,7.2-1.4,9,1.4l7.5,11.8
			c1.8,2.8,0.7,6.7-2.5,8.7L1293.5-91C1290.3-88.9,1286.3-89.6,1284.5-92.4z"/>
	</g>
	<g>
		<defs>
			<rect id="SVGID_109_" width="1130" height="800"/>
		</defs>
		<clipPath id="SVGID_110_">
			<use xlink:href="#SVGID_109_"  style="overflow:visible;"/>
		</clipPath>
		<path class="st55" d="M1360.3,26.1l-80.8-126.3c-2.4-3.7-0.9-8.9,3.4-11.7l52.6-33.6c4.2-2.7,9.6-1.9,12,1.8l80.8,126.3
			c2.4,3.7,0.9,8.9-3.4,11.7L1372.3,28C1368.1,30.7,1362.7,29.8,1360.3,26.1z"/>
	</g>
	<g>
		<defs>
			<rect id="SVGID_111_" width="1130" height="800"/>
		</defs>
		<clipPath id="SVGID_112_">
			<use xlink:href="#SVGID_111_"  style="overflow:visible;"/>
		</clipPath>
		<path class="st56" d="M995.3,408.6l124.9-79.9c-76.5,49-218.9-25.9-338-75.8c-66.5-27.8-156.1-65.7-229.6-81.3L655,331.9
			c0.8,0.3,1.5,0.6,2.3,1C776.4,382.6,918.7,457.6,995.3,408.6z"/>
	</g>
	<g>
		<defs>
			<rect id="SVGID_113_" width="1130" height="800"/>
		</defs>
		<clipPath id="SVGID_114_">
			<use xlink:href="#SVGID_113_"  style="overflow:visible;"/>
		</clipPath>
		<path class="st57" d="M747,482.4l38.6,60.4l99.9-63.9C850.4,501.4,801.3,497.7,747,482.4z"/>
	</g>
	<g>
		<defs>
			<rect id="SVGID_115_" width="1130" height="800"/>
		</defs>
		<clipPath id="SVGID_116_">
			<use xlink:href="#SVGID_115_"  style="overflow:visible;"/>
		</clipPath>
		<path class="st58" d="M1033.8-201.2l-124.9,79.9c62.4-39.9,230.8,31.6,338.6,76.7c119.1,49.8,261.4,124.7,338,75.8l25-16
			l-38.6-60.4c-63.9-18.1-135.1-52.3-199.5-79.3C1264.5-169.7,1096.2-241.2,1033.8-201.2z"/>
	</g>
	<g>
		<defs>
			<rect id="SVGID_117_" width="1130" height="800"/>
		</defs>
		<clipPath id="SVGID_118_">
			<use xlink:href="#SVGID_117_"  style="overflow:visible;"/>
		</clipPath>
		<rect x="24.7" y="20.7" class="st59" width="1075.3" height="761.3"/>
	</g>
</g>
</svg>
