<?xml version="1.0" encoding="utf-8"?>
<!-- Generator: Adobe Illustrator 22.0.0, SVG Export Plug-In . SVG Version: 6.00 Build 0)  -->
<svg version="1.1" id="Layer_1" xmlns="http://www.w3.org/2000/svg" xmlns:xlink="http://www.w3.org/1999/xlink" x="0px" y="0px"
	 viewBox="0 0 158.8 123.9" style="enable-background:new 0 0 158.8 123.9;" xml:space="preserve">
<style type="text/css">
	.st0{opacity:0.5;fill:#CECECE;}
	.st1{fill:#B51818;}
	.st2{fill:none;stroke:#E8E8E8;stroke-width:3;stroke-miterlimit:10;}
	.st3{fill:#B66CBC;}
	.st4{fill:#9D66A3;}
	.st5{fill:#52DB52;}
	.st6{fill:#54BA54;}
	.st7{fill:#58B8ED;}
	.st8{fill:#529FC1;}
	.st9{fill:#EAE359;}
	.st10{fill:#D3CA5E;}
	.st11{fill:#CECECE;}
</style>
<g>
	<g>
		<rect x="117.4" y="11.8" class="st0" width="18" height="29"/>
		<path class="st1" d="M118.5,38.2c0.6-0.7,1.6-1.8,3-2c2.6-0.5,4.1,2.2,7.2,2.5c1.2,0.1,3.1-0.1,5.6-2c0.1,26,0.2,52.1,0.3,78.1
			c-0.2,0.6-0.9,3.3-3.6,5.1c-0.5,0.3-3,1.9-6.1,1.3c-3.3-0.6-6-3.6-6.8-7.5C118.3,88.5,118.4,63.3,118.5,38.2z"/>
		<path class="st2" d="M127.2,121.9h-1.5c-4.5,0-8.2-3.7-8.2-8.2V13.9h18v99.8C135.4,118.2,131.7,121.9,127.2,121.9z"/>
		<path class="st3" d="M139,16.9h-24.8v-5.6c0-6.3,5.1-11.3,11.3-11.3l2.1,0c6.3,0,11.3,5.1,11.3,11.3V16.9z"/>
		<path class="st4" d="M117.2,5.3H117c-0.5,0-1,0.4-1,1v10.6h2.2V6.3C118.1,5.8,117.7,5.3,117.2,5.3z"/>
		<path class="st4" d="M122.1,5.3h-0.2c-0.5,0-1,0.4-1,1v10.6h2.2V6.3C123.1,5.8,122.7,5.3,122.1,5.3z"/>
		<path class="st4" d="M127.1,5.3h-0.2c-0.5,0-1,0.4-1,1v10.6h2.2V6.3C128,5.7,127.6,5.3,127.1,5.3z"/>
		<path class="st4" d="M131.7,5.3h-0.2c-0.5,0-1,0.4-1,1v10.6h2.2V6.3C132.7,5.7,132.2,5.3,131.7,5.3z"/>
		<path class="st4" d="M136.4,5.3h-0.2c-0.5,0-1,0.4-1,1v10.6h2.2V6.3C137.4,5.7,137,5.3,136.4,5.3z"/>
	</g>
	<g>
		<rect x="86.7" y="12.2" class="st0" width="18" height="29"/>
		<path class="st1" d="M87.8,38.6c0.6-0.7,1.6-1.8,3-2c2.6-0.5,4.1,2.2,7.2,2.5c1.2,0.1,3.1-0.1,5.6-2c0.1,26,0.2,52.1,0.3,78.1
			c-0.2,0.6-0.9,3.3-3.6,5.1c-0.5,0.3-3,1.9-6.1,1.3c-3.3-0.6-6-3.6-6.8-7.5C87.6,88.9,87.7,63.8,87.8,38.6z"/>
		<path class="st2" d="M96.5,122.4H95c-4.5,0-8.2-3.7-8.2-8.2V14.3h18v99.8C104.7,118.7,101,122.4,96.5,122.4z"/>
		<path class="st5" d="M108.3,17.4H83.5v-5.6c0-6.3,5.1-11.3,11.3-11.3H97c6.3,0,11.3,5.1,11.3,11.3V17.4z"/>
		<path class="st6" d="M86.5,5.8h-0.2c-0.5,0-1,0.4-1,1v10.6h2.2V6.8C87.4,6.2,87,5.8,86.5,5.8z"/>
		<path class="st6" d="M91.4,5.8h-0.2c-0.5,0-1,0.4-1,1v10.6h2.2V6.8C92.4,6.2,91.9,5.8,91.4,5.8z"/>
		<path class="st6" d="M96.4,5.7h-0.2c-0.5,0-1,0.4-1,1v10.6h2.2V6.7C97.3,6.2,96.9,5.7,96.4,5.7z"/>
		<path class="st6" d="M101,5.7h-0.2c-0.5,0-1,0.4-1,1v10.6h2.2V6.7C102,6.2,101.5,5.7,101,5.7z"/>
		<path class="st6" d="M105.7,5.7h-0.2c-0.5,0-1,0.4-1,1v10.6h2.2V6.7C106.7,6.2,106.3,5.7,105.7,5.7z"/>
	</g>
	<g>
		<rect x="54.3" y="12.2" class="st0" width="18" height="29"/>
		<path class="st1" d="M55.4,38.6c0.6-0.7,1.6-1.8,3-2c2.6-0.5,4.1,2.2,7.2,2.5c1.2,0.1,3.1-0.1,5.6-2c0.1,26,0.2,52.1,0.3,78.1
			c-0.2,0.6-0.9,3.3-3.6,5.1c-0.5,0.3-3,1.9-6.1,1.3c-3.3-0.6-6-3.6-6.8-7.5C55.1,88.9,55.2,63.8,55.4,38.6z"/>
		<path class="st2" d="M64,122.4h-1.5c-4.5,0-8.2-3.7-8.2-8.2V14.3h18v99.8C72.3,118.7,68.6,122.4,64,122.4z"/>
		<path class="st7" d="M75.8,17.4H51.1v-5.6c0-6.3,5.1-11.3,11.3-11.3h2.1c6.3,0,11.3,5.1,11.3,11.3V17.4z"/>
		<path class="st8" d="M54,5.8h-0.2c-0.5,0-1,0.4-1,1v10.6H55V6.8C55,6.2,54.6,5.8,54,5.8z"/>
		<path class="st8" d="M59,5.8h-0.2c-0.5,0-1,0.4-1,1v10.6H60V6.8C60,6.2,59.5,5.8,59,5.8z"/>
		<path class="st8" d="M63.9,5.7h-0.2c-0.5,0-1,0.4-1,1v10.6h2.2V6.7C64.9,6.2,64.5,5.7,63.9,5.7z"/>
		<path class="st8" d="M68.6,5.7h-0.2c-0.5,0-1,0.4-1,1v10.6h2.2V6.7C69.6,6.2,69.1,5.7,68.6,5.7z"/>
		<path class="st8" d="M73.3,5.7h-0.2c-0.5,0-1,0.4-1,1v10.6h2.2V6.7C74.3,6.2,73.9,5.7,73.3,5.7z"/>
	</g>
	<g>
		<rect x="21.5" y="12.2" class="st0" width="18" height="29"/>
		<path class="st1" d="M22.5,38.6c0.6-0.7,1.6-1.8,3-2c2.6-0.5,4.1,2.2,7.2,2.5c1.2,0.1,3.1-0.1,5.6-2c0.1,26,0.2,52.1,0.3,78.1
			c-0.2,0.6-0.9,3.3-3.6,5.1c-0.5,0.3-3,1.9-6.1,1.3c-3.3-0.6-6-3.6-6.8-7.5C22.3,88.9,22.4,63.8,22.5,38.6z"/>
		<path class="st2" d="M31.2,122.4h-1.5c-4.5,0-8.2-3.7-8.2-8.2V14.3h18v99.8C39.4,118.7,35.8,122.4,31.2,122.4z"/>
		<path class="st9" d="M43,17.4H18.3v-5.6c0-6.3,5.1-11.3,11.3-11.3h2.1C38,0.4,43,5.5,43,11.8V17.4z"/>
		<path class="st10" d="M21.2,5.8H21c-0.5,0-1,0.4-1,1v10.6h2.2V6.8C22.2,6.2,21.7,5.8,21.2,5.8z"/>
		<path class="st10" d="M26.2,5.8H26c-0.5,0-1,0.4-1,1l0,10.6h2.2V6.8C27.1,6.2,26.7,5.8,26.2,5.8z"/>
		<path class="st10" d="M31.1,5.7h-0.2c-0.5,0-1,0.4-1,1v10.6h2.2V6.7C32.1,6.2,31.6,5.7,31.1,5.7z"/>
		<path class="st10" d="M35.8,5.7h-0.2c-0.5,0-1,0.4-1,1v10.6h2.2V6.7C36.7,6.2,36.3,5.7,35.8,5.7z"/>
		<path class="st10" d="M40.5,5.7h-0.2c-0.5,0-1,0.4-1,1v10.6h2.2V6.7C41.5,6.2,41,5.7,40.5,5.7z"/>
	</g>
	<g>
		<path class="st11" d="M158.8,29.5H0l0-0.6c0-3.7,3-6.7,6.7-6.7h145.5c3.7,0,6.7,3,6.7,6.7V29.5z"/>
		<rect x="8.7" y="26.6" class="st11" width="2.6" height="95.3"/>
		<rect x="146.7" y="26.6" class="st11" width="2.6" height="95.3"/>
		<rect x="11.3" y="98.7" class="st11" width="135.4" height="4.5"/>
	</g>
</g>
</svg>
