<?xml version="1.0" encoding="utf-8"?>
<!-- Generator: Adobe Illustrator 22.0.0, SVG Export Plug-In . SVG Version: 6.00 Build 0)  -->
<svg version="1.1" id="Layer_1" xmlns="http://www.w3.org/2000/svg" xmlns:xlink="http://www.w3.org/1999/xlink" x="0px" y="0px"
	 viewBox="0 0 272.6 209.9" style="enable-background:new 0 0 272.6 209.9;" xml:space="preserve">
<style type="text/css">
	.st0{fill:#BC97C1;}
	.st1{fill:#D4ABD8;}
	.st2{fill:none;stroke:#D17CE0;stroke-width:5;stroke-linecap:round;stroke-miterlimit:10;}
</style>
<path class="st0" d="M181.2,209.9h-8.3c-4.8,0-8.7-3.9-8.7-8.7v-61.1c0-4.8,3.9-8.7,8.7-8.7h8.3c4.8,0,8.7,3.9,8.7,8.7v61.1
	C189.9,206,186,209.9,181.2,209.9z"/>
<ellipse transform="matrix(1.559265e-03 -1 1 1.559265e-03 47.6067 331.7356)" class="st0" cx="189.9" cy="142" rx="40.1" ry="70.2"/>
<path class="st1" d="M20.7,134.8C6.4,123.5-0.8,103.5,0.1,87.5C3,34.7,94.6,9.5,100.6,7.9c11.3-3,104.1-27.4,149.2,28.3
	c18.3,22.7,32.4,63,14.6,94.6c-9.8,17.4-31.9,24.2-75.4,38.3c-35.3,11.4-50.6,9.9-62,5.8c-12.7-4.6-11.6-9.2-26.6-17.8
	C65.6,136.9,42.5,152.1,20.7,134.8z"/>
<path class="st2" d="M38.9,106.2c0.5,8,5.6,15,13,18c7.5,3,16.1,1.5,22-4c5.8,5.1,10.6,6.3,14,6.5c9.3,0.5,13.8-6.3,25-7.5
	c6.2-0.7,11.5,0.7,15,2"/>
<path class="st2" d="M149.9,152.2c6,2.8,14.8,5.7,23,2.5c8.9-3.5,8.2-10.8,17-14.5c10.2-4.4,16.6,3.1,32,1c8-1.1,14.2-4.2,18-6.5"/>
<path class="st2" d="M21.4,69.2c-0.3,1.4-1.5,8.6,3,14.5c4.8,6.3,14.3,8.6,23,5c0.8,1.2,6.9,11.1,19,12.5c8.3,0.9,14.6-2.8,16.5-4"
	/>
<path class="st2" d="M239.4,62.2c8.7,6,12.8,15.2,10.5,22.5c-0.5,1.6-1.8,4.6-5.5,7.5c4.5,5,4.4,8,4,9.5c-1.8,6.8-16.9,9.1-22.5,10
	c-8.8,1.4-13.2,0.4-17,4c-3,2.9-3.8,7.1-4,10"/>
<path class="st2" d="M62.9,60.7c-1.9-6.5,0-13.5,5-18c4.8-4.4,11.8-5.8,18-3.5c0.3-0.6,5.9-13.5,18.5-15c5.7-0.7,10.3,1.3,12.5,2.5
	c2.9-1.6,9.6-4.7,18.5-4c13.3,1.1,21.3,10.1,23,12"/>
<path class="st2" d="M195.9,31.2c1.7,1.5,9.7,8.8,9.5,19.5c-0.1,3-0.7,5.5-1.5,7.5c4.6,4.6,5.3,8.1,5,10.5c-0.7,6.2-8.3,7.9-11,15.5
	c-1.6,4.6-0.6,9.2,0.5,12.5"/>
<path class="st2" d="M103.9,74.7c3.3-9,7-12.5,10.5-13c5.1-0.8,7.1,4.9,14,5.5c7.9,0.6,9.5-6.4,18.5-7c7.9-0.5,10.1,4.8,19,5.5
	c7.4,0.6,13.7-2.3,18-5"/>
<path class="st2" d="M136.4,91.7c-1.8,5-0.6,10.4,3,14c4.6,4.6,10.9,3.6,11.5,3.5c0.6,1.7,3.2,8,10,11.5c10.2,5.2,20.3-0.6,21-1"/>
</svg>
