<?xml version="1.0" encoding="utf-8"?>
<!-- Generator: Adobe Illustrator 23.0.1, SVG Export Plug-In . SVG Version: 6.00 Build 0)  -->
<svg version="1.1" xmlns="http://www.w3.org/2000/svg" xmlns:xlink="http://www.w3.org/1999/xlink" x="0px" y="0px"
	 viewBox="0 0 448.7 377.7" style="enable-background:new 0 0 448.7 377.7;" xml:space="preserve">
<style type="text/css">
	.st0{display:none;}
	.st1{display:inline;fill:#99DDC1;}
	.st2{display:inline;}
	.st3{fill:#69AF98;}
	.st4{display:inline;fill:#72B774;}
	.st5{display:inline;fill:#7FCCBF;}
	.st6{display:inline;fill:#71AFA3;}
	.st7{display:inline;fill:#92C174;}
	.st8{display:inline;fill:#69AF69;}
	.st9{display:inline;fill:#76D39C;}
	.st10{display:inline;fill:#4BAF6A;}
	.st11{display:inline;fill:#88B56B;}
	.st12{display:inline;fill:#78C1A3;}
	.st13{display:inline;fill:#54917B;}
	.st14{fill:#FFFFFF;}
	.st15{display:inline;fill:none;stroke:#F4D090;stroke-width:15;stroke-miterlimit:10;}
	.st16{fill:#F4D090;}
	.st17{fill:#FFFFFF;stroke:#FFFFFF;stroke-width:2;stroke-miterlimit:10;}
</style>
<g id="Layer_1" class="st0">
	<rect x="-249.8" y="-71.2" class="st1" width="1130" height="800"/>
</g>
<g id="Layer_16" class="st0">
	<g class="st2">
		<path class="st3" d="M-37.8,253.2c-62.4,39.9-68.1,222.7-72.3,339.5c-4.7,129,3.6,289.6-72.9,338.6l-99.9,63.9l-2.6-4.1
			c52.5-63.9,46.4-203.7,50.6-318.5c4.2-116.8,9.9-299.6,72.3-339.5L-37.8,253.2z"/>
		<path class="st3" d="M193.9,105.1c-62.4,39.9-68.1,222.7-72.3,339.5c-4.7,129,3.6,289.6-72.9,338.6l-124.9,79.9
			c76.5-49,68.2-209.6,72.9-338.6C0.9,407.7,6.5,224.9,69,185L193.9,105.1z"/>
	</g>
	<path class="st4" d="M-289,974.3l-105.4-164.9c-2.4-3.7-0.9-8.9,3.4-11.7l52.6-33.6c4.2-2.7,9.6-1.9,12,1.8L-221,930.9
		c2.4,3.7,0.9,8.9-3.4,11.7l-52.6,33.6C-281.2,978.9-286.6,978.1-289,974.3z"/>
	<path class="st5" d="M-215.7,698.2l-46.8-73.1c-2.4-3.7-0.9-8.9,3.4-11.7l52.6-33.6c4.2-2.7,9.6-1.9,12,1.8l46.8,73.1
		c2.4,3.7,0.9,8.9-3.4,11.7l-52.6,33.6C-208,702.7-213.4,701.9-215.7,698.2z"/>
	<path class="st6" d="M-218.3,694.3l-18.2-28.4c-1.8-2.8-0.7-6.7,2.5-8.7l56.4-36.1c3.2-2,7.2-1.4,9,1.4l18.2,28.4
		c1.8,2.8,0.7,6.7-2.5,8.7l-56.4,36.1C-212.4,697.7-216.5,697.1-218.3,694.3z"/>
	<path class="st7" d="M-115.8,854.5l-117.9-184.3c-2.4-3.7-0.9-8.9,3.4-11.7l52.6-33.6c4.2-2.7,9.6-1.9,12,1.8l117.9,184.3
		c2.4,3.7,0.9,8.9-3.4,11.7l-52.6,33.6C-108,859.1-113.4,858.2-115.8,854.5z"/>
	<path class="st8" d="M-375,851.3l-7.5-11.8c-1.8-2.8-0.7-6.7,2.5-8.7l56.4-36.1c3.2-2,7.2-1.4,9,1.4l7.5,11.8
		c1.8,2.8,0.7,6.7-2.5,8.7l-56.4,36.1C-369.2,854.7-373.2,854.1-375,851.3z"/>
	<path class="st9" d="M-377.8,847L-445,741.8c-2.4-3.7-0.9-8.9,3.4-11.7l52.6-33.6c4.2-2.7,9.6-1.9,12,1.8l67.3,105.1
		c2.4,3.7,0.9,8.9-3.4,11.7l-52.6,33.6C-370,851.5-375.4,850.7-377.8,847z"/>
	<path class="st9" d="M-344.4,698.1l-22.4-35c-2.4-3.7-0.9-8.9,3.4-11.7l52.6-33.6c4.2-2.7,9.6-1.9,12,1.8l22.4,35
		c2.4,3.7,0.9,8.9-3.4,11.7l-52.6,33.6C-336.6,702.7-342,701.9-344.4,698.1z"/>
	<path class="st10" d="M-344.3,698.2l-11.6-18.2c-1.8-2.8-0.7-6.7,2.5-8.7l56.4-36.1c3.2-2,7.2-1.4,9,1.4l11.6,18.2
		c1.8,2.8,0.7,6.7-2.5,8.7l-56.4,36.1C-338.5,701.6-342.5,701-344.3,698.2z"/>
	<path class="st4" d="M-247.7,837.7l-100.9-157.8c-2.4-3.7-0.9-8.9,3.4-11.7l52.6-33.6c4.2-2.7,9.6-1.9,12,1.8l100.9,157.8
		c2.4,3.7,0.9,8.9-3.4,11.7l-52.6,33.6C-240,842.3-245.4,841.4-247.7,837.7z"/>
	<path class="st9" d="M64.2,727l-77.6-121.3c-2.4-3.7-0.9-8.9,3.4-11.7l52.6-33.6c4.2-2.7,9.6-1.9,12,1.8l77.6,121.3
		c2.4,3.7,0.9,8.9-3.4,11.7l-52.6,33.6C71.9,731.6,66.5,730.7,64.2,727z"/>
	<path class="st10" d="M-0.8,625.5l-21-32.8c-1.8-2.8-0.7-6.7,2.5-8.7l56.4-36.1c3.2-2,7.2-1.4,9,1.4l21,32.8
		c1.8,2.8,0.7,6.7-2.5,8.7L8.2,626.9C5.1,628.9,1,628.3-0.8,625.5z"/>
	<path class="st4" d="M-4,620.7l-149.6-233.9c-2.4-3.7-0.9-8.9,3.4-11.7l52.6-33.6c4.2-2.7,9.6-1.9,12,1.8L63.9,577.3
		c2.4,3.7,0.9,8.9-3.4,11.7L8,622.6C3.7,625.3-1.7,624.5-4,620.7z"/>
	<path class="st5" d="M105.4,597.1l-20-31.3c-2.4-3.7-0.9-8.9,3.4-11.7l52.6-33.6c4.2-2.7,9.6-1.9,12,1.8l20,31.3
		c2.4,3.7,0.9,8.9-3.4,11.7L117.4,599C113.1,601.7,107.8,600.9,105.4,597.1z"/>
	<path class="st6" d="M97,584l-26.4-41.2c-1.8-2.8-0.7-6.7,2.5-8.7l56.4-36.1c3.2-2,7.2-1.4,9,1.4l26.4,41.2
		c1.8,2.8,0.7,6.7-2.5,8.7L106,585.4C102.8,587.4,98.8,586.8,97,584z"/>
	<path class="st7" d="M94.2,579.7L-78.7,309.3c-2.4-3.7-0.9-8.9,3.4-11.7l52.6-33.6c4.2-2.7,9.6-1.9,12,1.8l172.9,270.3
		c2.4,3.7,0.9,8.9-3.4,11.7l-52.6,33.6C102,584.2,96.6,583.4,94.2,579.7z"/>
	<path class="st9" d="M153,473.5L31.2,283c-2.4-3.7-0.9-8.9,3.4-11.7l52.6-33.6c4.2-2.7,9.6-1.9,12,1.8L221,430
		c2.4,3.7,0.9,8.9-3.4,11.7L165,475.3C160.8,478,155.4,477.2,153,473.5z"/>
	<path class="st5" d="M-104,671.9l-80.2-125.4c-2.4-3.7-0.9-8.9,3.4-11.7l52.6-33.6c4.2-2.7,9.6-1.9,12,1.8l80.2,125.4
		c2.4,3.7,0.9,8.9-3.4,11.7L-92,673.7C-96.3,676.4-101.6,675.6-104,671.9z"/>
	<path class="st6" d="M-90.8,692.5l-26.9-42c-1.8-2.8-0.7-6.7,2.5-8.7l56.4-36.1c3.2-2,7.2-1.4,9,1.4l26.9,42
		c1.8,2.8,0.7,6.7-2.5,8.7l-56.4,36.1C-85,695.9-89,695.3-90.8,692.5z"/>
	<path class="st7" d="M-19.7,803.7l-95.3-149c-2.4-3.7-0.9-8.9,3.4-11.7l52.6-33.6c4.2-2.7,9.6-1.9,12,1.8l95.3,149
		c2.4,3.7,0.9,8.9-3.4,11.7l-52.6,33.6C-11.9,808.2-17.3,807.4-19.7,803.7z"/>
	<path class="st7" d="M411.1,470.8L308.6,310.6c-2.4-3.7-0.9-8.9,3.4-11.7l52.6-33.6c4.2-2.7,9.6-1.9,12,1.8L479,427.4
		c2.4,3.7,0.9,8.9-3.4,11.7l-52.6,33.6C418.8,475.3,413.4,474.5,411.1,470.8z"/>
	<path class="st11" d="M319.9,328.3l-14.1-22c-1.8-2.8-0.7-6.7,2.5-8.7l56.4-36.1c3.2-2,7.2-1.4,9,1.4l14.1,22
		c1.8,2.8,0.7,6.7-2.5,8.7l-56.4,36.1C325.7,331.7,321.7,331.1,319.9,328.3z"/>
	<path class="st5" d="M317.1,324l-97.4-152.3c-2.4-3.7-0.9-8.9,3.4-11.7l52.6-33.6c4.2-2.7,9.6-1.9,12,1.8l97.4,152.3
		c2.4,3.7,0.9,8.9-3.4,11.7l-52.6,33.6C324.9,328.5,319.5,327.7,317.1,324z"/>
	<path class="st4" d="M217.8,362.4L103.7,184c-2.4-3.7-0.9-8.9,3.4-11.7l52.6-33.6c4.2-2.7,9.6-1.9,12,1.8l114.1,178.4
		c2.4,3.7,0.9,8.9-3.4,11.7l-52.6,33.6C225.6,366.9,220.2,366.1,217.8,362.4z"/>
	<path class="st8" d="M216,359.1l-7.5-11.8c-1.8-2.8-0.7-6.7,2.5-8.7l56.4-36.1c3.2-2,7.2-1.4,9,1.4l7.5,11.8
		c1.8,2.8,0.7,6.7-2.5,8.7L225,360.5C221.8,362.5,217.7,361.9,216,359.1z"/>
	<path class="st9" d="M291.7,477.6l-80.8-126.3c-2.4-3.7-0.9-8.9,3.4-11.7l52.6-33.6c4.2-2.7,9.6-1.9,12,1.8l80.8,126.3
		c2.4,3.7,0.9,8.9-3.4,11.7l-52.6,33.6C299.5,482.1,294.1,481.3,291.7,477.6z"/>
	<path class="st12" d="M-76.3,863.1l124.9-79.9c-76.5,49-218.9-25.9-338-75.8c-66.5-27.8-156.1-65.7-229.6-81.3l102.5,160.2
		c0.8,0.3,1.5,0.6,2.3,1C-295.2,837.1-152.8,912-76.3,863.1z"/>
	<path class="st13" d="M-321.6,934.8l38.6,60.4l99.9-63.9C-218.2,953.8-267.3,950.2-321.6,934.8z"/>
	<path class="st12" d="M193.9,105.1L69,184.9c62-39.7,228.4,30.6,336.3,75.7L302.8,100.5C257.2,90.8,217.8,89.8,193.9,105.1z"/>
	<path class="st12" d="M-38.8,255.4l-124.9,79.9c62.4-39.9,230.8,31.6,338.6,76.7c119.1,49.8,261.4,124.7,338,75.8l25-16l-38.6-60.4
		c-63.9-18.1-135.1-52.3-199.5-79.3C192,287,23.7,215.5-38.8,255.4z"/>
	<g class="st2">
		<path class="st3" d="M784-272.4c-62.4,39.9-68.1,222.7-72.3,339.5c-4.7,129,3.6,289.6-72.9,338.6l-99.9,63.9l-2.6-4.1
			c52.5-63.9,46.4-203.7,50.6-318.5c4.2-116.8,9.9-299.6,72.3-339.5L784-272.4z"/>
		<path class="st3" d="M1015.7-420.6c-62.4,39.9-68.1,222.7-72.3,339.5c-4.7,129,3.6,289.6-72.9,338.6l-124.9,79.9
			c76.5-49,68.2-209.6,72.9-338.6c4.2-116.8,9.9-299.6,72.3-339.5L1015.7-420.6z"/>
	</g>
	<path class="st4" d="M529.9,449.7L424.4,284.8c-2.4-3.7-0.9-8.9,3.4-11.7l52.6-33.6c4.2-2.7,9.6-1.9,12,1.8l105.4,164.9
		c2.4,3.7,0.9,8.9-3.4,11.7l-52.6,33.6C537.6,454.2,532.2,453.4,529.9,449.7z"/>
	<path class="st5" d="M606.1,172.5l-46.8-73.1c-2.4-3.7-0.9-8.9,3.4-11.7l52.6-33.6c4.2-2.7,9.6-1.9,12,1.8l46.8,73.1
		c2.4,3.7,0.9,8.9-3.4,11.7l-52.6,33.6C613.8,177.1,608.5,176.3,606.1,172.5z"/>
	<path class="st6" d="M603.6,168.6l-18.2-28.4c-1.8-2.8-0.7-6.7,2.5-8.7l56.4-36.1c3.2-2,7.2-1.4,9,1.4l18.2,28.4
		c1.8,2.8,0.7,6.7-2.5,8.7L612.6,170C609.4,172,605.4,171.4,603.6,168.6z"/>
	<path class="st7" d="M706.1,328.9L588.2,144.6c-2.4-3.7-0.9-8.9,3.4-11.7l52.6-33.6c4.2-2.7,9.6-1.9,12,1.8L774,285.4
		c2.4,3.7,0.9,8.9-3.4,11.7L718,330.7C713.8,333.4,708.4,332.6,706.1,328.9z"/>
	<path class="st8" d="M448.8,323.6l-7.5-11.8c-1.8-2.8-0.7-6.7,2.5-8.7l56.4-36.1c3.2-2,7.2-1.4,9,1.4l7.5,11.8
		c1.8,2.8,0.7,6.7-2.5,8.7L457.8,325C454.6,327,450.6,326.4,448.8,323.6z"/>
	<path class="st9" d="M446,319.3l-67.3-105.1c-2.4-3.7-0.9-8.9,3.4-11.7l52.6-33.6c4.2-2.7,9.6-1.9,12,1.8L514,275.9
		c2.4,3.7,0.9,8.9-3.4,11.7L458,321.1C453.8,323.8,448.4,323,446,319.3z"/>
	<path class="st9" d="M480.5,167.5l-22.4-35c-2.4-3.7-0.9-8.9,3.4-11.7L514,87.2c4.2-2.7,9.6-1.9,12,1.8l22.4,35
		c2.4,3.7,0.9,8.9-3.4,11.7l-52.6,33.6C488.2,172,482.8,171.2,480.5,167.5z"/>
	<path class="st10" d="M480.5,167.6l-11.6-18.2c-1.8-2.8-0.7-6.7,2.5-8.7l56.4-36.1c3.2-2,7.2-1.4,9,1.4l11.6,18.2
		c1.8,2.8,0.7,6.7-2.5,8.7L489.5,169C486.3,171,482.3,170.4,480.5,167.6z"/>
	<path class="st4" d="M573.7,313.1L472.7,155.3c-2.4-3.7-0.9-8.9,3.4-11.7l52.6-33.6c4.2-2.7,9.6-1.9,12,1.8l100.9,157.8
		c2.4,3.7,0.9,8.9-3.4,11.7l-52.6,33.6C581.4,317.6,576.1,316.8,573.7,313.1z"/>
	<path class="st9" d="M883,203.4L805.4,82.1c-2.4-3.7-0.9-8.9,3.4-11.7l52.6-33.6c4.2-2.7,9.6-1.9,12,1.8l77.6,121.3
		c2.4,3.7,0.9,8.9-3.4,11.7L895,205.2C890.7,207.9,885.4,207.1,883,203.4z"/>
	<path class="st10" d="M818.1,101.9l-21-32.8c-1.8-2.8-0.7-6.7,2.5-8.7L856,24.2c3.2-2,7.2-1.4,9,1.4l21,32.8
		c1.8,2.8,0.7,6.7-2.5,8.7l-56.4,36.1C823.9,105.3,819.8,104.7,818.1,101.9z"/>
	<path class="st4" d="M813.8,95.1L664.2-138.8c-2.4-3.7-0.9-8.9,3.4-11.7l52.6-33.6c4.2-2.7,9.6-1.9,12,1.8L881.7,51.6
		c2.4,3.7,0.9,8.9-3.4,11.7l-52.6,33.6C821.5,99.6,816.2,98.8,813.8,95.1z"/>
	<path class="st5" d="M927.2,71.5l-20-31.3c-2.4-3.7-0.9-8.9,3.4-11.7l52.6-33.6c4.2-2.7,9.6-1.9,12,1.8l20,31.3
		c2.4,3.7,0.9,8.9-3.4,11.7l-52.6,33.6C935,76,929.6,75.2,927.2,71.5z"/>
	<path class="st6" d="M918.8,58.4l-26.4-41.2c-1.8-2.8-0.7-6.7,2.5-8.7l56.4-36.1c3.2-2,7.2-1.4,9,1.4l26.4,41.2
		c1.8,2.8,0.7,6.7-2.5,8.7l-56.4,36.1C924.6,61.8,920.6,61.1,918.8,58.4z"/>
	<path class="st7" d="M916,54L743.1-216.3c-2.4-3.7-0.9-8.9,3.4-11.7l52.6-33.6c4.2-2.7,9.6-1.9,12,1.8L984,10.6
		c2.4,3.7,0.9,8.9-3.4,11.7L928,55.8C923.8,58.6,918.4,57.7,916,54z"/>
	<path class="st9" d="M974.8-52.2L853-242.6c-2.4-3.7-0.9-8.9,3.4-11.7l52.6-33.6c4.2-2.7,9.6-1.9,12,1.8l121.8,190.5
		c2.4,3.7,0.9,8.9-3.4,11.7l-52.6,33.6C982.6-47.6,977.2-48.5,974.8-52.2z"/>
	<path class="st5" d="M717.8,146.2L637.6,20.8c-2.4-3.7-0.9-8.9,3.4-11.7l52.6-33.6c4.2-2.7,9.6-1.9,12,1.8l80.2,125.4
		c2.4,3.7,0.9,8.9-3.4,11.7L729.8,148C725.6,150.7,720.2,149.9,717.8,146.2z"/>
	<path class="st6" d="M731,166.8l-26.9-42c-1.8-2.8-0.7-6.7,2.5-8.7L763,79.9c3.2-2,7.2-1.4,9,1.4l26.9,42c1.8,2.8,0.7,6.7-2.5,8.7
		L740,168.2C736.8,170.2,732.8,169.6,731,166.8z"/>
	<path class="st7" d="M802.1,278.1l-95.3-149c-2.4-3.7-0.9-8.9,3.4-11.7l52.6-33.6c4.2-2.7,9.6-1.9,12,1.8l95.3,149
		c2.4,3.7,0.9,8.9-3.4,11.7l-52.6,33.6C809.9,282.6,804.5,281.8,802.1,278.1z"/>
	<path class="st7" d="M1232.9-54.8L1130.4-215c-2.4-3.7-0.9-8.9,3.4-11.7l52.6-33.6c4.2-2.7,9.6-1.9,12,1.8l102.5,160.2
		c2.4,3.7,0.9,8.9-3.4,11.7L1244.9-53C1240.6-50.3,1235.3-51.1,1232.9-54.8z"/>
	<path class="st11" d="M1141.7-197.4l-14.1-22c-1.8-2.8-0.7-6.7,2.5-8.7l56.4-36.1c3.2-2,7.2-1.4,9,1.4l14.1,22
		c1.8,2.8,0.7,6.7-2.5,8.7l-56.4,36.1C1147.5-194,1143.5-194.6,1141.7-197.4z"/>
	<path class="st5" d="M1139-201.7L1041.5-354c-2.4-3.7-0.9-8.9,3.4-11.7l52.6-33.6c4.2-2.7,9.6-1.9,12,1.8l97.4,152.3
		c2.4,3.7,0.9,8.9-3.4,11.7l-52.6,33.6C1146.7-197.1,1141.3-198,1139-201.7z"/>
	<path class="st4" d="M1037.2-159.8L923.1-338.2c-2.4-3.7-0.9-8.9,3.4-11.7l52.6-33.6c4.2-2.7,9.6-1.9,12,1.8l114.1,178.4
		c2.4,3.7,0.9,8.9-3.4,11.7l-52.6,33.6C1044.9-155.2,1039.6-156.1,1037.2-159.8z"/>
	<path class="st8" d="M1034.8-163.5l-7.5-11.8c-1.8-2.8-0.7-6.7,2.5-8.7l56.4-36.1c3.2-2,7.2-1.4,9,1.4l7.5,11.8
		c1.8,2.8,0.7,6.7-2.5,8.7l-56.4,36.1C1040.6-160.1,1036.6-160.7,1034.8-163.5z"/>
	<path class="st9" d="M1110.6-45l-80.8-126.3c-2.4-3.7-0.9-8.9,3.4-11.7l52.6-33.6c4.2-2.7,9.6-1.9,12,1.8l80.8,126.3
		c2.4,3.7,0.9,8.9-3.4,11.7l-52.6,33.6C1118.3-40.5,1112.9-41.3,1110.6-45z"/>
	<path class="st12" d="M745.5,337.4l124.9-79.9c-76.5,49-218.9-25.9-338-75.8c-66.5-27.8-156.1-65.7-229.6-81.3l102.5,160.2
		c0.8,0.3,1.5,0.6,2.3,1C526.6,311.5,669,386.4,745.5,337.4z"/>
	<path class="st12" d="M499.3,411.2l38.6,60.4l99.9-63.9C602.6,430.2,553.6,426.5,499.3,411.2z"/>
	<path class="st12" d="M1015.7-420.6l-124.9,79.9c62-39.7,228.4,30.6,336.3,75.7l-102.5-160.2C1079-434.8,1039.6-435.9,1015.7-420.6
		z"/>
	<path class="st12" d="M784-272.4l-124.9,79.9c62.4-39.9,230.8,31.6,338.6,76.7c119.1,49.8,261.4,124.7,338,75.8l25-16l-38.6-60.4
		c-63.9-18.1-135.1-52.3-199.5-79.3C1014.8-240.8,846.5-312.4,784-272.4z"/>
</g>
<g id="Layer_4" class="st0">
	<path id="SVGID_x5F_1_x5F_" style="display:inline;fill:none;" d="M615.8,651.9C727.3,622.3,785,522.3,760.2,411.5"/>
	<text class="st2">	<textPath  xlink:href="#SVGID_x5F_1_x5F_" startOffset="2.11%">
<tspan  class="st16" style="font-family:'OpenSans-Extrabold'; font-size:32px; letter-spacing:150;">(CLICK HERE)</tspan>	</textPath>
</text>
</g>
<g id="Layer_26" class="st0">
	<g class="st2">
		<path class="st14" d="M559.2,525.9v-14.1c0-16.1,2.9-29.5,8.8-40.2c5.9-10.7,16.1-21.8,30.8-33.2c17.4-13.8,28.7-24.5,33.7-32.1
			c5.1-7.6,7.6-16.7,7.6-27.2c0-12.3-4.1-21.8-12.3-28.3c-8.2-6.6-20-9.9-35.4-9.9c-13.9,0-26.8,2-38.7,5.9s-23.4,8.7-34.7,14.3
			l-18.5-38.7c29.7-16.6,61.6-24.8,95.6-24.8c28.7,0,51.5,7,68.3,21.1c16.8,14.1,25.3,33.5,25.3,58.2c0,11-1.6,20.8-4.8,29.3
			c-3.2,8.6-8.1,16.7-14.6,24.5c-6.5,7.8-17.8,17.9-33.7,30.3c-13.6,10.7-22.7,19.6-27.4,26.6c-4.6,7-6.9,16.5-6.9,28.3v9.9H559.2z
			 M550.2,596c0-22.1,10.8-33.2,32.3-33.2c10.5,0,18.6,2.9,24.2,8.7c5.6,5.8,8.3,14,8.3,24.5c0,10.4-2.8,18.6-8.5,24.7
			c-5.6,6.1-13.7,9.1-24.1,9.1c-10.4,0-18.4-3-24-8.9C552.9,615,550.2,606.7,550.2,596z"/>
	</g>
</g>
<g id="Layer_8" class="st0">
	<circle class="st15" cx="583.9" cy="467.4" r="211.7"/>
	<g class="st2">
		<path class="st16" d="M630.6,637.9c-1.1-2.8-1.7-5.5-1.8-8c-0.2-2.5,0.1-4.9,0.9-7l4.8-1.8c-0.6,2.2-0.8,4.5-0.6,7.1
			c0.2,2.6,0.8,5.2,1.8,7.8c1,2.5,2.2,4.8,3.7,6.9c1.5,2,3.2,3.7,5.1,5l-4.7,1.8c-1.9-1-3.6-2.5-5.2-4.5
			C632.9,643.1,631.6,640.7,630.6,637.9z"/>
		<path class="st16" d="M652.5,618.7c-1.3,0.7-2.1,1.7-2.3,3.1c-0.2,1.4,0.2,3.1,1.1,5c2,3.9,4.4,5.2,7.4,3.7c0.9-0.4,1.7-1,2.4-1.7
			s1.4-1.4,2.1-2.2l2.3,4.7c-1.3,1.6-3.1,2.9-5.2,4c-3.1,1.5-5.9,1.8-8.4,0.8c-2.5-1-4.6-3.2-6.3-6.5c-1.1-2.1-1.6-4.2-1.6-6.2
			s0.5-3.8,1.6-5.4c1.1-1.6,2.6-2.9,4.6-3.9c2.2-1.1,4.6-1.7,7.1-1.7l0.5,5.2c-0.9,0-1.8,0.1-2.7,0.2
			C654.2,618,653.4,618.3,652.5,618.7z"/>
		<path class="st16" d="M675.5,626.6l-12.7-19l5.1-3.4l9.9,14.9l7.3-4.9l2.8,4.1L675.5,626.6z"/>
		<path class="st16" d="M695.8,612.2l-14.6-17.5l4.8-4l14.6,17.5L695.8,612.2z"/>
		<path class="st16" d="M702.8,580.8c-1,1.1-1.4,2.3-1,3.7c0.3,1.4,1.2,2.9,2.8,4.3c3.2,3,5.9,3.3,8.2,0.9c0.7-0.7,1.3-1.5,1.7-2.4
			c0.4-0.9,0.9-1.8,1.2-2.8l3.8,3.6c-0.7,2-1.9,3.8-3.5,5.6c-2.4,2.5-4.9,3.7-7.6,3.7s-5.4-1.4-8.2-4c-1.7-1.6-2.9-3.4-3.6-5.3
			c-0.7-1.9-0.8-3.8-0.4-5.6c0.4-1.9,1.4-3.6,3-5.3c1.7-1.8,3.7-3.1,6-4l2.2,4.7c-0.9,0.3-1.7,0.7-2.5,1.2
			C704.2,579.5,703.5,580.1,702.8,580.8z"/>
		<path class="st16" d="M738.5,563.9l-4,5.7l-9.8-1.3l-0.1,2.1l6.3,4.3l-3.5,5.1l-18.8-13l3.5-5.1l8.2,5.6c-0.3-0.6-0.8-1.7-1.3-3.2
			l-3-7.9l3.8-5.6l4.3,11.7L738.5,563.9z"/>
		<path class="st16" d="M756.4,524.6l-2.2,5.8l-8.7-3.3l-2.6,6.7l8.7,3.3l-2.2,5.8l-21.3-8.2l2.2-5.8l7.9,3l2.6-6.7l-7.9-3l2.2-5.8
			L756.4,524.6z"/>
		<path class="st16" d="M762.5,500.1l-3,13.2l-22.3-5l3-13.2l4.8,1.1l-1.6,7.2l3.5,0.8l1.5-6.7l4.8,1.1l-1.5,6.7l4.2,1l1.6-7.2
			L762.5,500.1z"/>
		<path class="st16" d="M756.6,482.7l8.3,0.8l-0.6,6.1l-22.7-2.1l0.7-7.5c0.6-6.2,3.1-9.1,7.6-8.7c2.6,0.2,4.6,1.7,5.8,4.4l10.5-5.7
			l-0.6,7l-8.7,4.1L756.6,482.7z M751.9,482.3l0.1-1.2c0.2-2.1-0.7-3.3-2.5-3.5c-1.6-0.1-2.4,0.8-2.6,2.9l-0.1,1.2L751.9,482.3z"/>
		<path class="st16" d="M765.6,448l0.4,13.6l-22.8,0.7l-0.4-13.6l5-0.2l0.2,7.4l3.6-0.1l-0.2-6.8l5-0.2l0.2,6.8l4.3-0.1l-0.2-7.4
			L765.6,448z"/>
		<path class="st16" d="M754.7,431.3c2.9-0.4,5.6-0.3,8.1,0.1s4.6,1.3,6.5,2.5l0.6,5c-1.9-1.1-4.2-1.8-6.7-2.2
			c-2.5-0.4-5.2-0.4-7.9-0.1c-2.7,0.3-5.3,1-7.7,2c-2.4,1-4.4,2.3-6.1,3.8l-0.6-5.1c1.5-1.6,3.5-3,5.8-4
			C749.1,432.3,751.7,431.6,754.7,431.3z"/>
	</g>
</g>
<g id="Layer_7" class="st0">
	<g class="st2">
		<path class="st17" d="M236.9,379l-3.5-17.1l-23,15.1l-3.5,21.7l-21,13.8l22.9-119l25.5-16.7l23.6,88.6L236.9,379z M229.3,341.6
			l-3.1-15c-0.7-3.3-1.6-7.6-2.6-13c-1-5.3-1.7-9.2-2-11.6c-0.3,2.6-0.9,6.9-1.7,13c-0.8,6.1-2.7,18.2-5.6,36.4L229.3,341.6z"/>
		<path class="st17" d="M352.2,303.4L333.1,316l-0.2-80.6l-17.3,11.3l-0.1-22.9l53.7-35.2l0.1,22.9L352,222.8L352.2,303.4z"/>
		<path class="st17" d="M413.5,225.6l0.1,37.7l-19.1,12.5l-0.2-103.5l23.2-15.2c19.2-12.6,28.9-8.7,28.9,11.7c0,12-4,23.9-12,35.7
			l20.7,31.6l-21.7,14.2l-15.1-27.8L413.5,225.6z M413.5,204.6l3.6-2.3c6.7-4.4,10-10.9,10-19.5c0-7.1-3.3-8.5-9.9-4.2l-3.8,2.5
			L413.5,204.6z"/>
		<path class="st17" d="M519.9,193.6l-3.5-17.1l-23,15.1l-3.5,21.7l-21,13.8l22.9-119l25.5-16.7l23.6,88.6L519.9,193.6z
			 M512.4,156.1l-3.1-15c-0.7-3.3-1.6-7.6-2.6-13c-1-5.3-1.7-9.2-2-11.6c-0.3,2.6-0.8,6.9-1.7,13c-0.8,6.1-2.7,18.2-5.6,36.4
			L512.4,156.1z"/>
		<path class="st17" d="M563.4,165.1l-0.2-103.5L582.4,49l0.2,103.5L563.4,165.1z"/>
		<path class="st17" d="M644.1,112.3l-19.1,12.5l-0.2-80.6l-17.3,11.3l-0.1-22.9l53.7-35.2l0.1,22.9l-17.2,11.3L644.1,112.3z"/>
	</g>
</g>
<g id="Layer_6">
	<g>
		<path class="st17" d="M35.1,286.6c-4.6,3-8.1,8-10.6,15.2c-2.5,7.1-3.8,15.5-3.8,25c0,19.9,5.2,26.5,15.6,19.7
			c3.1-2.1,6.2-4.7,9.1-7.9c2.9-3.2,5.9-6.7,8.9-10.4l0.1,23.6c-5.9,7.7-12.6,14-20,18.9c-10.7,7-18.9,7.8-24.6,2.5
			C3.9,367.9,1,356.7,1,339.5c0-10.7,1.3-21,4.1-31c2.7-9.9,6.7-18.8,11.9-26.5c5.2-7.8,11.3-13.9,18.3-18.5c7.7-5,15-7.4,22-7.1
			l-5.8,25.8c-2.6-0.1-5.2,0.1-7.9,0.6C40.9,283.4,38.1,284.6,35.1,286.6z"/>
		<path class="st17" d="M126.4,308.9l-3.5-17.1l-23,15.1l-3.5,21.7l-21,13.8l22.9-119l25.5-16.7l23.6,88.6L126.4,308.9z
			 M118.9,271.5l-3.1-15c-0.7-3.3-1.6-7.6-2.6-13c-1-5.3-1.7-9.2-2-11.6c-0.3,2.6-0.9,6.9-1.7,13c-0.8,6.1-2.7,18.2-5.6,36.4
			L118.9,271.5z"/>
		<path class="st17" d="M229.9,137.5l0.1,62.3c0,13.5-2.6,25.7-7.8,36.6c-5.2,10.9-12.8,19.5-22.7,26c-9.7,6.3-17.1,7.6-22.3,3.8
			c-5.2-3.8-7.8-12.5-7.8-26l-0.1-62.9l19.2-12.6l0.1,60.7c0,7.3,1,12,2.8,14.1c1.9,2.1,4.6,1.9,8.3-0.5c3.9-2.6,6.7-6.1,8.5-10.5
			c1.8-4.4,2.6-10.4,2.6-17.8l-0.1-60.6L229.9,137.5z"/>
		<path class="st17" d="M306.1,159.8c0,6.4-1.1,12.8-3.3,19.3c-2.2,6.4-5.4,12.4-9.6,17.9c-4.2,5.5-9.1,10.1-14.8,13.8
			c-4.7,3.1-8.7,5.2-11.9,6.3c-3.2,1.1-6.5,1.6-10,1.5l-0.1-24.9c3.7,0.3,7.5,0,11.4-1.1c3.9-1,7.6-2.6,10.9-4.8
			c2.8-1.9,4.9-3.9,6.2-6.3c1.3-2.3,2-4.6,2-6.9c0-1.4-0.3-2.5-0.8-3.2c-0.5-0.7-1.4-1.2-2.6-1.5c-1.2-0.3-4.3-0.5-9.4-0.5
			c-4.6,0-8.1-0.7-10.4-2.1c-2.3-1.4-4-3.5-5.2-6.5c-1.1-3-1.7-7-1.7-12.1c0-9.5,2.3-18.5,7.1-27c4.7-8.4,11.3-15.4,19.6-20.8
			c7.3-4.8,14.8-7.2,22.4-7.3l-5.8,25.4c-6.6-0.1-12.4,1.4-17.2,4.6c-2.5,1.6-4.3,3.5-5.4,5.5c-1.1,2-1.7,4-1.7,5.9
			c0,2,0.7,3.4,2.2,4c1.4,0.7,5.3,1,11.7,1.1c6.1,0,10.4,1.5,12.7,4.6C304.9,147.8,306.1,152.8,306.1,159.8z"/>
		<path class="st17" d="M374,146.7l-42,27.5l-0.2-103.5l42-27.5l0,22.4l-22.9,15l0,16.3l21.2-13.9l0.1,22.4L351,119.4l0,19.5
			l22.9-15L374,146.7z"/>
		<path class="st17" d="M447.6,67.1c0,6.4-1.1,12.8-3.3,19.3c-2.2,6.4-5.4,12.4-9.6,17.9s-9.1,10.1-14.8,13.8
			c-4.7,3.1-8.7,5.2-11.9,6.3c-3.2,1.1-6.5,1.6-10,1.5L398,101c3.7,0.3,7.5,0,11.4-1.1c3.9-1,7.6-2.6,10.9-4.8
			c2.8-1.9,4.9-3.9,6.2-6.3c1.3-2.3,2-4.6,2-6.9c0-1.4-0.3-2.5-0.8-3.2c-0.5-0.7-1.4-1.2-2.6-1.5c-1.2-0.3-4.3-0.5-9.4-0.5
			c-4.6,0-8.1-0.7-10.4-2.1c-2.3-1.4-4-3.5-5.2-6.5c-1.1-3-1.7-7-1.7-12.1c0-9.5,2.3-18.5,7.1-27c4.7-8.4,11.3-15.4,19.6-20.8
			c7.3-4.8,14.8-7.2,22.4-7.3l-5.8,25.4c-6.6-0.1-12.4,1.4-17.2,4.6c-2.5,1.6-4.3,3.5-5.4,5.5s-1.7,4-1.7,5.9c0,2,0.7,3.4,2.2,4
			c1.4,0.7,5.3,1,11.7,1.1c6.1,0,10.4,1.5,12.7,4.6C446.3,55.1,447.5,60.1,447.6,67.1z"/>
	</g>
</g>
<g id="Layer_5" class="st0">
	<g class="st2">
		<path class="st17" d="M-70.8,297.5l-22.6,14.8l-6.9-40.6c-0.3-1.7-0.8-5.1-1.6-10.3c-0.7-5.2-1.2-9.5-1.6-13.1
			c-0.3,3.2-0.7,7.3-1.2,12.3c-0.6,4.9-1.1,9.5-1.7,13.7c-0.6,4.2-2.9,21.2-6.9,51l-22.6,14.8l-17.8-92l18.5-12.1l7.8,46.8
			c1.8,10.3,3,18.7,3.6,25c0.4-5.1,1.1-12.1,2.2-21.1c1.1-9,2.1-16.5,3-22.5l6.2-43.2l17.7-11.6l6.1,35.2c1,5.6,2.1,12.2,3.2,19.7
			c1.1,7.5,1.8,13.2,2.2,17c0.4-5.5,1.5-15.3,3.4-29.5l7.7-57.2l18.5-12.1L-70.8,297.5z"/>
		<path class="st17" d="M31.4,230.6l-19.2,12.6L12,201l-22.2,14.6l0.1,42.2l-19.2,12.6l-0.2-103.5l19.2-12.6l0.1,38.4L12,178.1
			l-0.1-38.4l19.2-12.6L31.4,230.6z"/>
		<path class="st17" d="M105,182.3l-3.5-17.1l-23,15.1L74.9,202l-21,13.8l22.9-119l25.5-16.7l23.6,88.6L105,182.3z M97.4,144.9
			l-3.1-15c-0.7-3.3-1.6-7.6-2.6-13s-1.7-9.2-2-11.6c-0.3,2.6-0.9,6.9-1.7,13c-0.8,6.1-2.7,18.2-5.6,36.4L97.4,144.9z"/>
		<path class="st17" d="M179.7,133.4l-19.1,12.5l-0.2-80.6l-17.3,11.3L143,53.8l53.7-35.2l0.1,22.9l-17.2,11.3L179.7,133.4z"/>
	</g>
</g>
</svg>
