<?xml version="1.0" encoding="utf-8"?>
<!-- Generator: Adobe Illustrator 22.0.0, SVG Export Plug-In . SVG Version: 6.00 Build 0)  -->
<svg version="1.1" id="Layer_1" xmlns="http://www.w3.org/2000/svg" xmlns:xlink="http://www.w3.org/1999/xlink" x="0px" y="0px"
	 viewBox="0 0 12.2 80.4" style="enable-background:new 0 0 12.2 80.4;" xml:space="preserve">
<style type="text/css">
	.st0{fill:#FCC96D;}
</style>
<g>
	<g>
		<path class="st0" d="M6.1,31.3L6.1,31.3c-3.3,0-6-2.7-6-6L0.1,6c0-3.3,2.7-6,6-6h0c3.3,0,6,2.7,6,6v19.3
			C12.2,28.6,9.5,31.3,6.1,31.3z"/>
		<path class="st0" d="M6,80.4L6,80.4c-3.3,0-6-2.7-6-6L0,35c0-3.3,2.7-6,6-6h0c3.3,0,6,2.7,6,6l0,39.4C12,77.7,9.3,80.4,6,80.4z"/>
	</g>
</g>
</svg>
