<?xml version="1.0" encoding="utf-8"?>
<!-- Generator: Adobe Illustrator 22.0.0, SVG Export Plug-In . SVG Version: 6.00 Build 0)  -->
<svg version="1.1" id="Layer_1" xmlns="http://www.w3.org/2000/svg" xmlns:xlink="http://www.w3.org/1999/xlink" x="0px" y="0px"
	 viewBox="0 0 86.6 69.2" style="enable-background:new 0 0 86.6 69.2;" xml:space="preserve">
<style type="text/css">
	.st0{fill:#EADAD3;}
	.st1{fill:#FFF2E9;}
	.st2{fill:#685040;}
</style>
<g>
	<g>
		<path class="st0" d="M19.2,69.2H52c1.5,0,2.7-1.2,2.7-2.7v-2.6c0-1.5-1.2-2.7-2.7-2.7H19.2c-1.5,0-2.7,1.2-2.7,2.7v2.6
			C16.5,68,17.7,69.2,19.2,69.2z"/>
	</g>
	<g>
		<path class="st1" d="M68.8,54H54.4V11.5l14.5-1.3c2.2,0,7.9,0.6,12.5,6.2c4.7,5.5,5.2,12.2,5.2,14.8V33C86.6,44.6,78.6,54,68.8,54
			z M62,45.1h6.9C74.5,45.1,79,39.7,79,33v-1.9c0-1.2-0.2-5.2-3-8.5c-2.7-3.1-5.9-3.5-7.1-3.5l-7,0.6V45.1z"/>
	</g>
	<g>
		<path class="st1" d="M48.2,66.7H23c-12.7,0-23-10.3-23-23V8.1h71.2v35.7C71.2,56.4,60.9,66.7,48.2,66.7z"/>
	</g>
	<g>
		<g>
			<ellipse class="st2" cx="35.6" cy="8.1" rx="34.5" ry="6.6"/>
		</g>
		<g>
			<path class="st0" d="M35.6,16.1C31.9,16.1,0,15.9,0,8.1S31.9,0,35.6,0c3.6,0,35.6,0.2,35.6,8.1S39.2,16.1,35.6,16.1z M2.3,8.1
				c1.6,2.1,13.9,5.1,33.3,5.1s31.7-2.9,33.3-5.1C67.3,5.9,55,3,35.6,3S3.9,5.9,2.3,8.1z"/>
		</g>
	</g>
</g>
</svg>
