<?xml version="1.0" encoding="utf-8"?>
<!-- Generator: Adobe Illustrator 22.0.0, SVG Export Plug-In . SVG Version: 6.00 Build 0)  -->
<svg version="1.1" id="Layer_1" xmlns="http://www.w3.org/2000/svg" xmlns:xlink="http://www.w3.org/1999/xlink" x="0px" y="0px"
	 viewBox="0 0 330.3 330.3" style="enable-background:new 0 0 330.3 330.3;" xml:space="preserve">
<style type="text/css">
	.st0{clip-path:url(#SVGID_2_);fill:#C3DDDC;}
	.st1{clip-path:url(#SVGID_2_);fill:#B6D8CA;}
	.st2{clip-path:url(#SVGID_2_);fill:#357731;}
	.st3{clip-path:url(#SVGID_2_);fill:#547C39;}
	.st4{clip-path:url(#SVGID_2_);fill:#346B30;}
	.st5{clip-path:url(#SVGID_2_);fill:#486B36;}
	.st6{clip-path:url(#SVGID_2_);fill:#31684C;}
	.st7{clip-path:url(#SVGID_2_);fill:#B7AA5E;}
	.st8{clip-path:url(#SVGID_2_);fill:#EA3939;}
	.st9{clip-path:url(#SVGID_2_);fill:#33723C;}
	.st10{clip-path:url(#SVGID_2_);}
	.st11{fill:#FFAE6C;}
	.st12{fill:#FFED69;}
	.st13{fill:#EDB96E;}
	.st14{fill:#F4E969;}
	.st15{clip-path:url(#SVGID_2_);fill:none;stroke:#FFFFFF;stroke-width:3;stroke-miterlimit:10;}
	.st16{fill:none;stroke:#F4D090;stroke-width:5;stroke-miterlimit:10;}
</style>
<g>
	<defs>
		<circle id="SVGID_1_" cx="164.9" cy="165.2" r="162.7"/>
	</defs>
	<clipPath id="SVGID_2_">
		<use xlink:href="#SVGID_1_"  style="overflow:visible;"/>
	</clipPath>
	<path class="st0" d="M225.9,315.8c-82.7,33.4-178.3-7.1-211.8-89.9S21.2,47.6,104,14.1C144.6,114.7,185.2,215.2,225.9,315.8z"/>
	<path class="st1" d="M226.2,315.6c82.7-33.4,123.3-129,89.9-211.8S187-19.4,104.3,14C144.9,114.6,185.5,215.1,226.2,315.6z"/>
	<path class="st2" d="M101.3,156.2c18.8,14,45.8,37.3,72.5,72.9c27.3,36.4,43.6,71.3,52.9,95c-1.8,1.4-3.5,2.8-5.3,4.2
		C210,303,192.7,269.9,167,235.1c-23.9-32.3-47.6-56.1-66.5-72.6C100.8,160.4,101,158.3,101.3,156.2z"/>
	<path class="st3" d="M228.1,138.5c-3,16-5.3,35.6-5.4,58.6c-0.2,57.5,13.7,107.7,24.3,138.3c-1.7,0.7-3.3,1.3-5,2
		c-9.9-22.7-28.6-72-28.7-130.1c-0.1-29.9,4.8-52.9,9.6-68.7C224.6,138.5,226.3,138.5,228.1,138.5z"/>
	<path class="st3" d="M244.8,340.9c-5.7-13.5-52.5-124.3-54.4-128.9c-2.5-6-8.4-20-16.6-38.6c-3.4-7.8-7.2-16.4-11.3-25.7
		c-11.4-25.4-19.2-46.9-25.7-60.6c-0.8,0.4-1.6,0.8-2.5,1.3c33.5,83.1,67,166.2,100.5,249.3C238.1,338.7,241.4,339.8,244.8,340.9z"
		/>
	<path class="st2" d="M129.7,90.9c18.3,43.9,36.4,87.8,54.3,131.9c16.4,40.4,32.5,80.9,48.4,121.5c1.5-0.5,3-1,4.5-1.5
		c-33.5-83.1-67-166.2-100.5-249.3C134.1,92.6,131.9,91.7,129.7,90.9z"/>
	<path class="st4" d="M182.6,237.9c-3.3-5.1-8.4-12.7-14.9-23c-3-4.7-5.4-8.6-7.1-11.3c1.3,16.9,6,44.6,23.8,72.4
		c6.3,9.9,13.2,18,19.6,24.5c-7.7-13.8-25.1-40.3-57.8-59.2c-17.5-10.1-34.1-15-46.4-17.4c15.1,10.1,36.4,26.1,58.2,49.3
		c24.4,26.1,36.1,49.8,35.1,48.4c-6.4-9.3-26.1-35.3-60.7-43.5c-10.5-2.5-20-2.8-27.9-2.2c9.9,5.3,20.3,11.7,31,19.3
		c29.9,21.3,51.3,45.1,66.1,65c12.3-4.3,24.6-8.7,37-13c-8.4-20.9-16.8-41.7-25.2-62.6C205,271.9,194.5,256,182.6,237.9z"/>
	<path class="st5" d="M280.4,332.2c-5-9.4-22.6-44.8-11.8-88c6.3-25,19.5-42.1,27.4-51c-7.5,3.3-19.7,10-30.1,22.9
		c-20.7,25.8-17.6,56.2-16.7,62.8c-3.4-7.1-8-19.5-8.4-35.4c-0.2-11.2,1.8-20.4,3.7-26.8c-3.8,4.2-11.5,13.9-14.9,28.6
		c-3.3,14.9-0.4,27,1.2,32.4c-8.9-10.1-22.3-28.1-29.3-54c-3.4-12.4-4.4-23.6-4.5-32.7c0,0,0,0,0,0c-0.1,0-2.8,28,3.6,55.7
		c2.4,10.2,7.1,25.4,17.7,42.5c-1.7-1.6-3.3-3.2-5-4.7c8.4,20.9,16.8,41.7,25.2,62.6C252.6,342.1,266.5,337.2,280.4,332.2z"/>
	<path class="st6" d="M60.3,224.8c-3.2-9.6-1.1-20.1,5.6-27c7.5-7.8,17.5-7.9,19.3-7.9c0.4,1.5,3.5,12.6-3.5,23
		C74.3,224,61.7,224.8,60.3,224.8z"/>
	<path class="st6" d="M53.3,224.2c9.3-4,19.9-2.7,27.4,3.4c8.4,6.8,9.3,16.8,9.5,18.6c-1.5,0.6-12.3,4.5-23.2-1.6
		C55.3,238,53.4,225.5,53.3,224.2z"/>
	<path class="st7" d="M157.1,108.5c8.7-9.5,7.2-23.3,5.7-36.8c-0.9-8-3.1-19.9-9.2-33.5c-2.4,3.7-5.2,8.9-7.3,15.3
		c-2.6,8.1-3.2,15.2-3.2,20.2c0,2.1-2.1-21.5-16.3-33.8c-5.1-4.4-10.6-6.5-15-7.6c11.2,27.8,22.4,55.6,33.7,83.5
		C148.6,114.7,153.2,112.7,157.1,108.5z"/>
	<path class="st8" d="M107,47.3c-1.1,17.1,11.9,30.7,10.2,32c-1.4,1.1-8.7-10.4-23.3-14.9c-3.2-1-6.1-1.5-8.8-1.8
		c4.2,17.2,12.2,28.4,17,34.1c6.9,8.2,17.2,20.6,32.2,21c4.6,0.1,8.5-1,11-1.9c-11.2-27.8-22.4-55.6-33.7-83.5
		C109.7,35.8,107.4,41,107,47.3z"/>
	<path class="st7" d="M218,75.8c-7,14.4-8.3,26.7-8.5,33.4c-0.4,10.6-0.9,24.1,7.8,32.6c0.8,0.8,8.5,8,18.7,6.2
		c10.2-1.8,16.4-11.5,23.6-22.7c3.9-6.1,9.1-15.6,12.9-28.6c-3.5,1.3-8,3.3-12.8,6.7c-6,4.2-10.3,8.9-13,12.4
		c1.8-2.5,11.5-16.3,8.8-32.8c-0.9-5.8-3.1-10.1-5-13.1c-3,1.3-7,3.4-10.9,7.3c-10.5,10.5-11.3,24.9-11.5,28.1
		c0-5.5-0.9-14.6-5.8-23.4C220.9,79.5,219.4,77.5,218,75.8z"/>
	<path class="st8" d="M33.1,146.4c11.8,11.4,23.3,16.9,29.7,19.4c10.1,4,23,9.1,33.8,3.8c1.1-0.5,10.3-5.2,11.6-15.4
		c1.3-10.2-6.2-19.3-14.8-29.9c-4.7-5.7-12.3-13.9-23.8-21.8c0.2,3.7,0.8,8.6,2.6,14.3c2.3,7.1,5.5,12.6,8,16.4
		c-1.9-2.5-12.3-16.3-29.1-19.4c-5.8-1.1-10.7-0.6-14.1,0.2c0.3,3.2,1.2,7.8,3.8,12.7c7,13.4,20.7,19.1,23.7,20.3
		c-5.4-1.9-14.4-4.2-24.3-2.5C37.6,144.9,35.2,145.6,33.1,146.4z"/>
	<path class="st9" d="M265.7,172.3c9.2-3.9,19.5-3.3,26.5,1.8c7.9,5.7,8.3,14.4,8.4,16c-1.4,0.6-12.1,4.5-22.5-0.4
		C267,184.4,265.8,173.5,265.7,172.3z"/>
	<path class="st9" d="M278.3,140.6c2.8,6.4,2.4,13.6-1.2,18.5c-4,5.6-10.1,5.9-11.2,6c-0.4-1-3.2-8.5,0.2-15.7
		C269.8,141.6,277.5,140.7,278.3,140.6z"/>
	<path class="st9" d="M260.8,182.9c-2.6,6.5-8,11.2-14,12.2c-6.7,1.1-11.3-3.1-12.1-3.8c0.4-1,3.8-8.2,11.4-10.9
		C254.1,177.6,260.1,182.4,260.8,182.9z"/>
	<path class="st9" d="M192.3,65.5c-2.6,6.5-8,11.2-14,12.2c-6.7,1.1-11.3-3.1-12.1-3.8c0.4-1,3.8-8.2,11.4-10.9
		C185.6,60.2,191.7,65,192.3,65.5z"/>
	<path class="st9" d="M159.6,35.2c9.2-3.9,19.5-3.3,26.5,1.8c7.9,5.7,8.3,14.4,8.4,16c-1.4,0.6-12.1,4.5-22.5-0.4
		C160.9,47.3,159.7,36.4,159.6,35.2z"/>
	<path class="st9" d="M197.1,48.2c-1.5-7.1,0.7-14.3,5.8-18.8c5.8-5,12.8-4.3,14.1-4.1c0.2,1.1,1.6,9.2-4.1,16.1
		C206.9,48.6,198.1,48.2,197.1,48.2z"/>
	<path class="st6" d="M110.4,140.5c6.1-2.6,12.9-1.9,17.7,1.8c5.4,4.2,5.8,10.4,5.9,11.5c-0.9,0.4-8,3-15-0.8
		C111.5,149.1,110.5,141.4,110.4,140.5z"/>
	<path class="st6" d="M132.3,165c7.5-3.2,16-2.3,21.9,2.4c6.7,5.3,7.4,13.1,7.4,14.6c-1.2,0.5-9.9,3.7-18.6-1.1
		C133.8,175.8,132.4,166,132.3,165z"/>
	<path class="st6" d="M142.3,129.5c3.2,4.6,4.1,10.3,2.1,14.8c-2.2,5-7,6.4-7.9,6.6c-0.5-0.7-3.9-6.1-2.4-12.4
		C135.7,131.8,141.6,129.7,142.3,129.5z"/>
	<g class="st10">
		<path class="st11" d="M65.3,243.6c-1.3,2-3.9,3.4-6.4,2.9c-3.6-0.7-6.7-5.4-5.7-11.4c-1.2,6.4-5.9,10.4-10.1,10
			c-2.3-0.2-4.8-1.7-5.7-4.1c-1.4-3.6,1.1-8.9,7-11.4c-6,2.6-11.9,0.7-13.7-2.9c-1.1-2.1-0.8-5,0.6-7c2.4-3.1,8-3.9,12.9-0.7
			c-4.8-3.4-6-9-3.9-12.3c1.3-2,4-3.2,6.4-2.9c3.9,0.5,7.5,5,7.1,10.8c0.6-5.9,4.8-9.7,8.7-9.5c2.4,0.1,4.9,1.8,5.7,4.1
			c1.3,3.5-1.3,8.6-6.9,10.7c6.1-2.1,11.8-0.1,13.6,3.6c1,2.1,0.9,5-0.6,7c-2.4,3-8,3.6-12.9,0.2C66.3,234.6,67.5,240.3,65.3,243.6z
			"/>
		<circle class="st12" cx="52.9" cy="225.3" r="5.2"/>
	</g>
	<g class="st10">
		<path class="st11" d="M141.4,176.8c-1.5,1.2-3.9,1.5-5.6,0.5c-2.6-1.5-3.7-6.1-1.4-10.4c-2.6,4.6-7.2,6.4-10.3,5
			c-1.7-0.8-3.2-2.7-3.3-4.7c-0.1-3.2,3.2-6.6,8.3-6.9c-5.3,0.3-9.3-2.7-9.7-6c-0.3-1.9,0.7-4.1,2.3-5.2c2.6-1.8,7.1-0.8,10.1,3.1
			c-2.8-4-2.3-8.7,0.2-10.6c1.5-1.2,3.9-1.4,5.6-0.5c2.9,1.5,4.4,5.9,2.6,10.4c2-4.4,6.2-6.2,9.1-4.9c1.8,0.8,3.3,2.7,3.3,4.7
			c0.1,3.1-3.2,6.3-8,6.4c5.2,0,9.1,3.2,9.5,6.6c0.2,1.9-0.6,4.1-2.3,5.2c-2.6,1.7-7.1,0.6-9.9-3.5C144.5,170,144,174.8,141.4,176.8
			z"/>
		
			<ellipse transform="matrix(0.9275 -0.3739 0.3739 0.9275 -49.5724 62.6487)" class="st12" cx="136.7" cy="159.1" rx="4.2" ry="4.3"/>
	</g>
	<g class="st10">
		<path class="st13" d="M200.3,74.1c-1.5,1.2-3.9,1.5-5.6,0.5c-2.6-1.5-3.7-6.1-1.4-10.4c-2.6,4.6-7.2,6.4-10.3,5
			c-1.7-0.8-3.2-2.7-3.3-4.7c-0.1-3.2,3.2-6.6,8.3-6.9c-5.3,0.3-9.3-2.7-9.7-6c-0.3-1.9,0.7-4.1,2.3-5.2c2.6-1.8,7.1-0.8,10.1,3.1
			c-2.8-4-2.3-8.7,0.2-10.6c1.5-1.2,3.9-1.4,5.6-0.5c2.9,1.5,4.4,5.9,2.6,10.4c2-4.4,6.2-6.2,9.1-4.9c1.8,0.8,3.3,2.7,3.3,4.7
			c0.1,3.1-3.2,6.3-8,6.4c5.2,0,9.1,3.2,9.5,6.6c0.2,1.9-0.6,4.1-2.3,5.2c-2.6,1.7-7.1,0.6-9.9-3.5
			C203.4,67.4,202.9,72.1,200.3,74.1z"/>
		
			<ellipse transform="matrix(0.9275 -0.3739 0.3739 0.9275 -6.9184 77.2241)" class="st14" cx="195.6" cy="56.4" rx="4.2" ry="4.3"/>
	</g>
	<g class="st10">
		<path class="st13" d="M264,193.8c-1.9,0.5-4.4,0-5.7-1.7c-1.9-2.4-1.2-7.2,2.8-10.4c-4.4,3.4-9.7,3.4-12.1,0.8
			c-1.4-1.4-2.1-3.8-1.4-5.8c1.1-3.1,5.7-5.1,10.9-3.5c-5.3-1.7-8-6.1-7.2-9.4c0.5-1.9,2.3-3.7,4.4-4.1c3.3-0.7,7.4,1.9,8.7,6.7
			c-1.2-4.9,1.2-9.1,4.4-10c2-0.6,4.4,0.1,5.7,1.7c2.3,2.5,2,7.3-1.6,10.9c3.7-3.4,8.5-3.6,10.9-1.3c1.5,1.4,2.1,3.8,1.4,5.8
			c-1.2,3-5.7,4.8-10.5,3c5.1,2,7.7,6.5,6.7,9.9c-0.5,1.9-2.3,3.7-4.4,4.1c-3.2,0.6-7.2-2.1-8.4-7.1
			C269.7,188.6,267.2,192.9,264,193.8z"/>
		
			<ellipse transform="matrix(0.9275 -0.3739 0.3739 0.9275 -46.1731 112.2983)" class="st14" cx="266.3" cy="175.1" rx="4.5" ry="4.4"/>
	</g>
	<path class="st15" d="M243.9,360.2C195,238.8,146,117.4,97.1-4"/>
</g>
<circle class="st16" cx="165.2" cy="165.2" r="162.7"/>
</svg>
