<?xml version="1.0" encoding="utf-8"?>
<!-- Generator: Adobe Illustrator 22.0.0, SVG Export Plug-In . SVG Version: 6.00 Build 0)  -->
<svg version="1.1" id="Layer_1" xmlns="http://www.w3.org/2000/svg" xmlns:xlink="http://www.w3.org/1999/xlink" x="0px" y="0px"
	 viewBox="0 0 65.4 192.9" style="enable-background:new 0 0 65.4 192.9;" xml:space="preserve">
<style type="text/css">
	.st0{fill:#A08458;}
	.st1{fill:#CCAE8D;}
	.st2{fill:#8C50CC;}
	.st3{fill:#6842A5;}
	.st4{fill:#8D5BCE;}
	.st5{fill:#543889;}
	.st6{fill:#986AE2;}
	.st7{fill:#DB947B;}
	.st8{fill:#FFFFFF;}
	.st9{fill:#60533A;}
	.st10{fill:#B58168;}
</style>
<g>
	<path class="st0" d="M49.6,7.1c-0.8-0.7-1-1-1.2-1.3c-0.4-0.6-0.5-1-1-1.7c-0.2-0.2-0.4-0.4-0.7-0.7c-2.5-1.8-4.6,0-9.6-1.5
		c-2.6-0.8-2.3-1.3-4.4-1.7c-3.7-0.7-6.9,0.5-8.2,1.1c-1.7,0.8-3,1.8-3.7,2.5C19.2,4.2,17,4.9,15,6.6c-3.5,2.9-5.4,7.6-4.8,11.5
		c0.2,1.6,0.6,1.5,0.7,3C11,25,8,25.7,7.9,28.8c-0.1,3.6,3.8,4.5,4.1,9.5c0,0.6,0,1,0,1.4c-0.1,1.2-0.2,1.6-0.2,2
		c0,1.4,3,3.1,6.2,3.6c3.3,0.5,3.9-0.7,7.5-0.6c4.4,0.1,4.4,1.9,8,1.9c4.5,0,5.1-2.7,10.3-3.1c3.9-0.2,4.7,1.2,6.7,0.2
		c3.2-1.6,3.8-6.7,4-8.8c0.4-3.3-0.4-3.6,0-7.3c0.4-3.8,1.3-3.7,1.6-7c0.2-2.1,0.8-7.7-2.2-10.2C53.3,9.9,51.2,8.5,49.6,7.1z"/>
	<polygon class="st1" points="48.4,192.9 61.4,192.9 52.5,109.7 42.9,116.8 	"/>
	<polygon class="st1" points="17,192.9 4,192.9 12.9,109.7 22.5,116.8 	"/>
	<g>
		<path class="st2" d="M13,52.1c0.1-1.8,0.5-4.3,1.9-6.7c3.6-5.8,11.1-5.8,17.7-5.7c6.3,0,12.2,0,16.6,4.2c2.2,2.1,2.8,5.9,3.1,8.2
			C39.2,52.1,26.1,52.1,13,52.1z"/>
		<path class="st3" d="M55.3,105.8c0,0.9,0.2,6.4-3.7,10.9s-8.7,4.6-9.5,4.6H23.2c-8.8,0-13.2-8.8-13.2-15.5
			C25.2,105.8,40.2,105.8,55.3,105.8z"/>
		<path class="st2" d="M10.1,105.8c0.2-3.1,0.3-5.7,0.5-8.8c14.8,0,29.6,0,44.4,0c0.1,2.9,0.3,5.9,0.4,8.8
			C40.2,105.8,25.1,105.8,10.1,105.8z"/>
		<path class="st3" d="M12.5,62.1c0.2-3.9,0.3-6,0.5-9.9c13.1,0,26.2,0,39.3,0c0.3,4.2,0.4,5.7,0.8,9.9C39.5,62,26.1,62.1,12.5,62.1
			z"/>
		<path class="st3" d="M10.5,97c0.1-1.5,0.2-2.8,0.2-4.3c14.3,0,29.3,0,43.9,0c0.1,1.3,0.1,2.9,0.2,4.3C39.9,97,25.4,97,10.5,97z"/>
		<path class="st4" d="M10.8,92.7c0.1-1.6,0.2-4.3,0.3-5.9c14.5,0,29.2,0,43.3,0c0.1,1.7,0.2,4.2,0.3,5.9
			C40.2,92.7,25.6,92.7,10.8,92.7z"/>
		<path class="st5" d="M11.1,86.8c0.1-2.1,0.2-3.7,0.3-5.8c14,0,28.5,0,42.7,0c0.1,2,0.2,3.7,0.3,5.8C40,86.8,26,86.8,11.1,86.8z"/>
		<path class="st6" d="M11.4,81c0.2-3,0.4-6.5,0.5-9.5c14.5,0,27.4,0,41.7,0c0.2,3,0.3,6.5,0.5,9.5C39.9,81,25.8,81,11.4,81z"/>
		<path class="st4" d="M12,71.5c0.1-1.8,0.2-4,0.3-5.8c13.9,0,26.8,0,41,0c0.1,1.7,0.2,4.1,0.3,5.8C39.6,71.5,26,71.5,12,71.5z"/>
		<path class="st6" d="M12.3,65.7c0-0.9,0.1-2.7,0.2-3.6c13.8,0,27-0.1,40.6-0.1c0.1,1,0.2,2.7,0.2,3.7
			C39.7,65.7,26.1,65.7,12.3,65.7z"/>
	</g>
	<polygon class="st1" points="9.3,83.8 0,83.8 5.4,51.1 13.3,49.8 	"/>
	<polygon class="st1" points="1.2,117.6 9.3,117.6 9.3,83.8 0,83.8 	"/>
	<polygon class="st1" points="56.1,83.8 65.4,83.8 60,51.1 52.1,49.8 	"/>
	<polygon class="st1" points="64.2,117.6 56.1,117.6 56.1,83.8 65.4,83.8 	"/>
	<circle class="st1" cx="33" cy="22" r="20.7"/>
	<polygon class="st7" points="33,23.7 29.6,32.7 36.3,32.7 	"/>
	<circle class="st8" cx="23.4" cy="25.5" r="4"/>
	<circle class="st8" cx="42.8" cy="25.5" r="4"/>
	<path class="st1" d="M12.6,29.6c-2.3,0-4.1-1.9-4.1-4.1s1.9-4.1,4.1-4.1C12.6,24.1,12.6,26.9,12.6,29.6z"/>
	<path class="st1" d="M53.1,29.6c2.3,0,4.1-1.9,4.1-4.1s-1.9-4.1-4.1-4.1C53.1,24.1,53.1,26.9,53.1,29.6z"/>
	<circle class="st9" cx="23.6" cy="25.9" r="2.5"/>
	<circle class="st9" cx="42.8" cy="25.9" r="2.5"/>
	<path class="st0" d="M41.3,8.1c-2.2,2.4-4.2,3.1-5.7,3.2c-2.7,0.3-4.6-1.2-7.2,0c-1.2,0.6-0.9,1-2.2,1.6c-2.8,1.3-4.8-0.3-6.3,1
		c-0.8,0.8-0.4,1.4-1.4,2.9c-0.8,1.1-1.8,1.7-2.5,2c0.5,1.6,1,3.5,1.3,5.7c0.7,5.7-0.6,10.4-1.6,13.2c-2-3.1-6.1-10.5-3.7-17.8
		c0-0.1-0.1-2.1,0.3-3.1c1.3-3.2,1.7-5,1.8-5.4c1.1-3,6.4-7.1,12.7-9.2c8.5-2.7,15.6,1.2,16.9,1.9c0.8,0.4,9.2,5.4,10.2,14.3
		c0.1,0.8,0.1,1.4,0.1,2.6c-0.1,8.8-2.4,19.9-4.2,19.8c-1.5-0.1-3.3-8.4-1.3-16c0.5-1.7,1-3.1,1.6-4.2c-1.1-0.5-2.6-1.3-3.2-2.9
		c-0.6-1.7,0.4-2.7-0.3-3.8c-1-1.5-3.5-0.4-4.9-1.8C41.2,11.6,40.8,10.5,41.3,8.1z"/>
	<ellipse class="st0" cx="42.6" cy="17.3" rx="3.3" ry="2"/>
	<ellipse class="st0" cx="23.6" cy="17.3" rx="3.3" ry="2"/>
	<circle class="st10" cx="20.3" cy="32" r="0.5"/>
	<circle class="st10" cx="23.7" cy="30.7" r="0.5"/>
	<circle class="st10" cx="26.3" cy="32" r="0.5"/>
	<circle class="st10" cx="45.4" cy="31.9" r="0.5"/>
	<circle class="st10" cx="42.1" cy="30.6" r="0.5"/>
	<circle class="st10" cx="39.4" cy="31.9" r="0.5"/>
</g>
</svg>
