<?xml version="1.0" encoding="utf-8"?>
<!-- Generator: Adobe Illustrator 22.0.0, SVG Export Plug-In . SVG Version: 6.00 Build 0)  -->
<svg version="1.1" id="Layer_1" xmlns="http://www.w3.org/2000/svg" xmlns:xlink="http://www.w3.org/1999/xlink" x="0px" y="0px"
	 viewBox="0 0 57 198.5" style="enable-background:new 0 0 57 198.5;" xml:space="preserve">
<style type="text/css">
	.st0{fill:#6D5341;}
	.st1{fill:#D8BDA3;}
	.st2{fill:#53DBDB;}
	.st3{fill:#4ABAA5;}
	.st4{fill:#4EA09D;}
	.st5{fill:#61AFAF;}
	.st6{fill:#51EDE1;}
	.st7{fill:#53DBD8;}
	.st8{fill:#DB947B;}
	.st9{fill:#FFFFFF;}
	.st10{fill:#428954;}
	.st11{fill:#604C3C;}
	.st12{fill:#B57E6D;}
</style>
<path class="st0" d="M12.9,50.1c0-0.6-0.1-1.6-0.5-2.5c-0.8-1.8-2.3-2.7-2.7-2.9c-3.6-2.3-6.2-10-6.4-10.6c-2.5-7.4,1-16.9,6.9-22.8
	c6.1-6.1,13.5-7.1,16.1-7.4c1.5,0.1,2.7-0.8,2.9-1.9c0.2-1-0.5-1.8-0.6-1.9c1.1,0,2.1,0.7,2.3,1.8c0.2,1-0.3,2-1.3,2.4
	c1.1,0.4,2.2,0.1,2.9-0.8c0.8-0.9,0.8-2.3,0.1-3.3c0.1,0.1,1.7,1.1,1.7,2.9c0,1-0.6,1.7-0.8,1.9c2.5,0.4,6.7,1.5,10.6,4.7
	c6.8,5.5,9.4,14.4,8.4,21.5c-0.9,6.8-5.1,12.5-6.4,14.3c-0.1,0.2-0.9,0.8-1.4,1.8c-0.7,1.3-0.7,2.7-0.6,3.6
	c-0.3-0.1-1.3-0.6-1.9-1.7c-0.5-0.8-0.5-1.5-0.5-1.9c-0.2,0.6-0.4,1.3-0.9,2c-0.9,1.4-2,2.2-2.7,2.7c-6.9-0.2-13.9-0.3-20.8-0.5
	c-0.6-1.1-1.3-2.2-1.9-3.3C14.6,48.8,13.8,49.5,12.9,50.1z"/>
<polygon class="st1" points="42.2,198.5 53.6,198.5 45.8,117.1 37.4,124.1 "/>
<polygon class="st1" points="14.9,198.5 3.5,198.5 11.3,117.1 19.6,124.1 "/>
<g>
	<path class="st2" d="M11.4,60.8c0.1-1.7,0.4-4.3,1.7-6.6c3.2-5.7,9.7-5.6,15.5-5.6c5.5,0,10.6,0,14.5,4.1c1.9,2.1,2.5,5.8,2.7,8
		C34.2,60.8,22.8,60.8,11.4,60.8z"/>
	<path class="st3" d="M48.2,113.3c0,0.9,0.1,6.3-3.2,10.7c-3.3,4.4-7.6,4.5-8.3,4.5H20.3c-7.7,0-11.5-8.6-11.5-15.2
		C21.9,113.3,35.1,113.3,48.2,113.3z"/>
	<path class="st2" d="M8.8,113.3c0.1-3.1,0.3-5.6,0.4-8.7c12.9,0,25.8,0,38.7,0c0.1,2.8,0.2,5.8,0.3,8.7
		C35.1,113.3,21.9,113.3,8.8,113.3z"/>
	<path class="st3" d="M10.9,70.5c0.2-3.8,0.3-5.9,0.4-9.7c11.4,0,22.9,0,34.3,0c0.3,4.1,0.4,5.6,0.7,9.7
		C34.4,70.4,22.7,70.5,10.9,70.5z"/>
	<path class="st3" d="M9.2,104.6c0.1-1.4,0.1-2.8,0.2-4.2c12.5,0,25.6,0,38.3,0c0.1,1.3,0.1,2.9,0.2,4.2
		C34.8,104.6,22.2,104.6,9.2,104.6z"/>
	<path class="st4" d="M9.4,100.5c0.1-1.6,0.2-4.2,0.3-5.7c12.6,0,25.5,0,37.8,0c0.1,1.7,0.2,4.1,0.2,5.7
		C35.1,100.5,22.3,100.5,9.4,100.5z"/>
	<path class="st5" d="M9.7,94.7c0.1-2,0.2-3.6,0.3-5.7c12.2,0,24.9,0,37.3,0c0.1,2,0.2,3.6,0.3,5.6C34.9,94.7,22.7,94.7,9.7,94.7z"
		/>
	<path class="st6" d="M10,89.1c0.2-3,0.3-6.4,0.5-9.3c12.7,0,23.9,0,36.4,0c0.1,3,0.3,6.3,0.4,9.3C34.8,89.1,22.5,89.1,10,89.1z"/>
	<path class="st7" d="M10.5,79.8c0.1-1.8,0.2-3.9,0.3-5.7c12.1,0,23.4,0,35.8,0c0.1,1.7,0.2,4,0.3,5.7
		C34.5,79.8,22.7,79.8,10.5,79.8z"/>
	<path class="st6" d="M10.8,74c0-0.9,0.1-2.7,0.2-3.6c12,0,23.5-0.1,35.4-0.1c0.1,1,0.2,2.6,0.2,3.6C34.7,74,22.8,74,10.8,74z"/>
</g>
<polygon class="st1" points="8.1,91.8 0,91.8 4.8,59.8 11.6,58.5 "/>
<polygon class="st1" points="1,124.8 8.1,124.8 8.1,91.8 0,91.8 "/>
<polygon class="st1" points="48.9,91.8 57,91.8 52.3,59.8 45.5,58.5 "/>
<polygon class="st1" points="56,124.8 48.9,124.8 48.9,91.8 57,91.8 "/>
<circle class="st1" cx="28.1" cy="29" r="22.4"/>
<polygon class="st8" points="28.1,30.8 24.4,40.6 31.7,40.6 "/>
<circle class="st9" cx="17.7" cy="32.7" r="4.4"/>
<circle class="st9" cx="38.7" cy="32.7" r="4.4"/>
<path class="st1" d="M6,37.2c-2.4,0-4.5-2-4.5-4.5s2-4.5,4.5-4.5C6,31.2,6,34.2,6,37.2z"/>
<path class="st1" d="M49.8,37.2c2.4,0,4.5-2,4.5-4.5s-2-4.5-4.5-4.5C49.8,31.2,49.8,34.2,49.8,37.2z"/>
<circle class="st10" cx="17.9" cy="33.1" r="2.7"/>
<circle class="st10" cx="38.7" cy="33.1" r="2.7"/>
<ellipse class="st11" cx="38.5" cy="23.9" rx="3.5" ry="2.1"/>
<ellipse class="st11" cx="17.9" cy="23.9" rx="3.5" ry="2.1"/>
<path class="st0" d="M15.2,15.9c2.5,2.5,4.5,3,5.9,3.1c2.3,0,4.2-1.3,6.5-0.3c0.8,0.3,1.3,0.8,1.7,1.1c0.1,0,1-0.4,1.1-1.3
	c0.2-0.9-0.5-2-1.7-2.3c0.8,0,2.1,0.1,3.6,0.5c2.6,0.8,3.5,2.1,6.2,3.3c0.9,0.4,2.3,0.9,4.1,1.1c-0.3-0.4-0.8-1-1.3-1.8
	c-0.8-1.1-1.1-1.7-1-1.8c0.2-0.3,2.1,0.5,3.3,1.9c1.3,1.5,0.9,2.8,1.4,5.9c0.1,0.9,0.9,3.2,2.3,7.8c0.5,1.6,1.2,3.7,2,6.2
	c1-2.3,2.6-7.1,1.9-13C51.1,24.4,50,16,42.9,10.3C35.2,4.2,24.1,4.1,16,8.8c-8.7,5-11,13.9-11.2,14.9c-2.1,8.8,1.7,15.8,2.5,17.3
	C8,38.5,8.7,35.4,9,31.9c0.2-1.9-0.6-4.1,0.1-7c0.4-1.5,0.9-2.7,1.3-3.4c0.2,0.3,0.7,1.4,0.5,2.7c-0.1,0.7-0.4,1.2-0.6,1.5
	c1-1,2.5-2.7,3.6-5.1C14.6,18.8,15,17.2,15.2,15.9z"/>
<circle class="st12" cx="14.6" cy="41.1" r="0.5"/>
<circle class="st12" cx="18.1" cy="39.3" r="0.5"/>
<circle class="st12" cx="21.6" cy="41.1" r="0.5"/>
<circle class="st12" cx="42.2" cy="41.1" r="0.5"/>
<circle class="st12" cx="38.7" cy="39.3" r="0.5"/>
<circle class="st12" cx="35.2" cy="41.1" r="0.5"/>
</svg>
