<?xml version="1.0" encoding="utf-8"?>
<!-- Generator: Adobe Illustrator 22.0.0, SVG Export Plug-In . SVG Version: 6.00 Build 0)  -->
<svg version="1.1" id="Layer_1" xmlns="http://www.w3.org/2000/svg" xmlns:xlink="http://www.w3.org/1999/xlink" x="0px" y="0px"
	 viewBox="0 0 57 195.2" style="enable-background:new 0 0 57 195.2;" xml:space="preserve">
<style type="text/css">
	.st0{fill:#514237;}
	.st1{fill:#B79783;}
	.st2{fill:#E8BA36;}
	.st3{fill:#C49939;}
	.st4{fill:#D8A83D;}
	.st5{fill:#C4A02C;}
	.st6{fill:#F7C452;}
	.st7{fill:#DB947B;}
	.st8{fill:#FFFFFF;}
	.st9{fill:#665B4F;}
</style>
<path class="st0" d="M27.3,49.2c-4,2.3-6.2,2.1-7.5,1.4c-1.8-0.9-1.9-2.2-4-3.1c-1.9-0.9-2.6-0.4-4.1-1.1c-1.6-0.8-1.3-2-3.4-5.3
	c-1.8-2.6-2.2-2.3-2.5-3.5c-0.7-2.2,0.6-3.1,1.2-7.1c0.6-3.6-0.3-4.1,0.4-6.4c0.7-2.3,1.9-2,4.7-5.7c2.3-3.1,1.9-3.6,3.2-4.6
	c2.2-1.4,3.4-0.1,7.3-1.2c3.3-0.9,3.5-2.2,5.7-2.1c2.2,0.1,2.3,1.3,5.7,2.5c4,1.5,5.4,0.3,7.2,1.9c1.5,1.4,1,2.6,2.9,4.4
	c1.6,1.5,2.4,1,3.2,2.2c1,1.4,0.3,2.5,0.6,5.8c0.3,2.9,0.8,2.4,0.9,4.7c0.2,3.3-1,3.9-1.1,8c0,2.6,0.4,2.7,0,3.6
	c-0.9,1.9-2.9,1.8-7.4,4.1c-3.2,1.6-3.2,2.2-4.9,2.6C32.4,51.2,29.5,50.3,27.3,49.2z"/>
<polygon class="st1" points="39.9,184.6 49.9,184.6 43,110.6 35.7,116.9 "/>
<polygon class="st1" points="15.9,184.9 5.9,184.9 12.8,110.9 20.1,117.2 "/>
<g>
	<path class="st2" d="M12.8,59.3c0.1-1.6,0.4-3.9,1.5-6c2.8-5.2,8.5-5.1,13.6-5.1c4.9,0,9.3,0,12.7,3.7c1.7,1.9,2.2,5.3,2.3,7.3
		C32.9,59.3,22.9,59.3,12.8,59.3z"/>
	<path class="st3" d="M45.2,107.1c0,0.8,0.1,5.7-2.8,9.7c-2.9,4-6.6,4.1-7.3,4.1H20.7c-6.7,0-10.1-7.8-10.1-13.8
		C22.1,107.1,33.7,107.1,45.2,107.1z"/>
	<path class="st2" d="M10.6,107.1c0.1-2.8,0.2-5.1,0.4-7.9c11.3,0,22.6,0,34,0c0.1,2.6,0.2,5.3,0.3,7.9
		C33.7,107.1,22.1,107.1,10.6,107.1z"/>
	<path class="st3" d="M12.5,68.1c0.2-3.5,0.2-5.4,0.4-8.8c10,0,20.1,0,30.1,0c0.2,3.7,0.3,5.1,0.6,8.8
		C33.1,68.1,22.8,68.1,12.5,68.1z"/>
	<path class="st3" d="M10.9,99.2c0.1-1.3,0.1-2.5,0.2-3.8c10.9,0,22.4,0,33.6,0c0,1.2,0.1,2.6,0.1,3.8
		C33.4,99.2,22.3,99.2,10.9,99.2z"/>
	<path class="st4" d="M11.1,95.4c0.1-1.4,0.2-3.8,0.2-5.2c11.1,0,22.3,0,33.2,0c0.1,1.5,0.1,3.7,0.2,5.2
		C33.6,95.4,22.4,95.4,11.1,95.4z"/>
	<path class="st5" d="M11.4,90.2c0.1-1.9,0.2-3.3,0.3-5.1c10.7,0,21.8,0,32.7,0c0.1,1.8,0.2,3.3,0.2,5.1
		C33.5,90.2,22.7,90.2,11.4,90.2z"/>
	<path class="st6" d="M11.6,85c0.1-2.7,0.3-5.8,0.4-8.5c11.1,0,21,0,31.9,0c0.1,2.7,0.2,5.8,0.4,8.5C33.4,85,22.6,85,11.6,85z"/>
	<path class="st2" d="M12.1,76.6c0.1-1.6,0.2-3.6,0.3-5.2c10.6,0,20.5,0,31.4,0c0.1,1.5,0.2,3.7,0.3,5.2
		C33.2,76.6,22.8,76.6,12.1,76.6z"/>
	<path class="st6" d="M12.3,71.4c0-0.8,0.1-2.4,0.2-3.2c10.5,0,20.6-0.1,31.1-0.1c0,0.9,0.1,2.4,0.2,3.3
		C33.3,71.4,22.9,71.4,12.3,71.4z"/>
</g>
<polygon class="st1" points="10,87.8 2.9,87.8 7,58.7 13,57.6 "/>
<polygon class="st1" points="3.8,117.9 10,117.9 10,87.8 2.9,87.8 "/>
<polygon class="st1" points="45.8,87.8 52.9,87.8 48.7,58.7 42.8,57.6 "/>
<polygon class="st1" points="52,117.9 45.8,117.9 45.8,87.8 52.9,87.8 "/>
<circle class="st1" cx="28.1" cy="32.5" r="18.4"/>
<polygon class="st7" points="28.1,33.6 25.1,41.6 31.1,41.6 "/>
<circle class="st8" cx="19.6" cy="35.2" r="3.6"/>
<circle class="st8" cx="36.9" cy="35.2" r="3.6"/>
<path class="st1" d="M10.1,39.2c-2,0-3.7-1.7-3.7-3.7s1.7-3.7,3.7-3.7C10.1,34.3,10.1,36.7,10.1,39.2z"/>
<path class="st1" d="M45.9,39.2c2,0,3.7-1.7,3.7-3.7s-1.7-3.7-3.7-3.7C45.9,34.3,45.9,36.7,45.9,39.2z"/>
<circle class="st9" cx="19.8" cy="35.5" r="2.2"/>
<circle class="st9" cx="36.9" cy="35.5" r="2.2"/>
<ellipse class="st0" cx="36.7" cy="28" rx="2.9" ry="1.8"/>
<ellipse class="st0" cx="19.8" cy="28" rx="2.9" ry="1.8"/>
<path class="st0" d="M38.6,21.2c-1.3,1.2-3.3,2.7-5.9,2.9c-2.9,0.2-3.7-1.4-7.4-1.5c-1.1,0-4.3-0.1-7.2,1.9c-2,1.4-3.1,3.2-3.5,4.3
	c-0.2-0.4-0.8-1.3-0.8-2.5c0-1,0.3-1.8,0.5-2.2c-1.4,1.3-2.2,2.8-2.1,4.3c0.1,1.9,1.5,2.8,1.5,4.7c0,1.9-2.1,2.2-2.2,4.2
	c-0.1,1.2,0.8,1.5,0.9,2.7c0.1,1.1-0.4,2.5-2.1,4.3c-0.7-1.5-1.5-3.9-1.8-6.8C8.2,35,7.4,28.1,12,21.7c0.6-0.8,5.3-7.2,13.6-8.3
	c1.2-0.2,3.7-0.4,6.9,0.3c1.4,0.3,8.1,2,12.3,8.5c3.3,5.1,3.1,10.2,3,12.1c-0.2,3.9-1.4,6.9-2.2,8.6c-1.9-2.2-2.1-3.8-2-5
	c0.1-1.5,0.9-2.1,0.6-3.3c-0.4-1.6-1.8-1.5-2.2-3c-0.5-1.7,1-2.5,0.5-4c-0.5-1.4-1.9-1.3-2.9-2.8C38.6,23.5,38.5,22.1,38.6,21.2z"/>
</svg>
