<?xml version="1.0" encoding="utf-8"?>
<!-- Generator: Adobe Illustrator 22.0.0, SVG Export Plug-In . SVG Version: 6.00 Build 0)  -->
<svg version="1.1" id="Layer_1" xmlns="http://www.w3.org/2000/svg" xmlns:xlink="http://www.w3.org/1999/xlink" x="0px" y="0px"
	 viewBox="0 0 58 209.3" style="enable-background:new 0 0 58 209.3;" xml:space="preserve">
<style type="text/css">
	.st0{fill:#4C3F2A;}
	.st1{fill:#B59A88;}
	.st2{fill:#E0C141;}
	.st3{fill:#C1AF44;}
	.st4{fill:#D3B742;}
	.st5{fill:#AF9C4B;}
	.st6{fill:#F2C74E;}
	.st7{fill:#DB947B;}
	.st8{fill:#FFFFFF;}
	.st9{fill:#443A26;}
	.st10{fill:#443C2E;}
</style>
<path class="st0" d="M27.5,3.1c-1.8-0.9-4.3-1.8-6.9-1c-1.9,0.6-2.5,1.7-5.3,3.6c-4.2,3-4.7,2-6.7,3.9C6,12.1,7,13.9,3.8,22.4
	C2,27,1.6,26.7,1.5,28.3c-0.1,4.5,3.3,6.3,3.2,11.3c0,2.7-1,2.9-1,4.9c0,6.7,11.7,11.8,13,12.4c12,5.1,25.3,2.2,32.8-3.6
	c1.7-1.3,5.5-4.3,5.5-8.1c0-2.5-1.7-3-2-5.9c-0.5-4.2,2.9-6,3.6-10.3c0.6-3.1-1.3-3.1-2.8-10.3c-1.1-5.3-0.4-5.7-1.6-7.5
	c-1.9-2.9-4-2.1-8.5-5.9c-3.2-2.7-3.1-3.8-5.1-4.7C36.6-0.3,33.2-0.5,27.5,3.1z"/>
<polygon class="st1" points="42.9,209.3 54.5,209.3 46.5,122.4 38.1,129.8 "/>
<polygon class="st1" points="15.1,209.3 3.5,209.3 11.5,122.4 19.9,129.8 "/>
<g>
	<path class="st2" d="M11.6,62.2c0.1-1.8,0.4-4.5,1.7-7c3.2-6,9.8-6,15.7-6c5.6,0,10.8,0,14.7,4.4c2,2.2,2.5,6.2,2.7,8.6
		C34.8,62.2,23.2,62.2,11.6,62.2z"/>
	<path class="st3" d="M49,118.3c0,1,0.1,6.7-3.2,11.4c-3.4,4.7-7.7,4.8-8.4,4.8H20.6c-7.8,0-11.7-9.2-11.7-16.2
		C22.3,118.3,35.7,118.3,49,118.3z"/>
	<path class="st2" d="M8.9,118.3c0.1-3.3,0.3-6,0.4-9.2c13.1,0,26.2,0,39.3,0c0.1,3,0.2,6.2,0.4,9.2
		C35.7,118.3,22.3,118.3,8.9,118.3z"/>
	<path class="st3" d="M11.1,72.6c0.2-4.1,0.3-6.3,0.4-10.4c11.6,0,23.2,0,34.9,0c0.3,4.3,0.4,6,0.7,10.3
		C35,72.5,23.1,72.6,11.1,72.6z"/>
	<path class="st3" d="M9.3,109.1c0.1-1.5,0.1-3,0.2-4.5c12.7,0,26,0,39,0c0.1,1.4,0.1,3.1,0.2,4.5C35.4,109.1,22.6,109.1,9.3,109.1z
		"/>
	<path class="st4" d="M9.6,104.6c0.1-1.7,0.2-4.5,0.3-6.1c12.8,0,25.9,0,38.4,0c0.1,1.8,0.2,4.4,0.2,6.1
		C35.6,104.6,22.7,104.6,9.6,104.6z"/>
	<path class="st5" d="M9.9,98.5c0.1-2.2,0.2-3.9,0.3-6c12.4,0,25.3,0,37.9,0c0.1,2.1,0.2,3.9,0.3,6C35.5,98.5,23,98.5,9.9,98.5z"/>
	<path class="st6" d="M10.2,92.4c0.2-3.2,0.3-6.8,0.5-9.9c12.9,0,24.3,0,37,0c0.1,3.2,0.3,6.8,0.4,9.9
		C35.4,92.4,22.9,92.4,10.2,92.4z"/>
	<path class="st2" d="M10.6,82.5c0.1-1.9,0.2-4.2,0.3-6.1c12.3,0,23.8,0,36.4,0c0.1,1.8,0.2,4.3,0.3,6.1
		C35.1,82.5,23.1,82.5,10.6,82.5z"/>
	<path class="st6" d="M10.9,76.4c0-0.9,0.1-2.9,0.2-3.8c12.2,0,23.9-0.1,36-0.1c0.1,1,0.2,2.8,0.2,3.9
		C35.2,76.4,23.2,76.4,10.9,76.4z"/>
</g>
<polygon class="st1" points="8.3,95.4 0,95.4 4.8,61.1 11.8,59.8 "/>
<polygon class="st1" points="1.1,130.6 8.3,130.6 8.3,95.4 0,95.4 "/>
<polygon class="st1" points="49.7,95.4 58,95.4 53.2,61.1 46.2,59.8 "/>
<polygon class="st1" points="56.9,130.6 49.7,130.6 49.7,95.4 58,95.4 "/>
<circle class="st1" cx="29.1" cy="28.6" r="22.7"/>
<polygon class="st7" points="29,30.4 25.4,40.3 32.7,40.3 "/>
<circle class="st8" cx="18.6" cy="32.4" r="4.4"/>
<circle class="st8" cx="39.8" cy="32.4" r="4.4"/>
<path class="st1" d="M6.8,36.9c-2.5,0-4.5-2-4.5-4.5s2-4.5,4.5-4.5C6.8,30.9,6.8,33.9,6.8,36.9z"/>
<path class="st1" d="M51,36.9c2.5,0,4.5-2,4.5-4.5s-2-4.5-4.5-4.5C51,30.9,51,33.9,51,36.9z"/>
<circle class="st9" cx="18.8" cy="32.8" r="2.7"/>
<circle class="st9" cx="39.8" cy="32.8" r="2.7"/>
<ellipse class="st10" cx="39.6" cy="23.4" rx="3.6" ry="2.2"/>
<ellipse class="st10" cx="18.8" cy="23.4" rx="3.6" ry="2.2"/>
<path class="st0" d="M14.2,15.3c1.1,1,2.9,2.5,5.6,3.6c3.5,1.4,6.5,1.2,8.1,1.1c-0.4-0.3-1.1-0.9-1.6-1.9c-0.3-0.6-0.5-1.2-0.5-1.6
	c0.8,0.6,1.8,1.3,2.9,1.9c4.4,2.1,8.7,1.6,10.8,1.2c-0.4-0.1-1.8-0.6-2.7-2c-0.3-0.5-0.5-1.1-0.5-1.5c0.9,0.9,2.8,2.7,5.7,3.6
	c2,0.6,3.8,0.6,4.9,0.5c-0.2-0.1-1.4-0.6-1.7-2c-0.2-0.7,0-1.3,0.1-1.6c0.9,0.6,1.5,1.2,1.9,1.7c1.9,2.5,1.4,5.8,0.9,8.8
	c-0.4,2.6-0.8,2.9-1.1,4.7c-0.4,2.3-0.4,5.8,1.7,10.5c1.1-2.1,2.5-5.3,3.2-9.3c0.4-2.6,1.2-7-0.4-12C48,9.6,35.5,5.9,34.8,5.7
	C32,5,29.2,4.9,29.2,4.9c0,0-3.3-0.1-6.6,0.8C17.2,7.2,9.9,12.1,6.8,20.3C6.2,22,4.5,26.6,5.6,32.5c0.7,3.6,2.2,6.3,3.2,7.9
	c2.5-4.9,2.5-8.1,1.9-10.2c-0.3-1-0.9-2.5-0.5-4.4c0.3-1.6,1.2-2.4,2-3.7C13.1,20.8,14,18.6,14.2,15.3z"/>
</svg>
