<?xml version="1.0" encoding="utf-8"?>
<!-- Generator: Adobe Illustrator 22.0.0, SVG Export Plug-In . SVG Version: 6.00 Build 0)  -->
<svg version="1.1" id="Layer_1" xmlns="http://www.w3.org/2000/svg" xmlns:xlink="http://www.w3.org/1999/xlink" x="0px" y="0px"
	 viewBox="0 0 48.4 166.7" style="enable-background:new 0 0 48.4 166.7;" xml:space="preserve">
<style type="text/css">
	.st0{fill:#DDBFAB;}
	.st1{fill:#6C52CC;}
	.st2{fill:#4D41A3;}
	.st3{fill:#725CCC;}
	.st4{fill:#463987;}
	.st5{fill:#856CE0;}
	.st6{fill:#7A5A44;}
	.st7{fill:#DB947B;}
	.st8{fill:#FFFFFF;}
	.st9{fill:#665B4F;}
	.st10{fill:#846855;}
</style>
<polygon class="st0" points="35.8,166.7 45.5,166.7 38.9,97.8 31.8,103.7 "/>
<polygon class="st0" points="12.6,166.7 2.9,166.7 9.6,97.8 16.6,103.7 "/>
<g>
	<path class="st1" d="M9.7,50.1c0.1-1.5,0.3-3.6,1.4-5.6c2.7-4.8,8.2-4.8,13.1-4.7c4.7,0,9,0,12.3,3.5c1.6,1.8,2.1,4.9,2.3,6.8
		C29.1,50.1,19.4,50.1,9.7,50.1z"/>
	<path class="st2" d="M41,94.6c0,0.8,0.1,5.3-2.7,9.1c-2.8,3.7-6.4,3.8-7,3.8h-14c-6.5,0-9.7-7.3-9.7-12.9
		C18.6,94.6,29.8,94.6,41,94.6z"/>
	<path class="st1" d="M7.5,94.6c0.1-2.6,0.2-4.7,0.3-7.3c11,0,21.9,0,32.9,0c0.1,2.4,0.2,4.9,0.3,7.3C29.8,94.6,18.6,94.6,7.5,94.6z
		"/>
	<path class="st2" d="M9.3,58.4c0.1-3.2,0.2-5,0.4-8.2c9.7,0,19.4,0,29.1,0c0.2,3.4,0.3,4.7,0.6,8.2C29.2,58.3,19.3,58.4,9.3,58.4z"
		/>
	<path class="st2" d="M7.8,87.3c0.1-1.2,0.1-2.3,0.2-3.5c10.6,0,21.7,0,32.5,0c0,1.1,0.1,2.4,0.1,3.5C29.5,87.3,18.8,87.3,7.8,87.3z
		"/>
	<path class="st3" d="M8,83.7c0.1-1.3,0.2-3.5,0.2-4.9c10.7,0,21.6,0,32.1,0c0.1,1.4,0.1,3.5,0.2,4.9C29.8,83.7,18.9,83.7,8,83.7z"
		/>
	<path class="st4" d="M8.2,78.9c0.1-1.7,0.2-3.1,0.2-4.8c10.4,0,21.1,0,31.6,0c0.1,1.7,0.2,3.1,0.2,4.8
		C29.6,78.9,19.2,78.9,8.2,78.9z"/>
	<path class="st5" d="M8.5,74.1c0.1-2.5,0.3-5.4,0.4-7.9c10.8,0,20.3,0,30.9,0c0.1,2.5,0.2,5.4,0.3,7.9
		C29.6,74.1,19.1,74.1,8.5,74.1z"/>
	<path class="st3" d="M8.9,66.2c0.1-1.5,0.2-3.3,0.2-4.8c10.3,0,19.8,0,30.4,0c0.1,1.4,0.2,3.4,0.3,4.8
		C29.3,66.2,19.3,66.2,8.9,66.2z"/>
	<path class="st5" d="M9.1,61.4c0-0.7,0.1-2.3,0.1-3c10.2,0,20-0.1,30.1-0.1c0,0.8,0.1,2.2,0.2,3.1C29.4,61.4,19.4,61.4,9.1,61.4z"
		/>
</g>
<polygon class="st0" points="6.9,76.4 0,76.4 4,49.3 9.8,48.2 "/>
<polygon class="st0" points="0.9,104.4 6.9,104.4 6.9,76.4 0,76.4 "/>
<polygon class="st0" points="41.5,76.4 48.4,76.4 44.4,49.3 38.6,48.2 "/>
<polygon class="st0" points="47.5,104.4 41.5,104.4 41.5,76.4 48.4,76.4 "/>
<path class="st6" d="M11.8,35.4c-3,0.1-6.5,0.4-7.9-1.6c-0.9-1.3-0.2-2.3-0.8-6.3c-0.6-3.7-1.3-3.6-1.2-5.6c0-2.7,1.3-3.1,3-7.8
	C6.5,9.6,5.6,9,7,7.2C8.3,5.7,9.1,6,14.2,3.4C19,0.9,19.4,0.1,21.5,0c2.4-0.1,2.4,1.1,6,1.6c4.2,0.7,5.1-0.7,7.4,0.4
	c2.1,1,1.5,2.3,4.6,5.1c2.7,2.4,3.7,2,4.8,3.8c1,1.9,0.1,2.4,1.1,5.6c0.9,2.8,1.9,3,2,5.1c0.1,1.8-0.6,2-0.8,4.5
	c-0.3,3.2,0.8,4.1,0.1,5.5c-1,2.1-4.7,2.3-7,2.5C38.2,34.1,37.3,34.2,11.8,35.4z"/>
<circle class="st0" cx="24.8" cy="23.5" r="19.7"/>
<polygon class="st7" points="24.8,24.7 21.6,33.3 28,33.3 "/>
<circle class="st8" cx="15.7" cy="26.4" r="3.8"/>
<circle class="st8" cx="34.1" cy="26.4" r="3.8"/>
<path class="st0" d="M5.4,30.7c-2.2,0-3.9-1.8-3.9-3.9s1.8-3.9,3.9-3.9C5.4,25.5,5.4,28.1,5.4,30.7z"/>
<path class="st0" d="M43.9,30.7c2.2,0,3.9-1.8,3.9-3.9s-1.8-3.9-3.9-3.9C43.9,25.5,43.9,28.1,43.9,30.7z"/>
<circle class="st9" cx="15.9" cy="26.8" r="2.4"/>
<circle class="st9" cx="34.1" cy="26.8" r="2.4"/>
<ellipse class="st10" cx="33.9" cy="18.7" rx="3.1" ry="1.9"/>
<ellipse class="st10" cx="15.9" cy="18.7" rx="3.1" ry="1.9"/>
<path class="st6" d="M31.9,9c-0.5-0.1-0.7,2.6-2.8,4.1c-1.4,1-3.7,1.6-5.6,0.9c-1.2-0.4-1.5-1.1-2.5-1.1c-1.2,0-2.2,0.9-2.9,1.7
	c-0.1-0.2-0.4-1.6,0.4-2.8c0.6-0.9,1.4-1.3,1.7-1.4c-0.9-0.3-2.2-0.4-3.1,0.2c-1.2,0.8-1,2.3-2.1,3.8c-0.6,0.9-1.9,2-4.5,2.6
	c0.3-0.3,0.8-1,1-2.1c0.2-0.9,0.1-1.7,0-2.1c-0.7,0.7-2,2.2-2.7,4.5c-0.7,2.4-0.4,4.4-0.2,5.3c0.1,0.8,0.3,1.4,0.5,1.8
	c-0.3-0.1-1.5-0.3-2.4-1.5c-0.7-1-0.7-2.1-0.7-2.4c-0.2,1.2-0.3,3.2,0.3,5.4c0.4,1.5,0.9,2.7,1.4,3.5C7,28.9,5.2,28,4.3,26.3
	c-1-1.8-0.8-3.7-0.3-5.7c1.4-5.9,2.4-10.4,6.6-14c8-6.8,18.9-3.4,20.5-2.8c1.9,0.6,8.5,2.8,11.7,8.9c1.7,3.4,0.5,4.2,2.5,12.2
	c0.1,0.6,0.4,1.7,0,3c-0.7,2.1-2.7,3.1-3.9,3.6c0.5-0.7,1.4-2.2,1.6-4.4c0.1-1.2-0.1-2.2-0.3-2.9c-0.2,0.3-0.5,0.9-1.1,1.4
	c-0.5,0.4-0.9,0.6-1.2,0.7c0.5-1,1.2-2.6,1.2-4.7c0.2-4.4-2.4-7.5-3.1-8.3c0.2,0.4,0.8,1.5,0.6,2.8c-0.1,0.6-0.3,1.1-0.5,1.4
	c-0.3-0.3-1.3-1.1-1.6-2.6c-0.2-0.8-0.1-1.5,0-1.9c-0.1,0.2-0.9,1.4-2.4,1.7c-0.9,0.2-1.6-0.1-1.9-0.2c0.1-0.6,0.4-1.5,1-2.5
	c0.4-0.6,0.9-1.1,1.2-1.4c0,0-0.9-0.5-1.8,0c-0.7,0.4-0.8,1.1-0.9,1.2C32.3,9.6,32.1,9,31.9,9z"/>
</svg>
