<?xml version="1.0" encoding="utf-8"?>
<!-- Generator: Adobe Illustrator 22.0.0, SVG Export Plug-In . SVG Version: 6.00 Build 0)  -->
<svg version="1.1" id="Layer_1" xmlns="http://www.w3.org/2000/svg" xmlns:xlink="http://www.w3.org/1999/xlink" x="0px" y="0px"
	 viewBox="0 0 66.8 207.3" style="enable-background:new 0 0 66.8 207.3;" xml:space="preserve">
<style type="text/css">
	.st0{fill:#9E804F;}
	.st1{fill:#DDC2AC;}
	.st2{fill:#A552CC;}
	.st3{fill:#8441A3;}
	.st4{fill:#B65CCC;}
	.st5{fill:#6A3987;}
	.st6{fill:#C06CE0;}
	.st7{fill:#DB947B;}
	.st8{fill:#FFFFFF;}
	.st9{fill:#5E7F6A;}
</style>
<path class="st0" d="M33.4,0c-0.6,0-14,0.1-21.4,10.5c-0.7,1-5.8,8.4-4.6,16.9c0.6,4.2,2.5,7,1.5,12c-0.4,2.1-1.1,3.5-1,6
	c0.1,3.3,1.5,5.9,2.4,7.2c2.7,3.8,7.8,3.5,21.7,4.1c16.2,0.7,20.3,1.7,22.8-1.5c2.3-2.9,2.6-8.3,2.8-10.3c0.2-2.3-0.1-3.2-0.2-5.7
	c-0.2-6.3,1.2-9,1.5-12.7c0.8-9-5.2-16.5-5.8-17.2C45.9,0.3,34.8,0,33.4,0z"/>
<polygon class="st1" points="49.4,207.3 62.7,207.3 53.6,120.7 43.8,128.1 "/>
<polygon class="st1" points="17.4,207.3 4,207.3 13.2,120.7 23,128.1 "/>
<g>
	<path class="st2" d="M13.3,60.7c0.1-1.8,0.5-4.5,2-7c3.7-6,11.3-6,18.1-6c6.5,0,12.5,0,16.9,4.4c2.3,2.2,2.9,6.2,3.1,8.6
		C40.1,60.7,26.7,60.7,13.3,60.7z"/>
	<path class="st3" d="M56.5,116.6c0,1,0.2,6.7-3.7,11.4c-3.9,4.7-8.9,4.8-9.7,4.8H23.7c-9,0-13.4-9.2-13.4-16.2
		C25.7,116.6,41.1,116.6,56.5,116.6z"/>
	<path class="st2" d="M10.3,116.6c0.2-3.3,0.3-6,0.5-9.2c15.1,0,30.2,0,45.3,0c0.1,3,0.3,6.2,0.4,9.2
		C41.1,116.6,25.7,116.6,10.3,116.6z"/>
	<path class="st3" d="M12.8,71.1c0.2-4.1,0.3-6.3,0.5-10.4c13.4,0,26.8,0,40.1,0c0.3,4.3,0.5,5.9,0.8,10.3
		C40.3,71,26.6,71.1,12.8,71.1z"/>
	<path class="st3" d="M10.8,107.4c0.1-1.5,0.2-2.9,0.2-4.5c14.6,0,29.9,0,44.9,0c0.1,1.4,0.1,3.1,0.2,4.5
		C40.7,107.4,26,107.4,10.8,107.4z"/>
	<path class="st4" d="M11,103c0.1-1.7,0.2-4.4,0.3-6.1c14.8,0,29.8,0,44.3,0c0.1,1.8,0.2,4.3,0.3,6.1C41,103,26.1,103,11,103z"/>
	<path class="st5" d="M11.3,96.9c0.1-2.2,0.2-3.8,0.3-6c14.3,0,29.1,0,43.6,0c0.1,2.1,0.2,3.9,0.3,6C40.8,96.8,26.5,96.9,11.3,96.9z
		"/>
	<path class="st6" d="M11.7,90.8c0.2-3.1,0.4-6.8,0.6-9.9c14.8,0,28,0,42.6,0c0.2,3.2,0.3,6.7,0.5,9.9
		C40.8,90.8,26.3,90.8,11.7,90.8z"/>
	<path class="st4" d="M12.3,80.9c0.1-1.9,0.2-4.2,0.3-6.1c14.2,0,27.4,0,41.9,0c0.1,1.8,0.3,4.3,0.4,6.1
		C40.4,80.9,26.6,80.9,12.3,80.9z"/>
	<path class="st6" d="M12.6,74.8c0-0.9,0.2-2.9,0.2-3.8c14.1,0,27.6-0.1,41.4-0.1c0.1,1,0.2,2.8,0.2,3.9
		C40.6,74.8,26.7,74.8,12.6,74.8z"/>
</g>
<polygon class="st1" points="9.5,93.7 0,93.7 5.6,59.6 13.6,58.3 "/>
<polygon class="st1" points="1.2,128.9 9.5,128.9 9.5,93.7 0,93.7 "/>
<polygon class="st1" points="57.3,93.7 66.8,93.7 61.2,59.6 53.2,58.3 "/>
<polygon class="st1" points="65.6,128.9 57.3,128.9 57.3,93.7 66.8,93.7 "/>
<circle class="st1" cx="33.7" cy="25.2" r="23.9"/>
<polygon class="st7" points="33.7,27.1 29.8,37.5 37.6,37.5 "/>
<circle class="st8" cx="22.6" cy="29.1" r="4.7"/>
<circle class="st8" cx="45.1" cy="29.1" r="4.7"/>
<path class="st1" d="M10.2,33.9c-2.6,0-4.8-2.2-4.8-4.8s2.2-4.8,4.8-4.8C10.2,27.6,10.2,30.7,10.2,33.9z"/>
<path class="st1" d="M56.9,33.9c2.6,0,4.8-2.2,4.8-4.8s-2.2-4.8-4.8-4.8C56.9,27.6,56.9,30.7,56.9,33.9z"/>
<circle class="st9" cx="22.9" cy="29.6" r="2.9"/>
<circle class="st9" cx="45.1" cy="29.6" r="2.9"/>
<path class="st0" d="M14.2,20.9c0.6,1.8,1.2,4,1.5,6.5c0.8,6.6-0.7,12-1.9,15.2C11.4,39,6.7,30.5,9.4,22c0-0.1-0.1-2.4,0.3-3.6
	c1.5-3.7,1.9-5.8,2.1-6.2C13.1,8.8,19.2,4,26.5,1.7C36.3-1.5,44.5,3,46,3.9c0.9,0.5,10.6,6.3,11.8,16.5c0.1,1,0.1,1.7,0.1,3.1
	c-0.1,10.2-2.8,23-4.9,22.9c-1.8-0.1-3.8-9.7-1.5-18.5c0.5-1.9,1.2-3.6,1.8-4.9c-0.9-1.4-2.4-3.3-4.7-5c-2.6-1.9-4.6-2.1-7.2-3.4
	c-2.2-1-5.2-2.9-8.4-6.4c-2.5,2.9-4.9,4.3-6.6,5.1c-2.7,1.2-4.3,0.9-6.7,2.2C16.9,17,15.2,19.3,14.2,20.9z"/>
<ellipse class="st0" cx="44.8" cy="19.7" rx="3.8" ry="2.3"/>
<ellipse class="st0" cx="22.9" cy="19.7" rx="3.8" ry="2.3"/>
</svg>
