<?xml version="1.0" encoding="utf-8"?>
<!-- Generator: Adobe Illustrator 22.0.0, SVG Export Plug-In . SVG Version: 6.00 Build 0)  -->
<svg version="1.1" id="Layer_1" xmlns="http://www.w3.org/2000/svg" xmlns:xlink="http://www.w3.org/1999/xlink" x="0px" y="0px"
	 viewBox="0 0 63.8 219.1" style="enable-background:new 0 0 63.8 219.1;" xml:space="preserve">
<style type="text/css">
	.st0{fill:#8E6549;}
	.st1{fill:#E5CBAC;}
	.st2{fill:#52DDB5;}
	.st3{fill:#4BBC93;}
	.st4{fill:#4FA382;}
	.st5{fill:#60B293;}
	.st6{fill:#50EFBD;}
	.st7{fill:#DB947B;}
	.st8{fill:#FFFFFF;}
	.st9{fill:#5F8280;}
	.st10{fill:#B57E6D;}
</style>
<path class="st0" d="M27.6,52.8c-0.3,0.3-3.9,3.1-8.2,1.8c-3-0.9-4.5-3.1-5-3.7c-0.4,0.1-3.1,0.9-5.5-0.7c-2.1-1.4-3.1-4-2.6-6.7
	c-1.2-1.8-2.9-5-3.5-9.3c-0.9-6.2,0.9-11,1.8-13.1C4.5,19.8,4,14.4,7.7,9.6c5.3-6.8,14.2-5.9,14.7-5.9C23,3.1,25.8,0.3,30.3,0
	c5.4-0.3,8.8,3.2,9.3,3.7c1.7,0.1,5.7,0.6,9.6,3.3c5.2,3.7,6.8,9,7.2,10.5c1.2,2.7,3.2,8.1,2.3,14.9c-0.4,3.1-1.3,5.7-2.1,7.6
	c0.1,0.6,0.3,3.6-1.7,6.3c-2.1,2.8-5.1,3.3-5.7,3.4c-0.2,0.6-1.4,3.9-4.9,5.4c-3.3,1.4-7.4,0.5-10.2-2.4c-0.3,1.3-1.1,2.4-2.2,2.7
	C30.3,56,28.3,54.9,27.6,52.8z"/>
<polygon class="st1" points="47.2,219.1 60,219.1 51.2,128.1 41.9,135.9 "/>
<polygon class="st1" points="16.6,219.1 3.9,219.1 12.6,128.1 21.9,135.9 "/>
<g>
	<path class="st2" d="M12.7,65c0.1-1.9,0.5-4.8,1.9-7.3c3.5-6.3,10.8-6.3,17.3-6.3c6.2,0,11.9,0,16.2,4.6c2.2,2.3,2.8,6.5,3,9
		C38.3,65,25.5,65,12.7,65z"/>
	<path class="st3" d="M54,123.8c0,1,0.2,7.1-3.6,12c-3.7,4.9-8.5,5-9.3,5H22.7c-8.6,0-12.8-9.6-12.8-17
		C24.6,123.8,39.3,123.8,54,123.8z"/>
	<path class="st2" d="M9.8,123.8c0.2-3.4,0.3-6.3,0.5-9.7c14.4,0,28.9,0,43.3,0c0.1,3.2,0.3,6.5,0.4,9.7
		C39.3,123.8,24.5,123.8,9.8,123.8z"/>
	<path class="st3" d="M12.2,75.9c0.2-4.3,0.3-6.6,0.5-10.9c12.8,0,25.6,0,38.4,0c0.3,4.5,0.4,6.2,0.7,10.8
		C38.5,75.8,25.4,75.9,12.2,75.9z"/>
	<path class="st3" d="M10.3,114.1c0.1-1.6,0.2-3.1,0.2-4.7c14,0,28.6,0,42.9,0c0.1,1.5,0.1,3.2,0.2,4.7
		C38.9,114.1,24.8,114.1,10.3,114.1z"/>
	<path class="st4" d="M10.5,109.4c0.1-1.7,0.2-4.7,0.3-6.4c14.1,0,28.5,0,42.3,0c0.1,1.9,0.2,4.6,0.3,6.4
		C39.2,109.4,24.9,109.4,10.5,109.4z"/>
	<path class="st5" d="M10.8,103c0.1-2.3,0.2-4,0.3-6.3c13.7,0,27.8,0,41.7,0c0.1,2.2,0.2,4.1,0.3,6.3C39,103,25.3,103,10.8,103z"/>
	<path class="st6" d="M11.2,96.7c0.2-3.3,0.4-7.1,0.5-10.4c14.2,0,26.7,0,40.7,0c0.2,3.3,0.3,7.1,0.5,10.4
		C38.9,96.7,25.2,96.7,11.2,96.7z"/>
	<path class="st2" d="M11.7,86.3c0.1-2,0.2-4.4,0.3-6.4c13.5,0,26.1,0,40,0c0.1,1.9,0.2,4.5,0.3,6.4C38.6,86.3,25.4,86.3,11.7,86.3z
		"/>
	<path class="st6" d="M12,79.9c0-1,0.1-3,0.2-4c13.5,0,26.3-0.1,39.6-0.1c0.1,1.1,0.2,3,0.2,4.1C38.8,79.9,25.5,79.9,12,79.9z"/>
</g>
<polygon class="st1" points="9.1,99.7 0,99.7 5.3,63.9 13,62.5 "/>
<polygon class="st1" points="1.2,136.7 9.1,136.7 9.1,99.7 0,99.7 "/>
<polygon class="st1" points="54.7,99.7 63.8,99.7 58.5,63.9 50.9,62.5 "/>
<polygon class="st1" points="62.6,136.7 54.7,136.7 54.7,99.7 63.8,99.7 "/>
<circle class="st1" cx="31.4" cy="29.5" r="25.1"/>
<polygon class="st7" points="31.4,31.5 27.3,42.4 35.5,42.4 "/>
<circle class="st8" cx="19.8" cy="33.7" r="4.9"/>
<circle class="st8" cx="43.3" cy="33.7" r="4.9"/>
<path class="st1" d="M6.8,38.6c-2.7,0-5-2.3-5-5s2.3-5,5-5C6.8,32,6.8,35.3,6.8,38.6z"/>
<path class="st1" d="M55.7,38.6c2.7,0,5-2.3,5-5s-2.3-5-5-5C55.7,32,55.7,35.3,55.7,38.6z"/>
<circle class="st9" cx="20" cy="34.1" r="3"/>
<circle class="st9" cx="43.3" cy="34.1" r="3"/>
<ellipse class="st0" cx="43" cy="23.7" rx="3.9" ry="2.4"/>
<ellipse class="st0" cx="20" cy="23.7" rx="3.9" ry="2.4"/>
<circle class="st10" cx="16.3" cy="43" r="0.5"/>
<circle class="st10" cx="20.2" cy="41" r="0.5"/>
<circle class="st10" cx="24.2" cy="43" r="0.5"/>
<circle class="st10" cx="47.2" cy="43" r="0.5"/>
<circle class="st10" cx="43.3" cy="41" r="0.5"/>
<circle class="st10" cx="39.3" cy="43" r="0.5"/>
<path class="st0" d="M17.3,14.8c2.6,1.9,4.8,2.3,6.3,2.4c3.2,0.2,5.2-1.3,8.8-0.5c1.5,0.3,2.6,0.8,3.2,1.2c0.2-0.2,0.5-0.6,0.6-1.2
	c0.2-1.4-0.9-2.4-1-2.4c0.8,0,2,0.2,3.2,0.8c1.8,0.9,1.8,1.7,3.4,2.7c2,1.2,2.7,0.6,6.4,2c1.6,0.6,2.5,1,2.9,1.6
	c1.6,2,0.5,5.3,0.2,6.3c-0.4,1.2-0.9,2.2-1.3,2.7c0.3,0.1,0.9,0.1,1.6-0.1c1.4-0.5,1.9-1.8,2-2c0.2,1.7-0.2,2.9-0.6,3.7
	c-0.6,1.2-1.4,1.6-2,2.8c-0.7,1.3-0.8,2.6-0.7,3.6c0.1-0.3,0.5-1,1.1-1.5c0.9-0.8,2-0.9,2.3-0.9c-0.1,0.6-0.1,1.2,0,1.9
	c0.2,1.7,0.7,3,1.1,3.9c0.7-1.8,1.6-4.4,2-7.7c0.3-2.8,1.5-11.6-4.1-19.7C45.5,3.7,32.2,3.5,31.6,3.5c-12,0-19.2,8.4-20.3,9.6
	c-0.8,1-7.3,9-6,20.1C5.8,37,7,40,7.9,41.9c0.5-1.5,1.1-3.7,1-6.4c0-1.6-0.2-2.9-0.5-4.1c0.2,0.1,1,0.3,1.5,1.1
	c0.6,0.9,0.5,1.8,0.5,2c0.3-0.7,0.7-2.1,0.6-3.9c-0.1-1.7-0.7-3-1.1-3.6c0.5-0.7,1.2-1.8,2.2-3c1.1-1.4,1.9-2,2.4-2.6
	C15.7,20.2,16.9,18.3,17.3,14.8z"/>
</svg>
