<?xml version="1.0" encoding="utf-8"?>
<!-- Generator: Adobe Illustrator 22.0.0, SVG Export Plug-In . SVG Version: 6.00 Build 0)  -->
<svg version="1.1" id="Layer_1" xmlns="http://www.w3.org/2000/svg" xmlns:xlink="http://www.w3.org/1999/xlink" x="0px" y="0px"
	 viewBox="0 0 44 153.3" style="enable-background:new 0 0 44 153.3;" xml:space="preserve">
<style type="text/css">
	.st0{fill:#7A5A44;}
	.st1{fill:#BC9D88;}
	.st2{fill:#6C52CC;}
	.st3{fill:#4D41A3;}
	.st4{fill:#725CCC;}
	.st5{fill:#463987;}
	.st6{fill:#856CE0;}
	.st7{fill:#DB947B;}
	.st8{fill:#FFFFFF;}
	.st9{fill:#665B4F;}
	.st10{fill:#B58168;}
</style>
<path class="st0" d="M11.6,29c-2.5,0.1-5.3,0.3-6.5-1.3c-0.7-1-0.2-1.9-0.7-5.1c-0.5-3-1-2.9-1-4.6c0-2.3,1.1-2.6,2.5-6.4
	c1.3-3.6,0.6-4.2,1.8-5.6c1-1.3,1.7-1,5.8-3.1c4-2,4.3-2.8,6-2.8c2-0.1,2,0.9,4.9,1.3c3.5,0.6,4.2-0.6,6,0.3
	c1.7,0.8,1.2,1.9,3.8,4.1c2.2,1.9,3.1,1.6,3.9,3.1c0.9,1.5,0.1,2,0.9,4.6c0.7,2.3,1.5,2.4,1.7,4.1c0.1,1.5-0.5,1.6-0.7,3.7
	c-0.2,2.6,0.6,3.4,0.1,4.5c-0.8,1.7-3.9,1.9-5.7,2C33.2,28,32.5,28,11.6,29z"/>
<polygon class="st1" points="32.5,153 41.3,153 35.3,87.9 28.9,93.5 "/>
<polygon class="st1" points="11.5,153.3 2.7,153.3 8.7,88.2 15.1,93.8 "/>
<g>
	<path class="st2" d="M8.8,42.9c0.1-1.4,0.3-3.4,1.3-5.2c2.4-4.5,7.5-4.5,11.9-4.5c4.3,0,8.2,0,11.2,3.3c1.5,1.7,1.9,4.6,2.1,6.4
		C26.4,42.9,17.6,42.9,8.8,42.9z"/>
	<path class="st3" d="M37.2,84.9c0,0.7,0.1,5-2.5,8.6c-2.6,3.5-5.8,3.6-6.4,3.6H15.6c-5.9,0-8.9-6.9-8.9-12.1
		C16.9,84.9,27.1,84.9,37.2,84.9z"/>
	<path class="st2" d="M6.8,84.9c0.1-2.4,0.2-4.5,0.3-6.9c10,0,19.9,0,29.8,0c0.1,2.3,0.2,4.6,0.3,6.9C27.1,84.9,16.9,84.9,6.8,84.9z
		"/>
	<path class="st3" d="M8.4,50.6c0.1-3.1,0.2-4.7,0.3-7.8c8.8,0,17.6,0,26.4,0c0.2,3.3,0.3,4.5,0.5,7.7C26.6,50.6,17.5,50.6,8.4,50.6
		z"/>
	<path class="st3" d="M7.1,77.9c0.1-1.1,0.1-2.2,0.2-3.4c9.6,0,19.7,0,29.6,0c0,1,0.1,2.3,0.1,3.4C26.8,77.9,17.1,77.9,7.1,77.9z"/>
	<path class="st4" d="M7.3,74.6c0.1-1.2,0.1-3.3,0.2-4.6c9.7,0,19.6,0,29.2,0c0.1,1.3,0.1,3.3,0.2,4.6C27,74.6,17.2,74.6,7.3,74.6z"
		/>
	<path class="st5" d="M7.5,70c0.1-1.6,0.1-2.9,0.2-4.5c9.4,0,19.2,0,28.7,0c0.1,1.6,0.1,2.9,0.2,4.5C26.9,70,17.5,70,7.5,70z"/>
	<path class="st6" d="M7.7,65.5C7.8,63.1,8,60.4,8.1,58c9.8,0,18.4,0,28,0c0.1,2.4,0.2,5.1,0.3,7.4C26.8,65.5,17.4,65.5,7.7,65.5z"
		/>
	<path class="st4" d="M8.1,58c0.1-1.4,0.2-3.2,0.2-4.6c9.3,0,18,0,27.6,0c0.1,1.3,0.2,3.2,0.2,4.6C26.6,58,17.5,58,8.1,58z"/>
	<path class="st6" d="M8.3,53.5c0-0.7,0.1-2.1,0.1-2.8c9.3,0,18.2-0.1,27.3-0.1c0,0.8,0.1,2.1,0.2,2.9C26.7,53.5,17.6,53.5,8.3,53.5
		z"/>
</g>
<polygon class="st1" points="6.3,67.9 0,67.9 3.7,42.3 8.9,41.3 "/>
<polygon class="st1" points="0.8,94.3 6.3,94.3 6.3,67.9 0,67.9 "/>
<polygon class="st1" points="37.7,67.9 44,67.9 40.3,42.3 35.1,41.3 "/>
<polygon class="st1" points="43.2,94.3 37.7,94.3 37.7,67.9 44,67.9 "/>
<circle class="st1" cx="22.2" cy="19.3" r="16.2"/>
<polygon class="st7" points="22.2,20.3 19.6,27.3 24.8,27.3 "/>
<circle class="st8" cx="14.7" cy="21.7" r="3.1"/>
<circle class="st8" cx="29.9" cy="21.7" r="3.1"/>
<path class="st1" d="M6.3,25.2c-1.8,0-3.2-1.5-3.2-3.2c0-1.8,1.5-3.2,3.2-3.2C6.3,20.9,6.3,23,6.3,25.2z"/>
<path class="st1" d="M37.9,25.2c1.8,0,3.2-1.5,3.2-3.2c0-1.8-1.5-3.2-3.2-3.2C37.9,20.9,37.9,23,37.9,25.2z"/>
<circle class="st9" cx="14.9" cy="22" r="1.9"/>
<circle class="st9" cx="29.9" cy="22" r="1.9"/>
<ellipse class="st0" cx="29.7" cy="15.3" rx="2.5" ry="1.5"/>
<ellipse class="st0" cx="14.9" cy="15.3" rx="2.5" ry="1.5"/>
<path class="st0" d="M13.5,7.5c2.6,2.1,4.6,2.4,5.9,2.2c2-0.2,2.5-1.2,4.7-1.1c1.5,0.1,2.6,0.6,4.3,1.5c2.5,1.3,2.2,2.2,4.5,3.1
	c1.5,0.6,2.3,0.6,2.9,1.5c0.4,0.6,0.4,1.1,0.4,2.7c0,4-0.2,4.7,0.2,5.9c0.2,0.7,0.7,1.7,1.9,2.8c0.7-1.9,1.7-5.4,0.9-9.6
	c-0.1-0.6-1.9-10-9.9-13.4c-3.3-1.4-6.4-1.3-8-1.2c-1.7,0.1-5,0.3-8.3,2.2C6.6,7.9,5.3,15.6,5.1,17.1c-0.6,4,0.3,7.4,1,9.4
	c1.1-1.6,1.6-2.9,1.8-3.9c0.4-1.8,0.4-4.3,0.3-6.5c0-1.2,0-1.9,0.4-2.6c0.7-1,1.8-0.8,2.8-1.5C12.3,11.6,13.2,10.4,13.5,7.5z"/>
<circle class="st10" cx="12" cy="27.1" r="0.5"/>
<circle class="st10" cx="15.3" cy="25.8" r="0.5"/>
<circle class="st10" cx="18" cy="27.1" r="0.5"/>
<circle class="st10" cx="32.9" cy="27" r="0.5"/>
<circle class="st10" cx="29.5" cy="25.6" r="0.5"/>
<circle class="st10" cx="26.9" cy="27" r="0.5"/>
</svg>
