<?xml version="1.0" encoding="utf-8"?>
<!-- Generator: Adobe Illustrator 22.0.0, SVG Export Plug-In . SVG Version: 6.00 Build 0)  -->
<svg version="1.1" id="Layer_1" xmlns="http://www.w3.org/2000/svg" xmlns:xlink="http://www.w3.org/1999/xlink" x="0px" y="0px"
	 viewBox="0 0 57 195.2" style="enable-background:new 0 0 57 195.2;" xml:space="preserve">
<style type="text/css">
	.st0{fill:#8C5E4B;}
	.st1{fill:#E2C5AC;}
	.st2{fill:#53DBA4;}
	.st3{fill:#4ABA78;}
	.st4{fill:#4EA079;}
	.st5{fill:#61AF89;}
	.st6{fill:#51EDA3;}
	.st7{fill:#DB947B;}
	.st8{fill:#FFFFFF;}
	.st9{fill:#5F8280;}
</style>
<path class="st0" d="M28.3,1.6c-1.3-0.5-3.9-1.3-7.1-0.8c-5.7,0.9-8.8,5.2-9.4,6.1C10.6,7.2,7.6,8.2,5.4,11
	c-4.1,5.3-1.8,12-1.6,12.5C3.1,25,1.3,29.7,2.9,35.1c0.7,2.3,1.7,4,2.6,5.2c-0.1,0.4-1.8,5.6,1.7,9.9c2.7,3.3,6.5,3.7,7.2,3.8
	c1,1.1,4.6,4.6,10.3,5.3c8,0.9,13.4-4.6,14.1-5.3c1.1-0.1,4.7-0.6,7.7-3.6c3.7-3.7,3.7-8.5,3.6-9.3c0.8-1.1,1.7-2.3,2.3-3.9
	c3-6.9,0.3-13.9-0.6-15.9c0.2-1.1,1-5.8-1.8-10.5c-3.3-5.4-8.8-6.7-9.7-6.9c-0.5-0.7-1.8-2.5-4.2-3.3C32.2-1,28.7,1.3,28.3,1.6z"/>
<polygon class="st1" points="42.2,195.2 53.6,195.2 45.8,113.8 37.4,120.8 "/>
<polygon class="st1" points="14.9,195.2 3.5,195.2 11.3,113.8 19.6,120.8 "/>
<g>
	<path class="st2" d="M11.4,57.5c0.1-1.7,0.4-4.3,1.7-6.6c3.2-5.7,9.7-5.6,15.5-5.6c5.5,0,10.6,0,14.5,4.1c1.9,2.1,2.5,5.8,2.7,8
		C34.2,57.5,22.8,57.5,11.4,57.5z"/>
	<path class="st3" d="M48.2,110c0,0.9,0.1,6.3-3.2,10.7c-3.3,4.4-7.6,4.5-8.3,4.5H20.3c-7.7,0-11.5-8.6-11.5-15.2
		C21.9,110,35.1,110,48.2,110z"/>
	<path class="st2" d="M8.8,110c0.1-3.1,0.3-5.6,0.4-8.7c12.9,0,25.8,0,38.7,0c0.1,2.8,0.2,5.8,0.3,8.7C35.1,110,21.9,110,8.8,110z"
		/>
	<path class="st3" d="M10.9,67.2c0.2-3.8,0.3-5.9,0.4-9.7c11.4,0,22.9,0,34.3,0c0.3,4.1,0.4,5.6,0.7,9.7
		C34.4,67.1,22.7,67.2,10.9,67.2z"/>
	<path class="st3" d="M9.2,101.4c0.1-1.4,0.1-2.8,0.2-4.2c12.5,0,25.6,0,38.3,0c0.1,1.3,0.1,2.9,0.2,4.2
		C34.8,101.4,22.2,101.4,9.2,101.4z"/>
	<path class="st4" d="M9.4,97.2c0.1-1.6,0.2-4.2,0.3-5.7c12.6,0,25.5,0,37.8,0c0.1,1.7,0.2,4.1,0.2,5.7
		C35.1,97.2,22.3,97.2,9.4,97.2z"/>
	<path class="st5" d="M9.7,91.4c0.1-2,0.2-3.6,0.3-5.7c12.2,0,24.9,0,37.3,0c0.1,2,0.2,3.6,0.3,5.6C34.9,91.4,22.7,91.4,9.7,91.4z"
		/>
	<path class="st6" d="M10,85.8c0.2-3,0.3-6.4,0.5-9.3c12.7,0,23.9,0,36.4,0c0.1,3,0.3,6.3,0.4,9.3C34.8,85.8,22.5,85.8,10,85.8z"/>
	<path class="st2" d="M10.5,76.5c0.1-1.8,0.2-3.9,0.3-5.7c12.1,0,23.4,0,35.8,0c0.1,1.7,0.2,4,0.3,5.7
		C34.5,76.5,22.7,76.5,10.5,76.5z"/>
	<path class="st6" d="M10.8,70.8c0-0.9,0.1-2.7,0.2-3.6c12,0,23.5-0.1,35.4-0.1c0.1,1,0.2,2.6,0.2,3.6
		C34.7,70.8,22.8,70.8,10.8,70.8z"/>
</g>
<polygon class="st1" points="8.1,88.5 0,88.5 4.8,56.5 11.6,55.2 "/>
<polygon class="st1" points="1,121.5 8.1,121.5 8.1,88.5 0,88.5 "/>
<polygon class="st1" points="48.9,88.5 57,88.5 52.3,56.5 45.5,55.2 "/>
<polygon class="st1" points="56,121.5 48.9,121.5 48.9,88.5 57,88.5 "/>
<circle class="st1" cx="28.1" cy="25.7" r="22.4"/>
<polygon class="st7" points="28.1,27.5 24.4,37.3 31.7,37.3 "/>
<circle class="st8" cx="17.7" cy="29.4" r="4.4"/>
<circle class="st8" cx="38.7" cy="29.4" r="4.4"/>
<path class="st1" d="M6,33.9c-2.4,0-4.5-2-4.5-4.5S3.6,25,6,25C6,28,6,30.9,6,33.9z"/>
<path class="st1" d="M49.8,33.9c2.4,0,4.5-2,4.5-4.5s-2-4.5-4.5-4.5C49.8,28,49.8,30.9,49.8,33.9z"/>
<circle class="st9" cx="17.9" cy="29.9" r="2.7"/>
<circle class="st9" cx="38.7" cy="29.9" r="2.7"/>
<ellipse class="st0" cx="38.5" cy="20.6" rx="3.5" ry="2.1"/>
<ellipse class="st0" cx="17.9" cy="20.6" rx="3.5" ry="2.1"/>
<path class="st0" d="M13.6,13.8c2.2,1.8,4.1,2.4,5.4,2.5c2.5,0.3,4.1-0.5,6.6,0.4c1.3,0.5,2.2,1.2,2.7,1.7c0.1-0.2,1-1.1,0.8-2.5
	c-0.2-1.7-1.7-2.6-1.8-2.6c1.2,0.9,3,2.1,5.6,2.8c3.7,1.1,6.8,0.6,8.4,0.3c-0.4-0.3-1-0.7-1.5-1.2c-0.6-0.6-1-1.2-1.3-1.7
	c0.7,0.1,3.1,0.5,5,2.6c2.3,2.5,2.2,5.6,2.1,6.2c0.1,0,0.8,0,1.3-0.6c0.6-0.7,0.3-1.7,0.3-1.7c0.2,0.5,0.4,1.4,0.5,2.4
	c0.2,2.3-0.7,6-0.7,6c-0.5,1.9-0.4,4.7,2.2,9.1c0.8-2,1.7-4.9,2-8.5c0.2-2,0.7-9.3-3.2-15.7c-4-6.5-11.8-11-20.3-10.8
	c-9.5,0.2-17,6.1-20.6,12.7c-0.8,1.5-3.6,6.9-2.6,14c0.6,4.3,2.4,7.5,3.5,9.2c0.8-2.6,1.5-6,1.6-10c0-1.8,0-3.4-0.2-4.9
	c0.4,0.5,1.1,1.5,1.4,2.9c0.2,1.2,0.1,2.2,0,2.7c1.6-3.3,1.5-5.7,1.2-7.3c-0.3-1.6-1-2.7-0.7-4.4C11.7,15.7,12.8,14.5,13.6,13.8z"/>
</svg>
