<?xml version="1.0" encoding="utf-8"?>
<!-- Generator: Adobe Illustrator 22.0.0, SVG Export Plug-In . SVG Version: 6.00 Build 0)  -->
<svg version="1.1" id="Layer_1" xmlns="http://www.w3.org/2000/svg" xmlns:xlink="http://www.w3.org/1999/xlink" x="0px" y="0px"
	 viewBox="0 0 94.8 59.9" style="enable-background:new 0 0 94.8 59.9;" xml:space="preserve">
<style type="text/css">
	.st0{fill:#A08664;}
	.st1{fill:#897459;}
	.st2{fill:#FFFFFF;}
</style>
<g>
	<g>
		<g>
			<path class="st0" d="M93.3,35.8L93.3,35.8c3.6,7.2,0.6,15.6-6.8,18.8l0,0C55.1,68.3,17,54.7,1.5,24.1l0,0
				C-2.1,17,0.9,8.6,8.3,5.3l0,0C39.8-8.4,77.8,5.3,93.3,35.8z"/>
		</g>
	</g>
	<g>
		<g>
			<path class="st1" d="M16.1,18.5c20.6,7.4,41.2,14.8,61.8,22.1"/>
		</g>
		<g>
			<path class="st1" d="M79.5,41.2c-0.3,0.8-1.3,1.3-2.2,0.9L15.6,20c-0.9-0.3-1.4-1.3-1.1-2.1c0.3-0.8,1.3-1.3,2.2-0.9l61.8,22.1
				C79.3,39.4,79.8,40.3,79.5,41.2z"/>
		</g>
	</g>
	<g>
		<g>
			<ellipse transform="matrix(0.3396 -0.9406 0.9406 0.3396 -6.2763 29.2762)" class="st2" cx="17.7" cy="19.1" rx="4.5" ry="0.9"/>
		</g>
	</g>
	<g>
		<g>
			<ellipse transform="matrix(0.3396 -0.9406 0.9406 0.3396 -4.6796 34.6859)" class="st2" cx="22.4" cy="20.7" rx="4.5" ry="0.9"/>
		</g>
	</g>
	<g>
		<g>
			<ellipse transform="matrix(0.3396 -0.9406 0.9406 0.3396 -2.9271 41.0707)" class="st2" cx="27.8" cy="22.6" rx="4.5" ry="0.9"/>
		</g>
	</g>
	<g>
		<g>
			<ellipse transform="matrix(0.3396 -0.9406 0.9406 0.3396 -1.1747 47.4555)" class="st2" cx="33.2" cy="24.6" rx="4.5" ry="0.9"/>
		</g>
	</g>
	<g>
		<g>
			<ellipse transform="matrix(0.3396 -0.9406 0.9406 0.3396 0.7306 53.7987)" class="st2" cx="38.7" cy="26.4" rx="4.5" ry="0.9"/>
		</g>
	</g>
	<g>
		<g>
			<ellipse transform="matrix(0.3396 -0.9406 0.9406 0.3396 2.3302 60.225)" class="st2" cx="44.1" cy="28.5" rx="4.5" ry="0.9"/>
		</g>
	</g>
	<g>
		<g>
			<ellipse transform="matrix(0.3396 -0.9406 0.9406 0.3396 4.0826 66.6098)" class="st2" cx="49.5" cy="30.4" rx="4.5" ry="0.9"/>
		</g>
	</g>
	<g>
		<g>
			<ellipse transform="matrix(0.3396 -0.9406 0.9406 0.3396 6.1407 72.9114)" class="st2" cx="55" cy="32.1" rx="4.5" ry="0.9"/>
		</g>
	</g>
	<g>
		<g>
			<ellipse transform="matrix(0.3396 -0.9406 0.9406 0.3396 7.8931 79.2962)" class="st2" cx="60.4" cy="34" rx="4.5" ry="0.9"/>
		</g>
	</g>
	<g>
		<g>
			<ellipse transform="matrix(0.3396 -0.9406 0.9406 0.3396 9.6456 85.681)" class="st2" cx="65.8" cy="36" rx="4.5" ry="0.9"/>
		</g>
	</g>
	<g>
		<g>
			<ellipse transform="matrix(0.3396 -0.9406 0.9406 0.3396 11.398 92.0658)" class="st2" cx="71.3" cy="37.9" rx="4.5" ry="0.9"/>
		</g>
	</g>
	<g>
		<g>
			<ellipse transform="matrix(0.3396 -0.9406 0.9406 0.3396 12.7406 98.5621)" class="st2" cx="76.6" cy="40.2" rx="4.5" ry="0.9"/>
		</g>
	</g>
</g>
</svg>
