<?xml version="1.0" encoding="utf-8"?>
<!-- Generator: Adobe Illustrator 22.0.0, SVG Export Plug-In . SVG Version: 6.00 Build 0)  -->
<svg version="1.1" id="Layer_1" xmlns="http://www.w3.org/2000/svg" xmlns:xlink="http://www.w3.org/1999/xlink" x="0px" y="0px"
	 viewBox="0 0 330.3 330.3" style="enable-background:new 0 0 330.3 330.3;" xml:space="preserve">
<style type="text/css">
	.st0{clip-path:url(#SVGID_2_);fill:#E8C19E;}
	.st1{clip-path:url(#SVGID_2_);fill:#DD8968;}
	.st2{clip-path:url(#SVGID_2_);fill:#A57060;}
	.st3{clip-path:url(#SVGID_2_);fill:#BC6A57;}
	.st4{clip-path:url(#SVGID_2_);fill:none;stroke:#5B3B36;stroke-width:7;stroke-linecap:round;stroke-miterlimit:10;}
	.st5{fill:none;stroke:#F4D090;stroke-width:5;stroke-miterlimit:10;}
</style>
<g>
	<defs>
		<circle id="SVGID_1_" cx="165.2" cy="165.2" r="162.7"/>
	</defs>
	<clipPath id="SVGID_2_">
		<use xlink:href="#SVGID_1_"  style="overflow:visible;"/>
	</clipPath>
	<circle class="st0" cx="165.2" cy="165.2" r="162.7"/>
	<polygon class="st1" points="162.5,-36.6 84.7,188.4 240.3,188.4 	"/>
	<polygon class="st2" points="162.5,173.3 84.7,188.4 240.3,188.4 	"/>
	<circle class="st3" cx="124.1" cy="114.7" r="7.6"/>
	<circle class="st3" cx="144.7" cy="78" r="7.6"/>
	<circle class="st3" cx="138.8" cy="139.3" r="7.6"/>
	<circle class="st3" cx="96.6" cy="86.5" r="7.6"/>
	<circle class="st3" cx="53.5" cy="183.6" r="7.6"/>
	<circle class="st3" cx="2.5" cy="145.2" r="7.6"/>
	<circle class="st3" cx="264.5" cy="153.7" r="7.6"/>
	<circle class="st3" cx="239.8" cy="123.2" r="7.6"/>
	<circle class="st3" cx="215.2" cy="157.3" r="7.6"/>
	<circle class="st3" cx="190" cy="140.3" r="7.6"/>
	<circle class="st3" cx="304.4" cy="168.9" r="7.6"/>
	<circle class="st3" cx="326.3" cy="146.2" r="7.6"/>
	<circle class="st3" cx="61" cy="126.2" r="5.1"/>
	<circle class="st3" cx="45.9" cy="166.6" r="5.1"/>
	<circle class="st3" cx="12.5" cy="115.7" r="5.1"/>
	<circle class="st3" cx="31.9" cy="145.1" r="5.1"/>
	<circle class="st3" cx="12.5" cy="205.8" r="5.1"/>
	<circle class="st3" cx="58.1" cy="85.5" r="5.1"/>
	<circle class="st3" cx="121.2" cy="60" r="5.1"/>
	<circle class="st3" cx="146.4" cy="49.9" r="5.1"/>
	<circle class="st3" cx="152.7" cy="108.1" r="5.1"/>
	<circle class="st3" cx="87" cy="159.3" r="5.1"/>
	<circle class="st3" cx="116" cy="134.6" r="5.1"/>
	<circle class="st3" cx="162.5" cy="162.2" r="5.1"/>
	<circle class="st3" cx="264.5" cy="126.6" r="5.1"/>
	<circle class="st3" cx="279.6" cy="167" r="5.1"/>
	<circle class="st3" cx="313" cy="116.1" r="5.1"/>
	<circle class="st3" cx="293.6" cy="145.5" r="5.1"/>
	<circle class="st3" cx="313" cy="206.2" r="5.1"/>
	<circle class="st3" cx="267.5" cy="85.9" r="5.1"/>
	<circle class="st3" cx="204.4" cy="60.4" r="5.1"/>
	<circle class="st3" cx="179.1" cy="50.3" r="5.1"/>
	<circle class="st3" cx="172.8" cy="108.5" r="5.1"/>
	<circle class="st3" cx="238.5" cy="159.7" r="5.1"/>
	<circle class="st3" cx="209.5" cy="135" r="5.1"/>
	<path class="st4" d="M48.2,254.1c18.2,10.4,61.7,31.8,120.5,30c51.2-1.6,88.9-20.1,107-30.5"/>
</g>
<circle class="st5" cx="165.2" cy="165.2" r="162.7"/>
</svg>
