<?xml version="1.0" encoding="utf-8"?>
<!-- Generator: Adobe Illustrator 22.0.0, SVG Export Plug-In . SVG Version: 6.00 Build 0)  -->
<svg version="1.1" id="Layer_1" xmlns="http://www.w3.org/2000/svg" xmlns:xlink="http://www.w3.org/1999/xlink" x="0px" y="0px"
	 viewBox="0 0 292.8 190.5" style="enable-background:new 0 0 292.8 190.5;" xml:space="preserve">
<style type="text/css">
	.st0{fill:#65BA99;}
	.st1{fill:#7CCCE5;}
</style>
<g>
	<g>
		<g>
			
				<rect x="11.8" y="14.5" transform="matrix(0.2213 -0.9752 0.9752 0.2213 -2.127 27.8368)" class="st0" width="9.2" height="1.6"/>
		</g>
		<g>
			
				<rect x="61.9" y="40.1" transform="matrix(0.6471 -0.7624 0.7624 0.6471 -7.6686 65.1173)" class="st0" width="9.2" height="1.6"/>
		</g>
		<g>
			
				<rect x="51.7" y="32.3" transform="matrix(0.5599 -0.8285 0.8285 0.5599 -2.6262 61.2351)" class="st0" width="9.2" height="1.6"/>
		</g>
		<g>
			
				<rect x="24.1" y="18.1" transform="matrix(0.3262 -0.9453 0.9453 0.3262 1.4708 39.8261)" class="st0" width="9.2" height="1.6"/>
		</g>
		<g>
			<rect x="29.7" y="23" transform="matrix(0.4271 -0.9042 0.9042 0.4271 1.8029 50.4052)" class="st0" width="21.9" height="1.6"/>
		</g>
		<g>
			
				<rect x="27.9" y="21.3" transform="matrix(0.3906 -0.9206 0.9206 0.3906 1.7649 46.7977)" class="st0" width="16.7" height="1.6"/>
		</g>
		<g>
			
				<rect x="40.9" y="27.5" transform="matrix(0.4988 -0.8667 0.8667 0.4988 0.1885 56.8846)" class="st0" width="16.7" height="1.6"/>
		</g>
		<g>
			
				<rect x="47.3" y="29.9" transform="matrix(0.532 -0.8468 0.8468 0.532 -1.0381 59.3948)" class="st0" width="11.8" height="1.6"/>
		</g>
		<g>
			
				<rect x="26.1" y="19.6" transform="matrix(0.3555 -0.9347 0.9347 0.3555 1.6179 43.0959)" class="st0" width="11.8" height="1.6"/>
		</g>
		<g>
			
				<rect x="34.4" y="25.3" transform="matrix(0.4661 -0.8847 0.8847 0.4661 1.1084 54.0769)" class="st0" width="21.9" height="1.6"/>
		</g>
		<g>
			
				<rect x="64.9" y="48.7" transform="matrix(0.7284 -0.6851 0.6851 0.7284 -13.2576 65.4905)" class="st0" width="22.1" height="1.6"/>
		</g>
		<g>
			<rect x="64" y="45.5" transform="matrix(0.6991 -0.715 0.715 0.6991 -11.2638 65.7363)" class="st0" width="16.9" height="1.6"/>
		</g>
		<g>
			<rect x="63.2" y="42.4" transform="matrix(0.6704 -0.742 0.742 0.6704 -9.2201 65.5738)" class="st0" width="12" height="1.6"/>
		</g>
		<g>
			
				<rect x="-0.2" y="13" transform="matrix(0.1498 -0.9887 0.9887 0.1498 -6.7433 19.7897)" class="st0" width="16.7" height="1.6"/>
		</g>
		<g>
			
				<rect x="6.7" y="13.8" transform="matrix(0.1895 -0.9819 0.9819 0.1895 -4.0637 24.2435)" class="st0" width="11.8" height="1.6"/>
		</g>
		<g>
			
				<rect x="-7.3" y="12.5" transform="matrix(0.1107 -0.9939 0.9939 0.1107 -9.8662 15.4482)" class="st0" width="21.9" height="1.6"/>
		</g>
		<g>
			<path class="st1" d="M84.7,44.9c-0.5-0.6-1.1-1.2-1.9-1.8c-0.7-0.5-1.5-1.1-2.4-1.5c-0.7-0.4-1.5-0.8-2.6-1.2
				c-0.9-0.3-1.9-0.7-3-0.9c-1-0.3-2.1-0.5-3.1-0.6c-1-0.2-2.1-0.3-3.3-0.4c-1-0.1-2-0.2-3-0.2l-0.3,0c-1,0-2.1-0.1-3.4-0.1
				c-0.8,0-1.6,0-2.3,0c-0.3,0-0.7,0-1,0l-3.3,0.1c-0.5,0-1,0-1.6,0.1c-1.7,0.1-3.3,0.1-4.9,0.1c-2.3,0-4.2-0.1-5.9-0.4
				c-2.2-0.3-3.9-0.9-5.4-1.7c-1.7-0.8-3.2-1.9-4.5-3.3c-1.4-1.3-2.6-2.7-3.9-4.5c-1.2-1.5-2.4-3.2-3.7-5.2l-3.9-5.4
				c-1.4-1.9-2.8-3.6-4.3-5.2c-1.5-1.6-3.1-3.1-4.7-4.4c-1.7-1.3-3.4-2.4-5-3.2C5.5,4.3,3.7,3.8,2,3.6L2.4,0
				c2.1,0.2,4.2,0.8,6.4,1.8l0.1,0c1.9,0.9,3.9,2.2,5.7,3.6l0,0c1.7,1.4,3.4,3,5.1,4.8c1.5,1.7,3,3.5,4.5,5.5l0,0l3.9,5.5
				c1.3,1.9,2.5,3.6,3.6,5c1.2,1.6,2.3,2.9,3.5,4.1l0,0c1.1,1.1,2.3,2,3.6,2.6l0.1,0c1.1,0.6,2.5,1,4.3,1.3c1.6,0.3,3.3,0.4,5.4,0.4
				c1.5,0,3,0,4.7-0.1c0.5,0,1.1,0,1.6-0.1l3.3-0.1c0.3,0,0.7,0,1,0c0.8,0,1.7-0.1,2.5,0c1.3,0,2.4,0,3.5,0.1l0.3,0
				c1.1,0,2.2,0.1,3.3,0.2c1.2,0.1,2.4,0.3,3.5,0.5c1.1,0.2,2.3,0.4,3.5,0.7c1.1,0.3,2.2,0.6,3.2,1c1.3,0.5,2.3,0.9,3.2,1.4
				c1,0.5,1.9,1.1,2.8,1.8c1,0.8,1.8,1.5,2.5,2.3L84.7,44.9z"/>
		</g>
		<g>
			<path class="st1" d="M68,59.9c-0.7-0.8-1.2-1.5-1.7-2.2c-0.5-0.8-0.9-1.6-1.4-2.5l-0.2-0.4c-0.3-0.7-0.6-1.4-0.9-2.2
				c-0.3-0.9-0.6-1.8-0.9-2.9l-0.8-3c-0.2-0.9-0.5-1.9-0.8-3.2c-0.2-0.7-0.3-1.4-0.5-2.2c-0.1-0.3-0.2-0.7-0.3-1l-0.9-3.3
				c-0.2-0.9-0.5-1.7-0.8-2.6l-0.2-0.6c-0.4-1.1-0.7-2.2-1.1-3.2c-0.7-1.9-1.6-3.8-2.8-5.9c-1-1.7-2.2-3.3-3.6-4.8
				c-1.2-1.3-2.7-2.4-4.3-3.2c-1.4-0.7-3.1-1.2-5.2-1.5c-1.7-0.2-3.6-0.2-5.9,0.1c-1.8,0.2-3.8,0.7-6.3,1.3
				c-2.2,0.6-4.4,1.5-6.3,2.2c-1.2,0.5-2.4,1-3.6,1.5c-0.9,0.4-1.7,0.7-2.5,1.1c-2,0.9-4,1.7-5.8,2.4c-2.2,0.9-4,1.4-5.6,1.7
				c-2,0.5-3.9,0.6-5.6,0.4l0.4-3.6c1.3,0.2,2.8,0,4.4-0.3l0.1,0c1.4-0.3,3-0.8,5-1.6l0.1,0c1.8-0.6,3.6-1.4,5.7-2.3
				c0.9-0.4,1.7-0.7,2.6-1.1c1.2-0.5,2.4-1,3.7-1.5c2-0.8,4.3-1.6,6.7-2.3c2.7-0.7,4.9-1.2,6.9-1.4c2.6-0.3,4.8-0.3,6.8-0.1
				c2.5,0.3,4.6,0.9,6.4,1.8c2,1.1,3.8,2.4,5.3,4c1.6,1.7,3,3.6,4.1,5.5c1.2,2.2,2.2,4.3,3,6.4c0.4,1.1,0.8,2.1,1.2,3.3l0.2,0.6
				c0.3,0.9,0.6,1.8,0.8,2.8l0.9,3.3c0.1,0.3,0.2,0.7,0.3,1c0.2,0.7,0.4,1.5,0.6,2.3c0.3,1.2,0.5,2.2,0.8,3.1l0.8,2.9
				c0.3,1,0.5,1.8,0.8,2.6c0.3,0.7,0.5,1.3,0.8,2l0.2,0.4c0.3,0.7,0.7,1.4,1.1,2c0.4,0.6,0.8,1.1,1.4,1.8L68,59.9z"/>
		</g>
	</g>
	<g>
		<g>
			
				<rect x="82.9" y="62.2" transform="matrix(0.8048 -0.5935 0.5935 0.8048 -20.3403 64.2073)" class="st0" width="9.2" height="1.6"/>
		</g>
		<g>
			
				<rect x="116.2" y="108.3" transform="matrix(0.7411 -0.6714 0.6714 0.7411 -41.9843 109.3638)" class="st0" width="9.2" height="1.6"/>
		</g>
		<g>
			
				<rect x="107.9" y="98.5" transform="matrix(0.7832 -0.6218 0.6218 0.7832 -37.3617 91.4674)" class="st0" width="9.2" height="1.6"/>
		</g>
		<g>
			
				<rect x="90.1" y="72.8" transform="matrix(0.8267 -0.5627 0.5627 0.8267 -24.9852 66.0696)" class="st0" width="9.2" height="1.6"/>
		</g>
		<g>
			
				<rect x="91.1" y="83.5" transform="matrix(0.8251 -0.565 0.565 0.8251 -29.7996 72.3848)" class="st0" width="21.9" height="1.6"/>
		</g>
		<g>
			
				<rect x="90.8" y="79.8" transform="matrix(0.8286 -0.5598 0.5598 0.8286 -28.0939 69.2928)" class="st0" width="16.7" height="1.6"/>
		</g>
		<g>
			
				<rect x="99.2" y="91.5" transform="matrix(0.8087 -0.5883 0.5883 0.8087 -33.6929 80.9569)" class="st0" width="16.7" height="1.6"/>
		</g>
		<g>
			
				<rect x="104.4" y="95.2" transform="matrix(0.7958 -0.6056 0.6056 0.7958 -35.5644 86.4274)" class="st0" width="11.8" height="1.6"/>
		</g>
		<g>
			
				<rect x="90.7" y="76" transform="matrix(0.8286 -0.5598 0.5598 0.8286 -26.4337 67.2391)" class="st0" width="11.8" height="1.6"/>
		</g>
		<g>
			<rect x="94" y="87.9" transform="matrix(0.8181 -0.575 0.575 0.8181 -31.8705 76.5009)" class="st0" width="21.9" height="1.6"/>
		</g>
		<g>
			
				<rect x="118.9" y="117.4" transform="matrix(0.6968 -0.7173 0.7173 0.6968 -45.3736 129.031)" class="st0" width="22.1" height="1.6"/>
		</g>
		<g>
			
				<rect x="117.9" y="114.2" transform="matrix(0.7136 -0.7006 0.7006 0.7136 -44.3797 121.4605)" class="st0" width="16.9" height="1.6"/>
		</g>
		<g>
			
				<rect x="117.3" y="111" transform="matrix(0.7292 -0.6843 0.6843 0.7292 -43.0878 114.5877)" class="st0" width="12" height="1.6"/>
		</g>
		<g>
			
				<rect x="73.9" y="55.7" transform="matrix(0.7763 -0.6304 0.6304 0.7763 -17.2047 64.4914)" class="st0" width="16.7" height="1.6"/>
		</g>
		<g>
			
				<rect x="79.2" y="59.3" transform="matrix(0.7935 -0.6086 0.6086 0.7935 -18.9924 64.1987)" class="st0" width="11.8" height="1.6"/>
		</g>
		<g>
			
				<rect x="68.4" y="52.3" transform="matrix(0.7559 -0.6547 0.6547 0.7559 -15.3531 64.9222)" class="st0" width="21.9" height="1.6"/>
		</g>
		<g>
			<path class="st1" d="M138.2,113c-0.2-0.2-0.5-0.5-0.9-0.7c-0.3-0.3-0.6-0.5-1-0.7c-0.6-0.4-1.3-0.8-2.1-1.2
				c-0.8-0.4-1.6-0.7-2.5-1c-0.8-0.3-1.7-0.6-2.7-0.9c-1.6-0.4-3.2-0.8-4.9-1.2l-2.5-0.6l-2.4-0.5c-0.9-0.2-1.9-0.4-2.9-0.6
				c-2-0.5-4.4-1-6.7-1.7c-2.5-0.8-4.6-1.5-6.5-2.4c-4.6-2.1-8-4.7-10.2-7.8c-2.1-3-3.3-6.9-3.7-12c-0.3-3.7-0.1-7.6,0.1-11.5
				c0-0.7,0.1-1.3,0.1-2c0.2-4.4,0.3-9-0.4-13.1c-0.7-4.4-2.1-7.8-4.3-10.2l2.7-2.5c2.7,2.9,4.4,7,5.2,12.1
				c0.7,4.5,0.6,9.3,0.4,13.8c0,0.7-0.1,1.3-0.1,2c-0.2,3.9-0.3,7.6-0.1,11.1c0.3,4.4,1.3,7.7,3,10.2c1.8,2.6,4.7,4.8,8.7,6.5
				c1.8,0.8,3.7,1.5,6,2.2c2.3,0.6,4.6,1.2,6.5,1.6c0.9,0.2,1.8,0.4,2.8,0.6l3.8,0.8l1.2,0.3c1.7,0.4,3.5,0.8,5.1,1.3
				c1.1,0.3,2.1,0.6,3,1c0.9,0.4,1.9,0.7,2.8,1.1c0.9,0.4,1.8,0.9,2.6,1.5c0.4,0.3,0.8,0.6,1.2,0.9c0.4,0.3,0.8,0.6,1.1,0.9
				L138.2,113z"/>
		</g>
		<g>
			<path class="st1" d="M122.8,129.2c-0.4-0.4-0.8-0.8-1.1-1.2c-0.4-0.4-0.7-0.9-1-1.3c-0.6-0.8-1.2-1.8-1.7-2.7
				c-0.6-1.1-1-2.1-1.4-3c-0.4-1-0.7-2.1-1-3.2c-0.6-2.2-1-4.5-1.3-6.8c-0.1-1.1-0.2-2.2-0.3-3.5c-0.1-1.1-0.2-2.3-0.2-3.5
				c0-0.8-0.1-1.5-0.1-2.3c-0.1-1.5-0.1-3-0.2-4.4c-0.1-2.6-0.2-4.6-0.4-6.3c-0.5-4.5-1.5-7.5-3.1-9.8c-1.6-2.4-4.3-4.5-8.2-6.4
				c-3.7-1.8-8.1-3.3-12.2-4.6c-1.1-0.3-2.2-0.7-3.2-1c-3.3-1-6.5-2-9.3-3.2c-4.6-1.8-7.7-3.7-9.8-6.1l2.7-2.5
				c1.8,1.9,4.4,3.5,8.5,5.2c2.8,1.1,5.8,2.1,9.1,3.1c1.1,0.3,2.2,0.7,3.3,1c4.3,1.4,8.8,2.9,12.7,4.8c4.5,2.2,7.6,4.7,9.6,7.6
				c2,2.8,3.1,6.4,3.7,11.4c0.2,1.8,0.4,3.8,0.5,6.5c0.1,1.4,0.2,2.9,0.2,4.5c0,0.8,0.1,1.5,0.1,2.3c0,1.2,0.1,2.3,0.2,3.4
				c0.1,1.2,0.2,2.3,0.3,3.4c0.2,2.1,0.6,4.3,1.2,6.3c0.3,1,0.6,2,0.9,2.9c0.3,0.8,0.7,1.6,1.2,2.6c0.4,0.8,0.9,1.6,1.4,2.3
				c0.3,0.4,0.5,0.7,0.8,1c0.2,0.3,0.5,0.6,0.9,0.9L122.8,129.2z"/>
		</g>
	</g>
	<g>
		<g>
			
				<rect x="138.8" y="129" transform="matrix(0.6328 -0.7743 0.7743 0.6328 -47.887 158.6815)" class="st0" width="9.2" height="1.6"/>
		</g>
		<g>
			
				<rect x="186.9" y="159.2" transform="matrix(0.4069 -0.9135 0.9135 0.4069 -32.5668 269.763)" class="st0" width="9.2" height="1.6"/>
		</g>
		<g>
			
				<rect x="175.3" y="153.6" transform="matrix(0.4603 -0.8878 0.8878 0.4603 -39.9793 243.0021)" class="st0" width="9.2" height="1.6"/>
		</g>
		<g>
			
				<rect x="148.9" y="136.9" transform="matrix(0.5841 -0.8117 0.8117 0.5841 -47.9606 181.8365)" class="st0" width="9.2" height="1.6"/>
		</g>
		<g>
			
				<rect x="153.2" y="144.2" transform="matrix(0.5338 -0.8456 0.8456 0.5338 -46.0328 206.4452)" class="st0" width="21.9" height="1.6"/>
		</g>
		<g>
			
				<rect x="151.7" y="141.8" transform="matrix(0.5521 -0.8337 0.8337 0.5521 -47.2115 197.32)" class="st0" width="16.7" height="1.6"/>
		</g>
		<g>
			
				<rect x="164.2" y="149.2" transform="matrix(0.4949 -0.869 0.869 0.4949 -43.1848 225.6824)" class="st0" width="16.7" height="1.6"/>
		</g>
		<g>
			
				<rect x="170.6" y="151.4" transform="matrix(0.4765 -0.8792 0.8792 0.4765 -41.3872 234.8813)" class="st0" width="11.8" height="1.6"/>
		</g>
		<g>
			
				<rect x="150.4" y="139.3" transform="matrix(0.5698 -0.8218 0.8218 0.5698 -47.8652 188.7272)" class="st0" width="11.8" height="1.6"/>
		</g>
		<g>
			
				<rect x="157.7" y="146.9" transform="matrix(0.513 -0.8584 0.8584 0.513 -44.6537 216.7214)" class="st0" width="21.9" height="1.6"/>
		</g>
		<g>
			
				<rect x="192.4" y="163.8" transform="matrix(0.3516 -0.9362 0.9362 0.3516 -22.1636 297.1998)" class="st0" width="22.1" height="1.6"/>
		</g>
		<g>
			
				<rect x="190.5" y="162.3" transform="matrix(0.3724 -0.9281 0.9281 0.3724 -26.5373 286.9734)" class="st0" width="16.9" height="1.6"/>
		</g>
		<g>
			
				<rect x="188.8" y="160.6" transform="matrix(0.3918 -0.92 0.92 0.3918 -30.0536 277.3154)" class="st0" width="12" height="1.6"/>
		</g>
		<g>
			
				<rect x="128.6" y="123.7" transform="matrix(0.6634 -0.7483 0.7483 0.6634 -47.076 144.3681)" class="st0" width="16.7" height="1.6"/>
		</g>
		<g>
			
				<rect x="134.5" y="126.7" transform="matrix(0.6464 -0.763 0.763 0.6464 -47.6649 152.1812)" class="st0" width="11.8" height="1.6"/>
		</g>
		<g>
			
				<rect x="122.6" y="120.7" transform="matrix(0.6792 -0.7339 0.7339 0.6792 -46.315 137.0274)" class="st0" width="21.9" height="1.6"/>
		</g>
		<g>
			<path class="st1" d="M171.9,160.2c-4.8,0-9-1-12.3-3c-1.7-1.1-3.3-2.5-4.8-4.2c-1.3-1.5-2.4-3.4-3.5-5.6c-0.3-0.5-0.5-1-0.7-1.5
				c-0.2-0.5-0.5-1.1-0.7-1.6c-0.4-1-0.8-2.1-1.2-3.2c-0.3-0.9-0.7-2.1-1.1-3.3c-0.3-1.1-0.6-2.2-0.9-3.4l-0.1-0.4
				c-0.6-2.1-1.1-4.1-1.6-6.2c-0.5-1.9-1.1-3.9-1.8-6c-0.7-2-1.4-3.6-2.1-5c-0.9-1.6-1.8-2.8-2.8-3.8l2.5-2.7
				c1.3,1.2,2.5,2.8,3.5,4.7c0.9,1.5,1.7,3.4,2.4,5.6c0.7,2.2,1.3,4.2,1.9,6.2c0.5,2,1.1,4,1.6,6.2l0.1,0.4c0.3,1.1,0.6,2.2,0.9,3.3
				c0.3,1.1,0.7,2.2,1,3.1c0.4,1.1,0.8,2.1,1.1,3.1c0.2,0.5,0.4,1,0.6,1.5c0.2,0.4,0.4,0.9,0.7,1.4c1,2,2,3.6,3.1,4.9
				c1.2,1.4,2.5,2.6,3.9,3.5c2.8,1.7,6.3,2.5,10.6,2.5c1,0,2.1,0,3.2-0.1c0.9-0.1,2-0.2,3.2-0.4c1.8-0.3,4.2-0.6,6.6-1.1l6.6-1.4
				c2.6-0.6,4.6-0.9,6.5-1.1c4.8-0.7,8.6-0.5,11.9,0.7l-1.2,3.4c-2.7-0.9-5.9-1.1-10.2-0.5c-1.7,0.2-3.7,0.6-6.2,1.1l-6.6,1.4
				c-2.5,0.5-5,0.9-6.9,1.2c-1.3,0.2-2.4,0.3-3.5,0.4c-1.2,0.1-2.4,0.1-3.4,0.1C172.1,160.2,172,160.2,171.9,160.2z"/>
		</g>
		<g>
			<path class="st1" d="M201.4,177.6c-3.6-1.3-6.9-3.9-10.2-8c-1.3-1.7-2.6-3.5-3.9-5.7c-1.2-2-2.3-4-3.3-6l-0.1-0.1
				c-0.6-1.1-1.2-2.3-1.7-3.5c-0.4-0.9-0.9-1.8-1.3-2.6c-0.5-0.9-1-1.9-1.5-2.8c-0.5-1-1-1.9-1.5-2.7c-2.4-3.9-4.4-6.2-6.7-7.6
				c-1.3-0.8-2.7-1.4-4.4-1.8c-1.6-0.4-3.4-0.7-5.4-0.8c-0.5,0-1-0.1-1.5-0.1l-1.6-0.1c-0.9,0-2,0-3.2,0l-3.4,0l-3.5,0
				c-2.3,0-4.6,0-6.9-0.2c-2.1-0.2-4.5-0.4-6.8-0.9c-2.3-0.5-4.5-1.2-6.3-2c-2.1-1-3.9-2.1-5.4-3.5l2.5-2.7c1.2,1.1,2.7,2.1,4.4,2.9
				c1.6,0.7,3.5,1.3,5.6,1.7c2.1,0.4,4.4,0.7,6.3,0.8c2.2,0.2,4.4,0.2,6.6,0.2l3.5,0l3.3,0c1.2,0,2.3,0,3.3,0l1.6,0.1
				c0.5,0,1.1,0,1.6,0.1c2.2,0.1,4.2,0.4,6.1,0.9c2.1,0.5,3.9,1.2,5.4,2.2c3.6,2.1,6,5.7,7.9,8.8c0.5,0.9,1,1.8,1.6,2.9
				c0.5,1,1,1.9,1.5,2.9c0.4,0.9,0.9,1.8,1.3,2.7c0.6,1.1,1.1,2.3,1.7,3.4l0.1,0.1c1,2,2.1,4,3.2,5.8c1.2,2.1,2.4,3.8,3.6,5.3
				c2.8,3.5,5.6,5.7,8.6,6.8L201.4,177.6z"/>
		</g>
	</g>
	<g>
		<g>
			
				<rect x="215.8" y="169.2" transform="matrix(0.2734 -0.9619 0.9619 0.2734 -3.3487 335.4847)" class="st0" width="9.2" height="1.6"/>
		</g>
		<g>
			
				<rect x="271.9" y="177.6" transform="matrix(1.302082e-03 -1 1 1.302082e-03 97.7764 454.6883)" class="st0" width="9.2" height="1.6"/>
		</g>
		<g>
			
				<rect x="259.1" y="177.2" transform="matrix(6.576272e-02 -0.9978 0.9978 6.576272e-02 68.7581 429.3606)" class="st0" width="9.2" height="1.6"/>
		</g>
		<g>
			
				<rect x="228.2" y="172.4" transform="matrix(0.2149 -0.9766 0.9766 0.2149 13.6323 363.3521)" class="st0" width="9.2" height="1.6"/>
		</g>
		<g>
			
				<rect x="234.6" y="174.8" transform="matrix(0.1543 -0.988 0.988 0.1543 34.1754 391.1093)" class="st0" width="21.9" height="1.6"/>
		</g>
		<g>
			
				<rect x="232.4" y="174.3" transform="matrix(0.1764 -0.9843 0.9843 0.1764 26.0182 381.203)" class="st0" width="16.7" height="1.6"/>
		</g>
		<g>
			
				<rect x="246.8" y="176.1" transform="matrix(0.1074 -0.9942 0.9942 0.1074 51.9468 411.5552)" class="st0" width="16.7" height="1.6"/>
		</g>
		<g>
			
				<rect x="253.8" y="176.5" transform="matrix(8.528112e-02 -0.9964 0.9964 8.528112e-02 60.9353 420.9812)" class="st0" width="11.8" height="1.6"/>
		</g>
		<g>
			
				<rect x="230.5" y="173.4" transform="matrix(0.1979 -0.9802 0.9802 0.1979 18.8387 371.4177)" class="st0" width="11.8" height="1.6"/>
		</g>
		<g>
			
				<rect x="239.8" y="175.5" transform="matrix(0.1289 -0.9917 0.9917 0.1289 43.5664 402.2374)" class="st0" width="21.9" height="1.6"/>
		</g>
		<g>
			
				<rect x="288.6" y="166.7" transform="matrix(0.9979 -6.400381e-02 6.400381e-02 0.9979 -10.782 18.8851)" class="st0" width="1.6" height="22.1"/>
		</g>
		<g>
			
				<rect x="283.8" y="169.8" transform="matrix(0.9992 -3.954303e-02 3.954303e-02 0.9992 -6.8261 11.3941)" class="st0" width="1.6" height="16.9"/>
		</g>
		<g>
			
				<rect x="279.3" y="172.4" transform="matrix(0.9999 -1.657501e-02 1.657501e-02 0.9999 -2.918 4.6672)" class="st0" width="1.6" height="12"/>
		</g>
		<g>
			
				<rect x="204" y="166.8" transform="matrix(0.3106 -0.9506 0.9506 0.3106 -12.898 317.4381)" class="st0" width="16.7" height="1.6"/>
		</g>
		<g>
			
				<rect x="210.8" y="168.2" transform="matrix(0.2903 -0.9569 0.9569 0.2903 -7.8849 327.3408)" class="st0" width="11.8" height="1.6"/>
		</g>
		<g>
			
				<rect x="197.2" y="165.4" transform="matrix(0.3301 -0.944 0.944 0.3301 -17.4429 307.8139)" class="st0" width="21.9" height="1.6"/>
		</g>
		<g>
			<path class="st1" d="M248.8,188.8c-0.9,0-1.7-0.1-2.6-0.2c-1.9-0.2-3.9-0.9-6.1-2c-0.9-0.5-1.9-1-2.8-1.7
				c-0.8-0.6-1.7-1.2-2.7-2.1c-3.5-2.9-6.7-6.7-9.4-10.1c-0.5-0.6-0.9-1.1-1.3-1.7c-1-1.3-1.9-2.5-2.9-3.6l-0.2-0.2
				c-1.3-1.7-2.6-3.2-3.8-4.6c-1.2-1.3-2.6-2.7-4-3.8c-0.7-0.5-1.4-1-2-1.3c-0.8-0.4-1.4-0.8-2.1-1l1.2-3.4c0.9,0.3,1.7,0.7,2.6,1.3
				c0.8,0.4,1.6,1,2.4,1.6c1.6,1.2,3.1,2.8,4.4,4.2c1.4,1.5,2.7,3.2,4,4.8l0.2,0.2c1,1.2,1.9,2.4,2.9,3.7c0.4,0.6,0.9,1.1,1.3,1.7
				c2.6,3.2,5.6,6.9,8.9,9.6c0.9,0.8,1.7,1.4,2.4,1.8c0.8,0.5,1.6,1,2.4,1.4c1.8,0.9,3.4,1.5,4.9,1.6c1.8,0.2,3.5,0.2,5.3-0.2
				c1.7-0.4,3.6-1,5.6-1.8c1.7-0.7,3.5-1.7,5.7-3c0.5-0.3,0.9-0.6,1.4-0.9l1.4-0.9c0.9-0.6,1.9-1.3,2.8-1.9l0.9-0.6
				c0.6-0.4,1.3-0.9,1.9-1.3l2.7-2c1.8-1.3,3.5-2.4,5.4-3.6c1-0.6,1.9-1.1,2.7-1.6c0.9-0.5,1.9-0.9,2.7-1.2c2-0.8,3.9-1.3,5.7-1.4
				l0.2,3.6c-1.4,0.1-2.9,0.5-4.5,1.1c-0.7,0.3-1.6,0.7-2.4,1.1c-0.8,0.4-1.6,0.9-2.5,1.4c-1.8,1.2-3.5,2.3-5.2,3.5l-2.7,2
				c-0.6,0.5-1.3,0.9-2,1.4l-0.9,0.6c-1,0.7-1.9,1.3-2.9,2l-1.4,1c-0.5,0.3-1,0.6-1.5,0.9c-2.3,1.4-4.3,2.4-6.1,3.2
				c-2.3,1-4.3,1.6-6.3,2C251.4,188.7,250.1,188.8,248.8,188.8z"/>
		</g>
		<g>
			<path class="st1" d="M291.7,190.5c-1.7,0-3.5-0.2-5.3-0.7c-0.9-0.2-1.9-0.6-3.2-1.1c-1-0.4-2-0.9-3-1.4c-1.7-0.9-3.6-2-5.9-3.6
				c-0.9-0.6-1.8-1.3-2.8-2.1c-0.7-0.6-1.5-1.2-2.2-1.7l-5.8-4.8c-1.8-1.5-3.4-2.8-4.9-3.8c-1.7-1.3-3.3-2.2-4.7-2.9
				c-1.7-0.8-3.2-1.3-4.5-1.5c-1.6-0.2-3.1-0.2-4.7,0.1c-0.8,0.1-1.7,0.3-2.6,0.6c-1,0.3-1.9,0.5-2.7,0.8c-3,1.1-6.1,2.4-9.4,3.9
				c-0.9,0.4-1.8,0.8-2.6,1.2c-1.9,0.8-4.2,1.7-6.5,2.6c-2.1,0.8-4.4,1.4-6.6,1.9c-2.1,0.5-4.4,0.7-6.6,0.7c-1.1,0-2.2-0.1-3.2-0.3
				c-1.1-0.2-2.1-0.5-3.1-0.8l1.2-3.4c0.8,0.3,1.6,0.5,2.5,0.7c0.8,0.1,1.7,0.2,2.6,0.2c2,0,3.9-0.2,5.8-0.6c2.1-0.5,4.2-1,6.2-1.8
				c2.2-0.8,4.4-1.7,6.3-2.5c0.9-0.4,1.7-0.8,2.6-1.1c3.3-1.5,6.5-2.9,9.6-4c0.9-0.3,1.9-0.6,3-0.9c1-0.3,2-0.5,2.9-0.7
				c1.9-0.3,3.8-0.4,5.8-0.1c1.7,0.2,3.5,0.8,5.6,1.8c1.6,0.8,3.4,1.8,5.3,3.2c1.5,1.1,3.2,2.4,5.1,4l5.8,4.8
				c0.7,0.6,1.4,1.1,2.1,1.7c1,0.7,1.9,1.4,2.7,2c2.2,1.5,3.9,2.6,5.4,3.4c1,0.5,1.9,0.9,2.8,1.3c1,0.4,1.9,0.7,2.7,0.9
				c1.9,0.5,3.7,0.7,5.3,0.6l0.2,3.6C292.4,190.5,292,190.5,291.7,190.5z"/>
		</g>
	</g>
</g>
</svg>
