<?xml version="1.0" encoding="utf-8"?>
<!-- Generator: Adobe Illustrator 22.0.0, SVG Export Plug-In . SVG Version: 6.00 Build 0)  -->
<svg version="1.1" id="Layer_1" xmlns="http://www.w3.org/2000/svg" xmlns:xlink="http://www.w3.org/1999/xlink" x="0px" y="0px"
	 viewBox="0 0 146.9 201.9" style="enable-background:new 0 0 146.9 201.9;" xml:space="preserve">
<style type="text/css">
	.st0{fill:#65BA99;}
	.st1{fill:#7CCCE5;}
</style>
<g>
	<g>
		<g>
			
				<rect x="126.8" y="17.2" transform="matrix(0.9868 -0.1618 0.1618 0.9868 -1.1725 21.4881)" class="st0" width="9.2" height="1.6"/>
		</g>
		<g>
			
				<rect x="132.3" y="70" transform="matrix(8.645424e-02 -0.9963 0.9963 8.645424e-02 47.2505 200.6579)" class="st0" width="1.6" height="9.2"/>
		</g>
		<g>
			
				<rect x="133" y="57.2" transform="matrix(3.019036e-02 -0.9995 0.9995 3.019036e-02 67.9919 193.6511)" class="st0" width="1.6" height="9.2"/>
		</g>
		<g>
			
				<rect x="128.4" y="29.9" transform="matrix(0.9944 -0.1061 0.1061 0.9944 -2.5023 14.2825)" class="st0" width="9.2" height="1.6"/>
		</g>
		<g>
			
				<rect x="123" y="42.8" transform="matrix(0.9988 -4.948298e-02 4.948298e-02 0.9988 -1.9919 6.6833)" class="st0" width="21.9" height="1.6"/>
		</g>
		<g>
			
				<rect x="125.1" y="38.1" transform="matrix(0.9975 -7.032156e-02 7.032156e-02 0.9975 -2.4009 9.4798)" class="st0" width="16.7" height="1.6"/>
		</g>
		<g>
			
				<rect x="125.9" y="52.5" transform="matrix(1 -7.161275e-03 7.161275e-03 1 -0.378 0.9629)" class="st0" width="16.7" height="1.6"/>
		</g>
		<g>
			
				<rect x="133.5" y="51.9" transform="matrix(1.283213e-02 -0.9999 0.9999 1.283213e-02 74.6933 191.341)" class="st0" width="1.6" height="11.8"/>
		</g>
		<g>
			
				<rect x="127.2" y="33.6" transform="matrix(0.996 -8.983141e-02 8.983141e-02 0.996 -2.5482 12.0934)" class="st0" width="11.8" height="1.6"/>
		</g>
		<g>
			
				<rect x="123.2" y="48" transform="matrix(0.9996 -2.669189e-02 2.669189e-02 0.9996 -1.2547 3.599)" class="st0" width="21.9" height="1.6"/>
		</g>
		<g>
			
				<rect x="131.1" y="76.2" transform="matrix(0.1455 -0.9894 0.9894 0.1455 26.2711 205.0516)" class="st0" width="1.6" height="22.1"/>
		</g>
		<g>
			
				<rect x="131.4" y="74.1" transform="matrix(0.1219 -0.9925 0.9925 0.1219 34.1334 203.7294)" class="st0" width="1.6" height="16.9"/>
		</g>
		<g>
			
				<rect x="131.9" y="72.1" transform="matrix(0.1021 -0.9948 0.9948 0.1021 41.4665 202.1476)" class="st0" width="1.6" height="12"/>
		</g>
		<g>
			<rect x="121.4" y="9" transform="matrix(0.9802 -0.1979 0.1979 0.9802 0.6356 25.8766)" class="st0" width="16.7" height="1.6"/>
		</g>
		<g>
			
				<rect x="124.7" y="13.5" transform="matrix(0.984 -0.1781 0.1781 0.984 -0.4507 23.4854)" class="st0" width="11.8" height="1.6"/>
		</g>
		<g>
			
				<rect x="117.9" y="4.6" transform="matrix(0.9761 -0.2171 0.2171 0.9761 1.903 28.0984)" class="st0" width="21.9" height="1.6"/>
		</g>
		<g>
			<path class="st1" d="M144.4,91.8l-3.6-0.6c0.5-3.2-0.1-6.7-1.8-10.8c-0.8-1.9-1.9-3.9-2.9-5.7c-1-1.8-2.2-3.6-3.4-5.4l-0.2-0.3
				c-0.5-0.8-1.1-1.6-1.6-2.3c-0.8-1.1-1.5-2.2-2.2-3.3c-1.3-2-2.5-3.8-3.5-5.5c-2.5-4.3-3.7-7.9-3.9-11.3c-0.1-1.8,0.2-3.6,0.7-5.8
				c0.3-0.9,0.6-1.9,1-2.9c0.4-1.1,0.8-2,1.2-2.8c0.4-0.9,0.9-1.8,1.5-2.9c0.5-0.9,1-1.8,1.6-2.9l3.4-5.9c1.9-3.3,4.2-7.6,5.6-11.8
				c0.6-1.9,1.1-3.8,1.3-5.7c0.2-1.8,0.1-3.5-0.3-5.2L141,0c0.4,2,0.6,4.2,0.3,6.4c-0.3,2.2-0.7,4.3-1.5,6.4c-1.5,4.5-4,9-5.9,12.5
				l-3.4,5.9c-0.6,1-1.1,1.9-1.5,2.8c-0.6,1-1,1.9-1.4,2.7c-0.4,0.8-0.7,1.6-1.1,2.6c-0.4,0.9-0.6,1.7-0.9,2.5
				c-0.5,1.8-0.7,3.3-0.6,4.7c0.1,2.8,1.2,5.8,3.4,9.6c1,1.7,2.1,3.4,3.4,5.3c0.7,1.1,1.5,2.2,2.2,3.3c0.5,0.8,1.1,1.6,1.6,2.4
				l0.2,0.3c1.2,1.8,2.4,3.7,3.5,5.6c1.1,2,2.3,4,3.1,6.2C144.4,83.8,145,88,144.4,91.8z"/>
		</g>
		<g>
			<path class="st1" d="M122.3,88.3l-3.6-0.6c0.5-3.3,2.2-6.7,5.1-10.7c1.5-1.9,2.8-3.6,4.1-5.1l4.4-5.1c1.6-1.9,3-3.6,4.2-5.2
				c1.5-2.1,2.6-3.8,3.5-5.3c2.2-3.9,3.2-7.3,3.1-10.5c-0.1-1.7-0.4-3.4-1.1-5c-0.3-0.8-0.7-1.7-1.2-2.6c-0.4-0.7-0.9-1.5-1.6-2.5
				c-0.6-0.8-1.2-1.7-1.8-2.5c-0.6-0.8-1.3-1.6-2.1-2.5c-1.5-1.7-3.2-3.4-4.6-4.9c-0.9-0.9-1.8-1.8-2.7-2.7
				c-2.4-2.3-4.6-4.5-6.6-6.8c-1.1-1.3-2.6-3.1-3.7-4.9c-1.1-1.9-1.9-3.6-2.3-5.4l3.6-0.8c0.3,1.4,0.9,2.8,1.8,4.3
				c1,1.6,2.3,3.2,3.3,4.4c1.9,2.1,4,4.3,6.4,6.6c0.9,0.9,1.8,1.8,2.7,2.7c1.5,1.5,3.2,3.2,4.8,5c0.8,0.9,1.5,1.8,2.2,2.6
				c0.7,0.9,1.4,1.8,2,2.8c0.7,1.1,1.3,2,1.7,2.9c0.5,1,1,2,1.4,2.9c0.8,2,1.3,4.1,1.4,6.2c0.2,3.8-1,7.9-3.5,12.4
				c-1,1.7-2.2,3.5-3.8,5.7c-1.3,1.7-2.7,3.5-4.4,5.4l-4.4,5.1c-1.3,1.5-2.5,3-4,4.9C124.2,82.7,122.8,85.6,122.3,88.3z"/>
		</g>
	</g>
	<g>
		<g>
			
				<rect x="127.7" y="100.1" transform="matrix(0.2715 -0.9624 0.9624 0.2715 -7.2307 199.9062)" class="st0" width="1.6" height="9.2"/>
		</g>
		<g>
			
				<rect x="96.3" y="146.3" transform="matrix(0.7727 -0.6348 0.6348 0.7727 -73.7107 95.8892)" class="st0" width="1.6" height="9.2"/>
		</g>
		<g>
			
				<rect x="105.6" y="137.6" transform="matrix(0.6922 -0.7217 0.7217 0.6922 -69.8733 120.5722)" class="st0" width="1.6" height="9.2"/>
		</g>
		<g>
			
				<rect x="123.3" y="112.2" transform="matrix(0.3987 -0.9171 0.9171 0.3987 -32.4796 184.0059)" class="st0" width="1.6" height="9.2"/>
		</g>
		<g>
			
				<rect x="117.2" y="117.2" transform="matrix(0.5375 -0.8433 0.8433 0.5375 -53.5292 158.7629)" class="st0" width="1.6" height="21.9"/>
		</g>
		<g>
			
				<rect x="119.4" y="115.6" transform="matrix(0.4888 -0.8724 0.8724 0.4888 -46.7129 168.2323)" class="st0" width="1.6" height="16.7"/>
		</g>
		<g>
			
				<rect x="111.5" y="127.7" transform="matrix(0.6261 -0.7798 0.7798 0.6261 -64.0905 138.4545)" class="st0" width="1.6" height="16.7"/>
		</g>
		<g>
			
				<rect x="108.6" y="133.6" transform="matrix(0.6629 -0.7487 0.7487 0.6629 -67.6151 128.9351)" class="st0" width="1.6" height="11.8"/>
		</g>
		<g>
			
				<rect x="121.5" y="114.1" transform="matrix(0.4397 -0.8982 0.8982 0.4397 -39.2635 177.0652)" class="st0" width="1.6" height="11.8"/>
		</g>
		<g>
			
				<rect x="114.2" y="121.5" transform="matrix(0.5871 -0.8095 0.8095 0.5871 -59.7669 147.8342)" class="st0" width="1.6" height="21.9"/>
		</g>
		<g>
			
				<rect x="86.1" y="147.6" transform="matrix(0.8346 -0.5508 0.5508 0.8346 -73.0299 74.1086)" class="st0" width="1.6" height="22.1"/>
		</g>
		<g>
			
				<rect x="89.9" y="147.3" transform="matrix(0.8135 -0.5815 0.5815 0.8135 -73.6745 81.7655)" class="st0" width="1.6" height="16.9"/>
		</g>
		<g>
			<rect x="93.5" y="147.1" transform="matrix(0.7916 -0.611 0.611 0.7916 -73.8968 89.502)" class="st0" width="1.6" height="12"/>
		</g>
		<g>
			
				<rect x="129.5" y="88.2" transform="matrix(0.2046 -0.9788 0.9788 0.2046 9.0974 204.3906)" class="st0" width="1.6" height="16.7"/>
		</g>
		<g>
			
				<rect x="128.5" y="95.1" transform="matrix(0.2396 -0.9709 0.9709 0.2396 0.2006 202.3754)" class="st0" width="1.6" height="11.8"/>
		</g>
		<g>
			
				<rect x="130.4" y="81.2" transform="matrix(0.1744 -0.9847 0.9847 0.1744 17.4836 205.2732)" class="st0" width="1.6" height="21.9"/>
		</g>
		<g>
			<path class="st1" d="M91.9,171.1l-2-3.1c0.7-0.5,1.5-1,2.1-1.6c0.6-0.6,1.2-1.3,1.8-2c1-1.3,2-2.9,3.1-5.1
				c0.4-0.9,0.8-1.9,1.2-2.9c0.4-1.1,0.7-2.2,1-3.1c0.3-1,0.5-2.1,0.8-3.3c0.3-1.3,0.5-2.3,0.6-3.3l0.5-3.4c0.1-0.6,0.2-1.3,0.3-2
				c0.1-0.4,0.1-0.9,0.2-1.3l0.4-3.2c0.1-1.1,0.3-2.2,0.5-3.1c0.1-0.5,0.2-1,0.3-1.5c0.1-0.5,0.2-1,0.3-1.4c0.2-1,0.5-1.9,0.7-2.8
				l0,0c0.3-0.8,0.6-1.7,0.9-2.5c0.2-0.4,0.4-0.8,0.6-1.2c0.2-0.3,0.3-0.5,0.5-0.8l0.2-0.3c0.5-0.8,1.1-1.5,1.8-2.2
				c0.2-0.2,0.4-0.4,0.6-0.6c0.1-0.1,0.2-0.2,0.3-0.3c0.3-0.3,0.7-0.6,1.1-0.9c0.7-0.6,1.4-1.1,2.3-1.7c0.9-0.6,1.7-1.1,2.4-1.6
				c0.9-0.5,1.8-1.1,2.7-1.6c2.7-1.5,5.5-3.1,8.3-5c4.2-2.8,7.6-5.6,10.1-8.4c2.9-3.3,4.7-6.6,5.2-9.8l3.6,0.6
				c-0.6,3.9-2.7,7.8-6.1,11.6c-2.7,3-6.4,6.1-10.8,9c-2.9,1.9-5.7,3.5-8.4,5.1c-0.9,0.5-1.8,1.1-2.7,1.6c-0.7,0.4-1.5,0.9-2.3,1.5
				l0,0c-0.8,0.5-1.4,1-2,1.4c-0.3,0.2-0.6,0.5-0.8,0.7c-0.1,0.1-0.2,0.2-0.4,0.3c-0.2,0.1-0.3,0.3-0.5,0.4c-0.5,0.5-0.9,1-1.3,1.6
				l-0.2,0.3c-0.1,0.2-0.3,0.5-0.4,0.7c-0.2,0.3-0.3,0.6-0.5,0.9c-0.3,0.6-0.5,1.4-0.8,2.1l0,0.1c-0.2,0.7-0.5,1.5-0.6,2.4
				c-0.1,0.4-0.2,0.9-0.2,1.3l0,0.1c-0.1,0.4-0.2,0.9-0.3,1.4c-0.1,0.9-0.3,1.8-0.4,2.9l-0.4,3.2c-0.1,0.4-0.1,0.8-0.2,1.2
				c-0.1,0.7-0.2,1.4-0.3,2.1l-0.5,3.3c-0.2,1-0.4,2.1-0.7,3.5c-0.3,1.2-0.5,2.3-0.8,3.4c-0.3,1.1-0.7,2.2-1.1,3.4
				c-0.4,1.1-0.8,2.3-1.3,3.3c-1.2,2.5-2.3,4.3-3.5,5.8c-0.7,0.9-1.4,1.7-2.2,2.4C93.7,169.8,92.8,170.5,91.9,171.1z"/>
		</g>
		<g>
			<path class="st1" d="M79.9,152.2l-2-3.1c0.8-0.5,1.6-0.9,2.5-1.3c0.8-0.4,1.7-0.7,2.7-0.9c2-0.5,3.9-0.8,5.9-1
				c0.4,0,0.8-0.1,1.2-0.1c0.6-0.1,1.2-0.1,1.9-0.2c0.8-0.1,1.7-0.1,2.5-0.2l0.7,0l3.3-0.2c1.2-0.1,2.3-0.2,3.3-0.3
				c1.3-0.1,2.4-0.3,3.4-0.4c1-0.1,1.9-0.3,2.8-0.5l0.5-0.1c1-0.2,2.1-0.4,3.2-0.7c1.1-0.3,2.1-0.7,3-1c0.5-0.2,1-0.4,1.4-0.6
				c0.4-0.2,0.9-0.4,1.3-0.7c0.9-0.5,1.8-1,2.6-1.6c0.7-0.5,1.3-1,2.1-1.8c0.3-0.3,0.6-0.7,0.9-1c0.3-0.4,0.6-0.7,0.8-1
				c0.5-0.8,1-1.6,1.3-2.5l0-0.1c0.2-0.4,0.3-0.8,0.5-1.1c0.1-0.5,0.3-0.9,0.4-1.4c0.2-0.9,0.4-1.9,0.5-2.9c0.1-0.9,0.1-1.9,0.1-3.1
				c0-3.7-0.8-7.8-2.5-12.9c-0.7-2.2-1.5-4.4-2.3-6.5c-0.7-2-1.4-3.9-2-5.8c-1.1-3.4-2.1-7.4-1.5-11.5l3.6,0.6
				c-0.4,2.6,0,5.6,1.3,9.8c0.6,1.8,1.3,3.6,2,5.6c0.8,2.1,1.6,4.3,2.3,6.6c1.8,5.5,2.6,9.9,2.6,14c0,1.3,0,2.5-0.1,3.5l0,0.1
				c-0.1,1.2-0.3,2.3-0.6,3.4c-0.1,0.6-0.3,1.1-0.5,1.6c-0.2,0.6-0.4,1-0.6,1.5l0,0.1c-0.5,1.1-1,2.1-1.6,3
				c-0.3,0.5-0.7,0.9-1.1,1.4c-0.3,0.4-0.7,0.8-1.1,1.2c-1,1-1.8,1.7-2.6,2.2c-0.9,0.6-1.9,1.2-2.9,1.8c-0.5,0.3-1,0.5-1.5,0.8
				l-0.1,0c-0.5,0.2-1.1,0.4-1.6,0.7c-1,0.4-2.2,0.8-3.3,1.1c-1.2,0.3-2.4,0.6-3.5,0.8l-0.5,0.1c-1,0.2-2,0.4-3.1,0.5
				c-1,0.1-2.2,0.3-3.5,0.4c-1.1,0.1-2.2,0.2-3.5,0.3l-4,0.3c-0.8,0-1.7,0.1-2.5,0.2c-0.6,0-1.2,0.1-1.8,0.2c-0.4,0-0.8,0.1-1.2,0.1
				c-1.7,0.2-3.5,0.5-5.3,0.9c-0.8,0.2-1.5,0.5-2.2,0.7l-0.1,0C81.1,151.5,80.5,151.8,79.9,152.2z"/>
		</g>
	</g>
	<g>
		<g>
			
				<rect x="70.8" y="163.1" transform="matrix(0.8977 -0.4406 0.4406 0.8977 -66.5448 48.6984)" class="st0" width="1.6" height="9.2"/>
		</g>
		<g>
			
				<rect x="17" y="180.7" transform="matrix(0.9708 -0.2398 0.2398 0.9708 -43.9227 9.6588)" class="st0" width="1.6" height="9.2"/>
		</g>
		<g>
			
				<rect x="29.4" y="177.5" transform="matrix(0.9648 -0.2628 0.2628 0.9648 -46.8062 14.3232)" class="st0" width="1.6" height="9.2"/>
		</g>
		<g>
			
				<rect x="59.1" y="168.2" transform="matrix(0.9274 -0.3742 0.3742 0.9274 -60.2936 34.943)" class="st0" width="1.6" height="9.2"/>
		</g>
		<g>
			
				<rect x="46.9" y="166.3" transform="matrix(0.9479 -0.3187 0.3187 0.9479 -53.9915 24.4381)" class="st0" width="1.6" height="21.9"/>
		</g>
		<g>
			
				<rect x="51.3" y="167.1" transform="matrix(0.9413 -0.3376 0.3376 0.9413 -56.1672 27.8901)" class="st0" width="1.6" height="16.7"/>
		</g>
		<g>
			
				<rect x="37.7" y="171.8" transform="matrix(0.9584 -0.2856 0.2856 0.9584 -49.8436 18.4798)" class="st0" width="1.6" height="16.7"/>
		</g>
		<g>
			
				<rect x="33.3" y="175.5" transform="matrix(0.9621 -0.2726 0.2726 0.9621 -48.165 16.1518)" class="st0" width="1.6" height="11.8"/>
		</g>
		<g>
			
				<rect x="55.5" y="167.9" transform="matrix(0.9341 -0.3571 0.3571 0.9341 -58.3779 31.5787)" class="st0" width="1.6" height="11.8"/>
		</g>
		<g>
			
				<rect x="41.9" y="167.9" transform="matrix(0.954 -0.2998 0.2998 0.954 -51.6598 21.0373)" class="st0" width="1.6" height="21.9"/>
		</g>
		<g>
			
				<rect x="4.5" y="177.5" transform="matrix(0.9732 -0.2301 0.2301 0.9732 -43.2503 6.2865)" class="st0" width="1.6" height="22.1"/>
		</g>
		<g>
			
				<rect x="9.1" y="178.8" transform="matrix(0.9727 -0.2321 0.2321 0.9727 -43.1901 7.4113)" class="st0" width="1.6" height="16.9"/>
		</g>
		<g>
			
				<rect x="13.5" y="180.2" transform="matrix(0.9718 -0.2357 0.2357 0.9718 -43.4852 8.6118)" class="st0" width="1.6" height="12"/>
		</g>
		<g>
			
				<rect x="78.1" y="155.3" transform="matrix(0.8708 -0.4917 0.4917 0.8708 -70.2732 59.9621)" class="st0" width="1.6" height="16.7"/>
		</g>
		<g>
			
				<rect x="74.1" y="159.9" transform="matrix(0.8861 -0.4636 0.4636 0.8861 -68.3464 53.6214)" class="st0" width="1.6" height="11.8"/>
		</g>
		<g>
			
				<rect x="82" y="150.4" transform="matrix(0.8544 -0.5196 0.5196 0.8544 -71.8088 66.5076)" class="st0" width="1.6" height="21.9"/>
		</g>
		<g>
			<path class="st1" d="M6,201.9l-0.8-3.5c6.4-1.5,12-8.1,17.7-15.3l1-1.3c2.5-3.1,5-6.3,7.6-9c1.6-1.7,3.1-3,4.6-4.1
				c1.8-1.3,3.5-2.2,5.3-2.8c1.9-0.6,3.8-0.9,5.8-0.8c1.7,0,3.7,0.2,6.1,0.6c1.8,0.3,3.7,0.8,5.5,1.2l2.1,0.5l2,0.5l3.3,0.8
				c5.2,1.3,9.3,1.9,13,1.9c0,0,0.1,0,0.1,0c4.4,0,8-0.9,10.7-2.6l2,3.1c-3.3,2.1-7.5,3.2-12.8,3.1c-3.9-0.1-8.3-0.7-13.8-2
				l-7.3-1.8c-1.9-0.4-3.6-0.9-5.3-1.1c-2.2-0.4-3.9-0.6-5.5-0.5c-1.7,0-3.2,0.2-4.7,0.7c-1.3,0.4-2.7,1.2-4.2,2.2
				c-1.3,1-2.7,2.2-4.1,3.7c-2.5,2.6-4.8,5.6-7.3,8.8l-1,1.3C19.6,193.1,13.5,200.1,6,201.9z"/>
		</g>
		<g>
			<path class="st1" d="M43.4,191.1c-0.2,0-0.3,0-0.5,0c-1.9,0-4.1-0.3-6.5-0.9c-4.3-1-8.8-2.8-12.9-4.5l-1.3-0.6
				c-7.8-3.3-15.2-6.4-21.4-4.9L0,176.6c7.3-1.7,15.2,1.6,23.6,5.1l1.3,0.6c4,1.7,8.3,3.4,12.4,4.4c2.1,0.5,4,0.8,5.7,0.8
				c1.8,0,3.6-0.2,5.1-0.7c1.5-0.5,2.9-1.3,4.6-2.4c1.4-1.1,2.8-2.4,4.2-4c1.4-1.7,2.6-3.4,3.8-5.1c0.6-0.9,1.1-1.8,1.8-2.9
				c0.5-0.9,1.1-1.9,1.7-2.9c0.8-1.5,1.7-3.1,2.4-4.6c1.3-2.5,2.5-4.8,3.8-7c2.5-4.2,4.8-6.9,7.6-8.7l2,3.1
				c-2.3,1.5-4.3,3.8-6.5,7.5c-1.3,2.1-2.5,4.4-3.7,6.8c-0.8,1.5-1.6,3.1-2.5,4.6c-0.6,1.1-1.1,2.1-1.7,3c-0.7,1.1-1.2,2.1-1.8,3
				c-1.2,1.9-2.5,3.7-4.1,5.5c-1.5,1.8-3.1,3.3-4.8,4.6c-2,1.4-3.8,2.4-5.6,3C47.4,190.8,45.5,191.1,43.4,191.1z"/>
		</g>
	</g>
</g>
</svg>
