<?xml version="1.0" encoding="utf-8"?>
<!-- Generator: Adobe Illustrator 22.0.0, SVG Export Plug-In . SVG Version: 6.00 Build 0)  -->
<svg version="1.1" id="Layer_1" xmlns="http://www.w3.org/2000/svg" xmlns:xlink="http://www.w3.org/1999/xlink" x="0px" y="0px"
	 viewBox="0 0 150.9 194.3" style="enable-background:new 0 0 150.9 194.3;" xml:space="preserve">
<style type="text/css">
	.st0{fill:#EAD56E;}
	.st1{fill:#C9A24C;}
</style>
<g>
	<g>
		<g>
			
				<rect x="14.5" y="174.6" transform="matrix(0.2241 -0.9746 0.9746 0.2241 -162.8034 153.896)" class="st0" width="1.6" height="9.2"/>
		</g>
		<g>
			
				<rect x="32.3" y="128.5" transform="matrix(0.462 -0.8869 0.8869 0.462 -100.2446 100.944)" class="st0" width="1.6" height="9.2"/>
		</g>
		<g>
			
				<rect x="27.4" y="138.5" transform="matrix(0.4161 -0.9093 0.9093 0.4161 -113.6985 109.1823)" class="st0" width="1.6" height="9.2"/>
		</g>
		<g>
			
				<rect x="17.4" y="163.8" transform="matrix(0.2856 -0.9584 0.9584 0.2856 -148.3791 137.7908)" class="st0" width="1.6" height="9.2"/>
		</g>
		<g>
			
				<rect x="21" y="146.7" transform="matrix(0.3433 -0.9392 0.9392 0.3433 -133.8046 123.9819)" class="st0" width="1.6" height="21.9"/>
		</g>
		<g>
			
				<rect x="19.9" y="153.3" transform="matrix(0.3226 -0.9465 0.9465 0.3226 -139.0542 129.0748)" class="st0" width="1.6" height="16.7"/>
		</g>
		<g>
			
				<rect x="24.1" y="141.4" transform="matrix(0.3832 -0.9237 0.9237 0.3832 -123.0367 115.3561)" class="st0" width="1.6" height="16.7"/>
		</g>
		<g>
			
				<rect x="25.6" y="140.2" transform="matrix(0.4011 -0.916 0.916 0.4011 -118.0336 111.7162)" class="st0" width="1.6" height="11.8"/>
		</g>
		<g>
			
				<rect x="18.6" y="159.5" transform="matrix(0.3026 -0.9531 0.9531 0.3026 -144.1214 133.8485)" class="st0" width="1.6" height="11.8"/>
		</g>
		<g>
			
				<rect x="22.6" y="142.5" transform="matrix(0.3651 -0.931 0.931 0.3651 -127.9716 119.1954)" class="st0" width="1.6" height="21.9"/>
		</g>
		<g>
			
				<rect x="37.5" y="112.1" transform="matrix(0.5035 -0.864 0.864 0.5035 -87.4367 94.2074)" class="st0" width="1.6" height="22.1"/>
		</g>
		<g>
			
				<rect x="35.6" y="118.5" transform="matrix(0.4886 -0.8725 0.8725 0.4886 -92.1078 96.6738)" class="st0" width="1.6" height="16.9"/>
		</g>
		<g>
			
				<rect x="33.8" y="124.4" transform="matrix(0.4739 -0.8806 0.8806 0.4739 -96.6203 98.9874)" class="st0" width="1.6" height="12"/>
		</g>
		<g>
			
				<rect x="13.1" y="178" transform="matrix(0.1816 -0.9834 0.9834 0.1816 -171.8858 166.1557)" class="st0" width="1.6" height="16.7"/>
		</g>
		<g>
			
				<rect x="13.9" y="176.5" transform="matrix(0.205 -0.9788 0.9788 0.205 -166.8916 159.3845)" class="st0" width="1.6" height="11.8"/>
		</g>
		<g>
			
				<rect x="12.4" y="179.2" transform="matrix(0.1581 -0.9874 0.9874 0.1581 -176.6573 173.1844)" class="st0" width="1.6" height="21.9"/>
		</g>
		<g>
			<path class="st1" d="M31.3,165.1c-1,1.1-2.2,2.1-3.7,3.3c-1.3,1-2.8,2.1-4.8,3.4l-2.6,1.7l-2.6,1.7c-1.4,1-3.3,2.3-5.1,3.6
				c-1.7,1.3-3.1,2.6-4.3,3.9c-0.7,0.7-1.3,1.4-1.8,2c-0.5,0.7-1,1.4-1.4,2.1c-0.8,1.4-1.3,2.9-1.6,4.3L0,190.4c0.3-1.8,1-3.6,2-5.4
				c0.5-0.8,1-1.7,1.6-2.5l0,0c0.6-0.8,1.3-1.5,2-2.3c1.3-1.4,2.8-2.7,4.7-4.2c1.9-1.4,3.8-2.8,5.3-3.8l2.6-1.8l2.6-1.7
				c1.9-1.3,3.4-2.3,4.6-3.3c1.5-1.2,2.7-2.2,3.6-3.3c0.5-0.5,0.9-1.1,1.2-1.6l0-0.1c0.4-0.5,0.7-1.1,0.9-1.7
				c0.4-1.1,0.6-2.4,0.6-3.9l0-0.1c0-1.4-0.1-2.9-0.5-4.8c-0.2-1-0.4-2-0.6-2.7c-0.2-0.9-0.4-1.8-0.7-2.9c-0.3-1.2-0.7-2.5-1-3.7
				c-0.2-0.8-0.4-1.5-0.6-2.3c-0.5-1.9-1-4.1-1.5-6.2c-0.3-1.2-0.4-2.2-0.6-3.1c-0.1-1.1-0.3-2.1-0.3-3.1c-0.1-2.2-0.1-4.2,0.2-6
				c0.4-2.1,1-3.9,1.9-5.4l3.1,1.8c-0.7,1.2-1.2,2.6-1.5,4.2c-0.2,1.5-0.3,3.2-0.2,5.1c0.1,0.9,0.2,1.8,0.3,2.8
				c0.1,0.8,0.3,1.8,0.5,2.9c0.4,2.1,1,4.2,1.4,6c0.2,0.7,0.4,1.5,0.6,2.2c0.4,1.3,0.7,2.5,1,3.8c0.3,1.1,0.5,2.1,0.7,2.9
				c0.2,0.8,0.4,1.8,0.6,2.9c0.4,2.1,0.6,3.9,0.5,5.5c0,2-0.3,3.7-0.9,5.2c-0.3,0.8-0.7,1.6-1.2,2.3c-0.4,0.7-1,1.4-1.6,2.1
				C31.6,164.8,31.5,164.9,31.3,165.1z"/>
		</g>
		<g>
			<path class="st1" d="M25.7,194.3l-3.6-0.6c0.2-1.2,0.1-2.4-0.2-3.8c-0.2-0.7-0.4-1.4-0.6-2.2l0-0.1c-0.2-0.7-0.5-1.5-0.9-2.3
				c-0.6-1.4-1.3-3-2.4-5.1c-0.6-1.2-1.1-2.3-1.7-3.4c-0.4-0.7-0.7-1.4-1.1-2.1c-0.5-1-1-1.9-1.4-2.9c-0.5-1.1-0.9-2.1-1.3-3
				c-0.9-2.2-1.6-4.1-2-6c-0.5-2.2-0.8-4.1-0.8-5.9c0-1,0-2,0.2-2.9l0-0.1c0.2-1,0.4-1.9,0.8-2.8c0.7-1.7,1.7-3.4,3-4.9c0,0,0,0,0,0
				c1.3-1.4,2.8-2.7,4.6-3.9c0.9-0.6,1.7-1.2,2.6-1.7c0.9-0.5,1.8-1,2.8-1.5c1.7-0.8,3.5-1.7,5.8-2.7l1.8-0.7c1.4-0.6,2.7-1.1,4-1.7
				c0.8-0.4,1.7-0.8,2.7-1.2c1-0.4,1.8-0.8,2.5-1.2c1.7-0.9,3-1.7,4.1-2.6c1.2-1,2.1-1.9,2.7-3l3.1,1.8c-0.9,1.5-2,2.8-3.6,4
				c-1.3,1-2.8,2-4.7,3c-0.8,0.4-1.7,0.8-2.7,1.3c-1,0.4-1.9,0.9-2.7,1.2c-1.3,0.6-2.7,1.1-4.1,1.7l-1.7,0.7c-2.2,1-4,1.8-5.6,2.6
				c-1,0.5-1.8,0.9-2.7,1.4c-0.8,0.4-1.6,1-2.4,1.5c-1.6,1.1-2.9,2.2-4,3.4c-1,1.2-1.8,2.5-2.3,3.8c-0.2,0.6-0.4,1.3-0.6,2.1
				c-0.1,0.7-0.1,1.5-0.1,2.3c0,1.5,0.3,3.3,0.7,5.1c0.4,1.6,1.1,3.4,1.9,5.5c0.4,0.9,0.7,1.8,1.2,2.8c0.4,0.9,0.9,1.9,1.4,2.8
				c0.4,0.7,0.7,1.4,1.1,2.1c0.6,1.2,1.2,2.3,1.7,3.5c1.1,2.2,1.9,3.8,2.6,5.4c0.4,0.9,0.7,1.8,1,2.6c0.3,0.9,0.6,1.8,0.8,2.6
				C25.9,190.9,26,192.6,25.7,194.3z"/>
		</g>
	</g>
	<g>
		<g>
			
				<rect x="45.5" y="105.3" transform="matrix(0.555 -0.8319 0.8319 0.555 -70.8582 87.4172)" class="st0" width="1.6" height="9.2"/>
		</g>
		<g>
			
				<rect x="76.7" y="66.9" transform="matrix(0.6763 -0.7366 0.7366 0.6763 -27.5682 80.1835)" class="st0" width="1.6" height="9.2"/>
		</g>
		<g>
			
				<rect x="69.2" y="75.2" transform="matrix(0.6549 -0.7557 0.7557 0.6549 -36.144 80.4292)" class="st0" width="1.6" height="9.2"/>
		</g>
		<g>
			
				<rect x="52" y="96.2" transform="matrix(0.5882 -0.8087 0.8087 0.5882 -59.8122 84.1765)" class="st0" width="1.6" height="9.2"/>
		</g>
		<g>
			
				<rect x="58.8" y="80.8" transform="matrix(0.6187 -0.7856 0.7856 0.6187 -49.4126 81.8189)" class="st0" width="1.6" height="21.9"/>
		</g>
		<g>
			
				<rect x="56.4" y="86.9" transform="matrix(0.6078 -0.7941 0.7941 0.6078 -53.1853 82.7982)" class="st0" width="1.6" height="16.7"/>
		</g>
		<g>
			
				<rect x="64.1" y="76.9" transform="matrix(0.6389 -0.7693 0.7693 0.6389 -42.1304 80.7024)" class="st0" width="1.6" height="16.7"/>
		</g>
		<g>
			
				<rect x="66.7" y="76.3" transform="matrix(0.6476 -0.762 0.762 0.6476 -38.8385 80.3734)" class="st0" width="1.6" height="11.8"/>
		</g>
		<g>
			
				<rect x="54.1" y="92.5" transform="matrix(0.5971 -0.8022 0.8022 0.5971 -56.812 83.6576)" class="st0" width="1.6" height="11.8"/>
		</g>
		<g>
			
				<rect x="61.6" y="77.3" transform="matrix(0.6299 -0.7767 0.7767 0.6299 -45.4339 81.1489)" class="st0" width="1.6" height="21.9"/>
		</g>
		<g>
			
				<rect x="84.1" y="52.1" transform="matrix(0.6948 -0.7192 0.7192 0.6948 -19.4873 80.3446)" class="st0" width="1.6" height="22.1"/>
		</g>
		<g>
			
				<rect x="81.5" y="57.9" transform="matrix(0.6882 -0.7255 0.7255 0.6882 -22.4711 80.3501)" class="st0" width="1.6" height="16.9"/>
		</g>
		<g>
			
				<rect x="78.8" y="63.2" transform="matrix(0.6816 -0.7318 0.7318 0.6816 -25.2867 80.2391)" class="st0" width="1.6" height="12"/>
		</g>
		<g>
			
				<rect x="41.6" y="107.7" transform="matrix(0.5316 -0.847 0.847 0.5316 -78.4761 90.2997)" class="st0" width="1.6" height="16.7"/>
		</g>
		<g>
			
				<rect x="43.8" y="106.8" transform="matrix(0.5447 -0.8386 0.8386 0.5447 -74.2589 88.683)" class="st0" width="1.6" height="11.8"/>
		</g>
		<g>
			
				<rect x="39.6" y="108.5" transform="matrix(0.5187 -0.855 0.855 0.5187 -82.6769 91.9674)" class="st0" width="1.6" height="21.9"/>
		</g>
		<g>
			<path class="st1" d="M70.2,98.9c-0.9,1-2,1.9-3.4,2.7c-0.7,0.4-1.6,0.8-2.5,1.3c-0.8,0.4-1.7,0.7-2.6,1.1
				c-1.6,0.6-3.4,1.1-5.8,1.7c-1.5,0.4-3.1,0.8-4.6,1.2l-4.5,1.1c-1,0.3-2,0.6-2.9,0.9c-2.1,0.7-3.9,1.3-5.5,2
				c-1.7,0.8-3.2,1.7-4.4,2.6c-0.6,0.5-1.2,1-1.7,1.5c-0.4,0.5-0.9,1.1-1.2,1.7l-3.1-1.9c0.5-0.8,1.1-1.6,1.7-2.3
				c0.7-0.7,1.4-1.3,2.2-2c1.4-1.1,3.1-2.1,5.1-3c1.7-0.8,3.6-1.5,5.9-2.2c1-0.3,2-0.6,3-0.9l4.6-1.1c1.6-0.4,3.1-0.8,4.5-1.1
				c2.3-0.6,4-1.1,5.5-1.6c0.9-0.3,1.6-0.6,2.4-0.9c0.8-0.4,1.5-0.7,2.1-1.1c1.3-0.8,2.3-1.6,3.1-2.6c0.8-1,1.4-2.2,1.9-3.6
				c0.2-0.7,0.4-1.5,0.6-2.3c0.2-0.8,0.3-1.7,0.4-2.6c0.2-1.6,0.3-3.4,0.3-5.7c0.1-1.7,0.1-3.4,0.1-5.2l0.1-4.2
				c0-1.2,0.1-2.2,0.2-3.2c0.1-2.4,0.4-4.4,0.7-6.2c0.4-2.2,1-4,1.7-5.7c0.4-0.9,0.8-1.8,1.3-2.5c0.5-0.8,1.1-1.6,1.8-2.2l2.6,2.6
				c-0.5,0.5-0.9,1-1.3,1.6c-0.4,0.6-0.7,1.2-1,2c-0.6,1.4-1.1,3-1.4,4.9c-0.3,1.6-0.5,3.5-0.6,5.8c-0.1,0.9-0.1,1.9-0.1,3.1
				L75,76.5c0,1.7,0,3.5-0.1,5.3c-0.1,2.4-0.2,4.3-0.4,6c-0.1,1-0.3,1.9-0.5,2.8c-0.2,0.9-0.4,1.9-0.7,2.7c-0.6,1.9-1.4,3.4-2.5,4.8
				C70.7,98.4,70.5,98.6,70.2,98.9z"/>
		</g>
		<g>
			<path class="st1" d="M50.4,127.9l-3.1-1.9c0.3-0.5,0.6-1.1,0.8-1.7c0.2-0.6,0.4-1.3,0.5-2c0.2-1.4,0.3-2.9,0.3-4.9
				c0-1.6-0.1-3.4-0.4-5.7l-0.7-6.2c-0.2-2-0.4-4.2-0.6-6.4c-0.1-2.4-0.1-4.4,0-6.2c0.1-1.1,0.2-2.1,0.3-3c0.2-1,0.4-2,0.7-2.9
				c0.6-1.9,1.5-3.6,2.6-5c1.1-1.4,2.6-2.6,4.4-3.7c0.8-0.5,1.7-0.9,2.6-1.3c0.9-0.4,1.8-0.7,2.9-1c1.8-0.5,3.7-1,6-1.4
				c2.2-0.4,4.4-0.7,6.3-0.9l6.2-0.8c2.2-0.3,4-0.6,5.6-1c1.9-0.4,3.4-0.9,4.7-1.6c0.7-0.3,1.3-0.7,1.9-1.1c0.6-0.4,1.1-0.8,1.5-1.3
				l2.6,2.6c-0.6,0.6-1.3,1.2-2.1,1.7c-0.7,0.5-1.5,0.9-2.4,1.3c-1.5,0.7-3.3,1.3-5.4,1.8c-1.7,0.4-3.6,0.8-5.9,1.1l-6.2,0.8
				c-1.9,0.2-4.1,0.5-6.2,0.9c-2.2,0.4-4,0.8-5.6,1.3c-0.9,0.3-1.7,0.6-2.5,0.9c-0.8,0.3-1.5,0.7-2.2,1.1c-1.4,0.8-2.5,1.7-3.4,2.8
				c-0.8,1-1.5,2.3-2,3.9c-0.2,0.7-0.4,1.5-0.6,2.4c-0.1,0.8-0.2,1.7-0.3,2.6c-0.1,1.7-0.1,3.6,0,5.8c0.1,2.1,0.3,4.2,0.6,6.2
				l0.7,6.2c0.3,2.4,0.4,4.3,0.4,6c0.1,2.1-0.1,4-0.3,5.6c-0.2,0.9-0.4,1.8-0.7,2.6C51.2,126.4,50.8,127.2,50.4,127.9z"/>
		</g>
	</g>
	<g>
		<g>
			
				<rect x="94.9" y="47.4" transform="matrix(0.7156 -0.6985 0.6985 0.7156 -9.1085 81.6398)" class="st0" width="1.6" height="9.2"/>
		</g>
		<g>
			
				<rect x="131.8" y="14.2" transform="matrix(0.7502 -0.6612 0.6612 0.7502 20.6492 92.3557)" class="st0" width="1.6" height="9.2"/>
		</g>
		<g>
			
				<rect x="123.4" y="21.7" transform="matrix(0.7463 -0.6656 0.6656 0.7463 14.0211 89.3236)" class="st0" width="1.6" height="9.2"/>
		</g>
		<g>
			
				<rect x="103.1" y="39.7" transform="matrix(0.7278 -0.6858 0.6858 0.7278 -2.145 83.2947)" class="st0" width="1.6" height="9.2"/>
		</g>
		<g>
			
				<rect x="111.3" y="25.7" transform="matrix(0.7371 -0.6758 0.6758 0.7371 4.7087 85.4128)" class="st0" width="1.6" height="21.9"/>
		</g>
		<g>
			
				<rect x="108.5" y="31.3" transform="matrix(0.734 -0.6792 0.6792 0.734 2.1277 84.7461)" class="st0" width="1.6" height="16.7"/>
		</g>
		<g>
			
				<rect x="117.6" y="22.6" transform="matrix(0.7428 -0.6695 0.6695 0.7428 9.721 87.2284)" class="st0" width="1.6" height="16.7"/>
		</g>
		<g>
			
				<rect x="120.6" y="22.4" transform="matrix(0.745 -0.6671 0.6671 0.745 12.0772 88.1712)" class="st0" width="1.6" height="11.8"/>
		</g>
		<g>
			
				<rect x="105.6" y="36.4" transform="matrix(0.7304 -0.683 0.683 0.7304 -0.2387 84.0605)" class="st0" width="1.6" height="11.8"/>
		</g>
		<g>
			
				<rect x="114.7" y="22.6" transform="matrix(0.7402 -0.6724 0.6724 0.7402 7.4337 86.386)" class="st0" width="1.6" height="21.9"/>
		</g>
		<g>
			<rect x="140" y="0.2" transform="matrix(0.7519 -0.6592 0.6592 0.7519 27.5 95.6126)" class="st0" width="1.6" height="22.1"/>
		</g>
		<g>
			
				<rect x="137.1" y="5.8" transform="matrix(0.7515 -0.6597 0.6597 0.7515 24.8857 94.4695)" class="st0" width="1.6" height="16.9"/>
		</g>
		<g>
			
				<rect x="134.1" y="10.8" transform="matrix(0.7506 -0.6607 0.6607 0.7506 22.5391 93.3127)" class="st0" width="1.6" height="12"/>
		</g>
		<g>
			
				<rect x="89.8" y="48.8" transform="matrix(0.7064 -0.7078 0.7078 0.7064 -13.8895 80.92)" class="st0" width="1.6" height="16.7"/>
		</g>
		<g>
			
				<rect x="92.6" y="48.5" transform="matrix(0.7119 -0.7023 0.7023 0.7119 -11.2786 81.2813)" class="st0" width="1.6" height="11.8"/>
		</g>
		<g>
			
				<rect x="87.1" y="49" transform="matrix(0.7013 -0.7129 0.7129 0.7013 -16.5121 80.5419)" class="st0" width="1.6" height="21.9"/>
		</g>
		<g>
			<path class="st1" d="M123.1,43.9c-0.2,0.3-0.5,0.5-0.8,0.7c-5,4.5-13,4.9-21.6,5.2l-1.2,0.1c-4,0.2-8.1,0.4-11.6,1.2
				c-1.9,0.4-3.5,0.9-4.8,1.5c-1.4,0.7-2.6,1.5-3.5,2.4L77,52.5c1.2-1.3,2.8-2.3,4.6-3.2c1.6-0.7,3.5-1.3,5.6-1.8
				c3.8-0.8,8-1,12.2-1.2l1.2-0.1c7.9-0.3,15.3-0.7,19.3-4.3c4.1-3.7,5.1-11.6,6.1-19.3l0.1-0.5c1.1-8.5,2.3-17.4,7.7-22.1l2.4,2.7
				c-4.3,3.8-5.5,12.3-6.4,19.8l-0.1,0.5C128.6,31,127.5,39.1,123.1,43.9z"/>
		</g>
		<g>
			<path class="st1" d="M150.9,19.6c-5.2,4.6-14,4.7-22.5,4.7l-0.4,0c-7.6,0.1-16.1,0.1-20.5,4.1c-4.4,4-5.2,12.9-5.9,20
				c-0.3,3.9-0.7,8.3-1.5,12.2c-0.4,2.1-1,3.9-1.7,5.5c-0.8,1.8-1.7,3.3-2.9,4.5L93,68.1c0.9-0.9,1.6-2,2.2-3.4
				c0.6-1.3,1.1-2.9,1.4-4.7c0.7-3.7,1.1-8,1.4-11.8c0.7-7.8,1.6-17.4,7-22.4c5.4-4.9,14.7-5,22.9-5.1l0.4,0
				c7.8-0.1,15.9-0.2,20.1-3.8L150.9,19.6z"/>
		</g>
	</g>
</g>
</svg>
