<?xml version="1.0" encoding="utf-8"?>
<!-- Generator: Adobe Illustrator 22.0.0, SVG Export Plug-In . SVG Version: 6.00 Build 0)  -->
<svg version="1.1" id="Layer_1" xmlns="http://www.w3.org/2000/svg" xmlns:xlink="http://www.w3.org/1999/xlink" x="0px" y="0px"
	 viewBox="0 0 101.3 179" style="enable-background:new 0 0 101.3 179;" xml:space="preserve">
<style type="text/css">
	.st0{fill:#D36CAF;}
	.st1{fill:#9155AA;}
</style>
<g>
	<g>
		<g>
			
				<rect x="81" y="162" transform="matrix(0.3274 -0.9449 0.9449 0.3274 -96.2405 190.4008)" class="st0" width="9.2" height="1.6"/>
		</g>
		<g>
			<rect x="40.2" y="142" transform="matrix(0.5781 -0.816 0.816 0.5781 -97.6482 96.8104)" class="st0" width="9.2" height="1.6"/>
		</g>
		<g>
			
				<rect x="48.9" y="147.5" transform="matrix(0.4958 -0.8685 0.8685 0.4958 -101.866 121.2153)" class="st0" width="9.2" height="1.6"/>
		</g>
		<g>
			
				<rect x="71.4" y="158.4" transform="matrix(0.3588 -0.9334 0.9334 0.3588 -99.8571 172.9964)" class="st0" width="9.2" height="1.6"/>
		</g>
		<g>
			
				<rect x="55.4" y="154.4" transform="matrix(0.4049 -0.9143 0.9143 0.4049 -102.4279 153.0409)" class="st0" width="21.9" height="1.6"/>
		</g>
		<g>
			
				<rect x="61.6" y="155.7" transform="matrix(0.3864 -0.9223 0.9223 0.3864 -101.3968 160.5629)" class="st0" width="16.7" height="1.6"/>
		</g>
		<g>
			
				<rect x="51" y="151.1" transform="matrix(0.4493 -0.8934 0.8934 0.4493 -103.031 136.6357)" class="st0" width="16.7" height="1.6"/>
		</g>
		<g>
			
				<rect x="50.1" y="149.4" transform="matrix(0.4733 -0.8809 0.8809 0.4733 -102.7831 128.477)" class="st0" width="11.8" height="1.6"/>
		</g>
		<g>
			
				<rect x="67.4" y="157.1" transform="matrix(0.3705 -0.9288 0.9288 0.3705 -100.4688 167.4743)" class="st0" width="11.8" height="1.6"/>
		</g>
		<g>
			
				<rect x="51.6" y="152.7" transform="matrix(0.4277 -0.9039 0.9039 0.4277 -102.931 144.3577)" class="st0" width="21.9" height="1.6"/>
		</g>
		<g>
			
				<rect x="25.5" y="135.8" transform="matrix(0.6731 -0.7395 0.7395 0.6731 -89.0629 71.7279)" class="st0" width="22.1" height="1.6"/>
		</g>
		<g>
			
				<rect x="31.2" y="138.1" transform="matrix(0.6367 -0.7711 0.7711 0.6367 -92.7118 81.0501)" class="st0" width="16.9" height="1.6"/>
		</g>
		<g>
			
				<rect x="36.5" y="140.4" transform="matrix(0.6034 -0.7974 0.7974 0.6034 -95.7007 89.8542)" class="st0" width="12" height="1.6"/>
		</g>
		<g>
			
				<rect x="83.6" y="164.1" transform="matrix(0.3141 -0.9494 0.9494 0.3141 -93.3917 200.4277)" class="st0" width="16.7" height="1.6"/>
		</g>
		<g>
			
				<rect x="82.6" y="162.9" transform="matrix(0.3206 -0.9472 0.9472 0.3206 -94.8953 195.051)" class="st0" width="11.8" height="1.6"/>
		</g>
		<g>
			
				<rect x="84.5" y="165.2" transform="matrix(0.3096 -0.9509 0.9509 0.3096 -91.928 205.3218)" class="st0" width="21.9" height="1.6"/>
		</g>
		<g>
			<path class="st1" d="M93.3,179c-6.3-2-10.5-9.6-14.3-17.1c-0.4-0.7-0.7-1.4-1.1-2.2c-1.4-2.9-2.8-5.6-4.2-7.9
				c-2-3.1-3.7-4.9-5.5-5.8c-1.9-0.8-4.3-1-7.9-0.4c-1.9,0.3-4,0.8-6.2,1.3c-1.6,0.4-3.3,0.7-4.9,1.1c-3.2,0.6-7.9,1.4-12.4,1
				c-4.5-0.4-8.3-1.8-10.8-4.3l2.5-2.6c1.9,1.8,4.9,3,8.6,3.3c4,0.3,8.4-0.4,11.4-1c1.6-0.3,3.3-0.7,4.8-1c2.2-0.5,4.4-1,6.4-1.3
				c2.9-0.5,6.7-0.8,10,0.7c2.5,1.2,4.7,3.4,7.1,7.2c1.5,2.5,2.9,5.2,4.4,8.2c0.4,0.7,0.7,1.4,1.1,2.2c3.3,6.5,7.2,13.6,12.1,15.2
				L93.3,179z"/>
		</g>
		<g>
			<path class="st1" d="M65.1,167.2c-2.2,0-4.1-0.4-5.9-1.2c-3-1.3-5.6-4.1-7.7-8c-1.6-3-3-6.8-4.2-11.5c-0.5-2.1-1-4.1-1.4-6
				c-0.4-1.8-0.8-3.5-1.2-5c-0.7-2.6-1.5-5.3-3.1-6.8l2.5-2.6c2.3,2.1,3.3,5.4,4.2,8.5c0.4,1.6,0.8,3.3,1.2,5.1
				c0.4,1.9,0.9,3.9,1.4,5.9c1.1,4.5,2.4,8,3.9,10.7c1.7,3.3,3.8,5.4,6,6.4c2.2,1,5.1,1.1,8.6,0.3c3.5-0.8,7.2-2.3,10.7-3.8
				c0.6-0.3,1.2-0.5,1.7-0.8c7.1-3.1,13.8-6.1,19.5-4.2l-1.1,3.5c-4.4-1.4-10.5,1.2-16.9,4.1c-0.6,0.3-1.2,0.5-1.8,0.8
				c-3.7,1.6-7.6,3.2-11.3,4C68.4,167,66.7,167.2,65.1,167.2z"/>
		</g>
	</g>
	<g>
		<g>
			<rect x="22.3" y="125.4" transform="matrix(0.81 -0.5864 0.5864 0.81 -68.8702 39.7544)" class="st0" width="9.2" height="1.6"/>
		</g>
		<g>
			
				<rect x="9.2" y="82.4" transform="matrix(0.9977 -6.835524e-02 6.835524e-02 0.9977 -5.6512 1.1355)" class="st0" width="9.2" height="1.6"/>
		</g>
		<g>
			
				<rect x="10.3" y="92.6" transform="matrix(0.9888 -0.1491 0.1491 0.9888 -13.7511 3.2586)" class="st0" width="9.2" height="1.6"/>
		</g>
		<g>
			
				<rect x="17.1" y="116.5" transform="matrix(0.8949 -0.4463 0.4463 0.8949 -50.0805 22.0076)" class="st0" width="9.2" height="1.6"/>
		</g>
		<g>
			
				<rect x="6.8" y="106.9" transform="matrix(0.9518 -0.3066 0.3066 0.9518 -32.1627 10.637)" class="st0" width="21.9" height="1.6"/>
		</g>
		<g>
			
				<rect x="10.9" y="110.4" transform="matrix(0.9345 -0.3561 0.3561 0.9345 -38.3286 14.1557)" class="st0" width="16.7" height="1.6"/>
		</g>
		<g>
			
				<rect x="7.4" y="99.4" transform="matrix(0.9762 -0.2168 0.2168 0.9762 -21.3385 5.7957)" class="st0" width="16.7" height="1.6"/>
		</g>
		<g>
			
				<rect x="9.1" y="95.8" transform="matrix(0.9838 -0.1791 0.1791 0.9838 -17.0457 4.2484)" class="st0" width="11.8" height="1.6"/>
		</g>
		<g>
			
				<rect x="14.7" y="113.7" transform="matrix(0.9143 -0.4049 0.4049 0.9143 -44.6065 18.1734)" class="st0" width="11.8" height="1.6"/>
		</g>
		<g>
			
				<rect x="5.6" y="102.9" transform="matrix(0.9665 -0.2565 0.2565 0.9665 -26.0322 7.7256)" class="st0" width="21.9" height="1.6"/>
		</g>
		<g>
			
				<rect x="2" y="72.1" transform="matrix(1 -7.161275e-03 7.161275e-03 1 -0.5215 9.584820e-02)" class="st0" width="22.1" height="1.6"/>
		</g>
		<g>
			
				<rect x="5" y="75.9" transform="matrix(0.9996 -2.929384e-02 2.929384e-02 0.9996 -2.2407 0.4269)" class="st0" width="16.9" height="1.6"/>
		</g>
		<g>
			
				<rect x="7.6" y="79.5" transform="matrix(0.9987 -5.013245e-02 5.013245e-02 0.9987 -4.0083 0.7827)" class="st0" width="12" height="1.6"/>
		</g>
		<g>
			
				<rect x="22.8" y="130.6" transform="matrix(0.7465 -0.6654 0.6654 0.7465 -79.4808 54.0621)" class="st0" width="16.7" height="1.6"/>
		</g>
		<g>
			
				<rect x="22.9" y="127.7" transform="matrix(0.7819 -0.6234 0.6234 0.7819 -73.8252 46.0084)" class="st0" width="11.8" height="1.6"/>
		</g>
		<g>
			
				<rect x="22.7" y="133.2" transform="matrix(0.7116 -0.7025 0.7025 0.7116 -84.3942 62.2778)" class="st0" width="21.9" height="1.6"/>
		</g>
		<g>
			<path class="st1" d="M26.1,144.8c-2.6-2.5-4.2-6.2-4.7-10.8c-0.4-3.6-0.1-7.8,0.9-12.6l0.1-0.5c0.2-0.8,0.4-1.6,0.6-2.5l0.8-2.8
				c0.5-1.8,1-3.4,1.5-5.1c0.8-3,1.2-5.4,0.7-7.4c-0.6-2.1-2.6-4.1-4.7-6c-1.4-1.2-2.9-2.5-4.6-3.8c-1.4-1.1-2.8-2.2-4.1-3.4
				C8.7,86.6,6,83.8,4,81.2c-2.7-3.7-4-7-4-10.3l3.6,0c0,2.5,1.1,5.1,3.3,8.1c1.8,2.4,4.4,5,8,8.1c1.4,1.2,2.7,2.3,4.1,3.4
				c1.7,1.4,3.3,2.7,4.7,4c2.5,2.2,4.9,4.7,5.7,7.7c0.8,2.8,0.3,5.8-0.7,9.4c-0.5,1.7-1,3.4-1.5,5.2l-0.8,2.7
				c-0.2,0.7-0.4,1.5-0.6,2.3l-0.1,0.5c-0.9,4.3-1.2,8.2-0.8,11.3c0.4,3.7,1.7,6.7,3.6,8.6L26.1,144.8z"/>
		</g>
		<g>
			<path class="st1" d="M41.6,128.6c-1.4-1.4-3.7-2.1-6.8-2.8c-0.9-0.2-1.8-0.4-2.8-0.6c-2.5-0.5-5.3-1-8.2-1.8l-0.4-0.1
				c-0.9-0.2-1.8-0.5-2.6-0.8c-1-0.4-2-0.7-2.9-1.1c-2.3-1-4.1-2-5.6-3c-1.7-1.1-3.2-2.5-4.5-4c-1.4-1.7-2.3-3.4-2.8-5.1
				c-1-3.4-0.6-7.3,1.2-11.5c1.3-3.1,3.4-6.5,6.4-10.5c0.8-1.1,1.7-2.2,2.5-3.2c1.6-2,3.1-3.9,4.4-5.8c2-3,3-5.3,3-7.4l3.6,0
				c0,2.8-1.2,5.8-3.6,9.4c-1.3,2-2.9,3.9-4.5,6c-0.8,1-1.7,2.1-2.5,3.2c-2.9,3.8-4.8,6.9-6,9.7c-1.4,3.4-1.8,6.5-1,9
				c0.4,1.2,1.1,2.5,2.1,3.8c1.1,1.2,2.3,2.4,3.7,3.3c1.3,0.9,2.9,1.8,4.9,2.7c0.8,0.3,1.8,0.7,2.7,1c0.8,0.3,1.6,0.5,2.4,0.7
				l0.4,0.1c2.7,0.7,5.4,1.3,7.9,1.7c1,0.2,2,0.4,2.9,0.6c3.7,0.8,6.5,1.7,8.6,3.7L41.6,128.6z"/>
		</g>
	</g>
	<g>
		<g>
			
				<rect x="12.8" y="54" transform="matrix(0.1085 -0.9941 0.9941 0.1085 -46.1887 65.7398)" class="st0" width="1.6" height="9.2"/>
		</g>
		<g>
			<rect x="32.2" y="14.1" transform="matrix(0.7667 -0.642 0.642 0.7667 -4.2977 25.5476)" class="st0" width="1.6" height="9.2"/>
		</g>
		<g>
			
				<rect x="25.2" y="21.5" transform="matrix(0.6076 -0.7943 0.7943 0.6076 -10.5216 30.8704)" class="st0" width="1.6" height="9.2"/>
		</g>
		<g>
			
				<rect x="14.6" y="43.9" transform="matrix(0.2268 -0.9739 0.9739 0.2268 -35.3428 52.4508)" class="st0" width="1.6" height="9.2"/>
		</g>
		<g>
			
				<rect x="17.7" y="27.6" transform="matrix(0.3744 -0.9273 0.9273 0.3744 -24.1984 41.2579)" class="st0" width="1.6" height="21.9"/>
		</g>
		<g>
			
				<rect x="16.6" y="33.9" transform="matrix(0.3172 -0.9484 0.9484 0.3172 -28.169 45.34)" class="st0" width="1.6" height="16.7"/>
		</g>
		<g>
			
				<rect x="21.1" y="23.2" transform="matrix(0.4994 -0.8664 0.8664 0.4994 -16.3876 34.7603)" class="st0" width="1.6" height="16.7"/>
		</g>
		<g>
			
				<rect x="23" y="22.5" transform="matrix(0.5575 -0.8302 0.8302 0.5575 -13.0649 32.3629)" class="st0" width="1.6" height="11.8"/>
		</g>
		<g>
			
				<rect x="15.6" y="39.8" transform="matrix(0.2663 -0.9639 0.9639 0.2663 -32.0358 49.2719)" class="st0" width="1.6" height="11.8"/>
		</g>
		<g>
			
				<rect x="19.4" y="23.8" transform="matrix(0.4423 -0.8969 0.8969 0.4423 -19.8839 37.4738)" class="st0" width="1.6" height="21.9"/>
		</g>
		<g>
			<rect x="40.7" y="1.9" transform="matrix(0.906 -0.4233 0.4233 0.906 -1.5865 18.7657)" class="st0" width="1.6" height="22.1"/>
		</g>
		<g>
			
				<rect x="37.5" y="6.5" transform="matrix(0.8588 -0.5124 0.5124 0.8588 -2.2715 21.703)" class="st0" width="1.6" height="16.9"/>
		</g>
		<g>
			<rect x="34.5" y="11" transform="matrix(0.8086 -0.5883 0.5883 0.8086 -3.2201 23.9703)" class="st0" width="1.6" height="12"/>
		</g>
		<g>
			
				<rect x="12.4" y="57" transform="matrix(4.726027e-02 -0.9989 0.9989 4.726027e-02 -52.7132 75.3676)" class="st0" width="1.6" height="16.7"/>
		</g>
		<g>
			
				<rect x="12.6" y="55.7" transform="matrix(7.931464e-02 -0.9968 0.9968 7.931464e-02 -49.1287 70.0999)" class="st0" width="1.6" height="11.8"/>
		</g>
		<g>
			
				<rect x="12.3" y="57.9" transform="matrix(1.958066e-02 -0.9998 0.9998 1.958066e-02 -56.1135 80.5876)" class="st0" width="1.6" height="21.9"/>
		</g>
		<g>
			<path class="st1" d="M3.6,70.9l-3.6,0c0-3.3,1.4-6.8,4.2-10.4c2.1-2.8,5.1-5.5,9-8.5c2.1-1.6,4.1-3,6.1-4.3
				c1.1-0.8,2.2-1.5,3.2-2.2c2.2-1.6,4.4-3.3,5.2-5.1c0.7-1.7,0.7-3.9,0.3-7.1c-0.1-0.6-0.1-1.3-0.2-1.9c-0.3-2.8-0.7-6-0.7-9.4
				c0-4.9,0.8-9.2,2.4-12.8c1.9-4.4,5.1-7.7,8.9-9.2l1.4,3.4c-2.9,1.2-5.4,3.8-7,7.3c-1.4,3.1-2.1,6.9-2.1,11.3
				c0,3.2,0.4,6.2,0.7,8.9c0.1,0.7,0.2,1.3,0.2,2c0.4,3.2,0.6,6.4-0.6,9c-1.1,2.5-3.3,4.4-6.4,6.6c-1,0.7-2.1,1.4-3.2,2.2
				c-2,1.3-4,2.7-6,4.2c-3.6,2.7-6.4,5.3-8.3,7.8C4.8,65.6,3.7,68.4,3.6,70.9z"/>
		</g>
		<g>
			<path class="st1" d="M26,71l-3.6,0c0-2-0.9-4.2-2.9-7.2c-0.9-1.4-2-2.9-3.2-4.5c-1.1-1.5-2.2-3.1-3.3-4.7
				c-2.8-4.1-4.6-7.8-5.6-11.1C6,39,6.1,34.9,7.6,31.5c1.5-3.4,4.6-6.3,8.8-8.3c3.5-1.6,7.8-2.6,12.5-2.9c4.1-0.2,8,0.1,11.3,0.5
				l0.2,0c2.8,0.3,4.9,0.5,6.3-0.1l1.4,3.4c-2.2,0.9-4.8,0.7-8.1,0.3l-0.2,0c-3.2-0.3-6.9-0.7-10.7-0.5c-4.2,0.2-8,1.1-11.1,2.6
				c-3.4,1.6-5.9,3.9-7,6.5c-1.1,2.5-1.2,5.8-0.1,9.4c0.9,3,2.6,6.3,5.2,10.1c1.1,1.6,2.2,3.1,3.3,4.6c1.2,1.6,2.3,3.2,3.3,4.7
				C24.3,64.4,26,67.5,26,71z"/>
		</g>
	</g>
</g>
</svg>
