<?xml version="1.0" encoding="utf-8"?>
<!-- Generator: Adobe Illustrator 22.0.0, SVG Export Plug-In . SVG Version: 6.00 Build 0)  -->
<svg version="1.1" id="Layer_1" xmlns="http://www.w3.org/2000/svg" xmlns:xlink="http://www.w3.org/1999/xlink" x="0px" y="0px"
	 viewBox="0 0 112.4 44.2" style="enable-background:new 0 0 112.4 44.2;" xml:space="preserve">
<style type="text/css">
	.st0{fill:#EAD56E;}
	.st1{fill:#C9A24C;}
</style>
<g>
	<g>
		<rect x="22" y="18" transform="matrix(0.8026 -0.5965 0.5965 0.8026 -8.9707 18.0428)" class="st0" width="1.6" height="9.2"/>
	</g>
	<g>
		
			<rect x="83.6" y="18.1" transform="matrix(0.3597 -0.9331 0.9331 0.3597 38.8101 94.3478)" class="st0" width="9.2" height="1.6"/>
	</g>
	<g>
		
			<rect x="68.8" y="14.1" transform="matrix(0.1755 -0.9845 0.9845 0.1755 45.8712 84.4619)" class="st0" width="9.2" height="1.6"/>
	</g>
	<g>
		
			<rect x="35.5" y="10.6" transform="matrix(0.9409 -0.3386 0.3386 0.9409 -2.9984 13.1716)" class="st0" width="1.6" height="9.2"/>
	</g>
	<g>
		
			<rect x="50.8" y="1.8" transform="matrix(0.9999 -1.148381e-02 1.148381e-02 0.9999 -0.1433 0.5932)" class="st0" width="1.6" height="21.9"/>
	</g>
	<g>
		
			<rect x="45.1" y="5" transform="matrix(0.9953 -9.716021e-02 9.716021e-02 0.9953 -1.0772 4.5216)" class="st0" width="1.6" height="16.7"/>
	</g>
	<g>
		
			<rect x="54.9" y="12.4" transform="matrix(7.981899e-02 -0.9968 0.9968 7.981899e-02 45.0513 75.172)" class="st0" width="16.7" height="1.6"/>
	</g>
	<g>
		<rect x="62.8" y="13" transform="matrix(0.1288 -0.9917 0.9917 0.1288 46.2268 80.1331)" class="st0" width="11.8" height="1.6"/>
	</g>
	<g>
		<rect x="39.8" y="8.3" transform="matrix(0.9741 -0.2259 0.2259 0.9741 -2.1544 9.5348)" class="st0" width="1.6" height="11.8"/>
	</g>
	<g>
		
			<rect x="46.9" y="12.1" transform="matrix(3.700630e-02 -0.9993 0.9993 3.700630e-02 42.8729 70.2271)" class="st0" width="21.9" height="1.6"/>
	</g>
	<g>
		
			<rect x="90.7" y="25.1" transform="matrix(0.5839 -0.8118 0.8118 0.5839 21.3479 93.4055)" class="st0" width="22.1" height="1.6"/>
	</g>
	<g>
		<rect x="88.4" y="22.2" transform="matrix(0.4984 -0.867 0.867 0.4984 28.6274 95.5208)" class="st0" width="16.9" height="1.6"/>
	</g>
	<g>
		<rect x="86.1" y="19.8" transform="matrix(0.4192 -0.9079 0.9079 0.4192 34.8205 95.5296)" class="st0" width="12" height="1.6"/>
	</g>
	<g>
		
			<rect x="14.3" y="20.7" transform="matrix(0.7429 -0.6694 0.6694 0.7429 -15.5732 17.595)" class="st0" width="1.6" height="16.7"/>
	</g>
	<g>
		<rect x="18.5" y="19.5" transform="matrix(0.771 -0.6368 0.6368 0.771 -11.801 18.1083)" class="st0" width="1.6" height="11.8"/>
	</g>
	<g>
		
			<rect x="10.4" y="21.8" transform="matrix(0.7269 -0.6868 0.6868 0.7269 -19.4212 16.6094)" class="st0" width="1.6" height="21.9"/>
	</g>
	<g>
		<path class="st1" d="M2.5,28L0,25.4c3.3-3.1,7.7-5.5,13.2-7.1c2.4-0.7,5.1-1.2,8-1.6c2.8-0.3,5.6-0.4,8.2-0.3
			c2.9,0.2,5.4,0.5,7.7,1c0.9,0.2,1.7,0.4,2.5,0.6c0.3,0.1,0.6,0.2,0.9,0.2l0.1,0l1.5,0.5c0.6,0.2,1.1,0.3,1.5,0.5l0.7,0.3
			c1.6,0.6,3.2,1.1,4.7,1.5c1.9,0.5,3.7,0.8,5.4,0.8c4,0.1,8-1.2,11.7-2.6c1.4-0.5,2.9-1.1,4.5-1.7c3-1.2,6.1-2.4,9.5-3.4
			c6-1.9,11.4-2.7,16.3-2.4c6.2,0.3,11.7,2.2,15.9,5.6l-2.3,2.8c-3.6-2.9-8.4-4.6-13.8-4.8c-4.5-0.2-9.4,0.5-15,2.3
			c-3.2,1-6.3,2.2-9.2,3.4c-1.6,0.6-3.1,1.2-4.5,1.7c-4.1,1.5-8.4,2.8-13,2.8c-2,0-4.1-0.3-6.3-0.9c-1.7-0.4-3.3-1-5-1.6l-0.7-0.3
			c-0.4-0.1-0.9-0.3-1.4-0.5l-1.5-0.5c-0.3-0.1-0.6-0.2-0.9-0.2c-0.7-0.2-1.5-0.4-2.2-0.5l-0.1,0c-2.1-0.5-4.4-0.8-7.1-0.9
			c-2.4-0.1-5,0-7.6,0.2c-2.7,0.3-5.2,0.8-7.4,1.4C9.3,23.2,5.4,25.3,2.5,28z"/>
	</g>
	<g>
		<path class="st1" d="M18,44.2l-2.5-2.6c3.1-3,5-6.9,6.5-10.4c0.5-1.2,1-2.5,1.6-3.9c1.2-3.1,2.5-6.4,4.3-9.7c1.5-2.8,3-5,4.6-6.9
			c1-1.2,2-2.2,3-3.1l0,0c0.5-0.5,1.1-0.9,1.7-1.4c0.6-0.5,1.3-0.9,1.9-1.3c2.4-1.6,5.1-2.8,7.9-3.7C49.6,0.4,52.3,0,54.8,0
			c4.8,0.1,9.8,1.6,14.8,4.6c4.2,2.5,8.4,6,12.4,10.3c3.5,3.7,6.3,7.6,9.2,11.5l0.1,0.1c2.5,3.4,4.6,6.3,7.1,8.3L96,37.7
			c-2.9-2.3-5.1-5.4-7.7-9l-0.1-0.1c-2.8-3.9-5.6-7.6-8.9-11.2c-3.8-4.1-7.7-7.4-11.6-9.7c-4.5-2.7-8.9-4-13-4.1
			c-2.1,0-4.4,0.3-6.7,1c-2.4,0.7-4.8,1.8-6.9,3.2c-0.5,0.3-1,0.7-1.6,1.1c-0.6,0.4-1.1,0.8-1.5,1.2C37,11.1,36,12,35.2,13l0,0
			c-1.5,1.7-2.8,3.7-4.2,6.3c-1.6,3.1-2.9,6.3-4.1,9.3c-0.5,1.4-1,2.6-1.6,3.9C23.7,36.4,21.6,40.8,18,44.2z"/>
	</g>
</g>
</svg>
