<?xml version="1.0" encoding="utf-8"?>
<!-- Generator: Adobe Illustrator 22.0.0, SVG Export Plug-In . SVG Version: 6.00 Build 0)  -->
<svg version="1.1" id="Layer_1" xmlns="http://www.w3.org/2000/svg" xmlns:xlink="http://www.w3.org/1999/xlink" x="0px" y="0px"
	 viewBox="0 0 50.2 191" style="enable-background:new 0 0 50.2 191;" xml:space="preserve">
<style type="text/css">
	.st0{fill:#D36CAF;}
	.st1{fill:#9155AA;}
</style>
<g>
	<g>
		<g>
			
				<rect x="16.8" y="163.6" transform="matrix(0.3822 -0.9241 0.9241 0.3822 -144.5511 120.1151)" class="st0" width="1.6" height="9.2"/>
		</g>
		<g>
			
				<rect x="32.7" y="106.3" transform="matrix(0.1937 -0.9811 0.9811 0.1937 -81.803 122.243)" class="st0" width="1.6" height="9.2"/>
		</g>
		<g>
			
				<rect x="29.8" y="119.4" transform="matrix(0.2285 -0.9735 0.9735 0.2285 -97.1135 125.4845)" class="st0" width="1.6" height="9.2"/>
		</g>
		<g>
			
				<rect x="21.1" y="150.9" transform="matrix(0.2761 -0.9611 0.9611 0.2761 -133.604 133.5932)" class="st0" width="1.6" height="9.2"/>
		</g>
		<g>
			
				<rect x="24.8" y="131.5" transform="matrix(0.2627 -0.9649 0.9649 0.2627 -118.5945 129.662)" class="st0" width="1.6" height="21.9"/>
		</g>
		<g>
			
				<rect x="23.7" y="138.9" transform="matrix(0.2683 -0.9633 0.9633 0.2683 -123.9956 131.3466)" class="st0" width="1.6" height="16.7"/>
		</g>
		<g>
			
				<rect x="27.4" y="124.2" transform="matrix(0.2468 -0.9691 0.9691 0.2468 -107.3196 127.1463)" class="st0" width="1.6" height="16.7"/>
		</g>
		<g>
			
				<rect x="28.5" y="122" transform="matrix(0.2374 -0.9714 0.9714 0.2374 -101.9656 126.034)" class="st0" width="1.6" height="11.8"/>
		</g>
		<g>
			
				<rect x="22.4" y="145.9" transform="matrix(0.273 -0.962 0.962 0.273 -129.2123 132.6934)" class="st0" width="1.6" height="11.8"/>
		</g>
		<g>
			
				<rect x="26.2" y="126.2" transform="matrix(0.2546 -0.967 0.967 0.2546 -112.5242 128.2975)" class="st0" width="1.6" height="21.9"/>
		</g>
		<g>
			
				<rect x="34.7" y="86.5" transform="matrix(0.1495 -0.9888 0.9888 0.1495 -66.3013 118.1353)" class="st0" width="1.6" height="22.1"/>
		</g>
		<g>
			
				<rect x="34.2" y="94.1" transform="matrix(0.1669 -0.986 0.986 0.1669 -71.9834 119.9518)" class="st0" width="1.6" height="16.9"/>
		</g>
		<g>
			
				<rect x="33.4" y="101.2" transform="matrix(0.1823 -0.9832 0.9832 0.1823 -77.4873 121.2651)" class="st0" width="1.6" height="12"/>
		</g>
		<g>
			
				<rect x="12.9" y="167.6" transform="matrix(0.5449 -0.8385 0.8385 0.5449 -141.3252 91.5437)" class="st0" width="1.6" height="16.7"/>
		</g>
		<g>
			
				<rect x="15.2" y="165.9" transform="matrix(0.447 -0.8945 0.8945 0.447 -144.8112 109.3374)" class="st0" width="1.6" height="11.8"/>
		</g>
		<g>
			
				<rect x="10.1" y="168.7" transform="matrix(0.6558 -0.755 0.755 0.6558 -131.9272 70.0538)" class="st0" width="1.6" height="21.9"/>
		</g>
		<g>
			<path class="st1" d="M2.6,174.9L0,172.3c1.1-1.1,2.3-1.8,3.5-2.5l4.4-2.5c2.6-1.5,6.6-3.8,10.8-6.9c1.9-1.4,3.7-2.8,5.5-4.3
				c2-1.6,3.5-3,4.9-4.4c3.2-3.3,5.1-6.4,5.9-9.4c1.9-7-1.5-15.7-5.1-23.9l-0.8-1.9c-1.7-3.8-3.2-7.3-4.5-10.9
				c-1.7-5-2.2-8.9-1.7-12.3l3.6,0.5c-0.4,2.9,0.1,6.2,1.6,10.6c1.2,3.4,2.7,6.9,4.3,10.6l0.8,1.9c3.9,8.9,7.5,18.2,5.3,26.3
				c-1,3.7-3.2,7.3-6.9,11c-1.4,1.5-3.1,2.9-5.1,4.7c-1.8,1.5-3.7,3-5.7,4.4c-4.4,3.2-8.5,5.7-11.2,7.2l-4.4,2.5
				C4,173.7,3.2,174.2,2.6,174.9z"/>
		</g>
		<g>
			<path class="st1" d="M18.1,191l-2.5-2.6c1.6-1.6,3-3.6,3.8-5.8c0.8-2,1.3-4.2,1.4-6.7c0.1-2-0.1-4.3-0.6-6.8
				c-0.5-2.5-1.2-4.9-1.8-6.7c-0.4-1.2-0.8-2.4-1.2-3.6c-0.3-1-0.7-2-1-3c-0.8-2.5-1.5-4.6-1.9-6.6c-1.2-5.1-1.3-9.1-0.3-12.7
				c1.9-7.1,8.2-12.7,14.8-18.6c0.6-0.6,1.2-1.1,1.9-1.7c3.4-3,6.9-6.2,9.5-9.6c2.8-3.6,4.5-6.9,5-10.3l3.6,0.5
				c-0.6,4-2.4,7.9-5.7,12c-2.8,3.6-6.5,7-10,10.1c-0.6,0.6-1.3,1.1-1.9,1.7c-6.2,5.5-12.1,10.8-13.7,16.8c-0.8,3-0.7,6.5,0.4,10.9
				c0.4,1.8,1,3.9,1.8,6.3c0.3,1,0.7,1.9,1,2.9c0.4,1.2,0.8,2.4,1.3,3.7c0.6,1.9,1.4,4.4,1.9,7.1c0.6,2.8,0.8,5.3,0.7,7.6
				c-0.1,2.9-0.7,5.5-1.6,7.9C21.7,186.6,20.1,189,18.1,191z"/>
		</g>
	</g>
	<g>
		<g>
			
				<rect x="36.6" y="74.5" transform="matrix(7.275799e-02 -0.9973 0.9973 7.275799e-02 -44.2415 110.665)" class="st0" width="1.6" height="9.2"/>
		</g>
		<g>
			
				<rect x="27.7" y="19.3" transform="matrix(0.9583 -0.2857 0.2857 0.9583 -4.404 10.0722)" class="st0" width="9.2" height="1.6"/>
		</g>
		<g>
			
				<rect x="30.9" y="32.4" transform="matrix(0.9816 -0.1907 0.1907 0.9816 -5.6788 7.3833)" class="st0" width="9.2" height="1.6"/>
		</g>
		<g>
			
				<rect x="37.3" y="61.1" transform="matrix(5.546748e-03 -1 1 5.546748e-03 -27.899 103.419)" class="st0" width="1.6" height="9.2"/>
		</g>
		<g>
			
				<rect x="26.7" y="51.4" transform="matrix(0.9975 -7.019351e-02 7.019351e-02 0.9975 -3.5702 2.7692)" class="st0" width="21.9" height="1.6"/>
		</g>
		<g>
			
				<rect x="29.8" y="56.4" transform="matrix(0.9991 -4.165050e-02 4.165050e-02 0.9991 -2.3471 1.6386)" class="st0" width="16.7" height="1.6"/>
		</g>
		<g>
			<rect x="28.2" y="41.3" transform="matrix(0.9913 -0.132 0.132 0.9913 -5.2342 5.1991)" class="st0" width="16.7" height="1.6"/>
		</g>
		<g>
			<rect x="30" y="36.6" transform="matrix(0.9866 -0.1631 0.1631 0.9866 -5.6097 6.354)" class="st0" width="11.8" height="1.6"/>
		</g>
		<g>
			
				<rect x="32.4" y="61.1" transform="matrix(0.9999 -1.513109e-02 1.513109e-02 0.9999 -0.9317 0.5864)" class="st0" width="11.8" height="1.6"/>
		</g>
		<g>
			
				<rect x="26.2" y="45.9" transform="matrix(0.9947 -0.1029 0.1029 0.9947 -4.6091 4.0687)" class="st0" width="21.9" height="1.6"/>
		</g>
		<g>
			
				<rect x="16.5" y="6.8" transform="matrix(0.9223 -0.3865 0.3865 0.9223 -0.779 11.2388)" class="st0" width="22.1" height="1.6"/>
		</g>
		<g>
			
				<rect x="21.2" y="11.3" transform="matrix(0.9373 -0.3486 0.3486 0.9373 -2.3597 11.0886)" class="st0" width="16.9" height="1.6"/>
		</g>
		<g>
			
				<rect x="25.2" y="15.8" transform="matrix(0.9497 -0.3132 0.3132 0.9497 -3.6179 10.6027)" class="st0" width="12" height="1.6"/>
		</g>
		<g>
			
				<rect x="35.9" y="79.5" transform="matrix(0.1112 -0.9938 0.9938 0.1112 -54.6656 114.5377)" class="st0" width="1.6" height="16.7"/>
		</g>
		<g>
			
				<rect x="36.4" y="77.1" transform="matrix(9.052595e-02 -0.9959 0.9959 9.052595e-02 -48.9051 112.5732)" class="st0" width="1.6" height="11.8"/>
		</g>
		<g>
			
				<rect x="35.4" y="81.5" transform="matrix(0.1301 -0.9915 0.9915 0.1301 -60.2524 116.272)" class="st0" width="1.6" height="21.9"/>
		</g>
		<g>
			<path class="st1" d="M22.9,93.3c0.2-1.9,0.8-3.8,1.8-5.8c0.9-1.9,2.1-3.7,3.2-5.4c0.6-0.9,1.2-1.7,2-2.7l0.2-0.2
				c0.6-0.8,1.3-1.6,1.9-2.5l4.4-5.4c1.3-1.6,2.6-3.3,4.1-5.6c1.3-1.9,2.5-3.8,3.4-5.7c2.1-4.2,2.9-7.9,2.6-11.2
				c-0.1-0.9-0.2-1.8-0.5-2.7c-0.2-0.9-0.6-1.8-1-2.7c-0.7-1.6-1.7-3.3-3.1-5.3c-1.4-1.9-3-3.7-4.4-5c-0.8-0.7-1.6-1.5-2.5-2.4
				c-0.9-0.8-1.7-1.6-2.6-2.3c-1.7-1.5-3.5-3-5.3-4.4c-1-0.8-1.8-1.5-2.6-2.1c-0.9-0.7-1.7-1.4-2.5-2.1L22,19.7
				c-1.6-1.4-3-2.8-4.3-4.3l-0.2-0.3c-0.5-0.6-1.1-1.3-1.5-2c-0.6-0.8-1-1.7-1.4-2.6l3.4-1.4c0.3,0.7,0.6,1.3,1.1,2
				c0.4,0.6,0.8,1.1,1.3,1.8l0.2,0.3c1,1.3,2.4,2.5,3.9,3.9l0.1,0.1c0.7,0.6,1.5,1.3,2.4,2c0.8,0.7,1.6,1.4,2.6,2.1
				c1.8,1.4,3.7,3,5.4,4.4c0.9,0.8,1.8,1.5,2.7,2.4c0.9,0.9,1.8,1.7,2.6,2.5c1.4,1.5,3.2,3.4,4.7,5.5c1.6,2.3,2.8,4.2,3.5,6
				c0.5,1,0.8,2.1,1.1,3.2c0.3,1.1,0.5,2.2,0.6,3.3c0.4,4-0.6,8.3-3,13.1c-1,2-2.2,4.1-3.7,6.1c-1.7,2.4-3,4.1-4.3,5.8l-4.4,5.4
				c-0.6,0.8-1.3,1.6-1.9,2.4l-0.2,0.2c-0.7,0.9-1.3,1.7-1.9,2.5c-1.1,1.6-2.1,3.2-2.9,4.9c-0.8,1.7-1.3,3.3-1.5,4.8L22.9,93.3z"/>
		</g>
		<g>
			<path class="st1" d="M45.1,96.4c0.2-1.7,0.2-3.6-0.2-5.5c-0.4-2-1-3.9-1.8-5.8c-0.4-1-0.9-2-1.4-3c-0.5-0.9-1-1.9-1.6-3
				c-0.5-0.9-1.1-1.9-1.8-2.9c-0.6-1-1.3-2-1.9-2.9c-0.7-1.1-1.4-2.1-2.1-3.2c-0.6-0.9-1.2-1.7-1.8-2.6c-1.2-1.8-2.5-3.7-3.6-5.6
				c-2.6-4.3-4-7.9-4.3-11.4c-0.1-0.9-0.1-1.9,0-3c0.1-0.9,0.2-1.9,0.4-3c0.5-2.1,1.1-4.1,1.8-6c0.8-2.1,1.7-4.2,2.6-6.1l1.6-3.8
				c0.4-0.8,0.7-1.7,1.1-2.5c0.9-2.1,1.7-4.4,2.4-6.5c0.4-1.2,0.7-2.3,0.9-3.3c0.2-1.1,0.5-2.2,0.6-3.2c0.3-2,0.4-4,0.3-6.2
				c-0.1-0.8-0.2-1.7-0.5-2.9c-0.2-0.9-0.5-1.9-0.9-2.7L38.4,0c0.4,1,0.8,2.1,1.1,3.3c0.3,1.4,0.5,2.4,0.6,3.5
				c0.2,2.5,0.1,4.8-0.3,7c-0.2,1.1-0.4,2.3-0.7,3.5c-0.3,1.1-0.6,2.3-1,3.5c-0.7,2.3-1.6,4.6-2.5,6.8c-0.3,0.9-0.7,1.8-1.1,2.7
				L32.8,34c-0.9,1.9-1.7,3.9-2.5,6c-0.7,1.8-1.2,3.5-1.7,5.5c-0.2,0.8-0.3,1.7-0.3,2.5c-0.1,0.9-0.1,1.7,0,2.4
				c0.3,2.9,1.5,6,3.8,9.8c1.1,1.8,2.3,3.7,3.5,5.4c0.6,0.9,1.2,1.7,1.7,2.6c0.7,1,1.5,2.1,2.2,3.2c0.6,1,1.3,2,1.9,3
				c0.7,1.1,1.3,2.1,1.9,3.1c0.7,1.2,1.2,2.1,1.7,3.2c0.5,1.1,1,2.2,1.5,3.2c0.9,2.1,1.5,4.3,2,6.5c0.4,2.3,0.5,4.5,0.2,6.6
				L45.1,96.4z"/>
		</g>
	</g>
</g>
</svg>
