<?xml version="1.0" encoding="utf-8"?>
<!-- Generator: Adobe Illustrator 22.0.0, SVG Export Plug-In . SVG Version: 6.00 Build 0)  -->
<svg version="1.1" id="Layer_1" xmlns="http://www.w3.org/2000/svg" xmlns:xlink="http://www.w3.org/1999/xlink" x="0px" y="0px"
	 viewBox="0 0 173.8 212.5" style="enable-background:new 0 0 173.8 212.5;" xml:space="preserve">
<style type="text/css">
	.st0{fill:#EAD56E;}
	.st1{fill:#C9A24C;}
</style>
<g>
	<g>
		<g>
			
				<rect x="159.1" y="11.2" transform="matrix(0.1608 -0.987 0.987 0.1608 118.5677 171.0319)" class="st0" width="1.6" height="9.2"/>
		</g>
		<g>
			
				<rect x="137.2" y="63.7" transform="matrix(0.4971 -0.8677 0.8677 0.4971 10.1804 154.0742)" class="st0" width="1.6" height="9.2"/>
		</g>
		<g>
			
				<rect x="143.4" y="52.4" transform="matrix(0.4647 -0.8855 0.8855 0.4647 26.767 158.1953)" class="st0" width="1.6" height="9.2"/>
		</g>
		<g>
			<rect x="156" y="23.7" transform="matrix(0.289 -0.9573 0.9573 0.289 84.3892 170.2509)" class="st0" width="1.6" height="9.2"/>
		</g>
		<g>
			
				<rect x="151.6" y="29.6" transform="matrix(0.383 -0.9238 0.9238 0.383 56.5625 165.8143)" class="st0" width="1.6" height="21.9"/>
		</g>
		<g>
			
				<rect x="153.1" y="27.7" transform="matrix(0.3522 -0.9359 0.9359 0.3522 65.9823 167.3849)" class="st0" width="1.6" height="16.7"/>
		</g>
		<g>
			
				<rect x="147.6" y="41.1" transform="matrix(0.4329 -0.9014 0.9014 0.4329 39.5657 161.8291)" class="st0" width="1.6" height="16.7"/>
		</g>
		<g>
			
				<rect x="145.6" y="47.7" transform="matrix(0.4512 -0.8924 0.8924 0.4512 32.4965 160.034)" class="st0" width="1.6" height="11.8"/>
		</g>
		<g>
			
				<rect x="154.7" y="25.9" transform="matrix(0.3191 -0.9477 0.9477 0.3191 75.7212 168.932)" class="st0" width="1.6" height="11.8"/>
		</g>
		<g>
			
				<rect x="149.5" y="34.4" transform="matrix(0.4119 -0.9112 0.9112 0.4119 47.0283 163.6598)" class="st0" width="1.6" height="21.9"/>
		</g>
		<g>
			
				<rect x="130.7" y="68.3" transform="matrix(0.5555 -0.8315 0.8315 0.5555 -7.5454 144.6169)" class="st0" width="1.6" height="22.1"/>
		</g>
		<g>
			
				<rect x="133.1" y="66.8" transform="matrix(0.5294 -0.8484 0.8484 0.5294 -0.8085 148.9605)" class="st0" width="1.6" height="16.9"/>
		</g>
		<g>
			
				<rect x="135.4" y="65.4" transform="matrix(0.5095 -0.8605 0.8605 0.5095 5.4247 152.2053)" class="st0" width="1.6" height="12"/>
		</g>
		<g>
			
				<rect x="159.9" y="-0.9" transform="matrix(5.819342e-02 -0.9983 0.9983 5.819342e-02 143.8929 167.4096)" class="st0" width="1.6" height="16.7"/>
		</g>
		<g>
			
				<rect x="159.5" y="6.1" transform="matrix(0.1163 -0.9932 0.9932 0.1163 129.6918 169.8162)" class="st0" width="1.6" height="11.8"/>
		</g>
		<g>
			
				<rect x="149.8" y="2.2" transform="matrix(1 -1.953121e-03 1.953121e-03 1 -5.457903e-03 0.3141)" class="st0" width="21.9" height="1.6"/>
		</g>
		<g>
			<path class="st1" d="M140.9,88.9l-3-2.1c1.9-2.7,2.9-6.3,3.1-10.7c0.2-4.2-0.4-8.8-1.1-13.1c-0.1-1-0.3-2.1-0.4-3.1
				c-0.5-3.6-1-7-1.2-10.2c-0.3-4.9,0.1-8.7,1.5-11.8c1.3-3.1,3.6-5.8,7.5-9c1.1-0.9,2.3-1.8,3.4-2.7c0.5-0.4,1-0.8,1.5-1.2
				c0.4-0.3,0.7-0.6,1.1-0.8c0.5-0.4,1-0.8,1.5-1.2l2.6-2.1c0.9-0.7,1.8-1.5,2.5-2.2c0.8-0.7,1.6-1.5,2.4-2.3
				c0.8-0.8,1.5-1.7,2.2-2.5l0.2-0.2c0.3-0.4,0.6-0.7,0.8-1c0.3-0.4,0.6-0.9,0.9-1.3c0.7-1,1.2-1.9,1.6-2.7c0.4-0.9,0.8-1.9,1.2-2.8
				c0.1-0.4,0.3-0.9,0.4-1.4c0.1-0.5,0.2-1,0.3-1.4c0.1-1,0.2-1.9,0.2-2.9l3.6,0c0,1.1-0.1,2.3-0.2,3.4c-0.1,0.6-0.2,1.1-0.3,1.7
				l0,0.1c-0.2,0.6-0.3,1.2-0.5,1.7c-0.4,1.1-0.8,2.2-1.3,3.2l0,0c-0.5,0.9-1,1.9-1.8,3c-0.3,0.5-0.7,1-1,1.5
				c-0.3,0.4-0.7,0.8-1,1.2l-0.2,0.2c-0.7,0.9-1.5,1.8-2.4,2.7c-0.9,0.9-1.8,1.8-2.6,2.5c-0.8,0.7-1.7,1.6-2.7,2.3l-2.7,2.1
				c-0.5,0.4-1.1,0.8-1.6,1.2c-0.4,0.3-0.7,0.5-1.1,0.8c-0.5,0.4-1,0.8-1.6,1.2c-1.2,0.9-2.3,1.8-3.3,2.6c-3.4,2.8-5.4,5.2-6.5,7.6
				c-1.1,2.6-1.5,5.8-1.2,10.1c0.2,3.1,0.7,6.4,1.2,9.9c0.2,1,0.3,2.1,0.5,3.1c0.7,4.5,1.3,9.3,1.1,13.8
				C144.4,81.3,143.2,85.6,140.9,88.9z"/>
		</g>
		<g>
			<path class="st1" d="M122.5,76.1l-3-2.1c1.9-2.7,4.7-5,9.1-7.4c3.1-1.7,6.5-3.2,10.2-4.9c0.7-0.3,1.3-0.6,2-0.9
				c4-1.8,8.1-3.7,11.7-6.2c3.7-2.6,6.1-5.3,7.4-8.2c0.7-1.5,1.1-3.2,1.2-5.2c0.1-0.9,0.1-1.9,0-2.9c-0.1-0.9-0.1-1.9-0.3-3
				c-0.4-2.3-0.9-4.3-1.6-6.3c-0.4-1.1-0.7-2.1-1.1-3.2c-0.4-1-0.8-2-1.3-3.1c-0.4-1-0.9-2-1.4-2.9l0-0.1c-0.2-0.4-0.3-0.7-0.5-1.1
				c-0.3-0.6-0.6-1.3-0.9-1.9c-0.5-1-1-1.9-1.5-2.8c-0.1-0.2-0.2-0.4-0.3-0.6c-0.1-0.2-0.2-0.5-0.3-0.7c-0.2-0.5-0.5-0.9-0.7-1.4
				c-0.4-0.8-0.8-1.6-1.2-2.6c-0.4-0.9-0.8-1.8-1-2.6c-0.1-0.4-0.3-0.9-0.4-1.3c-0.1-0.4-0.2-0.9-0.3-1.3c-0.2-0.9-0.3-1.8-0.3-2.7
				l3.6,0c0,0.6,0.1,1.3,0.2,1.9c0.1,0.3,0.2,0.7,0.3,1l0,0.1c0.1,0.4,0.2,0.7,0.3,1.1c0.2,0.7,0.5,1.4,0.9,2.3l0,0.1
				c0.4,1,0.8,1.7,1.1,2.5c0.2,0.4,0.4,0.9,0.7,1.3c0.1,0.3,0.3,0.5,0.4,0.8c0.1,0.2,0.2,0.4,0.3,0.6c0.5,0.9,0.9,1.9,1.4,2.8
				c0.3,0.7,0.6,1.3,1,2c0.2,0.3,0.3,0.7,0.5,1.1l0,0.1c0.5,1,1,2,1.4,3.1c0.5,1.2,0.9,2.2,1.3,3.2c0.4,1.1,0.8,2.2,1.2,3.3
				c0.7,2.1,1.3,4.4,1.7,6.8c0.2,1.2,0.3,2.4,0.4,3.4c0.1,1.1,0.1,2.3,0,3.4c-0.2,2.4-0.7,4.5-1.5,6.3c-1.5,3.5-4.3,6.7-8.6,9.7
				c-3.8,2.6-8.1,4.7-12.2,6.5c-0.7,0.3-1.3,0.6-2,0.9c-3.6,1.6-6.9,3.1-9.9,4.7C126.5,72,124.1,73.9,122.5,76.1z"/>
		</g>
	</g>
	<g>
		<g>
			
				<rect x="119.8" y="88.9" transform="matrix(0.6928 -0.7211 0.7211 0.6928 -30.3665 115.6906)" class="st0" width="1.6" height="9.2"/>
		</g>
		<g>
			
				<rect x="75.1" y="124.4" transform="matrix(0.7489 -0.6626 0.6626 0.7489 -66.4223 82.6291)" class="st0" width="1.6" height="9.2"/>
		</g>
		<g>
			
				<rect x="84.9" y="116" transform="matrix(0.7768 -0.6297 0.6297 0.7768 -56.8338 80.8755)" class="st0" width="1.6" height="9.2"/>
		</g>
		<g>
			
				<rect x="110.2" y="97.4" transform="matrix(0.7812 -0.6243 0.6243 0.7812 -39.4166 91.6032)" class="st0" width="1.6" height="9.2"/>
		</g>
		<g>
			
				<rect x="99.8" y="98.9" transform="matrix(0.8101 -0.5863 0.5863 0.8101 -45.3091 79.8075)" class="st0" width="1.6" height="21.9"/>
		</g>
		<g>
			
				<rect x="103.5" y="98.5" transform="matrix(0.8057 -0.5924 0.5924 0.8057 -43.0164 82.518)" class="st0" width="1.6" height="16.7"/>
		</g>
		<g>
			
				<rect x="91.9" y="107.2" transform="matrix(0.7982 -0.6024 0.6024 0.7982 -50.9412 79.1492)" class="st0" width="1.6" height="16.7"/>
		</g>
		<g>
			
				<rect x="88.2" y="112.5" transform="matrix(0.7865 -0.6176 0.6176 0.7865 -54.1293 80.2621)" class="st0" width="1.6" height="11.8"/>
		</g>
		<g>
			
				<rect x="107.1" y="98.2" transform="matrix(0.795 -0.6066 0.6066 0.795 -41.0372 86.7739)" class="st0" width="1.6" height="11.8"/>
		</g>
		<g>
			
				<rect x="95.5" y="102" transform="matrix(0.8073 -0.5902 0.5902 0.8073 -48.0956 78.5895)" class="st0" width="1.6" height="21.9"/>
		</g>
		<g>
			
				<rect x="65.7" y="126.8" transform="matrix(0.7273 -0.6863 0.6863 0.7273 -76.4931 83.2262)" class="st0" width="1.6" height="22.1"/>
		</g>
		<g>
			
				<rect x="69" y="126" transform="matrix(0.7346 -0.6785 0.6785 0.7346 -72.6765 83.0476)" class="st0" width="1.6" height="16.9"/>
		</g>
		<g>
			
				<rect x="72.4" y="125.4" transform="matrix(0.7423 -0.6701 0.6701 0.7423 -69.1691 82.8809)" class="st0" width="1.6" height="12"/>
		</g>
		<g>
			
				<rect x="125.3" y="78.7" transform="matrix(0.6214 -0.7835 0.7835 0.6214 -20.5151 131.7164)" class="st0" width="1.6" height="16.7"/>
		</g>
		<g>
			
				<rect x="122.3" y="84.7" transform="matrix(0.6594 -0.7518 0.7518 0.6594 -26.2047 123.4029)" class="st0" width="1.6" height="11.8"/>
		</g>
		<g>
			
				<rect x="128" y="72.5" transform="matrix(0.5879 -0.809 0.809 0.5879 -14.4883 138.5762)" class="st0" width="1.6" height="21.9"/>
		</g>
		<g>
			<path class="st1" d="M73.8,149.1l-2.5-2.6c2.1-2,3.7-4.9,5.1-9.1c1-3.1,1.7-6.4,2.5-10c0.2-0.9,0.4-1.8,0.6-2.8
				c0.9-4.2,2.1-9,4-13.3c2-4.6,4.6-8.1,7.6-10.3c2.9-2.1,6.6-3.3,11.6-3.9c2.4-0.3,4.8-0.4,7.4-0.5c1.9-0.1,3.8-0.2,5.8-0.3
				c2.4-0.2,4.6-0.5,6.7-0.9c2.3-0.5,4.4-1.1,6.3-1.8c4.1-1.6,7.3-3.9,9.2-6.7l3,2.1c-2.3,3.3-6.1,6.1-10.9,8c-2,0.8-4.3,1.5-6.9,2
				c-2.2,0.4-4.6,0.8-7.1,1c-2,0.2-4,0.3-5.9,0.3c-2.5,0.1-4.9,0.2-7.2,0.5c-4.4,0.5-7.5,1.5-9.9,3.2c-2.5,1.8-4.7,4.8-6.4,8.8
				c-1.7,4-2.8,8.6-3.7,12.6c-0.2,0.9-0.4,1.8-0.6,2.7c-0.8,3.6-1.6,7.1-2.6,10.3C78.2,143.2,76.3,146.6,73.8,149.1z"/>
		</g>
		<g>
			<path class="st1" d="M58.3,132.9l-2.5-2.6c6-5.7,16.1-6.8,25.1-7.3c0.9-0.1,1.9-0.1,2.8-0.1c3.7-0.2,7.1-0.4,10.3-0.8
				c4.5-0.6,7.5-1.6,9.8-3.3c2.5-1.8,4.5-4.6,6.3-8.6c1.6-3.5,2.8-7.7,3.8-12.6c0.4-2.3,0.8-4.6,1.1-6.5l0.1-0.9
				c0.2-1.8,0.5-3.6,0.7-5.3c0.6-3.7,1.4-7.5,3.7-10.8l3,2.1c-1.8,2.6-2.5,6-3.1,9.3c-0.3,1.6-0.5,3.4-0.7,5.2l-0.1,0.9
				c-0.3,2-0.6,4.4-1.1,6.7c-1,5.1-2.4,9.6-4,13.4c-2.1,4.6-4.5,7.9-7.5,10.1c-3.6,2.6-8,3.5-11.5,4c-3.3,0.4-6.9,0.6-10.6,0.8
				c-0.9,0-1.8,0.1-2.8,0.1C72.8,127.1,63.5,128,58.3,132.9z"/>
		</g>
	</g>
	<g>
		<g>
			
				<rect x="53.1" y="145.9" transform="matrix(0.7092 -0.705 0.705 0.7092 -90.4278 81.7104)" class="st0" width="1.6" height="9.2"/>
		</g>
		<g>
			
				<rect x="17" y="190" transform="matrix(0.4478 -0.8942 0.8942 0.4478 -164.1547 123.3236)" class="st0" width="1.6" height="9.2"/>
		</g>
		<g>
			
				<rect x="23.5" y="178.8" transform="matrix(0.5591 -0.8291 0.8291 0.5591 -141.3402 101.0286)" class="st0" width="1.6" height="9.2"/>
		</g>
		<g>
			<rect x="43.9" y="155" transform="matrix(0.6939 -0.72 0.72 0.6939 -101.209 81.0256)" class="st0" width="1.6" height="9.2"/>
		</g>
		<g>
			
				<rect x="35.1" y="158.2" transform="matrix(0.6572 -0.7537 0.7537 0.6572 -115.1933 85.0307)" class="st0" width="1.6" height="21.9"/>
		</g>
		<g>
			
				<rect x="38.1" y="157" transform="matrix(0.6735 -0.7392 0.7392 0.6735 -109.5723 82.7389)" class="st0" width="1.6" height="16.7"/>
		</g>
		<g>
			
				<rect x="28.9" y="168.3" transform="matrix(0.6127 -0.7903 0.7903 0.6127 -128.1321 91.8707)" class="st0" width="1.6" height="16.7"/>
		</g>
		<g>
			
				<rect x="26.1" y="174.4" transform="matrix(0.5858 -0.8104 0.8104 0.5858 -135.0217 96.5114)" class="st0" width="1.6" height="11.8"/>
		</g>
		<g>
			
				<rect x="41.2" y="156.2" transform="matrix(0.6859 -0.7277 0.7277 0.6859 -104.7631 81.4361)" class="st0" width="1.6" height="11.8"/>
		</g>
		<g>
			
				<rect x="31.7" y="162.2" transform="matrix(0.6351 -0.7724 0.7724 0.6351 -121.8982 88.2628)" class="st0" width="1.6" height="21.9"/>
		</g>
		<g>
			
				<rect x="12.4" y="195.6" transform="matrix(0.297 -0.9549 0.9549 0.297 -188.059 157.8067)" class="st0" width="1.6" height="22.1"/>
		</g>
		<g>
			
				<rect x="13.7" y="193.6" transform="matrix(0.3574 -0.934 0.934 0.3574 -179.3671 143.3303)" class="st0" width="1.6" height="16.9"/>
		</g>
		<g>
			
				<rect x="15.4" y="191.8" transform="matrix(0.4098 -0.9122 0.9122 0.4098 -170.8606 131.5332)" class="st0" width="1.6" height="12"/>
		</g>
		<g>
			
				<rect x="59" y="136.2" transform="matrix(0.716 -0.6981 0.6981 0.716 -83.9177 82.7478)" class="st0" width="1.6" height="16.7"/>
		</g>
		<g>
			
				<rect x="55.7" y="141.8" transform="matrix(0.7119 -0.7023 0.7023 0.7119 -87.4887 82.2135)" class="st0" width="1.6" height="11.8"/>
		</g>
		<g>
			
				<rect x="62.2" y="130.4" transform="matrix(0.7209 -0.693 0.693 0.7209 -80.4081 83.0952)" class="st0" width="1.6" height="21.9"/>
		</g>
		<g>
			<path class="st1" d="M25.1,212.5l-3.5-1.1c0.8-2.5,0.5-5.5,0-9.4c-0.1-0.8-0.3-1.6-0.4-2.4c-0.2-1.2-0.4-2.4-0.6-3.7
				c-0.1-0.7-0.2-1.5-0.3-2.2c-0.1-0.4-0.1-0.7-0.2-1.1c0-0.3-0.1-0.7-0.1-1c-0.1-0.8-0.2-1.7-0.3-2.5l0-0.1
				c-0.2-2.3-0.4-4.6-0.4-6.9c0-1.3,0-2.4,0.1-3.5c0.1-1.2,0.2-2.4,0.4-3.5c0.3-2.2,0.8-4.3,1.6-6.6c0.9-2.2,2-4.1,3.3-5.7
				c1.4-1.6,3.1-3,5-4.1c0.9-0.5,1.9-1,2.9-1.5c1-0.4,2-0.8,3.1-1.2c4.2-1.4,8.8-2.1,13.5-2.7l0.8-0.1c8.7-1.2,16.9-2.4,21.5-6.7
				l2.5,2.6c-5.4,5.2-14.6,6.5-23.5,7.7l-0.8,0.1c-4.6,0.6-9,1.3-12.9,2.6c-1,0.3-1.9,0.7-2.8,1c-0.8,0.4-1.7,0.8-2.5,1.3
				c-1.5,0.9-2.9,2-4.1,3.3c-1,1.2-1.9,2.8-2.7,4.6c-0.7,1.9-1.2,3.8-1.4,5.7c-0.1,1-0.3,2.1-0.3,3.2c0,1-0.1,2.1-0.1,3.3
				c0,2.2,0.2,4.4,0.4,6.6l0,0.1c0.1,0.8,0.2,1.6,0.3,2.4c0,0.3,0.1,0.7,0.1,1c0.1,0.4,0.1,0.8,0.2,1.1c0.1,0.7,0.2,1.4,0.3,2
				c0.2,1.3,0.4,2.6,0.6,3.8c0.1,0.8,0.3,1.6,0.4,2.4l0,0.1C25.7,205.8,26,209.3,25.1,212.5z"/>
		</g>
		<g>
			<path class="st1" d="M3.5,206.6l-3.5-1c1.3-4.3,4-8.3,8-11.4c1.9-1.6,4.1-2.9,6-4c0.9-0.5,1.8-0.9,2.7-1.3l1-0.5
				c0.9-0.4,1.8-0.8,2.8-1.2l0.4-0.1c2.1-0.8,4-1.6,6-2.3c1-0.4,2-0.7,3-1.1c1.1-0.4,2-0.8,2.8-1.1c1.8-0.8,3.5-1.5,4.8-2.4
				c1.5-0.9,2.7-1.9,3.6-3c0.9-1,1.7-2.3,2.4-4.1c0.3-0.7,0.6-1.5,0.9-2.5c0.3-0.9,0.5-1.8,0.7-2.8c0.8-3.5,1.3-7.3,1.8-11.4
				l0.2-1.5c1.2-8.8,2.5-18.7,8.5-24.5l2.5,2.6c-5.1,4.9-6.3,14.1-7.4,22.3l-0.2,1.5c-0.5,4-1.1,8.1-1.9,11.7
				c-0.2,1.1-0.5,2.1-0.8,3.1c-0.3,1.1-0.7,2-1,2.9c-0.9,2.1-1.9,3.7-3,5c-1.2,1.4-2.7,2.6-4.4,3.7c-1.6,1-3.4,1.9-5.3,2.7
				c-0.9,0.4-1.9,0.8-3,1.2c-0.9,0.4-2,0.8-3,1.1c-2,0.7-3.9,1.4-5.9,2.3l-0.3,0.1c-0.9,0.3-1.7,0.7-2.6,1.2l-1,0.5
				c-0.8,0.4-1.7,0.8-2.4,1.2c-1.8,1-3.8,2.2-5.5,3.6l0,0C6.9,199.7,4.6,203,3.5,206.6z"/>
		</g>
	</g>
</g>
</svg>
