<?xml version="1.0" encoding="utf-8"?>
<!-- Generator: Adobe Illustrator 22.0.0, SVG Export Plug-In . SVG Version: 6.00 Build 0)  -->
<svg version="1.1" id="Layer_1" xmlns="http://www.w3.org/2000/svg" xmlns:xlink="http://www.w3.org/1999/xlink" x="0px" y="0px"
	 viewBox="0 0 335.7 395" style="enable-background:new 0 0 335.7 395;" xml:space="preserve">
<style type="text/css">
	.st0{clip-path:url(#SVGID_2_);fill:#7596EA;}
	.st1{clip-path:url(#SVGID_2_);}
	.st2{fill:none;stroke:#F7F7F7;stroke-width:3;stroke-linecap:round;stroke-miterlimit:10;}
	.st3{fill:#D8D8D8;}
	.st4{clip-path:url(#SVGID_2_);fill:#4ACE4E;}
	.st5{clip-path:url(#SVGID_2_);fill:#CC2E2E;}
	.st6{clip-path:url(#SVGID_2_);fill:#B73535;}
	.st7{clip-path:url(#SVGID_2_);fill:#282828;}
	.st8{clip-path:url(#SVGID_2_);fill:#3A3A3A;}
	.st9{fill:none;stroke:#F4D090;stroke-width:10;stroke-miterlimit:10;}
</style>
<g>
	<defs>
		<path id="SVGID_1_" d="M273.1,5H62.6C30.8,5,5,30.8,5,62.6v269.7C5,364.2,30.8,390,62.6,390h210.4c31.8,0,57.6-25.8,57.6-57.6
			V62.6C330.7,30.8,304.9,5,273.1,5z"/>
	</defs>
	<clipPath id="SVGID_2_">
		<use xlink:href="#SVGID_1_"  style="overflow:visible;"/>
	</clipPath>
	<rect x="-42.4" y="-15.2" class="st0" width="210.5" height="416.9"/>
	<g class="st1">
		<path class="st2" d="M196.8,33.5C100.2,130.1,3.7,226.6-92.9,323.2"/>
		<g>
			<path class="st3" d="M183.5,27.2c-91.3,0-182.7,0-274,0c0,4.4,0,8.9,0,13.3c91,0,182,0,273,0C182.8,36.1,183.1,31.7,183.5,27.2z"
				/>
			<path class="st2" d="M177.8,33.5C81.2,130.1-15.3,226.6-111.9,323.2"/>
			<path class="st2" d="M156.8,33.5C60.2,130.1-36.3,226.6-132.9,323.2"/>
			<path class="st2" d="M136.8,33.5C40.2,130.1-56.3,226.6-152.9,323.2"/>
			<path class="st2" d="M115.8,33.5C19.2,130.1-77.3,226.6-173.9,323.2"/>
			<path class="st2" d="M95.8,33.5C-0.8,130.1-97.3,226.6-193.9,323.2"/>
			<path class="st2" d="M74.8,33.5c-96.6,96.6-193.1,193.1-289.7,289.7"/>
			<path class="st2" d="M54.8,33.5c-96.6,96.6-193.1,193.1-289.7,289.7"/>
			<path class="st2" d="M33.8,33.5c-96.6,96.6-193.1,193.1-289.7,289.7"/>
			<path class="st2" d="M13.8,33.5c-96.6,96.6-193.1,193.1-289.7,289.7"/>
			<path class="st2" d="M-7.2,33.5c-96.6,96.6-193.1,193.1-289.7,289.7"/>
			<path class="st2" d="M-27.2,33.5c-96.6,96.6-193.1,193.1-289.7,289.7"/>
			<path class="st2" d="M-48.2,33.5c-96.6,96.6-193.1,193.1-289.7,289.7"/>
			<path class="st2" d="M-68.2,33.5c-96.6,96.6-193.1,193.1-289.7,289.7"/>
			<path class="st2" d="M-89.2,33.5c-96.6,96.6-193.1,193.1-289.7,289.7"/>
			<path class="st2" d="M422.8,33.5c-96.6,96.6-193.1,193.1-289.7,289.7"/>
			<path class="st2" d="M401.8,33.5c-96.6,96.6-193.1,193.1-289.7,289.7"/>
			<path class="st2" d="M381.8,33.5c-96.6,96.6-193.1,193.1-289.7,289.7"/>
			<path class="st2" d="M360.8,33.5c-96.6,96.6-193.1,193.1-289.7,289.7"/>
			<path class="st2" d="M340.8,33.5c-96.6,96.6-193.1,193.1-289.7,289.7"/>
			<path class="st2" d="M319.8,33.5c-96.6,96.6-193.1,193.1-289.7,289.7"/>
			<path class="st2" d="M299.8,33.5c-96.6,96.6-193.1,193.1-289.7,289.7"/>
			<path class="st2" d="M278.8,33.5C182.2,130.1,85.7,226.6-10.9,323.2"/>
			<path class="st2" d="M258.8,33.5C162.2,130.1,65.7,226.6-30.9,323.2"/>
			<path class="st2" d="M237.8,33.5C141.2,130.1,44.7,226.6-51.9,323.2"/>
			<path class="st2" d="M217.8,33.5C121.2,130.1,24.7,226.6-71.9,323.2"/>
			<path class="st2" d="M-47.9,33.5c96.6,96.6,193.1,193.1,289.7,289.7"/>
			<path class="st2" d="M-26.9,33.5c96.6,96.6,193.1,193.1,289.7,289.7"/>
			<path class="st2" d="M-6.9,33.5c96.6,96.6,193.1,193.1,289.7,289.7"/>
			<path class="st2" d="M14.1,33.5c96.6,96.6,193.1,193.1,289.7,289.7"/>
			<path class="st2" d="M34.1,33.5c96.6,96.6,193.1,193.1,289.7,289.7"/>
			<path class="st2" d="M55.1,33.5c96.6,96.6,193.1,193.1,289.7,289.7"/>
			<path class="st2" d="M75.1,33.5c96.6,96.6,193.1,193.1,289.7,289.7"/>
			<path class="st2" d="M96.1,33.5c96.6,96.6,193.1,193.1,289.7,289.7"/>
			<path class="st2" d="M116.1,33.5c96.6,96.6,193.1,193.1,289.7,289.7"/>
			<path class="st2" d="M137.1,33.5c96.6,96.6,193.1,193.1,289.7,289.7"/>
			<path class="st2" d="M157.1,33.5c96.6,96.6,193.1,193.1,289.7,289.7"/>
			<path class="st2" d="M178.1,33.5c96.6,96.6,193.1,193.1,289.7,289.7"/>
			<path class="st2" d="M-294.9,33.5c96.6,96.6,193.1,193.1,289.7,289.7"/>
			<path class="st2" d="M-273.9,33.5c96.6,96.6,193.1,193.1,289.7,289.7"/>
			<path class="st2" d="M-253.9,33.5c96.6,96.6,193.1,193.1,289.7,289.7"/>
			<path class="st2" d="M-232.9,33.5c96.6,96.6,193.1,193.1,289.7,289.7"/>
			<path class="st2" d="M-212.9,33.5c96.6,96.6,193.1,193.1,289.7,289.7"/>
			<path class="st2" d="M-191.9,33.5C-95.3,130.1,1.2,226.6,97.8,323.2"/>
			<path class="st2" d="M-171.9,33.5c96.6,96.6,193.1,193.1,289.7,289.7"/>
			<path class="st2" d="M-150.9,33.5c96.6,96.6,193.1,193.1,289.7,289.7"/>
			<path class="st2" d="M-130.9,33.5c96.6,96.6,193.1,193.1,289.7,289.7"/>
			<path class="st2" d="M-109.9,33.5c96.6,96.6,193.1,193.1,289.7,289.7"/>
			<path class="st2" d="M-89.9,33.5c96.6,96.6,193.1,193.1,289.7,289.7"/>
			<path class="st2" d="M-68.9,33.5c96.6,96.6,193.1,193.1,289.7,289.7"/>
			<path class="st2" d="M443.8,33.5c-96.6,96.6-193.1,193.1-289.7,289.7"/>
		</g>
	</g>
	<path class="st4" d="M-33.2,332.3c66.7,0,133.4,0,200.1,0c0.5-0.9,4.9-9.5,0.6-18.7c-3.8-8.1-11.4-10.6-12.7-11
		c1,1.4,2.7,4.3,3.3,8.3c0.6,4.1-0.1,7.3-0.7,9c-0.8-0.3-5.8-2.5-7.3-7.7c-0.6-2-0.5-3.8-0.3-5c-0.7,0.5-2.8,2.2-3.7,5.3
		c-0.8,3,0,5.5,0.3,6.3c-2.1-0.4-3.5-1.3-4.3-2c-3.7-3-4.8-8.9-3-15c-1.3,1.9-3.3,5.3-4,10c-0.4,2.6-0.2,4.9,0,6.7
		c-1.6-3.2-3.5-6.5-5.7-10c-1.6-2.5-3.1-4.8-4.7-7c0.1,2.7,0.1,5.8-0.3,9.3c-0.3,2.6-0.8,4.9-1.3,7c-3.2,0-6.2-1.8-7.7-4.7
		c-1.4-2.8-1.1-6.1,0.7-8.7c-0.7,0.2-4.3,1.3-6.3,5c-2.4,4.2-0.9,8.4-0.7,9c-0.4,0.1-3.9,0.5-6.3-2c-1.8-1.8-0.3-4.6-0.7-9.7
		c-0.2-2.9-0.9-5.2-1.3-6.7c-0.9,2.2-1.8,5.1-2.3,8.7c-0.5,3.9-0.3,7.2,0,9.7c-1.2-1.3-3.2-3.9-4.3-7.7c-1.1-3.7-0.9-6.9-0.7-8.7
		c-1.1,1.2-3.2,3.9-4,8c-0.6,2.8-0.3,5.2,0,6.7c-1-0.4-3.5-1.4-5.3-4c-3.1-4.6-1.2-9.8-1-10.3c-1.3,0.8-4.6,3.1-6,7
		c-0.5,1.5-0.7,2.8-0.7,3.3c-0.2,2.5,0.3,4.5,0.7,5.7c-2.1-3.2-4.2-6.4-6.3-9.7c-0.6,1.2-1.3,3-1.7,5.3c-0.3,2-0.2,3.8,0,5
		c-0.2-1.3-0.8-5.1-4-8c-1.3-1.2-2.6-1.9-3.7-2.3c0.5,1.3,1.2,3.2,1.3,5.7c0.1,2-0.1,3.7-0.3,5c-1.2-1.7-2.9-4.2-4-7.7
		c-1.4-4.1-1.5-7.7-1.3-10c-1,2.2-2,5.1-2.7,8.7c-0.6,3.4-0.7,6.3-0.7,8.7c-1.1-2.1-2.6-4.7-4.7-7.3c-2.1-2.7-4.2-4.7-6-6.3
		c0.8,1.4,2.2,4.2,2.3,8c0.2,3.5-0.7,6.2-1.3,7.7c-4.6,0.1-8.3-2.6-9-6c-0.6-2.7,0.9-5,1.3-5.7c-0.6,0.3-3.8,1.9-5,5.7
		c-1,3.2,0,6,0.3,6.7c-1.2-2.1-2.6-4.4-4.3-6.7c-0.9-1.2-1.8-2.3-2.7-3.3c-0.2,1.7-0.3,3.5-0.3,5.3c0,1.5,0,3,0,4.3
		c-1-0.4-3.6-1.4-5-4c-2-3.6-1.2-8.6,2.3-12.3c-0.6,0.2-6.3,2.3-8,8.3c-1.2,4.4,0.5,8.1,1,9c-1-3.6-2.8-8.2-6.1-12.8
		c-1.2-1.8-2.5-3.3-3.7-4.6c0,0,0,0.1,0,0.1c1.8,5,2.1,9.4,2.1,11.3c0,1.9-0.1,4.4-0.7,7.3c-0.7-2.6-1.4-5.2-2.2-7.9
		c-0.8-2.6-1.6-5-2.4-7.4c-0.9,1.5-2.2,4.5-2.3,8.3c-0.1,2.2,0.3,4,0.7,5.3c0-1.8-0.2-7.1-4-11.7c-1.5-1.8-3.1-3-4.5-3.7
		c0.6,0.7,3,4.2,2.5,9c-0.7,5.7-5,8.6-5.7,9c0.1-2.6,0.2-5.3,0.3-8c0.1-1.8,0.2-3.6,0.3-5.3c-1,0.6-3.3,2.3-4.7,5.3
		c-0.8,1.9-1,3.6-1,4.7c-0.8-0.4-2.3-1.2-3.3-3c-2.1-3.6-0.2-7.7,0-8c-1,0.7-3.6,2.9-4.7,6.7c-0.5,1.7-0.4,3.3-0.3,4.3
		c-0.2-6.1-3.4-10.3-6.7-10.7c-0.6-0.1-2.1-0.1-4,1.3c0.8,0.4,2.8,1.6,4,4c1.8,3.6,0.6,7.1,0.3,7.7c-0.5-1.3-1.6-3.8-4-6
		c-2.2-2-4.4-2.9-5.7-3.3c1.3,2.2,2.7,4.8,4,7.7C-35.3,325.9-34.1,329.3-33.2,332.3z"/>
	<rect x="-42.4" y="325" class="st4" width="210.5" height="76.7"/>
	<rect x="168.1" y="-14" class="st5" width="170.4" height="415.7"/>
	<rect x="277.1" y="-34.7" class="st6" width="28" height="441.4"/>
	<rect x="197.6" y="-34.6" class="st6" width="28" height="441.4"/>
	<rect x="168.1" y="313.5" class="st7" width="176.7" height="95.7"/>
	<rect x="168.1" y="305.6" class="st8" width="187.1" height="23.8"/>
</g>
<path class="st9" d="M273.1,5H62.6C30.8,5,5,30.8,5,62.6v269.7C5,364.2,30.8,390,62.6,390h210.4c31.8,0,57.6-25.8,57.6-57.6V62.6
	C330.7,30.8,304.9,5,273.1,5z"/>
</svg>
