<?xml version="1.0" encoding="utf-8"?>
<!-- Generator: Adobe Illustrator 22.0.0, SVG Export Plug-In . SVG Version: 6.00 Build 0)  -->
<svg version="1.1" id="Layer_1" xmlns="http://www.w3.org/2000/svg" xmlns:xlink="http://www.w3.org/1999/xlink" x="0px" y="0px"
	 viewBox="0 0 146.3 84.9" style="enable-background:new 0 0 146.3 84.9;" xml:space="preserve">
<style type="text/css">
	.st0{fill:#C9874B;}
	.st1{fill:#FFB273;}
</style>
<g>
	<g>
		<path class="st0" d="M20.4,51.3c-2.4-7,0.1-13.4,0.8-15.1c3.6-9,12.6-16.4,21.5-16.4c8,0,17.2,4.2,23.7,5.4
			c5.7,1.1,9.1,1.6,13.6,1c9.6-1.3,15.7-7,23.7-6.9c8.7,0,16.7,7.5,20.1,15.1c1,2.1,3.1,7,1.9,12.9c-1.6,8-8.8,16.4-16,16.7
			c-7.9,0.3-13.7-3.4-26.8-6.4c-4.9-1.1-10.4-1.7-17.2-0.4c-8,1.6-15.3,9-23.6,9C33.6,66.2,23.6,60.4,20.4,51.3z"/>
		<path class="st1" d="M42.2,70.3c-9.5,0-21.7-6.2-25.6-17.6v0c-2-5.6-1.7-11.7,0.8-18c4.4-11,15-19,25.3-19c5.7,0,11.7,1.8,17,3.4
			c2.7,0.8,5.3,1.6,7.4,2c5.6,1,8.4,1.5,12.3,1c4-0.5,7.4-2,10.8-3.4c4.1-1.7,8.3-3.5,13.3-3.5c0,0,0.1,0,0.1,0
			c10.9,0.1,20,9.1,23.8,17.5c1,2.2,3.6,8,2.2,15.4c-1.8,9.4-10.3,19.7-19.9,20c-5.5,0.2-9.9-1.2-15.5-3C90.9,64,87,62.8,82,61.6
			c-5.5-1.3-10.2-1.4-15.5-0.4c-2.9,0.6-5.9,2.2-9.1,3.9C52.7,67.7,47.9,70.3,42.2,70.3z M24.3,50c2.6,7.6,11.2,12.1,17.9,12.1
			c3.6,0,7.4-2,11.4-4.2C57.1,56,60.9,54,65,53.2c6.3-1.2,12.3-1.1,18.9,0.4c5.3,1.2,9.4,2.5,13,3.7c5,1.6,8.7,2.8,12.8,2.6
			c4.8-0.2,10.8-6.8,12.1-13.3c0.9-4.8-0.9-8.8-1.6-10.5c-2.9-6.3-9.4-12.7-16.4-12.7c-3.3,0-6.5,1.3-10.2,2.9
			c-3.7,1.6-7.8,3.3-12.9,4c-5.1,0.7-9,0-14.9-1.1c-2.5-0.5-5.3-1.3-8.3-2.2c-4.7-1.4-10.1-3.1-14.6-3.1c-6.9,0-14.6,6.1-17.7,13.8
			C23.2,42.2,23,46.3,24.3,50L24.3,50z"/>
	</g>
	<g>
		<path class="st1" d="M33.9,26c0,0-0.1,0-0.1,0c-0.8-0.1-1.5-0.8-1.4-1.6c0.3-3.7-0.4-6.5-2-8.2c-1-1-2.1-1.5-3.2-2
			c-1.4-0.6-3-1.3-4.2-3c-1.6-2.4-1.7-5.8-0.2-10.1c0.3-0.8,1.2-1.2,2-0.9c0.8,0.3,1.2,1.2,0.9,2c-1.2,3.3-1.2,5.8-0.2,7.3
			c0.7,1,1.6,1.4,2.8,1.9c1.3,0.6,2.9,1.2,4.3,2.7c2.2,2.4,3.2,5.9,2.9,10.5C35.4,25.4,34.7,26,33.9,26z"/>
	</g>
	<g>
		<path class="st1" d="M26.9,30.7c-0.6,0-1.1-0.3-1.4-0.9c-1.6-3.3-4-7.3-6.9-7.6c-1.1-0.1-2,0.4-3.2,0.9c-1.5,0.7-3.2,1.5-5.5,1
			c-2.5-0.5-4.7-2.4-6.6-5.6c-0.4-0.7-0.1-1.7,0.6-2.1C4.7,16,5.6,16.2,6,17c1.3,2.4,2.8,3.8,4.5,4.1c1.3,0.3,2.3-0.2,3.6-0.8
			c1.3-0.6,2.8-1.3,4.7-1.1c3.5,0.3,6.6,3.3,9.5,9.3c0.4,0.8,0,1.7-0.7,2C27.3,30.6,27.1,30.7,26.9,30.7z"/>
	</g>
	<g>
		<path class="st1" d="M2.2,39.7c-0.3,0-0.5-0.1-0.8-0.2c-0.7-0.4-1-1.4-0.5-2.1c1.5-2.6,3.4-4.1,5.5-4.4c2-0.3,3.6,0.5,5.1,1.2
			c0.7,0.4,1.4,0.7,2.1,1c2.6,1,5.8,0.8,9.5-0.4c0.8-0.3,1.7,0.2,1.9,1c0.3,0.8-0.2,1.7-1,1.9c-4.3,1.5-8.2,1.6-11.5,0.4
			c-1-0.4-1.8-0.8-2.5-1.2c-1.4-0.7-2.1-1.1-3.1-0.9c-1.2,0.2-2.4,1.2-3.4,3C3.2,39.4,2.7,39.7,2.2,39.7z"/>
	</g>
	<g>
		<path class="st1" d="M8.1,57.5c-2,0-4.4-1-7.4-3c-0.7-0.5-0.9-1.4-0.4-2.1c0.5-0.7,1.4-0.9,2.1-0.4c3.1,2.1,5.5,2.9,6.6,2.2
			c0.4-0.2,0.6-0.6,1-1.3c0.5-0.9,1.1-2,2.4-2.9c1.8-1.3,4.2-1.6,7.1-1c0.8,0.2,1.4,1,1.2,1.8c-0.2,0.8-1,1.4-1.8,1.2
			c-2-0.4-3.6-0.2-4.7,0.5c-0.7,0.5-1,1.1-1.4,1.8c-0.5,0.9-1,1.8-2.1,2.5C9.8,57.3,9,57.5,8.1,57.5z"/>
	</g>
	<g>
		<path class="st1" d="M11.4,72.2c-0.1,0-0.2,0-0.3,0c-0.8-0.1-1.4-0.9-1.3-1.8c0.6-3.4,1.9-5.8,3.9-7c1.8-1,3.5-0.9,5-0.8
			c1.3,0.1,2.4,0.2,3.4-0.5c1-0.6,1.7-1.9,2.1-3.8c0.2-0.8,1-1.4,1.8-1.2c0.8,0.2,1.4,1,1.2,1.8c-0.6,2.7-1.8,4.6-3.5,5.7
			c-1.8,1.1-3.6,1-5.2,0.9c-1.2-0.1-2.3-0.2-3.3,0.4c-1.2,0.7-2,2.3-2.5,4.8C12.8,71.7,12.1,72.2,11.4,72.2z"/>
	</g>
	<g>
		<path class="st1" d="M29.7,84.8c-0.5,0-1-0.3-1.3-0.8c-0.4-0.7-0.2-1.7,0.5-2.1c2.8-1.7,4.4-3.3,4.4-4.5c0-0.7-0.6-1.3-1.5-2.1
			c-1.1-1-2.4-2.3-2.7-4.3c-0.3-2.6,1.4-5.2,5-7.9c0.7-0.5,1.6-0.4,2.2,0.3c0.5,0.7,0.4,1.6-0.3,2.2c-2.6,1.9-3.9,3.8-3.8,5.1
			c0.1,0.9,0.9,1.6,1.7,2.4c1.1,1,2.4,2.3,2.5,4.2c0.1,2.5-1.8,4.9-5.9,7.3C30.3,84.7,30,84.8,29.7,84.8z"/>
	</g>
	<g>
		<path class="st1" d="M50.2,83C50.2,83,50.2,83,50.2,83c-4.5-0.2-8.3-3.2-9.7-7.3c-1.4-4.4,0.3-9.3,4.2-12c0.7-0.5,1.7-0.3,2.1,0.4
			c0.5,0.7,0.3,1.7-0.4,2.1c-2.8,1.9-4,5.4-3,8.5c0.9,2.9,3.7,5,6.8,5.2c0.8,0,1.5,0.8,1.5,1.6C51.7,82.4,51,83,50.2,83z"/>
	</g>
	<g>
		<path class="st1" d="M59.2,78.8c-0.2,0-0.5-0.1-0.7-0.2c-0.8-0.4-1-1.3-0.6-2.1c2.2-4.1,1.6-5.4,1.4-5.7c-0.2-0.3-0.5-0.4-1.3-0.6
			c-0.9-0.2-2.1-0.5-3.3-1.5c-1.9-1.5-2.9-3.9-3-7.3c0-0.8,0.6-1.6,1.5-1.6c0.9,0,1.6,0.6,1.6,1.5c0.1,2.4,0.7,4.1,1.9,5
			c0.6,0.5,1.4,0.7,2.1,0.9c1,0.2,2.2,0.6,3,1.7c1.4,1.9,1,4.8-1.1,8.9C60.3,78.5,59.7,78.8,59.2,78.8z"/>
	</g>
	<g>
		<path class="st1" d="M42.7,22c-0.4,0-0.8-0.2-1.1-0.5c-1.8-2-2.6-3.9-2.3-5.7c0.2-1.2,0.7-1.9,2-3.5c0.4-0.5,0.8-1.1,1.4-1.8
			c1.5-2,2.2-3,2.3-3.4c0.2-1.3-1-2.8-2-3.8c-0.6-0.6-0.6-1.6,0-2.2c0.6-0.6,1.6-0.6,2.2,0c2.2,2.2,3.2,4.4,2.9,6.4
			c-0.1,1-0.6,1.8-2.9,4.8c-0.6,0.8-1,1.4-1.4,1.8c-1.1,1.4-1.3,1.7-1.3,2c-0.1,1.1,0.8,2.4,1.5,3.2c0.6,0.6,0.5,1.6-0.1,2.2
			C43.4,21.9,43,22,42.7,22z"/>
	</g>
	<g>
		<path class="st1" d="M55.2,20.6c-0.6,0-1.2-0.3-1.4-0.9c-0.3-0.8,0-1.7,0.8-2c1.7-0.7,2.7-1.6,3-2.6c0.2-0.7,0-1.2-0.3-2.3
			c-0.3-1-0.7-2.2-0.6-3.7c0.2-2.4,1.6-4.7,4.3-6.9c0.7-0.5,1.6-0.4,2.2,0.2c0.5,0.7,0.4,1.6-0.2,2.2c-2,1.6-3,3.1-3.1,4.7
			c-0.1,0.9,0.2,1.6,0.5,2.5c0.4,1.2,0.8,2.5,0.4,4.1c-0.6,1.9-2.1,3.4-4.7,4.6C55.6,20.6,55.4,20.6,55.2,20.6z"/>
	</g>
	<g>
		<path class="st1" d="M67.6,24.8c-0.4,0-0.8-0.1-1.1-0.4c-0.6-0.6-0.6-1.6,0-2.2c1-1,2.7-3.1,3.2-6.3c0.5-3.2-0.6-5.8-1.2-7
			c-0.4-0.7-0.1-1.7,0.6-2.1c0.7-0.4,1.7-0.1,2.1,0.6c0.8,1.6,2.2,4.8,1.6,8.9c-0.6,4.1-2.8,6.8-4,8C68.4,24.7,68,24.8,67.6,24.8z"
			/>
	</g>
	<g>
		<path class="st1" d="M80.2,24.7c-0.4,0-0.8-0.2-1.1-0.5c-2.2-2.4-3.2-4.7-3-6.9c0.2-1.6,1-2.7,1.7-3.6c0.6-0.8,1.1-1.5,1.4-2.5
			c0.3-1.3,0.1-2.8-0.7-4.5c-0.4-0.8,0-1.7,0.7-2c0.8-0.4,1.7,0,2,0.7c1.1,2.3,1.4,4.5,0.9,6.5c-0.4,1.7-1.3,2.8-1.9,3.6
			c-0.6,0.8-1,1.3-1.1,2.1c-0.2,1.2,0.6,2.7,2.2,4.4c0.6,0.6,0.6,1.6-0.1,2.2C80.9,24.6,80.6,24.7,80.2,24.7z"/>
	</g>
	<g>
		<path class="st1" d="M88.8,21.9c-0.6,0-1.2-0.3-1.4-0.9c-0.5-1.1-1.4-4-0.3-7.3c0.4-1.2,1.1-1.9,1.7-2.5c0.5-0.5,0.9-0.9,1.3-1.7
			c0.6-1.2,1-2.6,1-4.1c0-0.8,0.7-1.5,1.5-1.5c0,0,0,0,0,0c0.8,0,1.5,0.7,1.5,1.5c0,2.1-0.4,4-1.3,5.6c-0.6,1.1-1.3,1.8-1.8,2.3
			c-0.5,0.6-0.8,0.9-1,1.4c-0.8,2.3-0.1,4.3,0.2,5c0.3,0.8,0,1.7-0.8,2C89.2,21.9,89,21.9,88.8,21.9z"/>
	</g>
	<g>
		<path class="st1" d="M100.6,19c-0.4,0-0.8-0.2-1.1-0.5c-0.6-0.6-0.6-1.6,0-2.2c2.2-2.1,3.3-4,3-5.2c-0.1-0.5-0.5-0.9-1.1-1.6
			c-0.8-0.8-1.8-1.9-2.1-3.6c-0.2-1.8,0.4-3.6,2-5.4c0.6-0.6,1.5-0.7,2.2-0.2c0.6,0.6,0.7,1.5,0.2,2.2c-1,1.1-1.4,2.2-1.3,3
			c0.1,0.7,0.5,1.1,1.2,1.8c0.7,0.7,1.6,1.6,2,3c0.6,2.4-0.7,5.1-3.9,8.1C101.3,18.8,100.9,19,100.6,19z"/>
	</g>
	<g>
		<path class="st1" d="M110.2,20.2c-0.7,0-1.3-0.5-1.5-1.2c-0.2-0.8,0.3-1.6,1.2-1.8c0.2,0,4-0.9,5.3-4.6c1.1-3.2-0.6-5.9-0.8-6.2
			c-0.5-0.7-0.3-1.7,0.4-2.1c0.7-0.5,1.7-0.3,2.1,0.4c0.5,0.7,2.7,4.4,1.2,8.9c-1.8,5.3-7.3,6.6-7.5,6.6
			C110.4,20.2,110.3,20.2,110.2,20.2z"/>
	</g>
	<g>
		<path class="st1" d="M118,25c-0.8,0-1.5-0.7-1.5-1.5c0-0.8,0.7-1.5,1.5-1.5c2.3,0,4-0.5,4.9-1.5c0.5-0.5,0.7-1.1,1-1.8
			c0.4-1,1-2.3,2.3-3.5c1.1-1,2.3-1.6,3.9-2c0.8-0.2,1.7,0.3,1.9,1.1c0.2,0.8-0.3,1.7-1.1,1.9c-1,0.3-1.9,0.7-2.6,1.3
			c-0.8,0.7-1.1,1.5-1.5,2.4c-0.4,0.9-0.8,1.8-1.6,2.7C123.6,24.1,121.2,25,118,25C118,25,118,25,118,25z"/>
	</g>
	<g>
		<path class="st1" d="M125.7,33.2c-0.1,0-0.2,0-0.2,0c-0.8-0.1-1.4-0.9-1.3-1.8c0.6-3.6,1.9-5.9,3.9-6.9c0.9-0.5,1.8-0.5,2.5-0.6
			c0.7,0,1.2-0.1,1.9-0.4c0.8-0.5,1.5-1.3,2-2.5c0.3-0.8,1.2-1.1,2-0.8c0.8,0.3,1.1,1.2,0.8,2c-0.8,1.8-1.9,3.2-3.4,3.9
			c-1.2,0.7-2.3,0.7-3.1,0.8c-0.6,0-1,0.1-1.4,0.3c-1.3,0.6-1.9,2.9-2.2,4.6C127.1,32.6,126.4,33.2,125.7,33.2z"/>
	</g>
	<g>
		<path class="st1" d="M132.5,43c-1.6,0-3.4-0.5-5.4-1.5c-0.8-0.4-1-1.3-0.6-2.1c0.4-0.8,1.3-1,2.1-0.6c2.2,1.1,3.9,1.5,5.3,0.9
			c0.7-0.3,1.2-0.7,1.8-1.3c0.7-0.7,1.6-1.6,3-2.1c2-0.7,4.3-0.4,6.8,0.8c0.8,0.4,1.1,1.3,0.7,2.1c-0.4,0.8-1.3,1.1-2.1,0.7
			c-1.7-0.9-3.2-1.1-4.5-0.7c-0.8,0.3-1.3,0.7-1.9,1.3c-0.7,0.7-1.5,1.5-2.8,2C134.2,42.8,133.3,43,132.5,43z"/>
	</g>
	<g>
		<path class="st1" d="M139.6,53.2c-1.8,0-3.4-0.4-4.8-1.1c-1.1-0.6-1.9-1.4-2.5-2c-0.7-0.7-1.1-1-1.5-1c-1-0.1-2.2,0.9-3.6,2.7
			c-0.5,0.7-1.5,0.8-2.2,0.3c-0.7-0.5-0.8-1.5-0.3-2.2c2.1-2.8,4.3-4.1,6.4-3.9c1.6,0.2,2.5,1.1,3.4,1.9c0.5,0.5,1.1,1.1,1.8,1.5
			c1.7,0.9,4,1,6.8,0.2c0.8-0.2,1.7,0.3,1.9,1.1c0.2,0.8-0.3,1.7-1.1,1.9C142.3,53,140.9,53.2,139.6,53.2z"/>
	</g>
	<g>
		<path class="st1" d="M73.9,78.6c-0.1,0-0.1,0-0.2,0c-0.8-0.1-1.4-0.9-1.3-1.7c0.2-1.5,0.1-3-0.4-4.2c-0.5-1.3-1.3-2.1-2.1-2.9
			c-0.9-0.9-1.9-1.9-2.4-3.4c-0.8-2.3-0.3-5.1,1.4-8.2c0.4-0.7,1.4-1,2.1-0.6c0.7,0.4,1,1.4,0.6,2.1c-1.3,2.3-1.7,4.2-1.2,5.7
			c0.3,0.9,0.9,1.5,1.7,2.3c0.9,0.9,2,2,2.8,3.9c0.7,1.8,0.9,3.7,0.6,5.8C75.3,78.1,74.7,78.6,73.9,78.6z"/>
	</g>
	<g>
		<path class="st1" d="M86.8,79.4c-0.5,0-0.9-0.2-1.2-0.6c-1.8-2.4-2.7-4.9-2.7-7.5c0-1.2,0.2-2.1,0.4-2.8c0.2-0.7,0.3-1.2,0.3-2
			c-0.1-1.8-1.2-3.7-3.3-5.6c-0.6-0.6-0.7-1.5-0.1-2.2c0.6-0.6,1.5-0.7,2.2-0.1c2.7,2.5,4.2,5.1,4.4,7.7c0.1,1.2-0.1,2.1-0.3,2.8
			c-0.2,0.7-0.3,1.3-0.3,2.1c0,1.9,0.7,3.7,2.1,5.6c0.5,0.7,0.4,1.6-0.3,2.2C87.5,79.3,87.2,79.4,86.8,79.4z"/>
	</g>
	<g>
		<path class="st1" d="M91.6,82c-0.4,0-0.9-0.2-1.2-0.6c-0.5-0.7-0.4-1.6,0.2-2.2c1.4-1.1,2.2-2.3,2.5-3.6c0.3-1,0.1-1.9,0-2.8
			c-0.2-1.1-0.4-2.4,0.1-4c0.6-2.1,2.1-3.9,4.5-5.4c0.7-0.4,1.7-0.2,2.1,0.5c0.4,0.7,0.2,1.7-0.5,2.1c-1.7,1.1-2.8,2.3-3.2,3.6
			c-0.3,0.9-0.1,1.7,0,2.7c0.2,1.1,0.4,2.4,0,4.1c-0.5,2-1.7,3.8-3.6,5.3C92.3,81.9,91.9,82,91.6,82z"/>
	</g>
	<g>
		<path class="st1" d="M106.3,84.9c-0.2,0-0.4,0-0.5-0.1c-0.8-0.3-1.2-1.2-0.9-2c0.9-2.3,0.9-4.3,0.2-5.7c-0.4-0.7-0.8-1.2-1.4-1.7
			c-0.7-0.7-1.6-1.5-1.9-3c-0.4-2.2,0.8-4.5,3.7-7.1c0.6-0.6,1.6-0.5,2.2,0.1c0.6,0.6,0.5,1.6-0.1,2.2c-1.9,1.7-2.9,3.2-2.7,4.2
			c0.1,0.4,0.4,0.7,1,1.3c0.6,0.6,1.4,1.3,2,2.5c1.1,2.2,1.1,5-0.1,8.1C107.5,84.5,106.9,84.9,106.3,84.9z"/>
	</g>
	<g>
		<path class="st1" d="M116.9,84c-0.7,0-1.3-0.5-1.5-1.1c-0.3-1.2-0.4-2.4-0.3-3.6c0.2-2.3,1.2-3.8,2-5c0.4-0.6,0.8-1.2,1-1.8
			c0.7-2.3-1.4-5.4-3.3-7.6c-0.6-0.6-0.5-1.6,0.2-2.2c0.7-0.6,1.6-0.5,2.2,0.2c3.6,4.2,4.8,7.6,3.9,10.6c-0.3,1-0.8,1.8-1.4,2.5
			c-0.7,1-1.4,2-1.5,3.6c-0.1,0.8,0,1.7,0.2,2.5c0.2,0.8-0.3,1.7-1.1,1.9C117.2,84,117.1,84,116.9,84z"/>
	</g>
	<g>
		<path class="st1" d="M135.1,76.5c-0.6,0-1.2-0.4-1.4-1c-1.1-2.6-2.5-4.4-4.2-5.2c-0.7-0.4-1.3-0.5-2-0.6c-0.9-0.2-1.9-0.4-3.1-1.1
			c-2.1-1.3-3.6-3.7-4.3-7c-0.2-0.8,0.4-1.6,1.2-1.8c0.8-0.2,1.6,0.4,1.8,1.2c0.5,2.5,1.5,4.2,2.9,5c0.7,0.4,1.3,0.6,2.1,0.7
			c0.8,0.2,1.7,0.3,2.8,0.9c2.5,1.2,4.4,3.5,5.7,6.8c0.3,0.8-0.1,1.7-0.8,2C135.5,76.4,135.3,76.5,135.1,76.5z"/>
	</g>
	<g>
		<path class="st1" d="M141.3,66.7c-2.2,0-4-0.5-5.4-1.6c-1.5-1.2-2.1-2.6-2.7-3.9c-0.4-1-0.8-1.8-1.6-2.4c-1.3-1-3.6-1.2-6.6-0.4
			c-0.8,0.2-1.7-0.3-1.9-1.1c-0.2-0.8,0.3-1.7,1.1-1.9c4-1,7.1-0.7,9.3,0.9c1.4,1.1,2,2.5,2.5,3.7c0.4,1,0.8,1.9,1.7,2.6
			c1.2,0.9,3,1.2,5.4,0.9c0.8-0.1,1.6,0.4,1.8,1.3c0.1,0.8-0.4,1.6-1.3,1.8C142.8,66.6,142,66.7,141.3,66.7z"/>
	</g>
</g>
</svg>
