<?xml version="1.0" encoding="utf-8"?>
<!-- Generator: Adobe Illustrator 22.0.0, SVG Export Plug-In . SVG Version: 6.00 Build 0)  -->
<svg version="1.1" id="Layer_1" xmlns="http://www.w3.org/2000/svg" xmlns:xlink="http://www.w3.org/1999/xlink" x="0px" y="0px"
	 viewBox="0 0 361.9 188.6" style="enable-background:new 0 0 361.9 188.6;" xml:space="preserve">
<style type="text/css">
	.st0{fill:#FFFFFF;}
	.st1{fill:#7DE2DB;}
	.st2{fill:#FF6161;}
	.st3{fill:#FCC96D;}
</style>
<g>
	<circle class="st0" cx="181.3" cy="35.1" r="35.1"/>
	<path class="st0" d="M220.9,188.6h-80.6v-69.5c0-22.3,18-40.3,40.3-40.3h0c22.3,0,40.3,18,40.3,40.3V188.6z"/>
</g>
<g>
	<circle class="st0" cx="41" cy="35.1" r="35.1"/>
	<path class="st0" d="M80.6,188.6H0l0-69.5c0-22.3,18-40.3,40.3-40.3h0c22.3,0,40.3,18,40.3,40.3V188.6z"/>
</g>
<g>
	<circle class="st0" cx="322.3" cy="35.1" r="35.1"/>
	<path class="st0" d="M361.9,188.6h-80.6v-69.5c0-22.3,18-40.3,40.3-40.3h0c22.3,0,40.3,18,40.3,40.3V188.6z"/>
</g>
<g>
	<g>
		<path class="st1" d="M28.6,126.4L28.6,126.4c-3.3,0-6-2.7-6-6V101c0-3.3,2.7-6,6-6h0c3.3,0,6,2.7,6,6v19.3
			C34.6,123.7,31.9,126.4,28.6,126.4z"/>
		<path class="st1" d="M28.5,175.4L28.5,175.4c-3.3,0-6-2.7-6-6v-39.4c0-3.3,2.7-6,6-6h0c3.3,0,6,2.7,6,6v39.4
			C34.5,172.7,31.8,175.4,28.5,175.4z"/>
	</g>
	<rect x="22.6" y="161.6" class="st2" width="11.9" height="2.4"/>
</g>
<g>
	<g>
		<path class="st3" d="M52.8,126.4L52.8,126.4c-3.3,0-6-2.7-6-6V101c0-3.3,2.7-6,6-6h0c3.3,0,6,2.7,6,6v19.3
			C58.8,123.7,56.1,126.4,52.8,126.4z"/>
		<path class="st3" d="M52.7,175.4L52.7,175.4c-3.3,0-6-2.7-6-6v-39.4c0-3.3,2.7-6,6-6h0c3.3,0,6,2.7,6,6v39.4
			C58.7,172.7,56,175.4,52.7,175.4z"/>
	</g>
	<rect x="46.7" y="161.6" class="st2" width="11.9" height="2.4"/>
</g>
<g>
	<g>
		<path class="st1" d="M310.2,126.4L310.2,126.4c-3.3,0-6-2.7-6-6V101c0-3.3,2.7-6,6-6l0,0c3.3,0,6,2.7,6,6v19.3
			C316.2,123.7,313.5,126.4,310.2,126.4z"/>
		<path class="st1" d="M310.1,175.4L310.1,175.4c-3.3,0-6-2.7-6-6v-39.4c0-3.3,2.7-6,6-6l0,0c3.3,0,6,2.7,6,6v39.4
			C316.1,172.7,313.4,175.4,310.1,175.4z"/>
	</g>
	<rect x="304.2" y="161.6" class="st2" width="11.9" height="2.4"/>
</g>
<g>
	<g>
		<path class="st3" d="M334.4,126.4L334.4,126.4c-3.3,0-6-2.7-6-6V101c0-3.3,2.7-6,6-6l0,0c3.3,0,6,2.7,6,6v19.3
			C340.4,123.7,337.7,126.4,334.4,126.4z"/>
		<path class="st3" d="M334.3,175.4L334.3,175.4c-3.3,0-6-2.7-6-6v-39.4c0-3.3,2.7-6,6-6h0c3.3,0,6,2.7,6,6v39.4
			C340.3,172.7,337.6,175.4,334.3,175.4z"/>
	</g>
	<rect x="328.3" y="161.6" class="st2" width="11.9" height="2.4"/>
</g>
<g>
	<path class="st1" d="M169.2,126.4L169.2,126.4c-3.3,0-6-2.7-6-6V101c0-3.3,2.7-6,6-6l0,0c3.3,0,6,2.7,6,6v19.3
		C175.3,123.7,172.6,126.4,169.2,126.4z"/>
	<path class="st1" d="M169.1,175.4L169.1,175.4c-3.3,0-6-2.7-6-6v-39.4c0-3.3,2.7-6,6-6h0c3.3,0,6,2.7,6,6v39.4
		C175.1,172.7,172.4,175.4,169.1,175.4z"/>
</g>
<g>
	<g>
		<path class="st3" d="M193.4,126.4L193.4,126.4c-3.3,0-6-2.7-6-6V101c0-3.3,2.7-6,6-6h0c3.3,0,6,2.7,6,6v19.3
			C199.5,123.7,196.8,126.4,193.4,126.4z"/>
		<path class="st3" d="M193.3,175.4L193.3,175.4c-3.3,0-6-2.7-6-6v-39.4c0-3.3,2.7-6,6-6h0c3.3,0,6,2.7,6,6v39.4
			C199.3,172.7,196.6,175.4,193.3,175.4z"/>
	</g>
	<rect x="187.4" y="161.6" class="st2" width="11.9" height="2.4"/>
</g>
</svg>
