<?xml version="1.0" encoding="utf-8"?>
<!-- Generator: Adobe Illustrator 22.0.0, SVG Export Plug-In . SVG Version: 6.00 Build 0)  -->
<svg version="1.1" id="Layer_1" xmlns="http://www.w3.org/2000/svg" xmlns:xlink="http://www.w3.org/1999/xlink" x="0px" y="0px"
	 viewBox="0 0 93.8 219.6" style="enable-background:new 0 0 93.8 219.6;" xml:space="preserve">
<style type="text/css">
	.st0{fill:#FFFFFF;}
	.st1{fill:#FCC96D;}
	.st2{fill:#FF6161;}
</style>
<g>
	<circle class="st0" cx="47.7" cy="40.9" r="40.9"/>
	<path class="st0" d="M93.8,219.6H0l0-80.9c0-25.9,21-46.9,46.9-46.9h0c25.9,0,46.9,21,46.9,46.9V219.6z"/>
</g>
<g>
	<g>
		<path class="st1" d="M29.5,151.9L29.5,151.9c-4.1,0-7.5-3.3-7.5-7.5v-24c0-4.1,3.3-7.5,7.5-7.5h0c4.1,0,7.5,3.3,7.5,7.5v24
			C37,148.6,33.7,151.9,29.5,151.9z"/>
		<path class="st1" d="M29.4,212.9L29.4,212.9c-4.1,0-7.5-3.3-7.5-7.5v-48.9c0-4.1,3.3-7.5,7.5-7.5h0c4.1,0,7.5,3.3,7.5,7.5v48.9
			C36.8,209.6,33.5,212.9,29.4,212.9z"/>
	</g>
	<rect x="22" y="195.7" class="st2" width="14.8" height="2.9"/>
</g>
<g>
	<g>
		<path class="st1" d="M62.7,151.9L62.7,151.9c-4.1,0-7.5-3.3-7.5-7.5v-24c0-4.1,3.3-7.5,7.5-7.5h0c4.1,0,7.5,3.3,7.5,7.5v24
			C70.1,148.6,66.8,151.9,62.7,151.9z"/>
		<path class="st1" d="M62.5,212.9L62.5,212.9c-4.1,0-7.5-3.3-7.5-7.5v-48.9c0-4.1,3.3-7.5,7.5-7.5h0c4.1,0,7.5,3.3,7.5,7.5v48.9
			C70,209.6,66.6,212.9,62.5,212.9z"/>
	</g>
	<rect x="55.1" y="195.7" class="st2" width="14.8" height="2.9"/>
</g>
</svg>
