<?xml version="1.0" encoding="utf-8"?>
<!-- Generator: Adobe Illustrator 22.0.0, SVG Export Plug-In . SVG Version: 6.00 Build 0)  -->
<svg version="1.1" id="Layer_2_1_" xmlns="http://www.w3.org/2000/svg" xmlns:xlink="http://www.w3.org/1999/xlink" x="0px" y="0px"
	 viewBox="0 0 286.4 504.3" style="enable-background:new 0 0 286.4 504.3;" xml:space="preserve">
<style type="text/css">
	.st0{fill:#846855;}
	.st1{fill:#C6A58B;}
	.st2{fill:#EF3F3F;}
	.st3{fill:#C13A3A;}
	.st4{fill:#E03D3D;}
	.st5{fill:#AF3838;}
	.st6{fill:#EF5454;}
	.st7{fill:#DB947B;}
	.st8{fill:#FFFFFF;}
	.st9{fill:#665B4F;}
	.st10{fill:#B5955D;}
	.st11{fill:#E5CBAC;}
	.st12{fill:#564ECC;}
	.st13{fill:#4747A0;}
	.st14{fill:#6855F2;}
	.st15{fill:#454589;}
	.st16{fill:#7C73EF;}
	.st17{fill:#4B77AA;}
	.st18{fill:#B58168;}
</style>
<path class="st0" d="M248.1,88c7.6,0.4,16.2,0.9,19.7-4.1c2.2-3.1,0.5-5.6,2.1-15.6c1.4-9.2,3.1-8.9,3.1-13.9
	c-0.1-6.8-3.3-7.8-7.5-19.4c-4-11-2-12.6-5.4-17c-3.1-3.9-5.2-3.2-17.7-9.5c-12.2-6.2-13.1-8.3-18.3-8.5c-5.9-0.2-6,2.6-14.9,4.1
	c-10.5,1.7-12.6-1.7-18.3,1c-5.3,2.6-3.7,5.7-11.5,12.6c-6.7,5.9-9.3,5-11.9,9.5c-2.6,4.6-0.2,6.1-2.7,13.9c-2.3,7-4.7,7.4-5.1,12.6
	c-0.3,4.5,1.5,4.8,2,11.2c0.7,7.9-1.9,10.2-0.3,13.6c2.4,5.3,11.8,5.8,17.3,6.1C182.5,84.8,184.6,84.9,248.1,88z"/>
<polygon class="st1" points="182.5,500.7 154.4,500.7 173.7,282.3 194.2,301 "/>
<polygon class="st1" points="249.8,501.6 277.9,501.6 258.6,283.2 238.1,301.9 "/>
<g>
	<path class="st2" d="M258.4,131.1c-0.2-4.6-1-11.4-4.2-17.6c-7.8-15.2-23.8-15.1-38.1-15c-13.6,0.1-26.2,0-35.6,11.1
		c-4.8,5.6-6.1,15.6-6.6,21.6C202.1,131.1,230.2,131.1,258.4,131.1z"/>
	<path class="st3" d="M167.6,272.1c-0.1,2.5-0.3,16.9,7.9,28.7c8.2,11.8,18.6,12,20.4,12h40.6c18.9,0,28.3-23.1,28.3-40.7
		C232.3,272.1,199.9,272.1,167.6,272.1z"/>
	<path class="st2" d="M264.7,272.1c-0.4-8.2-0.7-15-1-23.2c-31.8,0-63.6,0-95.3,0c-0.3,7.6-0.6,15.6-0.9,23.2
		C199.9,272.1,232.3,272.1,264.7,272.1z"/>
	<path class="st3" d="M259.5,157.2c-0.4-10.3-0.7-15.8-1.1-26.1c-28.2,0-56.3,0-84.5,0c-0.7,10.9-1,15-1.6,25.9
		C201.5,157,230.4,157.2,259.5,157.2z"/>
	<path class="st3" d="M263.7,248.9c-0.2-3.8-0.3-7.4-0.5-11.2c-30.7,0-62.9,0-94.4,0c-0.1,3.5-0.3,7.7-0.4,11.2
		C200.7,248.9,231.7,248.9,263.7,248.9z"/>
	<path class="st4" d="M263.1,237.6c-0.2-4.2-0.5-11.2-0.6-15.4c-31.1,0-62.7-0.1-93.1-0.1c-0.2,4.5-0.4,11-0.6,15.4
		C200,237.6,231.4,237.6,263.1,237.6z"/>
	<path class="st5" d="M262.5,222.2c-0.3-5.5-0.5-9.7-0.7-15.2c-30.1,0-61.3,0-91.8,0c-0.2,5.3-0.4,9.8-0.6,15.1
		C200.5,222.2,230.6,222.2,262.5,222.2z"/>
	<path class="st6" d="M261.8,207.1c-0.4-7.9-0.8-17.1-1.2-25c-31.2,0-58.9,0-89.6,0c-0.3,8-0.7,17-1,25
		C200.6,207.1,231,207.1,261.8,207.1z"/>
	<path class="st4" d="M260.6,182.1c-0.2-4.8-0.5-10.6-0.7-15.3c-29.8,0-57.6,0-88.1,0c-0.2,4.5-0.5,10.8-0.7,15.3
		C201.4,182.1,230.5,182.1,260.6,182.1z"/>
	<path class="st6" d="M259.9,166.8c-0.1-2.3-0.3-7.2-0.4-9.5c-29.6,0-58-0.2-87.2-0.2c-0.1,2.6-0.4,7.1-0.5,9.7
		C201,166.8,230.2,166.8,259.9,166.8z"/>
</g>
<polygon class="st1" points="266.4,215.3 286.4,215.3 274.7,129.3 257.8,126 "/>
<polygon class="st1" points="283.8,303.9 266.4,303.9 266.4,215.3 286.4,215.3 "/>
<polygon class="st1" points="165.9,215.3 145.9,215.3 157.6,129.3 174.4,126 "/>
<polygon class="st1" points="148.4,303.9 165.9,303.9 165.9,215.3 145.9,215.3 "/>
<circle class="st1" cx="215.8" cy="58.4" r="49"/>
<polygon class="st7" points="215.8,61.5 223.8,82.9 207.9,82.9 "/>
<circle class="st8" cx="238.5" cy="65.8" r="9.5"/>
<circle class="st8" cx="192.6" cy="65.8" r="9.5"/>
<path class="st1" d="M264,76.3c5.4,0,9.8-4.4,9.8-9.8s-4.4-9.8-9.8-9.8C264,63.3,264,69.8,264,76.3z"/>
<path class="st1" d="M168.3,76.3c-5.4,0-9.8-4.4-9.8-9.8s4.4-9.8,9.8-9.8C168.3,63.3,168.3,69.8,168.3,76.3z"/>
<circle class="st9" cx="238" cy="66.7" r="5.9"/>
<circle class="st9" cx="192.6" cy="66.7" r="5.9"/>
<ellipse class="st0" cx="193.1" cy="46.4" rx="7.7" ry="4.7"/>
<ellipse class="st0" cx="238" cy="46.4" rx="7.7" ry="4.7"/>
<path class="st10" d="M60.3,37.6c26.4-0.3,48.3,22.1,53.1,42.6c4.8,20.3-9.6,28.4-5.7,59.3c2.4,19.5,9.1,23.8,5.3,33.8
	c-8.4,22-49,23.2-51.4,23.3C57,196.7,22,197.4,12,177.7c-5.3-10.4,1.6-16.3,3.1-39.1C17.2,105.4,3.7,98.7,9,78.9
	C14.1,59.1,34.9,37.8,60.3,37.6z"/>
<polygon class="st11" points="34.1,504.3 9.4,504.3 26.3,301.3 44.3,318.7 "/>
<polygon class="st11" points="91,504.3 115.6,504.3 98.7,301.3 80.7,318.7 "/>
<g>
	<path class="st12" d="M98.5,160.9c-0.2-4.3-0.9-10.6-3.7-16.4c-6.8-14.1-20.9-14-33.3-14c-11.9,0.1-23,0-31.2,10.3
		c-4.2,5.2-5.3,14.5-5.8,20.1C49.2,160.9,73.9,160.9,98.5,160.9z"/>
	<path class="st13" d="M19,291.8c-0.1,2.3-0.3,15.7,6.9,26.7s16.3,11.2,17.9,11.2h35.5c16.5,0,24.8-21.5,24.8-37.9
		C75.7,291.8,47.3,291.8,19,291.8z"/>
	<path class="st12" d="M104.1,291.8c-0.3-7.6-0.6-14-0.9-21.6c-27.8,0-55.7,0-83.5,0c-0.2,7.1-0.5,14.5-0.7,21.6
		C47.3,291.8,75.7,291.8,104.1,291.8z"/>
	<path class="st13" d="M99.5,185.1c-0.4-9.6-0.6-14.7-0.9-24.2c-24.7,0-49.3,0-74,0C24,171,23.8,174.8,23.2,185
		C48.7,184.9,74,185.1,99.5,185.1z"/>
	<path class="st13" d="M103.2,270.2c-0.2-3.6-0.3-6.9-0.4-10.4c-26.9,0-55.1,0-82.7,0c-0.1,3.3-0.2,7.2-0.4,10.4
		C48,270.2,75.2,270.2,103.2,270.2z"/>
	<path class="st14" d="M102.7,259.8c-0.2-3.9-0.4-10.4-0.6-14.3c-27.2,0-54.9-0.1-81.5-0.1c-0.1,4.2-0.4,10.2-0.5,14.3
		C47.4,259.8,74.9,259.8,102.7,259.8z"/>
	<path class="st15" d="M102.1,245.5c-0.2-5.1-0.4-9-0.6-14.1c-26.4,0-53.7,0-80.3,0c-0.2,5-0.4,9.1-0.6,14
		C47.8,245.5,74.2,245.5,102.1,245.5z"/>
	<path class="st16" d="M101.5,231.4c-0.3-7.4-0.7-15.8-1-23.2c-27.4,0-51.5,0-78.4,0c-0.3,7.4-0.6,15.8-0.9,23.2
		C47.9,231.4,74.5,231.4,101.5,231.4z"/>
	<path class="st14" d="M100.5,208.2c-0.2-4.4-0.4-9.8-0.6-14.3c-26.1,0-50.4,0-77.2,0c-0.2,4.2-0.5,10.1-0.6,14.3
		C48.6,208.2,74.1,208.2,100.5,208.2z"/>
	<path class="st16" d="M99.8,194c-0.1-2.2-0.3-6.7-0.4-8.9c-25.9,0-50.8-0.2-76.3-0.2c-0.1,2.4-0.3,6.6-0.5,9
		C48.3,194,73.8,194,99.8,194z"/>
</g>
<polygon class="st11" points="105.5,238.2 123,238.2 112.8,158.3 98,155.3 "/>
<polygon class="st11" points="120.8,320.6 105.5,320.6 105.5,238.2 123,238.2 "/>
<polygon class="st11" points="17.5,238.2 0,238.2 10.2,158.3 25,155.3 "/>
<polygon class="st11" points="2.3,320.6 17.5,320.6 17.5,238.2 0,238.2 "/>
<circle class="st11" cx="61.2" cy="90.3" r="48.1"/>
<polygon class="st7" points="61.2,94.1 69,115 53.4,115 "/>
<circle class="st8" cx="83.4" cy="98.3" r="9.4"/>
<circle class="st8" cx="38.4" cy="98.3" r="9.4"/>
<path class="st11" d="M108.4,107.8c5.3,0,9.6-4.3,9.6-9.6c0-5.3-4.3-9.6-9.6-9.6C108.4,95.1,108.4,101.5,108.4,107.8z"/>
<path class="st11" d="M14.6,107.8c-5.3,0-9.6-4.3-9.6-9.6c0-5.3,4.3-9.6,9.6-9.6C14.6,95.1,14.6,101.5,14.6,107.8z"/>
<circle class="st17" cx="83" cy="99.1" r="5.7"/>
<circle class="st17" cx="38.4" cy="99.1" r="5.7"/>
<path class="st10" d="M41.9,57c7.4,0.3,19.4,1.7,32.6,7.6C86.7,70,95.2,77,100.4,82c-1.3,3.7-2.4,8.1-3,13.1
	c-1.5,13.2,1.4,24,3.8,30.5c4.7-7.3,14.2-24.3,8.7-41.3c-0.1-0.3,0.3-4.8-0.7-7.2c-2.9-7.5-3.9-11.6-4.3-12.5
	c-2.5-7-14.8-16.5-29.4-21.2c-19.7-6.3-36.1,2.7-39.2,4.5c-1.8,1-21.2,12.6-23.7,33.1c-0.2,1.9-0.2,3.4-0.2,6.1
	c0.1,20.5,5.6,46.2,9.7,46c3.5-0.2,7.7-19.4,3-37.1c-1-3.9-2.4-7.2-3.6-9.7c3-2.6,6.3-5.8,9.5-10C36.7,69.2,40,62.2,41.9,57z"/>
<ellipse class="st10" cx="38.9" cy="79.3" rx="7.6" ry="4.6"/>
<ellipse class="st10" cx="83" cy="79.3" rx="7.6" ry="4.6"/>
<path class="st0" d="M242.3,22.8c-8,6.3-14,7.2-18,6.8c-6.1-0.6-7.6-3.6-14.3-3.4c-4.6,0.2-7.9,1.9-12.9,4.4
	c-7.7,3.9-6.8,6.6-13.6,9.5c-4.4,1.9-6.9,1.7-8.8,4.4c-1.2,1.7-1.3,3.3-1.4,8.2c-0.1,12.3,0.5,14.4-0.7,18c-0.7,2.2-2.2,5.3-5.8,8.5
	c-2.1-5.6-5-16.3-2.7-29.2c0.3-1.8,5.6-30.2,29.9-40.8c10-4.3,19.3-4,24.1-3.7c5.1,0.2,15.1,0.8,25.1,6.8
	c19.9,11.8,23.8,35,24.5,39.7c1.7,12.3-0.9,22.4-3.1,28.5c-3.4-4.7-4.8-8.9-5.4-11.9c-1.2-5.5-1.1-13.2-1-19.7
	c0-3.6,0.2-5.8-1.4-7.8c-2.2-2.9-5.4-2.4-8.5-4.4C245.8,35,243,31.5,242.3,22.8z"/>
<circle class="st18" cx="246.8" cy="82.2" r="1.5"/>
<circle class="st18" cx="236.6" cy="78.1" r="1.5"/>
<circle class="st18" cx="228.5" cy="82.2" r="1.5"/>
<circle class="st18" cx="183.4" cy="81.8" r="1.5"/>
<circle class="st18" cx="193.6" cy="77.8" r="1.5"/>
<circle class="st18" cx="201.7" cy="81.8" r="1.5"/>
<circle class="st18" cx="90.6" cy="113.4" r="1.2"/>
<circle class="st18" cx="82.8" cy="110.3" r="1.2"/>
<circle class="st18" cx="76.6" cy="113.4" r="1.2"/>
<circle class="st18" cx="32.4" cy="113.1" r="1.2"/>
<circle class="st18" cx="40.1" cy="110" r="1.2"/>
<circle class="st18" cx="46.3" cy="113.1" r="1.2"/>
</svg>
