<?xml version="1.0" encoding="utf-8"?>
<!-- Generator: Adobe Illustrator 22.0.0, SVG Export Plug-In . SVG Version: 6.00 Build 0)  -->
<svg version="1.1" id="Layer_2_1_" xmlns="http://www.w3.org/2000/svg" xmlns:xlink="http://www.w3.org/1999/xlink" x="0px" y="0px"
	 viewBox="0 0 257.7 392.3" style="enable-background:new 0 0 257.7 392.3;" xml:space="preserve">
<style type="text/css">
	.st0{fill:#604C3C;}
	.st1{fill:#A5603D;}
	.st2{fill:#E5CBAC;}
	.st3{fill:#56E260;}
	.st4{fill:#3FA841;}
	.st5{fill:#42B242;}
	.st6{fill:#3C913C;}
	.st7{fill:#7DEA82;}
	.st8{fill:#DB947B;}
	.st9{fill:#FFFFFF;}
	.st10{fill:#428954;}
	.st11{fill:#D8BDA3;}
	.st12{fill:#4949CE;}
	.st13{fill:#4545AF;}
	.st14{fill:#6767C6;}
	.st15{fill:#5050BC;}
	.st16{fill:#6E6EED;}
	.st17{fill:#5F8280;}
	.st18{fill:#B57E6D;}
</style>
<path class="st0" d="M30.1,95.9c0-1.2-0.1-3-1-4.9c-1.5-3.4-4.4-5.1-5.1-5.6c-6.9-4.5-11.8-19.1-12.2-20.2
	c-4.7-14.3,2-32.4,13.2-43.7C36.6,9.8,50.9,7.8,55.8,7.3c2.9,0.2,5.2-1.6,5.6-3.7c0.3-1.9-1-3.4-1.2-3.7c2.1-0.1,4,1.4,4.4,3.4
	C65,5.2,64,7.1,62.2,7.9c2,0.7,4.3,0.1,5.6-1.5C69.3,4.7,69.4,2,68,0.1c0.2,0.1,3.3,2.1,3.2,5.6c-0.1,1.9-1.1,3.2-1.5,3.7
	c4.9,0.8,12.8,2.9,20.2,9C102.9,29,107.8,46,106,59.6c-1.7,13.1-9.7,24-12.2,27.3c-0.3,0.4-1.7,1.4-2.7,3.4
	c-1.3,2.5-1.4,5.1-1.2,6.8c-0.6-0.3-2.5-1.1-3.7-3.2c-0.9-1.5-1-3-1-3.7c-0.3,1.1-0.8,2.5-1.7,3.9c-1.7,2.7-3.8,4.3-5.1,5.1
	c-13.3-0.3-26.5-0.7-39.8-1c-1.2-2.1-2.4-4.2-3.7-6.3C33.4,93.4,31.8,94.7,30.1,95.9z"/>
<path class="st1" d="M201,13.9c-2.4-0.7-7.8-1.9-14.4-0.1c-7.1,2-11.5,6.4-13.2,8.3c-2.8,1-7.7,3.3-11.8,8.4
	c-8.7,11-5.7,25.1-5.3,26.9c-1.8,2.4-2.7,4.7-3.1,6.5c-3.2,12.6,8.6,24.3,9.4,25c-1.6,4.8-0.8,10,2.1,13.6c4,4.9,11.6,5.9,17.6,1.8
	c2.5,1.7,8.3,5.1,16.3,5.5c9.1,0.4,15.8-3.3,18.3-4.9c5.7,4.4,13.2,4.1,17.6-0.2c4.9-4.7,3.9-11.9,3.8-12.6c2.1-2.8,5.3-8,7-15.3
	c2.2-9.8,0.1-17.9-1-21.4c0.5-1.2,4.5-12.4-1.7-23c-5.1-8.7-13.5-11-15.2-11.4c-1.9-1.9-6.2-5.7-12.9-7.3
	C208.4,12.3,203.4,13.3,201,13.9z"/>
<polygon class="st2" points="227.9,390.7 250.8,390.7 235.1,230.1 218.4,243.8 "/>
<polygon class="st2" points="173.1,390.7 150.1,390.7 165.9,230.1 182.6,243.8 "/>
<g>
	<path class="st3" d="M166,118.9c0.2-3.4,0.8-8.4,3.4-12.9c6.4-11.2,19.4-11.1,31-11.1c11.1,0.1,21.4,0,29,8.1
		c3.9,4.1,5,11.5,5.4,15.9C211.9,118.9,189,118.9,166,118.9z"/>
	<path class="st4" d="M240.1,222.5c0.1,1.8,0.3,12.4-6.4,21.1c-6.7,8.7-15.2,8.9-16.7,8.9h-33.1c-15.4,0-23-17-23-30
		C187.3,222.5,213.7,222.5,240.1,222.5z"/>
	<path class="st3" d="M160.9,222.5c0.3-6,0.5-11,0.8-17.1c25.9,0,51.8,0,77.7,0c0.2,5.6,0.5,11.5,0.7,17.1
		C213.7,222.5,187.3,222.5,160.9,222.5z"/>
	<path class="st4" d="M165.2,138.1c0.4-7.6,0.5-11.6,0.9-19.2c22.9,0,45.9,0,68.8,0c0.5,8,0.8,11,1.3,19
		C212.4,137.9,188.9,138.1,165.2,138.1z"/>
	<path class="st4" d="M161.7,205.5c0.1-2.8,0.3-5.5,0.4-8.3c25,0,51.3,0,76.9,0c0.1,2.6,0.2,5.7,0.3,8.3
		C213,205.5,187.8,205.5,161.7,205.5z"/>
	<path class="st5" d="M162.1,197.2c0.2-3.1,0.4-8.2,0.5-11.3c25.3,0,51.1,0,75.9,0c0.1,3.3,0.3,8.1,0.5,11.3
		C213.6,197.2,188,197.2,162.1,197.2z"/>
	<path class="st6" d="M162.7,185.9c0.2-4,0.4-7.1,0.6-11.2c24.6,0,49.9,0,74.8,0c0.2,3.9,0.4,7.2,0.5,11.1
		C213.2,185.8,188.7,185.9,162.7,185.9z"/>
	<path class="st7" d="M163.3,174.7c0.3-5.8,0.7-12.5,1-18.4c25.5,0,48,0,73,0c0.3,5.9,0.5,12.5,0.8,18.4
		C213.1,174.7,188.4,174.7,163.3,174.7z"/>
	<path class="st3" d="M164.2,156.4c0.2-3.5,0.4-7.8,0.6-11.3c24.3,0,46.9,0,71.8,0c0.2,3.3,0.4,8,0.6,11.3
		C212.5,156.4,188.8,156.4,164.2,156.4z"/>
	<path class="st7" d="M164.8,145.1c0.1-1.7,0.3-5.3,0.3-7c24.1,0,47.2-0.1,71-0.1c0.1,1.9,0.3,5.2,0.4,7.2
		C212.8,145.1,189,145.1,164.8,145.1z"/>
</g>
<polygon class="st2" points="159.5,180.1 143.2,180.1 152.8,116.9 166.5,114.5 "/>
<polygon class="st2" points="145.3,245.3 159.5,245.3 159.5,180.1 143.2,180.1 "/>
<polygon class="st2" points="241.4,180.1 257.7,180.1 248.2,116.9 234.5,114.5 "/>
<polygon class="st2" points="255.6,245.3 241.4,245.3 241.4,180.1 257.7,180.1 "/>
<ellipse class="st2" cx="201.4" cy="58.3" rx="39.5" ry="41.6"/>
<polygon class="st8" points="201.3,61.6 194.9,79.8 207.8,79.8 "/>
<ellipse class="st9" cx="183.1" cy="65.2" rx="7.7" ry="8.1"/>
<ellipse class="st9" cx="220.1" cy="65.2" rx="7.7" ry="8.1"/>
<path class="st2" d="M162.6,73.5c-4.3,0-7.9-3.7-7.9-8.3s3.5-8.3,7.9-8.3C162.6,62.5,162.6,68,162.6,73.5z"/>
<path class="st2" d="M239.6,73.5c4.3,0,7.9-3.7,7.9-8.3S244,57,239.6,57C239.6,62.5,239.6,68,239.6,73.5z"/>
<ellipse class="st10" cx="183.5" cy="66" rx="4.7" ry="5"/>
<ellipse class="st10" cx="220.1" cy="66" rx="4.7" ry="5"/>
<ellipse class="st1" cx="219.7" cy="48.8" rx="6.2" ry="4"/>
<ellipse class="st1" cx="183.5" cy="48.8" rx="6.2" ry="4"/>
<path class="st1" d="M179.5,35.2c1.6,1.4,6.5,5.1,13.6,5.5c8.3,0.5,14.1-3.9,15.6-5.1c1.8,1.7,5.7,4.9,11.5,5.9c2.8,0.5,5.2,0.3,7,0
	c0.5,1.9,1.5,4.7,3.5,7.7c1.8,2.7,3.8,4.4,5.2,5.5c-0.8,2.6-1.7,6.7-1.4,11.7c0.3,5.2,2,12.4,3.7,12.3c2.1,0,3.9-10,4.2-17.6
	c0.1-3.7,0.4-9.8-1.7-16.7c-3.8-12.2-13.7-23.4-27-27.7c-11.2-3.6-20.9-0.9-24.9,0.5C177,21.4,170.2,30,167.1,34.9
	c-1.6,2.6-5.9,9.9-7,20.3c-1.4,13,2.7,25.8,4.8,25.6c1.7-0.1,3-9.4,2.5-16.7c-0.3-4.1-1-7.4-1.7-9.9c0.8-0.3,3.5-1.5,5.1-4.8
	c1.2-2.3,1.1-4.5,1-5.5c0.8-0.1,3-0.7,5-2.7C179.2,38.9,179.5,36,179.5,35.2z"/>
<polygon class="st11" points="88.3,391.9 112,391.8 95,227.2 77.8,241.4 "/>
<polygon class="st11" points="31.7,392.2 8.1,392.3 23.6,227.5 40.9,241.5 "/>
<g>
	<path class="st12" d="M23.3,113.4c0.1-3.5,0.8-8.6,3.5-13.3c6.5-11.5,20-11.5,32-11.5c11.5,0,22.1-0.1,30,8.2
		c4,4.2,5.2,11.7,5.6,16.3C70.7,113.2,47,113.3,23.3,113.4z"/>
	<path class="st13" d="M100.1,219.4c0.1,1.9,0.3,12.8-6.5,21.7c-6.9,8.9-15.6,9.1-17.2,9.2l-34.1,0.1c-15.9,0.1-23.9-17.3-23.9-30.6
		C45.7,219.7,72.9,219.6,100.1,219.4z"/>
	<path class="st12" d="M18.4,219.8c0.3-6.2,0.5-11.3,0.8-17.5c26.7-0.1,53.5-0.2,80.2-0.3c0.3,5.8,0.5,11.8,0.8,17.5
		C72.9,219.6,45.6,219.7,18.4,219.8z"/>
	<path class="st13" d="M22.5,133.1c0.3-7.8,0.5-11.9,0.8-19.7c23.7-0.1,47.4-0.2,71.1-0.3c0.6,8.2,0.9,11.3,1.5,19.5
		C71.2,132.8,46.9,133,22.5,133.1z"/>
	<path class="st13" d="M19.2,202.3c0.1-2.9,0.3-5.6,0.4-8.5c25.8-0.1,53-0.2,79.4-0.3c0.1,2.6,0.3,5.8,0.4,8.5
		C72.2,202,46.1,202.1,19.2,202.3z"/>
	<path class="st14" d="M19.6,193.8c0.2-3.1,0.3-8.5,0.5-11.6c26.2-0.1,52.8-0.3,78.3-0.4c0.2,3.4,0.4,8.3,0.5,11.6
		C72.7,193.6,46.3,193.7,19.6,193.8z"/>
	<path class="st15" d="M20.1,182.2c0.2-4.1,0.4-7.3,0.6-11.4c25.3-0.1,51.5-0.2,77.2-0.3c0.2,4,0.4,7.4,0.6,11.4
		C72.3,181.9,47,182.1,20.1,182.2z"/>
	<path class="st16" d="M20.7,170.7c0.3-6,0.6-12.9,0.9-18.8c26.3-0.1,49.5-0.2,75.3-0.3c0.3,6,0.6,12.8,0.9,18.8
		C72.1,170.5,46.6,170.6,20.7,170.7z"/>
	<path class="st12" d="M21.6,151.9c0.2-3.6,0.4-8,0.5-11.6c25.1-0.1,48.4-0.2,74.1-0.3c0.2,3.4,0.5,8.2,0.7,11.6
		C71.4,151.7,46.9,151.8,21.6,151.9z"/>
	<path class="st16" d="M22.1,140.3c0.1-1.8,0.2-5.4,0.3-7.2c24.9-0.1,48.8-0.3,73.3-0.4c0.1,2,0.3,5.4,0.5,7.3
		C71.7,140.1,47.1,140.2,22.1,140.3z"/>
</g>
<polygon class="st11" points="16.8,176.3 0,176.3 9.6,111.4 23.7,108.9 "/>
<polygon class="st11" points="2.4,243.2 17.1,243.1 16.8,176.3 0,176.3 "/>
<polygon class="st11" points="101.4,175.9 118.2,175.9 108.1,111 93.9,108.6 "/>
<polygon class="st11" points="116.3,242.7 101.6,242.8 101.4,175.9 118.2,175.9 "/>
<circle class="st11" cx="59.1" cy="55.5" r="42.9"/>
<polygon class="st8" points="59.1,58.9 52.1,77.6 66.1,77.6 "/>
<circle class="st9" cx="39.2" cy="62.6" r="8.4"/>
<circle class="st9" cx="79.5" cy="62.6" r="8.4"/>
<path class="st11" d="M16.9,71.2c-4.7,0-8.5-3.9-8.5-8.5s3.9-8.5,8.5-8.5C16.9,59.8,16.9,65.5,16.9,71.2z"/>
<path class="st11" d="M100.7,71.2c4.7,0,8.5-3.9,8.5-8.5s-3.9-8.5-8.5-8.5C100.7,59.8,100.7,65.5,100.7,71.2z"/>
<circle class="st17" cx="39.7" cy="63.4" r="5.1"/>
<circle class="st17" cx="79.5" cy="63.4" r="5.1"/>
<ellipse class="st0" cx="79" cy="45.7" rx="6.7" ry="4.1"/>
<ellipse class="st0" cx="39.7" cy="45.7" rx="6.7" ry="4.1"/>
<path class="st0" d="M34.5,30.5c4.7,4.8,8.6,5.8,11.2,5.9c4.4,0.1,8-2.4,12.4-0.5c1.5,0.7,2.6,1.6,3.2,2.2c0.2-0.1,1.9-0.8,2.2-2.4
	c0.4-1.7-0.9-3.7-3.2-4.4c1.6,0,4,0.1,6.8,1c4.9,1.5,6.7,4.1,12,6.3c1.7,0.7,4.3,1.7,7.8,2.2c-0.6-0.8-1.5-2-2.4-3.4
	c-1.4-2.1-2.2-3.2-2-3.4c0.4-0.5,4.1,1,6.3,3.7c2.4,2.8,1.8,5.4,2.7,11.2c0.3,1.8,1.6,6.1,4.4,14.9c1,3.1,2.3,7.2,3.9,12
	c1.9-4.4,5-13.5,3.7-24.9c-0.5-4-2.5-20.1-16.1-31C72.7,8,51.4,7.9,36,16.8c-16.6,9.6-21,26.6-21.5,28.5
	c-4.1,16.9,3.2,30.3,4.9,33.2c1.4-4.9,2.6-10.8,3.2-17.6c0.3-3.6-1.1-7.8,0.2-13.4c0.7-2.9,1.7-5.1,2.4-6.6c0.4,0.6,1.4,2.6,1,5.1
	c-0.2,1.5-0.8,2.5-1.2,3c2-2,4.7-5.2,6.8-9.8C33.4,35.9,34.2,32.8,34.5,30.5z"/>
<ellipse class="st18" cx="180.4" cy="80.1" rx="0.7" ry="0.8"/>
<ellipse class="st18" cx="185.8" cy="77.2" rx="0.7" ry="0.8"/>
<ellipse class="st18" cx="191.2" cy="80.1" rx="0.7" ry="0.8"/>
<ellipse class="st18" cx="222.9" cy="80.1" rx="0.7" ry="0.8"/>
<ellipse class="st18" cx="217.5" cy="77.2" rx="0.7" ry="0.8"/>
<ellipse class="st18" cx="212.1" cy="80.1" rx="0.7" ry="0.8"/>
</svg>
