<?xml version="1.0" encoding="utf-8"?>
<!-- Generator: Adobe Illustrator 22.0.0, SVG Export Plug-In . SVG Version: 6.00 Build 0)  -->
<svg version="1.1" id="Layer_1" xmlns="http://www.w3.org/2000/svg" xmlns:xlink="http://www.w3.org/1999/xlink" x="0px" y="0px"
	 viewBox="0 0 69.7 89" style="enable-background:new 0 0 69.7 89;" xml:space="preserve">
<style type="text/css">
	.st0{fill:#DDA414;}
	.st1{fill:#FFFFFF;}
	.st2{fill:#D8D8D8;}
</style>
<g>
	<g>
		<g>
			
				<rect x="6.9" y="18.4" transform="matrix(0.973 0.2307 -0.2307 0.973 12.6796 -5.9164)" class="st0" width="49.4" height="65.8"/>
		</g>
	</g>
	<g>
		<g>
			<path class="st1" d="M57.6,28.6l-39-9.2c-5.3-1.2-8.5-6.6-7.3-11.8l0,0c1.2-5.3,6.6-8.5,11.8-7.3l39,9.2
				c5.3,1.2,8.5,6.6,7.3,11.8l0,0C68.2,26.6,62.9,29.9,57.6,28.6z"/>
		</g>
	</g>
	<g>
		<g>
			<rect x="6.9" y="36.3" transform="matrix(0.973 0.2307 -0.2307 0.973 12.6792 -5.9165)" class="st1" width="49.4" height="30"/>
		</g>
	</g>
	<g>
		<g>
			<path class="st2" d="M19.4,5.2L19.4,5.2c-0.5-0.1-1.1,0.2-1.2,0.7l-3,12.6l1.9,0.5l3-12.6C20.3,5.9,20,5.4,19.4,5.2z"/>
		</g>
	</g>
	<g>
		<g>
			<path class="st2" d="M25.8,6.7L25.8,6.7c-0.5-0.1-1.1,0.2-1.2,0.7l-3,12.6l1.9,0.5l3-12.6C26.6,7.4,26.3,6.9,25.8,6.7z"/>
		</g>
	</g>
	<g>
		<g>
			<path class="st2" d="M32,8.2L32,8.2c-0.5-0.1-1.1,0.2-1.2,0.7l-3,12.6l1.9,0.5l3-12.6C32.8,8.9,32.5,8.3,32,8.2z"/>
		</g>
	</g>
	<g>
		<g>
			<path class="st2" d="M38.3,9.7L38.3,9.7c-0.5-0.1-1.1,0.2-1.2,0.7l-3,12.6l1.9,0.5l3-12.6C39.2,10.4,38.9,9.9,38.3,9.7z"/>
		</g>
	</g>
	<g>
		<g>
			<path class="st2" d="M44.8,11.3L44.8,11.3c-0.5-0.1-1.1,0.2-1.2,0.7l-3,12.6l1.9,0.5l3-12.6C45.7,11.9,45.4,11.4,44.8,11.3z"/>
		</g>
	</g>
	<g>
		<g>
			<path class="st2" d="M51.2,12.8L51.2,12.8c-0.5-0.1-1.1,0.2-1.2,0.7l-3,12.6l1.9,0.5l3-12.6C52,13.4,51.7,12.9,51.2,12.8z"/>
		</g>
	</g>
	<g>
		<g>
			<path class="st2" d="M57.7,14.3L57.7,14.3c-0.5-0.1-1.1,0.2-1.2,0.7l-3,12.6l1.9,0.5l3-12.6C58.5,15,58.2,14.4,57.7,14.3z"/>
		</g>
	</g>
	<g>
		<g>
			<path class="st2" d="M63.8,15.8L63.8,15.8c-0.5-0.1-1.1,0.2-1.2,0.7l-3,12.6l1.9,0.5l3-12.6C64.6,16.4,64.3,15.9,63.8,15.8z"/>
		</g>
	</g>
	<g>
		<g>
			<path d="M36.4,63.5c-0.2-0.1-0.5-0.2-0.6-0.4L28,51.5c-0.4-0.5-0.4-1.2,0-1.8c0.4-0.5,1-0.8,1.7-0.6c0.9,0.2,1.9,0.1,2.6-0.3
				c0.9-0.5,1.6-1.3,1.9-2.3c0-0.1,0.1-0.2,0.1-0.3c0.4-1.9-0.8-3.9-2.9-4.4l-4.3-1l-3.6,15c-0.1,0.5-0.7,0.9-1.2,0.7
				s-0.9-0.7-0.7-1.2l4-16.9l6.3,1.5c3.1,0.7,5.1,3.8,4.4,6.8c0,0.1-0.1,0.3-0.1,0.4c-0.5,1.5-1.5,2.7-2.8,3.5
				c-0.9,0.5-2,0.7-3.1,0.7L37.4,62c0.3,0.5,0.2,1.1-0.3,1.4C36.9,63.5,36.6,63.6,36.4,63.5z"/>
		</g>
	</g>
	<g>
		<g>
			<path d="M29.7,62.2c-0.2-0.1-0.4-0.2-0.6-0.4c-0.3-0.5-0.2-1.1,0.3-1.4l8.2-5.5c0.5-0.3,1.1-0.2,1.4,0.3c0.3,0.5,0.2,1.1-0.3,1.4
				l-8.2,5.5C30.3,62.2,30,62.3,29.7,62.2z"/>
		</g>
	</g>
</g>
</svg>
