<?xml version="1.0" encoding="utf-8"?>
<!-- Generator: Adobe Illustrator 23.0.1, SVG Export Plug-In . SVG Version: 6.00 Build 0)  -->
<svg version="1.1" id="Layer_1" xmlns="http://www.w3.org/2000/svg" xmlns:xlink="http://www.w3.org/1999/xlink" x="0px" y="0px"
	 viewBox="0 0 189.2 332.2" style="enable-background:new 0 0 189.2 332.2;" xml:space="preserve">
<style type="text/css">
	.st0{fill:#FFFFFF;}
</style>
<g>
	<path class="st0" d="M58.7,228.3v-14.1c0-16.1,2.9-29.5,8.8-40.2c5.9-10.7,16.1-21.8,30.8-33.2c17.4-13.8,28.7-24.5,33.7-32.1
		c5.1-7.6,7.6-16.7,7.6-27.2c0-12.3-4.1-21.8-12.3-28.3c-8.2-6.6-20-9.9-35.4-9.9c-13.9,0-26.8,2-38.7,5.9s-23.4,8.7-34.7,14.3
		L0,24.8C29.7,8.3,61.6,0,95.6,0c28.7,0,51.5,7,68.3,21.1c16.8,14.1,25.3,33.5,25.3,58.2c0,11-1.6,20.8-4.8,29.3
		c-3.2,8.6-8.1,16.7-14.6,24.5c-6.5,7.8-17.8,17.9-33.7,30.3c-13.6,10.7-22.7,19.6-27.4,26.6c-4.6,7-6.9,16.5-6.9,28.3v9.9H58.7z
		 M49.7,298.4c0-22.1,10.8-33.2,32.3-33.2c10.5,0,18.6,2.9,24.2,8.7c5.6,5.8,8.3,14,8.3,24.5c0,10.4-2.8,18.6-8.5,24.7
		c-5.6,6.1-13.7,9.1-24.1,9.1c-10.4,0-18.4-3-24-8.9C52.4,317.4,49.7,309.1,49.7,298.4z"/>
</g>
</svg>
