<?xml version="1.0" encoding="utf-8"?>
<!-- Generator: Adobe Illustrator 22.0.0, SVG Export Plug-In . SVG Version: 6.00 Build 0)  -->
<svg version="1.1" id="Layer_1" xmlns="http://www.w3.org/2000/svg" xmlns:xlink="http://www.w3.org/1999/xlink" x="0px" y="0px"
	 viewBox="0 0 131.2 67.8" style="enable-background:new 0 0 131.2 67.8;" xml:space="preserve">
<style type="text/css">
	.st0{fill:#EDB2B2;}
	.st1{fill:#DD4B4B;}
	.st2{fill:#EDE6CC;}
	.st3{fill:#BC9F8B;}
</style>
<g>
	<path class="st0" d="M0,47.4c4,7.4,8.6,10.5,12,12c10.6,4.5,24.5-0.4,38.7,0c11.7,0.3,9.9,2.7,29.2,5.6c22.6,3.3,33.9,5,42.6-1.3
		c2.3-1.7,6-5,8.7-11.8c0-7.5,0-15.1,0-22.6c-43.6,0-87.2,0-130.7,0C0.3,35.3,0.2,41.3,0,47.4z"/>
	<path class="st1" d="M125.4,7.6c-7.6-8.5-21.1-7.8-31.6-7.3c-9.6,0.5-9.8,2.4-21.4,4.3C52.3,7.8,45.5,3,23.4,7.1
		c-6.7,1.2-12.1,2.8-16.7,7.3C5.4,15.7-1.6,22.9,0.3,31c1.7,7.2,9.2,10.7,12,12c12.2,5.6,19.8-0.5,38.4,0c11.6,0.3,9.8,2.7,29,5.6
		c23.1,3.4,34.7,5.1,42.3-1.3C132.4,38.6,134.7,17.9,125.4,7.6z"/>
	<path class="st2" d="M118.8,19.3c-3-5-10-4.8-14.5-4.7c-8.4,0.2-19.3,3.9-19.4,8.5c-0.1,5.4,14.6,9.3,15.8,9.6
		c6,1.6,12.6,3.3,16.7-0.6C120.5,29,121.2,23.1,118.8,19.3z"/>
	<path class="st3" d="M106.2,19.3c-1.3-0.2-4.9-0.6-7.9,1.7c-0.9,0.7-2.2,1.7-2.1,3c0.2,2.3,5.1,3.4,6,3.6c1.1,0.2,6.9,1.4,9-1.7
		c0.8-1.2,1-3.1,0.2-4.5C110.4,19.8,108.3,19.5,106.2,19.3z"/>
</g>
</svg>
