<?xml version="1.0" encoding="utf-8"?>
<!-- Generator: Adobe Illustrator 23.0.1, SVG Export Plug-In . SVG Version: 6.00 Build 0)  -->
<svg version="1.1" id="Layer_1" xmlns="http://www.w3.org/2000/svg" xmlns:xlink="http://www.w3.org/1999/xlink" x="0px" y="0px"
	 viewBox="0 0 35.12 428.13" style="enable-background:new 0 0 35.12 428.13;" xml:space="preserve">
<style type="text/css">
	.st0{fill:none;stroke:#FFFFFF;stroke-width:4;stroke-miterlimit:10;}
	.st1{fill:none;stroke:#FFFFFF;stroke-width:3;stroke-miterlimit:10;}
	.st2{fill:none;stroke:#FFFFFF;stroke-width:2;stroke-miterlimit:10;}
</style>
<g>
	<path class="st0" d="M0.35,426.13c11.59,0,21.18,0,32.77,0c0-141.38,0-282.75,0-424.13C22.41,2,10.71,2,0,2"/>
	<path class="st0" d="M34.12,208.2c-10.71,0-22.41,0-33.12,0"/>
	<path class="st0" d="M34.12,277.2c-10.71,0-22.41,0-33.12,0"/>
	<path class="st0" d="M34.12,352.2c-10.71,0-22.41,0-33.12,0"/>
	<path class="st0" d="M34.12,65.2c-10.71,0-22.41,0-33.12,0"/>
	<path class="st0" d="M34.12,138.2c-10.71,0-22.41,0-33.12,0"/>
	<path class="st1" d="M34.12,387.84c-6.35,0-13.29,0-19.64,0"/>
	<path class="st1" d="M34.12,314.84c-6.35,0-13.29,0-19.64,0"/>
	<path class="st1" d="M34.12,242.84c-6.35,0-13.29,0-19.64,0"/>
	<path class="st1" d="M34.12,173.84c-6.35,0-13.29,0-19.64,0"/>
	<path class="st1" d="M34.12,101.84c-6.35,0-13.29,0-19.64,0"/>
	<path class="st1" d="M34.12,32.84c-6.35,0-13.29,0-19.64,0"/>
	<path class="st2" d="M34.12,407.17c-3.93,0-8.23,0-12.16,0"/>
	<path class="st2" d="M34.12,371.17c-3.93,0-8.23,0-12.16,0"/>
	<path class="st2" d="M34.12,334.17c-3.93,0-8.23,0-12.16,0"/>
	<path class="st2" d="M34.12,297.17c-3.93,0-8.23,0-12.16,0"/>
	<path class="st2" d="M34.12,260.17c-3.93,0-8.23,0-12.16,0"/>
	<path class="st2" d="M34.12,227.17c-3.93,0-8.23,0-12.16,0"/>
	<path class="st2" d="M34.12,191.17c-3.93,0-8.23,0-12.16,0"/>
	<path class="st2" d="M34.12,156.17c-3.93,0-8.23,0-12.16,0"/>
	<path class="st2" d="M34.12,120.17c-3.93,0-8.23,0-12.16,0"/>
	<path class="st2" d="M34.12,85.17c-3.93,0-8.23,0-12.16,0"/>
	<path class="st2" d="M34.12,49.17c-3.93,0-8.23,0-12.16,0"/>
	<path class="st2" d="M34.12,19.17c-3.93,0-8.23,0-12.16,0"/>
</g>
</svg>
