<?xml version="1.0" encoding="utf-8"?>
<!-- Generator: Adobe Illustrator 22.0.0, SVG Export Plug-In . SVG Version: 6.00 Build 0)  -->
<svg version="1.1" id="Layer_1" xmlns="http://www.w3.org/2000/svg" xmlns:xlink="http://www.w3.org/1999/xlink" x="0px" y="0px"
	 viewBox="0 0 97.2 90" style="enable-background:new 0 0 97.2 90;" xml:space="preserve">
<style type="text/css">
	.st0{fill:#41A336;}
	.st1{fill:#C94545;}
	.st2{fill:#AA1515;}
	.st3{fill:#E8DEB3;}
	.st4{fill:#998356;}
</style>
<g>
	<g>
		<g>
			<path class="st0" d="M33.1,59.6c-6,5.6-6.9,17.6-3.7,21.2c0.5,0.6,1.7,1.9,3.4,1.9c1.8,0,2.3-1.7,4.5-2c2.2-0.3,4,1,4.2,1.2
				c1.9,1.4,1.3,2.8,3.4,4.8c0.6,0.6,2.5,2.6,4.3,2.2c1.8-0.4,1.6-2.6,3.5-3.2c1.8-0.6,4.1,0.9,5.8,2.1c1.7,1.1,2.3,2.1,3.8,2.2
				c0.9,0.1,1.7-0.1,2.5-0.4c0.9-0.3,2.7-1,4.3-2.9c1.3-1.6,0.9-2.1,1.8-2.8c1.8-1.3,3.7,0.3,5.4-0.4c2.7-1,3.5-6.6,3.1-9.4
				C77.8,61.7,45,48.6,33.1,59.6z"/>
		</g>
	</g>
	<g>
		<g>
			<path class="st0" d="M65.3,51.2c8.2,3.4,23,1.3,26.6-2.1c0.6-0.5,1.9-1.8,1.5-3.1c-0.4-1.4-2.6-1.4-3.5-3.1
				c-0.9-1.6,0.2-3.4,0.4-3.6c1.2-1.8,3.1-1.7,5.1-3.8c0.6-0.7,2.5-2.6,1.6-3.9c-0.9-1.3-3.6-0.6-4.7-2c-1.2-1.3,0.2-3.4,1.1-5.1
				c1-1.6,1.9-2.3,1.8-3.5c-0.1-0.8-0.6-1.3-1.1-1.9c-0.6-0.6-1.9-1.9-4.5-2.7c-2.2-0.7-2.8-0.2-3.9-0.8c-2-1.1-0.6-2.9-1.8-4.2
				C82,9.7,75,10.4,71.7,11.3C57.1,15.6,49.1,44.5,65.3,51.2z"/>
		</g>
	</g>
	<g>
		<g>
			<path class="st0" d="M36.2,18.4c-4.1-7.1-15.6-10.6-19.7-8.1c-0.7,0.4-2.3,1.3-2.6,2.9c-0.4,1.8,1.1,2.6,0.9,4.9
				c-0.2,2.2-1.8,3.7-2.1,3.9c-1.8,1.5-3,0.7-5.5,2.3c-0.8,0.5-3,1.9-3.1,3.8c0,1.8,2.2,2.1,2.4,4.1c0.2,1.9-1.8,3.8-3.3,5.2
				c-1.5,1.4-2.5,1.8-3,3.3c-0.3,0.9-0.2,1.7-0.2,2.5C0.2,44,0.5,46,1.9,47.9c1.2,1.6,1.9,1.3,2.3,2.4c0.8,2-1.1,3.5-0.8,5.4
				c0.4,2.8,5.7,4.8,8.4,5C24.3,61.7,44.3,32.3,36.2,18.4z"/>
		</g>
	</g>
	<g>
		<g>
			
				<ellipse transform="matrix(0.3441 -0.9389 0.9389 0.3441 -4.0312 51.2724)" class="st1" cx="34.7" cy="28.5" rx="20.6" ry="20.5"/>
		</g>
		<g>
			<path class="st2" d="M27.3,48.7c-11.1-4.1-16.8-16.4-12.7-27.6C18.7,10,31,4.2,42.1,8.3s16.8,16.4,12.7,27.6
				C50.7,47,38.4,52.8,27.3,48.7z M41.5,10C31.3,6.3,20,11.6,16.3,21.8S17.8,43.3,27.9,47c10.1,3.7,21.4-1.6,25.2-11.8
				C56.8,25.1,51.6,13.7,41.5,10z"/>
		</g>
	</g>
	<g>
		<g>
			
				<ellipse transform="matrix(0.3441 -0.9389 0.9389 0.3441 -38.0146 57.9128)" class="st1" cx="22.4" cy="56.2" rx="15.2" ry="15.1"/>
		</g>
		<g>
			<path class="st2" d="M16.9,71.3C8.6,68.2,4.4,59,7.4,50.7S19.7,38,28,41.1c8.3,3,12.5,12.3,9.5,20.6S25.2,74.3,16.9,71.3z
				 M27.4,42.8c-7.3-2.7-15.5,1.1-18.2,8.5c-2.7,7.4,1.1,15.6,8.4,18.3c7.3,2.7,15.5-1.1,18.2-8.5C38.5,53.7,34.7,45.5,27.4,42.8z"
				/>
		</g>
	</g>
	<g>
		<g>
			
				<ellipse transform="matrix(0.3441 -0.9389 0.9389 0.3441 -12.0363 98.0773)" class="st1" cx="64.2" cy="57.7" rx="18.3" ry="18.2"/>
		</g>
		<g>
			<path class="st2" d="M57.6,75.7c-9.9-3.6-15-14.7-11.3-24.6S60.9,36,70.8,39.6c9.9,3.6,15,14.7,11.3,24.6S67.5,79.3,57.6,75.7z
				 M70.2,41.3C61.2,38,51.2,42.7,48,51.7s1.3,19,10.2,22.3s18.9-1.4,22.2-10.4S79.1,44.6,70.2,41.3z"/>
		</g>
	</g>
	<g>
		<g>
			<path class="st3" d="M23.7,15c-3.2-6.8-1.9-9.7-1.2-10.8C25.9-0.7,37.9,2,48.4,4.4c7.9,1.8,18.3,5,29.9,11.7
				c8.2,4.7,18.1,10.5,17.1,15.6c-0.6,3.1-5,4.9-8.6,5.9C77.6,61.6,71,79,70.3,81.4c-0.1,0.3-0.4,1.5-1.5,2.6c0,0-1,1-2.6,1.5
				c-6.1,1.8-52.8-15.8-58.7-20.6c-0.4-0.3-1.3-1.1-1.5-2.2c-0.3-1.5,0.7-2.8,0.9-3C8.2,57.5,13.4,43.9,23.7,15z"/>
		</g>
		<g>
			<path class="st4" d="M35.3,78.6C23.6,74.3,10,68.7,6.6,65.9c-0.4-0.3-1.7-1.4-2-3.1c-0.2-1.3,0.1-2.7,1.1-4.1l0,0
				c0.9-1.3,4.5-10,16.5-43.7c-2.3-5.2-2.6-9.1-0.8-11.7c4-5.7,16.4-2.9,27.4-0.4C59.5,5.4,69.4,9.3,79,14.8
				c8.9,5.2,19,11,17.8,17.1c-0.6,2.9-3.6,5.2-8.9,6.8c-7.7,20-15.5,40.6-16.3,43c-0.4,1.3-1,2.3-1.8,3.2c-0.1,0.1-1.3,1.3-3.2,1.9
				c-1.8,0.5-8.1,0.2-30.3-7.8C36,78.8,35.6,78.7,35.3,78.6z M61.1,9.6c-4.2-1.5-8.5-2.8-13-3.8C39.5,3.8,26.6,0.9,23.7,5
				c-1.2,1.7-0.7,5,1.3,9.3l0.3,0.5l-0.2,0.6C11.8,52.8,9,58.9,8.1,60.3l0,0.1c-0.5,0.7-0.7,1.4-0.6,1.9c0.1,0.7,0.7,1.2,1,1.4
				c2.7,2.1,15.1,7.5,28.9,12.6C54.3,82.4,64,84.6,65.8,84c1.2-0.4,2-1.1,2-1.1c0.7-0.8,1-1.6,1.1-1.9l0,0
				c0.6-2.1,5.4-14.8,16.6-43.9l0.3-0.7l0.7-0.2c4.5-1.3,7.2-3,7.5-4.8c0.8-4.1-9.6-10.1-16.4-14C72.2,14.2,66.7,11.7,61.1,9.6z"/>
		</g>
	</g>
</g>
</svg>
