<?xml version="1.0" encoding="utf-8"?>
<!-- Generator: Adobe Illustrator 22.0.0, SVG Export Plug-In . SVG Version: 6.00 Build 0)  -->
<svg version="1.1" id="Layer_1" xmlns="http://www.w3.org/2000/svg" xmlns:xlink="http://www.w3.org/1999/xlink" x="0px" y="0px"
	 viewBox="0 0 151.6 106.3" style="enable-background:new 0 0 151.6 106.3;" xml:space="preserve">
<style type="text/css">
	.st0{fill:#E8E3D1;}
	.st1{fill:#FFFBF0;}
	.st2{clip-path:url(#SVGID_2_);}
	.st3{fill:#FFFFFF;}
	.st4{fill:#636363;}
	.st5{fill:#64BF64;}
	.st6{fill:#E2E2E2;}
</style>
<g>
	<path class="st0" d="M151.6,46.7c-24,19.9-48,39.8-72,59.6L0,64.2c0-3.6,0-7.2,0-10.8c50.5-5.8,101.1-11.6,151.6-17.5
		C151.6,39.5,151.6,43.1,151.6,46.7z"/>
	<polygon class="st1" points="79.6,95.5 0,53.4 75.8,0 151.6,35.8 	"/>
	<g>
		<g>
			<defs>
				<path id="SVGID_1_" d="M114,51.8C114,51.7,114,51.8,114,51.8c-13.8-12.9-31.2-19.1-49.7-25.1c0,0,0,0,0,0
					c2.9-6.3,5.4-11.9,6.6-18.6c-0.3-0.3,0,0,0,0c23.8,0,51.6,17.5,65.4,29.8c4,3.5,0,0,0,0C130.7,44.1,120.2,45.8,114,51.8z"/>
			</defs>
			<clipPath id="SVGID_2_">
				<use xlink:href="#SVGID_1_"  style="overflow:visible;"/>
			</clipPath>
			<g class="st2">
				<path class="st3" d="M114,51.8C114,51.7,114,51.8,114,51.8c-13.8-12.9-31.2-19.1-49.7-25.1c0,0,0,0,0,0
					c2.9-6.3,5.4-11.9,6.6-18.6c-0.3-0.3,0,0,0,0c23.8,0,51.6,17.5,65.4,29.8c4,3.5,0,0,0,0C130.7,44.1,120.2,45.8,114,51.8z"/>
			</g>
			<g class="st2">
				<path class="st4" d="M103.2,22.9c-0.2-0.1-0.5-0.2-0.7-0.3c1.3-1.9,2.6-3.8,3.8-5.8c0.2,0.1,0.5,0.2,0.7,0.3
					C105.8,19,104.5,21,103.2,22.9z"/>
			</g>
			<g class="st2">
				<path class="st4" d="M97.7,20.4c-0.2-0.1-0.5-0.2-0.7-0.3c1.2-2,2.3-3.9,3.4-5.9c0.2,0.1,0.5,0.2,0.7,0.3
					C100,16.5,98.9,18.4,97.7,20.4z"/>
			</g>
			<g class="st2">
				<path class="st4" d="M92.1,18.3c-0.2-0.1-0.5-0.2-0.7-0.3c1-2,2.1-4,3-6c0.2,0.1,0.5,0.2,0.7,0.3C94.2,14.2,93.2,16.3,92.1,18.3
					z"/>
			</g>
			<g class="st2">
				<path class="st4" d="M86.5,16.4c-0.2-0.1-0.5-0.1-0.7-0.2c0.9-2,1.8-4,2.6-6c0.3,0.1,0.5,0.1,0.8,0.2
					C88.3,12.4,87.4,14.4,86.5,16.4z"/>
			</g>
			<g class="st2">
				<path class="st4" d="M80.8,14.8c-0.2-0.1-0.5-0.1-0.7-0.2c0.8-2,1.4-3.9,2.1-5.9c0.3,0.1,0.5,0.1,0.8,0.2
					C82.2,10.9,81.5,12.9,80.8,14.8z"/>
			</g>
			<g class="st2">
				<path class="st4" d="M75,13.6c-0.2,0-0.5-0.1-0.7-0.1c0.6-1.9,1.2-3.8,1.7-5.7c0.3,0,0.5,0.1,0.8,0.1
					C76.2,9.8,75.6,11.7,75,13.6z"/>
			</g>
			<g class="st2">
				<path class="st4" d="M107.9,25.2c0.2,0.1,0.5,0.2,0.7,0.4c1.4-1.8,2.8-3.7,4.2-5.6c-0.2-0.1-0.5-0.3-0.7-0.4
					C110.7,21.5,109.3,23.4,107.9,25.2z"/>
			</g>
			<g class="st2">
				<path class="st4" d="M113.1,28.1c0.2,0.1,0.4,0.3,0.7,0.4c1.6-1.8,3.1-3.5,4.6-5.3c-0.2-0.1-0.5-0.3-0.7-0.4
					C116.2,24.6,114.6,26.4,113.1,28.1z"/>
			</g>
			<g class="st2">
				<path class="st4" d="M118.2,31.4c0.2,0.1,0.4,0.3,0.7,0.4c1.7-1.6,3.4-3.3,5-5c-0.2-0.2-0.4-0.3-0.7-0.5
					C121.6,28.1,119.9,29.7,118.2,31.4z"/>
			</g>
			<g class="st2">
				<path class="st4" d="M123.1,34.8c0.2,0.2,0.4,0.3,0.6,0.5c1.8-1.5,3.7-3,5.4-4.6c-0.2-0.2-0.4-0.3-0.6-0.5
					C126.7,31.8,124.9,33.3,123.1,34.8z"/>
			</g>
			<g class="st2">
				<path class="st4" d="M127.8,38.5c0.2,0.2,0.4,0.3,0.6,0.5c2-1.4,3.9-2.8,5.7-4.3c-0.2-0.2-0.4-0.3-0.6-0.5
					C131.7,35.7,129.8,37.1,127.8,38.5z"/>
			</g>
			<g class="st2">
				<g>
					<path class="st5" d="M95.4,17.5c-3.4,2.4-7,4.8-10.6,7c3.6,1.4,7.2,2.9,10.7,4.3C95.6,24.9,95.6,21.2,95.4,17.5z"/>
				</g>
				<g>
					<path class="st5" d="M81.1,45.1c-1.7-0.7-3.3-1.5-4.9-2.3c4.2-6.2,8.5-12.3,12.5-18.6c1.5,0.6,3,1.2,4.5,1.8
						C89.3,32.4,85.2,38.8,81.1,45.1z"/>
				</g>
			</g>
		</g>
		<g>
			<path class="st6" d="M114,52.3c-0.1-0.1-0.2-0.2-0.3-0.3c-13.7-12.8-31-19.1-49.4-24.9c-0.1,0-0.3-0.1-0.5-0.1
				c2.6-6.7,5.7-12.2,6.7-19.3c0.1,0,0.3,0,0.4,0.1c27.2,3.1,47.3,13.6,66.6,30.8c0.1,0.1,0.2,0.2,0.3,0.3
				C130.1,43.6,121,46.6,114,52.3z M92.4,36.7c8.6,3.9,15.2,8.3,21.6,14.5c6.7-5.1,15-8.4,22.5-12.6C117.6,21.9,97.8,11.4,71.2,8.5
				c-0.9,6.6-3.4,12-6.3,18C74.1,29.6,83.8,32.8,92.4,36.7z"/>
		</g>
	</g>
</g>
</svg>
