<?xml version="1.0" encoding="utf-8"?>
<!-- Generator: Adobe Illustrator 22.0.0, SVG Export Plug-In . SVG Version: 6.00 Build 0)  -->
<svg version="1.1" id="Layer_2" xmlns="http://www.w3.org/2000/svg" xmlns:xlink="http://www.w3.org/1999/xlink" x="0px" y="0px"
	 viewBox="0 0 91.2 301.9" style="enable-background:new 0 0 91.2 301.9;" xml:space="preserve">
<style type="text/css">
	.st0{fill:#6D5341;}
	.st1{fill:#D8BDA3;}
	.st2{fill:#53DBDB;}
	.st3{fill:#4ABAA5;}
	.st4{fill:#4EA09D;}
	.st5{fill:#61AFAF;}
	.st6{fill:#51EDE1;}
	.st7{fill:#53DBD8;}
	.st8{fill:#DB947B;}
	.st9{fill:#FFFFFF;}
	.st10{fill:#428954;}
	.st11{fill:#604C3C;}
	.st12{fill:#B57E6D;}
</style>
<path class="st0" d="M23.6,73.5c0-0.9-0.1-2.3-0.7-3.7c-1.2-2.6-3.4-3.9-3.9-4.3C13.7,62.1,9.9,50.9,9.6,50C6,39,11,25.1,19.7,16.5
	C28.6,7.5,39.5,6,43.3,5.6c2.2,0.1,4-1.2,4.3-2.8c0.3-1.4-0.8-2.6-0.9-2.8c1.6-0.1,3.1,1.1,3.4,2.6c0.3,1.4-0.5,2.9-1.9,3.6
	c1.6,0.5,3.3,0.1,4.3-1.1c1.2-1.3,1.2-3.4,0.2-4.9c0.1,0.1,2.5,1.6,2.4,4.3c-0.1,1.4-0.8,2.4-1.1,2.8c3.7,0.6,9.8,2.3,15.5,6.9
	c9.9,8.1,13.7,21.1,12.3,31.6c-1.3,10-7.5,18.4-9.4,21c-0.2,0.3-1.3,1.1-2.1,2.6c-1,2-1,3.9-0.9,5.2c-0.5-0.2-1.9-0.8-2.8-2.4
	c-0.7-1.2-0.7-2.3-0.7-2.8c-0.2,0.8-0.6,1.9-1.3,3c-1.3,2.1-2.9,3.3-3.9,3.9c-10.2-0.2-20.3-0.5-30.5-0.7c-0.9-1.6-1.9-3.2-2.8-4.9
	C26.1,71.7,24.9,72.6,23.6,73.5z"/>
<polygon class="st1" points="67.4,301.9 85.7,301.9 73.2,176.2 59.9,186.9 "/>
<polygon class="st1" points="23.8,301.9 5.5,301.9 18,176.2 31.4,186.9 "/>
<g>
	<path class="st2" d="M18.2,89.2c0.1-2.7,0.6-6.6,2.7-10.1c5.1-8.7,15.5-8.7,24.7-8.7c8.8,0,17,0,23.1,6.4c3.1,3.2,4,9,4.3,12.4
		C54.7,89.2,36.5,89.2,18.2,89.2z"/>
	<path class="st3" d="M77.2,170.3c0,1.4,0.2,9.7-5.1,16.5c-5.3,6.8-12.1,6.9-13.3,6.9H32.4c-12.3,0-18.4-13.3-18.4-23.5
		C35.1,170.3,56.1,170.3,77.2,170.3z"/>
	<path class="st2" d="M14,170.3c0.2-4.7,0.4-8.6,0.7-13.4c20.6,0,41.3,0,61.9,0c0.2,4.4,0.4,9,0.6,13.4
		C56.1,170.3,35.1,170.3,14,170.3z"/>
	<path class="st3" d="M17.5,104.2c0.3-5.9,0.4-9.1,0.7-15c18.3,0,36.6,0,54.8,0c0.4,6.3,0.6,8.6,1.1,14.9
		C55.1,104.1,36.4,104.2,17.5,104.2z"/>
	<path class="st3" d="M14.7,156.9c0.1-2.2,0.2-4.3,0.3-6.5c19.9,0,40.9,0,61.3,0c0.1,2,0.2,4.5,0.3,6.5
		C55.6,156.9,35.5,156.9,14.7,156.9z"/>
	<path class="st4" d="M15.1,150.4c0.1-2.4,0.3-6.5,0.4-8.8c20.2,0,40.7,0,60.5,0c0.1,2.6,0.3,6.3,0.4,8.9
		C56.1,150.4,35.7,150.4,15.1,150.4z"/>
	<path class="st5" d="M15.5,141.6c0.2-3.2,0.3-5.6,0.5-8.7c19.6,0,39.8,0,59.6,0c0.1,3.1,0.3,5.6,0.4,8.7
		C55.8,141.6,36.2,141.6,15.5,141.6z"/>
	<path class="st6" d="M16,132.9c0.2-4.6,0.5-9.8,0.8-14.4c20.3,0,38.2,0,58.2,0c0.2,4.6,0.4,9.8,0.7,14.4
		C55.7,132.9,36,132.9,16,132.9z"/>
	<path class="st7" d="M16.7,118.5c0.1-2.7,0.3-6.1,0.5-8.8c19.3,0,37.4,0,57.2,0c0.1,2.6,0.3,6.2,0.5,8.8
		C55.2,118.5,36.3,118.5,16.7,118.5z"/>
	<path class="st6" d="M17.2,109.7c0.1-1.3,0.2-4.1,0.3-5.5c19.2,0,37.6-0.1,56.6-0.1c0.1,1.5,0.2,4.1,0.3,5.6
		C55.4,109.7,36.5,109.7,17.2,109.7z"/>
</g>
<polygon class="st1" points="13,137.1 0,137.1 7.6,87.6 18.5,85.7 "/>
<polygon class="st1" points="1.7,188.1 13,188.1 13,137.1 0,137.1 "/>
<polygon class="st1" points="78.2,137.1 91.2,137.1 83.6,87.6 72.7,85.7 "/>
<polygon class="st1" points="89.6,188.1 78.2,188.1 78.2,137.1 91.2,137.1 "/>
<circle class="st1" cx="45.8" cy="42.6" r="32.9"/>
<polygon class="st8" points="45.8,45.2 40.5,59.5 51.2,59.5 "/>
<circle class="st9" cx="30.6" cy="48" r="6.4"/>
<circle class="st9" cx="61.5" cy="48" r="6.4"/>
<path class="st1" d="M13.5,54.6c-3.6,0-6.6-3-6.6-6.6c0-3.6,3-6.6,6.6-6.6C13.5,45.9,13.5,50.2,13.5,54.6z"/>
<path class="st1" d="M77.7,54.6c3.6,0,6.6-3,6.6-6.6c0-3.6-3-6.6-6.6-6.6C77.7,45.9,77.7,50.2,77.7,54.6z"/>
<circle class="st10" cx="30.9" cy="48.6" r="3.9"/>
<circle class="st10" cx="61.5" cy="48.6" r="3.9"/>
<ellipse class="st11" cx="61.1" cy="35" rx="5.2" ry="3.1"/>
<ellipse class="st11" cx="30.9" cy="35" rx="5.2" ry="3.1"/>
<path class="st0" d="M27,23.4c3.6,3.7,6.6,4.4,8.6,4.5c3.4,0.1,6.2-1.8,9.5-0.4c1.2,0.5,2,1.2,2.4,1.7c0.2-0.1,1.4-0.6,1.7-1.9
	c0.3-1.3-0.7-2.9-2.4-3.4c1.2,0,3.1,0.1,5.2,0.7c3.8,1.2,5.1,3.1,9.2,4.9c1.3,0.6,3.3,1.3,6,1.7c-0.5-0.6-1.1-1.5-1.9-2.6
	c-1.1-1.6-1.7-2.4-1.5-2.6c0.3-0.4,3.1,0.8,4.9,2.8c1.9,2.2,1.4,4.2,2.1,8.6c0.2,1.4,1.3,4.7,3.4,11.4c0.7,2.4,1.7,5.5,3,9.2
	c1.4-3.4,3.8-10.4,2.8-19.1c-0.3-3.1-1.9-15.4-12.3-23.8c-11.3-9.1-27.7-9.1-39.5-2.2C15.3,20.3,12,33.3,11.6,34.8
	c-3.1,13,2.5,23.2,3.7,25.4c1-3.7,2-8.3,2.4-13.5c0.2-2.8-0.8-6,0.2-10.3c0.5-2.2,1.3-3.9,1.9-5.1c0.3,0.5,1.1,2,0.7,3.9
	c-0.2,1-0.6,1.8-0.9,2.2c1.5-1.5,3.6-4,5.2-7.5C26.1,27.6,26.7,25.2,27,23.4z"/>
<circle class="st12" cx="26" cy="60.3" r="0.7"/>
<circle class="st12" cx="31.2" cy="57.7" r="0.7"/>
<circle class="st12" cx="36.4" cy="60.3" r="0.7"/>
<circle class="st12" cx="66.6" cy="60.3" r="0.7"/>
<circle class="st12" cx="61.4" cy="57.7" r="0.7"/>
<circle class="st12" cx="56.2" cy="60.3" r="0.7"/>
</svg>
