<?xml version="1.0" encoding="utf-8"?>
<!-- Generator: Adobe Illustrator 22.0.0, SVG Export Plug-In . SVG Version: 6.00 Build 0)  -->
<svg version="1.1" id="Layer_1" xmlns="http://www.w3.org/2000/svg" xmlns:xlink="http://www.w3.org/1999/xlink" x="0px" y="0px"
	 viewBox="0 0 84.5 290.1" style="enable-background:new 0 0 84.5 290.1;" xml:space="preserve">
<style type="text/css">
	.st0{fill:#8E6549;}
	.st1{fill:#E5CBAC;}
	.st2{fill:#52DDB5;}
	.st3{fill:#4BBC93;}
	.st4{fill:#4FA382;}
	.st5{fill:#60B293;}
	.st6{fill:#50EFBD;}
	.st7{fill:#DB947B;}
	.st8{fill:#FFFFFF;}
	.st9{fill:#5F8280;}
	.st10{fill:#B57E6D;}
</style>
<path class="st0" d="M37.5,72c-0.4,0.4-5.3,4.2-11.2,2.5c-4.1-1.2-6.2-4.2-6.8-5.1c-0.5,0.2-4.2,1.2-7.5-1c-2.9-1.9-4.3-5.5-3.6-9.1
	c-1.6-2.4-4-6.8-4.8-12.7c-1.2-8.4,1.2-15,2.5-17.8c-0.2-1.7-0.8-9.1,4.3-15.6c7.3-9.3,19.3-8.1,20-8c0.8-0.9,4.6-4.7,10.8-5.1
	c7.3-0.4,12.1,4.4,12.7,5.1c2.4,0.1,7.8,0.8,13.1,4.6c7.1,5.1,9.3,12.3,9.8,14.4c1.6,3.6,4.3,11,3.2,20.3c-0.5,4.2-1.7,7.7-2.9,10.4
	c0.1,0.9,0.4,4.9-2.3,8.6c-2.8,3.8-6.9,4.6-7.7,4.7c-0.3,0.8-2,5.4-6.6,7.3c-4.6,1.9-10.1,0.6-14-3.3c-0.4,1.8-1.5,3.3-3,3.7
	C41.2,76.4,38.4,74.9,37.5,72z"/>
<polygon class="st1" points="62.5,290.1 79.4,290.1 67.8,168.7 55.5,179.1 "/>
<polygon class="st1" points="22,290.1 5.1,290.1 16.7,168.7 29.1,179.1 "/>
<g>
	<path class="st2" d="M16.8,84.6c0.1-2.6,0.6-6.3,2.5-9.8c4.7-8.5,14.3-8.4,22.9-8.4c8.2,0,15.8,0,21.4,6.1c2.9,3.1,3.7,8.7,4,12
		C50.7,84.6,33.8,84.6,16.8,84.6z"/>
	<path class="st3" d="M71.5,163c0,1.4,0.2,9.4-4.7,16c-4.9,6.6-11.2,6.7-12.3,6.7H30c-11.4,0-17-12.8-17-22.7
		C32.5,163,52,163,71.5,163z"/>
	<path class="st2" d="M13,163c0.2-4.6,0.4-8.3,0.6-12.9c19.1,0,38.2,0,57.4,0c0.2,4.2,0.3,8.7,0.5,12.9C52,163,32.5,163,13,163z"/>
	<path class="st3" d="M16.2,99.1c0.3-5.7,0.4-8.8,0.7-14.5c16.9,0,33.9,0,50.8,0c0.4,6.1,0.6,8.3,1,14.4C51,99,33.7,99.1,16.2,99.1z
		"/>
	<path class="st3" d="M13.6,150.1c0.1-2.1,0.2-4.1,0.3-6.3c18.5,0,37.9,0,56.8,0c0.1,1.9,0.2,4.3,0.2,6.3
		C51.5,150.1,32.9,150.1,13.6,150.1z"/>
	<path class="st4" d="M14,143.8c0.1-2.3,0.3-6.2,0.4-8.5c18.7,0,37.7,0,56,0c0.1,2.5,0.2,6.1,0.3,8.6C52,143.8,33,143.8,14,143.8z"
		/>
	<path class="st5" d="M14.4,135.3c0.2-3,0.3-5.4,0.4-8.4c18.1,0,36.9,0,55.2,0c0.1,3,0.3,5.4,0.4,8.4
		C51.7,135.3,33.6,135.3,14.4,135.3z"/>
	<path class="st6" d="M14.8,126.8c0.2-4.4,0.5-9.5,0.7-13.9c18.8,0,35.4,0,53.9,0c0.2,4.4,0.4,9.4,0.6,13.9
		C51.6,126.8,33.3,126.8,14.8,126.8z"/>
	<path class="st2" d="M15.5,113c0.1-2.7,0.3-5.9,0.4-8.5c17.9,0,34.6,0,53,0c0.1,2.5,0.3,6,0.4,8.5C51.1,113,33.6,113,15.5,113z"/>
	<path class="st6" d="M15.9,104.4c0.1-1.3,0.2-4,0.3-5.3C34,99.1,51.1,99,68.6,99c0.1,1.5,0.2,4,0.3,5.4
		C51.4,104.4,33.8,104.4,15.9,104.4z"/>
</g>
<polygon class="st1" points="12,130.9 0,130.9 7,83.1 17.2,81.3 "/>
<polygon class="st1" points="1.5,180.2 12,180.2 12,130.9 0,130.9 "/>
<polygon class="st1" points="72.5,130.9 84.5,130.9 77.5,83.1 67.4,81.3 "/>
<polygon class="st1" points="83,180.2 72.5,180.2 72.5,130.9 84.5,130.9 "/>
<circle class="st1" cx="42.7" cy="40.2" r="34.2"/>
<polygon class="st7" points="42.7,42.9 37.1,57.8 48.2,57.8 "/>
<circle class="st8" cx="26.9" cy="45.9" r="6.7"/>
<circle class="st8" cx="58.9" cy="45.9" r="6.7"/>
<path class="st1" d="M9.1,52.7c-3.7,0-6.8-3.1-6.8-6.8s3.1-6.8,6.8-6.8C9.1,43.6,9.1,48.2,9.1,52.7z"/>
<path class="st1" d="M75.9,52.7c3.7,0,6.8-3.1,6.8-6.8s-3.1-6.8-6.8-6.8C75.9,43.6,75.9,48.2,75.9,52.7z"/>
<circle class="st9" cx="27.2" cy="46.5" r="4.1"/>
<circle class="st9" cx="58.9" cy="46.5" r="4.1"/>
<ellipse class="st0" cx="58.6" cy="32.4" rx="5.4" ry="3.3"/>
<ellipse class="st0" cx="27.2" cy="32.4" rx="5.4" ry="3.3"/>
<circle class="st10" cx="22.1" cy="58.6" r="0.7"/>
<circle class="st10" cx="27.5" cy="55.9" r="0.7"/>
<circle class="st10" cx="32.8" cy="58.6" r="0.7"/>
<circle class="st10" cx="64.3" cy="58.6" r="0.7"/>
<circle class="st10" cx="58.9" cy="55.9" r="0.7"/>
<circle class="st10" cx="53.5" cy="58.6" r="0.7"/>
<path class="st0" d="M23.4,20.2c3.6,2.6,6.5,3.2,8.6,3.3c4.4,0.3,7.1-1.7,12-0.7c2,0.4,3.5,1.1,4.4,1.7c0.3-0.3,0.7-0.8,0.8-1.7
	c0.3-1.9-1.3-3.2-1.4-3.3c1.1,0.1,2.7,0.3,4.4,1.1c2.5,1.2,2.4,2.3,4.7,3.7c2.7,1.7,3.7,0.8,8.7,2.8c2.2,0.9,3.3,1.3,4,2.2
	c2.1,2.8,0.7,7.2,0.3,8.6c-0.5,1.7-1.3,2.9-1.8,3.7c0.5,0.1,1.3,0.2,2.2-0.1c1.9-0.6,2.7-2.5,2.8-2.8c0.2,2.3-0.3,4-0.8,5.1
	c-0.9,1.7-1.9,2.1-2.8,3.9c-0.9,1.8-1,3.6-1,5c0.2-0.5,0.6-1.3,1.5-2.1c1.3-1.1,2.7-1.2,3.2-1.2c-0.1,0.8-0.1,1.6,0,2.6
	c0.2,2.3,0.9,4.1,1.5,5.3c1-2.4,2.2-6,2.8-10.5c0.5-3.8,2-15.8-5.5-26.8C61.9,5,43.7,4.7,42.9,4.7c-16.4,0-26.2,11.4-27.6,13.1
	c-1.1,1.3-9.9,12.3-8.2,27.4c0.6,5.2,2.3,9.3,3.6,11.9c0.7-2,1.4-5,1.4-8.7c0-2.1-0.3-4-0.7-5.5c0.3,0.1,1.3,0.5,2.1,1.5
	c0.8,1.2,0.7,2.5,0.7,2.8c0.4-1,1-2.8,0.8-5.3c-0.2-2.3-1-4.1-1.5-5c0.6-1,1.7-2.5,3-4.1c1.6-1.9,2.6-2.8,3.3-3.6
	C21.2,27.6,22.8,24.9,23.4,20.2z"/>
</svg>
