<?xml version="1.0" encoding="utf-8"?>
<!-- Generator: Adobe Illustrator 22.0.0, SVG Export Plug-In . SVG Version: 6.00 Build 0)  -->
<svg version="1.1" id="Layer_1" xmlns="http://www.w3.org/2000/svg" xmlns:xlink="http://www.w3.org/1999/xlink" x="0px" y="0px"
	 viewBox="0 0 330.3 330.3" style="enable-background:new 0 0 330.3 330.3;" xml:space="preserve">
<style type="text/css">
	.st0{clip-path:url(#SVGID_2_);fill:#D36F62;}
	.st1{clip-path:url(#SVGID_2_);fill:#D67676;stroke:#C15B5B;stroke-width:20;stroke-miterlimit:10;}
	.st2{clip-path:url(#SVGID_2_);}
	.st3{fill:#E83631;}
	.st4{fill:#B72C29;}
	.st5{fill:none;stroke:#F4D090;stroke-width:5;stroke-miterlimit:10;}
</style>
<g>
	<defs>
		<circle id="SVGID_1_" cx="164.9" cy="165.2" r="162.7"/>
	</defs>
	<clipPath id="SVGID_2_">
		<use xlink:href="#SVGID_1_"  style="overflow:visible;"/>
	</clipPath>
	<circle class="st0" cx="164.9" cy="165.2" r="162.7"/>
	<path class="st1" d="M354.8,107.9c-19,37.1-41.4,54.5-58.7,63.6c-24.1,12.7-34.4,7.1-94.6,22c-40.9,10.1-61.7,15.5-77.7,30.2
		c-22.4,20.7-31.8,49.2-35.3,59.7c-5.3,16.2-7.3,30.5-8,40.8c-26.5-12.8-53-25.6-79.5-38.4c0-22.9,3.9-55.3,21.9-87.7
		C44.4,160,76.4,138,87.4,130.9c28.7-18.3,40.6-14.9,56.4-33.6c16.5-19.5,19.7-42.1,22.4-61.8c2.2-15.5,3.9-42.4-5.3-75.3
		c29.4,1.6,58.9,3.2,88.3,4.9c4.7,13.3,13.6,44.7,5.1,83.3c-7,31.5-22.5,53.2-31.4,63.9c5.9,1.7,23.9,6.2,42.9-2.3
		c21.5-9.7,35.7-32.2,37-57.9C320.2,70.7,337.5,89.3,354.8,107.9z"/>
	<g class="st2">
		<path class="st3" d="M182.4,171.1c-2.2-3-5-12.8-0.5-20.4c3.7-6.3,11-8.5,14.1-5.5c0.7,0.6,2,2,1.7,3.1c-0.3,1-1.9,0.7-3.2,1.7
			c-3.5,2.6-5.1,5-6.2,7.8c-1.2,3.1-1.2,3.1-2.3,11.7c-0.1,1-0.5,2.8-1.3,3.1C183.8,173,182.8,171.6,182.4,171.1z"/>
	</g>
	<g class="st2">
		<path class="st4" d="M191.9,147.1c0.2,0,0.4,0.2,0.4,0.5c0.1,0.4-0.1,0.8-0.4,0.9c-1.2,0.5-4.1,2-6.2,6c-2.4,4.7-1.9,9.4-1.7,10.8
			c0.1,0.4-0.1,0.8-0.4,0.9c-0.3,0.1-0.6-0.1-0.7-0.5c-0.2-1.5-0.8-6.7,1.9-11.9c2.3-4.4,5.6-6.1,6.9-6.6
			C191.7,147.1,191.8,147.1,191.9,147.1z"/>
	</g>
	<g class="st2">
		<path class="st3" d="M168.6,113.3c3.1-3,13.2-7.2,20.6-1.7c6.2,4.6,8,14.1,4.8,18.3c-0.7,0.9-2.1,2.8-3.2,2.5
			c-1-0.3-0.6-2.4-1.5-4.1c-2.4-4.4-4.7-6.5-7.5-7.9c-3.1-1.5-3.1-1.5-11.6-2.4c-1-0.1-2.8-0.5-3.1-1.6
			C166.7,115.3,168.1,113.9,168.6,113.3z"/>
	</g>
	<g class="st2">
		<path class="st4" d="M192.4,124.7c0,0.3-0.3,0.5-0.5,0.6c-0.4,0.1-0.8-0.1-0.9-0.5c-0.4-1.5-1.8-5.3-5.7-7.9
			c-4.6-3-9.4-2.1-10.8-1.7c-0.4,0.1-0.8-0.1-0.9-0.5c-0.1-0.4,0.1-0.8,0.5-0.9c1.5-0.4,6.8-1.4,11.9,1.9c4.3,2.8,5.9,7,6.3,8.7
			C192.4,124.5,192.4,124.6,192.4,124.7z"/>
	</g>
	<g class="st2">
		<path class="st3" d="M50.9,302.2c-2.8-3.3-6.3-13.6-0.3-20.6c5-5.8,14.6-7,18.6-3.6c0.9,0.7,2.6,2.3,2.2,3.4
			c-0.4,1-2.5,0.5-4.2,1.3c-4.6,2.1-6.8,4.3-8.4,7c-1.7,3-1.7,3-3.2,11.4c-0.2,1-0.7,2.7-1.8,3C52.7,304.3,51.4,302.7,50.9,302.2z"
			/>
	</g>
	<g class="st2">
		<path class="st4" d="M63.8,279.2c0.3,0.1,0.5,0.3,0.6,0.6c0.1,0.4-0.2,0.8-0.6,0.9c-1.5,0.3-5.4,1.4-8.2,5.2
			c-3.3,4.4-2.7,9.2-2.4,10.6c0.1,0.4-0.2,0.8-0.6,0.9c-0.4,0.1-0.8-0.2-0.9-0.6c-0.3-1.5-0.9-6.9,2.7-11.8c3.1-4.1,7.4-5.4,9.1-5.7
			C63.6,279.2,63.7,279.2,63.8,279.2z"/>
	</g>
	<g class="st2">
		<path class="st3" d="M314.6,131.9c-2.8-3.3-6.3-13.6-0.3-20.6c5-5.8,14.6-7,18.6-3.6c0.9,0.7,2.6,2.3,2.2,3.4
			c-0.4,1-2.5,0.5-4.2,1.3c-4.6,2.1-6.8,4.3-8.4,7c-1.7,3-1.7,3-3.2,11.4c-0.2,1-0.7,2.7-1.8,3C316.4,134,315.1,132.5,314.6,131.9z"
			/>
	</g>
	<g class="st2">
		<path class="st4" d="M327.5,109c0.3,0.1,0.5,0.3,0.6,0.6c0.1,0.4-0.2,0.8-0.6,0.9c-1.5,0.3-5.4,1.4-8.2,5.2
			c-3.3,4.4-2.7,9.2-2.4,10.6c0.1,0.4-0.2,0.8-0.6,0.9c-0.4,0.1-0.8-0.2-0.9-0.6c-0.3-1.5-0.9-6.9,2.7-11.8c3.1-4.1,7.4-5.4,9.1-5.7
			C327.3,108.9,327.4,108.9,327.5,109z"/>
	</g>
	<g class="st2">
		<path class="st3" d="M248.3,132.9c-0.1,4.3-4.5,14.3-13.7,15.4c-7.6,0.9-15.5-4.7-16.2-9.9c-0.1-1.1-0.4-3.5,0.6-4
			c0.9-0.5,2.1,1.3,4,1.9c4.8,1.5,7.9,1.4,10.9,0.5c3.2-1,3.2-1,10.1-6.3c0.8-0.6,2.4-1.5,3.4-1
			C248.4,130.2,248.3,132.2,248.3,132.9z"/>
	</g>
	<g class="st2">
		<path class="st4" d="M223.3,141.2c-0.2-0.2-0.2-0.6,0-0.8c0.2-0.4,0.7-0.5,1-0.3c1.3,0.8,5,2.6,9.6,1.7c5.4-1,8.2-5,8.9-6.2
			c0.2-0.4,0.7-0.5,1-0.2c0.4,0.2,0.5,0.7,0.2,1c-0.8,1.3-4,5.7-9.9,6.9c-5.1,1-9.1-1-10.6-1.9C223.5,141.3,223.4,141.3,223.3,141.2
			z"/>
	</g>
	<g class="st2">
		<path class="st3" d="M298.7,147c-1.6,2.7-9,7.8-18,5.6c-7.5-1.8-12.9-7.8-11.8-11.4c0.2-0.8,0.8-2.4,1.9-2.4c1,0,1.6,1.5,3.1,2.5
			c4,2.5,6.9,3.4,10,3.7c3.4,0.3,3.4,0.3,11.5-0.9c1-0.2,2.7-0.2,3.5,0.4C299.7,145.3,298.9,146.6,298.7,147z"/>
	</g>
	<g class="st2">
		<path class="st4" d="M272.5,144.5c-0.1-0.2,0-0.4,0.2-0.5c0.3-0.2,0.8-0.1,1,0.2c1,0.9,3.8,3.2,8.4,4.1c5.4,1,9.4-0.6,10.4-1.2
			c0.3-0.2,0.8-0.1,1,0.2c0.3,0.3,0.2,0.6-0.1,0.7c-1.2,0.6-5.6,2.4-11.6,1.3c-5.1-1-8.2-3.5-9.3-4.5
			C272.6,144.7,272.6,144.6,272.5,144.5z"/>
	</g>
	<g class="st2">
		<path class="st3" d="M225,39.8c-3.7-2.3-10.2-11-6.6-19.6c3-7.1,11.7-11.1,16.6-9.1c1.1,0.4,3.2,1.4,3.2,2.5
			c0,1.1-2.2,1.2-3.6,2.5c-3.7,3.4-5.2,6.2-5.8,9.2c-0.7,3.3-0.7,3.3,0.5,11.9c0.1,1,0.2,2.8-0.8,3.4
			C227.4,41.3,225.6,40.2,225,39.8z"/>
	</g>
	<g class="st2">
		<path class="st4" d="M230.2,14c0.3,0,0.6,0.1,0.7,0.4c0.2,0.4,0.1,0.8-0.3,1c-1.4,0.8-4.7,3-6.2,7.4c-1.8,5.2,0.3,9.6,1,10.8
			c0.2,0.4,0.1,0.8-0.3,1c-0.4,0.2-0.8,0.1-1-0.3c-0.7-1.4-3-6.3-1.1-12c1.7-4.9,5.4-7.4,6.9-8.3C230,14.1,230.1,14,230.2,14z"/>
	</g>
	<g class="st2">
		<path class="st3" d="M176.7,74.4c3.7,2.3,10.2,11.1,6.5,19.6c-3,7.1-11.8,11.1-16.6,9c-1.1-0.4-3.2-1.4-3.2-2.5
			c0-1.1,2.2-1.2,3.6-2.5c3.7-3.4,5.2-6.2,5.9-9.2c0.7-3.3,0.7-3.3-0.4-11.9c-0.1-1-0.1-2.8,0.8-3.4C174.3,72.9,176.1,74,176.7,74.4
			z"/>
	</g>
	<g class="st2">
		<path class="st4" d="M171.3,100.2c-0.3,0-0.6-0.1-0.7-0.4c-0.2-0.4-0.1-0.8,0.3-1c1.4-0.8,4.8-3,6.3-7.4c1.8-5.2-0.2-9.6-0.9-10.8
			c-0.2-0.4-0.1-0.8,0.3-1c0.4-0.2,0.8-0.1,1,0.3c0.7,1.4,3,6.3,1,12.1c-1.7,4.9-5.4,7.4-7,8.2C171.5,100.1,171.4,100.2,171.3,100.2
			z"/>
	</g>
	<g class="st2">
		<path class="st3" d="M144.8,165.1c3.8-2.1,14.6-3.5,20.3,3.8c4.7,6.1,3.9,15.7-0.2,18.9c-0.9,0.7-2.8,2.1-3.8,1.5
			c-0.9-0.6,0-2.5-0.4-4.4c-1.2-4.9-2.8-7.5-5.2-9.6c-2.6-2.2-2.6-2.2-10.6-5.4c-1-0.4-2.5-1.2-2.6-2.4
			C142.4,166.5,144.2,165.5,144.8,165.1z"/>
	</g>
	<g class="st2">
		<path class="st4" d="M164.7,182.4c-0.1,0.3-0.4,0.4-0.7,0.4c-0.4,0-0.7-0.3-0.7-0.8c0-1.6-0.3-5.6-3.4-9.1
			c-3.6-4.1-8.5-4.5-9.9-4.5c-0.4,0-0.7-0.3-0.7-0.8c0-0.4,0.3-0.7,0.8-0.7c1.6,0,7,0.5,11,5c3.4,3.9,3.8,8.4,3.8,10.1
			C164.8,182.2,164.8,182.3,164.7,182.4z"/>
	</g>
	<g class="st2">
		<path class="st3" d="M20.8,268.4c2.7,1.7,7.6,9.4,5.3,18.3c-2,7.4-8.1,12.7-11.6,11.4c-0.8-0.3-2.3-0.9-2.3-2c0-1,1.6-1.5,2.5-3
			c2.6-3.9,3.5-6.8,3.9-9.9c0.4-3.4,0.4-3.4-0.7-11.6c-0.1-1-0.2-2.7,0.5-3.5C19,267.3,20.3,268.1,20.8,268.4z"/>
	</g>
	<g class="st2">
		<path class="st4" d="M17.7,294.5c-0.2,0.1-0.4,0-0.5-0.3c-0.2-0.3-0.1-0.8,0.2-1c1-1,3.3-3.7,4.3-8.2c1.1-5.3-0.5-9.4-1-10.5
			c-0.2-0.3-0.1-0.8,0.2-1c0.3-0.2,0.6-0.2,0.7,0.1c0.6,1.2,2.3,5.8,1.1,11.7c-1.1,5.1-3.7,8.1-4.8,9.1
			C17.9,294.5,17.8,294.5,17.7,294.5z"/>
	</g>
	<g class="st2">
		<path class="st3" d="M83.1,187.3c-1.1,4.2-7.5,13-16.7,12.1c-7.7-0.8-14.1-7.9-13.6-13.2c0.1-1.1,0.4-3.5,1.5-3.8
			c1-0.3,1.8,1.8,3.5,2.7c4.4,2.5,7.4,3.1,10.5,2.8c3.4-0.3,3.4-0.3,11.2-4c1-0.4,2.6-1,3.5-0.2C83.8,184.6,83.3,186.5,83.1,187.3z"
			/>
	</g>
	<g class="st2">
		<path class="st4" d="M56.9,189.9c-0.1-0.3-0.1-0.6,0.2-0.8c0.3-0.3,0.8-0.3,1.1,0c1.1,1.1,4.3,3.6,9,3.8c5.5,0.2,9.1-3.1,10.1-4.1
			c0.3-0.3,0.8-0.3,1.1,0c0.3,0.3,0.3,0.8,0,1.1c-1.1,1.1-5.1,4.7-11.2,4.6c-5.2-0.2-8.7-3-9.9-4.2C57,190.1,56.9,190,56.9,189.9z"
			/>
	</g>
	<g class="st2">
		<path class="st3" d="M172.2,141.3c-0.9,3-6.9,9.1-16.1,8.1c-7.6-0.9-14.4-6.4-14.1-10.2c0.1-0.8,0.2-2.5,1.3-2.7
			c1-0.2,1.9,1.4,3.6,2.1c4.5,2,7.5,2.6,10.6,2.5c3.3-0.1,3.3-0.1,10.9-2.4c0.9-0.3,2.6-0.6,3.5,0
			C172.8,139.4,172.3,140.8,172.2,141.3z"/>
	</g>
	<g class="st2">
		<path class="st4" d="M146.3,142.1c-0.1-0.2-0.1-0.4,0.1-0.6c0.3-0.2,0.7-0.2,1.1,0c1.2,0.8,4.4,2.8,9.1,3.1
			c5.4,0.4,8.9-1.9,9.8-2.6c0.3-0.2,0.7-0.2,1.1,0c0.3,0.2,0.3,0.6,0.1,0.8c-1,0.8-4.9,3.2-10.9,2.8c-5.1-0.3-8.7-2.5-10.1-3.5
			C146.4,142.3,146.4,142.2,146.3,142.1z"/>
	</g>
	<g class="st2">
		<path class="st3" d="M66.7,230.9c-0.6-3.1,2-10.5,10.8-11.7c7.3-1,16,2.6,17.5,6.4c0.3,0.8,1,2.5,0.1,2.9
			c-0.8,0.4-2.3-0.9-4.2-1.2c-5-0.9-8-0.7-10.7,0.1c-3,0.9-3,0.9-8.8,5c-0.7,0.5-2.1,1.2-3.1,0.9C67.1,232.9,66.8,231.4,66.7,230.9z
			"/>
	</g>
	<g class="st2">
		<path class="st4" d="M89.8,223.8c0.2,0.2,0.3,0.4,0.2,0.6c-0.2,0.3-0.6,0.4-1,0.2c-1.5-0.5-5.3-1.7-9.7-0.8c-5.1,1-7.2,4-7.7,4.9
			c-0.2,0.3-0.6,0.4-1,0.2c-0.4-0.1-0.6-0.5-0.4-0.7c0.6-1,2.9-4.3,8.6-5.4c4.8-0.9,9.1,0.3,10.7,0.9
			C89.6,223.7,89.7,223.7,89.8,223.8z"/>
	</g>
	<g class="st2">
		<path class="st3" d="M109.1,136.1c3.4,2.6,9.2,11.9,4.8,20.1c-3.6,6.8-12.7,10-17.4,7.6c-1-0.5-3.1-1.7-2.9-2.8
			c0.1-1,2.3-1,3.8-2.2c4-3.1,5.7-5.7,6.6-8.6c1-3.3,1-3.3,0.6-11.9c0-1,0.1-2.8,1.1-3.3C106.9,134.5,108.5,135.7,109.1,136.1z"/>
	</g>
	<g class="st2">
		<path class="st4" d="M101.6,161.3c-0.3,0-0.6-0.2-0.7-0.4c-0.2-0.4,0-0.8,0.4-1c1.4-0.6,5-2.6,6.9-6.8c2.2-5,0.6-9.6,0-10.9
			c-0.2-0.4,0-0.8,0.4-1c0.4-0.2,0.8,0,1,0.4c0.6,1.4,2.4,6.5-0.1,12.1c-2.1,4.7-6.1,6.9-7.7,7.6
			C101.8,161.3,101.7,161.3,101.6,161.3z"/>
	</g>
	<g class="st2">
		<path class="st3" d="M215.4,69.2c1.8,2.3,4.5,11.2,1.4,19.6c-2.6,7-8,10.8-10.6,8.6c-0.5-0.5-1.7-1.5-1.5-2.6
			c0.1-1,1.4-1.1,2.4-2.4c2.5-3.3,3.7-6,4.4-9c0.8-3.3,0.8-3.3,1.1-11.8c0-1,0.2-2.8,0.9-3.4C214.3,67.7,215.1,68.8,215.4,69.2z"/>
	</g>
	<g class="st2">
		<path class="st4" d="M209.4,94.6c-0.2,0-0.3-0.1-0.4-0.4c-0.1-0.4,0.1-0.8,0.3-1c0.9-0.7,3.1-2.9,4.5-7.2c1.6-5.1,1-9.5,0.7-10.8
			c-0.1-0.4,0.1-0.8,0.3-1c0.2-0.2,0.5,0,0.5,0.3c0.3,1.4,1,6.3-0.8,12c-1.5,4.8-4,7.2-4.9,8C209.5,94.6,209.5,94.6,209.4,94.6z"/>
	</g>
	<g class="st2">
		<circle class="st3" cx="198.6" cy="47.6" r="10.6"/>
	</g>
	<g class="st2">
		<path class="st4" d="M200.2,40.5c0.6,0.1,1.1,0.3,1.6,0.5c2.9,1.4,4.3,5,3.2,8.4c-0.2,0.6-0.9,1-1.5,0.8c-0.6-0.2-1-0.9-0.8-1.5
			c0.7-2.2-0.1-4.6-2-5.5c-0.9-0.4-1.9-0.5-3-0.1c-1.3,0.5-2.3,1.5-2.8,2.7c-0.9,2.1,0,4.6,2,5.8c0.6,0.3,0.8,1.1,0.4,1.7
			c-0.3,0.6-1.1,0.8-1.7,0.4c-3-1.8-4.3-5.6-3-8.8c0.8-1.8,2.3-3.4,4.2-4.1C198,40.4,199.1,40.3,200.2,40.5z"/>
	</g>
	<g class="st2">
		
			<ellipse transform="matrix(0.1702 -0.9854 0.9854 0.1702 -212.8672 247.6775)" class="st3" cx="40.6" cy="250.2" rx="10.6" ry="10.7"/>
	</g>
	<g class="st2">
		<path class="st4" d="M47.8,251.9c-0.1,0.6-0.3,1.1-0.5,1.6c-1.5,2.9-5.2,4.2-8.5,3c-0.6-0.2-1-0.9-0.7-1.5c0.2-0.6,0.9-1,1.6-0.7
			c2.2,0.8,4.6-0.1,5.5-1.9c0.4-0.9,0.5-1.9,0.1-2.9c-0.5-1.3-1.5-2.4-2.7-2.9c-2.1-0.9-4.7-0.1-5.9,1.9c-0.4,0.6-1.1,0.7-1.7,0.4
			c-0.6-0.4-0.8-1.1-0.4-1.7c1.9-3,5.7-4.2,8.9-2.8c1.8,0.8,3.4,2.4,4.1,4.3C47.9,249.7,48,250.9,47.8,251.9z"/>
	</g>
	<g class="st2">
		
			<ellipse transform="matrix(0.6059 -0.7956 0.7956 0.6059 -21.8575 266.8977)" class="st3" cx="258.4" cy="155.5" rx="9.2" ry="7.2"/>
	</g>
	<g class="st2">
		<path class="st4" d="M262.5,150.6c0.3,0.2,0.6,0.5,0.8,0.9c1.2,2,0.5,5.1-1.7,7.2c-0.4,0.4-1,0.5-1.3,0.1c-0.3-0.3-0.2-1,0.2-1.4
			c1.4-1.4,1.9-3.5,1.2-4.7c-0.4-0.6-1-0.9-1.8-0.9c-1,0-2.1,0.4-2.9,1.2c-1.5,1.3-2,3.5-1.3,5c0.2,0.4,0,1-0.5,1.4
			c-0.5,0.3-1,0.2-1.2-0.2c-1.1-2.3-0.2-5.5,2-7.5c1.3-1.1,2.9-1.8,4.4-1.8C261.2,149.9,261.9,150.2,262.5,150.6z"/>
	</g>
	<g class="st2">
		
			<ellipse transform="matrix(0.9999 -1.214364e-02 1.214364e-02 0.9999 -1.4626 3.5979)" class="st3" cx="295.5" cy="122.2" rx="6.6" ry="13.2"/>
	</g>
	<g class="st2">
		<path class="st4" d="M295.4,131.3c-0.4,0-0.7-0.1-1.1-0.3c-2-1.2-3.2-5.3-2.9-9.6c0.1-0.8,0.4-1.4,0.8-1.2
			c0.4,0.1,0.7,0.9,0.6,1.7c-0.2,2.8,0.6,5.6,1.8,6.3c0.6,0.4,1.2,0.2,1.8-0.5c0.7-0.8,1.3-2.3,1.4-3.9c0.3-2.8-0.5-5.7-1.9-6.7
			c-0.4-0.3-0.6-1.2-0.4-1.9c0.1-0.8,0.6-1.1,1-0.8c2.1,1.6,3.3,6,2.8,10.2c-0.3,2.4-1,4.6-2.1,5.9
			C296.7,130.9,296.1,131.3,295.4,131.3z"/>
	</g>
	<g class="st2">
		
			<ellipse transform="matrix(0.4777 -0.8785 0.8785 0.4777 -98.4685 211.0219)" class="st3" cx="128.2" cy="188.3" rx="11.8" ry="10.7"/>
	</g>
	<g class="st2">
		<path class="st4" d="M134.5,192.2c-0.3,0.6-0.7,1.1-1.1,1.5c-2.5,2.6-6.5,2.8-9.3,0.6c-0.5-0.4-0.6-1.2-0.1-1.8
			c0.4-0.6,1.2-0.7,1.8-0.3c1.8,1.5,4.4,1.3,6-0.3c0.7-0.8,1.2-1.9,1.2-3c0-1.5-0.6-2.9-1.5-3.8c-1.7-1.6-4.4-1.5-6.3,0.2
			c-0.5,0.5-1.3,0.4-1.7-0.1c-0.4-0.5-0.3-1.4,0.2-1.9c2.9-2.6,7-2.7,9.6-0.3c1.5,1.4,2.3,3.5,2.3,5.7
			C135.3,190,135,191.2,134.5,192.2z"/>
	</g>
	<g class="st2">
		
			<ellipse transform="matrix(0.7959 -0.6054 0.6054 0.7959 -54.2724 165.7392)" class="st3" cx="218.7" cy="163.4" rx="9.8" ry="10.7"/>
	</g>
	<g class="st2">
		<path class="st4" d="M213.1,167.1c-0.3-0.5-0.6-1-0.8-1.5c-1.2-3,0.1-6.5,3-7.9c0.6-0.3,1.3,0,1.6,0.6c0.3,0.6,0.1,1.3-0.4,1.6
			c-1.9,1-2.8,3.2-2,5.1c0.4,0.9,1.1,1.7,2.1,2.1c1.2,0.6,2.6,0.6,3.8,0.1c2-0.8,2.9-3.1,2.2-5.4c-0.2-0.6,0.1-1.3,0.7-1.4
			c0.6-0.1,1.3,0.3,1.4,0.9c1,3.4-0.4,6.8-3.4,8.1c-1.7,0.7-3.8,0.6-5.6-0.2C214.6,168.7,213.7,168,213.1,167.1z"/>
	</g>
	<g class="st2">
		
			<ellipse transform="matrix(0.1819 -0.9833 0.9833 0.1819 123.8889 265.8597)" class="st3" cx="221.7" cy="58.5" rx="9.2" ry="6.8"/>
	</g>
	<g class="st2">
		<path class="st4" d="M217.2,57.3c0.1-0.5,0.2-1,0.4-1.4c1.1-2.6,3.5-3.8,5.6-2.9c0.4,0.2,0.6,0.8,0.4,1.3c-0.2,0.5-0.6,0.9-1,0.7
			c-1.4-0.6-3,0.2-3.6,1.8c-0.3,0.8-0.4,1.7-0.2,2.5c0.2,1.1,0.9,2,1.6,2.4c1.3,0.7,3-0.1,3.9-1.8c0.3-0.5,0.7-0.7,1.1-0.4
			c0.4,0.3,0.4,0.9,0.2,1.4c-1.3,2.6-3.9,3.8-5.9,2.7c-1.1-0.6-2-1.9-2.4-3.6C217,59.1,217,58.2,217.2,57.3z"/>
	</g>
	<g class="st2">
		
			<ellipse transform="matrix(0.9184 -0.3955 0.3955 0.9184 -79.8214 34.5669)" class="st3" cx="43.9" cy="210.9" rx="11.9" ry="8.6"/>
	</g>
	<g class="st2">
		<path class="st4" d="M42,205.2c0.6-0.3,1.2-0.4,1.8-0.6c3.5-0.7,6.6,1,7.1,3.8c0.1,0.5-0.4,1.1-1.1,1.4c-0.7,0.2-1.4-0.1-1.5-0.6
			c-0.3-1.9-2.3-3-4.5-2.5c-1.1,0.2-2.1,0.8-2.9,1.6c-1,1-1.5,2.3-1.5,3.4c0.2,1.9,2.2,3.1,4.7,2.8c0.7-0.1,1.3,0.3,1.2,0.9
			c-0.1,0.6-0.7,1.1-1.4,1.2c-3.8,0.5-6.9-1.3-7.1-4.2c-0.1-1.6,0.7-3.5,2.1-5.1C39.9,206.4,40.9,205.7,42,205.2z"/>
	</g>
	<g class="st2">
		
			<ellipse transform="matrix(0.7572 -0.6531 0.6531 0.7572 -148.2578 107.0882)" class="st3" cx="69.9" cy="253" rx="10.1" ry="12.2"/>
	</g>
	<g class="st2">
		<path class="st4" d="M75.5,248.8c0.4,0.5,0.8,1,1.1,1.6c1.7,3.3,0.7,7.1-2.3,8.7c-0.6,0.3-1.3,0-1.8-0.6c-0.4-0.6-0.3-1.4,0.3-1.7
			c1.9-1.1,2.6-3.5,1.6-5.6c-0.5-1-1.4-1.8-2.5-2.3c-1.4-0.6-2.9-0.6-4-0.1c-2,0.9-2.7,3.5-1.7,5.9c0.3,0.7,0,1.4-0.6,1.6
			c-0.6,0.2-1.4-0.3-1.7-1c-1.5-3.7-0.4-7.5,2.7-8.9c1.7-0.8,4-0.7,6,0.2C73.7,247.1,74.7,247.9,75.5,248.8z"/>
	</g>
	<g class="st2">
		
			<ellipse transform="matrix(0.9953 -9.666841e-02 9.666841e-02 0.9953 -19.1433 10.6714)" class="st3" cx="100.6" cy="202.9" rx="10.4" ry="11.9"/>
	</g>
	<g class="st2">
		<path class="st4" d="M107.8,202.7c0.1,0.6,0,1.3-0.1,1.9c-0.6,3.6-3.7,6.1-7.2,5.7c-0.7-0.1-1.2-0.7-1.1-1.5
			c0-0.7,0.6-1.3,1.3-1.2c2.3,0.2,4.3-1.4,4.7-3.6c0.2-1.1-0.1-2.2-0.7-3.2c-0.8-1.2-2.1-2.2-3.3-2.4c-2.2-0.4-4.4,1.2-5,3.8
			c-0.2,0.7-0.8,1.1-1.5,0.9c-0.6-0.2-1-1-0.8-1.7c0.9-3.8,4.2-6.2,7.6-5.7c1.9,0.3,3.8,1.6,5,3.5
			C107.2,200.3,107.6,201.5,107.8,202.7z"/>
	</g>
	<g class="st2">
		
			<ellipse transform="matrix(0.1562 -0.9877 0.9877 0.1562 -40.199 259.0592)" class="st3" cx="131.5" cy="153.1" rx="10.7" ry="11.7"/>
	</g>
	<g class="st2">
		<path class="st4" d="M133.1,145.8c0.6,0.1,1.2,0.3,1.8,0.5c3.3,1.5,4.8,5.2,3.6,8.5c-0.2,0.6-1,1-1.7,0.7
			c-0.7-0.2-1.1-0.9-0.9-1.6c0.8-2.2-0.2-4.6-2.2-5.6c-1-0.4-2.1-0.5-3.3-0.1c-1.4,0.5-2.6,1.5-3.1,2.7c-0.9,2.1,0.1,4.7,2.3,5.9
			c0.6,0.4,0.9,1.1,0.5,1.7c-0.4,0.6-1.2,0.7-1.8,0.4c-3.4-1.9-4.8-5.7-3.4-9c0.8-1.8,2.5-3.4,4.6-4.1
			C130.7,145.8,132,145.7,133.1,145.8z"/>
	</g>
</g>
<circle class="st5" cx="165.2" cy="165.2" r="162.7"/>
</svg>
