<?xml version="1.0" encoding="utf-8"?>
<!-- Generator: Adobe Illustrator 22.0.0, SVG Export Plug-In . SVG Version: 6.00 Build 0)  -->
<svg version="1.1" id="Layer_1" xmlns="http://www.w3.org/2000/svg" xmlns:xlink="http://www.w3.org/1999/xlink" x="0px" y="0px"
	 viewBox="0 0 64.7 67.3" style="enable-background:new 0 0 64.7 67.3;" xml:space="preserve">
<style type="text/css">
	.st0{fill:#81CCF2;}
	.st1{fill:#FFFFA9;}
</style>
<g>
	<g>
		<g>
			<path class="st0" d="M15.3,53.7c-1.7,0-3.5,0-5.2,0C4.5,53.7,0,49.2,0,43.7V10.1C0,4.5,4.5,0,10.1,0h44.5
				c5.6,0,10.1,4.5,10.1,10.1v33.6c0,5.6-4.5,10.1-10.1,10.1H27.7c-0.1,1.6-0.5,5-3,8.1c-5,6.4-13.7,5.5-14.3,5.4
				c0.4-0.1,4.8-1.8,5.9-6.5C17.2,57.2,15.6,54.3,15.3,53.7z"/>
		</g>
	</g>
	<g>
		<g>
			<circle class="st1" cx="31.8" cy="26" r="15.4"/>
		</g>
	</g>
	<g>
		<g>
			<path d="M31.8,35.3c-3.9,0-6.9-1.2-8.8-2.3c-0.5-0.3-0.7-0.9-0.4-1.4c0.3-0.5,0.9-0.7,1.4-0.4c1.7,1,4.6,2.1,8.1,2
				c2.5,0,4.9-0.7,7.1-1.8c0.5-0.3,1.1-0.1,1.4,0.4c0.3,0.5,0.1,1.1-0.4,1.4c-2.5,1.3-5.2,2-8,2C32,35.3,31.9,35.3,31.8,35.3z"/>
		</g>
	</g>
	<g>
		<g>
			<circle cx="25.8" cy="22.2" r="1.8"/>
		</g>
	</g>
	<g>
		<g>
			<circle cx="37.4" cy="22.2" r="1.8"/>
		</g>
	</g>
</g>
</svg>
