<?xml version="1.0" encoding="utf-8"?>
<!-- Generator: Adobe Illustrator 22.0.0, SVG Export Plug-In . SVG Version: 6.00 Build 0)  -->
<svg version="1.1" id="Layer_1" xmlns="http://www.w3.org/2000/svg" xmlns:xlink="http://www.w3.org/1999/xlink" x="0px" y="0px"
	 viewBox="0 0 95.2 94.1" style="enable-background:new 0 0 95.2 94.1;" xml:space="preserve">
<style type="text/css">
	.st0{fill:#FFEF78;}
</style>
<g>
	<g>
		<ellipse class="st0" cx="47.6" cy="47.6" rx="30.4" ry="30.2"/>
	</g>
	<g>
		<ellipse class="st0" cx="47.6" cy="7.1" rx="1.7" ry="7.1"/>
	</g>
	<g>
		<ellipse transform="matrix(0.9125 -0.4091 0.4091 0.9125 -1.6296 13.6345)" class="st0" cx="31.1" cy="10.6" rx="1.7" ry="7.1"/>
	</g>
	<g>
		<ellipse transform="matrix(0.6665 -0.7455 0.7455 0.6665 -9.496 19.7846)" class="st0" cx="17.4" cy="20.5" rx="1.7" ry="7.2"/>
	</g>
	<g>
		<ellipse transform="matrix(0.307 -0.9517 0.9517 0.307 -27.197 32.7747)" class="st0" cx="8.9" cy="35.1" rx="1.7" ry="7.2"/>
	</g>
	<g>
		<ellipse transform="matrix(0.9946 -0.1038 0.1038 0.9946 -5.3362 1.0208)" class="st0" cx="7.1" cy="51.8" rx="7.2" ry="1.7"/>
	</g>
	<g>
		<ellipse transform="matrix(0.8676 -0.4973 0.4973 0.8676 -32.0655 15.126)" class="st0" cx="12.4" cy="67.8" rx="7.2" ry="1.7"/>
	</g>
	<g>
		<ellipse transform="matrix(0.5905 -0.807 0.807 0.5905 -55.0719 51.9796)" class="st0" cx="23.7" cy="80.3" rx="7.1" ry="1.7"/>
	</g>
	<g>
		
			<ellipse transform="matrix(0.2093 -0.9778 0.9778 0.2093 -54.2197 107.1357)" class="st0" cx="39.1" cy="87.1" rx="7.1" ry="1.7"/>
	</g>
	<g>
		<ellipse transform="matrix(0.9778 -0.2093 0.2093 0.9778 -16.9896 13.6634)" class="st0" cx="56.1" cy="87.1" rx="1.7" ry="7.1"/>
	</g>
	<g>
		<ellipse transform="matrix(0.807 -0.5905 0.5905 0.807 -33.5946 57.7142)" class="st0" cx="71.5" cy="80.3" rx="1.7" ry="7.1"/>
	</g>
	<g>
		
			<ellipse transform="matrix(0.4973 -0.8676 0.8676 0.4973 -17.1578 105.9203)" class="st0" cx="82.8" cy="67.8" rx="1.7" ry="7.2"/>
	</g>
	<g>
		<ellipse transform="matrix(0.1038 -0.9946 0.9946 0.1038 27.4138 133.9843)" class="st0" cx="88.1" cy="51.8" rx="1.7" ry="7.2"/>
	</g>
	<g>
		<ellipse transform="matrix(0.9517 -0.307 0.307 0.9517 -6.5979 28.1871)" class="st0" cx="86.3" cy="35.1" rx="7.2" ry="1.7"/>
	</g>
	<g>
		<ellipse transform="matrix(0.7455 -0.6665 0.6665 0.7455 6.1399 57.0919)" class="st0" cx="77.8" cy="20.5" rx="7.2" ry="1.7"/>
	</g>
	<g>
		<ellipse transform="matrix(0.4091 -0.9125 0.9125 0.4091 28.2032 64.8068)" class="st0" cx="64.1" cy="10.6" rx="7.1" ry="1.7"/>
	</g>
	<g>
		<ellipse transform="matrix(0.9638 -0.2666 0.2666 0.9638 -1.3131 11.1129)" class="st0" cx="40.3" cy="10.4" rx="1.2" ry="4"/>
	</g>
	<g>
		<ellipse transform="matrix(0.7709 -0.637 0.637 0.7709 -4.6677 20.1578)" class="st0" cx="25.7" cy="16.6" rx="1.2" ry="4"/>
	</g>
	<g>
		<ellipse transform="matrix(0.4458 -0.8951 0.8951 0.4458 -16.8976 28.9105)" class="st0" cx="14.9" cy="28.1" rx="1.1" ry="4"/>
	</g>
	<g>
		
			<ellipse transform="matrix(4.580605e-02 -0.999 0.999 4.580605e-02 -33.6379 50.7821)" class="st0" cx="9.8" cy="43" rx="1.1" ry="4"/>
	</g>
	<g>
		<ellipse transform="matrix(0.9323 -0.3618 0.3618 0.9323 -20.475 8.0164)" class="st0" cx="11.2" cy="58.7" rx="4" ry="1.1"/>
	</g>
	<g>
		<ellipse transform="matrix(0.7054 -0.7088 0.7088 0.7054 -45.7915 34.7238)" class="st0" cx="18.9" cy="72.4" rx="4" ry="1.2"/>
	</g>
	<g>
		<ellipse transform="matrix(0.3549 -0.9349 0.9349 0.3549 -56.2209 82.3278)" class="st0" cx="31.5" cy="81.9" rx="4" ry="1.2"/>
	</g>
	<g>
		
			<ellipse transform="matrix(0.9983 -5.895911e-02 5.895911e-02 0.9983 -4.9546 2.9192)" class="st0" cx="47" cy="85.4" rx="1.2" ry="4"/>
	</g>
	<g>
		<ellipse transform="matrix(0.8868 -0.4622 0.4622 0.8868 -31.0004 38.2373)" class="st0" cx="62.5" cy="82.4" rx="1.2" ry="4"/>
	</g>
	<g>
		<ellipse transform="matrix(0.6217 -0.7833 0.7833 0.6217 -28.8766 86.8943)" class="st0" cx="75.5" cy="73.3" rx="1.2" ry="4"/>
	</g>
	<g>
		<ellipse transform="matrix(0.2511 -0.968 0.968 0.2511 4.7369 125.7779)" class="st0" cx="83.7" cy="59.8" rx="1.1" ry="4"/>
	</g>
	<g>
		<ellipse transform="matrix(0.9869 -0.1614 0.1614 0.9869 -6.0106 14.386)" class="st0" cx="85.6" cy="44.2" rx="4" ry="1.1"/>
	</g>
	<g>
		<ellipse transform="matrix(0.8372 -0.547 0.547 0.8372 -2.7661 48.9952)" class="st0" cx="80.9" cy="29.1" rx="4" ry="1.1"/>
	</g>
	<g>
		<ellipse transform="matrix(0.5423 -0.8402 0.8402 0.5423 17.7475 67.1272)" class="st0" cx="70.5" cy="17.3" rx="4" ry="1.2"/>
	</g>
	<g>
		<ellipse transform="matrix(0.1514 -0.9885 0.9885 0.1514 37.0961 64.4951)" class="st0" cx="56.1" cy="10.6" rx="4" ry="1.2"/>
	</g>
</g>
</svg>
