<?xml version="1.0" encoding="utf-8"?>
<!-- Generator: Adobe Illustrator 22.0.0, SVG Export Plug-In . SVG Version: 6.00 Build 0)  -->
<svg version="1.1" id="Layer_1" xmlns="http://www.w3.org/2000/svg" xmlns:xlink="http://www.w3.org/1999/xlink" x="0px" y="0px"
	 viewBox="0 0 158.8 192.1" style="enable-background:new 0 0 158.8 192.1;" xml:space="preserve">
<style type="text/css">
	.st0{opacity:0.5;fill:#CECECE;}
	.st1{fill:#F2F2F2;}
	.st2{fill:#EDEACC;}
	.st3{fill:none;stroke:#E8E8E8;stroke-width:3;stroke-miterlimit:10;}
	.st4{fill:#FFFFFF;}
	.st5{fill:#FF4848;}
	.st6{fill:#BC4A4A;}
	.st7{fill:#CECECE;}
</style>
<g>
	<g>
		<rect x="123.2" y="14.6" class="st0" width="18" height="176.3"/>
		<rect x="131.2" y="14.7" class="st1" width="2" height="150.3"/>
		<ellipse class="st2" cx="132.2" cy="182.6" rx="9.3" ry="8.4"/>
		<rect x="123" y="14.6" class="st3" width="18.4" height="176"/>
		<ellipse class="st4" cx="132.2" cy="170.7" rx="2.8" ry="5.8"/>
		<rect x="116.7" y="0.3" class="st5" width="30.8" height="19.2"/>
		<rect x="118.8" y="0.3" class="st6" width="1" height="19.2"/>
		<rect x="122.5" y="0.3" class="st6" width="1" height="19.2"/>
		<rect x="126.9" y="0.3" class="st6" width="1" height="19.2"/>
		<rect x="131.1" y="0.3" class="st6" width="1" height="19.2"/>
		<rect x="135.9" y="0.3" class="st6" width="1" height="19.2"/>
		<rect x="140.7" y="0.3" class="st6" width="1" height="19.2"/>
		<rect x="144.7" y="0.3" class="st6" width="1" height="19.2"/>
	</g>
	<g>
		<rect x="88.3" y="14.4" class="st0" width="18" height="176.3"/>
		<rect x="96.3" y="14.5" class="st1" width="2" height="150.3"/>
		<ellipse class="st2" cx="97.3" cy="182.3" rx="9.3" ry="8.4"/>
		<rect x="88.1" y="14.4" class="st3" width="18.4" height="176"/>
		<ellipse class="st4" cx="97.3" cy="170.4" rx="2.8" ry="5.8"/>
		<rect x="81.7" class="st5" width="30.8" height="19.2"/>
		<rect x="83.9" class="st6" width="1" height="19.2"/>
		<rect x="87.5" class="st6" width="1" height="19.2"/>
		<rect x="91.9" class="st6" width="1" height="19.2"/>
		<rect x="96.2" class="st6" width="1" height="19.2"/>
		<rect x="101" class="st6" width="1" height="19.2"/>
		<rect x="105.7" class="st6" width="1" height="19.2"/>
		<rect x="109.7" class="st6" width="1" height="19.2"/>
	</g>
	<g>
		<rect x="53" y="14.4" class="st0" width="18" height="176.3"/>
		<rect x="61" y="14.5" class="st1" width="2" height="150.3"/>
		<ellipse class="st2" cx="61.9" cy="182.3" rx="9.3" ry="8.4"/>
		<rect x="52.7" y="14.4" class="st3" width="18.4" height="176"/>
		<ellipse class="st4" cx="61.9" cy="170.4" rx="2.8" ry="5.8"/>
		<rect x="46.4" class="st5" width="30.8" height="19.2"/>
		<rect x="48.6" class="st6" width="1" height="19.2"/>
		<rect x="52.2" class="st6" width="1" height="19.2"/>
		<rect x="56.6" class="st6" width="1" height="19.2"/>
		<rect x="60.9" class="st6" width="1" height="19.2"/>
		<rect x="65.7" class="st6" width="1" height="19.2"/>
		<rect x="70.4" class="st6" width="1" height="19.2"/>
		<rect x="74.4" class="st6" width="1" height="19.2"/>
	</g>
	<g>
		<rect x="16.6" y="14.4" class="st0" width="18" height="176.3"/>
		<rect x="24.6" y="14.5" class="st1" width="2" height="150.3"/>
		<ellipse class="st2" cx="25.5" cy="182.3" rx="9.3" ry="8.4"/>
		<rect x="16.3" y="14.4" class="st3" width="18.4" height="176"/>
		<ellipse class="st4" cx="25.5" cy="170.4" rx="2.8" ry="5.8"/>
		<rect x="10" class="st5" width="30.8" height="19.2"/>
		<rect x="12.1" class="st6" width="1" height="19.2"/>
		<rect x="15.8" class="st6" width="1" height="19.2"/>
		<rect x="20.2" class="st6" width="1" height="19.2"/>
		<rect x="24.5" class="st6" width="1" height="19.2"/>
		<rect x="29.3" class="st6" width="1" height="19.2"/>
		<rect x="34" class="st6" width="1" height="19.2"/>
		<rect x="38" class="st6" width="1" height="19.2"/>
	</g>
	<g>
		<path class="st7" d="M158.8,99.6H0L0,99c0-3.7,3-6.7,6.7-6.7h145.5c3.7,0,6.7,3,6.7,6.7V99.6z"/>
		<rect x="8.7" y="96.8" class="st7" width="2.6" height="95.3"/>
		<rect x="146.7" y="96.8" class="st7" width="2.6" height="95.3"/>
		<rect x="11.3" y="168.8" class="st7" width="135.4" height="4.5"/>
	</g>
</g>
</svg>
