<?xml version="1.0" encoding="utf-8"?>
<!-- Generator: Adobe Illustrator 22.0.0, SVG Export Plug-In . SVG Version: 6.00 Build 0)  -->
<svg version="1.1" id="Layer_2" xmlns="http://www.w3.org/2000/svg" xmlns:xlink="http://www.w3.org/1999/xlink" x="0px" y="0px"
	 viewBox="0 0 110.3 398.2" style="enable-background:new 0 0 110.3 398.2;" xml:space="preserve">
<style type="text/css">
	.st0{fill:#9E804F;}
	.st1{fill:#DDC2AC;}
	.st2{fill:#A552CC;}
	.st3{fill:#8441A3;}
	.st4{fill:#B65CCC;}
	.st5{fill:#6A3987;}
	.st6{fill:#C06CE0;}
	.st7{fill:#DB947B;}
	.st8{fill:#FFFFFF;}
	.st9{fill:#5E7F6A;}
	.st10{fill:#B58168;}
</style>
<path class="st0" d="M55.1,0c1,0,23.8,0.1,36.3,17.8c1.2,1.7,9.9,14.3,7.9,28.6c-1,7.2-4.3,11.8-2.6,20.4c0.7,3.6,1.9,5.9,1.7,10.1
	c-0.2,5.5-2.6,10.1-4.1,12.2c-4.7,6.5-13.1,5.9-36.8,6.9c-27.5,1.2-34.4,2.8-38.7-2.6c-3.8-4.9-4.4-14-4.7-17.4
	c-0.3-4,0.2-5.4,0.3-9.6c0.3-10.7-2-15.3-2.6-21.6c-1.3-15.2,8.9-27.9,9.9-29.2C34,0.5,52.8,0,55.1,0z"/>
<polygon class="st1" points="26.6,398.2 4.5,398.2 19.6,223.7 35.7,238.7 "/>
<polygon class="st1" points="81.5,398.2 103.6,398.2 88.5,223.7 72.4,238.7 "/>
<g>
	<path class="st2" d="M88.3,102.9c-0.2-3.7-0.8-9.1-3.3-14.1c-6.1-12.1-18.7-12.1-29.9-12c-10.7,0.1-20.6,0-28,8.8
		c-3.8,4.5-4.8,12.4-5.2,17.3C44.1,102.9,66.2,102.9,88.3,102.9z"/>
	<path class="st3" d="M17,215.5c-0.1,2-0.3,13.5,6.2,22.9s14.6,9.6,16,9.6h31.9c14.8,0,22.2-18.5,22.2-32.6
		C67.9,215.5,42.4,215.5,17,215.5z"/>
	<path class="st2" d="M93.3,215.5c-0.3-6.6-0.5-12-0.8-18.6c-25,0-49.9,0-74.8,0c-0.2,6.1-0.5,12.5-0.7,18.6
		C42.4,215.5,67.9,215.5,93.3,215.5z"/>
	<path class="st3" d="M89.2,123.8c-0.3-8.2-0.5-12.6-0.8-20.8c-22.1,0-44.2,0-66.3,0c-0.5,8.7-0.8,12-1.3,20.7
		C43.7,123.6,66.3,123.8,89.2,123.8z"/>
	<path class="st3" d="M92.5,197c-0.1-3.1-0.3-5.9-0.4-9c-24.1,0-49.4,0-74.1,0c-0.1,2.8-0.2,6.2-0.3,9C43,197,67.4,197,92.5,197z"/>
	<path class="st4" d="M92.1,188c-0.2-3.3-0.4-9-0.5-12.3c-24.4,0-49.2,0-73.1,0c-0.1,3.6-0.3,8.8-0.4,12.3
		C42.5,188,67.2,188,92.1,188z"/>
	<path class="st5" d="M91.5,175.7c-0.2-4.4-0.4-7.7-0.6-12.1c-23.7,0-48.1,0-72,0c-0.2,4.3-0.3,7.8-0.5,12.1
		C42.9,175.7,66.5,175.7,91.5,175.7z"/>
	<path class="st6" d="M91,163.6c-0.3-6.3-0.6-13.6-0.9-20c-24.5,0-46.2,0-70.3,0c-0.3,6.4-0.5,13.6-0.8,20
		C43,163.6,66.8,163.6,91,163.6z"/>
	<path class="st4" d="M90.1,143.6c-0.2-3.8-0.4-8.4-0.6-12.3c-23.4,0-45.2,0-69.2,0c-0.2,3.6-0.4,8.6-0.6,12.3
		C43.6,143.6,66.4,143.6,90.1,143.6z"/>
	<path class="st6" d="M89.5,131.4c-0.1-1.9-0.3-5.8-0.3-7.6c-23.2,0-45.5-0.2-68.4-0.2c-0.1,2.1-0.3,5.7-0.4,7.8
		C43.3,131.4,66.2,131.4,89.5,131.4z"/>
</g>
<polygon class="st1" points="94.6,169.4 110.3,169.4 101.1,100.7 87.9,98.1 "/>
<polygon class="st1" points="108.3,240.2 94.6,240.2 94.6,169.4 110.3,169.4 "/>
<polygon class="st1" points="15.7,169.4 0,169.4 9.2,100.7 22.4,98.1 "/>
<polygon class="st1" points="2,240.2 15.7,240.2 15.7,169.4 0,169.4 "/>
<circle class="st1" cx="54.6" cy="42.7" r="40.6"/>
<polygon class="st7" points="54.6,45.8 61.2,63.6 48.1,63.6 "/>
<circle class="st8" cx="73.4" cy="49.4" r="7.9"/>
<circle class="st8" cx="35.4" cy="49.4" r="7.9"/>
<path class="st1" d="M94.5,57.5c4.4,0,8.1-3.6,8.1-8.1s-3.6-8.1-8.1-8.1C94.5,46.7,94.5,52.1,94.5,57.5z"/>
<path class="st1" d="M15.3,57.5c-4.4,0-8.1-3.6-8.1-8.1s3.6-8.1,8.1-8.1C15.3,46.7,15.3,52.1,15.3,57.5z"/>
<circle class="st9" cx="73" cy="50.1" r="4.9"/>
<circle class="st9" cx="35.4" cy="50.1" r="4.9"/>
<path class="st0" d="M87.7,35.4c-1.1,3.1-2,6.8-2.5,11.1c-1.3,11.1,1.2,20.3,3.2,25.7c4-6.1,12-20.5,7.3-34.9c-0.1-0.2,0.2-4-0.5-6
	c-2.5-6.3-3.3-9.8-3.6-10.6c-2.1-5.9-12.5-14-24.8-17.9C50.2-2.5,36.3,5.1,33.7,6.6c-1.5,0.9-17.9,10.6-20,27.9
	c-0.2,1.6-0.2,2.8-0.2,5.2c0.1,17.3,4.8,39,8.2,38.8c3-0.2,6.5-16.4,2.5-31.3c-0.9-3.3-2-6.1-3-8.2c1.5-2.3,4.1-5.6,8-8.4
	c4.4-3.1,7.7-3.6,12.2-5.7c3.8-1.7,8.9-4.8,14.2-10.8c4.2,4.9,8.3,7.3,11.2,8.6c4.6,2,7.2,1.6,11.4,3.7C83.1,28.8,86,32.6,87.7,35.4
	z"/>
<ellipse class="st0" cx="35.8" cy="33.4" rx="6.4" ry="3.9"/>
<ellipse class="st0" cx="73" cy="33.4" rx="6.4" ry="3.9"/>
<circle class="st10" cx="79.4" cy="62.2" r="1"/>
<circle class="st10" cx="72.9" cy="59.5" r="1"/>
<circle class="st10" cx="67.6" cy="62.2" r="1"/>
<circle class="st10" cx="30.3" cy="61.9" r="1"/>
<circle class="st10" cx="36.8" cy="59.3" r="1"/>
<circle class="st10" cx="42.1" cy="61.9" r="1"/>
</svg>
