<?xml version="1.0" encoding="utf-8"?>
<!-- Generator: Adobe Illustrator 22.0.0, SVG Export Plug-In . SVG Version: 6.00 Build 0)  -->
<svg version="1.1" id="Layer_2" xmlns="http://www.w3.org/2000/svg" xmlns:xlink="http://www.w3.org/1999/xlink" x="0px" y="0px"
	 viewBox="0 0 114.3 416.1" style="enable-background:new 0 0 114.3 416.1;" xml:space="preserve">
<style type="text/css">
	.st0{fill:#A08458;}
	.st1{fill:#CCAE8D;}
	.st2{fill:#8C50CC;}
	.st3{fill:#6842A5;}
	.st4{fill:#8D5BCE;}
	.st5{fill:#543889;}
	.st6{fill:#986AE2;}
	.st7{fill:#DB947B;}
	.st8{fill:#FFFFFF;}
	.st9{fill:#60533A;}
	.st10{fill:#B58168;}
</style>
<path class="st0" d="M22,13.6c1.5-1.3,1.9-1.8,2.3-2.5c0.7-1.2,0.9-2,1.9-3.2c0.3-0.4,0.8-0.9,1.4-1.3c4.8-3.5,8.8-0.1,18.4-2.9
	c5-1.5,4.3-2.5,8.5-3.3c7-1.3,13.1,1,15.8,2.2c3.3,1.5,5.7,3.4,7.2,4.8c2.7,0.7,6.9,2.1,10.7,5.3c6.7,5.6,10.4,14.5,9.2,22.1
	c-0.4,3-1.2,2.9-1.3,5.7c-0.3,7.5,5.4,8.9,5.6,14.8c0.2,6.8-7.2,8.6-7.9,18.3c-0.1,1.1,0,2,0,2.7c0.3,2.3,0.4,3.1,0.3,3.7
	c-0.1,2.8-5.7,6-12,6.9c-6.4,1-7.5-1.3-14.4-1.1c-8.4,0.2-8.4,3.6-15.4,3.7c-8.7,0-9.8-5.3-19.7-5.9c-7.4-0.4-9,2.3-12.8,0.4
	c-6.1-3.1-7.2-12.8-7.7-16.8c-0.7-6.3,0.8-6.9,0-14.1c-0.8-7.2-2.5-7.2-3.1-13.3c-0.4-4-1.5-14.7,4.2-19.6
	C14.9,18.9,18.8,16.3,22,13.6z"/>
<polygon class="st1" points="29.8,416.1 6.9,416.1 22.6,231.8 39.3,247.6 "/>
<polygon class="st1" points="84.5,416.1 107.3,416.1 91.7,231.8 75,247.6 "/>
<g>
	<path class="st2" d="M91.5,104.3c-0.2-3.9-0.8-9.6-3.4-14.9c-6.3-12.8-19.4-12.8-30.9-12.7c-11.1,0.1-21.3,0-29,9.3
		c-3.9,4.7-5,13.1-5.4,18.2C45.7,104.3,68.6,104.3,91.5,104.3z"/>
	<path class="st3" d="M17.6,223.2c-0.1,2.1-0.3,14.3,6.4,24.2s15.2,10.2,16.6,10.2h33c15.4,0,23-19.5,23-34.4
		C70.3,223.2,44,223.2,17.6,223.2z"/>
	<path class="st2" d="M96.7,223.2c-0.3-6.9-0.5-12.7-0.8-19.6c-25.9,0-51.7,0-77.5,0c-0.2,6.4-0.5,13.2-0.7,19.6
		C44,223.2,70.3,223.2,96.7,223.2z"/>
	<path class="st3" d="M92.4,126.3c-0.4-8.7-0.5-13.3-0.9-22c-22.9,0-45.8,0-68.7,0c-0.5,9.2-0.8,12.6-1.3,21.8
		C45.3,126.1,68.7,126.3,92.4,126.3z"/>
	<path class="st3" d="M95.8,203.6c-0.1-3.2-0.3-6.3-0.4-9.5c-25,0-51.2,0-76.8,0c-0.1,3-0.2,6.5-0.3,9.5
		C44.6,203.6,69.8,203.6,95.8,203.6z"/>
	<path class="st4" d="M95.4,194.1c-0.2-3.5-0.4-9.5-0.5-13c-25.3,0-51,0-75.7,0c-0.1,3.8-0.3,9.2-0.5,13
		C44,194.1,69.6,194.1,95.4,194.1z"/>
	<path class="st5" d="M94.8,181.1c-0.2-4.6-0.4-8.2-0.6-12.8c-24.5,0-49.8,0-74.6,0c-0.2,4.5-0.4,8.3-0.5,12.8
		C44.4,181.1,68.9,181.1,94.8,181.1z"/>
	<path class="st6" d="M94.3,168.3c-0.3-6.7-0.7-14.4-1-21.1c-25.4,0-47.9,0-72.8,0c-0.3,6.7-0.5,14.3-0.8,21.1
		C44.5,168.3,69.2,168.3,94.3,168.3z"/>
	<path class="st4" d="M93.3,147.3c-0.2-4-0.4-8.9-0.6-12.9c-24.2,0-46.8,0-71.7,0c-0.2,3.8-0.4,9.1-0.6,12.9
		C45.1,147.3,68.8,147.3,93.3,147.3z"/>
	<path class="st6" d="M92.7,134.3c-0.1-2-0.3-6.1-0.3-8c-24.1,0-47.1-0.2-70.9-0.2c-0.1,2.2-0.3,6-0.4,8.2
		C44.8,134.3,68.6,134.3,92.7,134.3z"/>
</g>
<polygon class="st1" points="98,174.5 114.3,174.5 104.7,101.9 91.1,99.2 "/>
<polygon class="st1" points="112.2,249.3 98,249.3 98,174.5 114.3,174.5 "/>
<polygon class="st1" points="16.3,174.5 0,174.5 9.5,101.9 23.2,99.2 "/>
<polygon class="st1" points="2.1,249.3 16.3,249.3 16.3,174.5 0,174.5 "/>
<circle class="st1" cx="53.8" cy="42.3" r="39.7"/>
<polygon class="st7" points="53.8,45.4 60.3,62.7 47.3,62.7 "/>
<circle class="st8" cx="72.2" cy="48.8" r="7.7"/>
<circle class="st8" cx="34.9" cy="48.8" r="7.7"/>
<path class="st1" d="M92.8,56.8c4.3,0,7.9-3.6,7.9-7.9s-3.6-7.9-7.9-7.9C92.8,46.2,92.8,51.5,92.8,56.8z"/>
<path class="st1" d="M15.3,56.8c-4.3,0-7.9-3.6-7.9-7.9s3.6-7.9,7.9-7.9C15.3,46.2,15.3,51.5,15.3,56.8z"/>
<circle class="st9" cx="71.8" cy="49.6" r="4.7"/>
<circle class="st9" cx="34.9" cy="49.6" r="4.7"/>
<path class="st0" d="M37.8,15.6c4.3,4.6,8.1,5.9,10.8,6.2c5.2,0.6,8.9-2.3,13.7,0c2.4,1.1,1.7,1.9,4.2,3.1c5.3,2.6,9.2-0.6,12.1,2
	c1.6,1.5,0.7,2.7,2.7,5.5c1.5,2.1,3.5,3.2,4.8,3.8c-1,3-2,6.7-2.5,10.9c-1.3,10.9,1.2,19.9,3.2,25.2c3.9-6,11.7-20.1,7.2-34.1
	c-0.1-0.2,0.2-4-0.5-5.9c-2.4-6.2-3.2-9.6-3.5-10.3C87.9,16.1,77.8,8.2,65.7,4.4C49.4-0.9,35.9,6.6,33.3,8
	c-1.5,0.8-17.5,10.4-19.6,27.3c-0.2,1.6-0.2,2.8-0.2,5.1c0.1,16.9,4.7,38.2,8.1,38c2.9-0.1,6.4-16,2.5-30.6c-0.9-3.2-2-5.9-3-8.1
	c2.1-0.9,5-2.6,6.1-5.5c1.1-3.2-0.9-5.3,0.5-7.3c1.9-2.8,6.8-0.7,9.3-3.5C38.1,22.2,38.9,20,37.8,15.6z"/>
<ellipse class="st0" cx="35.4" cy="33.2" rx="6.2" ry="3.8"/>
<ellipse class="st0" cx="71.8" cy="33.2" rx="6.2" ry="3.8"/>
<circle class="st10" cx="78" cy="61.3" r="1"/>
<circle class="st10" cx="71.6" cy="58.8" r="1"/>
<circle class="st10" cx="66.5" cy="61.3" r="1"/>
<circle class="st10" cx="30" cy="61.1" r="1"/>
<circle class="st10" cx="36.4" cy="58.6" r="1"/>
<circle class="st10" cx="41.5" cy="61.1" r="1"/>
</svg>
