<?xml version="1.0" encoding="utf-8"?>
<!-- Generator: Adobe Illustrator 22.0.0, SVG Export Plug-In . SVG Version: 6.00 Build 0)  -->
<svg version="1.1" id="Layer_2" xmlns="http://www.w3.org/2000/svg" xmlns:xlink="http://www.w3.org/1999/xlink" x="0px" y="0px"
	 viewBox="0 0 99.2 361.4" style="enable-background:new 0 0 99.2 361.4;" xml:space="preserve">
<style type="text/css">
	.st0{fill:#DDBFAB;}
	.st1{fill:#6C52CC;}
	.st2{fill:#4D41A3;}
	.st3{fill:#725CCC;}
	.st4{fill:#463987;}
	.st5{fill:#856CE0;}
	.st6{fill:#7A5A44;}
	.st7{fill:#DB947B;}
	.st8{fill:#FFFFFF;}
	.st9{fill:#665B4F;}
	.st10{fill:#846855;}
	.st11{fill:#B58168;}
</style>
<polygon class="st0" points="25.9,361.4 6,361.4 19.6,205.9 34.1,219.3 "/>
<polygon class="st0" points="73.3,361.4 93.2,361.4 79.6,205.9 65.1,219.3 "/>
<g>
	<path class="st1" d="M79.4,98.3c-0.1-3.3-0.7-8.1-3-12.5C71,75,59.6,75,49.6,75.1c-9.6,0.1-18.5,0-25.2,7.9
		c-3.4,4-4.3,11.1-4.7,15.4C39.7,98.3,59.5,98.3,79.4,98.3z"/>
	<path class="st2" d="M15.3,198.7c-0.1,1.8-0.2,12,5.6,20.4c5.8,8.4,13.2,8.6,14.4,8.6h28.7c13.3,0,20-16.4,20-29
		C61,198.7,38.2,198.7,15.3,198.7z"/>
	<path class="st1" d="M83.9,198.7c-0.3-5.8-0.5-10.7-0.7-16.5c-22.4,0-44.9,0-67.3,0c-0.2,5.4-0.4,11.1-0.6,16.5
		C38.2,198.7,61,198.7,83.9,198.7z"/>
	<path class="st2" d="M80.2,116.9c-0.3-7.3-0.5-11.2-0.8-18.6c-19.9,0-39.8,0-59.6,0c-0.5,7.8-0.7,10.7-1.1,18.4
		C39.3,116.8,59.7,116.9,80.2,116.9z"/>
	<path class="st2" d="M83.2,182.1c-0.1-2.7-0.2-5.3-0.4-8c-21.7,0-44.4,0-66.6,0c-0.1,2.5-0.2,5.5-0.3,8
		C38.7,182.1,60.6,182.1,83.2,182.1z"/>
	<path class="st3" d="M82.8,174.1c-0.1-3-0.3-8-0.5-10.9c-22,0-44.3,0-65.7,0c-0.1,3.2-0.3,7.8-0.4,11
		C38.2,174.1,60.4,174.1,82.8,174.1z"/>
	<path class="st4" d="M82.3,163.2c-0.2-3.9-0.3-6.9-0.5-10.8c-21.3,0-43.3,0-64.8,0c-0.1,3.8-0.3,7-0.5,10.8
		C38.5,163.1,59.8,163.2,82.3,163.2z"/>
	<path class="st5" d="M81.8,152.4c-0.3-5.6-0.6-12.1-0.8-17.8c-22.1,0-41.6,0-63.2,0c-0.2,5.7-0.5,12.1-0.7,17.8
		C38.6,152.4,60.1,152.4,81.8,152.4z"/>
	<path class="st3" d="M81,134.6c-0.2-3.4-0.3-7.5-0.5-10.9c-21,0-40.6,0-62.2,0c-0.1,3.2-0.4,7.7-0.5,10.9
		C39.2,134.6,59.7,134.6,81,134.6z"/>
	<path class="st5" d="M80.5,123.7c-0.1-1.7-0.2-5.1-0.3-6.8c-20.9,0-40.9-0.1-61.5-0.1c-0.1,1.9-0.3,5.1-0.4,6.9
		C38.9,123.7,59.5,123.7,80.5,123.7z"/>
</g>
<polygon class="st0" points="85.1,157.6 99.2,157.6 90.9,96.4 79,94 "/>
<polygon class="st0" points="97.4,220.7 85.1,220.7 85.1,157.6 99.2,157.6 "/>
<polygon class="st0" points="14.1,157.6 0,157.6 8.3,96.4 20.1,94 "/>
<polygon class="st0" points="1.8,220.7 14.1,220.7 14.1,157.6 0,157.6 "/>
<path class="st6" d="M73.8,67.4c5.8,0.3,12.4,0.7,15.1-3.1c1.7-2.4,0.4-4.3,1.6-12c1.1-7.1,2.4-6.8,2.3-10.7
	c-0.1-5.2-2.5-5.9-5.7-14.8c-3-8.5-1.5-9.7-4.2-13c-2.4-3-4-2.4-13.5-7.3C60.1,1.8,59.3,0.1,55.3,0c-4.5-0.1-4.6,2-11.5,3.1
	c-8,1.3-9.7-1.3-14.1,0.8c-4,2-2.9,4.3-8.9,9.6c-5.1,4.5-7.1,3.8-9.1,7.3c-2,3.5-0.1,4.7-2.1,10.7c-1.7,5.4-3.6,5.7-3.9,9.6
	c-0.3,3.5,1.1,3.7,1.6,8.6c0.5,6-1.4,7.9-0.3,10.4c1.9,4.1,9,4.4,13.3,4.7C23.6,65,25.2,65.1,73.8,67.4z"/>
<circle class="st0" cx="49.1" cy="44.8" r="37.6"/>
<polygon class="st7" points="49.1,47.1 55.2,63.5 43,63.5 "/>
<circle class="st8" cx="66.5" cy="50.4" r="7.3"/>
<circle class="st8" cx="31.3" cy="50.4" r="7.3"/>
<path class="st0" d="M86,58.5c4.1,0,7.5-3.4,7.5-7.5s-3.4-7.5-7.5-7.5C86,48.5,86,53.5,86,58.5z"/>
<path class="st0" d="M12.7,58.5c-4.1,0-7.5-3.4-7.5-7.5s3.4-7.5,7.5-7.5C12.7,48.5,12.7,53.5,12.7,58.5z"/>
<circle class="st9" cx="66.1" cy="51.1" r="4.5"/>
<circle class="st9" cx="31.3" cy="51.1" r="4.5"/>
<ellipse class="st10" cx="31.7" cy="35.6" rx="5.9" ry="3.6"/>
<ellipse class="st10" cx="66.1" cy="35.6" rx="5.9" ry="3.6"/>
<circle class="st11" cx="72.9" cy="63" r="1.2"/>
<circle class="st11" cx="65.1" cy="59.9" r="1.2"/>
<circle class="st11" cx="58.8" cy="63" r="1.2"/>
<circle class="st11" cx="24.2" cy="62.7" r="1.2"/>
<circle class="st11" cx="32.1" cy="59.6" r="1.2"/>
<circle class="st11" cx="38.3" cy="62.7" r="1.2"/>
<path class="st6" d="M35.6,17.1c1-0.2,1.3,4.9,5.2,7.8c2.7,2,7.1,3,10.7,1.6c2.2-0.8,2.8-2.1,4.7-2.2c2.3-0.1,4.3,1.7,5.6,3.3
	c0.1-0.4,0.8-3-0.7-5.4c-1.1-1.8-2.7-2.5-3.3-2.7c1.7-0.5,4.1-0.8,6,0.4c2.4,1.5,2,4.4,4,7.2c1.2,1.8,3.6,3.8,8.5,4.9
	c-0.5-0.6-1.5-2-2-4c-0.4-1.7-0.2-3.2,0-4c1.4,1.4,3.8,4.2,5.1,8.5c1.3,4.5,0.7,8.4,0.4,10.1c-0.3,1.4-0.6,2.6-0.9,3.4
	c0.5-0.1,2.9-0.6,4.5-2.9c1.3-1.9,1.3-3.9,1.3-4.5c0.3,2.3,0.5,6-0.5,10.3c-0.7,2.8-1.8,5.1-2.7,6.7c1.7-0.7,5-2.2,6.9-5.6
	c1.9-3.4,1.4-7,0.5-10.9c-2.6-11.3-4.6-19.9-12.7-26.8C61-0.6,40.1,6,37.1,7c-3.6,1.2-16.2,5.4-22.3,17c-3.3,6.4-0.9,8-4.7,23.3
	c-0.3,1.1-0.8,3.3,0,5.8c1.3,3.9,5.2,6,7.4,6.9c-1-1.3-2.8-4.3-3.1-8.3c-0.2-2.3,0.2-4.3,0.5-5.6c0.3,0.6,1,1.8,2.2,2.7
	c0.9,0.7,1.8,1.1,2.4,1.3c-1-1.9-2.2-5-2.4-8.9c-0.3-8.4,4.6-14.3,6-15.7c-0.4,0.8-1.5,2.8-1.1,5.4c0.2,1.2,0.6,2.1,0.9,2.7
	c0.6-0.5,2.5-2.1,3.1-4.9c0.3-1.5,0.2-2.8,0-3.6c0.2,0.4,1.7,2.7,4.5,3.3c1.6,0.3,3-0.1,3.6-0.4c-0.3-1.2-0.8-2.9-2-4.7
	c-0.8-1.2-1.6-2.1-2.4-2.7c0.1,0,1.8-1,3.4,0c1.3,0.8,1.6,2.1,1.6,2.4C34.8,18.3,35.2,17.2,35.6,17.1z"/>
</svg>
