<?xml version="1.0" encoding="utf-8"?>
<!-- Generator: Adobe Illustrator 23.0.1, SVG Export Plug-In . SVG Version: 6.00 Build 0)  -->
<svg version="1.1" xmlns="http://www.w3.org/2000/svg" xmlns:xlink="http://www.w3.org/1999/xlink" x="0px" y="0px"
	 viewBox="0 0 438.3 438.3" style="enable-background:new 0 0 438.3 438.3;" xml:space="preserve">
<style type="text/css">
	.st0{display:none;}
	.st1{display:inline;fill:#99DDC1;}
	.st2{display:inline;}
	.st3{fill:#69AF98;}
	.st4{display:inline;fill:#72B774;}
	.st5{display:inline;fill:#7FCCBF;}
	.st6{display:inline;fill:#71AFA3;}
	.st7{display:inline;fill:#92C174;}
	.st8{display:inline;fill:#69AF69;}
	.st9{display:inline;fill:#76D39C;}
	.st10{display:inline;fill:#4BAF6A;}
	.st11{display:inline;fill:#88B56B;}
	.st12{display:inline;fill:#78C1A3;}
	.st13{display:inline;fill:#54917B;}
	.st14{display:inline;fill:none;}
	.st15{fill:#FFFFFF;}
	.st16{fill:none;stroke:#F4D090;stroke-width:15;stroke-miterlimit:10;}
	.st17{fill:#F4D090;}
	.st18{fill:#FFFFFF;stroke:#FFFFFF;stroke-width:2;stroke-miterlimit:10;}
</style>
<g id="Layer_1" class="st0">
	<rect x="-614.5" y="-319.4" class="st1" width="1130" height="800"/>
</g>
<g id="Layer_16" class="st0">
	<g class="st2">
		<path class="st3" d="M-402.5,5C-465,45-470.6,227.7-474.9,344.5c-4.7,129,3.6,289.6-72.9,338.6l-99.9,63.9l-2.6-4.1
			c52.5-63.9,46.4-203.7,50.6-318.5c4.2-116.8,9.9-299.6,72.3-339.5L-402.5,5z"/>
		<path class="st3" d="M-170.9-143.1c-62.4,39.9-68.1,222.7-72.3,339.5c-4.7,129,3.6,289.6-72.9,338.6l-124.9,79.9
			c76.5-49,68.2-209.6,72.9-338.6c4.2-116.8,9.9-299.6,72.3-339.5L-170.9-143.1z"/>
	</g>
	<path class="st4" d="M-653.7,726.1l-105.4-164.9c-2.4-3.7-0.9-8.9,3.4-11.7l52.6-33.6c4.2-2.7,9.6-1.9,12,1.8l105.4,164.9
		c2.4,3.7,0.9,8.9-3.4,11.7l-52.6,33.6C-646,730.7-651.3,729.8-653.7,726.1z"/>
	<path class="st5" d="M-580.5,450l-46.8-73.1c-2.4-3.7-0.9-8.9,3.4-11.7l52.6-33.6c4.2-2.7,9.6-1.9,12,1.8l46.8,73.1
		c2.4,3.7,0.9,8.9-3.4,11.7l-52.6,33.6C-572.8,454.5-578.1,453.7-580.5,450z"/>
	<path class="st6" d="M-583,446.1l-18.2-28.4c-1.8-2.8-0.7-6.7,2.5-8.7l56.4-36.1c3.2-2,7.2-1.4,9,1.4l18.2,28.4
		c1.8,2.8,0.7,6.7-2.5,8.7l-56.4,36.1C-577.2,449.5-581.2,448.8-583,446.1z"/>
	<path class="st7" d="M-480.5,606.3L-598.4,422c-2.4-3.7-0.9-8.9,3.4-11.7l52.6-33.6c4.2-2.7,9.6-1.9,12,1.8l117.9,184.3
		c2.4,3.7,0.9,8.9-3.4,11.7l-52.6,33.6C-472.8,610.8-478.1,610-480.5,606.3z"/>
	<path class="st8" d="M-739.8,603.1l-7.5-11.8c-1.8-2.8-0.7-6.7,2.5-8.7l56.4-36.1c3.2-2,7.2-1.4,9,1.4l7.5,11.8
		c1.8,2.8,0.7,6.7-2.5,8.7l-56.4,36.1C-734,606.5-738,605.9-739.8,603.1z"/>
	<path class="st9" d="M-742.5,598.7l-67.3-105.1c-2.4-3.7-0.9-8.9,3.4-11.7l52.6-33.6c4.2-2.7,9.6-1.9,12,1.8l67.3,105.1
		c2.4,3.7,0.9,8.9-3.4,11.7l-52.6,33.6C-734.8,603.3-740.2,602.5-742.5,598.7z"/>
	<path class="st9" d="M-709.1,449.9l-22.4-35c-2.4-3.7-0.9-8.9,3.4-11.7l52.6-33.6c4.2-2.7,9.6-1.9,12,1.8l22.4,35
		c2.4,3.7,0.9,8.9-3.4,11.7l-52.6,33.6C-701.4,454.5-706.7,453.6-709.1,449.9z"/>
	<path class="st10" d="M-709.1,450l-11.6-18.2c-1.8-2.8-0.7-6.7,2.5-8.7l56.4-36.1c3.2-2,7.2-1.4,9,1.4l11.6,18.2
		c1.8,2.8,0.7,6.7-2.5,8.7l-56.4,36.1C-703.3,453.4-707.3,452.8-709.1,450z"/>
	<path class="st4" d="M-612.5,589.5l-100.9-157.8c-2.4-3.7-0.9-8.9,3.4-11.7l52.6-33.6c4.2-2.7,9.6-1.9,12,1.8L-544.6,546
		c2.4,3.7,0.9,8.9-3.4,11.7l-52.6,33.6C-604.7,594-610.1,593.2-612.5,589.5z"/>
	<path class="st9" d="M-300.6,478.8l-77.6-121.3c-2.4-3.7-0.9-8.9,3.4-11.7l52.6-33.6c4.2-2.7,9.6-1.9,12,1.8l77.6,121.3
		c2.4,3.7,0.9,8.9-3.4,11.7l-52.6,33.6C-292.9,483.3-298.2,482.5-300.6,478.8z"/>
	<path class="st10" d="M-365.5,377.3l-21-32.8c-1.8-2.8-0.7-6.7,2.5-8.7l56.4-36.1c3.2-2,7.2-1.4,9,1.4l21,32.8
		c1.8,2.8,0.7,6.7-2.5,8.7l-56.4,36.1C-359.7,380.7-363.7,380.1-365.5,377.3z"/>
	<path class="st4" d="M-368.8,372.5l-149.6-233.9c-2.4-3.7-0.9-8.9,3.4-11.7l52.6-33.6c4.2-2.7,9.6-1.9,12,1.8l149.6,233.9
		c2.4,3.7,0.9,8.9-3.4,11.7l-52.6,33.6C-361.1,377.1-366.4,376.2-368.8,372.5z"/>
	<path class="st5" d="M-259.4,348.9l-20-31.3c-2.4-3.7-0.9-8.9,3.4-11.7l52.6-33.6c4.2-2.7,9.6-1.9,12,1.8l20,31.3
		c2.4,3.7,0.9,8.9-3.4,11.7l-52.6,33.6C-251.6,353.5-257,352.7-259.4,348.9z"/>
	<path class="st6" d="M-267.8,335.8l-26.4-41.2c-1.8-2.8-0.7-6.7,2.5-8.7l56.4-36.1c3.2-2,7.2-1.4,9,1.4l26.4,41.2
		c1.8,2.8,0.7,6.7-2.5,8.7l-56.4,36.1C-262,339.2-266,338.6-267.8,335.8z"/>
	<path class="st7" d="M-270.5,331.5L-443.5,61.1c-2.4-3.7-0.9-8.9,3.4-11.7l52.6-33.6c4.2-2.7,9.6-1.9,12,1.8L-202.6,288
		c2.4,3.7,0.9,8.9-3.4,11.7l-52.6,33.6C-262.8,336-268.2,335.2-270.5,331.5z"/>
	<path class="st9" d="M-211.7,225.2L-333.6,34.8c-2.4-3.7-0.9-8.9,3.4-11.7l52.6-33.6c4.2-2.7,9.6-1.9,12,1.8l121.8,190.5
		c2.4,3.7,0.9,8.9-3.4,11.7l-52.6,33.6C-204,229.8-209.4,229-211.7,225.2z"/>
	<path class="st5" d="M-468.8,423.6L-549,298.2c-2.4-3.7-0.9-8.9,3.4-11.7l52.6-33.6c4.2-2.7,9.6-1.9,12,1.8l80.2,125.4
		c2.4,3.7,0.9,8.9-3.4,11.7l-52.6,33.6C-461,428.2-466.4,427.4-468.8,423.6z"/>
	<path class="st6" d="M-455.6,444.2l-26.9-42c-1.8-2.8-0.7-6.7,2.5-8.7l56.4-36.1c3.2-2,7.2-1.4,9,1.4l26.9,42
		c1.8,2.8,0.7,6.7-2.5,8.7l-56.4,36.1C-449.8,447.6-453.8,447-455.6,444.2z"/>
	<path class="st7" d="M-384.4,555.5l-95.3-149c-2.4-3.7-0.9-8.9,3.4-11.7l52.6-33.6c4.2-2.7,9.6-1.9,12,1.8l95.3,149
		c2.4,3.7,0.9,8.9-3.4,11.7l-52.6,33.6C-376.7,560-382,559.2-384.4,555.5z"/>
	<path class="st7" d="M46.3,222.6L-56.2,62.4c-2.4-3.7-0.9-8.9,3.4-11.7l52.6-33.6c4.2-2.7,9.6-1.9,12,1.8l102.5,160.2
		c2.4,3.7,0.9,8.9-3.4,11.7l-52.6,33.6C54.1,227.1,48.7,226.3,46.3,222.6z"/>
	<path class="st11" d="M-44.8,80.1l-14.1-22c-1.8-2.8-0.7-6.7,2.5-8.7L0,13.2c3.2-2,7.2-1.4,9,1.4l14.1,22c1.8,2.8,0.7,6.7-2.5,8.7
		l-56.4,36.1C-39,83.5-43.1,82.9-44.8,80.1z"/>
	<path class="st5" d="M-47.6,75.7L-145-76.6c-2.4-3.7-0.9-8.9,3.4-11.7l52.6-33.6c4.2-2.7,9.6-1.9,12,1.8L20.3,32.3
		c2.4,3.7,0.9,8.9-3.4,11.7l-52.6,33.6C-39.9,80.3-45.2,79.5-47.6,75.7z"/>
	<path class="st4" d="M-146.9,114.2L-261-64.2c-2.4-3.7-0.9-8.9,3.4-11.7l52.6-33.6c4.2-2.7,9.6-1.9,12,1.8L-79,70.7
		c2.4,3.7,0.9,8.9-3.4,11.7l-52.6,33.6C-139.2,118.7-144.5,117.9-146.9,114.2z"/>
	<path class="st8" d="M-148.8,110.9l-7.5-11.8c-1.8-2.8-0.7-6.7,2.5-8.7l56.4-36.1c3.2-2,7.2-1.4,9,1.4l7.5,11.8
		c1.8,2.8,0.7,6.7-2.5,8.7l-56.4,36.1C-143,114.3-147,113.7-148.8,110.9z"/>
	<path class="st9" d="M-73,229.4l-80.8-126.3c-2.4-3.7-0.9-8.9,3.4-11.7l52.6-33.6c4.2-2.7,9.6-1.9,12,1.8l80.8,126.3
		c2.4,3.7,0.9,8.9-3.4,11.7L-61,231.2C-65.3,233.9-70.6,233.1-73,229.4z"/>
	<path class="st12" d="M-441.1,614.9l124.9-79.9c-76.5,49-218.9-25.9-338-75.8c-66.5-27.8-156.1-65.7-229.6-81.3l102.5,160.2
		c0.8,0.3,1.5,0.6,2.3,1C-659.9,588.9-517.6,663.8-441.1,614.9z"/>
	<path class="st13" d="M-686.3,686.6l38.6,60.4l99.9-63.9C-583,705.6-632,702-686.3,686.6z"/>
	<path class="st12" d="M-170.9-143.1l-124.9,79.9c62-39.7,228.4,30.6,336.3,75.7L-62-147.7C-107.6-157.4-147-158.4-170.9-143.1z"/>
	<path class="st12" d="M-403.5,7.2l-124.9,79.9c62.4-39.9,230.8,31.6,338.6,76.7c119.1,49.8,261.4,124.7,338,75.8l25-16l-38.6-60.4
		C70.6,145.1-0.6,110.8-65,83.9C-172.8,38.7-341.1-32.8-403.5,7.2z"/>
	<g class="st2">
		<path class="st3" d="M419.3-520.6c-62.4,39.9-68.1,222.7-72.3,339.5c-4.7,129,3.6,289.6-72.9,338.6l-99.9,63.9l-2.6-4.1
			C224,153.3,217.9,13.5,222-101.2c4.2-116.8,9.9-299.6,72.3-339.5L419.3-520.6z"/>
		<path class="st3" d="M650.9-668.8c-62.4,39.9-68.1,222.7-72.3,339.5c-4.7,129,3.6,289.6-72.9,338.6L380.8,89.2
			c76.5-49,68.2-209.6,72.9-338.6c4.2-116.8,9.9-299.6,72.3-339.5L650.9-668.8z"/>
	</g>
	<path class="st4" d="M165.1,201.5L59.7,36.6c-2.4-3.7-0.9-8.9,3.4-11.7l52.6-33.6c4.2-2.7,9.6-1.9,12,1.8L233,158
		c2.4,3.7,0.9,8.9-3.4,11.7l-52.6,33.6C172.9,206,167.5,205.2,165.1,201.5z"/>
	<path class="st5" d="M241.3-75.7l-46.8-73.1c-2.4-3.7-0.9-8.9,3.4-11.7l52.6-33.6c4.2-2.7,9.6-1.9,12,1.8l46.8,73.1
		c2.4,3.7,0.9,8.9-3.4,11.7l-52.6,33.6C249.1-71.1,243.7-72,241.3-75.7z"/>
	<path class="st6" d="M238.8-79.6L220.7-108c-1.8-2.8-0.7-6.7,2.5-8.7l56.4-36.1c3.2-2,7.2-1.4,9,1.4l18.2,28.4
		c1.8,2.8,0.7,6.7-2.5,8.7l-56.4,36.1C244.6-76.2,240.6-76.8,238.8-79.6z"/>
	<path class="st7" d="M341.3,80.6L223.4-103.6c-2.4-3.7-0.9-8.9,3.4-11.7l52.6-33.6c4.2-2.7,9.6-1.9,12,1.8L409.2,37.2
		c2.4,3.7,0.9,8.9-3.4,11.7l-52.6,33.6C349,85.2,343.7,84.4,341.3,80.6z"/>
	<path class="st8" d="M84.1,75.4l-7.5-11.8c-1.8-2.8-0.7-6.7,2.5-8.7l56.4-36.1c3.2-2,7.2-1.4,9,1.4L152,32c1.8,2.8,0.7,6.7-2.5,8.7
		L93,76.8C89.9,78.8,85.8,78.2,84.1,75.4z"/>
	<path class="st9" d="M81.3,71.1L14-34.1c-2.4-3.7-0.9-8.9,3.4-11.7L70-79.3c4.2-2.7,9.6-1.9,12,1.8l67.3,105.1
		c2.4,3.7,0.9,8.9-3.4,11.7L93.3,72.9C89,75.6,83.7,74.8,81.3,71.1z"/>
	<path class="st9" d="M115.7-80.7l-22.4-35c-2.4-3.7-0.9-8.9,3.4-11.7l52.6-33.6c4.2-2.7,9.6-1.9,12,1.8l22.4,35
		c2.4,3.7,0.9,8.9-3.4,11.7l-52.6,33.6C123.4-76.2,118.1-77,115.7-80.7z"/>
	<path class="st10" d="M115.8-80.6l-11.6-18.2c-1.8-2.8-0.7-6.7,2.5-8.7l56.4-36.1c3.2-2,7.2-1.4,9,1.4l11.6,18.2
		c1.8,2.8,0.7,6.7-2.5,8.7l-56.4,36.1C121.6-77.2,117.5-77.8,115.8-80.6z"/>
	<path class="st4" d="M208.9,64.9L108-93c-2.4-3.7-0.9-8.9,3.4-11.7l52.6-33.6c4.2-2.7,9.6-1.9,12,1.8L276.8,21.4
		c2.4,3.7,0.9,8.9-3.4,11.7l-52.6,33.6C216.7,69.4,211.3,68.6,208.9,64.9z"/>
	<path class="st9" d="M518.2-44.8l-77.6-121.3c-2.4-3.7-0.9-8.9,3.4-11.7l52.6-33.6c4.2-2.7,9.6-1.9,12,1.8l77.6,121.3
		c2.4,3.7,0.9,8.9-3.4,11.7L530.2-43C526-40.3,520.6-41.1,518.2-44.8z"/>
	<path class="st10" d="M453.3-146.3l-21-32.8c-1.8-2.8-0.7-6.7,2.5-8.7l56.4-36.1c3.2-2,7.2-1.4,9,1.4l21,32.8
		c1.8,2.8,0.7,6.7-2.5,8.7L462.3-145C459.1-142.9,455.1-143.5,453.3-146.3z"/>
	<path class="st4" d="M449-153.1L299.4-387c-2.4-3.7-0.9-8.9,3.4-11.7l52.6-33.6c4.2-2.7,9.6-1.9,12,1.8L517-196.6
		c2.4,3.7,0.9,8.9-3.4,11.7L461-151.3C456.8-148.6,451.4-149.4,449-153.1z"/>
	<path class="st5" d="M562.5-176.7l-20-31.3c-2.4-3.7-0.9-8.9,3.4-11.7l52.6-33.6c4.2-2.7,9.6-1.9,12,1.8l20,31.3
		c2.4,3.7,0.9,8.9-3.4,11.7l-52.6,33.6C570.2-172.2,564.8-173,562.5-176.7z"/>
	<path class="st6" d="M554-189.9l-26.4-41.2c-1.8-2.8-0.7-6.7,2.5-8.7l56.4-36.1c3.2-2,7.2-1.4,9,1.4l26.4,41.2
		c1.8,2.8,0.7,6.7-2.5,8.7L563-188.5C559.9-186.5,555.8-187.1,554-189.9z"/>
	<path class="st7" d="M551.3-194.2L378.4-464.5c-2.4-3.7-0.9-8.9,3.4-11.7l52.6-33.6c4.2-2.7,9.6-1.9,12,1.8l172.9,270.3
		c2.4,3.7,0.9,8.9-3.4,11.7l-52.6,33.6C559-189.7,553.7-190.5,551.3-194.2z"/>
	<path class="st9" d="M610.1-300.4L488.3-490.9c-2.4-3.7-0.9-8.9,3.4-11.7l52.6-33.6c4.2-2.7,9.6-1.9,12,1.8L678-343.9
		c2.4,3.7,0.9,8.9-3.4,11.7l-52.6,33.6C617.8-295.9,612.5-296.7,610.1-300.4z"/>
	<path class="st5" d="M353-102l-80.2-125.4c-2.4-3.7-0.9-8.9,3.4-11.7l52.6-33.6c4.2-2.7,9.6-1.9,12,1.8L421-145.5
		c2.4,3.7,0.9,8.9-3.4,11.7L365-100.2C360.8-97.5,355.4-98.3,353-102z"/>
	<path class="st6" d="M366.2-81.4l-26.9-42c-1.8-2.8-0.7-6.7,2.5-8.7l56.4-36.1c3.2-2,7.2-1.4,9,1.4l26.9,42
		c1.8,2.8,0.7,6.7-2.5,8.7L375.2-80C372-78,368-78.6,366.2-81.4z"/>
	<path class="st7" d="M437.4,29.8l-95.3-149c-2.4-3.7-0.9-8.9,3.4-11.7l52.6-33.6c4.2-2.7,9.6-1.9,12,1.8l95.3,149
		c2.4,3.7,0.9,8.9-3.4,11.7l-52.6,33.6C445.1,34.4,439.8,33.6,437.4,29.8z"/>
	<path class="st7" d="M868.1-303.1L765.7-463.2c-2.4-3.7-0.9-8.9,3.4-11.7l52.6-33.6c4.2-2.7,9.6-1.9,12,1.8l102.5,160.2
		c2.4,3.7,0.9,8.9-3.4,11.7l-52.6,33.6C875.9-298.5,870.5-299.3,868.1-303.1z"/>
	<path class="st11" d="M777-445.6l-14.1-22c-1.8-2.8-0.7-6.7,2.5-8.7l56.4-36.1c3.2-2,7.2-1.4,9,1.4l14.1,22
		c1.8,2.8,0.7,6.7-2.5,8.7L786-444.2C782.8-442.2,778.8-442.8,777-445.6z"/>
	<path class="st5" d="M774.2-449.9l-97.4-152.3c-2.4-3.7-0.9-8.9,3.4-11.7l52.6-33.6c4.2-2.7,9.6-1.9,12,1.8l97.4,152.3
		c2.4,3.7,0.9,8.9-3.4,11.7l-52.6,33.6C781.9-445.4,776.6-446.2,774.2-449.9z"/>
	<path class="st4" d="M672.4-408L558.3-586.4c-2.4-3.7-0.9-8.9,3.4-11.7l52.6-33.6c4.2-2.7,9.6-1.9,12,1.8l114.1,178.4
		c2.4,3.7,0.9,8.9-3.4,11.7l-52.6,33.6C680.2-403.5,674.8-404.3,672.4-408z"/>
	<path class="st8" d="M670-411.7l-7.5-11.8c-1.8-2.8-0.7-6.7,2.5-8.7l56.4-36.1c3.2-2,7.2-1.4,9,1.4l7.5,11.8
		c1.8,2.8,0.7,6.7-2.5,8.7L679-410.4C675.8-408.3,671.8-408.9,670-411.7z"/>
	<path class="st9" d="M745.8-293.3L665-419.6c-2.4-3.7-0.9-8.9,3.4-11.7l52.6-33.6c4.2-2.7,9.6-1.9,12,1.8l80.8,126.3
		c2.4,3.7,0.9,8.9-3.4,11.7l-52.6,33.6C753.5-288.7,748.2-289.5,745.8-293.3z"/>
	<path class="st12" d="M380.8,89.2L505.6,9.3c-76.5,49-218.9-25.9-338-75.8C101.1-94.3,11.6-132.2-62-147.7L40.5,12.5
		c0.8,0.3,1.5,0.6,2.3,1C161.9,63.3,304.2,138.2,380.8,89.2z"/>
	<path class="st12" d="M134.5,163l38.6,60.4l99.9-63.9C237.8,182,188.8,178.3,134.5,163z"/>
	<path class="st12" d="M650.9-668.8L526-588.9c62-39.7,228.4,30.6,336.3,75.7L759.8-673.4C714.2-683,674.8-684.1,650.9-668.8z"/>
	<path class="st12" d="M419.3-520.6l-124.9,79.9c62.4-39.9,230.8,31.6,338.6,76.7c119.1,49.8,261.4,124.7,338,75.8l25-16l-38.6-60.4
		c-63.9-18.1-135.1-52.3-199.5-79.3C650-489.1,481.7-560.6,419.3-520.6z"/>
</g>
<g id="Layer_4" class="st0">
	<path id="SVGID_x5F_1_x5F_" class="st14" d="M251,403.7c111.5-29.6,169.3-129.6,144.5-240.5"/>
	<text class="st2">	<textPath  xlink:href="#SVGID_x5F_1_x5F_" startOffset="2.11%">
<tspan  class="st17" style="font-family:'OpenSans-Extrabold'; font-size:32px; letter-spacing:150;">(CLICK HERE)</tspan>	</textPath>
</text>
</g>
<g id="Layer_26" class="st0">
	<g class="st2">
		<path class="st15" d="M194.4,277.7v-14.1c0-16.1,2.9-29.5,8.8-40.2c5.9-10.7,16.1-21.8,30.8-33.2c17.4-13.8,28.7-24.5,33.7-32.1
			c5.1-7.6,7.6-16.7,7.6-27.2c0-12.3-4.1-21.8-12.3-28.3c-8.2-6.6-20-9.9-35.4-9.9c-13.9,0-26.8,2-38.7,5.9s-23.4,8.7-34.7,14.3
			l-18.5-38.7c29.7-16.6,61.6-24.8,95.6-24.8c28.7,0,51.5,7,68.3,21.1c16.8,14.1,25.3,33.5,25.3,58.2c0,11-1.6,20.8-4.8,29.3
			c-3.2,8.6-8.1,16.7-14.6,24.5c-6.5,7.8-17.8,17.9-33.7,30.3c-13.6,10.7-22.7,19.6-27.4,26.6c-4.6,7-6.9,16.5-6.9,28.3v9.9H194.4z
			 M185.4,347.8c0-22.1,10.8-33.2,32.3-33.2c10.5,0,18.6,2.9,24.2,8.7c5.6,5.8,8.3,14,8.3,24.5c0,10.4-2.8,18.6-8.5,24.7
			c-5.6,6.1-13.7,9.1-24.1,9.1c-10.4,0-18.4-3-24-8.9C188.2,366.8,185.4,358.5,185.4,347.8z"/>
	</g>
</g>
<g id="Layer_8">
	<circle class="st16" cx="219.2" cy="219.2" r="211.7"/>
	<g>
		<path class="st17" d="M265.8,389.7c-1.1-2.8-1.7-5.5-1.8-8c-0.2-2.5,0.1-4.9,0.9-7l4.8-1.8c-0.6,2.2-0.8,4.5-0.6,7.1
			c0.2,2.6,0.8,5.2,1.8,7.8c1,2.5,2.2,4.8,3.7,6.9c1.5,2,3.2,3.7,5.1,5l-4.7,1.8c-1.9-1-3.6-2.5-5.2-4.5
			C268.2,394.9,266.9,392.5,265.8,389.7z"/>
		<path class="st17" d="M287.7,370.5c-1.3,0.7-2.1,1.7-2.3,3.1c-0.2,1.4,0.2,3.1,1.1,5c2,3.9,4.4,5.2,7.4,3.7c0.9-0.4,1.7-1,2.4-1.7
			s1.4-1.4,2.1-2.2l2.3,4.7c-1.3,1.6-3.1,2.9-5.2,4c-3.1,1.5-5.9,1.8-8.4,0.8c-2.5-1-4.6-3.2-6.3-6.5c-1.1-2.1-1.6-4.2-1.6-6.2
			s0.5-3.8,1.6-5.4c1.1-1.6,2.6-2.9,4.6-3.9c2.2-1.1,4.6-1.7,7.1-1.7l0.5,5.2c-0.9,0-1.8,0.1-2.7,0.2
			C289.5,369.8,288.6,370.1,287.7,370.5z"/>
		<path class="st17" d="M310.8,378.4l-12.7-19l5.1-3.4l9.9,14.9l7.3-4.9l2.8,4.1L310.8,378.4z"/>
		<path class="st17" d="M331,364l-14.6-17.5l4.8-4l14.6,17.5L331,364z"/>
		<path class="st17" d="M338.1,332.6c-1,1.1-1.4,2.3-1,3.7c0.3,1.4,1.2,2.9,2.8,4.3c3.2,3,5.9,3.3,8.2,0.9c0.7-0.7,1.3-1.5,1.7-2.4
			c0.4-0.9,0.9-1.8,1.2-2.8l3.8,3.6c-0.7,2-1.9,3.8-3.5,5.6c-2.4,2.5-4.9,3.7-7.6,3.7s-5.4-1.4-8.2-4c-1.7-1.6-2.9-3.4-3.6-5.3
			c-0.7-1.9-0.8-3.8-0.4-5.6c0.4-1.9,1.4-3.6,3-5.3c1.7-1.8,3.7-3.1,6-4l2.2,4.7c-0.9,0.3-1.7,0.7-2.5,1.2
			C339.5,331.3,338.7,331.9,338.1,332.6z"/>
		<path class="st17" d="M373.7,315.7l-4,5.7l-9.8-1.3l-0.1,2.1l6.3,4.3l-3.5,5.1l-18.8-13l3.5-5.1l8.2,5.6c-0.3-0.6-0.8-1.7-1.3-3.2
			l-3-7.9l3.8-5.6l4.3,11.7L373.7,315.7z"/>
		<path class="st17" d="M391.6,276.4l-2.2,5.8l-8.7-3.3l-2.6,6.7l8.7,3.3l-2.2,5.8l-21.3-8.2l2.2-5.8l7.9,3l2.6-6.7l-7.9-3l2.2-5.8
			L391.6,276.4z"/>
		<path class="st17" d="M397.8,251.9l-3,13.2l-22.3-5l3-13.2l4.8,1.1l-1.6,7.2l3.5,0.8l1.5-6.7l4.8,1.1L387,257l4.2,1l1.6-7.2
			L397.8,251.9z"/>
		<path class="st17" d="M391.8,234.5l8.3,0.8l-0.6,6.1l-22.7-2.1l0.7-7.5c0.6-6.2,3.1-9.1,7.6-8.7c2.6,0.2,4.6,1.7,5.8,4.4l10.5-5.7
			l-0.6,7l-8.7,4.1L391.8,234.5z M387.2,234.1l0.1-1.2c0.2-2.1-0.7-3.3-2.5-3.5c-1.6-0.1-2.4,0.8-2.6,2.9l-0.1,1.2L387.2,234.1z"/>
		<path class="st17" d="M400.8,199.8l0.4,13.6l-22.8,0.7l-0.4-13.6l5-0.2l0.2,7.4l3.6-0.1l-0.2-6.8l5-0.2l0.2,6.8l4.3-0.1l-0.2-7.4
			L400.8,199.8z"/>
		<path class="st17" d="M389.9,183.1c2.9-0.4,5.6-0.3,8.1,0.1s4.6,1.3,6.5,2.5l0.6,5c-1.9-1.1-4.2-1.8-6.7-2.2
			c-2.5-0.4-5.2-0.4-7.9-0.1c-2.7,0.3-5.3,1-7.7,2c-2.4,1-4.4,2.3-6.1,3.8l-0.6-5.1c1.5-1.6,3.5-3,5.8-4
			C384.3,184.1,387,183.4,389.9,183.1z"/>
	</g>
</g>
<g id="Layer_7" class="st0">
	<g class="st2">
		<path class="st18" d="M-127.9,130.8l-3.5-17.1l-23,15.1l-3.5,21.7l-21,13.8l22.9-119l25.5-16.7l23.6,88.6L-127.9,130.8z
			 M-135.4,93.3l-3.1-15c-0.7-3.3-1.6-7.6-2.6-13c-1-5.3-1.7-9.2-2-11.6c-0.3,2.6-0.9,6.9-1.7,13c-0.8,6.1-2.7,18.2-5.6,36.4
			L-135.4,93.3z"/>
		<path class="st18" d="M-12.5,55.2l-19.1,12.5l-0.2-80.6L-49.1-1.5l-0.1-22.9L4.5-59.6l0.1,22.9l-17.2,11.3L-12.5,55.2z"/>
		<path class="st18" d="M48.8-22.6L48.8,15L29.7,27.5L29.5-75.9l23.2-15.2c19.2-12.6,28.9-8.7,28.9,11.7c0,12-4,23.9-12,35.7
			l20.7,31.6L68.7,2L53.6-25.8L48.8-22.6z M48.7-43.7l3.6-2.3c6.7-4.4,10-10.9,10-19.5c0-7.1-3.3-8.5-9.9-4.2l-3.8,2.5L48.7-43.7z"
			/>
		<path class="st18" d="M155.2-54.6l-3.5-17.1l-23,15.1l-3.5,21.7l-21,13.8l22.9-119l25.5-16.7l23.6,88.6L155.2-54.6z M147.6-92.1
			l-3.1-15c-0.7-3.3-1.6-7.6-2.6-13s-1.7-9.2-2-11.6c-0.3,2.6-0.8,6.9-1.7,13c-0.8,6.1-2.7,18.2-5.6,36.4L147.6-92.1z"/>
		<path class="st18" d="M198.6-83.1l-0.2-103.5l19.2-12.6l0.2,103.5L198.6-83.1z"/>
		<path class="st18" d="M279.3-135.9l-19.1,12.5L260-204l-17.3,11.3l-0.1-22.9l53.7-35.2l0.1,22.9l-17.2,11.3L279.3-135.9z"/>
	</g>
</g>
<g id="Layer_6" class="st0">
	<g class="st2">
		<path class="st18" d="M-329.7,38.4c-4.6,3-8.1,8-10.6,15.2c-2.5,7.1-3.8,15.5-3.8,25c0,19.9,5.2,26.5,15.6,19.7
			c3.1-2.1,6.2-4.7,9.1-7.9c2.9-3.2,5.9-6.7,8.9-10.4l0.1,23.6c-5.9,7.7-12.6,14-20,18.9c-10.7,7-18.9,7.8-24.6,2.5
			c-5.7-5.3-8.6-16.6-8.6-33.7c0-10.7,1.3-21,4.1-31c2.7-9.9,6.7-18.8,11.9-26.5c5.2-7.8,11.3-13.9,18.3-18.5c7.7-5,15-7.4,22-7.1
			l-5.8,25.8c-2.6-0.1-5.2,0.1-7.9,0.6C-323.9,35.2-326.7,36.4-329.7,38.4z"/>
		<path class="st18" d="M-238.3,60.7l-3.5-17.1l-23,15.1l-3.5,21.7l-21,13.8l22.9-119l25.5-16.7l23.6,88.6L-238.3,60.7z
			 M-245.9,23.3l-3.1-15c-0.7-3.3-1.6-7.6-2.6-13c-1-5.3-1.7-9.2-2-11.6c-0.3,2.6-0.9,6.9-1.7,13c-0.8,6.1-2.7,18.2-5.6,36.4
			L-245.9,23.3z"/>
		<path class="st18" d="M-134.9-110.7l0.1,62.3c0,13.5-2.6,25.7-7.8,36.6c-5.2,10.9-12.8,19.5-22.7,26c-9.7,6.3-17.1,7.6-22.3,3.8
			c-5.2-3.8-7.8-12.5-7.8-26l-0.1-62.9l19.2-12.6l0.1,60.7c0,7.3,1,12,2.8,14.1c1.9,2.1,4.6,1.9,8.3-0.5c3.9-2.6,6.7-6.1,8.5-10.5
			c1.8-4.4,2.6-10.4,2.6-17.8l-0.1-60.6L-134.9-110.7z"/>
		<path class="st18" d="M-58.7-88.5c0,6.4-1.1,12.8-3.3,19.3c-2.2,6.4-5.4,12.4-9.6,17.9c-4.2,5.5-9.1,10.1-14.8,13.8
			c-4.7,3.1-8.7,5.2-11.9,6.3c-3.2,1.1-6.5,1.6-10,1.5l-0.1-24.9c3.7,0.3,7.5,0,11.4-1.1c3.9-1,7.6-2.6,10.9-4.8
			c2.8-1.9,4.9-3.9,6.2-6.3c1.3-2.3,2-4.6,2-6.9c0-1.4-0.3-2.5-0.8-3.2c-0.5-0.7-1.4-1.2-2.6-1.5c-1.2-0.3-4.3-0.5-9.4-0.5
			c-4.6,0-8.1-0.7-10.4-2.1c-2.3-1.4-4-3.5-5.2-6.5c-1.1-3-1.7-7-1.7-12.1c0-9.5,2.3-18.5,7.1-27c4.7-8.4,11.3-15.4,19.6-20.8
			c7.3-4.8,14.8-7.2,22.4-7.3l-5.8,25.4c-6.6-0.1-12.4,1.4-17.2,4.6c-2.5,1.6-4.3,3.5-5.4,5.5c-1.1,2-1.7,4-1.7,5.9
			c0,2,0.7,3.4,2.2,4c1.4,0.7,5.3,1,11.7,1.1c6.1,0,10.4,1.5,12.7,4.6C-59.9-100.4-58.7-95.4-58.7-88.5z"/>
		<path class="st18" d="M9.3-101.5l-42,27.5L-33-177.4l42-27.5l0,22.4l-22.9,15l0,16.3l21.2-13.9l0.1,22.4l-21.2,13.9l0,19.5
			l22.9-15L9.3-101.5z"/>
		<path class="st18" d="M82.8-181.1c0,6.4-1.1,12.8-3.3,19.3c-2.2,6.4-5.4,12.4-9.6,17.9s-9.1,10.1-14.8,13.8
			c-4.7,3.1-8.7,5.2-11.9,6.3c-3.2,1.1-6.5,1.6-10,1.5l-0.1-24.9c3.7,0.3,7.5,0,11.4-1.1c3.9-1,7.6-2.6,10.9-4.8
			c2.8-1.9,4.9-3.9,6.2-6.3c1.3-2.3,2-4.6,2-6.9c0-1.4-0.3-2.5-0.8-3.2c-0.5-0.7-1.4-1.2-2.6-1.5c-1.2-0.3-4.3-0.5-9.4-0.5
			c-4.6,0-8.1-0.7-10.4-2.1c-2.3-1.4-4-3.5-5.2-6.5c-1.1-3-1.7-7-1.7-12.1c0-9.5,2.3-18.5,7.1-27c4.7-8.4,11.3-15.4,19.6-20.8
			c7.3-4.8,14.8-7.2,22.4-7.3l-5.8,25.4c-6.6-0.1-12.4,1.4-17.2,4.6c-2.5,1.6-4.3,3.5-5.4,5.5s-1.7,4-1.7,5.9c0,2,0.7,3.4,2.2,4
			c1.4,0.7,5.3,1,11.7,1.1c6.1,0,10.4,1.5,12.7,4.6C81.6-193.1,82.8-188.1,82.8-181.1z"/>
	</g>
</g>
<g id="Layer_5" class="st0">
	<g class="st2">
		<path class="st18" d="M-435.6,49.3l-22.6,14.8l-6.9-40.6c-0.3-1.7-0.8-5.1-1.6-10.3c-0.7-5.2-1.2-9.5-1.6-13.1
			c-0.3,3.2-0.7,7.3-1.2,12.3c-0.6,4.9-1.1,9.5-1.7,13.7c-0.6,4.2-2.9,21.2-6.9,51l-22.6,14.8l-17.8-92l18.5-12.1l7.8,46.8
			c1.8,10.3,3,18.7,3.6,25c0.4-5.1,1.1-12.1,2.2-21.1c1.1-9,2.1-16.5,3-22.5l6.2-43.2l17.7-11.6l6.1,35.2c1,5.6,2.1,12.2,3.2,19.7
			c1.1,7.5,1.8,13.2,2.2,17c0.4-5.5,1.5-15.3,3.4-29.5l7.7-57.2l18.5-12.1L-435.6,49.3z"/>
		<path class="st18" d="M-333.4-17.6L-352.6-5l-0.1-42.2L-375-32.7l0.1,42.2l-19.2,12.6l-0.2-103.5l19.2-12.6l0.1,38.4l22.2-14.6
			l-0.1-38.4l19.2-12.6L-333.4-17.6z"/>
		<path class="st18" d="M-259.8-65.9l-3.5-17.1l-23,15.1l-3.5,21.7l-21,13.8l22.9-119l25.5-16.7l23.6,88.6L-259.8-65.9z
			 M-267.3-103.3l-3.1-15c-0.7-3.3-1.6-7.6-2.6-13c-1-5.3-1.7-9.2-2-11.6c-0.3,2.6-0.9,6.9-1.7,13c-0.8,6.1-2.7,18.2-5.6,36.4
			L-267.3-103.3z"/>
		<path class="st18" d="M-185.1-114.8l-19.1,12.5l-0.2-80.6l-17.3,11.3l-0.1-22.9l53.7-35.2l0.1,22.9l-17.2,11.3L-185.1-114.8z"/>
	</g>
</g>
</svg>
