<?xml version="1.0" encoding="utf-8"?>
<!-- Generator: Adobe Illustrator 22.0.0, SVG Export Plug-In . SVG Version: 6.00 Build 0)  -->
<svg version="1.1" id="Layer_1" xmlns="http://www.w3.org/2000/svg" xmlns:xlink="http://www.w3.org/1999/xlink" x="0px" y="0px"
	 viewBox="0 0 113.4 116.5" style="enable-background:new 0 0 113.4 116.5;" xml:space="preserve">
<style type="text/css">
	.st0{fill:#4FC949;}
	.st1{fill:#FFFEE1;}
	.st2{fill:#FF754A;}
</style>
<g>
	<g>
		<path class="st0" d="M56.7,0h33.2c12.9,0,23.5,10.6,23.5,23.5l0,0c0,12.9-10.6,23.5-23.5,23.5H56.7"/>
	</g>
	<g>
		<path class="st1" d="M56.7,47H23.5C10.6,47,0,36.4,0,23.5l0,0C0,10.6,10.6,0,23.5,0h33.2"/>
	</g>
</g>
<g>
	<g>
		<path class="st1" d="M69.4,55.3l27.9,17.9c10.9,7,14,21.6,7.1,32.5l0,0c-7,10.9-21.6,14-32.5,7.1L44,94.9"/>
	</g>
	<g>
		<path class="st2" d="M44,94.9L16.1,76.9C5.2,69.9,2,55.3,9,44.4l0,0c7-10.9,21.6-14,32.5-7.1l27.9,17.9"/>
	</g>
</g>
</svg>
