<?xml version="1.0" encoding="utf-8"?>
<!-- Generator: Adobe Illustrator 23.0.1, SVG Export Plug-In . SVG Version: 6.00 Build 0)  -->
<svg version="1.1" xmlns="http://www.w3.org/2000/svg" xmlns:xlink="http://www.w3.org/1999/xlink" x="0px" y="0px"
	 viewBox="0 0 352.6 325" style="enable-background:new 0 0 352.6 325;" xml:space="preserve">
<style type="text/css">
	.st0{display:none;}
	.st1{display:inline;fill:#99DDC1;}
	.st2{display:inline;}
	.st3{fill:#69AF98;}
	.st4{display:inline;fill:#72B774;}
	.st5{display:inline;fill:#7FCCBF;}
	.st6{display:inline;fill:#71AFA3;}
	.st7{display:inline;fill:#92C174;}
	.st8{display:inline;fill:#69AF69;}
	.st9{display:inline;fill:#76D39C;}
	.st10{display:inline;fill:#4BAF6A;}
	.st11{display:inline;fill:#88B56B;}
	.st12{display:inline;fill:#78C1A3;}
	.st13{display:inline;fill:#54917B;}
	.st14{fill:#FFFFFF;}
	.st15{display:inline;fill:none;stroke:#F4D090;stroke-width:15;stroke-miterlimit:10;}
	.st16{fill:#F4D090;}
	.st17{fill:#FFFFFF;stroke:#FFFFFF;stroke-width:2;stroke-miterlimit:10;}
</style>
<g id="Layer_1" class="st0">
	<rect x="-95" y="-88" class="st1" width="1130" height="800"/>
</g>
<g id="Layer_16" class="st0">
	<g class="st2">
		<path class="st3" d="M117,236.4c-62.4,39.9-68.1,222.7-72.3,339.5C40,705,48.3,865.6-28.3,914.6l-99.9,63.9l-2.6-4.1
			c52.5-63.9,46.4-203.7,50.6-318.5C-76,539-70.3,356.2-7.9,316.3L117,236.4z"/>
		<path class="st3" d="M348.6,88.3c-62.4,39.9-68.1,222.7-72.3,339.5c-4.7,129,3.6,289.6-72.9,338.6L78.5,846.3
			c76.5-49,68.2-209.6,72.9-338.6c4.2-116.8,9.9-299.6,72.3-339.5L348.6,88.3z"/>
	</g>
	<path class="st4" d="M-134.2,957.5l-105.4-164.9c-2.4-3.7-0.9-8.9,3.4-11.7l52.6-33.6c4.2-2.7,9.6-1.9,12,1.8l105.4,164.9
		c2.4,3.7,0.9,8.9-3.4,11.7l-52.6,33.6C-126.4,962.1-131.8,961.3-134.2,957.5z"/>
	<path class="st5" d="M-61,681.4l-46.8-73.1c-2.4-3.7-0.9-8.9,3.4-11.7l52.6-33.6c4.2-2.7,9.6-1.9,12,1.8L7,637.9
		c2.4,3.7,0.9,8.9-3.4,11.7L-49,683.2C-53.2,685.9-58.6,685.1-61,681.4z"/>
	<path class="st6" d="M-63.5,677.5l-18.2-28.4c-1.8-2.8-0.7-6.7,2.5-8.7l56.4-36.1c3.2-2,7.2-1.4,9,1.4L4.5,634
		c1.8,2.8,0.7,6.7-2.5,8.7l-56.4,36.1C-57.7,680.9-61.7,680.3-63.5,677.5z"/>
	<path class="st7" d="M39,837.7L-78.8,653.4c-2.4-3.7-0.9-8.9,3.4-11.7l52.6-33.6c4.2-2.7,9.6-1.9,12,1.8L107,794.3
		c2.4,3.7,0.9,8.9-3.4,11.7L51,839.5C46.8,842.3,41.4,841.4,39,837.7z"/>
	<path class="st8" d="M-220.2,834.5l-7.5-11.8c-1.8-2.8-0.7-6.7,2.5-8.7l56.4-36.1c3.2-2,7.2-1.4,9,1.4l7.5,11.8
		c1.8,2.8,0.7,6.7-2.5,8.7l-56.4,36.1C-214.4,837.9-218.4,837.3-220.2,834.5z"/>
	<path class="st9" d="M-223,830.2L-290.2,725c-2.4-3.7-0.9-8.9,3.4-11.7l52.6-33.6c4.2-2.7,9.6-1.9,12,1.8l67.3,105.1
		c2.4,3.7,0.9,8.9-3.4,11.7L-211,832C-215.2,834.7-220.6,833.9-223,830.2z"/>
	<path class="st9" d="M-189.6,681.3l-22.4-35c-2.4-3.7-0.9-8.9,3.4-11.7l52.6-33.6c4.2-2.7,9.6-1.9,12,1.8l22.4,35
		c2.4,3.7,0.9,8.9-3.4,11.7l-52.6,33.6C-181.8,685.9-187.2,685.1-189.6,681.3z"/>
	<path class="st10" d="M-189.5,681.4l-11.6-18.2c-1.8-2.8-0.7-6.7,2.5-8.7l56.4-36.1c3.2-2,7.2-1.4,9,1.4l11.6,18.2
		c1.8,2.8,0.7,6.7-2.5,8.7l-56.4,36.1C-183.7,684.8-187.7,684.2-189.5,681.4z"/>
	<path class="st4" d="M-93,820.9l-100.9-157.8c-2.4-3.7-0.9-8.9,3.4-11.7l52.6-33.6c4.2-2.7,9.6-1.9,12,1.8L-25,777.5
		c2.4,3.7,0.9,8.9-3.4,11.7L-81,822.7C-85.2,825.5-90.6,824.6-93,820.9z"/>
	<path class="st9" d="M218.9,710.2l-77.6-121.3c-2.4-3.7-0.9-8.9,3.4-11.7l52.6-33.6c4.2-2.7,9.6-1.9,12,1.8l77.6,121.3
		c2.4,3.7,0.9,8.9-3.4,11.7L230.9,712C226.7,714.8,221.3,713.9,218.9,710.2z"/>
	<path class="st10" d="M154,608.7l-21-32.8c-1.8-2.8-0.7-6.7,2.5-8.7l56.4-36.1c3.2-2,7.2-1.4,9,1.4l21,32.8
		c1.8,2.8,0.7,6.7-2.5,8.7L163,610.1C159.8,612.1,155.8,611.5,154,608.7z"/>
	<path class="st4" d="M150.7,603.9L1.2,370.1c-2.4-3.7-0.9-8.9,3.4-11.7l52.6-33.6c4.2-2.7,9.6-1.9,12,1.8l149.6,233.9
		c2.4,3.7,0.9,8.9-3.4,11.7l-52.6,33.6C158.5,608.5,153.1,607.7,150.7,603.9z"/>
	<path class="st5" d="M260.2,580.3l-20-31.3c-2.4-3.7-0.9-8.9,3.4-11.7l52.6-33.6c4.2-2.7,9.6-1.9,12,1.8l20,31.3
		c2.4,3.7,0.9,8.9-3.4,11.7l-52.6,33.6C267.9,584.9,262.6,584.1,260.2,580.3z"/>
	<path class="st6" d="M251.8,567.2L225.4,526c-1.8-2.8-0.7-6.7,2.5-8.7l56.4-36.1c3.2-2,7.2-1.4,9,1.4l26.4,41.2
		c1.8,2.8,0.7,6.7-2.5,8.7l-56.4,36.1C257.6,570.6,253.6,570,251.8,567.2z"/>
	<path class="st7" d="M249,562.9L76.1,292.5c-2.4-3.7-0.9-8.9,3.4-11.7l52.6-33.6c4.2-2.7,9.6-1.9,12,1.8l172.9,270.3
		c2.4,3.7,0.9,8.9-3.4,11.7L261,564.7C256.8,567.4,251.4,566.6,249,562.9z"/>
	<path class="st9" d="M307.8,456.7L186,266.2c-2.4-3.7-0.9-8.9,3.4-11.7l52.6-33.6c4.2-2.7,9.6-1.9,12,1.8l121.8,190.5
		c2.4,3.7,0.9,8.9-3.4,11.7l-52.6,33.6C315.6,461.2,310.2,460.4,307.8,456.7z"/>
	<path class="st5" d="M50.8,655l-80.2-125.4c-2.4-3.7-0.9-8.9,3.4-11.7l52.6-33.6c4.2-2.7,9.6-1.9,12,1.8l80.2,125.4
		c2.4,3.7,0.9,8.9-3.4,11.7l-52.6,33.6C58.5,659.6,53.2,658.8,50.8,655z"/>
	<path class="st6" d="M64,675.7l-26.9-42c-1.8-2.8-0.7-6.7,2.5-8.7L96,588.8c3.2-2,7.2-1.4,9,1.4l26.9,42c1.8,2.8,0.7,6.7-2.5,8.7
		L73,677C69.8,679.1,65.7,678.5,64,675.7z"/>
	<path class="st7" d="M135.1,786.9L39.8,638c-2.4-3.7-0.9-8.9,3.4-11.7l52.6-33.6c4.2-2.7,9.6-1.9,12,1.8l95.3,149
		c2.4,3.7,0.9,8.9-3.4,11.7l-52.6,33.6C142.9,791.4,137.5,790.6,135.1,786.9z"/>
	<path class="st7" d="M565.9,454L463.4,293.8c-2.4-3.7-0.9-8.9,3.4-11.7l52.6-33.6c4.2-2.7,9.6-1.9,12,1.8l102.5,160.2
		c2.4,3.7,0.9,8.9-3.4,11.7l-52.6,33.6C573.6,458.5,568.2,457.7,565.9,454z"/>
	<path class="st11" d="M474.7,311.5l-14.1-22c-1.8-2.8-0.7-6.7,2.5-8.7l56.4-36.1c3.2-2,7.2-1.4,9,1.4l14.1,22
		c1.8,2.8,0.7,6.7-2.5,8.7l-56.4,36.1C480.5,314.9,476.5,314.3,474.7,311.5z"/>
	<path class="st5" d="M471.9,307.2l-97.4-152.3c-2.4-3.7-0.9-8.9,3.4-11.7l52.6-33.6c4.2-2.7,9.6-1.9,12,1.8l97.4,152.3
		c2.4,3.7,0.9,8.9-3.4,11.7L483.9,309C479.7,311.7,474.3,310.9,471.9,307.2z"/>
	<path class="st4" d="M372.6,345.6L258.5,167.2c-2.4-3.7-0.9-8.9,3.4-11.7l52.6-33.6c4.2-2.7,9.6-1.9,12,1.8l114.1,178.4
		c2.4,3.7,0.9,8.9-3.4,11.7l-52.6,33.6C380.4,350.1,375,349.3,372.6,345.6z"/>
	<path class="st8" d="M370.7,342.3l-7.5-11.8c-1.8-2.8-0.7-6.7,2.5-8.7l56.4-36.1c3.2-2,7.2-1.4,9,1.4l7.5,11.8
		c1.8,2.8,0.7,6.7-2.5,8.7l-56.4,36.1C376.6,345.7,372.5,345.1,370.7,342.3z"/>
	<path class="st9" d="M446.5,460.8l-80.8-126.3c-2.4-3.7-0.9-8.9,3.4-11.7l52.6-33.6c4.2-2.7,9.6-1.9,12,1.8l80.8,126.3
		c2.4,3.7,0.9,8.9-3.4,11.7l-52.6,33.6C454.3,465.3,448.9,464.5,446.5,460.8z"/>
	<path class="st12" d="M78.5,846.3l124.9-79.9c-76.5,49-218.9-25.9-338-75.8c-66.5-27.8-156.1-65.7-229.6-81.3l102.5,160.2
		c0.8,0.3,1.5,0.6,2.3,1C-140.4,820.3,1.9,895.2,78.5,846.3z"/>
	<path class="st13" d="M-166.8,918l38.6,60.4l99.9-63.9C-63.4,937-112.5,933.4-166.8,918z"/>
	<path class="st12" d="M348.6,88.3l-124.9,79.9c62-39.7,228.4,30.6,336.3,75.7L457.6,83.7C412,74,372.5,73,348.6,88.3z"/>
	<path class="st12" d="M116,238.6L-8.9,318.5c62.4-39.9,230.8,31.6,338.6,76.7c119.1,49.8,261.4,124.7,338,75.8l25-16L654,394.6
		c-63.9-18.1-135.1-52.3-199.5-79.3C346.8,270.2,178.4,198.7,116,238.6z"/>
	<g class="st2">
		<path class="st3" d="M938.8-289.2c-62.4,39.9-68.1,222.7-72.3,339.5c-4.7,129,3.6,289.6-72.9,338.6l-99.9,63.9l-2.6-4.1
			c52.5-63.9,46.4-203.7,50.6-318.5c4.2-116.8,9.9-299.6,72.3-339.5L938.8-289.2z"/>
		<path class="st3" d="M1170.5-437.4c-62.4,39.9-68.1,222.7-72.3,339.5c-4.7,129,3.6,289.6-72.9,338.6l-124.9,79.9
			c76.5-49,68.2-209.6,72.9-338.6c4.2-116.8,9.9-299.6,72.3-339.5L1170.5-437.4z"/>
	</g>
	<path class="st4" d="M684.6,432.9L579.2,268c-2.4-3.7-0.9-8.9,3.4-11.7l52.6-33.6c4.2-2.7,9.6-1.9,12,1.8l105.4,164.9
		c2.4,3.7,0.9,8.9-3.4,11.7l-52.6,33.6C692.4,437.4,687,436.6,684.6,432.9z"/>
	<path class="st5" d="M760.9,155.7l-46.8-73.1c-2.4-3.7-0.9-8.9,3.4-11.7L770,37.3c4.2-2.7,9.6-1.9,12,1.8l46.8,73.1
		c2.4,3.7,0.9,8.9-3.4,11.7l-52.6,33.6C768.6,160.3,763.2,159.5,760.9,155.7z"/>
	<path class="st6" d="M758.4,151.8l-18.2-28.4c-1.8-2.8-0.7-6.7,2.5-8.7l56.4-36.1c3.2-2,7.2-1.4,9,1.4l18.2,28.4
		c1.8,2.8,0.7,6.7-2.5,8.7l-56.4,36.1C764.2,155.2,760.1,154.6,758.4,151.8z"/>
	<path class="st7" d="M860.8,312.1L743,127.8c-2.4-3.7-0.9-8.9,3.4-11.7l52.6-33.6c4.2-2.7,9.6-1.9,12,1.8l117.9,184.3
		c2.4,3.7,0.9,8.9-3.4,11.7l-52.6,33.6C868.6,316.6,863.2,315.8,860.8,312.1z"/>
	<path class="st8" d="M603.6,306.8l-7.5-11.8c-1.8-2.8-0.7-6.7,2.5-8.7l56.4-36.1c3.2-2,7.2-1.4,9,1.4l7.5,11.8
		c1.8,2.8,0.7,6.7-2.5,8.7l-56.4,36.1C609.4,310.2,605.4,309.6,603.6,306.8z"/>
	<path class="st9" d="M600.8,302.5l-67.3-105.1c-2.4-3.7-0.9-8.9,3.4-11.7l52.6-33.6c4.2-2.7,9.6-1.9,12,1.8L668.8,259
		c2.4,3.7,0.9,8.9-3.4,11.7l-52.6,33.6C608.6,307,603.2,306.2,600.8,302.5z"/>
	<path class="st9" d="M635.2,150.7l-22.4-35c-2.4-3.7-0.9-8.9,3.4-11.7l52.6-33.6c4.2-2.7,9.6-1.9,12,1.8l22.4,35
		c2.4,3.7,0.9,8.9-3.4,11.7l-52.6,33.6C643,155.2,637.6,154.4,635.2,150.7z"/>
	<path class="st10" d="M635.3,150.8l-11.6-18.2c-1.8-2.8-0.7-6.7,2.5-8.7l56.4-36.1c3.2-2,7.2-1.4,9,1.4l11.6,18.2
		c1.8,2.8,0.7,6.7-2.5,8.7l-56.4,36.1C641.1,154.2,637.1,153.6,635.3,150.8z"/>
	<path class="st4" d="M728.5,296.3L627.5,138.5c-2.4-3.7-0.9-8.9,3.4-11.7l52.6-33.6c4.2-2.7,9.6-1.9,12,1.8l100.9,157.8
		c2.4,3.7,0.9,8.9-3.4,11.7l-52.6,33.6C736.2,300.8,730.8,300,728.5,296.3z"/>
	<path class="st9" d="M1037.8,186.6L960.2,65.3c-2.4-3.7-0.9-8.9,3.4-11.7l52.6-33.6c4.2-2.7,9.6-1.9,12,1.8l77.6,121.3
		c2.4,3.7,0.9,8.9-3.4,11.7l-52.6,33.6C1045.5,191.1,1040.1,190.3,1037.8,186.6z"/>
	<path class="st10" d="M972.8,85.1l-21-32.8c-1.8-2.8-0.7-6.7,2.5-8.7l56.4-36.1c3.2-2,7.2-1.4,9,1.4l21,32.8
		c1.8,2.8,0.7,6.7-2.5,8.7l-56.4,36.1C978.7,88.5,974.6,87.9,972.8,85.1z"/>
	<path class="st4" d="M968.6,78.3L819-155.6c-2.4-3.7-0.9-8.9,3.4-11.7l52.6-33.6c4.2-2.7,9.6-1.9,12,1.8l149.6,233.9
		c2.4,3.7,0.9,8.9-3.4,11.7l-52.6,33.6C976.3,82.8,970.9,82,968.6,78.3z"/>
	<path class="st5" d="M1082,54.7l-20-31.3c-2.4-3.7-0.9-8.9,3.4-11.7l52.6-33.6c4.2-2.7,9.6-1.9,12,1.8l20,31.3
		c2.4,3.7,0.9,8.9-3.4,11.7L1094,56.5C1089.7,59.2,1084.4,58.4,1082,54.7z"/>
	<path class="st6" d="M1073.6,41.6l-26.4-41.2c-1.8-2.8-0.7-6.7,2.5-8.7l56.4-36.1c3.2-2,7.2-1.4,9,1.4l26.4,41.2
		c1.8,2.8,0.7,6.7-2.5,8.7l-56.4,36.1C1079.4,45,1075.4,44.3,1073.6,41.6z"/>
	<path class="st7" d="M1070.8,37.2L897.9-233.1c-2.4-3.7-0.9-8.9,3.4-11.7l52.6-33.6c4.2-2.7,9.6-1.9,12,1.8L1138.8-6.2
		c2.4,3.7,0.9,8.9-3.4,11.7L1082.8,39C1078.6,41.8,1073.2,40.9,1070.8,37.2z"/>
	<path class="st9" d="M1129.6-69l-121.8-190.5c-2.4-3.7-0.9-8.9,3.4-11.7l52.6-33.6c4.2-2.7,9.6-1.9,12,1.8l121.8,190.5
		c2.4,3.7,0.9,8.9-3.4,11.7l-52.6,33.6C1137.4-64.4,1132-65.3,1129.6-69z"/>
	<path class="st5" d="M872.6,129.4L792.4,4c-2.4-3.7-0.9-8.9,3.4-11.7l52.6-33.6c4.2-2.7,9.6-1.9,12,1.8l80.2,125.4
		c2.4,3.7,0.9,8.9-3.4,11.7l-52.6,33.6C880.3,133.9,875,133.1,872.6,129.4z"/>
	<path class="st6" d="M885.8,150l-26.9-42c-1.8-2.8-0.7-6.7,2.5-8.7l56.4-36.1c3.2-2,7.2-1.4,9,1.4l26.9,42c1.8,2.8,0.7,6.7-2.5,8.7
		l-56.4,36.1C891.6,153.4,887.6,152.8,885.8,150z"/>
	<path class="st7" d="M956.9,261.3l-95.3-149c-2.4-3.7-0.9-8.9,3.4-11.7L917.6,67c4.2-2.7,9.6-1.9,12,1.8l95.3,149
		c2.4,3.7,0.9,8.9-3.4,11.7l-52.6,33.6C964.7,265.8,959.3,265,956.9,261.3z"/>
	<path class="st7" d="M1387.7-71.6l-102.5-160.2c-2.4-3.7-0.9-8.9,3.4-11.7l52.6-33.6c4.2-2.7,9.6-1.9,12,1.8l102.5,160.2
		c2.4,3.7,0.9,8.9-3.4,11.7l-52.6,33.6C1395.4-67.1,1390-67.9,1387.7-71.6z"/>
	<path class="st11" d="M1296.5-214.2l-14.1-22c-1.8-2.8-0.7-6.7,2.5-8.7l56.4-36.1c3.2-2,7.2-1.4,9,1.4l14.1,22
		c1.8,2.8,0.7,6.7-2.5,8.7l-56.4,36.1C1302.3-210.8,1298.3-211.4,1296.5-214.2z"/>
	<path class="st5" d="M1293.7-218.5l-97.4-152.3c-2.4-3.7-0.9-8.9,3.4-11.7l52.6-33.6c4.2-2.7,9.6-1.9,12,1.8l97.4,152.3
		c2.4,3.7,0.9,8.9-3.4,11.7l-52.6,33.6C1301.5-213.9,1296.1-214.8,1293.7-218.5z"/>
	<path class="st4" d="M1192-176.6L1077.8-355c-2.4-3.7-0.9-8.9,3.4-11.7l52.6-33.6c4.2-2.7,9.6-1.9,12,1.8L1259.9-220
		c2.4,3.7,0.9,8.9-3.4,11.7l-52.6,33.6C1199.7-172,1194.3-172.9,1192-176.6z"/>
	<path class="st8" d="M1189.6-180.3l-7.5-11.8c-1.8-2.8-0.7-6.7,2.5-8.7l56.4-36.1c3.2-2,7.2-1.4,9,1.4l7.5,11.8
		c1.8,2.8,0.7,6.7-2.5,8.7l-56.4,36.1C1195.4-176.9,1191.3-177.5,1189.6-180.3z"/>
	<path class="st9" d="M1265.3-61.8l-80.8-126.3c-2.4-3.7-0.9-8.9,3.4-11.7l52.6-33.6c4.2-2.7,9.6-1.9,12,1.8l80.8,126.3
		c2.4,3.7,0.9,8.9-3.4,11.7L1277.3-60C1273.1-57.3,1267.7-58.1,1265.3-61.8z"/>
	<path class="st12" d="M900.3,320.6l124.9-79.9c-76.5,49-218.9-25.9-338-75.8c-66.5-27.8-156.1-65.7-229.6-81.3l102.5,160.2
		c0.8,0.3,1.5,0.6,2.3,1C681.4,294.7,823.8,369.6,900.3,320.6z"/>
	<path class="st12" d="M654,394.4l38.6,60.4l99.9-63.9C757.4,413.4,708.3,409.7,654,394.4z"/>
	<path class="st12" d="M1170.5-437.4l-124.9,79.9c62-39.7,228.4,30.6,336.3,75.7L1279.4-442C1233.8-451.6,1194.4-452.7,1170.5-437.4
		z"/>
	<path class="st12" d="M938.8-289.2l-124.9,79.9c62.4-39.9,230.8,31.6,338.6,76.7c119.1,49.8,261.4,124.7,338,75.8l25-16l-38.6-60.4
		c-63.9-18.1-135.1-52.3-199.5-79.3C1169.6-257.6,1001.3-329.2,938.8-289.2z"/>
</g>
<g id="Layer_4" class="st0">
	<path id="SVGID_x5F_1_x5F_" style="display:inline;fill:none;" d="M770.6,635.1C882.1,605.5,939.8,505.5,915,394.7"/>
	<text class="st2">	<textPath  xlink:href="#SVGID_x5F_1_x5F_" startOffset="2.11%">
<tspan  class="st16" style="font-family:'OpenSans-Extrabold'; font-size:32px; letter-spacing:150;">(CLICK HERE)</tspan>	</textPath>
</text>
</g>
<g id="Layer_26" class="st0">
	<g class="st2">
		<path class="st14" d="M713.9,509.1v-14.1c0-16.1,2.9-29.5,8.8-40.2c5.9-10.7,16.1-21.8,30.8-33.2c17.4-13.8,28.7-24.5,33.7-32.1
			c5.1-7.6,7.6-16.7,7.6-27.2c0-12.3-4.1-21.8-12.3-28.3c-8.2-6.6-20-9.9-35.4-9.9c-13.9,0-26.8,2-38.7,5.9s-23.4,8.7-34.7,14.3
			l-18.5-38.7c29.7-16.6,61.6-24.8,95.6-24.8c28.7,0,51.5,7,68.3,21.1c16.8,14.1,25.3,33.5,25.3,58.2c0,11-1.6,20.8-4.8,29.3
			c-3.2,8.6-8.1,16.7-14.6,24.5c-6.5,7.8-17.8,17.9-33.7,30.3c-13.6,10.7-22.7,19.6-27.4,26.6c-4.6,7-6.9,16.5-6.9,28.3v9.9H713.9z
			 M704.9,579.2c0-22.1,10.8-33.2,32.3-33.2c10.5,0,18.6,2.9,24.2,8.7c5.6,5.8,8.3,14,8.3,24.5c0,10.4-2.8,18.6-8.5,24.7
			c-5.6,6.1-13.7,9.1-24.1,9.1c-10.4,0-18.4-3-24-8.9C707.7,598.2,704.9,589.9,704.9,579.2z"/>
	</g>
</g>
<g id="Layer_8" class="st0">
	<circle class="st15" cx="738.7" cy="450.6" r="211.7"/>
	<g class="st2">
		<path class="st16" d="M785.4,621.1c-1.1-2.8-1.7-5.5-1.8-8c-0.2-2.5,0.1-4.9,0.9-7l4.8-1.8c-0.6,2.2-0.8,4.5-0.6,7.1
			c0.2,2.6,0.8,5.2,1.8,7.8c1,2.5,2.2,4.8,3.7,6.9c1.5,2,3.2,3.7,5.1,5l-4.7,1.8c-1.9-1-3.6-2.5-5.2-4.5
			C787.7,626.3,786.4,623.9,785.4,621.1z"/>
		<path class="st16" d="M807.3,601.9c-1.3,0.7-2.1,1.7-2.3,3.1c-0.2,1.4,0.2,3.1,1.1,5c2,3.9,4.4,5.2,7.4,3.7c0.9-0.4,1.7-1,2.4-1.7
			s1.4-1.4,2.1-2.2l2.3,4.7c-1.3,1.6-3.1,2.9-5.2,4c-3.1,1.5-5.9,1.8-8.4,0.8c-2.5-1-4.6-3.2-6.3-6.5c-1.1-2.1-1.6-4.2-1.6-6.2
			s0.5-3.8,1.6-5.4c1.1-1.6,2.6-2.9,4.6-3.9c2.2-1.1,4.6-1.7,7.1-1.7l0.5,5.2c-0.9,0-1.8,0.1-2.7,0.2
			C809,601.2,808.1,601.5,807.3,601.9z"/>
		<path class="st16" d="M830.3,609.8l-12.7-19l5.1-3.4l9.9,14.9l7.3-4.9l2.8,4.1L830.3,609.8z"/>
		<path class="st16" d="M850.6,595.4l-14.6-17.5l4.8-4l14.6,17.5L850.6,595.4z"/>
		<path class="st16" d="M857.6,564c-1,1.1-1.4,2.3-1,3.7c0.3,1.4,1.2,2.9,2.8,4.3c3.2,3,5.9,3.3,8.2,0.9c0.7-0.7,1.3-1.5,1.7-2.4
			c0.4-0.9,0.9-1.8,1.2-2.8l3.8,3.6c-0.7,2-1.9,3.8-3.5,5.6c-2.4,2.5-4.9,3.7-7.6,3.7s-5.4-1.4-8.2-4c-1.7-1.6-2.9-3.4-3.6-5.3
			c-0.7-1.9-0.8-3.8-0.4-5.6c0.4-1.9,1.4-3.6,3-5.3c1.7-1.8,3.7-3.1,6-4l2.2,4.7c-0.9,0.3-1.7,0.7-2.5,1.2
			C859,562.7,858.3,563.3,857.6,564z"/>
		<path class="st16" d="M893.3,547.1l-4,5.7l-9.8-1.3l-0.1,2.1l6.3,4.3l-3.5,5.1l-18.8-13l3.5-5.1l8.2,5.6c-0.3-0.6-0.8-1.7-1.3-3.2
			l-3-7.9l3.8-5.6l4.3,11.7L893.3,547.1z"/>
		<path class="st16" d="M911.2,507.8l-2.2,5.8l-8.7-3.3l-2.6,6.7l8.7,3.3l-2.2,5.8l-21.3-8.2l2.2-5.8l7.9,3l2.6-6.7l-7.9-3l2.2-5.8
			L911.2,507.8z"/>
		<path class="st16" d="M917.3,483.3l-3,13.2l-22.3-5l3-13.2l4.8,1.1l-1.6,7.2l3.5,0.8l1.5-6.7l4.8,1.1l-1.5,6.7l4.2,1l1.6-7.2
			L917.3,483.3z"/>
		<path class="st16" d="M911.3,465.9l8.3,0.8l-0.6,6.1l-22.7-2.1l0.7-7.5c0.6-6.2,3.1-9.1,7.6-8.7c2.6,0.2,4.6,1.7,5.8,4.4l10.5-5.7
			l-0.6,7l-8.7,4.1L911.3,465.9z M906.7,465.5l0.1-1.2c0.2-2.1-0.7-3.3-2.5-3.5c-1.6-0.1-2.4,0.8-2.6,2.9l-0.1,1.2L906.7,465.5z"/>
		<path class="st16" d="M920.4,431.2l0.4,13.6l-22.8,0.7l-0.4-13.6l5-0.2l0.2,7.4l3.6-0.1l-0.2-6.8l5-0.2l0.2,6.8l4.3-0.1l-0.2-7.4
			L920.4,431.2z"/>
		<path class="st16" d="M909.5,414.5c2.9-0.4,5.6-0.3,8.1,0.1s4.6,1.3,6.5,2.5l0.6,5c-1.9-1.1-4.2-1.8-6.7-2.2
			c-2.5-0.4-5.2-0.4-7.9-0.1c-2.7,0.3-5.3,1-7.7,2c-2.4,1-4.4,2.3-6.1,3.8l-0.6-5.1c1.5-1.6,3.5-3,5.8-4
			C903.9,415.5,906.5,414.8,909.5,414.5z"/>
	</g>
</g>
<g id="Layer_7" class="st0">
	<g class="st2">
		<path class="st17" d="M391.7,362.2l-3.5-17.1l-23,15.1l-3.5,21.7l-21,13.8l22.9-119l25.5-16.7l23.6,88.6L391.7,362.2z
			 M384.1,324.8l-3.1-15c-0.7-3.3-1.6-7.6-2.6-13c-1-5.3-1.7-9.2-2-11.6c-0.3,2.6-0.9,6.9-1.7,13c-0.8,6.1-2.7,18.2-5.6,36.4
			L384.1,324.8z"/>
		<path class="st17" d="M507,286.6l-19.1,12.5l-0.2-80.6l-17.3,11.3l-0.1-22.9l53.7-35.2l0.1,22.9L506.8,206L507,286.6z"/>
		<path class="st17" d="M568.3,208.8l0.1,37.7L549.3,259L549,155.5l23.2-15.2c19.2-12.6,28.9-8.7,28.9,11.7c0,12-4,23.9-12,35.7
			l20.7,31.6l-21.7,14.2l-15.1-27.8L568.3,208.8z M568.3,187.8l3.6-2.3c6.7-4.4,10-10.9,10-19.5c0-7.1-3.3-8.5-9.9-4.2l-3.8,2.5
			L568.3,187.8z"/>
		<path class="st17" d="M674.7,176.8l-3.5-17.1l-23,15.1l-3.5,21.7l-21,13.8l22.9-119L672,74.5l23.6,88.6L674.7,176.8z M667.2,139.3
			l-3.1-15c-0.7-3.3-1.6-7.6-2.6-13s-1.7-9.2-2-11.6c-0.3,2.6-0.8,6.9-1.7,13c-0.8,6.1-2.7,18.2-5.6,36.4L667.2,139.3z"/>
		<path class="st17" d="M718.2,148.3L718,44.8l19.2-12.6l0.2,103.5L718.2,148.3z"/>
		<path class="st17" d="M798.8,95.5L779.7,108l-0.2-80.6l-17.3,11.3l-0.1-22.9l53.7-35.2l0.1,22.9l-17.2,11.3L798.8,95.5z"/>
	</g>
</g>
<g id="Layer_6" class="st0">
	<g class="st2">
		<path class="st17" d="M189.9,269.8c-4.6,3-8.1,8-10.6,15.2c-2.5,7.1-3.8,15.5-3.8,25c0,19.9,5.2,26.5,15.6,19.7
			c3.1-2.1,6.2-4.7,9.1-7.9c2.9-3.2,5.9-6.7,8.9-10.4l0.1,23.6c-5.9,7.7-12.6,14-20,18.9c-10.7,7-18.9,7.8-24.6,2.5
			c-5.7-5.3-8.6-16.6-8.6-33.7c0-10.7,1.3-21,4.1-31c2.7-9.9,6.7-18.8,11.9-26.5c5.2-7.8,11.3-13.9,18.3-18.5c7.7-5,15-7.4,22-7.1
			l-5.8,25.8c-2.6-0.1-5.2,0.1-7.9,0.6C195.7,266.6,192.9,267.8,189.9,269.8z"/>
		<path class="st17" d="M281.2,292.1l-3.5-17.1l-23,15.1l-3.5,21.7l-21,13.8l22.9-119l25.5-16.7l23.6,88.6L281.2,292.1z
			 M273.7,254.7l-3.1-15c-0.7-3.3-1.6-7.6-2.6-13c-1-5.3-1.7-9.2-2-11.6c-0.3,2.6-0.9,6.9-1.7,13c-0.8,6.1-2.7,18.2-5.6,36.4
			L273.7,254.7z"/>
		<path class="st17" d="M384.7,120.7l0.1,62.3c0,13.5-2.6,25.7-7.8,36.6c-5.2,10.9-12.8,19.5-22.7,26c-9.7,6.3-17.1,7.6-22.3,3.8
			c-5.2-3.8-7.8-12.5-7.8-26l-0.1-62.9l19.2-12.6l0.1,60.7c0,7.3,1,12,2.8,14.1c1.9,2.1,4.6,1.9,8.3-0.5c3.9-2.6,6.7-6.1,8.5-10.5
			c1.8-4.4,2.6-10.4,2.6-17.8l-0.1-60.6L384.7,120.7z"/>
		<path class="st17" d="M460.9,143c0,6.4-1.1,12.8-3.3,19.3c-2.2,6.4-5.4,12.4-9.6,17.9c-4.2,5.5-9.1,10.1-14.8,13.8
			c-4.7,3.1-8.7,5.2-11.9,6.3c-3.2,1.1-6.5,1.6-10,1.5l-0.1-24.9c3.7,0.3,7.5,0,11.4-1.1c3.9-1,7.6-2.6,10.9-4.8
			c2.8-1.9,4.9-3.9,6.2-6.3c1.3-2.3,2-4.6,2-6.9c0-1.4-0.3-2.5-0.8-3.2c-0.5-0.7-1.4-1.2-2.6-1.5c-1.2-0.3-4.3-0.5-9.4-0.5
			c-4.6,0-8.1-0.7-10.4-2.1c-2.3-1.4-4-3.5-5.2-6.5c-1.1-3-1.7-7-1.7-12.1c0-9.5,2.3-18.5,7.1-27c4.7-8.4,11.3-15.4,19.6-20.8
			c7.3-4.8,14.8-7.2,22.4-7.3l-5.8,25.4c-6.6-0.1-12.4,1.4-17.2,4.6c-2.5,1.6-4.3,3.5-5.4,5.5c-1.1,2-1.7,4-1.7,5.9
			c0,2,0.7,3.4,2.2,4c1.4,0.7,5.3,1,11.7,1.1c6.1,0,10.4,1.5,12.7,4.6C459.7,131,460.9,136,460.9,143z"/>
		<path class="st17" d="M528.8,129.9l-42,27.5L486.6,54l42-27.5l0,22.4l-22.9,15l0,16.3L527,66.3l0.1,22.4l-21.2,13.9l0,19.5
			l22.9-15L528.8,129.9z"/>
		<path class="st17" d="M602.4,50.3c0,6.4-1.1,12.8-3.3,19.3c-2.2,6.4-5.4,12.4-9.6,17.9s-9.1,10.1-14.8,13.8
			c-4.7,3.1-8.7,5.2-11.9,6.3c-3.2,1.1-6.5,1.6-10,1.5l-0.1-24.9c3.7,0.3,7.5,0,11.4-1.1c3.9-1,7.6-2.6,10.9-4.8
			c2.8-1.9,4.9-3.9,6.2-6.3c1.3-2.3,2-4.6,2-6.9c0-1.4-0.3-2.5-0.8-3.2c-0.5-0.7-1.4-1.2-2.6-1.5c-1.2-0.3-4.3-0.5-9.4-0.5
			c-4.6,0-8.1-0.7-10.4-2.1c-2.3-1.4-4-3.5-5.2-6.5c-1.1-3-1.7-7-1.7-12.1c0-9.5,2.3-18.5,7.1-27c4.7-8.4,11.3-15.4,19.6-20.8
			c7.3-4.8,14.8-7.2,22.4-7.3l-5.8,25.4c-6.6-0.1-12.4,1.4-17.2,4.6c-2.5,1.6-4.3,3.5-5.4,5.5s-1.7,4-1.7,5.9c0,2,0.7,3.4,2.2,4
			c1.4,0.7,5.3,1,11.7,1.1c6.1,0,10.4,1.5,12.7,4.6C601.1,38.3,602.3,43.3,602.4,50.3z"/>
	</g>
</g>
<g id="Layer_5">
	<g>
		<path class="st17" d="M84,280.7l-22.6,14.8l-6.9-40.6c-0.3-1.7-0.8-5.1-1.6-10.3c-0.7-5.2-1.2-9.5-1.6-13.1
			c-0.3,3.2-0.7,7.3-1.2,12.3c-0.6,4.9-1.1,9.5-1.7,13.7c-0.6,4.2-2.9,21.2-6.9,51l-22.6,14.8l-17.8-92l18.5-12.1l7.8,46.8
			c1.8,10.3,3,18.7,3.6,25c0.4-5.1,1.1-12.1,2.2-21.1c1.1-9,2.1-16.5,3-22.5l6.2-43.2l17.7-11.6l6.1,35.2c1,5.6,2.1,12.2,3.2,19.7
			c1.1,7.5,1.8,13.2,2.2,17c0.4-5.5,1.5-15.3,3.4-29.5l7.7-57.2l18.5-12.1L84,280.7z"/>
		<path class="st17" d="M186.1,213.8l-19.2,12.6l-0.1-42.2l-22.2,14.6l0.1,42.2l-19.2,12.6l-0.2-103.5l19.2-12.6l0.1,38.4l22.2-14.6
			l-0.1-38.4l19.2-12.6L186.1,213.8z"/>
		<path class="st17" d="M259.8,165.5l-3.5-17.1l-23,15.1l-3.5,21.7l-21,13.8l22.9-119l25.5-16.7l23.6,88.6L259.8,165.5z
			 M252.2,128.1l-3.1-15c-0.7-3.3-1.6-7.6-2.6-13s-1.7-9.2-2-11.6c-0.3,2.6-0.9,6.9-1.7,13c-0.8,6.1-2.7,18.2-5.6,36.4L252.2,128.1z
			"/>
		<path class="st17" d="M334.5,116.6l-19.1,12.5l-0.2-80.6l-17.3,11.3L297.8,37l53.7-35.2l0.1,22.9L334.3,36L334.5,116.6z"/>
	</g>
</g>
</svg>
