<?xml version="1.0" encoding="utf-8"?>
<svg version="1.1" id="StateIcons" xmlns="http://www.w3.org/2000/svg" xmlns:xlink="http://www.w3.org/1999/xlink">
	<g id="fedIcon">
		<g>
			<path fill="#EF6E50" d="M166.6,154.7c-4.1-0.5-8.2-0.9-12.3-1.6c-4.7-0.9-9.5-1.2-14.2-1.9c-4.9-0.8-9.8-1.6-14.7-2.4
				c-2.4-0.4-4.7-1-7.1-1.6c-8.4-2.3-17.6-2.8-26.2-4.3s-17.5-3-26.1-3.5c-12.3-0.7-24.6-4.1-36.8-5.2c-3.6-0.3-7.1-0.6-10.7-1.2
				c-3.3-0.5-6.4-1.6-9.6-2.1c-0.4-0.1-6.1-0.8-8.9-1.2v52.8h180v-26c-1.5-0.2-3-0.4-4.5-0.7C172.6,155.2,169.5,155,166.6,154.7z"/>
		</g>
		<path fill="#707070" d="M84.7,162c-0.2-2-1.7-8.6-13.6-11.9c-0.8-0.2-1.5-0.4-2.3-0.7c-2.5-0.7-5-1.5-7.6-1.8
			c-2.1-0.2-4.2-0.5-6.1-0.7c-1.4-0.2-2.8-0.3-4.2-0.5c-3.4-0.4-7.4-0.8-11.4-0.8c-0.2,0-0.5,0-0.7,0c-9.1,0.1-19.2-0.1-27.9,3.2
			c-1.9,0.7-3.7,1.8-5.2,2.8L5.3,152c-1.7,1.1-2.8,3.1-3,5.4c-0.2,2.8,0.8,5.5,2.8,7.2c4.8,4.2,9.7,9.2,15.7,11.6
			c6.7,2.7,13.8,4.1,21.1,4.1c5.5,0,11.3-0.8,17.1-2.4c6.7-1.8,13.2-3.9,19.8-6.1C83.5,170.3,85.1,167,84.7,162z"/>
		<g>
			<path fill="#EFEEDF" d="M56.2,175.1c-1.1,0-2.2,0-3.2,0h-0.3c-2.4,0-4.8,0-7.2-0.1c-1.8,0-3.5,0-5.3,0h-0.5c-0.8,0-1.6,0-2.4,0
				c-0.8,0-1.6,0-2.4,0c-1.4,0-2.6,0-3.6-0.1c-2.2-0.2-4.4-0.6-6.5-1.1c-0.5-0.1-1-0.2-1.4-0.3c-1.8-0.4-3.6-0.8-5.3-1.2
				c-0.5-0.1-0.9-0.2-1.4-0.3c7.4,3.5,15.2,5.3,23.2,5.3C45.1,177.3,50.6,176.6,56.2,175.1z"/>
		</g>
		<g>
			<path fill="#EFEEDF" d="M70.3,153c-0.8-0.2-1.6-0.4-2.4-0.7c-2.3-0.7-4.7-1.4-7.1-1.6c-2-0.2-4.1-0.5-6.1-0.7
				c-1.4-0.2-2.8-0.3-4.2-0.5c-3.3-0.4-7.2-0.8-11.1-0.8c-0.2,0-0.4,0-0.7,0c-1,0-2,0-3,0c-7.9,0-16.1,0.1-23.8,2.9
				c-1.6,0.6-3.1,1.6-4.6,2.5l-0.4,0.3c-0.9,0.6-1.5,1.7-1.6,3.2c-0.1,1.8,0.5,3.6,1.8,4.7c0.4,0.4,0.9,0.8,1.3,1.2
				c1.1,1.1,2.3,2.2,3.6,3c2.3,1.4,4.8,2.8,7.4,3.4c3.5,0.8,7.1,1.1,10.7,1.5l1.1,0.1c3.4,0.3,7,0.5,11.7,0.6c0.4,0,0.8,0,1.1,0
				c1,0,2,0,3-0.1c1,0,2-0.1,3.1-0.1c0.2,0,0.5,0,0.7,0c4,0.1,8.1,0.2,12.1,0.3c1.7,0,3.3,0.1,5,0.1c2.9-0.1,5.4-1.3,7.9-2.5
				c0.6-0.3,1.1-0.5,1.7-0.8c2.9-1.4,4.4-3.8,4.1-6.9C81.6,161.2,80.6,155.9,70.3,153z M73,162.7c-3.2,1.9-6.1,2.8-9.1,2.8
				c-0.8,0-1.5-0.1-2.3-0.2l-1.8-0.3l1.8-0.4c0.3-0.1,0.7-0.2,1-0.2c0.8-0.2,1.5-0.3,2.3-0.5l0.5-0.1c1-0.2,2-0.5,2.9-0.8
				c0.7-0.3,1.5-0.6,2.2-0.9c0.3-0.1,0.5-0.2,0.8-0.3c-0.2-0.1-0.4-0.2-0.6-0.3c-0.6-0.3-1.1-0.5-1.7-0.6l-2-0.3
				c-2.9-0.5-5.9-1-8.9-1.4c-1.6-0.2-3.2-0.2-4.8-0.2c-1.5,0-3-0.1-4.5-0.2c-1.7-0.2-3.5-0.4-5.2-0.6c-1.5-0.2-3.1-0.4-4.7-0.6
				c-1.7-0.2-3.5-0.3-5.4-0.3c-2.4,0-4.9,0.1-7.9,0.4c-0.8,0.1-1.7,0.1-2.5,0.2c-0.3,0-0.6,0-0.9,0.1c0.2,0.1,0.4,0.2,0.6,0.3
				c0.7,0.4,1.3,0.8,2,1l1,0.3c2.7,0.8,5.6,1.6,8.4,2c2.9,0.4,5.8,0.7,8.6,1c1.3,0.1,2.6,0.2,3.9,0.4c0.2,0,0.5,0.1,0.8,0.1
				c0.2,0,0.3,0.1,0.5,0.1l2.9,0.5l-2.9,0.2c-0.5,0-1,0.1-1.5,0.2c-0.8,0.1-1.5,0.2-2.2,0.2c-0.2,0-0.4,0-0.7,0
				c-4.9-0.4-9.2-0.9-13.3-1.4c-2.3-0.3-5-0.7-7.5-1.5c-1.2-0.4-2.1-1.2-3.1-2.1c-0.2-0.2-0.5-0.4-0.7-0.6c-0.2-0.2-0.2-0.4-0.2-0.6
				c0-0.2,0.2-1.1,0.7-1.3c1-0.5,2.1-1,3.2-1.1c4-0.4,7.4-0.6,10.4-0.6c2.7,0,5.3,0.1,7.7,0.5c3.3,0.4,6.6,0.7,9.8,1.1
				c2.6,0.3,5.2,0.5,7.9,0.8c3.3,0.4,6.8,0.9,11.2,1.6c0.9,0.1,1.8,0.5,3,1.1c0.6,0.3,0.9,0.8,1,1.4C73.8,161.9,73.6,162.4,73,162.7z
				"/>
		</g>
		<path fill="#707070" d="M176.9,151.2c-8.2-2.3-16.6-4.1-25-5.3c-3.8-0.6-7.7-1.2-11.5-1.3c-1.9,0-10.5,2.3-11.6,1.5
			c5.1,3.5,10.5,6,14.9,10.2c4.1,4.1,9.8,6.5,15.6,7c4,0.3,8.1-0.4,11.5-2.4S176.7,155.2,176.9,151.2z"/>
		<path fill="#707070" d="M78.1,133.5c-2-0.8-4.7-0.4-6.8-0.7c-4.1-0.5-8.2-0.9-12.4-1.3c-4.6-0.4-9.3-0.6-13.9-1
			c-2.4-0.2-8.8-2-10.7-0.2c-0.8,0.7-0.9,1.9-0.9,2.9c-0.1,5.8,0.3,9.7,6.5,11.8c6,2,13.9,2.1,19.4-1
			C65.7,140.4,71.7,136.7,78.1,133.5z"/>
		<g>
			<path fill="#EFEEDF" d="M122.5,143.4C122.5,143.4,122.6,143.4,122.5,143.4c-2.1,0-8.7-4.2-10.7-5.5c-0.6-0.4-1.2-0.8-1.7-1.2
				c-1-0.7-1.8-1.4-2.9-1.9c-0.9-0.4-2-0.6-3.2-0.6c-1.3,0-2.7,0.2-4.1,0.7c-0.4,0.1-0.7,0.3-1.1,0.6c-0.6,0.3-1.1,0.7-1.8,0.8
				c-1.8,0.2-3.5-0.7-5.1-1.6l-0.4-0.3c-1-0.6-1.9-1.1-2.8-1.5c-1.2-0.6-2.4-0.8-3.7-0.7c-4.5,0.2-8.6,1.9-12.1,4.5
				C89.2,139.8,105.8,142.1,122.5,143.4z"/>
		</g>
		<g>
			<path fill="#EFEEDF" d="M166.4,128.6c-0.8-0.2-1.3-0.4-1.6-0.5c-3.7-1.3-7.3-2.2-10.8-2.8c-1.8-0.3-3.7-0.4-5.5-0.4
				c-1,0-2.1-0.1-3.1-0.2c0.8,1.2,1.5,2.5,2.3,3.7c0.6,0.9,1.1,1.8,1.7,2.7c0,0,0.5,0.9,0,1.3c-0.3,0.2-0.6,0.4-1,0.4h-0.2
				c-0.6-0.1-1.3-0.4-2-0.7c-2.4-1-4.7-2-7.1-2.9c-2.2-0.9-4.3-1.8-6.5-2.7c-0.7-0.3-1.4-0.6-2.1-0.8c-1.2-0.4-2.3-0.9-3.5-1.4
				c-1-0.4-1.9-0.9-2.8-1.4c-1.3-0.7-2.7-1.3-4-1.9c-0.4-0.2-0.9-0.3-1.4-0.4c-0.9-0.3-1.9-0.5-2.7-1.2c-1.7-1.4-2.1-3-2.6-4.9
				l-0.1-0.5c-0.7-2.6-2.6-4.7-4.4-6.9c-0.4-0.5-0.9-1-1.3-1.5s-0.9-1-1.4-1.3s-1.1-0.3-1.5-0.1c-0.3,0.2-0.5,0.7-0.5,1.2
				c0,0.4,0.1,0.9,0.5,1.5c0.4,0.9,1,1.7,1.7,2.3c0.2,0.2,0.4,0.4,0.6,0.6c0.4,0.3,0.8,0.7,1.1,1.1c0.5,0.6,1,1.4,1,2.5v0.5h-0.5
				c-0.6,0-1.2-0.3-1.6-0.5s-0.8-0.4-1.1-0.7c-0.9-0.5-1.8-1-2.7-1.3c0.4,1,0.3,2,0.3,3c0,0.2,0,0.4,0,0.6c-0.1,1.4-1.1,2.3-2,3.1
				c0.1,0.1,0.2,0.3,0.3,0.4c1.1,1.4,2.8,3.5,2.3,5.2c-0.2,0.8-0.8,1.3-1.8,1.7c-0.4,0.1-0.4,0.2-0.4,0.2c0,0.1,0.1,0.3,0.1,0.4
				l0.1,0.2c0.5,1.4,0.4,3-0.3,4.1c-0.2,0.3-0.5,0.6-0.8,0.8c-0.5,0.4-0.7,0.6-0.7,0.8l2.8-0.5c0.5-0.1,0.9-0.2,1.4-0.2
				c0.1,0,0.2,0,0.2,0c3.2,0.2,5.9,1.8,8.5,3.4l0.7,0.5c2,1.2,4.1,2.3,6.2,3.4c1.2,0.6,2.4,1.2,3.5,1.8c0.8,0.5,1.7,0.9,2.5,1.4
				c0.4,0.2,0.7,0.5,1.1,0.8c0.6,0.4,1.1,0.8,1.6,1.1c1.9,1.1,3.7,2.1,5.7,3.1l1.3,0.7c3.6,1.9,7.3,3.8,10.2,7.1
				c0.1,0.1,0.2,0.2,0.2,0.2l2.5,1.5c1.6,0.9,3.1,1.9,4.7,2.9c0.4,0.3,0.9,0.4,1.5,0.5c0.4,0.1,0.7,0.2,1,0.3
				c0.5,0.2,1.2,0.3,1.9,0.4l0.6,0.1c0.1,0,0.1,0,0.2,0c0.2,0,0.4,0,0.7-0.1c0.1,0,0.3-0.1,0.4-0.1l1.7-0.3c0.9-0.1,1.8-0.3,2.7-0.4
				c0.3,0,0.6-0.1,1-0.1s0.7-0.1,1.1-0.1c0.3,0,0.6-0.1,0.9-0.1c0.6-0.1,1.3-0.1,1.7-0.4c2.4-1.8,4.2-4.3,4.9-7.2
				c1.2-4.6,1.5-9.5,1.8-14.2v-0.7c0.1-1.6,0.1-3.3,0.1-5C174.5,130.9,168.4,129.2,166.4,128.6z"/>
		</g>
		<g>
			<path fill="#EFEEDF" d="M84.7,128.5c0.4,0,0.9-0.1,1.3-0.1c0.8,0,1.4,0.1,1.9,0.3c1.9,0.9,3.8,1.9,5.6,2.8l0.5,0.2
				c0.3,0.2,0.6,0.4,0.9,0.6c0.4,0.3,0.8,0.6,1.2,0.7c0.1,0,0.1,0,0.2,0c0.2,0,0.2-0.4,0.2-0.5c0.1-0.6-0.3-1.2-0.8-1.8l-0.2-0.2
				c-1-1.5-2.5-2.9-4.2-4.1l-0.5-0.3c-0.8-0.6-1.6-1.1-2.4-1.5c-0.1,0-0.2-0.1-0.3-0.1c-0.6-0.2-1.6-0.6-1.3-1.9
				c0-0.1,0.1-0.3,0.2-0.5c0.3-0.2,0.6-0.4,1-0.4c1.2,0,2.8,1,4,1.7c0.3,0.2,0.6,0.4,0.8,0.4c1.4,0.9,2.6,1.9,3.8,3
				c0.4,0.3,1.3,1.1,1.8,1c0.2-0.1,0.2-0.2,0.3-0.2c0.1-0.2,0-0.7-0.2-1.2c-0.8-1.8-2.5-3.3-4.1-4.6l-0.7-0.6c-0.6-0.5-1.2-0.9-2-1.3
				c-0.2-0.1-0.5-0.3-0.7-0.4c-0.1-0.1-0.2-0.1-0.4-0.2c-0.7-0.3-1.6-0.8-1.9-1.5c-0.1-0.3,0-0.6,0.1-0.9c0.1-0.2,0.4-0.5,1.1-0.5
				c1.5,0,4.2,1.6,5.3,2.3c0.7,0.4,1.3,1,1.9,1.6c0.5,0.4,0.9,0.9,1.4,1.2c0.4,0.3,1,0.5,1.6,0.7c0.1,0,0.2,0.1,0.3,0.1
				c0-0.3,0-0.5-0.1-0.6l-0.4-0.6c-0.7-0.9-1.4-1.9-2.2-2.7c-1.3-1.2-2.7-2.4-4.2-3.4c-0.4-0.3-1-0.5-1.6-0.7c-1-0.3-2-0.7-2.6-1.4
				c-0.1-0.2-0.3-0.4-0.3-0.7c-0.1-0.5,0-0.8,0.2-1c0.7-0.8,2.5-0.4,6.2,1.2l0.2,0.1c1,0.4,2.1,0.9,3.1,1.4l0.5,0.2
				c0.2,0.1,0.7,0.3,1,0.3c0.2,0,0.3-0.1,0.4-0.2c0.3-0.6-0.4-1.7-0.9-2.2c-1.6-1.5-3.6-2.6-6.1-3.1c-0.6-0.1-1.2-0.2-1.9-0.2
				c-1.6,0-3.2,0.4-4.7,0.7h-0.2c-0.5,0.1-0.9,0.2-1.4,0.4c-0.5,0.2-1,0.3-1.5,0.4c-0.4,0.1-1.2-0.1-1.4-0.6
				c-0.2-0.4-0.1-1.1,0.3-1.5s1-0.7,1.4-0.8c1.4-0.5,2.9-0.9,4.3-1.3c0.4-0.1,1-0.7,1.3-1.3c0.2-0.4,0.3-0.8,0.2-1.1
				c-0.1-0.2-0.4-0.4-0.5-0.4c-0.7,0-1.4,0.2-2,0.5c-0.7,0.3-1.3,0.7-2,1.1c-0.3,0.2-0.7,0.4-1,0.6c-2.9,1.7-5.3,4.1-7,6
				c-0.4,0.5-1,1.1-1.8,1.4c-1.9,0.7-3.9,1.4-5.9,2c-2.2,0.8-4.6,1.6-6.8,2.4l-0.5,0.2c-3.3,1.2-6.8,2.5-9.6,4.8
				c-0.3,0.3-0.7,0.5-1.2,0.5c-0.2,0-0.7-0.1-1-0.7s0.2-1.6,0.7-1.9c1-0.8,2.2-1.7,3.6-2.3c1.9-0.9,3.8-1.7,5.6-2.5l0.3-0.1
				c-2.1-0.6-4.3-1.1-6.7-1.5c-0.8-0.1-1.5-0.4-2.3-0.6c-1.1-0.3-2.1-0.6-3.2-0.6c-0.2,0-0.4,0-0.6,0c-0.2,0-0.5,0-0.8,0.1
				c-0.7,0.1-2.1,0.2-2.5,0.3c-0.6,0.4-1.3,2.1-1.7,3.1c-0.2,0.4-0.3,0.8-0.5,1.1c-0.6,1.3-1.3,2.8-2.1,4.6c-2,4.7-3.2,9.1-3.6,13.6
				c-0.2,2.5,0.5,4.4,2.3,6c0.5,0.4,1.1,0.6,1.7,0.9c0.4,0.2,0.9,0.4,1.3,0.6c4.1,2.3,8.5,2.3,13.1,0.2c1.3-0.6,2.6-1.3,4.1-2.2
				c2.1-1.3,4.2-2.6,6.2-4l0.2-0.1c3.3-2.4,6.8-4.9,10.9-6.5C79.2,129.3,81.7,128.8,84.7,128.5z"/>
		</g>
		<g>
			<path fill="#EFEEDF" d="M54.3,109.7c0.5,0.1,1.9,0.6,3.7,1.2c2.2,0.8,5.8,2,6.8,2.2c1.1-1.7,2-3.4,3-5.1c1.2-2.1,2.4-4.3,3.8-6.3
				c2.7-3.9,5.8-7.4,9.3-10.6c1.2-1.1,2.6-2.2,4.3-2.7l0.4-0.1l0.7,1.3L86,89.8c-1.2,1.3-2.4,2.5-3.6,3.7c-2.2,2.2-4.4,4.4-6.4,7
				c-2.7,3.6-5.5,7.5-7.7,11.9c0.3-0.1,0.6-0.2,0.9-0.3c0.8-0.3,1.7-0.6,2.5-0.8c2-0.6,3.4-1.4,4.5-2.7c0.9-1,1.9-2,3.2-2.9
				c0.9-0.7,1.9-1.3,2.8-2c1.1-0.7,2.2-1.5,3.2-2.3c1.3-1,2.8-1.4,4.6-1.3c1.4,0.1,2.6,0.8,3.2,1.9s0.6,2.4-0.1,3.6
				c0,0-0.1,0.1-0.1,0.2c0.1,0,0.1,0,0.2,0.1c0.9,0.2,1.8,0.6,2.6,1.1c0.7,0.3,1.3,0.7,2,0.9c0.7,0.2,1.4,0.3,2.2,0.3
				c0.5,0,1.1,0.1,1.6,0.2c-1.1-2.2-2.1-4.8,1-6.6c0.8-0.5,1.7-0.7,2.6-0.7s1.7,0.2,2.5,0.6c1.2,0.6,2.2,1.7,3,2.5
				c1.8,1.9,3.6,4,4.7,6.5c0.4,0.8,0.6,1.7,0.8,2.6c0.3,1.7,0.6,3.1,2.3,3.7c2.2,0.8,4.2,1.8,6.3,2.9c1.1,0.6,2.3,1.2,3.5,1.7
				c0.5,0.2,0.9,0.4,1.4,0.7c1.1,0.5,2.3,1.1,3.4,1.5c4.5,1.5,8.1,3.1,11.4,4.9c-2.6-3.4-4.7-7.4-6.3-11.9c-0.1-0.3-0.2-0.6-0.3-0.9
				c-0.2-0.8-0.4-1.5-0.8-2c-0.6-0.8-1.1-1.6-1.5-2.4c-0.4-0.7-0.7-1.4-1.2-2c-0.4-0.6-0.9-0.9-1.4-1.3c-0.4-0.3-0.9-0.6-1.3-1.1
				c-0.6-0.7-0.5-1.3-0.4-1.6c0.3-0.5,0.9-0.9,1.8-0.9c0.5,0,1,0.1,1.4,0.4c0.6,0.4,0.9,1,1.3,1.6c0,0.1,0.1,0.1,0.1,0.2
				c0-1-0.2-2.1-0.4-3.2c-0.1-0.5-0.2-1-0.2-1.5v-0.2l0.2-0.2c0.5-0.5,1.6-0.2,1.9,0.5c0.6,1.4,0.9,3,1.1,4.5c0.1,1,0.3,1.9,0.5,2.8
				c0.7,2.5,1.4,5,2.3,7.2c0.1,0.4,0.3,0.7,0.4,1.1c0.7,2,1.3,3.7,3.5,3.5c1-0.1,2.1-0.2,3.2-0.2c4.3,0,8.4,0.8,12,2.3
				c2.4,1,5,1.7,7.5,2.4c2.4,0.7,4.8,1.3,7.2,2.3c-0.2-1.2-0.5-2.5-0.8-3.7c-0.2-0.7-0.3-1.4-0.5-2c-0.2-1-0.4-2-0.7-3.1
				c-0.4-2.1-0.9-4.2-1.4-6.3c-0.4-1.5-0.8-3.1-1.3-4.6c-0.3-1-0.6-2-0.9-3c-1-3.6-2.4-6.7-4.3-9.3c-1-1.3-1.8-2.7-2.7-4.1
				c-0.5-0.9-1.1-1.7-1.7-2.6c-1.8-2.7-4.5-6.1-8.5-8.1c-0.6-0.3-1.2-0.5-1.9-0.7c-2.7-0.9-2.5-0.2-4.8,1.1c-2,1.2-4.4,2-6.6,2.6
				c-4.4,1.2-9.1,1.5-13.7,0.8c-0.4-0.1-0.9-0.3-0.8-0.7c0.1-0.3,0.4-0.3,0.6-0.4c6.1-1.2,14.3-1.2,19-5.5l1.4-1.3
				c3.9-3.5,7.9-7.5,10.3-12.5c3-6.4,4-12.8,4.5-20.5c0.4-5.3-0.7-10.3-3.2-14.8c-2.3-4.2-5.6-7.7-8.8-10.9c-1.6-1.6-3.6-3.1-6.1-4.8
				l-0.1-0.1c-2.3-3.5-4.7-6.8-7.3-9.9c-0.9-1.1-1.8-2.1-2.9-2.8c-1.2-0.7-2.5-1-3.6-0.6c-0.7,0.2-1.2,0.6-1.5,1.3
				c-0.4,0.8-0.4,1.9,0,3L125.9,5c-0.8-1.4-2.5-2.3-3.9-2c-0.8,0.2-1.4,0.6-1.8,1.2c-0.5,0.8-0.5,2-0.1,3.1l0.2,0.6L119.7,8
				c-1.4,0.2-2.7,0.5-4,0.9c-1.6,0.5-3.2,1.1-4.4,1.6c-0.4,0.1-0.7,0.3-1.1,0.4c-0.4,0.1-0.7,0.1-1,0.1h-0.3
				c-2.8,0.1-5.4,0.9-8.6,2.6c-0.4,0.2-1.5,1.1-1.8,1.6c0.1,0,0.3,0,0.4,0c0.9-0.1,1.8-0.4,2.7-0.8c1.1-0.5,2.1-0.9,3.4-0.9
				c0.3,0,0.7,0,1,0.2c0.2,0.2,0.4,0.4,0.4,0.7c0,0.2,0,0.5-0.2,0.7l-0.1,0.1H106c-3.3,1.5-6.1,2.7-8.8,4.6c-1.2,0.8-1.3,1.2-1,1.6
				c0.5,0.7,1.2,1.3,2,1.9c0.3,0.2,0.6,0.4,0.8,0.7c0.3-0.1,0.6-0.1,0.9-0.2c0.7-0.1,1.5-0.3,2.3-0.4c1.2-0.1,2.6-0.2,3.7,0
				c0.9,0.2,2.8,0.5,2.9,1.7c0,0.4-0.1,0.7-0.3,0.9c-0.3,0.3-0.7,0.5-1.2,0.5c-0.9,0-1.7,0-2.6-0.1c-0.9,0-1.9-0.1-2.8-0.1h-0.2
				c-0.3,0-0.7,0.2-1,0.3l0,0c0.2,0.3,0.3,0.6,0.4,1c0,0.1,0.3,1.4-0.3,2c-0.3,0.4-0.9,0.4-1.5,0s-1-1-1.4-1.6l-0.1-0.2
				c-0.2-0.3-0.4-0.6-0.6-0.9c-0.4-0.6-0.8-1.2-1.3-1.7c-2.2-2-4.5-3.8-6.7-5.5c-0.5-0.4-1.1-0.6-1.6-0.7c-1.8-0.2-3.5,0.1-4.8,0.9
				c-1.4,0.8-2.5,1.5-2.8,3.1c-0.2,1.4-0.2,2.5,0.3,3.8c0.8,2,1.8,3.4,3.1,4.3c1.6,1.1,3.2,2.1,4.8,3.1l0.3,0.2
				c0.1,0.1,0.3,0.2,0.5,0.3c1.5,0.8,3,1.6,3.2,2.6c0.1,0.3,0,0.7-0.2,0.9c-0.3,0.4-1.4,0.4-1.4,0.4h-0.2c-0.7-0.1-1.4-0.4-2.1-0.8
				c-0.8-0.4-1.6-0.9-2.4-1.4c-0.2-0.1-0.3-0.1-0.3-0.1s-0.1,0.1-0.1,0.3c-0.2,0.6-0.5,1.3-0.6,1.9c-0.1,0.5-0.3,1-0.4,1.4
				c-0.4,1.2-0.7,2.3-0.8,3.4c-0.1,2.3,0,4.8,0.4,7.6c0.8,5.7,3.1,10.9,5.1,14.7C91.6,70.3,94.9,74,99,77c0.5,0.3,0.9,0.6,1.3,1
				c1.8,1.3,3.5,2.5,5.5,3.3c1,0.4,2,0.9,3,1.3c0.4,0.2,0.9,0.4,1.3,0.6l0.4,0.2l-0.2,1h-0.4c-0.1,0-0.2,0-0.2,0h-0.2
				c-6.9-2-13-4.1-17.9-9.7l-0.2-0.3c-0.6-0.7-1.2-1.4-2-1.8c-0.2-0.1-0.6-0.2-0.9-0.2c-1.7,0-4.2,1.1-5.6,1.8l-0.3,0.1
				c-0.8,0.4-1.6,0.9-2.4,1.5c-0.5,0.3-0.9,0.7-1.4,1c-0.6,0.4-1.3,0.8-1.9,1.2c-1,0.6-2.1,1.2-3.1,1.9c-5.9,4.3-10.9,9.8-15.7,15.1
				l-0.2,0.2c-3.6,3.9-6.9,8.3-10.5,13.9c0.3,0,0.6,0,1,0C50.5,109,53.5,109.5,54.3,109.7z M126.5,11.8c0.3-0.3,0.9-0.5,1.4-0.4l0,0
				c2.7,0,4.7,1.4,6.4,2.7c2.8,2.1,4.4,5.2,5.6,7.9c0.1,0.2,0.2,0.4,0.2,0.7c0,0.2-0.1,0.4-0.1,0.7l-0.2,0.9l-0.6-0.4
				c-0.1,0-0.1-0.1-0.2-0.1c-0.2-0.1-0.5-0.2-0.6-0.5c-0.2-0.4-0.4-0.8-0.6-1.2c-0.2-0.5-0.5-1-0.7-1.4c-2-3.2-4.5-5.2-7.7-6.1
				c-0.2-0.1-0.5-0.1-0.9-0.1h-0.3l0,0c-1.2,0-1.9-0.7-2-1.6C126.1,12.4,126.2,12,126.5,11.8z M120.3,23.8c0.4-0.2,0.7-0.3,1.1-0.3
				c0.2,0,0.3,0,0.5-0.1c0.4,0,0.9-0.1,1.3-0.1c2.7,0,5.3,0.7,7,1.8c0.6,0.4,1.2,1,1.8,1.8c0.3,0.5,0.2,1.4-0.2,1.8
				c-0.2,0.2-0.5,0.3-0.8,0.3s-0.6-0.1-0.9-0.2c-0.6-0.3-1.1-0.7-1.6-1c-0.2-0.1-0.4-0.3-0.5-0.4c-1.3-0.9-2.5-1-3.7-1H123
				c-0.6,0-1.2,0-1.9-0.1c-0.9-0.1-1.4-0.6-1.5-1.3C119.6,24.6,119.8,24.1,120.3,23.8z M108.3,58.1c-1.2-0.2-2.2-0.7-3.3-1.3
				c-0.4-0.2-0.7-0.4-1.1-0.6c-0.5-0.2-0.7-0.6-0.7-1s0.4-0.7,0.9-0.8c1-0.2,1.7-0.2,2.3,0c2.2,0.7,4.4,1,6.7,0.7
				c0.6-0.1,1.2-0.1,1.8-0.2c1.5-0.2,3-0.3,4.3-0.8c4-1.4,7.5-3.1,10.5-5.3c2.1-1.6,4.2-3.2,5.7-4.4c0.5-0.4,0.5-0.5,0.5-0.5
				s-0.1-0.1-0.7-0.4c-1.1-0.5-2.2-0.8-3.4-1.2c-0.4-0.1-0.8-0.2-1.2-0.4c-0.1,0-0.4-0.1-0.6-0.4c-0.3-0.4-0.2-0.9,0.1-1.2
				c0.2-0.2,0.5-0.3,0.8-0.4c0.6-0.2,1.1-0.3,1.7-0.3c2.4-0.1,4.6,0.5,6.4,1.7c0.4,0.3,0.8,0.6,1.2,1c0.6,0.6,4.5,6.2,3.9,8.2
				c-0.1,0.4-0.4,0.7-0.8,0.7h-0.2c-0.7,0-1.1-0.7-1.2-0.9c-0.8-1.3-1.6-2.5-2.5-3.6c-0.4-0.5-0.7-0.6-0.8-0.6
				c-0.2,0-0.5,0.1-0.9,0.4c-0.5,0.4-1.1,0.8-1.6,1.3c-1.5,1.2-3.1,2.4-4.6,3.6c-1.5,1.1-3.2,2-4.4,2.7c-5.7,3-10.6,4.4-15.6,4.4
				C110.5,58.3,109.4,58.3,108.3,58.1z"/>
		</g>
	</g>
	<g id="postIcon">
		<path fill="none" d="M16.9,149.9c0.6-0.5,0.6-0.7-0.1-1.1c-1.2-0.7-2.4-0.9-3.7-1.2c-2-0.5-3.8-1.5-5.7-2.3
			c-0.1-0.1-0.6,0.2-0.6,0.4c-0.2,1.5-0.5,2.8-0.4,4.1c0.1,0.8,0.2,1.5,0.6,2.4c0.9,2,2.5,3.1,4.5,1.6
			C13.3,152.6,15.1,151.2,16.9,149.9z"/>
		<path fill="none" d="M84,47.2c0.3,0.3,0.9,0.7,1.3,0.6c0.8-0.3,1.9-3.1,1.7-3.9c-0.2-0.7-0.5-1.4-1.4-0.9c-1,0.6-2,1.4-1.8,2.8
			C83.8,46.3,83.7,46.8,84,47.2z"/>
		<path fill="none" d="M99.1,130.9c0.6-2.1,1.1-4.3,1.3-6.5c0.1-1.4,0-2.6-0.6-3c-1.4-0.9-1.5,1.7-1.6,2.6c-0.4,4.5-1.8,9-0.5,13.5
			C98.5,135.2,98.5,133,99.1,130.9z"/>
		<path fill="none" d="M87.3,132.3c0.5,3,0,5.5,1.3,8.5c0.3-1.3,0.5-2.7,0.6-4.1c0.2-3.1-0.2-6.3-0.6-9.4c-0.1-1,0.1-2.3-1-3.1
			c-0.6-0.5-1-0.4-1.1,0.3c-0.2,0.9-0.2,1.8-0.1,2.7C86.6,128.9,87,130.6,87.3,132.3z"/>
		<path fill="none" d="M92.1,131.5c0.1,2.6,0.1,5.2,0.1,7.8c0,0.4-0.2,5.7,1.1,4.3c0.1-0.1,0.2-0.3,0.2-0.5c0.4-4.2,0.8-8.5,0.7-12.8
			c0-2-0.1-4.1-0.3-6.1c0-0.4-0.3-0.9-0.6-1.3c-0.3-0.3-0.8-0.5-1.2-0.5c-0.2,0-0.6,0.6-0.6,0.9c-0.1,1,0,2.1,0.1,3.1
			C91.7,128.1,92.1,129.8,92.1,131.5z"/>
		<path fill="none" d="M139.8,113.8c0.9,2,2.8,4.9,5.3,5c2.8,0.1,4.7-3,4.5-5.5c-0.5-6.1-8.4-5.3-9.7-0.2
			C140,113.2,140,114.2,139.8,113.8z"/>
		<path fill="none" d="M112.7,157.9c-1.3-0.3-3.4,0.1-4.4,1.1c-0.3,0.3-1.8,3.6-1.2,3.7c-3-0.8-5.4,0-7.2,2.5
			c-0.4,0.5-2.3,5.6-1.2,5.9c-2.3-0.6-5.5-0.9-7.2,1.2c-1.2,1.5-1.7,4-0.5,5.7c0.2-3.1,2.1-5.5,5.5-5.4c1.7,0,3.7,0.8,4.9,2.1
			c-0.8-0.8-0.9-3.1-0.8-4.3c0-0.1,0-0.2,0-0.2c0.4-4.6,4.1-6.2,8.2-4.7c-1.1-0.4,0.1-3.4,0.6-3.9c1-1,3-1.4,4.2-0.7
			c1.2,0.7,1.1,2.4,1.4,3.6c0-0.1,1-1.4,1-1.7c0.3-0.8,0.3-1.6,0.1-2.4C115.7,158.7,114.2,158.3,112.7,157.9z"/>
		<path fill="none" d="M75,163.4c0.4-0.2,0.9-0.3,1.4-0.4c2-0.5,3.3-2.7,2.8-4.7c-0.2-0.8-0.6-1.6-0.9-2.3c-0.9-2.4-2.7-3.6-5.2-3.7
			c-2.5,0-2.7,0.2-3.7,2.5c-0.9,1.9-0.4,3.6,0,5.5C70,163,72.4,164.3,75,163.4z M71.8,155c0.3-0.4,1.1-0.6,1.6-0.8
			c1.9,0.4,4,2.9,3.8,4.7c-0.1,1.1-0.6,1.8-1.8,2c-1.1,0.2-2.1,0.7-3.1-0.4C71.5,159.4,71,156.1,71.8,155z"/>
		<path fill="none" d="M140,113.1c0-0.1-0.1,0.1-0.1,0.8C139.8,113.6,139.9,113.3,140,113.1z"/>
		<path fill="#EFEEDF" d="M22.6,63.8c1.8,2.5,3.9,4.8,5.9,7.3c2.2,2.6,4.9,4.3,8.2,5.1c0.8,0.2,1.6,0.2,2.3,0.4
			c3.9,1.3,7.8,0.5,11.8,1c-2.4,2-7.9,3.6-10.8,1.9c-0.1-0.1-0.2,0-0.3,0c0.1,0.1,0.1,0.2,0.2,0.3c1.6,1.2,3.2,2.5,4.8,3.7
			c4.5,3.1,8,7.5,12.4,10.6c0.1-1.6-0.2-3,1.9-3.5c1-0.3,2.2,0,3,0.6c-0.6-0.4,2-3.9,2.6-4.2c0.8-0.3,1.8-0.2,2.5,0.3
			c0.2-1.1,1.1-2,2.2-2.1s2.2,0.6,2.6,1.6c0.4-0.9,1-1.6,1.9-2c-1.5-1.7-1.6-5.1-2.5-7.2c-0.5-1.2-1.1-2.4-1.7-3.5
			c-0.1-0.2-0.7-0.3-0.9-0.2c-1.9,0.6-3.7,1.4-5.6,1.9c-0.6,0.2-1.3-0.3-2-0.5c0.4-0.4,0.8-1,1.3-1.3c1.6-0.8,3.4-1.3,4.9-2.2
			c1.8-1,3.4-2.4,5-3.6c1.9-1.5,3.6-3.2,4.8-5.3c0.6-1,1.1-2.1,1.7-3.1c0.7-1.1,1.5-2.1,2.2-3.2c0.3-0.4,0.4-1,0.6-1.5
			c0.2-0.6,0.4-1.2,0.6-1.8c0-0.1,0-0.2,0.1-0.3c-0.1,0-0.2,0-0.3,0.1c-1.3,0.4-2.7,0.7-4,1.1c-0.9,0.3-1.9,0.5-2.8,0.8
			c-0.8,0.3-1.1-0.3-1.1-0.8c0-0.3,0.4-0.8,0.7-1c0.4-0.3,0.9-0.6,1.4-0.7c2.1-0.7,4.2-1.7,6.4-1.8c2.9-0.2,5-1.1,5.9-4
			c0.1-0.4,0.4-0.7,0.6-1c1.1-1.6-0.2-4.8-2.1-5.1c-0.1,0-0.2,0-0.3,0.1c-2.1,0.4-11,2.8-10.6-1.8c1.4,0.5,2.7,0.7,4,0.6
			c1.2-0.1,2.4-0.4,3.6-0.9c0.3-0.1,1-0.5,0-1.1c-0.6-0.4-1-1.4-1.1-2.1c-0.1-1-0.5-1.1-1.3-1.4c-1.3-0.4-2.1,0.3-3,1
			c-0.5,0.4-0.9,0.6-1.7,0.6c-0.8,0-1.1-0.5-1.2-1c0-0.4,0.5-0.8,0.8-1.1c0.2-0.2,0.6-0.2,0.9-0.3c1.8-0.8,3.6-2,5.5-2.5
			c2.2-0.6,3.8-2.7,4.5-4.8c0.5-1.4,0.5-3-0.2-4.4c-0.6-1.2-1.7-2.3-3-2.6c-1.7-0.3-2.2,0.6-3.3,1.5c-1,0.8-2.3,1.4-3.3,2.3
			c-1.8,1.6-3.7,3.1-5.6,4.5c-0.3,0.2-1,0.3-1.1,0.1c-1.3-1.7,1-2.5,1.9-3.6c1.2-1.5,0.8-2.9-0.3-4.2c-2.8-3.4-6.2-6.4-10.1-8.4
			c-4.3-2.2-11.6-4-15.6-0.5c2.5-2.1,4.1-4.9,4.1-8.1c0-0.8-0.2-1.2-1.1-0.8c-0.7,0.3-1.2,0.2-1.3-0.8c0-0.2-0.6-0.6-0.8-0.6
			c-2,0.6-3.9,1.2-5.4,2.8c-0.2,0.3-1,0.4-1.3,0.2c-1.6-1-2.8-0.9-4.3,0.1c-2.3,1.6-3,4.2-4.7,6.2c-0.8,1-1.3,2.4-2,3.5
			c-2.6,4.3-5.3,8.5-7.7,12.8c-3.4,6-4.5,12.7-4.6,19.5c-0.1,4.4,0.9,8.8,2.3,12.9C20.2,60.1,21.3,62.1,22.6,63.8z M85.6,43
			c0.9-0.5,1.2,0.2,1.4,0.9c0.2,0.8-1,3.6-1.7,3.9c-0.3,0.1-1-0.2-1.3-0.6c-0.3-0.3-0.2-0.9-0.2-1.4C83.6,44.3,84.6,43.6,85.6,43z
			 M63.4,34.8c0.2-0.2,0.8-0.3,1.1-0.2c1.8,0.7,2.9,2.1,3.6,3.8c0.2,0.5,0.5,1,0.7,1.5c1.1,2.5,1.6,4.5,1.4,6.7
			c-0.1,1.2-0.3,2.4-0.7,3.7c-0.1,0.5-1.8,4.9-1.8,4.9c-1.4-2,0.1-5.2,0.4-7.4c0.7-4.5-1-8.2-4.1-11.5C63.6,36.1,62.6,35.7,63.4,34.8
			z M53.6,27.6c0.2,0.1,0.4,0.2,0.3,0.4c0,0.1-0.2,0.2-0.3,0.3c-1.8,0.9-3,1.6-4.4,3.1c-0.8,1-1.5,2.1-1.9,3.3
			c-0.2,0.5-0.5,1.2-1,1.2c-0.5-0.1-0.6-0.7-0.6-1.2C45.9,31.2,49.6,25.8,53.6,27.6z M45.6,20.6c-1.4,1.7-3.3,3.6-4,5.7
			c-0.7,1.8-0.8,3.8-1.2,5.6c0,0.2-0.1,0.3-0.2,0.5c-0.2,0.1-0.4,0.1-0.6,0s-0.3-0.3-0.3-0.6c-0.6-1.5-0.6-3.3-0.2-4.9
			c0.6-2.4,1.9-5.7,4-7.2c0.9-0.6,2-1,3-0.6c0.2,0.1,0.4,0.2,0.4,0.3c0,0.1-0.1,0.2-0.2,0.4C46.1,20.1,45.8,20.4,45.6,20.6z"/>
		<path fill="#EFEEDF" d="M68.4,128.1c1.4-0.9,2.9-1.6,4.3-2.5c2-1.2,4.3-2.2,4.2-5.2c0-1.2,0.3-2.5,0.2-3.7
			c-0.3-2.5-0.4-5.1-2.4-7.1c-0.8-0.7-1.6-1.4-2.5-2c-0.1-0.1-0.4-0.1-0.6,0c-1.3,0.3-2.6,0.6-3.9,1c-1.8,0.6-4,0.8-5.4,1.9
			c-3.7,2.7-7.9,3.3-12.1,3.6c-3,0.2-5.6,1.1-8.1,2.3c-2,0.9-3.7,2.5-5.4,3.9c-1.2,1-2.3,2.2-3.5,3.3c-0.5,0.5-1.1,1.2-1.8,0.5
			c-0.7-0.6-0.1-1.3,0.4-1.7c1.5-1.5,2.9-3,4.5-4.5c0.6-0.5,1.2-1.1,1.8-1.5c1.8-1.1,3.7-2.2,5.6-3.1c1.4-0.6,2.9-1,4.3-1.5
			c0.3-0.1,1,0,1-0.2c0.1-0.5,0.3-1.1,0.1-1.5c-1.9-3.9-3.6-8-5.9-11.7c-1.9-3-3-6.5-5.6-8.9c-2.4-2.3-6.1-6.4-9.7-5.6
			c-3.3,0.7-5.8,4.4-7.2,7.1c-1.4,2.6-1.7,5.4-1.4,8.3c0.6,5.6,3.5,11.3,5.5,16.1c1.1,2.6,2.4,5,3.6,7.5c0.2,0.4,0.3,0.8,0.4,1.3
			c0.4,2.4,1.4,4.5,2.9,6.4c1.4,1.8,3.1,3.4,4.8,4.9c4.1,3.7,10.4,3.9,15.4,1.9C57.7,134.8,62.9,131.6,68.4,128.1z"/>
		<path fill="#EFEEDF" d="M89.8,152.2c1.5,0.5,2.9,1.2,4.4,1.6c0.6,0.2,1.6,0,2.1-0.4c0.8-0.6,1.5-1.5,2-2.3c3-5.4,3-11,4.6-16.8
			c0.6-2.3,0.1-4.6,0.7-6.9c0.6-2.4,1.6-4.7,2.4-7c1.3-3.9,1.3-8.3,0.6-12.3c-0.1-0.6-0.2-1.2-0.3-1.8c-0.6-2.1-1.4-4-2.5-5.9
			c-0.9-1.5-2-2.6-3.5-3.2c-1.8-0.6-3.7-0.8-5.5-1.5c-2.2-0.8-4.2-1.2-6.5-0.2c-1.9,0.8-4,1.3-5.7,2.5c-2.2,1.5-4.3,3-6.5,4.5
			c-1.4,0.9-2.8,1.6-4.3,2.4c-0.2,0.1-0.3,0.3-0.4,0.4c0.2,0,0.3,0,0.5,0c0.5,0,1-0.1,1.4,0c2.6,0.9,4.3,2.6,5,5.2
			c1,3.7,2,7.3,2.9,11c0.2,0.8,0.1,1.8,0.2,2.6c0.3,1.7,0.8,3.3,1.2,5c0.5,2.3,1,4.7,1.2,7c0.5,3.8,0.7,7.6,2.4,11.1
			C87.2,149.2,87.4,151.4,89.8,152.2z M98.1,123.9c0.1-0.9,0.2-3.5,1.6-2.6c0.6,0.4,0.7,1.5,0.6,3c-0.2,2.2-0.7,4.4-1.3,6.5
			c-0.6,2.2-0.6,4.4-1.5,6.5C96.4,132.9,97.7,128.4,98.1,123.9z M91.5,123.3c0-0.3,0.4-0.9,0.6-0.9c0.4,0,0.9,0.2,1.2,0.5
			c0.3,0.3,0.6,0.8,0.6,1.3c0.2,2,0.3,4,0.3,6.1c0,4.3-0.3,8.6-0.7,12.8c0,0.2,0,0.4-0.2,0.5c-1.2,1.4-1.1-3.8-1.1-4.3
			c0-2.6,0-5.2-0.1-7.8c-0.1-1.7-0.4-3.4-0.6-5.1C91.5,125.4,91.5,124.4,91.5,123.3z M86.5,124.5c0.1-0.6,0.5-0.7,1.1-0.3
			c1.1,0.8,0.8,2.1,1,3.1c0.4,3.1,0.7,6.2,0.6,9.4c-0.1,1.4-0.3,2.7-0.6,4.1c-1.3-2.9-0.8-5.5-1.3-8.5c-0.3-1.7-0.7-3.4-0.9-5.1
			C86.3,126.4,86.3,125.4,86.5,124.5z"/>
		<path fill="#EFEEDF" d="M85.9,92.8c0,0.2,0.5,0.5,0.7,0.4c2.1-0.2,4.1-0.5,6.3-0.8c1.9,0.4,3.9,0.8,5.9,1.2c2.7,0.5,4.8,2,6.3,4.1
			c1.2,1.7,2.4,3.5,3,5.6c0.9,3.1,1.1,6.7,0.7,9.8c0,0,4.3-1.6,4.8-2c0.9-0.9,1.6-2.5,2.3-3.6c1-1.6,1.9-3.2,2.5-4.9
			c1-2.8,0.9-5.9,0.3-8.8c-0.8-3.4-2.8-5.5-5.1-8.1c-0.1-0.1-0.2-0.3-0.2-0.4c0.1-0.3,0.5-0.2,0.8-0.1c4.6,2.1,5.7,5,6.7,9.6
			c0.8,4.1,0.5,8.1-2.1,11.7c-0.2,0.3-0.3,0.6-0.4,0.8c-1.9,3.8-4.6,7.5-9.2,8c-0.6,2.1-1.3,4.3-1.9,6.4c-0.2,0.6-0.3,1.2,0,1.7
			c1.3,2.1,7.2-0.3,8.8-1.2c3-1.6,5.4-4.1,7.2-6.9c3.7-5.7,6.6-10.5,5.4-17.6c-0.8-4.9-2.6-9.7-5.8-13.5c-1.9-2.3-4.4-4.2-7.1-5.4
			c-1.5-0.6-4.4-1.9-6-1.8c-2.7,0.3-2.2,2.4-2,4.4c0.2,2.1-1.3,4.3-3.3,4.8c-2.1,0.5-4.4-0.7-5.1-2.7c-2.4,1.5-4.7,0.8-7.1,1.9
			c-2.8,1.2-4.3,3.8-6.2,6.1C85.9,91.9,85.8,92.4,85.9,92.8z"/>
		<path fill="#EF6E50" d="M55.7,96.1c-0.1-0.1-0.3-0.2-0.4-0.3c-1.1-1.2-2.2-2.5-3.4-3.6c-1.8-1.7-3.5-3.3-5.4-4.8
			c-3.6-2.8-7.2-5.5-10.8-8.3c-1.4-1.1-1.8-0.4-3,0.4c-0.4,0.3-2.8,2.2-2.9,2.1c0.3,0.1,0.5,0.1,0.8,0.2c0.8,0.2,1.6,0.5,2.4,0.8
			c3.1,1,5,3.3,6.9,5.8c1.2,1.6,1.6,3.5,3,5c1.1,1.2,1.7,3,2.5,4.6c0.9,1.8,1.8,3.6,2.7,5.4c0.4,0.8,0.8,1.5,1.2,2.3
			c0.9,1.9,1.8,3.7,2.7,5.6c0.8,1.7,1.5,0.4,2.5-0.2c1.5-0.9,3.3-1.2,4.9-1.8c5.8-2.3,10.7-6,16.1-9.1c1.5-0.9,3-1.7,4.5-2.6
			c0.6-0.4,1.2-0.9,1.7-1.4c0.6-0.7,1.1-1.4,2.2-1.5c0.2,0,0.5-0.5,0.5-0.7c-0.5-2.4-1-4.7-1.5-7.1c-0.4-1.9-0.7-3.8-1.3-5.6
			c-0.8-2.3-1.9-4.5-2.7-6.7c-0.7-2.2-1.8-4-3.8-5.2c-0.2-0.1-0.5-0.3-0.5-0.2c-1,0.9-2,1.7-2.9,2.7c-0.2,0.2-0.1,0.8,0.1,1
			c1.4,1,1.8,2.5,2.2,4.1c0.6,2.4,1.6,4.6,2.2,6.9c0.6,2.2,0.7,4.6,1.3,6.8c-2,1.4-4.4,2.1-6.5,3.2c-1.5,0.8-3,1.6-4.5,2.4
			c-1.7,1-3.4,2-5.2,2.9c-0.4,0.2-1.3,0.1-1.7-0.2C58.1,98,57.2,96.7,55.7,96.1z"/>
		<path fill="#EFEEDF" d="M20.9,121.6c0.2,2.6,0.3,5.2,0.4,7.8c0.2,5.6-0.2,11.2,0.7,16.7c0.2,1.2,0.3,2.4,1.7,3
			c2.6,1.2,5.2,2.6,7.8,3.9c1.2,0.6,2.3,1.3,3.6,1.6c2.5,0.5,5.1,0.7,7.5,1.4c0.5,0.1,1,0.2,1.5,0.3c2.2,0.4,4.1,0,4.9-2.6
			c0.3-1.1,0.2-2.3,0.5-3.4c0.7-3-0.2-5.8-0.3-8.8c-5.1,0.6-10.4-0.6-14.3-3.8c-3.2-2.7-6-5.8-7.5-9.8c-0.6-1.7-1.2-3.3-1.9-5
			c-0.9-2.1-1.8-4.2-2.8-6.3c-0.5-1-0.9-2.1-1.4-3.1c-0.2-0.5-1.2-1.6-1.2-2C20.4,114.8,20.7,118.2,20.9,121.6z"/>
		<path fill="#EFEEDF" d="M44.8,178.9c0.2-2.9,0-5.7,0.1-8.6c0-0.9-0.4-1.2-1.2-1.4c-2.3-0.6-4.7-1.3-7-2c-2.6-0.8-5.1-1.8-7.6-2.8
			c-1.7-0.7-3.4-1.4-5.1-2.1c-0.5-0.2-0.7-0.2-0.8,0.4c-0.3,1.5-0.6,3.1-0.9,4.6c-0.8,4.1-1.7,8.3-2.5,12.4c0,0.2-0.1,0.5-0.2,0.7
			h25.2C44.8,179.6,44.8,179.2,44.8,178.9z"/>
		<path fill="#EF6E50" d="M11.2,161.7c1.9-0.5,2.9-2.2,4.1-3.6c1.3-1.5,2.9-2.2,3-4.3c0.1-1.2-0.2-2.4-0.3-3.5c0-0.4-0.1-0.8,0.1-1.2
			c0.1-0.1,0.1-0.3,0.2-0.4c0.2-0.2,0.4-0.3,0.7-0.3c0.1-1.7,0.1-4.8-1.3-5.9c-1.4-1.2-3.8-0.7-5.4-1.5c-1.1-0.5-2.5-0.7-3.7-0.5
			c-2.6,0.5-5.1,1.4-6.6,4c-1.8,3-2.5,6.1-1.5,9.5c0.5,1.6,1.4,2.8,2.7,4C5.2,159.7,8.3,162.4,11.2,161.7z M7,152.2
			c-0.4-0.8-0.6-1.6-0.6-2.4c-0.1-1.3,0.2-2.6,0.4-4.1c0-0.2,0.5-0.4,0.6-0.4c1.9,0.7,3.7,1.7,5.7,2.3c1.3,0.3,2.5,0.6,3.7,1.2
			c0.7,0.4,0.7,0.6,0.1,1.1c-1.8,1.3-3.6,2.7-5.3,4C9.5,155.4,8,154.2,7,152.2z"/>
		<path fill="#EF6E50" d="M19.1,162.2c0-1.2-0.1-2.3-0.4-3.5c0.1,0.4-2.2,3-2.6,3.5c-0.9,1.3-1.9,2.6-2.8,4c-1.3,2-3,3.7-4.4,5.6
			c-1.4,1.8-2.3,4-3.4,6c-2.2,4,6,2.4,7.5,0.6c2-2.4,4.1-6.4,5-9.4C18.8,166.8,19.1,164.5,19.1,162.2z"/>
		<path fill="#EFEEDF" d="M77.2,136.8c0.3,2.8,0.6,5.6,1.2,8.3c0.1,0.6,0.7,1.3,1.2,1.5c1.1,0.6,2.3,0.9,3.5,1.3c0.2,0.1,0.5,0,0.8,0
			c0-0.3,0-0.6-0.1-0.8c-1.6-2.8-1.6-6-2-9.1c-0.1-0.8-0.2-1.5-0.2-2.3c-0.1,0.8-0.1,1.5-0.2,2.3c-0.1,0.5-0.4,1-0.6,1.5
			c-0.2-0.5-0.5-1-0.5-1.5c-0.6-4.6-1.2-9.3-1.7-14c0-0.1-0.1-0.3-0.1-0.4c-0.1,0.2-0.2,0.3-0.3,0.5c-0.4,0.7-0.7,1.6-1.3,2
			c-0.8,0.5-0.8,0.8-0.7,1.8C76.7,130.9,76.9,133.8,77.2,136.8z"/>
		<path fill="#EF6E50" d="M103.2,42c0.8-0.7,1.1-3.2,0.3-3.9c-1.2-1.1-0.9-2.6-1.1-3.8c-0.4-1.3,0.3-1.4,1.3-1.5
			c1.2-0.2,2.4-0.5,3.5-0.9c0.9-0.4,1.1-0.1,0.9,0.6c-0.3,1.3-0.3,2.8-1.5,3.7c-1,0.8-1,1.9-0.6,2.9c0.2,0.4,0.8,0.8,1.2,0.8
			c2.1,0,3.7-2.3,3.4-4.4c-0.2-1.5-0.1-3.2,0.1-4.7c0.1-1.3-0.1-1.7-1.3-1.4c-1.9,0.5-3.7,1.4-5.6,1.8c-0.8,0.1-4.5,0-3.7,1.7
			c0.2,0.5,0.3,1,0.3,1.5c0.1,0.9,0.1,1.8,0,2.7c-0.1,0.9,0.3,2-1.2,2.4c-0.9,0.2-0.9,1.7,0,2.4C100.3,42.7,102.4,42.7,103.2,42z"/>
		<path fill="#EFEEDF" d="M92.4,82.6c1-0.2,2-0.5,3-0.6c1.8-0.3,4.6-0.5,4.4-3.1c0.1,1.8,1.4,3.8,3.2,4.5c2.7,0.9,2.5-0.9,3-3.1
			c-0.2-0.6-0.5-1.3-0.6-1.9c-0.1-1-1-1.6-1.5-2.3c-1-1.5-1-1.6-2.6-0.7c-0.2,0.1-0.5,0.2-0.8,0.4c-3.3,1.6-6.3,3.6-8.5,6.6
			c-0.1,0.1-0.2,0.3-0.2,0.4C92.1,82.6,92.3,82.7,92.4,82.6z"/>
		<path fill="#EFEEDF" d="M140,113.1c-0.1,0.2-0.1,0.5-0.1,0.8C140,114.2,140,113.2,140,113.1z"/>
		<path fill="#EFEEDF" d="M145.3,121.1C145.3,121.1,145.3,121.1,145.3,121.1c3.3-0.4,6.4-4,6.6-7.2c0.3-3.6-2.5-7.8-6.4-7.2
			c-3.6,0.5-6.2,3.9-6.4,7.5C138.9,117.5,141.8,121.5,145.3,121.1z M140,113.1c1.3-5.1,9.2-5.9,9.7,0.2c0.2,2.5-1.8,5.6-4.5,5.5
			c-2.5-0.1-4.4-3-5.3-5C139.9,113.1,139.9,113,140,113.1z"/>
		<path fill="#EFEEDF" d="M67.3,91c0-0.8-0.9-1.5-1.8-1.4c-0.1,0-0.1,0-0.2,0c-0.8,0.1-1.4,0.7-1.7,1.4c-0.4,0.8-0.4,1.6-0.4,2.5
			c-0.9-1-2.3-1.4-3.6-1c-0.5,1.1-0.6,2.4,0.1,3.5c0.4,0.6,0.9,1,1.7,0.5c2.9-1.7,5.8-3.3,8.8-4.8c0.9-0.5,2-0.8,2.9-1.3
			c0.8-0.4,1.8-1.8,0.6-2.5c-0.6-0.4-2.5,0.7-2.2,1.5C70.3,86.4,67.3,88.6,67.3,91z"/>
		<path fill="#EF6E50" d="M137.3,43.9c0.1,0,0.1-0.1,0.2-0.1c1.1-0.8,1.9-1.8,1.8-3.3c-0.1-2.1-0.3-4.2-0.4-6.3c0.1,0,0.1,0,0.2,0
			c0,0-0.3-0.9-0.3-1c-3.2,0.3-1.8,5-1.7,7.1c-1.9,0.3-4.6,1.8-2.5,4.2C135.6,45.5,136.3,43.9,137.3,43.9z"/>
		<path fill="#EF6E50" d="M114.9,40.2c1.3,0.9,3.5,1.1,4.5-0.4c0.5-0.7,0.6-1.7,0.7-2.6c0.3-3.1,0-6.2-0.7-9.2
			c-0.9-0.1-1.4,1.1-1.4,1.8c-0.1,1.8,0,3.6,0,5.4c0,0.6,0.2,1.3-1.2,1c-0.2,0.1-0.5,0.3-0.8,0.6c-0.4,0.5-0.8,1.1-1.2,1.6
			C114.4,39.1,114.3,39.7,114.9,40.2z"/>
		<path fill="#EF6E50" d="M151.4,39.3c1.1-1.4,0.9-3,1-4.5c0-0.5,0.1-1,0-1.4c-0.4-1.2-0.1-2.7-1.3-3.7c-0.2-0.1-0.4-0.2-0.5-0.3
			c-0.1,0.2-0.3,0.4-0.3,0.6c0,1.4-0.1,2.8,0,4.1c0.1,0.9-0.1,1.4-1,1.5c-1.8,0.3-2.3,2.1-1.2,3.6C149,40.4,150.5,40.4,151.4,39.3z"
			/>
		<path fill="#EF6E50" d="M126.2,41.4c4.5,0.7,4.1-5.6,3.3-8.9c-0.1-0.4-0.2-0.7-0.3-1c-0.1-0.2-0.2-0.5-0.4-0.6
			c-0.5-0.3-1.1,0.2-1.1,0.8c-0.1,0.5,0.2,1.1,0.3,1.6c0.2,0.9-0.3,2.2-0.3,3.2c0,0.4-0.1,0.8-0.3,1.1c-0.6,0.7-1.4,1.3-2,2
			C124.8,40.3,125.1,41.2,126.2,41.4z"/>
		<path fill="#EF6E50" d="M73.7,179.6c-0.1-1.4-0.8-2.7-0.6-4.2c0.4-2.6,2.5-4.3,5-4.4c0.6,0,0.7-0.2,0.7-0.8
			c-0.2-1.9-0.3-4.2,1.2-5.6c1.8-1.7,4.9-1.8,6.6,0c-0.7-0.7,1.5-2.3,2-2.6c1.4-0.6,2.9-0.3,4.3,0c-0.2-0.1,0.6-3.8,0.5-4.4
			c-0.6-2.6-5.9-2.8-7.2-5.8c-0.1-0.2-0.3-0.3-0.4-0.3c-1.6-0.3-3.2-0.5-4.8-0.8c-1.6-0.3-3-1.2-3.8-2.6c-0.8-1.4-1.3-3.1-1.6-4.7
			c-0.7-4.7-0.6-10.8-2-15.2c-1.3,0.4-2.6,1-3.7,1.7c-3.4,2.3-6.8,4.6-10.2,6.9c-2.1,1.5-4.5,2.4-7,2.8c-1,0.2-1.3,0.8-1,1.8
			c0.3,0.9,0.5,1.8,0.4,2.7c-0.2,3-0.5,6-0.9,8.9c-0.1,1.2-0.5,2.4-0.9,3.4c-1,2.2-3.1,2.2-5,2.2c-2.5,0-4.9-0.3-7.4-0.5
			c-0.2,0-0.3-0.1-0.5-0.1c-3.7-1.6-7.4-3.1-11.1-4.7c-1.8-0.8-3.6-2-5.3-3c-0.7-0.4-0.8-0.3-0.7,0.4c0.1,1.4,0.2,2.7,0.3,4.1
			c0.1,1.3,0.2,2.4,1.7,3.3c2.1,1.1,4,2.4,6.3,3.1c1.2,0.3,2.3,0.7,3.4,1.1c4.4,1.4,8.7,3,13.2,4.3c2,0.6,2.6,1.7,2.4,3.7
			c-0.1,1.1-0.2,2.2-0.4,3.3c-0.3,2.2-0.1,4.4-0.5,6.6h27C73.7,179.8,73.7,179.7,73.7,179.6z M69.4,160.2c-0.4-1.8-0.9-3.6,0-5.5
			c1-2.2,1.3-2.5,3.7-2.5c2.6,0,4.3,1.3,5.2,3.7c0.3,0.8,0.7,1.5,0.9,2.3c0.5,2-0.8,4.2-2.8,4.7c-0.5,0.1-0.9,0.3-1.4,0.4
			C72.4,164.3,70,163,69.4,160.2z"/>
		<path fill="#EFEEDF" d="M125.9,176.8c-0.2-1.2-0.8-1.1-1.7-0.8c-0.8,0.3-1.7,0.4-2.4,0.3c-2.9-0.6-4.5-4.8-2.9-7.3
			c0.7-1.1,1.5-1.8,2.6-2.4c3.9-2,9.2-3,13.6-2.6c2.2,0.1,4.4,1.1,5.6,3c0.1-6-2-12-5.7-16.8c-2.1-2.7-3.7-2.3-5.7,0.1
			c-2.1,2.4-7.2,2.4-8.2-1c-2.2-7.6,4.1-14.5,12-13.2c3.6,0.6,6.7,2.9,9.2,5.6s4.3,5.9,6.4,8.9c-0.9-1.2,4.7-2.9,5.4-3
			c3.5-0.5,7.4-0.1,11,0.3c1.3,0.1,3,0.3,3.3,1.9c0.1,0.6,0.1,1.3,0.4,1.8c0.6,0.9,2.2,0.7,3.1,0.7c2.5-0.1,5,0.9,6.7,2.7
			c0.5,0.5,0.9,1.1,0.9,1.8c0.8-0.8,1.5-1.7,2-2.7s0.7-2.2,0.3-3.3c-0.3-1.1-1.2-2-2.3-2.3c1-0.9,1.6-2.2,1.7-3.5s-0.5-2.7-1.6-3.5
			c-1.1-0.8-2.7-0.9-3.7-0.1c0.8-2.8-1.8-6.1-4.7-5.8c-0.4,0-0.8,0.1-1.1-0.2c-0.2-0.2-0.2-0.4-0.3-0.6c-0.5-1.8-2.2-3.2-4.1-3.4
			c-1.7-0.2-3.1,0.5-4.3,1.6c-1.1,1.1-1.8,2.3-1.8,3.9c-2-1.8-5.2-0.6-6.4,1.5c-0.6,0.9-0.7,2.1-0.4,3.2c-1.2-1.1-7.1-3.6-8.2-1.4
			c0.6-1.2,1.7-2.1,3-2.3s2.7,0.1,3.7,0.9c0.1-3.7,4.3-5.2,7.4-4.3c0-1.1,0.5-2.1,1.4-2.7c-0.5-0.6-3.9-1.4-3.8-0.9
			c-0.3-1.7-1.5-2.7-3.2-2.8c-0.4,0-4.5,0.8-4,1.5c-1-1.7-2.8-2.8-4.7-2.9c-2.9-0.2-4.4,1.4-6.1,3.4c-0.4-2.3-1.3-4.2-3.6-5.1
			c-2.8-1.1-7.1,0.1-7.7,3.3c-1.5-0.4-2.9,0.3-3.9,1.4c-0.5,0.6-2.2,2.8-1.5,3.7c-0.8-0.9-1.9-1.4-3.1-1.4c-1.2,0-2.3,0.6-3.1,1.5
			c0.2-0.3-3.2-0.3-3.7-0.1c-1.1,0.5-2,1.6-2.6,2.7c-1.3,2.4-1.2,5-0.3,7.4c-1.8-0.3-5.5-1.1-6.1,1.5c-0.4,2.2-1,4.4-1.8,6.4
			c-0.9,2.2-2.2,4.1-4.5,5.1c-0.3,0.1-0.6,0.5-0.7,0.9c-0.7,2.7-1.9,5.6-0.6,8.3c-1.7-0.6-4-1.7-5.9-1c-0.6,0.2-2.9,2.1-1.9,3.1
			c-0.6-0.5-1.2-1.1-1.9-1.4c-0.7-0.4-1.5-0.6-2.3-0.4c-1.1,0.3-1.8,1.2-2.2,2.3c-0.4,1.2-0.8,4.9,1,5.5c-2.2-0.6-4.7,0.1-6,1.9
			c-0.8,1.1-1.4,3.1-1,4.6h51.3C126.3,178.9,126.1,177.8,125.9,176.8z M116,162.7c-0.1,0.3-1.1,1.6-1,1.7c-0.3-1.3-0.2-3-1.4-3.6
			c-1.3-0.7-3.2-0.3-4.2,0.7c-0.5,0.5-1.7,3.5-0.6,3.9c-4-1.4-7.8,0.1-8.2,4.7c0,0.1,0,0.1,0,0.2c-0.1,1.2,0.1,3.5,0.8,4.3
			c-1.2-1.3-3.2-2-4.9-2.1c-3.5-0.1-5.3,2.3-5.5,5.4c-1.2-1.7-0.7-4.1,0.5-5.7c1.7-2.1,4.8-1.8,7.2-1.2c-1.1-0.3,0.8-5.3,1.2-5.9
			c1.8-2.5,4.2-3.3,7.2-2.5c-0.6-0.2,0.9-3.4,1.2-3.7c1-1,3.1-1.4,4.4-1.1c1.5,0.3,3,0.8,3.5,2.4C116.4,161.1,116.3,162,116,162.7z"
			/>
		<path fill="#EFEEDF" d="M153.1,175.1c2.6-2.3,5.2-4.4,7.8-6.6c1.9-1.6,3.8-3.1,5.7-4.7c1-0.8,1.9-1.8,3-2.4
			c2.1-1.2,3.8-2.5,3.9-5.2c0.1-1.2-0.4-1.6-1-1.7c-1.6-0.1-4.4,2-5.4,2.4c-0.7-1.4-0.1-4.9-1.5-5.8c-0.7-0.5-2.7-0.3-3.5-0.3
			c-2.7-0.1-5.7-0.5-8.4-0.1c-1.3,0.2-2.7,0.6-3.2,1.8c-1.3,3.3,3.1,3.9,5,4c0.3,0,0.7,0,1,0.3c0.3,0.2,0.4,0.6,0.4,1
			c0.2,1,0.4,2,0.1,3c-1,4.1-5,1.2-6.6-0.7c-2.2-2.6-3.6-5.7-5.1-8.8c-1.5-3.1-3-6.1-5.4-8.6c-3.5-3.7-9.2-5.3-13.6-2.2
			c-1.6,1.1-2.7,2.9-3,4.8c-0.2,1.1-0.1,2.3,0.6,3.2c0.6,0.9,1.9,1.4,2.9,0.8c0.2-0.9,0.3-1.9,0.9-2.7c1.5-2,6-1,7.7,0.2
			c2.1,1.4,3.5,3.7,4.5,6c2.3,5.1,5,12.4,3.5,18.2c-0.2,1-1.2,3.4-2.4,2.5c-0.8-0.7-1-3.2-1.8-4.2c-2.9-3.5-8.5-3.1-12.5-2.3
			c-1.9,0.4-5.9,1.7-6.3,4.1c-0.4,3.2,2.9,2.2,4.8,2.2c2.2,0,2.6,0.4,2.7,2.5c0,0.2,0,0.3,0,0.5c0.1,1.3,0.1,2.7,0.2,3.8c0,0,0,0,0,0
			c0,0.3,11.4,0.3,12.6,0.2C145.6,179.8,149.5,178.2,153.1,175.1z"/>
		<path fill="#EFEEDF" d="M75.4,160.9c1.2-0.2,1.7-0.9,1.8-2c0.2-1.8-1.9-4.3-3.8-4.7c-0.6,0.3-1.3,0.4-1.6,0.8
			c-0.8,1.1-0.4,4.4,0.5,5.4C73.3,161.6,74.3,161,75.4,160.9z"/>
	</g>
	<g id="fastIcon">
		<path fill="none" d="M85.2,154.1c-0.2,0.1-0.4,0.1-0.6,0.2c-1.8,0.7-3.3,2.3-4.1,3.9c-0.4,0.8-0.7,1.7-0.5,2.6
			c-0.1-0.5,3.3-3.4,3.9-3.8c1.6-1.2,4.1-1.6,6-1.8c-0.4,0-1.8-1-2.3-1.1C86.8,153.9,86,153.9,85.2,154.1z"/>
		<path fill="none" d="M54.4,156.7c-0.2-1-0.8-1.9-1.4-2.7c-1.2-1.7-2.1-3.8-3.9-5c-2.1-1.4-4.3-1.4-6.8-1.4
			c-0.9,0.1-1.7,0.4-2.5,0.7c0.4-0.2,3.4,1.2,4,1.4C48.3,151.1,51.4,153.3,54.4,156.7z"/>
		<path fill="none" d="M53.8,158.4c-1.8-1.2-4.1-2.1-6.3-2.1c-0.5,0-0.9,0.1-1.3,0.1c-1.6,0.4-3,1.4-3.9,2.9c0.7-0.2,1.4-0.5,2.1-0.8
			c1.9-0.6,3.9-0.6,5.8-0.2c1.2,0.3,4.9,0.8,5.5,2.1C55.3,159.6,54.5,158.9,53.8,158.4z"/>
		<path fill="none" d="M147.8,63.3c2.5-1.3,5.1-2.4,7.8-3.5c0.6-0.3,1.8-0.3,2.1,0.1c0.4,0.5,0.5,1.5,0.4,2.2c-0.9,4.6-2,9.1-3,13.6
			c-0.3,1.2,0.1,1.4,1.2,1.1c2.7-0.7,5.4-1.2,8-2c1.2-0.3,1.9-0.4,1.4,1.2c0.9,1.9-0.5,2.1-1.7,2.4c-2.7,0.7-5.5,1.5-8.2,2.2
			c-0.2,0.1-0.5,0.2-0.7,0.1c-2.4-1.4-3.9-4.5-3.3-7.3c0.6-2.8,1.4-5.5,2.1-8.3c0.1-0.3,0-0.6,0-0.9c-0.2,0.1-0.5,0.1-0.7,0.2
			c-1.6,0.5-3.1,1.1-4.7,1.5c-0.4,0.1-1-0.3-1.5-0.4C147.2,64.8,147.2,63.6,147.8,63.3z M129.6,74.3c2.5-2.1,4.9-4.5,7.7-6.2
			c1.7-1,3.1,0.2,2.6,2.2c-0.4,2-1.4,3.9-2,5.9c-0.5,1.6-1,3.3-1.5,5c0,0.1,0.6,0.4,0.8,0.4c2.1-0.8,4.2-1.7,6.4-2.4
			c0.5-0.2,1.3,0.2,1.9,0.3c-0.2,1-0.1,2.4-0.7,2.8c-1.2,0.9-2.9,1.1-4.2,1.7c-2.3,1.2-4.3,3.8-7,2.4c-0.4-1.7-0.5-3.3-0.5-4.9
			c0.1-2.2,0.5-4.3,1.1-6.6c0.1-0.3,0.1-0.7,0.1-1c-0.4,0.1-0.7,0.1-1.1,0.2c-1,0.4-2,0.9-3,1.2c-0.3,0.1-0.7-0.1-1-0.2
			C129.4,74.9,129.4,74.5,129.6,74.3z M108.9,86.2c1-1.6,2-3.3,3.5-4.5c1.8-1.5,3.9-2.6,6-3.7c1.7-0.9,2.7,0,2.5,1.8
			c-0.2,1.5-0.6,3.1-0.8,4.6c-0.4,2.4-0.8,4.7-1.2,7.1c0,0.2,0,0.4,0.1,0.6c0.2-0.1,0.5-0.1,0.7-0.2c2.1-1.2,4.1-2.6,6.2-3.7
			c1.1-0.6,2.5-1.2,2.7,1.8c-0.4,0.5-1.1,1.7-2.1,2.4c-2.6,1.7-5.3,3.2-8,4.7c-0.3,0.2-1.3-0.2-1.5-0.5c-1.9-3.7-0.9-7.5-0.2-11.3
			c0.1-0.4,0.1-0.9,0.1-1.4c-0.4,0.2-0.7,0.5-1.1,0.7c-1.9,1.1-3.8,2.3-5.8,3.1C108.5,88.5,108.4,87.1,108.9,86.2z M23.4,101.2
			c5.5-6.2,13.4-12,21.1-15c7.4-2.8,15.1-4,22.8-4.2c3.6,0.2,7,0.2,10.3,0.7c2.7,0.4,5.4,1,8,1.9c6.8,2.3,13.9,5.4,19.2,10.3
			c2.4,2.2,4.4,4.7,6,7.6c0.9,1.5,1.6,3.1,2.2,4.6c0.4,1,1.6,2.8,1.2,3.8c-0.2,0.5-0.5,0.8-0.8,1.2c-3.1,3.7-4.9,8.4-7.1,12.7
			c-3.6,7.3-6.8,14.8-10.2,22.2c-0.2,0.4-0.7,0.7-1.1,0.7c-2.7,0-5.4-0.5-8.1-0.6c-1.4,0-5.6,1-6.6-0.4c-0.2-0.3-0.3-0.8-0.4-1.2
			c-0.3-1.2-1-2.4-1.9-3.2c-0.2,2.8-1,5.3-1.7,8c-0.6,2.5-1.4,5-2.3,7.5c-1.3,3.3-5.7,7.1-9.7,5.7c-2.5-0.9-4-4.3-4.3-6.7
			c-0.3-2.5,0.4-5,1.5-7.3c0.9-1.8,1.9-3.5,3-5.2c0.2-0.3,2.4-4.7,2.2-4.7c-3-0.4-5.3,3.8-6.5,6c-1,1.9-2,3.4-2.3,5.5
			c-0.3,1.7-1.8-2.8-2.1-3.2c-1-1.2-2.1-2.2-3.2-3.2c-1.8-1.5-3.7-3.1-5.7-4.3c-6-3.5-12.9-5.7-19.9-5.4c-3.9,0.1-8.2,0.2-12,1.4
			c-1-1.8-0.9-5-0.9-7.1C13.8,118.8,16.4,109.1,23.4,101.2z"/>
		<path fill="none" d="M76,116.1c1.7-2.8,2.7-6.1,2.1-9.4c-0.1-0.5-0.2-1-0.4-1.6c-0.6-1.7-2.1-2.7-3.6-3.7c-0.2-0.1-0.3-0.2-0.5-0.2
			c2.2,4,1.8,10.5-0.6,14.3c-0.7,1.1-4.1,5.5-5.8,5C71.1,121.8,74.1,119.3,76,116.1z"/>
		<path fill="#EFEEDF" d="M168.8,100c-5.2-1-10.5-0.4-15.5,1.1c-2.6,0.8-5,2.8-7.3,4.4c-7.1,4.9-13.2,11-18.6,17.8
			c-4.2,5.3-7.4,11.2-9.6,17.5c-0.2,0.5-0.5,0.8-0.8,1.3c0-0.5-0.3-1.1-0.1-1.6c2.3-5.1,4.1-10.6,7.1-15.3
			c6.1-9.6,14.5-17.1,23.7-23.9c0.2-0.1,0.3-0.8,0.3-0.8c-1.3-0.8-2.5-1.9-3.9-2.2c-8.9-1.9-18,3.9-23.4,10.5
			c-2.9,3.6-5.7,7-7.8,11.1c-4,7.9-7.7,16.1-11.4,24.2c-0.8,1.8-1.4,3.7-2.2,5.5c-1.1,2.3-2.7,4.3-3.5,6.6c-1.1,3.3-1.7,6.7-2.4,10.1
			c-0.4,1.8-0.5,3.6-0.9,5.4c-0.1,0.5-0.6,0.8-0.9,1.3c-0.2-0.5-0.5-0.9-0.5-1.4c0.1-1.5,0.1-3.1,0.4-4.6c1.1-5.2,2.3-10.5,3.3-15.7
			c0.1-0.4-0.6-1.2-0.9-1.3c-2.5-0.3-5.1-0.6-7.6-0.5c-1.8,0-3.5,0.5-5.3,0.9c-0.4,0.1-1,0.2-1.1,0.5c-0.7,2.2-1.3,4.6-2.1,6.8
			c-0.6,1.7-1.4,3.4-2.6,4.7c-4.5,4.9-12.9,5.6-16.3-0.8c-1.4-2.6-2.3-4.1-2.5-7.1c0-0.5-0.1-1.1-0.3-1.6c-1.9-3.8-5.1-6.2-8.5-8.8
			c-2.5-1.9-5.3-3.3-8.3-4.1c-5.8-1.5-11.8-2.5-17.8-1.8c-5.7,0.6-11,2.7-16.1,5.3c-1.8,0.9-3.6,1.7-5.2,2.7V185h130.3
			c0.7-5.9,1.5-11.9,2.3-17.8c2.2-15.8,9.4-29.3,19.9-41.1c3-3.3,6.4-6.5,11-7.6c1.7-0.4,2.7,0.3,2.4,2c-0.4,2.2-0.9,4.5-1.8,6.5
			c-5.1,10.7-10.5,21.2-15.4,31.9c-2.3,5.1-3.7,10.7-5.6,16.1c-0.1,0.4-0.5,0.7-0.8,1.1c-0.2-0.5-0.5-0.9-0.5-1.3
			c0.1-1,0.1-2.1,0.5-3.1c2-5.5,4.1-11,6.3-16.4c3.1-7.5,6.2-15,9.4-22.4c1.3-3.1,2.9-6.1,4.3-9.2c0.2-0.4,0-1.1,0-1.6
			c-0.5,0.2-1,0.3-1.4,0.5c-8.9,5.8-14.4,14.5-19.2,23.5c-4.2,7.9-6.4,16.5-7.6,25.3c-0.6,4.6-1.7,9.1-2.3,13.6h48.2v-82.2
			c-0.5-0.1-0.9-0.3-1.4-0.3C175.3,102,172.1,100.7,168.8,100z M39.9,148.4c0.8-0.4,1.6-0.6,2.5-0.7c2.4,0,4.6,0,6.8,1.4
			c1.7,1.1,2.7,3.3,3.9,5c0.6,0.8,1.2,1.7,1.4,2.7c-3-3.4-6.1-5.6-10.5-7C43.3,149.6,40.3,148.2,39.9,148.4z M50.2,158.4
			c-1.9-0.4-3.9-0.4-5.8,0.2c-0.7,0.2-1.4,0.6-2.1,0.8c0.8-1.4,2.3-2.5,3.9-2.9c0.4-0.1,0.9-0.1,1.3-0.1c2.2,0,4.5,0.9,6.3,2.1
			c0.8,0.5,1.5,1.2,1.9,2.1C55.1,159.2,51.3,158.7,50.2,158.4z M83.9,157c-0.5,0.4-4,3.3-3.9,3.8c-0.2-0.9,0.1-1.8,0.5-2.6
			c0.8-1.7,2.4-3.2,4.1-3.9c0.2-0.1,0.4-0.1,0.6-0.2c0.8-0.2,1.6-0.2,2.4-0.1c0.5,0.1,1.9,1.1,2.3,1.1C88,155.4,85.5,155.8,83.9,157z
			"/>
		<path fill="#EFEEDF" d="M15,136.3c3.8-1.2,8-1.3,12-1.4c7-0.2,13.9,2,19.9,5.4c2,1.2,3.9,2.8,5.7,4.3c1.1,1,2.2,2,3.2,3.2
			c0.3,0.4,1.8,4.8,2.1,3.2c0.4-2.1,1.3-3.6,2.3-5.5c1.2-2.1,3.5-6.4,6.5-6c0.2,0-2,4.4-2.2,4.7c-1.1,1.7-2.1,3.4-3,5.2
			c-1.1,2.3-1.8,4.8-1.5,7.3c0.3,2.4,1.8,5.9,4.3,6.7c4,1.4,8.3-2.4,9.7-5.7c1-2.4,1.7-4.9,2.3-7.5c0.7-2.7,1.5-5.2,1.7-8
			c0.9,0.9,1.6,2,1.9,3.2c0.1,0.4,0.1,0.8,0.4,1.2c0.9,1.4,5.2,0.3,6.6,0.4c2.7,0.1,5.4,0.5,8.1,0.6c0.4,0,1-0.4,1.1-0.7
			c3.4-7.4,6.6-14.9,10.2-22.2c2.1-4.3,3.9-9,7.1-12.7c0.3-0.4,0.7-0.8,0.8-1.2c0.4-1-0.8-2.8-1.2-3.8c-0.7-1.6-1.4-3.1-2.2-4.6
			c-1.6-2.8-3.6-5.4-6-7.6c-5.3-4.9-12.4-8-19.2-10.3c-2.6-0.9-5.3-1.5-8-1.9c-3.3-0.4-6.7-0.5-10.3-0.7c-7.6,0.2-15.4,1.4-22.8,4.2
			c-7.7,2.9-15.6,8.8-21.1,15c-7,7.9-9.5,17.7-9.2,28.1C14.2,131.3,14,134.5,15,136.3z M86,120.5c0.1-3.1,0.4-6.3,1.4-9.2
			c1.4-4.3,4.5-10.3,9.2-11.6c2.7-0.8,4.8,0.3,6.7,2.3c1.9,1.9,2.5,4.9,2.1,7.5c-0.6,4-2.7,7.7-5.5,10.6c-1.8,1.9-4,3.3-6.3,4.5
			c-1.6,0.8-3.5,1.3-4.1,3.1c-0.3,1-0.3,2.1-0.3,3.1c0,0.6-0.1,1.3-0.6,1.6c-0.4,0.2-1,0.1-1.3-0.2s-0.6-0.8-0.7-1.2
			C85.4,127.8,85.9,123.7,86,120.5z M73.1,115.6c2.4-3.8,2.8-10.3,0.6-14.3c0.2,0,0.4,0.1,0.5,0.2c1.5,1,3.1,1.9,3.6,3.7
			c0.2,0.5,0.3,1,0.4,1.6c0.5,3.3-0.4,6.6-2.1,9.4c-1.9,3.1-4.9,5.6-8.8,4.4C68.9,121.1,72.4,116.7,73.1,115.6z"/>
		<path fill="#EF6E50" d="M110.1,87.8c2-0.8,3.9-2,5.8-3.1c0.4-0.2,0.7-0.5,1.1-0.7c0,0.5-0.1,0.9-0.1,1.4c-0.8,3.8-1.8,7.6,0.2,11.3
			c0.2,0.3,1.1,0.7,1.5,0.5c2.7-1.5,5.4-3,8-4.7c1-0.7,1.6-1.8,2.1-2.4c-0.1-3-1.6-2.4-2.7-1.8c-2.1,1.1-4.1,2.5-6.2,3.7
			c-0.2,0.1-0.5,0.2-0.7,0.2c0-0.2-0.1-0.4-0.1-0.6c0.4-2.4,0.8-4.7,1.2-7.1c0.3-1.5,0.7-3.1,0.8-4.6c0.2-1.8-0.8-2.7-2.5-1.8
			c-2.1,1.1-4.2,2.2-6,3.7c-1.4,1.2-2.5,2.9-3.5,4.5C108.4,87.1,108.5,88.5,110.1,87.8z"/>
		<path fill="#EF6E50" d="M175.6,71.9c0.5-1.9,1.1-3.8,1.6-5.8c0.7-2.8,1.4-5.7,2-8.6c0.4-2-0.5-2.8-2.5-2.1c-2.3,0.8-4.7,1.2-6.9,2
			c-1.3,0.5-2.5,1-3.8,1.4c-0.6,0.2-1.2,0.7-0.9,1.2c1.1,0.7,2.4,0.4,3.6,0c1.8-0.6,3.4-0.9,5.3-0.9c0.1,0,0.5,0.8,0.4,1
			c-1,3-2,6.1-3.2,9c-1.5,3.6,1.2,6.8,5,6.7c1.3-0.3,2.6-0.6,3.9-0.9v-3.3c-1.2,0.2-2.4,0.3-3.6,0.4
			C176.2,72.3,175.6,71.9,175.6,71.9z"/>
		<path fill="#EF6E50" d="M148.4,66c1.6-0.4,3.2-1,4.7-1.5c0.2-0.1,0.5-0.1,0.7-0.2c0,0.3,0.1,0.6,0,0.9c-0.7,2.8-1.5,5.5-2.1,8.3
			c-0.6,2.8,0.9,6,3.3,7.3c0.2,0.1,0.5,0,0.7-0.1c2.7-0.7,5.5-1.5,8.2-2.2c1.3-0.3,2.7-0.5,1.7-2.4c0.5-1.6-0.2-1.5-1.4-1.2
			c-2.7,0.7-5.4,1.3-8,2c-1.1,0.3-1.4,0-1.2-1.1c1-4.5,2.1-9.1,3-13.6c0.1-0.7,0.1-1.8-0.4-2.2c-0.4-0.4-1.5-0.4-2.1-0.1
			c-2.6,1.1-5.3,2.2-7.8,3.5c-0.6,0.3-0.6,1.5-0.9,2.3C147.4,65.7,147.9,66.1,148.4,66z"/>
		<path fill="#EF6E50" d="M130.2,75.3c1-0.4,2-0.9,3-1.2c0.3-0.1,0.7-0.1,1.1-0.2c0,0.3,0,0.7-0.1,1c-0.6,2.3-1,4.4-1.1,6.6
			c0,1.6,0.1,3.2,0.5,4.9c2.7,1.4,4.7-1.2,7-2.4c1.4-0.7,3-0.9,4.2-1.7c0.6-0.4,0.5-1.9,0.7-2.8c-0.6-0.1-1.4-0.5-1.9-0.3
			c-2.2,0.7-4.3,1.6-6.4,2.4c-0.2,0.1-0.8-0.3-0.8-0.4c0.4-1.7,0.9-3.4,1.5-5c0.7-2,1.6-3.9,2-5.9c0.4-2-1-3.3-2.6-2.2
			c-2.8,1.7-5.1,4.1-7.7,6.2c-0.2,0.2-0.3,0.6-0.4,0.8C129.6,75.2,130,75.4,130.2,75.3z"/>
		<path fill="#707070" d="M87.2,132.1c0.4,0.3,0.9,0.4,1.3,0.2c0.5-0.3,0.6-1,0.6-1.6c0-1,0-2.1,0.3-3.1c0.6-1.8,2.6-2.3,4.1-3.1
			c2.3-1.2,4.5-2.6,6.3-4.5c2.9-2.9,4.9-6.6,5.5-10.6c0.4-2.6-0.2-5.5-2.1-7.5c-1.9-2-4-3.1-6.7-2.3c-4.7,1.3-7.8,7.3-9.2,11.6
			c-1,3-1.3,6.1-1.4,9.2c-0.1,3.2-0.6,7.4,0.5,10.5C86.6,131.4,86.8,131.8,87.2,132.1z M92.5,106.2c1.5-1.6,2.8-3.2,4.8-4.3
			c0.3-0.2,0.6-0.3,0.9-0.3c0.3,0,0.5,0.2,0.7,0.4c0.7,0.6,1.5,1.2,1.8,2.1c1.6,4.7-6,4.3-8.2,2.6c-0.1-0.1-0.1-0.1-0.1-0.2
			C92.4,106.3,92.4,106.3,92.5,106.2z M91.4,108.2c1.2,0.4,2.6,0.9,3.4,2c0.8,1,0.9,2.8-0.2,3.5c-0.3,0.2-0.6,0.3-1,0.4
			c-1.4,0.4-2.8,0.5-4.2,0.5C89.5,112.3,90.2,110.1,91.4,108.2z M89,116.1c1.5-0.1,3.2,0.5,3.7,1.9c0.4,1.1-0.1,2.4-1,3.3
			c-0.9,0.8-2,1.3-3.1,1.7C88.3,120.7,88.5,118.4,89,116.1z"/>
		<path fill="#EFEEDF" d="M92.5,106.6c2.2,1.7,9.7,2.1,8.2-2.6c-0.3-0.9-1.1-1.5-1.8-2.1c-0.2-0.2-0.4-0.3-0.7-0.4
			c-0.3,0-0.6,0.1-0.9,0.3c-1.9,1.1-3.3,2.7-4.8,4.3c-0.1,0.1-0.1,0.1-0.1,0.2C92.4,106.5,92.5,106.6,92.5,106.6z"/>
		<path fill="#EFEEDF" d="M93.6,114.1c0.3-0.1,0.7-0.2,1-0.4c1.1-0.7,1-2.5,0.2-3.5c-0.8-1-2.1-1.5-3.4-2c-1.2,1.9-1.9,4.1-2,6.4
			C90.8,114.7,92.2,114.5,93.6,114.1z"/>
		<path fill="#EFEEDF" d="M91.6,121.3c0.9-0.8,1.4-2.1,1-3.3c-0.5-1.4-2.2-2-3.7-1.9c-0.5,2.3-0.6,4.6-0.5,6.9
			C89.6,122.6,90.7,122.1,91.6,121.3z"/>
		<path fill="#707070" d="M38.4,112.7c-0.1-2.8-1.1-5.4-2.4-7.8c-0.3-0.5-0.5-1.3-1-1.7c-1.2-0.7-1.5,0.6-1.3,1.4
			c1.1,3.8,4.2,9,0.6,12.5c-1.1,1-2.5,1.4-3.9,1.2c-0.4-0.1-1-0.3-1.5-0.4c0,0-0.1,0-0.1-0.1c0,0,0,0,0,0c-0.6-0.1-1.2,0-1.5,0.7
			c-0.3,0.8,0.1,1.2,0.7,1.5c0,0,0,0,0,0c0.1,0,0.1,0,0.2,0c0.2,0.1,0.5,0.3,0.7,0.4c2,1.1,3.8,3.4,3.6,5.8c-0.1,1.7-1.2,2.8-2.5,3.7
			c-0.8,0.5-1.7,0.7-2.6,0.7c-1.2,0-1.9-0.6-2.9,0.2c0,0,0,0-0.1,0.1c0,0.1,0,0.1,0,0.1c-0.5,2.7,4.9,2,6.4,1.4
			c1.1-0.5,2.1-1.2,2.8-2.1c1.9-2.1,1.9-5.1,0.8-7.6c-0.4-0.8-0.9-1.6-1.5-2.2c0.6-0.1,1.1-0.3,1.7-0.6
			C37.2,118.8,38.5,115.7,38.4,112.7z"/>
		<path fill="#EFEEDF" d="M45.3,54.1c-3.2,5.2-10.4,7.4-15.9,4.9c-7.1-3.2-10.5-13.1-6.6-20c0.8-1.4,2-2.7,3.4-3.5
			c-3.7-0.2-7.1,2.3-9.1,5.5c-3.1,5.2-4.1,13.2-1.8,19c0.7,1.8,2,3.4,3.5,4.7c4.4,3.8,11,4.9,16.4,2.7C40.6,65.2,44.6,59.9,45.3,54.1
			z"/>
		<path fill="#EFEEDF" d="M94.2,51c-1.1,1.6-2.2,3.3-3.3,4.9c1.5-0.6,3-1.2,4.5-1.8c0.6,2,1.4,4,2.5,5.9c0.2-1.7,0.5-3.5,0.7-5.2
			c0-0.3,0.1-0.7,0.3-1c0.2-0.3,0.5-0.4,0.7-0.6c1.4-0.9,2.9-1.6,4.5-2.3c-1.5,0-3.1-0.2-4.5-0.8c0.1-1.7,0.2-3.4,0.1-5.1
			c-0.8,1.1-1.6,2.3-2.3,3.4c-0.1,0.2-0.2,0.3-0.4,0.4c-0.3,0.1-0.6,0-0.8-0.1c-2.2-0.8-4.5-1.6-6.7-2.4C91.3,47.2,92.1,50,94.2,51z"
			/>
		<path fill="#EFEEDF" d="M142.7,29.9c-0.7-1.5-1.4-2.9-2.1-4.4c-0.4,1.8-0.8,3.6-1.2,5.4c-0.1,0.3-0.1,0.5-0.3,0.7
			c-0.2,0.2-0.4,0.3-0.7,0.4c-1.1,0.4-2.2,0.8-3.3,1.2c1.4,0.1,2.8,0.2,4.2,0.3c-0.6,1.8-0.8,3.8-0.7,5.7c0.5-1.6,1.3-3.1,2.4-4.4
			c0.1-0.1,0.2-0.3,0.4-0.3c0.2,0,0.4,0,0.5,0.1c1.6,0.5,3.1,0.9,4.7,1.4c-0.3-1.3-1-2.5-2-3.3c-0.1-0.1-0.2-0.2-0.2-0.4
			c0-0.1,0.1-0.2,0.1-0.3c0.7-0.9,1.3-1.8,2-2.6C145.2,29.7,144,29.8,142.7,29.9z"/>
		<path fill="#EFEEDF" d="M70.5,2.4C70.7,2.9,73,6.3,73.2,6C72.7,7,72.3,8,71.9,9c-0.3,0.8-0.6,2.3-1.2,2.9c1-1,2.2-1.8,3.2-2.8
			C73.9,9,74,8.9,74.1,8.9c0.1,0,0.2,0.1,0.2,0.1c1.4,1.1,2.9,2.2,4.3,3.3c-0.1-1.6-0.7-3-1.4-4.4c-0.1-0.1-0.1-0.3-0.1-0.5
			c0-0.1,0.1-0.1,0.2-0.2c0.9-0.7,2.8-2.8,4.1-2.9c-1.4,0.1-2.8-0.1-4.2-0.4c0.1-1.3,0-2.6-0.2-3.9c-0.4,0.9-0.7,1.9-1.1,2.8
			c-0.1,0.2-0.2,0.4-0.4,0.6c-0.3,0.2-0.7,0.1-1,0C73.2,3.1,71.9,2.8,70.5,2.4z"/>
	</g>
	<g id="starveIcon">
		<g>
			<path fill="#EF6E50" d="M166.6,143.5c-4.1-0.5-8.2-0.9-12.3-1.6c-4.7-0.9-9.5-1.2-14.2-1.9c-4.9-0.8-9.8-1.6-14.7-2.4
				c-2.4-0.4-4.7-1-7.1-1.6c-8.4-2.3-17.6-2.8-26.2-4.3c-8.6-1.5-17.5-3-26.1-3.5c-12.3-0.7-24.6-4.1-36.8-5.2
				c-3.6-0.3-7.1-0.6-10.7-1.2c-3.3-0.5-6.4-1.6-9.6-2.1c-0.4-0.1-6.1-0.8-8.9-1.2v52.8h180v-26c-1.5-0.2-3-0.4-4.5-0.7
				C172.6,144,169.5,143.8,166.6,143.5z"/>
		</g>
		<path fill="#707070" d="M60.2,122.8c-2.9-0.2-5.8-0.4-8.7-0.7c-6.7-0.7-13.9-0.9-20.3-3.2c0.2,2.5,0.7,5,1.3,7.7
			c0.9,3.7,3.4,6.2,6.6,6.7c7.1,1.2,14,0.9,20.7-1.8c3.4-1.4,6.1-3.8,8.3-5.9c0.6-0.6,1.2-1.2,1.7-1.8c0.1-0.1,0.3-0.3,0.4-0.4
			C66.9,123.2,63.6,123,60.2,122.8z"/>
		<path fill="#707070" d="M167.1,133.4c-14.7-0.9-29.3-3.2-43.8-5.5c-0.6,1-1.5,1.8-2.7,2.3c-0.6,0.5-1.3,0.9-2.1,1.2
			c-4.3,1.5-8.3,3.1-12.6,3.4c-0.9,0.3-1.7,0.7-2.5,1.2c-1.2,0.7-3,1.7-4.4,3.1c-0.2,0.2-0.5,0.5-0.8,0.7c-0.7,0.6-1.4,1.2-2,2
			c-1.2,1.6-1.3,4.8-1.7,6.8c-0.4,2.1-0.7,4.6,1.6,5.8c-0.1,0.7,0,1.5,0.4,2.3c1.6,2.9,5.8,1.2,8.3,1.1c4.9-0.1,8.2-1.6,12.4-3.5
			c3.3-1.5,7.1-0.9,10.5-2.3c6.5-2.8,14-1.5,20.8-2.9c1.4-0.3,2.8-0.5,4.2-0.7c1.2-0.2,2.4-0.4,3.5-0.6c5.2-1,9.2-6.1,10.4-10.6
			C166.8,135.9,167,134.6,167.1,133.4C167.2,133.4,167.1,133.4,167.1,133.4z"/>
		<path fill="#707070" d="M84.7,150.9c-0.2-2-1.7-8.6-13.6-11.9c-0.8-0.2-1.5-0.4-2.3-0.7c-2.5-0.7-5-1.5-7.6-1.8
			c-2.1-0.2-4.2-0.5-6.1-0.7c-1.4-0.2-2.8-0.3-4.2-0.5c-3.4-0.4-7.4-0.8-11.4-0.8c-0.2,0-0.5,0-0.7,0c-9.1,0.1-19.2-0.1-27.9,3.2
			c-1.9,0.7-3.7,1.8-5.2,2.8l-0.4,0.3c-1.7,1.1-2.8,3.1-3,5.4c-0.2,2.8,0.8,5.5,2.8,7.2c4.8,4.2,9.7,9.2,15.7,11.6
			c6.7,2.7,13.8,4.1,21.1,4.1c5.5,0,11.3-0.8,17.1-2.4c6.7-1.8,13.2-3.9,19.8-6.1C83.5,159.1,85.1,155.8,84.7,150.9z"/>
		<path fill="#EFEEDF" d="M56.2,163.9c-1.1,0-2.2,0-3.2,0l-0.3,0c-2.4,0-4.8,0-7.2-0.1c-1.8,0-3.5,0-5.3,0l-0.5,0c-0.8,0-1.6,0-2.4,0
			c-0.8,0-1.6,0-2.4,0c-1.4,0-2.6,0-3.6-0.1c-2.2-0.2-4.4-0.6-6.5-1.1c-0.5-0.1-1-0.2-1.4-0.3c-1.8-0.4-3.6-0.8-5.3-1.2
			c-0.5-0.1-0.9-0.2-1.4-0.3c7.4,3.5,15.2,5.3,23.2,5.3C45.1,166.2,50.6,165.4,56.2,163.9z"/>
		<path fill="#EFEEDF" d="M70.3,141.9c-0.8-0.2-1.6-0.4-2.4-0.7c-2.3-0.7-4.7-1.4-7.1-1.6c-2-0.2-4.1-0.5-6.1-0.7
			c-1.4-0.2-2.8-0.3-4.2-0.5c-3.3-0.4-7.2-0.8-11.1-0.8c-0.2,0-0.4,0-0.7,0c-1,0-2,0-3,0c-7.9,0-16.1,0.1-23.8,2.9
			c-1.6,0.6-3.1,1.6-4.6,2.5l-0.4,0.3c-0.9,0.6-1.5,1.7-1.6,3.2c-0.1,1.8,0.5,3.6,1.8,4.7c0.4,0.4,0.9,0.8,1.3,1.2
			c1.1,1.1,2.3,2.2,3.6,3c2.3,1.4,4.8,2.8,7.4,3.4c3.5,0.8,7.1,1.1,10.7,1.5l1.1,0.1c3.4,0.3,7,0.5,11.7,0.6c0.4,0,0.8,0,1.1,0
			c1,0,2,0,3-0.1c1,0,2-0.1,3.1-0.1c0.2,0,0.5,0,0.7,0c4,0.1,8.1,0.2,12.1,0.3c1.7,0,3.3,0.1,5,0.1c2.9-0.1,5.4-1.3,7.9-2.5
			c0.6-0.3,1.1-0.5,1.7-0.8c2.9-1.4,4.4-3.8,4.1-6.9C81.6,150.1,80.6,144.7,70.3,141.9z M73,151.5c-3.2,1.9-6.1,2.8-9.1,2.8
			c-0.8,0-1.5-0.1-2.3-0.2l-1.8-0.3l1.8-0.4c0.3-0.1,0.7-0.2,1-0.2c0.8-0.2,1.5-0.3,2.3-0.5l0.5-0.1c1-0.2,2-0.5,2.9-0.8
			c0.7-0.3,1.5-0.6,2.2-0.9c0.3-0.1,0.5-0.2,0.8-0.3c-0.2-0.1-0.4-0.2-0.6-0.3c-0.6-0.3-1.1-0.5-1.7-0.6l-2-0.3
			c-2.9-0.5-5.9-1-8.9-1.4c-1.6-0.2-3.2-0.2-4.8-0.2c-1.5,0-3-0.1-4.5-0.2c-1.7-0.2-3.5-0.4-5.2-0.6c-1.5-0.2-3.1-0.4-4.7-0.6
			c-1.7-0.2-3.5-0.3-5.4-0.3c-2.4,0-4.9,0.1-7.9,0.4c-0.8,0.1-1.7,0.1-2.5,0.2c-0.3,0-0.6,0-0.9,0.1c0.2,0.1,0.4,0.2,0.6,0.3
			c0.7,0.4,1.3,0.8,2,1l1,0.3c2.7,0.8,5.6,1.6,8.4,2c2.9,0.4,5.8,0.7,8.6,1c1.3,0.1,2.6,0.2,3.9,0.4c0.2,0,0.5,0.1,0.8,0.1
			c0.2,0,0.3,0.1,0.5,0.1l2.9,0.5l-2.9,0.2c-0.5,0-1,0.1-1.5,0.2c-0.8,0.1-1.5,0.2-2.2,0.2c-0.2,0-0.4,0-0.7,0
			c-4.9-0.4-9.2-0.9-13.3-1.4c-2.3-0.3-5-0.7-7.5-1.5c-1.2-0.4-2.1-1.2-3.1-2.1c-0.2-0.2-0.5-0.4-0.7-0.6c-0.2-0.2-0.2-0.4-0.2-0.6
			c0-0.2,0.2-1.1,0.7-1.3c1-0.5,2.1-1,3.2-1.1c4-0.4,7.4-0.6,10.4-0.6c2.7,0,5.3,0.1,7.7,0.5c3.3,0.4,6.6,0.7,9.8,1.1
			c2.6,0.3,5.2,0.5,7.9,0.8c3.3,0.4,6.8,0.9,11.2,1.6c0.9,0.1,1.8,0.5,3,1.1c0.6,0.3,0.9,0.8,1,1.4C73.8,150.8,73.6,151.2,73,151.5z"
			/>
		<path fill="#EFEEDF" d="M109.2,131.2c4.3,0.7,7.6,0.9,11.8-0.2c4.9-1.3,10.3-2.2,15-3.8c4.1-1.3-0.2-6.9-1.4-8.5
			c-0.5-0.6-0.8-1.3-1.1-1.9c-1.3-2.5-1.7-4.8-2.6-7.5c-1.4-3.8-1.5-7.5-2.2-11.5c-0.1-0.7-0.6-2.1,0-2.8c0.1-0.2,0.3-0.2,0.5-0.2
			l0.1,0c0.4,0,1.2,1,1.4,1.2c0.4,0.5,0.7,1.2,0.9,2.2c0.2,0.8,0.3,1.7,0.4,2.5c0.1,0.9,0.2,1.8,0.4,2.6c0.5,2.4,1.2,4.9,2,7.4
			c0.5,1.6,1.3,4.6,2.9,5.4c2,1,5.9,0.4,8.2,0.4c5.7,0,10.7-1.7,15.9-3.8c0.1,0,0.2-0.1,0.2-0.2c0.1-0.1,0-0.3-0.1-0.4
			c-0.7-1.2-1.2-2.6-1.6-4c-0.2-0.8-0.3-1.7-0.6-2.5c-0.2-0.8-0.6-1.6-1-2.3c-3.3-7.1-5.2-14.4-9.2-21.2c-1-1.7-2.1-3.4-3.1-5.1
			c-0.2-0.3-0.4-0.7-0.7-1c-0.7-1.1-1.5-2.3-2.4-3.2c-3-2.8-6.1-5.6-9.1-8.2L132,63l-1.7-1.5c-2.8-2.5-5.6-5-8.5-7.4
			c-1-0.9-2.2-1.5-3.5-2.2c-0.6-0.3-1.1-0.6-1.7-1l-0.2-0.1l0-0.2l0.1-0.5c0.1-0.5,0.2-1.1,0.3-1.7c0.2-0.7,0.3-1.4,0.5-2.1
			c0.4-1.5,0.8-3.1,0.9-4.7c0.1-1.7-0.2-3.4-0.4-5c-0.1-0.8-0.2-1.5-0.3-2.3c-1.1-9.5-4.7-18-10.3-24.1c-4.4-4.8-10.4-8.2-16.9-9.5
			C88.4,0.2,86.4,0,84.5,0c-1.3,0-2.6,0.1-3.9,0.3c-1.3,0.2-2.6,0.6-3.9,0.9l-0.8,0.2c-0.8,0.2-1.6,0.3-2.4,0.4
			c-0.7,0.1-1.4,0.1-2.1,0.3c-3.3,0.8-6.5,2.3-9.9,4.5c-4.4,2.9-7.3,6.2-9,10.2c-0.7,1.7-1.4,3.5-2.1,5.3c-0.3,0.8-0.7,1.7-1,2.5
			c-1.7,4.4-2.6,8.1-2.6,11.6c0,1.5-0.1,3-0.2,4.4c-0.1,1.9-0.3,3.8-0.2,5.6c0.1,2.2,0.5,4.5,0.9,6.6c0.2,0.9,0.3,1.9,0.5,2.9
			c0,0.2,0.1,0.4,0.1,0.6c0.1,0.7,0.2,1.3,0.4,2c0.4,1.6,0.8,1.9,1.6,1.9c0.3,0,0.8-0.1,1.4-0.2c0.4-0.1,0.7-0.1,1-0.1l0.2,0l0.1,0
			c2.1,0,4,0.7,5.9,2.2c0.3,0.2,0.6,0.4,0.9,0.6c2.9,2.2,5.8,4.4,6,8.8c0.1,2.4,1.1,3.5,3.2,3.7c1.8,0.1,3.5,0.5,5.4,0.8
			c0.7,0.1,1.5,0.3,2.3,0.4l0.2,0c0.4,0,0.5,0.6,0.5,0.7c0.2,2.8,1.3,5.4,3.3,8.7c0.4,0.6,0.8,1.1,1.3,1.2c0.4,0.2,0.8,0.3,1.2,0.3
			c1,0,1.6-0.7,1.9-2c0.8-3.5,1.3-7.1,1.7-10.7c0.2-1.6,0.8-2.5,2.1-3.1c0.7-0.3,1.4-0.6,2-0.9c1.2-0.5,2.3-0.9,3.5-1.5
			c2.3-1.2,4.7-2.5,6.9-4c1.9-1.3,3.8-2.8,5.7-4.3c2.4-1.9,4.2-4,6.5-5.9c0.3-0.3,0.8-0.5,1.1-0.2c0.2,0.2,0.1,0.6,0,0.9
			c-3.4,6.8-10.6,10.7-16.9,14.5c-1.4,0.8-2.9,1.5-4.4,2.1c-0.9,0.3-1.7,0.7-2.6,1.1c-0.4,0.2-0.8,0.6-0.8,0.9
			c-0.3,1.4-0.4,2.9-0.5,4.3c-0.2,2.1-0.3,4.3-1,6.5c-0.3,1-0.7,2.1-1.4,3.1c-1,1.4-2.6,2.3-4.2,2.3c-1.4,0-2.6-0.7-3.4-2.1
			c-0.7-1.2-1.4-2.4-2.1-3.6c-0.7-1.2-1.5-2.3-2-3.6c-0.3-0.8-0.3-1.5-1-2.2c-1.8-1.6-5-0.4-7-2c-0.8-0.6-2.8,2.4-3.8,3
			c-0.5,0.3-1,0.4-1.4,0.4c-0.2,0-0.4,0-0.6-0.1l-0.6-0.2l0.5-0.4c2.3-1.8,2.5-3.7,2.1-6.7c0-0.3-0.1-0.6-0.1-0.8
			c-0.1-0.8-0.2-1.7-0.5-2.4c-1.3-3.4-4.3-5.3-7.2-7.1l-0.3-0.2c-0.3-0.2-0.7-0.3-1.2-0.3c-0.7,0-1.4,0.1-2.1,0.3
			c-0.4,0.1-0.8,0.1-1.1,0.2l-0.3,0c-0.9,0.1-1.4,0.1-2.2,0.5c-0.2,0.1-0.3,0.2-0.5,0.3c-0.5,0.3-1.1,0.6-1.7,0.6c-0.1,0-0.2,0-0.3,0
			c-0.1,0-0.2,0-0.3,0c-0.1,0-0.2,0-0.3,0c-0.1,0-0.2,0-0.3,0c-0.7,0.1-1.3,0.5-1.8,1.2c-0.8,1.2-1.5,3.3-1.4,4.9
			c0.1,1.2,0,2.4-0.1,3.5c-0.1,0.8-0.1,1.6-0.1,2.4c0,1,0.3,1.9,0.7,2.8c0.3,0.9,0.6,1.7,0.7,2.7c0.1,1.5-0.8,3-1.6,4.4
			c-0.5,0.9-1,1.7-1.2,2.6c-0.5,1.6-1,3.3-1.6,4.9c-1.4,4.3-2.9,8.8-3.6,13.4c-1,6.4-0.7,12.1,0.9,19c0.3,1.2,1.3,4,4.2,4.5
			c3.9,0.7,7.2,1.1,10.8,1.1c0.1,0,0.2,0,0.3,0c2.5-1.1,5.4-1.7,8-2.7c2.8-1.2,5.2-3.2,7.3-5.3c1.1-1.1,2.1-2.2,3.2-3.2
			c0.2-0.2,2.1-2.5,1.9-2.5c-0.8,0-1.6-0.4-2.3-0.7c-2.3-1.2-4.4-2.8-6.1-4.8c-0.1-0.2-0.4-0.4-0.5-0.3c-0.1,0.1-0.2,0.2-0.2,0.3
			c-0.3,0.9-0.7,1.9-1.3,2.6l-0.5,0.6l-0.1-0.8c-0.1-0.5-0.1-0.9-0.2-1.4c-0.2-1-0.3-2.1-0.3-3c0-0.1,0-0.3,0-0.4c0-0.1,0-0.2,0-0.3
			c-0.2-0.3-0.4-0.7-0.5-1.1c-0.1,0.1-0.2,0.2-0.3,0.4c-0.2,0.7-0.4,1.5-0.6,2.2c-0.2,0.8-0.4,1.6-0.6,2.4c-0.2,0.6-0.5,1.2-0.7,1.7
			c-0.1,0.3-0.5,1-1.1,1.2l-0.5,0.1l0.1-0.5c0.2-1.1,0.4-2.1,0.7-3.1c0.3-1.2,0.6-2.4,0.7-3.7c0.2-1.4,0.3-2.8,0.4-4.1
			c0.1-0.8,0.1-1.7,0.2-2.5c0-0.5,0.1-0.9,0.2-1.4c0.1-0.8,0.2-1.6,0.2-2.3c0-1.1-0.1-2.1-0.2-3.2c-0.2-3.4-0.4-6.7-0.2-10.2
			c0-0.2,0-0.4,0.1-0.6c0.1-0.2,0.4-0.4,0.7-0.4c0.4,0,0.8,0.3,1.1,0.6c0.8,1.1,0.9,2.5,0.9,3.7c0,0.8,0.1,1.6,0.1,2.4
			c0.1,1.5,0.2,3,0.1,4.5c-0.1,2,0.2,3.8,0.5,5.7c0.2,1.4,0,2.2-0.1,3.5c-0.1,0.9,0.4,1.8,1,2.6c1.5,2.1,3.4,4,5.6,5.4
			c1.7,1.2,4.7,3.1,6.8,2.9c0.5,0,1.7-3.3,1.8-3.9c0.4-1.7,0.1-3.4-0.3-5c-0.5-1.8-0.9-4,0.4-5.4c-0.5,0.6,1.5,4.2,1.7,4.9
			c0.6,2.4,0.8,5,0.3,7.4c-0.4,2.1-1.2,4.2-1.9,6.2c-0.5,1.6-0.9,3.2-1.1,4.8c0,0.1,0,0.2,0,0.3c0.1,0.1,0.2,0.1,0.3,0.1
			c4.3,0.9,8.7,2.9,13.2,2.7c2.1-0.1,4.4,0.5,6.4,0.8c2.7,0.4,5.4,0.9,8,1.4C105,130.5,107.1,130.9,109.2,131.2z M64.3,61.3
			c-0.4,0.4-1.2,0.7-1.8,0.9c-0.1,0-0.2,0-0.3,0c0,0-0.1,0-0.1,0c-0.5,0-0.9-0.3-1-0.7c-0.2-0.5,0-1.2,0.4-1.7c0.7-0.7,1.4-1.4,2.1-2
			c1.4-1.3,2.7-2.5,3.8-4c0.3-0.4,0.9-1.2,1.7-1.2c0,0,0.1,0,0.1,0c0.6,0.1,1.2,0.7,1.3,1.4c0.1,1.2-1.1,2.4-1.9,3.2
			c-0.2,0.2-0.4,0.3-0.5,0.5C66.8,59.1,65.5,60.3,64.3,61.3z M75,64.1c-0.1,0.3-0.3,0.5-0.6,0.6c-0.2,0.1-0.3,0.1-0.4,0.1
			c-0.7,0-1-0.7-1.2-1.2c-0.3-0.7-0.5-1.1-1-1.1c-0.1,0-0.1,0-0.2,0c-0.1,0-0.2,0.1-0.3,0.1c-0.1,0.1-0.1,0.1-0.2,0.2
			c-0.1,0.2-0.2,0.5-0.2,0.8c-0.1,0.3-0.1,0.8-0.5,1.1c-0.3,0.3-0.6,0.3-0.9,0.4c-0.1,0-0.2,0-0.3,0c-0.1,0-0.2,0-0.3,0
			c-0.5-0.2-0.8-0.8-0.7-1.5c0.2-1.3,1-3.3,2.6-3.6c0.1,0,0.3,0,0.4,0c1.2,0,2.8,0.7,3.3,1.9l0.1,0.2C74.9,62.5,75.3,63.4,75,64.1z
			 M89.9,58c-0.2,0.2-0.5,0.4-0.8,0.4c-0.2,0-0.4-0.1-0.6-0.1c-0.4-0.2-0.6-0.6-0.7-0.9c-0.2-0.4-0.3-0.6-0.7-0.7
			c-0.1,0-0.4,0.4-0.5,0.7c-0.1,0.2,0,0.4,0,0.6c0.1,0.4,0.2,0.9-0.2,1.3c-0.3,0.4-0.6,0.5-0.9,0.5c-0.9,0-1.5-1.5-1.5-2.3
			c0-1,0.2-2.8,1.5-3.4c0.5-0.2,1.1-0.4,1.8-0.4c0.6,0,1.2,0.1,1.6,0.3c0.7,0.3,1.3,1.9,1.3,3C90.2,57.5,90.1,57.8,89.9,58z
			 M91.2,50.5c-1,1.3-4,1.4-4.9,1.4l-0.1,0c-0.9,0-5.8-0.4-7.1-2.1c-0.3-0.4-0.4-0.9-0.3-1.4c0.2-0.7,0.7-1,1.3-1
			c0.5,0,1,0.2,1.4,0.4c0.5,0.2,0.9,0.3,1.3,0.3c0.2,0,0.4,0.1,0.7,0.1l0.3,0.1c1.1,0.2,2.4,0.5,3.6,0.5c0.9,0,1.6-0.1,2.2-0.4l0.1,0
			c0.2-0.1,0.5-0.2,0.7-0.2c0.1,0,0.2,0,0.3,0.1c0.3,0.1,0.5,0.4,0.7,0.8C91.6,49.6,91.5,50.1,91.2,50.5z M106.5,54
			c-0.2,0.2-0.4,0.2-0.6,0.2c-0.4,0.1-0.7,0.1-1.1,0.1c-0.7,0.1-1.4,0.1-2,0.3c-1.1,0.4-2,1.1-2.9,1.9c-1.9,1.5-4,3.3-5,5.6l-0.1,0.2
			c-0.2,0.6-0.5,1.2-1.1,1.5C93.4,64,93.2,64,93,64c-0.3,0-0.6-0.1-0.9-0.4c-0.3-0.4-0.6-1-0.5-1.5c0-0.8,0.1-1.5,0.5-1.9
			c0.4-0.4,0.8-0.9,1.1-1.3c1.4-1.7,2.9-3.4,4.6-4.8c1.7-1.4,3.7-2.1,5.7-2.1c0.7,0,1.4,0.1,2.1,0.3c0.1,0,0.2,0.1,0.3,0.1
			c0.2,0.1,0.4,0.2,0.5,0.4C106.8,53.1,106.8,53.7,106.5,54z M56.9,79.5c-0.6,1-1.7,1.6-3,1.6c-0.6,0-1.3-0.1-2-0.4
			c-2.3-1-4.7-1.9-6.4-4.1c-1.2-1.5-0.5-2.7,0.1-3.6c0.7-0.9,1.5-1,2.3-1c0.1,0,0.2,0,0.4,0c0.4,0,0.5-0.1,0.5-0.1
			c0-0.1-0.2-0.4-0.3-0.7L48.4,71c-0.2-0.4-0.1-0.7,0.2-0.9c0.1-0.1,0.2-0.1,0.3-0.1c0.7,0,2.2,1.4,2.2,1.4c0.7,0.8,1.1,2.4,1,3.5
			l0,0.7l-0.5-0.5c-0.4-0.3-1.2-0.8-2-1c-0.3-0.1-0.6-0.1-0.8-0.1c-0.9,0-1.1,0.5-1.2,0.9c0,0.1,0.2,0.2,0.5,0.4
			c0.4,0.3,0.9,0.5,1.3,0.8c0.8,0.4,1.6,0.9,2.3,1.4c0.6,0.4,1.2,0.7,1.8,0.7c0.4,0,0.8-0.1,1.2-0.3c1-0.5,0.9-1.5,0.9-2.6
			c0-0.2,0-0.4,0-0.6c0-0.3,0-0.6-0.1-0.9c0-0.4-0.1-0.8-0.1-1.2c0-0.4,0.4-0.8,0.8-0.9l0,0l0.1,0c0.3,0,0.8,0.3,0.9,0.6
			C57.9,74.5,58.5,77.1,56.9,79.5z M60.3,79.7c-0.2,0.3-0.6,0.6-1,0.7c-0.1,0-0.3,0.1-0.4,0.1c-0.2,0-0.5-0.1-0.7-0.1L58,80.2l0-0.2
			c-0.1-0.9,0.3-1.5,0.6-2.2c0.2-0.3,0.4-0.7,0.5-1.1c0.1-0.4,0.2-0.9,0.2-1.4c0-0.8-0.1-2.7-0.7-4L58.3,71l0.4-0.1
			c0.1,0,0.2,0,0.3,0c0.6,0,1.2,0.3,1.6,0.9C61.9,73.5,61.9,77.9,60.3,79.7z"/>
		<path fill="#EFEEDF" d="M163.8,124.9c-0.2-0.7-0.3-1.5-0.5-2.2c-0.5-2.4-1-4.3-2.1-6.4c-3.8,1.2-7.5,2.2-11.5,2.7
			c-3.8,0.4-7.7,0.3-11.5-0.5c0,2.2,1.7,4.2,2.6,6.2c0.4,0.9,0.4,2.1,0,3.2c-0.3,0.8-0.8,1.5-1.4,1.7c-1,0.4-2,0.9-3.1,1.1
			c-1.2,0.2-2.4,0.4-3.6,0.6c-5.1,0.9-10.5,1.8-15.5,3.4c-1.5,0.5-3,0.8-4.5,1.1c-2.8,0.6-5.7,1.3-8.2,2.7c-1.3,0.7-2.7,1.6-3.7,2.6
			c-0.8,0.8-1.9,1.5-2.5,2.4c-0.5,0.6-0.4,1.4-0.4,2.2c0.5,0.2,0.9-0.3,1.3-0.6c1.6-1.8,3.3-3.8,5.5-4.7c0.5-0.2,2.8-0.9,3.2-0.2
			c0.5,0.9-2.1,1.9-2.7,2.1c-0.5,0.1-1,0.2-1.6,0.4c-1.4,0.5-2.4,1.6-3.3,2.8c-1.2,1.5-2.2,3-3.2,4.6c-0.2,0.3-0.3,0.6-0.4,0.9
			c0,0.3,0.2,0.7,0.5,0.8c0.4,0.1,0.7-0.2,0.9-0.5c1.5-1.6,2.6-3.3,4.4-4.6c1.4-1.1,3-1.7,4.5-1.8l0.1,0c0.2,0,0.4,0,0.6,0.2
			c0.2,0.1,0.3,0.4,0.2,0.6c0,0.4-0.4,0.8-0.7,1c-3.1,1.8-6.1,3.7-7.9,6.7c-0.4,0.6-0.7,1.5-0.5,1.9c0,0,0.1,0.2,0.4,0.2
			c0,0,0.1,0,0.1,0c1.5-0.1,3-1.8,4.3-3.2c0.6-0.6,1.1-1.2,1.6-1.6c2.1-1.8,4.1-2.7,6.1-2.7l0.1,0c0.6,0,1.1,0.3,1.2,0.7
			c0.1,0.3,0,0.7-0.7,1.2c-0.7,0.4-1.4,0.8-2.2,1.1c-1.5,0.7-3,1.4-4.1,2.5l0,0l0,0c-0.4,0.2-0.7,0.7-0.9,1.2c0,0.1,0.2,0.5,0.3,0.5
			c0.3,0,0.7,0.1,1.2,0.1c0.3,0,0.6,0,0.9-0.1c2.6-0.9,5.2-1.9,7.8-3c0.7-0.3,1.4-0.7,2-1.1c0.3-0.2,0.6-0.4,0.9-0.6l0.1-0.1l0.1,0
			c0.2,0,0.4,0.1,0.6,0.1c0.3,0.1,0.6,0.2,0.9,0.2c0.1,0,0.1,0,0.2,0c0.9-0.1,1.8-0.4,2.7-0.6c0.6-0.1,1.2-0.3,1.8-0.4
			c1.6-0.3,3.1-1.1,4.7-1.4c1.9-0.4,3.9-0.6,5.9-0.8c4.4-0.3,8.7-0.5,13-1.4c1.4-0.3,2.9-0.5,4.3-0.8c1.1-0.2,2.3-0.4,3.4-0.6
			c3.9-0.7,7.1-4.9,8.1-8.4C164.6,132.6,164.7,128.8,163.8,124.9z"/>
		<path fill="#707070" d="M74.8,16.7c-0.1-1.4-0.1-2.9-0.9-4.1c-0.7-1.2-2.5-1.3-1.9,0.4c0.4,1.1,0.6,2.2,0.6,3.4
			c0.1,3.6-0.2,7.4-1.3,10.8c-0.5,1.5-2.1,5.4-4.4,4.4c-1.4-0.6-2-2.8-2.3-4.1c-0.2-0.8-0.4-1.7-0.4-2.5c-0.1-0.6,0.1-1.6-0.2-2.2
			c-0.7-1.2-2.1-0.7-2.4,0.5c-0.4,1.6-0.5,3.4-0.8,5.1c-0.3,1.2-0.8,4.3-2,4.6c-1.8,0.3-2.7-3.6-3.1-4.7c-0.4-1.3-0.7-2.6-1.1-3.9
			c-0.2-0.6-0.4-0.9-1-1.1c-0.1,0-0.2-0.1-0.3-0.1c-0.1,0.1-0.2,0.1-0.2,0.2c-0.8,0.6-0.6,1.4-0.4,2.4c0.3,1.6,0.7,3.2,1.1,4.8
			c0.7,2.2,2.1,5.1,4.8,5.1c1.8,0,3.1-1.4,3.7-3c0.3-0.7,0.5-1.3,0.7-2c0.6,1.3,1.4,2.4,2.5,3.1c2.6,1.6,5.4-0.2,6.8-2.5
			c1.8-2.7,2.3-6.1,2.6-9.3C75,20.1,75,18.4,74.8,16.7z"/>
	</g>
	<g id="aerobicIcon">
		<path fill="#EFEEDF" d="M7.8,126.9c-0.6,0-1.2,0.1-1.7,0.5c-0.2,0.2-0.3,0.5-0.4,0.7c-1.3,3-2.5,6-3.5,9.1
			c-1.5,4.5-4.5,10.9,0.8,14.3c0.3,0.2,0.5,0.3,0.9,0.3c0.8,0,1.3-0.9,1.8-1.6c1.1-1.8,2.7-3.3,3.9-5c0.9-1.4,1.5-3,2.1-4.5
			c0.2-0.5,0.3-1.5,0.6-1.9c0.5-0.6,1.5-0.3,2.1-0.1c2.6,0.7,5.1,1.6,7.5,2.6c1.4,0.6,2.6,1.7,4,2c1.8,0.4,3.6,0.7,5.4,0.9
			c5.3,0.7,11,0.2,16.3-0.2c1-0.1,2.5-0.1,2.8-0.7c0.7-1.6,1.2-3.5,1.1-5.2c-0.2-2.7-0.9-5.4-1.5-8c-0.6-2.8-1.3-5.6-2.1-8.4
			c-0.7-2.6-1.6-5.2-2.4-7.7c-1,0.7-1.7,1.3-2.5,1.7c-1.7,0.9-3.4,1.8-5.2,2.6c-3.3,1.4-6.7,2.6-10.1,3.9c1.7,3.5,3.3,6.9,5,10.4
			c-0.4,0.1-0.4,0.1-0.5,0.1c-1.4,0-2.7-1-4.1-1.1c-1.8-0.2-3.6-0.6-5.4-1c-1.4-0.3-2.7-0.6-4.1-0.9C14.9,128.9,11.6,126.8,7.8,126.9
			z"/>
		<path fill="#EF6E50" d="M21.2,129.2c-1.8-0.5-3.5-0.5-5.3-0.8c-0.8-0.1-1.5-0.3-2.3-0.5c-0.4,3.7-0.8,7.1-1.3,10.9
			c1.1,0.4,2.2,0.8,3.2,1.3c2.9,1.3,6,2.2,9.1,2.9c0.3-1.2,0.5-2.3,0.8-3.5c-0.2,0.7,0.7-2.2,0.5-1.6c0.5-1.6,1.2-3.1,1.7-4.7
			c0.2-0.6,0.3-1.1,0.4-1.7C25.6,130.9,23.4,129.8,21.2,129.2z"/>
		<path fill="#EFEEDF" d="M93.3,155.7c0-0.1-0.1-0.3-0.1-0.4c-0.1-0.1-0.3-0.2-0.4-0.2c-2.2-0.4-4.4-0.7-6.5-1.3
			c-1.7-0.5-3.3-1.2-4.9-1.7c-0.3-0.1-0.5-0.2-0.7-0.4c-0.1-0.2-0.2-0.4-0.3-0.6c-0.5-1.7-0.6-3.5-0.8-5.3c-0.1-1.6-0.3-3.2-0.4-4.9
			c-0.1-0.9-0.1-1.8-0.1-2.7c0.1-0.9,0.4-1.8,0.5-2.7c0.1-2.2,0.2-4.3,0.3-6.5c0.3-4.3,0.7-8.6,0.7-13c0-4-0.4-8.1-0.8-12.1
			c-0.2-2.2,1.2-4.7-1.9-6.3c-2.4-1.2-5-1.9-7.4-3.4c-0.4-0.2-0.9-0.5-1.4-0.3c-0.2,0.1-0.4,0.3-0.5,0.5c-2,2.8-3.2,6.5-4.4,9.7
			c-0.6,1.6-0.8,3.3-1.2,5.4c2.5-1.3,3.5-1.1,3.6,0.2c0,0.5,0,1,0.1,1.5c0.2,6.7-0.3,13.4-0.2,20.1c0.1,3.5,0.2,7,0.7,10.4
			c0.5,3.5,1.1,6.9,0.8,10.4c-0.1,1.4-1,2.9-1.3,4.3c-0.5,2-0.2,4.2,0.8,6c0.2,0.3,0.4,0.6,0.7,0.8c0.5,0.3,2.4,0,3,0
			c1.2,0,2.3-0.3,3.5-0.4c3.7-0.3,7.5-0.5,11.2-0.8c1.2-0.1,2.8,0,4-0.4c1.2-0.5,2.3-1.9,3.1-3c0.3-0.4,0.5-0.8,0.7-1.3
			C93.5,156.9,93.4,156.3,93.3,155.7z"/>
		<path fill="#EF6E50" d="M74.3,151.1c1.2-0.1,2.4-0.1,3.5,0.1c0.9,0.1,1.9,0.2,2.8,0.4c0-0.1,0-0.1,0-0.2c-0.4-3.8-0.9-7.6-1-11.4
			c0-1.1-0.1-2.2-0.1-3.3c-2.7-0.1-5.4,0-8.1,0.4c-0.6,0.1-1.3,0.2-1.9,0.4c-0.5,0.2-1,0.4-1.5,0.6c-0.4,0.2-0.9,0.4-1.3,0.5
			c0.2,4.4,0.6,8.7,1,13c0,0.3,0.1,0.7,0.1,1c1.2-0.4,2.4-0.7,3.7-1C72.3,151.4,73.3,151.2,74.3,151.1z"/>
		<path fill="#EFEEDF" d="M63.7,69c2.2-2.3,4-4.8,5.8-7.5c0.2-0.3,0.4-0.6,0.4-0.9c-0.5-0.1-1,0.2-1.4,0.5c-3,2.3-5.3,5.9-7.7,8.8
			c-1.8,2.3-3.8,4.4-5.5,6.8c-1.5,2.1-2.8,4.3-3.7,6.7c-0.8,1.8-2.6,2-4,3.3c0.6,0,1.1,0,1.7,0c3.3-0.1,6.2,1.3,9.2,2.4
			c1.6,0.6,3.2,1.2,4.7,1.8c1.4,0.5,3,0.9,4.3,1.6c-1.3,1.5-1.7,3-2.2,4.9c-0.6,1.9-1.5,3.7-2.2,5.6c-1,2.6-2,5.2-2.8,7.8
			c-0.1,0.3-0.2,0.6-0.5,0.6c-0.1,0-0.2,0-0.3,0c-0.5-0.2-1.1-0.3-1.6-0.5c-4.1-1.2-8-3.4-11.9-5c-1.1-0.5-3.4-0.7-2.9-2.3
			c0.9-2.6,2.3-4.8,3.3-7.3c0.1-0.3,0.6-2.3,0.8-2.4c-1.2,0.5-2,1.7-2.6,2.8c-0.9,1.7-2.3,3-3.1,4.7c-0.8,1.9-0.5,3.8,0.5,5.5
			c0.9,1.6,1.4,3.6,2.1,5.2c-6.8,5.5-15.5,6.4-23.1,9.7c-0.2-3.7-1.4-7.2-2.9-10.8c-1.9-4.9-3.4-9.9-4.9-14.9c-0.2-0.7,0-1.6,0-2.6
			c0.7,0,1.3,0.1,2,0c1.9-0.3,3.8-0.7,5.7-1c2.8-0.4,5.6-0.8,8.4-1.3c1.9-0.4,3.7-0.8,5.6-1.2c1.7-0.4,3.8-0.5,5.4-1
			c1.7-0.6,3.5-1.1,5.2-1.7c0.4-0.1,0.8-0.3,1-0.6c-0.5-0.1-1.1,0-1.6,0c-0.9,0-1.8,0.1-2.7,0.1c-6.5,0.3-12.9,1.8-19.3,3
			c-0.2,0-0.5,0.1-0.7,0.1c-2.9,0.7-5.7,1.4-9.1,2.3c0.2-4.3,0.4-8.1,0.7-12c0.5-6,1.7-11.9,4.6-17.4c5.3-10,12.5-19.2,23.1-24
			c1.2-0.6,2.5-0.9,3.8-1.4c0.2-0.1,0.5-0.4,0.5-0.6c0.1-1.9-0.1-3.8-0.5-5.6c-0.2-0.8-0.6-1.4-0.9-2.1c-0.1-0.2-0.1-0.5,0-0.7
			c0.1-0.1,0.2-0.2,0.2-0.3c0.1-0.1,0.2-0.3,0.3-0.4c0.5-0.7,1-1.5,1.4-2.3c0.2-0.3,0.3-0.8,0.1-1.1c-0.2,0-0.4,0.2-0.5,0.4
			c-2.4,3-6.8,3.1-10.3,3.2c-3.8,0.1-7.6-0.3-11.3-0.1c-1.8,0.1-3.2,0.4-4.1,2.1c-0.9,1.7-1.7,3.3-3.5,4.3c-0.9,0.5-1.9,0.8-3,0.9
			c-0.7,0.1-1.6,0-1.9-0.6c-0.1-0.1-0.1-0.3-0.2-0.4c-0.1-0.1-0.3-0.1-0.5-0.1c-0.6,0.1-1.3,0.2-1.9-0.1c-0.6-0.3-0.9-0.9-0.8-1.5
			c-2.7-0.4-3-3.1-2.9-5.6c0-0.3,0.1-0.7,0.3-0.9c0.4-0.3,0.9,0,1.1,0.4s0.3,0.9,0.6,1.2c2.3-2.7,2.1-5.7,6.2-6.3
			c7-1,14.1-1.8,20.8-4.4c3.8-1.5,8.3-2.2,12.4-2.6c0.9-0.1,1.9-0.2,2.7,0.3c0.6,0.4,1,1,1.4,1.5c1.6,2.4,3,4.9,4.4,7.4
			c2,3.4,3.9,7.2,6.5,10.2c3.2,3.7,2.5,9.8-0.7,14.1c-1.9,2.5-3.3,5.4-4.9,8.2c-0.8,1.5-1.1,3.5,0.4,4.3c1.1,0.6,3.1,0.4,4.4-0.2
			c2.8-1.4,5.5-3.2,8.2-4.8c0.3-0.2,0.8-0.2,1,0c2.5,1.4,3.6,3.8,4.7,6.4c1,2.3,1.6,4.4,2.9,6.5c2,3.2,2.9,6.8,5.4,9.7
			c0.1,0.2,0.3,0.4,0.5,0.4c0.2,0.1,0.4,0.1,0.6,0.1c2.4,0.2,4.6-0.2,7-0.6c2.1-0.3,4.3-0.4,6.4-0.9c4.4-1.1,7.8-2.7,11.4-5.3
			c0.2-0.2,0.5-0.4,0.8-0.3c0.3,0,0.6,0.2,0.8,0.4c1.3,0.8,5.1-0.7,5.3,1.6c0,0.2,0,0.5,0.1,0.7c0.1,0.2,0.2,0.4,0.3,0.6
			c0.7,1.1,0.9,2.5,0.3,3.7c-0.1,0.2-0.2,0.3-0.2,0.5c0,0.2,0.1,0.4,0.1,0.5c0.4,1.3-0.5,2.7-1.7,3.4c-1.7,0.9-4.6,1.1-6.2,0
			c-0.3-0.2-0.5-0.4-0.9-0.5c-0.3,0-0.5,0-0.8,0.1c-3.9,1.1-7.7,3-11.7,3.7C92,87,88.5,88.3,84.9,89c-2.7,1-5.9-1.6-7.6-3.4
			c-2.3-2.5-4.5-5.2-6.5-8c-1-1.4-1.9-3-3.2-4.2C66.2,72.1,65,70.5,63.7,69z M31.7,115.6c-0.2-0.6-0.3-1.1-0.4-1.6
			c-0.8-2.2-1.4-4.4-2.4-6.5c-0.5-1.1-1.6-2.5-2.7-2.8c-1.4-0.4-1.6-1.1-1.8-2.2c-0.5-2.3-1-4.5-1.5-6.8c-0.1-0.4-0.7-0.6-1-0.9
			c-0.3,0.5-0.9,1-0.9,1.4c0.6,3.1,1.4,6.3,2.2,9.4c0.1,0.6,0.8,1.4,1.3,1.4c1.8,0.1,2.1,1.4,2.6,2.7C28,111.9,29,114,30,116
			c0.2,0.3,0.8,0.6,1.2,0.6C31.4,116.6,31.6,115.9,31.7,115.6z M60.8,36.4c0,0.1,0,0.2,0,0.3c-0.1,1.7-0.3,3.7-1.1,5.3
			c-1,2.1-3.4,3-5.6,3.1c-2.5,0.1-4.7,0.4-6.5-1.7c-0.6-0.7-1-1.6-1.4-2.4c0-0.1-0.1-0.2-0.2-0.2c-0.1,0-0.2,0.1-0.2,0.3
			c-0.3,1.6,0.4,3.2,1.5,4.4c1.7,2.1,5.4,2.4,8,2.1c2.4-0.3,4.7-1.7,6-3.8c1.4-2.3,1.1-4.7,0.1-7.2c0-0.1,0-0.1-0.1-0.1
			C61,36.2,60.9,36.3,60.8,36.4C60.8,36.4,60.8,36.4,60.8,36.4z"/>
		<path fill="#EFEEDF" d="M98.8,63.5c-0.1-0.5-0.1-1.1,0-1.6c-0.5,0.4-1.2,0.8-1.8,1c-0.7,0.2-2.8,1.1-2.8,2
			c-0.2,2.2-1.6,1.1-2.2,0.6c-1.3-0.9-1.9,0.5-2.9,1c-0.2,0.1-0.6,0-0.7-0.2c-0.2-0.3,0.1-3.2,0.1-3.2c2.4,0,4.7-0.5,6.8-1.5
			c1.9-0.9,3.7-2.2,4.9-4.1c-1.2,0.2-2.2,1.1-3.3,1.6c-1.3,0.6-2.6,1-4,1.4c-2.6,0.7-5.3,0.9-8,0.7c-0.6,0-1.1-0.1-1.7-0.2
			c-4.7-0.6-8.7-3.3-10.9-7.5c-0.3-0.5-0.6-1.1-0.9-1.6c-0.3-0.6-0.6-1.2-0.9-1.8c-0.4-0.8-0.7-1.6-0.9-2.5c-0.5,0.6-0.4,1.6-0.3,2.4
			c0.5,2.1,0.1,2.7-1.7,3.8c-1.6,1-3.3,2-4.9,3c-1.5,0.9-3,2.3-4.9,1.7c-0.3-1,0.4-1.8,0.9-2.5c0.6-1,1.1-1.9,1.7-2.9
			c2.3-3.7,5.3-7.5,5.9-11.9c0.4-2.9-1.1-7.1-4-8.2c-0.3-0.1,2.5-7.1,2.8-7.7c1.2-2.6,2.6-4.9,4.3-7c2.5-3.1,5.7-5.7,9.2-7.5
			C83,8.3,87.9,8,93,8.6c6,0.8,11,4,16.4,6.3c0.4,0.2,0.7,0.6,0.9,1c1,1.7,2.2,3.1,4.2,3.2c2.4,0.2,3.6,1.9,4.9,3.4
			c1,1.2,1.2,1.6,2.5,2.1c1.4,0.6,2.5,0.9,3.2,2.4c0.7,1.6,0.3,3.6-1,4.7c1.2,0.4,1.9,1.7,1.8,2.9c-0.4,2.5-3.7,2.4-4.2,5
			c-0.4,1.8,0,4.5-1,5.1c-2.7,1.6-3,4.6-5,6.5c-2.4,2.2-4.8,4.5-7.3,6.7c-1.1,0.9-1.9,1.6-1.1,3.1c0.1,0.2,0.2,0.6,0.2,0.8
			c-0.2,1.6,0.7,2.2,2.1,2.5c1.5,0.4,1.5,1.2,0.6,2.3c-1.4,1.8-2.9,3.5-5.5,3C101.2,69.1,99.1,66.7,98.8,63.5z M75.5,22.6
			c-0.5,0.2-1,0.8-0.8,1.3c0.1,0.4,0.5,0.7,1,0.8c0.4,0.1,0.9-0.1,1.3-0.2c2.4-0.7,4.8-1.8,6.4-3.7c0.3-0.3,0.5-0.8,0.1-1
			c-0.1-0.1-0.3-0.1-0.5,0c-1.4,0.2-2.4,0.9-3.6,1.4C78.1,21.7,76.8,22,75.5,22.6z M89.4,26c-1.9,1.5-4.6,2.2-6.3,3.9
			c-0.5,0.3-1,1.1-1,1.6c0,0.4,0.8,1.1,1.3,1.1c0.6,0.1,1.3-0.3,1.8-0.6c1.4-1.1,2.6-2.4,3.8-3.5c0.7-0.7,1.5-1.4,1.9-2.3
			c0-0.1,0-0.1,0-0.2c0-0.1-0.2-0.2-0.3-0.2c-0.2,0-0.3-0.1-0.5-0.1c-0.1,0-0.2,0-0.2,0c-0.1,0-0.2,0.1-0.2,0.1
			C89.6,25.9,89.5,25.9,89.4,26z M104.2,53.3c-0.3-0.6-0.3-1.4-0.8-1.7c-1.1-0.7-2.7-1.9-4.1-1.9c-0.5,0-1,0.2-1.3,0.5
			c-0.1,0.1-0.1,0.2-0.1,0.3c0,0.2,0.1,0.4,0.2,0.5c1,1.1,2.6,1.5,3.5,2.7c0.7,0.9,0.4,2.2,0.3,3.2c0,0.1,0,0.2,0,0.2
			c0.1,0.1,0.3,0,0.4-0.1c0.4-0.5,0.9-0.9,1.1-1.5C103.7,55,104.3,53.7,104.2,53.3z M104.8,47.9c0.4,0,0.8,0.1,1.2,0.1
			c1.7,0.2,4.5-0.6,3.4-2.9c0-0.1-0.1-0.2-0.2-0.2c-0.1,0-0.1,0-0.2,0.1c-0.7,0.5-1.5,0.8-2.4,0.9c-1.1,0.1-2.4,0-3.5-0.2
			c-1-0.2-1.9-0.9-3-1c-0.3,0.7,0,1.5,0.6,2c0.5,0.5,1.3,0.7,2,0.9C103.4,47.7,104.1,47.8,104.8,47.9z M102.9,34.1
			c0.1-0.1,0.1-0.2,0.2-0.2c0.2-0.3,0.4-0.7,0.5-1.1c0.1-0.4,0-0.8-0.4-1.1c-0.1-0.1-0.3-0.1-0.4-0.1c-0.1,0-0.1,0.1-0.2,0.1
			c-0.7,0.6-1.2,1.3-1.9,1.9c-0.6,0.5-1.2,1-1.8,1.5c-0.3,0.3-0.7,0.6-0.8,1c-0.1,0.4,0.1,0.8,0.4,1c0.3,0.2,0.7,0.3,1.1,0.2
			C100.8,37.2,102.2,35,102.9,34.1z"/>
		<path fill="#EFEEDF" d="M89.4,71.1c0.4,3.5,1.8,16.2,2.4,20.3c-1.9-0.4-4,0.7-4.7,2.5c-0.7,1.8,0,4.1,1.7,5.1
			c1.7,1,4.1,0.5,5.2-1.1c0,1.3,1.1,2.5,2.4,2.6c1.3,0.1,2.6-0.9,2.8-2.2c0.8,0.8,2,0.8,3,0.2c2.5-1.4,3.1-5.2,1-7.2
			c-1.6-1.6-3.1-1.6-5.1-0.9c-1-3.3-3.6-15.6-4.2-19.6c-0.7-0.6-1.4-0.6-2.1,0.2C90.8,70.2,90.1,70.2,89.4,71.1z"/>
		<g>
			<path fill="#707070" d="M89.5,70.7c0.3,0.8,0.3,1.7,0.5,2.6l0.3,2.6l0.6,5.2c0.4,3.4,0.8,6.9,1.3,10.3l0.1,0.6l-0.6-0.1
				c-1.3-0.2-2.6,0.3-3.5,1.2c-0.2,0.2-0.4,0.5-0.6,0.8l-0.1,0.2l0,0.1c0,0,0,0,0,0l0,0l0,0.1c-0.1,0.2-0.1,0.3-0.1,0.5
				c-0.1,0.6-0.1,1.3,0.1,1.9c0.2,0.6,0.6,1.2,1,1.6c0.1,0.1,0.2,0.2,0.4,0.3l0.1,0.1c0,0,0.1,0,0,0l0.1,0l0.2,0.1
				c0.3,0.1,0.6,0.2,0.9,0.3c1.3,0.2,2.6-0.3,3.3-1.3l0.9-1.3l0,1.6c0,0.5,0.2,1,0.6,1.4c0.2,0.2,0.4,0.3,0.6,0.5
				c0.1,0.1,0.2,0.1,0.4,0.1c0.1,0,0.3,0.1,0.3,0.1l0.2,0l0.2,0c0.1,0,0.2,0,0.4-0.1c0.2-0.1,0.5-0.2,0.7-0.4
				c0.4-0.3,0.7-0.8,0.8-1.3l0.2-1l0.7,0.7c0.4,0.4,0.9,0.5,1.5,0.4c0.3,0,0.6-0.2,0.8-0.3l0.4-0.3l0.3-0.3c0.2-0.2,0.4-0.5,0.6-0.7
				c0.2-0.3,0.3-0.6,0.4-0.9c0.2-0.6,0.3-1.3,0.3-1.9c-0.1-0.6-0.3-1.3-0.6-1.8c-0.2-0.3-0.4-0.5-0.6-0.7c-0.3-0.3-0.5-0.4-0.8-0.6
				c-0.5-0.3-1.1-0.5-1.8-0.5c-0.6,0-1.3,0.2-1.9,0.4L97.7,91l-0.1-0.4c-0.5-1.7-0.8-3.3-1.2-5l-1-5l-1-5l-0.5-2.5
				c-0.1-0.8-0.3-1.7-0.3-2.5c0-0.1,0.1-0.2,0.1-0.2c0.1,0,0.1,0,0.1,0.1c0.3,0.8,0.4,1.6,0.6,2.5l0.5,2.5l1.1,5l1.1,5
				c0.4,1.6,0.8,3.3,1.3,4.9L97.8,90c0.7-0.3,1.4-0.5,2.2-0.5c0.8,0,1.6,0.2,2.3,0.6c0.3,0.2,0.7,0.5,0.9,0.7
				c0.3,0.3,0.5,0.6,0.8,0.9c0.4,0.7,0.7,1.4,0.8,2.2c0.1,1.6-0.4,3.2-1.5,4.3l-0.5,0.4l-0.4,0.3c-0.4,0.2-0.8,0.4-1.2,0.4
				c-0.8,0.2-1.8,0-2.4-0.7l0.9-0.3c-0.1,0.8-0.6,1.5-1.2,1.9c-0.3,0.2-0.6,0.4-1,0.5c-0.2,0.1-0.4,0.1-0.6,0.1l-0.3,0l-0.2,0
				c-0.3,0-0.4-0.1-0.6-0.1c-0.2-0.1-0.4-0.1-0.5-0.2c-0.3-0.2-0.6-0.4-0.9-0.7c-0.5-0.5-0.9-1.3-0.9-2.1l0.9,0.3
				c-1,1.4-2.7,2-4.3,1.7c-0.4-0.1-0.8-0.2-1.2-0.4l-0.2-0.1l-0.1,0c-0.1,0-0.1,0-0.1-0.1l-0.1-0.1c-0.2-0.1-0.3-0.2-0.5-0.4
				c-0.6-0.6-1-1.3-1.3-2c-0.2-0.8-0.3-1.6-0.1-2.4c0.1-0.2,0.1-0.4,0.2-0.6l0-0.1l0-0.1l0-0.1l0.1-0.3c0.2-0.4,0.4-0.7,0.7-1
				c1.1-1.2,2.8-1.8,4.4-1.5l-0.5,0.5c-0.4-3.5-0.8-6.9-1.1-10.3L89.7,76l-0.3-2.6c-0.1-0.9-0.2-1.7-0.1-2.6c0-0.1,0.1-0.1,0.2-0.1
				C89.5,70.7,89.5,70.7,89.5,70.7z"/>
		</g>
		<path fill="#EF6E50" d="M121.2,36.5c0.5,1.1,0.8,2.2,0.9,3.4c0.1,2.5,0,5.5-3.7,6.9c0.3-0.1-4.5-6.7-5.2-7.4c-2.6-2.3-6-3.3-9-4.9
			c-3.6-1.9-7.3-3.9-10.9-5.9c-5.1-2.9-9.6-6.5-14.8-9.2c-2.6-1.4-9.4-5-4.8-8.2c5.8-4,13.8,3.6,18.5,6.4c2,1.2,4.1,2.4,6.1,3.6
			C105.5,25.6,117.4,28.3,121.2,36.5z"/>
		<path fill="#EFEEDF" d="M64,15c0.8-0.2,1.5-0.4,2-0.6c-3-0.6-3.9-0.1-5.7-0.8c-0.4-0.1-0.8-0.3-1.2-0.3s-0.9,0.1-1.1,0.5
			c-0.3,0.4-0.2,1,0.2,1.4C59.4,16.2,62,15.6,64,15z"/>
		<path fill="#EFEEDF" d="M125.8,52.3c-0.4-0.7-0.8-1.3-1.1-1.8c0.1,1.3,0.3,2.3,0.2,3.6c-0.1,1.1-0.2,2.9,0.5,3.8
			c0.5,0.7,1.6,1,2.1,0C128.2,56.4,126.9,54.1,125.8,52.3z"/>
		<path fill="#EFEEDF" d="M70,3.4c0.8,0.3,1.6,0.6,2.4,1c-1.1-1.9-4.5-4.6-6.9-4.4c-0.8,0.1-1.7,0.9-1,1.8c0.8,1.1,2,0.9,3.1,1
			C68.4,2.9,69.2,3.1,70,3.4z"/>
		<g>
			<path fill="#707070" d="M91.7,70.2c0,0,0.9,5.2,2,10.4c0.3,1.3,0.5,2.6,0.8,3.8c0.2,1.2,0.4,2.4,0.5,3.3c0.3,2,0.3,3.3,0.3,3.3
				c0,0.1-0.1,0.3-0.2,0.3c-0.1,0-0.2-0.1-0.3-0.2c0,0-0.4-1.3-0.8-3.2c-0.2-1-0.4-2.1-0.6-3.3c-0.2-1.2-0.4-2.5-0.5-3.8
				c-0.7-5.2-1.5-10.4-1.5-10.4c0-0.1,0-0.2,0.1-0.2C91.6,70,91.7,70.1,91.7,70.2z"/>
		</g>
		<g>
			<path fill="#EFEEDF" d="M91.3,95.5c0.4,0.9,1.2,1.7,2.1,2c1,0.3,2,0.3,2.9-0.2c0.5-0.3,0.9-0.7,1-1.2"/>
			<path fill="#707070" d="M91.3,95.5c0,0,0.1,0.1,0.3,0.2c0.2,0.1,0.4,0.3,0.7,0.5c0.3,0.2,0.6,0.3,0.9,0.4c0.2,0.1,0.3,0.1,0.5,0.1
				c0.2,0.1,0.3,0.1,0.5,0.1c0.4,0.1,0.7,0,1.1,0c0.2,0,0.4,0,0.5-0.1c0,0,0.1,0,0.1,0c0,0,0.1,0,0.1,0c0.1,0,0.2,0,0.2,0
				c0.3-0.1,0.5-0.2,0.7-0.3c0.2-0.1,0.2-0.2,0.2-0.2l0.1,0c0,0,0,0.1-0.1,0.3c-0.1,0.2-0.3,0.5-0.6,0.7c-0.6,0.5-1.6,0.8-2.6,0.7
				c-1-0.1-1.9-0.7-2.3-1.3c-0.2-0.3-0.4-0.5-0.5-0.7C91.3,95.6,91.2,95.5,91.3,95.5L91.3,95.5z"/>
		</g>
		<path fill="none" d="M25.4,139.5c0.1-0.2,0.1-0.4,0.2-0.6c0.1-0.3,0.2-0.7,0.3-1c-0.1,0.4-0.3,0.8-0.4,1.3
			C25.4,139.3,25.4,139.4,25.4,139.5z"/>
		<path fill="#EFEEDF" d="M23.3,139.7c0.3-0.9,0.6-1.8,0.9-2.7c0.3-0.9,0.6-1.9,0.9-2.7c0.3-0.9,0.5-1.7,0.7-2.4
			c0.1-0.3,0.2-0.7,0.2-0.9c-0.3-0.1-0.6-0.2-0.9-0.3c-0.1,0.3-0.2,0.6-0.4,1c-0.2,0.7-0.5,1.5-0.8,2.4c-0.3,0.9-0.6,1.8-0.9,2.7
			c-0.3,0.9-0.6,1.9-0.9,2.7c-0.3,0.9-0.5,1.7-0.7,2.4c0,0.2-0.1,0.3-0.1,0.4c0.3,0.1,0.6,0.2,0.9,0.3c0-0.1,0.1-0.3,0.1-0.4
			C22.7,141.4,23,140.6,23.3,139.7z"/>
		<path fill="#EFEEDF" d="M21.8,136c0.6-1.8,1.1-3.6,1.4-5c0.1-0.4,0.1-0.7,0.2-1.1c-0.4-0.1-0.7-0.2-1.1-0.4c-0.1,0.3-0.3,0.6-0.4,1
			c-0.5,1.3-1.1,3.2-1.5,5c-0.4,1.9-0.9,3.7-1.3,5.1c-0.1,0.3-0.1,0.5-0.2,0.8c0.3,0.1,0.6,0.2,1,0.3c0.1-0.2,0.2-0.5,0.3-0.8
			C20.6,139.6,21.2,137.8,21.8,136z"/>
		<path fill="#EFEEDF" d="M70.4,142.2c0.9-0.1,1.9-0.1,2.9-0.2c1-0.1,2-0.2,2.9-0.3c0.9-0.1,1.8-0.3,2.5-0.5c0.3-0.1,0.7-0.1,0.9-0.2
			c0-0.3,0-0.7-0.1-1c0,0,0,0,0-0.1c-0.3,0-0.7,0-1,0c-0.7,0-1.6,0.1-2.5,0.2c-0.9,0.1-1.9,0.2-2.9,0.4c-1,0.2-1.9,0.4-2.9,0.5
			c-0.9,0.1-1.8,0.3-2.5,0.4c-0.4,0.1-0.7,0.1-1,0.2l0.1,1.1c0.3,0,0.7-0.1,1.1-0.1C68.6,142.4,69.5,142.3,70.4,142.2z"/>
		<path fill="#EFEEDF" d="M78.5,143.2c-1.4,0.1-3.3,0.3-5.2,0.5c-1.9,0.3-3.8,0.6-5.2,0.8c-0.4,0.1-0.8,0.2-1.1,0.2
			c0,0.3,0.1,0.7,0.1,1c0.3,0,0.7,0,1.2,0c1.4-0.1,3.3-0.3,5.2-0.4c1.9-0.2,3.8-0.5,5.2-0.7c0.4-0.1,0.8-0.2,1.1-0.3
			c0-0.4-0.1-0.8-0.1-1.1C79.4,143.1,79,143.2,78.5,143.2z"/>
	</g>
	<g id="anaerobicIcon">
		<path fill="none" d="M126.6,25.6c-2.2-1.7-4.5-3.3-6.9-4.6c-0.4-0.2-0.9-0.3-1.1,0c-0.1,0.2,0,0.4,0.1,0.6c0.6,1.3,1.7,2.2,2.5,3.3
			c0.8,1.1,1.6,2.2,2.4,3.3c0.7,0.9,1.1,2,2,2.7c0.6,0.5,1.4,0.7,2.2,0.5c0.9-0.3,1.4-1.3,1.3-2.3c0-0.2-0.1-0.5-0.1-0.7
			C128.6,27.2,127.6,26.3,126.6,25.6z M127.4,28.9c-0.2,0.3-0.7,0.4-1.1,0.2c-0.8-0.3-1.3-1-1.8-1.7c-0.7-1-1.3-2.1-2-3.1
			c0.7,0.5,1.3,1.3,2,1.9c0.5,0.5,1.1,0.9,1.7,1.2c0.3,0.2,0.7,0.3,0.9,0.6C127.5,28.2,127.6,28.6,127.4,28.9z"/>
		<path fill="none" d="M136.4,46.2c-0.2,0-0.5,0.1-0.8,0.1c0.1,0.2,0.2,0.6,0.3,0.7c2.7,1.4,4,3.9,5.2,6.5c0.2,0.4,0.5,0.7,0.8,1
			c0.2-0.4,0.3-0.8,0.4-0.9C142.3,50.7,138.9,46.6,136.4,46.2z"/>
		<path fill="none" d="M120.2,46.7c-0.4-0.1-0.8,0.2-1.2,0.5c-3.3,3.3-5.7,9.5-7,14c-0.7,2.5-3.1,4-5.3,2.5c-0.3-0.2-0.5-0.4-0.8-0.7
			c-0.1-0.2-0.3-0.3-0.5-0.3c-0.1,0-0.2,0.1-0.3,0.2c-0.4,0.7-0.6,1.5-0.8,2.2c-0.2,0.8-0.7,1.5-1.5,1.7c-0.7,0.2-1.4-0.1-1.9-0.5
			c-4.5-2.9-8-7-12-10.5c-0.3-0.3-0.7-0.6-1.1-0.7c-0.4-0.1-1,0.1-1.1,0.5c-0.1,0.2,0,0.5,0,0.7c0.6,2.2,3.8,4.1,5.4,5.6
			c2.2,2,4.4,4.1,6.6,6.1c2.4,2.3,4.7,2.3,7-0.1c0.5-0.5,1.5-0.9,2.2-0.9c3,0.3,5.3-1.2,6.3-4c1.3-3.3,2.7-6.7,4.2-9.9
			C118.7,52.6,122,47.1,120.2,46.7z"/>
		<path fill="none" d="M90.7,33.7c0.2,1.3,0.5,2.5,0.8,3.7c0.6,2.3,3.8,3.4,5.8,2.4c2.4-1.2,2.6-3.2,2.8-5.4c0-0.3,0.2-0.6,0.3-0.9
			c0.1,0.1,0.3,0.2,0.4,0.3c0.8,1.1,1.4,2.4,2.5,3.1c1.1,0.7,2.7,1.4,3.9,1.1c2.1-0.5,2.6-2.4,2.3-4.4c-0.3-1.9-0.6-3.9-0.9-5.8
			c-0.2-1.3-0.4-2.4-1-3.6c0-0.1-0.1-0.1-0.1-0.2c-0.2-0.1-0.4,0.1-0.4,0.3c-0.4,1.1,0,2.5,0,3.6c-0.1,2.2-0.1,4.3-0.3,6.5
			c0,0.4-0.5,1-0.7,1c-0.4,0-1-0.4-1.3-0.7c-1-1.5-1.7-3.1-2.8-4.4c-0.4-0.6-1.5-0.9-2.2-0.8c-0.4,0-1,1-1.1,1.6
			c-0.2,0.9-0.1,2-0.3,2.9c-0.3,1.5-0.6,3.3-2.3,3.3c-0.6,0-1.7-1.7-1.9-2.7c-0.7-3.2-0.9-6.6-1.8-9.7c-0.1-0.3-0.2-0.6-0.4-0.6
			c-0.4-0.1-0.7,0.4-0.8,0.8c-0.4,1.4-0.6,3.4-0.4,4.9C90.5,31.2,90.5,32.5,90.7,33.7z"/>
		<path fill="none" d="M72.1,39.6c-0.8,0.8-1.6,1.5-2.4,2.3s-1.4,1.8-1.6,2.9c-0.2,1,0.2,1.8,0.7,2.4c1.3,1.5,4.1,1.6,5-0.7
			c0.8-1.9,1.5-4.2,1.7-6.3c0.2-1.8,0.6-3.6,0.5-5.3C74.4,35.9,73.5,38.2,72.1,39.6z M72.2,45.6c-0.3,0.4-0.8,0.7-1.3,0.6
			c-0.6-0.1-0.9-0.8-0.8-1.4c0.1-0.6,0.4-1.1,0.8-1.5c0.3-0.4,0.7-0.9,1-1.3c0.3-0.3,0.5-0.5,0.8-0.8c0.5-0.5,1-0.9,1.5-1.4
			C73.3,41.6,73.5,44,72.2,45.6z"/>
		<path fill="none" d="M104.8,48.7c-0.2,0.2-0.4,0.5-0.5,0.8c-0.7,1.3-0.8,2.8-1.2,4.2c-0.1,0.4-0.2,0.8-0.3,1.1
			c-0.2-0.4-0.4-0.7-0.7-1.1c-1-1.5-1.7-2.7-3.2-3.8c-0.4-0.3-0.8-0.5-1.2-0.5c-0.2,0-0.4,0.1-0.5,0.2c-0.1,0.2-0.1,0.5,0,0.7
			c0.3,0.9,0.9,1.6,1.5,2.3c0.6,0.8,1.4,1.3,1.9,2.1c0.8,1.2,1.2,4.2,2.5,4.9c2.5,1.5,2-4.7,2.2-5.6c0.4-1.6,0.9-3.2,0.8-4.8
			c0-0.3-0.1-0.8-0.4-0.9C105.5,48.1,105.1,48.4,104.8,48.7z"/>
		<path fill="none" d="M144.1,37.8c-0.4-0.9-1.7-1.8-2.4-2.5c-1.1-1-2.4-1.9-3.6-2.8c-0.5-0.4-1.1-0.8-1.7-0.7
			c0.9,2.6,2.5,4.9,3.2,7.7c0.3,1,0.5,2,1.3,2.7c0.9,0.8,2.4,0.7,3.2-0.2c0.7-0.7,0.8-1.7,0.6-2.6C144.7,38.8,144.4,38.3,144.1,37.8z
			 M143.2,40.1c-0.1,0.4-0.7,0.5-1.1,0.3c-0.4-0.2-0.5-0.7-0.7-1c-0.3-0.7-0.5-1.4-0.8-2c0.7,0.8,1.9,1.2,2.5,2.2
			C143.1,39.7,143.2,39.9,143.2,40.1z"/>
		<path fill="none" d="M139,98.7c-0.9-3.8-0.5-7.8-0.5-11.8c0-2.1,0.6-4.2,0.9-6.3c0-0.2-0.1-0.4-0.1-0.6c-0.2,0.1-0.4,0.1-0.5,0.3
			c-0.8,1.9-1.9,3.8-2.4,5.8c-0.3,1.4,0.2,3,0.2,4.6c0,1.8-0.3,3.6-0.2,5.4c0.1,5.9,2.2,11.3,4.3,16.6c1.7,4.3,3.8,8.4,7.4,11.6
			c3,2.6,5.4,5.8,8.5,8.3c2.4,2,5.4,3.5,8.8,3c0.5-0.1,0.9-0.7,1.4-1c-0.4-0.4-0.7-1-1.2-1.3c-0.4-0.2-1.1,0-1.6,0
			c0,0.1-0.1,0.2-0.1,0.3c-1.9-0.9-4.1-1.5-5.8-2.8c-2.5-2-4.9-4.3-7-6.8c-2.4-2.7-5.1-5.4-6.5-8.7C142.2,110.1,140.3,104.4,139,98.7
			z"/>
		<path fill="none" d="M59.1,24.8c-0.3,0.4-0.5,0.9-0.7,1c-0.4,0.6-0.9,1.2-1.3,1.8c-0.8,1.1-1.5,1.8-2.5,2.6c-2.1,1.7-3.9,3.8-6.4,5
			c-0.6,0.3-1.2,0.6-1.8,0.5c-1.1-0.1-1.9-1.1-2-2.2c-0.1-1.1,0.4-2.1,1.2-2.9c0.8-0.8,1.7-1.3,2.7-1.8c3.6-1.9,7.4-3.4,11.3-4.7
			C59.5,24.2,59.3,24.5,59.1,24.8z M147.4,43.3c-0.4,3-0.4,6.2-1.4,9.1c-1,3-2.5,5.9-3.9,8.8c-2.5,5.1-5.6,10-9.3,14.3
			c-3,3.5-6.3,6.7-10,9.4c-0.3,0.2-0.8,0.2-1.1,0.4c0-0.7-0.2-1.7,0.1-2c1.3-1.2,2.9-2.1,4.3-3.3c0.6-0.5,1.1-1.2,1.6-1.8
			c1.1-1.3,2.2-2.5,3.3-3.8c1.1-1.3,1.7-2.6,2.7-4c2.5-3.8,4.3-7.5,5-12.1c0.2-1.3-1-3.6-2.3-4.2c-2-1-4.4-0.5-6.3,1
			c-4.3,3.3-5.2,8.2-6.4,13c-0.9,3.7-2,7.3-3.1,10.9c-0.3,1-0.7,0.9-1.2,0.1c-0.8-1.4-2.1-5.2-3.7-5.6c-0.1,0-0.3-0.1-0.4,0
			c-0.1,0.1-0.1,0.2-0.1,0.3c-0.2,1.1,0.7,3.6,1.3,4.6c2.4,3.7,3,7.9,3.4,12.1c0.2,2.6-0.7,5.1-3.2,5.8c-1.4,0.4-3.5-0.2-4.8-1.1
			c-4-2.7-5.7-7-7.1-11.3c-0.2-0.5-0.3-6.6-1.3-6.2c-0.1,0-0.1,0.1-0.2,0.2c-0.6,1-0.7,2.1-0.7,3.3c0,1.4,0.2,2.8,0.3,4.2
			c0,0.2-0.1,0.3-0.2,0.5c-0.3-0.1-0.6-0.2-0.7-0.4c-1.5-2-2.9-4.1-4.6-5.9c-4-4.4-8-8.8-12.8-12.4c-0.3-0.2-0.7-0.5-1-0.7
			c-1-0.5-2.2-0.3-3.2,0.3c-2.1,1.2-3.6,4.3-2,6.4c1.4,2,3.1,3.8,4.8,5.5c4.6,4.7,10.5,7.2,16.5,9.6c0.7,0.3,1.3,0.5,2,0.7
			c0.1,0,0.2,0.2,0.2,0.2c-0.2,0.1-0.5,0.3-0.7,0.2c-2.4-0.5-4.7-1-7.1-1.6c-1.1-0.3-2.2-0.5-3.2-1c-2-1-3.9-2.1-5.8-3.3
			c-1.8-1.1-3.8-2.2-5.4-3.6c-1.4-1.3-2.5-2.9-3.7-4.5c-0.7-1-2-2.1-1.9-3c0.3-3.3,1-6.6,4-8.7c0.5-0.4,1.4-0.6,1.8-1
			c0.3-0.3,0.3-0.9,0-1.2c-1-1-3.9,1.7-4.6,2.3c-1.5,1.5-2.4,3.4-2.6,5.5c0,0.3-0.2,0.5-0.3,0.8c-0.2-0.2-0.4-0.4-0.5-0.7
			c-1.9-3.3-3.7-6.7-5.7-9.9c-2.4-3.8-3.1-8.1-3.7-12c0.8-5.9-0.3-11.7,2-17.1c2.8-6.6,6-13.1,11.3-18.1c5.5-5.2,12-9.1,19.6-10.5
			c4.7-0.9,9.4-1.9,14.1-1.8c4.3,0.1,8.7,0.9,12.7,2.5c3.5,1.4,6.5,4.2,9.5,6.6c2.4,1.8,4.5,4,6.7,6c5.3,4.7,8.5,10.6,9.3,17.5
			C148.1,36,147.9,39.9,147.4,43.3z M133.7,60.5c0.3,0,0.6,0,0.9,0c-0.2,1-0.5,1.9-0.9,2.8c-1.7-0.2-3.4-0.3-5.2-0.4
			c0.1-0.5,0.3-1,0.5-1.5c0.1-0.4,0.3-0.8,0.5-1.1C130.8,60.4,132.3,60.5,133.7,60.5z M130.3,58.8c0-0.1,0.1-0.1,0.1-0.2
			c0.6-0.9,1.4-1.9,2.5-2.1c0.4-0.1,0.9,0,1.2,0.2c0.5,0.3,0.6,1,0.7,1.6c0,0.2,0,0.4,0,0.6l-2.3-0.1C131.8,58.8,131,58.8,130.3,58.8
			z M132.6,65.5c-0.8,1.5-1.6,3-2.4,4.5c-1-0.3-1.9-0.7-2.9-1c0.1-0.5,0.3-1.1,0.4-1.6c0.2-0.8,0.3-1.7,0.5-2.5
			C129.6,65.1,131.2,65.3,132.6,65.5z M129.4,71.3c-0.5,0.8-1,1.7-1.5,2.5c-0.4,0.7-0.9,1.4-1.4,2c-0.5-0.2-1-0.4-1.5-0.6
			c0.7-1.5,1.4-3.1,1.9-4.7C127.7,70.8,128.6,71.1,129.4,71.3z M125.3,77.4c-0.7,0.8-1.4,1.5-2.3,2.1c-0.2-0.1-0.3-0.2-0.5-0.2
			c0.5-0.8,1-1.6,1.5-2.4C124.5,77.1,124.9,77.3,125.3,77.4z M98.8,84.8c-0.3,0.3-0.6,0.5-0.8,0.7c-0.1-0.1-0.3-0.1-0.4-0.2
			c-0.6-0.4-1.2-0.7-1.8-1.1c0.5-0.3,0.9-0.6,1.4-1C97.7,83.7,98.3,84.2,98.8,84.8z M81.3,73.3c0.3-0.4,0.7-0.6,1-1
			c0.8-0.8,1.7-1.6,2.6-2.5c0.9,0.7,1.7,1.6,2.4,2.5c-1.4,0.9-2.7,2-4,3c-0.1,0-0.1,0.1-0.1,0.2C82.5,74.8,81.8,74.1,81.3,73.3
			C81.3,73.3,81.3,73.3,81.3,73.3z M80.4,72.2c-0.2-0.3-0.4-0.7-0.5-1c-0.2-0.6-0.1-1.2,0.2-1.7c0.5-0.8,1.6-0.9,2.5-0.7
			c0.4,0.1,0.8,0.2,1.1,0.4c-0.1,0-0.2,0-0.2,0.1C82.5,70.2,81.4,71.2,80.4,72.2z M84.3,76.4c1.2-0.6,2.3-1.4,3.5-2.1
			c0.3-0.2,0.5-0.3,0.8-0.5c1,1.3,2.1,2.5,3.2,3.7c-1.1,0.7-2.3,1.4-3.4,2.1c0,0,0,0,0,0c-1.5-1-2.9-2.1-4.3-3.2
			C84.2,76.5,84.3,76.5,84.3,76.4z M91.2,80.2c0.6-0.5,1.1-1,1.7-1.5c0.8,0.9,1.6,1.7,2.4,2.5c-0.1,0-0.1,0.1-0.1,0.1
			c-0.6,0.4-1.2,0.9-1.8,1.3c-0.7-0.4-1.4-0.8-2.1-1.2c-0.3-0.2-0.6-0.4-0.9-0.6C90.6,80.7,90.9,80.4,91.2,80.2z M149.9,13.9
			c0.6-0.1,1.3-0.2,1.9-0.3c1.9-0.3,3.9-0.6,5.8-0.9c1-0.1,1.9-0.3,2.9-0.2c1,0.1,1.9,0.5,2.5,1.3c0.7,0.9,0.7,2.4,0,3.3
			c-0.7,0.9-2.2,1.2-3.2,0.7c-1.5-0.7-2.8-1.8-4.5-2.3c-0.9-0.3-1.9-0.5-2.8-0.7C151.8,14.7,150.4,13.8,149.9,13.9z M164,37.5
			c-0.2,0.1-0.4,0.2-0.7,0.2c-1.2,0.2-2.4-0.5-3.2-1.4c-0.8-0.9-1.4-2-2.1-3c-0.7-1-1.5-2-2.4-2.7c-1.1-0.8-2.2-1.6-2.8-2.9
			c3,1,5.6,3.3,8.7,3.9c0.7,0.2,1.4,0.2,2.1,0.4c0.7,0.2,1.4,0.6,1.7,1.2c0.2,0.4,0.3,0.8,0.3,1.2C165.7,35.7,165,37,164,37.5z
			 M107.6,135.2c-0.3-0.1-0.6-0.3-0.9-0.4c-2.4-1.5-3.6-3.6-4.4-6.5c0.4-1.6,0.8-3.2,1.4-4.7c0.2-0.5,1-0.8,1.5-1.1
			c0.1,0.5,0.1,1.1,0.2,1.6c0.7,3.4,1.5,6.7,2.2,10.1C107.7,134.4,107.6,134.8,107.6,135.2z M169.4,93c0.8-0.1,1.7-0.4,2.5-0.2
			c0.5,0.2,0.8,1.1,1.1,1.7c-0.4,1.3-0.7,2.5-1.1,3.6c-0.1,0.2-0.4,0.4-0.6,0.4c-0.3,0-0.6-0.3-0.7-0.5c-0.5-1.6-1-3.1-1.4-4.7
			C169.2,93.2,169.3,93,169.4,93z M167.6,93.7c0.1-0.1,0.6,0.2,0.6,0.3c0.4,2,0.8,4,1.1,6c0.1,0.4-0.3,0.9-0.7,1.2
			c-2.7,1.9-5.4,3.9-8.3,5.5c-1.7,0.9-1.6-1.1-2.1-1.9c-0.3-0.6-0.2-1.6-0.3-2.3c-0.2-2,0.9-3.3,2.5-4.3
			C162.8,96.7,165.2,95.2,167.6,93.7z M158.9,109.1c0.8,0.4,2.1-0.2,3.2-0.3c0.3,0,0.7,0,0.8,0.1c0.6,2.2-0.8,4.8-2.9,5.3
			c-0.6,0.2-1.5-0.2-2-0.7c-3-2.8-5-6.3-5.6-9.9c0.2-2.9-0.3-5.4,2.5-6.6c0.4-0.2,0.8-0.5,1.2-0.5c0.6-0.1,1.2,0.1,1.9,0.1
			c-0.3,0.4-0.6,0.8-1,1.1C154.2,100.8,155.3,107.5,158.9,109.1z M161.9,92.1c0.6,1.7,0.5,2.4-1.2,3.1c-1,0.4-0.9,0.3-1.4-0.5
			c-1.1-1.7-2.9-1.1-4.2-0.6c-3.1,1.2-5.7,3.6-5,8.2c0.3,4.5,2.2,8.4,4.9,11.9c1,1.2,2.7,1.9,4.1,2.8c0.2,0.1,0.6,0,0.8-0.1
			c2.6-1.7,5.3-3.2,5-7.1c-0.1-1.7-0.3-3.9,1.7-5.1c0.2-0.1,0.7,0.1,0.9,0.3c0.7,1,1.4,1.9,1.9,3c2.7,5.3,3.8,12.2,3.5,18.3
			c-0.3,5.7-2.9,11.2-9,12.3c-3.2,0.6-5.5,1-8.9,0.5c-4.6-0.7-8.8-2.5-11.8-6.4c-1.8-2.4-4.1-4.5-5.9-6.9c-1.1-1.5-1.8-3.4-2.7-5.1
			c-3.3-5.9-5.1-12.3-5.5-19c-0.2-3.3,0.7-6.6,1.1-9.9c0.6-5,3.4-8.8,6.7-12.4c0.8-0.9,1.5-2,2.4-2.7c2.3-1.9,4.6-1.1,6.9,0.2
			c2.3,1.3,4.6,2.6,6.8,4.1C157.1,83.7,160.1,87.4,161.9,92.1z"/>
		<path fill="#EFEEDF" d="M138.4,15c-2.2-2-4.3-4.1-6.7-6c-3-2.4-6-5.2-9.5-6.6c-3.9-1.6-8.4-2.4-12.7-2.5c-4.7-0.1-9.4,0.9-14.1,1.8
			c-7.6,1.4-14,5.3-19.6,10.5c-5.3,5-8.5,11.4-11.3,18.1c-2.3,5.4-1.2,11.2-2,17.1c0.7,4,1.4,8.2,3.7,12c2,3.2,3.8,6.6,5.7,9.9
			c0.1,0.2,0.4,0.4,0.5,0.7c0.1-0.3,0.2-0.5,0.3-0.8c0.1-2.1,1-4,2.6-5.5c0.7-0.7,3.6-3.3,4.6-2.3c0.3,0.3,0.3,0.9,0,1.2
			c-0.4,0.4-1.3,0.6-1.8,1c-3,2.1-3.7,5.4-4,8.7c-0.1,0.9,1.2,2.1,1.9,3c1.2,1.5,2.3,3.2,3.7,4.5c1.6,1.4,3.5,2.5,5.4,3.6
			c1.9,1.2,3.8,2.3,5.8,3.3c1,0.5,2.1,0.7,3.2,1c2.3,0.6,4.7,1.1,7.1,1.6c0.2,0,0.4-0.1,0.7-0.2c-0.1-0.1-0.1-0.2-0.2-0.2
			c-0.7-0.2-1.3-0.4-2-0.7c-6-2.3-11.9-4.9-16.5-9.6c-1.7-1.7-3.4-3.5-4.8-5.5c-1.5-2.2,0-5.2,2-6.4c1-0.5,2.2-0.7,3.2-0.3
			c0.4,0.2,0.7,0.4,1,0.7c4.8,3.6,8.8,7.9,12.8,12.4c1.7,1.8,3,4,4.6,5.9c0.2,0.2,0.5,0.3,0.7,0.4c0.1-0.2,0.2-0.3,0.2-0.5
			c-0.1-1.4-0.3-2.8-0.3-4.2c0-1.2,0.1-2.3,0.7-3.3c0-0.1,0.1-0.1,0.2-0.2c1-0.4,1.2,5.7,1.3,6.2c1.3,4.4,3,8.7,7.1,11.3
			c1.3,0.9,3.4,1.5,4.8,1.1c2.4-0.7,3.4-3.3,3.2-5.8c-0.4-4.3-0.9-8.4-3.4-12.1c-0.6-1-1.6-3.4-1.3-4.6c0-0.1,0.1-0.2,0.1-0.3
			c0.1-0.1,0.3-0.1,0.4,0c1.5,0.5,2.9,4.3,3.7,5.6c0.5,0.8,0.9,0.9,1.2-0.1c1.1-3.6,2.2-7.2,3.1-10.9c1.2-4.8,2.1-9.7,6.4-13
			c2-1.5,4.3-2,6.3-1c1.2,0.6,2.5,2.9,2.3,4.2c-0.7,4.6-2.4,8.2-5,12.1c-0.9,1.4-1.5,2.7-2.7,4c-1.1,1.3-2.2,2.5-3.3,3.8
			c-0.5,0.6-1,1.3-1.6,1.8c-1.4,1.1-2.9,2.1-4.3,3.3c-0.4,0.3-0.1,1.3-0.1,2c0.4-0.1,0.8-0.1,1.1-0.4c3.8-2.7,7-5.9,10-9.4
			c3.7-4.3,6.8-9.2,9.3-14.3c1.4-2.9,2.9-5.7,3.9-8.8c1-2.9,0.9-6.1,1.4-9.1c0.5-3.5,0.6-7.4,0.3-10.8
			C146.9,25.6,143.6,19.7,138.4,15z M75.6,40.2c-0.2,2.1-1,4.3-1.7,6.3c-0.9,2.4-3.7,2.2-5,0.7c-0.6-0.6-0.9-1.5-0.7-2.4
			c0.2-1.1,0.8-2.1,1.6-2.9s1.6-1.5,2.4-2.3c1.4-1.4,2.3-3.7,4-4.7C76.2,36.6,75.8,38.5,75.6,40.2z M90.8,25.1
			c0.1-0.4,0.4-0.9,0.8-0.8c0.3,0.1,0.4,0.4,0.4,0.6c0.9,3.1,1.1,6.5,1.8,9.7c0.3,1.1,1.3,2.7,1.9,2.7c1.8,0,2-1.9,2.3-3.3
			c0.2-1,0.1-2,0.3-2.9c0.2-0.6,0.7-1.6,1.1-1.6c0.7-0.1,1.8,0.3,2.2,0.8c1.1,1.4,1.8,3,2.8,4.4c0.3,0.4,0.8,0.7,1.3,0.7
			c0.2,0,0.7-0.6,0.7-1c0.1-2.2,0.2-4.3,0.3-6.5c0-1.1-0.4-2.5,0-3.6c0.1-0.2,0.3-0.4,0.4-0.3c0.1,0,0.1,0.1,0.1,0.2
			c0.6,1.2,0.8,2.3,1,3.6c0.3,1.9,0.6,3.9,0.9,5.8c0.3,2-0.3,3.9-2.3,4.4c-1.2,0.3-2.8-0.4-3.9-1.1c-1-0.7-1.7-2.1-2.5-3.1
			c-0.1-0.1-0.2-0.2-0.4-0.3c-0.1,0.3-0.3,0.6-0.3,0.9c-0.2,2.2-0.4,4.2-2.8,5.4c-2,1-5.2-0.1-5.8-2.4c-0.3-1.2-0.6-2.5-0.8-3.7
			c-0.2-1.2-0.2-2.5-0.3-3.8C90.3,28.4,90.5,26.5,90.8,25.1z M106.2,49.1c0.1,1.7-0.4,3.2-0.8,4.8c-0.2,0.9,0.3,7.1-2.2,5.6
			c-1.2-0.7-1.7-3.7-2.5-4.9c-0.5-0.9-1.3-1.4-1.9-2.1c-0.6-0.7-1.2-1.4-1.5-2.3c-0.1-0.2-0.1-0.5,0-0.7c0.1-0.1,0.3-0.2,0.5-0.2
			c0.4,0,0.8,0.3,1.2,0.5c1.5,1.1,2.2,2.3,3.2,3.8c0.2,0.4,0.4,0.7,0.7,1.1c0.1-0.4,0.2-0.8,0.3-1.1c0.4-1.4,0.5-2.9,1.2-4.2
			c0.1-0.3,0.3-0.5,0.5-0.8c0.2-0.3,0.6-0.6,1-0.4C106.1,48.4,106.2,48.8,106.2,49.1z M118.4,53.4c-1.5,3.3-2.9,6.6-4.2,9.9
			c-1.1,2.7-3.3,4.3-6.3,4c-0.7-0.1-1.7,0.3-2.2,0.9c-2.3,2.3-4.6,2.3-7,0.1c-2.2-2.1-4.4-4.1-6.6-6.1c-1.6-1.5-4.8-3.4-5.4-5.6
			c-0.1-0.2-0.1-0.5,0-0.7c0.2-0.4,0.7-0.6,1.1-0.5c0.4,0.1,0.8,0.4,1.1,0.7c4,3.5,7.4,7.6,12,10.5c0.6,0.4,1.3,0.7,1.9,0.5
			c0.8-0.2,1.2-1,1.5-1.7c0.2-0.8,0.4-1.6,0.8-2.2c0.1-0.1,0.2-0.2,0.3-0.2c0.2-0.1,0.4,0.1,0.5,0.3c0.3,0.3,0.5,0.5,0.8,0.7
			c2.2,1.5,4.6,0.1,5.3-2.5c1.3-4.5,3.7-10.6,7-14c0.3-0.3,0.7-0.6,1.2-0.5C122,47.1,118.7,52.6,118.4,53.4z M127.8,31.4
			c-0.7,0.3-1.6,0-2.2-0.5c-0.9-0.7-1.3-1.8-2-2.7c-0.8-1.1-1.6-2.2-2.4-3.3c-0.8-1.1-1.9-2-2.5-3.3c-0.1-0.2-0.2-0.4-0.1-0.6
			c0.2-0.4,0.7-0.2,1.1,0c2.4,1.3,4.7,2.9,6.9,4.6c1,0.7,1.9,1.6,2.3,2.7c0.1,0.2,0.1,0.5,0.1,0.7C129.2,30,128.7,31.1,127.8,31.4z
			 M141.9,54.5c-0.3-0.3-0.6-0.6-0.8-1c-1.2-2.6-2.5-5.1-5.2-6.5c-0.2-0.1-0.2-0.4-0.3-0.7c0.3,0,0.5-0.2,0.8-0.1
			c2.6,0.4,5.9,4.5,5.9,7.5C142.3,53.8,142.1,54.1,141.9,54.5z M144.2,41.9c-0.8,0.9-2.3,1-3.2,0.2c-0.8-0.7-1-1.7-1.3-2.7
			c-0.8-2.8-2.4-5-3.2-7.7c0.6-0.1,1.2,0.3,1.7,0.7c1.2,0.9,2.5,1.8,3.6,2.8c0.7,0.7,2,1.6,2.4,2.5c0.3,0.4,0.5,0.9,0.6,1.4
			C145,40.2,144.9,41.2,144.2,41.9z"/>
		<path fill="#EFEEDF" d="M151.6,147.8c-2.8-1.6-5.8-2.8-8.3-4.8c-2.5-2-4.4-4.8-5.3-7.8c-0.8,1.1-1,3.4-2.2,4.1
			c-0.3,0.2-0.6,0-0.7-0.3s-0.1-0.6,0-0.9c0.8-4.5,0.1-7.9-1.6-12.1c-0.5-1.2-0.8-2.6-1.2-3.9c-0.7-1.9-1.5-3.8-2.3-5.7
			c-0.5-1.3-1-3.4-2-4.5c0,0-0.1-0.1-0.1-0.1c-0.2-0.1-0.3,0.1-0.4,0.3c-0.4,0.8-1.3,1.2-2.2,1.2c-0.7-0.1-1.4-0.4-2.1-0.5
			c-0.8-0.1-1.6,0.3-2.2,0.8c-1,1-1.1,2.9-2.7,3.2c-0.9,0.2-1.8-0.4-2.8-0.5c-1.6-0.2-3,1.1-3.7,2.6c-0.2,0.4-0.3,0.9-0.6,1.2
			s-0.9,0.5-1.2,0.2c-0.4-0.3-0.4-1-0.2-1.4c0.5-1.2,0.8-1.7,1.8-2.6c0.1-0.1,0.3-0.1,0.4-0.3c0.2-0.2,0.3-0.3,0.4-0.5
			c-0.2-0.1-0.5-0.3-0.6-0.3c-0.8,0.3-1.8,0.6-2.4,1.2c-2.7,2.6-1.6,6.4-1.2,9.7c0.4,4,2.1,7.9,4.8,10.9c2.1,2.4,4.9,4.3,6.3,7.1
			c2.2,4.5,2,9.7,3,14.5c0.3,1.6,0.7,3.2,1.1,4.7h39.4c-0.8-1.9-1.7-3.7-2.6-5.5C158.1,153.9,155.6,150.2,151.6,147.8z"/>
		<path fill="#EFEEDF" d="M181.9,151.8c-0.5-5.7-0.4-11.5,0.3-17.2c0.7-5.4,3.3-10.9,4.9-16.1c1.6-5.2,2.3-11.1,1.9-16.8
			c-0.4-6-2-12.8-4.9-18.2c-1.8-3.4-4.6-7-7.7-9.1c-1.3-0.9-2.5-2.7-4.6-2.1c-5.3,1.3-9.6,4.4-13.5,8.1c-0.3,0.3-0.6,1-0.5,1.1
			c1,1.5,2.3,2.8,3.3,4.4c1.2,1.9,2.5,3.7,3.3,5.8c0.5,1.4,0.7,0.9,1.5,0.5c1.9-0.9,3.9-1.9,5.9-2c1.1-0.1,3.3,1.4,3.4,2.3
			c0.3,3.5-0.4,6.9-3.6,9.2c-1.7,1.3-1.6,2.2-0.7,4.1c1.3,2.7,2.6,5.5,3.3,8.4c0.6,2.5,0.3,5.2,0.6,7.8c0.4,3.5,0.4,7.7-0.9,11.1
			c-0.9,2.4-3.1,4.4-5.2,5.8c-4.5,2.9-10.2,3.7-15.3,2.1c-2.3-0.7-4.7-0.9-6.9-1.9c-1.5-0.6-5-3.1-5.6-4.7c1.1,2.8,2.9,5.9,5.4,7.6
			c2.4,1.7,5.3,2.2,8.2,2.6c2.9,0.4,5.6,1.3,8.4,1.9c0.8,0.2,1.7,0.4,2.5,0.7c0.5,0.2,2,1.1,1.9,1.7c-0.1,0.9-1.4,0.5-2.1,0.4
			c-1.9-0.2-3.5-0.9-5.4-0.2c3.3,1.7,6.2,4,8.7,6.7c0.6,0.6,1.2,1.4,0.9,2.3c-0.2,0.1-0.4,0-0.6-0.2c-2.6-1.7-4.5-4.6-7.4-5.6
			c-0.8-0.2-2-1.4-2.6-1c2,4.1,4.5,7.9,6.2,12.2h17c0.3-1.6,0.5-3.3,0.5-5C182.4,156.2,182.1,154,181.9,151.8z"/>
		<path fill="#EFEEDF" d="M51.7,155.4c-4-1.1-7.7-3.3-12-1.8c-0.2,0.1-0.6-0.2-0.7-0.3c-0.1-0.2,0.1-0.7,0.2-0.8
			c1.4-0.5,2.9-1,4.4-1.4c0.7-0.1,1.4,0.1,2.1,0.2c1.1,0.1,1.5-0.3,0.9-1.3c-0.6-1.1-1.3-2.1-1.9-3.1c-2.3-3.9-5.1-7.4-9.7-8.5
			c-2.5-0.6-5.2-0.7-7.8-1c-0.6-0.1-1.2-0.1-1.9-0.2c0.4-0.5,0.6-1.4,1.1-1.6c2.9-1.1,5.9-1.1,8.7-0.1c4.9,1.7,9.5,4,12.5,8.5
			c1,1.5,1.4,0.9,2-0.1c3.1-4.4,6-8.9,9.8-12.9c2.4-2.6,3.9-6.2,5.1-9.6c0.8-2.2,0.3-4.8,0.5-7.2c0.4-6.1,1.1-12.2,1.2-18.3
			c0.1-4.3-0.4-8.7-1-13c-0.8-6-2.2-11.8-5.5-17c-1.6-2.6-4.5-4-7.2-2.8c-4.4,1.8-8.1,4.7-11,8.4c-3.9,5-6.9,10.4-7.5,16.9
			c-0.2,2-0.1,4.1-0.4,6.1c-0.2,1.5,0.7,3.2-1.1,4.3c-1.6,1-3.1,2.2-4.6,3.4c-5.8,4.6-9.2,10.9-11.6,17.8c-2.1,6-4,12-6.4,17.9
			c-1.3,3.3-3.3,6.4-5.2,9.5c-1.7,2.8-5.2,10.9-4.6,15.9h59.1c-0.5-0.7-0.8-1.4-1.1-2.3C57.1,158.3,54.8,156.3,51.7,155.4z"/>
		<path fill="#EF6E50" d="M152.9,80.9c-2.2-1.5-4.5-2.8-6.8-4.1c-2.2-1.3-4.6-2-6.9-0.2c-0.9,0.8-1.6,1.8-2.4,2.7
			c-3.3,3.6-6.1,7.4-6.7,12.4c-0.4,3.3-1.3,6.7-1.1,9.9c0.3,6.7,2.2,13.1,5.5,19c0.9,1.7,1.6,3.6,2.7,5.1c1.8,2.4,4.1,4.5,5.9,6.9
			c3,4,7.2,5.7,11.8,6.4c3.4,0.5,5.7,0.1,8.9-0.5c6.1-1.2,8.7-6.6,9-12.3c0.3-6-0.9-12.9-3.5-18.3c-0.5-1.1-1.2-2-1.9-3
			c-0.2-0.2-0.7-0.4-0.9-0.3c-2,1.2-1.8,3.4-1.7,5.1c0.3,3.9-2.4,5.4-5,7.1c-0.2,0.1-0.6,0.2-0.8,0.1c-1.4-0.9-3.1-1.5-4.1-2.8
			c-2.7-3.5-4.6-7.4-4.9-11.9c-0.7-4.6,2-7,5-8.2c1.4-0.5,3.2-1.1,4.2,0.6c0.5,0.8,0.5,1,1.4,0.5c1.6-0.7,1.8-1.4,1.2-3.1
			C160.1,87.4,157.1,83.7,152.9,80.9z M151.1,124.1c2.1,2.4,4.5,4.8,7,6.8c1.6,1.3,3.8,1.9,5.8,2.8c0-0.1,0.1-0.2,0.1-0.3
			c0.5,0,1.2-0.2,1.6,0c0.5,0.2,0.8,0.8,1.2,1.3c-0.5,0.4-0.9,1-1.4,1c-3.4,0.5-6.4-1-8.8-3c-3-2.5-5.5-5.7-8.5-8.3
			c-3.6-3.2-5.7-7.4-7.4-11.6c-2.1-5.3-4.2-10.8-4.3-16.6c0-1.8,0.2-3.6,0.2-5.4c0-1.5-0.5-3.1-0.2-4.6c0.5-2,1.5-3.9,2.4-5.8
			c0.1-0.1,0.3-0.2,0.5-0.3c0,0.2,0.1,0.4,0.1,0.6c-0.3,2.1-0.9,4.2-0.9,6.3c-0.1,3.9-0.4,8,0.5,11.8c1.3,5.7,3.2,11.4,5.6,16.8
			C146,118.7,148.7,121.4,151.1,124.1z"/>
		<path fill="#EF6E50" d="M119.3,161.6c-1.5-0.9-4.6-0.8-6.3-1.2c-2.1-0.5-4.2-1.2-6.1-2.2c-4.3-2.4-8.3-5.3-11.4-9.2
			c-4-5.1-7-10.5-8.4-16.8c-0.7-3.1-1.5-5.9-1.7-8.9c-0.1-1.6-0.1-3.1,0.2-4.8c0.3-1.3,0.7-2.7,1.9-3.4c0.3,0.2,0.4,0.6,0.4,1
			c0.1,7.4,0,15.2,3.7,21.8c1.5,2.8,3,5.6,5,8.1c1.7,2.2,4,4.1,6.3,5.7c2.4,1.7,5,3.3,7.7,4.5c2.3,1,5.7,1.5,8.2,1.3
			c0.1,0,0.3,0,0.4-0.1c0.1-0.1,0.1-0.3,0.1-0.5c-0.3-3.7-0.9-7.5-2.5-10.8s-4.3-6.3-7.8-7.6c-2.8-1-5.2-1.9-7.1-4.4
			c-2.1-2.9-2.7-6.1-2-9.7c0.7-3.5,1.7-4.5,5.2-4.9c0.1,0,0.3-0.2,0.4-0.4c0.7-1.4,1.3-2.9,2.3-4.1c1.3-1.7,3-2.7,5.3-2.4
			c0.5,0.1,1.1-0.4,1.6-0.7c0.1-0.1-0.1-0.8-0.4-1.1c-1.8-2.4-3.3-5-5.4-7.1c-1.6-1.6-3.8-2.7-5.9-3.8c-1-0.5-2.3-0.7-3.4-0.5
			c-1,0.1-2,0.8-2.9,1.3c-1.1,0.7-2.6,1.3-3.2,2.4c-1.7,2.9-2.3,6.2-4.7,8.6c-0.1,0.1-0.3,0.3-0.5,0.3c-0.5,0.1-0.8-0.7-0.7-1.2
			c0.2-4,2.9-9.5,6.2-11.8c0.1-0.1,0.2-0.2,0.3-0.3c-0.2,0-0.4-0.2-0.5-0.1c-0.8,0.4-1.5,1-2.4,1.3c-5.9,2.1-7.9,7-8.6,12.5
			c-0.5,3.8-0.6,7.7-0.6,11.5c-0.1,8,2.4,15.3,6.3,22.1c1.6,2.9,3.5,5.6,5.7,8.1c2,2.2,4.3,4.1,6.8,5.8c1.7,1.2,3.8,1.9,5.8,2.7
			c1.1,0,2.5,0.5,3.9,1.1h9.5c0-0.1,0-0.2,0-0.3C119.9,162.6,119.8,161.9,119.3,161.6z"/>
		<path fill="#EFEEDF" d="M95,158.6c-3.1-3.9-5.8-8.1-8.7-12.1c-0.6-0.9-1.2-1.8-1.9-2.8c-0.1-0.1-0.3-0.2-0.4-0.4
			c-0.1,0.2-0.1,0.4-0.2,0.6c-0.3,1.3-1.1,1.7-2.5,1.6c-1.6-0.1-2.1-1.1-2.5-2.2c-0.2-0.4-0.3-0.7-0.5-1.1c0.4,0.3,0.8,0.6,1.2,0.9
			c0.4,0.3,1,1.1,1.1,1c0.7-0.4,1.4-0.9,1.9-1.5c0.3-0.4,0.6-1.2,0.4-1.7c-0.3-1.1-0.7-2.4-1.4-3.2c-0.4-0.4-2-0.4-2.5,0.1
			c-0.7,0.6-1,1.8-1.5,2.7c-0.1,0.1-0.3,0.2-0.3,0.2c-1.8-1.7-1.6-3,0.6-4c0.3-0.1,0.5-0.2,0.8-0.3c1.1-0.9,2.3-1.4,1.7-3.6
			c-0.7-2.4-0.7-5.1-0.8-7.6c0-3.1,0.1-6.3,0.4-9.4c0.2-2.8,0.3-5.7,1-8.4c0.9-3.4,2.9-6.3,5.8-8.5c2.4-1.8,4.7-3.7,7.9-3.7
			c1.6,0,3.2,0.3,4.8,0.6c3.7,0.5,7.6,0.9,10.2,3.7c1.8,1.8,3.3,3.8,4.8,5.9c1,1.4,2.4,3.9,3.8,4.8c0.5,0.3,1.1,0.1,1.6-0.3
			s0.8-0.8,1.3-1c0.7-0.3,1.6-0.2,2.4,0.1c0.8,0.2,1.6,0.5,2.4,0.4s1.6-0.8,1.5-1.6c-0.1-1.2-0.7-2.4-0.8-3.7c-0.1-1.8-0.2-3.6,0-5.5
			c0.2-3.5,0.9-7,1.8-10.5c1-4.2,4-7.6,7.1-10.5c2-1.9,4.3-3.9,7.2-4.2c3.5-0.4,5.5,1.4,8.2,3.2c1.3,0.8,2.6,1.7,3.9,2.5
			c0.2,0.1,0.8,0.1,1-0.1c2.2-1.8,4.3-3.8,6.6-5.3c2.4-1.5,5.1-2.6,7.7-3.8c0.6-0.3,1.3-0.5,2-0.7c-0.4-0.7-0.7-1.4-1.3-1.9
			c-2-2-4-4.1-6-6c-1.6-1.5-3.4-2.8-5.1-4.2c-0.5-0.4-5.3,2.2-5.9,2.6c-3.5,2.5-6.3,5.2-9.2,8.3c-0.1,0.2-0.3,0.3-0.5,0.3
			c-0.3-0.1-0.2-0.5-0.2-0.7c1.7-5.9,6.4-9.9,12.1-11.7c0.2-0.1,0.3-0.3,0.5-0.5c-0.2-0.2-0.4-0.5-0.6-0.5c-1.6,0.1-2.2-1.1-3.1-2.1
			c-0.6-0.8-1.6-1.3-2.6-1.7c-0.4-0.2-1.3,0.1-1.5,0.5c-0.6,1-0.9,2.2-1.3,3.3c-0.8,2.1-1.5,4.2-2.5,6.2c-1.2,2.3-2.7,4.4-4.1,6.6
			c-1.1,1.7-2.1,3.4-3.3,4.9c-1.8,2.5-3.8,4.8-5.6,7.2c-2.4,3.2-4.9,6.2-8.7,7.9c-0.4,0.2-0.8,1-0.7,1.3c1.3,4.4-0.6,7.4-4.1,9.7
			c-2.5,1.6-5.1,0.5-7.1-0.6c-2.3-1.3-3.9-3.7-5.9-5.6c-0.5-0.5-1.4-1.1-2-1c-3.8,0.7-7.3-0.5-10.8-1.3c-6.1-1.4-11.2-4.6-15.3-9.1
			c-4.4-4.8-7.9-10.3-10.8-16.1c-1.3-2.5-2.6-5-3.9-7.5c-0.4-0.7-0.7-1.9-1.2-1.9c-0.8-0.1-1.8,0.4-2.6,0.8c-1.2,0.6-2.2,1.3-3.3,2
			c-0.3,0.2-0.5,0.5-0.8,0.8c0.2,0.1,0.4,0.2,0.7,0.3c3.4,1.5,6.1,3.8,7.8,7.2c2.7,5.2,4.1,10.8,4.9,16.4c0.6,4.1,0.6,8.4,0.5,12.5
			c-0.2,6.9-0.6,13.8-1.1,20.7c-0.2,2.6-1,5.2-0.9,7.8c0.1,4,0.5,8.1,1.1,12.1c1,6.8,2.2,13.6,3.6,20.3c0.5,2.6,1.5,5,3.2,7h27.3
			C99.1,162.3,96.8,160.9,95,158.6z"/>
		<path fill="#EFEEDF" d="M157.9,102.5c0.1,0.8-0.1,1.7,0.3,2.3c0.4,0.8,0.4,2.8,2.1,1.9c2.9-1.6,5.6-3.6,8.3-5.5
			c0.3-0.2,0.7-0.8,0.7-1.2c-0.3-2-0.7-4-1.1-6c0-0.2-0.5-0.4-0.6-0.3c-2.4,1.5-4.8,3-7.2,4.5C158.8,99.2,157.7,100.5,157.9,102.5z"
			/>
		<path fill="#EFEEDF" d="M157.9,96.7c-0.6,0-1.3-0.1-1.9-0.1c-0.4,0-0.8,0.3-1.2,0.5c-2.8,1.2-2.3,3.7-2.5,6.6
			c0.5,3.6,2.5,7.1,5.6,9.9c0.5,0.5,1.4,0.8,2,0.7c2.2-0.5,3.5-3.1,2.9-5.3c0-0.1-0.5-0.1-0.8-0.1c-1.1,0.1-2.4,0.7-3.2,0.3
			c-3.7-1.7-4.7-8.3-2-11.3C157.3,97.4,157.6,97.1,157.9,96.7z"/>
		<path fill="#EFEEDF" d="M45.7,30.6c-0.8,0.8-1.3,1.8-1.2,2.9c0.1,1.1,1,2.1,2,2.2c0.6,0,1.2-0.2,1.8-0.5c2.4-1.3,4.3-3.3,6.4-5
			c1-0.8,1.7-1.5,2.5-2.6c0.4-0.6,0.9-1.2,1.3-1.8c0.1-0.2,0.4-0.7,0.7-1c0.2-0.3,0.4-0.6,0.6-0.6c-3.9,1.3-7.7,2.8-11.3,4.7
			C47.4,29.3,46.4,29.9,45.7,30.6z"/>
		<path fill="#EFEEDF" d="M163.6,32.1c-0.7-0.2-1.4-0.3-2.1-0.4c-3.1-0.7-5.7-2.9-8.7-3.9c0.6,1.3,1.7,2,2.8,2.9
			c0.9,0.7,1.8,1.7,2.4,2.7c0.7,1,1.2,2.1,2.1,3c0.8,0.9,2,1.6,3.2,1.4c0.2,0,0.5-0.1,0.7-0.2c1-0.5,1.7-1.8,1.6-2.9
			c0-0.4-0.1-0.8-0.3-1.2C164.9,32.7,164.3,32.4,163.6,32.1z"/>
		<path fill="#EFEEDF" d="M159.6,17.9c1.1,0.5,2.5,0.2,3.2-0.7c0.7-0.9,0.8-2.4,0-3.3c-0.6-0.8-1.5-1.2-2.5-1.3c-1-0.1-1.9,0-2.9,0.2
			c-1.9,0.3-3.9,0.6-5.8,0.9c-0.6,0.1-1.3,0.2-1.9,0.3c0.5-0.1,2,0.8,2.5,0.9c0.9,0.3,1.9,0.4,2.8,0.7
			C156.8,16.1,158.1,17.2,159.6,17.9z"/>
		<path fill="#EFEEDF" d="M105.4,124c-0.1-0.5-0.1-1.1-0.2-1.6c-0.5,0.4-1.4,0.6-1.5,1.1c-0.6,1.5-0.9,3.2-1.4,4.7
			c0.8,2.9,2,5,4.4,6.5c0.3,0.2,0.6,0.3,0.9,0.4c0-0.4,0-0.7,0-1.1C106.9,130.7,106.1,127.3,105.4,124z"/>
		<path fill="#EFEEDF" d="M171.3,98.4c0.2,0,0.5-0.2,0.6-0.4c0.4-1.1,0.7-2.2,1.1-3.6c-0.4-0.6-0.6-1.5-1.1-1.7
			c-0.7-0.2-1.6,0.1-2.5,0.2c-0.1,0-0.2,0.2-0.2,0.3c0.5,1.6,0.9,3.1,1.4,4.7C170.7,98.2,171.1,98.4,171.3,98.4z"/>
		<path fill="#EFEEDF" d="M88.5,79.7c1.1-0.7,2.2-1.4,3.4-2.1c-1.1-1.2-2.2-2.5-3.2-3.7c-0.3,0.2-0.6,0.3-0.8,0.5
			c-1.2,0.7-2.3,1.4-3.5,2.1c0,0-0.1,0-0.1,0C85.5,77.7,87,78.7,88.5,79.7C88.5,79.7,88.5,79.7,88.5,79.7z"/>
		<path fill="#EFEEDF" d="M95.8,84.2c0.6,0.4,1.2,0.7,1.8,1.1c0.1,0.1,0.2,0.1,0.4,0.2c0.3-0.2,0.5-0.5,0.8-0.7
			c-0.5-0.5-1.1-1-1.6-1.6C96.7,83.5,96.3,83.9,95.8,84.2z"/>
		<path fill="#EFEEDF" d="M93.3,82.7c0.6-0.5,1.2-0.9,1.8-1.3c0,0,0.1-0.1,0.1-0.1c-0.8-0.8-1.6-1.7-2.4-2.5c-0.6,0.5-1.1,1-1.7,1.5
			c-0.3,0.2-0.6,0.4-0.9,0.7c0.3,0.2,0.6,0.4,0.9,0.6C91.9,81.8,92.6,82.3,93.3,82.7z"/>
		<path fill="#EFEEDF" d="M83.3,75.3c1.3-1.1,2.6-2.1,4-3c-0.7-0.9-1.5-1.8-2.4-2.5c-0.9,0.9-1.7,1.7-2.6,2.5c-0.3,0.3-0.7,0.6-1,1
			c0,0,0,0.1,0,0.1c0.6,0.8,1.2,1.5,1.9,2.2C83.2,75.4,83.2,75.4,83.3,75.3z"/>
		<path fill="#EFEEDF" d="M83.8,69.2c-0.4-0.2-0.7-0.3-1.1-0.4c-0.9-0.2-2-0.1-2.5,0.7c-0.3,0.5-0.4,1.1-0.2,1.7
			c0.1,0.4,0.3,0.7,0.5,1c1-1,2.1-2,3.1-2.9C83.6,69.2,83.7,69.2,83.8,69.2z"/>
		<path fill="#EFEEDF" d="M127.6,67.4c-0.1,0.5-0.2,1.1-0.4,1.6c1,0.3,2,0.7,2.9,1c0.9-1.5,1.7-3,2.4-4.5c-1.5-0.2-3-0.4-4.5-0.6
			C127.9,65.7,127.8,66.6,127.6,67.4z"/>
		<path fill="#EFEEDF" d="M129,61.4c-0.2,0.5-0.3,1-0.5,1.5c1.7,0.1,3.4,0.2,5.2,0.4c0.4-0.9,0.7-1.8,0.9-2.8c-0.3,0-0.6,0-0.9,0
			c-1.4,0-2.9-0.1-4.2-0.2C129.3,60.7,129.1,61,129,61.4z"/>
		<path fill="#EFEEDF" d="M122.6,79.3c0.2,0.1,0.3,0.1,0.5,0.2c0.8-0.6,1.6-1.4,2.3-2.1c-0.4-0.2-0.8-0.3-1.2-0.5
			C123.6,77.7,123.1,78.5,122.6,79.3z"/>
		<path fill="#EFEEDF" d="M134.8,58.3c0-0.6-0.2-1.2-0.7-1.6c-0.3-0.2-0.8-0.3-1.2-0.2c-1.1,0.2-1.9,1.2-2.5,2.1
			c0,0.1-0.1,0.1-0.1,0.2c0.7,0,1.4,0,2.1,0l2.3,0.1C134.8,58.7,134.8,58.5,134.8,58.3z"/>
		<path fill="#EFEEDF" d="M125,75.2c0.5,0.2,1,0.4,1.5,0.6c0.5-0.7,0.9-1.3,1.4-2c0.5-0.8,1-1.6,1.5-2.5c-0.9-0.3-1.7-0.5-2.6-0.8
			C126.4,72.1,125.7,73.7,125,75.2z"/>
		<path fill="#EFEEDF" d="M71.9,42c-0.4,0.4-0.7,0.9-1,1.3c-0.3,0.5-0.7,1-0.8,1.5c-0.1,0.6,0.2,1.3,0.8,1.4c0.5,0.1,1-0.2,1.3-0.6
			c1.3-1.6,1.1-4,2-5.8c-0.5,0.5-1,0.9-1.5,1.4C72.4,41.4,72.1,41.7,71.9,42z"/>
		<path fill="#EFEEDF" d="M126.3,27.4c-0.6-0.3-1.2-0.7-1.7-1.2c-0.7-0.6-1.2-1.4-2-1.9c0.7,1,1.3,2.1,2,3.1c0.5,0.7,1,1.5,1.8,1.7
			c0.4,0.1,0.9,0.1,1.1-0.2c0.2-0.3,0.1-0.7-0.2-1C127,27.7,126.7,27.5,126.3,27.4z"/>
		<path fill="#EFEEDF" d="M140.6,37.3c0.3,0.7,0.5,1.4,0.8,2c0.2,0.4,0.3,0.8,0.7,1c0.4,0.2,1,0.1,1.1-0.3c0.1-0.2,0-0.4-0.1-0.6
			C142.5,38.5,141.3,38.1,140.6,37.3z"/>
	</g>
</svg>
