<?xml version="1.0" encoding="utf-8"?>
<!-- Generator: Adobe Illustrator 23.0.1, SVG Export Plug-In . SVG Version: 6.00 Build 0)  -->
<svg version="1.1" xmlns="http://www.w3.org/2000/svg" xmlns:xlink="http://www.w3.org/1999/xlink" x="0px" y="0px"
	 viewBox="0 0 330.8 258.4" style="enable-background:new 0 0 330.8 258.4;" xml:space="preserve">
<style type="text/css">
	.st0{display:none;}
	.st1{display:inline;fill:#494234;}
	.st2{display:inline;}
	.st3{fill:none;}
	.st4{fill:#EDCD8E;}
	.st5{fill:#C170B6;}
	.st6{fill:#AA66A7;}
	.st7{fill:#EACA81;}
	.st8{display:inline;fill:#685B42;}
	.st9{display:inline;fill:#7F6740;}
	.st10{display:inline;fill:#EACA81;}
	.st11{fill:#494234;}
	.st12{display:inline;fill:#EFAC7F;}
	.st13{display:inline;fill:#D19E78;}
	.st14{fill:#FFFFFF;}
	.st15{fill:#2D210E;}
</style>
<g id="Layer_1" class="st0">
	<path class="st1" d="M169.8,11.4c15.7,10.1,22.5,25.6,25.5,32.4c11.4,25.7,6.6,49.5,4.4,57.9c3.4,1.4,8.5,4.1,12.7,9.2
		c10.7,13.1,6,30.8,5.4,33.3c-5.9,22.4-42.8,32.2-55.7,35.7c-7,1.9-13.7,3.2-20.2,4.1c-13.3,1.8-50.8,7-65.1-11.3
		c-0.2-0.3-0.4-0.5-0.6-0.8c-1.8-2.4-11.9-16.5-7.4-32c0.8-2.8,2.8-8.1,8.2-13.4c-5.2-6.9-18.9-27-18.4-55.1
		c0.1-7.5,0.4-24.3,11-39.8C90.1,1.6,139.3-8.3,169.8,11.4z"/>
</g>
<g id="Layer_10" class="st0">
	<g class="st2">
		<path class="st3" d="M71.1,210C71.1,210,71.1,210,71.1,210C71.4,210.1,71.5,210.1,71.1,210z"/>
		<path class="st4" d="M106.9,128.2c0-7.3-5.9-13.2-13.2-13.2s-13.2,5.9-13.2,13.2c0,2.4,0.7,4.7,1.8,6.6c-0.4,0.6-0.9,1.2-1.3,1.8
			c-1.2,1.7-2.3,3.5-3.4,5.2c-2.2,3.5-4.3,7-6.3,10.5c-4,7.1-7.8,14.4-11.2,22c-3.4,7.6-6.5,15.4-8.4,24.3c-0.3,1.1-0.4,2.3-0.6,3.4
			c0,0.2,0,0.2-0.1,0.5l-0.1,0.6c0,0.4-0.1,0.8-0.1,1.2c0,0.8,0,1.5-0.1,2.2c-0.2,2.9,0.4,5.8,1.5,8.8c1.1,3,2.8,6.2,5.7,8.9
			c1.4,1.3,3.1,2.5,4.9,3.3c1.4,0.7,3,1.3,5.4,1.8c1.2,0.2,2.7,0.3,4.3,0.1c1.6-0.2,3.3-0.8,4.7-1.5c1.4-0.7,2.4-1.5,3.2-2.3
			c0.8-0.7,1.4-1.4,1.9-2c1-1.2,1.7-2.1,2.3-3l0.9-1.3c0.3-0.4,0.5-0.8,0.7-1.1c0.2-0.3,0.4-0.7,0.6-1c0.7-1.2,1.2-2.3,1.7-3.3
			c0.5-1,0.9-2,1.4-3c0.9-1.9,1.7-3.8,2.5-5.6c0.2-0.4,0.3-0.7,0.5-1.1c-6.3-2.6-12.6-5.2-18.8-7.8c-0.2,0.4-0.3,0.8-0.5,1.2
			l-2.2,5.4c-0.4,0.9-0.7,1.7-1.1,2.5c-0.2,0.6-0.5,1.1-0.7,1.5c0.1,0.7,0.3,1.4,0.5,1.9c0.3,0.7,0.6,1,0.7,1c0,0,0,0,0,0
			c0.1,0,0.1,0.1,0.2,0.1c0,0,0,0,0,0c0.4,0.1,0.2,0.1,0,0c-0.2,0-0.7-0.1-1.3,0c-0.6,0.1-1.4,0.3-1.9,0.6c-1,0.6-1,0.7-0.7,0.4
			c0.3-0.3,0.7-1,1.3-1.8l0.8-1.1l0.3-0.5c0.1-0.1,0.2-0.3,0.2-0.5c0-0.3-0.1-0.7-0.1-1c0-0.3,0-0.5,0-0.7l0-0.3l0-0.1
			c0,0,0-0.2,0-0.3c0.1-0.8,0.2-1.6,0.4-2.5c1.2-6.7,3.6-13.9,6.4-20.9c2.8-7,6.1-14,9.6-20.8c1.8-3.4,3.6-6.8,5.5-10.1
			c1-1.6,1.9-3.3,2.9-4.9c0.5-0.8,1-1.6,1.5-2.3c0.2-0.3,0.5-0.7,0.7-1l0.3-0.4l0.2-0.3l0.4-0.5c0,0,0.1-0.1,0.1-0.1
			C103.1,139.1,106.9,134.1,106.9,128.2z"/>
		<path class="st4" d="M70.9,210C70.9,210,70.9,210,70.9,210c-0.1,0-0.4-0.2-0.7-1c-0.2-0.5-0.4-1.2-0.5-1.9
			c-0.1,0.2-0.2,0.3-0.2,0.5l-0.3,0.5l-0.8,1.1c-0.5,0.8-1,1.4-1.3,1.8c-0.2,0.4-0.3,0.2,0.7-0.4c0.5-0.3,1.2-0.5,1.9-0.6"/>
		<path class="st4" d="M96.9,195.3l-19.1-7.9c0,0,0,0,0,0C84.2,190.1,90.5,192.7,96.9,195.3C96.9,195.3,96.9,195.3,96.9,195.3z"/>
		<path class="st5" d="M102.1,184.5c3.4-6.6,7.3-12.8,11.6-17.7c2.2-2.4,4.4-4.4,6.6-5.8c2.2-1.4,4.3-2.1,6.3-2.3c0.1,0,0.2,0,0.3,0
			c6.2-0.8,10.5-6.5,9.7-12.6s-6.5-10.5-12.6-9.7l-0.1,0c-5.9,0.8-11.4,3.2-15.7,6.2c-4.4,3-7.9,6.5-10.9,10.1
			c-6,7.2-10.2,14.8-13.9,22.4c-2,4.1-3.8,8.2-5.5,12.3l19.1,7.9C98.6,191.6,100.3,188,102.1,184.5z"/>
		<path class="st6" d="M77.8,187.4c-1.3,3.1-2.5,6.2-3.7,9.2c6.3,2.6,12.6,5.2,18.8,7.8c1.3-3.1,2.6-6.1,4-9.1
			C90.5,192.7,84.2,190.1,77.8,187.4z"/>
	</g>
</g>
<g id="Layer_9" class="st0">
	<g class="st2">
		<path class="st7" d="M157.6,131.4c-0.2,0-0.5,0-0.7,0.1l-0.5,0.1l-2.6,0.3l-2.4-21.2l-21.8,2.5l2.4,21.2l-2.8,0.3l-0.5,0.1
			c-0.2,0-0.3,0-0.5,0.1l16.3,13L157.6,131.4z"/>
		<path class="st5" d="M189.3,157.2c-1.4-12.3-10.3-21.9-21.6-25l-21.4,26.9l0,0l-0.4,0.5l-27.5-21.8c-10.4,5.5-16.9,16.9-15.5,29.2
			l8.4,75.8h88.2L189.3,157.2z"/>
		<path class="st5" d="M157.7,131.4C157.7,131.4,157.6,131.4,157.7,131.4l-13.1,16.3l-16.3-13c0,0-0.1,0-0.1,0l16.4,13.1
			L157.7,131.4z"/>
		<path class="st6" d="M151.2,153l-4.8,6.1l0,0l21.4-26.9c-3.2-0.9-6.6-1.2-10.1-0.9l-13.1,16.4L151.2,153z"/>
		<path class="st6" d="M146.4,159.1l-6.6-5.2l4.8-6.1l-16.4-13.1c-3.5,0.5-6.7,1.5-9.7,3.1l27.5,21.8L146.4,159.1z"/>
		
			<rect x="141.6" y="149.3" transform="matrix(0.6223 -0.7828 0.7828 0.6223 -65.1711 171.8607)" class="st6" width="7.8" height="8.4"/>
	</g>
</g>
<g id="Layer_12" class="st0">
	<rect y="227.4" class="st8" width="330.8" height="31"/>
	<rect y="243.8" class="st9" width="330.8" height="14.2"/>
</g>
<g id="Layer_11">
	<g>
		<path class="st3" d="M224.6,214.7C224.9,214.6,224.9,214.5,224.6,214.7C224.6,214.7,224.6,214.7,224.6,214.7z"/>
		<path class="st7" d="M243.3,212.9c0-0.1-0.1-0.3-0.1-0.5l-0.2-0.6c-0.1-0.4-0.3-0.7-0.4-1.1c-1.1-2.6-1.8-3.6-2.6-4.9
			c-0.4-0.6-0.8-1.1-1.1-1.7c-0.4-0.6-0.7-1.1-1.1-1.6c-2.7-3.7-5.4-6.9-8.1-10.1l-19.3,12.3c0.7,0.8,1.5,1.6,2.2,2.4
			c2.5,2.7,4.9,5.5,7.1,8.2l-0.2,0l-1.5,0.1c-1,0.1-2,0.1-3,0.1c-2,0.1-4.1,0.1-6.1,0.2c-8.2,0.2-16.5,0.2-24.8,0.1
			c-13.6-0.1-27.1-0.3-40.7-0.6c-2.6-4-7.1-6.7-12.2-6.7c-8,0-14.5,6.5-14.5,14.5c0,8,6.5,14.5,14.5,14.5c3.6,0,6.9-1.3,9.4-3.4
			c14.4,0.8,28.7,1.5,43.1,2.1c8.4,0.3,16.8,0.6,25.3,0.7c2.1,0,4.3,0,6.5,0c1.1,0,2.2,0,3.3,0l1.7,0l1.8-0.1l0.9,0l1-0.1
			c0.7-0.1,1.4-0.1,2-0.2c1.4-0.2,3-0.5,4.7-1c0.8-0.2,2.1-0.7,3.8-1.5c0,0,1-0.5,1.9-1.1c4-2.7,7.6-10.8,7.6-15
			c0-0.8-0.1-2.4-0.3-3.5C243.5,213.7,243.3,212.9,243.3,212.9z M224.6,214.7C224.6,214.7,224.6,214.7,224.6,214.7
			C224.9,214.5,224.9,214.6,224.6,214.7z"/>
		<path class="st5" d="M211.3,172c-11.9-12.9-23.5-23.1-35.8-35.5l-17.4,16.3c12.4,11.8,24.8,23.9,36.8,36c2.3,2.4,4.7,4.7,7,7.1
			l19.7-12.6C218.2,179.5,214.8,175.8,211.3,172z"/>
		<path class="st6" d="M229,191.8c-2.4-2.8-4.9-5.6-7.3-8.4L201.9,196c2.9,3,5.7,5.9,8.4,8.9l19.3-12.3
			C229.4,192.3,229.2,192,229,191.8z"/>
		<polygon class="st6" points="201.9,196 201.9,196 221.7,183.4 221.6,183.4 		"/>
	</g>
</g>
<g id="Layer_8" class="st0">
	<path class="st10" d="M124.5,127.8c-21.9,3.2-42.9-11.4-47.3-33.4l-5.6-27.6c-4.6-22.7,10.2-45,33-49.6l27.6-5.6
		c22.7-4.6,45,10.2,49.6,33l5.6,27.6c4.6,22.7-10.2,45-33,49.6L124.5,127.8z"/>
</g>
<g id="Layer_7" class="st0">
	<g class="st2">
		<path class="st11" d="M114.2,109.8l-0.6-0.7c6.4-3.1,13.6-5.4,21-6.4c7.8-1.1,15.9-0.9,23.3,0.5l-0.4,0.8
			c-7.3-1.4-15.2-1.6-22.9-0.5C127.5,104.5,120.4,106.7,114.2,109.8z"/>
	</g>
</g>
<g id="Layer_6" class="st0">
	<ellipse transform="matrix(0.9802 -0.1978 0.1978 0.9802 -13.4997 34.9253)" class="st12" cx="168.1" cy="85" rx="10.4" ry="4.9"/>
	<ellipse transform="matrix(0.9802 -0.1978 0.1978 0.9802 -17.6244 21.5283)" class="st12" cx="99" cy="99" rx="10.4" ry="4.9"/>
	
		<ellipse transform="matrix(0.9802 -0.1978 0.1978 0.9802 -14.7053 28.0642)" class="st13" cx="133.1" cy="87.6" rx="8.3" ry="5.9"/>
</g>
<g id="Layer_14" class="st0">
	<g class="st2">
		<path class="st14" d="M99.8,80c-1-4.8-0.2-9.4,1.7-12.7c-4.4,1.4-6.9,7.2-5.6,13.5c1.3,6.3,5.8,10.7,10.4,10.3
			C103.3,88.8,100.8,84.8,99.8,80z"/>
		<path class="st15" d="M113.3,77.3c-1.3-6.6-6.3-11.2-11.1-10.2c-0.2,0-0.4,0.1-0.7,0.2c-2,3.4-2.7,8-1.7,12.7s3.4,8.7,6.5,11.1
			c0.2,0,0.5,0,0.7-0.1C111.9,90,114.7,83.9,113.3,77.3z"/>
	</g>
	<g class="st2">
		<path class="st14" d="M150.3,69.8c-1-4.8-0.2-9.4,1.7-12.7c-4.4,1.4-6.9,7.2-5.6,13.5c1.3,6.3,5.9,10.7,10.4,10.3
			C153.7,78.6,151.3,74.6,150.3,69.8z"/>
		<path class="st15" d="M163.8,67.1c-1.3-6.6-6.3-11.2-11.1-10.2c-0.2,0-0.4,0.1-0.6,0.2c-2,3.4-2.7,8-1.7,12.7
			c1,4.8,3.4,8.7,6.5,11.1c0.2,0,0.4,0,0.7-0.1C162.3,79.9,165.1,73.7,163.8,67.1z"/>
	</g>
</g>
<g id="Layer_4" class="st0">
	<g class="st2">
		<path class="st11" d="M148,53.6c-0.2,0-0.5,0-0.7,0c-2.2-0.1-4.5-0.6-6.7-1.5l0.4-0.9c2.1,0.8,4.2,1.3,6.3,1.4
			c7.1,0.3,12.4-3.8,14.8-6.3l0.7,0.7C160.3,49.5,155.1,53.6,148,53.6z"/>
	</g>
	<g class="st2">
		<path class="st11" d="M99.3,63.4c-3.7,0-6.8-1-8.8-1.8l0.4-0.9c3.2,1.3,9.7,3,16.1,0c1.9-0.9,3.7-2.2,5.3-3.7l0.7,0.7
			c-1.7,1.7-3.6,3-5.6,3.9C104.6,62.9,101.8,63.4,99.3,63.4z"/>
	</g>
</g>
<g id="Layer_3" class="st0">
	<path class="st1" d="M187.8,41.4c-12.7-7.6-30.8-15.7-45.7-8.9c-8,3.6-8.1,8.4-18.1,15.4C108,59,82.4,65.1,71.9,54.4
		c-5.3-5.5-6.2-14.7-4.4-21.7c5.8-22.5,43.2-38.3,73.9-30.7C170.6,9.2,184.8,35.5,187.8,41.4z"/>
</g>
</svg>
