<?xml version="1.0" encoding="utf-8"?>
<!-- Generator: Adobe Illustrator 23.0.1, SVG Export Plug-In . SVG Version: 6.00 Build 0)  -->
<svg version="1.1" xmlns="http://www.w3.org/2000/svg" xmlns:xlink="http://www.w3.org/1999/xlink" x="0px" y="0px"
	 viewBox="0 0 665.8 505.6" style="enable-background:new 0 0 665.8 505.6;" xml:space="preserve">
<style type="text/css">
	.st0{display:none;}
	.st1{display:inline;fill:#494234;}
	.st2{display:inline;fill:#686868;}
	.st3{display:inline;fill:#B4D8DB;}
	.st4{display:inline;fill:#EAEAEA;}
	.st5{display:inline;fill:#C4E1E8;}
	.st6{display:inline;}
	.st7{fill:#686868;}
	.st8{fill:#4C4C4C;}
	.st9{fill:#EACA81;}
	.st10{fill:#626DD1;}
	.st11{fill:#7282DB;}
	.st12{fill:#FFFFFF;}
	.st13{fill:#37CC62;}
	.st14{fill:#C170B6;}
	.st15{fill:#AA66A7;}
	.st16{display:inline;fill:#EACA81;}
	.st17{display:inline;fill:#C67FBF;}
	.st18{display:inline;fill:#AA66A7;}
	.st19{fill:#494234;}
	.st20{display:inline;fill:#EFAC7F;}
	.st21{display:inline;fill:#D19E78;}
	.st22{display:inline;fill:#F3FFFE;}
	.st23{display:inline;fill:#C6C6C6;}
	.st24{display:inline;fill:#515151;}
</style>
<g id="Layer_1" class="st0">
	<path class="st1" d="M121.8,72.5c18.1-0.2,32.8,8.6,39.3,12.5c24.5,14.6,35.6,36.4,39.2,44.2c3.4-0.7,8.9-1.3,15.3,0.6
		c16.2,4.8,23.6,21.6,24.7,23.9c9.4,21.2-12.2,48.7-19.8,58.3c-4.1,5.2-8.4,9.9-12.7,14c-8.9,8.5-33.9,32.6-56,25.6
		c-0.4-0.1-0.7-0.2-0.9-0.3c-2.8-1-19.2-7-25.4-21.8c-1.1-2.7-2.9-8-2.2-15.1c-8.2-2.8-30.9-11.7-47.9-34.6
		c-4.5-6.1-14.7-19.8-16.4-37.8C55.8,107,86.6,72.9,121.8,72.5z"/>
</g>
<g id="Layer_13" class="st0">
	<path class="st2" d="M366,6.8c-3.3-4.7-9.2-7.3-15.4-6.7h-35.8c-1.5,0-2.8,0.4-4,1.1c-1.2-0.7-2.5-1.1-4-1.1h-35.8
		c-6.2-0.5-12.1,2-15.4,6.7c-5.2,7.4-2.2,17.5,3.8,22.4c7.5,6,18.9,4.4,25.5-3.6c1.4-1.7,1.2-4.2-0.5-5.6c-1.7-1.4-4.2-1.2-5.6,0.5
		c-4.2,5-10.8,5.3-14.4,2.4c-3.1-2.5-4.7-8-2.2-11.6c1.7-2.4,4.8-3.6,8.2-3.3l36.3,0v390c0,2.2,1.8,4,4,4s4-1.8,4-4V8.1h36l0.4,0
		c3.4-0.3,6.6,0.9,8.3,3.3c2.5,3.6,0.9,9.1-2.2,11.6c-3.6,2.9-10.2,2.6-14.4-2.4c-1.4-1.7-3.9-1.9-5.6-0.5c-1.7,1.4-1.9,3.9-0.5,5.6
		c6.6,8,18.1,9.6,25.5,3.6C368.3,24.3,371.2,14.2,366,6.8z"/>
	<path class="st3" d="M631.5,250.8c-4.6-2.1-11.2-5.7-18.6-11.7c-15.6-12.7-15.6-20.9-25.1-24.2c-9.8-3.4-12,4.5-33.8,7
		c-9.9,1.1-17.5,0.4-21.6,0c-20.2-2-22.5-8.5-34.4-9.4c-29.2-2.2-57.7,33.7-57.7,33.7l0,0l0,0c48.5,35.1,58.9,38.9,58.9,38.9
		c16.9,6.2,11.2-1.2,60.6,3.9c20.6,2.1,38.9,5.2,57.1-5.5c5.1-3,14.9-9,16.3-20.3C633.9,258.2,632.7,253.7,631.5,250.8z"/>
	<path class="st4" d="M385.1,23.2h-59.6c-3.3,0-6,2.7-6,6.1v76c0,1.4,0.4,2.7,1.2,3.7l16.4,21.8c1.1,1.5,2.9,2.4,4.7,2.4h12
		c0.1,6.6-0.5,13.2-2,19.6c-3,13.2-9.2,19.9-15.8,27c-5.2,5.6-10.5,11.4-14.7,20.6c-11.1,24.4-7.8,55.9,6.8,66
		c3.4,2.4,6.3,2.7,9,3.1c2.9,0.4,5.7,0.7,9.6,3.5c9.8,7.1,15.3,22,13,35.5c-0.9,5.3-2.6,8-4.8,11.5c-1.7,2.7-3.6,5.7-5.5,10.5
		c-4.4,11.6-5,24.7-1.7,39.1l2.9-0.7c-3.1-13.8-2.6-26.4,1.6-37.4c1.7-4.5,3.6-7.4,5.2-10c2.3-3.6,4.2-6.7,5.2-12.6
		c2.4-14.5-3.6-30.7-14.2-38.4c-4.5-3.3-8-3.7-11-4.1c-2.6-0.3-4.8-0.6-7.7-2.6c-13.3-9.2-16.1-39.5-5.8-62.3
		c4-8.8,9.2-14.4,14.2-19.8c6.8-7.4,13.3-14.4,16.5-28.3c1.5-6.6,2.2-13.4,2.1-20.2h11.7c1.8,0,3.6-0.9,4.7-2.4l16.4-21.8
		c0.8-1.1,1.2-2.4,1.2-5.7v-76C391.1,25.9,388.4,23.2,385.1,23.2z"/>
	<path class="st5" d="M358.6,132.2h-6.5c-9.5,0-24.8-23.3-24.8-32.6V54.1c0-9.3,7.7-16.8,17.1-16.8h21.8c9.5,0,17.1,7.5,17.1,16.8
		v43.5C383.4,106.9,368.1,132.2,358.6,132.2z"/>
	<g class="st6">
		<path class="st7" d="M343.1,20.5c-1.6-1.9-4.5-2-6.2,0c-1.2,1.5-1.2,3.7,0.1,5.1c4,4.8,9.9,7.3,15.5,7.1v0
			c2.2-2.1,2.3-5.5,0.3-7.7l-0.3-0.3C349.3,25,345.7,23.7,343.1,20.5z"/>
	</g>
</g>
<g id="Layer_12" class="st0">
	<g class="st6">
		<polygon class="st8" points="561.6,220.4 570.6,219.6 561.6,220.4 		"/>
		<path class="st9" d="M507.7,201.8c-18.6,2.7-36.9,6.3-54.9,10.3c-1.9,0.4-3.9,0.9-5.8,1.3l8.7,33c1.9-0.6,3.9-1.3,5.8-1.9
			c17.2-5.5,34.3-10.7,51.5-14.9c12.9-3.1,29.1-6.5,43.6-8.5l-6.1-23C536.1,198.4,521.8,199.8,507.7,201.8z"/>
		<polygon class="st9" points="549.3,175 555.4,198 555.4,198 556.9,203.6 		"/>
		<path class="st9" d="M561.3,220.5c0.1,0,0.2,0,0.3,0L561.3,220.5L561.3,220.5z"/>
		<path class="st10" d="M405.8,222.9l-3.3,0.8l-0.8,0.2l-0.9,0.2l-1.9,0.5c-19.8,5.1-37.5,13.4-53.1,18.6l16.2,40.9
			c9.2-4.1,17.4-8.4,25.3-12.3c7.9-3.9,15.5-7.4,23-10.1l1.4-0.5l0.7-0.3l0.8-0.3l3.2-1.1l6.5-2.2l10.8-3.6l-9.3-35.1l-11.8,2.8
			L405.8,222.9z"/>
		<path class="st11" d="M425.8,218.2l-1.6,0.4l9.3,35.1l2.1-0.7c6.7-2.2,13.3-4.5,20-6.6l-8.7-33C439.9,215,432.9,216.6,425.8,218.2
			z"/>
		<path class="st12" d="M561.3,220.5L561.3,220.5l-4.5-16.9l-1.5-5.5c-1.6,0-3.2,0-4.9,0.1l6.1,23
			C558.2,220.9,559.8,220.7,561.3,220.5L561.3,220.5z"/>
		<path class="st8" d="M561.3,220.5l0.3,0c0,0,0,0,0,0l9-0.8l-12.4-46.9c-0.6-2.4-3.1-3.9-5.6-3.3s-3.9,3.1-3.3,5.6l7.5,28.5
			L561.3,220.5z"/>
		<polygon class="st8" points="561.3,220.5 561.3,220.5 556.9,203.6 		"/>
	</g>
	<g class="st6">
		<path class="st13" d="M573,213.7l-6.6-40.3c-0.3-2.1-1.3-4-2.7-5.5l-26.6,4.3c-0.8,1.8-1.1,3.9-0.8,6c0.9,5.8-3,11.3-8.8,12.3
			l-29.4,4.8c0,0-0.1,0-0.1,0l6.6,40.2c0,0,0.1,0,0.1,0l40-6.5l19.5-3.2C570,225,574,219.5,573,213.7z"/>
		<path class="st12" d="M489.3,207.6l3.1,19.2c0.9,5.8,6.3,9.7,12.1,8.8l-6.6-40.2C492.3,196.4,488.4,201.9,489.3,207.6z"/>
		<path class="st12" d="M554.2,164.6l-8.9,1.5c-3.7,0.6-6.6,3-8,6.2l26.6-4.3C561.4,165.4,557.9,164,554.2,164.6z"/>
	</g>
</g>
<g id="Layer_11" class="st0">
	<g class="st6">
		<polygon class="st8" points="559.9,292.9 560.5,293 559.9,292.9 		"/>
		<polygon class="st9" points="561.8,245.9 560.9,265.3 560.9,265.3 		"/>
		<polygon class="st9" points="560.5,293 568.7,294.8 570.9,246.3 568.7,294.8 		"/>
		<path class="st9" d="M559.7,292.8L559.7,292.8c0.1,0,0.2,0,0.3,0.1L559.7,292.8z"/>
		<path class="st9" d="M514.1,259.1c-18.6-3-37.1-5-55.5-6.6c-2-0.2-3.9-0.3-5.9-0.5l-1.5,34c2,0,4.1-0.1,6.1-0.1
			c18-0.1,36,0.1,53.6,1.2c13.2,0.9,29.7,2.4,44.2,4.9l1.1-23.7C542.2,264.2,528.1,261.3,514.1,259.1z"/>
		<path class="st10" d="M410.5,248.7l-3.4-0.2l-0.9-0.1l-1-0.1l-1.9-0.1c-20.5-1-39.8,1.6-56.3,1.9l3.2,43.8
			c10-1.2,19.1-2.8,27.8-4.2c8.7-1.4,17-2.4,25-2.8l1.5-0.1l0.8,0l0.9,0l3.4-0.1l6.8-0.2l11.4-0.3l1.6-36.3l-12.1-0.9L410.5,248.7z"
			/>
		<path class="st11" d="M431,250.2l-1.6-0.1l-1.6,36.3l2.3-0.1c7-0.1,14.1-0.3,21.1-0.4l1.5-34C445.4,251.3,438.2,250.8,431,250.2z"
			/>
		<path class="st12" d="M559.7,292.8l1.2-27.5h0l-0.2,4.4c-1.5-0.5-3.1-0.9-4.7-1.4L555,292C556.6,292.3,558.1,292.6,559.7,292.8
			L559.7,292.8L559.7,292.8z"/>
		<path class="st8" d="M560.9,265.3l-1.2,27.5l0.3,0.1c0,0,0,0,0,0l0.6,0.1l8.2,1.8l2.2-48.5c0.1-2.5-1.8-4.7-4.4-4.8
			c-2.5-0.1-4.7,1.8-4.8,4.4L560.9,265.3L560.9,265.3z"/>
		<polygon class="st8" points="560.9,265.3 559.7,292.8 559.7,292.8 560.9,265.3 		"/>
	</g>
</g>
<g id="Layer_10">
	<g>
		<path class="st9" d="M183,175.6c-0.1,0.1-0.3,0.3-0.4,0.4l-0.3,0.4l-1.3,2.2L163,168l-11.1,18.2l18,10.6l-1.4,2.3l-0.3,0.4
			c-0.1,0.1-0.2,0.3-0.2,0.4l20-4.9L183,175.6z"/>
		<path class="st14" d="M188,195.1l-5-19.5c0,0,0,0,0,0L188,195.1l-20,4.9c0,0,0,0.1,0,0.1L188,195.1z"/>
		<path class="st14" d="M226.1,174.3c-2.6-1.4-5.3-2.4-8.1-3.1c-10.7-2.7-19.4-4.8-27.7-0.9l7.7,30.1l0,0l0.2,0.6l-33.6,8.3
			c-1.9,11.2,3.1,23,13.6,29.1l102.1,60.5l44.1-72.3L226.1,174.3z"/>
		<polygon class="st15" points="331.7,230.5 324.4,226.6 280.2,298.9 287.4,303.1 298.8,284.4 		"/>
		<path class="st10" d="M295.6,308l4.2,2.5c13.6,8,40.7,8.4,48.8-4.9l1.7-11.6c0.3-2.1,1.5-4,3.2-5.2l9.5-6.8
			c8.2-13.4-4.9-36.7-18.5-44.7l-4.3-2.3L295.6,308z"/>
		<polygon class="st10" points="298.8,284.4 287.4,303.1 287.4,303.1 		"/>
		<path class="st15" d="M197.9,200.4L197.9,200.4l-7.7-30.1c-2.4,1.2-4.8,2.9-7.3,5.2l5,19.5l8.1-2L197.9,200.4z"/>
		<polygon class="st11" points="331.7,230.5 298.8,284.4 331.7,230.5 		"/>
		<polygon class="st11" points="331.9,230.6 315.5,257.5 304.2,275.9 287.5,303.2 295.6,308 340.2,235.1 		"/>
		<polygon class="st11" points="315.5,257.5 331.9,230.6 331.7,230.5 287.4,303.1 287.5,303.2 304.2,275.9 		"/>
		<polygon class="st11" points="298.8,284.4 287.4,303.1 287.4,303.1 331.7,230.5 331.7,230.5 		"/>
		<path class="st15" d="M197.9,200.4l-8.1,2l-1.9-7.3l-20.1,4.9c-1.7,2.9-2.8,6.1-3.4,9.3l33.6-8.3L197.9,200.4z"/>
		<polygon class="st15" points="197.9,200.4 196.1,193.1 188,195.1 189.9,202.4 		"/>
	</g>
</g>
<g id="Layer_9" class="st0">
	<path class="st16" d="M355.3,260.7c-4.6,0-8.6,2.5-10.7,6.2c-14.2,1.5-28.6,1.7-42.8,0.4c-7.5-0.7-15-1.7-22.4-3.2
		c-7.4-1.4-14.7-3.3-21.9-5.5c-10.6-3.3-21-7.4-30.9-12.3l-14,17.9c12.6,5.9,25.8,10.7,39.2,14.3c8,2.1,16.1,3.8,24.2,5.1
		c8.2,1.2,16.4,2.1,24.6,2.5c16.1,0.8,32.2-0.1,48.1-2.6c1.9,1.2,4.2,2,6.7,2c6.8,0,12.4-5.6,12.4-12.4
		C367.7,266.2,362.2,260.7,355.3,260.7z"/>
	<path class="st17" d="M179.9,214.8c-0.1-0.1-0.3-0.2-0.4-0.3c-5.2-4.3-12.9-3.6-17.2,1.6s-3.6,12.9,1.6,17.2l0,0
		c11.7,9.8,24.4,18.3,37.8,25.5l14.1-18.1C202.9,233.3,190.8,224.7,179.9,214.8z"/>
	<path class="st18" d="M216.2,240.9c-0.1-0.1-0.3-0.2-0.4-0.2l-14.1,18.1c1.3,0.7,2.5,1.4,3.8,2c2.3,1.2,4.7,2.4,7.1,3.5l14-17.9
		C223,244.7,219.6,242.8,216.2,240.9z"/>
</g>
<g id="Layer_8" class="st0">
	<path class="st16" d="M160.4,186.5c-15.2,16-40.7,17.6-57.8,3.1l-21.5-18.2c-17.7-15-19.9-41.7-4.9-59.4l18.2-21.5
		c15-17.7,41.7-19.9,59.4-4.9l21.5,18.2c17.7,15,19.9,41.7,4.9,59.4L160.4,186.5z"/>
</g>
<g id="Layer_7" class="st0">
	<g class="st6">
		<path class="st19" d="M179.4,145.2c-2.3,2.7-7.3,7.3-10,5.1l0.4-0.4c0.8,0.7,4.6-0.6,8.7-5.4c4-4.8,4.6-8.8,3.8-9.5l0.4-0.4
			C185.3,136.7,181.7,142.5,179.4,145.2z"/>
	</g>
</g>
<g id="Layer_6" class="st0">
	
		<ellipse transform="matrix(0.647 -0.7625 0.7625 0.647 -29.8198 178.9646)" class="st20" cx="178.4" cy="121.7" rx="7.4" ry="3.7"/>
	
		<ellipse transform="matrix(0.647 -0.7625 0.7625 0.647 -64.2327 169.435)" class="st20" cx="150.9" cy="154.1" rx="10.4" ry="4.9"/>
	
		<ellipse transform="matrix(0.647 -0.7625 0.7625 0.647 -41.9312 170.9552)" class="st21" cx="163.7" cy="130.8" rx="7.5" ry="4.6"/>
</g>
<g id="Layer_5" class="st0">
	<g class="st6">
		<path class="st19" d="M132.4,116.3c-3.2-0.8-6.5,0.3-8.7,2.8c0,0,0,0,0,0c-2.1,2.5-2.6,5.8-1.5,8.9l-0.9,0.4
			c-1.3-3.4-0.7-7.2,1.7-9.9c2.4-2.8,6.1-4,9.7-3.1L132.4,116.3z"/>
	</g>
	<g class="st6">
		<path class="st19" d="M157.3,92.1c-3.1-0.9-6.3,0.1-8.3,2.4c0,0,0,0,0,0c-1.9,2.3-2.4,5.5-1.1,8.4l-0.9,0.3
			c-1.4-3.3-0.9-6.9,1.3-9.5c2.2-2.6,5.8-3.6,9.3-2.6L157.3,92.1z"/>
	</g>
	<g class="st6">
		<path class="st19" d="M141.4,134c0,0-0.1,0.1-0.1,0.1c-2.9,3.1-7,3.6-9.2,3.6c-0.9,0-1.8-0.7-2.1-1.6c-0.3-0.9,0.1-1.6,1-1.6
			c1.8,0,5.1-0.4,7.6-2.9c2.5-2.7,2.6-6.2,2.4-8c-0.1-0.9,0.6-1.4,1.5-1.1c0.9,0.2,1.7,1.1,1.8,2C144.4,126.6,144.3,130.8,141.4,134
			z"/>
	</g>
	<g class="st6">
		<path class="st19" d="M165.6,109.8c0,0-0.1,0.1-0.1,0.1c-2.2,2.7-5.9,2.9-7.9,2.8c-0.8,0-1.8-0.7-2.2-1.5
			c-0.4-0.8-0.1-1.4,0.7-1.4c1.6,0.1,4.7-0.1,6.5-2.3c1.9-2.3,1.5-5.4,1-7.1c-0.2-0.8,0.3-1.2,1.2-1c0.9,0.2,1.7,1,1.9,1.8
			C167.3,103.3,167.8,107,165.6,109.8z"/>
	</g>
</g>
<g id="Layer_4" class="st0">
	<path class="st1" d="M105.9,169.7c-0.4-7.5-5.2-14.7-11.1-26.2c-9.4-18.6-23.9-24.5-29.7-26.4c-3.9,25.9,0,40.2,4,48.3
		c13.1,26.6,40,13.7,57.4,44.1c8.6,15,5.7,24.6,16.1,32.6c13.4,10.3,36.3,8.1,42.8-3.9c8.7-16.1-8.5-56.3-37.4-67.3
		C129.7,164,114.5,165.9,105.9,169.7z"/>
</g>
<g id="Layer_3" class="st0">
	<path class="st1" d="M155,82.6c-13.1-0.6-30.3,0.7-36.2,12.4c-3.2,6.3-0.4,10-2.9,19.8c-4.1,15.5-17.7,31.2-31.3,27.2
		c-6.9-2-13.1-9-16.1-15.3c-9.7-20.1,6-48.5,31.3-55.5C124,64.5,149.5,79.3,155,82.6z"/>
</g>
<g id="Layer_2" class="st0">
	<path class="st22" d="M632.2,286.3H264.6L69.2,164.1c-6.2-3.7-14.2-1.7-17.9,4.4l-37.7,62.6c-3.7,6.2-1.7,14.2,4.4,17.9L232.7,383
		c2.6,1.6,5.5,2.1,8.3,1.8c0.5,0.1,1.1,0.1,1.6,0.1h389.7c7.2,0,13.1-5.9,13.1-13.1v-72.4C645.3,292.2,639.4,286.3,632.2,286.3z"/>
	<path class="st23" d="M658.8,275.4h-1.2c-3.9,0-7,3.1-7,7v95.9H610c7.1-3.3,12-10.4,12-18.6v-1l-17.5-67.5
		c-0.6-10.8-9.9-19.5-21.2-19.5H259.5c-11.7,0-21.2,9.3-21.2,20.7v0.9l15.3,67.5c0.4,7.7,5.2,14.4,12,17.6h-28.2L12.9,242.1l-3,5
		l216.3,131.3h-211v-95.9c0-3.9-3.1-7-7-7H7c-3.9,0-7,3.1-7,7v112.3c0,7.7,6.3,14,14,14h0.8h0.4h40.9v85.5h13v-85.5h522.7v85.5h13
		v-85.5h45.6h1.2c7.7,0,14-6.3,14-14v-16.5v-95.9C665.8,278.6,662.6,275.4,658.8,275.4z M293.6,364h-18.8c-2.7,0-4.9-2-4.9-4.3v-0.9
		l-15.2-67.1c0.4-2,2.4-3.7,4.8-3.7h34V364z M376.4,364h-69.7v-76h69.7V364z M467.9,364h-78.5v-76h78.5V364z M550.7,364h-69.7v-76
		h69.7V364z M600.8,364h-37.1v-76h19.7c2.7,0,4.9,2,4.9,4.3v1l17.4,67.1C605.2,362.5,603.2,364,600.8,364z"/>
	<circle class="st24" cx="62.7" cy="483.2" r="22.4"/>
	<circle class="st24" cx="598.4" cy="482.2" r="22.4"/>
	<circle class="st23" cx="62.7" cy="483.2" r="11.2"/>
	<circle class="st23" cx="598.4" cy="482.2" r="11.2"/>
</g>
</svg>
