<?xml version="1.0" encoding="utf-8"?>
<!-- Generator: Adobe Illustrator 23.0.1, SVG Export Plug-In . SVG Version: 6.00 Build 0)  -->
<svg version="1.1" id="Layer_1" xmlns="http://www.w3.org/2000/svg" xmlns:xlink="http://www.w3.org/1999/xlink" x="0px" y="0px"
	 viewBox="0 0 584.1 563.8" style="enable-background:new 0 0 584.1 563.8;" xml:space="preserve">
<style type="text/css">
	.st0{fill:#9E6A99;}
	.st1{fill:#C170B6;stroke:#AA66A7;stroke-width:6;stroke-miterlimit:10;}
	.st2{fill:none;stroke:#AA66A7;stroke-width:6;stroke-linecap:round;stroke-miterlimit:10;}
	.st3{fill:#C170B6;stroke:#AA66A7;stroke-width:6;stroke-linecap:round;stroke-miterlimit:10;}
	.st4{fill:#AA66A7;}
</style>
<path class="st0" d="M450.1,457.8c-13.9-66.4-120.1-119.7-150.1-98.7c-3.2,2.3-5.1,7.7-6.5,16.9c-0.9-6.9-2.5-11.2-5.1-13.3
	c-28.7-22.5-137.8,25.5-155.5,91.1c-9,33.5,3,61.5,3,61.5c6.4,14.9,15.5,23.7,17.4,25.5c16.2,15.3,35.1,19.3,42,20.7
	c7.6,1.5,28.6,5.7,49.4-3.5c24.4-10.7,33.8-33.3,40.8-49.9c2.3-5.6,4.1-11.2,5.4-17.2c0.9,4.6,2.1,9,3.7,13.5
	c6,17,14.1,40,37.9,51.9c20.3,10.1,41.5,7,49.2,5.9c7-1,26.1-4.1,43.1-18.6c2-1.7,11.6-10,18.8-24.6
	C443.6,519.1,457.2,491.8,450.1,457.8z"/>
<g>
	<path class="st1" d="M65.8,484.7c2.2,4.1,11.9,21,31.7,26.1c5.2,1.3,24.5,6.3,35-6c9.7-11.3,4.2-28.2,3.7-29.4
		c9.5-1.9,20.5-4.8,32.5-9.5c14.6-5.6,26.6-12.3,36-18.3c-39-21.1-78-42.1-117.1-63.2c-8,4.5-40,23.6-46.5,55
		c-1.2,5.7-3,14.9,1.3,24.8C48.5,478.1,62.2,483.4,65.8,484.7z"/>
	<path class="st1" d="M15.3,282.6c-4.3,4.5-10.8,12.8-12.1,24.1c-0.9,8,1.2,14,5.4,25.5c6.1,16.7,11.3,30.3,15,39.9
		c-0.7,4.4-0.9,9.4-0.3,14.9c0.5,4.4,3.5,27.9,23.5,42.1c14.7,10.5,39.8,16.8,52.2,5.2c5.3-5,6.6-11.6,7-13.7
		c3-16.7-1.8-35.6-7.7-41.5C77.7,358.3,42.8,331.3,15.3,282.6z"/>
	<path class="st1" d="M292,23.5c-9.2-7.1-27.1-18.6-51.4-20.3c-5.3-0.4-50.8-2.9-66.9,25.9c-1.6,2.8-8.5,15.2-4.2,27.6
		c7.8,22.6,47.1,28.6,55.9,29.9c20.2,3.1,33.7-0.4,49.2,10.6c5.1,3.7,7.2,6.6,10,6C291.1,101.8,295.1,81.8,292,23.5z"/>
	<path class="st1" d="M82.3,121.2c-2.1-4.6-4-12.2-2-20.1c3-11.8,13.6-18.9,21.9-24.5c6.3-4.2,12-6.7,15.7-8.2
		c4.3-7,9-11.8,12.4-14.9c7-6.3,13.1-9,22.8-13.3c10.4-4.7,13.1-4.3,14.9-3.5c4.5,2.1,5.2,7.9,6.7,12c7.5,21.2,48.1,28,59.9,29.9
		c20.3,3.4,26.9,0,39.2,7.3c3.6,2.1,8.8,3.7,13.9,14.7c1.7,3.7,4.1,10.7,1.4,49.2c-1.7,24.6-6.7,27-9.3,28.6c-9.2,5.6-22-4-39.2-12
		c-15.8-7.3-13.8-3.2-86.5-17.3C104.7,139.5,88.5,134.7,82.3,121.2z"/>
	<path class="st1" d="M265.2,192.3c2.5-7.5,2.2-18.5-2-27.9c-1.3-2.9-3-6.7-6.7-10c-8.5-7.6-18.9-4.2-33.3-5.3
		c-24-1.9-22.1-13.8-43.9-14.6c-15.6-0.6-20.6,5.4-37.9,2c-4.7-0.9-11.4-2.3-18.6-6.7c-12.6-7.6-12.1-15.4-20.6-19.3
		c-14.1-6.5-32.9,7-37.4,10.3C47,133.6,43,152,41,161.5c-0.8,3.8-0.9,5.8,0.1,7.5c4.3,7.6,21.5-0.5,43.2,3.3
		c5,0.9,31.3,6.2,37.2,22.6c4.1,11.5-5.9,16.8-4.7,35.2c0.3,4.2,2.1,23.3,16,33.9c16.5,12.7,42.3,7.3,57.9-2.7
		c16.9-10.8,11.1-20.3,30.6-37.2C242.9,205.5,259.9,208.5,265.2,192.3z"/>
	<path class="st1" d="M47.1,160.4c-5.5,2.3-15.4,8.5-21.3,20c-4.5,8.7-4.8,16.9-4.7,21.3c-3,3.1-7.3,8.4-9.3,16
		c-4.8,18.3,7.9,34.5,11.3,38.6c18.9,22.1,61.3,27.6,87.1,6c2.6-2.2,19.7-16.9,20-39.2C130.8,182,74.9,149,47.1,160.4z"/>
	<path class="st1" d="M62.4,330.7c-1.7,2.5-28.9-4.5-43.2-26.6c-14.6-22.4-12.6-55.3-2-59.9c3.4-1.5,6.3,0.6,14,4
		c3.6,1.6,31.7,13.9,53.2,13.3c18.8-0.5,20.1-10.6,39.2-13.3c19.8-2.8,37.4,5.3,49.2,12.6c-2-4.9-4.4-13.1-2.7-22.6
		c3.4-18.4,20.6-31.1,35.2-35.9c20.8-6.8,30.2,4.4,43.2-5.3c7.5-5.6,6.9-12.1,20.3-22.7c7.4-5.9,12.4-9.7,15.6-7.9
		c9.1,5,7.3,34.3,7.3,63.2c0,17.6-4.9,16.6-10.6,18c2,1.9,6.1,4.1,7.3,8.6c5.4,19.6,5.1,47.9-1.6,69.5c-4.1,13.1-19.8,5.4-32.3,6.3
		c-18.4,1.3-34.3-1.2-59.2-17.3c-7.8-5-14.9,1.4-18.6,0c-18.3-6.9-19.7-3.7-44.3-2c-22.4,1.5-28.6-14.7-54.2-11.3
		c-5.2,0.7-24.7,3.3-26.6,12C50,321.2,63.6,328.8,62.4,330.7z"/>
	<path class="st1" d="M291.8,389.8c-0.1,23.9-17.7,39.3-23.9,45.9c-6.3,6.7-13.5,14.4-25.3,18.6c-19.5,7-38.1,0-50.5-4.7
		c-25.2-9.5-23.8-18.9-53.2-29.9c-10.4-3.9-15.2-4.4-21.3-10c-10.9-9.9-8.6-19.9-19.3-30.6c-7.7-7.7-10.6-4.2-23.9-12.6
		c-6.7-4.2-29.1-18.3-31.3-40.6c-0.3-3.1-1.4-14.7,5.8-22.6c4.9-5.3,12.8-8.1,36.8-6.7c26.6,1.6,31.9,7,55.9,9.3
		c23.4,2.3,25.3-2.1,43.9,0c26.5,3.1,28.8,18,55.2,20.6c16.4,1.7,40.8-2.8,45.5,5.6C295.9,349.6,292,365.8,291.8,389.8z"/>
	<path class="st1" d="M518.3,484.7c-2.2,4.1-11.9,21-31.7,26.1c-5.2,1.3-24.5,6.3-35-6c-9.7-11.3-4.2-28.2-3.7-29.4
		c-9.5-1.9-20.5-4.8-32.5-9.5c-14.6-5.6-26.6-12.3-36-18.3c39-21.1,78-42.1,117.1-63.2c8,4.5,40,23.6,46.5,55
		c1.2,5.7,3,14.9-1.3,24.8C535.6,478.1,522,483.4,518.3,484.7z"/>
	<path class="st1" d="M568.9,282.6c4.3,4.5,10.8,12.8,12.1,24.1c0.9,8-1.2,14-5.4,25.5c-6.1,16.7-11.3,30.3-15,39.9
		c0.7,4.4,0.9,9.4,0.3,14.9c-0.5,4.4-3.5,27.9-23.5,42.1c-14.7,10.5-39.8,16.8-52.2,5.2c-5.3-5-6.6-11.6-7-13.7
		c-3-16.7,1.8-35.6,7.7-41.5C506.4,358.3,541.3,331.3,568.9,282.6z"/>
	<path class="st1" d="M292.2,23.5c9.2-7.1,27.1-18.6,51.4-20.3c5.3-0.4,50.8-2.9,66.9,25.9c1.6,2.8,8.5,15.2,4.2,27.6
		c-7.8,22.6-47.1,28.6-55.9,29.9c-20.2,3.1-33.7-0.4-49.2,10.6c-5.1,3.7-7.2,6.6-10,6C293,101.8,289.1,81.8,292.2,23.5z"/>
	<path class="st1" d="M501.8,121.2c2.1-4.6,4-12.2,2-20.1c-3-11.8-13.6-18.9-21.9-24.5c-6.3-4.2-12-6.7-15.7-8.2
		c-4.3-7-9-11.8-12.4-14.9c-7-6.3-13.1-9-22.8-13.3c-10.4-4.7-13.1-4.3-14.9-3.5c-4.5,2.1-5.2,7.9-6.7,12
		c-7.5,21.2-48.1,28-59.9,29.9c-20.3,3.4-26.9,0-39.2,7.3c-3.6,2.1-8.8,3.7-13.9,14.7c-1.7,3.7-4.1,10.7-1.4,49.2
		c1.7,24.6,6.7,27,9.3,28.6c9.2,5.6,22-4,39.2-12c15.8-7.3,13.8-3.2,86.5-17.3C479.5,139.5,495.6,134.7,501.8,121.2z"/>
	<path class="st1" d="M318.9,192.3c-2.5-7.5-2.2-18.5,2-27.9c1.3-2.9,3-6.7,6.7-10c8.5-7.6,18.9-4.2,33.3-5.3
		c24-1.9,22.1-13.8,43.9-14.6c15.6-0.6,20.6,5.4,37.9,2c4.7-0.9,11.4-2.3,18.6-6.7c12.6-7.6,12.1-15.4,20.6-19.3
		c14.1-6.5,32.9,7,37.4,10.3c17.8,12.9,21.8,31.2,23.9,40.7c0.8,3.8,0.9,5.8-0.1,7.5c-4.3,7.6-21.5-0.5-43.2,3.3
		c-5,0.9-31.3,6.2-37.2,22.6c-4.1,11.5,5.9,16.8,4.7,35.2c-0.3,4.2-2.1,23.3-16,33.9c-16.5,12.7-42.3,7.3-57.9-2.7
		c-16.9-10.8-11.1-20.3-30.6-37.2C341.2,205.5,324.3,208.5,318.9,192.3z"/>
	<path class="st1" d="M537.1,160.4c5.5,2.3,15.4,8.5,21.3,20c4.5,8.7,4.8,16.9,4.7,21.3c3,3.1,7.3,8.4,9.3,16
		c4.8,18.3-7.9,34.5-11.3,38.6c-18.9,22.1-61.3,27.6-87.1,6c-2.6-2.2-19.7-16.9-20-39.2C453.4,182,509.3,149,537.1,160.4z"/>
	<path class="st1" d="M521.8,330.7c1.7,2.5,28.9-4.5,43.2-26.6c14.6-22.4,12.6-55.3,2-59.9c-3.4-1.5-6.3,0.6-14,4
		c-3.6,1.6-31.7,13.9-53.2,13.3c-18.8-0.5-20.1-10.6-39.2-13.3c-19.8-2.8-37.4,5.3-49.2,12.6c2-4.9,4.4-13.1,2.7-22.6
		c-3.4-18.4-20.6-31.1-35.2-35.9c-20.8-6.8-30.2,4.4-43.2-5.3c-7.5-5.6-6.9-12.1-20.3-22.7c-7.4-5.9-12.4-9.7-15.6-7.9
		c-9.1,5-7.3,34.3-7.3,63.2c0,17.6,4.9,16.6,10.6,18c-2,1.9-6.1,4.1-7.3,8.6c-5.4,19.6-5.1,47.9,1.6,69.5
		c4.1,13.1,19.8,5.4,32.3,6.3c18.4,1.3,34.3-1.2,59.2-17.3c7.8-5,14.9,1.4,18.6,0c18.3-6.9,19.7-3.7,44.3-2
		c22.4,1.5,28.6-14.7,54.2-11.3c5.2,0.7,24.7,3.3,26.6,12C534.1,321.2,520.5,328.8,521.8,330.7z"/>
	<path class="st1" d="M292.3,389.8c0.1,23.9,17.7,39.3,23.9,45.9c6.3,6.7,13.5,14.4,25.3,18.6c19.5,7,38.1,0,50.5-4.7
		c25.2-9.5,23.8-18.9,53.2-29.9c10.4-3.9,15.2-4.4,21.3-10c10.9-9.9,8.6-19.9,19.3-30.6c7.7-7.7,10.6-4.2,23.9-12.6
		c6.7-4.2,29.1-18.3,31.3-40.6c0.3-3.1,1.4-14.7-5.8-22.6c-4.9-5.3-12.8-8.1-36.8-6.7c-26.6,1.6-31.9,7-55.9,9.3
		c-23.4,2.3-25.3-2.1-43.9,0c-26.5,3.1-28.8,18-55.2,20.6c-16.4,1.7-40.8-2.8-45.5,5.6C288.2,349.6,292.2,365.8,292.3,389.8z"/>
	<path class="st2" d="M563.1,200.9c-3.4,4.7-6.8,7.8-9,9.7c-13.6,11.3-29.5,12.7-36.9,13.3c-5.2,0.4-9.4,0.2-12,0"/>
	<path class="st2" d="M412.3,258.5c-1.7,3.5-4.5,8.4-9.2,13c-11.1,10.9-24.9,13.1-32.3,14.3c-6.2,1-14,0.9-29.6,0.7
		c-5.3-0.1-9.7-0.2-12.6-0.3"/>
	<path class="st2" d="M297.2,253.9c3.6-4.2,9.4-9.8,18-13.7c13.3-6.1,25.5-4.7,30.6-4c7.2,0.9,12.9,3,16.6,4.7"/>
	<path class="st2" d="M497.8,337c-3.3-0.5-8.7-0.8-14.6,1c-10.3,3.1-12.5,9.6-24.6,18.3c-7.7,5.5-15.6,11.2-25.9,11.6
		c-8.1,0.4-9.9-2.8-24.6-7c-4.6-1.3-17.3-4.8-30.6-5c-8-0.1-22.3,0-36.9,8.3c-5.1,2.9-8.9,6.1-11.3,8.3"/>
	<path class="st2" d="M292.3,387.2c1.5,4.2,4.4,10.6,10.6,15.6c10.7,8.7,24.3,7.8,33.6,7c16.9-1.5,16.4-6.8,35.9-10.3
		c16.8-3,34.4-2.2,38.9-1.9c11.4,0.6,17,2,25.3-0.7c8.7-2.8,14.8-8.3,18.6-12.6"/>
	<path class="st2" d="M563.2,365.8c-3.2,7.5-7.1,12.9-10,16.4c-4.1,4.9-12.7,15.3-27.4,18.9c-6,1.5-11.2,1.3-14.6,1"/>
	<path class="st2" d="M423.7,447.7c10.1,1.2,17.8,0,22.9-1.3c10.4-2.6,14.4-6.7,26.9-9c8.3-1.5,13.6-2.4,17.4,0.8
		c5.6,4.7,4.6,15.5,1.6,22.2c-2.2,5-5,4.5-9.3,11c-1.2,1.8-7.7,11.6-5,15.3c2.3,3.1,10.7,1.7,20.6-3"/>
	<path class="st2" d="M510.5,460.4c-1.6,1.4-4.6,3.7-9,5c-5.5,1.6-10.1,0.8-12.3,0.3"/>
	<path class="st2" d="M391.4,175.7c7.4-1.5,19.7-2.8,33.6,1.3c5.8,1.7,14.3,4.3,22.3,12c4.8,4.6,7.6,9.3,9.3,12.6"/>
	<path class="st2" d="M463.6,193.3c-0.8,0.6-2.3,1.6-4.3,2c-4.1,0.8-7.4-1.5-8-2"/>
	<path class="st2" d="M340.2,122.5c2.4-4.3,6.4-10.1,13.3-13.6c7.1-3.6,12.4-2.4,24.9-2.3c19.5,0.1,29.2,0.1,37.2-4.7
		c7.7-4.6,5-7.5,20-21c10.7-9.7,15.6-11.3,19-12c8.3-1.6,15.5,1.1,19.4,3"/>
	<path class="st2" d="M368.1,31.4c-2.5,3.7-8.3,11.3-18.6,16c-11.4,5.2-20.2-2.6-35.9,0.3c-13.3,2.5-17.7,5.7-18.3,7.3
		c-4.8,12.3-3.5,42.5-3,45.6"/>
	<path class="st3" d="M321.6,162.1c-0.7,1-2.7,3.6-6.3,5c-1,0.4-4,1.4-7.6,0.7c-7-1.5-9.9-8.6-10.1-9.2"/>
	<g>
		<g>
			<path class="st4" d="M467.1,413.8c2.7-1.3,5.7-1,8.4,0.1c1.5,0.6,3.3-0.7,3.7-2.1c0.5-1.7-0.6-3.1-2.1-3.7
				c-4.3-1.8-8.9-1.4-13,0.5C460.6,410.2,463.6,415.4,467.1,413.8L467.1,413.8z"/>
		</g>
	</g>
	<g>
		<g>
			<path class="st4" d="M471.1,411.4c1.6-0.9,3.1-2.1,4.3-3.5c1-1.2,1.3-3.1,0-4.2c-1.1-1-3.1-1.3-4.2,0c-0.5,0.6-1,1.1-1.6,1.6
				c-0.2,0.2-0.2,0.2,0,0c-0.1,0.1-0.3,0.2-0.4,0.3c-0.3,0.2-0.7,0.5-1.1,0.7c-1.4,0.8-1.9,2.8-1.1,4.1
				C467.9,411.7,469.6,412.2,471.1,411.4L471.1,411.4z"/>
		</g>
	</g>
	<g>
		<g>
			<path class="st4" d="M488.4,464.2c-5,4.9-12,11.2-13.6,18.3c-0.9,3.8,4.9,5.4,5.8,1.6c1.4-6,7.7-11.5,12-15.6
				C495.4,465.8,491.2,461.5,488.4,464.2L488.4,464.2z"/>
		</g>
	</g>
	<g>
		<g>
			<path class="st4" d="M398.3,454.4c-1.4-0.9-2.2-2.4-2.2-4c0-3.9-6-3.9-6,0c0,3.8,2,7.2,5.2,9.2
				C398.5,461.6,401.5,456.4,398.3,454.4L398.3,454.4z"/>
		</g>
	</g>
	<g>
		<g>
			<path class="st4" d="M556,384.5c0.2-0.1,0.3-0.2,0.5-0.3c-0.4,0.2,0,0,0.2-0.1c0.5-0.1-0.4,0.1,0,0c0.1,0,0.7,0.1,0.2,0
				c0.2,0,0.4,0.1,0.5,0.1c-0.3-0.1-0.1-0.1,0,0c0.4,0.3,0-0.1,0.2,0.1c0.3,0.4-0.3-0.6,0.1,0.2c1.9,3.3,7.1,0.3,5.2-3
				c-1.9-3.3-6.8-4.6-9.9-2.2c-1.3,1-2,2.6-1.1,4.1C552.7,384.7,554.7,385.5,556,384.5L556,384.5z"/>
		</g>
	</g>
	<g>
		<g>
			<path class="st4" d="M294.2,399.8c-1.8,4.8-0.6,9.7,0.8,14.4c1.1,3.7,6.9,2.1,5.8-1.6c-1.1-3.7-2.2-7.5-0.8-11.3
				C301.3,397.8,295.5,396.2,294.2,399.8L294.2,399.8z"/>
		</g>
	</g>
	<g>
		<g>
			<path class="st4" d="M576.7,291.2c-4.2,0.5-9,1.5-10.9,5.8c-0.6,1.5-0.4,3.2,1.1,4.1c1.3,0.7,3.5,0.4,4.1-1.1
				c1-2.3,3.5-2.5,5.7-2.8c1.6-0.2,3-1.2,3-3C579.7,292.8,578.4,291,576.7,291.2L576.7,291.2z"/>
		</g>
	</g>
	<g>
		<g>
			<path class="st4" d="M289.6,242.2c0.6,5.6,0.8,11.3,0.5,17c-0.2,3.9,5.8,3.9,6,0c0.3-5.7,0.1-11.3-0.5-17
				C295.2,238.4,289.2,238.4,289.6,242.2L289.6,242.2z"/>
		</g>
	</g>
	<g>
		<g>
			<path class="st4" d="M295.9,340.6c0.2-8,0.5-16,0.7-23.9c0.1-3.9-5.9-3.9-6,0c-0.2,8-0.5,16-0.7,23.9
				C289.8,344.5,295.8,344.5,295.9,340.6L295.9,340.6z"/>
		</g>
	</g>
	<g>
		<g>
			<path class="st4" d="M455.9,243.3c2.9,3.3,6.3,6.1,10.2,8.2c3.4,1.9,6.4-3.3,3-5.2c-3.4-1.9-6.4-4.3-9-7.3
				C457.6,236.1,453.3,240.4,455.9,243.3L455.9,243.3z"/>
		</g>
	</g>
	<g>
		<g>
			<path class="st4" d="M454.5,240.1c-1.7,2.2-4.1,3.6-6.8,4.2c-3.8,0.9-2.2,6.7,1.6,5.8c4.3-1,7.7-3.5,10.3-7
				c1-1.3,0.2-3.4-1.1-4.1C457.1,238.2,455.5,238.8,454.5,240.1L454.5,240.1z"/>
		</g>
	</g>
	<g>
		<g>
			<path class="st4" d="M421.1,253.4c-1.8-1.8-2.9-4.1-3.1-6.6c-0.3-3.8-6.3-3.9-6,0c0.3,4.1,1.9,7.8,4.8,10.8
				C419.6,260.4,423.8,256.2,421.1,253.4L421.1,253.4z"/>
		</g>
	</g>
	<g>
		<g>
			<path class="st4" d="M568.1,237.6c-1.9,1.2-3.8,2.4-5.7,3.6c-1.4,0.9-1.9,2.7-1.1,4.1c0.8,1.4,2.7,1.9,4.1,1.1
				c1.9-1.2,3.8-2.4,5.7-3.6c1.4-0.9,1.9-2.7,1.1-4.1C571.4,237.3,569.5,236.7,568.1,237.6L568.1,237.6z"/>
		</g>
	</g>
	<g>
		<g>
			<path class="st4" d="M581.6,295.5c-1.6-2.6-4.1-4.6-7.1-5.3c-1.6-0.4-3.3,0.5-3.7,2.1c-0.4,1.5,0.5,3.3,2.1,3.7
				c1.5,0.4,2.7,1.2,3.5,2.6c0.8,1.4,2.7,1.9,4.1,1.1C581.9,298.8,582.4,296.9,581.6,295.5L581.6,295.5z"/>
		</g>
	</g>
	<g>
		<g>
			<path class="st4" d="M314.6,174.4c3.9,0,3.9-6,0-6C310.7,168.4,310.7,174.4,314.6,174.4L314.6,174.4z"/>
		</g>
	</g>
	<g>
		<g>
			<path class="st4" d="M297.5,172.5c0.7-4.5,1-8.9,0.7-13.4c-0.2-3.8-6.2-3.9-6,0c0.2,4,0.1,7.9-0.5,11.8
				C291.1,174.7,296.9,176.3,297.5,172.5L297.5,172.5z"/>
		</g>
	</g>
	<g>
		<g>
			<path class="st4" d="M297.6,48.8c-5.8,1.6-2-24.2-1.1-26.7c1.3-3.6-4.5-5.2-5.8-1.6c-2.6,7.1-6.6,38.2,8.5,34.1
				C302.9,53.6,301.4,47.8,297.6,48.8L297.6,48.8z"/>
		</g>
	</g>
	<g>
		<g>
			<path class="st4" d="M299.2,89.3c-2.1,0.5-4.2-0.8-4.3-3.1c-0.2-3.8-6.2-3.9-6,0c0.4,6.2,5.9,10.4,11.9,8.9
				C304.5,94.2,302.9,88.4,299.2,89.3L299.2,89.3z"/>
		</g>
	</g>
	<g>
		<g>
			<path class="st4" d="M291.6,153.1c1.4,4.2,3.2,8.3,5.3,12.1c1.9,3.4,7.1,0.3,5.2-3c-1.9-3.4-3.5-7-4.7-10.7
				C296.2,147.9,290.4,149.5,291.6,153.1L291.6,153.1z"/>
		</g>
	</g>
	<g>
		<g>
			<path class="st4" d="M548.7,316.8c-2.9-0.3-4.6-3.8-5.9-6c-2-3.3-7.1-0.3-5.2,3c2.6,4.4,5.7,8.3,11.1,8.9c1.6,0.2,3-1.5,3-3
				C551.7,318,550.3,317,548.7,316.8L548.7,316.8z"/>
		</g>
	</g>
	<g>
		<g>
			<path class="st4" d="M497.3,462.8c-1.3-0.9-1.6-2.6-1.2-4c1.1-3.7-4.7-5.3-5.8-1.6c-1.3,4.1,0.5,8.4,3.9,10.7
				c1.3,0.9,3.3,0.3,4.1-1.1C499.3,465.4,498.7,463.7,497.3,462.8L497.3,462.8z"/>
		</g>
	</g>
	<g>
		<g>
			<path class="st4" d="M498,448.5c1-1.8,2-3,3.5-4.4c1.2-1.1,1.1-3.2,0-4.2c-1.2-1.2-3-1.1-4.2,0c-1.8,1.6-3.3,3.5-4.5,5.6
				c-0.8,1.4-0.4,3.3,1.1,4.1C495.3,450.4,497.2,449.9,498,448.5L498,448.5z"/>
		</g>
	</g>
	<g>
		<g>
			<path class="st4" d="M286.3,156.4c0.1,4.9,0.3,9.8,0.4,14.6c0.2,7.7,12.2,7.7,12,0c-0.1-4.9-0.3-9.8-0.4-14.6
				C298.1,148.7,286.1,148.7,286.3,156.4L286.3,156.4z"/>
		</g>
	</g>
	<g>
		<g>
			<path class="st4" d="M290.4,144.5c1.9,7.3,4.8,14.3,8.6,20.8c1.9,3.3,7.1,0.3,5.2-3c-3.6-6.1-6.2-12.5-8-19.4
				C295.2,139.2,289.4,140.8,290.4,144.5L290.4,144.5z"/>
		</g>
	</g>
	<g>
		<g>
			<path class="st4" d="M290.4,87.7c4,3.8,9.2,5.2,14.5,4.2c3.8-0.7,2.2-6.5-1.6-5.8c-3.2,0.6-6.4-0.5-8.7-2.7
				C291.8,80.8,287.6,85,290.4,87.7L290.4,87.7z"/>
		</g>
	</g>
	<g>
		<g>
			<path class="st4" d="M282,92.3c6.8-1.4,14.6-6.4,12.2-14.5c-1.1-3.7-6.9-2.1-5.8,1.6c1.4,4.6-4.7,6.4-8,7.1
				C276.6,87.3,278.2,93.1,282,92.3L282,92.3z"/>
		</g>
	</g>
	<g>
		<g>
			<path class="st4" d="M282.3,250.7c3.3-0.6,6.5-1.8,9.5-3.4c3.4-1.8,0.4-7-3-5.2c-2.5,1.4-5.2,2.3-8,2.8c-1.6,0.3-2.5,2.2-2.1,3.7
				C279.1,250.2,280.7,251,282.3,250.7L282.3,250.7z"/>
		</g>
	</g>
	<g>
		<g>
			<path class="st4" d="M278.9,248.6c3.3,0.2,6.7,0.5,10,0.7c3.9,0.3,3.8-5.7,0-6c-3.3-0.2-6.7-0.5-10-0.7
				C275,242.3,275,248.3,278.9,248.6L278.9,248.6z"/>
		</g>
	</g>
	<g>
		<g>
			<path class="st4" d="M305,242.3c-2.3,1.2-5.5,0.6-8,0.5c-3-0.1-6.1-0.2-9.1-0.3c-3.9-0.1-3.9,5.9,0,6c4,0.1,7.9,0.3,11.9,0.4
				c2.9,0.1,5.6,0,8.2-1.4C311.4,245.6,308.4,240.4,305,242.3L305,242.3z"/>
		</g>
	</g>
	<path class="st2" d="M21.1,200.9c3.4,4.7,6.8,7.8,9,9.7c13.6,11.3,29.5,12.7,36.9,13.3c5.2,0.4,9.4,0.2,12,0"/>
	<path class="st2" d="M171.9,258.5c1.7,3.5,4.5,8.4,9.2,13c11.1,10.9,24.9,13.1,32.3,14.3c6.2,1,14,0.9,29.6,0.7
		c5.3-0.1,9.7-0.2,12.6-0.3"/>
	<path class="st2" d="M286.9,253.9c-3.6-4.2-9.4-9.8-18-13.7c-13.3-6.1-25.5-4.7-30.6-4c-7.2,0.9-12.9,3-16.6,4.7"/>
	<path class="st2" d="M86.3,337c3.3-0.5,8.7-0.8,14.6,1c10.3,3.1,12.5,9.6,24.6,18.3c7.7,5.5,15.6,11.2,25.9,11.6
		c8.1,0.4,9.9-2.8,24.6-7c4.6-1.3,17.3-4.8,30.6-5c8-0.1,22.3,0,36.9,8.3c5.1,2.9,8.9,6.1,11.3,8.3"/>
	<path class="st2" d="M291.8,387.2c-1.5,4.2-4.4,10.6-10.6,15.6c-10.7,8.7-24.3,7.8-33.6,7c-16.9-1.5-16.4-6.8-35.9-10.3
		c-16.8-3-34.4-2.2-38.9-1.9c-11.4,0.6-17,2-25.3-0.7c-8.7-2.8-14.8-8.3-18.6-12.6"/>
	<path class="st2" d="M21,365.8c3.2,7.5,7.1,12.9,10,16.4c4.1,4.9,12.7,15.3,27.4,18.9c6,1.5,11.2,1.3,14.6,1"/>
	<path class="st2" d="M160.5,447.7c-10.1,1.2-17.8,0-22.9-1.3c-10.4-2.6-14.4-6.7-26.9-9c-8.3-1.5-13.6-2.4-17.4,0.8
		c-5.6,4.7-4.6,15.5-1.6,22.2c2.2,5,5,4.5,9.3,11c1.2,1.8,7.7,11.6,5,15.3c-2.3,3.1-10.7,1.7-20.6-3"/>
	<path class="st2" d="M73.6,460.4c1.6,1.4,4.6,3.7,9,5c5.5,1.6,10.1,0.8,12.3,0.3"/>
	<path class="st2" d="M192.7,175.7c-7.4-1.5-19.7-2.8-33.6,1.3c-5.8,1.7-14.3,4.3-22.3,12c-4.8,4.6-7.6,9.3-9.3,12.6"/>
	<path class="st2" d="M120.6,191.3c0.8,0.6,2.3,1.6,4.3,2c4.1,0.8,7.4-1.5,8-2"/>
	<path class="st2" d="M243.9,122.5c-2.4-4.3-6.4-10.1-13.3-13.6c-7.1-3.6-12.4-2.4-24.9-2.3c-19.5,0.1-29.2,0.1-37.2-4.7
		c-7.7-4.6-5-7.5-20-21c-10.7-9.7-15.6-11.3-19-12c-8.3-1.6-15.5,1.1-19.4,3"/>
	<path class="st2" d="M216,31.4c2.5,3.7,8.3,11.3,18.6,16c11.4,5.2,20.2-2.6,35.9,0.3c13.3,2.5,18,5.6,18.3,7.3
		c1.9,11.8,3.5,45.3,3,48.3"/>
	<path class="st3" d="M262.6,162.1c0.7,1,2.7,3.6,6.3,5c1,0.4,4,1.4,7.6,0.7c7-1.5,9.9-8.6,10.1-9.2"/>
	<g>
		<g>
			<path class="st4" d="M120.1,408.6c-4.1-1.9-8.7-2.3-13-0.5c-1.5,0.6-2.5,2-2.1,3.7c0.4,1.4,2.2,2.7,3.7,2.1
				c2.7-1.1,5.7-1.3,8.4-0.1C120.5,415.4,123.6,410.2,120.1,408.6L120.1,408.6z"/>
		</g>
	</g>
	<g>
		<g>
			<path class="st4" d="M116.1,406.2c-0.3-0.2-0.6-0.4-1-0.6c-0.1-0.1-0.3-0.2-0.4-0.3c-0.4-0.3,0.5,0.4-0.1-0.1
				c-0.6-0.5-1.1-1-1.6-1.6c-1-1.2-3.2-1.1-4.2,0c-1.2,1.3-1.1,3,0,4.2c1.2,1.4,2.7,2.6,4.3,3.5c1.4,0.8,3.3,0.4,4.1-1.1
				C117.9,408.9,117.5,407,116.1,406.2L116.1,406.2z"/>
		</g>
	</g>
	<g>
		<g>
			<path class="st4" d="M91.5,468.4c4.3,4.1,10.7,9.6,12,15.6c0.9,3.8,6.6,2.2,5.8-1.6c-1.6-7.1-8.5-13.4-13.6-18.3
				C93,461.5,88.7,465.8,91.5,468.4L91.5,468.4z"/>
		</g>
	</g>
	<g>
		<g>
			<path class="st4" d="M188.9,459.6c3.2-2,5.2-5.4,5.2-9.2c0-3.9-6-3.9-6,0c0,1.7-0.8,3.1-2.2,4
				C182.6,456.4,185.6,461.6,188.9,459.6L188.9,459.6z"/>
		</g>
	</g>
	<g>
		<g>
			<path class="st4" d="M31.2,378.1c-3.2-2.4-8-1.1-9.9,2.2c-1.9,3.3,3.2,6.4,5.2,3c0.1-0.2,0.1-0.3,0-0.1c0.2-0.2,0.3-0.3,0.1-0.1
				c-0.1,0.1-0.1,0.1,0,0c0,0,0.5-0.3,0.3-0.2c-0.3,0.1,0.4-0.1,0.4-0.1c-0.6,0.1,0.7,0.1,0.1,0c0.1,0,0.7,0.3,0.4,0.1
				c-0.3-0.2,0.4,0.3,0.4,0.3c1.3,1,3.4,0.2,4.1-1.1C33.1,380.7,32.5,379.1,31.2,378.1L31.2,378.1z"/>
		</g>
	</g>
	<g>
		<g>
			<path class="st4" d="M283.2,401.4c1.4,3.8,0.3,7.5-0.8,11.3c-1.1,3.7,4.7,5.3,5.8,1.6c1.4-4.7,2.5-9.7,0.8-14.4
				C287.7,396.2,281.9,397.8,283.2,401.4L283.2,401.4z"/>
		</g>
	</g>
	<g>
		<g>
			<path class="st4" d="M7.4,297.2c2.2,0.3,4.7,0.5,5.7,2.8c0.7,1.5,2.8,1.8,4.1,1.1c1.5-0.9,1.7-2.6,1.1-4.1
				c-1.9-4.3-6.7-5.3-10.9-5.8c-1.6-0.2-3,1.5-3,3C4.4,296,5.8,297,7.4,297.2L7.4,297.2z"/>
		</g>
	</g>
	<g>
		<g>
			<path class="st4" d="M287.5,242.2c-0.6,5.6-0.8,11.3-0.5,17c0.2,3.8,6.2,3.9,6,0c-0.3-5.7-0.1-11.3,0.5-17
				C294,238.4,288,238.4,287.5,242.2L287.5,242.2z"/>
		</g>
	</g>
	<g>
		<g>
			<path class="st4" d="M293.2,340.6c-0.2-8-0.5-16-0.7-23.9c-0.1-3.9-6.1-3.9-6,0c0.2,8,0.5,16,0.7,23.9
				C287.4,344.5,293.4,344.5,293.2,340.6L293.2,340.6z"/>
		</g>
	</g>
	<g>
		<g>
			<path class="st4" d="M124,239c-2.6,3-5.5,5.4-9,7.3c-3.4,1.9-0.4,7.1,3,5.2c3.8-2.1,7.3-4.9,10.2-8.2
				C130.8,240.4,126.6,236.1,124,239L124,239z"/>
		</g>
	</g>
	<g>
		<g>
			<path class="st4" d="M124.4,243.2c2.6,3.5,6.1,6,10.3,7c3.8,0.9,5.4-4.9,1.6-5.8c-2.7-0.6-5.1-2-6.8-4.2c-1-1.3-2.6-2-4.1-1.1
				C124.2,239.8,123.5,241.9,124.4,243.2L124.4,243.2z"/>
		</g>
	</g>
	<g>
		<g>
			<path class="st4" d="M167.3,257.7c2.9-3,4.5-6.7,4.8-10.8c0.3-3.8-5.7-3.8-6,0c-0.2,2.5-1.3,4.8-3.1,6.6
				C160.3,256.2,164.6,260.4,167.3,257.7L167.3,257.7z"/>
		</g>
	</g>
	<g>
		<g>
			<path class="st4" d="M12,241.8c1.9,1.2,3.8,2.4,5.7,3.6c1.4,0.9,3.3,0.3,4.1-1.1c0.8-1.4,0.3-3.2-1.1-4.1
				c-1.9-1.2-3.8-2.4-5.7-3.6c-1.4-0.9-3.3-0.3-4.1,1.1C10.1,239.1,10.6,240.9,12,241.8L12,241.8z"/>
		</g>
	</g>
	<g>
		<g>
			<path class="st4" d="M8.8,298.6c0.8-1.3,2-2.2,3.5-2.6c1.6-0.4,2.5-2.2,2.1-3.7c-0.4-1.6-2.1-2.5-3.7-2.1c-3,0.7-5.5,2.7-7.1,5.3
				c-0.8,1.4-0.3,3.3,1.1,4.1C6.1,300.5,7.9,300,8.8,298.6L8.8,298.6z"/>
		</g>
	</g>
	<g>
		<g>
			<path class="st4" d="M268.5,174.4c3.9,0,3.9-6,0-6C264.7,168.4,264.7,174.4,268.5,174.4L268.5,174.4z"/>
		</g>
	</g>
	<g>
		<g>
			<path class="st4" d="M291.4,170.9c-0.6-3.9-0.8-7.9-0.5-11.8c0.2-3.9-5.8-3.8-6,0c-0.3,4.5,0,9,0.7,13.4
				C286.2,176.3,292,174.7,291.4,170.9L291.4,170.9z"/>
		</g>
	</g>
	<g>
		<g>
			<path class="st4" d="M283.9,54.6c5.9,1.6,9.5-3.5,10-8.8c0.7-6.9,1.6-16.6-0.7-23.3c-1.2-3.6-7-2.1-5.8,1.6
				c0.8,2.4,1.7,25.8-2,24.8C281.8,47.8,280.2,53.6,283.9,54.6L283.9,54.6z"/>
		</g>
	</g>
	<g>
		<g>
			<path class="st4" d="M282.4,95.1c6.1,1.5,11.6-2.7,11.9-8.9c0.2-3.9-5.8-3.8-6,0c-0.1,2.2-2.2,3.6-4.3,3.1
				C280.2,88.4,278.6,94.2,282.4,95.1L282.4,95.1z"/>
		</g>
	</g>
	<g>
		<g>
			<path class="st4" d="M285.8,151.6c-1.2,3.7-2.8,7.3-4.7,10.7c-1.9,3.4,3.3,6.4,5.2,3c2.2-3.9,3.9-7.9,5.3-12.1
				C292.7,149.5,287,147.9,285.8,151.6L285.8,151.6z"/>
		</g>
	</g>
	<g>
		<g>
			<path class="st4" d="M35.4,322.8c5.4-0.6,8.5-4.5,11.1-8.9c2-3.3-3.2-6.4-5.2-3c-1.3,2.2-3,5.6-5.9,6c-1.6,0.2-3,1.2-3,3
				C32.4,321.3,33.8,323,35.4,322.8L35.4,322.8z"/>
		</g>
	</g>
	<g>
		<g>
			<path class="st4" d="M89.9,468c3.5-2.4,5.2-6.6,3.9-10.7c-1.1-3.7-6.9-2.1-5.8,1.6c0.4,1.4,0.1,3.1-1.2,4
				c-1.3,0.9-1.9,2.6-1.1,4.1C86.5,468.2,88.5,468.9,89.9,468L89.9,468z"/>
		</g>
	</g>
	<g>
		<g>
			<path class="st4" d="M91.3,445.5c-1.1-2.1-2.7-4-4.5-5.6c-1.2-1.1-3-1.2-4.2,0c-1.1,1.1-1.2,3.2,0,4.2c1.6,1.4,2.6,2.6,3.5,4.4
				c0.8,1.4,2.7,1.9,4.1,1.1C91.7,448.8,92.1,446.9,91.3,445.5L91.3,445.5z"/>
		</g>
	</g>
</g>
</svg>
