<?xml version="1.0" encoding="utf-8"?>
<!-- Generator: Adobe Illustrator 23.0.1, SVG Export Plug-In . SVG Version: 6.00 Build 0)  -->
<svg version="1.1" xmlns="http://www.w3.org/2000/svg" xmlns:xlink="http://www.w3.org/1999/xlink" x="0px" y="0px"
	 viewBox="0 0 245.6 611.3" style="enable-background:new 0 0 245.6 611.3;" xml:space="preserve">
<style type="text/css">
	.st0{display:none;}
	.st1{display:inline;}
	.st2{fill:#4C4C4C;}
	.st3{fill:#EACA81;}
	.st4{fill:#626DD1;}
	.st5{fill:#7282DB;}
	.st6{fill:#FFFFFF;}
	.st7{display:inline;fill:#494234;}
	.st8{fill:#C170B6;}
	.st9{fill:#AA66A7;}
	.st10{display:inline;fill:#FFFFFF;}
	.st11{fill:#2D210E;}
	.st12{display:inline;fill:none;stroke:#494234;stroke-linecap:round;stroke-miterlimit:10;}
	.st13{display:inline;fill:#D19E78;}
	.st14{display:inline;fill:#EFAC7F;}
</style>
<g id="Layer_1" class="st0">
	<g class="st1">
		<path class="st2" d="M215.4,603.3c0.6,0.8,0.9,1.8,0.9,2.9v0C216.3,605.1,215.9,604.1,215.4,603.3z"/>
		<path class="st3" d="M158.4,601c0,0.1,0,0.2,0,0.3l-1.7,10L158.4,601L158.4,601z"/>
		<path class="st3" d="M194,548.2c2.4-21,3.7-41.8,4.6-62.6c0.1-2.2,0.2-4.4,0.3-6.7h-38.3c0.1,2.3,0.3,4.6,0.4,6.8
			c1.1,20.2,1.8,40.3,1.4,60.2c-0.3,14.9-1.2,33.4-3.3,49.8h26.7C189.6,580,192.1,564,194,548.2z"/>
		<path class="st4" d="M200.3,431.5l0.1-3.8l0-1l0-1.1l0-2.2c0.1-23-3.8-44.5-5-63l-49,5.8c1.8,11.1,4.1,21.3,6.1,30.9
			c2,9.7,3.6,18.9,4.4,27.9l0.1,1.7l0.1,0.8l0.1,1l0.3,3.8l0.5,7.7l0.9,12.8h40.8l0.4-13.6L200.3,431.5z"/>
		<path class="st5" d="M199.7,454.6l0-1.8h-40.8l0.2,2.5c0.5,7.9,1,15.8,1.5,23.6h38.3C199.1,470.8,199.4,462.7,199.7,454.6z"/>
		<path class="st6" d="M184.4,601c0.5-1.8,0.9-3.5,1.3-5.3h-26.7c-0.2,1.8-0.5,3.6-0.7,5.3h0H184.4z"/>
		<path class="st2" d="M211.1,601h-21.8h-4.9h-26l-1.7,10.3h54.5c2.8,0,5.1-2.3,5.1-5.1c0-1.1-0.3-2.1-0.9-2.9
			C214.5,601.9,212.9,601,211.1,601z"/>
	</g>
	<g class="st1">
		<path class="st2" d="M78.1,606.2L78.1,606.2c0-1.1,0.3-2.1,0.9-2.9C78.4,604.1,78.1,605.1,78.1,606.2z"/>
		<path class="st3" d="M83.2,601c-1.1,0-2.1,0.3-2.9,0.9C81.2,601.4,82.2,601,83.2,601L83.2,601z"/>
		<path class="st3" d="M93.9,485.9c1.2,20.8,2.9,41.7,5.7,62.6c1.5,10.5,3.1,20.9,5.2,31.3c1.1,5.3,2.3,10.6,3.6,15.9h26.9
			c-0.8-7.3-1.5-14.8-2.1-20.3c-1-9.8-1.6-19.7-2.1-29.7c-0.7-19.9-0.5-40,0.3-60.2c0.1-2.2,0.2-4.4,0.3-6.6H93.5
			C93.6,481.3,93.7,483.6,93.9,485.9z"/>
		<path class="st3" d="M83.2,611.3L83.2,611.3c-1.1,0-2.1-0.3-2.9-0.9C81.2,611,82.2,611.3,83.2,611.3z"/>
		<path class="st3" d="M137.6,611.3l-1.6-10.2c0,0,0,0,0,0h0L137.6,611.3z"/>
		<path class="st4" d="M133.9,440l0.5-7.6l0.3-3.8l0.1-1l0.1-0.9l0.1-1.7c0.8-9,2.4-18.2,4.4-27.9c1.9-9.7,4.3-19.8,6.1-31l-49-5.8
			c-1.2,18.5-5.1,40-5,63l0,2.2l0,1.1l0,1l0.1,3.9l0.2,7.7l0.5,13.5h40.8L133.9,440z"/>
		<path class="st5" d="M133.1,452.8H92.4l0.1,2c0.3,8,0.6,16.1,1.1,24.1h38.3c0.3-7.9,0.8-15.8,1.2-23.7L133.1,452.8z"/>
		<path class="st6" d="M109.8,601H136h0c-0.2-1.7-0.4-3.5-0.6-5.3h-26.9C108.9,597.5,109.3,599.3,109.8,601z"/>
		<path class="st2" d="M109.8,601h-2.9H83.2c-1.1,0-2.1,0.3-2.9,0.9c-0.5,0.4-1,0.8-1.4,1.4c-0.6,0.8-0.9,1.8-0.9,2.9
			c0,1.8,0.9,3.3,2.3,4.3c0.8,0.6,1.8,0.9,2.9,0.9h54.4L136,601H109.8z"/>
	</g>
</g>
<g id="Layer_10" class="st0">
	<path class="st7" d="M204.7,28.2c15,14.6,19.1,33.1,20.9,41.3c6.8,30.8-3.8,56-8,64.7c3.4,2.3,8.4,6.3,11.9,12.9
		c8.9,16.8-0.2,35.2-1.5,37.8c-11.5,23.4-54.2,25.9-69.2,26.9c-8.1,0.5-15.8,0.5-23.1,0c-15-0.9-57.4-3.6-69.2-26.9
		c-0.2-0.4-0.3-0.7-0.5-1c-1.4-3-9.4-20.8-1-36.9c1.5-2.9,4.9-8.3,11.9-12.9c-4.2-8.8-14.8-33.9-8-64.7C70.9,61.3,75,42.8,90,28.2
		C119.2-0.3,175.5-0.3,204.7,28.2z"/>
</g>
<g id="Layer_9" class="st0">
	<g class="st1">
		<path class="st3" d="M71.7,254.2L70,260l-1.9,6c-1.3,4-2.6,7.9-3.9,11.8c-1.3,3.9-2.7,7.6-4.2,11.3c-1.5,3.6-3.1,7.1-4.9,10.4
			c-3.6,6.5-7.8,12-13.4,16.5c-5.3,4.4-11.5,7.9-18.2,10.3c-3.8-2.2-8.5-2.9-12.9-1.4c-8.1,2.8-12.4,11.6-9.7,19.7
			c2.8,8.1,11.6,12.4,19.7,9.7c4.5-1.5,7.8-4.9,9.4-9c8.8-2.9,17.2-7.2,24.6-13c3.9-3,7.6-6.4,10.7-10.2c3.2-3.8,6-7.8,8.4-11.9
			c2.4-4.1,4.5-8.2,6.3-12.4c1.8-4.1,3.5-8.2,5.1-12.3c1.6-4.1,3-8.1,4.5-12.1l2.1-6l2.1-6.3c0.6-1.8,1.2-3.6,1.7-5.4l-22.4-6.5
			C72.7,250.8,72.2,252.5,71.7,254.2z"/>
		<path class="st8" d="M100.8,235.5c1.9-8.5,3.3-17.1,5.4-23.7c1-3.3,2.2-5.8,3.8-8c0.3-0.6,0.8-1.1,1.3-1.6l0.7-0.8l0.8-0.8
			c0.6-0.5,1-1,1.6-1.5l0.9-0.8l0.9-0.7c5-3.8,11.1-6.3,17.9-7.7l-5.9-25.7c-9.7,2.3-19.5,6.6-27.8,13.3c-2.1,1.6-4,3.5-5.9,5.5
			c-0.5,0.5-1,1-1.4,1.5l-1.3,1.7c-0.9,1.1-1.8,2.2-2.5,3.5l-1.1,1.8c-0.4,0.6-0.8,1.2-1.1,1.9c-0.6,1.3-1.3,2.5-1.8,3.8l-1.5,3.8
			c-0.4,1.2-0.8,2.5-1.1,3.7c-1.3,4.8-2.2,9.3-2.9,13.6c-0.7,4.2-1.4,8.3-2.2,12.3c-0.5,2.6-1,5.3-1.6,7.9l22.8,6.7
			C99.3,242,100.1,238.7,100.8,235.5z"/>
		<path class="st9" d="M75.7,238.5c-0.1,0.6-0.3,1.2-0.4,1.8c-0.7,3-1.4,5.9-2.2,8.8l22.4,6.5c0.9-2.9,1.7-5.8,2.5-8.7
			c0.2-0.6,0.3-1.2,0.5-1.8L75.7,238.5z"/>
	</g>
</g>
<g id="Layer_8">
	<g>
		<path class="st3" d="M237.6,364.3c-0.1-2.3-0.2-4.6-0.3-6.8c-0.3-5.5-0.6-11.1-1-16.6c-0.3-5.5-0.8-11.1-1.2-16.6
			c-0.4-5.5-0.9-11-1.5-16.6l0.1,0.8c0-0.5-0.1-1-0.1-1.5l-0.1-0.6l-0.1-1.2l-0.3-2.4l-0.6-4.7c-0.4-3.1-0.9-6.3-1.4-9.4
			c-1-6.2-2.1-12.4-3.3-18.6c-1.6-7.9-3.3-15.8-5.2-23.7l-22.3,8.9c1.8,6.5,3.5,13.1,5.1,19.7c1.5,5.9,2.8,11.8,4.1,17.7l1.8,8.9
			l0.9,4.4l0.4,2.2l0.2,1.1l0.1,0.5c0-0.1,0-0.2,0-0.3l0.1,0.8l5.3,32.5l2.6,16.3l1.1,6.4c-3.6,2.7-6,7-6,11.8
			c0,8.1,6.6,14.7,14.7,14.7s14.7-6.6,14.7-14.7C245.6,371.7,242.4,366.8,237.6,364.3z"/>
		<path class="st9" d="M220.4,237.2l-22.5,9c0.9,3.1,1.7,6.1,2.6,9.2l22.3-8.9C222,243.4,221.2,240.3,220.4,237.2z"/>
		<path class="st8" d="M214.1,215.1l-1.4-4.5l-1.5-4.5l-1.5-4.5l-0.8-2.3c-0.3-0.9-0.7-1.8-1-2.7c-1.5-3.7-3.4-7.3-5.8-10.6
			c-2.4-3.3-5.3-6.4-8.5-9c-6.4-5.3-14-8.7-21.5-10.4l-5.8,23.4c4.5,1.3,8.4,3.2,11.5,5.9c3.1,2.7,5.5,6,7.2,10.2
			c0.2,0.5,0.4,1.1,0.6,1.7l0.7,2.1l1.5,4.3l1.5,4.3l1.4,4.3c0.9,2.9,1.9,5.7,2.8,8.6c0.9,2.9,1.8,5.8,2.7,8.7
			c0.6,2.1,1.2,4.2,1.8,6.2l22.5-9c-0.3-1.3-0.7-2.6-1-3.9C217.7,227.2,216,221.1,214.1,215.1z"/>
	</g>
</g>
<g id="Layer_6" class="st0">
	<g class="st1">
		<path class="st3" d="M167.9,165.2c-2-0.4-4-0.6-6.1-0.6h-0.6v-22.2h3.6c26,0,47.3-21.3,47.3-47.3V63.5c0-26-21.3-47.3-47.3-47.3
			h-31.6c-26,0-47.3,21.3-47.3,47.3v31.6c0,25.1,19.8,45.8,44.6,47.2v22.2H130c-2.3,0-4.5,0.2-6.7,0.7l22.3,22.3L167.9,165.2z"/>
		<path class="st8" d="M194.7,197.5c0-12.3-6.8-23-16.9-28.7L146,200.5l0,0l-0.5,0.5l-32-32c-9.8,5.7-16.4,16.3-16.4,28.4
			l-0.5,142.1h98.8L194.7,197.5z"/>
		<path class="st8" d="M145.5,187.6l22.5-22.5c0,0-0.1,0-0.1,0l-22.4,22.4l-22.3-22.3c0,0-0.1,0-0.1,0L145.5,187.6z"/>
		<polygon class="st9" points="195.4,339.6 96.6,339.6 96.5,349.1 195.4,349.1 		"/>
		<path class="st4" d="M130,404l12.5-5.3c2.2-0.9,4.8-0.9,7,0l12.3,5.2c17.8,0,33.2-25.9,33.7-44H96.5C97,378.1,112.2,404,130,404z"
			/>
		<path class="st5" d="M133,349.3H96.5l0,10c0,0.3,0,0.5,0,0.8h98.9c0-0.3,0-0.5,0-0.8l0-10H158H133z"/>
		<polygon class="st5" points="96.5,349.1 96.5,349.3 133,349.3 158,349.3 195.4,349.3 195.4,349.1 		"/>
		<path class="st9" d="M146,200.5L146,200.5l31.8-31.7c-3-1.7-6.3-2.9-9.8-3.6l-22.5,22.5l-22.3-22.3c-3.4,0.7-6.7,2-9.7,3.7l32,32
			L146,200.5z"/>
	</g>
</g>
<g id="Layer_5" class="st0">
	<ellipse class="st10" cx="173.8" cy="81.9" rx="10" ry="13.7"/>
	<g class="st1">
		<path class="st11" d="M174.5,68.3c-0.2,0-0.5,0-0.7,0c-5.5,0-10,6.1-10,13.7s4.5,13.7,10,13.7c0.2,0,0.5,0,0.7,0
			c2.9-3.3,4.7-8.2,4.7-13.6S177.4,71.5,174.5,68.3z"/>
	</g>
	<ellipse class="st10" cx="116.8" cy="81.9" rx="10" ry="13.7"/>
	<g class="st1">
		<path class="st11" d="M117.5,68.3c-0.2,0-0.5,0-0.7,0c-5.5,0-10,6.1-10,13.7s4.5,13.7,10,13.7c0.2,0,0.5,0,0.7,0
			c2.9-3.3,4.7-8.2,4.7-13.6S120.4,71.5,117.5,68.3z"/>
	</g>
</g>
<g id="Layer_4" class="st0">
	<path class="st12" d="M138.1,126.5c1.9,0.4,14.2,3.3,23.5-1.8c1.4-0.8,3.1-1.9,4.6-3.6"/>
</g>
<g id="Layer_3" class="st0">
	<path class="st12" d="M107.3,68c1.8-3.4,5.4-5.5,9.2-5.5c3.9,0,7.5,2.2,9.2,5.7"/>
	<path class="st12" d="M165.1,68c1.8-3.4,5.4-5.5,9.2-5.5c3.9,0,7.5,2.2,9.2,5.7"/>
</g>
<g id="Layer_2" class="st0">
	<ellipse class="st13" cx="145.9" cy="104.9" rx="9.3" ry="6.6"/>
	<ellipse class="st14" cx="181.8" cy="108.9" rx="10.4" ry="4.9"/>
	<ellipse class="st14" cx="111.2" cy="108.9" rx="10.4" ry="4.9"/>
</g>
<g id="Layer_7" class="st0">
	<path class="st7" d="M216.5,61.2C204.2,50,186,37.1,168.2,41.3c-9.6,2.2-10.7,7.5-23.4,12.9c-20,8.7-49.6,9.6-58.7-4.5
		c-4.7-7.2-3.5-17.6,0-24.9C97.4,1.4,142.1-7.7,174.2,7.4C204.7,21.9,214.5,54.1,216.5,61.2z"/>
</g>
</svg>
