<?xml version="1.0" encoding="utf-8"?>
<!-- Generator: Adobe Illustrator 23.0.1, SVG Export Plug-In . SVG Version: 6.00 Build 0)  -->
<svg version="1.1" xmlns="http://www.w3.org/2000/svg" xmlns:xlink="http://www.w3.org/1999/xlink" x="0px" y="0px"
	 viewBox="0 0 153.3 534.8" style="enable-background:new 0 0 153.3 534.8;" xml:space="preserve">
<style type="text/css">
	.st0{display:none;}
	.st1{display:inline;}
	.st2{fill:#4C4C4C;}
	.st3{fill:#EACA81;}
	.st4{fill:#626DD1;}
	.st5{fill:#7282DB;}
	.st6{fill:#FFFFFF;}
	.st7{display:inline;fill:#494234;}
	.st8{fill:#C170B6;}
	.st9{fill:#AA66A7;}
	.st10{fill:#E2BF81;}
	.st11{fill:#C681C0;}
	.st12{display:inline;fill:#EACA81;}
	.st13{fill:#494234;}
	.st14{display:inline;fill:#D6BF61;}
	.st15{display:inline;fill:#D19E78;}
</style>
<g id="Layer_1" class="st0">
	<g class="st1">
		<polygon class="st2" points="69.1,534.8 69.1,534.8 67.7,525.7 67.7,525.7 		"/>
		<path class="st2" d="M16.2,529.4c0.1-0.6,0.4-1.1,0.7-1.6C16.6,528.2,16.3,528.8,16.2,529.4z"/>
		<path class="st3" d="M16.5,532.1c0.7,1.6,2.3,2.8,4.2,2.8h48.4v0H20.7C18.8,534.8,17.2,533.7,16.5,532.1z"/>
		<path class="st3" d="M30.2,423.2c1,18.5,2.6,37.1,5.1,55.7c1.3,9.3,2.8,18.6,4.7,27.9c1,4.7,2.1,9.5,3.2,14.2h24
			c-0.7-6.5-1.4-13.2-1.9-18.1c-0.9-8.7-1.5-17.6-1.8-26.4c-0.6-17.8-0.4-35.6,0.3-53.6c0.1-2,0.2-3.9,0.2-5.9H29.8
			C29.9,419,30.1,421.1,30.2,423.2z"/>
		<path class="st3" d="M67.7,525.7C67.7,525.7,67.7,525.7,67.7,525.7L67.7,525.7L67.7,525.7z"/>
		<path class="st4" d="M65.9,382.3l0.5-6.8l0.2-3.4l0.1-0.8l0.1-0.8l0.1-1.5c0.7-8,2.2-16.2,3.9-24.8c1.7-8.6,3.8-17.7,5.4-27.6
			l-43.6-5.2c-1.1,16.5-4.6,35.6-4.4,56.1l0,1.9l0,1l0,0.9l0.1,3.5l0.2,6.9l0.4,12h36.3L65.9,382.3z"/>
		<path class="st5" d="M65.1,393.7H28.8l0.1,1.8c0.3,7.2,0.6,14.3,0.9,21.5h34.1c0.3-7,0.7-14.1,1.1-21.1L65.1,393.7z"/>
		<path class="st6" d="M44.4,525.7h23.3h0c-0.2-1.5-0.4-3.1-0.6-4.7h-24C43.5,522.6,43.9,524.1,44.4,525.7z"/>
		<path class="st2" d="M44.4,525.7h-2.6H20.7c-1.6,0-3,0.8-3.8,2c-0.3,0.5-0.6,1-0.7,1.6c-0.1,0.3-0.1,0.6-0.1,0.9
			c0,0.6,0.1,1.2,0.4,1.8c0.7,1.6,2.3,2.8,4.2,2.8h48.4l-1.4-9.1v0l0,0H44.4z"/>
	</g>
</g>
<g id="Layer_12" class="st0">
	<g class="st1">
		<path class="st2" d="M138.4,527.7c0.3,0.5,0.6,1,0.7,1.6C139,528.8,138.7,528.2,138.4,527.7z"/>
		<polygon class="st2" points="86.1,534.8 86.1,534.8 87,529.3 		"/>
		<path class="st3" d="M134.6,534.8H86.1v0L134.6,534.8c1.9,0,3.5-1.2,4.2-2.8C138.1,533.7,136.5,534.8,134.6,534.8z"/>
		<path class="st3" d="M87.6,525.7c0,0.1,0,0.2,0,0.3l-0.6,3.3L87.6,525.7L87.6,525.7z"/>
		<path class="st3" d="M119.3,478.6c2.2-18.7,3.3-37.3,4.1-55.7c0.1-2,0.2-4,0.2-5.9H89.6c0.1,2,0.2,4.1,0.3,6.1
			c0.9,18,1.6,35.9,1.2,53.6c-0.3,13.3-1.1,29.8-2.9,44.3H112C115.4,506.9,117.7,492.7,119.3,478.6z"/>
		<path class="st3" d="M135.5,525.8c0.6,0.1,1.1,0.4,1.6,0.7C136.7,526.2,136.1,525.9,135.5,525.8z"/>
		<path class="st4" d="M125,374.7l0.1-3.4l0-0.9l0-1l0-1.9c0.1-20.5-3.4-39.6-4.4-56.1L77,316.6c1.6,9.9,3.7,18.9,5.4,27.6
			c1.7,8.6,3.2,16.8,3.9,24.8l0.1,1.5l0.1,0.8l0.1,0.9l0.2,3.4l0.5,6.8l0.8,11.4h36.3l0.3-12.1L125,374.7z"/>
		<path class="st5" d="M124.4,395.3l0-1.6H88.1l0.2,2.3c0.5,7,0.9,14,1.3,21h34.1C124,409.7,124.2,402.5,124.4,395.3z"/>
		<path class="st6" d="M110.8,525.7c0.4-1.6,0.8-3.1,1.2-4.7H88.3c-0.2,1.6-0.4,3.2-0.6,4.7h0H110.8z"/>
		<path class="st2" d="M139.1,529.4c-0.1-0.6-0.4-1.1-0.7-1.6s-0.7-0.9-1.2-1.2s-1-0.6-1.6-0.7c-0.3-0.1-0.6-0.1-0.9-0.1h-19.4h-4.4
			H87.6l-0.6,3.6l-0.9,5.6h48.5c1.9,0,3.5-1.2,4.2-2.8c0.2-0.5,0.4-1.1,0.4-1.8C139.2,530,139.2,529.6,139.1,529.4z"/>
	</g>
</g>
<g id="Layer_11" class="st0">
	<path class="st7" d="M127.7,21.6c13.4,13,17,29.5,18.6,36.8c6.1,27.4-3.4,49.8-7.1,57.6c3.1,2,7.5,5.7,10.6,11.5
		c7.9,15-0.2,31.4-1.3,33.7c-10.3,20.8-48.3,23.1-61.6,23.9c-7.2,0.5-14.1,0.4-20.6,0C53,184.3,15.1,182,4.7,161.2
		c-0.2-0.3-0.3-0.6-0.4-0.8c-1.2-2.7-8.4-18.6-0.9-32.8c1.4-2.6,4.4-7.4,10.6-11.5c-3.7-7.8-13.2-30.2-7.1-57.6
		c1.6-7.3,5.2-23.8,18.6-36.8C51.5-3.8,101.7-3.8,127.7,21.6z"/>
</g>
<g id="Layer_10" class="st0">
	<g class="st1">
		<path class="st3" d="M91.4,139.7c-0.2,0-0.5,0-0.7,0h-0.5h-2.6v-21.3H65.7v21.3h-2.8h-0.5c-0.2,0-0.3,0-0.5,0l14.8,14.8
			L91.4,139.7z"/>
		<path class="st8" d="M76.7,154.6l14.8-14.8c0,0-0.1,0-0.1,0L76.7,154.6l-14.7-14.9c0,0-0.1,0-0.1,0L76.7,154.6z"/>
		<path class="st8" d="M120,169c0-12.3-7.7-22.9-18.6-27.2L77.1,166l0,0l-0.5,0.5l-24.8-24.8C40.9,146,33.1,156.6,33.1,169
			l-0.4,120.9h87.9L120,169z"/>
		<polygon class="st9" points="120.6,289.9 32.7,289.9 32.6,298.4 120.7,298.4 		"/>
		<path class="st4" d="M32.6,313.1c0,16.1,13.7,39.8,29.8,39.8l11.1-4.7c2-0.8,4.3-0.8,6.3,0l10.9,4.7c16.1,0,30-23.7,30-39.8l0-5
			H32.6L32.6,313.1z"/>
		<path class="st9" d="M77.1,166L77.1,166l24.3-24.3c-3.1-1.2-6.4-1.9-9.9-2l-14.8,14.8l5.9,5.9L77.1,166z"/>
		<polygon class="st5" points="65.6,298.5 32.6,298.5 32.6,308.2 120.7,308.2 120.7,298.5 87.8,298.5 		"/>
		<polygon class="st5" points="32.6,298.4 32.6,298.5 65.6,298.5 87.8,298.5 120.7,298.5 120.7,298.4 		"/>
		<path class="st9" d="M77.1,166l-5.9-5.9l5.5-5.5l-14.9-14.9c-3.5,0.1-6.9,0.8-10,2l24.8,24.8L77.1,166z"/>
		
			<rect x="73" y="156.1" transform="matrix(0.7071 -0.7071 0.7071 0.7071 -90.8307 101.3117)" class="st9" width="7.8" height="8.4"/>
	</g>
</g>
<g id="Layer_8" class="st0">
	<g class="st1">
		<path class="st10" d="M128.7,254.4c-4.3,0-8.2,2.2-10.5,5.5c-0.3,0-0.7,0.1-1,0.1c-1.7,0.2-3.5,0.2-5.3,0.3
			c-3.5,0.1-7.1,0-10.7-0.3c-7.1-0.6-14.1-2-20.9-4.1c-6.7-2.1-13.1-5-19.1-8.7c-0.7-0.5-1.5-0.9-2.2-1.4l-1.1-0.7l-0.5-0.4
			l-0.4-0.3c-1.1-0.8-2.4-1.9-3.6-3c-2.4-2.2-4.6-4.7-6.6-7.4c-4-5.3-6.9-11.2-8.5-17.5c-0.6-2.3-1-4.6-1.3-7l-20.1-2.7
			c0.3,5.1,1.1,10.1,2.5,14.9c2.5,8.7,6.8,16.8,12.3,23.8c2.8,3.5,5.8,6.7,9.1,9.7c1.7,1.5,3.4,2.9,5.4,4.3l0.8,0.5l0.7,0.4l1.4,0.9
			c0.9,0.6,1.8,1.1,2.7,1.7c7.4,4.3,15.3,7.6,23.4,9.9c8.1,2.3,16.4,3.7,24.8,4.2c4.2,0.2,8.4,0.3,12.6,0c2.1-0.1,4.2-0.3,6.3-0.5
			c0.4,0,0.8-0.1,1.2-0.2c2.3,2,5.2,3.3,8.5,3.3c7,0,12.7-5.7,12.7-12.7C141.4,260.1,135.7,254.4,128.7,254.4z"/>
		<path class="st11" d="M37.3,197.5c0.9-6.3,3.2-12.5,6.5-18.3c1.6-2.9,3.5-5.7,5.6-8.3c1-1.3,2.1-2.6,3.3-3.8
			c0.6-0.6,1.1-1.2,1.7-1.8l0.8-0.8c0.3-0.2,0.6-0.5,0.7-0.7c0.1-0.1,0.2-0.2,0.3-0.3c4.4-3.9,4.7-10.7,0.8-15
			c-3.9-4.4-10.7-4.7-15-0.8l-0.2,0.2c-0.6,0.5-1,0.9-1.4,1.3l-1.2,1.2c-0.8,0.8-1.5,1.6-2.3,2.5c-1.5,1.7-2.9,3.4-4.2,5.1
			c-2.6,3.5-5,7.2-7.1,11.1c-4.2,7.8-7.2,16.5-8.3,25.5c0,0.4-0.1,0.8-0.1,1.2l19.9,2.7C37.2,198.3,37.2,197.9,37.3,197.5z"/>
		<path class="st9" d="M37.1,198.9l-19.9-2.7c-0.4,3.6-0.4,7.1-0.2,10.7l20.1,2.7C36.6,206,36.7,202.4,37.1,198.9z"/>
		<path class="st9" d="M37.1,198.7c0,0.1,0,0.1,0,0.2"/>
		<line class="st9" x1="62.8" y1="202.3" x2="62.8" y2="202.1"/>
		<path class="st9" d="M17.2,196c0,0.1,0,0.1,0,0.2l19.9,2.7c0-0.1,0-0.1,0-0.2L17.2,196z"/>
	</g>
</g>
<g id="Layer_9" class="st0">
	<g class="st1">
		<path class="st3" d="M115.8,210.1c-0.3,2.2-0.7,4.4-1.2,6.5c-1.6,6.2-4.6,12.2-8.5,17.5c-2,2.6-4.2,5.1-6.6,7.4
			c-1.2,1.1-2.5,2.2-3.6,3l-0.4,0.3l-0.5,0.4l-1.1,0.7c-0.7,0.5-1.5,0.9-2.2,1.4c-5.9,3.7-12.3,6.6-19.1,8.7
			c-6.7,2.1-13.8,3.5-20.9,4.1c-3.6,0.3-7.1,0.4-10.7,0.3c-1.6,0-3.3-0.1-4.9-0.3c-2.3-3.4-6.2-5.6-10.6-5.6
			c-7,0-12.7,5.7-12.7,12.7c0,7,5.7,12.7,12.7,12.7c3.2,0,6.1-1.2,8.4-3.1c0,0,0,0,0.1,0c2.1,0.3,4.2,0.4,6.3,0.5
			c4.2,0.2,8.4,0.2,12.6,0c8.3-0.5,16.7-1.8,24.8-4.2c8.1-2.3,16-5.6,23.4-9.9c0.9-0.5,1.9-1.1,2.7-1.7l1.4-0.9l0.7-0.4l0.8-0.5
			c2-1.4,3.7-2.8,5.4-4.3c3.4-3,6.4-6.2,9.1-9.7c5.5-7,9.8-15.1,12.3-23.8c1.4-4.7,2.2-9.6,2.5-14.5L115.8,210.1z"/>
		<path class="st11" d="M135.6,194.8c-1.1-9.1-4.1-17.7-8.3-25.5c-2.1-3.9-4.5-7.6-7.1-11.1c-1.3-1.8-2.7-3.5-4.2-5.1
			c-0.7-0.8-1.5-1.7-2.3-2.5l-1.2-1.2c-0.4-0.4-0.8-0.8-1.4-1.3l-0.2-0.2c-4.4-3.9-11.1-3.6-15,0.8c-3.9,4.4-3.6,11.1,0.8,15
			c0.1,0.1,0.2,0.2,0.3,0.3c0.1,0.1,0.5,0.4,0.7,0.7l0.8,0.8c0.6,0.6,1.1,1.2,1.7,1.8c1.1,1.2,2.2,2.5,3.3,3.8
			c2.1,2.6,4,5.4,5.6,8.3c3.3,5.8,5.6,12,6.5,18.3c0.1,0.5,0.1,1.1,0.2,1.6l19.9-2.7C135.7,195.9,135.6,195.4,135.6,194.8z"/>
		<path class="st9" d="M135.8,196.7l-19.9,2.7c0.4,3.6,0.4,7.2-0.1,10.7l20.2-2.7C136.2,203.8,136.1,200.2,135.8,196.7z"/>
		<path class="st9" d="M115.8,199.1c0,0.1,0,0.1,0,0.2l19.9-2.7c0-0.1,0-0.1,0-0.2L115.8,199.1z"/>
	</g>
</g>
<g id="Layer_7" class="st0">
	<path class="st12" d="M60.2,126.6c-22.1-1.2-39.8-19.7-39.8-42V56.4c0-23.2,19-42.1,42.1-42.1h28.1c23.2,0,42.1,19,42.1,42.1v28.1
		c0,23.2-19,42.1-42.1,42.1L60.2,126.6z"/>
</g>
<g id="Layer_6" class="st0">
	<g class="st1">
		<path class="st13" d="M55.1,115.7l-0.4-0.9c6.1-2.9,12.8-4.5,19.5-4.7c7.1-0.2,14.3,1.2,20.8,4l-0.4,0.9
			c-6.4-2.8-13.5-4.2-20.4-3.9C67.7,111.3,61.1,112.9,55.1,115.7z"/>
	</g>
</g>
<g id="Layer_5" class="st0">
	<ellipse class="st14" cx="111.4" cy="98.4" rx="10.4" ry="4.9"/>
	<ellipse class="st14" cx="40.9" cy="98.4" rx="10.4" ry="4.9"/>
	<ellipse class="st15" cx="76.7" cy="94" rx="8.3" ry="5.9"/>
</g>
<g id="Layer_4" class="st0">
	<g class="st1">
		<path class="st6" d="M42.6,78c-0.4,1.6-0.7,3.4-0.7,5.2c0,7.6,4,7,9,7c4.1,0,7.6,0.4,8.6-3.8c-0.2,0-0.4,0-0.6,0
			C51.8,86.4,45.6,82.9,42.6,78z"/>
		<path class="st6" d="M93.3,79.1c-0.3,1.3-0.4,2.7-0.4,4.1c0,7.6,4,7,9,7c4.1,0,7.6,0.4,8.6-3.8c-0.5,0-1,0.1-1.6,0.1
			C102.3,86.4,96.5,83.4,93.3,79.1z"/>
		<path class="st13" d="M101.9,69.4c-4,0-7.4,4.1-8.6,9.7c3.2,4.4,9,7.3,15.7,7.3c0.5,0,1,0,1.6-0.1c0.2-0.9,0.3-1.9,0.3-3.1
			C110.9,75.5,106.9,69.4,101.9,69.4z"/>
		<path class="st13" d="M50.9,69.4c-3.8,0-7,3.6-8.3,8.6c3,5,9.2,8.4,16.4,8.4c0.2,0,0.4,0,0.6,0c0.2-0.9,0.3-1.9,0.3-3.2
			C59.9,75.5,55.9,69.4,50.9,69.4z"/>
	</g>
</g>
<g id="Layer_3">
	<g>
		<path class="st13" d="M101.6,66.9c-1.4,0-2.9-0.2-4.4-0.5C95.1,65.9,93,65,91,63.7l0.6-0.8c1.9,1.2,3.9,2.1,5.9,2.6
			c6.9,1.7,12.9-1.3,15.8-3.2l0.5,0.8C111.4,64.6,107,66.9,101.6,66.9z"/>
	</g>
	<g>
		<path class="st13" d="M52.2,66.9c-5.4,0-9.8-2.3-12.2-3.9l0.5-0.8c2.9,1.9,8.9,4.9,15.8,3.2c2.1-0.5,4.1-1.4,5.9-2.6l0.5,0.8
			c-2,1.3-4.1,2.2-6.3,2.8C55.1,66.8,53.6,66.9,52.2,66.9z"/>
	</g>
</g>
<g id="Layer_2" class="st0">
	<path class="st7" d="M139.4,54.5c-10.9-9.9-27.1-21.5-43-17.7c-8.5,2-9.6,6.6-20.8,11.5c-17.8,7.7-44.2,8.6-52.3-4
		c-4.1-6.4-3.1-15.7,0-22.2c10.1-20.9,49.9-29,78.5-15.5C128.9,19.5,137.6,48.2,139.4,54.5z"/>
</g>
</svg>
