<?xml version="1.0" encoding="utf-8"?>
<!-- Generator: Adobe Illustrator 23.0.1, SVG Export Plug-In . SVG Version: 6.00 Build 0)  -->
<svg version="1.1" xmlns="http://www.w3.org/2000/svg" xmlns:xlink="http://www.w3.org/1999/xlink" x="0px" y="0px"
	 viewBox="0 0 516.8 523" style="enable-background:new 0 0 516.8 523;" xml:space="preserve">
<style type="text/css">
	.st0{display:none;}
	.st1{display:inline;fill:#494234;}
	.st2{display:inline;}
	.st3{fill:#EACA81;}
	.st4{fill:#C170B6;}
	.st5{fill:#AA66A7;}
	.st6{display:inline;fill:#E8E8E8;}
	.st7{display:inline;fill:#FFFFFF;}
	.st8{display:inline;fill:#EACA81;}
	.st9{fill:#494234;}
	.st10{display:inline;fill:#EFAC7F;}
	.st11{display:inline;fill:#D19E78;}
	.st12{fill:none;}
	.st13{fill:#2D210E;}
	.st14{fill:#FFFFFF;}
	.st15{display:inline;fill:none;}
</style>
<g id="Layer_1" class="st0">
	<path class="st1" d="M351.6,39.3c24.4,23.7,31,53.7,33.9,67c11,49.9-6.1,90.7-12.9,104.9c5.6,3.7,13.7,10.3,19.4,21
		c14.5,27.2-0.3,57.1-2.4,61.3c-18.7,37.9-87.9,42.1-112.2,43.6c-13.1,0.8-25.6,0.7-37.5,0c-24.3-1.5-93.1-5.9-112.2-43.6
		c-0.3-0.6-0.6-1.1-0.7-1.5c-2.3-4.9-15.2-33.8-1.7-59.8c2.5-4.8,7.9-13.4,19.4-21c-6.8-14.2-23.9-55-12.9-104.9
		c2.9-13.3,9.5-43.3,33.9-67C212.9-6.9,304.2-6.9,351.6,39.3z"/>
</g>
<g id="Layer_10" class="st0">
	<g class="st2">
		<path class="st3" d="M493.1,310c-13.1,0-23.7,10.6-23.7,23.7c0,4,1,7.8,2.7,11.1c-2.8,5.6-5.8,11-9,16.4
			c-6.6,11.3-14,22.1-22.2,31.5c-4.1,4.7-8.4,9-12.9,12.7c-4.4,3.7-9.1,6.6-13.4,8.3c-4.3,1.7-8,2.1-10.9,1.4
			c-1.5-0.3-2.8-0.8-4.4-1.8c-0.8-0.5-1.7-1.1-2.9-1.9l-0.9-0.7c-0.3-0.2-0.5-0.4-0.7-0.6l-1.3-1c-3.4-2.9-6.2-6.4-8.6-11
			c-2.4-4.5-4.5-10-6.4-16c-1.1-3.4-2.1-7-3.1-10.6L342,387.9c0.6,1.9,1.3,3.9,2,5.9c2.6,7.1,5.6,14.5,10,22
			c2.2,3.7,4.8,7.4,7.8,10.9c3,3.5,6.4,6.7,10.1,9.6c0.9,0.7,1.9,1.4,2.8,2l1.4,1l1.2,0.8c1.7,1.1,3.8,2.3,6,3.5
			c4.5,2.3,9.8,4.1,15.1,4.9c5.3,0.8,10.7,0.6,15.7-0.3c5-0.9,9.6-2.5,13.8-4.4c8.4-3.9,15.1-9,21.1-14.3c6-5.4,11.1-11.2,15.8-17.2
			c13.3-17.3,23.3-35.9,31.6-55c11.6-1.5,20.6-11.5,20.6-23.5C516.8,320.6,506.2,310,493.1,310z"/>
		<polygon class="st3" points="370.1,351.9 335.9,368.8 335.9,368.8 370.1,351.9 		"/>
		<path class="st4" d="M367.4,342.5c-4.2-13.9-9.3-28-16-41.5c-0.8-1.7-1.7-3.4-2.6-5l-1.3-2.5c-0.4-0.8-1-1.8-1.5-2.7
			c-2.1-3.7-4.6-7.6-7.9-11.4c-3.2-3.9-7.4-7.7-12-10.7c-4.6-3-9.4-5.1-13.8-6.6c-10.5-3.7-22.1,1.9-25.7,12.4
			c-3.7,10.5,1.9,22.1,12.4,25.7c0.1,0,0.2,0.1,0.3,0.1l0.2,0.1c2.1,0.7,3.7,1.4,4.9,2.1c1.2,0.7,2.2,1.6,3.5,2.9
			c1.2,1.3,2.6,3.2,4,5.5c0.3,0.6,0.7,1.1,1.1,1.8l1.1,2.1c0.8,1.4,1.5,2.7,2.2,4.1c5.9,11.1,10.7,22.8,14.9,35.2
			c1.6,4.8,3.2,9.7,4.7,14.7l34.2-16.8C369.3,348.8,368.4,345.7,367.4,342.5z"/>
		<path class="st5" d="M370.1,351.9l-34.2,16.8c1.9,6.2,3.9,12.6,6.1,19.2l33.4-16.4C373.7,365.2,372,358.6,370.1,351.9z"/>
	</g>
	<path class="st6" d="M490.1,316.1l-5.9-2.2c-1.9-0.7-2.8-2.8-2.1-4.7l0,0c0.7-1.9,2.8-2.8,4.7-2.1l5.9,2.2c1.9,0.7,2.8,2.8,2.1,4.7
		v0C494.1,315.9,492,316.9,490.1,316.1z"/>
	<path class="st6" d="M501.4,312.2l2.5,5.8c0.8,1.9-0.1,4-1.9,4.8l0,0c-1.9,0.8-4-0.1-4.8-1.9l-2.5-5.8c-0.8-1.9,0.1-4,1.9-4.8h0
		C498.5,309.4,500.6,310.3,501.4,312.2z"/>
	<path class="st6" d="M502.4,314l-5.5-3.2c-1.7-1-2.3-3.2-1.3-5l0,0c1-1.7,3.2-2.3,5-1.3l5.5,3.2c1.7,1,2.3,3.2,1.3,5l0,0
		C506.4,314.4,504.2,315,502.4,314z"/>
	<path class="st7" d="M504.6,320.3l-5.9-2.2c-1.9-0.7-2.8-2.8-2.1-4.7v0c0.7-1.9,2.8-2.8,4.7-2.1l5.9,2.2c1.9,0.7,2.8,2.8,2.1,4.7
		l0,0C508.6,320,506.4,321,504.6,320.3z"/>
	<path class="st7" d="M497.8,310.4l-5.1,3.7c-1.6,1.2-3.9,0.8-5.1-0.8l0,0c-1.2-1.6-0.8-3.9,0.8-5.1l5.1-3.7
		c1.6-1.2,3.9-0.8,5.1,0.8l0,0C499.8,307,499.4,309.3,497.8,310.4z"/>
	<path class="st6" d="M485.8,324.8l-4.5-4.5c-1.4-1.4-1.4-3.7,0-5.2v0c1.4-1.4,3.7-1.4,5.2,0l4.5,4.5c1.4,1.4,1.4,3.7,0,5.2l0,0
		C489.6,326.2,487.3,326.2,485.8,324.8z"/>
	<path class="st7" d="M495.1,322.1l-6.2,1.3c-2,0.4-3.9-0.9-4.3-2.9l0,0c-0.4-2,0.9-3.9,2.9-4.3l6.2-1.3c2-0.4,3.9,0.9,4.3,2.9v0
		C498.4,319.7,497.1,321.7,495.1,322.1z"/>
</g>
<g id="Layer_9" class="st0">
	<g class="st2">
		<path class="st3" d="M138.4,382.1c-1.9,6-3.9,11.4-6.4,16c-2.4,4.6-5.2,8.1-8.6,11l-1.3,1c-0.2,0.2-0.4,0.3-0.7,0.6l-0.9,0.7
			c-1.1,0.8-2,1.4-2.9,1.9c-1.6,1-2.9,1.5-4.4,1.8c-2.9,0.7-6.6,0.3-10.9-1.4c-4.3-1.7-8.9-4.6-13.4-8.3c-4.5-3.7-8.8-8-12.9-12.7
			c-8.2-9.4-15.6-20.2-22.2-31.5c-3.1-5.3-6.1-10.8-9-16.4c1.7-3.3,2.7-7.1,2.7-11.1c0-13.1-10.6-23.7-23.7-23.7
			C10.6,310,0,320.6,0,333.7c0,12,9,22,20.6,23.5c8.3,19.1,18.3,37.6,31.6,55c4.7,6,9.8,11.8,15.8,17.2c6,5.4,12.7,10.5,21.1,14.3
			c4.2,1.9,8.8,3.5,13.8,4.4c5,0.9,10.4,1.1,15.7,0.3c5.3-0.7,10.6-2.5,15.1-4.9c2.2-1.1,4.3-2.4,6-3.5l1.2-0.8l1.4-1
			c0.9-0.7,1.9-1.3,2.8-2c3.7-2.9,7.1-6.1,10.1-9.6c3-3.5,5.5-7.2,7.8-10.9c4.4-7.5,7.4-14.9,10-22c0.6-1.8,1.3-3.6,1.9-5.4
			L141.3,372C140.3,375.5,139.4,378.8,138.4,382.1z"/>
		<polygon class="st3" points="146.6,352.4 146.6,352.4 180.8,369.2 180.8,369.2 		"/>
		<path class="st4" d="M185.6,354.1c4.2-12.4,9-24.1,14.9-35.2c0.7-1.4,1.5-2.8,2.2-4.1l1.1-2.1c0.4-0.7,0.7-1.2,1.1-1.8
			c1.4-2.3,2.7-4.1,4-5.5c1.2-1.4,2.3-2.2,3.5-2.9c1.2-0.7,2.8-1.4,4.9-2.1l0.2-0.1c0.1,0,0.2-0.1,0.3-0.1
			c10.5-3.7,16.1-15.2,12.4-25.7c-3.7-10.5-15.2-16.1-25.7-12.4c-4.4,1.5-9.2,3.6-13.8,6.6c-4.6,3-8.8,6.8-12,10.7
			c-3.3,3.9-5.8,7.8-7.9,11.4c-0.5,0.9-1.1,1.9-1.5,2.7L168,296c-0.9,1.7-1.7,3.3-2.6,5c-6.6,13.5-11.8,27.6-16,41.5
			c-1,3.3-2,6.6-2.9,9.9l34.2,16.8C182.4,364.1,183.9,359,185.6,354.1z"/>
		<path class="st5" d="M141.3,372l33.4,16.4c2.2-6.6,4.2-13,6.1-19.2l-34.2-16.8C144.7,359.1,143,365.7,141.3,372z"/>
	</g>
	<path class="st7" d="M15.5,324.1l-5.9-2.2c-1.9-0.7-2.8-2.8-2.1-4.7h0c0.7-1.9,2.8-2.8,4.7-2.1l5.9,2.2c1.9,0.7,2.8,2.8,2.1,4.7h0
		C19.5,323.9,17.4,324.9,15.5,324.1z"/>
	<path class="st7" d="M31.7,316.4l-5.5,3.2c-1.7,1-4,0.4-5-1.3h0c-1-1.7-0.4-4,1.3-5l5.5-3.2c1.7-1,4-0.4,5,1.3h0
		C34,313.2,33.4,315.4,31.7,316.4z"/>
</g>
<g id="Layer_8" class="st0">
	<g class="st2">
		<path class="st3" d="M285.5,254.4c-0.4,0-0.8,0-1.3,0h-0.9h-4.7v-38.8h-40v38.8h-5.1h-0.9c-0.3,0-0.6,0-0.9,0l26.9,26.9
			L285.5,254.4z"/>
		<path class="st4" d="M285.7,254.4c0,0-0.1,0-0.1,0l-26.9,26.9l-26.9-26.9c-0.1,0-0.1,0-0.2,0l27,27L285.7,254.4z"/>
		<path class="st4" d="M337.6,307.7c0-22.5-14.1-41.8-33.8-49.6l-44.2,44.2l0,0l-0.8,0.8L213.5,258c-19.9,7.8-34.1,27.1-34.1,49.7
			L178.6,523h160.1L337.6,307.7z"/>
		<path class="st5" d="M269.5,292.2l-10,10l0,0l44.2-44.2c-5.6-2.2-11.7-3.5-18.1-3.7l-27,27L269.5,292.2z"/>
		<path class="st5" d="M259.5,302.2l-10.8-10.8l10-10l-27-27c-6.4,0.1-12.5,1.4-18.1,3.6l45.1,45.1L259.5,302.2z"/>
		
			<rect x="252" y="284.2" transform="matrix(0.7071 -0.7071 0.7071 0.7071 -130.4711 268.657)" class="st5" width="14.2" height="15.3"/>
	</g>
</g>
<g id="Layer_7" class="st0">
	<path class="st8" d="M228.7,230.6c-40.2-2.3-72.4-35.8-72.4-76.5v-51.2c0-42.2,34.5-76.7,76.7-76.7h51.2
		c42.2,0,76.7,34.5,76.7,76.7V154c0,42.2-34.5,76.7-76.7,76.7L228.7,230.6z"/>
</g>
<g id="Layer_6" class="st0">
	<g class="st2">
		<path class="st9" d="M258.7,202.3c-9.5,0-16.6,3.9-20.1,6.2l1,1.5c3.4-2.3,10.5-6.2,20-5.9c9.1,0.3,15.7,4.2,18.9,6.5l1.1-1.5
			c-3.3-2.4-10.3-6.5-19.9-6.8C259.4,202.3,259,202.3,258.7,202.3z"/>
	</g>
</g>
<g id="Layer_5" class="st0">
	<ellipse class="st10" cx="322" cy="179.1" rx="18.9" ry="8.9"/>
	<ellipse class="st10" cx="193.6" cy="179.1" rx="18.9" ry="8.9"/>
	<ellipse class="st11" cx="258.7" cy="171.2" rx="15.1" ry="10.7"/>
</g>
<g id="Layer_4" class="st0">
	<ellipse class="st7" cx="304.6" cy="141.5" rx="16.1" ry="22.2"/>
	<g class="st2">
		<path class="st12" d="M320.8,141.5c0-11.7-6.6-21.3-15-22.1c4.7,5.3,7.7,13.2,7.7,22.1s-3,16.9-7.7,22.1
			C314.2,162.8,320.8,153.2,320.8,141.5z"/>
		<path class="st13" d="M305.8,119.4c-0.4,0-0.8-0.1-1.2-0.1c-8.9,0-16.1,9.9-16.1,22.2s7.2,22.2,16.1,22.2c0.4,0,0.8,0,1.2-0.1
			c4.7-5.3,7.7-13.2,7.7-22.1S310.5,124.6,305.8,119.4z"/>
	</g>
	<g class="st2">
		<path class="st14" d="M227.1,141.5c0-11.7-6.6-21.3-15-22.1c4.7,5.3,7.7,13.2,7.7,22.1s-3,16.9-7.7,22.1
			C220.4,162.8,227.1,153.2,227.1,141.5z"/>
		<path class="st13" d="M212.1,119.4c-0.4,0-0.8-0.1-1.2-0.1c-8.9,0-16.1,9.9-16.1,22.2s7.2,22.2,16.1,22.2c0.4,0,0.8,0,1.2-0.1
			c4.7-5.3,7.7-13.2,7.7-22.1S216.8,124.6,212.1,119.4z"/>
	</g>
	<ellipse class="st15" cx="210.9" cy="141.5" rx="16.1" ry="22.2"/>
</g>
<g id="Layer_3">
	<g>
		<path class="st9" d="M225.9,117.5c-2.7-5.4-8.1-8.7-14.1-8.8c0,0-0.1,0-0.1,0c-5.9,0-11.2,3.2-14,8.4l-1.6-0.9
			c3.1-5.8,9.1-9.4,15.7-9.4c6.7,0,12.7,3.8,15.7,9.8L225.9,117.5z"/>
	</g>
	<g>
		<path class="st9" d="M319.7,117.5c-2.7-5.4-8.1-8.7-14.1-8.8c0,0-0.1,0-0.1,0c-5.9,0-11.2,3.2-14,8.4l-1.6-0.9
			c3.1-5.8,9.1-9.4,15.7-9.4c6.7,0,12.7,3.8,15.7,9.8L319.7,117.5z"/>
	</g>
</g>
<g id="Layer_2" class="st0">
	<path class="st1" d="M372.8,99.2c-19.9-18.1-49.3-39.1-78.3-32.3c-15.5,3.6-17.4,12.1-37.9,21c-32.5,14.1-80.4,15.6-95.2-7.3
		c-7.6-11.7-5.7-28.5,0-40.4c18.4-38,90.9-52.8,142.9-28.3C353.8,35.5,369.6,87.7,372.8,99.2z"/>
</g>
</svg>
