<?xml version="1.0" encoding="utf-8"?>
<!-- Generator: Adobe Illustrator 23.0.1, SVG Export Plug-In . SVG Version: 6.00 Build 0)  -->
<svg version="1.1" xmlns="http://www.w3.org/2000/svg" xmlns:xlink="http://www.w3.org/1999/xlink" x="0px" y="0px"
	 viewBox="0 0 252 568.1" style="enable-background:new 0 0 252 568.1;" xml:space="preserve">
<style type="text/css">
	.st0{display:none;}
	.st1{display:inline;fill:#494234;}
	.st2{display:inline;}
	.st3{clip-path:url(#SVGID_2_);fill:#EACA81;}
	.st4{clip-path:url(#SVGID_2_);fill:#B76EB0;}
	.st5{clip-path:url(#SVGID_2_);fill:#AA66A7;}
	.st6{fill:#FFFFFF;}
	.st7{fill:#F48B00;}
	.st8{fill:#E27905;}
	.st9{fill:#CCCCCC;}
	.st10{fill:#6D6D6D;}
	.st11{fill:#5B5B5B;}
	.st12{clip-path:url(#SVGID_4_);fill:#EACA81;}
	.st13{clip-path:url(#SVGID_4_);fill:#626DD1;}
	.st14{clip-path:url(#SVGID_4_);fill:#7282DB;}
	.st15{clip-path:url(#SVGID_4_);fill:#FFFFFF;}
	.st16{clip-path:url(#SVGID_4_);fill:#4C4C4C;}
	.st17{clip-path:url(#SVGID_6_);fill:#EACA81;}
	.st18{clip-path:url(#SVGID_6_);fill:#626DD1;}
	.st19{clip-path:url(#SVGID_6_);fill:#7282DB;}
	.st20{clip-path:url(#SVGID_8_);fill:#37CC62;}
	.st21{clip-path:url(#SVGID_8_);fill:#FFFFFF;}
	.st22{clip-path:url(#SVGID_10_);fill:#EACA81;}
	.st23{clip-path:url(#SVGID_10_);fill:#C170B6;}
	.st24{clip-path:url(#SVGID_10_);fill:#AA66A7;}
	.st25{clip-path:url(#SVGID_10_);fill:#626DD1;}
	.st26{clip-path:url(#SVGID_10_);fill:#7282DB;}
	.st27{fill:#EACA81;}
	.st28{fill:none;}
	.st29{fill:#C170B6;}
	.st30{fill:#AA66A7;}
	.st31{display:inline;fill:#EACA81;}
	.st32{fill:#494234;}
	.st33{display:inline;fill:#EFAC7F;}
	.st34{display:inline;fill:#D19E78;}
	.st35{clip-path:url(#SVGID_12_);fill:#2D210E;}
	.st36{clip-path:url(#SVGID_14_);fill:#2D210E;}
</style>
<g id="Hair" class="st0">
	<path class="st1" d="M190.4,39.8c8.6,16.6,6.9,33.4,6.1,40.8c-2.9,28-18.8,46.3-24.8,52.5c2.3,2.9,5.4,7.7,6.5,14.3
		c2.9,16.7-10,29.7-11.8,31.6c-16.3,16.6-53.1,6.8-66,3.4c-7-1.8-13.5-4-19.6-6.5c-12.4-5-47.6-19.1-51-42.1
		c-0.1-0.4-0.1-0.7-0.1-0.9c-0.4-2.9-2.1-20.3,9.4-31.5c2.1-2.1,6.5-5.6,13.7-7.6c-1.1-8.6-3-32.8,11.3-57C68,30.5,76.6,16,93.4,7.8
		C126.1-8.2,173.7,7.6,190.4,39.8z"/>
</g>
<g id="BackArm" class="st0">
	<g class="st2">
		<defs>
			<path id="SVGID_1_" d="M252,181.5c-0.5-7.8-7.1-13.7-14.9-13.2s-13.7,7.1-13.2,14.9c0.2,3.3,1.5,6.3,3.6,8.5
				c-0.2,0.7-0.5,1.4-0.8,2.1c-1,2.4-2.4,4.7-4,6.8c-3.2,4.3-7.3,8-11.7,10.4c-4.5,2.5-9.4,3.7-14.4,3.8c-5,0.1-10.2-1.1-15.2-3.2
				c-1.2-0.5-2.6-1.2-3.9-1.8c-0.7-0.3-1.3-0.7-1.9-1c-0.6-0.3-1.3-0.7-1.9-1c-2.5-1.4-4.8-3-7.1-4.7c-4.4-3.4-8.3-7.5-11.5-12
				c-3.2-4.6-5.8-9.6-7.9-15.2c-1.1-2.8-2-5.6-2.9-8.7c-0.9-3.1-1.7-6.2-2.9-9.9l-24,8.1c1,2.7,2,6,3.1,9.4
				c1.1,3.4,2.4,6.9,3.9,10.3c2.9,6.9,6.7,13.8,11.5,20.1c4.8,6.3,10.5,11.9,16.9,16.4c3.2,2.3,6.5,4.4,9.9,6.1
				c0.8,0.5,1.7,0.9,2.6,1.3c0.9,0.4,1.7,0.8,2.6,1.2c1.8,0.8,3.5,1.5,5.4,2.2c7.5,2.7,15.7,4.4,24.2,3.9c8.4-0.4,16.9-3.1,24-7.5
				c7.1-4.4,13-10.2,17.5-16.9c2.3-3.4,4.2-7,5.7-10.8c1-2.5,1.8-5.1,2.3-8C250.2,190.4,252.3,186.1,252,181.5z"/>
		</defs>
		<clipPath id="SVGID_2_">
			<use xlink:href="#SVGID_1_"  style="overflow:visible;"/>
		</clipPath>
		<path class="st3" d="M252,181.5c-0.5-7.8-7.1-13.7-14.9-13.2s-13.7,7.1-13.2,14.9c0.2,3.3,1.5,6.3,3.6,8.5
			c-0.2,0.7-0.5,1.4-0.8,2.1c-1,2.4-2.4,4.7-4,6.8c-3.2,4.3-7.3,8-11.7,10.4c-4.5,2.5-9.4,3.7-14.4,3.8c-5,0.1-10.2-1.1-15.2-3.2
			c-1.2-0.5-2.6-1.2-3.9-1.8c-0.7-0.3-1.3-0.7-1.9-1c-0.6-0.3-1.3-0.7-1.9-1c-2.5-1.4-4.8-3-7.1-4.7c-4.4-3.4-8.3-7.5-11.5-12
			c-3.2-4.6-5.8-9.6-7.9-15.2c-1.1-2.8-2-5.6-2.9-8.7c-0.9-3.1-1.7-6.2-2.9-9.9l-24,8.1c1,2.7,2,6,3.1,9.4c1.1,3.4,2.4,6.9,3.9,10.3
			c2.9,6.9,6.7,13.8,11.5,20.1c4.8,6.3,10.5,11.9,16.9,16.4c3.2,2.3,6.5,4.4,9.9,6.1c0.8,0.5,1.7,0.9,2.6,1.3
			c0.9,0.4,1.7,0.8,2.6,1.2c1.8,0.8,3.5,1.5,5.4,2.2c7.5,2.7,15.7,4.4,24.2,3.9c8.4-0.4,16.9-3.1,24-7.5c7.1-4.4,13-10.2,17.5-16.9
			c2.3-3.4,4.2-7,5.7-10.8c1-2.5,1.8-5.1,2.3-8C250.2,190.4,252.3,186.1,252,181.5z"/>
		
			<rect x="111" y="150.4" transform="matrix(0.8022 -0.5971 0.5971 0.8022 -80.9474 117.4719)" class="st4" width="51.7" height="60.9"/>
		
			<rect x="122.2" y="196.4" transform="matrix(0.7703 -0.6377 0.6377 0.7703 -93.0505 146.2741)" class="st5" width="68.7" height="11.7"/>
	</g>
	<g class="st2">
		<g>
			<polygon class="st6" points="246.2,166.3 248.9,162.6 247.6,161.6 248,161 247.1,160.2 248.5,158.3 235.4,148.5 233.9,150.4 
				232.9,149.7 232.5,150.3 231.1,149.3 228.4,153 227.4,152.3 226.4,153.7 246,168.3 247,166.9 			"/>
			
				<ellipse transform="matrix(0.5968 -0.8024 0.8024 0.5968 -28.0058 255.5538)" class="st6" cx="240.3" cy="155.6" rx="0.7" ry="9.4"/>
			
				<ellipse transform="matrix(0.5968 -0.8024 0.8024 0.5968 -32.1147 254.8341)" class="st6" cx="237.5" cy="159.4" rx="0.7" ry="11.1"/>
			<path class="st7" d="M243.8,166.7l-15.1-11.2l-2.3-1.7l-0.6,0.9l2.3,1.7l-22.3,30c-0.7,1,2,4.3,6.2,7.4c4.2,3.1,8.2,4.8,8.9,3.8
				l22.3-30l2.2,1.7l0.6-0.9L243.8,166.7z"/>
			
				<rect x="223.6" y="160.9" transform="matrix(0.8024 0.5968 -0.5968 0.8024 142.9598 -108.8491)" class="st8" width="24.5" height="1.1"/>
			
				<ellipse transform="matrix(0.5968 -0.8024 0.8024 0.5968 -68.0747 248.5047)" class="st8" cx="213.2" cy="192" rx="2.6" ry="9.4"/>
			
				<ellipse transform="matrix(0.5968 -0.8024 0.8024 0.5968 -27.3819 255.6672)" class="st6" cx="240.7" cy="155.1" rx="0.7" ry="8.2"/>
			
				<ellipse transform="matrix(0.5968 -0.8024 0.8024 0.5968 -34.9367 254.282)" class="st8" cx="235.5" cy="161.9" rx="0.7" ry="12.2"/>
			<path class="st6" d="M229.7,185.7l9.7-13c-0.4,0.3-4-1.9-8.1-4.9c-4-2.9-7-5.6-7.1-6.3l-9.7,13.1c-0.3,0.4,2.9,3.2,7,6.4
				C225.7,184,229.4,186.2,229.7,185.7C229.7,185.7,229.7,185.7,229.7,185.7z"/>
		</g>
		
			<ellipse transform="matrix(0.5968 -0.8024 0.8024 0.5968 -33.9774 254.4505)" class="st6" cx="236.2" cy="161" rx="0.7" ry="12.2"/>
	</g>
</g>
<g id="BackCrutch" class="st0">
	<g class="st2">
		<g>
			<path class="st9" d="M117.9,451.1c0-24.6,0-49.4,0-73.9l0-0.2c0.2-2.5-0.1-4.9-0.7-7.3c-0.5-1.9-1.4-4.2-4.4-8.4
				c-2.7-3.7-4.3-5.7-5.7-7.5c-1.6-2-2.9-3.6-4.8-6.6c-2.7-4.1-4.3-8.9-5-14.2l0-0.4v-150h7.4v149.8c0.5,4.3,1.9,8.1,4,11.3
				c1.8,2.7,2.9,4.1,4.4,6.1c1.4,1.8,3.1,3.9,5.9,7.8c2.9,4.1,4.5,7.1,5.4,10.5c0.8,3,1.1,6.1,0.9,9.3c0,24.5,0,49.3,0,73.7
				L117.9,451.1z"/>
		</g>
		<ellipse class="st10" cx="127.7" cy="521.2" rx="5.1" ry="1.5"/>
		<g>
			<path class="st9" d="M134.2,451.1h-3.7c0-24.5,0-49.3,0-73.8c-0.2-3.2,0.1-6.3,0.9-9.3c0.9-3.4,2.5-6.4,5.4-10.5
				c2.8-3.9,4.5-6.1,5.9-7.8c1.5-1.9,2.6-3.3,4.4-6.1c2.1-3.2,3.4-7.1,4-11.3V182.5h7.4v150.2l0,0.2c-0.6,5.3-2.3,10.1-5,14.2
				c-1.9,3-3.2,4.6-4.8,6.6c-1.4,1.8-3,3.8-5.7,7.5c-3,4.2-3.9,6.5-4.4,8.4c-0.6,2.3-0.9,4.8-0.7,7.3l0,0.2c0,24.5,0,49.4,0,73.8
				L134.2,451.1z"/>
		</g>
		<g>
			<rect x="123.1" y="365.4" class="st9" width="9.2" height="155.8"/>
		</g>
		<path class="st10" d="M165.2,168.7c-2.8,1-5.9,1.6-8.9,1.6H137h-18.3H99.5c-3,0-6.1-0.5-8.9-1.6c-3.7-1.4-7.7,1.3-7.7,5v4.3
			c0,2.2,1.5,4.3,3.7,5l3.6,1.3c3.2,1.2,6.6,1.7,10,1.7h18.6H137h18.6c3.4,0,6.8-0.6,10-1.7l3.6-1.3c2.2-0.8,3.7-2.8,3.7-5v-4.3
			C172.9,170,168.9,167.3,165.2,168.7z"/>
		<path class="st10" d="M152.3,307.5c-1,0-1.9,0.4-2.4,1.1c-0.4-0.1-0.8-0.1-1.2-0.1h-40.8c-0.5,0-1.1,0.1-1.6,0.2
			c-0.5-0.7-1.4-1.2-2.4-1.2c-1.6,0-2.9,1.2-2.9,2.8v13c0,1.5,1.3,2.8,2.9,2.8c1,0,1.9-0.5,2.4-1.2c0.5,0.1,1,0.2,1.6,0.2h40.8
			c0.4,0,0.8,0,1.2-0.1c0.6,0.7,1.4,1.1,2.4,1.1c1.7,0,3.1-1.3,3.1-3v-12.6C155.4,308.9,154,307.5,152.3,307.5z"/>
		<ellipse class="st10" cx="127.7" cy="365.4" rx="4.6" ry="1.3"/>
		<path class="st10" d="M137.7,451.1h-20c-0.2,0-0.4,0.2-0.4,0.4v5.8c0,0.8,0.7,1.5,1.6,1.5h0c2.2,0,4.1,1.7,4.1,3.9v0.6h9.6v-0.6
			c0-2.1,1.8-3.9,4.1-3.9l0,0c0.9,0,1.6-0.7,1.6-1.5v-5.8C138.1,451.3,138,451.1,137.7,451.1z"/>
		<ellipse class="st10" cx="127.7" cy="463.2" rx="4.8" ry="0.6"/>
		<ellipse class="st9" cx="127.9" cy="451.1" rx="4.4" ry="0.6"/>
		<ellipse class="st9" cx="120.7" cy="451.1" rx="2.8" ry="0.6"/>
		<ellipse class="st9" cx="135.1" cy="451.1" rx="2.8" ry="0.6"/>
		<rect x="120.3" y="531.8" class="st10" width="14.9" height="9.4"/>
		<rect x="121.2" y="530.5" class="st10" width="13" height="2.7"/>
		<polygon class="st10" points="133.7,531 121.7,531 122.6,521.2 132.8,521.2 		"/>
		<ellipse class="st10" cx="127.7" cy="541.2" rx="7.4" ry="1.5"/>
		<ellipse class="st10" cx="127.7" cy="531.8" rx="7.4" ry="1.5"/>
		<ellipse class="st10" cx="127.7" cy="530.5" rx="6.5" ry="1.5"/>
		<ellipse class="st9" cx="127.7" cy="521.2" rx="4.6" ry="1"/>
		<ellipse class="st11" cx="127.7" cy="374" rx="2.9" ry="2.7"/>
		<ellipse class="st11" cx="127.7" cy="388.1" rx="2.9" ry="2.7"/>
		<ellipse class="st11" cx="127.7" cy="402.1" rx="2.9" ry="2.7"/>
		<ellipse class="st11" cx="127.7" cy="416.1" rx="2.9" ry="2.7"/>
		<ellipse class="st11" cx="127.7" cy="430.1" rx="2.9" ry="2.7"/>
		<ellipse class="st11" cx="127.7" cy="444.1" rx="2.9" ry="2.7"/>
	</g>
</g>
<g id="BackLeg" class="st0">
	<g class="st2">
		<defs>
			<path id="SVGID_3_" d="M133.5,544.2h-23.8c4.1-15.6,6.7-31.4,8.5-47.1c2.2-18.7,3.3-37.3,4.1-55.7c0.4-9.2,0.7-18.4,1-27.6
				l0.4-13.7l0.2-6.9l0.1-3.4l0-0.9l0-1l0-1.9c0.1-20.5-3.4-39.6-4.4-56.1l-43.6,5.2c1.6,9.9,3.7,18.9,5.4,27.6
				c1.7,8.6,3.2,16.8,3.9,24.8l0.1,1.5l0.1,0.8l0.1,0.9l0.2,3.4l0.5,6.8l0.9,13.6c0.6,9.1,1.2,18.1,1.6,27.1
				c0.9,18,1.6,35.9,1.2,53.6c-0.3,14.8-1.3,33.6-3.6,49.3l-1.5,8.9h48.5c2.5,0,4.6-2,4.6-4.6S136,544.2,133.5,544.2z"/>
		</defs>
		<clipPath id="SVGID_4_">
			<use xlink:href="#SVGID_3_"  style="overflow:visible;"/>
		</clipPath>
		<path class="st12" d="M133.5,544.2h-23.8c4.1-15.6,6.7-31.4,8.5-47.1c2.2-18.7,3.3-37.3,4.1-55.7c0.4-9.2,0.7-18.4,1-27.6
			l0.4-13.7l0.2-6.9l0.1-3.4l0-0.9l0-1l0-1.9c0.1-20.5-3.4-39.6-4.4-56.1l-43.6,5.2c1.6,9.9,3.7,18.9,5.4,27.6
			c1.7,8.6,3.2,16.8,3.9,24.8l0.1,1.5l0.1,0.8l0.1,0.9l0.2,3.4l0.5,6.8l0.9,13.6c0.6,9.1,1.2,18.1,1.6,27.1
			c0.9,18,1.6,35.9,1.2,53.6c-0.3,14.8-1.3,33.6-3.6,49.3l-1.5,8.9h48.5c2.5,0,4.6-2,4.6-4.6S136,544.2,133.5,544.2z"/>
		<rect x="75" y="306.8" class="st13" width="61.2" height="128.7"/>
		<rect x="75" y="412.2" class="st14" width="61.2" height="23.3"/>
		<rect x="85.8" y="539.5" class="st15" width="28.3" height="4.7"/>
		<path class="st16" d="M133.5,553.4H85l1.6-9.1h47c2.5,0,4.6,2,4.6,4.6v0C138.1,551.3,136,553.4,133.5,553.4z"/>
	</g>
</g>
<g id="FrontLeg" class="st0">
	<g class="st2">
		<g>
			<defs>
				<path id="SVGID_5_" d="M80.8,323c0.6,4.1,1.1,8.3,1.7,12.5c0.5,4.2,1.1,8.3,1.6,12.5l3,25l2.8,25l1.4,12.5
					c0.3,2.4,0.6,5.1,0.7,7.7c0.1,2.7,0.1,5.3-0.1,8c-0.2,2.7-0.5,5.3-0.9,8l-0.4,2l-0.5,2.2l-0.1,0.6l-0.1,0.3l0,0.1l0-0.2l0,0.1
					l-0.3,1l-0.5,1.9c-0.7,2.4-1.5,4.8-2.5,7.3l-0.4,0.9l-0.5,1.1l-1.1,2.3c-0.4,0.7-0.7,1.3-1.1,1.9c-0.4,0.6-0.7,1.3-1.1,1.9
					c-3,4.6-6,8.2-9.1,11.7c-3.1,3.5-6.3,6.7-9.5,9.8C51,491.4,37.4,502,23.3,511.9L10,495.4c6-5.6,11.9-11.3,17.6-17.2
					c5.7-5.8,11.2-11.8,16.2-17.9c2.5-3,4.9-6.1,7.1-9.2c2.2-3,4.2-6.1,5.5-8.8l0.8-1.8c0-0.2,0.1-0.4,0.2-0.6l0.1-0.3l0.2-0.5
					c0.4-1.5,0.8-3.1,1.1-4.7l0.2-1.2l0.1-0.5l0-0.1l0.1-0.3l0,0l0-0.1l0-0.2l0.2-2c0.1-1.5,0.1-3.1,0-4.6c-0.1-1.5-0.2-3.1-0.4-4.6
					c-0.2-1.6-0.5-3-0.9-4.8l-2.5-12.4l-4.8-24.8L46,354c-0.8-4.1-1.5-8.3-2.2-12.4c-0.7-4.1-1.5-8.3-2.2-12.4L80.8,323z"/>
			</defs>
			<clipPath id="SVGID_6_">
				<use xlink:href="#SVGID_5_"  style="overflow:visible;"/>
			</clipPath>
			<path class="st17" d="M80.8,323c0.6,4.1,1.1,8.3,1.7,12.5c0.5,4.2,1.1,8.3,1.6,12.5l3,25l2.8,25l1.4,12.5
				c0.3,2.4,0.6,5.1,0.7,7.7c0.1,2.7,0.1,5.3-0.1,8c-0.2,2.7-0.5,5.3-0.9,8l-0.4,2l-0.5,2.2l-0.1,0.6l-0.1,0.3l0,0.1l0-0.2l0,0.1
				l-0.3,1l-0.5,1.9c-0.7,2.4-1.5,4.8-2.5,7.3l-0.4,0.9l-0.5,1.1l-1.1,2.3c-0.4,0.7-0.7,1.3-1.1,1.9c-0.4,0.6-0.7,1.3-1.1,1.9
				c-3,4.6-6,8.2-9.1,11.7c-3.1,3.5-6.3,6.7-9.5,9.8C51,491.4,37.4,502,23.3,511.9L10,495.4c6-5.6,11.9-11.3,17.6-17.2
				c5.7-5.8,11.2-11.8,16.2-17.9c2.5-3,4.9-6.1,7.1-9.2c2.2-3,4.2-6.1,5.5-8.8l0.8-1.8c0-0.2,0.1-0.4,0.2-0.6l0.1-0.3l0.2-0.5
				c0.4-1.5,0.8-3.1,1.1-4.7l0.2-1.2l0.1-0.5l0-0.1l0.1-0.3l0,0l0-0.1l0-0.2l0.2-2c0.1-1.5,0.1-3.1,0-4.6c-0.1-1.5-0.2-3.1-0.4-4.6
				c-0.2-1.6-0.5-3-0.9-4.8l-2.5-12.4l-4.8-24.8L46,354c-0.8-4.1-1.5-8.3-2.2-12.4c-0.7-4.1-1.5-8.3-2.2-12.4L80.8,323z"/>
			
				<rect x="30.7" y="317.8" transform="matrix(0.9918 -0.128 0.128 0.9918 -46.0018 11.3766)" class="st18" width="69.7" height="91.5"/>
			
				<rect x="29" y="404" transform="matrix(0.9918 -0.128 0.128 0.9918 -52.8613 13.1065)" class="st19" width="93.1" height="27.7"/>
		</g>
		<g>
			<defs>
				<path id="SVGID_7_" d="M77.3,453.8L64,439.7c-4-4.3-10.8-4.5-15.1-0.5l-29.6,27.7l0,0L5,480.4c-4.3,4-4.5,10.8-0.5,15.1
					l27.9,29.8c4,4.3,10.8,4.5,15.1,0.5l6.6-6.2c4.3-4,4.5-10.8,0.5-15.1l0,0c-4-4.3-3.8-11.1,0.5-15.1l21.8-20.4
					C81.1,464.9,81.3,458.1,77.3,453.8z"/>
			</defs>
			<clipPath id="SVGID_8_">
				<use xlink:href="#SVGID_7_"  style="overflow:visible;"/>
			</clipPath>
			<path class="st20" d="M77.3,453.8L64,439.7c-4-4.3-10.8-4.5-15.1-0.5l-29.6,27.7l0,0L5,480.4c-4.3,4-4.5,10.8-0.5,15.1l27.9,29.8
				c4,4.3,10.8,4.5,15.1,0.5l6.6-6.2c4.3-4,4.5-10.8,0.5-15.1l0,0c-4-4.3-3.8-11.1,0.5-15.1l21.8-20.4
				C81.1,464.9,81.3,458.1,77.3,453.8z"/>
			
				<rect x="61" y="428.6" transform="matrix(0.7298 -0.6837 0.6837 0.7298 -288.5603 167.9973)" class="st21" width="14.4" height="40.8"/>
			
				<rect x="35.5" y="517.6" transform="matrix(0.7298 -0.6837 0.6837 0.7298 -343.1027 175.6819)" class="st21" width="30.4" height="8.5"/>
		</g>
	</g>
</g>
<g id="Body" class="st0">
	<g class="st2">
		<defs>
			<path id="SVGID_9_" d="M145.8,176.1c2.5-15.9-8.5-31-24.4-33.4l-0.5-0.1l-2.6-0.4l3.3-21.1l-21.7-3.4l-3.3,21.1l-2.7-0.4
				l-0.5-0.1c-15.9-2.5-31,8.5-33.4,24.4L37.3,305.1c-2.5,15.9,7.4,41.5,23.3,43.9l11.7-2.9c2.1-0.5,4.3-0.2,6.2,1l10.1,6.3
				c15.9,2.5,33.3-18.8,35.8-34.8L145.8,176.1z"/>
		</defs>
		<clipPath id="SVGID_10_">
			<use xlink:href="#SVGID_9_"  style="overflow:visible;"/>
		</clipPath>
		<path class="st22" d="M145.8,176.1c2.5-15.9-8.5-31-24.4-33.4l-0.5-0.1l-2.6-0.4l3.3-21.1l-21.7-3.4l-3.3,21.1l-2.7-0.4l-0.5-0.1
			c-15.9-2.5-31,8.5-33.4,24.4L37.3,305.1c-2.5,15.9,7.4,41.5,23.3,43.9l11.7-2.9c2.1-0.5,4.3-0.2,6.2,1l10.1,6.3
			c15.9,2.5,33.3-18.8,35.8-34.8L145.8,176.1z"/>
		<polygon class="st23" points="128.5,138.1 105.2,155.1 88.2,131.9 52.9,126.4 27.6,288.9 72.1,295.8 94.1,299.2 138.5,306.1 
			163.8,143.6 		"/>
		
			<rect x="25.3" y="288.9" transform="matrix(0.9881 0.1535 -0.1535 0.9881 45.9904 -9.3824)" class="st24" width="116.9" height="8.4"/>
		
			<rect x="21.4" y="296.4" transform="matrix(0.9881 0.1535 -0.1535 0.9881 51.2607 -7.5954)" class="st25" width="106.9" height="63.5"/>
		
			<rect x="95.1" y="139.7" transform="matrix(0.8073 -0.5902 0.5902 0.8073 -60.3323 103.1487)" class="st24" width="65.3" height="8.4"/>
		
			<rect x="21.3" y="297.3" transform="matrix(0.9881 0.1535 -0.1535 0.9881 47.3565 -9.0608)" class="st26" width="122" height="9.8"/>
		
			<rect x="54.8" y="133.9" transform="matrix(-0.5902 -0.8073 0.8073 -0.5902 27.5642 290.2665)" class="st24" width="65.3" height="8.4"/>
	</g>
</g>
<g id="FrontCrutch" class="st0">
	<g class="st2">
		<g>
			<path class="st9" d="M38.1,471.5c0-25.9,0-52.1,0-78l0-0.2c0.2-2.6-0.1-5.2-0.8-7.7c-0.6-2-1.5-4.5-4.8-8.9
				c-2.9-3.9-4.6-6.1-6.2-7.9c-1.7-2.1-3.1-3.8-5.2-7c-2.9-4.4-4.7-9.4-5.4-15l0-0.4V188.1h8v158c0.6,4.5,2,8.5,4.3,11.9
				c1.9,2.9,3.1,4.4,4.8,6.4c1.5,1.9,3.4,4.2,6.4,8.3c3.1,4.3,4.8,7.5,5.9,11.1c0.9,3.2,1.2,6.5,1,9.8c0,25.8,0,52,0,77.8
				L38.1,471.5z"/>
		</g>
		<ellipse class="st10" cx="48.7" cy="545.5" rx="5.5" ry="1.5"/>
		<g>
			<path class="st9" d="M55.8,471.5h-4c0-25.9,0-52,0-77.9c-0.2-3.3,0.1-6.6,1-9.8c1-3.6,2.7-6.8,5.9-11.1c3-4.1,4.9-6.4,6.4-8.3
				c1.7-2,2.9-3.5,4.8-6.4c2.3-3.4,3.7-7.4,4.3-11.9v-158h8v158.4l0,0.2c-0.7,5.6-2.5,10.7-5.4,15c-2.1,3.2-3.5,4.9-5.2,7
				c-1.5,1.9-3.3,4-6.2,7.9c-3.2,4.4-4.2,6.9-4.8,8.9c-0.7,2.5-1,5.1-0.8,7.7l0,0.2c0,25.8,0,52.1,0,77.9L55.8,471.5z"/>
		</g>
		<g>
			<rect x="43.7" y="381.1" class="st9" width="10" height="164.4"/>
		</g>
		<path class="st10" d="M89.5,173.6c-3.1,1.1-6.4,1.7-9.7,1.7H58.9H39H18.1c-3.3,0-6.6-0.6-9.7-1.7c-4-1.4-8.4,1.3-8.4,5.3v4.6
			c0,2.4,1.6,4.5,4,5.3l3.9,1.4c3.5,1.2,7.2,1.8,10.9,1.8H39h19.9h20.2c3.7,0,7.4-0.6,10.9-1.8l3.9-1.4c2.4-0.8,4-3,4-5.3v-4.6
			C97.9,174.9,93.5,172.2,89.5,173.6z"/>
		<path class="st10" d="M75.5,320c-1.1,0-2,0.5-2.6,1.2c-0.4-0.1-0.9-0.1-1.3-0.1H27.2c-0.6,0-1.2,0.1-1.7,0.2
			c-0.6-0.8-1.5-1.3-2.6-1.3c-1.7,0-3.2,1.3-3.2,2.9v13.7c0,1.6,1.4,2.9,3.2,2.9c1.1,0,2.1-0.5,2.6-1.3c0.5,0.1,1.1,0.2,1.7,0.2
			h44.3c0.4,0,0.9,0,1.3-0.1c0.6,0.7,1.6,1.2,2.6,1.2c1.9,0,3.4-1.4,3.4-3.1v-13.3C78.8,321.4,77.3,320,75.5,320z"/>
		<ellipse class="st10" cx="48.7" cy="381.1" rx="5" ry="1.4"/>
		<path class="st10" d="M59.6,471.5H37.8c-0.3,0-0.5,0.2-0.5,0.4v6.1c0,0.9,0.8,1.6,1.7,1.6h0c2.4,0,4.4,1.8,4.4,4.1v0.6H54v-0.6
			c0-2.3,2-4.1,4.4-4.1h0c1,0,1.7-0.7,1.7-1.6v-6.1C60.1,471.6,59.9,471.5,59.6,471.5z"/>
		<ellipse class="st10" cx="48.7" cy="484.3" rx="5.2" ry="0.7"/>
		<ellipse class="st9" cx="48.9" cy="471.5" rx="4.8" ry="0.7"/>
		<ellipse class="st9" cx="41.1" cy="471.5" rx="3" ry="0.7"/>
		<ellipse class="st9" cx="56.7" cy="471.5" rx="3" ry="0.7"/>
		<rect x="40.7" y="556.6" class="st10" width="16.2" height="9.9"/>
		<rect x="41.7" y="555.2" class="st10" width="14.1" height="2.9"/>
		<polygon class="st10" points="55.3,555.8 42.2,555.8 43.2,545.5 54.3,545.5 		"/>
		<ellipse class="st10" cx="48.7" cy="566.5" rx="8.1" ry="1.5"/>
		<ellipse class="st10" cx="48.7" cy="556.6" rx="8.1" ry="1.5"/>
		<ellipse class="st10" cx="48.7" cy="555.2" rx="7.1" ry="1.5"/>
		<ellipse class="st9" cx="48.7" cy="545.5" rx="5" ry="1.1"/>
		<ellipse class="st11" cx="48.7" cy="390.2" rx="3.1" ry="2.9"/>
		<ellipse class="st11" cx="48.7" cy="405" rx="3.1" ry="2.9"/>
		<ellipse class="st11" cx="48.7" cy="419.7" rx="3.1" ry="2.9"/>
		<ellipse class="st11" cx="48.7" cy="434.5" rx="3.1" ry="2.9"/>
		<ellipse class="st11" cx="48.7" cy="449.3" rx="3.1" ry="2.9"/>
		<ellipse class="st11" cx="48.7" cy="464.1" rx="3.1" ry="2.9"/>
	</g>
</g>
<g id="FrontArm">
	<path class="st27" d="M83.6,143.7c-4.9-5-12.9-5.1-17.9-0.2l0,0c-12.4,12.1-22.9,26-31,41.1c-4.1,7.6-7.6,15.5-10.4,23.6
		c-0.7,2-1.4,4.1-2,6.1l-1.8,6.2c-0.5,2.1-1,4.2-1.5,6.3c-0.5,2.1-1,4.2-1.3,6.3l-1,6.3c-0.2,1.1-0.3,2.1-0.4,3.2l-0.3,3.2
		c-0.5,4.3-0.6,8.5-0.8,12.8c-0.1,8.5,0.3,17.1,1.4,25.5c2,14.8,5.8,29.2,11.4,43c-0.9,1.8-1.3,3.8-1.3,6c0,7.8,6.3,14.1,14.1,14.1
		s14.1-6.3,14.1-14.1c0-6-3.8-11.1-9.1-13.1c-4.5-12.3-7.4-25.2-8.7-38.1c-0.7-7.5-0.8-14.9-0.5-22.4c0.3-3.7,0.5-7.4,1.1-11.1
		l0.4-2.8c0.1-0.9,0.2-1.8,0.5-2.7l1.1-5.5c0.3-1.8,0.9-3.6,1.3-5.4c0.5-1.8,0.9-3.6,1.4-5.4l1.7-5.3c0.6-1.8,1.3-3.5,1.9-5.2
		c2.7-6.9,5.9-13.6,9.6-19.9c7.4-12.8,16.9-24.4,27.7-34.3c0.1-0.1,0.2-0.2,0.3-0.3C88.4,156.8,88.5,148.7,83.6,143.7z"/>
	<g>
		<path class="st28" d="M24.2,208.2c-0.7,2-1.4,4.1-2,6.1l-1.8,6.2c-0.5,2.1-1,4.2-1.5,6.3c-0.5,2.1-1,4.2-1.3,6.3l-1,6.3
			c-0.2,1.1-0.3,2.1-0.4,3.2l-0.3,3.2c-0.5,4.3-0.6,8.5-0.8,12.8c-0.1,8.5,0.3,17.1,1.4,25.5c2,14.8,5.8,29.2,11.4,43
			c-0.9,1.8-1.3,3.8-1.3,6c0,7.8,6.3,14.1,14.1,14.1s14.1-6.3,14.1-14.1c0-6-3.8-11.1-9.1-13.1c-4.5-12.3-7.4-25.2-8.7-38.1
			c-0.7-7.5-0.8-14.9-0.5-22.4c0.3-3.7,0.5-7.4,1.1-11.1l0.4-2.8c0.1-0.9,0.2-1.8,0.5-2.7l1.1-5.5c0.3-1.8,0.9-3.6,1.3-5.4
			c0.5-1.8,0.9-3.6,1.4-5.4l1.7-5.3c0.6-1.8,1.3-3.5,1.9-5.2c1.4-3.7,3-7.3,4.8-10.8l-20.9-10.5C27.6,199.2,25.8,203.7,24.2,208.2z"
			/>
		<path class="st29" d="M83,162c0.1-0.1,0.2-0.2,0.3-0.3c5-4.9,5.1-12.9,0.2-17.9s-12.9-5.1-17.9-0.2l0,0
			c-12,11.7-22.2,25.1-30.2,39.7l21.3,10.7C63.9,182.1,72.8,171.3,83,162z"/>
		<path class="st30" d="M33.5,186.7c-1.4,2.7-2.7,5.4-3.9,8.1l20.9,10.5c0.9-1.9,1.9-3.8,2.9-5.6L33.5,186.7z"/>
		<path class="st30" d="M56.7,193.9l-21.3-10.7c-0.3,0.5-0.5,0.9-0.8,1.4c-0.4,0.7-0.7,1.4-1.1,2.1l19.9,13c0.6-1.2,1.3-2.3,2-3.5
			C55.8,195.5,56.2,194.7,56.7,193.9z"/>
	</g>
</g>
<g id="Head" class="st0">
	<path class="st31" d="M93.4,118.4c-20.6-8.1-31.6-31.1-24.6-52.4l8.8-26.7c7.3-22,31.2-34.1,53.2-26.8l26.7,8.8
		c22,7.3,34.1,31.2,26.8,53.2l-8.8,26.7c-7.3,22-31.2,34.1-53.2,26.8L93.4,118.4z"/>
</g>
<g id="Mouth" class="st0">
	<g class="st2">
		<path class="st32" d="M139.6,118.5c-5.6-4.1-11.6-6.8-17.7-8.1c-5-1-10.1-1-15.1,0l-0.2-1c5.2-1,10.4-1,15.5,0
			c6.3,1.3,12.4,4,18.1,8.2L139.6,118.5z"/>
	</g>
</g>
<g id="Nose" class="st0">
	<ellipse transform="matrix(0.299 -0.9543 0.9543 0.299 12.1636 226.4755)" class="st33" cx="160.2" cy="105" rx="4.9" ry="10.4"/>
	<ellipse transform="matrix(0.299 -0.9543 0.9543 0.299 -6.2116 161.8768)" class="st33" cx="107.1" cy="85.2" rx="4.9" ry="10.4"/>
	<ellipse transform="matrix(0.299 -0.9543 0.9543 0.299 4.791 195.83)" class="st34" cx="135.7" cy="94.7" rx="5.9" ry="8.3"/>
</g>
<g id="eyes" class="st0">
	<g class="st2">
		<ellipse transform="matrix(0.522 -0.8529 0.8529 0.522 0.3182 137.1626)" class="st6" cx="122.5" cy="68.3" rx="12.2" ry="8.9"/>
		<g>
			<g>
				<defs>
					
						<ellipse id="SVGID_11_" transform="matrix(0.522 -0.8529 0.8529 0.522 0.3182 137.1626)" cx="122.5" cy="68.3" rx="12.2" ry="8.9"/>
				</defs>
				<clipPath id="SVGID_12_">
					<use xlink:href="#SVGID_11_"  style="overflow:visible;"/>
				</clipPath>
				
					<ellipse transform="matrix(0.522 -0.8529 0.8529 0.522 5.938306e-02 143.8862)" class="st35" cx="128.4" cy="71.9" rx="15.8" ry="11.7"/>
			</g>
		</g>
	</g>
	<g class="st2">
		<ellipse transform="matrix(0.5068 -0.862 0.862 0.5068 6.5737 179.5664)" class="st6" cx="160.2" cy="84" rx="12.2" ry="8.9"/>
		<g>
			<defs>
				
					<ellipse id="SVGID_13_" transform="matrix(0.5068 -0.862 0.862 0.5068 6.5737 179.5664)" cx="160.2" cy="84" rx="12.2" ry="8.9"/>
			</defs>
			<clipPath id="SVGID_14_">
				<use xlink:href="#SVGID_13_"  style="overflow:visible;"/>
			</clipPath>
			
				<ellipse transform="matrix(0.5068 -0.862 0.862 0.5068 6.4925 186.4007)" class="st36" cx="166.2" cy="87.5" rx="15.8" ry="11.7"/>
		</g>
	</g>
	<g class="st2">
		<path class="st32" d="M136.5,59.9c-0.4-3.3-2.5-6.1-5.6-7.2c0,0,0,0-0.1,0c-3-1.1-6.4-0.5-8.8,1.7l-0.7-0.7
			c2.7-2.4,6.5-3.1,9.9-1.8c3.4,1.3,5.8,4.4,6.2,8L136.5,59.9z"/>
	</g>
	<g class="st2">
		<path class="st32" d="M174.2,75.6c-0.4-3.3-2.5-6.1-5.6-7.2c0,0,0,0-0.1,0c-3-1.1-6.4-0.5-8.8,1.7l-0.7-0.7
			c2.7-2.4,6.5-3.1,9.9-1.8c3.4,1.3,5.8,4.4,6.2,8L174.2,75.6z"/>
	</g>
</g>
<g id="FrontHair" class="st0">
	<path class="st1" d="M75.3,64.6c4.4-3.1,11.2-8.9,16.5-18.1c8.6-14.8,8-29.3,7.5-35C82.5,17.8,75,26.4,71.2,32.8
		c-12.4,21,3.1,39-10.4,65c-6.7,12.8-13.3,14-15.1,25.7c-2.4,15.2,5.4,33.8,14.6,34.9c12.2,1.5,31.7-28,30.1-56.6
		C89.3,83.7,80,70.5,75.3,64.6z"/>
</g>
<g id="Bangs" class="st0">
	<path class="st1" d="M190.3,77.5c-6.3-13.1-16.6-29.3-31.8-30.2c-8.1-0.5-10.6,3.9-22,5.5C118.3,55.4,95,48.6,92,33.7
		c-1.5-7.6,2.4-16.6,7.3-22.2C115-6.4,152.6-3,173.1,18.7C192.7,39.5,190.8,70.6,190.3,77.5z"/>
</g>
</svg>
