<?xml version="1.0" encoding="utf-8"?>
<!-- Generator: Adobe Illustrator 23.0.1, SVG Export Plug-In . SVG Version: 6.00 Build 0)  -->
<svg version="1.1" xmlns="http://www.w3.org/2000/svg" xmlns:xlink="http://www.w3.org/1999/xlink" x="0px" y="0px"
	 viewBox="0 0 547.7 592.4" style="enable-background:new 0 0 547.7 592.4;" xml:space="preserve">
<style type="text/css">
	.st0{fill:#EACA81;}
	.st1{display:none;}
	.st2{display:inline;}
	.st3{fill:#E5E5E5;}
	.st4{fill:#FFFFFF;}
</style>
<g id="Layer_1">
	<path class="st0" d="M547.7,157.6C547.7,70.6,477.2,0,390.1,0S232.5,70.6,232.5,157.6c0,15.5,2.2,30.5,6.4,44.6
		c-26.9,39.7-59.5,82.4-87.2,108C107.1,351.4,56.1,384.7,0,409.1l79.9,183.3c76.6-33.4,146.4-78.9,207.4-135.2
		c44.7-41.3,88-99.8,117-142.6C484.7,307.4,547.7,239.9,547.7,157.6z"/>
</g>
<g id="Layer_3" class="st1">
	<g class="st2">
		<path class="st3" d="M386.4,125.2L386.4,125.2c0,12.9-10.4,23.3-23.3,23.3H298c-12.9,0-23.3-10.4-23.3-23.3c0,0,0,0,0,0
			c0-3.8,0-7.6,0-11.4c37.2,0,74.5,0,111.7,0"/>
		<path class="st4" d="M363.1,137H298c-12.9,0-23.3-10.4-23.3-23.3v0c0-12.9,10.4-23.3,23.3-23.3h65.1c12.9,0,23.3,10.4,23.3,23.3v0
			C386.4,126.6,375.9,137,363.1,137z"/>
	</g>
</g>
<g id="Layer_2" class="st1">
	<g class="st2">
		<path class="st3" d="M480.5,155.2L480.5,155.2c10.4,7.6,12.7,22.1,5.2,32.5l-38.3,52.7c-7.6,10.4-22.1,12.7-32.5,5.2c0,0,0,0,0,0
			c-3.1-2.2-6.2-4.5-9.2-6.7c21.9-30.1,43.7-60.3,65.6-90.4"/>
		<path class="st4" d="M476.4,181l-38.3,52.7c-7.6,10.4-22.1,12.7-32.5,5.2l0,0c-10.4-7.6-12.7-22.1-5.2-32.5l38.3-52.7
			c7.6-10.4,22.1-12.7,32.5-5.2l0,0C481.6,156,484,170.6,476.4,181z"/>
	</g>
</g>
</svg>
