<?xml version="1.0" encoding="utf-8"?>
<!-- Generator: Adobe Illustrator 23.0.1, SVG Export Plug-In . SVG Version: 6.00 Build 0)  -->
<svg version="1.1" xmlns="http://www.w3.org/2000/svg" xmlns:xlink="http://www.w3.org/1999/xlink" x="0px" y="0px"
	 viewBox="0 0 412.4 537.6" style="enable-background:new 0 0 412.4 537.6;" xml:space="preserve">
<style type="text/css">
	.st0{display:none;}
	.st1{display:inline;fill:#705C43;}
	.st2{display:inline;fill:#EFEFEF;}
	.st3{display:inline;fill:#FFFFFF;}
	.st4{display:inline;fill:#494234;}
	.st5{display:inline;}
	.st6{clip-path:url(#SVGID_2_);fill:#EACA81;}
	.st7{clip-path:url(#SVGID_2_);fill:#C170B6;}
	.st8{clip-path:url(#SVGID_2_);fill:#AA66A7;}
	.st9{clip-path:url(#SVGID_2_);fill:#626DD1;}
	.st10{clip-path:url(#SVGID_2_);fill:#7282DB;}
	.st11{display:inline;fill:#EACA81;}
	.st12{display:inline;fill:none;stroke:#494234;stroke-miterlimit:10;}
	.st13{display:inline;fill:#CEEA81;}
	.st14{display:inline;fill:#D19E78;}
	.st15{clip-path:url(#SVGID_4_);fill:#FFFFFF;}
	.st16{clip-path:url(#SVGID_4_);fill:#494234;}
	.st17{clip-path:url(#SVGID_6_);fill:#FFFFFF;}
	.st18{clip-path:url(#SVGID_6_);fill:#494234;}
	.st19{display:inline;fill:#D82A19;}
	.st20{fill:#FFFFFF;}
	.st21{fill:#EACA81;}
</style>
<g id="Layer_1" class="st0">
	<path class="st1" d="M357.6,75.6c1.5-1.5,2.4-3.4,2.4-5.4c0-5.1-5.6-9.2-12.6-9.2s-12.6,4.1-12.6,9.2c0,2,0.9,3.9,2.4,5.4h-5.5v3.3
		C305.6,39,260.6,12.7,209.4,12.7h0c-51.8,0-97.3,27-123.3,67.7v-4.7h-5.5c1.5-1.5,2.4-3.4,2.4-5.4c0-5.1-5.6-9.2-12.6-9.2
		s-12.6,4.1-12.6,9.2c0,2,0.9,3.9,2.4,5.4h-5.5v6.1H61v154.2h19.8v-13.1H338v13.1h19.8V81.7h5.4v-6.1H357.6z M80.8,81.7h4.5
		c-1.6,2.6-3.1,5.2-4.5,7.8V81.7z M333.5,81.7h4.5v7.7C336.5,86.8,335,84.2,333.5,81.7z"/>
	<path class="st2" d="M301.8,94.8H117.9c-13.8,0-25.6,9.9-28.1,23.6L47.9,345.3c-4.2,22.6,13,43.6,35.7,43.6h253.3
		c22.8,0,40-21,35.7-43.7l-42.7-226.8C327.4,104.7,315.6,94.8,301.8,94.8z"/>
	<path class="st3" d="M112.6,49.1c7-2.8,16.7-6.4,28.6-10c25.3-7.6,42.5-12.8,61.9-12.6c33.5,0.3,40.2,16.3,78.5,17.3
		c14.6,0.4,26.6-1.6,34.6-3.3c3,10.4,5.8,24,6,39.9c0.4,30.8-8.8,54.9-15.3,68.5c-22.4,3.7-47.1,6.6-73.8,8
		c-46.1,2.4-87.4-0.1-122.4-4.7c11.5-18.2,11.8-30.9,10-39.2c-3.1-14-13.2-19.1-15.3-33.9C103.6,66.8,108.4,56.1,112.6,49.1z"/>
</g>
<g id="Layer_11" class="st0">
	<path class="st4" d="M261.2,23.2c12.2,10.5,15.5,23.7,16.9,29.5c5.5,22-3.1,40-6.4,46.3c2.8,1.6,6.8,4.5,9.7,9.3
		c7.2,12-0.2,25.2-1.2,27.1c-9.3,16.7-43.9,18.5-56,19.2c-6.5,0.4-12.8,0.3-18.7,0c-12.1-0.7-46.5-2.6-56-19.2
		c-0.2-0.3-0.3-0.5-0.4-0.7c-1.1-2.1-7.6-14.9-0.8-26.4c1.2-2.1,4-5.9,9.7-9.3c-3.4-6.3-12-24.2-6.4-46.3
		c1.5-5.9,4.8-19.1,16.9-29.5C192,2.8,237.6,2.8,261.2,23.2z"/>
</g>
<g id="Layer_9" class="st0">
	<g class="st5">
		<defs>
			<path id="SVGID_1_" d="M253.6,149.8c0-12.3-12.4-22.3-27.6-22.3h-0.5H223v-16.2h-20.7v16.2h-2.6h-0.5c-15.2,0-27.6,10-27.6,22.3
				l-0.5,109.8c0,12.3,12.9,30.4,28.1,30.4l10.5-3.6c1.9-0.6,4-0.6,5.9,0L226,290c15.2,0,28.3-18.1,28.3-30.4L253.6,149.8z"/>
		</defs>
		<clipPath id="SVGID_2_">
			<use xlink:href="#SVGID_1_"  style="overflow:visible;"/>
		</clipPath>
		<path class="st6" d="M253.6,149.8c0-12.3-12.4-22.3-27.6-22.3h-0.5H223v-16.2h-20.7v16.2h-2.6h-0.5c-15.2,0-27.6,10-27.6,22.3
			l-0.5,109.8c0,12.3,12.9,30.4,28.1,30.4l10.5-3.6c1.9-0.6,4-0.6,5.9,0L226,290c15.2,0,28.3-18.1,28.3-30.4L253.6,149.8z"/>
		<polygon class="st7" points="231.9,123.2 212.7,138.8 193.5,123.2 159.8,123.2 159.8,248.5 202.2,248.5 223.2,248.5 265.6,248.5 
			265.6,123.2 		"/>
		<rect x="157.6" y="242" class="st8" width="110.2" height="6.4"/>
		<rect x="159" y="248.4" class="st9" width="100.8" height="48.4"/>
		<polygon class="st8" points="251.1,107.8 207.5,143 213.1,147.6 256.7,112.4 		"/>
		<rect x="155.2" y="248.4" class="st10" width="115.1" height="7.5"/>
		<polygon class="st8" points="174.7,108.2 218.3,143.4 212.7,147.9 169.1,112.7 		"/>
	</g>
</g>
<g id="Layer_10" class="st0">
	<path class="st11" d="M198.2,119.6c-19.5-1.1-35-17.3-35-37.1V57.7c0-20.4,16.7-37.1,37.1-37.1h24.8c20.4,0,37.1,16.7,37.1,37.1
		v24.8c0,20.4-16.7,37.1-37.1,37.1L198.2,119.6z"/>
</g>
<g id="Layer_7" class="st0">
	<path class="st12" d="M192.4,94.3c2.5-3.2,5.8-6.4,9-6.1c4.3,0.3,5.3,6.4,9.4,6.5c4.1,0.1,5.7-6.1,10.5-6.4
		c3.7-0.2,7.2,3.1,9.6,5.9"/>
</g>
<g id="Layer_6" class="st0">
	<ellipse class="st13" cx="243.3" cy="79.7" rx="9.1" ry="4.3"/>
	<ellipse class="st13" cx="181.2" cy="79.7" rx="9.1" ry="4.3"/>
	<ellipse class="st14" cx="212.7" cy="75.8" rx="7.3" ry="5.2"/>
</g>
<g id="Layer_5" class="st0">
	<g class="st5">
		<defs>
			<path id="SVGID_3_" d="M197.9,60.2c0,6.7-3.5,12.2-7.9,12.2s-7.9-5.4-7.9-12.2s3.5-6.1,7.9-6.1S197.9,53.5,197.9,60.2z"/>
		</defs>
		<clipPath id="SVGID_4_">
			<use xlink:href="#SVGID_3_"  style="overflow:visible;"/>
		</clipPath>
		<path class="st15" d="M197.9,60.2c0,6.7-3.5,12.2-7.9,12.2s-7.9-5.4-7.9-12.2s3.5-6.1,7.9-6.1S197.9,53.5,197.9,60.2z"/>
		<ellipse class="st16" cx="199.2" cy="71.1" rx="19.5" ry="13.3"/>
	</g>
	<g class="st5">
		<defs>
			<path id="SVGID_5_" d="M227,60.2c0,6.7,3.5,12.2,7.9,12.2s7.9-5.4,7.9-12.2s-3.5-6.1-7.9-6.1S227,53.5,227,60.2z"/>
		</defs>
		<clipPath id="SVGID_6_">
			<use xlink:href="#SVGID_5_"  style="overflow:visible;"/>
		</clipPath>
		<path class="st17" d="M227,60.2c0,6.7,3.5,12.2,7.9,12.2s7.9-5.4,7.9-12.2s-3.5-6.1-7.9-6.1S227,53.5,227,60.2z"/>
		<ellipse class="st18" cx="225.7" cy="71.1" rx="19.5" ry="13.3"/>
	</g>
</g>
<g id="Layer_4" class="st0">
	<path class="st12" d="M225.6,48.7c1.4,0.9,3.2,1.8,5.4,2.4c6.8,1.6,12.4-1.7,14.3-2.9"/>
	<path class="st12" d="M200.3,48.7c-1.4,0.9-3.2,1.8-5.4,2.4c-6.8,1.6-12.4-1.7-14.3-2.9"/>
</g>
<g id="Layer_8" class="st0">
	<path class="st4" d="M268,48c-9.6-8.8-23.9-18.9-37.9-15.6c-7.5,1.8-8.4,5.9-18.4,10.2c-15.7,6.8-38.9,7.6-46.1-3.5
		c-3.7-5.7-2.8-13.8,0-19.5c8.9-18.4,44-25.6,69.2-13.7C258.8,17.2,266.4,42.5,268,48z"/>
</g>
<g id="Layer_2" class="st0">
	<polygon class="st19" points="402.6,387.7 15,387.7 90,140.4 331.6,139.4 	"/>
	<path class="st1" d="M412.4,360h-6.1c2.1-2.1,3.4-4.7,3.4-7.6c0-6.9-7.5-12.6-16.7-12.6c-9.2,0-16.7,5.6-16.7,12.6
		c0,2.9,1.3,5.5,3.4,7.6h-6.1v6h4.3v13H34.5v-16h4.3v-6h-6.9c2.6-2.2,4.2-5.1,4.2-8.3c0-6.9-7.5-12.6-16.7-12.6
		c-9.2,0-16.7,5.6-16.7,12.6c0,3.2,1.6,6.1,4.2,8.3H0v6h4.3v174.6h30.2v-53.3h343.5v53.3h30.2V366h4.3V360z"/>
</g>
<g id="Layer_3">
	<path class="st20" d="M72.8,179.6c-1.9-3-0.5-10.2,2.4-24.8c0.3-1.6,1.2-7,4.7-10.4c0,0,2.8-3.1,7.1-4.6
		c12.7-4.4,109.9-4.3,126.4-4.6c58.3-1,90-24.5,122.3,1.3c4.2,3.3,7.1,6.5,7.1,6.5c1.8,2.9,2.3,5.7,3,11.7c1.3,13,2,19.5-0.6,22.8
		c-3,3.8-8.1,3.9-10.6,3.9c-25.7,0-93.9-8.4-125.2-7.8c-32.4,0.6-96.3,11.9-124,11.1C82.5,184.7,75.9,184.4,72.8,179.6z"/>
	<circle class="st21" cx="151.2" cy="136.4" r="12"/>
	<circle class="st21" cx="274.2" cy="128.1" r="12"/>
</g>
</svg>
