<?xml version="1.0" encoding="utf-8"?>
<!-- Generator: Adobe Illustrator 23.0.1, SVG Export Plug-In . SVG Version: 6.00 Build 0)  -->
<svg version="1.1" xmlns="http://www.w3.org/2000/svg" xmlns:xlink="http://www.w3.org/1999/xlink" x="0px" y="0px"
	 viewBox="0 0 55.8 29" style="enable-background:new 0 0 55.8 29;" xml:space="preserve">
<style type="text/css">
	.st0{display:none;}
	.st1{display:inline;}
	.st2{fill:#FFFFFF;}
</style>
<g id="Layer_2" class="st0">
	<g class="st1">
		<path class="st2" d="M31.2,29h-6.5c-1.2,0-2.3-0.6-3-1.7c-0.6-1.1-0.6-2.3,0-3.4l3.3-5.6c0.6-1.1,1.7-1.7,3-1.7
			c1.2,0,2.3,0.6,3,1.7l3.3,5.6c0.6,1.1,0.6,2.3,0,3.4C33.5,28.3,32.4,29,31.2,29z M27.9,18.9c-0.2,0-0.6,0.1-0.9,0.5h0L23.7,25
			c-0.3,0.5-0.1,0.9,0,1.1c0.1,0.2,0.4,0.5,0.9,0.5h6.5c0.6,0,0.8-0.4,0.9-0.5c0.1-0.2,0.3-0.6,0-1.1l-3.3-5.6
			C28.6,18.9,28.1,18.9,27.9,18.9z"/>
	</g>
	<g class="st1">
		<path class="st2" d="M54.5,14.5H1.3c-0.7,0-1.3-0.6-1.3-1.3s0.6-1.3,1.3-1.3h53.2c0.7,0,1.3,0.6,1.3,1.3S55.2,14.5,54.5,14.5z"/>
	</g>
</g>
<g id="Layer_3" class="st0">
	<g class="st1">
		<path class="st2" d="M31.2,29h-6.5c-1.2,0-2.3-0.6-3-1.7c-0.6-1.1-0.6-2.3,0-3.4l3.3-5.6c0.6-1.1,1.7-1.7,3-1.7
			c1.2,0,2.3,0.6,3,1.7l3.3,5.6c0.6,1.1,0.6,2.3,0,3.4C33.5,28.3,32.4,29,31.2,29z M27.9,18.9c-0.2,0-0.6,0.1-0.9,0.5h0L23.7,25
			c-0.3,0.5-0.1,0.9,0,1.1c0.1,0.2,0.4,0.5,0.9,0.5h6.5c0.6,0,0.8-0.4,0.9-0.5c0.1-0.2,0.3-0.6,0-1.1l-3.3-5.6
			C28.6,18.9,28.1,18.9,27.9,18.9z"/>
	</g>
	<g class="st1">
		<path class="st2" d="M54.1,18.2L1.4,10.7C0.7,10.6,0.2,10,0.3,9.2C0.4,8.5,1,8,1.8,8.1l52.7,7.5c0.7,0.1,1.2,0.8,1.1,1.5
			C55.4,17.8,54.8,18.3,54.1,18.2z"/>
	</g>
</g>
<g id="Layer_4">
	<g>
		<path class="st2" d="M31.2,29h-6.5c-1.2,0-2.3-0.6-3-1.7c-0.6-1.1-0.6-2.3,0-3.4l3.3-5.6c0.6-1.1,1.7-1.7,3-1.7
			c1.2,0,2.3,0.6,3,1.7l3.3,5.6c0.6,1.1,0.6,2.3,0,3.4C33.5,28.3,32.4,29,31.2,29z M27.9,18.9c-0.2,0-0.6,0.1-0.9,0.5h0L23.7,25
			c-0.3,0.5-0.1,0.9,0,1.1c0.1,0.2,0.4,0.5,0.9,0.5h6.5c0.6,0,0.8-0.4,0.9-0.5c0.1-0.2,0.3-0.6,0-1.1l-3.3-5.6
			C28.6,18.9,28.1,18.9,27.9,18.9z"/>
	</g>
	<g>
		<path class="st2" d="M51.1,26.2L3.5,2.5C2.9,2.2,2.6,1.4,2.9,0.7S4-0.2,4.7,0.1l47.6,23.7c0.6,0.3,0.9,1.1,0.6,1.8
			C52.6,26.3,51.8,26.5,51.1,26.2z"/>
	</g>
</g>
<g id="Layer_5" class="st0">
	<g class="st1">
		<path class="st2" d="M21.7,27.3c-0.6-1.1-0.6-2.3,0-3.4l3.3-5.6c0.6-1.1,1.7-1.7,3-1.7c1.2,0,2.3,0.6,3,1.7l3.3,5.6
			c0.6,1.1,0.6,2.3,0,3.4c-0.6,1.1-1.7,1.7-3,1.7h-6.5C23.4,29,22.3,28.3,21.7,27.3z M27,19.4L23.7,25c-0.3,0.5-0.1,0.9,0,1.1
			c0.1,0.2,0.4,0.5,0.9,0.5h6.5c0.6,0,0.8-0.4,0.9-0.5c0.1-0.2,0.3-0.6,0-1.1l-3.3-5.6h0c-0.3-0.5-0.7-0.5-0.9-0.5
			C27.7,18.9,27.3,18.9,27,19.4z"/>
	</g>
	<g class="st1">
		<path class="st2" d="M4.7,26.2L52.3,2.5c0.6-0.3,0.9-1.1,0.6-1.8c-0.3-0.6-1.1-0.9-1.8-0.6L3.5,23.9c-0.6,0.3-0.9,1.1-0.6,1.8
			S4,26.5,4.7,26.2z"/>
	</g>
</g>
</svg>
