<?xml version="1.0" encoding="utf-8"?>
<!-- Generator: Adobe Illustrator 23.0.1, SVG Export Plug-In . SVG Version: 6.00 Build 0)  -->
<svg version="1.1" id="Layer_1" xmlns="http://www.w3.org/2000/svg" xmlns:xlink="http://www.w3.org/1999/xlink" x="0px" y="0px"
	 viewBox="0 0 361.8 563.7" style="enable-background:new 0 0 361.8 563.7;" xml:space="preserve">
<style type="text/css">
	.st0{fill:#666666;}
	.st1{fill:#424242;}
	.st2{fill:#545454;}
	.st3{fill:#5B5B5B;}
	.st4{fill:#6B6B6B;}
	.st5{fill:#515151;}
	.st6{fill:#777777;}
	.st7{fill:none;stroke:#444444;stroke-width:2;stroke-miterlimit:10;}
	.st8{fill:#595959;}
	.st9{fill:#8E8E8E;}
	.st10{fill:#878787;}
	.st11{fill:#F4F4F4;}
	.st12{fill:#FFFFFF;}
	.st13{fill:#6ACBE5;}
	.st14{fill:none;stroke:#397DB5;stroke-width:6;stroke-miterlimit:10;}
	.st15{fill:none;stroke:#397DB5;stroke-width:2;stroke-miterlimit:10;}
	.st16{fill:#E8BE0F;}
</style>
<g>
	<polygon class="st0" points="253.6,29.6 169,93.7 169,116.9 169,563.7 338.2,490.4 338.2,74.4 338.2,53.6 	"/>
	<polygon class="st1" points="320.6,94.4 320.6,168 200.7,195.2 207,120.3 	"/>
	<polygon class="st2" points="169,116.8 169,93.7 0.3,55.2 0.3,74.4 0.3,490.4 169.5,563.7 169.5,116.9 	"/>
	<polygon class="st3" points="0.3,55.3 111.6,0 253.6,29.6 169,93.7 	"/>
	<polygon class="st4" points="190.8,113 191.8,222.9 234.7,142.6 	"/>
	<polygon class="st5" points="320.6,78.4 321.6,181.5 361.8,106.1 	"/>
	<polygon class="st6" points="234.7,142.6 361.8,106.1 320.6,78.4 190.8,113 	"/>
	<polygon class="st3" points="216.1,177.5 345,137.6 321.6,181.5 191.8,222.9 	"/>
	<polygon class="st7" points="178.2,232 329,184.3 329,485.6 178.2,548.6 	"/>
	<polyline class="st7" points="338.2,176.1 169,230 0.3,180.8 	"/>
	<circle class="st8" cx="208.7" cy="180.2" r="2.9"/>
	<circle class="st8" cx="195.3" cy="168" r="2.9"/>
	<circle class="st9" cx="194.9" cy="167.5" r="1.5"/>
	<circle class="st9" cx="208.2" cy="179.8" r="1.5"/>
	<circle class="st0" cx="132.6" cy="235.4" r="2.9"/>
	<circle class="st10" cx="132.2" cy="234.9" r="1.5"/>
	<circle class="st0" cx="95.3" cy="223.4" r="2.9"/>
	<circle class="st10" cx="94.8" cy="222.9" r="1.5"/>
	<circle class="st0" cx="132.6" cy="268.8" r="2.9"/>
	<circle class="st10" cx="132.2" cy="268.4" r="1.5"/>
	<circle class="st0" cx="94.4" cy="255.8" r="2.9"/>
	<circle class="st10" cx="93.9" cy="255.3" r="1.5"/>
	<circle class="st8" cx="224.8" cy="81.3" r="2.9"/>
	<circle class="st9" cx="224.3" cy="80.8" r="1.5"/>
	<circle class="st8" cx="298.4" cy="64.8" r="2.9"/>
	<circle class="st9" cx="298" cy="64.3" r="1.5"/>
	<line class="st7" x1="169" y1="116.9" x2="338.2" y2="74.4"/>
	<polygon class="st11" points="317.1,215.3 194.1,254.3 193.7,451.6 317.1,405.1 	"/>
	<polygon class="st12" points="245.5,135.3 348.9,105.6 315.4,83.1 209.8,111.3 	"/>
	<polygon class="st13" points="317.1,215.3 194.1,254.3 193.7,382.3 317.1,341 	"/>
	<polygon class="st14" points="317.1,215.3 194.1,254.3 193.7,451.6 317.1,405.1 	"/>
	<polygon class="st13" points="221.1,118.9 325.3,89.8 315.4,83.1 209.8,111.3 	"/>
	<polygon class="st15" points="245.5,135.3 348.9,105.6 315.4,83.1 209.8,111.3 	"/>
	<polygon class="st11" points="21.4,259.9 144.3,298.9 144.7,496.1 21.4,449.7 	"/>
	<polygon class="st13" points="21.4,259.9 144.3,298.9 144.8,426.8 21.4,385.6 	"/>
	<polygon class="st14" points="21.4,259.9 144.3,298.9 144.7,496.1 21.4,449.7 	"/>
	<g>
		<path class="st12" d="M210.2,298.4c0,1.5-0.5,2.8-1.5,4c-1,1.2-2.3,2.1-4,2.7c-1.6,0.6-2.9,0.7-4.1,0.5l0-3.2
			c1,0.1,1.8,0.2,2.5,0.2c0.7,0,1.3-0.2,1.9-0.4c0.7-0.2,1.2-0.6,1.6-1c0.4-0.4,0.6-0.9,0.6-1.5c0-0.3-0.1-0.6-0.2-0.8
			c-0.2-0.2-0.4-0.4-0.7-0.5c-0.3-0.1-0.9-0.3-1.9-0.4c-0.9-0.2-1.6-0.4-2-0.7c-0.4-0.3-0.8-0.7-1.1-1.1c-0.3-0.5-0.4-1.1-0.4-1.9
			c0-1.5,0.5-2.8,1.3-3.9c0.9-1.1,2.1-2,3.6-2.5c0.8-0.3,1.5-0.4,2.2-0.5c0.7,0,1.4,0,2.2,0.1l-1,3.1c-0.8-0.1-1.4-0.1-1.9-0.1
			c-0.5,0-1,0.1-1.5,0.3c-0.6,0.2-1,0.5-1.4,0.9c-0.3,0.4-0.5,0.9-0.5,1.4c0,0.3,0.1,0.6,0.2,0.7s0.3,0.3,0.6,0.5s0.9,0.3,2,0.5
			c1.4,0.3,2.3,0.7,2.8,1.2C210,296.5,210.2,297.3,210.2,298.4z"/>
		<path class="st12" d="M219.7,299.6l-0.6-1.5l-0.1,0c-0.5,0.9-1.1,1.6-1.6,2.1c-0.5,0.5-1.3,0.9-2.1,1.2c-1.1,0.4-1.9,0.3-2.5-0.1
			c-0.6-0.5-0.9-1.4-0.9-2.6c0-1.3,0.4-2.5,1.3-3.4c0.8-0.9,2.1-1.7,3.8-2.4l1.9-0.8l0-0.6c0-1.3-0.6-1.7-1.7-1.3
			c-0.9,0.3-1.9,1-3.2,2l-1-2c1.3-1.2,2.7-2.1,4.3-2.6c1.5-0.5,2.6-0.6,3.4-0.1c0.8,0.5,1.2,1.4,1.2,2.9l-0.1,8.4L219.7,299.6z
			 M218.8,294.1l-1.2,0.5c-0.9,0.3-1.5,0.8-2,1.2c-0.4,0.5-0.7,1.1-0.7,1.7c0,1,0.5,1.3,1.5,0.9c0.7-0.2,1.3-0.7,1.7-1.3
			s0.6-1.3,0.7-2.1L218.8,294.1z"/>
		<path class="st12" d="M231.2,285.6l-2.6,0.9l-0.1,10l-3.1,1.1l0.1-10l-1.7,0.6l0-1.7l1.7-1.5l0-0.9c0-1.4,0.3-2.6,1-3.5
			c0.6-0.9,1.6-1.6,3-2.1c1.1-0.4,2-0.5,2.8-0.5l-0.8,2.8c-0.6,0-1.2,0.1-1.7,0.3c-0.4,0.2-0.7,0.4-0.9,0.8
			c-0.2,0.4-0.3,0.8-0.3,1.2l0,0.8l2.6-0.9L231.2,285.6z"/>
		<path class="st12" d="M237.9,293.4c-1.8,0.6-3.2,0.6-4.2-0.2c-1-0.8-1.5-2.2-1.5-4.2c0-2.1,0.5-3.9,1.5-5.4
			c0.9-1.5,2.2-2.5,3.9-3.1c1.6-0.6,2.8-0.5,3.7,0.2s1.3,2,1.3,3.7l0,1.7l-7.2,2.5c0,1,0.3,1.6,0.7,2c0.5,0.4,1.1,0.4,2,0.1
			c0.7-0.2,1.3-0.5,1.9-0.9c0.6-0.4,1.2-0.8,1.9-1.4l0,2.7c-0.5,0.5-1.1,0.9-1.7,1.3S238.8,293.1,237.9,293.4z M237.6,282.9
			c-0.6,0.2-1.2,0.6-1.5,1.2c-0.4,0.6-0.6,1.3-0.6,2.2l4.3-1.5c0-0.8-0.2-1.4-0.6-1.8C238.8,282.8,238.3,282.7,237.6,282.9z"/>
		<path class="st12" d="M207.4,331.6l-3.4-11.7l-0.1,0c0.1,2.6,0.1,4.3,0.1,5.2l-0.1,7.7l-2.8,1l0.2-16.5l4.2-1.5l3.3,11.4l0.1,0
			l3.8-13.9l4.2-1.5l-0.2,16.5l-2.9,1l0.1-7.8c0-0.4,0-0.8,0-1.3c0-0.5,0.1-1.8,0.2-3.9l-0.1,0l-3.9,14.2L207.4,331.6z"/>
		<path class="st12" d="M225.4,325.5c-1.8,0.6-3.2,0.6-4.2-0.2c-1-0.8-1.5-2.2-1.5-4.2c0-2.1,0.5-3.9,1.5-5.4
			c0.9-1.5,2.2-2.5,3.9-3.1c1.6-0.6,2.8-0.5,3.7,0.2c0.9,0.7,1.3,2,1.3,3.7l0,1.7l-7.2,2.5c0,1,0.3,1.6,0.7,2c0.5,0.4,1.1,0.4,2,0.1
			c0.7-0.2,1.3-0.5,1.9-0.9c0.6-0.4,1.2-0.8,1.9-1.4l0,2.7c-0.5,0.5-1.1,0.9-1.7,1.3C227,324.8,226.3,325.2,225.4,325.5z M225.1,315
			c-0.6,0.2-1.2,0.6-1.5,1.2c-0.4,0.6-0.6,1.3-0.6,2.2l4.3-1.5c0-0.8-0.2-1.4-0.6-1.8C226.2,314.8,225.7,314.8,225.1,315z"/>
		<path class="st12" d="M236,321.7c-1.3,0.5-2.3,0.3-3.1-0.6c-0.7-0.9-1.1-2.3-1.1-4.4c0-2.1,0.4-3.8,1.2-5.2
			c0.8-1.4,1.8-2.4,3.2-2.8c1.4-0.5,2.5-0.3,3.2,0.7l0.1,0c-0.1-0.9-0.2-1.7-0.2-2.4l0-4l3.1-1.1l-0.2,17.6l-2.3,0.8l-0.6-1.4
			l-0.1,0C238.5,320.3,237.4,321.2,236,321.7z M237.1,318.6c0.8-0.3,1.4-0.7,1.7-1.4c0.4-0.6,0.6-1.6,0.6-2.8l0-0.4
			c0-1.4-0.2-2.3-0.5-2.7c-0.4-0.5-1-0.5-1.8-0.2c-0.7,0.2-1.2,0.8-1.6,1.5c-0.4,0.8-0.6,1.8-0.6,3c0,1.2,0.2,2.1,0.5,2.6
			C235.8,318.8,236.4,318.9,237.1,318.6z"/>
		<path class="st12" d="M245.4,302.4c0-1.1,0.6-1.9,1.7-2.3s1.7,0,1.6,1.1c0,0.5-0.1,1-0.4,1.4c-0.3,0.4-0.7,0.7-1.2,0.9
			C246,303.9,245.4,303.5,245.4,302.4z M248.4,317.1l-3.1,1.1l0.1-12.6l3.1-1.1L248.4,317.1z"/>
		<path class="st12" d="M256.2,314.6c-3.5,1.2-5.2-0.3-5.2-4.6c0-2.1,0.5-3.9,1.5-5.4c1-1.5,2.3-2.5,4.1-3.1
			c1.3-0.5,2.5-0.6,3.5-0.4l-0.9,3c-0.5,0-0.9-0.1-1.3-0.1s-0.8,0.1-1.2,0.2c-1.6,0.6-2.4,2.1-2.4,4.7c0,2.5,0.8,3.4,2.3,2.9
			c0.6-0.2,1.1-0.5,1.6-0.8c0.5-0.4,1-0.8,1.5-1.4l0,2.9c-0.5,0.5-1,0.9-1.5,1.3C257.6,314.1,256.9,314.4,256.2,314.6z"/>
		<path class="st12" d="M269.3,309.8l-0.6-1.5l-0.1,0c-0.5,0.9-1.1,1.6-1.6,2.1s-1.3,0.9-2.1,1.2c-1.1,0.4-1.9,0.3-2.5-0.1
			c-0.6-0.5-0.9-1.4-0.9-2.6c0-1.3,0.4-2.5,1.3-3.4c0.8-0.9,2.1-1.7,3.8-2.4l1.9-0.8l0-0.6c0-1.3-0.6-1.7-1.7-1.3
			c-0.9,0.3-1.9,1-3.2,2l-1-2c1.3-1.2,2.7-2.1,4.3-2.6c1.5-0.5,2.6-0.6,3.4-0.1c0.8,0.5,1.2,1.4,1.2,2.9l-0.1,8.4L269.3,309.8z
			 M268.4,304.3l-1.2,0.5c-0.9,0.3-1.5,0.8-2,1.2c-0.4,0.5-0.7,1.1-0.7,1.7c0,1,0.5,1.3,1.5,0.9c0.7-0.2,1.3-0.7,1.7-1.3
			c0.4-0.6,0.6-1.3,0.7-2.1L268.4,304.3z"/>
		<path class="st12" d="M279.3,303.7c0.5-0.2,1.2-0.5,1.9-1.1l0,2.6c-0.8,0.7-1.7,1.2-2.8,1.6c-1.2,0.4-2.1,0.4-2.7-0.1
			c-0.5-0.5-0.8-1.4-0.8-2.8l0.1-6.1l-1.5,0.5l0-1.5l1.7-1.7l0.9-3l2-0.7l0,2.7l3.1-1.1l0,2.6l-3.1,1.1l-0.1,6.1
			c0,0.5,0.1,0.8,0.4,1S278.9,303.9,279.3,303.7z"/>
		<path class="st12" d="M283.5,289c0-1.1,0.6-1.9,1.7-2.3c1.1-0.4,1.7,0,1.6,1.1c0,0.5-0.1,1-0.4,1.4c-0.3,0.4-0.7,0.7-1.2,0.9
			C284,290.5,283.5,290.1,283.5,289z M286.5,303.7l-3.1,1.1l0.1-12.6l3.1-1.1L286.5,303.7z"/>
		<path class="st12" d="M299.9,292.7c0,2.1-0.5,3.8-1.5,5.3s-2.3,2.5-4,3.2c-1.1,0.4-2,0.4-2.8,0.2s-1.4-0.8-1.9-1.6
			s-0.6-1.9-0.6-3.2c0-2.1,0.5-3.8,1.5-5.3c1-1.5,2.3-2.5,4-3.1c1.1-0.4,2-0.4,2.8-0.2c0.8,0.2,1.4,0.8,1.9,1.6
			C299.7,290.3,299.9,291.3,299.9,292.7z M292.2,295.4c0,1.2,0.2,2.1,0.5,2.6s0.9,0.6,1.8,0.3c0.8-0.3,1.4-0.8,1.8-1.6
			s0.6-1.8,0.6-3c0-1.2-0.2-2.1-0.5-2.6c-0.4-0.5-0.9-0.6-1.8-0.3c-0.8,0.3-1.4,0.8-1.8,1.6C292.4,293.1,292.2,294.1,292.2,295.4z"
			/>
		<path class="st12" d="M312.7,294.5l-3.1,1.1l0.1-7.4c0-0.9-0.1-1.5-0.4-1.9c-0.3-0.4-0.7-0.4-1.4-0.2c-0.9,0.3-1.5,0.8-1.9,1.6
			c-0.4,0.8-0.6,1.9-0.6,3.4l-0.1,5.9l-3.1,1.1l0.1-12.6l2.3-0.8l0.4,1.5l0.2-0.1c0.3-0.7,0.8-1.4,1.4-1.9c0.6-0.5,1.3-0.9,2-1.2
			c1.3-0.5,2.3-0.4,2.9,0.1c0.7,0.6,1,1.6,1,3.1L312.7,294.5z"/>
		<path class="st12" d="M213.2,348.8c0,2.7-0.7,5-2.1,7c-1.4,1.9-3.4,3.3-6,4.3l-4.1,1.5l0.2-16.5l4.6-1.6c2.4-0.8,4.2-0.8,5.5,0.2
			C212.6,344.5,213.2,346.3,213.2,348.8z M210,350c0-3.5-1.3-4.8-4.1-3.8l-1.7,0.6l-0.1,10.7l1.3-0.5C208.4,356,209.9,353.7,210,350
			z"/>
		<path class="st12" d="M215.9,340.4c0-1.1,0.6-1.9,1.7-2.3c1.1-0.4,1.7,0,1.6,1.1c0,0.5-0.1,1-0.4,1.4c-0.3,0.4-0.7,0.7-1.2,0.9
			C216.5,341.9,215.9,341.5,215.9,340.4z M219,355.2l-3.1,1.1l0.1-12.6l3.1-1.1L219,355.2z"/>
		<path class="st12" d="M230,347.5c0,1.3-0.4,2.4-1.2,3.4c-0.8,1-2,1.7-3.6,2.3c-0.8,0.3-1.5,0.5-2.1,0.5c-0.6,0.1-1.1,0.1-1.6,0
			l0-2.8c0.6,0.1,1.2,0.1,1.9,0.1c0.7,0,1.3-0.2,1.9-0.4c1.1-0.4,1.7-0.9,1.7-1.7c0-0.3-0.1-0.5-0.2-0.6c-0.1-0.1-0.4-0.2-0.8-0.3
			c-0.4-0.1-0.8-0.2-1.4-0.2c-0.9-0.1-1.5-0.3-1.9-0.5c-0.4-0.2-0.7-0.5-0.9-0.9s-0.3-0.9-0.3-1.6c0-1.1,0.4-2.1,1.2-3
			s1.9-1.6,3.3-2.1c1.3-0.5,2.7-0.6,3.9-0.4l-0.9,2.8c-0.6-0.1-1.1-0.1-1.6-0.1s-1,0.1-1.5,0.3c-0.9,0.3-1.4,0.8-1.4,1.3
			c0,0.3,0.1,0.5,0.4,0.6c0.3,0.1,0.9,0.2,1.9,0.3c0.9,0.1,1.5,0.2,1.9,0.4c0.4,0.2,0.7,0.5,0.9,0.9
			C229.9,346.4,230,346.9,230,347.5z"/>
		<path class="st12" d="M238.5,348.5c-1.3,0.5-2.3,0.3-3.1-0.5l-0.2,0.1c0.1,1,0.1,1.6,0.1,1.8l-0.1,5.1l-3.1,1.1l0.2-18.2l2.5-0.9
			l0.4,1.5l0.1,0c0.7-1.5,1.8-2.5,3.2-3c1.3-0.5,2.3-0.3,3.1,0.6c0.7,0.9,1.1,2.4,1.1,4.4c0,1.3-0.2,2.6-0.6,3.7
			c-0.4,1.1-0.9,2-1.5,2.8S239.3,348.2,238.5,348.5z M237.7,338.5c-0.8,0.3-1.3,0.7-1.7,1.4c-0.4,0.6-0.5,1.6-0.6,2.8l0,0.4
			c0,1.4,0.2,2.3,0.5,2.7c0.4,0.5,0.9,0.6,1.7,0.3c1.4-0.5,2.1-2,2.1-4.5c0-1.2-0.1-2.1-0.5-2.6S238.4,338.2,237.7,338.5z"/>
		<path class="st12" d="M255.5,336c0,2.1-0.5,3.8-1.5,5.3s-2.3,2.5-4,3.2c-1.1,0.4-2,0.4-2.8,0.2c-0.8-0.2-1.4-0.8-1.9-1.6
			c-0.4-0.8-0.6-1.9-0.6-3.2c0-2.1,0.5-3.8,1.5-5.3c1-1.5,2.3-2.5,4-3.1c1.1-0.4,2-0.4,2.8-0.2c0.8,0.2,1.4,0.8,1.9,1.6
			C255.3,333.6,255.5,334.6,255.5,336z M247.8,338.7c0,1.2,0.2,2.1,0.5,2.6c0.4,0.5,0.9,0.6,1.8,0.3c0.8-0.3,1.4-0.8,1.8-1.6
			c0.4-0.8,0.6-1.8,0.6-3c0-1.2-0.2-2.1-0.5-2.6c-0.4-0.5-0.9-0.6-1.8-0.3c-0.8,0.3-1.4,0.8-1.8,1.6S247.8,337.4,247.8,338.7z"/>
		<path class="st12" d="M265.8,334.9c0,1.3-0.4,2.4-1.2,3.4c-0.8,1-2,1.7-3.6,2.3c-0.8,0.3-1.5,0.5-2.1,0.5s-1.1,0.1-1.6,0l0-2.8
			c0.6,0.1,1.2,0.1,1.9,0.1c0.7,0,1.3-0.2,1.9-0.4c1.1-0.4,1.7-0.9,1.7-1.7c0-0.3-0.1-0.5-0.2-0.6c-0.1-0.1-0.4-0.2-0.8-0.3
			c-0.4-0.1-0.8-0.2-1.4-0.2c-0.9-0.1-1.5-0.3-1.9-0.5s-0.7-0.5-0.9-0.9c-0.2-0.4-0.3-0.9-0.3-1.6c0-1.1,0.4-2.1,1.2-3
			c0.8-0.9,1.9-1.6,3.3-2.1c1.3-0.5,2.7-0.6,3.9-0.4l-0.9,2.8c-0.6-0.1-1.1-0.1-1.6-0.1s-1,0.1-1.5,0.3c-0.9,0.3-1.4,0.8-1.4,1.3
			c0,0.3,0.1,0.5,0.4,0.6c0.3,0.1,0.9,0.2,1.9,0.3c0.9,0.1,1.5,0.2,1.9,0.4s0.7,0.5,0.9,0.9C265.7,333.8,265.8,334.3,265.8,334.9z"
			/>
		<path class="st12" d="M275.3,335.3l-0.6-1.5l-0.1,0c-0.5,0.9-1.1,1.6-1.6,2.1c-0.5,0.5-1.3,0.9-2.1,1.2c-1.1,0.4-1.9,0.3-2.5-0.1
			c-0.6-0.5-0.9-1.4-0.9-2.6c0-1.3,0.4-2.5,1.3-3.4s2.1-1.7,3.8-2.4l1.9-0.8l0-0.6c0-1.3-0.6-1.7-1.7-1.3c-0.9,0.3-1.9,1-3.2,2l-1-2
			c1.3-1.2,2.7-2.1,4.3-2.6c1.5-0.5,2.6-0.6,3.4-0.1c0.8,0.5,1.2,1.4,1.2,2.9l-0.1,8.4L275.3,335.3z M274.4,329.8l-1.2,0.5
			c-0.9,0.3-1.5,0.8-2,1.2c-0.4,0.5-0.7,1.1-0.7,1.7c0,1,0.5,1.3,1.5,0.9c0.7-0.2,1.3-0.7,1.7-1.3c0.4-0.6,0.6-1.3,0.7-2.1
			L274.4,329.8z"/>
		<path class="st12" d="M283.6,332.4l-3.1,1.1l0.2-17.6l3.1-1.1L283.6,332.4z"/>
	</g>
	<g>
		<path class="st12" d="M35.4,311.6c0,1.5-0.4,2.5-1.3,3c-0.9,0.5-2.3,0.5-4-0.1c-1.6-0.5-3-1.3-4.2-2.4l-0.1-3.2
			c1,0.8,1.9,1.5,2.5,1.9s1.3,0.7,1.9,0.9c0.7,0.2,1.2,0.3,1.6,0.1c0.4-0.2,0.5-0.5,0.5-1.1c0-0.3-0.1-0.6-0.3-0.9
			c-0.2-0.3-0.4-0.6-0.7-1s-1-0.9-1.9-1.8c-0.9-0.8-1.6-1.5-2.1-2c-0.5-0.6-0.8-1.2-1.1-1.9c-0.3-0.7-0.4-1.4-0.5-2.2
			c0-1.5,0.4-2.5,1.2-3c0.9-0.5,2.1-0.5,3.6,0c0.8,0.3,1.5,0.6,2.2,1s1.4,1,2.2,1.6l-0.9,2.4c-0.8-0.6-1.4-1.1-2-1.4
			c-0.5-0.3-1-0.6-1.5-0.7c-0.6-0.2-1-0.2-1.3,0c-0.3,0.2-0.5,0.6-0.4,1c0,0.3,0.1,0.6,0.2,0.9c0.1,0.3,0.3,0.6,0.6,0.9s1,0.9,2,1.8
			c1.4,1.2,2.4,2.3,2.9,3.2S35.4,310.5,35.4,311.6z"/>
		<path class="st12" d="M45.1,319.4l-0.6-1.9l-0.1,0c-0.5,0.6-1,0.9-1.6,1s-1.2,0-2.1-0.3c-1.1-0.4-1.9-1-2.6-1.9
			c-0.6-0.9-1-2-1-3.3c0-1.3,0.4-2.2,1.2-2.5c0.8-0.4,2.1-0.3,3.7,0.2l1.9,0.6l0-0.6c0-1.3-0.6-2.1-1.8-2.5
			c-0.9-0.3-1.9-0.4-3.1-0.1l-1.1-2.7c1.3-0.3,2.7-0.2,4.3,0.3c1.5,0.5,2.7,1.3,3.5,2.3c0.8,1,1.3,2.3,1.3,3.8l0.2,8.4L45.1,319.4z
			 M44,313.2l-1.2-0.4c-0.9-0.3-1.5-0.3-2-0.1c-0.4,0.2-0.6,0.6-0.6,1.3c0,1,0.5,1.6,1.5,2c0.7,0.2,1.3,0.2,1.7-0.1s0.6-0.9,0.6-1.6
			L44,313.2z"/>
		<path class="st12" d="M56.3,313.2l-2.7-0.9l0.3,10l-3.1-1l-0.3-10l-1.7-0.6l0-1.7l1.7-0.4l0-0.9c0-1.4,0.3-2.4,0.9-2.8
			c0.6-0.5,1.6-0.4,3,0c1.1,0.4,2,0.8,2.8,1.5l-0.7,2.3c-0.6-0.4-1.2-0.7-1.7-0.9c-0.4-0.1-0.7-0.1-0.9,0.1s-0.3,0.6-0.3,1l0,0.8
			l2.7,0.9L56.3,313.2z"/>
		<path class="st12" d="M63.4,325.7c-1.8-0.6-3.2-1.6-4.3-3.1c-1-1.5-1.6-3.2-1.6-5.3c-0.1-2.1,0.4-3.6,1.3-4.4
			c0.9-0.8,2.2-1,3.9-0.4c1.6,0.5,2.8,1.5,3.7,2.8c0.9,1.3,1.4,2.9,1.4,4.7l0,1.7l-7.2-2.4c0.1,1,0.3,1.8,0.8,2.6
			c0.5,0.7,1.2,1.2,2.1,1.5c0.7,0.2,1.3,0.4,1.9,0.4c0.6,0,1.2,0,1.9-0.1l0.1,2.7c-0.5,0.1-1.1,0.2-1.7,0.1
			C65.1,326.2,64.3,326,63.4,325.7z M62.7,315c-0.7-0.2-1.2-0.2-1.5,0.2c-0.4,0.3-0.6,0.9-0.6,1.8l4.3,1.4c0-0.9-0.2-1.6-0.6-2.2
			C63.9,315.6,63.4,315.2,62.7,315z"/>
		<path class="st12" d="M33.8,343l-3.9-14.1l-0.1,0c0.2,2.7,0.3,4.5,0.3,5.3l0.2,7.7l-2.8-0.9l-0.4-16.5l4.2,1.4l3.8,13.8l0.1,0
			l3.4-11.4l4.2,1.4l0.4,16.5l-2.9-1l-0.2-7.8c0-0.4,0-0.8,0-1.3c0-0.5,0-1.7,0-3.8l-0.1,0L36.6,344L33.8,343z"/>
		<path class="st12" d="M51.8,349.3c-1.8-0.6-3.2-1.6-4.3-3.1c-1-1.5-1.6-3.2-1.6-5.3c-0.1-2.1,0.4-3.6,1.3-4.4
			c0.9-0.8,2.2-1,3.9-0.4c1.6,0.5,2.8,1.5,3.7,2.8c0.9,1.3,1.4,2.9,1.4,4.7l0,1.7l-7.2-2.4c0.1,1,0.3,1.8,0.8,2.5
			c0.5,0.7,1.2,1.2,2.1,1.5c0.7,0.2,1.3,0.4,1.9,0.4c0.6,0,1.2,0,1.9-0.1l0.1,2.7c-0.5,0.1-1.1,0.2-1.7,0.1
			C53.4,349.8,52.7,349.6,51.8,349.3z M51.1,338.5c-0.7-0.2-1.2-0.2-1.5,0.2s-0.6,0.9-0.6,1.8l4.3,1.4c0-0.9-0.2-1.6-0.6-2.2
			C52.3,339.2,51.8,338.8,51.1,338.5z"/>
		<path class="st12" d="M62.4,352.9c-1.3-0.4-2.4-1.4-3.2-2.8c-0.8-1.4-1.2-3.1-1.3-5.2c-0.1-2.1,0.3-3.6,1-4.4
			c0.7-0.9,1.8-1.1,3.1-0.7c1.4,0.5,2.5,1.5,3.3,2.9l0.1,0c-0.2-1-0.3-1.9-0.3-2.6l-0.1-4l3.1,1l0.4,17.6l-2.4-0.8l-0.6-1.8l-0.1,0
			C64.9,353.1,63.9,353.4,62.4,352.9z M63.4,350.5c0.8,0.3,1.4,0.2,1.7-0.2c0.4-0.4,0.5-1.2,0.5-2.4l0-0.4c0-1.4-0.2-2.4-0.6-3.1
			c-0.4-0.7-1-1.2-1.8-1.5c-0.7-0.2-1.2-0.1-1.6,0.4c-0.4,0.5-0.5,1.4-0.5,2.6c0,1.2,0.2,2.2,0.6,3S62.7,350.3,63.4,350.5z"/>
		<path class="st12" d="M71.4,339.9c0-1.1,0.5-1.5,1.6-1.1c1.1,0.4,1.7,1.1,1.7,2.2c0,0.5-0.1,0.9-0.4,1.1c-0.3,0.2-0.7,0.2-1.2,0
			C72,341.8,71.4,341.1,71.4,339.9z M75,356.9l-3.1-1l-0.3-12.6l3.1,1L75,356.9z"/>
		<path class="st12" d="M82.8,359.7c-3.5-1.2-5.3-3.9-5.4-8.2c-0.1-2.1,0.4-3.6,1.3-4.4c0.9-0.8,2.3-0.9,4-0.3
			c1.3,0.4,2.5,1.1,3.5,2l-0.8,2.4c-0.5-0.4-0.9-0.7-1.4-1c-0.4-0.3-0.8-0.5-1.3-0.6c-1.6-0.5-2.4,0.5-2.3,3c0.1,2.5,0.9,4,2.5,4.5
			c0.6,0.2,1.1,0.3,1.6,0.3c0.5,0,1-0.1,1.5-0.3l0.1,2.9c-0.5,0.2-1,0.3-1.5,0.2C84.2,360.1,83.5,360,82.8,359.7z"/>
		<path class="st12" d="M95.9,363.9l-0.6-1.9l-0.1,0c-0.5,0.6-1,0.9-1.6,1c-0.5,0.1-1.2,0-2.1-0.3c-1.1-0.4-1.9-1-2.6-1.9
			c-0.6-0.9-1-2-1-3.3c0-1.3,0.4-2.2,1.2-2.5c0.8-0.4,2.1-0.3,3.7,0.2l1.9,0.6l0-0.6c0-1.3-0.6-2.1-1.8-2.5
			c-0.9-0.3-1.9-0.4-3.1-0.1l-1.1-2.7c1.3-0.3,2.7-0.2,4.3,0.3c1.5,0.5,2.7,1.3,3.5,2.3c0.8,1,1.3,2.3,1.3,3.8l0.2,8.4L95.9,363.9z
			 M94.9,357.8l-1.2-0.4c-0.9-0.3-1.5-0.3-2-0.1c-0.4,0.2-0.6,0.6-0.6,1.3c0,1,0.5,1.6,1.5,2c0.7,0.2,1.3,0.2,1.7-0.1
			c0.4-0.3,0.6-0.9,0.6-1.6L94.9,357.8z"/>
		<path class="st12" d="M105.9,364.8c0.5,0.2,1.2,0.3,1.9,0.3l0.1,2.6c-0.8,0.1-1.7,0-2.8-0.4c-1.2-0.4-2.1-1.1-2.7-1.9
			c-0.6-0.9-0.9-2-0.9-3.4l-0.2-6.1l-1.5-0.5l0-1.5l1.7-0.6l0.8-2.4l2,0.7l0.1,2.7l3.1,1.1l0.1,2.6l-3.1-1.1l0.2,6.1
			c0,0.5,0.1,0.9,0.4,1.2C105.1,364.4,105.5,364.6,105.9,364.8z"/>
		<path class="st12" d="M109.6,352.8c0-1.1,0.5-1.5,1.6-1.1c1.1,0.4,1.7,1.1,1.7,2.2c0,0.5-0.1,0.9-0.4,1.1c-0.3,0.2-0.7,0.2-1.2,0
			C110.2,354.7,109.6,353.9,109.6,352.8z M113.2,369.7l-3.1-1l-0.3-12.6l3.1,1L113.2,369.7z"/>
		<path class="st12" d="M126.5,367.9c0.1,2.1-0.4,3.5-1.3,4.3c-0.9,0.8-2.3,1-4,0.4c-1.1-0.4-2-0.9-2.9-1.8c-0.8-0.8-1.5-1.8-2-2.9
			c-0.5-1.1-0.7-2.4-0.8-3.7c-0.1-2.1,0.4-3.5,1.3-4.3c0.9-0.8,2.3-0.9,4-0.4c1.1,0.4,2,0.9,2.9,1.7c0.8,0.8,1.5,1.8,2,2.9
			C126.2,365.3,126.4,366.6,126.5,367.9z M118.7,365.3c0,1.2,0.2,2.3,0.6,3c0.4,0.8,1,1.3,1.8,1.6c0.8,0.3,1.4,0.2,1.7-0.4
			c0.3-0.5,0.5-1.4,0.5-2.7c0-1.2-0.2-2.2-0.6-3s-1-1.3-1.8-1.5c-0.8-0.3-1.4-0.2-1.7,0.3C118.8,363.2,118.7,364,118.7,365.3z"/>
		<path class="st12" d="M139.5,378.6l-3.1-1l-0.2-7.4c0-0.9-0.2-1.6-0.5-2.2s-0.8-0.9-1.4-1.1c-0.9-0.3-1.5-0.2-1.8,0.3
			s-0.5,1.5-0.5,3l0.1,5.9l-3.1-1l-0.3-12.6l2.3,0.8l0.5,1.8l0.2,0.1c0.3-0.5,0.8-0.8,1.4-0.9c0.6-0.1,1.3,0,2,0.2
			c1.3,0.4,2.3,1.2,3,2.2c0.7,1,1.1,2.3,1.1,3.8L139.5,378.6z"/>
		<path class="st12" d="M40.2,364.4c0.1,2.7-0.6,4.6-1.9,5.5c-1.3,1-3.3,1-5.9,0.2l-4.2-1.4l-0.4-16.5l4.6,1.5
			c2.4,0.8,4.3,2.1,5.6,4C39.4,359.6,40.2,361.8,40.2,364.4z M37,363.4c-0.1-3.5-1.5-5.8-4.3-6.7l-1.7-0.6l0.3,10.7l1.3,0.4
			C35.6,368.3,37.1,367,37,363.4z"/>
		<path class="st12" d="M42.7,357.8c0-1.1,0.5-1.5,1.6-1.1c1.1,0.4,1.7,1.1,1.7,2.2c0,0.5-0.1,0.9-0.4,1.1s-0.7,0.2-1.2,0
			C43.3,359.7,42.7,358.9,42.7,357.8z M46.3,374.7l-3.1-1l-0.3-12.6l3.1,1L46.3,374.7z"/>
		<path class="st12" d="M57.3,374.7c0,1.3-0.3,2.1-1.1,2.6c-0.8,0.4-2,0.3-3.6-0.2c-0.8-0.3-1.5-0.6-2.1-0.9
			c-0.6-0.3-1.1-0.7-1.6-1.1l-0.1-2.8c0.6,0.5,1.2,1,1.9,1.4c0.7,0.4,1.3,0.8,1.9,0.9c1.1,0.4,1.7,0.2,1.6-0.5
			c0-0.3-0.1-0.5-0.2-0.7c-0.2-0.2-0.4-0.5-0.8-0.8s-0.9-0.7-1.5-1.2c-0.9-0.7-1.5-1.3-1.9-1.8c-0.4-0.5-0.7-1-0.9-1.5
			s-0.3-1.1-0.3-1.7c0-1.1,0.3-1.9,1.1-2.2c0.8-0.4,1.8-0.3,3.3,0.2c1.4,0.5,2.7,1.2,4,2.3l-0.9,2.2c-0.6-0.5-1.1-0.9-1.6-1.2
			s-1-0.6-1.5-0.8c-0.9-0.3-1.4-0.2-1.3,0.4c0,0.3,0.2,0.6,0.5,0.9s0.9,0.9,1.9,1.6c0.9,0.7,1.5,1.3,2,1.8s0.7,1,0.9,1.5
			C57.1,373.5,57.2,374.1,57.3,374.7z"/>
		<path class="st12" d="M65.9,381.6c-1.3-0.4-2.4-1.3-3.1-2.7l-0.2-0.1c0.1,1.1,0.2,1.7,0.2,1.9l0.1,5.1l-3.1-1l-0.5-18.2l2.5,0.8
			l0.5,1.8l0.1,0c0.7-1,1.7-1.3,3.1-0.8c1.3,0.4,2.4,1.4,3.2,2.8s1.2,3.1,1.2,5.2c0,1.3-0.1,2.5-0.4,3.3s-0.8,1.5-1.4,1.8
			C67.6,381.8,66.8,381.9,65.9,381.6z M64.8,370.9c-0.8-0.3-1.3-0.2-1.6,0.2c-0.3,0.4-0.5,1.2-0.5,2.4l0,0.4c0,1.4,0.2,2.4,0.6,3.1
			s0.9,1.2,1.7,1.5c1.4,0.5,2-0.6,2-3.1c0-1.2-0.2-2.2-0.6-3C66,371.7,65.5,371.2,64.8,370.9z"/>
		<path class="st12" d="M82.8,380.7c0.1,2.1-0.4,3.5-1.3,4.3s-2.3,1-4,0.4c-1.1-0.4-2-0.9-2.9-1.8s-1.5-1.8-2-2.9
			c-0.5-1.1-0.7-2.4-0.8-3.7c-0.1-2.1,0.4-3.5,1.3-4.3c0.9-0.8,2.3-0.9,4-0.4c1.1,0.4,2,0.9,2.9,1.7s1.5,1.8,2,2.9
			C82.5,378.2,82.8,379.4,82.8,380.7z M75.1,378.1c0,1.2,0.2,2.3,0.6,3c0.4,0.8,1,1.3,1.8,1.6c0.8,0.3,1.4,0.2,1.7-0.4
			c0.3-0.5,0.5-1.4,0.5-2.7c0-1.2-0.2-2.2-0.6-3c-0.4-0.7-1-1.3-1.8-1.5c-0.8-0.3-1.4-0.2-1.7,0.3C75.2,376,75,376.9,75.1,378.1z"/>
		<path class="st12" d="M93.3,386.8c0,1.3-0.3,2.1-1.1,2.6c-0.8,0.4-2,0.3-3.6-0.2c-0.8-0.3-1.5-0.6-2.1-0.9
			c-0.6-0.3-1.1-0.7-1.6-1.1l-0.1-2.8c0.6,0.5,1.2,1,1.9,1.4s1.3,0.8,1.9,0.9c1.1,0.4,1.7,0.2,1.6-0.5c0-0.3-0.1-0.5-0.2-0.7
			c-0.2-0.2-0.4-0.5-0.8-0.8s-0.9-0.7-1.5-1.2c-0.9-0.7-1.5-1.3-1.9-1.8c-0.4-0.5-0.7-1-0.9-1.5c-0.2-0.5-0.3-1.1-0.3-1.7
			c0-1.1,0.3-1.9,1.1-2.2c0.8-0.4,1.8-0.3,3.3,0.2c1.4,0.5,2.7,1.2,4,2.3l-0.9,2.2c-0.6-0.5-1.1-0.9-1.6-1.2s-1-0.6-1.5-0.8
			c-0.9-0.3-1.4-0.2-1.3,0.4c0,0.3,0.2,0.6,0.5,0.9c0.3,0.3,0.9,0.9,1.9,1.6c0.9,0.7,1.5,1.3,2,1.8c0.4,0.5,0.7,1,0.9,1.5
			C93.1,385.6,93.3,386.2,93.3,386.8z"/>
		<path class="st12" d="M102.9,393.7l-0.6-1.9l-0.1,0c-0.5,0.6-1,0.9-1.6,1s-1.2,0-2.1-0.3c-1.1-0.4-1.9-1-2.6-1.9
			c-0.6-0.9-1-2-1-3.3c0-1.3,0.4-2.2,1.2-2.5c0.8-0.4,2.1-0.3,3.7,0.2l1.9,0.6l0-0.6c0-1.3-0.6-2.1-1.8-2.5
			c-0.9-0.3-1.9-0.4-3.1-0.1l-1.1-2.7c1.3-0.3,2.7-0.2,4.3,0.3c1.5,0.5,2.7,1.3,3.5,2.3s1.3,2.3,1.3,3.8l0.2,8.4L102.9,393.7z
			 M101.8,387.6l-1.2-0.4c-0.9-0.3-1.5-0.3-2-0.1c-0.4,0.2-0.6,0.6-0.6,1.3c0,1,0.5,1.6,1.5,2c0.7,0.2,1.3,0.2,1.7-0.1
			c0.4-0.3,0.6-0.9,0.6-1.6L101.8,387.6z"/>
		<path class="st12" d="M111.3,396.6l-3.1-1l-0.4-17.6l3.1,1L111.3,396.6z"/>
	</g>
	<g>
		<path class="st16" d="M211.2,401.8c0,1.3-0.3,2.4-1,3.3c-0.7,0.9-1.6,1.6-2.8,2l-2,0.7l0.1-7.8l2.2-0.8c1.1-0.4,2-0.4,2.6,0.1
			S211.2,400.6,211.2,401.8z M209.7,402.4c0-1.7-0.6-2.3-1.9-1.8l-0.8,0.3l-0.1,5.1l0.6-0.2C208.9,405.2,209.6,404.1,209.7,402.4z"
			/>
		<path class="st16" d="M212.5,397.8c0-0.5,0.3-0.9,0.8-1.1c0.5-0.2,0.8,0,0.8,0.5c0,0.3-0.1,0.5-0.2,0.7c-0.1,0.2-0.3,0.3-0.6,0.4
			C212.7,398.5,212.5,398.3,212.5,397.8z M213.9,404.8l-1.4,0.5l0.1-6l1.4-0.5L213.9,404.8z"/>
		<path class="st16" d="M219.1,401.2c0,0.6-0.2,1.1-0.6,1.6c-0.4,0.5-0.9,0.8-1.7,1.1c-0.4,0.1-0.7,0.2-1,0.3c-0.3,0-0.5,0-0.8,0
			l0-1.3c0.3,0,0.6,0.1,0.9,0c0.3,0,0.6-0.1,0.9-0.2c0.5-0.2,0.8-0.4,0.8-0.8c0-0.1,0-0.2-0.1-0.3c-0.1-0.1-0.2-0.1-0.4-0.1
			c-0.2,0-0.4-0.1-0.7-0.1c-0.4,0-0.7-0.1-0.9-0.2c-0.2-0.1-0.3-0.2-0.4-0.4c-0.1-0.2-0.1-0.4-0.1-0.7c0-0.5,0.2-1,0.6-1.4
			c0.4-0.4,0.9-0.7,1.6-1c0.6-0.2,1.3-0.3,1.9-0.2l-0.4,1.3c-0.3,0-0.5-0.1-0.7-0.1c-0.2,0-0.5,0-0.7,0.1c-0.4,0.1-0.6,0.4-0.6,0.6
			c0,0.1,0.1,0.2,0.2,0.3c0.1,0.1,0.4,0.1,0.9,0.2c0.4,0,0.7,0.1,0.9,0.2c0.2,0.1,0.3,0.2,0.4,0.4
			C219.1,400.7,219.1,400.9,219.1,401.2z"/>
		<path class="st16" d="M223.1,401.6c-0.6,0.2-1.1,0.1-1.5-0.2l-0.1,0c0,0.5,0.1,0.8,0.1,0.8l0,2.4l-1.4,0.5l0.1-8.6l1.2-0.4
			l0.2,0.7l0.1,0c0.3-0.7,0.8-1.2,1.5-1.4c0.6-0.2,1.1-0.1,1.5,0.3c0.3,0.4,0.5,1.1,0.5,2.1c0,0.6-0.1,1.2-0.3,1.7
			c-0.2,0.5-0.4,1-0.7,1.3C223.9,401.2,223.5,401.5,223.1,401.6z M222.7,396.9c-0.4,0.1-0.6,0.3-0.8,0.6c-0.2,0.3-0.3,0.7-0.3,1.3
			l0,0.2c0,0.6,0.1,1.1,0.2,1.3c0.2,0.2,0.4,0.3,0.8,0.1c0.6-0.2,1-0.9,1-2.1c0-0.6-0.1-1-0.2-1.2
			C223.3,396.9,223.1,396.8,222.7,396.9z"/>
		<path class="st16" d="M231.2,395.7c0,1-0.2,1.8-0.7,2.5c-0.5,0.7-1.1,1.2-1.9,1.5c-0.5,0.2-1,0.2-1.3,0.1
			c-0.4-0.1-0.7-0.4-0.9-0.8c-0.2-0.4-0.3-0.9-0.3-1.5c0-1,0.2-1.8,0.7-2.5c0.5-0.7,1.1-1.2,1.9-1.5c0.5-0.2,1-0.2,1.3-0.1
			c0.4,0.1,0.7,0.4,0.9,0.8C231.1,394.6,231.2,395.1,231.2,395.7z M227.5,397c0,0.6,0.1,1,0.2,1.2c0.2,0.2,0.4,0.3,0.8,0.2
			c0.4-0.1,0.7-0.4,0.8-0.7c0.2-0.4,0.3-0.8,0.3-1.4c0-0.6-0.1-1-0.2-1.2s-0.4-0.3-0.8-0.1c-0.4,0.1-0.7,0.4-0.8,0.7
			C227.6,395.9,227.5,396.4,227.5,397z"/>
		<path class="st16" d="M236,395.2c0,0.6-0.2,1.1-0.6,1.6c-0.4,0.5-0.9,0.8-1.7,1.1c-0.4,0.1-0.7,0.2-1,0.3c-0.3,0-0.5,0-0.8,0
			l0-1.3c0.3,0,0.6,0.1,0.9,0c0.3,0,0.6-0.1,0.9-0.2c0.5-0.2,0.8-0.4,0.8-0.8c0-0.1,0-0.2-0.1-0.3c-0.1-0.1-0.2-0.1-0.4-0.1
			c-0.2,0-0.4-0.1-0.7-0.1c-0.4,0-0.7-0.1-0.9-0.2c-0.2-0.1-0.3-0.2-0.4-0.4c-0.1-0.2-0.1-0.4-0.1-0.7c0-0.5,0.2-1,0.6-1.4
			c0.4-0.4,0.9-0.7,1.6-1c0.6-0.2,1.3-0.3,1.9-0.2l-0.4,1.3c-0.3,0-0.5-0.1-0.7-0.1s-0.5,0-0.7,0.1c-0.4,0.1-0.6,0.4-0.6,0.6
			c0,0.1,0.1,0.2,0.2,0.3c0.1,0.1,0.4,0.1,0.9,0.2c0.4,0,0.7,0.1,0.9,0.2c0.2,0.1,0.3,0.2,0.4,0.4C236,394.7,236,394.9,236,395.2z"
			/>
		<path class="st16" d="M239.5,395.9c-0.9,0.3-1.5,0.3-2-0.1c-0.5-0.4-0.7-1-0.7-2c0-1,0.2-1.8,0.7-2.5c0.4-0.7,1.1-1.2,1.8-1.5
			c0.7-0.3,1.3-0.2,1.7,0.1c0.4,0.3,0.6,0.9,0.6,1.8l0,0.8l-3.4,1.2c0,0.5,0.1,0.8,0.4,1c0.2,0.2,0.5,0.2,1,0.1
			c0.3-0.1,0.6-0.3,0.9-0.4c0.3-0.2,0.6-0.4,0.9-0.7l0,1.3c-0.3,0.2-0.5,0.4-0.8,0.6C240.3,395.6,239.9,395.7,239.5,395.9z
			 M239.4,390.9c-0.3,0.1-0.5,0.3-0.7,0.6c-0.2,0.3-0.3,0.6-0.3,1l2-0.7c0-0.4-0.1-0.7-0.3-0.8C239.9,390.8,239.7,390.8,239.4,390.9
			z"/>
		<path class="st16" d="M250.2,389c0,1-0.2,1.8-0.7,2.5s-1.1,1.2-1.9,1.5c-0.5,0.2-1,0.2-1.3,0.1c-0.4-0.1-0.7-0.4-0.9-0.8
			c-0.2-0.4-0.3-0.9-0.3-1.5c0-1,0.2-1.8,0.7-2.5c0.5-0.7,1.1-1.2,1.9-1.5c0.5-0.2,1-0.2,1.3-0.1s0.7,0.4,0.9,0.8
			C250.1,387.9,250.2,388.4,250.2,389z M246.6,390.3c0,0.6,0.1,1,0.2,1.2c0.2,0.2,0.4,0.3,0.8,0.2c0.4-0.1,0.7-0.4,0.8-0.7
			c0.2-0.4,0.3-0.8,0.3-1.4c0-0.6-0.1-1-0.2-1.2c-0.2-0.2-0.4-0.3-0.8-0.1c-0.4,0.1-0.7,0.4-0.8,0.7
			C246.7,389.2,246.6,389.7,246.6,390.3z"/>
		<path class="st16" d="M254.3,385.8l-1.2,0.4l0,4.7l-1.4,0.5l0-4.7l-0.8,0.3l0-0.8l0.8-0.7l0-0.4c0-0.7,0.2-1.2,0.5-1.6
			c0.3-0.4,0.8-0.7,1.4-1c0.5-0.2,0.9-0.2,1.3-0.2l-0.4,1.3c-0.3,0-0.6,0-0.8,0.1c-0.2,0.1-0.4,0.2-0.4,0.4
			c-0.1,0.2-0.1,0.4-0.1,0.6l0,0.4l1.2-0.4L254.3,385.8z"/>
		<path class="st16" d="M261.4,388.1l-0.2-0.7l-0.1,0c-0.2,0.3-0.4,0.6-0.7,0.9c-0.3,0.3-0.6,0.4-1,0.6c-0.6,0.2-1.1,0.2-1.4-0.1
			c-0.3-0.3-0.5-0.7-0.5-1.5l0-3.9l1.4-0.5l0,3.5c0,0.4,0.1,0.7,0.2,0.9c0.1,0.2,0.3,0.2,0.6,0.1c0.4-0.1,0.7-0.4,0.9-0.8
			c0.2-0.4,0.3-0.9,0.3-1.6l0-2.8l1.4-0.5l-0.1,6L261.4,388.1z"/>
		<path class="st16" d="M268.9,385.4l-1.4,0.5l0-3.5c0-0.4-0.1-0.7-0.2-0.9c-0.1-0.2-0.3-0.2-0.6-0.1c-0.4,0.1-0.7,0.4-0.9,0.8
			c-0.2,0.4-0.3,0.9-0.3,1.6l0,2.8l-1.4,0.5l0.1-6l1.1-0.4l0.2,0.7l0.1,0c0.2-0.3,0.4-0.6,0.7-0.9c0.3-0.2,0.6-0.4,1-0.6
			c0.6-0.2,1.1-0.2,1.4,0.1c0.3,0.3,0.5,0.7,0.5,1.5L268.9,385.4z"/>
		<path class="st16" d="M274.7,383.4l-0.4-1.9l-0.5-2.4l0,0l-1,5.1l-1.5,0.5l-1.4-5.4l1.4-0.5l0.6,2.4c0.1,0.4,0.2,1.1,0.3,1.9l0,0
			c0-0.3,0.1-0.7,0.2-1.3l0.1-0.5l0.7-3.1l1.6-0.6l0.6,2.6c0,0.1,0,0.2,0.1,0.3c0,0.1,0,0.3,0.1,0.5c0,0.2,0,0.3,0.1,0.5
			c0,0.2,0,0.3,0,0.4l0,0c0-0.3,0.1-0.6,0.2-1.1c0.1-0.5,0.1-0.8,0.2-1l0.7-2.9l1.4-0.5l-1.6,6.5L274.7,383.4z"/>
		<path class="st16" d="M282,380.8l-0.3-0.7l0,0c-0.2,0.4-0.5,0.8-0.8,1c-0.3,0.2-0.6,0.4-1,0.6c-0.5,0.2-0.9,0.2-1.2-0.1
			c-0.3-0.2-0.4-0.6-0.4-1.2c0-0.6,0.2-1.2,0.6-1.6c0.4-0.4,1-0.8,1.8-1.1l0.9-0.4l0-0.3c0-0.6-0.3-0.8-0.8-0.6
			c-0.4,0.1-0.9,0.5-1.5,1l-0.5-0.9c0.6-0.6,1.3-1,2-1.3c0.7-0.2,1.3-0.3,1.6-0.1c0.4,0.2,0.6,0.7,0.6,1.4l0,4L282,380.8z
			 M281.6,378.2l-0.6,0.2c-0.4,0.2-0.7,0.4-0.9,0.6s-0.3,0.5-0.3,0.8c0,0.5,0.2,0.6,0.7,0.4c0.3-0.1,0.6-0.3,0.8-0.6
			c0.2-0.3,0.3-0.6,0.3-1L281.6,378.2z"/>
		<path class="st16" d="M289.4,378.2l-1.4,0.5l0-3.5c0-0.4-0.1-0.7-0.2-0.9c-0.1-0.2-0.3-0.2-0.6-0.1c-0.4,0.1-0.7,0.4-0.9,0.8
			c-0.2,0.4-0.3,0.9-0.3,1.6l0,2.8l-1.4,0.5l0.1-6l1.1-0.4l0.2,0.7l0.1,0c0.2-0.3,0.4-0.6,0.7-0.9c0.3-0.2,0.6-0.4,1-0.6
			c0.6-0.2,1.1-0.2,1.4,0.1c0.3,0.3,0.5,0.7,0.5,1.5L289.4,378.2z"/>
		<path class="st16" d="M293.1,375.7c0.3-0.1,0.6-0.3,0.9-0.5l0,1.2c-0.4,0.3-0.8,0.6-1.3,0.7c-0.6,0.2-1,0.2-1.3-0.1
			c-0.3-0.2-0.4-0.7-0.4-1.3l0-2.9l-0.7,0.2l0-0.7l0.8-0.8l0.4-1.4l0.9-0.3l0,1.3l1.5-0.5l0,1.2l-1.5,0.5l0,2.9
			c0,0.2,0.1,0.4,0.2,0.5C292.7,375.8,292.9,375.8,293.1,375.7z"/>
		<path class="st16" d="M297.4,375.5c-0.9,0.3-1.5,0.3-2-0.1c-0.5-0.4-0.7-1-0.7-2c0-1,0.2-1.8,0.7-2.5c0.4-0.7,1.1-1.2,1.8-1.5
			c0.7-0.3,1.3-0.2,1.7,0.1c0.4,0.3,0.6,0.9,0.6,1.8l0,0.8l-3.4,1.2c0,0.5,0.1,0.8,0.4,1c0.2,0.2,0.5,0.2,1,0.1
			c0.3-0.1,0.6-0.3,0.9-0.4s0.6-0.4,0.9-0.7l0,1.3c-0.3,0.2-0.5,0.4-0.8,0.6C298.2,375.2,297.8,375.3,297.4,375.5z M297.3,370.5
			c-0.3,0.1-0.5,0.3-0.7,0.6c-0.2,0.3-0.3,0.6-0.3,1l2-0.7c0-0.4-0.1-0.7-0.3-0.8C297.8,370.4,297.6,370.4,297.3,370.5z"/>
		<path class="st16" d="M302.4,373.7c-0.6,0.2-1.1,0.1-1.5-0.3c-0.3-0.4-0.5-1.1-0.5-2.1c0-1,0.2-1.8,0.6-2.5
			c0.4-0.7,0.9-1.1,1.5-1.3c0.7-0.2,1.2-0.1,1.5,0.3l0,0c-0.1-0.4-0.1-0.8-0.1-1.2l0-1.9l1.4-0.5l-0.1,8.3l-1.1,0.4l-0.3-0.7l-0.1,0
			C303.6,373,303.1,373.5,302.4,373.7z M302.9,372.2c0.4-0.1,0.6-0.3,0.8-0.6c0.2-0.3,0.3-0.7,0.3-1.3l0-0.2c0-0.6-0.1-1.1-0.2-1.3
			c-0.2-0.2-0.5-0.3-0.8-0.1c-0.3,0.1-0.6,0.4-0.8,0.7c-0.2,0.4-0.3,0.8-0.3,1.4c0,0.6,0.1,1,0.3,1.2
			C302.4,372.3,302.6,372.4,302.9,372.2z"/>
		<path class="st16" d="M209.9,419.2l-1.4,0.5l0-3.5c0-0.4-0.1-0.7-0.2-0.9c-0.1-0.2-0.3-0.2-0.6-0.1c-0.4,0.1-0.6,0.4-0.8,0.7
			c-0.2,0.4-0.3,0.9-0.3,1.6l0,2.8l-1.4,0.5l0.1-6l1.1-0.4l0.2,0.7l0.1,0c0.1-0.3,0.4-0.6,0.6-0.9c0.3-0.2,0.6-0.4,0.9-0.6
			c0.8-0.3,1.3-0.2,1.6,0.3l0.1,0c0.1-0.3,0.4-0.6,0.6-0.9c0.3-0.3,0.6-0.4,0.9-0.6c0.6-0.2,1-0.2,1.4,0c0.3,0.2,0.5,0.7,0.4,1.5
			l0,3.9l-1.4,0.5l0-3.5c0-0.4-0.1-0.7-0.2-0.9c-0.1-0.2-0.3-0.2-0.6-0.1c-0.4,0.1-0.6,0.4-0.8,0.7c-0.2,0.3-0.3,0.8-0.3,1.4
			L209.9,419.2z"/>
		<path class="st16" d="M217,416.8c-0.9,0.3-1.5,0.3-2-0.1c-0.5-0.4-0.7-1-0.7-2c0-1,0.2-1.8,0.7-2.5c0.4-0.7,1.1-1.2,1.8-1.5
			c0.7-0.3,1.3-0.2,1.7,0.1c0.4,0.3,0.6,0.9,0.6,1.8l0,0.8l-3.4,1.2c0,0.5,0.1,0.8,0.4,1c0.2,0.2,0.5,0.2,1,0.1
			c0.3-0.1,0.6-0.3,0.9-0.4s0.6-0.4,0.9-0.7l0,1.3c-0.3,0.2-0.5,0.4-0.8,0.6C217.8,416.5,217.5,416.7,217,416.8z M216.9,411.9
			c-0.3,0.1-0.5,0.3-0.7,0.6c-0.2,0.3-0.3,0.6-0.3,1l2-0.7c0-0.4-0.1-0.7-0.3-0.8C217.4,411.8,217.2,411.8,216.9,411.9z"/>
		<path class="st16" d="M222,415.1c-0.6,0.2-1.1,0.1-1.5-0.3c-0.3-0.4-0.5-1.1-0.5-2.1c0-1,0.2-1.8,0.6-2.5c0.4-0.7,0.9-1.1,1.5-1.3
			c0.7-0.2,1.2-0.1,1.5,0.3l0,0c-0.1-0.4-0.1-0.8-0.1-1.2l0-1.9l1.4-0.5l-0.1,8.3l-1.1,0.4l-0.3-0.7l-0.1,0
			C223.2,414.4,222.7,414.8,222,415.1z M222.6,413.6c0.4-0.1,0.6-0.3,0.8-0.6c0.2-0.3,0.3-0.7,0.3-1.3l0-0.2c0-0.6-0.1-1.1-0.2-1.3
			c-0.2-0.2-0.5-0.3-0.8-0.1c-0.3,0.1-0.6,0.4-0.8,0.7c-0.2,0.4-0.3,0.8-0.3,1.4c0,0.6,0.1,1,0.3,1.2
			C222,413.7,222.2,413.7,222.6,413.6z"/>
		<path class="st16" d="M226.5,405.9c0-0.5,0.3-0.9,0.8-1.1c0.5-0.2,0.8,0,0.8,0.5c0,0.3-0.1,0.5-0.2,0.7c-0.1,0.2-0.3,0.3-0.6,0.4
			C226.8,406.6,226.5,406.5,226.5,405.9z M227.9,412.9l-1.4,0.5l0.1-6l1.4-0.5L227.9,412.9z"/>
		<path class="st16" d="M231.6,411.7c-1.6,0.6-2.5-0.1-2.4-2.2c0-1,0.2-1.9,0.7-2.6c0.5-0.7,1.1-1.2,1.9-1.5
			c0.6-0.2,1.2-0.3,1.6-0.2l-0.4,1.4c-0.2,0-0.4,0-0.6,0c-0.2,0-0.4,0-0.6,0.1c-0.7,0.3-1.1,1-1.1,2.2c0,1.2,0.4,1.6,1.1,1.4
			c0.3-0.1,0.5-0.2,0.8-0.4c0.2-0.2,0.5-0.4,0.7-0.6l0,1.4c-0.2,0.2-0.5,0.4-0.7,0.6C232.3,411.4,232,411.6,231.6,411.7z"/>
		<path class="st16" d="M237.8,409.4l-0.3-0.7l0,0c-0.2,0.4-0.5,0.8-0.8,1c-0.3,0.2-0.6,0.4-1,0.6c-0.5,0.2-0.9,0.2-1.2-0.1
			c-0.3-0.2-0.4-0.6-0.4-1.2c0-0.6,0.2-1.2,0.6-1.6c0.4-0.4,1-0.8,1.8-1.1l0.9-0.4l0-0.3c0-0.6-0.3-0.8-0.8-0.6
			c-0.4,0.1-0.9,0.5-1.5,1l-0.5-0.9c0.6-0.6,1.3-1,2-1.3c0.7-0.2,1.3-0.3,1.6-0.1c0.4,0.2,0.6,0.7,0.6,1.4l0,4L237.8,409.4z
			 M237.4,406.8l-0.6,0.2c-0.4,0.2-0.7,0.4-0.9,0.6c-0.2,0.2-0.3,0.5-0.3,0.8c0,0.5,0.2,0.6,0.7,0.4c0.3-0.1,0.6-0.3,0.8-0.6
			c0.2-0.3,0.3-0.6,0.3-1L237.4,406.8z"/>
		<path class="st16" d="M242.5,406.6c0.3-0.1,0.6-0.3,0.9-0.5l0,1.2c-0.4,0.3-0.8,0.6-1.3,0.7c-0.6,0.2-1,0.2-1.3-0.1
			c-0.3-0.2-0.4-0.7-0.4-1.3l0-2.9l-0.7,0.2l0-0.7l0.8-0.8l0.4-1.4l0.9-0.3l0,1.3l1.5-0.5l0,1.2l-1.5,0.5l0,2.9
			c0,0.2,0.1,0.4,0.2,0.5C242.2,406.6,242.3,406.6,242.5,406.6z"/>
		<path class="st16" d="M244.5,399.6c0-0.5,0.3-0.9,0.8-1.1c0.5-0.2,0.8,0,0.8,0.5c0,0.3-0.1,0.5-0.2,0.7c-0.1,0.2-0.3,0.3-0.6,0.4
			C244.7,400.3,244.5,400.1,244.5,399.6z M245.9,406.6l-1.4,0.5l0.1-6l1.4-0.5L245.9,406.6z"/>
		<path class="st16" d="M252.3,401.3c0,1-0.2,1.8-0.7,2.5c-0.5,0.7-1.1,1.2-1.9,1.5c-0.5,0.2-1,0.2-1.3,0.1
			c-0.4-0.1-0.7-0.4-0.9-0.8c-0.2-0.4-0.3-0.9-0.3-1.5c0-1,0.2-1.8,0.7-2.5c0.5-0.7,1.1-1.2,1.9-1.5c0.5-0.2,1-0.2,1.3-0.1
			c0.4,0.1,0.7,0.4,0.9,0.8C252.2,400.2,252.3,400.7,252.3,401.3z M248.6,402.6c0,0.6,0.1,1,0.2,1.2c0.2,0.2,0.4,0.3,0.8,0.2
			c0.4-0.1,0.7-0.4,0.8-0.7c0.2-0.4,0.3-0.8,0.3-1.4c0-0.6-0.1-1-0.2-1.2c-0.2-0.2-0.4-0.3-0.8-0.1c-0.4,0.1-0.7,0.4-0.8,0.7
			C248.7,401.6,248.6,402,248.6,402.6z"/>
		<path class="st16" d="M258.3,402.2l-1.4,0.5l0-3.5c0-0.4-0.1-0.7-0.2-0.9c-0.1-0.2-0.3-0.2-0.6-0.1c-0.4,0.1-0.7,0.4-0.9,0.8
			c-0.2,0.4-0.3,0.9-0.3,1.6l0,2.8l-1.4,0.5l0.1-6l1.1-0.4l0.2,0.7l0.1,0c0.2-0.3,0.4-0.6,0.7-0.9c0.3-0.2,0.6-0.4,1-0.6
			c0.6-0.2,1.1-0.2,1.4,0.1c0.3,0.3,0.5,0.7,0.5,1.5L258.3,402.2z"/>
		<path class="st16" d="M267.2,399.1l-1.4,0.5l0-3.5c0-0.9-0.3-1.2-0.8-1c-0.4,0.1-0.7,0.4-0.9,0.8s-0.3,0.9-0.3,1.6l0,2.8l-1.4,0.5
			l0.1-8.3l1.4-0.5l0,1.7c0,0.1,0,0.4,0,0.9l0,0.5l0.1,0c0.3-0.7,0.8-1.2,1.5-1.4c0.6-0.2,1.1-0.2,1.4,0.1s0.5,0.7,0.5,1.5
			L267.2,399.1z"/>
		<path class="st16" d="M271,397.8c-0.9,0.3-1.5,0.3-2-0.1s-0.7-1-0.7-2c0-1,0.2-1.8,0.7-2.5c0.4-0.7,1.1-1.2,1.8-1.5
			c0.7-0.3,1.3-0.2,1.7,0.1s0.6,0.9,0.6,1.8l0,0.8l-3.4,1.2c0,0.5,0.1,0.8,0.4,1c0.2,0.2,0.5,0.2,1,0.1c0.3-0.1,0.6-0.3,0.9-0.4
			s0.6-0.4,0.9-0.7l0,1.3c-0.3,0.2-0.5,0.4-0.8,0.6C271.8,397.5,271.5,397.7,271,397.8z M270.9,392.9c-0.3,0.1-0.5,0.3-0.7,0.6
			c-0.2,0.3-0.3,0.6-0.3,1l2-0.7c0-0.4-0.1-0.7-0.3-0.8C271.4,392.8,271.2,392.8,270.9,392.9z"/>
		<path class="st16" d="M277.4,389.4c0.2-0.1,0.4-0.1,0.5-0.1l-0.1,1.6c-0.1,0-0.3,0-0.4,0.1c-0.5,0.2-0.8,0.4-1.1,0.8
			c-0.3,0.4-0.4,0.8-0.4,1.3l0,3l-1.4,0.5l0.1-6l1.1-0.4l0.2,0.9l0.1,0c0.2-0.4,0.4-0.7,0.7-1C276.8,389.8,277.1,389.5,277.4,389.4z
			"/>
		<path class="st16" d="M281.2,394.3c-0.9,0.3-1.5,0.3-2-0.1c-0.5-0.4-0.7-1-0.7-2c0-1,0.2-1.8,0.7-2.5c0.4-0.7,1.1-1.2,1.8-1.5
			c0.7-0.3,1.3-0.2,1.7,0.1c0.4,0.3,0.6,0.9,0.6,1.8l0,0.8l-3.4,1.2c0,0.5,0.1,0.8,0.4,1c0.2,0.2,0.5,0.2,1,0.1
			c0.3-0.1,0.6-0.3,0.9-0.4s0.6-0.4,0.9-0.7l0,1.3c-0.3,0.2-0.5,0.4-0.8,0.6C281.9,394,281.6,394.1,281.2,394.3z M281,389.3
			c-0.3,0.1-0.5,0.3-0.7,0.6c-0.2,0.3-0.3,0.6-0.3,1l2-0.7c0-0.4-0.1-0.7-0.3-0.8C281.6,389.2,281.3,389.2,281,389.3z"/>
	</g>
	<g>
		<path class="st16" d="M38,414c0,1.3-0.3,2.1-1,2.6c-0.6,0.4-1.6,0.5-2.8,0l-1.9-0.7l0-7.8l2.2,0.8c1.1,0.4,2,1.1,2.6,2
			C37.7,411.7,38,412.8,38,414z M36.5,413.5c0-1.7-0.7-2.7-2-3.2l-0.8-0.3l0,5.1l0.6,0.2C35.8,415.8,36.5,415.2,36.5,413.5z"/>
		<path class="st16" d="M39.3,410.9c0-0.5,0.3-0.7,0.8-0.5s0.8,0.5,0.8,1.1c0,0.3-0.1,0.4-0.2,0.5c-0.1,0.1-0.3,0.1-0.6,0
			C39.5,411.8,39.3,411.4,39.3,410.9z M40.8,419l-1.4-0.5l0-6l1.4,0.5L40.8,419z"/>
		<path class="st16" d="M45.9,419.1c0,0.6-0.2,1-0.6,1.2c-0.4,0.2-0.9,0.1-1.7-0.1c-0.4-0.1-0.7-0.3-1-0.4c-0.3-0.2-0.5-0.3-0.8-0.5
			l0-1.3c0.3,0.2,0.6,0.5,0.9,0.7c0.3,0.2,0.6,0.4,0.9,0.5c0.5,0.2,0.8,0.1,0.8-0.2c0-0.1,0-0.2-0.1-0.3c-0.1-0.1-0.2-0.2-0.4-0.4
			c-0.2-0.2-0.4-0.4-0.7-0.6c-0.4-0.3-0.7-0.6-0.9-0.9c-0.2-0.2-0.3-0.5-0.4-0.7c-0.1-0.2-0.1-0.5-0.1-0.8c0-0.5,0.2-0.9,0.5-1
			c0.4-0.2,0.9-0.1,1.5,0.1c0.6,0.2,1.3,0.6,1.9,1.1l-0.4,1c-0.3-0.2-0.5-0.4-0.7-0.6c-0.2-0.2-0.5-0.3-0.7-0.4
			c-0.4-0.2-0.6-0.1-0.6,0.2c0,0.1,0.1,0.3,0.2,0.5c0.1,0.2,0.4,0.4,0.9,0.8c0.4,0.3,0.7,0.6,0.9,0.9c0.2,0.2,0.3,0.5,0.4,0.7
			C45.9,418.5,45.9,418.8,45.9,419.1z"/>
		<path class="st16" d="M50,422.4c-0.6-0.2-1.1-0.7-1.5-1.3l-0.1,0c0.1,0.5,0.1,0.8,0.1,0.9l0,2.4l-1.4-0.5l0-8.6l1.2,0.4l0.2,0.8
			l0.1,0c0.3-0.5,0.8-0.6,1.5-0.3c0.6,0.2,1.1,0.7,1.5,1.3c0.4,0.7,0.5,1.5,0.5,2.5c0,0.6-0.1,1.2-0.2,1.6c-0.2,0.4-0.4,0.7-0.7,0.8
			S50.4,422.5,50,422.4z M49.5,417.4c-0.4-0.1-0.6-0.1-0.8,0.1c-0.2,0.2-0.2,0.6-0.3,1.1l0,0.2c0,0.6,0.1,1.1,0.3,1.5
			c0.2,0.3,0.4,0.6,0.8,0.7c0.6,0.2,1-0.3,1-1.5c0-0.6-0.1-1.1-0.2-1.4C50.1,417.7,49.9,417.5,49.5,417.4z"/>
		<path class="st16" d="M58,422.2c0,1-0.2,1.6-0.7,2c-0.5,0.4-1.1,0.4-1.9,0.1c-0.5-0.2-1-0.5-1.3-0.9c-0.4-0.4-0.7-0.9-0.9-1.4
			c-0.2-0.5-0.3-1.1-0.3-1.8c0-1,0.2-1.6,0.7-2c0.4-0.4,1.1-0.4,1.9-0.1c0.5,0.2,1,0.5,1.3,0.9s0.7,0.9,0.9,1.4S58,421.6,58,422.2z
			 M54.3,420.9c0,0.6,0.1,1.1,0.3,1.4c0.2,0.4,0.5,0.6,0.8,0.8c0.4,0.1,0.7,0.1,0.8-0.1c0.2-0.2,0.3-0.7,0.3-1.2
			c0-0.6-0.1-1.1-0.3-1.4c-0.2-0.4-0.4-0.6-0.8-0.7c-0.4-0.1-0.7-0.1-0.8,0.1C54.4,419.9,54.3,420.3,54.3,420.9z"/>
		<path class="st16" d="M62.8,425.2c0,0.6-0.2,1-0.6,1.2c-0.4,0.2-0.9,0.1-1.7-0.1c-0.4-0.1-0.7-0.3-1-0.4c-0.3-0.2-0.5-0.3-0.8-0.5
			l0-1.3c0.3,0.2,0.6,0.5,0.9,0.7c0.3,0.2,0.6,0.4,0.9,0.5c0.5,0.2,0.8,0.1,0.8-0.2c0-0.1,0-0.2-0.1-0.3c-0.1-0.1-0.2-0.2-0.4-0.4
			c-0.2-0.2-0.4-0.4-0.7-0.6c-0.4-0.3-0.7-0.6-0.9-0.9c-0.2-0.2-0.3-0.5-0.4-0.7c-0.1-0.2-0.1-0.5-0.1-0.8c0-0.5,0.2-0.9,0.5-1
			c0.4-0.2,0.9-0.1,1.5,0.1c0.6,0.2,1.3,0.6,1.9,1.1l-0.4,1c-0.3-0.2-0.5-0.4-0.7-0.6c-0.2-0.2-0.5-0.3-0.7-0.4
			c-0.4-0.2-0.6-0.1-0.6,0.2c0,0.1,0.1,0.3,0.2,0.5c0.1,0.2,0.4,0.4,0.9,0.8c0.4,0.3,0.7,0.6,0.9,0.9c0.2,0.2,0.3,0.5,0.4,0.7
			C62.8,424.6,62.8,424.9,62.8,425.2z"/>
		<path class="st16" d="M66.3,428.3c-0.8-0.3-1.5-0.8-2-1.5c-0.5-0.7-0.7-1.5-0.7-2.5c0-1,0.2-1.7,0.7-2.1c0.4-0.4,1.1-0.4,1.8-0.2
			c0.7,0.3,1.3,0.7,1.7,1.4s0.6,1.4,0.6,2.2l0,0.8l-3.4-1.2c0,0.5,0.1,0.9,0.4,1.2c0.2,0.3,0.5,0.6,1,0.7c0.3,0.1,0.6,0.2,0.9,0.2
			s0.6,0,0.9,0l0,1.3c-0.3,0.1-0.5,0.1-0.8,0C67.1,428.6,66.7,428.5,66.3,428.3z M66.1,423.2c-0.3-0.1-0.5-0.1-0.7,0.1
			c-0.2,0.2-0.3,0.4-0.3,0.8l2,0.7c0-0.4-0.1-0.7-0.3-1C66.7,423.5,66.4,423.3,66.1,423.2z"/>
		<path class="st16" d="M76.9,429.1c0,1-0.2,1.6-0.7,2c-0.5,0.4-1.1,0.4-1.9,0.1c-0.5-0.2-1-0.5-1.3-0.9c-0.4-0.4-0.7-0.9-0.9-1.4
			c-0.2-0.5-0.3-1.1-0.3-1.8c0-1,0.2-1.6,0.7-2c0.4-0.4,1.1-0.4,1.9-0.1c0.5,0.2,1,0.5,1.3,0.9s0.7,0.9,0.9,1.4
			C76.8,427.9,76.9,428.5,76.9,429.1z M73.3,427.8c0,0.6,0.1,1.1,0.3,1.4c0.2,0.4,0.5,0.6,0.8,0.8c0.4,0.1,0.7,0.1,0.8-0.1
			c0.2-0.2,0.3-0.7,0.3-1.2c0-0.6-0.1-1.1-0.3-1.4c-0.2-0.4-0.4-0.6-0.8-0.7c-0.4-0.1-0.7-0.1-0.8,0.1
			C73.4,426.8,73.3,427.2,73.3,427.8z"/>
		<path class="st16" d="M81,428.8l-1.2-0.5l0,4.7l-1.4-0.5l0-4.7l-0.8-0.3l0-0.8l0.8-0.1l0-0.4c0-0.7,0.1-1.1,0.4-1.3s0.8-0.2,1.4,0
			c0.5,0.2,0.9,0.4,1.3,0.7l-0.4,1.1c-0.3-0.2-0.6-0.4-0.8-0.4c-0.2-0.1-0.4-0.1-0.4,0c-0.1,0.1-0.1,0.3-0.1,0.5l0,0.4l1.2,0.5
			L81,428.8z"/>
		<path class="st16" d="M88.1,436.1l-0.2-0.8l-0.1,0c-0.2,0.2-0.4,0.4-0.7,0.4c-0.3,0-0.6,0-1-0.1c-0.6-0.2-1.1-0.6-1.4-1.1
			c-0.3-0.5-0.5-1.1-0.5-1.8l0-3.9l1.4,0.5l0,3.5c0,0.4,0.1,0.8,0.2,1c0.1,0.3,0.4,0.4,0.6,0.6c0.4,0.1,0.7,0.1,0.9-0.1
			c0.2-0.2,0.3-0.7,0.3-1.4l0-2.8l1.4,0.5l0,6L88.1,436.1z"/>
		<path class="st16" d="M95.5,438.8l-1.4-0.5l0-3.5c0-0.4-0.1-0.8-0.2-1c-0.1-0.3-0.4-0.4-0.6-0.6c-0.4-0.1-0.7-0.1-0.9,0.1
			c-0.2,0.2-0.3,0.7-0.3,1.4l0,2.8l-1.4-0.5l0-6l1.1,0.4l0.2,0.8l0.1,0c0.2-0.2,0.4-0.4,0.7-0.4c0.3,0,0.6,0,1,0.1
			c0.6,0.2,1.1,0.6,1.4,1.1c0.3,0.5,0.5,1.1,0.5,1.8L95.5,438.8z"/>
		<path class="st16" d="M101.4,440.9l-0.4-2.2l-0.5-2.8l0,0l-1,4.4l-1.5-0.6l-1.5-6.5l1.4,0.5l0.6,2.9c0.1,0.5,0.2,1.2,0.3,2.1l0,0
			c0-0.3,0.1-0.7,0.2-1.2L99,437l0.6-2.6l1.6,0.6l0.6,3.1c0,0.1,0,0.2,0.1,0.4c0,0.2,0.1,0.3,0.1,0.5c0,0.2,0,0.4,0.1,0.5
			c0,0.2,0,0.3,0,0.4l0,0c0-0.2,0.1-0.6,0.1-1c0.1-0.4,0.1-0.7,0.2-0.8l0.6-2.4l1.4,0.5l-1.5,5.4L101.4,440.9z"/>
		<path class="st16" d="M108.6,443.6l-0.3-0.9l0,0c-0.2,0.3-0.5,0.4-0.7,0.4c-0.3,0-0.6,0-1-0.2c-0.5-0.2-0.9-0.5-1.2-0.9
			c-0.3-0.4-0.4-1-0.4-1.6c0-0.6,0.2-1,0.6-1.2c0.4-0.2,1-0.1,1.8,0.1l0.9,0.3l0-0.3c0-0.6-0.3-1-0.8-1.2c-0.4-0.2-0.9-0.2-1.5-0.1
			l-0.5-1.3c0.6-0.1,1.3-0.1,2,0.2c0.7,0.3,1.2,0.6,1.6,1.1c0.4,0.5,0.6,1.1,0.6,1.8l0,4L108.6,443.6z M108.2,440.7l-0.6-0.2
			c-0.4-0.1-0.7-0.2-0.9-0.1c-0.2,0.1-0.3,0.3-0.3,0.6c0,0.5,0.2,0.8,0.7,0.9c0.3,0.1,0.6,0.1,0.8,0c0.2-0.1,0.3-0.4,0.3-0.8
			L108.2,440.7z"/>
		<path class="st16" d="M116,446.3l-1.4-0.5l0-3.5c0-0.4-0.1-0.8-0.2-1c-0.1-0.3-0.4-0.4-0.6-0.6c-0.4-0.1-0.7-0.1-0.9,0.1
			c-0.2,0.2-0.3,0.7-0.3,1.4l0,2.8l-1.4-0.5l0-6l1.1,0.4l0.2,0.8l0.1,0c0.2-0.2,0.4-0.4,0.7-0.4c0.3,0,0.6,0,1,0.1
			c0.6,0.2,1.1,0.6,1.4,1.1c0.3,0.5,0.5,1.1,0.5,1.8L116,446.3z"/>
		<path class="st16" d="M119.7,446.4c0.3,0.1,0.6,0.1,0.9,0.1l0,1.2c-0.4,0.1-0.8,0-1.3-0.2c-0.6-0.2-1-0.5-1.3-0.9
			c-0.3-0.4-0.4-1-0.4-1.6l0-2.9l-0.7-0.2l0-0.7l0.8-0.3l0.4-1.1l0.9,0.3l0,1.3l1.5,0.5l0,1.2l-1.5-0.5l0,2.9c0,0.2,0.1,0.4,0.2,0.6
			C119.3,446.2,119.5,446.3,119.7,446.4z"/>
		<path class="st16" d="M124,449.3c-0.8-0.3-1.5-0.8-2-1.5c-0.5-0.7-0.7-1.5-0.7-2.5c0-1,0.2-1.7,0.7-2.1c0.4-0.4,1.1-0.4,1.8-0.2
			c0.7,0.3,1.3,0.7,1.7,1.4c0.4,0.6,0.6,1.4,0.6,2.2l0,0.8l-3.4-1.2c0,0.5,0.1,0.9,0.4,1.2c0.2,0.3,0.5,0.6,1,0.7
			c0.3,0.1,0.6,0.2,0.9,0.2s0.6,0,0.9,0l0,1.3c-0.3,0.1-0.5,0.1-0.8,0C124.8,449.5,124.4,449.4,124,449.3z M123.8,444.2
			c-0.3-0.1-0.5-0.1-0.7,0.1c-0.2,0.2-0.3,0.4-0.3,0.8l2,0.7c0-0.4-0.1-0.7-0.3-1C124.4,444.5,124.1,444.3,123.8,444.2z"/>
		<path class="st16" d="M129,451.1c-0.6-0.2-1.1-0.7-1.5-1.3c-0.4-0.7-0.5-1.5-0.5-2.5c0-1,0.2-1.7,0.5-2.1c0.4-0.4,0.9-0.5,1.5-0.3
			c0.7,0.2,1.2,0.7,1.5,1.4l0,0c-0.1-0.5-0.1-0.9-0.1-1.2l0-1.9l1.4,0.5l0,8.3l-1.1-0.4l-0.3-0.9l-0.1,0
			C130.2,451.2,129.7,451.3,129,451.1z M129.5,450c0.4,0.1,0.6,0.1,0.8-0.1c0.2-0.2,0.3-0.6,0.3-1.1l0-0.2c0-0.6-0.1-1.1-0.3-1.5
			c-0.2-0.3-0.5-0.6-0.9-0.7c-0.3-0.1-0.6-0.1-0.7,0.2c-0.2,0.2-0.3,0.7-0.3,1.2c0,0.6,0.1,1.1,0.3,1.4
			C128.9,449.6,129.2,449.9,129.5,450z"/>
		<path class="st16" d="M36.9,430.7l-1.4-0.5l0-3.5c0-0.4-0.1-0.8-0.2-1c-0.1-0.3-0.3-0.4-0.6-0.5c-0.4-0.1-0.6-0.1-0.8,0.2
			c-0.2,0.2-0.2,0.7-0.2,1.4l0,2.8l-1.4-0.5l0-6l1.1,0.4l0.2,0.8l0.1,0c0.1-0.2,0.3-0.4,0.6-0.4c0.3-0.1,0.6,0,0.9,0.1
			c0.8,0.3,1.3,0.8,1.6,1.5l0.1,0c0.1-0.2,0.3-0.4,0.6-0.4c0.3-0.1,0.6,0,0.9,0.1c0.6,0.2,1,0.6,1.4,1c0.3,0.5,0.5,1.1,0.5,1.8
			l0,3.9l-1.4-0.5l0-3.5c0-0.4-0.1-0.8-0.2-1c-0.1-0.3-0.3-0.4-0.6-0.5c-0.4-0.1-0.6-0.1-0.8,0.1c-0.2,0.2-0.3,0.6-0.3,1.3
			L36.9,430.7z"/>
		<path class="st16" d="M44.1,433.3c-0.8-0.3-1.5-0.8-2-1.5s-0.7-1.5-0.7-2.5c0-1,0.2-1.7,0.7-2.1c0.4-0.4,1.1-0.4,1.8-0.2
			c0.7,0.3,1.3,0.7,1.7,1.4s0.6,1.4,0.6,2.2l0,0.8l-3.4-1.2c0,0.5,0.1,0.9,0.4,1.2c0.2,0.3,0.5,0.6,1,0.7c0.3,0.1,0.6,0.2,0.9,0.2
			c0.3,0,0.6,0,0.9,0l0,1.3c-0.3,0.1-0.5,0.1-0.8,0C44.8,433.6,44.5,433.5,44.1,433.3z M43.9,428.3c-0.3-0.1-0.5-0.1-0.7,0.1
			c-0.2,0.2-0.3,0.4-0.3,0.8l2,0.7c0-0.4-0.1-0.7-0.3-1C44.4,428.6,44.2,428.4,43.9,428.3z"/>
		<path class="st16" d="M49,435.2c-0.6-0.2-1.1-0.7-1.5-1.3c-0.4-0.7-0.5-1.5-0.5-2.5c0-1,0.2-1.7,0.5-2.1c0.4-0.4,0.9-0.5,1.5-0.3
			c0.7,0.2,1.2,0.7,1.5,1.4l0,0c-0.1-0.5-0.1-0.9-0.1-1.2l0-1.9l1.4,0.5l0,8.3l-1.1-0.4l-0.3-0.9l-0.1,0
			C50.2,435.3,49.7,435.4,49,435.2z M49.5,434c0.4,0.1,0.6,0.1,0.8-0.1c0.2-0.2,0.3-0.6,0.3-1.1l0-0.2c0-0.6-0.1-1.1-0.3-1.5
			c-0.2-0.3-0.5-0.6-0.9-0.7c-0.3-0.1-0.6-0.1-0.7,0.2c-0.2,0.2-0.3,0.7-0.3,1.2c0,0.6,0.1,1.1,0.3,1.4
			C49,433.7,49.2,433.9,49.5,434z"/>
		<path class="st16" d="M53.4,429.1c0-0.5,0.3-0.7,0.8-0.5s0.8,0.5,0.8,1.1c0,0.3-0.1,0.4-0.2,0.5c-0.1,0.1-0.3,0.1-0.6,0
			C53.7,430,53.4,429.7,53.4,429.1z M54.9,437.2l-1.4-0.5l0-6l1.4,0.5L54.9,437.2z"/>
		<path class="st16" d="M58.6,438.6c-1.6-0.6-2.5-1.9-2.5-3.9c0-1,0.2-1.7,0.7-2.1c0.4-0.4,1.1-0.4,1.9-0.1c0.6,0.2,1.2,0.6,1.6,1
			l-0.4,1.1c-0.2-0.2-0.4-0.3-0.6-0.5c-0.2-0.1-0.4-0.2-0.6-0.3c-0.7-0.3-1.1,0.2-1.1,1.4c0,1.2,0.4,1.9,1.1,2.2
			c0.3,0.1,0.5,0.2,0.8,0.2c0.2,0,0.5,0,0.7-0.1l0,1.4c-0.2,0.1-0.5,0.1-0.7,0.1C59.2,438.8,58.9,438.7,58.6,438.6z"/>
		<path class="st16" d="M64.7,440.7l-0.3-0.9l0,0c-0.2,0.3-0.5,0.4-0.7,0.4c-0.3,0-0.6,0-1-0.2c-0.5-0.2-0.9-0.5-1.2-0.9
			c-0.3-0.4-0.4-1-0.4-1.6c0-0.6,0.2-1,0.6-1.2c0.4-0.2,1-0.1,1.8,0.1l0.9,0.3l0-0.3c0-0.6-0.3-1-0.8-1.2c-0.4-0.2-0.9-0.2-1.5-0.1
			l-0.5-1.3c0.6-0.1,1.3-0.1,2,0.2c0.7,0.3,1.2,0.6,1.6,1.1c0.4,0.5,0.6,1.1,0.6,1.8l0,4L64.7,440.7z M64.3,437.8l-0.6-0.2
			c-0.4-0.1-0.7-0.2-0.9-0.1c-0.2,0.1-0.3,0.3-0.3,0.6c0,0.5,0.2,0.8,0.7,0.9c0.3,0.1,0.6,0.1,0.8,0c0.2-0.1,0.3-0.4,0.3-0.8
			L64.3,437.8z"/>
		<path class="st16" d="M69.4,441.3c0.3,0.1,0.6,0.1,0.9,0.1l0,1.2c-0.4,0.1-0.8,0-1.3-0.2c-0.6-0.2-1-0.5-1.3-0.9
			c-0.3-0.4-0.4-1-0.4-1.6l0-2.9l-0.7-0.2l0-0.7l0.8-0.3l0.4-1.1l0.9,0.3l0,1.3l1.5,0.5l0,1.2l-1.5-0.5l0,2.9c0,0.2,0.1,0.4,0.2,0.6
			C69.1,441.1,69.2,441.2,69.4,441.3z"/>
		<path class="st16" d="M71.3,435.6c0-0.5,0.3-0.7,0.8-0.5c0.5,0.2,0.8,0.5,0.8,1.1c0,0.3-0.1,0.4-0.2,0.5c-0.1,0.1-0.3,0.1-0.6,0
			C71.6,436.5,71.3,436.2,71.3,435.6z M72.8,443.7l-1.4-0.5l0-6l1.4,0.5L72.8,443.7z"/>
		<path class="st16" d="M79.1,443c0,1-0.2,1.6-0.7,2c-0.5,0.4-1.1,0.4-1.9,0.1c-0.5-0.2-1-0.5-1.3-0.9c-0.4-0.4-0.7-0.9-0.9-1.4
			c-0.2-0.5-0.3-1.1-0.3-1.8c0-1,0.2-1.6,0.7-2c0.4-0.4,1.1-0.4,1.9-0.1c0.5,0.2,1,0.5,1.3,0.9c0.4,0.4,0.7,0.9,0.9,1.4
			C79,441.8,79.1,442.4,79.1,443z M75.5,441.7c0,0.6,0.1,1.1,0.3,1.4c0.2,0.4,0.5,0.6,0.8,0.8c0.4,0.1,0.7,0.1,0.8-0.1
			c0.2-0.2,0.3-0.7,0.3-1.2c0-0.6-0.1-1.1-0.3-1.4c-0.2-0.4-0.4-0.6-0.8-0.7c-0.4-0.1-0.7-0.1-0.8,0.1
			C75.6,440.7,75.5,441.1,75.5,441.7z"/>
		<path class="st16" d="M85.2,448.2l-1.4-0.5l0-3.5c0-0.4-0.1-0.8-0.2-1c-0.1-0.3-0.4-0.4-0.6-0.6c-0.4-0.1-0.7-0.1-0.9,0.1
			c-0.2,0.2-0.3,0.7-0.3,1.4l0,2.8l-1.4-0.5l0-6l1.1,0.4l0.2,0.8l0.1,0c0.2-0.2,0.4-0.4,0.7-0.4c0.3,0,0.6,0,1,0.1
			c0.6,0.2,1.1,0.6,1.4,1.1c0.3,0.5,0.5,1.1,0.5,1.8L85.2,448.2z"/>
		<path class="st16" d="M94,451.4l-1.4-0.5l0-3.5c0-0.9-0.3-1.4-0.8-1.6c-0.4-0.1-0.7-0.1-0.9,0.1c-0.2,0.2-0.3,0.7-0.3,1.4l0,2.8
			l-1.4-0.5l0-8.3l1.4,0.5l0,1.7c0,0.1,0,0.4,0,0.9l0,0.5l0.1,0c0.3-0.5,0.8-0.6,1.5-0.3c0.6,0.2,1.1,0.6,1.4,1.1
			c0.3,0.5,0.5,1.1,0.5,1.8L94,451.4z"/>
		<path class="st16" d="M97.9,452.9c-0.8-0.3-1.5-0.8-2-1.5s-0.7-1.5-0.7-2.5c0-1,0.2-1.7,0.7-2.1c0.4-0.4,1.1-0.4,1.8-0.2
			c0.7,0.3,1.3,0.7,1.7,1.4c0.4,0.6,0.6,1.4,0.6,2.2l0,0.8l-3.4-1.2c0,0.5,0.1,0.9,0.4,1.2s0.5,0.6,1,0.7c0.3,0.1,0.6,0.2,0.9,0.2
			s0.6,0,0.9,0l0,1.3c-0.3,0.1-0.5,0.1-0.8,0C98.6,453.1,98.3,453,97.9,452.9z M97.7,447.8c-0.3-0.1-0.5-0.1-0.7,0.1
			c-0.2,0.2-0.3,0.4-0.3,0.8l2,0.7c0-0.4-0.1-0.7-0.3-1C98.2,448.1,98,447.9,97.7,447.8z"/>
		<path class="st16" d="M104.1,449c0.2,0.1,0.4,0.1,0.5,0.2l-0.1,1.5c-0.1-0.1-0.3-0.1-0.4-0.2c-0.5-0.2-0.8-0.2-1.1,0
			c-0.3,0.2-0.4,0.5-0.4,1l0,3l-1.4-0.5l0-6l1.1,0.4l0.2,1.1l0.1,0c0.2-0.3,0.4-0.5,0.7-0.6C103.5,448.9,103.8,448.9,104.1,449z"/>
		<path class="st16" d="M107.9,456.5c-0.8-0.3-1.5-0.8-2-1.5c-0.5-0.7-0.7-1.5-0.7-2.5c0-1,0.2-1.7,0.7-2.1c0.4-0.4,1.1-0.4,1.8-0.2
			c0.7,0.3,1.3,0.7,1.7,1.4s0.6,1.4,0.6,2.2l0,0.8l-3.4-1.2c0,0.5,0.1,0.9,0.4,1.2c0.2,0.3,0.5,0.6,1,0.7c0.3,0.1,0.6,0.2,0.9,0.2
			s0.6,0,0.9,0l0,1.3c-0.3,0.1-0.5,0.1-0.8,0C108.7,456.8,108.4,456.7,107.9,456.5z M107.7,451.5c-0.3-0.1-0.5-0.1-0.7,0.1
			c-0.2,0.2-0.3,0.4-0.3,0.8l2,0.7c0-0.4-0.1-0.7-0.3-1C108.3,451.8,108,451.6,107.7,451.5z"/>
	</g>
	<g>
		<path class="st12" d="M235.4,111.2c0.6,0.4,0.9,0.7,0.9,1.1c0,0.3-0.2,0.5-0.7,0.7c-0.5,0.1-1,0.2-1.6,0.1l-1.2-0.9
			c0.5,0,0.9,0.1,1.2,0.1c0.3,0,0.5,0,0.7-0.1c0.2-0.1,0.3-0.1,0.3-0.2c0-0.1-0.1-0.2-0.3-0.4c-0.1-0.1-0.3-0.2-0.4-0.2
			c-0.1-0.1-0.3-0.1-0.5-0.1c-0.2,0-0.5-0.1-1-0.1c-0.4-0.1-0.8-0.1-1.1-0.2s-0.6-0.2-0.9-0.3c-0.3-0.1-0.6-0.3-0.9-0.5
			c-0.6-0.4-0.9-0.7-0.9-1c-0.1-0.3,0.1-0.5,0.6-0.6c0.2-0.1,0.5-0.1,0.8-0.1c0.3,0,0.6,0,1,0l0.7,0.8c-0.4,0-0.7,0-0.9,0
			c-0.2,0-0.4,0-0.5,0.1c-0.2,0-0.3,0.1-0.2,0.2c0,0.1,0.1,0.2,0.3,0.4c0.1,0.1,0.2,0.1,0.4,0.2c0.1,0.1,0.3,0.1,0.4,0.1
			c0.2,0,0.5,0.1,1,0.1c0.7,0.1,1.3,0.2,1.7,0.4C234.6,110.7,235,110.9,235.4,111.2z"/>
		<path class="st12" d="M240,111.6l-0.8-0.4l0,0c0.1,0.2,0.2,0.4,0.1,0.5c-0.1,0.1-0.2,0.2-0.5,0.3c-0.3,0.1-0.7,0.1-1.2-0.1
			c-0.4-0.1-0.9-0.4-1.4-0.7c-0.5-0.4-0.8-0.7-0.8-0.9c0-0.2,0.2-0.4,0.7-0.6l0.6-0.2l-0.2-0.1c-0.5-0.3-0.9-0.5-1.3-0.4
			c-0.3,0.1-0.5,0.2-0.6,0.5l-1.2-0.5c0.1-0.3,0.4-0.5,0.8-0.7c0.4-0.1,0.9-0.1,1.5,0c0.5,0.1,1.1,0.4,1.6,0.8l3.2,2.2L240,111.6z
			 M237.5,110.1l-0.3,0.1c-0.3,0.1-0.4,0.2-0.4,0.3c0,0.1,0.1,0.3,0.4,0.5c0.4,0.3,0.7,0.3,1,0.3c0.2-0.1,0.3-0.2,0.2-0.3
			c0-0.2-0.2-0.3-0.5-0.5L237.5,110.1z"/>
		<path class="st12" d="M239.6,108l-0.8,0.2l3.8,2.7l-0.9,0.3l-3.8-2.7l-0.5,0.1l-0.6-0.4l0.2-0.4l-0.4-0.2
			c-0.5-0.4-0.9-0.7-0.9-0.9c-0.1-0.2,0.1-0.4,0.5-0.5c0.3-0.1,0.7-0.1,1-0.1l0.7,0.7c-0.3,0-0.5,0-0.6,0.1c-0.1,0-0.2,0.1-0.1,0.2
			c0.1,0.1,0.2,0.2,0.3,0.3l0.3,0.2l0.8-0.2L239.6,108z"/>
		<path class="st12" d="M245.5,110.1c-0.5,0.2-1.2,0.1-1.9-0.1c-0.7-0.2-1.5-0.6-2.3-1.1c-0.8-0.6-1.3-1-1.4-1.4
			c-0.2-0.4,0-0.6,0.5-0.8c0.5-0.1,1-0.1,1.7,0.1c0.7,0.2,1.3,0.5,2,1l0.6,0.4l-2.2,0.6c0.4,0.3,0.8,0.4,1.1,0.5
			c0.4,0.1,0.7,0.1,0.9,0c0.2-0.1,0.4-0.1,0.5-0.2c0.1-0.1,0.2-0.2,0.3-0.4l1,0.7c0,0.1-0.1,0.2-0.3,0.3
			C246,110,245.8,110.1,245.5,110.1z M241.4,107.3c-0.2,0.1-0.3,0.2-0.2,0.3c0.1,0.2,0.3,0.3,0.6,0.6l1.3-0.4
			c-0.3-0.2-0.6-0.4-0.9-0.5C241.8,107.3,241.6,107.3,241.4,107.3z"/>
		<path class="st12" d="M251.1,108.5l-6-3.2l0,0c1,0.7,1.7,1.2,2.1,1.4l2.9,2l-0.8,0.2l-6.3-4.4l1.3-0.4l5.8,3.1l0,0l-3.7-3.7
			l1.3-0.4l6.3,4.4l-0.9,0.2l-3-2.1c-0.1-0.1-0.3-0.2-0.5-0.3c-0.2-0.1-0.7-0.5-1.4-1l0,0l3.8,3.8L251.1,108.5z"/>
		<path class="st12" d="M256.6,107c-0.5,0.2-1.2,0.1-1.9-0.1c-0.7-0.2-1.5-0.6-2.3-1.1c-0.8-0.6-1.3-1-1.4-1.4
			c-0.2-0.4,0-0.6,0.5-0.8c0.5-0.1,1-0.1,1.7,0.1c0.7,0.2,1.3,0.5,2,1l0.6,0.4l-2.2,0.6c0.4,0.3,0.8,0.4,1.1,0.5
			c0.4,0.1,0.7,0.1,0.9,0c0.2-0.1,0.4-0.1,0.5-0.2s0.2-0.2,0.3-0.4l1,0.7c0,0.1-0.1,0.2-0.3,0.3C257,106.9,256.8,107,256.6,107z
			 M252.4,104.2c-0.2,0.1-0.3,0.2-0.2,0.3c0.1,0.2,0.3,0.3,0.6,0.6l1.3-0.4c-0.3-0.2-0.6-0.4-0.9-0.5
			C252.8,104.2,252.6,104.2,252.4,104.2z"/>
		<path class="st12" d="M259.7,106.1c-0.4,0.1-0.9,0-1.6-0.2c-0.7-0.2-1.4-0.6-2.2-1.2c-0.8-0.6-1.3-1-1.5-1.4
			c-0.2-0.4-0.1-0.6,0.3-0.7c0.4-0.1,1,0,1.7,0.2l0,0c-0.4-0.2-0.7-0.5-1-0.7l-1.5-1.1l0.9-0.3l6.7,4.7l-0.7,0.2l-0.8-0.4l0,0
			C260.2,105.8,260.2,106,259.7,106.1z M259,105.3c0.2-0.1,0.3-0.2,0.2-0.3c-0.1-0.2-0.4-0.4-0.8-0.7l-0.1-0.1
			c-0.5-0.4-0.9-0.6-1.3-0.7c-0.3-0.1-0.6-0.2-0.9-0.1c-0.2,0.1-0.2,0.2-0.1,0.4c0.1,0.2,0.4,0.5,0.9,0.8c0.5,0.3,0.9,0.6,1.2,0.7
			C258.5,105.3,258.8,105.4,259,105.3z"/>
		<path class="st12" d="M256.4,101.1c-0.4-0.3-0.5-0.5-0.1-0.6c0.3-0.1,0.7,0,1.1,0.3c0.2,0.1,0.3,0.3,0.4,0.4c0,0.1,0,0.2-0.2,0.2
			C257.2,101.5,256.8,101.4,256.4,101.1z M263.4,105l-0.9,0.3l-4.8-3.4l0.9-0.3L263.4,105z"/>
		<path class="st12" d="M265.8,104.4c-1,0.3-2.4-0.1-4-1.3c-0.8-0.6-1.3-1-1.4-1.4c-0.1-0.4,0-0.6,0.6-0.8c0.4-0.1,0.8-0.1,1.4-0.1
			l0.7,0.8c-0.2,0-0.4,0-0.6,0c-0.2,0-0.3,0-0.5,0c-0.5,0.1-0.2,0.5,0.7,1.2c0.9,0.7,1.6,0.9,2.1,0.8c0.2,0,0.3-0.1,0.4-0.2
			c0.1-0.1,0.1-0.2,0.1-0.3l1.1,0.8c0,0.1-0.1,0.2-0.2,0.3C266.2,104.3,266,104.4,265.8,104.4z"/>
		<path class="st12" d="M269.6,103.3l-0.8-0.4l0,0c0.1,0.2,0.2,0.4,0.1,0.5c-0.1,0.1-0.2,0.2-0.5,0.3c-0.3,0.1-0.7,0.1-1.2-0.1
			c-0.4-0.1-0.9-0.4-1.4-0.7c-0.5-0.4-0.8-0.7-0.8-0.9c0-0.2,0.2-0.4,0.7-0.6l0.6-0.2l-0.2-0.1c-0.5-0.3-0.9-0.5-1.3-0.4
			c-0.3,0.1-0.5,0.2-0.6,0.5l-1.2-0.5c0.1-0.3,0.4-0.5,0.8-0.7c0.5-0.1,0.9-0.1,1.5,0c0.5,0.1,1.1,0.4,1.6,0.8l3.2,2.2L269.6,103.3z
			 M267.1,101.8l-0.3,0.1c-0.3,0.1-0.4,0.2-0.4,0.3s0.1,0.3,0.4,0.5c0.4,0.3,0.7,0.3,1,0.3c0.2-0.1,0.3-0.2,0.2-0.3
			c0-0.2-0.2-0.3-0.5-0.5L267.1,101.8z"/>
		<path class="st12" d="M271.7,101.8c0.2,0,0.3-0.1,0.4-0.3l1,0.7c-0.1,0.2-0.3,0.3-0.6,0.4c-0.4,0.1-0.8,0.1-1.2-0.1
			c-0.4-0.1-0.9-0.4-1.4-0.8l-2.3-1.6l-0.4,0.1l-0.6-0.4l0.1-0.4l-0.8-0.8l0.6-0.2l1,0.7l0.9-0.3l1,0.7l-0.9,0.3l2.3,1.6
			c0.2,0.1,0.4,0.2,0.5,0.3C271.4,101.8,271.6,101.8,271.7,101.8z"/>
		<path class="st12" d="M267.8,97.9c-0.4-0.3-0.5-0.5-0.1-0.6s0.7,0,1.1,0.3c0.2,0.1,0.3,0.3,0.4,0.4c0,0.1,0,0.2-0.2,0.2
			C268.6,98.3,268.2,98.2,267.8,97.9z M274.8,101.8l-0.9,0.3l-4.8-3.4l0.9-0.3L274.8,101.8z"/>
		<path class="st12" d="M276.4,99c0.8,0.5,1.3,1,1.4,1.4s0,0.7-0.5,0.8c-0.3,0.1-0.7,0.1-1.2,0c-0.4-0.1-0.9-0.2-1.4-0.4
			c-0.5-0.2-1-0.5-1.5-0.9c-0.8-0.5-1.3-1-1.4-1.4c-0.2-0.4,0-0.7,0.6-0.8c0.3-0.1,0.7-0.1,1.2,0s0.9,0.2,1.4,0.4
			C275.4,98.4,275.9,98.7,276.4,99z M274.1,99.7c0.5,0.3,0.9,0.6,1.2,0.7c0.4,0.1,0.7,0.2,0.9,0.1c0.2-0.1,0.3-0.2,0.2-0.4
			c-0.1-0.2-0.4-0.5-0.9-0.8c-0.5-0.3-0.9-0.6-1.2-0.7c-0.3-0.1-0.6-0.2-0.9-0.1c-0.2,0.1-0.3,0.2-0.2,0.4
			C273.3,99.1,273.6,99.3,274.1,99.7z"/>
		<path class="st12" d="M282.7,99.6l-0.9,0.3l-2.8-2c-0.3-0.2-0.7-0.4-0.9-0.5c-0.3-0.1-0.5-0.1-0.7-0.1c-0.3,0.1-0.3,0.2-0.2,0.4
			c0.1,0.2,0.5,0.5,1,0.9l2.3,1.6l-0.9,0.3l-4.8-3.4l0.7-0.2l0.7,0.4l0.1,0c-0.1-0.2-0.2-0.4-0.1-0.5c0.1-0.1,0.2-0.2,0.4-0.3
			c0.4-0.1,0.8-0.1,1.3,0.1c0.5,0.2,1,0.4,1.6,0.8L282.7,99.6z"/>
		<path class="st12" d="M285.7,95.6c1,0.7,1.6,1.3,1.8,1.8c0.1,0.5-0.2,0.9-1,1.1l-1.2,0.3l-6.3-4.4l1.4-0.4
			c0.7-0.2,1.5-0.2,2.5,0.1C283.8,94.5,284.7,94.9,285.7,95.6z M284.8,95.9c-1.4-0.9-2.4-1.3-3.3-1.1L281,95l4.1,2.9l0.4-0.1
			C286.4,97.5,286.2,96.9,284.8,95.9z"/>
		<path class="st12" d="M283.7,93.4c-0.4-0.3-0.5-0.5-0.1-0.6s0.7,0,1.1,0.3c0.2,0.1,0.3,0.3,0.4,0.4c0,0.1,0,0.2-0.2,0.2
			C284.5,93.8,284.1,93.7,283.7,93.4z M290.7,97.4l-0.9,0.3l-4.8-3.4l0.9-0.3L290.7,97.4z"/>
		<path class="st12" d="M292.5,95.4c0.5,0.3,0.7,0.6,0.8,0.9c0,0.2-0.2,0.4-0.7,0.6c-0.2,0.1-0.5,0.1-0.7,0.1c-0.2,0-0.5,0-0.7,0
			l-1.1-0.8c0.3,0,0.6,0,0.9,0c0.3,0,0.5,0,0.7-0.1c0.3-0.1,0.4-0.2,0.1-0.4c-0.1-0.1-0.2-0.1-0.3-0.2c-0.1,0-0.3-0.1-0.4-0.1
			c-0.2,0-0.4-0.1-0.7-0.1c-0.4,0-0.7-0.1-1-0.1c-0.3-0.1-0.5-0.1-0.7-0.2c-0.2-0.1-0.5-0.2-0.7-0.4c-0.4-0.3-0.6-0.6-0.6-0.8
			c0-0.2,0.2-0.4,0.6-0.5c0.4-0.1,0.9-0.1,1.6-0.1l0.7,0.7c-0.3,0-0.5,0-0.7,0c-0.2,0-0.4,0-0.5,0.1c-0.3,0.1-0.3,0.2-0.1,0.3
			c0.1,0.1,0.3,0.1,0.4,0.2c0.2,0,0.5,0.1,1,0.1c0.4,0,0.7,0.1,1,0.1c0.3,0.1,0.5,0.1,0.7,0.2C292.1,95.1,292.3,95.3,292.5,95.4z"/>
		<path class="st12" d="M296.6,95.8c-0.4,0.1-0.9,0.1-1.5-0.2l0,0c0.4,0.3,0.7,0.4,0.7,0.5l1.9,1.4l-0.9,0.3l-6.9-4.8l0.7-0.2
			l0.8,0.4l0,0c-0.3-0.4-0.2-0.6,0.2-0.8c0.4-0.1,0.9,0,1.6,0.2c0.7,0.2,1.4,0.6,2.2,1.2c0.5,0.4,0.9,0.7,1.2,1
			c0.3,0.3,0.4,0.5,0.4,0.7C297,95.6,296.9,95.7,296.6,95.8z M292.4,93.1c-0.2,0.1-0.3,0.2-0.2,0.3c0.1,0.2,0.4,0.4,0.8,0.7l0.1,0.1
			c0.5,0.4,0.9,0.6,1.3,0.7c0.3,0.1,0.6,0.2,0.8,0.1c0.4-0.1,0.1-0.5-0.8-1.2c-0.5-0.3-0.9-0.6-1.2-0.7
			C292.9,93.1,292.6,93.1,292.4,93.1z"/>
		<path class="st12" d="M299.2,92.6c0.8,0.5,1.3,1,1.4,1.4c0.2,0.4,0,0.7-0.5,0.8c-0.3,0.1-0.7,0.1-1.2,0c-0.4-0.1-0.9-0.2-1.4-0.4
			c-0.5-0.2-1-0.5-1.5-0.9c-0.8-0.5-1.3-1-1.4-1.4c-0.2-0.4,0-0.7,0.6-0.8c0.3-0.1,0.7-0.1,1.2,0c0.4,0.1,0.9,0.2,1.4,0.4
			C298.2,92,298.7,92.3,299.2,92.6z M296.9,93.3c0.5,0.3,0.9,0.6,1.2,0.7c0.4,0.1,0.7,0.2,0.9,0.1c0.2-0.1,0.3-0.2,0.2-0.4
			c-0.1-0.2-0.4-0.5-0.9-0.8c-0.5-0.3-0.9-0.6-1.2-0.7c-0.3-0.1-0.6-0.2-0.9-0.1c-0.2,0.1-0.3,0.2-0.2,0.4
			C296.1,92.7,296.4,92.9,296.9,93.3z"/>
		<path class="st12" d="M303.3,92.4c0.5,0.3,0.7,0.6,0.8,0.9c0,0.2-0.2,0.4-0.7,0.6c-0.2,0.1-0.5,0.1-0.7,0.1c-0.2,0-0.5,0-0.7,0
			l-1.1-0.8c0.3,0,0.6,0,0.9,0c0.3,0,0.5,0,0.7-0.1c0.3-0.1,0.4-0.2,0.1-0.4c-0.1-0.1-0.2-0.1-0.3-0.2c-0.1,0-0.3-0.1-0.4-0.1
			c-0.2,0-0.4-0.1-0.7-0.1c-0.4,0-0.7-0.1-1-0.1c-0.3-0.1-0.5-0.1-0.7-0.2c-0.2-0.1-0.5-0.2-0.7-0.4c-0.4-0.3-0.6-0.6-0.6-0.8
			c0-0.2,0.2-0.4,0.6-0.5c0.4-0.1,0.9-0.1,1.6-0.1l0.7,0.7c-0.3,0-0.5,0-0.7,0c-0.2,0-0.4,0-0.5,0.1c-0.3,0.1-0.3,0.2-0.1,0.3
			c0.1,0.1,0.3,0.1,0.4,0.2c0.2,0,0.5,0.1,1,0.1c0.4,0,0.7,0.1,1,0.1c0.3,0.1,0.5,0.1,0.7,0.2C302.8,92.1,303,92.3,303.3,92.4z"/>
		<path class="st12" d="M307.6,92.6l-0.8-0.4l0,0c0.1,0.2,0.2,0.4,0.1,0.5c-0.1,0.1-0.2,0.2-0.5,0.3c-0.3,0.1-0.7,0.1-1.2-0.1
			c-0.4-0.1-0.9-0.4-1.4-0.7c-0.5-0.4-0.8-0.7-0.8-0.9c0-0.2,0.2-0.4,0.7-0.6l0.6-0.2l-0.2-0.1c-0.5-0.3-0.9-0.5-1.3-0.4
			c-0.3,0.1-0.5,0.2-0.6,0.5l-1.2-0.5c0.1-0.3,0.4-0.5,0.8-0.7c0.4-0.1,0.9-0.1,1.5,0c0.5,0.1,1.1,0.4,1.6,0.8l3.2,2.2L307.6,92.6z
			 M305.1,91.2l-0.3,0.1c-0.3,0.1-0.4,0.2-0.4,0.3s0.1,0.3,0.4,0.5c0.4,0.3,0.7,0.3,1,0.3c0.2-0.1,0.3-0.2,0.2-0.3
			c0-0.2-0.2-0.3-0.5-0.5L305.1,91.2z"/>
		<path class="st12" d="M310.1,91.9l-0.9,0.3l-6.7-4.7l0.9-0.3L310.1,91.9z"/>
	</g>
	<g>
		<path class="st16" d="M247.5,120.9c2.4,1.1,3.8,2.1,4.1,2.9c0.3,0.8-0.4,1.5-2.1,2l-2.8,0.8l-14.6-6.8l3.1-0.8
			c1.6-0.4,3.5-0.5,5.7-0.1C243.1,119.1,245.3,119.8,247.5,120.9z M245.4,121.5c-3.1-1.5-5.6-1.9-7.5-1.4l-1.1,0.3l9.5,4.4l0.9-0.2
			C249.2,124,248.6,123,245.4,121.5z"/>
		<path class="st16" d="M242.8,117.3c-1-0.5-1.1-0.8-0.4-1c0.8-0.2,1.6-0.1,2.6,0.4c0.5,0.2,0.7,0.4,0.8,0.6
			c0.1,0.2-0.1,0.3-0.5,0.4C244.6,117.9,243.8,117.8,242.8,117.3z M259,123.3l-2.1,0.6l-11.1-5.2l2.1-0.6L259,123.3z"/>
		<path class="st16" d="M263.2,119.7c1.1,0.5,1.7,1,1.8,1.4s-0.5,0.8-1.5,1.1c-0.6,0.1-1.1,0.2-1.6,0.3s-1,0.1-1.6,0.1l-2.5-1.2
			c0.7,0,1.3,0,2,0c0.7,0,1.2-0.1,1.5-0.2c0.8-0.2,0.8-0.5,0.2-0.7c-0.2-0.1-0.5-0.2-0.7-0.2s-0.6-0.1-1-0.1c-0.4,0-1,0-1.6,0
			c-0.9,0-1.7-0.1-2.3-0.1c-0.6-0.1-1.1-0.2-1.7-0.3c-0.5-0.2-1.1-0.4-1.6-0.6c-1-0.5-1.5-0.9-1.5-1.3c0-0.4,0.5-0.7,1.4-1
			c0.9-0.2,2.1-0.3,3.6-0.3l1.6,1.2c-0.6,0-1.2,0-1.7,0c-0.5,0-0.9,0.1-1.2,0.2c-0.6,0.2-0.7,0.4-0.2,0.6c0.3,0.1,0.6,0.2,1,0.3
			c0.4,0,1.1,0.1,2.2,0.1c0.9,0,1.7,0,2.3,0.1c0.6,0.1,1.1,0.2,1.7,0.3C262.1,119.3,262.6,119.5,263.2,119.7z"/>
		<path class="st16" d="M272.5,119.8c-0.9,0.2-2.1,0.2-3.5-0.1l-0.1,0c1,0.4,1.6,0.7,1.7,0.7l4.5,2.1l-2.1,0.6l-16-7.5l1.7-0.5
			l1.7,0.6l0.1,0c-0.6-0.6-0.4-1.1,0.5-1.4c0.9-0.2,2.1-0.2,3.6,0.1c1.5,0.3,3.2,0.9,5,1.8c1.2,0.6,2.1,1.1,2.7,1.5
			c0.6,0.5,1,0.9,1,1.2C273.4,119.4,273.1,119.6,272.5,119.8z M262.8,115.7c-0.5,0.1-0.7,0.3-0.4,0.6c0.2,0.3,0.9,0.7,1.9,1.2
			l0.3,0.2c1.2,0.6,2.2,0.9,2.9,1.1c0.8,0.2,1.4,0.2,1.9,0.1c0.9-0.2,0.3-0.9-2-1.9c-1.1-0.5-2-0.9-2.8-1.1S263.2,115.6,262.8,115.7
			z"/>
		<path class="st16" d="M278.3,114c1.8,0.8,2.9,1.6,3.3,2.2c0.4,0.7,0,1.1-1.2,1.4c-0.7,0.2-1.6,0.3-2.6,0.2c-1-0.1-2.1-0.3-3.3-0.6
			c-1.2-0.3-2.4-0.8-3.5-1.3c-1.8-0.8-2.9-1.6-3.3-2.2c-0.4-0.6,0.1-1.1,1.2-1.4c0.7-0.2,1.6-0.3,2.6-0.2c1,0.1,2.1,0.3,3.3,0.6
			C276,113,277.1,113.5,278.3,114z M273,115.4c1.1,0.5,2.1,0.9,2.9,1.1c0.8,0.2,1.5,0.2,2.1,0.1c0.6-0.1,0.7-0.4,0.4-0.7
			c-0.3-0.3-1-0.7-2.1-1.3c-1.1-0.5-2.1-0.9-2.9-1.1c-0.8-0.2-1.5-0.2-2-0.1c-0.6,0.1-0.7,0.4-0.4,0.7
			C271.2,114.5,271.9,114.9,273,115.4z"/>
		<path class="st16" d="M287.6,113.2c1.1,0.5,1.7,1,1.8,1.4c0.1,0.4-0.5,0.8-1.5,1.1c-0.6,0.1-1.1,0.2-1.6,0.3
			c-0.5,0.1-1,0.1-1.6,0.1l-2.5-1.2c0.7,0,1.3,0,2,0c0.7,0,1.2-0.1,1.5-0.2c0.8-0.2,0.8-0.5,0.2-0.7c-0.2-0.1-0.5-0.2-0.7-0.2
			s-0.6-0.1-1-0.1c-0.4,0-1,0-1.6,0c-0.9,0-1.7-0.1-2.3-0.1c-0.6-0.1-1.1-0.2-1.7-0.3c-0.5-0.2-1.1-0.4-1.6-0.6
			c-1-0.5-1.5-0.9-1.5-1.3c0-0.4,0.5-0.7,1.4-1c0.9-0.2,2.1-0.3,3.6-0.3l1.6,1.2c-0.6,0-1.2,0-1.7,0c-0.5,0-0.9,0.1-1.2,0.2
			c-0.6,0.2-0.7,0.4-0.2,0.6c0.3,0.1,0.6,0.2,1,0.3s1.1,0.1,2.2,0.1c0.9,0,1.7,0,2.3,0.1c0.6,0.1,1.1,0.2,1.7,0.3
			C286.5,112.7,287.1,112.9,287.6,113.2z"/>
		<path class="st16" d="M296.2,113.5c-1.2,0.3-2.7,0.4-4.4,0.1c-1.7-0.3-3.4-0.8-5.2-1.7c-1.9-0.9-3-1.6-3.4-2.3
			c-0.4-0.6,0-1.1,1.1-1.4c1.1-0.3,2.4-0.3,3.9,0c1.5,0.3,3,0.8,4.6,1.5l1.5,0.7l-4.9,1.3c0.9,0.4,1.7,0.7,2.5,0.8
			c0.8,0.1,1.5,0.1,2.1,0c0.5-0.1,0.8-0.3,1.1-0.4s0.5-0.4,0.6-0.7l2.4,1.1c-0.1,0.2-0.3,0.4-0.6,0.6
			C297.3,113.1,296.8,113.3,296.2,113.5z M286.5,109.2c-0.4,0.1-0.6,0.3-0.4,0.6c0.2,0.3,0.6,0.6,1.3,0.9l2.9-0.8
			c-0.8-0.3-1.5-0.6-2.1-0.7C287.5,109,287,109,286.5,109.2z"/>
		<path class="st16" d="M312.8,108.9l-2.1,0.6l-6.3-2.9l-4,1.1l6.3,2.9l-2.1,0.6l-14.6-6.8l2.1-0.6l5.7,2.7l4-1.1l-5.7-2.7l2.1-0.6
			L312.8,108.9z"/>
		<path class="st16" d="M318.8,107.4c-1.2,0.3-2.7,0.4-4.4,0.1c-1.7-0.3-3.4-0.8-5.2-1.7c-1.9-0.9-3-1.6-3.4-2.3
			c-0.4-0.6,0-1.1,1.1-1.4c1.1-0.3,2.4-0.3,3.9,0s3,0.8,4.6,1.5l1.5,0.7l-4.9,1.3c0.9,0.4,1.7,0.7,2.5,0.8c0.8,0.1,1.5,0.1,2.1,0
			c0.5-0.1,0.8-0.3,1.1-0.4c0.3-0.2,0.5-0.4,0.6-0.7l2.4,1.1c-0.1,0.2-0.3,0.4-0.6,0.6C319.9,107.1,319.4,107.3,318.8,107.4z
			 M309.1,103.1c-0.4,0.1-0.6,0.3-0.4,0.6c0.2,0.3,0.6,0.6,1.3,0.9l2.9-0.8c-0.8-0.3-1.5-0.6-2.1-0.7
			C310.1,103,309.6,103,309.1,103.1z"/>
		<path class="st16" d="M316.3,99.6c0.3-0.1,0.5-0.1,0.8-0.1l2.7,1.4c-0.2,0-0.5,0.1-0.7,0.1c-0.7,0.2-0.9,0.4-0.8,0.8
			c0.1,0.3,0.6,0.7,1.5,1.1l5.7,2.6l-2.1,0.6l-11.1-5.2l1.6-0.4l2.2,0.8l0.1,0c-0.4-0.4-0.6-0.7-0.6-1
			C315.6,99.9,315.9,99.7,316.3,99.6z"/>
		<path class="st16" d="M333.4,103.5c-1.2,0.3-2.7,0.4-4.4,0.1c-1.7-0.3-3.4-0.8-5.2-1.7c-1.9-0.9-3-1.6-3.4-2.3
			c-0.4-0.6,0-1.1,1.1-1.4c1.1-0.3,2.4-0.3,3.9,0c1.5,0.3,3,0.8,4.6,1.5l1.5,0.7l-4.9,1.3c0.9,0.4,1.7,0.7,2.5,0.8
			c0.8,0.1,1.5,0.1,2.1,0c0.5-0.1,0.8-0.3,1.1-0.4c0.3-0.2,0.5-0.4,0.6-0.7l2.4,1.1c-0.1,0.2-0.3,0.4-0.6,0.6
			C334.5,103.2,334,103.3,333.4,103.5z M323.7,99.2c-0.4,0.1-0.6,0.3-0.4,0.6c0.2,0.3,0.6,0.6,1.3,0.9l2.9-0.8
			c-0.8-0.3-1.5-0.6-2.1-0.7C324.7,99.1,324.2,99.1,323.7,99.2z"/>
	</g>
</g>
</svg>
