<?xml version="1.0" encoding="utf-8"?>
<!-- Generator: Adobe Illustrator 23.0.1, SVG Export Plug-In . SVG Version: 6.00 Build 0)  -->
<svg version="1.1" xmlns="http://www.w3.org/2000/svg" xmlns:xlink="http://www.w3.org/1999/xlink" x="0px" y="0px"
	 viewBox="0 0 125 125" style="enable-background:new 0 0 125 125;" xml:space="preserve">
<style type="text/css">
	.st0{display:none;}
	.st1{display:inline;}
	.st2{fill:#331F3D;}
	.st3{fill:#7A3E48;}
	.st4{fill:#FFFFFF;}
	.st5{fill:none;}
	.st6{fill:#C170B6;}
	.st7{fill:#EACA81;}
	.st8{fill:#AA66A7;}
	.st9{fill:#EFAC7F;}
	.st10{fill:#D19E78;}
	.st11{fill:#494234;}
	.st12{fill:#4C4C4C;}
	.st13{fill:#E2C281;}
	.st14{fill:#5E73CC;}
	.st15{fill:#7587D3;}
	.st16{fill:#626DD1;}
	.st17{fill:#7282DB;}
	.st18{fill:#F4CA9D;}
</style>
<g id="Layer_1" class="st0">
	<g id="Layer_5">
		<g class="st1">
			<circle class="st2" cx="62.8" cy="62.8" r="100.2"/>
			<circle class="st3" cx="61.9" cy="62.8" r="62.5"/>
			<g>
				<path class="st4" d="M-9.4,44.3l-0.7,5.4l-16.2,6.6v0.1c2.7,0.2,4.6,0.4,5.7,0.5l9.3,1.3l-0.5,3.8l-19.8-2.8l0.7-5.3l16-6.6
					v-0.1c-2.6-0.2-4.4-0.4-5.5-0.5l-9.4-1.3l0.5-3.8L-9.4,44.3z"/>
				<path class="st4" d="M-2.6,28l-4.9-0.6l-3,6.7l3.7,3.3l-1.9,4.2l-15.5-14.9l2.1-4.7l21.2,1.8L-2.6,28z M-11.3,26.8
					c-4.5-0.6-7-0.9-7.6-0.9s-1-0.2-1.4-0.2c0.9,0.8,3.2,2.7,6.8,5.9L-11.3,26.8z"/>
				<path class="st4" d="M6.1,15.4l-2.7,3.3L-9.4,8.4l-3.4,4.2l-2.8-2.2l9.5-11.7l2.8,2.2l-3.4,4.2L6.1,15.4z"/>
				<path class="st4" d="M12.6,8.8l-13-15.2l3.2-2.8L15.8,6L12.6,8.8z"/>
				<path class="st4" d="M20.4-20.8l3.7-2.1L28-2.1l-4,2.3L8.3-13.9L12-16l9.1,8.5C21.7-7,22.2-6.4,23-5.7C23.7-5,24-4.5,24.2-4.2
					C24-5,23.5-6.4,23-8.5L20.4-20.8z"/>
				<path class="st4" d="M48.2-9.3L37.2-6.2l-5.4-19.3l11.1-3.1l0.9,3.4l-7,2l1.2,4.2l6.5-1.8l0.9,3.4l-6.5,1.8l1.4,5l7-2L48.2-9.3z
					"/>
				<path class="st4" d="M80.3-18.8c-0.4,3.3-1.5,5.7-3.3,7.3c-1.8,1.6-4.3,2.2-7.3,1.9c-3-0.3-5.3-1.5-6.7-3.4
					c-1.4-2-2-4.6-1.6-7.9s1.5-5.8,3.3-7.3c1.8-1.6,4.3-2.2,7.3-1.8c3.1,0.3,5.3,1.5,6.7,3.4C80.2-24.8,80.8-22.1,80.3-18.8z
					 M65.8-20.4c-0.2,2.2,0,3.9,0.7,5.2c0.7,1.2,1.9,1.9,3.6,2.1c3.4,0.4,5.3-1.7,5.8-6.2s-0.9-6.9-4.3-7.3c-1.7-0.2-3,0.2-4,1.3
					C66.8-24.3,66.1-22.7,65.8-20.4z"/>
				<path class="st4" d="M101.6-14.9c-0.8,2-2.1,3.3-3.7,3.8c-1.7,0.6-3.7,0.4-6-0.6l-1.7-0.7l-2.7,6.6l-3.9-1.6L91.2-26l5.9,2.4
					c2.3,0.9,3.8,2.1,4.5,3.5C102.3-18.5,102.3-16.8,101.6-14.9z M91.6-15.5l1.3,0.5c1.2,0.5,2.2,0.6,3,0.4s1.4-0.8,1.7-1.7
					c0.4-0.9,0.4-1.7,0.1-2.4c-0.3-0.6-1-1.2-2.1-1.6L93.8-21L91.6-15.5z"/>
				<path class="st4" d="M100.2,0.5l11-16.7l3.6,2.3l-11,16.7L100.2,0.5z"/>
				<path class="st4" d="M128.4,12c-2.4,2.3-4.8,3.5-7.2,3.5s-4.7-1-6.8-3.3c-2.1-2.2-3.1-4.5-3-6.9s1.4-4.8,3.8-7.1
					c2.4-2.3,4.8-3.5,7.2-3.5s4.7,1.1,6.8,3.3s3.1,4.5,3,6.9C132.1,7.4,130.8,9.7,128.4,12z M118.3,1.5c-1.6,1.5-2.5,3-2.8,4.4
					c-0.2,1.4,0.2,2.7,1.4,3.9c2.3,2.4,5.1,2.1,8.4-1c3.3-3.1,3.7-5.9,1.4-8.3c-1.2-1.2-2.5-1.7-3.9-1.6
					C121.4-0.9,119.9-0.1,118.3,1.5z"/>
				<path class="st4" d="M123.4,23.3L140.6,13l2.2,3.6L125.6,27L123.4,23.3z"/>
				<path class="st4" d="M143.6,44.3c-3.1,1.1-5.8,1-8.1-0.2s-4-3.5-5.1-6.9l-1.8-5.4l19-6.4l2,6c1.1,3.1,1.1,5.8,0,8
					C148.6,41.7,146.6,43.3,143.6,44.3z M142.1,40.2c4.1-1.4,5.5-3.9,4.3-7.5l-0.7-2.1l-12.3,4.2l0.6,1.7
					C135.2,40.4,137.9,41.6,142.1,40.2z"/>
				<path class="st4" d="M140.8,63.7c-1.8,0.1-3.3-0.4-4.4-1.6c-1.1-1.2-1.8-3-2-5.3c-0.2-2.1,0.1-4,0.8-5.7l3.9-0.3
					c-0.5,1.4-0.8,2.6-1,3.5s-0.2,1.8-0.2,2.6c0.1,0.9,0.3,1.6,0.7,2.1s0.9,0.7,1.6,0.6c0.4,0,0.7-0.2,1-0.4c0.3-0.2,0.6-0.6,0.8-1
					c0.3-0.4,0.6-1.3,1.2-2.7c0.5-1.3,1-2.2,1.5-2.9c0.5-0.6,1.1-1.2,1.7-1.6c0.7-0.4,1.5-0.7,2.4-0.7c1.8-0.1,3.2,0.4,4.3,1.5
					s1.7,2.7,1.9,4.9c0.1,1,0,2-0.2,3s-0.5,2-0.8,3l-3.4-1.1c0.4-1.1,0.6-2,0.7-2.7c0.1-0.7,0.2-1.4,0.1-2.1
					c-0.1-0.8-0.3-1.4-0.7-1.8s-0.9-0.6-1.5-0.5c-0.4,0-0.7,0.1-1,0.3c-0.3,0.2-0.5,0.5-0.7,0.9s-0.6,1.3-1.2,2.8
					c-0.8,1.9-1.6,3.3-2.4,4C143.2,63.2,142.1,63.6,140.8,63.7z"/>
			</g>
		</g>
	</g>
	<g id="Layer_4">
		<g class="st1">
			<circle class="st2" cx="62.1" cy="62.2" r="100.2"/>
			<circle class="st3" cx="62.1" cy="62.2" r="62.5"/>
			<g>
				<path class="st4" d="M-9.7,47.8l-0.7,4.2l-11.5-1.7l-1.9-0.3l-2-0.4c0.6,0.8,1,1.4,1.1,1.7l1.5,2.6l-2.8,1.6l-4.1-7.1l0.5-3.4
					L-9.7,47.8z"/>
				<path class="st4" d="M-8.8,27.4c1.7,0.7,2.8,1.8,3.3,3.4s0.3,3.5-0.5,5.6c-0.8,2-1.8,3.6-3.2,4.8l-3.7-1.4c1.1-1,1.9-2,2.4-2.7
					c0.6-0.8,1-1.5,1.3-2.3c0.3-0.9,0.4-1.6,0.3-2.2c-0.2-0.6-0.6-1-1.2-1.3c-0.4-0.1-0.7-0.2-1.1-0.1s-0.8,0.3-1.2,0.6
					c-0.4,0.3-1.2,0.9-2.2,1.9c-1,0.9-1.8,1.6-2.5,2s-1.5,0.6-2.3,0.7s-1.6,0-2.5-0.4c-1.7-0.6-2.7-1.7-3.2-3.2s-0.4-3.2,0.4-5.2
					c0.4-1,0.9-1.9,1.4-2.6c0.6-0.8,1.3-1.6,2-2.4l2.6,2.5c-0.8,0.8-1.4,1.5-1.8,2.1s-0.7,1.2-1,1.8c-0.3,0.7-0.3,1.4-0.1,1.9
					c0.2,0.5,0.6,0.9,1.1,1.1c0.3,0.1,0.7,0.2,1,0.1s0.7-0.2,1.1-0.5s1.1-0.9,2.3-2c1.5-1.4,2.8-2.3,3.9-2.6
					C-11.2,26.8-10,26.9-8.8,27.4z"/>
				<path class="st4" d="M2.8,19.3l-2.4,3.5l-13.6-9.3l-3.1,4.5l-2.9-2l8.5-12.5l2.9,2l-3.1,4.5L2.8,19.3z"/>
				<path class="st4" d="M23.8-12.3C25.6-9.5,26.4-7,26-4.6s-1.8,4.4-4.4,6.1c-2.6,1.7-5,2.3-7.4,1.7S9.7,1,7.9-1.8S5.3-7.1,5.7-9.5
					c0.4-2.4,1.9-4.4,4.4-6.1c2.6-1.7,5-2.3,7.3-1.7C19.8-16.7,21.9-15,23.8-12.3z M11.6-4.1c1.2,1.9,2.5,3,3.9,3.5
					c1.3,0.5,2.7,0.2,4.1-0.7c2.8-1.9,3-4.7,0.5-8.4c-2.5-3.8-5.2-4.7-8-2.8C10.7-11.6,10-10.4,9.9-9C9.8-7.6,10.4-6,11.6-4.1z"/>
				<path class="st4" d="M42.6-22.9c0.7,2.1,0.5,3.8-0.4,5.3c-0.9,1.5-2.6,2.6-4.9,3.4l-1.7,0.6l2.2,6.8l-4,1.3l-6.1-19.1l6.1-2
					c2.3-0.7,4.2-0.8,5.8-0.2C40.9-26.1,42-24.8,42.6-22.9z M34.5-16.9l1.3-0.4c1.2-0.4,2.1-0.9,2.6-1.6s0.5-1.5,0.2-2.4
					s-0.8-1.6-1.5-1.8c-0.7-0.3-1.5-0.2-2.7,0.1l-1.8,0.6L34.5-16.9z"/>
				<path class="st4" d="M51.4-10.2l-2.3-19.9l4.2-0.5l2.3,19.9L51.4-10.2z"/>
				<path class="st4" d="M80.5-19.5c-0.4,3.3-1.5,5.7-3.3,7.3c-1.8,1.6-4.3,2.2-7.3,1.9c-3-0.3-5.3-1.5-6.7-3.4s-2-4.6-1.6-7.9
					s1.5-5.8,3.3-7.3c1.8-1.6,4.3-2.2,7.3-1.9c3.1,0.3,5.3,1.5,6.7,3.4C80.3-25.4,80.8-22.8,80.5-19.5z M65.9-21.1
					c-0.2,2.2,0,3.9,0.7,5.2c0.7,1.2,1.9,1.9,3.6,2.1c3.4,0.4,5.3-1.7,5.8-6.2s-0.9-6.9-4.3-7.3c-1.7-0.2-3,0.2-4,1.3
					C66.8-24.9,66.2-23.3,65.9-21.1z"/>
				<path class="st4" d="M83.8-7.7l6.7-18.9l4,1.4L87.9-6.3L83.8-7.7z"/>
				<path class="st4" d="M112.8-4.5c-1.7,2.8-3.8,4.5-6.3,5s-5.3-0.1-8.3-2l-4.8-2.9l10.4-17.1l5.4,3.3c2.8,1.7,4.5,3.8,5.2,6.2
					C114.9-9.7,114.4-7.1,112.8-4.5z M109.1-6.7c2.2-3.7,1.7-6.5-1.5-8.5l-1.9-1.2L98.9-5.3l1.6,0.9C103.8-2.1,106.8-2.9,109.1-6.7z
					"/>
				<path class="st4" d="M142.8,14.9l-10.6,7.5c-1.2,0.9-2.5,1.3-3.7,1.4c-1.3,0.1-2.5-0.2-3.8-0.9s-2.3-1.7-3.3-3.1
					c-1.5-2.1-2.1-4.1-1.9-6c0.3-1.9,1.3-3.6,3.2-4.9l10.5-7.5l2.5,3.5l-10,7.1c-1.3,0.9-2,1.8-2.2,2.7s0.1,2,0.9,3.1
					c0.8,1.1,1.7,1.7,2.6,1.8c1,0.1,2.1-0.3,3.3-1.2l10-7.1L142.8,14.9z"/>
				<path class="st4" d="M138.1,40.5c-1.7,0.6-3.3,0.5-4.7-0.3s-2.6-2.4-3.4-4.5c-0.8-2-1.1-3.9-0.9-5.7l3.7-1.4
					c-0.1,1.5-0.1,2.7,0,3.7s0.3,1.8,0.6,2.5c0.3,0.9,0.8,1.5,1.3,1.8s1.1,0.4,1.8,0.1c0.4-0.1,0.7-0.4,0.9-0.7
					c0.2-0.3,0.4-0.7,0.5-1.2s0.2-1.5,0.3-2.9c0.1-1.3,0.3-2.4,0.6-3.2c0.3-0.8,0.7-1.4,1.2-2s1.2-1.1,2.1-1.4
					c1.7-0.6,3.2-0.6,4.5,0.2c1.4,0.8,2.4,2.1,3.2,4.1c0.4,1,0.6,1.9,0.7,2.9c0.1,1,0.1,2,0.1,3.1l-3.6-0.1c0-1.2,0-2.1-0.1-2.8
					c-0.1-0.7-0.2-1.4-0.5-2c-0.3-0.8-0.7-1.3-1.2-1.5c-0.5-0.3-1-0.3-1.6-0.1c-0.4,0.1-0.6,0.3-0.8,0.6c-0.2,0.3-0.4,0.6-0.5,1.1
					c-0.1,0.4-0.2,1.5-0.4,3c-0.2,2.1-0.6,3.6-1.2,4.6C140.1,39.3,139.2,40.1,138.1,40.5z"/>
				<path class="st4" d="M135.3,58.1l-1.6-11.4l19.8-2.8l1.6,11.4l-3.4,0.5l-1-7.2l-4.4,0.6l0.9,6.7l-3.4,0.5l-0.9-6.7l-5.1,0.7
					l1,7.2L135.3,58.1z"/>
			</g>
		</g>
	</g>
	<g id="Layer_3">
		<g class="st1">
			<circle class="st2" cx="62.6" cy="62.2" r="100.2"/>
			<circle class="st3" cx="62.6" cy="62.2" r="62.5"/>
			<g>
				<path class="st4" d="M2.3,21.6L0,25.2l-14-8.8l-2.9,4.6l-3-1.9l8-12.8l3,1.9l-2.9,4.6L2.3,21.6z"/>
				<path class="st4" d="M14-5.5c2.2,2.4,3.4,4.9,3.4,7.3c0,2.4-1.1,4.7-3.4,6.7c-2.3,2.1-4.6,3-7,2.8s-4.8-1.5-7-4
					C-2.3,4.8-3.4,2.4-3.3,0c0-2.4,1.2-4.7,3.4-6.7c2.3-2.1,4.6-3,7-2.8C9.4-9.3,11.7-7.9,14-5.5z M3.2,4.4C4.7,6,6.2,7,7.6,7.3
					c1.4,0.3,2.7-0.2,4-1.3c2.5-2.3,2.2-5.1-0.8-8.4C7.8-5.7,5-6.2,2.5-4C1.3-2.9,0.8-1.6,0.8-0.2C0.9,1.2,1.7,2.7,3.2,4.4z"/>
				<path class="st4" d="M24.9-0.3l-9.2-17.8l3.8-1.9l7.6,14.7L34.3-9l1.6,3L24.9-0.3z"/>
				<path class="st4" d="M51-10.1L39.8-7.2l-5-19.4L46-29.5l0.9,3.4l-7.1,1.8l1.1,4.3l6.6-1.7l0.9,3.4l-6.6,1.7l1.3,5l7.1-1.8
					L51-10.1z"/>
				<path class="st4" d="M59.9-18.5l0.1,7.7h-4.2l-0.2-20l5.8-0.1c2.7,0,4.7,0.4,6.1,1.4c1.3,1,2,2.5,2,4.5c0,1.2-0.3,2.2-0.9,3.2
					c-0.6,0.9-1.5,1.7-2.7,2.2c3.1,4.5,5.1,7.4,6,8.7h-4.7l-4.9-7.6L59.9-18.5z M59.8-22h1.4c1.3,0,2.3-0.2,3-0.7s0.9-1.2,0.9-2.1
					c0-1-0.3-1.6-1-2s-1.7-0.6-3-0.6h-1.3V-22z"/>
				<path class="st4" d="M86.5-7.2l-0.2-5L79.2-14l-2.6,4.2l-4.4-1.1l11.9-17.7l5,1.3l1.8,21.2L86.5-7.2z M86.2-15.9
					c-0.2-4.5-0.3-7.1-0.4-7.7c0-0.6,0-1.1,0-1.4c-0.6,1.1-2.1,3.6-4.7,7.7L86.2-15.9z"/>
				<path class="st4" d="M108.8,4.4l-4.6-2.8l0.5-17.5l-0.1-0.1c-1.2,2.4-2.2,4-2.8,5l-4.9,8l-3.2-2l10.4-17.1l4.6,2.8L108.3-2h0.1
					c1.2-2.3,2.1-3.9,2.7-4.8l4.9-8.1l3.3,2L108.8,4.4z"/>
				<path class="st4" d="M130.9,3.1c-1.1-1.2-2.4-1.7-3.8-1.5c-1.5,0.2-3,1-4.6,2.4c-3.3,3-3.8,5.8-1.5,8.2c1,1,2.4,2.1,4.2,3.1
					l-2.6,2.4c-1.6-0.7-3.1-1.9-4.5-3.4c-2-2.1-2.8-4.4-2.6-6.7c0.3-2.3,1.6-4.6,4-6.9c1.5-1.4,3.1-2.4,4.8-2.9s3.3-0.5,4.9,0
					c1.6,0.5,3,1.4,4.3,2.8c1.3,1.4,2.3,3.2,2.9,5.3l-3.5,1.3c-0.2-0.8-0.5-1.6-0.8-2.3C131.8,4.2,131.4,3.6,130.9,3.1z"/>
				<path class="st4" d="M130.2,32.4l-5.6-10.1l17.5-9.7l5.6,10.1l-3,1.7l-3.5-6.4l-3.9,2.1l3.3,5.9l-3,1.7l-3.3-5.9l-4.5,2.5
					l3.5,6.4L130.2,32.4z"/>
			</g>
		</g>
	</g>
	<g>
		<g class="st1">
			<circle class="st2" cx="62.4" cy="62.2" r="100.2"/>
			<circle class="st3" cx="62.4" cy="62.2" r="62.5"/>
			<g>
				<path class="st4" d="M8.3,14.3l-2.8,4l-10.2-3.8c-0.4-0.1-1.1-0.4-2.2-0.9c-1.1-0.5-1.8-0.8-2.2-1c0.4,0.3,0.9,0.9,1.7,1.7
					c0.8,0.8,1.3,1.4,1.6,1.8l7,8.2l-2.8,3.9l-19.3-7.3l2.4-3.4l10.4,4.2c1.9,0.8,3.5,1.5,4.9,2.2c-0.4-0.3-1-0.9-1.8-1.7
					s-1.4-1.4-1.8-1.9l-7.3-8.9l2.3-3.3l10.9,4c0.5,0.2,1.2,0.5,2.2,0.9s1.8,0.8,2.4,1.2c-0.5-0.5-1.2-1.1-1.9-1.9
					C1,11.5,0.4,10.9,0,10.4L-7.5,2l2.4-3.4L8.3,14.3z"/>
				<path class="st4" d="M14.4,8.9L1.4-6.3l3.2-2.8l13,15.2L14.4,8.9z"/>
				<path class="st4" d="M28.9-1.4l-3.7,2.1L17-13.6l-4.7,2.7L10.5-14l13.1-7.5l1.8,3.1l-4.7,2.7L28.9-1.4z"/>
				<path class="st4" d="M52.8-9.6l-4.1,1.1l-2.2-8.4l-7.7,2l2.2,8.4l-4.1,1l-5.1-19.4l4.1-1.1l2,7.6l7.7-2l-2-7.6l4.1-1L52.8-9.6z"
					/>
				<path class="st4" d="M75.2-19.8c-0.1,3.3-1.1,5.8-3.1,7.5c-1.9,1.7-4.7,2.5-8.2,2.3l-5.7-0.2l0.7-20l6.3,0.2
					c3.3,0.1,5.8,1.1,7.5,2.9C74.4-25.3,75.3-22.9,75.2-19.8z M70.8-19.9c0.2-4.3-1.7-6.5-5.5-6.6l-2.3-0.1l-0.5,13l1.8,0.1
					C68.5-13.3,70.6-15.5,70.8-19.9z"/>
				<path class="st4" d="M85.8-14.6l-2.3,7.3l-4-1.3l6.1-19.1l5.6,1.8c2.6,0.8,4.4,1.9,5.3,3.3c0.9,1.3,1.1,3,0.5,4.9
					c-0.4,1.1-1,2-1.9,2.7s-2,1.1-3.3,1.2c1.5,5.2,2.5,8.6,3,10.1l-4.5-1.4l-2.2-8.8L85.8-14.6z M86.8-17.9l1.3,0.4
					c1.3,0.4,2.3,0.5,3,0.3s1.3-0.8,1.6-1.7c0.3-0.9,0.2-1.6-0.3-2.2s-1.4-1.1-2.7-1.5L88.5-23L86.8-17.9z"/>
				<path class="st4" d="M107.4,4.5l1.4-4.8l-6.1-4L98.9-1l-3.8-2.5l16.9-13l4.4,2.8l-5,20.7L107.4,4.5z M109.9-3.8
					c1.2-4.4,1.9-6.8,2.1-7.4c0.2-0.6,0.3-1,0.4-1.3c-0.9,0.8-3.2,2.8-6.9,5.9L109.9-3.8z"/>
				<path class="st4" d="M125.8,24l-3-3.8l6.5-8.7c0.2-0.3,0.7-0.9,1.5-1.9c0.8-0.9,1.3-1.5,1.6-1.8c-0.4,0.3-1.1,0.7-2.1,1.2
					s-1.7,0.9-2.1,1.1l-9.9,4.5l-3-3.8l12.4-16.5l2.6,3.3l-6.9,8.8c-1.3,1.6-2.5,3-3.5,4c0.4-0.3,1.1-0.7,2.1-1.2s1.7-0.9,2.3-1.2
					l10.6-4.8l2.5,3.1l-6.9,9.3c-0.3,0.4-0.8,1-1.5,1.8s-1.3,1.5-1.8,2c0.6-0.4,1.4-0.8,2.4-1.3s1.7-0.9,2.4-1.2l10.1-4.9l2.6,3.3
					L125.8,24z"/>
				<path class="st4" d="M129.3,31l18.6-7.4l1.6,3.9l-15.4,6.1l3,7.5l-3.3,1.3L129.3,31z"/>
			</g>
		</g>
	</g>
	<g class="st1">
		<path class="st5" d="M84.6,115.8c0-0.4-0.1-0.7-0.1-1.1c-0.1-0.7-0.2-1.4-0.3-2.1c-0.1-0.8-0.2-1.6-0.4-2.3
			c-0.1-0.7-0.3-1.3-0.4-2l0.1,13.1c0.5-0.2,1.1-0.4,1.6-0.6c-0.2-1.3-0.3-2.6-0.4-3.9C84.7,116.5,84.6,116.2,84.6,115.8z"/>
		<path class="st5" d="M41.1,110.3c-0.1,0.8-0.3,1.5-0.4,2.3c-0.1,0.7-0.2,1.4-0.3,2.1c0,0.4-0.1,0.7-0.1,1.1c0,0.3-0.1,0.7-0.1,1.1
			c-0.1,1.2-0.3,2.5-0.4,3.8c0.6,0.2,1.3,0.5,1.9,0.7l0.1-14.2C41.5,108.2,41.3,109.2,41.1,110.3z"/>
		<path class="st5" d="M62.5,0C28,0,0,28,0,62.5c0,22.2,11.5,41.6,28.9,52.7c0-0.1,0-0.1,0-0.2c0-0.1,0-0.1,0-0.2
			c0-0.6,0.1-1.3,0.2-2c0.1-0.7,0.1-1.4,0.2-2.2c0.3-2.9,0.8-5.9,1.6-8.8c0.1-0.5,0.3-1.1,0.4-1.6l0.5-1.6c0.3-1.1,0.7-2.1,1-3.1
			l0.1-0.2c-2-1.4-3.6-3.1-4.7-5.2C28.1,90.1,28,90,28,89.9c-0.6-1.3-4-8.9-0.4-15.7c0.7-1.3,2.1-3.5,5.1-5.5
			c-1.8-3.7-6.3-14.5-3.4-27.6c0.7-3.1,2.2-9.9,7.2-15.7c0.2-0.6,0.4-1.1,0.6-1.6c4.7-9.8,23.2-13.7,36.8-7.8c5,1.5,9.6,4,13.3,7.5
			c6.4,6.2,8.1,14.1,8.9,17.6c2.9,13.1-1.6,23.9-3.4,27.6c1.5,1,3.6,2.7,5.1,5.5c3.8,7.2-0.1,15-0.6,16.1c-1.1,2.2-2.8,4-4.9,5.4
			l0,0c0.3,1,0.7,2,1,3.1l0.5,1.6c0.1,0.5,0.3,1.1,0.4,1.6c0.7,2.9,1.2,5.8,1.6,8.8c0.1,0.7,0.2,1.4,0.2,2.2c0.1,0.7,0.1,1.3,0.2,2
			c0,0.1,0,0.1,0,0.2c0,0.1,0,0.1,0,0.2c17.4-11.1,29-30.6,29-52.7C125,28,97,0,62.5,0z"/>
		<path class="st6" d="M69.7,81.2C69.7,81.2,69.7,81.2,69.7,81.2l-7.1,7.1l-7.1-7.1c0,0,0,0,0,0l7.1,7.1L69.7,81.2z"/>
		<path class="st7" d="M28.9,115c0,0.1,0,0.1,0,0.2c3.4,2.2,7,4,10.9,5.5c0.2-1.3,0.3-2.6,0.4-3.8L28.9,115z"/>
		<path class="st8" d="M29.3,110.7c-0.1,0.7-0.2,1.4-0.2,2.2c-0.1,0.7-0.1,1.3-0.2,2c0,0.1,0,0.1,0,0.2l11.3,1.9
			c0-0.4,0.1-0.7,0.1-1.1c0-0.4,0.1-0.7,0.1-1.1c0.1-0.7,0.2-1.4,0.3-2.1L29.3,110.7z"/>
		<path class="st7" d="M84.7,116.9c0.1,1.2,0.3,2.5,0.4,3.9c3.8-1.5,7.4-3.3,10.9-5.5c0-0.1,0-0.1,0-0.2L84.7,116.9z"/>
		<path class="st6" d="M94.1,101.9c-0.1-0.5-0.3-1.1-0.4-1.6l-0.5-1.6c-0.3-1.1-0.7-2.1-1-3.1l0,0l-0.3-0.8c0.1,0.2,0-0.1-0.1-0.3
			c-0.2-0.6-0.4-1.3-0.7-2.1c-0.3-0.7-0.7-1.5-1.1-2.2c-0.2-0.3-0.4-0.7-0.7-1c-0.2-0.3-0.5-0.6-0.7-0.9c-1-1.2-2.2-2.2-3.4-3
			c-1.2-0.8-2.5-1.4-3.8-1.9c-2.4-0.9-4.8-1.3-7-1.4c0.1,0,0.1,0,0.2,0.1l-0.7,0.7L62.8,93.8l0,0L62.6,94L51.1,82.5l-0.4-0.4
			c0.1,0,0.1,0,0.2-0.1c-2.3,0-4.8,0.4-7.3,1.4c-1.3,0.5-2.6,1.1-3.8,1.9c-1.2,0.8-2.4,1.8-3.4,3c-0.2,0.3-0.5,0.6-0.7,0.9
			c-0.2,0.3-0.4,0.7-0.7,1c-0.4,0.7-0.8,1.5-1.1,2.2c-0.3,0.7-0.5,1.5-0.7,2.1c-0.1,0.3-0.2,0.5-0.1,0.3l-0.2,0.6l-0.1,0.2
			c-0.3,1-0.7,2-1,3.1l-0.5,1.6c-0.1,0.5-0.3,1.1-0.4,1.6c-0.7,2.9-1.2,5.8-1.6,8.8l11.4,1.9c0.1-0.8,0.2-1.6,0.4-2.3
			c0.2-1,0.4-2,0.6-3l-0.1,14.2c6.5,2.3,13.5,3.6,20.8,3.6c7.4,0,14.5-1.3,21-3.6l-0.1-13.1c0.1,0.6,0.3,1.3,0.4,2
			c0.1,0.8,0.3,1.5,0.4,2.3l11.4-1.9C95.3,107.8,94.8,104.8,94.1,101.9z"/>
		<path class="st8" d="M74.3,82.1c-1.4-0.5-3-0.8-4.5-0.9l-7.1,7.1l-7.1-7.1c-1.6,0-3.2,0.3-4.6,0.9c-0.1,0-0.1,0-0.2,0.1l0.4,0.4
			L62.6,94l0.2-0.2l0,0l10.9-10.9l0.7-0.7C74.4,82.1,74.3,82.1,74.3,82.1z"/>
		<path class="st8" d="M96,114.8c0-0.6-0.1-1.3-0.2-2c-0.1-0.7-0.1-1.4-0.2-2.2l-11.4,1.9c0.1,0.7,0.2,1.4,0.3,2.1
			c0,0.4,0.1,0.7,0.1,1.1c0,0.3,0.1,0.7,0.1,1.1L96,115C96,115,96,114.9,96,114.8z"/>
		<path class="st7" d="M89.2,36.2c-4.9-3.8-11-7-17.1-5.5c-4.1,1-4.6,3.2-10,5.5c-8.5,3.7-21.2,4.1-25.1-1.9
			c-0.1-0.2-0.2-0.3-0.3-0.5c-0.7,2-1,4.1-1,6.3v13.5c0,10.7,8.5,19.5,19,20.1l2.6,0v7.4H56h-0.2c-0.1,0-0.2,0-0.2,0l7.1,7.1
			l7.1-7.1c-0.1,0-0.2,0-0.3,0h-0.2h-1.2v-7.4l1.5,0c11.1,0,20.2-9.1,20.2-20.2V40.1C89.5,38.8,89.4,37.5,89.2,36.2z M50.3,41.2
			c1.8,0,3.3,1,4.1,2.6L54,44c-0.7-1.4-2.1-2.3-3.7-2.3c0,0,0,0,0,0c-1.5,0-3,0.8-3.7,2.2l-0.4-0.2C47,42.1,48.6,41.2,50.3,41.2z
			 M45.5,62.5c-2.7,0-5-1-5-2.3s2.2-2.3,5-2.3s5,1,5,2.3S48.2,62.5,45.5,62.5z M54.5,51.8c-0.7,0.8-2.2,2.1-4.3,2.1c0,0-0.1,0-0.1,0
			c-2,0-3.5-1.3-4.2-2.1c-0.3-0.3-0.3-0.9-0.1-1.3c0.2-0.4,0.6-0.5,0.9-0.2c0.6,0.6,1.8,1.7,3.5,1.7c1.8,0,3-1.1,3.6-1.7
			c0.3-0.3,0.7-0.2,0.9,0.2C54.8,51,54.8,51.5,54.5,51.8z M62.6,55.3c2.2,0,4,1.3,4,2.8c0,1.6-1.8,2.8-4,2.8c-2.2,0-4-1.3-4-2.8
			C58.7,56.5,60.4,55.3,62.6,55.3z M62.9,68.5c-0.1,0-0.2,0-0.3,0c-2.5,0-4.4-1-5.3-1.6l0.3-0.4c0.9,0.6,2.8,1.6,5.3,1.6
			c2.4-0.1,4.1-1.1,5-1.7l0.3,0.4C67.3,67.3,65.4,68.4,62.9,68.5z M75,41.2c1.8,0,3.3,1,4.1,2.6L78.7,44c-0.7-1.4-2.1-2.3-3.7-2.3
			c0,0,0,0,0,0c-1.5,0-3,0.8-3.7,2.2l-0.4-0.2C71.6,42.1,73.2,41.2,75,41.2z M70.3,51.8C70,51.5,70,51,70.2,50.6
			c0.2-0.4,0.6-0.5,0.9-0.2c0.6,0.6,1.8,1.7,3.5,1.7c1.8,0,3-1.1,3.6-1.7c0.3-0.3,0.7-0.2,0.9,0.2c0.2,0.4,0.2,1-0.1,1.3
			c-0.7,0.8-2.2,2.1-4.3,2.1c0,0-0.1,0-0.1,0C72.5,53.9,71,52.6,70.3,51.8z M79.3,62.5c-2.7,0-5-1-5-2.3s2.2-2.3,5-2.3s5,1,5,2.3
			S82,62.5,79.3,62.5z"/>
		<ellipse class="st9" cx="79.3" cy="60.2" rx="5" ry="2.3"/>
		<ellipse class="st9" cx="45.5" cy="60.2" rx="5" ry="2.3"/>
		<path class="st10" d="M62.6,60.9c2.2,0,4-1.3,4-2.8c0-1.6-1.8-2.8-4-2.8c-2.2,0-4,1.3-4,2.8C58.7,59.6,60.4,60.9,62.6,60.9z"/>
		<path class="st11" d="M62.9,68.5c2.5-0.1,4.4-1.2,5.2-1.8l-0.3-0.4c-0.8,0.6-2.6,1.6-5,1.7c-2.5,0.1-4.4-0.9-5.3-1.6l-0.3,0.4
			c0.9,0.6,2.8,1.6,5.3,1.6C62.7,68.5,62.8,68.5,62.9,68.5z"/>
		<path class="st11" d="M53.7,50.4c-0.6,0.7-1.9,1.8-3.6,1.7c-1.7,0-2.9-1.1-3.5-1.7c-0.3-0.3-0.7-0.2-0.9,0.2
			c-0.2,0.4-0.2,1,0.1,1.3c0.7,0.8,2.2,2.1,4.2,2.1c0,0,0.1,0,0.1,0c2.1,0,3.6-1.3,4.3-2.1c0.3-0.3,0.3-0.9,0.1-1.3
			C54.4,50.2,54,50.1,53.7,50.4z"/>
		<path class="st11" d="M74.5,53.9C74.5,53.9,74.6,53.9,74.5,53.9c2.2,0,3.7-1.3,4.4-2.1c0.3-0.3,0.3-0.9,0.1-1.3
			c-0.2-0.4-0.6-0.5-0.9-0.2c-0.6,0.7-1.9,1.8-3.6,1.7c-1.7,0-2.9-1.1-3.5-1.7c-0.3-0.3-0.7-0.2-0.9,0.2c-0.2,0.4-0.2,1,0.1,1.3
			C71,52.6,72.5,53.9,74.5,53.9z"/>
		<path class="st11" d="M50.3,41.7C50.3,41.7,50.3,41.7,50.3,41.7c1.6,0,3,0.9,3.7,2.3l0.4-0.2c-0.8-1.6-2.4-2.6-4.1-2.6
			c-1.7,0-3.3,0.9-4.1,2.5l0.4,0.2C47.3,42.5,48.7,41.7,50.3,41.7z"/>
		<path class="st11" d="M74.9,41.7C74.9,41.7,75,41.7,74.9,41.7c1.6,0,3,0.9,3.7,2.3l0.4-0.2c-0.8-1.6-2.4-2.6-4.1-2.6
			c-1.7,0-3.3,0.9-4.1,2.5l0.4,0.2C72,42.5,73.4,41.7,74.9,41.7z"/>
		<path class="st11" d="M97.7,74.1c-1.5-2.8-3.6-4.6-5.1-5.5c1.8-3.7,6.3-14.5,3.4-27.6c-0.8-3.5-2.5-11.4-8.9-17.6
			c-3.6-3.5-8.2-6-13.3-7.5c-13.6-5.9-32-2-36.8,7.8c-0.2,0.5-0.5,1.1-0.6,1.6c-5,5.9-6.5,12.6-7.2,15.7
			c-2.9,13.1,1.6,23.9,3.4,27.6c-3,2-4.4,4.3-5.1,5.5C24,81,27.4,88.6,28,89.9c0.1,0.1,0.1,0.2,0.2,0.4c1.1,2.1,2.7,3.8,4.7,5.2
			l0.2-0.6c-0.1,0.2,0-0.1,0.1-0.3c0.2-0.6,0.4-1.3,0.7-2.1c0.3-0.7,0.7-1.5,1.1-2.2c0.2-0.3,0.4-0.7,0.7-1c0.2-0.3,0.5-0.6,0.7-0.9
			c1-1.2,2.2-2.2,3.4-3c1.2-0.8,2.5-1.4,3.8-1.9c2.5-0.9,5-1.3,7.3-1.4c1.4-0.5,3-0.9,4.6-0.9c0,0,0,0,0,0c0.1,0,0.2,0,0.2,0H56h1.3
			v-7.4l-2.6,0c-10.6-0.6-19-9.4-19-20.1V40.1c0-2.2,0.4-4.3,1-6.3c0.1,0.2,0.2,0.3,0.3,0.5c3.9,6,16.5,5.6,25.1,1.9
			c5.4-2.3,5.9-4.6,10-5.5c6.1-1.4,12.2,1.8,17.1,5.5c0.2,1.3,0.4,2.6,0.4,3.9v13.5c0,11.1-9.1,20.2-20.2,20.2l-1.5,0v7.4h1.2h0.2
			c0.1,0,0.2,0,0.3,0c0,0,0,0,0,0c1.6,0,3.1,0.4,4.5,0.9c2.3,0.1,4.6,0.5,7,1.4c1.3,0.5,2.6,1.1,3.8,1.9c1.2,0.8,2.4,1.8,3.4,3
			c0.2,0.3,0.5,0.6,0.7,0.9c0.2,0.3,0.4,0.7,0.7,1c0.4,0.7,0.8,1.5,1.1,2.2c0.3,0.7,0.5,1.5,0.7,2.1c0.1,0.3,0.2,0.5,0.1,0.3
			l0.3,0.8c2.1-1.4,3.8-3.2,4.9-5.4C97.6,89.2,101.5,81.3,97.7,74.1z"/>
	</g>
</g>
<g id="Layer_2">
	<g>
		<path class="st5" d="M15.4,26.5c0.8,0.7,1.5,1.5,2.3,2.2l2.4,2.1c0.8,0.7,1.7,1.3,2.5,1.9c0.3,0.3,0.6,0.5,1,0.7
			c0.5-0.1,1-0.1,1.6-0.1c0.3,0,0.6,0,1.4,0c0.4,0,0.7,0,1.1,0c0.1,0,0.1,0,0.2,0c-1.6-2.9-3.1-5.8-4.3-8.9c-1.1-2.7-2-5.5-2.8-8.3
			c-1.4,1.3-2.8,2.7-4.1,4.1l-2.2,5.3C14.7,25.8,15.1,26.1,15.4,26.5z"/>
		<path class="st5" d="M62.5,0C52,0,42.2,2.6,33.5,7.1c0.1,0.7,0.2,1.4,0.4,2.1c0.1,0.5,0.2,1,0.3,1.5c0.6,3.1,1.3,6,2.3,8.9
			c2.2,6.6,5.6,12.8,10,18.4c1.8,2.3,3.7,4.5,5.8,6.5c0.7,0.5,1.4,1.1,1.9,1.8c1.4,1.3,2.8,2.6,4.3,3.8c0.9-0.3,2-0.4,3-0.3
			c4.6,0.4,7.9,4.5,7.5,9.1c-0.3,2.8-1.9,5.2-4.2,6.5c0,0.1,0.1,0.1,0.1,0.2c4.2,0.6,8.4,1.1,12.7,1.8c3.1,0.5,6.2,1.1,9.3,1.7
			c1.1-0.4,2.4-0.2,3.4,0.7c2.1,0.4,4.3,0.9,6.4,1.4c3.2,0.8,6.4,1.6,9.6,2.5c1.1,0.3,2.1,0.6,3.2,0.9l0.1-1.7l0.5-13.9
			c0-0.6,0.2-1.2,0.6-1.7c0.2-0.3,0.5-0.6,0.9-0.8c0.2-0.1,0.4-0.2,0.5-0.3c0.4-0.1,0.8-0.2,1.2-0.2c0.2,0,0.4,0,0.6,0.1
			c0.4,0.1,0.8,0.3,1.1,0.5c0.7,0.5,1.1,1.1,1.3,1.9c0,0.2,0.1,0.4,0,0.6v0l-1,31.9l-4.9-0.9l-1.3-0.2c0,0,0,0,0,0c0,0,0,0,0,0
			c-1-0.2-2.1-0.3-3.2-0.5c-4.4-0.6-9-1.2-12.4-1.7c-6-0.8-12-1.4-18.1-1.8c-0.9-0.1-1.8-0.1-2.7-0.1l-10,6.5l-3.7-4.9l0,0
			c-0.6-0.7-1.2-1.5-1.8-2.2c-6.1-0.2-12.3-0.2-18.5-0.2c-1.3,0-2.7,0-4,0c-4.8,0-9.7,0.1-14.5,0.2l-1.5,0l-7.8,0.2l-4.7,0.2l-1.5,0
			c9.2,23.1,31.7,39.3,58.1,39.3C97,125,125,97,125,62.5C125,28,97,0,62.5,0z"/>
		<path class="st5" d="M35.1,62.5c0.6,0.1,1.2,0.1,1.9,0.2c-0.6-0.7-1.3-1.4-1.9-2.1l-1.3-1.4l-1.3-1.3c-0.4-0.4-0.8-0.8-1.3-1.2
			c-0.4-0.4-0.9-1-1.7-1.1c-0.9-0.2-1.2-0.2-2.6,0.2c-0.1,0-0.3,0.1-0.4,0.1c-1.2,0.4-1.9,0.9-1.9,0.9s-1.8,1-3.1,1.8
			c-1.1,0.7-2.1,1.3-3,1.8c-0.4,0.3-0.8,0.5-1.2,0.8l1.8,0.1l1.2,0.1C25.3,61.7,30.2,62.1,35.1,62.5z"/>
		<polygon class="st12" points="110.2,90.1 115.1,91 116.1,59.1 115.1,91 		"/>
		<path class="st12" d="M111.9,56.1c0.4-0.1,0.8-0.2,1.2-0.2C112.6,55.9,112.2,56,111.9,56.1z"/>
		<path class="st13" d="M40.3,66.4l-2.6-3c-0.2-0.3-0.5-0.5-0.7-0.8c-0.6,0-1.2-0.1-1.9-0.2L34.4,85c1.3,0,2.7,0,4,0
			c6.2,0,12.3,0,18.5,0.2c-0.2-0.2-0.3-0.4-0.5-0.6C51.1,78.2,45.1,72,40.3,66.4z"/>
		<path class="st13" d="M72,78.6C72,78.6,72,78.6,72,78.6l14.2-9.3c0.2-0.1,0.4-0.2,0.6-0.3c-3.1-0.6-6.2-1.1-9.3-1.7
			c-4.2-0.7-8.4-1.3-12.7-1.8c1.9,3.2,3.6,6.5,5.4,9.8C70.8,76.5,71.4,77.5,72,78.6z"/>
		<path class="st13" d="M90.6,70.3L90.6,70.3c0.4,0.5,0.6,1.2,0.6,1.8c0,1-0.4,2-1.3,2.6L72.5,85.8c0.9,0.1,1.8,0.1,2.7,0.1
			c6.1,0.5,12.1,1,18.1,1.8c3.3,0.5,7.9,1,12.4,1.7l0.5-15.8c-3.2-0.9-6.4-1.7-9.6-2.5c-2.1-0.5-4.3-0.9-6.4-1.4
			C90.3,69.9,90.4,70.1,90.6,70.3z"/>
		<path class="st13" d="M108.8,89.9C108.9,89.9,108.9,89.9,108.8,89.9L108.8,89.9L108.8,89.9z"/>
		<path class="st13" d="M116.1,59.1c0-0.2,0-0.4,0-0.6C116.1,58.7,116.1,58.9,116.1,59.1L116.1,59.1z"/>
		<path class="st14" d="M10.6,85.5l7.8-0.2l0.8-23.9l-1.8-0.1c-1,0.7-1.9,1.2-2.6,1.7c-0.7,0.5-1.4,1-2.2,1.4
			c-1.9,1.2-3.8,2.5-5.7,3.8l-0.1,0.1l-0.1,0C5,69.4,3.1,70.7,1.2,72c-0.2,0.1-0.3,0.2-0.5,0.3c0.7,4.6,2,9.1,3.7,13.3l1.5,0
			L10.6,85.5z"/>
		<path class="st15" d="M20.4,61.4l-1.2-0.1l-0.8,23.9l1.5,0c4.8-0.1,9.7-0.2,14.5-0.2l0.7-22.5C30.2,62.1,25.3,61.7,20.4,61.4z"/>
		<path class="st4" d="M108.8,89.9L108.8,89.9L108.8,89.9l0-0.4l0.5-15c-1.1-0.3-2.1-0.6-3.2-0.9l-0.5,15.8
			C106.7,89.5,107.8,89.7,108.8,89.9z"/>
		<path class="st12" d="M108.8,89.9L108.8,89.9l1.3,0.2l4.9,0.9l1-31.9c0-0.2,0-0.4,0-0.6c-0.1-0.8-0.6-1.5-1.3-1.9
			c-0.3-0.2-0.7-0.4-1.1-0.5c-0.2,0-0.4-0.1-0.6-0.1c-0.4,0-0.8,0.1-1.2,0.2c-0.2,0.1-0.4,0.2-0.5,0.3c-0.3,0.2-0.6,0.5-0.9,0.8
			c-0.4,0.5-0.6,1-0.6,1.7l-0.5,13.9l-0.5,16.7L108.8,89.9z"/>
		<polygon class="st12" points="108.9,89.9 110.2,90.1 108.9,89.9 		"/>
		<path class="st12" d="M111.3,56.4c-0.3,0.2-0.6,0.5-0.9,0.8C110.7,56.9,111,56.6,111.3,56.4z"/>
		<polygon class="st12" points="108.8,89.9 108.8,89.9 108.9,89.4 		"/>
		<polygon class="st12" points="109.4,72.8 109.3,74.5 108.9,89.4 		"/>
		<path class="st13" d="M20.7,16c0.8,2.8,1.7,5.6,2.8,8.3c1.2,3.1,2.7,6,4.3,8.9c1.1,0.1,2.2,0.2,3.2,0.4c1.1,0.2,2.2,0.4,3.2,0.7
			c1.1,0.3,2.2,0.6,3.2,1.1c0.3,0.1,0.5,0.2,0.8,0.3c0.4,0.2,0.9,0.4,1.3,0.7s0.9,0.5,1.3,0.7c0.3,0.2,0.5,0.4,0.8,0.5
			c0.5,0.4,1,0.7,1.5,1.1l1.1,0.9c0.8,0.7,1.3,1.2,2,1.8c0.6,0.5,1.1,1.1,1.6,1.6c1.6,0.1,3.1,0.6,4.4,1.4c-2.1-2.1-4-4.2-5.8-6.5
			c-4.4-5.6-7.8-11.8-10-18.4c-1-2.8-1.7-5.8-2.3-8.9l-8.6,1.4C23.9,13.3,22.3,14.6,20.7,16z"/>
		<path class="st13" d="M55.8,52.3l2.2,2.9c2.5,3.3,4.7,6.7,6.7,10.2c2.3-1.3,4-3.7,4.2-6.5c0.4-4.6-2.9-8.6-7.5-9.1
			c-1-0.1-2,0-3,0.3c-1.5-1.2-2.9-2.5-4.3-3.8c1.1,1.4,1.7,3.2,1.7,5.1C55.8,51.7,55.8,52,55.8,52.3z"/>
		<path class="st8" d="M34.2,10.7c-0.1-0.5-0.2-1-0.3-1.5c-0.1-0.7-0.2-1.4-0.4-2.1c-2.8,1.5-5.5,3.1-8,5L34.2,10.7z"/>
		<path class="st6" d="M16.6,20.1c-1.2,1.3-2.3,2.6-3.4,4c0.4,0.4,0.8,0.8,1.2,1.3L16.6,20.1z"/>
		<path class="st6" d="M4.9,40.9c0.9-0.5,1.8-1,2.6-1.5c-0.8-0.6-1.5-1.3-2.3-1.9c0,0-0.1-0.1-0.1-0.1c-0.6,1.4-1.2,2.8-1.7,4.3
			c0.1-0.1,0.2-0.1,0.3-0.2C4.2,41.4,4.6,41.2,4.9,40.9z"/>
		<path class="st12" d="M90,69.7C90,69.7,90.1,69.7,90,69.7c-0.8-0.8-2.1-1.1-3.3-0.6c0,0,0.1,0,0.1,0C87.9,68.7,89.1,69,90,69.7z"
			/>
		<path class="st12" d="M72,78.6C72,78.6,72,78.6,72,78.6l14.2-9.2c0.2-0.1,0.5-0.2,0.7-0.3c0,0-0.1,0-0.1,0
			c-0.2,0.1-0.4,0.2-0.6,0.3L72,78.6z"/>
		<path class="st12" d="M90.6,70.3c0.4,0.5,0.6,1.1,0.6,1.7C91.1,71.4,91,70.8,90.6,70.3L90.6,70.3c-0.1-0.3-0.3-0.4-0.5-0.6
			c0,0-0.1,0-0.1,0C90.2,69.9,90.4,70.1,90.6,70.3z"/>
		<path class="st7" d="M46.2,41.5c-0.6-0.6-1.2-1.2-2-1.8l-1.1-0.9c-0.4-0.3-1-0.7-1.5-1.1c-0.3-0.2-0.5-0.3-0.8-0.5
			c-0.4-0.2-0.8-0.5-1.3-0.7s-0.9-0.4-1.3-0.7c-0.3-0.1-0.6-0.2-0.8-0.3c-1.1-0.4-2.2-0.8-3.2-1.1c-1.1-0.3-2.2-0.5-3.2-0.7
			c-1-0.2-2.1-0.3-3.2-0.4c-0.1,0-0.1,0-0.2,0c-0.3,0-0.6,0-1.1,0c-0.8,0-1,0-1.4,0c-0.6,0-1.1,0.1-1.6,0.1c0.1,0.1,0.2,0.2,0.3,0.2
			l1.3,0.9c1.7,1.2,3.5,2.3,5.4,3.3c4.4,2.4,9.1,4.4,13.9,5.8c0.9-0.4,1.9-0.6,3-0.6c0.1,0,0.2,0,0.3,0C47.3,42.5,46.8,42,46.2,41.5
			z"/>
		<path class="st7" d="M64.8,65.6c0-0.1-0.1-0.1-0.1-0.2c-2-3.5-4.2-6.9-6.7-10.2l-2.2-2.9c-0.3,2.8-2.1,5.2-4.5,6.5
			c-1.1,0.6-2.4,0.9-3.7,0.9c-3.1,0-5.8-1.7-7.2-4.2c-2.9-0.7-5.8-1.6-8.6-2.6c-2.1-0.8-4.2-1.6-6.2-2.5l1.1,5.5
			c0.1,0,0.2-0.1,0.4-0.1c1.4-0.4,1.7-0.4,2.6-0.2c0.8,0.2,1.2,0.7,1.7,1.1c0.4,0.4,0.9,0.8,1.3,1.2l1.3,1.3l1.3,1.4
			c0.6,0.7,1.3,1.4,1.9,2.1c0.2,0.3,0.5,0.5,0.7,0.8l2.6,3c4.8,5.7,10.8,11.9,16.1,18.1l13.8-9.1C68.4,72.1,66.7,68.8,64.8,65.6z"/>
		<polygon class="st7" points="72,78.6 72,78.6 71.4,79.1 		"/>
		<path class="st7" d="M62.5,92.2l10-6.5c0,0,0,0,0,0L62.5,92.2z"/>
		<path class="st7" d="M91.2,72c0,1-0.5,1.9-1.3,2.5L72.5,85.8c0,0,0,0,0,0l17.3-11.2C90.7,74,91.2,73.1,91.2,72z"/>
		<path class="st4" d="M56.9,85.1c0.6,0.7,1.2,1.5,1.8,2.2l3.1-2C60.2,85.2,58.5,85.1,56.9,85.1z"/>
		<path class="st4" d="M71.4,79.1l0.7-0.4c-0.6-1.1-1.2-2.2-1.8-3.3l-13.8,9.1c0.2,0.2,0.3,0.4,0.5,0.6c1.7,0,3.3,0.1,5,0.2
			L71.4,79.1z"/>
		<path class="st12" d="M86.9,69.1c1,0.2,2.1,0.4,3.1,0.6C89.1,69,87.9,68.7,86.9,69.1z"/>
		<path class="st12" d="M61.9,85.3l-3.2,2.1l3.7,4.9l10-6.5C69,85.6,65.4,85.4,61.9,85.3z"/>
		<path class="st12" d="M61.9,85.3c3.5,0.1,7.1,0.3,10.6,0.5l17.3-11.2c0.9-0.6,1.3-1.5,1.3-2.5c0-0.6-0.2-1.2-0.6-1.7
			c-0.2-0.2-0.4-0.4-0.6-0.6c-1-0.2-2.1-0.4-3.1-0.6c-0.2,0.1-0.5,0.2-0.7,0.3L72,78.6c0,0,0,0,0,0l-0.7,0.4L61.9,85.3z"/>
		<path class="st12" d="M61.9,85.3l-3.1,2l0,0L61.9,85.3C61.9,85.3,61.9,85.3,61.9,85.3z"/>
		<path class="st12" d="M61.9,85.3C61.9,85.3,61.9,85.3,61.9,85.3l9.5-6.2L61.9,85.3z"/>
		<polygon class="st16" points="0,65.3 1.8,66.1 5.5,67.6 0,65.3 		"/>
		<path class="st16" d="M11.3,60.8L5.7,46.4l-1.9-4.8c-0.1,0.1-0.2,0.1-0.3,0.2c-1.9,5.5-3.1,11.4-3.5,17.5c0,0.2,0,0.5,0,0.7
			c0,0.1,0,0.1,0,0.2C0,61,0,61.7,0,62.5c0,0.9,0,1.9,0.1,2.8l0,0h0c0,0,0,0.1,0,0.1c0.1,1.4,0.2,2.7,0.3,4c0.1,0.9,0.2,1.9,0.4,2.8
			c0.2-0.1,0.3-0.2,0.5-0.3c1.9-1.3,3.7-2.5,5.6-3.8c0.1,0,0.1-0.1,0.2-0.1c1.9-1.3,3.8-2.5,5.7-3.8L11.3,60.8z"/>
		<path class="st17" d="M12.7,64.3c0.7-0.5,1.4-1,2.2-1.4c0.7-0.4,1.5-1,2.6-1.7l-6.1-0.4L12.7,64.3z"/>
		<path class="st17" d="M25.4,50.3c-2.6-1.2-5.1-2.4-7.6-3.9l-1.7-1c-0.6-0.3-1.1-0.7-1.6-1c-1.1-0.7-2.1-1.4-3.2-2.1l-3-2.3l0,0
			c-0.2-0.2-0.4-0.4-0.7-0.5c-0.9,0.5-1.8,1-2.6,1.5c-0.4,0.2-0.8,0.4-1.1,0.6l1.9,4.8l5.6,14.4l6.1,0.4c0.4-0.2,0.8-0.5,1.2-0.8
			c0.9-0.6,1.9-1.2,3-1.8c1.3-0.8,3.1-1.8,3.1-1.8s0.7-0.5,1.9-0.9L25.4,50.3z"/>
		<path class="st18" d="M54.1,46.3c-0.5-0.7-1.2-1.3-1.9-1.8c-1.3-0.9-2.8-1.4-4.4-1.4c-0.1,0-0.2,0-0.3,0c-1.1,0-2.1,0.2-3,0.6
			c-4.8-1.4-9.5-3.4-13.9-5.8c-1.9-1-3.7-2.1-5.4-3.3l-1.3-0.9c-0.1-0.1-0.2-0.2-0.3-0.2c-0.3-0.2-0.7-0.5-1-0.7
			c-0.8-0.6-1.7-1.3-2.5-1.9l-2.4-2.1c-0.8-0.7-1.5-1.5-2.3-2.2c-0.4-0.4-0.7-0.7-1.1-1.1c-0.4-0.4-0.8-0.8-1.2-1.3
			c-3.2,4.1-5.9,8.6-8,13.4c0,0,0.1,0.1,0.1,0.1c0.8,0.6,1.5,1.3,2.3,1.9C7.8,39.6,8,39.8,8.3,40l0,0l3,2.3c1.1,0.7,2.1,1.4,3.2,2.1
			c0.5,0.4,1.1,0.7,1.6,1l1.7,1c2.5,1.4,5,2.7,7.6,3.9c2,0.9,4.1,1.8,6.2,2.5c2.8,1,5.7,1.9,8.6,2.6c1.4,2.5,4.1,4.2,7.2,4.2
			c1.3,0,2.6-0.3,3.7-0.9c2.5-1.2,4.2-3.6,4.5-6.5c0-0.3,0.1-0.6,0.1-1C55.8,49.5,55.2,47.7,54.1,46.3z"/>
	</g>
</g>
</svg>
