<?xml version="1.0" encoding="utf-8"?>
<!-- Generator: Adobe Illustrator 23.0.1, SVG Export Plug-In . SVG Version: 6.00 Build 0)  -->
<svg version="1.1" id="Layer_1" xmlns="http://www.w3.org/2000/svg" xmlns:xlink="http://www.w3.org/1999/xlink" x="0px" y="0px"
	 viewBox="0 0 178.2 534.8" style="enable-background:new 0 0 178.2 534.8;" xml:space="preserve">
<style type="text/css">
	.st0{fill:#494234;}
	.st1{fill:#6D4AFF;}
</style>
<path class="st0" d="M171.1,317.5c-0.1-2-0.2-4.1-0.3-6.1c-0.2-4.9-0.5-9.9-0.8-14.8c-0.3-4.9-0.7-9.8-1.1-14.8
	c-0.4-4.9-0.8-9.8-1.3-14.7l0.1,0.7c0-0.4-0.1-0.9-0.1-1.3l-0.1-0.5l-0.1-1.1l-0.3-2.1l-0.5-4.2c-0.4-2.8-0.8-5.6-1.2-8.4
	c-0.9-5.5-1.8-11.1-2.9-16.6c-2.2-11-4.6-22-7.6-32.8c-1.5-5.4-3-10.8-4.7-16.2l-1.3-4l-0.8-2.3c8.7-3.5,16.3-8.8,20-17
	c1-2.3,8.5-18.7,1.2-33.7c-2.9-5.9-6.9-9.5-9.7-11.5c3.4-7.8,12-30.2,6.5-57.6c-1.5-7.3-4.8-23.8-17-36.8
	c-13.9-14.9-35.5-21-55.7-18.4c-27.3-8.2-60.2,0.3-69.3,19c-3.1,6.5-4.1,15.8,0,22.2c2,3.1,5.2,5.5,9.1,7c-0.2,1.7-0.3,3.4-0.3,5.1
	v27.1c-3.4,0.7-5.8,3-5.8,5.6c0,3,3.1,5.4,7.1,5.8c1.7,6.8,5.1,12.9,9.7,18c0.5,1.2,0.9,2.2,1.3,3.1c-5.7,4.1-8.5,8.9-9.7,11.5
	c-6.8,14.3-0.3,30.2,0.8,32.8c0.1,0.2,0.2,0.5,0.4,0.8c0.1,0.1,0.1,0.2,0.2,0.4c-1.3,2.1-2.4,4.3-3.3,6.5c-0.3,0.8-0.6,1.6-0.9,2.4
	l-0.7,2.1l-1.4,4l-1.3,4l-1.3,4c-1.7,5.4-3.2,10.8-4.7,16.2c-3,10.9-5.4,21.8-7.6,32.8c-1.1,5.5-2,11-2.9,16.6
	c-0.4,2.8-0.9,5.6-1.2,8.4l-0.5,4.2l-0.3,2.1l-0.1,1.1l-0.1,0.5c-0.1,0.4-0.1,0.9-0.1,1.3l0.1-0.7c-0.5,4.9-0.9,9.8-1.3,14.7
	c-0.4,4.9-0.8,9.8-1.1,14.8c-0.3,4.9-0.6,9.9-0.8,14.8c-0.1,2-0.2,4.1-0.3,6.1c-4.2,2.2-7.1,6.6-7.1,11.6c0,7.2,5.9,13.1,13.1,13.1
	s13.1-5.9,13.1-13.1c0-4.3-2.1-8.1-5.3-10.5l0.9-5.7l2.3-14.5l4.7-28.9l0.1-0.7c0,0.1,0,0.2,0,0.3l0.1-0.5l0.2-1l0.4-2l0.8-3.9
	l1.6-7.9c1.1-5.3,2.3-10.6,3.6-15.8c2.5-10.5,5.4-21,8.4-31.3c0.5-1.9,1.1-3.7,1.7-5.6l-0.4,112c0,1.1,0.1,2.1,0.2,3.2
	c-1.4,15.3-4.1,32.7-4.1,51.2l0,1.9l0,1l0,0.9l0.1,3.5l0.2,6.9l0.5,13.8c0.4,9.2,0.7,18.5,1.3,27.7c1,18.5,2.6,37.1,5.1,55.7
	c1.3,9.3,2.8,18.6,4.7,27.9c1.3,6.3,2.8,12.6,4.4,18.9H34.1c-2.5,0-4.6,2-4.6,4.6s2,4.6,4.6,4.6h48.4l-1.4-9.1
	c-1-7.8-1.8-16.8-2.5-22.8c-0.9-8.7-1.5-17.6-1.8-26.4c-0.6-17.8-0.4-35.6,0.3-53.6c0.3-9,0.8-18,1.3-27l0.8-13.5l0.5-6.8l0.2-3.4
	l0.1-0.8l0.1-0.8l0.1-1.5c0.6-6.3,1.6-12.7,2.9-19.3l3.2-1.4c2-0.8,4.3-0.8,6.3,0l3.4,1.5c1.2,6.6,2.3,13,2.8,19.2l0.1,1.5l0.1,0.8
	l0.1,0.9l0.2,3.4l0.5,6.8l0.9,13.6c0.6,9.1,1.2,18.1,1.6,27.1c0.9,18,1.6,35.9,1.2,53.6c-0.3,14.8-1.3,33.6-3.6,49.3l-1.5,8.9h48.5
	c2.5,0,4.6-2,4.6-4.6s-2-4.6-4.6-4.6h-23.8c4.1-15.6,6.7-31.4,8.5-47.1c2.2-18.7,3.3-37.3,4.1-55.7c0.4-9.2,0.7-18.4,1-27.6
	l0.4-13.7l0.2-6.9l0.1-3.4l0-0.9l0-1l0-1.9c0.1-18.8-2.8-36.4-4.1-52c0.1-0.8,0.1-1.6,0.1-2.4l-0.5-110c0.4,1.2,0.7,2.4,1.1,3.6
	c3,10.4,5.9,20.8,8.4,31.3c1.3,5.3,2.5,10.5,3.6,15.8l1.6,7.9l0.8,3.9l0.4,2l0.2,1l0.1,0.5c0-0.1,0-0.2,0-0.3l0.1,0.7l4.7,28.9
	l2.3,14.5l0.9,5.7c-3.2,2.4-5.3,6.2-5.3,10.5c0,7.2,5.9,13.1,13.1,13.1s13.1-5.9,13.1-13.1C178.2,324.1,175.3,319.7,171.1,317.5z"/>
<g>
	<path class="st1" d="M96.9,179.8L96.9,179.8C96.9,179.7,96.9,179.7,96.9,179.8z"/>
	<path class="st1" d="M173.7,330.6c-0.7-1.2-1.4-2.5-1.9-3.8c-0.6-1.3-1-2.6-1.5-4c-0.4-1.4-1-2.8-1.9-4c-0.8-1.1-1.8-2.1-2.9-2.8
		c0-2-0.1-4-0.2-6c-0.3-6.3-1.1-12.6-2-18.8c-0.9-6.2-1.9-12.4-2.9-18.6l-3.1-18.7l0,0.2c-2.1-11.7-4-23.4-5.9-35.1l-2.9-17.6
		c0-0.3-0.1-0.5-0.1-0.8c2.7,4.7,4.6,10,5.3,15.5c0.5,3.1,0.8,6.2,1,9.3c0.2,3.1,0.1,6.3,0.6,9.4c0.4,3.1,1.2,6.2,2.4,9.1
		c1.2,2.9,2.4,5.8,3.3,8.8c1.9,6,3.1,12.1,3.7,18.4c0,0.1,0.1,0.2,0.2,0.2c0.1,0,0.2-0.1,0.2-0.2c-0.6-6.3-1.8-12.5-3.6-18.5
		c-0.9-3-2.1-5.9-3.2-8.9c-1.1-2.9-2-5.9-2.3-9c-0.4-3.1-0.3-6.2-0.5-9.4c0-0.6-0.1-1.1-0.1-1.7c0.7,1.3,1.4,2.6,2,4
		c0.8,1.9,1.5,3.8,2.1,5.8c1.2,3.9,1.9,8,2.1,12.2c0,0.2,0.2,0.3,0.3,0.3c0.2,0,0.3-0.2,0.3-0.3c-0.1-4.2-0.7-8.4-1.9-12.4
		c-0.6-2-1.3-4-2.1-5.9c-0.8-1.9-1.8-3.8-2.8-5.6c0,0,0,0,0,0c-0.1-0.1-0.1-0.2-0.2-0.2c-0.2-1.8-0.4-3.7-0.6-5.5
		c-0.7-6.3-3-12.4-6.4-17.7l0,0c0-0.1-0.1-0.1-0.2-0.2c-0.3-1.8-0.7-3.7-1.2-5.5c-0.7-3-1.8-5.9-3-8.7c-2.4-5.5-5.1-10.9-8.5-16
		c-1.7-2.5-3.5-5-5.5-7.3c-2-2.3-4.1-4.6-6.3-6.6c-9-8.4-20.1-14.4-31.9-17.6l0,0c0,0,0,0,0,0c-0.1,0-0.1,0-0.2,0
		c0.2-2.5,0.6-5,1.1-7.4c0.3-1.3,0.6-2.6,0.9-3.9c4.4,3,8.5,6.5,12.1,10.4c0.9,1,1.8,2,2.7,3.1c0.9,1,1.9,2.1,2.9,3
		c2.1,1.9,4.4,3.5,6.9,4.8c2.4,1.3,4.9,2.5,7.2,3.9c2.3,1.4,4.4,3.2,6.2,5.1c3.7,3.9,6.5,8.7,8.5,13.8c0.1,0.2,0.3,0.3,0.5,0.2
		c0.2-0.1,0.3-0.3,0.3-0.5c-1.9-5.2-4.7-10.1-8.5-14.3c-1.9-2.1-4-3.9-6.4-5.4c-2.3-1.5-4.9-2.7-7.2-4.1c-2.4-1.3-4.6-2.9-6.5-4.7
		c-1-0.9-1.9-1.9-2.8-2.9c-0.9-1-1.8-2.1-2.7-3.2c-3.7-4.2-7.9-7.9-12.5-11.1c0,0,0,0,0,0c-0.1-0.1-0.3-0.1-0.4-0.2
		c0.4-1.5,0.9-3.1,1.4-4.7c0.9,0.8,1.8,1.5,2.8,2.1c1.7,1.1,3.6,1.8,5.4,2.5c1.8,0.7,3.5,1.4,5.2,2.3c1.7,0.9,3.3,2,4.8,3.2
		c0.1,0.1,0.4,0.1,0.5,0c0.1-0.1,0.1-0.4,0-0.5c-1.5-1.3-3-2.5-4.7-3.5c-1.6-1.1-3.4-2-5.2-2.7c-1.8-0.8-3.5-1.5-5-2.6
		c-1.1-0.8-2.1-1.7-3.1-2.7c0.5-1.4,1.2-2.8,2-4.3c2.5,1.1,5.2,1.7,7.9,1.7c0.2,0,0.4-0.2,0.4-0.4c0-0.2-0.1-0.5-0.4-0.5
		c-2.5-0.3-4.9-1.1-7.1-2.3c0.9-1.6,2-3.2,3-5c2.4-3.9,4.6-8.4,6.1-13.2c0.5-1.5,0.8-3.1,1.1-4.6c1.9,0.1,4,0.1,6,0
		c15.1-1.1,26.7-9.7,26-19.3c-0.1-1.5-0.5-2.8-1.1-4.1c1.8-2.2,3.1-4.6,3.6-7.2c2.5-12.6-12-28-26.2-33.9C85.7,10,41.2,22,44.1,55.6
		C45.2,68,70,75.4,82.4,77.4c2,0.3,4.1,0.6,6.1,0.7c2.2,3.3,6,6,10.9,7.7c-0.2,1.3-0.5,2.6-0.8,3.9c-1.1,3.8-2.7,7.4-4.8,11.1
		c-1,1.9-2.2,3.7-3.4,5.8c-0.3,0.5-0.6,1-0.9,1.6c-0.1,0.2-0.2,0.3-0.2,0.5c-2.7,2.2-6.1,3.6-9.6,4c-0.2,0-0.4,0.2-0.4,0.4
		c0,0.2,0.2,0.4,0.4,0.4c2.8,0,5.7-0.7,8.3-1.9c0,0,0,0,0,0.1c-0.2,0.6-0.5,1.3-0.6,1.9c-0.2,0.8-0.5,1.7-0.7,2.5
		c-0.9,1-2,1.9-3.1,2.7c-1.5,1.1-3.2,1.9-5,2.6c-1.8,0.8-3.6,1.7-5.2,2.7c-1.7,1.1-3.2,2.2-4.7,3.5c-0.1,0.1-0.2,0.3,0,0.5
		c0.1,0.2,0.3,0.2,0.5,0.1c1.5-1.2,3.1-2.3,4.8-3.2c1.7-0.9,3.4-1.7,5.2-2.3c1.8-0.6,3.7-1.4,5.4-2.5c0.4-0.3,0.8-0.6,1.2-0.8
		c-0.3,1.3-0.7,2.6-1,4c-4.4,3.1-8.4,6.7-12,10.7c-0.9,1-1.8,2.1-2.7,3.2c-0.9,1-1.8,2-2.8,2.9c-1.9,1.9-4.1,3.4-6.5,4.7
		c-2.4,1.3-4.9,2.5-7.2,4.1c-2.4,1.5-4.5,3.4-6.4,5.4c-3.8,4.1-6.6,9.1-8.5,14.3c-0.1,0.2,0,0.5,0.2,0.5c0.2,0.1,0.5,0,0.6-0.2
		c1.9-5.1,4.8-9.9,8.5-13.8c1.9-2,3.9-3.7,6.2-5.1c2.3-1.4,4.8-2.6,7.2-3.9c2.5-1.3,4.8-2.9,6.9-4.8c1-0.9,2-2,2.9-3
		c0.9-1,1.8-2.1,2.7-3.1c3.1-3.3,6.5-6.3,10.1-9c-0.1,0.3-0.1,0.6-0.2,0.9c-0.6,3.4-1,6.9-1.1,10.4c-10.2,3.4-19.7,9-27.6,16.3
		c-2.2,2.1-4.3,4.3-6.3,6.6c-2,2.3-3.8,4.8-5.5,7.3c-3.4,5.1-6.1,10.5-8.5,16c-1.2,2.8-2.3,5.7-3,8.7c-0.5,1.8-0.8,3.7-1.2,5.5
		c-0.1,0-0.2,0.1-0.3,0.2c-3.4,5.3-5.7,11.5-6.4,17.7c-0.3,1.8-0.5,3.6-0.6,5.5c-0.1,0-0.2,0.1-0.2,0.2c-1,1.9-2,3.7-2.8,5.6
		c-0.8,1.9-1.5,3.9-2.1,5.9c-1.2,4-1.8,8.2-1.9,12.4c0,0.2,0.1,0.3,0.3,0.3c0.2,0,0.3-0.1,0.3-0.3c0.2-4.1,0.9-8.2,2.1-12.2
		c0.6-2,1.3-3.9,2.1-5.8c0.6-1.4,1.3-2.7,2-4c0,0.6-0.1,1.1-0.1,1.7c-0.2,3.2-0.1,6.3-0.5,9.4c-0.4,3.1-1.2,6.1-2.3,9
		c-1.1,2.9-2.3,5.8-3.2,8.9c-1.8,6-3,12.2-3.6,18.5c0,0.1,0.1,0.2,0.2,0.2c0.1,0,0.2-0.1,0.2-0.2c0.6-6.2,1.9-12.4,3.7-18.4
		c0.9-3,2.1-5.9,3.3-8.8c1.2-2.9,2-6,2.4-9.1c0.4-3.1,0.4-6.3,0.6-9.4c0.2-3.1,0.6-6.2,1-9.3c0.7-5.6,2.6-10.9,5.4-15.7
		c-0.1,0.3-0.1,0.7-0.2,1L27.3,219c-1.9,11.7-3.9,23.4-5.9,35.1l0-0.2l-3.1,18.7c-1,6.2-2,12.4-2.9,18.6c-0.9,6.2-1.7,12.5-2,18.8
		c-0.1,2-0.1,4-0.2,6c-1.2,0.8-2.2,1.8-3,2.9c-0.9,1.2-1.5,2.6-1.9,4c-0.4,1.4-0.9,2.7-1.5,4c-0.6,1.3-1.2,2.6-1.9,3.8
		c0,0.1,0,0.2,0.1,0.2c0.1,0.1,0.2,0,0.3-0.1c0.8-1.2,1.5-2.5,2.1-3.8c0.6-1.3,1.2-2.6,1.6-4c0.5-1.4,1-2.6,1.9-3.7
		c0.7-0.9,1.5-1.6,2.4-2.2c0,1.8,0,3.6,0.1,5.4c0,0,0,0,0,0c-0.8,1-1.4,2.2-1.9,3.4c-0.5,1.2-0.7,2.5-0.8,3.8
		c-0.1,2.6,0.5,5.1,1.7,7.4c0,0.1,0.2,0.1,0.2,0.1c0.1,0,0.1-0.2,0.1-0.2c-1.1-2.2-1.6-4.7-1.4-7.2c0.1-1.2,0.4-2.4,0.9-3.5
		c0.3-0.7,0.7-1.4,1.2-2.1c0.1,1.6,0.1,3.1,0.2,4.7c0,0.3,0.3,0.6,0.6,0.6c0.3,0,0.6-0.3,0.6-0.6c-0.1-2.1-0.1-4.2-0.2-6.3
		c0.5,0.8,0.8,1.6,1,2.4c0.3,1.5,0,3.2,0.5,4.9c0.3,0.8,0.6,1.6,0.9,2.4c0.3,0.7,0.6,1.5,0.8,2.3c0.5,1.6,0.7,3.2,0.8,4.8
		c0,0.1,0.1,0.2,0.2,0.2c0.1,0,0.2-0.1,0.2-0.2c-0.1-1.7-0.3-3.3-0.7-4.9c-0.2-0.8-0.4-1.6-0.8-2.4c-0.3-0.7-0.6-1.5-0.8-2.3
		c-0.3-1.5-0.1-3.2-0.3-4.9c-0.2-0.9-0.5-1.7-0.9-2.4c-0.3-0.5-0.6-1-1-1.5c0-1.5,0-2.9,0.1-4.4c0.2,0.5,0.4,0.9,0.6,1.4
		c0.7,1.6,1.5,3.1,2.3,4.6c0.8,1.5,1.5,3.1,1.6,4.7c0.2,1.7,0,3.4-0.5,5c0,0.1,0,0.3,0.2,0.3c0.1,0,0.3,0,0.3-0.2
		c0.5-1.7,0.8-3.4,0.6-5.2c-0.1-1.8-0.8-3.5-1.6-5c-0.8-1.5-1.6-3.1-2.2-4.6c-0.3-0.8-0.6-1.6-0.9-2.4l-0.4-1.3
		c0.1-1.2,0.1-2.5,0.2-3.7c0.4-6.2,1.3-12.4,2.3-18.6c1-6.2,2.1-12.3,3.2-18.4l2.1-11.5c0.6,3.8,0.8,7.7,0.5,11.6
		c-0.2,2.4-0.6,4.8-1.2,7.1c-0.7,2.3-1.5,4.6-2,7c-1.1,4.7-2,9.5-2.5,14.4c-0.5,4.9,0,9.8,1.1,14.5c0,0.2,0.2,0.3,0.4,0.2
		c0.2,0,0.3-0.2,0.2-0.4c-1-4.7-1.4-9.6-1-14.3c0.5-4.8,1.4-9.6,2.5-14.2c0.6-2.4,1.3-4.6,2-7c0.7-2.4,1.1-4.8,1.3-7.2
		c0.4-4.9,0.1-9.8-0.9-14.5l0.7-4l0-0.2c2.3-11.7,4.5-23.4,6.6-35.1l3.2-17.5c0.6-2.9,1.1-5.8,1.9-8.6c0.7-2.8,1.7-5.4,3-8.1
		c2.5-5.3,5.2-10.5,8.5-15.3c0.9-1.3,1.8-2.6,2.8-3.8c-2.1,6.3-4.3,12.5-6.8,18.6c-1.5,3.8-3.1,7.5-4.9,11.1
		c-1.8,3.6-3.4,7.4-4.4,11.4c-1.1,3.9-1.6,8-1.7,12.1c-0.1,4.1,0.2,8.1,0.1,12.2c-0.2,8.1-1.8,16.1-4.3,23.8c0,0.1,0,0.3,0.2,0.3
		s0.3,0,0.3-0.2c2.6-7.7,4.2-15.8,4.4-23.9c0.1-4.1-0.1-8.1,0-12.2c0.1-4,0.6-8,1.7-11.9c1-3.9,2.7-7.6,4.5-11.2c0,0,0,0,0,0
		c0.1,1.9,0.2,3.7,0.2,5.6c0,2.3,0,4.7-0.2,7c-0.2,2.3-0.6,4.6-1.3,6.8c-0.7,2.2-1.7,4.3-2.9,6.3c-0.1,0.1,0,0.2,0.1,0.3
		c0.1,0.1,0.2,0,0.3-0.1c1.3-2,2.3-4.1,3.1-6.4c0.8-2.2,1.2-4.6,1.5-6.9c0.2-2.4,0.3-4.7,0.3-7.1c0-2.4,0-4.7-0.2-7.1c0,0,0,0,0,0
		c0-0.1,0-0.2-0.1-0.2c1.4-3.1,2.8-6.2,4.1-9.4c2.8-6.9,5.4-14,7.7-21.1c0.2-0.3,0.5-0.6,0.7-0.9c1.9-2.2,3.9-4.2,6.1-6.2
		c7.1-6.4,15.6-11.3,24.6-14.4c0,1.8,0.1,3.7,0.3,5.4c0.1,0.7,0.1,1.4,0.2,2.1c-0.5,0.4-1,1-1.7,1.5c-4.6,4-6.8,6-9.1,7.1
		c-2.2,1.1-3.8,1.2-5.4,1.4c-1.9,0.2-3.9,0.4-6.9,2c-1.4,0.7-2.7,1.6-3.9,2.6c-0.2,0.2-0.2,0.5-0.1,0.7c0.1,0.1,0.2,0.2,0.4,0.2
		c0.1,0,0.2,0,0.3-0.1c1.1-1,2.4-1.8,3.7-2.5c2.8-1.5,4.6-1.7,6.5-1.9c1.7-0.2,3.4-0.4,5.7-1.5c2.4-1.1,4.7-3.2,9.3-7.3
		c0.4-0.4,0.8-0.7,1.1-1c0.1,1.1,0.3,2.3,0.4,3.5c0.3,2.6,0.7,5.2,1.2,7.9c-1,0-2.1,0.1-3.1,0.3c-2.4,0.3-4.7,0.8-7,1.3
		c-4.6,1-9.1,2.2-13.5,4c-1.1,0.5-2.2,1-3.3,1.7c-0.5,0.3-1.1,0.7-1.6,1.2c-0.5,0.5-1.1,1.1-1.3,2.1c-0.1,0.5-0.1,1.1,0.1,1.5
		c0.2,0.5,0.4,0.8,0.7,1.1c0.5,0.6,1.1,1,1.7,1.3c1.1,0.7,2.3,1.1,3.4,1.5c4.6,1.4,9.3,1.9,13.9,2.1c0.5,0,0.9-0.3,0.9-0.8
		c0-0.5-0.3-0.9-0.8-1l0,0c-4.5-0.4-9.1-1-13.3-2.5c-1-0.4-2-0.8-2.9-1.4c-0.4-0.3-0.8-0.6-1-0.9c-0.1-0.1-0.2-0.3-0.2-0.3
		c0-0.1,0-0.1,0-0.2c0-0.1,0.2-0.4,0.6-0.7c0.3-0.3,0.8-0.6,1.2-0.8c0.9-0.5,1.9-1,2.9-1.3c4.2-1.5,8.6-2.6,13.1-3.4
		c2.2-0.4,4.5-0.8,6.7-0.9c1.2-0.1,2.3-0.1,3.4-0.1c0.1,0.6,0.3,1.2,0.4,1.8c0.5,2.2,1.1,4.5,1.8,6.7l0.5,1.7l0.5,1.5l0.8,2.6
		c-3.8,0-7.6,0.3-11.4,0.8c-2.5,0.4-5,0.9-7.5,1.5c-2.4,0.6-4.9,1.3-7.3,2.2c-1.2,0.4-2.4,0.9-3.6,1.5c-1.2,0.6-2.4,1.2-3.5,2.3
		c-0.5,0.5-1.2,1.3-1.3,2.4c0,0.6,0.1,1.1,0.4,1.6c0.2,0.4,0.5,0.8,0.8,1c1.2,1.1,2.4,1.6,3.6,2.1c2.5,0.9,5,1.4,7.5,1.8
		c2.5,0.4,5,0.6,7.5,0.7c0.5,0,0.9-0.3,0.9-0.8c0-0.5-0.3-0.9-0.8-1c-2.5-0.2-4.9-0.5-7.3-0.9c-2.4-0.5-4.8-1-6.9-1.9
		c-1.1-0.4-2.1-1-2.8-1.7c-0.2-0.2-0.2-0.3-0.3-0.4c0-0.1-0.1-0.2,0-0.2c0-0.1,0.2-0.4,0.5-0.7c0.7-0.6,1.8-1.2,2.8-1.7
		c1.1-0.5,2.2-0.9,3.4-1.3c2.3-0.7,4.7-1.3,7.1-1.9c2.4-0.5,4.8-0.9,7.2-1.2c3.9-0.5,7.9-0.5,11.9-0.3c0.1,0.3,0.1,0.5,0.2,0.8
		c0.3,1.4,0.5,2.9,0.7,4.3c0.3,2.5,0,5.5-0.4,8.5c0,0.2-0.1,0.4-0.1,0.5c-4.3-0.1-8.5,0.2-12.8,0.8c-2.5,0.4-5,0.9-7.5,1.5
		c-2.4,0.6-4.9,1.3-7.3,2.2c-1.2,0.4-2.4,0.9-3.6,1.5c-1.2,0.6-2.4,1.2-3.5,2.3c-0.5,0.5-1.2,1.3-1.3,2.4c0,0.6,0.1,1.1,0.4,1.6
		c0.2,0.4,0.5,0.8,0.8,1c1.2,1.1,2.4,1.6,3.6,2.1c2.5,0.9,5,1.4,7.5,1.8c2.5,0.4,5,0.6,7.5,0.7c0.5,0,0.9-0.3,0.9-0.8
		c0-0.5-0.3-0.9-0.8-1c-2.5-0.2-4.9-0.5-7.3-0.9c-2.4-0.5-4.8-1-6.9-1.9c-1.1-0.4-2.1-1-2.8-1.7c-0.2-0.2-0.2-0.3-0.3-0.4
		c0-0.1-0.1-0.2,0-0.2c0-0.1,0.2-0.4,0.5-0.7c0.7-0.6,1.8-1.2,2.8-1.7c1.1-0.5,2.2-0.9,3.4-1.3c2.3-0.7,4.7-1.3,7.1-1.9
		c2.4-0.5,4.8-0.9,7.2-1.2c3.9-0.4,7.8-0.5,11.7-0.3c-0.7,4.5-1.7,9.2-2.4,13.9c0,0.1,0,0.1,0,0.2c-1.6,0-3.2,0-4.8,0.2
		c-2.4,0.2-4.8,0.6-7.2,1.1c-4.7,1-9.4,2.2-13.9,4c-1.1,0.5-2.3,1-3.4,1.6c-0.6,0.3-1.1,0.7-1.7,1.1c-0.5,0.4-1.1,0.9-1.5,1.7
		c-0.2,0.4-0.4,0.9-0.4,1.5c0,0.6,0.2,1.1,0.4,1.4c0.5,0.8,1.1,1.2,1.6,1.6c1.1,0.8,2.3,1.2,3.5,1.6c4.7,1.5,9.5,2,14.3,2.2
		c0.5,0,0.9-0.3,0.9-0.8c0-0.5-0.3-0.9-0.8-1l0,0c-4.6-0.4-9.3-1.1-13.6-2.6c-1-0.4-2.1-0.9-2.9-1.5c-0.4-0.3-0.7-0.6-0.8-0.9
		c-0.1-0.3-0.1-0.2,0-0.5c0.3-0.5,1.3-1.2,2.2-1.7c1-0.5,2-0.9,3.1-1.3c4.3-1.5,8.9-2.5,13.5-3.3c2.3-0.4,4.6-0.6,6.9-0.7
		c1.3-0.1,2.7,0,4,0c-0.7,4.9-1.2,9.9-1.3,14.9c0,0,0,0.1,0,0.1c-1.4,0-2.8,0.1-4.2,0.3c-2.4,0.3-4.7,0.8-7,1.3
		c-4.6,1-9.1,2.2-13.5,4c-1.1,0.5-2.2,1-3.3,1.7c-0.5,0.3-1.1,0.7-1.6,1.2c-0.5,0.5-1.1,1.1-1.3,2.1c-0.1,0.5-0.1,1.1,0.1,1.5
		c0.2,0.5,0.4,0.8,0.7,1.1c0.5,0.6,1.1,1,1.7,1.3c1.1,0.7,2.3,1.1,3.4,1.5c4.6,1.4,9.3,1.9,13.9,2.1c0.5,0,0.9-0.3,0.9-0.8
		c0-0.5-0.3-0.9-0.8-1l0,0c-4.5-0.4-9.1-1-13.3-2.5c-1-0.4-2-0.8-2.9-1.4c-0.4-0.3-0.8-0.6-1-0.9c-0.1-0.1-0.2-0.3-0.2-0.3
		c0-0.1,0-0.1,0-0.2c0-0.1,0.2-0.4,0.6-0.7c0.3-0.3,0.8-0.6,1.2-0.8c0.9-0.5,1.9-1,2.9-1.3c4.2-1.5,8.6-2.6,13.1-3.4
		c2.2-0.4,4.5-0.8,6.7-0.9c1.3-0.1,2.5-0.1,3.8-0.1c0,1.9,0,3.7,0.1,5.6c0.1,2.8,0.4,5.6,0.6,8.4c-0.4,0-0.7,0.1-1.1,0.1
		c-1.3,0.1-2.7,0.3-4,0.5c-2.6,0.4-5.2,1-7.8,1.8c-1.3,0.4-2.5,0.8-3.8,1.4c-1.2,0.6-2.5,1.2-3.6,2.1c-0.6,0.5-1.1,1-1.5,1.8
		c-0.4,0.7-0.5,1.8-0.1,2.5c0.7,1.5,1.8,2.4,2.9,3.1c0.3,0.2,0.7,0.1,0.9-0.1c0.2-0.3,0.2-0.7-0.1-0.9l0,0c-1-0.7-1.9-1.7-2.2-2.6
		c-0.1-0.5-0.1-0.8,0.2-1.2c0.2-0.4,0.6-0.8,1.1-1.1c1.9-1.3,4.4-2,6.9-2.5c2.5-0.5,5-0.9,7.5-1.1c1.3-0.1,2.5-0.2,3.8-0.2
		c0.4,0,0.9,0,1.3,0c0.3,2,0.6,4,0.9,5.9c-2.2,1-4.4,2.2-6.4,3.5c-1.2,0.8-2.4,1.7-3.5,2.7c-1.1,1-2.2,2-3.2,2.9
		c-2.1,2-4.4,3.6-7,4.8c-2.6,1.2-5.4,2-8.2,2.4c-0.2,0-0.3,0.2-0.3,0.3c0,0.2,0.2,0.3,0.3,0.3c2.9-0.3,5.8-1,8.5-2.2
		c2.7-1.1,5.3-2.8,7.5-4.7c1.1-0.9,2.2-1.9,3.3-2.8c1.1-0.9,2.3-1.7,3.5-2.4c1.8-1.1,3.8-2.1,5.8-3c0.2,1.6,0.4,3.1,0.6,4.7
		c-0.1,0-0.2,0-0.2,0.1c-4.6,2.6-8.8,5.8-12.4,9.7c-2.3,2.6-4.4,5.5-6,8.6c-0.5,0.1-1,0.2-1.5,0.3c-0.1,0-0.1,0-0.2,0c0,0,0,0,0,0
		l0,0c-0.7-1.1-1.8-2.1-3-2.6c-1.3-0.5-2.7-0.6-3.9-0.4c-2.6,0.5-4.7,2.1-6.2,3.9c-0.1,0.2-0.1,0.5,0,0.6c0.2,0.2,0.5,0.2,0.6,0
		c1.6-1.6,3.6-2.9,5.7-3.1c1.1-0.1,2.1,0.1,3,0.5c0.7,0.4,1.2,0.9,1.7,1.5c-1.2,0.3-2.5,0.8-3.6,1.4c-1.8,1-3.4,2.4-4.7,4
		c-2.7,3.2-4.3,7-5.4,10.9c-0.1,0.3,0.1,0.6,0.3,0.6c0.3,0.1,0.6-0.1,0.6-0.3c1.2-3.8,2.9-7.4,5.4-10.4c1.3-1.4,2.8-2.7,4.5-3.6
		c1.7-0.9,3.5-1.4,5.5-1.6c0.2,0,0.3,0,0.5-0.1c-0.5,1.1-0.9,2.1-1.3,3.2c-0.8,2.5-1.3,5.1-1.9,7.6c-0.6,2.5-1.3,5-2.1,7.4
		c-1.6,4.9-3.5,9.6-5.8,14.2c-2.3,4.6-5.1,9-6.9,13.9c-1.9,4.9-3,10-3.7,15.2c-1.2,10.4-0.4,20.8,1.3,31c0.1,0.3,0.3,0.5,0.6,0.4
		c0.3,0,0.5-0.3,0.4-0.6c-1.6-10.1-2.4-20.5-1.1-30.7c0.7-5.1,1.8-10.1,3.7-14.8c0.7-1.7,1.5-3.4,2.3-5.1c1.5,9.9,1.2,20.1-0.6,30
		c-0.1,0.3,0.1,0.6,0.5,0.7c0.3,0.1,0.6-0.1,0.7-0.5c2-10.5,2.2-21.4,0.5-31.9l0,0c0,0,0,0,0-0.1c1.2-2.3,2.5-4.5,3.7-6.8
		c2.4-4.6,4.4-9.4,6-14.4c0.8-2.5,1.5-5,2.2-7.5c0.6-2.5,1.2-5,2-7.4c0.5-1.4,1.1-2.8,1.7-4.1c1.1-0.2,2.3-0.5,3.4-0.9
		c2-0.7,3.8-1.5,5.6-2.4c3.1-1.5,6-3.4,8.7-5.5c0,1.2,0,2.5-0.1,3.7c-2.2,1.7-3.9,3.8-5.3,5.7c-0.8,1.1-1.5,2.1-2.3,3.1
		c-0.4,0.5-0.7,0.9-1.2,1.4c-0.4,0.5-0.9,1-1.3,1.6c-1.7,2.1-3.3,4.5-4.5,7.1c-1.2,2.5-2,5.1-2.8,7.6c-1.6,5-3,10-4.5,15
		c-1.5,5-2.9,10.1-4.1,15.2c-1.2,5.1-2.3,10.2-3.2,15.4c-0.9,5.2-1.8,10.3-2.6,15.5c-1.7,10.3-3,20.7-3.9,31.1
		c-1.7,20.9-1.3,41.9,1.3,62.7c1.3,10.4,3.1,20.7,5.4,30.9c2.3,10.2,5.1,20.3,8.4,30.2c0.1,0.3,0.5,0.5,0.8,0.4
		c0.3-0.1,0.5-0.5,0.4-0.8c-3.1-9.9-5.8-20-7.9-30.1c-2.1-10.2-3.8-20.4-4.9-30.8C55.2,444.8,55,424,57,403.3c0.3-2.9,0.6-5.8,1-8.7
		c1.8,8.1,3.4,16.2,4.8,24.3c1,5.8,1.9,11.7,2.8,17.6c-0.1,0.1-0.2,0.2-0.2,0.4c-4.6,17.3-5.1,35.6-1.5,53c0,0.2,0.3,0.4,0.5,0.3
		c0.2,0,0.4-0.2,0.3-0.5c-3.1-16.2-2.5-33.1,1.5-49c0.4,2.9,0.7,5.8,1,8.8c2.2,20.5,2.8,41.1,1.8,61.7c0,0.2,0.2,0.4,0.4,0.4
		c0.2,0,0.4-0.2,0.4-0.4c1.2-20.6,0.7-41.3-1.2-61.9c-1-10.3-2.4-20.5-4.1-30.7c-1.6-10-3.5-19.9-5.7-29.8c0.8-5.5,1.6-11,2.6-16.4
		c0.9-5.1,1.8-10.2,2.8-15.3c1-5.1,2.1-10.1,3.4-15.2c1.3-5,2.7-10,4.2-14.9c1.6-5,3.1-10,4.7-14.9c0.8-2.4,1.7-4.8,2.7-7
		c1-2.2,2.4-4.2,4-6c0.4-0.5,0.8-0.9,1.2-1.4c0.4-0.5,0.9-1,1.4-1.6c0.9-1.1,1.7-2.1,2.4-3.2c0.3-0.4,0.6-0.7,0.8-1.1
		c-0.5,5.3-1.3,10.6-2.4,15.8c-4,8.8-7.8,17.7-10.6,27c-0.7,2.4-1.2,4.8-1.8,7.2c-0.5,2.4-1,4.8-1.5,7.2c-0.9,4.8-1.5,9.8-1.8,14.7
		c0,0.2,0,0.5,0,0.7c-0.1,0.1-0.1,0.2-0.2,0.3c-2.4,5.5-4,11.4-4.6,17.4c-0.6,6-0.2,12,1,17.9c0,0.2,0.3,0.4,0.5,0.3
		c0.2,0,0.4-0.3,0.3-0.5c-1.1-5.8-1.4-11.7-0.7-17.6c0.6-4.7,1.7-9.3,3.4-13.8c0,3.4,0.1,6.8,0.4,10.1c0.4,4.9,1.3,9.8,1.7,14.6
		c0.5,4.9,0.5,9.7,0.2,14.6c-0.3,4.9-0.8,9.7-1.7,14.6c0,0.2,0.1,0.4,0.3,0.4c0.2,0,0.4-0.1,0.4-0.3c0.9-4.8,1.5-9.7,1.9-14.6
		c0.3-4.9,0.4-9.9,0-14.8c-0.4-4.9-1.2-9.8-1.6-14.6c-0.4-4.9-0.4-9.8-0.1-14.6c0.6-9.7,2.8-19.3,5.3-28.7c1.8-5.9,4-11.6,6.5-17.3
		c-0.9,3.1-1.8,6.2-2.9,9.2c-0.3,0.8,0.1,1.7,0.9,2c0.8,0.3,1.7-0.1,2-0.9c2.2-5.8,4-11.7,5.5-17.7c4.2,8,8.1,16.2,11,24.8
		c2.9,9.3,5.4,18.8,6.4,28.5c0.5,4.8,0.7,9.7,0.5,14.6c-0.2,4.9-0.8,9.7-1,14.7c-0.2,4.9,0,9.9,0.5,14.8c0.5,4.9,1.3,9.8,2.4,14.6
		c0,0.2,0.2,0.3,0.4,0.3c0.2,0,0.3-0.2,0.3-0.4c-1-4.8-1.8-9.6-2.2-14.5c-0.4-4.9-0.6-9.8-0.3-14.6c0.3-4.9,1-9.7,1.2-14.7
		c0.2-3.4,0.2-6.8,0-10.1c1.9,4.3,3.2,8.9,4,13.6c0.9,5.8,0.9,11.8,0,17.6c0,0.2,0.1,0.4,0.4,0.5c0.2,0,0.5-0.1,0.5-0.3
		c1-5.9,1.2-11.9,0.3-17.9c-0.8-5.9-2.6-11.8-5.2-17.2c0,0,0,0,0,0c0-0.1-0.1-0.2-0.2-0.2c0-0.2,0-0.5-0.1-0.7
		c-0.5-4.9-1.3-9.8-2.4-14.6c-0.5-2.4-1.1-4.8-1.8-7.2c-0.6-2.4-1.3-4.8-2-7.1c-3.1-9.4-7.4-18.3-11.8-27.1c0,0,0,0,0,0
		c0,0-0.1-0.1-0.1-0.1c1.2-5.2,2.1-10.5,2.7-15.9c0.1-0.7,0.2-1.4,0.2-2.1c1.3,0.7,2.6,1.4,3.8,2.2c2.1,1.3,4.1,2.8,5.5,4.5
		c0.6,0.7,1.4,1.9,2,2.9c0.7,1.1,1.2,2.1,1.7,3.2c1,2.2,1.7,4.6,2.4,7.1c1.2,5,2.3,10.2,3.5,15.3c0.6,2.6,1.2,5.1,1.7,7.6
		c0.5,2.5,0.9,5.1,1.4,7.7c1.7,10.3,3.2,20.7,5,31.1c1,5.7,1.9,11.4,2.7,17.1c-2.2,10-4.2,20.2-5.8,30.3
		c-1.7,10.2-3.1,20.4-4.1,30.7c-2,20.6-2.4,41.3-1.2,61.9c0,0.2,0.2,0.4,0.4,0.4c0.2,0,0.4-0.2,0.4-0.4c-1-20.6-0.3-41.2,1.8-61.7
		c0.3-2.9,0.7-5.8,1-8.8c4,15.9,4.6,32.8,1.5,49c0,0.2,0.1,0.4,0.3,0.5c0.2,0,0.4-0.1,0.5-0.3c3.6-17.4,3.1-35.8-1.5-53c0,0,0,0,0,0
		c0-0.1-0.1-0.3-0.2-0.4c0.8-5.9,1.7-11.7,2.8-17.6c1.4-8.4,3.1-16.7,4.9-25c0.4,2.8,0.7,5.6,1,8.4c2.2,20.8,2.2,41.8,0,62.6
		c-2.2,20.8-6.6,41.4-12.9,61.4c-0.1,0.3,0.1,0.7,0.4,0.8c0.3,0.1,0.7-0.1,0.8-0.4c6.6-20,11.3-40.6,13.9-61.6
		c2.6-20.9,2.9-42.2,1-63.2c-0.9-10.5-2.4-21-4-31.4c-1.6-10.4-3-20.8-4.5-31.2c-0.4-2.6-0.8-5.2-1.3-7.8c-0.5-2.6-1-5.3-1.6-7.8
		c-1.1-5.1-2.1-10.2-3.3-15.5c-0.6-2.6-1.4-5.3-2.5-7.9c-0.6-1.3-1.2-2.6-1.9-3.7c-0.3-0.6-0.7-1.2-1.1-1.8
		c-0.3-0.5-0.8-1.3-1.3-1.8c-2-2.3-4.2-4-6.5-5.5c-1.9-1.3-3.9-2.4-6-3.4c0-0.7,0.1-1.4,0.1-2c2.1,1.5,4.3,2.8,6.6,4
		c1.8,0.9,3.6,1.8,5.6,2.4c1.1,0.4,2.2,0.6,3.4,0.9c0.7,1.3,1.3,2.7,1.7,4.1c0.8,2.4,1.3,4.9,2,7.4c0.6,2.5,1.3,5,2.2,7.5
		c1.6,4.9,3.6,9.8,6,14.4c1.2,2.3,2.5,4.5,3.7,6.8c0,0,0,0,0,0.1c-1.7,10.6-1.5,21.4,0.5,31.9c0.1,0.3,0.4,0.5,0.7,0.5
		c0.3-0.1,0.5-0.4,0.5-0.7c-1.9-9.9-2.1-20-0.6-30c0.9,1.7,1.7,3.4,2.3,5.1c1.9,4.7,3,9.8,3.7,14.8c1.3,10.2,0.6,20.5-1.1,30.7
		c0,0.3,0.1,0.6,0.4,0.6c0.3,0,0.6-0.1,0.6-0.4c1.7-10.2,2.6-20.6,1.3-31c-0.6-5.2-1.8-10.3-3.7-15.2c-1.8-4.9-4.6-9.3-6.9-13.9
		c-2.3-4.6-4.3-9.3-5.8-14.2c-0.8-2.4-1.5-4.9-2.1-7.4c-0.6-2.5-1.1-5-1.9-7.6c-0.4-1.1-0.8-2.2-1.3-3.2c0.2,0,0.3,0,0.5,0.1
		c2,0.3,3.8,0.7,5.5,1.6c1.7,0.9,3.2,2.2,4.5,3.6c2.6,2.9,4.2,6.6,5.4,10.4c0.1,0.3,0.4,0.4,0.6,0.3c0.3-0.1,0.4-0.4,0.3-0.6
		c-1.1-3.9-2.8-7.7-5.4-10.9c-1.3-1.6-2.9-3-4.7-4c-1.1-0.7-2.4-1.1-3.6-1.4c0.5-0.6,1-1.2,1.7-1.5c0.9-0.5,1.9-0.6,3-0.5
		c2.1,0.2,4.2,1.5,5.7,3.1c0.2,0.2,0.4,0.2,0.6,0c0.2-0.2,0.2-0.4,0.1-0.6c-1.5-1.9-3.7-3.4-6.2-3.9c-1.3-0.2-2.7-0.2-3.9,0.4
		c-1.3,0.6-2.3,1.5-3,2.6l0,0c-0.1,0-0.1,0-0.2,0c-0.5-0.1-1-0.2-1.5-0.3c-1.6-3.1-3.6-6-6-8.6c-3.2-3.6-7-6.5-11.1-9
		c-0.1-1.8-0.3-3.7-0.5-5.5c2,0.8,3.9,1.8,5.8,3c1.2,0.7,2.4,1.6,3.5,2.4c1.1,0.9,2.2,1.8,3.3,2.8c2.2,1.9,4.8,3.6,7.5,4.7
		c2.7,1.1,5.6,1.8,8.5,2.2c0.2,0,0.3-0.1,0.3-0.3c0-0.2-0.1-0.3-0.3-0.4c-2.8-0.4-5.6-1.2-8.2-2.4c-2.6-1.2-4.9-2.8-7-4.8
		c-1.1-1-2.1-2-3.2-2.9c-1.1-1-2.3-1.9-3.5-2.7c-2.2-1.5-4.5-2.7-6.9-3.8c-0.2-1.9-0.5-3.8-0.7-5.6c1.8-0.1,3.7-0.1,5.6,0
		c2.7,0.1,5.4,0.5,8.1,1c2.6,0.5,5.3,1.2,7.5,2.5c1.1,0.6,1.9,1.5,1.8,2.4c-0.2,1-1.2,2-2.2,2.8l0,0c-0.3,0.2-0.3,0.6-0.1,0.9
		c0.2,0.3,0.6,0.4,0.9,0.2c0.6-0.4,1.2-0.8,1.8-1.4c0.5-0.5,1.1-1.2,1.3-2.1c0.3-0.9,0-2-0.5-2.7c-0.5-0.7-1.1-1.2-1.7-1.7
		c-2.5-1.7-5.3-2.6-8-3.4c-2.8-0.8-5.5-1.3-8.4-1.7c-2.1-0.3-4.2-0.4-6.3-0.5c-0.4-4.5-0.5-9.1-0.4-13.6c3.8-0.2,7.7-0.1,11.5,0.4
		c2.4,0.3,4.8,0.7,7.2,1.2c2.4,0.5,4.8,1.1,7.1,1.9c1.1,0.4,2.3,0.8,3.4,1.3c1.1,0.5,2.1,1,2.8,1.7c0.4,0.3,0.5,0.6,0.5,0.7
		c0,0,0,0.1,0,0.2c-0.1,0.1-0.2,0.3-0.3,0.4c-0.6,0.6-1.7,1.2-2.8,1.7c-2.2,0.9-4.6,1.5-6.9,1.9c-2.4,0.5-4.8,0.8-7.3,0.9
		c-0.5,0-0.8,0.4-0.8,0.9c0,0.5,0.4,0.9,0.9,0.9c2.5-0.1,5-0.3,7.5-0.7c2.5-0.4,5-0.9,7.5-1.8c1.2-0.5,2.5-1,3.6-2.1
		c0.3-0.2,0.6-0.6,0.8-1c0.2-0.5,0.4-1,0.4-1.6c-0.1-1.2-0.7-1.9-1.3-2.4c-1.1-1.1-2.3-1.7-3.5-2.3c-1.2-0.6-2.4-1-3.6-1.5
		c-2.4-0.9-4.8-1.6-7.3-2.2c-2.4-0.6-5-1.2-7.5-1.5c-3.9-0.6-7.9-0.9-11.9-0.8c0,0,0-0.1,0-0.1c0.3-5.1,1-10.1,1.8-15.1
		c3.7-0.1,7.3,0.1,11,0.6c4.6,0.7,9.3,1.7,13.8,3.2c1.1,0.4,2.2,0.8,3.2,1.3c1,0.5,2,1.1,2.4,1.7c0.1,0.1,0.2,0.3,0.2,0.3
		c0,0.1,0,0.1,0,0.2c0,0.2-0.3,0.5-0.7,0.8c-0.8,0.6-1.8,1.1-2.9,1.5c-4.3,1.6-9.1,2.3-13.8,2.7l0,0c-0.5,0-0.8,0.5-0.8,0.9
		c0,0.5,0.4,0.9,0.9,0.9c4.9-0.2,9.7-0.7,14.5-2.3c1.2-0.4,2.4-0.9,3.5-1.8c0.6-0.4,1.2-1,1.6-1.9c0.2-0.5,0.2-1.1,0.1-1.6
		c-0.1-0.5-0.3-0.9-0.6-1.3c-0.5-0.7-1.1-1.1-1.6-1.6c-0.6-0.4-1.1-0.7-1.7-1c-1.1-0.6-2.3-1.1-3.4-1.5c-4.6-1.8-9.3-3-14.2-3.9
		c-3.5-0.7-7.2-1.1-10.8-1.1c0.9-4.7,1.9-9.4,2.8-14.2c1.2,0,2.3,0,3.5,0.1c2.1,0.2,4.3,0.6,6.5,1c4.4,0.8,8.7,1.8,12.8,3.4
		c1,0.4,2,0.8,2.8,1.4c0.4,0.3,0.8,0.6,1,0.8c0.3,0.3,0.3,0.5,0.3,0.6c0,0.1-0.1,0.4-0.4,0.6c-0.3,0.3-0.7,0.6-1.1,0.8
		c-0.9,0.5-1.9,0.9-2.9,1.3c-4.1,1.4-8.6,2-13,2.4l0,0c-0.5,0-0.8,0.5-0.8,0.9c0,0.5,0.4,0.9,0.9,0.9c4.6-0.2,9.1-0.7,13.6-2
		c1.1-0.3,2.2-0.8,3.3-1.3c0.6-0.3,1.1-0.6,1.6-1.1c0.5-0.5,1.1-1.2,1.2-2.2c0.1-0.5-0.1-1-0.2-1.5c-0.2-0.4-0.4-0.8-0.7-1
		c-0.5-0.6-1-1-1.5-1.3c-1-0.7-2.1-1.2-3.2-1.7c-4.3-1.9-8.7-3-13.2-4.1c-2.2-0.5-4.4-1-6.8-1.4c-1.1-0.2-2.2-0.3-3.3-0.3
		c0.4-3,0.8-6.1,0.6-9.5c-0.1-1.6-0.4-3.1-0.6-4.7c1,0,1.9,0,2.9,0.1c2.1,0.2,4.3,0.6,6.5,1c4.4,0.8,8.7,1.8,12.8,3.4
		c1,0.4,2,0.8,2.8,1.4c0.4,0.3,0.8,0.6,1,0.8c0.3,0.3,0.3,0.5,0.3,0.6c0,0.1-0.1,0.4-0.4,0.6c-0.3,0.3-0.7,0.6-1.1,0.8
		c-0.9,0.5-1.9,0.9-2.9,1.3c-4.1,1.4-8.6,2-13,2.4l0,0c-0.5,0-0.8,0.5-0.8,0.9c0,0.5,0.4,0.9,0.9,0.9c4.6-0.2,9.1-0.7,13.6-2
		c1.1-0.3,2.2-0.8,3.3-1.3c0.6-0.3,1.1-0.6,1.6-1.1c0.5-0.5,1.1-1.2,1.2-2.2c0.1-0.5-0.1-1-0.2-1.5c-0.2-0.4-0.4-0.8-0.7-1
		c-0.5-0.6-1-1-1.5-1.3c-1-0.7-2.1-1.2-3.2-1.7c-4.3-1.9-8.7-3-13.2-4.1c-2.2-0.5-4.4-1-6.8-1.4c-1.3-0.2-2.7-0.3-4.1-0.3l-0.1-0.6
		L97,180l0-0.2l0,0c0,0,0,0.1,0,0.2c0,0.2,0,0.4,0,0.6l-0.1-0.9l-0.9-3.4l-0.5-1.7l-0.4-1.5c-0.6-2-1-4.1-1.5-6.2c0,0,0,0,0,0
		c3.2-0.1,6.5,0,9.7,0.4c2.4,0.3,4.8,0.7,7.2,1.2c2.4,0.5,4.8,1.1,7.1,1.9c1.1,0.4,2.3,0.8,3.4,1.3c1.1,0.5,2.1,1,2.8,1.7
		c0.4,0.3,0.5,0.6,0.5,0.7c0,0,0,0.1,0,0.2c-0.1,0.1-0.2,0.3-0.3,0.4c-0.6,0.6-1.7,1.2-2.8,1.7c-2.2,0.9-4.6,1.5-6.9,1.9
		c-2.4,0.5-4.8,0.8-7.3,0.9c-0.5,0-0.8,0.4-0.8,0.9c0,0.5,0.4,0.9,0.9,0.9c2.5-0.1,5-0.3,7.5-0.7c2.5-0.4,5-0.9,7.5-1.8
		c1.2-0.5,2.5-1,3.6-2.1c0.3-0.2,0.6-0.6,0.8-1c0.2-0.5,0.4-1,0.4-1.6c-0.1-1.2-0.7-1.9-1.3-2.4c-1.1-1.1-2.3-1.7-3.5-2.3
		c-1.2-0.6-2.4-1-3.6-1.5c-2.4-0.9-4.8-1.6-7.3-2.2c-2.4-0.6-5-1.2-7.5-1.5c-3.6-0.5-7.2-0.8-10.8-0.8c-0.5-3-0.9-6-1.2-9
		c-0.1-0.6-0.1-1.3-0.2-1.9c0.1,0.1,0.3,0.3,0.5,0.4c4.6,4.1,6.9,6.1,9.3,7.3c2.3,1.1,4.1,1.3,5.7,1.5c1.9,0.2,3.7,0.4,6.5,1.9
		c1.3,0.7,2.5,1.5,3.7,2.5c0.1,0.1,0.2,0.1,0.3,0.1c0.1,0,0.3-0.1,0.4-0.2c0.2-0.2,0.1-0.5-0.1-0.7c-1.2-1-2.5-1.9-3.9-2.6
		c-3-1.6-5-1.8-6.9-2c-1.7-0.2-3.2-0.4-5.4-1.4c-2.2-1.1-4.5-3.1-9.1-7.1c-0.5-0.4-0.9-0.8-1.2-1.1c-0.1-1-0.2-2.1-0.2-3.1
		c-0.1-2.1-0.2-4.2-0.1-6.3c10.9,2.9,21.1,8.3,29.5,15.8c2.1,1.9,4.2,4,6.1,6.2c0.2,0.2,0.4,0.5,0.6,0.7c2.3,7.2,4.9,14.3,7.8,21.3
		c1.3,3.2,2.7,6.3,4.1,9.4c-0.1,0.1-0.1,0.2-0.1,0.3c-0.2,2.4-0.2,4.7-0.2,7.1c0,2.3,0.1,4.7,0.3,7.1c0.2,2.4,0.7,4.7,1.5,6.9
		c0.8,2.2,1.8,4.4,3.1,6.4c0.1,0.1,0.2,0.1,0.3,0.1c0.1-0.1,0.1-0.2,0.1-0.3c-1.2-2-2.2-4.1-2.9-6.3c-0.7-2.2-1.1-4.5-1.3-6.8
		c-0.2-2.3-0.2-4.7-0.2-7c0-1.9,0.1-3.7,0.2-5.6c0,0,0,0,0,0c1.8,3.6,3.4,7.3,4.5,11.2c1.1,3.9,1.6,7.9,1.7,11.9
		c0.1,4-0.2,8.1,0,12.2c0.3,8.2,1.8,16.2,4.4,23.9c0,0.1,0.2,0.2,0.3,0.2c0.1,0,0.2-0.2,0.2-0.3c-2.5-7.7-4.1-15.7-4.3-23.8
		c-0.1-4,0.2-8.1,0.1-12.2c0-4.1-0.6-8.2-1.7-12.1c-1-4-2.7-7.7-4.4-11.4c-1.7-3.7-3.3-7.4-4.9-11.1c-2.5-6.2-4.8-12.5-6.9-18.8
		c1,1.3,2,2.7,3,4c3.3,4.8,6,10,8.5,15.3c1.2,2.6,2.2,5.3,3,8.1c0.7,2.8,1.3,5.7,1.9,8.6l3.2,17.5c2.1,11.7,4.3,23.4,6.6,35.1l0,0.2
		l0.7,3.8c0,0,0,0.1,0,0.1c-1,4.8-1.3,9.7-0.9,14.6c0.2,2.4,0.6,4.9,1.3,7.2c0.8,2.3,1.5,4.6,2,7c1.1,4.7,2.1,9.4,2.5,14.2
		c0.5,4.8,0.1,9.6-1,14.3c0,0.2,0.1,0.3,0.2,0.4c0.2,0,0.3-0.1,0.4-0.2c1.1-4.7,1.5-9.7,1.1-14.5c-0.4-4.9-1.3-9.6-2.5-14.4
		c-0.5-2.4-1.3-4.7-2-7c-0.7-2.3-1-4.7-1.2-7.1c-0.3-4-0.1-8,0.5-11.9l2.1,11.8c1.1,6.1,2.2,12.3,3.2,18.4c1,6.2,1.9,12.3,2.3,18.6
		c0.1,1.2,0.1,2.3,0.2,3.5l-0.5,1.5c-0.3,0.8-0.5,1.6-0.9,2.4c-0.6,1.6-1.4,3.1-2.2,4.6c-0.8,1.5-1.5,3.3-1.6,5
		c-0.2,1.8,0.1,3.5,0.6,5.2c0,0.1,0.2,0.2,0.3,0.2c0.1,0,0.2-0.2,0.2-0.3c-0.5-1.6-0.7-3.3-0.5-5c0.2-1.7,0.8-3.2,1.6-4.7
		c0.8-1.5,1.6-3,2.3-4.6c0.2-0.5,0.4-1.1,0.6-1.6c0,1.5,0.1,3,0.1,4.5c-0.4,0.5-0.8,1.1-1.1,1.6c-0.4,0.8-0.8,1.5-0.9,2.4
		c-0.3,1.7,0,3.4-0.3,4.9c-0.2,0.8-0.5,1.5-0.8,2.3c-0.3,0.8-0.6,1.6-0.8,2.4c-0.4,1.6-0.7,3.3-0.7,4.9c0,0.1,0.1,0.2,0.2,0.2
		c0.1,0,0.2-0.1,0.2-0.2c0.1-1.6,0.4-3.2,0.8-4.8c0.2-0.8,0.5-1.5,0.8-2.3c0.4-0.8,0.7-1.5,0.9-2.4c0.4-1.7,0.2-3.4,0.5-4.9
		c0.2-0.9,0.6-1.7,1.1-2.5c0,2.1-0.1,4.3-0.2,6.4c0,0.3,0.2,0.6,0.6,0.6c0.3,0,0.6-0.2,0.7-0.6c0.1-1.5,0.2-3.1,0.2-4.6
		c0.4,0.6,0.8,1.3,1.1,2c0.5,1.1,0.8,2.3,0.9,3.5c0.2,2.4-0.3,4.9-1.4,7.2c0,0.1,0,0.2,0.1,0.2c0.1,0,0.2,0,0.2-0.1
		c1.2-2.2,1.9-4.8,1.7-7.4c-0.1-1.3-0.3-2.6-0.8-3.8c-0.4-1.2-1.1-2.3-1.8-3.3c0.1-1.8,0.1-3.6,0.1-5.4c0.8,0.6,1.6,1.3,2.3,2.2
		c0.9,1.1,1.4,2.3,1.9,3.7c0.5,1.3,1,2.7,1.6,4c0.6,1.3,1.3,2.6,2.1,3.8c0.1,0.1,0.2,0.1,0.2,0.1
		C173.7,330.8,173.8,330.7,173.7,330.6z M80.2,284.7c-1.7,0.9-3.5,1.8-5.3,2.4c-0.6,0.2-1.2,0.4-1.9,0.6c1.4-2.5,3.1-4.8,5-6.8
		c3.3-3.6,7.2-6.5,11.4-8.9c0,0.4,0.1,0.7,0.1,1.1c0.1,1.7,0.2,3.5,0.2,5.2C86.8,280.7,83.6,282.9,80.2,284.7z M103.7,280.8
		c1.9,2.1,3.6,4.4,5,6.8c-0.6-0.2-1.3-0.3-1.9-0.6c-1.8-0.6-3.6-1.5-5.3-2.4c-2.6-1.4-5-3-7.4-4.7c0.1-2.3,0-4.6,0-7
		C97.6,275.2,100.9,277.8,103.7,280.8z"/>
</g>
</svg>
