<?xml version="1.0" encoding="utf-8"?>
<!-- Generator: Adobe Illustrator 23.0.1, SVG Export Plug-In . SVG Version: 6.00 Build 0)  -->
<svg version="1.1" xmlns="http://www.w3.org/2000/svg" xmlns:xlink="http://www.w3.org/1999/xlink" x="0px" y="0px"
	 viewBox="0 0 19.4 19.4" style="enable-background:new 0 0 19.4 19.4;" xml:space="preserve">
<style type="text/css">
	.st0{display:none;}
	.st1{display:inline;fill:#4E4ECE;}
	.st2{display:inline;}
	.st3{fill:none;}
	.st4{fill:#653984;}
	.st5{fill:#331F3D;}
	.st6{fill:#39AA67;}
	.st7{fill:#39915D;}
	.st8{fill:#EECD86;}
	.st9{fill:#DDB973;}
	.st10{display:inline;fill:#331F3D;}
</style>
<g id="Layer_2" class="st0">
	<path class="st1" d="M35.9,368.8H-217c-60.3,0-109.2-48.9-109.2-109.2v-402.2c0-60.3,48.9-109.2,109.2-109.2H35.9
		c60.3,0,109.2,48.9,109.2,109.2v402.2C145.1,319.9,96.2,368.8,35.9,368.8z"/>
	<g class="st2">
		<path class="st3" d="M-7.5,242.6l-29.2-97.2l-8.6-156.2L-31.6-121L3-186.6l57.7-27.4l46.8-11.1c-19.2-16.7-44.3-26.8-71.7-26.8
			H-217c-31.2,0-59.4,13.1-79.3,34.2l60.7,12.3l48.7,38.5l51.9,89.3l6,43.1l-28,25.2l-1.6,24.4l5.5,16.1l33.7,12.6l-2,59.9
			l-14.2,122.1l-94.2,112.1l-37.5,18.7c15.1,7.8,32.2,12.3,50.3,12.3H35.9c21.4,0,41.3-6.1,58.1-16.8L52,329.1L-7.5,242.6z"/>
		<path class="st4" d="M-152.2,218.6l13.6-116.6l1.5-46.4l-29.7-11.1l-9.2-27.1l2.3-34.8l26.4-23.7l-4.3-30.7l-48.5-83.5l-42.9-33.9
			l-65.3-13.2c-11.3,17.2-17.9,37.8-17.9,59.9v402.2c0,35,16.4,66.1,42,86.1l43.5-21.7L-152.2,218.6z"/>
		<path class="st5" d="M-135.6,225.8l14.2-122.1l2-59.9l-33.7-12.6l-5.5-16.1l1.6-24.4l28-25.2l-6-43.1l-51.9-89.3l-48.7-38.5
			l-60.7-12.3c-2.3,2.4-4.4,4.9-6.5,7.5l63.5,12.9l45.8,36.2l50.2,86.4c1.7,12.3,3.4,24.6,5.1,36.9l-27.2,24.5l-2,29.6l7.3,21.6
			l31.7,11.8l-1.7,53l-13.9,119.6l-91.3,108.7l-41,20.4c2.9,1.9,5.9,3.6,8.9,5.2l37.5-18.7L-135.6,225.8z"/>
		<path class="st5" d="M-243.1-189.3l42.9,33.9l48.5,83.5l4.3,30.7l-26.4,23.7l-2.3,34.8l9.2,27.1l29.7,11.1l-1.5,46.4l-13.6,116.6
			L-240.7,324l-43.5,21.7c2.6,2,5.2,3.9,8,5.7l41-20.4l91.3-108.7l13.9-119.6l1.7-53L-160,37.8l-7.3-21.6l2-29.6l27.2-24.5
			c-1.7-12.3-3.4-24.6-5.1-36.9l-50.2-86.4l-45.8-36.2l-63.5-12.9c-2,2.5-3.8,5-5.5,7.7L-243.1-189.3z"/>
		<path class="st4" d="M145.1,259.6v-402.2c0-25.7-8.9-49.3-23.7-67.9l-54.9,13l-50.9,24.1l-30.5,57.7L-27.9-10.2l8.4,152.6
			l27.8,92.6l55.6,80.8l44.1,24l2.3-0.4C131.7,319.6,145.1,291.2,145.1,259.6z"/>
		<path class="st5" d="M57.9,322.5L0.3,238.8L-28.1,144l-8.5-154.4l13.4-107.9L9.3-180l54.3-25.7l51.4-12.2
			c-2.4-2.5-4.9-4.9-7.4-7.1l-46.8,11.1L3-186.6L-31.6-121L-45.3-10.8l8.6,156.2l29.2,97.2L52,329.1L94.1,352
			c2.7-1.7,5.4-3.6,7.9-5.5L57.9,322.5z"/>
		<path class="st5" d="M9.3-180l-32.5,61.6L-36.6-10.5l8.5,154.4l28.5,94.9l57.6,83.7l44.1,24c2.9-2.2,5.6-4.5,8.3-7l-2.3,0.4
			l-44.1-24L8.2,235.1l-27.8-92.6l-8.4-152.6l13.1-105.6l30.5-57.7l50.9-24.1l54.9-13c-2-2.5-4.2-5-6.4-7.4l-51.4,12.2L9.3-180z"/>
	</g>
</g>
<g id="Layer_1">
	<g>
		<rect class="st6" width="19.4" height="19.4"/>
		<polygon class="st7" points="0,0 9.7,9.7 19.4,0 		"/>
		<polygon class="st7" points="0,19.4 9.7,9.7 19.4,19.4 		"/>
	</g>
</g>
<g id="Layer_5" class="st0">
	<g class="st2">
		<circle class="st8" cx="-21.1" cy="9.7" r="9.8"/>
		<circle class="st9" cx="-21.1" cy="9.7" r="5.6"/>
	</g>
</g>
<g id="Layer_4" class="st0">
	<path class="st10" d="M-55.4-2.9c-2.5-1.2-5.5-0.3-6.7,2.2c-2.8,5.6-5,9.7-7.1,13.7c-1,2-2.1,4.1-3.3,6.3L-84.2,2.2
		c-1.6-2.3-4.7-2.9-6.9-1.3c-2.3,1.6-2.9,4.7-1.3,6.9l15.6,22.9l0.9,25.9l10-0.3l-0.9-26c2.6-5,4.6-8.9,6.5-12.6
		c2.1-4,4.3-8.2,7.1-13.8C-52,1.4-53-1.6-55.4-2.9z"/>
</g>
<g id="Layer_3" class="st0">
	<path class="st10" d="M-122.8,33.9L-123,4.5c0-2.8-2.3-5-5-5c0,0,0,0,0,0c-2.8,0-5,2.3-5,5l0.1,19.4l-18.7,0.1l-0.1-18.5
		c0-2.8-2.3-5-5-5c0,0,0,0,0,0c-2.8,0-5,2.3-5,5l0.2,28.5l14.1-0.1l0.5,24.4l10-0.2l-0.5-24.2L-122.8,33.9z"/>
</g>
</svg>
