<?xml version="1.0" encoding="utf-8"?>
<!-- Generator: Adobe Illustrator 23.0.1, SVG Export Plug-In . SVG Version: 6.00 Build 0)  -->
<svg version="1.1" xmlns="http://www.w3.org/2000/svg" xmlns:xlink="http://www.w3.org/1999/xlink" x="0px" y="0px"
	 viewBox="0 0 38.9 58.9" style="enable-background:new 0 0 38.9 58.9;" xml:space="preserve">
<style type="text/css">
	.st0{display:none;}
	.st1{display:inline;fill:#4E4ECE;}
	.st2{display:inline;}
	.st3{fill:none;}
	.st4{fill:#653984;}
	.st5{fill:#331F3D;}
	.st6{fill:#39AA67;}
	.st7{fill:#39915D;}
	.st8{fill:#EECD86;}
	.st9{fill:#DDB973;}
	.st10{display:inline;fill:#331F3D;}
</style>
<g id="Layer_2" class="st0">
	<path class="st1" d="M197.6,369.2H-55.3c-60.3,0-109.2-48.9-109.2-109.2v-402.2c0-60.3,48.9-109.2,109.2-109.2h252.9
		c60.3,0,109.2,48.9,109.2,109.2V260C306.8,320.3,257.9,369.2,197.6,369.2z"/>
	<g class="st2">
		<path class="st3" d="M154.1,243.1L125,145.9l-8.6-156.2l13.7-110.2l34.6-65.6l57.7-27.4l46.8-11.1c-19.2-16.7-44.3-26.8-71.7-26.8
			H-55.3c-31.2,0-59.4,13.1-79.3,34.2l60.7,12.3l48.7,38.5l51.9,89.3l6,43.1L4.7-8.9L3.1,15.5l5.5,16.1l33.7,12.6l-2,59.9L26,226.2
			l-94.2,112.1l-37.5,18.7c15.1,7.8,32.2,12.3,50.3,12.3h252.9c21.4,0,41.3-6.1,58.1-16.8l-42.1-22.9L154.1,243.1z"/>
		<path class="st4" d="M9.5,219.1L23,102.4L24.6,56L-5.2,44.9l-9.2-27.1l2.3-34.8l26.4-23.7L10-71.5L-38.5-155l-42.9-33.9
			l-65.3-13.2c-11.3,17.2-17.9,37.8-17.9,59.9V260c0,35,16.4,66.1,42,86.1l43.5-21.7L9.5,219.1z"/>
		<path class="st5" d="M26,226.2l14.2-122.1l2-59.9L8.5,31.6L3.1,15.5L4.7-8.9l28-25.2l-6-43.1l-51.9-89.3L-73.9-205l-60.7-12.3
			c-2.3,2.4-4.4,4.9-6.5,7.5l63.5,12.9l45.8,36.2l50.2,86.4c1.7,12.3,3.4,24.6,5.1,36.9L-3.7-13l-2,29.6l7.3,21.6l31.7,11.8l-1.7,53
			L17.8,222.6l-91.3,108.7l-41,20.4c2.9,1.9,5.9,3.6,8.9,5.2l37.5-18.7L26,226.2z"/>
		<path class="st5" d="M-81.4-188.9l42.9,33.9L10-71.5l4.3,30.7l-26.4,23.7l-2.3,34.8l9.2,27.1L24.6,56L23,102.4L9.5,219.1
			L-79,324.4l-43.5,21.7c2.6,2,5.2,3.9,8,5.7l41-20.4l91.3-108.7l13.9-119.6l1.7-53L1.7,38.2l-7.3-21.6l2-29.6l27.2-24.5
			c-1.7-12.3-3.4-24.6-5.1-36.9l-50.2-86.4l-45.8-36.2l-63.5-12.9c-2,2.5-3.8,5-5.5,7.7L-81.4-188.9z"/>
		<path class="st4" d="M306.8,260v-402.2c0-25.7-8.9-49.3-23.7-67.9l-54.9,13L177.3-173l-30.5,57.7L133.7-9.7l8.4,152.6l27.8,92.6
			l55.6,80.8l44.1,24l2.3-0.4C293.4,320,306.8,291.6,306.8,260z"/>
		<path class="st5" d="M219.6,322.9L162,239.3l-28.5-94.9L125.1-10l13.4-107.9l32.5-61.6l54.3-25.7l51.4-12.2
			c-2.4-2.5-4.9-4.9-7.4-7.1l-46.8,11.1l-57.7,27.4l-34.6,65.6L116.4-10.3l8.6,156.2l29.2,97.2l59.5,86.5l42.1,22.9
			c2.7-1.7,5.4-3.6,7.9-5.5L219.6,322.9z"/>
		<path class="st5" d="M171-179.6l-32.5,61.6L125.1-10l8.5,154.4l28.5,94.9l57.6,83.7l44.1,24c2.9-2.2,5.6-4.5,8.3-7l-2.3,0.4
			l-44.1-24l-55.6-80.8l-27.8-92.6L133.7-9.7l13.1-105.6l30.5-57.7l50.9-24.1l54.9-13c-2-2.5-4.2-5-6.4-7.4l-51.4,12.2L171-179.6z"
			/>
	</g>
</g>
<g id="Layer_1" class="st0">
	<g class="st2">
		<rect x="161.7" y="0.4" class="st6" width="19.4" height="19.4"/>
		<polygon class="st7" points="161.7,0.4 171.4,10.1 181.1,0.4 		"/>
		<polygon class="st7" points="161.7,19.9 171.4,10.1 181.1,19.9 		"/>
	</g>
</g>
<g id="Layer_5" class="st0">
	<g class="st2">
		<circle class="st8" cx="140.6" cy="10.1" r="9.8"/>
		<circle class="st9" cx="140.6" cy="10.1" r="5.6"/>
	</g>
</g>
<g id="Layer_4" class="st0">
	<path class="st10" d="M106.2-2.4c-2.5-1.2-5.5-0.3-6.7,2.2c-2.8,5.6-5,9.7-7.1,13.7c-1,2-2.1,4.1-3.3,6.3L77.5,2.6
		c-1.6-2.3-4.7-2.9-6.9-1.3c-2.3,1.6-2.9,4.7-1.3,6.9l15.6,22.9l0.9,25.9l10-0.3l-0.9-26c2.6-5,4.6-8.9,6.5-12.6
		c2.1-4,4.3-8.2,7.1-13.8C109.7,1.8,108.7-1.2,106.2-2.4z"/>
</g>
<g id="Layer_3">
	<path class="st5" d="M38.9,34.4L38.7,5c0-2.8-2.3-5-5-5c0,0,0,0,0,0c-2.8,0-5,2.3-5,5l0.1,19.4l-18.7,0.1L10,6c0-2.8-2.3-5-5-5
		c0,0,0,0,0,0c-2.8,0-5,2.3-5,5l0.2,28.5l14.1-0.1l0.5,24.4l10-0.2l-0.5-24.2L38.9,34.4z"/>
</g>
</svg>
