<?xml version="1.0" encoding="utf-8"?>
<!-- Generator: Adobe Illustrator 23.0.1, SVG Export Plug-In . SVG Version: 6.00 Build 0)  -->
<svg version="1.1" id="Layer_1" xmlns="http://www.w3.org/2000/svg" xmlns:xlink="http://www.w3.org/1999/xlink" x="0px" y="0px"
	 viewBox="0 0 205.7 137.7" style="enable-background:new 0 0 205.7 137.7;" xml:space="preserve">
<style type="text/css">
	.st0{fill:#37CCEF;}
</style>
<path class="st0" d="M192,86.7c-7.5,0-13.6,6-13.7,13.5c-8.5,4.8-17.6,8.6-27,11.2c-5.4,1.5-10.8,2.6-16.4,3.4
	c-5.6,0.8-11.2,1.3-16.9,1.5c-11.3,0.3-22.6-0.5-33.4-3.3c-10.8-2.8-21.1-7.5-29.5-14.6l-1.6-1.3L52,95.6l-1.5-1.4l-1.4-1.5
	l-1.4-1.5c-0.5-0.5-0.9-1.1-1.4-1.6c-0.9-1.1-1.7-2.2-2.6-3.3c-1.8-2.5-3.5-5.2-5-7.9l0.1,0c0,0-0.1,0-0.1,0c-1.1-2.1-2.2-4.3-3-6.5
	c-2-5.1-3.2-10.5-3.3-16c-0.1-5.4,1-10.9,3-16c0.4-0.9,0.8-1.8,1.2-2.7c5.6,1.9,11.4,3.1,17.2,3.7c5.8,0.6,11.7,0.5,17.4-0.2
	c2.9-0.4,5.7-0.9,8.5-1.6c2.8-0.7,5.5-1.5,8.2-2.5c5.4-2,10.5-4.5,15.3-7.6c0.4-0.3,0.6-0.8,0.3-1.3c-0.3-0.5-0.9-0.7-1.3-0.4
	c-4.9,2.6-10,4.6-15.3,6c-2.6,0.7-5.3,1.3-8,1.7c-2.7,0.4-5.4,0.6-8.1,0.7c-5.4,0.2-10.8-0.2-16.1-1.2c-4.8-0.9-9.5-2.3-14-4.2
	c1.1-1.5,2.2-2.9,3.4-4.3c3.7-4.2,8.1-7.8,12.8-10.8c4.7-3,9.8-5.6,15.2-7.5C77.5,5.7,83,4.3,88.6,3.4l0,0c0.9-0.1,1.6-1,1.4-1.9
	c-0.1-0.9-1-1.6-1.9-1.5c-5.9,0.8-11.7,2.1-17.3,3.9c-5.6,1.9-11.1,4.4-16.2,7.5c-5.1,3.1-9.8,6.9-14,11.3c-4.1,4.4-7.6,9.5-10,15.2
	c-2.4,5.6-3.8,11.8-3.8,17.9c-0.1,6.2,1.2,12.3,3.3,18c0.2,0.7,0.5,1.4,0.8,2.1c-0.3-0.1-0.5-0.2-0.8-0.3c-2.8-1.2-5.6-2.7-8.1-4.5
	c-2.6-1.8-4.9-3.8-7-6.1c-1-1.2-2.1-2.3-3-3.6c-1-1.2-1.8-2.6-2.6-3.9c-1.5-2.7-2.9-5.6-3.8-8.7c-0.9-3-1.6-6.2-1.8-9.3
	c-0.5-6.4,0.2-13,2.3-19.1l0,0c0.2-0.6-0.1-1.3-0.7-1.5c-0.6-0.3-1.4,0-1.6,0.7C1.2,25.8-0.1,32.7,0,39.6c0,3.5,0.5,7,1.3,10.4
	c0.8,3.4,2,6.7,3.5,9.9c0.8,1.6,1.6,3.2,2.6,4.6c0.9,1.5,2,2.9,3.1,4.3c2.3,2.7,4.8,5.3,7.5,7.5c2.8,2.2,5.8,4.2,9,5.8
	c2.8,1.5,5.8,2.7,8.9,3.6c0.9,1.4,1.7,2.8,2.7,4.1c0.9,1.2,1.8,2.5,2.7,3.6c0.5,0.6,0.9,1.2,1.4,1.7l0.6,0.7
	c-5,1.3-10.2,1.8-15.5,1.4c-6.3-0.5-12.6-2.2-18.4-5c-0.3-0.2-0.8-0.1-1,0.3c-0.2,0.4-0.2,0.8,0.2,1.1c5.5,3.8,11.7,6.8,18.4,8.4
	c6.7,1.6,13.9,1.9,20.9,0.8l0.1,0c0.2,0,0.4-0.1,0.6-0.2c0.3-0.1,0.5-0.2,0.8-0.4l1.2,1c9.1,8.1,20.3,13.6,31.9,16.8
	c11.6,3.2,23.6,4.4,35.5,4.4c6-0.1,11.9-0.4,17.8-1.1c2.5-0.3,4.9-0.7,7.4-1.1c-1.7,1.5-3.5,2.9-5.3,4.1c-5.7,3.9-12.2,6.8-19.1,8.6
	l0,0c-0.6,0.2-1,0.7-1,1.3c0.1,0.7,0.7,1.2,1.4,1.2c7.4-0.6,14.8-2.5,21.7-5.6c6.9-3.2,13.4-7.6,19-13.1l0.1-0.1
	c0.2-0.2,0.4-0.4,0.5-0.6c7.3-2.3,14.4-5.2,21.1-8.7c2.5,2.8,6.2,4.6,10.3,4.6c7.6,0,13.7-6.2,13.7-13.7S199.6,86.7,192,86.7z"/>
</svg>
