<?xml version="1.0" encoding="utf-8"?>
<!-- Generator: Adobe Illustrator 23.0.1, SVG Export Plug-In . SVG Version: 6.00 Build 0)  -->
<svg version="1.1" xmlns="http://www.w3.org/2000/svg" xmlns:xlink="http://www.w3.org/1999/xlink" x="0px" y="0px"
	 viewBox="0 0 169.2 354.9" style="enable-background:new 0 0 169.2 354.9;" xml:space="preserve">
<style type="text/css">
	.st0{fill:#FFFFFF;}
	.st1{fill:#EDEDED;}
	.st2{fill:#D8D8D8;}
	.st3{fill:#F48B00;}
	.st4{fill:#E27905;}
	.st5{fill:#E58229;}
	.st6{fill:#FCA54F;}
	.st7{fill:#CCCCCC;}
	.st8{display:none;}
	.st9{display:inline;fill:#FFFFFF;}
</style>
<g id="Layer_1">
	<g>
		<polygon class="st0" points="161.6,59 161.6,26.9 150,26.9 150,21.7 141.8,21.7 141.8,4.9 28.2,4.9 28.2,21.7 20,21.7 20,26.9 
			8.3,26.9 8.3,59 0,59 0,71 169.2,71 169.2,59 		"/>
		<ellipse class="st1" cx="84.6" cy="59" rx="84.6" ry="4.9"/>
		<ellipse class="st1" cx="85" cy="26.7" rx="76.6" ry="4.9"/>
		<ellipse class="st0" cx="85" cy="24.3" rx="65" ry="4.9"/>
		<ellipse class="st0" cx="85" cy="56.4" rx="76.6" ry="4.9"/>
		<ellipse class="st1" cx="85" cy="21.7" rx="65" ry="4.9"/>
		<rect x="12.4" y="35.5" class="st2" width="2" height="21.3"/>
		<rect x="18.4" y="35.5" class="st2" width="2" height="21.3"/>
		<rect x="24.4" y="35.5" class="st2" width="2" height="21.3"/>
		<rect x="30.4" y="35.5" class="st2" width="2" height="21.3"/>
		<rect x="36.4" y="35.5" class="st2" width="2" height="21.3"/>
		<rect x="42.4" y="35.5" class="st2" width="2" height="21.3"/>
		<rect x="48.4" y="35.5" class="st2" width="2" height="21.3"/>
		<rect x="54.4" y="35.5" class="st2" width="2" height="21.3"/>
		<rect x="60.4" y="35.5" class="st2" width="2" height="21.3"/>
		<rect x="66.4" y="35.5" class="st2" width="2" height="21.3"/>
		<rect x="72.4" y="35.5" class="st2" width="2" height="21.3"/>
		<rect x="78.4" y="35.5" class="st2" width="2" height="21.3"/>
		<rect x="84.4" y="35.5" class="st2" width="2" height="21.3"/>
		<rect x="90.4" y="35.5" class="st2" width="2" height="21.3"/>
		<rect x="96.4" y="35.5" class="st2" width="2" height="21.3"/>
		<rect x="102.4" y="35.5" class="st2" width="2" height="21.3"/>
		<rect x="108.4" y="35.5" class="st2" width="2" height="21.3"/>
		<rect x="114.4" y="35.5" class="st2" width="2" height="21.3"/>
		<rect x="120.4" y="35.5" class="st2" width="2" height="21.3"/>
		<rect x="126.4" y="35.5" class="st2" width="2" height="21.3"/>
		<rect x="132.4" y="35.5" class="st2" width="2" height="21.3"/>
		<rect x="138.4" y="35.5" class="st2" width="2" height="21.3"/>
		<rect x="144.4" y="35.5" class="st2" width="2" height="21.3"/>
		<rect x="150.4" y="35.5" class="st2" width="2" height="21.3"/>
		<rect x="156.4" y="35.5" class="st2" width="2" height="21.3"/>
		<path class="st3" d="M150,71H20H0v7.5h20v258.3c0,8.6,29.1,15.5,65,15.5c35.9,0,65-7,65-15.5V78.5h19.1V71H150z"/>
		<rect y="71" class="st4" width="169.2" height="7.5"/>
		<ellipse class="st4" cx="84.9" cy="337.2" rx="64.9" ry="17.7"/>
		<ellipse class="st1" cx="85" cy="4.9" rx="56.8" ry="4.9"/>
		<ellipse class="st0" cx="85" cy="19.5" rx="56.8" ry="4.9"/>
		<ellipse class="st4" cx="84.6" cy="78.5" rx="84.6" ry="4.9"/>
		<ellipse class="st0" cx="84.6" cy="71" rx="84.6" ry="4.9"/>
		<path class="st5" d="M66.3,253.5l22.1,38.3c5.3,9.1,2.1,20.8-7,26.1h0c-9.1,5.3-20.8,2.1-26.1-7l-22.1-38.3
			c-5.3-9.1-2.1-20.8,7-26.1l0,0C49.4,241.2,61.1,244.3,66.3,253.5z"/>
		<path class="st5" d="M56.9,206.6l44.1-3.4c10.5-0.8,19.7,7.1,20.5,17.6l0,0c0.8,10.5-7.1,19.7-17.6,20.5l-44.1,3.4
			c-10.5,0.8-19.7-7.1-20.5-17.6l0,0C38.5,216.6,46.4,207.4,56.9,206.6z"/>
		<path class="st5" d="M121.2,264.9l20.4,39.3c4.9,9.4,1.2,20.9-8.2,25.8h0c-9.4,4.9-20.9,1.2-25.8-8.2l-20.4-39.3
			c-4.9-9.4-1.2-20.9,8.2-25.8h0C104.8,251.9,116.3,255.6,121.2,264.9z"/>
		<path class="st5" d="M52.4,139l38.3,22.1c9.1,5.3,12.3,17,7,26.1l0,0c-5.3,9.1-17,12.3-26.1,7l-38.3-22.1c-9.1-5.3-12.3-17-7-26.1
			l0,0C31.6,136.8,43.3,133.7,52.4,139z"/>
		<path class="st5" d="M144.3,116.6l-10.6,42.9c-2.5,10.3-12.9,16.5-23.1,14h0c-10.3-2.5-16.5-12.9-14-23.1l10.6-42.9
			c2.5-10.3,12.9-16.5,23.1-14l0,0C140.5,96,146.8,106.3,144.3,116.6z"/>
		<path class="st6" d="M77.4,340.2L38,320c-9.4-4.8-13.1-16.3-8.3-25.7l0,0c4.8-9.4,16.3-13.1,25.7-8.3l39.4,20.2
			c9.4,4.8,13.1,16.3,8.3,25.7l0,0C98.3,341.3,86.8,345,77.4,340.2z"/>
		<path class="st6" d="M97.4,290.5l8.6-43.4c2.1-10.4,12.1-17.1,22.5-15h0c10.4,2.1,17.1,12.1,15,22.5l-8.6,43.4
			c-2.1,10.4-12.1,17.1-22.5,15h0C102,310.9,95.3,300.8,97.4,290.5z"/>
		<path class="st6" d="M28.9,189.1l18.3-40.3c4.4-9.6,15.7-13.9,25.3-9.5l0,0c9.6,4.4,13.9,15.7,9.5,25.3l-18.3,40.3
			c-4.4,9.6-15.7,13.9-25.3,9.5l0,0C28.7,210,24.5,198.7,28.9,189.1z"/>
		<path class="st6" d="M57.4,269.6l1.9-44.2c0.5-10.5,9.4-18.7,19.9-18.3h0c10.5,0.5,18.7,9.4,18.3,19.9l-1.9,44.2
			c-0.5,10.5-9.4,18.7-19.9,18.3l0,0C65.1,289.1,56.9,280.2,57.4,269.6z"/>
		<path class="st6" d="M130.7,162l11.1,42.8c2.6,10.2-3.5,20.7-13.7,23.3h0c-10.2,2.6-20.7-3.5-23.3-13.7l-11.1-42.8
			c-2.6-10.2,3.5-20.7,13.7-23.3h0C117.7,145.6,128.1,151.8,130.7,162z"/>
		<path class="st6" d="M67.8,91.2l42.1,13.6c10,3.2,15.6,14,12.3,24.1l0,0c-3.2,10-14,15.6-24.1,12.3l-42.1-13.6
			c-10-3.2-15.6-14-12.3-24.1l0,0C47,93.4,57.8,87.9,67.8,91.2z"/>
		<path class="st0" d="M150,234.4V122.2c-1.1,3.3-29.8,6-65.1,6c-34.1,0-62-2.5-64.9-5.7V235c0,3.4,29.2,6.2,65.2,6.2
			c36,0,65.2-2.8,65.2-6.2C150.4,234.8,150.2,234.6,150,234.4z"/>
		<g>
			<g>
				<path d="M35.7,194.9c-1-0.1-1.6-0.1-2.6-0.2c0.3-4,0.4-6,0.7-10c-1.3-0.1-2-0.1-3.3-0.3c0.1-0.9,0.1-1.3,0.2-2.1
					c3.7,0.3,5.5,0.4,9.2,0.7c-0.1,0.9-0.1,1.3-0.1,2.1c-1.3-0.1-2-0.1-3.3-0.2C36.1,188.9,36,190.9,35.7,194.9z"/>
				<path d="M46.8,195.6c-0.2-0.5-0.3-0.8-0.4-1.3c0,0,0,0-0.1,0c-0.5,0.5-0.9,0.9-1.4,1c-0.5,0.2-1.1,0.3-1.8,0.2
					c-0.9-0.1-1.6-0.4-2.1-0.9c-0.5-0.5-0.7-1.3-0.6-2.2c0.1-1,0.5-1.7,1.2-2.1c0.7-0.4,1.8-0.6,3.2-0.6c0.7,0,1,0,1.6,0
					c0-0.2,0-0.2,0-0.4c0.1-0.9-0.4-1.4-1.4-1.5c-0.7,0-1.6,0.1-2.7,0.5c-0.3-0.7-0.4-1.1-0.7-1.8c1.1-0.5,2.3-0.7,3.6-0.6
					c1.3,0.1,2.2,0.4,2.8,1c0.6,0.6,0.9,1.4,0.9,2.5c-0.1,2.5-0.2,3.7-0.3,6.2C47.8,195.7,47.5,195.6,46.8,195.6z M46.2,191.3
					c-0.4,0-0.6,0-1,0c-0.7,0-1.3,0.1-1.7,0.3c-0.4,0.2-0.6,0.6-0.6,1.1c0,0.7,0.4,1.1,1.2,1.1c0.6,0,1.1-0.1,1.5-0.4
					c0.4-0.3,0.6-0.8,0.6-1.3C46.2,191.7,46.2,191.6,46.2,191.3z"/>
				<path d="M53.9,190.9c0.5-0.5,0.7-0.8,1.2-1.4c1.1-1.1,1.6-1.6,2.7-2.7c1.1,0,1.7,0.1,2.9,0.1c-1.5,1.6-2.3,2.3-3.9,3.9
					c1.5,2.2,2.2,3.2,3.8,5.4c-1.2,0-1.8-0.1-3-0.1c-1-1.5-1.5-2.3-2.6-3.9c-0.5,0.3-0.7,0.5-1.1,0.8c-0.1,1.2-0.1,1.7-0.1,2.9
					c-1,0-1.5-0.1-2.6-0.1c0.2-5.2,0.4-7.7,0.6-12.9c1,0,1.5,0.1,2.5,0.1c-0.1,2.3-0.2,3.5-0.3,5.8C54,189.6,54,190.1,53.9,190.9
					C53.9,190.9,53.9,190.9,53.9,190.9z"/>
				<path d="M66.2,196.6c-1.5,0-2.7-0.5-3.5-1.3c-0.8-0.9-1.2-2-1.2-3.5c0.1-1.6,0.5-2.7,1.3-3.6c0.8-0.8,1.9-1.2,3.3-1.2
					c1.3,0,2.3,0.4,3.1,1.2c0.7,0.8,1.1,1.8,1,3.1c0,0.5,0,0.7,0,1.2c-2.4-0.1-3.6-0.1-6.1-0.2c0,0.7,0.2,1.3,0.6,1.7
					c0.4,0.4,1,0.6,1.7,0.7c0.6,0,1.1,0,1.6-0.1c0.5-0.1,1-0.3,1.6-0.5c0,0.8,0,1.2,0,2c-0.5,0.2-0.9,0.4-1.5,0.5
					C67.6,196.5,67,196.6,66.2,196.6z M66.1,188.7c-0.5,0-1,0.1-1.3,0.5c-0.3,0.3-0.5,0.8-0.6,1.4c1.4,0,2.2,0.1,3.6,0.1
					c0-0.6-0.1-1.1-0.5-1.5C67,188.9,66.6,188.8,66.1,188.7z"/>
				<path d="M82.5,196.7c-1,0-1.6,0-2.6,0c0-2.8,0-4.2,0.1-7c0-0.5,0-0.7,0-1.2c0-0.5,0-0.8,0.1-1.3c-0.4,0.4-0.7,0.7-0.9,0.8
					c-0.6,0.4-0.8,0.7-1.4,1.1c-0.5-0.6-0.7-0.9-1.2-1.6c1.6-1.2,2.4-1.8,4-3.1c0.8,0,1.3,0,2.1,0C82.5,189.4,82.5,191.8,82.5,196.7
					z"/>
				<path d="M95,194.7c0.4,0,1-0.1,1.6-0.3c0,0.8,0,1.1,0,1.9c-0.6,0.3-1.4,0.4-2.4,0.5c-1,0-1.8-0.2-2.3-0.7
					c-0.5-0.5-0.7-1.3-0.7-2.3c0-1.8,0-2.7,0-4.5c-0.5,0-0.7,0-1.2,0c0-0.4,0-0.6,0-1.1c0.6-0.3,0.8-0.5,1.4-0.9
					c0.3-0.8,0.4-1.2,0.7-2c0.6,0,1,0,1.6,0c0,0.8,0,1.2,0,2c1,0,1.6,0,2.6,0c0,0.8,0,1.1,0,1.9c-1,0-1.6,0-2.6,0
					c0,1.8,0,2.7,0.1,4.5c0,0.4,0.1,0.6,0.3,0.8C94.4,194.7,94.7,194.7,95,194.7z"/>
				<path d="M104.6,196.4c-0.2-0.5-0.3-0.7-0.5-1.2c0,0,0,0-0.1,0c-0.4,0.5-0.9,0.9-1.3,1.1c-0.5,0.2-1.1,0.3-1.8,0.4
					c-0.9,0-1.6-0.2-2.2-0.7c-0.5-0.5-0.8-1.2-0.8-2.2c0-1,0.3-1.7,1-2.2c0.7-0.5,1.7-0.8,3.1-0.8c0.7,0,1-0.1,1.6-0.1
					c0-0.2,0-0.2,0-0.4c0-0.9-0.5-1.4-1.5-1.4c-0.7,0-1.6,0.3-2.6,0.7c-0.4-0.7-0.5-1-0.9-1.7c1.1-0.6,2.2-0.9,3.6-0.9
					c1.3,0,2.2,0.2,2.9,0.7c0.7,0.5,1,1.3,1.1,2.4c0.1,2.5,0.1,3.7,0.2,6.2C105.7,196.4,105.3,196.4,104.6,196.4z M103.7,192.1
					c-0.4,0-0.6,0-1,0.1c-0.7,0-1.3,0.2-1.7,0.4c-0.4,0.3-0.5,0.6-0.5,1.1c0,0.7,0.4,1.1,1.3,1c0.6,0,1.1-0.2,1.4-0.5
					c0.3-0.3,0.5-0.8,0.5-1.4C103.7,192.6,103.7,192.4,103.7,192.1z"/>
				<path d="M113.9,186.6c1.1,0,2,0.3,2.6,1.2c0.7,0.8,1,2,1.1,3.5c0.1,1.5-0.2,2.7-0.8,3.6c-0.6,0.9-1.5,1.3-2.6,1.4
					c-1.1,0-2-0.3-2.7-1.1c-0.1,0-0.1,0-0.2,0c-0.2,0.4-0.2,0.6-0.4,1c-0.8,0-1.2,0-2,0.1c-0.2-5.2-0.3-7.7-0.4-12.9
					c1,0,1.5-0.1,2.5-0.1c0,1.2,0.1,1.8,0.1,3c0,0.4,0,1,0,1.8c0,0,0.1,0,0.1,0C111.9,187.2,112.8,186.7,113.9,186.6z M113.2,188.7
					c-0.6,0-1.1,0.2-1.4,0.6c-0.3,0.4-0.4,1-0.4,1.9c0,0.1,0,0.2,0,0.3c0,1,0.2,1.7,0.5,2.1c0.3,0.4,0.8,0.6,1.5,0.6
					c0.5,0,0.9-0.3,1.2-0.8c0.3-0.5,0.4-1.2,0.4-2.1c0-0.9-0.2-1.6-0.6-2C114.2,188.9,113.7,188.7,113.2,188.7z"/>
				<path d="M122.6,195.7c-1,0.1-1.5,0.1-2.6,0.1c-0.3-5.2-0.4-7.7-0.6-12.9c1,0,1.5-0.1,2.5-0.1
					C122.2,187.9,122.3,190.5,122.6,195.7z"/>
				<path d="M129.6,195.4c-1.5,0.1-2.7-0.2-3.6-1c-0.9-0.8-1.4-1.9-1.5-3.4c-0.1-1.6,0.2-2.8,1-3.7c0.7-0.9,1.8-1.4,3.2-1.5
					c1.3-0.1,2.4,0.2,3.2,0.9c0.8,0.7,1.2,1.7,1.3,3c0,0.5,0,0.7,0.1,1.2c-2.4,0.2-3.6,0.2-6.1,0.4c0.1,0.7,0.3,1.3,0.7,1.6
					c0.4,0.4,1,0.5,1.7,0.5c0.6,0,1.1-0.1,1.6-0.3s1-0.4,1.5-0.7c0.1,0.8,0.1,1.2,0.1,2c-0.4,0.3-0.9,0.4-1.4,0.6
					C131,195.3,130.3,195.4,129.6,195.4z M128.7,187.7c-0.5,0-1,0.2-1.2,0.6c-0.3,0.4-0.4,0.9-0.4,1.5c1.4-0.1,2.2-0.1,3.6-0.2
					c-0.1-0.6-0.2-1.1-0.6-1.4C129.7,187.8,129.3,187.6,128.7,187.7z"/>
				<path d="M139.4,192.7c0.4,0,1-0.2,1.6-0.4c0.1,0.8,0.1,1.1,0.1,1.9c-0.6,0.3-1.4,0.5-2.3,0.6c-1,0.1-1.8-0.1-2.3-0.6
					c-0.5-0.5-0.8-1.2-0.9-2.2c-0.1-1.8-0.2-2.7-0.3-4.5c-0.5,0-0.7,0.1-1.2,0.1c0-0.4,0-0.6-0.1-1.1c0.5-0.4,0.8-0.6,1.3-0.9
					c0.2-0.8,0.4-1.2,0.6-2c0.6,0,1-0.1,1.6-0.1c0.1,0.8,0.1,1.2,0.1,2c1-0.1,1.6-0.1,2.6-0.2c0.1,0.8,0.1,1.1,0.1,1.9
					c-1,0.1-1.6,0.1-2.6,0.2c0.1,1.8,0.2,2.7,0.3,4.5c0,0.4,0.1,0.6,0.4,0.8C138.8,192.7,139,192.8,139.4,192.7z"/>
				<path d="M38.3,210.9c-0.1,1.5-0.6,2.7-1.5,3.5c-0.9,0.8-2.1,1.1-3.6,1c-0.9-0.1-1.7-0.3-2.4-0.8c-0.7-0.4-1.2-1-1.5-1.8
					s-0.4-1.6-0.4-2.6c0.1-1.5,0.6-2.7,1.5-3.4c0.9-0.8,2.1-1.1,3.5-1c0.9,0.1,1.7,0.3,2.4,0.7c0.7,0.4,1.2,1,1.5,1.8
					C38.2,209,38.4,209.9,38.3,210.9z M31.6,210.4c-0.1,0.9,0,1.6,0.3,2.1c0.3,0.5,0.8,0.8,1.5,0.8c0.7,0.1,1.2-0.1,1.6-0.6
					c0.3-0.4,0.5-1.1,0.6-2c0.1-0.9,0-1.6-0.3-2.1c-0.3-0.5-0.8-0.7-1.5-0.8c-0.7-0.1-1.2,0.1-1.6,0.6
					C31.9,208.8,31.7,209.5,31.6,210.4z"/>
				<path d="M46.1,206.5c0.4,0,0.6,0.1,0.9,0.1c-0.1,0.9-0.2,1.4-0.3,2.4c-0.2-0.1-0.5-0.1-0.8-0.1c-0.8,0-1.5,0.1-2,0.5
					c-0.5,0.4-0.8,1-0.8,1.7c-0.1,1.9-0.2,2.8-0.3,4.7c-1.1-0.1-1.6-0.1-2.7-0.2c0.2-3.7,0.3-5.6,0.6-9.3c0.8,0,1.2,0.1,2,0.1
					c0.1,0.6,0.2,0.9,0.3,1.6c0.1,0,0.1,0,0.1,0c0.3-0.5,0.8-0.9,1.3-1.2C45,206.6,45.5,206.5,46.1,206.5z"/>
				<path d="M54.4,216.4c-0.2-0.5-0.3-0.8-0.5-1.3c0,0,0,0-0.1,0c-0.5,0.5-0.9,0.9-1.4,1.1c-0.5,0.2-1.1,0.3-1.9,0.2
					c-0.9,0-1.7-0.3-2.2-0.9c-0.5-0.5-0.7-1.3-0.7-2.2c0.1-1,0.4-1.7,1.2-2.1c0.7-0.4,1.8-0.6,3.3-0.6c0.7,0,1,0,1.7,0
					c0-0.2,0-0.2,0-0.4c0-0.9-0.4-1.4-1.4-1.5c-0.8,0-1.7,0.1-2.7,0.5c-0.3-0.7-0.5-1.1-0.8-1.8c1.1-0.5,2.4-0.7,3.7-0.7
					c1.3,0.1,2.3,0.4,2.9,0.9c0.7,0.6,1,1.4,0.9,2.5c-0.1,2.5-0.1,3.7-0.2,6.2C55.6,216.4,55.2,216.4,54.4,216.4z M53.9,212.1
					c-0.4,0-0.6,0-1,0c-0.8,0-1.3,0.1-1.7,0.3c-0.4,0.2-0.6,0.6-0.6,1.1c0,0.7,0.4,1.1,1.2,1.1c0.6,0,1.1-0.1,1.5-0.4
					c0.4-0.3,0.6-0.8,0.6-1.3C53.8,212.5,53.8,212.4,53.9,212.1z"/>
				<path d="M61.7,216.7c-1.1,0-1.6-0.1-2.7-0.1c0.2-5.2,0.3-7.7,0.5-12.9c1,0,1.6,0.1,2.6,0.1C61.9,208.9,61.9,211.5,61.7,216.7z"
					/>
				<path d="M67.1,216.8c-1.1,0-1.6,0-2.7-0.1c0.1-5.2,0.2-7.7,0.4-12.9c1,0,1.6,0,2.6,0.1C67.3,209.1,67.3,211.7,67.1,216.8z"/>
				<path d="M68.7,207.6c1.1,0,1.7,0,2.9,0.1c0.7,2.1,1,3.2,1.7,5.3c0.1,0.5,0.2,1,0.3,1.6c0,0,0,0,0.1,0c0.1-0.6,0.2-1.1,0.4-1.6
					c0.7-2.1,1.1-3.1,1.9-5.2c1.1,0,1.7,0,2.8,0c-1.7,4.2-2.5,6.3-4.2,10.4c-0.4,1-0.9,1.7-1.7,2.1c-0.7,0.5-1.5,0.7-2.5,0.7
					c-0.5,0-0.9-0.1-1.4-0.2c0-0.8,0-1.2,0-2c0.3,0.1,0.7,0.1,1,0.1c0.5,0,0.9-0.1,1.2-0.4c0.4-0.3,0.6-0.7,0.8-1.2
					c0.1-0.2,0.1-0.3,0.2-0.5C70.9,213.2,70.2,211.3,68.7,207.6z"/>
				<path d="M89.1,217.2c-1.6,0-2.8-0.4-3.7-1.2c-0.9-0.8-1.3-2-1.3-3.5c0-1.6,0.4-2.8,1.2-3.6c0.8-0.8,1.9-1.3,3.3-1.3
					c1.4,0,2.4,0.4,3.2,1.1c0.8,0.7,1.2,1.8,1.2,3.1c0,0.5,0,0.7,0,1.2c-2.5,0-3.7,0-6.2,0c0,0.7,0.3,1.3,0.7,1.7
					c0.4,0.4,1,0.6,1.8,0.6c0.6,0,1.1-0.1,1.7-0.2s1.1-0.3,1.6-0.6c0,0.8,0,1.2,0,2c-0.5,0.2-1,0.4-1.5,0.5
					C90.5,217.2,89.8,217.2,89.1,217.2z M88.7,209.4c-0.6,0-1,0.2-1.3,0.5s-0.5,0.8-0.5,1.4c1.5,0,2.2,0,3.7,0
					c0-0.6-0.2-1.1-0.5-1.4C89.7,209.6,89.2,209.4,88.7,209.4z"/>
				<path d="M97.5,217c-1.5-3.7-2.3-5.5-3.8-9.2c1.1,0,1.6,0,2.7,0c0.8,2.1,1.2,3.2,2,5.3c0.2,0.7,0.4,1.3,0.4,1.9c0,0,0,0,0.1,0
					c0-0.5,0.1-1.2,0.4-1.9c0.7-2.1,1.1-3.2,1.7-5.3c1.1,0,1.6,0,2.7-0.1c-1.4,3.7-2.1,5.6-3.5,9.4C99.2,216.9,98.6,216.9,97.5,217z
					"/>
				<path d="M109.8,216.8c-1.6,0.1-2.8-0.3-3.7-1.1c-0.9-0.8-1.4-2-1.4-3.5c0-1.6,0.3-2.8,1.1-3.6c0.8-0.9,1.9-1.3,3.3-1.4
					c1.4,0,2.4,0.3,3.2,1c0.8,0.7,1.2,1.7,1.3,3.1c0,0.5,0,0.7,0,1.2c-2.5,0.1-3.7,0.1-6.2,0.2c0.1,0.7,0.3,1.3,0.7,1.7
					c0.4,0.4,1,0.6,1.8,0.5c0.6,0,1.1-0.1,1.7-0.2c0.5-0.1,1.1-0.3,1.6-0.6c0,0.8,0,1.2,0.1,2c-0.5,0.2-0.9,0.4-1.5,0.5
					C111.2,216.7,110.5,216.8,109.8,216.8z M109.1,209c-0.6,0-1,0.2-1.3,0.6s-0.5,0.8-0.5,1.5c1.5,0,2.2-0.1,3.7-0.1
					c0-0.6-0.2-1.1-0.6-1.4C110.1,209.2,109.7,209,109.1,209z"/>
				<path d="M120.8,206.7c0.4,0,0.7,0,0.9,0c0,1,0,1.4-0.1,2.4c-0.2,0-0.5-0.1-0.8,0c-0.8,0-1.5,0.3-1.9,0.7c-0.4,0.4-0.7,1-0.6,1.8
					c0.1,1.9,0.1,2.8,0.2,4.7c-1.1,0-1.6,0.1-2.7,0.1c-0.2-3.7-0.2-5.6-0.4-9.3c0.8,0,1.2-0.1,2-0.1c0.2,0.6,0.3,0.9,0.5,1.5
					c0.1,0,0.1,0,0.1,0c0.3-0.5,0.7-1,1.1-1.3C119.7,206.9,120.2,206.8,120.8,206.7z"/>
				<path d="M122.1,206.8c1.1-0.1,1.7-0.1,2.9-0.2c0.8,2,1.3,3.1,2.1,5.1c0.2,0.4,0.3,1,0.4,1.6c0,0,0,0,0.1,0
					c0-0.6,0.1-1.1,0.3-1.6c0.6-2.1,0.9-3.2,1.5-5.3c1.1-0.1,1.7-0.1,2.8-0.2c-1.4,4.3-2,6.4-3.4,10.7c-0.3,1-0.8,1.7-1.5,2.3
					c-0.7,0.5-1.5,0.8-2.4,0.9c-0.5,0-0.9,0-1.4-0.1c0-0.8-0.1-1.2-0.1-2c0.3,0.1,0.7,0.1,1.1,0.1c0.5,0,0.9-0.2,1.2-0.5
					c0.3-0.3,0.6-0.7,0.8-1.3c0.1-0.2,0.1-0.3,0.1-0.5C124.7,212.2,123.8,210.4,122.1,206.8z"/>
				<path d="M33.7,235.7c-1.1-0.1-1.7-0.1-2.8-0.2c0.2-2.8,0.3-4.2,0.5-7c0-0.5,0.1-0.7,0.1-1.1c0.1-0.5,0.1-0.8,0.1-1.3
					c-0.5,0.4-0.8,0.6-1,0.8c-0.6,0.4-0.9,0.6-1.6,1c-0.5-0.7-0.7-1-1.2-1.6c1.8-1.1,2.6-1.7,4.4-2.8c0.9,0.1,1.3,0.1,2.2,0.2
					C34.2,228.4,34.1,230.8,33.7,235.7z"/>
				<path d="M46.5,236.4c-3.7-0.2-5.5-0.3-9.1-0.5c0-0.7,0.1-1.1,0.1-1.8c1.4-1.1,2.1-1.7,3.5-2.9c1-0.9,1.7-1.5,2-1.8
					c0.3-0.3,0.5-0.7,0.7-1c0.1-0.3,0.2-0.6,0.2-0.9c0-0.5-0.1-0.9-0.4-1.1c-0.3-0.3-0.6-0.4-1.1-0.4c-0.5,0-1,0.1-1.5,0.2
					c-0.5,0.2-1,0.5-1.5,0.8c-0.6-0.7-0.8-1-1.4-1.7c0.7-0.5,1.2-0.8,1.6-1c0.4-0.2,0.9-0.3,1.4-0.4c0.5-0.1,1.1-0.1,1.7-0.1
					c0.8,0,1.5,0.2,2.1,0.5c0.6,0.3,1.1,0.7,1.4,1.2c0.3,0.5,0.5,1.1,0.4,1.7c0,0.6-0.2,1.1-0.4,1.6c-0.2,0.5-0.6,1-1.1,1.5
					c-0.5,0.5-1.3,1.2-2.5,2.1c-0.7,0.5-1.1,0.8-1.8,1.4c0,0,0,0.1,0,0.1c2.3,0.1,3.4,0.2,5.7,0.3C46.5,235.2,46.5,235.6,46.5,236.4
					z"/>
				<path d="M62.5,237.1c-1.1,0-1.6-0.1-2.7-0.1c0.1-2.2,0.1-3.3,0.2-5.4c0-1.3-0.5-2-1.5-2.1c-0.8,0-1.3,0.2-1.7,0.7
					c-0.4,0.5-0.6,1.2-0.6,2.3c-0.1,1.7-0.1,2.6-0.2,4.4c-1.1,0-1.6-0.1-2.7-0.1c0.2-5.2,0.3-7.7,0.6-12.9c1.1,0,1.6,0.1,2.7,0.1
					c0,1.1-0.1,1.6-0.1,2.6c0,0.2,0,0.7-0.1,1.4c0,0.3-0.1,0.4-0.1,0.7c0.1,0,0.1,0,0.1,0c0.6-0.9,1.6-1.3,2.9-1.3
					c1.2,0,2,0.4,2.6,1c0.6,0.6,0.9,1.5,0.8,2.6C62.6,233.5,62.5,234.7,62.5,237.1z"/>
				<path d="M71,227.9c0.4,0,0.7,0,0.9,0.1c-0.1,0.9-0.1,1.4-0.2,2.4c-0.2-0.1-0.5-0.1-0.8-0.1c-0.9,0-1.5,0.2-2,0.6
					c-0.5,0.4-0.7,1-0.8,1.7c0,1.9-0.1,2.8-0.1,4.7c-1.1,0-1.6,0-2.7-0.1c0.1-3.7,0.1-5.6,0.2-9.3c0.8,0,1.2,0,2,0.1
					c0.1,0.6,0.2,0.9,0.4,1.6c0.1,0,0.1,0,0.1,0c0.3-0.5,0.7-0.9,1.3-1.2C69.9,228,70.4,227.8,71,227.9z"/>
				<path d="M80.6,234.7c0,1-0.4,1.7-1.1,2.2c-0.7,0.5-1.8,0.7-3.2,0.7c-0.7,0-1.3-0.1-1.9-0.2c-0.5-0.1-1-0.2-1.4-0.4
					c0-0.8,0-1.3,0-2.1c0.5,0.2,1.1,0.4,1.7,0.6c0.6,0.2,1.2,0.2,1.7,0.2c1,0,1.5-0.2,1.5-0.8c0-0.2-0.1-0.4-0.2-0.5
					c-0.1-0.1-0.4-0.3-0.7-0.4c-0.3-0.2-0.7-0.4-1.3-0.6c-0.8-0.3-1.3-0.6-1.7-0.9c-0.4-0.3-0.6-0.6-0.8-0.9
					c-0.2-0.3-0.2-0.7-0.2-1.2c0-0.8,0.4-1.5,1.1-1.9c0.7-0.4,1.7-0.7,2.9-0.6c1.2,0,2.3,0.3,3.5,0.8c-0.3,0.7-0.5,1.1-0.8,1.8
					c-0.5-0.2-1-0.4-1.4-0.5c-0.4-0.1-0.9-0.2-1.3-0.2c-0.8,0-1.2,0.2-1.2,0.6c0,0.2,0.1,0.4,0.4,0.6c0.3,0.2,0.8,0.4,1.7,0.8
					c0.8,0.3,1.3,0.6,1.7,0.8c0.4,0.3,0.6,0.6,0.8,0.9C80.5,233.8,80.6,234.2,80.6,234.7z"/>
			</g>
		</g>
		<g>
			<g>
				<path d="M40.8,146.8c-2.9-0.2-4.4-0.4-7.3-0.7c0.5-4.8,0.8-7.2,1.3-12.1c2.8,0.3,4.2,0.4,7,0.7c-0.1,0.8-0.1,1.3-0.2,2.1
					c-1.8-0.1-2.7-0.2-4.4-0.4c-0.1,1.1-0.2,1.6-0.3,2.7c1.7,0.2,2.5,0.2,4.2,0.4c-0.1,0.8-0.1,1.3-0.2,2.1
					c-1.7-0.1-2.5-0.2-4.2-0.4c-0.1,1.2-0.2,1.9-0.3,3.1c1.8,0.2,2.7,0.3,4.6,0.4C40.9,145.5,40.9,145.9,40.8,146.8z"/>
				<path d="M45.9,147.2c-1.1-0.1-1.6-0.1-2.6-0.2c0.4-5.2,0.6-7.7,1-12.9c1,0.1,1.5,0.1,2.5,0.2C46.4,139.4,46.2,142,45.9,147.2z"
					/>
				<path d="M54.8,147.6c-0.2-0.5-0.3-0.8-0.5-1.3c0,0,0,0-0.1,0c-0.5,0.5-0.9,0.9-1.4,1.1c-0.5,0.2-1.1,0.3-1.9,0.2
					c-0.9,0-1.6-0.3-2.1-0.9c-0.5-0.5-0.7-1.3-0.7-2.2c0.1-1,0.5-1.7,1.2-2.1c0.7-0.4,1.8-0.6,3.2-0.6c0.7,0,1,0,1.6,0
					c0-0.2,0-0.2,0-0.4c0-0.9-0.4-1.4-1.4-1.5c-0.8,0-1.7,0.1-2.7,0.5c-0.3-0.7-0.5-1.1-0.8-1.8c1.1-0.5,2.3-0.7,3.6-0.7
					c1.3,0.1,2.2,0.4,2.9,0.9c0.7,0.6,1,1.4,0.9,2.5c-0.1,2.5-0.1,3.7-0.2,6.2C55.9,147.7,55.5,147.7,54.8,147.6z M54.2,143.3
					c-0.4,0-0.6,0-1,0c-0.8,0-1.3,0.1-1.7,0.3c-0.4,0.2-0.6,0.6-0.6,1.1c0,0.7,0.4,1.1,1.2,1.1c0.6,0,1.1-0.1,1.5-0.4
					c0.4-0.3,0.6-0.8,0.6-1.3C54.2,143.8,54.2,143.6,54.2,143.3z"/>
				<path d="M59.5,136.1c0-0.8,0.5-1.2,1.4-1.2c0.9,0,1.4,0.4,1.4,1.3c0,0.4-0.1,0.7-0.4,0.9c-0.2,0.2-0.6,0.3-1,0.3
					C60,137.4,59.5,136.9,59.5,136.1z M62,147.8c-1.1,0-1.6,0-2.6-0.1c0.1-3.7,0.1-5.6,0.2-9.3c1,0,1.5,0,2.6,0.1
					C62.1,142.3,62,144.1,62,147.8z"/>
				<path d="M73.7,147.8c-1.1,0-1.6,0-2.6,0c0-2.2,0-3.3-0.1-5.4c0-0.7-0.1-1.2-0.4-1.5c-0.2-0.3-0.6-0.5-1.2-0.5
					c-0.7,0-1.2,0.2-1.6,0.7c-0.3,0.5-0.5,1.3-0.5,2.4c0,1.7,0,2.6,0,4.4c-1.1,0-1.6,0-2.6,0c0-3.7,0-5.6,0.1-9.3c0.8,0,1.2,0,2,0
					c0.1,0.5,0.2,0.7,0.3,1.2c0.1,0,0.1,0,0.1,0c0.3-0.4,0.7-0.8,1.2-1c0.5-0.2,1.1-0.3,1.7-0.4c1.1,0,1.9,0.3,2.5,0.8
					c0.6,0.6,0.9,1.4,0.9,2.5C73.6,144.2,73.6,145.4,73.7,147.8z"/>
				<path d="M80.8,147.8c-1.6,0.1-2.8-0.3-3.7-1.1c-0.9-0.8-1.4-2-1.4-3.5c0-1.6,0.3-2.8,1.1-3.6c0.8-0.9,1.8-1.3,3.2-1.4
					c1.3-0.1,2.4,0.3,3.2,1c0.8,0.7,1.2,1.7,1.3,3c0,0.5,0,0.7,0.1,1.2c-2.5,0.1-3.7,0.2-6.2,0.3c0.1,0.7,0.3,1.3,0.7,1.7
					s1,0.6,1.8,0.5c0.6,0,1.1-0.1,1.6-0.2s1-0.4,1.6-0.6c0,0.8,0.1,1.2,0.1,2c-0.4,0.2-0.9,0.4-1.5,0.6
					C82.2,147.7,81.5,147.7,80.8,147.8z M80.1,140c-0.5,0-1,0.2-1.3,0.6c-0.3,0.4-0.5,0.8-0.5,1.5c1.5,0,2.2-0.1,3.6-0.1
					c0-0.6-0.2-1.1-0.6-1.4C81.1,140.1,80.6,140,80.1,140z"/>
			</g>
		</g>
		<path class="st7" d="M150,150.2c-2.2,1.4-30.4,2.6-64.9,2.6c-35.9,0-65-1.2-65-2.8H20v24.2h0.5c-0.3,0.1-0.5,0.2-0.5,0.3
			c0,1.5,29.1,2.8,65,2.8c35.9,0,65-1.2,65-2.8c0-0.1-0.2-0.2-0.5-0.3h0.5V150.2z"/>
	</g>
</g>
<g id="Layer_2" class="st8">
	<path class="st9" d="M62.9,187.2h44.2c10.6,0,19.1,8.6,19.1,19.1v0c0,10.6-8.6,19.1-19.1,19.1H62.9c-10.6,0-19.1-8.6-19.1-19.1v0
		C43.8,195.7,52.3,187.2,62.9,187.2z"/>
</g>
</svg>
