<?xml version="1.0" encoding="utf-8"?>
<!-- Generator: Adobe Illustrator 23.0.1, SVG Export Plug-In . SVG Version: 6.00 Build 0)  -->
<svg version="1.1" xmlns="http://www.w3.org/2000/svg" xmlns:xlink="http://www.w3.org/1999/xlink" x="0px" y="0px"
	 viewBox="0 0 111.7 91.8" style="enable-background:new 0 0 111.7 91.8;" xml:space="preserve">
<style type="text/css">
	.st0{fill:#CCCECE;}
	.st1{fill:#FFFFFF;stroke:#D8D8D8;stroke-width:5;stroke-miterlimit:10;}
	.st2{fill:#D8D8D8;}
	.st3{display:none;}
	.st4{display:inline;}
	.st5{fill:#E0B168;}
	.st6{fill:#FFC866;}
	.st7{fill:#DA6CE0;}
	.st8{fill:#FF5FFF;}
	.st9{fill:#83BFDD;}
	.st10{fill:#91CDF2;}
	.st11{fill:#A1D6D1;}
	.st12{fill:#B2EDEA;}
	.st13{fill:#E5CF4A;}
	.st14{fill:#FFEC40;}
	.st15{fill:#E5E5E5;}
	.st16{fill:#FFFFFF;}
</style>
<g id="Layer_8">
	<g>
		<path class="st0" d="M94.3,34.2c9.6,32.6-6.7,50.4-30.6,56.5c-23.6,6-55.2-14.2-55.2-41.6"/>
		<circle class="st1" cx="51.6" cy="43.6" r="41.1"/>
		<rect x="48.6" y="10.6" class="st2" width="6" height="65.9"/>
	</g>
</g>
<g id="Layer_7" class="st3">
	<g class="st4">
		<path class="st5" d="M101,45.3c0,23.3-18.3,29.3-44,29.3c-26.2,0-47.1-6.1-47.1-29.3"/>
		<ellipse class="st6" cx="55.4" cy="45.3" rx="45.6" ry="23.3"/>
		<rect x="52.1" y="24.7" class="st5" width="6.7" height="41.2"/>
	</g>
</g>
<g id="Layer_6" class="st3">
	<g class="st4">
		<circle class="st7" cx="56.4" cy="48.9" r="24.4"/>
		<circle class="st8" cx="55.3" cy="46.5" r="24.4"/>
	</g>
</g>
<g id="Layer_5" class="st3">
	<g class="st4">
		<path class="st9" d="M87.4,32.1c11.2,27.5-7,50.2-25.5,54.3C41.4,91,19.1,80.6,14.2,52"/>
		<circle class="st10" cx="51" cy="42.7" r="37.9"/>
	</g>
</g>
<g id="Layer_4" class="st3">
	<g class="st4">
		<path class="st11" d="M110,58.2c-2,10.5-22,23.4-53.9,23.4S2.2,66.9,2.2,58.2c0-5.2,0-13.5,0-18.7c35.9,0,71.8,0,107.7,0
			C110,44.7,110,53,110,58.2z"/>
		<ellipse class="st12" cx="56.1" cy="39.5" rx="53.9" ry="24.4"/>
		<rect x="52.5" y="17.6" class="st11" width="7.3" height="43"/>
	</g>
</g>
<g id="Layer_3" class="st3">
	<g class="st4">
		<circle class="st13" cx="56.4" cy="49.5" r="19.1"/>
		<circle class="st14" cx="55.4" cy="47.7" r="19.1"/>
	</g>
</g>
<g id="Layer_2" class="st3">
	<g class="st4">
		<path class="st15" d="M111.7,53.8L111.7,53.8c0,12.9-10.4,23.3-23.3,23.3H23.3C10.4,77.1,0,66.7,0,53.8c0,0,0,0,0,0
			c0-3.8,0-7.6,0-11.4c37.2,0,74.5,0,111.7,0"/>
		<path class="st16" d="M88.4,65.7H23.3C10.4,65.7,0,55.3,0,42.4v0c0-12.9,10.4-23.3,23.3-23.3h65.1c12.9,0,23.3,10.4,23.3,23.3v0
			C111.7,55.3,101.3,65.7,88.4,65.7z"/>
	</g>
</g>
</svg>
