<?xml version="1.0" encoding="utf-8"?>
<!-- Generator: Adobe Illustrator 23.0.1, SVG Export Plug-In . SVG Version: 6.00 Build 0)  -->
<svg version="1.1" xmlns="http://www.w3.org/2000/svg" xmlns:xlink="http://www.w3.org/1999/xlink" x="0px" y="0px"
	 viewBox="0 0 40.6 60.1" style="enable-background:new 0 0 40.6 60.1;" xml:space="preserve">
<style type="text/css">
	.st0{display:none;}
	.st1{display:inline;fill:#4E4ECE;}
	.st2{display:inline;}
	.st3{fill:none;}
	.st4{fill:#653984;}
	.st5{fill:#331F3D;}
	.st6{fill:#39AA67;}
	.st7{fill:#39915D;}
	.st8{fill:#EECD86;}
	.st9{fill:#DDB973;}
	.st10{display:inline;fill:#331F3D;}
</style>
<g id="Layer_2" class="st0">
	<path class="st1" d="M129.3,372.2h-252.9c-60.3,0-109.2-48.9-109.2-109.2v-402.2c0-60.3,48.9-109.2,109.2-109.2h252.9
		c60.3,0,109.2,48.9,109.2,109.2V263C238.5,323.3,189.6,372.2,129.3,372.2z"/>
	<g class="st2">
		<path class="st3" d="M85.8,246l-29.2-97.2L48.1-7.4l13.7-110.2l34.6-65.6l57.7-27.4l46.8-11.1c-19.2-16.7-44.3-26.8-71.7-26.8
			h-252.9c-31.2,0-59.4,13.1-79.3,34.2l60.7,12.3l48.7,38.5l51.9,89.3l6,43.1L-63.6-6l-1.6,24.4l5.5,16.1l33.7,12.6l-2,59.9
			l-14.2,122.1l-94.2,112.1l-37.5,18.7c15.1,7.8,32.2,12.3,50.3,12.3h252.9c21.4,0,41.3-6.1,58.1-16.8l-42.1-22.9L85.8,246z"/>
		<path class="st4" d="M-58.9,222l13.6-116.6l1.5-46.4l-29.7-11.1l-9.2-27.1l2.3-34.8L-54-37.9l-4.3-30.7l-48.5-83.5l-42.9-33.9
			l-65.3-13.2c-11.3,17.2-17.9,37.8-17.9,59.9V263c0,35,16.4,66.1,42,86.1l43.5-21.7L-58.9,222z"/>
		<path class="st5" d="M-42.3,229.2L-28.1,107l2-59.9l-33.7-12.6l-5.5-16.1L-63.6-6l28-25.2l-6-43.1l-51.9-89.3l-48.7-38.5
			l-60.7-12.3c-2.3,2.4-4.4,4.9-6.5,7.5L-146-194l45.8,36.2L-50-71.4c1.7,12.3,3.4,24.6,5.1,36.9L-72-10l-2,29.6l7.3,21.6L-34.9,53
			l-1.7,53l-13.9,119.6l-91.3,108.7l-41,20.4c2.9,1.9,5.9,3.6,8.9,5.2l37.5-18.7L-42.3,229.2z"/>
		<path class="st5" d="M-149.7-185.9l42.9,33.9l48.5,83.5l4.3,30.7l-26.4,23.7l-2.3,34.8l9.2,27.1L-43.8,59l-1.5,46.4L-58.9,222
			l-88.5,105.3l-43.5,21.7c2.6,2,5.2,3.9,8,5.7l41-20.4l91.3-108.7L-36.7,106l1.7-53l-31.7-11.8L-74,19.6l2-29.6l27.2-24.5
			c-1.7-12.3-3.4-24.6-5.1-36.9l-50.2-86.4L-146-194l-63.5-12.9c-2,2.5-3.8,5-5.5,7.7L-149.7-185.9z"/>
		<path class="st4" d="M238.5,263v-402.2c0-25.7-8.9-49.3-23.7-67.9l-54.9,13L109-170l-30.5,57.7L65.4-6.8l8.4,152.6l27.8,92.6
			l55.6,80.8l44.1,24l2.3-0.4C225.1,323,238.5,294.6,238.5,263z"/>
		<path class="st5" d="M151.3,325.9l-57.6-83.7l-28.5-94.9L56.7-7.1L70.1-115l32.5-61.6l54.3-25.7l51.4-12.2
			c-2.4-2.5-4.9-4.9-7.4-7.1l-46.8,11.1l-57.7,27.4l-34.6,65.6L48.1-7.4l8.6,156.2L85.8,246l59.5,86.5l42.1,22.9
			c2.7-1.7,5.4-3.6,7.9-5.5L151.3,325.9z"/>
		<path class="st5" d="M102.7-176.6L70.1-115L56.7-7.1l8.5,154.4l28.5,94.9l57.6,83.7l44.1,24c2.9-2.2,5.6-4.5,8.3-7l-2.3,0.4
			l-44.1-24l-55.6-80.8l-27.8-92.6L65.4-6.8l13.1-105.6L109-170l50.9-24.1l54.9-13c-2-2.5-4.2-5-6.4-7.4L157-202.3L102.7-176.6z"/>
	</g>
</g>
<g id="Layer_1" class="st0">
	<g class="st2">
		<rect x="93.3" y="3.4" class="st6" width="19.4" height="19.4"/>
		<polygon class="st7" points="93.3,3.4 103.1,13.1 112.8,3.4 		"/>
		<polygon class="st7" points="93.3,22.8 103.1,13.1 112.8,22.8 		"/>
	</g>
</g>
<g id="Layer_5" class="st0">
	<g class="st2">
		<circle class="st8" cx="72.2" cy="13.1" r="9.8"/>
		<circle class="st9" cx="72.2" cy="13.1" r="5.6"/>
	</g>
</g>
<g id="Layer_4">
	<path class="st5" d="M37.9,0.5c-2.5-1.2-5.5-0.3-6.7,2.2c-2.8,5.6-5,9.7-7.1,13.7c-1,2-2.1,4.1-3.3,6.3L9.1,5.6
		C7.6,3.3,4.5,2.7,2.2,4.3c-2.3,1.6-2.9,4.7-1.3,6.9l15.6,22.9l0.9,25.9l10-0.3l-0.9-26c2.6-5,4.6-8.9,6.5-12.6
		c2.1-4,4.3-8.2,7.1-13.8C41.3,4.8,40.4,1.8,37.9,0.5z"/>
</g>
<g id="Layer_3" class="st0">
	<path class="st10" d="M-29.5,37.3l-0.2-29.4c0-2.8-2.3-5-5-5c0,0,0,0,0,0c-2.8,0-5,2.3-5,5l0.1,19.4l-18.7,0.1L-58.3,9
		c0-2.8-2.3-5-5-5c0,0,0,0,0,0c-2.8,0-5,2.3-5,5l0.2,28.5l14.1-0.1l0.5,24.4l10-0.2L-44,37.4L-29.5,37.3z"/>
</g>
</svg>
