<?xml version="1.0" encoding="utf-8"?>
<!-- Generator: Adobe Illustrator 23.0.1, SVG Export Plug-In . SVG Version: 6.00 Build 0)  -->
<svg version="1.1" id="Layer_1" xmlns="http://www.w3.org/2000/svg" xmlns:xlink="http://www.w3.org/1999/xlink" x="0px" y="0px"
	 viewBox="0 0 653.3 788.7" style="enable-background:new 0 0 653.3 788.7;" xml:space="preserve">
<style type="text/css">
	.st0{fill:#FFFFFF;}
</style>
<g>
	<path class="st0" d="M456.7,5H196.5c-49.6,0-89.8,40.2-89.8,89.8v174.9c0,49.6,40.2,89.8,89.8,89.8h14.4v37.7
		c0,17.6,14.3,31.9,31.9,31.9h167.7c17.6,0,31.9-14.3,31.9-31.9v-37.7h14.4c49.6,0,89.8-40.2,89.8-89.8V94.8
		C546.5,45.2,506.3,5,456.7,5z"/>
	<path d="M410.5,434H242.7c-20.3,0-36.9-16.5-36.9-36.9v-32.7h-9.4c-52.3,0-94.8-42.5-94.8-94.8V94.8c0-52.3,42.5-94.8,94.8-94.8
		h260.2c52.3,0,94.8,42.5,94.8,94.8v174.9c0,52.3-42.5,94.8-94.8,94.8h-9.4v32.7C447.3,417.4,430.8,434,410.5,434z M196.5,10
		c-46.7,0-84.8,38-84.8,84.8v174.9c0,46.7,38,84.8,84.8,84.8h19.4v42.7c0,14.8,12,26.9,26.9,26.9h167.7c14.8,0,26.9-12,26.9-26.9
		v-42.7h19.4c46.7,0,84.8-38,84.8-84.8V94.8c0-46.7-38-84.8-84.8-84.8H196.5z"/>
</g>
<g>
	<polygon points="326.7,250.8 283.4,325.8 370,325.8 	"/>
</g>
<g>
	<circle cx="197.9" cy="230.8" r="67.8"/>
</g>
<g>
	<circle cx="455.4" cy="235.3" r="67.8"/>
</g>
<g>
	<rect x="323.3" y="376.9" width="6.6" height="47"/>
</g>
<g>
	<rect x="280" y="376.9" width="6.6" height="47"/>
</g>
<g>
	<rect x="366.7" y="376.9" width="6.6" height="47"/>
</g>
<g>
	<rect x="403" y="376.9" width="6.6" height="47"/>
</g>
<g>
	<rect x="245.3" y="376.9" width="6.6" height="47"/>
</g>
<g>
	<path class="st0" d="M641.7,654.4l-38-19.1c-5.9-3-13.1-0.6-16.1,5.3l-15.8,31.5l-190.6-95.7l190.6-95.7l15.8,31.5
		c3,5.9,10.2,8.3,16.1,5.3l38-19.1c5.9-3,8.3-10.2,5.3-16.1l-21.4-42.6c-3-5.9-10.2-8.3-16.1-5.3c5.9-3,8.3-10.2,5.3-16.1
		l-21.4-42.6c-3-5.9-10.2-8.3-16.1-5.3l-38,19.1c-5.9,3-8.3,10.2-5.3,16.1l15.8,31.5L326.7,549L103.5,436.9l15.8-31.5
		c3-5.9,0.6-13.1-5.3-16.1l-38-19.1c-5.9-3-13.1-0.6-16.1,5.3l-21.4,42.6c-3,5.9-0.6,13.1,5.3,16.1c-5.9-3-13.1-0.6-16.1,5.3
		L6.3,482.2c-3,5.9-0.6,13.1,5.3,16.1l38,19.1c5.9,3,13.1,0.6,16.1-5.3l15.8-31.5l190.6,95.7L81.5,672.1l-15.8-31.5
		c-3-5.9-10.2-8.3-16.1-5.3l-38,19.1c-5.9,3-8.3,10.2-5.3,16.1l21.4,42.6c3,5.9,10.2,8.3,16.1,5.3c-5.9,3-8.3,10.2-5.3,16.1
		l21.4,42.6c3,5.9,10.2,8.3,16.1,5.3l38-19.1c5.9-3,8.3-10.2,5.3-16.1l-15.8-31.5l223.2-112.1l223.2,112.1L534,747.3
		c-3,5.9-0.6,13.1,5.3,16.1l38,19.1c5.9,3,13.1,0.6,16.1-5.3l21.4-42.6c3-5.9,0.6-13.1-5.3-16.1c5.9,3,13.1,0.6,16.1-5.3l21.4-42.6
		C650,664.6,647.6,657.3,641.7,654.4z"/>
	<path d="M70.6,788.7c-6.2,0-12.2-3.4-15.2-9.4L34,736.8c-2.1-4.2-2.3-8.8-0.9-13c-4.3-1.4-7.8-4.4-9.8-8.5L1.8,672.7
		c-4.2-8.4-0.8-18.6,7.6-22.8l38-19.1c8.4-4.2,18.6-0.8,22.8,7.6l13.6,27l177.3-89l-177.3-89l-13.6,27c-2,4-5.5,7.1-9.8,8.5
		c-4.3,1.4-8.9,1.1-13-0.9l-38-19.1C1,498.6-2.4,488.4,1.8,480l21.4-42.6c2.1-4.2,5.7-7.1,9.8-8.5c-1.4-4.3-1.1-8.9,0.9-13
		l21.4-42.6c2-4,5.5-7.1,9.8-8.5c4.3-1.4,8.9-1.1,13,0.9l38,19.1c4,2,7.1,5.5,8.5,9.8c1.4,4.3,1.1,8.9-0.9,13l-13.6,27l216.5,108.7
		l216.5-108.7l-13.6-27c-4.2-8.4-0.8-18.6,7.6-22.8l38-19.1c8.4-4.2,18.6-0.8,22.8,7.6l21.4,42.6c2,4,2.4,8.6,0.9,13
		c4.1,1.4,7.7,4.3,9.8,8.5l21.4,42.6c4.2,8.4,0.8,18.6-7.6,22.8l-38,19.1c-4,2-8.7,2.4-13,0.9c-4.3-1.4-7.8-4.4-9.8-8.5l-13.6-27
		l-177.3,89l177.3,89l13.6-27c2-4,5.5-7.1,9.8-8.5c4.3-1.4,8.9-1.1,13,0.9l38,19.1v0c8.4,4.2,11.8,14.4,7.6,22.8l-21.4,42.6
		c-2,4-5.5,7.1-9.8,8.5c1.4,4.1,1.2,8.8-0.9,13l-21.4,42.6c-4.2,8.4-14.4,11.8-22.8,7.6l-38-19.1c-8.4-4.2-11.8-14.4-7.6-22.8
		l13.6-27L326.7,609.3L110.2,718l13.6,27c4.2,8.4,0.8,18.6-7.6,22.8l-38,19.1C75.7,788.2,73.1,788.7,70.6,788.7z M46,722.9
		c-3.4,1.7-4.8,5.9-3.1,9.4l21.4,42.6c1.7,3.4,5.9,4.8,9.4,3.1l38-19.1c3.4-1.7,4.8-5.9,3.1-9.4l-18-35.9l229.9-115.5l229.9,115.5
		l-18,35.9c-1.7,3.4-0.3,7.7,3.1,9.4l38,19.1c3.5,1.7,7.7,0.3,9.4-3.1l21.4-42.6c1.7-3.4,0.3-7.7-3.1-9.4l4.5-8.9
		c1.7,0.8,3.6,1,5.3,0.4c1.8-0.6,3.2-1.8,4.1-3.5l21.4-42.6c1.7-3.4,0.3-7.7-3.1-9.4v0l-38-19.1c-1.7-0.8-3.6-1-5.3-0.4
		c-1.8,0.6-3.2,1.8-4.1,3.5l-18,35.9L370,576.4l204-102.4l18,35.9c0.8,1.7,2.3,2.9,4.1,3.5c1.8,0.6,3.7,0.5,5.3-0.4l38-19.1
		c3.4-1.7,4.8-5.9,3.1-9.4l-21.4-42.6c-1.7-3.4-5.9-4.8-9.4-3.1l-4.5-8.9c3.5-1.7,4.8-5.9,3.1-9.4L589,377.8
		c-1.7-3.4-5.9-4.8-9.4-3.1l-38,19.1c-3.4,1.7-4.8,5.9-3.1,9.4l18,35.9L326.7,554.6L96.8,439.1l18-35.9c0.8-1.7,1-3.6,0.4-5.3
		c-0.6-1.8-1.8-3.2-3.5-4.1l-38-19.1c-1.7-0.8-3.6-1-5.3-0.4c-1.8,0.6-3.2,1.8-4.1,3.5l-21.4,42.6c-0.8,1.7-1,3.6-0.4,5.3
		c0.6,1.8,1.8,3.2,3.5,4.1l-4.5,8.9c-3.4-1.7-7.7-0.3-9.4,3.1l-21.4,42.6c-1.7,3.4-0.3,7.7,3.1,9.4l38,19.1c1.7,0.8,3.6,1,5.3,0.4
		c1.8-0.6,3.2-1.8,4.1-3.5l18-35.9l204,102.4l-204,102.4l-18-35.9c-1.7-3.4-5.9-4.8-9.4-3.1l-38,19.1c-3.4,1.7-4.8,5.9-3.1,9.4
		l21.4,42.6c0.8,1.7,2.3,2.9,4.1,3.5c1.8,0.6,3.7,0.5,5.3-0.4L46,722.9z"/>
</g>
</svg>
