<?xml version="1.0" encoding="utf-8"?>
<!-- Generator: Adobe Illustrator 23.0.1, SVG Export Plug-In . SVG Version: 6.00 Build 0)  -->
<svg version="1.1" id="Layer_1" xmlns="http://www.w3.org/2000/svg" xmlns:xlink="http://www.w3.org/1999/xlink" x="0px" y="0px"
	 viewBox="0 0 169.2 354.9" style="enable-background:new 0 0 169.2 354.9;" xml:space="preserve">
<style type="text/css">
	.st0{fill:#FFFFFF;}
	.st1{fill:#EDEDED;}
	.st2{fill:#D8D8D8;}
	.st3{fill:#F48B00;}
	.st4{fill:#E27905;}
	.st5{fill:#E58229;}
	.st6{fill:#FCA54F;}
	.st7{fill:#CCCCCC;}
</style>
<polygon class="st0" points="161.6,59 161.6,26.9 150,26.9 150,21.7 141.8,21.7 141.8,4.9 28.2,4.9 28.2,21.7 20,21.7 20,26.9 
	8.3,26.9 8.3,59 0,59 0,71 169.2,71 169.2,59 "/>
<ellipse class="st1" cx="84.6" cy="59" rx="84.6" ry="4.9"/>
<ellipse class="st1" cx="85" cy="26.7" rx="76.6" ry="4.9"/>
<ellipse class="st0" cx="85" cy="24.3" rx="65" ry="4.9"/>
<ellipse class="st0" cx="85" cy="56.4" rx="76.6" ry="4.9"/>
<ellipse class="st1" cx="85" cy="21.7" rx="65" ry="4.9"/>
<rect x="12.4" y="35.5" class="st2" width="2" height="21.3"/>
<rect x="18.4" y="35.5" class="st2" width="2" height="21.3"/>
<rect x="24.4" y="35.5" class="st2" width="2" height="21.3"/>
<rect x="30.4" y="35.5" class="st2" width="2" height="21.3"/>
<rect x="36.4" y="35.5" class="st2" width="2" height="21.3"/>
<rect x="42.4" y="35.5" class="st2" width="2" height="21.3"/>
<rect x="48.4" y="35.5" class="st2" width="2" height="21.3"/>
<rect x="54.4" y="35.5" class="st2" width="2" height="21.3"/>
<rect x="60.4" y="35.5" class="st2" width="2" height="21.3"/>
<rect x="66.4" y="35.5" class="st2" width="2" height="21.3"/>
<rect x="72.4" y="35.5" class="st2" width="2" height="21.3"/>
<rect x="78.4" y="35.5" class="st2" width="2" height="21.3"/>
<rect x="84.4" y="35.5" class="st2" width="2" height="21.3"/>
<rect x="90.4" y="35.5" class="st2" width="2" height="21.3"/>
<rect x="96.4" y="35.5" class="st2" width="2" height="21.3"/>
<rect x="102.4" y="35.5" class="st2" width="2" height="21.3"/>
<rect x="108.4" y="35.5" class="st2" width="2" height="21.3"/>
<rect x="114.4" y="35.5" class="st2" width="2" height="21.3"/>
<rect x="120.4" y="35.5" class="st2" width="2" height="21.3"/>
<rect x="126.4" y="35.5" class="st2" width="2" height="21.3"/>
<rect x="132.4" y="35.5" class="st2" width="2" height="21.3"/>
<rect x="138.4" y="35.5" class="st2" width="2" height="21.3"/>
<rect x="144.4" y="35.5" class="st2" width="2" height="21.3"/>
<rect x="150.4" y="35.5" class="st2" width="2" height="21.3"/>
<rect x="156.4" y="35.5" class="st2" width="2" height="21.3"/>
<path class="st3" d="M150,71H20H0v7.5h20v258.3c0,8.6,29.1,15.5,65,15.5c35.9,0,65-7,65-15.5V78.5h19.1V71H150z"/>
<rect y="71" class="st4" width="169.2" height="7.5"/>
<ellipse class="st4" cx="84.9" cy="337.2" rx="64.9" ry="17.7"/>
<ellipse class="st1" cx="85" cy="4.9" rx="56.8" ry="4.9"/>
<ellipse class="st0" cx="85" cy="19.5" rx="56.8" ry="4.9"/>
<ellipse class="st4" cx="84.6" cy="78.5" rx="84.6" ry="4.9"/>
<ellipse class="st0" cx="84.6" cy="71" rx="84.6" ry="4.9"/>
<path class="st5" d="M66.3,253.5l22.1,38.3c5.3,9.1,2.1,20.8-7,26.1h0c-9.1,5.3-20.8,2.1-26.1-7l-22.1-38.3
	c-5.3-9.1-2.1-20.8,7-26.1l0,0C49.4,241.2,61.1,244.3,66.3,253.5z"/>
<path class="st5" d="M56.9,206.6l44.1-3.4c10.5-0.8,19.7,7.1,20.5,17.6l0,0c0.8,10.5-7.1,19.7-17.6,20.5l-44.1,3.4
	c-10.5,0.8-19.7-7.1-20.5-17.6l0,0C38.5,216.6,46.4,207.4,56.9,206.6z"/>
<path class="st5" d="M121.2,264.9l20.4,39.3c4.9,9.4,1.2,20.9-8.2,25.8h0c-9.4,4.9-20.9,1.2-25.8-8.2l-20.4-39.3
	c-4.9-9.4-1.2-20.9,8.2-25.8h0C104.8,251.9,116.3,255.6,121.2,264.9z"/>
<path class="st5" d="M52.4,139l38.3,22.1c9.1,5.3,12.3,17,7,26.1l0,0c-5.3,9.1-17,12.3-26.1,7l-38.3-22.1c-9.1-5.3-12.3-17-7-26.1
	l0,0C31.6,136.8,43.3,133.7,52.4,139z"/>
<path class="st5" d="M144.3,116.6l-10.6,42.9c-2.5,10.3-12.9,16.5-23.1,14h0c-10.3-2.5-16.5-12.9-14-23.1l10.6-42.9
	c2.5-10.3,12.9-16.5,23.1-14l0,0C140.5,96,146.8,106.3,144.3,116.6z"/>
<path class="st6" d="M77.4,340.2L38,320c-9.4-4.8-13.1-16.3-8.3-25.7l0,0c4.8-9.4,16.3-13.1,25.7-8.3l39.4,20.2
	c9.4,4.8,13.1,16.3,8.3,25.7l0,0C98.3,341.3,86.8,345,77.4,340.2z"/>
<path class="st6" d="M97.4,290.5l8.6-43.4c2.1-10.4,12.1-17.1,22.5-15h0c10.4,2.1,17.1,12.1,15,22.5l-8.6,43.4
	c-2.1,10.4-12.1,17.1-22.5,15h0C102,310.9,95.3,300.8,97.4,290.5z"/>
<path class="st6" d="M28.9,189.1l18.3-40.3c4.4-9.6,15.7-13.9,25.3-9.5l0,0c9.6,4.4,13.9,15.7,9.5,25.3l-18.3,40.3
	c-4.4,9.6-15.7,13.9-25.3,9.5l0,0C28.7,210,24.5,198.7,28.9,189.1z"/>
<path class="st6" d="M57.4,269.6l1.9-44.2c0.5-10.5,9.4-18.7,19.9-18.3h0c10.5,0.5,18.7,9.4,18.3,19.9l-1.9,44.2
	c-0.5,10.5-9.4,18.7-19.9,18.3l0,0C65.1,289.1,56.9,280.2,57.4,269.6z"/>
<path class="st6" d="M130.7,162l11.1,42.8c2.6,10.2-3.5,20.7-13.7,23.3h0c-10.2,2.6-20.7-3.5-23.3-13.7l-11.1-42.8
	c-2.6-10.2,3.5-20.7,13.7-23.3h0C117.7,145.6,128.1,151.8,130.7,162z"/>
<path class="st6" d="M67.8,91.2l42.1,13.6c10,3.2,15.6,14,12.3,24.1l0,0c-3.2,10-14,15.6-24.1,12.3l-42.1-13.6
	c-10-3.2-15.6-14-12.3-24.1l0,0C47,93.4,57.8,87.9,67.8,91.2z"/>
<path class="st0" d="M150,234.4V122.2c-1.1,3.3-29.8,6-65.1,6c-34.1,0-62-2.5-64.9-5.7V235c0,3.4,29.2,6.2,65.2,6.2
	c36,0,65.2-2.8,65.2-6.2C150.4,234.8,150.2,234.6,150,234.4z"/>
<g>
	<g>
		<path d="M50.8,143c0.1-1.1,0.2-1.6,0.3-2.6c1.9,0.2,2.8,0.3,4.7,0.5c-0.1,1.1-0.1,1.6-0.2,2.6C53.7,143.3,52.7,143.2,50.8,143z"/>
		<path d="M63.7,135.6c-1-0.1-1.8,0.3-2.4,1.2c-0.6,0.9-1,2.1-1.1,3.8c-0.3,3.4,0.7,5.2,2.8,5.4c0.9,0.1,2-0.1,3.3-0.6
			c-0.1,1.1-0.1,1.6-0.2,2.7c-1.1,0.5-2.3,0.6-3.6,0.5c-1.9-0.1-3.3-0.9-4.2-2.4c-0.9-1.4-1.2-3.4-1-6c0.1-1.6,0.5-3,1.1-4.1
			c0.6-1.2,1.3-2,2.3-2.6c0.9-0.6,2-0.8,3.2-0.7c1.2,0.1,2.4,0.5,3.6,1.3c-0.4,1-0.6,1.6-1,2.6c-0.5-0.3-0.9-0.6-1.4-0.8
			C64.6,135.8,64.2,135.7,63.7,135.6z"/>
		<path d="M68.8,148.9c0.4-6.2,0.5-9.3,0.9-15.4c1.1,0.1,1.6,0.1,2.6,0.1c-0.3,5.1-0.4,7.6-0.6,12.7c2.1,0.1,3.1,0.2,5.2,0.2
			c0,1.1-0.1,1.6-0.1,2.7C73.7,149.2,72,149.1,68.8,148.9z"/>
		<path d="M79.1,149.4c0.2-6.2,0.3-9.3,0.5-15.4c1.1,0,1.6,0,2.6,0.1c-0.2,6.2-0.2,9.3-0.4,15.5C80.8,149.4,80.2,149.4,79.1,149.4z"
			/>
		<path d="M90.7,136.6c-1,0-1.8,0.5-2.3,1.4c-0.6,0.9-0.9,2.2-0.9,3.9c0,3.4,1,5.2,3.2,5.2c0.9,0,2-0.3,3.3-0.8c0,1.1,0,1.6,0,2.7
			c-1.1,0.5-2.3,0.8-3.6,0.8c-1.9,0-3.3-0.7-4.3-2.1c-1-1.4-1.4-3.3-1.4-5.9c0-1.6,0.3-3,0.8-4.2c0.5-1.2,1.2-2.1,2.1-2.8
			c0.9-0.6,1.9-1,3.1-0.9c1.2,0,2.4,0.4,3.7,1.1c-0.3,1.1-0.5,1.6-0.8,2.7c-0.5-0.3-0.9-0.5-1.4-0.7S91.1,136.6,90.7,136.6z"/>
		<path d="M107.2,149.3c-1.2,0-1.9,0.1-3.1,0.1c-1.4-2.6-2.2-3.8-3.6-6.4c-0.4,0.4-0.7,0.6-1.1,1c0,2.2,0.1,3.3,0.1,5.5
			c-1.1,0-1.7,0-2.8,0c-0.1-6.2-0.1-9.3-0.2-15.5c1.1,0,1.6,0,2.6,0c0.1,2.8,0.1,4.2,0.1,7.1c0.4-0.7,0.6-1.1,1-1.8
			c1.3-2.1,2-3.2,3.3-5.3c1.2,0,1.8-0.1,2.9-0.1c-1.6,2.8-2.5,4.2-4.2,7C104.2,144.2,105.2,145.9,107.2,149.3z"/>
		<path d="M107.5,144.8c0-1.1-0.1-1.6-0.1-2.6c1.9-0.1,2.8-0.1,4.7-0.2c0.1,1.1,0.1,1.6,0.1,2.6
			C110.3,144.7,109.4,144.7,107.5,144.8z"/>
	</g>
</g>
<path class="st7" d="M150,155.2c-2.2,1.4-30.4,2.6-64.9,2.6c-35.9,0-65-1.2-65-2.8H20v24.2h0.5c-0.3,0.1-0.5,0.2-0.5,0.3
	c0,1.5,29.1,2.8,65,2.8c35.9,0,65-1.2,65-2.8c0-0.1-0.2-0.2-0.5-0.3h0.5V155.2z"/>
<g>
	<g>
		<path d="M30.6,221.2c-1.7-0.2-2.5-0.2-4.2-0.4c0.5-8.8,0.7-13.1,1.1-21.9c-2.1-0.2-3.2-0.3-5.3-0.5c0.1-1.9,0.2-2.8,0.3-4.7
			c5.8,0.6,8.7,0.9,14.5,1.4c-0.1,1.9-0.1,2.8-0.2,4.7c-2.1-0.2-3.2-0.3-5.3-0.5C31.2,208,31,212.4,30.6,221.2z"/>
		<path d="M57.2,209.7c-0.1,4.4-1,7.8-2.7,10.1c-1.7,2.3-4,3.3-7.1,3.1c-3-0.2-5.3-1.5-6.8-4c-1.5-2.5-2.2-6-2-10.4
			c0.2-4.4,1.1-7.8,2.8-10c1.7-2.2,4-3.2,7-3c3,0.2,5.2,1.5,6.7,3.9C56.6,201.8,57.4,205.3,57.2,209.7z M43,208.8
			c-0.1,3,0.2,5.2,1,6.8c0.8,1.6,2,2.4,3.7,2.5c3.3,0.2,5.1-2.7,5.3-8.7c0.2-6-1.4-9.1-4.6-9.3c-1.6-0.1-2.9,0.6-3.8,2
			C43.6,203.6,43.1,205.8,43,208.8z"/>
		<path d="M79.9,216.3c0,2.4-0.7,4.3-2,5.7c-1.3,1.4-3.1,2-5.4,2c-2.1,0-4-0.6-5.6-1.8c0-2.1,0.1-3.2,0.1-5.3
			c1.3,0.8,2.4,1.4,3.3,1.8c0.9,0.4,1.8,0.5,2.5,0.6c0.9,0,1.6-0.2,2.1-0.7c0.5-0.5,0.7-1.2,0.8-2.1c0-0.5-0.1-1-0.3-1.4
			c-0.2-0.4-0.5-0.8-0.9-1.2c-0.4-0.4-1.3-1-2.5-1.9c-1.2-0.8-2.1-1.6-2.7-2.3c-0.6-0.7-1-1.6-1.4-2.5c-0.3-0.9-0.5-2-0.5-3.3
			c0-2.4,0.6-4.2,1.8-5.5c1.2-1.3,2.8-2,4.8-1.9c1,0,2,0.2,2.9,0.5c0.9,0.3,1.9,0.8,2.9,1.4c-0.5,1.8-0.8,2.6-1.3,4.4
			c-1-0.6-1.9-1-2.6-1.3c-0.7-0.2-1.3-0.4-2-0.4c-0.8,0-1.4,0.2-1.8,0.7c-0.4,0.5-0.6,1.1-0.6,1.9c0,0.5,0.1,0.9,0.2,1.3
			c0.2,0.4,0.4,0.7,0.8,1.1c0.4,0.4,1.2,1,2.6,1.9c1.8,1.2,3.1,2.4,3.7,3.6C79.6,213.1,79.9,214.6,79.9,216.3z"/>
		<path d="M91.1,223.7c-1.7,0-2.5,0-4.2,0c0-8.8,0-13.2,0-22c-2.1,0-3.2,0-5.3,0c0-1.9,0-2.8,0-4.7c5.8,0,8.7,0,14.6-0.1
			c0,1.9,0,2.8,0,4.7c-2.1,0-3.2,0.1-5.3,0.1C91,210.5,91,214.9,91.1,223.7z"/>
		<path d="M111.6,223.1c-0.6-2.5-0.9-3.8-1.6-6.3c-2.9,0.1-4.3,0.2-7.2,0.3c-0.5,2.6-0.8,3.8-1.3,6.4c-1.8,0-2.7,0.1-4.5,0.1
			c2.7-10.8,4-16.2,6.5-26.9c2-0.1,3-0.1,5-0.2c3,10.6,4.5,15.9,7.6,26.4C114.3,223,113.4,223.1,111.6,223.1z M108.9,212.2
			c-1.4-5.7-2.2-8.9-2.4-9.7c-0.2-0.7-0.3-1.3-0.4-1.8c-0.3,1.6-1,5.4-2.3,11.6C105.8,212.3,106.9,212.2,108.9,212.2z"/>
		<path d="M122.4,212.3c0.1,4.1,0.2,6.1,0.3,10.2c-1.7,0.1-2.5,0.2-4.2,0.2c-0.3-10.7-0.5-16-0.8-26.6c2.2-0.1,3.4-0.2,5.6-0.3
			c2.6-0.2,4.6,0.3,5.9,1.6c1.3,1.2,2,3.2,2.1,5.9c0.1,1.6-0.2,3-0.8,4.3c-0.6,1.3-1.4,2.3-2.6,3.1c3.2,5.8,5.3,9.5,6.2,11.2
			c-1.9,0.2-2.8,0.2-4.6,0.4c-2-3.9-3.1-5.9-5.1-9.9C123.7,212.2,123.3,212.3,122.4,212.3z M122.3,207.7c0.5,0,0.8-0.1,1.3-0.1
			c1.3-0.1,2.3-0.5,2.9-1.1c0.6-0.6,0.9-1.6,0.8-2.9c0-1.3-0.4-2.1-1-2.6c-0.7-0.5-1.6-0.7-3-0.6c-0.5,0-0.7,0-1.2,0.1
			C122.1,203.4,122.2,204.9,122.3,207.7z"/>
		<path d="M144.4,220.8c-1.7,0.2-2.5,0.2-4.2,0.4c-0.4-8.8-0.6-13.1-1.1-21.9c-2.1,0.2-3.2,0.3-5.3,0.5c-0.1-1.9-0.1-2.8-0.2-4.7
			c5.8-0.5,8.7-0.8,14.5-1.4c0.1,1.9,0.2,2.8,0.3,4.7c-2.1,0.2-3.2,0.3-5.3,0.5C143.7,207.6,144,212,144.4,220.8z"/>
	</g>
</g>
</svg>
