<?xml version="1.0" encoding="utf-8"?>
<!-- Generator: Adobe Illustrator 23.0.1, SVG Export Plug-In . SVG Version: 6.00 Build 0)  -->
<svg version="1.1" xmlns="http://www.w3.org/2000/svg" xmlns:xlink="http://www.w3.org/1999/xlink" x="0px" y="0px"
	 viewBox="0 0 471.3 620.7" style="enable-background:new 0 0 471.3 620.7;" xml:space="preserve">
<style type="text/css">
	.st0{fill:#4E4ECE;}
	.st1{fill:none;}
	.st2{fill:#653984;}
	.st3{display:none;}
	.st4{display:inline;fill:#331F3D;}
	.st5{display:inline;}
	.st6{fill:#39AA67;}
	.st7{fill:#39915D;}
	.st8{fill:#EECD86;}
	.st9{fill:#DDB973;}
</style>
<g id="Layer_2">
	<path class="st0" d="M362.1,620.7H109.2C48.9,620.7,0,571.8,0,511.4V109.2C0,48.9,48.9,0,109.2,0h252.9
		c60.3,0,109.2,48.9,109.2,109.2v402.2C471.3,571.8,422.4,620.7,362.1,620.7z"/>
	<g>
		<path class="st1" d="M318.6,494.5l-29.2-97.2l-8.6-156.2l13.7-110.2l34.6-65.6L387,37.9l46.8-11.1C414.6,10.1,389.6,0,362.1,0
			H109.2C78,0,49.8,13.1,29.9,34.2l60.7,12.3L139.3,85l51.9,89.3l6,43.1l-28,25.2l-1.6,24.4l5.5,16.1l33.7,12.6l-2,59.9l-14.2,122.1
			L96.4,589.7l-37.5,18.7c15.1,7.8,32.2,12.3,50.3,12.3h252.9c21.4,0,41.3-6.1,58.1-16.8L378.2,581L318.6,494.5z"/>
		<path class="st2" d="M174,470.5l13.6-116.6l1.5-46.4l-29.7-11.1l-9.2-27.1l2.3-34.8l26.4-23.7l-4.3-30.7L126,96.5L83.1,62.6
			L17.9,49.4C6.6,66.6,0,87.1,0,109.2v402.2c0,35,16.4,66.1,42,86.1l43.5-21.7L174,470.5z"/>
		<path class="st2" d="M471.3,511.4V109.2c0-25.7-8.9-49.3-23.7-67.9l-54.9,13l-50.9,24.1l-30.5,57.7l-13.1,105.6l8.4,152.6
			l27.8,92.6l55.6,80.8l44.1,24l2.3-0.4C457.9,571.5,471.3,543,471.3,511.4z"/>
	</g>
</g>
<g id="Layer_7" class="st3">
	<path class="st4" d="M390.1,567.8l-55.6-80.8l-27.8-92.6l-8.4-152.6l13.1-105.6l30.5-57.7l50.9-24.1l54.9-13c-2-2.5-4.2-5-6.4-7.4
		c-2.4-2.5-4.9-4.9-7.4-7.1L387,37.9l-57.7,27.4l-34.6,65.6l-13.7,110.2l8.6,156.2l29.2,97.2l59.5,86.5l42.1,22.9
		c2.7-1.7,5.4-3.6,7.9-5.5c2.9-2.2,5.6-4.5,8.3-7l-2.3,0.4L390.1,567.8z"/>
</g>
<g id="Layer_6" class="st3">
	<path class="st4" d="M173.1,283l-5.5-16.1l1.6-24.4l28-25.2l-6-43.1L139.3,85L90.6,46.5L29.9,34.2c-2.3,2.4-4.4,4.9-6.5,7.5
		c-2,2.5-3.8,5-5.5,7.7l65.3,13.2L126,96.5l48.5,83.5l4.3,30.7l-26.4,23.7l-2.3,34.8l9.2,27.1l29.7,11.1l-1.5,46.4L174,470.5
		L85.5,575.8L42,597.5c2.6,2,5.2,3.9,8,5.7c2.9,1.9,5.9,3.6,8.9,5.2l37.5-18.7l94.2-112.1l14.2-122.1l2-59.9L173.1,283z"/>
</g>
<g id="Layer_1" class="st3">
	<g class="st5">
		<rect x="326.2" y="251.9" class="st6" width="19.4" height="19.4"/>
		<polygon class="st7" points="326.2,251.9 335.9,261.6 345.6,251.9 		"/>
		<polygon class="st7" points="326.2,271.3 335.9,261.6 345.6,271.3 		"/>
	</g>
</g>
<g id="Layer_5" class="st3">
	<g class="st5">
		<circle class="st8" cx="305.1" cy="261.6" r="9.8"/>
		<circle class="st9" cx="305.1" cy="261.6" r="5.6"/>
	</g>
</g>
<g id="Layer_4" class="st3">
	<path class="st4" d="M270.7,249c-2.5-1.2-5.5-0.3-6.7,2.2c-2.8,5.6-5,9.7-7.1,13.7c-1,2-2.1,4.1-3.3,6.3L242,254.1
		c-1.6-2.3-4.7-2.9-6.9-1.3c-2.3,1.6-2.9,4.7-1.3,6.9l15.6,22.9l0.9,25.9l10-0.3l-0.9-26c2.6-5,4.6-8.9,6.5-12.6
		c2.1-4,4.3-8.2,7.1-13.8C274.2,253.3,273.2,250.3,270.7,249z"/>
</g>
<g id="Layer_3" class="st3">
	<path class="st4" d="M203.4,285.8l-0.2-29.4c0-2.8-2.3-5-5-5c0,0,0,0,0,0c-2.8,0-5,2.3-5,5l0.1,19.4l-18.7,0.1l-0.1-18.5
		c0-2.8-2.3-5-5-5c0,0,0,0,0,0c-2.8,0-5,2.3-5,5l0.2,28.5l14.1-0.1l0.5,24.4l10-0.2l-0.5-24.2L203.4,285.8z"/>
</g>
</svg>
