<?xml version="1.0" encoding="utf-8"?>
<!-- Generator: Adobe Illustrator 23.0.1, SVG Export Plug-In . SVG Version: 6.00 Build 0)  -->
<svg version="1.1" xmlns="http://www.w3.org/2000/svg" xmlns:xlink="http://www.w3.org/1999/xlink" x="0px" y="0px"
	 viewBox="0 0 823.8 633.2" style="enable-background:new 0 0 823.8 633.2;" xml:space="preserve">
<style type="text/css">
	.st0{fill:#7A3E48;}
	.st1{display:none;}
	.st2{display:inline;fill:#4E4ECE;}
	.st3{display:inline;}
	.st4{fill:none;}
	.st5{fill:#653984;}
	.st6{fill:#331F3D;}
	.st7{fill:#39AA67;}
	.st8{fill:#39915D;}
	.st9{fill:#EECD86;}
	.st10{fill:#DDB973;}
	.st11{display:inline;fill:#331F3D;}
</style>
<g id="Layer_6">
	<path class="st0" d="M714.6,633.2H109.2C48.9,633.2,0,584.3,0,524V109.2C0,48.9,48.9,0,109.2,0h605.3
		c60.3,0,109.2,48.9,109.2,109.2V524C823.8,584.3,774.9,633.2,714.6,633.2z"/>
</g>
<g id="Layer_2" class="st1">
	<path class="st2" d="M366.9,627H114C53.7,627,4.8,578.1,4.8,517.7V115.5C4.8,55.2,53.7,6.3,114,6.3h252.9
		c60.3,0,109.2,48.9,109.2,109.2v402.2C476.1,578.1,427.2,627,366.9,627z"/>
	<g class="st3">
		<path class="st4" d="M323.4,500.8l-29.2-97.2l-8.6-156.2l13.7-110.2L334,71.6l57.7-27.4l46.8-11.1c-19.2-16.7-44.3-26.8-71.7-26.8
			H114c-31.2,0-59.4,13.1-79.3,34.2l60.7,12.3l48.7,38.5l51.9,89.3l6,43.1l-28,25.2l-1.6,24.4l5.5,16.1l33.7,12.6l-2,59.9
			l-14.2,122.1L101.2,596l-37.5,18.7C78.7,622.5,95.8,627,114,627h252.9c21.4,0,41.3-6.1,58.1-16.8l-42.1-22.9L323.4,500.8z"/>
		<path class="st5" d="M178.8,476.8l13.6-116.6l1.5-46.4l-29.7-11.1l-9.2-27.1l2.3-34.8l26.4-23.7l-4.3-30.7l-48.5-83.5L87.9,68.9
			L22.6,55.6C11.3,72.8,4.8,93.4,4.8,115.5v402.2c0,35,16.4,66.1,42,86.1l43.5-21.7L178.8,476.8z"/>
		<path class="st6" d="M195.3,483.9l14.2-122.1l2-59.9l-33.7-12.6l-5.5-16.1l1.6-24.4l28-25.2l-6-43.1l-51.9-89.3L95.4,52.8
			L34.7,40.4c-2.3,2.4-4.4,4.9-6.5,7.5l63.5,12.9L137.5,97l50.2,86.4c1.7,12.3,3.4,24.6,5.1,36.9l-27.2,24.5l-2,29.6L171,296
			l31.7,11.8l-1.7,53l-13.9,119.6L95.7,589.1l-41,20.4c2.9,1.9,5.9,3.6,8.9,5.2l37.5-18.7L195.3,483.9z"/>
		<path class="st6" d="M87.9,68.9l42.9,33.9l48.5,83.5l4.3,30.7l-26.4,23.7l-2.3,34.8l9.2,27.1l29.7,11.1l-1.5,46.4l-13.6,116.6
			L90.3,582.1l-43.5,21.7c2.6,2,5.2,3.9,8,5.7l41-20.4l91.3-108.7L201,360.8l1.7-53L171,296l-7.3-21.6l2-29.6l27.2-24.5
			c-1.7-12.3-3.4-24.6-5.1-36.9L137.5,97L91.6,60.8L28.2,48c-2,2.5-3.8,5-5.5,7.7L87.9,68.9z"/>
		<path class="st5" d="M476.1,517.7V115.5c0-25.7-8.9-49.3-23.7-67.9l-54.9,13l-50.9,24.1l-30.5,57.7L303,248l8.4,152.6l27.8,92.6
			l55.6,80.8l44.1,24l2.3-0.4C462.7,577.8,476.1,549.3,476.1,517.7z"/>
		<path class="st6" d="M388.9,580.7L331.3,497l-28.5-94.9l-8.5-154.4l13.4-107.9l32.5-61.6l54.3-25.7L446,40.2
			c-2.4-2.5-4.9-4.9-7.4-7.1l-46.8,11.1L334,71.6l-34.6,65.6l-13.7,110.2l8.6,156.2l29.2,97.2l59.5,86.5l42.1,22.9
			c2.7-1.7,5.4-3.6,7.9-5.5L388.9,580.7z"/>
		<path class="st6" d="M340.3,78.2l-32.5,61.6l-13.4,107.9l8.5,154.4l28.5,94.9l57.6,83.7l44.1,24c2.9-2.2,5.6-4.5,8.3-7l-2.3,0.4
			l-44.1-24l-55.6-80.8l-27.8-92.6L303,248l13.1-105.6l30.5-57.7l50.9-24.1l54.9-13c-2-2.5-4.2-5-6.4-7.4l-51.4,12.2L340.3,78.2z"/>
	</g>
</g>
<g id="Layer_1" class="st1">
	<g class="st3">
		<rect x="331" y="258.2" class="st7" width="19.4" height="19.4"/>
		<polygon class="st8" points="331,258.2 340.7,267.9 350.4,258.2 		"/>
		<polygon class="st8" points="331,277.6 340.7,267.9 350.4,277.6 		"/>
	</g>
</g>
<g id="Layer_5" class="st1">
	<g class="st3">
		<circle class="st9" cx="309.8" cy="267.9" r="9.8"/>
		<circle class="st10" cx="309.8" cy="267.9" r="5.6"/>
	</g>
</g>
<g id="Layer_4" class="st1">
	<path class="st11" d="M275.5,255.3c-2.5-1.2-5.5-0.3-6.7,2.2c-2.8,5.6-5,9.7-7.1,13.7c-1,2-2.1,4.1-3.3,6.3l-11.7-17.2
		c-1.6-2.3-4.7-2.9-6.9-1.3c-2.3,1.6-2.9,4.7-1.3,6.9l15.6,22.9l0.9,25.9l10-0.3l-0.9-26c2.6-5,4.6-8.9,6.5-12.6
		c2.1-4,4.3-8.2,7.1-13.8C279,259.6,278,256.6,275.5,255.3z"/>
</g>
<g id="Layer_3" class="st1">
	<path class="st11" d="M208.2,292.1l-0.2-29.4c0-2.8-2.3-5-5-5c0,0,0,0,0,0c-2.8,0-5,2.3-5,5l0.1,19.4l-18.7,0.1l-0.1-18.5
		c0-2.8-2.3-5-5-5c0,0,0,0,0,0c-2.8,0-5,2.3-5,5l0.2,28.5l14.1-0.1l0.5,24.4l10-0.2l-0.5-24.2L208.2,292.1z"/>
</g>
</svg>
