<?xml version="1.0" encoding="utf-8"?>
<!-- Generator: Adobe Illustrator 23.0.1, SVG Export Plug-In . SVG Version: 6.00 Build 0)  -->
<svg version="1.1" xmlns="http://www.w3.org/2000/svg" xmlns:xlink="http://www.w3.org/1999/xlink" x="0px" y="0px"
	 viewBox="0 0 201.1 201" style="enable-background:new 0 0 201.1 201;" xml:space="preserve">
<style type="text/css">
	.st0{display:none;}
	.st1{display:inline;}
	.st2{fill:#331F3D;}
	.st3{fill:#7A3E48;}
	.st4{fill:#FFFFFF;}
</style>
<g id="Layer_1" class="st0">
	<g class="st1">
		<circle class="st2" cx="100.2" cy="100.2" r="100.2"/>
		<circle class="st3" cx="99.1" cy="100.2" r="62.5"/>
		<g>
			<path class="st4" d="M32,70l-1.3,4l-8.2-2.7L20,79l8.2,2.7l-1.3,4L7.9,79.5l1.3-4l7.5,2.4l2.4-7.5l-7.5-2.4l1.3-4L32,70z"/>
			<path class="st4" d="M36.6,44.5c2.7,1.9,4.3,4,4.8,6.4c0.5,2.4-0.1,4.8-1.9,7.3c-1.8,2.5-3.8,3.9-6.2,4.2c-2.4,0.3-5-0.5-7.7-2.4
				c-2.7-1.9-4.3-4.1-4.8-6.4c-0.5-2.4,0.1-4.8,1.9-7.3c1.8-2.5,3.8-3.9,6.2-4.2C31.3,41.8,33.9,42.6,36.6,44.5z M28.2,56.5
				c1.8,1.3,3.5,1.9,4.9,1.9c1.4,0,2.6-0.8,3.6-2.1c1.9-2.8,1.1-5.5-2.6-8c-3.7-2.6-6.5-2.5-8.4,0.2c-1,1.4-1.2,2.8-0.8,4.1
				S26.4,55.2,28.2,56.5z"/>
			<path class="st4" d="M54.7,42.1l-13.1-10l-0.1,0.1c2,2.5,3.3,4.2,3.9,5l5.4,7.6L47.8,47L36.1,30.7l4.7-3.4l12.8,9.7l0.1,0
				l-4.8-15.4l4.7-3.4l11.7,16.3l-3.2,2.3l-5.5-7.7c-0.3-0.4-0.6-0.8-0.9-1.3c-0.3-0.5-1.2-1.8-2.6-3.9l-0.1,0.1l4.9,15.8L54.7,42.1
				z"/>
			<path class="st4" d="M81.2,29l-10.9,3.7l-6.5-18.9l10.9-3.7l1.1,3.3L69,15.8l1.4,4.2l6.4-2.2l1.1,3.3l-6.4,2.2l1.7,4.9l6.9-2.4
				L81.2,29z"/>
			<path class="st4" d="M103.3,16.6c0.2,3.3-0.4,5.9-2,7.8c-1.5,1.9-3.8,2.9-6.9,3.1s-5.5-0.5-7.2-2.2c-1.8-1.7-2.7-4.2-3-7.5
				c-0.2-3.3,0.4-5.9,2-7.8c1.5-1.9,3.8-2.9,6.9-3.1c3.1-0.2,5.5,0.5,7.2,2.2C102.1,10.8,103,13.3,103.3,16.6z M88.7,17.6
				c0.1,2.2,0.7,3.9,1.6,5c0.9,1.1,2.2,1.6,3.9,1.4c3.4-0.2,4.9-2.6,4.6-7.1c-0.3-4.5-2.1-6.6-5.5-6.4c-1.7,0.1-2.9,0.8-3.7,2
				C88.8,13.6,88.5,15.3,88.7,17.6z"/>
			<path class="st4" d="M121.2,24.4c-0.4,1.8-1.3,3-2.8,3.8c-1.5,0.8-3.4,0.9-5.6,0.5c-2.1-0.4-3.9-1.2-5.3-2.3l0.8-3.9
				c1.2,0.9,2.2,1.5,3.1,1.9c0.9,0.4,1.7,0.7,2.4,0.9c0.9,0.2,1.6,0.2,2.2-0.1c0.6-0.2,0.9-0.7,1-1.4c0.1-0.4,0-0.7-0.1-1.1
				c-0.2-0.3-0.4-0.7-0.8-1.1c-0.4-0.4-1.1-1-2.3-1.8c-1.1-0.8-1.9-1.5-2.4-2.2c-0.5-0.6-0.9-1.3-1.1-2.1c-0.2-0.8-0.2-1.6,0-2.5
				c0.4-1.7,1.2-3,2.6-3.7c1.4-0.8,3.1-0.9,5.2-0.5c1,0.2,2,0.5,2.8,1s1.8,1,2.7,1.6l-2,3c-1-0.6-1.8-1.1-2.4-1.4
				c-0.7-0.3-1.3-0.5-2-0.7c-0.8-0.2-1.4-0.1-1.9,0.2c-0.5,0.3-0.8,0.7-0.9,1.3c-0.1,0.4-0.1,0.7,0.1,1c0.1,0.3,0.3,0.6,0.7,1
				c0.3,0.3,1.1,1,2.4,1.9c1.7,1.2,2.7,2.4,3.2,3.4C121.3,22,121.4,23.1,121.2,24.4z"/>
			<path class="st4" d="M131.1,34.5l-3.9-1.8l6.8-15l-5-2.2l1.5-3.2l13.8,6.2l-1.5,3.2l-5-2.2L131.1,34.5z"/>
			<path class="st4" d="M148.8,46.3l1.8-4.6l-5.7-4.6l-4.1,2.8l-3.6-2.9l18.1-11.3l4.1,3.2l-7,20.1L148.8,46.3z M152,38.2
				c1.6-4.2,2.6-6.6,2.8-7.1c0.2-0.5,0.4-1,0.6-1.3c-1,0.7-3.4,2.4-7.4,5.2L152,38.2z"/>
			<path class="st4" d="M165.7,57.8c-1.4,1.1-3,1.4-4.6,1c-1.6-0.4-3.1-1.5-4.5-3.4c-1.3-1.7-2.1-3.4-2.5-5.2l3.1-2.4
				c0.3,1.4,0.7,2.6,1.1,3.5c0.4,0.9,0.8,1.7,1.3,2.3c0.6,0.7,1.1,1.2,1.7,1.4c0.6,0.2,1.2,0.1,1.7-0.4c0.3-0.2,0.5-0.5,0.6-0.9
				c0.1-0.4,0.2-0.8,0.1-1.3c0-0.5-0.2-1.5-0.5-2.9c-0.3-1.3-0.4-2.4-0.3-3.2s0.2-1.6,0.6-2.3c0.3-0.7,0.9-1.4,1.6-1.9
				c1.4-1.1,2.9-1.4,4.4-1.1c1.5,0.3,2.9,1.4,4.2,3c0.6,0.8,1.1,1.7,1.5,2.6c0.4,0.9,0.7,1.9,1,3l-3.5,0.9c-0.3-1.1-0.6-2-0.9-2.7
				c-0.3-0.7-0.6-1.3-1-1.8c-0.5-0.6-1-1-1.6-1.1c-0.6-0.1-1.1,0-1.6,0.4c-0.3,0.2-0.5,0.5-0.6,0.8c-0.1,0.3-0.2,0.7-0.1,1.1
				c0,0.5,0.2,1.5,0.5,3c0.4,2,0.5,3.6,0.2,4.7C167.4,56.1,166.7,57,165.7,57.8z"/>
			<path class="st4" d="M163.3,65.1l17.9-9.1l1.9,3.8l-17.9,9.1L163.3,65.1z"/>
			<path class="st4" d="M176.4,84c-1.7,0.5-3.3,0.3-4.7-0.6c-1.4-0.9-2.4-2.5-3.1-4.8c-0.6-2-0.8-4-0.5-5.8l3.8-1.1
				c-0.2,1.5-0.3,2.7-0.2,3.7c0,1,0.2,1.8,0.4,2.6c0.3,0.9,0.6,1.5,1.1,1.9c0.5,0.4,1.1,0.5,1.7,0.3c0.4-0.1,0.7-0.3,0.9-0.6
				c0.2-0.3,0.4-0.7,0.6-1.2c0.1-0.5,0.3-1.4,0.6-2.9c0.2-1.3,0.5-2.4,0.8-3.1c0.3-0.7,0.8-1.4,1.4-1.9c0.6-0.6,1.3-1,2.2-1.2
				c1.7-0.5,3.2-0.3,4.5,0.5s2.3,2.3,2.9,4.3c0.3,1,0.5,2,0.5,3c0,1,0,2-0.1,3.1l-3.6-0.4c0.1-1.1,0.2-2.1,0.1-2.8
				c0-0.7-0.1-1.4-0.3-2c-0.2-0.8-0.6-1.3-1.1-1.6s-1-0.4-1.6-0.2c-0.4,0.1-0.6,0.3-0.9,0.5c-0.2,0.2-0.4,0.6-0.5,1
				c-0.1,0.4-0.3,1.4-0.6,3c-0.3,2-0.8,3.5-1.5,4.5C178.6,83,177.6,83.7,176.4,84z"/>
		</g>
	</g>
</g>
<g id="Layer_5" class="st0">
	<g class="st1">
		<circle class="st2" cx="100.9" cy="100.8" r="100.2"/>
		<circle class="st3" cx="100" cy="100.8" r="62.5"/>
		<g>
			<path class="st4" d="M28.7,82.3L28,87.7l-16.2,6.6l0,0.1c2.7,0.2,4.6,0.4,5.7,0.5l9.3,1.3l-0.5,3.8L6.5,97.2l0.7-5.3l16-6.6
				l0-0.1c-2.6-0.2-4.4-0.4-5.5-0.5l-9.4-1.3l0.5-3.8L28.7,82.3z"/>
			<path class="st4" d="M35.5,66l-4.9-0.6l-3,6.7l3.7,3.3l-1.9,4.2L13.9,64.7l2.1-4.7l21.2,1.8L35.5,66z M26.8,64.8
				c-4.5-0.6-7-0.9-7.6-0.9s-1-0.2-1.4-0.2c0.9,0.8,3.2,2.7,6.8,5.9L26.8,64.8z"/>
			<path class="st4" d="M44.2,53.4l-2.7,3.3L28.7,46.4l-3.4,4.2l-2.8-2.2L32,36.7l2.8,2.2l-3.4,4.2L44.2,53.4z"/>
			<path class="st4" d="M50.7,46.8l-13-15.2l3.2-2.8l13,15.2L50.7,46.8z"/>
			<path class="st4" d="M58.5,17.2l3.7-2.1l3.9,20.8l-4,2.3L46.4,24.1l3.7-2.1l9.1,8.5c0.5,0.5,1.1,1.1,1.8,1.8
				c0.7,0.7,1.1,1.2,1.3,1.5c-0.3-0.8-0.7-2.2-1.3-4.3L58.5,17.2z"/>
			<path class="st4" d="M86.3,28.7l-11.1,3.1l-5.4-19.3l11.1-3.1l0.9,3.4l-7,2L76,19l6.5-1.8l0.9,3.4l-6.5,1.8l1.4,5l7-2L86.3,28.7z
				"/>
			<path class="st4" d="M118.4,19.2c-0.4,3.3-1.5,5.7-3.3,7.3c-1.8,1.6-4.3,2.2-7.3,1.9c-3-0.3-5.3-1.5-6.7-3.4
				c-1.4-2-2-4.6-1.6-7.9c0.4-3.3,1.5-5.8,3.3-7.3c1.8-1.6,4.3-2.2,7.3-1.8c3.1,0.3,5.3,1.5,6.7,3.4
				C118.3,13.2,118.8,15.9,118.4,19.2z M103.9,17.6c-0.2,2.2,0,3.9,0.7,5.2c0.7,1.2,1.9,1.9,3.6,2.1c3.4,0.4,5.3-1.7,5.8-6.2
				c0.5-4.5-0.9-6.9-4.3-7.3c-1.7-0.2-3,0.2-4,1.3C104.8,13.7,104.2,15.3,103.9,17.6z"/>
			<path class="st4" d="M139.7,23.1c-0.8,2-2.1,3.3-3.7,3.8c-1.7,0.6-3.7,0.4-6-0.6l-1.7-0.7l-2.7,6.6l-3.9-1.6l7.5-18.6l5.9,2.4
				c2.3,0.9,3.8,2.1,4.5,3.5C140.4,19.5,140.4,21.2,139.7,23.1z M129.6,22.5l1.3,0.5c1.2,0.5,2.2,0.6,3,0.4c0.8-0.2,1.4-0.8,1.7-1.7
				c0.4-0.9,0.4-1.7,0.1-2.4c-0.3-0.6-1-1.2-2.1-1.6l-1.8-0.7L129.6,22.5z"/>
			<path class="st4" d="M138.3,38.5l11-16.7l3.6,2.3l-11,16.7L138.3,38.5z"/>
			<path class="st4" d="M166.5,50c-2.4,2.3-4.8,3.5-7.2,3.5c-2.4,0-4.7-1-6.8-3.3c-2.1-2.2-3.1-4.5-3-6.9c0.1-2.4,1.4-4.8,3.8-7.1
				c2.4-2.3,4.8-3.5,7.2-3.5c2.4,0,4.7,1.1,6.8,3.3c2.1,2.2,3.1,4.5,3,6.9C170.2,45.4,168.9,47.7,166.5,50z M156.4,39.5
				c-1.6,1.5-2.5,3-2.8,4.4c-0.2,1.4,0.2,2.7,1.4,3.9c2.3,2.4,5.1,2.1,8.4-1c3.3-3.1,3.7-5.9,1.4-8.3c-1.2-1.2-2.5-1.7-3.9-1.6
				C159.5,37.1,158,37.9,156.4,39.5z"/>
			<path class="st4" d="M161.5,61.3L178.7,51l2.2,3.6L163.7,65L161.5,61.3z"/>
			<path class="st4" d="M181.7,82.3c-3.1,1.1-5.8,1-8.1-0.2c-2.3-1.2-4-3.5-5.1-6.9l-1.8-5.4l19-6.4l2,6c1.1,3.1,1.1,5.8,0,8
				C186.6,79.7,184.6,81.3,181.7,82.3z M180.2,78.2c4.1-1.4,5.5-3.9,4.3-7.5l-0.7-2.1l-12.3,4.2l0.6,1.7
				C173.3,78.4,176,79.6,180.2,78.2z"/>
			<path class="st4" d="M178.9,101.7c-1.8,0.1-3.3-0.4-4.4-1.6c-1.1-1.2-1.8-3-2-5.3c-0.2-2.1,0.1-4,0.8-5.7l3.9-0.3
				c-0.5,1.4-0.8,2.6-1,3.5s-0.2,1.8-0.2,2.6c0.1,0.9,0.3,1.6,0.7,2.1c0.4,0.5,0.9,0.7,1.6,0.6c0.4,0,0.7-0.2,1-0.4
				c0.3-0.2,0.6-0.6,0.8-1c0.3-0.4,0.6-1.3,1.2-2.7c0.5-1.3,1-2.2,1.5-2.9c0.5-0.6,1.1-1.2,1.7-1.6c0.7-0.4,1.5-0.7,2.4-0.7
				c1.8-0.1,3.2,0.4,4.3,1.5c1.1,1.1,1.7,2.7,1.9,4.9c0.1,1,0,2-0.2,3c-0.2,1-0.5,2-0.8,3l-3.4-1.1c0.4-1.1,0.6-2,0.7-2.7
				c0.1-0.7,0.2-1.4,0.1-2.1c-0.1-0.8-0.3-1.4-0.7-1.8c-0.4-0.4-0.9-0.6-1.5-0.5c-0.4,0-0.7,0.1-1,0.3c-0.3,0.2-0.5,0.5-0.7,0.9
				c-0.2,0.4-0.6,1.3-1.2,2.8c-0.8,1.9-1.6,3.3-2.4,4C181.3,101.2,180.2,101.6,178.9,101.7z"/>
		</g>
	</g>
</g>
<g id="Layer_4" class="st0">
	<g class="st1">
		<circle class="st2" cx="100.2" cy="100.2" r="100.2"/>
		<circle class="st3" cx="100.2" cy="100.2" r="62.5"/>
		<g>
			<path class="st4" d="M28.4,85.8L27.7,90l-11.5-1.7l-1.9-0.3l-2-0.4c0.6,0.8,1,1.4,1.1,1.7l1.5,2.6l-2.8,1.6l-4.1-7.1l0.5-3.4
				L28.4,85.8z"/>
			<path class="st4" d="M29.3,65.4c1.7,0.7,2.8,1.8,3.3,3.4c0.5,1.6,0.3,3.5-0.5,5.6c-0.8,2-1.8,3.6-3.2,4.8l-3.7-1.4
				c1.1-1,1.9-2,2.4-2.7c0.6-0.8,1-1.5,1.3-2.3c0.3-0.9,0.4-1.6,0.3-2.2c-0.2-0.6-0.6-1-1.2-1.3c-0.4-0.1-0.7-0.2-1.1-0.1
				c-0.4,0.1-0.8,0.3-1.2,0.6c-0.4,0.3-1.2,0.9-2.2,1.9c-1,0.9-1.8,1.6-2.5,2c-0.7,0.4-1.5,0.6-2.3,0.7c-0.8,0.1-1.6,0-2.5-0.4
				c-1.7-0.6-2.7-1.7-3.2-3.2c-0.5-1.5-0.4-3.2,0.4-5.2c0.4-1,0.9-1.9,1.4-2.6c0.6-0.8,1.3-1.6,2-2.4l2.6,2.5
				c-0.8,0.8-1.4,1.5-1.8,2.1c-0.4,0.6-0.7,1.2-1,1.8c-0.3,0.7-0.3,1.4-0.1,1.9c0.2,0.5,0.6,0.9,1.1,1.1c0.3,0.1,0.7,0.2,1,0.1
				c0.3-0.1,0.7-0.2,1.1-0.5c0.4-0.3,1.1-0.9,2.3-2c1.5-1.4,2.8-2.3,3.9-2.6C26.9,64.8,28.1,64.9,29.3,65.4z"/>
			<path class="st4" d="M40.9,57.3l-2.4,3.5l-13.6-9.3L21.8,56l-2.9-2l8.5-12.5l2.9,2L27.2,48L40.9,57.3z"/>
			<path class="st4" d="M61.9,25.7c1.8,2.8,2.6,5.3,2.2,7.7c-0.4,2.4-1.8,4.4-4.4,6.1c-2.6,1.7-5,2.3-7.4,1.7
				c-2.4-0.6-4.5-2.2-6.3-5s-2.6-5.3-2.2-7.7c0.4-2.4,1.9-4.4,4.4-6.1c2.6-1.7,5-2.3,7.3-1.7C57.9,21.3,60,23,61.9,25.7z M49.7,33.9
				c1.2,1.9,2.5,3,3.9,3.5c1.3,0.5,2.7,0.2,4.1-0.7c2.8-1.9,3-4.7,0.5-8.4c-2.5-3.8-5.2-4.7-8-2.8c-1.4,0.9-2.1,2.1-2.2,3.5
				C47.9,30.4,48.5,32,49.7,33.9z"/>
			<path class="st4" d="M80.7,15.1c0.7,2.1,0.5,3.8-0.4,5.3c-0.9,1.5-2.6,2.6-4.9,3.4l-1.7,0.6l2.2,6.8l-4,1.3l-6.1-19.1l6.1-2
				c2.3-0.7,4.2-0.8,5.8-0.2C79,11.9,80.1,13.2,80.7,15.1z M72.6,21.1l1.3-0.4c1.2-0.4,2.1-0.9,2.6-1.6c0.5-0.7,0.5-1.5,0.2-2.4
				c-0.3-0.9-0.8-1.6-1.5-1.8c-0.7-0.3-1.5-0.2-2.7,0.1l-1.8,0.6L72.6,21.1z"/>
			<path class="st4" d="M89.5,27.8L87.2,7.9l4.2-0.5l2.3,19.9L89.5,27.8z"/>
			<path class="st4" d="M118.6,18.5c-0.4,3.3-1.5,5.7-3.3,7.3c-1.8,1.6-4.3,2.2-7.3,1.9c-3-0.3-5.3-1.5-6.7-3.4s-2-4.6-1.6-7.9
				c0.4-3.3,1.5-5.8,3.3-7.3c1.8-1.6,4.3-2.2,7.3-1.9c3.1,0.3,5.3,1.5,6.7,3.4C118.4,12.6,118.9,15.2,118.6,18.5z M104,16.9
				c-0.2,2.2,0,3.9,0.7,5.2c0.7,1.2,1.9,1.9,3.6,2.1c3.4,0.4,5.3-1.7,5.8-6.2c0.5-4.5-0.9-6.9-4.3-7.3c-1.7-0.2-3,0.2-4,1.3
				C104.9,13.1,104.3,14.7,104,16.9z"/>
			<path class="st4" d="M121.9,30.3l6.7-18.9l4,1.4l-6.7,18.9L121.9,30.3z"/>
			<path class="st4" d="M150.9,33.5c-1.7,2.8-3.8,4.5-6.3,5c-2.5,0.5-5.3-0.1-8.3-2l-4.8-2.9l10.4-17.1l5.4,3.3
				c2.8,1.7,4.5,3.8,5.2,6.2C153,28.3,152.5,30.9,150.9,33.5z M147.1,31.3c2.2-3.7,1.7-6.5-1.5-8.5l-1.9-1.2l-6.8,11.1l1.6,0.9
				C141.9,35.9,144.8,35.1,147.1,31.3z"/>
			<path class="st4" d="M180.8,52.9l-10.6,7.5c-1.2,0.9-2.5,1.3-3.7,1.4c-1.3,0.1-2.5-0.2-3.8-0.9s-2.3-1.7-3.3-3.1
				c-1.5-2.1-2.1-4.1-1.9-6c0.3-1.9,1.3-3.6,3.2-4.9l10.5-7.5l2.5,3.5l-10,7.1c-1.3,0.9-2,1.8-2.2,2.7c-0.2,0.9,0.1,2,0.9,3.1
				c0.8,1.1,1.7,1.7,2.6,1.8c1,0.1,2.1-0.3,3.3-1.2l10-7.1L180.8,52.9z"/>
			<path class="st4" d="M176.1,78.5c-1.7,0.6-3.3,0.5-4.7-0.3c-1.4-0.8-2.6-2.4-3.4-4.5c-0.8-2-1.1-3.9-0.9-5.7l3.7-1.4
				c-0.1,1.5-0.1,2.7,0,3.7c0.1,1,0.3,1.8,0.6,2.5c0.3,0.9,0.8,1.5,1.3,1.8c0.5,0.3,1.1,0.4,1.8,0.1c0.4-0.1,0.7-0.4,0.9-0.7
				c0.2-0.3,0.4-0.7,0.5-1.2c0.1-0.5,0.2-1.5,0.3-2.9c0.1-1.3,0.3-2.4,0.6-3.2c0.3-0.8,0.7-1.4,1.2-2c0.5-0.6,1.2-1.1,2.1-1.4
				c1.7-0.6,3.2-0.6,4.5,0.2c1.4,0.8,2.4,2.1,3.2,4.1c0.4,1,0.6,1.9,0.7,2.9c0.1,1,0.1,2,0.1,3.1l-3.6-0.1c0-1.2,0-2.1-0.1-2.8
				c-0.1-0.7-0.2-1.4-0.5-2c-0.3-0.8-0.7-1.3-1.2-1.5c-0.5-0.3-1-0.3-1.6-0.1c-0.4,0.1-0.6,0.3-0.8,0.6c-0.2,0.3-0.4,0.6-0.5,1.1
				c-0.1,0.4-0.2,1.5-0.4,3c-0.2,2.1-0.6,3.6-1.2,4.6C178.2,77.3,177.3,78.1,176.1,78.5z"/>
			<path class="st4" d="M173.4,96.1l-1.6-11.4l19.8-2.8l1.6,11.4l-3.4,0.5l-1-7.2l-4.4,0.6l0.9,6.7l-3.4,0.5l-0.9-6.7l-5.1,0.7
				l1,7.2L173.4,96.1z"/>
		</g>
	</g>
</g>
<g id="Layer_3">
	<g>
		<circle class="st2" cx="100.7" cy="100.2" r="100.2"/>
		<circle class="st3" cx="100.7" cy="100.2" r="62.5"/>
		<g>
			<path class="st4" d="M40.4,59.6l-2.3,3.6l-14-8.8l-2.9,4.6l-3-1.9l8-12.8l3,1.9l-2.9,4.6L40.4,59.6z"/>
			<path class="st4" d="M52.1,32.5c2.2,2.4,3.4,4.9,3.4,7.3c0,2.4-1.1,4.7-3.4,6.7c-2.3,2.1-4.6,3-7,2.8c-2.4-0.2-4.8-1.5-7-4
				c-2.3-2.5-3.4-4.9-3.3-7.3c0-2.4,1.2-4.7,3.4-6.7c2.3-2.1,4.6-3,7-2.8C47.5,28.7,49.8,30.1,52.1,32.5z M41.3,42.4
				c1.5,1.6,3,2.6,4.4,2.9c1.4,0.3,2.7-0.2,4-1.3c2.5-2.3,2.2-5.1-0.8-8.4c-3.1-3.3-5.8-3.8-8.3-1.6c-1.2,1.1-1.8,2.4-1.7,3.8
				C39,39.2,39.8,40.7,41.3,42.4z"/>
			<path class="st4" d="M63,37.7l-9.2-17.8l3.8-1.9l7.6,14.7l7.2-3.7L74,32L63,37.7z"/>
			<path class="st4" d="M89.1,27.9l-11.2,2.9l-5-19.4l11.2-2.9l0.9,3.4l-7.1,1.8l1.1,4.3l6.6-1.7l0.9,3.4l-6.6,1.7l1.3,5l7.1-1.8
				L89.1,27.9z"/>
			<path class="st4" d="M98,19.5l0.1,7.7l-4.2,0l-0.2-20l5.8-0.1c2.7,0,4.7,0.4,6.1,1.4c1.3,1,2,2.5,2,4.5c0,1.2-0.3,2.2-0.9,3.2
				c-0.6,0.9-1.5,1.7-2.7,2.2c3.1,4.5,5.1,7.4,6,8.7l-4.7,0l-4.9-7.6L98,19.5z M97.9,16l1.4,0c1.3,0,2.3-0.2,3-0.7s0.9-1.2,0.9-2.1
				c0-1-0.3-1.6-1-2c-0.7-0.4-1.7-0.6-3-0.6l-1.3,0L97.9,16z"/>
			<path class="st4" d="M124.6,30.8l-0.2-5l-7.1-1.8l-2.6,4.2l-4.4-1.1l11.9-17.7l5,1.3l1.8,21.2L124.6,30.8z M124.3,22.1
				c-0.2-4.5-0.3-7.1-0.4-7.7c0-0.6,0-1.1,0-1.4c-0.6,1.1-2.1,3.6-4.7,7.7L124.3,22.1z"/>
			<path class="st4" d="M146.9,42.4l-4.6-2.8l0.5-17.5l-0.1-0.1c-1.2,2.4-2.2,4-2.8,5l-4.9,8l-3.2-2l10.4-17.1l4.6,2.8l-0.4,17.3
				l0.1,0c1.2-2.3,2.1-3.9,2.7-4.8l4.9-8.1l3.3,2L146.9,42.4z"/>
			<path class="st4" d="M169,41.1c-1.1-1.2-2.4-1.7-3.8-1.5c-1.5,0.2-3,1-4.6,2.4c-3.3,3-3.8,5.8-1.5,8.2c1,1,2.4,2.1,4.2,3.1
				l-2.6,2.4c-1.6-0.7-3.1-1.9-4.5-3.4c-2-2.1-2.8-4.4-2.6-6.7c0.3-2.3,1.6-4.6,4-6.9c1.5-1.4,3.1-2.4,4.8-2.9
				c1.7-0.5,3.3-0.5,4.9,0c1.6,0.5,3,1.4,4.3,2.8c1.3,1.4,2.3,3.2,2.9,5.3l-3.5,1.3c-0.2-0.8-0.5-1.6-0.8-2.3
				C169.9,42.2,169.5,41.6,169,41.1z"/>
			<path class="st4" d="M168.3,70.4l-5.6-10.1l17.5-9.7l5.6,10.1l-3,1.7l-3.5-6.4l-3.9,2.1l3.3,5.9l-3,1.7l-3.3-5.9l-4.5,2.5
				l3.5,6.4L168.3,70.4z"/>
		</g>
	</g>
</g>
<g id="Layer_2" class="st0">
	<g class="st1">
		<circle class="st2" cx="100.5" cy="100.2" r="100.2"/>
		<circle class="st3" cx="100.5" cy="100.2" r="62.5"/>
		<g>
			<path class="st4" d="M46.4,52.3l-2.8,4l-10.2-3.8c-0.4-0.1-1.1-0.4-2.2-0.9c-1.1-0.5-1.8-0.8-2.2-1c0.4,0.3,0.9,0.9,1.7,1.7
				c0.8,0.8,1.3,1.4,1.6,1.8l7,8.2l-2.8,3.9l-19.3-7.3l2.4-3.4l10.4,4.2c1.9,0.8,3.5,1.5,4.9,2.2c-0.4-0.3-1-0.9-1.8-1.7
				s-1.4-1.4-1.8-1.9L24,49.4l2.3-3.3l10.9,4c0.5,0.2,1.2,0.5,2.2,0.9c1,0.4,1.8,0.8,2.4,1.2c-0.5-0.5-1.2-1.1-1.9-1.9
				c-0.8-0.8-1.4-1.4-1.8-1.9l-7.5-8.4l2.4-3.4L46.4,52.3z"/>
			<path class="st4" d="M52.5,46.9l-13-15.2l3.2-2.8l13,15.2L52.5,46.9z"/>
			<path class="st4" d="M67,36.6l-3.7,2.1l-8.2-14.3l-4.7,2.7l-1.8-3.1l13.1-7.5l1.8,3.1l-4.7,2.7L67,36.6z"/>
			<path class="st4" d="M90.9,28.4l-4.1,1.1l-2.2-8.4l-7.7,2l2.2,8.4L75,32.5l-5.1-19.4l4.1-1.1l2,7.6l7.7-2l-2-7.6L85.8,9
				L90.9,28.4z"/>
			<path class="st4" d="M113.3,18.2c-0.1,3.3-1.1,5.8-3.1,7.5c-1.9,1.7-4.7,2.5-8.2,2.3l-5.7-0.2l0.7-20l6.3,0.2
				c3.3,0.1,5.8,1.1,7.5,2.9C112.5,12.7,113.4,15.1,113.3,18.2z M108.8,18.1c0.2-4.3-1.7-6.5-5.5-6.6l-2.3-0.1l-0.5,13l1.8,0.1
				C106.6,24.7,108.7,22.5,108.8,18.1z"/>
			<path class="st4" d="M123.8,23.4l-2.3,7.3l-4-1.3l6.1-19.1l5.6,1.8c2.6,0.8,4.4,1.9,5.3,3.3c0.9,1.3,1.1,3,0.5,4.9
				c-0.4,1.1-1,2-1.9,2.7c-0.9,0.7-2,1.1-3.3,1.2c1.5,5.2,2.5,8.6,3,10.1l-4.5-1.4l-2.2-8.8L123.8,23.4z M124.8,20.1l1.3,0.4
				c1.3,0.4,2.3,0.5,3,0.3c0.7-0.2,1.3-0.8,1.6-1.7c0.3-0.9,0.2-1.6-0.3-2.2c-0.5-0.6-1.4-1.1-2.7-1.5l-1.2-0.4L124.8,20.1z"/>
			<path class="st4" d="M145.5,42.5l1.4-4.8l-6.1-4L137,37l-3.8-2.5l16.9-13l4.4,2.8l-5,20.7L145.5,42.5z M148,34.2
				c1.2-4.4,1.9-6.8,2.1-7.4c0.2-0.6,0.3-1,0.4-1.3c-0.9,0.8-3.2,2.8-6.9,5.9L148,34.2z"/>
			<path class="st4" d="M163.8,62l-3-3.8l6.5-8.7c0.2-0.3,0.7-0.9,1.5-1.9c0.8-0.9,1.3-1.5,1.6-1.8c-0.4,0.3-1.1,0.7-2.1,1.2
				c-1,0.5-1.7,0.9-2.1,1.1l-9.9,4.5l-3-3.8l12.4-16.5l2.6,3.3l-6.9,8.8c-1.3,1.6-2.5,3-3.5,4c0.4-0.3,1.1-0.7,2.1-1.2
				c1-0.5,1.7-0.9,2.3-1.2l10.6-4.8l2.5,3.1l-6.9,9.3c-0.3,0.4-0.8,1-1.5,1.8s-1.3,1.5-1.8,2c0.6-0.4,1.4-0.8,2.4-1.3
				c1-0.5,1.7-0.9,2.4-1.2l10.1-4.9l2.6,3.3L163.8,62z"/>
			<path class="st4" d="M167.4,69l18.6-7.4l1.6,3.9l-15.4,6.1l3,7.5l-3.3,1.3L167.4,69z"/>
		</g>
	</g>
</g>
</svg>
