<?xml version="1.0" encoding="utf-8"?>
<!-- Generator: Adobe Illustrator 23.0.1, SVG Export Plug-In . SVG Version: 6.00 Build 0)  -->
<svg version="1.1" xmlns="http://www.w3.org/2000/svg" xmlns:xlink="http://www.w3.org/1999/xlink" x="0px" y="0px"
	 viewBox="0 0 125 125" style="enable-background:new 0 0 125 125;" xml:space="preserve">
<style type="text/css">
	.st0{display:none;}
	.st1{display:inline;}
	.st2{fill:#331F3D;}
	.st3{fill:#7A3E48;}
	.st4{fill:#FFFFFF;}
	.st5{fill:none;}
	.st6{fill:#C170B6;}
	.st7{fill:#EACA81;}
	.st8{fill:#AA66A7;}
	.st9{fill:#EFAC7F;}
	.st10{fill:#D19E78;}
	.st11{fill:#494234;}
	.st12{fill:#4C4C4C;}
	.st13{fill:#E2C281;}
	.st14{fill:#5E73CC;}
	.st15{fill:#7587D3;}
	.st16{fill:#626DD1;}
	.st17{fill:#7282DB;}
	.st18{fill:#F4CA9D;}
	.st19{display:inline;fill:#FFFFFF;}
	.st20{fill:#F3FFFE;}
	.st21{fill:#686868;}
	.st22{fill:#EAEAEA;}
	.st23{fill:#C4E1E8;}
	.st24{fill:#C67FBF;}
	.st25{fill:#B76EB0;}
	.st26{fill:#F48B00;}
	.st27{fill:#E27905;}
	.st28{fill:#CCCCCC;}
	.st29{fill:#6D6D6D;}
	.st30{fill:#2D210E;}
	.st31{fill:#705C43;}
	.st32{fill:#EFEFEF;}
	.st33{fill:#CEEA81;}
	.st34{fill:#D82A19;}
</style>
<g id="Layer_1" class="st0">
	<g id="Layer_5">
		<g class="st1">
			<circle class="st2" cx="62.8" cy="62.8" r="100.2"/>
			<circle class="st3" cx="61.9" cy="62.8" r="62.5"/>
			<g>
				<path class="st4" d="M-9.4,44.3l-0.7,5.4l-16.2,6.6v0.1c2.7,0.2,4.6,0.4,5.7,0.5l9.3,1.3l-0.5,3.8l-19.8-2.8l0.7-5.3l16-6.6
					v-0.1c-2.6-0.2-4.4-0.4-5.5-0.5l-9.4-1.3l0.5-3.8L-9.4,44.3z"/>
				<path class="st4" d="M-2.6,28l-4.9-0.6l-3,6.7l3.7,3.3l-1.9,4.2l-15.5-14.9l2.1-4.7l21.2,1.8L-2.6,28z M-11.3,26.8
					c-4.5-0.6-7-0.9-7.6-0.9s-1-0.2-1.4-0.2c0.9,0.8,3.2,2.7,6.8,5.9L-11.3,26.8z"/>
				<path class="st4" d="M6.1,15.4l-2.7,3.3L-9.4,8.4l-3.4,4.2l-2.8-2.2l9.5-11.7l2.8,2.2l-3.4,4.2L6.1,15.4z"/>
				<path class="st4" d="M12.6,8.8l-13-15.2l3.2-2.8L15.8,6L12.6,8.8z"/>
				<path class="st4" d="M20.4-20.8l3.7-2.1L28-2.1l-4,2.3L8.3-13.9L12-16l9.1,8.5C21.7-7,22.2-6.4,23-5.7C23.7-5,24-4.5,24.2-4.2
					C24-5,23.5-6.4,23-8.5L20.4-20.8z"/>
				<path class="st4" d="M48.2-9.3L37.2-6.2l-5.4-19.3l11.1-3.1l0.9,3.4l-7,2l1.2,4.2l6.5-1.8l0.9,3.4l-6.5,1.8l1.4,5l7-2L48.2-9.3z
					"/>
				<path class="st4" d="M80.3-18.8c-0.4,3.3-1.5,5.7-3.3,7.3c-1.8,1.6-4.3,2.2-7.3,1.9c-3-0.3-5.3-1.5-6.7-3.4
					c-1.4-2-2-4.6-1.6-7.9s1.5-5.8,3.3-7.3c1.8-1.6,4.3-2.2,7.3-1.8c3.1,0.3,5.3,1.5,6.7,3.4C80.2-24.8,80.8-22.1,80.3-18.8z
					 M65.8-20.4c-0.2,2.2,0,3.9,0.7,5.2c0.7,1.2,1.9,1.9,3.6,2.1c3.4,0.4,5.3-1.7,5.8-6.2s-0.9-6.9-4.3-7.3c-1.7-0.2-3,0.2-4,1.3
					C66.8-24.3,66.1-22.7,65.8-20.4z"/>
				<path class="st4" d="M101.6-14.9c-0.8,2-2.1,3.3-3.7,3.8c-1.7,0.6-3.7,0.4-6-0.6l-1.7-0.7l-2.7,6.6l-3.9-1.6L91.2-26l5.9,2.4
					c2.3,0.9,3.8,2.1,4.5,3.5C102.3-18.5,102.3-16.8,101.6-14.9z M91.6-15.5l1.3,0.5c1.2,0.5,2.2,0.6,3,0.4s1.4-0.8,1.7-1.7
					c0.4-0.9,0.4-1.7,0.1-2.4c-0.3-0.6-1-1.2-2.1-1.6L93.8-21L91.6-15.5z"/>
				<path class="st4" d="M100.2,0.5l11-16.7l3.6,2.3l-11,16.7L100.2,0.5z"/>
				<path class="st4" d="M128.4,12c-2.4,2.3-4.8,3.5-7.2,3.5s-4.7-1-6.8-3.3c-2.1-2.2-3.1-4.5-3-6.9s1.4-4.8,3.8-7.1
					c2.4-2.3,4.8-3.5,7.2-3.5s4.7,1.1,6.8,3.3s3.1,4.5,3,6.9C132.1,7.4,130.8,9.7,128.4,12z M118.3,1.5c-1.6,1.5-2.5,3-2.8,4.4
					c-0.2,1.4,0.2,2.7,1.4,3.9c2.3,2.4,5.1,2.1,8.4-1c3.3-3.1,3.7-5.9,1.4-8.3c-1.2-1.2-2.5-1.7-3.9-1.6
					C121.4-0.9,119.9-0.1,118.3,1.5z"/>
				<path class="st4" d="M123.4,23.3L140.6,13l2.2,3.6L125.6,27L123.4,23.3z"/>
				<path class="st4" d="M143.6,44.3c-3.1,1.1-5.8,1-8.1-0.2s-4-3.5-5.1-6.9l-1.8-5.4l19-6.4l2,6c1.1,3.1,1.1,5.8,0,8
					C148.6,41.7,146.6,43.3,143.6,44.3z M142.1,40.2c4.1-1.4,5.5-3.9,4.3-7.5l-0.7-2.1l-12.3,4.2l0.6,1.7
					C135.2,40.4,137.9,41.6,142.1,40.2z"/>
				<path class="st4" d="M140.8,63.7c-1.8,0.1-3.3-0.4-4.4-1.6c-1.1-1.2-1.8-3-2-5.3c-0.2-2.1,0.1-4,0.8-5.7l3.9-0.3
					c-0.5,1.4-0.8,2.6-1,3.5s-0.2,1.8-0.2,2.6c0.1,0.9,0.3,1.6,0.7,2.1s0.9,0.7,1.6,0.6c0.4,0,0.7-0.2,1-0.4c0.3-0.2,0.6-0.6,0.8-1
					c0.3-0.4,0.6-1.3,1.2-2.7c0.5-1.3,1-2.2,1.5-2.9c0.5-0.6,1.1-1.2,1.7-1.6c0.7-0.4,1.5-0.7,2.4-0.7c1.8-0.1,3.2,0.4,4.3,1.5
					s1.7,2.7,1.9,4.9c0.1,1,0,2-0.2,3s-0.5,2-0.8,3l-3.4-1.1c0.4-1.1,0.6-2,0.7-2.7c0.1-0.7,0.2-1.4,0.1-2.1
					c-0.1-0.8-0.3-1.4-0.7-1.8s-0.9-0.6-1.5-0.5c-0.4,0-0.7,0.1-1,0.3c-0.3,0.2-0.5,0.5-0.7,0.9s-0.6,1.3-1.2,2.8
					c-0.8,1.9-1.6,3.3-2.4,4C143.2,63.2,142.1,63.6,140.8,63.7z"/>
			</g>
		</g>
	</g>
	<g id="Layer_4">
		<g class="st1">
			<circle class="st2" cx="62.1" cy="62.2" r="100.2"/>
			<circle class="st3" cx="62.1" cy="62.2" r="62.5"/>
			<g>
				<path class="st4" d="M-9.7,47.8l-0.7,4.2l-11.5-1.7l-1.9-0.3l-2-0.4c0.6,0.8,1,1.4,1.1,1.7l1.5,2.6l-2.8,1.6l-4.1-7.1l0.5-3.4
					L-9.7,47.8z"/>
				<path class="st4" d="M-8.8,27.4c1.7,0.7,2.8,1.8,3.3,3.4s0.3,3.5-0.5,5.6c-0.8,2-1.8,3.6-3.2,4.8l-3.7-1.4c1.1-1,1.9-2,2.4-2.7
					c0.6-0.8,1-1.5,1.3-2.3c0.3-0.9,0.4-1.6,0.3-2.2c-0.2-0.6-0.6-1-1.2-1.3c-0.4-0.1-0.7-0.2-1.1-0.1s-0.8,0.3-1.2,0.6
					c-0.4,0.3-1.2,0.9-2.2,1.9c-1,0.9-1.8,1.6-2.5,2s-1.5,0.6-2.3,0.7s-1.6,0-2.5-0.4c-1.7-0.6-2.7-1.7-3.2-3.2s-0.4-3.2,0.4-5.2
					c0.4-1,0.9-1.9,1.4-2.6c0.6-0.8,1.3-1.6,2-2.4l2.6,2.5c-0.8,0.8-1.4,1.5-1.8,2.1s-0.7,1.2-1,1.8c-0.3,0.7-0.3,1.4-0.1,1.9
					c0.2,0.5,0.6,0.9,1.1,1.1c0.3,0.1,0.7,0.2,1,0.1s0.7-0.2,1.1-0.5s1.1-0.9,2.3-2c1.5-1.4,2.8-2.3,3.9-2.6
					C-11.2,26.8-10,26.9-8.8,27.4z"/>
				<path class="st4" d="M2.8,19.3l-2.4,3.5l-13.6-9.3l-3.1,4.5l-2.9-2l8.5-12.5l2.9,2l-3.1,4.5L2.8,19.3z"/>
				<path class="st4" d="M23.8-12.3C25.6-9.5,26.4-7,26-4.6s-1.8,4.4-4.4,6.1c-2.6,1.7-5,2.3-7.4,1.7S9.7,1,7.9-1.8S5.3-7.1,5.7-9.5
					c0.4-2.4,1.9-4.4,4.4-6.1c2.6-1.7,5-2.3,7.3-1.7C19.8-16.7,21.9-15,23.8-12.3z M11.6-4.1c1.2,1.9,2.5,3,3.9,3.5
					c1.3,0.5,2.7,0.2,4.1-0.7c2.8-1.9,3-4.7,0.5-8.4c-2.5-3.8-5.2-4.7-8-2.8C10.7-11.6,10-10.4,9.9-9C9.8-7.6,10.4-6,11.6-4.1z"/>
				<path class="st4" d="M42.6-22.9c0.7,2.1,0.5,3.8-0.4,5.3c-0.9,1.5-2.6,2.6-4.9,3.4l-1.7,0.6l2.2,6.8l-4,1.3l-6.1-19.1l6.1-2
					c2.3-0.7,4.2-0.8,5.8-0.2C40.9-26.1,42-24.8,42.6-22.9z M34.5-16.9l1.3-0.4c1.2-0.4,2.1-0.9,2.6-1.6s0.5-1.5,0.2-2.4
					s-0.8-1.6-1.5-1.8c-0.7-0.3-1.5-0.2-2.7,0.1l-1.8,0.6L34.5-16.9z"/>
				<path class="st4" d="M51.4-10.2l-2.3-19.9l4.2-0.5l2.3,19.9L51.4-10.2z"/>
				<path class="st4" d="M80.5-19.5c-0.4,3.3-1.5,5.7-3.3,7.3c-1.8,1.6-4.3,2.2-7.3,1.9c-3-0.3-5.3-1.5-6.7-3.4s-2-4.6-1.6-7.9
					s1.5-5.8,3.3-7.3c1.8-1.6,4.3-2.2,7.3-1.9c3.1,0.3,5.3,1.5,6.7,3.4C80.3-25.4,80.8-22.8,80.5-19.5z M65.9-21.1
					c-0.2,2.2,0,3.9,0.7,5.2c0.7,1.2,1.9,1.9,3.6,2.1c3.4,0.4,5.3-1.7,5.8-6.2s-0.9-6.9-4.3-7.3c-1.7-0.2-3,0.2-4,1.3
					C66.8-24.9,66.2-23.3,65.9-21.1z"/>
				<path class="st4" d="M83.8-7.7l6.7-18.9l4,1.4L87.9-6.3L83.8-7.7z"/>
				<path class="st4" d="M112.8-4.5c-1.7,2.8-3.8,4.5-6.3,5s-5.3-0.1-8.3-2l-4.8-2.9l10.4-17.1l5.4,3.3c2.8,1.7,4.5,3.8,5.2,6.2
					C114.9-9.7,114.4-7.1,112.8-4.5z M109.1-6.7c2.2-3.7,1.7-6.5-1.5-8.5l-1.9-1.2L98.9-5.3l1.6,0.9C103.8-2.1,106.8-2.9,109.1-6.7z
					"/>
				<path class="st4" d="M142.8,14.9l-10.6,7.5c-1.2,0.9-2.5,1.3-3.7,1.4c-1.3,0.1-2.5-0.2-3.8-0.9s-2.3-1.7-3.3-3.1
					c-1.5-2.1-2.1-4.1-1.9-6c0.3-1.9,1.3-3.6,3.2-4.9l10.5-7.5l2.5,3.5l-10,7.1c-1.3,0.9-2,1.8-2.2,2.7s0.1,2,0.9,3.1
					c0.8,1.1,1.7,1.7,2.6,1.8c1,0.1,2.1-0.3,3.3-1.2l10-7.1L142.8,14.9z"/>
				<path class="st4" d="M138.1,40.5c-1.7,0.6-3.3,0.5-4.7-0.3s-2.6-2.4-3.4-4.5c-0.8-2-1.1-3.9-0.9-5.7l3.7-1.4
					c-0.1,1.5-0.1,2.7,0,3.7s0.3,1.8,0.6,2.5c0.3,0.9,0.8,1.5,1.3,1.8s1.1,0.4,1.8,0.1c0.4-0.1,0.7-0.4,0.9-0.7
					c0.2-0.3,0.4-0.7,0.5-1.2s0.2-1.5,0.3-2.9c0.1-1.3,0.3-2.4,0.6-3.2c0.3-0.8,0.7-1.4,1.2-2s1.2-1.1,2.1-1.4
					c1.7-0.6,3.2-0.6,4.5,0.2c1.4,0.8,2.4,2.1,3.2,4.1c0.4,1,0.6,1.9,0.7,2.9c0.1,1,0.1,2,0.1,3.1l-3.6-0.1c0-1.2,0-2.1-0.1-2.8
					c-0.1-0.7-0.2-1.4-0.5-2c-0.3-0.8-0.7-1.3-1.2-1.5c-0.5-0.3-1-0.3-1.6-0.1c-0.4,0.1-0.6,0.3-0.8,0.6c-0.2,0.3-0.4,0.6-0.5,1.1
					c-0.1,0.4-0.2,1.5-0.4,3c-0.2,2.1-0.6,3.6-1.2,4.6C140.1,39.3,139.2,40.1,138.1,40.5z"/>
				<path class="st4" d="M135.3,58.1l-1.6-11.4l19.8-2.8l1.6,11.4l-3.4,0.5l-1-7.2l-4.4,0.6l0.9,6.7l-3.4,0.5l-0.9-6.7l-5.1,0.7
					l1,7.2L135.3,58.1z"/>
			</g>
		</g>
	</g>
	<g id="Layer_3">
		<g class="st1">
			<circle class="st2" cx="62.6" cy="62.2" r="100.2"/>
			<circle class="st3" cx="62.6" cy="62.2" r="62.5"/>
			<g>
				<path class="st4" d="M2.3,21.6L0,25.2l-14-8.8l-2.9,4.6l-3-1.9l8-12.8l3,1.9l-2.9,4.6L2.3,21.6z"/>
				<path class="st4" d="M14-5.5c2.2,2.4,3.4,4.9,3.4,7.3c0,2.4-1.1,4.7-3.4,6.7c-2.3,2.1-4.6,3-7,2.8s-4.8-1.5-7-4
					C-2.3,4.8-3.4,2.4-3.3,0c0-2.4,1.2-4.7,3.4-6.7c2.3-2.1,4.6-3,7-2.8C9.4-9.3,11.7-7.9,14-5.5z M3.2,4.4C4.7,6,6.2,7,7.6,7.3
					c1.4,0.3,2.7-0.2,4-1.3c2.5-2.3,2.2-5.1-0.8-8.4C7.8-5.7,5-6.2,2.5-4C1.3-2.9,0.8-1.6,0.8-0.2C0.9,1.2,1.7,2.7,3.2,4.4z"/>
				<path class="st4" d="M24.9-0.3l-9.2-17.8l3.8-1.9l7.6,14.7L34.3-9l1.6,3L24.9-0.3z"/>
				<path class="st4" d="M51-10.1L39.8-7.2l-5-19.4L46-29.5l0.9,3.4l-7.1,1.8l1.1,4.3l6.6-1.7l0.9,3.4l-6.6,1.7l1.3,5l7.1-1.8
					L51-10.1z"/>
				<path class="st4" d="M59.9-18.5l0.1,7.7h-4.2l-0.2-20l5.8-0.1c2.7,0,4.7,0.4,6.1,1.4c1.3,1,2,2.5,2,4.5c0,1.2-0.3,2.2-0.9,3.2
					c-0.6,0.9-1.5,1.7-2.7,2.2c3.1,4.5,5.1,7.4,6,8.7h-4.7l-4.9-7.6L59.9-18.5z M59.8-22h1.4c1.3,0,2.3-0.2,3-0.7s0.9-1.2,0.9-2.1
					c0-1-0.3-1.6-1-2s-1.7-0.6-3-0.6h-1.3V-22z"/>
				<path class="st4" d="M86.5-7.2l-0.2-5L79.2-14l-2.6,4.2l-4.4-1.1l11.9-17.7l5,1.3l1.8,21.2L86.5-7.2z M86.2-15.9
					c-0.2-4.5-0.3-7.1-0.4-7.7c0-0.6,0-1.1,0-1.4c-0.6,1.1-2.1,3.6-4.7,7.7L86.2-15.9z"/>
				<path class="st4" d="M108.8,4.4l-4.6-2.8l0.5-17.5l-0.1-0.1c-1.2,2.4-2.2,4-2.8,5l-4.9,8l-3.2-2l10.4-17.1l4.6,2.8L108.3-2h0.1
					c1.2-2.3,2.1-3.9,2.7-4.8l4.9-8.1l3.3,2L108.8,4.4z"/>
				<path class="st4" d="M130.9,3.1c-1.1-1.2-2.4-1.7-3.8-1.5c-1.5,0.2-3,1-4.6,2.4c-3.3,3-3.8,5.8-1.5,8.2c1,1,2.4,2.1,4.2,3.1
					l-2.6,2.4c-1.6-0.7-3.1-1.9-4.5-3.4c-2-2.1-2.8-4.4-2.6-6.7c0.3-2.3,1.6-4.6,4-6.9c1.5-1.4,3.1-2.4,4.8-2.9s3.3-0.5,4.9,0
					c1.6,0.5,3,1.4,4.3,2.8c1.3,1.4,2.3,3.2,2.9,5.3l-3.5,1.3c-0.2-0.8-0.5-1.6-0.8-2.3C131.8,4.2,131.4,3.6,130.9,3.1z"/>
				<path class="st4" d="M130.2,32.4l-5.6-10.1l17.5-9.7l5.6,10.1l-3,1.7l-3.5-6.4l-3.9,2.1l3.3,5.9l-3,1.7l-3.3-5.9l-4.5,2.5
					l3.5,6.4L130.2,32.4z"/>
			</g>
		</g>
	</g>
	<g>
		<g class="st1">
			<circle class="st2" cx="62.4" cy="62.2" r="100.2"/>
			<circle class="st3" cx="62.4" cy="62.2" r="62.5"/>
			<g>
				<path class="st4" d="M8.3,14.3l-2.8,4l-10.2-3.8c-0.4-0.1-1.1-0.4-2.2-0.9c-1.1-0.5-1.8-0.8-2.2-1c0.4,0.3,0.9,0.9,1.7,1.7
					c0.8,0.8,1.3,1.4,1.6,1.8l7,8.2l-2.8,3.9l-19.3-7.3l2.4-3.4l10.4,4.2c1.9,0.8,3.5,1.5,4.9,2.2c-0.4-0.3-1-0.9-1.8-1.7
					s-1.4-1.4-1.8-1.9l-7.3-8.9l2.3-3.3l10.9,4c0.5,0.2,1.2,0.5,2.2,0.9s1.8,0.8,2.4,1.2c-0.5-0.5-1.2-1.1-1.9-1.9
					C1,11.5,0.4,10.9,0,10.4L-7.5,2l2.4-3.4L8.3,14.3z"/>
				<path class="st4" d="M14.4,8.9L1.4-6.3l3.2-2.8l13,15.2L14.4,8.9z"/>
				<path class="st4" d="M28.9-1.4l-3.7,2.1L17-13.6l-4.7,2.7L10.5-14l13.1-7.5l1.8,3.1l-4.7,2.7L28.9-1.4z"/>
				<path class="st4" d="M52.8-9.6l-4.1,1.1l-2.2-8.4l-7.7,2l2.2,8.4l-4.1,1l-5.1-19.4l4.1-1.1l2,7.6l7.7-2l-2-7.6l4.1-1L52.8-9.6z"
					/>
				<path class="st4" d="M75.2-19.8c-0.1,3.3-1.1,5.8-3.1,7.5c-1.9,1.7-4.7,2.5-8.2,2.3l-5.7-0.2l0.7-20l6.3,0.2
					c3.3,0.1,5.8,1.1,7.5,2.9C74.4-25.3,75.3-22.9,75.2-19.8z M70.8-19.9c0.2-4.3-1.7-6.5-5.5-6.6l-2.3-0.1l-0.5,13l1.8,0.1
					C68.5-13.3,70.6-15.5,70.8-19.9z"/>
				<path class="st4" d="M85.8-14.6l-2.3,7.3l-4-1.3l6.1-19.1l5.6,1.8c2.6,0.8,4.4,1.9,5.3,3.3c0.9,1.3,1.1,3,0.5,4.9
					c-0.4,1.1-1,2-1.9,2.7s-2,1.1-3.3,1.2c1.5,5.2,2.5,8.6,3,10.1l-4.5-1.4l-2.2-8.8L85.8-14.6z M86.8-17.9l1.3,0.4
					c1.3,0.4,2.3,0.5,3,0.3s1.3-0.8,1.6-1.7c0.3-0.9,0.2-1.6-0.3-2.2s-1.4-1.1-2.7-1.5L88.5-23L86.8-17.9z"/>
				<path class="st4" d="M107.4,4.5l1.4-4.8l-6.1-4L98.9-1l-3.8-2.5l16.9-13l4.4,2.8l-5,20.7L107.4,4.5z M109.9-3.8
					c1.2-4.4,1.9-6.8,2.1-7.4c0.2-0.6,0.3-1,0.4-1.3c-0.9,0.8-3.2,2.8-6.9,5.9L109.9-3.8z"/>
				<path class="st4" d="M125.8,24l-3-3.8l6.5-8.7c0.2-0.3,0.7-0.9,1.5-1.9c0.8-0.9,1.3-1.5,1.6-1.8c-0.4,0.3-1.1,0.7-2.1,1.2
					s-1.7,0.9-2.1,1.1l-9.9,4.5l-3-3.8l12.4-16.5l2.6,3.3l-6.9,8.8c-1.3,1.6-2.5,3-3.5,4c0.4-0.3,1.1-0.7,2.1-1.2s1.7-0.9,2.3-1.2
					l10.6-4.8l2.5,3.1l-6.9,9.3c-0.3,0.4-0.8,1-1.5,1.8s-1.3,1.5-1.8,2c0.6-0.4,1.4-0.8,2.4-1.3s1.7-0.9,2.4-1.2l10.1-4.9l2.6,3.3
					L125.8,24z"/>
				<path class="st4" d="M129.3,31l18.6-7.4l1.6,3.9l-15.4,6.1l3,7.5l-3.3,1.3L129.3,31z"/>
			</g>
		</g>
	</g>
	<g class="st1">
		<path class="st5" d="M84.6,115.8c0-0.4-0.1-0.7-0.1-1.1c-0.1-0.7-0.2-1.4-0.3-2.1c-0.1-0.8-0.2-1.6-0.4-2.3
			c-0.1-0.7-0.3-1.3-0.4-2l0.1,13.1c0.5-0.2,1.1-0.4,1.6-0.6c-0.2-1.3-0.3-2.6-0.4-3.9C84.7,116.5,84.6,116.2,84.6,115.8z"/>
		<path class="st5" d="M41.1,110.3c-0.1,0.8-0.3,1.5-0.4,2.3c-0.1,0.7-0.2,1.4-0.3,2.1c0,0.4-0.1,0.7-0.1,1.1c0,0.3-0.1,0.7-0.1,1.1
			c-0.1,1.2-0.3,2.5-0.4,3.8c0.6,0.2,1.3,0.5,1.9,0.7l0.1-14.2C41.5,108.2,41.3,109.2,41.1,110.3z"/>
		<path class="st5" d="M62.5,0C28,0,0,28,0,62.5c0,22.2,11.5,41.6,28.9,52.7c0-0.1,0-0.1,0-0.2c0-0.1,0-0.1,0-0.2
			c0-0.6,0.1-1.3,0.2-2c0.1-0.7,0.1-1.4,0.2-2.2c0.3-2.9,0.8-5.9,1.6-8.8c0.1-0.5,0.3-1.1,0.4-1.6l0.5-1.6c0.3-1.1,0.7-2.1,1-3.1
			l0.1-0.2c-2-1.4-3.6-3.1-4.7-5.2C28.1,90.1,28,90,28,89.9c-0.6-1.3-4-8.9-0.4-15.7c0.7-1.3,2.1-3.5,5.1-5.5
			c-1.8-3.7-6.3-14.5-3.4-27.6c0.7-3.1,2.2-9.9,7.2-15.7c0.2-0.6,0.4-1.1,0.6-1.6c4.7-9.8,23.2-13.7,36.8-7.8c5,1.5,9.6,4,13.3,7.5
			c6.4,6.2,8.1,14.1,8.9,17.6c2.9,13.1-1.6,23.9-3.4,27.6c1.5,1,3.6,2.7,5.1,5.5c3.8,7.2-0.1,15-0.6,16.1c-1.1,2.2-2.8,4-4.9,5.4
			l0,0c0.3,1,0.7,2,1,3.1l0.5,1.6c0.1,0.5,0.3,1.1,0.4,1.6c0.7,2.9,1.2,5.8,1.6,8.8c0.1,0.7,0.2,1.4,0.2,2.2c0.1,0.7,0.1,1.3,0.2,2
			c0,0.1,0,0.1,0,0.2c0,0.1,0,0.1,0,0.2c17.4-11.1,29-30.6,29-52.7C125,28,97,0,62.5,0z"/>
		<path class="st6" d="M69.7,81.2C69.7,81.2,69.7,81.2,69.7,81.2l-7.1,7.1l-7.1-7.1c0,0,0,0,0,0l7.1,7.1L69.7,81.2z"/>
		<path class="st7" d="M28.9,115c0,0.1,0,0.1,0,0.2c3.4,2.2,7,4,10.9,5.5c0.2-1.3,0.3-2.6,0.4-3.8L28.9,115z"/>
		<path class="st8" d="M29.3,110.7c-0.1,0.7-0.2,1.4-0.2,2.2c-0.1,0.7-0.1,1.3-0.2,2c0,0.1,0,0.1,0,0.2l11.3,1.9
			c0-0.4,0.1-0.7,0.1-1.1c0-0.4,0.1-0.7,0.1-1.1c0.1-0.7,0.2-1.4,0.3-2.1L29.3,110.7z"/>
		<path class="st7" d="M84.7,116.9c0.1,1.2,0.3,2.5,0.4,3.9c3.8-1.5,7.4-3.3,10.9-5.5c0-0.1,0-0.1,0-0.2L84.7,116.9z"/>
		<path class="st6" d="M94.1,101.9c-0.1-0.5-0.3-1.1-0.4-1.6l-0.5-1.6c-0.3-1.1-0.7-2.1-1-3.1l0,0l-0.3-0.8c0.1,0.2,0-0.1-0.1-0.3
			c-0.2-0.6-0.4-1.3-0.7-2.1c-0.3-0.7-0.7-1.5-1.1-2.2c-0.2-0.3-0.4-0.7-0.7-1c-0.2-0.3-0.5-0.6-0.7-0.9c-1-1.2-2.2-2.2-3.4-3
			c-1.2-0.8-2.5-1.4-3.8-1.9c-2.4-0.9-4.8-1.3-7-1.4c0.1,0,0.1,0,0.2,0.1l-0.7,0.7L62.8,93.8l0,0L62.6,94L51.1,82.5l-0.4-0.4
			c0.1,0,0.1,0,0.2-0.1c-2.3,0-4.8,0.4-7.3,1.4c-1.3,0.5-2.6,1.1-3.8,1.9c-1.2,0.8-2.4,1.8-3.4,3c-0.2,0.3-0.5,0.6-0.7,0.9
			c-0.2,0.3-0.4,0.7-0.7,1c-0.4,0.7-0.8,1.5-1.1,2.2c-0.3,0.7-0.5,1.5-0.7,2.1c-0.1,0.3-0.2,0.5-0.1,0.3l-0.2,0.6l-0.1,0.2
			c-0.3,1-0.7,2-1,3.1l-0.5,1.6c-0.1,0.5-0.3,1.1-0.4,1.6c-0.7,2.9-1.2,5.8-1.6,8.8l11.4,1.9c0.1-0.8,0.2-1.6,0.4-2.3
			c0.2-1,0.4-2,0.6-3l-0.1,14.2c6.5,2.3,13.5,3.6,20.8,3.6c7.4,0,14.5-1.3,21-3.6l-0.1-13.1c0.1,0.6,0.3,1.3,0.4,2
			c0.1,0.8,0.3,1.5,0.4,2.3l11.4-1.9C95.3,107.8,94.8,104.8,94.1,101.9z"/>
		<path class="st8" d="M74.3,82.1c-1.4-0.5-3-0.8-4.5-0.9l-7.1,7.1l-7.1-7.1c-1.6,0-3.2,0.3-4.6,0.9c-0.1,0-0.1,0-0.2,0.1l0.4,0.4
			L62.6,94l0.2-0.2l0,0l10.9-10.9l0.7-0.7C74.4,82.1,74.3,82.1,74.3,82.1z"/>
		<path class="st8" d="M96,114.8c0-0.6-0.1-1.3-0.2-2c-0.1-0.7-0.1-1.4-0.2-2.2l-11.4,1.9c0.1,0.7,0.2,1.4,0.3,2.1
			c0,0.4,0.1,0.7,0.1,1.1c0,0.3,0.1,0.7,0.1,1.1L96,115C96,115,96,114.9,96,114.8z"/>
		<path class="st7" d="M89.2,36.2c-4.9-3.8-11-7-17.1-5.5c-4.1,1-4.6,3.2-10,5.5c-8.5,3.7-21.2,4.1-25.1-1.9
			c-0.1-0.2-0.2-0.3-0.3-0.5c-0.7,2-1,4.1-1,6.3v13.5c0,10.7,8.5,19.5,19,20.1l2.6,0v7.4H56h-0.2c-0.1,0-0.2,0-0.2,0l7.1,7.1
			l7.1-7.1c-0.1,0-0.2,0-0.3,0h-0.2h-1.2v-7.4l1.5,0c11.1,0,20.2-9.1,20.2-20.2V40.1C89.5,38.8,89.4,37.5,89.2,36.2z M50.3,41.2
			c1.8,0,3.3,1,4.1,2.6L54,44c-0.7-1.4-2.1-2.3-3.7-2.3c0,0,0,0,0,0c-1.5,0-3,0.8-3.7,2.2l-0.4-0.2C47,42.1,48.6,41.2,50.3,41.2z
			 M45.5,62.5c-2.7,0-5-1-5-2.3s2.2-2.3,5-2.3s5,1,5,2.3S48.2,62.5,45.5,62.5z M54.5,51.8c-0.7,0.8-2.2,2.1-4.3,2.1c0,0-0.1,0-0.1,0
			c-2,0-3.5-1.3-4.2-2.1c-0.3-0.3-0.3-0.9-0.1-1.3c0.2-0.4,0.6-0.5,0.9-0.2c0.6,0.6,1.8,1.7,3.5,1.7c1.8,0,3-1.1,3.6-1.7
			c0.3-0.3,0.7-0.2,0.9,0.2C54.8,51,54.8,51.5,54.5,51.8z M62.6,55.3c2.2,0,4,1.3,4,2.8c0,1.6-1.8,2.8-4,2.8c-2.2,0-4-1.3-4-2.8
			C58.7,56.5,60.4,55.3,62.6,55.3z M62.9,68.5c-0.1,0-0.2,0-0.3,0c-2.5,0-4.4-1-5.3-1.6l0.3-0.4c0.9,0.6,2.8,1.6,5.3,1.6
			c2.4-0.1,4.1-1.1,5-1.7l0.3,0.4C67.3,67.3,65.4,68.4,62.9,68.5z M75,41.2c1.8,0,3.3,1,4.1,2.6L78.7,44c-0.7-1.4-2.1-2.3-3.7-2.3
			c0,0,0,0,0,0c-1.5,0-3,0.8-3.7,2.2l-0.4-0.2C71.6,42.1,73.2,41.2,75,41.2z M70.3,51.8C70,51.5,70,51,70.2,50.6
			c0.2-0.4,0.6-0.5,0.9-0.2c0.6,0.6,1.8,1.7,3.5,1.7c1.8,0,3-1.1,3.6-1.7c0.3-0.3,0.7-0.2,0.9,0.2c0.2,0.4,0.2,1-0.1,1.3
			c-0.7,0.8-2.2,2.1-4.3,2.1c0,0-0.1,0-0.1,0C72.5,53.9,71,52.6,70.3,51.8z M79.3,62.5c-2.7,0-5-1-5-2.3s2.2-2.3,5-2.3s5,1,5,2.3
			S82,62.5,79.3,62.5z"/>
		<ellipse class="st9" cx="79.3" cy="60.2" rx="5" ry="2.3"/>
		<ellipse class="st9" cx="45.5" cy="60.2" rx="5" ry="2.3"/>
		<path class="st10" d="M62.6,60.9c2.2,0,4-1.3,4-2.8c0-1.6-1.8-2.8-4-2.8c-2.2,0-4,1.3-4,2.8C58.7,59.6,60.4,60.9,62.6,60.9z"/>
		<path class="st11" d="M62.9,68.5c2.5-0.1,4.4-1.2,5.2-1.8l-0.3-0.4c-0.8,0.6-2.6,1.6-5,1.7c-2.5,0.1-4.4-0.9-5.3-1.6l-0.3,0.4
			c0.9,0.6,2.8,1.6,5.3,1.6C62.7,68.5,62.8,68.5,62.9,68.5z"/>
		<path class="st11" d="M53.7,50.4c-0.6,0.7-1.9,1.8-3.6,1.7c-1.7,0-2.9-1.1-3.5-1.7c-0.3-0.3-0.7-0.2-0.9,0.2
			c-0.2,0.4-0.2,1,0.1,1.3c0.7,0.8,2.2,2.1,4.2,2.1c0,0,0.1,0,0.1,0c2.1,0,3.6-1.3,4.3-2.1c0.3-0.3,0.3-0.9,0.1-1.3
			C54.4,50.2,54,50.1,53.7,50.4z"/>
		<path class="st11" d="M74.5,53.9C74.5,53.9,74.6,53.9,74.5,53.9c2.2,0,3.7-1.3,4.4-2.1c0.3-0.3,0.3-0.9,0.1-1.3
			c-0.2-0.4-0.6-0.5-0.9-0.2c-0.6,0.7-1.9,1.8-3.6,1.7c-1.7,0-2.9-1.1-3.5-1.7c-0.3-0.3-0.7-0.2-0.9,0.2c-0.2,0.4-0.2,1,0.1,1.3
			C71,52.6,72.5,53.9,74.5,53.9z"/>
		<path class="st11" d="M50.3,41.7C50.3,41.7,50.3,41.7,50.3,41.7c1.6,0,3,0.9,3.7,2.3l0.4-0.2c-0.8-1.6-2.4-2.6-4.1-2.6
			c-1.7,0-3.3,0.9-4.1,2.5l0.4,0.2C47.3,42.5,48.7,41.7,50.3,41.7z"/>
		<path class="st11" d="M74.9,41.7C74.9,41.7,75,41.7,74.9,41.7c1.6,0,3,0.9,3.7,2.3l0.4-0.2c-0.8-1.6-2.4-2.6-4.1-2.6
			c-1.7,0-3.3,0.9-4.1,2.5l0.4,0.2C72,42.5,73.4,41.7,74.9,41.7z"/>
		<path class="st11" d="M97.7,74.1c-1.5-2.8-3.6-4.6-5.1-5.5c1.8-3.7,6.3-14.5,3.4-27.6c-0.8-3.5-2.5-11.4-8.9-17.6
			c-3.6-3.5-8.2-6-13.3-7.5c-13.6-5.9-32-2-36.8,7.8c-0.2,0.5-0.5,1.1-0.6,1.6c-5,5.9-6.5,12.6-7.2,15.7
			c-2.9,13.1,1.6,23.9,3.4,27.6c-3,2-4.4,4.3-5.1,5.5C24,81,27.4,88.6,28,89.9c0.1,0.1,0.1,0.2,0.2,0.4c1.1,2.1,2.7,3.8,4.7,5.2
			l0.2-0.6c-0.1,0.2,0-0.1,0.1-0.3c0.2-0.6,0.4-1.3,0.7-2.1c0.3-0.7,0.7-1.5,1.1-2.2c0.2-0.3,0.4-0.7,0.7-1c0.2-0.3,0.5-0.6,0.7-0.9
			c1-1.2,2.2-2.2,3.4-3c1.2-0.8,2.5-1.4,3.8-1.9c2.5-0.9,5-1.3,7.3-1.4c1.4-0.5,3-0.9,4.6-0.9c0,0,0,0,0,0c0.1,0,0.2,0,0.2,0H56h1.3
			v-7.4l-2.6,0c-10.6-0.6-19-9.4-19-20.1V40.1c0-2.2,0.4-4.3,1-6.3c0.1,0.2,0.2,0.3,0.3,0.5c3.9,6,16.5,5.6,25.1,1.9
			c5.4-2.3,5.9-4.6,10-5.5c6.1-1.4,12.2,1.8,17.1,5.5c0.2,1.3,0.4,2.6,0.4,3.9v13.5c0,11.1-9.1,20.2-20.2,20.2l-1.5,0v7.4h1.2h0.2
			c0.1,0,0.2,0,0.3,0c0,0,0,0,0,0c1.6,0,3.1,0.4,4.5,0.9c2.3,0.1,4.6,0.5,7,1.4c1.3,0.5,2.6,1.1,3.8,1.9c1.2,0.8,2.4,1.8,3.4,3
			c0.2,0.3,0.5,0.6,0.7,0.9c0.2,0.3,0.4,0.7,0.7,1c0.4,0.7,0.8,1.5,1.1,2.2c0.3,0.7,0.5,1.5,0.7,2.1c0.1,0.3,0.2,0.5,0.1,0.3
			l0.3,0.8c2.1-1.4,3.8-3.2,4.9-5.4C97.6,89.2,101.5,81.3,97.7,74.1z"/>
	</g>
</g>
<g id="Layer_2" class="st0">
	<g class="st1">
		<path class="st5" d="M15.4,26.5c0.8,0.7,1.5,1.5,2.3,2.2l2.4,2.1c0.8,0.7,1.7,1.3,2.5,1.9c0.3,0.3,0.6,0.5,1,0.7
			c0.5-0.1,1-0.1,1.6-0.1c0.3,0,0.6,0,1.4,0c0.4,0,0.7,0,1.1,0c0.1,0,0.1,0,0.2,0c-1.6-2.9-3.1-5.8-4.3-8.9c-1.1-2.7-2-5.5-2.8-8.3
			c-1.4,1.3-2.8,2.7-4.1,4.1l-2.2,5.3C14.7,25.8,15.1,26.1,15.4,26.5z"/>
		<path class="st5" d="M62.5,0C52,0,42.2,2.6,33.5,7.1c0.1,0.7,0.2,1.4,0.4,2.1c0.1,0.5,0.2,1,0.3,1.5c0.6,3.1,1.3,6,2.3,8.9
			c2.2,6.6,5.6,12.8,10,18.4c1.8,2.3,3.7,4.5,5.8,6.5c0.7,0.5,1.4,1.1,1.9,1.8c1.4,1.3,2.8,2.6,4.3,3.8c0.9-0.3,2-0.4,3-0.3
			c4.6,0.4,7.9,4.5,7.5,9.1c-0.3,2.8-1.9,5.2-4.2,6.5c0,0.1,0.1,0.1,0.1,0.2c4.2,0.6,8.4,1.1,12.7,1.8c3.1,0.5,6.2,1.1,9.3,1.7
			c1.1-0.4,2.4-0.2,3.4,0.7c2.1,0.4,4.3,0.9,6.4,1.4c3.2,0.8,6.4,1.6,9.6,2.5c1.1,0.3,2.1,0.6,3.2,0.9l0.1-1.7l0.5-13.9
			c0-0.6,0.2-1.2,0.6-1.7c0.2-0.3,0.5-0.6,0.9-0.8c0.2-0.1,0.4-0.2,0.5-0.3c0.4-0.1,0.8-0.2,1.2-0.2c0.2,0,0.4,0,0.6,0.1
			c0.4,0.1,0.8,0.3,1.1,0.5c0.7,0.5,1.1,1.1,1.3,1.9c0,0.2,0.1,0.4,0,0.6v0l-1,31.9l-4.9-0.9l-1.3-0.2c0,0,0,0,0,0c0,0,0,0,0,0
			c-1-0.2-2.1-0.3-3.2-0.5c-4.4-0.6-9-1.2-12.4-1.7c-6-0.8-12-1.4-18.1-1.8c-0.9-0.1-1.8-0.1-2.7-0.1l-10,6.5l-3.7-4.9l0,0
			c-0.6-0.7-1.2-1.5-1.8-2.2c-6.1-0.2-12.3-0.2-18.5-0.2c-1.3,0-2.7,0-4,0c-4.8,0-9.7,0.1-14.5,0.2l-1.5,0l-7.8,0.2l-4.7,0.2l-1.5,0
			c9.2,23.1,31.7,39.3,58.1,39.3C97,125,125,97,125,62.5C125,28,97,0,62.5,0z"/>
		<path class="st5" d="M35.1,62.5c0.6,0.1,1.2,0.1,1.9,0.2c-0.6-0.7-1.3-1.4-1.9-2.1l-1.3-1.4l-1.3-1.3c-0.4-0.4-0.8-0.8-1.3-1.2
			c-0.4-0.4-0.9-1-1.7-1.1c-0.9-0.2-1.2-0.2-2.6,0.2c-0.1,0-0.3,0.1-0.4,0.1c-1.2,0.4-1.9,0.9-1.9,0.9s-1.8,1-3.1,1.8
			c-1.1,0.7-2.1,1.3-3,1.8c-0.4,0.3-0.8,0.5-1.2,0.8l1.8,0.1l1.2,0.1C25.3,61.7,30.2,62.1,35.1,62.5z"/>
		<polygon class="st12" points="110.2,90.1 115.1,91 116.1,59.1 115.1,91 		"/>
		<path class="st12" d="M111.9,56.1c0.4-0.1,0.8-0.2,1.2-0.2C112.6,55.9,112.2,56,111.9,56.1z"/>
		<path class="st13" d="M40.3,66.4l-2.6-3c-0.2-0.3-0.5-0.5-0.7-0.8c-0.6,0-1.2-0.1-1.9-0.2L34.4,85c1.3,0,2.7,0,4,0
			c6.2,0,12.3,0,18.5,0.2c-0.2-0.2-0.3-0.4-0.5-0.6C51.1,78.2,45.1,72,40.3,66.4z"/>
		<path class="st13" d="M72,78.6C72,78.6,72,78.6,72,78.6l14.2-9.3c0.2-0.1,0.4-0.2,0.6-0.3c-3.1-0.6-6.2-1.1-9.3-1.7
			c-4.2-0.7-8.4-1.3-12.7-1.8c1.9,3.2,3.6,6.5,5.4,9.8C70.8,76.5,71.4,77.5,72,78.6z"/>
		<path class="st13" d="M90.6,70.3L90.6,70.3c0.4,0.5,0.6,1.2,0.6,1.8c0,1-0.4,2-1.3,2.6L72.5,85.8c0.9,0.1,1.8,0.1,2.7,0.1
			c6.1,0.5,12.1,1,18.1,1.8c3.3,0.5,7.9,1,12.4,1.7l0.5-15.8c-3.2-0.9-6.4-1.7-9.6-2.5c-2.1-0.5-4.3-0.9-6.4-1.4
			C90.3,69.9,90.4,70.1,90.6,70.3z"/>
		<path class="st13" d="M108.8,89.9C108.9,89.9,108.9,89.9,108.8,89.9L108.8,89.9L108.8,89.9z"/>
		<path class="st13" d="M116.1,59.1c0-0.2,0-0.4,0-0.6C116.1,58.7,116.1,58.9,116.1,59.1L116.1,59.1z"/>
		<path class="st14" d="M10.6,85.5l7.8-0.2l0.8-23.9l-1.8-0.1c-1,0.7-1.9,1.2-2.6,1.7c-0.7,0.5-1.4,1-2.2,1.4
			c-1.9,1.2-3.8,2.5-5.7,3.8l-0.1,0.1l-0.1,0C5,69.4,3.1,70.7,1.2,72c-0.2,0.1-0.3,0.2-0.5,0.3c0.7,4.6,2,9.1,3.7,13.3l1.5,0
			L10.6,85.5z"/>
		<path class="st15" d="M20.4,61.4l-1.2-0.1l-0.8,23.9l1.5,0c4.8-0.1,9.7-0.2,14.5-0.2l0.7-22.5C30.2,62.1,25.3,61.7,20.4,61.4z"/>
		<path class="st4" d="M108.8,89.9L108.8,89.9L108.8,89.9l0-0.4l0.5-15c-1.1-0.3-2.1-0.6-3.2-0.9l-0.5,15.8
			C106.7,89.5,107.8,89.7,108.8,89.9z"/>
		<path class="st12" d="M108.8,89.9L108.8,89.9l1.3,0.2l4.9,0.9l1-31.9c0-0.2,0-0.4,0-0.6c-0.1-0.8-0.6-1.5-1.3-1.9
			c-0.3-0.2-0.7-0.4-1.1-0.5c-0.2,0-0.4-0.1-0.6-0.1c-0.4,0-0.8,0.1-1.2,0.2c-0.2,0.1-0.4,0.2-0.5,0.3c-0.3,0.2-0.6,0.5-0.9,0.8
			c-0.4,0.5-0.6,1-0.6,1.7l-0.5,13.9l-0.5,16.7L108.8,89.9z"/>
		<polygon class="st12" points="108.9,89.9 110.2,90.1 108.9,89.9 		"/>
		<path class="st12" d="M111.3,56.4c-0.3,0.2-0.6,0.5-0.9,0.8C110.7,56.9,111,56.6,111.3,56.4z"/>
		<polygon class="st12" points="108.8,89.9 108.8,89.9 108.9,89.4 		"/>
		<polygon class="st12" points="109.4,72.8 109.3,74.5 108.9,89.4 		"/>
		<path class="st13" d="M20.7,16c0.8,2.8,1.7,5.6,2.8,8.3c1.2,3.1,2.7,6,4.3,8.9c1.1,0.1,2.2,0.2,3.2,0.4c1.1,0.2,2.2,0.4,3.2,0.7
			c1.1,0.3,2.2,0.6,3.2,1.1c0.3,0.1,0.5,0.2,0.8,0.3c0.4,0.2,0.9,0.4,1.3,0.7s0.9,0.5,1.3,0.7c0.3,0.2,0.5,0.4,0.8,0.5
			c0.5,0.4,1,0.7,1.5,1.1l1.1,0.9c0.8,0.7,1.3,1.2,2,1.8c0.6,0.5,1.1,1.1,1.6,1.6c1.6,0.1,3.1,0.6,4.4,1.4c-2.1-2.1-4-4.2-5.8-6.5
			c-4.4-5.6-7.8-11.8-10-18.4c-1-2.8-1.7-5.8-2.3-8.9l-8.6,1.4C23.9,13.3,22.3,14.6,20.7,16z"/>
		<path class="st13" d="M55.8,52.3l2.2,2.9c2.5,3.3,4.7,6.7,6.7,10.2c2.3-1.3,4-3.7,4.2-6.5c0.4-4.6-2.9-8.6-7.5-9.1
			c-1-0.1-2,0-3,0.3c-1.5-1.2-2.9-2.5-4.3-3.8c1.1,1.4,1.7,3.2,1.7,5.1C55.8,51.7,55.8,52,55.8,52.3z"/>
		<path class="st8" d="M34.2,10.7c-0.1-0.5-0.2-1-0.3-1.5c-0.1-0.7-0.2-1.4-0.4-2.1c-2.8,1.5-5.5,3.1-8,5L34.2,10.7z"/>
		<path class="st6" d="M16.6,20.1c-1.2,1.3-2.3,2.6-3.4,4c0.4,0.4,0.8,0.8,1.2,1.3L16.6,20.1z"/>
		<path class="st6" d="M4.9,40.9c0.9-0.5,1.8-1,2.6-1.5c-0.8-0.6-1.5-1.3-2.3-1.9c0,0-0.1-0.1-0.1-0.1c-0.6,1.4-1.2,2.8-1.7,4.3
			c0.1-0.1,0.2-0.1,0.3-0.2C4.2,41.4,4.6,41.2,4.9,40.9z"/>
		<path class="st12" d="M90,69.7C90,69.7,90.1,69.7,90,69.7c-0.8-0.8-2.1-1.1-3.3-0.6c0,0,0.1,0,0.1,0C87.9,68.7,89.1,69,90,69.7z"
			/>
		<path class="st12" d="M72,78.6C72,78.6,72,78.6,72,78.6l14.2-9.2c0.2-0.1,0.5-0.2,0.7-0.3c0,0-0.1,0-0.1,0
			c-0.2,0.1-0.4,0.2-0.6,0.3L72,78.6z"/>
		<path class="st12" d="M90.6,70.3c0.4,0.5,0.6,1.1,0.6,1.7C91.1,71.4,91,70.8,90.6,70.3L90.6,70.3c-0.1-0.3-0.3-0.4-0.5-0.6
			c0,0-0.1,0-0.1,0C90.2,69.9,90.4,70.1,90.6,70.3z"/>
		<path class="st7" d="M46.2,41.5c-0.6-0.6-1.2-1.2-2-1.8l-1.1-0.9c-0.4-0.3-1-0.7-1.5-1.1c-0.3-0.2-0.5-0.3-0.8-0.5
			c-0.4-0.2-0.8-0.5-1.3-0.7s-0.9-0.4-1.3-0.7c-0.3-0.1-0.6-0.2-0.8-0.3c-1.1-0.4-2.2-0.8-3.2-1.1c-1.1-0.3-2.2-0.5-3.2-0.7
			c-1-0.2-2.1-0.3-3.2-0.4c-0.1,0-0.1,0-0.2,0c-0.3,0-0.6,0-1.1,0c-0.8,0-1,0-1.4,0c-0.6,0-1.1,0.1-1.6,0.1c0.1,0.1,0.2,0.2,0.3,0.2
			l1.3,0.9c1.7,1.2,3.5,2.3,5.4,3.3c4.4,2.4,9.1,4.4,13.9,5.8c0.9-0.4,1.9-0.6,3-0.6c0.1,0,0.2,0,0.3,0C47.3,42.5,46.8,42,46.2,41.5
			z"/>
		<path class="st7" d="M64.8,65.6c0-0.1-0.1-0.1-0.1-0.2c-2-3.5-4.2-6.9-6.7-10.2l-2.2-2.9c-0.3,2.8-2.1,5.2-4.5,6.5
			c-1.1,0.6-2.4,0.9-3.7,0.9c-3.1,0-5.8-1.7-7.2-4.2c-2.9-0.7-5.8-1.6-8.6-2.6c-2.1-0.8-4.2-1.6-6.2-2.5l1.1,5.5
			c0.1,0,0.2-0.1,0.4-0.1c1.4-0.4,1.7-0.4,2.6-0.2c0.8,0.2,1.2,0.7,1.7,1.1c0.4,0.4,0.9,0.8,1.3,1.2l1.3,1.3l1.3,1.4
			c0.6,0.7,1.3,1.4,1.9,2.1c0.2,0.3,0.5,0.5,0.7,0.8l2.6,3c4.8,5.7,10.8,11.9,16.1,18.1l13.8-9.1C68.4,72.1,66.7,68.8,64.8,65.6z"/>
		<polygon class="st7" points="72,78.6 72,78.6 71.4,79.1 		"/>
		<path class="st7" d="M62.5,92.2l10-6.5c0,0,0,0,0,0L62.5,92.2z"/>
		<path class="st7" d="M91.2,72c0,1-0.5,1.9-1.3,2.5L72.5,85.8c0,0,0,0,0,0l17.3-11.2C90.7,74,91.2,73.1,91.2,72z"/>
		<path class="st4" d="M56.9,85.1c0.6,0.7,1.2,1.5,1.8,2.2l3.1-2C60.2,85.2,58.5,85.1,56.9,85.1z"/>
		<path class="st4" d="M71.4,79.1l0.7-0.4c-0.6-1.1-1.2-2.2-1.8-3.3l-13.8,9.1c0.2,0.2,0.3,0.4,0.5,0.6c1.7,0,3.3,0.1,5,0.2
			L71.4,79.1z"/>
		<path class="st12" d="M86.9,69.1c1,0.2,2.1,0.4,3.1,0.6C89.1,69,87.9,68.7,86.9,69.1z"/>
		<path class="st12" d="M61.9,85.3l-3.2,2.1l3.7,4.9l10-6.5C69,85.6,65.4,85.4,61.9,85.3z"/>
		<path class="st12" d="M61.9,85.3c3.5,0.1,7.1,0.3,10.6,0.5l17.3-11.2c0.9-0.6,1.3-1.5,1.3-2.5c0-0.6-0.2-1.2-0.6-1.7
			c-0.2-0.2-0.4-0.4-0.6-0.6c-1-0.2-2.1-0.4-3.1-0.6c-0.2,0.1-0.5,0.2-0.7,0.3L72,78.6c0,0,0,0,0,0l-0.7,0.4L61.9,85.3z"/>
		<path class="st12" d="M61.9,85.3l-3.1,2l0,0L61.9,85.3C61.9,85.3,61.9,85.3,61.9,85.3z"/>
		<path class="st12" d="M61.9,85.3C61.9,85.3,61.9,85.3,61.9,85.3l9.5-6.2L61.9,85.3z"/>
		<polygon class="st16" points="0,65.3 1.8,66.1 5.5,67.6 0,65.3 		"/>
		<path class="st16" d="M11.3,60.8L5.7,46.4l-1.9-4.8c-0.1,0.1-0.2,0.1-0.3,0.2c-1.9,5.5-3.1,11.4-3.5,17.5c0,0.2,0,0.5,0,0.7
			c0,0.1,0,0.1,0,0.2C0,61,0,61.7,0,62.5c0,0.9,0,1.9,0.1,2.8l0,0h0c0,0,0,0.1,0,0.1c0.1,1.4,0.2,2.7,0.3,4c0.1,0.9,0.2,1.9,0.4,2.8
			c0.2-0.1,0.3-0.2,0.5-0.3c1.9-1.3,3.7-2.5,5.6-3.8c0.1,0,0.1-0.1,0.2-0.1c1.9-1.3,3.8-2.5,5.7-3.8L11.3,60.8z"/>
		<path class="st17" d="M12.7,64.3c0.7-0.5,1.4-1,2.2-1.4c0.7-0.4,1.5-1,2.6-1.7l-6.1-0.4L12.7,64.3z"/>
		<path class="st17" d="M25.4,50.3c-2.6-1.2-5.1-2.4-7.6-3.9l-1.7-1c-0.6-0.3-1.1-0.7-1.6-1c-1.1-0.7-2.1-1.4-3.2-2.1l-3-2.3l0,0
			c-0.2-0.2-0.4-0.4-0.7-0.5c-0.9,0.5-1.8,1-2.6,1.5c-0.4,0.2-0.8,0.4-1.1,0.6l1.9,4.8l5.6,14.4l6.1,0.4c0.4-0.2,0.8-0.5,1.2-0.8
			c0.9-0.6,1.9-1.2,3-1.8c1.3-0.8,3.1-1.8,3.1-1.8s0.7-0.5,1.9-0.9L25.4,50.3z"/>
		<path class="st18" d="M54.1,46.3c-0.5-0.7-1.2-1.3-1.9-1.8c-1.3-0.9-2.8-1.4-4.4-1.4c-0.1,0-0.2,0-0.3,0c-1.1,0-2.1,0.2-3,0.6
			c-4.8-1.4-9.5-3.4-13.9-5.8c-1.9-1-3.7-2.1-5.4-3.3l-1.3-0.9c-0.1-0.1-0.2-0.2-0.3-0.2c-0.3-0.2-0.7-0.5-1-0.7
			c-0.8-0.6-1.7-1.3-2.5-1.9l-2.4-2.1c-0.8-0.7-1.5-1.5-2.3-2.2c-0.4-0.4-0.7-0.7-1.1-1.1c-0.4-0.4-0.8-0.8-1.2-1.3
			c-3.2,4.1-5.9,8.6-8,13.4c0,0,0.1,0.1,0.1,0.1c0.8,0.6,1.5,1.3,2.3,1.9C7.8,39.6,8,39.8,8.3,40l0,0l3,2.3c1.1,0.7,2.1,1.4,3.2,2.1
			c0.5,0.4,1.1,0.7,1.6,1l1.7,1c2.5,1.4,5,2.7,7.6,3.9c2,0.9,4.1,1.8,6.2,2.5c2.8,1,5.7,1.9,8.6,2.6c1.4,2.5,4.1,4.2,7.2,4.2
			c1.3,0,2.6-0.3,3.7-0.9c2.5-1.2,4.2-3.6,4.5-6.5c0-0.3,0.1-0.6,0.1-1C55.8,49.5,55.2,47.7,54.1,46.3z"/>
	</g>
</g>
<g id="Layer_3_1_" class="st0">
	<path class="st19" d="M-60.5,98"/>
	<g class="st1">
		<path class="st5" d="M83.8,122.2C83.8,122.2,83.8,122.2,83.8,122.2C83.8,122.2,83.8,122.2,83.8,122.2z"/>
		<path class="st20" d="M79.9,122.6C79.9,122.6,79.9,122.6,79.9,122.6L79.9,122.6C79.9,122.6,79.9,122.6,79.9,122.6z"/>
		<path class="st5" d="M12.7,79.4c-1-2.2-1.9-4.9-2.2-7.8c-0.4-4.5,0.7-9,2.8-13c1-6.1,6-12.2,12.9-14.1c5.5-1.5,11.2-0.1,15.4,1.5
			c3.7,1.1,6.5,2.8,8.1,3.8c4.2,2.5,7.4,5.6,9.7,8.5V10.5l-13.9,0c-1.3-0.1-2.5,0.4-3.2,1.3c-1,1.4-0.3,3.5,0.9,4.4
			c1.4,1.1,3.9,1,5.5-0.9c0.5-0.7,1.5-0.7,2.2-0.2c0.7,0.5,0.7,1.5,0.2,2.2c-2.5,3.1-6.9,3.7-9.8,1.4c-2.3-1.8-3.4-5.7-1.4-8.6
			c1.3-1.8,3.5-2.8,5.9-2.6h13.7c0.6,0,1.1,0.2,1.5,0.4c0.5-0.3,1-0.4,1.5-0.4h13.7c2.4-0.2,4.6,0.8,5.9,2.6
			c1.3,1.9,1.3,4.4,0.3,6.3h7c1.3,0,2.3,1,2.3,1.6V47c0,1.3-0.2,1.8-0.5,2.2l-6.3,8.4c-0.4,0.6-1.1,0.9-1.8,0.9h-4.5
			c0.1,2.6-0.2,5.2-0.8,7.8c-0.4,1.7-0.9,3.1-1.5,4.3c2.3,2.4,3.5,5,3.7,5.6c1.5,3.3,1,7.1-0.4,10.6l30.5,16.2
			c9.2-10.9,14.8-25,14.8-40.4C125,28,97,0,62.5,0C28,0,0,28,0,62.5c0,8.5,1.7,16.6,4.8,24l2.8-4.7C8.6,80,10.7,79.1,12.7,79.4z"/>
		<path class="st5" d="M77.5,58.5h-4.6c-0.7,0-1.4-0.3-1.8-0.9l-6.3-8.4c-0.3-0.4-0.5-0.9-0.5-1.4V18.6c0-1.3,1-2.3,2.3-2.3h4
			c0-0.5,0.1-0.9,0.5-1.2c0.4-0.3,0.8-0.4,1.2-0.3c0.4,0,0.8,0.2,1,0.5c0.4,0.4,0.8,0.8,1.2,1h4c0.1,0,0.1-0.1,0.2-0.1
			c1.2-1,1.8-3.1,0.9-4.4c-0.6-0.9-1.8-1.4-3.2-1.3l-0.1,0H62.5v52c1.1,1.8,1.8,3.2,2.2,4.2c1.3-0.3,3.4-0.5,5.9,0.2
			c1.9,0.6,3.6,1.6,4.9,2.8c0.5-1.1,0.9-2.3,1.3-3.7C77.3,63.5,77.5,61,77.5,58.5z"/>
		<path class="st21" d="M70.9,15.3c0.4-0.4,0.9-0.6,1.3-0.5c-0.4-0.1-0.9,0-1.2,0.3c-0.4,0.3-0.5,0.8-0.5,1.2h0.1
			C70.6,15.9,70.7,15.5,70.9,15.3z"/>
		<path class="st21" d="M62.5,10.5h13.8l0.1,0c1.3-0.1,2.5,0.4,3.2,1.3c1,1.4,0.3,3.5-0.9,4.4c-0.1,0-0.1,0.1-0.2,0.1h3.9
			c0.9-1.9,1-4.4-0.3-6.3c-1.3-1.8-3.5-2.8-5.9-2.6H62.5c-0.6,0-1.1,0.2-1.5,0.4c-0.5-0.3-1-0.4-1.5-0.4H45.7
			C43.3,7.2,41,8.2,39.8,10c-2,2.8-0.8,6.7,1.4,8.6c2.9,2.3,7.3,1.7,9.8-1.4c0.5-0.7,0.5-1.6-0.2-2.2c-0.7-0.5-1.6-0.5-2.2,0.2
			c-1.6,1.9-4.1,2-5.5,0.9c-1.2-1-1.8-3.1-0.9-4.4c0.6-0.9,1.8-1.4,3.2-1.3l13.9,0v47.7c1.2,1.5,2.3,3,3.1,4.3V10.5z"/>
		<path class="st22" d="M89.4,16.3h-7h-3.9h-4c0.2,0.1,0.3,0.2,0.5,0.3c0,0,0,0,0,0c0.2,0.1,0.5,0.2,0.8,0.2c0.1,0,0.2,0,0.3,0.1
			c0,0,0.1,0,0.1,0c0.3,0,0.5,0.1,0.8,0L77,17c0.8,0.8,0.7,2.2-0.1,2.9c0,0,0,0,0,0c-0.4,0-0.8,0-1.2-0.1c-0.1,0-0.1,0-0.2,0
			c-0.4-0.1-0.7-0.1-1.1-0.3c-0.2-0.1-0.4-0.1-0.6-0.2c-0.1,0-0.2-0.1-0.4-0.2c-1-0.5-1.9-1.1-2.7-2c-0.2-0.3-0.3-0.6-0.3-0.9h-4
			c-1.3,0-2.3,1-2.3,2.3v29.1c0,0.5,0.2,1,0.5,1.4l6.3,8.4c0.4,0.6,1.1,0.9,1.8,0.9h4.6c0.1,2.5-0.2,5.1-0.8,7.5
			c-0.3,1.4-0.8,2.7-1.3,3.7c0.3,0.3,0.6,0.6,0.9,0.8c0.6-1.2,1.1-2.6,1.5-4.3c0.6-2.5,0.8-5.1,0.8-7.8h4.5c0.7,0,1.4-0.3,1.8-0.9
			l6.3-8.4c0.3-0.4,0.5-0.9,0.5-2.2V17.8C91.7,17.3,90.7,16.3,89.4,16.3z M88.7,44.8c0,3.6-5.9,13.2-9.5,13.2h-2.5
			c-3.6,0-9.5-8.9-9.5-12.5V28.1c0-3.6,2.9-6.5,6.6-6.5h8.3c3.6,0,6.6,2.9,6.6,6.5V44.8z"/>
		<path class="st22" d="M71,17.2c-0.2-0.3-0.3-0.6-0.4-1h-0.1c0,0.3,0.1,0.7,0.3,0.9c0.8,0.9,1.7,1.6,2.7,2
			C72.6,18.8,71.7,18.1,71,17.2z"/>
		<path class="st23" d="M67.2,28.1v17.4c0,3.6,5.9,12.5,9.5,12.5h2.5c3.6,0,9.5-9.7,9.5-13.2V28.1c0-3.6-2.9-6.5-6.6-6.5h-8.3
			C70.2,21.7,67.2,24.6,67.2,28.1z"/>
		<path class="st21" d="M74.4,16.3L74.4,16.3c-0.3-0.3-0.8-0.6-1.1-1c-0.3-0.3-0.6-0.5-1-0.5c0.4,0.1,0.7,0.2,0.9,0.5
			C73.6,15.7,74,16,74.4,16.3z"/>
		<path class="st21" d="M75,16.5c-0.2-0.1-0.3-0.2-0.5-0.3h-0.1C74.6,16.4,74.8,16.5,75,16.5z"/>
		<path class="st21" d="M76.9,20C76.9,20,76.9,19.9,76.9,20c-0.4,0-0.8,0-1.2-0.1C76.1,19.9,76.5,20,76.9,20z"/>
		<path class="st21" d="M77,17l-0.1-0.1c-0.2,0-0.5,0-0.8,0c0,0-0.1,0-0.1,0c-0.1,0-0.2,0-0.3-0.1c-0.3-0.1-0.5-0.1-0.8-0.2
			c0,0,0,0,0,0c-0.2-0.1-0.4-0.2-0.6-0.3c-0.4-0.3-0.9-0.6-1.2-1c-0.2-0.3-0.6-0.5-0.9-0.5c-0.5,0-1,0.1-1.3,0.5
			c-0.2,0.3-0.3,0.7-0.3,1c0,0.3,0.1,0.7,0.4,1c0.7,0.9,1.6,1.5,2.6,2c0.1,0.1,0.2,0.1,0.4,0.2c0.2,0.1,0.4,0.2,0.6,0.2
			c0.3,0.1,0.7,0.2,1.1,0.3c0.1,0,0.1,0,0.2,0c0.4,0.1,0.8,0.1,1.2,0.1C77.7,19.1,77.8,17.8,77,17z"/>
		<path class="st21" d="M75,16.5c0.2,0.1,0.5,0.2,0.8,0.2C75.5,16.7,75.3,16.6,75,16.5z"/>
		<path class="st6" d="M59.4,89.6l-1.3-5.2c0,0,0,0,0,0L59.4,89.6L59.4,89.6z"/>
		<path class="st6" d="M59.4,92.1l-3.2,0.8c0,0,0,0,0,0L59.4,92.1L59.4,92.1z"/>
		<polygon class="st6" points="60,91.9 59.4,92.1 59.4,92.1 60,91.9 59.4,89.6 59.4,89.7 		"/>
		<path class="st6" d="M69.8,110.5l-2.2,2.8l0,0L69.8,110.5C69.8,110.5,69.8,110.5,69.8,110.5z"/>
		<path class="st6" d="M69.8,110.5l0.8-1c0,0,0,0,0,0L69.8,110.5C69.8,110.5,69.8,110.5,69.8,110.5z"/>
		<path class="st6" d="M74.6,84c-1-0.5-2-0.9-3.1-1.2c-1.4-0.3-2.7-0.7-3.9-0.9c-0.4-0.1-0.8-0.1-1.3-0.2c-1.3-0.2-2.6-0.1-3.9,0.2
			c-0.5,0.1-1.1,0.3-1.6,0.6l1.6,6.3l0.5,2l0.8,3l0,0.2l0,0l0.1,0.2l-0.1,0l-1.2,0.3l-0.1,0l-3.1,0.8l-1.7,0.4
			c0.8,1.6,1.3,3.2,1.7,4.8c0.1,0.5,0.2,0.9,0.3,1.4c0.9,0.8,1.9,1.5,2.8,2.2c0.6,0.5,1.3,0.9,1.9,1.4c0.3,0.2,0.6,0.4,0.9,0.6
			c0.5,0.3,1,0.7,1.4,1c1.3,0.8,2.6,1.7,4,2.4l0,0c0,0,0,0,0,0l0,0c0,0,0.1,0,0.1,0.1c0,0,0,0,0,0c1.3,0.7,2.6,1.4,4,2.1
			c0.8,0.4,1.6,0.8,2.5,1.2c3.1,1.4,6.2,2.6,9.4,3.6c1.7,0.5,3.4,1,5.1,1.4c7-3.7,13.3-8.8,18.4-14.8L79.6,86.7L74.6,84z"/>
		<path class="st8" d="M58.1,84.4l1.3,5.2l0.6,2.3l-0.6,0.1l-3.2,0.8c0.6,0.9,1.1,1.9,1.5,2.9l1.7-0.4l3.1-0.8l0.1,0l1.2-0.3l0.1,0
			L63.8,94l0,0l0-0.2l-0.8-3l-0.5-2l-1.6-6.3c-0.5,0.2-1,0.5-1.5,0.9C59,83.6,58.5,84,58.1,84.4z"/>
		<path class="st7" d="M86.6,116.3c-3.2-1-6.3-2.2-9.4-3.6c-0.8-0.4-1.7-0.8-2.5-1.2l-0.2,0.3l-3,3.9l8.2,5.2l1.3,0.8l0.5,0.3
			c3.6-1.1,7-2.6,10.2-4.3C90,117.3,88.3,116.8,86.6,116.3z"/>
		<path class="st24" d="M70.6,109.5L70.6,109.5c-1.3-0.8-2.6-1.6-3.9-2.5c-0.5-0.3-1-0.7-1.4-1c-0.3-0.2-0.6-0.4-0.9-0.6
			c-0.6-0.4-1.3-0.9-1.9-1.4c-1-0.7-1.9-1.4-2.8-2.2c0.4,2.2,0.3,4.1-0.3,5.7c-0.1,0.2-0.1,0.4-0.2,0.5l0.2,0.1l1.8,1.1l1.3,0.8
			l5.1,3.2l2.2-2.8L70.6,109.5z"/>
		<path class="st8" d="M70.6,109.4L70.6,109.4c0,0.1,0.1,0.1,0.1,0.1C70.7,109.5,70.7,109.5,70.6,109.4z"/>
		<path class="st8" d="M74.8,111.6c-1.3-0.7-2.7-1.4-4-2.1c0,0,0,0,0,0c0,0-0.1,0-0.1,0l-0.8,1l-2.2,2.8l3.9,2.4l3-3.9L74.8,111.6z"
			/>
		<path class="st7" d="M60,91.9l-0.6-2.2l-1.3-5.3c-0.1,0.1-0.1,0.1-0.2,0.2l-0.1,0.2l-0.5,0.8l-3.5-2.1l3.2-3.8
			c1-1.2,1.8-2.5,2.4-3.9c1.9-4.2,1.8-9,0-13.1c-1-2.2-2.4-4.2-4.3-5.8l-8.2-7c-0.5-0.5-1.1-0.9-1.7-1.2c-4.6,0-9.8,0.9-11.7,4.8
			c-1.2,2.4-0.1,3.9-1.1,7.6c-1.2,4.6-4.6,9.1-8.4,10.3c0.1,0.2,0.2,0.4,0.3,0.6c2.2,4.4,4.1,7.2,4.2,10.1c3.3-1.4,9.1-2.2,16.2,0.5
			c1.3,0.5,2.6,1.2,3.8,2c0.9,0.6,1.8,1.3,2.6,2c2,1.8,3.7,3.9,5.1,6.2l3.2-0.8L60,91.9z M55.2,62.9c1-1.2,2.3-1.8,2.9-1.3
			c0.6,0.5,0.3,1.9-0.8,3.1c-1,1.2-2.3,1.8-2.9,1.3C53.9,65.5,54.2,64.1,55.2,62.9z M50.6,55.7c-0.1-0.3,0.1-0.5,0.5-0.4
			c0.3,0.1,0.7,0.4,0.7,0.7c0.2,0.8,0.4,2.2-0.4,3.2c0,0,0,0,0,0c-0.9,1-2.3,1.1-3,1.1c-0.3,0-0.7-0.3-0.8-0.6s0-0.5,0.3-0.5
			c0.6,0,1.8-0.1,2.5-0.9C51,57.5,50.8,56.3,50.6,55.7z M44.7,53.1c0.9-1,2.2-1.4,3.6-1l-0.1,0.4c-1.2-0.3-2.4,0-3.2,0.9
			c0,0,0,0,0,0c-0.7,0.9-0.9,2.1-0.4,3.2l-0.3,0.1C43.7,55.5,43.9,54.1,44.7,53.1z M35.4,62.8C35.3,62.8,35.3,62.8,35.4,62.8
			c-0.8,1-1,2.3-0.6,3.4l-0.4,0.1c-0.5-1.3-0.3-2.7,0.6-3.8c0.9-1.1,2.3-1.5,3.7-1.2l-0.1,0.4C37.5,61.4,36.2,61.8,35.4,62.8z
			 M42.1,68.6c-1.1,1.2-2.7,1.4-3.5,1.4c-0.3,0-0.7-0.3-0.8-0.6c-0.1-0.3,0.1-0.6,0.4-0.6c0.7,0,2-0.1,2.9-1.1c1-1,1-2.4,0.9-3.1
			c0-0.3,0.2-0.5,0.6-0.4c0.3,0.1,0.7,0.4,0.7,0.7C43.3,65.7,43.2,67.3,42.1,68.6C42.1,68.5,42.1,68.6,42.1,68.6z M47.2,77.4
			c-1.4,1.7-3.2,2.5-4,1.8c-0.8-0.7-0.3-2.6,1.2-4.2c1.4-1.7,3.2-2.5,4-1.8C49.1,73.9,48.6,75.8,47.2,77.4z M52,68.4
			c-1,1.2-2.5,1.7-3.2,1c-0.7-0.6-0.5-2.1,0.5-3.3c1-1.2,2.5-1.7,3.2-1C53.3,65.7,53,67.2,52,68.4z M52.9,74.8l0.1-0.2
			c0.3,0.3,1.8-0.2,3.3-2.1c1.5-1.9,1.8-3.4,1.5-3.6l0.1-0.2c1,0.9-0.4,3.1-1.2,4.1S53.9,75.6,52.9,74.8z"/>
		<path class="st11" d="M56.7,72.8c0.9-1,2.3-3.3,1.2-4.1l-0.1,0.2c0.3,0.3,0.1,1.8-1.5,3.6c-1.5,1.9-3,2.3-3.3,2.1l-0.1,0.2
			C53.9,75.6,55.8,73.9,56.7,72.8z"/>
		<ellipse transform="matrix(0.647 -0.7625 0.7625 0.647 -28.7708 65.446)" class="st9" cx="56.3" cy="63.8" rx="2.8" ry="1.4"/>
		<path class="st9" d="M44.3,75c-1.4,1.7-1.9,3.6-1.2,4.2c0.8,0.7,2.6-0.2,4-1.8c1.4-1.7,1.9-3.6,1.2-4.2
			C47.5,72.5,45.8,73.3,44.3,75z"/>
		<path class="st10" d="M52.5,65.1c-0.7-0.6-2.2-0.2-3.2,1c-1,1.2-1.3,2.7-0.5,3.3c0.7,0.6,2.2,0.2,3.2-1
			C53,67.2,53.3,65.7,52.5,65.1z"/>
		<path class="st11" d="M38.7,61.7l0.1-0.4c-1.4-0.3-2.8,0.1-3.7,1.2c-0.9,1.1-1.1,2.5-0.6,3.8l0.4-0.1c-0.5-1.2-0.2-2.5,0.6-3.4
			c0,0,0,0,0,0C36.2,61.8,37.5,61.4,38.7,61.7z"/>
		<path class="st11" d="M44.6,56.6c-0.5-1.1-0.3-2.4,0.4-3.2c0,0,0,0,0,0c0.8-0.9,2-1.2,3.2-0.9l0.1-0.4c-1.3-0.4-2.7,0-3.6,1
			c-0.8,1-1,2.4-0.5,3.6L44.6,56.6z"/>
		<path class="st11" d="M43.2,64.8c0-0.3-0.3-0.7-0.7-0.7c-0.3-0.1-0.6,0.1-0.6,0.4c0.1,0.7,0,2.1-0.9,3.1c-0.9,1-2.2,1.1-2.9,1.1
			c-0.3,0-0.5,0.3-0.4,0.6c0.1,0.3,0.5,0.6,0.8,0.6c0.8,0,2.4-0.2,3.5-1.4c0,0,0,0,0.1-0.1C43.2,67.3,43.3,65.7,43.2,64.8z"/>
		<path class="st11" d="M47.7,59.3c-0.3,0-0.4,0.2-0.3,0.5s0.5,0.6,0.8,0.6c0.8,0,2.2-0.1,3-1.1c0,0,0,0,0,0
			c0.9-1.1,0.6-2.5,0.4-3.2c-0.1-0.3-0.4-0.6-0.7-0.7c-0.3-0.1-0.5,0.1-0.5,0.4c0.2,0.6,0.3,1.8-0.4,2.7
			C49.5,59.2,48.4,59.3,47.7,59.3z"/>
		<path class="st11" d="M59.7,101.9c-0.1-0.4-0.1-0.9-0.3-1.4c-0.4-1.6-1-3.2-1.7-4.8c-0.4-1-0.9-1.9-1.5-2.9c0,0,0,0,0,0
			c-1.4-2.2-3.1-4.4-5.1-6.2c-0.8-0.7-1.7-1.4-2.6-2c-1.2-0.8-2.5-1.5-3.8-2c-7-2.7-12.9-1.9-16.2-0.5c-0.2-2.9-2-5.6-4.2-10.1
			c-0.1-0.2-0.2-0.4-0.3-0.6c3.8-1.2,7.2-5.8,8.4-10.3c1-3.8-0.1-5.2,1.1-7.6c2-3.9,7.1-4.8,11.7-4.8c0.6,0.4,1.1,0.8,1.7,1.2l8.2,7
			c1.9,1.6,3.3,3.6,4.3,5.8c1.8,4.1,1.9,8.9,0,13.1c-0.6,1.4-1.4,2.7-2.4,3.9l-3.2,3.8l3.5,2.1l0.5-0.8l0.1-0.2
			c0.1-0.1,0.1-0.1,0.2-0.2c0,0,0,0,0,0c0.4-0.4,0.9-0.8,1.3-1.1c0.5-0.4,1-0.6,1.5-0.9c0.5-0.3,1.1-0.4,1.6-0.6
			c1.2-0.3,2.5-0.3,3.9-0.2c0.4,0,0.8,0.1,1.3,0.2c1.2,0.2,2.5,0.5,3.9,0.9c1.1,0.3,2.1,0.7,3.1,1.2l5.1,2.7
			c1.3-3.5,1.9-7.2,0.4-10.6c-0.2-0.6-1.4-3.2-3.7-5.6c-0.3-0.3-0.6-0.6-0.9-0.8c-1.3-1.2-2.9-2.2-4.9-2.8c-2.4-0.7-4.5-0.5-5.9-0.2
			c-0.4-1-1.2-2.4-2.2-4.2c-0.8-1.3-1.8-2.8-3.1-4.3c-2.4-2.9-5.5-5.9-9.7-8.5c-1.6-0.9-4.5-2.7-8.1-3.8c-4.2-1.6-9.9-3-15.4-1.5
			c-6.9,1.9-11.9,8-12.9,14.1c-2.1,4-3.2,8.5-2.8,13c0.3,2.9,1.1,5.6,2.2,7.8c0.5,0.1,1,0.3,1.5,0.5c0.1,0,0.2,0.1,0.3,0.1l4.8,3
			L36,93.6l13.2,8.2l2.5,1.6l7.5,4.7c0.1-0.2,0.1-0.3,0.2-0.5C59.9,106,60,104,59.7,101.9z"/>
		<path class="st20" d="M67.6,113.3l-5.1-3.2l-1.3-0.8l-1.8-1.1l-0.2-0.1l-7.5-4.7l-2.5-1.6L36,93.6L19.2,83.1l-4.8-3
			c-0.1-0.1-0.2-0.1-0.3-0.1c-0.5-0.2-1-0.4-1.5-0.5c-2-0.3-4,0.5-5.1,2.3l-2.8,4.7c9.4,22.6,31.7,38.5,57.7,38.5c6.6,0,13-1,19-3
			l-0.5-0.3l-1.3-0.8l-8.2-5.2L67.6,113.3"/>
	</g>
</g>
<g id="Layer_4_1_">
	<g>
		<path class="st5" d="M125,62.6c0-34.5-28-62.5-62.5-62.5C28,0.1,0,28.1,0,62.6c0,7.5,1.3,14.7,3.7,21.3c1,0.2,1.9,0.4,2.9,0.4h9.1
			h0.5c0.7-1.2,1.5-2.3,2.3-3.4c0,0,0,0,0,0c0.5-0.7,1-1.5,1.6-2.2c0-0.1,0.1-0.1,0.2-0.2c0.1-0.2,0.3-0.4,0.4-0.6
			c-4.4-3-8.2-6.9-9-11.6c0-0.2,0-0.3-0.1-0.4c-0.2-1.3-0.9-8.8,4.1-13.7c0.9-0.9,2.8-2.5,6-3.3c-0.5-3.7-1.3-14.3,4.9-24.8
			c1.7-2.8,5.4-9.1,12.7-12.7c3-1.5,6.3-2.3,9.7-2.6c7.9-2.2,18.5,0.4,25.1,7.4c0.3,0.3,0.5,0.6,0.8,0.9c2.8,2.4,5.1,5.2,6.8,8.3
			c3.8,7.2,3,14.5,2.7,17.8c-1.2,12.2-8.2,20.2-10.8,22.9c1,1.3,2.3,3.4,2.8,6.2c0.7,4.3-0.9,8-2.6,10.5c0.1,0.3,0.2,0.6,0.2,0.9
			v1.9c0,1-0.6,1.9-1.6,2.2L71,88.3c-1,0.4-2.1,0.6-3.1,0.7v4c0.6,0.7,1.2,1.3,1.8,1.9c0.4,0.4,0.9,0.8,1.3,1.2
			c0.1,0.1,0.3,0.2,0.4,0.3c1,0.7,2,1.4,3.1,2.1c0.3,0.2,0.5,0.3,0.8,0.5c0.3,0.1,0.6,0.3,0.8,0.4c0.6,0.3,1.2,0.6,1.7,0.8
			c2.2,0.9,4.5,1.4,6.6,1.4c2.2,0,4.3-0.6,6.3-1.6c2-1.1,3.7-2.7,5.1-4.5c0.7-0.9,1.3-2,1.7-3c0.1-0.3,0.3-0.6,0.4-0.9
			c-0.2-0.2-0.4-0.4-0.5-0.7L95.1,94c0,0-0.1,0-0.1,0.1c-0.5,0.4-2.1-0.3-3.9-1.6c-1.8-1.4-3-2.8-2.6-3.3c0,0,0,0,0,0c0,0,0,0,0,0
			l9.6-12.9c-0.6-0.5-0.9-0.8-0.9-0.9l0.3-0.4l0.5-0.6l0.4,0.3l1.2-1.6l0.6,0.4l0.1-0.1l0,0l0,0l0.1-0.1l0.4,0.3l0.6-0.9l5.7,4.3
			l-0.5,0.7c0,0,0,0,0,0s0,0,0,0l-0.1,0.1l0.4,0.3l-0.1,0.1l0,0l0,0l-0.1,0.1l0.6,0.4l-1.2,1.6l0.4,0.3l-0.5,0.6l-0.3,0.4
			c0,0.1-0.5-0.2-1.1-0.6l-0.3,0.4c2.4,0.7,4.1,2.9,4.3,5.5c0.1,2-0.8,3.9-2.2,5.1c-0.2,1.2-0.6,2.4-1,3.5c-0.7,1.7-1.5,3.2-2.5,4.7
			c-2,2.9-4.5,5.5-7.6,7.4c-3.1,1.9-6.8,3.1-10.4,3.3c-3.7,0.2-7.3-0.5-10.5-1.7c-0.8-0.3-1.6-0.6-2.3-1c-0.4-0.2-0.8-0.4-1.1-0.5
			c-0.4-0.2-0.8-0.4-1.1-0.6c-0.6-0.3-1.2-0.7-1.9-1.1v18.8C99.9,122.1,125,95.3,125,62.6z"/>
		<path class="st5" d="M10.4,95.8c0.1-0.2,0.2-0.4,0.2-0.6c0.3-0.7,0.6-1.5,0.9-2.2c0-0.1,0.1-0.1,0.1-0.2c0.1-0.1,0.1-0.2,0.2-0.3
			c0.1-0.3,0.3-0.6,0.4-0.9H9.2v3.5c0.3,0.5,0.6,1,1,1.5C10.2,96.4,10.3,96.1,10.4,95.8z"/>
		<path class="st5" d="M61.4,101.1c-0.4-0.4-0.9-0.9-1.3-1.4l-3.8,25c2,0.2,4.1,0.3,6.2,0.3c0.7,0,1.4,0,2.1-0.1v-21.1
			c-0.5-0.4-1.1-0.8-1.6-1.3C62.5,102.2,61.9,101.6,61.4,101.1z"/>
		<path class="st5" d="M20.2,108.6l2.3-14.4c-0.1,0.3-0.3,0.5-0.4,0.8c-0.4,0.8-0.9,1.6-1.3,2.4c-0.4,0.8-0.7,1.5-1.1,2.3
			c0,0,0,0,0,0c-0.3,0.8-0.7,1.6-1,2.4c-0.3,0.8-0.6,1.5-0.8,2.3l-0.5,1.5C18.3,106.8,19.3,107.7,20.2,108.6z"/>
		<path class="st7" d="M63.1,102.7c0.5,0.4,1,0.9,1.6,1.3v-2.6L63.1,102.7z"/>
		<path class="st7" d="M67.9,106.1c0.6,0.4,1.2,0.7,1.9,1.1c0.4,0.2,0.7,0.4,1.1,0.6c0.4,0.2,0.8,0.4,1.1,0.5c0.8,0.3,1.5,0.7,2.3,1
			c3.2,1.2,6.9,1.9,10.5,1.7c3.7-0.2,7.3-1.4,10.4-3.3c3.1-1.9,5.7-4.5,7.6-7.4c1-1.5,1.8-3,2.5-4.7c0.4-1.1,0.8-2.2,1-3.5
			c1.5-1.2,2.3-3.1,2.2-5.1c-0.2-2.6-1.9-4.7-4.3-5.5l-1.2,1.6l0,0l-0.3,0.4l-3.9,5.3c0,0,0,0,0,0c0,0,0,0,0,0l-1.4,1.9
			c0.2,0.2,0.3,0.5,0.5,0.7c-0.1,0.3-0.2,0.6-0.4,0.9c-0.5,1-1.1,2-1.7,3c-1.4,1.9-3.2,3.5-5.1,4.5c-2,1.1-4.1,1.6-6.3,1.6
			c-2.2,0-4.4-0.5-6.6-1.4c-0.5-0.2-1.1-0.5-1.7-0.8c-0.3-0.1-0.6-0.3-0.8-0.4c-0.3-0.1-0.6-0.3-0.8-0.5c-1.1-0.6-2.1-1.3-3.1-2.1
			c-0.1-0.1-0.3-0.2-0.4-0.3l-3.2,2.6V106.1z"/>
		<polygon class="st25" points="61.7,89 61.6,89.9 60.3,98.3 64.7,94.7 64.7,89.4 64.7,89 		"/>
		<path class="st8" d="M60.3,98.3l-0.2,1.4c0.4,0.5,0.8,0.9,1.3,1.4c0.5,0.5,1.1,1.1,1.7,1.6l1.6-1.3v-2.7v-3.9L60.3,98.3z"/>
		<path class="st8" d="M69.7,94.9c-0.6-0.6-1.3-1.3-1.8-1.9v3.3v2.4l3.2-2.6C70.6,95.7,70.1,95.3,69.7,94.9z"/>
		<polygon class="st4" points="106.8,78.2 106.8,78.2 106.8,78.2 		"/>
		<polygon class="st4" points="100.2,73.3 100.2,73.3 100.2,73.3 		"/>
		<path class="st26" d="M101.3,78.7c-1.3-1-2.5-1.9-3.2-2.5l-9.6,12.9c0,0,0,0,0,0c0.4-0.5,2.1,0.2,3.9,1.6c1.8,1.4,3,2.8,2.6,3.3
			c0,0,0,0-0.1,0c0,0,0.1,0,0.1-0.1l2.4-3.2l1.4-1.9c-0.2,0.1-1.2-0.5-2.5-1.4c-0.3-0.2-0.7-0.5-1-0.7c-1.8-1.4-3.2-2.6-3.1-2.8
			l4.2-5.7c0,0.3,1.3,1.4,3.1,2.7c0.3,0.2,0.6,0.4,0.8,0.6c1.4,1,2.5,1.6,2.7,1.5l1.2-1.6l0.3-0.4C103.8,80.5,102.6,79.7,101.3,78.7
			z"/>
		<polygon class="st26" points="98.9,88.8 102.8,83.6 98.9,88.8 		"/>
		<path class="st27" d="M92.4,90.7c-1.8-1.3-3.6-2-3.9-1.6c0,0,0,0,0,0c-0.4,0.5,0.8,2,2.6,3.3c1.7,1.3,3.4,2,3.9,1.6
			c0,0,0.1,0,0.1,0C95.4,93.5,94.2,92,92.4,90.7z"/>
		<polygon class="st4" points="106.6,77.6 106.6,77.6 106.6,77.6 		"/>
		<polygon class="st27" points="104.8,80.9 105.8,81.6 104.8,80.9 		"/>
		<polygon class="st27" points="98.2,76 97.2,75.3 98.2,76 		"/>
		<path class="st27" d="M104.3,80.3c-0.8-0.5-1.7-1.2-2.8-2c-1-0.8-2-1.5-2.7-2.1c-0.9-0.8-1.5-1.3-1.4-1.4l-0.3,0.4
			c0,0.1,0.3,0.4,0.9,0.9c0.7,0.6,1.9,1.5,3.2,2.5c1.3,1,2.6,1.8,3.4,2.4c0.6,0.4,1,0.6,1.1,0.6l0.3-0.4
			C106,81.3,105.3,80.9,104.3,80.3z"/>
		<polygon class="st4" points="103.1,83.1 103.1,83.1 102.8,83.6 		"/>
		<path class="st4" d="M98.9,88.9C98.9,88.8,98.9,88.8,98.9,88.9L98.9,88.9C98.9,88.9,98.9,88.9,98.9,88.9z"/>
		<path class="st4" d="M100.5,81.6c-0.3-0.2-0.6-0.4-0.8-0.6c-1.7-1.3-3-2.5-3.1-2.7l-4.2,5.7c-0.1,0.2,1.2,1.4,3.1,2.8
			c0.4,0.3,0.7,0.5,1,0.7c1.3,0.9,2.3,1.5,2.5,1.4l0,0c0,0,0,0,0,0l3.9-5.3l0.3-0.4C103,83.2,101.9,82.6,100.5,81.6z"/>
		<polygon class="st4" points="105.1,80.5 98.5,75.6 97.5,74.9 106,81.3 		"/>
		<path class="st4" d="M107.3,78.7l-0.6-0.4l0.1-0.1l0.1-0.1l-0.4-0.3l0.1-0.1l0,0l0.5-0.7l-5.7-4.3l-0.6,0.9l-0.4-0.3l-0.1,0.1
			l-0.1,0.1L99.6,73l-1.2,1.6l-0.4-0.3l-0.5,0.6c-0.1,0.1,0.5,0.6,1.4,1.4c0.7,0.6,1.6,1.3,2.7,2.1c1,0.8,2,1.4,2.8,2
			c1,0.7,1.7,1.1,1.7,1l0.5-0.6l-0.4-0.3L107.3,78.7z"/>
		<path class="st28" d="M66.6,89h-0.7h-0.8h-0.4v0.3v5.3v3.9v2.7v2.6V125c1.1,0,2.1-0.1,3.2-0.2v-18.8v-7.4v-2.4V93v-4
			C67.5,89,67,89,66.6,89z"/>
		<path class="st29" d="M73.9,82.7c-0.5-1.1-1.8-1.7-3.1-1.3c-1.2,0.5-2.6,0.7-3.9,0.7h-4.4c0,0.4,0,0.7,0,1.1c0,0.5-0.1,1-0.1,1.4
			L61.7,89h2.9h0.4h0.8h0.7c0.4,0,0.8,0,1.2-0.1c1.1-0.1,2.1-0.3,3.1-0.7l1.6-0.6c1-0.3,1.6-1.2,1.6-2.2v-1.9
			C74.2,83.3,74.1,83,73.9,82.7z"/>
		<path class="st6" d="M31.1,91.6h-6.7h-0.4c-0.2,0.3-0.4,0.6-0.5,0.8c-0.2,0.3-0.4,0.7-0.6,1c-0.1,0.3-0.3,0.5-0.4,0.8l-2.3,14.4
			c3.3,3.1,7,5.8,10.9,8.1V91.6z"/>
		<path class="st6" d="M41.2,88.9c0,0,0,0.1-0.1,0.1c0,0,0,0,0.1,0V88.9z"/>
		<path class="st6" d="M39.3,68.2C39.3,68.2,39.3,68.2,39.3,68.2l5.4,7.4l7.4-5.4c0,0,0,0,0,0l-7.3,5.4L39.3,68.2z"/>
		<path class="st8" d="M52.1,70.1l-7.4,5.4l-5.4-7.4c-1.5-0.2-3-0.1-4.4,0.2l9,12.3l0.2-0.2l0,0l12.1-8.8
			C54.9,70.9,53.5,70.4,52.1,70.1z"/>
		<path class="st28" d="M7.2,91.6c0.6,1.2,1.3,2.4,2,3.5v-3.5H7.2z"/>
		<path class="st28" d="M34.6,118.5v-27c-0.4,0-0.9,0.1-1.3,0.1h-2.1v25C32.3,117.3,33.4,117.9,34.6,118.5z"/>
		<path class="st29" d="M15.8,84.3H6.7c-1,0-2-0.1-2.9-0.4c0.7,2,1.6,4,2.5,6c0.3,0.6,0.6,1.1,0.9,1.7h2h3.1
			c0.3-0.6,0.6-1.3,0.9-1.9c0.1-0.1,0.1-0.3,0.2-0.4c0.2-0.3,0.3-0.6,0.5-0.9c0.7-1.4,1.6-2.8,2.4-4.1H15.8z"/>
		<path class="st29" d="M37.8,83.5c-0.9,0.3-1.9,0.5-2.9,0.6c-0.4,0-0.9,0.1-1.3,0.1h-0.3h-3.9c-0.1,0.2-0.3,0.3-0.4,0.5
			c-0.1,0.1-0.2,0.2-0.3,0.4c-0.4,0.5-0.8,1-1.2,1.6c-0.1,0.1-0.1,0.1-0.2,0.2c-0.4,0.6-0.9,1.1-1.3,1.7c0,0,0,0.1-0.1,0.1
			c-0.4,0.6-0.8,1.2-1.3,1.8c0,0,0,0,0,0c-0.2,0.4-0.5,0.7-0.7,1.1h0.4h6.7h2.1c0.4,0,0.9,0,1.3-0.1c1.2-0.1,2.3-0.4,3.4-0.7
			l1.7-0.6c0.6-0.2,1.2-0.7,1.4-1.2c0,0,0-0.1,0.1-0.1c0.1-0.3,0.2-0.6,0.2-1v-0.4v-0.4v-1.2C41.5,84.1,39.6,82.9,37.8,83.5z"/>
		<path class="st7" d="M20.8,77.9c-0.1,0.2-0.3,0.4-0.4,0.6C20.5,78.3,20.6,78.1,20.8,77.9C20.8,77.9,20.8,77.9,20.8,77.9z"/>
		<path class="st7" d="M18.6,80.8c0.5-0.7,1-1.5,1.6-2.2C19.6,79.4,19.1,80.1,18.6,80.8z"/>
		<path class="st7" d="M10.7,95.2c0.3-0.7,0.6-1.5,0.9-2.2C11.3,93.7,11,94.5,10.7,95.2z"/>
		<path class="st7" d="M12.3,91.6L12.3,91.6c-0.2,0.3-0.3,0.6-0.4,0.9C12,92.2,12.2,91.9,12.3,91.6z"/>
		<path class="st7" d="M19.7,99.7C19.7,99.7,19.7,99.7,19.7,99.7C19.7,99.7,19.7,99.7,19.7,99.7z"/>
		<path class="st7" d="M18.6,80.8c-0.8,1.1-1.6,2.3-2.3,3.4h0C17,83.1,17.8,81.9,18.6,80.8z"/>
		<path class="st7" d="M10.1,96.6C10.1,96.6,10.1,96.6,10.1,96.6c0.1-0.3,0.2-0.5,0.3-0.8C10.3,96.1,10.2,96.4,10.1,96.6z"/>
		<path class="st7" d="M21.9,76.5c-0.4,0.5-0.7,0.9-1.1,1.4c0,0,0,0,0,0C21.1,77.4,21.5,77,21.9,76.5z"/>
		<path class="st7" d="M22.6,75.6c-0.1,0.1-0.2,0.3-0.4,0.4C22.4,75.9,22.5,75.8,22.6,75.6C22.6,75.6,22.6,75.6,22.6,75.6z"/>
		<path class="st7" d="M30.5,83.1c-0.1,0.1-0.2,0.2-0.3,0.3C30.3,83.3,30.4,83.2,30.5,83.1C30.5,83.1,30.5,83.1,30.5,83.1z"/>
		<path class="st7" d="M33.3,80.1c0.6-0.5,1.1-1.1,1.7-1.6C34.4,79,33.9,79.5,33.3,80.1z"/>
		<path class="st7" d="M30.7,82.8c-0.1,0.1-0.2,0.2-0.2,0.2c0,0,0,0,0,0C30.5,83,30.6,82.9,30.7,82.8z"/>
		<path class="st7" d="M31.7,81.7c0.3-0.3,0.5-0.6,0.8-0.8C32.3,81.2,32,81.4,31.7,81.7z"/>
		<path class="st7" d="M14.3,87.8c0.7-1.2,1.3-2.3,2.1-3.5h0c-0.8,1.3-1.6,2.7-2.4,4.1C14,88.2,14.1,88,14.3,87.8z"/>
		<path class="st7" d="M13.2,89.7c-0.3,0.6-0.6,1.3-0.9,1.9h0C12.6,91,12.9,90.3,13.2,89.7z"/>
		<path class="st7" d="M28.7,85.1c0.1-0.1,0.2-0.2,0.3-0.4C28.9,84.9,28.8,85,28.7,85.1z"/>
		<path class="st7" d="M24.7,90.5C24.8,90.5,24.8,90.5,24.7,90.5C24.8,90.5,24.8,90.5,24.7,90.5z"/>
		<path class="st7" d="M26,88.7C26,88.6,26.1,88.6,26,88.7C26.1,88.6,26,88.6,26,88.7z"/>
		<path class="st7" d="M27.3,86.9c0.1-0.1,0.1-0.1,0.2-0.2C27.4,86.7,27.4,86.8,27.3,86.9z"/>
		<path class="st5" d="M10.4,95.8c0.1-0.2,0.2-0.4,0.2-0.6C10.6,95.4,10.5,95.6,10.4,95.8z"/>
		<path class="st5" d="M19.7,99.7c0.3-0.8,0.7-1.5,1.1-2.3l0,0C20.4,98.1,20.1,98.9,19.7,99.7z"/>
		<path class="st5" d="M18.7,102.1c-0.3,0.8-0.6,1.5-0.8,2.3C18.1,103.6,18.5,102.9,18.7,102.1z"/>
		<path class="st5" d="M19.7,99.7c-0.3,0.8-0.7,1.6-1,2.4C19,101.3,19.4,100.5,19.7,99.7z"/>
		<path class="st5" d="M11.7,92.8c0,0.1-0.1,0.1-0.1,0.2C11.7,92.9,11.7,92.9,11.7,92.8L11.7,92.8z"/>
		<path class="st7" d="M18.7,102.1c0.3-0.8,0.6-1.6,1-2.4c0,0,0,0,0,0c0.3-0.8,0.7-1.5,1.1-2.3l-9.1-4.6c0,0.1-0.1,0.1-0.1,0.2
			c-0.3,0.7-0.6,1.5-0.9,2.2c-0.1,0.2-0.2,0.4-0.2,0.6c-0.1,0.3-0.2,0.6-0.3,0.8c2.1,3.3,4.6,6.4,7.3,9.2l0.5-1.5
			C18.1,103.6,18.5,102.9,18.7,102.1z"/>
		<path class="st6" d="M20.2,78.6c0.1-0.1,0.1-0.1,0.2-0.2C20.3,78.5,20.2,78.6,20.2,78.6z"/>
		<path class="st6" d="M18.6,80.8C18.6,80.8,18.6,80.8,18.6,80.8C18.6,80.8,18.6,80.8,18.6,80.8z"/>
		<path class="st6" d="M21.9,76.5c0.1-0.2,0.3-0.3,0.4-0.5C22.1,76.2,22,76.4,21.9,76.5z"/>
		<path class="st6" d="M23.5,92.4c0.2-0.3,0.4-0.6,0.5-0.8h0C23.9,91.9,23.7,92.1,23.5,92.4L23.5,92.4z"/>
		<path class="st6" d="M30.2,83.4c-0.3,0.3-0.5,0.6-0.8,0.9h0C29.7,84,29.9,83.7,30.2,83.4z"/>
		<path class="st6" d="M30.7,82.8c0.3-0.4,0.7-0.8,1-1.1C31.4,82.1,31,82.5,30.7,82.8z"/>
		<path class="st6" d="M32.5,80.9c0.3-0.3,0.5-0.5,0.8-0.8C33.1,80.3,32.8,80.6,32.5,80.9z"/>
		<path class="st6" d="M24.8,90.5c0.4-0.6,0.8-1.2,1.3-1.8C25.6,89.3,25.2,89.9,24.8,90.5z"/>
		<path class="st6" d="M26.1,88.6c0.4-0.6,0.8-1.2,1.3-1.7C26.9,87.4,26.5,88,26.1,88.6z"/>
		<path class="st6" d="M27.5,86.7c0.4-0.5,0.8-1,1.2-1.6C28.3,85.6,27.9,86.1,27.5,86.7z"/>
		<path class="st6" d="M24.7,90.5c-0.2,0.4-0.5,0.7-0.7,1.1h0C24.3,91.2,24.5,90.9,24.7,90.5z"/>
		<path class="st6" d="M29.4,84.3c-0.1,0.2-0.3,0.3-0.4,0.5C29.2,84.6,29.3,84.4,29.4,84.3L29.4,84.3z"/>
		<path class="st6" d="M62.5,82.1c-0.2-4.3-2.6-8.3-6.3-10.4l-12.1,8.8l0,0l-0.2,0.2l-9-12.3c-0.1,0-0.2,0.1-0.3,0.1
			c-0.2,0.4-0.4,0.8-0.6,1.1C31.3,74.1,28,77,25.4,77c-0.1,0-0.2,0-0.3,0c-0.9-0.1-1.7-0.6-2.5-1.3c-0.1,0.1-0.2,0.3-0.4,0.4
			c-0.1,0.2-0.3,0.3-0.4,0.5c-0.4,0.5-0.7,0.9-1.1,1.4c-0.1,0.2-0.3,0.4-0.4,0.6c-0.1,0.1-0.1,0.1-0.2,0.2c-0.5,0.7-1.1,1.4-1.6,2.2
			c0,0,0,0,0,0c-0.8,1.1-1.5,2.3-2.3,3.4c-0.7,1.1-1.4,2.3-2.1,3.5l7.6,3.8l1,0.5l0.7,0.4c0.2-0.3,0.3-0.6,0.5-0.8
			c0.2-0.4,0.5-0.7,0.7-1.1c0,0,0,0,0,0c0.4-0.6,0.8-1.2,1.3-1.8c0,0,0-0.1,0.1-0.1c0.4-0.6,0.8-1.2,1.3-1.7
			c0.1-0.1,0.1-0.1,0.2-0.2c0.4-0.5,0.8-1,1.2-1.6c0.1-0.1,0.2-0.2,0.3-0.4c0.1-0.2,0.3-0.3,0.4-0.5h0h3.9h0.3c0.5,0,0.9,0,1.3-0.1
			c1-0.1,2-0.3,2.9-0.6c1.8-0.6,3.6,0.6,3.6,2.3v1.2v0.4v0.4c0,0.4-0.1,0.7-0.2,1V89c0,0,0,0-0.1,0c-0.3,0.5-0.8,1-1.4,1.2L38,90.8
			c-1.1,0.4-2.2,0.6-3.4,0.7v27c2.1,1.1,4.3,2,6.6,2.8c1.1,0.4,2.1,0.7,3.2,1.1c3.8,1.2,7.8,2,11.9,2.4l3.8-25l0.2-1.4l1.3-8.4
			l0.1-0.8l0.7-4.4c0.1-0.5,0.1-1,0.1-1.4C62.5,82.9,62.5,82.5,62.5,82.1z"/>
		<path class="st8" d="M11.9,92.5c-0.1,0.1-0.1,0.2-0.2,0.3l0,0C11.8,92.7,11.8,92.6,11.9,92.5z"/>
		<path class="st8" d="M20.8,97.4L20.8,97.4c0.4-0.8,0.8-1.6,1.3-2.4l0,0C21.6,95.7,21.2,96.6,20.8,97.4z"/>
		<path class="st8" d="M13.4,89.3c-0.1,0.1-0.1,0.3-0.2,0.4C13.3,89.5,13.4,89.4,13.4,89.3L13.4,89.3z"/>
		<path class="st8" d="M22.1,94.9L22.1,94.9c0.1-0.3,0.3-0.5,0.4-0.8l0,0C22.4,94.4,22.2,94.7,22.1,94.9z"/>
		<path class="st8" d="M22.5,94.2L22.5,94.2c0.1-0.3,0.3-0.5,0.4-0.8C22.8,93.7,22.7,93.9,22.5,94.2z"/>
		<path class="st8" d="M23.5,92.4L23.5,92.4c-0.2,0.3-0.4,0.7-0.6,1C23.1,93.1,23.3,92.8,23.5,92.4z"/>
		<path class="st8" d="M13.9,88.4c-0.2,0.3-0.3,0.6-0.5,0.9l0,0C13.6,89,13.7,88.7,13.9,88.4z"/>
		<path class="st8" d="M22.8,92.1l-1-0.5l-7.6-3.8c-0.1,0.2-0.2,0.4-0.3,0.6c-0.2,0.3-0.3,0.6-0.5,0.9c-0.1,0.1-0.1,0.3-0.2,0.4
			c-0.3,0.6-0.6,1.3-0.9,1.9c-0.1,0.3-0.3,0.6-0.4,0.9c-0.1,0.1-0.1,0.2-0.2,0.4l9.1,4.6c0.4-0.8,0.8-1.6,1.3-2.4
			c0.1-0.3,0.3-0.5,0.4-0.8c0.1-0.3,0.3-0.5,0.4-0.8c0.2-0.3,0.4-0.7,0.6-1L22.8,92.1z"/>
		<path class="st7" d="M67.9,28.5c-3.5-0.2-4.6,1.7-9.6,2.4C57.9,31,57.5,31,57.1,31c0.9,0.7,1.5,1.7,1.7,2.9l-0.4,0
			c-0.1-1.2-0.9-2.3-1.9-2.9c-1.2,0.1-2.4,0.1-3.6,0c-0.3,0.1-0.5,0.3-0.8,0.5l-0.3-0.3c0.1-0.1,0.2-0.2,0.3-0.3
			c-4.9-0.5-9.6-2.4-11.9-5.6c-0.4,0.9-0.8,1.8-1.4,2.7c-2.3,4-5.3,6.5-7.2,7.9c2.1,2.6,6.1,8.3,6.5,16.2c0.1,2.2,0,4.3-0.4,6.4
			c0.6,0.3,1.1,0.6,1.7,0.8l2.7,0.9l-1.2,8l-1.2-0.2l-0.2,0c-0.1,0-0.1,0-0.2,0l5.4,7.3l7.3-5.4c-0.1,0-0.2,0-0.3-0.1l-0.2,0
			l-1.1-0.2l1-6.4l0.8,0.3c9.6,3.2,20-2.1,23.2-11.7l3.8-11.6c0.3-0.8,0.5-1.6,0.6-2.4C77,33.3,73.1,28.8,67.9,28.5z M65.3,42.6
			c1.4-2.4,3.9-3.6,5.8-2.7c0.1,0,0.2,0.1,0.3,0.1c1.8,1.1,2.1,4,0.6,6.5c-1.5,2.5-4.2,3.7-6,2.6c-0.1,0-0.2-0.1-0.2-0.2
			C64.1,47.8,63.9,45,65.3,42.6z M48.9,35.6c1.5-2.4,4-3.5,5.8-2.6c0.1,0,0.2,0.1,0.2,0.1c1.8,1.1,2.1,4,0.5,6.5
			c-1.5,2.5-4.2,3.6-6.1,2.5c-0.1,0-0.2-0.1-0.2-0.2C47.6,40.8,47.5,38,48.9,35.6z M41.2,43.7c0.3-1.1,2.6-1.4,4.9-0.7
			c2.4,0.7,4,2.3,3.7,3.4c-0.3,1.1-2.6,1.4-4.9,0.7C42.5,46.3,40.8,44.8,41.2,43.7z M59.7,59.5c-2.4-1.8-5-3-7.7-3.5
			c-2.2-0.4-4.4-0.4-6.6,0l-0.1-0.4c2.2-0.4,4.5-0.4,6.8,0c2.8,0.5,5.4,1.8,7.9,3.6L59.7,59.5z M61.4,50.2c-0.4,1.3-2.3,2-4.2,1.4
			c-1.9-0.6-3.1-2.2-2.7-3.5c0.4-1.3,2.3-2,4.2-1.4S61.8,48.9,61.4,50.2z M73,55c-0.3,1.1-2.6,1.4-4.9,0.7c-2.4-0.7-4-2.3-3.7-3.4
			c0.3-1.1,2.6-1.4,4.9-0.7C71.7,52.4,73.3,53.9,73,55z M74.7,40.9c-0.2-1.4-1.1-2.6-2.4-3.1c0,0,0,0,0,0c-1.3-0.5-2.8-0.2-3.8,0.7
			l-0.3-0.3c1.2-1,2.8-1.4,4.3-0.8c1.5,0.6,2.5,1.9,2.7,3.5L74.7,40.9z"/>
		<path class="st11" d="M45.3,55.6l0.1,0.4c2.2-0.4,4.4-0.4,6.6,0c2.7,0.5,5.3,1.7,7.7,3.5l0.3-0.4c-2.5-1.8-5.1-3-7.9-3.6
			C49.8,55.1,47.5,55.1,45.3,55.6z"/>
		<path class="st9" d="M69.3,51.6c-2.4-0.7-4.6-0.4-4.9,0.7c-0.3,1.1,1.3,2.6,3.7,3.4c2.4,0.7,4.6,0.4,4.9-0.7
			C73.3,53.9,71.7,52.4,69.3,51.6z"/>
		<path class="st9" d="M49.8,46.4c0.3-1.1-1.3-2.6-3.7-3.4c-2.4-0.7-4.6-0.4-4.9,0.7c-0.3,1.1,1.3,2.6,3.7,3.4
			C47.2,47.8,49.5,47.5,49.8,46.4z"/>
		<path class="st10" d="M58.7,46.7c-1.9-0.6-3.8,0-4.2,1.4c-0.4,1.3,0.8,2.9,2.7,3.5c1.9,0.6,3.8,0,4.2-1.4
			C61.8,48.9,60.6,47.3,58.7,46.7z"/>
		<path class="st4" d="M49.2,42c-0.3-1.7,0.1-3.7,1.2-5.5c1.1-1.8,2.7-3.1,4.3-3.6c-1.8-0.9-4.4,0.3-5.8,2.6
			C47.5,38,47.6,40.8,49.2,42z"/>
		<path class="st30" d="M50.4,36.6c-1.1,1.8-1.5,3.8-1.2,5.5c0.1,0.1,0.1,0.1,0.2,0.2c1.8,1.1,4.5,0,6.1-2.5
			c1.5-2.5,1.3-5.4-0.5-6.5c-0.1,0-0.2-0.1-0.2-0.1C53.1,33.5,51.5,34.7,50.4,36.6z"/>
		<path class="st4" d="M65.7,48.9c-0.3-1.7,0-3.7,1.1-5.5c1.1-1.8,2.7-3.1,4.3-3.6c-1.8-0.8-4.4,0.3-5.8,2.7S64.1,47.8,65.7,48.9z"
			/>
		<path class="st30" d="M66.8,43.4c-1.1,1.8-1.4,3.8-1.1,5.5c0.1,0.1,0.1,0.1,0.2,0.2c1.8,1.1,4.5-0.1,6-2.6
			c1.5-2.5,1.2-5.5-0.6-6.5c-0.1,0-0.2-0.1-0.3-0.1C69.5,40.3,67.9,41.6,66.8,43.4z"/>
		<path class="st11" d="M52,31.6c0.2-0.2,0.5-0.4,0.8-0.5c-0.2,0-0.5,0-0.7-0.1c-0.1,0.1-0.2,0.2-0.3,0.3L52,31.6z"/>
		<path class="st11" d="M58.3,34l0.4,0c-0.1-1.2-0.7-2.2-1.7-2.9c-0.2,0-0.5,0-0.7,0.1C57.5,31.7,58.2,32.8,58.3,34z"/>
		<path class="st11" d="M72.4,37.3c-1.5-0.6-3.1-0.3-4.3,0.8l0.3,0.3c1.1-0.9,2.5-1.2,3.8-0.7c0,0,0,0,0,0c1.3,0.5,2.3,1.7,2.4,3.1
			l0.4,0C75,39.2,73.9,37.9,72.4,37.3z"/>
		<path class="st11" d="M27.4,70.4L27.4,70.4C27.4,70.5,27.4,70.5,27.4,70.4C27.4,70.5,27.4,70.5,27.4,70.4L27.4,70.4z"/>
		<path class="st11" d="M24.4,73.6c0.4-0.4,0.7-0.8,1.1-1.2C25.1,72.8,24.8,73.2,24.4,73.6z"/>
		<path class="st11" d="M23.6,74.4c-0.3,0.4-0.7,0.8-1,1.2c0,0,0,0,0,0C22.9,75.2,23.3,74.8,23.6,74.4z"/>
		<path class="st11" d="M23.6,74.4c0.3-0.3,0.5-0.6,0.8-0.9C24.2,73.9,23.9,74.1,23.6,74.4z"/>
		<path class="st11" d="M25.5,72.4c0.6-0.6,1.2-1.3,1.9-1.9C26.7,71.1,26.1,71.8,25.5,72.4z"/>
		<path class="st11" d="M81.8,25.3c-1.6-3.2-4-6-6.8-8.3c-0.2-0.3-0.5-0.6-0.8-0.9c-6.6-7-17.2-9.6-25.1-7.4
			c-3.4,0.3-6.7,1.1-9.7,2.6c-7.3,3.6-11.1,9.9-12.7,12.7c-6.3,10.5-5.4,21.1-4.9,24.8c-3.2,0.9-5.1,2.4-6,3.3
			c-5,4.9-4.3,12.4-4.1,13.7c0,0.1,0,0.2,0.1,0.4c0.7,4.8,4.6,8.6,9,11.6c0.4-0.5,0.7-0.9,1.1-1.4c0.1-0.2,0.3-0.3,0.4-0.5
			c0.1-0.1,0.2-0.3,0.4-0.4l0,0c0.8,0.7,1.6,1.2,2.5,1.3c0.1,0,0.2,0,0.3,0c2.6,0.1,5.9-2.9,8.5-7.4c0.2-0.4,0.4-0.7,0.6-1.1
			c0.1,0,0.2-0.1,0.3-0.1c1.4-0.3,2.9-0.4,4.4-0.2c0,0,0,0,0,0c0.1,0,0.1,0,0.2,0l0.2,0l1.2,0.2l1.2-8l-2.7-0.9
			c-0.6-0.2-1.2-0.5-1.7-0.8c0.4-2.1,0.5-4.3,0.4-6.4c-0.4-7.9-4.5-13.7-6.5-16.2c1.9-1.4,4.9-3.9,7.2-7.9c0.5-0.9,1-1.8,1.4-2.7
			c2.3,3.1,7,5,11.9,5.6c0.2,0,0.5,0,0.7,0.1c1.2,0.1,2.4,0.1,3.6,0c0.2,0,0.5,0,0.7-0.1c0.4,0,0.8-0.1,1.2-0.1
			c5-0.7,6.1-2.6,9.6-2.4c5.2,0.3,9.1,4.8,11.9,9.4c-0.1,0.8-0.3,1.6-0.6,2.4L75.3,52c-3.2,9.6-13.6,14.8-23.2,11.7l-0.8-0.3l-1,6.4
			l1.1,0.2l0.2,0c0.1,0,0.2,0,0.3,0.1c0,0,0,0,0,0c1.5,0.3,2.9,0.8,4.1,1.5c3.7,2.2,6.1,6.1,6.3,10.4h4.4c1.3,0,2.6-0.2,3.9-0.7
			c1.3-0.5,2.6,0.2,3.1,1.3c1.6-2.5,3.3-6.2,2.6-10.5c-0.5-2.9-1.8-5-2.8-6.2c2.6-2.7,9.6-10.7,10.8-22.9
			C84.8,39.8,85.6,32.5,81.8,25.3z"/>
	</g>
</g>
<g id="Layer_5_1_" class="st0">
	<g class="st1">
		<path class="st5" d="M3.7,47.1C3.8,47,4,47,4.1,46.9c8.7-7.6,18.9-13.4,30.2-17c5.2-10.5,25.4-14.6,39.8-7.8
			c3,1.4,5.6,3.3,7.8,5.3c2.2,1,4.2,2.2,6,3.6c8.3,3,16.1,7.3,23,12.6c4-0.4,7.4-1,10.1-1.6c1.1,3.9,2.2,8.6,2.8,13.9
			c0.4,0.4,0.7,0.9,1,1.3C122.2,25.2,95.4,0,62.6,0c-30,0-55,21.1-61.1,49.2c0.6-0.6,1.2-1.2,1.9-1.7C3.5,47.3,3.6,47.2,3.7,47.1z"
			/>
		<path class="st31" d="M0.4,68.1c0.2,2.1,0.5,4.2,0.9,6.3c0.7-0.2,1.4-0.4,2.1-0.6C2.2,72.1,1.1,70.3,0.4,68.1z"/>
		<path class="st31" d="M30.5,38.3c0.7-1,1.5-2.1,2.4-3.1c0.1-1.8,0.6-3.6,1.4-5.1c0,0,0-0.1,0-0.1c-11.3,3.5-21.5,9.4-30.2,17
			c4-1.6,9.5-3.6,16.1-5.6C23.9,40.2,27.3,39.2,30.5,38.3z"/>
		<path class="st31" d="M3.4,47.5c-0.6,0.6-1.3,1.1-1.9,1.7c-0.3,1.2-0.5,2.4-0.7,3.7C1.6,50.9,2.5,49,3.4,47.5z"/>
		<path class="st31" d="M97.5,43.8c1.1,0.1,2.3,0.2,3.6,0.2c3.6,0.1,6.9-0.1,9.9-0.3c-6.9-5.3-14.6-9.6-23-12.6
			c0.5,0.4,0.9,0.7,1.4,1.1C93.7,35.9,96.1,40.3,97.5,43.8z"/>
		<path class="st32" d="M8.3,83.9c-1-4.2-3-7.1-4.9-10.1c-0.7,0.2-1.4,0.3-2.1,0.6c1.3,6.7,3.7,13.1,7,18.9
			C9,89.4,8.8,86.3,8.3,83.9z"/>
		<path class="st4" d="M3.7,47.1c-0.1,0.1-0.2,0.3-0.2,0.4c0.2-0.2,0.4-0.4,0.7-0.6C4,47,3.8,47,3.7,47.1z"/>
		<path class="st6" d="M64.1,96.7l5.4-4.3c0,0,0,0,0,0L64.1,96.7C64.1,96.7,64.1,96.7,64.1,96.7z"/>
		<path class="st6" d="M58.9,96.8l-5.5-4.4c0,0,0,0-0.1,0L58.9,96.8C58.8,96.8,58.9,96.8,58.9,96.8z"/>
		<path class="st6" d="M79.2,95.3c-1.3-0.9-2.8-1.6-4.4-2.1l-3.7,3C73.9,96,76.6,95.7,79.2,95.3z"/>
		<path class="st6" d="M47.9,93.2c-2.5,0.8-4.7,2.1-6.4,3.7c4,0,7.7-0.1,10.9-0.1L47.9,93.2z"/>
		<path class="st8" d="M71.1,96.2l3.7-3c-1.7-0.5-3.5-0.8-5.4-0.9l-5.4,4.3C66.5,96.6,68.9,96.4,71.1,96.2z"/>
		<path class="st8" d="M58.8,96.8l-5.5-4.4c-1.9,0-3.7,0.3-5.4,0.9l4.5,3.6C54.9,96.8,57.1,96.8,58.8,96.8z"/>
		<path class="st7" d="M87.6,42.3c-0.1-0.2-0.2-0.4-0.3-0.6C83,38.8,78,36.7,73,37.2c-0.5,0.1-1.1,0.1-1.6,0.3
			c-4.3,1-4.9,3.4-10.6,5.9c-8.5,3.7-20.7,4.3-25.7-0.9c-1.5,2.9-2.3,6.1-2.3,9.6v14.3c0,2.5,0.5,4.9,1.2,7.1
			c2.8,7.9,10.2,13.8,19,14.3l2.4,0v4.6h-1.5h-0.3c-0.1,0-0.2,0-0.3,0l5.5,4.4c1.2,0,2.2,0,2.9,0c0.8,0,1.5,0,2.3-0.1l5.4-4.3
			c-0.1,0-0.2,0-0.4,0h-0.3h-1.4v-4.5l1.2,0c9.3,0,17.2-6,20.2-14.3c0.8-2.2,1.2-4.6,1.2-7.1V52C90,48.5,89.1,45.2,87.6,42.3z
			 M69.1,46.4c0.9,0.6,1.9,1,2.9,1.3c3.4,0.8,6.4-0.6,7.8-1.6l0.5,0.8c-1.3,0.8-3.5,2-6.3,2c-0.7,0-1.5-0.1-2.3-0.3
			c-1.1-0.3-2.2-0.8-3.3-1.4L69.1,46.4z M78.8,53.5c0,0.8-0.1,1.6-0.3,2.3c-0.6,2.7-2.3,4.7-4.3,4.7c-2.5,0-4.6-3.1-4.6-7
			c0-0.6,0-1,0.1-1.4c0.5-2.4,2.3-2.1,4.4-2.1C76.7,50,78.8,49.6,78.8,53.5z M61.4,59.5c2.3,0,4.2,1.3,4.2,3s-1.9,3-4.2,3
			s-4.2-1.3-4.2-3S59.1,59.5,61.4,59.5z M43.2,46.1c1.5,1,4.4,2.4,7.8,1.6c1-0.2,2-0.7,2.9-1.3l0.5,0.8c-1,0.7-2.1,1.2-3.3,1.4
			C50.5,48.9,49.7,49,49,49c-2.8,0-5.1-1.2-6.3-2L43.2,46.1z M52.9,53.5c0,3.9-2,7-4.6,7c-2,0-3.7-2-4.3-4.7
			c-0.2-0.7-0.3-1.5-0.3-2.3c0-3.9,2-3.5,4.6-3.5c2.2,0,4-0.2,4.4,2.1C52.8,52.5,52.9,53,52.9,53.5z M43.2,67.2
			c-2.9,0-5.3-1.1-5.3-2.5c0-1.4,2.4-2.5,5.3-2.5c2.9,0,5.3,1.1,5.3,2.5C48.5,66.1,46.1,67.2,43.2,67.2z M71.5,73.4
			c-1.9-2.2-3.6-3.3-5.1-3.2c-1.2,0.1-2,0.9-2.9,1.8c-0.5,0.5-1,1.1-1.7,1.4c-0.4,0.3-0.9,0.4-1.5,0.4c0,0,0,0-0.1,0
			c-0.5,0-1-0.2-1.4-0.4c-0.6-0.4-1.2-1-1.6-1.6c-0.7-0.9-1.4-1.7-2.4-1.8c-1.3-0.1-2.9,1-4.7,3.3c0,0,0,0,0,0l0,0l-0.8-0.6
			c2.1-2.6,3.9-3.9,5.6-3.7c1.5,0.1,2.3,1.2,3.1,2.1c0.7,0.9,1.3,1.6,2.3,1.6c1,0,1.6-0.7,2.5-1.6c0.9-1,2-2,3.6-2.1
			c1.8-0.1,3.8,1.1,5.9,3.6L71.5,73.4z M79.1,67.2c-2.9,0-5.3-1.1-5.3-2.5c0-1.4,2.4-2.5,5.3-2.5c2.9,0,5.3,1.1,5.3,2.5
			C84.3,66.1,82,67.2,79.1,67.2z"/>
		<path class="st11" d="M63.5,72c0.9-0.9,1.7-1.8,2.9-1.8c1.5-0.1,3.2,1,5.1,3.2l0.8-0.6c-2.1-2.5-4.1-3.7-5.9-3.6
			c-1.6,0.1-2.6,1.2-3.6,2.1c-0.8,0.8-1.5,1.6-2.5,1.6c-0.9,0-1.5-0.8-2.3-1.6c-0.8-0.9-1.7-2-3.1-2.1c-1.7-0.1-3.5,1.1-5.6,3.7
			l0.8,0.6h0c1.8-2.3,3.4-3.4,4.7-3.3c1,0.1,1.7,0.9,2.4,1.8c0.5,0.6,1,1.2,1.6,1.6h2.9C62.4,73.1,62.9,72.6,63.5,72z"/>
		<path class="st11" d="M60.2,73.9C60.3,73.9,60.3,73.9,60.2,73.9c0.6,0,1.1-0.2,1.5-0.4h-2.9C59.3,73.7,59.7,73.9,60.2,73.9z"/>
		<path class="st11" d="M50.1,73.5C50.1,73.5,50.1,73.5,50.1,73.5L50.1,73.5L50.1,73.5z"/>
		<path class="st33" d="M73.8,64.7c0,1.4,2.4,2.5,5.3,2.5c2.9,0,5.3-1.1,5.3-2.5c0-1.4-2.4-2.5-5.3-2.5
			C76.2,62.2,73.8,63.4,73.8,64.7z"/>
		<path class="st33" d="M43.2,62.2c-2.9,0-5.3,1.1-5.3,2.5c0,1.4,2.4,2.5,5.3,2.5c2.9,0,5.3-1.1,5.3-2.5
			C48.5,63.4,46.1,62.2,43.2,62.2z"/>
		<path class="st10" d="M61.4,65.5c2.3,0,4.2-1.3,4.2-3s-1.9-3-4.2-3s-4.2,1.3-4.2,3S59.1,65.5,61.4,65.5z"/>
		<path class="st4" d="M52.7,52.1c-0.5-2.4-2.3-2.1-4.4-2.1c-2.5,0-4.6-0.3-4.6,3.5c0,0.8,0.1,1.6,0.3,2.3
			C45.8,53.7,49,52.3,52.7,52.1z"/>
		<path class="st11" d="M44,55.8c0.6,2.7,2.3,4.7,4.3,4.7c2.5,0,4.6-3.1,4.6-7c0-0.6,0-1-0.1-1.4C49,52.3,45.8,53.7,44,55.8z"/>
		<path class="st4" d="M78.5,55.8c0.2-0.7,0.3-1.5,0.3-2.3c0-3.9-2-3.5-4.6-3.5c-2.2,0-4-0.2-4.4,2.1C73.5,52.3,76.7,53.7,78.5,55.8
			z"/>
		<path class="st11" d="M78.5,55.8c-1.8-2.1-5-3.5-8.7-3.7c-0.1,0.4-0.1,0.9-0.1,1.4c0,3.9,2,7,4.6,7C76.2,60.5,77.9,58.6,78.5,55.8
			z"/>
		<path class="st11" d="M74.1,49c2.8,0,5.1-1.2,6.3-2l-0.5-0.8c-1.5,1-4.4,2.4-7.8,1.6c-1-0.2-2-0.7-2.9-1.3l-0.5,0.8
			c1,0.7,2.1,1.2,3.3,1.4C72.6,48.9,73.4,49,74.1,49z"/>
		<path class="st11" d="M51.2,48.7c1.1-0.3,2.2-0.8,3.3-1.4L54,46.4c-0.9,0.6-1.9,1-2.9,1.3c-3.4,0.8-6.4-0.6-7.8-1.6L42.6,47
			c1.3,0.8,3.5,2,6.3,2C49.7,49,50.5,48.9,51.2,48.7z"/>
		<path class="st11" d="M101,81.2c-1.6-2.7-4-4.4-5.6-5.3c0.3-0.6,0.8-1.4,1.2-2.4c2.2-4.8,5.2-13.7,2.5-24.3
			c-0.3-1.3-0.8-3.2-1.7-5.4c-1.4-3.6-3.8-7.9-8.1-11.7c-0.4-0.4-0.9-0.8-1.4-1.1c-1.8-1.4-3.9-2.6-6-3.6c-2.2-2-4.8-3.8-7.8-5.3
			c-14.5-6.8-34.6-2.7-39.8,7.8c0,0,0,0.1,0,0.1c-0.7,1.5-1.2,3.3-1.4,5.1c-0.9,1-1.7,2.1-2.4,3.1c-2.8,4.4-3.9,8.7-4.5,10.9
			c-2.6,10.5,0.3,19.5,2.5,24.3c0.4,1,0.9,1.8,1.2,2.4c-3.3,1.9-4.9,4.1-5.6,5.3c-2.1,3.5-2,7.2-1.4,10c0.9-0.5,2-0.7,3.1-0.7
			c3.7,0,6.7,2.9,6.9,6.5c3,0,5.9-0.1,8.7-0.1c1.7-1.6,3.9-2.9,6.4-3.7c1.7-0.5,3.5-0.8,5.4-0.9c0,0,0,0,0.1,0c0.1,0,0.2,0,0.3,0
			h0.3h1.5v-4.6l-2.4,0c-8.8-0.5-16.1-6.3-19-14.3c-0.8-2.2-1.2-4.6-1.2-7.1V52c0-3.4,0.8-6.7,2.3-9.6c4.9,5.2,17.2,4.6,25.7,0.9
			c5.7-2.5,6.3-4.8,10.6-5.9c0.5-0.1,1.1-0.2,1.6-0.3c5-0.5,9.9,1.6,14.2,4.5c0.1,0.2,0.2,0.4,0.3,0.6c1.5,2.9,2.4,6.3,2.4,9.8v14.3
			c0,2.5-0.5,4.9-1.2,7.1c-2.9,8.3-10.9,14.3-20.2,14.3l-1.2,0v4.5h1.4H69c0.1,0,0.2,0,0.4,0c0,0,0,0,0,0c1.9,0,3.7,0.4,5.4,0.9
			c1.6,0.5,3.1,1.2,4.4,2.1c3.8-0.5,7.4-1.2,10.8-1.8c0-0.3-0.1-0.6-0.1-0.8c0-3.8,3.1-6.9,6.9-6.9c2.5,0,4.6,1.3,5.9,3.3
			C102.9,86.6,102.6,83.8,101,81.2z"/>
		<path class="st34" d="M85.1,120.8c0.5-0.2,1-0.4,1.5-0.6c-0.5,0-1-0.1-1.5-0.1L85.1,120.8z"/>
		<path class="st34" d="M59.4,118.9c-5.5,0.1-12.5,0.7-20.1,1.6c7.2,2.9,15.1,4.5,23.3,4.5c7.9,0,15.5-1.5,22.4-4.2l0-0.7
			C75.2,119.4,65.9,118.8,59.4,118.9z"/>
		<path class="st4" d="M64.1,96.7C64.1,96.7,64.1,96.7,64.1,96.7l-2.7,2.1l-2.5-2c0,0,0,0-0.1,0l2.6,2.1L64.1,96.7z"/>
		<path class="st7" d="M32.8,97c-0.2-3.6-3.2-6.5-6.9-6.5c-1.1,0-2.2,0.3-3.1,0.7c-2.2,1.1-3.8,3.4-3.8,6c0,0.1,0,0.1,0,0.2
			c0,0.8,0.1,1.5,0.4,2.2c0.9,2.8,3.5,4.7,6.6,4.7c1.9,0,3.7-0.8,4.9-2.1c0.7-0.8,1.3-1.7,1.7-2.7c0.2-0.7,0.3-1.4,0.3-2.1
			C32.8,97.3,32.8,97.2,32.8,97z"/>
		<g>
			<path class="st4" d="M124.5,65.1c0-3.2-0.3-6.2-0.6-9.1c-0.6-5.3-1.7-10-2.8-13.9c-2.6,0.6-6,1.2-10.1,1.6
				c-3,0.3-6.3,0.4-9.9,0.3c-1.3,0-2.4-0.1-3.6-0.2c0.9,2.2,1.3,4.1,1.7,5.4c2.6,10.5-0.3,19.5-2.5,24.3c-0.4,1-0.9,1.8-1.2,2.4
				c1.6,0.9,3.9,2.6,5.6,5.3c1.6,2.6,1.9,5.4,1.8,7.8c0.4,0.7,0.7,1.4,0.9,2.2c0.1,0.5,0.2,1,0.2,1.5c0,3.1-2.1,5.8-4.9,6.6
				c-0.2,0.1-0.4,0.1-0.6,0.1c-0.5,0.1-0.9,0.1-1.4,0.1c-0.7,0-1.3-0.1-1.9-0.3c-2.6-0.8-4.6-3-5-5.8c-3.4,0.6-7,1.3-10.8,1.8
				c-2.6,0.4-5.3,0.7-8.1,0.9c-2.3,0.2-4.6,0.3-7,0.4l-5.3,0.1c-1.7,0-3.9,0-6.4,0.1c-3.2,0-6.9,0.1-10.9,0.1
				c-2.8,0-5.7,0.1-8.7,0.1c0,0.1,0,0.3,0,0.4c0,0.7-0.1,1.5-0.3,2.1c-0.3,1-0.9,2-1.7,2.7c-1.3,1.3-3,2.1-4.9,2.1
				c-3.1,0-5.7-2-6.6-4.7c-0.2-0.7-0.4-1.4-0.4-2.2c0-0.1,0-0.1,0-0.2c0.1-2.6,1.6-4.9,3.8-6c-0.6-2.9-0.7-6.6,1.4-10
				c0.7-1.2,2.3-3.4,5.6-5.3c-0.3-0.6-0.8-1.4-1.2-2.4c-2.2-4.8-5.2-13.7-2.5-24.3c0.6-2.3,1.6-6.6,4.5-10.9
				c-3.2,0.9-6.6,1.9-10.4,3.1c-6.6,2-12.1,4-16.1,5.6c-0.2,0.2-0.4,0.4-0.7,0.6c-0.9,1.5-1.8,3.4-2.6,5.4c-0.5,3.1-0.7,6.3-0.7,9.6
				c0,1.9,0.1,3.8,0.3,5.6c0.8,2.2,1.8,4,3,5.7c1.9,3,4,5.8,4.9,10.1c0.5,2.4,0.8,5.6,0,9.4c0.8,1.4,1.7,2.9,2.6,4.2
				c0.5,0.7,1,1.4,1.5,2.1c2.3,3.2,5,6.1,7.8,8.7c5.1,4.7,11,8.6,17.5,11.4c0.5,0.2,1.1,0.5,1.7,0.7c7.6-0.8,14.6-1.5,20.1-1.6
				c6.5-0.1,15.8,0.4,25.7,1.2c0.5,0,1,0.1,1.5,0.1c8-3.3,15.2-8.3,21.1-14.4c2-2.1,3.8-4.3,5.5-6.6c1.9-2.6,3.6-5.3,5.1-8.2
				c2.2-4.3,3.9-8.9,5.1-13.7c0.3-1.3,0.6-2.6,0.8-4C124.4,70.7,124.5,67.9,124.5,65.1z"/>
		</g>
		<path class="st7" d="M103.6,91.2c-0.2-0.8-0.5-1.5-0.9-2.2c-1.2-2-3.4-3.3-5.9-3.3c-3.8,0-6.9,3.1-6.9,6.9c0,0.3,0,0.6,0.1,0.8
			c0.3,2.8,2.3,5,5,5.8c0.6,0.2,1.2,0.3,1.9,0.3c0.5,0,0.9,0,1.4-0.1c0.2,0,0.4-0.1,0.6-0.1c2.9-0.9,4.9-3.5,4.9-6.6
			C103.8,92.1,103.7,91.6,103.6,91.2z"/>
	</g>
</g>
</svg>
