<?xml version="1.0" encoding="utf-8"?>
<!-- Generator: Adobe Illustrator 23.0.1, SVG Export Plug-In . SVG Version: 6.00 Build 0)  -->
<svg version="1.1" id="Layer_1" xmlns="http://www.w3.org/2000/svg" xmlns:xlink="http://www.w3.org/1999/xlink" x="0px" y="0px"
	 viewBox="0 0 200.4 200.4" style="enable-background:new 0 0 200.4 200.4;" xml:space="preserve">
<style type="text/css">
	.st0{fill:#331F3D;}
	.st1{fill:#7A3E48;}
	.st2{fill:#FFFFFF;}
</style>
<circle class="st0" cx="100.2" cy="100.2" r="100.2"/>
<circle class="st1" cx="100.2" cy="100.2" r="62.5"/>
<g>
	<path class="st2" d="M37.9,65.8l-1.8,4.3l-10.4-1.4c-0.4,0-1.1-0.2-2.3-0.4s-1.9-0.4-2.3-0.5c0.4,0.2,1.1,0.6,2,1.2
		c0.9,0.6,1.5,1,1.9,1.3l8.4,6.3l-1.8,4.3l-19.8-2.8l1.5-3.7l10.7,1.7c2,0.3,3.7,0.7,5.1,1.1c-0.4-0.2-1.1-0.6-2-1.2
		c-0.9-0.6-1.6-1.1-2.1-1.4l-9-6.7l1.5-3.6l11.1,1.5c0.5,0.1,1.2,0.2,2.2,0.4s1.8,0.4,2.5,0.6c-0.6-0.3-1.3-0.8-2.2-1.4
		c-0.9-0.6-1.6-1.1-2.1-1.4l-8.8-6.3l1.5-3.7L37.9,65.8z"/>
	<path class="st2" d="M42.4,59.3L26.9,47.7l2.5-3.3L44.9,56L42.4,59.3z"/>
	<path class="st2" d="M54,46.6l-3,2.8L40.2,37.6l-3.9,3.5L34,38.6l10.8-9.9l2.3,2.5l-3.9,3.5L54,46.6z"/>
	<path class="st2" d="M74.8,33.7l-3.6,1.9l-3.8-7.4l-6.8,3.5l3.8,7.4L60.7,41l-8.9-17.2l3.7-1.9l3.5,6.8l6.8-3.5l-3.5-6.8l3.6-1.9
		L74.8,33.7z"/>
	<path class="st2" d="M93.8,19.4c0.6,3.1,0.1,5.7-1.3,7.7c-1.5,2-3.9,3.3-7.3,3.9l-5.4,1l-3.6-19l6-1.1c3.1-0.6,5.7-0.2,7.7,1.1
		S93.2,16.5,93.8,19.4z M89.6,20.3c-0.8-4.1-3-5.8-6.6-5.1l-2.1,0.4L83.2,28l1.7-0.3C88.8,26.9,90.4,24.5,89.6,20.3z"/>
	<path class="st2" d="M104.8,22.1l-0.7,7.4l-4.1-0.4l1.7-19.3l5.6,0.5c2.6,0.2,4.5,0.9,5.7,2c1.2,1.1,1.7,2.6,1.5,4.5
		c-0.1,1.1-0.5,2.1-1.2,2.9c-0.7,0.8-1.7,1.4-2.8,1.8c2.5,4.6,4.2,7.6,4.9,8.9l-4.5-0.4l-3.9-7.8L104.8,22.1z M105.1,18.8l1.3,0.1
		c1.3,0.1,2.3,0,2.9-0.4c0.7-0.4,1-1,1.1-2c0.1-0.9-0.2-1.6-0.8-2c-0.6-0.4-1.6-0.7-2.9-0.8l-1.2-0.1L105.1,18.8z"/>
	<path class="st2" d="M129.4,35.6l0.3-4.8l-6.6-2.5l-2.9,3.8l-4.1-1.5l13.2-15.9l4.7,1.8l-0.3,20.6L129.4,35.6z M130,27.2
		c0.2-4.4,0.4-6.8,0.4-7.4s0.1-1,0.1-1.3c-0.7,1-2.4,3.3-5.3,7L130,27.2z"/>
	<path class="st2" d="M150.8,50.1l-3.7-2.9l4.3-9.6c0.1-0.3,0.5-1,1-2.1c0.5-1,0.9-1.7,1.1-2c-0.3,0.3-0.9,0.9-1.7,1.5
		c-0.8,0.7-1.4,1.2-1.8,1.5l-8.4,6.3l-3.6-2.9l8.2-18.2l3.2,2.5l-4.7,9.8c-0.9,1.8-1.7,3.3-2.4,4.6c0.4-0.4,0.9-0.9,1.7-1.6
		c0.8-0.7,1.5-1.2,2-1.6l9-6.7l3,2.4l-4.6,10.2c-0.2,0.5-0.5,1.1-1,2c-0.5,0.9-0.9,1.7-1.3,2.3c0.5-0.5,1.1-1.1,1.9-1.8
		c0.8-0.7,1.5-1.2,2-1.6l8.5-6.7l3.2,2.5L150.8,50.1z"/>
	<path class="st2" d="M162.2,65.8l3.1-3.7l-3.8-5.9l-4.6,1.3l-2.4-3.7l20-4.8l2.7,4.2l-12.6,16.3L162.2,65.8z M167.7,59.4
		c2.8-3.4,4.4-5.3,4.8-5.7c0.4-0.4,0.7-0.8,0.9-1c-1.1,0.4-3.9,1.2-8.4,2.5L167.7,59.4z"/>
	<path class="st2" d="M165.5,72.5l18.3-6.2l1.3,3.9L170,75.2l2.5,7.4l-3.2,1.1L165.5,72.5z"/>
</g>
</svg>
