<svg id="Layer_3" data-name="Layer 3" xmlns="http://www.w3.org/2000/svg" viewBox="0 0 1195.77 1106.34"><defs><style>.cls-1{fill:none;stroke:#ce8129;stroke-miterlimit:10;stroke-width:3px;}.cls-2{fill:#ce8129;}</style></defs><title>CircleArrows</title><path class="cls-1" d="M122.92,824.55a510.05,510.05,0,0,1-2.08-191.41" transform="translate(-103.26 -170.19)"/><path class="cls-2" d="M105.6,632.77c6.9-2.53,12.86-7.36,17.79-12.76a48.37,48.37,0,0,0,12,18.29l-.69,3.68a52.64,52.64,0,0,1-12.27-17,53.39,53.39,0,0,1-17.57,11.55Z" transform="translate(-103.26 -170.19)"/><path class="cls-2" d="M104,641.64c6.9-2.53,12.86-7.36,17.79-12.75a48.49,48.49,0,0,0,12,18.28l-.68,3.68a52.63,52.63,0,0,1-12.28-17,53.21,53.21,0,0,1-17.56,11.54Z" transform="translate(-103.26 -170.19)"/><path class="cls-1" d="M369.86,1173.53a573.57,573.57,0,0,1-145.51-131" transform="translate(-103.26 -170.19)"/><path class="cls-2" d="M214,1053.71c2.68-6.85,3-14.51,2.23-21.78a48.45,48.45,0,0,0,21.67,3.1l2.31,3a52.52,52.52,0,0,1-20.88-2.08,53.46,53.46,0,0,1-3,20.81Z" transform="translate(-103.26 -170.19)"/><path class="cls-2" d="M219.56,1060.82c2.68-6.84,3-14.5,2.24-21.77a48.3,48.3,0,0,0,21.67,3.09l2.31,2.95A52.7,52.7,0,0,1,224.9,1043a53.43,53.43,0,0,1-3,20.8Z" transform="translate(-103.26 -170.19)"/><path class="cls-1" d="M820.42,1256.7a640.89,640.89,0,0,1-225.76,2.37" transform="translate(-103.26 -170.19)"/><path class="cls-2" d="M594.48,1274.34c-2.62-6.88-7.52-12.77-13-17.64a48.36,48.36,0,0,0,18.13-12.26l3.69.64a52.48,52.48,0,0,1-16.86,12.48A53.45,53.45,0,0,1,598.23,1275Z" transform="translate(-103.26 -170.19)"/><path class="cls-2" d="M603.37,1275.88c-2.61-6.88-7.51-12.77-13-17.64A48.51,48.51,0,0,0,608.54,1246l3.69.64a52.84,52.84,0,0,1-16.86,12.48,53.48,53.48,0,0,1,11.75,17.42Z" transform="translate(-103.26 -170.19)"/><path class="cls-1" d="M1185.69,1031.93a570.11,570.11,0,0,1-142.4,134.33" transform="translate(-103.26 -170.19)"/><path class="cls-2" d="M1053.61,1177.44c-6.62-3.2-14.24-4.12-21.54-3.91a48.38,48.38,0,0,0,4.76-21.37l3.12-2.07a52.65,52.65,0,0,1-3.69,20.66,53.27,53.27,0,0,1,20.52,4.59Z" transform="translate(-103.26 -170.19)"/><path class="cls-2" d="M1061.13,1172.45c-6.62-3.2-14.23-4.12-21.54-3.91a48.38,48.38,0,0,0,4.76-21.37l3.12-2.07a52.56,52.56,0,0,1-3.68,20.65,53.46,53.46,0,0,1,20.51,4.6Z" transform="translate(-103.26 -170.19)"/><path class="cls-1" d="M1278.54,620a510.13,510.13,0,0,1,3,191.41" transform="translate(-103.26 -170.19)"/><path class="cls-2" d="M1296.75,811.72c-6.9,2.56-12.83,7.42-17.74,12.83a48.31,48.31,0,0,0-12.12-18.23l.67-3.68a52.43,52.43,0,0,1,12.35,17A53.35,53.35,0,0,1,1297.43,808Z" transform="translate(-103.26 -170.19)"/><path class="cls-2" d="M1298.35,802.84c-6.89,2.56-12.82,7.41-17.73,12.83a48.54,48.54,0,0,0-12.12-18.23l.66-3.68a52.5,52.5,0,0,1,12.35,17A53.58,53.58,0,0,1,1299,799.09Z" transform="translate(-103.26 -170.19)"/><path class="cls-1" d="M1031.35,272.87a573.8,573.8,0,0,1,144.84,129.65" transform="translate(-103.26 -170.19)"/><path class="cls-2" d="M1186.49,391.33c-2.65,6.86-3,14.52-2.15,21.79a48.43,48.43,0,0,0-21.68-3l-2.32-2.94a52.56,52.56,0,0,1,20.89,2,53.32,53.32,0,0,1,2.91-20.82Z" transform="translate(-103.26 -170.19)"/><path class="cls-2" d="M1180.91,384.24c-2.66,6.86-3,14.52-2.15,21.79a48.36,48.36,0,0,0-21.69-3l-2.31-2.94a52.53,52.53,0,0,1,20.88,2,53.69,53.69,0,0,1,2.91-20.82Z" transform="translate(-103.26 -170.19)"/><path class="cls-1" d="M581.5,190.16a641.09,641.09,0,0,1,224.78-2.54" transform="translate(-103.26 -170.19)"/><path class="cls-2" d="M806.45,172.35c2.62,6.87,7.53,12.76,13,17.62a48.36,48.36,0,0,0-18.11,12.29l-3.69-.63a52.38,52.38,0,0,1,16.84-12.51,53.37,53.37,0,0,1-11.78-17.41Z" transform="translate(-103.26 -170.19)"/><path class="cls-2" d="M797.55,170.83c2.62,6.87,7.53,12.76,13,17.61a48.48,48.48,0,0,0-18.11,12.29l-3.69-.63a52.61,52.61,0,0,1,16.84-12.5,53.52,53.52,0,0,1-11.78-17.41Z" transform="translate(-103.26 -170.19)"/><path class="cls-1" d="M217.58,413.12A570.65,570.65,0,0,1,358.64,280.59" transform="translate(-103.26 -170.19)"/><path class="cls-2" d="M348.33,269.41c6.62,3.2,14.23,4.12,21.54,3.91a48.28,48.28,0,0,0-4.77,21.37L362,296.76a52.6,52.6,0,0,1,3.7-20.65,53.46,53.46,0,0,1-20.52-4.6Z" transform="translate(-103.26 -170.19)"/><path class="cls-2" d="M340.8,274.4c6.62,3.2,14.23,4.12,21.54,3.91a48.56,48.56,0,0,0-4.77,21.37l-3.12,2.07a52.78,52.78,0,0,1,3.69-20.65,53.46,53.46,0,0,1-20.51-4.6Z" transform="translate(-103.26 -170.19)"/></svg>