<svg id="Layer_1" data-name="Layer 1" xmlns="http://www.w3.org/2000/svg" viewBox="0 0 1450 1420"><defs><style>.cls-1,.cls-4,.cls-5{fill:#fff4d0;}.cls-2{fill:#ce8129;}.cls-3{fill:none;}.cls-3,.cls-4,.cls-5{stroke:#ce8129;stroke-linecap:round;stroke-width:2px;}.cls-3,.cls-5{stroke-miterlimit:10;}.cls-4{stroke-linejoin:round;}</style></defs><title>FlowerLifeCycleBackground</title><rect class="cls-1" width="1450" height="1420"/><path class="cls-2" d="M154.82,84.48V41.65h9.09V77h17.37v7.5Z" transform="translate(0 0)"/><path class="cls-2" d="M193.43,84.48V41.65h9.08V84.48Z" transform="translate(0 0)"/><path class="cls-2" d="M227,84.48h-8.93V41.65h24.55v7.44H227v11h14.54v7.42H227Z" transform="translate(0 0)"/><path class="cls-2" d="M279.9,84.48H255.23V41.65H279.9v7.44H264.31v9.4h14.5v7.44h-14.5V77H279.9Z" transform="translate(0 0)"/><path class="cls-2" d="M334.61,48.59a9.28,9.28,0,0,0-7.94,3.85q-2.81,3.86-2.81,10.74,0,14.33,10.75,14.33a34.13,34.13,0,0,0,10.93-2.26v7.62a30.45,30.45,0,0,1-11.78,2.19q-9.35,0-14.3-5.66t-4.95-16.28A26.44,26.44,0,0,1,317,51.42a17.62,17.62,0,0,1,7-7.71A20.76,20.76,0,0,1,334.61,41a28.86,28.86,0,0,1,12.54,3l-2.93,7.38a49.66,49.66,0,0,0-4.83-2A14.36,14.36,0,0,0,334.61,48.59Z" transform="translate(0 0)"/><path class="cls-2" d="M375.18,59.28l8.94-17.63h9.78L379.69,67.81V84.48h-9V68.1L356.46,41.65h9.84Z" transform="translate(0 0)"/><path class="cls-2" d="M420.52,48.59a9.27,9.27,0,0,0-7.94,3.85q-2.82,3.86-2.82,10.74,0,14.33,10.76,14.33a34.08,34.08,0,0,0,10.92-2.26v7.62a30.4,30.4,0,0,1-11.77,2.19q-9.35,0-14.3-5.66t-4.95-16.28a26.58,26.58,0,0,1,2.43-11.7,17.58,17.58,0,0,1,7-7.71A20.71,20.71,0,0,1,420.52,41a28.81,28.81,0,0,1,12.53,3l-2.93,7.38a49.66,49.66,0,0,0-4.83-2A14.31,14.31,0,0,0,420.52,48.59Z" transform="translate(0 0)"/><path class="cls-2" d="M445.26,84.48V41.65h9.08V77h17.37v7.5Z" transform="translate(0 0)"/><path class="cls-2" d="M508.54,84.48H483.87V41.65h24.67v7.44H493v9.4h14.51v7.44H493V77h15.59Z" transform="translate(0 0)"/><path class="cls-2" d="M555.44,50.38A9.48,9.48,0,0,1,562.55,53a10,10,0,0,1,2.54,7.28,20.62,20.62,0,0,1-1.75,8.55,13.79,13.79,0,0,1-4.83,6,12.54,12.54,0,0,1-7.13,2.06c-3.16,0-5.59-.87-7.31-2.62a10,10,0,0,1-2.57-7.28,20.09,20.09,0,0,1,1.81-8.56,13.94,13.94,0,0,1,4.93-5.95A12.86,12.86,0,0,1,555.44,50.38Zm2.7,10a5.2,5.2,0,0,0-.84-3.14,2.87,2.87,0,0,0-2.44-1.13,4.41,4.41,0,0,0-3.2,1.48,10.42,10.42,0,0,0-2.33,4.06,16.43,16.43,0,0,0-.87,5.29q0,4.25,3.51,4.25a4.29,4.29,0,0,0,3.11-1.46,10.07,10.07,0,0,0,2.25-3.93A17.4,17.4,0,0,0,558.14,60.34Z" transform="translate(0 0)"/><path class="cls-2" d="M577,76.48h-6.87l5.43-25.7h15.15l-1.18,5.57h-8.27l-1,4.91h7.66l-1.21,5.6H579Z" transform="translate(0 0)"/><path class="cls-2" d="M621.68,71.66h-7.87l-2.2,4.82h-7.14l13.08-25.7h8.84l2.16,25.7h-6.69Zm-5.36-5.48h5.15l-.3-7.45,0-1.52c0-.88,0-1.64.07-2.3a19.62,19.62,0,0,1-1.08,2.92Z" transform="translate(0 0)"/><path class="cls-2" d="M670.44,84.48H661.5V41.65h24.55v7.44H670.44v11H685v7.42H670.44Z" transform="translate(0 0)"/><path class="cls-2" d="M698.66,84.48V41.65h9.09V77h17.37v7.5Z" transform="translate(0 0)"/><path class="cls-2" d="M775.6,63q0,10.64-5.27,16.35t-15.12,5.71q-9.84,0-15.12-5.71T734.82,63q0-10.7,5.29-16.34T755.27,41q9.87,0,15.1,5.69T775.6,63Zm-31.26,0q0,7.19,2.73,10.81c1.81,2.43,4.53,3.64,8.14,3.64q10.88,0,10.87-14.45T755.27,48.53q-5.41,0-8.18,3.65T744.34,63Z" transform="translate(0 0)"/><path class="cls-2" d="M830.91,84.48H820.57L814.77,62q-.32-1.2-1.1-5c-.52-2.51-.81-4.19-.89-5-.12,1-.41,2.75-.88,5.08s-.83,4-1.08,5L805,84.48H794.73L783.8,41.65h8.94L798.22,65q1.42,6.47,2.08,11.22c.12-1.12.38-2.84.8-5.17s.82-4.15,1.19-5.44l6.24-24h8.58l6.24,24c.28,1.08.62,2.72,1,4.92s.72,4.1.94,5.69c.19-1.53.51-3.43.93-5.7s.83-4.12,1.18-5.52l5.45-23.38h8.93Z" transform="translate(0 0)"/><path class="cls-2" d="M877.69,84.48H853V41.65h24.67v7.44H862.1v9.4h14.51v7.44H862.1V77h15.59Z" transform="translate(0 0)"/><path class="cls-2" d="M900.93,68V84.48h-9.08V41.65h12.48q8.73,0,12.92,3.18t4.19,9.65a11.39,11.39,0,0,1-2.08,6.72,13.79,13.79,0,0,1-5.89,4.62q9.66,14.45,12.59,18.66H916L905.76,68Zm0-7.38h2.93q4.3,0,6.35-1.43a5.14,5.14,0,0,0,2.06-4.52,4.67,4.67,0,0,0-2.1-4.33q-2.1-1.29-6.49-1.29h-2.75Z" transform="translate(0 0)"/><path class="cls-2" d="M937.29,84.48V41.65h9.09V84.48Z" transform="translate(0 0)"/><path class="cls-2" d="M999.93,84.48H988.39l-18.64-32.4h-.26q.56,8.58.56,12.24V84.48h-8.12V41.65h11.46L992,73.73h.21q-.45-8.36-.44-11.81V41.65h8.17Z" transform="translate(0 0)"/><path class="cls-2" d="M1031.72,60.43h17v22.2a47.47,47.47,0,0,1-7.77,1.89,51,51,0,0,1-7.46.54q-9.69,0-14.81-5.69T1013.56,63q0-10.36,5.93-16.17t16.45-5.8a31.83,31.83,0,0,1,12.72,2.64l-3,7.26a21.61,21.61,0,0,0-9.76-2.34,12,12,0,0,0-9.43,4q-3.54,3.95-3.55,10.63,0,7,2.86,10.65c1.91,2.45,4.67,3.68,8.31,3.68a29.51,29.51,0,0,0,5.77-.59V68h-8.12Z" transform="translate(0 0)"/><path class="cls-2" d="M1116.09,55q0,6.91-4.33,10.57t-12.29,3.66h-3.89V84.48h-9.08V41.65h13.68q7.78,0,11.85,3.35T1116.09,55Zm-20.51,6.79h3q4.18,0,6.27-1.65a5.82,5.82,0,0,0,2.08-4.82,6,6,0,0,0-1.75-4.72q-1.74-1.52-5.46-1.52h-4.13Z" transform="translate(0 0)"/><path class="cls-2" d="M1128.56,84.48V41.65h9.09V77H1155v7.5Z" transform="translate(0 0)"/><path class="cls-2" d="M1196.28,84.48l-3.11-10.2h-15.61l-3.11,10.2h-9.78l15.11-43h11.11l15.17,43ZM1191,66.67q-4.3-13.86-4.84-15.68c-.37-1.21-.62-2.17-.78-2.87q-1,3.75-5.54,18.55Z" transform="translate(0 0)"/><path class="cls-2" d="M1255.27,84.48h-11.55l-18.63-32.4h-.26q.56,8.58.55,12.24V84.48h-8.11V41.65h11.45l18.61,32.08h.2q-.43-8.36-.44-11.81V41.65h8.18Z" transform="translate(0 0)"/><path class="cls-2" d="M1287.74,84.48h-9.09V49.21H1267V41.65h32.35v7.56h-11.63Z" transform="translate(0 0)"/><path class="cls-3" d="M315.65,1378H69.33A28.33,28.33,0,0,0,41,1349.67V1130.45" transform="translate(0 0)"/><polyline class="cls-3" points="279.88 1370 50 1370 50 1166.45"/><path class="cls-3" d="M59.66,1370h0a12,12,0,0,0-9.66-9.66h0" transform="translate(0 0)"/><path class="cls-4" d="M87.73,1275.86c4-.8,6.08-1.75,6.78-5.82.61-3.55,1.66-6.7,4.43-9.11,6.28-5.44,12.61-1.31,19.77-.77,4.22.31,7.46-2.39,11.51-2.91a13.7,13.7,0,0,1,10.63,3.28c5.9,5.17,6.33,14,1.11,19.18,5.22-5.21,14-4.79,19.18,1.11a13.66,13.66,0,0,1,3.28,10.63c-.52,4-3.22,7.29-2.91,11.51.54,7.16,4.67,13.49-.77,19.77-2.4,2.77-5.56,3.82-9.11,4.43-4.07.7-5,2.82-5.82,6.78a14.48,14.48,0,0,1-4.45,8.17c-6.28,5.44-12.62,1.31-19.77.78-4.22-.32-7.46,2.38-11.52,2.9a13.64,13.64,0,0,1-10.62-3.28c-5.9-5.17-6.33-14-1.11-19.18h0c-5.22,5.22-14,4.79-19.18-1.11a13.64,13.64,0,0,1-3.28-10.62c.52-4.06,3.22-7.3,2.91-11.52-.54-7.15-4.67-13.49.77-19.77A14.48,14.48,0,0,1,87.73,1275.86Z" transform="translate(0 0)"/><line class="cls-5" x1="111.64" y1="1322.06" x2="128.66" y2="1280.98"/><line class="cls-5" x1="99.61" y1="1310.03" x2="140.69" y2="1293.01"/><line class="cls-5" x1="142.39" y1="1323.76" x2="97.91" y2="1279.28"/><line class="cls-5" x1="151.25" y1="1301.52" x2="89.04" y2="1301.52"/><line class="cls-5" x1="120.15" y1="1332.63" x2="120.15" y2="1270.42"/><line class="cls-5" x1="140.69" y1="1310.03" x2="99.61" y2="1293.01"/><line class="cls-5" x1="128.66" y1="1322.06" x2="111.64" y2="1280.98"/><line class="cls-5" x1="137.78" y1="1283.89" x2="102.51" y2="1319.16"/><circle class="cls-5" cx="120.15" cy="1301.52" r="13.5"/><circle class="cls-5" cx="120.15" cy="1301.52" r="5.28"/><path class="cls-3" d="M1134.35,1378h246.32a28.33,28.33,0,0,1,28.33-28.33V1130.45" transform="translate(0 0)"/><polyline class="cls-3" points="1170.13 1370 1400 1370 1400 1166.45"/><path class="cls-3" d="M1390.34,1370h0a12,12,0,0,1,9.66-9.66h0" transform="translate(0 0)"/><path class="cls-4" d="M1362.27,1275.86c-4-.8-6.08-1.75-6.78-5.82-.61-3.55-1.66-6.7-4.43-9.11-6.28-5.44-12.61-1.31-19.77-.77-4.22.31-7.46-2.39-11.51-2.91a13.7,13.7,0,0,0-10.63,3.28c-5.9,5.17-6.33,14-1.11,19.18-5.22-5.21-14-4.79-19.18,1.11a13.66,13.66,0,0,0-3.28,10.63c.52,4,3.22,7.29,2.91,11.51-.54,7.16-4.67,13.49.77,19.77,2.4,2.77,5.56,3.82,9.11,4.43,4.07.7,5,2.82,5.82,6.78a14.48,14.48,0,0,0,4.45,8.17c6.28,5.44,12.62,1.31,19.77.78,4.22-.32,7.46,2.38,11.52,2.9a13.64,13.64,0,0,0,10.62-3.28c5.9-5.17,6.33-14,1.11-19.18h0c5.22,5.22,14,4.79,19.18-1.11a13.64,13.64,0,0,0,3.28-10.62c-.52-4.06-3.22-7.3-2.91-11.52.54-7.15,4.67-13.49-.77-19.77A14.48,14.48,0,0,0,1362.27,1275.86Z" transform="translate(0 0)"/><line class="cls-5" x1="1338.36" y1="1322.06" x2="1321.34" y2="1280.98"/><line class="cls-5" x1="1350.39" y1="1310.03" x2="1309.31" y2="1293.01"/><line class="cls-5" x1="1307.61" y1="1323.76" x2="1352.09" y2="1279.28"/><line class="cls-5" x1="1298.75" y1="1301.52" x2="1360.96" y2="1301.52"/><line class="cls-5" x1="1329.85" y1="1332.63" x2="1329.85" y2="1270.42"/><line class="cls-5" x1="1309.31" y1="1310.03" x2="1350.39" y2="1293.01"/><line class="cls-5" x1="1321.34" y1="1322.06" x2="1338.36" y2="1280.98"/><line class="cls-5" x1="1312.22" y1="1283.89" x2="1347.49" y2="1319.16"/><circle class="cls-5" cx="1329.85" cy="1301.52" r="13.5"/><circle class="cls-5" cx="1329.85" cy="1301.52" r="5.28"/><path class="cls-4" d="M1352.36,61.91c1.43-.29,2.2-.64,2.45-2.11a5.24,5.24,0,0,1,1.61-3.29c2.26-2,4.55-.47,7.14-.28,1.53.11,2.7-.86,4.16-1a4.93,4.93,0,0,1,3.84,1.18,4.76,4.76,0,0,1,.4,6.94,4.76,4.76,0,0,1,6.94.4,4.93,4.93,0,0,1,1.18,3.84c-.19,1.46-1.16,2.64-1,4.16.2,2.59,1.69,4.88-.28,7.15a5.23,5.23,0,0,1-3.29,1.6c-1.47.25-1.82,1-2.1,2.45a5.2,5.2,0,0,1-1.61,2.95c-2.27,2-4.56.47-7.15.28-1.52-.11-2.69.86-4.16,1.05A4.9,4.9,0,0,1,1356.6,86a4.75,4.75,0,0,1-.4-6.93h0a4.75,4.75,0,0,1-6.93-.4,4.94,4.94,0,0,1-1.19-3.84c.19-1.46,1.17-2.64,1.05-4.16-.19-2.59-1.69-4.88.28-7.15A5.25,5.25,0,0,1,1352.36,61.91Z" transform="translate(0 0)"/><line class="cls-5" x1="1371.23" y1="78.33" x2="1356.93" y2="64.03"/><line class="cls-5" x1="1372.73" y1="71.18" x2="1355.43" y2="71.18"/><line class="cls-5" x1="1364.08" y1="79.83" x2="1364.08" y2="62.53"/><line class="cls-5" x1="1369.75" y1="65.51" x2="1358.41" y2="76.85"/><circle class="cls-5" cx="1364.08" cy="71.18" r="4.17"/><polyline class="cls-3" points="1328.29 42.69 1400 42.69 1400 309.29"/><path class="cls-3" d="M1390.34,42.69h0a12,12,0,0,0,9.66,9.67h0" transform="translate(0 0)"/><path class="cls-3" d="M1384.42,42.69h0c0,4.59,5.92,17,24.58,17V353.29" transform="translate(0 0)"/><polyline class="cls-3" points="121.71 44 50 44 50 310.6"/><path class="cls-3" d="M59.66,44h0A12,12,0,0,1,50,53.66h0" transform="translate(0 0)"/><path class="cls-3" d="M65.58,44h0c0,4.58-5.92,17-24.58,17V354.6" transform="translate(0 0)"/><path class="cls-4" d="M76.64,84.2c-.28-1.43-.63-2.19-2.1-2.45a5.23,5.23,0,0,1-3.29-1.6c-2-2.27-.48-4.56-.28-7.14.11-1.53-.86-2.7-1-4.17A5,5,0,0,1,71.1,65,4.77,4.77,0,0,1,78,64.6a4.74,4.74,0,0,1,.4-6.93,4.9,4.9,0,0,1,3.84-1.18c1.46.18,2.63,1.16,4.16,1,2.59-.2,4.88-1.69,7.14.28a5.19,5.19,0,0,1,1.61,3.29c.25,1.47,1,1.81,2.45,2.1a5.27,5.27,0,0,1,3,1.61c2,2.27.47,4.56.28,7.15-.12,1.52.86,2.69,1,4.16A5,5,0,0,1,100.73,80a4.76,4.76,0,0,1-6.93.4h0a4.75,4.75,0,0,1-.4,6.93,4.94,4.94,0,0,1-3.84,1.19c-1.47-.19-2.64-1.17-4.16-1-2.59.19-4.88,1.68-7.15-.28A5.26,5.26,0,0,1,76.64,84.2Z" transform="translate(0 0)"/><line class="cls-5" x1="93.07" y1="65.33" x2="78.77" y2="79.64"/><line class="cls-5" x1="85.92" y1="63.83" x2="85.92" y2="81.14"/><line class="cls-5" x1="94.57" y1="72.49" x2="77.27" y2="72.49"/><line class="cls-5" x1="80.25" y1="66.81" x2="91.59" y2="78.16"/><circle class="cls-5" cx="85.92" cy="72.49" r="4.17"/></svg>