<svg id="Layer_4" data-name="Layer 4" xmlns="http://www.w3.org/2000/svg" viewBox="0 0 356.45 157.81"><defs><style>.cls-1{fill:#371817;}.cls-2{fill:#fac7b5;}</style></defs><title>PickaFlower</title><path class="cls-1" d="M572.83,499a6.55,6.55,0,0,1,.54-5.26,7.21,7.21,0,0,1,4.56-3.13,5.9,5.9,0,0,1,4,.13,4.09,4.09,0,0,1,2.27,2.86,6.33,6.33,0,0,1-.52,5.41,7.75,7.75,0,0,1-4.62,3,5.83,5.83,0,0,1-4.06-.12A4.12,4.12,0,0,1,572.83,499Z" transform="translate(-542.56 -448.8)"/><path class="cls-1" d="M649.74,472.87c.79,4.85-.24,8.94-3.1,12.24s-7.15,5.43-12.9,6.36l-2.48.41-.61,14.49-11.31,1.84,2-43.73,10.79-1.75q7.49-1.23,12,1.41T649.74,472.87Zm-18,9.42,1.82-.29a5.7,5.7,0,0,0,4-2.39,6,6,0,0,0,.92-4.56,3.77,3.77,0,0,0-1.49-2.57,3.92,3.92,0,0,0-3-.58l-1.71.28Z" transform="translate(-542.56 -448.8)"/><path class="cls-1" d="M660,502l4.66-43.53,11.57-1.18-4.66,43.53Z" transform="translate(-542.56 -448.8)"/><path class="cls-1" d="M709,464.37a8.31,8.31,0,0,0-5.61,2.53,15,15,0,0,0-3.73,6.46,25.27,25.27,0,0,0-1.08,8.75q.16,3.93,1.88,5.79a5.85,5.85,0,0,0,4.8,1.73,21,21,0,0,0,4.89-.81,38.64,38.64,0,0,0,5.77-2.28l.4,9.46a31.45,31.45,0,0,1-12.77,3.17c-5.08.22-9-1.07-11.91-3.85s-4.41-6.83-4.63-12.13a33.92,33.92,0,0,1,2.37-14.41A22.4,22.4,0,0,1,697,458.63a21,21,0,0,1,11.56-3.8,26.61,26.61,0,0,1,14.24,3.24l-4,9.11a28.51,28.51,0,0,0-5.1-2.2A14,14,0,0,0,709,464.37Z" transform="translate(-542.56 -448.8)"/><path class="cls-1" d="M763.08,498.9l-12.82-.41-4.55-17.09L742.82,483l-3.66,15.18-11.45-.37,10.43-42.52,11.45.37-4.54,18.15,1.17-1.7a60.52,60.52,0,0,1,4-5.58l9-10.56,13.44.44-16.77,19.21Z" transform="translate(-542.56 -448.8)"/><path class="cls-1" d="M819.21,497.22l-13-2-4.83,7.39-11.76-1.78,28-39.09L832.19,464l-2.85,42.89-11-1.67Zm-7.46-10.38,8.48,1.29,1.37-12.36.32-2.5q.33-2.17.69-3.78a31.15,31.15,0,0,1-2.49,4.54Z" transform="translate(-542.56 -448.8)"/><path class="cls-1" d="M867.46,494.82a6.5,6.5,0,0,1,3.09-4.3,7.21,7.21,0,0,1,5.51-.45,5.89,5.89,0,0,1,3.43,2.12,4.09,4.09,0,0,1,.55,3.61,6.38,6.38,0,0,1-3.14,4.44,7.81,7.81,0,0,1-5.48.28A5.91,5.91,0,0,1,868,498.4,4.17,4.17,0,0,1,867.46,494.82Z" transform="translate(-542.56 -448.8)"/><path class="cls-1" d="M577.28,602.41l-13.89,4-14.83-52.18,30.84-8.77,3.22,11.31-17,4.82,2.83,10,15.64-4.44,3.21,11.31-15.63,4.45Z" transform="translate(-542.56 -448.8)"/><path class="cls-1" d="M608,594.43l-10-53.32,14.4-2.7,7.83,41.68,20.53-3.85L643,587.87Z" transform="translate(-542.56 -448.8)"/><path class="cls-1" d="M703.72,554.59q1.15,13.65-5,21.31t-19,8.75q-12.72,1.07-20.1-5.5t-8.54-20.22q-1.12-13.48,5-21.18t19-8.76q12.9-1.1,20.16,5.42T703.72,554.59Zm-37.2,3.13q1.32,15.67,12.23,14.76,5.55-.47,7.91-4.5t1.68-12.1q-.68-8.1-3.72-11.73c-2-2.42-4.84-3.49-8.44-3.18Q665.19,541.89,666.52,557.72Z" transform="translate(-542.56 -448.8)"/><path class="cls-1" d="M777.77,583.49l-17.31-.74-4.18-23.84c-.21-1-.51-3-.92-5.95s-.69-5.44-.85-7.43c-.27,1.6-.67,3.58-1.22,6s-1.08,4.54-1.6,6.53-2.66,10-6.43,24.09l-17.32-.74-11.1-54.78,14.13.6,4.73,27.43q1.62,9.09,2.13,14.47.64-3.76,2.16-10.2t2.78-10.65l5.66-20.3,13.57.58,3.76,20.7q1,5,1.92,11.48t1.22,9.71q.66-4.1,3.24-14.16l7.17-27,14.13.6Z" transform="translate(-542.56 -448.8)"/><path class="cls-1" d="M834.75,591.67,803,586.58,811.53,533l31.8,5.09-1.86,11.62-17.33-2.78-1.35,8.43,16.05,2.57L837,569.56,820.93,567l-1.62,10.12,17.33,2.77Z" transform="translate(-542.56 -448.8)"/><path class="cls-1" d="M869.24,579.4l-5,19.08L850,594.74l13.84-52.45,17.19,4.53q21.39,5.64,17.29,21.14-2.4,9.12-12.62,11.76L895,606.61l-16.08-4.24-6.08-22Zm2.81-10.66,2.66.7q7.42,2,9.16-4.61,1.43-5.42-5.86-7.34l-2.8-.74Z" transform="translate(-542.56 -448.8)"/><path class="cls-2" d="M566.83,493a6.55,6.55,0,0,1,.54-5.26,7.21,7.21,0,0,1,4.56-3.13,5.9,5.9,0,0,1,4,.13,4.09,4.09,0,0,1,2.27,2.86,6.33,6.33,0,0,1-.52,5.41,7.75,7.75,0,0,1-4.62,3,5.83,5.83,0,0,1-4.06-.12A4.12,4.12,0,0,1,566.83,493Z" transform="translate(-542.56 -448.8)"/><path class="cls-2" d="M643.74,466.87c.79,4.85-.24,8.94-3.1,12.24s-7.15,5.43-12.9,6.36l-2.48.41-.61,14.49-11.31,1.84,2-43.73,10.79-1.75q7.49-1.23,12,1.41T643.74,466.87Zm-18,9.42,1.82-.29a5.7,5.7,0,0,0,4-2.39,6,6,0,0,0,.92-4.56,3.77,3.77,0,0,0-1.49-2.57,3.92,3.92,0,0,0-3-.58l-1.71.28Z" transform="translate(-542.56 -448.8)"/><path class="cls-2" d="M654,496l4.66-43.53,11.57-1.18-4.66,43.53Z" transform="translate(-542.56 -448.8)"/><path class="cls-2" d="M703,458.37a8.31,8.31,0,0,0-5.61,2.53,15,15,0,0,0-3.73,6.46,25.27,25.27,0,0,0-1.08,8.75q.16,3.93,1.88,5.79a5.85,5.85,0,0,0,4.8,1.73,21,21,0,0,0,4.89-.81,38.64,38.64,0,0,0,5.77-2.28l.4,9.46a31.45,31.45,0,0,1-12.77,3.17c-5.08.22-9-1.07-11.91-3.85s-4.41-6.83-4.63-12.13a33.92,33.92,0,0,1,2.37-14.41A22.4,22.4,0,0,1,691,452.63a21,21,0,0,1,11.56-3.8,26.61,26.61,0,0,1,14.24,3.24l-4,9.11a28.51,28.51,0,0,0-5.1-2.2A14,14,0,0,0,703,458.37Z" transform="translate(-542.56 -448.8)"/><path class="cls-2" d="M757.08,492.9l-12.82-.41-4.55-17.09L736.82,477l-3.66,15.18-11.45-.37,10.43-42.52,11.45.37-4.54,18.15,1.17-1.7a60.52,60.52,0,0,1,4-5.58l9-10.56,13.44.44-16.77,19.21Z" transform="translate(-542.56 -448.8)"/><path class="cls-2" d="M813.21,491.22l-13-2-4.83,7.39-11.76-1.78,28-39.09L826.19,458l-2.85,42.89-11-1.67Zm-7.46-10.38,8.48,1.29,1.37-12.36.32-2.5q.33-2.17.69-3.78a31.15,31.15,0,0,1-2.49,4.54Z" transform="translate(-542.56 -448.8)"/><path class="cls-2" d="M861.46,488.82a6.5,6.5,0,0,1,3.09-4.3,7.21,7.21,0,0,1,5.51-.45,5.89,5.89,0,0,1,3.43,2.12,4.09,4.09,0,0,1,.55,3.61,6.38,6.38,0,0,1-3.14,4.44,7.81,7.81,0,0,1-5.48.28A5.91,5.91,0,0,1,862,492.4,4.17,4.17,0,0,1,861.46,488.82Z" transform="translate(-542.56 -448.8)"/><path class="cls-2" d="M571.28,596.41l-13.89,4-14.83-52.18,30.84-8.77,3.22,11.31-17,4.82,2.83,10,15.64-4.44,3.21,11.31-15.63,4.45Z" transform="translate(-542.56 -448.8)"/><path class="cls-2" d="M602,588.43l-10-53.32,14.4-2.7,7.83,41.68,20.53-3.85L637,581.87Z" transform="translate(-542.56 -448.8)"/><path class="cls-2" d="M697.72,548.59q1.15,13.65-5,21.31t-19,8.75q-12.72,1.07-20.1-5.5t-8.54-20.22q-1.12-13.48,5-21.18t19-8.76q12.9-1.1,20.16,5.42T697.72,548.59Zm-37.2,3.13q1.32,15.67,12.23,14.76,5.55-.47,7.91-4.5t1.68-12.1q-.68-8.1-3.72-11.73c-2-2.42-4.84-3.49-8.44-3.18Q659.19,535.89,660.52,551.72Z" transform="translate(-542.56 -448.8)"/><path class="cls-2" d="M771.77,577.49l-17.31-.74-4.18-23.84c-.21-1-.51-3-.92-5.95s-.69-5.44-.85-7.43c-.27,1.6-.67,3.58-1.22,6s-1.08,4.54-1.6,6.53-2.66,10-6.43,24.09l-17.32-.74-11.1-54.78,14.13.6,4.73,27.43q1.62,9.09,2.13,14.47.64-3.76,2.16-10.2t2.78-10.65l5.66-20.3,13.57.58,3.76,20.7q1,5,1.92,11.48t1.22,9.71q.66-4.1,3.24-14.16l7.17-27,14.13.6Z" transform="translate(-542.56 -448.8)"/><path class="cls-2" d="M828.75,585.67,797,580.58,805.53,527l31.8,5.09-1.86,11.62-17.33-2.78-1.35,8.43,16.05,2.57L831,563.56,814.93,561l-1.62,10.12,17.33,2.77Z" transform="translate(-542.56 -448.8)"/><path class="cls-2" d="M863.24,573.4l-5,19.08L844,588.74l13.84-52.45,17.19,4.53q21.39,5.64,17.29,21.14-2.4,9.12-12.62,11.76L889,600.61l-16.08-4.24-6.08-22Zm2.81-10.66,2.66.7q7.42,2,9.16-4.61,1.43-5.42-5.86-7.34l-2.8-.74Z" transform="translate(-542.56 -448.8)"/></svg>