<svg id="Layer_1" data-name="Layer 1" xmlns="http://www.w3.org/2000/svg" viewBox="0 0 640 330"><title>EpisodicPatient</title><path d="M64.69,235.38c8.38,23.66,36.8,38,60.33,40,9.24,0.81,19.18-1.61,25.55-8.35,5.74-6.07,10.24-16.61,13.41-24.35,4-9.73,7.55-19.79,10.89-29.76,6.7-20,11.33-41.81,4-62.31-1.33-3.71-3-7.32-3.79-11.19-1.08-5.47-.24-11.12-0.13-16.7,0.5-25-16.79-50.34-38.72-61.63" fill="none" stroke="#0090d0" stroke-linecap="round" stroke-miterlimit="10" stroke-width="3.52"/><path d="M147.26,146.26a23.64,23.64,0,0,1,19.11-.58" fill="none" stroke="#0090d0" stroke-linecap="round" stroke-miterlimit="10" stroke-width="3.52"/><path d="M109,149.43a20.84,20.84,0,0,0-19.81,3.79" fill="none" stroke="#0090d0" stroke-linecap="round" stroke-miterlimit="10" stroke-width="3.52"/><path d="M137.86,138.78c-4.69,7.09-2,16.52.75,24.56,2,5.79,3.83,11.65,5.56,17.54s8.47,16,3.9,21.88-17.55.77-17.55,0.77c-16.17,8.76-20.4-14.58-5.16-14.61" fill="none" stroke="#0090d0" stroke-linecap="round" stroke-miterlimit="10" stroke-width="3.52"/><path d="M77.36,144.27c12.26-10.69,26.44-10.59,41.94-3.07" fill="none" stroke="#0090d0" stroke-linecap="round" stroke-miterlimit="10" stroke-width="6"/><path d="M113.14,183c6.21,9-2.92,36.36-16,45.51" fill="none" stroke="#0090d0" stroke-linecap="round" stroke-miterlimit="10" stroke-width="3.52"/><path d="M121.22,220.76c-1.3-.28-2.63-0.62-4-1.06-2.14-.34-4.48-0.64-6.34.47a5.9,5.9,0,0,0-2.52,5.63c2.13,21.47,39.09,15,45.21-.72,1-2.61,1.18-6.13-1.16-7.67a6,6,0,0,0-4.06-.64c-4.47.55-7.8,3.45-12.15,4.35A38,38,0,0,1,121.22,220.76Z" fill="none" stroke="#0090d0" stroke-linecap="round" stroke-miterlimit="10" stroke-width="3.52"/><path d="M51.71,148.69A20,20,0,0,1,43,156.17c-16.24,7-29.79.08-37-15.2C1.92,132.4.91,122.63,1.7,113.18,3.5,91.55,16.1,68.89,36.84,60.34c13.27-5.47,16.48,1.14,19.6,12a113.7,113.7,0,0,1,3.4,49C58.53,129.74,56.93,140.93,51.71,148.69Z" fill="#0090d0"/><path d="M39.35,159a24.08,24.08,0,0,0-2.81-9.18c-2.15-3.94-7-7.5-11.52-7.34-6.67.23-10.86,4.72-12,10.35-1,4.75.19,9.7,2.06,14.18s4.43,8.63,6.44,13a60.2,60.2,0,0,0,4,8.26c1.68,2.56,4.12,4.81,7.11,5.46s6.53-.69,7.7-3.53" fill="#fff" stroke="#0090d0" stroke-linecap="round" stroke-miterlimit="10" stroke-width="3.52"/><path d="M137.34,91.33c4.8-.12,9.7-0.25,14.22-1.87s8.69-5,10-9.62a15.38,15.38,0,0,0-1-10c-3.78-9-12.66-14.67-21.52-18.71a120.63,120.63,0,0,0-69.82-9.06c-8.47,1.45-18.69,4.45-22.33,13.15-3.21,7.68-.58,13.06,6.33,16.38,17.13,8.23,31.06,17,50.58,19C114.89,91.8,126.14,91.6,137.34,91.33Z" fill="#0090d0"/><path d="M85.61,165.62a28,28,0,0,1,27.56-6.27" fill="none" stroke="#0090d0" stroke-linecap="round" stroke-miterlimit="10" stroke-width="3.52"/><path d="M146.8,155.29a27,27,0,0,1,23.77.41" fill="none" stroke="#0090d0" stroke-linecap="round" stroke-miterlimit="10" stroke-width="3.52"/><path d="M123.53,250.52a29.55,29.55,0,0,1,23.18-6" fill="none" stroke="#0090d0" stroke-linecap="round" stroke-miterlimit="10" stroke-width="3.52"/><path d="M139.86,137.87c7.39-3.74,15.9-4.87,26-2.15" fill="none" stroke="#0090d0" stroke-linecap="round" stroke-miterlimit="10" stroke-width="6"/><path d="M154.34,222c-0.86,4.76-2.72,9.47-12.09,13.89-5.74,2.06-16,4.68-21.83,2.87-11.41-3.54-12.05-13.93-12.05-13.93C122.08,229.37,143.39,228.49,154.34,222Z" fill="#0090d0"/><path d="M177.51,86.13a55.18,55.18,0,0,1-.43,15.25c-0.75,4.45-2.71,8.46-3,12.9-2.4-9.08-4.82-18.21-8.69-26.76s-9.32-16.58-16.83-22.22c7.51-.5,15.25-0.29,21.45,4.64C174.94,73.84,176.83,80.12,177.51,86.13Z" fill="#0090d0"/><path d="M20.62,156.69a4.81,4.81,0,0,1,6.9-3c2.72,1.73,2.72,5.65,2.89,7.54,0.19,2.09-.25,4.21,0,6.29,0.28,2.46,1.46,4.7,2.3,7s1.33,5,.24,7.21" fill="none" stroke="#0090d0" stroke-linecap="round" stroke-miterlimit="10" stroke-width="3.52"/><path d="M585.35,231.63c-6.4,24.27-33.55,40.88-56.83,44.87-9.14,1.57-19.25,0-26.15-6.22-6.22-5.58-11.57-15.71-15.37-23.17-4.78-9.37-9.16-19.1-13.31-28.76C465.36,199,459,177.61,464.6,156.58c1-3.81,2.41-7.55,2.85-11.47,0.63-5.55-.68-11.1-1.25-16.65-2.55-24.86,12.58-51.56,33.51-64.61" fill="none" stroke="#0090d0" stroke-linecap="round" stroke-miterlimit="10" stroke-width="3.52"/><path d="M494.88,150.8a7,7,0,0,0-.65-0.37c-6.55-3.34-13.25-2.9-19.36,1.85a2.16,2.16,0,0,0-1.05,1.59,2.07,2.07,0,0,0,.63,1.24,14.39,14.39,0,0,0,20.92.81,3.77,3.77,0,0,0,1.32-2.28A3.32,3.32,0,0,0,494.88,150.8Z" fill="none" stroke="#0090d0" stroke-linecap="round" stroke-miterlimit="10" stroke-width="3.52"/><path d="M540.64,148c5-.47,9.25.44,13,3.69,2.85,2.45,4,3.42.88,6.19a14.52,14.52,0,0,1-6.63,3.27c-4.7,1-11.92-1.15-15.57-4.35C525.88,151.18,536,148.47,540.64,148Z" fill="none" stroke="#0090d0" stroke-linecap="round" stroke-miterlimit="10" stroke-width="3.52"/><path d="M500.65,138.47c8.67,4.71,7.2,19.2,5.08,27.44-1.53,5.94-2.85,11.93-4.09,17.94s-7.12,16.63-2.08,22.13,17.56-.68,17.56-0.68c16.84,7.39,19.13-16.21,3.94-15" fill="none" stroke="#0090d0" stroke-linecap="round" stroke-miterlimit="10" stroke-width="3.52"/><path d="M565.21,141.86c-11.85-8.72-24.73-6.12-38.23-4.46" fill="none" stroke="#0090d0" stroke-linecap="round" stroke-miterlimit="10" stroke-width="6"/><path d="M536.15,231.35c-4,2.45-14.66,7.29-22.36,5.87-7.06-1.1-15.9-5.39-19-8.25C501.61,222.08,526,221.05,536.15,231.35Z" fill="none" stroke="#0090d0" stroke-linecap="round" stroke-miterlimit="10" stroke-width="3.52"/><path d="M591.13,144.15a20,20,0,0,0,9.27,6.74c16.76,5.64,29.7-2.37,35.67-18.2,3.35-8.87,3.55-18.7,2-28.05-3.58-21.4-18-42.95-39.38-49.77-13.67-4.36-16.33,2.5-18.54,13.54a113.7,113.7,0,0,0,.64,49.13C582.78,125.83,585.3,136.85,591.13,144.15Z" fill="#0090d0"/><path d="M604.3,153.46a24.08,24.08,0,0,1,2-9.38c1.82-4.11,6.39-8.06,10.87-8.27,6.67-.32,11.21,3.81,12.82,9.33,1.36,4.65.61,9.69-.89,14.3s-3.7,9-5.34,13.53a60.2,60.2,0,0,1-3.32,8.56c-1.46,2.69-3.71,5.13-6.64,6s-6.57-.15-8-2.88" fill="#fff" stroke="#0090d0" stroke-linecap="round" stroke-miterlimit="10" stroke-width="3.52"/><path d="M501.08,94c-4.79.28-9.68,0.55-14.32-.69s-9.07-4.26-10.73-8.77a15.38,15.38,0,0,1,.21-10c3-9.25,11.41-15.67,19.91-20.42A120.63,120.63,0,0,1,565,39.38c8.56,0.74,19,2.9,23.33,11.26,3.83,7.39,1.66,13-5,16.85C567,77.1,553.79,87,534.51,90.6,523.48,92.66,512.26,93.39,501.08,94Z" fill="#0090d0"/><path d="M527.95,251.56a29.55,29.55,0,0,0-23.6-4.1" fill="none" stroke="#0090d0" stroke-linecap="round" stroke-miterlimit="10" stroke-width="3.52"/><path d="M500.65,138.47c-8.08-2.19-17.73-2.58-26.54,1.4" fill="none" stroke="#0090d0" stroke-linecap="round" stroke-miterlimit="10" stroke-width="6"/><path d="M460.62,92.17a55.18,55.18,0,0,0,1.69,15.17c1.11,4.37,3.39,8.2,4,12.61,1.64-9.25,3.3-18.54,6.46-27.39s7.92-17.3,14.94-23.53c-7.52.12-15.22,1-21,6.39C462.17,79.71,460.79,86.13,460.62,92.17Z" fill="#0090d0"/><path d="M622.78,149.57a4.81,4.81,0,0,0-7.13-2.47c-2.57,1.95-2.25,5.85-2.26,7.75,0,2.1.6,4.17,0.53,6.27-0.07,2.47-1.07,4.81-1.71,7.19s-0.91,5.08.35,7.21" fill="none" stroke="#0090d0" stroke-linecap="round" stroke-miterlimit="10" stroke-width="3.52"/><circle cx="485.43" cy="154.65" r="4.78" fill="#0090d0"/><circle cx="542.34" cy="154.88" r="5.3" fill="#0090d0"/><path d="M532.54,228.49c9.13,3.88-9.49,8.78-10.85,8.88a43.16,43.16,0,0,1-16.63-2c-1.89-.62-14.1-6.62-7.66-8.3C506.19,231.38,529.94,230.69,532.54,228.49Z" fill="#0090d0"/><text transform="translate(261.23 51.58)" font-size="22" fill="#e12900" font-family="Open Sans">M<tspan x="20" y="0">y </tspan><tspan x="36.8" y="0">v</tspan><tspan x="47.72" y="0">a</tspan><tspan x="59.81" y="0">c</tspan><tspan x="70.43" y="0">a</tspan><tspan x="82.58" y="0">t</tspan><tspan x="90.35" y="0">i</tspan><tspan x="95.67" y="0">o</tspan><tspan x="108.79" y="0">n </tspan><tspan x="-28.6" y="26.4">w</tspan><tspan x="-11.68" y="26.4">a</tspan><tspan x="0.35" y="26.4">s </tspan><tspan x="16.56" y="26.4">a</tspan><tspan x="28.62" y="26.4">w</tspan><tspan x="45.57" y="26.4">e</tspan><tspan x="57.87" y="26.4">s</tspan><tspan x="68.3" y="26.4">o</tspan><tspan x="81.42" y="26.4">m</tspan><tspan x="101.74" y="26.4">e</tspan><tspan x="113.9" y="26.4">! </tspan><tspan x="125.49" y="26.4">S</tspan><tspan x="137.61" y="26.4">o </tspan><tspan x="-28.36" y="52.8">m</tspan><tspan x="-8.1" y="52.8">u</tspan><tspan x="5.23" y="52.8">c</tspan><tspan x="15.55" y="52.8">h </tspan><tspan x="34.77" y="52.8">w</tspan><tspan x="51.69" y="52.8">a</tspan><tspan x="63.84" y="52.8">t</tspan><tspan x="71.34" y="52.8">e</tspan><tspan x="83.52" y="52.8">r</tspan><tspan x="92.74" y="52.8">s</tspan><tspan x="103" y="52.8">k</tspan><tspan x="114.65" y="52.8">i</tspan><tspan x="119.99" y="52.8">i</tspan><tspan x="125.3" y="52.8">n</tspan><tspan x="138.61" y="52.8">g </tspan><tspan x="-13.61" y="79.2">a</tspan><tspan x="-1.57" y="79.2">n</tspan><tspan x="11.83" y="79.2">d </tspan><tspan x="31.02" y="79.2">b</tspan><tspan x="44.47" y="79.2">a</tspan><tspan x="56.51" y="79.2">r</tspan><tspan x="65.56" y="79.2">b</tspan><tspan x="78.97" y="79.2">e</tspan><tspan x="91.27" y="79.2">q</tspan><tspan x="104.54" y="79.2">u</tspan><tspan x="117.87" y="79.2">e</tspan><tspan x="130.03" y="79.2">!</tspan></text><text transform="translate(269.81 210.95)" font-size="22" fill="#e12900" font-family="Open Sans">A <tspan x="19.64" y="0">v</tspan><tspan x="30.55" y="0">a</tspan><tspan x="42.64" y="0">c</tspan><tspan x="53.27" y="0">a</tspan><tspan x="65.42" y="0">t</tspan><tspan x="73.18" y="0">i</tspan><tspan x="78.51" y="0">o</tspan><tspan x="91.63" y="0">n</tspan><tspan x="-31.82" y="26.4">h</tspan><tspan x="-18.55" y="26.4">a</tspan><tspan x="-6.5" y="26.4">p</tspan><tspan x="6.83" y="26.4">p</tspan><tspan x="20.24" y="26.4">e</tspan><tspan x="32.42" y="26.4">n</tspan><tspan x="45.78" y="26.4">e</tspan><tspan x="58.09" y="26.4">d</tspan><tspan x="71.5" y="26.4">, </tspan><tspan x="82.6" y="26.4">t</tspan><tspan x="90.36" y="26.4">h</tspan><tspan x="103.72" y="26.4">e</tspan><tspan x="115.91" y="26.4">r</tspan><tspan x="124.61" y="26.4">e </tspan><tspan x="-27.96" y="52.8">w</tspan><tspan x="-11.04" y="52.8">a</tspan><tspan x="0.99" y="52.8">s </tspan><tspan x="17.2" y="52.8">w</tspan><tspan x="34.12" y="52.8">a</tspan><tspan x="46.27" y="52.8">t</tspan><tspan x="53.77" y="52.8">e</tspan><tspan x="65.95" y="52.8">r</tspan><tspan x="75.17" y="52.8">s</tspan><tspan x="85.43" y="52.8">k</tspan><tspan x="97.08" y="52.8">i</tspan><tspan x="102.42" y="52.8">i</tspan><tspan x="107.73" y="52.8">n</tspan><tspan x="121.04" y="52.8">g </tspan><tspan x="-22.11" y="79.2">a</tspan><tspan x="-10.06" y="79.2">n</tspan><tspan x="3.33" y="79.2">d </tspan><tspan x="22.53" y="79.2">b</tspan><tspan x="35.97" y="79.2">a</tspan><tspan x="48.01" y="79.2">r</tspan><tspan x="57.06" y="79.2">b</tspan><tspan x="70.48" y="79.2">e</tspan><tspan x="82.78" y="79.2">q</tspan><tspan x="96.05" y="79.2">u</tspan><tspan x="109.38" y="79.2">e</tspan><tspan x="121.38" y="79.2">.</tspan></text><path d="M221.39,249.63c0.95-105.64,192.88-106.85,204.05-.42,10.34,10.92,26.37,14.3,48.57,9.83,0,0-20.06,25.82-52.81,12.29C412.65,330.33,220.41,358,221.39,249.63Z" fill="none" stroke="#e12900" stroke-linecap="round" stroke-miterlimit="10" stroke-width="3.03"/><path d="M429.78,90.29c1.77-107.85-215-110.27-220.42-5.53-1.58,30.75,13.18,43.51,25.08,51.93C236.48,155.27,199,172,199,172s33.95,8.36,53.37-25.13C314.47,175.38,428.44,172.3,429.78,90.29Z" fill="none" stroke="#e12900" stroke-linecap="round" stroke-miterlimit="10" stroke-width="3.18"/></svg>