<svg id="Layer_2" data-name="Layer 2" xmlns="http://www.w3.org/2000/svg" viewBox="0 0 640 290"><title>brains</title><rect width="640" height="290" fill="#fff"/><text transform="translate(0 20.01)" font-size="22" fill="#e12900" font-family="Open Sans">S<tspan x="11.87" y="0">u</tspan><tspan x="25.12" y="0">p</tspan><tspan x="38.45" y="0">p</tspan><tspan x="51.81" y="0">le</tspan><tspan x="69.4" y="0">m</tspan><tspan x="89.72" y="0">e</tspan><tspan x="101.91" y="0">n</tspan><tspan x="115.29" y="0">t</tspan><tspan x="123.36" y="0">a</tspan><tspan x="135.4" y="0" letter-spacing="1">r</tspan><tspan x="145.4" y="0">y</tspan><tspan x="0" y="26.4">m</tspan><tspan x="20.32" y="26.4">o</tspan><tspan x="33.34" y="26.4">t</tspan><tspan x="40.82" y="26.4">o</tspan><tspan x="53.94" y="26.4">r </tspan><tspan x="68.64" y="26.4">a</tspan><tspan x="80.68" y="26.4">r</tspan><tspan x="89.38" y="26.4">e</tspan><tspan x="101.51" y="26.4">a</tspan></text><text transform="translate(14.11 285.51)" font-size="22" fill="#e12900" font-family="Open Sans">C<tspan x="13.46" y="0">e</tspan><tspan x="25.65" y="0">r</tspan><tspan x="34.35" y="0">e</tspan><tspan x="46.54" y="0">b</tspan><tspan x="59.95" y="0">e</tspan><tspan x="72.16" y="0">l</tspan><tspan x="77.47" y="0">l</tspan><tspan x="82.82" y="0">u</tspan><tspan x="96.08" y="0">m</tspan></text><text transform="translate(443.72 52.98)" font-size="22" fill="#e12900" font-family="Open Sans">S<tspan x="11.74" y="0">t</tspan><tspan x="19.5" y="0">r</tspan><tspan x="28.56" y="0">i</tspan><tspan x="33.82" y="0">a</tspan><tspan x="45.97" y="0">t</tspan><tspan x="53.75" y="0">u</tspan><tspan x="67" y="0">m</tspan></text><path d="M223.78,202c-3.54.47-6.3-.14-8-2.46-5.89,6.15-13.68,9.34-19.27,8.27-4.61,3.54-10.23,4.59-16.29,4.58-6.55,5.12-15.43,6.68-25.74,6.06h0c-0.29,5.83,6.46,14.28,9.43,16,0.1,16.84,11,26.43,24.25,29.39,41,5.06,65.94-18.69,66.44-58.08C249.2,207.68,231.63,208.32,223.78,202Z" fill="#ffd200"/><path d="M91.1,74.66c11.7,4.06,16.7,9.27,16.73,15.34,5.7-2.25,11-2.45,15.19,2.8-0.11-5.56,1.58-10.72,8.81-14.67-0.9-6.09,3.48-9.61,11.33-11.42C126.16,63.74,108.89,65.08,91.1,74.66Z" fill="#ffd200"/><path d="M254,206c-0.5,39.4-25.4,63.14-66.44,58.08-13.24-3-24.15-12.54-24.25-29.39" fill="none" stroke="#0090d0" stroke-linecap="round" stroke-miterlimit="10" stroke-width="2"/><path d="M153.93,218.67c0.73,11.79,14.71,21.87,25,23.54" fill="none" stroke="#0090d0" stroke-linecap="round" stroke-miterlimit="10" stroke-width="2"/><path d="M226.11,153.8c4,9.21,1.58,15.47-2.85,20.83C226.58,195.71,207,210.12,196,208c-4.61,3.54-10.23,4.59-16.29,4.58-7.67,6-18.5,7.12-31.1,5.57-4.25,5.61-12.71,10.6-20.19,11a15.59,15.59,0,0,1-5.22-1c-10.15,14.42-23.86,5.27-27.06,1-10.2,6.2-40.17-.91-34.08-20.62,11.28-36.52,51.68-54.52,64.44-40" fill="none" stroke="#0090d0" stroke-linecap="round" stroke-miterlimit="10" stroke-width="2"/><path d="M57.11,188.44c-13.72,1.63-21.34-1.77-27-11.08-5.12,1.09-16.9-1-22.39-11.21-13.62-10.67-4.72-46.84,10.69-50,5.35-17.95,21.77-28.54,33.22-26.73C58.5,81.37,78,74,90.58,74.87c15-8.5,32.35-11.44,54.64-7.54,27.79-5.26,80.16,11,86.76,29.84,12.07,7.53,24.15,19.13,25.5,33.49,0,0,16.39,12.95,17.15,34,0.25,6.81,7.64,10,.26,27.88S254,206,254,206c-5.36,1.92-22.94,2.56-30.79-3.77-3.54.47-6.3-.14-8-2.46" fill="none" stroke="#0090d0" stroke-linecap="round" stroke-miterlimit="10" stroke-width="2"/><path d="M7.71,166.14c0,14.26,10,26.78,17.4,26.78,8.25,10.49,19.61,16.92,36.91,15.6" fill="none" stroke="#0090d0" stroke-linecap="round" stroke-miterlimit="10" stroke-width="2"/><line x1="203.99" y1="283.65" x2="187.61" y2="264.05" fill="none" stroke="#0090d0" stroke-linecap="round" stroke-miterlimit="10" stroke-width="2"/><path d="M128.38,229.15c3.05,7,14.82,18.3,25.54,15.45,2.44,9.28,22.29,25,35,39" fill="none" stroke="#0090d0" stroke-linecap="round" stroke-miterlimit="10" stroke-width="2"/><path d="M122.51,182.61c-0.48-18,26-39.6,40.85-33.2,2.81-7.28,7.29-12.27,14.83-13.08-0.75-9.25,1.44-16.58,6.73-21.91" fill="none" stroke="#0090d0" stroke-linecap="round" stroke-miterlimit="10" stroke-width="2"/><path d="M84.51,114.41c3.86,17.49,4.12,32.62-7.2,40.12a27.71,27.71,0,0,1-4.8,14.9c4.91,2.14,6.68,6.14,6,11.61" fill="none" stroke="#0090d0" stroke-linecap="round" stroke-miterlimit="10" stroke-width="2"/><path d="M77.63,171q9.66-9.87,19.36-19.7" fill="none" stroke="#0090d0" stroke-linecap="round" stroke-miterlimit="10"/><path d="M63.78,185q-10.28,10.71-20.54,21.33" fill="none" stroke="#0090d0" stroke-linecap="round" stroke-miterlimit="10"/><path d="M114.46,162.23l2.91-2.9" fill="none" stroke="#0090d0" stroke-linecap="round" stroke-miterlimit="10"/><path d="M61.22,213.89c2-1.95,4-3.91,6.05-5.83" fill="none" stroke="#0090d0" stroke-linecap="round" stroke-miterlimit="10"/><path d="M121.51,163.91q2.51-2.66,5-5.3" fill="none" stroke="#0090d0" stroke-linecap="round" stroke-miterlimit="10"/><path d="M70.85,213.57c-2.44,2.51-4.92,5-7.4,7.5" fill="none" stroke="#0090d0" stroke-linecap="round" stroke-miterlimit="10"/><path d="M93.26,217.35Q86.58,224,80,230.69" fill="none" stroke="#0090d0" stroke-linecap="round" stroke-miterlimit="10"/><path d="M105.88,222.52l-8.27,8.25" fill="none" stroke="#0090d0" stroke-linecap="round" stroke-miterlimit="10"/><path d="M125.82,228.89L139.73,215" fill="none" stroke="#0090d0" stroke-linecap="round" stroke-miterlimit="10"/><path d="M163.24,209c-9.54,9.69-19,19.14-28.54,28.55" fill="none" stroke="#0090d0" stroke-linecap="round" stroke-miterlimit="10"/><path d="M87,127.38q1.73-1.63,3.43-3.29" fill="none" stroke="#0090d0" stroke-linecap="round" stroke-miterlimit="10"/><path d="M38.82,175.57q-8.71,8.17-17.24,16.52" fill="none" stroke="#0090d0" stroke-linecap="round" stroke-miterlimit="10"/><path d="M75.49,165.2l19-19.05" fill="none" stroke="#0090d0" stroke-linecap="round" stroke-miterlimit="10"/><path d="M57.18,183.52L37.13,203.57" fill="none" stroke="#0090d0" stroke-linecap="round" stroke-miterlimit="10"/><path d="M103,164.06l4.15-4.14" fill="none" stroke="#0090d0" stroke-linecap="round" stroke-miterlimit="10"/><path d="M58.59,208.68q4.47-4.56,8.9-9.15" fill="none" stroke="#0090d0" stroke-linecap="round" stroke-miterlimit="10"/><path d="M126.19,166.87q9.86-9.43,19.6-19" fill="none" stroke="#0090d0" stroke-linecap="round" stroke-miterlimit="10"/><path d="M75.48,217.6c-2.67,2.59-5.31,5.2-8,7.79" fill="none" stroke="#0090d0" stroke-linecap="round" stroke-miterlimit="10"/><path d="M153.85,148.28q5.57-5.39,11.13-10.81" fill="none" stroke="#0090d0" stroke-linecap="round" stroke-miterlimit="10"/><path d="M83.21,218.84q-5.27,4.75-10.37,9.65" fill="none" stroke="#0090d0" stroke-linecap="round" stroke-miterlimit="10"/><path d="M99,220.71c-3.49,3.52-7,7-10.48,10.53" fill="none" stroke="#0090d0" stroke-linecap="round" stroke-miterlimit="10"/><path d="M114.6,222.68q-5.74,5.86-11.54,11.66" fill="none" stroke="#0090d0" stroke-linecap="round" stroke-miterlimit="10"/><path d="M235.08,216.11q12.21-12.32,24.47-24.59" fill="none" stroke="#0090d0" stroke-linecap="round" stroke-miterlimit="10"/><path d="M214.54,236.66c-12.35,12-24.21,24.27-36.09,36.28" fill="none" stroke="#0090d0" stroke-linecap="round" stroke-miterlimit="10"/><path d="M243.93,189.43q-11.11,11.2-22.15,22.45" fill="none" stroke="#0090d0" stroke-linecap="round" stroke-miterlimit="10"/><path d="M203,230.63C192.35,242.09,180.75,253,169.26,264" fill="none" stroke="#0090d0" stroke-linecap="round" stroke-miterlimit="10"/><path d="M223.76,183.58l6.41-6.4" fill="none" stroke="#0090d0" stroke-linecap="round" stroke-miterlimit="10"/><path d="M208.73,198.61c-17.92,16.68-35.05,34-52.07,51.39" fill="none" stroke="#0090d0" stroke-linecap="round" stroke-miterlimit="10"/><line x1="244.27" y1="242" x2="230.09" y2="256.18" fill="none" stroke="#0090d0" stroke-linecap="round" stroke-miterlimit="10"/><line x1="202.63" y1="283.65" x2="203.37" y2="282.9" fill="none" stroke="#0090d0" stroke-linecap="round" stroke-miterlimit="10"/><path d="M272.88,186.55q-16.21,16.17-32.1,32.64" fill="none" stroke="#0090d0" stroke-linecap="round" stroke-miterlimit="10"/><path d="M195.53,264.68q13.09-13.1,26-26.23" fill="none" stroke="#0090d0" stroke-linecap="round" stroke-miterlimit="10"/><path d="M182.86,277.3l8.63-8.6" fill="none" stroke="#0090d0" stroke-linecap="round" stroke-miterlimit="10"/><path d="M213.58,211.3q12.69-12.24,25.23-24.65" fill="none" stroke="#0090d0" stroke-linecap="round" stroke-miterlimit="10"/><path d="M198.55,226.33c-11.9,10.39-23,21.65-33.91,33" fill="none" stroke="#0090d0" stroke-linecap="round" stroke-miterlimit="10"/><path d="M251.28,226.21c-2.17,2.18-4.35,4.35-6.52,6.53" fill="none" stroke="#0090d0" stroke-linecap="round" stroke-miterlimit="10"/><path d="M194.85,283.65q2.55-2.43,5-4.91" fill="none" stroke="#0090d0" stroke-linecap="round" stroke-miterlimit="10"/><path d="M240.33,237.17c-8.93,8.21-17,16.86-25,25.44" fill="none" stroke="#0090d0" stroke-linecap="round" stroke-miterlimit="10"/><path d="M187.41,202.39c-14,13.89-27.71,28-41.41,42" fill="none" stroke="#0090d0" stroke-linecap="round" stroke-miterlimit="10"/><path d="M127.81,218.07c-6,5.84-12,11.82-18,17.87" fill="none" stroke="#0090d0" stroke-linecap="round" stroke-miterlimit="10"/><path d="M204.24,211.87q14.88-14.95,29.89-29.77" fill="none" stroke="#0090d0" stroke-linecap="round" stroke-miterlimit="10"/><path d="M160.77,255.18q17.39-17.39,35-34.88" fill="none" stroke="#0090d0" stroke-linecap="round" stroke-miterlimit="10"/><path d="M174.3,206.73c-11.32,11.83-22.94,23.36-34.59,34.8" fill="none" stroke="#0090d0" stroke-linecap="round" stroke-miterlimit="10"/><path d="M197.05,201.52c-13.89,14.71-28.48,28.92-43.11,43.12" fill="none" stroke="#0090d0" stroke-linecap="round" stroke-miterlimit="10"/><path d="M155.33,208.16q-12.46,12.28-24.75,24.73" fill="none" stroke="#0090d0" stroke-linecap="round" stroke-miterlimit="10"/><path d="M273.62,195.22L263.5,205.3" fill="none" stroke="#0090d0" stroke-linecap="round" stroke-miterlimit="10"/><path d="M253.43,215.34c-2.85,2.85-5.72,5.69-8.57,8.54" fill="none" stroke="#0090d0" stroke-linecap="round" stroke-miterlimit="10"/><path d="M204.22,264.48l25.3-25.27" fill="none" stroke="#0090d0" stroke-linecap="round" stroke-miterlimit="10"/><path d="M187.07,281.65l8.3-8.31" fill="none" stroke="#0090d0" stroke-linecap="round" stroke-miterlimit="10"/><path d="M250.94,191.43l-21.81,21.86" fill="none" stroke="#0090d0" stroke-linecap="round" stroke-miterlimit="10"/><path d="M208.37,234.06c-11.23,11.86-22.53,23.41-34.08,34.84" fill="none" stroke="#0090d0" stroke-linecap="round" stroke-miterlimit="10"/><path d="M2.75,159l3.54-3.54" fill="none" stroke="#0090d0" stroke-linecap="round" stroke-miterlimit="10"/><path d="M2.47,150.53l-1.31,1.31" fill="none" stroke="#0090d0" stroke-linecap="round" stroke-miterlimit="10"/><path d="M20.81,167.27c-3.65,3.53-7.26,7.06-10.88,10.6" fill="none" stroke="#0090d0" stroke-linecap="round" stroke-miterlimit="10"/><path d="M32.72,172.9Q25,181,17.1,189" fill="none" stroke="#0090d0" stroke-linecap="round" stroke-miterlimit="10"/><path d="M77.68,154.33Q85,147,92.28,139.68" fill="none" stroke="#0090d0" stroke-linecap="round" stroke-miterlimit="10"/><path d="M49.83,182q-9,8.87-18.11,17.83" fill="none" stroke="#0090d0" stroke-linecap="round" stroke-miterlimit="10"/><path d="M78.23,179.47q10.63-10.69,21.23-21.42" fill="none" stroke="#0090d0" stroke-linecap="round" stroke-miterlimit="10"/><path d="M70.68,187.05q-10.49,10.45-20.86,21" fill="none" stroke="#0090d0" stroke-linecap="round" stroke-miterlimit="10"/><path d="M9.77,160.77L6,164.5" fill="none" stroke="#0090d0" stroke-linecap="round" stroke-miterlimit="10"/><path d="M14.71,164.6l-6.58,6.58" fill="none" stroke="#0090d0" stroke-linecap="round" stroke-miterlimit="10"/><path d="M27.21,169.64c-5.15,4.46-10,9-14.61,13.67" fill="none" stroke="#0090d0" stroke-linecap="round" stroke-miterlimit="10"/><path d="M85.8,137.36q2.61-2.4,5.18-4.84" fill="none" stroke="#0090d0" stroke-linecap="round" stroke-miterlimit="10"/><path d="M44.66,178.44q-8.78,8.42-17.37,17" fill="none" stroke="#0090d0" stroke-linecap="round" stroke-miterlimit="10"/><path d="M95,65.3c-10.11.21-19.54-2.42-26.31-16.16" fill="none" stroke="#e12900" stroke-miterlimit="10" stroke-width="2"/><polygon points="102.05 65.16 92.02 61.3 94.46 65.31 92.19 69.43 102.05 65.16" fill="#e12900"/><path d="M488.22,229.15a15.59,15.59,0,0,1-5.22-1c-10.15,14.42-23.86,5.27-27.06,1-10.2,6.2-40.17-.91-34.08-20.62" fill="none" stroke="#0090d0" stroke-linecap="round" stroke-miterlimit="10" stroke-width="2"/><path d="M547.44,264.05c41,5.06,65.94-18.69,66.44-58.08,0-7.39-4.55-14.4-13.59-16.22-19.41-3.92-39-17.14-51.54-11.76-18.82,8-15.53,40.3-7.08,42.74-8.42,3.25-8.54,11.78-9.65,19.69" fill="none" stroke="#0090d0" stroke-linecap="round" stroke-miterlimit="10" stroke-width="2"/><path d="M600.29,189.75c-14-3.93-15.82-15.94-14-22.51-10.21,8-31.8-1.83-30.6-10.7-12.77,4.89-29.77-7.31-20.1-22.28-9.9,1.54-20.28-7.75-21.3-16.06-10.31,4-22.55,5-31.95-3.92-5.25,3.32-20.9,5.12-29,1.52-1.8,7.7-8.7,18.46-18,17.7-11.66,3.67-11.06,17.4-3.92,20.3,8.53-.43,9.58,2.11,15.57,6.79,14.69-7,20.59,11,11.89,16.12,2.4,6.9.7,20.58-13.1,19.17,0.23,7.56-10.9,17.31-23.92,12.63-17.3,1.32-28.66-5.11-36.91-15.6-7.44,0-17.4-12.52-17.4-26.78-13.62-10.67-4.72-46.84,10.69-50,5.35-17.95,21.77-28.54,33.22-26.73,6.87-8,26.39-15.43,38.95-14.52,15-8.5,32.35-11.44,54.64-7.54,27.79-5.26,80.16,11,86.76,29.84,12.07,7.53,24.15,19.13,25.5,33.49,0,0,16.39,12.95,17.15,34,0.25,6.81,7.64,10,.26,27.88S613.88,206,613.88,206" fill="none" stroke="#0090d0" stroke-linecap="round" stroke-miterlimit="10" stroke-width="2"/><path d="M563.83,283.65l-16.39-19.6s-11.76-12-17.36-28.7c-2.7-8-3.17-16-4-22.91" fill="none" stroke="#0090d0" stroke-linecap="round" stroke-miterlimit="10" stroke-width="2"/><path d="M548.75,283.65c-12.7-14.06-32.55-29.76-35-39-10.72,2.85-22.49-8.47-25.54-15.45-0.25-.72-0.63-1.65-0.82-2.38" fill="none" stroke="#0090d0" stroke-linecap="round" stroke-miterlimit="10" stroke-width="2"/><path d="M488.24,228.68l68.11-68.1" fill="none" stroke="#0090d0" stroke-linecap="round" stroke-miterlimit="10"/><path d="M547.28,178.36q6.6-6.77,13.25-13.5" fill="none" stroke="#0090d0" stroke-linecap="round" stroke-miterlimit="10"/><path d="M491.67,234L519,206.65" fill="none" stroke="#0090d0" stroke-linecap="round" stroke-miterlimit="10"/><path d="M557.05,177.21q4.43-4.66,8.9-9.29" fill="none" stroke="#0090d0" stroke-linecap="round" stroke-miterlimit="10"/><path d="M527.92,206.65q3.75-3.77,7.47-7.58" fill="none" stroke="#0090d0" stroke-linecap="round" stroke-miterlimit="10"/><path d="M495.87,238.26L510.49,224" fill="none" stroke="#0090d0" stroke-linecap="round" stroke-miterlimit="10"/><path d="M566,177.32q4.13-3.93,8.24-7.89" fill="none" stroke="#0090d0" stroke-linecap="round" stroke-miterlimit="10"/><path d="M526.43,216.52q4.42-4.3,8.85-8.57" fill="none" stroke="#0090d0" stroke-linecap="round" stroke-miterlimit="10"/><path d="M500.68,241.88l6.41-6.37" fill="none" stroke="#0090d0" stroke-linecap="round" stroke-miterlimit="10"/><path d="M572.89,179.14l10.05-10.07" fill="none" stroke="#0090d0" stroke-linecap="round" stroke-miterlimit="10"/><path d="M528.06,223.94l8.3-8.3" fill="none" stroke="#0090d0" stroke-linecap="round" stroke-miterlimit="10"/><path d="M507.91,244.09L515,237" fill="none" stroke="#0090d0" stroke-linecap="round" stroke-miterlimit="10"/><path d="M579,181.72l7-6.9" fill="none" stroke="#0090d0" stroke-linecap="round" stroke-miterlimit="10"/><path d="M528.69,232.08L539.8,221" fill="none" stroke="#0090d0" stroke-linecap="round" stroke-miterlimit="10"/><path d="M514.65,246.12l5.26-5.26" fill="none" stroke="#0090d0" stroke-linecap="round" stroke-miterlimit="10"/><path d="M585.37,184.58l4.69-4.7" fill="none" stroke="#0090d0" stroke-linecap="round" stroke-miterlimit="10" stroke-width="1.14"/><path d="M531.18,238.36l3.76-3.76" fill="none" stroke="#0090d0" stroke-linecap="round" stroke-miterlimit="10"/><path d="M517.78,251.76l3.44-3.44" fill="none" stroke="#0090d0" stroke-linecap="round" stroke-miterlimit="10"/><path d="M592.09,186.23l4.14-4.14" fill="none" stroke="#0090d0" stroke-linecap="round" stroke-miterlimit="10" stroke-width="1.1"/><path d="M533.9,244.42l2.28-2.28" fill="none" stroke="#0090d0" stroke-linecap="round" stroke-miterlimit="10"/><path d="M521.9,256.41l2.66-2.66" fill="none" stroke="#0090d0" stroke-linecap="round" stroke-miterlimit="10"/><path d="M598.42,188.81l4.71-4.65" fill="none" stroke="#0090d0" stroke-linecap="round" stroke-miterlimit="10" stroke-width="1.07"/><path d="M536.65,249.5l1.89-1.95" fill="none" stroke="#0090d0" stroke-linecap="round" stroke-miterlimit="10"/><path d="M525.79,260.7l2.74-2.83" fill="none" stroke="#0090d0" stroke-linecap="round" stroke-miterlimit="10"/><path d="M604.94,190.88l3.47-3.52" fill="none" stroke="#0090d0" stroke-linecap="round" stroke-miterlimit="10" stroke-width="1.07"/><path d="M540.16,255.21l2.14-2.09" fill="none" stroke="#0090d0" stroke-linecap="round" stroke-miterlimit="10"/><path d="M530.19,265.08l2.17-2.16" fill="none" stroke="#0090d0" stroke-linecap="round" stroke-miterlimit="10"/><path d="M609.82,194.72l3.5-3.56" fill="none" stroke="#0090d0" stroke-linecap="round" stroke-miterlimit="10" stroke-width="1.06"/><path d="M544.13,260.25l3.36-3.31" fill="none" stroke="#0090d0" stroke-linecap="round" stroke-miterlimit="10"/><path d="M534.78,269.54l1.93-1.93" fill="none" stroke="#0090d0" stroke-linecap="round" stroke-miterlimit="10"/><path d="M613.2,200.58l3.5-3.54" fill="none" stroke="#0090d0" stroke-linecap="round" stroke-miterlimit="10" stroke-width="1.07"/><path d="M549.15,264.24l4.15-4.15" fill="none" stroke="#0090d0" stroke-linecap="round" stroke-miterlimit="10"/><path d="M539.38,274l3.25-3.25" fill="none" stroke="#0090d0" stroke-linecap="round" stroke-miterlimit="10"/><path d="M614.21,207.77l5-5.25" fill="none" stroke="#0090d0" stroke-linecap="round" stroke-miterlimit="10" stroke-width="1.06"/><path d="M557.33,264.83l4.15-4.15" fill="none" stroke="#0090d0" stroke-linecap="round" stroke-miterlimit="10"/><path d="M544.13,278l2.53-2.53" fill="none" stroke="#0090d0" stroke-linecap="round" stroke-miterlimit="10"/><path d="M566.7,264.23l5.34-5.34" fill="none" stroke="#0090d0" stroke-linecap="round" stroke-miterlimit="10"/><path d="M548,282.88l2.64-2.64" fill="none" stroke="#0090d0" stroke-linecap="round" stroke-miterlimit="10"/><path d="M577.85,261.85l5.34-5.34" fill="none" stroke="#0090d0" stroke-linecap="round" stroke-miterlimit="10"/><path d="M436.53,140q10.71-11,21.46-21.88" fill="none" stroke="#0090d0" stroke-linecap="round" stroke-miterlimit="10"/><path d="M461.65,123.35l5.9-5.88" fill="none" stroke="#0090d0" stroke-linecap="round" stroke-miterlimit="10"/><path d="M472.27,121.21q2.16-2.29,4.34-4.57" fill="none" stroke="#0090d0" stroke-linecap="round" stroke-miterlimit="10"/><path d="M446.49,147.65q7.51-7.83,15.12-15.56" fill="none" stroke="#0090d0" stroke-linecap="round" stroke-miterlimit="10"/><path d="M449.35,153.56l23.57-23.48" fill="none" stroke="#0090d0" stroke-linecap="round" stroke-miterlimit="10"/><path d="M453.6,158.45q14.12-14.22,28.16-28.52" fill="none" stroke="#0090d0" stroke-linecap="round" stroke-miterlimit="10"/><path d="M459.36,160.85q15-14.88,30-29.72" fill="none" stroke="#0090d0" stroke-linecap="round" stroke-miterlimit="10"/><path d="M462.91,166.12q16.92-17,34-33.82" fill="none" stroke="#0090d0" stroke-linecap="round" stroke-miterlimit="10"/><path d="M460.29,177.66l43.63-43.58" fill="none" stroke="#0090d0" stroke-linecap="round" stroke-miterlimit="10"/><path d="M421.25,216.18q3.16-3.11,6.35-6.2" fill="none" stroke="#0090d0" stroke-linecap="round" stroke-miterlimit="10"/><path d="M458.73,188q26-26.16,52.19-52.17" fill="none" stroke="#0090d0" stroke-linecap="round" stroke-miterlimit="10"/><path d="M424.2,222c8.86-8.89,17.81-17.7,26.93-26.33" fill="none" stroke="#0090d0" stroke-linecap="round" stroke-miterlimit="10"/><path d="M428.65,226.3c30-27.86,57.64-59.06,87.5-86.91" fill="none" stroke="#0090d0" stroke-linecap="round" stroke-miterlimit="10"/><path d="M464.11,234.47q38.37-37.61,76.85-75.11" fill="none" stroke="#0090d0" stroke-linecap="round" stroke-miterlimit="10"/><path d="M472.54,235.42q34.61-33.82,69.26-67.62" fill="none" stroke="#0090d0" stroke-linecap="round" stroke-miterlimit="10"/><path d="M435.34,229l60.19-60.2" fill="none" stroke="#0090d0" stroke-linecap="round" stroke-miterlimit="10"/><path d="M442.28,230.53c10.58-10.57,50.63-50.36,61.24-60.91" fill="none" stroke="#0090d0" stroke-linecap="round" stroke-miterlimit="10"/><path d="M450.92,231c12.91-12.58,69.13-69.15,81.92-81.85" fill="none" stroke="#0090d0" stroke-linecap="round" stroke-miterlimit="10"/><path d="M458.41,232.28L537,153.63" fill="none" stroke="#0090d0" stroke-linecap="round" stroke-miterlimit="10"/><path d="M546.62,156.66a15.77,15.77,0,0,1-10.54-5.35c-2.59-3.16-4-7.9-2.28-11.73a5.25,5.25,0,0,1,.31-1,12.14,12.14,0,0,1,1.12-2.87q-0.54-.6-1.11-1.19a4.13,4.13,0,0,1-.66,0c-6.89-.46-15.41-5.21-17.59-12.16a58.4,58.4,0,0,0-8.61-2.74,4.15,4.15,0,0,1-.58.2,34.88,34.88,0,0,1-13.16.09,9.7,9.7,0,0,1-4.85-1.87c-38.66,1-54.37,17.26-59,28.24-4.77,11.36-3.1,25.67,5.59,34.41,7.24,7.28,19.38,9.38,28.38,4.95l0,0c8.25,1.92,18.48,0,26-4.6h0c8.8,2.67,23,2.37,30.36-3.17l-0.06,0a29.72,29.72,0,0,1,8.56,8.53c-5.65,6.38-13.48,10.28-21.66,12.31-9.81,2.43-20.35-.18-29.92,3.4-2.23.83-4.47,2-5.69,4.08-2.35,3.91,1.26,8.22,5.24,8.82a13.55,13.55,0,0,0,7-1.28c5.83-2.38,11.08-5.21,17.21-6.8,5.87-1.52,12-1.87,17.83-3.84,10.11-3.41,20.1-9.11,25.43-18.72,4.35-7.83,5-17.25,3.17-25.9C546.94,157.9,546.78,157.28,546.62,156.66ZM520.29,142.2c4.18,2,8.13,6.14,10.9,11.36a9.8,9.8,0,0,1-3.88.85s-0.75-2.53-1.61-4.6A21.73,21.73,0,0,0,520.29,142.2Zm13.33,35.49a24.92,24.92,0,0,1-2,4.31,26.72,26.72,0,0,1-8.3-7s5.12-9.71,4.5-16.67a15.85,15.85,0,0,1,5.53.44A29.66,29.66,0,0,1,533.62,177.69Z" fill="#ffd200"/><path d="M463.63,185.65c8.25,1.92,18.48,0,26-4.6h0c8.9,2.71,23.29,2.37,30.63-3.35,8.18-6.38,9.8-17.43,5.48-27.89-2.65-6.41-8.59-11-15.08-13.49-17.21-6.49-42.62-3.71-57.15,7.84-11.37,9-9.46,24.06,1,26.59C463.3,173.53,466.67,178.37,463.63,185.65Z" fill="#e5a310"/><path d="M489.59,181c8.9,2.71,23.29,2.37,30.63-3.35,8.18-6.38,9.8-17.43,5.48-27.89-2.65-6.41-8.59-11-15.08-13.49-17.21-6.49-42.62-3.71-57.15,7.84-11.37,9-9.46,24.06,1,26.59" fill="none" stroke="#0090d0" stroke-linecap="round" stroke-miterlimit="10" stroke-width="2"/><path d="M494,177.69a27.49,27.49,0,0,1-4.43,3.35c-7.49,4.6-17.71,6.53-26,4.6" fill="none" stroke="#0090d0" stroke-linecap="round" stroke-miterlimit="10" stroke-width="2"/><path d="M531.19,153.56c-2.76-5.22-6.72-9.36-10.9-11.36" fill="none" stroke="#0090d0" stroke-linecap="round" stroke-miterlimit="10" stroke-width="2"/><path d="M531.67,182a24.94,24.94,0,0,0,2-4.32,29.67,29.67,0,0,0-.21-18.94" fill="none" stroke="#0090d0" stroke-linecap="round" stroke-miterlimit="10" stroke-width="2"/><path d="M468.62,182.19c-8.91,8.51-24.65,7.24-33.34-1.5s-10.36-23-5.59-34.41a35.82,35.82,0,0,1,10.11-13.19,15.3,15.3,0,0,0,7.53-5.23c9.11-5.2,22.1-9.2,40.22-9.8,5.52,2.15,12.89,3,21.22,1.91a58.12,58.12,0,0,1,6.64,2.16c3.72,9.76,14.46,12.61,18.64,12.28l0.88,0.93c-4.64,11.74-.32,18.92,11.9,22.08q0.13,0.55.25,1.11c1.84,8.65,1.17,18.07-3.17,25.9-5.33,9.61-15.31,15.31-25.43,18.72-5.83,2-12,2.32-17.83,3.84-6.13,1.58-11.38,4.42-17.21,6.8a13.54,13.54,0,0,1-7,1.28c-4-.6-7.6-4.91-5.25-8.82,1.23-2,3.46-3.24,5.69-4.08,9.57-3.58,20.12-1,29.92-3.4,8.19-2,16-5.94,21.68-12.33" fill="none" stroke="#0090d0" stroke-linecap="round" stroke-miterlimit="10" stroke-width="2"/><path d="M446.88,164.94A5.86,5.86,0,0,0,442,167.1" fill="none" stroke="#0090d0" stroke-linecap="round" stroke-miterlimit="10" stroke-width="2"/><path d="M445.79,161.21a6.15,6.15,0,0,1-4.95-1" fill="none" stroke="#0090d0" stroke-linecap="round" stroke-miterlimit="10" stroke-width="2"/><path d="M443,146.55a6.61,6.61,0,0,1,5.72,2.58" fill="none" stroke="#0090d0" stroke-linecap="round" stroke-miterlimit="10" stroke-width="2"/><path d="M448.45,140.21A6.84,6.84,0,0,0,451,146" fill="none" stroke="#0090d0" stroke-linecap="round" stroke-miterlimit="10" stroke-width="2"/><path d="M458.73,134.16a6.28,6.28,0,0,1,4.13,3.92" fill="none" stroke="#0090d0" stroke-linecap="round" stroke-miterlimit="10" stroke-width="2"/><path d="M465.63,131a6.51,6.51,0,0,0,.31,5.84" fill="none" stroke="#0090d0" stroke-linecap="round" stroke-miterlimit="10" stroke-width="2"/><path d="M478.25,128.53a6,6,0,0,1,1.79,4.93" fill="none" stroke="#0090d0" stroke-linecap="round" stroke-miterlimit="10" stroke-width="2"/><path d="M484.58,127a7.22,7.22,0,0,0-1.23,5.92" fill="none" stroke="#0090d0" stroke-linecap="round" stroke-miterlimit="10" stroke-width="2"/><path d="M498.41,127.1a11,11,0,0,1,1.16,6.35" fill="none" stroke="#0090d0" stroke-linecap="round" stroke-miterlimit="10" stroke-width="2"/><path d="M505.75,128a8.68,8.68,0,0,0-3.34,5.85" fill="none" stroke="#0090d0" stroke-linecap="round" stroke-miterlimit="10" stroke-width="2"/><path d="M515.68,132.88a7.24,7.24,0,0,1-.51,5.31" fill="none" stroke="#0090d0" stroke-linecap="round" stroke-miterlimit="10" stroke-width="2"/><path d="M523.71,137a5.91,5.91,0,0,0-5.44,3.39" fill="none" stroke="#0090d0" stroke-linecap="round" stroke-miterlimit="10" stroke-width="2"/><path d="M527.31,154.4a14.52,14.52,0,0,0,7.75-3" fill="none" stroke="#0090d0" stroke-linecap="round" stroke-miterlimit="10" stroke-width="2"/><path d="M537,160.13a16.29,16.29,0,0,0-9.14-1.8" fill="none" stroke="#0090d0" stroke-linecap="round" stroke-miterlimit="10" stroke-width="2"/><path d="M534.29,183.26A26.71,26.71,0,0,1,523.37,175" fill="none" stroke="#0090d0" stroke-linecap="round" stroke-miterlimit="10" stroke-width="2"/><path d="M529.87,188.8a29.71,29.71,0,0,0-10-10.87" fill="none" stroke="#0090d0" stroke-linecap="round" stroke-miterlimit="10" stroke-width="2"/><path d="M427.44,157.67l6.44-6.2" fill="none" stroke="#0090d0" stroke-linecap="round" stroke-miterlimit="10"/><path d="M428,164.73l7.88-7.9" fill="none" stroke="#0090d0" stroke-linecap="round" stroke-miterlimit="10"/><path d="M443.45,156.65l3.3-3.46" fill="none" stroke="#0090d0" stroke-linecap="round" stroke-miterlimit="10"/><path d="M429.46,171L437.3,163" fill="none" stroke="#0090d0" stroke-linecap="round" stroke-miterlimit="10"/><path d="M446,161.74l2.4-2.4" fill="none" stroke="#0090d0" stroke-linecap="round" stroke-miterlimit="10"/><path d="M432.46,175.22q3.64-3.62,7.26-7.25" fill="none" stroke="#0090d0" stroke-linecap="round" stroke-miterlimit="10"/><path d="M448.23,166.49l2.94-2.95" fill="none" stroke="#0090d0" stroke-linecap="round" stroke-miterlimit="10"/><path d="M435.49,179.17l6.34-6.35" fill="none" stroke="#0090d0" stroke-linecap="round" stroke-miterlimit="10"/><path d="M452,169.55l3.39-3.38" fill="none" stroke="#0090d0" stroke-linecap="round" stroke-miterlimit="10"/><path d="M438.47,183.14l7.24-7.29" fill="none" stroke="#0090d0" stroke-linecap="round" stroke-miterlimit="10"/><path d="M456.68,171.28l3.88-3.87" fill="none" stroke="#0090d0" stroke-linecap="round" stroke-miterlimit="10"/><path d="M442.61,185.32l7.27-7.23" fill="none" stroke="#0090d0" stroke-linecap="round" stroke-miterlimit="10"/><path d="M449.81,187q3.16-3.17,6.29-6.38" fill="none" stroke="#0090d0" stroke-linecap="round" stroke-miterlimit="10"/><path d="M457.13,186.89q5.72-5.82,11.5-11.58" fill="none" stroke="#0090d0" stroke-linecap="round" stroke-miterlimit="10"/><path d="M466,185.06q4.58-4.55,9.13-9.14" fill="none" stroke="#0090d0" stroke-linecap="round" stroke-miterlimit="10"/><path d="M473.45,185.8q5.4-5.52,10.64-11.2" fill="none" stroke="#0090d0" stroke-linecap="round" stroke-miterlimit="10"/><path d="M481,184.83l16.18-16.18" fill="none" stroke="#0090d0" stroke-linecap="round" stroke-miterlimit="10"/><path d="M492,180.94q4.81-4.82,9.55-9.71" fill="none" stroke="#0090d0" stroke-linecap="round" stroke-miterlimit="10"/><path d="M499,181.61q4.62-4.59,9.22-9.21" fill="none" stroke="#0090d0" stroke-linecap="round" stroke-miterlimit="10"/><path d="M471,209.13l3.83-3.7" fill="none" stroke="#0090d0" stroke-linecap="round" stroke-miterlimit="10"/><path d="M506.12,181.63l8.74-8.75" fill="none" stroke="#0090d0" stroke-linecap="round" stroke-miterlimit="10"/><path d="M473.6,214.18l5.43-5.43" fill="none" stroke="#0090d0" stroke-linecap="round" stroke-miterlimit="10"/><path d="M514.6,180.54q3.12-3.1,6.19-6.24" fill="none" stroke="#0090d0" stroke-linecap="round" stroke-miterlimit="10"/><path d="M478.51,214.94l6.25-5.89" fill="none" stroke="#0090d0" stroke-linecap="round" stroke-miterlimit="10"/><path d="M428.76,149.37l5.89-5.85" fill="none" stroke="#0090d0" stroke-linecap="round" stroke-miterlimit="10"/><path d="M493,209.92l4.89-4.82" fill="none" stroke="#0090d0" stroke-linecap="round" stroke-miterlimit="10"/><path d="M504.09,206.35l3.35-3.36" fill="none" stroke="#0090d0" stroke-linecap="round" stroke-miterlimit="10"/><path d="M512,204.57l4.42-4.31" fill="none" stroke="#0090d0" stroke-linecap="round" stroke-miterlimit="10"/><path d="M523.92,200.78q2.9-2.91,5.76-5.84" fill="none" stroke="#0090d0" stroke-linecap="round" stroke-miterlimit="10"/><path d="M551.3,142.69c0-34.66-17.19-36.36-32.41-36.36S486.46,109,486.46,58.8c0,50.2-17.17,47.53-32.39,47.53s-32.41,1.69-32.41,36.34" fill="none" stroke="#e12900" stroke-miterlimit="10" stroke-width="2"/><path d="M176,237.34c-30,7-48.24,17.63-62.32,29.48" fill="none" stroke="#fff" stroke-miterlimit="10" stroke-width="6"/><polygon points="186.28 234.93 170.35 232.4 175.19 237.53 173.14 244.27 186.28 234.93" fill="#fff"/><path d="M176,237.34c-30,7-48.24,17.63-62.32,29.48" fill="none" stroke="#e12900" stroke-miterlimit="10" stroke-width="2"/><polygon points="182.84 235.73 172.22 234.05 175.45 237.47 174.08 241.96 182.84 235.73" fill="#e12900"/><text transform="translate(422.61 20.01)" font-size="22" fill="#e12900" font-family="Open Sans">I N T E R I O R</text></svg>