<svg id="Layer_1" data-name="Layer 1" xmlns="http://www.w3.org/2000/svg" viewBox="0 0 640 361.86"><title>brains</title><rect x="-0.43" y="-0.29" width="640" height="362" fill="#fff"/><path d="M531.17,193.51c-8.9,14.22-18.9,19.36-33.27,24C487.09,221,482,228.1,470.35,228a22.23,22.23,0,0,1-9.75-2.06h0c5,21.07,44,5.86,53.29-.57s19.71-19.87,17.29-31.82h0Z" fill="#ffd200"/><path d="M487.37,242.61a15.59,15.59,0,0,1-5.22-1c-10.15,14.42-23.86,5.27-27.06,1-10.2,6.2-40.17-.91-34.08-20.62" fill="none" stroke="#0090d0" stroke-linecap="round" stroke-miterlimit="10" stroke-width="2.4"/><path d="M546.6,277.51c41,5.06,65.94-18.69,66.44-58.08,0-7.39-4.55-14.4-13.59-16.22-19.41-3.92-39-17.14-51.54-11.76-18.82,8-15.53,40.3-7.08,42.74-8.42,3.25-8.54,11.78-9.65,19.69" fill="none" stroke="#0090d0" stroke-linecap="round" stroke-miterlimit="10" stroke-width="2.4"/><path d="M599.45,203.21c-14-3.93-15.82-15.94-14-22.51-10.21,8-31.8-1.83-30.6-10.7-12.77,4.89-29.77-7.31-20.1-22.28-9.9,1.54-20.28-7.75-21.3-16.06-10.31,4-22.55,5-31.95-3.92-5.25,3.32-20.9,5.12-29,1.52-1.8,7.7-8.7,18.46-18,17.7-11.66,3.67-11.06,17.4-3.92,20.3,8.53-.43,9.58,2.11,15.57,6.79,14.69-7,20.59,11,11.89,16.12,2.4,6.9.7,20.58-13.1,19.17C445.17,216.91,434,226.67,421,222c-17.3,1.32-28.66-5.11-36.91-15.6-7.44,0-17.4-12.52-17.4-26.78-13.62-10.67-4.72-46.84,10.69-50,5.35-17.95,21.77-28.54,33.22-26.73,6.87-8,26.39-15.43,38.95-14.52,15-8.5,32.35-11.44,54.64-7.54,27.79-5.26,80.16,11,86.76,29.84,12.07,7.53,24.15,19.13,25.5,33.49,0,0,16.39,12.95,17.15,34,0.25,6.81,7.64,10,.26,27.88S613,219.43,613,219.43" fill="none" stroke="#0090d0" stroke-linecap="round" stroke-miterlimit="10" stroke-width="2.4"/><path d="M563,297.11l-16.39-19.6s-11.76-12-17.36-28.7c-2.7-8-3.17-16-4-22.91" fill="none" stroke="#0090d0" stroke-linecap="round" stroke-miterlimit="10" stroke-width="2.4"/><path d="M547.91,297.11c-12.7-14.06-32.55-29.76-35-39-10.72,2.85-22.49-8.47-25.54-15.45-0.25-.72-0.63-1.65-0.82-2.38" fill="none" stroke="#0090d0" stroke-linecap="round" stroke-miterlimit="10" stroke-width="2.4"/><path d="M501.24,209.35c-4.86,1.41-15.36,1.09-20.22.28-4.28-.72-8.6-1.62-12.92-1.23-6.48.58-14.63,5.07-11.81,12.8,2,5.46,9,6.69,14.07,6.75,11.6,0.15,16.73-7,27.55-10.46,16.53-5.32,27.29-11.32,37.24-31.07a11.92,11.92,0,0,1-4.29-.8C525.79,195.83,512.57,206.07,501.24,209.35Z" fill="none" stroke="#0090d0" stroke-linecap="round" stroke-miterlimit="10" stroke-width="2.4"/><path d="M452.33,172.47c-4.7-1.39-8.19-9.16-7.36-14.6,3.46-22.51,57.87-16.51,72-3.88,7.23,6.44,6.76,10.52,7.07,19.5,0.12,3.34.68,6.88,2.87,9.4,7.3,8.37,24.87.82,22.51-11.81" fill="none" stroke="#0090d0" stroke-linecap="round" stroke-miterlimit="10" stroke-width="2.4"/><path d="M460.59,225.89c5,21.07,44,5.86,53.29-.57s19.88-18.81,17.46-30.76" fill="none" stroke="#0090d0" stroke-linecap="round" stroke-miterlimit="10" stroke-width="2.4"/><path d="M494.67,201.62a10.85,10.85,0,0,1-2.21,1.3c-4.77,2-10.8-1.44-12.08-6.46-2.43-9.59,9.67-16.48,17.12-18.79,5.93-1.84,13.35-5.07,18.32.69a10.61,10.61,0,0,1,.07,13.32c-3.24,3.85-6.57,2.38-10.64,3.5C500.81,196.4,498.46,198.82,494.67,201.62Z" fill="none" stroke="#0090d0" stroke-linecap="round" stroke-miterlimit="10" stroke-width="2.4"/><path d="M513.5,216.2q21.41-21,42.68-42.21" fill="none" stroke="#0090d0" stroke-linecap="round" stroke-miterlimit="10" stroke-width="1.2"/><path d="M487.4,242.14l8.89-8.89" fill="none" stroke="#0090d0" stroke-linecap="round" stroke-miterlimit="10" stroke-width="1.2"/><path d="M546.44,191.82q6.6-6.77,13.25-13.5" fill="none" stroke="#0090d0" stroke-linecap="round" stroke-miterlimit="10" stroke-width="1.2"/><path d="M528.73,209.58l8.86-8.88" fill="none" stroke="#0090d0" stroke-linecap="round" stroke-miterlimit="10" stroke-width="1.2"/><path d="M490.83,247.48l20.74-20.74" fill="none" stroke="#0090d0" stroke-linecap="round" stroke-miterlimit="10" stroke-width="1.2"/><path d="M556.21,190.67q4.43-4.66,8.9-9.29" fill="none" stroke="#0090d0" stroke-linecap="round" stroke-miterlimit="10" stroke-width="1.2"/><path d="M527.07,220.11q3.75-3.77,7.47-7.58" fill="none" stroke="#0090d0" stroke-linecap="round" stroke-miterlimit="10" stroke-width="1.2"/><path d="M495,251.72l5.85-5.72" fill="none" stroke="#0090d0" stroke-linecap="round" stroke-miterlimit="10" stroke-width="1.2"/><path d="M565.15,190.78q4.13-3.93,8.24-7.89" fill="none" stroke="#0090d0" stroke-linecap="round" stroke-miterlimit="10" stroke-width="1.2"/><path d="M525.59,230q4.42-4.3,8.85-8.57" fill="none" stroke="#0090d0" stroke-linecap="round" stroke-miterlimit="10" stroke-width="1.2"/><path d="M499.83,255.34l6.41-6.37" fill="none" stroke="#0090d0" stroke-linecap="round" stroke-miterlimit="10" stroke-width="1.2"/><path d="M572,192.6l10.05-10.07" fill="none" stroke="#0090d0" stroke-linecap="round" stroke-miterlimit="10" stroke-width="1.2"/><path d="M527.22,237.4l8.3-8.3" fill="none" stroke="#0090d0" stroke-linecap="round" stroke-miterlimit="10" stroke-width="1.2"/><path d="M507.06,257.55l7.11-7.11" fill="none" stroke="#0090d0" stroke-linecap="round" stroke-miterlimit="10" stroke-width="1.2"/><path d="M578.18,195.18l7-6.9" fill="none" stroke="#0090d0" stroke-linecap="round" stroke-miterlimit="10" stroke-width="1.2"/><path d="M527.84,245.54L539,234.43" fill="none" stroke="#0090d0" stroke-linecap="round" stroke-miterlimit="10" stroke-width="1.2"/><path d="M513.8,259.58l5.26-5.26" fill="none" stroke="#0090d0" stroke-linecap="round" stroke-miterlimit="10" stroke-width="1.2"/><path d="M584.53,198l4.69-4.7" fill="none" stroke="#0090d0" stroke-linecap="round" stroke-miterlimit="10" stroke-width="1.36"/><path d="M530.33,251.82l3.76-3.76" fill="none" stroke="#0090d0" stroke-linecap="round" stroke-miterlimit="10" stroke-width="1.2"/><path d="M516.94,265.22l3.44-3.44" fill="none" stroke="#0090d0" stroke-linecap="round" stroke-miterlimit="10" stroke-width="1.2"/><path d="M591.24,199.69l4.14-4.14" fill="none" stroke="#0090d0" stroke-linecap="round" stroke-miterlimit="10" stroke-width="1.32"/><path d="M533.05,257.88l2.28-2.28" fill="none" stroke="#0090d0" stroke-linecap="round" stroke-miterlimit="10" stroke-width="1.2"/><path d="M521.06,269.87l2.66-2.66" fill="none" stroke="#0090d0" stroke-linecap="round" stroke-miterlimit="10" stroke-width="1.2"/><path d="M597.57,202.27l4.71-4.65" fill="none" stroke="#0090d0" stroke-linecap="round" stroke-miterlimit="10" stroke-width="1.28"/><path d="M535.81,263L537.7,261" fill="none" stroke="#0090d0" stroke-linecap="round" stroke-miterlimit="10" stroke-width="1.2"/><path d="M524.94,274.16l2.74-2.83" fill="none" stroke="#0090d0" stroke-linecap="round" stroke-miterlimit="10" stroke-width="1.2"/><path d="M604.1,204.34l3.47-3.52" fill="none" stroke="#0090d0" stroke-linecap="round" stroke-miterlimit="10" stroke-width="1.28"/><path d="M539.32,268.67l2.14-2.09" fill="none" stroke="#0090d0" stroke-linecap="round" stroke-miterlimit="10" stroke-width="1.2"/><path d="M529.34,278.54l2.17-2.16" fill="none" stroke="#0090d0" stroke-linecap="round" stroke-miterlimit="10" stroke-width="1.2"/><path d="M609,208.18l3.5-3.56" fill="none" stroke="#0090d0" stroke-linecap="round" stroke-miterlimit="10" stroke-width="1.28"/><path d="M543.29,273.71l3.36-3.31" fill="none" stroke="#0090d0" stroke-linecap="round" stroke-miterlimit="10" stroke-width="1.2"/><path d="M533.94,283l1.93-1.93" fill="none" stroke="#0090d0" stroke-linecap="round" stroke-miterlimit="10" stroke-width="1.2"/><path d="M612.36,214l3.5-3.54" fill="none" stroke="#0090d0" stroke-linecap="round" stroke-miterlimit="10" stroke-width="1.29"/><path d="M548.3,277.7l4.15-4.15" fill="none" stroke="#0090d0" stroke-linecap="round" stroke-miterlimit="10" stroke-width="1.2"/><path d="M538.54,287.47l3.25-3.25" fill="none" stroke="#0090d0" stroke-linecap="round" stroke-miterlimit="10" stroke-width="1.2"/><path d="M613.37,221.23l5-5.25" fill="none" stroke="#0090d0" stroke-linecap="round" stroke-miterlimit="10" stroke-width="1.27"/><path d="M556.49,278.29l4.15-4.15" fill="none" stroke="#0090d0" stroke-linecap="round" stroke-miterlimit="10" stroke-width="1.2"/><path d="M543.29,291.49l2.53-2.53" fill="none" stroke="#0090d0" stroke-linecap="round" stroke-miterlimit="10" stroke-width="1.2"/><path d="M565.86,277.69l5.34-5.34" fill="none" stroke="#0090d0" stroke-linecap="round" stroke-miterlimit="10" stroke-width="1.2"/><path d="M547.21,296.34l2.64-2.64" fill="none" stroke="#0090d0" stroke-linecap="round" stroke-miterlimit="10" stroke-width="1.2"/><path d="M577,275.31l5.34-5.34" fill="none" stroke="#0090d0" stroke-linecap="round" stroke-miterlimit="10" stroke-width="1.2"/><path d="M435.68,153.42q10.71-11,21.46-21.88" fill="none" stroke="#0090d0" stroke-linecap="round" stroke-miterlimit="10" stroke-width="1.2"/><path d="M460.81,136.81l5.9-5.88" fill="none" stroke="#0090d0" stroke-linecap="round" stroke-miterlimit="10" stroke-width="1.2"/><path d="M471.42,134.67q2.16-2.29,4.34-4.57" fill="none" stroke="#0090d0" stroke-linecap="round" stroke-miterlimit="10" stroke-width="1.2"/><path d="M445.64,161.11q7.51-7.83,15.12-15.56" fill="none" stroke="#0090d0" stroke-linecap="round" stroke-miterlimit="10" stroke-width="1.2"/><path d="M480.89,134.75l4.05-4" fill="none" stroke="#0090d0" stroke-linecap="round" stroke-miterlimit="10" stroke-width="1.2"/><path d="M448.51,167l23.57-23.48" fill="none" stroke="#0090d0" stroke-linecap="round" stroke-miterlimit="10" stroke-width="1.2"/><path d="M488,136.34l3-2.9" fill="none" stroke="#0090d0" stroke-linecap="round" stroke-miterlimit="10" stroke-width="1.2"/><path d="M452.75,171.91q14.12-14.22,28.16-28.52" fill="none" stroke="#0090d0" stroke-linecap="round" stroke-miterlimit="10" stroke-width="1.2"/><path d="M495.58,137.58l3-2.83" fill="none" stroke="#0090d0" stroke-linecap="round" stroke-miterlimit="10" stroke-width="1.2"/><path d="M458.51,174.31q15-14.88,30-29.72" fill="none" stroke="#0090d0" stroke-linecap="round" stroke-miterlimit="10" stroke-width="1.2"/><path d="M503.15,138.81q2.93-2.74,5.85-5.51" fill="none" stroke="#0090d0" stroke-linecap="round" stroke-miterlimit="10" stroke-width="1.2"/><path d="M462.07,179.58q16.92-17,34-33.82" fill="none" stroke="#0090d0" stroke-linecap="round" stroke-miterlimit="10" stroke-width="1.2"/><path d="M510.16,140.44l4.14-4.14" fill="none" stroke="#0090d0" stroke-linecap="round" stroke-miterlimit="10" stroke-width="1.2"/><path d="M459.45,191.12l43.63-43.58" fill="none" stroke="#0090d0" stroke-linecap="round" stroke-miterlimit="10" stroke-width="1.2"/><path d="M420.4,229.64q3.16-3.11,6.35-6.2" fill="none" stroke="#0090d0" stroke-linecap="round" stroke-miterlimit="10" stroke-width="1.2"/><path d="M515.39,144l3-2.9" fill="none" stroke="#0090d0" stroke-linecap="round" stroke-miterlimit="10" stroke-width="1.2"/><path d="M457.88,201.48q26-26.16,52.19-52.17" fill="none" stroke="#0090d0" stroke-linecap="round" stroke-miterlimit="10" stroke-width="1.2"/><path d="M423.36,235.45c8.86-8.89,17.81-17.7,26.93-26.33" fill="none" stroke="#0090d0" stroke-linecap="round" stroke-miterlimit="10" stroke-width="1.2"/><path d="M519.41,148.78l3.47-3.17" fill="none" stroke="#0090d0" stroke-linecap="round" stroke-miterlimit="10" stroke-width="1.2"/><path d="M427.8,239.76c30-27.86,57.64-59.06,87.5-86.91" fill="none" stroke="#0090d0" stroke-linecap="round" stroke-miterlimit="10" stroke-width="1.2"/><path d="M524.23,152.69l4.55-4.55" fill="none" stroke="#0090d0" stroke-linecap="round" stroke-miterlimit="10" stroke-width="1.2"/><path d="M501,175.88l18.56-18.55" fill="none" stroke="#0090d0" stroke-linecap="round" stroke-miterlimit="10" stroke-width="1.2"/><path d="M527.38,157.81q2.54-2.67,5.1-5.33" fill="none" stroke="#0090d0" stroke-linecap="round" stroke-miterlimit="10" stroke-width="1.2"/><path d="M510.28,175.36q6-6.16,12-12.28" fill="none" stroke="#0090d0" stroke-linecap="round" stroke-miterlimit="10" stroke-width="1.2"/><path d="M529.73,165.11l3.49-3.5" fill="none" stroke="#0090d0" stroke-linecap="round" stroke-miterlimit="10" stroke-width="1.2"/><path d="M515.62,178.91l7.66-7.45" fill="none" stroke="#0090d0" stroke-linecap="round" stroke-miterlimit="10" stroke-width="1.2"/><path d="M530.9,172.35l5.8-5.79" fill="none" stroke="#0090d0" stroke-linecap="round" stroke-miterlimit="10" stroke-width="1.2"/><path d="M518.49,184.75l5.33-5.32" fill="none" stroke="#0090d0" stroke-linecap="round" stroke-miterlimit="10" stroke-width="1.2"/><path d="M536.12,175.88l6.5-6.39" fill="none" stroke="#0090d0" stroke-linecap="round" stroke-miterlimit="10" stroke-width="1.2"/><path d="M503,209.11q12.55-12.37,24.88-25" fill="none" stroke="#0090d0" stroke-linecap="round" stroke-miterlimit="10" stroke-width="1.2"/><path d="M482.46,229.18l9.39-9.16" fill="none" stroke="#0090d0" stroke-linecap="round" stroke-miterlimit="10" stroke-width="1.2"/><path d="M463.27,247.93q5.82-5.7,11.65-11.39" fill="none" stroke="#0090d0" stroke-linecap="round" stroke-miterlimit="10" stroke-width="1.2"/><path d="M543.71,177.06q3-3.22,6.08-6.42" fill="none" stroke="#0090d0" stroke-linecap="round" stroke-miterlimit="10" stroke-width="1.2"/><path d="M498,223.14q4.66-4.59,9.31-9.2" fill="none" stroke="#0090d0" stroke-linecap="round" stroke-miterlimit="10" stroke-width="1.2"/><path d="M471.7,248.88l11.78-11.5" fill="none" stroke="#0090d0" stroke-linecap="round" stroke-miterlimit="10" stroke-width="1.2"/><path d="M467.95,209l11.81-11.81" fill="none" stroke="#0090d0" stroke-linecap="round" stroke-miterlimit="10" stroke-width="1.2"/><path d="M434.5,242.43l21.65-21.66" fill="none" stroke="#0090d0" stroke-linecap="round" stroke-miterlimit="10" stroke-width="1.2"/><path d="M476.76,208.85l7-7" fill="none" stroke="#0090d0" stroke-linecap="round" stroke-miterlimit="10" stroke-width="1.2"/><path d="M441.43,244q9.16-9.15,18.34-18.27" fill="none" stroke="#0090d0" stroke-linecap="round" stroke-miterlimit="10" stroke-width="1.2"/><path d="M484.56,210q2.84-3,5.65-5.94" fill="none" stroke="#0090d0" stroke-linecap="round" stroke-miterlimit="10" stroke-width="1.2"/><path d="M450.08,244.44q8.15-7.94,16.24-15.95" fill="none" stroke="#0090d0" stroke-linecap="round" stroke-miterlimit="10" stroke-width="1.2"/><path d="M493.62,209.65l14.81-14.85" fill="none" stroke="#0090d0" stroke-linecap="round" stroke-miterlimit="10" stroke-width="1.2"/><path d="M472.28,231l3-3" fill="none" stroke="#0090d0" stroke-linecap="round" stroke-miterlimit="10" stroke-width="1.2"/><path d="M457.57,245.74l10.67-10.67" fill="none" stroke="#0090d0" stroke-linecap="round" stroke-miterlimit="10" stroke-width="1.2"/><path d="M455.94,220c-0.09.62-1.62,0.35-2,.31a3.67,3.67,0,0,1-2.28-1.17c-1.28-1.39-1.23-3.75-.59-5.42a6.09,6.09,0,0,1,3.7-3.7,4.82,4.82,0,0,1,2.72.05,5.39,5.39,0,0,1,1.9,1C455.3,213.13,455.54,216.58,455.94,220Z" fill="#fff" stroke="#0090d0" stroke-linecap="round" stroke-miterlimit="10" stroke-width="2"/><path d="M78.87,193.76c0.68-5.47-1.09-9.48-6-11.61a27.71,27.71,0,0,0,4.8-14.9c11.32-7.5,11.06-22.62,7.2-40.12,4.54-5.5,4.72-11.48.2-18,6.72-4,10-10.26,5.87-21.51,12.51,4.89,17.54,10,16.73,15.34,6.88-3.43,12.12-.89,15.19,2.8-7.86,1-12.29,9.1-11.39,15.55-10.65-1.8-20,19.4-9,27.77-7.2,4.32-19.63,18.72-16.43,38.36Z" fill="#ffd200"/><path d="M223.62,187.35c3.32,21.08-16.27,35.48-27.29,33.38-4.61,3.54-10.23,4.59-16.29,4.58-7.67,6-18.5,7.12-31.1,5.57-4.25,5.61-12.71,10.6-20.19,11a15.59,15.59,0,0,1-5.22-1c-10.15,14.42-23.86,5.27-27.06,1-6,3.67-19,2.67-27.35-2.86,1.43,1.3,14.26-12.05,15.35-24.92,10.2,2.63,19.28-2.55,24-12.94,0.48,14,28.2,16.76,45.6-15.53,5.7,3.9,22.2,3.9,31.2-6.1C192.54,191.69,211.32,193.64,223.62,187.35Z" fill="#ffd200"/><path d="M255,219.43c-0.5,39.4-25.4,63.14-66.44,58.08-13.24-3-24.15-12.54-24.25-29.39" fill="none" stroke="#0090d0" stroke-linecap="round" stroke-miterlimit="10" stroke-width="2.4"/><path d="M154.91,232.13c0.73,11.79,14.71,21.87,25,23.54" fill="none" stroke="#0090d0" stroke-linecap="round" stroke-miterlimit="10" stroke-width="2.4"/><path d="M227.09,167.26c4,9.21,1.58,15.47-2.85,20.83,3.32,21.08-16.27,35.48-27.29,33.38-4.61,3.54-10.23,4.59-16.29,4.58-7.67,6-18.5,7.12-31.1,5.57-4.25,5.61-12.71,10.6-20.19,11a15.59,15.59,0,0,1-5.22-1c-10.15,14.42-23.86,5.27-27.06,1C86.89,248.81,56.92,241.7,63,222c11.28-36.52,51.68-54.52,64.44-40" fill="none" stroke="#0090d0" stroke-linecap="round" stroke-miterlimit="10" stroke-width="2.4"/><path d="M58.09,201.9c-13.72,1.63-21.34-1.77-27-11.08-5.12,1.09-16.9-1-22.39-11.21-13.62-10.67-4.72-46.84,10.69-50,5.35-17.95,21.77-28.54,33.22-26.73,6.87-8,26.39-15.43,38.95-14.52,15-8.5,32.35-11.44,54.64-7.54,27.79-5.26,80.16,11,86.76,29.84,12.07,7.53,24.15,19.13,25.5,33.49,0,0,16.39,12.95,17.15,34,0.25,6.81,7.64,10,.26,27.88S255,219.43,255,219.43c-5.36,1.92-22.94,2.56-30.79-3.77-3.54.47-6.3-.14-8-2.46" fill="none" stroke="#0090d0" stroke-linecap="round" stroke-miterlimit="10" stroke-width="2.4"/><path d="M8.7,179.6c0,14.26,10,26.78,17.4,26.78C34.35,216.87,45.71,223.31,63,222" fill="none" stroke="#0090d0" stroke-linecap="round" stroke-miterlimit="10" stroke-width="2.4"/><line x1="204.98" y1="297.11" x2="188.59" y2="277.51" fill="none" stroke="#0090d0" stroke-linecap="round" stroke-miterlimit="10" stroke-width="2.4"/><path d="M129.37,242.61c3.05,7,14.82,18.3,25.54,15.45,2.44,9.28,22.29,25,35,39" fill="none" stroke="#0090d0" stroke-linecap="round" stroke-miterlimit="10" stroke-width="2.4"/><path d="M123.49,196.07c-0.48-18,26-39.6,40.85-33.2,2.81-7.28,7.29-12.27,14.83-13.08-0.75-9.25,1.44-16.58,6.73-21.91" fill="none" stroke="#0090d0" stroke-linecap="round" stroke-miterlimit="10" stroke-width="2.4"/><path d="M85.49,127.87c3.86,17.49,4.12,32.62-7.2,40.12a27.71,27.71,0,0,1-4.8,14.9c4.91,2.14,6.68,6.14,6,11.61" fill="none" stroke="#0090d0" stroke-linecap="round" stroke-miterlimit="10" stroke-width="2.4"/><path d="M78.61,184.49q9.66-9.87,19.36-19.7" fill="none" stroke="#0090d0" stroke-linecap="round" stroke-miterlimit="10" stroke-width="1.2"/><path d="M64.76,198.5q-10.28,10.71-20.54,21.33" fill="none" stroke="#0090d0" stroke-linecap="round" stroke-miterlimit="10" stroke-width="1.2"/><path d="M115.45,175.69l2.91-2.9" fill="none" stroke="#0090d0" stroke-linecap="round" stroke-miterlimit="10" stroke-width="1.2"/><path d="M62.21,227.35c2-1.95,4-3.91,6.05-5.83" fill="none" stroke="#0090d0" stroke-linecap="round" stroke-miterlimit="10" stroke-width="1.2"/><path d="M122.5,177.37q2.51-2.66,5-5.3" fill="none" stroke="#0090d0" stroke-linecap="round" stroke-miterlimit="10" stroke-width="1.2"/><path d="M71.83,227c-2.44,2.51-4.92,5-7.4,7.5" fill="none" stroke="#0090d0" stroke-linecap="round" stroke-miterlimit="10" stroke-width="1.2"/><path d="M94.24,230.81q-6.68,6.6-13.28,13.34" fill="none" stroke="#0090d0" stroke-linecap="round" stroke-miterlimit="10" stroke-width="1.2"/><path d="M106.86,236l-8.27,8.25" fill="none" stroke="#0090d0" stroke-linecap="round" stroke-miterlimit="10" stroke-width="1.2"/><path d="M126.8,242.35l13.91-13.9" fill="none" stroke="#0090d0" stroke-linecap="round" stroke-miterlimit="10" stroke-width="1.2"/><path d="M164.22,222.48c-9.54,9.69-19,19.14-28.54,28.55" fill="none" stroke="#0090d0" stroke-linecap="round" stroke-miterlimit="10" stroke-width="1.2"/><path d="M88,140.84q1.73-1.63,3.43-3.29" fill="none" stroke="#0090d0" stroke-linecap="round" stroke-miterlimit="10" stroke-width="1.2"/><path d="M39.8,189q-8.71,8.17-17.24,16.52" fill="none" stroke="#0090d0" stroke-linecap="round" stroke-miterlimit="10" stroke-width="1.2"/><path d="M76.47,178.66l19-19.05" fill="none" stroke="#0090d0" stroke-linecap="round" stroke-miterlimit="10" stroke-width="1.2"/><path d="M58.16,197L38.11,217" fill="none" stroke="#0090d0" stroke-linecap="round" stroke-miterlimit="10" stroke-width="1.2"/><path d="M104,177.52l4.15-4.14" fill="none" stroke="#0090d0" stroke-linecap="round" stroke-miterlimit="10" stroke-width="1.2"/><path d="M59.57,222.14q4.47-4.56,8.9-9.15" fill="none" stroke="#0090d0" stroke-linecap="round" stroke-miterlimit="10" stroke-width="1.2"/><path d="M127.17,180.33q9.86-9.43,19.6-19" fill="none" stroke="#0090d0" stroke-linecap="round" stroke-miterlimit="10" stroke-width="1.2"/><path d="M76.47,231.06c-2.67,2.59-5.31,5.2-8,7.79" fill="none" stroke="#0090d0" stroke-linecap="round" stroke-miterlimit="10" stroke-width="1.2"/><path d="M154.83,161.74q5.57-5.39,11.13-10.81" fill="none" stroke="#0090d0" stroke-linecap="round" stroke-miterlimit="10" stroke-width="1.2"/><path d="M84.19,232.3Q78.93,237,73.82,242" fill="none" stroke="#0090d0" stroke-linecap="round" stroke-miterlimit="10" stroke-width="1.2"/><path d="M99.94,234.17c-3.49,3.52-7,7-10.48,10.53" fill="none" stroke="#0090d0" stroke-linecap="round" stroke-miterlimit="10" stroke-width="1.2"/><path d="M115.58,236.14Q109.84,242,104,247.8" fill="none" stroke="#0090d0" stroke-linecap="round" stroke-miterlimit="10" stroke-width="1.2"/><path d="M236.06,229.57q12.21-12.32,24.47-24.59" fill="none" stroke="#0090d0" stroke-linecap="round" stroke-miterlimit="10" stroke-width="1.2"/><path d="M215.52,250.12c-12.35,12-24.21,24.27-36.09,36.28" fill="none" stroke="#0090d0" stroke-linecap="round" stroke-miterlimit="10" stroke-width="1.2"/><path d="M244.92,202.89q-11.11,11.2-22.15,22.45" fill="none" stroke="#0090d0" stroke-linecap="round" stroke-miterlimit="10" stroke-width="1.2"/><path d="M204,244.09c-10.68,11.46-22.27,22.35-33.76,33.38" fill="none" stroke="#0090d0" stroke-linecap="round" stroke-miterlimit="10" stroke-width="1.2"/><path d="M224.74,197l6.41-6.4" fill="none" stroke="#0090d0" stroke-linecap="round" stroke-miterlimit="10" stroke-width="1.2"/><path d="M209.72,212.07c-17.92,16.68-35.05,34-52.07,51.39" fill="none" stroke="#0090d0" stroke-linecap="round" stroke-miterlimit="10" stroke-width="1.2"/><line x1="245.25" y1="255.46" x2="231.08" y2="269.64" fill="none" stroke="#0090d0" stroke-linecap="round" stroke-miterlimit="10" stroke-width="1.2"/><line x1="203.61" y1="297.11" x2="204.35" y2="296.36" fill="none" stroke="#0090d0" stroke-linecap="round" stroke-miterlimit="10" stroke-width="1.2"/><path d="M273.86,200q-16.21,16.17-32.1,32.64" fill="none" stroke="#0090d0" stroke-linecap="round" stroke-miterlimit="10" stroke-width="1.2"/><path d="M196.51,278.14q13.09-13.1,26-26.23" fill="none" stroke="#0090d0" stroke-linecap="round" stroke-miterlimit="10" stroke-width="1.2"/><path d="M183.84,290.76l8.63-8.6" fill="none" stroke="#0090d0" stroke-linecap="round" stroke-miterlimit="10" stroke-width="1.2"/><path d="M214.56,224.76q12.69-12.24,25.23-24.65" fill="none" stroke="#0090d0" stroke-linecap="round" stroke-miterlimit="10" stroke-width="1.2"/><path d="M199.54,239.79c-11.9,10.39-23,21.65-33.91,33" fill="none" stroke="#0090d0" stroke-linecap="round" stroke-miterlimit="10" stroke-width="1.2"/><path d="M252.26,239.67c-2.17,2.18-4.35,4.35-6.52,6.53" fill="none" stroke="#0090d0" stroke-linecap="round" stroke-miterlimit="10" stroke-width="1.2"/><path d="M195.84,297.11q2.55-2.43,5-4.91" fill="none" stroke="#0090d0" stroke-linecap="round" stroke-miterlimit="10" stroke-width="1.2"/><path d="M241.32,250.63c-8.93,8.21-17,16.86-25,25.44" fill="none" stroke="#0090d0" stroke-linecap="round" stroke-miterlimit="10" stroke-width="1.2"/><path d="M188.39,215.85c-14,13.89-27.71,28-41.41,42" fill="none" stroke="#0090d0" stroke-linecap="round" stroke-miterlimit="10" stroke-width="1.2"/><path d="M128.8,231.53c-6,5.84-12,11.82-18,17.87" fill="none" stroke="#0090d0" stroke-linecap="round" stroke-miterlimit="10" stroke-width="1.2"/><path d="M205.22,225.33q14.88-14.95,29.89-29.77" fill="none" stroke="#0090d0" stroke-linecap="round" stroke-miterlimit="10" stroke-width="1.2"/><path d="M161.76,268.64q17.39-17.39,35-34.88" fill="none" stroke="#0090d0" stroke-linecap="round" stroke-miterlimit="10" stroke-width="1.2"/><path d="M175.29,220.19C164,232,152.35,243.54,140.7,255" fill="none" stroke="#0090d0" stroke-linecap="round" stroke-miterlimit="10" stroke-width="1.2"/><path d="M198,215c-13.89,14.71-28.48,28.92-43.11,43.12" fill="none" stroke="#0090d0" stroke-linecap="round" stroke-miterlimit="10" stroke-width="1.2"/><path d="M156.31,221.62q-12.46,12.28-24.75,24.73" fill="none" stroke="#0090d0" stroke-linecap="round" stroke-miterlimit="10" stroke-width="1.2"/><path d="M274.6,208.68l-10.11,10.08" fill="none" stroke="#0090d0" stroke-linecap="round" stroke-miterlimit="10" stroke-width="1.2"/><path d="M254.41,228.8c-2.85,2.85-5.72,5.69-8.57,8.54" fill="none" stroke="#0090d0" stroke-linecap="round" stroke-miterlimit="10" stroke-width="1.2"/><path d="M205.2,277.94l25.3-25.27" fill="none" stroke="#0090d0" stroke-linecap="round" stroke-miterlimit="10" stroke-width="1.2"/><path d="M188.05,295.11l8.3-8.31" fill="none" stroke="#0090d0" stroke-linecap="round" stroke-miterlimit="10" stroke-width="1.2"/><path d="M251.93,204.89l-21.81,21.86" fill="none" stroke="#0090d0" stroke-linecap="round" stroke-miterlimit="10" stroke-width="1.2"/><path d="M209.35,247.52c-11.23,11.86-22.53,23.41-34.08,34.84" fill="none" stroke="#0090d0" stroke-linecap="round" stroke-miterlimit="10" stroke-width="1.2"/><path d="M3.73,172.48l3.54-3.54" fill="none" stroke="#0090d0" stroke-linecap="round" stroke-miterlimit="10" stroke-width="1.2"/><path d="M3.46,164l-1.31,1.31" fill="none" stroke="#0090d0" stroke-linecap="round" stroke-miterlimit="10" stroke-width="1.2"/><path d="M21.8,180.73c-3.65,3.53-7.26,7.06-10.88,10.6" fill="none" stroke="#0090d0" stroke-linecap="round" stroke-miterlimit="10" stroke-width="1.2"/><path d="M33.71,186.36q-7.76,8.06-15.62,16.07" fill="none" stroke="#0090d0" stroke-linecap="round" stroke-miterlimit="10" stroke-width="1.2"/><path d="M78.66,167.79q7.32-7.31,14.6-14.65" fill="none" stroke="#0090d0" stroke-linecap="round" stroke-miterlimit="10" stroke-width="1.2"/><path d="M50.81,195.41q-9,8.87-18.11,17.83" fill="none" stroke="#0090d0" stroke-linecap="round" stroke-miterlimit="10" stroke-width="1.2"/><path d="M79.21,192.93q10.63-10.69,21.23-21.42" fill="none" stroke="#0090d0" stroke-linecap="round" stroke-miterlimit="10" stroke-width="1.2"/><path d="M71.66,200.51q-10.49,10.45-20.86,21" fill="none" stroke="#0090d0" stroke-linecap="round" stroke-miterlimit="10" stroke-width="1.2"/><path d="M2.36,156.31l0.11-.11" fill="none" stroke="#0090d0" stroke-linecap="round" stroke-miterlimit="10" stroke-width="1.2"/><path d="M10.76,174.23L7,178" fill="none" stroke="#0090d0" stroke-linecap="round" stroke-miterlimit="10" stroke-width="1.2"/><path d="M15.69,178.06l-6.58,6.58" fill="none" stroke="#0090d0" stroke-linecap="round" stroke-miterlimit="10" stroke-width="1.2"/><path d="M28.2,183.1c-5.15,4.46-10,9-14.61,13.67" fill="none" stroke="#0090d0" stroke-linecap="round" stroke-miterlimit="10" stroke-width="1.2"/><path d="M86.79,150.82q2.61-2.4,5.18-4.84" fill="none" stroke="#0090d0" stroke-linecap="round" stroke-miterlimit="10" stroke-width="1.2"/><path d="M45.64,191.9q-8.78,8.42-17.37,17" fill="none" stroke="#0090d0" stroke-linecap="round" stroke-miterlimit="10" stroke-width="1.2"/><path d="M468.14,240.23c-10.79,9.13-19.78,20.42-22.67,39" fill="none" stroke="#fff" stroke-miterlimit="10" stroke-width="6"/><polygon points="476.23 233.39 460.89 238.37 467.54 240.74 468.77 247.68 476.23 233.39" fill="#fff"/><text transform="translate(0 22.64)" font-size="22" fill="#e12900" font-family="Open Sans">P<tspan x="12.95" y="0">r</tspan><tspan x="21.65" y="0">e</tspan><tspan x="33.84" y="0">m</tspan><tspan x="54.15" y="0">o</tspan><tspan x="67.18" y="0">t</tspan><tspan x="74.66" y="0">o</tspan><tspan x="87.78" y="0">r </tspan><tspan x="102.48" y="0">a</tspan><tspan x="114.52" y="0">r</tspan><tspan x="123.22" y="0">e</tspan><tspan x="135.35" y="0">a</tspan><tspan x="147.08" y="0">: </tspan><tspan x="158.65" y="0">i</tspan><tspan x="163.96" y="0">n</tspan><tspan x="177.35" y="0">f</tspan><tspan x="184.61" y="0">o </tspan><tspan x="0" y="26.4">a</tspan><tspan x="12.04" y="26.4">b</tspan><tspan x="25.45" y="26.4">o</tspan><tspan x="38.6" y="26.4">u</tspan><tspan x="52.14" y="26.4">t </tspan><tspan x="65.62" y="26.4">“</tspan><tspan x="74.05" y="26.4">f</tspan><tspan x="81.66" y="26.4">u</tspan><tspan x="94.91" y="26.4">n</tspan><tspan x="108.27" y="26.4">c</tspan><tspan x="119.38" y="26.4">t</tspan><tspan x="127.14" y="26.4">i</tspan><tspan x="132.47" y="26.4">o</tspan><tspan x="145.59" y="26.4">n</tspan><tspan x="159.33" y="26.4">”</tspan></text><text transform="translate(429.77 62.67)" font-size="22" fill="#e12900" font-family="Open Sans">I N T E R I O R</text><text transform="translate(0 300.27)" font-size="22" fill="#e12900" font-family="Open Sans">L<tspan x="11.25" y="0">e</tspan><tspan x="23.55" y="0">f</tspan><tspan x="31.88" y="0">t </tspan><tspan x="45.36" y="0">i</tspan><tspan x="50.68" y="0">n</tspan><tspan x="64.06" y="0">f</tspan><tspan x="71.32" y="0">e</tspan><tspan x="83.5" y="0">r</tspan><tspan x="92.55" y="0">i</tspan><tspan x="97.88" y="0">o</tspan><tspan x="111" y="0">r </tspan><tspan x="0" y="26.4">l</tspan><tspan x="5.3" y="26.4">a</tspan><tspan x="17.46" y="26.4">t</tspan><tspan x="24.95" y="26.4">e</tspan><tspan x="37.14" y="26.4">r</tspan><tspan x="45.91" y="26.4">a</tspan><tspan x="57.95" y="26.4">l </tspan><tspan x="69.23" y="26.4">t</tspan><tspan x="76.72" y="26.4">e</tspan><tspan x="88.91" y="26.4">m</tspan><tspan x="109.17" y="26.4">p</tspan><tspan x="122.58" y="26.4">o</tspan><tspan x="135.7" y="26.4">r</tspan><tspan x="144.47" y="26.4">a</tspan><tspan x="156.51" y="26.4">l </tspan><tspan x="0" y="52.8">l</tspan><tspan x="5.41" y="52.8">o</tspan><tspan x="18.53" y="52.8">b</tspan><tspan x="31.94" y="52.8">e</tspan><tspan x="43.84" y="52.8">: </tspan><tspan x="55.41" y="52.8">i</tspan><tspan x="60.72" y="52.8">n</tspan><tspan x="74.11" y="52.8">f</tspan><tspan x="81.37" y="52.8">o </tspan><tspan x="100.38" y="52.8">a</tspan><tspan x="112.42" y="52.8">b</tspan><tspan x="125.83" y="52.8">o</tspan><tspan x="138.97" y="52.8">u</tspan><tspan x="152.52" y="52.8">t </tspan><tspan x="166" y="52.8">“</tspan><tspan x="174.42" y="52.8">f</tspan><tspan x="181.69" y="52.8">o</tspan><tspan x="194.81" y="52.8">r</tspan><tspan x="203.86" y="52.8">m</tspan><tspan x="224.56" y="52.8">”</tspan></text><text transform="translate(329.19 300.27)" font-size="22" fill="#e12900" font-family="Open Sans">P<tspan x="12.72" y="0">a</tspan><tspan x="24.76" y="0">r</tspan><tspan x="33.54" y="0">a</tspan><tspan x="45.58" y="0">h</tspan><tspan x="58.85" y="0">i</tspan><tspan x="64.17" y="0">p</tspan><tspan x="77.5" y="0">p</tspan><tspan x="90.91" y="0">o</tspan><tspan x="104.11" y="0">c</tspan><tspan x="114.74" y="0">a</tspan><tspan x="126.78" y="0">m</tspan><tspan x="147.04" y="0">p</tspan><tspan x="160.39" y="0">u</tspan><tspan x="173.7" y="0">s</tspan></text><path d="M91.42,252.49c-6.44,8.81-9.78,17.72-10.63,26.73" fill="none" stroke="#e12900" stroke-miterlimit="10" stroke-width="2"/><polygon points="95.58 246.79 86.43 252.43 91.1 252.92 92.99 257.22 95.58 246.79" fill="#e12900"/><path d="M468.14,240.23c-10.79,9.13-19.78,20.42-22.67,39" fill="none" stroke="#e12900" stroke-miterlimit="10" stroke-width="2"/><polygon points="473.53 235.67 463.31 238.99 467.74 240.57 468.56 245.2 473.53 235.67" fill="#e12900"/><path d="M84.27,79.37C77.37,75,72.91,65.61,69.92,54.74" fill="none" stroke="#e12900" stroke-miterlimit="10" stroke-width="2"/><polygon points="90.24 83.14 84 74.39 83.82 79.08 79.66 81.26 90.24 83.14" fill="#e12900"/></svg>