<svg id="Layer_1" data-name="Layer 1" xmlns="http://www.w3.org/2000/svg" viewBox="0 0 640 248.06"><title>brains</title><rect x="0.38" y="-0.29" width="640" height="248" fill="#fff"/><path d="M307.22,125.6a10.85,10.85,0,0,1-2.21,1.3c-4.77,2-10.8-1.44-12.08-6.46-2.43-9.59,9.67-16.48,17.12-18.79,5.93-1.84,13.35-5.07,18.32.69a10.61,10.61,0,0,1,.07,13.32c-3.24,3.85-6.57,2.38-10.64,3.5C313.36,120.38,311,122.8,307.22,125.6Z" fill="#ff7d89"/><path d="M425.58,118.48C431,117.2,437,103.9,430.5,96.18c5.07,0.49,11.76-6.4,12-10v0a43.05,43.05,0,0,1,3.71,15.86c0.25,6.81,7.64,10,.26,27.88s-20.85,13.48-20.85,13.48C432.4,137.19,434.28,123.29,425.58,118.48Z" fill="#ff754e"/><path d="M272.19,103.58c-5-4.07-3.3-13.39,1.51-20.05,3.06-4.24,7.35-7.4,11.94-7.47,0-9.23.31-18.22,8.39-20.47-0.09-9.66,2.1-18,12.47-21.77,0.88-12.56,11.79-21.59,24.14-21.51,0.19-3-1.14-6.29-8.37-8.28l15,0.45c7.5,2.07,10.11,8.63,10.74,12.22-4.55-.21-8.88,3-8.94,7.55-8.5-2.29-19.12,4.35-19.12,13.49-14,3.69-13.45,20.38-10,33,1.87,6.78,6.38,17.52.91,22C305,97.38,303.24,98.26,298,106,298.69,101.79,281.64,98.94,272.19,103.58Z" fill="#ff7d89"/><path d="M298,106a36.65,36.65,0,0,0-7.09-4.3c-1.55-.73-1.56-12.47,8.82-16.35a26.9,26.9,0,0,0,12-8.77c1.42,3.22,2.65,12.57,1.22,14.68,0,0-2.75,2.24-4,3.39C307,96.36,305,98,303.08,99.7,302.34,100.33,296.47,104.64,298,106Z" fill="#ff5363"/><path d="M292.47,110.78a45.18,45.18,0,0,1-14.89,1.28c-8.8-.49-11.81-5.25-2.76-8.9a28.77,28.77,0,0,1,18.25-1.12c6.86,1.84,5.34,7-.06,8.57Z" fill="#e12900"/><path d="M243.92,142.09a13.42,13.42,0,0,1-.78,2c-2.61,5.21-11,4.12-8.52-2.57a68.8,68.8,0,0,1,11.46-19.35,64.36,64.36,0,0,1,9.08-8.8c2.31-1.84,5.84-5.54,9-5.64,1.77-.06,3.66,1.61,3.1,3.29-0.9,2.74-4,3.7-6.11,5.24a56.14,56.14,0,0,0-6.7,5.81,37.8,37.8,0,0,0-9.57,16.62C244.53,139.81,244.27,141,243.92,142.09Z" fill="#ff754e"/><path d="M279.13,101.57l-6.94,2c-6.88-3.74-2.33-18.65,5.09-24,1-.72,4.35-0.15,5.44,4.44C283.55,87.6,282.3,96.76,279.13,101.57Z" fill="#ff5363"/><path d="M290.91,101.68a1.83,1.83,0,0,1-.63-1.32" fill="none" stroke="#fff" stroke-miterlimit="10"/><path d="M290.18,98.34a14.6,14.6,0,0,1,9.55-13,27.8,27.8,0,0,0,10.33-6.85" fill="none" stroke="#fff" stroke-miterlimit="10" stroke-dasharray="3.06 2.04"/><path d="M310.75,77.73a14.87,14.87,0,0,0,.94-1.17" fill="none" stroke="#fff" stroke-miterlimit="10"/><path d="M277.28,79.61a2,2,0,0,1,1.45-.22" fill="none" stroke="#fff" stroke-miterlimit="10"/><path d="M280.6,80.28A6.76,6.76,0,0,1,282.71,84c0.72,3.06-.11,10.26-2.36,15.27" fill="none" stroke="#fff" stroke-miterlimit="10" stroke-dasharray="3.16 2.11"/><path d="M279.89,100.27a14.62,14.62,0,0,1-.76,1.3" fill="none" stroke="#fff" stroke-miterlimit="10"/><path d="M425.58,143.41c-0.5,39.4-25.4,63.14-66.44,58.08-13.24-3-24.15-12.54-24.25-29.39" fill="none" stroke="#0090d0" stroke-linecap="round" stroke-miterlimit="10" stroke-width="2.4"/><path d="M325.46,156.11c0.73,11.79,14.71,21.87,25,23.54" fill="none" stroke="#0090d0" stroke-linecap="round" stroke-miterlimit="10" stroke-width="2.4"/><path d="M397.64,91.25c4,9.21,1.58,15.47-2.85,20.83,3.32,21.08-16.27,35.48-27.29,33.38C362.9,149,357.27,150,351.21,150c-7.67,6-18.5,7.12-31.1,5.57-4.25,5.61-12.71,10.6-20.19,11a15.59,15.59,0,0,1-5.22-1c-10.15,14.42-23.86,5.27-27.06,1-10.2,6.2-40.17-.91-34.08-20.62,11.28-36.52,51.68-54.52,64.44-40" fill="none" stroke="#0090d0" stroke-linecap="round" stroke-miterlimit="10" stroke-width="2.4"/><path d="M228.64,125.88c-13.72,1.63-21.34-1.77-27-11.08-5.12,1.09-16.9-1-22.39-11.21-13.62-10.67-4.72-46.84,10.69-50,5.35-17.95,21.77-28.54,33.22-26.73,6.87-8,26.39-15.43,38.95-14.52,15-8.5,32.35-11.44,54.64-7.54,27.79-5.26,80.16,11,86.76,29.84,12.07,7.53,24.15,19.13,25.5,33.49,0,0,16.39,12.95,17.15,34,0.25,6.81,7.64,10,.26,27.88s-20.85,13.48-20.85,13.48c-5.36,1.92-22.94,2.56-30.79-3.77-3.54.47-6.3-.14-8-2.46" fill="none" stroke="#0090d0" stroke-linecap="round" stroke-miterlimit="10" stroke-width="2.4"/><path d="M179.25,103.58c0,14.26,10,26.78,17.4,26.78,8.25,10.49,19.61,16.92,36.91,15.6" fill="none" stroke="#0090d0" stroke-linecap="round" stroke-miterlimit="10" stroke-width="2.4"/><line x1="375.53" y1="221.09" x2="359.14" y2="201.49" fill="none" stroke="#0090d0" stroke-linecap="round" stroke-miterlimit="10" stroke-width="2.4"/><path d="M299.92,166.59c3.05,7,14.82,18.3,25.54,15.45,2.44,9.28,22.29,25,35,39" fill="none" stroke="#0090d0" stroke-linecap="round" stroke-miterlimit="10" stroke-width="2.4"/><path d="M294,120c-0.48-18,26-39.6,40.85-33.2,2.81-7.28,7.29-12.27,14.83-13.08-0.75-9.25,1.44-16.58,6.73-21.91" fill="none" stroke="#0090d0" stroke-linecap="round" stroke-miterlimit="10" stroke-width="2.4"/><path d="M256,51.85c3.86,17.49,4.12,32.62-7.2,40.12a27.71,27.71,0,0,1-4.8,14.9c4.91,2.14,6.68,6.14,6,11.61" fill="none" stroke="#0090d0" stroke-linecap="round" stroke-miterlimit="10" stroke-width="2.4"/><path d="M249.16,108.47q9.66-9.87,19.36-19.7" fill="none" stroke="#0090d0" stroke-linecap="round" stroke-miterlimit="10" stroke-width="1.2"/><path d="M235.31,122.48Q225,133.2,214.77,143.82" fill="none" stroke="#0090d0" stroke-linecap="round" stroke-miterlimit="10" stroke-width="1.2"/><path d="M286,99.67l2.91-2.9" fill="none" stroke="#0090d0" stroke-linecap="round" stroke-miterlimit="10" stroke-width="1.2"/><path d="M232.76,151.34c2-1.95,4-3.91,6.05-5.83" fill="none" stroke="#0090d0" stroke-linecap="round" stroke-miterlimit="10" stroke-width="1.2"/><path d="M293,101.35q2.51-2.66,5-5.3" fill="none" stroke="#0090d0" stroke-linecap="round" stroke-miterlimit="10" stroke-width="1.2"/><path d="M242.38,151c-2.44,2.51-4.92,5-7.4,7.5" fill="none" stroke="#0090d0" stroke-linecap="round" stroke-miterlimit="10" stroke-width="1.2"/><path d="M264.79,154.8q-6.68,6.6-13.27,13.34" fill="none" stroke="#0090d0" stroke-linecap="round" stroke-miterlimit="10" stroke-width="1.2"/><path d="M277.41,160l-8.27,8.25" fill="none" stroke="#0090d0" stroke-linecap="round" stroke-miterlimit="10" stroke-width="1.2"/><path d="M297.35,166.33l13.91-13.9" fill="none" stroke="#0090d0" stroke-linecap="round" stroke-miterlimit="10" stroke-width="1.2"/><path d="M334.77,146.46c-9.54,9.69-19,19.14-28.54,28.55" fill="none" stroke="#0090d0" stroke-linecap="round" stroke-miterlimit="10" stroke-width="1.2"/><path d="M258.54,64.82q1.73-1.63,3.43-3.29" fill="none" stroke="#0090d0" stroke-linecap="round" stroke-miterlimit="10" stroke-width="1.2"/><path d="M210.35,113q-8.71,8.17-17.24,16.52" fill="none" stroke="#0090d0" stroke-linecap="round" stroke-miterlimit="10" stroke-width="1.2"/><path d="M247,102.65l19-19.05" fill="none" stroke="#0090d0" stroke-linecap="round" stroke-miterlimit="10" stroke-width="1.2"/><path d="M228.71,121L208.66,141" fill="none" stroke="#0090d0" stroke-linecap="round" stroke-miterlimit="10" stroke-width="1.2"/><path d="M274.52,101.5l4.15-4.14" fill="none" stroke="#0090d0" stroke-linecap="round" stroke-miterlimit="10" stroke-width="1.2"/><path d="M230.13,146.12q4.47-4.56,8.9-9.15" fill="none" stroke="#0090d0" stroke-linecap="round" stroke-miterlimit="10" stroke-width="1.2"/><path d="M297.72,104.31q9.86-9.43,19.6-19" fill="none" stroke="#0090d0" stroke-linecap="round" stroke-miterlimit="10" stroke-width="1.2"/><path d="M247,155c-2.67,2.59-5.31,5.2-8,7.79" fill="none" stroke="#0090d0" stroke-linecap="round" stroke-miterlimit="10" stroke-width="1.2"/><path d="M325.38,85.72Q331,80.33,336.5,74.91" fill="none" stroke="#0090d0" stroke-linecap="round" stroke-miterlimit="10" stroke-width="1.2"/><path d="M254.74,156.28q-5.27,4.75-10.37,9.65" fill="none" stroke="#0090d0" stroke-linecap="round" stroke-miterlimit="10" stroke-width="1.2"/><path d="M270.49,158.15c-3.49,3.52-7,7-10.48,10.53" fill="none" stroke="#0090d0" stroke-linecap="round" stroke-miterlimit="10" stroke-width="1.2"/><path d="M286.13,160.12q-5.74,5.86-11.54,11.66" fill="none" stroke="#0090d0" stroke-linecap="round" stroke-miterlimit="10" stroke-width="1.2"/><path d="M406.62,153.55q12.21-12.32,24.47-24.59" fill="none" stroke="#0090d0" stroke-linecap="round" stroke-miterlimit="10" stroke-width="1.2"/><path d="M386.07,174.1c-12.35,12-24.21,24.27-36.09,36.28" fill="none" stroke="#0090d0" stroke-linecap="round" stroke-miterlimit="10" stroke-width="1.2"/><path d="M415.47,126.87q-11.11,11.2-22.15,22.45" fill="none" stroke="#0090d0" stroke-linecap="round" stroke-miterlimit="10" stroke-width="1.2"/><path d="M374.56,168.07c-10.68,11.46-22.27,22.35-33.76,33.38" fill="none" stroke="#0090d0" stroke-linecap="round" stroke-miterlimit="10" stroke-width="1.2"/><path d="M395.29,121l6.41-6.4" fill="none" stroke="#0090d0" stroke-linecap="round" stroke-miterlimit="10" stroke-width="1.2"/><path d="M380.27,136c-17.92,16.68-35.05,34-52.07,51.39" fill="none" stroke="#0090d0" stroke-linecap="round" stroke-miterlimit="10" stroke-width="1.2"/><line x1="415.8" y1="179.45" x2="401.63" y2="193.62" fill="none" stroke="#0090d0" stroke-linecap="round" stroke-miterlimit="10" stroke-width="1.2"/><line x1="374.16" y1="221.09" x2="374.9" y2="220.35" fill="none" stroke="#0090d0" stroke-linecap="round" stroke-miterlimit="10" stroke-width="1.2"/><path d="M444.42,124q-16.21,16.17-32.1,32.64" fill="none" stroke="#0090d0" stroke-linecap="round" stroke-miterlimit="10" stroke-width="1.2"/><path d="M367.06,202.12q13.09-13.1,26-26.23" fill="none" stroke="#0090d0" stroke-linecap="round" stroke-miterlimit="10" stroke-width="1.2"/><path d="M354.39,214.74l8.63-8.6" fill="none" stroke="#0090d0" stroke-linecap="round" stroke-miterlimit="10" stroke-width="1.2"/><path d="M385.11,148.75q12.69-12.24,25.23-24.65" fill="none" stroke="#0090d0" stroke-linecap="round" stroke-miterlimit="10" stroke-width="1.2"/><path d="M370.09,163.77c-11.9,10.39-23,21.65-33.91,33" fill="none" stroke="#0090d0" stroke-linecap="round" stroke-miterlimit="10" stroke-width="1.2"/><path d="M422.82,163.65c-2.17,2.18-4.35,4.35-6.52,6.53" fill="none" stroke="#0090d0" stroke-linecap="round" stroke-miterlimit="10" stroke-width="1.2"/><path d="M366.39,221.09q2.55-2.43,5-4.91" fill="none" stroke="#0090d0" stroke-linecap="round" stroke-miterlimit="10" stroke-width="1.2"/><path d="M411.87,174.61c-8.93,8.21-17,16.86-25,25.44" fill="none" stroke="#0090d0" stroke-linecap="round" stroke-miterlimit="10" stroke-width="1.2"/><path d="M358.94,139.83c-14,13.89-27.71,28-41.41,42" fill="none" stroke="#0090d0" stroke-linecap="round" stroke-miterlimit="10" stroke-width="1.2"/><path d="M299.35,155.51c-6,5.84-12,11.82-18,17.87" fill="none" stroke="#0090d0" stroke-linecap="round" stroke-miterlimit="10" stroke-width="1.2"/><path d="M375.77,149.31q14.88-14.95,29.89-29.77" fill="none" stroke="#0090d0" stroke-linecap="round" stroke-miterlimit="10" stroke-width="1.2"/><path d="M332.31,192.62q17.39-17.39,35-34.88" fill="none" stroke="#0090d0" stroke-linecap="round" stroke-miterlimit="10" stroke-width="1.2"/><path d="M345.84,144.17C334.52,156,322.9,167.53,311.25,179" fill="none" stroke="#0090d0" stroke-linecap="round" stroke-miterlimit="10" stroke-width="1.2"/><path d="M368.58,139c-13.89,14.71-28.48,28.92-43.11,43.12" fill="none" stroke="#0090d0" stroke-linecap="round" stroke-miterlimit="10" stroke-width="1.2"/><path d="M326.86,145.6q-12.46,12.28-24.75,24.73" fill="none" stroke="#0090d0" stroke-linecap="round" stroke-miterlimit="10" stroke-width="1.2"/><path d="M445.15,132.66L435,142.74" fill="none" stroke="#0090d0" stroke-linecap="round" stroke-miterlimit="10" stroke-width="1.2"/><path d="M425,152.78c-2.85,2.85-5.72,5.69-8.57,8.54" fill="none" stroke="#0090d0" stroke-linecap="round" stroke-miterlimit="10" stroke-width="1.2"/><path d="M375.75,201.92l25.3-25.27" fill="none" stroke="#0090d0" stroke-linecap="round" stroke-miterlimit="10" stroke-width="1.2"/><path d="M358.6,219.09l8.3-8.31" fill="none" stroke="#0090d0" stroke-linecap="round" stroke-miterlimit="10" stroke-width="1.2"/><path d="M422.48,128.87l-21.81,21.86" fill="none" stroke="#0090d0" stroke-linecap="round" stroke-miterlimit="10" stroke-width="1.2"/><path d="M379.9,171.5c-11.23,11.86-22.53,23.41-34.08,34.84" fill="none" stroke="#0090d0" stroke-linecap="round" stroke-miterlimit="10" stroke-width="1.2"/><path d="M174.28,96.46l3.54-3.54" fill="none" stroke="#0090d0" stroke-linecap="round" stroke-miterlimit="10" stroke-width="1.2"/><path d="M174,88l-1.31,1.31" fill="none" stroke="#0090d0" stroke-linecap="round" stroke-miterlimit="10" stroke-width="1.2"/><path d="M192.35,104.71c-3.65,3.53-7.26,7.06-10.88,10.6" fill="none" stroke="#0090d0" stroke-linecap="round" stroke-miterlimit="10" stroke-width="1.2"/><path d="M204.26,110.34q-7.76,8.06-15.62,16.07" fill="none" stroke="#0090d0" stroke-linecap="round" stroke-miterlimit="10" stroke-width="1.2"/><path d="M249.21,91.77q7.32-7.31,14.6-14.65" fill="none" stroke="#0090d0" stroke-linecap="round" stroke-miterlimit="10" stroke-width="1.2"/><path d="M221.36,119.39q-9,8.87-18.11,17.83" fill="none" stroke="#0090d0" stroke-linecap="round" stroke-miterlimit="10" stroke-width="1.2"/><path d="M249.76,116.91Q260.4,106.22,271,95.49" fill="none" stroke="#0090d0" stroke-linecap="round" stroke-miterlimit="10" stroke-width="1.2"/><path d="M242.21,124.49q-10.49,10.45-20.86,21" fill="none" stroke="#0090d0" stroke-linecap="round" stroke-miterlimit="10" stroke-width="1.2"/><path d="M172.91,80.29l0.11-.11" fill="none" stroke="#0090d0" stroke-linecap="round" stroke-miterlimit="10" stroke-width="1.2"/><path d="M181.31,98.21l-3.77,3.74" fill="none" stroke="#0090d0" stroke-linecap="round" stroke-miterlimit="10" stroke-width="1.2"/><path d="M186.24,102l-6.58,6.58" fill="none" stroke="#0090d0" stroke-linecap="round" stroke-miterlimit="10" stroke-width="1.2"/><path d="M198.75,107.08c-5.15,4.46-10,9-14.61,13.67" fill="none" stroke="#0090d0" stroke-linecap="round" stroke-miterlimit="10" stroke-width="1.2"/><path d="M257.34,74.8q2.61-2.4,5.18-4.84" fill="none" stroke="#0090d0" stroke-linecap="round" stroke-miterlimit="10" stroke-width="1.2"/><path d="M216.19,115.88q-8.78,8.42-17.37,17" fill="none" stroke="#0090d0" stroke-linecap="round" stroke-miterlimit="10" stroke-width="1.2"/><path d="M266.07,78.59C236.24,50.48,197.7,30.71,162.94,25" fill="none" stroke="#fff" stroke-miterlimit="10" stroke-width="6"/><polygon points="273.78 85.85 267.1 71.18 265.5 78.05 258.74 80.06 273.78 85.85" fill="#fff"/><path d="M276.15,120c-18.59,24.58-25.86,44.38-29.12,62.48" fill="none" stroke="#fff" stroke-miterlimit="10" stroke-width="6"/><polygon points="282.54 111.6 268.67 119.82 275.67 120.68 278.4 127.18 282.54 111.6" fill="#fff"/><path d="M328.2,125.22c48.27,16.16,86.78,38,121.5,62.12" fill="none" stroke="#fff" stroke-miterlimit="10" stroke-width="6"/><polygon points="318.15 121.85 330.37 132.37 328.95 125.47 334.24 120.81 318.15 121.85" fill="#fff"/><path d="M319.14,54.91C347.36,39.75,387.38,27,426.58,23" fill="none" stroke="#fff" stroke-miterlimit="10" stroke-width="6"/><polygon points="309.81 59.92 325.84 58.23 319.84 54.54 320.07 47.49 309.81 59.92" fill="#fff"/><path d="M324.24,92.8C371.7,97.19,416.6,90,461.75,80.32" fill="none" stroke="#fff" stroke-miterlimit="10" stroke-width="6"/><polygon points="313.69 91.83 327.99 99.28 325.02 92.88 329.11 87.13 313.69 91.83" fill="#fff"/><text transform="translate(0.84 18.77)" font-size="22" fill="#e12900" font-family="Open Sans">V<tspan x="12.25" y="0">e</tspan><tspan x="24.55" y="0">s</tspan><tspan x="35.41" y="0">t</tspan><tspan x="43.17" y="0">i</tspan><tspan x="48.49" y="0">b</tspan><tspan x="61.84" y="0">ul</tspan><tspan x="80.39" y="0">a</tspan><tspan x="92.44" y="0">r </tspan><tspan x="107.13" y="0">(</tspan><tspan x="113.59" y="0">b</tspan><tspan x="127.03" y="0">a</tspan><tspan x="139.07" y="0">l</tspan><tspan x="144.38" y="0">a</tspan><tspan x="156.42" y="0">n</tspan><tspan x="169.78" y="0">c</tspan><tspan x="179.9" y="0">e</tspan><tspan x="191.35" y="0">)</tspan></text><text transform="translate(44.33 140.86)" font-size="22" fill="#e12900" font-family="Open Sans">[<tspan x="7.24" y="0">b</tspan><tspan x="20.65" y="0">e</tspan><tspan x="32.84" y="0">h</tspan><tspan x="46.11" y="0">i</tspan><tspan x="51.43" y="0">n</tspan><tspan x="64.82" y="0">d</tspan><tspan x="78.3" y="0">]</tspan><tspan x="-40.49" y="26.4">O</tspan><tspan x="-23.4" y="26.4">l</tspan><tspan x="-17.78" y="26.4">f</tspan><tspan x="-10.45" y="26.4">a</tspan><tspan x="1.64" y="26.4">c</tspan><tspan x="12.74" y="26.4">t</tspan><tspan x="20.22" y="26.4">o</tspan><tspan x="33.34" y="26.4" letter-spacing="1">r</tspan><tspan x="43.35" y="26.4">y </tspan><tspan x="60.15" y="26.4">(</tspan><tspan x="65.92" y="26.4">s</tspan><tspan x="76.18" y="26.4">m</tspan><tspan x="96.49" y="26.4">e</tspan><tspan x="108.7" y="26.4">l</tspan><tspan x="114.01" y="26.4">l</tspan><tspan x="119.51" y="26.4">)</tspan></text><text transform="translate(173.2 205.71)" font-size="22" fill="#e12900" font-family="Open Sans">[<tspan x="7.24" y="0">b</tspan><tspan x="20.65" y="0">e</tspan><tspan x="32.84" y="0">h</tspan><tspan x="46.11" y="0">i</tspan><tspan x="51.43" y="0">n</tspan><tspan x="64.82" y="0">d</tspan><tspan x="78.3" y="0">]</tspan><tspan x="-49.21" y="26.4">A</tspan><tspan x="-35.42" y="26.4">u</tspan><tspan x="-22.05" y="26.4">d</tspan><tspan x="-8.81" y="26.4">i</tspan><tspan x="-3.21" y="26.4">t</tspan><tspan x="4.28" y="26.4">o</tspan><tspan x="17.4" y="26.4" letter-spacing="1">r</tspan><tspan x="27.4" y="26.4">y </tspan><tspan x="44.2" y="26.4">(</tspan><tspan x="50.66" y="26.4">h</tspan><tspan x="64.02" y="26.4">e</tspan><tspan x="76.15" y="26.4">a</tspan><tspan x="88.19" y="26.4">r</tspan><tspan x="97.24" y="26.4">i</tspan><tspan x="102.55" y="26.4">n</tspan><tspan x="115.85" y="26.4">g</tspan><tspan x="128.24" y="26.4">)</tspan></text><text transform="translate(511.8 61.04)" font-size="22" fill="#e12900" font-family="Open Sans">[<tspan x="7.24" y="0">b</tspan><tspan x="20.65" y="0">e</tspan><tspan x="32.84" y="0">h</tspan><tspan x="46.11" y="0">i</tspan><tspan x="51.43" y="0">n</tspan><tspan x="64.82" y="0">d</tspan><tspan x="78.3" y="0">]</tspan><tspan x="-42.4" y="26.4">G</tspan><tspan x="-26.42" y="26.4">u</tspan><tspan x="-13.11" y="26.4">s</tspan><tspan x="-2.25" y="26.4">t</tspan><tspan x="5.83" y="26.4">a</tspan><tspan x="17.98" y="26.4">t</tspan><tspan x="25.46" y="26.4">o</tspan><tspan x="38.58" y="26.4" letter-spacing="1">r</tspan><tspan x="48.58" y="26.4">y </tspan><tspan x="65.38" y="26.4">(</tspan><tspan x="71.53" y="26.4">t</tspan><tspan x="79.6" y="26.4">a</tspan><tspan x="91.63" y="26.4">s</tspan><tspan x="102.49" y="26.4">t</tspan><tspan x="109.98" y="26.4">e</tspan><tspan x="121.43" y="26.4">)</tspan></text><text transform="translate(432.92 207.44)" font-size="22" fill="#e12900" font-family="Open Sans">[<tspan x="7.31" y="0">in</tspan><tspan x="25.87" y="0">s</tspan><tspan x="36.1" y="0">i</tspan><tspan x="41.47" y="0">d</tspan><tspan x="54.78" y="0" letter-spacing="-1">e</tspan><tspan x="66.01" y="0">]</tspan><tspan x="-12.91" y="26.4">T</tspan><tspan x="-0.57" y="26.4">h</tspan><tspan x="12.7" y="26.4">a</tspan><tspan x="24.74" y="26.4">l</tspan><tspan x="30.05" y="26.4">a</tspan><tspan x="42.09" y="26.4">m</tspan><tspan x="62.35" y="26.4">u</tspan><tspan x="75.67" y="26.4">s</tspan></text><text transform="translate(498.82 152.55)" font-size="22" fill="#e12900" font-family="Open Sans">V<tspan x="13.42" y="0">i</tspan><tspan x="18.71" y="0">s</tspan><tspan x="28.98" y="0">u</tspan><tspan x="42.19" y="0">a</tspan><tspan x="54.23" y="0">l </tspan><tspan x="65.51" y="0">(</tspan><tspan x="71.28" y="0">s</tspan><tspan x="81.51" y="0">i</tspan><tspan x="86.84" y="0">g</tspan><tspan x="98.84" y="0">h</tspan><tspan x="112.21" y="0">t</tspan><tspan x="119.7" y="0">)</tspan></text><text transform="translate(404.8 17.74)" font-size="22" fill="#e12900" font-family="Open Sans">S<tspan x="12.12" y="0">o</tspan><tspan x="25.24" y="0">m</tspan><tspan x="45.48" y="0">a</tspan><tspan x="57.63" y="0">t</tspan><tspan x="65.11" y="0">o</tspan><tspan x="78.24" y="0">s</tspan><tspan x="88.68" y="0">e</tspan><tspan x="100.87" y="0">n</tspan><tspan x="114.12" y="0">s</tspan><tspan x="124.56" y="0">o</tspan><tspan x="137.68" y="0" letter-spacing="1">r</tspan><tspan x="147.68" y="0">y </tspan><tspan x="164.48" y="0">(</tspan><tspan x="170.63" y="0">t</tspan><tspan x="178.11" y="0">o</tspan><tspan x="191.25" y="0">u</tspan><tspan x="204.58" y="0">c</tspan><tspan x="214.9" y="0">h</tspan><tspan x="227.45" y="0">)</tspan></text><path d="M266.07,78.59C236.24,50.48,197.7,30.71,162.94,25" fill="none" stroke="#e12900" stroke-miterlimit="10" stroke-width="2"/><polygon points="271.21 83.43 266.76 73.65 265.69 78.23 261.19 79.57 271.21 83.43" fill="#e12900"/><path d="M220.51,153.55A109.28,109.28,0,0,1,174.88,162" fill="none" stroke="#e12900" stroke-miterlimit="10" stroke-width="2"/><polygon points="227.02 150.81 216.27 150.93 220.03 153.76 219.43 158.42 227.02 150.81" fill="#e12900"/><path d="M276.15,120c-18.59,24.58-25.86,44.38-29.12,62.48" fill="none" stroke="#e12900" stroke-miterlimit="10" stroke-width="2"/><polygon points="280.41 114.42 271.16 119.9 275.83 120.47 277.65 124.8 280.41 114.42" fill="#e12900"/><path d="M328.2,125.22c48.27,16.16,86.78,38,121.5,62.12" fill="none" stroke="#e12900" stroke-miterlimit="10" stroke-width="2"/><polygon points="321.5 122.97 329.64 129.99 328.7 125.38 332.23 122.28 321.5 122.97" fill="#e12900"/><path d="M319.14,54.91C347.36,39.75,387.38,27,426.58,23" fill="none" stroke="#e12900" stroke-miterlimit="10" stroke-width="2"/><polygon points="312.92 58.25 323.61 57.13 319.61 54.66 319.76 49.97 312.92 58.25" fill="#e12900"/><path d="M462.64,116c30.41-.36,62.81,6.67,86.28,16.69" fill="none" stroke="#e12900" stroke-miterlimit="10" stroke-width="2"/><polygon points="455.58 116.12 465.58 120.06 463.17 116.03 465.49 111.94 455.58 116.12" fill="#e12900"/><path d="M324.24,92.8C371.7,97.19,416.6,90,461.75,80.32" fill="none" stroke="#e12900" stroke-miterlimit="10" stroke-width="2"/><polygon points="317.21 92.16 326.74 97.12 324.76 92.85 327.49 89.02 317.21 92.16" fill="#e12900"/></svg>