<svg id="Layer_1" data-name="Layer 1" xmlns="http://www.w3.org/2000/svg" viewBox="0 0 640 290"><title>brains</title><path d="M417.15,176.38c-4.43-5.37-6.89-11.63-2.85-20.83-8.78-8.2-1.67-24,7.14-25.85-12.66-11.29-9-26-13-30.78-12.07,7.53-24.15,19.13-25.5,33.49a37.41,37.41,0,0,0-13.44,18.09c0.2,3.58,6.89,10.47,12,10-6.47,7.73-.52,21,4.92,22.31-8.7,4.81-6.82,18.71,0,24.93,5.36,1.92,22.94,2.56,30.79-3.77,3.54,0.47,6.3-.14,8-2.46A29.22,29.22,0,0,1,417.15,176.38Z" fill="#58d982"/><path d="M486.07,220.67c-0.73,11.79-14.71,21.87-25,23.54" fill="none" stroke="#0090d0" stroke-linecap="round" stroke-miterlimit="10" stroke-width="2"/><path d="M413.89,155.81c-4,9.21-1.58,15.47,2.85,20.83C413.42,197.72,433,212.12,444,210c4.61,3.54,10.23,4.59,16.29,4.58,7.67,6,18.5,7.12,31.1,5.57,4.25,5.61,12.71,10.6,20.19,11a15.59,15.59,0,0,0,5.22-1c10.15,14.42,23.86,5.27,27.06,1,10.2,6.2,40.17-.91,34.08-20.62-11.28-36.52-51.68-54.52-64.44-40" fill="none" stroke="#0090d0" stroke-linecap="round" stroke-miterlimit="10" stroke-width="2"/><path d="M582.89,190.44c13.72,1.63,21.34-1.77,27-11.08,5.12,1.09,16.9-1,22.39-11.21,13.62-10.67,4.72-46.84-10.69-50-5.35-17.95-21.77-28.54-33.22-26.73C581.5,83.37,562,76,549.42,76.87c-15-8.5-32.35-11.44-54.64-7.54C467,64.07,414.62,80.31,408,99.17c-12.07,7.53-24.15,19.13-25.5,33.49,0,0-16.39,12.95-17.15,34-0.25,6.81-7.64,10-.26,27.88S386,208,386,208c5.36,1.92,22.94,2.56,30.79-3.77,3.54,0.47,6.3-.14,8-2.46" fill="none" stroke="#0090d0" stroke-linecap="round" stroke-miterlimit="10" stroke-width="2"/><path d="M386,208c0.5,39.4,25.4,63.14,66.44,58.08,13.24-3,24.15-12.54,24.25-29.39" fill="none" stroke="#0090d0" stroke-linecap="round" stroke-miterlimit="10" stroke-width="2"/><path d="M632.29,168.14c0,14.26-10,26.78-17.4,26.78-8.25,10.49-19.61,16.92-36.91,15.6" fill="none" stroke="#0090d0" stroke-linecap="round" stroke-miterlimit="10" stroke-width="2"/><line x1="436.01" y1="285.65" x2="452.4" y2="266.05" fill="none" stroke="#0090d0" stroke-linecap="round" stroke-miterlimit="10" stroke-width="2"/><path d="M511.62,231.15c-3.05,7-14.82,18.3-25.54,15.45-2.44,9.28-22.29,25-35,39" fill="none" stroke="#0090d0" stroke-linecap="round" stroke-miterlimit="10" stroke-width="2"/><path d="M517.5,184.61c0.48-18-26-39.6-40.85-33.2-2.81-7.28-7.29-12.27-14.83-13.08,0.75-9.25-1.44-16.58-6.73-21.91" fill="none" stroke="#0090d0" stroke-linecap="round" stroke-miterlimit="10" stroke-width="2"/><path d="M555.49,116.41c-3.86,17.49-4.12,32.62,7.2,40.12a27.71,27.71,0,0,0,4.8,14.9c-4.91,2.14-6.68,6.14-6,11.61" fill="none" stroke="#0090d0" stroke-linecap="round" stroke-miterlimit="10" stroke-width="2"/><path d="M366.2,195q5.57-5.57,11.1-11.16" fill="none" stroke="#0090d0" stroke-linecap="round" stroke-miterlimit="10"/><path d="M406.42,164q5.2-5,10.45-9.91" fill="none" stroke="#0090d0" stroke-linecap="round" stroke-miterlimit="10"/><path d="M369.26,200.51q6.78-6.8,13.59-13.57" fill="none" stroke="#0090d0" stroke-linecap="round" stroke-miterlimit="10"/><path d="M458.32,120.73l3-3" fill="none" stroke="#0090d0" stroke-linecap="round" stroke-miterlimit="10"/><path d="M405.27,173.8L420,159.14" fill="none" stroke="#0090d0" stroke-linecap="round" stroke-miterlimit="10"/><path d="M374.32,204.62l13.26-13.22" fill="none" stroke="#0090d0" stroke-linecap="round" stroke-miterlimit="10"/><path d="M461.19,126.72l5.88-5.86" fill="none" stroke="#0090d0" stroke-linecap="round" stroke-miterlimit="10"/><path d="M407.43,178.84q7.66-7.16,15.51-14.12" fill="none" stroke="#0090d0" stroke-linecap="round" stroke-miterlimit="10"/><path d="M377.86,207.64q7.39-7.45,14.89-14.78" fill="none" stroke="#0090d0" stroke-linecap="round" stroke-miterlimit="10"/><path d="M463.38,133.34l7.07-7.08" fill="none" stroke="#0090d0" stroke-linecap="round" stroke-miterlimit="10"/><path d="M387.38,209.12q18.2-18.36,36.69-36.43" fill="none" stroke="#0090d0" stroke-linecap="round" stroke-miterlimit="10"/><path d="M467.58,138.21l7-7.07" fill="none" stroke="#0090d0" stroke-linecap="round" stroke-miterlimit="10"/><path d="M386.81,218.61c12.65-12.86,25.39-25.64,38.45-38.09" fill="none" stroke="#0090d0" stroke-linecap="round" stroke-miterlimit="10"/><path d="M472.72,142.14l6.42-6.45" fill="none" stroke="#0090d0" stroke-linecap="round" stroke-miterlimit="10"/><path d="M388.35,225.35c12.92-13,26-25.79,39.33-38.29" fill="none" stroke="#0090d0" stroke-linecap="round" stroke-miterlimit="10"/><path d="M475.87,146.54l7.69-7.63" fill="none" stroke="#0090d0" stroke-linecap="round" stroke-miterlimit="10"/><path d="M390.1,231C403.46,217.49,417,204.17,431,191.29" fill="none" stroke="#0090d0" stroke-linecap="round" stroke-miterlimit="10"/><path d="M483.4,149.13q3.12-3.18,6.22-6.38" fill="none" stroke="#0090d0" stroke-linecap="round" stroke-miterlimit="10"/><path d="M393.3,238.24c14-14.18,28.17-28.29,42.61-42.07" fill="none" stroke="#0090d0" stroke-linecap="round" stroke-miterlimit="10"/><path d="M489,151l5.92-5.87" fill="none" stroke="#0090d0" stroke-linecap="round" stroke-miterlimit="10"/><path d="M423.36,216.27l17.14-17.08" fill="none" stroke="#0090d0" stroke-linecap="round" stroke-miterlimit="10"/><path d="M395.83,243.84q10.53-10.58,21.09-21.13" fill="none" stroke="#0090d0" stroke-linecap="round" stroke-miterlimit="10"/><path d="M495.42,154l7.05-7" fill="none" stroke="#0090d0" stroke-linecap="round" stroke-miterlimit="10"/><path d="M432.05,216.45q7.64-7.43,15.23-14.91" fill="none" stroke="#0090d0" stroke-linecap="round" stroke-miterlimit="10"/><path d="M399.81,248.62q9.07-9.1,18.18-18.17" fill="none" stroke="#0090d0" stroke-linecap="round" stroke-miterlimit="10"/><path d="M500.73,157.29l10-10" fill="none" stroke="#0090d0" stroke-linecap="round" stroke-miterlimit="10"/><path d="M439.2,218.82L456,202" fill="none" stroke="#0090d0" stroke-linecap="round" stroke-miterlimit="10"/><path d="M404.34,253.67l20.18-20.18" fill="none" stroke="#0090d0" stroke-linecap="round" stroke-miterlimit="10"/><path d="M506.08,161.67L518.94,149" fill="none" stroke="#0090d0" stroke-linecap="round" stroke-miterlimit="10"/><path d="M445.18,221.51L464,203.1" fill="none" stroke="#0090d0" stroke-linecap="round" stroke-miterlimit="10"/><path d="M409.37,257q10-10,20-19.87" fill="none" stroke="#0090d0" stroke-linecap="round" stroke-miterlimit="10"/><path d="M542.12,132.39q6.33-6.32,12.72-12.59" fill="none" stroke="#0090d0" stroke-linecap="round" stroke-miterlimit="10"/><path d="M509.27,165.73q8.41-8.62,16.85-17.21" fill="none" stroke="#0090d0" stroke-linecap="round" stroke-miterlimit="10"/><path d="M450.17,225.72q9.9-9.87,19.72-19.81" fill="none" stroke="#0090d0" stroke-linecap="round" stroke-miterlimit="10"/><path d="M415.84,259.94l18.93-18.87" fill="none" stroke="#0090d0" stroke-linecap="round" stroke-miterlimit="10"/><path d="M544.08,140.31l8.88-8.89" fill="none" stroke="#0090d0" stroke-linecap="round" stroke-miterlimit="10"/><path d="M516.46,167.95l17.26-17.27" fill="none" stroke="#0090d0" stroke-linecap="round" stroke-miterlimit="10"/><path d="M454.12,230.26L475,209.37" fill="none" stroke="#0090d0" stroke-linecap="round" stroke-miterlimit="10"/><path d="M421.59,262.77l20.1-20.09" fill="none" stroke="#0090d0" stroke-linecap="round" stroke-miterlimit="10"/><path d="M546.58,146.37L553,140" fill="none" stroke="#0090d0" stroke-linecap="round" stroke-miterlimit="10"/><path d="M526.42,166.49l13.27-13.25" fill="none" stroke="#0090d0" stroke-linecap="round" stroke-miterlimit="10"/><path d="M427.53,264.67c17.9-17.87,36.09-35.44,54-53.3" fill="none" stroke="#0090d0" stroke-linecap="round" stroke-miterlimit="10"/><path d="M384.68,123.75q4.72-4.62,9.46-9.22" fill="none" stroke="#0090d0" stroke-linecap="round" stroke-miterlimit="10"/><path d="M370.35,148.05q11.06-11.29,22-22.67" fill="none" stroke="#0090d0" stroke-linecap="round" stroke-miterlimit="10"/><path d="M366.41,161q4.59-4.63,9.14-9.28" fill="none" stroke="#0090d0" stroke-linecap="round" stroke-miterlimit="10"/><path d="M366,168.81l7.42-7.34" fill="none" stroke="#0090d0" stroke-linecap="round" stroke-miterlimit="10"/><path d="M361.8,182.21L373,171" fill="none" stroke="#0090d0" stroke-linecap="round" stroke-miterlimit="10"/><path d="M363.58,189.41q5.36-5.35,10.69-10.73" fill="none" stroke="#0090d0" stroke-linecap="round" stroke-miterlimit="10"/><path d="M534.83,166.61l20-20" fill="none" stroke="#0090d0" stroke-linecap="round" stroke-miterlimit="10"/><path d="M436.14,265.24q26.51-26.73,53.25-53.24" fill="none" stroke="#0090d0" stroke-linecap="round" stroke-miterlimit="10"/><path d="M542.13,168.63l15.33-15.34" fill="none" stroke="#0090d0" stroke-linecap="round" stroke-miterlimit="10"/><path d="M444.31,266.47q26.59-26.54,53.12-53.13" fill="none" stroke="#0090d0" stroke-linecap="round" stroke-miterlimit="10"/><path d="M548.19,171.37l13.53-13.6" fill="none" stroke="#0090d0" stroke-linecap="round" stroke-miterlimit="10"/><path d="M447.59,272.23c18-18.09,35.94-36.33,54.18-54.23" fill="none" stroke="#0090d0" stroke-linecap="round" stroke-miterlimit="10"/><path d="M553.18,174.61l10-10" fill="none" stroke="#0090d0" stroke-linecap="round" stroke-miterlimit="10"/><path d="M445.65,282.19q30.7-31,61.69-61.76" fill="none" stroke="#0090d0" stroke-linecap="round" stroke-miterlimit="10"/><path d="M558.6,178q4-4.1,8-8.17" fill="none" stroke="#0090d0" stroke-linecap="round" stroke-miterlimit="10"/><path d="M490.34,246.51Q502,234.9,513.61,223.18" fill="none" stroke="#0090d0" stroke-linecap="round" stroke-miterlimit="10"/><path d="M563.11,181.84l4.66-4.7" fill="none" stroke="#0090d0" stroke-linecap="round" stroke-miterlimit="10"/><path d="M514.75,230.79l7-7" fill="none" stroke="#0090d0" stroke-linecap="round" stroke-miterlimit="10"/><path d="M567.79,186.36l2.69-2.92" fill="none" stroke="#0090d0" stroke-linecap="round" stroke-miterlimit="10"/><path d="M520.73,233.44l8.29-8.31" fill="none" stroke="#0090d0" stroke-linecap="round" stroke-miterlimit="10"/><path d="M571.55,191.58l4.09-4" fill="none" stroke="#0090d0" stroke-linecap="round" stroke-miterlimit="10"/><path d="M527,236.8q4.61-4.9,9.08-9.92" fill="none" stroke="#0090d0" stroke-linecap="round" stroke-miterlimit="10"/><path d="M574.61,197.41l7.51-7.51" fill="none" stroke="#0090d0" stroke-linecap="round" stroke-miterlimit="10"/><path d="M534.21,237.81l13.59-13.59" fill="none" stroke="#0090d0" stroke-linecap="round" stroke-miterlimit="10"/><path d="M577,203.45q6-6,12-11.93" fill="none" stroke="#0090d0" stroke-linecap="round" stroke-miterlimit="10"/><path d="M548.49,232q2.57-2.65,5.12-5.32" fill="none" stroke="#0090d0" stroke-linecap="round" stroke-miterlimit="10"/><path d="M578.92,210.93q11.28-11.59,22.68-23.05" fill="none" stroke="#0090d0" stroke-linecap="round" stroke-miterlimit="10"/><path d="M556.57,233.32L563,226.9" fill="none" stroke="#0090d0" stroke-linecap="round" stroke-miterlimit="10"/><path d="M588.32,210.12q15.66-15.55,31-31.4" fill="none" stroke="#0090d0" stroke-linecap="round" stroke-miterlimit="10"/><path d="M600.11,207.31q16.06-15.88,31.94-31.93" fill="none" stroke="#0090d0" stroke-linecap="round" stroke-miterlimit="10"/><path d="M164.08,151.3c10.11,0.81,17,4.09,21.25,9.33,5.56-7.07,11-11.74,16.3-10.23-1.22-6.75.61-12.27,7.8-15.64-9.32-.3-17.3-6.27-23.79-18.46-5.34,6.41-7.94,13.62-6.73,21.91C171.6,138.77,167.14,143.92,164.08,151.3Z" fill="#58d982"/><path d="M72.94,190.33c-5.2-4.95-11.38-7.92-19.3-7.4,4-7.34,4-14.09,0-20.22,9.23,1.21,16.71-2.85,24.4-6.29-0.39,6-2,11-4.8,14.9,4.5,1.69,6.55,5.52,6,11.67l-6.26,7.34h0" fill="#58d982"/><path d="M255,208c-0.5,39.4-25.4,63.14-66.44,58.08-13.24-3-24.15-12.54-24.25-29.39" fill="none" stroke="#0090d0" stroke-linecap="round" stroke-miterlimit="10" stroke-width="2"/><path d="M154.93,220.67c0.73,11.79,14.71,21.87,25,23.54" fill="none" stroke="#0090d0" stroke-linecap="round" stroke-miterlimit="10" stroke-width="2"/><path d="M227.11,155.81c4,9.21,1.58,15.47-2.85,20.83C227.58,197.72,208,212.12,197,210c-4.61,3.54-10.23,4.59-16.29,4.58-7.67,6-18.5,7.12-31.1,5.57-4.25,5.61-12.71,10.6-20.19,11a15.59,15.59,0,0,1-5.22-1c-10.15,14.42-23.86,5.27-27.06,1-10.2,6.2-40.17-.91-34.08-20.62,11.28-36.52,51.68-54.52,64.44-40" fill="none" stroke="#0090d0" stroke-linecap="round" stroke-miterlimit="10" stroke-width="2"/><path d="M58.11,190.44c-13.72,1.63-21.34-1.77-27-11.08-5.12,1.09-16.9-1-22.39-11.21-13.62-10.67-4.72-46.84,10.69-50,5.35-17.95,21.77-28.54,33.22-26.73C59.5,83.37,79,76,91.58,76.87c15-8.5,32.35-11.44,54.64-7.54,27.79-5.26,80.16,11,86.76,29.84,12.07,7.53,24.15,19.13,25.5,33.49,0,0,16.39,12.95,17.15,34,0.25,6.81,7.64,10,.26,27.88S255,208,255,208c-5.36,1.92-22.94,2.56-30.79-3.77-3.54.47-6.3-.14-8-2.46" fill="none" stroke="#0090d0" stroke-linecap="round" stroke-miterlimit="10" stroke-width="2"/><path d="M8.71,168.14c0,14.26,10,26.78,17.4,26.78,8.25,10.49,19.61,16.92,36.91,15.6" fill="none" stroke="#0090d0" stroke-linecap="round" stroke-miterlimit="10" stroke-width="2"/><line x1="204.99" y1="285.65" x2="188.61" y2="266.05" fill="none" stroke="#0090d0" stroke-linecap="round" stroke-miterlimit="10" stroke-width="2"/><path d="M129.38,231.15c3.05,7,14.82,18.3,25.54,15.45,2.44,9.28,22.29,25,35,39" fill="none" stroke="#0090d0" stroke-linecap="round" stroke-miterlimit="10" stroke-width="2"/><path d="M123.51,184.61c-0.48-18,26-39.6,40.85-33.2,2.81-7.28,7.29-12.27,14.83-13.08-0.75-9.25,1.44-16.58,6.73-21.91" fill="none" stroke="#0090d0" stroke-linecap="round" stroke-miterlimit="10" stroke-width="2"/><path d="M85.51,116.41c3.86,17.49,4.12,32.62-7.2,40.12a27.71,27.71,0,0,1-4.8,14.9c4.91,2.14,6.68,6.14,6,11.61" fill="none" stroke="#0090d0" stroke-linecap="round" stroke-miterlimit="10" stroke-width="2"/><path d="M78.63,173q9.66-9.87,19.36-19.7" fill="none" stroke="#0090d0" stroke-linecap="round" stroke-miterlimit="10"/><path d="M64.78,187q-10.28,10.71-20.54,21.33" fill="none" stroke="#0090d0" stroke-linecap="round" stroke-miterlimit="10"/><path d="M115.46,164.23l2.91-2.9" fill="none" stroke="#0090d0" stroke-linecap="round" stroke-miterlimit="10"/><path d="M62.22,215.9c2-1.95,4-3.91,6.05-5.83" fill="none" stroke="#0090d0" stroke-linecap="round" stroke-miterlimit="10"/><path d="M122.51,165.91q2.51-2.66,5-5.3" fill="none" stroke="#0090d0" stroke-linecap="round" stroke-miterlimit="10"/><path d="M71.85,215.57c-2.44,2.51-4.92,5-7.4,7.5" fill="none" stroke="#0090d0" stroke-linecap="round" stroke-miterlimit="10"/><path d="M94.26,219.36Q87.58,226,81,232.69" fill="none" stroke="#0090d0" stroke-linecap="round" stroke-miterlimit="10"/><path d="M106.88,224.52l-8.27,8.25" fill="none" stroke="#0090d0" stroke-linecap="round" stroke-miterlimit="10"/><path d="M126.82,230.89L140.73,217" fill="none" stroke="#0090d0" stroke-linecap="round" stroke-miterlimit="10"/><path d="M164.24,211c-9.54,9.69-19,19.14-28.54,28.55" fill="none" stroke="#0090d0" stroke-linecap="round" stroke-miterlimit="10"/><path d="M88,129.39q1.73-1.63,3.43-3.29" fill="none" stroke="#0090d0" stroke-linecap="round" stroke-miterlimit="10"/><path d="M39.82,177.57q-8.71,8.17-17.24,16.52" fill="none" stroke="#0090d0" stroke-linecap="round" stroke-miterlimit="10"/><path d="M76.49,167.21l19-19.05" fill="none" stroke="#0090d0" stroke-linecap="round" stroke-miterlimit="10"/><path d="M58.18,185.52L38.13,205.57" fill="none" stroke="#0090d0" stroke-linecap="round" stroke-miterlimit="10"/><path d="M104,166.06l4.15-4.14" fill="none" stroke="#0090d0" stroke-linecap="round" stroke-miterlimit="10"/><path d="M59.59,210.68q4.47-4.56,8.9-9.15" fill="none" stroke="#0090d0" stroke-linecap="round" stroke-miterlimit="10"/><path d="M127.19,168.87q9.86-9.43,19.6-19" fill="none" stroke="#0090d0" stroke-linecap="round" stroke-miterlimit="10"/><path d="M76.48,219.6c-2.67,2.59-5.31,5.2-8,7.79" fill="none" stroke="#0090d0" stroke-linecap="round" stroke-miterlimit="10"/><path d="M154.85,150.28q5.57-5.39,11.13-10.81" fill="none" stroke="#0090d0" stroke-linecap="round" stroke-miterlimit="10"/><path d="M84.21,220.85q-5.27,4.75-10.37,9.65" fill="none" stroke="#0090d0" stroke-linecap="round" stroke-miterlimit="10"/><path d="M100,222.71c-3.49,3.52-7,7-10.48,10.53" fill="none" stroke="#0090d0" stroke-linecap="round" stroke-miterlimit="10"/><path d="M115.6,224.68q-5.74,5.86-11.54,11.66" fill="none" stroke="#0090d0" stroke-linecap="round" stroke-miterlimit="10"/><path d="M236.08,218.11q12.21-12.32,24.47-24.59" fill="none" stroke="#0090d0" stroke-linecap="round" stroke-miterlimit="10"/><path d="M215.54,238.66c-12.35,12-24.21,24.27-36.09,36.28" fill="none" stroke="#0090d0" stroke-linecap="round" stroke-miterlimit="10"/><path d="M244.93,191.43q-11.11,11.2-22.15,22.45" fill="none" stroke="#0090d0" stroke-linecap="round" stroke-miterlimit="10"/><path d="M204,232.63C193.35,244.09,181.75,255,170.26,266" fill="none" stroke="#0090d0" stroke-linecap="round" stroke-miterlimit="10"/><path d="M224.76,185.59l6.41-6.4" fill="none" stroke="#0090d0" stroke-linecap="round" stroke-miterlimit="10"/><path d="M209.73,200.61c-17.92,16.68-35.05,34-52.07,51.39" fill="none" stroke="#0090d0" stroke-linecap="round" stroke-miterlimit="10"/><line x1="245.27" y1="244.01" x2="231.09" y2="258.18" fill="none" stroke="#0090d0" stroke-linecap="round" stroke-miterlimit="10"/><line x1="203.63" y1="285.65" x2="204.37" y2="284.91" fill="none" stroke="#0090d0" stroke-linecap="round" stroke-miterlimit="10"/><path d="M273.88,188.55q-16.21,16.17-32.1,32.64" fill="none" stroke="#0090d0" stroke-linecap="round" stroke-miterlimit="10"/><path d="M196.53,266.68q13.09-13.1,26-26.23" fill="none" stroke="#0090d0" stroke-linecap="round" stroke-miterlimit="10"/><path d="M183.86,279.3l8.63-8.6" fill="none" stroke="#0090d0" stroke-linecap="round" stroke-miterlimit="10"/><path d="M214.58,213.31q12.69-12.24,25.23-24.65" fill="none" stroke="#0090d0" stroke-linecap="round" stroke-miterlimit="10"/><path d="M199.55,228.33c-11.9,10.39-23,21.65-33.91,33" fill="none" stroke="#0090d0" stroke-linecap="round" stroke-miterlimit="10"/><path d="M252.28,228.21c-2.17,2.18-4.35,4.35-6.52,6.53" fill="none" stroke="#0090d0" stroke-linecap="round" stroke-miterlimit="10"/><path d="M195.85,285.65q2.55-2.43,5-4.91" fill="none" stroke="#0090d0" stroke-linecap="round" stroke-miterlimit="10"/><path d="M241.33,239.17c-8.93,8.21-17,16.86-25,25.44" fill="none" stroke="#0090d0" stroke-linecap="round" stroke-miterlimit="10"/><path d="M188.41,204.39c-14,13.89-27.71,28-41.41,42" fill="none" stroke="#0090d0" stroke-linecap="round" stroke-miterlimit="10"/><path d="M128.81,220.07c-6,5.84-12,11.82-18,17.87" fill="none" stroke="#0090d0" stroke-linecap="round" stroke-miterlimit="10"/><path d="M205.24,213.88q14.88-14.95,29.89-29.77" fill="none" stroke="#0090d0" stroke-linecap="round" stroke-miterlimit="10"/><path d="M161.77,257.18q17.39-17.39,35-34.88" fill="none" stroke="#0090d0" stroke-linecap="round" stroke-miterlimit="10"/><path d="M175.3,208.73c-11.32,11.83-22.94,23.36-34.59,34.8" fill="none" stroke="#0090d0" stroke-linecap="round" stroke-miterlimit="10"/><path d="M198.05,203.52c-13.89,14.71-28.48,28.92-43.11,43.12" fill="none" stroke="#0090d0" stroke-linecap="round" stroke-miterlimit="10"/><path d="M156.33,210.16q-12.46,12.28-24.75,24.73" fill="none" stroke="#0090d0" stroke-linecap="round" stroke-miterlimit="10"/><path d="M274.62,197.22L264.5,207.3" fill="none" stroke="#0090d0" stroke-linecap="round" stroke-miterlimit="10"/><path d="M254.43,217.34c-2.85,2.85-5.72,5.69-8.57,8.54" fill="none" stroke="#0090d0" stroke-linecap="round" stroke-miterlimit="10"/><path d="M205.22,266.49l25.3-25.27" fill="none" stroke="#0090d0" stroke-linecap="round" stroke-miterlimit="10"/><path d="M188.07,283.65l8.3-8.31" fill="none" stroke="#0090d0" stroke-linecap="round" stroke-miterlimit="10"/><path d="M251.94,193.44l-21.81,21.86" fill="none" stroke="#0090d0" stroke-linecap="round" stroke-miterlimit="10"/><path d="M209.37,236.06c-11.23,11.86-22.53,23.41-34.08,34.84" fill="none" stroke="#0090d0" stroke-linecap="round" stroke-miterlimit="10"/><path d="M3.75,161l3.54-3.54" fill="none" stroke="#0090d0" stroke-linecap="round" stroke-miterlimit="10"/><path d="M3.47,152.53l-1.31,1.31" fill="none" stroke="#0090d0" stroke-linecap="round" stroke-miterlimit="10"/><path d="M21.81,169.27c-3.65,3.53-7.26,7.06-10.88,10.6" fill="none" stroke="#0090d0" stroke-linecap="round" stroke-miterlimit="10"/><path d="M33.72,174.9Q26,183,18.1,191" fill="none" stroke="#0090d0" stroke-linecap="round" stroke-miterlimit="10"/><path d="M78.68,156.33Q86,149,93.28,141.68" fill="none" stroke="#0090d0" stroke-linecap="round" stroke-miterlimit="10"/><path d="M50.83,184q-9,8.87-18.11,17.83" fill="none" stroke="#0090d0" stroke-linecap="round" stroke-miterlimit="10"/><path d="M79.23,181.47q10.63-10.69,21.23-21.42" fill="none" stroke="#0090d0" stroke-linecap="round" stroke-miterlimit="10"/><path d="M71.68,189.05q-10.49,10.45-20.86,21" fill="none" stroke="#0090d0" stroke-linecap="round" stroke-miterlimit="10"/><path d="M2.37,144.86l0.11-.11" fill="none" stroke="#0090d0" stroke-linecap="round" stroke-miterlimit="10"/><path d="M10.77,162.77L7,166.51" fill="none" stroke="#0090d0" stroke-linecap="round" stroke-miterlimit="10"/><path d="M15.71,166.6l-6.58,6.58" fill="none" stroke="#0090d0" stroke-linecap="round" stroke-miterlimit="10"/><path d="M28.21,171.64c-5.15,4.46-10,9-14.61,13.67" fill="none" stroke="#0090d0" stroke-linecap="round" stroke-miterlimit="10"/><path d="M86.8,139.36q2.61-2.4,5.18-4.84" fill="none" stroke="#0090d0" stroke-linecap="round" stroke-miterlimit="10"/><path d="M45.66,180.44q-8.78,8.42-17.37,17" fill="none" stroke="#0090d0" stroke-linecap="round" stroke-miterlimit="10"/><path d="M188.81,164.05c-9.26,45.58-31.77,70.7-68.63,89.95" fill="none" stroke="#fff" stroke-miterlimit="10" stroke-width="6"/><polygon points="190.92 153.67 181.97 167.09 188.65 164.83 193.92 169.51 190.92 153.67" fill="#fff"/><path d="M57.22,153.18C39.75,131,41,90.26,49.14,62" fill="none" stroke="#fff" stroke-miterlimit="10" stroke-width="6"/><polygon points="63.77 161.5 59.33 146.01 56.73 152.56 49.75 153.55 63.77 161.5" fill="#fff"/><text transform="translate(106.42 27)" font-size="22" fill="#e12900" font-family="Open Sans">L E F T</text><text transform="translate(457.9 27)" font-size="22" fill="#e12900" font-family="Open Sans">R I G H T</text><text transform="translate(0 279.95)" font-size="22" fill="#e12900" font-family="Open Sans">W<tspan x="19.8" y="0">e</tspan><tspan x="31.99" y="0">r</tspan><tspan x="41.04" y="0">n</tspan><tspan x="54.31" y="0">i</tspan><tspan x="59.68" y="0">c</tspan><tspan x="70" y="0">k</tspan><tspan x="80.87" y="0">e</tspan><tspan x="93.57" y="0">’</tspan><tspan x="97.03" y="0">s </tspan><tspan x="113.24" y="0">a</tspan><tspan x="125.29" y="0">r</tspan><tspan x="133.99" y="0">e</tspan><tspan x="146.11" y="0">a</tspan></text><text transform="translate(0 56.26)" font-size="22" fill="#e12900" font-family="Open Sans">B<tspan x="14.22" y="0">r</tspan><tspan x="22.94" y="0">o</tspan><tspan x="36.14" y="0">c</tspan><tspan x="46.77" y="0">a</tspan><tspan x="59.28" y="0">’</tspan><tspan x="62.75" y="0">s </tspan><tspan x="78.96" y="0">a</tspan><tspan x="91" y="0">r</tspan><tspan x="99.7" y="0">e</tspan><tspan x="111.83" y="0">a</tspan></text><text transform="translate(291.39 49.26)" font-size="22" fill="#e12900" font-family="Open Sans">V<tspan x="13.42" y="0">i</tspan><tspan x="18.71" y="0">s</tspan><tspan x="28.98" y="0">u</tspan><tspan x="42.19" y="0">a</tspan><tspan x="54.23" y="0">l </tspan><tspan x="0" y="26.4">a</tspan><tspan x="12.03" y="26.4">s</tspan><tspan x="22.55" y="26.4">s</tspan><tspan x="32.99" y="26.4">o</tspan><tspan x="46.19" y="26.4">c</tspan><tspan x="56.51" y="26.4">i</tspan><tspan x="61.78" y="26.4">a</tspan><tspan x="73.93" y="26.4">t</tspan><tspan x="81.7" y="26.4">i</tspan><tspan x="87.02" y="26.4">o</tspan><tspan x="100.15" y="26.4">n </tspan><tspan x="0" y="52.8">a</tspan><tspan x="12.04" y="52.8">r</tspan><tspan x="20.75" y="52.8">e</tspan><tspan x="32.87" y="52.8">a</tspan></text><path d="M188.81,164.05c-9.26,45.58-31.77,70.7-68.63,89.95" fill="none" stroke="#e12900" stroke-miterlimit="10" stroke-width="2"/><polygon points="190.22 157.13 184.25 166.07 188.71 164.57 192.22 167.69 190.22 157.13" fill="#e12900"/><path d="M57.22,153.18C39.75,131,41,90.26,49.14,62" fill="none" stroke="#e12900" stroke-miterlimit="10" stroke-width="2"/><polygon points="61.59 158.73 58.63 148.4 56.89 152.77 52.24 153.43 61.59 158.73" fill="#e12900"/><path d="M365.22,132.18c-6-7.62-9.79-13.31-11.85-23.89" fill="none" stroke="#e12900" stroke-miterlimit="10" stroke-width="2"/><polygon points="369.59 137.73 366.63 127.4 364.89 131.77 360.24 132.43 369.59 137.73" fill="#e12900"/></svg>