<svg id="Layer_1" data-name="Layer 1" xmlns="http://www.w3.org/2000/svg" viewBox="0 0 640 251.82"><title>brains</title><path d="M511.89,72.46c-7.23-3.12-51.82-2.19-68.18,8.27-11,7-23.18,23.29-22.68,39a34.15,34.15,0,0,0,16.11,28.45c2.22-9.26,9-15.06,21.33-16.7-5.65-4.43-6.65-6.82-14.71-6.42-6.75-2.74-7.31-15.72,3.71-19.19,8.83,0.72,15.35-9.45,17-16.73,7.61,3.4,22.4,1.7,27.37-1.44,6.45,6.1,14.33,7.29,21.88,6C517.22,85.78,519.12,75.57,511.89,72.46Z" fill="#8ce0df"/><path d="M497.44,196.31a14.73,14.73,0,0,1-4.93-1c-9.6,13.63-22.55,5-25.57,1-9.64,5.86-38-.86-32.21-19.49" fill="none" stroke="#0090d0" stroke-linecap="round" stroke-miterlimit="10" stroke-width="2.27"/><path d="M553.41,229.29c38.79,4.78,62.33-17.66,62.8-54.89,0-7-4.3-13.61-12.84-15.33-18.35-3.71-36.84-16.2-48.71-11.12C536.87,155.56,540,186,548,188.34c-8,3.07-8.07,11.13-9.12,18.61" fill="none" stroke="#0090d0" stroke-linecap="round" stroke-miterlimit="10" stroke-width="2.27"/><path d="M603.36,159.07c-13.25-3.72-14.95-15.06-13.25-21.27-9.65,7.58-30.06-1.73-28.92-10.12-12.07,4.62-28.14-6.91-19-21.05-9.36,1.45-19.16-7.33-20.13-15.18-9.74,3.79-21.31,4.69-30.19-3.7-5,3.14-19.75,4.84-27.37,1.44-1.7,7.28-8.22,17.45-17,16.73-11,3.47-10.45,16.45-3.71,19.19,8.07-.4,9.06,2,14.71,6.42,13.89-6.61,19.46,10.43,11.24,15.24,2.27,6.52.66,19.45-12.38,18.12,0.22,7.15-10.3,16.36-22.61,11.94-16.35,1.25-27.09-4.83-34.89-14.74-7,0-16.44-11.84-16.44-25.32-12.87-10.08-4.46-44.27,10.11-47.28,5.05-17,20.57-27,31.4-25.26,6.5-7.58,24.94-14.59,36.81-13.72,14.19-8,30.57-10.81,51.64-7.13,26.27-5,75.76,10.38,82,28.21,11.4,7.12,22.82,18.08,24.1,31.65,0,0,15.49,12.24,16.21,32.09,0.23,6.44,7.22,9.47.25,26.35S616.2,174.4,616.2,174.4" fill="none" stroke="#0090d0" stroke-linecap="round" stroke-miterlimit="10" stroke-width="2.27"/><path d="M568.9,247.82l-15.49-18.52S542.29,217.93,537,202.17c-2.55-7.59-3-15.11-3.82-21.66" fill="none" stroke="#0090d0" stroke-linecap="round" stroke-miterlimit="10" stroke-width="2.27"/><path d="M554.65,247.82c-12-13.28-30.77-28.13-33.07-36.9-10.13,2.69-21.25-8-24.14-14.61-0.24-.68-0.59-1.56-0.77-2.25" fill="none" stroke="#0090d0" stroke-linecap="round" stroke-miterlimit="10" stroke-width="2.27"/><path d="M510.54,164.88c-4.59,1.33-14.52,1-19.11.26-4-.68-8.13-1.53-12.21-1.16-6.12.55-13.82,4.79-11.17,12.1,1.88,5.16,8.47,6.32,13.3,6.38,11,0.14,15.82-6.6,26-9.89,15.62-5,25.79-10.7,35.19-29.36a11.26,11.26,0,0,1-4.05-.75C533.74,152.1,521.25,161.78,510.54,164.88Z" fill="none" stroke="#0090d0" stroke-linecap="round" stroke-miterlimit="10" stroke-width="2.27"/><path d="M464.32,130c-4.44-1.32-7.74-8.66-7-13.8,3.27-21.27,54.7-15.6,68.09-3.67,6.83,6.08,6.39,9.94,6.68,18.43,0.11,3.16.64,6.5,2.71,8.88,6.9,7.91,23.5.78,21.27-11.16" fill="none" stroke="#0090d0" stroke-linecap="round" stroke-miterlimit="10" stroke-width="2.27"/><path d="M472.12,180.51c4.71,19.91,41.55,5.54,50.37-.54s18.79-17.78,16.5-29.07" fill="none" stroke="#0090d0" stroke-linecap="round" stroke-miterlimit="10" stroke-width="2.27"/><path d="M504.34,157.57a10.25,10.25,0,0,1-2.09,1.23c-4.51,1.91-10.21-1.36-11.42-6.11-2.3-9.07,9.14-15.58,16.18-17.76,5.6-1.74,12.62-4.79,17.32.66a10,10,0,0,1,.07,12.59c-3.07,3.63-6.21,2.25-10.06,3.3C510.14,152.64,507.91,154.92,504.34,157.57Z" fill="none" stroke="#0090d0" stroke-linecap="round" stroke-miterlimit="10" stroke-width="2.27"/><path d="M522.13,171.35q20.24-19.87,40.33-39.89" fill="none" stroke="#0090d0" stroke-linecap="round" stroke-miterlimit="10" stroke-width="1.13"/><path d="M497.46,195.86l8.4-8.4" fill="none" stroke="#0090d0" stroke-linecap="round" stroke-miterlimit="10" stroke-width="1.13"/><path d="M553.26,148.31q6.24-6.4,12.52-12.76" fill="none" stroke="#0090d0" stroke-linecap="round" stroke-miterlimit="10" stroke-width="1.13"/><path d="M536.53,165.09l8.37-8.4" fill="none" stroke="#0090d0" stroke-linecap="round" stroke-miterlimit="10" stroke-width="1.13"/><path d="M500.7,200.91l19.61-19.6" fill="none" stroke="#0090d0" stroke-linecap="round" stroke-miterlimit="10" stroke-width="1.13"/><path d="M562.5,147.21q4.19-4.41,8.41-8.78" fill="none" stroke="#0090d0" stroke-linecap="round" stroke-miterlimit="10" stroke-width="1.13"/><path d="M535,175q3.54-3.57,7.06-7.16" fill="none" stroke="#0090d0" stroke-linecap="round" stroke-miterlimit="10" stroke-width="1.13"/><path d="M504.67,204.92l5.53-5.41" fill="none" stroke="#0090d0" stroke-linecap="round" stroke-miterlimit="10" stroke-width="1.13"/><path d="M570.95,147.32q3.9-3.72,7.79-7.46" fill="none" stroke="#0090d0" stroke-linecap="round" stroke-miterlimit="10" stroke-width="1.13"/><path d="M533.56,184.38q4.17-4.06,8.36-8.1" fill="none" stroke="#0090d0" stroke-linecap="round" stroke-miterlimit="10" stroke-width="1.13"/><path d="M509.21,208.34l6.06-6" fill="none" stroke="#0090d0" stroke-linecap="round" stroke-miterlimit="10" stroke-width="1.13"/><path d="M577.47,149l9.5-9.52" fill="none" stroke="#0090d0" stroke-linecap="round" stroke-miterlimit="10" stroke-width="1.13"/><path d="M535.09,191.38l7.84-7.84" fill="none" stroke="#0090d0" stroke-linecap="round" stroke-miterlimit="10" stroke-width="1.13"/><path d="M516,210.43l6.72-6.72" fill="none" stroke="#0090d0" stroke-linecap="round" stroke-miterlimit="10" stroke-width="1.13"/><path d="M583.26,151.48l6.62-6.53" fill="none" stroke="#0090d0" stroke-linecap="round" stroke-miterlimit="10" stroke-width="1.13"/><path d="M535.69,199.08l10.5-10.5" fill="none" stroke="#0090d0" stroke-linecap="round" stroke-miterlimit="10" stroke-width="1.13"/><path d="M522.42,212.35l5-5" fill="none" stroke="#0090d0" stroke-linecap="round" stroke-miterlimit="10" stroke-width="1.13"/><path d="M589.26,154.19l4.43-4.44" fill="none" stroke="#0090d0" stroke-linecap="round" stroke-miterlimit="10" stroke-width="1.29"/><path d="M538,205l3.56-3.56" fill="none" stroke="#0090d0" stroke-linecap="round" stroke-miterlimit="10" stroke-width="1.13"/><path d="M525.38,217.68l3.25-3.25" fill="none" stroke="#0090d0" stroke-linecap="round" stroke-miterlimit="10" stroke-width="1.13"/><path d="M595.61,155.74l3.91-3.91" fill="none" stroke="#0090d0" stroke-linecap="round" stroke-miterlimit="10" stroke-width="1.24"/><path d="M540.61,210.74l2.16-2.16" fill="none" stroke="#0090d0" stroke-linecap="round" stroke-miterlimit="10" stroke-width="1.13"/><path d="M529.27,222.07l2.51-2.51" fill="none" stroke="#0090d0" stroke-linecap="round" stroke-miterlimit="10" stroke-width="1.13"/><path d="M601.59,158.19l4.45-4.4" fill="none" stroke="#0090d0" stroke-linecap="round" stroke-miterlimit="10" stroke-width="1.21"/><path d="M543.21,215.54L545,213.7" fill="none" stroke="#0090d0" stroke-linecap="round" stroke-miterlimit="10" stroke-width="1.13"/><path d="M532.95,226.13l2.59-2.67" fill="none" stroke="#0090d0" stroke-linecap="round" stroke-miterlimit="10" stroke-width="1.13"/><path d="M607.75,160.14l3.28-3.33" fill="none" stroke="#0090d0" stroke-linecap="round" stroke-miterlimit="10" stroke-width="1.21"/><path d="M546.53,220.94l2-2" fill="none" stroke="#0090d0" stroke-linecap="round" stroke-miterlimit="10" stroke-width="1.13"/><path d="M537.1,230.26l2-2" fill="none" stroke="#0090d0" stroke-linecap="round" stroke-miterlimit="10" stroke-width="1.13"/><path d="M612.37,163.77l3.31-3.36" fill="none" stroke="#0090d0" stroke-linecap="round" stroke-miterlimit="10" stroke-width="1.21"/><path d="M550.28,225.7l3.18-3.13" fill="none" stroke="#0090d0" stroke-linecap="round" stroke-miterlimit="10" stroke-width="1.13"/><path d="M541.44,234.48l1.83-1.83" fill="none" stroke="#0090d0" stroke-linecap="round" stroke-miterlimit="10" stroke-width="1.13"/><path d="M615.56,169.3l3.31-3.35" fill="none" stroke="#0090d0" stroke-linecap="round" stroke-miterlimit="10" stroke-width="1.22"/><path d="M555,229.48l3.92-3.92" fill="none" stroke="#0090d0" stroke-linecap="round" stroke-miterlimit="10" stroke-width="1.13"/><path d="M545.79,238.71l3.07-3.07" fill="none" stroke="#0090d0" stroke-linecap="round" stroke-miterlimit="10" stroke-width="1.13"/><path d="M616.52,176.1l4.68-5" fill="none" stroke="#0090d0" stroke-linecap="round" stroke-miterlimit="10" stroke-width="1.2"/><path d="M562.76,230l3.92-3.92" fill="none" stroke="#0090d0" stroke-linecap="round" stroke-miterlimit="10" stroke-width="1.13"/><path d="M550.28,242.51l2.39-2.39" fill="none" stroke="#0090d0" stroke-linecap="round" stroke-miterlimit="10" stroke-width="1.13"/><path d="M571.61,229.46l5-5" fill="none" stroke="#0090d0" stroke-linecap="round" stroke-miterlimit="10" stroke-width="1.13"/><path d="M554,247.09l2.49-2.49" fill="none" stroke="#0090d0" stroke-linecap="round" stroke-miterlimit="10" stroke-width="1.13"/><path d="M582.15,227.22l5-5" fill="none" stroke="#0090d0" stroke-linecap="round" stroke-miterlimit="10" stroke-width="1.13"/><path d="M448.58,112q10.12-10.36,20.29-20.68" fill="none" stroke="#0090d0" stroke-linecap="round" stroke-miterlimit="10" stroke-width="1.13"/><path d="M472.33,96.32l5.58-5.56" fill="none" stroke="#0090d0" stroke-linecap="round" stroke-miterlimit="10" stroke-width="1.13"/><path d="M482.36,94.29q2-2.17,4.1-4.32" fill="none" stroke="#0090d0" stroke-linecap="round" stroke-miterlimit="10" stroke-width="1.13"/><path d="M458,119.28q7.1-7.4,14.29-14.71" fill="none" stroke="#0090d0" stroke-linecap="round" stroke-miterlimit="10" stroke-width="1.13"/><path d="M491.31,94.36l3.83-3.82" fill="none" stroke="#0090d0" stroke-linecap="round" stroke-miterlimit="10" stroke-width="1.13"/><path d="M460.7,124.87L483,102.67" fill="none" stroke="#0090d0" stroke-linecap="round" stroke-miterlimit="10" stroke-width="1.13"/><path d="M498,95.87l2.82-2.74" fill="none" stroke="#0090d0" stroke-linecap="round" stroke-miterlimit="10" stroke-width="1.13"/><path d="M464.72,129.49q13.35-13.44,26.61-27" fill="none" stroke="#0090d0" stroke-linecap="round" stroke-miterlimit="10" stroke-width="1.13"/><path d="M505.19,97l2.8-2.68" fill="none" stroke="#0090d0" stroke-linecap="round" stroke-miterlimit="10" stroke-width="1.13"/><path d="M470.16,131.75q14.15-14.06,28.33-28.09" fill="none" stroke="#0090d0" stroke-linecap="round" stroke-miterlimit="10" stroke-width="1.13"/><path d="M512.35,98.2q2.77-2.59,5.52-5.2" fill="none" stroke="#0090d0" stroke-linecap="round" stroke-miterlimit="10" stroke-width="1.13"/><path d="M473.52,136.74q16-16.06,32.14-32" fill="none" stroke="#0090d0" stroke-linecap="round" stroke-miterlimit="10" stroke-width="1.13"/><path d="M519,99.75l3.91-3.92" fill="none" stroke="#0090d0" stroke-linecap="round" stroke-miterlimit="10" stroke-width="1.13"/><path d="M471,147.64l41.24-41.19" fill="none" stroke="#0090d0" stroke-linecap="round" stroke-miterlimit="10" stroke-width="1.13"/><path d="M434.14,184.05q3-2.94,6-5.86" fill="none" stroke="#0090d0" stroke-linecap="round" stroke-miterlimit="10" stroke-width="1.13"/><path d="M523.92,103.12l2.79-2.74" fill="none" stroke="#0090d0" stroke-linecap="round" stroke-miterlimit="10" stroke-width="1.13"/><path d="M469.57,157.43q24.59-24.73,49.33-49.31" fill="none" stroke="#0090d0" stroke-linecap="round" stroke-miterlimit="10" stroke-width="1.13"/><path d="M436.93,189.54c8.37-8.41,16.83-16.73,25.45-24.88" fill="none" stroke="#0090d0" stroke-linecap="round" stroke-miterlimit="10" stroke-width="1.13"/><path d="M527.72,107.63l3.28-3" fill="none" stroke="#0090d0" stroke-linecap="round" stroke-miterlimit="10" stroke-width="1.13"/><path d="M441.14,193.61c28.39-26.34,54.48-55.82,82.7-82.14" fill="none" stroke="#0090d0" stroke-linecap="round" stroke-miterlimit="10" stroke-width="1.13"/><path d="M532.27,111.33l4.3-4.3" fill="none" stroke="#0090d0" stroke-linecap="round" stroke-miterlimit="10" stroke-width="1.13"/><path d="M510.36,133.24L527.9,115.7" fill="none" stroke="#0090d0" stroke-linecap="round" stroke-miterlimit="10" stroke-width="1.13"/><path d="M535.25,116.16l4.82-5" fill="none" stroke="#0090d0" stroke-linecap="round" stroke-miterlimit="10" stroke-width="1.13"/><path d="M519.08,132.75q5.64-5.82,11.32-11.6" fill="none" stroke="#0090d0" stroke-linecap="round" stroke-miterlimit="10" stroke-width="1.13"/><path d="M537.47,123.07l3.3-3.3" fill="none" stroke="#0090d0" stroke-linecap="round" stroke-miterlimit="10" stroke-width="1.13"/><path d="M524.13,136.11l7.24-7" fill="none" stroke="#0090d0" stroke-linecap="round" stroke-miterlimit="10" stroke-width="1.13"/><path d="M538.58,129.91l5.48-5.47" fill="none" stroke="#0090d0" stroke-linecap="round" stroke-miterlimit="10" stroke-width="1.13"/><path d="M526.84,141.62l5-5" fill="none" stroke="#0090d0" stroke-linecap="round" stroke-miterlimit="10" stroke-width="1.13"/><path d="M543.51,133.24l6.15-6" fill="none" stroke="#0090d0" stroke-linecap="round" stroke-miterlimit="10" stroke-width="1.13"/><path d="M512.17,164.65Q524,153,535.69,141.06" fill="none" stroke="#0090d0" stroke-linecap="round" stroke-miterlimit="10" stroke-width="1.13"/><path d="M492.79,183.62l8.87-8.66" fill="none" stroke="#0090d0" stroke-linecap="round" stroke-miterlimit="10" stroke-width="1.13"/><path d="M474.65,201.33q5.5-5.39,11-10.76" fill="none" stroke="#0090d0" stroke-linecap="round" stroke-miterlimit="10" stroke-width="1.13"/><path d="M550.68,134.36q2.86-3,5.74-6.07" fill="none" stroke="#0090d0" stroke-linecap="round" stroke-miterlimit="10" stroke-width="1.13"/><path d="M507.49,177.9q4.41-4.34,8.8-8.7" fill="none" stroke="#0090d0" stroke-linecap="round" stroke-miterlimit="10" stroke-width="1.13"/><path d="M482.62,202.23l11.13-10.87" fill="none" stroke="#0090d0" stroke-linecap="round" stroke-miterlimit="10" stroke-width="1.13"/><path d="M479.08,164.52l11.16-11.17" fill="none" stroke="#0090d0" stroke-linecap="round" stroke-miterlimit="10" stroke-width="1.13"/><path d="M447.46,196.14l20.46-20.47" fill="none" stroke="#0090d0" stroke-linecap="round" stroke-miterlimit="10" stroke-width="1.13"/><path d="M487.41,164.4l6.65-6.58" fill="none" stroke="#0090d0" stroke-linecap="round" stroke-miterlimit="10" stroke-width="1.13"/><path d="M454,197.62q8.66-8.64,17.33-17.27" fill="none" stroke="#0090d0" stroke-linecap="round" stroke-miterlimit="10" stroke-width="1.13"/><path d="M494.77,165.47q2.68-2.79,5.34-5.61" fill="none" stroke="#0090d0" stroke-linecap="round" stroke-miterlimit="10" stroke-width="1.13"/><path d="M462.19,198q7.7-7.51,15.35-15.07" fill="none" stroke="#0090d0" stroke-linecap="round" stroke-miterlimit="10" stroke-width="1.13"/><path d="M503.34,165.15l14-14" fill="none" stroke="#0090d0" stroke-linecap="round" stroke-miterlimit="10" stroke-width="1.13"/><path d="M483.17,185.36l2.8-2.81" fill="none" stroke="#0090d0" stroke-linecap="round" stroke-miterlimit="10" stroke-width="1.13"/><path d="M469.27,199.26l10.08-10.09" fill="none" stroke="#0090d0" stroke-linecap="round" stroke-miterlimit="10" stroke-width="1.13"/><path d="M467.93,175.67c-0.09.62-1.62,0.35-2,.31a3.67,3.67,0,0,1-2.28-1.17c-1.28-1.39-1.23-3.75-.59-5.42a6.09,6.09,0,0,1,3.7-3.7,4.82,4.82,0,0,1,2.72.05,5.39,5.39,0,0,1,1.9,1C467.28,168.85,467.53,172.29,467.93,175.67Z" fill="#fff" stroke="#0090d0" stroke-linecap="round" stroke-miterlimit="10" stroke-width="2"/><path d="M184,150.89l0-.05c0.65-5.17-1-9-5.67-11a26.19,26.19,0,0,0,4.54-14.08c10.7-7.09,10.45-21.38,6.8-37.92,4.82-4.41,3.91-12.82.19-17,6.81-4.22,9.29-10.34,5.55-20.33-11.87-.86-30.32,6.14-36.81,13.72-10.83-1.71-26.35,8.3-31.4,25.26-14.57,3-23,37.2-10.11,47.28,0,13.48,9.41,25.31,16.44,25.32,7.8,9.91,18.54,16,34.89,14.74A64.39,64.39,0,0,1,184,150.89Z" fill="#b4efec"/><path d="M189.7,87.87c4.82-4.41,3.91-12.82.19-17,6.81-4.22,9.29-10.34,5.55-20.33-11.87-.86-30.32,6.14-36.81,13.72-10.83-1.71-26.35,8.3-31.4,25.26,11.22-3.88,21-1.91,29.69,5C167.26,88.09,178.15,85.66,189.7,87.87Z" fill="#25c5c7"/><path d="M115.66,100.07c-6.2,11.76-7.31,29.82,1.46,36.69,2.69-6.59,7-10.76,13.68-11.44-2-7.9.56-14.19,7.57-18.87C132.91,99.52,126.57,94.82,115.66,100.07Z" fill="#84d1cb"/><path d="M349.93,174.4c-0.47,37.23-24,59.67-62.8,54.89-12.51-2.8-22.83-11.86-22.92-27.78" fill="none" stroke="#0090d0" stroke-linecap="round" stroke-miterlimit="10" stroke-width="2.27"/><path d="M255.31,186.4c0.69,11.15,13.91,20.67,23.61,22.25" fill="none" stroke="#0090d0" stroke-linecap="round" stroke-miterlimit="10" stroke-width="2.27"/><path d="M323.53,125.1c3.82,8.7,1.49,14.62-2.69,19.69,3.14,19.92-15.38,33.53-25.79,31.55-4.35,3.35-9.67,4.34-15.4,4.33-7.24,5.66-17.49,6.73-29.4,5.26-4,5.3-12,10-19.09,10.38a14.73,14.73,0,0,1-4.93-1c-9.6,13.63-22.55,5-25.57,1-9.64,5.86-38-.86-32.21-19.49,10.66-34.52,48.84-51.53,60.91-37.79" fill="none" stroke="#0090d0" stroke-linecap="round" stroke-miterlimit="10" stroke-width="2.27"/><path d="M163.8,157.83c-13,1.54-20.17-1.68-25.52-10.47-4.83,1-16-.9-21.16-10.6-12.87-10.08-4.46-44.27,10.11-47.28,5.05-17,20.57-27,31.4-25.26,6.5-7.58,24.94-14.59,36.81-13.72,14.19-8,30.57-10.81,51.64-7.13,26.27-5,75.76,10.38,82,28.21,11.4,7.12,22.82,18.08,24.1,31.65,0,0,15.49,12.24,16.21,32.09,0.23,6.44,7.22,9.47.25,26.35s-19.71,12.74-19.71,12.74c-5.07,1.82-21.68,2.42-29.1-3.56-3.35.45-6-.13-7.57-2.32" fill="none" stroke="#0090d0" stroke-linecap="round" stroke-miterlimit="10" stroke-width="2.27"/><path d="M117.12,136.76c0,13.48,9.41,25.31,16.44,25.32,7.8,9.91,18.54,16,34.89,14.74" fill="none" stroke="#0090d0" stroke-linecap="round" stroke-miterlimit="10" stroke-width="2.27"/><line x1="302.63" y1="247.82" x2="287.14" y2="229.29" fill="none" stroke="#0090d0" stroke-linecap="round" stroke-miterlimit="10" stroke-width="2.27"/><path d="M231.16,196.31c2.89,6.6,14,17.3,24.14,14.61,2.3,8.77,21.07,23.62,33.07,36.9" fill="none" stroke="#0090d0" stroke-linecap="round" stroke-miterlimit="10" stroke-width="2.27"/><path d="M225.61,152.32c-0.45-17,24.58-37.43,38.61-31.38,2.65-6.89,6.89-11.6,14-12.37-0.71-8.74,1.37-15.67,6.36-20.71" fill="none" stroke="#0090d0" stroke-linecap="round" stroke-miterlimit="10" stroke-width="2.27"/><path d="M189.7,87.87c3.65,16.53,3.9,30.83-6.8,37.92a26.19,26.19,0,0,1-4.54,14.08c4.64,2,6.32,5.81,5.67,11" fill="none" stroke="#0090d0" stroke-linecap="round" stroke-miterlimit="10" stroke-width="2.27"/><path d="M183.19,141.38q9.13-9.33,18.3-18.62" fill="none" stroke="#0090d0" stroke-linecap="round" stroke-miterlimit="10" stroke-width="1.13"/><path d="M170.1,154.62q-9.72,10.13-19.41,20.16" fill="none" stroke="#0090d0" stroke-linecap="round" stroke-miterlimit="10" stroke-width="1.13"/><path d="M218,133.06l2.75-2.74" fill="none" stroke="#0090d0" stroke-linecap="round" stroke-miterlimit="10" stroke-width="1.13"/><path d="M167.69,181.89c1.9-1.84,3.8-3.69,5.72-5.51" fill="none" stroke="#0090d0" stroke-linecap="round" stroke-miterlimit="10" stroke-width="1.13"/><path d="M224.67,134.65q2.37-2.51,4.76-5" fill="none" stroke="#0090d0" stroke-linecap="round" stroke-miterlimit="10" stroke-width="1.13"/><path d="M176.79,181.58c-2.31,2.37-4.65,4.73-7,7.09" fill="none" stroke="#0090d0" stroke-linecap="round" stroke-miterlimit="10" stroke-width="1.13"/><path d="M198,185.16q-6.32,6.24-12.55,12.61" fill="none" stroke="#0090d0" stroke-linecap="round" stroke-miterlimit="10" stroke-width="1.13"/><path d="M209.89,190l-7.81,7.8" fill="none" stroke="#0090d0" stroke-linecap="round" stroke-miterlimit="10" stroke-width="1.13"/><path d="M228.74,196.06l13.15-13.14" fill="none" stroke="#0090d0" stroke-linecap="round" stroke-miterlimit="10" stroke-width="1.13"/><path d="M264.11,177.28c-9,9.15-18,18.09-27,27" fill="none" stroke="#0090d0" stroke-linecap="round" stroke-miterlimit="10" stroke-width="1.13"/><path d="M192.06,100.13q1.63-1.54,3.24-3.11" fill="none" stroke="#0090d0" stroke-linecap="round" stroke-miterlimit="10" stroke-width="1.13"/><path d="M146.52,145.67q-8.23,7.72-16.29,15.61" fill="none" stroke="#0090d0" stroke-linecap="round" stroke-miterlimit="10" stroke-width="1.13"/><path d="M181.17,135.87l18-18" fill="none" stroke="#0090d0" stroke-linecap="round" stroke-miterlimit="10" stroke-width="1.13"/><path d="M163.87,153.18l-19,19" fill="none" stroke="#0090d0" stroke-linecap="round" stroke-miterlimit="10" stroke-width="1.13"/><path d="M207.16,134.79l3.92-3.92" fill="none" stroke="#0090d0" stroke-linecap="round" stroke-miterlimit="10" stroke-width="1.13"/><path d="M165.2,177q4.22-4.31,8.41-8.65" fill="none" stroke="#0090d0" stroke-linecap="round" stroke-miterlimit="10" stroke-width="1.13"/><path d="M229.09,137.45q9.32-8.91,18.53-17.94" fill="none" stroke="#0090d0" stroke-linecap="round" stroke-miterlimit="10" stroke-width="1.13"/><path d="M181.17,185.39c-2.52,2.44-5,4.91-7.53,7.36" fill="none" stroke="#0090d0" stroke-linecap="round" stroke-miterlimit="10" stroke-width="1.13"/><path d="M255.23,119.87q5.27-5.1,10.52-10.21" fill="none" stroke="#0090d0" stroke-linecap="round" stroke-miterlimit="10" stroke-width="1.13"/><path d="M188.47,186.57q-5,4.48-9.8,9.12" fill="none" stroke="#0090d0" stroke-linecap="round" stroke-miterlimit="10" stroke-width="1.13"/><path d="M203.35,188.33c-3.3,3.33-6.61,6.63-9.91,10" fill="none" stroke="#0090d0" stroke-linecap="round" stroke-miterlimit="10" stroke-width="1.13"/><path d="M218.14,190.19q-5.42,5.54-10.91,11" fill="none" stroke="#0090d0" stroke-linecap="round" stroke-miterlimit="10" stroke-width="1.13"/><path d="M332,184q11.54-11.65,23.13-23.24" fill="none" stroke="#0090d0" stroke-linecap="round" stroke-miterlimit="10" stroke-width="1.13"/><path d="M312.59,203.4c-11.67,11.37-22.88,22.93-34.11,34.29" fill="none" stroke="#0090d0" stroke-linecap="round" stroke-miterlimit="10" stroke-width="1.13"/><path d="M340.37,158.76q-10.5,10.58-20.94,21.22" fill="none" stroke="#0090d0" stroke-linecap="round" stroke-miterlimit="10" stroke-width="1.13"/><path d="M301.71,197.7c-10.09,10.83-21.05,21.13-31.91,31.55" fill="none" stroke="#0090d0" stroke-linecap="round" stroke-miterlimit="10" stroke-width="1.13"/><path d="M321.31,153.24l6.06-6" fill="none" stroke="#0090d0" stroke-linecap="round" stroke-miterlimit="10" stroke-width="1.13"/><path d="M307.11,167.44C290.17,183.21,274,199.57,257.89,216" fill="none" stroke="#0090d0" stroke-linecap="round" stroke-miterlimit="10" stroke-width="1.13"/><line x1="340.69" y1="208.46" x2="327.29" y2="221.86" fill="none" stroke="#0090d0" stroke-linecap="round" stroke-miterlimit="10" stroke-width="1.13"/><line x1="301.33" y1="247.82" x2="302.04" y2="247.11" fill="none" stroke="#0090d0" stroke-linecap="round" stroke-miterlimit="10" stroke-width="1.13"/><path d="M367.73,156q-15.32,15.28-30.34,30.85" fill="none" stroke="#0090d0" stroke-linecap="round" stroke-miterlimit="10" stroke-width="1.13"/><path d="M294.63,229.89Q307,217.51,319.18,205.1" fill="none" stroke="#0090d0" stroke-linecap="round" stroke-miterlimit="10" stroke-width="1.13"/><path d="M282.65,241.81l8.16-8.12" fill="none" stroke="#0090d0" stroke-linecap="round" stroke-miterlimit="10" stroke-width="1.13"/><path d="M311.68,179.44q12-11.57,23.85-23.29" fill="none" stroke="#0090d0" stroke-linecap="round" stroke-miterlimit="10" stroke-width="1.13"/><path d="M297.48,193.64c-11.25,9.82-21.73,20.46-32,31.22" fill="none" stroke="#0090d0" stroke-linecap="round" stroke-miterlimit="10" stroke-width="1.13"/><path d="M347.32,193.53c-2.05,2.06-4.11,4.11-6.16,6.17" fill="none" stroke="#0090d0" stroke-linecap="round" stroke-miterlimit="10" stroke-width="1.13"/><path d="M294,247.82q2.41-2.3,4.76-4.64" fill="none" stroke="#0090d0" stroke-linecap="round" stroke-miterlimit="10" stroke-width="1.13"/><path d="M337,203.89c-8.44,7.75-16.08,15.94-23.66,24" fill="none" stroke="#0090d0" stroke-linecap="round" stroke-miterlimit="10" stroke-width="1.13"/><path d="M287,171c-13.26,13.13-26.19,26.46-39.14,39.7" fill="none" stroke="#0090d0" stroke-linecap="round" stroke-miterlimit="10" stroke-width="1.13"/><path d="M230.63,185.83c-5.7,5.52-11.35,11.17-17,16.89" fill="none" stroke="#0090d0" stroke-linecap="round" stroke-miterlimit="10" stroke-width="1.13"/><path d="M302.86,180q14.07-14.13,28.25-28.14" fill="none" stroke="#0090d0" stroke-linecap="round" stroke-miterlimit="10" stroke-width="1.13"/><path d="M261.78,220.91q16.44-16.43,33.12-33" fill="none" stroke="#0090d0" stroke-linecap="round" stroke-miterlimit="10" stroke-width="1.13"/><path d="M274.57,175.11c-10.7,11.18-21.68,22.08-32.69,32.89" fill="none" stroke="#0090d0" stroke-linecap="round" stroke-miterlimit="10" stroke-width="1.13"/><path d="M296.06,170.19c-13.13,13.9-26.92,27.33-40.75,40.76" fill="none" stroke="#0090d0" stroke-linecap="round" stroke-miterlimit="10" stroke-width="1.13"/><path d="M256.63,176.47q-11.77,11.61-23.39,23.37" fill="none" stroke="#0090d0" stroke-linecap="round" stroke-miterlimit="10" stroke-width="1.13"/><path d="M368.43,164.24l-9.56,9.52" fill="none" stroke="#0090d0" stroke-linecap="round" stroke-miterlimit="10" stroke-width="1.13"/><path d="M349.35,183.25c-2.7,2.69-5.41,5.38-8.1,8.07" fill="none" stroke="#0090d0" stroke-linecap="round" stroke-miterlimit="10" stroke-width="1.13"/><path d="M302.84,229.7l23.91-23.88" fill="none" stroke="#0090d0" stroke-linecap="round" stroke-miterlimit="10" stroke-width="1.13"/><path d="M286.63,245.92l7.85-7.85" fill="none" stroke="#0090d0" stroke-linecap="round" stroke-miterlimit="10" stroke-width="1.13"/><path d="M347,160.66l-20.61,20.66" fill="none" stroke="#0090d0" stroke-linecap="round" stroke-miterlimit="10" stroke-width="1.13"/><path d="M306.76,200.95c-10.61,11.21-21.29,22.12-32.21,32.93" fill="none" stroke="#0090d0" stroke-linecap="round" stroke-miterlimit="10" stroke-width="1.13"/><path d="M112.42,130l3.34-3.35" fill="none" stroke="#0090d0" stroke-linecap="round" stroke-miterlimit="10" stroke-width="1.13"/><path d="M112.16,122l-1.24,1.24" fill="none" stroke="#0090d0" stroke-linecap="round" stroke-miterlimit="10" stroke-width="1.13"/><path d="M129.5,137.82c-3.45,3.33-6.86,6.68-10.28,10" fill="none" stroke="#0090d0" stroke-linecap="round" stroke-miterlimit="10" stroke-width="1.13"/><path d="M140.75,143.14q-7.34,7.61-14.76,15.19" fill="none" stroke="#0090d0" stroke-linecap="round" stroke-miterlimit="10" stroke-width="1.13"/><path d="M183.24,125.59q6.91-6.91,13.8-13.84" fill="none" stroke="#0090d0" stroke-linecap="round" stroke-miterlimit="10" stroke-width="1.13"/><path d="M156.92,151.7q-8.55,8.39-17.11,16.86" fill="none" stroke="#0090d0" stroke-linecap="round" stroke-miterlimit="10" stroke-width="1.13"/><path d="M183.76,149.35q10.05-10.1,20.07-20.24" fill="none" stroke="#0090d0" stroke-linecap="round" stroke-miterlimit="10" stroke-width="1.13"/><path d="M176.63,156.52q-9.91,9.88-19.71,19.87" fill="none" stroke="#0090d0" stroke-linecap="round" stroke-miterlimit="10" stroke-width="1.13"/><path d="M111.12,114.75l0.1-.1" fill="none" stroke="#0090d0" stroke-linecap="round" stroke-miterlimit="10" stroke-width="1.13"/><path d="M119.06,131.68l-3.57,3.53" fill="none" stroke="#0090d0" stroke-linecap="round" stroke-miterlimit="10" stroke-width="1.13"/><path d="M123.72,135.3l-6.22,6.22" fill="none" stroke="#0090d0" stroke-linecap="round" stroke-miterlimit="10" stroke-width="1.13"/><path d="M135.55,140.06c-4.87,4.22-9.41,8.54-13.81,12.92" fill="none" stroke="#0090d0" stroke-linecap="round" stroke-miterlimit="10" stroke-width="1.13"/><path d="M190.92,109.55q2.46-2.27,4.89-4.58" fill="none" stroke="#0090d0" stroke-linecap="round" stroke-miterlimit="10" stroke-width="1.13"/><path d="M152,148.38q-8.3,8-16.42,16.11" fill="none" stroke="#0090d0" stroke-linecap="round" stroke-miterlimit="10" stroke-width="1.13"/><path d="M201.18,68.12c17.64-10,24.66-22.11,22.53-41.5" fill="none" stroke="#fff" stroke-miterlimit="10" stroke-width="6"/><polygon points="191.97 73.35 207.96 71.29 201.87 67.73 201.94 60.68 191.97 73.35" fill="#fff"/><path d="M414.78,139.11c-17,15.23-26.6,36.19-26.58,58.12" fill="none" stroke="#fff" stroke-miterlimit="10" stroke-width="6"/><polygon points="422.66 132.03 407.48 137.46 414.19 139.63 415.62 146.54 422.66 132.03" fill="#fff"/><path d="M142.9,120.09c17.3,21.74,16.25,46.82,9.19,76.3" fill="none" stroke="#fff" stroke-miterlimit="10" stroke-width="6"/><polygon points="136.3 111.81 140.82 127.28 143.39 120.71 150.36 119.69 136.3 111.81" fill="#fff"/><text transform="translate(440.22 30.32)" font-size="22" fill="#e12900" font-family="Open Sans">I N T E R I O R</text><text transform="translate(55.58 22.29)" font-size="22" fill="#e12900" font-family="Open Sans">D<tspan x="15.95" y="0">o</tspan><tspan x="29.08" y="0">r</tspan><tspan x="38.29" y="0">s</tspan><tspan x="48.73" y="0">o</tspan><tspan x="61.87" y="0">l</tspan><tspan x="67.17" y="0">a</tspan><tspan x="79.33" y="0">t</tspan><tspan x="86.82" y="0">e</tspan><tspan x="99.01" y="0">r</tspan><tspan x="107.78" y="0">a</tspan><tspan x="119.82" y="0">l </tspan><tspan x="131.1" y="0">p</tspan><tspan x="144.43" y="0">r</tspan><tspan x="153.13" y="0">e</tspan><tspan x="165.42" y="0">f</tspan><tspan x="172.68" y="0">o</tspan><tspan x="185.8" y="0">n</tspan><tspan x="199.18" y="0">t</tspan><tspan x="207.26" y="0">a</tspan><tspan x="219.3" y="0">l </tspan><tspan x="230.58" y="0">c</tspan><tspan x="240.69" y="0">o</tspan><tspan x="253.81" y="0">r</tspan><tspan x="263.62" y="0">t</tspan><tspan x="271.11" y="0">e</tspan><tspan x="283.5" y="0">x</tspan></text><text transform="translate(52.97 219.65)" font-size="22" fill="#e12900" font-family="Open Sans">F<tspan x="11.2" y="0">r</tspan><tspan x="19.91" y="0">o</tspan><tspan x="33.03" y="0">n</tspan><tspan x="46.41" y="0">t</tspan><tspan x="53.89" y="0">o</tspan><tspan x="67.01" y="0">p</tspan><tspan x="80.43" y="0">o</tspan><tspan x="93.57" y="0">l</tspan><tspan x="98.87" y="0">a</tspan><tspan x="110.92" y="0">r </tspan><tspan x="0" y="26.4">p</tspan><tspan x="13.33" y="26.4">r</tspan><tspan x="22.03" y="26.4">e</tspan><tspan x="34.33" y="26.4">f</tspan><tspan x="41.59" y="26.4">o</tspan><tspan x="54.71" y="26.4">n</tspan><tspan x="68.08" y="26.4">t</tspan><tspan x="76.16" y="26.4">a</tspan><tspan x="88.2" y="26.4">l </tspan><tspan x="99.48" y="26.4">c</tspan><tspan x="109.59" y="26.4">o</tspan><tspan x="122.71" y="26.4">r</tspan><tspan x="132.52" y="26.4">t</tspan><tspan x="140.02" y="26.4">e</tspan><tspan x="152.4" y="26.4">x</tspan></text><text transform="translate(0.54 121.73)" font-size="22" fill="#e12900" font-family="Open Sans">P<tspan x="12.95" y="0">r</tspan><tspan x="21.65" y="0">e</tspan><tspan x="33.94" y="0">f</tspan><tspan x="41.2" y="0">o</tspan><tspan x="54.32" y="0">n</tspan><tspan x="67.7" y="0">t</tspan><tspan x="75.78" y="0">a</tspan><tspan x="87.82" y="0">l</tspan><tspan x="14.47" y="26.4">c</tspan><tspan x="24.58" y="26.4">o</tspan><tspan x="37.7" y="26.4">r</tspan><tspan x="47.51" y="26.4">t</tspan><tspan x="55" y="26.4">e</tspan><tspan x="67.39" y="26.4">x</tspan></text><text transform="translate(365.28 219.65)" font-size="22" fill="#e12900" font-family="Open Sans">A<tspan x="14.19" y="0">n</tspan><tspan x="27.57" y="0">t</tspan><tspan x="35.07" y="0">e</tspan><tspan x="47.25" y="0">r</tspan><tspan x="56.3" y="0">i</tspan><tspan x="61.63" y="0">o</tspan><tspan x="74.75" y="0">r </tspan><tspan x="0" y="26.4">c</tspan><tspan x="10.32" y="26.4">i</tspan><tspan x="15.64" y="26.4">n</tspan><tspan x="28.94" y="26.4">g</tspan><tspan x="41" y="26.4">ul</tspan><tspan x="59.56" y="26.4">a</tspan><tspan x="71.71" y="26.4">t</tspan><tspan x="79.2" y="26.4">e </tspan><tspan x="97.26" y="26.4">c</tspan><tspan x="107.37" y="26.4">o</tspan><tspan x="120.49" y="26.4">r</tspan><tspan x="130.3" y="26.4">t</tspan><tspan x="137.8" y="26.4">e</tspan><tspan x="150.18" y="26.4">x</tspan></text><path d="M201.18,68.12c17.64-10,24.66-22.11,22.53-41.5" fill="none" stroke="#e12900" stroke-miterlimit="10" stroke-width="2"/><polygon points="195.04 71.61 205.7 70.23 201.64 67.86 201.69 63.16 195.04 71.61" fill="#e12900"/><path d="M414.78,139.11c-17,15.23-26.6,36.19-26.58,58.12" fill="none" stroke="#e12900" stroke-miterlimit="10" stroke-width="2"/><polygon points="420.03 134.39 409.91 138.01 414.38 139.46 415.34 144.06 420.03 134.39" fill="#e12900"/><path d="M142,51C107.3,51,105.6,68.15,105.6,83.37s0.87,32.43-9.53,32.43c11.34,0,9.53,17.17,9.53,32.39s1.69,32.41,36.34,32.41" fill="none" stroke="#e12900" stroke-miterlimit="10" stroke-width="2"/><path d="M142.9,120.09c17.3,21.74,16.25,46.82,9.19,76.3" fill="none" stroke="#e12900" stroke-miterlimit="10" stroke-width="2"/><polygon points="138.5 114.57 141.51 124.88 143.22 120.5 147.88 119.82 138.5 114.57" fill="#e12900"/></svg>