<svg id="Layer_1" data-name="Layer 1" xmlns="http://www.w3.org/2000/svg" viewBox="0 0 135.24 30.15"><defs><style>.cls-1{fill:#c3996b;}.cls-1,.cls-2,.cls-3,.cls-4{stroke:#231f20;stroke-linecap:round;stroke-linejoin:round;}.cls-1,.cls-2,.cls-3{stroke-width:6px;}.cls-2{fill:none;}.cls-3{fill:#ee4036;}.cls-4{fill:#6d6e70;stroke-width:5.2px;}</style></defs><title>3b_Cookies</title><path class="cls-1" d="M51.63,5a14.74,14.74,0,0,1,6.43,4.56,7.56,7.56,0,0,1,1.1,7.52c-1.88,4-7.18,4.63-11.59,4.73-6.19.13-34.86,3.15-27.26-10.31C25.59,2.15,43.17,1.41,51.63,5Z"/><path class="cls-2" d="M45.87,10.92l-.26-1.18"/><path class="cls-2" d="M28.69,12.4l.58-1.19"/><path class="cls-2" d="M36.67,7.7V6.52"/><path class="cls-1" d="M103.8,5a14.74,14.74,0,0,1,6.43,4.56,7.56,7.56,0,0,1,1.1,7.52c-1.88,4-7.18,4.63-11.59,4.73-6.19.13-34.86,3.15-27.26-10.31C77.76,2.15,95.34,1.41,103.8,5Z"/><path class="cls-3" d="M87.83,9.15l.31-.88"/><path class="cls-2" d="M99.32,8.86l.29-1.18"/><polygon class="cls-4" points="132.64 15.59 119.85 27.55 14.93 26.5 2.6 15.33 132.64 15.59"/></svg>