<svg id="Layer_1" data-name="Layer 1" xmlns="http://www.w3.org/2000/svg" viewBox="0 0 567.75 285.18"><defs><style>.cls-1{fill:#a01f12;}.cls-2{fill:#78baef;}.cls-2,.cls-3,.cls-4,.cls-5,.cls-6,.cls-8{stroke:#000;stroke-linecap:round;stroke-linejoin:round;stroke-width:5px;}.cls-3{fill:#a2d0ff;}.cls-4{fill:#a87c4f;}.cls-5{fill:#d86916;}.cls-6{fill:none;}.cls-7,.cls-8{fill:#fff;fill-opacity:0.43;}</style></defs><title>3b_Figure 1_Main</title><path class="cls-1" d="M557.11,262.41H19.19v21.27H557.11a10.63,10.63,0,0,0,10.64-10.63h0A10.64,10.64,0,0,0,557.11,262.41Z"/><path class="cls-2" d="M290.91,139.7l7.08,68c1.1,10.6,3.07,21.45,3.6,32.05.46,9.15.64,16.8,9.32,22.41,7.29,4.71,16.49,5.35,25.14,4.68s17.25-2.5,25.92-2.17c5.06.2,10.26,1.11,15.07-.44,8.26-2.65,12.88-12.48,11.17-21s-8.62-15.33-16.62-18.68-17-3.64-25.6-2.78c.7-25.12,1.4-50.33-1.16-75.32-.93-9.05-2.52-18.58-8.44-25.48a25,25,0,0,0-25.46-7.49"/><path class="cls-3" d="M231.58,161.65c-13.37,1.31-26.76,2.25-40.22,1.66-21.77-.95-43.27-4.87-64.87-7.49-29.9-3.63-49.38-19.06-59.19-49.12-8.86-27.17-12.09-54.94,1.63-81.22C73.29,17.12,79.34,9.21,87.82,5.09c13.51-6.58,24.27.32,33.21,10.29,7.85,8.75,14.74,18.88,25.05,24.53,20.2,11.07,45,1.23,68,1.17,31.07-.09,61.24,20.18,72.9,49,1.29,3.1,17.81,2,20.48,2.08,11,.3,21.67,1.17,32.62,1.94l91,6.44c2.41.17,4.94.31,7.1-.76,2.56-1.27,4-4,5.41-6.48,4.5-8.23,9.84-16.39,17.73-21.44s18.92-6.25,26.41-.61c20.33,15.34-12.18,59.47-19.85,74.2a14.72,14.72,0,0,1-13.59,7.92c-18.06-.64-36.37-.17-54.47-.39a1318,1318,0,0,0-141.61,5.93C249.32,159.75,240.46,160.78,231.58,161.65Z"/><polygon class="cls-4" points="29.18 282.68 15.14 282.68 12.77 246 31.55 246 29.18 282.68"/><polygon class="cls-4" points="300.92 282.68 286.87 282.68 284.5 246 303.28 246 300.92 282.68"/><path class="cls-5" d="M242.25,156.79c.77-10.43.15-25-9-30.09-4.49-2.5-9.94-2.32-15.07-2.06-41.79,2.06-66,4.13-107.75,6.19C95.82,116.89,57.79,40.92,45,16a10.57,10.57,0,0,0-10.34-5.71L2.5,13.11V251.17l313.63-.77.06-83.06a11.24,11.24,0,0,0-11.14-11.25C287.63,155.93,254.67,155.79,242.25,156.79Z"/><path class="cls-3" d="M83,73.87a145.68,145.68,0,0,0,23,42.58c4.31,5.48,8.65,12.25,15.86,13.9,9.49,2.17,21.43.74,31.13.56,15.15-.28,29.69-3,44.84-4.19,9.22-.71,19-3.2,28.21-1.93,4.07.56,8.15,2.69,10,6.36,1.28,2.55,1.35,5.5,1.92,8.29s3.39,8.81,7.22,6.79c6.83-3.61,2.81-22.17,0-27.11"/><path class="cls-6" d="M104.76,47.25c22.93.63,20.2,34.37,36.44,44.35,5.83,3.59,12.9,4.41,19.73,4.92a317.65,317.65,0,0,0,47.59,0c8.12-.6,16.34-1.51,24.35-.08,13.4,2.39,22.46,10.63,25.87,23.63,1,3.74,2.85,23.23-5.63,20.14"/><path class="cls-6" d="M247.31,144.44a3.62,3.62,0,0,0,4.26-1,8.78,8.78,0,0,0,1.82-4.3,35.93,35.93,0,0,0-3-22.81"/><rect class="cls-7" x="404.82" y="101.63" width="16.73" height="16.73" transform="translate(-11.15 162.51) rotate(-21.96)"/><rect class="cls-7" x="403.06" y="107.2" width="16.73" height="16.73" transform="translate(-13.36 162.26) rotate(-21.96)"/><rect class="cls-7" x="418.32" y="107.2" width="16.73" height="16.73" transform="translate(-12.26 167.96) rotate(-21.96)"/><rect class="cls-7" x="426.24" y="93.12" width="16.73" height="16.73" transform="translate(-6.41 169.9) rotate(-21.96)"/><rect class="cls-7" x="395.13" y="94.29" width="16.73" height="16.73" transform="translate(-9.11 158.36) rotate(-21.96)"/><rect class="cls-7" x="413.91" y="86.66" width="16.73" height="16.73" transform="translate(-4.89 164.83) rotate(-21.96)"/><path class="cls-8" d="M391.27,94.42c-12,16.85,7,36.74,24.14,38.57a31.23,31.23,0,0,0,28.47-13.38,32.83,32.83,0,0,0,4-26.26A22.67,22.67,0,0,0,441.12,83c-1.7-1.49-7.4-5.8-9.91-4.78a17.22,17.22,0,0,0,6-3.47c1.64-1.68,2.54-4.31,1.51-6.42-1.6-3.29-6.43-3.16-9.76-1.63s-6.49,4-10.15,3.85c-4.47-.22-9.11-4.35-12.84-1.89-2.71,1.79-2.49,6.12-.41,8.61s5.34,3.6,8.43,4.6c-8.74,1.41-17.47,5.28-22.67,12.45Z"/><path d="M136.89,33c.57.37,1.16.72,1.77,1-3.93.64-8.26-.61-11.86-2.09a22.46,22.46,0,0,1-9.25-6.69c-1.62-2.07-2.18-5.18-.67-7.34a5.44,5.44,0,0,1,6.46-1.65c3.53,1.54,4.16,6,6,9A24.21,24.21,0,0,0,136.89,33Z"/><polygon class="cls-4" points="410.67 282.68 396.62 282.68 394.25 246 413.03 246 410.67 282.68"/><polygon class="cls-4" points="535.97 279.75 521.92 279.75 519.56 243.07 538.34 243.07 535.97 279.75"/><path class="cls-5" d="M426.49,156.21h79a39.58,39.58,0,0,1,39.58,39.58V250.4a0,0,0,0,1,0,0H386.92a0,0,0,0,1,0,0V195.78A39.58,39.58,0,0,1,426.49,156.21Z"/></svg>