<svg id="Layer_1" data-name="Layer 1" xmlns="http://www.w3.org/2000/svg" viewBox="0 0 123.35 125.67"><defs><style>.cls-1{fill:#a2d0ff;stroke:#000;stroke-width:5px;}.cls-1,.cls-2{stroke-linecap:round;stroke-linejoin:round;}.cls-2{fill:none;stroke:#231f20;stroke-width:5px;}</style></defs><title>3b_Figure 1_Head 1</title><path class="cls-1" d="M42.74,120.92C20.27,116.56,6.52,95.06,3.22,73.77A62.93,62.93,0,0,1,14.89,26.84,61.9,61.9,0,0,1,65.53,2.51,55.89,55.89,0,0,1,97.79,13c10.53,7.8,16.73,19.18,19.76,31.77,5.4,22.49,6.21,48.42-13.5,65.08a66.38,66.38,0,0,1-25.13,13.33"/><path class="cls-2" d="M42.3,60.17,36.24,75.32A13,13,0,0,0,35.17,79c-.61,6.88,12.64,10.43,17.42,8.4"/></svg>