<svg id="Layer_1" data-name="Layer 1" xmlns="http://www.w3.org/2000/svg" viewBox="0 0 135.18 125.67"><defs><style>.cls-1{fill:#a2d0ff;stroke:#000;stroke-linecap:round;stroke-linejoin:round;stroke-width:5px;}</style></defs><title>3b_Figure 1_Head 2</title><path class="cls-1" d="M42.74,120.92C20.27,116.56,6.52,95.06,3.22,73.77A62.93,62.93,0,0,1,14.89,26.84,61.9,61.9,0,0,1,65.53,2.51,55.89,55.89,0,0,1,97.79,13c10.53,7.8,16.73,19.18,19.76,31.77,2.09,8.7,3.38,18.22,9.55,24.7,1.74,1.83,3.87,3.4,5,5.67,1.55,3.17-.16,5.86-2.7,7.74-2.81,2.07-7.14,3.25-10.58,3.63-2.81,8.35-8,17.61-14.76,23.34a66.38,66.38,0,0,1-25.13,13.33"/></svg>