<svg id="Layer_1" data-name="Layer 1" xmlns="http://www.w3.org/2000/svg" viewBox="0 0 243.62 206.66"><defs><style>.cls-1{fill:#94c9fa;stroke:#000;stroke-linecap:round;stroke-linejoin:round;stroke-width:10px;}</style></defs><title>3b_Finger_2</title><path class="cls-1" d="M122.6,27.08C89.13,42.55,58.63,64.71,38.24,95,21.72,119.46,8.85,153.33,5.35,182.66c-.65,5.41-.76,11.56,3,15.53,4.62,4.89,12.68,3.93,18.88,1.32,21.87-9.22,34-32.1,50.24-49.45,33-35.28,82.66-36,121.62-61.84C217,76.3,232.37,59,237.4,38c1.34-5.59,1.9-11.59,0-17C231,3.08,196,3.37,181.26,6.91A318.39,318.39,0,0,0,122.6,27.08Z"/></svg>