<svg id="Layer_1" data-name="Layer 1" xmlns="http://www.w3.org/2000/svg" viewBox="0 0 177.37 337.82"><defs><style>.cls-1{fill:#f7df77;stroke:#231f20;stroke-linecap:round;stroke-linejoin:round;stroke-width:6px;}.cls-2{fill:#231f20;}</style></defs><title>3b_Figure 2_Torso</title><path class="cls-1" d="M84.28,20A61.28,61.28,0,0,0,67,8.38c-23.31-10.3-50.07-6.76-59.19,19C-.62,51.1,3.72,79.27,8.93,103.28c4,18.3,8.62,37,7.81,55.85-1,24.24-14.32,47.17-13.72,71.4.52,20.83,2.53,42.79,13,61.38,14.22,25.25,38.39,40.8,67.22,42.67,24.7,1.61,49.09-4.71,66.82-22.79,23.86-24.33,29.33-65.12,20-96.89-10.89-37.14-25.41-73.09-40.64-108.64C118,79.66,107.19,41.59,84.28,20Z"/><path class="cls-2" d="M6.19,81.58a81.49,81.49,0,0,1,16.1-49,10.62,10.62,0,0,0-6.06-8.83C3.65,18,3.05,36.92,2.29,44.72A91.3,91.3,0,0,0,6.19,81.58Z"/></svg>