<svg id="Layer_1" data-name="Layer 1" xmlns="http://www.w3.org/2000/svg" viewBox="0 0 146.4 369.41"><defs><style>.cls-1{fill:#f7df77;stroke:#231f20;stroke-linecap:round;stroke-linejoin:round;stroke-width:6px;}</style></defs><title>3b_Figure 2_Leg 1</title><path class="cls-1" d="M55.07,3C46.34,16,41,30.64,35.58,45.17a293.94,293.94,0,0,0-15.51,61.25,285.22,285.22,0,0,0,9.67,123,266.85,266.85,0,0,0,13.5,34.75c2.18,4.61,11.24,28.23,16.18,29.2-24-4.73-62.18,16.22-55.69,45C5.91,348,13.35,356,22.35,360c18.85,8.54,48.65,6.73,69.11,4.62,17.76-1.84,41.66-7,45.82-27.63,2.23-11.09-1.14-22.45-4.54-33.23C121.36,267.65,109.3,231.49,103.49,194c-4.67-30.13-5.19-61.59,1.23-91.5,6.86-32,24.84-61.22,38.68-90.57"/></svg>