<svg id="Layer_1" data-name="Layer 1" xmlns="http://www.w3.org/2000/svg" viewBox="0 0 173.82 272.89"><defs><style>.cls-1{fill:#e2c54b;}.cls-1,.cls-2{stroke:#231f20;stroke-linecap:round;stroke-linejoin:round;stroke-width:6px;}.cls-2{fill:none;}</style></defs><title>3b_Figure 2_Arm 2</title><path class="cls-1" d="M165.48,35.76a154.6,154.6,0,0,1-12.73,112.77A154,154,0,0,1,107,200.42c-9.44,6.79-20.18,13.58-31.24,17.37-4.36,1.49-31.56,7-31.56,10.77,1.61,4.1,2.83,8.5,2.29,12.87s-3.15,8.7-7.28,10.24-9.56-.63-10.62-4.9c2.67,3.3,5.41,6.74,6.44,10.86s-.16,9.12-3.86,11.21a10.64,10.64,0,0,1-7.64.64C13.34,267,7.25,256.42,4.77,246.24-10.38,184,76.16,173.19,99.52,129c15.79-29.89,5.1-64.73,11.67-96.52C113.73,20.12,121.41,2.4,136.54,3,153.15,3.69,161.76,22.21,165.48,35.76Z"/><path class="cls-2" d="M26.35,220.46c-3.65,2.41-7.45,5-9.53,8.82s-1.77,9.38,1.87,11.82c10.36,7,19.69-13.92,24-19.89,8.6.51,16.66-7.69,16-16.28"/></svg>