<svg id="Layer_1" data-name="Layer 1" xmlns="http://www.w3.org/2000/svg" viewBox="0 0 173.67 173.98"><defs><style>.cls-1{fill:#f7df77;stroke:#231f20;stroke-linecap:round;stroke-linejoin:round;stroke-width:6px;}</style></defs><title>3b_Figure 2_Head</title><path class="cls-1" d="M134.88,156.42c28.49-19.75,42.08-57.86,33-91.17A86,86,0,0,0,114.35,7.78C66.92-8.87,23.89,19.72,12.06,66.6c-4.36,17.26-.17,35.3-5.37,52.2-2.32,7.54-6.27,16.44-1.3,22.58,4.78,5.89,14,4.31,21.27,2.18-.17.05,12.8,13.73,14.38,14.89a64.68,64.68,0,0,0,19.05,9.6,57.8,57.8,0,0,0,21.12,2.81c7-.53,15.09-1.39,21.3-5.05"/></svg>