<svg id="Layer_1" data-name="Layer 1" xmlns="http://www.w3.org/2000/svg" viewBox="0 0 131.54 355.32"><defs><style>.cls-1{fill:#e2c54b;stroke:#231f20;stroke-linecap:round;stroke-linejoin:round;stroke-width:6px;}</style></defs><title>3b_Figure 2_Leg 2</title><path class="cls-1" d="M17,302.21c10.42-7.92,25.43-9.92,40.9-7C51.8,294,45.61,259.44,44.18,253.77c-4.07-16-8-31.9-10.12-48.35-6.29-47.87-5.48-93.47,8.18-140.6,4.55-15.69,9.27-32.88,20.29-45.42C71.35,9.37,84.3,2.48,97.64,3s26.49,9.56,29.91,22.47c2.48,9.38-.15,19.28-2.76,28.63C115.37,87.81,100,123.78,101,158.68c1.09,37.93,2.88,73,15.34,109.41,6.07,17.74,14.48,36,11,54.44C124.51,338,113.12,347.82,97.72,351c-8.07,1.67-16.4,1.36-24.64,1.05l-52.45-2c-3.37-.13-6.87-.29-9.86-1.83-6.74-3.47-8.41-12.42-7.57-20C4.53,316.38,9.62,307.81,17,302.21Z"/></svg>