<svg id="Layer_1" data-name="Layer 1" xmlns="http://www.w3.org/2000/svg" viewBox="0 0 445.29 304.44"><defs><style>.cls-1{fill:#a2d0ff;stroke:#000;stroke-linecap:round;stroke-linejoin:round;stroke-width:10px;}</style></defs><title>3b_Hand</title><path class="cls-1" d="M402.32,24.49C330,5.76,253.38-2.92,180.68,14.23S39.58,77.34,8.34,145.2C6.11,150,4,155.46,5.48,160.6c2,7.29,10.68,11.05,18.2,10.18s14.13-5.19,20.42-9.4c29.45-19.69,59.31-39.89,93.18-50.25C174,99.88,289.9,106.89,267.6,173.77c-2.67,8-8.19,14.73-13.58,21.23l-37.36,45c-7.9,9.52-16.11,19.72-17.84,32s6,26.7,18.36,27.4c5.08.29,10-1.72,14.68-3.7l101-42.44c40.5-17,83.38-36,107.46-72.72"/></svg>