<svg id="Layer_1" data-name="Layer 1" xmlns="http://www.w3.org/2000/svg" viewBox="0 0 111.13 512.37"><defs><style>.cls-1{fill:#f0f8ff;}</style></defs><title>3b_Steam</title><path class="cls-1" d="M23.66,511.48C6.55,496.78,1.58,472,3.6,449.52s9.83-44,13.9-66.17c5.25-28.67-1.89-46.81-11.92-72.56C-9.84,271.18,10.26,241,23,204.1c7-20.33,5.53-36.77-4.23-55.34C9.61,131.37,7.56,111,16.21,92.84,21.9,80.9,31.62,71.1,37.93,59.45c8.57-15.81,12-33.39,6.36-50.87a14.2,14.2,0,0,1-1-4.52A4.15,4.15,0,0,1,45.51.25C47.34-.53,49.37.64,51,1.83c13,9.8,22.33,26.1,24.59,42.24,2.56,18.36-10.78,36.47-9.17,55.17,2,23.05,23.6,37.63,33.5,57,10.94,21.38,13.9,47,6.9,70.11C101.05,245.22,89.22,263,90,282.69c.62,15.86,9.65,30.34,15.36,44.74,6.75,17,7.08,34.8,3.65,52.7-8.67,45.38-32.68,90.8,1.09,132.24"/></svg>