<svg id="Layer_1" data-name="Layer 1" xmlns="http://www.w3.org/2000/svg" viewBox="0 0 28.75 36.27"><defs><style>.cls-1{fill:#fff;}.cls-1,.cls-2{stroke:#231f20;stroke-linecap:round;stroke-linejoin:round;stroke-width:4px;}.cls-2{fill:#f7df77;}</style></defs><title>6_Baby_Arm</title><path class="cls-1" d="M2,33.9A17.37,17.37,0,0,1,14.57,16.37c1.93-.5,4.16-.61,5.76.59,2.45,1.83,2.18,5.58,1.18,8.46S19,31.33,19.87,34.27"/><path class="cls-2" d="M16.67,2.82c1.53-.77,3.43-1.2,4.93-.36s2,3.35.48,4.22A2.45,2.45,0,0,1,26.7,8.22c-.26,1.12-1.25,1.89-1.91,2.84-1.53,2.17-1.25,5.13-2.31,7.57-2.38,5.52-10.08,6.09-12.08.3S11.27,5.55,16.67,2.82Z"/></svg>