<svg id="Layer_1" data-name="Layer 1" xmlns="http://www.w3.org/2000/svg" viewBox="0 0 166.2 177.63"><defs><style>.cls-1{fill:#f7df77;stroke:#231f20;stroke-linecap:round;stroke-linejoin:round;stroke-width:4px;}</style></defs><title>6_Futbol_Fig2_Arm1</title><path class="cls-1" d="M15.73,131.21s22.1,11.44,55.44-31.7,39.35-58.2,39.35-58.2-8.61-5.24-7.77-17.25,9.81-16.33,13.85-3.36S124.45,1.45,132.45,2s.36,21.37.36,21.37S145.82,1.09,152,5.85,140.73,29.5,140.73,29.5s16-11.56,19.5-8.84-1.49,10.27-12.69,15.68c0,0,15.29-6.66,16.62-1.33s-32.71,21.07-32.71,21.07-19.9,43.29-39,66.88C62.28,160.15,26.49,177.53,2,175.46"/></svg>