<svg id="Layer_1" data-name="Layer 1" xmlns="http://www.w3.org/2000/svg" viewBox="0 0 158.23 103.64"><defs><style>.cls-1{fill:#a2d0ff;stroke:#000;stroke-linecap:round;stroke-linejoin:round;stroke-width:4px;}.cls-2{fill:red;}</style></defs><title>6_Futbol_Fig1_Leg2</title><path class="cls-1" d="M156.23,24.16S67.61-11.2,57.37,7.41,38.76,63.24,38.76,63.24,2.94,55.1,2,82.08,52.72,102.32,59.23,95.8,79.7,39.05,79.7,39.05l47.22,13.72"/><path class="cls-2" d="M66.17,5.85c.35,1.66.69,3.16,1.09,4.61a26.49,26.49,0,0,0,1.51,4.09,21.31,21.31,0,0,0,2.16,3.74c.39.64.9,1.19,1.36,1.83s1,1.18,1.53,1.91a9.85,9.85,0,0,1-4.6-2.12A10.92,10.92,0,0,1,66,15.8a11.85,11.85,0,0,1-1.11-5A9.77,9.77,0,0,1,66.17,5.85Z"/><path class="cls-2" d="M60.68,10c.45,1.43.82,2.69,1.23,3.92a35.13,35.13,0,0,0,1.35,3.49A30.4,30.4,0,0,0,65,20.66c.62,1.13,1.4,2.18,2.15,3.5a8.32,8.32,0,0,1-3.94-2,9.93,9.93,0,0,1-2.66-3.61,10.68,10.68,0,0,1-.93-4.36A8.21,8.21,0,0,1,60.68,10Z"/><path class="cls-2" d="M71,9.45c-2.83,1.9-5.55,3.28-8.13,4.89-1.27.8-2.5,1.62-3.7,2.53a37.38,37.38,0,0,0-3.46,3.22,8.85,8.85,0,0,1,1.75-4.84,14.1,14.1,0,0,1,3.84-3.47,16.79,16.79,0,0,1,4.67-2A13.09,13.09,0,0,1,71,9.45Z"/><path class="cls-2" d="M74.43,14.22c-2.84,1.89-5.56,3.28-8.13,4.88-1.27.81-2.5,1.63-3.7,2.54a37.33,37.33,0,0,0-3.47,3.22A8.86,8.86,0,0,1,60.89,20a14.21,14.21,0,0,1,3.83-3.47,17.25,17.25,0,0,1,4.67-2A13.33,13.33,0,0,1,74.43,14.22Z"/></svg>