<svg id="Layer_1" data-name="Layer 1" xmlns="http://www.w3.org/2000/svg" viewBox="0 0 114.55 215.66"><defs><style>.cls-1{fill:#f7df77;stroke:#231f20;stroke-linecap:round;stroke-linejoin:round;stroke-width:4px;}</style></defs><title>6_Futbol_Fig2_Arm2</title><path class="cls-1" d="M44.35,182.52s-19.7-15.19,5.32-63.63S85.81,58.64,85.81,58.64s8.38,5.59,18.91-.25,10.66-15.78-2.8-14,14.14-15.24,10.25-22.26-19.53,8.7-19.53,8.7,14.72-21.21,7.8-24.78S83.75,26.26,83.75,26.26s4.4-22,.45-24-9.82,10.17-10,22.61c0,0,1.33-23.28-4-22.61s-6.65,43.68-6.65,43.68S32.75,82.23,19.44,109.53c-21,43-21.62,82.81-9.4,104.13"/></svg>