<svg id="Layer_1" data-name="Layer 1" xmlns="http://www.w3.org/2000/svg" viewBox="0 0 440.53 523.22"><defs><style>.cls-1{fill:#25a9e0;}.cls-1,.cls-2,.cls-3,.cls-5{stroke:#231f20;stroke-linecap:round;stroke-linejoin:round;stroke-width:4px;}.cls-2{fill:#fff;}.cls-3{fill:none;}.cls-4,.cls-5{fill:#74d1a2;}</style></defs><title>6_Momma_Main</title><path class="cls-1" d="M59.67,285.3c.62-4.28,15.91-114.41,15.91-114.41H343l17.13,109.52Z"/><path class="cls-2" d="M96,184.21a7.73,7.73,0,0,1-.83-6.92c1.37-3.53,4.65-5.88,7.77-8C91.59,136.73,86.11,99.44,94,65.56c3.64-15.51,10.81-30.64,22.78-41.15-4.92-.31-8.18-6.13-7-10.91S115.48,5.31,120.22,4s9.77-1,14.68-.73A1369.8,1369.8,0,0,0,322.78,2.09c5-.38,11.63.24,12.94,5.12,1.11,4.15-2.7,7.84-6.12,10.45a219.41,219.41,0,0,1-12,146.29c4.18-2.86,10.42,1.73,10.23,6.78s-4.88,9-9.81,10.14-10.07.07-15-.9c-16.59,0-34.54-5.69-51.28-7.08a500.62,500.62,0,0,0-53.81-1.53c-16.94.42-33.82,2.54-50.69,3-14.94.41-29.53,6.79-43.85,11.27a9.54,9.54,0,0,1-4.11.64A4.76,4.76,0,0,1,96,184.21Z"/><path class="cls-3" d="M267.32,60.14a78.46,78.46,0,0,1,31.44-33.26"/><path class="cls-3" d="M280,78.62a35.81,35.81,0,0,1,21-32"/><path class="cls-3" d="M153.5,23.7a97.66,97.66,0,0,1,26.87,58.87"/><path class="cls-3" d="M147.59,44.13a129.25,129.25,0,0,1,13.87,38.5"/><path class="cls-3" d="M118.91,158.63A191.44,191.44,0,0,0,139.11,120"/><path class="cls-2" d="M397.42,334.54c-2.38-12.71-4.75-25.43-8.1-37.92-6.54-24.4-16.7-47.65-26.83-70.8-2.25-5.13-4.59-10.41-8.61-14.31-4.37-4.23-10.27-6.41-16-8.49-29.2-10.57-61-27.33-91.82-30-23.8-2.1-48-8.68-71.2-3-17.15,4.2-29.42,13.59-42,25.1A201,201,0,0,1,86.29,227c-8.64,4.27-17.79,8.07-24.62,14.85-9.34,9.27-13,22.69-16,35.49C36.17,317.16,7.28,480.63,2,521.22H438.29C442,500.11,401.32,355.43,397.42,334.54Z"/><path class="cls-4" d="M244.85,183.57q-19,.85-38.06,1c-5.11,0-10-.66-15-.86-5.58-.21-11.26,1.72-16.91,1.82A29.56,29.56,0,0,1,163.47,184c-10.73-4.21-12.11-16.24-11.32-26.28,1.32-16.68,5.66-33,11.63-48.58S174.57,78.76,184,64.76a22.67,22.67,0,0,1,4.68-5.45c4.33-3.32,11.61-.81,16.76-.82q11.15,0,22.3.2,15.31.3,30.6,1,1.63,13.79,4.53,27.4c.91,4.28,1.37,9.81,3.3,13.75,1.39,2.84,3.81,5.28,5.26,8.23,7.06,14.28,9.55,30.91,11.35,46.52.61,5.21,1.15,10.7-1.71,15.46s-9,8.22-15.61,10S251.82,183.25,244.85,183.57Z"/><path class="cls-5" d="M266.43,51.52c15.46,12.25,25,30.74,29.8,49.87s5.18,39.05,5.11,58.77c0,10-.55,21-7.26,28.48-6.18,6.86-16,8.86-25.11,10.25a529.2,529.2,0,0,1-87.66,5.9c-4.76-.08-9.95-.38-13.51-3.53-4.76-4.21-4.54-12.07-1.26-17.5s8.85-9,14.22-12.42"/><path class="cls-2" d="M164.52,118.42c19-4.3,37.5-10.18,56.45-14.77,11.05-2.68,22-6.93,33.57-6.16a39.68,39.68,0,0,1,14,3.65c5.44,2.53,7.07,4.49,9.16,10.06a93.82,93.82,0,0,1,6,32.3L159.43,158.07a89.61,89.61,0,0,1,3-20.33C163,135.56,164.32,118.46,164.52,118.42Z"/><path class="cls-3" d="M268,121.31a4.94,4.94,0,0,0-3.39-3.86,14.54,14.54,0,0,0-5.35-.55c-14.23.28-27.84,3.5-41.85,5.71a290,290,0,0,0-44,10c-4.66,1.5-6.54,3.82-10,7.32"/><path class="cls-2" d="M154,153.14c5.07-3.95,11.36-5.9,17.5-7.77l38.44-11.72c9.36-2.86,19.15-5.45,29-5.08,5.46.21,11,1.63,15.34,5,10.17,7.9,7.09,22.68,0,31.63S236.55,179,225.64,181.73s-22.2,3.36-33.28,5.24c-7.09,1.2-14.14,2.91-21.33,3s-14.73-1.68-20-6.54C141.79,175,144.75,160.3,154,153.14Z"/><path class="cls-3" d="M87.39,262a73.47,73.47,0,0,0,32.85-33.38"/><path class="cls-3" d="M82,299.73a98.27,98.27,0,0,0,31.7-28.19"/><path class="cls-3" d="M68.94,341.21l31-20c3.23-2.08,7.75-4.09,10.54-1.45,1.81,1.71,1.8,4.72.65,6.93S108,330.47,106,332q-17.52,13.44-35.52,26.25"/><path class="cls-3" d="M68.94,499.5l31-20c3.23-2.08,7.75-4.09,10.54-1.45,1.81,1.71,1.8,4.72.65,6.93s-3.19,3.79-5.16,5.31q-17.52,13.44-35.52,26.25"/><path class="cls-3" d="M341,241.2a71.37,71.37,0,0,1-39.83-26.47"/><path class="cls-3" d="M348.53,254a71.11,71.11,0,0,1-34.62-5.61,11.19,11.19,0,0,0-4.32-1.26,3.45,3.45,0,0,0-3.47,2.35c-.34,1.59.89,3.06,2.07,4.19a67.9,67.9,0,0,0,50.48,18.4"/><path class="cls-3" d="M316.47,280.14a70.83,70.83,0,0,0,38.06,20.12"/><path class="cls-3" d="M326.57,301.93a102.75,102.75,0,0,0,44.14,22.85"/><path class="cls-3" d="M388.88,416.78A71.43,71.43,0,0,1,349,390.31"/><path class="cls-3" d="M396.42,429.6A71.41,71.41,0,0,1,361.79,424a10.94,10.94,0,0,0-4.31-1.27,3.46,3.46,0,0,0-3.47,2.35c-.35,1.59.89,3.06,2.06,4.19a67.94,67.94,0,0,0,50.49,18.4"/><path class="cls-3" d="M364.36,455.72a70.76,70.76,0,0,0,38.06,20.12"/><path class="cls-3" d="M374.46,477.51a102.82,102.82,0,0,0,44.14,22.86"/><path class="cls-3" d="M389.9,369.31a104,104,0,0,1-49.32-27.67,9.93,9.93,0,0,1-3-4.5c-.4-1.78.48-4,2.26-4.38,1.4-.32,2.78.54,4,1.35a144.05,144.05,0,0,0,31.58,16"/><path class="cls-3" d="M348.32,369.47a49,49,0,0,0,42.14,11.6"/><path class="cls-3" d="M48.35,382.57a82.39,82.39,0,0,0,57.8-29.33"/><path class="cls-3" d="M79.41,408.28a73.45,73.45,0,0,0,32.85-33.37"/><path class="cls-3" d="M74,446.05a98.39,98.39,0,0,0,31.7-28.19"/><path class="cls-3" d="M56.34,475.68a82.39,82.39,0,0,0,57.79-29.33"/></svg>