<svg id="Layer_1" data-name="Layer 1" xmlns="http://www.w3.org/2000/svg" viewBox="0 0 162.66 143.81"><defs><style>.cls-1{fill:#74d1a2;}.cls-1,.cls-2{stroke:#231f20;stroke-linecap:round;stroke-linejoin:round;stroke-width:4px;}.cls-2{fill:none;}</style></defs><title>6_Momma_Arm</title><path class="cls-1" d="M40.19,98c16.78-2.7,33.05-5.23,49.92-4.92a85,85,0,0,0,45.63-12.33,14.06,14.06,0,0,1,5.39-2.41c2-.25,4.25.69,4.8,2.6.95,3.26-8.89,14-10.25,18.3,1.51-4.7,17.16-9.58,21-11.59a3.68,3.68,0,0,1,2.4-.59c2,.46,1.75,3.36.94,5.22-4.93,11.33-14.07,20-23.32,27.74-13.25,11.1-29.45,15-46.54,16.76-18.83,2-39.24,5.63-58.13,5-10.95-.37-22.8-4.88-27.56-14.75-3.08-6.38-2.69-13.82-2.15-20.88C3.89,86.19,6.09,66,13.44,47.49,21.18,28,37.88,4.87,60.38,2"/><path class="cls-2" d="M38.84,104.39l10-54.66"/></svg>