<svg id="Layer_1" data-name="Layer 1" xmlns="http://www.w3.org/2000/svg" viewBox="0 0 112.8 158.78"><defs><style>.cls-1{fill:#f7df77;stroke:#231f20;stroke-linecap:round;stroke-linejoin:round;stroke-width:4px;}</style></defs><title>6_RockGuy_Torso</title><path class="cls-1" d="M75.11,5.81a30.35,30.35,0,0,1,9.71-3.39c12.41-2,24.73,3.06,25.86,16.47,1,12.39-4.57,25.29-10.07,36.09-4.19,8.23-8.75,16.55-10.73,25.66-2.5,11.46.43,23.22-1.54,34.68a55.26,55.26,0,0,1-14.78,28.75A40.37,40.37,0,0,1,36.14,156c-12-2.33-22.83-8.41-29-19.26C-1.21,122.13,1.3,102,9.73,88c9.86-16.35,21.3-31.68,33-46.72C51.53,30,61.48,13.22,75.11,5.81Z"/></svg>