<svg id="Layer_1" data-name="Layer 1" xmlns="http://www.w3.org/2000/svg" viewBox="0 0 123.96 86.89"><defs><style>.cls-1{fill:#f7df77;stroke:#231f20;stroke-linecap:round;stroke-linejoin:round;stroke-width:4px;}.cls-2{fill:red;}</style></defs><title>6_RockGuy_Arm 1</title><path class="cls-1" d="M122,36.19a9.84,9.84,0,0,0-2.87-7,25.63,25.63,0,0,0-6.22-4.59c-10.54-6.15-22-10.75-33.23-15.34-11.79-4.84-24.38-10.42-37-5.12C31.93,8.62,28.77,17.48,23.11,26.37c-6.58,10.33-12,21.18-17.87,31.9C2,64.23.32,72.13,4.5,77.51c2.19,2.82,5.59,4.4,8.93,5.68,3.14,1.21,6.59,2.25,9.84,1.36s5.95-4.5,4.69-7.63c6,2,8.29-3.86,8.28-8.35,0-5.47,5.46-11.51,8.21-15.94q5.79-9.3,11-19c-.19.3,17.41,9.25,18.56,9.92,8.92,5.21,17.57,8.81,28.21,9.06"/><path class="cls-2" d="M42.32,10.33a23.21,23.21,0,0,1,1.18,3c.3.94.56,1.84.81,2.71s.52,1.71.81,2.58.68,1.71,1.19,2.81a4.85,4.85,0,0,1-3.16-1.51,7.61,7.61,0,0,1-1.71-3,8.47,8.47,0,0,1-.28-3.35A6.63,6.63,0,0,1,42.32,10.33Z"/><path class="cls-2" d="M37.91,15.37a22.26,22.26,0,0,1,1.41,2.88c.37.92.69,1.8,1,2.65s.64,1.66,1,2.5.81,1.66,1.4,2.72a4.86,4.86,0,0,1-3.26-1.27A7.6,7.6,0,0,1,37.53,22,8.42,8.42,0,0,1,37,18.63,6.69,6.69,0,0,1,37.91,15.37Z"/><path class="cls-2" d="M46.92,15.6A22.57,22.57,0,0,1,44.27,18c-.89.7-1.78,1.33-2.64,2s-1.74,1.21-2.57,1.86a32.46,32.46,0,0,0-2.62,2.22,5.61,5.61,0,0,1,.83-3.76,9.57,9.57,0,0,1,2.61-2.76,11.5,11.5,0,0,1,3.32-1.62A8.58,8.58,0,0,1,46.92,15.6Z"/></svg>