<svg id="Layer_1" data-name="Layer 1" xmlns="http://www.w3.org/2000/svg" viewBox="0 0 83.54 87.44"><defs><style>.cls-1{fill:#f7df77;stroke:#231f20;stroke-linecap:round;stroke-linejoin:round;stroke-width:4px;}.cls-2{fill:red;}</style></defs><title>6_RockGuy_Head</title><path class="cls-1" d="M11.68,70.47C.57,57.47-1.13,37.59,7.39,22.84A42.39,42.39,0,0,1,40.12,2.14C64.84.15,81.78,19.19,81.54,43c-.09,8.78-4.35,16.86-4,25.57.16,3.89.93,8.63-2.21,10.94s-7.22.3-10.42-1.63c.07,0-7.83,4.94-8.73,5.3A32.15,32.15,0,0,1,45.9,85.41a28.56,28.56,0,0,1-10.43-1.32c-3.29-1.13-7-2.55-9.53-5.07"/><path class="cls-2" d="M27.06,11.94l.74,3.56c.24,1.1.52,2.12.84,3.12a24.41,24.41,0,0,0,1.16,3c.43,1,1,2,1.56,3.28A6.88,6.88,0,0,1,27.89,23a8,8,0,0,1-2.1-3.45,8.87,8.87,0,0,1-.34-4A7,7,0,0,1,27.06,11.94Z"/><path class="cls-2" d="M22.18,13c.36,1.62.63,3.11.91,4.57s.57,2.86.92,4.22a28.53,28.53,0,0,0,1.42,3.91,27.42,27.42,0,0,0,2.35,3.84,7.91,7.91,0,0,1-4.29-2.5,11.57,11.57,0,0,1-2.37-4.47,13.85,13.85,0,0,1-.38-4.91A11.22,11.22,0,0,1,22.18,13Z"/><path class="cls-2" d="M31.93,15.93c-1.25,1-2.45,1.82-3.64,2.64L24.84,21c-1.12.81-2.18,1.66-3.24,2.55s-2,1.91-3.19,3A8.61,8.61,0,0,1,19.79,22a13,13,0,0,1,3.29-3.47,15,15,0,0,1,4.2-2.1A11.21,11.21,0,0,1,31.93,15.93Z"/></svg>