<svg id="Layer_1" data-name="Layer 1" xmlns="http://www.w3.org/2000/svg" viewBox="0 0 109.45 84.62"><defs><style>.cls-1{fill:#e2c54b;}.cls-1,.cls-2{stroke:#231f20;stroke-linecap:round;stroke-linejoin:round;stroke-width:4px;}.cls-2{fill:none;}</style></defs><title>6_RockGuy_Arm 2</title><path class="cls-1" d="M14,53.38C18.56,64.2,23.12,76,34.81,80.82c9.86,4,17.68.32,27.15-1.78,11-2.44,21.57-6,32.41-9.14,6-1.74,12.22-5.82,13-12,.41-3.26-.78-6.5-2.12-9.51-1.26-2.84-2.82-5.76-5.52-7.29s-6.8-1-8,1.91c-2.64-5.2-7.91-2.88-10.82,0-3.56,3.58-11.06,4-15.73,5q-9.81,2.3-19.47,5.22c.31-.07-5.32-17.36-5.63-18.54-2.64-10-7.92-23.75-16.8-29.94C18.81,1.67,12.39.81,8,4.05-6.47,14.79,9.1,41.6,14,53.38Z"/><path class="cls-2" d="M91.76,42.76c1,1.67,2.39,3.12,3,4.56,2.87,6.51-4.27,5.94-7,1.15.84,3.45,1.32,8.6-1.12,11.17"/><path class="cls-2" d="M102.46,60.1a4.27,4.27,0,0,1-8-3,4.49,4.49,0,0,1-2.7-5.28"/></svg>