<svg id="Layer_1" data-name="Layer 1" xmlns="http://www.w3.org/2000/svg" viewBox="0 0 157.21 134.26"><defs><style>.cls-1{fill:#e2c54b;stroke:#231f20;stroke-linecap:round;stroke-linejoin:round;stroke-width:4px;}</style></defs><title>6_RockGuy_Leg2</title><path class="cls-1" d="M43.73,117.38c.85-6.4-2-13.32-7-19.25,2,2.34,18.31-3.46,21.09-4.23A204.65,204.65,0,0,0,81,86.43c22.06-9,41.4-20.48,58.27-37.84,5.61-5.78,11.83-12,14.51-19.78,2.15-6.23,1.94-13.46-1.56-19s-10.56-9-16.93-7.33c-4.63,1.23-8.23,4.77-11.59,8.17-12.14,12.26-23.8,27.64-39,35.73-16.52,8.79-32,16.59-50.63,20.14-9.09,1.73-19,2.59-26,8.56C2.14,80,.71,87.32,3.1,94.7a49.86,49.86,0,0,0,5.57,10.81q6.83,11,13.66,22a11.49,11.49,0,0,0,3.2,3.78c3.13,2,7.38.57,10.4-1.63C40.7,126.18,43.13,121.91,43.73,117.38Z"/></svg>