<svg id="Layer_1" data-name="Layer 1" xmlns="http://www.w3.org/2000/svg" viewBox="0 0 105.98 182.51"><defs><style>.cls-1{fill:#f7df77;stroke:#231f20;stroke-linecap:round;stroke-linejoin:round;stroke-width:4px;}.cls-2{fill:red;}</style></defs><title>6_RockGuy_Leg1</title><path class="cls-1" d="M43.59,2c5.58,5.31,9.73,11.81,13.87,18.24a145.22,145.22,0,0,1,14,27.85,140.62,140.62,0,0,1,8.42,60.28,131.11,131.11,0,0,1-2.81,18.18c-.55,2.45-2.41,14.79-4.68,15.78,11.06-4.83,31.67,1.2,31.6,15.73a16.07,16.07,0,0,1-6.66,12.43c-8.17,6.12-22.72,8.42-32.8,9.57-8.75,1-20.81,1.06-25-8.43-2.25-5.1-1.83-10.93-1.34-16.49,1.63-18.62,3.6-37.32,2.41-56-.95-15-4-30.21-10.32-43.94C23.56,40.56,11.79,28.38,2,15.71"/><path class="cls-2" d="M74.24,89.93a21.49,21.49,0,0,1-2.91-1.34c-.87-.46-1.68-.94-2.47-1.39s-1.55-.87-2.36-1.3-1.67-.77-2.81-1.21A4.85,4.85,0,0,1,67,83.6a7.56,7.56,0,0,1,3.34,1,8.56,8.56,0,0,1,2.52,2.23A6.67,6.67,0,0,1,74.24,89.93Z"/><path class="cls-2" d="M73.93,83.24a21.06,21.06,0,0,1-3-1.11c-.91-.4-1.75-.81-2.57-1.2s-1.61-.76-2.45-1.12-1.73-.64-2.89-1a4.91,4.91,0,0,1,3.23-1.34,7.76,7.76,0,0,1,3.41.75,8.8,8.8,0,0,1,2.68,2A6.71,6.71,0,0,1,73.93,83.24Z"/><path class="cls-2" d="M67.27,89.31a22.53,22.53,0,0,1,.24-3.59c.15-1.12.36-2.19.54-3.24s.42-2.08.57-3.12A31.21,31.21,0,0,0,69,75.94a5.55,5.55,0,0,1,2,3.29A9.36,9.36,0,0,1,71,83a11.07,11.07,0,0,1-1.27,3.46A8.68,8.68,0,0,1,67.27,89.31Z"/><path class="cls-2" d="M45.52,147.32A22.19,22.19,0,0,1,48.27,149c.82.55,1.57,1.12,2.3,1.65s1.45,1,2.21,1.55,1.58,1,2.65,1.51a4.82,4.82,0,0,1-3.42.72A7.49,7.49,0,0,1,48.8,153a8.51,8.51,0,0,1-2.26-2.49A6.69,6.69,0,0,1,45.52,147.32Z"/><path class="cls-2" d="M45.1,154A24.75,24.75,0,0,1,48,155.43c.85.5,1.64,1,2.41,1.48s1.52.93,2.32,1.38,1.64.82,2.76,1.31a4.82,4.82,0,0,1-3.36,1,7.57,7.57,0,0,1-3.3-1.11,8.72,8.72,0,0,1-2.45-2.31A6.74,6.74,0,0,1,45.1,154Z"/><path class="cls-2" d="M52.6,149.84a22.12,22.12,0,0,1,.32,3.59c0,1.13,0,2.22,0,3.29s-.08,2.11-.07,3.17a33.75,33.75,0,0,0,.18,3.43,5.67,5.67,0,0,1-2.49-2.94,9.39,9.39,0,0,1-.62-3.75,11.1,11.1,0,0,1,.72-3.62A8.66,8.66,0,0,1,52.6,149.84Z"/><path class="cls-2" d="M48.27,146.85a22.17,22.17,0,0,1,.33,3.58c0,1.13,0,2.23,0,3.29s-.09,2.12-.07,3.17a28.6,28.6,0,0,0,.18,3.43,5.55,5.55,0,0,1-2.49-2.94,9.35,9.35,0,0,1-.62-3.74,11.05,11.05,0,0,1,.72-3.62A8.5,8.5,0,0,1,48.27,146.85Z"/></svg>