<svg id="Layer_1" data-name="Layer 1" xmlns="http://www.w3.org/2000/svg" viewBox="0 0 318.69 277.48"><defs><style>.cls-1{fill:#a87c4f;}.cls-1,.cls-2{stroke:#000;stroke-linecap:round;stroke-linejoin:round;stroke-width:5px;}.cls-2{fill:#d86916;}</style></defs><title>8_Chair</title><polygon class="cls-1" points="29.18 274.98 15.14 274.98 12.77 238.3 31.55 238.3 29.18 274.98"/><polygon class="cls-1" points="300.92 274.98 286.87 274.98 284.5 238.3 303.28 238.3 300.92 274.98"/><path class="cls-2" d="M242.25,149.09c.77-10.43.15-25-9-30.09-4.49-2.5-9.94-2.32-15.07-2.06-41.79,2.06-66,4.12-107.75,6.19C95.82,109.18,57.79,33.21,45,8.25A10.57,10.57,0,0,0,34.66,2.54L2.5,5.41V243.47l313.63-.77.06-83.06a11.25,11.25,0,0,0-11.14-11.26C287.63,148.23,254.67,148.09,242.25,149.09Z"/></svg>