<svg id="Layer_1" data-name="Layer 1" xmlns="http://www.w3.org/2000/svg" viewBox="0 0 307.94 204.55"><defs><style>.cls-1{fill:#78baef;}.cls-1,.cls-2{stroke:#000;stroke-linecap:round;stroke-linejoin:round;stroke-width:5px;}.cls-2{fill:#a2d0ff;}</style></defs><title>8_Figure2_Legs</title><path class="cls-1" d="M102.05,74.7l7.08,68c1.1,10.59,3.07,21.44,3.6,32,.46,9.15.64,16.81,9.32,22.42,7.29,4.71,16.49,5.34,25.14,4.67s17.25-2.5,25.92-2.16c5.06.19,10.26,1.11,15.07-.44,8.26-2.66,12.88-12.49,11.17-21s-8.62-15.32-16.62-18.67-17-3.64-25.6-2.79c.7-25.12,1.4-50.32-1.17-75.32-.92-9-2.51-18.57-8.43-25.48a25,25,0,0,0-25.46-7.49"/><path class="cls-2" d="M26.71,22.13c1.29,3.1,89.22,4.94,91.89,5,11,.3,21.67,1.17,32.62,1.95l91,6.43c2.41.17,4.94.32,7.1-.75,2.56-1.27,4-4,5.41-6.49,4.5-8.22,9.84-16.38,17.73-21.44s18.92-6.25,26.41-.6C319.18,21.58,286.67,65.71,279,80.43a14.73,14.73,0,0,1-13.59,7.93c-18.06-.64-36.37-.17-54.47-.39A1315.39,1315.39,0,0,0,69.33,93.9c-8.87.85-17.73,1.88-26.61,2.75C29.35,98,16,98.9,2.5,98.31"/></svg>