<svg id="Layer_1" data-name="Layer 1" xmlns="http://www.w3.org/2000/svg" viewBox="0 0 123.47 122.3"><defs><style>.cls-1{fill:#a2d0ff;stroke:#000;stroke-linecap:round;stroke-linejoin:round;stroke-width:5.12px;}</style></defs><title>8_Figure2_Head</title><path class="cls-1" d="M11.81,96A48.34,48.34,0,0,1,4.59,79.63a68.13,68.13,0,0,1-1.76-22c2.5-24.51,20.76-47,44.55-53.36C68-1.3,96.47,7.25,110.19,24.1c8.64,10.61,11.49,25,10.55,38.44-.47,6.86-2.71,13.93-5,20.48-2.74,7.91-3.73,13.66-2.4,21.34.6,3.47,1.38,7.59-1.12,10.08-2.32,2.32-6.2,1.82-9.27.68a32.09,32.09,0,0,1-9.73-5.74C77,121,55.29,122.5,37.3,115.6"/></svg>