<svg id="Layer_1" data-name="Layer 1" xmlns="http://www.w3.org/2000/svg" viewBox="0 0 209.01 183.39"><defs><style>.cls-1{fill:#a2d0ff;stroke:#000;stroke-linecap:round;stroke-linejoin:round;stroke-width:5.12px;}</style></defs><title>8_Figure2_Arm1</title><path class="cls-1" d="M2.56,19.36A150.8,150.8,0,0,0,44.14,121a150.59,150.59,0,0,0,65.62,39.69c23.18,6.87,50.84,3.88,71.14,18.66,5.8,4.22,11.75-1.08,8.6-7.48-1.09-2.23-3.13-3.81-5.1-5.32l-8.47-6.47,10.59,7c1.89,1.26,3.87,2.55,6.13,2.76,8.3.77,5.62-7.13,2.45-10.75A40.18,40.18,0,0,0,183,149.77c4.64,2.25,9.44,5.26,14.32,6.91,4.33,1.46,11,.14,7.22-5.77-3.38-5.31-12.39-8.62-18.22-9.7a53.75,53.75,0,0,0,8,1.88c2.3.45,4.35,1.72,6.67,2.08,2,.32,4.43-.52,5.21-2.44,2.07-5-6.38-9.77-9.92-11.13-5.93-2.29-12.44-2.64-18.73-2.93a65.62,65.62,0,0,0,11.21.49c1.63-.07,3.52-.34,4.37-1.74s.06-3.5-1.34-4.5a10.35,10.35,0,0,0-4.9-1.46c-10.45-1.3-20.77-2.57-31.27-3.09A139.72,139.72,0,0,1,129,114.61c-21-5.19-45.19-17.35-56.84-36a170,170,0,0,1-25.09-76"/></svg>