<svg id="Layer_1" data-name="Layer 1" xmlns="http://www.w3.org/2000/svg" viewBox="0 0 154.5 178.78"><defs><style>.cls-1{fill:#78baef;stroke:#000;stroke-linecap:round;stroke-linejoin:round;stroke-width:5.12px;}</style></defs><title>8_Figure2_Arm2</title><path class="cls-1" d="M110.21,167.24a192.29,192.29,0,0,0,21.93,8.91c4.06,1.3,11.24-15.87,12.34-18.44,3.61-8.46,10.54-19.79,5.91-29.05C148,124,143.2,121.1,138.68,118.4a335.77,335.77,0,0,1-59.1-44.86c-8.77-8.34-15.8-15.48-22.13-25.8L35,11.05C32.87,7.64,30.43,4,26.59,2.88,21.23,1.36,16,5.59,12.68,10.07,3.66,22.31,1,38.48,3.37,53.5,7,76.43,20.08,93.29,35.09,109.91,56.07,133.16,81.83,154,110.21,167.24Z"/></svg>