<svg id="Layer_1" data-name="Layer 1" xmlns="http://www.w3.org/2000/svg" viewBox="0 0 439.66 269.56"><defs><style>.cls-1{fill:#78baef;}.cls-1,.cls-2,.cls-3,.cls-5{stroke:#000;stroke-linecap:round;stroke-linejoin:round;stroke-width:5px;}.cls-2{fill:#a2d0ff;}.cls-3{fill:none;}.cls-4,.cls-5{fill:#fff;fill-opacity:0.43;}</style></defs><title>8_Figure1_Body</title><path class="cls-1" d="M233.77,139.7l7.08,68c1.11,10.6,3.07,21.45,3.61,32.05.45,9.15.64,16.8,9.31,22.41,7.29,4.71,16.49,5.35,25.14,4.68s17.25-2.5,25.93-2.17c5.05.2,10.25,1.11,15.07-.44,8.26-2.65,12.87-12.48,11.17-21s-8.62-15.33-16.62-18.68-17-3.64-25.6-2.78c.7-25.12,1.4-50.33-1.17-75.32-.93-9.05-2.52-18.58-8.43-25.48a25,25,0,0,0-25.46-7.49"/><path class="cls-2" d="M174.45,161.65c-13.37,1.31-26.77,2.25-40.22,1.66-21.78-.95-43.28-4.87-64.88-7.49C39.46,152.19,20,136.76,10.17,106.7,1.3,79.53-1.93,51.76,11.79,25.48,16.15,17.12,22.21,9.21,30.68,5.09,44.2-1.49,55,5.41,63.9,15.38c7.84,8.75,14.73,18.88,25,24.53,20.2,11.07,45,1.23,68,1.17,31.08-.09,61.25,20.18,72.9,49,1.29,3.1,17.81,2,20.49,2.08,11,.3,21.67,1.17,32.62,1.94l91,6.44c2.4.17,4.94.31,7.09-.76,2.57-1.27,4.05-4,5.42-6.48,4.5-8.23,9.83-16.39,17.73-21.44s18.92-6.25,26.4-.61c20.33,15.34-12.18,59.47-19.84,74.2a14.74,14.74,0,0,1-13.6,7.92c-18.05-.64-36.37-.17-54.46-.39a1318.05,1318.05,0,0,0-141.62,5.93C192.19,159.75,183.32,160.78,174.45,161.65Z"/><path class="cls-2" d="M25.83,73.87a145.42,145.42,0,0,0,23,42.58c4.31,5.48,8.65,12.25,15.87,13.9,9.49,2.17,21.42.74,31.12.56,15.15-.28,29.69-3,44.85-4.19,9.21-.71,19-3.2,28.21-1.93,4.06.56,8.14,2.69,10,6.36,1.27,2.55,1.34,5.5,1.92,8.29s3.38,8.81,7.21,6.79c6.84-3.61,2.82-22.17,0-27.11"/><path class="cls-3" d="M47.63,47.25c22.93.63,20.19,34.37,36.44,44.35C89.9,95.19,97,96,103.8,96.52a317.51,317.51,0,0,0,47.58,0c8.12-.6,16.34-1.51,24.36-.08,13.39,2.39,22.46,10.63,25.87,23.63,1,3.74,2.85,23.23-5.64,20.14"/><rect class="cls-4" x="347.68" y="101.63" width="16.73" height="16.73" transform="translate(-15.3 141.14) rotate(-21.96)"/><rect class="cls-4" x="345.92" y="107.2" width="16.73" height="16.73" transform="translate(-17.51 140.89) rotate(-21.96)"/><rect class="cls-4" x="361.18" y="107.2" width="16.73" height="16.73" transform="translate(-16.4 146.59) rotate(-21.96)"/><rect class="cls-4" x="369.1" y="93.12" width="16.73" height="16.73" transform="translate(-10.56 148.54) rotate(-21.96)"/><rect class="cls-4" x="338" y="94.29" width="16.73" height="16.73" transform="translate(-13.26 136.99) rotate(-21.96)"/><rect class="cls-4" x="356.78" y="86.66" width="16.73" height="16.73" transform="translate(-9.04 143.46) rotate(-21.96)"/><path class="cls-5" d="M334.13,94.42c-12,16.85,6.95,36.74,24.14,38.57a31.24,31.24,0,0,0,28.48-13.38,32.79,32.79,0,0,0,4-26.26A22.65,22.65,0,0,0,384,83c-1.71-1.49-7.41-5.8-9.92-4.78a17.26,17.26,0,0,0,6.05-3.47c1.64-1.68,2.54-4.31,1.51-6.42-1.61-3.29-6.44-3.16-9.76-1.63s-6.5,4-10.16,3.85c-4.46-.22-9.1-4.35-12.84-1.89-2.7,1.79-2.48,6.12-.4,8.61s5.34,3.6,8.42,4.6c-8.73,1.41-17.47,5.28-22.66,12.45Z"/></svg>