<svg id="Layer_1" data-name="Layer 1" xmlns="http://www.w3.org/2000/svg" viewBox="0 0 132.93 203.2"><defs><style>.cls-1{fill:#00a57a;stroke:#231f20;stroke-linecap:round;stroke-linejoin:round;stroke-width:6px;}</style></defs><title>8_Tree 1</title><path class="cls-1" d="M129.29,185.76a16.94,16.94,0,0,0,.64-1.62V3H21.75c-1,0-13.59,15.11-14.68,16.62C.82,28.27.87,39.1,13.6,38.05A9.82,9.82,0,0,0,5.18,49.43a9.81,9.81,0,0,0,12.38,6.84c-8.87.24-16.11,10-13.72,18.6s13.67,13.18,21.38,8.78c-5.29,4.29-5.59,13.38-.6,18s14,3.67,17.93-1.92c-2.56,5.52-4.16,12.06-1.67,17.6s10.54,8.61,14.95,4.42c-5.44,9.21-10.21,26.94.64,34.38,5,3.42,13.12,2,15.39-3.59-5.29,4-5.58,13-.56,17.27s13.87,2.64,17-3.19c-5,6.07-6,16-.3,21.35s17.61,1.56,17.21-6.26c.14,2.79-3.37,5.62-2.61,9.58.69,3.56,3.44,7.58,7.15,8.59C117.48,202,126.17,192.73,129.29,185.76Z"/></svg>