<svg id="Layer_1" data-name="Layer 1" xmlns="http://www.w3.org/2000/svg" viewBox="0 0 454.69 654.79"><defs><style>.cls-1{fill:#eaeaea;}.cls-2{fill:#fff;}.cls-3{fill:none;stroke:#000;stroke-miterlimit:10;stroke-width:5px;}.cls-4{fill:#c61a1a;}.cls-5{fill:#ff2732;}.cls-6{fill:#ef2626;}.cls-7{fill:red;}.cls-8{fill:#5663fc;}</style></defs><title>Acetaminophen</title><path class="cls-1" d="M50.31,119.61s5.63,18.75-18.75,37.5S2.5,227.43,2.5,240.55V486.18s15.94,85.31,137.81,85.31,133.13-70.31,133.13-90.94V239.61s1.88-67.5-35.62-90.94c-10.32-5.62-13.13-15.93-12.19-30.93s0-32.82,0-32.82H49.38Z"/><path class="cls-2" d="M273.91,462.75S243,532.09,144.53,532.09,22.66,486.15,14.22,474.9c-3.75-3.75-1.88-243.26,3.75-247C32,220.39,36.72,256,145.47,256s124.08-50.86,124.08-50.86,4.36,10.55,4.36,34.92S274.54,462.13,273.91,462.75Z"/><path class="cls-3" d="M269.55,205.16S254.22,256,145.47,256,32,220.39,18,227.89c-2.81,1.88-4.69,68.44-5.39,135s-.24,110.12,1.64,112c8.44,11.25,31.87,57.19,130.31,57.19s129.38-69.34,129.38-69.34"/><path class="cls-3" d="M50.31,119.61s5.63,18.75-18.75,37.5S2.5,227.43,2.5,240.55V486.18s15.94,85.31,137.81,85.31,133.13-70.31,133.13-90.94V239.61s1.88-67.5-35.62-90.94c-10.32-5.62-13.13-15.93-12.19-30.93s0-32.82,0-32.82H49.38Z"/><path class="cls-4" d="M241.88,42.4v74c0,22-46.52,39.91-103.91,39.91S34.06,138.43,34.06,116.39v-74S241.62,42.14,241.88,42.4Z"/><ellipse class="cls-5" cx="137.97" cy="42.4" rx="103.91" ry="39.9"/><ellipse class="cls-3" cx="137.97" cy="42.4" rx="103.91" ry="39.9"/><path class="cls-3" d="M34.06,42.4v74c0,22,46.52,39.91,103.91,39.91s103.91-17.87,103.91-39.91v-74"/><path class="cls-6" d="M46.77,300.31c-.65-2.85-1-4.33-1.63-6.95-3.36-1.23-5-1.88-8.37-3.24-.64,2.1-1,3.32-1.6,5.63-2.25-1-3.38-1.45-5.61-2.48a208.48,208.48,0,0,1,9-24.65c2,.82,3,1.22,5.08,2,3,10.58,6.13,21.08,8.92,31.72C50.26,301.56,49.09,301.16,46.77,300.31Zm-5.72-23.15a89.24,89.24,0,0,1-2.75,8.52c2.17.86,3.26,1.28,5.44,2.08C42.66,284.22,42.13,281.73,41.05,277.16Z"/><path class="cls-6" d="M64.94,292.43A5.26,5.26,0,0,0,63.76,291a4.09,4.09,0,0,0-1.52-.85,2.43,2.43,0,0,0-1.46,0,2.63,2.63,0,0,0-1.12.73,3.92,3.92,0,0,0-.73,1.22,4.46,4.46,0,0,0-.27,1.51,7.54,7.54,0,0,0,.22,1.83,8.24,8.24,0,0,0,.71,1.84,5.74,5.74,0,0,0,1.13,1.5,3.59,3.59,0,0,0,1.5.88,2.88,2.88,0,0,0,1.54,0,2.22,2.22,0,0,0,1.24-.83c1.11,2.16,1.66,3.35,2.77,5.73a4.78,4.78,0,0,1-2.52,1.54A6.08,6.08,0,0,1,62,306a9.17,9.17,0,0,1-3.4-1.85,12.56,12.56,0,0,1-2.71-3.31,18.42,18.42,0,0,1-1.79-4.35,16.35,16.35,0,0,1-.61-4.5,9.75,9.75,0,0,1,.67-3.58A7.51,7.51,0,0,1,56,285.64a5.43,5.43,0,0,1,2.75-1.39,7.17,7.17,0,0,1,3.38.21,8.41,8.41,0,0,1,1.66.68,12.16,12.16,0,0,1,1.59,1,9.81,9.81,0,0,1,2.5,2.71C66.71,290.39,66.12,291.13,64.94,292.43Z"/><path class="cls-6" d="M85.31,300.33c0,.22,0,.46,0,.7s0,.47,0,.69c-4.53-.87-6.78-1.35-11.29-2.42a4.91,4.91,0,0,0,.37,1.6,6.09,6.09,0,0,0,.82,1.45,5.25,5.25,0,0,0,1.15,1.11,3.43,3.43,0,0,0,1.32.61,3,3,0,0,0,2.07-.19,3.77,3.77,0,0,0,1.4-1.32c1.41,1.49,2.12,2.28,3.53,3.86a7,7,0,0,1-2.94,3.08,6.13,6.13,0,0,1-4.19.42,8.49,8.49,0,0,1-3.31-1.58,11.45,11.45,0,0,1-2.7-3,16.89,16.89,0,0,1-2.39-8.73,10.37,10.37,0,0,1,.66-3.63A8.6,8.6,0,0,1,71.54,290a6,6,0,0,1,2.65-1.61,6.48,6.48,0,0,1,3.31,0,8,8,0,0,1,3.15,1.46,10,10,0,0,1,2.48,2.76,15.29,15.29,0,0,1,1.61,3.73A13.54,13.54,0,0,1,85.31,300.33Zm-4.72-3a5.06,5.06,0,0,0-.76-2.64,3.46,3.46,0,0,0-2.3-1.61,3,3,0,0,0-1.37,0,2.8,2.8,0,0,0-1.1.56,3.09,3.09,0,0,0-.75,1,3.28,3.28,0,0,0-.31,1.23C76.63,296.47,78,296.76,80.59,297.32Z"/><path class="cls-6" d="M94.09,297.22c0,3,0,3.78,0,6.78a5,5,0,0,0,.4,2.25,1.88,1.88,0,0,0,1.52,1,3.51,3.51,0,0,0,.8,0,1.81,1.81,0,0,0,.71-.16c0,2.11,0,3.27,0,5.52a5.41,5.41,0,0,1-1.36.3,6.84,6.84,0,0,1-1.63,0,6.26,6.26,0,0,1-2.64-1,5.55,5.55,0,0,1-1.69-2,9.36,9.36,0,0,1-.9-2.75A17.7,17.7,0,0,1,89,304c0-3.46,0-4.28,0-7.58l-2.51-.46v-5c1,.19,1.49.28,2.48.45v-5.45c2,.35,3,.52,5,.84v5.46c1.47.24,2.21.35,3.68.56v5.06C96.3,297.57,95.56,297.46,94.09,297.22Z"/><path class="cls-6" d="M100,295.92a7.82,7.82,0,0,1,3.22-2.23,8.16,8.16,0,0,1,3.75-.44,8.36,8.36,0,0,1,3.35,1,6.18,6.18,0,0,1,2.21,2.27,11.16,11.16,0,0,1,1.24,3.48,19.94,19.94,0,0,1,.4,4.17c0,3.25,0,5.87-.06,10.55-1.89-.18-2.84-.27-4.73-.47,0-1,0-1.49,0-2.47h-.1a4.14,4.14,0,0,1-1.82,2,4.35,4.35,0,0,1-2.64.49,6.2,6.2,0,0,1-2-.62,5.81,5.81,0,0,1-1.83-1.46,7.56,7.56,0,0,1-1.35-2.42,9.73,9.73,0,0,1-.51-3.36,4.07,4.07,0,0,1,3.36-4.59,11.81,11.81,0,0,1,3.25-.4,33,33,0,0,1,3.49.19v-.28a2.85,2.85,0,0,0-.82-2.15,3.37,3.37,0,0,0-2-.93,3.89,3.89,0,0,0-2.12.34,6.2,6.2,0,0,0-1.74,1.15C101.53,298.34,101,297.54,100,295.92Zm9.44,9-.66-.08a16,16,0,0,0-1.71-.1,5.61,5.61,0,0,0-1.54.16,2.33,2.33,0,0,0-1.13.65,2,2,0,0,0-.45,1.39,2.52,2.52,0,0,0,.2,1.05,2.25,2.25,0,0,0,.51.77,2.3,2.3,0,0,0,.72.47,3.52,3.52,0,0,0,.79.2,2.44,2.44,0,0,0,2.41-.94,4.89,4.89,0,0,0,.86-2.95Z"/><path class="cls-6" d="M137.88,316.13c0-5,0-7.61,0-11.13a10.93,10.93,0,0,0-.09-1.39,4.25,4.25,0,0,0-.35-1.25,2.41,2.41,0,0,0-.67-.89,1.76,1.76,0,0,0-1.11-.37,1.82,1.82,0,0,0-1.14.31,2.82,2.82,0,0,0-.81.9,4.47,4.47,0,0,0-.49,1.25,6.48,6.48,0,0,0-.16,1.37c0,3.45,0,6.06,0,11-2.06-.08-3.09-.13-5.15-.23,0-5.27,0-7.76,0-11.55a5.27,5.27,0,0,0-.54-2.49,2,2,0,0,0-3.59,0,5.15,5.15,0,0,0-.67,2.63c0,3.47,0,6.1,0,11.11-2.08-.13-3.12-.21-5.19-.37,0-9.27,0-11.51,0-20.06,2,.16,3,.24,5,.37v2.94H123a7.92,7.92,0,0,1,.71-1.26,4.7,4.7,0,0,1,2.35-1.78,4,4,0,0,1,1.61-.22,4.77,4.77,0,0,1,2.87,1.09,6.53,6.53,0,0,1,1.83,2.77,7.15,7.15,0,0,1,2-2.56,4.44,4.44,0,0,1,3-.9,4.55,4.55,0,0,1,2.67.86,6.17,6.17,0,0,1,1.74,2.1,10.7,10.7,0,0,1,.95,2.74,13.69,13.69,0,0,1,.3,2.72c0,4.37,0,6.65,0,12.34Z"/><path class="cls-6" d="M152.41,289.58a4.17,4.17,0,0,1-.23,1.41,4,4,0,0,1-.62,1.18,2.87,2.87,0,0,1-.93.8,2.3,2.3,0,0,1-1.13.3,2.55,2.55,0,0,1-2.09-1.12,4.17,4.17,0,0,1-.84-2.57,3.7,3.7,0,0,1,.22-1.3,2.87,2.87,0,0,1,.62-1,3.23,3.23,0,0,1,.94-.65,2.75,2.75,0,0,1,1.15-.24,2.92,2.92,0,0,1,1.13.22,2.73,2.73,0,0,1,.93.63,3,3,0,0,1,.62,1A3.56,3.56,0,0,1,152.41,289.58ZM147,316.27v-20H152c0,8.6,0,10.83,0,20C150,316.27,149,316.28,147,316.27Z"/><path class="cls-6" d="M166.08,315.93c0-5-.08-7.57-.09-11.11a9,9,0,0,0-.11-1.37,4.84,4.84,0,0,0-.35-1.22,2.06,2.06,0,0,0-.68-.87,1.76,1.76,0,0,0-1.1-.3,2.17,2.17,0,0,0-1.16.38,2.83,2.83,0,0,0-.84.94,5,5,0,0,0-.5,1.29,6.12,6.12,0,0,0-.16,1.39c0,3.49,0,6.06,0,11.05-2,.06-3,.08-5.07.11,0-9.2,0-11.44,0-20,1.95,0,2.92-.06,4.85-.11V299H161a8.06,8.06,0,0,1,.71-1.36,5.33,5.33,0,0,1,1-1.18,5.93,5.93,0,0,1,1.28-.82,3.8,3.8,0,0,1,1.48-.37A4,4,0,0,1,168,296a5.47,5.47,0,0,1,1.7,1.9,9.22,9.22,0,0,1,.93,2.68,14.8,14.8,0,0,1,.29,2.8c0,4.4.09,6.66.16,12.34C169.09,315.79,168.09,315.84,166.08,315.93Z"/><path class="cls-6" d="M190.16,303.33a14,14,0,0,1-.46,4.22,14.22,14.22,0,0,1-1.64,3.94,9.73,9.73,0,0,1-2.53,2.78,6.51,6.51,0,0,1-3.16,1.23,5.94,5.94,0,0,1-3.21-.57,7.54,7.54,0,0,1-2.68-2.23,12.29,12.29,0,0,1-1.85-3.57,13.63,13.63,0,0,1-.73-4.09,11.85,11.85,0,0,1,.63-3.94,13,13,0,0,1,1.75-3.56,9.06,9.06,0,0,1,2.58-2.48A7.31,7.31,0,0,1,182,294a6.11,6.11,0,0,1,3.13.42,6.72,6.72,0,0,1,2.58,1.92,10,10,0,0,1,1.78,3.2A13.53,13.53,0,0,1,190.16,303.33Zm-4.61.61a5.91,5.91,0,0,0-.26-1.53,4.67,4.67,0,0,0-.68-1.4,3.43,3.43,0,0,0-1.09-1,2.48,2.48,0,0,0-1.5-.28,2.93,2.93,0,0,0-1.5.6,4.24,4.24,0,0,0-1.06,1.21,5.85,5.85,0,0,0-.65,1.54,5.52,5.52,0,0,0-.2,1.58,5.83,5.83,0,0,0,.27,1.6,5.65,5.65,0,0,0,.7,1.54,3.65,3.65,0,0,0,1.13,1.12,2.38,2.38,0,0,0,1.53.32,2.67,2.67,0,0,0,1.49-.63,4.44,4.44,0,0,0,1.06-1.35,6.74,6.74,0,0,0,.6-1.68A6.49,6.49,0,0,0,185.55,303.94Z"/><path class="cls-6" d="M209.18,299.59a15.81,15.81,0,0,1-.19,3.8,17.77,17.77,0,0,1-1.13,4,10.75,10.75,0,0,1-2,3.18,5.4,5.4,0,0,1-2.86,1.65,3.88,3.88,0,0,1-2.59-.33,4.59,4.59,0,0,1-2-2h-.06c.25,5.38.37,8.68.62,12.34-1.95.35-2.93.52-4.89.82-.44-10-1.09-20-1-30,1.8-.3,2.71-.45,4.51-.8,0,1.08,0,1.61,0,2.66l.09,0a9.64,9.64,0,0,1,1.81-2.64,5.25,5.25,0,0,1,2.73-1.56,4.23,4.23,0,0,1,2.83.29,5.64,5.64,0,0,1,2.17,2,11,11,0,0,1,1.39,3.12A17,17,0,0,1,209.18,299.59Zm-4.57,1.1a7.4,7.4,0,0,0-.25-1.53,4.3,4.3,0,0,0-.66-1.36,2.84,2.84,0,0,0-1.06-.89,2.26,2.26,0,0,0-1.47-.13,3,3,0,0,0-1.44.74,5.11,5.11,0,0,0-1.07,1.35,7.37,7.37,0,0,0-.68,1.64,5.17,5.17,0,0,0-.21,1.61,5.82,5.82,0,0,0,.34,1.58,5.48,5.48,0,0,0,.79,1.45,3.28,3.28,0,0,0,1.15,1,2.18,2.18,0,0,0,1.48.18,2.72,2.72,0,0,0,1.45-.78,4.77,4.77,0,0,0,1-1.42,7.41,7.41,0,0,0,.54-1.75A7.09,7.09,0,0,0,204.61,300.69Z"/><path class="cls-6" d="M222.3,306.3c-.32-5-.71-7.42-.77-11a12.06,12.06,0,0,0-.11-1.37,3.68,3.68,0,0,0-.35-1.16,1.58,1.58,0,0,0-.66-.69,1.37,1.37,0,0,0-1,0,3.2,3.2,0,0,0-1.87,1.83,6.88,6.88,0,0,0-.62,2.94c.06,3.57.44,6,.75,11-1.89.58-2.84.86-4.74,1.38-1-10.13-.84-20.43-1-30.59,1.87-.53,2.81-.81,4.69-1.4.08,4.12.11,7.61.19,13.15l.05,0a9.61,9.61,0,0,1,1.52-2.82,5.3,5.3,0,0,1,2.54-1.89,3.32,3.32,0,0,1,2.46-.05A3.63,3.63,0,0,1,225,287a7.72,7.72,0,0,1,.93,2.45,15.18,15.18,0,0,1,.31,2.79c.08,4.49.43,6.67.8,12.34C225.14,305.31,224.2,305.65,222.3,306.3Z"/><path class="cls-6" d="M244.13,286.46c0,.21,0,.44.05.67s0,.47,0,.7c-4.17,2.18-6.25,3.18-10.41,5a3.41,3.41,0,0,0,.47,1.3,2.65,2.65,0,0,0,.86.87,2.3,2.3,0,0,0,1.11.35,2.53,2.53,0,0,0,1.24-.25,4.74,4.74,0,0,0,1.85-1.53,8.42,8.42,0,0,0,1.17-2.17c1.39.51,2.08.81,3.45,1.4a16.5,16.5,0,0,1-2.46,4.93,10,10,0,0,1-3.73,3.11,5.56,5.56,0,0,1-3.07.57,4.75,4.75,0,0,1-2.65-1.26,8.45,8.45,0,0,1-1.93-2.95,13.87,13.87,0,0,1-.94-4,12.58,12.58,0,0,1,.51-4.2,19.84,19.84,0,0,1,1.59-4.19,15.08,15.08,0,0,1,2.42-3.38,10,10,0,0,1,3.06-2.2,5.4,5.4,0,0,1,2.93-.56,3.8,3.8,0,0,1,2.32,1.22,7.47,7.47,0,0,1,1.54,2.78A15.25,15.25,0,0,1,244.13,286.46Zm-4.43.08a3.32,3.32,0,0,0-.74-2.24c-.49-.53-1.2-.59-2.15-.16a4.32,4.32,0,0,0-1.26.89,6.36,6.36,0,0,0-1,1.29,7.67,7.67,0,0,0-.68,1.52,5.63,5.63,0,0,0-.26,1.5C236,288.28,237.26,287.72,239.7,286.54Z"/><path class="cls-6" d="M256.84,289.43c-.09-5-.19-7.55-.21-11.11a7.8,7.8,0,0,0-.11-1.31,3,3,0,0,0-.34-1,1,1,0,0,0-.67-.49,1.64,1.64,0,0,0-1.08.31,4,4,0,0,0-1.13,1,6.21,6.21,0,0,0-.8,1.4,8.87,8.87,0,0,0-.48,1.57,7.41,7.41,0,0,0-.14,1.5c0,3.53.21,6.05.37,11-1.87,1.13-2.81,1.67-4.68,2.72-.39-9.17-.52-11.43-.6-20.16,1.86-1,2.79-1.51,4.66-2.59,0,1.21,0,1.81,0,3l.06,0a16.43,16.43,0,0,1,.68-1.75,12.46,12.46,0,0,1,1-1.74,13.12,13.12,0,0,1,1.25-1.52,7.22,7.22,0,0,1,1.45-1.18,4.17,4.17,0,0,1,2.53-.78,2.46,2.46,0,0,1,1.68.93,4.93,4.93,0,0,1,.92,2.12,12.23,12.23,0,0,1,.29,2.62v12.34C259.64,287.58,258.71,288.21,256.84,289.43Z"/><path class="cls-6" d="M29.38,305.5v7s33,24,113,24,121-30,121-30v-8s-34,32-120,32S29.38,305.5,29.38,305.5Z"/><ellipse class="cls-3" cx="137.97" cy="42.4" rx="80.91" ry="26.84"/><path d="M32.72,327.55c1.73.58,2.6.86,4.32,1.41a8.17,8.17,0,0,1,3.66,2.15,4.61,4.61,0,0,1,1.3,3.2,3.66,3.66,0,0,1-.46,1.92,2.68,2.68,0,0,1-1.26,1.09,4.16,4.16,0,0,1-1.93.29,9.71,9.71,0,0,1-2.47-.49c-1.23-.39-1.84-.59-3.06-1-.53,2.78-.8,4.17-1.33,7l-1.63-.56C31,336.54,31.58,333.55,32.72,327.55Zm.32,7.31,3,1a4.91,4.91,0,0,0,3.2.2,2,2,0,0,0,1.15-2,3.07,3.07,0,0,0-.93-2.34,6.61,6.61,0,0,0-2.53-1.37l-2.8-.91C33.68,331.57,33.47,332.67,33,334.86Z"/><path d="M49.49,342.1c.06,0,.08-.44.09-.57a2.68,2.68,0,0,0,0-.39,2.4,2.4,0,0,0-.65-1.8,4.2,4.2,0,0,0-1.83-1,4.67,4.67,0,0,0-1.84-.14,3.8,3.8,0,0,0-1.47.46l-.68-1.21a4.43,4.43,0,0,1,1.9-.54,6.34,6.34,0,0,1,2.25.22,7,7,0,0,1,1.43.56,5.1,5.1,0,0,1,1.2.86,4,4,0,0,1,.81,1.17A3.29,3.29,0,0,1,51,341.2c0,.14,0,.32,0,.55a4.75,4.75,0,0,1-.07.55c-.31,1.63-.46,2.45-.77,4.08-.08.38-.13.79-.18,1.21a9.21,9.21,0,0,0-.07,1.08l-1.35-.36c0-.26,0-.53,0-.83s.06-.57.1-.85h0a5.05,5.05,0,0,1-.91.64,3,3,0,0,1-.94.34,3.57,3.57,0,0,1-1,0,6.79,6.79,0,0,1-1.21-.24,6.38,6.38,0,0,1-1.11-.46,4.26,4.26,0,0,1-1-.77,4.21,4.21,0,0,1-.78-1.07,3.11,3.11,0,0,1-.3-1.38,2.17,2.17,0,0,1,.72-1.82,3.44,3.44,0,0,1,1.9-.63,11.14,11.14,0,0,1,2.62.18A28.88,28.88,0,0,0,49.49,342.1Zm-.56,1c-.68-.18-1.37-.34-2.08-.47a8.49,8.49,0,0,0-1.94-.16,2.87,2.87,0,0,0-1.43.37,1.27,1.27,0,0,0-.55,1.18,2,2,0,0,0,.18.87,1.9,1.9,0,0,0,.49.66,2.71,2.71,0,0,0,.7.48,4.89,4.89,0,0,0,.8.31,4,4,0,0,0,1.5.15,2.75,2.75,0,0,0,2.06-1.27,3.52,3.52,0,0,0,.47-1.18c.06-.34.1-.5.16-.84Z"/><path d="M55.25,350l-1.51-.38c.74-4,1.12-6,1.86-10.06l1.51.37C56.37,344,56,346,55.25,350ZM58,336.12a.83.83,0,0,1-.3.69.86.86,0,0,1-.76.13,1.41,1.41,0,0,1-.73-.45,1.2,1.2,0,0,1-.3-.81.83.83,0,0,1,.32-.71.87.87,0,0,1,.76-.13,1.38,1.38,0,0,1,.72.45A1.29,1.29,0,0,1,58,336.12Z"/><path d="M62.57,341.23c0,.28-.06.59-.11.92s-.09.61-.13.82h0a3.32,3.32,0,0,1,1.57-1.17,3.65,3.65,0,0,1,2-.12,4.79,4.79,0,0,1,2.67,1.41,3.6,3.6,0,0,1,1,2.53,3.08,3.08,0,0,1,0,.53c0,.18,0,.36-.08.57l-1.15,6.21-1.51-.3c.41-2.24.62-3.36,1-5.61a6.42,6.42,0,0,0,.13-1.29,3.2,3.2,0,0,0-.51-1.85,2.83,2.83,0,0,0-1.82-1,3.08,3.08,0,0,0-1.21,0,2.74,2.74,0,0,0-1.14.52,3.74,3.74,0,0,0-.93,1.09,5,5,0,0,0-.58,1.7c-.38,2.07-.57,3.11-.94,5.18L59.34,351c.58-3.15.86-4.73,1.44-7.88.06-.27.12-.62.19-1.05s.11-.83.14-1.18Z"/><path d="M79.56,354.94,78,354.68c1.12-6.16,1.67-9.25,2.79-15.42,1.71.27,2.56.39,4.27.63a9,9,0,0,1,2,.49,5.46,5.46,0,0,1,1.55.89,3.84,3.84,0,0,1,1.4,3.05,4.51,4.51,0,0,1-.35,1.86,3.11,3.11,0,0,1-1,1.23,4,4,0,0,1-1.49.67,6.64,6.64,0,0,1-1.81.16l3.49,8L87,356c-1.32-3.15-2-4.72-3.31-7.88-1.12-.16-1.68-.24-2.8-.42C80.34,350.61,80.08,352.05,79.56,354.94Zm1.54-8.52,2.82.41a9.4,9.4,0,0,0,1.58.11,3.85,3.85,0,0,0,1.41-.27,2.21,2.21,0,0,0,1-.82,2.72,2.72,0,0,0,.39-1.55,2.55,2.55,0,0,0-.94-2.08,5.24,5.24,0,0,0-2.59-1l-2.69-.39Z"/><path d="M92.53,351.87a2.6,2.6,0,0,0,0,.26,1.85,1.85,0,0,0,0,.23,3.73,3.73,0,0,0,.25,1.39,4,4,0,0,0,.72,1.14,3.91,3.91,0,0,0,1.07.82,4.14,4.14,0,0,0,3.49.06,4.29,4.29,0,0,0,1.47-1.15l1,1a5.3,5.3,0,0,1-2.13,1.45,5.85,5.85,0,0,1-2.58.28,5.64,5.64,0,0,1-1.88-.52,5.11,5.11,0,0,1-1.51-1.07,5.05,5.05,0,0,1-1-1.56,5.45,5.45,0,0,1-.37-2,6.14,6.14,0,0,1,.47-2.39,5.76,5.76,0,0,1,1.29-1.89,5.5,5.5,0,0,1,1.92-1.19,5.42,5.42,0,0,1,2.39-.28,4.81,4.81,0,0,1,3.26,1.45A4.44,4.44,0,0,1,101.4,351c0,.18,0,.45,0,.82a8,8,0,0,1-.16,1C97.73,352.45,96,352.27,92.53,351.87Zm7.32-.36c0-.12,0-.25,0-.39s0-.27,0-.39a3,3,0,0,0-.74-2.06,3.24,3.24,0,0,0-2.18-1,4,4,0,0,0-1.53.13,3.45,3.45,0,0,0-1.25.64,4.14,4.14,0,0,0-1.47,2.32C95.58,351.1,97,351.25,99.85,351.51Z"/><path d="M105.33,358l-1.56-.14c1.2-6.7,1.77-10.06,2.87-16.79l1.5.13C107.06,347.91,106.51,351.27,105.33,358Z"/><path d="M111.06,358.53l-1.53-.15c.69-4.16,1-6.25,1.68-10.42l1.5.14C112.07,352.28,111.74,354.36,111.06,358.53Zm2.45-14.46a.93.93,0,0,1-.28.74.85.85,0,0,1-.74.25,1.12,1.12,0,0,1-.73-.33,1.11,1.11,0,0,1-.32-.78,1,1,0,0,1,.31-.76.93.93,0,0,1,.74-.26,1.17,1.17,0,0,1,.72.35A1.14,1.14,0,0,1,113.51,344.07Z"/><path d="M116.61,354.18a2.46,2.46,0,0,0,0,.26,1.93,1.93,0,0,0,0,.24,3.58,3.58,0,0,0,.3,1.4,3.81,3.81,0,0,0,.75,1.15,4.1,4.1,0,0,0,1.11.82,4.13,4.13,0,0,0,3.49,0,4.29,4.29,0,0,0,1.45-1.18l1,1a5.11,5.11,0,0,1-2.08,1.49,5.82,5.82,0,0,1-2.58.31,6.13,6.13,0,0,1-1.91-.51,5.29,5.29,0,0,1-1.55-1.07,4.9,4.9,0,0,1-1.06-1.56,5.53,5.53,0,0,1-.42-2,5.92,5.92,0,0,1,.41-2.43,5.59,5.59,0,0,1,1.23-2,5.29,5.29,0,0,1,1.89-1.25,5.07,5.07,0,0,1,2.38-.32,4.84,4.84,0,0,1,3.3,1.45,4.72,4.72,0,0,1,1.2,3.12c0,.18,0,.46,0,.83a5.77,5.77,0,0,1-.13,1C121.84,354.69,120.1,354.52,116.61,354.18Zm7.33-.45c0-.13,0-.26,0-.4v-.4a3.07,3.07,0,0,0-3-3.08,3.84,3.84,0,0,0-1.53.15,3.58,3.58,0,0,0-1.23.67,4.16,4.16,0,0,0-.9,1.06,4.22,4.22,0,0,0-.51,1.33C119.65,353.34,121.08,353.47,123.94,353.73Z"/><path d="M131.75,360.47l-1.61-.12c-1-4.38-1.52-6.57-2.53-10.94l1.55.12c.78,3.69,1.18,5.54,2,9.24h0c2-3.48,3-5.24,5-8.79l1.64.09C135.34,354.27,134.15,356.35,131.75,360.47Z"/><path d="M140.05,356a1.31,1.31,0,0,0,0,.27,2,2,0,0,0,0,.24,4,4,0,0,0,.3,1.41,3.58,3.58,0,0,0,.74,1.12,3.5,3.5,0,0,0,2.42,1.06,3.71,3.71,0,0,0,2.13-.52,4.61,4.61,0,0,0,1.45-1.31l1,.93a5.56,5.56,0,0,1-2.09,1.68,5.5,5.5,0,0,1-2.55.51,5.08,5.08,0,0,1-1.88-.38,4.6,4.6,0,0,1-2.57-2.53,5.3,5.3,0,0,1-.43-2,6.54,6.54,0,0,1,.41-2.5,6.23,6.23,0,0,1,1.23-2.05,5.82,5.82,0,0,1,1.9-1.37,5.29,5.29,0,0,1,2.38-.48,4.49,4.49,0,0,1,3.3,1.22,4.34,4.34,0,0,1,1.17,3.06q0,.27,0,.84a6.11,6.11,0,0,1-.14,1C145.24,356.19,143.51,356.14,140.05,356Zm7.3-1c0-.12,0-.26,0-.4s0-.28,0-.41a2.8,2.8,0,0,0-3-2.89,4.05,4.05,0,0,0-1.54.25,4.14,4.14,0,0,0-1.24.76,4.59,4.59,0,0,0-1.4,2.51C143.07,355,144.49,355,147.35,355Z"/><path d="M152.76,351.55c.06-.46.11-.88.13-1.25l1.45,0c0,.29-.06.61-.1,1s-.09.65-.13.88h0a5.09,5.09,0,0,1,1.47-1.59,3.85,3.85,0,0,1,2-.69h.52l.48.06-.35,1.5a2,2,0,0,0-.42-.07,4.26,4.26,0,0,0-.62,0,3.35,3.35,0,0,0-1.19.29,3.27,3.27,0,0,0-1.07.77,5.4,5.4,0,0,0-.84,1.3,7.11,7.11,0,0,0-.52,1.88c-.35,2.23-.52,3.35-.87,5.58l-1.49,0c.52-3.39.78-5.08,1.31-8.47C152.64,352.39,152.7,352,152.76,351.55Z"/><path d="M158.39,361.28l-1.24-.36c3.79-6.91,5.73-10.43,9.63-17.5l1.2.31C164.1,350.82,162.16,354.35,158.39,361.28Z"/><path d="M31.29,362.33l-1.43-.52c1-6,1.58-9,2.83-15,3.76,1.27,5.64,1.87,9.41,3-.14.53-.2.8-.34,1.33-3.11-.93-4.66-1.42-7.76-2.45-.45,2.08-.67,3.12-1.1,5.2,2.78.95,4.18,1.4,7,2.28l-.3,1.29c-2.81-.88-4.2-1.33-7-2.28C32.08,358.05,31.81,359.47,31.29,362.33Z"/><path d="M41.94,360.93a2,2,0,0,0,0,.24,1,1,0,0,0,0,.24,3.7,3.7,0,0,0,.17,1.41,4.62,4.62,0,0,0,.62,1.26,4.31,4.31,0,0,0,1,1,4.05,4.05,0,0,0,1.29.62,3.69,3.69,0,0,0,2.15.05,3.82,3.82,0,0,0,1.56-.87l.87,1.14a4.74,4.74,0,0,1-2.24,1.06,5.77,5.77,0,0,1-2.56-.17,6.13,6.13,0,0,1-1.81-.85,5.69,5.69,0,0,1-1.4-1.32A5.63,5.63,0,0,1,40.39,361a5.66,5.66,0,0,1,.6-2.28A4.66,4.66,0,0,1,42.38,357a4.75,4.75,0,0,1,2-.83,5.45,5.45,0,0,1,2.42.15,5.57,5.57,0,0,1,3.17,2,4.71,4.71,0,0,1,.88,3.22c0,.18-.05.45-.1.8a5.48,5.48,0,0,1-.24.95C47.05,362.42,45.33,361.94,41.94,360.93Zm7.32.94c0-.11,0-.24.06-.38s0-.26,0-.38a3.18,3.18,0,0,0-.59-2.16,3.63,3.63,0,0,0-2.11-1.37,4.18,4.18,0,0,0-1.54-.15,3.26,3.26,0,0,0-1.3.41,3.5,3.5,0,0,0-1,.85,3.6,3.6,0,0,0-.62,1.18C45,360.71,46.41,361.11,49.26,361.87Z"/><path d="M56.45,369.72l-1.63-.4-1.4-10.94,1.56.39c.4,3.69.6,5.53,1,9.21h0c2.39-3,3.59-4.52,6-7.58l1.66.36C60.8,364.39,59.34,366.18,56.45,369.72Z"/><path d="M65.43,366.84c0,.09,0,.17-.05.25l0,.23a3.65,3.65,0,0,0,.18,1.41,3.74,3.74,0,0,0,.67,1.2,3.91,3.91,0,0,0,1.06.92,4.52,4.52,0,0,0,3.63.4,4.29,4.29,0,0,0,1.6-1l.93,1.07a5.18,5.18,0,0,1-2.3,1.24,6.33,6.33,0,0,1-2.71,0,6.54,6.54,0,0,1-1.93-.7,5.65,5.65,0,0,1-1.5-1.22A4.77,4.77,0,0,1,64,369a5,5,0,0,1-.25-2,5.82,5.82,0,0,1,.65-2.32,5.57,5.57,0,0,1,1.45-1.76,5.51,5.51,0,0,1,4.51-1.05,5.19,5.19,0,0,1,3.25,1.75,4.57,4.57,0,0,1,1,3.16q0,.27-.09.81a5.18,5.18,0,0,1-.2,1C70.77,367.92,69,367.58,65.43,366.84Zm7.59.34c0-.12,0-.24,0-.38a2.77,2.77,0,0,0,0-.39,3,3,0,0,0-.65-2.12,3.48,3.48,0,0,0-2.17-1.19,4.21,4.21,0,0,0-1.58,0,3.59,3.59,0,0,0-1.33.52,4.1,4.1,0,0,0-1,.93,3.75,3.75,0,0,0-.64,1.24C68.63,366.37,70.09,366.65,73,367.18Z"/><path d="M78.75,364.81c.08-.43.15-.83.19-1.18l1.46.23c0,.28-.09.59-.15.92s-.11.62-.16.84h0a4.15,4.15,0,0,1,1.56-1.26,3.55,3.55,0,0,1,2.06-.27l.53.09a3.27,3.27,0,0,1,.47.16l-.4,1.39a2.23,2.23,0,0,0-.42-.15,4.26,4.26,0,0,0-.62-.13,3.33,3.33,0,0,0-1.22,0A2.63,2.63,0,0,0,81,366a3.9,3.9,0,0,0-.91,1.1,5.84,5.84,0,0,0-.63,1.72c-.46,2.1-.7,3.14-1.17,5.24l-1.57-.26c.74-3.18,1.1-4.77,1.81-8C78.58,365.61,78.66,365.25,78.75,364.81Z"/><path d="M92.35,376.05l-1.64-.19c1.23-6.25,1.82-9.38,3-15.65,1.72.19,2.58.29,4.29.46a8.42,8.42,0,0,1,2,.41,5.29,5.29,0,0,1,1.56.84,3.74,3.74,0,0,1,1,1.28,3.85,3.85,0,0,1,.38,1.72,4.48,4.48,0,0,1-.37,1.89,3.42,3.42,0,0,1-1,1.28,4.23,4.23,0,0,1-1.49.73,6.75,6.75,0,0,1-1.83.24c1.4,3.17,2.11,4.76,3.51,7.9l-1.82-.15c-1.34-3.1-2-4.66-3.34-7.78l-2.84-.3C93.18,371.66,92.91,373.12,92.35,376.05ZM94,367.4l2.85.3a9.68,9.68,0,0,0,1.61,0,4.17,4.17,0,0,0,1.42-.33,2.39,2.39,0,0,0,1-.87,2.78,2.78,0,0,0,.4-1.57,2.46,2.46,0,0,0-1-2.05,4.92,4.92,0,0,0-2.6-.9l-2.7-.28C94.63,364,94.42,365.14,94,367.4Z"/><path d="M105.54,372.41c0,.09,0,.17,0,.25s0,.17,0,.24a3.64,3.64,0,0,0,.25,1.38,3.68,3.68,0,0,0,3.12,2.26,4,4,0,0,0,2.16-.37,4.62,4.62,0,0,0,1.49-1.16l.92,1a5.39,5.39,0,0,1-2.14,1.46,6.13,6.13,0,0,1-4.45-.12,5.15,5.15,0,0,1-1.51-1,4.54,4.54,0,0,1-1-1.53,5.13,5.13,0,0,1-.37-2,6.1,6.1,0,0,1,.48-2.41,5.71,5.71,0,0,1,1.32-1.93,5.62,5.62,0,0,1,2-1.23,5.34,5.34,0,0,1,2.43-.31,4.81,4.81,0,0,1,3.27,1.44,4.32,4.32,0,0,1,1.06,3,8,8,0,0,1-.06.81,5.27,5.27,0,0,1-.17,1Zm7.37-.49a3.71,3.71,0,0,0,0-.38c0-.14,0-.27,0-.39a2.92,2.92,0,0,0-.71-2,3.16,3.16,0,0,0-2.18-1,4.2,4.2,0,0,0-1.56.14,3.67,3.67,0,0,0-1.27.66,4.31,4.31,0,0,0-1,1.05,4.1,4.1,0,0,0-.55,1.31Z"/><path d="M116.66,373.94a6.68,6.68,0,0,1,.51-2.47,5.56,5.56,0,0,1,1.33-1.92,5.73,5.73,0,0,1,4.45-1.48,4.82,4.82,0,0,1,2.12.68,3.67,3.67,0,0,1,1.45,1.62h0c.68-3.17,1-4.75,1.72-7.9l1.5.12c-1.44,6.49-2.15,9.75-3.55,16.29l-1.47-.11c.14-.66.21-1,.36-1.66h0a4,4,0,0,1-1.56,1.26,4.47,4.47,0,0,1-2.29.41,5.36,5.36,0,0,1-1.9-.47,4.48,4.48,0,0,1-2.38-2.53A5,5,0,0,1,116.66,373.94Zm1.56,0a4.08,4.08,0,0,0,.18,1.33,3,3,0,0,0,.61,1.1,3,3,0,0,0,1,.79,3.6,3.6,0,0,0,1.39.37,4.12,4.12,0,0,0,1.82-.26,4.39,4.39,0,0,0,1.49-1,4.88,4.88,0,0,0,1-1.53,4.94,4.94,0,0,0,.42-1.9,3.74,3.74,0,0,0-.19-1.35,3.28,3.28,0,0,0-.64-1.1,3.13,3.13,0,0,0-1-.78,3.8,3.8,0,0,0-1.38-.36,4.25,4.25,0,0,0-1.87.23,4.17,4.17,0,0,0-1.47,1,4.43,4.43,0,0,0-1,1.53A5.78,5.78,0,0,0,118.22,374Z"/><path d="M137.58,379.5c0-.27.09-.58.15-.9s.12-.61.17-.82h-.05a4.25,4.25,0,0,1-1.59,1.39,3.91,3.91,0,0,1-2,.44,3.87,3.87,0,0,1-2.58-1,2.93,2.93,0,0,1-.85-2.32,4.57,4.57,0,0,1,0-.52c0-.17.06-.36.1-.56.55-2.47.83-3.7,1.39-6.17l1.49.1c-.5,2.22-.75,3.33-1.24,5.56a6.15,6.15,0,0,0-.18,1.27,2.56,2.56,0,0,0,.44,1.7,2.21,2.21,0,0,0,1.76.7,3.19,3.19,0,0,0,1.2-.18,3.52,3.52,0,0,0,1.14-.67,4.76,4.76,0,0,0,1-1.2,6.06,6.06,0,0,0,.65-1.73l1.15-5.14,1.49.05c-.71,3.13-1.06,4.69-1.76,7.82q-.1.4-.24,1.05c-.08.42-.15.8-.19,1.14Z"/><path d="M152.18,371.88a2,2,0,0,0-.89-.94,2.92,2.92,0,0,0-1.5-.35,4.51,4.51,0,0,0-1.87.39,4.7,4.7,0,0,0-1.5,1.06,5.17,5.17,0,0,0-1,1.56,5.33,5.33,0,0,0-.43,1.91,3.55,3.55,0,0,0,.16,1.28,2.76,2.76,0,0,0,.62,1,2.87,2.87,0,0,0,1,.69,3.67,3.67,0,0,0,1.42.25,4.09,4.09,0,0,0,1.79-.37,4.74,4.74,0,0,0,1.36-1l.94.78a7,7,0,0,1-1.88,1.29A5.73,5.73,0,0,1,148,380a5.87,5.87,0,0,1-2-.32,4.32,4.32,0,0,1-1.5-.9,3.68,3.68,0,0,1-.92-1.38,4.47,4.47,0,0,1-.26-1.78,6.59,6.59,0,0,1,.56-2.42,6.28,6.28,0,0,1,1.35-2,6.52,6.52,0,0,1,2-1.32,6.83,6.83,0,0,1,2.59-.5,5.68,5.68,0,0,1,2.16.38,2.77,2.77,0,0,1,1.49,1.25Z"/><path d="M156,374.9c0,.09,0,.17,0,.25a.93.93,0,0,0,0,.23,3,3,0,0,0,.21,1.29,2.55,2.55,0,0,0,.68,1,2.79,2.79,0,0,0,1.07.62,3.48,3.48,0,0,0,1.35.17,4.63,4.63,0,0,0,2.22-.67,5.76,5.76,0,0,0,1.55-1.36l.95.79a7,7,0,0,1-2.24,1.77,6.85,6.85,0,0,1-2.66.69,5.34,5.34,0,0,1-1.9-.21,4,4,0,0,1-1.51-.8,3.5,3.5,0,0,1-1-1.35,4.33,4.33,0,0,1-.3-1.88,6.32,6.32,0,0,1,.56-2.36,7.24,7.24,0,0,1,1.38-2,7.55,7.55,0,0,1,2-1.45,6.4,6.4,0,0,1,2.43-.68,4.22,4.22,0,0,1,3.27.82,3.44,3.44,0,0,1,1.05,2.77c0,.17,0,.44-.06.8a5.61,5.61,0,0,1-.19,1C161.3,374.64,159.54,374.75,156,374.9Zm7.47-1.56c0-.12,0-.25.05-.39s0-.26,0-.38a2.31,2.31,0,0,0-.7-1.86,2.75,2.75,0,0,0-2.18-.57,4.7,4.7,0,0,0-1.56.38,5.06,5.06,0,0,0-1.29.82,5.58,5.58,0,0,0-1,1.14,5.06,5.06,0,0,0-.59,1.33C159.16,373.69,160.6,373.59,163.51,373.34Z"/><path d="M169.17,369.47c.08-.45.13-.86.17-1.22l1.47-.21c0,.28-.07.6-.13.95s-.1.63-.14.86h0a6.44,6.44,0,0,1,1.54-1.71,4.73,4.73,0,0,1,2.08-.93c.21,0,.38-.06.54-.07a1.93,1.93,0,0,1,.48,0c-.14.6-.22.9-.37,1.51a2.26,2.26,0,0,0-.43,0,4.81,4.81,0,0,0-.64.07,3.85,3.85,0,0,0-1.23.43,3.91,3.91,0,0,0-1.1.87,5.67,5.67,0,0,0-.9,1.35,7.13,7.13,0,0,0-.59,1.86c-.42,2.18-.63,3.26-1.06,5.42l-1.57.16c.66-3.26,1-4.91,1.63-8.21C169,370.29,169.1,369.92,169.17,369.47Z"/><path d="M213.29,356.41a9.29,9.29,0,0,1-1,4.21,11,11,0,0,1-2.58,3.29,14.1,14.1,0,0,1-3.63,2.28,14.92,14.92,0,0,1-4.11,1.14,12.27,12.27,0,0,1-3.64,0,9.47,9.47,0,0,1-3.06-1.06,7.54,7.54,0,0,1-3.65-4.65c2.2-.68,3.37-1.07,5.77-1.94A3.77,3.77,0,0,0,199,361.7a4.42,4.42,0,0,0,2.91.54,5.76,5.76,0,0,0,3.06-1.35,3.77,3.77,0,0,0,1.33-3,2.73,2.73,0,0,0-.51-1.78,3.18,3.18,0,0,0-1.37-1,5.9,5.9,0,0,0-1.91-.37,13.62,13.62,0,0,0-2.12.06,29.76,29.76,0,0,0-3.45.61,25.17,25.17,0,0,0-3.32,1c.25-5.85.38-8.78.63-14.64a101.74,101.74,0,0,0,17.4-2.33c0,2.11.06,3.16.11,5.26-4.7.9-7.13,1.31-11.7,1.81-.08,1.64-.13,2.45-.21,4.09a9.61,9.61,0,0,1,1.43-.36c.53-.1,1-.18,1.45-.23a18,18,0,0,1,4.13-.09,8.79,8.79,0,0,1,3.41,1,5.74,5.74,0,0,1,2.28,2.14A6.21,6.21,0,0,1,213.29,356.41Z"/><path d="M237.34,344.82a31.66,31.66,0,0,1-.53,5.49,21.49,21.49,0,0,1-1.62,5.13,15,15,0,0,1-2.88,4.18,8.94,8.94,0,0,1-4.2,2.44,9.13,9.13,0,0,1-4.67,0,6.72,6.72,0,0,1-3.28-2.16,9.27,9.27,0,0,1-1.82-3.84,24.19,24.19,0,0,1-.49-5,23.18,23.18,0,0,1,.49-5.35,15.31,15.31,0,0,1,1.82-4.74,13.17,13.17,0,0,1,3.28-3.7,11.8,11.8,0,0,1,4.68-2.17,9.73,9.73,0,0,1,4.41-.22,5,5,0,0,1,2.82,1.71,8,8,0,0,1,1.54,3.42A21.75,21.75,0,0,1,237.34,344.82Zm-5.64,2.52c0-.79,0-1.64-.13-2.55a10.57,10.57,0,0,0-.5-2.48,3.88,3.88,0,0,0-1.08-1.72,2,2,0,0,0-1.87-.32,3.28,3.28,0,0,0-1.9,1.32,8.09,8.09,0,0,0-1.15,2.4,14.38,14.38,0,0,0-.53,2.85,26.16,26.16,0,0,0-.11,2.69c0,.82,0,1.69.11,2.64a10.65,10.65,0,0,0,.53,2.55,4.15,4.15,0,0,0,1.16,1.78,1.94,1.94,0,0,0,1.88.36,3,3,0,0,0,1.8-1.37A8.53,8.53,0,0,0,231,353a17,17,0,0,0,.54-2.92C231.63,349.09,231.7,348.14,231.7,347.34Z"/><path d="M258.38,331.62a31.43,31.43,0,0,1-.51,5.49,27.51,27.51,0,0,1-1.54,5.37,21.79,21.79,0,0,1-2.69,4.86,16.25,16.25,0,0,1-4.11,3.94,8,8,0,0,1-4.25,1.63,3.78,3.78,0,0,1-2.9-1.26,7.55,7.55,0,0,1-1.61-3.45,22.83,22.83,0,0,1-.49-5,29.25,29.25,0,0,1,.5-5.25,21.91,21.91,0,0,1,1.55-5,21,21,0,0,1,2.74-4.51,18.59,18.59,0,0,1,4.06-3.77,9.41,9.41,0,0,1,4.16-1.84,3.6,3.6,0,0,1,2.89.86,6.28,6.28,0,0,1,1.67,3.11A19.74,19.74,0,0,1,258.38,331.62Zm-5.88,3.83c0-.78-.05-1.61-.13-2.49a9.45,9.45,0,0,0-.5-2.3,2.41,2.41,0,0,0-1-1.34c-.45-.25-1-.13-1.73.35a5.36,5.36,0,0,0-1.73,2,12.08,12.08,0,0,0-1,2.71,19.16,19.16,0,0,0-.5,2.92c-.09,1-.13,1.86-.13,2.63a20.85,20.85,0,0,0,.19,2.62,9.19,9.19,0,0,0,.56,2.41,2.7,2.7,0,0,0,1.11,1.42,1.66,1.66,0,0,0,1.78-.31,5,5,0,0,0,1.72-2,11.56,11.56,0,0,0,1-2.78,20.57,20.57,0,0,0,.41-3C252.5,337.19,252.49,336.25,252.5,335.45Z"/><path class="cls-7" d="M204.68,417c-6.55,5.65-11,8.2-20.26,12.91-13.84,8.06-48.19,29.77-33.69,50.53,14.31,20.48,48.56-.36,62.21-10.24,7.75-6.2,11.35-9.36,18.26-15.33C221.47,442.78,215.21,428.48,204.68,417Z"/><path class="cls-8" d="M229.78,456.09c7-6,10.31-8.54,16.67-14.71,13.73-15.82,24.29-37.89,9.46-55.9-13.78-16.72-30.06,8.2-38.13,17.85-5.09,6.22-7.7,9.23-14.47,14.81C213.65,429.77,219.24,444.7,229.78,456.09Z"/><path class="cls-2" d="M238.38,448.61c-10.4-11.69-16.23-26.39-27.23-37.77a71.35,71.35,0,0,1-15.66,13c9.83,12.28,17.08,26.31,26.74,38.68C229,456.81,232.2,454,238.38,448.61Z"/><path class="cls-3" d="M246.45,441.38c13.73-15.82,24.29-37.89,9.46-55.9-13.78-16.72-30.06,8.2-38.13,17.85-9.46,11.78-20.22,19.35-33.36,26.57-13.84,8.06-48.19,29.77-33.69,50.53,14.31,20.48,48.56-.36,62.21-10.24Q230,456.12,246.45,441.38Z"/><path class="cls-7" d="M215.28,578.67l-9.46,2.77c-17,5-20,11.45-18.15,17.8s7.92,10.15,24.88,5.17l9.46-2.77S215.19,578.38,215.28,578.67Z"/><path class="cls-8" d="M221.23,601.87l9.46-2.77c17-5,20.25-11.52,18.39-17.86s-8.16-10.08-25.12-5.11l-9.46,2.77S220.89,601.69,221.23,601.87Z"/><path class="cls-2" d="M226,600.47l-6.74-23-8.79,2.57,6.74,23Z"/><path class="cls-3" d="M230.69,599.1c17-5,20.25-11.52,18.39-17.86s-8.16-10.08-25.12-5.11l-18.14,5.31c-17,5-20,11.45-18.15,17.8s7.92,10.15,24.88,5.17Z"/><path class="cls-7" d="M287.8,592.83l8.82,4.38c15.83,7.87,22.47,5.18,25.41-.73s1.07-12.84-14.75-20.7l-8.83-4.39S287.66,593.1,287.8,592.83Z"/><path class="cls-8" d="M299.18,571.75l-8.83-4.38c-15.82-7.87-22.69-5.3-25.63.62s-.85,13,15,20.81l8.83,4.39S299.3,572.12,299.18,571.75Z"/><path class="cls-2" d="M294.71,569.53,284.06,591l8.2,4.08,10.66-21.44Z"/><path class="cls-3" d="M290.35,567.37c-15.82-7.87-22.69-5.3-25.63.62s-.85,13,15,20.81l16.92,8.41c15.83,7.87,22.47,5.18,25.41-.73s1.07-12.84-14.75-20.7Z"/><path class="cls-7" d="M266.08,631.72l7.94,5.83c14.26,10.44,21.26,8.93,25.17,3.6s3.24-12.46-11-22.91l-7.94-5.83Z"/><path class="cls-8" d="M280.88,612.89l-7.95-5.82c-14.25-10.45-21.46-9.08-25.36-3.75s-3,12.61,11.21,23.06l8,5.82S280.94,613.28,280.88,612.89Z"/><path class="cls-2" d="M276.86,610l-14.15,19.3,7.39,5.42,14.15-19.31Z"/><path class="cls-3" d="M272.93,607.07c-14.25-10.45-21.46-9.08-25.36-3.75s-3,12.61,11.21,23.06L274,637.55c14.26,10.44,21.26,8.93,25.17,3.6s3.24-12.46-11-22.91Z"/><path class="cls-7" d="M289.28,526.67l-9.46,2.77c-17,5-20,11.45-18.15,17.8s7.92,10.15,24.88,5.17l9.46-2.77S289.19,526.38,289.28,526.67Z"/><path class="cls-8" d="M295.23,549.87l9.46-2.77c17-5,20.25-11.52,18.39-17.86s-8.16-10.08-25.12-5.11l-9.46,2.77S294.89,549.69,295.23,549.87Z"/><path class="cls-2" d="M300,548.47l-6.74-23-8.79,2.57,6.74,23Z"/><path class="cls-3" d="M304.69,547.1c17-5,20.25-11.52,18.39-17.86s-8.16-10.08-25.12-5.11l-18.14,5.31c-17,5-20,11.45-18.15,17.8s7.92,10.15,24.88,5.17Z"/><path class="cls-7" d="M361.8,540.83l8.82,4.38c15.83,7.87,22.47,5.18,25.41-.73s1.07-12.84-14.75-20.7l-8.83-4.39S361.66,541.1,361.8,540.83Z"/><path class="cls-8" d="M373.18,519.75l-8.83-4.38c-15.82-7.87-22.69-5.3-25.63.62s-.85,13,15,20.81l8.83,4.39S373.3,520.12,373.18,519.75Z"/><path class="cls-2" d="M368.71,517.53,358.06,539l8.2,4.08,10.66-21.44Z"/><path class="cls-3" d="M364.35,515.37c-15.82-7.87-22.69-5.3-25.63.62s-.85,13,15,20.81l16.92,8.41c15.83,7.87,22.47,5.18,25.41-.73s1.07-12.84-14.75-20.7Z"/><path class="cls-7" d="M337.3,576.7l5.51,8.17c9.88,14.65,17,15.59,22.46,11.89s7.27-10.63-2.62-25.28l-5.51-8.17Z"/><path class="cls-8" d="M357.6,564l-5.52-8.17c-9.88-14.65-17.12-15.8-22.6-12.1s-7.12,10.84,2.76,25.49l5.51,8.17S357.52,564.36,357.6,564Z"/><path class="cls-2" d="M354.81,559.85,335,573.24l5.13,7.59,19.84-13.39Z"/><path class="cls-3" d="M352.08,555.81c-9.88-14.65-17.12-15.8-22.6-12.1s-7.12,10.84,2.76,25.49l10.57,15.67c9.88,14.65,17,15.59,22.46,11.89s7.27-10.63-2.62-25.28Z"/><path class="cls-7" d="M270.28,585.67l-9.46,2.77c-17,5-20,11.45-18.15,17.8s7.92,10.15,24.88,5.17l9.46-2.77S270.19,585.38,270.28,585.67Z"/><path class="cls-8" d="M276.23,608.87l9.46-2.77c17-5,20.25-11.52,18.39-17.86s-8.16-10.08-25.12-5.11l-9.46,2.77S275.89,608.69,276.23,608.87Z"/><path class="cls-2" d="M281,607.47l-6.74-23-8.79,2.57,6.74,23Z"/><path class="cls-3" d="M285.69,606.1c17-5,20.25-11.52,18.39-17.86s-8.16-10.08-25.12-5.11l-18.14,5.31c-17,5-20,11.45-18.15,17.8s7.92,10.15,24.88,5.17Z"/><path class="cls-7" d="M342.8,599.83l8.82,4.38c15.83,7.87,22.47,5.18,25.41-.73s1.07-12.84-14.75-20.7l-8.83-4.39S342.66,600.1,342.8,599.83Z"/><path class="cls-8" d="M354.18,578.75l-8.83-4.38c-15.82-7.87-22.69-5.3-25.63.62s-.85,13,15,20.81l8.83,4.39S354.3,579.12,354.18,578.75Z"/><path class="cls-2" d="M349.71,576.53,339.06,598l8.2,4.08,10.66-21.44Z"/><path class="cls-3" d="M345.35,574.37c-15.82-7.87-22.69-5.3-25.63.62s-.85,13,15,20.81l16.92,8.41c15.83,7.87,22.47,5.18,25.41-.73s1.07-12.84-14.75-20.7Z"/><path class="cls-7" d="M321.08,638.72l7.94,5.83c14.26,10.44,21.26,8.93,25.17,3.6s3.24-12.46-11-22.91l-7.94-5.83Z"/><path class="cls-8" d="M335.88,619.89l-7.95-5.82c-14.25-10.45-21.46-9.08-25.36-3.75s-3,12.61,11.21,23.06l8,5.82S335.94,620.28,335.88,619.89Z"/><path class="cls-2" d="M331.86,617l-14.15,19.3,7.39,5.42,14.15-19.31Z"/><path class="cls-3" d="M327.93,614.07c-14.25-10.45-21.46-9.08-25.36-3.75s-3,12.61,11.21,23.06L329,644.55c14.26,10.44,21.26,8.93,25.17,3.6s3.24-12.46-11-22.91Z"/><path class="cls-7" d="M344.28,533.67l-9.46,2.77c-17,5-20,11.45-18.15,17.8s7.92,10.15,24.88,5.17l9.46-2.77S344.19,533.38,344.28,533.67Z"/><path class="cls-8" d="M350.23,556.87l9.46-2.77c17-5,20.25-11.52,18.39-17.86s-8.16-10.08-25.12-5.11l-9.46,2.77S349.89,556.69,350.23,556.87Z"/><path class="cls-2" d="M355,555.47l-6.74-23-8.79,2.57,6.74,23Z"/><path class="cls-3" d="M359.69,554.1c17-5,20.25-11.52,18.39-17.86s-8.16-10.08-25.12-5.11l-18.14,5.31c-17,5-20,11.45-18.15,17.8s7.92,10.15,24.88,5.17Z"/><path class="cls-7" d="M416.8,547.83l8.82,4.38c15.83,7.87,22.47,5.18,25.41-.73s1.07-12.84-14.75-20.7l-8.83-4.39S416.66,548.1,416.8,547.83Z"/><path class="cls-8" d="M428.18,526.75l-8.83-4.38c-15.82-7.87-22.69-5.3-25.63.62s-.85,13,15,20.81l8.83,4.39S428.3,527.12,428.18,526.75Z"/><path class="cls-2" d="M423.71,524.53,413.06,546l8.2,4.08,10.66-21.44Z"/><path class="cls-3" d="M419.35,522.37c-15.82-7.87-22.69-5.3-25.63.62s-.85,13,15,20.81l16.92,8.41c15.83,7.87,22.47,5.18,25.41-.73s1.07-12.84-14.75-20.7Z"/><path class="cls-7" d="M392.3,583.7l5.51,8.17c9.88,14.65,17,15.59,22.46,11.89s7.27-10.63-2.62-25.28l-5.51-8.17Z"/><path class="cls-8" d="M412.6,571l-5.52-8.17c-9.88-14.65-17.12-15.8-22.6-12.1s-7.12,10.84,2.76,25.49l5.51,8.17S412.52,571.36,412.6,571Z"/><path class="cls-2" d="M409.81,566.85,390,580.24l5.13,7.59,19.84-13.39Z"/><path class="cls-3" d="M407.08,562.81c-9.88-14.65-17.12-15.8-22.6-12.1s-7.12,10.84,2.76,25.49l10.57,15.67c9.88,14.65,17,15.59,22.46,11.89s7.27-10.63-2.62-25.28Z"/></svg>