<svg xmlns="http://www.w3.org/2000/svg" viewBox="0 0 564 236"><defs><style>.a{fill:#045646;}.b{fill:#f91d00;}</style></defs><title>AscendingPainPathway</title><path class="a" d="M21.721,71.482a8.987,8.987,0,0,1-3.822-6.55,16.291,16.291,0,0,1-.089-3.525l.662-10-4.087.6.7-11.208,4.086-.6.425-6.782L34.7,27.885l-.642,10.139L41.2,36.982,40.083,48.251l-6.719.981L32.778,58.3a11.953,11.953,0,0,0,.043,1.266,1.763,1.763,0,0,0,1,1.483,4.715,4.715,0,0,0,2.5.131,15.083,15.083,0,0,0,4.193-1.32l-.684,9.861a27.761,27.761,0,0,1-9.592,3.1Q24.894,73.6,21.721,71.482Z"/><path class="a" d="M46.44,22.069,61.332,19.9l-1.06,16a18.808,18.808,0,0,1,4.22-2.349,21.408,21.408,0,0,1,5.133-1.421q5.4-.789,8.528,1.23a8.812,8.812,0,0,1,3.782,6.523,18.738,18.738,0,0,1,.13,3.8L80.754,64.74,65.792,66.924l1.275-19.853a11.711,11.711,0,0,0-.043-1.266,1.865,1.865,0,0,0-.816-1.473,3.355,3.355,0,0,0-2.039-.162,7.272,7.272,0,0,0-2.523.9,7.018,7.018,0,0,0-2.053,1.679L58.242,68.026,43.35,70.2Z"/><path class="a" d="M91.021,60.447a11.433,11.433,0,0,1-6.052-8.986,20.05,20.05,0,0,1-.151-3.939q.646-8.652,5.056-13.825t14.245-6.607q6.789-.99,11.3,1.816a11.324,11.324,0,0,1,5.332,8.419,18.463,18.463,0,0,1,.129,3.306l-.349,5.85-22.3,3.257a3.807,3.807,0,0,0,2.918,2.546,18.979,18.979,0,0,0,6.919-.091,34.726,34.726,0,0,0,5.778-1.374,32.974,32.974,0,0,0,4.844-1.945l-.567,8.714q-5.058,3.144-14.478,4.517Q96.161,63.2,91.021,60.447ZM109.01,40.241l.008-.921a2.718,2.718,0,0,0-1.305-2.39A5.358,5.358,0,0,0,104,36.446q-5.681.83-5.934,5.392Z"/><path class="a" d="M38.947,89.863,60.1,86.775l19.366,59-20.211,2.951L55.334,137.01l-16.45,2.4L33.5,152.487l-21.715,3.17Zm14.7,32.991-4.773-14.281-6.6,15.942Z"/><path class="a" d="M92.845,143.728a32.82,32.82,0,0,1-9.5-1.591l1.079-16.286a45.217,45.217,0,0,0,9.565,2.059,37.424,37.424,0,0,0,9.545-.049,18.069,18.069,0,0,0,5.947-1.685,3.632,3.632,0,0,0,2.086-3.137,2.461,2.461,0,0,0-1.58-2.6,34.729,34.729,0,0,0-6.534-1.686q-1.278-.2-3.455-.648-6.642-1.428-10.23-4.314a12.129,12.129,0,0,1-4.344-8.055,19.572,19.572,0,0,1-.1-4.595q.654-9.984,7.147-15.493t20.029-7.483a72.2,72.2,0,0,1,19.213.074L130.655,94.62a38.778,38.778,0,0,0-15.831-1.241,25.355,25.355,0,0,0-6.752,1.753q-2.428,1.125-2.1,3.379.192,1.317,1.994,1.821a75.917,75.917,0,0,0,7.877,1.347q7.942,1.141,11.742,4.477a13.81,13.81,0,0,1,4.581,8.692,23.22,23.22,0,0,1,.164,5.064,21.314,21.314,0,0,1-7.437,15.152q-6.849,6.039-20.2,7.988A64.054,64.054,0,0,1,92.845,143.728Z"/><path class="a" d="M148.458,130.425q-8.787-4.958-10.421-16.146a37.648,37.648,0,0,1-.266-7.737q1-16.177,9.817-25.482t27.056-11.966a47.968,47.968,0,0,1,18.528.655l-1.193,18.127a34.639,34.639,0,0,0-7.987-1.762,39.344,39.344,0,0,0-9.107.417q-7.8,1.14-11.914,5.2t-4.614,11.809a31.329,31.329,0,0,0,.112,5.36q.685,4.7,4.076,6.222t10.629.465a47.917,47.917,0,0,0,17.607-6.314L189.6,127.49a61.775,61.775,0,0,1-19.006,5.943Q157.245,135.38,148.458,130.425Z"/><path class="a" d="M202.2,66.031l47.1-6.876-.921,15.4-26.885,3.925-.567,7.956,23.407-3.417-.959,15.789-23.407,3.417-.581,7.861,26.886-3.925-.92,15.4-47.1,6.875Z"/><path class="a" d="M257.616,57.941l17.016-2.484,18.081,25.875,1.847-28.784,20.211-2.95L310.824,112l-17.2,2.512L275.646,88.72,273.88,117.4l-20.21,2.95Z"/><path class="a" d="M325.119,48.087l27.919-4.075q11.469-1.674,18.933,3.092t9.07,15.765a44.312,44.312,0,0,1,.348,8.3q-.734,16.046-8.477,24.472t-22.881,10.636l-28.859,4.213Zm22.474,42.8a19.8,19.8,0,0,0,7.254-2.259,10.409,10.409,0,0,0,4.123-4.97,28.771,28.771,0,0,0,1.832-9.484,35.547,35.547,0,0,0-.143-6.891q-.645-4.421-3.289-5.761t-7.813-.587l-5.265.768-1.964,29.952Z"/><path class="a" d="M390.817,38.5l20.211-2.95-3.947,62.4L386.87,100.9Z"/><path class="a" d="M421.321,34.043l17.015-2.483,18.082,25.874,1.847-28.784,20.211-2.95-3.948,62.4-17.2,2.511L439.352,64.821,437.585,93.5l-20.211,2.951Z"/><path class="a" d="M493.684,80.172q-8.439-4.864-10.072-16.052a40.491,40.491,0,0,1-.293-7.926Q484.359,40.3,493.854,30.7t27.169-12.175a55.838,55.838,0,0,1,18.917.023l-1.154,17.738q-6.993-1.859-17.52-.323-8.274,1.208-12.574,5.291t-4.786,11.932a32.858,32.858,0,0,0,.14,6.22q.632,4.325,3.464,5.639t8.942.423a26.314,26.314,0,0,0,7.194-2.011l.411-6.4-11,1.606.834-12.7,27.825-4.062L539.64,73.7a39.562,39.562,0,0,1-10.154,5.754A61.18,61.18,0,0,1,515.377,83.1Q502.123,85.036,493.684,80.172Z"/><path class="a" d="M18.48,178.853l25.075-3.662q6.648-.969,10.708,2.116a13.012,13.012,0,0,1,4.907,8.9,19.965,19.965,0,0,1,.152,4.435,22.951,22.951,0,0,1-5.1,13.513q-4.572,5.516-13.23,6.778l-8.035,1.172-.622,10.278-16.763,2.447ZM37.9,198.018a4.909,4.909,0,0,0,3.129-1.588,5.45,5.45,0,0,0,1.252-3.3,6.141,6.141,0,0,0-.005-1.486q-.414-2.838-3.531-2.384l-4.364.636-.567,8.714Z"/><path class="a" d="M76.337,170.406l17.386-2.538,14.269,43.474-16.623,2.427-2.669-8.1-10.8,1.577-3.706,9.029L56.251,218.9Zm10.9,23.805L84.4,185.924,80.452,195.2Z"/><path class="a" d="M113.774,164.941l16.763-2.447-2.908,45.982-16.763,2.447Z"/><path class="a" d="M137.512,161.476l14.06-2.053,11.345,16.17L164.04,157.6l16.763-2.448L177.9,201.138l-14.13,2.062-11.276-16.179-1.123,17.99L134.6,207.457Z"/><path class="a" d="M209.893,150.909l25.075-3.66q6.648-.97,10.707,2.115a13.014,13.014,0,0,1,4.908,8.905,19.9,19.9,0,0,1,.151,4.435,22.946,22.946,0,0,1-5.1,13.513q-4.572,5.516-13.231,6.777l-8.035,1.173-.621,10.277-16.763,2.448Zm19.422,19.166a4.893,4.893,0,0,0,3.128-1.589,5.43,5.43,0,0,0,1.252-3.295,6.138,6.138,0,0,0,0-1.485q-.414-2.84-3.532-2.386l-4.363.638-.567,8.714Z"/><path class="a" d="M267.75,142.464l17.386-2.538L299.4,183.4l-16.624,2.427-2.668-8.1-10.805,1.578-3.7,9.029-17.941,2.619Zm10.9,23.8-2.837-8.287-3.951,9.278Z"/><path class="a" d="M308.963,148.756,297.6,150.414l.8-12.426,39.482-5.763-.8,12.425-11.36,1.659-2.105,33.555-16.763,2.448Z"/><path class="a" d="M340.325,131.869l16.763-2.447-.924,14.99,11.151-1.628.924-14.99L385,125.347l-2.908,45.981-16.762,2.447.923-14.99L355.1,160.413l-.924,14.99-16.763,2.448Z"/><path class="a" d="M388.693,124.808l16.347-2.386,2.28,17.069,3.186-10.157.491-7.782,13.646-1.991,3.882,16.906,4.914-18.191,16.278-2.377-13.229,47.489-14.131,2.063-4.23-17.351-6.852,18.968-15.1,2.2Z"/><path class="a" d="M465.162,113.645l17.386-2.538,14.269,43.474-16.623,2.427-2.669-8.1-10.8,1.578-3.7,9.03-17.94,2.618Zm10.9,23.8-2.836-8.287-3.952,9.278Z"/><path class="a" d="M509.025,136.245l-14.258-26.922,16.969-2.477,6.16,13.6,7.971-15.664,17.94-2.619L525.788,133.8l-1.029,16.7L508,152.949Z"/><path class="b" d="M30.134,64.985a8.989,8.989,0,0,1-3.821-6.55,16.224,16.224,0,0,1-.09-3.525l.662-10-4.087.6L23.5,34.3l4.085-.6.425-6.782,15.11-5.531-.642,10.139,7.135-1.042L48.5,41.754l-6.719.981-.586,9.071a11.671,11.671,0,0,0,.043,1.266,1.761,1.761,0,0,0,.994,1.483,4.717,4.717,0,0,0,2.5.131,15.073,15.073,0,0,0,4.193-1.32l-.683,9.861a27.759,27.759,0,0,1-9.593,3.1Q33.307,67.1,30.134,64.985Z"/><path class="b" d="M54.854,15.572,69.746,13.4l-1.06,16a18.824,18.824,0,0,1,4.22-2.348,21.4,21.4,0,0,1,5.133-1.421q5.4-.789,8.527,1.23a8.809,8.809,0,0,1,3.782,6.523,18.734,18.734,0,0,1,.131,3.8l-1.312,21.06L74.206,60.427l1.275-19.853a12,12,0,0,0-.043-1.266,1.87,1.87,0,0,0-.816-1.473,3.358,3.358,0,0,0-2.04-.162,7.267,7.267,0,0,0-2.522.9,7.023,7.023,0,0,0-2.054,1.679l-1.35,21.278L51.763,63.7Z"/><path class="b" d="M99.434,53.95a11.433,11.433,0,0,1-6.052-8.986,20.132,20.132,0,0,1-.15-3.939q.647-8.652,5.056-13.825t14.245-6.607q6.788-.99,11.3,1.816a11.324,11.324,0,0,1,5.332,8.419,18.463,18.463,0,0,1,.129,3.306l-.348,5.85-22.3,3.257a3.808,3.808,0,0,0,2.919,2.546,19,19,0,0,0,6.919-.091,34.715,34.715,0,0,0,5.777-1.374,32.991,32.991,0,0,0,4.845-1.945l-.567,8.714q-5.059,3.144-14.479,4.517Q104.574,56.7,99.434,53.95Zm17.989-20.206.008-.921a2.718,2.718,0,0,0-1.3-2.39,5.357,5.357,0,0,0-3.713-.484q-5.68.829-5.934,5.392Z"/><path class="b" d="M47.36,83.366l21.151-3.088,19.366,59-20.21,2.95-3.919-11.716-16.451,2.4L41.909,145.99l-21.715,3.17Zm14.7,32.99-4.773-14.28-6.6,15.942Z"/><path class="b" d="M101.258,137.23a32.8,32.8,0,0,1-9.5-1.59l1.079-16.286a45.217,45.217,0,0,0,9.565,2.059,37.432,37.432,0,0,0,9.546-.049,18.094,18.094,0,0,0,5.946-1.685,3.633,3.633,0,0,0,2.087-3.137,2.462,2.462,0,0,0-1.58-2.6,34.745,34.745,0,0,0-6.535-1.686q-1.276-.2-3.454-.648-6.644-1.428-10.231-4.314a12.129,12.129,0,0,1-4.344-8.055,19.572,19.572,0,0,1-.095-4.595q.654-9.984,7.147-15.493t20.029-7.483a72.088,72.088,0,0,1,19.213.074l-1.065,16.382a38.779,38.779,0,0,0-15.831-1.241,25.374,25.374,0,0,0-6.753,1.753q-2.427,1.125-2.1,3.379.192,1.317,1.994,1.821a75.917,75.917,0,0,0,7.877,1.347Q132.2,96.324,136,99.659a13.811,13.811,0,0,1,4.582,8.692,23.219,23.219,0,0,1,.163,5.064,21.31,21.31,0,0,1-7.437,15.152q-6.847,6.039-20.195,7.988A63.97,63.97,0,0,1,101.258,137.23Z"/><path class="b" d="M156.871,123.928q-8.787-4.957-10.421-16.146a37.718,37.718,0,0,1-.266-7.737q1-16.177,9.817-25.483T183.057,62.6a47.968,47.968,0,0,1,18.528.655l-1.193,18.127a34.59,34.59,0,0,0-7.986-1.762,39.3,39.3,0,0,0-9.108.417q-7.8,1.14-11.914,5.195t-4.613,11.81a31.248,31.248,0,0,0,.111,5.36q.685,4.7,4.076,6.222t10.629.465a47.913,47.913,0,0,0,17.607-6.315l-1.18,18.222a61.775,61.775,0,0,1-19.006,5.943Q165.658,128.883,156.871,123.928Z"/><path class="b" d="M210.615,59.534l47.1-6.876-.921,15.4-26.885,3.924-.567,7.957,23.407-3.417-.959,15.789-23.407,3.417-.581,7.861,26.886-3.925-.92,15.4-47.1,6.875Z"/><path class="b" d="M266.03,51.444l17.015-2.484,18.081,25.875,1.847-28.784,20.211-2.95-3.947,62.4-17.2,2.512L284.06,82.223,282.293,110.9l-20.21,2.951Z"/><path class="b" d="M333.532,41.59l27.92-4.075q11.467-1.675,18.932,3.091t9.07,15.766a44.143,44.143,0,0,1,.348,8.3q-.732,16.046-8.477,24.472T358.444,99.781l-28.859,4.213Zm22.474,42.8a19.8,19.8,0,0,0,7.254-2.259,10.4,10.4,0,0,0,4.123-4.97,28.719,28.719,0,0,0,1.832-9.484,35.64,35.64,0,0,0-.142-6.891q-.645-4.42-3.289-5.761t-7.814-.588l-5.264.769L350.742,85.16Z"/><path class="b" d="M399.23,32l20.211-2.95-3.947,62.4-20.21,2.95Z"/><path class="b" d="M429.735,27.546l17.015-2.484,18.082,25.875,1.846-28.784,20.211-2.95-3.947,62.4-17.2,2.511L447.765,58.324,446,87l-20.21,2.951Z"/><path class="b" d="M502.1,73.675q-8.439-4.864-10.072-16.052a40.569,40.569,0,0,1-.293-7.926q1.039-15.894,10.536-25.491t27.169-12.175a55.839,55.839,0,0,1,18.917.023L547.2,29.792q-6.993-1.858-17.52-.323-8.272,1.207-12.573,5.291T512.32,46.692a32.874,32.874,0,0,0,.139,6.22q.632,4.325,3.464,5.639t8.942.423a26.322,26.322,0,0,0,7.195-2.011l.41-6.4-11,1.606.834-12.7,27.825-4.062-2.078,31.794A39.545,39.545,0,0,1,537.9,72.96,61.166,61.166,0,0,1,523.79,76.6Q510.536,78.539,502.1,73.675Z"/><path class="b" d="M26.894,172.355l25.074-3.661q6.65-.969,10.708,2.116a13.008,13.008,0,0,1,4.907,8.9,19.965,19.965,0,0,1,.152,4.435,22.951,22.951,0,0,1-5.1,13.513q-4.572,5.516-13.23,6.777l-8.035,1.173-.621,10.278-16.763,2.447Zm19.422,19.166a4.906,4.906,0,0,0,3.128-1.588,5.438,5.438,0,0,0,1.252-3.3,6.2,6.2,0,0,0,0-1.486q-.414-2.838-3.532-2.384L42.8,183.4l-.567,8.714Z"/><path class="b" d="M84.75,163.909l17.386-2.538,14.27,43.474-16.623,2.426-2.669-8.1L86.309,200.75l-3.7,9.029L64.665,212.4Zm10.9,23.805-2.837-8.287L88.866,188.7Z"/><path class="b" d="M122.188,158.444,138.951,156l-2.909,45.982-16.762,2.447Z"/><path class="b" d="M145.925,154.979l14.061-2.053,11.345,16.17,1.123-17.99,16.762-2.447-2.908,45.982-14.13,2.062L160.9,180.523l-1.122,17.991-16.763,2.446Z"/><path class="b" d="M218.306,144.412l25.075-3.66q6.648-.972,10.707,2.115a13.018,13.018,0,0,1,4.909,8.9,20.034,20.034,0,0,1,.151,4.436,22.954,22.954,0,0,1-5.1,13.513q-4.572,5.514-13.23,6.777l-8.035,1.173-.621,10.277L215.4,190.4Zm19.423,19.166a4.9,4.9,0,0,0,3.128-1.589,5.43,5.43,0,0,0,1.252-3.3,6.082,6.082,0,0,0,0-1.485q-.414-2.839-3.531-2.386l-4.364.638-.567,8.714Z"/><path class="b" d="M276.163,135.967l17.386-2.538,14.27,43.473L291.2,179.329l-2.669-8.1-10.805,1.579-3.7,9.029-17.94,2.619Zm10.9,23.8-2.837-8.287-3.951,9.278Z"/><path class="b" d="M317.376,142.259l-11.359,1.658.8-12.426,39.481-5.763-.8,12.425-11.36,1.659-2.1,33.555-16.763,2.447Z"/><path class="b" d="M348.739,125.372l16.762-2.447-.924,14.99,11.152-1.628.924-14.99,16.763-2.447-2.909,45.981-16.761,2.447.922-14.99-11.151,1.628-.924,14.99-16.762,2.448Z"/><path class="b" d="M397.107,118.311l16.347-2.386,2.279,17.069,3.186-10.157.492-7.782,13.645-1.992,3.882,16.907,4.915-18.191L458.13,109.4,444.9,156.891l-14.131,2.063-4.23-17.351-6.852,18.968-15.1,2.2Z"/><path class="b" d="M473.576,107.147l17.385-2.537,14.27,43.474-16.623,2.427-2.669-8.1-10.805,1.578-3.705,9.03-17.939,2.618Zm10.9,23.8-2.837-8.287-3.951,9.278Z"/><path class="b" d="M517.438,129.748,503.18,102.826l16.97-2.477,6.16,13.6,7.97-15.664,17.94-2.619L534.2,127.3l-1.029,16.7-16.761,2.447Z"/></svg>