<svg xmlns="http://www.w3.org/2000/svg" viewBox="0 0 277 130"><defs><style>.a{fill:#fff;}</style></defs><title>HowPainWorks</title><path class="a" d="M224.583,43.062c-18.509,0-34.729,8.224-43.8,20.564.021-.642.051-1.282.051-1.929,0-33.927-28.843-61.431-64.424-61.431C80.866.266,52.05,27.71,51.987,61.587a53.132,53.132,0,0,0-8.846-.74C19.479,60.847.3,76.268.3,95.291s19.182,34.443,42.847,34.443c49.506,0,98.962-4.714,148.477-2.71,31.057,1.257,84.447,6.174,84.447-40.626C276.068,62.465,253.017,43.062,224.583,43.062Z"/></svg>