<svg xmlns="http://www.w3.org/2000/svg" viewBox="0 0 249 264"><defs><style>.a,.c{fill:#fff;}.b,.h{fill:#b5b5b5;}.c,.f,.g,.h{stroke:#000;stroke-miterlimit:10;}.c,.f,.h{stroke-width:5px;}.d{fill:#5367bc;}.e{fill:#ffed6c;stroke:red;stroke-linejoin:round;}.f,.g{fill:none;}.g{stroke-width:2px;}.i{fill:#487fc1;}</style></defs><title>HowPainWorks</title><polygon class="a" points="18.493 3.27 2.872 162.486 29.909 203.342 238.391 205.144 246.202 166.091 244.399 1.468 18.493 3.27"/><polygon class="b" points="246.202 166.091 2.872 162.486 30.209 203.642 238.692 205.445 246.202 166.091"/><line class="c" x1="2.872" y1="162.486" x2="246.202" y2="166.091"/><path class="d" d="M233.284,26.4,23.6,25.8l-9.012,96.13,219.3,2.4Zm-11.415,91.924L26,115.322l2.4-31.242,194.063,1.8Z"/><path class="a" d="M28.079,39.327H41.237l-.268,2.553H31.086l-.616,5.858h8.772l-.265,2.524H30.205l-.884,8.411H26.046Z"/><path class="a" d="M43.82,39.327H57.309L57.04,41.88H46.826l-.615,5.858h9.1l-.265,2.524h-9.1l-.618,5.888H55.54l-.265,2.523H41.787Z"/><path class="a" d="M60.342,39.327h2.884l8.6,14.239,1.5-14.239h3.244L74.531,58.673H71.647l-8.57-14.209L61.584,58.673H58.309Z"/><path class="a" d="M85.128,41.88H78.939l.269-2.553H94.829l-.268,2.553H88.4L86.637,58.673H83.363Z"/><path class="a" d="M100.507,39.327h3.665l5.3,19.346H106.1l-1.4-4.986H96.924l-2.446,4.986H91.083Zm3.923,11.836L102,42.3l-4.3,8.862Z"/><path class="a" d="M114.715,39.327H117.6l8.6,14.239,1.5-14.239h3.244L128.9,58.673H126.02l-8.57-14.209-1.493,14.209h-3.275Z"/><path class="a" d="M138.461,51.493,132.8,39.327h3.394l4.179,9.4,6.155-9.4h3.4l-8.218,12.166-.755,7.18h-3.244Z"/><path class="a" d="M153.107,39.327h3.275L154.614,56.15h9.913l-.265,2.523H151.074Z"/><polygon class="e" points="18.794 130.343 41.625 130.343 29.007 151.972 18.794 130.343"/><path d="M28.088,143.507h2.033l-.151,1.437H27.937Zm.809-7.025.3-2.821H31.1l-.3,2.821-.7,5.641h-1.7Z"/><polygon class="f" points="18.493 3.27 2.872 162.486 29.909 203.342 238.391 205.144 246.202 166.091 245.601 2.67 18.493 3.27"/><path d="M95.5,101.837l.344-3.27h-5.58L90.38,97.5l6.165-7.668H98.3l-.784,7.465H99.2l-.134,1.275H97.382l-.344,3.27Zm.478-4.545.422-4.01q.1-.942.253-1.885H96.6c-.444.7-.794,1.22-1.185,1.774L92.05,97.255l0,.037Z"/><path d="M108.584,95.7c-.429,4.083-2.182,6.337-4.842,6.337-2.347,0-3.7-2.2-3.324-6.171.423-4.028,2.393-6.246,4.832-6.246C107.782,89.623,108.986,91.878,108.584,95.7Zm-6.542.184c-.329,3.123.446,4.9,1.924,4.9,1.663,0,2.662-1.94,2.984-5.008.311-2.956-.243-4.9-1.924-4.9C103.6,90.88,102.385,92.617,102.042,95.887Z"/><path d="M118.062,95.7c-.429,4.083-2.181,6.337-4.842,6.337-2.347,0-3.7-2.2-3.324-6.171.423-4.028,2.393-6.246,4.832-6.246C117.26,89.623,118.464,91.878,118.062,95.7Zm-6.542.184c-.328,3.123.446,4.9,1.924,4.9,1.663,0,2.662-1.94,2.984-5.008.311-2.956-.243-4.9-1.924-4.9C113.081,90.88,111.864,92.617,111.52,95.887Z"/><path d="M124.033,95.314c.1-.923.158-1.681.18-2.42h1.423l-.077,1.441h.055A3.493,3.493,0,0,1,128.6,92.69a2.323,2.323,0,0,1,2.343,1.793h.037a4.283,4.283,0,0,1,1.12-1.164,3.328,3.328,0,0,1,2.043-.629c1.183,0,2.856.777,2.53,3.881l-.554,5.266h-1.589l.533-5.063c.18-1.718-.339-2.753-1.651-2.753a2.407,2.407,0,0,0-2.077,1.478,2.867,2.867,0,0,0-.215.813l-.581,5.525h-1.589l.563-5.358c.15-1.423-.37-2.458-1.608-2.458a2.546,2.546,0,0,0-2.185,1.626,2.4,2.4,0,0,0-.212.795l-.567,5.4h-1.59Z"/><path d="M145.167,101.5a6.38,6.38,0,0,1-2.623.518c-2.7,0-4.261-1.829-3.974-4.564a5.153,5.153,0,0,1,5.3-4.749,5.085,5.085,0,0,1,2.205.462l-.5,1.257a3.651,3.651,0,0,0-5.355,2.956c-.218,2.07.979,3.344,2.752,3.344a4.956,4.956,0,0,0,2.043-.443Z"/><path d="M155.679,92.894c-.1.647-.217,1.367-.332,2.458l-.546,5.192c-.215,2.051-.754,3.307-1.7,4.083a5.177,5.177,0,0,1-3.364,1.072,5.367,5.367,0,0,1-2.9-.739l.537-1.238a4.658,4.658,0,0,0,2.55.7c1.663,0,2.974-.868,3.211-3.123l.1-1H153.2a3.6,3.6,0,0,1-3,1.5c-2.218,0-3.609-1.885-3.348-4.36.318-3.031,2.476-4.75,4.527-4.75A2.626,2.626,0,0,1,154,94.243h.037l.216-1.349Zm-2.052,3.529a2.254,2.254,0,0,0-.015-.739,2.055,2.055,0,0,0-2.092-1.719c-1.552,0-2.8,1.313-3.016,3.382-.184,1.755.549,3.215,2.3,3.215a2.708,2.708,0,0,0,2.429-1.663,2.983,2.983,0,0,0,.221-.868Z"/><polygon class="g" points="15.189 127.339 234.486 129.742 234.486 156.178 12.785 154.375 15.189 127.339"/><path class="h" d="M180.24,236.2l23.144-5.1a9.874,9.874,0,0,0,3.348-10.284c-1.567-6.829-8.981-7.347-8.981-7.347l-21.244,5.088a15.523,15.523,0,0,0,.079,11.4C179.1,235.832,180.24,236.2,180.24,236.2Z"/><path class="h" d="M97.525,248.652,95.87,240.12l80.819-17.283s1.558.081,2.342,3.5-.687,5.037-.687,5.037Z"/><polygon class="b" points="63.22 260.861 59.798 244.172 97.172 236.121 100.594 252.811 63.22 260.861"/><polygon class="i" points="93.277 247.803 94.292 253.713 100.935 252.717 99.753 246.645 93.277 247.803"/><polygon class="i" points="90.925 237.56 92.512 243.655 98.584 242.473 97.296 236.062 90.925 237.56"/><polygon class="e" points="79.997 247.163 76.648 257.446 87.056 255.217 79.997 247.163"/><path d="M80.709,254.647l1.012-.177.126.715-1.012.178Zm-.58-3.5-.247-1.405.951-.167.247,1.405.441,2.818-.846.149Z"/><polygon class="f" points="63.22 260.861 59.798 244.172 97.172 236.121 100.594 252.811 63.22 260.861"/></svg>