<svg xmlns="http://www.w3.org/2000/svg" viewBox="0 0 725 127"><defs><style>.a{fill:#2bbc66;}</style></defs><title>HowPAinWorksScene7</title><path d="M51.1,33.548h50.1l-3.3,15.9H69.3l-1.8,8.2H92.4L89,73.948H64.1l-1.8,8.1H90.9l-3.3,15.9H37.5Z"/><path d="M110.047,33.548h18.1l14.9,29.7,6.3-29.7h21.5l-13.6,64.4h-18.3l-14.8-29.6-6.2,29.6h-21.5Z"/><path d="M181.855,33.548h29.7q12.2,0,19.25,6.1t7.049,17.8a46.454,46.454,0,0,1-.9,8.7q-3.2,16.6-12.551,24.2t-25.449,7.6h-30.7Zm16.9,48a20.819,20.819,0,0,0,7.9-1.25,10.953,10.953,0,0,0,5.051-4.55,30.269,30.269,0,0,0,3.35-9.6,37.544,37.544,0,0,0,.9-7.2q0-4.7-2.551-6.5t-8.05-1.8h-5.6l-6.6,30.9Z"/><path d="M248.535,93.2q-7.35-5.749-7.35-17.55a44.59,44.59,0,0,1,1.1-9.8q2.6-12,7.75-19.3a30.012,30.012,0,0,1,13.2-10.65q8.049-3.35,19.85-3.35,13.1,0,20.4,5.85t7.3,17.65a45.542,45.542,0,0,1-1.1,9.8q-2.6,11.9-7.65,19.15a29.427,29.427,0,0,1-13.15,10.6q-8.1,3.351-20,3.35Q255.885,98.948,248.535,93.2Zm33.95-15.95q3.5-3.5,5.2-11.4a34.568,34.568,0,0,0,.9-7q0-4.3-2.2-6.15t-7.2-1.85q-6.4,0-9.85,3.4t-5.15,11.6a31.835,31.835,0,0,0-.9,6.8q0,4.3,2.25,6.2t7.25,1.9Q278.985,80.748,282.485,77.248Z"/><path d="M324.544,33.548h34.8q9.1,0,14.2,4.85t5.1,12.95a29.1,29.1,0,0,1-.6,5.7,25.487,25.487,0,0,1-5.4,11.45,29.243,29.243,0,0,1-10.3,7.85,8.656,8.656,0,0,1,2.3,4.4l3.9,17.2h-22.4l-3.5-14.9a3.471,3.471,0,0,0-1.05-2.1,3.748,3.748,0,0,0-2.35-.6h-3.1l-3.7,17.6h-21.5Zm23,30.2a9.091,9.091,0,0,0,5.9-1.65,8.514,8.514,0,0,0,2.7-5.05,13.9,13.9,0,0,0,.3-2.7,3.733,3.733,0,0,0-1.25-3.1,6.927,6.927,0,0,0-4.25-1h-8.4l-2.9,13.5Z"/><path d="M391.063,33.548h33.5q9.9,0,15.2,5.25t5.3,13.65a27.159,27.159,0,0,1-.6,5.5q-2.2,11.5-9.6,17.85t-19.8,6.35h-12.8l-3.3,15.8h-21.5Zm22.6,31.9q4,0,6.05-1.9a10.406,10.406,0,0,0,2.85-5.6,14.315,14.315,0,0,0,.3-2.8q0-4.9-5.6-4.9h-8.2l-3.2,15.2Z"/><path d="M455.833,33.548h21.5l-4.7,22.5h19.1l4.7-22.5h21.5l-13.6,64.4h-21.5l4.7-22.5h-19.1l-4.7,22.5h-21.5Z"/><path d="M528.942,33.548h21.5l-13.6,64.4h-21.5Z"/><path d="M561.392,33.548h18.1l14.9,29.7,6.3-29.7h21.5l-13.6,64.4h-18.3l-14.8-29.6-6.2,29.6h-21.5Z"/><path d="M628.181,97.848a34.531,34.531,0,0,1-9.65-3.1l3.6-16.8a47.527,47.527,0,0,0,9.65,3.6,39.421,39.421,0,0,0,9.95,1.4,19.039,19.039,0,0,0,6.45-.85,3.827,3.827,0,0,0,2.65-2.95,2.592,2.592,0,0,0-1.25-2.95,36.463,36.463,0,0,0-6.55-2.75q-1.3-.4-3.5-1.2-6.7-2.5-10-6.05a12.766,12.766,0,0,1-3.3-9.05,20.572,20.572,0,0,1,.6-4.8q2.2-10.3,9.8-15.05t22-4.75a75.932,75.932,0,0,1,20,3l-3.6,16.9a40.816,40.816,0,0,0-16.3-3.7,26.68,26.68,0,0,0-7.3.8q-2.7.8-2.7,3.2,0,1.4,1.8,2.2a80.059,80.059,0,0,0,8,2.6q8.1,2.4,11.55,6.45a14.534,14.534,0,0,1,3.45,9.75,24.381,24.381,0,0,1-.6,5.3,22.431,22.431,0,0,1-10.05,14.65q-8.05,5.25-22.25,5.25A67.361,67.361,0,0,1,628.181,97.848Z"/><path class="a" d="M67.1,22.549h50.1l-3.3,15.9H85.3l-1.8,8.2h24.9l-3.4,16.3H80.1l-1.8,8.1h28.6l-3.3,15.9H53.5Z"/><path class="a" d="M126.047,22.549h18.1l14.9,29.7,6.3-29.7h21.5l-13.6,64.4h-18.3l-14.8-29.6-6.2,29.6h-21.5Z"/><path class="a" d="M197.855,22.549h29.7q12.2,0,19.25,6.1t7.049,17.8a46.454,46.454,0,0,1-.9,8.7q-3.2,16.6-12.551,24.2t-25.449,7.6h-30.7Zm16.9,48a20.839,20.839,0,0,0,7.9-1.25,10.961,10.961,0,0,0,5.051-4.551,30.26,30.26,0,0,0,3.35-9.6,37.544,37.544,0,0,0,.9-7.2q0-4.7-2.551-6.5t-8.05-1.8h-5.6l-6.6,30.9Z"/><path class="a" d="M264.535,82.2q-7.35-5.749-7.35-17.55a44.59,44.59,0,0,1,1.1-9.8q2.6-12,7.75-19.3a30.008,30.008,0,0,1,13.2-10.651q8.049-3.348,19.85-3.349,13.1,0,20.4,5.849t7.3,17.651a45.54,45.54,0,0,1-1.1,9.8q-2.6,11.9-7.65,19.15a29.427,29.427,0,0,1-13.15,10.6q-8.1,3.351-20,3.35Q271.885,87.948,264.535,82.2Zm33.95-15.95q3.5-3.5,5.2-11.4a34.559,34.559,0,0,0,.9-7q0-4.3-2.2-6.15t-7.2-1.85q-6.4,0-9.85,3.4t-5.15,11.6a31.843,31.843,0,0,0-.9,6.8q0,4.3,2.25,6.2t7.25,1.9Q294.985,69.748,298.485,66.248Z"/><path class="a" d="M340.544,22.549h34.8q9.1,0,14.2,4.849t5.1,12.95a29.107,29.107,0,0,1-.6,5.7,25.488,25.488,0,0,1-5.4,11.449,29.219,29.219,0,0,1-10.3,7.85,8.656,8.656,0,0,1,2.3,4.4l3.9,17.2h-22.4l-3.5-14.9a3.474,3.474,0,0,0-1.05-2.1,3.754,3.754,0,0,0-2.35-.6h-3.1l-3.7,17.6h-21.5Zm23,30.2a9.091,9.091,0,0,0,5.9-1.65,8.514,8.514,0,0,0,2.7-5.049,13.914,13.914,0,0,0,.3-2.7,3.734,3.734,0,0,0-1.25-3.1,6.927,6.927,0,0,0-4.25-1h-8.4l-2.9,13.5Z"/><path class="a" d="M407.063,22.549h33.5q9.9,0,15.2,5.25t5.3,13.649a27.159,27.159,0,0,1-.6,5.5q-2.2,11.5-9.6,17.851t-19.8,6.349h-12.8l-3.3,15.8h-21.5Zm22.6,31.9q4,0,6.05-1.9a10.406,10.406,0,0,0,2.85-5.6,14.315,14.315,0,0,0,.3-2.8q0-4.9-5.6-4.9h-8.2l-3.2,15.2Z"/><path class="a" d="M471.833,22.549h21.5l-4.7,22.5h19.1l4.7-22.5h21.5l-13.6,64.4h-21.5l4.7-22.5h-19.1l-4.7,22.5h-21.5Z"/><path class="a" d="M544.942,22.549h21.5l-13.6,64.4h-21.5Z"/><path class="a" d="M577.392,22.549h18.1l14.9,29.7,6.3-29.7h21.5l-13.6,64.4h-18.3l-14.8-29.6-6.2,29.6h-21.5Z"/><path class="a" d="M644.181,86.848a34.531,34.531,0,0,1-9.65-3.1l3.6-16.8a47.528,47.528,0,0,0,9.65,3.6,39.462,39.462,0,0,0,9.95,1.4,19.013,19.013,0,0,0,6.45-.85,3.824,3.824,0,0,0,2.65-2.95,2.592,2.592,0,0,0-1.25-2.95,36.463,36.463,0,0,0-6.55-2.75q-1.3-.4-3.5-1.2-6.7-2.5-10-6.05a12.766,12.766,0,0,1-3.3-9.05,20.572,20.572,0,0,1,.6-4.8q2.2-10.3,9.8-15.049t22-4.75a75.822,75.822,0,0,1,20,3l-3.6,16.9a40.816,40.816,0,0,0-16.3-3.7,26.635,26.635,0,0,0-7.3.8q-2.7.8-2.7,3.2,0,1.4,1.8,2.2a80.244,80.244,0,0,0,8,2.6q8.1,2.4,11.55,6.449a14.534,14.534,0,0,1,3.45,9.75,24.4,24.4,0,0,1-.6,5.3A22.432,22.432,0,0,1,678.881,82.7q-8.05,5.25-22.25,5.25A67.361,67.361,0,0,1,644.181,86.848Z"/></svg>