<svg xmlns="http://www.w3.org/2000/svg" viewBox="0 0 98 66"><defs><style>.a{fill:#f91d00;}.b{fill:#ffdd15;}.c{fill:none;stroke:#f91d00;stroke-miterlimit:10;}.d{fill:#fff;}</style></defs><title>HowPainWorksScene5</title><polygon class="a" points="15.092 48.853 10.688 59.422 27.422 53.257 30.064 63.826 42.394 55.018 50.321 63.826 58.248 53.257 72.339 62.945 73.22 53.257 88.193 61.183 82.908 44.45 97 38.284 80.266 33 89.954 16.266 73.22 21.55 69.697 2.174 60.89 13.624 52.963 3.936 46.798 14.505 33.655 3.989 32.706 18.028 16.853 7.459 18.615 25.073 1 26.835 13.33 35.642 3.642 47.092 15.092 48.853"/><path class="b" d="M23.656,30.485h7.035a4.345,4.345,0,0,1,3.193,1.1A3.857,3.857,0,0,1,35,34.454a5.7,5.7,0,0,1-.126,1.155,6.317,6.317,0,0,1-2.017,3.749A6.165,6.165,0,0,1,28.7,40.691H26.009l-.694,3.318H20.8Zm4.746,6.7a1.807,1.807,0,0,0,1.271-.4,2.18,2.18,0,0,0,.6-1.176,3.006,3.006,0,0,0,.064-.588q0-1.029-1.176-1.029H27.437l-.672,3.192Z"/><path class="b" d="M41.112,30.485h4.725l2.352,13.524H43.674l-.483-2.688H39.517l-1.6,2.688H33.069Zm2.163,7.686L42.688,34.9l-1.954,3.275Z"/><path class="b" d="M52.351,30.485h4.515L54.01,44.009H49.5Z"/><path class="b" d="M59.333,30.485h3.8l3.129,6.237,1.323-6.237H72.1L69.245,44.009H65.4L62.3,37.793l-1.3,6.216H56.478Z"/><path class="c" d="M26.156,26.985h7.035a4.345,4.345,0,0,1,3.193,1.1A3.857,3.857,0,0,1,37.5,30.954a5.7,5.7,0,0,1-.126,1.155,6.317,6.317,0,0,1-2.017,3.749A6.165,6.165,0,0,1,31.2,37.191H28.509l-.694,3.318H23.3Zm4.746,6.7a1.807,1.807,0,0,0,1.271-.4,2.18,2.18,0,0,0,.6-1.176,3.006,3.006,0,0,0,.064-.588q0-1.029-1.176-1.029H29.937l-.672,3.192Z"/><path class="c" d="M43.612,26.985h4.725l2.352,13.524H46.174l-.483-2.688H42.017l-1.6,2.688H35.569Zm2.163,7.686L45.188,31.4l-1.954,3.275Z"/><path class="c" d="M54.851,26.985h4.515L56.51,40.509H52Z"/><path class="c" d="M61.833,26.985h3.8l3.129,6.237,1.323-6.237H74.6L71.745,40.509H67.9L64.8,34.293l-1.3,6.216H58.978Z"/><path class="d" d="M26.156,26.985h7.035a4.345,4.345,0,0,1,3.193,1.1A3.857,3.857,0,0,1,37.5,30.954a5.7,5.7,0,0,1-.126,1.155,6.317,6.317,0,0,1-2.017,3.749A6.165,6.165,0,0,1,31.2,37.191H28.509l-.694,3.318H23.3Zm4.746,6.7a1.807,1.807,0,0,0,1.271-.4,2.18,2.18,0,0,0,.6-1.176,3.006,3.006,0,0,0,.064-.588q0-1.029-1.176-1.029H29.937l-.672,3.192Z"/><path class="d" d="M43.612,26.985h4.725l2.352,13.524H46.174l-.483-2.688H42.017l-1.6,2.688H35.569Zm2.163,7.686L45.188,31.4l-1.954,3.275Z"/><path class="d" d="M54.851,26.985h4.515L56.51,40.509H52Z"/><path class="d" d="M61.833,26.985h3.8l3.129,6.237,1.323-6.237H74.6L71.745,40.509H67.9L64.8,34.293l-1.3,6.216H58.978Z"/></svg>