<svg id="Layer_1" data-name="Layer 1" xmlns="http://www.w3.org/2000/svg" viewBox="0 0 26 26"><defs><style>.cls-1{fill:#6c3;}</style></defs><title>HowPainWorksScene5</title><path class="cls-1" d="M17.818,21.55a.5.5,0,0,1-.33-.124L12.908,17.4,9.6,20.484a.5.5,0,0,1-.837-.426l.5-4.145L4.574,14.738a.5.5,0,0,1-.058-.951l4.467-1.719-2-5.341a.5.5,0,0,1,.468-.676.507.507,0,0,1,.247.065L12.66,8.933,14.2,4.776a.5.5,0,0,1,.469-.326l.056,0a.5.5,0,0,1,.439.43l.78,5.812,5.435.847a.5.5,0,0,1,.158.935L16.9,14.96l1.408,5.976a.5.5,0,0,1-.487.614Z"/><path d="M14.672,4.95l.829,6.182,5.8.9L16.322,14.7l1.5,6.349L12.9,16.729,9.254,20.117l.557-4.582L4.7,14.253l4.929-1.9L7.45,6.551l5.474,3.107L14.672,4.95m0-1a1,1,0,0,0-.937.652L12.4,8.208,7.943,5.682A1,1,0,0,0,6.514,6.9l1.827,4.877-4,1.541a1,1,0,0,0,.116,1.9L8.712,16.29,8.261,20A1,1,0,0,0,8.8,21.008a.986.986,0,0,0,.454.109,1,1,0,0,0,.681-.267l2.982-2.774L17.159,21.8a1,1,0,0,0,1.633-.981l-1.32-5.6,4.3-2.3a1,1,0,0,0-.318-1.87l-5.065-.789-.73-5.442a1,1,0,0,0-.88-.861,1.032,1.032,0,0,0-.111-.006Z"/></svg>