<svg xmlns="http://www.w3.org/2000/svg" viewBox="0 0 158 158"><defs><style>.a{fill:#ffdd15;stroke-width:10px;}.a,.b{stroke:#000;stroke-linecap:round;stroke-linejoin:round;}.b{fill:#929497;stroke-width:10.045px;}</style></defs><title>HowPainWorks</title><circle class="a" cx="79.016" cy="78.695" r="72.762"/><circle class="b" cx="79.016" cy="78.695" r="24.863"/><path d="M28.036,64.255a53.823,53.823,0,0,1,18-29.176,55.541,55.541,0,0,1,32.98-12.793l.064,0a5.031,5.031,0,1,1,.457,10.051c-.173.008-.351.006-.521,0a47.188,47.188,0,0,0-28.99,8.016A48.921,48.921,0,0,0,31.088,65.118a1.588,1.588,0,0,1-3.052-.863Z"/><path d="M130,93.134a53.827,53.827,0,0,1-18,29.176A55.553,55.553,0,0,1,79.016,135.1l-.063,0a5.031,5.031,0,1,1-.458-10.051c.173-.008.351-.006.521,0a47.191,47.191,0,0,0,28.991-8.016,48.925,48.925,0,0,0,18.937-24.771,1.588,1.588,0,0,1,3.052.863Z"/></svg>