<svg xmlns="http://www.w3.org/2000/svg" viewBox="0 0 174 119"><defs><style>.a{fill:#549fdd;stroke:#000;stroke-linecap:round;stroke-linejoin:round;stroke-width:5.122px;}</style></defs><title>HowPainWorks</title><path class="a" d="M107.179,49.694q4.365,2.653,8.788,5.184c4.537-7.421,10.371-14.293,17.98-18.508s17.2-5.448,25.072-1.751c11.756,5.52,14.266,19.98,9.934,31.059C162.222,82.89,148,106.2,129.941,112.9c-23.838,8.853-45.45-3.313-65.851-14.808C48.906,89.537,35.182,78.7,21.829,67.57,9.806,57.546.085,45.9,3.9,29.047A33.833,33.833,0,0,1,24.982,5.158c9.519-3.447,17.686,1.65,25.412,6.773C69.249,24.435,87.808,37.914,107.179,49.694Z"/></svg>