<svg xmlns="http://www.w3.org/2000/svg" viewBox="0 0 290 264"><defs><style>.a{fill:#fff;}.a,.b{stroke:#000;stroke-linecap:round;stroke-linejoin:round;stroke-width:5px;}.b{fill:#fc8a1a;}.c{fill:#fbb03b;}</style></defs><title>HowPainWorksScene5</title><path class="a" d="M45.747,234.714c-11.373-13.57-12.409-34.8-2.411-49.411C25.4,183.489,9.237,169.869,4.411,152.5s1.99-37.376,16.42-48.184C13.618,81.25,21.974,54.146,40.92,39.147s47.244-16.911,68.036-4.6A43.692,43.692,0,0,1,188.231,23.46c15.723-13.468,41.318-13.474,57.049-.014s19.681,38.748,8.807,56.365c9.663-2.516,19.162,5.044,24.513,13.475a57.985,57.985,0,0,1-42.273,88.67c5.172,17.838-2.359,38.607-17.763,48.984s-37.48,9.557-52.07-1.936c-3.578,15.555-17.341,30.6-33.718,31.593-7.675.465-16.975-.7-24.088-3.667-1.725-.72-19.64-13.173-17.582-14.45C75.4,252.226,57.731,249.011,45.747,234.714Z"/><path class="b" d="M88.391,179.036c-6.277-13.652-5.837-29.992.213-43.746,3.409-7.75,8.6-15.186,8.6-23.652a47.78,47.78,0,0,1,1.613,28.674c-.688,2.679-1.618,5.337-1.69,8.1-.138,5.266,2.82,10.084,5.979,14.3-2.425-6.683,1.505-13.774,4.23-20.339,2.641-6.361,4.224-13.328,3.3-20.152-.66-4.849-2.554-9.438-3.678-14.2a46.386,46.386,0,0,1,14.417-44.691,20.274,20.274,0,0,0-2.427,21.179c1.894,3.881,4.989,7.025,7.447,10.575a37.628,37.628,0,0,1,3.564,35.593c5.283-3.68,10.014-8.392,12.714-14.237,5.264-11.394,2.069-24.923,5.137-37.094,3.509-13.916,14.758-24.495,26.489-32.761-6.852,10.667-4.541,24.7-.61,36.752s9.319,24.274,7.856,36.867C180.034,133.2,171.5,144.155,163,154.1c-3.645,4.267-7.386,8.55-9.871,13.582s-3.606,11-1.753,16.3c-.018-8.982,7.277-16.139,14.4-21.6s15.136-11.068,17.69-19.679c-2.687,11.541-8.991,21.793-12.326,33.115-3.111,10.566-2.046,20.328-11.6,27.985-13.316,10.677-33.172,4.541-47.267-1.449A46.83,46.83,0,0,1,88.391,179.036Z"/><path class="c" d="M120.958,158.194a82.2,82.2,0,0,1,2.186,22.7c2.514-6.183,3.532-12.888,5.984-19.1,3.98-10.079,11.485-18.292,18.833-26.257-3.173,7.192-4.076,15.15-4.821,22.975s-1.392,15.773-4.112,23.148c-2.31,6.263-15.145,25.222-22.229,13.65C110.575,185.148,115.3,167.451,120.958,158.194Z"/><path class="b" d="M199.837,83.987a20.425,20.425,0,0,1,11.869-11.829c-3.622,1.908-4.708,6.683-4.174,10.742s2.259,7.9,2.655,11.975A19.106,19.106,0,0,1,200.054,113.3c3.932-1.989,1.552-10.681.549-13.5C198.711,94.493,197.781,89.482,199.837,83.987Z"/><path class="b" d="M76.633,83.586a22.243,22.243,0,0,1-.07-8.483A84.128,84.128,0,0,1,78.2,66.525c.513-2.086,1.514-4.532,3.641-4.832A12.122,12.122,0,0,0,82,70.931c3.291,7.508,10.176,11.286,8.618,20.622a37.375,37.375,0,0,1-2.788,8.326c-.848-.8-.55-2.177-.608-3.343C86.921,90.552,78.12,89.447,76.633,83.586Z"/></svg>