<svg xmlns="http://www.w3.org/2000/svg" viewBox="0 0 705 284"><defs><style>.a{fill:#fff;}</style></defs><title>HowPainWorks</title><path class="a" d="M633.774,166.308a85.9,85.9,0,0,0-15.844,1.477c-12.382-32.03-44.358-54.842-81.859-54.842A88.593,88.593,0,0,0,472.447,139.5a113.69,113.69,0,0,0,1.095-15.76C473.542,55.443,412.662.082,337.564.082c-66.033,0-121.064,42.8-133.39,99.563a98.673,98.673,0,0,0-27.942-4.006c-45.376,0-83.14,30.455-91.208,70.7-.534-.008-1.063-.029-1.6-.029-45.6,0-82.568,26.148-82.568,58.4s36.967,58.4,82.571,58.4c39,0,79.08-6.062,118.432-7.039q64.039-1.59,128.1-1.747c86.826-.213,174.587-.711,261.222,5.529,43.216,3.112,113.623,5.541,113.623-55.145C704.808,192.456,673.005,166.308,633.774,166.308Z"/></svg>