<svg xmlns="http://www.w3.org/2000/svg" viewBox="0 0 793 735"><defs><style>.a{fill:#a2d0ff;stroke:#000;stroke-linecap:round;stroke-linejoin:round;stroke-width:10.045px;}</style></defs><title>HowPainWorks</title><path class="a" d="M247.325,716.249C112.387,690.056,29.808,561,10,433.136c-15.211-98.17,10.264-202.28,70.077-281.725C152.2,55.614,265.863,3.528,384.161,5.286,452.54,6.3,522.2,26.969,577.858,68.225c63.2,46.842,100.427,115.172,118.592,190.766C709,311.2,716.782,368.365,753.8,407.254c10.479,11.008,23.236,20.44,29.941,34.08,9.347,19.011-.939,35.185-16.2,46.436-16.876,12.441-42.863,19.568-63.5,21.839-16.872,50.138-47.893,105.716-88.613,140.136a398.761,398.761,0,0,1-150.875,80.012"/></svg>