<svg id="Layer_1" data-name="Layer 1" xmlns="http://www.w3.org/2000/svg" viewBox="0 0 290 264"><defs><style>.cls-1{fill:#fff;}.cls-1,.cls-2,.cls-3,.cls-4{stroke:#000;stroke-linecap:round;stroke-linejoin:round;}.cls-1,.cls-2,.cls-3{stroke-width:5px;}.cls-2{fill:#a2d0ff;}.cls-3,.cls-4{fill:none;}.cls-4{stroke-width:5.211px;}</style></defs><title>HowPainWorksScene5</title><path class="cls-1" d="M45.747,234.714c-11.373-13.57-12.409-34.8-2.411-49.411C25.4,183.489,9.237,169.869,4.411,152.5s1.99-37.376,16.42-48.184C13.618,81.25,21.974,54.146,40.92,39.147s47.244-16.911,68.036-4.6A43.692,43.692,0,0,1,188.231,23.46c15.723-13.468,41.318-13.474,57.049-.014s19.681,38.748,8.807,56.365c9.663-2.516,19.162,5.044,24.513,13.475a57.985,57.985,0,0,1-42.273,88.67c5.172,17.838-2.359,38.607-17.763,48.984s-37.48,9.557-52.07-1.936c-3.578,15.555-17.341,30.6-33.718,31.593-7.675.465-16.975-.7-24.088-3.667-1.725-.72-19.64-13.173-17.582-14.45C75.4,252.226,57.731,249.011,45.747,234.714Z"/><path class="cls-2" d="M184.891,170.931a48.392,48.392,0,0,0,5.407-6.781c21.121-31.985,2.676-80.179-33.581-90.6-13.662-3.926-28.1-1.367-40.315,5.63-23.437,13.43-40.554,43.6-32.125,70.647A49.911,49.911,0,0,0,101.6,174.087C125.093,192.4,163.96,192.823,184.891,170.931Z"/><path class="cls-3" d="M159.069,161.224c18.24-9.45,24.42-29.918,24.39-49.181-3.759,11.7-15.223,23.167-39.566,27.853a66.267,66.267,0,0,1-47.613-8.821c3.3,12.877,12.632,26.038,24.842,31.908C131.563,168,149.062,166.409,159.069,161.224Z"/><circle cx="117.972" cy="110.342" r="3.527"/><circle cx="157.387" cy="101.878" r="3.527"/><path class="cls-3" d="M101.8,117.928a4.146,4.146,0,0,0,1.772,2.854c4.106,2.866,6.027-2.028,8.9-3.919a13.358,13.358,0,0,1,10.511-1.895c1.927.5,3.745,1.433,5.722,1.66,4.374.5,6.4-3.726,5.315-7.563a11.308,11.308,0,0,0-3.967-5.469c-4.96-4.041-12.435-5.913-18.422-3.209C105.846,103,100.766,111.427,101.8,117.928Z"/><path class="cls-4" d="M155.057,108.256a7.194,7.194,0,0,1,7.171-2.147c2.265.505,4.184,2.236,6.606,2.048,3-.233,3.935-2.574,4.053-5.074.339-7.232-8.988-11.57-15.8-10.688a15.044,15.044,0,0,0-10.413,6.615,15.38,15.38,0,0,0-2.8,8.5c.076,3.635,3.819,7.9,7.512,5.195a12.646,12.646,0,0,0,2.708-3.247A10.045,10.045,0,0,1,155.057,108.256Z"/></svg>