<svg xmlns="http://www.w3.org/2000/svg" viewBox="0 0 220 220"><defs><style>.a{fill:#2bbc66;stroke:#000;stroke-linecap:round;stroke-linejoin:round;stroke-width:10px;}</style></defs><title>HowPAinWorksScene7</title><rect class="a" x="13.962" y="13.982" width="192" height="192" rx="8.367"/><path d="M105.733,82.358a19.592,19.592,0,0,1,9.5,2.05,16.35,16.35,0,0,1,6.177,6.153h.732a21.9,21.9,0,0,1,2.4-6.006,2.708,2.708,0,0,1,2.319-1.27h7.209a2.732,2.732,0,0,1,2.652,3.417q-.888,3.423-1.513,7.448a73.432,73.432,0,0,0-.952,11.206V120.59q0,5.761,4.1,5.762h.041a2.774,2.774,0,0,1,2.84,2.737v6.528a2.734,2.734,0,0,1-2.157,2.681c-.262.055-.544.11-.846.163a22.093,22.093,0,0,1-3.686.391q-5.469,0-8.35-1.88c-2.3-1.5-2.889-4.252-5.322-4.252a4.858,4.858,0,0,0-1.721.366c-2.265.865-3.727,3.072-5.914,4.064a20.857,20.857,0,0,1-8.625,1.7q-10.01,0-15.7-7.422t-5.689-20.655q0-13.574,5.933-21t16.577-7.421m3.418,44.628q5.762,0,8.374-3.491t2.808-12.231v-.586q0-8.79-2.71-12.6t-8.716-3.808q-10.5,0-10.5,16.6,0,8.056,2.612,12.085t8.13,4.028m-3.418-53.628h0c-9.8,0-17.958,3.735-23.607,10.8-5.244,6.56-7.9,15.515-7.9,26.615,0,10.807,2.539,19.6,7.546,26.13,5.487,7.161,13.386,10.947,22.841,10.947a29.683,29.683,0,0,0,12.344-2.506,16.932,16.932,0,0,0,3.022-1.788,14.9,14.9,0,0,0,1.3.952c3.446,2.248,7.786,3.342,13.267,3.342a30.444,30.444,0,0,0,5.243-.527c.418-.073.805-.148,1.165-.225a11.792,11.792,0,0,0,9.281-11.483v-6.528a11.752,11.752,0,0,0-6.982-10.7V105.356a64.872,64.872,0,0,1,.845-9.825c.369-2.375.817-4.585,1.332-6.569a11.733,11.733,0,0,0-11.364-14.677h-7.209a11.82,11.82,0,0,0-7.064,2.361c-.075-.043-.151-.085-.227-.127a28.47,28.47,0,0,0-13.829-3.161Zm2.879,29.926c.075-.007.173-.012.3-.012a5.222,5.222,0,0,1,1.451.155c.233.479.975,2.39.975,7.251v.481a20.809,20.809,0,0,1-.929,6.721,6.079,6.079,0,0,1-1.253.106,4,4,0,0,1-.646-.044c-.321-.589-1.1-2.477-1.1-7.069,0-5.069.89-7.05,1.2-7.589Zm34.662,17.8Z"/></svg>