<svg xmlns="http://www.w3.org/2000/svg" viewBox="0 0 341 727"><defs><style>.a{fill:#c3c3c2;}.a,.b,.c,.d,.e,.f{stroke:#000;stroke-linecap:round;stroke-width:4px;}.a,.b,.c,.d,.f{stroke-linejoin:round;}.b{fill:#c2a188;}.c,.e{fill:none;}.d{fill:#c1906b;}.e{stroke-miterlimit:10;}.f{fill:#9b724e;}</style></defs><title>HowPainWorks</title><path class="a" d="M308.243,441.7c3.944-.173,8.034-.385,11.532-2.216s6.221-5.777,5.332-9.623c8.418-.2,23.955-.279,23.955-.279s.169,4.524.211,6.127q.4,15.427.055,30.863c-33.5,4.08-68.021,3.319-101.768,3.539q-29.529.193-59.057-.249c-6.429-.094-14.77,1.648-17.8-5.363-2.577-5.955.824-15.213.574-21.522.093,2.644,60.159,2.035,65.561,1.9C260.656,444.3,284.44,442.745,308.243,441.7Z"/><path class="b" d="M82.589,291.683V512.325h261.18c-.221-33.594-.378-57.432-.378-57.432-.021-2.91-111.868,3.006-121.8,1.841-22.4-2.63-36.358-13.172-47.936-32.15C163,407.113,149.965,382.2,155.292,316.8,142.9,304.41,112.928,296.585,82.589,291.683Z"/><path class="c" d="M102.235,306.367a296.023,296.023,0,0,1,5.458,59.05c-.171,20.721-2.507,41.636,1.088,62.043s14.484,40.972,33.336,49.576"/><path class="d" d="M-22.752,31.066C-23,20.486-25,10.529-25.418-.038c37.267,38.5,72.6,76.35,92.947,126.88A373.06,373.06,0,0,1,84.063,179.18s-6.79,184.258,14.71,243.034c11.685,31.942,35.284,57.987,69.9,64.434,20,3.725,180.16.576,180.16.576s1.074,204.216,1.307,239.814c0,.058-24.954,1.218-24.954,1.218H-21.433l-.047-15.922-.3-102.091-.47-160.741-.518-177.255-.443-151.633C-23.295,90.954-22.062,60.793-22.752,31.066Z"/><path class="c" d="M53.494,122.959c1.311,10.783-1.174,15.671-2.124,26.182a326.266,326.266,0,0,0-.8,34.019c.335,22.457,2.154,44.869,2.154,67.335v69.516c1.512,54.576.01,122.419,32.224,169.225,13.649,19.831,35.45,35.4,59.517,36"/><path class="c" d="M28.337,78.352c-1.494,19.117.044,37.321-.314,56.494-.405,21.7-.932,43.413-.669,65.124.178,14.606,11.47,26.846,8.015,42-1.7,7.453-6.6,13.762-9.194,20.955-5.316,14.753-.154,29.024,3.708,43.281,3.781,13.96,2.392,29.54,1.757,44.127-.785,18.034.628,33.119,2.291,50.824C39.021,455.347,30.1,517.9,82.825,550.937c25.366,15.891,56.132,21.083,86.064,21.164"/><path class="c" d="M-9.309,442.985c-2.568,64.291,19.956,147.872,83.552,177.1,29.216,13.43,59.339,8,90.364,9.661l112.018,6"/><path class="c" d="M71.019,179.97c1.952,23.115-.622,45.971.359,68.947.349,8.171,2.148,14.842,1.221,23.295-1.189,10.858-3.188,21.665-3.014,32.629.663,41.989,9.159,83.675,16.127,125.234,4.525,26.986,18.461,53.42,43.774,65.826,14.158,6.939,32.265,5.566,47.934,6.788,19.875,1.55,39.749,2.1,59.623,3.651"/><path class="e" d="M256.853,506.256c24-.942,68.195-2.864,92.081-.344"/><path class="c" d="M-31.536,626.742c14.468,33.759,47.249,57.149,82.39,67.832,39.342,11.961,82.04,10.074,122.713,11.083"/><path class="f" d="M254.624,685.751c5.112,3.292,8.356,8.013,6.008,12.392-1.567,2.92-5.291,3.82-8.594,4.1-7.752.662-20.625,1.316-21.437-9.093C229.456,678.469,245.209,679.688,254.624,685.751Z"/><path class="f" d="M268.379,532.123c-2.6,5.1-9.637,5.719-14.669,5.725a62.648,62.648,0,0,1-10.063-.9c-3.735-.6-7.62-.154-11.282-1.213a9.438,9.438,0,0,1-5.756-4.2c-1.791-3.247-.664-7.51,1.82-10.263s6.042-4.269,9.576-5.39c11.278-3.575,24.466-3.509,29.981,9.175C268.959,527.293,269.487,529.949,268.379,532.123Z"/><path class="f" d="M303.591,538.295a27.009,27.009,0,0,1-11.636-2.356,5,5,0,0,1-2.916-4.5c.162-2.261,2.323-3.862,4.464-4.609,4.487-1.565,9.492-5.8,13.975-2.263C313.307,529.16,310.955,537.657,303.591,538.295Z"/><path class="c" d="M300.015,636.687l50.128-1.276"/><path class="c" d="M128.069,310.269c3.719,6.194-.646,23.776-.956,31.093-.493,11.61-.789,23.247-.217,34.86,1.126,22.865,5.817,45.381,16.291,65.874,9.06,17.729,26.563,31.009,46.461,32.591a515.465,515.465,0,0,0,77.852.031c25.308-1.881,50.953-.773,76.374-2.757"/><path class="c" d="M145.648,325.441c-3.844,27.786-3.807,56.784,5.97,83.076,6.081,16.354,16.352,32.048,29.752,43.327,21.66,18.231,50.4,15.131,76.562,12.6"/><path class="f" d="M314.831,598.794c-4.516.034-8.74-.572-10.691-3.349-2.163-3.078-.749-7.384,1.312-10.532,4.052-6.19,10.83-10.945,18.228-11.067,7.059-.116,9.822,3.914,14.342,8.156,2.473,2.322,7.517,4.7,6.974,9.022-.432,3.44-3.5,6.086-6.821,7.077s-6.881.65-10.326.251C324.772,598,319.637,598.757,314.831,598.794Z"/></svg>