<svg xmlns="http://www.w3.org/2000/svg" viewBox="0 0 764 810"><defs><style>.a{fill:#78baef;stroke:#000;stroke-linecap:round;stroke-linejoin:round;stroke-width:10px;}.b{fill:#fff;}.c{fill:#f91d00;}</style></defs><title>HowPainWorks</title><path class="a" d="M97.2,749.7C66.407,712.793,69.935,648.737,66.088,603.321q-8.1-95.64-17.283-191.181Q30.631,223.055,8.219,34.428c31.232-1.953,371.95-22.367,371.385-31.4l4.481,76.639c4.61,78.858,9.213,157.171,11.243,236.085.277,10.763,1.005,152.245,5.061,152.641,256.366-20.32,323.582,76.048,342.2,113.955,38.319,78.022-8.811,163.63-82.2,193.2-28.635,11.537-59.363,16.375-89.935,19.756-124.535,13.772-250.4,4.637-375.085-8.282-21.564-2.234-43.441-4.661-63.578-12.993C116.5,767.707,105.4,759.531,97.2,749.7Z"/><polygon class="b" points="-1212.104 202.916 -1476.859 387.627 -1393.959 -166.769 -1848.943 -221.172 -1520.88 -545.329 -1849.89 -823.366 -1388.817 -918.051 -1524.764 -1467.066 -1061.018 -1199.823 -892.513 -1683.737 -631.047 -1175.068 135.153 -1610.269 -222.004 -850.362 108.085 -720.327 -92.852 -567.439 252.442 -330.988 -301.868 -199.968 -191.751 376.833 -599.316 117.475 -862.453 819.176 -953.401 500.864 -1145.992 848.773 -1212.104 202.916"/><polygon class="c" points="-1171.018 113.285 -1410.237 280.181 -1336.893 -210.302 -1740.022 -258.504 -1446.826 -548.21 -1738.977 -795.099 -1327.771 -879.544 -1448.012 -1365.128 -1033.658 -1126.348 -883.654 -1557.131 -651.683 -1105.844 22.917 -1489.016 -289.932 -823.382 7.145 -706.352 -178.23 -565.305 130.879 -353.633 -359.958 -237.616 -262.573 272.5 -624.485 42.193 -856.031 659.651 -938.558 370.812 -1112.493 685.02 -1171.018 113.285"/><polygon class="b" points="-1129.932 23.655 -1343.614 172.734 -1279.828 -253.835 -1631.102 -295.837 -1372.772 -551.092 -1628.065 -766.833 -1266.726 -841.037 -1371.26 -1263.19 -1006.298 -1052.873 -874.795 -1430.526 -672.319 -1036.621 -89.32 -1367.764 -357.86 -796.402 -93.796 -692.376 -263.609 -563.171 9.316 -376.277 -418.049 -275.263 -333.394 168.167 -649.654 -33.089 -849.61 500.126 -923.715 240.76 -1078.995 521.267 -1129.932 23.655"/></svg>