<svg xmlns="http://www.w3.org/2000/svg" viewBox="0 0 94 99"><defs><style>.a{fill:#9b724e;}.a,.b{stroke:#000;stroke-linecap:round;stroke-linejoin:round;stroke-width:4px;}.b{fill:none;}</style></defs><title>HowPainWorks</title><path class="a" d="M66.65,8.168C79.991,14.759,90.324,27.982,91.66,42.8c1.09,12.1-3.684,24.136-10.752,34.016-5.9,8.241-13.749,15.5-23.413,18.55S36.214,96.5,29.477,88.93C24.9,83.792,23.018,76.8,19.045,71.185,14.77,65.143,8.178,60.83,4.809,54.24-4.1,36.806,11.673,21.813,22.394,10.217,33.405-1.692,53.3,1.574,66.65,8.168Z"/><path class="b" d="M30.247,29.3c-2.382,5.053-4.783,10.163-5.934,15.629S23.364,56.333,26,61.257c1.337,2.5,3.267,4.685,4.243,7.344.791,2.154.931,4.556,2.091,6.536,1.519,2.592,4.567,3.981,7.559,4.257A28.574,28.574,0,0,0,48.8,78.332"/><path class="b" d="M77.855,37.4a22.951,22.951,0,0,1-2.773,27.76"/></svg>