<svg xmlns="http://www.w3.org/2000/svg" viewBox="0 0 544 170"><defs><style>.a{fill:#ffdd15;}.b{fill:red;}</style></defs><title>HowPainWorks</title><path class="a" d="M18.259,110.834Q6.714,105.163,4.071,90.883a51.049,51.049,0,0,1-.75-9.99Q3.792,61.036,15.98,48.406T49.64,31.8a68.934,68.934,0,0,1,12.516-1.279,57.817,57.817,0,0,1,11.258,1.151l-.7,25.879a45.167,45.167,0,0,0-10.846-1.9,48.751,48.751,0,0,0-11.074.829Q41.47,58.211,37.078,62.5t-4.612,13a21.682,21.682,0,0,0,.37,5.3q1.005,5.429,5.137,6.981t12.274.048a55.226,55.226,0,0,0,11.109-3.277,68.812,68.812,0,0,0,11.1-5.96l-.7,25.88a80.858,80.858,0,0,1-11.516,5.366,77.263,77.263,0,0,1-12.617,3.372Q29.8,116.509,18.259,110.834Z"/><path class="a" d="M119.87,62.6,162.835,69q10.918,1.628,16.358,8.688t3.987,16.791a33.159,33.159,0,0,1-1.7,6.541q-5.3,14.377-21.848,20.4a9.171,9.171,0,0,1,1.337,2.02,5.986,5.986,0,0,1,.453,2.251l1.531,21.461-29.909-4.461-1.386-17.556a3.34,3.34,0,0,0-.607-2.032,2.861,2.861,0,0,0-1.869-.885l-1.187-.177-6.938,18.863L92.33,136.623Zm23.335,38.786q7,1.044,9.074-4.713a14.322,14.322,0,0,0,.538-1.983,3.768,3.768,0,0,0-.836-3.34,6.914,6.914,0,0,0-4-1.628L140.5,88.6l-4.3,11.734Z"/><path class="a" d="M230.622,38.113l29.857-3.967,23.5,74.838-28.549,3.792-4.394-13.943L232.479,101.3l-6.55,15.4-30.809,4.093Zm18.163,41.045-4.68-14.268-6.978,15.817Z"/><path class="a" d="M300.275,92.751A37.681,37.681,0,0,1,289.9,85.906l9.868-19.879a55.83,55.83,0,0,0,10.3,7.382,46.988,46.988,0,0,0,11.338,4.8,15.2,15.2,0,0,0,6.18.549q2.46-.413,2.945-2.273a2.282,2.282,0,0,0-.839-2.263A38.45,38.45,0,0,0,325.4,70.94q-2.982-1.89-5.351-3.744-6.94-5.269-9.457-10.139a14.862,14.862,0,0,1-.952-10.909,28.6,28.6,0,0,1,2.5-6.294q5.686-11.416,16.036-14.745T356.06,26.33a82.053,82.053,0,0,1,12.084,4.312,89.011,89.011,0,0,1,10.794,5.466L368.924,56.073a47.219,47.219,0,0,0-17.642-9.411q-9.643-2.5-10.485.751-.272,1.046,1,2.119a41.955,41.955,0,0,0,5.035,3.29l2.9,1.742q8.655,5.346,11.489,10.667a15.869,15.869,0,0,1,1.147,11.827,38.852,38.852,0,0,1-2.887,7.309,28.343,28.343,0,0,1-16.151,14.468q-10.643,3.749-28.414-.862A82.365,82.365,0,0,1,300.275,92.751Z"/><path class="a" d="M379.8,69.465l28.371,6.2L397.628,99.156l18.874,4.125,10.539-23.492,28.37,6.2L422.97,158,394.6,151.8l10.538-23.492-18.874-4.124-10.538,23.492-28.371-6.2Z"/><path class="a" d="M467.277,113.514l29.307,6.413L488.2,138.606l-29.307-6.413Zm15.473-33.1,9.072-20.127L520.19,66.5l-9.071,20.126-14.183,29.449-26.728-5.848Z"/><path class="b" d="M34.554,98.75Q23.007,93.078,20.366,78.8a51.049,51.049,0,0,1-.75-9.99q.471-19.857,12.659-32.486t33.66-16.6a69.032,69.032,0,0,1,12.516-1.28A57.8,57.8,0,0,1,89.708,19.59l-.7,25.88a45.121,45.121,0,0,0-10.846-1.9,48.763,48.763,0,0,0-11.075.829q-9.321,1.726-13.713,6.016t-4.612,13a21.679,21.679,0,0,0,.37,5.3q1.005,5.429,5.137,6.982t12.274.047a55.162,55.162,0,0,0,11.109-3.277,68.832,68.832,0,0,0,11.1-5.959l-.7,25.879a80.748,80.748,0,0,1-11.516,5.366,77.263,77.263,0,0,1-12.617,3.372Q46.1,104.423,34.554,98.75Z"/><path class="b" d="M136.166,50.51l42.964,6.407q10.92,1.629,16.358,8.688T199.475,82.4a33.168,33.168,0,0,1-1.7,6.54q-5.3,14.378-21.847,20.4a9.145,9.145,0,0,1,1.337,2.019,5.972,5.972,0,0,1,.452,2.251l1.532,21.461-29.91-4.46-1.385-17.557a3.344,3.344,0,0,0-.607-2.031,2.866,2.866,0,0,0-1.87-.886l-1.187-.177-6.938,18.863-28.723-4.283ZM159.5,89.3q7,1.044,9.075-4.713a14.467,14.467,0,0,0,.538-1.982,3.768,3.768,0,0,0-.837-3.34,6.908,6.908,0,0,0-4-1.629l-7.477-1.115-4.3,11.735Z"/><path class="b" d="M246.917,26.028l29.858-3.966,23.5,74.837-28.549,3.792-4.395-13.942-18.557,2.465-6.549,15.4L211.416,108.7Zm18.164,41.046L260.4,52.806l-6.978,15.816Z"/><path class="b" d="M316.57,80.666A37.7,37.7,0,0,1,306.2,73.822l9.867-19.879a55.917,55.917,0,0,0,10.3,7.381,46.971,46.971,0,0,0,11.338,4.8,15.2,15.2,0,0,0,6.179.55q2.461-.414,2.946-2.274a2.284,2.284,0,0,0-.839-2.263,38.575,38.575,0,0,0-4.293-3.283q-2.982-1.89-5.351-3.744-6.94-5.27-9.457-10.139a14.862,14.862,0,0,1-.952-10.909,28.607,28.607,0,0,1,2.5-6.293q5.687-11.418,16.036-14.746t27.886,1.221a81.96,81.96,0,0,1,12.085,4.313,88.926,88.926,0,0,1,10.793,5.465L385.219,43.988a47.227,47.227,0,0,0-17.642-9.411q-9.643-2.5-10.485.751-.271,1.045,1,2.119a41.869,41.869,0,0,0,5.035,3.29l2.895,1.743q8.655,5.345,11.49,10.666a15.869,15.869,0,0,1,1.147,11.827,38.8,38.8,0,0,1-2.888,7.309,28.343,28.343,0,0,1-16.15,14.469q-10.642,3.748-28.414-.862A82.366,82.366,0,0,1,316.57,80.666Z"/><path class="b" d="M396.091,57.38l28.371,6.2L413.924,87.072,432.8,91.2,443.336,67.7l28.371,6.2-32.441,72.015-28.371-6.2,10.538-23.492L402.559,112.1l-10.538,23.492-28.371-6.2Z"/><path class="b" d="M483.573,101.429l29.307,6.413-8.386,18.679-29.307-6.413Zm15.473-33.1,9.072-20.126,28.368,6.207-9.071,20.126-14.183,29.449L486.5,98.14Z"/></svg>