<svg id="Layer_1" data-name="Layer 1" xmlns="http://www.w3.org/2000/svg" viewBox="0 0 89 77"><defs><style>.cls-1{fill:#dda8b3;}</style></defs><title>HowPainWorksScene5</title><path class="cls-1" d="M85.036,59.2a10.3,10.3,0,0,0-.657-4.8c.012.032,2.249-2.227,2.434-2.485a11.743,11.743,0,0,0,1.675-3.352,8.915,8.915,0,0,0-1-7.256,9.509,9.509,0,0,0-2.208-10.469,6.068,6.068,0,0,0-2.867-7.065c-.359-4.126-3.369-8.531-7.346-9.876C74.1,9.83,67.156,6.58,64.789,6.649c-1.732-2.807-5.318-3-8.61-3.215C53.588.639,43.929.612,43.833,1.678c-.068.752-2.876-.561-3.693-.659C39.046.888,37.93.666,36.833.644a25.921,25.921,0,0,0-8.042,1.12A25.586,25.586,0,0,0,23.1,4.277,14.57,14.57,0,0,0,20.608,6c-.394.369-.912,1.534-1.557,1.508-4-.193-8.115,4.4-10.709,6.927C6.2,16.52,4.1,18.951,3.705,21.916a12.86,12.86,0,0,0-3.64,9.45,19.444,19.444,0,0,0,.826,4.785,3.957,3.957,0,0,0,1.116,1.964c.133.12,1.8,1.043,1.8.886a7.747,7.747,0,0,0,6.642,7.329c3.423,3.178,7.691,3.514,12.116,3.757a7.034,7.034,0,0,0,.187,7.27,7.177,7.177,0,0,0,2.916,2.456c.292.143,3.261.9,3.136.549a4.3,4.3,0,0,0,5.867,2.222,4.7,4.7,0,0,0,6.186-.444c1.624.931,3.02.3,4.663-.075.63-.144,5.156-1.012,5.231-1.665a5.165,5.165,0,0,0,1.742,4.432,3.046,3.046,0,0,0,2.375,5.206c.881,4.668,9.757,8.022,13.871,5.117,8.4.83,13.16-7.905,13.688-11.422A6.162,6.162,0,0,0,85.036,59.2Z"/></svg>