<svg xmlns="http://www.w3.org/2000/svg" viewBox="0 0 58 61"><defs><style>.a{fill:#9b724e;}.a,.b{stroke:#000;stroke-linecap:round;stroke-linejoin:round;stroke-width:4px;}.b{fill:none;}</style></defs><title>HowPainWorks</title><path class="a" d="M48.594,46.006C44.172,52.462,37.319,57.7,29.518,58.316c-3.625.287-11.94.375-14.637-2.286-1.663-1.641-2.523-3.908-3.336-6.1L4.579,31.152a30.861,30.861,0,0,1-2.343-9.034C1.781,13.175,11.029,5.765,19.017,3.493,28.239.87,45.752,3.7,52.255,11.858,59.454,20.888,54.3,37.672,48.594,46.006Z"/><path class="b" d="M41.867,44.908c4.867-7.385,7.738-21.19,4.071-29.406"/><path class="b" d="M24.3,15.812a12.971,12.971,0,0,0-11.533,4.762c-4.522,5.747-5.157,28.478,5,29.538a22.4,22.4,0,0,0,7.873-1.069"/></svg>