<svg id="Layer_1" data-name="Layer 1" xmlns="http://www.w3.org/2000/svg" viewBox="0 0 450 720"><defs><style>.cls-1,.cls-3{fill:#a2d0ff;}.cls-2{fill:none;}.cls-2,.cls-3{stroke:#000;stroke-linecap:round;stroke-linejoin:round;stroke-width:5px;}</style></defs><title>HowPainWorksScene5</title><path class="cls-1" d="M6.442,354.124c-1.865-2.13-3.247-5.329-.451-7.683a6.421,6.421,0,0,1,4.9-1.389c25.636,3.1,45.191-24.477,57.116-43.17a550.877,550.877,0,0,0,39.823-74.465c9.213-20.953,17.26-42.737,30.776-61.209,8.487-11.6,19.469-21.822,32.469-28.146,7.922-3.853,16.112-4.641,24.762-5.147-2.64.154-8.16-3.915-10.282-5.489a70.407,70.407,0,0,1-9.481-8.447A64.622,64.622,0,0,1,162.861,98,37.181,37.181,0,0,1,146.6,96.417a8.256,8.256,0,0,1-4.857-4.067c-2.347-4.745,1.612-8.8,4.822-12.195,6.239-6.6,8.975-12.814,11.413-22.255,2.019-7.816,4.406-16.122,8.359-23.085,7.725-13.6,19.791-25.782,35.017-30.517,24.168-7.516,57.288,2.513,73.753,21.193,18.982,21.534,22.234,55.094,8.869,80.5a79.681,79.681,0,0,1-15.9,20.251c-3.258,3.059-7.01,5.429-10.271,8.469l4.755.186-.343.362c11.434.492,22.283,2.3,32.614,8.856a96.3,96.3,0,0,1,26.584,25.945c13.7,19.4,21.695,41.657,28.415,64.057a435.043,435.043,0,0,0,27.721,69.632c12.792,25.565,29.589,53.861,59.6,61.146a13.634,13.634,0,0,1,5.057,2.256c6.646,5.022,2.027,11.478-3.182,12.483-3.609.7-7.3-.568-10.641-2.1-4.49-2.054-9.4-4.686-14.513-4.558-.5.013-.993.054-1.479.106,11.072,10.568,26.47,28.112,21.092,38.478a7.18,7.18,0,0,1-5.779,3.936c-2.621.179-4.505-1.13-6.094-2.8a8.175,8.175,0,0,1-1.682,4.235c-3.878,4.785-8.41,1.428-12.518-3.834a27.714,27.714,0,0,1,.031,6.175,6.588,6.588,0,0,1-1.915,4.11c-2.944,2.774-6.76.815-9.491-1.356-.523-.416-1.021-.863-1.526-1.3-.552,4.1-4.459,8.086-9.281,4.823a10.411,10.411,0,0,1-3.3-3.831c-12.574-23.938-25.867-46.483-37.174-71.111-18.235-39.715-39.38-85.379-46.183-128.866,4.425,28.289,7.2,57.746,15.151,85.035,8,27.448,7.036,66.643-6.789,83.772,12.147,84.111,19.978,193.742,29.2,259.771-.342-1.659,18.291,1.523,19.74,1.809,16.684,3.3,30.765,15.337,28.843,34.217-1.924,18.912-16.051,23.808-31.965,26.329-22.949,3.634-50.281,1.659-74.271-4.318a7.122,7.122,0,0,1-5.335-5.944c-6.071-44-24.057-290.5-36.759-290.1-10.015.309-30.324,243.458-37.7,291.89a7.137,7.137,0,0,1-6.152,5.993c-21.157,2.764-41.745,2.746-63.2,2.655-14.95-.063-28.04-.69-38.335-13.573-6.59-8.246-8.982-20.089-4.731-29.751,3.768-8.562,12.1-14.445,20.991-17.363s21.244-2.8,30.6-2.987c2.237-48.1,21.255-204.718,29.086-258.415-13.685-20.966-21.095-59.211-17.608-91.289,1.261-11.6,4.383-22.268,6.441-33.7,1.256-6.981,2.086-14.412,3.23-21.725l-3.913,4.125a469.19,469.19,0,0,1-27.6,58.672c-13.719,24.587-31.09,46-46.693,69.079-8.669,12.823-17.745,25.331-26.453,38.138-1.114,1.64-2.4,3.357-4.3,3.933-2.8.851-5.858-1.344-6.794-4.122,0-2.352.029-4.522.157-6.605-3.942,4.452-8.288,7.634-11.847,6.276a5.8,5.8,0,0,1-3.676-4.057,7.3,7.3,0,0,1-6.372-.2c-3.511-2.017-4.808-5.7-4.739-10.017-1.673,2.18-4.351,3.751-7.233,2.086a6.086,6.086,0,0,1-2.824-4.38c-1.312-8.135,2.213-16.734,6.247-23.625a40.842,40.842,0,0,1,6.613-8.113c1.674-1.724,5.015-8.04,7.427-8.367C19.12,357.936,12.51,361.053,6.442,354.124Z"/><path class="cls-1" d="M6.442,354.124c-1.865-2.13-3.247-5.329-.451-7.683a6.421,6.421,0,0,1,4.9-1.389c25.636,3.1,45.191-24.477,57.116-43.17a550.877,550.877,0,0,0,39.823-74.465c9.213-20.953,17.26-42.737,30.776-61.209,8.487-11.6,19.469-21.822,32.469-28.146,7.922-3.853,16.112-4.641,24.762-5.147-2.64.154-8.16-3.915-10.282-5.489a70.407,70.407,0,0,1-9.481-8.447A64.622,64.622,0,0,1,162.861,98,37.181,37.181,0,0,1,146.6,96.417a8.256,8.256,0,0,1-4.857-4.067c-2.347-4.745,1.612-8.8,4.822-12.195,6.239-6.6,8.975-12.814,11.413-22.255,2.019-7.816,4.406-16.122,8.359-23.085,7.725-13.6,19.791-25.782,35.017-30.517,24.168-7.516,57.288,2.513,73.753,21.193,18.982,21.534,22.234,55.094,8.869,80.5a79.681,79.681,0,0,1-15.9,20.251c-3.258,3.059-7.01,5.429-10.271,8.469l4.755.186-.343.362c11.434.492,22.283,2.3,32.614,8.856a96.3,96.3,0,0,1,26.584,25.945c13.7,19.4,21.695,41.657,28.415,64.057a435.043,435.043,0,0,0,27.721,69.632c12.792,25.565,29.589,53.861,59.6,61.146a13.634,13.634,0,0,1,5.057,2.256c6.646,5.022,2.027,11.478-3.182,12.483-3.609.7-7.3-.568-10.641-2.1-4.49-2.054-9.4-4.686-14.513-4.558-.5.013-.993.054-1.479.106,11.072,10.568,26.47,28.112,21.092,38.478a7.18,7.18,0,0,1-5.779,3.936c-2.621.179-4.505-1.13-6.094-2.8a8.175,8.175,0,0,1-1.682,4.235c-3.878,4.785-8.41,1.428-12.518-3.834a27.714,27.714,0,0,1,.031,6.175,6.588,6.588,0,0,1-1.915,4.11c-2.944,2.774-6.76.815-9.491-1.356-.523-.416-1.021-.863-1.526-1.3-.552,4.1-4.459,8.086-9.281,4.823a10.411,10.411,0,0,1-3.3-3.831c-12.574-23.938-25.867-46.483-37.174-71.111-18.235-39.715-39.38-85.379-46.183-128.866,4.425,28.289,7.2,57.746,15.151,85.035,8,27.448,7.036,66.643-6.789,83.772,12.147,84.111,19.978,193.742,29.2,259.771-.342-1.659,18.291,1.523,19.74,1.809,16.684,3.3,30.765,15.337,28.843,34.217-1.924,18.912-16.051,23.808-31.965,26.329-22.949,3.634-50.281,1.659-74.271-4.318a7.122,7.122,0,0,1-5.335-5.944c-6.071-44-24.057-290.5-36.759-290.1-10.015.309-30.324,243.458-37.7,291.89a7.137,7.137,0,0,1-6.152,5.993c-21.157,2.764-41.745,2.746-63.2,2.655-14.95-.063-28.04-.69-38.335-13.573-6.59-8.246-8.982-20.089-4.731-29.751,3.768-8.562,12.1-14.445,20.991-17.363s21.244-2.8,30.6-2.987c2.237-48.1,21.255-204.718,29.086-258.415-13.685-20.966-21.095-59.211-17.608-91.289,1.261-11.6,4.383-22.268,6.441-33.7,1.256-6.981,2.086-14.412,3.23-21.725l-3.913,4.125a469.19,469.19,0,0,1-27.6,58.672c-13.719,24.587-31.09,46-46.693,69.079-8.669,12.823-17.745,25.331-26.453,38.138-1.114,1.64-2.4,3.357-4.3,3.933-2.8.851-5.858-1.344-6.794-4.122,0-2.352.029-4.522.157-6.605-3.942,4.452-8.288,7.634-11.847,6.276a5.8,5.8,0,0,1-3.676-4.057,7.3,7.3,0,0,1-6.372-.2c-3.511-2.017-4.808-5.7-4.739-10.017-1.673,2.18-4.351,3.751-7.233,2.086a6.086,6.086,0,0,1-2.824-4.38c-1.312-8.135,2.213-16.734,6.247-23.625a40.842,40.842,0,0,1,6.613-8.113c1.674-1.724,5.015-8.04,7.427-8.367C19.12,357.936,12.51,361.053,6.442,354.124Z"/><path class="cls-2" d="M422.463,414.64a7.9,7.9,0,0,0,2.827,1.694c3.16,1.012,6.825-.857,8.289-3.836,5.105-10.389-10.18-27.792-21.188-38.3"/><path class="cls-2" d="M15.8,401.473a5.594,5.594,0,0,1-3.891,1.691c-2.747-.058-4.856-2.746-5.243-5.466-1.489-10.475,5.766-24.395,12.528-31.842,2.794-3.077,4.036-3.773,6.222-6.8"/><path class="cls-2" d="M57.225,353.3a16.016,16.016,0,0,1-21.684,7.812c-1.964-.966-3.81-2.361-5.988-2.582-9.137-.925-15.248,5.693-23.111-3.285-1.414-1.615-2.552-3.846-1.8-5.857,1.217-3.246,5.736-3.1,9.2-2.991,24.186.754,42.7-25.426,54.161-43.395a550.757,550.757,0,0,0,39.823-74.465c9.213-20.953,17.26-42.736,30.776-61.208,8.487-11.6,19.469-21.823,32.469-28.146,14.075-6.846,25.7-4.652,40.608-4.139"/><path class="cls-2" d="M29.333,372.287c-6.656,6.083-19.56,31.365-7.814,38.113a7.19,7.19,0,0,0,6.027.334"/><path class="cls-2" d="M38.855,381.875c-4.485,5.494-17.972,28.7-7.289,32.782,3.093,1.18,6.781-1.065,10.281-4.594"/><path class="cls-2" d="M405.384,386.1c6.808,5.607,14.039,15.007,16.02,23.82a9.631,9.631,0,0,1-1.472,8.125c-3.538,4.365-7.62,1.96-11.428-2.49"/><path class="cls-2" d="M393.243,391.908a30.423,30.423,0,0,1,14.351,26.255c-.073,2.821-.856,6.067-3.41,7.267-2.7,1.265-5.814-.434-8.145-2.286"/><path class="cls-2" d="M382.373,396.233c6.409,5.986,13.393,17.445,12.057,26.388a6.081,6.081,0,0,1-4.592,5.124c-4.165.89-7.014-3.237-8.9-6.8-12.278-23.239-25.17-45.244-36.18-69.224-18.235-39.715-39.38-85.379-46.183-128.866,4.425,28.289,7.2,57.746,15.151,85.035,8,27.447,7.036,66.642-6.79,83.772,12.148,84.111,19.979,193.742,29.2,259.77-.342-1.658,18.291,1.523,19.74,1.81,16.684,3.3,30.765,15.337,28.844,34.217-1.925,18.912-16.052,23.808-31.966,26.328-22.949,3.635-50.281,1.66-74.271-4.317a7.123,7.123,0,0,1-5.335-5.944c-6.071-44-24.057-290.5-36.759-290.1-10.016.309-30.324,243.458-37.7,291.89a7.139,7.139,0,0,1-6.152,5.993c-21.157,2.764-41.745,2.745-63.2,2.655-14.95-.063-28.04-.69-38.335-13.573-6.59-8.247-8.982-20.089-4.73-29.751,3.767-8.562,12.1-14.445,20.991-17.364s21.243-2.8,30.6-2.986c2.237-48.1,21.255-204.718,29.086-258.415-13.685-20.967-21.095-59.211-17.608-91.289,1.261-11.6,4.383-22.269,6.441-33.7,2.265-12.59,3.14-26.648,6.987-38.831a468.273,468.273,0,0,1-35.272,79.9c-13.719,24.587-31.09,46-46.693,69.079-8.669,12.823-17.744,25.331-26.453,38.138-1.322,1.944-2.889,4-5.425,4.127a5.836,5.836,0,0,1-5.591-4.093c-3.193-8.862,3.978-24.009,9.87-30.579"/><path class="cls-2" d="M250.662,136.2c15.748,0,30.416.305,44.168,9.039a96.272,96.272,0,0,1,26.585,25.945c13.875,19.646,21.9,42.228,28.673,64.919a426.992,426.992,0,0,0,27.666,69.175c12.4,24.735,28.594,51.9,56.885,60.073,4.529,1.308,10.163,3.086,10.816,7.756.509,3.64-2.818,6.955-6.427,7.651s-7.3-.568-10.641-2.1c-4.49-2.054-9.4-4.686-14.513-4.558-5.642.142-10.279,3.088-16.16,1.869a20.14,20.14,0,0,1-12.777-8.853"/><path d="M167.09,140.828a40.654,40.654,0,0,1,6.165-3.129c5.617-2.293,11.606-3.508,17.553-4.711l7.242-1.464a26.731,26.731,0,0,1,6.156-.755,8.993,8.993,0,0,1,5.737,2.048c1.9,1.706,2.69,4.985,1.138,7.213-1.5,2.151-6.359,1.772-8.625,1.815q-1.866.035-3.731.112a171.093,171.093,0,0,0-20.615,2.1q-5.117.837-10.175,1.982c-3.069.694-6.047,1.772-9.1,2.363A28.653,28.653,0,0,1,167.09,140.828Z"/><path class="cls-3" d="M250.5,138.612a56.284,56.284,0,0,0,17.575-11.252,79.677,79.677,0,0,0,15.9-20.25c13.365-25.406,10.112-58.966-8.87-80.5C258.645,7.93,225.527-2.1,201.359,5.416c-15.226,4.735-27.293,16.913-35.018,30.518C162.387,42.9,160,51.2,157.982,59.019c-2.438,9.441-5.174,15.656-11.413,22.255-2.824,2.986-6.226,6.483-5.408,10.51.761,3.744,4.844,5.759,8.563,6.634a37.286,37.286,0,0,0,13.136.7c8.318,21.773,28.384,37.178,50.295,42.08"/></svg>