<svg id="Layer_1" data-name="Layer 1" xmlns="http://www.w3.org/2000/svg" viewBox="0 0 1000 750"><defs><style>.cls-1{fill:#ffdd15;}.cls-2{fill:#f91d00;}</style></defs><title>HowPainWorksScene5</title><polygon class="cls-1" points="1011.621 -12.279 -13.121 -12.279 -13.121 765.963 1011.621 765.963 1011.621 765.96 1011.621 -12.279"/><polygon class="cls-2" points="-13.121 -12.279 -13.121 765.963 960.719 765.963 943.45 675.508 1011.621 659.394 1011.621 -12.279 -13.121 -12.279"/><polygon class="cls-1" points="1011.621 608.017 1011.621 142.75 945.548 116.722 1006.179 -12.279 15.792 -12.279 36.683 72.087 -13.121 82.314 -13.121 654.9 23.581 659.289 7.63 765.963 909.816 765.963 885.36 637.86 1011.621 608.017"/><polygon class="cls-2" points="1011.621 556.639 1011.621 391.256 954.421 352.087 1011.621 308.565 1011.621 196.49 877.621 143.702 950.932 -12.279 67.302 -12.279 97.728 110.594 -13.121 133.358 -13.121 344.097 4.691 359.15 -13.121 376.75 -13.121 604.544 80.646 615.756 58.186 765.963 858.913 765.963 827.27 600.213 1011.621 556.639"/><polygon class="cls-1" points="1011.621 505.261 1011.621 451.855 869.043 354.221 1007.731 248.698 809.692 170.682 895.685 -12.279 637.758 -12.279 589.817 14.951 575.82 -12.279 358.612 -12.279 351.83 7.2 318.028 -12.279 118.812 -12.279 158.773 149.102 -13.121 184.401 -13.121 278.634 78.746 356.268 -13.121 447.041 -13.121 554.188 137.712 572.223 108.742 765.963 243.542 765.963 255.649 757.517 256.514 765.963 589.731 765.963 603.416 729.47 660.762 765.963 808.01 765.963 769.179 562.565 1011.621 505.261"/><polygon class="cls-2" points="948.035 468.913 783.665 356.355 906.791 262.673 741.765 197.663 840.438 -12.279 738.995 -12.279 569.181 84.175 519.602 -12.279 411.557 -12.279 379.189 80.674 217.888 -12.279 170.322 -12.279 219.818 187.609 8.083 231.09 152.8 353.387 -0.933 505.289 194.777 528.69 159.663 763.518 296.736 667.886 306.775 765.963 422.984 765.963 424.222 763.727 424.861 765.963 536.332 765.963 578.247 654.188 753.894 765.963 757.107 765.963 711.089 524.918 948.035 468.913"/><polygon class="cls-1" points="337.822 578.255 226.286 656.071 251.843 485.157 107.988 467.956 226.854 350.505 118.996 259.357 280.863 226.116 239.157 57.685 406.549 154.149 464.05 -10.982 548.545 153.399 765.145 30.371 673.837 224.643 805.85 276.648 698.287 358.489 826.472 446.268 652.999 487.271 686.73 663.957 553.078 578.906 482.931 765.963 476.878 766.019 439.065 633.675 365.835 765.963 357.037 765.963 337.822 578.255"/><polygon class="cls-2" points="453.909 503.623 485.909 615.623 527.909 503.623 615.909 559.623 594.909 449.623 704.909 423.623 612.909 360.623 704.909 290.623 605.909 251.623 652.909 151.623 527.909 222.623 472.909 115.623 433.909 227.623 315.909 159.623 341.909 264.623 229.909 287.623 300.909 347.623 216.909 430.623 308.909 441.623 292.909 548.623 378.909 488.623 391.909 615.623 453.909 503.623"/></svg>