<svg xmlns="http://www.w3.org/2000/svg" viewBox="0 0 335 292"><defs><style>.a{fill:#a2d0ff;stroke:#000;stroke-linecap:round;stroke-linejoin:round;stroke-width:5.122px;}</style></defs><title>HowPainWorks</title><path class="a" d="M180.175,205.927q-2.722,4.2-5.417,8.4A148.8,148.8,0,0,1,128.551,260C106.1,274.028,70.8,271.431,47.87,259.434-7.851,230.28-.46,148.886,11.939,97.191,20.178,62.841,48.4-8.368,95.862,4.945c24.337,6.827,33.27,35.557,36.205,58.1,3.22,24.731,10.841,36.962,12.367,64.566-4.709,6.713-8.594,12.553-14.451,21.062,12.874-19.14,25.865-38.423,42.291-54.616,23.326-23,64.695-50.014,91.728-17.177,11.188,13.591,15.018,31.728,16.85,49.237,3.494,33.4,1.032,67.108-1.433,100.6,9.254.1,18.638.216,27.541,2.743s17.421,7.8,21.831,15.937a26.712,26.712,0,0,1-1.908,27.885c-8.55,11.65-24.76,14.165-39.209,14.425a242.911,242.911,0,0,1-52.792-4.84c-5.179-1.055-10.606-2.429-14.365-6.144-4.961-4.9-5.741-12.523-6.143-19.487-1.045-18.09-1.637-36.213-1.473-54.334.138-15.17-.064-30.034-.438-45.2-6.316,6.043-10.115,14.769-14.959,21.986Q188.741,192.743,180.175,205.927Z"/><path d="M105,11.753c6.923,13.359,20.9,33.566,25.484,44.9C129.059,31.64,116.543,11.753,105,11.753Z"/></svg>