<svg xmlns="http://www.w3.org/2000/svg" viewBox="0 0 472 210"><defs><style>.a{fill:#fff;stroke:#a6bfd0;stroke-linejoin:round;stroke-width:5px;}</style></defs><title>HowPainWorks</title><path class="a" d="M468.581,92.962c0-32.693-27.857-59.2-62.221-59.2a64.479,64.479,0,0,0-28.579,6.619c-12.27-22.02-39.549-37.35-71.257-37.35-26.069,0-49.142,10.366-63.349,26.287a61.829,61.829,0,0,0-101.426.346,69.6,69.6,0,0,0-35.856-9.812c-36.519,0-66.141,27.479-66.372,61.456-21.645,10.783-36.1,30.282-36.1,52.547,0,33.944,33.6,61.46,75.047,61.46a86.473,86.473,0,0,0,43.1-11.159,57,57,0,0,0,100.912-20.388,65.122,65.122,0,0,0,91.466,6.356,65.166,65.166,0,0,0,121.152-24.664C454.99,135.588,468.581,115.791,468.581,92.962Z"/></svg>