<svg xmlns="http://www.w3.org/2000/svg" viewBox="0 0 166 167"><defs><style>.a{fill:#78baef;stroke:#000;stroke-linecap:round;stroke-linejoin:round;stroke-width:5.122px;}</style></defs><title>HowPainWorks</title><path class="a" d="M116.563,142.367a154.243,154.243,0,0,0,18.252,5.039c3.352.661,7.458-13.654,8.09-15.793,2.086-7.064,6.539-16.709,2-23.635-2.31-3.523-6.417-5.336-10.26-7.06A268.36,268.36,0,0,1,83.512,70.772c-7.75-5.81-14-10.836-19.984-18.443L42.238,25.27c-1.978-2.514-4.254-5.21-7.412-5.718-4.395-.707-8.178,3.141-10.383,7.009-6.021,10.564-6.611,23.663-3.352,35.377C26.067,79.822,38.073,92,51.543,103.811,70.378,120.332,92.788,134.526,116.563,142.367Z"/></svg>