<svg xmlns="http://www.w3.org/2000/svg" viewBox="0 0 1191.905 802"><defs><style>.a{fill:#a2d0ff;}.a,.b,.c{stroke:#000;stroke-linecap:round;stroke-linejoin:round;stroke-width:10px;}.b{fill:#929497;}.c{fill:#c3996b;}.d{fill:#fff;}.e{fill:#f91d00;}</style></defs><title>HowPainWorks</title><path class="a" d="M157.123,624.542c-18.684-179.321-28.3-356.2-8.522-536.032,2.151-19.566,5.568-41.024,20.572-53.766,15.119-12.841,37.041-12.627,56.845-11.5,43.882,2.493,86.33-5.566,130.427-7.09A1165.942,1165.942,0,0,1,506.165,20.6c-9.135,112.364-8.328,208.53-7.515,321.262,268.062-10.473,334.242,89.18,352.12,128.074,33.092,71.991-7.235,169.385-89.385,181.242C704.863,659.34,658.351,668,601.252,667.073l-407.48-6.593c-8.485-.138-17.584-.472-24.413-5.509C160.285,648.28,158.291,635.756,157.123,624.542Z"/><path class="b" d="M942.853,680.463q-80.623.971-161.011,8.161C785.088,697.8,821.8,788.783,817.9,791.311a107.958,107.958,0,0,1,33.513-14.359c-6.561-13.726-17.109-37.051-10.382-51.991,3.933-8.733,13.523-15.146,22.986-13.664,12.537,1.965,19.815,16.521,18.394,29.132s-9.052,23.535-16.44,33.853L882.3,786.589c10.253-16.769,20.873-32.923,30.238-50.2C915.972,730.049,937.6,680.545,942.853,680.463Z"/><path class="c" d="M33.354,688.732H962.24c107.3,0,168.021-34.5,193.023-51.4a15.275,15.275,0,0,0,3.811-21.606h0a15.286,15.286,0,0,0-20.853-3.778c-23.389,15.526-68.68,47.082-187.86,47.082H32.279Z"/><polygon class="d" points="1676.896 -23.084 1412.141 161.627 1495.041 -392.769 1040.057 -447.172 1368.12 -771.329 1039.11 -1049.366 1500.183 -1144.051 1364.236 -1693.066 1827.982 -1425.823 1996.487 -1909.737 2257.953 -1401.068 3024.153 -1836.269 2666.996 -1076.362 2997.085 -946.327 2796.148 -793.439 3141.442 -556.988 2587.132 -425.968 2697.249 150.833 2289.684 -108.525 2026.547 593.176 1935.599 274.864 1743.008 622.773 1676.896 -23.084"/><polygon class="e" points="1717.982 -112.715 1478.763 54.181 1552.107 -436.302 1148.978 -484.504 1442.174 -774.21 1150.023 -1021.099 1561.229 -1105.544 1440.988 -1591.128 1855.342 -1352.348 2005.346 -1783.131 2237.317 -1331.844 2911.917 -1715.016 2599.068 -1049.382 2896.145 -932.352 2710.77 -791.305 3019.879 -579.633 2529.042 -463.616 2626.427 46.5 2264.515 -183.807 2032.969 433.651 1950.442 144.812 1776.507 459.02 1717.982 -112.715"/></svg>