<svg xmlns="http://www.w3.org/2000/svg" viewBox="0 0 220 220"><defs><style>.a{fill:#3bc493;stroke:#000;stroke-linecap:round;stroke-linejoin:round;stroke-width:10px;}</style></defs><title>HowPAinWorksScene7</title><rect class="a" x="14.173" y="14.092" width="192" height="192" rx="8.367"/><path d="M113.812,60.981q11.474,0,18.091,5.078t6.616,14.111q0,7.276-3.711,11.5a13.518,13.518,0,0,1-4.139,2.826c-1.207.612-3.5,1.657-1.949,3.432.614.7,2.044.9,2.879,1.237a17.76,17.76,0,0,1,6.31,4.029q4.515,4.712,4.516,13.208,0,10.254-6.372,16.162t-17.5,5.908a40.847,40.847,0,0,1-12.582-1.719,2.478,2.478,0,0,0-.774-.124,2.6,2.6,0,0,0-2.562,2.6v19.7a2.588,2.588,0,0,1-2.588,2.588H90.326a2.588,2.588,0,0,1-2.588-2.588V83.979q0-10.938,6.836-16.968t19.238-6.03m.928,65.625q6.251,0,9.277-3.028t3.027-8.5q0-5.37-3.247-8.179t-9.448-2.807h-.928a2.588,2.588,0,0,1-2.588-2.588V94.867a2.588,2.588,0,0,1,2.588-2.588q4.835,0,7.52-2.661t2.685-7.641a8.9,8.9,0,0,0-2.685-6.934q-2.685-2.441-7.52-2.441Q102.63,72.6,102.63,85.4v36.292a2.571,2.571,0,0,0,1.377,2.294,23.123,23.123,0,0,0,4.385,1.672,23.741,23.741,0,0,0,6.348.953m-.928-74.625c-10.487,0-18.962,2.786-25.192,8.28-6.557,5.785-9.882,13.765-9.882,23.717V158.93a11.6,11.6,0,0,0,11.588,11.588h9.716A11.6,11.6,0,0,0,111.63,158.93V147.092a60.63,60.63,0,0,0,6.918.379c9.73,0,17.679-2.8,23.624-8.309,6.14-5.692,9.253-13.35,9.253-22.761,0-8.037-2.361-14.576-7.018-19.435q-.636-.663-1.327-1.277c2.947-4.2,4.439-9.409,4.439-15.519,0-8.812-3.5-16.161-10.136-21.251-6-4.6-13.93-6.938-23.571-6.938Zm-1.663,29.746a5.128,5.128,0,0,1,1.272-.125,6.577,6.577,0,0,1,1.2.092c0,.082.007.176.007.283a5.7,5.7,0,0,1-.105,1.206,5.12,5.12,0,0,1-1.1.1,11.6,11.6,0,0,0-1.677.122,6.055,6.055,0,0,1,.405-1.674ZM111.63,117.2v-4.238a11.626,11.626,0,0,0,1.791.138h.928a7.014,7.014,0,0,1,3.523.589,4.19,4.19,0,0,1,.172,1.4,4.3,4.3,0,0,1-.357,2.092,6.95,6.95,0,0,1-2.947.432,13.73,13.73,0,0,1-3.11-.41Z"/></svg>