<svg xmlns="http://www.w3.org/2000/svg" viewBox="0 0 912 820"><defs><style>.a,.b{fill:none;stroke:#ce3b4a;stroke-linecap:round;stroke-miterlimit:10;}.a{stroke-width:10px;}.b{stroke-width:5px;}</style></defs><title>HowPainWorksScene5</title><path d="M906.868,5.965A5,5,0,0,0,903.332,4.5L15.01,4.548a5,5,0,0,0-4.96,4.37c-27.989,220.218,32.314,422.112,169.8,568.491,77.871,82.908,177.424,145.369,295.9,185.649,101.731,34.588,215.4,52,338.923,52q43.41,0,88.433-2.872a5,5,0,0,0,4.514-3.71c.233-.874.349-1.314.716-798.976A5,5,0,0,0,906.868,5.965Z"/><path class="a" d="M551.333,560.044l9.246-9.971c2.728-2.941,5.5-5.948,7.187-9.588,7.152-15.429,5.35-27.391,17.927-40.916,11.472-12.337,26.786-21.011,42.113-27.628,19.961-8.62,41.127-14.878,59.484-26.531s34.07-30.317,35-52.04c.364-8.524-1.554-16.98-1.853-25.506a68.572,68.572,0,0,1,27.829-56.931c23.363-16.9,53.635-17.16,79.378-28.576,18.574-8.238,35.377-16.8,45.509-35.473,3.789-6.984,6.33-14.6,10.315-21.478S893.314,212.2,901,210.2"/><path class="b" d="M519.87,692.917c-3.053-7.215,2.007-15.173,7.266-20.98S538.555,659.693,538,651.878c-.5-6.959-6.4-13.175-5.124-20.033,1.021-5.467,6.222-9.034,9.041-13.828a17.271,17.271,0,0,0,2.088-11.706c-1.15-6.377-3.822-11.39-3.207-18.075.725-7.872,5.213-16.674,9.691-23.029a7.376,7.376,0,0,0,1.427-2.725,2.318,2.318,0,0,0-1.161-2.613,3.281,3.281,0,0,0-2.6.47c-7.4,3.757-12.125,8.621-20.883,9.26-5.031.367-8.874-.1-12.745,3.852-3.142,3.206-5.806,7.184-9.956,8.9-8.249,3.406-17.483-3.776-26.271-2.22a13.7,13.7,0,0,0-9.546,6.928c-4.065,7.613-4.322,18-13.925,21.629-6.6,2.493-13.23-1.04-19.848,2.089a20.719,20.719,0,0,0-11.656,15.209"/><path class="b" d="M504.956,688.775a28.95,28.95,0,0,1,2.7-10.876,13.945,13.945,0,0,1,8.225-7.252,21.821,21.821,0,0,1,4.444-.622l8.029-.567"/><path class="b" d="M546.15,675.467c1.7-3.911,3.375-8.551,1.236-12.24-2.082-3.588-7.144-4.92-8.56-8.819"/><path class="b" d="M520.329,651.81a15.11,15.11,0,0,0,5.358-6.158c.921-1.953,1.417-4.093,2.442-5.993s2.79-3.618,4.946-3.728"/><path class="b" d="M546.728,637.769a14.98,14.98,0,0,1-6.123-17.223"/><path class="b" d="M520.74,614.393a19.284,19.284,0,0,0,8.523-8.628c1.3-2.639,2.031-5.648,4.057-7.781,1.933-2.033,4.736-2.942,7.415-3.775"/><path class="b" d="M552.682,590.755c-.975-3.029-2.929-5.629-4.44-8.43s-2.6-6.1-1.656-9.142"/><path class="b" d="M434.382,632.9c2.456-3.613,5.024-7.655,4.5-11.991-.25-2.063-1.195-3.984-1.525-6.036s.185-4.5,2.028-5.464"/><path class="b" d="M454.015,627.553c-1.277-4.475-2.458-9.645.164-13.49.824-1.207,1.994-2.216,2.467-3.6.425-1.24.305-2.782,1.3-3.637"/><path class="b" d="M433.253,595.681A18.942,18.942,0,0,1,451.16,591.4c2.167.633,4.253,1.667,6.506,1.807,3.317.206,6.405-1.543,9.267-3.234"/><path class="b" d="M475.846,606.012l-.478-8.749a11.96,11.96,0,0,1,.456-5.088c.672-1.692,2.07-2.976,3.064-4.5a10.621,10.621,0,0,0,1.668-6.67"/><path class="b" d="M480.884,566.555c2.214-1.387,5.126-.879,7.535.133a8.379,8.379,0,0,1,3.863,2.821,16.755,16.755,0,0,1,1.467,3.612,13.933,13.933,0,0,0,8.681,8.294"/><path class="b" d="M510.847,597.439c-1.2-3.512.285-7.363,2.166-10.562s4.226-6.261,4.95-9.9c.347-1.744.334-3.647,1.332-5.12"/><path class="a" d="M325.773,374.512c20.441,2.365,38.245-14.066,49.395-31.361s19.468-37.3,35.82-49.788c16.843-12.868,39.064-15.391,59.617-20.571,23.98-6.044,37.891-18.026,53.015-36.729,20.075-24.824,34.666-9.374,60.824-16.175,26.525-6.9,32.464-48.558,59.383-53.715,18.519-3.547,36.615,13.053,55.067,9.173,13.9-2.922,23.275-16.6,36.847-20.788,18.006-5.556,33.166,6.784,49.576,11.3,17.064,4.7,36.529,1.25,50.439-9.852,8.085-6.453,14.306-15.079,22.756-21.049,10.553-7.454,26.428-8.794,38.091-3.3"/><path class="b" d="M207.962,446.483c2.14-3.695,7.007-4.664,11.276-4.733s8.86.3,12.473-1.978c5.884-3.706,6.143-12.281,10.535-17.673,4.625-5.677,12.8-6.732,20.121-6.811s15.2.247,21.3-3.8c8.572-5.692,10.225-17.231,18.171-23.5,3.819-3.014,7.945-7.754,12.259-9.854,3.956-1.927,8.767-.77,12.682-2.941a2.294,2.294,0,0,0,1.277-1.408c.292-1.483-1.778-2.157-3.289-2.193-8.646-.2-19.451,3.585-27.663.551-6.6-2.44-10.512-9.337-16.646-12.79-7.933-4.466-17.837-2.377-26.512.383s-17.838,6.114-26.642,3.8c-7.3-1.919-13.348-7.558-20.81-8.7-9.443-1.448-18.473,4.74-24.569,12.1-2.011,2.427-3.893,5.068-6.559,6.749s-6.424,2.139-8.835.108"/><path class="b" d="M216.182,461.41A19.41,19.41,0,0,0,226.418,448.8a36.039,36.039,0,0,1,1.316-5.236,5.425,5.425,0,0,1,3.815-3.5"/><path class="b" d="M217.894,419.4c6.953-4.87,17.7-3,22.6,3.942"/><path class="b" d="M248.02,438.089c2.138-5.392,8.582-9.189,8.154-14.974a13.38,13.38,0,0,1-.181-2.512c.3-2.549,3.154-3.838,5.592-4.64"/><path class="b" d="M247.255,400.205c5.321,2.608,11.588-3.548,17.258-1.825,7.735,2.352,8.571,13.61,18.641,13.476"/><path class="b" d="M295.565,413.678c2.28-2.459,1.937-6.293,1.323-9.59s-1.281-6.992.6-9.77"/><path class="b" d="M310.4,398.229c-1.024-4.368-2.05-8.922-1.037-13.292s4.727-8.465,9.211-8.327"/><path class="b" d="M163.621,361.284a82.945,82.945,0,0,0,16.974-9.463,12.985,12.985,0,0,1,3.832-2.2c4.115-1.2,8.058,2.1,11.062,5.161"/><path class="b" d="M195.569,373.815c2.485-4.059,7.4-5.823,12-7.067,4.138-1.121,8.65-2.256,11.305-5.622"/><path class="b" d="M217.876,343.485c2.865-.368,5.936-.7,8.5.618,2.843,1.462,4.354,4.563,6.275,7.118a24.675,24.675,0,0,0,14.144,8.958"/><path class="b" d="M248.943,374.291a37.27,37.27,0,0,0,9.5-12.042c1.22-2.462,2.876-5.521,5.614-5.3"/><path class="b" d="M266.228,341.081a9.3,9.3,0,0,1,8.056,3.861,18.294,18.294,0,0,1,2.3,5.6l1.863,6.518"/><path class="b" d="M274.783,372.7c3.329-2.124,7.67-.928,11.475.13s8.429,1.716,11.23-1.068"/><path class="b" d="M297.886,356.909a20.336,20.336,0,0,1,8.895,9.626c1,2.268,1.831,5,4.126,5.933"/><path class="a" d="M225,128.5c12.885-12.873,30.385-10.727,48.188-6.881s34.937,11.409,53.131,12.261c37.438,1.753,69.582-24.509,104.538-38.029a160.054,160.054,0,0,1,89.812-7.359c14.316,2.984,28.343,8.02,40.5,16.143,7.229,4.829,13.788,10.733,21.576,14.6,50.978,25.28,82.172-49.69,130.582-43.179,5.6.752,11.09,2.851,16.719,2.386,12.043-.994,20.266-13.014,31.8-16.609,13.842-4.312,28,4.307,42.153,7.452,26.074,5.8,69.465-9.638,93-22.28"/><path class="b" d="M112.039,197.707a26.945,26.945,0,0,0,29.912-5c2.469-2.452,4.454-5.4,7.181-7.559,10.852-8.6,28.046-1.552,39.967-8.6s12.958-24.516,23.161-33.9c4.726-4.348,11.7-7.464,12.786-13.794-10.6-2.235-23.382,7.1-31.454-.124-2.007-1.8-3.193-4.324-4.944-6.37-7.346-8.582-21.407-5.911-31.131-.161-3.482,2.059-6.9,4.459-10.869,5.246-8.422,1.67-16.294-4.237-24.627-6.3A28.558,28.558,0,0,0,97.061,127"/><path class="b" d="M140.685,192.854l-1.375.8c-1.835-1-4.333-1.365-6.015-2.5-1.541-1.042-2-3.3-3.776-4.065-2.312-1-4.728.748-7.146.489"/><path class="b" d="M144.579,199.771A14.615,14.615,0,0,0,154,186.1a8.036,8.036,0,0,1,.151-2.594,2,2,0,0,1,1.881-1.519"/><path class="b" d="M150.63,172c3.5-1.561,7.807-.134,11.2,1.145,3.812,1.437,5.553,6.363,9.559,6.987"/><path class="b" d="M172.526,194.046A30.037,30.037,0,0,0,184,179.176"/><path class="b" d="M190.148,188.436c0-.3-.563-.038-.411.216s.553.187.777-.006.377-.47.636-.614a16.952,16.952,0,0,0,7.477-8.958c.65-1.625,1.4-3.012,1.145-4.764-.318-2.182-3.249-3.43-2.527-5.972"/><path class="b" d="M173.98,162.8c5.385.278,10.93.036,15.452-3.2,4.679-3.347,7.673-6.383,14.043-6.861"/><path class="b" d="M216.045,154.2c2.052-2.042,3.465-5.419,5.16-7.739,2.324-3.183,4.006-6.326,3.98-10.4a19.991,19.991,0,0,1,.072-4.095,3.653,3.653,0,0,1,2.484-2.981"/><path class="b" d="M97.281,138.146a16.311,16.311,0,0,0,9.517-3.94c1.821-1.586,3.262-3.557,4.95-5.285.956-.978,1.989-1.877,3.02-2.774a28.723,28.723,0,0,1,5.319-3.95"/><path class="b" d="M125.4,140.894c2.5.072,4.145-2.442,5.668-4.423a21.5,21.5,0,0,1,12.2-7.793"/><path class="b" d="M136.331,114.887c3.248-1.139,6.9-.515,10.037.895,3.819,1.717,6.445,4.309,9.763,6.852"/><path class="b" d="M153.24,135.218a80.506,80.506,0,0,0,8.6-4.42,14.53,14.53,0,0,0,5.016-4.235,28.981,28.981,0,0,0,2.188-5.344c.71-1.794,1.862-3.593,3.683-4.228"/><path class="b" d="M177.082,106.235c5.182-1.162,10.882,3.118,11.211,8.419.129,2.085-.436,4.278.358,6.211"/><path class="b" d="M186.127,141.967a15.846,15.846,0,0,0,10.8-2.658,31.329,31.329,0,0,0,4.66-4.239l2.839-2.953"/><path class="a" d="M778.3,612.555c-2.648-15.349,5.09-30.926,16-42.047s24.754-18.774,37.857-27.194c12.422-7.982,25.46-17.392,32.784-30.581,7.673-13.818,13.133-24.869,28.531-32.279"/><path class="b" d="M701.65,728.806c-1.223-9.609-1.537-21.352,6.534-26.708,3.458-2.295,7.809-2.832,11.431-4.857,7.031-3.93,9.924-12.568,10.808-20.574.446-4.035.628-8.369,3.051-11.628,3.969-5.341,11.063-7.895,17-10.382,5.486-2.3,12.636-1.978,17.21-6.163,8.771-8.023,7.7-20.923,8.106-31.674a7.889,7.889,0,0,1,1.067-4.45c.917-1.249,2.983-1.765,4.007-.6,1.835,6.646,3.417,13.831,5.6,20.276,2.107,6.236,6.442,11.5,6.09,18.455-.272,5.381-3.07,10.263-5.794,14.911-3.661,6.245-11.182,14.7-11.913,22-1.028,10.268,10.618,16.462,17.235,24.38a28.864,28.864,0,0,1,6.558,20.427"/><path class="b" d="M781.555,732.175a72.349,72.349,0,0,1,4.487-17.614c.639-1.622,2.069-3.551,3.676-2.874"/><path class="b" d="M713.752,724.318a16.943,16.943,0,0,0-1.16-10.1c-.895-2-2.185-3.835-2.747-5.951s-.163-4.724,1.686-5.9"/><path class="b" d="M694.035,697.981c5.1-5.769,12.389-11.181,20.423-7.936a35.133,35.133,0,0,0,4.053,1.684,7.973,7.973,0,0,0,7.841-2.39"/><path class="b" d="M737.932,698.52c2.412-11.764-3.334-14.606-7.342-25.074"/><path class="b" d="M712.527,672.681c3.034-4.909,6.194-9.956,10.913-13.277s11.451-4.492,16.217-1.238"/><path class="b" d="M748.762,677.467a40.025,40.025,0,0,0,2.754-14.957,18.8,18.8,0,0,1,.3-5.01,4.863,4.863,0,0,1,3.17-3.607"/><path class="b" d="M746.59,642.446c2.768-1.161,5.669-2.344,8.662-2.112,6.97.541,13.245,4.473,18-3.339"/><path class="b" d="M766.665,714.8c1.381-5.139-2.653-10.844-.528-15.723,1.853-4.255,7.878-6.377,7.988-11.016"/><path class="b" d="M795.128,694.679c-.782-5.2-7.225-9.819-10.069-14.094-1.949-2.928-3.056-7.037-.918-9.83"/><path class="b" d="M802.276,671.408c1.036-4.381,1.714-9.858-1.863-12.591a28.769,28.769,0,0,0-3.061-1.719,10.054,10.054,0,0,1-4.363-5.287"/><path class="b" d="M785.312,630.409a17.058,17.058,0,0,0,9.332,6.045,7.432,7.432,0,0,0,2.9.229c1.628-.257,3-1.332,4.541-1.915a8.117,8.117,0,0,1,10.268,5.251"/></svg>