<svg xmlns="http://www.w3.org/2000/svg" viewBox="0 0 780 476"><defs><style>.a,.d{fill:#c3996b;}.a,.b,.c{stroke:#000;stroke-linecap:round;stroke-linejoin:round;stroke-width:10px;}.b{fill:#754c28;}.c{fill:none;}</style></defs><title>HowPainWorksScene5</title><path class="a" d="M769.2,465H48.947L49,450.982V67.191c0-3.056,53.122,19.492,56.293,21.053,13.081,6.437,25.891,13.791,39.992,17.489,12.131,3.181,24.792,3.54,37.315,4.2,112.286,5.888,222.608,38.852,320.944,93.1,94.022,51.865,192.878,129.251,251.994,220.22C763.453,435.427,767.264,450.781,769.2,465Z"/><path class="b" d="M12.916,186.224c4.759,38.789,21.958,94.068,58.832,112.7,42.279,21.364,90.378,29.736,130.951,54.616,3.734,2.289,7.7,4.807,12.074,4.634a21.017,21.017,0,0,0,6.615-1.749c36.205-13.941,69.879-38.842,91.191-71.539,24.616-37.765,23.684-80.8,12.536-123.176-8.326-31.644-23.693-62.068-46.059-86.124C181.979-28.828-11.874-15.847,12.916,186.224Z"/><path class="c" d="M149.582,335.293c42.685,2.026,87.685-9.486,118.7-40.647"/><path class="d" d="M48.544,302.732c67.605-1.608,133.924,24.144,179.8,75.491"/><path class="c" d="M48.544,302.732c67.605-1.608,133.924,24.144,179.8,75.491a7.258,7.258,0,0,0,2.337,1.975c1.568.688,3.375.171,5.01-.339A312.779,312.779,0,0,1,345.778,366.2"/><path class="a" d="M312.6,331.092a139.837,139.837,0,0,0,46.139-66.3"/></svg>