<svg xmlns="http://www.w3.org/2000/svg" viewBox="0 0 399 183"><defs><style>.a{fill:#fff;}</style></defs><title>HowPainWorks</title><path class="a" d="M330.761,84.191q-1.707,0-3.393.063c0-.021,0-.042,0-.063,0-46.327-32.886-83.882-73.453-83.882-35.809,0-65.617,29.27-72.12,68A69.333,69.333,0,0,0,60.732,101.294c-2.224-.216-4.484-.34-6.784-.34-29.475,0-53.37,18.289-53.37,40.85s23.9,40.851,53.374,40.851c36.474,0,71.078-6.119,107.755-6.256,53.749-.2,107.43,4.928,161,4.707,32.508-.134,75.49-6.517,75.49-47.683C398.2,106.233,368.005,84.191,330.761,84.191Z"/></svg>