<svg xmlns="http://www.w3.org/2000/svg" viewBox="0 0 179 115"><defs><style>.a{fill:#ce8ece;}.a,.b{stroke:#000;stroke-linecap:round;stroke-linejoin:round;stroke-width:5px;}.b{fill:#ffcaf8;}</style></defs><title>HowPainWorks</title><path class="a" d="M97.458,25.778c0,4.415,7.809,7.994,17.442,7.994s17.441-3.579,17.441-7.994V15.133H97.458Z"/><ellipse class="b" cx="114.9" cy="13.375" rx="17.442" ry="6.973"/><path class="a" d="M117.6,104.232c0,4.415,7.809,7.994,17.442,7.994s17.442-3.579,17.442-7.994V93.587H117.6Z"/><path class="b" d="M135.044,98.625c-9.633,0-17.442-3.122-17.442-6.973s7.809-6.973,17.442-6.973,17.442,3.122,17.442,6.973c0,2.583-3.513,4.838-8.733,6.043"/><path class="a" d="M125.485,33.661c0,4.415,7.809,7.994,17.442,7.994s17.441-3.579,17.441-7.994V23.016H125.485Z"/><ellipse class="b" cx="142.927" cy="21.257" rx="17.442" ry="6.973"/><path class="a" d="M58.921,23.151c0,4.415,7.809,7.994,17.441,7.994S93.8,27.566,93.8,23.151V12.506H58.921Z"/><ellipse class="b" cx="76.362" cy="10.747" rx="17.442" ry="6.973"/><path class="a" d="M20.384,33.661c0,4.415,7.808,7.994,17.441,7.994s17.442-3.579,17.442-7.994V23.016H20.384Z"/><ellipse class="b" cx="37.825" cy="21.257" rx="17.442" ry="6.973"/><path class="a" d="M2.867,57.309c0,4.415,7.808,7.994,17.441,7.994S37.75,61.724,37.75,57.309V46.664H2.867Z"/><path class="b" d="M16.651,51.725c-7.877-.672-13.784-3.47-13.784-6.82,0-3.851,7.808-6.973,17.441-6.973S37.75,41.054,37.75,44.905c0,3.293-5.709,6.053-13.386,6.784"/><path class="a" d="M44.031,46.8c0,4.415,7.809,7.994,17.442,7.994S78.914,51.214,78.914,46.8V36.154H44.031Z"/><path class="b" d="M49.668,39.528c-3.465-1.274-5.637-3.1-5.637-5.133,0-3.851,7.809-6.973,17.442-6.973S78.914,30.544,78.914,34.4s-7.808,6.973-17.441,6.973c-1.409,0-2.778-.067-4.09-.193"/><path class="a" d="M77.314,43.3c0,4.415,7.808,7.994,17.441,7.994S112.2,47.71,112.2,43.3V32.65H77.314Z"/><ellipse class="b" cx="94.755" cy="30.891" rx="17.442" ry="6.973"/><path class="a" d="M107.968,47.674c0,4.415,7.809,7.994,17.442,7.994s17.441-3.579,17.441-7.994V37.03H107.968Z"/><ellipse class="b" cx="125.41" cy="35.271" rx="17.442" ry="6.973"/><path class="a" d="M61.473,63.191c0,4.415,7.809,7.994,17.441,7.994s17.442-3.579,17.442-7.994V52.546H61.473Z"/><path class="b" d="M87.113,56.944a39.739,39.739,0,0,1-8.2.817c-9.632,0-17.441-3.122-17.441-6.973s7.809-6.973,17.441-6.973,17.442,3.122,17.442,6.973c0,1.428-1.074,2.755-2.916,3.861"/><path class="a" d="M84.044,23.973c.289,4.406,8.315,7.466,17.928,6.836s17.17-4.712,16.881-9.118l-.7-10.622L83.348,13.351Z"/><ellipse class="b" cx="100.637" cy="10.455" rx="17.442" ry="6.973" transform="translate(-0.468 6.607) rotate(-3.751)"/><path class="a" d="M141.25,54.681c0,4.415,7.809,7.994,17.442,7.994s17.441-3.579,17.441-7.994V44.036H141.25Z"/><ellipse class="b" cx="158.692" cy="42.277" rx="17.442" ry="6.973"/><path class="a" d="M94.83,68.695c0,4.415,7.809,7.994,17.442,7.994s17.442-3.579,17.442-7.994V58.05H94.83Z"/><path class="b" d="M102.4,62.04c-4.57-1.258-7.567-3.363-7.567-5.749,0-3.851,7.809-6.973,17.442-6.973s17.442,3.122,17.442,6.973-7.809,6.973-17.442,6.973"/></svg>