<svg xmlns="http://www.w3.org/2000/svg" viewBox="0 0 449 270"><defs><style>.a{fill:#ffdd15;}.b{fill:#f91d00;}</style></defs><title>HowPainWorks</title><path class="a" d="M24.352,158.044l31.78-11.359L104.465,232,74.1,242.849l-9.71-16.918-24.718,8.835L35.4,256.682,2.766,268.345Zm33.026,46.5L45.547,183.92l-5.261,26.731Z"/><path class="a" d="M118.736,218.133q-15.144-4.94-21.154-21.749a59.506,59.506,0,0,1-2.818-11.895q-3.489-25.354,7.27-42.5t38.158-26.94a75.823,75.823,0,0,1,28.888-4.75l3.79,28.434a54.633,54.633,0,0,0-12.91-.244,62.2,62.2,0,0,0-13.969,3.479q-11.726,4.191-16.828,11.75T125.7,173.432a49.257,49.257,0,0,0,1.838,8.263q2.526,7.065,8.245,8.363t16.6-2.587a75.643,75.643,0,0,0,25.293-15.252l3.841,28.574A97.5,97.5,0,0,1,153.94,215.9Q133.881,223.074,118.736,218.133Z"/><path class="a" d="M213.236,190.251a31.852,31.852,0,0,1-16.818-6.494,32.194,32.194,0,0,1-10.451-14.981,51.153,51.153,0,0,1-2.092-8.97l-7.611-56.059,30.369-10.854,7.56,55.918A37.042,37.042,0,0,0,215.607,155q1.666,4.662,5.082,5.751t9.49-1.083q7.343-2.624,10.089-7.428t1.611-13.319L234.317,83l30.37-10.855,8.116,59.7q2.6,19.3-7.579,33.612T233.858,187.34A47.068,47.068,0,0,1,213.236,190.251Z"/><path class="a" d="M294.773,86.4l-24.294,8.684L267.213,71.24l79.1-28.272,3.265,23.843-24.437,8.734,10.039,73.988-30.368,10.854Z"/><path class="a" d="M349.166,41.948l70.766-25.293L423.3,40.78,382.9,55.219l1.6,12.491,35.172-12.571,3.427,24.74L387.925,92.45l1.546,12.35,40.4-14.439,3.366,24.125-70.765,25.293Z"/><path class="b" d="M39.352,143.044l31.78-11.359L119.465,217,89.1,227.849l-9.71-16.918-24.718,8.835L50.4,241.682,17.766,253.345Zm33.026,46.5L60.547,168.92l-5.261,26.731Z"/><path class="b" d="M133.736,203.133q-15.144-4.94-21.154-21.749a59.506,59.506,0,0,1-2.818-11.895q-3.489-25.354,7.27-42.5t38.158-26.94A75.823,75.823,0,0,1,184.08,95.3l3.79,28.434a54.633,54.633,0,0,0-12.91-.244,62.2,62.2,0,0,0-13.969,3.479q-11.726,4.191-16.828,11.75T140.7,158.432a49.257,49.257,0,0,0,1.838,8.263q2.526,7.065,8.245,8.363t16.6-2.587a75.643,75.643,0,0,0,25.293-15.252l3.841,28.574A97.5,97.5,0,0,1,168.94,200.9Q148.881,208.074,133.736,203.133Z"/><path class="b" d="M228.236,175.251a31.852,31.852,0,0,1-16.818-6.494,32.194,32.194,0,0,1-10.451-14.981,51.153,51.153,0,0,1-2.092-8.97l-7.611-56.059,30.369-10.854,7.56,55.918A37.042,37.042,0,0,0,230.607,140q1.666,4.662,5.082,5.751t9.49-1.083q7.343-2.624,10.089-7.428t1.611-13.319L249.317,68l30.37-10.855,8.116,59.7q2.6,19.3-7.579,33.612T248.858,172.34A47.068,47.068,0,0,1,228.236,175.251Z"/><path class="b" d="M309.773,71.4l-24.294,8.684L282.213,56.24l79.1-28.272,3.265,23.843-24.437,8.734,10.039,73.988-30.368,10.854Z"/><path class="b" d="M364.166,26.948,434.932,1.655,438.3,25.78,397.9,40.219l1.6,12.491,35.172-12.571,3.427,24.74L402.925,77.45l1.546,12.35,40.4-14.439,3.366,24.125-70.765,25.293Z"/></svg>