<svg xmlns="http://www.w3.org/2000/svg" viewBox="0 0 342 225"><defs><style>.a{fill:#ffdd15;}.b{fill:#f91d00;}</style></defs><title>HowPainWorks</title><path class="a" d="M1.668,126.624l47.319-16.913q13.983-5,24.12-.258t14.378,16.605a40.671,40.671,0,0,1,1.927,8.071q2.7,17.357-4.546,30.06T60.1,183.154l-18.08,6.463L45.339,213.6,14.97,224.454ZM49.7,160.272q5.648-2.017,7.585-5.738t1.2-9.349a21.6,21.6,0,0,0-.989-4.106q-2.474-6.919-10.385-4.094l-11.582,4.14,3.154,23.085Z"/><path class="a" d="M113.735,86.569l31.781-11.36,48.332,85.311L163.48,171.374l-9.71-16.919-24.719,8.835-4.273,21.917L92.149,196.869Zm33.026,46.5L134.93,112.444l-5.261,26.731Z"/><path class="a" d="M184.26,61.361l30.368-10.854,13.3,97.831-30.369,10.854Z"/><path class="a" d="M226.564,46.241,252.13,37.1l36.04,34.429-6.1-45.132,30.369-10.854,13.3,97.831L299.9,122.615,264.049,88.277l6.186,44.94-30.369,10.855Z"/><path class="b" d="M16.668,111.624,63.987,94.711q13.983-5,24.12-.258t14.378,16.605a40.671,40.671,0,0,1,1.927,8.071q2.7,17.356-4.546,30.06T75.1,168.154l-18.08,6.463L60.339,198.6,29.97,209.454ZM64.7,145.272q5.648-2.017,7.585-5.738t1.2-9.349a21.6,21.6,0,0,0-.989-4.106q-2.474-6.919-10.385-4.094l-11.582,4.14,3.154,23.085Z"/><path class="b" d="M128.735,71.569l31.781-11.36,48.332,85.311L178.48,156.374l-9.71-16.919-24.719,8.835-4.273,21.917-32.629,11.662Zm33.026,46.5L149.93,97.444l-5.261,26.731Z"/><path class="b" d="M199.26,46.361l30.368-10.854,13.3,97.831-30.369,10.854Z"/><path class="b" d="M241.564,31.241,267.13,22.1l36.04,34.429-6.1-45.132L327.444.546l13.3,97.831L314.9,107.615,279.049,73.277l6.186,44.94-30.369,10.855Z"/></svg>