<svg xmlns="http://www.w3.org/2000/svg" viewBox="0 0 353 313"><defs><style>.a{fill:#ffb839;}.b{fill:#d86600;}.c,.i{fill:none;stroke-width:5px;}.c,.e,.i{stroke:#000;}.c,.e{stroke-miterlimit:10;}.d{fill:#fff;}.f{fill:#ffee76;}.g{fill:red;}.h{fill:#c1c1c1;}.i{stroke-linejoin:round;}</style></defs><title>HowPainWorks</title><path class="a" d="M261.044,3.275c-74.077,2.147-80.954,13.715-81.537,23.3l-.043,30.862,4.153,1.931,0,9.516,4.905,1.169v.013l3.213,201.212s5.069,24.379,66.254,25.6c61.415,1.225,71.07-21.4,71.07-21.4l2.725-204.436,7.237-.819-.809-11.2,6.074-3.735-.89-35.575S335.122,1.128,261.044,3.275Z"/><path class="b" d="M190.153,23.859c.042,3.948,30.454,16.019,71.831,15.577s70.543-13.007,70.5-16.954S303.569,9.6,262.192,10.042,190.111,19.912,190.153,23.859Z"/><path class="c" d="M179.507,26.579l-.043,30.862,4.153,1.931,0,9.516,4.905,1.169s3.66,15.137,66.736,15.817c63.68.687,75.017-14.657,75.017-14.657l8.746-.989-.809-11.2,6.074-3.735-.89-35.575s-8.277-18.59-82.355-16.443S180.09,16.99,179.507,26.579Z"/><path class="c" d="M179.507,26.579c0,4.986,14.618,21.4,80.851,21.4s83.095-16.914,83.095-26.12"/><path class="c" d="M190.153,23.859c0,5.065,30.454,16.019,71.831,15.577s70.5-11.043,70.5-16.954S303.569,9.6,262.192,10.042,190.153,18.794,190.153,23.859Z"/><path class="c" d="M338.215,59.028s-80,35.6-154.6.344"/><path class="d" d="M258,278.853c25.878-.238,65.239-9.48,69.333-24.268.653-18.52,2.607-168.689,2.607-168.689s-10.791,10.847-71.92,11.426-67.847-16.468-67.847-16.468L193.308,257.7C204,267.069,223.138,279.174,258,278.853Z"/><path class="e" d="M197.672,192.109c.289.144.434.215.723.357-.144,1.326-.216,1.989-.359,3.315,1.485.72,2.238,1.074,3.76,1.765.2-1.291.3-1.937.493-3.229.291.134.437.2.73.332a48.312,48.312,0,0,0-.684,7.737c-.3-.134-.442-.2-.737-.337.046-1.517.07-2.276.116-3.793-1.519-.689-2.27-1.042-3.751-1.76l-.31,3.669-.735-.366C197.22,196.723,197.371,195.185,197.672,192.109Z"/><path class="e" d="M206.752,204.305l-.739-.309c0-1.409,0-2.114,0-3.523a54.529,54.529,0,0,1-2.038-5.4c.366.162.549.243.915.4.622,1.806.924,2.7,1.527,4.473,1.128-1.059,1.7-1.587,2.849-2.651.345.137.518.205.864.339a19.57,19.57,0,0,0-3.388,3.135Z"/><path class="e" d="M211.1,198.011c.968.368,1.454.547,2.427.894a5.4,5.4,0,0,1,1.332.709,4.994,4.994,0,0,1,1.124,1.11,4.444,4.444,0,0,1,.7,1.448,4.948,4.948,0,0,1,.064,1.715,4.624,4.624,0,0,1-.354,1.673,2.452,2.452,0,0,1-.905.979,2.538,2.538,0,0,1-1.244.348,3.758,3.758,0,0,1-1.37-.224c-.972-.346-1.457-.525-2.425-.893A33.1,33.1,0,0,1,211.1,198.011Zm.084,7.3c.59.22.886.328,1.478.54a3.175,3.175,0,0,0,1.444.219,1.964,1.964,0,0,0,1.022-.409,2.024,2.024,0,0,0,.611-.864,6.574,6.574,0,0,0,.2-2.343,3.438,3.438,0,0,0-.439-1.162,4.014,4.014,0,0,0-.9-1.028,4.646,4.646,0,0,0-1.4-.768c-.593-.213-.889-.321-1.479-.541A27.2,27.2,0,0,0,211.18,205.306Z"/><path class="e" d="M219.036,208.672c-.3-.088-.451-.133-.751-.224a41.346,41.346,0,0,1,.672-7.745c.871.265,1.307.393,2.181.641a5.407,5.407,0,0,1,1,.387,2.777,2.777,0,0,1,.76.56,1.946,1.946,0,0,1,.442.758,2.191,2.191,0,0,1,.053.977,1.7,1.7,0,0,1-.26.71,1.578,1.578,0,0,1-.494.476,1.708,1.708,0,0,1-.67.229,2.51,2.51,0,0,1-.777-.011c.845,1.781,1.26,2.662,2.073,4.4-.369-.093-.554-.141-.923-.238-.774-1.713-1.17-2.579-1.973-4.33-.512-.148-.767-.223-1.277-.377Zm.127-4.456c.531.16.8.238,1.329.392a2.5,2.5,0,0,0,1.481.073.98.98,0,0,0,.653-.858,1.382,1.382,0,0,0-.044-.658,1.356,1.356,0,0,0-.318-.513,2.07,2.07,0,0,0-.556-.393,4.323,4.323,0,0,0-.758-.29c-.54-.154-.809-.232-1.347-.392Z"/><path class="e" d="M232.313,207.765a4.282,4.282,0,0,1-.439,1.582,3.523,3.523,0,0,1-.938,1.145,3.331,3.331,0,0,1-1.315.625,3.641,3.641,0,0,1-1.577.006,4.206,4.206,0,0,1-1.533-.639,4.8,4.8,0,0,1-1.193-1.146,5.188,5.188,0,0,1-.763-1.515,4.565,4.565,0,0,1-.227-1.749,3.506,3.506,0,0,1,.524-1.5,3.38,3.38,0,0,1,1-1.046,3.545,3.545,0,0,1,1.356-.539,4.149,4.149,0,0,1,1.6.034,4.476,4.476,0,0,1,1.527.609,4.357,4.357,0,0,1,1.159,1.064,4.244,4.244,0,0,1,.695,1.412A4.507,4.507,0,0,1,232.313,207.765Zm-.826-.138a4.194,4.194,0,0,0-.075-1.308,3.517,3.517,0,0,0-.5-1.172,3.4,3.4,0,0,0-.91-.912,3.449,3.449,0,0,0-1.278-.529,3.165,3.165,0,0,0-1.341-.013,2.741,2.741,0,0,0-1.083.494,2.808,2.808,0,0,0-.762.9,2.7,2.7,0,0,0-.387,1.2,4.4,4.4,0,0,0,.152,1.372,4.091,4.091,0,0,0,.564,1.239,3.8,3.8,0,0,0,.943.967,3.3,3.3,0,0,0,1.285.553,2.829,2.829,0,0,0,1.324-.018,2.607,2.607,0,0,0,1.045-.551,2.824,2.824,0,0,0,.708-.963A3.666,3.666,0,0,0,231.487,207.627Z"/><path class="e" d="M240.17,211.378a3.263,3.263,0,0,1-.53.511,3.087,3.087,0,0,1-.688.4,3.563,3.563,0,0,1-.835.236,3.643,3.643,0,0,1-.972.016,4.054,4.054,0,0,1-1.57-.491,3.93,3.93,0,0,1-1.183-1.012,4.165,4.165,0,0,1-.71-1.4,4.445,4.445,0,0,1-.153-1.673A4.056,4.056,0,0,1,234,206.4a3.7,3.7,0,0,1,.97-1.149,3.817,3.817,0,0,1,1.349-.672,4.262,4.262,0,0,1,1.616-.117,4.107,4.107,0,0,1,.821.175,4.037,4.037,0,0,1,.742.323,3.323,3.323,0,0,1,.616.445,2.265,2.265,0,0,1,.442.551l-.7.418a1.983,1.983,0,0,0-.285-.4,2.26,2.26,0,0,0-.441-.371,3.1,3.1,0,0,0-.57-.286,2.718,2.718,0,0,0-.68-.16,3.277,3.277,0,0,0-1.365.115,2.971,2.971,0,0,0-1.075.6,3.1,3.1,0,0,0-.737.977,3.62,3.62,0,0,0-.348,1.242,3.769,3.769,0,0,0,.105,1.315,3.489,3.489,0,0,0,.534,1.157,3.073,3.073,0,0,0,2.23,1.286,2.95,2.95,0,0,0,1.286-.142,2.425,2.425,0,0,0,1.087-.774Z"/><path class="e" d="M249.44,209.313a4.515,4.515,0,0,1-.488,1.663,4.281,4.281,0,0,1-1,1.274,4.119,4.119,0,0,1-1.392.784,4.167,4.167,0,0,1-1.656.2,4.1,4.1,0,0,1-1.588-.432,3.771,3.771,0,0,1-1.93-2.3,4.472,4.472,0,0,1,.317-3.24,3.992,3.992,0,0,1,.975-1.208,4.089,4.089,0,0,1,1.368-.745,4.394,4.394,0,0,1,1.647-.195,4.34,4.34,0,0,1,1.6.4,3.871,3.871,0,0,1,1.226.9,3.626,3.626,0,0,1,.754,1.3A3.88,3.88,0,0,1,249.44,209.313Zm-.854-.026a3.34,3.34,0,0,0-.111-1.276,3,3,0,0,0-.553-1.087,2.968,2.968,0,0,0-.963-.778,3.278,3.278,0,0,0-1.334-.348,3.372,3.372,0,0,0-1.38.182,3.174,3.174,0,0,0-1.089.657,3.291,3.291,0,0,0-.742,1.019,3.767,3.767,0,0,0-.343,1.261,3.726,3.726,0,0,0,.093,1.3,3.083,3.083,0,0,0,.533,1.119,3,3,0,0,0,.947.811,3.161,3.161,0,0,0,1.328.374,3.239,3.239,0,0,0,1.387-.184,3.272,3.272,0,0,0,1.106-.683,3.442,3.442,0,0,0,.761-1.06A4.052,4.052,0,0,0,248.586,209.287Z"/><path class="e" d="M251.45,205.575c1.052.034,1.579.048,2.636.069a4.961,4.961,0,0,1,1.473.258,3.966,3.966,0,0,1,1.3.716,3.3,3.3,0,0,1,.892,1.175,3.189,3.189,0,0,1,.254,1.631,4.336,4.336,0,0,1-.578,1.825,4.47,4.47,0,0,1-2.564,2.036,4.672,4.672,0,0,1-1.521.209c-1.058-.037-1.586-.059-2.639-.11C251.043,210.167,251.192,208.605,251.45,205.575Zm.139,7.116c.643.026.964.037,1.609.058a4.032,4.032,0,0,0,1.6-.246,3.66,3.66,0,0,0,1.2-.743,3.586,3.586,0,0,0,.782-1.077,3.765,3.765,0,0,0,.36-1.255,2.817,2.817,0,0,0-.137-1.132,2.577,2.577,0,0,0-.588-.981,3.083,3.083,0,0,0-1.06-.7,4.212,4.212,0,0,0-1.551-.291c-.643-.012-.965-.02-1.607-.037C251.992,208.762,251.87,210.044,251.589,212.691Z"/><path class="e" d="M267.686,209.15a5.2,5.2,0,0,1-.528,1.821,5.335,5.335,0,0,1-1.046,1.461,4.882,4.882,0,0,1-1.438.985,4.311,4.311,0,0,1-1.7.378,3.732,3.732,0,0,1-1.625-.312,3.418,3.418,0,0,1-1.223-.916,3.665,3.665,0,0,1-.722-1.392,4.867,4.867,0,0,1-.12-1.764,4.308,4.308,0,0,1,.43-1.575,4.205,4.205,0,0,1,.967-1.248,4.6,4.6,0,0,1,1.383-.837,4.913,4.913,0,0,1,1.682-.333,4.52,4.52,0,0,1,1.644.241,3.62,3.62,0,0,1,1.277.759,3.187,3.187,0,0,1,.8,1.189A3.407,3.407,0,0,1,267.686,209.15Zm-.865.046a2.6,2.6,0,0,0-.149-1.222,2.637,2.637,0,0,0-.593-1,2.782,2.782,0,0,0-1.006-.665,3.437,3.437,0,0,0-1.375-.218,3.78,3.78,0,0,0-1.408.3,3.568,3.568,0,0,0-1.1.729,3.451,3.451,0,0,0-.731,1.045,3.846,3.846,0,0,0-.314,1.245,4.11,4.11,0,0,0,.069,1.4,3.008,3.008,0,0,0,.527,1.159,2.674,2.674,0,0,0,.96.787,2.868,2.868,0,0,0,1.357.276,3.376,3.376,0,0,0,1.427-.336,3.909,3.909,0,0,0,1.145-.845,4.337,4.337,0,0,0,.8-1.211A4.89,4.89,0,0,0,266.821,209.2Z"/><path class="e" d="M274.735,211.647l.023,0c.323-2.868.417-4.149.6-6.688l.817-.071c-.215,2.988-.363,4.572-.738,7.922-.408.044-.612.065-1.02.106a68.774,68.774,0,0,0-4.011-6.568l-.023,0c-.164,2.548-.326,4-.667,6.952-.327.022-.49.032-.818.051.4-3.432.544-5.03.734-7.991l1.023-.06A64.234,64.234,0,0,1,274.735,211.647Z"/><path class="e" d="M278.454,211.715c1.709-.215,2.561-.336,4.257-.608l-.068.695c-2.025.349-3.043.5-5.082.756.359-3.292.508-4.866.741-7.873,1.989-.2,2.982-.309,4.96-.556l-.068.694c-1.647.2-2.474.293-4.132.461-.083,1.035-.124,1.552-.207,2.587,1.534-.142,2.3-.219,3.817-.381-.027.277-.04.415-.067.695-1.516.163-2.279.24-3.812.382C278.658,209.826,278.59,210.456,278.454,211.715Z"/><path class="f" d="M196.7,123.454l-.142,13.1s12.959,8.487,34.188,11.774,44.8,1.523,44.8,1.523l-.3-11.858s-22.621,2.767-42.968-1.157C204.246,131.43,196.7,123.454,196.7,123.454Z"/><path class="f" d="M196.882,219.784l-.436,10.761s24.583,16.411,53.644,17.023,45.254-1.464,71.09-13.623a77.491,77.491,0,0,1-.223-11.273S294.612,240.416,251,236.837C213.5,233.76,196.882,219.784,196.882,219.784Z"/><path d="M208.315,111.743c.633-.942-.761-2.034-1.4-1.087-.927,1.378-1.911,2.709-2.937,4.006q-2.07-4.575-3.956-9.233a4.477,4.477,0,0,0,3.028-3.95,4.559,4.559,0,0,0-3.775-4.54.816.816,0,0,0-.491.043c-.338-.713-1.593-.751-1.669.208a89.951,89.951,0,0,0,.084,15.229c.1,1.136,1.859.914,1.756-.22q-.249-2.751-.324-5.5,1.948,4.785,4.1,9.482c-.9,1.065-1.816,2.11-2.782,3.117-.789.823.615,1.9,1.4,1.087.756-.789,1.484-1.6,2.2-2.423q1.095,2.348,2.237,4.673c.5,1.016,2.14.347,1.635-.68-.9-1.819-1.76-3.651-2.61-5.491Q206.662,114.188,208.315,111.743ZM198.79,98.611a.983.983,0,0,0,.233.081,2.627,2.627,0,0,1-.013,5.173.923.923,0,0,0-.405.007Q198.619,101.244,198.79,98.611Z"/><path class="g" d="M217.19,109.434a.881.881,0,0,0-.7.669.84.84,0,0,0-1.326.591c-.339,3.534-.5,7.07-.51,10.621,0,1.136,1.754.905,1.757-.221,0-1.29.037-2.579.088-3.867a.869.869,0,0,0,.138.06,4.334,4.334,0,0,0,5.577-3.122A4.264,4.264,0,0,0,217.19,109.434Zm3.261,4.5a2.545,2.545,0,0,1-3.116,1.724.887.887,0,0,0-.772.094q.123-2.307.339-4.61a.8.8,0,0,0,.508.048C218.974,110.866,220.9,112.175,220.451,113.935Z"/><path class="g" d="M228.789,116.176a3.362,3.362,0,0,0-2.832-.346,2.528,2.528,0,0,0-1.03.753c.04-1.291.1-2.583.215-3.875.1-1.132-1.654-1.391-1.752-.254a73.2,73.2,0,0,0-.146,10.555c.066,1.138,1.822.913,1.757-.22-.061-1.045-.09-2.089-.1-3.131.955-.683,1.147-2.453,2.441-2.182,2.341.492,1.441,3.621.965,5.138-.339,1.079,1.287,1.783,1.628.7C230.675,120.941,231.383,117.688,228.789,116.176Z"/><path class="g" d="M240.627,119.982a3.8,3.8,0,0,0-1.75-2.548,4.226,4.226,0,0,0-5.558,1.038c-.66.927.736,2.017,1.4,1.086a2.375,2.375,0,0,1,4.108.491,5.437,5.437,0,0,1,.23,1.043,4.815,4.815,0,0,0-4.043-.408,3.546,3.546,0,0,0-2.178,3.19,2.9,2.9,0,0,0,2.46,2.793,5.457,5.457,0,0,0,4.322-1.458,4.094,4.094,0,0,0,.264.495c.61.962,2.014-.119,1.406-1.076C240.432,123.283,240.947,121.476,240.627,119.982Zm-4.149,4.947c-.775.139-1.825-.1-1.873-1.039-.12-2.352,3-1.7,4.151-.949a.911.911,0,0,0,.41.147c0,.076.009.153.014.229a1,1,0,0,0-.137.089A6.146,6.146,0,0,1,236.478,124.929Z"/><path class="g" d="M248.242,118.631a4.391,4.391,0,0,0-3.306,1.307c-.057-.229-.116-.458-.183-.687-.319-1.091-1.953-.406-1.636.679a14.173,14.173,0,0,1,.443,5.793.886.886,0,0,0,1.752.255,16.129,16.129,0,0,0,.071-3.391.794.794,0,0,0,.236-.376,2.461,2.461,0,0,1,2.368-1.827C249.116,120.425,249.379,118.673,248.242,118.631Z"/><path class="g" d="M260.068,119.01a3.041,3.041,0,0,0-2.577,1.094,3.045,3.045,0,0,0-1.765-1.665,3.619,3.619,0,0,0-3.366.417.87.87,0,0,0-1.5.464l-.729,6.816c-.121,1.131,1.632,1.389,1.753.254q.262-2.453.524-4.906a.864.864,0,0,0,.272-.349c.888-2.021,3.108-1.121,3.491.723a7.742,7.742,0,0,1,.08,1.915,14.418,14.418,0,0,0-.044,1.531c.036,1.142,1.783.908,1.756-.22-.008-.276-.008-.566,0-.864.024-1.3.24-3.185,1.5-3.368a2.693,2.693,0,0,1,2.373,1.45,7.8,7.8,0,0,1,.269,3.43c-.064,1.13,1.688,1.392,1.753.254C264,123.325,263.618,119.135,260.068,119.01Z"/><path class="g" d="M272.415,119.248a4.058,4.058,0,0,0-5.858,1.116c-.625.946.769,2.039,1.4,1.086,1.36-2.06,3.727-1.239,4.228.792-2.37-.775-6.519-.263-6.784,2.887-.291,3.463,5.034,2.453,6.814,1.7a.9.9,0,0,0,.291-.2,3.916,3.916,0,0,0,.293.7c.541.987,2.184.322,1.635-.679C273.11,124.236,275.009,121.235,272.415,119.248Zm-.881,5.942c-.655.278-4.642,1.435-4.308-.165.346-1.656,3.266-1.512,4.379-1.119a.862.862,0,0,0,.677-.027c-.011.455-.027.9-.01,1.341A.8.8,0,0,0,271.534,125.19Z"/><path class="g" d="M282.223,124.926a2.8,2.8,0,0,1-4.834-2.553,2.775,2.775,0,0,1,2.827-1.944c1.231.04,2.047,1.114,3.276,1.173,1.13.054,1.392-1.7.255-1.753-1-.048-1.842-.964-2.877-1.135a4.858,4.858,0,0,0-2.683.336,4.421,4.421,0,0,0-2.655,4.4,4.584,4.584,0,0,0,8.089,2.566C284.379,125.158,282.977,124.076,282.223,124.926Z"/><path class="g" d="M291.5,117.345a25.8,25.8,0,0,1-1.527,7.5.828.828,0,0,0-.133-.764l-4.231-5.832c-.67-.922-2.076.153-1.406,1.077l4.232,5.831a.865.865,0,0,0,1.489-.191c-.974,2.349-2.5,4.138-4.846,3.723-1.124-.2-1.375,1.555-.254,1.753,6.27,1.109,8.185-8.431,8.428-12.842C293.313,116.469,291.561,116.207,291.5,117.345Z"/><path class="c" d="M331.269,84.284S317.611,97.342,261.3,97.342,188.748,81.33,188.748,81.33"/><path class="c" d="M329.412,250.5c0,16.094-30.645,27.855-66.594,27.938s-61.542-10.439-70.866-24.426"/><path class="c" d="M188.525,70.057l3.213,201.225s5.069,24.379,66.254,25.6c61.415,1.225,71.07-21.4,71.07-21.4L331.92,71.047"/><path class="a" d="M168.376,236.74l-3.462-36.951q-.022-.337-.064-.673c-1.783-14.23-40.122-25.9-84.919-22.664-43.561,3.146-77.2,19.8-74.652,35.526,0,0-.069,13.688.523,32.647-12.948,24.819,17.36,43.5,75.483,42.285,56.949-1.19,71.473-14.527,82.927-26.452C176.5,247.664,168.376,236.74,168.376,236.74Z"/><path class="c" d="M5.279,211.978C7.92,228.3,53.524,241.023,96.86,235.592s69.774-22.246,67.99-36.476-40.122-25.9-84.919-22.664C36.37,179.6,2.735,196.248,5.279,211.978Z"/><path class="c" d="M164.85,199.116l3.526,37.624s9.351,9.172-.575,21.142c-10.555,12.728-29.567,27.838-86.516,29.028C23.162,288.124-7.146,269.444,5.8,244.625c-.592-18.959-.523-32.647-.523-32.647"/><path class="c" d="M5.8,244.625s-.1,36.978,88.75,30.557c18.562-1.341,67.355-11.759,73.568-38.113"/><path class="h" d="M181.193,258.329c11.492-3.224,21.88,4.648,25.362,8.248s12.195,6.673,9.493,27.828-30.57,6.913-36.087,1.549C174.543,290.686,163,263.434,181.193,258.329Z"/><path class="d" d="M172.558,265.359c2.053,11.638,27.9,37.543,43.559,15.358,0,0-2.176-11.348-14.561-18.26S177.386,256.427,172.558,265.359Z"/><path class="c" d="M172.558,265.359c2.053,11.638,36.984,37.9,42.979,13.156"/><path class="c" d="M181.193,258.329c11.492-3.224,21.88,4.648,25.362,8.248s12.195,6.673,9.493,27.828-29.958,6.2-36.087,1.549c-5.356-4.066-9.893-8.744-10.963-15.71C167.7,271.811,171.231,261.125,181.193,258.329Z"/><path class="h" d="M300.956,283.764c-3.558,6.482-1.167,17.5.812,20.715,3.736,6.074,21.883,12.2,39.526-7.333,15.147-16.768,6.579-28.184,5.626-31.038S321.294,246.718,300.956,283.764Z"/><path class="d" d="M299.567,286.912s12.958,14.76,30.375,1.872c10.4-7.7,15.371-11.769,12.365-26.262a24.118,24.118,0,0,0-28.374,5.833C301.731,281.346,299.567,286.912,299.567,286.912Z"/><path class="c" d="M304.6,277.614c-8.511,11.694,7.651,23.275,24.382,11.571,10.605-7.419,21.209-19.7,13.324-26.663"/><path class="c" d="M300.956,283.764c-3.558,6.482-1.828,15.7,1.517,20.01,4.375,5.631,21.178,12.9,38.821-6.628,15.147-16.768,7.144-29.78,3.183-32.961C339.516,260.2,321.294,246.718,300.956,283.764Z"/><path class="h" d="M144.742,266.466c16.966,3.666,25.989,8.044,28.992,13.02l-.8,17.349c-6.367,6.151-15.515,9.082-40.624,3.307-13.279-3.053-21.068-5.914-24.673-11.777-.442-8.271-.957-17.128-.957-17.128S109.9,258.938,144.742,266.466Z"/><path class="d" d="M106.68,271.237s3.217-12.3,38.062-4.771c16.966,3.666,25.989,8.044,28.992,13.02,0,0-10.464,11.423-38.062,4.771S106.68,271.237,106.68,271.237Z"/><path class="i" d="M144.742,266.466c16.966,3.666,25.989,8.044,28.992,13.02l-.8,17.349c-6.367,6.151-15.515,11.3-40.624,5.526-13.279-3.053-21.068-8.133-24.673-14-.442-8.271-.957-17.128-.957-17.128S109.9,258.938,144.742,266.466Z"/><path class="c" d="M107.938,269.191c-4.608,9.669,49.99,26.551,65.8,10.3"/></svg>