<svg xmlns="http://www.w3.org/2000/svg" viewBox="0 0 146 326"><defs><style>.a{fill:#eaeaea;}.b{fill:#999;}.c{fill:#fff;}.d{fill:none;stroke:#000;stroke-miterlimit:10;stroke-width:5px;}.e{fill:#545454;}.f{fill:#8e8e8e;}.g{fill:#2d2d2d;}.h{fill:#4d7cff;}</style></defs><title>HowPainWorks</title><path class="a" d="M28.4,90.5s2.887,9.623-9.623,19.246S3.858,145.837,3.858,152.573V278.635s8.179,43.784,70.729,43.784,68.323-36.086,68.323-46.671V152.092s.963-34.643-18.283-46.672c-5.293-2.887-6.737-8.179-6.255-15.878s0-16.84,0-16.84H27.915Z"/><path class="b" d="M32.783,124.266C22.814,131.6,20.8,145.065,20.8,149.959c0,1.2-8.981,10.054-8.981,22.72,0,6.7,3.989,14.46,3.989,22.723,0,7.314-5.089,15.019-5.089,22.723s.32,15.415.32,22.728c0,8.27,6.478,16.036,6.478,22.728,0,13.564-3.993,11.63-2.744,22.919,1.3,11.716,5.231,8.414,16.345,17.259,5.009,3.987,11.454,5.919,20.737,8.3A85.462,85.462,0,0,0,74.367,315.1c9.526,0,18.317,5.861,24.888,4.327,9.994-2.333,20.462-4.83,25.2-9.018,8.838-7.822.841-22.134.841-26.209,0-1.83,6.8-10.412,6.8-22.428,0-6.62,2.1-14.282,2.1-22.432,0-7.223-5.136-14.829-5.136-22.432s7.064-15.218,7.064-22.436c0-8.166.579-15.832.579-22.437,0-13.391-3.057-11.154-2.877-22.364.156-9.69-8.933-7.612-12.412-17.018-2.15-5.816-.872-12.211-6.876-15.55-18.264-8.6.936-20.6-11.777-28.719-11.508-7.346-15.918,3.309-29.571,3.309s-15.75-7.275-26.067,1.668C32.949,105.642,53.315,109.155,32.783,124.266Z"/><path class="c" d="M143.152,278.414S127.273,314,76.752,314s-62.55-23.576-66.88-29.35c-1.707-1.707-1.143-107.874,1.02-133.208a5.1,5.1,0,0,1,7.737-3.905c6.717,4.073,19.658,12.976,58.6,12.976,55.814,0,63.679-26.1,63.679-26.1s2.239,5.41,2.239,17.92S143.472,278.094,143.152,278.414Z"/><path class="d" d="M142.288,131.825s-9.241,28.687-65.055,28.687c-38.506,0-51.591-8.7-58.374-12.836a5.23,5.23,0,0,0-7.942,4.095c-1.791,25.169-1.045,125-1.045,127.878,0,7.933,16.359,34.35,66.88,34.35s66.158-36.605,66.158-41.251"/><path class="d" d="M28.4,90.5s2.887,9.623-9.623,19.246S3.858,136.639,3.858,152.573V275.635c0,14.226,8.179,46.784,70.729,46.784s68.323-39.086,68.323-49.671V152.092c0-21.347.963-34.643-18.283-46.672-5.293-2.887-6.737-8.179-6.255-15.878s0-16.84,0-16.84H27.915Z"/><path class="e" d="M136.9,27.714V72.942c0,13.47-28.435,24.389-63.512,24.389S9.872,86.412,9.872,72.942V27.714S136.74,27.558,136.9,27.714Z"/><ellipse class="f" cx="73.384" cy="27.714" rx="63.512" ry="24.389"/><ellipse class="g" cx="73.384" cy="22.421" rx="23.095" ry="8.869"/><ellipse class="d" cx="73.384" cy="27.714" rx="63.512" ry="24.389"/><ellipse class="d" cx="73.384" cy="22.421" rx="23.095" ry="8.869"/><path class="d" d="M9.872,27.714V72.942c0,13.47,28.435,24.389,63.512,24.389S136.9,86.412,136.9,72.942V27.714"/><path class="h" d="M22.382,158.955v128.1c8.76,10.8,33.42,19.835,59.182,18.348V169.578S45.233,171.644,22.382,158.955Z"/><path class="c" d="M44.023,274.813a67.9,67.9,0,0,1-11.945-5.253v.075a98.138,98.138,0,0,0,11.945,9.81v3.043a61.975,61.975,0,0,1-11.936-.8v.075a67.31,67.31,0,0,0,11.936,5.25v4.1a64.726,64.726,0,0,1-16.435-8.144c0-2.434,0-3.646,0-6.065A52.681,52.681,0,0,0,37.8,278.376v-.1a87.32,87.32,0,0,1-10.22-9.288c0-2.441,0-3.659,0-6.089a63.918,63.918,0,0,0,16.44,7.67Z"/><path class="c" d="M37.856,251.69a10.165,10.165,0,0,1,2.676,1.554,10.713,10.713,0,0,1,2.077,2.216,10.577,10.577,0,0,1,1.338,2.644,8.815,8.815,0,0,1,.479,2.843,6.372,6.372,0,0,1-.479,2.527,4.237,4.237,0,0,1-1.336,1.763,3.869,3.869,0,0,1-2.073.742,5.783,5.783,0,0,1-2.673-.516,8.64,8.64,0,0,1-2.595-1.69,10.84,10.84,0,0,1-1.911-2.389,11.471,11.471,0,0,1-1.178-2.767,10.554,10.554,0,0,1-.4-2.832,6.638,6.638,0,0,1,.4-2.43,3.511,3.511,0,0,1,1.174-1.593,3.358,3.358,0,0,1,1.909-.609A6.5,6.5,0,0,1,37.856,251.69Zm0,3.928a3.5,3.5,0,0,0-1.117-.261,1.951,1.951,0,0,0-.953.162,1.517,1.517,0,0,0-.663.622,2.223,2.223,0,0,0-.255,1.147,3.811,3.811,0,0,0,.257,1.381,4.958,4.958,0,0,0,.665,1.205,5.117,5.117,0,0,0,.953.964,4.864,4.864,0,0,0,1.118.657,3.465,3.465,0,0,0,1.13.27A2.118,2.118,0,0,0,40,261.592a1.593,1.593,0,0,0,.72-.656,2.273,2.273,0,0,0,.27-1.178,3.519,3.519,0,0,0-.271-1.374A4.621,4.621,0,0,0,40,257.193a5.539,5.539,0,0,0-1.008-.943A5.326,5.326,0,0,0,37.858,255.618Z"/><path class="c" d="M35.2,240.046a2.656,2.656,0,0,0-.092.491q-.024.249-.024.5a3.862,3.862,0,0,0,.281,1.487,4.8,4.8,0,0,0,.677,1.17,4.379,4.379,0,0,0,.871.834,3.9,3.9,0,0,0,.831.473c2.442.939,3.7,1.365,6.275,2.134v4.115A67.34,67.34,0,0,1,32.14,246.6l0-3.877c.645.311.972.463,1.631.76v-.049a7.148,7.148,0,0,1-1.417-1.982,5.092,5.092,0,0,1-.542-2.245,4.652,4.652,0,0,1,.021-.467,1.553,1.553,0,0,1,.067-.347C33.192,239.083,33.854,239.413,35.2,240.046Z"/><path class="c" d="M37.837,225.555a11.04,11.04,0,0,1,2.425,1.193,10.341,10.341,0,0,1,2.092,1.786,8.712,8.712,0,0,1,1.467,2.275,6.49,6.49,0,0,1,.555,2.657,4.4,4.4,0,0,1-.466,2.052,2.557,2.557,0,0,1-1.268,1.235v.049c2.947.881,4.467,1.265,7.556,1.928l-.005,4.151a72.308,72.308,0,0,1-18.074-6c0-1.529,0-2.293,0-3.822.546.253.822.376,1.379.619v-.074a8.637,8.637,0,0,1-1.189-2.086,6.651,6.651,0,0,1-.5-2.568,4.551,4.551,0,0,1,.467-2.188,2.926,2.926,0,0,1,1.288-1.271,4.146,4.146,0,0,1,1.927-.387A7.562,7.562,0,0,1,37.837,225.555Zm0,3.94a3.7,3.7,0,0,0-1.119-.219,2.011,2.011,0,0,0-.954.183,1.55,1.55,0,0,0-.664.639,2.276,2.276,0,0,0-.255,1.154,3.6,3.6,0,0,0,.257,1.335,4.965,4.965,0,0,0,.677,1.2,5.178,5.178,0,0,0,.967.967,4.206,4.206,0,0,0,1.119.627,3.023,3.023,0,0,0,1.132.191,2.2,2.2,0,0,0,1-.258,1.833,1.833,0,0,0,.71-.7,2.254,2.254,0,0,0,.27-1.159,3.429,3.429,0,0,0-.271-1.357,4.238,4.238,0,0,0-.712-1.136,5,5,0,0,0-1.011-.88A5.159,5.159,0,0,0,37.84,229.5Z"/><path class="c" d="M44.023,216.625c-2.734-.673-4.07-1.053-6.648-1.906a6.927,6.927,0,0,0-.95-.247,1.835,1.835,0,0,0-.788.007.927.927,0,0,0-.535.361,1.379,1.379,0,0,0-.2.815,2.811,2.811,0,0,0,.712,1.892,4.021,4.021,0,0,0,1.785,1.2c2.568.868,3.9,1.256,6.621,1.945V224.8c-7.645-1.989-11.277-3.323-17.438-6.789v-3.97a51.479,51.479,0,0,0,6.941,3.273v-.049a6.454,6.454,0,0,1-1.211-1.823,5.621,5.621,0,0,1-.527-2.405,3.812,3.812,0,0,1,.4-1.93,2.23,2.23,0,0,1,1.047-.955,3.084,3.084,0,0,1,1.5-.2,7.525,7.525,0,0,1,1.731.371,72.959,72.959,0,0,0,7.554,2.156Z"/><path class="c" d="M28.635,199.781a2.8,2.8,0,0,1,.755.531,3.953,3.953,0,0,1,1.026,1.679,3.312,3.312,0,0,1,.153.961,1.588,1.588,0,0,1-.576,1.391,1.269,1.269,0,0,1-1.356.034,2.66,2.66,0,0,1-.724-.523,3.472,3.472,0,0,1-.591-.783,4.858,4.858,0,0,1-.4-.936,3.292,3.292,0,0,1-.153-.98,2.161,2.161,0,0,1,.142-.815,1.211,1.211,0,0,1,.389-.534,1.05,1.05,0,0,1,.591-.2A1.583,1.583,0,0,1,28.635,199.781Zm15.388,9.537A67.952,67.952,0,0,1,32.094,205.6c0-1.614,0-2.422,0-4.038a68.06,68.06,0,0,0,11.932,3.63Z"/><path class="c" d="M44.023,193.677c-2.764-.581-4.113-.914-6.712-1.672a5.583,5.583,0,0,0-.951-.2,2.134,2.134,0,0,0-.788.042.909.909,0,0,0-.536.387,1.522,1.522,0,0,0-.2.844,2.664,2.664,0,0,0,.2,1.023,2.989,2.989,0,0,0,.549.864,3.683,3.683,0,0,0,.812.668,4.093,4.093,0,0,0,.963.43c2.581.768,3.92,1.106,6.662,1.7v4.158a68.206,68.206,0,0,1-11.934-3.564c0-1.57,0-2.355,0-3.928.617.236.929.351,1.56.575v-.05a6.11,6.11,0,0,1-.717-.841,5.58,5.58,0,0,1-.6-1.063,7.892,7.892,0,0,1-.4-1.2,5.313,5.313,0,0,1-.156-1.273,4,4,0,0,1,.4-1.957,2.362,2.362,0,0,1,1.046-1.027,3.1,3.1,0,0,1,1.5-.267,7.24,7.24,0,0,1,1.732.3,75.13,75.13,0,0,0,7.572,1.883Z"/><path class="c" d="M37.992,172.484l.483.122c.162.041.316.087.463.14,0,3.664,0,5.49,0,9.132a1.753,1.753,0,0,0,.928-.084,1.891,1.891,0,0,0,.727-.51,2.478,2.478,0,0,0,.483-.825,3.037,3.037,0,0,0,.173-1.037,4.09,4.09,0,0,0-.36-1.754,4.64,4.64,0,0,0-.927-1.328l1.784-2.5a8.033,8.033,0,0,1,1.98,2.754,8.717,8.717,0,0,1,.7,3.53,7.361,7.361,0,0,1-.447,2.607,4.966,4.966,0,0,1-1.29,1.953,4.306,4.306,0,0,1-2.058,1.026,5.816,5.816,0,0,1-2.732-.157,7.549,7.549,0,0,1-2.619-1.29,8.663,8.663,0,0,1-1.937-2.054,9.684,9.684,0,0,1-1.633-5.347,6.267,6.267,0,0,1,.41-2.385,3.524,3.524,0,0,1,1.2-1.578,4.013,4.013,0,0,1,1.957-.692A7.736,7.736,0,0,1,37.992,172.484Zm-1.5,3.416a1.86,1.86,0,0,0-1.571.158,1.818,1.818,0,0,0-.647,1.647,3.93,3.93,0,0,0,.174,1.16,4.226,4.226,0,0,0,.476,1.027,3.7,3.7,0,0,0,.712.819,2.664,2.664,0,0,0,.86.5C36.492,179.093,36.491,178.03,36.489,175.9Z"/><path class="h" d="M100.811,281.3a5.56,5.56,0,0,1,2.655-.095,3.591,3.591,0,0,1,1.806,1.045,4.841,4.841,0,0,1,1.05,1.9,8.333,8.333,0,0,1,.341,2.456,10.5,10.5,0,0,1-.291,2.421,10.769,10.769,0,0,1-.815,2.274,8.916,8.916,0,0,1-1.31,1.963,7.245,7.245,0,0,1-1.775,1.475c-.437-1.433-.656-2.154-1.1-3.6a4.05,4.05,0,0,0,1.452-1.45,3.845,3.845,0,0,0,.572-2.012,2.4,2.4,0,0,0-.6-1.736,1.766,1.766,0,0,0-1.823-.333,2.9,2.9,0,0,0-1.253.632,3.592,3.592,0,0,0-.818,1.045,4.527,4.527,0,0,0-.435,1.289,7.754,7.754,0,0,0-.13,1.363,12.776,12.776,0,0,0,.193,2.177,11.259,11.259,0,0,0,.535,2.093,71.635,71.635,0,0,1-10.208,1.252c.033-4.484.05-6.733.083-11.239,1.494-.152,2.235-.241,3.7-.447-.021,2.955-.032,4.43-.053,7.374,1.14-.1,1.7-.163,2.825-.3a5.354,5.354,0,0,1-.131-.891c-.024-.331-.033-.633-.031-.909a9.973,9.973,0,0,1,.367-2.643,7.6,7.6,0,0,1,1.071-2.3,7.114,7.114,0,0,1,1.744-1.752A6.791,6.791,0,0,1,100.811,281.3Z"/><path class="h" d="M106.325,260.106c-2.432.725-3.7,1.046-6.311,1.6a7.131,7.131,0,0,0-.977.281,2.874,2.874,0,0,0-.816.447,2.143,2.143,0,0,0-.554.664,2.035,2.035,0,0,0-.214.964,1.728,1.728,0,0,0,.214.91,1.556,1.556,0,0,0,.583.565,1.986,1.986,0,0,0,.836.236,3.456,3.456,0,0,0,.977-.075c2.583-.559,3.839-.882,6.248-1.611-.005,1.695-.008,2.542-.014,4.234a65.767,65.767,0,0,1-6.62,1.715,3.492,3.492,0,0,0-1.655.779,1.976,1.976,0,0,0-.623,1.521,1.472,1.472,0,0,0,.75,1.423,2.6,2.6,0,0,0,1.841.171,64.608,64.608,0,0,0,6.293-1.669c0,1.7-.008,2.546-.014,4.24a67.747,67.747,0,0,1-11.925,2.768c.012-1.651.018-2.477.029-4.13.695-.108,1.04-.165,1.726-.284v-.052a3.405,3.405,0,0,1-.769-.453,2.878,2.878,0,0,1-.657-.738,4.067,4.067,0,0,1-.458-1.033,4.544,4.544,0,0,1-.166-1.314,5.307,5.307,0,0,1,.569-2.468,5.035,5.035,0,0,1,1.583-1.78,3.749,3.749,0,0,1-1.535-1.417,4.437,4.437,0,0,1-.561-2.391,5.139,5.139,0,0,1,1.689-3.94,6.327,6.327,0,0,1,1.636-1.077,7.952,7.952,0,0,1,1.742-.581,69.744,69.744,0,0,0,7.168-1.757C106.334,257.557,106.331,258.407,106.325,260.106Z"/><path class="h" d="M105.351,239.2a6.777,6.777,0,0,1,2.79-.246,3.374,3.374,0,0,1,1.894.924,4.465,4.465,0,0,1,1.094,2.012,11.157,11.157,0,0,1,.357,2.983,17.63,17.63,0,0,1-.411,3.649,14.571,14.571,0,0,1-1.212,3.544c-.986-.5-1.489-.764-2.513-1.3a9.168,9.168,0,0,0,1.038-2.383,8.9,8.9,0,0,0,.338-2.323,3.057,3.057,0,0,0-.812-2.507,2.413,2.413,0,0,0-2.222-.254c-.268.073-.4.109-.674.18v.078a2.843,2.843,0,0,1,1.07,1.322,5.4,5.4,0,0,1,.392,2.2,8.053,8.053,0,0,1-1.723,5.036,7.417,7.417,0,0,1-1.88,1.689,7.18,7.18,0,0,1-2.322.948,6.123,6.123,0,0,1-2.383.062,4.811,4.811,0,0,1-2.033-.855,4.669,4.669,0,0,1-1.419-1.721A5.561,5.561,0,0,1,94.2,249.7a6.568,6.568,0,0,1,.493-2.427,5.184,5.184,0,0,1,1.482-2.036v-.052c-.634.1-.953.153-1.594.248.011-1.623.016-2.435.028-4.06A81.867,81.867,0,0,0,105.351,239.2Zm-4.76,5.19a3.72,3.72,0,0,0-1.149.456,3.99,3.99,0,0,0-1.658,1.945,3.675,3.675,0,0,0-.253,1.352,2.912,2.912,0,0,0,.236,1.25,2.125,2.125,0,0,0,1.616,1.247,3.051,3.051,0,0,0,1.173-.033,3.623,3.623,0,0,0,1.137-.458,3.859,3.859,0,0,0,.951-.819,3.968,3.968,0,0,0,.654-1.108,3.687,3.687,0,0,0,.248-1.35,2.978,2.978,0,0,0-.236-1.258,2.2,2.2,0,0,0-.632-.839,2.087,2.087,0,0,0-.931-.413A2.945,2.945,0,0,0,100.591,244.386Z"/><path class="h" d="M107.549,234.114c-.324,1.268-.487,1.9-.816,3.17a146.319,146.319,0,0,1-18.815-4.757c.416-1.221.623-1.833,1.037-3.057A149.235,149.235,0,0,0,107.549,234.114Z"/><path class="h" d="M106.5,208.207c-2.365.59-3.609.86-6.182,1.343a6.79,6.79,0,0,0-.964.255,2.76,2.76,0,0,0-.806.429,2.091,2.091,0,0,0-.548.654,2.034,2.034,0,0,0-.211.96,1.753,1.753,0,0,0,.212.916,1.584,1.584,0,0,0,.576.579,1.985,1.985,0,0,0,.826.257,3.356,3.356,0,0,0,.963-.048c2.545-.486,3.776-.757,6.121-1.352l-.015,4.258c-2.481.64-3.786.93-6.487,1.442a3.289,3.289,0,0,0-1.634.741,1.956,1.956,0,0,0-.616,1.516,1.53,1.53,0,0,0,.741,1.451,2.569,2.569,0,0,0,1.817.224c2.562-.5,3.8-.779,6.166-1.4l-.015,4.292a87.4,87.4,0,0,1-11.739,2.367l.029-4.164c.69-.1,1.033-.152,1.713-.261v-.052a3.41,3.41,0,0,1-.762-.469,2.932,2.932,0,0,1-.653-.751,4.193,4.193,0,0,1-.454-1.046,4.641,4.641,0,0,1-.166-1.322,5.347,5.347,0,0,1,.566-2.473,4.936,4.936,0,0,1,1.57-1.766,3.841,3.841,0,0,1-1.523-1.44,4.531,4.531,0,0,1-.557-2.4,5.336,5.336,0,0,1,.477-2.3,5.223,5.223,0,0,1,1.2-1.624,6.1,6.1,0,0,1,1.621-1.05,7.523,7.523,0,0,1,1.722-.541c2.939-.523,4.354-.82,7.027-1.474C106.51,205.658,106.507,206.507,106.5,208.207Z"/><path class="h" d="M106.527,200.705a110.917,110.917,0,0,1-18.242,2.962c.012-1.743.019-2.614.031-4.354a114.844,114.844,0,0,0,18.226-2.916C106.536,198.119,106.533,198.98,106.527,200.705Z"/></svg>