<svg id="Layer_1" data-name="Layer 1" xmlns="http://www.w3.org/2000/svg" viewBox="0 0 19 17"><defs><style>.cls-1{fill:#7cd6b5;}</style></defs><title>HowPainWorksScene5</title><path class="cls-1" d="M7.176,16.077c1.7-.241,3.407-.7,4.969.637a2.054,2.054,0,0,1,1.545-3.6c-.279-1.723.987-4.148,3.036-3.152-1.251-1.625.359-3.492,1.931-4C18.58,4.717,16.175,3.642,15.2,3.237a9.435,9.435,0,0,0-2.75-.687,21.656,21.656,0,0,1-2.4.093A7.863,7.863,0,0,0,8.173,1.249c-.2-.1-2.229-.728-2.222-.695C6.89,5.265,5.9,11.174.764,12.856c-.306.1,2.376,2.488,2.683,2.639A6.551,6.551,0,0,0,7.176,16.077Z"/></svg>