<svg id="Layer_1" data-name="Layer 1" xmlns="http://www.w3.org/2000/svg" viewBox="0 0 450 721"><title>HowPainWorksScene5</title><path d="M447.931,374.255c-.9-6.432-8.223-8.547-12.6-9.811-26.576-7.674-42.305-32.792-55.344-58.792a425.894,425.894,0,0,1-27.5-68.77c-6.592-22.082-14.672-45.319-29.027-65.646a98.129,98.129,0,0,0-27.286-26.612c-10.4-6.6-21.5-8.577-32.165-9.17a59.814,59.814,0,0,0,5.782-4.771,81.751,81.751,0,0,0,16.4-20.909c14.135-26.871,10.349-61.132-9.207-83.318C259.562,6.688,225.3-3.147,200.616,4.529c-14.463,4.5-27.407,15.745-36.449,31.67-4.207,7.41-6.647,16.116-8.6,23.7-2.19,8.479-4.661,14.66-10.81,21.162l-.169.179c-3.088,3.265-6.932,7.327-5.872,12.546.829,4.08,4.634,7.2,10.44,8.571a39.541,39.541,0,0,0,12.086.941,69.887,69.887,0,0,0,25.109,30.4,48.852,48.852,0,0,0-16.365,4.743c-12.426,6.045-23.973,16.044-33.393,28.918-11.239,15.36-18.81,33.108-26.131,50.271-1.6,3.75-3.254,7.628-4.916,11.407A549.653,549.653,0,0,1,65.9,303.155C53.126,323.178,35.646,346.066,13.906,345.4c-3.885-.119-9.759-.305-11.6,4.612-.969,2.582-.146,5.638,2.258,8.382,5.218,5.96,10.176,6.029,14.68,5.289-.559.562-1.176,1.2-1.9,2C5.941,378.23,3.23,392.812,4.188,399.55c.516,3.623,3.377,7.523,7.666,7.614H12a7.205,7.205,0,0,0,2.793-.575,11.6,11.6,0,0,0,5.481,7.477,8.911,8.911,0,0,0,4.48,1.169,10.308,10.308,0,0,0,1.745-.153,8.246,8.246,0,0,0,4.176,3.41,7.377,7.377,0,0,0,2.648.487c2.238,0,4.652-.994,7.217-2.94a14.423,14.423,0,0,0,.443,1.517,8.268,8.268,0,0,0,8.069,5.742c3.954-.2,6.174-3.465,7.366-5.218,4.161-6.119,8.481-12.277,12.659-18.232,4.557-6.5,9.269-13.212,13.8-19.912,5.184-7.668,10.662-15.289,15.96-22.658,10.635-14.794,21.632-30.091,30.845-46.6a472.536,472.536,0,0,0,25.15-52.427c-.467,3.329-.94,6.536-1.509,9.694-.76,4.224-1.685,8.425-2.581,12.488a198.949,198.949,0,0,0-3.885,21.385c-3.484,32.058,3.858,70.575,17.485,92.124-8.188,56.433-26.221,206.429-28.857,255.392l-.633.01c-8.923.144-20.029.323-28.363,3.059-10.591,3.478-18.792,10.306-22.5,18.732-4.409,10.021-2.374,23.009,5.066,32.318,11.5,14.391,26.788,14.456,40.277,14.513,20.5.087,41.7.176,63.531-2.676a9.692,9.692,0,0,0,8.3-8.1c2.425-15.918,6.217-52.55,10.608-94.967,4.322-41.755,9.221-89.08,13.877-126.8,5.771-46.739,9.173-62.045,11-66.73,2.086,4.457,6.255,20.325,12.708,75.061,4.943,41.932,9.809,94.1,13.718,136.019,3.29,35.269,5.889,63.127,7.609,75.594a9.581,9.581,0,0,0,7.207,8.027,210.652,210.652,0,0,0,50.141,6.221,161.69,161.69,0,0,0,25.125-1.859c16.448-2.605,31.957-7.866,34.062-28.546,2.123-20.867-13.962-33.579-30.845-36.921-.631-.125-5.267-.935-10.068-1.578a70.37,70.37,0,0,0-8.045-.751c-4.059-29.681-7.873-67.833-11.9-108.159-5.032-50.326-10.234-102.357-16.783-147.943,14-18.568,14.373-58.362,6.564-85.169a315.78,315.78,0,0,1-7.99-36.64c9.37,27.816,21.992,55.3,33.625,80.634l.725,1.58c7.708,16.787,16.493,32.9,24.989,48.49,3.706,6.8,7.538,13.827,11.252,20.859,1.241,2.346,5.016,9.488,11.629,8.073a8.336,8.336,0,0,0,5.456-4.114,11.467,11.467,0,0,0,6.373,2.289,7.113,7.113,0,0,0,3.056-.672c2.512-1.179,4.111-3.736,4.644-7.279a9.6,9.6,0,0,0,5.929,2.44h.093a7.721,7.721,0,0,0,5.962-3.229,9.834,9.834,0,0,0,1.04-1.619,9.16,9.16,0,0,0,1.614.71,8.435,8.435,0,0,0,2.577.4,9.9,9.9,0,0,0,8.718-5.511c2.883-5.866,2.051-16.8-16.584-36.116a55.344,55.344,0,0,1,6.486,2.691c.546.256,1.087.509,1.622.753a23.53,23.53,0,0,0,9.588,2.519,13.524,13.524,0,0,0,2.566-.24C444.152,383.811,448.649,379.4,447.931,374.255Z"/></svg>