<svg xmlns="http://www.w3.org/2000/svg" viewBox="0 0 1000 550"><defs><style>.a{fill:#00a57a;}.b{fill:#008b5c;}</style></defs><title>HowPainWorks</title><path class="a" d="M1030.351,37.493v80a10,10,0,0,1-10,10h0a10,10,0,0,1-10-10v-21a10,10,0,0,0-10-10h0a10,10,0,0,0-10,10v52a10,10,0,0,1-10,10h0a10,10,0,0,1-10-10v-75a10,10,0,0,0-10-10h0a10,10,0,0,0-10,10v32a10,10,0,0,1-10,10h0a10,10,0,0,1-10-10v-42a10,10,0,0,0-10-10h0a10,10,0,0,0-10,10v93a10,10,0,0,1-10,10h0a10,10,0,0,1-10-10v-124a10,10,0,0,0-10-10h0a10,10,0,0,0-10,10v102a10,10,0,0,1-10,10h0a10,10,0,0,1-10-10v-38a10,10,0,0,0-10-10h0a10,10,0,0,0-10,10v52a10,10,0,0,1-10,10h0a10,10,0,0,1-10-10v-64a10,10,0,0,0-10-10h0a10,10,0,0,0-10,10v64a10,10,0,0,1-10,10h0a10,10,0,0,1-10-10v-88a10,10,0,0,0-10-10h0a10,10,0,0,0-10,10v57a10,10,0,0,1-10,10h0a10,10,0,0,1-10-10v-33a10,10,0,0,0-10-10h0a10,10,0,0,0-10,10v50a10,10,0,0,1-10,10h0a10,10,0,0,1-10-10v-38a10,10,0,0,0-10-10h0a10,10,0,0,0-10,10v52a10,10,0,0,1-10,10h0a10,10,0,0,1-10-10v-97a10,10,0,0,0-10-10h0a10,10,0,0,0-10,10v105a10,10,0,0,1-10,10h0a10,10,0,0,1-10-10v-60a10,10,0,0,0-10-10h0a10,10,0,0,0-10,10v38a10,10,0,0,1-10,10h0a10,10,0,0,1-10-10v-61a10,10,0,0,0-10-10h0a10,10,0,0,0-10,10v61a10,10,0,0,1-10,10h0a10,10,0,0,1-10-10v-38a10,10,0,0,0-10-10h0a10,10,0,0,0-10,10v38a10,10,0,0,1-10,10h0a10,10,0,0,1-10-10v-102a10,10,0,0,0-10-10h0a10,10,0,0,0-10,10v65a10,10,0,0,1-10,10h0a10,10,0,0,1-10-10v-24a10,10,0,0,0-10-10h0a10,10,0,0,0-10,10v44a10,10,0,0,1-10,10h0a10,10,0,0,1-10-10v-66a10,10,0,0,0-10-10h0a10,10,0,0,0-10,10v83a10,10,0,0,1-10,10h0a10,10,0,0,1-10-10v-61a10,10,0,0,0-10-10h0a10,10,0,0,0-10,10v61a10,10,0,0,1-10,10h0a10,10,0,0,1-10-10v-82a10,10,0,0,0-10-10h0a10,10,0,0,0-10,10v96a10,10,0,0,1-10,10h0a10,10,0,0,1-10-10v-85a10,10,0,0,0-10-10h0a10,10,0,0,0-10,10v71a10,10,0,0,1-10,10h0a10,10,0,0,1-10-10v-83a10,10,0,0,0-10-10h0a10,10,0,0,0-10,10v66a10,10,0,0,1-10,10h0a10,10,0,0,1-10-10v-44a10,10,0,0,0-10-10h0a10,10,0,0,0-10,10v83a10,10,0,0,1-10,10h0a10,10,0,0,1-10-10v-50a10,10,0,0,0-10-10h0a10,10,0,0,0-10,10v28a10,10,0,0,1-10,10h0a10,10,0,0,1-10-10v-83a10,10,0,0,0-10-10h0a10,10,0,0,0-10,10v97a10,10,0,0,1-10,10h0a10,10,0,0,1-10-10v-64a10,10,0,0,0-10-10h0a10,10,0,0,0-10,10v21a10,10,0,0,1-10,10h0a10,10,0,0,1-10-10v-54a10,10,0,0,0-10-10h0a10,10,0,0,0-10,10v83a10,10,0,0,1-10,10h0a10,10,0,0,1-10-10v-50a10,10,0,0,0-10-10h0a10,10,0,0,0-10,10v33a10,10,0,0,1-10,10h0a10,10,0,0,1-10-10v-66a10,10,0,0,0-10-10h0a10,10,0,0,0-10,10v498h1100v-512a10,10,0,0,0-10-10h0A10,10,0,0,0,1030.351,37.493Z"/><path class="b" d="M1030.351,185.493v80a10,10,0,0,1-10,10h0a10,10,0,0,1-10-10v-21a10,10,0,0,0-10-10h0a10,10,0,0,0-10,10v52a10,10,0,0,1-10,10h0a10,10,0,0,1-10-10v-75a10,10,0,0,0-10-10h0a10,10,0,0,0-10,10v32a10,10,0,0,1-10,10h0a10,10,0,0,1-10-10v-42a10,10,0,0,0-10-10h0a10,10,0,0,0-10,10v93a10,10,0,0,1-10,10h0a10,10,0,0,1-10-10v-124a10,10,0,0,0-10-10h0a10,10,0,0,0-10,10v102a10,10,0,0,1-10,10h0a10,10,0,0,1-10-10v-38a10,10,0,0,0-10-10h0a10,10,0,0,0-10,10v52a10,10,0,0,1-10,10h0a10,10,0,0,1-10-10v-64a10,10,0,0,0-10-10h0a10,10,0,0,0-10,10v64a10,10,0,0,1-10,10h0a10,10,0,0,1-10-10v-88a10,10,0,0,0-10-10h0a10,10,0,0,0-10,10v57a10,10,0,0,1-10,10h0a10,10,0,0,1-10-10v-33a10,10,0,0,0-10-10h0a10,10,0,0,0-10,10v50a10,10,0,0,1-10,10h0a10,10,0,0,1-10-10v-38a10,10,0,0,0-10-10h0a10,10,0,0,0-10,10v52a10,10,0,0,1-10,10h0a10,10,0,0,1-10-10v-97a10,10,0,0,0-10-10h0a10,10,0,0,0-10,10v105a10,10,0,0,1-10,10h0a10,10,0,0,1-10-10v-60a10,10,0,0,0-10-10h0a10,10,0,0,0-10,10v38a10,10,0,0,1-10,10h0a10,10,0,0,1-10-10v-61a10,10,0,0,0-10-10h0a10,10,0,0,0-10,10v61a10,10,0,0,1-10,10h0a10,10,0,0,1-10-10v-38a10,10,0,0,0-10-10h0a10,10,0,0,0-10,10v38a10,10,0,0,1-10,10h0a10,10,0,0,1-10-10v-102a10,10,0,0,0-10-10h0a10,10,0,0,0-10,10v65a10,10,0,0,1-10,10h0a10,10,0,0,1-10-10v-24a10,10,0,0,0-10-10h0a10,10,0,0,0-10,10v44a10,10,0,0,1-10,10h0a10,10,0,0,1-10-10v-66a10,10,0,0,0-10-10h0a10,10,0,0,0-10,10v83a10,10,0,0,1-10,10h0a10,10,0,0,1-10-10v-61a10,10,0,0,0-10-10h0a10,10,0,0,0-10,10v61a10,10,0,0,1-10,10h0a10,10,0,0,1-10-10v-82a10,10,0,0,0-10-10h0a10,10,0,0,0-10,10v96a10,10,0,0,1-10,10h0a10,10,0,0,1-10-10v-85a10,10,0,0,0-10-10h0a10,10,0,0,0-10,10v71a10,10,0,0,1-10,10h0a10,10,0,0,1-10-10v-83a10,10,0,0,0-10-10h0a10,10,0,0,0-10,10v66a10,10,0,0,1-10,10h0a10,10,0,0,1-10-10v-44a10,10,0,0,0-10-10h0a10,10,0,0,0-10,10v83a10,10,0,0,1-10,10h0a10,10,0,0,1-10-10v-50a10,10,0,0,0-10-10h0a10,10,0,0,0-10,10v28a10,10,0,0,1-10,10h0a10,10,0,0,1-10-10v-83a10,10,0,0,0-10-10h0a10,10,0,0,0-10,10v97a10,10,0,0,1-10,10h0a10,10,0,0,1-10-10v-64a10,10,0,0,0-10-10h0a10,10,0,0,0-10,10v21a10,10,0,0,1-10,10h0a10,10,0,0,1-10-10v-54a10,10,0,0,0-10-10h0a10,10,0,0,0-10,10v83a10,10,0,0,1-10,10h0a10,10,0,0,1-10-10v-50a10,10,0,0,0-10-10h0a10,10,0,0,0-10,10v33a10,10,0,0,1-10,10h0a10,10,0,0,1-10-10v-66a10,10,0,0,0-10-10h0a10,10,0,0,0-10,10v350h1100v-364a10,10,0,0,0-10-10h0A10,10,0,0,0,1030.351,185.493Z"/></svg>