<svg xmlns="http://www.w3.org/2000/svg" viewBox="0 0 125 124"><defs><style>.a{fill:#a2d0ff;stroke:#000;stroke-linecap:round;stroke-linejoin:round;stroke-width:5.122px;}</style></defs><title>HowPainWorks</title><path class="a" d="M12.577,96.609A48.33,48.33,0,0,1,5.35,80.219,68.416,68.416,0,0,1,3.589,58.187c2.5-24.513,20.76-46.97,44.557-53.36,20.643-5.542,49.089,3.006,62.8,19.854,8.641,10.614,11.49,25.052,10.556,38.448-.478,6.857-2.714,13.929-4.981,20.477-2.738,7.91-3.732,13.653-2.4,21.334.6,3.476,1.375,7.591-1.122,10.083-2.321,2.317-6.2,1.819-9.273.68A31.985,31.985,0,0,1,94,109.967c-16.284,11.623-37.947,13.115-55.944,6.219"/></svg>