<svg id="Layer_1" data-name="Layer 1" xmlns="http://www.w3.org/2000/svg" viewBox="0 0 26 26"><defs><style>.cls-1{fill:#1bede2;}</style></defs><title>HowPainWorksScene5</title><path class="cls-1" d="M11.534,22.321a.552.552,0,0,1-.113-.013.5.5,0,0,1-.386-.46l-.3-5.417-5.8.283a.5.5,0,0,1-.3-.9l4.635-3.5L7.234,6.544a.5.5,0,0,1,.472-.666.5.5,0,0,1,.271.08l4.161,2.675,3.415-4.746a.5.5,0,0,1,.906.292V9.8l4.706.976a.5.5,0,0,1,.159.917l-3.9,2.385L20.8,18.112a.5.5,0,0,1-.384.821.472.472,0,0,1-.123-.016l-5.737-1.454-2.581,4.6A.5.5,0,0,1,11.534,22.321Z"/><path d="M15.959,4.179v6.027l5.1,1.059-4.4,2.688,3.747,4.479L14.3,16.885l-2.769,4.936-.326-5.914-6.271.307L9.862,12.49,7.706,6.378,12.267,9.31l3.692-5.131m0-1a1,1,0,0,0-.811.416L12.01,7.956,8.247,5.537A1,1,0,0,0,6.763,6.711l1.913,5.422L4.333,15.416a1,1,0,0,0,.6,1.8h.049l5.279-.258.272,4.921a1,1,0,0,0,.772.919.968.968,0,0,0,.226.026,1,1,0,0,0,.872-.511L14.8,18.042l5.366,1.36a1.035,1.035,0,0,0,.246.03,1,1,0,0,0,.767-1.641l-3-3.59,3.408-2.083a1,1,0,0,0-.319-1.832l-4.307-.894V4.179a1,1,0,0,0-.693-.952,1.014,1.014,0,0,0-.307-.048Z"/></svg>