<svg xmlns="http://www.w3.org/2000/svg" viewBox="0 0 291 143"><defs><style>.a{fill:#c3996b;}.a,.b{stroke:#000;stroke-linecap:round;stroke-linejoin:round;stroke-width:10px;}.b{fill:#754c28;}</style></defs><title>HowPainWorks</title><ellipse class="a" cx="145.5" cy="78.113" rx="139.5" ry="58.887"/><path class="b" d="M53.566,38.178A15.489,15.489,0,0,0,63.983,51.729c5.338,1.661,11.1.1,15.993-2.917a22.751,22.751,0,0,0,9.2-10.1c1.942-4.466,2.082-10.216-.383-14.309C81.329,12,52.536,21.757,53.566,38.178Z"/><path class="b" d="M104.3,102.137c4.43,3.348,10.03,3.971,15.232,3.022,6.257-1.142,12.99-5.626,13.8-13.021,1.514-13.807-15.055-19.208-23.972-16.992C97.856,78.005,93.536,94,104.3,102.137Z"/><path class="b" d="M211.245,37.505a18.48,18.48,0,0,0,11.26,14.852c5.678,2.151,12.77.4,15.914-5.572,3.175-6.027,1.24-14.46-3.207-19.243C226.47,18.139,209.012,19.308,211.245,37.505Z"/><path class="b" d="M189.928,102.209c6.5,1.951,14.761-.063,18.944-5.275,17.732-22.093-25.661-39.5-28.136-8.891C180.1,95.98,184.371,100.542,189.928,102.209Z"/><path class="b" d="M136.575,6.94c7.819-3.046,17.244,1.559,20.936,10.228A15.542,15.542,0,0,1,158.68,26.4c-1.16,5.274-5.732,8.456-10.147,10.081a32.3,32.3,0,0,1-14.473,1.846C117.715,36.648,125.446,11.275,136.575,6.94Z"/></svg>