<svg id="Layer_1" data-name="Layer 1" xmlns="http://www.w3.org/2000/svg" viewBox="0 0 91 274"><defs><style>.cls-1{fill:none;}.cls-1,.cls-3{stroke:#9e4352;stroke-linecap:round;stroke-linejoin:round;}.cls-2{fill:#cc929f;}.cls-3{fill:#dda8b3;}</style></defs><title>HowPainWorksScene5</title><path class="cls-1" d="M61.214,43.026a4.3,4.3,0,0,0,7.05,2.109,7.406,7.406,0,0,0,7.507,3.779"/><path class="cls-2" d="M80.406,53.489A2.211,2.211,0,0,1,82.67,53.2a2.5,2.5,0,0,1,1.124,1.933c.136,1.007-.117,3.744-1.589,3.809a2.126,2.126,0,0,1,2.113,1.7,2.169,2.169,0,0,1-.848,2.021c-.363.3-1.723,1.029-2.156.653a2.966,2.966,0,0,1,.866,3.043c-.818,2.641-5.137,2.708-5.758-.1a3.435,3.435,0,0,1-1.99,3.829,3.8,3.8,0,0,1-2.233-.118c-.3-.107-1.882-.868-1.772-1.318a3.044,3.044,0,0,1-5.8.355c-1.178,1.3-3.656,1.723-4.876.273a2.478,2.478,0,0,1-.382-2.319,3.824,3.824,0,0,1,1.487-1.9c-.262-1.286,1.054-3.32,2.413-3.447A2.061,2.061,0,0,1,63,59.756c-.361,1.009-3.856-2.8-4.088-3.178a4.387,4.387,0,0,1-.477-4.016,2.693,2.693,0,0,1,3.482-1.419,3.276,3.276,0,0,1,6.392-.775,2.954,2.954,0,0,1,1.446-2.453,2.35,2.35,0,0,1,2.747.352,1.957,1.957,0,0,1,0,2.676,2.505,2.505,0,0,1,2.588-1.862,2.953,2.953,0,0,1,2.5,2.106c.479,1.626-.547,3.328-1.759,4.353a.673.673,0,0,1,.449.485,1.538,1.538,0,0,1,2.783.213A3.392,3.392,0,0,1,80.406,53.489Z"/><path class="cls-1" d="M63.606,59.793c-2,.208-3.744-1.674-4.693-3.215a4.387,4.387,0,0,1-.477-4.016,2.693,2.693,0,0,1,3.482-1.419,3.276,3.276,0,0,1,6.392-.775,2.954,2.954,0,0,1,1.446-2.453,2.35,2.35,0,0,1,2.747.352,1.957,1.957,0,0,1,0,2.676,2.505,2.505,0,0,1,2.588-1.862,2.952,2.952,0,0,1,2.5,2.106,3.61,3.61,0,0,1-.741,3.259"/><path class="cls-1" d="M36.8,40.455a8.968,8.968,0,0,0,13.1-2.63"/><path class="cls-1" d="M47.846,32.079c2.182-.106,6.491-.139,5.862,3.267a6.174,6.174,0,0,1-1.534,2.713,8.3,8.3,0,0,0-1.718,2.619c-.616,1.887.735,2.693,1.79,3.953,3.275,3.91,1.681,9.362,4.338,13.46,2.638,4.069,6.971,2.159,10.838,2.806,2.606.436,4.821,2.511,7.576,2.421a4.369,4.369,0,0,0,3.955-3.109,3.633,3.633,0,0,1,1.641-2.157"/><path class="cls-1" d="M60.356,58.4a7.8,7.8,0,0,1-2.448-5.627c.112-2.35,1.7-4.309-.012-6.552a11.393,11.393,0,0,0-2.151-1.9,5.214,5.214,0,0,1-1.823-2.178,2.175,2.175,0,0,1,.69-2.568"/><path class="cls-1" d="M62.968,62.1a2.6,2.6,0,0,0-2.116,2.971,3.824,3.824,0,0,0-1.487,1.9,2.478,2.478,0,0,0,.382,2.319c1.22,1.45,3.7,1.032,4.876-.273a3.044,3.044,0,0,0,5.8-.355c-.11.45,1.467,1.211,1.772,1.318a3.8,3.8,0,0,0,2.233.118,3.435,3.435,0,0,0,1.99-3.829c.621,2.807,4.94,2.74,5.758.1a2.966,2.966,0,0,0-.866-3.043c.433.376,1.793-.355,2.156-.653a2.169,2.169,0,0,0,.848-2.021,2.126,2.126,0,0,0-2.113-1.7c1.472-.065,1.725-2.8,1.589-3.809A2.5,2.5,0,0,0,82.67,53.2a2.211,2.211,0,0,0-2.264.286,3.225,3.225,0,0,0-1.323,2.628c-.869-1.17-2.267-.67-2.967.337a3.717,3.717,0,0,0-.575,2.861"/><path class="cls-3" d="M32.95,50.314a5.629,5.629,0,0,1,.72,2.177,3.3,3.3,0,0,1-.538,2.2,2.282,2.282,0,0,1-2.359.947c-.719-.174-1.65-.967-1.254-1.807a1.5,1.5,0,0,1-2.475-.039,2.618,2.618,0,0,1,.256-2.825,12.692,12.692,0,0,1,2.148-2.1,8.675,8.675,0,0,0,2.385-2.878c.327-.882-.17-2.578-1.38-1.71-.547.394-.565,1.213-.986,1.74a1.4,1.4,0,0,1-1.709.342,1.843,1.843,0,0,1-.675-2.223c.466-.975,1.824-1.018,2.622-1.572,3.132-2.17-1.4-4.513-2.875-5.675a6.991,6.991,0,0,1-1.961-8.371c1.253-2.67,3.872-4.467,6.61-5.563,4.948-1.98,10.67-1.83,15.826-.919a34.369,34.369,0,0,1,9.425,2.815,18.224,18.224,0,0,1,7.633,7.333c.843,1.483,1.936,3.276,1.862,5.047-.128,3.1-4.286,2.522-5.562.6-.783-1.179-1.108-2.609-1.851-3.813-3.04-4.922-12.739-4.665-17.35-2.783a17.285,17.285,0,0,0-4.343,3.012c-.994.825-3.33,1.366-3.441-.541-.082-1.419,1.338-2.694,2.342-3.5a15.616,15.616,0,0,1,4.758-2.518,28.9,28.9,0,0,1,9.338-1.181,18.146,18.146,0,0,0-4.437-1.548,19.954,19.954,0,0,0-6.853-.283c-4.013.5-8.831,2.278-10.358,6.406-1.294,3.5,2.006,5.209,4.444,6.63"/><path class="cls-3" d="M42.936,33.951c2.732,1.206.263,5.31-2.25,4.311C37.585,37.03,40.324,32.8,42.936,33.951Z"/><path class="cls-3" d="M33.13,47.082c4.646-4.8,12.7-8.964,18.693-3.792,2.58,2.228,3.141,6.862,3.279,10.023.228,5.222-.03,10.484-.234,15.7-.526,13.456-.722,26.923-.7,40.389.021,13.406.259,26.811.607,40.213.344,13.244.8,26.486,1.248,39.728C56.9,215.07,57.81,241.67,57.892,268a5,5,0,1,1-10,.031c-.082-26.174-.988-52.7-1.864-78.344-.458-13.158-.9-26.316-1.242-39.477-.35-13.4-.591-26.793-.619-40.192-.028-13.484.16-26.969.672-40.444.222-5.859-.116-11.66-.394-17.515a9.177,9.177,0,0,0-.835-4.092c-1.4-2.5-3.884-1.761-6.028-.86a17.073,17.073,0,0,0-5.942,4.348"/><path class="cls-1" d="M72.031,38.243a11.749,11.749,0,0,1,4.838,7.11c2.59.24,5.366,2.743,6.686,4.873"/><path class="cls-1" d="M87.247,41.051a3.317,3.317,0,0,0-4.173-1.535,4.169,4.169,0,0,0-3.739-2.391c-2.326.019-4.674,1.762-4.268,4.134"/><path class="cls-1" d="M85.848,34.073a4.216,4.216,0,0,0-3.507,1.487,3.813,3.813,0,0,0-1.061,1.875"/><path class="cls-1" d="M84.763,30.61A4.138,4.138,0,0,0,78.424,30c.355-.353-1.836-2.077-2.085-2.225a5.408,5.408,0,0,0-3.057-.818c-2.711.181-3.947,3.42-2.829,5.7a2.958,2.958,0,0,0,2.852,1.717"/><path class="cls-1" d="M72.071,27.211a5.418,5.418,0,0,1-6.629-3.872,6.074,6.074,0,0,1,.207-3.936"/><path class="cls-1" d="M50.5,16.376c.8,1.052,2.389.985,3.673.677s2.7-.739,3.862-.111A7.971,7.971,0,0,1,59.93,18.92a4.093,4.093,0,0,0,5.018,1.019c1.886-.959,1.536-3.138,3.429-4.187a8.906,8.906,0,0,0,2.775-1.768A3.034,3.034,0,0,0,71.2,10.3"/><path class="cls-1" d="M55.2,12.2a2.823,2.823,0,0,1,3.406-.828,4.234,4.234,0,0,1,2.241,2.911,2.305,2.305,0,0,1,3.085-3.141,2.232,2.232,0,0,1,.624-3.65"/><path class="cls-1" d="M79.075,25.625c.041-2.239-.79-4.186-3.1-4.756a5.962,5.962,0,0,0-5.426,1.309"/><path class="cls-1" d="M81.605,24.224a3.326,3.326,0,0,1-2.677-.559"/><path class="cls-1" d="M32.673,14.911c2.79,1.614,6.853,1.307,8.825-1.508a7.948,7.948,0,0,0,8.142-.32A7.951,7.951,0,0,0,53.025,5.67"/><path class="cls-1" d="M42.913,8.514a1.8,1.8,0,0,1,2.99.179,3.679,3.679,0,0,1-1.184-2.314,10.943,10.943,0,0,1,.034-2.651"/><path class="cls-1" d="M18.17,22.939a4.932,4.932,0,0,0,3.548-7.814,4.415,4.415,0,0,0,.76-5.73A1.009,1.009,0,0,0,24.012,8.23"/><path class="cls-1" d="M24.317,18.157a5.975,5.975,0,0,0,6.8-3.06,8.9,8.9,0,0,0-.124-7.818,1.238,1.238,0,0,0,2.231-.885"/><path class="cls-1" d="M6.752,37.84a2.618,2.618,0,0,0,2.492-1.325C8.953,42.793,16.3,43.984,21.067,43"/><path class="cls-1" d="M19.02,25.03a2.893,2.893,0,0,1-4.754,1.584,3.764,3.764,0,0,1-1.145-2.645,7.974,7.974,0,0,1,1.052-4.084c.151-.284,2.353-3.058,2.631-2.656a4.53,4.53,0,0,1,1.449-6.494"/><path class="cls-1" d="M4.765,31.179a6.358,6.358,0,0,1,5.548-.444A7.176,7.176,0,0,1,14.487,37.1a6.911,6.911,0,0,1,3.922.245"/><path class="cls-1" d="M10.355,19.752a4.037,4.037,0,0,0-.419,6.007A3.5,3.5,0,0,0,8.57,29.934"/><path class="cls-3" d="M59.328,39.418l.018.048a2.195,2.195,0,0,1,.039,1.084c-.487,2.992-3.451,4.916-5.9,6.315a26.8,26.8,0,0,1-9.121,3.007,5.266,5.266,0,0,1-1.868.049,2.03,2.03,0,0,1-1.471-1.055,2.194,2.194,0,0,1,.235-1.978c2.025-3.443,8.222-2.074,11.4-2.985a6.826,6.826,0,0,0,4.518-3.6,5.4,5.4,0,0,1,.464-1,1.071,1.071,0,0,1,.918-.514A.971.971,0,0,1,59.328,39.418Z"/><path class="cls-3" d="M38.315,47.49a3.843,3.843,0,0,1,1.869-2.062c2.62-1.56,6.623.077,4.049,3.4C42.633,50.9,37.147,51.484,38.315,47.49Z"/><path class="cls-1" d="M38.315,47.49a3.843,3.843,0,0,1,1.869-2.062c2.62-1.56,6.623.077,4.049,3.4C42.633,50.9,37.147,51.484,38.315,47.49Z"/><path class="cls-1" d="M67.834,53.091c.644,2.445-1.115,6.255-3.05,7.736"/><path class="cls-1" d="M73.518,54.04A5.619,5.619,0,0,1,71,56.908c-.592.332-3.17,1.111-3.751.522a9.022,9.022,0,0,1-2.508-4.9"/><path class="cls-1" d="M61.476,54.5a2.979,2.979,0,0,0,1.417,2.53,4.352,4.352,0,0,1,1.864,2.316,1.937,1.937,0,0,1-.32,1.436"/><path class="cls-1" d="M70.748,51.131c.246,1.7-1.174,3.548-2.627,4.232"/><path class="cls-1" d="M62.323,67.227c2.21-1.166,4.1-3.951,2.627-6.389"/><path class="cls-1" d="M67.463,68.71c1.4-2.486-.269-5.449-2.031-7.2"/><path class="cls-1" d="M72.573,66.646a5.229,5.229,0,0,0-5.216-3.037"/><path class="cls-1" d="M69.966,61.341a3.642,3.642,0,0,0,2.6-1.972"/><path class="cls-1" d="M77.014,62.648a4.015,4.015,0,0,1,2.192,2.585"/><path class="cls-1" d="M81.921,60.97a4.378,4.378,0,0,0-3.558.255,5.5,5.5,0,0,0-.834-2.977"/><path class="cls-1" d="M13.279,32.473a2.735,2.735,0,0,0,2.357-2.639"/><path class="cls-1" d="M54.831,69.93a2.939,2.939,0,0,0,1.035.108c.881,4.668,9.757,8.022,13.871,5.117,8.4.83,13.16-7.905,13.688-11.422A6.162,6.162,0,0,0,86.036,59.2a10.3,10.3,0,0,0-.657-4.8c.012.032,2.249-2.227,2.434-2.485a11.743,11.743,0,0,0,1.675-3.352,8.915,8.915,0,0,0-1-7.256,9.509,9.509,0,0,0-2.208-10.469,6.068,6.068,0,0,0-2.867-7.065c-.359-4.126-3.369-8.531-7.346-9.876C75.1,9.83,68.156,6.58,65.789,6.649c-1.732-2.807-5.318-3-8.61-3.215C54.588.639,44.929.612,44.833,1.678c-.068.752-2.876-.561-3.693-.659C40.046.888,38.93.666,37.833.644a25.921,25.921,0,0,0-8.042,1.12A25.586,25.586,0,0,0,24.1,4.277,14.57,14.57,0,0,0,21.608,6c-.394.369-.912,1.534-1.557,1.508-4-.193-8.115,4.4-10.709,6.927C7.2,16.52,5.1,18.951,4.705,21.916a12.86,12.86,0,0,0-3.64,9.45,19.444,19.444,0,0,0,.826,4.785,3.957,3.957,0,0,0,1.116,1.964c.133.12,1.8,1.043,1.8.886a7.747,7.747,0,0,0,6.642,7.329c3.423,3.178,7.691,3.514,12.116,3.757a7.034,7.034,0,0,0,.187,7.27,7.177,7.177,0,0,0,2.916,2.456c.292.143,3.261.9,3.136.549a4.3,4.3,0,0,0,5.867,2.222,4.7,4.7,0,0,0,6.186-.444"/><path class="cls-1" d="M36.338,60.159a5.637,5.637,0,0,0,.618-5.222A4.986,4.986,0,0,0,42.6,56.544"/><path class="cls-3" d="M50.743,57.417c-.084-2.595-.678-6.668-3.585-7.628-3.035-1-6.31,2.663-7.015,5.287a9.975,9.975,0,0,0,.813,6.81c.944,1.967,2.2,4.333,4.116,5.514,1.884,1.162,4.089.01,4.982-1.85a11,11,0,0,0,.75-4.563"/><path class="cls-1" d="M59.374,71.919a7.332,7.332,0,0,0,3.5,1.592,11.219,11.219,0,0,0,6.618-.832c2.4.628,5.4.29,7.1-1.7"/><path class="cls-1" d="M57.566,70.132a3.965,3.965,0,0,1,.406-5.171,1.747,1.747,0,0,1-.347-2.422"/><path class="cls-1" d="M23.337,50.035a6.639,6.639,0,0,0,4.48-1.646"/></svg>