<svg id="Layer_1" data-name="Layer 1" xmlns="http://www.w3.org/2000/svg" viewBox="0 0 301.937 266.717"><defs><style>.cls-1{fill:#fff;}.cls-1,.cls-2,.cls-3{stroke:#000;stroke-linecap:round;stroke-linejoin:round;stroke-width:5px;}.cls-2{fill:#a2d0ff;}.cls-3{fill:none;}.cls-4{fill:#231f20;}</style></defs><title>HowPainWorksScene5</title><path class="cls-1" d="M47.265,80.7c-.651-24.64,14.067-49.037,36.167-59.951s50.419-7.771,69.588,7.724C163.28,8.258,189.23-2.421,210.745,4.716S246.683,35.923,242.83,58.26c16.238-6.55,36.014.94,46.46,14.992,10.817,14.551,12.778,33.884,6.875,50.68-1.726,4.911-10.848,29.651-33.516,31.006,21.145,24.619,14.916,57.434-11.466,74.017a52.709,52.709,0,0,1-48.624,3.456c-9.6,20.883-33.472,34.217-56.288,31.443s-42.8-21.44-47.114-44.015c-13.081,12.391-36.556,7.808-47.466-6.53s-10.765-34.825-3.89-51.478c-17.949,5.009-29.118-1.88-33.348-5.356C3.211,147.237.4,132.812,3.939,119.062,9.014,99.367,26.649,82.5,47.265,80.7Z"/><path class="cls-2" d="M99.128,128.553c5.029-21.071,19.305-40.579,39.505-48.4,23.243-9,51.958-.209,66.589,19.97s14.222,49.834-.548,69.911C168.093,219.755,83.136,195.557,99.128,128.553Z"/><path class="cls-3" d="M118.036,165.716a36.5,36.5,0,0,1,21.773-24.009c20.8-7.966,43.83,4.112,45.047,27.315"/><path class="cls-3" d="M149.528,115.532c-.565-16.121-23.533-17.12-28.243-2.855C114.492,133.254,150.311,137.954,149.528,115.532Z"/><path class="cls-3" d="M185.2,130.981a11.994,11.994,0,0,0,6.595-13c-3.054-19.063-34.193-13.106-27.856,5.721C167.1,133.1,177.959,134.814,185.2,130.981Z"/><circle class="cls-4" cx="177.389" cy="119.122" r="3.527"/><circle class="cls-4" cx="134.984" cy="116.508" r="3.527"/></svg>