<svg id="Layer_1" data-name="Layer 1" xmlns="http://www.w3.org/2000/svg" viewBox="0 0 26 29"><defs><style>.cls-1{fill:#79c0cc;}</style></defs><title>HowPainWorksScene5</title><path class="cls-1" d="M16.369,10.037a30.079,30.079,0,0,1,8.115-2.409,8.552,8.552,0,0,1,.681-6.261,6.67,6.67,0,0,1-6.08-.392L18.953.9c-.4.085-.8.182-1.2.28-1,1.262-1.59,2.117-3.209,2.578a9.954,9.954,0,0,1-4.177.272c-.227.128-.444.273-.667.408A6.587,6.587,0,0,1,6.739,8.7a3.568,3.568,0,0,1-.54,3.378,3.564,3.564,0,0,1-3.163,1.3,3.835,3.835,0,0,1-2.582,5.19c.006.059.005.117.014.175,0,.027.011.052.014.079a6.787,6.787,0,0,1,1.023,3.222c.081.159.172.311.261.464a10.4,10.4,0,0,1,2.425.161,8.27,8.27,0,0,1,5.943,5.974,8.055,8.055,0,0,1,4.481-.25,5.276,5.276,0,0,1,1.28.466l.011,0a2.8,2.8,0,0,0,1.226-.55,2.089,2.089,0,0,0,.394-2.24c-.634-1.733-2.593-2.136-3.895-3.191a7.151,7.151,0,0,1-1.692-2.27,7.228,7.228,0,0,1-.311-5.852A9.523,9.523,0,0,1,16.369,10.037Z"/></svg>