<svg xmlns="http://www.w3.org/2000/svg" viewBox="0 0 1040 312"><defs><style>.a{fill:#58cc87;}.b{fill:#edd043;stroke-linecap:round;stroke-linejoin:round;stroke-width:9.775px;}.b,.d{stroke:#000;}.c{fill:#27ad5d;}.d{fill:none;stroke-miterlimit:10;stroke-width:10px;}</style></defs><title>HowPAinWorksScene7</title><polygon class="a" points="16.896 207.596 158.565 285.358 1011.821 285.358 1011.821 22.651 118.439 22.651 16.896 207.596"/><line class="b" x1="65.548" y1="118.984" x2="878.299" y2="119.287"/><polygon class="c" points="16.896 207.596 158.565 285.358 1011.821 285.358 885.218 153.303 48.715 154.168 16.896 207.596"/><line class="b" x1="48.125" y1="153.833" x2="763.769" y2="153.834"/><line class="b" x1="22.923" y1="197.456" x2="646.403" y2="197.457"/><line class="b" x1="128.07" y1="260.914" x2="949.114" y2="260.631"/><line class="b" x1="71.689" y1="229.959" x2="792.465" y2="229.959"/><line class="b" x1="651.273" y1="71.556" x2="928.619" y2="72.129"/><line class="b" x1="795.409" y1="153.834" x2="858.299" y2="153.928"/><line class="b" x1="675.39" y1="197.457" x2="892.832" y2="198.114"/><line class="b" x1="824.832" y1="229.959" x2="925.437" y2="229.641"/><path class="b" d="M91.682,71.384l-.094.171H610.963Q351.277,71.47,91.682,71.384Z"/><polygon class="d" points="16.896 207.596 158.565 285.358 1011.821 285.358 1011.821 22.651 118.439 22.651 16.896 207.596"/></svg>