<svg xmlns="http://www.w3.org/2000/svg" viewBox="0 0 210 185"><defs><style>.a{fill:#a2d0ff;stroke:#000;stroke-linecap:round;stroke-linejoin:round;stroke-width:5.122px;}</style></defs><title>HowPainWorks</title><path class="a" d="M3.054,19.759A150.775,150.775,0,0,0,44.637,121.37a150.678,150.678,0,0,0,65.614,39.69c23.184,6.865,50.843,3.878,71.146,18.654,5.8,4.218,11.745-1.081,8.6-7.481-1.094-2.226-3.132-3.812-5.1-5.317l-8.472-6.471,10.592,7.053c1.884,1.255,3.872,2.548,6.127,2.756,8.3.767,5.619-7.124,2.455-10.744a40.261,40.261,0,0,0-12.152-9.348c4.638,2.253,9.434,5.26,14.314,6.91,4.333,1.466,11,.145,7.228-5.762C201.6,146,192.6,142.683,186.766,141.6a53.651,53.651,0,0,0,7.973,1.885c2.3.446,4.353,1.72,6.669,2.078,2.047.317,4.431-.524,5.218-2.44,2.063-5.024-6.384-9.77-9.923-11.134-5.933-2.288-12.445-2.636-18.73-2.929a65.51,65.51,0,0,0,11.208.495c1.635-.068,3.52-.342,4.369-1.742.893-1.473.065-3.5-1.336-4.5a10.448,10.448,0,0,0-4.9-1.457c-10.45-1.3-20.766-2.567-31.272-3.093a139.872,139.872,0,0,1-26.526-3.751c-21.036-5.192-45.195-17.357-56.839-36.058A169.9,169.9,0,0,1,47.58,2.957"/></svg>