<svg xmlns="http://www.w3.org/2000/svg" viewBox="0 0 430 204"><defs><style>.a{fill:#fff;}</style></defs><title>HowPainWorks</title><path class="a" d="M378.481,104.828a57.335,57.335,0,0,0-16.706,2.444C359.751,70.087,327.8,40.5,288.611,40.434A74.461,74.461,0,0,0,233.3,64.518C226.207,27.942,190.272.073,146.954,0c-48.461-.082-87.8,34.653-87.878,77.583A69.719,69.719,0,0,0,64.433,104.5c-1.78-.131-3.579-.209-5.4-.212-32.181-.054-58.3,20.4-58.349,45.68C.6,198.178,62.31,202.356,97.025,203.1c44.037.944,89.458-3.656,133.847-4.2,44.034-.542,88.057-.378,132.092-.025,29.063.232,66.915-13.266,66.974-48.175C429.981,125.413,406.943,104.876,378.481,104.828Z"/></svg>