<svg xmlns="http://www.w3.org/2000/svg" viewBox="0 0 427 642"><defs><style>.a,.b,.c,.d{fill:none;stroke:#ce3b4a;stroke-linecap:round;stroke-miterlimit:10;}.b{stroke-width:2px;}.c{stroke-width:1.8px;}.d{stroke-width:8px;}</style></defs><title>HowPainWorksScene5</title><path class="a" d="M234,147.348a21.1,21.1,0,0,0-26.252-.314"/><path class="b" d="M285.562,599.168a225.232,225.232,0,0,0,1.951-33.118c-.19-22.266-2.9-44.408-4.7-66.577q-5.261-65.031-15.662-129.511c-6.075-37.644-13.863-73.483-43.338-100.358q-1.884,2.373-3.673,4.821c-11.975,16.369-20.7,34.906-27.465,53.965-6.455,18.191-6.981,34.967-9.947,53.8-5.349,33.975-9.626,67.985-15.071,101.937-3.7,23.1-6.318,46.5-5.714,69.936.292,11.359,2.172,22.6,4.414,33.713.915,4.537,2.427,9.467,3.822,14.461"/><path class="b" d="M248.309,301.9c-1.8-21.211-7.829-54.916-26.458-54.046S203.24,284.479,202.89,303.6"/><path class="b" d="M244.567,277.318c-4.4-7.2-10.128-17.2-18.955-19.438-12.027-3.044-17.609,11.073-21.449,19.636"/><path class="b" d="M246.634,296.282c-2.756-9.609-6.282-20.157-14.287-26.7a14.35,14.35,0,0,0-8.83-3.545c-7.315-.017-10.849,6.557-13.779,12.358a51.43,51.43,0,0,0-5.472,20.417"/><path class="a" d="M286.539,153.792a113.727,113.727,0,0,0-30.653-49.966c-7.7-7.322-14.832-11.8-25.382-13.816-9.472-1.814-22.883-2.32-31.96,1.577-7.779,3.34-15.289,10.924-21.054,16.943a106.446,106.446,0,0,0-26.708,48.754"/><path class="a" d="M188.874,246.64c-7.961,25.037-8.634,50.715-4.528,76.664"/><path class="a" d="M264.43,323.375c5.194-19.435,1.574-53.771-6.682-77.729"/><path class="a" d="M368.337,267.974c-8.746-14.541-17.245-28.829-23-44.795-10.746-29.842-16.956-64.343-40.563-87.149"/><path class="a" d="M352.643,608.468c-9.1,2.3-19.222,3.122-27.469-1.363-6.068-3.3-10.425-9.158-13.195-15.485s-4.11-13.17-5.432-19.949c-7.6-38.956-12.476-78.719-27.97-115.465l.637,1.206"/><path class="b" d="M307.157,597.892c-4.5-19.589-2.685-31.137-4.3-51.137-1.276-15.82-2.433-31.651-3.8-47.464-.967-11.184-.176-23.444-5.98-33.141-6.461-10.793-15.375-19.349-16.987-33.057"/><path class="a" d="M284.3,334.914c.13-11.3-.312-20.866-2.966-31.867a324.934,324.934,0,0,0-9.79-32.863c-6.437-18.061-16.97-32.206-35.034-39.586-6.328-2.585-11.637-4.017-18.435-3.3-7.875.83-16.606,4.684-22.14,10.347s-9.542,12.633-13,19.757a174.217,174.217,0,0,0-17.121,85.29"/><path d="M181.606,563.71l.255-2.582c1.706-17.444,3.127-34.9,4.809-52.3.842-8.7,1.741-17.4,2.781-26.072s2.287-17.332,3.294-26.057c2.057-17.424,3.425-35.013,2.978-52.649a217.779,217.779,0,0,0-2.194-26.372,101.785,101.785,0,0,0-2.712-13.08,65.293,65.293,0,0,0-4.993-12.514c-1.023-1.994-2.222-3.934-3.393-5.79q-1.755-2.748-3.4-5.545a122.577,122.577,0,0,1-6.017-11.447,73.166,73.166,0,0,1-4.31-12.047,77.808,77.808,0,0,1-1.968-12.658,94.208,94.208,0,0,1-.159-12.885,105.8,105.8,0,0,1,1.416-12.833,106.987,106.987,0,0,1,7.247-24.72c.444-.977.849-1.973,1.324-2.934L178,248.343c.989-1.87,2.083-3.691,3.271-5.485a117.85,117.85,0,0,1,7.705-10.371A127.1,127.1,0,0,1,197.751,223a93.986,93.986,0,0,1,9.866-8.228,57.548,57.548,0,0,1,11.086-6.118l2.837-.947.035-.013.192.108,1.42.8c1.9,1.051,3.754,2.18,5.625,3.28q5.556,3.386,10.861,7.127,5.259,3.8,10.163,8.024a119.953,119.953,0,0,1,9.216,9.047,109.62,109.62,0,0,1,8.039,10.084,93.44,93.44,0,0,1,6.617,10.995l1.286,2.92c.209.489.437.97.631,1.466l.538,1.506c.349,1.008.739,2,1.056,3.02l.882,3.082c.322,1.02.527,2.073.763,3.117.219,1.048.5,2.083.668,3.142.338,2.118.745,4.225.932,6.368a100.932,100.932,0,0,1,.634,12.874,106.31,106.31,0,0,1-3.5,25.513c-.506,2.091-1.211,4.118-1.851,6.165l-2.183,6.162-4.523,12.317c-3.008,8.235-5.971,16.538-8.262,25.086-1.149,4.27-2.14,8.593-2.921,12.962-.759,4.386-1.279,8.762-1.712,13.162a228.731,228.731,0,0,0-.834,26.443c.4,17.632,2.609,35.121,5.2,52.453s5.592,34.582,7.686,51.9c1.044,8.659,1.86,17.337,2.284,26.026.133,2.172.194,4.345.242,6.517l.085,3.26,0,3.258,0,2.082a1.828,1.828,0,0,0,1.8,1.817A1.773,1.773,0,0,0,274.4,568l0-2.114,0-3.307-.086-3.3c-.049-2.2-.111-4.406-.245-6.6-.43-8.8-1.255-17.562-2.307-26.283-2.109-17.446-5.121-34.716-7.7-52s-4.768-34.61-5.166-52.007a225.2,225.2,0,0,1,.819-26.023c.425-4.31.939-8.632,1.674-12.873.759-4.249,1.726-8.465,2.85-12.648,2.242-8.369,5.169-16.577,8.166-24.782l4.53-12.334,2.2-6.215c.668-2.129,1.4-4.241,1.925-6.407a109.915,109.915,0,0,0,3.622-26.388,104.652,104.652,0,0,0-.657-13.335c-.2-2.221-.616-4.417-.969-6.621-.18-1.1-.468-2.185-.7-3.278-.247-1.09-.462-2.187-.8-3.258l-.925-3.229c-.333-1.069-.741-2.117-1.11-3.176l-.567-1.585c-.205-.522-.444-1.033-.665-1.549l-1.362-3.087a96.758,96.758,0,0,0-6.906-11.488,113.258,113.258,0,0,0-8.321-10.438,123.837,123.837,0,0,0-9.514-9.34q-5.036-4.362-10.44-8.243-5.424-3.837-11.09-7.278c-1.9-1.119-3.788-2.268-5.717-3.334l-1.441-.812-1.238-.7c-.12-.053-.235-.164-.36-.171l-.389.13-.743.247L217.4,205.3a61.064,61.064,0,0,0-11.858,6.531,97.551,97.551,0,0,0-10.285,8.575,130.838,130.838,0,0,0-9.052,9.779,121.535,121.535,0,0,0-7.948,10.7c-1.227,1.855-2.392,3.789-3.448,5.789l-1.5,3c-.494,1-.915,2.034-1.375,3.049a110.494,110.494,0,0,0-7.495,25.554,109.25,109.25,0,0,0-1.462,13.251,97.883,97.883,0,0,0,.165,13.352,81.424,81.424,0,0,0,2.067,13.259,76.9,76.9,0,0,0,4.521,12.648,126.233,126.233,0,0,0,6.194,11.788q1.689,2.856,3.464,5.647c1.163,1.845,2.267,3.633,3.244,5.534a61.629,61.629,0,0,1,4.72,11.833,98.294,98.294,0,0,1,2.612,12.616,214.133,214.133,0,0,1,2.156,25.937c.441,17.385-.907,34.8-2.955,52.137-1,8.667-2.259,17.325-3.293,26.049s-1.945,17.431-2.789,26.153c-1.686,17.444-3.106,34.894-4.809,52.3l-.254,2.577a1.8,1.8,0,0,0,3.582.356Z"/><path class="c" d="M272.6,567.984l0-2.075,0-3.282-.085-3.282c-.049-2.188-.109-4.375-.243-6.56-.426-8.743-1.246-17.464-2.294-26.155-2.1-17.384-5.109-34.638-7.691-51.953s-4.786-34.716-5.188-52.23a226.97,226.97,0,0,1,.824-26.233c.429-4.355.944-8.7,1.691-13.018.769-4.309,1.748-8.579,2.883-12.805,2.266-8.459,5.21-16.715,8.212-24.935l4.527-12.325c1.487-4.115,2.99-8.234,4.082-12.474a108.06,108.06,0,0,0,3.566-25.95,102.623,102.623,0,0,0-.642-13.105c-.192-2.182-.6-4.333-.949-6.494-.173-1.08-.458-2.139-.681-3.21-.243-1.067-.45-2.143-.779-3.188l-.9-3.156c-.322-1.045-.723-2.065-1.082-3.1l-.552-1.546c-.2-.51-.433-1.005-.647-1.508l-1.322-3a95.144,95.144,0,0,0-6.76-11.243,111.164,111.164,0,0,0-8.177-10.263,121.8,121.8,0,0,0-9.363-9.195q-4.962-4.3-10.3-8.135-5.361-3.792-10.975-7.2c-1.886-1.11-3.755-2.25-5.671-3.308l-1.429-.806-.715-.4-.179-.1c-.064.015-.13.042-.194.062l-.389.13-3.114,1.04A59.246,59.246,0,0,0,206.6,213.29a95.834,95.834,0,0,0-10.078,8.4,129.287,129.287,0,0,0-8.917,9.63c-5.54,6.753-10.671,13.974-14,22.1a108.609,108.609,0,0,0-7.376,25.135,107.3,107.3,0,0,0-1.442,13.042,95.879,95.879,0,0,0,.159,13.118,79.567,79.567,0,0,0,2.013,12.959,75.093,75.093,0,0,0,4.411,12.349,124.463,124.463,0,0,0,6.1,11.618c2.174,3.8,4.737,7.367,6.752,11.258a63.506,63.506,0,0,1,4.862,12.172,100.165,100.165,0,0,1,2.664,12.847,215.851,215.851,0,0,1,2.178,26.154c.445,17.511-.911,35.014-2.963,52.393-1,8.7-2.264,17.361-3.293,26.054s-1.943,17.4-2.786,26.112c-1.684,17.426-3.1,34.877-4.809,52.3l-.257,2.6"/><path d="M255.888,297.173a227.242,227.242,0,0,1-.809,26.257,121.038,121.038,0,0,1-1.852,12.9,51.017,51.017,0,0,1-1.644,6.175,22.382,22.382,0,0,1-1.166,2.844,13.321,13.321,0,0,1-.709,1.273l-.392.568-.259.309a1.536,1.536,0,0,0-.26.482,2.187,2.187,0,0,0-.067.573,2.692,2.692,0,0,0,.356,1.315,1.4,1.4,0,0,0,1.208.693,1.67,1.67,0,0,0,.792-.18,1.907,1.907,0,0,0,.7-.535l.4-.483.549-.794a17,17,0,0,0,.9-1.615,26.134,26.134,0,0,0,1.348-3.277,54.6,54.6,0,0,0,1.764-6.613,124.274,124.274,0,0,0,1.911-13.3,230.49,230.49,0,0,0,.825-26.664Z"/><path d="M193.189,301.67c.214,2.178.472,4.346.749,6.521l.819,6.585c.538,4.376,1.094,8.73,1.824,13.033a82.622,82.622,0,0,0,2.984,12.588,26.721,26.721,0,0,0,2.574,5.617,11.461,11.461,0,0,0,1.79,2.2c.968.8.631.512.722.585a1.568,1.568,0,0,1,.609.947,2.392,2.392,0,0,1-.053,1.373,1.466,1.466,0,0,1-1.015.938,1.946,1.946,0,0,1-1.6-.305c-.131-.114.358.327-1.1-.888a14.958,14.958,0,0,1-2.386-2.913,30.1,30.1,0,0,1-2.946-6.386,86.1,86.1,0,0,1-3.13-13.156c-.746-4.4-1.308-8.809-1.847-13.2l-.816-6.556c-.281-2.2-.544-4.421-.762-6.637Z"/><path class="c" d="M250.422,348.678l.2-.237a4.753,4.753,0,0,0,.368-.5,10.759,10.759,0,0,0,.657-1.052,20.6,20.6,0,0,0,1.066-2.241,39.083,39.083,0,0,0,1.528-4.722,87.722,87.722,0,0,0,1.868-9.75,183.62,183.62,0,0,0,1.56-19.8,277.383,277.383,0,0,0-1.767-39.657,166.945,166.945,0,0,0-3.521-19.539,107.538,107.538,0,0,0-6.333-18.8c-.653-1.522-1.441-2.982-2.173-4.465-.827-1.433-1.573-2.916-2.5-4.291a55.284,55.284,0,0,0-5.962-7.925,47.757,47.757,0,0,0-7.42-6.574l-2.1-1.331c-.352-.217-.695-.451-1.055-.654l-1.1-.566-1.1-.567-.552-.284-.277-.141c-.093-.032-.192.054-.288.076-.775.29-1.547.588-2.309.912a51.55,51.55,0,0,0-8.764,4.642,34.192,34.192,0,0,0-7.428,6.54,25.654,25.654,0,0,0-2.748,4.126,40.22,40.22,0,0,0-1.963,4.558,68.251,68.251,0,0,0-2.629,9.569c-1.346,6.487-2.137,13.069-3.171,19.609a190.3,190.3,0,0,0-1.638,39.624c.2,3.305.519,6.6.884,9.893L192.971,315c.814,6.569,1.647,13.15,3.112,19.611a52.219,52.219,0,0,0,2.985,9.458,19.346,19.346,0,0,0,2.52,4.263,10.035,10.035,0,0,0,1.759,1.742l.222.176.007,0,.015.01.03.018"/><path d="M267.345,293.117a78.47,78.47,0,0,0-10.5,9.42,68.665,68.665,0,0,0-8.473,11.3c-.582,1.026-1.238,2.011-1.757,3.072l-1.594,3.162a70.039,70.039,0,0,0-2.617,6.58l-.576,1.675c-.19.559-.318,1.137-.48,1.7-.292,1.144-.65,2.273-.885,3.43l-.683,3.477c-.132.576-.166,1.168-.252,1.752l-.178,1.425a1.746,1.746,0,0,0,1.565,2,1.859,1.859,0,0,0,2.01-1.575l.169-1.347c.08-.552.109-1.112.237-1.657l.645-3.285c.221-1.094.563-2.159.837-3.241.153-.536.272-1.083.452-1.611l.546-1.583a66.776,66.776,0,0,1,2.472-6.22L249.8,318.6c.489-1,1.115-1.936,1.664-2.908a65.173,65.173,0,0,1,8.037-10.713,74.762,74.762,0,0,1,9.988-8.964Z"/><path d="M180.941,297.549a48.912,48.912,0,0,1,6.5,2.949c1.028.616,2.1,1.162,3.068,1.871a35.459,35.459,0,0,1,2.9,2.106,52.816,52.816,0,0,1,9.843,10.27,61.838,61.838,0,0,1,6.993,12.32c.453,1.091.866,2.2,1.3,3.3l1.111,3.368c.305,1.142.634,2.278.917,3.427l.263,1.226a1.762,1.762,0,0,1-1.383,2.141,1.84,1.84,0,0,1-2.135-1.378l-.247-1.155c-.267-1.081-.578-2.152-.864-3.229l-1.048-3.177c-.411-1.037-.8-2.083-1.226-3.113a58.217,58.217,0,0,0-6.584-11.6,44.2,44.2,0,0,0-20.685-15.959Z"/><path class="c" d="M241.143,340.321l.28-2.241c.109-.854.316-1.693.469-2.54.177-.843.31-1.7.521-2.531l.673-2.5c.394-1.68,1.055-3.278,1.588-4.916.595-1.615,1.307-3.188,1.983-4.771a68.9,68.9,0,0,1,11.517-17.071,72.819,72.819,0,0,1,15.974-13.012c2.889-1.886,6.1-3.215,9.013-5.052a18.262,18.262,0,0,0,3.957-3.293,10.39,10.39,0,0,0,2.475-4.478,9.949,9.949,0,0,0-.113-5.107,16.274,16.274,0,0,0-2.207-4.646,32.645,32.645,0,0,0-7.16-7.394,47.519,47.519,0,0,0-18.491-8.878c-13.373-3.427-27.263-4.3-41.024-4q-10.334.228-20.641,1.1a78.857,78.857,0,0,0-20.132,4.432,46.765,46.765,0,0,0-9.223,4.619,33.255,33.255,0,0,0-7.456,7.1,29.022,29.022,0,0,0-4.85,9.066,16.367,16.367,0,0,0-.059,10.163,14.313,14.313,0,0,0,2.557,4.457,18.384,18.384,0,0,0,3.788,3.489,40.16,40.16,0,0,0,9.246,4.555c3.227,1.206,6.514,2.26,9.665,3.659a41.167,41.167,0,0,1,8.808,5.356,46.749,46.749,0,0,1,7.379,7.207,56.787,56.787,0,0,1,5.861,8.5,65.8,65.8,0,0,1,4.314,9.381c.542,1.635,1.116,3.261,1.531,4.934.232.83.456,1.662.619,2.508l.075.348"/><path class="a" d="M231.278,335.969c11.494-15.994,7.91-38.064-5.638-51.8-16.613,13.4-10.381,42.985-5.6,52.3"/><path d="M276.885,254.721a38.472,38.472,0,0,1-6.9,6.154,72.145,72.145,0,0,1-8.05,4.945c-2.795,1.494-5.693,2.833-8.624,4.127l-4.43,1.907-4.258,1.8a1.8,1.8,0,1,0,1.4,3.315l4.257-1.8,4.477-1.927c2.981-1.316,5.957-2.69,8.864-4.244a75.736,75.736,0,0,0,8.46-5.2,42.1,42.1,0,0,0,7.531-6.733Z"/><path d="M170.386,253.311a77.5,77.5,0,0,0,7.506,5.708q3.941,2.729,8.042,5.213t8.351,4.7q2.121,1.116,4.28,2.156l2.949,1.392a1.8,1.8,0,0,1-1.5,3.272L197,274.329q-2.208-1.067-4.38-2.206-4.344-2.274-8.545-4.811t-8.229-5.334c-1.346-.927-2.672-1.884-3.988-2.854a43.574,43.574,0,0,1-3.922-3.179Z"/><path class="c" d="M245.326,275.309l6.488-2.748c2.227-.956,4.446-1.934,6.634-2.978a81.641,81.641,0,0,0,12.588-7.246,43.488,43.488,0,0,0,5.566-4.667,26.472,26.472,0,0,0,4.439-5.731,11.456,11.456,0,0,0,1.624-6.96A9.648,9.648,0,0,0,279,238.9a40.564,40.564,0,0,0-12.966-6.409,76.8,76.8,0,0,0-14.259-2.753l-28.9-3.305a130.236,130.236,0,0,0-29.021.675c-4.793.69-9.647,1.123-14.332,2.408a25.254,25.254,0,0,0-6.671,2.828,18.248,18.248,0,0,0-5.257,4.951,15.605,15.605,0,0,0-2.845,6.622,10.771,10.771,0,0,0,.027,3.618,10.639,10.639,0,0,0,1.292,3.379,20.285,20.285,0,0,0,4.93,5.291c1.9,1.5,3.883,2.9,5.869,4.293,3.982,2.766,8.1,5.333,12.323,7.717,2.109,1.194,4.253,2.327,6.417,3.419,1.08.55,2.173,1.076,3.266,1.6l1.891.883"/><path d="M166.431,232.566a76.836,76.836,0,0,0,28.381,7.86q2.46.2,4.931.223c.823.008,1.645.023,2.468-.008l1.235-.03c.205,0,.411-.01.616-.024l.386-.022a1.782,1.782,0,0,0,1.708-1.9,1.82,1.82,0,0,0-1.886-1.694l-.368.021c-.195.014-.391.02-.587.023l-1.175.028c-.784.031-1.568.016-2.352.009q-2.351-.024-4.7-.213a73.244,73.244,0,0,1-27.02-7.476Z"/><path d="M278.632,235.653a21.276,21.276,0,0,1-4.781,2.186,40.859,40.859,0,0,1-4.915,1.154,76.149,76.149,0,0,1-9.8,1.122c-3.269.177-6.531.2-9.774.127q-2.432-.055-4.853-.154l-3.288-.144a1.8,1.8,0,1,1,.167-3.6l3.266.142c1.6.068,3.192.116,4.784.153,3.182.069,6.352.047,9.5-.122a72.5,72.5,0,0,0,9.346-1.069,37.721,37.721,0,0,0,4.465-1.041,17.723,17.723,0,0,0,3.964-1.805Z"/><path class="c" d="M204.359,238.767l-.677.038-.9.022c-.6.01-1.2.038-1.807.033-1.205-.007-2.411-.014-3.614-.08a75.17,75.17,0,0,1-14.294-2.038A74.539,74.539,0,0,1,169.425,232a21.911,21.911,0,0,1-6.16-3.719,8.363,8.363,0,0,1-2-2.973,6.991,6.991,0,0,1-.346-3.556,9.744,9.744,0,0,1,3.738-5.993,28.138,28.138,0,0,1,6.387-3.344,64.355,64.355,0,0,1,6.89-2.18c4.674-1.175,9.389-2.21,14.15-2.964a170.931,170.931,0,0,1,28.838-1.716,153.963,153.963,0,0,1,28.733,2.906,100.376,100.376,0,0,1,13.9,3.958c1.13.418,2.267.821,3.366,1.318s2.236.905,3.306,1.461a47.506,47.506,0,0,1,6.344,3.454,13.122,13.122,0,0,1,4.788,5.292,8.376,8.376,0,0,1,.832,3.485,6.7,6.7,0,0,1-1.045,3.411,9.368,9.368,0,0,1-2.473,2.6,15.434,15.434,0,0,1-3.117,1.815,28.607,28.607,0,0,1-6.938,1.96,84.014,84.014,0,0,1-14.39,1.249c-2.41.025-4.821-.017-7.23-.094l-5.686-.231"/><path class="a" d="M240.142,182.985a25.575,25.575,0,0,0-35.774.057"/><path d="M200.463,219.705l-.861,0a103.115,103.115,0,0,1-14.9-1.221,50.816,50.816,0,0,1-14.066-4.057,16.938,16.938,0,0,1-5.5-4.038,9.257,9.257,0,0,1-1.57-2.726l-.23-.741a4.591,4.591,0,0,1-.012-2.045,7.164,7.164,0,0,1,1.259-2.732,7.528,7.528,0,0,1,1.076-1.187l1.3-1.179a25.889,25.889,0,0,1,6.08-3.615,36.159,36.159,0,0,1,6.943-2.1,66.988,66.988,0,0,1,7.344-1.091c2.488-.253,5-.431,7.537-.608s5.121-.4,7.62-.625c5.037-.436,10.075-.786,15.113-.965a163.981,163.981,0,0,1,30.06,1.39,90.145,90.145,0,0,1,14.555,3.276,42.3,42.3,0,0,1,12.989,6.471,20.254,20.254,0,0,1,2.52,2.413,14.825,14.825,0,0,1,1.99,2.753,6.1,6.1,0,0,1,.863,2.791,3.943,3.943,0,0,1-.809,2.44,12.843,12.843,0,0,1-5.475,3.566,40.527,40.527,0,0,1-7.013,1.938,73.563,73.563,0,0,1-7.372.978q-3.737.335-7.49.441t-7.5-.034c-1.249-.05-2.5-.109-3.746-.2l-.626-.043a1.811,1.811,0,0,0-1.926,1.651,1.79,1.79,0,0,0,1.663,1.939l.644.045c1.286.091,2.573.152,3.861.2q3.864.136,7.73.035t7.717-.453a77.078,77.078,0,0,0,7.724-1.029,43.966,43.966,0,0,0,7.649-2.121,22.879,22.879,0,0,0,3.71-1.825,12.231,12.231,0,0,0,3.343-2.947,7.588,7.588,0,0,0,1.517-4.662,9.613,9.613,0,0,0-1.3-4.431,18.38,18.38,0,0,0-2.45-3.413,23.818,23.818,0,0,0-2.975-2.847,45.7,45.7,0,0,0-14.124-7.084A93.659,93.659,0,0,0,248.2,188.6a167.388,167.388,0,0,0-30.726-1.427c-5.113.182-10.211.536-15.292.975-2.559.23-5.03.447-7.564.621s-5.084.357-7.648.617a71.047,71.047,0,0,0-7.717,1.149,39.7,39.7,0,0,0-7.609,2.313A29.515,29.515,0,0,0,164.675,197l-1.521,1.374a10.937,10.937,0,0,0-1.469,1.637,10.743,10.743,0,0,0-1.886,4.142,8.494,8.494,0,0,0-.154,2.4,8.636,8.636,0,0,0,.194,1.217l.332,1.08a12.854,12.854,0,0,0,2.2,3.842,20.423,20.423,0,0,0,6.663,4.957,41.254,41.254,0,0,0,7.455,2.758,70.65,70.65,0,0,0,7.64,1.629A106.744,106.744,0,0,0,199.57,223.3l.9,0a1.783,1.783,0,0,0,1.8-1.821A1.818,1.818,0,0,0,200.463,219.705Z"/><path class="c" d="M240.415,220.745l.628.044c1.266.089,2.535.15,3.8.2q3.807.133,7.617.035t7.6-.447a75.46,75.46,0,0,0,7.548-1,42.188,42.188,0,0,0,7.331-2.029,14.447,14.447,0,0,0,6.266-4.166,5.761,5.761,0,0,0,1.168-3.549,7.843,7.843,0,0,0-1.077-3.612,16.585,16.585,0,0,0-2.219-3.084,22.1,22.1,0,0,0-2.746-2.631,44.011,44.011,0,0,0-13.556-6.78,91.909,91.909,0,0,0-14.845-3.345,165.6,165.6,0,0,0-30.393-1.41c-5.076.181-10.144.532-15.2.97-5.054.5-10.13.735-15.184,1.235a69.022,69.022,0,0,0-7.531,1.119,37.968,37.968,0,0,0-7.277,2.208,27.741,27.741,0,0,0-6.523,3.88,18.749,18.749,0,0,0-2.686,2.688,8.968,8.968,0,0,0-1.575,3.436,6.494,6.494,0,0,0,.3,3.742,10.975,10.975,0,0,0,1.884,3.285,18.634,18.634,0,0,0,6.077,4.5,52.478,52.478,0,0,0,14.58,4.224,105,105,0,0,0,15.17,1.244l.886,0"/><path class="d" d="M224.868,289.556c-.546-9.46-.694-18.323-1.87-27.9-1.338-10.888-.718-20.68-1.107-31.644"/><path d="M276.246,197.694A17.166,17.166,0,0,1,269,201.319a65.362,65.362,0,0,1-8.65,1.774c-2.944.431-5.916.739-8.885.934-1.485.1-2.969.163-4.449.186-.74.012-1.479.017-2.215,0-.369,0-.737-.007-1.1-.024l-.894-.033a1.825,1.825,0,0,0-1.882,1.683,1.777,1.777,0,0,0,1.71,1.912l.952.036c.39.018.778.023,1.166.026.778.015,1.552.009,2.325,0,1.547-.024,3.087-.091,4.623-.192q4.607-.3,9.171-.964A68.985,68.985,0,0,0,270,204.779a28.971,28.971,0,0,0,4.531-1.66,15.5,15.5,0,0,0,4.244-2.858Z"/><path d="M167.026,194.368c.26.205.491.435.772.622l.854.553c.531.381,1.243.715,1.863,1.074,1.287.694,2.609,1.323,3.948,1.915a52.777,52.777,0,0,0,8.312,2.808,53.431,53.431,0,0,0,8.658,1.411c1.458.126,2.922.17,4.384.164,1.3.01,3.548-.13,2.985-.1a1.821,1.821,0,0,1,1.909,1.656,1.78,1.78,0,0,1-1.68,1.937c.6-.034-1.8.117-3.195.106-1.564.007-3.13-.041-4.687-.175a57.092,57.092,0,0,1-18.117-4.5c-1.43-.632-2.843-1.3-4.22-2.046-.69-.4-1.358-.7-2.068-1.193l-1.049-.684c-.347-.234-.665-.533-1-.8Z"/><path class="c" d="M242.719,205.956l1.489.054,1.7.016c1.135-.006,2.27-.034,3.4-.078,2.268-.1,4.532-.272,6.79-.509a80.93,80.93,0,0,0,13.392-2.39,22.919,22.919,0,0,0,6.24-2.66,10,10,0,0,0,2.53-2.253,9.051,9.051,0,0,0,.929-1.422,8.4,8.4,0,0,0,.563-1.6,11.012,11.012,0,0,0-.671-6.663,13.439,13.439,0,0,0-4.1-5.341c-3.588-2.829-8-4.323-12.394-5.381a95.944,95.944,0,0,0-13.464-1.976c-9.047-.768-18.112-1.4-27.194-1.5-4.539-.055-9.081,0-13.617.2-4.534.225-9.065.519-13.595.823a118.25,118.25,0,0,0-13.516,1.622,67.926,67.926,0,0,0-6.614,1.608,31.475,31.475,0,0,0-6.312,2.516,12.582,12.582,0,0,0-4.864,4.639,8.144,8.144,0,0,0-.65,1.568,7.716,7.716,0,0,0-.217.822l-.092.846a3.539,3.539,0,0,0,.011.848,4.943,4.943,0,0,0,.092.844,7.154,7.154,0,0,0,.525,1.614,11.461,11.461,0,0,0,4.613,4.861,49.98,49.98,0,0,0,6.049,3.114A55.461,55.461,0,0,0,186.786,204a51.066,51.066,0,0,0,6.771.677c1.133.059,2.27.042,3.4.021l1.7-.066.255-.02"/><path d="M200.649,184.658l-.8-.114c-4.5-.614-8.931-1.221-13.325-2.045a77.6,77.6,0,0,1-12.795-3.348,21.147,21.147,0,0,1-5.472-2.89,5.7,5.7,0,0,1-1.638-1.94,3.054,3.054,0,0,1-.155-2.077,7.246,7.246,0,0,1,1.3-2.324,11.26,11.26,0,0,1,2.074-2.1,21.874,21.874,0,0,1,5.481-2.985c2.014-.817,4.179-1.425,6.271-2.132,1.052-.348,2.141-.582,3.209-.879,1.078-.265,2.136-.606,3.23-.809a121.3,121.3,0,0,1,26.525-2.766,161.571,161.571,0,0,1,26.676,2.459c4.4.823,8.785,1.721,13.111,2.871,1.082.288,2.17.55,3.246.858l3.221.943a45.587,45.587,0,0,1,6.169,2.148,13.716,13.716,0,0,1,4.872,3.441,10.208,10.208,0,0,1,.888,1.159c.123.2.274.392.378.592l.292.6a4.362,4.362,0,0,1,.36,2.32c-.176,1.48-1.548,2.906-3.2,3.994a21.6,21.6,0,0,1-5.716,2.448,50.792,50.792,0,0,1-12.971,1.462l-10.752-.031a1.791,1.791,0,0,0-1.774,1.842,1.811,1.811,0,0,0,1.825,1.758l10.738.031a54.173,54.173,0,0,0,13.908-1.6,25.1,25.1,0,0,0,6.7-2.892,13.921,13.921,0,0,0,2.962-2.566,7.842,7.842,0,0,0,1.835-3.9,7.949,7.949,0,0,0-.61-4.293l-.45-.923c-.159-.3-.352-.56-.528-.84a13.592,13.592,0,0,0-1.172-1.531,17.3,17.3,0,0,0-6.095-4.353,48.789,48.789,0,0,0-6.626-2.32l-3.289-.963c-1.1-.313-2.208-.582-3.312-.875-4.415-1.174-8.894-2.091-13.384-2.931a165.145,165.145,0,0,0-27.294-2.514,124.8,124.8,0,0,0-27.33,2.855c-1.131.211-2.232.563-3.349.838-1.11.308-2.236.552-3.331.914-2.192.738-4.389,1.354-6.569,2.235-4.305,1.72-9.044,4.36-10.992,9.8a6.7,6.7,0,0,0,.352,4.534,9.164,9.164,0,0,0,2.644,3.236,24.432,24.432,0,0,0,6.454,3.457,80.9,80.9,0,0,0,13.417,3.523c4.5.844,9.026,1.463,13.489,2.073l.786.111a1.828,1.828,0,0,0,2.035-1.5A1.775,1.775,0,0,0,200.649,184.658Z"/><path class="c" d="M241.155,185.315l10.739.031a52.479,52.479,0,0,0,13.439-1.528,23.357,23.357,0,0,0,6.209-2.668,12.18,12.18,0,0,0,2.559-2.206,6.044,6.044,0,0,0,1.442-3.021,6.149,6.149,0,0,0-.481-3.306,11.207,11.207,0,0,0-1.852-2.824,15.5,15.5,0,0,0-5.482-3.9,47.057,47.057,0,0,0-6.4-2.235l-3.255-.953c-1.087-.311-2.186-.577-3.278-.867-4.371-1.162-8.8-2.07-13.249-2.9a163.435,163.435,0,0,0-26.984-2.487,123.021,123.021,0,0,0-26.928,2.81c-1.112.206-2.192.553-3.289.822-1.089.3-2.2.543-3.27.9-2.142.722-4.323,1.334-6.42,2.183a23.619,23.619,0,0,0-5.931,3.243,13.006,13.006,0,0,0-2.378,2.4,8.98,8.98,0,0,0-1.62,2.952,4.884,4.884,0,0,0,.25,3.305,7.41,7.41,0,0,0,2.139,2.59,22.771,22.771,0,0,0,5.962,3.176,79.238,79.238,0,0,0,13.1,3.436c4.445.834,8.927,1.447,13.407,2.059l.8.113"/><path d="M168.137,161.839a14.246,14.246,0,0,0,3.766,2.443,27.954,27.954,0,0,0,3.937,1.492,59.464,59.464,0,0,0,7.955,1.772c2.656.426,5.312.742,7.963.991l3.969.343,3.745.3a1.84,1.84,0,0,0,1.946-1.6,1.765,1.765,0,0,0-1.634-1.981l-3.774-.3-3.911-.337c-2.6-.244-5.18-.553-7.731-.962a55.685,55.685,0,0,1-7.472-1.66,24.4,24.4,0,0,1-3.452-1.3,10.72,10.72,0,0,1-2.853-1.823Z"/><path d="M273.775,162.609a10.964,10.964,0,0,1-3.371,3.216,21.116,21.116,0,0,1-3.872,1.947,38.473,38.473,0,0,1-8.07,1.927c-2.693.372-5.368.559-8.014.721l-3.947.23-2.66.185A1.818,1.818,0,0,1,241.9,169.2a1.784,1.784,0,0,1,1.648-1.957l2.731-.19,3.949-.23c2.615-.16,5.205-.344,7.736-.694a35.009,35.009,0,0,0,7.286-1.726,17.55,17.55,0,0,0,3.181-1.6,7.406,7.406,0,0,0,2.327-2.171Z"/><path class="c" d="M199.628,167.383l-5.73-.46c-1.97-.168-3.938-.362-5.9-.6a69.729,69.729,0,0,1-11.629-2.268,23.64,23.64,0,0,1-5.436-2.332,9.5,9.5,0,0,1-2.246-1.915,5.029,5.029,0,0,1-1.219-2.654l-.059-.365c0-.123.007-.247.009-.371.014-.246.009-.5.037-.74a7.775,7.775,0,0,1,.383-1.428,8.332,8.332,0,0,1,1.442-2.574,15.114,15.114,0,0,1,4.636-3.637,78.768,78.768,0,0,1,22.5-7.249,108.559,108.559,0,0,1,23.644-1.279c7.888.531,15.805.84,23.638,1.961,7.789,1.135,15.647,3.153,22.315,7.483a21.566,21.566,0,0,1,4.59,3.727,9.391,9.391,0,0,1,2.635,5.2,6.271,6.271,0,0,1-2.241,5.247,16.215,16.215,0,0,1-5.1,2.963,44.236,44.236,0,0,1-11.609,2.255c-1.97.171-3.945.282-5.919.394l-2.96.179-1.709.124"/><path d="M176.626,146.041a18.283,18.283,0,0,0,7.38,3.893,37.788,37.788,0,0,0,7.876,1.174c2.6.135,5.158.115,7.662.147,1.247.024,2.49.046,3.71.125.614.029,1.219.083,1.822.141.3.023.6.058.9.1l.73.094a1.84,1.84,0,0,0,2.031-1.481,1.765,1.765,0,0,0-1.517-2.082l-.805-.1c-.329-.046-.658-.084-.985-.11-.657-.063-1.312-.121-1.962-.152-1.306-.084-2.594-.107-3.876-.13-2.556-.032-5.064-.015-7.517-.142a34.258,34.258,0,0,1-7.113-1.051,14.7,14.7,0,0,1-5.94-3.109Z"/><path d="M265.934,144.724a15.063,15.063,0,0,1-3.331,2.726,13.944,13.944,0,0,1-1.945.971c-.645.229-1.284.5-1.937.678a38.1,38.1,0,0,1-7.826,1.42c-2.595.228-5.163.3-7.7.362l-3.779.095-2.548.111a1.822,1.822,0,0,1-1.9-1.672,1.779,1.779,0,0,1,1.692-1.922l2.64-.115,3.81-.1c2.521-.059,5.015-.133,7.463-.349a34.6,34.6,0,0,0,7.086-1.274c.572-.149,1.095-.385,1.644-.574a10.335,10.335,0,0,0,1.447-.723,11.453,11.453,0,0,0,2.522-2.063Z"/><path class="c" d="M206.963,149.934l-1.238-.161-1.417-.13c-.947-.067-1.894-.118-2.843-.145-1.9-.058-3.8-.054-5.693-.078a44.127,44.127,0,0,1-11.288-1.221,18.912,18.912,0,0,1-5.168-2.331,13.171,13.171,0,0,1-3.892-4.088,9.15,9.15,0,0,1-1.287-5.44,9.775,9.775,0,0,1,2.136-5.186,13.574,13.574,0,0,1,.945-1.062l.485-.521.547-.456,1.1-.907,1.184-.791c.4-.26.785-.533,1.188-.784l1.248-.684c.418-.223.826-.467,1.254-.672l1.3-.582a46.373,46.373,0,0,1,10.9-3.167c7.5-1.276,15.134-1.227,22.712-1.016,3.793.1,7.591.217,11.367.618a108.6,108.6,0,0,1,22.254,4.638,36.058,36.058,0,0,1,10.307,4.721,10.552,10.552,0,0,1,3.619,4.3,7.3,7.3,0,0,1-.036,5.547,12.692,12.692,0,0,1-8.456,7.042,44.994,44.994,0,0,1-11.244,1.586c-1.9.081-3.793.116-5.691.16l-2.845.087-1.645.078"/><path d="M178.619,122.321a12.691,12.691,0,0,0,5.139,5.156,26,26,0,0,0,6.319,2.482,43.35,43.35,0,0,0,6.5,1.157c1.089.1,2.178.186,3.271.224.545.033,1.095.021,1.642.034q.41.009.823,0l.674-.015a1.762,1.762,0,0,0,1.743-1.89,1.844,1.844,0,0,0-1.851-1.709l-.618.014q-.376.014-.758,0c-.507-.013-1.013,0-1.521-.032-1.015-.035-2.028-.116-3.039-.207a39.9,39.9,0,0,1-5.947-1.057,22.514,22.514,0,0,1-5.43-2.116,9.154,9.154,0,0,1-3.718-3.639Z"/><path d="M261.156,128.311a18.732,18.732,0,0,1-6.412,2.775,47.42,47.42,0,0,1-6.465,1.16q-3.231.374-6.459.472c-1.077.035-2.155.047-3.236.042-.963,0-2.634-.074-2.242-.059a1.756,1.756,0,0,1-1.711-1.93,1.855,1.855,0,0,1,1.878-1.667c-.365-.013,1.183.054,2.105.056,1.027,0,2.058-.006,3.089-.041,2.062-.064,4.121-.213,6.157-.448a43.656,43.656,0,0,0,5.979-1.07,15.457,15.457,0,0,0,5.153-2.167Z"/><path class="c" d="M202.93,129.556l-1.041.023-1.186-.015c-.791-.012-1.581-.058-2.37-.106-1.577-.119-3.151-.292-4.709-.568a28.145,28.145,0,0,1-8.963-2.97,13.35,13.35,0,0,1-3.594-3.056,9.124,9.124,0,0,1-1.127-2.076,5.9,5.9,0,0,1-.238-2.343,8.332,8.332,0,0,1,1.824-4.31,21.078,21.078,0,0,1,3.528-3.154,27.931,27.931,0,0,1,8.634-3.821,52.405,52.405,0,0,1,9.36-1.484,131.307,131.307,0,0,1,18.962-.116,100.024,100.024,0,0,1,18.673,3.231,94.519,94.519,0,0,1,9.017,2.944,30.165,30.165,0,0,1,8.224,4.653,15.157,15.157,0,0,1,3.142,3.528,5.5,5.5,0,0,1,.917,4.5,5.058,5.058,0,0,1-1.3,1.957,9.6,9.6,0,0,1-1.951,1.337,20.676,20.676,0,0,1-4.441,1.637,53.605,53.605,0,0,1-9.372,1.41q-2.365.168-4.74.2c-.79.013-1.581.008-2.372-.007l-1.382-.044"/><path class="b" d="M357.118,310.237c-5.583-8.762-10.062-19.077-13.282-24.842-18.787-33.636-27.615-69.618-40.205-105.678-6-17.19-12.653-39.558-25.556-52.921a53.1,53.1,0,0,0-19.44-13.226c-30.75-12.416-68.838-13.859-95.2,9.177-15.87,13.869-22,33.174-29.508,52.867a627.058,627.058,0,0,1-35.185,76.693q-10.317,18.929-22.009,37.06c-5.258,8.146-13.219,21.5-23.721,23.1-6.3.961-13.159-2.4-15.814-8.195-5.538-12.086,8.817-18.652,15.268-26.108,20.335-23.5,34.764-50.374,47.5-78.547,10.741-23.767,21.37-47.952,37.577-68.385,26.824-33.818,62.528-47.322,104.732-38.412,33.956,7.169,56.645,29.819,71.807,60.673,7.936,16.15,13.329,33.381,17.9,50.741a227.974,227.974,0,0,0,16.865,44.417c8.274,16.9,17.985,33.164,29.9,47.771,4.1,5.032,8.617,10.394,9.049,16.873.449,6.736-6.066,13.262-12.926,12.386C368.126,324.821,362.171,318.165,357.118,310.237Z"/><path d="M191.873,102.923a7.61,7.61,0,0,0,1.193,4.915,11.119,11.119,0,0,0,3.335,3.3,16.979,16.979,0,0,0,3.982,1.917,19.746,19.746,0,0,0,2.092.584c.351.089.708.14,1.061.211l.976.144a1.746,1.746,0,0,0,2.016-1.645,1.872,1.872,0,0,0-1.573-1.927l-.812-.121c-.294-.06-.593-.1-.883-.175a16.22,16.22,0,0,1-1.724-.482,13.365,13.365,0,0,1-3.145-1.506,7.573,7.573,0,0,1-2.279-2.215,3.987,3.987,0,0,1-.658-2.635Z"/><path d="M248.135,103.472a8.764,8.764,0,0,1-.269,4.945,9.464,9.464,0,0,1-2.973,3.872,14.267,14.267,0,0,1-4.029,2.114c-.7.2-1.409.427-2.12.564l-1.493.267a1.769,1.769,0,0,1-2.033-1.618,1.837,1.837,0,0,1,1.552-1.949l1.235-.223c.586-.111,1.142-.3,1.708-.452a10.731,10.731,0,0,0,2.966-1.542,5.913,5.913,0,0,0,1.824-2.317,5.181,5.181,0,0,0,.124-2.856Z"/><path class="c" d="M204.734,112.2l-.65-.093c-.245-.034-.487-.088-.731-.131-.486-.1-.971-.2-1.446-.344a17.465,17.465,0,0,1-2.786-1.029,10.674,10.674,0,0,1-4.532-3.729,6.123,6.123,0,0,1-.951-2.785,6.444,6.444,0,0,1,.523-2.9,12.832,12.832,0,0,1,3.663-4.615,27.687,27.687,0,0,1,10.565-5.252,43.157,43.157,0,0,1,11.763-1.483A42.02,42.02,0,0,1,231.88,91.56a26.02,26.02,0,0,1,10.319,5.7,16.618,16.618,0,0,1,3.518,4.751,7.479,7.479,0,0,1,.467,5.762,8.284,8.284,0,0,1-4.075,4.144,9.4,9.4,0,0,1-1.359.6,10.248,10.248,0,0,1-1.414.452,9.961,9.961,0,0,1-1.45.324l-.876.157"/><path class="b" d="M359.481,289.986c-18.789-24.219-24.92-53.71-33.344-82.371C318.015,179.978,305.7,148.3,287,125.923c-16.979-20.315-46.333-28.9-71.967-28.508-54.847.846-78.776,45.96-98.4,91.019a872.206,872.206,0,0,1-50.972,99.434"/><path class="a" d="M376.318,363.357c-4.145-8.006-9.746-16.035-13.021-24.394-2.8-7.146-7.691-16.91-4.413-24.665"/><path class="a" d="M40.339,353.877l10.292-17.316c2.715-4.568,6.1-8.513,8.761-12.978,2.668-4.48,3.928-10.894,3.7-16.112"/><path class="a" d="M425.635,314.327c-24.38-4.12-44.183-11.95-65.581-24.341"/><path class="a" d="M241.729,198.793a25.069,25.069,0,0,0-40.094.467"/><path class="a" d="M399.968,302.4c-13.307-7.714-33.538-19.558-40.679-33.731"/><path class="a" d="M237.994,166.172a23.2,23.2,0,0,0-33.5-.014"/><path class="a" d="M244.875,244.063c-4.143-1.6-7.009-5.315-9.928-8.662s-7.922-7.35-12.352-7.64c-9.033-.594-11.831,11.636-19.578,17"/><path class="a" d="M234.154,127.736a20.86,20.86,0,0,0-28.346-.61"/><path class="a" d="M301.073,117.331c-20.162-20.653-53.45-28.185-81.425-29.194-28.092-1.013-58.246,5.282-80.029,24.029"/><path class="a" d="M263.579,89c-16.961-1.171-28.865-12-33.731-27.843-1.3-4.234-2.051-8.642-3.688-12.757-2.375-5.971-7.954-13.277-13.36-6.182-3.4,4.456-3.615,11.156-4.64,16.449-1.643,8.486-3.182,16.753-10.675,22.18a40.128,40.128,0,0,1-23.392,7.567"/><path class="a" d="M232.037,113.3a16.4,16.4,0,0,0-23.673-2.07"/><path class="a" d="M401.99,354.909a77.422,77.422,0,0,0-17.6-31.524c-8.806-9.742-18.487-21.864-24.912-33.4"/><path class="a" d="M417.735,349.519c-8.49-18.223-27.5-38.871-43.013-51.656"/><path class="a" d="M388.157,361.086c0-12.2-7.915-22.685-13.948-32.758-6.868-11.468-11.817-25.255-15.127-38.207"/><path class="a" d="M358.312,626.724c-15.018,3.333-46.627,9.822-55.1-8.4-1.905-4.1-2.527-8.652-3.127-13.129-1.831-13.66-3.48-26.56-4.036-40.277-.524-12.893-2.2-25.7-3.155-38.565-1.217-16.317-.565-33.6,4.022-49.424"/><path class="a" d="M356.492,615.349c-17.811,6.268-41.993,2.141-48.957-17.457"/><path class="b" d="M174.254,440.021c-1.48,4.662-3.2,10.834-6.586,14.46-4.61,4.941-9.028,8.09-11.963,14.654a66.565,66.565,0,0,0-4.965,20.655c-2.4,24.246-4.839,48.214-6.081,72.575-.6,11.759-.254,23.988-1.889,35.795"/><path class="a" d="M238.77,356.742c4.036-6.061,8.056-5.1,13.523-10.2"/><path class="a" d="M214.856,357.851c-2.537-5.586-8.064-9.416-13.854-11.444"/><path class="a" d="M66.152,287.868c-1.857,3.111-4.229,6.218-6.133,9.323-5.346,8.716-13.1,15.669-18.943,23.946-6.508,9.225-11.752,18.284-13.979,29.533"/><path class="a" d="M65.659,287.868c-12.252,6.829-22.293,16.346-32.724,25.476a68.184,68.184,0,0,0-20.676,32.719"/><path class="a" d="M36.627,293.3c-17.377,8-32.015,22.637-35.467,42.039"/><path class="a" d="M65.659,287.868c-10.412.9-20.64,3.083-30.926,4.843s-23.183,4.133-33.5,1.272"/><path class="a" d="M53.558,276.094c-8.14,6.143-19.806,10.77-29.809,12.522"/><path class="a" d="M271.557,472.3c-1.448-13.354-3.91-26.2-12.993-36.092"/><path class="a" d="M224.151,330.175a44.535,44.535,0,0,1-8.534-8.777"/><path class="a" d="M230.188,329.37A32.969,32.969,0,0,0,237.5,321.4"/><path class="a" d="M230.811,316.835c0-6.688-4.321-26.311-5.943-26.311-1.187,0-3.7,20.876-3.7,25.75"/><path class="a" d="M269.609,425.642a103.3,103.3,0,0,1-10.357-34.968"/><path class="a" d="M269.348,618.965a473.789,473.789,0,0,0,3.277-51.167"/><path class="a" d="M281.268,562.682c1.91-9.612-7.732-18.185-10.339-27.664"/><path class="a" d="M276.491,504.328c1.467-4.306-1.254-8.9-4.378-12.206S265.2,485.8,263.8,481.468"/><path class="a" d="M279.767,538.385c-.207-10.563-5.03-17.943-11.53-25.922"/><path class="a" d="M276.738,329.431c.369,7.256,3.337,12.4,7.739,18.173,6.583,8.639,6.967,18.963,9.443,29.027"/><path class="a" d="M170.708,329.509c.443,6.3.174,12.5-1.8,18.529-2.812,8.6-8.506,15.686-10.775,24.7"/><path class="a" d="M281.7,416.331a35,35,0,0,0,4.185-18.267"/><path class="a" d="M172.308,415.555c-2.2-5.1-4.753-11.517-4.5-17.131"/><path class="a" d="M293.571,394.069c-.951-8.757-6.463-14.474-13.511-18.959"/><path class="a" d="M159.815,390.036c1.335-7.829,7.088-16.435,13.731-20.89"/><path class="a" d="M183.994,422.16c5.994-6.547,9.078-17.215,9.417-25.914"/><path class="a" d="M180.884,469.5a63.668,63.668,0,0,1,9.082-31.03c1.435-2.379,3.084-4.845,3.08-7.623"/><path class="a" d="M175.572,497.139a33.162,33.162,0,0,1,13.475-21.3"/><path class="a" d="M173.538,530.354a26.091,26.091,0,0,1,4.381-12.95c2.194-3.272,6.813-6.508,7.029-10.727"/><path class="a" d="M179.8,563.67c-1.573,13.385-2.1,35.872,1.058,49.088"/><path class="a" d="M171.528,560.624c-1.213-5.471,1.486-10.207,5.142-14.1,2.574-2.74,5.362-5.9,5.175-9.656"/><path class="a" d="M252.293,346.54c-10.471,26.129-6.248,55.29-.539,82.141"/><path class="a" d="M244.481,412.68a9.55,9.55,0,0,0,3.238-5.866"/><path class="a" d="M199.587,426.486c6.529-25.357,9.242-50.269,3.9-75.816"/><path class="a" d="M203.847,407.5c1.446,1.687,2.946,3.826,5.254,4.418"/><path class="a" d="M240.922,373.294a44.224,44.224,0,0,1,10.481-25.53"/><path class="a" d="M212.377,372.193c-1.959-9.158-3.735-20.064-10.954-24.059"/><path class="a" d="M232.673,81.75a21.418,21.418,0,0,0-24.869.123"/><path class="a" d="M229.185,71.3a13.881,13.881,0,0,0-17.9-2.469"/><path class="a" d="M192.337,13.035A45.737,45.737,0,0,1,158.879.88"/><path class="a" d="M191.085,16.238a39.315,39.315,0,0,1-37.044-7.9"/><path class="a" d="M191.9,18.851a42.088,42.088,0,0,1-33.977,4.486"/><path class="a" d="M196.582,22.474l-1.62,18.919c-.379,4.423-.8,8.995-2.941,12.885s-6.49,6.932-10.854,6.119"/><path class="a" d="M202.665,25.205c.306,11.631.6,23.39-1.806,34.773a16.33,16.33,0,0,1-2.792,6.974c-1.581,1.972-4.269,3.258-6.682,2.5"/><path class="a" d="M173.352,40.546c3.189,4.429,9.748,5.2,14.873,3.321s9.194-5.78,13.238-9.444,8.458-7.309,13.8-8.444a41.14,41.14,0,0,0,6.161-1.709"/><path class="a" d="M205.17,23.424c-3.4-1.611-7.441.422-10.162,3.021s-4.944,5.875-8.319,7.539c-2.668,1.315-5.74,1.457-8.712,1.575"/><path class="a" d="M196.236,19.968a64.013,64.013,0,0,1-43.949,8.786"/><path class="a" d="M291.437,318.42a55.508,55.508,0,0,0-8-23.176"/><path class="a" d="M158.011,319.709a58.424,58.424,0,0,1,6.5-19.124"/><path class="a" d="M356.872,640.269c-26.854,5.764-48.8-16.729-50.164-42.377"/><path class="a" d="M268.426,558.611a41.924,41.924,0,0,1,2.384-23.506"/><path class="a" d="M188.016,565.144c1.573-8.727-1.376-17.608-5.732-25.163"/><path class="a" d="M357.949,632.853c-8.606,2.5-18.224,1.969-26.124-2.263"/><path class="a" d="M319.506,635.491c-11.487,2.673-30.359,5.711-39.332-4.434-2.6-2.945-4.058-7.527-2.665-11.352,2.609-7.167,6.1-10.488,7.646-20.537"/><path class="a" d="M303.391,628.959a11.972,11.972,0,0,1-11.8-2.856c-6.479-6.435-6.582-17.189-5.544-26.935"/><path class="a" d="M358.677,620.649c-11.6,3.807-24.07,3.992-33.514-5.019"/><path class="a" d="M274.464,458.66c.164.064-5.062-2.816-6.751-6.339"/><path class="a" d="M182.849,455.491c-1.374,2.4-3.415,3.049-6.143,3.488"/><path class="a" d="M349.568,260.668c-4.136-2.123-8.768-8.216-11.326-12.163"/><path class="a" d="M327.413,157.694c-8.685-16.5-20.164-27.646-35.892-37.6"/><path class="a" d="M148.9,117.716c-14.977,6.36-24.179,17.364-34.331,29.53"/><path class="a" d="M85.665,251.7l-9.428,4.713"/><path class="a" d="M82.308,271.849a60.772,60.772,0,0,1-.385-12.732"/><path class="a" d="M343.283,273.465c.186-2.392-.322-9.644-.136-12.036"/><path class="a" d="M137.1,130.989c-42.163,36.118-46.143,97.958-86.3,135.193"/><path class="a" d="M143.183,598.16c.3,12.165-6.723,25.213-16.387,32.607-9.924,7.592-23.84,11.185-35.915,7.323"/><path class="a" d="M171.494,461.322c-9.074,13.5-11.346,28.859-13.867,44.538q-4.206,26.16-8.579,52.293c-1.452,8.673-2.94,17.425-6.238,25.577-2.7,6.67-7.31,14.492-13.6,18.406-7.214,4.488-18.716,3.8-26.8,2.131"/><path class="a" d="M115.035,628.91c-8.3,3.744-16.438,4.6-25.248,1.342"/><path class="a" d="M142.266,598.193c-4.724,18.643-31.857,18.534-46.346,14.234"/><path class="a" d="M93.726,617.278c10.475,3.823,22,6.046,30.513-2.956"/><path class="a" d="M152.816,480.434c-.053,9.618,3.555,18.758,3.781,28.108.276,11.446-.755,23.083-1.129,34.529-.348,10.656-1.3,21.491-1.157,32.135.154,11.091,3.5,22.4,2.721,33.446-.31,4.377-1.679,8.813-4.623,12.067-6.807,7.523-19.773,7.458-29.143,7.688a113.221,113.221,0,0,1-34.521-4.488"/><path class="a" d="M170.625,602.237c1.9,7.768,6.687,21.3,7.644,24.407,5.2,16.9-30.12,14.585-39.321,12.586"/><path class="a" d="M169.689,602.237c2.124,6.775,2.955,15.168-.317,21.662-4.076,8.09-13.538,8.213-21.778,8.162"/><path class="a" d="M281.241,241.419c16.773,11.965,22.32,32.377,16.447,51.647"/><path class="a" d="M149.841,291.122c-4.174-18.645,3.146-40.891,17.3-53.506"/><path class="a" d="M273.887,338.625c2.829,17.289,4.662,34.659,9.81,51.472,4.623,15.1,6.115,27.94,3.894,43.811"/><path class="a" d="M164.635,432.935c-1.231-16.829,2.478-31.3,5.845-47.387,3.3-15.76,5.774-30.342,4.632-46.626"/><path class="a" d="M55.987,312.8c1.028,5.1-1.483,10.219-4.343,14.564-5.364,8.149-10.146,16.381-15.5,24.575"/><path class="a" d="M33,349.376c1.088-5.025,6.107-8.706,9.591-12.172,1.673-1.664,3.423-3.51,5.587-4.448"/><path class="a" d="M379.355,362.647c-3.634-6.553-6.288-13.178-9.259-19.911-3.381-7.663-8.012-14.7-6.146-23.523"/><path class="a" d="M382.91,359.437c-1.632-7.645-7.34-11.4-12.644-16.416"/><path class="a" d="M393.445,359c-1.181-7.575-6.153-13.171-11.69-18.246"/><path class="a" d="M406.533,353.277c-1.155-7.5-7.185-14.048-13.292-18.213"/><path class="a" d="M22,348.986c2.012-7.28,6.5-13.113,12.576-17.761"/><path class="a" d="M9.753,341.534a23.244,23.244,0,0,1,14.079-18.485"/><path class="a" d="M94.009,248.412a29.871,29.871,0,0,1,15.384-16.393"/><path class="a" d="M107.1,223.384a162.677,162.677,0,0,0,13.248-27.04c1.565-4.119,3.617-8.661,4.272-13.035.753-5.019.323-9.858,1.745-14.874"/><path class="a" d="M322.926,218.391c-5.945-18.554-11.773-35.373-11.89-52.478"/><path class="a" d="M329.37,238.335c-3.457-4.806-5.819-8.955-10.627-12.452"/></svg>