<svg xmlns="http://www.w3.org/2000/svg" viewBox="0 0 28 69"><defs><style>.a{fill:#78baef;stroke:#000;stroke-linecap:round;stroke-linejoin:round;stroke-width:3.842px;}</style></defs><title>HowPainWorks</title><path class="a" d="M5.108,30.7A10.069,10.069,0,0,0,2.465,34.25a4.043,4.043,0,0,0,.615,4.181c1.51,1.559,4.1,1.085,6.127.321a37.613,37.613,0,0,0,11.986-7.315c3.621-3.281,6.077-9.777-.446-10.288C15.948,20.773,8.247,27.689,5.108,30.7Z"/><path class="a" d="M22.215,46.228a8.119,8.119,0,0,0,2.831-6.919c-.231-2.584-2.051-5.593-4.888-4.96a12.1,12.1,0,0,0-3.575,1.646,89.468,89.468,0,0,0-8.11,5.589c-5.273,4.082-2.205,11.943,4.6,9.494C16.04,50.012,19.717,48.552,22.215,46.228Z"/><path class="a" d="M18.152,49.551a17.663,17.663,0,0,0-9.28,9.724c-.808,2.1-.877,5.065,1.171,6.007,1.342.617,2.9,0,4.242-.617a23.754,23.754,0,0,0,6.841-4.123c1.923-1.86,3.213-4.6,2.641-7.215s-3.466-4.7-5.988-3.811"/><path class="a" d="M7.759,22.333c3.822,1.859,8.2-1.389,11.654-2.655a9.114,9.114,0,0,0,6.4-7.969,9.874,9.874,0,0,0-4.44-8.96C20.383,5.54,18.052,7.64,15.6,9.291S10.458,12.28,8.213,14.21c-1.371,1.179-2.628,2.732-2.657,4.54A4.008,4.008,0,0,0,7.759,22.333Z"/></svg>