<svg xmlns="http://www.w3.org/2000/svg" viewBox="0 0 497 227"><defs><style>.a{fill:#fff;}</style></defs><title>HowPainWorks</title><path class="a" d="M436.05,112.744a66.356,66.356,0,0,0-24.26,4.542A67.993,67.993,0,0,0,330,85.618a76.286,76.286,0,0,0-104.25-41.625A81.305,81.305,0,0,0,76.723,107.715C34.514,108.5.631,133.178.63,163.523c0,68,111.36,62.306,154.211,59.021a1135.306,1135.306,0,0,1,187.636,1.174c45.078,4.024,153.639,13.1,153.639-57.661C496.116,136.613,469.224,112.744,436.05,112.744Z"/></svg>