<svg id="Layer_1" data-name="Layer 1" xmlns="http://www.w3.org/2000/svg" viewBox="0 0 45 50"><defs><style>.cls-1{fill:#fcdd5e;}</style></defs><title>HowPainWorksScene5</title><path class="cls-1" d="M29.341,45.456a2.2,2.2,0,0,0-.5-1.858,4.011,4.011,0,0,0-2.224-1.207,8.064,8.064,0,0,0-4.481.249,8.269,8.269,0,0,0-5.943-5.973c-.275-.064-2.668-.4-2.731-.013a6.332,6.332,0,0,0-1.106-4.064,3.831,3.831,0,0,0,2.682-5.214,3.5,3.5,0,0,0,3.7-4.68,6.582,6.582,0,0,0,3.054-4.748,9.9,9.9,0,0,0,4.755-.188c1.687-.48,2.257-1.383,3.331-2.733a.93.93,0,0,1,.269-.258c.3-.158.648.037.937.206,4.476,2.611,9.154-.6,11.445-4.456,1.244-2.1,3.531-6.015,1.35-8.06C42.3.977,38.851.684,36.833.644a25.921,25.921,0,0,0-8.042,1.12A25.586,25.586,0,0,0,23.1,4.277,14.57,14.57,0,0,0,20.608,6c-.394.369-.912,1.534-1.557,1.508-4-.193-8.115,4.4-10.709,6.927C6.2,16.52,4.1,18.951,3.705,21.916a12.86,12.86,0,0,0-3.64,9.45,19.444,19.444,0,0,0,.826,4.785,3.957,3.957,0,0,0,1.116,1.964c.133.12,1.8,1.043,1.8.886a7.747,7.747,0,0,0,6.642,7.329c.376.043,1.231,1.01,1.594,1.247a12.394,12.394,0,0,0,2.082,1.084,18.038,18.038,0,0,0,4.51,1.107c2.566.335,5.415.381,7.773-.844A5.76,5.76,0,0,0,29.341,45.456Z"/></svg>