<svg xmlns="http://www.w3.org/2000/svg" viewBox="0 0 1000 260"><defs><style>.a{fill:#00a57a;}.b{fill:#008b5c;}.c{fill:#a6a8ab;}.c,.e,.f,.g,.h,.i,.j,.k{stroke:#000;stroke-linecap:round;stroke-linejoin:round;}.c,.e{stroke-width:5.122px;}.d{fill:#808184;}.e,.g{fill:none;}.f{fill:#231f20;stroke-width:5.006px;}.g,.h,.i,.j,.k{stroke-width:3.842px;}.h{fill:#c3996b;}.i{fill:#828282;}.j{fill:#ffdd15;}.k{fill:#929497;}</style></defs><title>HowPainWorks</title><path class="a" d="M1098.23,7.278h0a2.769,2.769,0,0,0-2.769,2.769V32.2a2.77,2.77,0,0,1-2.77,2.77h0a2.77,2.77,0,0,1-2.769-2.77V26.388a2.77,2.77,0,0,0-2.77-2.77h0a2.77,2.77,0,0,0-2.77,2.77v14.4a2.769,2.769,0,0,1-2.769,2.769h0a2.77,2.77,0,0,1-2.77-2.769V20.018a2.77,2.77,0,0,0-2.769-2.77h0a2.77,2.77,0,0,0-2.77,2.77V28.88a2.77,2.77,0,0,1-2.769,2.77h0a2.77,2.77,0,0,1-2.77-2.77V17.248a2.77,2.77,0,0,0-2.77-2.769h0a2.769,2.769,0,0,0-2.769,2.769V43.005a2.77,2.77,0,0,1-2.77,2.77h0a2.77,2.77,0,0,1-2.769-2.77V8.662a2.77,2.77,0,0,0-2.77-2.769h0a2.77,2.77,0,0,0-2.77,2.769v28.25a2.769,2.769,0,0,1-2.769,2.77h0a2.77,2.77,0,0,1-2.77-2.77V26.388a2.77,2.77,0,0,0-2.769-2.77h0a2.77,2.77,0,0,0-2.77,2.77v14.4a2.769,2.769,0,0,1-2.769,2.769h0a2.77,2.77,0,0,1-2.77-2.769V23.064a2.77,2.77,0,0,0-2.77-2.769h0a2.769,2.769,0,0,0-2.769,2.769V40.79a2.77,2.77,0,0,1-2.77,2.769h0a2.769,2.769,0,0,1-2.769-2.769V16.417a2.77,2.77,0,0,0-2.77-2.769h0a2.77,2.77,0,0,0-2.77,2.769V32.2a2.77,2.77,0,0,1-2.769,2.77h0a2.77,2.77,0,0,1-2.77-2.77v-9.14A2.769,2.769,0,0,0,1009.6,20.3h0a2.77,2.77,0,0,0-2.77,2.769V36.912a2.77,2.77,0,0,1-2.769,2.77h0a2.77,2.77,0,0,1-2.77-2.77V26.388a2.77,2.77,0,0,0-2.77-2.77h0a2.77,2.77,0,0,0-2.769,2.77v14.4a2.77,2.77,0,0,1-2.77,2.769h0a2.769,2.769,0,0,1-2.769-2.769V13.925a2.77,2.77,0,0,0-2.77-2.77h0a2.77,2.77,0,0,0-2.77,2.77v29.08a2.77,2.77,0,0,1-2.769,2.77h0a2.77,2.77,0,0,1-2.77-2.77V26.388a2.77,2.77,0,0,0-2.769-2.77h0a2.77,2.77,0,0,0-2.77,2.77V36.912a2.77,2.77,0,0,1-2.77,2.77h0a2.77,2.77,0,0,1-2.769-2.77V20.018a2.77,2.77,0,0,0-2.77-2.77h0a2.77,2.77,0,0,0-2.769,2.77V36.912a2.77,2.77,0,0,1-2.77,2.77h0a2.77,2.77,0,0,1-2.769-2.77V26.388a2.77,2.77,0,0,0-2.77-2.77h0a2.77,2.77,0,0,0-2.77,2.77V36.912a2.77,2.77,0,0,1-2.769,2.77h0a2.77,2.77,0,0,1-2.77-2.77V8.662a2.769,2.769,0,0,0-2.769-2.769h0a2.77,2.77,0,0,0-2.77,2.769v18a2.77,2.77,0,0,1-2.77,2.769h0a2.769,2.769,0,0,1-2.769-2.769V20.018a2.77,2.77,0,0,0-2.77-2.77h0a2.77,2.77,0,0,0-2.769,2.77V32.2a2.77,2.77,0,0,1-2.77,2.77h0a2.77,2.77,0,0,1-2.769-2.77V13.925a2.77,2.77,0,0,0-2.77-2.77h0a2.77,2.77,0,0,0-2.77,2.77V36.912a2.77,2.77,0,0,1-2.769,2.77h0a2.77,2.77,0,0,1-2.77-2.77V20.018a2.77,2.77,0,0,0-2.769-2.77h0a2.77,2.77,0,0,0-2.77,2.77V36.912a2.77,2.77,0,0,1-2.77,2.77h0a2.77,2.77,0,0,1-2.769-2.77V14.2a2.77,2.77,0,0,0-2.77-2.77h0a2.77,2.77,0,0,0-2.769,2.77V40.79a2.77,2.77,0,0,1-2.77,2.769h0a2.769,2.769,0,0,1-2.769-2.769V17.248a2.77,2.77,0,0,0-2.77-2.769h0a2.77,2.77,0,0,0-2.77,2.769V36.912a2.77,2.77,0,0,1-2.769,2.77h0a2.77,2.77,0,0,1-2.77-2.77V13.925a2.77,2.77,0,0,0-2.769-2.77h0a2.77,2.77,0,0,0-2.77,2.77V32.2a2.77,2.77,0,0,1-2.77,2.77h0a2.77,2.77,0,0,1-2.769-2.77V20.018a2.77,2.77,0,0,0-2.77-2.77h0a2.77,2.77,0,0,0-2.769,2.77V43.005a2.77,2.77,0,0,1-2.77,2.77h0a2.77,2.77,0,0,1-2.77-2.77V29.157a2.769,2.769,0,0,0-2.769-2.769h0a2.77,2.77,0,0,0-2.77,2.769v7.755a2.77,2.77,0,0,1-2.769,2.77h0a2.77,2.77,0,0,1-2.77-2.77V13.925a2.77,2.77,0,0,0-2.769-2.77h0a2.77,2.77,0,0,0-2.77,2.77V40.79a2.77,2.77,0,0,1-2.77,2.769h0a2.769,2.769,0,0,1-2.769-2.769V23.064a2.77,2.77,0,0,0-2.77-2.769h0a2.769,2.769,0,0,0-2.769,2.769V28.88a2.77,2.77,0,0,1-2.77,2.77h0a2.77,2.77,0,0,1-2.77-2.77V13.925a2.77,2.77,0,0,0-2.769-2.77h0a2.77,2.77,0,0,0-2.77,2.77V36.912a2.77,2.77,0,0,1-2.769,2.77h0a2.77,2.77,0,0,1-2.77-2.77V23.064a2.769,2.769,0,0,0-2.769-2.769h0a2.77,2.77,0,0,0-2.77,2.769V32.2a2.77,2.77,0,0,1-2.77,2.77h0a2.77,2.77,0,0,1-2.769-2.77V10.047a2.77,2.77,0,0,0-2.77-2.769h0a2.769,2.769,0,0,0-2.769,2.769V32.2a2.77,2.77,0,0,1-2.77,2.77h0a2.77,2.77,0,0,1-2.77-2.77V26.388a2.77,2.77,0,0,0-2.769-2.77h0a2.77,2.77,0,0,0-2.77,2.77v14.4a2.769,2.769,0,0,1-2.769,2.769h0a2.77,2.77,0,0,1-2.77-2.769V20.018a2.77,2.77,0,0,0-2.769-2.77h0a2.77,2.77,0,0,0-2.77,2.77V28.88a2.77,2.77,0,0,1-2.77,2.77h0a2.77,2.77,0,0,1-2.769-2.77V17.248a2.77,2.77,0,0,0-2.77-2.769h0a2.769,2.769,0,0,0-2.769,2.769V43.005a2.77,2.77,0,0,1-2.77,2.77h0a2.77,2.77,0,0,1-2.77-2.77V8.662A2.769,2.769,0,0,0,754.8,5.893h0a2.77,2.77,0,0,0-2.77,2.769v28.25a2.77,2.77,0,0,1-2.769,2.77h0a2.77,2.77,0,0,1-2.77-2.77V26.388a2.77,2.77,0,0,0-2.769-2.77h0a2.77,2.77,0,0,0-2.769,2.77v14.4a2.77,2.77,0,0,1-2.77,2.769h0a2.769,2.769,0,0,1-2.769-2.769V23.064a2.77,2.77,0,0,0-2.77-2.769h0a2.769,2.769,0,0,0-2.769,2.769V40.79a2.77,2.77,0,0,1-2.77,2.769h0a2.77,2.77,0,0,1-2.77-2.769V16.417a2.769,2.769,0,0,0-2.769-2.769h0a2.77,2.77,0,0,0-2.77,2.769V32.2a2.77,2.77,0,0,1-2.769,2.77h0a2.77,2.77,0,0,1-2.77-2.77v-9.14a2.77,2.77,0,0,0-2.77-2.769h0a2.769,2.769,0,0,0-2.769,2.769V36.912a2.77,2.77,0,0,1-2.77,2.77h0a2.77,2.77,0,0,1-2.769-2.77V26.388a2.77,2.77,0,0,0-2.77-2.77h0a2.77,2.77,0,0,0-2.769,2.77v14.4a2.77,2.77,0,0,1-2.77,2.769h0a2.77,2.77,0,0,1-2.77-2.769V13.925a2.77,2.77,0,0,0-2.769-2.77h0a2.77,2.77,0,0,0-2.77,2.77v29.08a2.77,2.77,0,0,1-2.769,2.77h0a2.77,2.77,0,0,1-2.77-2.77V26.388a2.77,2.77,0,0,0-2.77-2.77h0a2.77,2.77,0,0,0-2.769,2.77V36.912a2.77,2.77,0,0,1-2.77,2.77h0a2.77,2.77,0,0,1-2.769-2.77V20.018a2.77,2.77,0,0,0-2.77-2.77h0a2.77,2.77,0,0,0-2.769,2.77V36.912a2.77,2.77,0,0,1-2.77,2.77h0a2.77,2.77,0,0,1-2.77-2.77V26.388a2.77,2.77,0,0,0-2.769-2.77h0a2.77,2.77,0,0,0-2.77,2.77V36.912a2.77,2.77,0,0,1-2.769,2.77h0a2.77,2.77,0,0,1-2.77-2.77V8.662a2.77,2.77,0,0,0-2.77-2.769h0a2.769,2.769,0,0,0-2.769,2.769v18a2.77,2.77,0,0,1-2.77,2.769h0a2.769,2.769,0,0,1-2.769-2.769V20.018a2.77,2.77,0,0,0-2.77-2.77h0a2.77,2.77,0,0,0-2.77,2.77V32.2a2.769,2.769,0,0,1-2.769,2.77h0a2.77,2.77,0,0,1-2.77-2.77V13.925a2.77,2.77,0,0,0-2.769-2.77h0a2.77,2.77,0,0,0-2.77,2.77V36.912a2.77,2.77,0,0,1-2.769,2.77h0a2.77,2.77,0,0,1-2.77-2.77V20.018a2.77,2.77,0,0,0-2.77-2.77h0a2.77,2.77,0,0,0-2.769,2.77V36.912a2.77,2.77,0,0,1-2.77,2.77h0a2.77,2.77,0,0,1-2.769-2.77V14.2a2.77,2.77,0,0,0-2.77-2.77h0a2.77,2.77,0,0,0-2.77,2.77V40.79a2.769,2.769,0,0,1-2.769,2.769h0a2.77,2.77,0,0,1-2.77-2.769V17.248a2.769,2.769,0,0,0-2.769-2.769h0a2.77,2.77,0,0,0-2.77,2.769V36.912a2.77,2.77,0,0,1-2.769,2.77h0a2.77,2.77,0,0,1-2.77-2.77V13.925a2.77,2.77,0,0,0-2.77-2.77h0a2.77,2.77,0,0,0-2.769,2.77V32.2a2.77,2.77,0,0,1-2.77,2.77h0a2.77,2.77,0,0,1-2.769-2.77V20.018a2.77,2.77,0,0,0-2.77-2.77h0a2.77,2.77,0,0,0-2.77,2.77V43.005a2.77,2.77,0,0,1-2.769,2.77h0a2.77,2.77,0,0,1-2.77-2.77V29.157a2.769,2.769,0,0,0-2.769-2.769h0a2.77,2.77,0,0,0-2.77,2.769v7.755a2.77,2.77,0,0,1-2.769,2.77h0a2.77,2.77,0,0,1-2.77-2.77V13.925a2.77,2.77,0,0,0-2.77-2.77h0a2.77,2.77,0,0,0-2.769,2.77V40.79a2.77,2.77,0,0,1-2.77,2.769h0a2.769,2.769,0,0,1-2.769-2.769V23.064a2.77,2.77,0,0,0-2.77-2.769h0a2.77,2.77,0,0,0-2.77,2.769V28.88a2.77,2.77,0,0,1-2.769,2.77h0a2.77,2.77,0,0,1-2.77-2.77V13.925a2.77,2.77,0,0,0-2.769-2.77h0a2.77,2.77,0,0,0-2.77,2.77V36.912a2.77,2.77,0,0,1-2.769,2.77h0a2.77,2.77,0,0,1-2.769-2.77V23.064a2.77,2.77,0,0,0-2.77-2.769h0a2.769,2.769,0,0,0-2.769,2.769V32.2a2.77,2.77,0,0,1-2.77,2.77h0a2.77,2.77,0,0,1-2.769-2.77V10.047A2.77,2.77,0,0,0,500,7.278h0a2.77,2.77,0,0,0-2.77,2.769V32.2a2.77,2.77,0,0,1-2.769,2.77h0a2.77,2.77,0,0,1-2.77-2.77V26.388a2.77,2.77,0,0,0-2.769-2.77h0a2.77,2.77,0,0,0-2.77,2.77v14.4a2.77,2.77,0,0,1-2.77,2.769h0a2.769,2.769,0,0,1-2.769-2.769V20.018a2.77,2.77,0,0,0-2.77-2.77h0a2.77,2.77,0,0,0-2.769,2.77V28.88a2.77,2.77,0,0,1-2.77,2.77h0a2.77,2.77,0,0,1-2.769-2.77V17.248a2.77,2.77,0,0,0-2.77-2.769h0A2.77,2.77,0,0,0,464,17.248V43.005a2.77,2.77,0,0,1-2.769,2.77h0a2.77,2.77,0,0,1-2.77-2.77V8.662a2.769,2.769,0,0,0-2.769-2.769h0a2.77,2.77,0,0,0-2.77,2.769v28.25a2.77,2.77,0,0,1-2.77,2.77h0a2.77,2.77,0,0,1-2.769-2.77V26.388a2.77,2.77,0,0,0-2.77-2.77h0a2.77,2.77,0,0,0-2.769,2.77v14.4a2.77,2.77,0,0,1-2.77,2.769h0A2.769,2.769,0,0,1,436.3,40.79V23.064a2.77,2.77,0,0,0-2.77-2.769h0a2.77,2.77,0,0,0-2.77,2.769V40.79a2.769,2.769,0,0,1-2.769,2.769h0a2.77,2.77,0,0,1-2.77-2.769V16.417a2.769,2.769,0,0,0-2.769-2.769h0a2.77,2.77,0,0,0-2.77,2.769V32.2a2.77,2.77,0,0,1-2.77,2.77h0a2.77,2.77,0,0,1-2.769-2.77v-9.14a2.77,2.77,0,0,0-2.77-2.769h0a2.769,2.769,0,0,0-2.769,2.769V36.912a2.77,2.77,0,0,1-2.77,2.77h0a2.769,2.769,0,0,1-2.769-2.77V26.388a2.77,2.77,0,0,0-2.77-2.77h0a2.77,2.77,0,0,0-2.77,2.77v14.4a2.769,2.769,0,0,1-2.769,2.769h0a2.77,2.77,0,0,1-2.77-2.769V13.925a2.77,2.77,0,0,0-2.769-2.77h0a2.77,2.77,0,0,0-2.77,2.77v29.08a2.77,2.77,0,0,1-2.77,2.77h0a2.77,2.77,0,0,1-2.769-2.77V26.388a2.77,2.77,0,0,0-2.77-2.77h0a2.77,2.77,0,0,0-2.769,2.77V36.912a2.77,2.77,0,0,1-2.77,2.77h0a2.77,2.77,0,0,1-2.77-2.77V20.018a2.769,2.769,0,0,0-2.769-2.77h0a2.77,2.77,0,0,0-2.77,2.77V36.912a2.77,2.77,0,0,1-2.769,2.77h0a2.77,2.77,0,0,1-2.77-2.77V26.388a2.77,2.77,0,0,0-2.769-2.77h0a2.77,2.77,0,0,0-2.77,2.77V36.912a2.77,2.77,0,0,1-2.77,2.77h0a2.77,2.77,0,0,1-2.769-2.77V8.662a2.77,2.77,0,0,0-2.77-2.769h0a2.769,2.769,0,0,0-2.769,2.769v18a2.77,2.77,0,0,1-2.77,2.769h0a2.77,2.77,0,0,1-2.77-2.769V20.018a2.77,2.77,0,0,0-2.769-2.77h0a2.77,2.77,0,0,0-2.77,2.77V32.2a2.77,2.77,0,0,1-2.769,2.77h0a2.77,2.77,0,0,1-2.77-2.77V13.925a2.77,2.77,0,0,0-2.769-2.77h0a2.77,2.77,0,0,0-2.77,2.77V36.912a2.77,2.77,0,0,1-2.77,2.77h0a2.77,2.77,0,0,1-2.769-2.77V20.018a2.77,2.77,0,0,0-2.77-2.77h0a2.77,2.77,0,0,0-2.769,2.77V36.912a2.77,2.77,0,0,1-2.77,2.77h0a2.77,2.77,0,0,1-2.77-2.77V14.2a2.77,2.77,0,0,0-2.769-2.77h0a2.77,2.77,0,0,0-2.77,2.77V40.79a2.769,2.769,0,0,1-2.769,2.769h0a2.77,2.77,0,0,1-2.77-2.769V17.248a2.769,2.769,0,0,0-2.769-2.769h0a2.77,2.77,0,0,0-2.77,2.769V36.912a2.77,2.77,0,0,1-2.77,2.77h0a2.77,2.77,0,0,1-2.769-2.77V13.925a2.77,2.77,0,0,0-2.77-2.77h0a2.77,2.77,0,0,0-2.769,2.77V32.2a2.77,2.77,0,0,1-2.77,2.77h0a2.77,2.77,0,0,1-2.77-2.77V20.018a2.77,2.77,0,0,0-2.769-2.77h0a2.77,2.77,0,0,0-2.77,2.77V43.005a2.77,2.77,0,0,1-2.769,2.77h0a2.77,2.77,0,0,1-2.77-2.77V29.157a2.77,2.77,0,0,0-2.77-2.769h0a2.769,2.769,0,0,0-2.769,2.769v7.755a2.77,2.77,0,0,1-2.77,2.77h0a2.77,2.77,0,0,1-2.769-2.77V13.925a2.77,2.77,0,0,0-2.77-2.77h0a2.77,2.77,0,0,0-2.769,2.77V40.79a2.77,2.77,0,0,1-2.77,2.769h0a2.77,2.77,0,0,1-2.77-2.769V23.064A2.769,2.769,0,0,0,234.12,20.3h0a2.77,2.77,0,0,0-2.77,2.769V28.88a2.77,2.77,0,0,1-2.769,2.77h0a2.77,2.77,0,0,1-2.77-2.77V13.925a2.77,2.77,0,0,0-2.77-2.77h0a2.77,2.77,0,0,0-2.769,2.77V36.912a2.77,2.77,0,0,1-2.77,2.77h0a2.77,2.77,0,0,1-2.769-2.77V23.064a2.77,2.77,0,0,0-2.77-2.769h0a2.769,2.769,0,0,0-2.769,2.769V32.2a2.77,2.77,0,0,1-2.77,2.77h0a2.77,2.77,0,0,1-2.77-2.77V10.047a2.769,2.769,0,0,0-2.769-2.769h0a2.77,2.77,0,0,0-2.77,2.769V32.2a2.77,2.77,0,0,1-2.769,2.77h0a2.77,2.77,0,0,1-2.77-2.77V26.388a2.77,2.77,0,0,0-2.77-2.77h0a2.77,2.77,0,0,0-2.769,2.77v14.4a2.77,2.77,0,0,1-2.77,2.769h0A2.769,2.769,0,0,1,181.5,40.79V20.018a2.77,2.77,0,0,0-2.77-2.77h0a2.769,2.769,0,0,0-2.769,2.77V28.88a2.77,2.77,0,0,1-2.77,2.77h0a2.77,2.77,0,0,1-2.77-2.77V17.248a2.769,2.769,0,0,0-2.769-2.769h0a2.77,2.77,0,0,0-2.77,2.769V43.005a2.77,2.77,0,0,1-2.769,2.77h0a2.77,2.77,0,0,1-2.77-2.77V8.662a2.77,2.77,0,0,0-2.77-2.769h0A2.769,2.769,0,0,0,153.8,8.662v28.25a2.77,2.77,0,0,1-2.77,2.77h0a2.77,2.77,0,0,1-2.769-2.77V26.388a2.77,2.77,0,0,0-2.77-2.77h0a2.769,2.769,0,0,0-2.769,2.77v14.4a2.77,2.77,0,0,1-2.77,2.769h0a2.77,2.77,0,0,1-2.77-2.769V23.064a2.769,2.769,0,0,0-2.769-2.769h0a2.77,2.77,0,0,0-2.77,2.769V40.79a2.769,2.769,0,0,1-2.769,2.769h0a2.77,2.77,0,0,1-2.77-2.769V16.417a2.77,2.77,0,0,0-2.77-2.769h0a2.769,2.769,0,0,0-2.769,2.769V32.2a2.77,2.77,0,0,1-2.77,2.77h0a2.77,2.77,0,0,1-2.769-2.77v-9.14a2.77,2.77,0,0,0-2.77-2.769h0a2.77,2.77,0,0,0-2.77,2.769V36.912a2.77,2.77,0,0,1-2.769,2.77h0a2.77,2.77,0,0,1-2.77-2.77V26.388a2.77,2.77,0,0,0-2.769-2.77h0a2.77,2.77,0,0,0-2.77,2.77v14.4a2.769,2.769,0,0,1-2.769,2.769h0a2.77,2.77,0,0,1-2.77-2.769V13.925a2.77,2.77,0,0,0-2.77-2.77h0a2.77,2.77,0,0,0-2.769,2.77v29.08a2.77,2.77,0,0,1-2.77,2.77h0a2.77,2.77,0,0,1-2.769-2.77V26.388a2.77,2.77,0,0,0-2.77-2.77h0a2.77,2.77,0,0,0-2.77,2.77V36.912a2.77,2.77,0,0,1-2.769,2.77h0a2.77,2.77,0,0,1-2.77-2.77V20.018a2.77,2.77,0,0,0-2.769-2.77h0a2.77,2.77,0,0,0-2.77,2.77V36.912a2.77,2.77,0,0,1-2.769,2.77h0a2.77,2.77,0,0,1-2.77-2.77V26.388a2.77,2.77,0,0,0-2.77-2.77h0a2.77,2.77,0,0,0-2.769,2.77V36.912a2.77,2.77,0,0,1-2.77,2.77h0a2.77,2.77,0,0,1-2.769-2.77V8.662a2.77,2.77,0,0,0-2.77-2.769h0a2.77,2.77,0,0,0-2.77,2.769v18a2.769,2.769,0,0,1-2.769,2.769h0a2.77,2.77,0,0,1-2.77-2.769V20.018a2.77,2.77,0,0,0-2.769-2.77h0a2.77,2.77,0,0,0-2.77,2.77V32.2a2.77,2.77,0,0,1-2.769,2.77h0A2.77,2.77,0,0,1,26.4,32.2V13.925a2.77,2.77,0,0,0-2.77-2.77h0a2.77,2.77,0,0,0-2.769,2.77V36.912a2.77,2.77,0,0,1-2.77,2.77h0a2.77,2.77,0,0,1-2.769-2.77V20.018a2.77,2.77,0,0,0-2.77-2.77h0a2.77,2.77,0,0,0-2.77,2.77V36.912a2.77,2.77,0,0,1-2.769,2.77h0a2.77,2.77,0,0,1-2.77-2.77V14.2a2.77,2.77,0,0,0-2.769-2.77h0a2.77,2.77,0,0,0-2.77,2.77V40.79a2.77,2.77,0,0,1-2.77,2.769h0A2.769,2.769,0,0,1-6.834,40.79V17.248A2.77,2.77,0,0,0-9.6,14.479h0a2.769,2.769,0,0,0-2.769,2.769V36.912a2.77,2.77,0,0,1-2.77,2.77h0a2.77,2.77,0,0,1-2.769-2.77V13.925a2.77,2.77,0,0,0-2.77-2.77h0a2.77,2.77,0,0,0-2.77,2.77V32.2a2.77,2.77,0,0,1-2.769,2.77h0a2.77,2.77,0,0,1-2.77-2.77V20.018a2.77,2.77,0,0,0-2.769-2.77h0a2.77,2.77,0,0,0-2.77,2.77V43.005a2.77,2.77,0,0,1-2.77,2.77h0a2.77,2.77,0,0,1-2.769-2.77V29.157a2.77,2.77,0,0,0-2.77-2.769h0a2.769,2.769,0,0,0-2.769,2.769v7.755a2.77,2.77,0,0,1-2.77,2.77h0a2.769,2.769,0,0,1-2.769-2.77V13.925a2.77,2.77,0,0,0-2.77-2.77h0a2.77,2.77,0,0,0-2.77,2.77V40.79a2.769,2.769,0,0,1-2.769,2.769h0a2.77,2.77,0,0,1-2.77-2.769V23.064A2.769,2.769,0,0,0-64.995,20.3h0a2.77,2.77,0,0,0-2.77,2.769V28.88a2.77,2.77,0,0,1-2.77,2.77h0A2.77,2.77,0,0,1-73.3,28.88V13.925a2.77,2.77,0,0,0-2.77-2.77h0a2.77,2.77,0,0,0-2.769,2.77V36.912a2.77,2.77,0,0,1-2.77,2.77h0a2.769,2.769,0,0,1-2.769-2.77V23.064a2.77,2.77,0,0,0-2.77-2.769h0a2.77,2.77,0,0,0-2.77,2.769V32.2a2.77,2.77,0,0,1-2.769,2.77h0a2.77,2.77,0,0,1-2.77-2.77V13.925a2.77,2.77,0,0,0-2.769-2.77h0a2.77,2.77,0,0,0-2.77,2.77V151.85H1101V10.047A2.77,2.77,0,0,0,1098.23,7.278Z"/><path class="b" d="M1098.23,48.268h0a2.769,2.769,0,0,0-2.769,2.769V73.194a2.77,2.77,0,0,1-2.77,2.769h0a2.769,2.769,0,0,1-2.769-2.769V67.378a2.77,2.77,0,0,0-2.77-2.77h0a2.77,2.77,0,0,0-2.77,2.77v14.4a2.769,2.769,0,0,1-2.769,2.769h0a2.77,2.77,0,0,1-2.77-2.769V61.008a2.77,2.77,0,0,0-2.769-2.77h0a2.77,2.77,0,0,0-2.77,2.77V69.87a2.77,2.77,0,0,1-2.769,2.77h0a2.77,2.77,0,0,1-2.77-2.77V58.238a2.77,2.77,0,0,0-2.77-2.77h0a2.77,2.77,0,0,0-2.769,2.77V84a2.77,2.77,0,0,1-2.77,2.77h0a2.77,2.77,0,0,1-2.769-2.77V49.652a2.77,2.77,0,0,0-2.77-2.769h0a2.77,2.77,0,0,0-2.77,2.769V77.9a2.769,2.769,0,0,1-2.769,2.77h0a2.77,2.77,0,0,1-2.77-2.77V67.378a2.77,2.77,0,0,0-2.769-2.77h0a2.77,2.77,0,0,0-2.77,2.77v14.4a2.769,2.769,0,0,1-2.769,2.769h0a2.77,2.77,0,0,1-2.77-2.769V64.054a2.77,2.77,0,0,0-2.77-2.769h0a2.769,2.769,0,0,0-2.769,2.769V81.78a2.77,2.77,0,0,1-2.77,2.769h0a2.769,2.769,0,0,1-2.769-2.769V57.407a2.77,2.77,0,0,0-2.77-2.769h0a2.77,2.77,0,0,0-2.77,2.769V73.194a2.769,2.769,0,0,1-2.769,2.769h0a2.77,2.77,0,0,1-2.77-2.769v-9.14a2.769,2.769,0,0,0-2.769-2.769h0a2.77,2.77,0,0,0-2.77,2.769V77.9a2.77,2.77,0,0,1-2.769,2.77h0a2.77,2.77,0,0,1-2.77-2.77V67.378a2.77,2.77,0,0,0-2.77-2.77h0a2.77,2.77,0,0,0-2.769,2.77v14.4a2.77,2.77,0,0,1-2.77,2.769h0a2.769,2.769,0,0,1-2.769-2.769V54.915a2.77,2.77,0,0,0-2.77-2.77h0a2.77,2.77,0,0,0-2.77,2.77V84a2.77,2.77,0,0,1-2.769,2.77h0a2.77,2.77,0,0,1-2.77-2.77V67.378a2.77,2.77,0,0,0-2.769-2.77h0a2.77,2.77,0,0,0-2.77,2.77V77.9a2.77,2.77,0,0,1-2.77,2.77h0a2.77,2.77,0,0,1-2.769-2.77V61.008a2.77,2.77,0,0,0-2.77-2.77h0a2.77,2.77,0,0,0-2.769,2.77V77.9a2.77,2.77,0,0,1-2.77,2.77h0a2.77,2.77,0,0,1-2.769-2.77V67.378a2.77,2.77,0,0,0-2.77-2.77h0a2.77,2.77,0,0,0-2.77,2.77V77.9a2.77,2.77,0,0,1-2.769,2.77h0a2.77,2.77,0,0,1-2.77-2.77V49.652a2.769,2.769,0,0,0-2.769-2.769h0a2.77,2.77,0,0,0-2.77,2.769v18a2.77,2.77,0,0,1-2.77,2.769h0a2.769,2.769,0,0,1-2.769-2.769V61.008a2.77,2.77,0,0,0-2.77-2.77h0a2.77,2.77,0,0,0-2.769,2.77V73.194a2.77,2.77,0,0,1-2.77,2.769h0a2.769,2.769,0,0,1-2.769-2.769V54.915a2.77,2.77,0,0,0-2.77-2.77h0a2.77,2.77,0,0,0-2.77,2.77V77.9a2.77,2.77,0,0,1-2.769,2.77h0a2.77,2.77,0,0,1-2.77-2.77V61.008a2.77,2.77,0,0,0-2.769-2.77h0a2.77,2.77,0,0,0-2.77,2.77V77.9a2.77,2.77,0,0,1-2.77,2.77h0a2.77,2.77,0,0,1-2.769-2.77V55.192a2.77,2.77,0,0,0-2.77-2.77h0a2.77,2.77,0,0,0-2.769,2.77V81.78a2.77,2.77,0,0,1-2.77,2.769h0a2.769,2.769,0,0,1-2.769-2.769V58.238a2.77,2.77,0,0,0-2.77-2.77h0a2.77,2.77,0,0,0-2.77,2.77V77.9a2.77,2.77,0,0,1-2.769,2.77h0a2.77,2.77,0,0,1-2.77-2.77V54.915a2.77,2.77,0,0,0-2.769-2.77h0a2.77,2.77,0,0,0-2.77,2.77V73.194a2.77,2.77,0,0,1-2.77,2.769h0a2.769,2.769,0,0,1-2.769-2.769V61.008a2.77,2.77,0,0,0-2.77-2.77h0a2.77,2.77,0,0,0-2.769,2.77V84a2.77,2.77,0,0,1-2.77,2.77h0a2.77,2.77,0,0,1-2.77-2.77V70.147a2.769,2.769,0,0,0-2.769-2.769h0a2.77,2.77,0,0,0-2.77,2.769V77.9a2.77,2.77,0,0,1-2.769,2.77h0a2.77,2.77,0,0,1-2.77-2.77V54.915a2.77,2.77,0,0,0-2.769-2.77h0a2.77,2.77,0,0,0-2.77,2.77V81.78a2.77,2.77,0,0,1-2.77,2.769h0a2.769,2.769,0,0,1-2.769-2.769V64.054a2.77,2.77,0,0,0-2.77-2.769h0a2.769,2.769,0,0,0-2.769,2.769V69.87a2.77,2.77,0,0,1-2.77,2.77h0a2.77,2.77,0,0,1-2.77-2.77V54.915a2.77,2.77,0,0,0-2.769-2.77h0a2.77,2.77,0,0,0-2.77,2.77V77.9a2.77,2.77,0,0,1-2.769,2.77h0a2.77,2.77,0,0,1-2.77-2.77V64.054a2.769,2.769,0,0,0-2.769-2.769h0a2.77,2.77,0,0,0-2.77,2.769v9.14a2.77,2.77,0,0,1-2.77,2.769h0a2.769,2.769,0,0,1-2.769-2.769V51.037a2.77,2.77,0,0,0-2.77-2.769h0a2.769,2.769,0,0,0-2.769,2.769V73.194a2.77,2.77,0,0,1-2.77,2.769h0a2.77,2.77,0,0,1-2.77-2.769V67.378a2.77,2.77,0,0,0-2.769-2.77h0a2.77,2.77,0,0,0-2.77,2.77v14.4a2.769,2.769,0,0,1-2.769,2.769h0a2.77,2.77,0,0,1-2.77-2.769V61.008a2.77,2.77,0,0,0-2.769-2.77h0a2.77,2.77,0,0,0-2.77,2.77V69.87a2.77,2.77,0,0,1-2.77,2.77h0a2.77,2.77,0,0,1-2.769-2.77V58.238a2.77,2.77,0,0,0-2.77-2.77h0a2.77,2.77,0,0,0-2.769,2.77V84a2.77,2.77,0,0,1-2.77,2.77h0a2.77,2.77,0,0,1-2.77-2.77V49.652a2.769,2.769,0,0,0-2.769-2.769h0a2.77,2.77,0,0,0-2.77,2.769V77.9a2.77,2.77,0,0,1-2.769,2.77h0a2.77,2.77,0,0,1-2.77-2.77V67.378a2.77,2.77,0,0,0-2.769-2.77h0a2.77,2.77,0,0,0-2.769,2.77v14.4a2.77,2.77,0,0,1-2.77,2.769h0a2.769,2.769,0,0,1-2.769-2.769V64.054a2.77,2.77,0,0,0-2.77-2.769h0a2.769,2.769,0,0,0-2.769,2.769V81.78a2.77,2.77,0,0,1-2.77,2.769h0a2.77,2.77,0,0,1-2.77-2.769V57.407a2.769,2.769,0,0,0-2.769-2.769h0a2.77,2.77,0,0,0-2.77,2.769V73.194a2.769,2.769,0,0,1-2.769,2.769h0a2.77,2.77,0,0,1-2.77-2.769v-9.14a2.77,2.77,0,0,0-2.77-2.769h0a2.769,2.769,0,0,0-2.769,2.769V77.9a2.77,2.77,0,0,1-2.77,2.77h0a2.77,2.77,0,0,1-2.769-2.77V67.378a2.77,2.77,0,0,0-2.77-2.77h0a2.77,2.77,0,0,0-2.769,2.77v14.4a2.77,2.77,0,0,1-2.77,2.769h0a2.77,2.77,0,0,1-2.77-2.769V54.915a2.77,2.77,0,0,0-2.769-2.77h0a2.77,2.77,0,0,0-2.77,2.77V84a2.77,2.77,0,0,1-2.769,2.77h0a2.77,2.77,0,0,1-2.77-2.77V67.378a2.77,2.77,0,0,0-2.77-2.77h0a2.77,2.77,0,0,0-2.769,2.77V77.9a2.77,2.77,0,0,1-2.77,2.77h0a2.77,2.77,0,0,1-2.769-2.77V61.008a2.77,2.77,0,0,0-2.77-2.77h0a2.77,2.77,0,0,0-2.769,2.77V77.9a2.77,2.77,0,0,1-2.77,2.77h0a2.77,2.77,0,0,1-2.77-2.77V67.378a2.77,2.77,0,0,0-2.769-2.77h0a2.77,2.77,0,0,0-2.77,2.77V77.9a2.77,2.77,0,0,1-2.769,2.77h0a2.77,2.77,0,0,1-2.77-2.77V49.652a2.77,2.77,0,0,0-2.77-2.769h0a2.769,2.769,0,0,0-2.769,2.769v18a2.77,2.77,0,0,1-2.77,2.769h0a2.769,2.769,0,0,1-2.769-2.769V61.008a2.77,2.77,0,0,0-2.77-2.77h0a2.77,2.77,0,0,0-2.77,2.77V73.194a2.769,2.769,0,0,1-2.769,2.769h0a2.77,2.77,0,0,1-2.77-2.769V54.915a2.77,2.77,0,0,0-2.769-2.77h0a2.77,2.77,0,0,0-2.77,2.77V77.9a2.77,2.77,0,0,1-2.769,2.77h0a2.77,2.77,0,0,1-2.77-2.77V61.008a2.77,2.77,0,0,0-2.77-2.77h0a2.77,2.77,0,0,0-2.769,2.77V77.9a2.77,2.77,0,0,1-2.77,2.77h0a2.77,2.77,0,0,1-2.769-2.77V55.192a2.77,2.77,0,0,0-2.77-2.77h0a2.77,2.77,0,0,0-2.77,2.77V81.78a2.769,2.769,0,0,1-2.769,2.769h0a2.77,2.77,0,0,1-2.77-2.769V58.238a2.77,2.77,0,0,0-2.769-2.77h0a2.77,2.77,0,0,0-2.77,2.77V77.9a2.77,2.77,0,0,1-2.769,2.77h0a2.77,2.77,0,0,1-2.77-2.77V54.915a2.77,2.77,0,0,0-2.77-2.77h0a2.77,2.77,0,0,0-2.769,2.77V73.194a2.77,2.77,0,0,1-2.77,2.769h0a2.769,2.769,0,0,1-2.769-2.769V61.008a2.77,2.77,0,0,0-2.77-2.77h0a2.77,2.77,0,0,0-2.77,2.77V84a2.77,2.77,0,0,1-2.769,2.77h0a2.77,2.77,0,0,1-2.77-2.77V70.147a2.769,2.769,0,0,0-2.769-2.769h0a2.77,2.77,0,0,0-2.77,2.769V77.9a2.77,2.77,0,0,1-2.769,2.77h0a2.77,2.77,0,0,1-2.77-2.77V54.915a2.77,2.77,0,0,0-2.77-2.77h0a2.77,2.77,0,0,0-2.769,2.77V81.78a2.77,2.77,0,0,1-2.77,2.769h0a2.769,2.769,0,0,1-2.769-2.769V64.054a2.77,2.77,0,0,0-2.77-2.769h0a2.77,2.77,0,0,0-2.77,2.769V69.87a2.77,2.77,0,0,1-2.769,2.77h0a2.77,2.77,0,0,1-2.77-2.77V54.915a2.77,2.77,0,0,0-2.769-2.77h0a2.77,2.77,0,0,0-2.77,2.77V77.9a2.77,2.77,0,0,1-2.769,2.77h0a2.77,2.77,0,0,1-2.769-2.77V64.054a2.77,2.77,0,0,0-2.77-2.769h0a2.769,2.769,0,0,0-2.769,2.769v9.14a2.77,2.77,0,0,1-2.77,2.769h0a2.769,2.769,0,0,1-2.769-2.769V51.037A2.77,2.77,0,0,0,500,48.268h0a2.77,2.77,0,0,0-2.77,2.769V73.194a2.769,2.769,0,0,1-2.769,2.769h0a2.77,2.77,0,0,1-2.77-2.769V67.378a2.77,2.77,0,0,0-2.769-2.77h0a2.77,2.77,0,0,0-2.77,2.77v14.4a2.77,2.77,0,0,1-2.77,2.769h0a2.769,2.769,0,0,1-2.769-2.769V61.008a2.77,2.77,0,0,0-2.77-2.77h0a2.77,2.77,0,0,0-2.769,2.77V69.87a2.77,2.77,0,0,1-2.77,2.77h0a2.77,2.77,0,0,1-2.769-2.77V58.238a2.77,2.77,0,0,0-2.77-2.77h0a2.77,2.77,0,0,0-2.77,2.77V84a2.77,2.77,0,0,1-2.769,2.77h0a2.77,2.77,0,0,1-2.77-2.77V49.652a2.769,2.769,0,0,0-2.769-2.769h0a2.77,2.77,0,0,0-2.77,2.769V77.9a2.77,2.77,0,0,1-2.77,2.77h0a2.77,2.77,0,0,1-2.769-2.77V67.378a2.77,2.77,0,0,0-2.77-2.77h0a2.77,2.77,0,0,0-2.769,2.77v14.4a2.77,2.77,0,0,1-2.77,2.769h0A2.769,2.769,0,0,1,436.3,81.78V64.054a2.77,2.77,0,0,0-2.77-2.769h0a2.77,2.77,0,0,0-2.77,2.769V81.78a2.769,2.769,0,0,1-2.769,2.769h0a2.77,2.77,0,0,1-2.77-2.769V57.407a2.769,2.769,0,0,0-2.769-2.769h0a2.77,2.77,0,0,0-2.77,2.769V73.194a2.77,2.77,0,0,1-2.77,2.769h0a2.769,2.769,0,0,1-2.769-2.769v-9.14a2.77,2.77,0,0,0-2.77-2.769h0a2.769,2.769,0,0,0-2.769,2.769V77.9a2.77,2.77,0,0,1-2.77,2.77h0a2.769,2.769,0,0,1-2.769-2.77V67.378a2.77,2.77,0,0,0-2.77-2.77h0a2.77,2.77,0,0,0-2.77,2.77v14.4a2.769,2.769,0,0,1-2.769,2.769h0a2.77,2.77,0,0,1-2.77-2.769V54.915a2.77,2.77,0,0,0-2.769-2.77h0a2.77,2.77,0,0,0-2.77,2.77V84a2.77,2.77,0,0,1-2.77,2.77h0A2.77,2.77,0,0,1,380.908,84V67.378a2.77,2.77,0,0,0-2.77-2.77h0a2.77,2.77,0,0,0-2.769,2.77V77.9a2.77,2.77,0,0,1-2.77,2.77h0a2.77,2.77,0,0,1-2.77-2.77V61.008a2.769,2.769,0,0,0-2.769-2.77h0a2.77,2.77,0,0,0-2.77,2.77V77.9a2.77,2.77,0,0,1-2.769,2.77h0a2.77,2.77,0,0,1-2.77-2.77V67.378a2.77,2.77,0,0,0-2.769-2.77h0a2.77,2.77,0,0,0-2.77,2.77V77.9a2.77,2.77,0,0,1-2.77,2.77h0a2.77,2.77,0,0,1-2.769-2.77V49.652a2.77,2.77,0,0,0-2.77-2.769h0a2.769,2.769,0,0,0-2.769,2.769v18a2.77,2.77,0,0,1-2.77,2.769h0a2.77,2.77,0,0,1-2.77-2.769V61.008a2.77,2.77,0,0,0-2.769-2.77h0a2.77,2.77,0,0,0-2.77,2.77V73.194a2.769,2.769,0,0,1-2.769,2.769h0a2.77,2.77,0,0,1-2.77-2.769V54.915a2.77,2.77,0,0,0-2.769-2.77h0a2.77,2.77,0,0,0-2.77,2.77V77.9a2.77,2.77,0,0,1-2.77,2.77h0a2.77,2.77,0,0,1-2.769-2.77V61.008a2.77,2.77,0,0,0-2.77-2.77h0a2.77,2.77,0,0,0-2.769,2.77V77.9a2.77,2.77,0,0,1-2.77,2.77h0a2.77,2.77,0,0,1-2.77-2.77V55.192a2.77,2.77,0,0,0-2.769-2.77h0a2.77,2.77,0,0,0-2.77,2.77V81.78a2.769,2.769,0,0,1-2.769,2.769h0a2.77,2.77,0,0,1-2.77-2.769V58.238a2.77,2.77,0,0,0-2.769-2.77h0a2.77,2.77,0,0,0-2.77,2.77V77.9a2.77,2.77,0,0,1-2.77,2.77h0A2.77,2.77,0,0,1,281.2,77.9V54.915a2.77,2.77,0,0,0-2.77-2.77h0a2.77,2.77,0,0,0-2.769,2.77V73.194a2.77,2.77,0,0,1-2.77,2.769h0a2.77,2.77,0,0,1-2.77-2.769V61.008a2.77,2.77,0,0,0-2.769-2.77h0a2.77,2.77,0,0,0-2.77,2.77V84a2.77,2.77,0,0,1-2.769,2.77h0a2.77,2.77,0,0,1-2.77-2.77V70.147a2.77,2.77,0,0,0-2.77-2.769h0a2.769,2.769,0,0,0-2.769,2.769V77.9a2.77,2.77,0,0,1-2.77,2.77h0a2.77,2.77,0,0,1-2.769-2.77V54.915a2.77,2.77,0,0,0-2.77-2.77h0a2.77,2.77,0,0,0-2.769,2.77V81.78a2.77,2.77,0,0,1-2.77,2.769h0a2.77,2.77,0,0,1-2.77-2.769V64.054a2.769,2.769,0,0,0-2.769-2.769h0a2.77,2.77,0,0,0-2.77,2.769V69.87a2.77,2.77,0,0,1-2.769,2.77h0a2.77,2.77,0,0,1-2.77-2.77V54.915a2.77,2.77,0,0,0-2.77-2.77h0a2.77,2.77,0,0,0-2.769,2.77V77.9a2.77,2.77,0,0,1-2.77,2.77h0a2.77,2.77,0,0,1-2.769-2.77V64.054a2.77,2.77,0,0,0-2.77-2.769h0a2.769,2.769,0,0,0-2.769,2.769v9.14a2.77,2.77,0,0,1-2.77,2.769h0a2.77,2.77,0,0,1-2.77-2.769V51.037a2.769,2.769,0,0,0-2.769-2.769h0a2.77,2.77,0,0,0-2.77,2.769V73.194a2.769,2.769,0,0,1-2.769,2.769h0a2.77,2.77,0,0,1-2.77-2.769V67.378a2.77,2.77,0,0,0-2.77-2.77h0a2.77,2.77,0,0,0-2.769,2.77v14.4a2.77,2.77,0,0,1-2.77,2.769h0A2.769,2.769,0,0,1,181.5,81.78V61.008a2.77,2.77,0,0,0-2.77-2.77h0a2.769,2.769,0,0,0-2.769,2.77V69.87a2.77,2.77,0,0,1-2.77,2.77h0a2.77,2.77,0,0,1-2.77-2.77V58.238a2.77,2.77,0,0,0-2.769-2.77h0a2.77,2.77,0,0,0-2.77,2.77V84a2.77,2.77,0,0,1-2.769,2.77h0a2.77,2.77,0,0,1-2.77-2.77V49.652a2.77,2.77,0,0,0-2.77-2.769h0a2.769,2.769,0,0,0-2.769,2.769V77.9a2.77,2.77,0,0,1-2.77,2.77h0a2.77,2.77,0,0,1-2.769-2.77V67.378a2.77,2.77,0,0,0-2.77-2.77h0a2.769,2.769,0,0,0-2.769,2.77v14.4a2.77,2.77,0,0,1-2.77,2.769h0a2.77,2.77,0,0,1-2.77-2.769V64.054a2.769,2.769,0,0,0-2.769-2.769h0a2.77,2.77,0,0,0-2.77,2.769V81.78a2.769,2.769,0,0,1-2.769,2.769h0a2.77,2.77,0,0,1-2.77-2.769V57.407a2.77,2.77,0,0,0-2.77-2.769h0a2.769,2.769,0,0,0-2.769,2.769V73.194a2.77,2.77,0,0,1-2.77,2.769h0a2.769,2.769,0,0,1-2.769-2.769v-9.14a2.77,2.77,0,0,0-2.77-2.769h0a2.77,2.77,0,0,0-2.77,2.769V77.9a2.77,2.77,0,0,1-2.769,2.77h0a2.77,2.77,0,0,1-2.77-2.77V67.378a2.77,2.77,0,0,0-2.769-2.77h0a2.77,2.77,0,0,0-2.77,2.77v14.4a2.769,2.769,0,0,1-2.769,2.769h0a2.77,2.77,0,0,1-2.77-2.769V54.915a2.77,2.77,0,0,0-2.77-2.77h0a2.77,2.77,0,0,0-2.769,2.77V84a2.77,2.77,0,0,1-2.77,2.77h0A2.77,2.77,0,0,1,81.793,84V67.378a2.77,2.77,0,0,0-2.77-2.77h0a2.77,2.77,0,0,0-2.77,2.77V77.9a2.77,2.77,0,0,1-2.769,2.77h0a2.77,2.77,0,0,1-2.77-2.77V61.008a2.77,2.77,0,0,0-2.769-2.77h0a2.77,2.77,0,0,0-2.77,2.77V77.9a2.77,2.77,0,0,1-2.769,2.77h0a2.77,2.77,0,0,1-2.77-2.77V67.378a2.77,2.77,0,0,0-2.77-2.77h0a2.77,2.77,0,0,0-2.769,2.77V77.9a2.77,2.77,0,0,1-2.77,2.77h0a2.77,2.77,0,0,1-2.769-2.77V49.652a2.77,2.77,0,0,0-2.77-2.769h0a2.77,2.77,0,0,0-2.77,2.769v18a2.769,2.769,0,0,1-2.769,2.769h0a2.77,2.77,0,0,1-2.77-2.769V61.008a2.77,2.77,0,0,0-2.769-2.77h0a2.77,2.77,0,0,0-2.77,2.77V73.194a2.769,2.769,0,0,1-2.769,2.769h0a2.77,2.77,0,0,1-2.77-2.769V54.915a2.77,2.77,0,0,0-2.77-2.77h0a2.77,2.77,0,0,0-2.769,2.77V77.9a2.77,2.77,0,0,1-2.77,2.77h0a2.77,2.77,0,0,1-2.769-2.77V61.008a2.77,2.77,0,0,0-2.77-2.77h0a2.77,2.77,0,0,0-2.77,2.77V77.9a2.77,2.77,0,0,1-2.769,2.77h0a2.77,2.77,0,0,1-2.77-2.77V55.192a2.77,2.77,0,0,0-2.769-2.77h0a2.77,2.77,0,0,0-2.77,2.77V81.78a2.77,2.77,0,0,1-2.77,2.769h0A2.769,2.769,0,0,1-6.834,81.78V58.238a2.77,2.77,0,0,0-2.77-2.77h0a2.77,2.77,0,0,0-2.769,2.77V77.9a2.77,2.77,0,0,1-2.77,2.77h0a2.77,2.77,0,0,1-2.769-2.77V54.915a2.77,2.77,0,0,0-2.77-2.77h0a2.77,2.77,0,0,0-2.77,2.77V73.194a2.769,2.769,0,0,1-2.769,2.769h0a2.77,2.77,0,0,1-2.77-2.769V61.008a2.77,2.77,0,0,0-2.769-2.77h0a2.77,2.77,0,0,0-2.77,2.77V84a2.77,2.77,0,0,1-2.77,2.77h0A2.77,2.77,0,0,1-40.069,84V70.147a2.77,2.77,0,0,0-2.77-2.769h0a2.769,2.769,0,0,0-2.769,2.769V77.9a2.77,2.77,0,0,1-2.77,2.77h0a2.769,2.769,0,0,1-2.769-2.77V54.915a2.77,2.77,0,0,0-2.77-2.77h0a2.77,2.77,0,0,0-2.77,2.77V81.78a2.769,2.769,0,0,1-2.769,2.769h0a2.77,2.77,0,0,1-2.77-2.769V64.054a2.769,2.769,0,0,0-2.769-2.769h0a2.77,2.77,0,0,0-2.77,2.769V69.87a2.77,2.77,0,0,1-2.77,2.77h0A2.77,2.77,0,0,1-73.3,69.87V54.915a2.77,2.77,0,0,0-2.77-2.77h0a2.77,2.77,0,0,0-2.769,2.77V77.9a2.77,2.77,0,0,1-2.77,2.77h0a2.769,2.769,0,0,1-2.769-2.77V64.054a2.77,2.77,0,0,0-2.77-2.769h0a2.77,2.77,0,0,0-2.77,2.769v9.14a2.769,2.769,0,0,1-2.769,2.769h0a2.77,2.77,0,0,1-2.77-2.769V54.915a2.77,2.77,0,0,0-2.769-2.77h0a2.77,2.77,0,0,0-2.77,2.77V151.85H1101V51.037A2.77,2.77,0,0,0,1098.23,48.268Z"/><rect class="c" x="-10.5" y="117.432" width="1021" height="104.5"/><rect class="d" x="-10.5" y="155.932" width="1021" height="103"/><path class="e" d="M202.5,194.932V158.2a11.3,11.3,0,0,1,.874-4.357l14.126-33.8"/><path class="e" d="M843.5,194.932v-33.8a11.3,11.3,0,0,0-3.954-8.586L798.5,117.432"/><rect class="f" x="-10.5" y="194.932" width="1021" height="76.124"/><line class="e" x1="798.5" y1="117.432" x2="843.5" y2="155.932"/><path class="g" d="M46.83,155.932c60.17-.5,121.17-.5,180.805,0"/><path class="g" d="M-10.5,155.932c13.5-.5,26.5-.5,40.609,0"/><path class="g" d="M445.638,155.65c16.362-.218,32.362-.218,47.888,0"/><path class="g" d="M250.126,155.65c59.874-.218,118.874-.218,179.049,0"/><polygon class="d" points="494.298 139.099 529.31 155.932 601.176 155.932 537.119 116.023 494.298 139.099"/><path class="g" d="M806.436,155.65c67.564-.218,136.564-.218,204.064,0"/><path class="g" d="M508.368,155.65q138.948-.327,278.666,0"/><path class="h" d="M494.3,139.1a3.732,3.732,0,0,1-.442-3.853,10.142,10.142,0,0,1,2.454-3.236c20.058-19.807,52.315-30.545,80.25-27.3,13.94,1.62,27.262,6.532,40.359,11.573,8.17,3.144,39.926,15.023,67.546,30.447a96.366,96.366,0,0,1,27.676,23.03c9.5,11.666,18.52,28.935,3.6,40.863-8.011,6.4-20.436,10.591-30.611,6.943-4.819-1.727-7.613-6.878-10.6-10.709a104.213,104.213,0,0,0-10.92-11.941c-12.174-11.41-28.605-17.547-43.817-23.9-13.77-5.752-27.718-11.261-40.95-18.18l-40.551-21.2c-4.045-2.115-8.768-4.849-13.414-4.122a35.889,35.889,0,0,0-12.959,4.72C508.224,134.515,498.756,144.016,494.3,139.1Z"/><path class="g" d="M541.546,112.477a27.329,27.329,0,0,1,21.793,7.867"/><path class="i" d="M699.53,163.009c-2.544-1.7-4.689-3.938-7.327-5.518a11.447,11.447,0,0,0-6.769-1.808,17.078,17.078,0,0,0-5.114,1.572c-10.778,4.6-21.638,9.243-31.291,15.887-.96.661-2.032,1.695-1.64,2.794a2.752,2.752,0,0,0,1.4,1.295l8.643,4.827c2.448,1.367,4.732,2.714,7.68,2.32a10.024,10.024,0,0,0,2.952-1.052q2.207-1.064,4.409-2.144c8.534-4.188,17-8.581,25.212-13.289a7.9,7.9,0,0,0,2.357-1.776C701.161,164.709,700.789,163.851,699.53,163.009Z"/><path class="j" d="M711.88,142.979c2.8,5.824,1.415,12.3-3.094,14.469l-7.094,3.411-10.139-21.091,7.1-3.41C703.157,134.191,709.081,137.155,711.88,142.979Z"/><ellipse class="j" cx="696.622" cy="150.313" rx="9.057" ry="11.7" transform="translate(3.649 316.641) rotate(-25.673)"/><path class="k" d="M692.691,148.913a7.825,7.825,0,0,1,3.715-.814,2.863,2.863,0,0,1,2.657,2.342c.119,1.532-1.387,2.666-2.791,3.291-5.23,2.325-1.948,6.473-4.294,10.472-2.073,3.535-11.9,8.093-15.734,7.892s-9.223-3.573-7.984-7.877c.726-2.52,4.823-4.661,6.808-5.966A104.747,104.747,0,0,1,692.691,148.913Z"/><path class="j" d="M676.826,159.83c2.8,5.824,1.414,12.3-3.1,14.469l-7.094,3.41L656.5,156.619l7.094-3.411C668.1,151.041,674.026,154.006,676.826,159.83Z"/><ellipse class="j" cx="661.568" cy="167.164" rx="9.057" ry="11.7" transform="translate(-7.112 303.117) rotate(-25.673)"/><ellipse class="k" cx="661.568" cy="167.164" rx="2.828" ry="3.654" transform="translate(-7.112 303.117) rotate(-25.673)"/><path class="i" d="M592.807,114.045c-2.4-1.606-4.427-3.719-6.918-5.21a10.81,10.81,0,0,0-6.391-1.708,16.147,16.147,0,0,0-4.829,1.485c-10.176,4.342-20.429,8.727-29.543,15-.907.625-1.918,1.6-1.548,2.638a2.593,2.593,0,0,0,1.317,1.223l8.161,4.558c2.312,1.29,4.467,2.563,7.251,2.19a9.443,9.443,0,0,0,2.787-.993q2.083-1.005,4.163-2.024c8.058-3.954,16.047-8.1,23.8-12.547a7.487,7.487,0,0,0,2.226-1.677C594.346,115.65,594,114.839,592.807,114.045Z"/><path class="j" d="M604.468,95.133c2.643,5.5,1.335,11.615-2.922,13.661l-6.7,3.22L585.276,92.1l6.7-3.22C596.231,86.835,601.824,89.634,604.468,95.133Z"/><ellipse class="j" cx="590.062" cy="102.058" rx="8.551" ry="11.047" transform="translate(14.035 265.711) rotate(-25.673)"/><path class="k" d="M586.35,100.736a7.392,7.392,0,0,1,3.508-.769,2.7,2.7,0,0,1,2.508,2.211c.112,1.447-1.309,2.518-2.635,3.107-4.938,2.2-1.839,6.112-4.054,9.888-1.958,3.337-11.234,7.641-14.855,7.451s-8.708-3.373-7.539-7.437c.685-2.379,4.554-4.4,6.428-5.633A98.811,98.811,0,0,1,586.35,100.736Z"/><path class="j" d="M571.37,111.043c2.644,5.5,1.336,11.615-2.921,13.661l-6.7,3.22-9.572-19.913,6.7-3.22C563.134,102.745,568.727,105.544,571.37,111.043Z"/><ellipse class="j" cx="556.964" cy="117.967" rx="8.551" ry="11.047" transform="translate(3.875 252.943) rotate(-25.673)"/><ellipse class="k" cx="556.964" cy="117.967" rx="2.67" ry="3.45" transform="translate(3.875 252.943) rotate(-25.673)"/><path class="g" d="M584.3,140.271q18.587,9.623,37.974,17.575"/><path class="g" d="M615.686,142.513a256.49,256.49,0,0,1,27.2,12.063"/><path class="g" d="M605.663,124.425l37.616,18.128"/><path class="g" d="M682.1,184.32a30.914,30.914,0,0,1,10.932,18.813"/><path class="g" d="M702.265,181.783a37.806,37.806,0,0,1,7.727,15.843"/><path class="g" d="M537.119,121.7a19.078,19.078,0,0,0-15.618-.046"/></svg>