<svg xmlns="http://www.w3.org/2000/svg" viewBox="0 0 1026 174"><defs><style>.a{fill:#929497;}.a,.b,.c,.d{stroke:#000;stroke-linecap:round;stroke-linejoin:round;stroke-width:10px;}.b{fill:#c3996b;}.c{fill:#754c28;}.d{fill:#6d6e70;}</style></defs><title>HowPainWorks</title><polygon class="a" points="1021 88 842.538 32.677 5.375 32.677 69.36 119.309 1021 88"/><ellipse class="b" cx="614.681" cy="77.517" rx="136.174" ry="57.483"/><path class="c" d="M524.939,38.534a15.12,15.12,0,0,0,10.168,13.228c5.211,1.622,10.837.093,15.612-2.848a22.211,22.211,0,0,0,8.985-9.856c1.9-4.36,2.031-9.973-.374-13.968C552.039,12.979,523.933,22.5,524.939,38.534Z"/><path class="c" d="M574.465,100.968c4.325,3.268,9.791,3.876,14.869,2.95,6.108-1.115,12.68-5.492,13.472-12.711,1.479-13.477-14.7-18.75-23.4-16.587C568.173,77.412,563.955,93.027,574.465,100.968Z"/><path class="c" d="M678.858,37.877a18.036,18.036,0,0,0,10.992,14.5c5.542,2.1,12.466.389,15.535-5.438,3.1-5.884,1.21-14.116-3.131-18.785C693.72,18.972,676.679,20.113,678.858,37.877Z"/><path class="c" d="M658.05,101.038c6.348,1.905,14.409-.061,18.492-5.149,17.309-21.567-25.049-38.557-27.465-8.678C648.451,94.958,652.625,99.411,658.05,101.038Z"/><path class="c" d="M605.969,8.04c7.632-2.972,16.832,1.523,20.436,9.985a15.171,15.171,0,0,1,1.141,9.016c-1.132,5.148-5.594,8.254-9.9,9.84a31.54,31.54,0,0,1-14.128,1.8C587.558,37.041,595.105,12.272,605.969,8.04Z"/><ellipse class="b" cx="270.346" cy="77.517" rx="136.174" ry="57.483"/><path class="c" d="M180.6,38.534a15.12,15.12,0,0,0,10.168,13.228c5.211,1.622,10.837.093,15.613-2.848a22.209,22.209,0,0,0,8.984-9.856c1.9-4.36,2.032-9.973-.374-13.968C207.7,12.979,179.6,22.5,180.6,38.534Z"/><path class="c" d="M230.13,100.968c4.325,3.268,9.791,3.876,14.869,2.95,6.108-1.115,12.681-5.492,13.473-12.711,1.478-13.477-14.7-18.75-23.4-16.587C223.838,77.412,219.621,93.027,230.13,100.968Z"/><path class="c" d="M334.524,37.877a18.037,18.037,0,0,0,10.991,14.5c5.542,2.1,12.466.389,15.535-5.438,3.1-5.884,1.21-14.116-3.131-18.785C349.386,18.972,332.344,20.113,334.524,37.877Z"/><path class="c" d="M313.715,101.038c6.348,1.905,14.409-.061,18.492-5.149,17.309-21.567-25.049-38.557-27.465-8.678C304.116,94.958,308.29,99.411,313.715,101.038Z"/><path class="c" d="M261.634,8.04c7.632-2.972,16.832,1.523,20.436,9.985a15.163,15.163,0,0,1,1.141,9.016c-1.132,5.148-5.594,8.254-9.9,9.84a31.539,31.539,0,0,1-14.128,1.8C243.223,37.041,250.77,12.272,261.634,8.04Z"/><ellipse class="b" cx="680.5" cy="95.113" rx="139.5" ry="58.887"/><path class="c" d="M588.566,55.178a15.489,15.489,0,0,0,10.417,13.551c5.338,1.661,11.1.1,15.993-2.917a22.751,22.751,0,0,0,9.2-10.1c1.942-4.466,2.082-10.216-.383-14.309C616.329,29,587.536,38.757,588.566,55.178Z"/><path class="c" d="M639.3,119.137c4.43,3.348,10.03,3.971,15.232,3.022,6.257-1.142,12.99-5.626,13.8-13.021,1.514-13.807-15.055-19.208-23.972-16.992C632.856,95.005,628.536,111,639.3,119.137Z"/><path class="c" d="M746.245,54.505a18.48,18.48,0,0,0,11.26,14.852c5.678,2.151,12.77.4,15.914-5.572,3.175-6.027,1.24-14.46-3.207-19.243C761.47,35.139,744.012,36.308,746.245,54.505Z"/><path class="c" d="M724.928,119.209c6.5,1.951,14.761-.063,18.944-5.275,17.732-22.093-25.661-39.5-28.136-8.891C715.1,112.98,719.371,117.542,724.928,119.209Z"/><path class="c" d="M671.575,23.94c7.819-3.046,17.244,1.559,20.936,10.228A15.542,15.542,0,0,1,693.68,43.4c-1.16,5.274-5.732,8.456-10.147,10.081a32.3,32.3,0,0,1-14.473,1.846C652.715,53.648,660.446,28.275,671.575,23.94Z"/><ellipse class="b" cx="338" cy="95.113" rx="139.5" ry="58.887"/><path class="c" d="M246.066,55.178a15.489,15.489,0,0,0,10.417,13.551c5.338,1.661,11.1.1,15.993-2.917a22.751,22.751,0,0,0,9.2-10.1c1.942-4.466,2.082-10.216-.383-14.309C273.829,29,245.036,38.757,246.066,55.178Z"/><path class="c" d="M296.8,119.137c4.43,3.348,10.03,3.971,15.232,3.022,6.257-1.142,12.99-5.626,13.8-13.021,1.514-13.807-15.055-19.208-23.972-16.992C290.356,95.005,286.036,111,296.8,119.137Z"/><path class="c" d="M403.745,54.505a18.48,18.48,0,0,0,11.26,14.852c5.678,2.151,12.77.4,15.914-5.572,3.175-6.027,1.24-14.46-3.207-19.243C418.97,35.139,401.512,36.308,403.745,54.505Z"/><path class="c" d="M382.428,119.209c6.5,1.951,14.761-.063,18.944-5.275,17.732-22.093-25.661-39.5-28.136-8.891C372.6,112.98,376.871,117.542,382.428,119.209Z"/><path class="c" d="M329.075,23.94c7.819-3.046,17.244,1.559,20.936,10.228A15.542,15.542,0,0,1,351.18,43.4c-1.16,5.274-5.732,8.456-10.147,10.081a32.3,32.3,0,0,1-14.473,1.846C310.215,53.648,317.946,28.275,329.075,23.94Z"/><line class="d" x1="842.538" y1="32.677" x2="800" y2="129"/><polygon class="d" points="79.883 88 1021 88 973 169 127.883 169 79.883 88"/><polygon class="d" points="5.375 32.677 50.498 108.823 127.883 169 79.883 88 5.375 32.677"/></svg>