<svg xmlns="http://www.w3.org/2000/svg" viewBox="0 0 357.646 778.032"><defs><style>.a{fill:#00a14b;}.b{fill:#f0de7f;}.b,.c,.d,.e,.f,.g,.h,.k,.l{stroke:#000;stroke-width:4px;}.b,.c,.d,.e,.f,.g,.h,.i,.j,.k,.l{stroke-linecap:round;stroke-linejoin:round;}.c{fill:#80d68a;}.d{fill:#f29379;}.e{fill:#c6a2dd;}.f{fill:#91e5e5;}.g{fill:#b2cffd;}.h{fill:#eacb86;}.i,.j,.k{fill:none;}.i,.j{stroke:#fff;}.i{stroke-width:14px;}.j{stroke-width:9px;}.l{fill:#f1f1f2;}</style></defs><title>HowPainWorks</title><rect class="a" y="64.009" width="361.499" height="714.246"/><rect class="b" x="40.582" y="-9.212" width="76.082" height="60.233"/><path class="c" d="M47.586,24.687c-.311,7.338-3.27,14.9-9.263,19.152S23.081,47.936,18.3,42.36c-2.485-2.9-3.509-6.756-4.173-10.516A75.526,75.526,0,0,1,14.289,4.76c.7-3.708,1.775-7.537,4.39-10.258,6.7-6.972,19.876-3.305,24.73,4.2,1.79,2.768,1.574,5.578,1.985,8.726C46.153,13.238,47.838,18.753,47.586,24.687Z"/><rect class="d" x="308.567" y="1.795" width="49.078" height="56.916"/><path class="e" d="M289.515,52.033c-6.088-5.44-9.038-13.559-10.813-21.528-1.7-7.62-2.494-15.789.305-23.077s10.06-13.323,17.825-12.515c4.628.481,8.79,3.279,11.735,6.882a39.278,39.278,0,0,1,6.307,12.367,97.147,97.147,0,0,1,4.863,23.262c.293,3.5.382,7.114-.761,10.437C314.982,59.476,297.325,59.011,289.515,52.033Z"/><path class="f" d="M247.553,37.146c-1.367-5.1-3.952-9.59-4.526-15.006C241.931,11.8,246.261,1.476,257.288-.7c20.3-4.006,25.409,16.2,27.774,31.442.83,5.348,1.533,10.833.485,16.143-2.33,11.809-12.134,16.1-23.064,12.444a20.8,20.8,0,0,1-8.989-5.548c-4.24-4.721-4.371-10.16-5.755-15.9Q247.651,37.509,247.553,37.146Z"/><path class="g" d="M224.745,52.912c-4.83-3.067-7.915-8.4-9.192-13.98s-.908-11.407-.011-17.058c.755-4.761,1.927-9.574,4.581-13.6s7.034-7.165,11.853-7.261c6.063-.12,11.3,4.5,14.324,9.751,3.746,6.511,5.032,14.1,6.255,21.516.9,5.463,1.763,11.288-.453,16.362C248.034,57.961,232.09,57.574,224.745,52.912Z"/><path class="b" d="M189.686,52.5c-5.66-6.609-7.257-19.594-6.547-27.872.553-6.442,3.042-12.9,7.8-17.27s11.974-6.3,17.97-3.88c4.293,1.73,7.559,5.424,9.695,9.53,3.245,6.238,3,11.816,4.012,18.4,1.106,7.175,3.584,15-1.836,21.209C213.8,60.614,196.452,60.4,189.686,52.5Z"/><path class="c" d="M194.154,37.476c.75,8.785,2.292,19.837-7.405,24.414-15.628,7.378-28.772-16.721-30.415-28.955-1.014-7.55-.315-15.7,4-21.974s12.943-9.947,19.917-6.88c5.238,2.3,8.454,7.69,10.314,13.1C192.807,23.7,193.568,30.614,194.154,37.476Z"/><path class="d" d="M155.757,8.371c2.665,3.249,3.179,9.109,4.159,13.031,2.617,10.479,3.43,20.279,4.226,31.127.179,2.439.343,5.014-.743,7.2-2.234,4.512-9.13,4.553-13.383,4.075-1.526-.172-15.455-2.212-15.555-2.714a280.174,280.174,0,0,1-5.95-40.511c-.518-7.122,1.893-14.363,9.292-16.279C143.2,2.907,151.963,3.745,155.757,8.371Z"/><path class="f" d="M75.453,65.658c-2.025-10.126-.909-19.973-1.4-30.018-.5-10.306-7.226-22.461-10.605-32.214a16.02,16.02,0,0,1-1.271-6.378c.169-2.177,1.477-4.423,3.587-4.985A5.437,5.437,0,0,1,71-5.986a16.025,16.025,0,0,1,2.685,5.2l6.822,18.48c1.559,4.223,5.045,10.361,10.251,7.112,9.113-5.689,2.093-27.2,1.1-35.626a10.184,10.184,0,0,1,.223-4.9c.6-1.539,2.271-2.8,3.863-2.35,1.718.484,2.4,2.507,2.818,4.242,1.8,7.44,4.334,14.836,4.08,22.484-.248,7.509.8,15.169,1.947,22.627.611,5.037.939,10.214,2.105,15.144.945,3.993,2.395,7.332-.245,11.309C103.6,62.327,76.114,68.964,75.453,65.658Z"/><path class="e" d="M136.11,46.95c3.444-6.885-.452-14.233-2.407-22-.925-3.673-1.926-7.5-4.416-10.349-4.736-5.426-15.774-3.991-19.928,1.425-8.461,11.035-3.2,27.911-2.758,40.436a3.633,3.633,0,0,0,.415,1.891c.672,1.024,2.123,1.1,3.345,1.013,8.106-.551,17.417-2.742,23.127-8.752A15.211,15.211,0,0,0,136.11,46.95Z"/><path class="e" d="M109.632,11.165A12.2,12.2,0,0,1,112.673-.628c1.96-2.061,4.791-3.547,7.595-3.073s4.969,2.778,6.439,5.223C135.379,15.954,114.34,25.856,109.632,11.165Z"/><path class="f" d="M83.975,7.054c6.813-1.719,14,3.936,12.107,11.107a9.565,9.565,0,0,1-7.844,6.868,10,10,0,0,1-10.367-6.717A9.067,9.067,0,0,1,83.975,7.054Z"/><path class="d" d="M42.374,70.353c-1.857,3.761-11.26,7.293-15.061,8.5-5.76,1.83-13.227,3.1-18.744-.138-2.212-1.3-2.722-4.215-3.005-6.763-.774-7-1.548-14.089-.449-21.04S9.43,37.052,15.185,33c4.227-2.974,10.3-4.063,14.485-1.033,2.857,2.068,4.261,5.554,5.441,8.878a213.381,213.381,0,0,1,7.305,25.5A6.122,6.122,0,0,1,42.374,70.353Z"/><path class="d" d="M14.494,35.144a12.211,12.211,0,0,1-5.127-13.3c3.541-12.519,22.666-11.295,21.972,2.941C30.919,33.4,22.543,40.173,14.494,35.144Z"/><path class="h" d="M72.512,47.383c1.344,3.824,3.279,8.224,3.976,12.19a8.215,8.215,0,0,1-1.325,6.506,11.068,11.068,0,0,1-5.308,3.161c-6.814,2.327-20.384,6.877-26.467,1.164C41.25,68.4,40.21,65.49,39.53,62.637a44.645,44.645,0,0,1,.288-21.761C41.2,35.694,43.688,30.57,48,27.38s10.726-3.924,14.97-.645c3.04,2.348,4.458,6.179,5.731,9.8Z"/><path class="h" d="M42.432,17.613C45.413,8.206,63.953,2.971,63.6,19.1c-.2,9.055-12.876,14.546-19.066,7.24C42,23.36,41.576,20.314,42.432,17.613Z"/><path class="i" d="M-18.639,227.841Q178.748,186.6,377.886,154.423"/><path class="j" d="M167.034,211.731q121.279,89.979,238.08,185.794"/><path class="c" d="M245.936,81.835c-3.3-1.764-4.631-5.348-4.769-10.862A60.459,60.459,0,0,1,246.8,43.451c2.179-4.592,5.961-9.459,11.035-9.147,4.222.259,7.282,4.027,9.537,7.606a97.6,97.6,0,0,1,8.348,16.558c1.523,3.909,2.811,8.134,2,12.251-1.659,8.447-15.88,11.742-23.017,12.311C250.874,83.336,248.015,82.947,245.936,81.835Z"/><path class="h" d="M116.8,14.18a6.834,6.834,0,0,1,.3-3.92c.926-1.82,3.406-2.425,5.33-1.742a8.835,8.835,0,0,1,4.377,4.1c2.411,4.122,3.135,8.983,3.848,13.705s1.514,9.584,4.047,13.633c4.369,6.985,8.3,5.89,13.608,1.238,8.653-7.582,13.836-17,21.608-25.141.811-.85,1.805-1.739,2.976-1.652,1.969.146,2.624,2.747,2.378,4.706-1.435,11.429-14.412,18.379-16.98,29.608-2.318,10.143,4.487,21.3.332,30.834-5.191,11.917-22.68,11.645-30.749,2.966-7.533-8.1-6.095-26.991-7.306-37.042Z"/><path class="h" d="M155.982,43.389a12.011,12.011,0,0,0-22.914-7.2C128.079,51.134,151.524,58.509,155.982,43.389Z"/><path class="e" d="M17.394,67.861c-.858-6.6-.968-13.212-3.141-19.49-2.52-7.28-4.967-14.58-7.22-21.948a12.51,12.51,0,0,1-.805-5.32,4.34,4.34,0,0,1,3.3-3.835c2.648-.383,4.527,2.451,5.6,4.9a113.831,113.831,0,0,1,7.1,22.274c.655,3.139,1.212,6.4,2.934,9.1s4.98,4.736,8.088,3.947c3.723-.945,5.443-5.192,6.252-8.947a93.178,93.178,0,0,0,1.709-20.1c-.018-4.086-2.035-12.4,2.854-14.686,2.233-1.045,4.993.4,6.258,2.511s1.42,4.691,1.541,7.153l1.99,40.418c.269,5.466,0,11,1.869,16.091,1.8,4.9,3.508,9.393,4.185,14.691.491,3.838.554,7.975-1.428,11.3-2.808,4.71-8.726,6.344-14.069,7.576-6.039,1.392-13.213,2.5-17.717-1.752-3.028-2.861-3.823-7.3-4.456-11.416C20.558,89.418,18.8,78.644,17.394,67.861Z"/><path class="e" d="M27.978,42.33C39.1,34.8,48.479,51.786,38.724,59.485,28.234,67.765,17.413,49.492,27.978,42.33Z"/><path class="f" d="M62.308,59.975a18.37,18.37,0,0,1,9.2-6.715c5.432-1.67,11.912-.11,15.456,4.333,3.32,4.162,3.842,9.83,5.938,14.592,2.527,5.742,5.173,11.254,7.069,17.3,1.1,3.493,1.976,7.561-.063,10.6-1.734,2.587-5.018,3.556-8.043,4.3q-10.9,2.651-21.955,4.577c-4.618.8-6.847,2.322-8.662-2.361-.833-2.147-.752-4.641-1.194-6.884-2-10.159-4.394-25.15-.41-34.991A21.473,21.473,0,0,1,62.308,59.975Z"/><path class="f" d="M70.028,39.242c3.7-1.891,8.553-.424,11.212,2.774,6.368,7.659.743,21.985-10.3,18.793C61.31,58.024,61.827,43.429,70.028,39.242Z"/><path class="c" d="M95.5,57.2c-4.146,4.953-4.8,10.616-6.09,16.66-1.039,4.875-3.232,8.925-2.709,14.142.325,3.237,1.718,6.518,4.383,8.385,7.5,5.255,23.317,1.621,30.709-1.96,2.66-1.289,5.373-3.1,6.263-5.918.766-2.422.012-5.033-.739-7.459L123.145,67.6c-1.81-5.844-4.077-12.262-9.476-15.139C107.689,49.278,99.844,52.009,95.5,57.2Z"/><path class="c" d="M96.311,51.7A10.861,10.861,0,0,1,95.9,40.239,11.206,11.206,0,0,1,106.1,34.9a11.517,11.517,0,0,1,10.35,10.093C117.52,56.587,102.617,60.731,96.311,51.7Z"/><path class="g" d="M169.463,56.153c3.453-6.639,10.885-11.838,18.194-10.232,4.739,1.041,8.555,4.721,10.91,8.963s3.462,9.044,4.541,13.774c1.491,6.537,2.843,13.928-.865,19.514-3.125,4.707-8.941,6.693-14.336,8.372-5.212,1.624-11.277,3.14-15.8.083C162.021,89.812,164.83,65.063,169.463,56.153Z"/><path class="g" d="M172.091,39.153a12.216,12.216,0,0,1,9.678-9.77,11.743,11.743,0,0,1,12.2,6.175,11.306,11.306,0,0,1-2.811,13.3C184.078,54.7,170.429,48.914,172.091,39.153Z"/><path class="d" d="M241.007,78.713c-3.854,4.655-16.068,5.193-21.832,6.468-6.27,1.388-13.566-.009-13.975-7.678a76,76,0,0,1,2.32-23.08,28.114,28.114,0,0,1,4.471-10.231c2.284-2.972,5.759-5.22,9.507-5.248a12.638,12.638,0,0,1,8.8,4.029,29.706,29.706,0,0,1,5.385,8.3,94.5,94.5,0,0,1,6.146,16.747C242.774,71.616,243.379,75.847,241.007,78.713Z"/><path class="d" d="M208.145,36.63a12.179,12.179,0,0,1,12-13.133C230.6,23.734,233,36.71,225.951,42.958,220.055,48.189,209.081,44.905,208.145,36.63Z"/><path class="c" d="M254.43,19.5c6.947-.248,15.144,5.89,12.7,13.543a11.439,11.439,0,0,1-7.677,7.154C241.321,45.621,238.574,20.062,254.43,19.5Z"/><path class="b" d="M277.986,74.026c-2.324-2.465-2.84-6.1-2.971-9.486a63.674,63.674,0,0,1,2.258-19.4c1.309-4.728,3.239-9.417,6.6-12.995s8.352-5.89,13.188-5.063c5.095.872,9.134,5.04,11.254,9.755s2.643,9.968,3.14,15.113c.852,8.83,4.149,22.7-8.245,24.426-3.6.5-7.481-.232-11.157.129C287.27,76.97,281.706,77.971,277.986,74.026Z"/><path class="b" d="M285.449,31.167a10.329,10.329,0,0,1-3.83-4.913,12.98,12.98,0,0,1-.617-8.68,9.2,9.2,0,0,1,5.907-6.145c3.364-1,7.074.387,9.727,2.685,3.125,2.709,5.148,6.946,4.385,11.011C299.835,31.441,290.725,34.487,285.449,31.167Z"/><path class="h" d="M342.3,65.661c-7.894,3.206-22.824,11.343-29.894,2.2a14.393,14.393,0,0,1-2.442-7.118,45.721,45.721,0,0,1,2.993-22.818,23.92,23.92,0,0,1,6.671-9.8c3.1-2.514,7.389-3.81,11.2-2.617,4.612,1.443,7.456,5.971,9.672,10.265a143.853,143.853,0,0,1,7.172,16.3c1.118,3.038,2.1,6.564.506,9.382C346.97,63.6,344.578,64.736,342.3,65.661Z"/><path class="h" d="M323.037,8.941c4.953-2,10.55-.6,11.876,8.089,1.425,9.343-8.1,13.991-15.7,9.28C310.56,20.95,316.181,11.7,323.037,8.941Z"/><path class="d" d="M314.434,81.466c-1.19-5.906-2.293-12.012-1.083-17.914s5.281-11.615,11.154-12.96c4.252-.974,8.77.476,12.38,2.926,8.906,6.044,20.9,28.824,14.927,39.067-5.474,9.386-27,8.637-35.5,6.584A96.163,96.163,0,0,0,314.434,81.466Z"/><path class="g" d="M279.413,90.487l2.445-22.064c1.035-9.335-.188-14.5-3.412-23.286-.893-2.431-1.875-4.981-1.464-7.538s2.836-4.99,5.351-4.372c2.431.6,3.454,3.422,4.087,5.844,1.581,6.049,2.256,14.467,5.213,19.945,3.121,5.78,9.917,2.694,11.376-2.317,2.322-7.976,1.327-17.72,3.194-26.045.462-2.059,1.578-4.588,3.685-4.471,2.534.141,2.945,3.681,2.672,6.2-1.758,16.27,1.718,30.833,5.862,46.354,2.038,7.635,2.254,15.358-4.37,20.841-6.705,5.55-20.374,6.468-28.705,6.169-2.419-.087-5.211-.577-6.386-2.693a7.656,7.656,0,0,1-.434-4.576Q278.97,94.485,279.413,90.487Z"/><path class="b" d="M252.36,107.113c-3.706-3.236-3.981-8.8-3.979-13.723,0-8.3,1.941-15.526.593-23.676Q246.64,55.6,244.308,41.477c-.469-2.842-.93-5.817-.025-8.552s3.653-5.091,6.476-4.521c3.457.7,4.766,4.859,5.424,8.324q1.562,8.215,3.122,16.431c.519,2.732,1.065,5.535,2.543,7.889s4.123,4.192,6.887,3.89c2.568-.28,4.663-2.341,5.722-4.7a22.444,22.444,0,0,0,1.465-7.568l1.584-20.82a10.79,10.79,0,0,1,1.157-4.877c.878-1.44,2.727-2.44,4.286-1.795,1.965.815,2.246,3.435,2.221,5.562l-.72,60.823c-.048,4.059-.133,8.279-1.943,11.913C278.54,111.439,258.8,112.738,252.36,107.113Z"/><path class="h" d="M219.356,73.731a13.685,13.685,0,0,1,1.729-2.937c7.459-9.532,19.235-5.6,24.795,3.089,5.19,8.113,5.029,19.88,5.658,29.4a21.076,21.076,0,0,1-.318,6.762c-1.8,6.842-5.057,3.394-9.75,3.5-5.489.123-15.148,1.865-19.363-2.608a17.663,17.663,0,0,1-3.581-7.16,49.674,49.674,0,0,1-.778-24.635A26.409,26.409,0,0,1,219.356,73.731Z"/><path class="f" d="M182.548,114.085c-3.954-4.085-4.414-10.4-3.805-16.054a58.066,58.066,0,0,1,7.686-23.193c2.3-3.9,5.672-7.869,10.19-8.063,3.386-.146,6.527,1.968,8.627,4.628s3.386,5.852,4.9,8.884c2.484,4.967,5.649,9.613,7.587,14.818,3.518,9.445,1.165,20.163-9.791,22.518C200.673,119.186,188.067,119.787,182.548,114.085Z"/><path class="f" d="M205.385,73.54c-9.072,8.869-22.328-2.351-20.23-13.23,1.092-5.658,7.38-9.556,13.049-8.524s10.068,6.415,10.511,12.163A12.176,12.176,0,0,1,205.385,73.54Z"/><path class="d" d="M190.339,43.079c-2.354-5.465-8.323-2.937-9.909,1.569a26.888,26.888,0,0,0-.994,6.539c-.854,9.416-7.062,31.807-20.771,21.2-6.861-5.308-10.761-25.964-20.216-26.1-8.953-.125-6.436,8.959-3.484,13.647,2.608,4.14,3.567,8.686,6.107,12.969,2.767,4.666,4.8,9.215,5.405,14.667a75.767,75.767,0,0,1,.4,13.635c-.278,3.947-2.054,6.51-2.838,10.037-2.929,13.175,18.613,13.576,25.947,11.2,4.855-1.573,9.44-4.672,11.666-9.264,1.736-3.58,1.9-7.691,2.027-11.667.172-5.268-1.253-11.466-.337-16.536,1.22-6.752,4.1-13.45,5.388-20.4,1.077-5.816,3.669-15.1,1.813-20.949Q190.455,43.347,190.339,43.079Z"/><path class="e" d="M109.6,101.492a71.9,71.9,0,0,1,8.265-18.759c2.331-3.731,5.485-7.543,9.848-8.107,4.529-.585,8.64,2.53,11.978,5.646,11.48,10.72,30.044,38.29,6.133,47.46C127.964,134.583,103.95,121.782,109.6,101.492Z"/><path class="b" d="M71.61,107.4c-.145-7.7,2.818-15.217,7.153-21.582,3.092-4.54,7.37-8.853,12.82-9.526,6.177-.762,11.923,3.384,15.953,8.127,10.8,12.706,13.146,35.5-3.356,45.168C89.329,138.284,71.892,122.368,71.61,107.4Z"/><path class="g" d="M73.858,90.165c4.047,3.753,6.88,8.7,9.5,14.584,2.108,4.735,4.061,9.917,2.99,14.989-4.019,19.028-46.795,26.232-48.294,1.468-.568-9.4-.22-20.3,5.82-27.754C51.324,84.252,64.873,81.83,73.858,90.165Z"/><path class="d" d="M327.2,35.1c8.74,1.281,13.118,13.641,7.387,20.1a11.282,11.282,0,0,1-16.923-.209c-2.886-3.382-3.089-8.495-1.371-12.595C318.115,38.051,322.54,34.415,327.2,35.1Z"/><path class="g" d="M60.147,66.128c9.686,1.056,16.611,16.952,5.939,24.018C54.558,97.778,40.91,82.561,49.452,71.672,52.923,67.248,56.709,65.753,60.147,66.128Z"/><path class="b" d="M107.8,71.616c1.379,3.491.776,7.744-3.377,12.157-7.1,7.543-19.991.49-20.364-8.974C83.389,57.814,103.827,61.552,107.8,71.616Z"/><path class="e" d="M135.106,86.074a13.039,13.039,0,0,1-15.6-5.648c-2.908-4.905-1.456-11.761,2.847-15.5a13.445,13.445,0,0,1,14.227-2.044,12.7,12.7,0,0,1,7.081,12.39A12.463,12.463,0,0,1,135.106,86.074Z"/><path class="c" d="M31.725,91.048A33.536,33.536,0,0,1,39.5,101.1c3.444,6.581,11.613,22.238,7.455,29.622-4.2,7.468-21.277,7.52-28.328,6.736C7.792,136.25,3.265,134.405,1.485,123.728-.486,111.91-2.386,97.614,9.113,89.878,17.55,84.2,25.5,85.772,31.725,91.048Z"/><path class="k" d="M16.217,138.039c-4.085-8.508-4.53-14.821-6.7-23.79"/><path class="k" d="M31.044,103.171a167.423,167.423,0,0,1,8.2,22.884"/><path class="c" d="M13.125,69.109C24.13,64.451,37.186,79,30.262,89.2,20.342,103.8-3.147,88.5,7.271,74.063A14.111,14.111,0,0,1,13.125,69.109Z"/><path class="d" d="M153.036,68.9c-1.595-4.819-.417-10.6,3.36-13.993s10.082-3.8,13.936-.5c3.31,2.837,4.308,7.516,4.605,11.866C176.083,83.055,157.755,83.158,153.036,68.9Z"/><path class="h" d="M237.926,50.853c8.986,4.028,7.773,14.144.482,19.3C217.883,84.659,213.934,40.1,237.926,50.853Z"/><path class="b" d="M265.42,48.531c14.718-.645,16.3,23.4,1.318,22.041C252.933,69.321,250.384,49.19,265.42,48.531Z"/><path class="g" d="M308.266,57.285c-1.317,5.786-6,10.441-13.684,7.7-9.9-3.524-9.441-19.772.883-22.223C305.979,40.269,309.983,49.739,308.266,57.285Z"/><path class="k" d="M51.872,102.807,55.5,131.912"/><path class="k" d="M71.972,102.05l6.388,18.167"/><path class="k" d="M83.588,92.352c4.483,2.468,5.911,8.573,11.31,9.687,3.3.682,6.586-.991,9.543-2.611"/><path class="k" d="M122.985,94.772q1.113,13.636,1.828,27.3a3.364,3.364,0,0,0,1.2-4"/><path class="k" d="M143.1,93.662a41.991,41.991,0,0,1,4.1,21.817"/><path class="k" d="M190.317,86.036l.626,25.1"/><path class="k" d="M227.3,83.3c-2.315,9.118,1.92,14.321,1.092,23.531"/><path class="k" d="M243.221,81.088a52.867,52.867,0,0,1,2.836,21.793"/><path class="k" d="M325.168,69.13l3.689,23.822"/><path class="k" d="M340.867,67.122a46.592,46.592,0,0,1,4.575,25.189"/><path class="l" d="M-23.312,124.565c107.348-5.752,215.178-18.311,321.85-31.469q37.361-4.608,74.647-9.8l-.548,50.664L-21.307,191.138Z"/><path class="k" d="M91.315,108.078c10.494,3.246,26.87,1.041,21.2-14.292"/></svg>