<svg id="Layer_1" data-name="Layer 1" xmlns="http://www.w3.org/2000/svg" viewBox="0 0 26 26"><defs><style>.cls-1{fill:#f91d00;}</style></defs><title>HowPainWorksScene5</title><path class="cls-1" d="M9.5,23.369a.517.517,0,0,1-.192-.038.5.5,0,0,1-.3-.517l.794-7.128-5.848-.829a.5.5,0,0,1-.16-.939L9.33,11.042,7.159,5.2a.5.5,0,0,1,.827-.523l4.119,4.234,2.917-6a.5.5,0,0,1,.45-.281.543.543,0,0,1,.132.017.5.5,0,0,1,.366.523l-.616,7.685,6.75,1.66a.5.5,0,0,1,.017.966L16.4,15.113l3.393,5.793a.5.5,0,0,1-.432.753.491.491,0,0,1-.258-.072l-5.319-3.218-3.9,4.815A.5.5,0,0,1,9.5,23.369Z"/><path d="M15.472,3.131l-.65,8.11L21.984,13,15.642,14.81l3.719,6.349-5.692-3.444L9.5,22.869l.848-7.611-6.328-.9,5.937-3.08L7.628,5.022l4.617,4.745,3.227-6.636m0-1a1,1,0,0,0-.9.563L11.968,8.049,8.344,4.325A1,1,0,0,0,6.69,5.371L8.708,10.8,3.555,13.475a1,1,0,0,0,.321,1.877l5.367.76L8.5,22.758a1,1,0,0,0,1.771.74L13.9,19.022l4.946,2.993a1,1,0,0,0,1.381-1.361l-3.067-5.236,5.1-1.455a1,1,0,0,0-.035-1.933l-6.337-1.557.583-7.262a1,1,0,0,0-1-1.08Z"/></svg>