<svg xmlns="http://www.w3.org/2000/svg" viewBox="0 0 267 579"><defs><style>.a{fill:#707078;}.b{fill:#54545c;}.c{fill:none;}.c,.i,.j,.m{stroke:#000;stroke-miterlimit:10;stroke-width:5px;}.d{fill:#3f3f47;}.e{fill:#e2e1dc;}.f,.m{fill:#fff;}.g{fill:#eaeaea;}.h{fill:#ffb839;}.i{fill:#d6d6d6;}.j{fill:#08ba90;}.k{fill:#0031aa;}.l{fill:#8c8c8c;}</style></defs><title>HowPainWorks</title><path class="a" d="M125.751,246.482c-4.426-13.7,30.87-32.649,16.532-87.3C125.306,94.463,62.718,48.525,31.712,62.272c0,0-62.395,28.488-3.118,147.312,29.341,51.3,66.015,31.742,76.408,47.746,0,0,31.407,50.384,62.085,145.611S209.5,558.1,241.5,544.738s-10.262-77.073-49.605-152.794A1575.038,1575.038,0,0,1,125.751,246.482Z"/><path class="b" d="M27.146,189.519c25.551,54.193,8.055,7.857,53.9-12.469,40.75-18.067,70.56,18.239,46.493-34.327C102.3,87.6,60.557,59.662,34.183,71.355S1.6,135.34,27.146,189.519Z"/><path class="c" d="M126.362,247.86c-4.426-13.7,30.259-34.027,15.921-88.681C125.306,94.463,62.718,48.525,31.712,62.272c0,0-62.395,28.488-3.118,147.312,29.341,51.3,66.015,31.742,76.408,47.746,0,0,31.407,50.384,62.085,145.611S209.5,558.1,241.5,544.738s-10.262-77.073-49.605-152.794A1542.535,1542.535,0,0,1,126.362,247.86Z"/><path class="b" d="M237.831,536.469c26.183-11.608-47.1-126.7-47.1-126.7s-.475,17.524-11.713,5.193C189.7,446.506,212.337,547.772,237.831,536.469Z"/><path class="b" d="M99.608,213.551c19.982-8.859,20.841-27.378,31.936-26.526s2.794,41.634-20.633,52.02-61.829-5.566-55.237-16.733S78.249,223.022,99.608,213.551Z"/><path class="d" d="M22.671,156.462c8.119,17,19.967-17.009,39.1-25.893,19.386-9,50.472,1.089,42.76-15.641C88.457,80.072,55.937,65.093,35.652,74.086S6.328,122.243,22.671,156.462Z"/><path class="e" d="M42.876,171.1c2.761,6.227,2.549,13.822,6.079,18.971,3.935,5.742,8.985,10.5,13.478,14.6,5.333,4.875,12.12,6.274,17.59,8.363,6.751,2.579,12.256,3.249,18.016.695s9.332-6.939,11.954-13.674c2.124-5.456,5.468-11.569,5.437-18.794-.027-6.086-3.438-12.287-5.05-19.059-1.446-6.074-.894-13.187-3.655-19.414s-8.371-10.615-11.9-15.765a83.112,83.112,0,0,0-12.509-14.607,49.942,49.942,0,0,0-15.909-10.307c-6.751-2.578-12.829-4.211-18.59-1.657s-9.653,7.757-12.275,14.492c-2.124,5.456-5.106,11.893-5.075,19.118a88.373,88.373,0,0,0,1.918,19.913C33.83,160.051,40.115,164.871,42.876,171.1Z"/><path class="f" d="M75.669,198.607c-2.223,4.283,6.877,11.791,6.877,11.791l12.857-.753,6.741-7.111,6.13-8.489-5.2-4.29-6.813,1.371-6.968,4.738s-3.14,2.217-4.823,2.139S75.669,198.607,75.669,198.607Z"/><path class="f" d="M88.013,172.522c-2.145,2.6-2.99,6.273,1.294,8.5s4.816,5.285,9.561,4.83,10.8-7.261,6.514-9.484-2.366-7.195-4.966-9.341S89.086,171.222,88.013,172.522Z"/><path class="f" d="M64.216,169.057c-4.056.149-7.579,3.36-6.662,5.427s4.738,6.969,7.494,5.747,5.512-2.444,6.357-6.117S64.216,169.057,64.216,169.057Z"/><path class="f" d="M70.879,163.63c.533,3.061,1.371,6.812,4.739,6.968s7.423.007,9.873-1.9,6.663-5.428,10.03-5.272,7.657-5.044,6.819-8.794-1.6-9.185-5.427-6.663-3.069,7.956-7.2,9.789-6.89,3.055-10.257,2.9S70.879,163.63,70.879,163.63Z"/><path class="f" d="M50.449,160.32c.917,2.067-1.69,7.345-4.446,8.567s-7.847-3.069-7.44-5.746S50.449,160.32,50.449,160.32Z"/><path class="f" d="M64.471,141.737c-2.485,1.1-3.069,7.956.6,8.8s9.334,2.457,12.09,1.235,8.425-7.032,8.581-10.4,4.14-9.256.851-11.095-9.106-.085-8.573,2.977,1.215,10.179-1.541,11.4S65.849,141.126,64.471,141.737Z"/><path class="f" d="M65.876,111.433c-3.875,2.332-2.38,7.651-6.13,8.489s-10.791-.163-14.236,1.365-8.353,12.772-6.136,15.912,6.279-4.433,11.024-4.888,11.228.118,15.527-2.687,1.322-11.379,4.078-12.6,12.7,2.614,14.846.014-6.578-3.679-9.178-5.824S71.082,108.3,65.876,111.433Z"/><path class="g" d="M161.817,198.244,77.834,429.068l53.08,19.093L213.67,216.086s-8.586-8.754-24.628-15.1S161.817,198.244,161.817,198.244Z"/><path class="h" d="M213.835,216.48l-22.867,63.446a112.522,112.522,0,0,0-24.178-12.558,152.059,152.059,0,0,0-27.723-6.689l22.4-62.143s8.248-4,29.626,3.7S213.835,216.48,213.835,216.48Z"/><path class="c" d="M161.817,198.244,77.834,429.068l53.08,19.093L213.67,216.086s-8.586-8.754-24.628-15.1S161.817,198.244,161.817,198.244Z"/><polygon class="i" points="81.49 435.297 39.805 550.818 80.523 567.314 122.208 451.793 81.49 435.297"/><path class="j" d="M199.6,205.3l13.92-38.639s10.82-30.244,2.186-34.043-19.455,26.444-19.455,26.444l-15.624,38.877Z"/><polygon points="218.165 133.512 213.226 131.717 255.66 15.099 266.467 0.615 218.165 133.512"/><path class="k" d="M170.065,207.882a44.535,44.535,0,0,1,10.157,3.392c1.734.827,3.258-1.759,1.514-2.59a47.762,47.762,0,0,0-10.873-3.695c-1.884-.391-2.69,2.5-.8,2.893Z"/><path class="k" d="M167.69,214.474a44.527,44.527,0,0,1,10.156,3.392c1.734.827,3.258-1.759,1.514-2.59a47.681,47.681,0,0,0-10.873-3.7c-1.884-.392-2.689,2.5-.8,2.893Z"/><path class="k" d="M165.314,221.066a44.414,44.414,0,0,1,10.156,3.392c1.734.827,3.258-1.759,1.515-2.591a47.759,47.759,0,0,0-10.873-3.694c-1.884-.392-2.69,2.5-.8,2.893Z"/><path class="k" d="M163.532,226.009a44.535,44.535,0,0,1,10.157,3.392c1.734.827,3.258-1.758,1.514-2.59a47.711,47.711,0,0,0-10.873-3.694c-1.884-.392-2.69,2.5-.8,2.892Z"/><path class="k" d="M148.09,268.856a44.438,44.438,0,0,1,10.157,3.392c1.734.827,3.257-1.759,1.514-2.591a47.759,47.759,0,0,0-10.873-3.694c-1.884-.392-2.69,2.5-.8,2.893Z"/><path class="k" d="M145.714,275.447a44.535,44.535,0,0,1,10.157,3.392c1.734.827,3.258-1.758,1.514-2.59a47.694,47.694,0,0,0-10.873-3.694c-1.884-.392-2.69,2.5-.8,2.892Z"/><path class="k" d="M143.339,282.039a44.511,44.511,0,0,1,10.156,3.392c1.734.827,3.258-1.759,1.514-2.59a47.729,47.729,0,0,0-10.873-3.695c-1.884-.391-2.689,2.5-.8,2.893Z"/><path class="k" d="M141.557,286.983a44.535,44.535,0,0,1,10.157,3.392c1.733.827,3.257-1.759,1.514-2.59a47.714,47.714,0,0,0-10.873-3.7c-1.884-.392-2.69,2.5-.8,2.893Z"/><path class="k" d="M159.078,238.369a44.511,44.511,0,0,1,10.156,3.392c1.734.827,3.258-1.759,1.514-2.59a47.681,47.681,0,0,0-10.873-3.695c-1.884-.392-2.689,2.5-.8,2.893Z"/><path class="k" d="M156.7,244.961a44.438,44.438,0,0,1,10.157,3.392c1.733.827,3.257-1.759,1.514-2.591a47.759,47.759,0,0,0-10.873-3.694c-1.884-.392-2.69,2.5-.8,2.893Z"/><path class="k" d="M154.326,251.552a44.535,44.535,0,0,1,10.157,3.392c1.734.827,3.258-1.758,1.514-2.59a47.711,47.711,0,0,0-10.873-3.694c-1.884-.392-2.69,2.5-.8,2.892Z"/><path class="k" d="M152.545,256.5a44.543,44.543,0,0,1,10.156,3.392c1.734.827,3.258-1.759,1.514-2.59a47.729,47.729,0,0,0-10.873-3.695c-1.884-.391-2.689,2.5-.8,2.893Z"/><path class="k" d="M161.157,232.6a91.906,91.906,0,0,1,19.061,6.6c1.737.817,3.262-1.769,1.514-2.591a95.291,95.291,0,0,0-19.778-6.9c-1.882-.409-2.686,2.483-.8,2.893Z"/><path class="k" d="M150.169,263.088a91.97,91.97,0,0,1,19.062,6.6c1.737.818,3.261-1.768,1.514-2.59a95.3,95.3,0,0,0-19.779-6.9c-1.882-.409-2.686,2.483-.8,2.893Z"/><path class="k" d="M139.181,293.575a91.95,91.95,0,0,1,19.062,6.6c1.737.817,3.262-1.768,1.514-2.59a95.312,95.312,0,0,0-19.778-6.9c-1.882-.409-2.686,2.482-.8,2.893Z"/><path class="k" d="M136.806,300.166a44.543,44.543,0,0,1,10.156,3.392c1.734.827,3.258-1.758,1.514-2.59a47.678,47.678,0,0,0-10.873-3.694c-1.884-.392-2.689,2.5-.8,2.892Z"/><path class="k" d="M134.43,306.758a44.511,44.511,0,0,1,10.156,3.392c1.734.827,3.258-1.759,1.515-2.59a47.753,47.753,0,0,0-10.874-3.695c-1.884-.391-2.689,2.5-.8,2.893Z"/><path class="k" d="M132.054,313.35a44.486,44.486,0,0,1,10.157,3.392c1.734.827,3.258-1.759,1.514-2.591a47.759,47.759,0,0,0-10.873-3.694c-1.884-.392-2.69,2.5-.8,2.893Z"/><path class="k" d="M130.272,318.294a44.438,44.438,0,0,1,10.157,3.392c1.734.827,3.258-1.759,1.514-2.591A47.743,47.743,0,0,0,131.07,315.4c-1.884-.392-2.69,2.5-.8,2.893Z"/><path class="k" d="M114.83,361.14a44.486,44.486,0,0,1,10.157,3.392c1.734.827,3.258-1.759,1.514-2.591a47.759,47.759,0,0,0-10.873-3.694c-1.884-.392-2.69,2.5-.8,2.893Z"/><path class="k" d="M112.455,367.732a44.43,44.43,0,0,1,10.156,3.392c1.734.827,3.258-1.759,1.514-2.591a47.726,47.726,0,0,0-10.873-3.694c-1.884-.392-2.689,2.5-.8,2.893Z"/><path class="k" d="M110.079,374.323a44.535,44.535,0,0,1,10.157,3.392c1.733.827,3.257-1.758,1.514-2.59a47.762,47.762,0,0,0-10.873-3.695c-1.884-.391-2.69,2.5-.8,2.893Z"/><path class="k" d="M108.3,379.267a44.535,44.535,0,0,1,10.157,3.392c1.734.827,3.258-1.759,1.514-2.59a47.762,47.762,0,0,0-10.873-3.695c-1.884-.391-2.69,2.5-.8,2.893Z"/><path class="k" d="M105.625,386.683a44.446,44.446,0,0,1,10.156,3.392c1.734.827,3.258-1.759,1.514-2.591a47.726,47.726,0,0,0-10.873-3.694c-1.884-.392-2.689,2.5-.8,2.893Z"/><path class="k" d="M125.818,330.653a44.535,44.535,0,0,1,10.157,3.392c1.733.827,3.257-1.759,1.514-2.59a47.762,47.762,0,0,0-10.873-3.695c-1.884-.391-2.69,2.5-.8,2.893Z"/><path class="k" d="M123.442,337.245a44.486,44.486,0,0,1,10.157,3.392c1.734.827,3.258-1.759,1.514-2.591a47.759,47.759,0,0,0-10.873-3.694c-1.884-.392-2.69,2.5-.8,2.893Z"/><path class="k" d="M121.067,343.837a44.446,44.446,0,0,1,10.156,3.392c1.734.827,3.258-1.759,1.514-2.591a47.726,47.726,0,0,0-10.873-3.694c-1.884-.392-2.689,2.5-.8,2.893Z"/><path class="k" d="M119.285,348.78a44.511,44.511,0,0,1,10.156,3.392c1.734.827,3.258-1.758,1.515-2.59a47.7,47.7,0,0,0-10.874-3.694c-1.884-.392-2.689,2.5-.8,2.892Z"/><path class="k" d="M127.9,324.885a91.886,91.886,0,0,1,19.061,6.6c1.737.817,3.262-1.768,1.515-2.591a95.375,95.375,0,0,0-19.779-6.9c-1.882-.409-2.686,2.482-.8,2.892Z"/><path class="k" d="M116.909,355.372a91.894,91.894,0,0,1,19.062,6.6c1.737.817,3.262-1.769,1.514-2.591a95.312,95.312,0,0,0-19.778-6.9c-1.882-.409-2.687,2.483-.8,2.893Z"/><path class="k" d="M187.839,238.891l3.874-1.866-2.2-1.694-4.256,10.344c-.734,1.784,2.167,2.561,2.892.8l4.257-10.343c.548-1.334-1.168-2.193-2.2-1.694l-3.875,1.866c-1.738.837-.219,3.424,1.515,2.59Z"/><path class="k" d="M176.1,268.762l.924-.34q2.138,1.3.668,2.023a13.18,13.18,0,0,1-1.977,1.472L172,274.682a1.524,1.524,0,0,0,.358,2.742,31.442,31.442,0,0,1,5.67,2.767c1.651,1.012,3.159-1.581,1.515-2.59a35.494,35.494,0,0,0-6.387-3.07l.358,2.741c2.036-1.511,4.11-2.982,6.11-4.541,1.229-.958,2.428-2.137,2.269-3.842-.354-3.8-4.622-3.917-7.3-2.717-1.759.788-.235,3.374,1.514,2.59Z"/><path class="k" d="M165.5,298.457a1,1,0,1,1,.561,1.617,1.512,1.512,0,0,0-.757,2.8,1.744,1.744,0,0,1,.184,2.767c-.984.647-2.156-.16-2.555-1.064-.779-1.762-3.365-.237-2.591,1.515a4.6,4.6,0,1,0,6.476-5.808l-.757,2.8c2.927.049,5.375-3.126,3.915-5.891a4.23,4.23,0,0,0-6.6-.848c-1.383,1.353.739,3.473,2.121,2.122Z"/><path class="k" d="M156.407,326.916a28.769,28.769,0,0,0-6.74,4.5,1.519,1.519,0,0,0,.662,2.507l5.031,2.1c1.779.743,2.555-2.159.8-2.893l-5.031-2.1.662,2.507a26.06,26.06,0,0,1,6.133-4.035c1.742-.83.221-3.418-1.514-2.59Z"/><path class="k" d="M156.381,328.14l-3.494,11.121c-.58,1.846,2.315,2.636,2.893.8l3.494-11.12c.58-1.847-2.316-2.636-2.893-.8Z"/><path class="k" d="M149.455,359.617c-2.575-1.962-7.583-1.847-7.707,2.359-.055,1.857,1.263,2.426,2.389,3.551.621.62,1.148,1.783.463,2.567a1.083,1.083,0,0,1-1.868-.512c-.394-1.889-3.287-1.09-2.893.8.74,3.538,5.811,4.119,7.52,1.014a5.081,5.081,0,0,0-.264-4.992c-.456-.732-1.146-1.072-1.711-1.665-.772-.81-.622-1.351.48-1.456a3.133,3.133,0,0,1,2.076.927c1.536,1.17,3.032-1.434,1.515-2.59Z"/><path class="k" d="M138.635,388.828c1.054-3.9-3.373-6.2-6.5-4.232-3.088,1.942-3.981,7.408-1.893,10.34,1.89,2.652,6.595,2.664,7.094-1.083a3.077,3.077,0,0,0-2.209-3.486c-1.824-.481-3.665.574-4.962,1.75-1.434,1.3.693,3.415,2.121,2.121.331-.3,1.089-.959,1.626-.917s.591.376-.012.579c-1.194.4-1.695-1.814-1.731-2.525a6.025,6.025,0,0,1,.6-3.054,2.638,2.638,0,0,1,1.537-1.457c.774-.2,1.7.2,1.439,1.167a1.5,1.5,0,0,0,2.893.8Z"/><polygon class="l" points="102.072 450.378 64.358 555.022 77.244 560.597 115.302 455.001 102.072 450.378"/><polygon class="l" points="93.612 446.358 55.559 551.941 47.186 547.684 85.128 442.409 93.612 446.358"/><polygon class="m" points="55.648 417.705 52.438 429.442 114.127 454.811 151.838 461.988 153.786 452.717 116.17 435.631 55.648 417.705"/><polygon class="m" points="24.93 551.913 25.603 546.345 46.034 547.162 92.283 568.047 88.496 575.442 60.08 567.736 24.93 551.913"/></svg>