<svg xmlns="http://www.w3.org/2000/svg" viewBox="0 0 2680 546"><defs><style>.a{fill:#00a57a;}.b{fill:#008b5c;}</style></defs><title>HowPainWorks</title><path class="a" d="M2419.821,499.71l-.836,0v0Z"/><path class="a" d="M2637.232,102.985c-.491-3.015-4.425-3.771-7.479-3.818-33.454,0-67.534.23-100.85-2.026-15.761-1.067-32.3,1.418-48.208,1.862q-26.283.734-52.58-.072c-5.22-.16-10.882-.532-14.825-3.957a3.046,3.046,0,0,1-1.3-2.35c.091-1.163,1.269-1.89,2.325-2.388,10.44-4.913,22.156-6.283,33.656-7.227a552.7,552.7,0,0,1,68.2-1.373c18.289.763,36.589-1.107,54.989-.928q29.894.293,59.769,1.528c2.25.093,5.164-.271,5.7-2.459.562-2.288-2.107-3.968-4.36-4.658a59.1,59.1,0,0,0-13.078-2.288c-47.088-3.4-94.541-4.041-141.98-4.307-13.573-.077-27.161-.152-40.7.821-18.262,1.312-38.213.153-48.773,18-5.743,9.708-7.363,21.267-8.159,32.519-1.5,21.263-1.947,44.405-15.218,62.221-15.221,20.435-42.086,28.016-67.252,32-13.473,0-26.841,4.509-40.219,5.56q-23.343,1.836-46.748,2.723c-18.208.691-38.061,2.6-55.908-1.939a4.752,4.752,0,0,1-2.43-1.181c-1.167-1.283-.617-3.478.691-4.618a9.509,9.509,0,0,1,4.817-1.779c21.763-3.624,43.893-2.776,65.861-2.888a317.753,317.753,0,0,0,33.583-1.562c2.624-.293,24.007-2.817,17.835-8.924-4.17-4.127-18.445-2.494-23.683-2.5-6.743-.014-13.473.288-20.209.552-16.033.63-35.275,3.673-50.8-1.17-2.047-.638-4.381-1.815-4.587-3.949-.288-2.969,3.543-4.36,6.506-4.7,43.256-5.033,87.138-2.249,130.389-7.326,3.677-.432,8.338-1.953,8.394-5.656.058-3.787-4.746-5.4-8.514-5.8-42.993-4.543-86.344,3.024-129.564,1.988a9.738,9.738,0,0,1-4.757-.94c-1.409-.828-2.364-2.672-1.65-4.142.635-1.308,2.224-1.785,3.64-2.114,40.2-9.328,81.95-8.188,123.18-9.861,13.414-.544,26.982-1.421,39.764-5.527,2.054-.661,4.509-2.9,3-4.445a3.205,3.205,0,0,0-1.618-.729c-14.413-3.383-30.135-1.864-44.752-.852l-51.206,3.546-52.614,3.643c-15.5,1.074-32.547.97-47.7,4.426-8.633,1.97-17.036,6.11-22.6,13-4.683,5.8-7.036,13.091-9.294,20.2q-3.217,10.128-6.436,20.255c-3.466,10.91-8.877,16.218-20.645,16.311l-56.528.447c-7.716,0-15.434.122-23.149.183-5.644.044-15.109,2.113-20.414-.072-2.11-.868-3.783-3.258-3.037-5.415.519-1.5,1.99-2.434,3.412-3.138,8.927-4.425,19.326-4.308,29.29-4.367a553.6,553.6,0,0,0,59.847-3.6,13.206,13.206,0,0,0,5.741-1.58c1.683-1.086,2.853-3.245,2.157-5.123-.8-2.147-3.425-2.872-5.693-3.184-8.086-1.111-81.449,5.8-79.129-8.294a6.194,6.194,0,0,1,2.366-3.581c3.9-3.232,9.252-3.889,14.287-4.416l45.97-4.812c4.6-.48,8.855-.948,12.93-3.393,1.835-1.1,3.657-2.742,3.75-4.88a4.934,4.934,0,0,0-3.523-4.556c-9.3-3.135-24.713-1.531-34.518-1.2-3.969.135-26.354,3.592-21.677-7.521,1.435-3.41,5.834-4.194,9.525-4.444,7.5-.506,14.708-2.02,22.067-2.552,9.13-.66,18.239,1.33,27.383.259,11.058-1.306,22.11-2.668,33.165-4,2.5-.3,5.173-.677,7.052-2.357s2.333-5.15.231-6.54a6.179,6.179,0,0,0-3.532-.675c-26.017.3-52.163,4.217-78.132,1.633a3.509,3.509,0,0,1-1.96-.6c-1.006-.843-.7-2.58.266-3.466a6.79,6.79,0,0,1,3.639-1.341c12.65,0,25.659-2.215,38.415-2.489,38.379-.823,76.558-5.286,114.8-8.812,2.035-.188,4.2-.425,5.793-1.7s2.208-3.984.673-5.332c-22.623-3.62-48.387-.222-71.206,1.078-22.17,1.178-44.167,4.816-66.12,1.51a6.091,6.091,0,0,1-3.843-1.59c-1.394-1.608-.731-4.27.843-5.7s3.756-1.947,5.841-2.376c23.4-4.819,46.576-3.682,70.212-4.447,34.577,0,69.025-5.491,103.531-6.685,35.175-1.216,69.372-.676,104.339-6.455,2.288-.378,5.162-1.435,5.122-3.753a3.882,3.882,0,0,0-1.62-2.759c-3.1-2.551-7.488-2.627-11.5-2.542-17.718.374-35.455,1.881-53.078,2.785-17.187.882-34.387.911-51.619,1.587-47.726,1.872-95.032,2.174-142.653,3.857-3.195.113-6.547.194-9.406-1.238s-4.965-4.914-3.744-7.87c1.236-2.994,4.952-3.926,8.157-4.393,27.145-3.955,54.736-2.664,82.166-2.39,27.3.273,54.654-.93,81.92-2.123,13.863-.607,27.721-1.353,41.585-1.943,5.147-.219,23.669-1.9,16.1-12.093-20.518-.4-41.05,1.1-61.579,1.1-15.077.357-31.857,2.849-46.775.636-8.667-1.286-25.321,1.341-31.255-6.31,1.789-4.109,7-5.214,11.455-5.722,19.578,0,39.488-3.236,59.16-3.671,19.752-.437,39.51-.3,59.266-.31,71.728-.023,143.2-3.438,214.867-5.22,12.382-.309,24.092-3.146,36.394-3.377,2.981-.056,6.179,0,8.65-1.663s3.4-5.859.917-7.515a6.318,6.318,0,0,0-2.353-.811,82.579,82.579,0,0,0-17.45-1.274c-61.726,2.008-124.195,7.78-185.868,5.492-23.053-.855-46.129-.987-69.193-.637-46.193.7-92.327,3.343-138.437,6.043l-4.153.243c-31.668,1.855-62.54,1.967-82.86,30.734-7.623,10.791-12.561,24.132-23.512,31.524-5.339,3.6-11.666,5.44-17.284,8.591-18.518,10.385-26.124,32.509-34.912,51.837a242.567,242.567,0,0,1-46.687,68.374c-18.745,19.311-41.1,20.034-66.74,22.2-29.236,2.469-58.594,3.024-87.921,2.973-14.68-.025-29.358-.208-44.036-.378q-11-.127-22-.231c-4.594-.038-12.831,1.38-16.219-2.874-1.222-1.534-1.254-4.094.324-5.26a5.875,5.875,0,0,1,2.848-.859c17.168-2.068,34.333-1.762,51.439-3.433,17.569-1.717,35.025-4.44,52.6-6.081,10.942-1.03,20.162-3.777,30.614-5.9,12.7-2.585,26.657-2.4,39.577-3.1,6.188-.336,25.291,1.737,27.441-6.865,2.048-8.206-51.64-3.444-58.1-2.809-20.459,2.015-41.4,3.609-61.615-1.134-12.53-2.94-8.228-7.381,2.289-10.52a154.225,154.225,0,0,1,29.178-5.441c20.677-2.02,41.494-.964,62.228-1.4q16.893-.357,33.711-2.066c4.265-.433,9.395-1.611,10.672-5.7-3.763-4.273-10.285-4.326-15.972-4.049l-145.92,7.139c-4.473.219-9.065.465-13.16,2.278s-7.647,5.57-7.872,10.044c-.123,2.442.731,4.925.169,7.305a9.33,9.33,0,0,1-2.986,4.567c-6.137,5.6-15.215,6.148-23.52,6.4l-119.387,3.565c-16.789.5-33.625,1-50.355-.489-4.714-.42-11.041-3.556-9.126-7.884,1.006-2.273,3.826-2.983,6.274-3.415,20.611-3.64,41.262-6.978,61.9-10.5,3.961-.675,9.134-3.072,7.818-7.034a5.058,5.058,0,0,0-4.159-3.293c-21.821-3.022-43.346-.736-65.181.824-9.159.654-18.322,1.308-27.5,1.544a46.154,46.154,0,0,1-12.343-.877c-1.411-.351-3-1.045-3.316-2.465a3.527,3.527,0,0,1,.458-2.3c3.036-6.049,11.033-7.179,17.792-7.543,56.45-3.04,112.779-6.7,169.272-8.624,21.1-.72,42.205-1.437,63.288-2.591,17.539-.96,38.892.49,55.271-6.44.625-.264,1.327-.642,1.436-1.312a1.868,1.868,0,0,0-.561-1.41c-3.274-3.96-9.12-4.306-14.258-4.276-30.028.175-59.793,3.8-89.706,4.675-14.98.439-29.979.672-44.958.053-4.58-.189-42.189-.8-43.166-4.674-.95-3.761,3.651-6.38,7.417-7.316,17.485-4.345,35.777-3.513,53.786-2.992,79,0,157.4-1.958,236.141-9.353,5.017-.471,11.742-3.247,10.366-8.1-1.022-3.6-5.762-4.276-9.507-4.239-46.122.456-92.471,2.761-138.373,4.834l-56.044,2.532c-15.995.723-33.086,1.178-46.724-7.209-1.718-1.056-3.566-2.6-2.805-4.865a4.236,4.236,0,0,1,2.181-2.391c7.516-3.7,16.01-4.48,24.33-4.954,39.974-2.28,80.2,1.492,120.03-2.83a5.424,5.424,0,0,0,4.669-3.79c1.5-5.22-4.46-7.627-8.41-7.632l-89.652-.14c-6.012-.009-23.18,1.562-27.242-3.935a4.384,4.384,0,0,1-.228-4.52,10,10,0,0,1,4.644-4.134c16.711-8.86,42.242-5.38,60.582-5.91l69.249-2c52.695,0,104.294-2.083,157-5.717,2.478-.171,5.093-.388,7.13-1.811s3.133-4.5,1.605-6.459a6.446,6.446,0,0,0-3.979-1.932c-6.946-1.4-14.11-1.027-21.186-.652-26.091,1.382-51.874.763-77.9,2.344-59.145,3.594-117.7-2.839-176.814-.312-18.13.775-37.861,2.176-51.322,14.345-9.214,8.329-13.963,20.466-21.862,30.052-10.689,12.973-26.731,20.638-43.145,24.261-21.441,4.733-44.159,3.655-65.985,4.911-17.018.98-35.443,2.516-48.17,13.856-13.848,12.338-12.694,34.961-30.9,42.191-7.224,2.869-15.14,3.349-22.9,3.785q-88.287,4.951-176.676,7.834c-39.008,1.272-77.527.359-116.427,1.7-16.817.581-33.807,1.15-50.324-2.065-.87-.169-1.868-.435-1.93-1.586a1.907,1.907,0,0,1,1.322-1.844c19.2-6.653,43.418-3.89,63.828-4.737,22.247-.923,44.5-1.649,66.758-2.329l82.915-2.53,69.432-2.119c21.956-.669,43.669-4.382,65.705-6.21a19.742,19.742,0,0,0,7.779-2.219c1.288-.7,2.573-1.745,2.334-3.446a3.29,3.29,0,0,0-1.362-2.156c-1.541-1.122-3.459-1.1-5.286-1.078-37.838.533-75.619-1.3-113.5-.183-39.389,1.162-78.668,3.953-117.988,6.411-10.122.632-24.506,1.295-31.182-7.249,2.666-2.817,6.785-3.223,10.483-3.53,21.89-1.816,44.261-4.387,66.22-3.841,18.761.467,37.376-2.135,56.081-3.985,1.075-2.135-.4-4.844-2.51-5.963s-4.625-1.074-7.014-1c-24.261.722-48.347.726-72.634,1.841-15.073.691-30.079,3-44.774-1.273-1.386-.4-2.943-1.027-3.387-2.4,8.659-5.546,17.294-6.043,27.192-5.881,9.416.155,19.1-1.2,28.571-1.708,21.548-1.167,43.126-1.674,64.7-2.077,22.715-.425,45.278-2.071,67.8-3.294,20.877-1.134,43,1.6,62.627-7.225,1.813-.815,3.907-2.242,3-4.448a3.306,3.306,0,0,0-2.991-1.957c-69.435-2.137-138.717,3.144-208.214,6.738-19.117.989-38.374,1.966-57.332-.686-4.876-.682-11.239-4.011-9.176-8.681a5.93,5.93,0,0,1,4.464-3.328q15.421-2.667,30.965-4.531c45.243-5.5,90.873-6.431,136.4-6.913,44.5-.473,88.7.625,132.84-5.571a12.861,12.861,0,0,0,4.773-1.315,4.381,4.381,0,0,0,2.359-4.07,4.678,4.678,0,0,0-2.3-3.164c-2.634-1.681-5.956-1.716-9.08-1.683-82.89.881-165.843,4.534-248.752,8.048-9.09.385-18.558-1.774-27.741-2.429-1.486-.106-3.1-.254-3.852-2.016a3.636,3.636,0,0,1,.135-3.026c1.11-2.231,3.469-3.125,5.706-3.856,34.8-11.364,72.6-12.541,108.826-11.65q13.909.342,27.82.563,69.557,1.109,139.117-.8c44.248-1.211,88.658-.089,132.581-6.719,2.553-.386,5.863-1.807,5.333-4.333-.572-2.729-7.948-3.995-10.269-3.962-24.154.338-48.285,1.263-72.313.624-16.028-.427-32.064-.213-48.093.082-35.713.657-72.33,2.417-107.709-2.455a2.771,2.771,0,0,1-2.137-1.425c-.718-1.444.483-2.677,1.625-3.481,6.735-4.743,15.429-5.411,23.651-5.92l100.311-6.2a4.917,4.917,0,0,0,3.951-2.283c1.527-2.554-.43-4.4-2.085-5.517a17.162,17.162,0,0,0-7.2-2.729c-17.817-2.549-35.622-.375-53.37-.405-53.319-.09-106.85-2.293-160.261.588-28.236,1.523-57.1,4.28-83.633,14.709-21.279,8.364-30.756,28.058-34.548,49.968-1.953,11.28-3.2,22.874-7.886,33.319s-13.678,19.808-25.029,21.3c-4.953.65-9.975-.226-14.97-.111a38.107,38.107,0,0,0-25.16,10.421c-6.9,6.588-11.018,15.476-16.035,23.592-10.667,17.26-25.543,30.408-42.946,40.563-18.052,10.535-38.619,12.428-59.449,12.6-59.974.5-119.608.054-179.305,5.115-2.945.25-6.014.483-8.766-.6s-5.063-3.9-4.536-6.808c.694-3.83,5.32-5.3,9.155-5.962a451.538,451.538,0,0,1,77.194-6.914c24.339-1.065,48.648-2.75,73-3.593,16.481-.571,34.515,1.029,50.617-3.088,2.382-.609,5.318-2.4,4.125-4.861a3.287,3.287,0,0,0-2.548-1.741c-23.307-3.155-46.683,2.215-70.119.269-1.962-.163-4.391-.761-4.34-3.1a3.29,3.29,0,0,1,3.156-3.1l93.935-5.63c1.86-.111,3.84-.262,5.209-1.672a2.824,2.824,0,0,0,.713-2.967c-.589-1.472-2.227-1.714-3.659-1.8a143.074,143.074,0,0,0-14.6.088l-78.4,3.147c-22.637.908-46.178,4.892-68.809,2.573-29.825-3.055-58.286,5.8-88.267-.547-1.106-.233-2.422-.66-2.362-2.033a2.1,2.1,0,0,1,1.378-1.806c15.768-6.148,34.85-7.121,51.7-8.1l94.589-5.5a4.166,4.166,0,0,0,4-4.022c0-3.033-3.444-3.76-6.135-3.884-24.02-1.187-48.352-2-72.377-1.526-22.719,0-45.032,1.046-67.691-.07a6.729,6.729,0,0,1-4.113-1.112,2.607,2.607,0,0,1-1-2.119c.077-1.241,1.116-1.842,2.089-2.317,9.247-4.515,19.753-4.085,29.8-4.737q17.166-1.113,34.352-1.9c22.422-1.046,44.859-1.75,67.3-2.349,39.856-1.065,79.836-1.372,119.453-6.333,3.175-.4,6.9-1.208,7.851-4.475a5.565,5.565,0,0,0-1.826-5.595c-2.732-2.467-6.429-2.634-9.925-2.71-14.916-.322-29.838.024-44.753.37-30.958.72-61.922,1.434-92.852,2.986-15.688.787-31.365,1.786-47.017,3.11-14.44,1.221-27.222,3.129-41.816.741-3.188-.522-6.509-1.231-8.821-3.612a6.157,6.157,0,0,1-1.825-5.382c.583-3.013,3.452-4.227,6.071-5.126a113.12,113.12,0,0,1,17.313-4.366c11.425-2,22.914-2.606,34.719-3.791,47.369-4.752,95.177-2.68,142.681-4.854,34.308-1.569,69.508-.971,103.491-4.76,1.4-.156,2.991-.42,3.542-1.9a2.825,2.825,0,0,0-.807-2.972c-1.452-1.4-3.491-1.452-5.4-1.47-20.028-.186-40.132-.858-60.144-.272l-38.838,1.139c-25.4.744-50.9,2.238-76.3,2.238-40.731,1.193-80.581-.811-121.292,1.669-28.377,1.728-62.242,8.635-72.321,35.218-4.009,10.572-3.246,22.51-7.414,33.019-9.425,23.764-39.019,31.213-64.468,33.64-59.729,5.7-120.464,5.939-180.34,9.091a90.143,90.143,0,0,1-15.748-.442c-3.027-.371-6.1-1.114-8.2-3.475a5.711,5.711,0,0,1-1.415-5.18c.774-2.943,3.764-3.922,6.445-4.613,40.141-10.354,81.907-9.892,123.051-10.514,18.5-.28,36.986-1.54,55.4-3.387,15.44-1.548,37.62-.5,51.293-8.237a6.457,6.457,0,0,0,2.942-2.755,2.89,2.89,0,0,0-.124-2.529,2.161,2.161,0,0,0-2.316-1.063L534.413,179.6c-10.185.191-20.384.383-30.514,1.454-6.188.655-12.356,1.638-18.577,1.767a67.929,67.929,0,0,1-16.312-1.639c-2.4-.54-5.331-1.859-4.775-4.595a3.929,3.929,0,0,1,2.912-2.912c56.564-14.842,115.088-8.606,172.574-17.343a26.5,26.5,0,0,0,9.812-3.442,3.468,3.468,0,0,0,2.032-3.276,3.87,3.87,0,0,0-1.377-2.64c-1.767-1.511-4.119-1.6-6.345-1.655-13.894-.341-27.785.16-41.666.752-19.7.841-39.484.718-59.211,1.248-2.644.07-6-.338-6.758-2.883a3.778,3.778,0,0,1,.832-3.44,9.6,9.6,0,0,1,4.786-2.649c15.784-4.959,32.007-5.592,48.36-6.623,17.421-1.1,34.806-2.69,52.216-3.934,2.287-.164,4.714-.373,6.407-2.092a3.568,3.568,0,0,0,.949-3.668c-.681-1.857-2.726-2.245-4.519-2.464a281.716,281.716,0,0,0-63.774-.536c-19.352,0-39.064,3.5-58.475,4.359-3.135.14-6.6.152-8.98-1.9.58-1.905,2.756-2.749,4.671-3.3,20.98-6.015,42.087-6.3,63.6-8.376,30.477-2.942,60.744-5.587,91.3-7.76a27.448,27.448,0,0,0,9.118-2.182c1.855-.818,3.782-2.008,4.381-4.075a3.328,3.328,0,0,0-.316-2.673c-.917-1.468-2.574-1.482-4.071-1.448-28.175.654-56.3,1.4-84.462,2.6C584.3,94.874,570.45,95.8,556.5,95.29c-12.767-.466-24.017,3.362-36.681-3.22a3.483,3.483,0,0,1-1.863-2.45c-.314-1.839,1.082-2.694,2.369-3.335,7.269-3.623,15.339-5.288,23.342-6.672,84.723-14.657,171.257-1.564,255.9-15.168a22.415,22.415,0,0,0,9.319-3.737c1.558-1.093,3.434-2.817,2.082-5.156a4.249,4.249,0,0,0-3.35-2.025c-26.742-2.234-53.485.7-80.151,2.45-17.3,1.138-33.916-.212-50.67-.661-2.823-.076-6.155-2.825-4.606-5.186a3.584,3.584,0,0,1,2.1-1.357,12.782,12.782,0,0,1,1.351-.3c77.583-13.939,155.256-8.254,233.338-11.709,8.978-.4,18.031-.81,26.738-3.039,2.565-.656,5.725-2.68,4.713-5.128-12.359-4.87-26.06-4.586-39.34-4.232-66.49,1.772-133.06-1.415-199.523,2.577-29.827,1.791-59.606,4.263-89.411,6.365l-77.371,5.455c-22.748,1.6-50.54,6.961-57.376,28.716-5.053,16.083,4.548,34.251-1.209,50.1-5.118,14.087-20.892,21.527-35.782,23.241s-30-.8-44.923.583q-3.74.346-7.236.918c-18.731,3.051-35.48,11.987-47.188,27.076-12.588,16.225-14.212,34.262-35.846,42.451-12.219,4.624-25.531,5.233-38.584,5.791-17.668.755-35.357,1.156-53.023,1.8a5.066,5.066,0,0,1-1.654-.122,3.445,3.445,0,0,1-2.172-2.783,10.13,10.13,0,0,1,.266-3.686c-.075.38-14.05,2.264-15.468,2.591A149.411,149.411,0,0,0,178.93,220.1c-4.055,1.414-8.6.922-12.919,1.068l-14.459.485q-28.87.964-57.744,1.87c-26.7.83-53.447,2.039-80.161,2.031-.268,0-4.887.079-4.887-.18V499.414c.756.02,1.652.154,2.02.154H2359.358c6.927,0,13.621-.987,20.461-.973V267.035c-1.742-14.71,1.471-29.981,7.393-43.558,12.343-28.294,63.527-17,89.349-21.389a14.519,14.519,0,0,0,5.552-1.789,5.33,5.33,0,0,0,2.633-4.9c-10.882-3.784-25.253-1.429-36.61-1.039-13.5.464-27.005,1.268-40.521,1.036-2.4-.041-5.239-.33-6.568-2.247a3.925,3.925,0,0,1-.224-.366c-5.46-9.2,26.754-9.883,29.993-9.971q25.5-.691,50.9-3.107c2.544-.241,5.687-1,6.214-3.5.395-1.878-1.118-3.731-2.913-4.411a12.805,12.805,0,0,0-5.7-.316,198.409,198.409,0,0,1-29.628.459c-7.2-.426-18.546.341-24.271-4.6,2.633-4.229,8.393-4.93,13.368-5.193l59.9-3.159c5.187-.273,10.508-.577,15.262-2.673,1.776-.782,3.659-2.163,3.642-4.1-.025-2.779-3.608-3.837-6.382-4.006-17.388-1.059-34.742.878-52.1,1.573-16.632.665-33.622.191-50.339-.2-2.851-.066-6.516-.825-6.935-3.646-.423-2.845,2.935-4.642,5.72-5.36,12.154-3.133,24.881-2.965,37.431-2.776,29.657.444,59.495-.751,89.182-2.389a11.479,11.479,0,0,0,5.259-1.141c1.562-.918,2.66-2.9,1.972-4.575-1.768-4.3-36.606-1.763-41.5-1.967-14.385-.6-28.924,1.4-43.292-.8-1.59-.244-3.338-.637-4.266-1.951-2.008-2.841,1.551-6.351,4.767-7.68,9.637-3.981,20.333-4.307,30.756-4.577l138.886-3.6c2.768-.072,5.688-.188,8.028-1.667C2636.3,106.478,2637.52,104.757,2637.232,102.985ZM724.12,238.255c-5.243,7.916-22.473,3.493-30.227,3.538-15.314.089-30.629.393-45.942.579q-45.942.559-91.886,1.034c-13.736,0-27.479.279-41.215.41-6.006.057-14.736,1.816-20.486.228-4.244-1.173-8.066-6.239-1.9-8.806,10.326-4.3,26.154-1.253,37.1-1.155,53.188.475,106.288-2.97,159.388-2.97,9.038-.542,23.3-3.94,32.015-.544,2.786,1.085,4.883,4.492,3.481,7.132A6.41,6.41,0,0,1,724.12,238.255ZM1335.9,224.5a16.806,16.806,0,0,1-2.1,3.03c-7.633,9.051-53.566,3.986-65.487,4.412q-70.477,2.513-141,3.554c-4.941.069-12.035-3.326-9.351-7.471a6.6,6.6,0,0,1,3.738-2.289c21.088-6.754,48.055-3.944,70.123-4.875q35.694-1.514,71.388-3.011c12.813-.54,25.625-1.156,38.441-1.621C1307.377,216.018,1342.589,211.614,1335.9,224.5Zm328.978,17.738c-1.058,1.768-3.413,2.129-5.473,2.292l-.07.006c-29.558,2.292-60.175,1.921-89.755,1.75-13.7-.08-27.4-.375-41.1-.671-11.3-.245-29.04,3.017-39.035-2.936a3.016,3.016,0,0,1-1.48-1.511c-.42-1.334.941-2.511,2.149-3.217,10.191-5.954,26.492-3.07,38.113-3.276,42.731-.757,85.5.424,128.027.424,2.274.057,4.668.147,6.612,1.329S1666.042,240.282,1664.874,242.235Z"/><path class="a" d="M1070.605,74.221q1.418-.035,2.837-.055c7.995-.109,17.591.89,25.168,3.261a4.2,4.2,0,0,1-2.282,4.734,12.93,12.93,0,0,1-5.8,1.147c-41.44,1.691-82.622,1.259-124.151,2.023l3.357-1.138a9.9,9.9,0,0,1-10.091-4.15c2.4-4.4,8.22-5.294,13.217-5.685,22.6-1.768,45.029-.188,67.773.754C1050.656,75.207,1060.575,74.464,1070.605,74.221Z"/><path class="a" d="M1086.47,22.839c-4.34.365-9,.861-12.28,3.732,2.1,3.43,6.91,3.649,10.927,3.471l41.056-1.818a12.053,12.053,0,0,0,5.216-1.02c1.575-.843,2.779-2.666,2.315-4.392C1131.626,15.08,1091.405,22.424,1086.47,22.839Z"/><path class="a" d="M1525.636,95.356c-1.545-.028-3.633-.64-3.468-2.177,15.674-7.378,33.777-6.743,51.084-5.958a2.839,2.839,0,0,1,2.689,1.313C1571.206,98.715,1534.645,95.516,1525.636,95.356Z"/><path class="a" d="M1926.829,34.77c-8.531.062-17.106.113-25.761.24-2.374-2.529,1.8-5.98,5.179-6.77a316.206,316.206,0,0,1,103.022-6.327c1.882,2.151.576,5.791-1.847,7.309s-5.461,1.516-8.319,1.467C1974.806,30.275,1951.373,34.574,1926.829,34.77Z"/><path class="a" d="M2670.2,22.5a3.4,3.4,0,0,1,1.228,3.492c-.592,1.7-2.728,2.177-4.517,2.382-11.344,1.3-22.807.115-34.243,1.856-2.418.369-22.5,2.339-20.909-4.633a1.131,1.131,0,0,1,.393-.549c1.88-1.688,4.409-2.427,6.872-3,13.476-3.1,27.421-2.334,41.187-2.1,3.087.053,6.328.191,8.976,1.778A5.942,5.942,0,0,1,2670.2,22.5Z"/><path class="b" d="M2637.232,326.648c-.491-3.015-4.425-3.771-7.479-3.818-33.454,0-67.534.23-100.85-2.025-15.761-1.067-32.3,1.418-48.208,1.861q-26.283.733-52.58-.072c-5.22-.16-10.882-.532-14.825-3.956a3.049,3.049,0,0,1-1.3-2.351c.091-1.163,1.269-1.89,2.325-2.387,10.44-4.913,22.156-6.284,33.656-7.228a552.5,552.5,0,0,1,68.2-1.372c18.289.762,36.589-1.108,54.989-.929q29.894.293,59.769,1.529c2.25.093,5.164-.272,5.7-2.46.562-2.287-2.107-3.968-4.36-4.657a59.043,59.043,0,0,0-13.078-2.289c-47.088-3.4-94.541-4.041-141.98-4.307-13.573-.076-27.161-.152-40.7.821-18.262,1.313-38.213.153-48.773,18-5.95,10.058-2.336,23.448-14.877,28.76-5.827,2.468-12.369,2.415-18.7,2.322-15.717-.23-32.408-2.126-48.05-.709-8.263.748-25.194,1.148-30.53,8.415-1.626,2.214-2.357,5.007-4.1,7.132-3.365,4.105-9.355,4.593-14.66,4.761l-71.411,2.256c-15.855.5-30.541-2.464-46.2-3.756-4.443-.367-10.217-2.148-10.086-6.605,5.916-7.992,19.559-5.789,28.3-6.625,12.143-1.162,24.282-2.377,36.429-3.5,2.035-.188,4.2-.425,5.793-1.7s2.208-3.984.673-5.332c-22.623-3.62-48.387-.222-71.206,1.078-22.17,1.178-44.167,4.816-66.12,1.51a6.091,6.091,0,0,1-3.843-1.59c-1.394-1.608-.731-4.27.843-5.7s3.756-1.946,5.841-2.376c23.4-4.818,46.576-3.682,70.212-4.446,34.577,0,69.025-5.492,103.531-6.685,35.175-1.217,69.372-.676,104.339-6.456,2.288-.378,5.162-1.435,5.122-3.753a3.878,3.878,0,0,0-1.62-2.758c-3.1-2.552-7.488-2.627-11.5-2.543-17.718.374-35.455,1.881-53.078,2.785-17.187.882-34.387.911-51.619,1.587-47.726,1.872-95.032,2.174-142.653,3.857-3.195.113-6.547.194-9.406-1.238s-4.965-4.914-3.744-7.87c1.236-2.993,4.952-3.925,8.157-4.393,27.145-3.955,54.736-2.664,82.166-2.39,27.3.273,54.654-.93,81.92-2.123,13.863-.607,27.721-1.352,41.585-1.942,5.147-.219,23.669-1.9,16.1-12.094-20.518-.4-41.05,1.1-61.579,1.1-15.077.358-31.857,2.849-46.775.636-8.667-1.286-25.321,1.342-31.255-6.31,1.789-4.109,7-5.213,11.455-5.721,19.578,0,39.488-3.237,59.16-3.672,19.752-.437,39.51-.3,59.266-.31,71.728-.023,143.2-3.438,214.867-5.22,12.382-.309,24.092-3.146,36.394-3.377,2.981-.056,6.179,0,8.65-1.663s3.4-5.859.917-7.514a6.32,6.32,0,0,0-2.353-.812,82.645,82.645,0,0,0-17.45-1.274c-61.726,2.008-124.195,7.78-185.868,5.492-23.053-.855-46.129-.987-69.193-.637-46.193.7-92.327,3.344-138.437,6.043l-4.153.243c-31.668,1.856-62.54,1.967-82.86,30.734-7.623,10.792-12.561,24.132-23.512,31.524-5.339,3.6-11.666,5.441-17.284,8.591-9.826,5.511-16.627,14.574-22.043,24.229-4.329,7.719-7.089,19.006-16.183,22.38-4.53,1.68-9.484,1.675-14.315,1.648l-114.225-.618c-2.555-.014-5.232-.058-7.475-1.283s-3.837-4.046-2.812-6.387c.9-2.06,3.32-2.918,5.5-3.473,20.175-5.135,43.069-3.667,63.825-5.617,5.017-.471,11.742-3.247,10.366-8.1-1.022-3.6-5.762-4.276-9.507-4.239-46.122.456-92.471,2.761-138.373,4.835l-56.044,2.531c-15.995.723-33.086,1.178-46.724-7.209-1.718-1.056-3.566-2.6-2.805-4.864a4.238,4.238,0,0,1,2.181-2.392c7.516-3.7,16.01-4.48,24.33-4.954,39.974-2.279,80.2,1.492,120.03-2.829a5.427,5.427,0,0,0,4.669-3.79c1.5-5.221-4.46-7.627-8.41-7.633l-89.652-.14c-6.012-.009-23.18,1.563-27.242-3.934a4.386,4.386,0,0,1-.228-4.521,10.01,10.01,0,0,1,4.644-4.134c16.711-8.86,42.242-5.38,60.582-5.909l69.249-2c52.695,0,104.294-2.084,157-5.718,2.478-.171,5.093-.388,7.13-1.811s3.133-4.5,1.605-6.459a6.446,6.446,0,0,0-3.979-1.932c-6.946-1.395-14.11-1.027-21.186-.652-26.091,1.382-51.874.763-77.9,2.345-59.145,3.593-117.7-2.84-176.814-.313-18.13.776-37.861,2.176-51.322,14.345-9.305,8.411-11.637,20.709-22.528,27.243-19.184,11.51-43.532,7-64.633,9.76-16.424,2.144-33.195-.759-49.538,2.231-18.021,3.3-33.562,16.791-50.647,23.212-17.531,6.588-36.789,6.888-55.278,7.1l-50.014.573c-2.164.025-4.469.012-6.291-1.157s-2.764-3.955-1.295-5.545c21.1-7.273,45.732.618,66.013-8.5,1.812-.815,3.906-2.243,3-4.448a3.3,3.3,0,0,0-2.991-1.956c-69.435-2.138-138.717,3.143-208.214,6.737-7.017.363-64.239,5.114-63.065-5.8.2-1.838,1.689-3.254,3.21-4.3,7.29-5.032,14.648-4.952,22.88-5.314,10.96-.481,21.931-2.664,32.884-3.7a504.238,504.238,0,0,1,69.338-1.739c26.931,1.181,52.3-3.315,79.307-3.518,31.261-.235,62.6-.984,93.6-5.335a12.88,12.88,0,0,0,4.773-1.315,4.381,4.381,0,0,0,2.359-4.071,4.674,4.674,0,0,0-2.3-3.163c-2.634-1.681-5.956-1.717-9.08-1.684-88.594.942-177.387,7.2-265.76,6.857a9.993,9.993,0,0,1-3.693-.479,6.352,6.352,0,0,1-3.041-2.8,8.815,8.815,0,0,1,1.393-10.352c2.814-2.789,7.107-3.285,11.056-3.6,31.431-2.531,62.889-5.328,94.367-4.554q13.909.342,27.82.563,69.557,1.109,139.117-.8c44.248-1.211,88.658-.089,132.581-6.719,2.553-.385,5.863-1.806,5.333-4.333-.572-2.729-7.948-4-10.269-3.962-24.154.339-48.285,1.264-72.313.624-16.028-.426-32.064-.213-48.093.082-38.814.715-77.208-1.491-115.9-1.844-2.49-.023-5.469-.329-6.618-2.538-1.669-3.211,2.174-6.5,5.558-7.779,9.334-3.531,19.5-4,29.475-4.4q29.057-1.144,58.126-1.916c8.773-.247,44,4.045,49.047-3.295,1.527-2.553-.43-4.4-2.085-5.517a17.176,17.176,0,0,0-7.2-2.729c-17.817-2.549-35.622-.375-53.37-.405-21.789-.036-43.578-.69-65.366-.678-16.636.009-36.256-5.755-50.819,5.149-2.117,1.585-4,3.465-6.1,5.071a39.235,39.235,0,0,1-6.522,3.953c-12.948,6.379-24.76,4.464-38.3,5.491-36.919,2.8-74.271-1.15-107.547,16.378-14.137,7.447-27.058,13.408-33.947,28.613a50.423,50.423,0,0,1-29.241,27.19c-8.7,3.139-18.034,4-27.252,4.787q-37.1,3.15-74.289,5.067c-12.266.632-24.95,2.077-37.225,1.615-5.152-.194-20.187.378-23.7-3.132-1.978-1.978-.964-5.612,1.284-7.276s5.21-1.9,8-2.082q33.837-2.16,67.689-4.1c11.572-.662,23.366-.685,34.885-1.936,8.836-.96,17.517-3.619,26.541-3.619,1.4-.156,2.991-.42,3.542-1.9a2.825,2.825,0,0,0-.807-2.972c-1.452-1.4-3.491-1.452-5.4-1.47-20.028-.186-40.132-.858-60.144-.272C934.8,329.1,876.528,339.209,819.926,333.88c-1.3-.122-2.777-.351-3.475-1.45-4.616-7.27,15.052-9.179,18.422-9.071,10.965.353,21.87.841,32.979.486,55.792-1.779,111.895-8.742,167.708-7.188,3.1.085,6.4.139,9.023-1.515s3.924-5.722,1.716-7.895l-102.963,4.209c-5.031.2-10.151.4-15.023-.871-1.645-.43-3.39-1.145-4.179-2.651-1.921-3.665,3.151-6.969,7.183-7.9,15.778-3.649,32.046-4.541,48.217-5.42l96.167-5.226c13.251-.721,27.37-1.744,37.97-9.727-8.652-3.115-18.086-2.988-27.281-2.823L944.454,279.38c-8.159.146-17.427.806-22.552,7.156-2.152,2.667-3.284,6.065-5.567,8.621-4.475,5.009-11.994,5.527-18.707,5.732q-63.128,1.926-125.987,8.666c-8.9.955-18.235,2.145-25.494,7.388-6.719,4.852-10.465,12.418-16.479,17.935-6.65,6.1-11.88,5.3-20.5,5.957-20.614,1.56-41.218,2.382-61.866,3.36-24.866,1.178-49.9,2.348-74.558-1.1-3.788-.53-8.534-2.234-8.537-6.059,0-4,5.128-5.6,9.119-5.886,33.308-2.419,66.871-3.046,100.261-5.426a27.448,27.448,0,0,0,9.118-2.182c1.855-.818,3.782-2.007,4.381-4.075a3.328,3.328,0,0,0-.316-2.673c-.917-1.468-2.574-1.482-4.071-1.447-28.175.653-56.3,1.395-84.462,2.6-13.934.594-27.785,1.519-41.739,1.01-12.767-.466-24.017,3.362-36.681-3.219a3.487,3.487,0,0,1-1.863-2.45c-.314-1.84,1.082-2.694,2.369-3.335,7.269-3.624,15.339-5.289,23.342-6.673,84.723-14.657,171.257-1.564,255.9-15.168a22.4,22.4,0,0,0,9.319-3.737c1.558-1.093,3.434-2.817,2.082-5.155a4.25,4.25,0,0,0-3.35-2.026c-26.742-2.234-53.485.7-80.151,2.45-17.3,1.139-33.916-.212-50.67-.661-2.823-.075-6.155-2.825-4.606-5.186a3.589,3.589,0,0,1,2.1-1.357,13.036,13.036,0,0,1,1.351-.3c77.583-13.939,155.256-8.254,233.338-11.709,8.978-.4,18.031-.809,26.738-3.038,2.565-.657,5.725-2.681,4.713-5.129-12.359-4.87-26.06-4.586-39.34-4.232-66.49,1.773-133.06-1.414-199.523,2.577-29.827,1.791-59.606,4.264-89.411,6.365l-77.371,5.455c-22.748,1.6-50.54,6.961-57.376,28.717-5.4,17.2,10.138,41.962-9.074,52.53-22.163,12.191-48.949,11-74.217,9.84q-126.556-5.8-253.28.544c3.874,22.936,1.792,46.411-.3,69.578-.492,5.454-1.036,11.084-3.658,15.892-6.356,11.653-21.237,7.209-32.077,7.31-15.975.149-31.971,1-47.942,1.446-2.626.073-48.1,1.371-48.1.752v77.716c.756.02,1.652.154,2.02.154H2359.358c19.877,0,39.753.136,59.627.139,0-31.739,1.274-63.766-.351-95.349v-77.91c13.233,0,26.522,1.352,39.54-1.02a21.123,21.123,0,0,1-7.914-5.046c12.464-8.413,21.557-11.344,37.606-11.344l138.886-3.605c2.768-.071,5.688-.188,8.028-1.667C2636.3,330.141,2637.52,328.42,2637.232,326.648Z"/></svg>