<svg xmlns="http://www.w3.org/2000/svg" viewBox="0 0 477 178"><defs><style>.a{fill:#fff;}</style></defs><title>HowPainWorks</title><path class="a" d="M420.193,92.734a71.993,71.993,0,0,0-22.657,3.59,63.816,63.816,0,0,0,1.42-13.4c0-41.353-39.784-74.876-88.86-74.876-37.726,0-69.957,19.811-82.85,47.759C218.648,24.226,188.2.878,151.958.878c-42.921,0-77.716,32.745-77.716,73.137a69.171,69.171,0,0,0,5.582,27.216,63.873,63.873,0,0,0-26.653-5.663C24.293,95.568.884,113.713.884,136.1s23.409,40.528,52.288,40.528c51.766,0,103.873-4.827,155.75-5.636q58.616-.913,117.243.181c33.384.649,66.472,6.421,99.881,6.462,22.239.026,50.378-17.991,50.378-42.555C476.424,111.691,451.248,92.734,420.193,92.734Z"/></svg>