<svg xmlns="http://www.w3.org/2000/svg" viewBox="0 0 135 138"><defs><style>.a{isolation:isolate;}.b{fill:#bfbfbf;}.c{fill:#ce2929;mix-blend-mode:multiply;}.d{fill:#f76666;}.e{fill:none;stroke:#662626;stroke-linecap:round;stroke-miterlimit:10;stroke-width:5px;}</style></defs><title>HowPainWorks</title><g class="a"><path class="b" d="M131.875,16.827C131.875,3.1,70.129,2.942,67.5,2.942S3.125,3.1,3.125,16.827a4.466,4.466,0,0,0,.108.927l-.054.012L25.058,122.111l.029-.006c1.407,8.507,22.028,12.953,42.413,12.953s41.006-4.446,42.413-12.953l.029.006L131.821,17.766l-.054-.012A4.466,4.466,0,0,0,131.875,16.827Z"/><path class="c" d="M13.8,43.6c0-6.53,107.394-6.53,107.394,0l-15.465,77.075c0,6.53-17.117,10.127-38.232,10.127s-38.232-3.6-38.232-10.127Z"/><ellipse class="d" cx="67.5" cy="43.6" rx="53.697" ry="11.824"/><path class="e" d="M25.9,123.3c0-6.53,18.626-11.823,41.6-11.823s41.6,5.293,41.6,11.823"/><path d="M134.5,14.7C134.5.41,70.236.246,67.5.246S.5.41.5,14.7a4.618,4.618,0,0,0,.112.964l-.057.012,22.772,108.6.03-.006c1.466,8.854,22.928,13.481,44.145,13.481s42.679-4.627,44.145-13.481l.03.006,22.772-108.6-.057-.012A4.618,4.618,0,0,0,134.5,14.7Zm-67-9.2c41.077,0,60.3,6.406,61.717,9.2-1.413,2.79-20.64,9.2-61.717,9.2S7.2,17.488,5.783,14.7C7.2,11.907,26.423,5.5,67.5,5.5Zm38.975,117.8c0,3.122-13.757,9.2-38.975,9.2s-38.975-6.075-38.975-9.2L7.181,21.673C23.7,29.042,65.31,29.149,67.5,29.149s43.8-.107,60.319-7.476Z"/></g></svg>