<svg xmlns="http://www.w3.org/2000/svg" viewBox="0 0 1395 383"><defs><style>.a{fill:#fff;}</style></defs><title>HowPainWorks</title><path class="a" d="M287.812,377.263c-11.326-.028-22.694-.656-33.331-4.373-13.052-4.561-25.007-14.78-27.688-28.343-6.8-34.381,42.748-25.168,42.4-47.857-.087-5.558-4.92-10.122-10.225-11.782s-11.015-1.073-16.55-.555c-28.463,2.666-58.959-2.305-87.98-2.335l-103.771-.106c-12.413-.013-25.529-.212-36.148-6.639S-2.552,253.816,4.49,243.594c5.989-8.694,18.107-9.975,28.659-10.326,38.966-1.294,77.552-4.194,116.5-5.291l117.163-3.3,87.986-2.48c16.612-.468,33.494-.518,46.6,10.694,11.115,9.506,18.65,25.948,6.354,37.956-6.529,6.375-16.184,7.944-24.721,11.164-5.191,1.958-10.312,4.79-13.424,9.384s-3.644,11.277-.023,15.481c3.018,3.5,7.961,4.5,12.533,5.194,25.716,3.9,48.906,4.612,75,3.714L572.862,311.8c29.884-1.028,75.554-11.807,101.005,8.648,11.073,8.9,16.131,26.47,7.466,37.726-7.323,9.511-20.779,11.159-32.752,12.017Q556.209,376.816,463.7,381.3c-56.887,2.845-111.648-4.659-168.191-4.078C292.952,377.245,290.383,377.269,287.812,377.263Z"/><path class="a" d="M1259.338,210.224c39.213.648,80.069.955,115.433-16,8.184-3.924,16.718-9.8,18.265-18.746,1.6-9.226-5.323-18.223-13.817-22.162s-18.2-4-27.566-3.98l-243.031.412c-7.419.013-15.039-.01-21.955-2.694s-13.07-8.672-13.7-16.064c-.686-8.055,5.4-15.454,12.711-18.9s15.649-3.786,23.728-4.068l112.866-3.944c14.332-.5,30.4-1.792,39.781-12.642,12.761-14.765,4.439-39.522-11.741-50.434S1213.4,29.272,1193.879,29.21c-125.976-.4-252.333,15.51-377.627,2.4C778.809,27.7,738.8,21.631,705.242,38.7c-9.68,4.925-19.285,13.25-19.417,24.11-.173,14.209,15.245,23.013,28.811,27.243,73.888,23.04,154.419,4.451,230.794,16.989,5.042.828,10.878,2.437,12.7,7.21,2.716,7.108-5.795,13.347-13.175,15.2-16.421,4.126-33.812,1.689-50.513,4.468C872.356,137.6,843,164.758,865.555,185.708c21.435,19.907,69.693,19.179,96.652,19.039,66.806-.348,132.692,2.762,199.485,3.865Z"/><path class="a" d="M170.572,11.267c-7.523.265-15.97.954-20.859,6.679-6.77,7.929-1.913,21.143,6.944,26.642s19.941,5.482,30.366,5.291c37.72-.689,75.431-1.675,113.145-2.639,5.395-.138,11.5.008,15.165,3.972,8.185,8.858-5.571,21.881-17.557,23.223s-27.1.577-32.585,11.316c-4.324,8.463,1.287,19.277,9.548,23.973s18.238,4.895,27.741,4.971l271.975,2.2c10.445.085,21.229.106,30.854-3.953s17.861-13.322,17.342-23.755c-.494-9.91-8.74-18.076-18.024-21.578s-19.5-3.289-29.416-3.03l-78.383,2.048c-23.742.62-48.372,2.884-71.5-3.847-4.12-1.2-8.79-3.329-9.586-7.545-2.8-14.832,36.581-19.151,45.649-20.98,6.525-1.316,13.309-5.663,14.033-12.28.53-4.838-2.458-9.539-6.451-12.321s-8.855-3.981-13.631-4.914C421.861-1.8,389.2,3.61,355.669,4.735,293.967,6.805,232.271,9.089,170.572,11.267Z"/></svg>