<svg id="Layer_1" data-name="Layer 1" xmlns="http://www.w3.org/2000/svg" viewBox="0 0 89.795 76.6"><defs><style>.cls-1{fill:#dda8b3;}.cls-1,.cls-2{stroke:#9e4352;stroke-linecap:round;stroke-linejoin:round;}.cls-2{fill:none;}</style></defs><title>HowPainWorksScene5</title><path class="cls-1" d="M85.478,59.062a10.3,10.3,0,0,0-.657-4.806c.013.032,2.249-2.227,2.435-2.485a11.74,11.74,0,0,0,1.674-3.352,8.915,8.915,0,0,0-1-7.256A9.507,9.507,0,0,0,85.718,30.7a6.069,6.069,0,0,0-2.867-7.066c-.359-4.125-3.369-8.531-7.346-9.876C74.539,9.692,67.6,6.441,65.231,6.51,63.5,3.7,59.913,3.507,56.622,3.3,54.03.5,44.371.473,44.275,1.54c-.068.751-2.876-.561-3.693-.66C39.488.749,38.372.527,37.275.505a25.951,25.951,0,0,0-8.042,1.12,25.678,25.678,0,0,0-5.69,2.513A14.627,14.627,0,0,0,21.05,5.86c-.394.37-.912,1.534-1.556,1.509-4-.193-8.115,4.4-10.71,6.927-2.143,2.086-4.238,4.517-4.637,7.481a12.86,12.86,0,0,0-3.64,9.45,19.435,19.435,0,0,0,.826,4.785,3.957,3.957,0,0,0,1.116,1.964c.133.12,1.8,1.043,1.8.886a7.747,7.747,0,0,0,6.641,7.33c3.423,3.177,7.691,3.513,12.116,3.756a7.035,7.035,0,0,0,.187,7.271,7.181,7.181,0,0,0,2.916,2.455c.292.144,3.261.9,3.136.55a4.3,4.3,0,0,0,5.867,2.221A4.7,4.7,0,0,0,41.3,62c1.624.932,3.02.3,4.663-.074.631-.144,5.156-1.012,5.231-1.666a5.162,5.162,0,0,0,1.742,4.432A3.047,3.047,0,0,0,55.308,69.9c.882,4.667,9.758,8.021,13.871,5.116,8.4.83,13.16-7.9,13.688-11.421A6.164,6.164,0,0,0,85.478,59.062Z"/><path class="cls-2" d="M51.389,28.667a7.383,7.383,0,0,0,.09-9.043,5.773,5.773,0,0,0,2.254-8.577c3.222-.858,3.612-4.788,2.814-7.5"/><path class="cls-2" d="M54.662,30.9a5.628,5.628,0,0,1-2.323,3.486,6.918,6.918,0,0,1-3.764,1.03c-.5.013-2.551-.493-2.761-.357a14.736,14.736,0,0,1-9,2.741c-1.266,2.614-5.172,3.311-7.707,2.393-1.569,2.317-4.643,1.971-5.559,4.9a4.8,4.8,0,0,0,.441,3.816c-.65.4-.727.318-.983,1.034"/><path class="cls-2" d="M75.91,34.512c-.139,1.158-1.093,1.952-1.8,2.8a8.313,8.313,0,0,1-1.876,9.96,4.561,4.561,0,0,1-4.692,7.794,5.7,5.7,0,0,1-6.864,1.5c-2.363,2.972-5.359,4.853-9.287,3.263"/><path class="cls-2" d="M84.039,54.121a5.209,5.209,0,0,1-5.156-.739c-.032-.026-2.1,1.349-2.387,1.457a5.154,5.154,0,0,1-3.828-.071"/><path class="cls-2" d="M81.654,51.2a2.9,2.9,0,0,0,.955-2.954,6.757,6.757,0,0,0,1.429-8.184,5.527,5.527,0,0,0-1.619-6.681"/><path class="cls-2" d="M68.139,48.041c-2.1,1.392-5.677,2.617-8.035,1.187A15.378,15.378,0,0,1,44.5,54.194,11.906,11.906,0,0,1,33.5,59.622"/><path class="cls-2" d="M27.351,52.927c2.945.032,6.9-1.909,7.2-5.166a8.517,8.517,0,0,0,7.311.586c2.122-.83,4.566-2.472,5.166-4.788a7.951,7.951,0,0,0,7.807.08,13.157,13.157,0,0,0,5.445-5.922c-1.3,2.595,2.274,4.5,4.325,3.3a13.231,13.231,0,0,0,2.752-2.554,6.177,6.177,0,0,1,3.1-2.041"/><path class="cls-2" d="M45.571,35.024a31.888,31.888,0,0,1-.578-5.269c.009-.344,1.05-5.014,1.432-4.534a9.294,9.294,0,0,1,.325-11.6c-1.25-2.483-.393-4.282.163-6.719a3.884,3.884,0,0,0-2.487-4.612"/><path class="cls-2" d="M36.668,37.754c.535-2.173.409-4.42-1.42-5.927a4.294,4.294,0,0,0-.489-5.775,4.09,4.09,0,0,0,2.317-3.395A3.865,3.865,0,0,0,35.2,19.071c-2.212,3.938-11.806,5.114-13.113-.386a9.715,9.715,0,0,1,.864,4.255,3.326,3.326,0,0,1-2.624,3.084"/><path class="cls-2" d="M29.715,40.55a10.154,10.154,0,0,1-1.957-9.6"/><path class="cls-2" d="M24.356,43.653c-1.356-.61-2.205-2.477-2.878-4.361a6.851,6.851,0,0,1-3.451-1.607c-.314-.286-2.289-2.557-2.061-2.933a5.56,5.56,0,0,1-5.4,2.554,5.56,5.56,0,0,1-4.475-3.962,2.845,2.845,0,0,1-3.459-2.492"/><path class="cls-2" d="M23.019,48.788a4.2,4.2,0,0,1-2.5-3.489c-2.683-.036-5.7-1.469-6.608-4.179a4.215,4.215,0,0,1-5.126.725"/><path class="cls-2" d="M34.545,4.506a5.847,5.847,0,0,0,.82,7.864A9.513,9.513,0,0,0,30.117,13a4.94,4.94,0,0,0-2.93,4.159"/><path class="cls-2" d="M23,35.455a4.352,4.352,0,0,1-4.427-5.211,6.484,6.484,0,0,1-7.721,1.037,6.482,6.482,0,0,1-2.808-7.266"/><path class="cls-2" d="M81.625,30.626a4.659,4.659,0,0,0-3.553-5.974c.34-3.047-1.274-5.779-4.512-6.157A3.49,3.49,0,0,0,72.778,15a5.426,5.426,0,0,0-3.327-1.6,7.82,7.82,0,0,0-8.383,5.961"/><path class="cls-2" d="M69.169,19.591a5.5,5.5,0,0,0-5.831,5.219,6.718,6.718,0,0,0-5.211,3.638"/><path class="cls-2" d="M83.524,63.233c-2.924,1.326-6.034,2.619-9.273,1.919a35.265,35.265,0,0,0-5.694-1.235c-2.451-.116-4.817.8-7.211,1.333-2.911.655-5.632,1.512-8.322-.431"/><path class="cls-2" d="M69.027,74.462c-4.861-.546-14.31-1.94-13.989-8.3"/><path class="cls-2" d="M20,8.47a7.828,7.828,0,0,0-3.009,9.9A4.647,4.647,0,0,0,14.261,24.3"/><path class="cls-2" d="M77.47,67.807A9.894,9.894,0,0,1,69.686,71,29.292,29.292,0,0,1,61.2,69.223"/><path class="cls-2" d="M71.883,67.987a11.056,11.056,0,0,1-7.931-.747"/><path class="cls-2" d="M80.18,60.31c-1.262,1.55-3.636,1.57-5.564,1.043s-3.806-1.468-5.8-1.376c-3.3.153-6.243,3.1-9.467,2.4"/><path class="cls-2" d="M80.326,56.931a4.252,4.252,0,0,1-3.269,1.213,16.138,16.138,0,0,1-3.527-.659,8.735,8.735,0,0,0-3.556-.317"/></svg>