<svg id="Layer_1" data-name="Layer 1" xmlns="http://www.w3.org/2000/svg" viewBox="0 0 465.32 655.4"><defs><style>.cls-1,.cls-2,.cls-6{fill:#fff;}.cls-1,.cls-2,.cls-3,.cls-4,.cls-5,.cls-8{stroke:#000;stroke-miterlimit:10;}.cls-1,.cls-4,.cls-5{stroke-linecap:round;}.cls-1,.cls-4,.cls-5,.cls-8{stroke-width:5px;}.cls-2,.cls-3{stroke-width:4px;}.cls-3{fill:none;}.cls-4{fill:#b7b7b7;}.cls-5,.cls-7{fill:#e09e19;}.cls-8{fill:#ba6d38;}</style></defs><title>Ibuprofen</title><ellipse class="cls-1" cx="155.7" cy="82" rx="106.34" ry="28.68"/><path class="cls-1" d="M307.86,168.07c0-10.58-4.44-22.64-19-36.62C276.5,120.39,262.4,104.17,262.4,81.5,215,81.5,48,79.77,49.71,81.5c0,0,6,31.76-22.25,49.95,0,0-17.76,14-22.48,33a9.48,9.48,0,0,0-.73,3.59c-3.14,20.07,0,323.69,0,323.69,0,13.8,10,38.79,31.36,51s68.61,25.51,120.45,25.51c56.81,0,105.42-19.51,125.31-32.91,7.76-5,26.49-23.55,26.49-43.62Z" transform="translate(-0.35 0.5)"/><path class="cls-1" d="M38.12,80.19c0,17.56,52.8,31.8,117.94,31.8S274,97.75,274,80.19V33.8H38.12Z" transform="translate(-0.35 0.5)"/><path class="cls-2" d="M224.62,105.92a592.54,592.54,0,0,1-68.56,1.92C90.4,105.75,22.23,87.77,38.12,74.45" transform="translate(-0.35 0.5)"/><path class="cls-3" d="M250.15,99.06c-15.05,2.09-44.37,4.31-94.09,2.72C101.38,100,41.89,87.67,37.81,74.18" transform="translate(-0.35 0.5)"/><path class="cls-2" d="M273.57,77.32c18.82,9.2-53,19.2-117.51,17.14C90.4,92.37,22.23,74.39,38.12,61.06" transform="translate(-0.35 0.5)"/><path class="cls-2" d="M273.57,61.84C292.39,71,220.53,81,156.06,79,90.4,76.9,22.23,58.91,38.12,45.59" transform="translate(-0.35 0.5)"/><path class="cls-3" d="M273.74,62.17c-13.53,6.86-68,12.76-117.68,11.17C101.38,71.6,41.89,59.23,37.81,45.74" transform="translate(-0.35 0.5)"/><path class="cls-2" d="M273.57,47.21c14.12,6.9-24.15,13.51-70.68,15.89" transform="translate(-0.35 0.5)"/><path class="cls-3" d="M273.74,47.53c-13.53,6.86-68,12.76-117.68,11.18C101.38,57,41.89,44.59,37.81,31.1" transform="translate(-0.35 0.5)"/><path class="cls-3" d="M273.74,77.23c-13.53,6.85-68,12.75-117.68,11.17C101.38,86.66,41.89,74.28,37.81,60.8" transform="translate(-0.35 0.5)"/><ellipse class="cls-1" cx="155.7" cy="34.3" rx="117.93" ry="31.8"/><ellipse class="cls-4" cx="155.7" cy="33.71" rx="104.01" ry="22.56"/><path class="cls-5" d="M26.58,487.5V211c27,10.92,74.55,19.54,126.8,19.54,83.61,0,154.38-19.36,154.38-40.33,0,0,1.05,278.82,0,279.87C288.51,489.3,237,521.71,153.38,521.71,99,521.71,41.47,503.39,26.58,487.5Z" transform="translate(-0.35 0.5)"/><path class="cls-6" d="M54.59,322.94,53,322.45c.12-6.12.07-9.11,0-15.1-2.15-.68-3.22-1-5.33-1.77v-1.51c4.85,1.72,7.33,2.5,12.35,3.94l0,1.47c-2.18-.62-3.27-.94-5.43-1.61C54.68,313.82,54.73,316.8,54.59,322.94Z" transform="translate(-0.35 0.5)"/><path class="cls-6" d="M67.26,319.08a3.41,3.41,0,0,0-.82-2.23,4.26,4.26,0,0,0-2.2-1.23,4.58,4.58,0,0,0-1.81-.13A3,3,0,0,0,61,316c-.37-.5-.55-.76-.92-1.27a3.7,3.7,0,0,1,1.75-.61,6.72,6.72,0,0,1,2.49.22A7.38,7.38,0,0,1,66,315a5.72,5.72,0,0,1,1.38,1.05,4.94,4.94,0,0,1,1,1.42,5.09,5.09,0,0,1,.39,1.78c.06,1.86,0,2.89-.13,4.86,0,.43,0,.88,0,1.35a9.88,9.88,0,0,0,.09,1.22l-1.43-.35c0-.28-.06-.59-.08-.92s0-.64,0-.95h0a3.52,3.52,0,0,1-1.77,1.2,4.53,4.53,0,0,1-2.29-.09,5.84,5.84,0,0,1-1.28-.52,5.11,5.11,0,0,1-1.18-.91,4.53,4.53,0,0,1-.86-1.3,3.68,3.68,0,0,1-.3-1.68,2.47,2.47,0,0,1,.71-1.88,2.87,2.87,0,0,1,1.74-.68,10,10,0,0,1,2.46.18c.92.17,1.89.37,2.89.62Zm-.46,1.48c-.66-.16-1.32-.3-2-.41A8.33,8.33,0,0,0,63,320a2.72,2.72,0,0,0-1.35.39,1.32,1.32,0,0,0-.56,1.13,2.44,2.44,0,0,0,.19,1.07,2.4,2.4,0,0,0,.56.81,3.08,3.08,0,0,0,.81.58,4.69,4.69,0,0,0,.92.35,3.4,3.4,0,0,0,1.5.08,2.43,2.43,0,0,0,1.13-.54,2.72,2.72,0,0,0,.73-1,3.76,3.76,0,0,0,.3-1.36c0-.34,0-.51,0-.84Z" transform="translate(-0.35 0.5)"/><path class="cls-6" d="M74.37,326.09c0,.76-.05,1.14-.09,1.9l-1.6-.36a171.79,171.79,0,0,0-.13-17.48l1.6.36c.13,3.34.19,5,.31,8.35h.05a3.15,3.15,0,0,1,1.79-1.17,5,5,0,0,1,2.32-.05,7.73,7.73,0,0,1,2.38.9,7.44,7.44,0,0,1,1.85,1.52,7.16,7.16,0,0,1,1.22,2,5.19,5.19,0,0,1,.45,2.31,5.81,5.81,0,0,1-.51,2.26,4.72,4.72,0,0,1-1.25,1.65,4.37,4.37,0,0,1-1.86.9,5.5,5.5,0,0,1-2.39,0,6.1,6.1,0,0,1-2.32-1,5.88,5.88,0,0,1-1.77-2Zm8.44-2a4.31,4.31,0,0,0-.3-1.75,5.19,5.19,0,0,0-.86-1.52,5.44,5.44,0,0,0-3.15-1.87,4.21,4.21,0,0,0-1.69,0,3,3,0,0,0-1.31.62,2.86,2.86,0,0,0-.84,1.17,5,5,0,0,0-.3,1.65,5.53,5.53,0,0,0,.23,1.86A5.28,5.28,0,0,0,76.72,327a4.59,4.59,0,0,0,1.69.7,4,4,0,0,0,1.79,0,3.08,3.08,0,0,0,1.37-.7,3.52,3.52,0,0,0,.88-1.29A5.1,5.1,0,0,0,82.81,324.05Z" transform="translate(-0.35 0.5)"/><path class="cls-6" d="M89.45,330.88l-1.63-.27c.29-7.25.11-10.64-.11-17.54l1.64.26C89.55,320.23,89.72,323.63,89.45,330.88Z" transform="translate(-0.35 0.5)"/><path class="cls-6" d="M104.16,326.93v.36c0,.13,0,.26,0,.4-3.7-.4-5.55-.64-9.26-1.18a4.74,4.74,0,0,0,.29,1.63,4.53,4.53,0,0,0,.82,1.41,4.78,4.78,0,0,0,1.27,1.05,4.2,4.2,0,0,0,1.6.53,3.74,3.74,0,0,0,3.64-1.5l1.2,1.09a5.26,5.26,0,0,1-2.26,1.56,5.86,5.86,0,0,1-2.62.23,6.33,6.33,0,0,1-2.31-.74,6.17,6.17,0,0,1-1.79-1.49,6.61,6.61,0,0,1-1.15-2,6.44,6.44,0,0,1-.36-2.41,6,6,0,0,1,.4-2.2A4.24,4.24,0,0,1,94.74,322a4.51,4.51,0,0,1,1.76-.93,5.42,5.42,0,0,1,2.22-.14,6.63,6.63,0,0,1,2.33.7,5.94,5.94,0,0,1,3.11,5.29Zm-1.64-.7a4.43,4.43,0,0,0-1.06-2.65,4.14,4.14,0,0,0-2.71-1.33,3.72,3.72,0,0,0-1.5.09,3.42,3.42,0,0,0-1.2.62,2.92,2.92,0,0,0-.81,1,3,3,0,0,0-.33,1.27C98,325.68,99.48,325.88,102.52,326.23Z" transform="translate(-0.35 0.5)"/><path class="cls-6" d="M112.64,323.9c-1.26-.09-1.89-.14-3.15-.25,0,2.55,0,3.83,0,6.42a3.38,3.38,0,0,0,.11,1,1.47,1.47,0,0,0,.33.66,1.21,1.21,0,0,0,.54.35,2.42,2.42,0,0,0,.67.14,2.9,2.9,0,0,0,.71,0,2.83,2.83,0,0,0,.7-.21c0,.56,0,.84.06,1.4a4.5,4.5,0,0,1-.9.19,5.78,5.78,0,0,1-1,0,4.52,4.52,0,0,1-1-.19,2.9,2.9,0,0,1-.93-.53,2.83,2.83,0,0,1-.69-1,3.53,3.53,0,0,1-.25-1.52c0-2.77,0-4.15,0-6.87-.93-.08-1.39-.12-2.32-.22,0-.53,0-.79,0-1.32l2.32.22c0-1.23,0-1.85,0-3.08l1.64.13c0,1.24,0,1.85,0,3.08,1.26.11,1.89.15,3.15.24Z" transform="translate(-0.35 0.5)"/><path class="cls-6" d="M121.1,325.61a3.06,3.06,0,0,0-1.08-1.16,3.21,3.21,0,0,0-1.66-.5,3.47,3.47,0,0,0-.85.05,2.21,2.21,0,0,0-.76.27,1.56,1.56,0,0,0-.54.51,1.49,1.49,0,0,0,.45,2,6.39,6.39,0,0,0,2,.8,7.08,7.08,0,0,1,2.9,1.29,2.6,2.6,0,0,1,.94,2.09,3.22,3.22,0,0,1-.38,1.59,3,3,0,0,1-1,1,3.83,3.83,0,0,1-1.35.54,5.92,5.92,0,0,1-1.51.11,6.15,6.15,0,0,1-2.46-.64,4.85,4.85,0,0,1-2-1.76l1.3-.86a3.77,3.77,0,0,0,1.25,1.3,3.64,3.64,0,0,0,1.84.59,4.69,4.69,0,0,0,1,0,2.1,2.1,0,0,0,.83-.3,1.69,1.69,0,0,0,.58-.58,1.76,1.76,0,0,0,.21-.9,1.45,1.45,0,0,0-.84-1.34,11.82,11.82,0,0,0-2.43-.93c-.33-.1-.68-.21-1.06-.35a3.93,3.93,0,0,1-1-.59,3.26,3.26,0,0,1-.79-.9,2.76,2.76,0,0,1,.9-3.67,4,4,0,0,1,1.27-.5,6,6,0,0,1,1.48-.12,5.42,5.42,0,0,1,2.26.61,3.85,3.85,0,0,1,1.65,1.51Z" transform="translate(-0.35 0.5)"/><path class="cls-6" d="M126,337.47l-1.35,0c.63-2.2,1-3.31,1.59-5.52h1.68Z" transform="translate(-0.35 0.5)"/><path class="cls-6" d="M146.87,334.1c-4.29,0-6.43.06-10.71.07,0-.71,0-1.07,0-1.77,2.75-2.78,4.12-4.17,6.86-7,.25-.25.49-.53.74-.82a7,7,0,0,0,.64-.93,4.38,4.38,0,0,0,.45-1,3.77,3.77,0,0,0,.16-1.11,3.36,3.36,0,0,0-.27-1.33,2.88,2.88,0,0,0-.72-1,3.12,3.12,0,0,0-1.07-.63,3.55,3.55,0,0,0-1.26-.21,3.25,3.25,0,0,0-2.26.87,3.83,3.83,0,0,0-1.17,2.15l-1.68-.32a5.1,5.1,0,0,1,.62-1.64,5.26,5.26,0,0,1,1.13-1.31,5.4,5.4,0,0,1,1.52-.86,5.23,5.23,0,0,1,1.84-.34,6.11,6.11,0,0,1,1.92.27,4.7,4.7,0,0,1,1.59.86,4.25,4.25,0,0,1,1.09,1.43,5.08,5.08,0,0,1,.2,3.5,6.52,6.52,0,0,1-.58,1.32,7.47,7.47,0,0,1-.86,1.19c-.33.38-.67.75-1,1.12-2.41,2.42-3.62,3.62-6,6,3.55,0,5.33,0,8.89-.06Z" transform="translate(-0.35 0.5)"/><path class="cls-6" d="M155.41,316.64a4.13,4.13,0,0,1,2.61.69,5.52,5.52,0,0,1,1.71,2,10,10,0,0,1,.94,2.84,18.68,18.68,0,0,1,.32,3.27,17.47,17.47,0,0,1-.23,3.25,9.81,9.81,0,0,1-.89,2.85,5.66,5.66,0,0,1-1.68,2.05,4.9,4.9,0,0,1-5.26.11,5.45,5.45,0,0,1-1.7-2,9.4,9.4,0,0,1-.91-2.8,19.08,19.08,0,0,1-.28-3.22,19.51,19.51,0,0,1,.23-3.25,9.55,9.55,0,0,1,.87-2.87,5.91,5.91,0,0,1,1.66-2.08A4.31,4.31,0,0,1,155.41,316.64Zm0,1.46a2.63,2.63,0,0,0-1.84.75,5,5,0,0,0-1.14,1.8,9.57,9.57,0,0,0-.57,2.41,21,21,0,0,0-.14,2.6,20.47,20.47,0,0,0,.19,2.57,9.51,9.51,0,0,0,.6,2.35,4.59,4.59,0,0,0,1.18,1.7,2.58,2.58,0,0,0,1.86.64,2.68,2.68,0,0,0,1.83-.72,4.77,4.77,0,0,0,1.15-1.76,9.79,9.79,0,0,0,.6-2.37,19.05,19.05,0,0,0,.14-2.6,19.37,19.37,0,0,0-.21-2.6,10.92,10.92,0,0,0-.64-2.4,4.66,4.66,0,0,0-1.18-1.73A2.52,2.52,0,0,0,155.43,318.1Z" transform="translate(-0.35 0.5)"/><path class="cls-6" d="M169.06,316.06a4.06,4.06,0,0,1,2.62.64,5.38,5.38,0,0,1,1.72,2,9.76,9.76,0,0,1,1,2.85,18.71,18.71,0,0,1,.34,3.28,17.74,17.74,0,0,1-.21,3.28,10,10,0,0,1-.88,2.88,5.79,5.79,0,0,1-1.66,2.1,4.52,4.52,0,0,1-2.61.89,4.31,4.31,0,0,1-2.65-.65,5.39,5.39,0,0,1-1.71-1.94,9.25,9.25,0,0,1-.92-2.79,21.31,21.31,0,0,1-.31-3.24A20,20,0,0,1,164,322a9.86,9.86,0,0,1,.84-2.92,5.87,5.87,0,0,1,1.65-2.13A4.32,4.32,0,0,1,169.06,316.06Zm0,1.47a2.67,2.67,0,0,0-1.83.8,5.21,5.21,0,0,0-1.13,1.84,10.09,10.09,0,0,0-.54,2.46,19.44,19.44,0,0,0-.12,2.62,20.86,20.86,0,0,0,.21,2.6,9.12,9.12,0,0,0,.61,2.34,4.54,4.54,0,0,0,1.18,1.68,2.53,2.53,0,0,0,1.86.59,2.67,2.67,0,0,0,1.83-.76,5,5,0,0,0,1.15-1.79,10.55,10.55,0,0,0,.58-2.4,19.3,19.3,0,0,0,.12-2.62,19.74,19.74,0,0,0-.23-2.62,10.47,10.47,0,0,0-.66-2.41,4.64,4.64,0,0,0-1.19-1.72A2.43,2.43,0,0,0,169.09,317.53Z" transform="translate(-0.35 0.5)"/><path class="cls-6" d="M181.22,321.88a4.18,4.18,0,0,1,2.17-.79,4.85,4.85,0,0,1,.93,0,2.77,2.77,0,0,1,1,.3,2.9,2.9,0,0,1,.87.67,3.7,3.7,0,0,1,.7,1.13,4.65,4.65,0,0,1,1.51-1.93,4.59,4.59,0,0,1,2.31-.84,3.59,3.59,0,0,1,3.18,1,4.79,4.79,0,0,1,1.11,3.27c.06,2.78.05,4.1.08,6.82l-1.6.19c0-2.46,0-3.64-.06-6.15a5.32,5.32,0,0,0-.71-2.82,2.17,2.17,0,0,0-2.23-.86,3,3,0,0,0-1.47.5,3.29,3.29,0,0,0-.94,1.06,4.27,4.27,0,0,0-.5,1.39,8.33,8.33,0,0,0-.14,1.57c0,2.36,0,3.55.07,5.91l-1.6.15c0-2.6,0-3.84-.08-6.5a9.26,9.26,0,0,0-.15-1.49,3.09,3.09,0,0,0-.44-1.12,1.8,1.8,0,0,0-.83-.66,2.89,2.89,0,0,0-1.33-.15,2.8,2.8,0,0,0-1.14.36,3.15,3.15,0,0,0-1,.89,4.62,4.62,0,0,0-.72,1.44,6.74,6.74,0,0,0-.24,2c0,2.28,0,3.42.07,5.7l-1.61.11c0-3.46-.05-5.18-.13-8.73,0-.3,0-.7,0-1.18s-.06-.93-.1-1.31l1.53-.11c0,.31.07.64.1,1s0,.67,0,.92h.05A4.12,4.12,0,0,1,181.22,321.88Z" transform="translate(-0.35 0.5)"/><path class="cls-6" d="M199.75,333.13a4.38,4.38,0,0,0,1.8,1.2,4.6,4.6,0,0,0,2.39.24,5.32,5.32,0,0,0,2-.65,4.2,4.2,0,0,0,1.31-1.15,4.46,4.46,0,0,0,.73-1.5,6.57,6.57,0,0,0,.23-1.73v-2.08h-.05a5.3,5.3,0,0,1-1.78,1.9,5.92,5.92,0,0,1-2.34.93,5.56,5.56,0,0,1-2.32-.09,4.43,4.43,0,0,1-1.79-.93,4.36,4.36,0,0,1-1.16-1.64,5.57,5.57,0,0,1-.43-2.2,6.45,6.45,0,0,1,3.28-5.79,6.33,6.33,0,0,1,2.34-.77,5,5,0,0,1,2.36.24,3.5,3.5,0,0,1,1.82,1.37h0v-1.92l1.6-.25v11a8.94,8.94,0,0,1-.24,2,6.09,6.09,0,0,1-.91,2,6.42,6.42,0,0,1-1.79,1.72,7.17,7.17,0,0,1-2.94,1,6.51,6.51,0,0,1-2.89-.17,5.74,5.74,0,0,1-2.37-1.31Zm.25-8a4.54,4.54,0,0,0,.29,1.63,3.62,3.62,0,0,0,.82,1.26,3,3,0,0,0,1.3.75,3.92,3.92,0,0,0,1.76.09,4.85,4.85,0,0,0,1.68-.57,4.6,4.6,0,0,0,1.32-1.08,4.83,4.83,0,0,0,.88-1.51,5.33,5.33,0,0,0,.31-1.81,4,4,0,0,0-.32-1.6,3.4,3.4,0,0,0-.89-1.24,3.53,3.53,0,0,0-1.34-.75,3.69,3.69,0,0,0-1.7-.12,4.64,4.64,0,0,0-1.77.6,4.74,4.74,0,0,0-2.08,2.64A5.22,5.22,0,0,0,200,325.17Z" transform="translate(-0.35 0.5)"/><path class="cls-6" d="M46.36,334.74c1.65.54,2.48.81,4.15,1.32a10.28,10.28,0,0,1,2.05.87,6.71,6.71,0,0,1,1.58,1.22,5,5,0,0,1,1.37,3.49,3.44,3.44,0,0,1-.37,1.71,2.23,2.23,0,0,1-1,1,3.47,3.47,0,0,1-1.6.28,7.58,7.58,0,0,1-2.05-.39l-2.62-.87v7l-1.49-.53ZM47.85,342l2.53.84a3.82,3.82,0,0,0,2.7.13,1.79,1.79,0,0,0,.92-1.8,3.22,3.22,0,0,0-1-2.37,6.42,6.42,0,0,0-2.67-1.47l-2.53-.81Z" transform="translate(-0.35 0.5)"/><path class="cls-6" d="M63.37,348.49a3.27,3.27,0,0,0-.68-2.14,3.73,3.73,0,0,0-2-1.17,3.94,3.94,0,0,0-1.65-.12,2.87,2.87,0,0,0-1.29.51l-.8-1.2a3.39,3.39,0,0,1,1.61-.59,5.79,5.79,0,0,1,2.28.2,6.16,6.16,0,0,1,1.5.62,5,5,0,0,1,1.23,1,4.53,4.53,0,0,1,.83,1.37,4.69,4.69,0,0,1,.29,1.71v4.48c0,.4,0,.81,0,1.24a9.23,9.23,0,0,0,.12,1.1l-1.29-.33c0-.26-.08-.53-.11-.83a8.71,8.71,0,0,1,0-.87h0a2.89,2.89,0,0,1-1.54,1.07,4,4,0,0,1-2.06-.11,5.28,5.28,0,0,1-1.17-.5,4.27,4.27,0,0,1-1.1-.85,4.47,4.47,0,0,1-.82-1.2,3.5,3.5,0,0,1-.33-1.53,2.21,2.21,0,0,1,.58-1.7,2.51,2.51,0,0,1,1.55-.58,8.55,8.55,0,0,1,2.23.17c.84.16,1.71.36,2.62.59Zm-.43,1.4c-.59-.15-1.19-.28-1.79-.39a7.43,7.43,0,0,0-1.63-.14,2.35,2.35,0,0,0-1.19.33,1.12,1.12,0,0,0-.46,1,2.16,2.16,0,0,0,.2,1,2.37,2.37,0,0,0,.53.75,3.24,3.24,0,0,0,.75.54,4.87,4.87,0,0,0,.84.33,3.07,3.07,0,0,0,1.35.1,2.08,2.08,0,0,0,1-.48,2.29,2.29,0,0,0,.61-.92,3.47,3.47,0,0,0,.21-1.24V350Z" transform="translate(-0.35 0.5)"/><path class="cls-6" d="M70.22,342.58a.79.79,0,0,1-.32.69.87.87,0,0,1-.7.13,1.35,1.35,0,0,1-.71-.46,1.23,1.23,0,0,1-.32-.82.79.79,0,0,1,.32-.69.89.89,0,0,1,.71-.13,1.32,1.32,0,0,1,.7.46A1.23,1.23,0,0,1,70.22,342.58Zm-.3,14.12-1.45-.33V346.12l1.45.33Z" transform="translate(-0.35 0.5)"/><path class="cls-6" d="M75.1,347.57c0,.28.05.59.06.93s0,.61,0,.83h0a2.49,2.49,0,0,1,1.4-1.17,3.58,3.58,0,0,1,2-.16,4.36,4.36,0,0,1,2.87,1.68,5.37,5.37,0,0,1,1,3.23v6.25L81,358.92v-5.65a7.65,7.65,0,0,0-.13-1.49,3.72,3.72,0,0,0-.43-1.2,2.85,2.85,0,0,0-.84-.89,3.44,3.44,0,0,0-1.32-.51,2.69,2.69,0,0,0-1.13,0,2.13,2.13,0,0,0-1,.54,2.77,2.77,0,0,0-.69,1.11,5.12,5.12,0,0,0-.26,1.73v5.25l-1.45-.29v-8c0-.28,0-.64,0-1.08s0-.84-.07-1.19Z" transform="translate(-0.35 0.5)"/><path class="cls-6" d="M93.25,360.8l-1.54-.21c0-6.13,0-9.2,0-15.33,1.78.27,2.68.39,4.46.64a9.8,9.8,0,0,1,2.07.49,5.25,5.25,0,0,1,1.65.91,3.87,3.87,0,0,1,1.08,1.39,4.43,4.43,0,0,1,.39,1.93,3.51,3.51,0,0,1-.3,1.49,3.24,3.24,0,0,1-.82,1.1,3.34,3.34,0,0,1-1.22.66,5.08,5.08,0,0,1-1.54.2c1.77,3.12,2.66,4.67,4.43,7.75l-1.89-.2L95.83,354l-2.57-.34Zm0-8.5,2.68.36a4.79,4.79,0,0,0,2.88-.31,2,2,0,0,0,1-1.91,2.67,2.67,0,0,0-1-2.24,4,4,0,0,0-1.2-.63,8.83,8.83,0,0,0-1.57-.36l-2.75-.38Z" transform="translate(-0.35 0.5)"/><path class="cls-6" d="M113.27,357.59v.32a2.19,2.19,0,0,1,0,.36c-3.22-.26-4.93-.42-8.24-.75a4,4,0,0,0,.3,1.44,4.09,4.09,0,0,0,.76,1.23,4.22,4.22,0,0,0,1.16.89,3.83,3.83,0,0,0,1.42.42,3.33,3.33,0,0,0,2-.35,3.44,3.44,0,0,0,1.24-1.1c.44.38.66.56,1.08.94a4.61,4.61,0,0,1-2,1.45,5.19,5.19,0,0,1-2.31.3,5.46,5.46,0,0,1-2-.59,5.36,5.36,0,0,1-1.64-1.26,5.91,5.91,0,0,1-1.07-1.78,5.66,5.66,0,0,1-.4-2.14,5.29,5.29,0,0,1,.39-2.06,4.26,4.26,0,0,1,1.07-1.55,4.09,4.09,0,0,1,1.6-.94,4.79,4.79,0,0,1,2-.19,5.45,5.45,0,0,1,2.06.58,5,5,0,0,1,1.49,1.2,5.11,5.11,0,0,1,.89,1.64A6.25,6.25,0,0,1,113.27,357.59Zm-1.46-.59a3.9,3.9,0,0,0-.9-2.41,3.4,3.4,0,0,0-2.39-1.15,3.16,3.16,0,0,0-1.35.14,3,3,0,0,0-1.08.61,3.13,3.13,0,0,0-.75,1,3.24,3.24,0,0,0-.32,1.19C107.74,356.64,109.1,356.77,111.81,357Z" transform="translate(-0.35 0.5)"/><path class="cls-6" d="M124.4,362a3.61,3.61,0,0,1-1.63,1.34,4.71,4.71,0,0,1-2.09.36,5.47,5.47,0,0,1-2.09-.54,5.19,5.19,0,0,1-1.59-1.22,5.27,5.27,0,0,1-1-1.73,5.77,5.77,0,0,1-.37-2.08,5.61,5.61,0,0,1,.36-2,4.44,4.44,0,0,1,1-1.57,4.16,4.16,0,0,1,1.58-1,5.18,5.18,0,0,1,2.08-.26,5,5,0,0,1,2.08.63,4.46,4.46,0,0,1,1.65,1.58h0l0-7.81,1.44.08.08,16-1.43-.08c0-.67,0-1,0-1.67Zm-7.3-3.76a4.89,4.89,0,0,0,.26,1.58,4.21,4.21,0,0,0,.72,1.32,3.82,3.82,0,0,0,1.17.93,4.14,4.14,0,0,0,1.58.41,3.74,3.74,0,0,0,1.51-.21,3.38,3.38,0,0,0,2-2,4.2,4.2,0,0,0,.28-1.56,4.31,4.31,0,0,0-1.09-2.91,4,4,0,0,0-1.2-.92,3.9,3.9,0,0,0-1.51-.41,3.59,3.59,0,0,0-1.57.21,3,3,0,0,0-1.16.78,3.29,3.29,0,0,0-.72,1.22A4.52,4.52,0,0,0,117.1,358.19Z" transform="translate(-0.35 0.5)"/><path class="cls-6" d="M137,364.21c0-.27-.06-.57-.07-.89s0-.6,0-.81h0a3,3,0,0,1-1.38,1.35,3.82,3.82,0,0,1-2,.46,3.64,3.64,0,0,1-2.84-1.25,4.56,4.56,0,0,1-1-3l0-6.07,1.44.07c0,2.19,0,3.28,0,5.47a7.79,7.79,0,0,0,.14,1.43,3.1,3.1,0,0,0,.44,1.1,2.22,2.22,0,0,0,.83.75,3.12,3.12,0,0,0,1.31.31,2.7,2.7,0,0,0,1.12-.19,2.5,2.5,0,0,0,1-.67,3.2,3.2,0,0,0,.67-1.18,5.14,5.14,0,0,0,.25-1.71c0-2,0-3.05,0-5.08l1.45.06c0,3.08,0,4.63,0,7.72,0,.26,0,.61,0,1s0,.81.07,1.15Z" transform="translate(-0.35 0.5)"/><path class="cls-6" d="M149.27,356.92a2.84,2.84,0,0,0-1.06-1,3.32,3.32,0,0,0-1.52-.41,4,4,0,0,0-1.58.27,3.37,3.37,0,0,0-1.2.82,3.49,3.49,0,0,0-.76,1.24,4.81,4.81,0,0,0,0,3.15,4.24,4.24,0,0,0,.77,1.28,3.63,3.63,0,0,0,1.2.87,3.87,3.87,0,0,0,1.59.35,3.1,3.1,0,0,0,2.71-1.23l1.09.83a4.62,4.62,0,0,1-1.57,1.22,4.92,4.92,0,0,1-2.23.41,5.91,5.91,0,0,1-2.2-.45,5,5,0,0,1-1.68-1.14,5.13,5.13,0,0,1-1.09-1.68,5.7,5.7,0,0,1-.4-2.08,5.47,5.47,0,0,1,.37-2.06,4.77,4.77,0,0,1,1.07-1.62,4.84,4.84,0,0,1,1.67-1.05,6,6,0,0,1,2.21-.33,5.14,5.14,0,0,1,2,.48,4.09,4.09,0,0,1,1.69,1.31Z" transform="translate(-0.35 0.5)"/><path class="cls-6" d="M161.91,359.5v.32c0,.11,0,.23,0,.36-3.33,0-5-.05-8.32-.11a3.92,3.92,0,0,0,.31,1.41,3.47,3.47,0,0,0,.77,1.15,3.94,3.94,0,0,0,1.16.8,3.6,3.6,0,0,0,1.44.3,3.52,3.52,0,0,0,1.95-.49,3.77,3.77,0,0,0,1.25-1.19l1.1.86a5.2,5.2,0,0,1-2,1.59,5.69,5.69,0,0,1-4.39,0,5.08,5.08,0,0,1-1.64-1.12,5.31,5.31,0,0,1-1.09-1.67,5.52,5.52,0,0,1-.4-2.09,5.35,5.35,0,0,1,.37-2.06,4.85,4.85,0,0,1,2.67-2.71,5.08,5.08,0,0,1,2-.36,5.39,5.39,0,0,1,2.08.41,4.38,4.38,0,0,1,1.5,1.08,4.49,4.49,0,0,1,.92,1.57A5.93,5.93,0,0,1,161.91,359.5Zm-1.48-.48a3.64,3.64,0,0,0-.92-2.33,3.12,3.12,0,0,0-2.42-.95,3.37,3.37,0,0,0-1.35.24,3.48,3.48,0,0,0-1.09.71,3.64,3.64,0,0,0-.75,1,3.18,3.18,0,0,0-.31,1.21Z" transform="translate(-0.35 0.5)"/><path class="cls-6" d="M165,356c0-.42,0-.81-.07-1.15h1.39c0,.27,0,.57.07.89s0,.6,0,.81h0a3.49,3.49,0,0,1,1.29-1.41,3.6,3.6,0,0,1,1.92-.53l.51,0,.46.09c-.08.55-.12.83-.19,1.38A2.76,2.76,0,0,0,170,356c-.2,0-.4,0-.6,0a3,3,0,0,0-1.11.21,2.44,2.44,0,0,0-.94.66,3.65,3.65,0,0,0-.64,1.16,5.38,5.38,0,0,0-.24,1.71v5.08H165c0-3.1,0-4.65,0-7.75C165,356.77,165,356.42,165,356Z" transform="translate(-0.35 0.5)"/><path class="cls-6" d="M47.82,370.41l-1.48-.58c0-6,0-9,0-15.09,3.53,1.34,5.31,1.94,8.9,3.07v1.38c-3-.93-4.47-1.44-7.41-2.52v5.25c2.74,1,4.11,1.52,6.88,2.42v1.39c-2.77-.91-4.14-1.4-6.88-2.44C47.85,366.16,47.83,367.56,47.82,370.41Z" transform="translate(-0.35 0.5)"/><path class="cls-6" d="M66,370.83v.32a2.16,2.16,0,0,1,0,.35c-3.3-.82-4.94-1.27-8.21-2.27a4.57,4.57,0,0,0,.28,1.49,5.22,5.22,0,0,0,.73,1.38,5.36,5.36,0,0,0,1.13,1.1,4.21,4.21,0,0,0,1.41.69,3.13,3.13,0,0,0,1.94,0A2.69,2.69,0,0,0,64.5,373l1.07,1.13a3.86,3.86,0,0,1-2,1.1,5,5,0,0,1-2.31-.14,6.39,6.39,0,0,1-2-1,7,7,0,0,1-1.59-1.58,7.48,7.48,0,0,1-1-2,6.38,6.38,0,0,1-.35-2.2,4.89,4.89,0,0,1,.4-2,3.38,3.38,0,0,1,1-1.37,3.28,3.28,0,0,1,1.58-.65,4.52,4.52,0,0,1,2,.15,6.45,6.45,0,0,1,2,1A6.54,6.54,0,0,1,64.81,367a6.7,6.7,0,0,1,.9,1.84A6.56,6.56,0,0,1,66,370.83ZM64.54,370a4.68,4.68,0,0,0-.89-2.61,4.25,4.25,0,0,0-2.39-1.6,3.24,3.24,0,0,0-1.33-.1,2.42,2.42,0,0,0-1.07.43,2.39,2.39,0,0,0-.74.84,3.13,3.13,0,0,0-.33,1.14C60.48,368.91,61.83,369.29,64.54,370Z" transform="translate(-0.35 0.5)"/><path class="cls-6" d="M73.11,377.74l-1.6-.34c-1.57-4.33-2.33-6.49-4-11,.65.16,1,.24,1.62.38,1.29,3.77,1.92,5.6,3.16,9.24h0c1.37-3.09,2-4.64,3.36-7.85l1.56.3C75.66,372.28,74.81,374.1,73.11,377.74Z" transform="translate(-0.35 0.5)"/><path class="cls-6" d="M88.7,375.11v.32c0,.11,0,.23,0,.35-3.34-.45-5-.7-8.35-1.28a4.3,4.3,0,0,0,.28,1.46,4.42,4.42,0,0,0,.76,1.27,4.67,4.67,0,0,0,1.15,1,4,4,0,0,0,1.44.51,3.3,3.3,0,0,0,2-.22,3.06,3.06,0,0,0,1.27-1l1.09,1a4.46,4.46,0,0,1-2,1.33,5.25,5.25,0,0,1-2.35.14,6,6,0,0,1-3.7-2.1A6.35,6.35,0,0,1,79.18,376a5.64,5.64,0,0,1-.36-2.16,5.48,5.48,0,0,1,.4-2,4.08,4.08,0,0,1,1.08-1.51,3.84,3.84,0,0,1,1.61-.85,4.71,4.71,0,0,1,2-.08,5.69,5.69,0,0,1,2.09.72,5.41,5.41,0,0,1,2.41,3A6,6,0,0,1,88.7,375.11Zm-1.47-.68a4.17,4.17,0,0,0-.91-2.49,3.68,3.68,0,0,0-2.42-1.32,3,3,0,0,0-1.35.06,2.83,2.83,0,0,0-1.09.56,2.89,2.89,0,0,0-.76.94,3.4,3.4,0,0,0-.33,1.18C83.11,373.83,84.48,374,87.23,374.43Z" transform="translate(-0.35 0.5)"/><path class="cls-6" d="M91.83,371.94c0-.43,0-.83-.06-1.18l1.39.18c0,.28,0,.58.07.92s0,.6,0,.82h0a3,3,0,0,1,1.29-1.28,3.2,3.2,0,0,1,1.93-.32l.51.07a3,3,0,0,1,.46.14l-.2,1.38a2.39,2.39,0,0,0-.42-.13,4.1,4.1,0,0,0-.61-.11,2.76,2.76,0,0,0-1.11.08,2.23,2.23,0,0,0-.94.57,3.12,3.12,0,0,0-.64,1.11,5.17,5.17,0,0,0-.26,1.69c0,2,0,3.05,0,5.09l-1.46-.18c0-3.11,0-4.62,0-7.79C91.85,372.73,91.85,372.38,91.83,371.94Z" transform="translate(-0.35 0.5)"/><path class="cls-6" d="M106.54,382.3l-1.54-.13c0-6,0-9.06,0-15.12,1.77.17,2.66.25,4.43.39a10.51,10.51,0,0,1,2,.38,5.2,5.2,0,0,1,1.63.82,3.59,3.59,0,0,1,1.06,1.32,4.41,4.41,0,0,1,.38,1.9,3.74,3.74,0,0,1-.29,1.49,3.37,3.37,0,0,1-.8,1.12,3.44,3.44,0,0,1-1.2.71,4.72,4.72,0,0,1-1.53.27l4.38,7.48-1.86-.12c-1.65-2.94-2.49-4.4-4.16-7.35l-2.56-.21C106.55,378.08,106.55,379.48,106.54,382.3Zm0-8.37,2.67.21a4.76,4.76,0,0,0,2.84-.45,2.08,2.08,0,0,0,1-1.94,2.77,2.77,0,0,0-.27-1.27,2.54,2.54,0,0,0-.77-.89,3.55,3.55,0,0,0-1.19-.56,7.65,7.65,0,0,0-1.55-.28l-2.73-.23Z" transform="translate(-0.35 0.5)"/><path class="cls-6" d="M126.39,378.32v.32c0,.11,0,.23,0,.36-3.29-.17-4.94-.26-8.22-.46a4.29,4.29,0,0,0,.3,1.42,3.81,3.81,0,0,0,.77,1.19,4,4,0,0,0,1.14.85,3.64,3.64,0,0,0,1.42.37,3.38,3.38,0,0,0,1.94-.41,3.62,3.62,0,0,0,1.24-1.14l1.08.91a4.88,4.88,0,0,1-2,1.51,5.18,5.18,0,0,1-2.3.36,5.43,5.43,0,0,1-2-.51,5.11,5.11,0,0,1-1.62-1.2,5.61,5.61,0,0,1-1.07-1.72,5.91,5.91,0,0,1-.4-2.11A5.47,5.47,0,0,1,117,376a4.6,4.6,0,0,1,1-1.59,4.32,4.32,0,0,1,1.58-1,4.67,4.67,0,0,1,2-.28,5.43,5.43,0,0,1,2.05.51,4.88,4.88,0,0,1,1.49,1.14,5.1,5.1,0,0,1,.91,1.61A6,6,0,0,1,126.39,378.32Zm-1.46-.54a3.79,3.79,0,0,0-.91-2.37,3.6,3.6,0,0,0-3.72-.87,3.34,3.34,0,0,0-1.07.65,3.26,3.26,0,0,0-.73,1,3.05,3.05,0,0,0-.32,1.2C120.88,377.56,122.23,377.63,124.93,377.78Z" transform="translate(-0.35 0.5)"/><path class="cls-6" d="M131,383.82l-1.45-.07c0-6.43-.05-9.63-.09-16l1.44.07C131,374.19,131,377.38,131,383.82Z" transform="translate(-0.35 0.5)"/><path class="cls-6" d="M136.56,370.31a.88.88,0,0,1-.32.72,1,1,0,0,1-.7.26,1.08,1.08,0,0,1-.7-.32,1,1,0,0,1-.32-.74.88.88,0,0,1,.31-.72,1,1,0,0,1,.7-.25,1.09,1.09,0,0,1,.71.31A1,1,0,0,1,136.56,370.31ZM136.35,384,134.9,384c0-4,0-6-.06-9.93l1.44.06C136.31,378.06,136.32,380.06,136.35,384Z" transform="translate(-0.35 0.5)"/><path class="cls-6" d="M149.25,379.17v.32a2.3,2.3,0,0,1,0,.36c-3.31-.08-5-.13-8.27-.24a4,4,0,0,0,.31,1.42,3.74,3.74,0,0,0,1.93,2,3.76,3.76,0,0,0,3.37-.14,3.67,3.67,0,0,0,1.24-1.16l1.1.87a5.21,5.21,0,0,1-2,1.57,5.38,5.38,0,0,1-2.31.43,5.64,5.64,0,0,1-2.06-.46,5,5,0,0,1-1.63-1.15,5.52,5.52,0,0,1-1.09-1.69,5.61,5.61,0,0,1-.4-2.1,5.12,5.12,0,0,1,.37-2.07,4.68,4.68,0,0,1,1.05-1.61,4.62,4.62,0,0,1,1.59-1,5,5,0,0,1,2-.34,5.52,5.52,0,0,1,2.07.45,4.56,4.56,0,0,1,1.5,1.1,4.77,4.77,0,0,1,.91,1.58A5.77,5.77,0,0,1,149.25,379.17Zm-1.47-.51a3.71,3.71,0,0,0-.92-2.34,3.21,3.21,0,0,0-2.41-1,3.29,3.29,0,0,0-1.34.23,3.38,3.38,0,0,0-1.82,1.69,3.25,3.25,0,0,0-.32,1.21C143.69,378.55,145.05,378.59,147.78,378.66Z" transform="translate(-0.35 0.5)"/><path class="cls-6" d="M156.48,384.59l-1.6,0c-1.64-4-2.46-6-4.11-10l1.62,0c1.31,3.39,2,5.08,3.28,8.48h0c1.29-3.35,1.94-5,3.24-8.36l1.56,0Z" transform="translate(-0.35 0.5)"/><path class="cls-6" d="M171.87,379.49v.32c0,.11,0,.23,0,.36-3.31,0-5,0-8.28-.07a3.92,3.92,0,0,0,.31,1.41,3.51,3.51,0,0,0,.77,1.16,3.64,3.64,0,0,0,2.58,1.09,3.63,3.63,0,0,0,2-.51,3.84,3.84,0,0,0,1.24-1.19l1.09.85a5.26,5.26,0,0,1-2,1.61,5.46,5.46,0,0,1-2.31.47,5.37,5.37,0,0,1-2.06-.41,4.79,4.79,0,0,1-1.63-1.12,5.11,5.11,0,0,1-1.08-1.67,5.33,5.33,0,0,1-.4-2.09,5.46,5.46,0,0,1,.38-2.08A4.93,4.93,0,0,1,163.5,376a5.26,5.26,0,0,1,5.66-1,4.19,4.19,0,0,1,1.49,1.07,4.63,4.63,0,0,1,.91,1.57A5.67,5.67,0,0,1,171.87,379.49ZM170.4,379a3.6,3.6,0,0,0-.91-2.33,3.11,3.11,0,0,0-2.4-.94,3.38,3.38,0,0,0-1.35.25,3.43,3.43,0,0,0-1.08.71,3.5,3.5,0,0,0-.75,1,3.39,3.39,0,0,0-.32,1.21C166.32,379,167.68,379,170.4,379Z" transform="translate(-0.35 0.5)"/><path class="cls-6" d="M175,376q0-.63-.06-1.14h1.38c0,.27.05.57.07.89s0,.6,0,.81h0a3.4,3.4,0,0,1,1.28-1.41,3.49,3.49,0,0,1,1.91-.54l.5,0a1.87,1.87,0,0,1,.46.09c-.08.55-.11.83-.19,1.38a2.76,2.76,0,0,0-.43-.09,3.81,3.81,0,0,0-.59,0,3,3,0,0,0-1.11.21,2.3,2.3,0,0,0-.92.67,3.3,3.3,0,0,0-.64,1.16,5.14,5.14,0,0,0-.25,1.71v5.1H175V377C175,376.75,175,376.4,175,376Z" transform="translate(-0.35 0.5)"/><path class="cls-6" d="M46.39,383.68a16.83,16.83,0,0,0,.19,2.52,22.39,22.39,0,0,0,.54,2.56,25.66,25.66,0,0,0,.81,2.48,20.59,20.59,0,0,0,1,2.27l-1,.3a23.51,23.51,0,0,1-1.15-2.42,27.88,27.88,0,0,1-.9-2.67,26.64,26.64,0,0,1-.6-2.79,19,19,0,0,1-.21-2.8,15.64,15.64,0,0,1,.21-2.6,14,14,0,0,1,.62-2.3,10.68,10.68,0,0,1,.93-1.92,8.23,8.23,0,0,1,1.2-1.5c.42.45.63.67,1.06,1.11A7.51,7.51,0,0,0,48,377.38a10,10,0,0,0-.85,1.81,13.41,13.41,0,0,0-.57,2.12A13.94,13.94,0,0,0,46.39,383.68Z" transform="translate(-0.35 0.5)"/><path class="cls-6" d="M62.73,393h0c.1-5.12.14-7.68.24-12.79l1.52.4c-.11,6-.17,9-.28,15l-1.9-.51c-3.37-6.1-5-9.2-8.38-15.51l0,0c-.07,5.17-.1,7.76-.17,12.93l-1.46-.5.17-15c.74.26,1.11.39,1.86.63C57.68,383.9,59.35,387,62.73,393Z" transform="translate(-0.35 0.5)"/><path class="cls-6" d="M75.84,385.6a4.85,4.85,0,0,0-1.25-1.35,4.76,4.76,0,0,0-1.86-.79,3.94,3.94,0,0,0-1.14-.07,2.82,2.82,0,0,0-1.06.29,2,2,0,0,0-.78.71,2.35,2.35,0,0,0-.31,1.19,2.59,2.59,0,0,0,.26,1.25,3.66,3.66,0,0,0,.72,1,6,6,0,0,0,1,.77l1.22.68,1.59.88a8.11,8.11,0,0,1,1.44,1.06,4.84,4.84,0,0,1,1,1.41,4.27,4.27,0,0,1,.38,1.93,3.6,3.6,0,0,1-.47,1.86,3.24,3.24,0,0,1-1.16,1.14,4,4,0,0,1-1.61.47,6.07,6.07,0,0,1-1.8-.12,7.46,7.46,0,0,1-2.67-1.14,7.51,7.51,0,0,1-1.15-1,7.64,7.64,0,0,1-.92-1.2l1.35-.67A5.15,5.15,0,0,0,70,395.56a4.64,4.64,0,0,0,2.08,1,4,4,0,0,0,1.19.06,2.53,2.53,0,0,0,1.1-.33,2.35,2.35,0,0,0,.82-.75,2.23,2.23,0,0,0,.33-1.2,2.83,2.83,0,0,0-.29-1.37,3.36,3.36,0,0,0-.82-1,6.44,6.44,0,0,0-1.17-.83l-1.39-.76c-.49-.26-1-.54-1.47-.85a6.63,6.63,0,0,1-1.29-1.06,4.79,4.79,0,0,1-.9-1.4,4.11,4.11,0,0,1-.32-1.8,3.21,3.21,0,0,1,.47-1.76,2.87,2.87,0,0,1,1.16-1,4,4,0,0,1,1.58-.4,6.47,6.47,0,0,1,1.7.13,7.1,7.1,0,0,1,2.63,1.07,6.06,6.06,0,0,1,1.63,1.6Z" transform="translate(-0.35 0.5)"/><path class="cls-6" d="M80.31,399.05l-1.72-.3c2.76-5.54,4.13-8.33,6.85-13.95L87,385c2.57,6.39,3.86,9.57,6.47,15.91l-1.74-.22c-.67-1.66-1-2.5-1.67-4.17-3.19-.41-4.79-.64-8-1.16Zm2.34-5c2.71.44,4.07.63,6.79,1-1.33-3.37-2-5.06-3.31-8.45C84.75,389.6,84.05,391.1,82.65,394.07Z" transform="translate(-0.35 0.5)"/><path class="cls-6" d="M97.26,401.36l-1.57-.17.09-15.05,1.55.17C97.3,392.33,97.29,395.34,97.26,401.36Z" transform="translate(-0.35 0.5)"/><path class="cls-6" d="M101.39,386.72l5,.45a9.76,9.76,0,0,1,2.83.69,8.65,8.65,0,0,1,2.56,1.61,7.84,7.84,0,0,1,1.84,2.49,7.75,7.75,0,0,1,.7,3.33,6.93,6.93,0,0,1-.7,3.25,6.38,6.38,0,0,1-1.84,2.22,7,7,0,0,1-2.56,1.23,8.57,8.57,0,0,1-2.84.24l-5.08-.45Zm1.51,13.84,3.09.27a7.26,7.26,0,0,0,3-.29,5.68,5.68,0,0,0,2.11-1.23,5.27,5.27,0,0,0,1.24-1.88,6.15,6.15,0,0,0,.41-2.25,6.53,6.53,0,0,0-.41-2.3,6.3,6.3,0,0,0-1.24-2.06,7,7,0,0,0-2.1-1.55,8.31,8.31,0,0,0-3-.78c-1.22-.1-1.84-.15-3.07-.27Z" transform="translate(-0.35 0.5)"/><path class="cls-6" d="M119.86,397.05a14.62,14.62,0,0,0-.23-2.46,16.89,16.89,0,0,0-.59-2.38,16.36,16.36,0,0,0-.9-2.2,17,17,0,0,0-1.11-1.94l1.1-.63a16.7,16.7,0,0,1,1.23,2,16.08,16.08,0,0,1,1,2.36,17.85,17.85,0,0,1,.66,2.59,15.31,15.31,0,0,1,.24,2.7,14.8,14.8,0,0,1-.22,2.69,18.07,18.07,0,0,1-.64,2.51,13.69,13.69,0,0,1-1,2.23,14.12,14.12,0,0,1-1.23,1.9l-1.11-.78a14.13,14.13,0,0,0,1.11-1.8,13,13,0,0,0,.89-2.09,15.61,15.61,0,0,0,.58-2.31A14.07,14.07,0,0,0,119.86,397.05Z" transform="translate(-0.35 0.5)"/><path class="cls-6" d="M46.07,411.46v31.79c24.67,7.52,125.88,38.89,230-7.95V402.68s-44.33,26.76-113.33,26.76S46.07,411.46,46.07,411.46Z" transform="translate(-0.35 0.5)"/><path class="cls-7" d="M64.25,436.24a5.64,5.64,0,0,1-.59,2.6,3.86,3.86,0,0,1-1.47,1.55,4.63,4.63,0,0,1-2,.6,7,7,0,0,1-2.34-.23,9,9,0,0,1-2.11-.87,9.67,9.67,0,0,1-1.82-1.33,9,9,0,0,1-1.4-1.73,7.5,7.5,0,0,1-.86-2c1.41-.06,2.12-.1,3.55-.18a3.85,3.85,0,0,0,1,1.7,3.41,3.41,0,0,0,1.68,1,2.24,2.24,0,0,0,1.74-.18,1.86,1.86,0,0,0,.76-1.68,2.82,2.82,0,0,0-.29-1.32,3.47,3.47,0,0,0-.77-1,4.18,4.18,0,0,0-1.09-.68,7.25,7.25,0,0,0-1.21-.42,12.51,12.51,0,0,0-2-.3,11.08,11.08,0,0,0-2,0c.17-3.8.76-6.17,1.14-10.15,4.15,1.06,6.22,1.58,10.36,2.57-.12,1.41-.23,2.17-.42,3.66-2.71-.63-4.06-1-6.76-1.63-.2,1.16-.3,1.75-.46,2.87a5.3,5.3,0,0,1,.85.07c.31.05.59.1.84.16a8.72,8.72,0,0,1,2.32.92,7.15,7.15,0,0,1,1.84,1.5,7,7,0,0,1,1.22,2A6.44,6.44,0,0,1,64.25,436.24Z" transform="translate(-0.35 0.5)"/><path class="cls-7" d="M80,436.66a15.46,15.46,0,0,1-.45,3.44,7.77,7.77,0,0,1-1.22,2.71,4.58,4.58,0,0,1-2.08,1.59,5.22,5.22,0,0,1-3,.1,7,7,0,0,1-3-1.42,8.24,8.24,0,0,1-2-2.47,11.47,11.47,0,0,1-1.08-3.18,18.15,18.15,0,0,1-.28-3.56,11.23,11.23,0,0,1,.67-3.43,8.52,8.52,0,0,1,1.56-2.77,5.15,5.15,0,0,1,2.29-1.55,5.69,5.69,0,0,1,3.11-.05,6.72,6.72,0,0,1,3,1.39,6.45,6.45,0,0,1,1.78,2.43,9.87,9.87,0,0,1,.73,3.22A32.27,32.27,0,0,1,80,436.66Zm-4.08-.83c0-.54,0-1.11,0-1.77a13.54,13.54,0,0,0-.13-1.94,4.75,4.75,0,0,0-.55-1.63,1.76,1.76,0,0,0-1.19-.88,1.54,1.54,0,0,0-1.36.32,3.86,3.86,0,0,0-1,1.32,7.52,7.52,0,0,0-.59,1.79,10.41,10.41,0,0,0-.21,1.73,16.84,16.84,0,0,0,.05,1.84,9.62,9.62,0,0,0,.32,1.92,5.27,5.27,0,0,0,.73,1.59,2,2,0,0,0,1.26.85,1.36,1.36,0,0,0,1.28-.3,3.17,3.17,0,0,0,.79-1.27,8,8,0,0,0,.4-1.76C75.87,437,75.92,436.39,75.94,435.83Z" transform="translate(-0.35 0.5)"/><path class="cls-7" d="M95.45,439.48a15.72,15.72,0,0,1-.46,3.46,7.81,7.81,0,0,1-1.23,2.75,4.92,4.92,0,0,1-2.11,1.67,5.33,5.33,0,0,1-3.07.21,6.62,6.62,0,0,1-3-1.31,7.91,7.91,0,0,1-2-2.41,10.68,10.68,0,0,1-1.07-3.17,17.71,17.71,0,0,1-.26-3.59,10.83,10.83,0,0,1,.7-3.4A8.45,8.45,0,0,1,84.46,431a5.4,5.4,0,0,1,2.29-1.59,5.9,5.9,0,0,1,3.1-.13,6.57,6.57,0,0,1,3,1.29,6.34,6.34,0,0,1,1.8,2.33A9.59,9.59,0,0,1,95.4,436,28.79,28.79,0,0,1,95.45,439.48Zm-4.12-.7c0-.54,0-1.11,0-1.76a10.49,10.49,0,0,0-.15-1.89,4.54,4.54,0,0,0-.56-1.59,1.7,1.7,0,0,0-1.2-.82,1.55,1.55,0,0,0-1.36.35,3.88,3.88,0,0,0-1,1.31,7.59,7.59,0,0,0-.59,1.76,9.52,9.52,0,0,0-.22,1.73,16.86,16.86,0,0,0,0,1.85,9.63,9.63,0,0,0,.31,1.92,4.85,4.85,0,0,0,.74,1.57,2,2,0,0,0,1.27.82,1.44,1.44,0,0,0,1.3-.35,3.29,3.29,0,0,0,.79-1.3,8.31,8.31,0,0,0,.41-1.78A15.53,15.53,0,0,0,91.33,438.78Z" transform="translate(-0.35 0.5)"/><path class="cls-7" d="M116.31,450.86a8.59,8.59,0,0,1-3.85.31,10.25,10.25,0,0,1-3.64-1.12,9.74,9.74,0,0,1-2.86-2.26,9.88,9.88,0,0,1-1.85-3.18,10.1,10.1,0,0,1-.6-3.83,7.48,7.48,0,0,1,1-3.59,7.82,7.82,0,0,1,5.28-4,10.27,10.27,0,0,1,3.6-.11,10.74,10.74,0,0,1,3.45,1.09,7.32,7.32,0,0,1,2.65,2.2l-3,2.49a3.67,3.67,0,0,0-1.41-1.38,5,5,0,0,0-1.87-.64,4.7,4.7,0,0,0-2,.13,4.49,4.49,0,0,0-1.65.9,4.85,4.85,0,0,0-1.15,1.52,4.76,4.76,0,0,0-.48,2,6.62,6.62,0,0,0,.31,2.2,6,6,0,0,0,1,1.81,5.32,5.32,0,0,0,1.5,1.29,5.14,5.14,0,0,0,2,.63,4.17,4.17,0,0,0,2.15-.22,3.65,3.65,0,0,0,1.5-1.09c1.12,1.22,1.68,1.83,2.81,3A7.21,7.21,0,0,1,116.31,450.86Z" transform="translate(-0.35 0.5)"/><path class="cls-7" d="M133.16,446.7a6.17,6.17,0,0,1-.56,2.6,5.38,5.38,0,0,1-1.46,1.91,6,6,0,0,1-2.14,1.11,6.92,6.92,0,0,1-2.59.24,7.54,7.54,0,0,1-2.56-.69,6.85,6.85,0,0,1-3.5-3.68,6.85,6.85,0,0,1-.48-2.74,6.34,6.34,0,0,1,.57-2.61A5,5,0,0,1,122,441a5.84,5.84,0,0,1,2.18-1,7.27,7.27,0,0,1,2.56-.18,7.82,7.82,0,0,1,2.53.68,7,7,0,0,1,2.05,1.42,6.38,6.38,0,0,1,1.39,2.08A6.67,6.67,0,0,1,133.16,446.7Zm-3.79-.31a3.57,3.57,0,0,0-.72-2.18,3.24,3.24,0,0,0-.88-.76,3,3,0,0,0-1.22-.38,2.72,2.72,0,0,0-1.23.14,2.41,2.41,0,0,0-.89.6,2.84,2.84,0,0,0-.54.93,3.46,3.46,0,0,0-.2,1.11,3.88,3.88,0,0,0,.17,1.16,3.22,3.22,0,0,0,.52,1.05,3.06,3.06,0,0,0,.88.8,2.83,2.83,0,0,0,1.23.38,2.58,2.58,0,0,0,1.23-.16,2.37,2.37,0,0,0,.9-.63,2.72,2.72,0,0,0,.55-.95A3.51,3.51,0,0,0,129.37,446.39Z" transform="translate(-0.35 0.5)"/><path class="cls-7" d="M135.54,442.62a6.69,6.69,0,0,1,2.48-1.33,8.42,8.42,0,0,1,2.86-.31,8,8,0,0,1,2.53.51,4.13,4.13,0,0,1,1.66,1.23,5.06,5.06,0,0,1,.92,2,11.14,11.14,0,0,1,.29,2.81c0,2.38,0,3.57,0,6-1.44-.06-2.16-.09-3.59-.17V452h-.07a2.77,2.77,0,0,1-1.39,1.07,4.7,4.7,0,0,1-2,.3,6.29,6.29,0,0,1-1.49-.28,4.74,4.74,0,0,1-1.4-.71,3.53,3.53,0,0,1-1.43-3,2.83,2.83,0,0,1,.73-2,4.19,4.19,0,0,1,1.83-1.09,9.38,9.38,0,0,1,2.48-.42c.91,0,1.79,0,2.66,0v-.19a1.55,1.55,0,0,0-.62-1.33,2.92,2.92,0,0,0-1.52-.5,3.88,3.88,0,0,0-1.62.25,4.71,4.71,0,0,0-1.34.77C136.71,444,136.31,443.52,135.54,442.62Zm7.15,5.51-.5,0c-.43,0-.87,0-1.3,0a5.71,5.71,0,0,0-1.18.16,1.92,1.92,0,0,0-.85.44,1.06,1.06,0,0,0-.35.82,1,1,0,0,0,.16.58,1.27,1.27,0,0,0,.39.41,1.82,1.82,0,0,0,.55.23,2.68,2.68,0,0,0,.6.1,2.12,2.12,0,0,0,2.48-2.3Z" transform="translate(-0.35 0.5)"/><path class="cls-7" d="M153.2,444.78c0,1.79,0,2.71,0,4.51a2.11,2.11,0,0,0,.32,1.26,1.4,1.4,0,0,0,1.15.44,4.35,4.35,0,0,0,.61,0,2.16,2.16,0,0,0,.53-.13l0,2.84a7.19,7.19,0,0,1-1,.23,7.45,7.45,0,0,1-1.24.08,5.93,5.93,0,0,1-2-.35,3.17,3.17,0,0,1-1.3-.89,3.35,3.35,0,0,1-.7-1.35,6.67,6.67,0,0,1-.21-1.73c0-2,0-3,0-5l-1.91-.08c0-1.14,0-1.72,0-2.88l1.87.08c0-1.25,0-1.87,0-3.11l3.81.13c0,1.24,0,1.86,0,3.1L156,442c0,1.16,0,1.73,0,2.88Z" transform="translate(-0.35 0.5)"/><path class="cls-7" d="M169.49,447.93v.47a3.19,3.19,0,0,1,0,.45c-3.42.11-5.12.12-8.54.11a2,2,0,0,0,.3.9,2.5,2.5,0,0,0,.64.7,3,3,0,0,0,.87.46,3.2,3.2,0,0,0,3.61-1.1l2.69,1.64a5.56,5.56,0,0,1-2.19,1.91,7.13,7.13,0,0,1-3.15.69,7.68,7.68,0,0,1-2.51-.41,6.13,6.13,0,0,1-2.07-1.22,5.65,5.65,0,0,1-1.4-2,7.07,7.07,0,0,1,0-5.25,5.9,5.9,0,0,1,1.35-2,6.09,6.09,0,0,1,2-1.25,6.91,6.91,0,0,1,2.51-.45,6.42,6.42,0,0,1,2.39.41,5.14,5.14,0,0,1,1.87,1.22,5.62,5.62,0,0,1,1.22,2A7.7,7.7,0,0,1,169.49,447.93Zm-3.58-1.41a2.28,2.28,0,0,0-.58-1.57,2.19,2.19,0,0,0-1.74-.64,2.91,2.91,0,0,0-1,.18,2.77,2.77,0,0,0-.82.48,2.45,2.45,0,0,0-.57.72,2.22,2.22,0,0,0-.24.86C162.92,446.56,163.91,446.56,165.91,446.52Z" transform="translate(-0.35 0.5)"/><path class="cls-7" d="M180.84,453.09v-1.55h0a4.11,4.11,0,0,1-1.63,1.51,5.24,5.24,0,0,1-2.24.63,4.87,4.87,0,0,1-4.14-1.7,5.79,5.79,0,0,1-1.1-2,7.33,7.33,0,0,1-.38-2.35,7.56,7.56,0,0,1,.4-2.37,6.55,6.55,0,0,1,1.11-2,5.79,5.79,0,0,1,1.75-1.43,5.67,5.67,0,0,1,2.31-.64,4.4,4.4,0,0,1,2.22.34,4.59,4.59,0,0,1,1.41,1h.05l-.07-7.33c1.55-.12,2.33-.19,3.88-.34.09,7.11.11,10.7.06,18Zm-.11-6a3,3,0,0,0-.2-1.11,2.68,2.68,0,0,0-.57-.93,2.48,2.48,0,0,0-.89-.63,2.67,2.67,0,0,0-1.19-.17,2.9,2.9,0,0,0-1.21.34,3,3,0,0,0-.88.74,3,3,0,0,0-.54,1,3.66,3.66,0,0,0-.18,1.13,3.58,3.58,0,0,0,.17,1.12,2.84,2.84,0,0,0,.53.95,2.47,2.47,0,0,0,.88.64,2.6,2.6,0,0,0,1.21.19,2.71,2.71,0,0,0,1.19-.35,3.27,3.27,0,0,0,.9-.75,3.66,3.66,0,0,0,.57-1A3.28,3.28,0,0,0,180.73,447.13Z" transform="translate(-0.35 0.5)"/><path class="cls-7" d="M200.29,437.37c.17,5.26.09,8.05,0,13.57-1.62.23-2.43.35-4,.56.07-5.48.13-8.25,0-13.52-1.9.27-2.85.4-4.75.64,0-1.37,0-2.06-.07-3.43,5.4-.67,8.1-1.08,13.49-2,0,1.36.08,2,.13,3.41C203.13,436.91,202.19,437.07,200.29,437.37Z" transform="translate(-0.35 0.5)"/><path class="cls-7" d="M204.34,439.8a8.46,8.46,0,0,1,2.38-1.9,10,10,0,0,1,2.81-1,7.85,7.85,0,0,1,2.54-.13,3.26,3.26,0,0,1,1.73.78,3.8,3.8,0,0,1,1,1.72,11,11,0,0,1,.23,2.88l-.15,6.28c-1.42.28-2.13.42-3.55.68,0-.53,0-.79,0-1.32h-.07a3.92,3.92,0,0,1-1.39,1.45,5.28,5.28,0,0,1-2,.77,6,6,0,0,1-1.47.06,3.65,3.65,0,0,1-1.37-.41,2.61,2.61,0,0,1-1-1,3.4,3.4,0,0,1-.38-1.76,3.78,3.78,0,0,1,.74-2.26A6,6,0,0,1,206.3,443a10.79,10.79,0,0,1,2.47-1c.91-.27,1.78-.49,2.64-.66v-.2a1.18,1.18,0,0,0-.6-1.22,2.59,2.59,0,0,0-1.54-.12,4.51,4.51,0,0,0-1.6.65,6.91,6.91,0,0,0-1.32,1.12C205.58,440.83,205.16,440.5,204.34,439.8Zm7.14,3.89-.5.09c-.43.08-.86.19-1.29.31a5.71,5.71,0,0,0-1.17.45,2.89,2.89,0,0,0-.86.66,1.47,1.47,0,0,0-.35.94,1,1,0,0,0,.15.56.87.87,0,0,0,.38.33,1.53,1.53,0,0,0,.54.12,2.82,2.82,0,0,0,.59,0,2.88,2.88,0,0,0,1.83-1,3.16,3.16,0,0,0,.67-2Z" transform="translate(-0.35 0.5)"/><path class="cls-7" d="M231,438.43a9.59,9.59,0,0,1-.44,2.63,9.79,9.79,0,0,1-1.15,2.42,8.33,8.33,0,0,1-1.79,1.91,6.17,6.17,0,0,1-2.37,1.12,4.46,4.46,0,0,1-2.21,0,2.55,2.55,0,0,1-1.57-1.11h-.05l0,1.64c-1.42.32-2.14.47-3.56.77.18-7.59.12-11.23-.25-18.26l3.85-.86c.16,2.89.24,4.33.41,7.22h0a6.82,6.82,0,0,1,1.33-1.39,5.55,5.55,0,0,1,2.16-1,5.15,5.15,0,0,1,2.33-.07,4,4,0,0,1,1.81.89,3.64,3.64,0,0,1,1.19,1.69A7.24,7.24,0,0,1,231,438.43Zm-3.71.93a3.88,3.88,0,0,0-.14-1.14,2.31,2.31,0,0,0-.5-.9,2.12,2.12,0,0,0-.86-.51,2.5,2.5,0,0,0-1.21,0,3.21,3.21,0,0,0-1.17.54,4.22,4.22,0,0,0-.9.94,5.11,5.11,0,0,0-.6,1.16,4.23,4.23,0,0,0-.23,1.23,3.25,3.25,0,0,0,.17,1.14,2.65,2.65,0,0,0,.54.91,2,2,0,0,0,.87.52,2.2,2.2,0,0,0,1.17,0,3.36,3.36,0,0,0,1.21-.56,4.33,4.33,0,0,0,1.44-2.12A4.67,4.67,0,0,0,227.31,439.36Z" transform="translate(-0.35 0.5)"/><path class="cls-7" d="M233.32,444.15a167.12,167.12,0,0,0-.29-18.33c1.56-.41,2.34-.63,3.9-1.06a167.21,167.21,0,0,1,.29,18.33C235.67,443.53,234.89,443.74,233.32,444.15Z" transform="translate(-0.35 0.5)"/><path class="cls-7" d="M251.8,432.65v.5c0,.17,0,.33,0,.49-3.31,1.05-5,1.57-8.32,2.55a1.83,1.83,0,0,0,.27.88,1.62,1.62,0,0,0,.6.56,2.1,2.1,0,0,0,.85.23,2.78,2.78,0,0,0,1-.12,4.08,4.08,0,0,0,1.54-.83,5,5,0,0,0,1-1.26l2.58,1a8.88,8.88,0,0,1-5.28,4.3,6.45,6.45,0,0,1-2.44.31,4,4,0,0,1-2-.7,3.83,3.83,0,0,1-1.31-1.69,6.42,6.42,0,0,1-.42-2.69,9,9,0,0,1,.57-2.94,8.7,8.7,0,0,1,1.23-2.35,8.18,8.18,0,0,1,1.89-1.82,8.51,8.51,0,0,1,2.43-1.16,6,6,0,0,1,2.36-.28,3.72,3.72,0,0,1,1.88.69,3.24,3.24,0,0,1,1.26,1.63A7.42,7.42,0,0,1,251.8,432.65Zm-3.43-.5a1.75,1.75,0,0,0-.53-1.5,1.84,1.84,0,0,0-1.73-.15,3.66,3.66,0,0,0-1.78,1.2,4.3,4.3,0,0,0-.57.92,3.14,3.14,0,0,0-.25,1C245.46,433,246.43,432.75,248.37,432.15Z" transform="translate(-0.35 0.5)"/><path class="cls-7" d="M258.24,427.28c.07,1.78-.05,2.82-.08,4.71a1.77,1.77,0,0,0,.28,1.2c.2.22.56.24,1.09.05a4.06,4.06,0,0,0,.58-.25,2.33,2.33,0,0,0,.52-.33v2.94a8,8,0,0,1-1,.6,7.35,7.35,0,0,1-1.19.53,5,5,0,0,1-1.91.36,2,2,0,0,1-1.23-.47,2.38,2.38,0,0,1-.64-1.17,6.62,6.62,0,0,1-.17-1.75c.05-2.1.19-3.27.1-5.24l-1.82.59-.14-2.84,1.81-.58-.15-3.05,3.7-1.2c.05,1.22.07,1.83.12,3.05l2.66-.88.1,2.85Z" transform="translate(-0.35 0.5)"/><path class="cls-7" d="M269.14,424.14a2.45,2.45,0,0,0-1-.39,2.58,2.58,0,0,0-1.27.14,3.11,3.11,0,0,0-.95.54,1.14,1.14,0,0,0-.43.89.49.49,0,0,0,.48.56,8.3,8.3,0,0,0,1.54-.07,6.61,6.61,0,0,1,1.26,0,3,3,0,0,1,1.14.27,2,2,0,0,1,.82.74,2.5,2.5,0,0,1,.31,1.35,4.9,4.9,0,0,1-.42,2,6.57,6.57,0,0,1-1.12,1.68,7.6,7.6,0,0,1-1.54,1.28,8.69,8.69,0,0,1-1.72.87,7.82,7.82,0,0,1-2.7.54,3.63,3.63,0,0,1-2.19-.6l2.11-3.12a2.54,2.54,0,0,0,1.21.54,3,3,0,0,0,1.53-.18,2.74,2.74,0,0,0,.89-.56,1.24,1.24,0,0,0,.44-1A.55.55,0,0,0,267,429a7.74,7.74,0,0,0-1.68,0,5.65,5.65,0,0,1-1.16,0,2.33,2.33,0,0,1-1-.29,1.81,1.81,0,0,1-.74-.76,2.72,2.72,0,0,1-.27-1.37,4.76,4.76,0,0,1,.39-2,5.83,5.83,0,0,1,1.08-1.58A7.19,7.19,0,0,1,265,422a8.7,8.7,0,0,1,1.63-.79,7.82,7.82,0,0,1,2.46-.45,3.5,3.5,0,0,1,2,.52C270.34,422.39,270,423,269.14,424.14Z" transform="translate(-0.35 0.5)"/><path class="cls-6" d="M58.28,263a3.6,3.6,0,0,1-.39,1.63,3.33,3.33,0,0,1-1,1.17,3.4,3.4,0,0,1-1.45.62,4.31,4.31,0,0,1-1.75,0,5.58,5.58,0,0,1-3.21-2,5.12,5.12,0,0,1-1.29-3.33,3.63,3.63,0,0,1,.34-1.59,2.88,2.88,0,0,1,1-1.16,4.13,4.13,0,0,1,1.47-.62,4.06,4.06,0,0,1,1.8,0,5.74,5.74,0,0,1,1.78.7A5.86,5.86,0,0,1,57,259.67a5.4,5.4,0,0,1,1,1.56A4.57,4.57,0,0,1,58.28,263Zm-8.53,29.8c0-9.58,0-14.36,0-23.94,3.11.69,4.67,1,7.8,1.66-.17,9.56-.19,14.34-.19,23.91C54.31,293.81,52.79,293.49,49.75,292.81Z" transform="translate(-0.35 0.5)"/><path class="cls-6" d="M89.93,287.78a14,14,0,0,1-.77,4.7,10.42,10.42,0,0,1-2.23,3.75,9,9,0,0,1-3.58,2.31,9.69,9.69,0,0,1-4.79.34,11.79,11.79,0,0,1-4.51-1.69,9.4,9.4,0,0,1-3.25-3.36h-.1v3.12c-2.86-.5-4.29-.75-7.13-1.29-.11-12.1.3-24.19.63-36.28,3.18.59,4.77.87,7.94,1.41l-.52,14.91.09,0a8.62,8.62,0,0,1,2.9-1.74,8.86,8.86,0,0,1,4.5-.3,11.91,11.91,0,0,1,4.64,1.7,12.52,12.52,0,0,1,3.45,3.23,14.16,14.16,0,0,1,2.1,4.31A17,17,0,0,1,89.93,287.78Zm-7.59-1a8.72,8.72,0,0,0-.3-2.31,6.36,6.36,0,0,0-1-2.1,6.7,6.7,0,0,0-1.72-1.63,6.07,6.07,0,0,0-2.42-.91,5,5,0,0,0-2.41.15A4.87,4.87,0,0,0,72.65,281,5.6,5.6,0,0,0,71,285a7.14,7.14,0,0,0,.4,2.33,7.78,7.78,0,0,0,1.14,2.15,7.16,7.16,0,0,0,1.78,1.69,5.87,5.87,0,0,0,2.39.91,4.85,4.85,0,0,0,2.43-.15,4.4,4.4,0,0,0,1.77-1.12A4.94,4.94,0,0,0,82,289,7,7,0,0,0,82.34,286.74Z" transform="translate(-0.35 0.5)"/><path class="cls-6" d="M110.85,302.09v-3.31h-.09a6.13,6.13,0,0,1-1.14,1.43,6.66,6.66,0,0,1-1.66,1.1,9.3,9.3,0,0,1-2.09.66,8.29,8.29,0,0,1-2.4.1,9.45,9.45,0,0,1-4.09-1.3,9.18,9.18,0,0,1-2.71-2.54,9.75,9.75,0,0,1-1.5-3.29,14.45,14.45,0,0,1-.46-3.63c0-5.91.2-8.86.43-14.77,3.18.38,4.77.56,8,.89-.19,5.18-.39,7.77-.39,12.95a13.38,13.38,0,0,0,.14,1.93,5.43,5.43,0,0,0,.56,1.69,3.53,3.53,0,0,0,1.09,1.24,3.75,3.75,0,0,0,1.8.58,3.3,3.3,0,0,0,3.18-1.24,5.58,5.58,0,0,0,1.09-3.5c0-5.16.18-7.74.34-12.9,3.16.28,4.75.4,7.91.64-.23,9.56-.27,14.34-.27,23.9C115.46,302.48,113.93,302.36,110.85,302.09Z" transform="translate(-0.35 0.5)"/><path class="cls-6" d="M151.68,292.14a14.7,14.7,0,0,1-.77,4.79,12.16,12.16,0,0,1-2.25,4,10.6,10.6,0,0,1-3.61,2.72,10.43,10.43,0,0,1-4.86.9,10.24,10.24,0,0,1-4.22-1.06,8,8,0,0,1-3.12-2.56h-.09v14.17c-3.2-.16-4.79-.25-8-.45,0-11.81-.11-23.63.22-35.43,3,.18,4.52.27,7.53.42,0,1.17,0,1.75,0,2.93h.14a9.62,9.62,0,0,1,3.1-2.38,9.42,9.42,0,0,1,4.62-.9,11.29,11.29,0,0,1,4.72,1.16,11,11,0,0,1,3.58,2.83,13,13,0,0,1,2.26,4.06A14.8,14.8,0,0,1,151.68,292.14ZM144,292a7.61,7.61,0,0,0-.35-2.26,5.9,5.9,0,0,0-1.06-2,5.56,5.56,0,0,0-4.22-2.05,5.33,5.33,0,0,0-2.43.43,5.62,5.62,0,0,0-1.83,1.31,6.27,6.27,0,0,0-1.63,4.15,6.47,6.47,0,0,0,.42,2.28,6.65,6.65,0,0,0,1.16,2,6.44,6.44,0,0,0,1.83,1.48,5.6,5.6,0,0,0,2.43.63,5.44,5.44,0,0,0,2.48-.44,5,5,0,0,0,1.77-1.33,6.1,6.1,0,0,0,1.07-2A7.44,7.44,0,0,0,144,292Z" transform="translate(-0.35 0.5)"/><path class="cls-6" d="M172.2,286.76a5.53,5.53,0,0,0-1-.17c-.34,0-.67,0-1,0a5.78,5.78,0,0,0-2.67.61,5.43,5.43,0,0,0-1.73,1.4,5.18,5.18,0,0,0-.94,1.78,6,6,0,0,0-.29,1.68v12.27c-3.15,0-4.73,0-7.89,0V280.36c3.05,0,4.56,0,7.6,0v3.46h.1a7.8,7.8,0,0,1,2.6-3,6.76,6.76,0,0,1,3.9-1.21c.32,0,.63,0,.94,0a3.4,3.4,0,0,1,.75.13Z" transform="translate(-0.35 0.5)"/><path class="cls-6" d="M200.26,290.85a13.51,13.51,0,0,1-1.11,5.33,13.35,13.35,0,0,1-2.92,4.21,14.28,14.28,0,0,1-4.24,2.84,14.49,14.49,0,0,1-5.13,1.21,13.81,13.81,0,0,1-5.11-.68,12.1,12.1,0,0,1-4.21-2.41,11.55,11.55,0,0,1-2.85-4,13.76,13.76,0,0,1,0-10.59,12.11,12.11,0,0,1,2.87-4.06,13.22,13.22,0,0,1,4.26-2.63,16.09,16.09,0,0,1,5.15-1.07,15.28,15.28,0,0,1,5.16.59,12.06,12.06,0,0,1,4.24,2.24,10.46,10.46,0,0,1,2.86,3.77A12.16,12.16,0,0,1,200.26,290.85Zm-7.61.52a6.52,6.52,0,0,0-.37-2.23,5.56,5.56,0,0,0-1.09-1.88,5.25,5.25,0,0,0-1.78-1.27,5.34,5.34,0,0,0-2.46-.41,5.66,5.66,0,0,0-2.46.63,5.84,5.84,0,0,0-1.76,1.44,6.06,6.06,0,0,0-1.07,2,7.21,7.21,0,0,0,0,4.5,5.82,5.82,0,0,0,1.08,1.95,5,5,0,0,0,1.77,1.34,5.29,5.29,0,0,0,2.45.41,5.63,5.63,0,0,0,2.45-.66,5.78,5.78,0,0,0,1.79-1.5,6.63,6.63,0,0,0,1.09-2.05A7.34,7.34,0,0,0,192.65,291.37Z" transform="translate(-0.35 0.5)"/><path class="cls-6" d="M220.46,270.37a6.92,6.92,0,0,0-1-.11,8.85,8.85,0,0,0-1.15.05,4,4,0,0,0-1.8.6,3.41,3.41,0,0,0-1.08,1.16,4.86,4.86,0,0,0-.56,1.52,10.5,10.5,0,0,0-.17,1.65l0,2.4c2.15-.24,3.22-.37,5.36-.65l-.1,5.85c-2.14.28-3.21.41-5.35.65-.11,7.22-.17,10.74-.28,17.84-3.15.38-4.72.56-7.86.87.09-7.13.14-10.67.23-17.88-1.76.16-2.64.24-4.39.38,0-2.34,0-3.51.06-5.86,1.76-.14,2.64-.22,4.4-.38,0-.92,0-1.38,0-2.3a18.53,18.53,0,0,1,.54-4.25,10.19,10.19,0,0,1,1.72-3.66,9.82,9.82,0,0,1,3.24-2.73,14.08,14.08,0,0,1,5-1.45,17.23,17.23,0,0,1,2-.13,11.24,11.24,0,0,1,1.81.13C220.84,266.59,220.71,267.85,220.46,270.37Z" transform="translate(-0.35 0.5)"/><path class="cls-6" d="M246.52,284.58c0,.32,0,.63,0,.94a6.62,6.62,0,0,1-.06.91c-6.94,1.5-10.41,2.15-17.35,3.25a3.47,3.47,0,0,0,.56,1.69,4,4,0,0,0,1.27,1.18,5,5,0,0,0,1.76.61,6.09,6.09,0,0,0,2,0,7.85,7.85,0,0,0,3.18-1.27,8.37,8.37,0,0,0,2.16-2.16c2.16.92,3.24,1.38,5.41,2.27a15.28,15.28,0,0,1-4.53,4.6,17,17,0,0,1-6.44,2.49,14.2,14.2,0,0,1-5.07.05,9.9,9.9,0,0,1-4.16-1.74,8.74,8.74,0,0,1-2.76-3.47,11.7,11.7,0,0,1-.93-5.14,14.65,14.65,0,0,1,1.1-5.42,15.1,15.1,0,0,1,2.82-4.42,16,16,0,0,1,4.15-3.19,16.63,16.63,0,0,1,5.12-1.77,12.68,12.68,0,0,1,4.84,0,8,8,0,0,1,3.74,1.8,8.85,8.85,0,0,1,2.39,3.56A14.06,14.06,0,0,1,246.52,284.58Zm-7.19-1.51a3.47,3.47,0,0,0-4.62-3.69,7,7,0,0,0-2.12.73,7.28,7.28,0,0,0-1.71,1.26A6.49,6.49,0,0,0,229.7,283a5.06,5.06,0,0,0-.52,1.83C233.24,284.21,235.27,283.85,239.33,283.07Z" transform="translate(-0.35 0.5)"/><path class="cls-6" d="M267,290.89c.05-5.18.07-7.73.11-12.95a9.21,9.21,0,0,0-.15-1.87,4.06,4.06,0,0,0-.53-1.45,1.9,1.9,0,0,0-1.07-.79,3.19,3.19,0,0,0-1.73.1,5.1,5.1,0,0,0-1.85.92,5.7,5.7,0,0,0-1.32,1.49,7,7,0,0,0-.82,1.87,8.2,8.2,0,0,0-.29,2c-.07,5.18-.1,7.67-.18,12.78-3.18.81-4.78,1.19-8,1.92.17-9.38.26-14.1.43-23.65,3-.73,4.55-1.11,7.58-1.92l-.05,3.32.1,0a11.19,11.19,0,0,1,1.14-1.81,10.22,10.22,0,0,1,1.64-1.72,15,15,0,0,1,2-1.44,10.27,10.27,0,0,1,2.33-1,8.36,8.36,0,0,1,4-.37,5,5,0,0,1,2.66,1.37,6,6,0,0,1,1.47,2.67,12.68,12.68,0,0,1,.45,3.4v14.81C271.8,289.52,270.2,290,267,290.89Z" transform="translate(-0.35 0.5)"/><path class="cls-8" d="M313.7,537.19c0,5.2,9.18,9.41,20.51,9.41s20.51-4.21,20.51-9.41V524.67h-41Z" transform="translate(-0.35 0.5)"/><ellipse class="cls-8" cx="333.86" cy="525.46" rx="20.51" ry="8.2"/><path class="cls-8" d="M284.14,554.85c0,5.19,9.18,9.4,20.51,9.4s20.52-4.21,20.52-9.4V542.33h-41Z" transform="translate(-0.35 0.5)"/><ellipse class="cls-8" cx="304.3" cy="543.11" rx="20.51" ry="8.2"/><path class="cls-8" d="M318.72,564c0,5.19,9.18,9.4,20.51,9.4s20.51-4.21,20.51-9.4V551.44h-41Z" transform="translate(-0.35 0.5)"/><ellipse class="cls-8" cx="338.88" cy="552.22" rx="20.51" ry="8.2"/><path class="cls-8" d="M355.94,537.19c0,5.2,9.18,9.41,20.51,9.41S397,542.39,397,537.19V524.67h-41Z" transform="translate(-0.35 0.5)"/><ellipse class="cls-8" cx="376.1" cy="525.46" rx="20.51" ry="8.2"/><path class="cls-8" d="M394.13,550.67c0,5.19,9.18,9.4,20.51,9.4s20.51-4.21,20.51-9.4V538.15h-41Z" transform="translate(-0.35 0.5)"/><ellipse class="cls-8" cx="414.29" cy="538.93" rx="20.51" ry="8.2"/><path class="cls-8" d="M361,564c0,5.19,9.19,9.4,20.52,9.4S402,569.15,402,564V551.44H361Z" transform="translate(-0.35 0.5)"/><ellipse class="cls-8" cx="381.11" cy="552.22" rx="20.51" ry="8.2"/><path class="cls-8" d="M335.16,539.8c0,5.19,9.18,9.4,20.51,9.4s20.52-4.21,20.52-9.4V527.28h-41Z" transform="translate(-0.35 0.5)"/><ellipse class="cls-8" cx="355.32" cy="528.06" rx="20.51" ry="8.2"/><path class="cls-8" d="M279.4,580.69c0,5.19,9.19,9.4,20.52,9.4s20.51-4.21,20.51-9.4V568.17h-41Z" transform="translate(-0.35 0.5)"/><ellipse class="cls-8" cx="299.56" cy="568.95" rx="20.51" ry="8.2"/><path class="cls-8" d="M249.85,598.34c0,5.2,9.18,9.41,20.51,9.41s20.51-4.21,20.51-9.41V585.82h-41Z" transform="translate(-0.35 0.5)"/><ellipse class="cls-8" cx="270.01" cy="586.61" rx="20.51" ry="8.2"/><path class="cls-8" d="M404.58,513.87c0,5.19,9.19,9.4,20.52,9.4s20.51-4.21,20.51-9.4V501.35h-41Z" transform="translate(-0.35 0.5)"/><ellipse class="cls-8" cx="424.74" cy="502.13" rx="20.51" ry="8.2"/><path class="cls-8" d="M422.15,589.14c0,5.2,9.18,9.41,20.51,9.41s20.51-4.21,20.51-9.41V576.62h-41Z" transform="translate(-0.35 0.5)"/><ellipse class="cls-8" cx="442.31" cy="577.41" rx="20.51" ry="8.2"/><path class="cls-8" d="M284.42,607.45c0,5.2,9.19,9.4,20.52,9.4s20.51-4.2,20.51-9.4V594.93h-41Z" transform="translate(-0.35 0.5)"/><ellipse class="cls-8" cx="304.58" cy="595.72" rx="20.51" ry="8.2"/><path class="cls-8" d="M321.64,580.69c0,5.19,9.19,9.4,20.52,9.4s20.51-4.21,20.51-9.4V568.17h-41Z" transform="translate(-0.35 0.5)"/><ellipse class="cls-8" cx="341.8" cy="568.95" rx="20.51" ry="8.2"/><path class="cls-8" d="M359.83,594.16c0,5.19,9.19,9.4,20.52,9.4s20.51-4.21,20.51-9.4V581.64h-41Z" transform="translate(-0.35 0.5)"/><ellipse class="cls-8" cx="379.99" cy="582.43" rx="20.51" ry="8.2"/><path class="cls-8" d="M382.42,635.15c0,5.19,9.18,9.4,20.51,9.4s20.51-4.21,20.51-9.4V622.63h-41Z" transform="translate(-0.35 0.5)"/><ellipse class="cls-8" cx="402.58" cy="623.41" rx="20.51" ry="8.2"/><path class="cls-8" d="M326.66,607.45c0,5.2,9.19,9.4,20.51,9.4s20.52-4.2,20.52-9.4V594.93h-41Z" transform="translate(-0.35 0.5)"/><ellipse class="cls-8" cx="346.82" cy="595.72" rx="20.51" ry="8.2"/><path class="cls-8" d="M345.9,643c0,5.19,9.18,9.4,20.51,9.4s20.52-4.21,20.52-9.4V630.48h-41Z" transform="translate(-0.35 0.5)"/><ellipse class="cls-8" cx="366.06" cy="631.26" rx="20.51" ry="8.2"/><path class="cls-8" d="M300.87,583.29c0,5.19,9.18,9.4,20.51,9.4s20.51-4.21,20.51-9.4V570.77h-41Z" transform="translate(-0.35 0.5)"/><ellipse class="cls-8" cx="321.03" cy="571.55" rx="20.51" ry="8.2"/><path class="cls-8" d="M348.54,570.74c0,5.2,9.19,9.4,20.52,9.4s20.51-4.2,20.51-9.4V558.22h-41Z" transform="translate(-0.35 0.5)"/><ellipse class="cls-8" cx="368.7" cy="559.01" rx="20.51" ry="8.2"/></svg>