<svg id="Layer_1" data-name="Layer 1" xmlns="http://www.w3.org/2000/svg" viewBox="0 0 618.74 167.26"><defs><style>.cls-1,.cls-10,.cls-11,.cls-13,.cls-8,.cls-9{fill:#fff;}.cls-1,.cls-10,.cls-11,.cls-12,.cls-13,.cls-2,.cls-3,.cls-4,.cls-5,.cls-6,.cls-9{stroke:#000;}.cls-1,.cls-10,.cls-12,.cls-13,.cls-2,.cls-3,.cls-4,.cls-5,.cls-6{stroke-linecap:round;}.cls-1,.cls-12,.cls-2,.cls-3,.cls-4,.cls-5,.cls-6{stroke-linejoin:round;}.cls-1,.cls-10,.cls-2,.cls-5,.cls-6,.cls-9{stroke-width:5px;}.cls-2,.cls-3{fill:#b5b5b5;}.cls-11,.cls-12,.cls-13,.cls-3,.cls-4{stroke-width:4px;}.cls-4,.cls-6{fill:none;}.cls-5{fill:#4f4f4f;}.cls-7{fill:#1c64ba;}.cls-10,.cls-11,.cls-13,.cls-9{stroke-miterlimit:10;}.cls-12{fill:#d6d6d6;}</style></defs><title>Lidocaine</title><polygon class="cls-1" points="503.47 2.5 616.24 91.53 584.16 91.91 154.75 133.07 145.92 32.17 481.94 6.81 503.47 2.5"/><ellipse class="cls-2" cx="150.33" cy="82.62" rx="26.57" ry="50.71" transform="translate(-8.84 18.67) rotate(-6.9)"/><path class="cls-2" d="M140.09,56l-33.38,2.88,4.66,53.25,33.38-2.88c7.78,0,13.05-11.92,11.77-26.63S147.88,56,140.09,56Z"/><path class="cls-3" d="M139.94,109.58c10.14,6.68,9.69-19.91,6.92-31.41-3-12.25-13.35-29-21.76-21"/><path class="cls-3" d="M129.3,110.57c10.14,6.68,9.7-19.91,6.93-31.41-2.95-12.25-13.35-29-21.76-21"/><path class="cls-4" d="M119.41,60.61c5.44,4.46,10.14,14.92,11.46,23,1.09,6.68,2,23.25-2.8,26.88"/><path class="cls-4" d="M131,60.61c5.44,4.46,10.14,14.92,11.46,23,1.09,6.68,2,23.25-2.8,26.88"/><ellipse class="cls-2" cx="109.04" cy="85.51" rx="14.02" ry="26.77" transform="translate(-9.49 13.73) rotate(-6.9)"/><ellipse class="cls-5" cx="108.3" cy="85.51" rx="7.04" ry="15.39" transform="translate(-8.76 12.45) rotate(-6.33)"/><path class="cls-6" d="M490.11,12.06c6.59.66,18.13,7.26,22.09,13.85S547.15,45.69,560,67.79s17.81,19.45,17.81,19.45"/><path class="cls-7" d="M180.36,43l4.31-.41,10.59,21.3,13-1.24,1.59,3.2-17.34,1.65Z"/><path class="cls-7" d="M207.34,50.49l-2.84.27-1.18-3.19,6.75-.64,9,18-4.31.41Zm-5.5-10.31,4.7-.45,1.7,3.43-4.7.44Z"/><path class="cls-7" d="M224.65,62.65a14.78,14.78,0,0,1-5.59-6.54,12.46,12.46,0,0,1-1.54-5.51A5,5,0,0,1,219,46.89a6.59,6.59,0,0,1,4-1.59,12.07,12.07,0,0,1,3.19.09,13.85,13.85,0,0,1,3.15.94L225,37.54l4.3-.41,12.75,25.64-3.68.35-1.16-1.76a4.94,4.94,0,0,1-2,1.92,8.83,8.83,0,0,1-3.26.85A12.19,12.19,0,0,1,224.65,62.65Zm10.8-4.11-4.49-9a9.37,9.37,0,0,0-5.45-1.15c-1.82.17-2.9.88-3.24,2.14s0,3,1.16,5.23A10.16,10.16,0,0,0,226.86,60a7.51,7.51,0,0,0,4.71.87A4.39,4.39,0,0,0,235.45,58.54Z"/><path class="cls-7" d="M241.17,53.41q-4.68-9.39,5.08-10.32t14.46,8.46q4.67,9.41-5.12,10.33T241.17,53.41Zm16.2,3.2c.38-1,0-2.54-1-4.64a10.84,10.84,0,0,0-3.48-4.38,7.45,7.45,0,0,0-4.88-1c-1.95.18-3.11.77-3.49,1.76s0,2.53,1,4.61A11,11,0,0,0,249,57.41a7.4,7.4,0,0,0,4.85,1C255.82,58.19,257,57.6,257.37,56.61Z"/><path class="cls-7" d="M268.73,58.12a15.51,15.51,0,0,1-6-6.76c-1.53-3.09-1.79-5.52-.76-7.28s3.13-2.79,6.32-3.09a18.08,18.08,0,0,1,3.35,0,16.9,16.9,0,0,1,3,.59l1.53,3.08a13.86,13.86,0,0,0-5.46-.51q-3.36.31-4.32,1.92t.69,4.92a10.47,10.47,0,0,0,3.92,4.6,11,11,0,0,0,10.4-.51L283,58.2a13,13,0,0,1-5.57,1.61A14.16,14.16,0,0,1,268.73,58.12Z"/><path class="cls-7" d="M286.67,57.43a8.24,8.24,0,0,1-3.93-3.91c-.89-1.77-1-3.24-.22-4.38s2.36-1.84,4.86-2.08l6-.57-.39-.8a6.84,6.84,0,0,0-1.45-2,4.14,4.14,0,0,0-2.06-.94,12.37,12.37,0,0,0-3.33,0,15.74,15.74,0,0,0-5.72,1.54l-1.53-3.08a12.56,12.56,0,0,1,2.76-1.1,20.29,20.29,0,0,1,3.68-.67,13.05,13.05,0,0,1,7.11,1,10.38,10.38,0,0,1,4.68,5L302.9,57l-3.67.35L298,55.53A4.46,4.46,0,0,1,296,57.46a11.15,11.15,0,0,1-3.87.95A10.15,10.15,0,0,1,286.67,57.43Zm8.13-3a3.64,3.64,0,0,0,1.55-1.95l-1.57-3.15-5.92.56a3.17,3.17,0,0,0-2.4,1c-.34.51-.26,1.26.23,2.25a3.81,3.81,0,0,0,1.94,1.9,6.44,6.44,0,0,0,3.15.36A6.86,6.86,0,0,0,294.8,54.41Z"/><path class="cls-7" d="M303.13,41.38l-2.85.27-1.17-3.19,6.75-.64,9,18-4.3.41Zm-5.5-10.31,4.69-.45L304,34.05l-4.7.44Z"/><path class="cls-7" d="M310.87,37.34l3.95-.38L316,38.85a6.83,6.83,0,0,1,2.29-2,8.92,8.92,0,0,1,3.48-1,9.77,9.77,0,0,1,6.1,1.13A11.44,11.44,0,0,1,332,42l5.8,11.68-4.26.4-5.71-11.49a5.18,5.18,0,0,0-6.1-3.36,5.79,5.79,0,0,0-2.58.84,4.3,4.3,0,0,0-1.61,1.71L324.14,55l-4.3.41Z"/><path class="cls-7" d="M343.53,51.05a15.21,15.21,0,0,1-6.16-6.83c-1.48-3-1.84-5.34-1.1-7.13S338.9,34.27,342,34a12.15,12.15,0,0,1,7.39,1.49,12.5,12.5,0,0,1,5,5.38L356,44.2l-13.7,1.3A8,8,0,0,0,346,48.92a12.23,12.23,0,0,0,5.59.52,14.29,14.29,0,0,0,2.77-.54,11.55,11.55,0,0,0,2.29-.94l1.51,3a13.08,13.08,0,0,1-5.87,1.67A15,15,0,0,1,343.53,51.05Zm7.34-9.19-.62-1.25a6.36,6.36,0,0,0-2.57-2.85,6.89,6.89,0,0,0-4.06-.67c-1.94.19-3.1.72-3.48,1.61S340,41,341,42.8Z"/><path class="cls-7" d="M379.53,46.69A20.46,20.46,0,0,1,371.78,38c-2.06-4.13-2.59-7.44-1.62-9.91s3.59-3.9,7.83-4.31a27,27,0,0,1,8,.47l1.8,3.62a23.72,23.72,0,0,0-7.77-.58q-4.62.43-5.46,3t1.52,7.31a15.06,15.06,0,0,0,5.41,6.34,12.08,12.08,0,0,0,7.67,1.58,16.27,16.27,0,0,0,6.52-1.86l1.81,3.65A21.12,21.12,0,0,1,390.58,49,17.66,17.66,0,0,1,379.53,46.69Z"/><path class="cls-7" d="M392.09,29.61l4-.37,1.28,2.07a10.77,10.77,0,0,1,2.44-1.83,13.52,13.52,0,0,1,3.2-1.3l1.57,3.16a20.81,20.81,0,0,0-3.21,1.28,8.68,8.68,0,0,0-2.43,1.61l6.47,13-4.31.41Z"/><path class="cls-7" d="M415.23,44.23a15.21,15.21,0,0,1-6.16-6.83c-1.48-3-1.84-5.34-1.1-7.12s2.63-2.83,5.69-3.12a12.15,12.15,0,0,1,7.39,1.49A12.5,12.5,0,0,1,426,34l1.67,3.35L414,38.68a8.07,8.07,0,0,0,3.72,3.42,12.1,12.1,0,0,0,5.59.52,14.29,14.29,0,0,0,2.77-.54,11.55,11.55,0,0,0,2.29-.94l1.51,3A13.08,13.08,0,0,1,424,45.86,15,15,0,0,1,415.23,44.23ZM422.57,35,422,33.79a6.36,6.36,0,0,0-2.57-2.85,6.89,6.89,0,0,0-4.06-.67c-1.94.19-3.1.72-3.48,1.61s-.1,2.25.82,4.1Z"/><path class="cls-7" d="M436.15,43.21a8.24,8.24,0,0,1-3.93-3.91c-.88-1.77-1-3.23-.22-4.38s2.36-1.84,4.86-2.07l6-.58-.4-.79a6.6,6.6,0,0,0-1.45-2A4.14,4.14,0,0,0,439,28.5a12.3,12.3,0,0,0-3.32,0A15.79,15.79,0,0,0,429.91,30l-1.53-3.08a13.08,13.08,0,0,1,2.76-1.1,20.46,20.46,0,0,1,3.68-.67,13.14,13.14,0,0,1,7.11,1,10.43,10.43,0,0,1,4.68,5l5.77,11.6-3.67.35-1.18-1.8a4.56,4.56,0,0,1-2.06,1.93,11.15,11.15,0,0,1-3.88.95A10.15,10.15,0,0,1,436.15,43.21Zm8.13-3a3.72,3.72,0,0,0,1.56-1.94l-1.57-3.16-5.93.56a3.17,3.17,0,0,0-2.4,1c-.34.51-.26,1.26.23,2.25a3.78,3.78,0,0,0,1.94,1.9,6.44,6.44,0,0,0,3.15.36A6.69,6.69,0,0,0,444.28,40.19Z"/><path class="cls-7" d="M448.19,24.28l3.95-.38,1.15,1.89a7.16,7.16,0,0,1,5.45-2.91,8.11,8.11,0,0,1,3.38.29,7.39,7.39,0,0,1,2.65,1.6,7.1,7.1,0,0,1,2.28-2,9.25,9.25,0,0,1,3.62-1,8.73,8.73,0,0,1,5.57,1.15,11.26,11.26,0,0,1,4,4.76l5.92,11.9-4.23.4L476.2,28.47a6.46,6.46,0,0,0-2.35-2.83,5.64,5.64,0,0,0-3.39-.57,5.73,5.73,0,0,0-2.34.7,3,3,0,0,0-1.37,1.56,10.33,10.33,0,0,1,1.12,1.85l5.75,11.56-4,.38-5.7-11.45a7.49,7.49,0,0,0-2.18-2.86,4.62,4.62,0,0,0-3.1-.62,4.68,4.68,0,0,0-3.8,2.59l6.52,13.13-4.22.4Z"/><path class="cls-7" d="M191.46,75.2s6.78,14.42,6.88,21.67c29.64-2.37,311-30.31,311-30.31S502.3,53.79,494.3,47C478.48,47.84,191.46,75.2,191.46,75.2Z"/><path class="cls-8" d="M223.83,77.65l-4.6.44-.77-1.76,11.61-1.13.77,1.76-4.58.45L231.35,89l-2.44.24Z"/><path class="cls-8" d="M232.7,83.74q-2.25-5.11,3.26-5.66a7.06,7.06,0,0,1,7.79,4.58c1.49,3.41.4,5.3-3.3,5.66A7,7,0,0,1,232.7,83.74Zm9,1.69a3.34,3.34,0,0,0-.38-2.53,5.31,5.31,0,0,0-1.78-2.38,4.07,4.07,0,0,0-2.7-.51c-1.1.11-1.78.43-2,1a3.29,3.29,0,0,0,.37,2.52,5.3,5.3,0,0,0,1.79,2.39,4,4,0,0,0,2.68.52C240.73,86.3,241.42,86,241.67,85.43Z"/><path class="cls-8" d="M244,77.52l2.1-.21.56,1a3.31,3.31,0,0,1,1.19-1,5,5,0,0,1,1.86-.48,6.43,6.43,0,0,1,4.11.83,7.57,7.57,0,0,1,2.88,3.65c.77,1.74.91,3.09.44,4.07a3.42,3.42,0,0,1-3,1.69,7.71,7.71,0,0,1-3.64-.51l2.23,5.1-2.43.23Zm10.67,6.71a3.87,3.87,0,0,0-.43-2.78A5.28,5.28,0,0,0,252.42,79a4,4,0,0,0-2.64-.51,2.68,2.68,0,0,0-2.27,1.3l2.15,4.91a5.32,5.32,0,0,0,3,.61C253.74,85.25,254.39,84.88,254.63,84.23Z"/><path class="cls-8" d="M259.31,77.81,257.7,78l-.53-1.74,3.82-.37,4.31,9.82-2.44.23Zm-2.67-5.61,2.65-.26.82,1.86-2.66.26Z"/><path class="cls-8" d="M268.63,84.21a7.66,7.66,0,0,1-3.1-3.68c-.74-1.68-.78-3-.14-4s1.88-1.53,3.68-1.71a10,10,0,0,1,1.88,0,9.12,9.12,0,0,1,1.66.31l.74,1.68a7.82,7.82,0,0,0-3.05-.26,3.3,3.3,0,0,0-2.5,1.06c-.4.59-.34,1.48.19,2.68a5.13,5.13,0,0,0,2,2.51,5.27,5.27,0,0,0,3.22.53,6,6,0,0,0,2.63-.84l.76,1.72a8.21,8.21,0,0,1-3.2.89A7.86,7.86,0,0,1,268.63,84.21Z"/><path class="cls-8" d="M278.73,83.77a4.12,4.12,0,0,1-2.05-2.12,2.29,2.29,0,0,1,.06-2.39,3.83,3.83,0,0,1,2.81-1.15l3.39-.33-.19-.44a3.14,3.14,0,0,0-.73-1.1,2.05,2.05,0,0,0-1.11-.51,6.74,6.74,0,0,0-1.87,0,9.69,9.69,0,0,0-3.28.86L275,74.9a8,8,0,0,1,1.6-.61,12.37,12.37,0,0,1,2.09-.38,7.29,7.29,0,0,1,4,.55,5.08,5.08,0,0,1,2.43,2.7l2.78,6.32-2.08.2-.59-1A2.78,2.78,0,0,1,284,83.76a6.81,6.81,0,0,1-2.21.53A5.65,5.65,0,0,1,278.73,83.77Zm4.69-1.68a2.25,2.25,0,0,0,.95-1.06l-.75-1.72-3.35.33a2,2,0,0,0-1.39.52,1.2,1.2,0,0,0,0,1.23,1.89,1.89,0,0,0,1,1,3.56,3.56,0,0,0,1.76.19A4,4,0,0,0,283.42,82.09Z"/><path class="cls-8" d="M291,82.75a3.81,3.81,0,0,1-1.5-1.88l-5.1-11.62,2.43-.24,5,11.42a1.67,1.67,0,0,0,.56.75,1.18,1.18,0,0,0,.77.15,3.54,3.54,0,0,0,1-.22l.72,1.64a4.5,4.5,0,0,1-1.61.41A3.62,3.62,0,0,1,291,82.75Z"/><path class="cls-8" d="M304.29,68l2.72-.27,11.3,12.81-2.5.25-2.93-3.3-5.79.56.09,3.58-2.53.25Zm7.42,7.79-5.18-5.87.18,6.36Z"/><path class="cls-8" d="M316.39,70.45l2.24-.22.56,1a4.17,4.17,0,0,1,1.37-1.07,6.19,6.19,0,0,1,5.38,0,5.69,5.69,0,0,1,2.15,2.69l2.79,6.36-2.41.23-2.74-6.25a3.18,3.18,0,0,0-1.22-1.55,3.54,3.54,0,0,0-2.07-.27,3.44,3.44,0,0,0-1.48.47,2.61,2.61,0,0,0-1,.94L323.14,80l-2.44.24Z"/><path class="cls-8" d="M334.18,77.83a7.54,7.54,0,0,1-3.19-3.7c-.7-1.62-.82-2.92-.33-3.89s1.6-1.55,3.32-1.72a6.69,6.69,0,0,1,4.1.79,6.18,6.18,0,0,1,2.58,2.92l.8,1.82-7.74.76a4,4,0,0,0,1.95,1.85,6.74,6.74,0,0,0,3.12.27,7.75,7.75,0,0,0,1.58-.31,7.59,7.59,0,0,0,1.32-.51l.73,1.65a8,8,0,0,1-3.37.94A8.22,8.22,0,0,1,334.18,77.83Zm4.49-5-.3-.68A3.1,3.1,0,0,0,337,70.56a3.81,3.81,0,0,0-2.25-.35c-1.1.11-1.77.41-2,.89a2.77,2.77,0,0,0,.29,2.24Z"/><path class="cls-8" d="M347.07,77.77a9.88,9.88,0,0,1-1.81-.2l-.83-1.9a11.41,11.41,0,0,0,1.82.25,11.17,11.17,0,0,0,1.84,0,4.69,4.69,0,0,0,1.72-.38c.28-.17.33-.46.15-.86a1.34,1.34,0,0,0-.81-.75,12.86,12.86,0,0,0-2-.46l-.76-.14a10.2,10.2,0,0,1-2.83-.88A3.47,3.47,0,0,1,342,70.68a1.93,1.93,0,0,1,.15-2.21,4.84,4.84,0,0,1,3-1,11.44,11.44,0,0,1,1.76,0,9.8,9.8,0,0,1,1.57.17l.83,1.88a9.84,9.84,0,0,0-1.5-.22,10.33,10.33,0,0,0-1.48,0,5,5,0,0,0-1.7.38.54.54,0,0,0-.23.79,1.23,1.23,0,0,0,.74.67,13.35,13.35,0,0,0,1.94.45l.55.09a16.07,16.07,0,0,1,2.35.56,4.12,4.12,0,0,1,1.44.84,4,4,0,0,1,.95,1.38q1.26,2.88-3.18,3.32A15.3,15.3,0,0,1,347.07,77.77Z"/><path class="cls-8" d="M357.2,76.07a4.67,4.67,0,0,1-1.86-2.22l-2.26-5.14-1.56.15-.77-1.76,1.56-.15-1-2.26,2.11-.92,1.29,2.94,2.81-.27.62,1.77-2.66.26,2.2,5a2.28,2.28,0,0,0,.94,1.15,2.67,2.67,0,0,0,1.54.2,3.65,3.65,0,0,0,1.19-.33l.7,1.6a5.33,5.33,0,0,1-2,.54A4.59,4.59,0,0,1,357.2,76.07Z"/><path class="cls-8" d="M357.93,62.08l2.43-.24,2.23,5.1a3.64,3.64,0,0,1,1.32-1,5.91,5.91,0,0,1,2-.52,5.38,5.38,0,0,1,3.36.61,5.54,5.54,0,0,1,2.18,2.68l2.79,6.36-2.41.23L369.08,69a3.19,3.19,0,0,0-1.23-1.55,3.5,3.5,0,0,0-2-.28,3.75,3.75,0,0,0-1.49.49,2.57,2.57,0,0,0-1,1l3.14,7.14-2.44.24Z"/><path class="cls-8" d="M377.53,73.6a7.54,7.54,0,0,1-3.19-3.7c-.7-1.62-.82-2.92-.33-3.89s1.6-1.55,3.32-1.72a6.69,6.69,0,0,1,4.1.79A6.18,6.18,0,0,1,384,68l.8,1.83-7.74.75A4,4,0,0,0,379,72.43a6.74,6.74,0,0,0,3.12.27,8.08,8.08,0,0,0,2.9-.82l.72,1.65a7.89,7.89,0,0,1-3.36.94A8.22,8.22,0,0,1,377.53,73.6Zm4.49-5-.3-.68a3.13,3.13,0,0,0-1.33-1.54,3.73,3.73,0,0,0-2.25-.36c-1.1.11-1.77.41-2,.89a2.82,2.82,0,0,0,.3,2.24Z"/><path class="cls-8" d="M390.19,72.85a4.79,4.79,0,0,1-1.86-2.22l-2.25-5.14-1.57.15-.77-1.76,1.56-.15-1-2.26,2.11-.92,1.29,2.94,2.82-.27.61,1.77-2.65.26,2.2,5a2.27,2.27,0,0,0,.93,1.15,2.7,2.7,0,0,0,1.55.2,3.43,3.43,0,0,0,1.18-.33l.7,1.6a4.93,4.93,0,0,1-2,.54A4.56,4.56,0,0,1,390.19,72.85Z"/><path class="cls-8" d="M395.1,64.57l-1.61.15L393,63l3.82-.37,4.31,9.82-2.44.24ZM392.42,59l2.66-.26.82,1.87-2.66.25Z"/><path class="cls-8" d="M404.42,71a7.63,7.63,0,0,1-3.1-3.67c-.74-1.69-.79-3-.14-4s1.87-1.53,3.68-1.71a10,10,0,0,1,1.88,0,8.51,8.51,0,0,1,1.66.32l.74,1.67a7.82,7.82,0,0,0-3.05-.26,3.28,3.28,0,0,0-2.5,1.06c-.41.59-.34,1.48.18,2.69a5.26,5.26,0,0,0,2,2.5,5.32,5.32,0,0,0,3.23.53,6,6,0,0,0,2.63-.84L412.4,71a7.94,7.94,0,0,1-3.19.89A7.78,7.78,0,0,1,404.42,71Z"/><path class="cls-8" d="M423.9,68.57a10.06,10.06,0,0,1-4-4.72q-1.48-3.37-.51-5.4T424,56.07a15.14,15.14,0,0,1,4.5.23l.86,2A13.31,13.31,0,0,0,425,58q-2.61.26-3.18,1.65c-.39.93-.2,2.26.56,4a7.31,7.31,0,0,0,2.78,3.45,6.63,6.63,0,0,0,4.24.84,10,10,0,0,0,3.74-1l.87,2a12.77,12.77,0,0,1-4,1A9.7,9.7,0,0,1,423.9,68.57Z"/><path class="cls-8" d="M431.64,59.21l2.24-.22.63,1.13a6.48,6.48,0,0,1,1.44-1,7.89,7.89,0,0,1,1.85-.72l.76,1.72a13.2,13.2,0,0,0-1.86.71,5.39,5.39,0,0,0-1.42.88l3.11,7.09L436,69Z"/><path class="cls-8" d="M444.05,67.11a7.47,7.47,0,0,1-3.18-3.7c-.71-1.62-.82-2.92-.34-3.89s1.6-1.55,3.32-1.72a6.68,6.68,0,0,1,4.1.79,6.13,6.13,0,0,1,2.58,2.92l.8,1.83-7.74.75a4,4,0,0,0,2,1.85,6.74,6.74,0,0,0,3.12.27,7.75,7.75,0,0,0,1.58-.31,7.59,7.59,0,0,0,1.32-.51l.73,1.65a8,8,0,0,1-3.37.94A8.22,8.22,0,0,1,444.05,67.11Zm4.49-5-.3-.68a3.18,3.18,0,0,0-1.32-1.55,3.84,3.84,0,0,0-2.25-.35c-1.11.11-1.78.41-2,.89a2.77,2.77,0,0,0,.29,2.24Z"/><path class="cls-8" d="M455.84,66.49a4.08,4.08,0,0,1-2-2.12,2.27,2.27,0,0,1,0-2.39,3.86,3.86,0,0,1,2.82-1.15l3.39-.33-.19-.44a3.29,3.29,0,0,0-.73-1.1,2.08,2.08,0,0,0-1.12-.51,7.13,7.13,0,0,0-1.87,0,9.57,9.57,0,0,0-3.27.86l-.74-1.68a8.15,8.15,0,0,1,1.59-.61,12.68,12.68,0,0,1,2.1-.38,7.32,7.32,0,0,1,3.95.55,5.08,5.08,0,0,1,2.43,2.7L465,66.2l-2.07.2-.6-1a2.81,2.81,0,0,1-1.23,1.06,6.81,6.81,0,0,1-2.21.53A5.65,5.65,0,0,1,455.84,66.49Zm4.69-1.68a2.2,2.2,0,0,0,1-1.06L460.72,62l-3.35.33a1.94,1.94,0,0,0-1.38.52,1.2,1.2,0,0,0,0,1.23,1.83,1.83,0,0,0,1,1,3.55,3.55,0,0,0,1.76.19A4.1,4.1,0,0,0,460.53,64.81Z"/><path class="cls-8" d="M463.36,56.11l2.24-.22.56,1a4.48,4.48,0,0,1,3.18-1.61,4.72,4.72,0,0,1,1.89.15,3.77,3.77,0,0,1,1.42.87A4.32,4.32,0,0,1,474,55.21a5.66,5.66,0,0,1,2.07-.56,4.86,4.86,0,0,1,3.08.61,5.55,5.55,0,0,1,2,2.59l2.85,6.48-2.39.24-2.75-6.26a3.09,3.09,0,0,0-1.2-1.53,3.13,3.13,0,0,0-1.88-.31,3.55,3.55,0,0,0-1.35.39,1.91,1.91,0,0,0-.83.86,5.13,5.13,0,0,1,.56,1L477,65l-2.25.22L472,59a3.69,3.69,0,0,0-1.11-1.56,2.54,2.54,0,0,0-1.72-.33,2.88,2.88,0,0,0-2.23,1.43l3.13,7.15-2.39.23Z"/><path class="cls-9" d="M79.09,164.76A14.87,14.87,0,0,1,75,135.59a30.68,30.68,0,0,0,.88-7.14,175.79,175.79,0,0,0-.74-18.5c-1-13.52,4.63-25.16,15.9-32.78a45.79,45.79,0,0,1,16-6.8s7.12,1.37,8.11,14.23c.84,11-2.54,15-2.54,15l.2,0a16.8,16.8,0,0,0-5.57,2.55c-2.06,1.53-2.68,3-2.48,5.62.86,11.47,1.45,21.69,0,30.73-1.06,6.42-3.07,11.58-6.16,15.78A25.74,25.74,0,0,1,81.28,164.6,14.77,14.77,0,0,1,79.09,164.76Z"/><path class="cls-6" d="M107,70.19c3.9,0,7.67,6.86,8.41,15.32s-1.83,15.32-5.73,15.32"/><path class="cls-10" d="M75,135.59s15-1.53,15.47,9.35"/><path class="cls-11" d="M67.45,111.44c0,4.65-13.13,8.42-29.33,8.42s-29.33-3.77-29.33-8.42L2.24,52.73l71.49.68Z"/><ellipse class="cls-11" cx="38.12" cy="53.41" rx="35.61" ry="10.22"/><ellipse class="cls-12" cx="38.12" cy="53.41" rx="26.82" ry="5.93"/><line class="cls-13" x1="38.12" y1="67.59" x2="38.12" y2="116.06"/><line class="cls-13" x1="49" y1="67.59" x2="47.35" y2="116.06"/><line class="cls-13" x1="60.21" y1="65.94" x2="55.93" y2="114.41"/><line class="cls-13" x1="27.57" y1="67.59" x2="29.22" y2="116.06"/><line class="cls-13" x1="16.36" y1="65.94" x2="20.64" y2="114.41"/></svg>