<svg xmlns="http://www.w3.org/2000/svg" viewBox="0 0 388 184"><defs><style>.a{fill:#ffd297;}.b{fill:#ffb845;}.c{fill:#f48914;}</style></defs><title>Scene10</title><path class="a" d="M29.514,82q-7.35-5.749-7.35-17.55a44.6,44.6,0,0,1,1.1-9.8q2.6-12,7.75-19.3a30,30,0,0,1,13.2-10.65q8.049-3.349,19.85-3.35,13.1,0,20.4,5.85t7.3,17.65a45.54,45.54,0,0,1-1.1,9.8q-2.6,11.9-7.65,19.15a29.414,29.414,0,0,1-13.15,10.6q-8.1,3.353-20,3.351Q36.864,87.748,29.514,82Zm33.95-15.951q3.5-3.5,5.2-11.4a34.551,34.551,0,0,0,.9-7q0-4.3-2.2-6.149t-7.2-1.851q-6.4,0-9.85,3.4t-5.15,11.6a31.843,31.843,0,0,0-.9,6.8q0,4.3,2.25,6.2t7.25,1.9Q59.963,69.547,63.464,66.047Z"/><path class="a" d="M105.523,22.348h33.5q9.9,0,15.2,5.25t5.3,13.65a27.174,27.174,0,0,1-.6,5.5q-2.2,11.5-9.6,17.85t-19.8,6.35h-12.8l-3.3,15.8h-21.5Zm22.6,31.9q4,0,6.05-1.9a10.406,10.406,0,0,0,2.85-5.6,14.323,14.323,0,0,0,.3-2.8q0-4.9-5.6-4.9h-8.2l-3.2,15.2Z"/><path class="a" d="M170.293,22.348h21.5l-13.6,64.4h-21.5Z"/><path class="a" d="M198.933,82q-7.35-5.749-7.35-17.55a44.6,44.6,0,0,1,1.1-9.8q2.6-12,7.75-19.3a30,30,0,0,1,13.2-10.65q8.049-3.349,19.85-3.35,13.1,0,20.4,5.85t7.3,17.65a45.54,45.54,0,0,1-1.1,9.8q-2.6,11.9-7.65,19.15a29.414,29.414,0,0,1-13.15,10.6q-8.1,3.353-20,3.351Q206.283,87.748,198.933,82Zm33.95-15.951q3.5-3.5,5.2-11.4a34.551,34.551,0,0,0,.9-7q0-4.3-2.2-6.149t-7.2-1.851q-6.4,0-9.85,3.4t-5.15,11.6a31.843,31.843,0,0,0-.9,6.8q0,4.3,2.25,6.2t7.25,1.9Q229.383,69.547,232.883,66.047Z"/><path class="a" d="M274.942,22.348h21.5l-13.6,64.4h-21.5Z"/><path class="a" d="M307.392,22.348h29.7q12.2,0,19.25,6.1t7.05,17.8a46.469,46.469,0,0,1-.9,8.7q-3.2,16.6-12.551,24.2t-25.449,7.6h-30.7Zm16.9,48a20.837,20.837,0,0,0,7.9-1.25,10.945,10.945,0,0,0,5.051-4.551,30.237,30.237,0,0,0,3.35-9.6,37.544,37.544,0,0,0,.9-7.2q0-4.7-2.551-6.5t-8.049-1.8h-5.6l-6.6,30.9Z"/><path class="a" d="M22.214,111.348h29.7q12.2,0,19.25,6.1t7.05,17.8a46.469,46.469,0,0,1-.9,8.7q-3.2,16.6-12.55,24.2t-25.45,7.6H8.614Zm16.9,48a20.842,20.842,0,0,0,7.9-1.25,10.943,10.943,0,0,0,5.05-4.551,30.213,30.213,0,0,0,3.35-9.6,37.463,37.463,0,0,0,.9-7.2q0-4.7-2.55-6.5t-8.05-1.8h-5.6l-6.6,30.9Z"/><path class="a" d="M92.1,111.348h34.8q9.1,0,14.2,4.85t5.1,12.949a29.176,29.176,0,0,1-.6,5.7,25.494,25.494,0,0,1-5.4,11.449,29.232,29.232,0,0,1-10.3,7.85,8.669,8.669,0,0,1,2.3,4.4l3.9,17.2H113.7l-3.5-14.9a3.474,3.474,0,0,0-1.051-2.1,3.746,3.746,0,0,0-2.349-.6h-3.1l-3.7,17.6H78.5Zm23,30.2q3.9,0,5.9-1.65a8.517,8.517,0,0,0,2.7-5.049,13.976,13.976,0,0,0,.3-2.7,3.735,3.735,0,0,0-1.25-3.1,6.932,6.932,0,0,0-4.25-1h-8.4l-2.9,13.5Z"/><path class="a" d="M161.182,173.948a21.229,21.229,0,0,1-9.1-7.85,21.464,21.464,0,0,1-3.2-11.75,33.982,33.982,0,0,1,.7-6.1l7.8-36.9h21.5l-7.8,36.8a24.567,24.567,0,0,0-.5,4.2q0,3.3,1.9,4.75t6.2,1.449q5.2,0,8-2.4t4-8l7.8-36.8h21.5l-8.3,39.3q-2.7,12.7-12.3,19.4t-24.6,6.7A31.4,31.4,0,0,1,161.182,173.948Z"/><path class="a" d="M226.922,170.4q-8.05-6.348-8.049-18.25a42.539,42.539,0,0,1,.9-8.3q3.5-16.4,14.851-24.951t30.149-8.549q11.6,0,19.7,2.9l-3.9,18.3q-7-3-18.2-3-8.8,0-13.9,3.6t-6.8,11.7a34.613,34.613,0,0,0-.8,6.5q0,4.6,2.75,6.4t9.25,1.8a27.64,27.64,0,0,0,7.8-1l1.4-6.6h-11.7l2.8-13.1h29.6l-7,32.8a41.624,41.624,0,0,1-11.45,4.451,64.4,64.4,0,0,1-15.25,1.65Q234.972,176.748,226.922,170.4Z"/><path class="a" d="M292.892,175.647a34.466,34.466,0,0,1-9.65-3.1l3.6-16.8a47.527,47.527,0,0,0,9.65,3.6,39.421,39.421,0,0,0,9.95,1.4,19.009,19.009,0,0,0,6.45-.851,3.824,3.824,0,0,0,2.65-2.949,2.591,2.591,0,0,0-1.25-2.95,36.388,36.388,0,0,0-6.55-2.75q-1.3-.4-3.5-1.2-6.7-2.5-10-6.049a12.766,12.766,0,0,1-3.3-9.05,20.58,20.58,0,0,1,.6-4.8q2.2-10.3,9.8-15.049t22-4.75a75.932,75.932,0,0,1,20,3l-3.6,16.9a40.818,40.818,0,0,0-16.3-3.7,26.635,26.635,0,0,0-7.3.8q-2.7.8-2.7,3.2,0,1.4,1.8,2.2a80.337,80.337,0,0,0,8,2.6q8.1,2.4,11.55,6.449a14.538,14.538,0,0,1,3.45,9.75,24.39,24.39,0,0,1-.6,5.3,22.431,22.431,0,0,1-10.05,14.65q-8.05,5.25-22.25,5.25A67.359,67.359,0,0,1,292.892,175.647Z"/><path class="b" d="M35.514,76q-7.35-5.749-7.35-17.55a44.6,44.6,0,0,1,1.1-9.8q2.6-12,7.75-19.3a30,30,0,0,1,13.2-10.65q8.049-3.35,19.85-3.35,13.1,0,20.4,5.85t7.3,17.65a45.54,45.54,0,0,1-1.1,9.8q-2.6,11.9-7.65,19.15a29.414,29.414,0,0,1-13.15,10.6q-8.1,3.353-20,3.351Q42.864,81.748,35.514,76Zm33.95-15.951q3.5-3.5,5.2-11.4a34.551,34.551,0,0,0,.9-7q0-4.3-2.2-6.149t-7.2-1.851q-6.4,0-9.85,3.4t-5.15,11.6a31.843,31.843,0,0,0-.9,6.8q0,4.3,2.25,6.2t7.25,1.9Q65.964,63.547,69.464,60.047Z"/><path class="b" d="M111.523,16.348h33.5q9.9,0,15.2,5.25t5.3,13.65a27.174,27.174,0,0,1-.6,5.5q-2.2,11.5-9.6,17.85t-19.8,6.35h-12.8l-3.3,15.8h-21.5Zm22.6,31.9q4,0,6.05-1.9a10.406,10.406,0,0,0,2.85-5.6,14.323,14.323,0,0,0,.3-2.8q0-4.9-5.6-4.9h-8.2l-3.2,15.2Z"/><path class="b" d="M176.293,16.348h21.5l-13.6,64.4h-21.5Z"/><path class="b" d="M204.933,76q-7.35-5.749-7.35-17.55a44.6,44.6,0,0,1,1.1-9.8q2.6-12,7.75-19.3a30,30,0,0,1,13.2-10.65q8.049-3.35,19.85-3.35,13.1,0,20.4,5.85t7.3,17.65a45.54,45.54,0,0,1-1.1,9.8q-2.6,11.9-7.65,19.15a29.414,29.414,0,0,1-13.15,10.6q-8.1,3.353-20,3.351Q212.283,81.748,204.933,76Zm33.95-15.951q3.5-3.5,5.2-11.4a34.551,34.551,0,0,0,.9-7q0-4.3-2.2-6.149t-7.2-1.851q-6.4,0-9.85,3.4t-5.15,11.6a31.843,31.843,0,0,0-.9,6.8q0,4.3,2.25,6.2t7.25,1.9Q235.383,63.547,238.883,60.047Z"/><path class="b" d="M280.942,16.348h21.5l-13.6,64.4h-21.5Z"/><path class="b" d="M313.392,16.348h29.7q12.2,0,19.25,6.1t7.05,17.8a46.469,46.469,0,0,1-.9,8.7q-3.2,16.6-12.551,24.2t-25.449,7.6h-30.7Zm16.9,48a20.837,20.837,0,0,0,7.9-1.25,10.945,10.945,0,0,0,5.051-4.551,30.237,30.237,0,0,0,3.35-9.6,37.544,37.544,0,0,0,.9-7.2q0-4.7-2.551-6.5t-8.049-1.8h-5.6l-6.6,30.9Z"/><path class="b" d="M28.214,105.348h29.7q12.2,0,19.25,6.1t7.05,17.8a46.469,46.469,0,0,1-.9,8.7q-3.2,16.6-12.55,24.2t-25.45,7.6h-30.7Zm16.9,48a20.842,20.842,0,0,0,7.9-1.25,10.943,10.943,0,0,0,5.05-4.551,30.213,30.213,0,0,0,3.35-9.6,37.463,37.463,0,0,0,.9-7.2q0-4.7-2.55-6.5t-8.05-1.8h-5.6l-6.6,30.9Z"/><path class="b" d="M98.1,105.348h34.8q9.1,0,14.2,4.85t5.1,12.949a29.176,29.176,0,0,1-.6,5.7,25.494,25.494,0,0,1-5.4,11.449,29.232,29.232,0,0,1-10.3,7.85,8.669,8.669,0,0,1,2.3,4.4l3.9,17.2H119.7l-3.5-14.9a3.474,3.474,0,0,0-1.051-2.1,3.746,3.746,0,0,0-2.349-.6h-3.1l-3.7,17.6H84.5Zm23,30.2q3.9,0,5.9-1.65a8.517,8.517,0,0,0,2.7-5.049,13.976,13.976,0,0,0,.3-2.7,3.735,3.735,0,0,0-1.25-3.1,6.932,6.932,0,0,0-4.25-1h-8.4l-2.9,13.5Z"/><path class="b" d="M167.182,167.948a21.229,21.229,0,0,1-9.1-7.85,21.464,21.464,0,0,1-3.2-11.75,33.982,33.982,0,0,1,.7-6.1l7.8-36.9h21.5l-7.8,36.8a24.567,24.567,0,0,0-.5,4.2q0,3.3,1.9,4.75t6.2,1.449q5.2,0,8-2.4t4-8l7.8-36.8h21.5l-8.3,39.3q-2.7,12.7-12.3,19.4t-24.6,6.7A31.4,31.4,0,0,1,167.182,167.948Z"/><path class="b" d="M232.922,164.4q-8.05-6.348-8.049-18.25a42.539,42.539,0,0,1,.9-8.3q3.5-16.4,14.851-24.951t30.149-8.549q11.6,0,19.7,2.9l-3.9,18.3q-7-3-18.2-3-8.8,0-13.9,3.6t-6.8,11.7a34.613,34.613,0,0,0-.8,6.5q0,4.6,2.75,6.4t9.25,1.8a27.64,27.64,0,0,0,7.8-1l1.4-6.6h-11.7l2.8-13.1h29.6l-7,32.8a41.624,41.624,0,0,1-11.45,4.451,64.4,64.4,0,0,1-15.25,1.65Q240.972,170.748,232.922,164.4Z"/><path class="b" d="M298.892,169.647a34.466,34.466,0,0,1-9.65-3.1l3.6-16.8a47.527,47.527,0,0,0,9.65,3.6,39.421,39.421,0,0,0,9.95,1.4,19.009,19.009,0,0,0,6.45-.851,3.824,3.824,0,0,0,2.65-2.949,2.591,2.591,0,0,0-1.25-2.95,36.388,36.388,0,0,0-6.55-2.75q-1.3-.4-3.5-1.2-6.7-2.5-10-6.049a12.766,12.766,0,0,1-3.3-9.05,20.58,20.58,0,0,1,.6-4.8q2.2-10.3,9.8-15.049t22-4.75a75.932,75.932,0,0,1,20,3l-3.6,16.9a40.818,40.818,0,0,0-16.3-3.7,26.635,26.635,0,0,0-7.3.8q-2.7.8-2.7,3.2,0,1.4,1.8,2.2a80.337,80.337,0,0,0,8,2.6q8.1,2.4,11.55,6.449a14.538,14.538,0,0,1,3.45,9.75,24.39,24.39,0,0,1-.6,5.3,22.431,22.431,0,0,1-10.05,14.65q-8.05,5.25-22.25,5.25A67.359,67.359,0,0,1,298.892,169.647Z"/><path class="c" d="M41.514,70q-7.35-5.749-7.35-17.55a44.6,44.6,0,0,1,1.1-9.8q2.6-12,7.75-19.3a30,30,0,0,1,13.2-10.65q8.049-3.35,19.85-3.35,13.1,0,20.4,5.85t7.3,17.65a45.54,45.54,0,0,1-1.1,9.8q-2.6,11.9-7.65,19.15a29.414,29.414,0,0,1-13.15,10.6q-8.1,3.353-20,3.351Q48.864,75.748,41.514,70Zm33.95-15.951q3.5-3.5,5.2-11.4a34.551,34.551,0,0,0,.9-7q0-4.3-2.2-6.149t-7.2-1.851q-6.4,0-9.85,3.4t-5.15,11.6a31.843,31.843,0,0,0-.9,6.8q0,4.3,2.25,6.2t7.25,1.9Q71.964,57.547,75.464,54.047Z"/><path class="c" d="M117.523,10.348h33.5q9.9,0,15.2,5.25t5.3,13.65a27.174,27.174,0,0,1-.6,5.5q-2.2,11.5-9.6,17.85t-19.8,6.35h-12.8l-3.3,15.8h-21.5Zm22.6,31.9q4,0,6.05-1.9a10.406,10.406,0,0,0,2.85-5.6,14.323,14.323,0,0,0,.3-2.8q0-4.9-5.6-4.9h-8.2l-3.2,15.2Z"/><path class="c" d="M182.293,10.348h21.5l-13.6,64.4h-21.5Z"/><path class="c" d="M210.933,70q-7.35-5.749-7.35-17.55a44.6,44.6,0,0,1,1.1-9.8q2.6-12,7.75-19.3a30,30,0,0,1,13.2-10.65q8.049-3.35,19.85-3.35,13.1,0,20.4,5.85t7.3,17.65a45.54,45.54,0,0,1-1.1,9.8q-2.6,11.9-7.65,19.15a29.414,29.414,0,0,1-13.15,10.6q-8.1,3.353-20,3.351Q218.283,75.748,210.933,70Zm33.95-15.951q3.5-3.5,5.2-11.4a34.551,34.551,0,0,0,.9-7q0-4.3-2.2-6.149t-7.2-1.851q-6.4,0-9.85,3.4t-5.15,11.6a31.843,31.843,0,0,0-.9,6.8q0,4.3,2.25,6.2t7.25,1.9Q241.383,57.547,244.883,54.047Z"/><path class="c" d="M286.942,10.348h21.5l-13.6,64.4h-21.5Z"/><path class="c" d="M319.392,10.348h29.7q12.2,0,19.25,6.1t7.05,17.8a46.469,46.469,0,0,1-.9,8.7q-3.2,16.6-12.551,24.2t-25.449,7.6h-30.7Zm16.9,48a20.837,20.837,0,0,0,7.9-1.25,10.945,10.945,0,0,0,5.051-4.551,30.237,30.237,0,0,0,3.35-9.6,37.544,37.544,0,0,0,.9-7.2q0-4.7-2.551-6.5t-8.049-1.8h-5.6l-6.6,30.9Z"/><path class="c" d="M34.214,99.348h29.7q12.2,0,19.25,6.1t7.05,17.8a46.469,46.469,0,0,1-.9,8.7q-3.2,16.6-12.55,24.2t-25.45,7.6h-30.7Zm16.9,48a20.842,20.842,0,0,0,7.9-1.25,10.943,10.943,0,0,0,5.05-4.551,30.213,30.213,0,0,0,3.35-9.6,37.463,37.463,0,0,0,.9-7.2q0-4.7-2.55-6.5t-8.05-1.8h-5.6l-6.6,30.9Z"/><path class="c" d="M104.1,99.348h34.8q9.1,0,14.2,4.85t5.1,12.949a29.176,29.176,0,0,1-.6,5.7,25.494,25.494,0,0,1-5.4,11.449,29.232,29.232,0,0,1-10.3,7.85,8.669,8.669,0,0,1,2.3,4.4l3.9,17.2H125.7l-3.5-14.9a3.474,3.474,0,0,0-1.051-2.1,3.746,3.746,0,0,0-2.349-.6h-3.1l-3.7,17.6H90.5Zm23,30.2q3.9,0,5.9-1.65a8.517,8.517,0,0,0,2.7-5.049,13.976,13.976,0,0,0,.3-2.7,3.735,3.735,0,0,0-1.25-3.1,6.932,6.932,0,0,0-4.25-1h-8.4l-2.9,13.5Z"/><path class="c" d="M173.182,161.948a21.229,21.229,0,0,1-9.1-7.85,21.464,21.464,0,0,1-3.2-11.75,33.982,33.982,0,0,1,.7-6.1l7.8-36.9h21.5l-7.8,36.8a24.567,24.567,0,0,0-.5,4.2q0,3.3,1.9,4.75t6.2,1.449q5.2,0,8-2.4t4-8l7.8-36.8h21.5l-8.3,39.3q-2.7,12.7-12.3,19.4t-24.6,6.7A31.4,31.4,0,0,1,173.182,161.948Z"/><path class="c" d="M238.922,158.4q-8.05-6.348-8.049-18.25a42.539,42.539,0,0,1,.9-8.3q3.5-16.4,14.851-24.951t30.149-8.549q11.6,0,19.7,2.9l-3.9,18.3q-7-3-18.2-3-8.8,0-13.9,3.6t-6.8,11.7a34.613,34.613,0,0,0-.8,6.5q0,4.6,2.75,6.4t9.25,1.8a27.64,27.64,0,0,0,7.8-1l1.4-6.6h-11.7l2.8-13.1h29.6l-7,32.8a41.624,41.624,0,0,1-11.45,4.451,64.4,64.4,0,0,1-15.25,1.65Q246.972,164.748,238.922,158.4Z"/><path class="c" d="M304.892,163.647a34.466,34.466,0,0,1-9.65-3.1l3.6-16.8a47.527,47.527,0,0,0,9.65,3.6,39.421,39.421,0,0,0,9.95,1.4,19.009,19.009,0,0,0,6.45-.851,3.824,3.824,0,0,0,2.65-2.949,2.591,2.591,0,0,0-1.25-2.95,36.388,36.388,0,0,0-6.55-2.75q-1.3-.4-3.5-1.2-6.7-2.5-10-6.049a12.766,12.766,0,0,1-3.3-9.05,20.58,20.58,0,0,1,.6-4.8q2.2-10.3,9.8-15.049t22-4.75a75.932,75.932,0,0,1,20,3l-3.6,16.9a40.818,40.818,0,0,0-16.3-3.7,26.635,26.635,0,0,0-7.3.8q-2.7.8-2.7,3.2,0,1.4,1.8,2.2a80.337,80.337,0,0,0,8,2.6q8.1,2.4,11.55,6.449a14.538,14.538,0,0,1,3.45,9.75,24.39,24.39,0,0,1-.6,5.3,22.431,22.431,0,0,1-10.05,14.65q-8.05,5.25-22.25,5.25A67.359,67.359,0,0,1,304.892,163.647Z"/></svg>