<?xml version="1.0" encoding="utf-8"?>
<!-- Generator: Adobe Illustrator 19.1.0, SVG Export Plug-In . SVG Version: 6.00 Build 0)  -->
<svg version="1.1" xmlns="http://www.w3.org/2000/svg" xmlns:xlink="http://www.w3.org/1999/xlink" x="0px" y="0px"
	 viewBox="0 0 920 501.8" enable-background="new 0 0 920 501.8" xml:space="preserve">
<filter  height="170%" width="170%" y="-20%" id="ds1" x="-30%">
	<feOffset  dy="1" dx="0" result="offOut" in="SourceAlpha"></feOffset>
	<feGaussianBlur  stdDeviation="2" result="blurOut" in="offOut"></feGaussianBlur>
	<feComponentTransfer>
		<feFuncA  type="linear" slope="0.5"></feFuncA>
	</feComponentTransfer>
	<feMerge>
		<feMergeNode></feMergeNode>
		<feMergeNode  in="SourceGraphic"></feMergeNode>
	</feMerge>
</filter>
<g id="Layer_1">
	<radialGradient id="SVGID_1_" cx="174.9715" cy="-508.1882" r="1097.9312" gradientUnits="userSpaceOnUse">
		<stop  offset="0" style="stop-color:#009EFF"/>
		<stop  offset="5.034792e-02" style="stop-color:#009CF6"/>
		<stop  offset="0.3648" style="stop-color:#008FC3"/>
		<stop  offset="0.6392" style="stop-color:#00859E"/>
		<stop  offset="0.8602" style="stop-color:#007F87"/>
		<stop  offset="1" style="stop-color:#007D7F"/>
	</radialGradient>
	<rect x="0" y="0" fill="url(#SVGID_1_)" width="920" height="501.8"/>
	<g>
		<g opacity="0.5">
			<path d="M619.5,340.3l-47.1-18.6c-51.7,135-160,120.6-205.9,88.5l-4.7,7.5C445.1,479.5,561.4,467.3,619.5,340.3z"/>
			<polygon points="540.1,335.6 625.4,264.1 629.7,375.3 589.6,344.9 			"/>
		</g>
		<g>
			<g>
				<path fill="#FFFFFF" d="M618,338.8l-47.1-18.6c-51.7,135-160,120.6-205.9,88.5l-4.7,7.5C443.6,478,559.9,465.8,618,338.8z"/>
				<polygon fill="#FFFFFF" points="538.6,334.1 623.9,262.6 628.2,373.8 588.1,343.4 				"/>
			</g>
		</g>
	</g>
	<g>
	</g>
	<g>
		<g filter="url(#ds1)">
			<circle fill="#73CBCC" cx="675.7" cy="157.2" r="100.3"/>
		</g>
		<g filter="url(#ds1)">
			<circle fill="#595959" cx="644.7" cy="123.4" r="44.1"/>
		</g>
		<g filter="url(#ds1)">
			<circle fill="#FFFFFF" cx="707.9" cy="195.9" r="44.1"/>
		</g>
		<text transform="matrix(1 0 0 1 672.0173 228.4297)" fill="#595959" font-family="'MyriadPro-Regular'" font-size="120.5589px">+</text>
		<text transform="matrix(1 0 0 1 614.5317 162.6494)" fill="#FFFFFF" font-family="'MyriadPro-Regular'" font-size="120.5589px">–</text>
	</g>
	<g id="New_Symbol">
	</g>
	<g>
		<g filter="url(#ds1)">
			<circle fill="#73CBCC" cx="181.5" cy="456.1" r="18.6"/>
		</g>
		<g filter="url(#ds1)">
			<circle fill="#73CBCC" cx="351.6" cy="408.5" r="18.6"/>
		</g>
		<g filter="url(#ds1)">
			<circle fill="#73CBCC" cx="70.6" cy="369.8" r="18.6"/>
		</g>
		<g filter="url(#ds1)">
			<circle fill="#73CBCC" cx="401.4" cy="277.2" r="18.6"/>
		</g>
		<g filter="url(#ds1)">
			<circle fill="#73CBCC" cx="116.5" cy="50.9" r="18.6"/>
		</g>
		<g filter="url(#ds1)">
			
				<linearGradient id="SVGID_2_" gradientUnits="userSpaceOnUse" x1="181.1776" y1="94.5652" x2="343.6369" y2="375.9529" gradientTransform="matrix(0.963 -0.2695 0.2695 0.963 -117.2068 100.3632)">
				<stop  offset="0" style="stop-color:#DA875F"/>
				<stop  offset="1" style="stop-color:#CB4A4E"/>
			</linearGradient>
			<path fill="url(#SVGID_2_)" d="M348.2,244.2c-4-14.3-14.6-26.1-28.4-31.7c-10.1-4.1-20.8-0.8-29.6-9.1
				c-9.2-8.5-8.9-16.6-20.9-29.7c-8.9-9.7-23.5-11.7-36.4-8.8c-21.6,4.8-22.1,17.3-36.4,11.5c-13.1-5.3-1.3-26.5-5.1-40.1
				c-7.2-25.8-34.3-40.8-60.4-33.5c-26.1,7.3-41.4,34.2-34.2,60c3.1,10.9,9.8,16.8,16.6,25.2c6.6,8.3,5.7,14,4.1,24
				c-1.5,9-0.7,18,0.5,27c2.1,15.9-6.9,23.9-14.9,36.4c-7.4,11.6-9.6,25.9-6,39.1c3.7,13.3,13.3,24.6,25.8,30.6
				c8,3.8,18.1,5.8,24.4,12.3c6.8,7,8.3,18,13.5,26.1c11.4,17.9,34,26.4,54.6,20.7c12.8-3.6,21-16.3,33.5-21
				c14.5-5.4,29.7,3.3,44.9-1c16.7-4.7,30-18.1,34.4-34.8c4.5-17-8.6-35,2.6-50.8C342.8,279.6,354.7,267.2,348.2,244.2z"/>
		</g>
		<g filter="url(#ds1)">
			
				<ellipse transform="matrix(0.963 -0.2695 0.2695 0.963 -80.0401 88.0154)" fill="#595959" cx="280.5" cy="335.5" rx="33" ry="32.7"/>
		</g>
		<g filter="url(#ds1)">
			
				<ellipse transform="matrix(0.963 -0.2695 0.2695 0.963 -58.249 90.624)" fill="#595959" cx="300.9" cy="257.5" rx="33" ry="32.7"/>
		</g>
		<g filter="url(#ds1)">
			
				<ellipse transform="matrix(0.963 -0.2695 0.2695 0.963 -75.8622 50.0199)" fill="#595959" cx="144.3" cy="301.3" rx="33" ry="32.7"/>
		</g>
		<g filter="url(#ds1)">
			
				<ellipse transform="matrix(0.963 -0.2695 0.2695 0.963 -54.0711 52.6285)" fill="#595959" cx="164.6" cy="223.3" rx="33" ry="32.7"/>
		</g>
		<g filter="url(#ds1)">
			
				<ellipse transform="matrix(0.963 -0.2695 0.2695 0.963 -34.9793 44.3468)" fill="#595959" cx="144" cy="149.6" rx="33" ry="32.7"/>
		</g>
		<g filter="url(#ds1)">
			
				<ellipse transform="matrix(0.963 -0.2695 0.2695 0.963 -88.8467 67.7134)" fill="#595959" cx="202.2" cy="357.5" rx="33" ry="32.7"/>
		</g>
		<g filter="url(#ds1)">
			
				<ellipse transform="matrix(0.963 -0.2695 0.2695 0.963 -45.2645 72.9305)" fill="#FEFFEB" cx="243" cy="201.3" rx="22.1" ry="21.8"/>
		</g>
		<g filter="url(#ds1)">
			
				<ellipse transform="matrix(0.963 -0.2695 0.2695 0.963 -18.4885 37.1935)" fill="#FEFFEB" cx="126.2" cy="85.9" rx="22.1" ry="21.8"/>
		</g>
		<g filter="url(#ds1)">
			
				<ellipse transform="matrix(0.963 -0.2695 0.2695 0.963 -59.4304 108.7344)" fill="#FEFFEB" cx="366.3" cy="270.8" rx="22.1" ry="21.8"/>
		</g>
		<g filter="url(#ds1)">
			
				<ellipse transform="matrix(0.963 -0.2695 0.2695 0.963 -91.2632 102.08)" fill="#FEFFEB" cx="326.2" cy="383.4" rx="22.1" ry="21.8"/>
		</g>
		<g filter="url(#ds1)">
			
				<ellipse transform="matrix(0.963 -0.2695 0.2695 0.963 -106.7846 66.2982)" fill="#FEFFEB" cx="188.1" cy="422.1" rx="22.1" ry="21.8"/>
		</g>
		<g filter="url(#ds1)">
			
				<ellipse transform="matrix(0.963 -0.2695 0.2695 0.963 -89.893 38.5082)" fill="#FEFFEB" cx="95.3" cy="346.7" rx="22.1" ry="21.8"/>
		</g>
		<g filter="url(#ds1)">
			<circle fill="#73CBCC" cx="242.6" cy="402.1" r="18.6"/>
		</g>
		<g filter="url(#ds1)">
			<circle fill="#73CBCC" cx="342.6" cy="331.6" r="18.6"/>
		</g>
		<g filter="url(#ds1)">
			<circle fill="#73CBCC" cx="87.9" cy="280.8" r="18.6"/>
		</g>
		<g filter="url(#ds1)">
			<circle fill="#73CBCC" cx="343.1" cy="212.7" r="18.6"/>
		</g>
		<g filter="url(#ds1)">
			<circle fill="#73CBCC" cx="104.7" cy="224" r="18.6"/>
		</g>
		<g filter="url(#ds1)">
			<circle fill="#73CBCC" cx="84.9" cy="166" r="18.6"/>
		</g>
		<g filter="url(#ds1)">
			<circle fill="#73CBCC" cx="204.4" cy="132.6" r="18.6"/>
		</g>
	</g>
	<g>
		<g filter="url(#ds1)">
			<rect x="442.8" y="64.2" fill="#FFFFFF" width="172.7" height="37.8"/>
		</g>
		<path fill="#6D6E70" d="M461.5,88.7h2.1V75.5h-2.1v-1.8h12.3v3.9h-2.1v-2H466v5.4h6v2h-6v5.6h6.1v-2h2.1v4h-12.7V88.7z"/>
		<path fill="#6D6E70" d="M477.1,88.7h2.1V75.6h-2.1v-2h6.6v2h-2.1v13h5.9v-2.7h2.1v4.7h-12.5V88.7z"/>
		<path fill="#6D6E70" d="M492.2,88.7h2.1V75.5h-2.1v-1.8h12.3v3.9h-2.1v-2h-5.7v5.4h6v2h-6v5.6h6.1v-2h2.1v4h-12.7V88.7z"/>
		<path fill="#6D6E70" d="M516.2,73.3c2,0,6.5,0.7,6.5,3.4v2.1h-2.2v-1.3c0-1.5-2.6-2-4.1-2c-3.6,0-6.3,2.7-6.3,6.5
			c0,4,2.7,6.9,6.4,6.9c1.2,0,4.2-0.4,4.2-2v-1.3h2.2v2.1c0,2.5-4.2,3.3-6.6,3.3c-5.1,0-8.8-3.9-8.8-8.9
			C507.6,77,511.3,73.3,516.2,73.3z"/>
		<path fill="#6D6E70" d="M529.4,88.7h2.1V75.6h-4v2.6h-2.1v-4.6H540v4.6h-2.1v-2.6h-4v13.1h2.1v1.9h-6.7V88.7z"/>
		<path fill="#6D6E70" d="M542.6,88.7h2.1V75.5h-2.1v-1.8h7.3c1.2,0,2.2,0,3.1,0.4c1.8,0.6,3,2.1,3,4.4c0,2.4-1.3,4.2-3.5,4.8v0
			c0,0,0.4,0.2,0.7,0.8l2.4,4.2c0.3,0.5,0.6,0.6,1.2,0.6h0.5v1.9h-1.4c-1.4,0-1.8-0.3-2.4-1.3l-2.6-4.6c-0.4-0.7-0.7-0.9-1.8-0.9h-2
			v5h2.1v1.9h-6.6V88.7z M550.5,81.8c1.8,0,3.1-1.2,3.1-3.2c0-1.3-0.5-2.2-1.6-2.7c-0.6-0.2-1.3-0.3-2.1-0.3h-2.8v6.2H550.5z"/>
		<path fill="#6D6E70" d="M568.1,73.3c4.9,0,8.7,3.8,8.7,8.6c0,5-3.8,8.9-8.7,8.9c-4.9,0-8.7-3.9-8.7-8.9
			C559.3,77.1,563.1,73.3,568.1,73.3z M568.1,88.7c3.4,0,6.2-2.9,6.2-6.7c0-3.7-2.8-6.5-6.2-6.5c-3.5,0-6.2,2.8-6.2,6.5
			C561.8,85.8,564.6,88.7,568.1,88.7z"/>
		<path fill="#6D6E70" d="M579.2,88.7h2.1V75.5h-2.1v-1.8h4.5l8.3,12.1c0.3,0.5,0.6,1.2,0.6,1.2h0.1c0,0-0.1-0.8-0.1-1.4V75.5h-2.2
			v-1.8h6.7v1.8h-2.1v15.1h-2.4l-8.3-12.1c-0.3-0.5-0.6-1.2-0.6-1.2h-0.1c0,0,0.1,0.8,0.1,1.4v10.1h2.2v1.9h-6.7V88.7z"/>
	</g>
	<g>
		<g filter="url(#ds1)">
			<rect x="726.1" y="225.8" fill="#FFFFFF" width="142.2" height="37.8"/>
		</g>
		<path fill="#6D6E70" d="M744,250.3h2.1v-13.2H744v-1.8h7.9c1,0,2.1,0.1,2.9,0.5c1.8,0.7,2.9,2.5,2.9,4.8c0,2.4-1.2,4.3-3.2,5
			c-0.8,0.3-1.6,0.4-2.5,0.4h-3.4v4.5h2.1v1.9H744V250.3z M751.6,243.9c0.8,0,1.4-0.1,1.9-0.3c1.1-0.5,1.7-1.6,1.7-3
			c0-1.4-0.6-2.4-1.5-2.9c-0.5-0.3-1.2-0.4-2.1-0.4h-3.2v6.6H751.6z"/>
		<path fill="#6D6E70" d="M759.9,250.3h2.1v-13.2h-2.1v-1.8h7.3c1.2,0,2.2,0,3.1,0.4c1.8,0.6,3,2.1,3,4.4c0,2.4-1.3,4.2-3.5,4.8v0
			c0,0,0.4,0.2,0.7,0.8l2.4,4.2c0.3,0.5,0.6,0.6,1.2,0.6h0.5v1.9h-1.4c-1.4,0-1.8-0.3-2.4-1.3l-2.6-4.6c-0.4-0.7-0.7-0.9-1.8-0.9h-2
			v5h2.1v1.9h-6.6V250.3z M767.8,243.4c1.8,0,3.1-1.2,3.1-3.2c0-1.3-0.5-2.2-1.6-2.7c-0.6-0.2-1.3-0.3-2.1-0.3h-2.8v6.2H767.8z"/>
		<path fill="#6D6E70" d="M785.3,235c4.9,0,8.7,3.8,8.7,8.6c0,5-3.8,8.9-8.7,8.9c-4.9,0-8.7-3.9-8.7-8.9
			C776.6,238.7,780.4,235,785.3,235z M785.3,250.3c3.4,0,6.2-2.9,6.2-6.7c0-3.7-2.8-6.5-6.2-6.5c-3.5,0-6.2,2.8-6.2,6.5
			C779.1,247.4,781.8,250.3,785.3,250.3z"/>
		<path fill="#6D6E70" d="M800.2,250.3h2.1v-13.1h-4v2.6h-2.1v-4.6h14.5v4.6h-2.1v-2.6h-4v13.1h2.1v1.9h-6.7V250.3z"/>
		<path fill="#6D6E70" d="M821.8,235c4.9,0,8.7,3.8,8.7,8.6c0,5-3.8,8.9-8.7,8.9c-4.9,0-8.7-3.9-8.7-8.9
			C813,238.7,816.8,235,821.8,235z M821.8,250.3c3.4,0,6.2-2.9,6.2-6.7c0-3.7-2.8-6.5-6.2-6.5c-3.5,0-6.2,2.8-6.2,6.5
			C815.5,247.4,818.3,250.3,821.8,250.3z"/>
		<path fill="#6D6E70" d="M832.9,250.3h2.1v-13.2h-2.1v-1.8h4.5l8.3,12.1c0.3,0.5,0.6,1.2,0.6,1.2h0.1c0,0-0.1-0.8-0.1-1.4v-10.2
			H844v-1.8h6.7v1.8h-2.1v15.1h-2.4l-8.3-12.1c-0.3-0.5-0.6-1.2-0.6-1.2h-0.1c0,0,0.1,0.8,0.1,1.4v10.1h2.2v1.9h-6.7V250.3z"/>
	</g>
	<g>
		<g filter="url(#ds1)">
			<rect x="397.3" y="410.6" fill="#FFFFFF" width="182.8" height="66.6"/>
		</g>
		<path fill="#6D6E70" d="M416.1,435.2h2.1v-13.2h-2.1v-1.8h6.6v1.8h-2.1v5.6h8.8v-5.6h-2.1v-1.8h6.6v1.8h-2.1v13.2h2.1v1.9h-6.6
			v-1.9h2.1v-5.6h-8.8v5.6h2.1v1.9h-6.6V435.2z"/>
		<path fill="#6D6E70" d="M440.5,435.2h2.1v-5.3l-4.8-7.9h-1.6v-1.8h5.8v1.8h-1.8l3.1,5.3c0.2,0.4,0.3,0.7,0.3,0.7h0
			c0,0,0.1-0.4,0.4-0.7l3.1-5.3h-1.8v-1.8h5.8v1.8h-1.6l-4.8,7.9v5.3h2.1v1.9h-6.7V435.2z"/>
		<path fill="#6D6E70" d="M453.8,435.2h2.1v-13.2h-2.1v-1.8h7.2c1.4,0,2.5,0.1,3.6,0.4c3.2,1,5.4,3.9,5.4,8.1c0,4.1-2,7-5.4,8
			c-1.1,0.4-2.2,0.5-3.6,0.5h-7.2V435.2z M460.9,435.1c1.1,0,2-0.1,2.9-0.4c2.3-0.8,3.7-3,3.7-6.1c0-3.1-1.4-5.3-3.7-6.1
			c-0.9-0.3-1.8-0.4-2.9-0.4h-2.6v13H460.9z"/>
		<path fill="#6D6E70" d="M472.5,435.2h2.1v-13.2h-2.1v-1.8h7.3c1.2,0,2.2,0,3.1,0.4c1.8,0.6,3,2.1,3,4.4c0,2.4-1.3,4.2-3.5,4.8v0
			c0,0,0.4,0.2,0.7,0.8l2.4,4.2c0.3,0.5,0.6,0.6,1.2,0.6h0.5v1.9h-1.4c-1.4,0-1.8-0.3-2.4-1.3l-2.6-4.6c-0.4-0.7-0.7-0.9-1.8-0.9h-2
			v5h2.1v1.9h-6.6V435.2z M480.5,428.2c1.8,0,3.1-1.2,3.1-3.2c0-1.3-0.5-2.2-1.6-2.7c-0.6-0.2-1.3-0.3-2.1-0.3h-2.8v6.2H480.5z"/>
		<path fill="#6D6E70" d="M498,419.8c4.9,0,8.7,3.8,8.7,8.6c0,5-3.8,8.9-8.7,8.9c-4.9,0-8.7-3.9-8.7-8.9
			C489.3,423.6,493,419.8,498,419.8z M498,435.2c3.4,0,6.2-2.9,6.2-6.7c0-3.7-2.8-6.5-6.2-6.5c-3.5,0-6.2,2.8-6.2,6.5
			C491.7,432.3,494.5,435.2,498,435.2z"/>
		<path fill="#6D6E70" d="M518.4,419.8c3,0,6.5,1.2,6.5,3.3v2.1h-2.2V424c0-1.4-2.2-2.1-4.2-2.1c-4,0-6.5,2.7-6.5,6.6
			c0,3.9,2.5,6.8,6.5,6.8c1.5,0,4.5-0.5,4.5-2.1v-2.2h-3.3V429h5.5v4.8c0,2.6-4.4,3.6-6.9,3.6c-5.2,0-8.9-3.8-8.9-8.8
			C509.5,423.5,513.1,419.8,518.4,419.8z"/>
		<path fill="#6D6E70" d="M528.2,435.2h2.1v-13.2h-2.1v-1.8h12.3v3.9h-2.1v-2h-5.7v5.4h6v2h-6v5.6h6.1v-2h2.1v4h-12.7V435.2z"/>
		<path fill="#6D6E70" d="M543.7,435.2h2.1v-13.2h-2.1v-1.8h4.5l8.3,12.1c0.3,0.5,0.6,1.2,0.6,1.2h0.1c0,0-0.1-0.8-0.1-1.4v-10.2
			h-2.2v-1.8h6.7v1.8h-2.1V437h-2.4l-8.3-12.1c-0.3-0.5-0.6-1.2-0.6-1.2h-0.1c0,0,0.1,0.8,0.1,1.4v10.1h2.2v1.9h-6.7V435.2z"/>
		<path fill="#6D6E70" d="M451.3,464h1.6l5.4-15.1h2.7l5.4,15.1h1.6v1.9h-5.9V464h1.8l-1.3-3.8h-6l-1.3,3.8h1.8v1.9h-5.9V464z
			 M462,458.3l-2.1-5.9c-0.2-0.7-0.3-1.3-0.3-1.3h-0.1c0,0-0.1,0.6-0.3,1.3l-2.1,5.9H462z"/>
		<path fill="#6D6E70" d="M472.1,464h2.1v-13.1h-4v2.6h-2.1v-4.6h14.5v4.6h-2.1v-2.6h-4V464h2.1v1.9h-6.7V464z"/>
		<path fill="#6D6E70" d="M493.7,448.6c4.9,0,8.7,3.8,8.7,8.6c0,5-3.8,8.9-8.7,8.9c-4.9,0-8.7-3.9-8.7-8.9
			C484.9,452.4,488.7,448.6,493.7,448.6z M493.7,464c3.4,0,6.2-2.9,6.2-6.7c0-3.7-2.8-6.5-6.2-6.5c-3.5,0-6.2,2.8-6.2,6.5
			C487.4,461.1,490.2,464,493.7,464z"/>
		<path fill="#6D6E70" d="M504.3,464h2.1l1.1-13.2h-2.2v-1.8h4.8l4.3,10.3c0.3,0.7,0.4,1.2,0.4,1.2h0c0,0,0.1-0.5,0.4-1.2l4.3-10.3
			h4.8v1.8h-2.2l1.1,13.2h2.1v1.9H519V464h2l-0.8-10.1c0-0.5,0.1-1.4,0.1-1.4h-0.1c0,0-0.2,0.8-0.4,1.3l-3.9,8.9h-2.1l-3.9-8.9
			c-0.2-0.5-0.4-1.3-0.4-1.3h-0.1c0,0,0.1,0.9,0.1,1.4l-0.8,10.1h2v1.9h-6.5V464z"/>
	</g>
</g>
<g id="Layer_2">
</g>
</svg>
