<?xml version="1.0" encoding="utf-8"?>
<!-- Generator: Adobe Illustrator 18.1.1, SVG Export Plug-In . SVG Version: 6.00 Build 0)  -->
<!DOCTYPE svg PUBLIC "-//W3C//DTD SVG 1.1//EN" "http://www.w3.org/Graphics/SVG/1.1/DTD/svg11.dtd">
<svg version="1.1" id="Layer_1" xmlns="http://www.w3.org/2000/svg" xmlns:xlink="http://www.w3.org/1999/xlink" x="0px" y="0px"
	 viewBox="0 0 920 690" enable-background="new 0 0 920 690" xml:space="preserve">
<filter  height="170%" width="170%" id="ds1" y="-20%" x="-30%">
	<feOffset  in="SourceAlpha" result="offOut" dy="1" dx="0"></feOffset>
	<feGaussianBlur  in="offOut" stdDeviation="2" result="blurOut"></feGaussianBlur>
	<feComponentTransfer>
		<feFuncA  type="linear" slope="0.5"></feFuncA>
	</feComponentTransfer>
	<feMerge>
		<feMergeNode></feMergeNode>
		<feMergeNode  in="SourceGraphic"></feMergeNode>
	</feMerge>
</filter>
<g>
	<g opacity="0.5">
		<path fill="none" stroke="#000000" stroke-width="2" stroke-miterlimit="10" d="M361.4,308.9c7.4,2.8,30.2,19.7,36.7,38.7"/>
		<polygon points="399.9,355.9 392.5,345.4 397.9,347.1 402,343.2 		"/>
	</g>
	<g>
		<g>
			<path fill="none" stroke="#FFFFFF" stroke-width="2" stroke-miterlimit="10" d="M360.4,307.9c7.4,2.8,30.2,19.7,36.7,38.7"/>
			<g>
				<polygon fill="#FFFFFF" points="398.9,354.9 391.5,344.4 396.9,346.1 401,342.2 				"/>
			</g>
		</g>
	</g>
</g>
<g opacity="0.45" filter="url(#ds1)">
	<path fill="#E96667" stroke="#B4474C" stroke-miterlimit="10" d="M156.2,146c0-1-0.4-2.1-1.2-2.7c-0.6-0.5-1.4-0.5-1.8-1.2
		c-0.4-0.8-0.3-1.3-0.8-2.4c-0.4-0.8-1.3-1.3-2.2-1.3c-1.5-0.1-1.8,0.7-2.7,0c-0.8-0.6,0.5-1.8,0.5-2.8c0-1.9-1.5-3.4-3.3-3.5
		c-1.9,0-3.4,1.5-3.5,3.3c0,0.8,0.3,1.3,0.6,2c0.3,0.7,0.1,1.1-0.2,1.7c-0.3,0.6-0.4,1.2-0.5,1.8c-0.2,1.1-0.9,1.5-1.7,2.1
		c-0.7,0.6-1.2,1.5-1.2,2.5c0,1,0.4,1.9,1.1,2.6c0.5,0.4,1.1,0.8,1.4,1.3c0.3,0.6,0.2,1.4,0.4,2c0.4,1.4,1.7,2.5,3.2,2.5
		c0.9,0,1.7-0.7,2.6-0.7c1.1-0.1,1.9,0.8,3,0.9c1.2,0,2.4-0.6,3-1.6c0.6-1.1,0.1-2.5,1.2-3.4C155.1,148.3,156.1,147.7,156.2,146z"/>
	<path fill="#E96667" stroke="#B4474C" stroke-miterlimit="10" d="M174.3,146c0-1-0.4-2.1-1.2-2.7c-0.6-0.5-1.4-0.5-1.8-1.2
		c-0.4-0.8-0.3-1.3-0.8-2.4c-0.4-0.8-1.3-1.3-2.2-1.3c-1.5-0.1-1.8,0.7-2.7,0c-0.8-0.6,0.5-1.8,0.5-2.8c0-1.9-1.5-3.4-3.3-3.5
		c-1.9,0-3.4,1.5-3.5,3.3c0,0.8,0.3,1.3,0.6,2c0.3,0.7,0.1,1.1-0.2,1.7c-0.3,0.6-0.4,1.2-0.5,1.8c-0.2,1.1-0.9,1.5-1.7,2.1
		c-0.7,0.6-1.2,1.5-1.2,2.5c0,1,0.4,1.9,1.1,2.6c0.5,0.4,1.1,0.8,1.4,1.3c0.3,0.6,0.2,1.4,0.4,2c0.4,1.4,1.7,2.5,3.2,2.5
		c0.9,0,1.7-0.7,2.6-0.7c1.1-0.1,1.9,0.8,3,0.9c1.2,0,2.4-0.6,3-1.6c0.6-1.1,0.1-2.5,1.2-3.4C173.2,148.3,174.3,147.7,174.3,146z"/>
	<path fill="#E96667" stroke="#B4474C" stroke-miterlimit="10" d="M192.4,146.1c0-1-0.4-2.1-1.2-2.7c-0.6-0.5-1.4-0.5-1.8-1.2
		c-0.4-0.8-0.3-1.3-0.8-2.4c-0.4-0.8-1.3-1.3-2.2-1.3c-1.5-0.1-1.8,0.7-2.7,0c-0.8-0.6,0.5-1.8,0.5-2.8c0-1.9-1.5-3.4-3.3-3.5
		c-1.9,0-3.4,1.5-3.5,3.3c0,0.8,0.3,1.3,0.6,2c0.3,0.7,0.1,1.1-0.2,1.7c-0.3,0.6-0.4,1.2-0.5,1.8c-0.2,1.1-0.9,1.5-1.7,2.1
		c-0.7,0.6-1.2,1.5-1.2,2.5c0,1,0.4,1.9,1.1,2.6c0.5,0.4,1.1,0.8,1.4,1.3c0.3,0.6,0.2,1.4,0.4,2c0.4,1.4,1.7,2.5,3.2,2.5
		c0.9,0,1.7-0.7,2.6-0.7c1.1-0.1,1.9,0.8,3,0.9c1.2,0,2.4-0.6,3-1.6c0.6-1.1,0.1-2.5,1.2-3.4C191.3,148.3,192.4,147.7,192.4,146.1z"
		/>
	<path fill="#E96667" stroke="#B4474C" stroke-miterlimit="10" d="M210.5,146.1c0-1-0.4-2.1-1.2-2.7c-0.6-0.5-1.4-0.5-1.8-1.2
		c-0.4-0.8-0.3-1.3-0.8-2.4c-0.4-0.8-1.3-1.3-2.2-1.3c-1.5-0.1-1.8,0.7-2.7,0c-0.8-0.6,0.5-1.8,0.5-2.8c0-1.9-1.5-3.4-3.3-3.5
		c-1.9,0-3.4,1.5-3.5,3.3c0,0.8,0.3,1.3,0.6,2c0.3,0.7,0.1,1.1-0.2,1.7c-0.3,0.6-0.4,1.2-0.5,1.8c-0.2,1.1-0.9,1.5-1.7,2.1
		c-0.7,0.6-1.2,1.5-1.2,2.5c0,1,0.4,1.9,1.1,2.6c0.5,0.4,1.1,0.8,1.4,1.3c0.3,0.6,0.2,1.4,0.4,2c0.4,1.4,1.7,2.5,3.2,2.5
		c0.9,0,1.7-0.7,2.6-0.7c1.1-0.1,1.9,0.8,3,0.9c1.2,0,2.4-0.6,3-1.6c0.6-1.1,0.1-2.5,1.2-3.4C209.5,148.3,210.5,147.8,210.5,146.1z"
		/>
	<path fill="#E96667" stroke="#B4474C" stroke-miterlimit="10" d="M228.7,146.1c0-1-0.4-2.1-1.2-2.7c-0.6-0.5-1.4-0.5-1.8-1.2
		c-0.4-0.8-0.3-1.3-0.8-2.4c-0.4-0.8-1.3-1.3-2.2-1.3c-1.5-0.1-1.8,0.7-2.7,0c-0.8-0.6,0.5-1.8,0.5-2.8c0-1.9-1.5-3.4-3.3-3.5
		c-1.9,0-3.4,1.5-3.5,3.3c0,0.8,0.3,1.3,0.6,2c0.3,0.7,0.1,1.1-0.2,1.7c-0.3,0.6-0.4,1.2-0.5,1.8c-0.2,1.1-0.9,1.5-1.7,2.1
		c-0.7,0.6-1.2,1.5-1.2,2.5c0,1,0.4,1.9,1.1,2.6c0.5,0.4,1.1,0.8,1.4,1.3c0.3,0.6,0.2,1.4,0.4,2c0.4,1.4,1.7,2.5,3.2,2.5
		c0.9,0,1.7-0.7,2.6-0.7c1.1-0.1,1.9,0.8,3,0.9c1.2,0,2.4-0.6,3-1.6c0.6-1.1,0.1-2.5,1.2-3.4C227.6,148.4,228.6,147.8,228.7,146.1z"
		/>
	<path fill="#E96667" stroke="#B4474C" stroke-miterlimit="10" d="M246.8,146.1c0-1-0.4-2.1-1.2-2.7c-0.6-0.5-1.4-0.5-1.8-1.2
		c-0.4-0.8-0.3-1.3-0.8-2.4c-0.4-0.8-1.3-1.3-2.2-1.3c-1.5-0.1-1.8,0.7-2.7,0c-0.8-0.6,0.5-1.8,0.5-2.8c0-1.9-1.5-3.4-3.3-3.5
		c-1.9,0-3.4,1.5-3.5,3.3c0,0.8,0.3,1.3,0.6,2c0.3,0.7,0.1,1.1-0.2,1.7c-0.3,0.6-0.4,1.2-0.5,1.8c-0.2,1.1-0.9,1.5-1.7,2.1
		c-0.7,0.6-1.2,1.5-1.2,2.5c0,1,0.4,1.9,1.1,2.6c0.5,0.4,1.1,0.8,1.4,1.3c0.3,0.6,0.2,1.4,0.4,2c0.4,1.4,1.7,2.5,3.2,2.5
		c0.9,0,1.7-0.7,2.6-0.7c1.1-0.1,1.9,0.8,3,0.9c1.2,0,2.4-0.6,3-1.6c0.6-1.1,0.1-2.5,1.2-3.4C245.7,148.4,246.8,147.8,246.8,146.1z"
		/>
	<path fill="#E96667" stroke="#B4474C" stroke-miterlimit="10" d="M264.9,146.1c0-1-0.4-2.1-1.2-2.7c-0.6-0.5-1.4-0.5-1.8-1.2
		c-0.4-0.8-0.3-1.3-0.8-2.4c-0.4-0.8-1.3-1.3-2.2-1.3c-1.5-0.1-1.8,0.7-2.7,0c-0.8-0.6,0.5-1.8,0.5-2.8c0-1.9-1.5-3.4-3.3-3.5
		c-1.9,0-3.4,1.5-3.5,3.3c0,0.8,0.3,1.3,0.6,2c0.3,0.7,0.1,1.1-0.2,1.7c-0.3,0.6-0.4,1.2-0.5,1.8c-0.2,1.1-0.9,1.5-1.7,2.1
		c-0.7,0.6-1.2,1.5-1.2,2.5c0,1,0.4,1.9,1.1,2.6c0.5,0.4,1.1,0.8,1.4,1.3c0.3,0.6,0.2,1.4,0.4,2c0.4,1.4,1.7,2.5,3.2,2.5
		c0.9,0,1.7-0.7,2.6-0.7c1.1-0.1,1.9,0.8,3,0.9c1.2,0,2.4-0.6,3-1.6c0.6-1.1,0.1-2.5,1.2-3.4C263.9,148.4,264.9,147.8,264.9,146.1z"
		/>
	<path fill="#E96667" stroke="#B4474C" stroke-miterlimit="10" d="M283.1,146.2c0-1-0.4-2.1-1.2-2.7c-0.6-0.5-1.4-0.5-1.8-1.2
		c-0.4-0.8-0.3-1.3-0.8-2.4c-0.4-0.8-1.3-1.3-2.2-1.3c-1.5-0.1-1.8,0.7-2.7,0c-0.8-0.6,0.5-1.8,0.5-2.8c0-1.9-1.5-3.4-3.3-3.5
		c-1.9,0-3.4,1.5-3.5,3.3c0,0.8,0.3,1.3,0.6,2c0.3,0.7,0.1,1.1-0.2,1.7c-0.3,0.6-0.4,1.2-0.5,1.8c-0.2,1.1-0.9,1.5-1.7,2.1
		c-0.7,0.6-1.2,1.5-1.2,2.5c0,1,0.4,1.9,1.1,2.6c0.5,0.4,1.1,0.8,1.4,1.3c0.3,0.6,0.2,1.4,0.4,2c0.4,1.4,1.7,2.5,3.2,2.5
		c0.9,0,1.7-0.7,2.6-0.7c1.1-0.1,1.9,0.8,3,0.9c1.2,0,2.4-0.6,3-1.6c0.6-1.1,0.1-2.5,1.2-3.4C282,148.4,283,147.8,283.1,146.2z"/>
	<path fill="#E96667" stroke="#B4474C" stroke-miterlimit="10" d="M301.2,146.2c0-1-0.4-2.1-1.2-2.7c-0.6-0.5-1.4-0.5-1.8-1.2
		c-0.4-0.8-0.3-1.3-0.8-2.4c-0.4-0.8-1.3-1.3-2.2-1.3c-1.5-0.1-1.8,0.7-2.7,0c-0.8-0.6,0.5-1.8,0.5-2.8c0-1.9-1.5-3.4-3.3-3.5
		c-1.9,0-3.4,1.5-3.5,3.3c0,0.8,0.3,1.3,0.6,2c0.3,0.7,0.1,1.1-0.2,1.7c-0.3,0.6-0.4,1.2-0.5,1.8c-0.2,1.1-0.9,1.5-1.7,2.1
		c-0.7,0.6-1.2,1.5-1.2,2.5c0,1,0.4,1.9,1.1,2.6c0.5,0.4,1.1,0.8,1.4,1.3c0.3,0.6,0.2,1.4,0.4,2c0.4,1.4,1.7,2.5,3.2,2.5
		c0.9,0,1.7-0.7,2.6-0.7c1.1-0.1,1.9,0.8,3,0.9c1.2,0,2.4-0.6,3-1.6c0.6-1.1,0.1-2.5,1.2-3.4C300.1,148.4,301.2,147.9,301.2,146.2z"
		/>
	<path fill="#E96667" stroke="#B4474C" stroke-miterlimit="10" d="M319.3,146.2c0-1-0.4-2.1-1.2-2.7c-0.6-0.5-1.4-0.5-1.8-1.2
		c-0.4-0.8-0.3-1.3-0.8-2.4c-0.4-0.8-1.3-1.3-2.2-1.3c-1.5-0.1-1.8,0.7-2.7,0c-0.8-0.6,0.5-1.8,0.5-2.8c0-1.9-1.5-3.4-3.3-3.5
		c-1.9,0-3.4,1.5-3.5,3.3c0,0.8,0.3,1.3,0.6,2c0.3,0.7,0.1,1.1-0.2,1.7c-0.3,0.6-0.4,1.2-0.5,1.8c-0.2,1.1-0.9,1.5-1.7,2.1
		c-0.7,0.6-1.2,1.5-1.2,2.5c0,1,0.4,1.9,1.1,2.6c0.5,0.4,1.1,0.8,1.4,1.3c0.3,0.6,0.2,1.4,0.4,2c0.4,1.4,1.7,2.5,3.2,2.5
		c0.9,0,1.7-0.7,2.6-0.7c1.1-0.1,1.9,0.8,3,0.9c1.2,0,2.4-0.6,3-1.6c0.6-1.1,0.1-2.5,1.2-3.4C318.3,148.5,319.3,147.9,319.3,146.2z"
		/>
	<path fill="#E96667" stroke="#B4474C" stroke-miterlimit="10" d="M337.5,146.2c0-1-0.4-2.1-1.2-2.7c-0.6-0.5-1.4-0.5-1.8-1.2
		c-0.4-0.8-0.3-1.3-0.8-2.4c-0.4-0.8-1.3-1.3-2.2-1.3c-1.5-0.1-1.8,0.7-2.7,0c-0.8-0.6,0.5-1.8,0.5-2.8c0-1.9-1.5-3.4-3.3-3.5
		c-1.9,0-3.4,1.5-3.5,3.3c0,0.8,0.3,1.3,0.6,2c0.3,0.7,0.1,1.1-0.2,1.7c-0.3,0.6-0.4,1.2-0.5,1.8c-0.2,1.1-0.9,1.5-1.7,2.1
		c-0.7,0.6-1.2,1.5-1.2,2.5c0,1,0.4,1.9,1.1,2.6c0.5,0.4,1.1,0.8,1.4,1.3c0.3,0.6,0.2,1.4,0.4,2c0.4,1.4,1.7,2.5,3.2,2.5
		c0.9,0,1.7-0.7,2.6-0.7c1.1-0.1,1.9,0.8,3,0.9c1.2,0,2.4-0.6,3-1.6c0.6-1.1,0.1-2.5,1.2-3.4C336.4,148.5,337.4,147.9,337.5,146.2z"
		/>
	<path fill="#E96667" stroke="#B4474C" stroke-miterlimit="10" d="M355.6,146.2c0-1-0.4-2.1-1.2-2.7c-0.6-0.5-1.4-0.5-1.8-1.2
		c-0.4-0.8-0.3-1.3-0.8-2.4c-0.4-0.8-1.3-1.3-2.2-1.3c-1.5-0.1-1.8,0.7-2.7,0c-0.8-0.6,0.5-1.8,0.5-2.8c0-1.9-1.5-3.4-3.3-3.5
		c-1.9,0-3.4,1.5-3.5,3.3c0,0.8,0.3,1.3,0.6,2c0.3,0.7,0.1,1.1-0.2,1.7c-0.3,0.6-0.4,1.2-0.5,1.8c-0.2,1.1-0.9,1.5-1.7,2.1
		c-0.7,0.6-1.2,1.5-1.2,2.5c0,1,0.4,1.9,1.1,2.6c0.5,0.4,1.1,0.8,1.4,1.3c0.3,0.6,0.2,1.4,0.4,2c0.4,1.4,1.7,2.5,3.2,2.5
		c0.9,0,1.7-0.7,2.6-0.7c1.1-0.1,1.9,0.8,3,0.9c1.2,0,2.4-0.6,3-1.6c0.6-1.1,0.1-2.5,1.2-3.4C354.5,148.5,355.6,147.9,355.6,146.2z"
		/>
	<path fill="#E96667" stroke="#B4474C" stroke-miterlimit="10" d="M203.9,58.4c0.6-0.8,0.8-1.9,0.6-2.9c-0.2-0.7-0.8-1.2-0.8-2
		c0.1-0.9,0.5-1.2,0.8-2.4c0.2-0.9-0.3-1.8-1.1-2.4c-1.2-1-1.9-0.5-2.2-1.5c-0.3-1,1.4-1.2,2-2c1.1-1.5,0.8-3.7-0.7-4.8
		c-1.5-1.1-3.7-0.8-4.8,0.7c-0.5,0.6-0.5,1.3-0.7,2c-0.2,0.7-0.5,0.9-1.2,1.3c-0.6,0.3-1,0.7-1.5,1.2c-0.8,0.8-1.6,0.7-2.7,0.7
		c-1,0.1-1.8,0.6-2.4,1.4c-0.6,0.8-0.8,1.8-0.6,2.7c0.1,0.6,0.4,1.2,0.4,1.9c-0.1,0.7-0.6,1.2-0.9,1.9c-0.5,1.4,0,3,1.2,3.9
		c0.7,0.6,1.8,0.5,2.6,0.9c0.9,0.6,1.1,1.8,2,2.4c1,0.7,2.3,0.9,3.4,0.4c1.1-0.5,1.6-2,2.9-2C201.7,59.7,202.9,59.8,203.9,58.4z"/>
	<path fill="#E96667" stroke="#B4474C" stroke-miterlimit="10" d="M218.7,69c0.6-0.8,0.8-1.9,0.6-2.9c-0.2-0.7-0.8-1.2-0.8-2
		c0.1-0.9,0.5-1.2,0.8-2.4c0.2-0.9-0.3-1.8-1.1-2.4c-1.2-1-1.9-0.5-2.2-1.5c-0.3-1,1.4-1.2,2-2c1.1-1.5,0.8-3.7-0.7-4.8
		c-1.5-1.1-3.7-0.8-4.8,0.7c-0.5,0.6-0.5,1.3-0.7,2c-0.2,0.7-0.5,0.9-1.2,1.3c-0.6,0.3-1,0.7-1.5,1.2c-0.8,0.8-1.6,0.7-2.7,0.7
		c-1,0.1-1.8,0.6-2.4,1.4c-0.6,0.8-0.8,1.8-0.6,2.7c0.1,0.6,0.4,1.2,0.4,1.9c-0.1,0.7-0.6,1.2-0.9,1.9c-0.5,1.4,0,3,1.2,3.9
		c0.7,0.6,1.8,0.5,2.6,0.9c0.9,0.6,1.1,1.8,2,2.4c1,0.7,2.3,0.9,3.4,0.4c1.1-0.5,1.6-2,2.9-2C216.5,70.2,217.7,70.3,218.7,69z"/>
	<path fill="#E96667" stroke="#B4474C" stroke-miterlimit="10" d="M233.4,79.5c0.6-0.8,0.8-1.9,0.6-2.9c-0.2-0.7-0.8-1.2-0.8-2
		c0.1-0.9,0.5-1.2,0.8-2.4c0.2-0.9-0.3-1.8-1.1-2.4c-1.2-1-1.9-0.5-2.2-1.5c-0.3-1,1.4-1.2,2-2c1.1-1.5,0.8-3.7-0.7-4.8
		c-1.5-1.1-3.7-0.8-4.8,0.7c-0.5,0.6-0.5,1.3-0.7,2c-0.2,0.7-0.5,0.9-1.2,1.3c-0.6,0.3-1,0.7-1.5,1.2c-0.8,0.8-1.6,0.7-2.7,0.7
		c-1,0.1-1.8,0.6-2.4,1.4c-0.6,0.8-0.8,1.8-0.6,2.7c0.1,0.6,0.4,1.2,0.4,1.9c-0.1,0.7-0.6,1.2-0.9,1.9c-0.5,1.4,0,3,1.2,3.9
		c0.7,0.6,1.8,0.5,2.6,0.9c0.9,0.6,1.1,1.8,2,2.4c1,0.7,2.3,0.9,3.4,0.4c1.1-0.5,1.6-2,2.9-2C231.2,80.7,232.4,80.8,233.4,79.5z"/>
	<path fill="#E96667" stroke="#B4474C" stroke-miterlimit="10" d="M174.5,37.5c0.6-0.8,0.8-1.9,0.6-2.9c-0.2-0.7-0.8-1.2-0.8-2
		c0.1-0.9,0.5-1.2,0.8-2.4c0.2-0.9-0.3-1.8-1.1-2.4c-1.2-1-1.9-0.5-2.2-1.5c-0.3-1,1.4-1.2,2-2c1.1-1.5,0.8-3.7-0.7-4.8
		c-1.5-1.1-3.7-0.8-4.8,0.7c-0.5,0.6-0.5,1.3-0.7,2c-0.2,0.7-0.5,0.9-1.2,1.3c-0.6,0.3-1,0.7-1.5,1.2c-0.8,0.8-1.6,0.7-2.7,0.7
		c-1,0.1-1.8,0.6-2.4,1.4c-0.6,0.8-0.8,1.8-0.6,2.7c0.1,0.6,0.4,1.2,0.4,1.9c-0.1,0.7-0.6,1.2-0.9,1.9c-0.5,1.4,0,3,1.2,3.9
		c0.7,0.6,1.8,0.5,2.6,0.9c0.9,0.6,1.1,1.8,2,2.4c1,0.7,2.3,0.9,3.4,0.4c1.1-0.5,1.6-2,2.9-2C172.3,38.7,173.5,38.9,174.5,37.5z"/>
	<path fill="#E96667" stroke="#B4474C" stroke-miterlimit="10" d="M189.3,48c0.6-0.8,0.8-1.9,0.6-2.9c-0.2-0.7-0.8-1.2-0.8-2
		c0.1-0.9,0.5-1.2,0.8-2.4c0.2-0.9-0.3-1.8-1.1-2.4c-1.2-1-1.9-0.5-2.2-1.5c-0.3-1,1.4-1.2,2-2c1.1-1.5,0.8-3.7-0.7-4.8
		c-1.5-1.1-3.7-0.8-4.8,0.7c-0.5,0.6-0.5,1.3-0.7,2c-0.2,0.7-0.5,0.9-1.2,1.3c-0.6,0.3-1,0.7-1.5,1.2c-0.8,0.8-1.6,0.7-2.7,0.7
		c-1,0.1-1.8,0.6-2.4,1.4c-0.6,0.8-0.8,1.8-0.6,2.7c0.1,0.6,0.4,1.2,0.4,1.9c-0.1,0.7-0.6,1.2-0.9,1.9c-0.5,1.4,0,3,1.2,3.9
		c0.7,0.6,1.8,0.5,2.6,0.9c0.9,0.6,1.1,1.8,2,2.4c1,0.7,2.3,0.9,3.4,0.4c1.1-0.5,1.6-2,2.9-2C187.1,49.3,188.3,49.4,189.3,48z"/>
	<path fill="#E96667" stroke="#B4474C" stroke-miterlimit="10" d="M248.2,90c0.6-0.8,0.8-1.9,0.6-2.9c-0.2-0.7-0.8-1.2-0.8-2
		c0.1-0.9,0.5-1.2,0.8-2.4c0.2-0.9-0.3-1.8-1.1-2.4c-1.2-1-1.9-0.5-2.2-1.5c-0.3-1,1.4-1.2,2-2c1.1-1.5,0.8-3.7-0.7-4.8
		c-1.5-1.1-3.7-0.8-4.8,0.7c-0.5,0.6-0.5,1.3-0.7,2c-0.2,0.7-0.5,0.9-1.2,1.3c-0.6,0.3-1,0.7-1.5,1.2c-0.8,0.8-1.6,0.7-2.7,0.7
		c-1,0.1-1.8,0.6-2.4,1.4c-0.6,0.8-0.8,1.8-0.6,2.7c0.1,0.6,0.4,1.2,0.4,1.9c-0.1,0.7-0.6,1.2-0.9,1.9c-0.5,1.4,0,3,1.2,3.9
		c0.7,0.6,1.8,0.5,2.6,0.9c0.9,0.6,1.1,1.8,2,2.4c1,0.7,2.3,0.9,3.4,0.4c1.1-0.5,1.6-2,2.9-2C246,91.2,247.2,91.3,248.2,90z"/>
	<path fill="#E96667" stroke="#B4474C" stroke-miterlimit="10" d="M263,100.5c0.6-0.8,0.8-1.9,0.6-2.9c-0.2-0.7-0.8-1.2-0.8-2
		c0.1-0.9,0.5-1.2,0.8-2.4c0.2-0.9-0.3-1.8-1.1-2.4c-1.2-1-1.9-0.5-2.2-1.5c-0.3-1,1.4-1.2,2-2c1.1-1.5,0.8-3.7-0.7-4.8
		c-1.5-1.1-3.7-0.8-4.8,0.7c-0.5,0.6-0.5,1.3-0.7,2c-0.2,0.7-0.5,0.9-1.2,1.3c-0.6,0.3-1,0.7-1.5,1.2c-0.8,0.8-1.6,0.7-2.7,0.7
		c-1,0.1-1.8,0.6-2.4,1.4c-0.6,0.8-0.8,1.8-0.6,2.7c0.1,0.6,0.4,1.2,0.4,1.9c-0.1,0.7-0.6,1.2-0.9,1.9c-0.5,1.4,0,3,1.2,3.9
		c0.7,0.6,1.8,0.5,2.6,0.9c0.9,0.6,1.1,1.8,2,2.4c1,0.7,2.3,0.9,3.4,0.4c1.1-0.5,1.6-2,2.9-2C260.8,101.7,262,101.9,263,100.5z"/>
	<path fill="#E96667" stroke="#B4474C" stroke-miterlimit="10" d="M255.5,45.8c1-0.1,2-0.8,2.5-1.7c0.4-0.7,0.3-1.4,0.9-2
		c0.7-0.5,1.2-0.5,2.3-1.2c0.8-0.5,1-1.5,1-2.4c-0.1-1.5-1-1.7-0.4-2.6c0.5-0.9,1.9,0.2,2.8,0c1.9-0.3,3.2-2,2.9-3.8
		c-0.3-1.9-2-3.2-3.8-2.9c-0.8,0.1-1.3,0.5-1.9,0.9c-0.6,0.4-1,0.3-1.7,0.1c-0.6-0.2-1.2-0.2-1.9-0.2c-1.1,0-1.6-0.7-2.4-1.4
		c-0.7-0.6-1.7-0.9-2.7-0.8c-1,0.1-1.8,0.7-2.4,1.5c-0.3,0.5-0.6,1.2-1.1,1.6c-0.6,0.4-1.3,0.4-1.9,0.7c-1.4,0.6-2.2,2.1-2,3.6
		c0.1,0.9,0.9,1.6,1.1,2.5c0.2,1-0.5,2-0.4,3.1c0.2,1.2,1,2.2,2.1,2.7c1.1,0.5,2.5-0.3,3.5,0.7C253.1,45.1,253.8,46.1,255.5,45.8z"
		/>
	<path fill="#E96667" stroke="#B4474C" stroke-miterlimit="10" d="M258.3,63.7c1-0.1,2-0.8,2.5-1.7c0.4-0.7,0.3-1.4,0.9-2
		c0.7-0.5,1.2-0.5,2.3-1.2c0.8-0.5,1-1.5,1-2.4c-0.1-1.5-1-1.7-0.4-2.6c0.5-0.9,1.9,0.2,2.8,0c1.9-0.3,3.2-2,2.9-3.8
		c-0.3-1.9-2-3.2-3.8-2.9c-0.8,0.1-1.3,0.5-1.9,0.9c-0.6,0.4-1,0.3-1.7,0.1c-0.6-0.2-1.2-0.2-1.9-0.2c-1.1,0-1.6-0.7-2.4-1.4
		c-0.7-0.6-1.7-0.9-2.7-0.8c-1,0.1-1.8,0.7-2.4,1.5c-0.3,0.5-0.6,1.2-1.1,1.6c-0.6,0.4-1.3,0.4-1.9,0.7c-1.4,0.6-2.2,2.1-2,3.6
		c0.1,0.9,0.9,1.6,1.1,2.5c0.2,1-0.5,2-0.4,3.1c0.2,1.2,1,2.2,2.1,2.7c1.1,0.5,2.5-0.3,3.5,0.7C255.9,63,256.6,64,258.3,63.7z"/>
	<path fill="#E96667" stroke="#B4474C" stroke-miterlimit="10" d="M261.1,81.7c1-0.1,2-0.8,2.5-1.7c0.4-0.7,0.3-1.4,0.9-2
		c0.7-0.5,1.2-0.5,2.3-1.2c0.8-0.5,1-1.5,1-2.4c-0.1-1.5-1-1.7-0.4-2.6c0.5-0.9,1.9,0.2,2.8,0c1.9-0.3,3.2-2,2.9-3.8
		c-0.3-1.9-2-3.2-3.8-2.9c-0.8,0.1-1.3,0.5-1.9,0.9c-0.6,0.4-1,0.3-1.7,0.1c-0.6-0.2-1.2-0.2-1.9-0.2c-1.1,0-1.6-0.7-2.4-1.4
		c-0.7-0.6-1.7-0.9-2.7-0.8c-1,0.1-1.8,0.7-2.4,1.5c-0.3,0.5-0.6,1.2-1.1,1.6c-0.6,0.4-1.3,0.4-1.9,0.7c-1.4,0.6-2.2,2.1-2,3.6
		c0.1,0.9,0.9,1.6,1.1,2.5c0.2,1-0.5,2-0.4,3.1c0.2,1.2,1,2.2,2.1,2.7c1.1,0.5,2.5-0.3,3.5,0.7C258.7,80.9,259.4,81.9,261.1,81.7z"
		/>
	<path fill="#E96667" stroke="#B4474C" stroke-miterlimit="10" d="M277.7,111c0.6-0.8,0.8-1.9,0.6-2.9c-0.2-0.7-0.8-1.2-0.8-2
		c0.1-0.9,0.5-1.2,0.8-2.4c0.2-0.9-0.3-1.8-1.1-2.4c-1.2-1-1.9-0.5-2.2-1.5c-0.3-1,1.4-1.2,2-2c1.1-1.5,0.8-3.7-0.7-4.8
		c-1.5-1.1-3.7-0.8-4.8,0.7c-0.5,0.6-0.5,1.3-0.7,2c-0.2,0.7-0.5,0.9-1.2,1.3c-0.6,0.3-1,0.7-1.5,1.2c-0.8,0.8-1.6,0.7-2.7,0.7
		c-1,0.1-1.8,0.6-2.4,1.4c-0.6,0.8-0.8,1.8-0.6,2.7c0.1,0.6,0.4,1.2,0.4,1.9c-0.1,0.7-0.6,1.2-0.9,1.9c-0.5,1.4,0,3,1.2,3.9
		c0.7,0.6,1.8,0.5,2.6,0.9c0.9,0.6,1.1,1.8,2,2.4c1,0.7,2.3,0.9,3.4,0.4c1.1-0.5,1.6-2,2.9-2C275.5,112.3,276.7,112.4,277.7,111z"/>
	<path fill="#E96667" stroke="#B4474C" stroke-miterlimit="10" d="M292.5,121.6c0.6-0.8,0.8-1.9,0.6-2.9c-0.2-0.7-0.8-1.2-0.8-2
		c0.1-0.9,0.5-1.2,0.8-2.4c0.2-0.9-0.3-1.8-1.1-2.4c-1.2-1-1.9-0.5-2.2-1.5c-0.3-1,1.4-1.2,2-2c1.1-1.5,0.8-3.7-0.7-4.8
		c-1.5-1.1-3.7-0.8-4.8,0.7c-0.5,0.6-0.5,1.3-0.7,2c-0.2,0.7-0.5,0.9-1.2,1.3c-0.6,0.3-1,0.7-1.5,1.2c-0.8,0.8-1.6,0.7-2.7,0.7
		c-1,0.1-1.8,0.6-2.4,1.4c-0.6,0.8-0.8,1.8-0.6,2.7c0.1,0.6,0.4,1.2,0.4,1.9c-0.1,0.7-0.6,1.2-0.9,1.9c-0.5,1.4,0,3,1.2,3.9
		c0.7,0.6,1.8,0.5,2.6,0.9c0.9,0.6,1.1,1.8,2,2.4c1,0.7,2.3,0.9,3.4,0.4c1.1-0.5,1.6-2,2.9-2C290.3,122.8,291.5,122.9,292.5,121.6z"
		/>
	<path fill="#E96667" stroke="#B4474C" stroke-miterlimit="10" d="M307.3,132.1c0.6-0.8,0.8-1.9,0.6-2.9c-0.2-0.7-0.8-1.2-0.8-2
		c0.1-0.9,0.5-1.2,0.8-2.4c0.2-0.9-0.3-1.8-1.1-2.4c-1.2-1-1.9-0.5-2.2-1.5c-0.3-1,1.4-1.2,2-2c1.1-1.5,0.8-3.7-0.7-4.8
		c-1.5-1.1-3.7-0.8-4.8,0.7c-0.5,0.6-0.5,1.3-0.7,2c-0.2,0.7-0.5,0.9-1.2,1.3c-0.6,0.3-1,0.7-1.5,1.2c-0.8,0.8-1.6,0.7-2.7,0.7
		c-1,0.1-1.8,0.6-2.4,1.4c-0.6,0.8-0.8,1.8-0.6,2.7c0.1,0.6,0.4,1.2,0.4,1.9c-0.1,0.7-0.6,1.2-0.9,1.9c-0.5,1.4,0,3,1.2,3.9
		c0.7,0.6,1.8,0.5,2.6,0.9c0.9,0.6,1.1,1.8,2,2.4c1,0.7,2.3,0.9,3.4,0.4c1.1-0.5,1.6-2,2.9-2C305.1,133.3,306.3,133.4,307.3,132.1z"
		/>
	<path fill="#E96667" stroke="#B4474C" stroke-miterlimit="10" d="M132.2,76.8c0.6-0.8,0.8-1.9,0.6-2.9c-0.2-0.7-0.8-1.2-0.8-2
		c0.1-0.9,0.5-1.2,0.8-2.4c0.2-0.9-0.3-1.8-1.1-2.4c-1.2-1-1.9-0.5-2.2-1.5c-0.3-1,1.4-1.2,2-2c1.1-1.5,0.8-3.7-0.7-4.8
		c-1.5-1.1-3.7-0.8-4.8,0.7c-0.5,0.6-0.5,1.3-0.7,2c-0.2,0.7-0.5,0.9-1.2,1.3c-0.6,0.3-1,0.7-1.5,1.2c-0.8,0.8-1.6,0.7-2.7,0.7
		c-1,0.1-1.8,0.6-2.4,1.4c-0.6,0.8-0.8,1.8-0.6,2.7c0.1,0.6,0.4,1.2,0.4,1.9c-0.1,0.7-0.6,1.2-0.9,1.9c-0.5,1.4,0,3,1.2,3.9
		c0.7,0.6,1.8,0.5,2.6,0.9c0.9,0.6,1.1,1.8,2,2.4c1,0.7,2.3,0.9,3.4,0.4c1.1-0.5,1.6-2,2.9-2C130,78.1,131.2,78.2,132.2,76.8z"/>
	<path fill="#E96667" stroke="#B4474C" stroke-miterlimit="10" d="M147,87.4c0.6-0.8,0.8-1.9,0.6-2.9c-0.2-0.7-0.8-1.2-0.8-2
		c0.1-0.9,0.5-1.2,0.8-2.4c0.2-0.9-0.3-1.8-1.1-2.4c-1.2-1-1.9-0.5-2.2-1.5c-0.3-1,1.4-1.2,2-2c1.1-1.5,0.8-3.7-0.7-4.8
		c-1.5-1.1-3.7-0.8-4.8,0.7c-0.5,0.6-0.5,1.3-0.7,2c-0.2,0.7-0.5,0.9-1.2,1.3c-0.6,0.3-1,0.7-1.5,1.2c-0.8,0.8-1.6,0.7-2.7,0.7
		c-1,0.1-1.8,0.6-2.4,1.4c-0.6,0.8-0.8,1.8-0.6,2.7c0.1,0.6,0.4,1.2,0.4,1.9c-0.1,0.7-0.6,1.2-0.9,1.9c-0.5,1.4,0,3,1.2,3.9
		c0.7,0.6,1.8,0.5,2.6,0.9c0.9,0.6,1.1,1.8,2,2.4c1,0.7,2.3,0.9,3.4,0.4c1.1-0.5,1.6-2,2.9-2C144.8,88.6,146,88.7,147,87.4z"/>
	<path fill="#E96667" stroke="#B4474C" stroke-miterlimit="10" d="M161.7,97.9c0.6-0.8,0.8-1.9,0.6-2.9c-0.2-0.7-0.8-1.2-0.8-2
		c0.1-0.9,0.5-1.2,0.8-2.4c0.2-0.9-0.3-1.8-1.1-2.4c-1.2-1-1.9-0.5-2.2-1.5c-0.3-1,1.4-1.2,2-2c1.1-1.5,0.8-3.7-0.7-4.8
		c-1.5-1.1-3.7-0.8-4.8,0.7c-0.5,0.6-0.5,1.3-0.7,2c-0.2,0.7-0.5,0.9-1.2,1.3c-0.6,0.3-1,0.7-1.5,1.2c-0.8,0.8-1.6,0.7-2.7,0.7
		c-1,0.1-1.8,0.6-2.4,1.4c-0.6,0.8-0.8,1.8-0.6,2.7c0.1,0.6,0.4,1.2,0.4,1.9c-0.1,0.7-0.6,1.2-0.9,1.9c-0.5,1.4,0,3,1.2,3.9
		c0.7,0.6,1.8,0.5,2.6,0.9c0.9,0.6,1.1,1.8,2,2.4c1,0.7,2.3,0.9,3.4,0.4c1.1-0.5,1.6-2,2.9-2C159.6,99.1,160.7,99.2,161.7,97.9z"/>
	<path fill="#E96667" stroke="#B4474C" stroke-miterlimit="10" d="M176.5,108.4c0.6-0.8,0.8-1.9,0.6-2.9c-0.2-0.7-0.8-1.2-0.8-2
		c0.1-0.9,0.5-1.2,0.8-2.4c0.2-0.9-0.3-1.8-1.1-2.4c-1.2-1-1.9-0.5-2.2-1.5c-0.3-1,1.4-1.2,2-2c1.1-1.5,0.8-3.7-0.7-4.8
		c-1.5-1.1-3.7-0.8-4.8,0.7c-0.5,0.6-0.5,1.3-0.7,2c-0.2,0.7-0.5,0.9-1.2,1.3c-0.6,0.3-1,0.7-1.5,1.2c-0.8,0.8-1.6,0.7-2.7,0.7
		c-1,0.1-1.8,0.6-2.4,1.4c-0.6,0.8-0.8,1.8-0.6,2.7c0.1,0.6,0.4,1.2,0.4,1.9c-0.1,0.7-0.6,1.2-0.9,1.9c-0.5,1.4,0,3,1.2,3.9
		c0.7,0.6,1.8,0.5,2.6,0.9c0.9,0.6,1.1,1.8,2,2.4c1,0.7,2.3,0.9,3.4,0.4c1.1-0.5,1.6-2,2.9-2C174.3,109.6,175.5,109.7,176.5,108.4z"
		/>
	<path fill="#E96667" stroke="#B4474C" stroke-miterlimit="10" d="M191.3,118.9c0.6-0.8,0.8-1.9,0.6-2.9c-0.2-0.7-0.8-1.2-0.8-2
		c0.1-0.9,0.5-1.2,0.8-2.4c0.2-0.9-0.3-1.8-1.1-2.4c-1.2-1-1.9-0.5-2.2-1.5c-0.3-1,1.4-1.2,2-2c1.1-1.5,0.8-3.7-0.7-4.8
		c-1.5-1.1-3.7-0.8-4.8,0.7c-0.5,0.6-0.5,1.3-0.7,2c-0.2,0.7-0.5,0.9-1.2,1.3c-0.6,0.3-1,0.7-1.5,1.2c-0.8,0.8-1.6,0.7-2.7,0.7
		c-1,0.1-1.8,0.6-2.4,1.4c-0.6,0.8-0.8,1.8-0.6,2.7c0.1,0.6,0.4,1.2,0.4,1.9c-0.1,0.7-0.6,1.2-0.9,1.9c-0.5,1.4,0,3,1.2,3.9
		c0.7,0.6,1.8,0.5,2.6,0.9c0.9,0.6,1.1,1.8,2,2.4c1,0.7,2.3,0.9,3.4,0.4c1.1-0.5,1.6-2,2.9-2C189.1,120.1,190.3,120.3,191.3,118.9z"
		/>
	<path fill="#E96667" stroke="#B4474C" stroke-miterlimit="10" d="M206.1,129.4c0.6-0.8,0.8-1.9,0.6-2.9c-0.2-0.7-0.8-1.2-0.8-2
		c0.1-0.9,0.5-1.2,0.8-2.4c0.2-0.9-0.3-1.8-1.1-2.4c-1.2-1-1.9-0.5-2.2-1.5c-0.3-1,1.4-1.2,2-2c1.1-1.5,0.8-3.7-0.7-4.8
		c-1.5-1.1-3.7-0.8-4.8,0.7c-0.5,0.6-0.5,1.3-0.7,2c-0.2,0.7-0.5,0.9-1.2,1.3c-0.6,0.3-1,0.7-1.5,1.2c-0.8,0.8-1.6,0.7-2.7,0.7
		c-1,0.1-1.8,0.6-2.4,1.4c-0.6,0.8-0.8,1.8-0.6,2.7c0.1,0.6,0.4,1.2,0.4,1.9c-0.1,0.7-0.6,1.2-0.9,1.9c-0.5,1.4,0,3,1.2,3.9
		c0.7,0.6,1.8,0.5,2.6,0.9c0.9,0.6,1.1,1.8,2,2.4c1,0.7,2.3,0.9,3.4,0.4c1.1-0.5,1.6-2,2.9-2C203.9,130.7,205.1,130.8,206.1,129.4z"
		/>
</g>
<g opacity="0.45" filter="url(#ds1)">
	<path fill="#E96667" d="M507.4,266.3c-0.7-1.9-2.4-3.5-4.4-4.1c-1.5-0.4-2.9,0.1-4.2-0.9c-1.4-1.1-1.5-2.2-3.3-3.9
		c-1.4-1.2-3.4-1.3-5.2-0.8c-2.9,0.9-2.8,2.7-4.9,2.1c-1.9-0.6-0.5-3.7-1.3-5.5c-1.4-3.5-5.3-5.3-8.8-3.9c-3.5,1.4-5.3,5.3-3.9,8.8
		c0.6,1.5,1.6,2.2,2.6,3.3c1,1.1,1,1.9,0.9,3.3c-0.1,1.3,0.1,2.5,0.4,3.8c0.5,2.2-0.6,3.4-1.6,5.3c-0.9,1.7-1,3.7-0.3,5.5
		c0.7,1.8,2.2,3.3,4,3.9c1.2,0.4,2.6,0.6,3.5,1.4c1,0.9,1.4,2.4,2.2,3.5c1.8,2.4,5.1,3.3,7.8,2.2c1.7-0.7,2.7-2.5,4.4-3.4
		c1.9-0.9,4.2,0.1,6.2-0.7c2.3-0.9,3.9-2.9,4.3-5.3c0.4-2.4-1.7-4.8-0.3-7.1C507.1,271.3,508.6,269.4,507.4,266.3z"/>
	<path fill="none" stroke="#B4474C" stroke-width="1.489" stroke-miterlimit="10" d="M507.4,266.3c-0.7-1.9-2.4-3.5-4.4-4.1
		c-1.5-0.4-2.9,0.1-4.2-0.9c-1.4-1.1-1.5-2.2-3.3-3.9c-1.4-1.2-3.4-1.3-5.2-0.8c-2.9,0.9-2.8,2.7-4.9,2.1c-1.9-0.6-0.5-3.7-1.3-5.5
		c-1.4-3.5-5.3-5.3-8.8-3.9c-3.5,1.4-5.3,5.3-3.9,8.8c0.6,1.5,1.6,2.2,2.6,3.3c1,1.1,1,1.9,0.9,3.3c-0.1,1.3,0.1,2.5,0.4,3.8
		c0.5,2.2-0.6,3.4-1.6,5.3c-0.9,1.7-1,3.7-0.3,5.5c0.7,1.8,2.2,3.3,4,3.9c1.2,0.4,2.6,0.6,3.5,1.4c1,0.9,1.4,2.4,2.2,3.5
		c1.8,2.4,5.1,3.3,7.8,2.2c1.7-0.7,2.7-2.5,4.4-3.4c1.9-0.9,4.2,0.1,6.2-0.7c2.3-0.9,3.9-2.9,4.3-5.3c0.4-2.4-1.7-4.8-0.3-7.1
		C507.1,271.3,508.6,269.4,507.4,266.3z"/>
</g>
<g filter="url(#ds1)">
	<path fill="#E96667" d="M361.9,285.1c-2-0.5-4.2-0.1-5.9,1.2c-1.2,0.9-1.6,2.4-3.2,2.9c-1.7,0.5-2.6-0.1-5.1,0.4
		c-1.8,0.4-3.1,2-3.6,3.7c-0.9,2.9,0.5,3.9-1.2,5.2c-1.6,1.2-3.3-1.7-5.2-2.2c-3.6-1-7.4,1.2-8.3,4.9c-1,3.6,1.2,7.4,4.9,8.3
		c1.5,0.4,2.7,0,4.2-0.2c1.5-0.2,2.1,0.3,3.2,1.2c1,0.8,2.1,1.4,3.3,1.8c2.1,0.9,2.4,2.5,3.4,4.4c0.9,1.7,2.5,3,4.3,3.5
		c1.9,0.5,3.9,0.1,5.5-0.9c1-0.7,2-1.8,3.2-2.1c1.3-0.3,2.8,0.3,4.1,0.2c3-0.1,5.6-2.2,6.4-5.1c0.5-1.8-0.5-3.7-0.2-5.5
		c0.4-2.1,2.5-3.3,3-5.5c0.6-2.3-0.1-4.9-1.8-6.6c-1.8-1.7-4.9-1.4-6-3.9C365.9,288.3,365.2,286,361.9,285.1z"/>
	<path fill="none" stroke="#B4474C" stroke-width="1.489" stroke-miterlimit="10" d="M361.9,285.1c-2-0.5-4.2-0.1-5.9,1.2
		c-1.2,0.9-1.6,2.4-3.2,2.9c-1.7,0.5-2.6-0.1-5.1,0.4c-1.8,0.4-3.1,2-3.6,3.7c-0.9,2.9,0.5,3.9-1.2,5.2c-1.6,1.2-3.3-1.7-5.2-2.2
		c-3.6-1-7.4,1.2-8.3,4.9c-1,3.6,1.2,7.4,4.9,8.3c1.5,0.4,2.7,0,4.2-0.2c1.5-0.2,2.1,0.3,3.2,1.2c1,0.8,2.1,1.4,3.3,1.8
		c2.1,0.9,2.4,2.5,3.4,4.4c0.9,1.7,2.5,3,4.3,3.5c1.9,0.5,3.9,0.1,5.5-0.9c1-0.7,2-1.8,3.2-2.1c1.3-0.3,2.8,0.3,4.1,0.2
		c3-0.1,5.6-2.2,6.4-5.1c0.5-1.8-0.5-3.7-0.2-5.5c0.4-2.1,2.5-3.3,3-5.5c0.6-2.3-0.1-4.9-1.8-6.6c-1.8-1.7-4.9-1.4-6-3.9
		C365.9,288.3,365.2,286,361.9,285.1z"/>
</g>
<g opacity="0.45" filter="url(#ds1)">
	<path fill="#E96667" d="M319.4,263.4c1.6,1.3,3.8,1.9,5.8,1.4c1.5-0.3,2.5-1.5,4.1-1.3c1.7,0.3,2.3,1.2,4.8,1.8
		c1.8,0.4,3.6-0.5,4.9-1.8c2.1-2.3,1.2-3.7,3.3-4.2c1.9-0.4,2.3,3,3.8,4.2c2.9,2.4,7.2,2,9.6-0.9c2.4-2.9,2-7.2-0.9-9.6
		c-1.2-1-2.5-1.2-3.9-1.6c-1.4-0.4-1.8-1.2-2.4-2.5c-0.5-1.2-1.4-2.1-2.2-3.1c-1.5-1.7-1.1-3.3-1.2-5.4c-0.1-1.9-1-3.8-2.4-5
		c-1.5-1.2-3.5-1.8-5.4-1.5c-1.2,0.2-2.5,0.7-3.8,0.5c-1.3-0.3-2.4-1.4-3.6-2c-2.7-1.2-6-0.4-7.9,1.9c-1.2,1.4-1.1,3.5-2.2,5
		c-1.2,1.8-3.7,1.9-5.1,3.6c-1.5,1.9-2,4.4-1.2,6.7c0.8,2.3,3.8,3.4,3.8,6.1C317.2,258.9,316.8,261.3,319.4,263.4z"/>
	<path fill="none" stroke="#B4474C" stroke-width="1.489" stroke-miterlimit="10" d="M319.4,263.4c1.6,1.3,3.8,1.9,5.8,1.4
		c1.5-0.3,2.5-1.5,4.1-1.3c1.7,0.3,2.3,1.2,4.8,1.8c1.8,0.4,3.6-0.5,4.9-1.8c2.1-2.3,1.2-3.7,3.3-4.2c1.9-0.4,2.3,3,3.8,4.2
		c2.9,2.4,7.2,2,9.6-0.9c2.4-2.9,2-7.2-0.9-9.6c-1.2-1-2.5-1.2-3.9-1.6c-1.4-0.4-1.8-1.2-2.4-2.5c-0.5-1.2-1.4-2.1-2.2-3.1
		c-1.5-1.7-1.1-3.3-1.2-5.4c-0.1-1.9-1-3.8-2.4-5c-1.5-1.2-3.5-1.8-5.4-1.5c-1.2,0.2-2.5,0.7-3.8,0.5c-1.3-0.3-2.4-1.4-3.6-2
		c-2.7-1.2-6-0.4-7.9,1.9c-1.2,1.4-1.1,3.5-2.2,5c-1.2,1.8-3.7,1.9-5.1,3.6c-1.5,1.9-2,4.4-1.2,6.7c0.8,2.3,3.8,3.4,3.8,6.1
		C317.2,258.9,316.8,261.3,319.4,263.4z"/>
</g>
<g opacity="0.45" filter="url(#ds1)">
	<path fill="#E96667" d="M373.3,256.7c1.6,1.3,3.8,1.9,5.8,1.4c1.5-0.3,2.5-1.5,4.1-1.3c1.7,0.3,2.3,1.2,4.8,1.8
		c1.8,0.4,3.6-0.5,4.9-1.8c2.1-2.3,1.2-3.7,3.3-4.2c1.9-0.4,2.3,3,3.8,4.2c2.9,2.4,7.2,2,9.6-0.9c2.4-2.9,2-7.2-0.9-9.6
		c-1.2-1-2.5-1.2-3.9-1.6c-1.4-0.4-1.8-1.2-2.4-2.5c-0.5-1.2-1.4-2.1-2.2-3.1c-1.5-1.7-1.1-3.3-1.2-5.4c-0.1-1.9-1-3.8-2.4-5
		c-1.5-1.2-3.5-1.8-5.4-1.5c-1.2,0.2-2.5,0.7-3.8,0.5c-1.3-0.3-2.4-1.4-3.6-2c-2.7-1.2-6-0.4-7.9,1.9c-1.2,1.4-1.1,3.5-2.2,5
		c-1.2,1.8-3.7,1.9-5.1,3.6c-1.5,1.9-2,4.4-1.2,6.7c0.8,2.3,3.8,3.4,3.8,6.1C371.1,252.2,370.8,254.6,373.3,256.7z"/>
	<path fill="none" stroke="#B4474C" stroke-width="1.489" stroke-miterlimit="10" d="M373.3,256.7c1.6,1.3,3.8,1.9,5.8,1.4
		c1.5-0.3,2.5-1.5,4.1-1.3c1.7,0.3,2.3,1.2,4.8,1.8c1.8,0.4,3.6-0.5,4.9-1.8c2.1-2.3,1.2-3.7,3.3-4.2c1.9-0.4,2.3,3,3.8,4.2
		c2.9,2.4,7.2,2,9.6-0.9c2.4-2.9,2-7.2-0.9-9.6c-1.2-1-2.5-1.2-3.9-1.6c-1.4-0.4-1.8-1.2-2.4-2.5c-0.5-1.2-1.4-2.1-2.2-3.1
		c-1.5-1.7-1.1-3.3-1.2-5.4c-0.1-1.9-1-3.8-2.4-5c-1.5-1.2-3.5-1.8-5.4-1.5c-1.2,0.2-2.5,0.7-3.8,0.5c-1.3-0.3-2.4-1.4-3.6-2
		c-2.7-1.2-6-0.4-7.9,1.9c-1.2,1.4-1.1,3.5-2.2,5c-1.2,1.8-3.7,1.9-5.1,3.6c-1.5,1.9-2,4.4-1.2,6.7c0.8,2.3,3.8,3.4,3.8,6.1
		C371.1,252.2,370.8,254.6,373.3,256.7z"/>
</g>
<g opacity="0.45" filter="url(#ds1)">
	<path fill="#E96667" d="M443,225.4c-2.1,0.2-4,1.4-5.1,3.2c-0.8,1.3-0.6,2.8-1.9,3.9c-1.4,1.1-2.5,0.9-4.6,2.2
		c-1.6,1-2.2,3-2.1,4.8c0.2,3.1,1.9,3.4,0.7,5.3c-1,1.7-3.7-0.4-5.7-0.2c-3.7,0.4-6.5,3.8-6.1,7.5c0.4,3.7,3.8,6.5,7.5,6.1
		c1.6-0.2,2.6-1,3.9-1.7c1.3-0.7,2.1-0.5,3.4,0c1.2,0.4,2.5,0.5,3.8,0.6c2.2,0.1,3.2,1.5,4.7,2.9c1.4,1.3,3.4,1.9,5.3,1.7
		c1.9-0.2,3.7-1.3,4.8-2.8c0.7-1,1.2-2.3,2.3-3.1c1.1-0.8,2.7-0.7,3.9-1.3c2.7-1.2,4.5-4.1,4.1-7c-0.2-1.8-1.8-3.2-2.1-5.1
		c-0.4-2.1,1.1-4,0.9-6.2c-0.3-2.4-1.8-4.5-4-5.5c-2.3-1-5.1,0.4-7-1.5C447.7,227,446.3,225.1,443,225.4z"/>
	<path fill="none" stroke="#B4474C" stroke-width="1.489" stroke-miterlimit="10" d="M443,225.4c-2.1,0.2-4,1.4-5.1,3.2
		c-0.8,1.3-0.6,2.8-1.9,3.9c-1.4,1.1-2.5,0.9-4.6,2.2c-1.6,1-2.2,3-2.1,4.8c0.2,3.1,1.9,3.4,0.7,5.3c-1,1.7-3.7-0.4-5.7-0.2
		c-3.7,0.4-6.5,3.8-6.1,7.5c0.4,3.7,3.8,6.5,7.5,6.1c1.6-0.2,2.6-1,3.9-1.7c1.3-0.7,2.1-0.5,3.4,0c1.2,0.4,2.5,0.5,3.8,0.6
		c2.2,0.1,3.2,1.5,4.7,2.9c1.4,1.3,3.4,1.9,5.3,1.7c1.9-0.2,3.7-1.3,4.8-2.8c0.7-1,1.2-2.3,2.3-3.1c1.1-0.8,2.7-0.7,3.9-1.3
		c2.7-1.2,4.5-4.1,4.1-7c-0.2-1.8-1.8-3.2-2.1-5.1c-0.4-2.1,1.1-4,0.9-6.2c-0.3-2.4-1.8-4.5-4-5.5c-2.3-1-5.1,0.4-7-1.5
		C447.7,227,446.3,225.1,443,225.4z"/>
</g>
<g opacity="0.45" filter="url(#ds1)">
	<path fill="#E96667" d="M457.5,307.1c1.6-1.4,2.5-3.4,2.4-5.5c-0.1-1.5-1.1-2.7-0.6-4.3c0.5-1.7,1.6-2.1,2.5-4.4
		c0.7-1.7,0.1-3.7-1-5.1c-1.9-2.4-3.5-1.7-3.6-3.9c-0.1-2,3.3-1.8,4.8-3.1c2.8-2.5,3.2-6.8,0.7-9.6c-2.5-2.8-6.8-3.2-9.6-0.7
		c-1.2,1-1.6,2.2-2.2,3.6c-0.7,1.3-1.4,1.6-2.8,2c-1.2,0.4-2.3,1-3.4,1.7c-1.9,1.2-3.4,0.6-5.5,0.3c-1.9-0.2-3.9,0.3-5.3,1.6
		c-1.5,1.3-2.3,3.1-2.4,5.1c0,1.2,0.3,2.6-0.1,3.8c-0.5,1.3-1.8,2.1-2.5,3.3c-1.6,2.5-1.4,5.9,0.6,8.1c1.2,1.4,3.3,1.7,4.6,3
		c1.5,1.5,1.3,3.9,2.8,5.6c1.6,1.8,4.1,2.7,6.4,2.2c2.4-0.5,3.9-3.2,6.6-2.7C452.7,308.5,454.9,309.3,457.5,307.1z"/>
	<path fill="none" stroke="#B4474C" stroke-width="1.489" stroke-miterlimit="10" d="M457.5,307.1c1.6-1.4,2.5-3.4,2.4-5.5
		c-0.1-1.5-1.1-2.7-0.6-4.3c0.5-1.7,1.6-2.1,2.5-4.4c0.7-1.7,0.1-3.7-1-5.1c-1.9-2.4-3.5-1.7-3.6-3.9c-0.1-2,3.3-1.8,4.8-3.1
		c2.8-2.5,3.2-6.8,0.7-9.6c-2.5-2.8-6.8-3.2-9.6-0.7c-1.2,1-1.6,2.2-2.2,3.6c-0.7,1.3-1.4,1.6-2.8,2c-1.2,0.4-2.3,1-3.4,1.7
		c-1.9,1.2-3.4,0.6-5.5,0.3c-1.9-0.2-3.9,0.3-5.3,1.6c-1.5,1.3-2.3,3.1-2.4,5.1c0,1.2,0.3,2.6-0.1,3.8c-0.5,1.3-1.8,2.1-2.5,3.3
		c-1.6,2.5-1.4,5.9,0.6,8.1c1.2,1.4,3.3,1.7,4.6,3c1.5,1.5,1.3,3.9,2.8,5.6c1.6,1.8,4.1,2.7,6.4,2.2c2.4-0.5,3.9-3.2,6.6-2.7
		C452.7,308.5,454.9,309.3,457.5,307.1z"/>
</g>
<g>
	<path fill="#6D6E70" d="M431.6,409c-21.8,0-43.5,0-65.3,0c-14.5-14.5-14.5-38,0-52.6c21.8,0,43.5,0,65.3,0
		C446.1,370.9,446.1,394.5,431.6,409z"/>
	<g>
		<g>
			<path fill="#E8E8E8" d="M365.7,378.9c1.5,0,3.3,0.6,3.3,1.7v1.2h-1.4v-0.6c0-0.6-0.9-0.9-1.8-0.9c-1.8,0-2.9,1.2-2.9,3
				c0,1.8,1.1,3.2,3,3.2c0.7,0,2-0.2,2-0.9v-0.9h-1.5v-1.2h3v2.6c0,1.3-2.3,1.8-3.5,1.8c-2.6,0-4.5-1.9-4.5-4.4
				C361.2,380.8,363.1,378.9,365.7,378.9z"/>
			<path fill="#E8E8E8" d="M370.5,386.4h1v-6.1h-1v-1.3h3.6v1.3h-1v6h2.5V385h1.3v2.6h-6.5V386.4z"/>
			<path fill="#E8E8E8" d="M378.9,386.4h1V384l-2.3-3.8h-0.8v-1.2h3.2v1.2h-0.8l1.3,2.2c0.1,0.1,0.1,0.2,0.1,0.3c0,0,0,0.1,0,0.1h0
				c0,0,0-0.1,0-0.1c0-0.1,0.1-0.2,0.1-0.3l1.3-2.2h-0.8v-1.2h3.1v1.2h-0.8l-2.3,3.8v2.4h1v1.2h-3.6V386.4z"/>
			<path fill="#E8E8E8" d="M389.4,378.9c1,0,3.3,0.4,3.3,1.7v1.2h-1.4v-0.7c0-0.6-1.1-0.9-1.8-0.9c-1.6,0-2.8,1.2-2.8,3
				c0,1.9,1.2,3.2,2.9,3.2c0.5,0,1.8-0.2,1.8-0.8v-0.7h1.4v1.2c0,1.3-2.2,1.7-3.4,1.7c-2.6,0-4.4-1.9-4.4-4.4
				C385,380.8,386.9,378.9,389.4,378.9z"/>
			<path fill="#E8E8E8" d="M398.3,378.9c2.5,0,4.4,1.9,4.4,4.3c0,2.5-1.9,4.5-4.4,4.5c-2.5,0-4.4-2-4.4-4.5
				C393.9,380.9,395.8,378.9,398.3,378.9z M398.3,386.4c1.5,0,2.8-1.3,2.8-3.1c0-1.7-1.3-3-2.8-3s-2.8,1.3-2.8,3
				C395.5,385.1,396.8,386.4,398.3,386.4z"/>
			<path fill="#E8E8E8" d="M403.9,386.4h1v-6.1h-1v-1.3h3.6v1.3h-1v6h2.5V385h1.3v2.6h-6.5V386.4z"/>
			<path fill="#E8E8E8" d="M412.2,386.4h1V384l-2.3-3.8h-0.8v-1.2h3.2v1.2h-0.8l1.3,2.2c0.1,0.1,0.1,0.2,0.1,0.3c0,0,0,0.1,0,0.1h0
				c0,0,0-0.1,0-0.1c0-0.1,0.1-0.2,0.1-0.3l1.3-2.2h-0.8v-1.2h3.1v1.2h-0.8l-2.3,3.8v2.4h1v1.2h-3.6V386.4z"/>
			<path fill="#E8E8E8" d="M419.9,384.9v0.6c0,0.5,0.7,0.9,1.5,0.9c0.9,0,1.5-0.4,1.5-1.1c0-0.9-1-1.1-2-1.5
				c-1.1-0.4-2.3-0.9-2.3-2.5c0-1.7,1.4-2.4,2.9-2.4c1.3,0,2.7,0.5,2.7,1.5v1.1h-1.4V381c0-0.4-0.6-0.7-1.3-0.7
				c-0.7,0-1.3,0.3-1.3,0.9c0,0.8,0.8,1,1.7,1.4c1.3,0.4,2.5,1,2.5,2.6c0,1.7-1.5,2.5-3.1,2.5c-1.4,0-2.9-0.6-2.9-1.9v-1H419.9z"/>
			<path fill="#E8E8E8" d="M425.7,386.4h1v-6.2h-1v-1.2h3.6v1.2h-1v6.2h1v1.2h-3.6V386.4z"/>
			<path fill="#E8E8E8" d="M431.9,384.9v0.6c0,0.5,0.7,0.9,1.5,0.9c0.9,0,1.5-0.4,1.5-1.1c0-0.9-1-1.1-2-1.5
				c-1.1-0.4-2.3-0.9-2.3-2.5c0-1.7,1.4-2.4,2.9-2.4c1.3,0,2.7,0.5,2.7,1.5v1.1h-1.4V381c0-0.4-0.6-0.7-1.3-0.7
				c-0.7,0-1.3,0.3-1.3,0.9c0,0.8,0.8,1,1.7,1.4c1.3,0.4,2.5,1,2.5,2.6c0,1.7-1.5,2.5-3.1,2.5c-1.4,0-2.9-0.6-2.9-1.9v-1H431.9z"/>
		</g>
	</g>
</g>
<g>
	<g filter="url(#ds1)">
		<rect x="551.2" y="212.9" fill="#FFFFFF" width="109.9" height="27.7"/>
	</g>
	<g>
		<g>
			<path fill="#6D6E70" d="M569.3,221.5c2,0,4.3,0.8,4.3,2.2v1.4h-1.5v-0.8c0-0.9-1.5-1.4-2.8-1.4c-2.6,0-4.3,1.8-4.3,4.4
				c0,2.6,1.7,4.5,4.4,4.5c1,0,3-0.3,3-1.4v-1.5h-2.2v-1.2h3.7v3.2c0,1.7-2.9,2.4-4.6,2.4c-3.5,0-5.9-2.5-5.9-5.9
				S565.8,221.5,569.3,221.5z"/>
			<path fill="#6D6E70" d="M575.7,231.8h1.4V223h-1.4v-1.3h4.4v1.3h-1.4v8.7h3.9v-1.8h1.4v3.1h-8.4V231.8z"/>
			<path fill="#6D6E70" d="M586.8,231.8h1.4v-3.5l-3.2-5.3H584v-1.2h3.9v1.2h-1.2l2.1,3.6c0.1,0.2,0.2,0.5,0.2,0.5h0
				c0,0,0.1-0.2,0.2-0.5l2.1-3.6h-1.2v-1.2h3.9v1.2H593l-3.2,5.3v3.5h1.4v1.2h-4.4V231.8z"/>
			<path fill="#6D6E70" d="M600.5,221.5c1.4,0,4.3,0.5,4.3,2.2v1.4h-1.5v-0.9c0-1-1.7-1.4-2.8-1.4c-2.4,0-4.2,1.8-4.2,4.3
				c0,2.7,1.8,4.6,4.3,4.6c0.8,0,2.8-0.3,2.8-1.3v-0.9h1.5v1.4c0,1.7-2.8,2.2-4.4,2.2c-3.4,0-5.8-2.6-5.8-5.9
				C594.7,224,597.2,221.5,600.5,221.5z"/>
			<path fill="#6D6E70" d="M606.7,231.8h1.4V223h-1.4v-1.2h8.2v2.6h-1.4V223h-3.8v3.6h4v1.3h-4v3.7h4v-1.4h1.4v2.7h-8.5V231.8z"/>
			<path fill="#6D6E70" d="M616.8,231.8h1.4V223h-1.4v-1.2h4.9c0.8,0,1.5,0,2.1,0.2c1.2,0.4,2,1.4,2,2.9c0,1.6-0.9,2.8-2.3,3.2v0
				c0,0,0.3,0.2,0.5,0.5l1.6,2.8c0.2,0.3,0.4,0.4,0.8,0.4h0.3v1.2h-1c-1,0-1.2-0.2-1.6-0.8l-1.7-3.1c-0.3-0.5-0.5-0.6-1.2-0.6h-1.3
				v3.3h1.4v1.2h-4.4V231.8z M622.1,227.2c1.2,0,2-0.8,2-2.1c0-0.9-0.4-1.5-1.1-1.8c-0.4-0.1-0.8-0.2-1.4-0.2h-1.9v4.1H622.1z"/>
			<path fill="#6D6E70" d="M633.6,221.5c3.3,0,5.8,2.5,5.8,5.8c0,3.3-2.5,5.9-5.8,5.9c-3.3,0-5.8-2.6-5.8-5.9
				C627.8,224,630.4,221.5,633.6,221.5z M633.6,231.8c2.3,0,4.1-2,4.1-4.5c0-2.5-1.9-4.4-4.1-4.4c-2.3,0-4.2,1.9-4.2,4.4
				C629.5,229.8,631.3,231.8,633.6,231.8z"/>
			<path fill="#6D6E70" d="M641,231.8h1.4V223H641v-1.3h4.4v1.3H644v8.7h3.9v-1.8h1.4v3.1H641V231.8z"/>
		</g>
	</g>
</g>
<g>
	<g filter="url(#ds1)">
		<rect x="175.1" y="59.3" fill="#FFFFFF" width="112.5" height="27.7"/>
	</g>
	<g>
		<g>
			<path fill="#6D6E70" d="M192,67.9c2,0,4.3,0.8,4.3,2.2v1.4h-1.5v-0.8c0-0.9-1.5-1.4-2.8-1.4c-2.6,0-4.3,1.8-4.3,4.4
				c0,2.6,1.7,4.5,4.4,4.5c1,0,3-0.3,3-1.4v-1.5h-2.2V74h3.7v3.2c0,1.7-2.9,2.4-4.6,2.4c-3.5,0-5.9-2.5-5.9-5.9S188.5,67.9,192,67.9
				z"/>
			<path fill="#6D6E70" d="M198.4,78.1h1.4v-8.7h-1.4v-1.3h4.4v1.3h-1.4V78h3.9v-1.8h1.4v3.1h-8.4V78.1z"/>
			<path fill="#6D6E70" d="M209.5,78.1h1.4v-3.5l-3.2-5.3h-1.1v-1.2h3.9v1.2h-1.2l2.1,3.6c0.1,0.2,0.2,0.5,0.2,0.5h0
				c0,0,0.1-0.2,0.2-0.5l2.1-3.6h-1.2v-1.2h3.9v1.2h-1.1l-3.2,5.3v3.5h1.4v1.2h-4.4V78.1z"/>
			<path fill="#6D6E70" d="M223.2,67.9c1.4,0,4.3,0.5,4.3,2.2v1.4H226v-0.9c0-1-1.7-1.4-2.8-1.4c-2.4,0-4.2,1.8-4.2,4.3
				c0,2.7,1.8,4.6,4.3,4.6c0.8,0,2.8-0.3,2.8-1.3v-0.9h1.5v1.4c0,1.7-2.8,2.2-4.4,2.2c-3.4,0-5.8-2.6-5.8-5.9
				C217.4,70.3,219.9,67.9,223.2,67.9z"/>
			<path fill="#6D6E70" d="M235.1,67.9c3.3,0,5.8,2.5,5.8,5.8c0,3.3-2.5,5.9-5.8,5.9c-3.3,0-5.8-2.6-5.8-5.9
				C229.3,70.4,231.8,67.9,235.1,67.9z M235.1,78.1c2.3,0,4.1-2,4.1-4.5c0-2.5-1.9-4.4-4.1-4.4c-2.3,0-4.2,1.9-4.2,4.4
				C230.9,76.2,232.8,78.1,235.1,78.1z"/>
			<path fill="#6D6E70" d="M248.4,67.9c2,0,4.3,0.8,4.3,2.2v1.4h-1.5v-0.8c0-0.9-1.5-1.4-2.8-1.4c-2.6,0-4.3,1.8-4.3,4.4
				c0,2.6,1.7,4.5,4.4,4.5c1,0,3-0.3,3-1.4v-1.5h-2.2V74h3.7v3.2c0,1.7-2.9,2.4-4.6,2.4c-3.5,0-5.9-2.5-5.9-5.9
				S244.8,67.9,248.4,67.9z"/>
			<path fill="#6D6E70" d="M254.8,78.1h1.4v-8.8h-1.4v-1.2h8.2v2.6h-1.4v-1.3h-3.8V73h4v1.3h-4V78h4v-1.4h1.4v2.7h-8.5V78.1z"/>
			<path fill="#6D6E70" d="M264.9,78.1h1.4v-8.8h-1.4v-1.2h3l5.6,8.1c0.2,0.3,0.4,0.8,0.4,0.8h0c0,0-0.1-0.6-0.1-0.9v-6.8h-1.4v-1.2
				h4.5v1.2h-1.4v10.1h-1.6l-5.6-8.1c-0.2-0.3-0.4-0.8-0.4-0.8h0c0,0,0.1,0.6,0.1,0.9v6.8h1.5v1.2h-4.5V78.1z"/>
		</g>
	</g>
</g>
<g opacity="0.45" filter="url(#ds1)">
	<path fill="#F49F38" d="M594.1,263.7c0,0.1,0,0.1,0,0.2c-0.4,1.7-1.6,3.2-2,4.9c-0.4,1.8,0.2,3.8-0.2,5.5c-0.4,1.9-1.9,3.3-2.2,5.2
		c-0.3,1.8,0.4,3.6,0,5.4c-0.7,3.4-4,5.6-7.4,4.8c-3.4-0.7-5.6-4-4.8-7.4c0.3-1.3,1.1-2.1,1.7-3.3c0.6-1.1,1-2.7,0.8-4
		c-0.2-1.2-0.5-2.1-0.3-3.3c0.4-1.7,1.9-2.9,2.5-4.6c0.6-1.9-0.7-4-0.3-6c0.7-3.4,4-5.6,7.4-4.8C592.6,257,594.7,260.3,594.1,263.7z
		"/>
	<path fill="none" stroke="#C66320" stroke-width="1.4874" stroke-miterlimit="10" d="M594.1,263.7c0,0.1,0,0.1,0,0.2
		c-0.4,1.7-1.6,3.2-2,4.9c-0.4,1.8,0.2,3.8-0.2,5.5c-0.4,1.9-1.9,3.3-2.2,5.2c-0.3,1.8,0.4,3.6,0,5.4c-0.7,3.4-4,5.6-7.4,4.8
		c-3.4-0.7-5.6-4-4.8-7.4c0.3-1.3,1.1-2.1,1.7-3.3c0.6-1.1,1-2.7,0.8-4c-0.2-1.2-0.5-2.1-0.3-3.3c0.4-1.7,1.9-2.9,2.5-4.6
		c0.6-1.9-0.7-4-0.3-6c0.7-3.4,4-5.6,7.4-4.8C592.6,257,594.7,260.3,594.1,263.7z"/>
</g>
<g opacity="0.45" filter="url(#ds1)">
	<path fill="#F49F38" d="M616.3,286.2c0,0.1-0.1,0.1-0.1,0.2c-1.1,1.4-2.7,2.2-3.8,3.6c-1.1,1.5-1.4,3.5-2.4,5
		c-1.1,1.6-3.1,2.2-4.2,3.8c-1,1.5-1.1,3.5-2.2,4.9c-2,2.8-6,3.4-8.7,1.4c-2.8-2-3.4-6-1.4-8.7c0.8-1.1,1.9-1.5,2.9-2.3
		c1-0.8,2-2,2.4-3.3c0.3-1.2,0.4-2.1,1.1-3.2c1-1.4,3-1.9,4.2-3.2c1.4-1.5,1-3.9,2.2-5.6c2-2.8,6-3.4,8.7-1.4
		C617.7,279.5,618.3,283.5,616.3,286.2z"/>
	<path fill="none" stroke="#C66320" stroke-width="1.4874" stroke-miterlimit="10" d="M616.3,286.2c0,0.1-0.1,0.1-0.1,0.2
		c-1.1,1.4-2.7,2.2-3.8,3.6c-1.1,1.5-1.4,3.5-2.4,5c-1.1,1.6-3.1,2.2-4.2,3.8c-1,1.5-1.1,3.5-2.2,4.9c-2,2.8-6,3.4-8.7,1.4
		c-2.8-2-3.4-6-1.4-8.7c0.8-1.1,1.9-1.5,2.9-2.3c1-0.8,2-2,2.4-3.3c0.3-1.2,0.4-2.1,1.1-3.2c1-1.4,3-1.9,4.2-3.2
		c1.4-1.5,1-3.9,2.2-5.6c2-2.8,6-3.4,8.7-1.4C617.7,279.5,618.3,283.5,616.3,286.2z"/>
</g>
<g>
	<g filter="url(#ds1)">
		<rect x="355.7" y="254.4" fill="#FFFFFF" width="105.7" height="27.7"/>
	</g>
	<g>
		<g>
			<path fill="#6D6E70" d="M375.8,263c2,0,4.3,0.8,4.3,2.2v1.4h-1.5v-0.8c0-0.9-1.5-1.4-2.8-1.4c-2.6,0-4.3,1.8-4.3,4.4
				c0,2.6,1.7,4.5,4.4,4.5c1,0,3-0.3,3-1.4v-1.5h-2.2v-1.2h3.7v3.2c0,1.7-2.9,2.4-4.6,2.4c-3.5,0-5.9-2.5-5.9-5.9
				C369.9,265.4,372.3,263,375.8,263z"/>
			<path fill="#6D6E70" d="M382.3,273.2h1.4v-8.7h-1.4v-1.3h4.4v1.3h-1.4v8.7h3.9v-1.8h1.4v3.1h-8.4V273.2z"/>
			<path fill="#6D6E70" d="M392.8,264.4h-1.4v-1.2h4.5v1.2h-1.4v5.8c0,0.7,0.1,1.4,0.4,1.8c0.5,0.7,1.3,1.2,2.4,1.2
				c1.1,0,2-0.4,2.4-1.2c0.3-0.5,0.4-1.1,0.4-1.8v-5.8h-1.4v-1.2h4.4v1.2h-1.4v5.9c0,1.1-0.3,2-0.8,2.8c-0.8,1.1-2.1,1.6-3.7,1.6
				c-1.6,0-2.9-0.6-3.7-1.6c-0.5-0.7-0.8-1.7-0.8-2.8V264.4z"/>
			<path fill="#6D6E70" d="M410.1,263c1.4,0,4.3,0.5,4.3,2.2v1.4h-1.5v-0.9c0-1-1.7-1.4-2.8-1.4c-2.4,0-4.2,1.8-4.2,4.3
				c0,2.7,1.8,4.6,4.3,4.6c0.8,0,2.8-0.3,2.8-1.3V271h1.5v1.4c0,1.7-2.8,2.2-4.4,2.2c-3.4,0-5.8-2.6-5.8-5.9
				C404.3,265.4,406.8,263,410.1,263z"/>
			<path fill="#6D6E70" d="M422,263c3.3,0,5.8,2.5,5.8,5.8c0,3.3-2.5,5.9-5.8,5.9c-3.3,0-5.8-2.6-5.8-5.9
				C416.2,265.5,418.7,263,422,263z M422,273.2c2.3,0,4.1-2,4.1-4.5c0-2.5-1.9-4.4-4.1-4.4c-2.3,0-4.2,1.9-4.2,4.4
				C417.8,271.3,419.7,273.2,422,273.2z"/>
			<path fill="#6D6E70" d="M430.9,271.1v0.8c0,0.8,1.1,1.3,2.3,1.3c1.3,0,2.2-0.6,2.2-1.7c0-1.3-1.3-1.7-2.7-2.3
				c-1.5-0.6-3-1.2-3-3.2c0-2.1,1.7-3,3.6-3c1.7,0,3.4,0.6,3.4,1.9v1.3h-1.5v-0.8c0-0.7-1-1-1.9-1c-1.1,0-2,0.5-2,1.6
				c0,1.2,1.1,1.6,2.4,2.1c1.7,0.6,3.3,1.3,3.3,3.4c0,2.2-1.8,3.3-3.9,3.3c-1.8,0-3.7-0.8-3.7-2.4v-1.2H430.9z"/>
			<path fill="#6D6E70" d="M438.7,273.2h1.4v-8.8h-1.4v-1.2h8.2v2.6h-1.4v-1.3h-3.8v3.6h4v1.3h-4v3.7h4v-1.4h1.4v2.7h-8.5V273.2z"/>
		</g>
	</g>
</g>
</svg>
