<?xml version="1.0" encoding="utf-8"?>
<!-- Generator: Adobe Illustrator 18.1.1, SVG Export Plug-In . SVG Version: 6.00 Build 0)  -->
<!DOCTYPE svg PUBLIC "-//W3C//DTD SVG 1.1//EN" "http://www.w3.org/Graphics/SVG/1.1/DTD/svg11.dtd">
<svg version="1.1" id="Layer_1" xmlns="http://www.w3.org/2000/svg" xmlns:xlink="http://www.w3.org/1999/xlink" x="0px" y="0px"
	 viewBox="0 0 920 690" enable-background="new 0 0 920 690" xml:space="preserve">
<filter  height="170%" width="170%" id="ds1" y="-20%" x="-30%">
	<feOffset  in="SourceAlpha" result="offOut" dy="1" dx="0"></feOffset>
	<feGaussianBlur  in="offOut" stdDeviation="2" result="blurOut"></feGaussianBlur>
	<feComponentTransfer>
		<feFuncA  type="linear" slope="0.5"></feFuncA>
	</feComponentTransfer>
	<feMerge>
		<feMergeNode></feMergeNode>
		<feMergeNode  in="SourceGraphic"></feMergeNode>
	</feMerge>
</filter>
<g filter="url(#ds1)">
	<path fill="#F9DA55" d="M838.3,254.7c0.7-0.7,1.1-1.5,1.4-2.4c0.8-2.2,2.5-3.9,4.6-4.9c0.7-0.3,1.4-0.8,2-1.4
		c2.6-2.7,2.5-7.2-0.2-9.7c-2.8-2.6-7.1-2.5-9.7,0.3c-0.6,0.6-1,1.4-1.3,2.1c-0.9,2.3-2.6,4.1-4.8,5.2c-0.7,0.4-1.4,0.9-2,1.5
		c-0.6,0.6-1,1.4-1.3,2.1c-0.9,2.3-2.6,4.1-4.8,5.2c-0.7,0.4-1.4,0.9-2,1.5c-0.6,0.6-1,1.4-1.3,2.1c-0.9,2.3-2.6,4.1-4.8,5.2
		c-0.7,0.4-1.4,0.9-2,1.5s-1,1.4-1.3,2.1c-0.9,2.3-2.6,4.1-4.8,5.2c-0.7,0.4-1.4,0.9-2,1.5c-0.6,0.6-1,1.4-1.3,2.1
		c-0.9,2.3-2.6,4.1-4.8,5.2c-0.7,0.4-1.4,0.9-2,1.5c-0.6,0.6-1,1.4-1.3,2.1c-0.9,2.3-2.6,4.1-4.8,5.2c-0.7,0.4-1.4,0.9-2,1.5
		c-0.6,0.6-1,1.4-1.3,2.1c-0.9,2.3-2.6,4.1-4.8,5.2c-0.7,0.4-1.4,0.9-2,1.5c-0.6,0.6-1,1.4-1.3,2.1c-0.9,2.3-2.6,4.1-4.8,5.2
		c-0.7,0.4-1.4,0.9-2,1.5c-0.6,0.6-1,1.4-1.3,2.1c-0.9,2.3-2.6,4.1-4.8,5.2c-0.7,0.4-1.4,0.9-2,1.5c-0.6,0.6-1,1.4-1.3,2.1
		c-0.9,2.3-2.6,4.1-4.8,5.2c-0.7,0.4-1.4,0.9-2,1.5c-0.7,0.7-1.1,1.5-1.4,2.4c-0.8,2.2-2.5,3.9-4.6,4.9c-0.7,0.3-1.4,0.8-2,1.4
		c-2.6,2.7-2.5,7.2,0.2,9.7c2.8,2.6,7.1,2.5,9.7-0.3c0.6-0.6,1-1.4,1.3-2.1c0.9-2.3,2.6-4.1,4.8-5.2c0.7-0.4,1.4-0.9,2-1.5
		c0.6-0.6,1-1.4,1.3-2.1c0.9-2.3,2.6-4.1,4.8-5.2c0.7-0.4,1.4-0.9,2-1.5c0.6-0.6,1-1.4,1.3-2.1c0.9-2.3,2.6-4.1,4.8-5.2
		c0.7-0.4,1.4-0.9,2-1.5c0.6-0.6,1-1.4,1.3-2.1c0.9-2.3,2.6-4.1,4.8-5.2c0.7-0.4,1.4-0.9,2-1.5c0.6-0.6,1-1.4,1.3-2.1
		c0.9-2.3,2.6-4.1,4.8-5.2c0.7-0.4,1.4-0.9,2-1.5c0.6-0.6,1-1.4,1.3-2.1c0.9-2.3,2.6-4.1,4.8-5.2c0.7-0.4,1.4-0.9,2-1.5
		c0.6-0.6,1-1.4,1.3-2.1c0.9-2.3,2.6-4.1,4.8-5.2c0.7-0.4,1.4-0.9,2-1.5c0.6-0.6,1-1.4,1.3-2.1c0.9-2.3,2.6-4.1,4.8-5.2
		c0.7-0.4,1.4-0.9,2-1.5c0.6-0.6,1-1.4,1.3-2.1c0.9-2.3,2.6-4.1,4.8-5.2c0.7-0.4,1.4-0.9,2-1.5c0.6-0.6,1-1.4,1.3-2.1
		c0.9-2.3,2.6-4.1,4.8-5.2C837,255.8,837.7,255.3,838.3,254.7z"/>
	<path fill="none" stroke="#D6971A" stroke-width="1.489" stroke-miterlimit="10" d="M838.3,254.7c0.7-0.7,1.1-1.5,1.4-2.4
		c0.8-2.2,2.5-3.9,4.6-4.9c0.7-0.3,1.4-0.8,2-1.4c2.6-2.7,2.5-7.2-0.2-9.7c-2.8-2.6-7.1-2.5-9.7,0.3c-0.6,0.6-1,1.4-1.3,2.1
		c-0.9,2.3-2.6,4.1-4.8,5.2c-0.7,0.4-1.4,0.9-2,1.5c-0.6,0.6-1,1.4-1.3,2.1c-0.9,2.3-2.6,4.1-4.8,5.2c-0.7,0.4-1.4,0.9-2,1.5
		c-0.6,0.6-1,1.4-1.3,2.1c-0.9,2.3-2.6,4.1-4.8,5.2c-0.7,0.4-1.4,0.9-2,1.5s-1,1.4-1.3,2.1c-0.9,2.3-2.6,4.1-4.8,5.2
		c-0.7,0.4-1.4,0.9-2,1.5c-0.6,0.6-1,1.4-1.3,2.1c-0.9,2.3-2.6,4.1-4.8,5.2c-0.7,0.4-1.4,0.9-2,1.5c-0.6,0.6-1,1.4-1.3,2.1
		c-0.9,2.3-2.6,4.1-4.8,5.2c-0.7,0.4-1.4,0.9-2,1.5c-0.6,0.6-1,1.4-1.3,2.1c-0.9,2.3-2.6,4.1-4.8,5.2c-0.7,0.4-1.4,0.9-2,1.5
		c-0.6,0.6-1,1.4-1.3,2.1c-0.9,2.3-2.6,4.1-4.8,5.2c-0.7,0.4-1.4,0.9-2,1.5c-0.6,0.6-1,1.4-1.3,2.1c-0.9,2.3-2.6,4.1-4.8,5.2
		c-0.7,0.4-1.4,0.9-2,1.5c-0.6,0.6-1,1.4-1.3,2.1c-0.9,2.3-2.6,4.1-4.8,5.2c-0.7,0.4-1.4,0.9-2,1.5c-0.7,0.7-1.1,1.5-1.4,2.4
		c-0.8,2.2-2.5,3.9-4.6,4.9c-0.7,0.3-1.4,0.8-2,1.4c-2.6,2.7-2.5,7.2,0.2,9.7c2.8,2.6,7.1,2.5,9.7-0.3c0.6-0.6,1-1.4,1.3-2.1
		c0.9-2.3,2.6-4.1,4.8-5.2c0.7-0.4,1.4-0.9,2-1.5c0.6-0.6,1-1.4,1.3-2.1c0.9-2.3,2.6-4.1,4.8-5.2c0.7-0.4,1.4-0.9,2-1.5
		c0.6-0.6,1-1.4,1.3-2.1c0.9-2.3,2.6-4.1,4.8-5.2c0.7-0.4,1.4-0.9,2-1.5c0.6-0.6,1-1.4,1.3-2.1c0.9-2.3,2.6-4.1,4.8-5.2
		c0.7-0.4,1.4-0.9,2-1.5c0.6-0.6,1-1.4,1.3-2.1c0.9-2.3,2.6-4.1,4.8-5.2c0.7-0.4,1.4-0.9,2-1.5c0.6-0.6,1-1.4,1.3-2.1
		c0.9-2.3,2.6-4.1,4.8-5.2c0.7-0.4,1.4-0.9,2-1.5c0.6-0.6,1-1.4,1.3-2.1c0.9-2.3,2.6-4.1,4.8-5.2c0.7-0.4,1.4-0.9,2-1.5
		c0.6-0.6,1-1.4,1.3-2.1c0.9-2.3,2.6-4.1,4.8-5.2c0.7-0.4,1.4-0.9,2-1.5c0.6-0.6,1-1.4,1.3-2.1c0.9-2.3,2.6-4.1,4.8-5.2
		c0.7-0.4,1.4-0.9,2-1.5c0.6-0.6,1-1.4,1.3-2.1c0.9-2.3,2.6-4.1,4.8-5.2C837,255.8,837.7,255.3,838.3,254.7z"/>
</g>
<g opacity="0.45" filter="url(#ds1)">
	<path fill="#E96667" d="M498.5,273.8c-0.7-1.9-2.4-3.5-4.4-4.1c-1.5-0.4-2.9,0.1-4.2-0.9c-1.4-1.1-1.5-2.2-3.3-3.9
		c-1.4-1.2-3.4-1.3-5.2-0.8c-2.9,0.9-2.8,2.7-4.9,2.1c-1.9-0.6-0.5-3.7-1.3-5.5c-1.4-3.5-5.3-5.3-8.8-3.9c-3.5,1.4-5.3,5.3-3.9,8.8
		c0.6,1.5,1.6,2.2,2.6,3.3c1,1.1,1,1.9,0.9,3.3c-0.1,1.3,0.1,2.5,0.4,3.8c0.5,2.2-0.6,3.4-1.6,5.3c-0.9,1.7-1,3.7-0.3,5.5
		c0.7,1.8,2.2,3.3,4,3.9c1.2,0.4,2.6,0.6,3.5,1.4c1,0.9,1.4,2.4,2.2,3.5c1.8,2.4,5.1,3.3,7.8,2.2c1.7-0.7,2.7-2.5,4.4-3.4
		c1.9-0.9,4.2,0.1,6.2-0.7c2.3-0.9,3.9-2.9,4.3-5.3c0.4-2.4-1.7-4.8-0.3-7.1C498.2,278.9,499.7,277,498.5,273.8z"/>
	<path fill="none" stroke="#B4474C" stroke-width="1.489" stroke-miterlimit="10" d="M498.5,273.8c-0.7-1.9-2.4-3.5-4.4-4.1
		c-1.5-0.4-2.9,0.1-4.2-0.9c-1.4-1.1-1.5-2.2-3.3-3.9c-1.4-1.2-3.4-1.3-5.2-0.8c-2.9,0.9-2.8,2.7-4.9,2.1c-1.9-0.6-0.5-3.7-1.3-5.5
		c-1.4-3.5-5.3-5.3-8.8-3.9c-3.5,1.4-5.3,5.3-3.9,8.8c0.6,1.5,1.6,2.2,2.6,3.3c1,1.1,1,1.9,0.9,3.3c-0.1,1.3,0.1,2.5,0.4,3.8
		c0.5,2.2-0.6,3.4-1.6,5.3c-0.9,1.7-1,3.7-0.3,5.5c0.7,1.8,2.2,3.3,4,3.9c1.2,0.4,2.6,0.6,3.5,1.4c1,0.9,1.4,2.4,2.2,3.5
		c1.8,2.4,5.1,3.3,7.8,2.2c1.7-0.7,2.7-2.5,4.4-3.4c1.9-0.9,4.2,0.1,6.2-0.7c2.3-0.9,3.9-2.9,4.3-5.3c0.4-2.4-1.7-4.8-0.3-7.1
		C498.2,278.9,499.7,277,498.5,273.8z"/>
</g>
<g opacity="0.45" filter="url(#ds1)">
	<path fill="#E96667" d="M321.5,269c1.6,1.3,3.8,1.9,5.8,1.4c1.5-0.3,2.5-1.5,4.1-1.3c1.7,0.3,2.3,1.2,4.8,1.8
		c1.8,0.4,3.6-0.5,4.9-1.8c2.1-2.3,1.2-3.7,3.3-4.2c1.9-0.4,2.3,3,3.8,4.2c2.9,2.4,7.2,2,9.6-0.9c2.4-2.9,2-7.2-0.9-9.6
		c-1.2-1-2.5-1.2-3.9-1.6c-1.4-0.4-1.8-1.2-2.4-2.5c-0.5-1.2-1.4-2.1-2.2-3.1c-1.5-1.7-1.1-3.3-1.2-5.4c-0.1-1.9-1-3.8-2.4-5
		c-1.5-1.2-3.5-1.8-5.4-1.5c-1.2,0.2-2.5,0.7-3.8,0.5c-1.3-0.3-2.4-1.4-3.6-2c-2.7-1.2-6-0.4-7.9,1.9c-1.2,1.4-1.1,3.5-2.2,5
		c-1.2,1.8-3.7,1.9-5.1,3.6c-1.5,1.9-2,4.4-1.2,6.7c0.8,2.3,3.8,3.4,3.8,6.1C319.3,264.5,319,266.9,321.5,269z"/>
	<path fill="none" stroke="#B4474C" stroke-width="1.489" stroke-miterlimit="10" d="M321.5,269c1.6,1.3,3.8,1.9,5.8,1.4
		c1.5-0.3,2.5-1.5,4.1-1.3c1.7,0.3,2.3,1.2,4.8,1.8c1.8,0.4,3.6-0.5,4.9-1.8c2.1-2.3,1.2-3.7,3.3-4.2c1.9-0.4,2.3,3,3.8,4.2
		c2.9,2.4,7.2,2,9.6-0.9c2.4-2.9,2-7.2-0.9-9.6c-1.2-1-2.5-1.2-3.9-1.6c-1.4-0.4-1.8-1.2-2.4-2.5c-0.5-1.2-1.4-2.1-2.2-3.1
		c-1.5-1.7-1.1-3.3-1.2-5.4c-0.1-1.9-1-3.8-2.4-5c-1.5-1.2-3.5-1.8-5.4-1.5c-1.2,0.2-2.5,0.7-3.8,0.5c-1.3-0.3-2.4-1.4-3.6-2
		c-2.7-1.2-6-0.4-7.9,1.9c-1.2,1.4-1.1,3.5-2.2,5c-1.2,1.8-3.7,1.9-5.1,3.6c-1.5,1.9-2,4.4-1.2,6.7c0.8,2.3,3.8,3.4,3.8,6.1
		C319.3,264.5,319,266.9,321.5,269z"/>
</g>
<g opacity="0.45" filter="url(#ds1)">
	<path fill="#E96667" d="M372.3,252.3c1.6,1.3,3.8,1.9,5.8,1.4c1.5-0.3,2.5-1.5,4.1-1.3c1.7,0.3,2.3,1.2,4.8,1.8
		c1.8,0.4,3.6-0.5,4.9-1.8c2.1-2.3,1.2-3.7,3.3-4.2c1.9-0.4,2.3,3,3.8,4.2c2.9,2.4,7.2,2,9.6-0.9c2.4-2.9,2-7.2-0.9-9.6
		c-1.2-1-2.5-1.2-3.9-1.6c-1.4-0.4-1.8-1.2-2.4-2.5c-0.5-1.2-1.4-2.1-2.2-3.1c-1.5-1.7-1.1-3.3-1.2-5.4c-0.1-1.9-1-3.8-2.4-5
		c-1.5-1.2-3.5-1.8-5.4-1.5c-1.2,0.2-2.5,0.7-3.8,0.5c-1.3-0.3-2.4-1.4-3.6-2c-2.7-1.2-6-0.4-7.9,1.9c-1.2,1.4-1.1,3.5-2.2,5
		c-1.2,1.8-3.7,1.9-5.1,3.6c-1.5,1.9-2,4.4-1.2,6.7c0.8,2.3,3.8,3.4,3.8,6.1C370.1,247.8,369.8,250.2,372.3,252.3z"/>
	<path fill="none" stroke="#B4474C" stroke-width="1.489" stroke-miterlimit="10" d="M372.3,252.3c1.6,1.3,3.8,1.9,5.8,1.4
		c1.5-0.3,2.5-1.5,4.1-1.3c1.7,0.3,2.3,1.2,4.8,1.8c1.8,0.4,3.6-0.5,4.9-1.8c2.1-2.3,1.2-3.7,3.3-4.2c1.9-0.4,2.3,3,3.8,4.2
		c2.9,2.4,7.2,2,9.6-0.9c2.4-2.9,2-7.2-0.9-9.6c-1.2-1-2.5-1.2-3.9-1.6c-1.4-0.4-1.8-1.2-2.4-2.5c-0.5-1.2-1.4-2.1-2.2-3.1
		c-1.5-1.7-1.1-3.3-1.2-5.4c-0.1-1.9-1-3.8-2.4-5c-1.5-1.2-3.5-1.8-5.4-1.5c-1.2,0.2-2.5,0.7-3.8,0.5c-1.3-0.3-2.4-1.4-3.6-2
		c-2.7-1.2-6-0.4-7.9,1.9c-1.2,1.4-1.1,3.5-2.2,5c-1.2,1.8-3.7,1.9-5.1,3.6c-1.5,1.9-2,4.4-1.2,6.7c0.8,2.3,3.8,3.4,3.8,6.1
		C370.1,247.8,369.8,250.2,372.3,252.3z"/>
</g>
<g opacity="0.45" filter="url(#ds1)">
	<path fill="#E96667" d="M443,225.4c-2.1,0.2-4,1.4-5.1,3.2c-0.8,1.3-0.6,2.8-1.9,3.9c-1.4,1.1-2.5,0.9-4.6,2.2
		c-1.6,1-2.2,3-2.1,4.8c0.2,3.1,1.9,3.4,0.7,5.3c-1,1.7-3.7-0.4-5.7-0.2c-3.7,0.4-6.5,3.8-6.1,7.5c0.4,3.7,3.8,6.5,7.5,6.1
		c1.6-0.2,2.6-1,3.9-1.7c1.3-0.7,2.1-0.5,3.4,0c1.2,0.4,2.5,0.5,3.8,0.6c2.2,0.1,3.2,1.5,4.7,2.9c1.4,1.3,3.4,1.9,5.3,1.7
		c1.9-0.2,3.7-1.3,4.8-2.8c0.7-1,1.2-2.3,2.3-3.1c1.1-0.8,2.7-0.7,3.9-1.3c2.7-1.2,4.5-4.1,4.1-7c-0.2-1.8-1.8-3.2-2.1-5.1
		c-0.4-2.1,1.1-4,0.9-6.2c-0.3-2.4-1.8-4.5-4-5.5c-2.3-1-5.1,0.4-7-1.5C447.7,227,446.3,225.1,443,225.4z"/>
	<path fill="none" stroke="#B4474C" stroke-width="1.489" stroke-miterlimit="10" d="M443,225.4c-2.1,0.2-4,1.4-5.1,3.2
		c-0.8,1.3-0.6,2.8-1.9,3.9c-1.4,1.1-2.5,0.9-4.6,2.2c-1.6,1-2.2,3-2.1,4.8c0.2,3.1,1.9,3.4,0.7,5.3c-1,1.7-3.7-0.4-5.7-0.2
		c-3.7,0.4-6.5,3.8-6.1,7.5c0.4,3.7,3.8,6.5,7.5,6.1c1.6-0.2,2.6-1,3.9-1.7c1.3-0.7,2.1-0.5,3.4,0c1.2,0.4,2.5,0.5,3.8,0.6
		c2.2,0.1,3.2,1.5,4.7,2.9c1.4,1.3,3.4,1.9,5.3,1.7c1.9-0.2,3.7-1.3,4.8-2.8c0.7-1,1.2-2.3,2.3-3.1c1.1-0.8,2.7-0.7,3.9-1.3
		c2.7-1.2,4.5-4.1,4.1-7c-0.2-1.8-1.8-3.2-2.1-5.1c-0.4-2.1,1.1-4,0.9-6.2c-0.3-2.4-1.8-4.5-4-5.5c-2.3-1-5.1,0.4-7-1.5
		C447.7,227,446.3,225.1,443,225.4z"/>
</g>
<g opacity="0.45" filter="url(#ds1)">
	<circle fill="#E96667" cx="438" cy="572.6" r="6.8"/>
	<circle fill="none" stroke="#B4474C" stroke-width="1.489" stroke-miterlimit="10" cx="438" cy="572.6" r="6.8"/>
</g>
<g opacity="0.45" filter="url(#ds1)">
	<path fill="#E96667" stroke="#B4474C" stroke-miterlimit="10" d="M156,146c0-1-0.4-2.1-1.2-2.7c-0.6-0.5-1.4-0.5-1.8-1.2
		c-0.4-0.8-0.3-1.3-0.8-2.4c-0.4-0.8-1.3-1.3-2.2-1.3c-1.5-0.1-1.8,0.7-2.7,0c-0.8-0.6,0.5-1.8,0.5-2.8c0-1.9-1.5-3.4-3.3-3.5
		c-1.9,0-3.4,1.5-3.5,3.3c0,0.8,0.3,1.3,0.6,2c0.3,0.7,0.1,1.1-0.2,1.7c-0.3,0.6-0.4,1.2-0.5,1.8c-0.2,1.1-0.9,1.5-1.7,2.1
		c-0.7,0.6-1.2,1.5-1.2,2.5c0,1,0.4,1.9,1.1,2.6c0.5,0.4,1.1,0.8,1.4,1.3c0.3,0.6,0.2,1.4,0.4,2c0.4,1.4,1.7,2.5,3.2,2.5
		c0.9,0,1.7-0.7,2.6-0.7c1.1-0.1,1.9,0.8,3,0.9c1.2,0,2.4-0.6,3-1.6c0.6-1.1,0.1-2.5,1.2-3.4C154.9,148.3,155.9,147.7,156,146z"/>
	<path fill="#E96667" stroke="#B4474C" stroke-miterlimit="10" d="M174.1,146c0-1-0.4-2.1-1.2-2.7c-0.6-0.5-1.4-0.5-1.8-1.2
		c-0.4-0.8-0.3-1.3-0.8-2.4c-0.4-0.8-1.3-1.3-2.2-1.3c-1.5-0.1-1.8,0.7-2.7,0c-0.8-0.6,0.5-1.8,0.5-2.8c0-1.9-1.5-3.4-3.3-3.5
		c-1.9,0-3.4,1.5-3.5,3.3c0,0.8,0.3,1.3,0.6,2c0.3,0.7,0.1,1.1-0.2,1.7c-0.3,0.6-0.4,1.2-0.5,1.8c-0.2,1.1-0.9,1.5-1.7,2.1
		c-0.7,0.6-1.2,1.5-1.2,2.5c0,1,0.4,1.9,1.1,2.6c0.5,0.4,1.1,0.8,1.4,1.3c0.3,0.6,0.2,1.4,0.4,2c0.4,1.4,1.7,2.5,3.2,2.5
		c0.9,0,1.7-0.7,2.6-0.7c1.1-0.1,1.9,0.8,3,0.9c1.2,0,2.4-0.6,3-1.6c0.6-1.1,0.1-2.5,1.2-3.4C173,148.3,174.1,147.7,174.1,146z"/>
	<path fill="#E96667" stroke="#B4474C" stroke-miterlimit="10" d="M192.2,146.1c0-1-0.4-2.1-1.2-2.7c-0.6-0.5-1.4-0.5-1.8-1.2
		c-0.4-0.8-0.3-1.3-0.8-2.4c-0.4-0.8-1.3-1.3-2.2-1.3c-1.5-0.1-1.8,0.7-2.7,0c-0.8-0.6,0.5-1.8,0.5-2.8c0-1.9-1.5-3.4-3.3-3.5
		c-1.9,0-3.4,1.5-3.5,3.3c0,0.8,0.3,1.3,0.6,2c0.3,0.7,0.1,1.1-0.2,1.7c-0.3,0.6-0.4,1.2-0.5,1.8c-0.2,1.1-0.9,1.5-1.7,2.1
		c-0.7,0.6-1.2,1.5-1.2,2.5c0,1,0.4,1.9,1.1,2.6c0.5,0.4,1.1,0.8,1.4,1.3c0.3,0.6,0.2,1.4,0.4,2c0.4,1.4,1.7,2.5,3.2,2.5
		c0.9,0,1.7-0.7,2.6-0.7c1.1-0.1,1.9,0.8,3,0.9c1.2,0,2.4-0.6,3-1.6c0.6-1.1,0.1-2.5,1.2-3.4C191.2,148.3,192.2,147.7,192.2,146.1z"
		/>
	<path fill="#E96667" stroke="#B4474C" stroke-miterlimit="10" d="M210.4,146.1c0-1-0.4-2.1-1.2-2.7c-0.6-0.5-1.4-0.5-1.8-1.2
		c-0.4-0.8-0.3-1.3-0.8-2.4c-0.4-0.8-1.3-1.3-2.2-1.3c-1.5-0.1-1.8,0.7-2.7,0c-0.8-0.6,0.5-1.8,0.5-2.8c0-1.9-1.5-3.4-3.3-3.5
		c-1.9,0-3.4,1.5-3.5,3.3c0,0.8,0.3,1.3,0.6,2c0.3,0.7,0.1,1.1-0.2,1.7c-0.3,0.6-0.4,1.2-0.5,1.8c-0.2,1.1-0.9,1.5-1.7,2.1
		c-0.7,0.6-1.2,1.5-1.2,2.5c0,1,0.4,1.9,1.1,2.6c0.5,0.4,1.1,0.8,1.4,1.3c0.3,0.6,0.2,1.4,0.4,2c0.4,1.4,1.7,2.5,3.2,2.5
		c0.9,0,1.7-0.7,2.6-0.7c1.1-0.1,1.9,0.8,3,0.9c1.2,0,2.4-0.6,3-1.6c0.6-1.1,0.1-2.5,1.2-3.4C209.3,148.3,210.3,147.8,210.4,146.1z"
		/>
	<path fill="#E96667" stroke="#B4474C" stroke-miterlimit="10" d="M228.5,146.1c0-1-0.4-2.1-1.2-2.7c-0.6-0.5-1.4-0.5-1.8-1.2
		c-0.4-0.8-0.3-1.3-0.8-2.4c-0.4-0.8-1.3-1.3-2.2-1.3c-1.5-0.1-1.8,0.7-2.7,0c-0.8-0.6,0.5-1.8,0.5-2.8c0-1.9-1.5-3.4-3.3-3.5
		c-1.9,0-3.4,1.5-3.5,3.3c0,0.8,0.3,1.3,0.6,2c0.3,0.7,0.1,1.1-0.2,1.7c-0.3,0.6-0.4,1.2-0.5,1.8c-0.2,1.1-0.9,1.5-1.7,2.1
		c-0.7,0.6-1.2,1.5-1.2,2.5c0,1,0.4,1.9,1.1,2.6c0.5,0.4,1.1,0.8,1.4,1.3c0.3,0.6,0.2,1.4,0.4,2c0.4,1.4,1.7,2.5,3.2,2.5
		c0.9,0,1.7-0.7,2.6-0.7c1.1-0.1,1.9,0.8,3,0.9c1.2,0,2.4-0.6,3-1.6c0.6-1.1,0.1-2.5,1.2-3.4C227.4,148.4,228.5,147.8,228.5,146.1z"
		/>
	<path fill="#E96667" stroke="#B4474C" stroke-miterlimit="10" d="M246.6,146.1c0-1-0.4-2.1-1.2-2.7c-0.6-0.5-1.4-0.5-1.8-1.2
		c-0.4-0.8-0.3-1.3-0.8-2.4c-0.4-0.8-1.3-1.3-2.2-1.3c-1.5-0.1-1.8,0.7-2.7,0c-0.8-0.6,0.5-1.8,0.5-2.8c0-1.9-1.5-3.4-3.3-3.5
		c-1.9,0-3.4,1.5-3.5,3.3c0,0.8,0.3,1.3,0.6,2c0.3,0.7,0.1,1.1-0.2,1.7c-0.3,0.6-0.4,1.2-0.5,1.8c-0.2,1.1-0.9,1.5-1.7,2.1
		c-0.7,0.6-1.2,1.5-1.2,2.5c0,1,0.4,1.9,1.1,2.6c0.5,0.4,1.1,0.8,1.4,1.3c0.3,0.6,0.2,1.4,0.4,2c0.4,1.4,1.7,2.5,3.2,2.5
		c0.9,0,1.7-0.7,2.6-0.7c1.1-0.1,1.9,0.8,3,0.9c1.2,0,2.4-0.6,3-1.6c0.6-1.1,0.1-2.5,1.2-3.4C245.6,148.4,246.6,147.8,246.6,146.1z"
		/>
	<path fill="#E96667" stroke="#B4474C" stroke-miterlimit="10" d="M264.8,146.1c0-1-0.4-2.1-1.2-2.7c-0.6-0.5-1.4-0.5-1.8-1.2
		c-0.4-0.8-0.3-1.3-0.8-2.4c-0.4-0.8-1.3-1.3-2.2-1.3c-1.5-0.1-1.8,0.7-2.7,0c-0.8-0.6,0.5-1.8,0.5-2.8c0-1.9-1.5-3.4-3.3-3.5
		c-1.9,0-3.4,1.5-3.5,3.3c0,0.8,0.3,1.3,0.6,2c0.3,0.7,0.1,1.1-0.2,1.7c-0.3,0.6-0.4,1.2-0.5,1.8c-0.2,1.1-0.9,1.5-1.7,2.1
		c-0.7,0.6-1.2,1.5-1.2,2.5c0,1,0.4,1.9,1.1,2.6c0.5,0.4,1.1,0.8,1.4,1.3c0.3,0.6,0.2,1.4,0.4,2c0.4,1.4,1.7,2.5,3.2,2.5
		c0.9,0,1.7-0.7,2.6-0.7c1.1-0.1,1.9,0.8,3,0.9c1.2,0,2.4-0.6,3-1.6c0.6-1.1,0.1-2.5,1.2-3.4C263.7,148.4,264.7,147.8,264.8,146.1z"
		/>
	<path fill="#E96667" stroke="#B4474C" stroke-miterlimit="10" d="M282.9,146.2c0-1-0.4-2.1-1.2-2.7c-0.6-0.5-1.4-0.5-1.8-1.2
		c-0.4-0.8-0.3-1.3-0.8-2.4c-0.4-0.8-1.3-1.3-2.2-1.3c-1.5-0.1-1.8,0.7-2.7,0c-0.8-0.6,0.5-1.8,0.5-2.8c0-1.9-1.5-3.4-3.3-3.5
		c-1.9,0-3.4,1.5-3.5,3.3c0,0.8,0.3,1.3,0.6,2c0.3,0.7,0.1,1.1-0.2,1.7c-0.3,0.6-0.4,1.2-0.5,1.8c-0.2,1.1-0.9,1.5-1.7,2.1
		c-0.7,0.6-1.2,1.5-1.2,2.5c0,1,0.4,1.9,1.1,2.6c0.5,0.4,1.1,0.8,1.4,1.3c0.3,0.6,0.2,1.4,0.4,2c0.4,1.4,1.7,2.5,3.2,2.5
		c0.9,0,1.7-0.7,2.6-0.7c1.1-0.1,1.9,0.8,3,0.9c1.2,0,2.4-0.6,3-1.6c0.6-1.1,0.1-2.5,1.2-3.4C281.8,148.4,282.9,147.8,282.9,146.2z"
		/>
	<path fill="#E96667" stroke="#B4474C" stroke-miterlimit="10" d="M301,146.2c0-1-0.4-2.1-1.2-2.7c-0.6-0.5-1.4-0.5-1.8-1.2
		c-0.4-0.8-0.3-1.3-0.8-2.4c-0.4-0.8-1.3-1.3-2.2-1.3c-1.5-0.1-1.8,0.7-2.7,0c-0.8-0.6,0.5-1.8,0.5-2.8c0-1.9-1.5-3.4-3.3-3.5
		c-1.9,0-3.4,1.5-3.5,3.3c0,0.8,0.3,1.3,0.6,2c0.3,0.7,0.1,1.1-0.2,1.7c-0.3,0.6-0.4,1.2-0.5,1.8c-0.2,1.1-0.9,1.5-1.7,2.1
		c-0.7,0.6-1.2,1.5-1.2,2.5c0,1,0.4,1.9,1.1,2.6c0.5,0.4,1.1,0.8,1.4,1.3c0.3,0.6,0.2,1.4,0.4,2c0.4,1.4,1.7,2.5,3.2,2.5
		c0.9,0,1.7-0.7,2.6-0.7c1.1-0.1,1.9,0.8,3,0.9c1.2,0,2.4-0.6,3-1.6c0.6-1.1,0.1-2.5,1.2-3.4C299.9,148.4,301,147.9,301,146.2z"/>
	<path fill="#E96667" stroke="#B4474C" stroke-miterlimit="10" d="M319.2,146.2c0-1-0.4-2.1-1.2-2.7c-0.6-0.5-1.4-0.5-1.8-1.2
		c-0.4-0.8-0.3-1.3-0.8-2.4c-0.4-0.8-1.3-1.3-2.2-1.3c-1.5-0.1-1.8,0.7-2.7,0c-0.8-0.6,0.5-1.8,0.5-2.8c0-1.9-1.5-3.4-3.3-3.5
		c-1.9,0-3.4,1.5-3.5,3.3c0,0.8,0.3,1.3,0.6,2c0.3,0.7,0.1,1.1-0.2,1.7c-0.3,0.6-0.4,1.2-0.5,1.8c-0.2,1.1-0.9,1.5-1.7,2.1
		c-0.7,0.6-1.2,1.5-1.2,2.5c0,1,0.4,1.9,1.1,2.6c0.5,0.4,1.1,0.8,1.4,1.3c0.3,0.6,0.2,1.4,0.4,2c0.4,1.4,1.7,2.5,3.2,2.5
		c0.9,0,1.7-0.7,2.6-0.7c1.1-0.1,1.9,0.8,3,0.9c1.2,0,2.4-0.6,3-1.6c0.6-1.1,0.1-2.5,1.2-3.4C318.1,148.5,319.1,147.9,319.2,146.2z"
		/>
	<path fill="#E96667" stroke="#B4474C" stroke-miterlimit="10" d="M337.3,146.2c0-1-0.4-2.1-1.2-2.7c-0.6-0.5-1.4-0.5-1.8-1.2
		c-0.4-0.8-0.3-1.3-0.8-2.4c-0.4-0.8-1.3-1.3-2.2-1.3c-1.5-0.1-1.8,0.7-2.7,0c-0.8-0.6,0.5-1.8,0.5-2.8c0-1.9-1.5-3.4-3.3-3.5
		c-1.9,0-3.4,1.5-3.5,3.3c0,0.8,0.3,1.3,0.6,2c0.3,0.7,0.1,1.1-0.2,1.7c-0.3,0.6-0.4,1.2-0.5,1.8c-0.2,1.1-0.9,1.5-1.7,2.1
		c-0.7,0.6-1.2,1.5-1.2,2.5c0,1,0.4,1.9,1.1,2.6c0.5,0.4,1.1,0.8,1.4,1.3c0.3,0.6,0.2,1.4,0.4,2c0.4,1.4,1.7,2.5,3.2,2.5
		c0.9,0,1.7-0.7,2.6-0.7c1.1-0.1,1.9,0.8,3,0.9c1.2,0,2.4-0.6,3-1.6c0.6-1.1,0.1-2.5,1.2-3.4C336.2,148.5,337.2,147.9,337.3,146.2z"
		/>
	<path fill="#E96667" stroke="#B4474C" stroke-miterlimit="10" d="M355.4,146.2c0-1-0.4-2.1-1.2-2.7c-0.6-0.5-1.4-0.5-1.8-1.2
		c-0.4-0.8-0.3-1.3-0.8-2.4c-0.4-0.8-1.3-1.3-2.2-1.3c-1.5-0.1-1.8,0.7-2.7,0c-0.8-0.6,0.5-1.8,0.5-2.8c0-1.9-1.5-3.4-3.3-3.5
		c-1.9,0-3.4,1.5-3.5,3.3c0,0.8,0.3,1.3,0.6,2c0.3,0.7,0.1,1.1-0.2,1.7c-0.3,0.6-0.4,1.2-0.5,1.8c-0.2,1.1-0.9,1.5-1.7,2.1
		c-0.7,0.6-1.2,1.5-1.2,2.5c0,1,0.4,1.9,1.1,2.6c0.5,0.4,1.1,0.8,1.4,1.3c0.3,0.6,0.2,1.4,0.4,2c0.4,1.4,1.7,2.5,3.2,2.5
		c0.9,0,1.7-0.7,2.6-0.7c1.1-0.1,1.9,0.8,3,0.9c1.2,0,2.4-0.6,3-1.6c0.6-1.1,0.1-2.5,1.2-3.4C354.3,148.5,355.4,147.9,355.4,146.2z"
		/>
	<path fill="#E96667" stroke="#B4474C" stroke-miterlimit="10" d="M203.7,58.4c0.6-0.8,0.8-1.9,0.6-2.9c-0.2-0.7-0.8-1.2-0.8-2
		c0.1-0.9,0.5-1.2,0.8-2.4c0.2-0.9-0.3-1.8-1.1-2.4c-1.2-1-1.9-0.5-2.2-1.5c-0.3-1,1.4-1.2,2-2c1.1-1.5,0.8-3.7-0.7-4.8
		c-1.5-1.1-3.7-0.8-4.8,0.7c-0.5,0.6-0.5,1.3-0.7,2c-0.2,0.7-0.5,0.9-1.2,1.3c-0.6,0.3-1,0.7-1.5,1.2c-0.8,0.8-1.6,0.7-2.7,0.7
		c-1,0.1-1.8,0.6-2.4,1.4c-0.6,0.8-0.8,1.8-0.6,2.7c0.1,0.6,0.4,1.2,0.4,1.9c-0.1,0.7-0.6,1.2-0.9,1.9c-0.5,1.4,0,3,1.2,3.9
		c0.7,0.6,1.8,0.5,2.6,0.9c0.9,0.6,1.1,1.8,2,2.4c1,0.7,2.3,0.9,3.4,0.4c1.1-0.5,1.6-2,2.9-2C201.5,59.7,202.7,59.8,203.7,58.4z"/>
	<path fill="#E96667" stroke="#B4474C" stroke-miterlimit="10" d="M218.5,69c0.6-0.8,0.8-1.9,0.6-2.9c-0.2-0.7-0.8-1.2-0.8-2
		c0.1-0.9,0.5-1.2,0.8-2.4c0.2-0.9-0.3-1.8-1.1-2.4c-1.2-1-1.9-0.5-2.2-1.5c-0.3-1,1.4-1.2,2-2c1.1-1.5,0.8-3.7-0.7-4.8
		c-1.5-1.1-3.7-0.8-4.8,0.7c-0.5,0.6-0.5,1.3-0.7,2c-0.2,0.7-0.5,0.9-1.2,1.3c-0.6,0.3-1,0.7-1.5,1.2c-0.8,0.8-1.6,0.7-2.7,0.7
		c-1,0.1-1.8,0.6-2.4,1.4c-0.6,0.8-0.8,1.8-0.6,2.7c0.1,0.6,0.4,1.2,0.4,1.9c-0.1,0.7-0.6,1.2-0.9,1.9c-0.5,1.4,0,3,1.2,3.9
		c0.7,0.6,1.8,0.5,2.6,0.9c0.9,0.6,1.1,1.8,2,2.4c1,0.7,2.3,0.9,3.4,0.4c1.1-0.5,1.6-2,2.9-2C216.3,70.2,217.5,70.3,218.5,69z"/>
	<path fill="#E96667" stroke="#B4474C" stroke-miterlimit="10" d="M233.2,79.5c0.6-0.8,0.8-1.9,0.6-2.9c-0.2-0.7-0.8-1.2-0.8-2
		c0.1-0.9,0.5-1.2,0.8-2.4c0.2-0.9-0.3-1.8-1.1-2.4c-1.2-1-1.9-0.5-2.2-1.5c-0.3-1,1.4-1.2,2-2c1.1-1.5,0.8-3.7-0.7-4.8
		c-1.5-1.1-3.7-0.8-4.8,0.7c-0.5,0.6-0.5,1.3-0.7,2c-0.2,0.7-0.5,0.9-1.2,1.3c-0.6,0.3-1,0.7-1.5,1.2c-0.8,0.8-1.6,0.7-2.7,0.7
		c-1,0.1-1.8,0.6-2.4,1.4c-0.6,0.8-0.8,1.8-0.6,2.7c0.1,0.6,0.4,1.2,0.4,1.9c-0.1,0.7-0.6,1.2-0.9,1.9c-0.5,1.4,0,3,1.2,3.9
		c0.7,0.6,1.8,0.5,2.6,0.9c0.9,0.6,1.1,1.8,2,2.4c1,0.7,2.3,0.9,3.4,0.4c1.1-0.5,1.6-2,2.9-2C231.1,80.7,232.2,80.8,233.2,79.5z"/>
	<path fill="#E96667" stroke="#B4474C" stroke-miterlimit="10" d="M174.3,37.5c0.6-0.8,0.8-1.9,0.6-2.9c-0.2-0.7-0.8-1.2-0.8-2
		c0.1-0.9,0.5-1.2,0.8-2.4c0.2-0.9-0.3-1.8-1.1-2.4c-1.2-1-1.9-0.5-2.2-1.5c-0.3-1,1.4-1.2,2-2c1.1-1.5,0.8-3.7-0.7-4.8
		c-1.5-1.1-3.7-0.8-4.8,0.7c-0.5,0.6-0.5,1.3-0.7,2c-0.2,0.7-0.5,0.9-1.2,1.3c-0.6,0.3-1,0.7-1.5,1.2c-0.8,0.8-1.6,0.7-2.7,0.7
		c-1,0.1-1.8,0.6-2.4,1.4c-0.6,0.8-0.8,1.8-0.6,2.7c0.1,0.6,0.4,1.2,0.4,1.9c-0.1,0.7-0.6,1.2-0.9,1.9c-0.5,1.4,0,3,1.2,3.9
		c0.7,0.6,1.8,0.5,2.6,0.9c0.9,0.6,1.1,1.8,2,2.4c1,0.7,2.3,0.9,3.4,0.4c1.1-0.5,1.6-2,2.9-2C172.1,38.7,173.3,38.9,174.3,37.5z"/>
	<path fill="#E96667" stroke="#B4474C" stroke-miterlimit="10" d="M189.1,48c0.6-0.8,0.8-1.9,0.6-2.9c-0.2-0.7-0.8-1.2-0.8-2
		c0.1-0.9,0.5-1.2,0.8-2.4c0.2-0.9-0.3-1.8-1.1-2.4c-1.2-1-1.9-0.5-2.2-1.5c-0.3-1,1.4-1.2,2-2c1.1-1.5,0.8-3.7-0.7-4.8
		c-1.5-1.1-3.7-0.8-4.8,0.7c-0.5,0.6-0.5,1.3-0.7,2c-0.2,0.7-0.5,0.9-1.2,1.3c-0.6,0.3-1,0.7-1.5,1.2c-0.8,0.8-1.6,0.7-2.7,0.7
		c-1,0.1-1.8,0.6-2.4,1.4c-0.6,0.8-0.8,1.8-0.6,2.7c0.1,0.6,0.4,1.2,0.4,1.9c-0.1,0.7-0.6,1.2-0.9,1.9c-0.5,1.4,0,3,1.2,3.9
		c0.7,0.6,1.8,0.5,2.6,0.9c0.9,0.6,1.1,1.8,2,2.4c1,0.7,2.3,0.9,3.4,0.4c1.1-0.5,1.6-2,2.9-2C186.9,49.3,188.1,49.4,189.1,48z"/>
	<path fill="#E96667" stroke="#B4474C" stroke-miterlimit="10" d="M248,90c0.6-0.8,0.8-1.9,0.6-2.9c-0.2-0.7-0.8-1.2-0.8-2
		c0.1-0.9,0.5-1.2,0.8-2.4c0.2-0.9-0.3-1.8-1.1-2.4c-1.2-1-1.9-0.5-2.2-1.5c-0.3-1,1.4-1.2,2-2c1.1-1.5,0.8-3.7-0.7-4.8
		c-1.5-1.1-3.7-0.8-4.8,0.7c-0.5,0.6-0.5,1.3-0.7,2c-0.2,0.7-0.5,0.9-1.2,1.3c-0.6,0.3-1,0.7-1.5,1.2c-0.8,0.8-1.6,0.7-2.7,0.7
		c-1,0.1-1.8,0.6-2.4,1.4c-0.6,0.8-0.8,1.8-0.6,2.7c0.1,0.6,0.4,1.2,0.4,1.9c-0.1,0.7-0.6,1.2-0.9,1.9c-0.5,1.4,0,3,1.2,3.9
		c0.7,0.6,1.8,0.5,2.6,0.9c0.9,0.6,1.1,1.8,2,2.4c1,0.7,2.3,0.9,3.4,0.4c1.1-0.5,1.6-2,2.9-2C245.8,91.2,247,91.3,248,90z"/>
	<path fill="#E96667" stroke="#B4474C" stroke-miterlimit="10" d="M262.8,100.5c0.6-0.8,0.8-1.9,0.6-2.9c-0.2-0.7-0.8-1.2-0.8-2
		c0.1-0.9,0.5-1.2,0.8-2.4c0.2-0.9-0.3-1.8-1.1-2.4c-1.2-1-1.9-0.5-2.2-1.5c-0.3-1,1.4-1.2,2-2c1.1-1.5,0.8-3.7-0.7-4.8
		c-1.5-1.1-3.7-0.8-4.8,0.7c-0.5,0.6-0.5,1.3-0.7,2c-0.2,0.7-0.5,0.9-1.2,1.3c-0.6,0.3-1,0.7-1.5,1.2c-0.8,0.8-1.6,0.7-2.7,0.7
		c-1,0.1-1.8,0.6-2.4,1.4c-0.6,0.8-0.8,1.8-0.6,2.7c0.1,0.6,0.4,1.2,0.4,1.9c-0.1,0.7-0.6,1.2-0.9,1.9c-0.5,1.4,0,3,1.2,3.9
		c0.7,0.6,1.8,0.5,2.6,0.9c0.9,0.6,1.1,1.8,2,2.4c1,0.7,2.3,0.9,3.4,0.4c1.1-0.5,1.6-2,2.9-2C260.6,101.7,261.8,101.9,262.8,100.5z"
		/>
	<path fill="#E96667" stroke="#B4474C" stroke-miterlimit="10" d="M255.3,45.8c1-0.1,2-0.8,2.5-1.7c0.4-0.7,0.3-1.4,0.9-2
		c0.7-0.5,1.2-0.5,2.3-1.2c0.8-0.5,1-1.5,1-2.4c-0.1-1.5-1-1.7-0.4-2.6c0.5-0.9,1.9,0.2,2.8,0c1.9-0.3,3.2-2,2.9-3.8
		c-0.3-1.9-2-3.2-3.8-2.9c-0.8,0.1-1.3,0.5-1.9,0.9c-0.6,0.4-1,0.3-1.7,0.1c-0.6-0.2-1.2-0.2-1.9-0.2c-1.1,0-1.6-0.7-2.4-1.4
		c-0.7-0.6-1.7-0.9-2.7-0.8c-1,0.1-1.8,0.7-2.4,1.5c-0.3,0.5-0.6,1.2-1.1,1.6c-0.6,0.4-1.3,0.4-1.9,0.7c-1.4,0.6-2.2,2.1-2,3.6
		c0.1,0.9,0.9,1.6,1.1,2.5c0.2,1-0.5,2-0.4,3.1c0.2,1.2,1,2.2,2.1,2.7c1.1,0.5,2.5-0.3,3.5,0.7C252.9,45.1,253.6,46.1,255.3,45.8z"
		/>
	<path fill="#E96667" stroke="#B4474C" stroke-miterlimit="10" d="M258.1,63.7c1-0.1,2-0.8,2.5-1.7c0.4-0.7,0.3-1.4,0.9-2
		c0.7-0.5,1.2-0.5,2.3-1.2c0.8-0.5,1-1.5,1-2.4c-0.1-1.5-1-1.7-0.4-2.6c0.5-0.9,1.9,0.2,2.8,0c1.9-0.3,3.2-2,2.9-3.8
		c-0.3-1.9-2-3.2-3.8-2.9c-0.8,0.1-1.3,0.5-1.9,0.9c-0.6,0.4-1,0.3-1.7,0.1c-0.6-0.2-1.2-0.2-1.9-0.2c-1.1,0-1.6-0.7-2.4-1.4
		c-0.7-0.6-1.7-0.9-2.7-0.8c-1,0.1-1.8,0.7-2.4,1.5c-0.3,0.5-0.6,1.2-1.1,1.6c-0.6,0.4-1.3,0.4-1.9,0.7c-1.4,0.6-2.2,2.1-2,3.6
		c0.1,0.9,0.9,1.6,1.1,2.5c0.2,1-0.5,2-0.4,3.1c0.2,1.2,1,2.2,2.1,2.7c1.1,0.5,2.5-0.3,3.5,0.7C255.7,63,256.4,64,258.1,63.7z"/>
	<path fill="#E96667" stroke="#B4474C" stroke-miterlimit="10" d="M260.9,81.7c1-0.1,2-0.8,2.5-1.7c0.4-0.7,0.3-1.4,0.9-2
		c0.7-0.5,1.2-0.5,2.3-1.2c0.8-0.5,1-1.5,1-2.4c-0.1-1.5-1-1.7-0.4-2.6c0.5-0.9,1.9,0.2,2.8,0c1.9-0.3,3.2-2,2.9-3.8
		c-0.3-1.9-2-3.2-3.8-2.9c-0.8,0.1-1.3,0.5-1.9,0.9c-0.6,0.4-1,0.3-1.7,0.1c-0.6-0.2-1.2-0.2-1.9-0.2c-1.1,0-1.6-0.7-2.4-1.4
		c-0.7-0.6-1.7-0.9-2.7-0.8c-1,0.1-1.8,0.7-2.4,1.5c-0.3,0.5-0.6,1.2-1.1,1.6c-0.6,0.4-1.3,0.4-1.9,0.7c-1.4,0.6-2.2,2.1-2,3.6
		c0.1,0.9,0.9,1.6,1.1,2.5c0.2,1-0.5,2-0.4,3.1c0.2,1.2,1,2.2,2.1,2.7c1.1,0.5,2.5-0.3,3.5,0.7C258.5,80.9,259.2,81.9,260.9,81.7z"
		/>
	<path fill="#E96667" stroke="#B4474C" stroke-miterlimit="10" d="M277.5,111c0.6-0.8,0.8-1.9,0.6-2.9c-0.2-0.7-0.8-1.2-0.8-2
		c0.1-0.9,0.5-1.2,0.8-2.4c0.2-0.9-0.3-1.8-1.1-2.4c-1.2-1-1.9-0.5-2.2-1.5c-0.3-1,1.4-1.2,2-2c1.1-1.5,0.8-3.7-0.7-4.8
		c-1.5-1.1-3.7-0.8-4.8,0.7c-0.5,0.6-0.5,1.3-0.7,2c-0.2,0.7-0.5,0.9-1.2,1.3c-0.6,0.3-1,0.7-1.5,1.2c-0.8,0.8-1.6,0.7-2.7,0.7
		c-1,0.1-1.8,0.6-2.4,1.4c-0.6,0.8-0.8,1.8-0.6,2.7c0.1,0.6,0.4,1.2,0.4,1.9c-0.1,0.7-0.6,1.2-0.9,1.9c-0.5,1.4,0,3,1.2,3.9
		c0.7,0.6,1.8,0.5,2.6,0.9c0.9,0.6,1.1,1.8,2,2.4c1,0.7,2.3,0.9,3.4,0.4c1.1-0.5,1.6-2,2.9-2C275.4,112.3,276.5,112.4,277.5,111z"/>
	<path fill="#E96667" stroke="#B4474C" stroke-miterlimit="10" d="M292.3,121.6c0.6-0.8,0.8-1.9,0.6-2.9c-0.2-0.7-0.8-1.2-0.8-2
		c0.1-0.9,0.5-1.2,0.8-2.4c0.2-0.9-0.3-1.8-1.1-2.4c-1.2-1-1.9-0.5-2.2-1.5c-0.3-1,1.4-1.2,2-2c1.1-1.5,0.8-3.7-0.7-4.8
		c-1.5-1.1-3.7-0.8-4.8,0.7c-0.5,0.6-0.5,1.3-0.7,2c-0.2,0.7-0.5,0.9-1.2,1.3c-0.6,0.3-1,0.7-1.5,1.2c-0.8,0.8-1.6,0.7-2.7,0.7
		c-1,0.1-1.8,0.6-2.4,1.4c-0.6,0.8-0.8,1.8-0.6,2.7c0.1,0.6,0.4,1.2,0.4,1.9c-0.1,0.7-0.6,1.2-0.9,1.9c-0.5,1.4,0,3,1.2,3.9
		c0.7,0.6,1.8,0.5,2.6,0.9c0.9,0.6,1.1,1.8,2,2.4c1,0.7,2.3,0.9,3.4,0.4c1.1-0.5,1.6-2,2.9-2C290.1,122.8,291.3,122.9,292.3,121.6z"
		/>
	<path fill="#E96667" stroke="#B4474C" stroke-miterlimit="10" d="M307.1,132.1c0.6-0.8,0.8-1.9,0.6-2.9c-0.2-0.7-0.8-1.2-0.8-2
		c0.1-0.9,0.5-1.2,0.8-2.4c0.2-0.9-0.3-1.8-1.1-2.4c-1.2-1-1.9-0.5-2.2-1.5c-0.3-1,1.4-1.2,2-2c1.1-1.5,0.8-3.7-0.7-4.8
		c-1.5-1.1-3.7-0.8-4.8,0.7c-0.5,0.6-0.5,1.3-0.7,2c-0.2,0.7-0.5,0.9-1.2,1.3c-0.6,0.3-1,0.7-1.5,1.2c-0.8,0.8-1.6,0.7-2.7,0.7
		c-1,0.1-1.8,0.6-2.4,1.4c-0.6,0.8-0.8,1.8-0.6,2.7c0.1,0.6,0.4,1.2,0.4,1.9c-0.1,0.7-0.6,1.2-0.9,1.9c-0.5,1.4,0,3,1.2,3.9
		c0.7,0.6,1.8,0.5,2.6,0.9c0.9,0.6,1.1,1.8,2,2.4c1,0.7,2.3,0.9,3.4,0.4c1.1-0.5,1.6-2,2.9-2C304.9,133.3,306.1,133.4,307.1,132.1z"
		/>
	<path fill="#E96667" stroke="#B4474C" stroke-miterlimit="10" d="M132,76.8c0.6-0.8,0.8-1.9,0.6-2.9c-0.2-0.7-0.8-1.2-0.8-2
		c0.1-0.9,0.5-1.2,0.8-2.4c0.2-0.9-0.3-1.8-1.1-2.4c-1.2-1-1.9-0.5-2.2-1.5c-0.3-1,1.4-1.2,2-2c1.1-1.5,0.8-3.7-0.7-4.8
		c-1.5-1.1-3.7-0.8-4.8,0.7c-0.5,0.6-0.5,1.3-0.7,2c-0.2,0.7-0.5,0.9-1.2,1.3c-0.6,0.3-1,0.7-1.5,1.2c-0.8,0.8-1.6,0.7-2.7,0.7
		c-1,0.1-1.8,0.6-2.4,1.4c-0.6,0.8-0.8,1.8-0.6,2.7c0.1,0.6,0.4,1.2,0.4,1.9c-0.1,0.7-0.6,1.2-0.9,1.9c-0.5,1.4,0,3,1.2,3.9
		c0.7,0.6,1.8,0.5,2.6,0.9c0.9,0.6,1.1,1.8,2,2.4c1,0.7,2.3,0.9,3.4,0.4c1.1-0.5,1.6-2,2.9-2C129.8,78.1,131,78.2,132,76.8z"/>
	<path fill="#E96667" stroke="#B4474C" stroke-miterlimit="10" d="M146.8,87.4c0.6-0.8,0.8-1.9,0.6-2.9c-0.2-0.7-0.8-1.2-0.8-2
		c0.1-0.9,0.5-1.2,0.8-2.4c0.2-0.9-0.3-1.8-1.1-2.4c-1.2-1-1.9-0.5-2.2-1.5c-0.3-1,1.4-1.2,2-2c1.1-1.5,0.8-3.7-0.7-4.8
		c-1.5-1.1-3.7-0.8-4.8,0.7c-0.5,0.6-0.5,1.3-0.7,2c-0.2,0.7-0.5,0.9-1.2,1.3c-0.6,0.3-1,0.7-1.5,1.2c-0.8,0.8-1.6,0.7-2.7,0.7
		c-1,0.1-1.8,0.6-2.4,1.4c-0.6,0.8-0.8,1.8-0.6,2.7c0.1,0.6,0.4,1.2,0.4,1.9c-0.1,0.7-0.6,1.2-0.9,1.9c-0.5,1.4,0,3,1.2,3.9
		c0.7,0.6,1.8,0.5,2.6,0.9c0.9,0.6,1.1,1.8,2,2.4c1,0.7,2.3,0.9,3.4,0.4c1.1-0.5,1.6-2,2.9-2C144.6,88.6,145.8,88.7,146.8,87.4z"/>
	<path fill="#E96667" stroke="#B4474C" stroke-miterlimit="10" d="M161.6,97.9c0.6-0.8,0.8-1.9,0.6-2.9c-0.2-0.7-0.8-1.2-0.8-2
		c0.1-0.9,0.5-1.2,0.8-2.4c0.2-0.9-0.3-1.8-1.1-2.4c-1.2-1-1.9-0.5-2.2-1.5c-0.3-1,1.4-1.2,2-2c1.1-1.5,0.8-3.7-0.7-4.8
		c-1.5-1.1-3.7-0.8-4.8,0.7c-0.5,0.6-0.5,1.3-0.7,2c-0.2,0.7-0.5,0.9-1.2,1.3c-0.6,0.3-1,0.7-1.5,1.2c-0.8,0.8-1.6,0.7-2.7,0.7
		c-1,0.1-1.8,0.6-2.4,1.4c-0.6,0.8-0.8,1.8-0.6,2.7c0.1,0.6,0.4,1.2,0.4,1.9c-0.1,0.7-0.6,1.2-0.9,1.9c-0.5,1.4,0,3,1.2,3.9
		c0.7,0.6,1.8,0.5,2.6,0.9c0.9,0.6,1.1,1.8,2,2.4c1,0.7,2.3,0.9,3.4,0.4c1.1-0.5,1.6-2,2.9-2C159.4,99.1,160.6,99.2,161.6,97.9z"/>
	<path fill="#E96667" stroke="#B4474C" stroke-miterlimit="10" d="M176.3,108.4c0.6-0.8,0.8-1.9,0.6-2.9c-0.2-0.7-0.8-1.2-0.8-2
		c0.1-0.9,0.5-1.2,0.8-2.4c0.2-0.9-0.3-1.8-1.1-2.4c-1.2-1-1.9-0.5-2.2-1.5c-0.3-1,1.4-1.2,2-2c1.1-1.5,0.8-3.7-0.7-4.8
		c-1.5-1.1-3.7-0.8-4.8,0.7c-0.5,0.6-0.5,1.3-0.7,2c-0.2,0.7-0.5,0.9-1.2,1.3c-0.6,0.3-1,0.7-1.5,1.2c-0.8,0.8-1.6,0.7-2.7,0.7
		c-1,0.1-1.8,0.6-2.4,1.4c-0.6,0.8-0.8,1.8-0.6,2.7c0.1,0.6,0.4,1.2,0.4,1.9c-0.1,0.7-0.6,1.2-0.9,1.9c-0.5,1.4,0,3,1.2,3.9
		c0.7,0.6,1.8,0.5,2.6,0.9c0.9,0.6,1.1,1.8,2,2.4c1,0.7,2.3,0.9,3.4,0.4c1.1-0.5,1.6-2,2.9-2C174.1,109.6,175.3,109.7,176.3,108.4z"
		/>
	<path fill="#E96667" stroke="#B4474C" stroke-miterlimit="10" d="M191.1,118.9c0.6-0.8,0.8-1.9,0.6-2.9c-0.2-0.7-0.8-1.2-0.8-2
		c0.1-0.9,0.5-1.2,0.8-2.4c0.2-0.9-0.3-1.8-1.1-2.4c-1.2-1-1.9-0.5-2.2-1.5c-0.3-1,1.4-1.2,2-2c1.1-1.5,0.8-3.7-0.7-4.8
		c-1.5-1.1-3.7-0.8-4.8,0.7c-0.5,0.6-0.5,1.3-0.7,2c-0.2,0.7-0.5,0.9-1.2,1.3c-0.6,0.3-1,0.7-1.5,1.2c-0.8,0.8-1.6,0.7-2.7,0.7
		c-1,0.1-1.8,0.6-2.4,1.4c-0.6,0.8-0.8,1.8-0.6,2.7c0.1,0.6,0.4,1.2,0.4,1.9c-0.1,0.7-0.6,1.2-0.9,1.9c-0.5,1.4,0,3,1.2,3.9
		c0.7,0.6,1.8,0.5,2.6,0.9c0.9,0.6,1.1,1.8,2,2.4c1,0.7,2.3,0.9,3.4,0.4c1.1-0.5,1.6-2,2.9-2C188.9,120.1,190.1,120.3,191.1,118.9z"
		/>
	<path fill="#E96667" stroke="#B4474C" stroke-miterlimit="10" d="M205.9,129.4c0.6-0.8,0.8-1.9,0.6-2.9c-0.2-0.7-0.8-1.2-0.8-2
		c0.1-0.9,0.5-1.2,0.8-2.4c0.2-0.9-0.3-1.8-1.1-2.4c-1.2-1-1.9-0.5-2.2-1.5c-0.3-1,1.4-1.2,2-2c1.1-1.5,0.8-3.7-0.7-4.8
		c-1.5-1.1-3.7-0.8-4.8,0.7c-0.5,0.6-0.5,1.3-0.7,2c-0.2,0.7-0.5,0.9-1.2,1.3c-0.6,0.3-1,0.7-1.5,1.2c-0.8,0.8-1.6,0.7-2.7,0.7
		c-1,0.1-1.8,0.6-2.4,1.4c-0.6,0.8-0.8,1.8-0.6,2.7c0.1,0.6,0.4,1.2,0.4,1.9c-0.1,0.7-0.6,1.2-0.9,1.9c-0.5,1.4,0,3,1.2,3.9
		c0.7,0.6,1.8,0.5,2.6,0.9c0.9,0.6,1.1,1.8,2,2.4c1,0.7,2.3,0.9,3.4,0.4c1.1-0.5,1.6-2,2.9-2C203.7,130.7,204.9,130.8,205.9,129.4z"
		/>
</g>
<g>
	<g filter="url(#ds1)">
		<rect x="551.1" y="212.9" fill="#FFFFFF" width="109.9" height="27.7"/>
	</g>
	<g>
		<g>
			<path fill="#6D6E70" d="M569.1,221.5c2,0,4.3,0.8,4.3,2.2v1.4H572v-0.8c0-0.9-1.5-1.4-2.8-1.4c-2.6,0-4.3,1.8-4.3,4.4
				c0,2.6,1.7,4.5,4.4,4.5c1,0,3-0.3,3-1.4v-1.5h-2.2v-1.2h3.7v3.2c0,1.7-2.9,2.4-4.6,2.4c-3.5,0-5.9-2.5-5.9-5.9
				C563.2,224,565.6,221.5,569.1,221.5z"/>
			<path fill="#6D6E70" d="M575.6,231.8h1.4V223h-1.4v-1.3h4.4v1.3h-1.4v8.7h3.9v-1.8h1.4v3.1h-8.4V231.8z"/>
			<path fill="#6D6E70" d="M586.6,231.8h1.4v-3.5l-3.2-5.3h-1.1v-1.2h3.9v1.2h-1.2l2.1,3.6c0.1,0.2,0.2,0.5,0.2,0.5h0
				c0,0,0.1-0.2,0.2-0.5l2.1-3.6H590v-1.2h3.9v1.2h-1.1l-3.2,5.3v3.5h1.4v1.2h-4.4V231.8z"/>
			<path fill="#6D6E70" d="M600.3,221.5c1.4,0,4.3,0.5,4.3,2.2v1.4h-1.5v-0.9c0-1-1.7-1.4-2.8-1.4c-2.4,0-4.2,1.8-4.2,4.3
				c0,2.7,1.8,4.6,4.3,4.6c0.8,0,2.8-0.3,2.8-1.3v-0.9h1.5v1.4c0,1.7-2.8,2.2-4.4,2.2c-3.4,0-5.8-2.6-5.8-5.9
				C594.5,224,597.1,221.5,600.3,221.5z"/>
			<path fill="#6D6E70" d="M606.5,231.8h1.4V223h-1.4v-1.2h8.2v2.6h-1.4V223h-3.8v3.6h4v1.3h-4v3.7h4v-1.4h1.4v2.7h-8.5V231.8z"/>
			<path fill="#6D6E70" d="M616.6,231.8h1.4V223h-1.4v-1.2h4.9c0.8,0,1.5,0,2.1,0.2c1.2,0.4,2,1.4,2,2.9c0,1.6-0.9,2.8-2.3,3.2v0
				c0,0,0.3,0.2,0.5,0.5l1.6,2.8c0.2,0.3,0.4,0.4,0.8,0.4h0.3v1.2h-1c-1,0-1.2-0.2-1.6-0.8l-1.7-3.1c-0.3-0.5-0.5-0.6-1.2-0.6h-1.3
				v3.3h1.4v1.2h-4.4V231.8z M621.9,227.2c1.2,0,2-0.8,2-2.1c0-0.9-0.4-1.5-1.1-1.8c-0.4-0.1-0.8-0.2-1.4-0.2h-1.9v4.1H621.9z"/>
			<path fill="#6D6E70" d="M633.5,221.5c3.3,0,5.8,2.5,5.8,5.8c0,3.3-2.5,5.9-5.8,5.9c-3.3,0-5.8-2.6-5.8-5.9
				C627.7,224,630.2,221.5,633.5,221.5z M633.5,231.8c2.3,0,4.1-2,4.1-4.5c0-2.5-1.9-4.4-4.1-4.4c-2.3,0-4.2,1.9-4.2,4.4
				C629.3,229.8,631.2,231.8,633.5,231.8z"/>
			<path fill="#6D6E70" d="M640.8,231.8h1.4V223h-1.4v-1.3h4.4v1.3h-1.4v8.7h3.9v-1.8h1.4v3.1h-8.4V231.8z"/>
		</g>
	</g>
</g>
<g>
	<g filter="url(#ds1)">
		<rect x="728.6" y="254.4" fill="#FFFFFF" width="128.5" height="27.7"/>
	</g>
	<g>
		<g>
			<path fill="#6D6E70" d="M740.8,273.2h1.4v-8.8h-1.4v-1.2h7.8v2.7h-1.4v-1.3h-3.4v3.7h3.9v1.3h-3.9v3.6h1.5v1.2h-4.5V273.2z"/>
			<path fill="#6D6E70" d="M748.6,273.2h1.1l3.6-10.1h1.8l3.6,10.1h1.1v1.2h-3.9v-1.2h1.2l-0.9-2.5h-4l-0.9,2.5h1.2v1.2h-3.9V273.2z
				 M755.8,269.4l-1.4-3.9c-0.2-0.5-0.2-0.9-0.2-0.9h0c0,0,0,0.4-0.2,0.9l-1.4,3.9H755.8z"/>
			<path fill="#6D6E70" d="M762.3,273.2h1.4v-8.7h-2.7v1.8h-1.4v-3.1h9.7v3.1H768v-1.8h-2.7v8.7h1.4v1.2h-4.5V273.2z"/>
			<path fill="#6D6E70" d="M772.9,273.2h1.4v-8.7h-2.7v1.8h-1.4v-3.1h9.7v3.1h-1.4v-1.8h-2.7v8.7h1.4v1.2h-4.5V273.2z"/>
			<path fill="#6D6E70" d="M783.4,273.2h1.4v-3.5l-3.2-5.3h-1.1v-1.2h3.9v1.2h-1.2l2.1,3.6c0.1,0.2,0.2,0.5,0.2,0.5h0
				c0,0,0.1-0.2,0.2-0.5l2.1-3.6h-1.2v-1.2h3.9v1.2h-1.1l-3.2,5.3v3.5h1.4v1.2h-4.4V273.2z"/>
			<path fill="#6D6E70" d="M795,273.2h1.1l3.6-10.1h1.8l3.6,10.1h1.1v1.2h-3.9v-1.2h1.2l-0.9-2.5h-4l-0.9,2.5h1.2v1.2H795V273.2z
				 M802.2,269.4l-1.4-3.9c-0.2-0.5-0.2-0.9-0.2-0.9h0c0,0,0,0.4-0.2,0.9l-1.4,3.9H802.2z"/>
			<path fill="#6D6E70" d="M812.7,263c1.4,0,4.3,0.5,4.3,2.2v1.4h-1.5v-0.9c0-1-1.7-1.4-2.8-1.4c-2.4,0-4.2,1.8-4.2,4.3
				c0,2.7,1.8,4.6,4.3,4.6c0.8,0,2.8-0.3,2.8-1.3V271h1.5v1.4c0,1.7-2.8,2.2-4.4,2.2c-3.4,0-5.8-2.6-5.8-5.9
				C806.9,265.4,809.4,263,812.7,263z"/>
			<path fill="#6D6E70" d="M818.9,273.2h1.4v-8.8h-1.4v-1.2h4.4v1.2h-1.4v8.8h1.4v1.2h-4.4V273.2z"/>
			<path fill="#6D6E70" d="M825,273.2h1.4v-8.8H825v-1.2h4.8c0.9,0,1.6,0,2.4,0.3c2.2,0.7,3.6,2.6,3.6,5.4c0,2.7-1.4,4.6-3.6,5.3
				c-0.7,0.2-1.5,0.3-2.4,0.3H825V273.2z M829.7,273.1c0.7,0,1.3-0.1,1.9-0.3c1.5-0.5,2.5-2,2.5-4c0-2.1-0.9-3.5-2.4-4.1
				c-0.6-0.2-1.2-0.3-1.9-0.3H828v8.7H829.7z"/>
			<path fill="#6D6E70" d="M838.9,271.1v0.8c0,0.8,1.1,1.3,2.3,1.3c1.3,0,2.2-0.6,2.2-1.7c0-1.3-1.3-1.7-2.7-2.3
				c-1.5-0.6-3-1.2-3-3.2c0-2.1,1.7-3,3.6-3c1.7,0,3.4,0.6,3.4,1.9v1.3h-1.5v-0.8c0-0.7-1-1-1.9-1c-1.1,0-2,0.5-2,1.6
				c0,1.2,1.1,1.6,2.4,2.1c1.7,0.6,3.3,1.3,3.3,3.4c0,2.2-1.8,3.3-3.9,3.3c-1.8,0-3.7-0.8-3.7-2.4v-1.2H838.9z"/>
		</g>
	</g>
</g>
<g>
	<path fill="#6D6E70" d="M790.4,424.7c-27.1,0-54.2,0-81.3,0c-9.4-18.4,10.1-43.1,0-62.9c27.1,0,54.2,0,81.3,0
		C799.3,386.6,780.4,404.9,790.4,424.7z"/>
	<g>
		<g>
			<path fill="#E8E8E8" d="M719.6,389.9h0.8v-5.1h-0.8v-1h5.1v1.8h-1.1v-0.7h-1.8v2h2.3v1h-2.3v1.9h0.9v1h-3.1V389.9z"/>
			<path fill="#E8E8E8" d="M724.7,389.9h0.6l2.1-6.1h1.5l2.1,6.1h0.6v1h-2.7v-1h0.7l-0.4-1.3h-2.2l-0.4,1.3h0.7v1h-2.7V389.9z
				 M729,387.5l-0.7-2l-0.1-0.4c0-0.1,0-0.1,0-0.2h0l0,0.2c0,0.1-0.1,0.2-0.1,0.4l-0.7,2H729z"/>
			<path fill="#E8E8E8" d="M733.3,389.9h0.8v-5.1h-1.3v1.1h-1.1v-2.1h6.2v2.1h-1.1v-1.1h-1.3v5.1h0.9v1h-3V389.9z"/>
			<path fill="#E8E8E8" d="M740,389.9h0.8v-5.1h-1.3v1.1h-1.1v-2.1h6.2v2.1h-1.1v-1.1h-1.3v5.1h0.9v1h-3V389.9z"/>
			<path fill="#E8E8E8" d="M746.7,389.9h0.9v-2l-1.9-3.1H745v-1h2.6v1H747l1.1,1.9c0,0.1,0.1,0.2,0.1,0.2c0,0,0,0.1,0,0.1h0
				c0,0,0-0.1,0-0.1c0-0.1,0.1-0.1,0.1-0.2l1.1-1.9h-0.7v-1h2.6v1h-0.6l-1.9,3.1v2h0.8v1h-3V389.9z"/>
			<path fill="#E8E8E8" d="M754.1,389.9h0.6l2.1-6.1h1.5l2.1,6.1h0.6v1h-2.7v-1h0.7l-0.4-1.3h-2.2l-0.4,1.3h0.7v1h-2.7V389.9z
				 M758.4,387.5l-0.7-2l-0.1-0.4c0-0.1,0-0.1,0-0.2h0l0,0.2c0,0.1,0,0.2-0.1,0.4l-0.7,2H758.4z"/>
			<path fill="#E8E8E8" d="M765.2,383.6c0.9,0,2.8,0.3,2.8,1.4v1h-1.2v-0.5c0-0.5-0.9-0.7-1.5-0.7c-1.4,0-2.4,1-2.4,2.5
				c0,1.6,1,2.6,2.4,2.6c0.4,0,1.5-0.1,1.5-0.7v-0.5h1.2v1c0,1.1-1.8,1.4-2.8,1.4c-2.2,0-3.7-1.6-3.7-3.7
				C761.6,385.2,763.2,383.6,765.2,383.6z"/>
			<path fill="#E8E8E8" d="M769.1,389.9h0.8v-5.1h-0.8v-1h3v1h-0.9v5.1h0.9v1h-3V389.9z"/>
			<path fill="#E8E8E8" d="M773.1,389.9h0.8v-5.1h-0.8v-1h3.1c0.6,0,1,0,1.5,0.2c1.4,0.4,2.3,1.6,2.3,3.4c0,1.7-0.8,2.9-2.2,3.3
				c-0.5,0.2-1,0.2-1.6,0.2h-3.1V389.9z M776.1,389.8c0.5,0,0.8,0,1.2-0.2c0.8-0.3,1.3-1.1,1.3-2.3c0-1.2-0.5-2-1.4-2.3
				c-0.4-0.2-0.7-0.2-1.1-0.2h-0.9v5H776.1z"/>
			<path fill="#E8E8E8" d="M722.1,400.6v0.5c0,0.4,0.6,0.7,1.2,0.7c0.7,0,1.2-0.3,1.2-0.9c0-0.7-0.8-0.9-1.6-1.3
				c-0.9-0.4-1.9-0.8-1.9-2.1c0-1.4,1.1-2,2.4-2c1.1,0,2.2,0.4,2.2,1.2v0.9h-1.2v-0.5c0-0.4-0.5-0.5-1.1-0.5c-0.6,0-1.1,0.2-1.1,0.8
				c0,0.7,0.7,0.9,1.4,1.2c1.1,0.4,2.1,0.8,2.1,2.1c0,1.4-1.2,2.1-2.6,2.1c-1.2,0-2.4-0.5-2.4-1.6v-0.8H722.1z"/>
			<path fill="#E8E8E8" d="M728.2,401.9h0.9v-2l-1.9-3.1h-0.6v-1h2.6v1h-0.7l1.1,1.9c0,0.1,0.1,0.2,0.1,0.2c0,0,0,0.1,0,0.1h0
				c0,0,0-0.1,0-0.1c0-0.1,0.1-0.1,0.1-0.2l1.1-1.9h-0.7v-1h2.6v1h-0.6l-1.9,3.1v2h0.8v1h-3V401.9z"/>
			<path fill="#E8E8E8" d="M733.5,401.9h0.8v-5.1h-0.8v-1h2.2l3,4.6c0.1,0.1,0.1,0.3,0.2,0.4l0.1,0.2h0l0-0.2c0-0.1,0-0.3,0-0.4
				v-3.5H738v-1h3v1h-0.8v6.1h-1.3l-3-4.5c-0.1-0.1-0.1-0.3-0.2-0.4l-0.1-0.2h0l0,0.2c0,0.1,0,0.3,0,0.4v3.5h0.9v1h-3V401.9z"/>
			<path fill="#E8E8E8" d="M743.3,401.9h0.8v-5.1h-1.3v1.1h-1.1v-2.1h6.2v2.1h-1.1v-1.1h-1.3v5.1h0.9v1h-3V401.9z"/>
			<path fill="#E8E8E8" d="M748.7,401.9h0.8v-5.1h-0.8v-1h3v1h-0.9v2h3.2v-2h-0.9v-1h3v1h-0.8v5.1h0.8v1h-3v-1h0.9v-2h-3.2v2h0.9v1
				h-3V401.9z"/>
			<path fill="#E8E8E8" d="M757.2,401.9h0.8v-5.1h-0.8v-1h5.3v1.8h-1.1v-0.8h-2v1.9h2.3v1h-2.3v2h2.1V401h1.1v1.8h-5.4V401.9z"/>
			<path fill="#E8E8E8" d="M764.8,400.6v0.5c0,0.4,0.6,0.7,1.2,0.7c0.7,0,1.2-0.3,1.2-0.9c0-0.7-0.8-0.9-1.6-1.3
				c-0.9-0.4-1.9-0.8-1.9-2.1c0-1.4,1.1-2,2.4-2c1.1,0,2.2,0.4,2.2,1.2v0.9h-1.2v-0.5c0-0.4-0.5-0.5-1.1-0.5c-0.6,0-1.1,0.2-1.1,0.8
				c0,0.7,0.7,0.9,1.4,1.2c1.1,0.4,2.1,0.8,2.1,2.1c0,1.4-1.2,2.1-2.6,2.1c-1.2,0-2.4-0.5-2.4-1.6v-0.8H764.8z"/>
			<path fill="#E8E8E8" d="M769.6,401.9h0.8v-5.1h-0.8v-1h3v1h-0.9v5.1h0.9v1h-3V401.9z"/>
			<path fill="#E8E8E8" d="M774.8,400.6v0.5c0,0.4,0.6,0.7,1.2,0.7c0.7,0,1.2-0.3,1.2-0.9c0-0.7-0.8-0.9-1.6-1.3
				c-0.9-0.4-1.9-0.8-1.9-2.1c0-1.4,1.1-2,2.4-2c1.1,0,2.2,0.4,2.2,1.2v0.9h-1.2v-0.5c0-0.4-0.5-0.5-1.1-0.5c-0.6,0-1.1,0.2-1.1,0.8
				c0,0.7,0.7,0.9,1.4,1.2c1.1,0.4,2.1,0.8,2.1,2.1c0,1.4-1.2,2.1-2.6,2.1c-1.2,0-2.4-0.5-2.4-1.6v-0.8H774.8z"/>
		</g>
	</g>
</g>
<g>
	<g filter="url(#ds1)">
		<rect x="174.9" y="59.3" fill="#FFFFFF" width="112.5" height="27.7"/>
	</g>
	<g>
		<g>
			<path fill="#6D6E70" d="M191.8,67.9c2,0,4.3,0.8,4.3,2.2v1.4h-1.5v-0.8c0-0.9-1.5-1.4-2.8-1.4c-2.6,0-4.3,1.8-4.3,4.4
				c0,2.6,1.7,4.5,4.4,4.5c1,0,3-0.3,3-1.4v-1.5h-2.2V74h3.7v3.2c0,1.7-2.9,2.4-4.6,2.4c-3.5,0-5.9-2.5-5.9-5.9
				C185.9,70.3,188.3,67.9,191.8,67.9z"/>
			<path fill="#6D6E70" d="M198.2,78.1h1.4v-8.7h-1.4v-1.3h4.4v1.3h-1.4V78h3.9v-1.8h1.4v3.1h-8.4V78.1z"/>
			<path fill="#6D6E70" d="M209.3,78.1h1.4v-3.5l-3.2-5.3h-1.1v-1.2h3.9v1.2h-1.2l2.1,3.6c0.1,0.2,0.2,0.5,0.2,0.5h0
				c0,0,0.1-0.2,0.2-0.5l2.1-3.6h-1.2v-1.2h3.9v1.2h-1.1l-3.2,5.3v3.5h1.4v1.2h-4.4V78.1z"/>
			<path fill="#6D6E70" d="M223,67.9c1.4,0,4.3,0.5,4.3,2.2v1.4h-1.5v-0.9c0-1-1.7-1.4-2.8-1.4c-2.4,0-4.2,1.8-4.2,4.3
				c0,2.7,1.8,4.6,4.3,4.6c0.8,0,2.8-0.3,2.8-1.3V76h1.5v1.4c0,1.7-2.8,2.2-4.4,2.2c-3.4,0-5.8-2.6-5.8-5.9
				C217.2,70.3,219.7,67.9,223,67.9z"/>
			<path fill="#6D6E70" d="M234.9,67.9c3.3,0,5.8,2.5,5.8,5.8c0,3.3-2.5,5.9-5.8,5.9c-3.3,0-5.8-2.6-5.8-5.9
				C229.1,70.4,231.6,67.9,234.9,67.9z M234.9,78.1c2.3,0,4.1-2,4.1-4.5c0-2.5-1.9-4.4-4.1-4.4c-2.3,0-4.2,1.9-4.2,4.4
				C230.7,76.2,232.6,78.1,234.9,78.1z"/>
			<path fill="#6D6E70" d="M248.2,67.9c2,0,4.3,0.8,4.3,2.2v1.4H251v-0.8c0-0.9-1.5-1.4-2.8-1.4c-2.6,0-4.3,1.8-4.3,4.4
				c0,2.6,1.7,4.5,4.4,4.5c1,0,3-0.3,3-1.4v-1.5h-2.2V74h3.7v3.2c0,1.7-2.9,2.4-4.6,2.4c-3.5,0-5.9-2.5-5.9-5.9
				C242.3,70.3,244.7,67.9,248.2,67.9z"/>
			<path fill="#6D6E70" d="M254.6,78.1h1.4v-8.8h-1.4v-1.2h8.2v2.6h-1.4v-1.3h-3.8V73h4v1.3h-4V78h4.1v-1.4h1.4v2.7h-8.5V78.1z"/>
			<path fill="#6D6E70" d="M264.7,78.1h1.4v-8.8h-1.4v-1.2h3l5.6,8.1c0.2,0.3,0.4,0.8,0.4,0.8h0c0,0-0.1-0.6-0.1-0.9v-6.8h-1.4v-1.2
				h4.5v1.2h-1.4v10.1h-1.6l-5.6-8.1c-0.2-0.3-0.4-0.8-0.4-0.8h0c0,0,0.1,0.6,0.1,0.9v6.8h1.5v1.2h-4.5V78.1z"/>
		</g>
	</g>
</g>
<g opacity="0.45" filter="url(#ds1)">
	<path fill="#F49F38" d="M593.9,263.7c0,0.1,0,0.1,0,0.2c-0.4,1.7-1.6,3.2-2,4.9c-0.4,1.8,0.2,3.8-0.2,5.5c-0.4,1.9-1.9,3.3-2.2,5.2
		c-0.3,1.8,0.4,3.6,0,5.4c-0.7,3.4-4,5.6-7.4,4.8s-5.6-4-4.8-7.4c0.3-1.3,1.1-2.1,1.7-3.3c0.6-1.1,1-2.7,0.8-4
		c-0.2-1.2-0.5-2.1-0.3-3.3c0.4-1.7,1.9-2.9,2.5-4.6c0.6-1.9-0.7-4-0.3-6c0.7-3.4,4-5.6,7.4-4.8C592.4,257,594.6,260.3,593.9,263.7z
		"/>
	<path fill="none" stroke="#C66320" stroke-width="1.4874" stroke-miterlimit="10" d="M593.9,263.7c0,0.1,0,0.1,0,0.2
		c-0.4,1.7-1.6,3.2-2,4.9c-0.4,1.8,0.2,3.8-0.2,5.5c-0.4,1.9-1.9,3.3-2.2,5.2c-0.3,1.8,0.4,3.6,0,5.4c-0.7,3.4-4,5.6-7.4,4.8
		s-5.6-4-4.8-7.4c0.3-1.3,1.1-2.1,1.7-3.3c0.6-1.1,1-2.7,0.8-4c-0.2-1.2-0.5-2.1-0.3-3.3c0.4-1.7,1.9-2.9,2.5-4.6
		c0.6-1.9-0.7-4-0.3-6c0.7-3.4,4-5.6,7.4-4.8C592.4,257,594.6,260.3,593.9,263.7z"/>
</g>
<g opacity="0.45" filter="url(#ds1)">
	<path fill="#F49F38" d="M616.1,286.2c0,0.1-0.1,0.1-0.1,0.2c-1.1,1.4-2.7,2.2-3.8,3.6c-1.1,1.5-1.4,3.5-2.4,5
		c-1.1,1.6-3.1,2.2-4.2,3.8c-1,1.5-1.1,3.5-2.2,4.9c-2,2.8-6,3.4-8.7,1.4c-2.8-2-3.4-6-1.4-8.7c0.8-1.1,1.9-1.5,2.9-2.3
		c1-0.8,2-2,2.4-3.3c0.3-1.2,0.4-2.1,1.1-3.2c1-1.4,3-1.9,4.2-3.2c1.4-1.5,1-3.9,2.2-5.6c2-2.8,6-3.4,8.7-1.4
		C617.5,279.5,618.1,283.5,616.1,286.2z"/>
	<path fill="none" stroke="#C66320" stroke-width="1.4874" stroke-miterlimit="10" d="M616.1,286.2c0,0.1-0.1,0.1-0.1,0.2
		c-1.1,1.4-2.7,2.2-3.8,3.6c-1.1,1.5-1.4,3.5-2.4,5c-1.1,1.6-3.1,2.2-4.2,3.8c-1,1.5-1.1,3.5-2.2,4.9c-2,2.8-6,3.4-8.7,1.4
		c-2.8-2-3.4-6-1.4-8.7c0.8-1.1,1.9-1.5,2.9-2.3c1-0.8,2-2,2.4-3.3c0.3-1.2,0.4-2.1,1.1-3.2c1-1.4,3-1.9,4.2-3.2
		c1.4-1.5,1-3.9,2.2-5.6c2-2.8,6-3.4,8.7-1.4C617.5,279.5,618.1,283.5,616.1,286.2z"/>
</g>
<g opacity="0.45" filter="url(#ds1)">
	<circle fill="#E96667" cx="417.8" cy="577.1" r="6.8"/>
	<circle fill="none" stroke="#B4474C" stroke-width="1.489" stroke-miterlimit="10" cx="417.8" cy="577.1" r="6.8"/>
</g>
<g opacity="0.45" filter="url(#ds1)">
	<circle fill="#E96667" cx="440.9" cy="615.1" r="6.8"/>
	<circle fill="none" stroke="#B4474C" stroke-width="1.489" stroke-miterlimit="10" cx="440.9" cy="615.1" r="6.8"/>
</g>
<g opacity="0.45" filter="url(#ds1)">
	<circle fill="#E96667" cx="421.5" cy="619.5" r="6.8"/>
	<circle fill="none" stroke="#B4474C" stroke-width="1.489" stroke-miterlimit="10" cx="421.5" cy="619.5" r="6.8"/>
</g>
<g opacity="0.45" filter="url(#ds1)">
	<circle fill="#E96667" cx="439.7" cy="594.6" r="6.8"/>
	<circle fill="none" stroke="#B4474C" stroke-width="1.489" stroke-miterlimit="10" cx="439.7" cy="594.6" r="6.8"/>
</g>
<g opacity="0.45" filter="url(#ds1)">
	<circle fill="#E96667" cx="419.5" cy="599.1" r="6.8"/>
	<circle fill="none" stroke="#B4474C" stroke-width="1.489" stroke-miterlimit="10" cx="419.5" cy="599.1" r="6.8"/>
</g>
<g opacity="0.45" filter="url(#ds1)">
	<path fill="#D0D2D3" d="M538.1,469.8l37.9-1.4c3.1-0.1,5.6,2.4,5.6,5.4v7.7c0,3.3-2.8,5.8-6.1,5.4l-40.2-4.6
		c-0.7-0.1-1.3-0.7-1.3-1.4v-7.1C534.1,471.7,535.9,469.9,538.1,469.8z"/>
	<path fill="none" stroke="#929497" stroke-width="1.5" stroke-linejoin="round" stroke-miterlimit="10" d="M538.1,469.8l37.9-1.4
		c3.1-0.1,5.6,2.4,5.6,5.4v7.7c0,3.3-2.8,5.8-6.1,5.4l-40.2-4.6c-0.7-0.1-1.3-0.7-1.3-1.4v-7.1C534.1,471.7,535.9,469.9,538.1,469.8
		z"/>
</g>
<g opacity="0.45" filter="url(#ds1)">
	<path fill="#D0D2D3" d="M543.9,456l37.9-1.4c3.1-0.1,5.6,2.4,5.6,5.4v7.7c0,3.3-2.8,5.8-6.1,5.4l-40.2-4.6
		c-0.7-0.1-1.3-0.7-1.3-1.4V460C539.9,457.8,541.7,456,543.9,456z"/>
	<path fill="none" stroke="#929497" stroke-width="1.5" stroke-linejoin="round" stroke-miterlimit="10" d="M543.9,456l37.9-1.4
		c3.1-0.1,5.6,2.4,5.6,5.4v7.7c0,3.3-2.8,5.8-6.1,5.4l-40.2-4.6c-0.7-0.1-1.3-0.7-1.3-1.4V460C539.9,457.8,541.7,456,543.9,456z"/>
</g>
<g opacity="0.45" filter="url(#ds1)">
	<path fill="#D0D2D3" d="M537,495.7l37.9-1.4c3.1-0.1,5.6,2.4,5.6,5.4v7.7c0,3.3-2.8,5.8-6.1,5.4l-40.2-4.6
		c-0.7-0.1-1.3-0.7-1.3-1.4v-7.1C533.1,497.6,534.8,495.8,537,495.7z"/>
	<path fill="none" stroke="#929497" stroke-width="1.5" stroke-linejoin="round" stroke-miterlimit="10" d="M537,495.7l37.9-1.4
		c3.1-0.1,5.6,2.4,5.6,5.4v7.7c0,3.3-2.8,5.8-6.1,5.4l-40.2-4.6c-0.7-0.1-1.3-0.7-1.3-1.4v-7.1C533.1,497.6,534.8,495.8,537,495.7z"
		/>
</g>
<g opacity="0.45" filter="url(#ds1)">
	<path fill="#D0D2D3" d="M544.7,482.2l37.9-1.4c3.1-0.1,5.6,2.4,5.6,5.4v7.7c0,3.3-2.8,5.8-6.1,5.4l-40.2-4.6
		c-0.7-0.1-1.3-0.7-1.3-1.4v-7.1C540.7,484,542.5,482.2,544.7,482.2z"/>
	<path fill="none" stroke="#929497" stroke-width="1.5" stroke-linejoin="round" stroke-miterlimit="10" d="M544.7,482.2l37.9-1.4
		c3.1-0.1,5.6,2.4,5.6,5.4v7.7c0,3.3-2.8,5.8-6.1,5.4l-40.2-4.6c-0.7-0.1-1.3-0.7-1.3-1.4v-7.1C540.7,484,542.5,482.2,544.7,482.2z"
		/>
</g>
<g>
	<path fill="#6D6E70" d="M431.4,409c-21.8,0-43.5,0-65.3,0c-14.5-14.5-14.5-38,0-52.6c21.8,0,43.5,0,65.3,0
		C445.9,370.9,445.9,394.5,431.4,409z"/>
	<g>
		<g>
			<path fill="#E8E8E8" d="M365.5,378.9c1.5,0,3.3,0.6,3.3,1.7v1.2h-1.4v-0.6c0-0.6-0.9-0.9-1.8-0.9c-1.8,0-2.9,1.2-2.9,3
				c0,1.8,1.1,3.2,3,3.2c0.7,0,2-0.2,2-0.9v-0.9h-1.5v-1.2h3v2.6c0,1.3-2.3,1.8-3.5,1.8c-2.6,0-4.5-1.9-4.5-4.4
				C361,380.8,362.9,378.9,365.5,378.9z"/>
			<path fill="#E8E8E8" d="M370.4,386.4h1v-6.1h-1v-1.3h3.6v1.3h-1v6h2.5V385h1.3v2.6h-6.5V386.4z"/>
			<path fill="#E8E8E8" d="M378.7,386.4h1V384l-2.3-3.8h-0.8v-1.2h3.2v1.2h-0.8l1.3,2.2c0.1,0.1,0.1,0.2,0.1,0.3c0,0,0,0.1,0,0.1h0
				c0,0,0-0.1,0-0.1c0-0.1,0.1-0.2,0.1-0.3l1.3-2.2h-0.8v-1.2h3.1v1.2h-0.8l-2.3,3.8v2.4h1v1.2h-3.6V386.4z"/>
			<path fill="#E8E8E8" d="M389.2,378.9c1,0,3.3,0.4,3.3,1.7v1.2h-1.4v-0.7c0-0.6-1.1-0.9-1.8-0.9c-1.6,0-2.8,1.2-2.8,3
				c0,1.9,1.2,3.2,2.9,3.2c0.5,0,1.8-0.2,1.8-0.8v-0.7h1.4v1.2c0,1.3-2.2,1.7-3.4,1.7c-2.6,0-4.4-1.9-4.4-4.4
				C384.8,380.8,386.7,378.9,389.2,378.9z"/>
			<path fill="#E8E8E8" d="M398.2,378.9c2.5,0,4.4,1.9,4.4,4.3c0,2.5-1.9,4.5-4.4,4.5c-2.5,0-4.4-2-4.4-4.5
				C393.7,380.9,395.6,378.9,398.2,378.9z M398.2,386.4c1.5,0,2.8-1.3,2.8-3.1c0-1.7-1.3-3-2.8-3s-2.8,1.3-2.8,3
				C395.4,385.1,396.6,386.4,398.2,386.4z"/>
			<path fill="#E8E8E8" d="M403.7,386.4h1v-6.1h-1v-1.3h3.6v1.3h-1v6h2.5V385h1.3v2.6h-6.5V386.4z"/>
			<path fill="#E8E8E8" d="M412.1,386.4h1V384l-2.3-3.8h-0.8v-1.2h3.2v1.2h-0.8l1.3,2.2c0.1,0.1,0.1,0.2,0.1,0.3c0,0,0,0.1,0,0.1h0
				c0,0,0-0.1,0-0.1c0-0.1,0.1-0.2,0.1-0.3l1.3-2.2h-0.8v-1.2h3.1v1.2h-0.8l-2.3,3.8v2.4h1v1.2h-3.6V386.4z"/>
			<path fill="#E8E8E8" d="M419.8,384.9v0.6c0,0.5,0.7,0.9,1.5,0.9c0.9,0,1.5-0.4,1.5-1.1c0-0.9-1-1.1-2-1.5
				c-1.1-0.4-2.3-0.9-2.3-2.5c0-1.7,1.4-2.4,2.9-2.4c1.3,0,2.7,0.5,2.7,1.5v1.1h-1.4V381c0-0.4-0.6-0.7-1.3-0.7
				c-0.7,0-1.3,0.3-1.3,0.9c0,0.8,0.8,1,1.7,1.4c1.3,0.4,2.5,1,2.5,2.6c0,1.7-1.5,2.5-3.1,2.5c-1.4,0-2.9-0.6-2.9-1.9v-1H419.8z"/>
			<path fill="#E8E8E8" d="M425.5,386.4h1v-6.2h-1v-1.2h3.6v1.2h-1v6.2h1v1.2h-3.6V386.4z"/>
			<path fill="#E8E8E8" d="M431.7,384.9v0.6c0,0.5,0.7,0.9,1.5,0.9c0.9,0,1.5-0.4,1.5-1.1c0-0.9-1-1.1-2-1.5
				c-1.1-0.4-2.3-0.9-2.3-2.5c0-1.7,1.4-2.4,2.9-2.4c1.3,0,2.7,0.5,2.7,1.5v1.1h-1.4V381c0-0.4-0.6-0.7-1.3-0.7
				c-0.7,0-1.3,0.3-1.3,0.9c0,0.8,0.8,1,1.7,1.4c1.3,0.4,2.5,1,2.5,2.6c0,1.7-1.5,2.5-3.1,2.5c-1.4,0-2.9-0.6-2.9-1.9v-1H431.7z"/>
		</g>
	</g>
</g>
<g>
	<path fill="#6D6E70" d="M498.4,535.4l-23.7,5.6c-3.8,0.9-7.9,0.9-11.7,0l-23.7-5.6v-26.2l23.7-5.6c3.8-0.9,7.9-0.9,11.7,0l23.7,5.6
		V535.4z"/>
	<g>
		<g>
			<path fill="#E8E8E8" d="M455.9,525.5h1v-6.2h-1v-1.2h4.1c0.5,0,1,0,1.4,0.2c0.9,0.4,1.5,1.3,1.5,2.5c0,1.2-0.6,2.2-1.6,2.6
				c-0.4,0.1-0.8,0.2-1.3,0.2h-1.5v1.8h1v1.2h-3.6V525.5z M459.8,522.4c0.3,0,0.6-0.1,0.9-0.2c0.5-0.2,0.7-0.7,0.7-1.3
				c0-0.6-0.2-1-0.6-1.3c-0.2-0.1-0.5-0.2-0.9-0.2h-1.3v3H459.8z"/>
			<path fill="#E8E8E8" d="M463.8,525.5h1v-6.2h-1v-1.2h3.6v1.2h-1v2.5h3.9v-2.5h-1v-1.2h3.6v1.2h-1v6.2h1v1.2h-3.6v-1.2h1v-2.4
				h-3.9v2.4h1v1.2h-3.6V525.5z"/>
			<path fill="#E8E8E8" d="M478.3,518c1,0,3.3,0.4,3.3,1.7v1.2h-1.4v-0.7c0-0.6-1.1-0.9-1.8-0.9c-1.6,0-2.8,1.2-2.8,3
				c0,1.9,1.2,3.2,2.9,3.2c0.5,0,1.8-0.2,1.8-0.8V524h1.4v1.2c0,1.3-2.2,1.7-3.4,1.7c-2.6,0-4.5-1.9-4.5-4.4
				C473.9,519.9,475.9,518,478.3,518z"/>
		</g>
	</g>
</g>
<g>
	<g filter="url(#ds1)">
		<rect x="355.7" y="254.4" fill="#FFFFFF" width="105.7" height="27.7"/>
	</g>
	<g>
		<g>
			<path fill="#6D6E70" d="M375.8,263c2,0,4.3,0.8,4.3,2.2v1.4h-1.5v-0.8c0-0.9-1.5-1.4-2.8-1.4c-2.6,0-4.3,1.8-4.3,4.4
				c0,2.6,1.7,4.5,4.4,4.5c1,0,3-0.3,3-1.4v-1.5h-2.2v-1.2h3.7v3.2c0,1.7-2.9,2.4-4.6,2.4c-3.5,0-5.9-2.5-5.9-5.9
				C369.9,265.4,372.3,263,375.8,263z"/>
			<path fill="#6D6E70" d="M382.3,273.2h1.4v-8.7h-1.4v-1.3h4.4v1.3h-1.4v8.7h3.9v-1.8h1.4v3.1h-8.4V273.2z"/>
			<path fill="#6D6E70" d="M392.8,264.4h-1.4v-1.2h4.5v1.2h-1.4v5.8c0,0.7,0.1,1.4,0.4,1.8c0.5,0.7,1.3,1.2,2.4,1.2
				c1.1,0,2-0.4,2.4-1.2c0.3-0.5,0.4-1.1,0.4-1.8v-5.8h-1.4v-1.2h4.4v1.2h-1.4v5.9c0,1.1-0.3,2-0.8,2.8c-0.8,1.1-2.1,1.6-3.7,1.6
				c-1.6,0-2.9-0.6-3.7-1.6c-0.5-0.7-0.8-1.7-0.8-2.8V264.4z"/>
			<path fill="#6D6E70" d="M410.1,263c1.4,0,4.3,0.5,4.3,2.2v1.4h-1.5v-0.9c0-1-1.7-1.4-2.8-1.4c-2.4,0-4.2,1.8-4.2,4.3
				c0,2.7,1.8,4.6,4.3,4.6c0.8,0,2.8-0.3,2.8-1.3V271h1.5v1.4c0,1.7-2.8,2.2-4.4,2.2c-3.4,0-5.8-2.6-5.8-5.9
				C404.3,265.4,406.8,263,410.1,263z"/>
			<path fill="#6D6E70" d="M422,263c3.3,0,5.8,2.5,5.8,5.8c0,3.3-2.5,5.9-5.8,5.9c-3.3,0-5.8-2.6-5.8-5.9
				C416.2,265.5,418.7,263,422,263z M422,273.2c2.3,0,4.1-2,4.1-4.5c0-2.5-1.9-4.4-4.1-4.4c-2.3,0-4.2,1.9-4.2,4.4
				C417.8,271.3,419.7,273.2,422,273.2z"/>
			<path fill="#6D6E70" d="M430.9,271.1v0.8c0,0.8,1.1,1.3,2.3,1.3c1.3,0,2.2-0.6,2.2-1.7c0-1.3-1.3-1.7-2.7-2.3
				c-1.5-0.6-3-1.2-3-3.2c0-2.1,1.7-3,3.6-3c1.7,0,3.4,0.6,3.4,1.9v1.3h-1.5v-0.8c0-0.7-1-1-1.9-1c-1.1,0-2,0.5-2,1.6
				c0,1.2,1.1,1.6,2.4,2.1c1.7,0.6,3.3,1.3,3.3,3.4c0,2.2-1.8,3.3-3.9,3.3c-1.8,0-3.7-0.8-3.7-2.4v-1.2H430.9z"/>
			<path fill="#6D6E70" d="M438.7,273.2h1.4v-8.8h-1.4v-1.2h8.2v2.6h-1.4v-1.3h-3.8v3.6h4v1.3h-4v3.7h4v-1.4h1.4v2.7h-8.5V273.2z"/>
		</g>
	</g>
</g>
</svg>
