<?xml version="1.0" encoding="utf-8"?>
<!-- Generator: Adobe Illustrator 18.1.1, SVG Export Plug-In . SVG Version: 6.00 Build 0)  -->
<!DOCTYPE svg PUBLIC "-//W3C//DTD SVG 1.1//EN" "http://www.w3.org/Graphics/SVG/1.1/DTD/svg11.dtd">
<svg version="1.1" id="Layer_1" xmlns="http://www.w3.org/2000/svg" xmlns:xlink="http://www.w3.org/1999/xlink" x="0px" y="0px"
	 viewBox="0 0 920 690" enable-background="new 0 0 920 690" xml:space="preserve">
<filter  height="170%" width="170%" id="ds1" y="-20%" x="-30%">
	<feOffset  in="SourceAlpha" result="offOut" dy="1" dx="0"></feOffset>
	<feGaussianBlur  in="offOut" stdDeviation="2" result="blurOut"></feGaussianBlur>
	<feComponentTransfer>
		<feFuncA  type="linear" slope="0.5"></feFuncA>
	</feComponentTransfer>
	<feMerge>
		<feMergeNode></feMergeNode>
		<feMergeNode  in="SourceGraphic"></feMergeNode>
	</feMerge>
</filter>
<g opacity="0.45" filter="url(#ds1)">
	<path fill="#F9DA55" d="M826,219.3c-0.3-0.9-0.7-1.8-1.3-2.5c-1.5-1.8-2.1-4.1-1.8-6.4c0.1-0.8,0-1.6-0.2-2.4
		c-0.9-3.6-4.8-5.9-8.4-4.9c-3.7,1-5.8,4.9-4.7,8.5c0.2,0.8,0.6,1.6,1.1,2.2c1.5,2,2.2,4.3,2,6.8c-0.1,0.8,0,1.6,0.3,2.5
		c0.2,0.8,0.6,1.6,1.1,2.2c1.5,2,2.2,4.3,2,6.8c-0.1,0.8,0,1.6,0.3,2.5c0.2,0.8,0.6,1.6,1.1,2.2c1.5,2,2.2,4.3,2,6.8
		c-0.1,0.8,0,1.6,0.3,2.5c0.2,0.8,0.6,1.6,1.1,2.2c1.5,2,2.2,4.3,2,6.8c-0.1,0.8,0,1.6,0.3,2.5c0.2,0.8,0.6,1.6,1.1,2.2
		c1.5,2,2.2,4.3,2,6.8c-0.1,0.8,0,1.6,0.3,2.5c0.2,0.8,0.6,1.6,1.1,2.2c1.5,2,2.2,4.3,2,6.8c-0.1,0.8,0,1.6,0.3,2.5
		c0.2,0.8,0.6,1.6,1.1,2.2c1.5,2,2.2,4.3,2,6.8c-0.1,0.8,0,1.6,0.3,2.5c0.2,0.8,0.6,1.6,1.1,2.2c1.5,2,2.2,4.3,2,6.8
		c-0.1,0.8,0,1.6,0.3,2.5c0.2,0.8,0.6,1.6,1.1,2.2c1.5,2,2.2,4.3,2,6.8c-0.1,0.8,0,1.6,0.3,2.5c0.2,0.8,0.6,1.6,1.1,2.2
		c1.5,2,2.2,4.3,2,6.8c-0.1,0.8,0,1.6,0.3,2.5c0.3,0.9,0.7,1.8,1.3,2.5c1.5,1.8,2.1,4.1,1.8,6.4c-0.1,0.8,0,1.6,0.2,2.4
		c0.9,3.6,4.8,5.9,8.4,4.9c3.7-1,5.8-4.9,4.7-8.5c-0.2-0.8-0.6-1.6-1.1-2.2c-1.5-2-2.2-4.3-2-6.8c0.1-0.8,0-1.6-0.3-2.5
		c-0.2-0.8-0.6-1.6-1.1-2.2c-1.5-2-2.2-4.3-2-6.8c0.1-0.8,0-1.6-0.3-2.5c-0.2-0.8-0.6-1.6-1.1-2.2c-1.5-2-2.2-4.3-2-6.8
		c0.1-0.8,0-1.6-0.3-2.5c-0.2-0.8-0.6-1.6-1.1-2.2c-1.5-2-2.2-4.3-2-6.8c0.1-0.8,0-1.6-0.3-2.5c-0.2-0.8-0.6-1.6-1.1-2.2
		c-1.5-2-2.2-4.3-2-6.8c0.1-0.8,0-1.6-0.3-2.5c-0.2-0.8-0.6-1.6-1.1-2.2c-1.5-2-2.2-4.3-2-6.8c0.1-0.8,0-1.6-0.3-2.5
		c-0.2-0.8-0.6-1.6-1.1-2.2c-1.5-2-2.2-4.3-2-6.8c0.1-0.8,0-1.6-0.3-2.5c-0.2-0.8-0.6-1.6-1.1-2.2c-1.5-2-2.2-4.3-2-6.8
		c0.1-0.8,0-1.6-0.3-2.5c-0.2-0.8-0.6-1.6-1.1-2.2c-1.5-2-2.2-4.3-2-6.8c0.1-0.8,0-1.6-0.3-2.5c-0.2-0.8-0.6-1.6-1.1-2.2
		c-1.5-2-2.2-4.3-2-6.8C826.3,221,826.2,220.1,826,219.3z"/>
	<path fill="none" stroke="#D6971A" stroke-width="1.489" stroke-miterlimit="10" d="M826,219.3c-0.3-0.9-0.7-1.8-1.3-2.5
		c-1.5-1.8-2.1-4.1-1.8-6.4c0.1-0.8,0-1.6-0.2-2.4c-0.9-3.6-4.8-5.9-8.4-4.9c-3.7,1-5.8,4.9-4.7,8.5c0.2,0.8,0.6,1.6,1.1,2.2
		c1.5,2,2.2,4.3,2,6.8c-0.1,0.8,0,1.6,0.3,2.5c0.2,0.8,0.6,1.6,1.1,2.2c1.5,2,2.2,4.3,2,6.8c-0.1,0.8,0,1.6,0.3,2.5
		c0.2,0.8,0.6,1.6,1.1,2.2c1.5,2,2.2,4.3,2,6.8c-0.1,0.8,0,1.6,0.3,2.5c0.2,0.8,0.6,1.6,1.1,2.2c1.5,2,2.2,4.3,2,6.8
		c-0.1,0.8,0,1.6,0.3,2.5c0.2,0.8,0.6,1.6,1.1,2.2c1.5,2,2.2,4.3,2,6.8c-0.1,0.8,0,1.6,0.3,2.5c0.2,0.8,0.6,1.6,1.1,2.2
		c1.5,2,2.2,4.3,2,6.8c-0.1,0.8,0,1.6,0.3,2.5c0.2,0.8,0.6,1.6,1.1,2.2c1.5,2,2.2,4.3,2,6.8c-0.1,0.8,0,1.6,0.3,2.5
		c0.2,0.8,0.6,1.6,1.1,2.2c1.5,2,2.2,4.3,2,6.8c-0.1,0.8,0,1.6,0.3,2.5c0.2,0.8,0.6,1.6,1.1,2.2c1.5,2,2.2,4.3,2,6.8
		c-0.1,0.8,0,1.6,0.3,2.5c0.2,0.8,0.6,1.6,1.1,2.2c1.5,2,2.2,4.3,2,6.8c-0.1,0.8,0,1.6,0.3,2.5c0.3,0.9,0.7,1.8,1.3,2.5
		c1.5,1.8,2.1,4.1,1.8,6.4c-0.1,0.8,0,1.6,0.2,2.4c0.9,3.6,4.8,5.9,8.4,4.9c3.7-1,5.8-4.9,4.7-8.5c-0.2-0.8-0.6-1.6-1.1-2.2
		c-1.5-2-2.2-4.3-2-6.8c0.1-0.8,0-1.6-0.3-2.5c-0.2-0.8-0.6-1.6-1.1-2.2c-1.5-2-2.2-4.3-2-6.8c0.1-0.8,0-1.6-0.3-2.5
		c-0.2-0.8-0.6-1.6-1.1-2.2c-1.5-2-2.2-4.3-2-6.8c0.1-0.8,0-1.6-0.3-2.5c-0.2-0.8-0.6-1.6-1.1-2.2c-1.5-2-2.2-4.3-2-6.8
		c0.1-0.8,0-1.6-0.3-2.5c-0.2-0.8-0.6-1.6-1.1-2.2c-1.5-2-2.2-4.3-2-6.8c0.1-0.8,0-1.6-0.3-2.5c-0.2-0.8-0.6-1.6-1.1-2.2
		c-1.5-2-2.2-4.3-2-6.8c0.1-0.8,0-1.6-0.3-2.5c-0.2-0.8-0.6-1.6-1.1-2.2c-1.5-2-2.2-4.3-2-6.8c0.1-0.8,0-1.6-0.3-2.5
		c-0.2-0.8-0.6-1.6-1.1-2.2c-1.5-2-2.2-4.3-2-6.8c0.1-0.8,0-1.6-0.3-2.5c-0.2-0.8-0.6-1.6-1.1-2.2c-1.5-2-2.2-4.3-2-6.8
		c0.1-0.8,0-1.6-0.3-2.5c-0.2-0.8-0.6-1.6-1.1-2.2c-1.5-2-2.2-4.3-2-6.8C826.3,221,826.2,220.1,826,219.3z"/>
</g>
<g opacity="0.45" filter="url(#ds1)">
	<path fill="#F9DA55" d="M838.3,254.7c0.7-0.7,1.1-1.5,1.4-2.4c0.8-2.2,2.5-3.9,4.6-4.9c0.7-0.3,1.4-0.8,2-1.4
		c2.6-2.7,2.5-7.2-0.2-9.7c-2.8-2.6-7.1-2.5-9.7,0.3c-0.6,0.6-1,1.4-1.3,2.1c-0.9,2.3-2.6,4.1-4.8,5.2c-0.7,0.4-1.4,0.9-2,1.5
		c-0.6,0.6-1,1.4-1.3,2.1c-0.9,2.3-2.6,4.1-4.8,5.2c-0.7,0.4-1.4,0.9-2,1.5c-0.6,0.6-1,1.4-1.3,2.1c-0.9,2.3-2.6,4.1-4.8,5.2
		c-0.7,0.4-1.4,0.9-2,1.5s-1,1.4-1.3,2.1c-0.9,2.3-2.6,4.1-4.8,5.2c-0.7,0.4-1.4,0.9-2,1.5c-0.6,0.6-1,1.4-1.3,2.1
		c-0.9,2.3-2.6,4.1-4.8,5.2c-0.7,0.4-1.4,0.9-2,1.5c-0.6,0.6-1,1.4-1.3,2.1c-0.9,2.3-2.6,4.1-4.8,5.2c-0.7,0.4-1.4,0.9-2,1.5
		s-1,1.4-1.3,2.1c-0.9,2.3-2.6,4.1-4.8,5.2c-0.7,0.4-1.4,0.9-2,1.5c-0.6,0.6-1,1.4-1.3,2.1c-0.9,2.3-2.6,4.1-4.8,5.2
		c-0.7,0.4-1.4,0.9-2,1.5c-0.6,0.6-1,1.4-1.3,2.1c-0.9,2.3-2.6,4.1-4.8,5.2c-0.7,0.4-1.4,0.9-2,1.5c-0.6,0.6-1,1.4-1.3,2.1
		c-0.9,2.3-2.6,4.1-4.8,5.2c-0.7,0.4-1.4,0.9-2,1.5c-0.7,0.7-1.1,1.5-1.4,2.4c-0.8,2.2-2.5,3.9-4.6,4.9c-0.7,0.3-1.4,0.8-2,1.4
		c-2.6,2.7-2.5,7.2,0.2,9.7c2.8,2.6,7.1,2.5,9.7-0.3c0.6-0.6,1-1.4,1.3-2.1c0.9-2.3,2.6-4.1,4.8-5.2c0.7-0.4,1.4-0.9,2-1.5
		c0.6-0.6,1-1.4,1.3-2.1c0.9-2.3,2.6-4.1,4.8-5.2c0.7-0.4,1.4-0.9,2-1.5c0.6-0.6,1-1.4,1.3-2.1c0.9-2.3,2.6-4.1,4.8-5.2
		c0.7-0.4,1.4-0.9,2-1.5c0.6-0.6,1-1.4,1.3-2.1c0.9-2.3,2.6-4.1,4.8-5.2c0.7-0.4,1.4-0.9,2-1.5c0.6-0.6,1-1.4,1.3-2.1
		c0.9-2.3,2.6-4.1,4.8-5.2c0.7-0.4,1.4-0.9,2-1.5c0.6-0.6,1-1.4,1.3-2.1c0.9-2.3,2.6-4.1,4.8-5.2c0.7-0.4,1.4-0.9,2-1.5
		c0.6-0.6,1-1.4,1.3-2.1c0.9-2.3,2.6-4.1,4.8-5.2c0.7-0.4,1.4-0.9,2-1.5c0.6-0.6,1-1.4,1.3-2.1c0.9-2.3,2.6-4.1,4.8-5.2
		c0.7-0.4,1.4-0.9,2-1.5c0.6-0.6,1-1.4,1.3-2.1c0.9-2.3,2.6-4.1,4.8-5.2c0.7-0.4,1.4-0.9,2-1.5c0.6-0.6,1-1.4,1.3-2.1
		c0.9-2.3,2.6-4.1,4.8-5.2C837,255.8,837.7,255.3,838.3,254.7z"/>
	<path fill="none" stroke="#D6971A" stroke-width="1.489" stroke-miterlimit="10" d="M838.3,254.7c0.7-0.7,1.1-1.5,1.4-2.4
		c0.8-2.2,2.5-3.9,4.6-4.9c0.7-0.3,1.4-0.8,2-1.4c2.6-2.7,2.5-7.2-0.2-9.7c-2.8-2.6-7.1-2.5-9.7,0.3c-0.6,0.6-1,1.4-1.3,2.1
		c-0.9,2.3-2.6,4.1-4.8,5.2c-0.7,0.4-1.4,0.9-2,1.5c-0.6,0.6-1,1.4-1.3,2.1c-0.9,2.3-2.6,4.1-4.8,5.2c-0.7,0.4-1.4,0.9-2,1.5
		c-0.6,0.6-1,1.4-1.3,2.1c-0.9,2.3-2.6,4.1-4.8,5.2c-0.7,0.4-1.4,0.9-2,1.5s-1,1.4-1.3,2.1c-0.9,2.3-2.6,4.1-4.8,5.2
		c-0.7,0.4-1.4,0.9-2,1.5c-0.6,0.6-1,1.4-1.3,2.1c-0.9,2.3-2.6,4.1-4.8,5.2c-0.7,0.4-1.4,0.9-2,1.5c-0.6,0.6-1,1.4-1.3,2.1
		c-0.9,2.3-2.6,4.1-4.8,5.2c-0.7,0.4-1.4,0.9-2,1.5s-1,1.4-1.3,2.1c-0.9,2.3-2.6,4.1-4.8,5.2c-0.7,0.4-1.4,0.9-2,1.5
		c-0.6,0.6-1,1.4-1.3,2.1c-0.9,2.3-2.6,4.1-4.8,5.2c-0.7,0.4-1.4,0.9-2,1.5c-0.6,0.6-1,1.4-1.3,2.1c-0.9,2.3-2.6,4.1-4.8,5.2
		c-0.7,0.4-1.4,0.9-2,1.5c-0.6,0.6-1,1.4-1.3,2.1c-0.9,2.3-2.6,4.1-4.8,5.2c-0.7,0.4-1.4,0.9-2,1.5c-0.7,0.7-1.1,1.5-1.4,2.4
		c-0.8,2.2-2.5,3.9-4.6,4.9c-0.7,0.3-1.4,0.8-2,1.4c-2.6,2.7-2.5,7.2,0.2,9.7c2.8,2.6,7.1,2.5,9.7-0.3c0.6-0.6,1-1.4,1.3-2.1
		c0.9-2.3,2.6-4.1,4.8-5.2c0.7-0.4,1.4-0.9,2-1.5c0.6-0.6,1-1.4,1.3-2.1c0.9-2.3,2.6-4.1,4.8-5.2c0.7-0.4,1.4-0.9,2-1.5
		c0.6-0.6,1-1.4,1.3-2.1c0.9-2.3,2.6-4.1,4.8-5.2c0.7-0.4,1.4-0.9,2-1.5c0.6-0.6,1-1.4,1.3-2.1c0.9-2.3,2.6-4.1,4.8-5.2
		c0.7-0.4,1.4-0.9,2-1.5c0.6-0.6,1-1.4,1.3-2.1c0.9-2.3,2.6-4.1,4.8-5.2c0.7-0.4,1.4-0.9,2-1.5c0.6-0.6,1-1.4,1.3-2.1
		c0.9-2.3,2.6-4.1,4.8-5.2c0.7-0.4,1.4-0.9,2-1.5c0.6-0.6,1-1.4,1.3-2.1c0.9-2.3,2.6-4.1,4.8-5.2c0.7-0.4,1.4-0.9,2-1.5
		c0.6-0.6,1-1.4,1.3-2.1c0.9-2.3,2.6-4.1,4.8-5.2c0.7-0.4,1.4-0.9,2-1.5c0.6-0.6,1-1.4,1.3-2.1c0.9-2.3,2.6-4.1,4.8-5.2
		c0.7-0.4,1.4-0.9,2-1.5c0.6-0.6,1-1.4,1.3-2.1c0.9-2.3,2.6-4.1,4.8-5.2C837,255.8,837.7,255.3,838.3,254.7z"/>
</g>
<g opacity="0.45" filter="url(#ds1)">
	<path fill="#F9DA55" d="M759.8,215.9c-0.1-1-0.4-1.9-0.9-2.6c-1.2-2-1.4-4.4-0.8-6.6c0.2-0.8,0.3-1.6,0.2-2.4
		c-0.3-3.7-3.8-6.6-7.5-6.2c-3.8,0.4-6.5,3.8-6.1,7.6c0.1,0.9,0.4,1.7,0.7,2.4c1.2,2.2,1.5,4.6,0.9,7c-0.2,0.8-0.3,1.6-0.2,2.5
		c0.1,0.9,0.4,1.7,0.7,2.4c1.2,2.2,1.5,4.6,0.9,7c-0.2,0.8-0.3,1.6-0.2,2.5c0.1,0.9,0.4,1.7,0.7,2.4c1.2,2.2,1.5,4.6,0.9,7
		c-0.2,0.8-0.3,1.6-0.2,2.5c0.1,0.9,0.4,1.7,0.7,2.4c1.2,2.2,1.5,4.6,0.9,7c-0.2,0.8-0.3,1.6-0.2,2.5c0.1,0.9,0.4,1.7,0.7,2.4
		c1.2,2.2,1.5,4.6,0.9,7c-0.2,0.8-0.3,1.6-0.2,2.5c0.1,0.9,0.4,1.7,0.7,2.4c1.2,2.2,1.5,4.6,0.9,7c-0.2,0.8-0.3,1.6-0.2,2.5
		c0.1,0.9,0.4,1.7,0.7,2.4c1.2,2.2,1.5,4.6,0.9,7c-0.2,0.8-0.3,1.6-0.2,2.5c0.1,0.9,0.4,1.7,0.7,2.4c1.2,2.2,1.5,4.6,0.9,7
		c-0.2,0.8-0.3,1.6-0.2,2.5c0.1,0.9,0.4,1.7,0.7,2.4c1.2,2.2,1.5,4.6,0.9,7c-0.2,0.8-0.3,1.6-0.2,2.5c0.1,0.9,0.4,1.7,0.7,2.4
		c1.2,2.2,1.5,4.6,0.9,7c-0.2,0.8-0.3,1.6-0.2,2.5c0.1,1,0.4,1.9,0.9,2.6c1.2,2,1.4,4.4,0.8,6.6c-0.2,0.8-0.3,1.6-0.2,2.4
		c0.3,3.7,3.8,6.6,7.5,6.2c3.8-0.4,6.5-3.8,6.1-7.6c-0.1-0.9-0.4-1.7-0.7-2.4c-1.2-2.2-1.5-4.6-0.9-7c0.2-0.8,0.3-1.6,0.2-2.5
		c-0.1-0.9-0.4-1.7-0.7-2.4c-1.2-2.2-1.5-4.6-0.9-7c0.2-0.8,0.3-1.6,0.2-2.5c-0.1-0.9-0.4-1.7-0.7-2.4c-1.2-2.2-1.5-4.6-0.9-7
		c0.2-0.8,0.3-1.6,0.2-2.5c-0.1-0.9-0.4-1.7-0.7-2.4c-1.2-2.2-1.5-4.6-0.9-7c0.2-0.8,0.3-1.6,0.2-2.5c-0.1-0.9-0.4-1.7-0.7-2.4
		c-1.2-2.2-1.5-4.6-0.9-7c0.2-0.8,0.3-1.6,0.2-2.5c-0.1-0.9-0.4-1.7-0.7-2.4c-1.2-2.2-1.5-4.6-0.9-7c0.2-0.8,0.3-1.6,0.2-2.5
		s-0.4-1.7-0.7-2.4c-1.2-2.2-1.5-4.6-0.9-7c0.2-0.8,0.3-1.6,0.2-2.5c-0.1-0.9-0.4-1.7-0.7-2.4c-1.2-2.2-1.5-4.6-0.9-7
		c0.2-0.8,0.3-1.6,0.2-2.5c-0.1-0.9-0.4-1.7-0.7-2.4c-1.2-2.2-1.5-4.6-0.9-7c0.2-0.8,0.3-1.6,0.2-2.5c-0.1-0.9-0.4-1.7-0.7-2.4
		c-1.2-2.2-1.5-4.6-0.9-7C759.9,217.6,759.9,216.7,759.8,215.9z"/>
	<path fill="none" stroke="#D6971A" stroke-width="1.489" stroke-miterlimit="10" d="M759.8,215.9c-0.1-1-0.4-1.9-0.9-2.6
		c-1.2-2-1.4-4.4-0.8-6.6c0.2-0.8,0.3-1.6,0.2-2.4c-0.3-3.7-3.8-6.6-7.5-6.2c-3.8,0.4-6.5,3.8-6.1,7.6c0.1,0.9,0.4,1.7,0.7,2.4
		c1.2,2.2,1.5,4.6,0.9,7c-0.2,0.8-0.3,1.6-0.2,2.5c0.1,0.9,0.4,1.7,0.7,2.4c1.2,2.2,1.5,4.6,0.9,7c-0.2,0.8-0.3,1.6-0.2,2.5
		c0.1,0.9,0.4,1.7,0.7,2.4c1.2,2.2,1.5,4.6,0.9,7c-0.2,0.8-0.3,1.6-0.2,2.5c0.1,0.9,0.4,1.7,0.7,2.4c1.2,2.2,1.5,4.6,0.9,7
		c-0.2,0.8-0.3,1.6-0.2,2.5c0.1,0.9,0.4,1.7,0.7,2.4c1.2,2.2,1.5,4.6,0.9,7c-0.2,0.8-0.3,1.6-0.2,2.5c0.1,0.9,0.4,1.7,0.7,2.4
		c1.2,2.2,1.5,4.6,0.9,7c-0.2,0.8-0.3,1.6-0.2,2.5c0.1,0.9,0.4,1.7,0.7,2.4c1.2,2.2,1.5,4.6,0.9,7c-0.2,0.8-0.3,1.6-0.2,2.5
		c0.1,0.9,0.4,1.7,0.7,2.4c1.2,2.2,1.5,4.6,0.9,7c-0.2,0.8-0.3,1.6-0.2,2.5c0.1,0.9,0.4,1.7,0.7,2.4c1.2,2.2,1.5,4.6,0.9,7
		c-0.2,0.8-0.3,1.6-0.2,2.5c0.1,0.9,0.4,1.7,0.7,2.4c1.2,2.2,1.5,4.6,0.9,7c-0.2,0.8-0.3,1.6-0.2,2.5c0.1,1,0.4,1.9,0.9,2.6
		c1.2,2,1.4,4.4,0.8,6.6c-0.2,0.8-0.3,1.6-0.2,2.4c0.3,3.7,3.8,6.6,7.5,6.2c3.8-0.4,6.5-3.8,6.1-7.6c-0.1-0.9-0.4-1.7-0.7-2.4
		c-1.2-2.2-1.5-4.6-0.9-7c0.2-0.8,0.3-1.6,0.2-2.5c-0.1-0.9-0.4-1.7-0.7-2.4c-1.2-2.2-1.5-4.6-0.9-7c0.2-0.8,0.3-1.6,0.2-2.5
		c-0.1-0.9-0.4-1.7-0.7-2.4c-1.2-2.2-1.5-4.6-0.9-7c0.2-0.8,0.3-1.6,0.2-2.5c-0.1-0.9-0.4-1.7-0.7-2.4c-1.2-2.2-1.5-4.6-0.9-7
		c0.2-0.8,0.3-1.6,0.2-2.5c-0.1-0.9-0.4-1.7-0.7-2.4c-1.2-2.2-1.5-4.6-0.9-7c0.2-0.8,0.3-1.6,0.2-2.5c-0.1-0.9-0.4-1.7-0.7-2.4
		c-1.2-2.2-1.5-4.6-0.9-7c0.2-0.8,0.3-1.6,0.2-2.5s-0.4-1.7-0.7-2.4c-1.2-2.2-1.5-4.6-0.9-7c0.2-0.8,0.3-1.6,0.2-2.5
		c-0.1-0.9-0.4-1.7-0.7-2.4c-1.2-2.2-1.5-4.6-0.9-7c0.2-0.8,0.3-1.6,0.2-2.5c-0.1-0.9-0.4-1.7-0.7-2.4c-1.2-2.2-1.5-4.6-0.9-7
		c0.2-0.8,0.3-1.6,0.2-2.5c-0.1-0.9-0.4-1.7-0.7-2.4c-1.2-2.2-1.5-4.6-0.9-7C759.9,217.6,759.9,216.7,759.8,215.9z"/>
</g>
<g opacity="0.45" filter="url(#ds1)">
	<path fill="#F9DA55" d="M801.1,225.1c0.7-0.7,1.1-1.5,1.4-2.4c0.8-2.2,2.5-3.9,4.6-4.9c0.7-0.3,1.4-0.8,2-1.4
		c2.6-2.7,2.5-7.2-0.2-9.7c-2.8-2.6-7.1-2.5-9.7,0.3c-0.6,0.6-1,1.4-1.3,2.1c-0.9,2.3-2.6,4.1-4.8,5.2c-0.7,0.4-1.4,0.9-2,1.5
		c-0.6,0.6-1,1.4-1.3,2.1c-0.9,2.3-2.6,4.1-4.8,5.2c-0.7,0.4-1.4,0.9-2,1.5c-0.6,0.6-1,1.4-1.3,2.1c-0.9,2.3-2.6,4.1-4.8,5.2
		c-0.7,0.4-1.4,0.9-2,1.5c-0.6,0.6-1,1.4-1.3,2.1c-0.9,2.3-2.6,4.1-4.8,5.2c-0.7,0.4-1.4,0.9-2,1.5s-1,1.4-1.3,2.1
		c-0.9,2.3-2.6,4.1-4.8,5.2c-0.7,0.4-1.4,0.9-2,1.5c-0.6,0.6-1,1.4-1.3,2.1c-0.9,2.3-2.6,4.1-4.8,5.2c-0.7,0.4-1.4,0.9-2,1.5
		c-0.6,0.6-1,1.4-1.3,2.1c-0.9,2.3-2.6,4.1-4.8,5.2c-0.7,0.4-1.4,0.9-2,1.5c-0.6,0.6-1,1.4-1.3,2.1c-0.9,2.3-2.6,4.1-4.8,5.2
		c-0.7,0.4-1.4,0.9-2,1.5s-1,1.4-1.3,2.1c-0.9,2.3-2.6,4.1-4.8,5.2c-0.7,0.4-1.4,0.9-2,1.5c-0.6,0.6-1,1.4-1.3,2.1
		c-0.9,2.3-2.6,4.1-4.8,5.2c-0.7,0.4-1.4,0.9-2,1.5c-0.7,0.7-1.1,1.5-1.4,2.4c-0.8,2.2-2.5,3.9-4.6,4.9c-0.7,0.3-1.4,0.8-2,1.4
		c-2.6,2.7-2.5,7.2,0.2,9.7c2.8,2.6,7.1,2.5,9.7-0.3c0.6-0.6,1-1.4,1.3-2.1c0.9-2.3,2.6-4.1,4.8-5.2c0.7-0.4,1.4-0.9,2-1.5
		c0.6-0.6,1-1.4,1.3-2.1c0.9-2.3,2.6-4.1,4.8-5.2c0.7-0.4,1.4-0.9,2-1.5s1-1.4,1.3-2.1c0.9-2.3,2.6-4.1,4.8-5.2
		c0.7-0.4,1.4-0.9,2-1.5s1-1.4,1.3-2.1c0.9-2.3,2.6-4.1,4.8-5.2c0.7-0.4,1.4-0.9,2-1.5c0.6-0.6,1-1.4,1.3-2.1
		c0.9-2.3,2.6-4.1,4.8-5.2c0.7-0.4,1.4-0.9,2-1.5c0.6-0.6,1-1.4,1.3-2.1c0.9-2.3,2.6-4.1,4.8-5.2c0.7-0.4,1.4-0.9,2-1.5
		c0.6-0.6,1-1.4,1.3-2.1c0.9-2.3,2.6-4.1,4.8-5.2c0.7-0.4,1.4-0.9,2-1.5s1-1.4,1.3-2.1c0.9-2.3,2.6-4.1,4.8-5.2
		c0.7-0.4,1.4-0.9,2-1.5c0.6-0.6,1-1.4,1.3-2.1c0.9-2.3,2.6-4.1,4.8-5.2c0.7-0.4,1.4-0.9,2-1.5c0.6-0.6,1-1.4,1.3-2.1
		c0.9-2.3,2.6-4.1,4.8-5.2C799.9,226.2,800.6,225.7,801.1,225.1z"/>
	<path fill="none" stroke="#D6971A" stroke-width="1.489" stroke-miterlimit="10" d="M801.1,225.1c0.7-0.7,1.1-1.5,1.4-2.4
		c0.8-2.2,2.5-3.9,4.6-4.9c0.7-0.3,1.4-0.8,2-1.4c2.6-2.7,2.5-7.2-0.2-9.7c-2.8-2.6-7.1-2.5-9.7,0.3c-0.6,0.6-1,1.4-1.3,2.1
		c-0.9,2.3-2.6,4.1-4.8,5.2c-0.7,0.4-1.4,0.9-2,1.5c-0.6,0.6-1,1.4-1.3,2.1c-0.9,2.3-2.6,4.1-4.8,5.2c-0.7,0.4-1.4,0.9-2,1.5
		c-0.6,0.6-1,1.4-1.3,2.1c-0.9,2.3-2.6,4.1-4.8,5.2c-0.7,0.4-1.4,0.9-2,1.5c-0.6,0.6-1,1.4-1.3,2.1c-0.9,2.3-2.6,4.1-4.8,5.2
		c-0.7,0.4-1.4,0.9-2,1.5s-1,1.4-1.3,2.1c-0.9,2.3-2.6,4.1-4.8,5.2c-0.7,0.4-1.4,0.9-2,1.5c-0.6,0.6-1,1.4-1.3,2.1
		c-0.9,2.3-2.6,4.1-4.8,5.2c-0.7,0.4-1.4,0.9-2,1.5c-0.6,0.6-1,1.4-1.3,2.1c-0.9,2.3-2.6,4.1-4.8,5.2c-0.7,0.4-1.4,0.9-2,1.5
		c-0.6,0.6-1,1.4-1.3,2.1c-0.9,2.3-2.6,4.1-4.8,5.2c-0.7,0.4-1.4,0.9-2,1.5s-1,1.4-1.3,2.1c-0.9,2.3-2.6,4.1-4.8,5.2
		c-0.7,0.4-1.4,0.9-2,1.5c-0.6,0.6-1,1.4-1.3,2.1c-0.9,2.3-2.6,4.1-4.8,5.2c-0.7,0.4-1.4,0.9-2,1.5c-0.7,0.7-1.1,1.5-1.4,2.4
		c-0.8,2.2-2.5,3.9-4.6,4.9c-0.7,0.3-1.4,0.8-2,1.4c-2.6,2.7-2.5,7.2,0.2,9.7c2.8,2.6,7.1,2.5,9.7-0.3c0.6-0.6,1-1.4,1.3-2.1
		c0.9-2.3,2.6-4.1,4.8-5.2c0.7-0.4,1.4-0.9,2-1.5c0.6-0.6,1-1.4,1.3-2.1c0.9-2.3,2.6-4.1,4.8-5.2c0.7-0.4,1.4-0.9,2-1.5
		s1-1.4,1.3-2.1c0.9-2.3,2.6-4.1,4.8-5.2c0.7-0.4,1.4-0.9,2-1.5s1-1.4,1.3-2.1c0.9-2.3,2.6-4.1,4.8-5.2c0.7-0.4,1.4-0.9,2-1.5
		c0.6-0.6,1-1.4,1.3-2.1c0.9-2.3,2.6-4.1,4.8-5.2c0.7-0.4,1.4-0.9,2-1.5c0.6-0.6,1-1.4,1.3-2.1c0.9-2.3,2.6-4.1,4.8-5.2
		c0.7-0.4,1.4-0.9,2-1.5c0.6-0.6,1-1.4,1.3-2.1c0.9-2.3,2.6-4.1,4.8-5.2c0.7-0.4,1.4-0.9,2-1.5s1-1.4,1.3-2.1
		c0.9-2.3,2.6-4.1,4.8-5.2c0.7-0.4,1.4-0.9,2-1.5c0.6-0.6,1-1.4,1.3-2.1c0.9-2.3,2.6-4.1,4.8-5.2c0.7-0.4,1.4-0.9,2-1.5
		c0.6-0.6,1-1.4,1.3-2.1c0.9-2.3,2.6-4.1,4.8-5.2C799.9,226.2,800.6,225.7,801.1,225.1z"/>
</g>
<g opacity="0.45" filter="url(#ds1)">
	<path fill="#F9DA55" d="M832.3,224.8c0.2-1,0.2-1.9,0-2.8c-0.5-2.3,0.1-4.6,1.4-6.5c0.4-0.7,0.8-1.4,1-2.2c0.9-3.6-1.5-7.4-5.2-8.3
		c-3.7-0.8-7.4,1.6-8.2,5.3c-0.2,0.8-0.2,1.7,0,2.5c0.4,2.4-0.1,4.9-1.4,7c-0.4,0.7-0.8,1.5-0.9,2.3c-0.2,0.8-0.2,1.7,0,2.5
		c0.4,2.4-0.1,4.9-1.4,7c-0.4,0.7-0.8,1.5-0.9,2.3c-0.2,0.8-0.2,1.7,0,2.5c0.4,2.4-0.1,4.9-1.4,7c-0.4,0.7-0.8,1.5-0.9,2.3
		c-0.2,0.8-0.2,1.7,0,2.5c0.4,2.4-0.1,4.9-1.4,7c-0.4,0.7-0.8,1.5-0.9,2.3c-0.2,0.8-0.2,1.7,0,2.5c0.4,2.4-0.1,4.9-1.4,7
		c-0.4,0.7-0.8,1.5-0.9,2.3c-0.2,0.8-0.2,1.7,0,2.5c0.4,2.4-0.1,4.9-1.4,7c-0.4,0.7-0.8,1.5-0.9,2.3c-0.2,0.8-0.2,1.7,0,2.5
		c0.4,2.4-0.1,4.9-1.4,7c-0.4,0.7-0.8,1.5-0.9,2.3c-0.2,0.8-0.2,1.7,0,2.5c0.4,2.4-0.1,4.9-1.4,7c-0.4,0.7-0.8,1.5-0.9,2.3
		c-0.2,0.8-0.2,1.7,0,2.5c0.4,2.4-0.1,4.9-1.4,7c-0.4,0.7-0.8,1.5-0.9,2.3c-0.2,0.8-0.2,1.7,0,2.5c0.4,2.4-0.1,4.9-1.4,7
		c-0.4,0.7-0.8,1.5-0.9,2.3c-0.2,0.9-0.2,1.9,0,2.8c0.5,2.3-0.1,4.6-1.4,6.5c-0.4,0.7-0.8,1.4-1,2.2c-0.9,3.6,1.5,7.4,5.2,8.3
		c3.7,0.8,7.4-1.6,8.2-5.3c0.2-0.8,0.2-1.7,0-2.5c-0.4-2.4,0.1-4.9,1.4-7c0.4-0.7,0.8-1.5,0.9-2.3c0.2-0.8,0.2-1.7,0-2.5
		c-0.4-2.4,0.1-4.9,1.4-7c0.4-0.7,0.8-1.5,0.9-2.3c0.2-0.8,0.2-1.7,0-2.5c-0.4-2.4,0.1-4.9,1.4-7c0.4-0.7,0.8-1.5,0.9-2.3
		c0.2-0.8,0.2-1.7,0-2.5c-0.4-2.4,0.1-4.9,1.4-7c0.4-0.7,0.8-1.5,0.9-2.3c0.2-0.8,0.2-1.7,0-2.5c-0.4-2.4,0.1-4.9,1.4-7
		c0.4-0.7,0.8-1.5,0.9-2.3c0.2-0.8,0.2-1.7,0-2.5c-0.4-2.4,0.1-4.9,1.4-7c0.4-0.7,0.8-1.5,0.9-2.3c0.2-0.8,0.2-1.7,0-2.5
		c-0.4-2.4,0.1-4.9,1.4-7c0.4-0.7,0.8-1.5,0.9-2.3c0.2-0.8,0.2-1.7,0-2.5c-0.4-2.4,0.1-4.9,1.4-7c0.4-0.7,0.8-1.5,0.9-2.3
		c0.2-0.8,0.2-1.7,0-2.5c-0.4-2.4,0.1-4.9,1.4-7c0.4-0.7,0.8-1.5,0.9-2.3c0.2-0.8,0.2-1.7,0-2.5c-0.4-2.4,0.1-4.9,1.4-7
		C831.8,226.4,832.1,225.6,832.3,224.8z"/>
	<path fill="none" stroke="#D6971A" stroke-width="1.489" stroke-miterlimit="10" d="M832.3,224.8c0.2-1,0.2-1.9,0-2.8
		c-0.5-2.3,0.1-4.6,1.4-6.5c0.4-0.7,0.8-1.4,1-2.2c0.9-3.6-1.5-7.4-5.2-8.3c-3.7-0.8-7.4,1.6-8.2,5.3c-0.2,0.8-0.2,1.7,0,2.5
		c0.4,2.4-0.1,4.9-1.4,7c-0.4,0.7-0.8,1.5-0.9,2.3c-0.2,0.8-0.2,1.7,0,2.5c0.4,2.4-0.1,4.9-1.4,7c-0.4,0.7-0.8,1.5-0.9,2.3
		c-0.2,0.8-0.2,1.7,0,2.5c0.4,2.4-0.1,4.9-1.4,7c-0.4,0.7-0.8,1.5-0.9,2.3c-0.2,0.8-0.2,1.7,0,2.5c0.4,2.4-0.1,4.9-1.4,7
		c-0.4,0.7-0.8,1.5-0.9,2.3c-0.2,0.8-0.2,1.7,0,2.5c0.4,2.4-0.1,4.9-1.4,7c-0.4,0.7-0.8,1.5-0.9,2.3c-0.2,0.8-0.2,1.7,0,2.5
		c0.4,2.4-0.1,4.9-1.4,7c-0.4,0.7-0.8,1.5-0.9,2.3c-0.2,0.8-0.2,1.7,0,2.5c0.4,2.4-0.1,4.9-1.4,7c-0.4,0.7-0.8,1.5-0.9,2.3
		c-0.2,0.8-0.2,1.7,0,2.5c0.4,2.4-0.1,4.9-1.4,7c-0.4,0.7-0.8,1.5-0.9,2.3c-0.2,0.8-0.2,1.7,0,2.5c0.4,2.4-0.1,4.9-1.4,7
		c-0.4,0.7-0.8,1.5-0.9,2.3c-0.2,0.8-0.2,1.7,0,2.5c0.4,2.4-0.1,4.9-1.4,7c-0.4,0.7-0.8,1.5-0.9,2.3c-0.2,0.9-0.2,1.9,0,2.8
		c0.5,2.3-0.1,4.6-1.4,6.5c-0.4,0.7-0.8,1.4-1,2.2c-0.9,3.6,1.5,7.4,5.2,8.3c3.7,0.8,7.4-1.6,8.2-5.3c0.2-0.8,0.2-1.7,0-2.5
		c-0.4-2.4,0.1-4.9,1.4-7c0.4-0.7,0.8-1.5,0.9-2.3c0.2-0.8,0.2-1.7,0-2.5c-0.4-2.4,0.1-4.9,1.4-7c0.4-0.7,0.8-1.5,0.9-2.3
		c0.2-0.8,0.2-1.7,0-2.5c-0.4-2.4,0.1-4.9,1.4-7c0.4-0.7,0.8-1.5,0.9-2.3c0.2-0.8,0.2-1.7,0-2.5c-0.4-2.4,0.1-4.9,1.4-7
		c0.4-0.7,0.8-1.5,0.9-2.3c0.2-0.8,0.2-1.7,0-2.5c-0.4-2.4,0.1-4.9,1.4-7c0.4-0.7,0.8-1.5,0.9-2.3c0.2-0.8,0.2-1.7,0-2.5
		c-0.4-2.4,0.1-4.9,1.4-7c0.4-0.7,0.8-1.5,0.9-2.3c0.2-0.8,0.2-1.7,0-2.5c-0.4-2.4,0.1-4.9,1.4-7c0.4-0.7,0.8-1.5,0.9-2.3
		c0.2-0.8,0.2-1.7,0-2.5c-0.4-2.4,0.1-4.9,1.4-7c0.4-0.7,0.8-1.5,0.9-2.3c0.2-0.8,0.2-1.7,0-2.5c-0.4-2.4,0.1-4.9,1.4-7
		c0.4-0.7,0.8-1.5,0.9-2.3c0.2-0.8,0.2-1.7,0-2.5c-0.4-2.4,0.1-4.9,1.4-7C831.8,226.4,832.1,225.6,832.3,224.8z"/>
</g>
<g opacity="0.45" filter="url(#ds1)">
	<path fill="#F9DA55" d="M781.3,207.9c0.3-0.9,0.5-1.8,0.4-2.8c-0.1-2.3,0.8-4.5,2.4-6.2c0.5-0.6,1-1.3,1.3-2
		c1.4-3.5-0.3-7.6-3.8-8.9c-3.6-1.4-7.6,0.4-8.9,4c-0.3,0.8-0.4,1.6-0.4,2.5c0,2.5-0.8,4.8-2.5,6.7c-0.5,0.6-1,1.3-1.3,2.1
		s-0.4,1.6-0.4,2.5c0,2.5-0.8,4.8-2.5,6.7c-0.5,0.6-1,1.3-1.3,2.1c-0.3,0.8-0.4,1.6-0.4,2.5c0,2.5-0.8,4.8-2.5,6.7
		c-0.5,0.6-1,1.3-1.3,2.1c-0.3,0.8-0.4,1.6-0.4,2.5c0,2.5-0.8,4.8-2.5,6.7c-0.5,0.6-1,1.3-1.3,2.1c-0.3,0.8-0.4,1.6-0.4,2.5
		c0,2.5-0.8,4.8-2.5,6.7c-0.5,0.6-1,1.3-1.3,2.1c-0.3,0.8-0.4,1.6-0.4,2.5c0,2.5-0.8,4.8-2.5,6.7c-0.5,0.6-1,1.3-1.3,2.1
		c-0.3,0.8-0.4,1.6-0.4,2.5c0,2.5-0.8,4.8-2.5,6.7c-0.5,0.6-1,1.3-1.3,2.1c-0.3,0.8-0.4,1.6-0.4,2.5c0,2.5-0.8,4.8-2.5,6.7
		c-0.5,0.6-1,1.3-1.3,2.1c-0.3,0.8-0.4,1.6-0.4,2.5c0,2.5-0.8,4.8-2.5,6.7c-0.5,0.6-1,1.3-1.3,2.1c-0.3,0.8-0.4,1.6-0.4,2.5
		c0,2.5-0.8,4.8-2.5,6.7c-0.5,0.6-1,1.3-1.3,2.1c-0.3,0.9-0.5,1.8-0.4,2.8c0.1,2.3-0.8,4.5-2.4,6.2c-0.5,0.6-1,1.3-1.3,2
		c-1.4,3.5,0.3,7.6,3.8,8.9c3.6,1.4,7.6-0.4,8.9-4c0.3-0.8,0.4-1.6,0.4-2.5c0-2.5,0.8-4.8,2.5-6.7c0.5-0.6,1-1.3,1.3-2.1
		c0.3-0.8,0.4-1.6,0.4-2.5c0-2.5,0.8-4.8,2.5-6.7c0.5-0.6,1-1.3,1.3-2.1c0.3-0.8,0.4-1.6,0.4-2.5c0-2.5,0.8-4.8,2.5-6.7
		c0.5-0.6,1-1.3,1.3-2.1c0.3-0.8,0.4-1.6,0.4-2.5c0-2.5,0.8-4.8,2.5-6.7c0.5-0.6,1-1.3,1.3-2.1c0.3-0.8,0.4-1.6,0.4-2.5
		c0-2.5,0.8-4.8,2.5-6.7c0.5-0.6,1-1.3,1.3-2.1c0.3-0.8,0.4-1.6,0.4-2.5c0-2.5,0.8-4.8,2.5-6.7c0.5-0.6,1-1.3,1.3-2.1
		s0.4-1.6,0.4-2.5c0-2.5,0.8-4.8,2.5-6.7c0.5-0.6,1-1.3,1.3-2.1c0.3-0.8,0.4-1.6,0.4-2.5c0-2.5,0.8-4.8,2.5-6.7
		c0.5-0.6,1-1.3,1.3-2.1c0.3-0.8,0.4-1.6,0.4-2.5c0-2.5,0.8-4.8,2.5-6.7c0.5-0.6,1-1.3,1.3-2.1c0.3-0.8,0.4-1.6,0.4-2.5
		c0-2.5,0.8-4.8,2.5-6.7C780.5,209.4,781,208.7,781.3,207.9z"/>
	<path fill="none" stroke="#D6971A" stroke-width="1.489" stroke-miterlimit="10" d="M781.3,207.9c0.3-0.9,0.5-1.8,0.4-2.8
		c-0.1-2.3,0.8-4.5,2.4-6.2c0.5-0.6,1-1.3,1.3-2c1.4-3.5-0.3-7.6-3.8-8.9c-3.6-1.4-7.6,0.4-8.9,4c-0.3,0.8-0.4,1.6-0.4,2.5
		c0,2.5-0.8,4.8-2.5,6.7c-0.5,0.6-1,1.3-1.3,2.1s-0.4,1.6-0.4,2.5c0,2.5-0.8,4.8-2.5,6.7c-0.5,0.6-1,1.3-1.3,2.1
		c-0.3,0.8-0.4,1.6-0.4,2.5c0,2.5-0.8,4.8-2.5,6.7c-0.5,0.6-1,1.3-1.3,2.1c-0.3,0.8-0.4,1.6-0.4,2.5c0,2.5-0.8,4.8-2.5,6.7
		c-0.5,0.6-1,1.3-1.3,2.1c-0.3,0.8-0.4,1.6-0.4,2.5c0,2.5-0.8,4.8-2.5,6.7c-0.5,0.6-1,1.3-1.3,2.1c-0.3,0.8-0.4,1.6-0.4,2.5
		c0,2.5-0.8,4.8-2.5,6.7c-0.5,0.6-1,1.3-1.3,2.1c-0.3,0.8-0.4,1.6-0.4,2.5c0,2.5-0.8,4.8-2.5,6.7c-0.5,0.6-1,1.3-1.3,2.1
		c-0.3,0.8-0.4,1.6-0.4,2.5c0,2.5-0.8,4.8-2.5,6.7c-0.5,0.6-1,1.3-1.3,2.1c-0.3,0.8-0.4,1.6-0.4,2.5c0,2.5-0.8,4.8-2.5,6.7
		c-0.5,0.6-1,1.3-1.3,2.1c-0.3,0.8-0.4,1.6-0.4,2.5c0,2.5-0.8,4.8-2.5,6.7c-0.5,0.6-1,1.3-1.3,2.1c-0.3,0.9-0.5,1.8-0.4,2.8
		c0.1,2.3-0.8,4.5-2.4,6.2c-0.5,0.6-1,1.3-1.3,2c-1.4,3.5,0.3,7.6,3.8,8.9c3.6,1.4,7.6-0.4,8.9-4c0.3-0.8,0.4-1.6,0.4-2.5
		c0-2.5,0.8-4.8,2.5-6.7c0.5-0.6,1-1.3,1.3-2.1c0.3-0.8,0.4-1.6,0.4-2.5c0-2.5,0.8-4.8,2.5-6.7c0.5-0.6,1-1.3,1.3-2.1
		c0.3-0.8,0.4-1.6,0.4-2.5c0-2.5,0.8-4.8,2.5-6.7c0.5-0.6,1-1.3,1.3-2.1c0.3-0.8,0.4-1.6,0.4-2.5c0-2.5,0.8-4.8,2.5-6.7
		c0.5-0.6,1-1.3,1.3-2.1c0.3-0.8,0.4-1.6,0.4-2.5c0-2.5,0.8-4.8,2.5-6.7c0.5-0.6,1-1.3,1.3-2.1c0.3-0.8,0.4-1.6,0.4-2.5
		c0-2.5,0.8-4.8,2.5-6.7c0.5-0.6,1-1.3,1.3-2.1s0.4-1.6,0.4-2.5c0-2.5,0.8-4.8,2.5-6.7c0.5-0.6,1-1.3,1.3-2.1
		c0.3-0.8,0.4-1.6,0.4-2.5c0-2.5,0.8-4.8,2.5-6.7c0.5-0.6,1-1.3,1.3-2.1c0.3-0.8,0.4-1.6,0.4-2.5c0-2.5,0.8-4.8,2.5-6.7
		c0.5-0.6,1-1.3,1.3-2.1c0.3-0.8,0.4-1.6,0.4-2.5c0-2.5,0.8-4.8,2.5-6.7C780.5,209.4,781,208.7,781.3,207.9z"/>
</g>
<g opacity="0.45" filter="url(#ds1)">
	<path fill="#F9DA55" d="M805.6,254.2c0.6-0.7,1.1-1.6,1.3-2.5c0.6-2.2,2.3-4,4.3-5.1c0.7-0.4,1.3-0.9,1.9-1.5
		c2.5-2.8,2.2-7.3-0.6-9.7c-2.9-2.5-7.3-2.1-9.7,0.8c-0.6,0.7-1,1.4-1.2,2.2c-0.8,2.3-2.4,4.3-4.5,5.5c-0.7,0.4-1.4,0.9-1.9,1.6
		c-0.6,0.7-1,1.4-1.2,2.2c-0.8,2.3-2.4,4.3-4.5,5.5c-0.7,0.4-1.4,0.9-1.9,1.6c-0.6,0.7-1,1.4-1.2,2.2c-0.8,2.3-2.4,4.3-4.5,5.5
		c-0.7,0.4-1.4,0.9-1.9,1.6c-0.6,0.7-1,1.4-1.2,2.2c-0.8,2.3-2.4,4.3-4.5,5.5c-0.7,0.4-1.4,0.9-1.9,1.6s-1,1.4-1.2,2.2
		c-0.8,2.3-2.4,4.3-4.5,5.5c-0.7,0.4-1.4,0.9-1.9,1.6s-1,1.4-1.2,2.2c-0.8,2.3-2.4,4.3-4.5,5.5c-0.7,0.4-1.4,0.9-1.9,1.6
		c-0.6,0.7-1,1.4-1.2,2.2c-0.8,2.3-2.4,4.3-4.5,5.5c-0.7,0.4-1.4,0.9-1.9,1.6c-0.6,0.7-1,1.4-1.2,2.2c-0.8,2.3-2.4,4.3-4.5,5.5
		c-0.7,0.4-1.4,0.9-1.9,1.6s-1,1.4-1.2,2.2c-0.8,2.3-2.4,4.3-4.5,5.5c-0.7,0.4-1.4,0.9-1.9,1.6c-0.6,0.7-1,1.4-1.2,2.2
		c-0.8,2.3-2.4,4.3-4.5,5.5c-0.7,0.4-1.4,0.9-1.9,1.6c-0.6,0.7-1.1,1.6-1.3,2.5c-0.6,2.2-2.3,4-4.3,5.1c-0.7,0.4-1.3,0.9-1.9,1.5
		c-2.5,2.8-2.2,7.3,0.6,9.7c2.9,2.5,7.3,2.1,9.7-0.8c0.6-0.7,1-1.4,1.2-2.2c0.8-2.3,2.4-4.3,4.5-5.5c0.7-0.4,1.4-0.9,1.9-1.6
		c0.6-0.7,1-1.4,1.2-2.2c0.8-2.3,2.4-4.3,4.5-5.5c0.7-0.4,1.4-0.9,1.9-1.6c0.6-0.7,1-1.4,1.2-2.2c0.8-2.3,2.4-4.3,4.5-5.5
		c0.7-0.4,1.4-0.9,1.9-1.6c0.6-0.7,1-1.4,1.2-2.2c0.8-2.3,2.4-4.3,4.5-5.5c0.7-0.4,1.4-0.9,1.9-1.6c0.6-0.7,1-1.4,1.2-2.2
		c0.8-2.3,2.4-4.3,4.5-5.5c0.7-0.4,1.4-0.9,1.9-1.6c0.6-0.7,1-1.4,1.2-2.2c0.8-2.3,2.4-4.3,4.5-5.5c0.7-0.4,1.4-0.9,1.9-1.6
		s1-1.4,1.2-2.2c0.8-2.3,2.4-4.3,4.5-5.5c0.7-0.4,1.4-0.9,1.9-1.6s1-1.4,1.2-2.2c0.8-2.3,2.4-4.3,4.5-5.5c0.7-0.4,1.4-0.9,1.9-1.6
		c0.6-0.7,1-1.4,1.2-2.2c0.8-2.3,2.4-4.3,4.5-5.5c0.7-0.4,1.4-0.9,1.9-1.6c0.6-0.7,1-1.4,1.2-2.2c0.8-2.3,2.4-4.3,4.5-5.5
		C804.4,255.4,805,254.8,805.6,254.2z"/>
	<path fill="none" stroke="#D6971A" stroke-width="1.489" stroke-miterlimit="10" d="M805.6,254.2c0.6-0.7,1.1-1.6,1.3-2.5
		c0.6-2.2,2.3-4,4.3-5.1c0.7-0.4,1.3-0.9,1.9-1.5c2.5-2.8,2.2-7.3-0.6-9.7c-2.9-2.5-7.3-2.1-9.7,0.8c-0.6,0.7-1,1.4-1.2,2.2
		c-0.8,2.3-2.4,4.3-4.5,5.5c-0.7,0.4-1.4,0.9-1.9,1.6c-0.6,0.7-1,1.4-1.2,2.2c-0.8,2.3-2.4,4.3-4.5,5.5c-0.7,0.4-1.4,0.9-1.9,1.6
		c-0.6,0.7-1,1.4-1.2,2.2c-0.8,2.3-2.4,4.3-4.5,5.5c-0.7,0.4-1.4,0.9-1.9,1.6c-0.6,0.7-1,1.4-1.2,2.2c-0.8,2.3-2.4,4.3-4.5,5.5
		c-0.7,0.4-1.4,0.9-1.9,1.6s-1,1.4-1.2,2.2c-0.8,2.3-2.4,4.3-4.5,5.5c-0.7,0.4-1.4,0.9-1.9,1.6s-1,1.4-1.2,2.2
		c-0.8,2.3-2.4,4.3-4.5,5.5c-0.7,0.4-1.4,0.9-1.9,1.6c-0.6,0.7-1,1.4-1.2,2.2c-0.8,2.3-2.4,4.3-4.5,5.5c-0.7,0.4-1.4,0.9-1.9,1.6
		c-0.6,0.7-1,1.4-1.2,2.2c-0.8,2.3-2.4,4.3-4.5,5.5c-0.7,0.4-1.4,0.9-1.9,1.6s-1,1.4-1.2,2.2c-0.8,2.3-2.4,4.3-4.5,5.5
		c-0.7,0.4-1.4,0.9-1.9,1.6c-0.6,0.7-1,1.4-1.2,2.2c-0.8,2.3-2.4,4.3-4.5,5.5c-0.7,0.4-1.4,0.9-1.9,1.6c-0.6,0.7-1.1,1.6-1.3,2.5
		c-0.6,2.2-2.3,4-4.3,5.1c-0.7,0.4-1.3,0.9-1.9,1.5c-2.5,2.8-2.2,7.3,0.6,9.7c2.9,2.5,7.3,2.1,9.7-0.8c0.6-0.7,1-1.4,1.2-2.2
		c0.8-2.3,2.4-4.3,4.5-5.5c0.7-0.4,1.4-0.9,1.9-1.6c0.6-0.7,1-1.4,1.2-2.2c0.8-2.3,2.4-4.3,4.5-5.5c0.7-0.4,1.4-0.9,1.9-1.6
		c0.6-0.7,1-1.4,1.2-2.2c0.8-2.3,2.4-4.3,4.5-5.5c0.7-0.4,1.4-0.9,1.9-1.6c0.6-0.7,1-1.4,1.2-2.2c0.8-2.3,2.4-4.3,4.5-5.5
		c0.7-0.4,1.4-0.9,1.9-1.6c0.6-0.7,1-1.4,1.2-2.2c0.8-2.3,2.4-4.3,4.5-5.5c0.7-0.4,1.4-0.9,1.9-1.6c0.6-0.7,1-1.4,1.2-2.2
		c0.8-2.3,2.4-4.3,4.5-5.5c0.7-0.4,1.4-0.9,1.9-1.6s1-1.4,1.2-2.2c0.8-2.3,2.4-4.3,4.5-5.5c0.7-0.4,1.4-0.9,1.9-1.6s1-1.4,1.2-2.2
		c0.8-2.3,2.4-4.3,4.5-5.5c0.7-0.4,1.4-0.9,1.9-1.6c0.6-0.7,1-1.4,1.2-2.2c0.8-2.3,2.4-4.3,4.5-5.5c0.7-0.4,1.4-0.9,1.9-1.6
		c0.6-0.7,1-1.4,1.2-2.2c0.8-2.3,2.4-4.3,4.5-5.5C804.4,255.4,805,254.8,805.6,254.2z"/>
</g>
<g opacity="0.45" filter="url(#ds1)">
	<path fill="#F9DA55" d="M726.3,231.9c-0.6-0.7-1.4-1.3-2.2-1.7c-2.1-1-3.6-2.9-4.3-5.1c-0.2-0.7-0.6-1.5-1.1-2.1
		c-2.3-2.9-6.8-3.4-9.7-1c-2.9,2.4-3.3,6.8-0.8,9.7c0.6,0.7,1.2,1.2,1.9,1.6c2.2,1.2,3.8,3.1,4.6,5.4c0.3,0.8,0.7,1.5,1.2,2.2
		c0.6,0.7,1.2,1.2,1.9,1.6c2.2,1.2,3.8,3.1,4.6,5.4c0.3,0.8,0.7,1.5,1.2,2.2c0.6,0.7,1.2,1.2,1.9,1.6c2.2,1.2,3.8,3.1,4.6,5.4
		c0.3,0.8,0.7,1.5,1.2,2.2c0.6,0.7,1.2,1.2,1.9,1.6c2.2,1.2,3.8,3.1,4.6,5.4c0.3,0.8,0.7,1.5,1.2,2.2c0.6,0.7,1.2,1.2,1.9,1.6
		c2.2,1.2,3.8,3.1,4.6,5.4c0.3,0.8,0.7,1.5,1.2,2.2c0.6,0.7,1.2,1.2,1.9,1.6c2.2,1.2,3.8,3.1,4.6,5.4c0.3,0.8,0.7,1.5,1.2,2.2
		c0.6,0.7,1.2,1.2,1.9,1.6c2.2,1.2,3.8,3.1,4.6,5.4c0.3,0.8,0.7,1.5,1.2,2.2c0.6,0.7,1.2,1.2,1.9,1.6c2.2,1.2,3.8,3.1,4.6,5.4
		c0.3,0.8,0.7,1.5,1.2,2.2c0.6,0.7,1.2,1.2,1.9,1.6c2.2,1.2,3.8,3.1,4.6,5.4c0.3,0.8,0.7,1.5,1.2,2.2c0.6,0.7,1.2,1.2,1.9,1.6
		c2.2,1.2,3.8,3.1,4.6,5.4c0.3,0.8,0.7,1.5,1.2,2.2c0.6,0.7,1.4,1.3,2.2,1.7c2.1,1,3.6,2.9,4.3,5.1c0.2,0.7,0.6,1.5,1.1,2.1
		c2.3,2.9,6.8,3.4,9.7,1c2.9-2.4,3.3-6.8,0.8-9.7c-0.6-0.7-1.2-1.2-1.9-1.6c-2.2-1.2-3.8-3.1-4.6-5.4c-0.3-0.8-0.7-1.5-1.2-2.2
		c-0.6-0.7-1.2-1.2-1.9-1.6c-2.2-1.2-3.8-3.1-4.6-5.4c-0.3-0.8-0.7-1.5-1.2-2.2c-0.6-0.7-1.2-1.2-1.9-1.6c-2.2-1.2-3.8-3.1-4.6-5.4
		c-0.3-0.8-0.7-1.5-1.2-2.2c-0.6-0.7-1.2-1.2-1.9-1.6c-2.2-1.2-3.8-3.1-4.6-5.4c-0.3-0.8-0.7-1.5-1.2-2.2c-0.6-0.7-1.2-1.2-1.9-1.6
		c-2.2-1.2-3.8-3.1-4.6-5.4c-0.3-0.8-0.7-1.5-1.2-2.2c-0.6-0.7-1.2-1.2-1.9-1.6c-2.2-1.2-3.8-3.1-4.6-5.4c-0.3-0.8-0.7-1.5-1.2-2.2
		c-0.6-0.7-1.2-1.2-1.9-1.6c-2.2-1.2-3.8-3.1-4.6-5.4c-0.3-0.8-0.7-1.5-1.2-2.2c-0.6-0.7-1.2-1.2-1.9-1.6c-2.2-1.2-3.8-3.1-4.6-5.4
		c-0.3-0.8-0.7-1.5-1.2-2.2c-0.6-0.7-1.2-1.2-1.9-1.6c-2.2-1.2-3.8-3.1-4.6-5.4c-0.3-0.8-0.7-1.5-1.2-2.2c-0.6-0.7-1.2-1.2-1.9-1.6
		c-2.2-1.2-3.8-3.1-4.6-5.4C727.2,233.3,726.8,232.6,726.3,231.9z"/>
	<path fill="none" stroke="#D6971A" stroke-width="1.489" stroke-miterlimit="10" d="M726.3,231.9c-0.6-0.7-1.4-1.3-2.2-1.7
		c-2.1-1-3.6-2.9-4.3-5.1c-0.2-0.7-0.6-1.5-1.1-2.1c-2.3-2.9-6.8-3.4-9.7-1c-2.9,2.4-3.3,6.8-0.8,9.7c0.6,0.7,1.2,1.2,1.9,1.6
		c2.2,1.2,3.8,3.1,4.6,5.4c0.3,0.8,0.7,1.5,1.2,2.2c0.6,0.7,1.2,1.2,1.9,1.6c2.2,1.2,3.8,3.1,4.6,5.4c0.3,0.8,0.7,1.5,1.2,2.2
		c0.6,0.7,1.2,1.2,1.9,1.6c2.2,1.2,3.8,3.1,4.6,5.4c0.3,0.8,0.7,1.5,1.2,2.2c0.6,0.7,1.2,1.2,1.9,1.6c2.2,1.2,3.8,3.1,4.6,5.4
		c0.3,0.8,0.7,1.5,1.2,2.2c0.6,0.7,1.2,1.2,1.9,1.6c2.2,1.2,3.8,3.1,4.6,5.4c0.3,0.8,0.7,1.5,1.2,2.2c0.6,0.7,1.2,1.2,1.9,1.6
		c2.2,1.2,3.8,3.1,4.6,5.4c0.3,0.8,0.7,1.5,1.2,2.2c0.6,0.7,1.2,1.2,1.9,1.6c2.2,1.2,3.8,3.1,4.6,5.4c0.3,0.8,0.7,1.5,1.2,2.2
		c0.6,0.7,1.2,1.2,1.9,1.6c2.2,1.2,3.8,3.1,4.6,5.4c0.3,0.8,0.7,1.5,1.2,2.2c0.6,0.7,1.2,1.2,1.9,1.6c2.2,1.2,3.8,3.1,4.6,5.4
		c0.3,0.8,0.7,1.5,1.2,2.2c0.6,0.7,1.2,1.2,1.9,1.6c2.2,1.2,3.8,3.1,4.6,5.4c0.3,0.8,0.7,1.5,1.2,2.2c0.6,0.7,1.4,1.3,2.2,1.7
		c2.1,1,3.6,2.9,4.3,5.1c0.2,0.7,0.6,1.5,1.1,2.1c2.3,2.9,6.8,3.4,9.7,1c2.9-2.4,3.3-6.8,0.8-9.7c-0.6-0.7-1.2-1.2-1.9-1.6
		c-2.2-1.2-3.8-3.1-4.6-5.4c-0.3-0.8-0.7-1.5-1.2-2.2c-0.6-0.7-1.2-1.2-1.9-1.6c-2.2-1.2-3.8-3.1-4.6-5.4c-0.3-0.8-0.7-1.5-1.2-2.2
		c-0.6-0.7-1.2-1.2-1.9-1.6c-2.2-1.2-3.8-3.1-4.6-5.4c-0.3-0.8-0.7-1.5-1.2-2.2c-0.6-0.7-1.2-1.2-1.9-1.6c-2.2-1.2-3.8-3.1-4.6-5.4
		c-0.3-0.8-0.7-1.5-1.2-2.2c-0.6-0.7-1.2-1.2-1.9-1.6c-2.2-1.2-3.8-3.1-4.6-5.4c-0.3-0.8-0.7-1.5-1.2-2.2c-0.6-0.7-1.2-1.2-1.9-1.6
		c-2.2-1.2-3.8-3.1-4.6-5.4c-0.3-0.8-0.7-1.5-1.2-2.2c-0.6-0.7-1.2-1.2-1.9-1.6c-2.2-1.2-3.8-3.1-4.6-5.4c-0.3-0.8-0.7-1.5-1.2-2.2
		c-0.6-0.7-1.2-1.2-1.9-1.6c-2.2-1.2-3.8-3.1-4.6-5.4c-0.3-0.8-0.7-1.5-1.2-2.2c-0.6-0.7-1.2-1.2-1.9-1.6c-2.2-1.2-3.8-3.1-4.6-5.4
		c-0.3-0.8-0.7-1.5-1.2-2.2c-0.6-0.7-1.2-1.2-1.9-1.6c-2.2-1.2-3.8-3.1-4.6-5.4C727.2,233.3,726.8,232.6,726.3,231.9z"/>
</g>
<g opacity="0.45" filter="url(#ds1)">
	<path fill="#F9DA55" d="M789.8,220.4c-0.5-0.8-1.1-1.5-1.9-2.1c-1.9-1.4-3-3.5-3.4-5.8c-0.1-0.8-0.4-1.6-0.8-2.3
		c-1.8-3.3-6.1-4.5-9.4-2.6c-3.3,1.9-4.4,6.1-2.5,9.4c0.4,0.7,1,1.4,1.6,1.9c1.9,1.5,3.2,3.7,3.6,6.1c0.1,0.8,0.4,1.6,0.9,2.3
		c0.4,0.7,1,1.4,1.6,1.9c1.9,1.5,3.2,3.7,3.6,6.1c0.1,0.8,0.4,1.6,0.9,2.3c0.4,0.7,1,1.4,1.6,1.9c1.9,1.5,3.2,3.7,3.6,6.1
		c0.1,0.8,0.4,1.6,0.9,2.3c0.4,0.7,1,1.4,1.6,1.9c1.9,1.5,3.2,3.7,3.6,6.1c0.1,0.8,0.4,1.6,0.9,2.3c0.4,0.7,1,1.4,1.6,1.9
		c1.9,1.5,3.2,3.7,3.6,6.1c0.1,0.8,0.4,1.6,0.9,2.3c0.4,0.7,1,1.4,1.6,1.9c1.9,1.5,3.2,3.7,3.6,6.1c0.1,0.8,0.4,1.6,0.9,2.3
		s1,1.4,1.6,1.9c1.9,1.5,3.2,3.7,3.6,6.1c0.1,0.8,0.4,1.6,0.9,2.3c0.4,0.7,1,1.4,1.6,1.9c1.9,1.5,3.2,3.7,3.6,6.1
		c0.1,0.8,0.4,1.6,0.9,2.3c0.4,0.7,1,1.4,1.6,1.9c1.9,1.5,3.2,3.7,3.6,6.1c0.1,0.8,0.4,1.6,0.9,2.3c0.4,0.7,1,1.4,1.6,1.9
		c1.9,1.5,3.2,3.7,3.6,6.1c0.1,0.8,0.4,1.6,0.9,2.3c0.5,0.8,1.1,1.5,1.9,2.1c1.9,1.4,3,3.5,3.4,5.8c0.1,0.8,0.4,1.6,0.8,2.3
		c1.8,3.3,6.1,4.5,9.4,2.6c3.3-1.9,4.4-6.1,2.5-9.4c-0.4-0.7-1-1.4-1.6-1.9c-1.9-1.5-3.2-3.7-3.6-6.1c-0.1-0.8-0.4-1.6-0.9-2.3
		c-0.4-0.7-1-1.4-1.6-1.9c-1.9-1.5-3.2-3.7-3.6-6.1c-0.1-0.8-0.4-1.6-0.9-2.3c-0.4-0.7-1-1.4-1.6-1.9c-1.9-1.5-3.2-3.7-3.6-6.1
		c-0.1-0.8-0.4-1.6-0.9-2.3c-0.4-0.7-1-1.4-1.6-1.9c-1.9-1.5-3.2-3.7-3.6-6.1c-0.1-0.8-0.4-1.6-0.9-2.3c-0.4-0.7-1-1.4-1.6-1.9
		c-1.9-1.5-3.2-3.7-3.6-6.1c-0.1-0.8-0.4-1.6-0.9-2.3c-0.4-0.7-1-1.4-1.6-1.9c-1.9-1.5-3.2-3.7-3.6-6.1c-0.1-0.8-0.4-1.6-0.9-2.3
		c-0.4-0.7-1-1.4-1.6-1.9c-1.9-1.5-3.2-3.7-3.6-6.1c-0.1-0.8-0.4-1.6-0.9-2.3c-0.4-0.7-1-1.4-1.6-1.9c-1.9-1.5-3.2-3.7-3.6-6.1
		c-0.1-0.8-0.4-1.6-0.9-2.3c-0.4-0.7-1-1.4-1.6-1.9c-1.9-1.5-3.2-3.7-3.6-6.1c-0.1-0.8-0.4-1.6-0.9-2.3c-0.4-0.7-1-1.4-1.6-1.9
		c-1.9-1.5-3.2-3.7-3.6-6.1C790.5,221.9,790.3,221.1,789.8,220.4z"/>
	<path fill="none" stroke="#D6971A" stroke-width="1.489" stroke-miterlimit="10" d="M789.8,220.4c-0.5-0.8-1.1-1.5-1.9-2.1
		c-1.9-1.4-3-3.5-3.4-5.8c-0.1-0.8-0.4-1.6-0.8-2.3c-1.8-3.3-6.1-4.5-9.4-2.6c-3.3,1.9-4.4,6.1-2.5,9.4c0.4,0.7,1,1.4,1.6,1.9
		c1.9,1.5,3.2,3.7,3.6,6.1c0.1,0.8,0.4,1.6,0.9,2.3c0.4,0.7,1,1.4,1.6,1.9c1.9,1.5,3.2,3.7,3.6,6.1c0.1,0.8,0.4,1.6,0.9,2.3
		c0.4,0.7,1,1.4,1.6,1.9c1.9,1.5,3.2,3.7,3.6,6.1c0.1,0.8,0.4,1.6,0.9,2.3c0.4,0.7,1,1.4,1.6,1.9c1.9,1.5,3.2,3.7,3.6,6.1
		c0.1,0.8,0.4,1.6,0.9,2.3c0.4,0.7,1,1.4,1.6,1.9c1.9,1.5,3.2,3.7,3.6,6.1c0.1,0.8,0.4,1.6,0.9,2.3c0.4,0.7,1,1.4,1.6,1.9
		c1.9,1.5,3.2,3.7,3.6,6.1c0.1,0.8,0.4,1.6,0.9,2.3s1,1.4,1.6,1.9c1.9,1.5,3.2,3.7,3.6,6.1c0.1,0.8,0.4,1.6,0.9,2.3
		c0.4,0.7,1,1.4,1.6,1.9c1.9,1.5,3.2,3.7,3.6,6.1c0.1,0.8,0.4,1.6,0.9,2.3c0.4,0.7,1,1.4,1.6,1.9c1.9,1.5,3.2,3.7,3.6,6.1
		c0.1,0.8,0.4,1.6,0.9,2.3c0.4,0.7,1,1.4,1.6,1.9c1.9,1.5,3.2,3.7,3.6,6.1c0.1,0.8,0.4,1.6,0.9,2.3c0.5,0.8,1.1,1.5,1.9,2.1
		c1.9,1.4,3,3.5,3.4,5.8c0.1,0.8,0.4,1.6,0.8,2.3c1.8,3.3,6.1,4.5,9.4,2.6c3.3-1.9,4.4-6.1,2.5-9.4c-0.4-0.7-1-1.4-1.6-1.9
		c-1.9-1.5-3.2-3.7-3.6-6.1c-0.1-0.8-0.4-1.6-0.9-2.3c-0.4-0.7-1-1.4-1.6-1.9c-1.9-1.5-3.2-3.7-3.6-6.1c-0.1-0.8-0.4-1.6-0.9-2.3
		c-0.4-0.7-1-1.4-1.6-1.9c-1.9-1.5-3.2-3.7-3.6-6.1c-0.1-0.8-0.4-1.6-0.9-2.3c-0.4-0.7-1-1.4-1.6-1.9c-1.9-1.5-3.2-3.7-3.6-6.1
		c-0.1-0.8-0.4-1.6-0.9-2.3c-0.4-0.7-1-1.4-1.6-1.9c-1.9-1.5-3.2-3.7-3.6-6.1c-0.1-0.8-0.4-1.6-0.9-2.3c-0.4-0.7-1-1.4-1.6-1.9
		c-1.9-1.5-3.2-3.7-3.6-6.1c-0.1-0.8-0.4-1.6-0.9-2.3c-0.4-0.7-1-1.4-1.6-1.9c-1.9-1.5-3.2-3.7-3.6-6.1c-0.1-0.8-0.4-1.6-0.9-2.3
		c-0.4-0.7-1-1.4-1.6-1.9c-1.9-1.5-3.2-3.7-3.6-6.1c-0.1-0.8-0.4-1.6-0.9-2.3c-0.4-0.7-1-1.4-1.6-1.9c-1.9-1.5-3.2-3.7-3.6-6.1
		c-0.1-0.8-0.4-1.6-0.9-2.3c-0.4-0.7-1-1.4-1.6-1.9c-1.9-1.5-3.2-3.7-3.6-6.1C790.5,221.9,790.3,221.1,789.8,220.4z"/>
</g>
<g opacity="0.45" filter="url(#ds1)">
	<circle fill="#E96667" cx="438" cy="572.6" r="6.8"/>
	<circle fill="none" stroke="#B4474C" stroke-width="1.489" stroke-miterlimit="10" cx="438" cy="572.6" r="6.8"/>
</g>
<g opacity="0.45" filter="url(#ds1)">
	<path fill="#E96667" stroke="#B4474C" stroke-miterlimit="10" d="M156,146c0-1-0.4-2.1-1.2-2.7c-0.6-0.5-1.4-0.5-1.8-1.2
		c-0.4-0.8-0.3-1.3-0.8-2.4c-0.4-0.8-1.3-1.3-2.2-1.3c-1.5-0.1-1.8,0.7-2.7,0c-0.8-0.6,0.5-1.8,0.5-2.8c0-1.9-1.5-3.4-3.3-3.5
		c-1.9,0-3.4,1.5-3.5,3.3c0,0.8,0.3,1.3,0.6,2c0.3,0.7,0.1,1.1-0.2,1.7c-0.3,0.6-0.4,1.2-0.5,1.8c-0.2,1.1-0.9,1.5-1.7,2.1
		c-0.7,0.6-1.2,1.5-1.2,2.5c0,1,0.4,1.9,1.1,2.6c0.5,0.4,1.1,0.8,1.4,1.3c0.3,0.6,0.2,1.4,0.4,2c0.4,1.4,1.7,2.5,3.2,2.5
		c0.9,0,1.7-0.7,2.6-0.7c1.1-0.1,1.9,0.8,3,0.9c1.2,0,2.4-0.6,3-1.6c0.6-1.1,0.1-2.5,1.2-3.4C154.9,148.3,155.9,147.7,156,146z"/>
	<path fill="#E96667" stroke="#B4474C" stroke-miterlimit="10" d="M174.1,146c0-1-0.4-2.1-1.2-2.7c-0.6-0.5-1.4-0.5-1.8-1.2
		c-0.4-0.8-0.3-1.3-0.8-2.4c-0.4-0.8-1.3-1.3-2.2-1.3c-1.5-0.1-1.8,0.7-2.7,0c-0.8-0.6,0.5-1.8,0.5-2.8c0-1.9-1.5-3.4-3.3-3.5
		c-1.9,0-3.4,1.5-3.5,3.3c0,0.8,0.3,1.3,0.6,2c0.3,0.7,0.1,1.1-0.2,1.7c-0.3,0.6-0.4,1.2-0.5,1.8c-0.2,1.1-0.9,1.5-1.7,2.1
		c-0.7,0.6-1.2,1.5-1.2,2.5c0,1,0.4,1.9,1.1,2.6c0.5,0.4,1.1,0.8,1.4,1.3c0.3,0.6,0.2,1.4,0.4,2c0.4,1.4,1.7,2.5,3.2,2.5
		c0.9,0,1.7-0.7,2.6-0.7c1.1-0.1,1.9,0.8,3,0.9c1.2,0,2.4-0.6,3-1.6c0.6-1.1,0.1-2.5,1.2-3.4C173,148.3,174.1,147.7,174.1,146z"/>
	<path fill="#E96667" stroke="#B4474C" stroke-miterlimit="10" d="M192.2,146.1c0-1-0.4-2.1-1.2-2.7c-0.6-0.5-1.4-0.5-1.8-1.2
		c-0.4-0.8-0.3-1.3-0.8-2.4c-0.4-0.8-1.3-1.3-2.2-1.3c-1.5-0.1-1.8,0.7-2.7,0c-0.8-0.6,0.5-1.8,0.5-2.8c0-1.9-1.5-3.4-3.3-3.5
		c-1.9,0-3.4,1.5-3.5,3.3c0,0.8,0.3,1.3,0.6,2c0.3,0.7,0.1,1.1-0.2,1.7c-0.3,0.6-0.4,1.2-0.5,1.8c-0.2,1.1-0.9,1.5-1.7,2.1
		c-0.7,0.6-1.2,1.5-1.2,2.5c0,1,0.4,1.9,1.1,2.6c0.5,0.4,1.1,0.8,1.4,1.3c0.3,0.6,0.2,1.4,0.4,2c0.4,1.4,1.7,2.5,3.2,2.5
		c0.9,0,1.7-0.7,2.6-0.7c1.1-0.1,1.9,0.8,3,0.9c1.2,0,2.4-0.6,3-1.6c0.6-1.1,0.1-2.5,1.2-3.4C191.2,148.3,192.2,147.7,192.2,146.1z"
		/>
	<path fill="#E96667" stroke="#B4474C" stroke-miterlimit="10" d="M210.4,146.1c0-1-0.4-2.1-1.2-2.7c-0.6-0.5-1.4-0.5-1.8-1.2
		c-0.4-0.8-0.3-1.3-0.8-2.4c-0.4-0.8-1.3-1.3-2.2-1.3c-1.5-0.1-1.8,0.7-2.7,0c-0.8-0.6,0.5-1.8,0.5-2.8c0-1.9-1.5-3.4-3.3-3.5
		c-1.9,0-3.4,1.5-3.5,3.3c0,0.8,0.3,1.3,0.6,2c0.3,0.7,0.1,1.1-0.2,1.7c-0.3,0.6-0.4,1.2-0.5,1.8c-0.2,1.1-0.9,1.5-1.7,2.1
		c-0.7,0.6-1.2,1.5-1.2,2.5c0,1,0.4,1.9,1.1,2.6c0.5,0.4,1.1,0.8,1.4,1.3c0.3,0.6,0.2,1.4,0.4,2c0.4,1.4,1.7,2.5,3.2,2.5
		c0.9,0,1.7-0.7,2.6-0.7c1.1-0.1,1.9,0.8,3,0.9c1.2,0,2.4-0.6,3-1.6c0.6-1.1,0.1-2.5,1.2-3.4C209.3,148.3,210.3,147.8,210.4,146.1z"
		/>
	<path fill="#E96667" stroke="#B4474C" stroke-miterlimit="10" d="M228.5,146.1c0-1-0.4-2.1-1.2-2.7c-0.6-0.5-1.4-0.5-1.8-1.2
		c-0.4-0.8-0.3-1.3-0.8-2.4c-0.4-0.8-1.3-1.3-2.2-1.3c-1.5-0.1-1.8,0.7-2.7,0c-0.8-0.6,0.5-1.8,0.5-2.8c0-1.9-1.5-3.4-3.3-3.5
		c-1.9,0-3.4,1.5-3.5,3.3c0,0.8,0.3,1.3,0.6,2c0.3,0.7,0.1,1.1-0.2,1.7c-0.3,0.6-0.4,1.2-0.5,1.8c-0.2,1.1-0.9,1.5-1.7,2.1
		c-0.7,0.6-1.2,1.5-1.2,2.5c0,1,0.4,1.9,1.1,2.6c0.5,0.4,1.1,0.8,1.4,1.3c0.3,0.6,0.2,1.4,0.4,2c0.4,1.4,1.7,2.5,3.2,2.5
		c0.9,0,1.7-0.7,2.6-0.7c1.1-0.1,1.9,0.8,3,0.9c1.2,0,2.4-0.6,3-1.6c0.6-1.1,0.1-2.5,1.2-3.4C227.4,148.4,228.5,147.8,228.5,146.1z"
		/>
	<path fill="#E96667" stroke="#B4474C" stroke-miterlimit="10" d="M246.6,146.1c0-1-0.4-2.1-1.2-2.7c-0.6-0.5-1.4-0.5-1.8-1.2
		c-0.4-0.8-0.3-1.3-0.8-2.4c-0.4-0.8-1.3-1.3-2.2-1.3c-1.5-0.1-1.8,0.7-2.7,0c-0.8-0.6,0.5-1.8,0.5-2.8c0-1.9-1.5-3.4-3.3-3.5
		c-1.9,0-3.4,1.5-3.5,3.3c0,0.8,0.3,1.3,0.6,2c0.3,0.7,0.1,1.1-0.2,1.7c-0.3,0.6-0.4,1.2-0.5,1.8c-0.2,1.1-0.9,1.5-1.7,2.1
		c-0.7,0.6-1.2,1.5-1.2,2.5c0,1,0.4,1.9,1.1,2.6c0.5,0.4,1.1,0.8,1.4,1.3c0.3,0.6,0.2,1.4,0.4,2c0.4,1.4,1.7,2.5,3.2,2.5
		c0.9,0,1.7-0.7,2.6-0.7c1.1-0.1,1.9,0.8,3,0.9c1.2,0,2.4-0.6,3-1.6c0.6-1.1,0.1-2.5,1.2-3.4C245.6,148.4,246.6,147.8,246.6,146.1z"
		/>
	<path fill="#E96667" stroke="#B4474C" stroke-miterlimit="10" d="M264.8,146.1c0-1-0.4-2.1-1.2-2.7c-0.6-0.5-1.4-0.5-1.8-1.2
		c-0.4-0.8-0.3-1.3-0.8-2.4c-0.4-0.8-1.3-1.3-2.2-1.3c-1.5-0.1-1.8,0.7-2.7,0c-0.8-0.6,0.5-1.8,0.5-2.8c0-1.9-1.5-3.4-3.3-3.5
		c-1.9,0-3.4,1.5-3.5,3.3c0,0.8,0.3,1.3,0.6,2c0.3,0.7,0.1,1.1-0.2,1.7c-0.3,0.6-0.4,1.2-0.5,1.8c-0.2,1.1-0.9,1.5-1.7,2.1
		c-0.7,0.6-1.2,1.5-1.2,2.5c0,1,0.4,1.9,1.1,2.6c0.5,0.4,1.1,0.8,1.4,1.3c0.3,0.6,0.2,1.4,0.4,2c0.4,1.4,1.7,2.5,3.2,2.5
		c0.9,0,1.7-0.7,2.6-0.7c1.1-0.1,1.9,0.8,3,0.9c1.2,0,2.4-0.6,3-1.6c0.6-1.1,0.1-2.5,1.2-3.4C263.7,148.4,264.7,147.8,264.8,146.1z"
		/>
	<path fill="#E96667" stroke="#B4474C" stroke-miterlimit="10" d="M282.9,146.2c0-1-0.4-2.1-1.2-2.7c-0.6-0.5-1.4-0.5-1.8-1.2
		c-0.4-0.8-0.3-1.3-0.8-2.4c-0.4-0.8-1.3-1.3-2.2-1.3c-1.5-0.1-1.8,0.7-2.7,0c-0.8-0.6,0.5-1.8,0.5-2.8c0-1.9-1.5-3.4-3.3-3.5
		c-1.9,0-3.4,1.5-3.5,3.3c0,0.8,0.3,1.3,0.6,2c0.3,0.7,0.1,1.1-0.2,1.7c-0.3,0.6-0.4,1.2-0.5,1.8c-0.2,1.1-0.9,1.5-1.7,2.1
		c-0.7,0.6-1.2,1.5-1.2,2.5c0,1,0.4,1.9,1.1,2.6c0.5,0.4,1.1,0.8,1.4,1.3c0.3,0.6,0.2,1.4,0.4,2c0.4,1.4,1.7,2.5,3.2,2.5
		c0.9,0,1.7-0.7,2.6-0.7c1.1-0.1,1.9,0.8,3,0.9c1.2,0,2.4-0.6,3-1.6c0.6-1.1,0.1-2.5,1.2-3.4C281.8,148.4,282.9,147.8,282.9,146.2z"
		/>
	<path fill="#E96667" stroke="#B4474C" stroke-miterlimit="10" d="M301,146.2c0-1-0.4-2.1-1.2-2.7c-0.6-0.5-1.4-0.5-1.8-1.2
		c-0.4-0.8-0.3-1.3-0.8-2.4c-0.4-0.8-1.3-1.3-2.2-1.3c-1.5-0.1-1.8,0.7-2.7,0c-0.8-0.6,0.5-1.8,0.5-2.8c0-1.9-1.5-3.4-3.3-3.5
		c-1.9,0-3.4,1.5-3.5,3.3c0,0.8,0.3,1.3,0.6,2c0.3,0.7,0.1,1.1-0.2,1.7c-0.3,0.6-0.4,1.2-0.5,1.8c-0.2,1.1-0.9,1.5-1.7,2.1
		c-0.7,0.6-1.2,1.5-1.2,2.5c0,1,0.4,1.9,1.1,2.6c0.5,0.4,1.1,0.8,1.4,1.3c0.3,0.6,0.2,1.4,0.4,2c0.4,1.4,1.7,2.5,3.2,2.5
		c0.9,0,1.7-0.7,2.6-0.7c1.1-0.1,1.9,0.8,3,0.9c1.2,0,2.4-0.6,3-1.6c0.6-1.1,0.1-2.5,1.2-3.4C299.9,148.4,301,147.9,301,146.2z"/>
	<path fill="#E96667" stroke="#B4474C" stroke-miterlimit="10" d="M319.2,146.2c0-1-0.4-2.1-1.2-2.7c-0.6-0.5-1.4-0.5-1.8-1.2
		c-0.4-0.8-0.3-1.3-0.8-2.4c-0.4-0.8-1.3-1.3-2.2-1.3c-1.5-0.1-1.8,0.7-2.7,0c-0.8-0.6,0.5-1.8,0.5-2.8c0-1.9-1.5-3.4-3.3-3.5
		c-1.9,0-3.4,1.5-3.5,3.3c0,0.8,0.3,1.3,0.6,2c0.3,0.7,0.1,1.1-0.2,1.7c-0.3,0.6-0.4,1.2-0.5,1.8c-0.2,1.1-0.9,1.5-1.7,2.1
		c-0.7,0.6-1.2,1.5-1.2,2.5c0,1,0.4,1.9,1.1,2.6c0.5,0.4,1.1,0.8,1.4,1.3c0.3,0.6,0.2,1.4,0.4,2c0.4,1.4,1.7,2.5,3.2,2.5
		c0.9,0,1.7-0.7,2.6-0.7c1.1-0.1,1.9,0.8,3,0.9c1.2,0,2.4-0.6,3-1.6c0.6-1.1,0.1-2.5,1.2-3.4C318.1,148.5,319.1,147.9,319.2,146.2z"
		/>
	<path fill="#E96667" stroke="#B4474C" stroke-miterlimit="10" d="M337.3,146.2c0-1-0.4-2.1-1.2-2.7c-0.6-0.5-1.4-0.5-1.8-1.2
		c-0.4-0.8-0.3-1.3-0.8-2.4c-0.4-0.8-1.3-1.3-2.2-1.3c-1.5-0.1-1.8,0.7-2.7,0c-0.8-0.6,0.5-1.8,0.5-2.8c0-1.9-1.5-3.4-3.3-3.5
		c-1.9,0-3.4,1.5-3.5,3.3c0,0.8,0.3,1.3,0.6,2c0.3,0.7,0.1,1.1-0.2,1.7c-0.3,0.6-0.4,1.2-0.5,1.8c-0.2,1.1-0.9,1.5-1.7,2.1
		c-0.7,0.6-1.2,1.5-1.2,2.5c0,1,0.4,1.9,1.1,2.6c0.5,0.4,1.1,0.8,1.4,1.3c0.3,0.6,0.2,1.4,0.4,2c0.4,1.4,1.7,2.5,3.2,2.5
		c0.9,0,1.7-0.7,2.6-0.7c1.1-0.1,1.9,0.8,3,0.9c1.2,0,2.4-0.6,3-1.6c0.6-1.1,0.1-2.5,1.2-3.4C336.2,148.5,337.2,147.9,337.3,146.2z"
		/>
	<path fill="#E96667" stroke="#B4474C" stroke-miterlimit="10" d="M355.4,146.2c0-1-0.4-2.1-1.2-2.7c-0.6-0.5-1.4-0.5-1.8-1.2
		c-0.4-0.8-0.3-1.3-0.8-2.4c-0.4-0.8-1.3-1.3-2.2-1.3c-1.5-0.1-1.8,0.7-2.7,0c-0.8-0.6,0.5-1.8,0.5-2.8c0-1.9-1.5-3.4-3.3-3.5
		c-1.9,0-3.4,1.5-3.5,3.3c0,0.8,0.3,1.3,0.6,2c0.3,0.7,0.1,1.1-0.2,1.7c-0.3,0.6-0.4,1.2-0.5,1.8c-0.2,1.1-0.9,1.5-1.7,2.1
		c-0.7,0.6-1.2,1.5-1.2,2.5c0,1,0.4,1.9,1.1,2.6c0.5,0.4,1.1,0.8,1.4,1.3c0.3,0.6,0.2,1.4,0.4,2c0.4,1.4,1.7,2.5,3.2,2.5
		c0.9,0,1.7-0.7,2.6-0.7c1.1-0.1,1.9,0.8,3,0.9c1.2,0,2.4-0.6,3-1.6c0.6-1.1,0.1-2.5,1.2-3.4C354.3,148.5,355.4,147.9,355.4,146.2z"
		/>
	<path fill="#E96667" stroke="#B4474C" stroke-miterlimit="10" d="M203.7,58.4c0.6-0.8,0.8-1.9,0.6-2.9c-0.2-0.7-0.8-1.2-0.8-2
		c0.1-0.9,0.5-1.2,0.8-2.4c0.2-0.9-0.3-1.8-1.1-2.4c-1.2-1-1.9-0.5-2.2-1.5c-0.3-1,1.4-1.2,2-2c1.1-1.5,0.8-3.7-0.7-4.8
		c-1.5-1.1-3.7-0.8-4.8,0.7c-0.5,0.6-0.5,1.3-0.7,2c-0.2,0.7-0.5,0.9-1.2,1.3c-0.6,0.3-1,0.7-1.5,1.2c-0.8,0.8-1.6,0.7-2.7,0.7
		c-1,0.1-1.8,0.6-2.4,1.4c-0.6,0.8-0.8,1.8-0.6,2.7c0.1,0.6,0.4,1.2,0.4,1.9c-0.1,0.7-0.6,1.2-0.9,1.9c-0.5,1.4,0,3,1.2,3.9
		c0.7,0.6,1.8,0.5,2.6,0.9c0.9,0.6,1.1,1.8,2,2.4c1,0.7,2.3,0.9,3.4,0.4c1.1-0.5,1.6-2,2.9-2C201.5,59.7,202.7,59.8,203.7,58.4z"/>
	<path fill="#E96667" stroke="#B4474C" stroke-miterlimit="10" d="M218.5,69c0.6-0.8,0.8-1.9,0.6-2.9c-0.2-0.7-0.8-1.2-0.8-2
		c0.1-0.9,0.5-1.2,0.8-2.4c0.2-0.9-0.3-1.8-1.1-2.4c-1.2-1-1.9-0.5-2.2-1.5c-0.3-1,1.4-1.2,2-2c1.1-1.5,0.8-3.7-0.7-4.8
		c-1.5-1.1-3.7-0.8-4.8,0.7c-0.5,0.6-0.5,1.3-0.7,2c-0.2,0.7-0.5,0.9-1.2,1.3c-0.6,0.3-1,0.7-1.5,1.2c-0.8,0.8-1.6,0.7-2.7,0.7
		c-1,0.1-1.8,0.6-2.4,1.4c-0.6,0.8-0.8,1.8-0.6,2.7c0.1,0.6,0.4,1.2,0.4,1.9c-0.1,0.7-0.6,1.2-0.9,1.9c-0.5,1.4,0,3,1.2,3.9
		c0.7,0.6,1.8,0.5,2.6,0.9c0.9,0.6,1.1,1.8,2,2.4c1,0.7,2.3,0.9,3.4,0.4c1.1-0.5,1.6-2,2.9-2C216.3,70.2,217.5,70.3,218.5,69z"/>
	<path fill="#E96667" stroke="#B4474C" stroke-miterlimit="10" d="M233.2,79.5c0.6-0.8,0.8-1.9,0.6-2.9c-0.2-0.7-0.8-1.2-0.8-2
		c0.1-0.9,0.5-1.2,0.8-2.4c0.2-0.9-0.3-1.8-1.1-2.4c-1.2-1-1.9-0.5-2.2-1.5c-0.3-1,1.4-1.2,2-2c1.1-1.5,0.8-3.7-0.7-4.8
		c-1.5-1.1-3.7-0.8-4.8,0.7c-0.5,0.6-0.5,1.3-0.7,2c-0.2,0.7-0.5,0.9-1.2,1.3c-0.6,0.3-1,0.7-1.5,1.2c-0.8,0.8-1.6,0.7-2.7,0.7
		c-1,0.1-1.8,0.6-2.4,1.4c-0.6,0.8-0.8,1.8-0.6,2.7c0.1,0.6,0.4,1.2,0.4,1.9c-0.1,0.7-0.6,1.2-0.9,1.9c-0.5,1.4,0,3,1.2,3.9
		c0.7,0.6,1.8,0.5,2.6,0.9c0.9,0.6,1.1,1.8,2,2.4c1,0.7,2.3,0.9,3.4,0.4c1.1-0.5,1.6-2,2.9-2C231.1,80.7,232.2,80.8,233.2,79.5z"/>
	<path fill="#E96667" stroke="#B4474C" stroke-miterlimit="10" d="M174.3,37.5c0.6-0.8,0.8-1.9,0.6-2.9c-0.2-0.7-0.8-1.2-0.8-2
		c0.1-0.9,0.5-1.2,0.8-2.4c0.2-0.9-0.3-1.8-1.1-2.4c-1.2-1-1.9-0.5-2.2-1.5c-0.3-1,1.4-1.2,2-2c1.1-1.5,0.8-3.7-0.7-4.8
		c-1.5-1.1-3.7-0.8-4.8,0.7c-0.5,0.6-0.5,1.3-0.7,2c-0.2,0.7-0.5,0.9-1.2,1.3c-0.6,0.3-1,0.7-1.5,1.2c-0.8,0.8-1.6,0.7-2.7,0.7
		c-1,0.1-1.8,0.6-2.4,1.4c-0.6,0.8-0.8,1.8-0.6,2.7c0.1,0.6,0.4,1.2,0.4,1.9c-0.1,0.7-0.6,1.2-0.9,1.9c-0.5,1.4,0,3,1.2,3.9
		c0.7,0.6,1.8,0.5,2.6,0.9c0.9,0.6,1.1,1.8,2,2.4c1,0.7,2.3,0.9,3.4,0.4c1.1-0.5,1.6-2,2.9-2C172.1,38.7,173.3,38.9,174.3,37.5z"/>
	<path fill="#E96667" stroke="#B4474C" stroke-miterlimit="10" d="M189.1,48c0.6-0.8,0.8-1.9,0.6-2.9c-0.2-0.7-0.8-1.2-0.8-2
		c0.1-0.9,0.5-1.2,0.8-2.4c0.2-0.9-0.3-1.8-1.1-2.4c-1.2-1-1.9-0.5-2.2-1.5c-0.3-1,1.4-1.2,2-2c1.1-1.5,0.8-3.7-0.7-4.8
		c-1.5-1.1-3.7-0.8-4.8,0.7c-0.5,0.6-0.5,1.3-0.7,2c-0.2,0.7-0.5,0.9-1.2,1.3c-0.6,0.3-1,0.7-1.5,1.2c-0.8,0.8-1.6,0.7-2.7,0.7
		c-1,0.1-1.8,0.6-2.4,1.4c-0.6,0.8-0.8,1.8-0.6,2.7c0.1,0.6,0.4,1.2,0.4,1.9c-0.1,0.7-0.6,1.2-0.9,1.9c-0.5,1.4,0,3,1.2,3.9
		c0.7,0.6,1.8,0.5,2.6,0.9c0.9,0.6,1.1,1.8,2,2.4c1,0.7,2.3,0.9,3.4,0.4c1.1-0.5,1.6-2,2.9-2C186.9,49.3,188.1,49.4,189.1,48z"/>
	<path fill="#E96667" stroke="#B4474C" stroke-miterlimit="10" d="M248,90c0.6-0.8,0.8-1.9,0.6-2.9c-0.2-0.7-0.8-1.2-0.8-2
		c0.1-0.9,0.5-1.2,0.8-2.4c0.2-0.9-0.3-1.8-1.1-2.4c-1.2-1-1.9-0.5-2.2-1.5c-0.3-1,1.4-1.2,2-2c1.1-1.5,0.8-3.7-0.7-4.8
		c-1.5-1.1-3.7-0.8-4.8,0.7c-0.5,0.6-0.5,1.3-0.7,2c-0.2,0.7-0.5,0.9-1.2,1.3c-0.6,0.3-1,0.7-1.5,1.2c-0.8,0.8-1.6,0.7-2.7,0.7
		c-1,0.1-1.8,0.6-2.4,1.4c-0.6,0.8-0.8,1.8-0.6,2.7c0.1,0.6,0.4,1.2,0.4,1.9c-0.1,0.7-0.6,1.2-0.9,1.9c-0.5,1.4,0,3,1.2,3.9
		c0.7,0.6,1.8,0.5,2.6,0.9c0.9,0.6,1.1,1.8,2,2.4c1,0.7,2.3,0.9,3.4,0.4c1.1-0.5,1.6-2,2.9-2C245.8,91.2,247,91.3,248,90z"/>
	<path fill="#E96667" stroke="#B4474C" stroke-miterlimit="10" d="M262.8,100.5c0.6-0.8,0.8-1.9,0.6-2.9c-0.2-0.7-0.8-1.2-0.8-2
		c0.1-0.9,0.5-1.2,0.8-2.4c0.2-0.9-0.3-1.8-1.1-2.4c-1.2-1-1.9-0.5-2.2-1.5c-0.3-1,1.4-1.2,2-2c1.1-1.5,0.8-3.7-0.7-4.8
		c-1.5-1.1-3.7-0.8-4.8,0.7c-0.5,0.6-0.5,1.3-0.7,2c-0.2,0.7-0.5,0.9-1.2,1.3c-0.6,0.3-1,0.7-1.5,1.2c-0.8,0.8-1.6,0.7-2.7,0.7
		c-1,0.1-1.8,0.6-2.4,1.4c-0.6,0.8-0.8,1.8-0.6,2.7c0.1,0.6,0.4,1.2,0.4,1.9c-0.1,0.7-0.6,1.2-0.9,1.9c-0.5,1.4,0,3,1.2,3.9
		c0.7,0.6,1.8,0.5,2.6,0.9c0.9,0.6,1.1,1.8,2,2.4c1,0.7,2.3,0.9,3.4,0.4c1.1-0.5,1.6-2,2.9-2C260.6,101.7,261.8,101.9,262.8,100.5z"
		/>
	<path fill="#E96667" stroke="#B4474C" stroke-miterlimit="10" d="M255.3,45.8c1-0.1,2-0.8,2.5-1.7c0.4-0.7,0.3-1.4,0.9-2
		c0.7-0.5,1.2-0.5,2.3-1.2c0.8-0.5,1-1.5,1-2.4c-0.1-1.5-1-1.7-0.4-2.6c0.5-0.9,1.9,0.2,2.8,0c1.9-0.3,3.2-2,2.9-3.8
		c-0.3-1.9-2-3.2-3.8-2.9c-0.8,0.1-1.3,0.5-1.9,0.9c-0.6,0.4-1,0.3-1.7,0.1c-0.6-0.2-1.2-0.2-1.9-0.2c-1.1,0-1.6-0.7-2.4-1.4
		c-0.7-0.6-1.7-0.9-2.7-0.8c-1,0.1-1.8,0.7-2.4,1.5c-0.3,0.5-0.6,1.2-1.1,1.6c-0.6,0.4-1.3,0.4-1.9,0.7c-1.4,0.6-2.2,2.1-2,3.6
		c0.1,0.9,0.9,1.6,1.1,2.5c0.2,1-0.5,2-0.4,3.1c0.2,1.2,1,2.2,2.1,2.7c1.1,0.5,2.5-0.3,3.5,0.7C252.9,45.1,253.6,46.1,255.3,45.8z"
		/>
	<path fill="#E96667" stroke="#B4474C" stroke-miterlimit="10" d="M258.1,63.7c1-0.1,2-0.8,2.5-1.7c0.4-0.7,0.3-1.4,0.9-2
		c0.7-0.5,1.2-0.5,2.3-1.2c0.8-0.5,1-1.5,1-2.4c-0.1-1.5-1-1.7-0.4-2.6c0.5-0.9,1.9,0.2,2.8,0c1.9-0.3,3.2-2,2.9-3.8
		c-0.3-1.9-2-3.2-3.8-2.9c-0.8,0.1-1.3,0.5-1.9,0.9c-0.6,0.4-1,0.3-1.7,0.1c-0.6-0.2-1.2-0.2-1.9-0.2c-1.1,0-1.6-0.7-2.4-1.4
		c-0.7-0.6-1.7-0.9-2.7-0.8c-1,0.1-1.8,0.7-2.4,1.5c-0.3,0.5-0.6,1.2-1.1,1.6c-0.6,0.4-1.3,0.4-1.9,0.7c-1.4,0.6-2.2,2.1-2,3.6
		c0.1,0.9,0.9,1.6,1.1,2.5c0.2,1-0.5,2-0.4,3.1c0.2,1.2,1,2.2,2.1,2.7c1.1,0.5,2.5-0.3,3.5,0.7C255.7,63,256.4,64,258.1,63.7z"/>
	<path fill="#E96667" stroke="#B4474C" stroke-miterlimit="10" d="M260.9,81.7c1-0.1,2-0.8,2.5-1.7c0.4-0.7,0.3-1.4,0.9-2
		c0.7-0.5,1.2-0.5,2.3-1.2c0.8-0.5,1-1.5,1-2.4c-0.1-1.5-1-1.7-0.4-2.6c0.5-0.9,1.9,0.2,2.8,0c1.9-0.3,3.2-2,2.9-3.8
		c-0.3-1.9-2-3.2-3.8-2.9c-0.8,0.1-1.3,0.5-1.9,0.9c-0.6,0.4-1,0.3-1.7,0.1c-0.6-0.2-1.2-0.2-1.9-0.2c-1.1,0-1.6-0.7-2.4-1.4
		c-0.7-0.6-1.7-0.9-2.7-0.8c-1,0.1-1.8,0.7-2.4,1.5c-0.3,0.5-0.6,1.2-1.1,1.6c-0.6,0.4-1.3,0.4-1.9,0.7c-1.4,0.6-2.2,2.1-2,3.6
		c0.1,0.9,0.9,1.6,1.1,2.5c0.2,1-0.5,2-0.4,3.1c0.2,1.2,1,2.2,2.1,2.7c1.1,0.5,2.5-0.3,3.5,0.7C258.5,80.9,259.2,81.9,260.9,81.7z"
		/>
	<path fill="#E96667" stroke="#B4474C" stroke-miterlimit="10" d="M277.5,111c0.6-0.8,0.8-1.9,0.6-2.9c-0.2-0.7-0.8-1.2-0.8-2
		c0.1-0.9,0.5-1.2,0.8-2.4c0.2-0.9-0.3-1.8-1.1-2.4c-1.2-1-1.9-0.5-2.2-1.5c-0.3-1,1.4-1.2,2-2c1.1-1.5,0.8-3.7-0.7-4.8
		c-1.5-1.1-3.7-0.8-4.8,0.7c-0.5,0.6-0.5,1.3-0.7,2c-0.2,0.7-0.5,0.9-1.2,1.3c-0.6,0.3-1,0.7-1.5,1.2c-0.8,0.8-1.6,0.7-2.7,0.7
		c-1,0.1-1.8,0.6-2.4,1.4c-0.6,0.8-0.8,1.8-0.6,2.7c0.1,0.6,0.4,1.2,0.4,1.9c-0.1,0.7-0.6,1.2-0.9,1.9c-0.5,1.4,0,3,1.2,3.9
		c0.7,0.6,1.8,0.5,2.6,0.9c0.9,0.6,1.1,1.8,2,2.4c1,0.7,2.3,0.9,3.4,0.4c1.1-0.5,1.6-2,2.9-2C275.4,112.3,276.5,112.4,277.5,111z"/>
	<path fill="#E96667" stroke="#B4474C" stroke-miterlimit="10" d="M292.3,121.6c0.6-0.8,0.8-1.9,0.6-2.9c-0.2-0.7-0.8-1.2-0.8-2
		c0.1-0.9,0.5-1.2,0.8-2.4c0.2-0.9-0.3-1.8-1.1-2.4c-1.2-1-1.9-0.5-2.2-1.5c-0.3-1,1.4-1.2,2-2c1.1-1.5,0.8-3.7-0.7-4.8
		c-1.5-1.1-3.7-0.8-4.8,0.7c-0.5,0.6-0.5,1.3-0.7,2c-0.2,0.7-0.5,0.9-1.2,1.3c-0.6,0.3-1,0.7-1.5,1.2c-0.8,0.8-1.6,0.7-2.7,0.7
		c-1,0.1-1.8,0.6-2.4,1.4c-0.6,0.8-0.8,1.8-0.6,2.7c0.1,0.6,0.4,1.2,0.4,1.9c-0.1,0.7-0.6,1.2-0.9,1.9c-0.5,1.4,0,3,1.2,3.9
		c0.7,0.6,1.8,0.5,2.6,0.9c0.9,0.6,1.1,1.8,2,2.4c1,0.7,2.3,0.9,3.4,0.4c1.1-0.5,1.6-2,2.9-2C290.1,122.8,291.3,122.9,292.3,121.6z"
		/>
	<path fill="#E96667" stroke="#B4474C" stroke-miterlimit="10" d="M307.1,132.1c0.6-0.8,0.8-1.9,0.6-2.9c-0.2-0.7-0.8-1.2-0.8-2
		c0.1-0.9,0.5-1.2,0.8-2.4c0.2-0.9-0.3-1.8-1.1-2.4c-1.2-1-1.9-0.5-2.2-1.5c-0.3-1,1.4-1.2,2-2c1.1-1.5,0.8-3.7-0.7-4.8
		c-1.5-1.1-3.7-0.8-4.8,0.7c-0.5,0.6-0.5,1.3-0.7,2c-0.2,0.7-0.5,0.9-1.2,1.3c-0.6,0.3-1,0.7-1.5,1.2c-0.8,0.8-1.6,0.7-2.7,0.7
		c-1,0.1-1.8,0.6-2.4,1.4c-0.6,0.8-0.8,1.8-0.6,2.7c0.1,0.6,0.4,1.2,0.4,1.9c-0.1,0.7-0.6,1.2-0.9,1.9c-0.5,1.4,0,3,1.2,3.9
		c0.7,0.6,1.8,0.5,2.6,0.9c0.9,0.6,1.1,1.8,2,2.4c1,0.7,2.3,0.9,3.4,0.4c1.1-0.5,1.6-2,2.9-2C304.9,133.3,306.1,133.4,307.1,132.1z"
		/>
	<path fill="#E96667" stroke="#B4474C" stroke-miterlimit="10" d="M132,76.8c0.6-0.8,0.8-1.9,0.6-2.9c-0.2-0.7-0.8-1.2-0.8-2
		c0.1-0.9,0.5-1.2,0.8-2.4c0.2-0.9-0.3-1.8-1.1-2.4c-1.2-1-1.9-0.5-2.2-1.5c-0.3-1,1.4-1.2,2-2c1.1-1.5,0.8-3.7-0.7-4.8
		c-1.5-1.1-3.7-0.8-4.8,0.7c-0.5,0.6-0.5,1.3-0.7,2c-0.2,0.7-0.5,0.9-1.2,1.3c-0.6,0.3-1,0.7-1.5,1.2c-0.8,0.8-1.6,0.7-2.7,0.7
		c-1,0.1-1.8,0.6-2.4,1.4c-0.6,0.8-0.8,1.8-0.6,2.7c0.1,0.6,0.4,1.2,0.4,1.9c-0.1,0.7-0.6,1.2-0.9,1.9c-0.5,1.4,0,3,1.2,3.9
		c0.7,0.6,1.8,0.5,2.6,0.9c0.9,0.6,1.1,1.8,2,2.4c1,0.7,2.3,0.9,3.4,0.4c1.1-0.5,1.6-2,2.9-2C129.8,78.1,131,78.2,132,76.8z"/>
	<path fill="#E96667" stroke="#B4474C" stroke-miterlimit="10" d="M146.8,87.4c0.6-0.8,0.8-1.9,0.6-2.9c-0.2-0.7-0.8-1.2-0.8-2
		c0.1-0.9,0.5-1.2,0.8-2.4c0.2-0.9-0.3-1.8-1.1-2.4c-1.2-1-1.9-0.5-2.2-1.5c-0.3-1,1.4-1.2,2-2c1.1-1.5,0.8-3.7-0.7-4.8
		c-1.5-1.1-3.7-0.8-4.8,0.7c-0.5,0.6-0.5,1.3-0.7,2c-0.2,0.7-0.5,0.9-1.2,1.3c-0.6,0.3-1,0.7-1.5,1.2c-0.8,0.8-1.6,0.7-2.7,0.7
		c-1,0.1-1.8,0.6-2.4,1.4c-0.6,0.8-0.8,1.8-0.6,2.7c0.1,0.6,0.4,1.2,0.4,1.9c-0.1,0.7-0.6,1.2-0.9,1.9c-0.5,1.4,0,3,1.2,3.9
		c0.7,0.6,1.8,0.5,2.6,0.9c0.9,0.6,1.1,1.8,2,2.4c1,0.7,2.3,0.9,3.4,0.4c1.1-0.5,1.6-2,2.9-2C144.6,88.6,145.8,88.7,146.8,87.4z"/>
	<path fill="#E96667" stroke="#B4474C" stroke-miterlimit="10" d="M161.6,97.9c0.6-0.8,0.8-1.9,0.6-2.9c-0.2-0.7-0.8-1.2-0.8-2
		c0.1-0.9,0.5-1.2,0.8-2.4c0.2-0.9-0.3-1.8-1.1-2.4c-1.2-1-1.9-0.5-2.2-1.5c-0.3-1,1.4-1.2,2-2c1.1-1.5,0.8-3.7-0.7-4.8
		c-1.5-1.1-3.7-0.8-4.8,0.7c-0.5,0.6-0.5,1.3-0.7,2c-0.2,0.7-0.5,0.9-1.2,1.3c-0.6,0.3-1,0.7-1.5,1.2c-0.8,0.8-1.6,0.7-2.7,0.7
		c-1,0.1-1.8,0.6-2.4,1.4c-0.6,0.8-0.8,1.8-0.6,2.7c0.1,0.6,0.4,1.2,0.4,1.9c-0.1,0.7-0.6,1.2-0.9,1.9c-0.5,1.4,0,3,1.2,3.9
		c0.7,0.6,1.8,0.5,2.6,0.9c0.9,0.6,1.1,1.8,2,2.4c1,0.7,2.3,0.9,3.4,0.4c1.1-0.5,1.6-2,2.9-2C159.4,99.1,160.6,99.2,161.6,97.9z"/>
	<path fill="#E96667" stroke="#B4474C" stroke-miterlimit="10" d="M176.3,108.4c0.6-0.8,0.8-1.9,0.6-2.9c-0.2-0.7-0.8-1.2-0.8-2
		c0.1-0.9,0.5-1.2,0.8-2.4c0.2-0.9-0.3-1.8-1.1-2.4c-1.2-1-1.9-0.5-2.2-1.5c-0.3-1,1.4-1.2,2-2c1.1-1.5,0.8-3.7-0.7-4.8
		c-1.5-1.1-3.7-0.8-4.8,0.7c-0.5,0.6-0.5,1.3-0.7,2c-0.2,0.7-0.5,0.9-1.2,1.3c-0.6,0.3-1,0.7-1.5,1.2c-0.8,0.8-1.6,0.7-2.7,0.7
		c-1,0.1-1.8,0.6-2.4,1.4c-0.6,0.8-0.8,1.8-0.6,2.7c0.1,0.6,0.4,1.2,0.4,1.9c-0.1,0.7-0.6,1.2-0.9,1.9c-0.5,1.4,0,3,1.2,3.9
		c0.7,0.6,1.8,0.5,2.6,0.9c0.9,0.6,1.1,1.8,2,2.4c1,0.7,2.3,0.9,3.4,0.4c1.1-0.5,1.6-2,2.9-2C174.1,109.6,175.3,109.7,176.3,108.4z"
		/>
	<path fill="#E96667" stroke="#B4474C" stroke-miterlimit="10" d="M191.1,118.9c0.6-0.8,0.8-1.9,0.6-2.9c-0.2-0.7-0.8-1.2-0.8-2
		c0.1-0.9,0.5-1.2,0.8-2.4c0.2-0.9-0.3-1.8-1.1-2.4c-1.2-1-1.9-0.5-2.2-1.5c-0.3-1,1.4-1.2,2-2c1.1-1.5,0.8-3.7-0.7-4.8
		c-1.5-1.1-3.7-0.8-4.8,0.7c-0.5,0.6-0.5,1.3-0.7,2c-0.2,0.7-0.5,0.9-1.2,1.3c-0.6,0.3-1,0.7-1.5,1.2c-0.8,0.8-1.6,0.7-2.7,0.7
		c-1,0.1-1.8,0.6-2.4,1.4c-0.6,0.8-0.8,1.8-0.6,2.7c0.1,0.6,0.4,1.2,0.4,1.9c-0.1,0.7-0.6,1.2-0.9,1.9c-0.5,1.4,0,3,1.2,3.9
		c0.7,0.6,1.8,0.5,2.6,0.9c0.9,0.6,1.1,1.8,2,2.4c1,0.7,2.3,0.9,3.4,0.4c1.1-0.5,1.6-2,2.9-2C188.9,120.1,190.1,120.3,191.1,118.9z"
		/>
	<path fill="#E96667" stroke="#B4474C" stroke-miterlimit="10" d="M205.9,129.4c0.6-0.8,0.8-1.9,0.6-2.9c-0.2-0.7-0.8-1.2-0.8-2
		c0.1-0.9,0.5-1.2,0.8-2.4c0.2-0.9-0.3-1.8-1.1-2.4c-1.2-1-1.9-0.5-2.2-1.5c-0.3-1,1.4-1.2,2-2c1.1-1.5,0.8-3.7-0.7-4.8
		c-1.5-1.1-3.7-0.8-4.8,0.7c-0.5,0.6-0.5,1.3-0.7,2c-0.2,0.7-0.5,0.9-1.2,1.3c-0.6,0.3-1,0.7-1.5,1.2c-0.8,0.8-1.6,0.7-2.7,0.7
		c-1,0.1-1.8,0.6-2.4,1.4c-0.6,0.8-0.8,1.8-0.6,2.7c0.1,0.6,0.4,1.2,0.4,1.9c-0.1,0.7-0.6,1.2-0.9,1.9c-0.5,1.4,0,3,1.2,3.9
		c0.7,0.6,1.8,0.5,2.6,0.9c0.9,0.6,1.1,1.8,2,2.4c1,0.7,2.3,0.9,3.4,0.4c1.1-0.5,1.6-2,2.9-2C203.7,130.7,204.9,130.8,205.9,129.4z"
		/>
</g>
<g>
	<g filter="url(#ds1)">
		<rect x="551.1" y="212.9" fill="#FFFFFF" width="109.9" height="27.7"/>
	</g>
	<g>
		<g>
			<path fill="#6D6E70" d="M569.1,221.5c2,0,4.3,0.8,4.3,2.2v1.4H572v-0.8c0-0.9-1.5-1.4-2.8-1.4c-2.6,0-4.3,1.8-4.3,4.4
				c0,2.6,1.7,4.5,4.4,4.5c1,0,3-0.3,3-1.4v-1.5h-2.2v-1.2h3.7v3.2c0,1.7-2.9,2.4-4.6,2.4c-3.5,0-5.9-2.5-5.9-5.9
				C563.2,224,565.6,221.5,569.1,221.5z"/>
			<path fill="#6D6E70" d="M575.6,231.8h1.4V223h-1.4v-1.3h4.4v1.3h-1.4v8.7h3.9v-1.8h1.4v3.1h-8.4V231.8z"/>
			<path fill="#6D6E70" d="M586.6,231.8h1.4v-3.5l-3.2-5.3h-1.1v-1.2h3.9v1.2h-1.2l2.1,3.6c0.1,0.2,0.2,0.5,0.2,0.5h0
				c0,0,0.1-0.2,0.2-0.5l2.1-3.6H590v-1.2h3.9v1.2h-1.1l-3.2,5.3v3.5h1.4v1.2h-4.4V231.8z"/>
			<path fill="#6D6E70" d="M600.3,221.5c1.4,0,4.3,0.5,4.3,2.2v1.4h-1.5v-0.9c0-1-1.7-1.4-2.8-1.4c-2.4,0-4.2,1.8-4.2,4.3
				c0,2.7,1.8,4.6,4.3,4.6c0.8,0,2.8-0.3,2.8-1.3v-0.9h1.5v1.4c0,1.7-2.8,2.2-4.4,2.2c-3.4,0-5.8-2.6-5.8-5.9
				C594.5,224,597.1,221.5,600.3,221.5z"/>
			<path fill="#6D6E70" d="M606.5,231.8h1.4V223h-1.4v-1.2h8.2v2.6h-1.4V223h-3.8v3.6h4v1.3h-4v3.7h4v-1.4h1.4v2.7h-8.5V231.8z"/>
			<path fill="#6D6E70" d="M616.6,231.8h1.4V223h-1.4v-1.2h4.9c0.8,0,1.5,0,2.1,0.2c1.2,0.4,2,1.4,2,2.9c0,1.6-0.9,2.8-2.3,3.2v0
				c0,0,0.3,0.2,0.5,0.5l1.6,2.8c0.2,0.3,0.4,0.4,0.8,0.4h0.3v1.2h-1c-1,0-1.2-0.2-1.6-0.8l-1.7-3.1c-0.3-0.5-0.5-0.6-1.2-0.6h-1.3
				v3.3h1.4v1.2h-4.4V231.8z M621.9,227.2c1.2,0,2-0.8,2-2.1c0-0.9-0.4-1.5-1.1-1.8c-0.4-0.1-0.8-0.2-1.4-0.2h-1.9v4.1H621.9z"/>
			<path fill="#6D6E70" d="M633.5,221.5c3.3,0,5.8,2.5,5.8,5.8c0,3.3-2.5,5.9-5.8,5.9c-3.3,0-5.8-2.6-5.8-5.9
				C627.7,224,630.2,221.5,633.5,221.5z M633.5,231.8c2.3,0,4.1-2,4.1-4.5c0-2.5-1.9-4.4-4.1-4.4c-2.3,0-4.2,1.9-4.2,4.4
				C629.3,229.8,631.2,231.8,633.5,231.8z"/>
			<path fill="#6D6E70" d="M640.8,231.8h1.4V223h-1.4v-1.3h4.4v1.3h-1.4v8.7h3.9v-1.8h1.4v3.1h-8.4V231.8z"/>
		</g>
	</g>
</g>
<g>
	<g filter="url(#ds1)">
		<rect x="728.6" y="254.4" fill="#FFFFFF" width="128.5" height="27.7"/>
	</g>
	<g>
		<g>
			<path fill="#6D6E70" d="M740.8,273.2h1.4v-8.8h-1.4v-1.2h7.8v2.7h-1.4v-1.3h-3.4v3.7h3.9v1.3h-3.9v3.6h1.5v1.2h-4.5V273.2z"/>
			<path fill="#6D6E70" d="M748.6,273.2h1.1l3.6-10.1h1.8l3.6,10.1h1.1v1.2h-3.9v-1.2h1.2l-0.9-2.5h-4l-0.9,2.5h1.2v1.2h-3.9V273.2z
				 M755.8,269.4l-1.4-3.9c-0.2-0.5-0.2-0.9-0.2-0.9h0c0,0,0,0.4-0.2,0.9l-1.4,3.9H755.8z"/>
			<path fill="#6D6E70" d="M762.3,273.2h1.4v-8.7h-2.7v1.8h-1.4v-3.1h9.7v3.1H768v-1.8h-2.7v8.7h1.4v1.2h-4.5V273.2z"/>
			<path fill="#6D6E70" d="M772.9,273.2h1.4v-8.7h-2.7v1.8h-1.4v-3.1h9.7v3.1h-1.4v-1.8h-2.7v8.7h1.4v1.2h-4.5V273.2z"/>
			<path fill="#6D6E70" d="M783.4,273.2h1.4v-3.5l-3.2-5.3h-1.1v-1.2h3.9v1.2h-1.2l2.1,3.6c0.1,0.2,0.2,0.5,0.2,0.5h0
				c0,0,0.1-0.2,0.2-0.5l2.1-3.6h-1.2v-1.2h3.9v1.2h-1.1l-3.2,5.3v3.5h1.4v1.2h-4.4V273.2z"/>
			<path fill="#6D6E70" d="M795,273.2h1.1l3.6-10.1h1.8l3.6,10.1h1.1v1.2h-3.9v-1.2h1.2l-0.9-2.5h-4l-0.9,2.5h1.2v1.2H795V273.2z
				 M802.2,269.4l-1.4-3.9c-0.2-0.5-0.2-0.9-0.2-0.9h0c0,0,0,0.4-0.2,0.9l-1.4,3.9H802.2z"/>
			<path fill="#6D6E70" d="M812.7,263c1.4,0,4.3,0.5,4.3,2.2v1.4h-1.5v-0.9c0-1-1.7-1.4-2.8-1.4c-2.4,0-4.2,1.8-4.2,4.3
				c0,2.7,1.8,4.6,4.3,4.6c0.8,0,2.8-0.3,2.8-1.3V271h1.5v1.4c0,1.7-2.8,2.2-4.4,2.2c-3.4,0-5.8-2.6-5.8-5.9
				C806.9,265.4,809.4,263,812.7,263z"/>
			<path fill="#6D6E70" d="M818.9,273.2h1.4v-8.8h-1.4v-1.2h4.4v1.2h-1.4v8.8h1.4v1.2h-4.4V273.2z"/>
			<path fill="#6D6E70" d="M825,273.2h1.4v-8.8H825v-1.2h4.8c0.9,0,1.6,0,2.4,0.3c2.2,0.7,3.6,2.6,3.6,5.4c0,2.7-1.4,4.6-3.6,5.3
				c-0.7,0.2-1.5,0.3-2.4,0.3H825V273.2z M829.7,273.1c0.7,0,1.3-0.1,1.9-0.3c1.5-0.5,2.5-2,2.5-4c0-2.1-0.9-3.5-2.4-4.1
				c-0.6-0.2-1.2-0.3-1.9-0.3H828v8.7H829.7z"/>
			<path fill="#6D6E70" d="M838.9,271.1v0.8c0,0.8,1.1,1.3,2.3,1.3c1.3,0,2.2-0.6,2.2-1.7c0-1.3-1.3-1.7-2.7-2.3
				c-1.5-0.6-3-1.2-3-3.2c0-2.1,1.7-3,3.6-3c1.7,0,3.4,0.6,3.4,1.9v1.3h-1.5v-0.8c0-0.7-1-1-1.9-1c-1.1,0-2,0.5-2,1.6
				c0,1.2,1.1,1.6,2.4,2.1c1.7,0.6,3.3,1.3,3.3,3.4c0,2.2-1.8,3.3-3.9,3.3c-1.8,0-3.7-0.8-3.7-2.4v-1.2H838.9z"/>
		</g>
	</g>
</g>
<g>
	<g filter="url(#ds1)">
		<rect x="174.9" y="59.3" fill="#FFFFFF" width="112.5" height="27.7"/>
	</g>
	<g>
		<g>
			<path fill="#6D6E70" d="M191.8,67.9c2,0,4.3,0.8,4.3,2.2v1.4h-1.5v-0.8c0-0.9-1.5-1.4-2.8-1.4c-2.6,0-4.3,1.8-4.3,4.4
				c0,2.6,1.7,4.5,4.4,4.5c1,0,3-0.3,3-1.4v-1.5h-2.2V74h3.7v3.2c0,1.7-2.9,2.4-4.6,2.4c-3.5,0-5.9-2.5-5.9-5.9
				C185.9,70.3,188.3,67.9,191.8,67.9z"/>
			<path fill="#6D6E70" d="M198.2,78.1h1.4v-8.7h-1.4v-1.3h4.4v1.3h-1.4V78h3.9v-1.8h1.4v3.1h-8.4V78.1z"/>
			<path fill="#6D6E70" d="M209.3,78.1h1.4v-3.5l-3.2-5.3h-1.1v-1.2h3.9v1.2h-1.2l2.1,3.6c0.1,0.2,0.2,0.5,0.2,0.5h0
				c0,0,0.1-0.2,0.2-0.5l2.1-3.6h-1.2v-1.2h3.9v1.2h-1.1l-3.2,5.3v3.5h1.4v1.2h-4.4V78.1z"/>
			<path fill="#6D6E70" d="M223,67.9c1.4,0,4.3,0.5,4.3,2.2v1.4h-1.5v-0.9c0-1-1.7-1.4-2.8-1.4c-2.4,0-4.2,1.8-4.2,4.3
				c0,2.7,1.8,4.6,4.3,4.6c0.8,0,2.8-0.3,2.8-1.3V76h1.5v1.4c0,1.7-2.8,2.2-4.4,2.2c-3.4,0-5.8-2.6-5.8-5.9
				C217.2,70.3,219.7,67.9,223,67.9z"/>
			<path fill="#6D6E70" d="M234.9,67.9c3.3,0,5.8,2.5,5.8,5.8c0,3.3-2.5,5.9-5.8,5.9c-3.3,0-5.8-2.6-5.8-5.9
				C229.1,70.4,231.6,67.9,234.9,67.9z M234.9,78.1c2.3,0,4.1-2,4.1-4.5c0-2.5-1.9-4.4-4.1-4.4c-2.3,0-4.2,1.9-4.2,4.4
				C230.7,76.2,232.6,78.1,234.9,78.1z"/>
			<path fill="#6D6E70" d="M248.2,67.9c2,0,4.3,0.8,4.3,2.2v1.4H251v-0.8c0-0.9-1.5-1.4-2.8-1.4c-2.6,0-4.3,1.8-4.3,4.4
				c0,2.6,1.7,4.5,4.4,4.5c1,0,3-0.3,3-1.4v-1.5h-2.2V74h3.7v3.2c0,1.7-2.9,2.4-4.6,2.4c-3.5,0-5.9-2.5-5.9-5.9
				C242.3,70.3,244.7,67.9,248.2,67.9z"/>
			<path fill="#6D6E70" d="M254.6,78.1h1.4v-8.8h-1.4v-1.2h8.2v2.6h-1.4v-1.3h-3.8V73h4v1.3h-4V78h4.1v-1.4h1.4v2.7h-8.5V78.1z"/>
			<path fill="#6D6E70" d="M264.7,78.1h1.4v-8.8h-1.4v-1.2h3l5.6,8.1c0.2,0.3,0.4,0.8,0.4,0.8h0c0,0-0.1-0.6-0.1-0.9v-6.8h-1.4v-1.2
				h4.5v1.2h-1.4v10.1h-1.6l-5.6-8.1c-0.2-0.3-0.4-0.8-0.4-0.8h0c0,0,0.1,0.6,0.1,0.9v6.8h1.5v1.2h-4.5V78.1z"/>
		</g>
	</g>
</g>
<g opacity="0.45" filter="url(#ds1)">
	<path fill="#F49F38" d="M593.9,263.7c0,0.1,0,0.1,0,0.2c-0.4,1.7-1.6,3.2-2,4.9c-0.4,1.8,0.2,3.8-0.2,5.5c-0.4,1.9-1.9,3.3-2.2,5.2
		c-0.3,1.8,0.4,3.6,0,5.4c-0.7,3.4-4,5.6-7.4,4.8s-5.6-4-4.8-7.4c0.3-1.3,1.1-2.1,1.7-3.3c0.6-1.1,1-2.7,0.8-4
		c-0.2-1.2-0.5-2.1-0.3-3.3c0.4-1.7,1.9-2.9,2.5-4.6c0.6-1.9-0.7-4-0.3-6c0.7-3.4,4-5.6,7.4-4.8C592.4,257,594.6,260.3,593.9,263.7z
		"/>
	<path fill="none" stroke="#C66320" stroke-width="1.4874" stroke-miterlimit="10" d="M593.9,263.7c0,0.1,0,0.1,0,0.2
		c-0.4,1.7-1.6,3.2-2,4.9c-0.4,1.8,0.2,3.8-0.2,5.5c-0.4,1.9-1.9,3.3-2.2,5.2c-0.3,1.8,0.4,3.6,0,5.4c-0.7,3.4-4,5.6-7.4,4.8
		s-5.6-4-4.8-7.4c0.3-1.3,1.1-2.1,1.7-3.3c0.6-1.1,1-2.7,0.8-4c-0.2-1.2-0.5-2.1-0.3-3.3c0.4-1.7,1.9-2.9,2.5-4.6
		c0.6-1.9-0.7-4-0.3-6c0.7-3.4,4-5.6,7.4-4.8C592.4,257,594.6,260.3,593.9,263.7z"/>
</g>
<g opacity="0.45" filter="url(#ds1)">
	<path fill="#F49F38" d="M616.1,286.2c0,0.1-0.1,0.1-0.1,0.2c-1.1,1.4-2.7,2.2-3.8,3.6c-1.1,1.5-1.4,3.5-2.4,5
		c-1.1,1.6-3.1,2.2-4.2,3.8c-1,1.5-1.1,3.5-2.2,4.9c-2,2.8-6,3.4-8.7,1.4s-3.4-6-1.4-8.7c0.8-1.1,1.9-1.5,2.9-2.3c1-0.8,2-2,2.4-3.3
		c0.3-1.2,0.4-2.1,1.1-3.2c1-1.4,3-1.9,4.2-3.2c1.4-1.5,1-3.9,2.2-5.6c2-2.8,6-3.4,8.7-1.4C617.5,279.5,618.1,283.5,616.1,286.2z"/>
	<path fill="none" stroke="#C66320" stroke-width="1.4874" stroke-miterlimit="10" d="M616.1,286.2c0,0.1-0.1,0.1-0.1,0.2
		c-1.1,1.4-2.7,2.2-3.8,3.6c-1.1,1.5-1.4,3.5-2.4,5c-1.1,1.6-3.1,2.2-4.2,3.8c-1,1.5-1.1,3.5-2.2,4.9c-2,2.8-6,3.4-8.7,1.4
		s-3.4-6-1.4-8.7c0.8-1.1,1.9-1.5,2.9-2.3c1-0.8,2-2,2.4-3.3c0.3-1.2,0.4-2.1,1.1-3.2c1-1.4,3-1.9,4.2-3.2c1.4-1.5,1-3.9,2.2-5.6
		c2-2.8,6-3.4,8.7-1.4C617.5,279.5,618.1,283.5,616.1,286.2z"/>
</g>
<g opacity="0.45" filter="url(#ds1)">
	<path fill="#F49F38" d="M622,254.5c0,0.1,0.1,0.1,0.1,0.2c1,1.5,1.3,3.3,2.2,4.8c1,1.5,2.9,2.4,4,3.9c1.1,1.6,1.1,3.7,2.3,5.2
		c1.1,1.4,2.9,2.2,4,3.6c2,2.8,1.4,6.7-1.4,8.7c-2.8,2-6.7,1.4-8.7-1.4c-0.8-1.1-0.8-2.2-1.3-3.4c-0.4-1.2-1.3-2.6-2.4-3.3
		c-1-0.7-1.9-1-2.6-2.1c-1-1.4-0.9-3.4-1.7-4.9c-1-1.8-3.4-2.2-4.6-3.9c-2-2.8-1.4-6.7,1.4-8.7C616,251.1,620,251.8,622,254.5z"/>
	<path fill="none" stroke="#C66320" stroke-width="1.4874" stroke-miterlimit="10" d="M622,254.5c0,0.1,0.1,0.1,0.1,0.2
		c1,1.5,1.3,3.3,2.2,4.8c1,1.5,2.9,2.4,4,3.9c1.1,1.6,1.1,3.7,2.3,5.2c1.1,1.4,2.9,2.2,4,3.6c2,2.8,1.4,6.7-1.4,8.7
		c-2.8,2-6.7,1.4-8.7-1.4c-0.8-1.1-0.8-2.2-1.3-3.4c-0.4-1.2-1.3-2.6-2.4-3.3c-1-0.7-1.9-1-2.6-2.1c-1-1.4-0.9-3.4-1.7-4.9
		c-1-1.8-3.4-2.2-4.6-3.9c-2-2.8-1.4-6.7,1.4-8.7C616,251.1,620,251.8,622,254.5z"/>
</g>
<g>
	<g filter="url(#ds1)">
		<path fill="#F9DA55" d="M651.6,66.4c-0.6-0.8-1.3-1.4-2.1-1.8c-2.1-1.1-3.5-3-4.1-5.3c-0.2-0.8-0.6-1.5-1.1-2.2
			c-2.2-3-6.7-3.6-9.6-1.3c-3,2.3-3.5,6.7-1.2,9.7c0.5,0.7,1.2,1.2,1.9,1.6c2.1,1.2,3.7,3.2,4.4,5.5c0.2,0.8,0.6,1.5,1.2,2.2
			c0.5,0.7,1.2,1.2,1.9,1.6c2.1,1.2,3.7,3.2,4.4,5.5c0.2,0.8,0.6,1.5,1.2,2.2c0.5,0.7,1.2,1.2,1.9,1.6c2.1,1.2,3.7,3.2,4.4,5.5
			c0.2,0.8,0.6,1.5,1.2,2.2c0.5,0.7,1.2,1.2,1.9,1.6c2.1,1.2,3.7,3.2,4.4,5.5c0.2,0.8,0.6,1.5,1.2,2.2c0.5,0.7,1.2,1.2,1.9,1.6
			c2.1,1.2,3.7,3.2,4.4,5.5c0.2,0.8,0.6,1.5,1.2,2.2s1.2,1.2,1.9,1.6c2.1,1.2,3.7,3.2,4.4,5.5c0.2,0.8,0.6,1.5,1.2,2.2
			c0.5,0.7,1.2,1.2,1.9,1.6c2.1,1.2,3.7,3.2,4.4,5.5c0.2,0.8,0.6,1.5,1.2,2.2c0.5,0.7,1.2,1.2,1.9,1.6c2.1,1.2,3.7,3.2,4.4,5.5
			c0.2,0.8,0.6,1.5,1.2,2.2c0.5,0.7,1.2,1.2,1.9,1.6c2.1,1.2,3.7,3.2,4.4,5.5c0.2,0.8,0.6,1.5,1.2,2.2c0.5,0.7,1.2,1.2,1.9,1.6
			c2.1,1.2,3.7,3.2,4.4,5.5c0.2,0.8,0.6,1.5,1.2,2.2c0.6,0.8,1.3,1.4,2.1,1.8c2.1,1.1,3.5,3,4.1,5.3c0.2,0.8,0.6,1.5,1.1,2.2
			c2.2,3,6.7,3.6,9.6,1.3c3-2.3,3.5-6.7,1.2-9.7c-0.5-0.7-1.2-1.2-1.9-1.6c-2.1-1.2-3.7-3.2-4.4-5.5c-0.2-0.8-0.6-1.5-1.2-2.2
			c-0.5-0.7-1.2-1.2-1.9-1.6c-2.1-1.2-3.7-3.2-4.4-5.5c-0.2-0.8-0.6-1.5-1.2-2.2c-0.5-0.7-1.2-1.2-1.9-1.6c-2.1-1.2-3.7-3.2-4.4-5.5
			c-0.2-0.8-0.6-1.5-1.2-2.2c-0.5-0.7-1.2-1.2-1.9-1.6c-2.1-1.2-3.7-3.2-4.4-5.5c-0.2-0.8-0.6-1.5-1.2-2.2c-0.5-0.7-1.2-1.2-1.9-1.6
			c-2.1-1.2-3.7-3.2-4.4-5.5c-0.2-0.8-0.6-1.5-1.2-2.2c-0.5-0.7-1.2-1.2-1.9-1.6c-2.1-1.2-3.7-3.2-4.4-5.5c-0.2-0.8-0.6-1.5-1.2-2.2
			s-1.2-1.2-1.9-1.6c-2.1-1.2-3.7-3.2-4.4-5.5c-0.2-0.8-0.6-1.5-1.2-2.2s-1.2-1.2-1.9-1.6c-2.1-1.2-3.7-3.2-4.4-5.5
			c-0.2-0.8-0.6-1.5-1.2-2.2c-0.5-0.7-1.2-1.2-1.9-1.6c-2.1-1.2-3.7-3.2-4.4-5.5c-0.2-0.8-0.6-1.5-1.2-2.2c-0.5-0.7-1.2-1.2-1.9-1.6
			c-2.1-1.2-3.7-3.2-4.4-5.5C652.5,67.8,652.1,67.1,651.6,66.4z"/>
		<path fill="none" stroke="#D6971A" stroke-width="1.489" stroke-miterlimit="10" d="M651.6,66.4c-0.6-0.8-1.3-1.4-2.1-1.8
			c-2.1-1.1-3.5-3-4.1-5.3c-0.2-0.8-0.6-1.5-1.1-2.2c-2.2-3-6.7-3.6-9.6-1.3c-3,2.3-3.5,6.7-1.2,9.7c0.5,0.7,1.2,1.2,1.9,1.6
			c2.1,1.2,3.7,3.2,4.4,5.5c0.2,0.8,0.6,1.5,1.2,2.2c0.5,0.7,1.2,1.2,1.9,1.6c2.1,1.2,3.7,3.2,4.4,5.5c0.2,0.8,0.6,1.5,1.2,2.2
			c0.5,0.7,1.2,1.2,1.9,1.6c2.1,1.2,3.7,3.2,4.4,5.5c0.2,0.8,0.6,1.5,1.2,2.2c0.5,0.7,1.2,1.2,1.9,1.6c2.1,1.2,3.7,3.2,4.4,5.5
			c0.2,0.8,0.6,1.5,1.2,2.2c0.5,0.7,1.2,1.2,1.9,1.6c2.1,1.2,3.7,3.2,4.4,5.5c0.2,0.8,0.6,1.5,1.2,2.2s1.2,1.2,1.9,1.6
			c2.1,1.2,3.7,3.2,4.4,5.5c0.2,0.8,0.6,1.5,1.2,2.2c0.5,0.7,1.2,1.2,1.9,1.6c2.1,1.2,3.7,3.2,4.4,5.5c0.2,0.8,0.6,1.5,1.2,2.2
			c0.5,0.7,1.2,1.2,1.9,1.6c2.1,1.2,3.7,3.2,4.4,5.5c0.2,0.8,0.6,1.5,1.2,2.2c0.5,0.7,1.2,1.2,1.9,1.6c2.1,1.2,3.7,3.2,4.4,5.5
			c0.2,0.8,0.6,1.5,1.2,2.2c0.5,0.7,1.2,1.2,1.9,1.6c2.1,1.2,3.7,3.2,4.4,5.5c0.2,0.8,0.6,1.5,1.2,2.2c0.6,0.8,1.3,1.4,2.1,1.8
			c2.1,1.1,3.5,3,4.1,5.3c0.2,0.8,0.6,1.5,1.1,2.2c2.2,3,6.7,3.6,9.6,1.3c3-2.3,3.5-6.7,1.2-9.7c-0.5-0.7-1.2-1.2-1.9-1.6
			c-2.1-1.2-3.7-3.2-4.4-5.5c-0.2-0.8-0.6-1.5-1.2-2.2c-0.5-0.7-1.2-1.2-1.9-1.6c-2.1-1.2-3.7-3.2-4.4-5.5c-0.2-0.8-0.6-1.5-1.2-2.2
			c-0.5-0.7-1.2-1.2-1.9-1.6c-2.1-1.2-3.7-3.2-4.4-5.5c-0.2-0.8-0.6-1.5-1.2-2.2c-0.5-0.7-1.2-1.2-1.9-1.6c-2.1-1.2-3.7-3.2-4.4-5.5
			c-0.2-0.8-0.6-1.5-1.2-2.2c-0.5-0.7-1.2-1.2-1.9-1.6c-2.1-1.2-3.7-3.2-4.4-5.5c-0.2-0.8-0.6-1.5-1.2-2.2c-0.5-0.7-1.2-1.2-1.9-1.6
			c-2.1-1.2-3.7-3.2-4.4-5.5c-0.2-0.8-0.6-1.5-1.2-2.2s-1.2-1.2-1.9-1.6c-2.1-1.2-3.7-3.2-4.4-5.5c-0.2-0.8-0.6-1.5-1.2-2.2
			s-1.2-1.2-1.9-1.6c-2.1-1.2-3.7-3.2-4.4-5.5c-0.2-0.8-0.6-1.5-1.2-2.2c-0.5-0.7-1.2-1.2-1.9-1.6c-2.1-1.2-3.7-3.2-4.4-5.5
			c-0.2-0.8-0.6-1.5-1.2-2.2c-0.5-0.7-1.2-1.2-1.9-1.6c-2.1-1.2-3.7-3.2-4.4-5.5C652.5,67.8,652.1,67.1,651.6,66.4z"/>
	</g>
	<g filter="url(#ds1)">
		<path fill="#F9DA55" d="M683.2,41.1c-0.6-0.8-1.3-1.4-2.1-1.8c-2.1-1.1-3.5-3-4.1-5.3c-0.2-0.8-0.6-1.5-1.1-2.2
			c-2.2-3-6.7-3.6-9.6-1.3c-3,2.3-3.5,6.7-1.2,9.7c0.5,0.7,1.2,1.2,1.9,1.6c2.1,1.2,3.7,3.2,4.4,5.5c0.2,0.8,0.6,1.5,1.2,2.2
			c0.5,0.7,1.2,1.2,1.9,1.6c2.1,1.2,3.7,3.2,4.4,5.5c0.2,0.8,0.6,1.5,1.2,2.2c0.5,0.7,1.2,1.2,1.9,1.6c2.1,1.2,3.7,3.2,4.4,5.5
			c0.2,0.8,0.6,1.5,1.2,2.2c0.5,0.7,1.2,1.2,1.9,1.6c2.1,1.2,3.7,3.2,4.4,5.5c0.2,0.8,0.6,1.5,1.2,2.2s1.2,1.2,1.9,1.6
			c2.1,1.2,3.7,3.2,4.4,5.5c0.2,0.8,0.6,1.5,1.2,2.2c0.5,0.7,1.2,1.2,1.9,1.6c2.1,1.2,3.7,3.2,4.4,5.5c0.2,0.8,0.6,1.5,1.2,2.2
			c0.5,0.7,1.2,1.2,1.9,1.6c2.1,1.2,3.7,3.2,4.4,5.5c0.2,0.8,0.6,1.5,1.2,2.2c0.5,0.7,1.2,1.2,1.9,1.6c2.1,1.2,3.7,3.2,4.4,5.5
			c0.2,0.8,0.6,1.5,1.2,2.2c0.5,0.7,1.2,1.2,1.9,1.6c2.1,1.2,3.7,3.2,4.4,5.5c0.2,0.8,0.6,1.5,1.2,2.2c0.5,0.7,1.2,1.2,1.9,1.6
			c2.1,1.2,3.7,3.2,4.4,5.5c0.2,0.8,0.6,1.5,1.2,2.2c0.6,0.8,1.3,1.4,2.1,1.8c2.1,1.1,3.5,3,4.1,5.3c0.2,0.8,0.6,1.5,1.1,2.2
			c2.2,3,6.7,3.6,9.6,1.3c3-2.3,3.5-6.7,1.2-9.7c-0.5-0.7-1.2-1.2-1.9-1.6c-2.1-1.2-3.7-3.2-4.4-5.5c-0.2-0.8-0.6-1.5-1.2-2.2
			c-0.5-0.7-1.2-1.2-1.9-1.6c-2.1-1.2-3.7-3.2-4.4-5.5c-0.2-0.8-0.6-1.5-1.2-2.2c-0.5-0.7-1.2-1.2-1.9-1.6c-2.1-1.2-3.7-3.2-4.4-5.5
			c-0.2-0.8-0.6-1.5-1.2-2.2c-0.5-0.7-1.2-1.2-1.9-1.6c-2.1-1.2-3.7-3.2-4.4-5.5c-0.2-0.8-0.6-1.5-1.2-2.2c-0.5-0.7-1.2-1.2-1.9-1.6
			c-2.1-1.2-3.7-3.2-4.4-5.5c-0.2-0.8-0.6-1.5-1.2-2.2c-0.5-0.7-1.2-1.2-1.9-1.6c-2.1-1.2-3.7-3.2-4.4-5.5c-0.2-0.8-0.6-1.5-1.2-2.2
			c-0.5-0.7-1.2-1.2-1.9-1.6c-2.1-1.2-3.7-3.2-4.4-5.5c-0.2-0.8-0.6-1.5-1.2-2.2c-0.5-0.7-1.2-1.2-1.9-1.6c-2.1-1.2-3.7-3.2-4.4-5.5
			c-0.2-0.8-0.6-1.5-1.2-2.2c-0.5-0.7-1.2-1.2-1.9-1.6c-2.1-1.2-3.7-3.2-4.4-5.5c-0.2-0.8-0.6-1.5-1.2-2.2c-0.5-0.7-1.2-1.2-1.9-1.6
			c-2.1-1.2-3.7-3.2-4.4-5.5C684.1,42.5,683.7,41.8,683.2,41.1z"/>
		<path fill="none" stroke="#D6971A" stroke-width="1.489" stroke-miterlimit="10" d="M683.2,41.1c-0.6-0.8-1.3-1.4-2.1-1.8
			c-2.1-1.1-3.5-3-4.1-5.3c-0.2-0.8-0.6-1.5-1.1-2.2c-2.2-3-6.7-3.6-9.6-1.3c-3,2.3-3.5,6.7-1.2,9.7c0.5,0.7,1.2,1.2,1.9,1.6
			c2.1,1.2,3.7,3.2,4.4,5.5c0.2,0.8,0.6,1.5,1.2,2.2c0.5,0.7,1.2,1.2,1.9,1.6c2.1,1.2,3.7,3.2,4.4,5.5c0.2,0.8,0.6,1.5,1.2,2.2
			c0.5,0.7,1.2,1.2,1.9,1.6c2.1,1.2,3.7,3.2,4.4,5.5c0.2,0.8,0.6,1.5,1.2,2.2c0.5,0.7,1.2,1.2,1.9,1.6c2.1,1.2,3.7,3.2,4.4,5.5
			c0.2,0.8,0.6,1.5,1.2,2.2s1.2,1.2,1.9,1.6c2.1,1.2,3.7,3.2,4.4,5.5c0.2,0.8,0.6,1.5,1.2,2.2c0.5,0.7,1.2,1.2,1.9,1.6
			c2.1,1.2,3.7,3.2,4.4,5.5c0.2,0.8,0.6,1.5,1.2,2.2c0.5,0.7,1.2,1.2,1.9,1.6c2.1,1.2,3.7,3.2,4.4,5.5c0.2,0.8,0.6,1.5,1.2,2.2
			c0.5,0.7,1.2,1.2,1.9,1.6c2.1,1.2,3.7,3.2,4.4,5.5c0.2,0.8,0.6,1.5,1.2,2.2c0.5,0.7,1.2,1.2,1.9,1.6c2.1,1.2,3.7,3.2,4.4,5.5
			c0.2,0.8,0.6,1.5,1.2,2.2c0.5,0.7,1.2,1.2,1.9,1.6c2.1,1.2,3.7,3.2,4.4,5.5c0.2,0.8,0.6,1.5,1.2,2.2c0.6,0.8,1.3,1.4,2.1,1.8
			c2.1,1.1,3.5,3,4.1,5.3c0.2,0.8,0.6,1.5,1.1,2.2c2.2,3,6.7,3.6,9.6,1.3c3-2.3,3.5-6.7,1.2-9.7c-0.5-0.7-1.2-1.2-1.9-1.6
			c-2.1-1.2-3.7-3.2-4.4-5.5c-0.2-0.8-0.6-1.5-1.2-2.2c-0.5-0.7-1.2-1.2-1.9-1.6c-2.1-1.2-3.7-3.2-4.4-5.5c-0.2-0.8-0.6-1.5-1.2-2.2
			c-0.5-0.7-1.2-1.2-1.9-1.6c-2.1-1.2-3.7-3.2-4.4-5.5c-0.2-0.8-0.6-1.5-1.2-2.2c-0.5-0.7-1.2-1.2-1.9-1.6c-2.1-1.2-3.7-3.2-4.4-5.5
			c-0.2-0.8-0.6-1.5-1.2-2.2c-0.5-0.7-1.2-1.2-1.9-1.6c-2.1-1.2-3.7-3.2-4.4-5.5c-0.2-0.8-0.6-1.5-1.2-2.2c-0.5-0.7-1.2-1.2-1.9-1.6
			c-2.1-1.2-3.7-3.2-4.4-5.5c-0.2-0.8-0.6-1.5-1.2-2.2c-0.5-0.7-1.2-1.2-1.9-1.6c-2.1-1.2-3.7-3.2-4.4-5.5c-0.2-0.8-0.6-1.5-1.2-2.2
			c-0.5-0.7-1.2-1.2-1.9-1.6c-2.1-1.2-3.7-3.2-4.4-5.5c-0.2-0.8-0.6-1.5-1.2-2.2c-0.5-0.7-1.2-1.2-1.9-1.6c-2.1-1.2-3.7-3.2-4.4-5.5
			c-0.2-0.8-0.6-1.5-1.2-2.2c-0.5-0.7-1.2-1.2-1.9-1.6c-2.1-1.2-3.7-3.2-4.4-5.5C684.1,42.5,683.7,41.8,683.2,41.1z"/>
	</g>
	<g filter="url(#ds1)">
		<path fill="#F9DA55" d="M670.5,57.2c-0.6-0.8-1.3-1.4-2.1-1.8c-2.1-1.1-3.5-3-4.1-5.3c-0.2-0.8-0.6-1.5-1.1-2.2
			c-2.2-3-6.7-3.6-9.6-1.3c-3,2.3-3.5,6.7-1.2,9.7c0.5,0.7,1.2,1.2,1.9,1.6c2.1,1.2,3.7,3.2,4.4,5.5c0.2,0.8,0.6,1.5,1.2,2.2
			s1.2,1.2,1.9,1.6c2.1,1.2,3.7,3.2,4.4,5.5c0.2,0.8,0.6,1.5,1.2,2.2c0.5,0.7,1.2,1.2,1.9,1.6c2.1,1.2,3.7,3.2,4.4,5.5
			c0.2,0.8,0.6,1.5,1.2,2.2c0.5,0.7,1.2,1.2,1.9,1.6c2.1,1.2,3.7,3.2,4.4,5.5c0.2,0.8,0.6,1.5,1.2,2.2c0.5,0.7,1.2,1.2,1.9,1.6
			c2.1,1.2,3.7,3.2,4.4,5.5c0.2,0.8,0.6,1.5,1.2,2.2c0.5,0.7,1.2,1.2,1.9,1.6c2.1,1.2,3.7,3.2,4.4,5.5c0.2,0.8,0.6,1.5,1.2,2.2
			c0.5,0.7,1.2,1.2,1.9,1.6c2.1,1.2,3.7,3.2,4.4,5.5c0.2,0.8,0.6,1.5,1.2,2.2c0.5,0.7,1.2,1.2,1.9,1.6c2.1,1.2,3.7,3.2,4.4,5.5
			c0.2,0.8,0.6,1.5,1.2,2.2s1.2,1.2,1.9,1.6c2.1,1.2,3.7,3.2,4.4,5.5c0.2,0.8,0.6,1.5,1.2,2.2c0.5,0.7,1.2,1.2,1.9,1.6
			c2.1,1.2,3.7,3.2,4.4,5.5c0.2,0.8,0.6,1.5,1.2,2.2c0.6,0.8,1.3,1.4,2.1,1.8c2.1,1.1,3.5,3,4.1,5.3c0.2,0.8,0.6,1.5,1.1,2.2
			c2.2,3,6.7,3.6,9.6,1.3c3-2.3,3.5-6.7,1.2-9.7c-0.5-0.7-1.2-1.2-1.9-1.6c-2.1-1.2-3.7-3.2-4.4-5.5c-0.2-0.8-0.6-1.5-1.2-2.2
			c-0.5-0.7-1.2-1.2-1.9-1.6c-2.1-1.2-3.7-3.2-4.4-5.5c-0.2-0.8-0.6-1.5-1.2-2.2c-0.5-0.7-1.2-1.2-1.9-1.6c-2.1-1.2-3.7-3.2-4.4-5.5
			c-0.2-0.8-0.6-1.5-1.2-2.2c-0.5-0.7-1.2-1.2-1.9-1.6c-2.1-1.2-3.7-3.2-4.4-5.5c-0.2-0.8-0.6-1.5-1.2-2.2c-0.5-0.7-1.2-1.2-1.9-1.6
			c-2.1-1.2-3.7-3.2-4.4-5.5c-0.2-0.8-0.6-1.5-1.2-2.2c-0.5-0.7-1.2-1.2-1.9-1.6c-2.1-1.2-3.7-3.2-4.4-5.5c-0.2-0.8-0.6-1.5-1.2-2.2
			c-0.5-0.7-1.2-1.2-1.9-1.6c-2.1-1.2-3.7-3.2-4.4-5.5c-0.2-0.8-0.6-1.5-1.2-2.2s-1.2-1.2-1.9-1.6c-2.1-1.2-3.7-3.2-4.4-5.5
			c-0.2-0.8-0.6-1.5-1.2-2.2c-0.5-0.7-1.2-1.2-1.9-1.6c-2.1-1.2-3.7-3.2-4.4-5.5c-0.2-0.8-0.6-1.5-1.2-2.2c-0.5-0.7-1.2-1.2-1.9-1.6
			c-2.1-1.2-3.7-3.2-4.4-5.5C671.4,58.7,671,57.9,670.5,57.2z"/>
		<path fill="none" stroke="#D6971A" stroke-width="1.489" stroke-miterlimit="10" d="M670.5,57.2c-0.6-0.8-1.3-1.4-2.1-1.8
			c-2.1-1.1-3.5-3-4.1-5.3c-0.2-0.8-0.6-1.5-1.1-2.2c-2.2-3-6.7-3.6-9.6-1.3c-3,2.3-3.5,6.7-1.2,9.7c0.5,0.7,1.2,1.2,1.9,1.6
			c2.1,1.2,3.7,3.2,4.4,5.5c0.2,0.8,0.6,1.5,1.2,2.2s1.2,1.2,1.9,1.6c2.1,1.2,3.7,3.2,4.4,5.5c0.2,0.8,0.6,1.5,1.2,2.2
			c0.5,0.7,1.2,1.2,1.9,1.6c2.1,1.2,3.7,3.2,4.4,5.5c0.2,0.8,0.6,1.5,1.2,2.2c0.5,0.7,1.2,1.2,1.9,1.6c2.1,1.2,3.7,3.2,4.4,5.5
			c0.2,0.8,0.6,1.5,1.2,2.2c0.5,0.7,1.2,1.2,1.9,1.6c2.1,1.2,3.7,3.2,4.4,5.5c0.2,0.8,0.6,1.5,1.2,2.2c0.5,0.7,1.2,1.2,1.9,1.6
			c2.1,1.2,3.7,3.2,4.4,5.5c0.2,0.8,0.6,1.5,1.2,2.2c0.5,0.7,1.2,1.2,1.9,1.6c2.1,1.2,3.7,3.2,4.4,5.5c0.2,0.8,0.6,1.5,1.2,2.2
			c0.5,0.7,1.2,1.2,1.9,1.6c2.1,1.2,3.7,3.2,4.4,5.5c0.2,0.8,0.6,1.5,1.2,2.2s1.2,1.2,1.9,1.6c2.1,1.2,3.7,3.2,4.4,5.5
			c0.2,0.8,0.6,1.5,1.2,2.2c0.5,0.7,1.2,1.2,1.9,1.6c2.1,1.2,3.7,3.2,4.4,5.5c0.2,0.8,0.6,1.5,1.2,2.2c0.6,0.8,1.3,1.4,2.1,1.8
			c2.1,1.1,3.5,3,4.1,5.3c0.2,0.8,0.6,1.5,1.1,2.2c2.2,3,6.7,3.6,9.6,1.3c3-2.3,3.5-6.7,1.2-9.7c-0.5-0.7-1.2-1.2-1.9-1.6
			c-2.1-1.2-3.7-3.2-4.4-5.5c-0.2-0.8-0.6-1.5-1.2-2.2c-0.5-0.7-1.2-1.2-1.9-1.6c-2.1-1.2-3.7-3.2-4.4-5.5c-0.2-0.8-0.6-1.5-1.2-2.2
			c-0.5-0.7-1.2-1.2-1.9-1.6c-2.1-1.2-3.7-3.2-4.4-5.5c-0.2-0.8-0.6-1.5-1.2-2.2c-0.5-0.7-1.2-1.2-1.9-1.6c-2.1-1.2-3.7-3.2-4.4-5.5
			c-0.2-0.8-0.6-1.5-1.2-2.2c-0.5-0.7-1.2-1.2-1.9-1.6c-2.1-1.2-3.7-3.2-4.4-5.5c-0.2-0.8-0.6-1.5-1.2-2.2c-0.5-0.7-1.2-1.2-1.9-1.6
			c-2.1-1.2-3.7-3.2-4.4-5.5c-0.2-0.8-0.6-1.5-1.2-2.2c-0.5-0.7-1.2-1.2-1.9-1.6c-2.1-1.2-3.7-3.2-4.4-5.5c-0.2-0.8-0.6-1.5-1.2-2.2
			s-1.2-1.2-1.9-1.6c-2.1-1.2-3.7-3.2-4.4-5.5c-0.2-0.8-0.6-1.5-1.2-2.2c-0.5-0.7-1.2-1.2-1.9-1.6c-2.1-1.2-3.7-3.2-4.4-5.5
			c-0.2-0.8-0.6-1.5-1.2-2.2c-0.5-0.7-1.2-1.2-1.9-1.6c-2.1-1.2-3.7-3.2-4.4-5.5C671.4,58.7,671,57.9,670.5,57.2z"/>
	</g>
	<g filter="url(#ds1)">
		<path fill="#F49F38" d="M662.3,41.1c-0.1,0-0.1,0.1-0.2,0.1c-1.4,1.1-3.2,1.4-4.6,2.5c-1.5,1.1-2.3,3-3.7,4.2
			c-1.5,1.2-3.6,1.3-5,2.6c-1.4,1.2-2,3-3.4,4.2c-2.7,2.1-6.6,1.7-8.8-1c-2.1-2.7-1.7-6.6,1-8.8c1.1-0.8,2.2-0.9,3.4-1.4
			c1.2-0.5,2.5-1.4,3.2-2.5c0.6-1,0.9-1.9,1.9-2.7c1.4-1.1,3.4-1,4.9-2c1.7-1.1,2-3.5,3.6-4.8c2.7-2.1,6.6-1.7,8.8,1
			C665.5,35,665,39,662.3,41.1z"/>
		<path fill="none" stroke="#C66320" stroke-width="1.4874" stroke-miterlimit="10" d="M662.3,41.1c-0.1,0-0.1,0.1-0.2,0.1
			c-1.4,1.1-3.2,1.4-4.6,2.5c-1.5,1.1-2.3,3-3.7,4.2c-1.5,1.2-3.6,1.3-5,2.6c-1.4,1.2-2,3-3.4,4.2c-2.7,2.1-6.6,1.7-8.8-1
			c-2.1-2.7-1.7-6.6,1-8.8c1.1-0.8,2.2-0.9,3.4-1.4c1.2-0.5,2.5-1.4,3.2-2.5c0.6-1,0.9-1.9,1.9-2.7c1.4-1.1,3.4-1,4.9-2
			c1.7-1.1,2-3.5,3.6-4.8c2.7-2.1,6.6-1.7,8.8,1C665.5,35,665,39,662.3,41.1z"/>
	</g>
</g>
<g opacity="0.45" filter="url(#ds1)">
	<circle fill="#E96667" cx="417.8" cy="577.1" r="6.8"/>
	<circle fill="none" stroke="#B4474C" stroke-width="1.489" stroke-miterlimit="10" cx="417.8" cy="577.1" r="6.8"/>
</g>
<g opacity="0.45" filter="url(#ds1)">
	<circle fill="#E96667" cx="440.9" cy="615.1" r="6.8"/>
	<circle fill="none" stroke="#B4474C" stroke-width="1.489" stroke-miterlimit="10" cx="440.9" cy="615.1" r="6.8"/>
</g>
<g opacity="0.45" filter="url(#ds1)">
	<circle fill="#E96667" cx="421.5" cy="619.5" r="6.8"/>
	<circle fill="none" stroke="#B4474C" stroke-width="1.489" stroke-miterlimit="10" cx="421.5" cy="619.5" r="6.8"/>
</g>
<g opacity="0.45" filter="url(#ds1)">
	<circle fill="#E96667" cx="439.7" cy="594.6" r="6.8"/>
	<circle fill="none" stroke="#B4474C" stroke-width="1.489" stroke-miterlimit="10" cx="439.7" cy="594.6" r="6.8"/>
</g>
<g opacity="0.45" filter="url(#ds1)">
	<circle fill="#E96667" cx="419.5" cy="599.1" r="6.8"/>
	<circle fill="none" stroke="#B4474C" stroke-width="1.489" stroke-miterlimit="10" cx="419.5" cy="599.1" r="6.8"/>
</g>
<g opacity="0.45" filter="url(#ds1)">
	<circle fill="#E96667" cx="398.5" cy="585.1" r="6.8"/>
	<circle fill="none" stroke="#B4474C" stroke-width="1.489" stroke-miterlimit="10" cx="398.5" cy="585.1" r="6.8"/>
</g>
<g opacity="0.45" filter="url(#ds1)">
	<circle fill="#E96667" cx="379" cy="589.5" r="6.8"/>
	<circle fill="none" stroke="#B4474C" stroke-width="1.489" stroke-miterlimit="10" cx="379" cy="589.5" r="6.8"/>
</g>
<g opacity="0.45" filter="url(#ds1)">
	<circle fill="#E96667" cx="405.3" cy="562.3" r="6.8"/>
	<circle fill="none" stroke="#B4474C" stroke-width="1.489" stroke-miterlimit="10" cx="405.3" cy="562.3" r="6.8"/>
</g>
<g opacity="0.45" filter="url(#ds1)">
	<circle fill="#E96667" cx="383.9" cy="569.1" r="6.8"/>
	<circle fill="none" stroke="#B4474C" stroke-width="1.489" stroke-miterlimit="10" cx="383.9" cy="569.1" r="6.8"/>
</g>
<g opacity="0.45" filter="url(#ds1)">
	<circle fill="#E96667" cx="405.3" cy="627.5" r="6.8"/>
	<circle fill="none" stroke="#B4474C" stroke-width="1.489" stroke-miterlimit="10" cx="405.3" cy="627.5" r="6.8"/>
</g>
<g opacity="0.45" filter="url(#ds1)">
	<circle fill="#E96667" cx="385.9" cy="632" r="6.8"/>
	<circle fill="none" stroke="#B4474C" stroke-width="1.489" stroke-miterlimit="10" cx="385.9" cy="632" r="6.8"/>
</g>
<g opacity="0.45" filter="url(#ds1)">
	<circle fill="#E96667" cx="400" cy="607.1" r="6.8"/>
	<circle fill="none" stroke="#B4474C" stroke-width="1.489" stroke-miterlimit="10" cx="400" cy="607.1" r="6.8"/>
</g>
<g opacity="0.45" filter="url(#ds1)">
	<circle fill="#E96667" cx="379.8" cy="611.6" r="6.8"/>
	<circle fill="none" stroke="#B4474C" stroke-width="1.489" stroke-miterlimit="10" cx="379.8" cy="611.6" r="6.8"/>
</g>
<g opacity="0.45" filter="url(#ds1)">
	<path fill="#D0D2D3" d="M538.1,469.8l37.9-1.4c3.1-0.1,5.6,2.4,5.6,5.4v7.7c0,3.3-2.8,5.8-6.1,5.4l-40.2-4.6
		c-0.7-0.1-1.3-0.7-1.3-1.4v-7.1C534.1,471.7,535.9,469.9,538.1,469.8z"/>
	<path fill="none" stroke="#929497" stroke-width="1.5" stroke-linejoin="round" stroke-miterlimit="10" d="M538.1,469.8l37.9-1.4
		c3.1-0.1,5.6,2.4,5.6,5.4v7.7c0,3.3-2.8,5.8-6.1,5.4l-40.2-4.6c-0.7-0.1-1.3-0.7-1.3-1.4v-7.1C534.1,471.7,535.9,469.9,538.1,469.8
		z"/>
</g>
<g opacity="0.45" filter="url(#ds1)">
	<path fill="#D0D2D3" d="M543.9,456l37.9-1.4c3.1-0.1,5.6,2.4,5.6,5.4v7.7c0,3.3-2.8,5.8-6.1,5.4l-40.2-4.6
		c-0.7-0.1-1.3-0.7-1.3-1.4V460C539.9,457.8,541.7,456,543.9,456z"/>
	<path fill="none" stroke="#929497" stroke-width="1.5" stroke-linejoin="round" stroke-miterlimit="10" d="M543.9,456l37.9-1.4
		c3.1-0.1,5.6,2.4,5.6,5.4v7.7c0,3.3-2.8,5.8-6.1,5.4l-40.2-4.6c-0.7-0.1-1.3-0.7-1.3-1.4V460C539.9,457.8,541.7,456,543.9,456z"/>
</g>
<g opacity="0.45" filter="url(#ds1)">
	<path fill="#D0D2D3" d="M537,495.7l37.9-1.4c3.1-0.1,5.6,2.4,5.6,5.4v7.7c0,3.3-2.8,5.8-6.1,5.4l-40.2-4.6
		c-0.7-0.1-1.3-0.7-1.3-1.4v-7.1C533.1,497.6,534.8,495.8,537,495.7z"/>
	<path fill="none" stroke="#929497" stroke-width="1.5" stroke-linejoin="round" stroke-miterlimit="10" d="M537,495.7l37.9-1.4
		c3.1-0.1,5.6,2.4,5.6,5.4v7.7c0,3.3-2.8,5.8-6.1,5.4l-40.2-4.6c-0.7-0.1-1.3-0.7-1.3-1.4v-7.1C533.1,497.6,534.8,495.8,537,495.7z"
		/>
</g>
<g opacity="0.45" filter="url(#ds1)">
	<path fill="#D0D2D3" d="M544.7,482.2l37.9-1.4c3.1-0.1,5.6,2.4,5.6,5.4v7.7c0,3.3-2.8,5.8-6.1,5.4l-40.2-4.6
		c-0.7-0.1-1.3-0.7-1.3-1.4v-7.1C540.7,484,542.5,482.2,544.7,482.2z"/>
	<path fill="none" stroke="#929497" stroke-width="1.5" stroke-linejoin="round" stroke-miterlimit="10" d="M544.7,482.2l37.9-1.4
		c3.1-0.1,5.6,2.4,5.6,5.4v7.7c0,3.3-2.8,5.8-6.1,5.4l-40.2-4.6c-0.7-0.1-1.3-0.7-1.3-1.4v-7.1C540.7,484,542.5,482.2,544.7,482.2z"
		/>
</g>
<g>
	<g filter="url(#ds1)">
		<rect x="678" y="59.3" fill="#FFFFFF" width="62.2" height="27.7"/>
	</g>
	<g>
		<g>
			<path fill="#6D6E70" d="M690.4,78.1h1.4v-8.8h-1.4v-1.2h7.8v2.7h-1.4v-1.3h-3.4v3.7h3.9v1.3h-3.9v3.6h1.5v1.2h-4.5V78.1z"/>
			<path fill="#6D6E70" d="M698.3,78.1h1.1l3.6-10.1h1.8l3.6,10.1h1.1v1.2h-3.9v-1.2h1.2l-0.9-2.5h-4l-0.9,2.5h1.2v1.2h-3.9V78.1z
				 M705.4,74.3l-1.4-3.9c-0.2-0.5-0.2-0.9-0.2-0.9h0c0,0,0,0.4-0.2,0.9l-1.4,3.9H705.4z"/>
			<path fill="#6D6E70" d="M711.9,78.1h1.4v-8.7h-2.7v1.8h-1.4v-3.1h9.7v3.1h-1.4v-1.8h-2.7v8.7h1.4v1.2h-4.5V78.1z"/>
			<path fill="#6D6E70" d="M721.8,76v0.8c0,0.8,1.1,1.3,2.3,1.3c1.3,0,2.2-0.6,2.2-1.7c0-1.3-1.3-1.7-2.7-2.3c-1.5-0.6-3-1.2-3-3.2
				c0-2.1,1.7-3,3.6-3c1.7,0,3.4,0.6,3.4,1.9v1.3h-1.5v-0.8c0-0.7-1-1-1.9-1c-1.1,0-2,0.5-2,1.6c0,1.2,1.1,1.6,2.4,2.1
				c1.7,0.6,3.3,1.3,3.3,3.4c0,2.2-1.8,3.3-3.9,3.3c-1.8,0-3.7-0.8-3.7-2.4V76H721.8z"/>
		</g>
	</g>
</g>
</svg>
