<?xml version="1.0" encoding="utf-8"?>
<!-- Generator: Adobe Illustrator 18.1.1, SVG Export Plug-In . SVG Version: 6.00 Build 0)  -->
<!DOCTYPE svg PUBLIC "-//W3C//DTD SVG 1.1//EN" "http://www.w3.org/Graphics/SVG/1.1/DTD/svg11.dtd">
<svg version="1.1" id="Layer_1" xmlns="http://www.w3.org/2000/svg" xmlns:xlink="http://www.w3.org/1999/xlink" x="0px" y="0px"
	 viewBox="0 0 920 690" enable-background="new 0 0 920 690" xml:space="preserve">
<filter  height="170%" width="170%" id="ds1" y="-20%" x="-30%">
	<feOffset  in="SourceAlpha" result="offOut" dy="1" dx="0"></feOffset>
	<feGaussianBlur  in="offOut" stdDeviation="2" result="blurOut"></feGaussianBlur>
	<feComponentTransfer>
		<feFuncA  type="linear" slope="0.5"></feFuncA>
	</feComponentTransfer>
	<feMerge>
		<feMergeNode></feMergeNode>
		<feMergeNode  in="SourceGraphic"></feMergeNode>
	</feMerge>
</filter>
<g opacity="0.58" filter="url(#ds1)">
	<path fill="#FFFFFF" d="M493.2,215c-1.1-1.8-3-2.9-5.1-3.2c-1.5-0.2-2.8,0.7-4.3-0.1c-1.6-0.8-1.9-1.9-4-3.2
		c-1.6-1-3.6-0.7-5.2,0.2c-2.7,1.5-2.3,3.2-4.4,3c-2-0.2-1.2-3.5-2.3-5.2c-2-3.2-6.2-4.2-9.4-2.2c-3.2,2-4.2,6.2-2.2,9.4
		c0.8,1.3,2,1.9,3.2,2.7c1.2,0.9,1.3,1.7,1.5,3.1c0.2,1.3,0.6,2.4,1.1,3.6c0.9,2.1,0,3.5-0.5,5.5c-0.5,1.8-0.2,3.9,0.8,5.5
		c1,1.6,2.8,2.8,4.7,3.1c1.2,0.2,2.6,0.1,3.8,0.7c1.2,0.7,1.8,2.1,2.8,3c2.2,2,5.6,2.2,8.1,0.7c1.6-1,2.1-3,3.6-4.1
		c1.7-1.3,4.1-0.7,6-1.9c2-1.3,3.3-3.6,3.2-6c-0.1-2.5-2.5-4.4-1.7-6.9C493.9,220,495,217.9,493.2,215z"/>
</g>
<g opacity="0.58" filter="url(#ds1)">
	<path fill="#FFFFFF" d="M357.4,268.3c-1.6,0.7-3.1,2-3.8,3.3c-0.9,1.8-0.8,4,0.1,5.8c0.8,1.6,2.3,3.5,0.7,5.1
		c-0.9,0.9-2,1.5-2.9,2.4c-0.9,0.9-1.3,1.9-1.8,3.1c-0.3,0.8-0.8,1.2-1.7,1.2c-1.2,0-2.4-0.8-3.5-1.1c-1.3-0.4-2.5-0.3-3.8,0.1
		c-4,1.2-6.4,6.2-3.9,9.8c1.3,1.9,3.6,3,5.8,3.5c1,0.3,1.9,0,2.9,0.3c1,0.3,1.9,0.8,2.7,1.5c0.5,0.4,1,0.8,1.5,1.1
		c1.3,0.7,3.1,1.2,4.6,1.2c1.6-0.1,2.9,0.1,4.2,1.1c1,0.8,1.9,2.1,3.2,2.5c2.6,0.9,5.6,0,7.3-2c1.2-1.4,1.2-3.5,2.2-5
		c1.3-1.7,3.7-1.9,5.1-3.6c1.6-1.8,2.1-4.4,1.3-6.7c-0.7-1.9-2.4-3.1-3.7-4.7c-1.5-1.8-1.1-3.8-2.2-5.6c-0.4-0.7-0.9-1.2-1.5-1.6
		c-1.2-1-2.4-2-2.8-3.6c-0.8-4-2.4-7.7-6.8-8.6C359.7,267.5,358.5,267.8,357.4,268.3z"/>
</g>
<g opacity="0.58" filter="url(#ds1)">
	<path fill="#FFFFFF" d="M376.1,210.1c-0.6-1.7-1.7-3.3-3-4.1c-1.7-1.1-3.9-1.2-5.7-0.5c-1.6,0.6-3.7,2-5.2,0.2
		c-0.8-1-1.3-2.2-2.2-3.1c-0.8-0.9-1.8-1.5-2.9-2.1c-0.8-0.4-1.1-0.9-1-1.8c0.1-1.2,1-2.3,1.4-3.4c0.5-1.3,0.5-2.5,0.3-3.8
		c-0.8-4.1-5.6-6.9-9.4-4.8c-2,1.1-3.3,3.4-4,5.4c-0.3,1-0.2,1.9-0.6,2.9c-0.4,1-1,1.8-1.7,2.6c-0.5,0.5-0.9,0.9-1.2,1.4
		c-0.8,1.2-1.5,3-1.6,4.5c-0.1,1.6-0.3,2.9-1.5,4.1c-0.9,0.9-2.2,1.7-2.8,2.9c-1.1,2.5-0.5,5.5,1.3,7.5c1.3,1.3,3.4,1.5,4.8,2.7
		c1.6,1.4,1.6,3.9,3.1,5.4c1.7,1.7,4.2,2.5,6.6,1.9c1.9-0.5,3.3-2.1,5-3.2c1.9-1.3,3.9-0.7,5.8-1.7c0.7-0.3,1.3-0.8,1.8-1.3
		c1.1-1.1,2.2-2.3,3.8-2.4c4.1-0.4,7.9-1.6,9.2-5.9C376.6,212.5,376.5,211.2,376.1,210.1z"/>
</g>
<g opacity="0.45" filter="url(#ds1)">
	<path fill="#E96667" d="M419.6,278.3c-1.3-1.6-3.3-2.6-5.4-2.7c-1.5,0-2.7,1-4.3,0.4c-1.6-0.6-2-1.7-4.3-2.8
		c-1.7-0.8-3.6-0.3-5.2,0.7c-2.5,1.7-1.9,3.4-4.1,3.4c-2,0-1.6-3.4-2.8-5c-2.3-3-6.6-3.5-9.6-1.2c-3,2.3-3.5,6.6-1.2,9.6
		c1,1.3,2.2,1.7,3.5,2.4c1.3,0.7,1.5,1.5,1.8,2.9c0.3,1.3,0.9,2.4,1.5,3.5c1.1,2,0.4,3.5,0,5.5c-0.3,1.9,0.1,3.9,1.3,5.4
		c1.2,1.5,3,2.5,5,2.6c1.2,0.1,2.6-0.2,3.8,0.3c1.2,0.6,2,1.9,3.1,2.7c2.4,1.7,5.8,1.7,8.1-0.1c1.5-1.1,1.8-3.2,3.2-4.5
		c1.6-1.5,4-1.1,5.7-2.4c1.9-1.5,2.9-3.9,2.6-6.3c-0.3-2.4-3-4.1-2.4-6.7C420.8,283.2,421.7,281,419.6,278.3z"/>
	<path fill="none" stroke="#B4474C" stroke-width="1.489" stroke-miterlimit="10" d="M419.6,278.3c-1.3-1.6-3.3-2.6-5.4-2.7
		c-1.5,0-2.7,1-4.3,0.4c-1.6-0.6-2-1.7-4.3-2.8c-1.7-0.8-3.6-0.3-5.2,0.7c-2.5,1.7-1.9,3.4-4.1,3.4c-2,0-1.6-3.4-2.8-5
		c-2.3-3-6.6-3.5-9.6-1.2c-3,2.3-3.5,6.6-1.2,9.6c1,1.3,2.2,1.7,3.5,2.4c1.3,0.7,1.5,1.5,1.8,2.9c0.3,1.3,0.9,2.4,1.5,3.5
		c1.1,2,0.4,3.5,0,5.5c-0.3,1.9,0.1,3.9,1.3,5.4c1.2,1.5,3,2.5,5,2.6c1.2,0.1,2.6-0.2,3.8,0.3c1.2,0.6,2,1.9,3.1,2.7
		c2.4,1.7,5.8,1.7,8.1-0.1c1.5-1.1,1.8-3.2,3.2-4.5c1.6-1.5,4-1.1,5.7-2.4c1.9-1.5,2.9-3.9,2.6-6.3c-0.3-2.4-3-4.1-2.4-6.7
		C420.8,283.2,421.7,281,419.6,278.3z"/>
</g>
<g opacity="0.45" filter="url(#ds1)">
	<path fill="#E96667" d="M507.4,266.3c-0.7-1.9-2.4-3.5-4.4-4.1c-1.5-0.4-2.9,0.1-4.2-0.9c-1.4-1.1-1.5-2.2-3.3-3.9
		c-1.4-1.2-3.4-1.3-5.2-0.8c-2.9,0.9-2.8,2.7-4.9,2.1c-1.9-0.6-0.5-3.7-1.3-5.5c-1.4-3.5-5.3-5.3-8.8-3.9c-3.5,1.4-5.3,5.3-3.9,8.8
		c0.6,1.5,1.6,2.2,2.6,3.3c1,1.1,1,1.9,0.9,3.3c-0.1,1.3,0.1,2.5,0.4,3.8c0.5,2.2-0.6,3.4-1.6,5.3c-0.9,1.7-1,3.7-0.3,5.5
		c0.7,1.8,2.2,3.3,4,3.9c1.2,0.4,2.6,0.6,3.5,1.4c1,0.9,1.4,2.4,2.2,3.5c1.8,2.4,5.1,3.3,7.8,2.2c1.7-0.7,2.7-2.5,4.4-3.4
		c1.9-0.9,4.2,0.1,6.2-0.7c2.3-0.9,3.9-2.9,4.3-5.3c0.4-2.4-1.7-4.8-0.3-7.1C507.1,271.3,508.6,269.4,507.4,266.3z"/>
	<path fill="none" stroke="#B4474C" stroke-width="1.489" stroke-miterlimit="10" d="M507.4,266.3c-0.7-1.9-2.4-3.5-4.4-4.1
		c-1.5-0.4-2.9,0.1-4.2-0.9c-1.4-1.1-1.5-2.2-3.3-3.9c-1.4-1.2-3.4-1.3-5.2-0.8c-2.9,0.9-2.8,2.7-4.9,2.1c-1.9-0.6-0.5-3.7-1.3-5.5
		c-1.4-3.5-5.3-5.3-8.8-3.9c-3.5,1.4-5.3,5.3-3.9,8.8c0.6,1.5,1.6,2.2,2.6,3.3c1,1.1,1,1.9,0.9,3.3c-0.1,1.3,0.1,2.5,0.4,3.8
		c0.5,2.2-0.6,3.4-1.6,5.3c-0.9,1.7-1,3.7-0.3,5.5c0.7,1.8,2.2,3.3,4,3.9c1.2,0.4,2.6,0.6,3.5,1.4c1,0.9,1.4,2.4,2.2,3.5
		c1.8,2.4,5.1,3.3,7.8,2.2c1.7-0.7,2.7-2.5,4.4-3.4c1.9-0.9,4.2,0.1,6.2-0.7c2.3-0.9,3.9-2.9,4.3-5.3c0.4-2.4-1.7-4.8-0.3-7.1
		C507.1,271.3,508.6,269.4,507.4,266.3z"/>
</g>
<g filter="url(#ds1)">
	<path fill="#E96667" d="M475.6,176.7c-1.1-1.8-3-2.9-5.1-3.2c-1.5-0.2-2.8,0.7-4.3-0.1c-1.6-0.8-1.9-1.9-4-3.2
		c-1.6-1-3.6-0.7-5.2,0.2c-2.7,1.5-2.3,3.2-4.4,3c-2-0.2-1.2-3.5-2.3-5.2c-2-3.2-6.2-4.2-9.4-2.2c-3.2,2-4.2,6.2-2.2,9.4
		c0.8,1.3,2,1.9,3.2,2.7c1.2,0.9,1.3,1.7,1.5,3.1c0.2,1.3,0.6,2.4,1.1,3.6c0.9,2.1,0,3.5-0.5,5.5c-0.5,1.8-0.2,3.9,0.8,5.5
		c1,1.6,2.8,2.8,4.7,3.1c1.2,0.2,2.6,0.1,3.8,0.7c1.2,0.7,1.8,2.1,2.8,3c2.2,2,5.6,2.2,8.1,0.7c1.6-1,2.1-3,3.6-4.1
		c1.7-1.3,4.1-0.7,6-1.9c2-1.3,3.3-3.6,3.2-6c-0.1-2.5-2.5-4.4-1.7-6.9C476.3,181.7,477.4,179.6,475.6,176.7z"/>
	<path fill="none" stroke="#B4474C" stroke-width="1.489" stroke-miterlimit="10" d="M475.6,176.7c-1.1-1.8-3-2.9-5.1-3.2
		c-1.5-0.2-2.8,0.7-4.3-0.1c-1.6-0.8-1.9-1.9-4-3.2c-1.6-1-3.6-0.7-5.2,0.2c-2.7,1.5-2.3,3.2-4.4,3c-2-0.2-1.2-3.5-2.3-5.2
		c-2-3.2-6.2-4.2-9.4-2.2c-3.2,2-4.2,6.2-2.2,9.4c0.8,1.3,2,1.9,3.2,2.7c1.2,0.9,1.3,1.7,1.5,3.1c0.2,1.3,0.6,2.4,1.1,3.6
		c0.9,2.1,0,3.5-0.5,5.5c-0.5,1.8-0.2,3.9,0.8,5.5c1,1.6,2.8,2.8,4.7,3.1c1.2,0.2,2.6,0.1,3.8,0.7c1.2,0.7,1.8,2.1,2.8,3
		c2.2,2,5.6,2.2,8.1,0.7c1.6-1,2.1-3,3.6-4.1c1.7-1.3,4.1-0.7,6-1.9c2-1.3,3.3-3.6,3.2-6c-0.1-2.5-2.5-4.4-1.7-6.9
		C476.3,181.7,477.4,179.6,475.6,176.7z"/>
</g>
<g filter="url(#ds1)">
	<path fill="#E96667" d="M315.6,273.1c-2-0.5-4.2-0.1-5.9,1.2c-1.2,0.9-1.6,2.4-3.2,2.9c-1.7,0.5-2.6-0.1-5.1,0.4
		c-1.8,0.4-3.1,2-3.6,3.7c-0.9,2.9,0.5,3.9-1.2,5.2c-1.6,1.2-3.3-1.7-5.2-2.2c-3.6-1-7.4,1.2-8.3,4.9c-1,3.6,1.2,7.4,4.9,8.3
		c1.5,0.4,2.7,0,4.2-0.2c1.5-0.2,2.1,0.3,3.2,1.2c1,0.8,2.1,1.4,3.3,1.8c2.1,0.9,2.4,2.5,3.4,4.4c0.9,1.7,2.5,3,4.3,3.5
		c1.9,0.5,3.9,0.1,5.5-0.9c1-0.7,2-1.8,3.2-2.1c1.3-0.3,2.8,0.3,4.1,0.2c3-0.1,5.6-2.2,6.4-5.1c0.5-1.8-0.5-3.7-0.2-5.5
		c0.4-2.1,2.5-3.3,3-5.5c0.6-2.3-0.1-4.9-1.8-6.6c-1.8-1.7-4.9-1.4-6-3.9C319.5,276.2,318.9,273.9,315.6,273.1z"/>
	<path fill="none" stroke="#B4474C" stroke-width="1.489" stroke-miterlimit="10" d="M315.6,273.1c-2-0.5-4.2-0.1-5.9,1.2
		c-1.2,0.9-1.6,2.4-3.2,2.9c-1.7,0.5-2.6-0.1-5.1,0.4c-1.8,0.4-3.1,2-3.6,3.7c-0.9,2.9,0.5,3.9-1.2,5.2c-1.6,1.2-3.3-1.7-5.2-2.2
		c-3.6-1-7.4,1.2-8.3,4.9c-1,3.6,1.2,7.4,4.9,8.3c1.5,0.4,2.7,0,4.2-0.2c1.5-0.2,2.1,0.3,3.2,1.2c1,0.8,2.1,1.4,3.3,1.8
		c2.1,0.9,2.4,2.5,3.4,4.4c0.9,1.7,2.5,3,4.3,3.5c1.9,0.5,3.9,0.1,5.5-0.9c1-0.7,2-1.8,3.2-2.1c1.3-0.3,2.8,0.3,4.1,0.2
		c3-0.1,5.6-2.2,6.4-5.1c0.5-1.8-0.5-3.7-0.2-5.5c0.4-2.1,2.5-3.3,3-5.5c0.6-2.3-0.1-4.9-1.8-6.6c-1.8-1.7-4.9-1.4-6-3.9
		C319.5,276.2,318.9,273.9,315.6,273.1z"/>
</g>
<g opacity="0.45" filter="url(#ds1)">
	<path fill="#E96667" d="M317.6,261.8c1.6,1.3,3.8,1.9,5.8,1.4c1.5-0.3,2.5-1.5,4.1-1.3c1.7,0.3,2.3,1.2,4.8,1.8
		c1.8,0.4,3.6-0.5,4.9-1.8c2.1-2.3,1.2-3.7,3.3-4.2c1.9-0.4,2.3,3,3.8,4.2c2.9,2.4,7.2,2,9.6-0.9c2.4-2.9,2-7.2-0.9-9.6
		c-1.2-1-2.5-1.2-3.9-1.6c-1.4-0.4-1.8-1.2-2.4-2.5c-0.5-1.2-1.4-2.1-2.2-3.1c-1.5-1.7-1.1-3.3-1.2-5.4c-0.1-1.9-1-3.8-2.4-5
		c-1.5-1.2-3.5-1.8-5.4-1.5c-1.2,0.2-2.5,0.7-3.8,0.5c-1.3-0.3-2.4-1.4-3.6-2c-2.7-1.2-6-0.4-7.9,1.9c-1.2,1.4-1.1,3.5-2.2,5
		c-1.2,1.8-3.7,1.9-5.1,3.6c-1.5,1.9-2,4.4-1.2,6.7c0.8,2.3,3.8,3.4,3.8,6.1C315.4,257.3,315,259.7,317.6,261.8z"/>
	<path fill="none" stroke="#B4474C" stroke-width="1.489" stroke-miterlimit="10" d="M317.6,261.8c1.6,1.3,3.8,1.9,5.8,1.4
		c1.5-0.3,2.5-1.5,4.1-1.3c1.7,0.3,2.3,1.2,4.8,1.8c1.8,0.4,3.6-0.5,4.9-1.8c2.1-2.3,1.2-3.7,3.3-4.2c1.9-0.4,2.3,3,3.8,4.2
		c2.9,2.4,7.2,2,9.6-0.9c2.4-2.9,2-7.2-0.9-9.6c-1.2-1-2.5-1.2-3.9-1.6c-1.4-0.4-1.8-1.2-2.4-2.5c-0.5-1.2-1.4-2.1-2.2-3.1
		c-1.5-1.7-1.1-3.3-1.2-5.4c-0.1-1.9-1-3.8-2.4-5c-1.5-1.2-3.5-1.8-5.4-1.5c-1.2,0.2-2.5,0.7-3.8,0.5c-1.3-0.3-2.4-1.4-3.6-2
		c-2.7-1.2-6-0.4-7.9,1.9c-1.2,1.4-1.1,3.5-2.2,5c-1.2,1.8-3.7,1.9-5.1,3.6c-1.5,1.9-2,4.4-1.2,6.7c0.8,2.3,3.8,3.4,3.8,6.1
		C315.4,257.3,315,259.7,317.6,261.8z"/>
</g>
<g filter="url(#ds1)">
	<path fill="#E96667" d="M320.8,218.8c1.3-1.6,1.7-3.8,1.2-5.8c-0.4-1.5-1.6-2.4-1.4-4.1c0.2-1.7,1.1-2.4,1.6-4.8
		c0.4-1.8-0.6-3.6-2-4.8c-2.3-2-3.8-1-4.3-3.1c-0.5-1.9,2.9-2.4,4.1-3.9c2.3-3,1.8-7.3-1.2-9.6c-3-2.3-7.3-1.8-9.6,1.2
		c-1,1.3-1.1,2.5-1.5,4c-0.4,1.4-1.1,1.8-2.4,2.5c-1.1,0.6-2.1,1.4-3,2.3c-1.6,1.6-3.3,1.2-5.3,1.4c-1.9,0.1-3.7,1.1-4.9,2.6
		c-1.2,1.5-1.7,3.5-1.3,5.5c0.2,1.2,0.8,2.5,0.6,3.8c-0.2,1.3-1.3,2.4-1.8,3.7c-1.1,2.8-0.2,6,2.2,7.9c1.5,1.1,3.6,1,5.1,2
		c1.8,1.2,2.1,3.6,3.8,5c1.9,1.5,4.5,1.9,6.7,1c2.3-0.9,3.2-3.9,5.9-4C316.4,221.1,318.8,221.5,320.8,218.8z"/>
	<path fill="none" stroke="#B4474C" stroke-width="1.489" stroke-miterlimit="10" d="M320.8,218.8c1.3-1.6,1.7-3.8,1.2-5.8
		c-0.4-1.5-1.6-2.4-1.4-4.1c0.2-1.7,1.1-2.4,1.6-4.8c0.4-1.8-0.6-3.6-2-4.8c-2.3-2-3.8-1-4.3-3.1c-0.5-1.9,2.9-2.4,4.1-3.9
		c2.3-3,1.8-7.3-1.2-9.6c-3-2.3-7.3-1.8-9.6,1.2c-1,1.3-1.1,2.5-1.5,4c-0.4,1.4-1.1,1.8-2.4,2.5c-1.1,0.6-2.1,1.4-3,2.3
		c-1.6,1.6-3.3,1.2-5.3,1.4c-1.9,0.1-3.7,1.1-4.9,2.6c-1.2,1.5-1.7,3.5-1.3,5.5c0.2,1.2,0.8,2.5,0.6,3.8c-0.2,1.3-1.3,2.4-1.8,3.7
		c-1.1,2.8-0.2,6,2.2,7.9c1.5,1.1,3.6,1,5.1,2c1.8,1.2,2.1,3.6,3.8,5c1.9,1.5,4.5,1.9,6.7,1c2.3-0.9,3.2-3.9,5.9-4
		C316.4,221.1,318.8,221.5,320.8,218.8z"/>
</g>
<g opacity="0.45" filter="url(#ds1)">
	<path fill="#E96667" d="M373.3,258.1c1.6,1.3,3.8,1.9,5.8,1.4c1.5-0.3,2.5-1.5,4.1-1.3c1.7,0.3,2.3,1.2,4.8,1.8
		c1.8,0.4,3.6-0.5,4.9-1.8c2.1-2.3,1.2-3.7,3.3-4.2c1.9-0.4,2.3,3,3.8,4.2c2.9,2.4,7.2,2,9.6-0.9c2.4-2.9,2-7.2-0.9-9.6
		c-1.2-1-2.5-1.2-3.9-1.6c-1.4-0.4-1.8-1.2-2.4-2.5c-0.5-1.2-1.4-2.1-2.2-3.1c-1.5-1.7-1.1-3.3-1.2-5.4c-0.1-1.9-1-3.8-2.4-5
		c-1.5-1.2-3.5-1.8-5.4-1.5c-1.2,0.2-2.5,0.7-3.8,0.5c-1.3-0.3-2.4-1.4-3.6-2c-2.7-1.2-6-0.4-7.9,1.9c-1.2,1.4-1.1,3.5-2.2,5
		c-1.2,1.8-3.7,1.9-5.1,3.6c-1.5,1.9-2,4.4-1.2,6.7c0.8,2.3,3.8,3.4,3.8,6.1C371.1,253.6,370.8,256,373.3,258.1z"/>
	<path fill="none" stroke="#B4474C" stroke-width="1.489" stroke-miterlimit="10" d="M373.3,258.1c1.6,1.3,3.8,1.9,5.8,1.4
		c1.5-0.3,2.5-1.5,4.1-1.3c1.7,0.3,2.3,1.2,4.8,1.8c1.8,0.4,3.6-0.5,4.9-1.8c2.1-2.3,1.2-3.7,3.3-4.2c1.9-0.4,2.3,3,3.8,4.2
		c2.9,2.4,7.2,2,9.6-0.9c2.4-2.9,2-7.2-0.9-9.6c-1.2-1-2.5-1.2-3.9-1.6c-1.4-0.4-1.8-1.2-2.4-2.5c-0.5-1.2-1.4-2.1-2.2-3.1
		c-1.5-1.7-1.1-3.3-1.2-5.4c-0.1-1.9-1-3.8-2.4-5c-1.5-1.2-3.5-1.8-5.4-1.5c-1.2,0.2-2.5,0.7-3.8,0.5c-1.3-0.3-2.4-1.4-3.6-2
		c-2.7-1.2-6-0.4-7.9,1.9c-1.2,1.4-1.1,3.5-2.2,5c-1.2,1.8-3.7,1.9-5.1,3.6c-1.5,1.9-2,4.4-1.2,6.7c0.8,2.3,3.8,3.4,3.8,6.1
		C371.1,253.6,370.8,256,373.3,258.1z"/>
</g>
<g opacity="0.45" filter="url(#ds1)">
	<path fill="#E96667" d="M437.1,229.2c-2.1,0.2-4,1.4-5.1,3.2c-0.8,1.3-0.6,2.8-1.9,3.9c-1.4,1.1-2.5,0.9-4.6,2.2
		c-1.6,1-2.2,3-2.1,4.8c0.2,3.1,1.9,3.4,0.7,5.3c-1,1.7-3.7-0.4-5.7-0.2c-3.7,0.4-6.5,3.8-6.1,7.5c0.4,3.7,3.8,6.5,7.5,6.1
		c1.6-0.2,2.6-1,3.9-1.7c1.3-0.7,2.1-0.5,3.4,0c1.2,0.4,2.5,0.5,3.8,0.6c2.2,0.1,3.2,1.5,4.7,2.9c1.4,1.3,3.4,1.9,5.3,1.7
		c1.9-0.2,3.7-1.3,4.8-2.8c0.7-1,1.2-2.3,2.3-3.1c1.1-0.8,2.7-0.7,3.9-1.3c2.7-1.2,4.5-4.1,4.1-7c-0.2-1.8-1.8-3.2-2.1-5.1
		c-0.4-2.1,1.1-4,0.9-6.2c-0.3-2.4-1.8-4.5-4-5.5c-2.3-1-5.1,0.4-7-1.5C441.8,230.7,440.4,228.8,437.1,229.2z"/>
	<path fill="none" stroke="#B4474C" stroke-width="1.489" stroke-miterlimit="10" d="M437.1,229.2c-2.1,0.2-4,1.4-5.1,3.2
		c-0.8,1.3-0.6,2.8-1.9,3.9c-1.4,1.1-2.5,0.9-4.6,2.2c-1.6,1-2.2,3-2.1,4.8c0.2,3.1,1.9,3.4,0.7,5.3c-1,1.7-3.7-0.4-5.7-0.2
		c-3.7,0.4-6.5,3.8-6.1,7.5c0.4,3.7,3.8,6.5,7.5,6.1c1.6-0.2,2.6-1,3.9-1.7c1.3-0.7,2.1-0.5,3.4,0c1.2,0.4,2.5,0.5,3.8,0.6
		c2.2,0.1,3.2,1.5,4.7,2.9c1.4,1.3,3.4,1.9,5.3,1.7c1.9-0.2,3.7-1.3,4.8-2.8c0.7-1,1.2-2.3,2.3-3.1c1.1-0.8,2.7-0.7,3.9-1.3
		c2.7-1.2,4.5-4.1,4.1-7c-0.2-1.8-1.8-3.2-2.1-5.1c-0.4-2.1,1.1-4,0.9-6.2c-0.3-2.4-1.8-4.5-4-5.5c-2.3-1-5.1,0.4-7-1.5
		C441.8,230.7,440.4,228.8,437.1,229.2z"/>
</g>
<g opacity="0.45" filter="url(#ds1)">
	<path fill="#E96667" d="M460.5,302.1c1.6-1.4,2.5-3.4,2.4-5.5c-0.1-1.5-1.1-2.7-0.6-4.3c0.5-1.7,1.6-2.1,2.5-4.4
		c0.7-1.7,0.1-3.7-1-5.1c-1.9-2.4-3.5-1.7-3.6-3.9c-0.1-2,3.3-1.8,4.8-3.1c2.8-2.5,3.2-6.8,0.7-9.6c-2.5-2.8-6.8-3.2-9.6-0.7
		c-1.2,1-1.6,2.2-2.2,3.6c-0.7,1.3-1.4,1.6-2.8,2c-1.2,0.4-2.3,1-3.4,1.7c-1.9,1.2-3.4,0.6-5.5,0.3c-1.9-0.2-3.9,0.3-5.3,1.6
		c-1.5,1.3-2.3,3.1-2.4,5.1c0,1.2,0.3,2.6-0.1,3.8c-0.5,1.3-1.8,2.1-2.5,3.3c-1.6,2.5-1.4,5.9,0.6,8.1c1.2,1.4,3.3,1.7,4.6,3
		c1.5,1.5,1.3,3.9,2.8,5.6c1.6,1.8,4.1,2.7,6.4,2.2c2.4-0.5,3.9-3.2,6.6-2.7C455.7,303.6,458,304.3,460.5,302.1z"/>
	<path fill="none" stroke="#B4474C" stroke-width="1.489" stroke-miterlimit="10" d="M460.5,302.1c1.6-1.4,2.5-3.4,2.4-5.5
		c-0.1-1.5-1.1-2.7-0.6-4.3c0.5-1.7,1.6-2.1,2.5-4.4c0.7-1.7,0.1-3.7-1-5.1c-1.9-2.4-3.5-1.7-3.6-3.9c-0.1-2,3.3-1.8,4.8-3.1
		c2.8-2.5,3.2-6.8,0.7-9.6c-2.5-2.8-6.8-3.2-9.6-0.7c-1.2,1-1.6,2.2-2.2,3.6c-0.7,1.3-1.4,1.6-2.8,2c-1.2,0.4-2.3,1-3.4,1.7
		c-1.9,1.2-3.4,0.6-5.5,0.3c-1.9-0.2-3.9,0.3-5.3,1.6c-1.5,1.3-2.3,3.1-2.4,5.1c0,1.2,0.3,2.6-0.1,3.8c-0.5,1.3-1.8,2.1-2.5,3.3
		c-1.6,2.5-1.4,5.9,0.6,8.1c1.2,1.4,3.3,1.7,4.6,3c1.5,1.5,1.3,3.9,2.8,5.6c1.6,1.8,4.1,2.7,6.4,2.2c2.4-0.5,3.9-3.2,6.6-2.7
		C455.7,303.6,458,304.3,460.5,302.1z"/>
</g>
<g opacity="0.45" filter="url(#ds1)">
	<path fill="#E96667" d="M412.3,228c2,0.6,4.2,0.2,5.9-1c1.2-0.9,1.6-2.4,3.3-2.8c1.7-0.4,2.6,0.2,5.1-0.3c1.8-0.3,3.1-1.9,3.7-3.6
		c1-2.9-0.4-3.9,1.3-5.1c1.6-1.1,3.3,1.8,5.2,2.4c3.6,1.1,7.4-1,8.5-4.6c1.1-3.6-1-7.4-4.6-8.5c-1.5-0.4-2.7-0.1-4.2,0.1
		c-1.5,0.2-2.1-0.4-3.2-1.3c-1-0.8-2.1-1.4-3.3-1.9c-2-0.9-2.3-2.6-3.2-4.5c-0.8-1.7-2.4-3.1-4.2-3.6c-1.9-0.5-3.9-0.3-5.6,0.8
		c-1,0.7-2,1.7-3.3,2c-1.3,0.3-2.8-0.4-4.1-0.4c-3,0-5.7,2-6.5,4.9c-0.5,1.8,0.4,3.7,0,5.5c-0.4,2.1-2.6,3.3-3.2,5.4
		c-0.7,2.3-0.1,4.9,1.6,6.6c1.7,1.8,4.8,1.6,5.9,4.1C408.5,224.8,409,227.1,412.3,228z"/>
	<path fill="none" stroke="#B4474C" stroke-width="1.489" stroke-miterlimit="10" d="M412.3,228c2,0.6,4.2,0.2,5.9-1
		c1.2-0.9,1.6-2.4,3.3-2.8c1.7-0.4,2.6,0.2,5.1-0.3c1.8-0.3,3.1-1.9,3.7-3.6c1-2.9-0.4-3.9,1.3-5.1c1.6-1.1,3.3,1.8,5.2,2.4
		c3.6,1.1,7.4-1,8.5-4.6c1.1-3.6-1-7.4-4.6-8.5c-1.5-0.4-2.7-0.1-4.2,0.1c-1.5,0.2-2.1-0.4-3.2-1.3c-1-0.8-2.1-1.4-3.3-1.9
		c-2-0.9-2.3-2.6-3.2-4.5c-0.8-1.7-2.4-3.1-4.2-3.6c-1.9-0.5-3.9-0.3-5.6,0.8c-1,0.7-2,1.7-3.3,2c-1.3,0.3-2.8-0.4-4.1-0.4
		c-3,0-5.7,2-6.5,4.9c-0.5,1.8,0.4,3.7,0,5.5c-0.4,2.1-2.6,3.3-3.2,5.4c-0.7,2.3-0.1,4.9,1.6,6.6c1.7,1.8,4.8,1.6,5.9,4.1
		C408.5,224.8,409,227.1,412.3,228z"/>
</g>
<g>
	<g filter="url(#ds1)">
		<rect x="355.7" y="254.4" fill="#FFFFFF" width="105.7" height="27.7"/>
	</g>
	<g>
		<g>
			<path fill="#6D6E70" d="M375.8,263c2,0,4.3,0.8,4.3,2.2v1.4h-1.5v-0.8c0-0.9-1.5-1.4-2.8-1.4c-2.6,0-4.3,1.8-4.3,4.4
				c0,2.6,1.7,4.5,4.4,4.5c1,0,3-0.3,3-1.4v-1.5h-2.2v-1.2h3.7v3.2c0,1.7-2.9,2.4-4.6,2.4c-3.5,0-5.9-2.5-5.9-5.9
				C369.9,265.4,372.3,263,375.8,263z"/>
			<path fill="#6D6E70" d="M382.3,273.2h1.4v-8.7h-1.4v-1.3h4.4v1.3h-1.4v8.7h3.9v-1.8h1.4v3.1h-8.4V273.2z"/>
			<path fill="#6D6E70" d="M392.8,264.4h-1.4v-1.2h4.5v1.2h-1.4v5.8c0,0.7,0.1,1.4,0.4,1.8c0.5,0.7,1.3,1.2,2.4,1.2
				c1.1,0,2-0.4,2.4-1.2c0.3-0.5,0.4-1.1,0.4-1.8v-5.8h-1.4v-1.2h4.4v1.2h-1.4v5.9c0,1.1-0.3,2-0.8,2.8c-0.8,1.1-2.1,1.6-3.7,1.6
				c-1.6,0-2.9-0.6-3.7-1.6c-0.5-0.7-0.8-1.7-0.8-2.8V264.4z"/>
			<path fill="#6D6E70" d="M410.1,263c1.4,0,4.3,0.5,4.3,2.2v1.4h-1.5v-0.9c0-1-1.7-1.4-2.8-1.4c-2.4,0-4.2,1.8-4.2,4.3
				c0,2.7,1.8,4.6,4.3,4.6c0.8,0,2.8-0.3,2.8-1.3V271h1.5v1.4c0,1.7-2.8,2.2-4.4,2.2c-3.4,0-5.8-2.6-5.8-5.9
				C404.3,265.4,406.8,263,410.1,263z"/>
			<path fill="#6D6E70" d="M422,263c3.3,0,5.8,2.5,5.8,5.8c0,3.3-2.5,5.9-5.8,5.9c-3.3,0-5.8-2.6-5.8-5.9
				C416.2,265.5,418.7,263,422,263z M422,273.2c2.3,0,4.1-2,4.1-4.5c0-2.5-1.9-4.4-4.1-4.4c-2.3,0-4.2,1.9-4.2,4.4
				C417.8,271.3,419.7,273.2,422,273.2z"/>
			<path fill="#6D6E70" d="M430.9,271.1v0.8c0,0.8,1.1,1.3,2.3,1.3c1.3,0,2.2-0.6,2.2-1.7c0-1.3-1.3-1.7-2.7-2.3
				c-1.5-0.6-3-1.2-3-3.2c0-2.1,1.7-3,3.6-3c1.7,0,3.4,0.6,3.4,1.9v1.3h-1.5v-0.8c0-0.7-1-1-1.9-1c-1.1,0-2,0.5-2,1.6
				c0,1.2,1.1,1.6,2.4,2.1c1.7,0.6,3.3,1.3,3.3,3.4c0,2.2-1.8,3.3-3.9,3.3c-1.8,0-3.7-0.8-3.7-2.4v-1.2H430.9z"/>
			<path fill="#6D6E70" d="M438.7,273.2h1.4v-8.8h-1.4v-1.2h8.2v2.6h-1.4v-1.3h-3.8v3.6h4v1.3h-4v3.7h4v-1.4h1.4v2.7h-8.5V273.2z"/>
		</g>
	</g>
</g>
<g>
	<g opacity="0.5">
		<path fill="none" stroke="#000000" stroke-width="2" stroke-miterlimit="10" d="M352.5,211.6c-0.9-9.5-10.1-14.3-20.1-11.7"/>
		<polygon points="324.8,203.6 333.7,194.3 333.1,199.9 337.7,203.2 		"/>
	</g>
	<g>
		<g>
			<path fill="none" stroke="#FFFFFF" stroke-width="2" stroke-miterlimit="10" d="M351.5,210.6c-0.9-9.5-10.1-14.3-20.1-11.7"/>
			<g>
				<polygon fill="#FFFFFF" points="323.8,202.6 332.7,193.3 332.1,198.9 336.7,202.2 				"/>
			</g>
		</g>
	</g>
</g>
<g>
	<g opacity="0.5">
		<path fill="none" stroke="#000000" stroke-width="2" stroke-miterlimit="10" d="M362,292.1c-1.2-9.2-10.9-17-24.4-13.2"/>
		<polygon points="329.7,282.2 339,273.2 338.2,278.8 342.6,282.2 		"/>
	</g>
	<g>
		<g>
			<path fill="none" stroke="#FFFFFF" stroke-width="2" stroke-miterlimit="10" d="M361,291.1c-1.2-9.2-10.9-17-24.4-13.2"/>
			<g>
				<polygon fill="#FFFFFF" points="328.7,281.2 338,272.2 337.2,277.8 341.6,281.2 				"/>
			</g>
		</g>
	</g>
</g>
<g>
	<g opacity="0.5">
		<path fill="none" stroke="#000000" stroke-width="2" stroke-miterlimit="10" d="M481.8,224.7c9.2-1.9,15.8-16.5,5.9-26.1"/>
		<polygon points="480.6,194 493.2,196.7 488.1,199.1 487.7,204.7 		"/>
	</g>
	<g>
		<g>
			<path fill="none" stroke="#FFFFFF" stroke-width="2" stroke-miterlimit="10" d="M480.8,223.7c9.2-1.9,15.8-16.5,5.9-26.1"/>
			<g>
				<polygon fill="#FFFFFF" points="479.6,193 492.2,195.7 487.1,198.1 486.7,203.7 				"/>
			</g>
		</g>
	</g>
</g>
</svg>
