<?xml version="1.0" encoding="utf-8"?>
<!-- Generator: Adobe Illustrator 18.1.1, SVG Export Plug-In . SVG Version: 6.00 Build 0)  -->
<!DOCTYPE svg PUBLIC "-//W3C//DTD SVG 1.1//EN" "http://www.w3.org/Graphics/SVG/1.1/DTD/svg11.dtd">
<svg version="1.1" id="Layer_1" xmlns="http://www.w3.org/2000/svg" xmlns:xlink="http://www.w3.org/1999/xlink" x="0px" y="0px"
	 viewBox="0 0 920 690" enable-background="new 0 0 920 690" xml:space="preserve">
<linearGradient id="SVGID_1_" gradientUnits="userSpaceOnUse" x1="425.8094" y1="-5.1941" x2="489.0463" y2="642.5042">
	<stop  offset="0" style="stop-color:#B6E9CF"/>
	<stop  offset="1" style="stop-color:#DDBF6B"/>
</linearGradient>
<rect x="0" y="0" fill="url(#SVGID_1_)" width="920" height="690"/>
<g opacity="0.1">
	<path fill="#6D6E70" d="M174.9,374l-33.8,7.1c-10.5,2.2-21.4,2.2-31.9,0L75.5,374c-0.6-0.1-1-0.6-1-1.2v-25.5
		c0-0.7,0.5-1.2,1.2-1.2h98.9c0.7,0,1.2,0.5,1.2,1.2v25.5C175.9,373.4,175.5,373.9,174.9,374z"/>
</g>
<g opacity="0.1">
	<path fill="#6D6E70" d="M200.2,565.1l-89.6,22.4c-9.9,2.5-19.6-5-19.6-15.3v-56h116.2v39.9C207.2,560.4,204.3,564.1,200.2,565.1z"
		/>
</g>
<g opacity="0.45">
	<path fill="#6D6E70" d="M790.4,424.7c-27.1,0-54.2,0-81.3,0c-9.4-18.4,10.1-43.1,0-62.9c27.1,0,54.2,0,81.3,0
		C799.3,386.6,780.4,404.9,790.4,424.7z"/>
	<g>
		<g>
			<path fill="#E8E8E8" d="M719.6,389.9h0.8v-5.1h-0.8v-1h5.1v1.8h-1.1v-0.7h-1.8v2h2.3v1h-2.3v1.9h0.9v1h-3.1V389.9z"/>
			<path fill="#E8E8E8" d="M724.7,389.9h0.6l2.1-6.1h1.5l2.1,6.1h0.6v1h-2.7v-1h0.7l-0.4-1.3h-2.2l-0.4,1.3h0.7v1h-2.7V389.9z
				 M729,387.5l-0.7-2l-0.1-0.4c0-0.1,0-0.1,0-0.2h0l0,0.2c0,0.1,0,0.2-0.1,0.4l-0.7,2H729z"/>
			<path fill="#E8E8E8" d="M733.3,389.9h0.8v-5.1h-1.3v1.1h-1.1v-2.1h6.2v2.1h-1.1v-1.1h-1.3v5.1h0.9v1h-3V389.9z"/>
			<path fill="#E8E8E8" d="M740,389.9h0.8v-5.1h-1.3v1.1h-1.1v-2.1h6.2v2.1h-1.1v-1.1h-1.3v5.1h0.9v1h-3V389.9z"/>
			<path fill="#E8E8E8" d="M746.7,389.9h0.9v-2l-1.9-3.1H745v-1h2.6v1H747l1.1,1.9c0,0.1,0.1,0.2,0.1,0.2c0,0,0,0.1,0,0.1h0
				c0,0,0-0.1,0-0.1c0-0.1,0.1-0.1,0.1-0.2l1.1-1.9h-0.7v-1h2.6v1h-0.6l-1.9,3.1v2h0.8v1h-3V389.9z"/>
			<path fill="#E8E8E8" d="M754.1,389.9h0.6l2.1-6.1h1.5l2.1,6.1h0.6v1h-2.7v-1h0.7l-0.4-1.3h-2.2l-0.4,1.3h0.7v1h-2.7V389.9z
				 M758.4,387.5l-0.7-2l-0.1-0.4c0-0.1,0-0.1,0-0.2h0l0,0.2c0,0.1,0,0.2-0.1,0.4l-0.7,2H758.4z"/>
			<path fill="#E8E8E8" d="M765.2,383.6c0.9,0,2.8,0.3,2.8,1.4v1h-1.2v-0.5c0-0.5-0.9-0.7-1.5-0.7c-1.4,0-2.4,1-2.4,2.5
				c0,1.6,1,2.6,2.4,2.6c0.4,0,1.5-0.1,1.5-0.7v-0.5h1.2v1c0,1.1-1.8,1.4-2.8,1.4c-2.2,0-3.7-1.6-3.7-3.7
				C761.6,385.2,763.2,383.6,765.2,383.6z"/>
			<path fill="#E8E8E8" d="M769.1,389.9h0.8v-5.1h-0.8v-1h3v1h-0.9v5.1h0.9v1h-3V389.9z"/>
			<path fill="#E8E8E8" d="M773.1,389.9h0.8v-5.1h-0.8v-1h3.1c0.6,0,1,0,1.5,0.2c1.4,0.4,2.3,1.6,2.3,3.4c0,1.7-0.8,2.9-2.2,3.3
				c-0.5,0.2-1,0.2-1.6,0.2h-3.1V389.9z M776.1,389.8c0.4,0,0.8,0,1.2-0.2c0.8-0.3,1.3-1.1,1.3-2.3c0-1.2-0.5-2-1.4-2.3
				c-0.4-0.2-0.7-0.2-1.1-0.2h-0.9v5H776.1z"/>
			<path fill="#E8E8E8" d="M722.1,400.6v0.5c0,0.4,0.6,0.7,1.2,0.7c0.7,0,1.2-0.3,1.2-0.9c0-0.7-0.8-0.9-1.6-1.3
				c-0.9-0.4-1.9-0.8-1.9-2.1c0-1.4,1.1-2,2.4-2c1.1,0,2.2,0.4,2.2,1.2v0.9h-1.2v-0.5c0-0.4-0.5-0.5-1.1-0.5c-0.6,0-1.1,0.2-1.1,0.8
				c0,0.7,0.7,0.9,1.4,1.2c1.1,0.4,2.1,0.8,2.1,2.1c0,1.4-1.2,2.1-2.6,2.1c-1.2,0-2.4-0.5-2.4-1.6v-0.8H722.1z"/>
			<path fill="#E8E8E8" d="M728.2,401.9h0.9v-2l-1.9-3.1h-0.7v-1h2.6v1h-0.7l1.1,1.9c0,0.1,0.1,0.2,0.1,0.2c0,0,0,0.1,0,0.1h0
				c0,0,0-0.1,0-0.1c0-0.1,0.1-0.1,0.1-0.2l1.1-1.9h-0.7v-1h2.6v1h-0.6l-1.9,3.1v2h0.8v1h-3V401.9z"/>
			<path fill="#E8E8E8" d="M733.5,401.9h0.8v-5.1h-0.8v-1h2.2l3,4.6c0.1,0.1,0.1,0.3,0.2,0.4l0.1,0.2h0l0-0.2c0-0.1,0-0.3,0-0.4
				v-3.5H738v-1h3v1h-0.8v6.1h-1.3l-3-4.5c-0.1-0.1-0.1-0.3-0.2-0.4l-0.1-0.2h0l0,0.2c0,0.1,0,0.3,0,0.4v3.5h0.9v1h-3V401.9z"/>
			<path fill="#E8E8E8" d="M743.3,401.9h0.8v-5.1h-1.3v1.1h-1.1v-2.1h6.2v2.1h-1.1v-1.1h-1.3v5.1h0.9v1h-3V401.9z"/>
			<path fill="#E8E8E8" d="M748.7,401.9h0.8v-5.1h-0.8v-1h3v1h-0.9v2h3.2v-2h-0.9v-1h3v1h-0.8v5.1h0.8v1h-3v-1h0.9v-2h-3.2v2h0.9v1
				h-3V401.9z"/>
			<path fill="#E8E8E8" d="M757.2,401.9h0.8v-5.1h-0.8v-1h5.3v1.8h-1.1v-0.8h-2v1.9h2.3v1h-2.3v2h2.1V401h1.1v1.8h-5.4V401.9z"/>
			<path fill="#E8E8E8" d="M764.8,400.6v0.5c0,0.4,0.6,0.7,1.2,0.7c0.7,0,1.2-0.3,1.2-0.9c0-0.7-0.8-0.9-1.6-1.3
				c-0.9-0.4-1.9-0.8-1.9-2.1c0-1.4,1.2-2,2.4-2c1.1,0,2.2,0.4,2.2,1.2v0.9h-1.2v-0.5c0-0.4-0.5-0.5-1.1-0.5c-0.6,0-1.1,0.2-1.1,0.8
				c0,0.7,0.7,0.9,1.4,1.2c1.1,0.4,2.1,0.8,2.1,2.1c0,1.4-1.2,2.1-2.6,2.1c-1.2,0-2.4-0.5-2.4-1.6v-0.8H764.8z"/>
			<path fill="#E8E8E8" d="M769.6,401.9h0.8v-5.1h-0.8v-1h3v1h-0.9v5.1h0.9v1h-3V401.9z"/>
			<path fill="#E8E8E8" d="M774.8,400.6v0.5c0,0.4,0.6,0.7,1.2,0.7c0.7,0,1.2-0.3,1.2-0.9c0-0.7-0.8-0.9-1.6-1.3
				c-0.9-0.4-1.9-0.8-1.9-2.1c0-1.4,1.1-2,2.4-2c1.1,0,2.2,0.4,2.2,1.2v0.9h-1.2v-0.5c0-0.4-0.5-0.5-1.1-0.5c-0.6,0-1.1,0.2-1.1,0.8
				c0,0.7,0.7,0.9,1.4,1.2c1.1,0.4,2.1,0.8,2.1,2.1c0,1.4-1.2,2.1-2.6,2.1c-1.2,0-2.4-0.5-2.4-1.6v-0.8H774.8z"/>
		</g>
	</g>
</g>
<g opacity="0.45">
	<path fill="#6D6E70" d="M431.4,409c-21.8,0-43.5,0-65.3,0c-14.5-14.5-14.5-38,0-52.6c21.8,0,43.5,0,65.3,0
		C445.9,370.9,445.9,394.5,431.4,409z"/>
	<g>
		<g>
			<path fill="#E8E8E8" d="M365.5,378.9c1.5,0,3.3,0.6,3.3,1.7v1.2h-1.4v-0.6c0-0.6-0.9-0.9-1.8-0.9c-1.8,0-2.9,1.2-2.9,3
				c0,1.8,1.1,3.2,3,3.2c0.7,0,2-0.2,2-0.9v-0.9h-1.5v-1.2h3v2.6c0,1.3-2.3,1.8-3.5,1.8c-2.6,0-4.5-1.9-4.5-4.4
				C361,380.8,362.9,378.9,365.5,378.9z"/>
			<path fill="#E8E8E8" d="M370.4,386.4h1v-6.1h-1v-1.3h3.6v1.3h-1v6h2.5V385h1.3v2.6h-6.5V386.4z"/>
			<path fill="#E8E8E8" d="M378.7,386.4h1V384l-2.3-3.8h-0.8v-1.2h3.2v1.2h-0.8l1.3,2.2c0.1,0.1,0.1,0.2,0.1,0.3c0,0,0,0.1,0,0.1h0
				c0,0,0-0.1,0-0.1c0-0.1,0.1-0.2,0.1-0.3l1.3-2.2h-0.8v-1.2h3.1v1.2h-0.8l-2.3,3.8v2.4h1v1.2h-3.6V386.4z"/>
			<path fill="#E8E8E8" d="M389.2,378.9c1,0,3.3,0.4,3.3,1.7v1.2h-1.4v-0.7c0-0.6-1.1-0.9-1.8-0.9c-1.6,0-2.8,1.2-2.8,3
				c0,1.9,1.2,3.2,2.9,3.2c0.5,0,1.8-0.2,1.8-0.8v-0.7h1.4v1.2c0,1.3-2.2,1.7-3.4,1.7c-2.6,0-4.5-1.9-4.5-4.4
				C384.8,380.8,386.7,378.9,389.2,378.9z"/>
			<path fill="#E8E8E8" d="M398.2,378.9c2.5,0,4.4,1.9,4.4,4.3c0,2.5-1.9,4.5-4.4,4.5s-4.4-2-4.4-4.5
				C393.7,380.9,395.6,378.9,398.2,378.9z M398.2,386.4c1.5,0,2.8-1.3,2.8-3.1c0-1.7-1.3-3-2.8-3s-2.8,1.3-2.8,3
				C395.4,385.1,396.6,386.4,398.2,386.4z"/>
			<path fill="#E8E8E8" d="M403.7,386.4h1v-6.1h-1v-1.3h3.6v1.3h-1v6h2.5V385h1.3v2.6h-6.5V386.4z"/>
			<path fill="#E8E8E8" d="M412.1,386.4h1V384l-2.3-3.8h-0.8v-1.2h3.2v1.2h-0.8l1.3,2.2c0.1,0.1,0.1,0.2,0.1,0.3c0,0,0,0.1,0,0.1h0
				c0,0,0-0.1,0-0.1c0-0.1,0.1-0.2,0.1-0.3l1.3-2.2h-0.8v-1.2h3.1v1.2h-0.8l-2.3,3.8v2.4h1v1.2h-3.6V386.4z"/>
			<path fill="#E8E8E8" d="M419.8,384.9v0.6c0,0.5,0.7,0.9,1.5,0.9c0.9,0,1.5-0.4,1.5-1.1c0-0.9-1-1.1-2-1.5
				c-1.1-0.4-2.3-0.9-2.3-2.5c0-1.7,1.4-2.4,2.9-2.4c1.3,0,2.7,0.5,2.7,1.5v1.1h-1.4V381c0-0.4-0.6-0.7-1.3-0.7
				c-0.7,0-1.3,0.3-1.3,0.9c0,0.8,0.8,1,1.7,1.4c1.3,0.4,2.5,1,2.5,2.6c0,1.7-1.5,2.5-3.1,2.5c-1.4,0-2.9-0.6-2.9-1.9v-1H419.8z"/>
			<path fill="#E8E8E8" d="M425.5,386.4h1v-6.2h-1v-1.2h3.6v1.2h-1v6.2h1v1.2h-3.6V386.4z"/>
			<path fill="#E8E8E8" d="M431.7,384.9v0.6c0,0.5,0.7,0.9,1.5,0.9c0.9,0,1.5-0.4,1.5-1.1c0-0.9-1-1.1-2-1.5
				c-1.1-0.4-2.3-0.9-2.3-2.5c0-1.7,1.4-2.4,2.9-2.4c1.3,0,2.7,0.5,2.7,1.5v1.1h-1.4V381c0-0.4-0.6-0.7-1.3-0.7
				c-0.7,0-1.3,0.3-1.3,0.9c0,0.8,0.8,1,1.7,1.4c1.3,0.4,2.5,1,2.5,2.6c0,1.7-1.5,2.5-3.1,2.5c-1.4,0-2.9-0.6-2.9-1.9v-1H431.7z"/>
		</g>
	</g>
</g>
<g opacity="0.45">
	<path fill="#6D6E70" d="M498.4,535.4l-23.7,5.6c-3.8,0.9-7.9,0.9-11.7,0l-23.7-5.6v-26.2l23.7-5.6c3.8-0.9,7.9-0.9,11.7,0l23.7,5.6
		V535.4z"/>
	<g>
		<g>
			<path fill="#E8E8E8" d="M455.9,525.5h1v-6.2h-1v-1.2h4.1c0.5,0,1,0,1.4,0.2c0.9,0.4,1.5,1.3,1.5,2.5c0,1.2-0.6,2.2-1.6,2.6
				c-0.4,0.1-0.8,0.2-1.3,0.2h-1.5v1.8h1v1.2h-3.6V525.5z M459.8,522.4c0.3,0,0.6-0.1,0.9-0.2c0.5-0.2,0.7-0.7,0.7-1.3
				c0-0.6-0.2-1-0.6-1.3c-0.2-0.1-0.5-0.2-0.9-0.2h-1.3v3H459.8z"/>
			<path fill="#E8E8E8" d="M463.8,525.5h1v-6.2h-1v-1.2h3.6v1.2h-1v2.5h3.9v-2.5h-1v-1.2h3.6v1.2h-1v6.2h1v1.2h-3.6v-1.2h1v-2.4
				h-3.9v2.4h1v1.2h-3.6V525.5z"/>
			<path fill="#E8E8E8" d="M478.3,518c1,0,3.3,0.4,3.3,1.7v1.2h-1.4v-0.7c0-0.6-1.1-0.9-1.8-0.9c-1.6,0-2.8,1.2-2.8,3
				c0,1.9,1.2,3.2,2.9,3.2c0.5,0,1.8-0.2,1.8-0.8V524h1.4v1.2c0,1.3-2.2,1.7-3.4,1.7c-2.6,0-4.4-1.9-4.4-4.4
				C473.9,519.9,475.9,518,478.3,518z"/>
		</g>
	</g>
</g>
</svg>
