<svg class="defsSVG">
   <defs>
      <g id="DNA_T">
         <path
            class="DNA-backbone"
            d="M54.4,109.5c17,0.5,32.3-6.9,42.5-18.9l33.3,25.9c8.8,6.8,20.9,7.2,30.1,1l35.4-24.1c9.2-6.2,13.3-17.7,10.2-28.4L194,23.9
        		c-3.1-10.7-12.7-18.1-23.8-18.5L127.4,4c-11.1-0.4-21.2,6.5-24.9,16.9l-0.6,6.9C92.8,12.9,76.6,2.7,57.8,2.1
        		C28.2,1.2,3.4,24.4,2.4,54.1C1.5,83.8,24.8,108.6,54.4,109.5z"/>
         <path
            class="T-Red"
            d="M65.8,107.8l23.4-15.3c6.1-4,14-3.6,19.6,1l21.7,17.5c5.6,4.5,7.7,12.2,5.1,18.9l-9.9,26.1c-2.6,6.8-9.2,11.1-16.4,10.7
        		l-27.9-1.4C74.2,164.9,68,160,66.1,153l-7.3-26.9C57,119.1,59.8,111.7,65.8,107.8z"/>
      </g>

      <g id="DNA_A">
         <path
            class="DNA-backbone"
            d="M54.9,109.4c17,0.3,32.2-7.4,42.2-19.5l33.8,25.3c8.9,6.7,21,6.9,30.1,0.5l35.1-24.6c9.1-6.4,13-17.9,9.8-28.5l-12.6-41
        		C190,11,180.3,3.7,169.2,3.5l-42.8-0.7c-11.1-0.2-21.1,6.8-24.7,17.3l-0.5,6.9C91.8,12.2,75.5,2.3,56.7,2
        		C27.1,1.5,2.6,25.2,2.2,54.8C1.6,84.5,25.3,108.9,54.9,109.4z"/>
         <path
            class="A-Green"
            d="M79.9,114.5l19.8,13.1c2.5,1.6,5.3,2.4,8.1,2.3c-0.6,2.3-0.5,4.8,0.4,7.1l9.1,16.9c1.8,4.8,6.5,7.9,11.6,7.7l19.8-0.9
        		c5.1-0.2,9.5-3.7,10.9-8.7l5.3-19.1c1.4-4.9-0.6-10.2-4.9-13l-14.4-12.6c-1.8-1.2-3.9-1.8-6-1.9c1-3,1-6.3-0.1-9.4l-8.3-22.3
        		c-2.2-5.8-7.8-9.5-13.9-9.2l-23.7,1c-6.2,0.3-11.4,4.5-13.1,10.4l-6.4,22.9C72.4,104.7,74.8,111.1,79.9,114.5z"/>
      </g>

      <g id="DNA_C">
         <path
            class="DNA-backbone"
            d="M55.3,110.5c17,0.3,32.2-7.3,42.3-19.5l33.7,25.4c8.9,6.7,21,6.9,30.1,0.5l35.1-24.6c9.1-6.4,13.1-17.9,9.8-28.5l-12.5-41
        		c-3.2-10.6-13-17.9-24.1-18.1L126.9,4c-11.1-0.2-21.1,6.8-24.7,17.3l-0.5,6.9C92.4,13.4,76,3.4,57.2,3.1
        		C27.6,2.6,3.1,26.2,2.6,55.8C2.1,85.6,25.7,110,55.3,110.5z"/>
         <path
            class="C-Blue"
            d="M126.6,136.5l-20.2,14.6c-5.2,3.8-12.3,3.8-17.5,0l-20.1-14.7c-5.2-3.8-7.4-10.5-5.4-16.7L71.2,96
        		c2-6.1,7.7-10.3,14.2-10.3l24.9,0.1c6.5,0,12.2,4.2,14.2,10.3l7.7,23.7C134,126,131.8,132.7,126.6,136.5z"/>
      </g>

      <g id="DNA_G">
         <path
            class="DNA-backbone"
            d="M55.8,110.3c17,0,32.1-7.9,41.9-20.2l34.1,24.8c9,6.5,21.2,6.5,30.1,0l34.7-25.2c9-6.5,12.7-18.1,9.3-28.7l-13.2-40.7
        		c-3.4-10.6-13.3-17.7-24.4-17.7h-42.8c-11.1,0-21,7.2-24.4,17.7l-0.4,7C91.1,12.7,74.6,3,55.8,3C26.1,3,2.1,27,2.1,56.7
        		C2.1,86.3,26.2,110.3,55.8,110.3z"/>
         <path
            class="G-Yellow"
            d="M69.1,90.9L63.4,114c-0.7,2.9-0.5,5.8,0.5,8.5c-2.4,0.2-4.7,1.1-6.6,2.7l-12.9,14.2c-3.9,3.3-5.3,8.8-3.4,13.5l7.4,18.4
        		c1.9,4.8,6.7,7.7,11.8,7.4l19.8-1.4c5.1-0.4,9.4-4,10.7-9l7.1-17.8c0.5-2.1,0.4-4.3-0.2-6.3c3.2-0.1,6.3-1.2,8.8-3.3l18.2-15.3
        		c4.7-4,6.3-10.5,4-16.2l-8.9-22c-2.3-5.7-8-9.3-14.2-8.9l-23.7,1.7C75.7,80.6,70.6,85,69.1,90.9z"/>
      </g>

      <g id="mRNA_C">
         <path
            class="mRNA-backbone"
            d="M54.5,108.5c17,0.5,32.3-7,42.5-19l33.4,25.7c8.8,6.8,21,7.1,30.1,0.8l35.4-24.2c9.2-6.3,13.2-17.7,10.1-28.4l-12.1-41.1
        		C190.8,11.6,181.1,4.2,170,3.9l-42.8-1.2c-11.1-0.3-21.1,6.6-24.9,17l-0.6,6.9C92.5,11.7,76.3,1.6,57.5,1
        		C27.9,0.2,3.2,23.5,2.3,53.2C1.5,83,24.9,107.7,54.5,108.5z"/>
         <path
            class="C-Blue"
            d="M88.6,75l24.9,1.2c6.5,0.3,12,4.7,13.7,11l6.6,24c1.7,6.2-0.8,12.9-6.2,16.4l-20.8,13.7c-5.4,3.6-12.5,3.2-17.5-0.8
        		l-19.5-15.6c-5-4-6.9-10.9-4.6-16.9L74,84.7C76.3,78.6,82.2,74.7,88.6,75z"/>
      </g>

      <g id="mRNA_G">
         <path
            class="mRNA-backbone"
            d="M55.8,110.4c17,0,32.1-7.9,41.9-20.2l34.1,24.8c9,6.5,21.2,6.5,30.1,0l34.7-25.2c9-6.5,12.7-18.1,9.3-28.7l-13.2-40.7
        		c-3.4-10.6-13.3-17.7-24.4-17.7h-42.8c-11.1,0-21,7.2-24.4,17.7l-0.4,7C91.1,12.8,74.6,3.1,55.8,3.1c-29.7,0-53.7,24-53.7,53.7
        		C2.1,86.4,26.1,110.4,55.8,110.4z"/>
         <path
            class="G-Yellow"
            d="M69,91l-5.7,23.1c-0.7,2.9-0.5,5.8,0.5,8.5c-2.4,0.2-4.7,1.1-6.6,2.7l-12.9,14.1c-3.9,3.3-5.3,8.8-3.4,13.5l7.4,18.4
        		c1.9,4.8,6.7,7.7,11.8,7.4l19.8-1.4c5.1-0.4,9.4-4,10.7-9l7.1-17.8c0.5-2.1,0.4-4.3-0.2-6.3c3.2-0.1,6.3-1.2,8.8-3.3l18.2-15.3
        		c4.7-4,6.3-10.5,4-16.2l-8.9-22c-2.3-5.7-8-9.3-14.2-8.9l-23.7,1.7C75.7,80.7,70.5,85.1,69,91z"/>
      </g>

      <g id="mRNA_U">
         <path
            class="mRNA-backbone"
            d="M54.4,109.4c17,0.5,32.3-6.9,42.5-18.9l33.3,25.9c8.8,6.8,20.9,7.2,30.1,1l35.4-24.1c9.2-6.2,13.3-17.7,10.2-28.4L194,23.8
        		c-3.1-10.7-12.7-18.1-23.8-18.5l-42.8-1.4c-11.1-0.4-21.2,6.5-24.9,16.9l-0.6,6.9C92.8,12.8,76.6,2.6,57.8,2
        		C28.2,1.1,3.4,24.3,2.4,54C1.5,83.7,24.7,108.5,54.4,109.4z"/>
         <path
            class="U-Pink"
            d="M65.8,107.7l23.4-15.2c6.1-4,14-3.6,19.6,1l21.7,17.5c5.6,4.5,7.7,12.2,5.1,18.9l-9.9,26.1c-2.6,6.8-9.2,11.1-16.4,10.7
        		l-27.9-1.4C74.2,164.9,68,160,66.1,153l-7.3-26.9C56.9,119,59.8,111.6,65.8,107.7z"/>
      </g>

      <g id="mRNA_A">
         <path
            class="mRNA-backbone"
            d="M54.9,109.5c17,0.3,32.2-7.4,42.2-19.5l33.8,25.3c8.9,6.7,21,6.9,30.1,0.5l35.1-24.6c9.1-6.4,13-17.9,9.8-28.5l-12.6-41
        		c-3.3-10.6-13-17.9-24.1-18.1l-42.8-0.7c-11.1-0.2-21.1,6.8-24.7,17.3l-0.5,6.9c-9.4-14.8-25.7-24.7-44.5-25
        		C27.1,1.6,2.6,25.3,2.2,54.9C1.6,84.6,25.3,109,54.9,109.5z"/>
         <path
            class="A-Green"
            d="M79.9,114.5l19.8,13.1c2.5,1.6,5.3,2.4,8.1,2.3c-0.6,2.3-0.5,4.8,0.4,7.1l9.1,16.9c1.8,4.8,6.5,7.9,11.6,7.7l19.8-0.8
        		c5.1-0.2,9.5-3.7,10.9-8.7l5.3-19.1c1.4-4.9-0.6-10.2-4.9-13l-14.4-12.6c-1.8-1.2-3.9-1.8-6-1.9c1-3,1-6.3-0.1-9.4l-8.3-22.3
        		c-2.2-5.8-7.8-9.5-13.9-9.2l-23.7,1c-6.2,0.3-11.4,4.5-13.1,10.4l-6.4,22.9C72.4,104.8,74.8,111.1,79.9,114.5z"/>
      </g>

      <g id="TL_G">
         <path
            class="mRNA-backbone_TL"
            d="M16.9,33.1c4.9-0.1,9.4-2.4,12.2-6.1l10.1,7.1c2.7,1.8,6.2,1.8,8.8-0.2l10-7.5c2.6-1.9,3.7-5.4,2.6-8.4L56.5,6.1
         		C55.4,3,52.6,1,49.3,1L36.8,1.2c-3.3,0.1-6.1,2.2-7,5.3l-0.1,2c-2.8-4.3-7.8-7-13.2-6.9C7.8,1.7,0.9,8.8,1,17.5
         		C1.1,26.3,8.2,33.2,16.9,33.1z"/>
         <path
            class="G-Yellow_TL"
            d="M20.6,27.3l-1.6,6.8c-0.2,0.8-0.1,1.7,0.2,2.5c-0.7,0.1-1.3,0.3-1.9,0.8l-3.7,4.2c-1.2,1-1.5,2.6-0.9,3.9l2.3,5.4
         		c0.6,1.4,2,2.3,3.5,2.1l5.8-0.5c1.5-0.2,2.8-1.2,3.1-2.7l2-5.3c0.2-0.6,0.1-1.3-0.1-1.8c0.9,0,1.8-0.3,2.6-1l5.3-4.5
         		c1.3-1.2,1.8-3.1,1.1-4.8L35.5,26c-0.7-1.7-2.4-2.7-4.2-2.5l-6.9,0.6C22.6,24.3,21.1,25.6,20.6,27.3z"/>
      </g>

      <g id="TL_U">
         <path
            class="mRNA-backbone_TL"
            d="M16.9,33.1c4.9-0.1,9.4-2.4,12.2-6.1l10.1,7.1c2.7,1.8,6.2,1.8,8.8-0.2l10-7.5c2.6-1.9,3.7-5.4,2.6-8.4L56.5,6.1
         		C55.4,3,52.6,1,49.3,1L36.8,1.2c-3.3,0.1-6.1,2.2-7,5.3l-0.1,2c-2.8-4.3-7.8-7-13.2-6.9C7.8,1.7,0.8,8.8,1,17.5
         		C1.1,26.3,8.2,33.3,16.9,33.1z"/>
         <path
            class="U-Pink_TL"
            d="M20,31.2l4.9-5.4c1.3-1.4,3.3-1.8,5-1l6.6,3c1.8,0.8,2.8,2.6,2.5,4.4l-0.8,7.3c-0.3,1.8-1.6,3.4-3.4,3.8l-7.1,1.4
         		c-1.8,0.4-3.8-0.5-4.7-2.1l-3.6-6.4C18.5,34.7,18.7,32.6,20,31.2z"/>
      </g>

      <g id="TL_A">
         <path
            class="mRNA-backbone_TL"
            d="M17.1,33.4c4.9-0.2,9.4-2.6,12.1-6.3l10.2,7c2.7,1.8,6.3,1.8,8.8-0.3l9.9-7.6c2.6-2,3.6-5.4,2.5-8.4L56.4,6
         		c-1.1-3.1-4-5.1-7.3-5L36.6,1.3c-3.3,0.1-6.1,2.3-7,5.4v2c-2.9-4.2-7.9-6.9-13.3-6.8C7.6,2.2,0.7,9.4,1,18.1
         		C1.2,26.8,8.4,33.6,17.1,33.4z"/>
         <path
            class="A-Green_TL"
            d="M23.7,38.9l5.6,4.1c0.7,0.5,1.5,0.8,2.3,0.8c-0.2,0.7-0.3,1.4,0,2.1l2.4,5c0.5,1.4,1.8,2.4,3.3,2.4h5.8
         		c1.5,0,2.8-1,3.3-2.4l1.8-5.5c0.5-1.4-0.1-3-1.3-3.8l-4-3.8c-0.5-0.4-1.1-0.6-1.8-0.7c0.3-0.8,0.4-1.8,0.1-2.8L39,27.6
         		c-0.6-1.7-2.2-2.8-3.9-2.8h-6.9c-1.8,0-3.4,1.2-3.9,2.8l-2.2,6.6C21.7,35.9,22.2,37.8,23.7,38.9z"/>
      </g>

      <g id="TL_C">
         <path
            class="mRNA-backbone_TL"
            d="M17.2,33.3c4.9-0.1,9.4-2.5,12.1-6.2l10.1,7c2.7,1.8,6.2,1.8,8.8-0.2l9.9-7.6c2.6-1.9,3.6-5.4,2.5-8.4L56.6,6
         		c-1.1-3.1-4-5.1-7.3-5L36.8,1.3c-3.3,0.1-6.1,2.3-7,5.4l-0.1,2c-2.9-4.2-7.8-6.9-13.3-6.9C7.7,1.9,0.8,9.1,1,17.8
         		C1.4,26.6,8.6,33.4,17.2,33.3z"/>
         <path
            class="C-Blue_TL"
            d="M26.8,23H34c1.9,0,3.6,1.2,4.2,3l2.3,6.9c0.6,1.8-0.1,3.8-1.6,4.8L33,42.1c-1.5,1.1-3.6,1.1-5.1,0L22,37.8
         		c-1.5-1.1-2.2-3.1-1.6-4.8l2.3-6.9C23.2,24.2,24.8,23,26.8,23z"/>
      </g>


      <path id="G_base"
         class="G-Yellow_TL"
         d="M20.6,27.3l-1.6,6.8c-0.2,0.8-0.1,1.7,0.2,2.5c-0.7,0.1-1.3,0.3-1.9,0.8l-3.7,4.2c-1.2,1-1.5,2.6-0.9,3.9l2.3,5.4
            c0.6,1.4,2,2.3,3.5,2.1l5.8-0.5c1.5-0.2,2.8-1.2,3.1-2.7l2-5.3c0.2-0.6,0.1-1.3-0.1-1.8c0.9,0,1.8-0.3,2.6-1l5.3-4.5
            c1.3-1.2,1.8-3.1,1.1-4.8L35.5,26c-0.7-1.7-2.4-2.7-4.2-2.5l-6.9,0.6C22.6,24.3,21.1,25.6,20.6,27.3z"/>
      <path id="U_base"
         class="U-Pink_TL"
         d="M20,31.2l4.9-5.4c1.3-1.4,3.3-1.8,5-1l6.6,3c1.8,0.8,2.8,2.6,2.5,4.4l-0.8,7.3c-0.3,1.8-1.6,3.4-3.4,3.8l-7.1,1.4
            c-1.8,0.4-3.8-0.5-4.7-2.1l-3.6-6.4C18.5,34.7,18.7,32.6,20,31.2z"/>
      <path id="A_base"
         class="A-Green_TL"
         d="M23.7,38.9l5.6,4.1c0.7,0.5,1.5,0.8,2.3,0.8c-0.2,0.7-0.3,1.4,0,2.1l2.4,5c0.5,1.4,1.8,2.4,3.3,2.4h5.8
            c1.5,0,2.8-1,3.3-2.4l1.8-5.5c0.5-1.4-0.1-3-1.3-3.8l-4-3.8c-0.5-0.4-1.1-0.6-1.8-0.7c0.3-0.8,0.4-1.8,0.1-2.8L39,27.6
            c-0.6-1.7-2.2-2.8-3.9-2.8h-6.9c-1.8,0-3.4,1.2-3.9,2.8l-2.2,6.6C21.7,35.9,22.2,37.8,23.7,38.9z"/>
      <path id="C_base"
         class="C-Blue_TL"
         d="M26.8,23H34c1.9,0,3.6,1.2,4.2,3l2.3,6.9c0.6,1.8-0.1,3.8-1.6,4.8L33,42.1c-1.5,1.1-3.6,1.1-5.1,0L22,37.8
            c-1.5-1.1-2.2-3.1-1.6-4.8l2.3-6.9C23.2,24.2,24.8,23,26.8,23z"/>
   </defs>
</svg>
