<?xml version="1.0" encoding="utf-8"?>
<!-- Generator: Adobe Illustrator 23.0.1, SVG Export Plug-In . SVG Version: 6.00 Build 0)  -->
<svg version="1.1" id="Layer_1" xmlns="http://www.w3.org/2000/svg" xmlns:xlink="http://www.w3.org/1999/xlink" x="0px" y="0px"
	 viewBox="0 0 48.3 54" style="enable-background:new 0 0 48.3 54;" xml:space="preserve">
<style type="text/css">
	.st0{fill:#F9E064;stroke:#000000;stroke-width:0.75;stroke-miterlimit:10;}
</style>
<path class="st0" d="M30.8,7.1V3.6c0-2.6-2.9-4.1-5-2.6L13,10.2c-1.7,1.3-1.7,3.9,0,5.1l12.8,9.3c2,1.5,5,0,5-2.6v-3.6
	c4,2.3,6.6,6.6,6.6,11.5c0,7.3-6,13.3-13.3,13.3c-7.3,0-13.3-6-13.3-13.3c0-1.1,0.1-2.3,0.4-3.3c0.7-2.8-1-5.6-3.8-6.4
	c-2.8-0.7-5.6,1-6.4,3.8c-0.5,1.9-0.7,3.9-0.7,5.9C0.4,43,11,53.7,24.1,53.7c13.1,0,23.8-10.7,23.8-23.8C47.9,19.1,40.7,10,30.8,7.1
	z"/>
</svg>
