<?xml version="1.0" encoding="utf-8"?>
<!-- Generator: Adobe Illustrator 18.1.1, SVG Export Plug-In . SVG Version: 6.00 Build 0)  -->
<!DOCTYPE svg PUBLIC "-//W3C//DTD SVG 1.1//EN" "http://www.w3.org/Graphics/SVG/1.1/DTD/svg11.dtd">
<svg version="1.1" xmlns="http://www.w3.org/2000/svg" xmlns:xlink="http://www.w3.org/1999/xlink" x="0px" y="0px"
	 viewBox="0 0 523.3 256.8" enable-background="new 0 0 523.3 256.8" xml:space="preserve">
<filter  height="170%" width="170%" id="ds2" y="-20%" x="-30%">
	<feOffset  in="SourceAlpha" dx="0" dy="0" result="offOut"></feOffset>
	<feGaussianBlur  in="offOut" stdDeviation="1" result="blurOut"></feGaussianBlur>
	<feComponentTransfer>
		<feFuncA  type="linear" slope="0.75"></feFuncA>
	</feComponentTransfer>
	<feMerge>
		<feMergeNode></feMergeNode>
		<feMergeNode  in="SourceGraphic"></feMergeNode>
	</feMerge>
</filter>
<filter  height="170%" width="170%" id="ds1" y="-30%" x="-30%">
	<feOffset  in="SourceAlpha" dx="0" dy="0" result="offOut"></feOffset>
	<feGaussianBlur  in="offOut" stdDeviation="2" result="blurOut"></feGaussianBlur>
	<feComponentTransfer>
		<feFuncA  type="linear" slope="0.75"></feFuncA>
	</feComponentTransfer>
	<feMerge>
		<feMergeNode></feMergeNode>
		<feMergeNode  in="SourceGraphic"></feMergeNode>
	</feMerge>
</filter>
<g id="Layer_2" display="none">
	
		<image display="inline" overflow="visible" width="428" height="425" xlink:href="9E0A1FCC48E6ECAE.png"  transform="matrix(1 0 0 1 82.8482 -16.8042)">
	</image>
</g>
<g id="Layer_1">
	<linearGradient id="SVGID_1_" gradientUnits="userSpaceOnUse" x1="261.645" y1="2.3501" x2="261.645" y2="250.411">
		<stop  offset="0" style="stop-color:#BDDEC4"/>
		<stop  offset="1" style="stop-color:#DCBF6A"/>
	</linearGradient>
	<rect x="0" y="0" fill="url(#SVGID_1_)" width="523.3" height="256.8"/>
	<polygon opacity="0.5" fill="#FFFFFF" points="265.6,149 288.4,124.9 289.7,155.5 325.3,147.1 304.5,172.5 339.3,182.9 
		304.5,193.4 325.3,218.8 289.7,210.3 288.4,240.9 265.6,216.8 242.8,240.9 241.5,210.3 205.9,218.8 226.6,193.4 191.8,182.9 
		226.6,172.5 205.9,147.1 241.5,155.5 242.8,124.9 	"/>
	<g>
		<path fill="#58595B" d="M28,99h9.9v1.6h-8v4.5h7.4v1.6h-7.4v4.9h8v1.6H28V99z"/>
		<path fill="#58595B" d="M42.3,102.9h2.1v1.5h-2.1v6.4c0,0.8,0.2,0.9,1.3,0.9h0.8v1.5H43c-1.8,0-2.5-0.4-2.5-2.3v-6.6h-1.8v-1.5
			h1.8v-3.1h1.7V102.9z"/>
		<path fill="#58595B" d="M46.2,99h1.7v5.5h0c0.6-1.2,2-1.8,3.3-1.8c2.7,0,3.6,1.6,3.6,3.8v6.8h-1.7v-7c0-1.3-0.8-2.1-2.1-2.1
			c-2.1,0-3.1,1.4-3.1,3.2v5.8h-1.7V99z"/>
		<path fill="#58595B" d="M66.5,113.2c-0.3,0.2-0.7,0.3-1.2,0.3c-0.9,0-1.4-0.5-1.4-1.6c-0.9,1.1-2.2,1.6-3.6,1.6
			c-1.9,0-3.4-0.8-3.4-2.9c0-2.3,1.7-2.8,3.5-3.2c1.9-0.4,3.5-0.2,3.5-1.5c0-1.5-1.2-1.7-2.3-1.7c-1.4,0-2.5,0.4-2.6,2h-1.7
			c0.1-2.6,2.1-3.5,4.4-3.5c1.9,0,3.9,0.4,3.9,2.8v5.3c0,0.8,0,1.2,0.5,1.2c0.1,0,0.3,0,0.5-0.1V113.2z M63.7,107.9
			c-0.7,0.5-1.9,0.5-3.1,0.7c-1.1,0.2-2.1,0.6-2.1,1.9c0,1.1,1,1.5,2,1.5c2.2,0,3.2-1.4,3.2-2.3V107.9z"/>
		<path fill="#58595B" d="M68.1,102.9h1.6v1.6h0c0.7-1.3,1.9-1.9,3.4-1.9c2.7,0,3.6,1.6,3.6,3.8v6.8h-1.7v-7c0-1.3-0.8-2.1-2.1-2.1
			c-2.1,0-3.1,1.4-3.1,3.2v5.8h-1.7V102.9z"/>
		<path fill="#58595B" d="M83.7,102.7c3.3,0,5,2.4,5,5.4c0,3-1.7,5.4-5,5.4s-5-2.4-5-5.4C78.6,105.1,80.4,102.7,83.7,102.7z
			 M83.7,112c1.8,0,3.2-1.4,3.2-3.9c0-2.5-1.4-3.9-3.2-3.9s-3.2,1.4-3.2,3.9C80.4,110.6,81.9,112,83.7,112z"/>
		<path fill="#58595B" d="M90.8,99h1.7v14.3h-1.7V99z"/>
		<path fill="#58595B" d="M111.6,107.5h4.4v1.4h-4.4v4.4h-1.4v-4.4h-4.4v-1.4h4.4v-4.4h1.4V107.5z"/>
		<path fill="#58595B" d="M135.7,98.7c4.5,0,6.8,3.6,6.8,7.5s-2.3,7.5-6.8,7.5s-6.8-3.6-6.8-7.5S131.1,98.7,135.7,98.7z M135.7,112
			c3.5,0,4.9-3,4.9-5.9c0-2.9-1.5-5.9-4.9-5.9s-4.9,3-4.9,5.9C130.7,109,132.2,112,135.7,112z"/>
		<path fill="#58595B" d="M147.3,107.8l-3.6-4.9h2.2l2.5,3.6l2.6-3.6h2l-3.6,4.8l4,5.6h-2.2l-2.9-4.3l-2.9,4.3h-2.1L147.3,107.8z"/>
		<path fill="#58595B" d="M159,114.7c-0.8,2-1.5,2.8-3,2.8c-0.4,0-0.8,0-1.2-0.2v-1.6c0.3,0.1,0.7,0.2,1,0.2c0.7,0,1.1-0.3,1.4-0.9
			l0.7-1.8l-4.1-10.3h1.9l3,8.5h0l2.9-8.5h1.8L159,114.7z"/>
		<path fill="#58595B" d="M173.8,112.4c0,3.4-1.5,5.1-4.8,5.1c-1.9,0-4.2-0.8-4.3-3h1.7c0.1,1.2,1.6,1.7,2.7,1.7
			c2.2,0,3.1-1.6,3.1-3.9v-0.7h0c-0.6,1.3-1.9,1.9-3.2,1.9c-3.1,0-4.6-2.4-4.6-5.2c0-2.4,1.2-5.5,4.8-5.5c1.3,0,2.5,0.6,3.1,1.7h0
			v-1.5h1.6V112.4z M172.2,107.9c0-1.8-0.8-3.7-2.9-3.7c-2.2,0-3.1,1.8-3.1,3.8c0,1.9,0.7,3.9,2.9,3.9
			C171.3,111.9,172.2,109.8,172.2,107.9z"/>
		<path fill="#58595B" d="M185.2,110c-0.5,2.3-2.1,3.5-4.4,3.5c-3.3,0-4.9-2.3-5-5.4c0-3.1,2-5.4,4.9-5.4c3.7,0,4.8,3.4,4.7,5.9
			h-7.7c-0.1,1.8,1,3.4,3.2,3.4c1.4,0,2.4-0.7,2.7-2H185.2z M183.6,107.1c-0.1-1.6-1.3-2.9-3-2.9c-1.8,0-2.8,1.3-3,2.9H183.6z"/>
		<path fill="#58595B" d="M187.1,102.9h1.6v1.6h0c0.7-1.3,1.9-1.9,3.4-1.9c2.7,0,3.6,1.6,3.6,3.8v6.8H194v-7c0-1.3-0.8-2.1-2.1-2.1
			c-2.1,0-3.1,1.4-3.1,3.2v5.8h-1.7V102.9z"/>
	</g>
	<g>
		<path fill="#58595B" d="M410.2,107.5h4.4v1.4h-4.4v4.4h-1.4v-4.4h-4.4v-1.4h4.4v-4.4h1.4V107.5z"/>
		<path fill="#58595B" d="M441.1,113.3h-2l-3.3-12h0l-3.3,12h-2L426.9,99h1.9l2.8,11.9h0l3.2-11.9h2.1l3.2,11.9h0L443,99h1.9
			L441.1,113.3z"/>
		<path fill="#58595B" d="M454.9,113.2c-0.3,0.2-0.7,0.3-1.2,0.3c-0.9,0-1.4-0.5-1.4-1.6c-0.9,1.1-2.2,1.6-3.6,1.6
			c-1.9,0-3.4-0.8-3.4-2.9c0-2.3,1.7-2.8,3.5-3.2c1.9-0.4,3.5-0.2,3.5-1.5c0-1.5-1.2-1.7-2.3-1.7c-1.4,0-2.5,0.4-2.6,2h-1.7
			c0.1-2.6,2.1-3.5,4.4-3.5c1.9,0,3.9,0.4,3.9,2.8v5.3c0,0.8,0,1.2,0.5,1.2c0.1,0,0.3,0,0.5-0.1V113.2z M452.1,107.9
			c-0.7,0.5-1.9,0.5-3.1,0.7c-1.1,0.2-2.1,0.6-2.1,1.9c0,1.1,1,1.5,2,1.5c2.2,0,3.2-1.4,3.2-2.3V107.9z"/>
		<path fill="#58595B" d="M458.8,102.9h2.1v1.5h-2.1v6.4c0,0.8,0.2,0.9,1.3,0.9h0.8v1.5h-1.3c-1.8,0-2.5-0.4-2.5-2.3v-6.6h-1.8v-1.5
			h1.8v-3.1h1.7V102.9z"/>
		<path fill="#58595B" d="M471.6,110c-0.5,2.3-2.1,3.5-4.4,3.5c-3.3,0-4.9-2.3-5-5.4c0-3.1,2-5.4,4.9-5.4c3.7,0,4.8,3.4,4.7,5.9H464
			c-0.1,1.8,1,3.4,3.2,3.4c1.4,0,2.4-0.7,2.7-2H471.6z M469.9,107.1c-0.1-1.6-1.3-2.9-3-2.9c-1.8,0-2.8,1.3-3,2.9H469.9z"/>
		<path fill="#58595B" d="M473.4,102.9h1.6v2.2h0c0.8-1.7,2-2.5,3.8-2.4v1.8c-2.7,0-3.7,1.6-3.7,4.2v4.6h-1.7V102.9z"/>
	</g>
	<g>
		<path fill="#58595B" d="M333.4,103.3c-0.4-2-2-3-4-3c-3.4,0-4.8,2.8-4.8,5.8c0,3.3,1.4,6,4.9,6c2.5,0,3.9-1.8,4.1-4.1h1.9
			c-0.4,3.6-2.6,5.7-6.2,5.7c-4.4,0-6.6-3.3-6.6-7.4c0-4.1,2.4-7.5,6.8-7.5c3,0,5.4,1.6,5.9,4.6H333.4z"/>
		<path fill="#58595B" d="M346.7,113.2c-0.3,0.2-0.7,0.3-1.2,0.3c-0.9,0-1.4-0.5-1.4-1.6c-0.9,1.1-2.2,1.6-3.6,1.6
			c-1.9,0-3.4-0.8-3.4-2.9c0-2.3,1.7-2.8,3.5-3.2c1.9-0.4,3.5-0.2,3.5-1.5c0-1.5-1.2-1.7-2.3-1.7c-1.4,0-2.5,0.4-2.6,2h-1.7
			c0.1-2.6,2.1-3.5,4.4-3.5c1.9,0,3.9,0.4,3.9,2.8v5.3c0,0.8,0,1.2,0.5,1.2c0.1,0,0.3,0,0.5-0.1V113.2z M343.9,107.9
			c-0.7,0.5-1.9,0.5-3.1,0.7c-1.1,0.2-2.1,0.6-2.1,1.9c0,1.1,1,1.5,2,1.5c2.2,0,3.2-1.4,3.2-2.3V107.9z"/>
		<path fill="#58595B" d="M348.2,102.9h1.6v2.2h0c0.8-1.7,2-2.5,3.8-2.4v1.8c-2.7,0-3.7,1.6-3.7,4.2v4.6h-1.7V102.9z"/>
		<path fill="#58595B" d="M355,99h1.7v5.3h0c0.6-1.1,1.9-1.6,3.3-1.6c3.2,0,4.8,2.5,4.8,5.4s-1.6,5.4-4.7,5.4
			c-1.1,0-2.6-0.4-3.3-1.6h0v1.4H355V99z M359.8,104.2c-2.3,0-3.2,2-3.2,3.9c0,2,0.9,3.9,3.3,3.9c2.3,0,3.1-2,3.1-4
			C363,106.1,362,104.2,359.8,104.2z"/>
		<path fill="#58595B" d="M371.3,102.7c3.3,0,5,2.4,5,5.4c0,3-1.7,5.4-5,5.4s-5-2.4-5-5.4C366.2,105.1,368,102.7,371.3,102.7z
			 M371.3,112c1.8,0,3.2-1.4,3.2-3.9c0-2.5-1.4-3.9-3.2-3.9s-3.2,1.4-3.2,3.9C368,110.6,369.5,112,371.3,112z"/>
		<path fill="#58595B" d="M378.3,102.9h1.6v1.6h0c0.7-1.3,1.9-1.9,3.4-1.9c2.7,0,3.6,1.6,3.6,3.8v6.8h-1.7v-7c0-1.3-0.8-2.1-2.1-2.1
			c-2.1,0-3.1,1.4-3.1,3.2v5.8h-1.7V102.9z"/>
		<path fill="#58595B" d="M332.9,137.3h-1.7v-1.4h0c-0.6,1.1-1.9,1.6-3.3,1.6c-3.2,0-4.8-2.5-4.8-5.4c0-2.9,1.6-5.4,4.7-5.4
			c1.1,0,2.6,0.4,3.3,1.6h0V123h1.7V137.3z M328.1,136c2.3,0,3.2-2,3.2-3.9c0-2-0.9-3.9-3.3-3.9c-2.3,0-3.1,2-3.1,4
			C324.9,134.1,325.9,136,328.1,136z"/>
		<path fill="#58595B" d="M337.3,125.1h-1.7V123h1.7V125.1z M335.6,126.9h1.7v10.3h-1.7V126.9z"/>
		<path fill="#58595B" d="M344.4,126.7c3.3,0,5,2.4,5,5.4c0,3-1.7,5.4-5,5.4s-5-2.4-5-5.4C339.4,129.1,341.1,126.7,344.4,126.7z
			 M344.4,136c1.8,0,3.2-1.4,3.2-3.9c0-2.5-1.4-3.9-3.2-3.9s-3.2,1.4-3.2,3.9C341.2,134.6,342.6,136,344.4,136z"/>
		<path fill="#58595B" d="M354.2,131.8l-3.6-4.9h2.2l2.5,3.6l2.6-3.6h2l-3.6,4.8l4,5.6h-2.2l-2.9-4.3l-2.9,4.3h-2.1L354.2,131.8z"/>
		<path fill="#58595B" d="M363.6,125.1h-1.7V123h1.7V125.1z M361.9,126.9h1.7v10.3h-1.7V126.9z"/>
		<path fill="#58595B" d="M375.5,137.3h-1.7v-1.4h0c-0.6,1.1-1.9,1.6-3.3,1.6c-3.2,0-4.8-2.5-4.8-5.4c0-2.9,1.6-5.4,4.7-5.4
			c1.1,0,2.6,0.4,3.3,1.6h0V123h1.7V137.3z M370.7,136c2.3,0,3.2-2,3.2-3.9c0-2-0.9-3.9-3.3-3.9c-2.3,0-3.1,2-3.1,4
			C367.5,134.1,368.5,136,370.7,136z"/>
		<path fill="#58595B" d="M386.9,134c-0.5,2.3-2.1,3.5-4.4,3.5c-3.3,0-4.9-2.3-5-5.4c0-3.1,2-5.4,4.9-5.4c3.7,0,4.8,3.4,4.7,5.9
			h-7.7c-0.1,1.8,1,3.4,3.2,3.4c1.4,0,2.4-0.7,2.7-2H386.9z M385.3,131.1c-0.1-1.6-1.3-2.9-3-2.9c-1.8,0-2.8,1.3-3,2.9H385.3z"/>
	</g>
	<g>
		<path fill="#58595B" d="M242.2,158.5h7.9v1.3h-6.4v3.6h5.9v1.3h-5.9v4h6.4v1.3h-7.9V158.5z"/>
		<path fill="#58595B" d="M251.7,161.7h1.3v1.3h0c0.6-1,1.5-1.5,2.7-1.5c2.2,0,2.8,1.2,2.8,3v5.4h-1.4v-5.6c0-1-0.6-1.7-1.7-1.7
			c-1.6,0-2.4,1.1-2.4,2.6v4.7h-1.4V161.7z"/>
		<path fill="#58595B" d="M267.7,167.3c-0.4,1.8-1.7,2.8-3.5,2.8c-2.6,0-3.9-1.8-4-4.4c0-2.5,1.6-4.3,3.9-4.3c2.9,0,3.8,2.7,3.7,4.7
			h-6.2c0,1.4,0.8,2.7,2.6,2.7c1.1,0,1.9-0.5,2.1-1.6H267.7z M266.4,165c-0.1-1.3-1-2.3-2.4-2.3c-1.4,0-2.3,1.1-2.4,2.3H266.4z"/>
		<path fill="#58595B" d="M269.1,161.7h1.3v1.7h0c0.7-1.3,1.6-2,3-1.9v1.4c-2.2,0-3,1.2-3,3.3v3.7h-1.4V161.7z"/>
		<path fill="#58595B" d="M281.2,169.2c0,2.7-1.2,4.1-3.8,4.1c-1.6,0-3.3-0.6-3.4-2.4h1.4c0.1,1,1.2,1.3,2.1,1.3
			c1.8,0,2.5-1.3,2.5-3.1v-0.5h0c-0.4,1-1.5,1.5-2.6,1.5c-2.5,0-3.7-1.9-3.7-4.2c0-2,1-4.4,3.8-4.4c1,0,2,0.5,2.5,1.4h0v-1.2h1.3
			V169.2z M279.9,165.6c0-1.5-0.6-3-2.4-3c-1.7,0-2.4,1.4-2.4,3c0,1.5,0.5,3.2,2.3,3.2C279.2,168.8,279.9,167.2,279.9,165.6z"/>
		<path fill="#58595B" d="M286.5,171c-0.6,1.6-1.2,2.2-2.4,2.2c-0.3,0-0.6,0-0.9-0.1v-1.2c0.3,0.1,0.5,0.2,0.8,0.2
			c0.6,0,0.9-0.3,1.1-0.8l0.6-1.4l-3.3-8.2h1.5l2.4,6.8h0l2.3-6.8h1.4L286.5,171z"/>
		<path fill="#58595B" d="M240.4,183.5c-0.2-1-0.9-1.6-2-1.6c-2,0-2.6,1.6-2.6,3.2c0,1.5,0.7,3,2.4,3c1.3,0,2.1-0.8,2.3-2h1.4
			c-0.3,2-1.6,3.2-3.6,3.2c-2.5,0-3.9-1.8-3.9-4.2c0-2.5,1.3-4.4,3.9-4.4c1.9,0,3.4,0.9,3.6,2.8H240.4z"/>
		<path fill="#58595B" d="M250.7,189.1c-0.2,0.1-0.5,0.2-1,0.2c-0.7,0-1.2-0.4-1.2-1.3c-0.8,0.9-1.8,1.3-2.9,1.3
			c-1.5,0-2.7-0.7-2.7-2.3c0-1.9,1.4-2.3,2.8-2.5c1.5-0.3,2.8-0.2,2.8-1.2c0-1.2-1-1.4-1.8-1.4c-1.2,0-2,0.4-2.1,1.6h-1.4
			c0.1-2,1.7-2.8,3.5-2.8c1.5,0,3.1,0.3,3.1,2.3v4.3c0,0.6,0,0.9,0.4,0.9c0.1,0,0.2,0,0.4-0.1V189.1z M248.4,184.9
			c-0.5,0.4-1.6,0.4-2.5,0.6c-0.9,0.2-1.7,0.5-1.7,1.5c0,0.9,0.8,1.2,1.6,1.2c1.8,0,2.5-1.1,2.5-1.9V184.9z"/>
		<path fill="#58595B" d="M252,180.9h1.4v1.1h0c0.4-0.9,1.5-1.3,2.6-1.3c2.5,0,3.8,2,3.8,4.4s-1.2,4.3-3.8,4.3
			c-0.8,0-2.1-0.3-2.7-1.3h0v4.3H252V180.9z M255.8,181.9c-1.8,0-2.5,1.6-2.5,3.1c0,1.6,0.7,3.1,2.6,3.1c1.9,0,2.5-1.6,2.5-3.2
			C258.4,183.4,257.6,181.9,255.8,181.9z"/>
		<path fill="#58595B" d="M263.3,180.9h1.6v1.2h-1.6v5.1c0,0.6,0.2,0.7,1,0.7h0.6v1.2h-1c-1.4,0-2-0.3-2-1.8v-5.3h-1.4v-1.2h1.4
			v-2.5h1.4V180.9z"/>
		<path fill="#58595B" d="M273.3,189.1H272v-1.3h0c-0.6,1-1.5,1.5-2.7,1.5c-2.2,0-2.8-1.2-2.8-3v-5.4h1.4v5.6c0,1,0.6,1.7,1.7,1.7
			c1.6,0,2.4-1.1,2.4-2.6v-4.7h1.4V189.1z"/>
		<path fill="#58595B" d="M275.3,180.9h1.3v1.7h0c0.7-1.3,1.6-2,3-1.9v1.4c-2.2,0-3,1.2-3,3.3v3.7h-1.4V180.9z"/>
		<path fill="#58595B" d="M287.4,186.5c-0.4,1.8-1.7,2.8-3.5,2.8c-2.6,0-3.9-1.8-4-4.4c0-2.5,1.6-4.3,3.9-4.3c2.9,0,3.8,2.7,3.7,4.7
			h-6.2c0,1.4,0.8,2.7,2.6,2.7c1.1,0,1.9-0.5,2.1-1.6H287.4z M286.1,184.2c-0.1-1.3-1-2.3-2.4-2.3c-1.4,0-2.3,1.1-2.4,2.3H286.1z"/>
		<path fill="#58595B" d="M296.4,189.1H295V188h0c-0.4,0.9-1.5,1.3-2.6,1.3c-2.5,0-3.8-2-3.8-4.4s1.2-4.3,3.8-4.3
			c0.8,0,2.1,0.3,2.7,1.3h0v-4.3h1.4V189.1z M292.5,188.1c1.8,0,2.5-1.6,2.5-3.1c0-1.6-0.7-3.1-2.6-3.1c-1.9,0-2.5,1.6-2.5,3.2
			C290,186.6,290.8,188.1,292.5,188.1z"/>
		<path fill="#58595B" d="M245.4,198.6H244v-1.7h1.4V198.6z M244,200.1h1.4v8.3H244V200.1z"/>
		<path fill="#58595B" d="M247.5,200.1h1.3v1.3h0c0.6-1,1.5-1.5,2.7-1.5c2.2,0,2.8,1.2,2.8,3v5.4H253v-5.6c0-1-0.6-1.7-1.7-1.7
			c-1.6,0-2.4,1.1-2.4,2.6v4.7h-1.4V200.1z"/>
		<path fill="#58595B" d="M264.1,196.9h1.7l4.5,11.4h-1.7l-1.2-3.4h-4.8l-1.3,3.4h-1.6L264.1,196.9z M263,203.6h3.9l-1.9-5.3h0
			L263,203.6z"/>
		<path fill="#58595B" d="M272.5,198.2h-3.8v-1.3h9.1v1.3h-3.8v10.1h-1.5V198.2z"/>
		<path fill="#58595B" d="M279.1,196.9h5c2.3,0,3.5,1.3,3.5,3.4s-1.2,3.4-3.5,3.4h-3.5v4.7h-1.5V196.9z M280.6,202.4h3
			c1.7,0,2.5-0.7,2.5-2.1s-0.8-2.1-2.5-2.1h-3V202.4z"/>
	</g>
	<g filter="url(#ds1)">
		<g>
			<linearGradient id="SVGID_2_" gradientUnits="userSpaceOnUse" x1="52.567" y1="42.9934" x2="82.8353" y2="78.5167">
				<stop  offset="0" style="stop-color:#D9875F"/>
				<stop  offset="1" style="stop-color:#CC4B4F"/>
			</linearGradient>
			<path fill="url(#SVGID_2_)" d="M68,50.4c-4,0-6.6-2.4-10.6-2.6c-7-0.3-12.9,5.1-13.1,12.1S49.4,72.7,56.3,73
				c4,0.2,7.6-2,11.6-1.5c3.5,0.4,6.9,2.3,10.3,2.4c7,0.3,12.9-5.1,13.1-12.1c0.3-7-5.1-12.9-12.1-13.1c-3.4-0.1-6.9,1.3-10.4,1.7
				C68.5,50.3,68.2,50.4,68,50.4z"/>
			<path fill="#F4F8E8" d="M90,80c3.4,0.1,6.2-2.5,6.4-5.9c0.1-3.4-2.5-6.2-5.9-6.4c-1.6-0.1-3,0.5-4.1,1.4
				c-0.2,0.2-0.5,0.5-0.7,0.7c-0.9,1-1.4,2.3-1.5,3.7C84,77,86.6,79.8,90,80z"/>
			<path fill="#5A5A5A" d="M56.4,69.6c5.1,0.2,9.4-3.8,9.6-8.9c0.2-5.1-3.8-9.4-8.9-9.6s-9.4,3.8-9.6,8.9c-0.1,3.3,1.4,6.2,3.9,7.9
				c0.2,0.1,0.3,0.2,0.5,0.3C53.3,69.1,54.8,69.6,56.4,69.6z"/>
			<path fill="#5A5A5A" d="M78.3,70.5c2.4,0.1,4.7-0.7,6.4-2.2c0.3-0.3,0.5-0.6,0.8-0.8c1.4-1.5,2.3-3.6,2.4-5.8
				c0.2-5.1-3.8-9.4-8.9-9.6c-5.1-0.2-9.4,3.8-9.6,8.9C69.2,66,73.2,70.3,78.3,70.5z"/>
		</g>
	</g>
	<g filter="url(#ds1)">
		<g>
			<g>
				<linearGradient id="SVGID_3_" gradientUnits="userSpaceOnUse" x1="331.1224" y1="27.1575" x2="348.3832" y2="49.6717">
					<stop  offset="0" style="stop-color:#D9875F"/>
					<stop  offset="1" style="stop-color:#CC4B4F"/>
				</linearGradient>
				<path fill="url(#SVGID_3_)" d="M351.7,35.7c-0.6-3.3-2.4-6.2-5.1-8.2c-2.2-1.5-4.7-2.3-7.3-2.3c-4.1,0-7.9,2-10.3,5.3
					c-2,2.7-2.7,6.1-2.2,9.4c0.6,3.3,2.4,6.2,5.1,8.2c2.2,1.5,4.7,2.3,7.3,2.3c4.1,0,7.9-2,10.3-5.3C351.5,42.4,352.3,39,351.7,35.7
					z"/>
				<path fill="#5A5A5A" d="M333.9,45.3c4.2,3,9.9,2,12.9-2.2c3-4.2,2-9.9-2.2-12.9c-4.2-3-9.9-2-12.9,2.2c-1.9,2.7-2.2,6-1.1,8.8
					c0.1,0.2,0.2,0.3,0.2,0.5C331.6,43.1,332.6,44.4,333.9,45.3z"/>
			</g>
			<g>
				<path fill="#F4F8E8" d="M321.2,41.8c3.4,0.1,6.2-2.5,6.4-5.9c0.1-3.4-2.5-6.2-5.9-6.4c-1.6-0.1-3,0.5-4.1,1.4
					c-0.2,0.2-0.5,0.5-0.7,0.7c-0.9,1-1.4,2.3-1.5,3.7C315.2,38.8,317.9,41.6,321.2,41.8z"/>
			</g>
			<g>
				<path fill="#F4F8E8" d="M357.1,46.1c3.4,0.1,6.2-2.5,6.4-5.9c0.1-3.4-2.5-6.2-5.9-6.4c-1.6-0.1-3,0.5-4.1,1.4
					c-0.2,0.2-0.5,0.5-0.7,0.7c-0.9,1-1.4,2.3-1.5,3.7C351.1,43.1,353.7,45.9,357.1,46.1z"/>
			</g>
		</g>
	</g>
	<g filter="url(#ds1)">
		<g>
			<g>
				
					<linearGradient id="SVGID_4_" gradientUnits="userSpaceOnUse" x1="360.7852" y1="73.5903" x2="378.046" y2="96.1044" gradientTransform="matrix(0.9373 -0.3485 0.3485 0.9373 -4.8776 120.4826)">
					<stop  offset="0" style="stop-color:#D9875F"/>
					<stop  offset="1" style="stop-color:#CC4B4F"/>
				</linearGradient>
				<path fill="url(#SVGID_4_)" d="M381.2,64.5c-1.7-2.9-4.4-5-7.7-5.9c-2.6-0.7-5.2-0.6-7.7,0.4c-3.8,1.4-6.7,4.6-7.8,8.6
					c-0.9,3.3-0.4,6.7,1.2,9.6c1.7,2.9,4.4,5,7.7,5.9c2.6,0.7,5.2,0.6,7.7-0.4c3.8-1.4,6.7-4.6,7.8-8.6
					C383.4,70.9,382.9,67.5,381.2,64.5z"/>
				<path fill="#5A5A5A" d="M367.9,79.8c4.9,1.3,10-1.6,11.3-6.5c1.3-4.9-1.6-10-6.5-11.3s-10,1.6-11.3,6.5c-0.8,3.1,0,6.4,2.1,8.6
					c0.1,0.1,0.3,0.3,0.4,0.4C364.9,78.5,366.3,79.3,367.9,79.8z"/>
			</g>
			<g>
				<path fill="#F4F8E8" d="M354.8,80.8c3.2-1,5-4.5,3.9-7.7c-1-3.2-4.5-5-7.7-3.9c-1.5,0.5-2.7,1.5-3.4,2.7
					c-0.1,0.3-0.3,0.6-0.4,0.9c-0.5,1.3-0.5,2.7-0.1,4C348.1,80.1,351.5,81.9,354.8,80.8z"/>
			</g>
			<g>
				<path fill="#F4F8E8" d="M389.8,72.4c3.2-1,5-4.5,3.9-7.7c-1-3.2-4.5-5-7.7-3.9c-1.5,0.5-2.7,1.5-3.4,2.7
					c-0.1,0.3-0.3,0.6-0.4,0.9c-0.5,1.3-0.5,2.7-0.1,4C383.2,71.7,386.6,73.4,389.8,72.4z"/>
			</g>
		</g>
	</g>
	<g filter="url(#ds1)">
		<g>
			<path fill="#F4F8E8" d="M142.4,73.4c2.7,2,6.6,1.4,8.5-1.3c2-2.7,1.4-6.6-1.3-8.5c-1.3-0.9-2.8-1.3-4.2-1.1
				c-0.3,0.1-0.7,0.1-1,0.2c-1.3,0.4-2.5,1.1-3.3,2.3C139,67.6,139.6,71.4,142.4,73.4z"/>
		</g>
		<g>
			<path fill="#F4F8E8" d="M134.3,65.3c2.7,2,6.6,1.4,8.5-1.3c2-2.7,1.4-6.6-1.3-8.5c-1.3-0.9-2.8-1.3-4.2-1.1
				c-0.3,0.1-0.7,0.1-1,0.2c-1.3,0.4-2.5,1.1-3.3,2.3C131,59.5,131.6,63.4,134.3,65.3z"/>
		</g>
	</g>
	<g filter="url(#ds1)">
		<g>
			<path fill="#F4F8E8" d="M177.2,55c3.4,0.1,6.2-2.5,6.4-5.9c0.1-3.4-2.5-6.2-5.9-6.4c-1.6-0.1-3,0.5-4.1,1.4
				c-0.2,0.2-0.5,0.5-0.7,0.7c-0.9,1-1.4,2.3-1.5,3.7C171.2,52,173.8,54.8,177.2,55z"/>
		</g>
		<g>
			<path fill="#F4F8E8" d="M166,52.7c3.4,0.1,6.2-2.5,6.4-5.9c0.1-3.4-2.5-6.2-5.9-6.4c-1.6-0.1-3,0.5-4.1,1.4
				c-0.2,0.2-0.5,0.5-0.7,0.7c-0.9,1-1.4,2.3-1.5,3.7C160,49.7,162.7,52.6,166,52.7z"/>
		</g>
	</g>
	<g filter="url(#ds1)">
		<g>
			<path fill="#F4F8E8" d="M182.1,84.8c2.2-2.6,1.9-6.4-0.7-8.6c-2.6-2.2-6.4-1.9-8.6,0.7c-1,1.2-1.5,2.7-1.5,4.1
				c0,0.3,0.1,0.7,0.1,1c0.2,1.3,0.9,2.6,2,3.5C176,87.7,179.9,87.4,182.1,84.8z"/>
		</g>
		<g>
			<path fill="#F4F8E8" d="M173.4,92.2c2.2-2.6,1.9-6.4-0.7-8.6c-2.6-2.2-6.4-1.9-8.6,0.7c-1,1.2-1.5,2.7-1.5,4.1
				c0,0.3,0.1,0.7,0.1,1c0.2,1.3,0.9,2.6,2,3.5C167.4,95.1,171.2,94.8,173.4,92.2z"/>
		</g>
	</g>
	<g>
		<g filter="url(#ds2)">
			<g>
				<circle fill="#C7E0F5" cx="445.8" cy="71.5" r="4.9"/>
			</g>
		</g>
		<g filter="url(#ds2)">
			<g>
				<circle fill="#C7E0F5" cx="431" cy="66.1" r="4.9"/>
			</g>
		</g>
		<g>
			<g filter="url(#ds2)">
				<g>
					<circle fill="#FDFCEC" cx="436.4" cy="74.4" r="6.2"/>
				</g>
			</g>
		</g>
	</g>
	<g>
		<g filter="url(#ds2)">
			<g>
				<circle fill="#C7E0F5" cx="440.5" cy="29" r="4.9"/>
			</g>
		</g>
		<g filter="url(#ds2)">
			<g>
				<circle fill="#C7E0F5" cx="450.7" cy="41" r="4.9"/>
			</g>
		</g>
		<g>
			<g filter="url(#ds2)">
				<g>
					<circle fill="#FDFCEC" cx="450.1" cy="31.2" r="6.2"/>
				</g>
			</g>
		</g>
	</g>
	<g>
		<g filter="url(#ds2)">
			<g>
				<circle fill="#C7E0F5" cx="483.1" cy="53.1" r="4.9"/>
			</g>
		</g>
		<g filter="url(#ds2)">
			<g>
				<circle fill="#C7E0F5" cx="469.4" cy="60.8" r="4.9"/>
			</g>
		</g>
		<g>
			<g filter="url(#ds2)">
				<g>
					<circle fill="#FDFCEC" cx="479.2" cy="62.2" r="6.2"/>
				</g>
			</g>
		</g>
	</g>
	<g>
		<g>
			<line fill="none" stroke="#6D6E71" stroke-miterlimit="10" x1="224.5" y1="105.5" x2="288.9" y2="105.5"/>
			<g>
				<polygon fill="#6D6E71" points="286,109.2 287.6,105.5 286,101.8 294.8,105.5 				"/>
			</g>
		</g>
	</g>
	<g>
		<g>
			<path fill="none" stroke="#6D6E71" stroke-miterlimit="10" d="M248.7,105.5c3,0,6.1,1,8.4,3c3.5,3,5.6,7.3,7.2,11.7
				c1,2.7,1.9,5.5,2.6,8.3"/>
			<g>
				<polygon fill="#6D6E71" points="262.7,126.6 266.6,127.3 269.9,124.9 268.2,134.3 				"/>
			</g>
		</g>
	</g>
</g>
</svg>
