<svg id="Layer_1" data-name="Layer 1" xmlns="http://www.w3.org/2000/svg" xmlns:xlink="http://www.w3.org/1999/xlink" viewBox="0 0 580.667 572.797"><defs><style>.cls-1,.cls-4{fill:none;}.cls-2{clip-path:url(#clip-path);}.cls-3{fill:#fccac0;}.cls-4{stroke:#f2afa2;stroke-miterlimit:10;stroke-width:15.293px;}.cls-5{fill:#f2afa2;}.cls-6{fill:#45458e;}.cls-7{fill:#4855a7;}.cls-8{fill:#4764bf;}.cls-9{fill:#4284d7;}.cls-10{fill:#42a8ef;}</style><clipPath id="clip-path"><rect class="cls-1" x="-1268.944" y="-73.848" width="1191" height="715"/></clipPath></defs><title>WhatAreChromosomes</title><g class="cls-2"><path class="cls-3" d="M-824.337-180.637c-40.468,4.26-81.3,7.675-121.581,13.4-32.889,4.673-58.561,22.334-88.773,36.25-39.368,18.134-64.73,31.777-86.906,71.659-20,35.974-30.469,76.548-40.156,116.259L-1213.806,270.3c-5.364,21.989-10.72,45.178-4.519,66.945,8.157,28.633,30.554,41.36,50.559,59.885,24.825,22.987,44.486,55.692,65.427,82.295l136.444,173.338c21.5,27.313,35.213,54.482,70.635,57.961,9.183.9,18.927,0,28.152,0H86.522l.108-891.365Z"/><path class="cls-3" d="M85.63-179.637l-.108,889.365h-952.63c-3.073,0-6.257.1-9.336.2-3.116.1-6.338.2-9.486.2-3.5,0-6.519-.13-9.232-.4-29.187-2.867-43.408-22.055-59.875-44.273-3.219-4.342-6.547-8.832-10.073-13.312l-56.865-72.241-79.579-101.1c-6.647-8.445-13.024-17.31-19.775-26.695-14.137-19.651-28.755-39.972-45.757-55.716-4.395-4.069-8.941-7.891-13.337-11.586-15.763-13.25-30.652-25.766-36.94-47.839s-.543-45.645,4.529-66.434l52.052-213.375c10.455-42.857,20.686-81.168,40.059-116.01,10.353-18.62,22.027-32.5,36.737-43.675,14.412-10.95,31.041-18.96,49.713-27.561,8.083-3.723,15.91-7.75,23.481-11.643,21.12-10.863,41.07-21.123,65.015-24.526,29.319-4.165,59.4-7.154,88.494-10.044,10.825-1.076,22.018-2.188,33-3.344H85.63m1-1H-824.337c-40.467,4.26-81.3,7.675-121.581,13.4-32.889,4.673-58.561,22.334-88.773,36.25-39.368,18.134-64.73,31.777-86.906,71.659-20,35.974-30.469,76.548-40.156,116.259L-1213.806,270.3c-5.364,21.989-10.72,45.178-4.519,66.945,8.157,28.633,30.554,41.36,50.559,59.885,24.825,22.987,44.486,55.692,65.426,82.295l136.445,173.338c21.5,27.313,35.213,54.482,70.635,57.961,3.061.3,6.185.4,9.33.4,6.292,0,12.672-.4,18.822-.4H86.522l.108-891.365Z"/><path class="cls-3" d="M-824.337-180.637c-40.468,4.26-81.3,7.675-121.581,13.4-32.889,4.673-58.561,22.334-88.773,36.25-39.368,18.134-64.73,31.777-86.906,71.659-20,35.974-30.469,76.548-40.156,116.259L-1213.806,270.3c-5.364,21.989-10.72,45.178-4.519,66.945,8.157,28.633,30.554,41.36,50.559,59.885,24.825,22.987,44.486,55.692,65.427,82.295l136.444,173.338c21.5,27.313,35.213,54.482,70.635,57.961,9.183.9,18.927,0,28.152,0H86.522l.108-891.365Z"/><path class="cls-4" d="M-824.337-180.637c-40.468,4.26-81.3,7.675-121.581,13.4-32.889,4.673-58.561,22.334-88.773,36.25-39.368,18.134-64.73,31.777-86.906,71.659-20,35.974-30.469,76.548-40.156,116.259L-1213.806,270.3c-5.364,21.989-10.72,45.178-4.519,66.945,8.157,28.633,30.554,41.36,50.559,59.885,24.825,22.987,44.486,55.692,65.427,82.295l136.444,173.338c21.5,27.313,35.213,54.482,70.635,57.961,9.183.9,18.927,0,28.152,0H86.522l.108-891.365Z"/><path class="cls-4" d="M85.63-179.637l-.108,889.365h-952.63c-3.073,0-6.257.1-9.336.2-3.116.1-6.338.2-9.486.2-3.5,0-6.519-.13-9.232-.4-29.187-2.867-43.408-22.055-59.875-44.273-3.219-4.342-6.547-8.832-10.073-13.312l-56.865-72.241-79.579-101.1c-6.647-8.445-13.024-17.31-19.775-26.695-14.137-19.651-28.755-39.972-45.757-55.716-4.395-4.069-8.941-7.891-13.337-11.586-15.763-13.25-30.652-25.766-36.94-47.839s-.543-45.645,4.529-66.434l52.052-213.375c10.455-42.857,20.686-81.168,40.059-116.01,10.353-18.62,22.027-32.5,36.737-43.675,14.412-10.95,31.041-18.96,49.713-27.561,8.083-3.723,15.91-7.75,23.481-11.643,21.12-10.863,41.07-21.123,65.015-24.526,29.319-4.165,59.4-7.154,88.494-10.044,10.825-1.076,22.018-2.188,33-3.344H85.63m1-1H-824.337c-40.467,4.26-81.3,7.675-121.581,13.4-32.889,4.673-58.561,22.334-88.773,36.25-39.368,18.134-64.73,31.777-86.906,71.659-20,35.974-30.469,76.548-40.156,116.259L-1213.806,270.3c-5.364,21.989-10.72,45.178-4.519,66.945,8.157,28.633,30.554,41.36,50.559,59.885,24.825,22.987,44.486,55.692,65.426,82.295l136.445,173.338c21.5,27.313,35.213,54.482,70.635,57.961,3.061.3,6.185.4,9.33.4,6.292,0,12.672-.4,18.822-.4H86.522l.108-891.365Z"/><path class="cls-5" d="M-43.416,687.517a322.492,322.492,0,0,1-47.332,30.109c-12.884,6.679-35.255,13.8-45.835-1.141-3.955-5.582-2.746-13.571,1.032-19.274s9.626-9.645,15.3-13.471c9.185-6.2,18.792-13.073,22.912-23.362,6.968-17.41-8.047-30.879-24.933-27.072-8.21,1.851-15.408,6.618-22.484,11.172A718.73,718.73,0,0,1-262.41,705.643c-9,3.67-18.42,7.214-28.129,6.721s-19.824-6.093-22.585-15.415c-3.913-13.213,8.251-26,20.97-31.3,18.33-7.642,38.98-10.486,56.711-19.267A380.449,380.449,0,0,0-149.912,588.4c5.781-5.2,11.573-10.828,14.4-18.073s1.849-16.541-4.267-21.345c-12.785-10.04-29.517,1.633-39.988,9.595-10.4,7.91-21.057,15.816-32.744,21.754-8.908,4.526-21.988,1.7-26.49-7.869-6.89-14.638,8.667-24.858,17.551-33.253a286.6,286.6,0,0,0,23.026-24.449c36.07-43.139,61.936-94.889,74.013-149.851,16.632-75.7,7.209-162.861-29.8-231.548-5.864-10.884-12.492-21.33-19.164-31.731-5.975-9.315-13.795-18.692-15.613-29.939-.99-6.121.434-13,5.14-17.038,17.573-15.07,37.682,17.513,46.19,28.728,28.213,37.192,44.912,79.487,56.205,124.46A442.2,442.2,0,0,1-74.77,392.215c-6.175,34.751-16.463,63.516-35.322,93.24-4.335,6.832-8.987,13.666-11.083,21.482s-1.133,17,4.623,22.693c6.521,6.444,17.435,6.511,25.654,2.447s14.276-11.41,19.7-18.8c48.114-65.592,65.32-152.9,45.69-231.842-2.206-8.872-4.872-17.838-4.333-26.964s5.069-18.674,13.467-22.287c9.75-4.2,21.535,1.125,27.927,9.6s8.575,19.322,10.186,29.813c8.861,57.7,8.919,113.645-9.552,169.319a375.462,375.462,0,0,1-42.45,87.745,366.62,366.62,0,0,1-30.057,39.648c-8.531,9.787-22.049,22.647-18.991,37.37,2.064,9.938,13.332,15.88,23.442,14.987s19.009-6.971,26.569-13.742C-8.617,588.4,7.743,561.945,21.257,537.843A287.97,287.97,0,0,0,52.2,454.864c2.578-12.612,6.66-28.048,19.216-30.889,10.028-2.269,20.052,5.993,23.29,15.752s1.4,20.408-.845,30.443C75.044,554.461,25.82,634.621-43.416,687.517Z"/></g><path class="cls-6" d="M573.474,291.832a241.869,241.869,0,0,0-28.836-110.759c.235-.309.469-.63.7-.98,3.69-5.6-.039-12.969-3.721-18.58-6.951-10.591-14.29-20.942-22.108-30.9,3.408-3.439,5.352-8.48,4.065-13.109-1.855-6.671-9.152-10.033-15.723-12.217q-7.143-2.374-14.442-4.227A263.568,263.568,0,0,0,471.4,81.349c-1.279-1.018-2.581-2.006-3.88-3q3.363-.156,6.731-.216c15.4-.258,18.862-13.005,7.527-23.265-8.726-7.9-25.992-10.528-37.06-10.274a93.5,93.5,0,0,0-25.566,4.6c-10.7-4.96-21.525-9.236-31.673-15.26-14.578-8.655-29.254-19.166-44.364-26.52-5.332-2.595-12.376-2.836-16.65,1.274-8.507,8.18,6.933,25.377-8.755,28.375-13.537,2.586-10.623-16.719-21.509-19.35-5.3-1.282-10.884,1.849-14.116,6.243s-4.615,9.84-5.929,15.134q-4.887,19.71-9.776,39.419a34.534,34.534,0,0,0-4.253,3.147q-.211-20.27-.421-40.54c-.059-5.654-.162-11.511-2.569-16.628s-7.8-9.289-13.387-8.405c-4.692.743-8.288,4.845-9.836,9.336s-1.427,9.361-1.289,14.109c.243,8.416.909,16.916,1.171,25.377Q229.668,55.933,224,46.659c-3.378-5.539-6.8-11.339-12.155-15s-13.288-4.479-17.989-.007c-3.558,3.385-4.352,8.919-3.215,13.7s3.9,8.983,6.66,13.045c10.659,15.687,21.875,30.862,33.785,45.352q-2.375,8.266-4.417,16.621-9.577,11.583-18.64,23.557-10.3-3.561-20.723-6.8l-4.047-36.526c-.761-6.864-2.789-15.059-7.8-18.86q.617-11.511.839-23.094c.1-4.91.117-9.943-1.538-14.567s-5.341-8.827-10.169-9.722c-6.38-1.182-12.582,3.831-15.07,9.823s-2.191,12.719-2,19.2a426.9,426.9,0,0,1-2.751,62.406c-5.673-1.251-11.6-2.371-17.228-.93a16.231,16.231,0,0,0-4.124,1.7,86.175,86.175,0,0,1-.309-12.416c.2-4.273.67-8.593-.113-12.8s-3.075-8.4-6.946-10.215c-5.341-2.51-12.045.453-15.356,5.337-7.106,10.48-2.607,28.281-.185,39.676,3.076,14.477,8.538,28.368,14.92,41.694a255.763,255.763,0,0,0-41.252-21.228c-8.125-3.279-19.495-5.13-23.851,2.472-2.506,4.373-1.1,10.137,2.015,14.1s7.62,6.537,11.974,9.076q7.566,4.41,14.884,9.1c.47,9.594,4.322,20.182,6.218,27.043,4.3,15.553,7.375,32.429,12.648,47.866-.184.238-.371.475-.558.712-7.994-15.56-15.927-31.156-24.049-46.648-3.569-6.806-13.294-29.081-24.181-25.5-7.581,2.5-10.933,11.914-9.514,19.77s6.305,14.564,10.714,21.221a283.983,283.983,0,0,1,18.694,32.844q-13.114-1.736-26.342-2.4c-6.725-.331-13.8-.377-19.758,2.751s-10.249,10.472-7.727,16.714c2.531,6.262,10.108,8.472,16.71,9.9,2.119.458,4.263.856,6.42,1.22a14.471,14.471,0,0,0-2.985,6.415c-.857,4.452.05,9.044,1.174,13.436,3.709,14.493,9.987,27.584,17.683,40.332,5.017,8.311,8.038,19.67,14.814,26.611C53.781,368.576,40,354.248,26.41,337.3c-2.583-3.222-5.839-6.759-9.96-6.491-4,.26-6.922,4.3-7.287,8.285s1.2,7.882,2.857,11.527a167.684,167.684,0,0,0,18.585,31.222,171.013,171.013,0,0,0,44.281,41.138c16.074,10.3,31.991,21.532,47.355,33.479,1.165,4.008,2.459,7.926,3.954,11.692.373,1.516.734,3.612,1.127,6.061-9.105,6.932-18.937,18.012-6.7,25.114,3.672,2.13,7.99,1.2,12.031-.6,2.456,6.625,5.978,11.378,11.325,10.6,5.564-.811,9.7-5.957,11.09-11.4a33.174,33.174,0,0,0,.456-11.756c.432-.229.867-.451,1.3-.679q2.643,2.4,5.248,4.825a298,298,0,0,1,26.286,27.59c-3.394,3.768-6.762,7.581-10.159,11.415-3.73,4.208-7.548,8.564-9.387,13.877s-1.228,11.885,2.969,15.629c11.592,10.337,29.84-17.609,35.144-24.712a237.828,237.828,0,0,0,65.393,15.882c8.17.787,18.826,1.7,26.383-2.3,2.816-1.49,3.964-3.688,6.305-5.63,3.722-3.086,8.638-4.874,12.947-7.012,2.714-1.347,5.579-2.728,8.6-2.585,9.094.428,9.063,14.4,13.946,19.674,6.412,6.928,16.778,4.347,18.788-4.436,1.521-6.646,1.164-14.074-.1-21.354a51.542,51.542,0,0,0,3.343-4.11q3.951-5.341,8.029-10.756a66.88,66.88,0,0,0,7.275,12.987c4.659,6.387,15.824,16.752,23.168,7.592,4.942-6.165,1.486-15.179-2.6-23.033a17.932,17.932,0,0,0-1-13.087,34.5,34.5,0,0,0-6.73-9.582c5.351-6.194,10.892-12.161,16.668-17.705,10.294-10.149,21.13-20.006,32.324-29.489a414.441,414.441,0,0,1-17.123,48.85c-1.7,4.015-3.487,8.119-3.67,12.475s1.623,9.1,5.5,11.092c4.263,2.2,9.715.371,13.091-3.034s5.135-8.05,6.745-12.566q8.895-24.96,15.937-50.544c.545.591,1.08,1.192,1.633,1.774a171.527,171.527,0,0,0,16.7,14.944q-.764,4.706-1.5,9.425c-1.016,6.577-2.034,13.251-1.263,19.862,1.691,14.506,17.607,26.548,23.938,7.549a145.132,145.132,0,0,0,5.18-21.183c4.461-.3,7.937-3.376,7.984-11.182.027-4.482-1.9-8.735-4.634-12.34.514-3.8,1.061-7.637,1.711-11.522,3.174-18.97,2.884-38.285,1.508-57.428A193.356,193.356,0,0,0,530.243,398c2.359,1.389,4.921,2.773,7.654,2.613,4.525-.264,7.843-4.909,8.056-9.437s-1.928-8.827-4.388-12.634a85.743,85.743,0,0,0-11.737-14.193q3.053-3.825,5.892-7.812c6.027-8.5,12.748-18.257,15.835-28.252,2.391-7.742,3.957-13.324,12-17.022C572.058,307.353,573.589,301,573.474,291.832Z"/><path class="cls-7" d="M411.614,24.264A170.673,170.673,0,0,0,380.772,3.879C377.146,2.017,373.265.242,369.193.423s-8.315,2.959-8.77,7.01c-.47,4.175,2.969,7.654,6.12,10.433,16.573,14.622,30.475,29.318,45.055,45.67-6.73-7.219-18.13-10.833-26.337-16.331-12.588-8.432-25.593-15.439-40.145-19.9-4.41-1.353-9.033-2.5-13.6-1.837s-9.088,3.5-10.476,7.9c-1.6,5.076,1.42,10.665,5.7,13.829s9.593,4.5,14.689,6.038c22.586,6.819,42.724,16.919,55.448,36.613,13.8,21.364,28.949,40.078,39.26,63.715,15.115,33.631,26.442,69.209,46.082,100.414,2.746,4.363,5.778,8.758,10.156,11.48s10.448,3.358,14.524.2c6.354-4.922,4.337-14.851,1.565-22.4C487.1,185.123,457.327,130.5,427.111,76.427l41.1,65.052c22.5,35.613,42.951,68.19,80.038,90.21,4.564,2.71,9.466,5.3,14.771,5.451s11.067-2.858,12.36-8c1.607-6.4-3.895-12.182-8.888-16.492-17.607-15.2-36.088-31.552-50.939-49.561A629.555,629.555,0,0,1,451.3,71.24,174,174,0,0,0,411.614,24.264Z"/><path class="cls-7" d="M264.262,288.144c-3.04-.734-6.151-1.474-9.263-1.157s-6.278,1.9-7.648,4.71c-1.532,3.143-.433,7.069,1.812,9.75s5.435,4.364,8.584,5.883a188.99,188.99,0,0,0,36.936,12.9c8.668,2.151,19.865,8.379,28.869,7.5-22.769,2.216-45.043,6.857-65.676,17.068-3.054,1.511-6.128,3.175-8.4,5.717s-3.613,6.157-2.637,9.422c1,3.328,4.2,5.628,7.576,6.454s6.916.421,10.348-.114c11.133-1.735,21.291-6.767,32.131-8.855,9.374-1.805,20.168-1.379,29.781-1.777a365.5,365.5,0,0,1,66.651,3.362q10.488,1.494,20.881,3.592a361.452,361.452,0,0,1,98.331,35.123c8.383,4.467,24.092,17.416,34.006,10.208,9.662-7.025-.338-18.869-6.606-23.91-10.367-8.338-23.292-12.7-35.984-16.69a1141.736,1141.736,0,0,0-159.6-37.754c33.23-1.147,67.742.492,100.555-2.679,34.419-3.326,68.8-7.126,103.05-11.884,8.055-1.119,22.192-3.875,23.119-14.434.989-11.274-11.624-14.046-20.2-12.911L433.5,303.211C376.119,310.808,319.793,301.558,264.262,288.144Z"/><path class="cls-7" d="M395.044,179.443c9.218.57,20.775-3.546,21.349-12.764.42-6.764-5.9-12.393-12.527-13.819s-13.471.214-20.128,1.487a187.589,187.589,0,0,1-106.545-10.969c-26.265-10.924-49.628-27.673-74.56-41.37C188.665,94.335,174,87.6,158.542,83.543c-11.466-3.007-29.342-8.433-40.334-1.712-5.123,3.131-8.455,9.8-6.16,15.351,1.664,4.021,5.813,6.552,10.049,7.549s8.65.727,13,.728c35.18,0,59.855,20.763,88.787,37.387,25.33,14.555,52.314,21.951,79.926,31.559-59.138-10.385-117.649-22.709-176.5-34.764-6.093-1.248-12.451-2.492-18.462-.894s-11.512,6.971-11.05,13.174c.67,8.993,11.74,12.611,20.647,14.025l151.859,24.108c47.681,7.57,95.909,30.8,144.483,23.6,6.283-.932,12.977-5.739,12.295-12.054-.412-3.8-3.487-6.9-6.991-8.438s-7.415-1.8-11.234-2.046c-19.869-1.267-41.019.25-59.829-6.442,4.416,1.572,16.959-4.638,21.9-5.538C379.287,177.614,386.643,178.923,395.044,179.443Z"/><path class="cls-7" d="M489.657,152.061c5.612,1.134,11.264,2.192,16.951,3.277,5.62,1.073,11.414,2.146,17.018.99s11.032-5.108,12.122-10.724c2.654-13.667-31.241-17.16-40.992-20.051-18.613-8.424-41.12-12.194-60.735-18.01l-62.694-18.59C332.271,77.371,295.5,61.823,262.253,37.467c-6.555-4.8-13.137-10.087-21.055-11.9s-17.649,1.137-20.549,8.722c-4.164,10.893,18.01,21.845,24.757,25.8C262.608,70.161,279.957,80,297.23,89.958c-17.014-7.7-36.6-11.993-54.358-17.813-11.916-3.905-34.9-14.327-45.385-1.863-19.3,22.95,41.252,31.9,53.052,34.48,83.725,18.283,153.918,75.433,225.36,119.31,7.733,4.75,34.647,16.6,34.435-2.787-.066-6.076-6.094-10.124-11.416-13.057-33.162-18.275-62.76-40.47-94.7-60.862-9.9-6.321-19.5-13.176-29.235-19.752l-14.618-9.876c-3.454-2.334-8.382-7.3-12.369-8.357C394.566,126.008,441.062,142.25,489.657,152.061Z"/><path class="cls-7" d="M53.923,215.22c-4.819-.367-9.763-.722-14.4.635s-8.98,4.816-9.959,9.549c-1.166,5.634,2.816,11.317,7.9,14.009S48.5,242.49,54.24,242.82l54.839,3.156L51.489,257.41c-5.444,1.081-11.045,2.225-15.666,5.3s-8.07,8.6-7.022,14.048c1.182,6.142,7.671,10.085,13.911,10.521s12.317-1.8,18.222-3.864c41.558-14.528,83.389-21.84,127.294-19.219a516.312,516.312,0,0,1,135.529,26.588c8.131,2.77,19.168,4.782,23.546-2.607,2.76-4.658.842-10.956-2.994-14.775s-9.135-5.72-14.277-7.413a447.891,447.891,0,0,0-199.881-18.264c30.395-15.2,65.22-19.727,99.182-18.463s67.443,8.047,100.826,14.415c5.254,1,10.707,1.991,15.9.7s10.051-5.536,10.25-10.881c.17-4.561-3.088-8.7-7.076-10.917-14.136-7.871-37.476-9.565-53.353-12.439a434.99,434.99,0,0,0-61.1-6.637,430.414,430.414,0,0,0-120.1,12.324C94.834,220.775,74.193,216.764,53.923,215.22Z"/><path class="cls-7" d="M129.222,443.341a247.187,247.187,0,0,0,110.854,74.773c13.48,4.46,76.154,26.139,84.208,5.043,4.412-11.59-14.782-15.183-21.88-17q-40.632-10.405-81.264-20.809c-24.047-6.15-44.911-25.052-58.691-45.624-6.509-9.717-12.836-20.572-13.459-32.544-.494-9.489,3.865-17.386,6.875-25.7a41.357,41.357,0,0,0,2.672-11.589c.308-4.988-1.429-10.4-5.58-13.187-15.132-10.147-27.945,16.566-31.476,27.24-5.117,15.469-4.66,32.949,2.39,47.75a54.65,54.65,0,0,1-13.981-37.684c.172-6.634,1.553-13.385-.04-19.827s-7.628-12.54-14.113-11.133c-6.548,1.422-9.389,9.1-10.445,15.714-7.457,46.722,21.819,93.976,54.168,125.138a246.283,246.283,0,0,0,154.664,67.8c4.667.278,9.543.385,13.789-1.573s7.618-6.6,6.591-11.163c-1.513-6.726-10.191-8.308-17.065-8.834-34.64-2.651-68.314-14.68-97.366-33.621-13.937-9.086-26.057-18.237-36.508-31.054C152.13,471.434,141,457.08,129.222,443.341Z"/><path class="cls-7" d="M556.336,340.355c4.854,1.658,9.92,3.383,13.516,7.041,6.734,6.849,3.614,17.261-5.409,18.883-12.877,2.315-28.268-2.259-40.121-6.909-14.333-5.623-27.543-13.717-40.666-21.768A179.521,179.521,0,0,1,523.8,373.374c3.007,3.626,5.915,7.45,7.526,11.877,5.42,14.9-8.047,24-21.319,17.289-7.511-3.8-12.655-10.918-17.944-17.464-25.8-31.932-61.026-55.092-98.082-72.755s-76.27-30.263-114.763-44.526c-6.359-2.357-14.037-7.059-12.506-13.665,7.749-33.447,175.391,55.93,193.55,67.66a535.645,535.645,0,0,1-125.2-112.4c-6.834-8.431-13.463-20.87-6.493-29.188,4.838-5.774,14.167-5.7,20.714-1.978s11.013,10.155,15.418,16.266a434.981,434.981,0,0,0,85.867,88.867,436.636,436.636,0,0,0,52.31,34.923C520.651,328.365,537.393,333.886,556.336,340.355Z"/><path class="cls-7" d="M389.59,424.013c-26.995-7.991-55.535-8.443-83.6-10.619s-56.885-6.437-81.01-20.947c-3.879-2.333-7.7-4.957-12.093-6.053s-9.618-.291-12.417,3.266c-2.705,3.437-2.378,8.553-.246,12.371s5.737,6.575,9.4,8.957A93.95,93.95,0,0,0,251.4,425.631a110.119,110.119,0,0,0-50.994,4.449c-6.051,2.023-12.87,5.846-13.156,12.22-.254,5.661,5.256,10.2,10.848,11.116s11.235-.772,16.75-2.076c44.151-10.439,93.47,5.167,123.578,39.1,15.487,17.456,26.372,39.408,45.353,52.982,3.751,2.683,8.019,5.064,12.631,5.065s9.491-3.149,9.977-7.735c.294-2.771-.99-5.44-2.289-7.9C377.143,481.71,327.457,443.1,271.242,429.605c32.89,2.755,66.074,5.565,97.634,15.225s61.793,26.845,81.326,53.449c3.249,4.424,6.207,9.109,10.093,12.985s8.91,6.948,14.392,7.173c16,.658,13.144-13.758,6.681-22.163-7.909-10.286-14.919-21.192-23.969-30.642A155.8,155.8,0,0,0,389.59,424.013Z"/><path class="cls-7" d="M47.973,325.29c-2.7-6.339-5.583-12.935-10.91-17.3s-13.881-5.637-18.884-.9c-4.382,4.147-4.474,11.318-2.092,16.861,6.75,15.71,16.73,31.129,24.828,46.361,6.317,11.88,10.353,24.521,15.659,36.933a263.537,263.537,0,0,0,28.512,50.632c21.345,29.575,48.724,53.878,78.113,75.208,5.526,4.011,12.832,8.155,18.7,4.672,13.2-7.826-.384-20.436-7.029-25.351L138.963,485.84a206.007,206.007,0,0,0,48.125,17.827c9.474,2.215,27.665-3.078,15.608-15.345-3.652-3.714-8.941-5.176-13.91-6.738-12.2-3.834-24.035-9.192-34.153-17.007-19.84-15.323-31.17-38.689-37.451-62.458-3.191-12.075-7.043-22.54-8.64-35.065-1.907-14.972-5.853-31.048-5.877-46.123-1.632-12.807.095-49.882-20.133-49.744-5.936.04-10.8,5.3-12.394,11.021-2.077,7.458.212,13.45,1.935,20.437,2.043,8.286,2.433,17.26,3.942,25.687a491.13,491.13,0,0,0,50.863,145.984c-12.214-17.582-26.3-34-37.061-52.554-10.745-18.517-17.56-39.411-25.8-58.774Z"/><path class="cls-7" d="M202.177,238.91a598.478,598.478,0,0,1-29.1-117.046c-.676-4.715-1.328-9.544-3.507-13.779s-6.241-7.834-11-8.068c-5.929-.292-11.058,4.786-12.8,10.461s-.873,11.786.133,17.637c11.585,67.392,37.228,130.274,61.012,194.153-32.448-58.2-79.047-104.295-132.036-144.072-4-3-8.139-6.01-12.94-7.394s-10.464-.842-14.075,2.612c-4.77,4.564-4.322,12.664-.855,18.283s9.2,9.374,14.665,13.074A437.092,437.092,0,0,1,147.2,280.813c26,30.067,47.988,59.286,55.831,98.744,2.22,11.17,1.695,40.655,16.848,41.517,7.5.427,13.85-6.381,15.579-13.691,1.991-8.417-.026-19.639-2.293-27.872l-8.933-32.438c7.155,20.068,24.774,30.467,40.672,43.2,3.628,2.907,7.438,5.9,11.986,6.866s10.04-.805,11.762-5.123c2.117-5.3-2.164-10.833-6.126-14.946-15.478-16.066-32.12-32.659-43.5-52.044-11.53-19.648-19.149-41.248-27.714-62.267Q206.491,250.933,202.177,238.91Z"/><path class="cls-7" d="M321.64,477.9c27.439-.773,54.85-.6,82-4.461a694.35,694.35,0,0,0,104.167-23.33c4.667-1.42,9.473-2.986,13.095-6.254s5.739-8.722,3.711-13.159c-1.844-4.034-6.575-6.1-11.011-6.119s-8.692,1.6-12.855,3.132a425.905,425.905,0,0,1-107.608,24.32c-48.217,4.493-99.543,3.641-144.445-16.417-4.2-1.875-8.485-3.929-13.08-4.039s-9.622,2.352-10.85,6.781c-1.728,6.228,4.446,11.644,10.04,14.883,17.414,10.082,39.183,14.079,58.392,20.089a138.215,138.215,0,0,0-54.314,8.606c-6.764,2.531-14.35,7.042-14.519,14.261-.369,15.823,18.218,11.819,26.917,9.278,13.812-4.033,29.359-4.4,43.636-4.123,29.456.573,58.427,6.579,87.531,10.521,22.524,3.05,45.452,5.157,68.125,2.454,19.782-2.359,38.21-2.244,57.638-7.716,19.614-5.524,8.137-22.277-6.526-24.691-6.682-1.1-13.513-.385-20.247.332-29.392,3.131-58.263,7.6-87.865,7.1C368.994,488.923,345.552,483.021,321.64,477.9Z"/><path class="cls-8" d="M361.7,536.432A170.66,170.66,0,0,1,328.6,552.9c-3.825,1.406-7.895,2.694-11.914,2.017s-7.891-3.952-7.849-8.027c.043-4.2,3.881-7.235,7.347-9.609,18.234-12.491,33.825-25.38,50.291-39.831-7.561,6.343-19.317,8.54-28.133,13-13.522,6.833-27.285,12.2-42.273,14.857-4.542.8-9.271,1.373-13.722.163s-8.593-4.583-9.434-9.119c-.97-5.234,2.711-10.411,7.346-13.03s10.07-3.3,15.316-4.2c23.249-4.011,44.47-11.579,59.5-29.574,16.306-19.52,33.623-36.246,46.741-58.448,19.106-31.535,34.689-65.465,57.99-94.041,3.257-4,6.8-7.987,11.481-10.155s10.78-2.058,14.44,1.572c5.706,5.661,2.493,15.269-1.179,22.419-28.3,55.1-64.516,105.683-101.1,155.66L432.176,427c26.68-32.6,50.951-62.44,90.448-79.771,4.86-2.132,10.041-4.1,15.325-3.608s10.636,4.187,11.291,9.454c.815,6.545-5.352,11.615-10.833,15.284-19.331,12.939-39.669,26.913-56.607,42.975a629.67,629.67,0,0,0-74.979,83.316A173.987,173.987,0,0,1,361.7,536.432Z"/><path class="cls-8" d="M218.344,515.835c-.486,3.09-.994,6.247-2.479,9s-4.158,5.072-7.28,5.261c-3.49.211-6.7-2.307-8.312-5.408s-1.95-6.692-2.147-10.182a188.967,188.967,0,0,1,2.232-39.06c1.333-8.83-.132-21.559,4.126-29.541-10.768,20.185-23.585,38.983-40.92,54.132-2.566,2.242-5.279,4.444-8.5,5.566s-7.071.979-9.713-1.173c-2.693-2.193-3.589-6.038-3.061-9.47s2.26-6.55,4.068-9.515c5.867-9.62,14.406-17.076,20.486-26.29,5.258-7.968,9-18.1,13.048-26.83a365.613,365.613,0,0,0,22.421-62.856Q204.952,359.208,207,348.8a361.453,361.453,0,0,0,5.214-104.285c-.915-9.455-6.861-28.925,3.594-35.323,10.19-6.235,17.3,7.539,19.558,15.26,3.731,12.769,2.816,26.382,1.636,39.632A1141.716,1141.716,0,0,1,210.746,425.98c13.787-30.257,25.49-62.765,40.986-91.862,16.254-30.52,32.931-60.822,50.446-90.641,4.118-7.012,12.078-19.016,22.187-15.828,10.794,3.4,8.523,16.116,4.192,23.6Q298.9,302.491,269.24,353.734C240.247,403.827,227.22,459.4,218.344,515.835Z"/><path class="cls-8" d="M49.011,428.994c.895-12.764,5.192-25.054,10.346-36.766,11.175-25.4,26.454-48.737,41.661-71.945L134.295,269.5c2.539-3.876,6.267-8.278,10.794-7.286,3.321.727,5.368,4.329,5.461,7.729s-1.307,6.64-2.679,9.751L130.3,319.523,160.8,284.339c2.929-3.38,5.953-6.837,9.905-8.931s9.1-2.551,12.737.052c4.882,3.494,5.053,11.052,2.163,16.314s-7.979,8.868-12.65,12.639c-36.176,29.2-54.013,79.414-44.366,124.894,4.493,21.182,14.469,42,11.588,63.462-.731,5.444-2.394,10.96-6.034,15.075s-9.587,6.511-14.8,4.792c-6.692-2.2-9.759-9.783-11.664-16.566a223.8,223.8,0,0,1,8.1-143.629A238.327,238.327,0,0,0,81.683,460.617c-1,15.635-14.121,18.547-24.006,6.536C50.067,457.905,48.222,440.23,49.011,428.994Z"/><path class="cls-8" d="M534.672,192.2c4.42-3.638,8.911-7.23,13.419-10.862,4.456-3.588,9.066-7.26,14.554-8.875s12.138-.678,15.741,3.766c8.768,10.813-19.5,29.834-26.75,36.97-12.467,16.186-30.558,30.1-45.135,44.451L459.91,303.538c-29.024,28.585-54.17,59.6-72.057,96.724-3.529,7.319-6.852,15.08-12.985,20.408s-16.111,7.295-22.237,1.963c-8.8-7.656,5.624-27.747,9.719-34.408,10.444-16.984,21.129-33.825,31.692-50.735-11.4,14.8-26.66,27.792-39.6,41.28-8.68,9.049-24.068,29.055-39.179,22.983-27.824-11.18,21.408-47.553,30.611-55.375,65.3-55.5,100.375-138.945,142.8-211.26,4.592-7.828,22.773-30.942,31.7-13.731,2.8,5.393-.618,11.8-3.937,16.892C495.762,170,480.075,203.5,461.472,236.521c-5.766,10.234-11.017,20.8-16.515,31.178l-8.258,15.59c-1.951,3.683-3.966,10.381-6.987,13.191C463,259.907,496.4,223.711,534.672,192.2Z"/><path class="cls-8" d="M213.571,188.522a598.52,598.52,0,0,0-95.6,73.533c-3.462,3.271-6.976,6.646-11.317,8.605s-9.761,2.251-13.631-.525c-4.823-3.461-5.68-10.627-3.513-16.154s6.649-9.771,11.077-13.726c51-45.553,110.2-78.83,168.558-114.043-61.613,25.378-126.772,32.473-193,30.647-5-.138-10.111-.358-14.731-2.262s-8.716-5.85-9.394-10.8c-.9-6.541,4.5-12.6,10.7-14.846s13.033-1.617,19.616-1.111a437.078,437.078,0,0,0,114.26-6.33c39.063-7.362,74.454-16.559,105.143-42.572,8.687-7.363,26.62-30.773,39.02-22.021,6.137,4.332,6.873,13.612,3.679,20.411C340.76,85.155,332.2,92.686,325.3,97.721L298.127,117.56c18.087-11.261,38.35-8.44,58.72-8.52,4.65-.018,9.5.008,13.656,2.083s7.359,6.876,6.021,11.328c-1.643,5.47-8.434,7.135-14.094,7.89-22.114,2.948-45.466,5.585-66.433,13.684-21.251,8.208-40.654,20.379-60.437,31.506Q224.429,181.792,213.571,188.522Z"/><path class="cls-8" d="M348.4,300.8c-3.84-15.362-17.745-32.377-26.11-45.685-11.1-17.666-24.071-34.416-36.031-51.519-9.956-14.237-21.979-25.646-33.494-38.6-8.48-9.543-18.924-17.3-27.156-27.343a263.783,263.783,0,0,1-45-79.888c-2.943-8.415-4.28-20.059,3.655-24.123,4.565-2.337,10.356-.631,14.234,2.724s6.28,8.057,8.651,12.605c32.7,62.7,79.593,114.053,124.348,168.032-3.46-4.613-4.1-15.813-5.574-21.477l-6.08-23.43c-3.875-14.935-7.138-30.063-11.663-44.744A329.393,329.393,0,0,1,293.56,31.152c-.014-6.85.278-14.039,3.743-19.949s11.134-9.916,17.358-7.053c6.243,2.873,8.126,10.68,9.26,17.458,3.367,20.125,2.155,41.853,4.17,62.253,2.269,22.991,5.607,45.93,11.45,68.307,10.192,39.035,28.611,76.906,58.466,104.04,5.131,4.663,10.79,9.294,13.183,15.8,2.335,6.349-.823,16.956-7.484,19.844-8.991,3.9-18.417-5.927-23.688-11.689l-39.426-43.1c15.6,16.742,40.483,47.179,33.5,72.254-1.591,5.713-7.658,10.618-13.276,8.719-3.974-1.343-6.267-5.39-8.2-9.114Z"/><path class="cls-9" d="M16.957,354.6A170.641,170.641,0,0,1,2.311,320.654c-1.2-3.9-2.261-8.029-1.368-12.006s4.375-7.664,8.442-7.4c4.193.271,7.013,4.268,9.2,7.858,11.481,18.886,23.5,35.154,37.04,52.381-5.924-7.894-7.478-19.752-11.448-28.8-6.088-13.874-10.7-27.908-12.538-43.018-.556-4.579-.868-9.332.582-13.711s5.044-8.331,9.619-8.924c5.279-.684,10.249,3.273,12.611,8.043s2.744,10.234,3.363,15.521c2.743,23.433,9.146,45.033,26.3,61.02,18.606,17.343,34.366,35.543,55.823,49.847,30.451,20.792,63.484,38.195,90.752,63.014,3.812,3.47,7.605,7.228,9.516,12.016s1.469,10.876-2.355,14.333c-5.962,5.391-15.382,1.66-22.321-2.395C162.045,457.185,113.5,418.272,65.585,379.023l56.814,51.9c31.1,28.412,59.58,54.268,74.739,94.648,1.865,4.969,3.549,10.249,2.77,15.5s-4.759,10.392-10.053,10.76c-6.58.458-11.308-5.975-14.674-11.647-11.869-20-24.718-41.072-39.836-58.858a629.579,629.579,0,0,0-79.119-79.395A174,174,0,0,1,16.957,354.6Z"/><path class="cls-9" d="M302.628,255.922c-.188-3.122-.37-6.316.489-9.323s2.973-5.847,5.981-6.7c3.364-.956,7.035.816,9.279,3.5s3.341,6.118,4.284,9.485a189.016,189.016,0,0,1,6.2,38.628c.594,8.91,4.757,21.028,2.312,29.738,6.184-22.026,14.667-43.137,28.346-61.654,2.024-2.741,4.2-5.474,7.1-7.26s6.7-2.475,9.738-.94c3.1,1.564,4.8,5.127,5.022,8.592s-.8,6.883-1.931,10.167c-3.665,10.655-10.4,19.77-14.364,30.074-3.425,8.911-4.9,19.612-6.985,29.006a365.561,365.561,0,0,0-8.4,66.2q-.372,10.587-.135,21.187a361.451,361.451,0,0,0,17.3,102.973c2.923,9.038,12.91,26.778,4.072,35.271-8.614,8.277-18.516-3.649-22.377-10.706-6.386-11.67-8.414-25.162-10.106-38.357a1141.576,1141.576,0,0,1-9.114-163.752c-6.97,32.511-11.422,66.773-20.311,98.519-9.323,33.3-19.107,66.472-29.812,99.357-2.517,7.732-7.714,21.165-18.272,20.221-11.273-1.007-11.784-13.911-9.16-22.149q17.967-56.415,35.933-112.83C305.28,370.02,306.074,312.945,302.628,255.922Z"/><path class="cls-9" d="M172.633,365.562c-1.059,9.174-7.143,19.828-16.317,18.773-6.734-.775-11.164-7.988-11.4-14.761s2.578-13.223,5-19.553a187.59,187.59,0,0,0,7.928-106.814c-6.137-27.777-18.52-53.72-27.621-80.671-5.1-15.1-9.155-30.721-10.429-46.65-.945-11.816-3.144-30.367,5.4-40.007,3.983-4.493,11.137-6.6,16.195-3.366,3.666,2.345,5.428,6.874,5.665,11.22s-.8,8.643-1.569,12.927c-6.181,34.633,9.92,62.573,21.2,93.976,9.876,27.493,12.414,55.358,17.019,84.228.171-60.042-1.677-119.808-3.2-179.861-.157-6.218-.264-12.695,2.365-18.332s8.886-10.107,14.911-8.562c8.736,2.24,10.351,13.774,10.178,22.79L205,244.632c-.929,48.269,13.465,99.829-2.165,146.381-2.022,6.021-7.931,11.766-14.027,9.985-3.673-1.074-6.18-4.645-7.078-8.366s-.471-7.616-.04-11.418c2.245-19.783,7.456-40.337,4.174-60.03.771,4.624-7.547,15.88-9.3,20.588C173.6,349.729,173.6,357.2,172.633,365.562Z"/><path class="cls-9" d="M267.809,36.04c.485-4.809,1-9.738,3.156-14.066s6.32-7.994,11.151-8.127c5.751-.157,10.646,4.762,12.4,10.241s1.09,11.4.406,17.114q-3.267,27.27-6.533,54.54L309.77,41.059c2.021-5.17,4.132-10.483,7.971-14.491s9.882-6.433,15.064-4.443c5.839,2.242,8.58,9.323,7.912,15.543s-3.936,11.809-7.006,17.26c-21.607,38.357-36.156,78.251-41.293,121.933a516.311,516.311,0,0,0,2.353,138.094c1.3,8.49,1.339,19.709-6.705,22.721-5.07,1.9-10.933-1.1-14.018-5.545s-4.026-10-4.789-15.357a447.893,447.893,0,0,1,17.152-199.98c-20.31,27.25-30.883,60.737-35.608,94.393s-3.932,67.807-3.531,101.79c.064,5.348.079,10.891-2.1,15.773s-7.217,8.922-12.513,8.179c-4.52-.635-8.018-4.569-9.5-8.885-5.265-15.3-2.83-38.574-2.868-54.709a434.875,434.875,0,0,1,4.2-61.314,430.441,430.441,0,0,1,33.241-116.06C266.086,77.29,265.766,56.265,267.809,36.04Z"/><path class="cls-9" d="M479.144,150.261a247.182,247.182,0,0,1,54.125,122.27c2.021,14.055,12.347,79.563-9.836,83.784-12.185,2.306-12.348-17.221-12.89-24.528q-3.1-41.827-6.2-83.656c-1.827-24.753-16.768-48.615-34.6-65.8-8.422-8.116-18-16.252-29.672-18.969-9.255-2.154-17.794.749-26.507,2.25a41.353,41.353,0,0,1-11.878.595c-4.964-.574-9.99-3.236-12-7.812-7.33-16.68,21.219-24.6,32.348-26.2,16.127-2.319,33.255,1.2,46.587,10.745a54.655,54.655,0,0,0-34.641-20.386c-6.561-1-13.449-.824-19.511-3.525s-11-9.713-8.478-15.85c2.55-6.2,10.605-7.643,17.3-7.52,47.306.871,88.679,38,113.67,75.319a246.285,246.285,0,0,1,39.561,164.173c-.546,4.644-1.3,9.462-3.972,13.3s-7.838,6.339-12.148,4.527c-6.354-2.672-6.386-11.493-5.7-18.352,3.478-34.567-2.445-69.832-15.985-101.76-6.5-15.317-13.373-28.857-24.154-41.4C502.773,177.75,490.6,164.269,479.144,150.261Z"/><path class="cls-9" d="M414.354,403.178c-3.122-27.978,1.45-56.154,4.241-84.168s3.662-57.131-6.382-83.431c-1.615-4.229-3.527-8.453-3.833-12.969s1.4-9.519,5.4-11.649c3.859-2.059,8.837-.837,12.221,1.932s5.465,6.8,7.165,10.832a93.939,93.939,0,0,1,7.072,43.7,110.14,110.14,0,0,1,13.342-49.418c3.055-5.6,8.017-11.642,14.342-10.8,5.618.745,9.118,6.967,9.037,12.634s-2.734,10.924-4.987,16.124c-18.037,41.628-11.343,92.923,16.774,128.527,14.463,18.314,34.16,32.888,44.186,53.959,1.982,4.165,3.576,8.784,2.766,13.324s-4.768,8.791-9.368,8.463c-2.779-.2-5.181-1.931-7.379-3.643-45.608-35.526-74.885-91.225-78.288-148.936-3.069,32.862-6.135,66.024-2.172,98.79S454.054,452,476.811,475.9c3.784,3.975,7.876,7.711,11.009,12.217s5.273,9.993,4.532,15.43c-2.164,15.861-15.855,10.52-22.993,2.681-8.736-9.594-18.239-18.412-25.952-28.982A155.81,155.81,0,0,1,414.354,403.178Z"/><path class="cls-10" d="M129.048,453.889c.129,5.724.178,11.474.247,17.263.068,5.721.105,11.614-2.017,16.927s-6.967,9.962-12.688,10.049c-13.92.21-11.4-33.771-12.534-43.878C97.035,434.446,97.28,411.627,95,391.3L87.72,326.309c-4.537-40.484-13.38-79.419-31.513-116.425-3.573-7.3-7.621-14.7-8.02-22.82s4.222-17.174,12.2-18.7c11.455-2.184,18.339,21.57,21.044,28.906,6.9,18.706,13.536,37.514,20.3,56.269-4.59-18.1-5.374-38.135-7.982-56.644-1.75-12.416-7.969-36.877,6.143-45,25.985-14.966,24.156,46.217,24.619,58.287C127.8,295.815,171.719,374.961,202.356,453c3.317,8.448,10.253,37.025-8.8,33.41-5.97-1.133-8.9-7.779-10.847-13.534-12.163-35.857-28.809-68.9-43.27-103.925-4.482-10.858-9.543-21.514-14.306-32.252l-7.153-16.126c-1.69-3.81-5.711-9.534-6.053-13.645C120.114,355.7,127.93,404.327,129.048,453.889Z"/><path class="cls-10" d="M302.691,552.625c.779,5.07,1.587,10.36,4.556,14.543,5.559,7.833,16.357,6.592,19.54-2.006,4.542-12.27,2.744-28.225.25-40.711-3.016-15.1-8.663-29.524-14.282-43.859a179.507,179.507,0,0,0,28.159,45.81c3.041,3.6,6.294,7.133,10.369,9.5,13.718,7.955,25.041-3.7,20.767-17.949-2.419-8.06-8.523-14.376-14.038-20.733-26.9-31.008-43.508-69.759-54.383-109.343s-16.387-80.4-23.663-120.8c-1.2-6.674-4.481-15.059-11.254-14.713-34.288,1.751,24.233,182.491,32.589,202.43a535.664,535.664,0,0,0-88.648-143.006c-7.1-8.209-18.179-16.921-27.592-11.522-6.535,3.748-8.1,12.944-5.588,20.045s8.062,12.626,13.3,18.036a434.976,434.976,0,0,1,72.391,100.15,436.489,436.489,0,0,1,25.185,57.634C297.16,515.388,299.652,532.84,302.691,552.625Z"/><path class="cls-10" d="M377.211,49.528c-5.766-3.77-11.752-7.77-15.116-13.782S358.985,21.091,364.527,17c4.853-3.585,11.928-2.415,16.966.9,14.279,9.407,27.7,21.942,41.275,32.591,10.585,8.306,22.32,14.5,33.606,21.906a263.494,263.494,0,0,1,44.833,36.968c25.363,26.21,44.475,57.435,60.309,90.115,2.977,6.145,5.772,14.065,1.311,19.235-10.025,11.619-20.05-3.97-23.721-11.376q-9.918-20.01-19.837-40.022a206,206,0,0,1,9.091,50.51c.516,9.716-7.892,26.694-17.849,12.668-3.015-4.247-3.524-9.712-4.188-14.878-1.631-12.68-4.825-25.276-10.74-36.61-11.6-22.225-32.608-37.485-54.9-47.846-11.326-5.264-20.952-10.9-33-14.668-14.4-4.51-29.535-11.219-44.372-13.893-12.321-3.858-49.122-8.674-45.431-28.563,1.083-5.836,7.119-9.7,13.028-10.263,7.707-.734,13.2,2.573,19.778,5.5,7.8,3.468,16.565,5.428,24.595,8.4A491.2,491.2,0,0,1,510.048,153.4c-15.161-15.114-28.852-31.862-45.221-45.72-16.34-13.833-35.711-24.214-53.325-35.729Z"/><path class="cls-10" d="M265.072,186.15a598.4,598.4,0,0,0-110.11-49.216c-4.522-1.494-9.161-2.984-12.947-5.874s-6.616-7.521-6.01-12.245c.755-5.888,6.655-10.045,12.548-10.763s11.756,1.212,17.339,3.231C230.2,134.532,287.6,170.829,346.3,205.469c-51.591-42.172-88.778-96.147-118.621-155.3-2.251-4.461-4.487-9.068-5-14.038s1.009-10.449,5.045-13.4c5.331-3.894,13.227-2.029,18.148,2.371s7.612,10.7,10.293,16.735a437.094,437.094,0,0,0,59.828,97.55c25.029,30.882,49.928,57.661,87.394,72.317,10.606,4.149,39.724,8.814,37.909,23.883-.9,7.458-8.715,12.513-16.215,12.93-8.636.48-19.329-3.477-27.035-7.156l-30.364-14.5c18.5,10.57,25.638,29.743,35.382,47.632,2.223,4.083,4.5,8.359,4.651,13.006s-2.556,9.742-7.11,10.679c-5.594,1.151-10.284-4.035-13.636-8.658-13.1-18.061-26.506-37.36-43.59-51.967-17.315-14.8-37.239-26.1-56.426-38.227Q276.152,192.508,265.072,186.15Z"/><path class="cls-10" d="M479.347,345.758c-5.584,26.875-10.231,53.891-18.805,79.941a694.321,694.321,0,0,1-41.275,98.445c-2.218,4.345-4.6,8.8-8.458,11.792s-9.6,4.117-13.607,1.34c-3.647-2.524-4.846-7.544-4.089-11.915s3.1-8.276,5.343-12.1A425.9,425.9,0,0,0,441.311,411.6c12.9-46.676,21.08-97.353,9.226-145.081-1.108-4.46-2.377-9.044-1.677-13.586s4.007-9.059,8.582-9.49c6.436-.606,10.682,6.423,12.887,12.5,6.864,18.916,6.973,41.048,9.514,61.014A138.216,138.216,0,0,1,497.861,265c3.68-6.213,9.454-12.888,16.591-11.785,15.641,2.417,8.433,20.011,4.4,28.129-6.4,12.887-9.492,28.128-11.729,42.231-4.613,29.1-3.793,58.674-5.028,88.018-.955,22.709-2.911,45.65-9.557,67.5-5.8,19.059-8.925,37.22-17.727,55.384-8.885,18.337-23.36,4.1-23.159-10.764.091-6.771,2-13.371,3.885-19.873,8.248-28.385,17.726-56.02,22.429-85.251C481.874,394.312,480.184,370.2,479.347,345.758Z"/></svg>