<?xml version="1.0" encoding="utf-8"?>
<!-- Generator: Adobe Illustrator 18.1.1, SVG Export Plug-In . SVG Version: 6.00 Build 0)  -->
<!DOCTYPE svg PUBLIC "-//W3C//DTD SVG 1.1//EN" "http://www.w3.org/Graphics/SVG/1.1/DTD/svg11.dtd">
<svg version="1.1" id="Layer_1" xmlns="http://www.w3.org/2000/svg" xmlns:xlink="http://www.w3.org/1999/xlink" x="0px" y="0px"
	 viewBox="0 0 920 758.8" enable-background="new 0 0 920 758.8" xml:space="preserve">
<filter  id="inner-glow1">
	<!--   Shadow Offset   -->
	<feOffset  dx="0" dy="0"></feOffset>
	<!--   Shadow Blur   -->
	<feGaussianBlur  result="offset-blur" stdDeviation="30"></feGaussianBlur>
	<!--   Invert the drop shadow to create an inner shadow   -->
	<feComposite  result="inverse" operator="out" in="SourceGraphic" in2="offset-blur"></feComposite>
	<!--   Color & Opacity   -->
	<feFlood  flood-color="#C10000" flood-opacity="1" result="color"></feFlood>
	<!--   Clip color inside shadow   -->
	<feComposite  result="shadow" operator="in" in="color" in2="inverse"></feComposite>
	<!--   Put shadow over original object   -->
	<feComposite  operator="over" in="shadow" in2="SourceGraphic"></feComposite>
</filter>
<filter  width="170%" height="170%" id="ds1" x="-30%" y="-20%">
	<feOffset  result="offOut" dx="0" dy="1" in="SourceAlpha"></feOffset>
	<feGaussianBlur  result="blurOut" stdDeviation="2" in="offOut"></feGaussianBlur>
	<feComponentTransfer>
		<feFuncA  type="linear" slope="0.5"></feFuncA>
	</feComponentTransfer>
	<feMerge>
		<feMergeNode></feMergeNode>
		<feMergeNode  in="SourceGraphic"></feMergeNode>
	</feMerge>
</filter>
<g>
	<defs>
		<rect id="SVGID_1_" x="-0.1" y="-0.5" width="920" height="759.3"/>
	</defs>
	<clipPath id="SVGID_2_">
		<use xlink:href="#SVGID_1_"  overflow="visible"/>
	</clipPath>
	
		<radialGradient id="SVGID_3_" cx="1689.8495" cy="-7347.1108" r="229.9175" gradientTransform="matrix(1.4051 0 0 -2.5903 -2123.0974 -18612.5684)" gradientUnits="userSpaceOnUse">
		<stop  offset="0.1775" style="stop-color:#C9EAF1"/>
		<stop  offset="0.3565" style="stop-color:#C0DEEA"/>
		<stop  offset="0.6519" style="stop-color:#A8C5DD"/>
		<stop  offset="1" style="stop-color:#87A5CB"/>
	</radialGradient>
	<rect x="-0.1" y="-0.5" clip-path="url(#SVGID_2_)" fill="url(#SVGID_3_)" width="514" height="759.3"/>
	<g clip-path="url(#SVGID_2_)">
		<g>
			<path fill="#231F20" d="M-122.4,1051.1c18.7-49.5,41.3-97.4,62.4-146c12.3-28.5,23.4-57.4,34.5-86.4c10.2-26.7,21-54,26.7-82.1
				c0.1,46,2.8,92,8.3,137.7c2.6,21.6,5.7,43.1,10.3,64.4c4.6,21,9.9,42,12.8,63.3c2.3,16.1,2.1,31.6,1,47.3
				c100.2-1.1,200.4-2.4,300.6-4.1c101.1-1.8,202.2-5,303.1-5.9c4.8-71.9,21-142.4,28.2-214.1c2-19.6,3.2-39.4,3.2-59.1
				c12,67.2,41.4,130.2,69.6,191.9c12.5,27.3,25.7,54.4,37.5,82c69.5,1.4,138.9,4.8,208.2,11.4c-4-8.8-8.1-17.4-12.6-26
				c-7.1-13.7-15.1-26.4-24.1-39c-8.2-11.5-16.7-23.2-21.5-36.6c-7.3-20-9.9-42-13.7-62.9c-4.6-25.5-11.2-50.2-19.2-74.8
				c-9.9-30.4-21-60.4-34.7-89.3c-11.2-23.5-21.6-46.8-27.4-72.3c-4.3-18.9-7.3-38-10.7-57c-7.4-41.7-15.9-84.3-35.6-122.3
				c-9.9-19.1-22.8-36.8-39.1-51c-20.2-17.7-45-29.4-70.3-37.9c-20.9-7-42.5-11.1-63.9-16c-23.6-5.3-46.2-15.5-67.2-27.4
				c-29.5-16.6-59.9-37.5-73.7-69.6c-5.9-13.8-9.1-28.8-11.2-43.6c-3.9-27.5-5.4-56.1-3.2-83.8c0.6-7.2,0.9-17,4.3-23.4
				c0-0.5-0.1-1.1-0.1-1.6c0-0.3,0.3-0.3,0.7-0.1c0.5-0.5,2.4-0.5,3.2-1.2c2-1.5,2.7-4.5,1.5-6.7c3.9-0.3,6.3-5.1,4.1-8.4
				c3.7-0.7,5.6-5.4,3.5-8.5c3.5-0.7,5.5-5.1,3.6-8.2c3.7-0.6,5.8-5.1,3.8-8.3c3.7-0.6,5.8-5.2,3.8-8.4c3.7-0.6,5.7-5.3,3.6-8.4
				c3.7-0.7,5.6-5.4,3.4-8.5c3.7-0.8,5.5-5.5,3.3-8.6c3.6-0.9,5.4-5.6,3.1-8.6c3.6-0.9,5.3-5.6,3-8.6c3.6-0.9,5.3-5.7,2.9-8.7
				c3.6-1,5.2-5.8,2.8-8.7c3.6-1.1,5.1-5.9,2.6-8.8c3.6-1.1,4.9-6,2.4-8.9c3.6-1.2,4.8-6.2,2.2-8.9c3.5-1.3,4.6-6.4,1.9-9
				c3.5-1.5,4.4-6.5,1.5-9.1c3.4-1.6,4.1-6.7,1.1-9.2c3.4-1.8,3.8-7,0.7-9.2c3.3-2,3.4-7.2,0.1-9.3c3.1-2.2,2.9-7.3-0.3-9.2
				c3-2.2,2.7-7.3-0.6-9.2c3-2.3,2.5-7.4-0.8-9.2c2.9-2.4,2.3-7.5-1-9.1c2.9-2.5,2.1-7.6-1.4-9.1c2.8-2.6,1.9-7.6-1.6-9.1
				c2.7-2.7,1.6-7.7-2-9c2.6-2.8,1.2-7.8-2.4-8.9c2.5-2.9,0.9-7.9-2.8-8.8c2.3-3.1,0.5-7.9-3.3-8.7c2.2-3.2,0-7.9-3.8-8.5
				c2-3.3-0.4-7.9-4.2-8.2c1.7-3.3-0.7-7.7-4.5-8c1.7-3.4-0.9-7.7-4.6-7.9c1.6-3.4-1-7.7-4.8-7.8c1.5-3.5-1.3-7.7-5.1-7.7
				c1.4-3.6-1.5-7.7-5.4-7.5c1.3-3.6-1.9-7.7-5.8-7.2c1.1-3.7-2.4-7.6-6.2-6.9c0.8-3.8-2.9-7.4-6.7-6.5c0.5-3.9-3.5-7.2-7.2-5.9
				c0.2-3.9-4.1-6.9-7.7-5.3c-0.1-3.8-4.5-6.5-7.9-4.8c-0.2-3.8-4.7-6.3-8.1-4.4c-0.4-3.8-5-6.1-8.2-4.1c-0.5-3.7-5.2-5.9-8.4-3.8
				c-0.7-3.7-5.4-5.7-8.5-3.5c-0.8-3.7-5.6-5.5-8.7-3.1c-1-3.7-5.8-5.2-8.8-2.8c-1.1-3.6-6-5-8.9-2.5c-1.2-3.6-6.2-4.8-8.9-2.2
				c-1.3-3.5-6.4-4.6-9-1.9c-1.5-3.5-6.5-4.4-9.1-1.6c-1.6-3.4-6.7-4.1-9.1-1.2c-1.7-3.4-6.8-3.9-9.1-0.9c-1.8-3.3-6.9-3.7-9.2-0.6
				c-1.9-3.3-7-3.4-9.2-0.3c-2-3.2-7.2-3.2-9.2,0c-2.1-3.1-7.3-3-9.2,0.3c-2.2-3-7.4-2.7-9.2,0.6c-2.3-3-7.4-2.5-9.2,0.9
				c-2.4-2.9-7.5-2.2-9.1,1.2c-2.5-2.8-7.6-2-9.1,1.5c-2.6-2.7-7.7-1.7-9,1.8c-2.7-2.6-7.7-1.4-9,2.1c-2.8-2.5-7.8-1.2-8.9,2.4
				c-2.9-2.4-7.8-0.9-8.8,2.8c-3-2.3-7.8-0.6-8.7,3.1c-3.1-2.2-7.9-0.3-8.6,3.4c-3.2-2.1-7.9,0-8.4,3.7c-3.2-2-7.9,0.3-8.3,4.1
				c-3.3-1.9-7.8,0.6-8.1,4.4c-3.4-1.7-7.8,0.9-7.9,4.7c-3.5-1.6-7.8,1.2-7.7,5.1c-3.6-1.4-7.7,1.6-7.5,5.4
				c-3.6-1.3-7.6,1.9-7.2,5.7c-3.7-1.1-7.6,2.3-7,6.1c-3.7-0.9-7.4,2.6-6.7,6.4c-3.8-0.8-7.4,3.1-6.3,6.8c-4-0.5-7.3,3.9-5.7,7.6
				c-4.2,0.1-6.8,5.4-4.2,8.7c-4.3,1.1-5.4,7.2-1.8,9.7c-2.3,1.5-3,4.7-1.8,7.1c1.6,3,1.8,0.7,1.4,4.2c-0.2,1.8-1.6,4.2-2.2,5.9
				c-3.1,8.6-5.5,17.5-7.6,26.5c-3.9,16.5-6.7,33.1-11.2,49.4c-4.3,15.9-9.1,32.6-5.5,49.1c3,13.7,11.7,26.3,9.8,40.8
				c-2.8,21.4-16.4,40.9-26.4,59.5c-4.4,8.1-7.3,15.9-2.7,24.8c2.7,5.3,7.5,9.8,13,12c4.8,1.9,10.5,2.1,15.1,4.5
				c4.9,2.6,4,9.3,3.3,14.1c-1,6.9-3.8,11.6-7.6,17.3c-4.4,6.5-4.9,13.5-1.3,20.8c1.7,3.4,6.4,10.4,10.8,9.6
				c-10.6,7.7-10.6,21.1-2.1,30.3c3.3,3.5,6.9,6.7,10.2,10.2c5.1,5.6,4.6,11.8,3.9,19c-1.3,13.3,3.2,26.5,13.9,34.9
				c13.3,10.5,29,8.2,44.4,5.4c13.5-2.5,26.4-2.3,39.8,1.3c3.4,0.9,17.6,5.8,18.7,7.7c1.1,3.1-2.8,16.6-4.5,20.1
				c-6.6,13.7-22.4,22-35.3,28.6c-13.9,7.2-28.5,12.9-42.7,19.4c-27,12.2-53.8,24.7-82.9,31.3c-23.8,5.4-48.9,3.8-72.4,10.2
				c-29.8,8.2-56.1,26.9-77.8,48.4c-19.1,18.9-32,42.3-40.7,67.5c-17.5,50.7-19.1,105.5-38.4,155.6c-10.1,26.1-23.5,50.9-34.9,76.4
				c-12.9,29-22.3,59.4-30.3,90.1c-8.7,33.5-14.4,67.3-18.7,101.5c-2,16.2-6.2,30.9-15.1,44.6c-9,13.8-18.9,27-27.7,40.9
				c-9.6,15.1-18.3,30.7-26.1,46.6C-254.4,1052.7-188.4,1051.9-122.4,1051.1z"/>
		</g>
		<g>
			<g>
				<path fill="#F6E7B9" d="M170.8,167c-0.1,0-0.3-0.1-0.4,0c-0.2,0-0.3,0.2-0.4,0.3c-0.8,0.8-1.8,1.4-2.9,1.8
					c-0.3,0.1-0.7,0.2-1.1,0.2c-0.3-0.1-0.6-0.2-0.9-0.3c-1.4-0.5-3.4,0.2-4.3-1c-2.4,0.6-5.2-0.5-6.6-2.6c-1.8,0.7-4.9,0.7-6.4-0.7
					c-0.1-0.1-0.2-0.2-0.3-0.2c-0.6-0.3-1.2,0.2-1.7,0.5c-1,0.6-2.4,0.5-3.3-0.2c-0.1-0.1-0.3-0.3-0.2-0.4c0-0.1,0.1-0.1,0.2-0.1
					c0.7-0.2,1.5-0.2,2-0.7c0.2-0.2,0.4-0.5,0.7-0.7c0.8-0.8,2.4-0.6,3,0.3c1.1-1.4,2.8-1.5,4.4-0.9c0.2-0.2,0.5-0.7,1.6-1.2
					s3.4-1,4.4,0.3c0.7-0.6,1.7-0.8,2.6-0.7c0.4,0.1,0.9,0.2,1.3,0.2c0.5,0,0.9-0.3,1.3-0.4c1.7-0.6,3.7,0,4.8,1.3
					c0.2,0.2,0.3,0.4,0.6,0.4c0.2,0,0.3-0.1,0.4-0.2c0.9-0.7,2.2-1,3.3-0.6c0.5-0.7,1.4-1,2.1-0.8c0.8,0.2,1.5,0.5,2.3,0.7
					c1.1,0.2,2.1,0.6,3.1,1c0,0,1.3-0.7,1.5-0.8c0.6-0.2,1.3-0.3,1.9-0.2c1,0.1,2.4,0.7,3.1,1.5c0.1,0.1,0.1,0.1,0.2,0.1
					c0.1,0,0.2,0,0.4-0.1c1-0.5,2.3-0.4,3.3,0.2c0.2,0.1,0.4,0.2,0.6,0.3c0.2,0,0.4,0,0.6,0c0.7-0.1,1.5,0.2,1.9,0.8
					c0.1,0.2,0.2,0.4,0.1,0.5c-0.1,0.1-0.2,0.1-0.3,0.2c-0.6,0.3-1.2,0.5-1.9,0.7c-0.2,0.1-0.5,0.1-0.7,0.2
					c-0.2,0.1-0.5,0.2-0.7,0.3c-0.9,0.4-1.9,0.3-2.9,0.6c-1,0.2-1.9,0.6-3,0.7c-2.2,0.2-4.3,0.1-6.5-0.1c-0.3,0-0.5,0-0.8,0
					c-0.4,0.1-0.7,0.3-1,0.4c-1.6,0.8-3.6,0.8-5.2,0C171,167.1,170.9,167.1,170.8,167z"/>
				<path fill="#BE7329" d="M170.8,167.1c-0.2-0.1-0.4-0.1-0.6,0.1c-0.2,0.1-0.3,0.3-0.5,0.5c-0.3,0.3-0.7,0.6-1.1,0.8
					c-0.4,0.2-0.8,0.5-1.2,0.6c-0.4,0.2-0.9,0.4-1.3,0.3c-0.5-0.1-0.9-0.4-1.3-0.4c-0.4-0.1-0.9-0.1-1.3-0.1c-0.5,0-0.9,0-1.4-0.1
					c-0.5-0.1-0.9-0.3-1.2-0.7l0.2,0.1c-1.3,0.3-2.6,0.2-3.8-0.2c-0.6-0.2-1.2-0.6-1.7-1c-0.5-0.4-1-0.9-1.3-1.5l0.3,0.1
					c-0.8,0.3-1.6,0.4-2.5,0.5c-0.8,0-1.7,0-2.5-0.3c-0.4-0.1-0.8-0.3-1.2-0.5c-0.2-0.1-0.4-0.3-0.5-0.4l-0.2-0.2c0.1,0-0.1,0-0.1,0
					c0,0,0,0-0.1,0c-0.3,0-0.6,0.2-1,0.4c-0.3,0.2-0.8,0.5-1.2,0.5c-0.9,0.2-1.8,0-2.5-0.5c-0.1-0.1-0.2-0.1-0.3-0.2
					c-0.1-0.1-0.2-0.3-0.1-0.5c0.1-0.2,0.3-0.2,0.4-0.3l0.3-0.1c0.4-0.1,0.8-0.1,1.2-0.3c0.4-0.1,0.6-0.4,0.9-0.7
					c0.3-0.3,0.7-0.6,1.1-0.7c0.9-0.2,1.8,0.1,2.4,0.8l-0.2,0c0.5-0.6,1.3-1.1,2.1-1.2c0.8-0.1,1.6,0,2.4,0.3l-0.1,0
					c0.2-0.2,0.4-0.4,0.6-0.6c0.2-0.2,0.5-0.3,0.7-0.5c0.5-0.3,1-0.5,1.6-0.6c0.6-0.1,1.1-0.2,1.7-0.1c0.3,0,0.6,0.1,0.8,0.2
					c0.3,0.1,0.5,0.3,0.7,0.6l-0.2,0c0.5-0.4,1.2-0.7,1.8-0.8c0.3,0,0.7,0,1,0c0.3,0.1,0.6,0.2,0.9,0.2c0.3,0,0.6-0.1,0.9-0.2
					c0.3-0.1,0.6-0.3,0.9-0.3c0.7-0.2,1.3-0.2,2-0.1c0.7,0.1,1.3,0.4,1.9,0.8c0.3,0.2,0.5,0.4,0.8,0.7c0.2,0.3,0.4,0.5,0.5,0.4
					c0.1,0,0.2-0.1,0.3-0.3c0.1-0.1,0.3-0.2,0.4-0.3c0.3-0.2,0.6-0.3,1-0.4c0.7-0.2,1.4-0.2,2.1,0.1l-0.3,0.1
					c0.3-0.5,0.8-0.8,1.3-0.9c0.5-0.2,1.1-0.1,1.6,0.1c0.5,0.1,0.9,0.3,1.4,0.5c0.4,0.1,1,0.2,1.4,0.4c0.5,0.1,1,0.3,1.4,0.5
					l0.3,0.1l0.2,0.1l0.1,0l0,0l0,0l0,0c-0.3-0.1-0.1,0-0.1,0c-0.1,0,0,0,0,0l0.2-0.1l0.3-0.2l0.6-0.4c0.3-0.2,0.5-0.2,0.8-0.3
					c0.5-0.1,1-0.2,1.6-0.1c1.1,0.2,2,0.6,2.8,1.2c0.2,0.1,0.5,0.4,0.4,0.3c0,0,0.1,0,0.2-0.1c0.1,0,0.2-0.1,0.4-0.1
					c0.5-0.2,1.1-0.2,1.6-0.2c0.5,0.1,1.1,0.2,1.5,0.5c0.2,0.1,0.4,0.2,0.5,0.2c0.1,0,0.4-0.1,0.7-0.1c0.6,0,1.1,0.2,1.6,0.5
					c0.2,0.2,0.4,0.3,0.6,0.7c0.1,0.1,0.1,0.5,0,0.7c-0.2,0.2-0.3,0.3-0.4,0.3c-0.5,0.2-0.9,0.4-1.4,0.5c-0.3,0.1-0.5,0.1-0.7,0.2
					l-0.4,0.1l-0.1,0l0,0c0,0,0,0,0,0l0,0l0,0l-0.2,0.1c-0.2,0.1-0.4,0.2-0.7,0.3c-0.3,0.1-0.5,0.1-0.8,0.2c-0.5,0.1-1,0.1-1.5,0.2
					c-0.9,0.2-1.9,0.5-2.9,0.6c-1,0.2-2,0.2-3,0.2c-1,0-2-0.1-3-0.2c-1,0-2-0.4-2.8,0.2c-0.9,0.4-1.9,0.7-2.9,0.6
					C172.6,167.8,171.6,167.5,170.8,167.1z M170.8,167c0.9,0.4,1.8,0.7,2.8,0.7c1,0,1.9-0.2,2.8-0.7c0.4-0.2,0.9-0.4,1.4-0.4
					l1.5,0.1c1,0.1,2,0.1,2.9,0.1c1,0,2-0.1,2.9-0.3c0.9-0.2,1.9-0.5,2.9-0.7c0.5-0.1,1-0.1,1.4-0.2c0.2,0,0.5-0.1,0.7-0.2
					c0.2-0.1,0.5-0.2,0.7-0.3l0.2-0.1l0,0l0,0l0,0l0.1,0l0.4-0.1c0.2-0.1,0.5-0.1,0.7-0.2c0.4-0.1,0.9-0.3,1.3-0.5
					c0.1,0,0.2-0.1,0.2-0.1c0,0,0,0,0,0c0-0.1-0.2-0.3-0.4-0.4c-0.3-0.3-0.8-0.4-1.2-0.4c-0.2,0-0.4,0.1-0.8,0.1
					c-0.4,0-0.6-0.2-0.8-0.3c-0.4-0.2-0.8-0.4-1.3-0.4c-0.4,0-0.9,0-1.3,0.1c-0.1,0-0.2,0.1-0.3,0.1c-0.1,0-0.2,0.1-0.5,0.1
					c-0.1,0-0.3-0.1-0.4-0.1c-0.1-0.1-0.1-0.1-0.2-0.2c-0.1-0.1-0.2-0.1-0.3-0.2c-0.7-0.5-1.6-1-2.5-1.1c-0.4-0.1-0.9,0-1.3,0.1
					c-0.2,0.1-0.5,0.1-0.6,0.2l-0.6,0.4l-0.3,0.2l-0.2,0.1c-0.1,0-0.1,0.1-0.3,0.1c-0.1,0,0.1,0-0.1,0l0,0l0,0l0,0l-0.1,0l-0.2-0.1
					l-0.3-0.1c-0.4-0.2-0.9-0.3-1.4-0.5c-0.5-0.1-0.9-0.2-1.4-0.4c-0.5-0.2-0.9-0.3-1.4-0.5c-0.5-0.1-0.9-0.2-1.3-0.1
					c-0.4,0.1-0.8,0.3-1.1,0.7l-0.1,0.2l-0.2-0.1c-0.6-0.2-1.2-0.2-1.8-0.1c-0.3,0.1-0.6,0.2-0.8,0.3c-0.1,0.1-0.2,0.1-0.4,0.2
					c-0.1,0.1-0.2,0.2-0.5,0.3c-0.2,0.1-0.5,0-0.7-0.1c-0.2-0.1-0.3-0.3-0.4-0.4c-0.2-0.2-0.4-0.4-0.7-0.6c-0.5-0.4-1.1-0.6-1.7-0.8
					c-0.6-0.1-1.3-0.1-1.8,0c-0.3,0.1-0.6,0.2-0.9,0.3c-0.3,0.1-0.7,0.2-1,0.2c-0.4,0-0.7-0.1-1-0.2c-0.3-0.1-0.6-0.1-0.9-0.1
					c-0.6,0.1-1.2,0.3-1.7,0.7l-0.1,0.1l-0.1-0.1c-0.2-0.2-0.4-0.4-0.6-0.5c-0.2-0.1-0.5-0.2-0.8-0.2c-0.5-0.1-1.1,0-1.6,0.1
					c-0.5,0.1-1.1,0.3-1.5,0.6c-0.2,0.1-0.5,0.3-0.7,0.5c-0.2,0.2-0.4,0.4-0.6,0.6l0,0l-0.1,0c-0.7-0.3-1.5-0.4-2.3-0.2
					c-0.8,0.1-1.5,0.5-1.9,1.2l-0.1,0.1l-0.1-0.1c-0.5-0.6-1.3-0.8-2.1-0.6c-0.4,0.1-0.7,0.3-0.9,0.6c-0.2,0.3-0.6,0.7-1,0.8
					c-0.4,0.2-0.8,0.2-1.2,0.3c-0.5,0.2-0.5,0-0.2,0.3c0.6,0.4,1.4,0.5,2.2,0.4c0.4-0.1,0.7-0.2,1-0.5c0.3-0.2,0.7-0.5,1.3-0.5
					c0.1,0,0.1,0,0.2,0.1c0.1,0,0.1,0,0.2,0.1l0.2,0.2c0.2,0.2,0.3,0.3,0.5,0.4c0.3,0.2,0.7,0.4,1,0.5c1.5,0.4,3.2,0.4,4.7-0.1
					l0.2-0.1l0.1,0.2c0.3,0.5,0.7,1,1.2,1.4c0.5,0.4,1,0.7,1.5,0.9c1.1,0.5,2.4,0.6,3.6,0.3l0.1,0l0.1,0.1c0.2,0.3,0.6,0.6,1.1,0.6
					c0.4,0.1,0.9,0.1,1.3,0.1c0.5,0,0.9,0,1.4,0.1c0.5,0.1,0.9,0.4,1.3,0.4c0.4,0.1,0.9-0.1,1.3-0.3c0.4-0.2,0.8-0.4,1.2-0.6
					c0.4-0.2,0.8-0.5,1.1-0.8c0.2-0.1,0.3-0.3,0.5-0.5C170.3,166.9,170.6,166.9,170.8,167z"/>
			</g>
			<path fill="#BE7329" d="M153.9,162.9c0.8,0,1.7,0.2,2.4,0.7c0.4,0.2,1.2,1.2,1.6,1.3c0.5,0.1,1-0.5,1.5-0.6
				c0.8-0.2,1.7,0,2.3,0.5c-0.2,0-0.4,0.1-0.6,0c1.4-1.5,3.5-0.9,5-1.9c0,0,0,0,0.1,0.1c-1,1.4-2.7,1.3-4.1,2.1
				c-0.2,0.2-0.6,0.6-0.8,0.5c0,0-0.5-0.4-0.4-0.4c-0.4-0.2-0.8-0.3-1.2-0.3c-0.9,0.1-1.5,0.9-2.3,0.2c-0.5-0.5-0.9-1-1.5-1.4
				C155.3,163.3,154.3,163.2,153.9,162.9z"/>
		</g>
		<path fill="#F8ADAA" d="M347,533.9c15.8-0.2,27.8-4.7,26.7-25.7c0.2,3.6-30.9-8.1-33.7-10.5c-9.7-8.4-12-21-13.6-33.1
			c-5.3-39.1-3.6-80.2-5.5-119.6c-2.1-45.1-4.5-90.2-8.8-135.2c-2.7-28.8-5.6-56.2-10.8-84.3c-3.7-20.1-8.2-43.1-21.3-59.6
			c-24.7-31.1-66-40.2-103-28.3c-2.6,0.8-5.2,1.7-7.8,2.7c-13.8,5.1-27,12-39.2,20.3c-6.1,4.2-11.9,8.7-17.5,13.6
			c-5.6,4.9-11.2,9.6-16.1,15.3c-1.5,1.8-3,3.6-4.4,5.5c-1.3,1.7-2.9,3.4-4.1,5.1c6.4,1.6,7.6,3.8,8.4,5.8
			c0.2,0.6,12.1-5.4,13.1-5.9c4.5-2.3,9-4.4,13.7-6.2c3.7-1.4,7.6-2.7,11.5-3.7c3.9-1,7.6-2.2,11.5-3.2c5.5-1.4,11.1-2,16.6-3.2
			c7.7-1.6,15.6-2.1,23.5-2.2c7.8-0.1,14.6,0.9,22.2,1.8c18.8,2.1,40.3,14,51.5,29.6c12,16.6,19.4,36,23.1,56
			c0.3,1.7,0.4,3.5,0.4,5.2c-0.5,0.4-1,0.9-1.5,1.3c-2.5,2-4.7,1.6-6.2,0.1c-3.1-3.1-3.5-8.1-3.4-12.1c0.1-4.1-1.8-8.5-3.7-12.1
			c-1.1-2-2.5-3.8-4.1-5.4c-1.2-1.2-2.4-2.4-3.8-3.3c-2.8-1.7-6.8-2.5-10-1.8c-2.6,0.5-6.3,2.5-7.8,4.7c-0.6,0.9-1,1.9-1.5,2.8
			c-1,1.7-2.6,3.2-4.5,3.8c-1.3,0.5-2.8,0.5-4.2,0.5c-8.6,0.2-16.9-0.7-25.3-1.6c-4.3-0.5-8.8-0.1-13-0.3c-4.1-0.1-8.2-0.3-12.4-0.4
			c-3.1,0-6.2,0-9.4,0c-8.4,0.1-16.9,0.4-25.3-0.1c-6.3-0.4-12.7-1-19-2.1c-3-0.5-6.9-0.6-8.4-3.7c-0.7-1.3-0.7-2.9-0.6-4.4
			c0.1-1.5,0.9-3,1.2-4.5c0.3-2,0.7-4,0.6-6c-0.1-2.2-1.3-5.7-3.5-6.6c-0.8-0.3-1.7-0.3-2.6-0.1c-0.7,0.2-1.4,0.7-1.9,1.3
			c-0.7,0.8-1,1.8-1.2,2.9c-0.5,2.5,0.1,4.7,1.1,7c0.9,1.9,1.3,4,2.2,6c1.6,3.4,0.6,8.2-0.7,11.6c-0.8,2.1-1.8,4.1-3.3,5.8
			c-1.7,1.9-2.8,4.2-4.5,6.2c0.3-0.3,2.9,1.2,3.2,1.4c2.5,1.6,4.4,5.1,5.7,7.8c1.5,2.9,2.5,6,2.9,9.2c0.4,2.5,0.4,5,0.7,7.5
			c0.2,1.7,0.5,3.4,0.8,5.1c0.2,1,0.7,1.9,1.3,2.7c2.1,2.8,6.3,0.8,6.4-2.4c0.1-4.1-1.6-7,0.3-11.1c2.2-4.6,8-5.9,13-6.8
			c16.2-2.6,32.6-4.7,49.1-4.8c8.3-0.1,16.4,0.7,24.6,1.6c6.2,0.6,14.1,0.4,19.9,3.1c6.6,3.1,7.2,12.3,9.2,18.5
			c2.1,6.6,5.5,12.5,12.3,15.2c11.8,4.8,10.9-8.2,18.5-12.8c11.8-7.1,13.5,18,14.4,24.2c1.8,12.5,2,26.2,2,38.9
			c0,5.6,0,11.2,0.3,16.8c0.6,11.1,0.8,22.2,1.3,33.3c0.2,5.8,0.4,11.6,0.7,17.4c0.9,23.1,1.7,46.3,2.6,69.4c0,0.9,0.1,1.9,0.1,2.8
			c1.1,28.7,11,73.2-9.2,97.7c-8.8,10.7-45.6,23.3-23.5,41.1c9,7.3,19.9,3.1,28.8-0.9c14.9-6.7,23.5-6.3,40.3-5
			C337.4,533.6,342.4,533.9,347,533.9z"/>
		<path fill="#FFFFFF" d="M218.1,184.1c-0.2,0.2-0.4,0.3-0.6,0.5c-2.9,2.1-7.6,1.9-11,1.2c-1.9-0.4-3.3-1.2-4.6-2.7
			c-1.5,2-3.5,2.7-5.9,3.2c-2,0.5-4.2-0.1-6.2-0.4c-2.4-0.4-4.7-1.7-6.2-3.7c-2.2,2.2-5.2,3.6-8.2,3.6c-3.1-0.1-6.1-1.7-7.5-4.5
			c-1.7,1.6-3.7,2.8-5.8,3.8c-0.8,0.3-1.6,0.6-2.5,0.7c-1.1,0-2.2-0.4-3.2-0.9c-1.7-0.9-3.2-2.1-4.5-3.6c-1.1,1.7-3.1,4.1-5.3,3.9
			c-0.7-0.1-1.9-0.3-2.5-0.8c-0.1-0.1-1.9-1.6-2.2-2.2c-1.4,2.6-3.2,4.9-5.8,3.9c-0.9-0.3-2-1-2.5-1.8c-0.3-0.4-0.2-0.6-0.4-1
			c-0.1-0.2-0.8-1.1-0.8-1.2c-0.4,1.6-0.3,3.5-1.5,4.8c-0.5,0.6-1.7,0.9-2.3,0.3c-0.2-0.2-0.3-0.5-0.5-0.8c-0.7-2.1-1-4.3-1.5-6.5
			c-0.6-2.8-0.8-5.6-0.7-8.4c0.1-2.7,0.5-4.5,1.4-7.1c0.2-0.4,0.3-0.9,0.6-1.3c0.3-0.4,0.8-0.6,1.3-0.5c0.4,0.1,0.7,0.5,0.9,0.9
			c0.4,0.8,0.7,1.7,0.7,2.6c1.5-3,5.9-4.9,8.4-2c1,1.2,1.5,2.7,1.8,4.3c-0.4-1.7,3.4-4.9,4.5-5.6c1-0.7,2.6-1.7,3.8-0.9
			c0.6,0.4,1,1,1.3,1.6c0.8,1.5,1.4,3.3,2,4.9c-0.1-1.6,1.9-2.9,3.1-3.7c1.5-1.1,3.2-1.7,5-1.2c1,0.3,1.9,0.9,2.9,1.3
			c0.8,0.3,1.6,0.4,2.4,0.8c0.8,0.3,1.5,1,1.7,1.8c0.6-2.1,2.9-3.4,5.2-3.6c1.4-0.1,2.7,0.4,4.2,0.5c1.5,0,3-0.4,4.4,0.2
			c1.2,0.6,2,1.9,2.3,3.2c1.1-2.2,3.1-3.7,5.7-3.6c1.6,0,3.2,0.6,4.8,0.8c1.1,0.2,2.2,0.2,3.3,0.4c1.9,0.4,3.7,1.6,4.8,3.2
			c-0.1-1,0.7-2,1.6-2.6c0.9-0.5,2-0.7,3-0.9c1.2-0.2,2.5-0.5,3.8-0.2c1,0.2,1.9,0.8,2.9,0.9c1.3,0.1,2.6-0.3,3.9-0.1
			c1.3,0.2,2.3,0.8,2.8,2.1c0.7-1.2,2.1-1.8,3.4-2.3c1-0.4,2-0.8,3.1-0.8c0.9,0,1.8,0.4,2.8,0.6c1.3,0.3,3.1,0.4,4.4-0.1
			c1.3-0.5,1.8-1.1,3.3-0.4c1.5,0.7,2.1,2.6,2.3,4.3c0.6,4,0.1,8.1-1.4,11.5c-0.5,1.1-0.6,2.8-1.5,3.7c-1.9,1.9-4.8,1.7-7.3,1.4
			c-1.2-0.1-2.3-0.3-3.4-0.8c-1.7-0.8-2.9-2.4-3.9-3.9c-0.7,0.8-1.6,1.4-2.5,2C219.1,183.2,218.6,183.7,218.1,184.1z"/>
		<path fill="#BDBEC0" d="M131.2,166.7c0.1-2.7,2.4-5.3,5.2-5.4c3.6-0.1,5,4.1,5.5,7c0.3,1.7,0.4,3.3,0.3,5c0,0.8-0.1,1.6-0.2,2.5
			c0,0.3-0.1,1.4-0.3,1.6c-0.3,0.2-0.1-0.6-0.1-0.7c0.1-0.7,0.1-1.4,0-2.1c0-1.7-0.3-3.5-0.6-5.2c-0.7-3.1-2-7.1-6-6c0,0,0,0,0,0
			c-0.8,0.3-1.6,0.8-2.2,1.4C132.6,164.9,131.6,166.8,131.2,166.7z"/>
		<path fill="#BDBEC0" d="M141.5,168.5c-0.2-3.6,2.3-5.8,5.2-7.4c1.1-0.6,2.3-1.1,3.3-0.1c0.5,0.5,0.9,1.1,1.3,1.7
			c2,3.2,2.6,7.1,2.1,10.7c-0.1,0.8-0.3,1.6-0.5,2.5c-0.1,0.4-0.3,1-0.3,0.3c0-0.7,0.3-1.6,0.3-2.4c0.1-0.8,0.1-1.7,0-2.5
			c-0.3-3.4-1.5-6.5-3.8-9c0,0-0.3-0.2-0.4-0.3c0,0,0,0,0.1,0c-0.7,0-1.6,0.8-2.1,1.2c-0.7,0.4-1.3,0.8-2,1.2
			c-0.9,0.6-1.6,1.4-2.2,2.3C142.3,167.1,141.8,168.6,141.5,168.5z"/>
		<path fill="#BDBEC0" d="M152.9,168c-0.8-0.6,1.6-3.4,2-3.8c1.1-1.1,2.5-1.7,4-2.1c0.8-0.2,1.5-0.2,2.3,0.1c1,0.4,1.8,1.5,2.7,1.9
			c1,0.4,2.1,0.1,3,0.7c0.5,0.3,0.9,0.8,1.1,1.3c0.9,1.6,1,3.5,0.9,5.3c0,0.9-0.1,1.8-0.2,2.8c-0.1,0.8-0.1,1.9-0.4,2.7
			c-0.1,0.2-0.1,0.5-0.2,0.1c-0.2-0.7,0.1-1.8,0.2-2.5c0.1-1.9,0.1-4-0.4-5.9c-0.3-1.3-0.9-2.8-2.4-2.9c-1.4-0.1-2-0.1-3.2-0.9
			c-0.9-0.6-1.5-1.1-2.6-0.9c-1.1,0.2-2.1,0.5-3.1,0.9c-0.9,0.5-1.7,1.1-2.4,1.8C153.7,166.9,153.2,168,152.9,168z"/>
		<path fill="#BDBEC0" d="M167.8,166.9c0.3-2.1,2-3.6,4.1-3.9c1-0.2,2.1-0.1,3.1,0c1.3,0.1,2.5-0.1,3.9-0.2c4.1-0.1,5.8,4.5,6.1,7.9
			c0.1,1.1,0.1,2.3-0.1,3.5c-0.1,0.9-0.2,2.2-0.6,3.1c-0.5,0.9-0.1-0.7,0-1c0.2-1.2,0.2-2.3,0.2-3.5c-0.2-3-1.4-8.6-5.2-8.5
			c-1.1,0-2.1,0.5-3.2,0.5c-1.1,0-2.2-0.3-3.4-0.3c-1-0.1-2.1,0.2-3,0.7C169.3,165.5,168.2,167,167.8,166.9z"/>
		<path fill="#BDBEC0" d="M183.8,168.2c-0.1-2,1.5-3.5,3.2-4.4c1-0.5,2.1-0.8,3.2-0.5c1.1,0.3,2,0.8,3.2,0.9c2.3,0.2,4.8-0.3,6.9,1
			c1.5,0.9,2.3,2.4,2.6,4.2c0.4,2.2-0.1,4.5-0.4,6.7c-0.1,0.4-0.1,0.9-0.2,0.3c-0.2-0.9,0.1-2.3,0.2-3.1c0.1-2,0-4.4-1.3-6
			c-1.5-1.8-4.1-1.7-6.2-1.5c-1.4,0.1-2.8,0.2-4.2-0.3c-0.7-0.3-1.3-0.7-2.1-0.6c-1.1,0.1-2.4,0.8-3.3,1.5c-0.5,0.4-0.8,0.8-1.1,1.3
			C184.1,167.8,184.1,168.1,183.8,168.2z"/>
		<path fill="#BDBEC0" d="M202.4,168.1c0.2-2.1,2.2-3.5,4-4.1c2.1-0.7,4.1-0.2,6.2,0.3c1.8,0.4,3.7,0,5.5,0.4
			c1.9,0.4,2.9,2.1,3.2,3.9c0.3,2,0.5,4.4-0.1,6.4c-0.3,1.1-0.2,0.2-0.2-0.3c0.1-1,0.1-2.1-0.1-3.1c-0.2-1.9-0.4-4.9-2.6-5.6
			c-1.6-0.5-3.5,0.2-5.1,0.1c-2-0.2-4.1-0.9-6.1-0.6c-1,0.2-2.1,0.5-3,1.1C203.7,166.8,202.7,168.2,202.4,168.1z"/>
		<path fill="#BDBEC0" d="M189.7,166.6c1.1-0.9,2.8-0.6,3.8,0.4c-0.1,0-0.4,0-0.5,0c1-1.3,2.8-1.4,4.2-0.8c0,0,0,0.1,0,0.1
			c-1.4,0.4-2.8,0.4-4,1.4c-0.5-0.7-1.2-1.2-2.1-1.3C190.7,166.4,190.1,166.6,189.7,166.6z"/>
		<path fill="#BDBEC0" d="M170.3,165.7c0.7-0.2,1.5-0.3,2.2-0.3c0.6-0.1,1.1,0,1.7-0.1c0.5-0.1,0.7-0.3,1.2-0.5
			c1.5-0.5,3.7,0.9,5,1.6c-0.7-0.1-1.5-0.2-2.2-0.4c-0.9-0.2-1.8-0.7-2.8-0.3C173.8,166.3,171.9,166,170.3,165.7z"/>
		<path fill="#BDBEC0" d="M161.5,165.2c1.9,0.6,3.3,2.9,3.1,4.9C163.6,168.4,162.6,166.8,161.5,165.2z"/>
		<path fill="#BDBEC0" d="M206.8,167.5c1.5-1,2.9-1.3,4.7-1.1c1,0.1,2.1,0.2,2.9,0.7c0.3,0.2,1.5,1.1,1.3,1.5
			c-0.3,0.5-0.8-0.4-1.1-0.6c-0.7-0.5-1.6-0.6-2.4-0.7C210.4,167.1,208.5,167.2,206.8,167.5z"/>
		<path fill="#BDBEC0" d="M224.5,166.8c0.9-0.3,1.8,0.2,2.7,0.3c0.6,0.1,1.2-0.1,1.7-0.3c1.1-0.5,2.1-1.1,3.3-1.4
			c0.1,0,2.4-0.5,1.8,0.2c-0.1,0.2-1.1,0.3-1.3,0.4c-0.6,0.2-1.1,0.4-1.6,0.7c-0.9,0.4-1.9,1.1-2.9,1.3
			C226.7,168.2,225.9,166.9,224.5,166.8z"/>
		<path fill="#BDBEC0" d="M128.6,186.1c-0.1,0.1-1.1-1.7-1.2-1.9c-0.3-0.8-0.6-1.6-0.8-2.4c-0.6-2-0.9-4-1.2-6
			c-0.5-4.1-0.7-9,1.6-12.6c0.6-0.9,1.2-1.6,2.3-1.4c1,0.1,1.8,1,2.2,1.9c0.8,1.8,0.6,3.9,0.5,5.8c0,1.6-0.1,3.2-0.2,4.8
			c-0.4-2.5-0.6-4.9-1-7.4c-0.1-0.7-0.5-3.9-1.9-3.5c0,0,0,0,0,0c-0.4,0.2-0.7,0.9-0.8,1.3c-0.5,1-0.8,2-1,3.1
			c-0.4,2.1-0.4,4.3-0.4,6.5c0.1,2.2,0.2,4.4,0.5,6.6C127.6,182.6,127.7,184.7,128.6,186.1z"/>
		<path fill="#BDBEC0" d="M220.5,167.7c0.2-3.3,4.5-3.5,6.9-3.2c1.9,0.2,3.7,0.6,5.5-0.1c1.1-0.4,2.1-1.2,3.3-1.1
			c3.2,0.1,3.6,4.8,3.9,7.2c0.4,3.3-0.4,6.9-1.9,9.8c1.1-2.7,1.5-5.8,1.2-8.7c-0.2-2-1-8.2-4.2-6.7c-1.4,0.7-2.6,1.5-4.3,1.6
			c-1.5,0.1-3-0.3-4.5-0.6c-1.1-0.2-2.1-0.4-3.1-0.1c-0.6,0.1-1.3,0.4-1.8,0.8C221.2,166.9,220.9,167.6,220.5,167.7z"/>
		<path fill="#FFFFFF" d="M234.1,147.6c-1.1-0.7-2.3-1.3-3.4-1.6c-1.7-0.4-3.5-0.5-5.3-0.4c-1.9,0.1-3.9,0.5-5.6,1.4
			s-3.2,2.4-3.7,4.3c-0.6-1.7-1.9-3.1-3.4-4.1c-1.5-1-3.3-1.5-5.1-1.9c-1.1-0.2-2.2-0.4-3.4-0.3c-2.6,0.1-5.4,1.2-7.4,3
			c-0.8,0.7-1.5,1.7-1.7,2.8c-0.9-1.7-1.4-3.2-2.9-4.4c-1.3-1.1-2.8-1.8-4.5-1.9c-3-0.2-6,0.1-8.5,1.9c-0.8,0.6-2.2,2.4-1.8,3.5
			c-0.6-1.8-1.2-3.8-2.7-5.1c-1.4-1.2-3.4-1.7-5.2-1.6c-4,0.1-7.5,2.5-9.1,5.4c0.3-2.5-2.2-5-5.4-5.3c-3.1-0.3-6.3,1.7-6.7,4.2
			c0.1-2.3-2.4-4.5-5.3-4.6c-2.9-0.1-5.6,1.8-5.8,4.1c-0.3-1.7-2-3.2-4.1-3.6c-1.2-0.2-2.6,0.1-3.6,0.6c-0.6,0.3-1.7,1.3-1.4,1.9
			c-0.7-1.8-1.7-3.5-2.7-5.2c-0.3-0.4-0.7-0.9-1.3-0.9c-0.5,0-0.8,0.4-1.1,0.8c-3.7,5.5-2.7,12.6-0.6,18.4c0.4,1.2,0.8,2.8,2,3.6
			c2.4,1.5,2.8-0.5,3.9-1.7c0.7,0.5,1.5,1.1,2.4,1.4c1.1,0.4,2.8,0.2,3.8-0.2c1.3-0.5,1.9-2,2.5-3c1.7,1.7,2.7,3.7,6.2,4.2
			c0.9-0.6,2.1-1.2,2.8-1.8c0.8-0.7,1.7-2,2.4-2.8c0,0.1,2.6,4.1,7.1,4.4c2.1,0.2,4.1-1.6,5.1-3.2c0.4,2.1,2.7,3.4,4.8,3.5
			c2,0.1,3.4-1.3,5.4-1.1c0.5,0,1,0.2,1.5,0.2c1.7,0,3.1-1.1,4-2.4c-0.5,0.8,2.2,2.5,2.7,2.8c1.4,0.9,4,0.8,5.6,0.4
			c0.7-0.2,1.4-0.5,2.1-0.6c1.4-0.2,3,0.5,4.3,0.1c1.3-0.4,2.4-1.5,2.7-2.8c1.2,2.6,4,4.3,6.8,4.2c0.9,0,1.8-0.2,2.7-0.4
			c2.3-0.3,4.4,0,6.6,0.7c2.3,0.8,4.3-1.4,5.2-3.3c0.3,1.4,1.6,2.3,2.8,3c0.8,0.5,1.7,1,2.7,1.2c1.4,0.2,2.8-0.3,4.1-0.6
			c2.1-0.5,4.2-0.5,6.3-0.4c1.1,0.1,2.6,0.3,3.4-0.6c0.7-0.8,1.7-1.7,2-2.7c0.6-1.7,0.8-3.1,0.9-4.8c0.1-1.7,0.5-3.5-0.1-5.2
			C236.6,149.7,235.4,148.5,234.1,147.6z"/>
		<path fill="#BDBEC0" d="M127.8,160.1c2.4,2.5,6.9,1.7,8.6-1.1c0.9-1.5,1.1-3.6,1.1-5.3c0-0.9-0.4-2.1-0.2-2.9
			c0.1-0.6,0.3,0.3,0.4,0.6c1,3.6,1.1,8.1-2,10.6c-1.3,1.1-3.1,1.5-4.8,1.1c-0.9-0.2-1.8-0.7-2.5-1.4
			C128.2,161.4,127.4,160.4,127.8,160.1z"/>
		<path fill="#BDBEC0" d="M137.3,158.7c1.2,2.3,4.1,3,6.4,3.8c0,0,0,0-0.1,0c0,0,0.1,0,0.1,0c0,0,0,0-0.1,0c0.8-0.4,1.5-1.2,2.2-1.8
			c1.1-1,2-2,2.5-3.5c0.5-1.6,0.4-3.3,0.3-5c0-0.2-0.2-1.2,0-1.3c0.2-0.1,0.3,0.8,0.3,0.9c0.6,3.1,0.8,6.2-1.3,8.8
			c-0.8,0.9-1.6,1.9-2.5,2.7c-0.6,0.6-1.2,0.9-2,0.7c-1.5-0.3-3-1.1-4.2-2.1C138.7,161.8,136.4,159.1,137.3,158.7z"/>
		<path fill="#BDBEC0" d="M148.1,158.6c1.3,1.2,2.5,2.2,4.1,2.9c0.9,0.3,1.8,0.6,2.7,0.9c0.2,0.1,0.7,0.2,0.9,0.2
			c4-0.8,4.6-4.5,4.9-8c0-0.4-0.2-2,0.1-2.3c0.2-0.3,0.2,0.4,0.2,0.6c0.2,1.8,0.2,3.6,0,5.3c-0.3,2.9-3,6.4-6.2,5.9
			c-1.5-0.2-3.3-1-4.5-1.9C150,161.8,147.4,159.1,148.1,158.6z"/>
		<path fill="#BDBEC0" d="M160.7,159.7c-0.3,0.4,1,1.4,1.1,1.5c0.8,0.7,1.8,1.2,2.8,1.4c1.6,0.4,2.5-0.3,4-0.7
			c1.9-0.5,4,0.2,5.9-0.6c1.6-0.7,2.1-2.6,2.4-4.2c0.2-0.9,0.2-1.8,0.3-2.7c0-0.2,0-1.3,0.2-0.8c0.2,0.6,0.1,1.7,0,2.3
			c0,1.1-0.1,2.2-0.4,3.2c-0.5,1.9-1.7,3.3-3.7,3.7c-1.9,0.4-3.7,0.2-5.5,1.1c-1.7,0.9-3.3,0.7-4.9-0.3c-0.9-0.6-1.8-1.3-2.3-2.3
			C160.6,161.1,160.1,159.8,160.7,159.7z"/>
		<path fill="#BDBEC0" d="M163.7,162.4c0.9-2.4,3.2-1.5,5.1-1.4c1.1,0.1,2.1,0.2,3.2,0.3c0.2,0,2.6,0,2.6,0.2
			c0.1,0.4-2.1,0.7-2.3,0.7c-1.2,0.1-2.3-0.3-3.4-0.7c-1.2-0.4-2.1-0.4-3.3,0C165.1,161.6,164.2,162.4,163.7,162.4z"/>
		<path fill="#BDBEC0" d="M176.7,160.6c0.6,1.3,2.3,1.8,3.6,2.1c1.9,0.4,3.3,0.4,5.1-0.1c1.8-0.4,3.7,0.1,5.4-0.4
			c2-0.5,3-2.4,3.5-4.3c0.2-0.7,0.3-1.5,0.4-2.3c0-0.2,0-1,0.2-0.6c0.3,0.4,0,1.6,0,2.1c-0.1,1-0.3,2-0.6,2.9
			c-0.6,1.7-1.9,3-3.7,3.4c-1.7,0.4-3.3,0.2-5,0.8c-2.1,0.8-4,0.7-6.1-0.3c-0.9-0.4-1.7-0.9-2.3-1.6
			C177,162,176.1,160.7,176.7,160.6z"/>
		<path fill="#BDBEC0" d="M194.1,160.4c0.6,1.6,2.8,2.7,4.3,3.1c1.9,0.4,4.1-0.4,6.1-0.4c2.2,0,4.3,1,6.5,0.9
			c2.3-0.1,3.4-1.9,4.2-3.9c0.4-1,0.6-2,0.8-3c0-0.2,0.2-1.7,0.3-1.5c0.2,0.2,0,1.5-0.1,1.8c-0.1,1.1-0.3,2.2-0.6,3.2
			c-0.6,2.1-1.8,3.9-4,4.3c-2.3,0.4-4.5-0.6-6.7-0.4c-2.4,0.2-5,1.2-7.3,0.1c-1-0.5-1.9-1.1-2.6-2
			C194.7,162.4,193.5,160.6,194.1,160.4z"/>
		<path fill="#BDBEC0" d="M215,161.2c0.6,2.1,3.6,3.2,5.5,3.3c0.8,0,1.6,0,2.4-0.2c1.3-0.4,2.4-0.8,3.8-0.8c2.3,0.1,5.4,1,7.5-0.3
			c2.1-1.3,2.5-5,2.7-7.3c0.1-1.1,0.2-2.1,0.1-3.2c0-0.3-0.4-2.5,0.1-1.4c0.4,0.8,0.3,2.1,0.4,3c0,1.3,0,2.6-0.1,4
			c-0.3,2.5-1,5.5-3.6,6.4c-2.5,0.9-5.2,0.1-7.8,0.5c-1.1,0.2-2.1,0.7-3.2,0.8c-1.1,0.1-2.2,0-3.2-0.3c-1.3-0.3-2.4-1-3.2-2
			C216,163.6,214.3,161.3,215,161.2z"/>
		<path fill="#BDBEC0" d="M178.8,161.9c0.6-0.7,1.6-1.1,2.5-1.1c1.4,0,2.4,0.8,3.7,1.2c1.3,0.4,2.4,0,3.7-0.1c0.2,0,2.5-0.5,2.4-0.5
			c0.4,0.5-2,1.2-2.2,1.3c-1.2,0.1-2.6-0.2-3.8-0.2c-1.3-0.1-2.4-0.7-3.7-0.8c-0.6-0.1-1.3,0-1.9,0.1
			C179.3,161.8,179,161.9,178.8,161.9z"/>
		<path fill="#BDBEC0" d="M198.9,162.4c1.1,0.6,1.7-0.4,2.7-0.5c0.8-0.1,1.6,0.3,2.3,0.5c0.7,0.2,1.4,0.3,2,0.4
			c0.8,0.1,1.5,0.1,2.2-0.2c0.7-0.3,1.2-0.6,1.9-0.8c0.9-0.2,2.6-0.1,2.9-1.2c0.2,1.3-1.2,1.8-2.2,2c-1.7,0.3-2.9,1.3-4.6,1.1
			c-0.7-0.1-1.4-0.2-2.2-0.4c-0.7-0.2-1.5-0.6-2.2-0.5c-0.5,0-0.8,0.4-1.4,0.5C199.9,163.3,199.2,162.9,198.9,162.4z"/>
		<path fill="#BDBEC0" d="M218.2,161.9c-0.3,0.2,0.7,0.9,0.8,0.9c0.5,0.2,1.1,0.1,1.6,0c1.1-0.2,2.1-0.3,3.3-0.1
			c1.1,0.2,2.3,0.5,3.4,0.9c0.3,0.1,1.3,0.3,0.7,0.7c-0.5,0.3-2.5-0.4-3-0.6c-1.1-0.2-2.2-0.4-3.3-0.3c-0.7,0.1-1.4,0.3-2.1,0.1
			c-0.4-0.1-0.8-0.5-1.1-0.8C218.3,162.7,218,161.9,218.2,161.9C218.2,161.9,218.2,161.9,218.2,161.9z"/>
		<path fill="#BDBEC0" d="M154.5,163.2c-2.2-0.5-3.5-3-3.5-5.2c0.5,1.2,1,2.6,2,3.5c0.3,0.2,0.5,0.4,0.8,0.6
			c0.2,0.1,0.7,0.2,0.8,0.3C154.7,162.5,154.5,162.9,154.5,163.2z"/>
		<path fill="#EA7F7F" d="M268.9,151.9c0-0.6,0-1.3-0.1-1.9c-1-1.7-2.1-3.3-3.4-4.7c-3.4-3.6-8.5-5.7-13.4-5.5
			c-3.5,0.1-7.4,1.4-9.8,4.2c-1.6,1.9-2.3,4.3-3.4,6.4c-0.2,0.5-0.5,1-0.8,1.5c-0.5-1.8-1.2-3.5-2.6-4.7c-1.9-1.7-4.6-2.2-7-2.2
			c-4.2-0.1-10,0.4-12.5,4.2c-0.9-1.5-1.9-3-3.5-3.8c-2-1-4.4-1.2-6.6-1.2c-3.7,0-8.7,0.4-10.9,3.7c-1.6-2.8-4.5-4.4-7.9-4.6
			c-3.3-0.2-8,0.8-10,3.8c-0.7-1.3-1.6-2.6-3-3.2c-1.5-0.7-3.4-0.9-5-0.8c-3,0.2-5.9,1.5-7.7,3.8c-1.5-2.3-3.9-3.7-6.6-4.1
			c-2.6-0.3-5,0.7-6.3,2.8c-1.2-1.7-2.8-2.7-5.1-2.8c-2.2-0.1-4.1,1-5.4,2.7c-1.2-1.8-3.2-2.8-5.6-2.9c-1,0-2,0-2.8,0.7
			c-0.2,0.2-0.4,0.4-0.6,0.6c-1-2.4-2.6-5.3-5-4.8c-1.7,0.4-2.9,2.3-3.6,4.3c-0.2-2.2,0.4-4.7,0.8-6.6c0.5-2.4,1.1-4.8,0.9-7.3
			c-0.2-2.7-1.3-5.2-3.5-6.8c-1.5-1.1-3.2-1.5-4.9-0.5c-4.8,2.7-3,10-1,13.9c0.6,1.2,1.5,2.4,2,3.7c0.4,1.2,0.4,2.5,0.4,3.7
			c0,2.9-0.6,5.8-1.7,8.6c-1.7,4.4-4.6,8.1-7.9,11.5c1.5,0.5,2.9,1.1,4.1,2c1.9,1.4,3.3,3.3,4.4,5.3c2.1,3.7,3.2,8,4,12.2
			c0.4,2.2,0.8,4.3,1,6.5c0.2,2.1,0.2,4.2,1.1,6.1c0.7,1.6,2,3,3.9,3.2c1.8,0.2,3.5-0.9,4.1-2.6c0.6-1.7,0.3-3.7,0-5.4
			c-0.2-1-0.6-2.4-0.7-3.8c0.8,1,2.1,1.6,3.6,0.9c1.3-0.6,1.8-2.3,2.1-4c1,1.6,2.4,3.1,4.2,3.1c2.1,0,3.8-2,4.7-3.9
			c0.6,1.2,1.4,2.3,2.6,3c1.5,0.9,3.4,0.8,5,0c1.5-0.7,2.5-1.9,3.3-3.2c1.5,2,3.9,3.5,6.4,3.7c3.4,0.3,6-1.3,8-3.7
			c1.7,2.8,5.4,4,8.5,4.3c3,0.3,6.2-1.4,8.1-3.8c1.9,2.9,5.6,3.9,9,4.1c3.7,0.2,7.3-0.5,9.2-3.5c2.1,2.8,6.7,3.4,9.9,3.2
			c3.7-0.3,7.5-2.2,9.3-5.5c2.1,2.9,6,4.9,9.4,5c3.6,0.1,7-2,8.8-5c0.5,1.1,0.9,2.3,1.2,3.5c0.9,3.5,1.3,7,2.6,10.3
			c1.3,3.3,2.7,6.8,4.9,9.7c2.8,3.7,7.5,6.8,12.3,7c0.4-0.6,0.8-1.2,1.2-1.7c-0.5,0-1.1,0-1.7,0c-3.6-0.3-6.9-2.3-9.3-5
			c-2.5-2.7-4-6.2-5.4-9.6c-1.5-3.6-1.9-7.3-2.9-11c-0.6-2.5-1.7-4.7-3.1-7c-0.6,1.7-1.2,3.3-2.4,4.6c-1.6,1.6-4,2.7-6.3,2.6
			c-2.7-0.1-5.4-1.7-7.2-3.6c-1.1-1.1-1.6-2.5-2.3-3.9c-0.6,1.8-1.1,3.5-2.4,4.9c-1.9,2-4.6,3-7.2,3.1c-2.6,0.1-6-0.3-7.8-2.3
			c-0.9-1-1.1-2.6-1.5-3.9c-0.4,1.2-0.7,2.4-1.3,3.5c-1.2,2.5-3.8,3.1-6.4,3.1c-2.7,0-5.7-0.2-7.8-1.9c-1.4-1.1-1.9-2.6-2.5-4.2
			c-1.6,3-4.3,6.2-8.2,5.8c-2.1-0.2-4.6-0.9-6.2-2.3c-1.2-1-1.6-2.3-2.1-3.7c-2.1,3-4.4,5.9-8.4,5.4c-1.9-0.2-3.7-1.3-4.9-2.8
			c-0.8-1-1.3-2.3-1.8-3.5c-0.8,2.6-1.5,5.5-4.6,6.3c-4,1-5.2-4.1-6.2-7c-0.3,1.1-0.5,2.2-0.8,3.3c-0.5,1.5-1.9,4.3-3.8,4.2
			c-2-0.2-3.2-3.2-3.9-4.8c-0.4-1-0.8-2-1.2-3c-0.1,1.1-0.2,2.1-0.4,3.2c-0.1,1-0.2,1.9-0.4,2.9c-0.2,0.8-0.3,2.2-1,2.8
			c-2.4,0.8-2.7-2.8-3-4.5c-0.5,0.9-1.1,1.8-1.3,2.7c-0.6,2,0,4.2,0.4,6.2c0.3,1.6,0.8,4-0.2,5.4c-1.2,1.6-3.3,0.8-4.2-0.6
			c-1.1-1.7-1.1-3.9-1.3-5.9c-0.2-2.2-0.5-4.5-1-6.7c-1.4-7.4-4.1-16.8-11.4-20.3c5.2-5.6,8.6-13,8.3-20.7
			c-0.2-4.1-3.3-7.1-4.1-11.1c-0.4-1.8-0.5-4,0.3-5.7c0.5-1.2,1.8-2.4,3.2-2.1c2,0.2,3.6,2.7,4,4.5c0.7,2.6,0.2,4.9-0.3,7.4
			c-0.6,2.9-1.3,6.1-0.9,9.1c0.2,1.7,1.1,3,2,4.4c0.2-1.3,0.4-2.6,0.9-3.9c0.4-1.2,0.9-2.6,1.8-3.5c0.1-0.1,0.9-0.8,0.8-0.8
			c0,0,0,0.2,0.1,0.2c0.6,0.1,1,0.5,1.4,1c1,1.2,1.6,2.8,2.1,4.2c0.5,1.3,1.1,2.7,1.6,4c0.1-1,0.2-1.9,0.3-2.9
			c0.2-1.7,0.3-2.7,2.3-2.8c3.2-0.1,4.5,2.4,5.5,5c1.1-2.3,2.4-4.9,5.4-4.7c3.3,0.1,4.3,2.7,5.5,5.2c0.4-1.2,0.7-2.7,1.5-3.6
			c1.1-1.3,3-1.7,4.5-1.5c1.6,0.3,3.2,0.9,4.4,2.2c1,1,1.6,2.3,2.2,3.6c0.8-1.3,1.5-2.7,2.7-3.6c1.6-1.2,3.5-1.8,5.5-1.9
			c2.4-0.1,4.6,0.3,5.9,2.5c0.8,1.3,1.4,2.7,2.1,4.1c0.6-2.1,1-3.8,3.1-4.9c2.3-1.3,5.3-1.7,8-1.2c2.3,0.5,4.3,1.8,5.3,4
			c0.5,1,0.8,2.1,1.2,3.2c0.5-1.5,0.9-3.1,2-4.2c2.1-1.9,5.4-2.2,8.1-2.2c2.9,0,6.4,0,8.4,2.4c1.2,1.4,1.9,3.2,2.8,4.8
			c0.7-2,1.3-3.9,3.4-5c2.8-1.5,6.5-1.7,9.6-1.5c3.1,0.2,5.7,1.2,6.9,4.2c0.7,1.8,0.9,3.8,1.3,5.7c0.8-1.4,1.7-2.8,2.5-4.3
			c1.4-2.4,2.1-5.4,4-7.5c2.7-3,7.4-3.8,11.3-3.2c4.2,0.7,8,2.9,10.6,6.3c1.4,1.8,2.7,3.9,3.7,6C269.1,153.3,269,152.6,268.9,151.9z
			"/>
		<path fill="#BDBEC0" d="M123.6,141c-1.5,2.4-2,5.5-2,8.3c0,3.3,0.5,7.1,1.9,10.1c0.4,0.8,1.6,3.1,2.8,2.9c1.1-0.1,1.5-2.5,1.7-3.4
			c0.7-2.7,0.8-5.5,1-8.2c0.6,3.2,0.7,6.4,0,9.7c-0.3,1.4-0.8,3.3-2.5,3.5c-1.7,0.2-3.2-1.6-4-2.9c-1.9-3.1-2.4-7.3-2.2-10.9
			C120.5,146.9,121.3,143.2,123.6,141z"/>
		<g>
			<path fill="#EA7F7F" d="M96.1,105c0,0,1-0.5,2.9-1.4c0.9-0.5,2.1-1.1,3.6-1.7c1.4-0.7,3-1.5,4.9-2.4c0.9-0.4,1.9-0.9,2.9-1.3
				c1-0.4,2.1-0.9,3.2-1.4c2.3-1,4.7-2,7.4-3c5.3-2,11.4-4.1,18.1-6c6.7-1.9,14.1-3.6,22-4.9c7.9-1.3,16.3-2.2,25-2.5
				c8.7-0.2,17.8,0.3,26.9,2.3c4.5,1,9,2.3,13.3,4.1c4.3,1.8,8.5,4,12.4,6.5c4,2.5,7.8,5.2,11.4,8.2c3.6,3,6.9,6.4,9.8,10
				c2.9,3.6,5.4,7.4,7.6,11.3c2.2,3.9,4.2,7.9,6,11.9c3.5,8,6.2,16,8.1,23.8c0.5,1.9,0.9,3.9,1.3,5.8c0.2,0.9,0.4,1.9,0.6,2.8
				c0.2,0.9,0.4,1.9,0.6,2.8c0.2,1,0.3,1.9,0.2,2.9l0,0.2l0,0.2c0,0.1,0,0.2-0.1,0.4c-0.1,0.3-0.2,0.6-0.3,0.8
				c-0.3,0.5-0.6,0.9-1,1.3c-0.8,0.7-1.7,1.2-2.6,1.5c-0.9,0.3-2,0.3-3,0c-1-0.3-1.8-0.9-2.5-1.6c-0.6-0.7-1.1-1.5-1.5-2.3
				c-0.8-1.6-1.2-3.3-1.3-4.9c-0.3-3.3-0.2-6.2-0.7-8.9c-1.1-5.4-3.8-9.6-6.5-12.4c-2.7-2.9-5.5-4.3-7.5-5c-1-0.4-1.8-0.5-2.3-0.6
				c-0.5-0.1-0.8-0.1-0.8-0.1l0.1-1.1c0,0,0.3,0,0.9,0.1c0.6,0.1,1.4,0.2,2.5,0.6c2.1,0.7,5.2,2.2,8.1,5.2c2.9,3,5.7,7.4,6.9,13.1
				c0.6,2.9,0.4,6,0.8,9c0.2,1.5,0.5,3,1.2,4.4c0.7,1.4,1.7,2.7,3.1,3.1c1.3,0.4,3-0.1,4.2-1.2c0.3-0.3,0.5-0.6,0.7-0.9
				c0.1-0.1,0.1-0.3,0.2-0.5c0,0,0-0.2,0.1-0.3c0,0,0-0.2,0-0.1l0-0.2c0-0.8-0.1-1.7-0.2-2.6c-0.2-0.9-0.4-1.8-0.6-2.7
				c-0.2-0.9-0.4-1.9-0.6-2.8c-0.4-1.9-0.9-3.8-1.3-5.7c-1.9-7.7-4.6-15.6-8.1-23.5c-3.6-7.8-7.8-15.8-13.5-22.8
				c-2.8-3.5-6-6.7-9.5-9.6c-3.5-2.9-7.3-5.6-11.2-8c-3.9-2.4-8-4.5-12.2-6.3c-4.2-1.7-8.6-3-13-4c-8.8-1.9-17.8-2.4-26.4-2.2
				c-8.6,0.2-16.9,1.1-24.7,2.5c-7.8,1.3-15.1,3-21.7,4.9c-6.7,1.9-12.6,3.9-17.9,5.9c-2.6,1-5.1,2-7.3,2.9c-2.2,1-4.3,1.9-6.1,2.7
				c-3.6,1.7-6.5,3.2-8.5,4c-1,0.4-1.8,0.7-2.4,0.9c-0.5,0.2-0.8,0.2-0.8,0.2L96.1,105z"/>
		</g>
		<g>
			<path fill="#EA7F7F" d="M245.4,196.5c0.2,0.6,0.4,1.1,0.6,1.6c0.2,0.5,0.4,1.1,0.7,1.6c0.5,1,1.1,2,1.7,3c1.3,1.9,2.9,3.6,4.7,5
				c1.8,1.4,3.9,2.4,6.1,2.8c0.5,0.1,1.1,0.2,1.7,0.2c0.6,0,1.1,0.1,1.6,0c1-0.1,2-0.5,2.9-1.1l-0.1,0.1c1.3-1.3,2.4-2.9,3.2-4.7
				c0.4-0.9,0.8-1.7,1.2-2.7c0.4-1,1-1.9,1.7-2.7c1.4-1.6,3.1-3,5.3-3.6c1.1-0.3,2.3-0.3,3.4,0c0.3,0.1,0.5,0.2,0.8,0.3l0.2,0.1
				l0.1,0c0,0,0.2,0.1,0.2,0.1l0.3,0.2l0.3,0.2l0.3,0.3c0.2,0.2,0.5,0.3,0.7,0.5c1.6,1.4,2.8,3.3,3.5,5.2c0.8,1.9,1.3,3.9,1.6,5.9
				c0.7,3.9,1.2,7.9,1.6,11.9c0.8,8,1.2,15.9,1.5,23.9l0.8,23.9c1.1,31.8,2.2,63.7,3.4,95.5l0.9,23.9L297,400
				c0.2,3.9,0.5,7.9,0.8,11.9c0.7,7.9,1.5,15.9,1.9,23.8l0.6,11.9c0.2,4,0.2,8,0.1,12c-0.2,8-1.2,16.1-3.9,23.8
				c-1.3,3.8-3.1,7.5-5.4,10.9c-2.3,3.4-5,6.5-8.1,9.1c-6.3,5.2-13.7,8.5-19.4,13.8c-1.4,1.3-2.7,2.7-3.8,4.3
				c-0.5,0.8-1.1,1.6-1.5,2.4l-0.1,0.2c0,0.1,0,0,0,0l0,0.1l-0.2,0.3c-0.1,0.2-0.1,0.4-0.2,0.6c-0.1,0.4-0.2,0.8-0.3,1.3
				c-0.3,1.7,0,3.6,0.7,5.1c0.8,1.7,2,3.2,3.2,4.8l0,0L261,536c0.7,0.3,1.1,0.9,1.5,1.3c0.3,0.4,0.6,0.8,0.9,1.1l-0.2-0.1
				c2,1.4,4.2,2.6,6.4,3.3c0.6,0.2,1.1,0.3,1.7,0.5c0.6,0.1,1.2,0.2,1.7,0.3c0.6,0.1,1.2,0.1,1.8,0.1l0.9-0.1l0.9-0.1l-0.1,0
				c2.9-0.7,5.7-1.1,8.3-2c0.7-0.2,1.2-0.5,1.9-0.8l2-0.9c1.3-0.6,2.7-1.2,4-1.7c2.7-1.1,5.4-2.2,8.3-3c2.8-0.9,5.7-1.6,8.6-2l0.1,0
				l0.1,0c1.8,0,3.6,0,5.2-0.4l0.1,0l0.1,0c8.2-0.5,16.3,0.8,24.2,1.4c4,0.3,7.9,0.4,11.9,0.1l1.5-0.1l1.5-0.2
				c1-0.1,1.9-0.3,2.9-0.5c0.5-0.1,1-0.2,1.5-0.3c0.4-0.1,0.9-0.2,1.3-0.4c0.9-0.3,1.8-0.7,2.6-1.1l0.7-0.3l0.6-0.3
				c0.4-0.2,0.8-0.5,1.1-0.7c0.8-0.5,1.5-1.2,2.1-1.8c1.3-1.4,2.4-2.9,3.2-4.6c0.8-1.7,1.3-3.5,1.2-5.3c0-1.8-0.6-3.5-1.7-4.9
				c-0.1-0.1-0.3-0.4-0.4-0.5c-0.1-0.1-0.3-0.2-0.5-0.4c-0.3-0.3-0.7-0.5-1.1-0.8c-0.8-0.5-1.7-0.9-2.6-1.3
				c-1.8-0.8-3.7-1.4-5.6-2.1c-3.7-1.3-7.7-2.3-11.5-3.9c-1.9-0.8-3.8-1.8-5.5-2.8c-1.8-1.1-3.4-2.1-5.1-3.3
				c-0.9-0.6-1.7-1.5-2.4-2.4c-0.6-0.8-1.2-1.7-1.7-2.5c-1.1-1.7-2.1-3.6-2.9-5.6c-0.7-2-1.3-3.8-1.9-5.8c-0.6-2-1.1-3.9-1.6-5.9
				c-1-3.9-1.7-7.9-2.3-11.9c-0.6-4-1.1-8-1.5-12c-0.4-4-0.7-8-0.9-12.1c-0.2-4-0.4-8-0.5-12.1l-0.2-6l-0.2-6
				c-0.9-32.1-1.7-64.3-3.2-96.4c-0.7-16.1-1.6-32.1-2.6-48.1c-1-16-2.2-32-3.8-48c-1.5-16-2.8-32-4.5-48c-0.8-8-1.7-16-2.8-23.9
				l-1.4-12c-0.5-4-1.1-7.9-1.8-11.9c-1.3-7.9-3.1-15.7-5.4-23.4c-2.3-7.7-5-15.2-8.7-22.2c-3.7-7-8.3-13.6-13.5-19.7l-1-1.1
				l-0.2-0.3l-0.2-0.3l-0.5-0.6l-1-1.1l-1-1.1c-1.4-1.4-2.8-2.7-4.3-4c-3-2.6-6.3-4.9-9.6-6.9c-13.6-8.2-29.5-12.3-45.3-12.7
				c-16-0.6-31.4,4.6-46.2,10.5c-7.4,3-14.7,6.3-21.5,10.5c-6.8,4.2-13.5,8.6-20,13.3c-6.4,4.7-12.7,9.8-18.4,15.3
				c-1.4,1.4-2.8,2.8-4.2,4.3c-0.7,0.7-1.4,1.5-2,2.2l-2.1,2.2c-1.4,1.5-2.8,2.9-4.1,4.4c-0.7,0.7-1.3,1.5-2,2.2
				c-0.3,0.4-0.6,0.8-0.9,1.1c-0.2,0.2-0.3,0.4-0.4,0.6c-0.2,0.2-0.3,0.4-0.4,0.4l-1.1-0.3c0-0.4,0.2-0.6,0.3-0.9
				c0.1-0.2,0.3-0.5,0.4-0.7c0.3-0.4,0.6-0.8,0.9-1.2c0.6-0.8,1.2-1.6,1.9-2.4c1.3-1.6,2.6-3.1,3.8-4.7l2-2.3
				c0.7-0.7,1.4-1.5,2.1-2.2c1.4-1.5,2.8-2.9,4.3-4.3c5.8-5.7,12.1-10.8,18.6-15.6c6.5-4.8,13.3-9.2,20.2-13.4
				c7-4.2,14.3-7.6,21.8-10.6c7.5-3,15.1-5.6,23-7.7c7.9-2.2,16-3,24.2-2.9c8.1,0.2,16.2,1.4,24.1,3.5c7.8,2.1,15.4,5.3,22.4,9.5
				c3.5,2.1,6.8,4.5,9.9,7.1c1.6,1.3,3.1,2.7,4.5,4.2l1.1,1.1l1,1.1l0.5,0.6l0.3,0.3l0.2,0.3l1,1.2c5.2,6.2,9.9,12.9,13.7,20.1
				c3.9,7.2,6.6,14.9,8.9,22.6c2.3,7.8,4.1,15.7,5.4,23.6c0.7,4,1.3,8,1.8,12l1.4,12c1,8,1.9,16,2.8,24c1.7,16,3,32,4.5,48
				c1.5,16,2.7,32.1,3.8,48.1c1,16,1.9,32.1,2.6,48.2c1.4,32.1,2.3,64.3,3.2,96.4l0.2,6l0.2,6c0.2,4,0.3,8,0.5,12
				c0.2,4,0.5,8,0.9,12c0.4,4,0.8,8,1.5,11.9c0.6,3.9,1.4,7.9,2.3,11.7c0.4,1.9,1,3.8,1.5,5.8c0.6,1.9,1.2,3.9,1.8,5.7
				c0.7,1.8,1.6,3.5,2.6,5.1c0.5,0.8,1.1,1.6,1.7,2.4c0.5,0.7,1.1,1.3,1.9,1.9c1.6,1.1,3.3,2.2,5,3.2c1.7,1,3.4,1.9,5.2,2.7
				c3.6,1.5,7.5,2.5,11.4,3.9c1.9,0.7,3.8,1.3,5.7,2.1c1,0.4,1.9,0.9,2.8,1.4c0.5,0.3,0.9,0.6,1.4,0.9c0.2,0.2,0.5,0.4,0.7,0.6
				c0.3,0.3,0.3,0.3,0.6,0.6c1.4,1.7,2.2,4,2.2,6.3c0.1,2.2-0.5,4.4-1.4,6.3c-0.9,1.9-2.2,3.7-3.6,5.2c-0.7,0.8-1.6,1.5-2.4,2.1
				c-0.4,0.3-0.9,0.6-1.4,0.9l-0.7,0.4l-0.7,0.3c-0.9,0.5-1.9,0.9-2.9,1.2c-0.5,0.2-1,0.3-1.6,0.5c-0.5,0.1-1,0.2-1.5,0.3
				c-1,0.2-2,0.4-3,0.5l-1.5,0.2l-1.5,0.1c-4.1,0.3-8.2,0.2-12.2-0.1c-8.1-0.6-16-1.8-23.9-1.4l0.2,0c-2,0.5-3.9,0.4-5.7,0.5l0.2,0
				c-2.8,0.4-5.6,1.1-8.3,1.9c-2.7,0.8-5.4,1.9-8.1,3c-1.3,0.6-2.7,1.1-4,1.7l-2,0.9c-0.6,0.3-1.4,0.6-2.1,0.9
				c-2.9,1-5.8,1.4-8.5,2.1l-0.1,0l0,0l-1,0.1l-1,0.1c-0.7,0-1.4,0-2-0.1c-0.7-0.1-1.3-0.2-2-0.3c-0.7-0.1-1.3-0.3-1.9-0.5
				c-2.5-0.8-4.9-2.1-7-3.6l-0.1-0.1l-0.1-0.1c-0.4-0.4-0.7-0.8-1-1.2c-0.3-0.4-0.5-0.6-0.8-0.7l-0.2-0.1l-0.2-0.2l0,0
				c-1.2-1.6-2.4-3.2-3.4-5.1c-1-2.1-1.3-4.3-1-6.5c0.1-0.5,0.2-1.1,0.4-1.6c0.1-0.3,0.2-0.6,0.3-0.8l0.2-0.3l0-0.1
				c0,0,0.1-0.2,0.1-0.2l0.1-0.2c0.5-0.9,1.1-1.8,1.7-2.6c1.2-1.7,2.6-3.2,4.1-4.6c6.1-5.5,13.5-8.9,19.5-13.8
				c6-5,10.4-11.7,12.9-19.1c2.6-7.4,3.6-15.3,3.8-23.2c0.1-3.9,0.1-7.9-0.1-11.9l-0.6-11.9c-0.4-7.9-1.2-15.8-1.9-23.8
				c-0.3-4-0.7-7.9-0.8-12l-0.5-11.9l-0.9-23.9c-1.2-31.8-2.2-63.7-3.3-95.5l-0.8-23.9c-0.3-8-0.6-15.9-1.4-23.8
				c-0.4-3.9-0.9-7.9-1.6-11.8c-0.3-1.9-0.8-3.8-1.5-5.6c-0.7-1.8-1.7-3.4-3.1-4.6c-0.2-0.2-0.3-0.3-0.5-0.4l-0.3-0.2l-0.3-0.2
				l-0.3-0.2l-0.2-0.1c-0.2-0.1-0.4-0.2-0.6-0.2c-0.8-0.2-1.7-0.2-2.5,0c-1.7,0.4-3.2,1.6-4.4,3c-0.6,0.7-1.1,1.5-1.5,2.3
				c-0.4,0.9-0.8,1.8-1.3,2.7c-0.9,1.8-2.1,3.6-3.6,5.1l-0.1,0.1l-0.1,0c-1.1,0.7-2.3,1.3-3.7,1.4c-0.7,0-1.3,0-1.9,0
				c-0.6-0.1-1.3-0.2-1.9-0.3c-2.5-0.5-4.8-1.7-6.8-3.2c-2-1.5-3.7-3.3-5.1-5.4c-0.7-1-1.3-2.1-1.9-3.2c-0.3-0.6-0.5-1.1-0.7-1.7
				c-0.2-0.6-0.4-1.2-0.6-1.7L245.4,196.5z"/>
		</g>
		<g>
			<path fill="#E5A5B0" d="M104.8,560c-0.2,3.4,0.1,6.9-0.7,10.1c-0.6,2.3-2.3,3.9-3.5,5.9c-1.3,2.1-2,4.4-3.4,6.5
				c-2.2,3.3-4.9,6.8-6.4,10.5c-1.8,4.4-4.2,8.7-6.4,13c-1.9,3.5-4.4,6.8-6.1,10.4c-2,4.3-3.5,8.7-5.5,13c-1.2,2.7-2.3,5.5-3.5,8.2
				c-1.4,3.1-2.8,6.4-3.9,9.7c-2.1,6.7-3.3,13.8-6.4,20.2c-0.9,2-2,3.9-2.9,5.9c-2.6,5.6-4.2,11.1-6.1,16.9
				c-2.6,7.9-5.1,15.9-5.5,24.3c-0.5,10.6-2.3,21.1-2.7,31.7c-0.4,10.6-0.3,21.3,0.4,31.9c1.3,20.6,1.7,52.2,17.6,67.5
				c22,21.2,46.9,4.7,71.3-2.1c13.1-3.6,26.6-9,38.3-15.9c19.8-11.8,43.6-26.3,58.8-43.5c9-10.2,17.3-19.4,27.3-28.4
				c13.8-12.4,22-26.9,30-43.4c5.9-12.2,9.5-21.4,9.9-35.4c0.6-18.1-1.1-35.8-2.9-53.7c-0.8-7.7-4.1-16.1-10.1-22.6
				c3.1-6.8,6.6-18.4,5.7-27.2c-2.2-20.4-5.1-40.4-7-61.2c-2.6-28.6,10.5-68.7-13.8-91.2c-5.1-4.7-11.8-8.4-20.8-10.8
				c-2.8-0.8-5.6-1.4-8.4-1.9c-18.3-3.2-36.8,0.2-52.6,10.1c-15.8,9.9-28,24.8-37.8,40.4c-12.5,19.7-21.1,41.4-30.4,62.5
				c-1.4,3.1-2.6,6.5-3.6,9.7c-1.3,4.3-2.9,8.5-4.4,12.8c-1.5,4.6-3.3,9.1-4.2,13.8C104.9,558.5,104.8,559.3,104.8,560z"/>
			<path fill="#E5A5B0" d="M366.1,691.4c-14.8-20.6-17.4-46.4-18.6-71c-0.5-11.5-0.5-23.6,0.6-35.1c0.6-6.8,1.7-13.5,2.5-20.2
				c2.1-18.5,5.3-35.3,2-54c-3.8-21-11.3-43.2-4-64.3c13.7-39.8,62.8-48.7,97.4-31c39.1,20.1,69.1,64.7,80,106.3
				c13.3,50.7,53,105.7,56.8,131.6c8.1,0.5,18.8,46.7,23.3,70.4c4.5,23.5,8.7,47.2,9.6,71.2c0.7,19.2,1.8,40.4-11.6,56
				c-7.9,9.2-20.9,9.7-32.3,9.3c-7-0.3-69.5,20.4-133.4-43.5S372.8,700.7,366.1,691.4z"/>
			<path fill="#D99CA9" d="M388.7,810.1c-2.9-6-4.9-12.3-8.3-18c-2.2-3.7-3.5-8.3-4.6-12.5c-1.1-4.1-2.5-8.1-4-12.2
				c-1.5-4.1-2.9-8.2-3.9-12.3c-1.1-4.5-1.8-9.2-2.8-13.6c-1.2-5.5-1.5-11.5-2.2-17c-0.3-2.8-0.3-5.5-0.6-8.3
				c-0.5-4.6-0.7-9.2-1.6-13.7c-0.3-1.6-0.4-2.9-1.1-4.3c-0.8-1.5-0.6-3.1-0.7-4.7c-0.1-1-0.1-2.1-0.2-3.1c-0.3-2.3-0.7-4.6-0.8-7
				c-0.2-3.4-0.7-6.9-1.1-10.2c0.9,0,2.2,1.7,2.8,2.3c1.3,1.2,2.4,2.5,3.7,3.7c1.8,1.7,3.5,3.4,5.5,4.8c8.2,6.1,19.2,7.7,27.3,14.1
				c9,7,13.4,17.1,18.6,27c4.1,7.8,8.6,11.8,10.5,20.9c4,18.7,7.4,29.1,20,44.1c23.1,27.3,63.3,33.7,97,25.3
				c-0.7,20.2,48.9,10.4,56.6,24.3c10.6,19-26,26.7-38.6,30c-22.2,5.7-45.1,6.1-67.8,4.6C448.5,871.2,408.2,850.7,388.7,810.1z"/>
			<g>
				<path fill="#C1657D" d="M542,815.2c6.8-8.6,14.1-17,20.3-26.1c6.2-9.1,11.3-18.9,15.4-29.1c8.2-20.4,11.9-42.5,10.8-64.4
					c-0.2-5.5-0.8-10.9-1.6-16.3c-0.8-5.4-2-10.8-3.1-16.2c-1.1-5.4-2.4-10.7-3.8-16c-1.5-5.3-3.1-10.5-5.3-15.5
					c-2.2-5-4.9-9.7-7.7-14.5c-1.4-2.4-2.8-4.8-4.2-7.2c-1.4-2.4-2.7-4.9-3.9-7.3c-5.1-9.8-10.1-19.6-14.8-29.6
					c-2.4-5-4.6-10-6.8-15.2c-2.2-5.1-4.2-10.3-6-15.5c-1.9-5.2-3.5-10.5-5-15.8l-2.2-8l-1.2-3.9l-1.3-3.9
					c-7-20.8-17.8-40.3-31.6-57.4c-6.9-8.5-14.7-16.4-23.2-23.3c-4.3-3.4-8.8-6.6-13.4-9.5c-4.7-2.9-9.5-5.5-14.6-7.5
					c-10.2-4-21.3-5.8-32.2-5.4c-10.9,0.4-21.9,3.1-31.4,8.5c-9.5,5.3-17.5,13.4-22.5,23.1c-2.5,4.8-4.3,10-5.2,15.4
					c-1,5.3-1.2,10.8-0.8,16.3c0.7,10.9,3.3,21.6,5.6,32.4c1.1,5.4,2.2,10.9,2.7,16.4c0.5,5.6,0.6,11.1,0.3,16.7
					c-0.3,5.6-0.9,11.1-1.8,16.6c-0.9,5.5-1.7,10.9-2.4,16.3c-1.4,10.9-2.3,21.9-2.6,32.8c-0.3,11-0.2,22,0.5,32.9
					c0.4,5.4,1.1,10.9,2.3,16.2c1.2,5.3,2.8,10.5,5.2,15.3c2.4,4.8,5.4,9.3,9.3,12.9c1.9,1.8,4,3.5,6.3,4.9c2.2,1.4,4.7,2.5,7.2,3.6
					c5,2.1,10.3,4,15.2,7.1c0.6,0.4,1.2,0.8,1.8,1.2l0.9,0.7l0.8,0.7c0.5,0.4,1.1,0.9,1.6,1.3l1.6,1.5c2.1,2,4,4.1,5.7,6.3
					c1.7,2.2,3.3,4.6,4.7,7c1.4,2.4,2.7,4.9,3.9,7.5c2.3,5.1,4.2,10.4,5.9,15.6c3.4,10.6,6.1,21.2,10.1,31.4c1,2.5,2.1,5,3.3,7.5
					c0.6,1.2,1.2,2.4,1.9,3.6l0.2,0.4l0.3,0.4l0.5,0.9c0.4,0.6,0.7,1.1,1.1,1.7c3,4.4,6.8,8.4,10.9,11.9c8.3,7,17.9,12.5,28,16.5
					c1.3,0.5,2.5,1,3.8,1.4c1.3,0.4,2.6,0.8,3.9,1.2l3.9,1.1c1.3,0.3,2.7,0.6,4,0.9c5.3,1.1,10.8,1.7,16.2,2
					c10.9,0.5,21.9-0.6,32.6-3.2l1-0.2l0,1.1c0,0.8,0,1.6,0.2,2.4c0.2,0.8,0.4,1.5,0.8,2.2c0.8,1.4,1.9,2.6,3.3,3.5
					c1.3,0.9,2.9,1.7,4.5,2.3c1.6,0.6,3.2,1.1,4.9,1.5c6.7,1.6,13.6,2.3,20.5,3.4c3.4,0.5,6.9,1.1,10.3,1.9c1.7,0.4,3.4,1,5,1.6
					c1.6,0.7,3.2,1.5,4.6,2.7c0.7,0.6,1.3,1.2,1.8,2c0.2,0.4,0.5,0.8,0.6,1.2c0.2,0.4,0.4,0.8,0.5,1.2c0.7,1.6,1.1,3.4,1,5.2
					c-0.1,1.8-0.6,3.5-1.4,5c-0.9,1.5-2,2.9-3.3,4l-0.2-0.2c1.3-1.2,2.4-2.5,3.2-4c0.8-1.5,1.3-3.2,1.3-4.9c0-1.7-0.4-3.4-1.1-4.9
					c-0.2-0.4-0.4-0.8-0.6-1.2c-0.2-0.4-0.4-0.7-0.6-1.1c-0.5-0.7-1.1-1.3-1.7-1.8c-1.3-1.1-2.8-1.9-4.4-2.5
					c-1.6-0.6-3.2-1.1-4.9-1.5c-3.3-0.8-6.8-1.3-10.2-1.7l-10.3-1.3c-3.4-0.5-6.9-1-10.3-1.8c-1.7-0.4-3.4-0.9-5.1-1.5
					c-1.7-0.6-3.3-1.4-4.8-2.4c-1.5-1-2.9-2.3-3.8-4c-0.4-0.8-0.8-1.7-1-2.6c-0.2-0.9-0.3-1.9-0.2-2.8l1,0.8
					c-10.8,2.7-21.9,4-33,3.6c-5.6-0.2-11.1-0.8-16.6-1.9c-1.4-0.3-2.7-0.6-4.1-0.9l-4.1-1.1c-1.3-0.4-2.6-0.8-4-1.2
					c-1.3-0.4-2.6-0.9-3.9-1.4c-10.4-4-20.2-9.5-28.8-16.7c-4.3-3.6-8.2-7.7-11.5-12.3c-0.4-0.6-0.8-1.2-1.2-1.8l-0.5-0.9l-0.3-0.5
					l-0.3-0.5c-0.7-1.2-1.4-2.5-2-3.7c-1.3-2.5-2.4-5.1-3.4-7.6c-4.2-10.4-6.9-21.1-10.3-31.5c-3.4-10.4-7.4-20.7-14-29.2
					c-1.6-2.1-3.5-4.1-5.4-6l-1.5-1.3c-0.5-0.4-1.1-0.9-1.6-1.3l-0.8-0.7l-0.8-0.6c-0.5-0.4-1.1-0.8-1.6-1.1
					c-4.5-2.8-9.6-4.7-14.8-6.8c-2.6-1.1-5.1-2.3-7.6-3.8c-2.4-1.5-4.7-3.3-6.8-5.3c-4.2-3.9-7.5-8.7-9.9-13.8
					c-2.5-5.1-4.2-10.5-5.4-16c-1.2-5.5-1.9-11-2.3-16.6c-0.7-11.1-0.8-22.2-0.4-33.2c0.4-11.1,1.4-22.1,2.8-33.1
					c0.4-2.7,0.8-5.5,1.2-8.2l1.4-8.2c0.9-5.4,1.5-10.9,1.9-16.3c0.3-5.5,0.3-10.9-0.1-16.4c-0.3-2.7-0.6-5.4-1-8.1
					c-0.4-2.7-1-5.4-1.5-8.1c-2.2-10.8-4.7-21.6-5.3-32.8c-0.3-5.6-0.1-11.2,1-16.7c1-5.5,3-10.8,5.5-15.8
					c5.1-9.9,13.4-18.1,23.2-23.4c9.8-5.3,20.9-8.1,31.9-8.4c11.1-0.4,22.3,1.5,32.6,5.6c5.2,2,10.1,4.7,14.8,7.5
					c4.7,2.9,9.3,6.1,13.6,9.5c8.7,6.9,16.5,14.8,23.5,23.4c7,8.5,13.3,17.7,18.8,27.3c5.4,9.6,10.1,19.7,13.7,30.2l1.3,3.9l1.2,4
					l2.2,8c1.6,5.3,3.2,10.5,5.1,15.6c3.8,10.3,8.1,20.4,12.8,30.3c4.7,9.9,9.8,19.7,14.9,29.5c1.3,2.4,2.5,4.9,3.9,7.3
					c1.3,2.4,2.7,4.8,4.1,7.2c2.8,4.8,5.5,9.6,7.8,14.7c2.3,5.2,3.9,10.5,5.4,15.8c1.5,5.4,2.7,10.8,3.8,16.2
					c1.1,5.4,2.2,10.8,3,16.3c0.8,5.5,1.4,11,1.6,16.6c0.9,22.2-3.1,44.6-11.6,65c-4.3,10.2-9.6,20-16,29
					c-6.4,9-13.8,17.2-20.8,25.7L542,815.2z"/>
			</g>
			<g>
				<path fill="#C1657D" d="M584,653.1c0,0,0.5,0.4,1.3,1.2c0.8,0.8,1.9,2.1,3,4.1c2.3,3.8,4.6,9.9,7.1,17.6
					c1.2,3.9,2.6,8.1,3.9,12.9c1.3,4.7,2.5,9.9,3.7,15.5c1.2,5.5,2.3,11.5,3.6,17.7c1.2,6.2,2.6,12.8,3.8,19.7
					c1.2,6.9,2.2,14.1,3,21.6c0.4,3.7,0.8,7.5,1.1,11.4c0.3,3.9,0.6,7.8,1,11.7c0.8,7.9,1.7,16.1,1.8,24.6c0.1,4.2,0,8.5-0.5,12.8
					c-0.5,4.3-1.3,8.7-2.7,12.9c-1.4,4.2-3.5,8.4-6.5,11.9c-2.9,3.6-6.7,6.5-10.9,8.5c-2,1-4.1,1.9-6.1,2.9
					c-2.1,0.9-4.2,1.8-6.3,2.7c-2.1,0.9-4.2,1.7-6.4,2.5c-2.1,0.8-4.3,1.5-6.5,2.3c-8.7,2.9-17.8,5.1-27,6.5
					c-9.2,1.4-18.6,2.1-27.9,2.2c-9.3,0.1-18.7-0.3-27.9-1.1c-9.3-0.9-18.5-2.5-27.4-5c-17.8-5-34.3-13.5-47.6-25.2
					c-3.3-2.9-6.4-6-9.3-9.2c-2.9-3.2-5.6-6.6-8-10.1c-2.4-3.5-4.6-7-6.6-10.7c-0.5-0.9-0.9-1.8-1.4-2.8c-0.5-0.9-0.9-1.8-1.3-2.8
					c-0.9-1.8-1.7-3.6-2.5-5.5c-6.5-14.6-11.4-29-15.1-42.5c-3.6-13.5-6.3-26-7.8-37.3c-1.5-11.2-2.3-21.1-3.1-29.2
					c-0.4-4-0.7-7.6-1-10.8c-0.3-3.1-0.8-5.7-1.2-7.8c-0.4-2.1-0.8-3.7-1-4.8c-0.3-1.1-0.4-1.7-0.4-1.7s0.3,0.5,0.8,1.5
					c0.5,1,1.1,2.6,1.8,4.7c0.6,2.1,1.2,4.8,1.5,8c0.3,3.1,0.7,6.8,1.1,10.8c0.8,8.1,1.7,17.9,3.3,29.1c1.6,11.2,4.3,23.6,8,37
					c3.8,13.3,8.7,27.6,15.3,42c0.8,1.8,1.7,3.6,2.5,5.4c0.4,0.9,0.9,1.8,1.3,2.7c0.5,0.9,0.9,1.8,1.4,2.7c1.9,3.6,4.1,7,6.5,10.4
					c2.3,3.4,5,6.7,7.8,9.8c2.8,3.1,5.8,6.1,9.1,9c12.9,11.3,29.2,19.7,46.6,24.5c8.7,2.5,17.8,4,26.8,4.8c9.2,0.7,18.4,1.1,27.7,1
					c9.2-0.1,18.4-0.7,27.5-2.1c9.1-1.4,18-3.5,26.6-6.4c2.1-0.8,4.3-1.5,6.4-2.3c2.1-0.8,4.2-1.6,6.3-2.5c2.1-0.9,4.1-1.8,6.2-2.7
					c2-1,4.1-1.9,6.1-2.9c3.9-1.8,7.3-4.5,10-7.8c2.7-3.3,4.6-7.1,6-11.1c2.7-8,3.2-16.6,3.1-24.9c-0.1-8.3-0.9-16.4-1.7-24.4
					c-0.4-4-0.6-7.9-0.9-11.8c-0.3-3.9-0.7-7.6-1.1-11.4c-0.8-7.4-1.7-14.6-2.8-21.5c-1.1-6.9-2.4-13.4-3.6-19.6
					c-1.2-6.2-2.3-12.2-3.4-17.7c-1.1-5.5-2.3-10.7-3.6-15.4c-1.2-4.7-2.6-9-3.8-12.9c-1.2-3.9-2.4-7.3-3.5-10.2
					c-1.1-2.9-2.3-5.3-3.2-7.2c-0.9-1.9-1.7-3.4-2.2-4.4C584.2,653.7,584,653.1,584,653.1z"/>
			</g>
			<path fill="#D99CA9" d="M286.8,776.7c-2.5,5.9-5.4,11.3-8.4,16.7c-12.1,20.9-28,37.6-46.8,53.1c-5,3.8-9.6,7.1-15.1,10.5
				c-6.3,3.8-12.5,6.7-19.2,9.6c-11.3,4.2-23,6.7-34.7,7.5c-19.2,0.8-38.1,2.5-57.3,2.1c-4.2-0.4-8.8-0.8-13-1.3
				c-4.2-0.8-8.4-2.1-12.1-3.3c-7.1-2.9-13-7.5-17.6-13.8c-0.4-0.8-1.3-2.1-2.1-2.9c-7.6-12.3-16-26.3-6.3-39.3
				c0.8-0.8,1.7-1.3,2.1-2.1c3.8-2.9,7.9-4.6,12.1-6.3c12.1-4.2,25.1-5,36.4-13c2.9-2.1,4.5-4.4,5.8-9c7.6,3.7,23.9,5.6,35.6,2.3
				c13-3.8,25.5-6.7,38.5-10.5c33.8-9.8,68.7-23.9,91-52.4c6.8-8.8,12.1-18.6,15.6-29.1c2.2-6.5,4.3-15.7,3.8-22.6
				c-0.5-6.3,0.2-7.9-0.4-17.1c0.3,8.1,0.6,21.4,0.9,25.8c0.8,10.9,1.7,21.8,1.4,32.7C296.5,735.6,295.1,756.9,286.8,776.7z"/>
			<g>
				<path fill="#C1657D" d="M117.4,787.6c0,0-1-0.3-2.7-0.9c-1.8-0.6-4.3-1.7-7.4-3.2c-3.1-1.5-6.8-3.6-10.8-6.3
					c-4-2.7-8.4-6.1-12.7-10.3c-4.3-4.2-8.6-9.2-12.4-14.9c-3.9-5.7-7.2-12.3-9.8-19.3c-2.6-7.1-4.3-14.7-5.2-22.5
					c-0.9-7.8-0.9-15.9-0.3-23.8c0.3-4,0.8-7.9,1.4-11.8c0.6-3.9,1.4-7.8,2.2-11.6c1.8-7.7,4.4-14.9,7.1-21.8
					c2.8-6.9,5.7-13.5,8.6-19.6c2.9-6.2,5.8-11.9,8.6-17.1c5.5-10.5,10.5-19,14.1-25c1.8-3,3.2-5.3,4.2-6.8c1.1-1.5,1.7-2.3,1.7-2.3
					l0.2,0.2c0,0-0.4,0.9-1.3,2.5c-0.9,1.6-2.3,3.9-4.1,6.9c-3.5,6-8.4,14.6-13.8,25.1c-5.4,10.5-11.4,23-16.7,36.8
					c-2.6,6.9-5.1,14.1-6.8,21.7c-0.8,3.8-1.5,7.6-2.1,11.5c-0.6,3.9-1,7.8-1.2,11.7c-0.5,7.8-0.3,15.7,0.7,23.3
					c1,7.6,2.7,15,5.2,21.9c2.4,6.9,5.7,13.2,9.2,18.8c3.6,5.6,7.6,10.6,11.7,14.8c4.1,4.2,8.2,7.7,12,10.6
					c3.8,2.8,7.4,5.1,10.4,6.8c3,1.7,5.4,2.9,7.1,3.6c1.7,0.8,2.6,1.1,2.6,1.1L117.4,787.6z"/>
			</g>
			<g>
				<path fill="#C1657D" d="M295.1,666c0,0,0.7,9.2,1.8,25.4c0.5,8.1,1.1,17.9,1.1,29.3c0,5.7-0.2,11.7-0.9,18.1
					c-0.6,6.3-1.6,13-3.3,19.8c-1.6,6.8-3.8,13.8-6.9,20.8c-3,6.9-6.8,13.8-11.2,20.5c-4.4,6.7-9.6,13.1-15.2,19.4
					c-5.6,6.3-11.5,12.4-18,18.3c-6.5,5.8-13.3,11.5-20.8,16.4c-3.7,2.5-7.6,4.8-11.6,6.9c-4,2.1-8.1,4.1-12.4,5.8
					c-8.5,3.4-17.5,5.8-26.7,7.2c-4.6,0.7-9.2,1.2-13.9,1.4c-4.7,0.2-9.3,0.2-13.9,0.5c-9.2,0.4-18.5,1.2-27.8,1.5
					c-9.2,0.2-18.6,0.1-27.7-2c-4.5-1.1-9-2.7-13-5c-4.1-2.3-7.7-5.3-10.8-8.7c-3.1-3.4-5.6-7.3-7.7-11.3c-2.1-4-3.7-8.2-5-12.4
					c-1.3-4.1-2.5-8.3-3.6-12.5c-1.1-4.2-2-8.3-2.8-12.4c-1.6-8.3-2.7-16.4-3.5-24.4c-1.6-15.9-1.6-31.1-0.9-45
					c0.7-13.9,2.4-26.7,4.9-37.8c1.2-5.5,2.7-10.7,4.1-15.3c1.5-4.7,3.1-8.9,4.5-12.7c2.8-7.6,5-13.6,6.4-17.7c1.4-4.1,2-6.3,2-6.3
					l0.3,0.1c0,0-0.5,2.3-1.8,6.4c-1.3,4.2-3.3,10.2-5.9,17.9c-0.6,1.9-1.3,3.9-2,6.1c-0.7,2.1-1.5,4.3-2.1,6.7
					c-1.4,4.7-2.7,9.8-3.8,15.3c-2.2,11-3.7,23.7-4.3,37.5c-0.5,13.8-0.2,28.9,1.4,44.6c0.8,7.9,2,15.9,3.6,24.1
					c0.8,4.1,1.7,8.2,2.7,12.3c1,4.1,2.2,8.2,3.5,12.4c2.5,8.1,6.2,16.2,11.9,22.7c2.9,3.2,6.3,6,10.1,8.2c3.8,2.2,8,3.7,12.3,4.8
					c8.7,2.1,17.9,2.4,27.1,2.3c9.2-0.2,18.5-0.7,27.7-0.9c4.6-0.2,9.3-0.1,13.9-0.2c4.6-0.2,9.2-0.5,13.7-1.2
					c9.1-1.2,18-3.6,26.5-6.9c8.5-3.3,16.4-7.6,23.8-12.6c7.4-5,14.2-10.6,20.5-16.6c6.3-6,12-12.3,17.4-18.6c0.7-0.8,1.3-1.6,2-2.4
					c0.6-0.8,1.3-1.6,1.9-2.4c0.6-0.8,1.3-1.6,1.9-2.4c0.6-0.8,1.2-1.6,1.8-2.4c0.6-0.8,1.2-1.6,1.8-2.4c0.6-0.8,1.1-1.7,1.7-2.5
					c0.6-0.8,1.1-1.6,1.7-2.5c0.5-0.8,1.1-1.7,1.6-2.5c8.7-13.2,14.4-27.2,17.7-40.5c1.7-6.7,2.7-13.2,3.4-19.5
					c0.1-1.6,0.3-3.1,0.4-4.6c0.1-1.5,0.2-3,0.3-4.5c0.2-3,0.3-5.9,0.4-8.7c0.3-11.3-0.1-21.1-0.4-29.2c-0.3-8.1-0.5-14.5-0.7-18.8
					c-0.1-4.3-0.2-6.7-0.2-6.7L295.1,666z"/>
			</g>
			<g>
				<path fill="#C1657D" d="M271.8,605.3c-7.2,2.6-14.3,5.4-21.7,7.5c-3.7,1.1-7.4,2-11.2,2.6c-3.8,0.6-7.6,1.1-11.4,1.5
					c-3.8,0.4-7.7,0.6-11.5,0.6c-3.8,0-7.7-0.2-11.5-0.7c-1.9-0.3-3.8-0.6-5.7-0.9c-1.9-0.3-3.8-0.7-5.7-1
					c-3.8-0.7-7.5-1.6-11.2-2.5c-14.9-3.7-29.4-8.8-43.2-15.7c-6.9-3.4-13.6-7.3-19.9-11.7c-3.2-2.2-6.2-4.6-9.1-7.1
					c-1.4-1.3-2.9-2.6-4.2-4.1c-0.7-0.7-1.3-1.5-1.9-2.4c-0.3-0.4-0.6-0.9-0.8-1.4c-0.2-0.5-0.5-1-0.6-2l0-0.1l0-0.1
					c1.8-9.2,4.4-18.2,7.3-27c2.9-8.9,6.2-17.6,9.7-26.2c6.9-17.3,14.7-34.3,24.3-50.2c4.9-8,10.2-15.6,16.2-22.8
					c6-7.1,12.6-13.8,20.1-19.3c7.5-5.6,15.9-10,24.9-12.6c4.5-1.3,9.1-2.2,13.7-2.6c4.7-0.4,9.3-0.4,14,0.1
					c4.6,0.5,9.3,1.3,13.8,2.5c4.5,1.2,8.9,2.8,13.1,5.1c8.3,4.4,15,11.8,18.7,20.5c3.8,8.7,4.9,18.2,5.1,27.5
					c0.2,9.3-0.5,18.6-1,27.9c-0.2,4.6-0.4,9.2-0.4,13.9c0,2.3,0.1,4.6,0.3,6.9c0.2,2.3,0.5,4.6,0.7,6.9c1,9.2,2.2,18.4,3.4,27.6
					c0.6,4.6,1.2,9.2,1.7,13.8l0.8,6.9c0.3,2.3,0.4,4.7,0.5,7c0.2,4.7,0,9.4-0.8,14.1c-0.8,4.7-2.2,9.4-4.7,13.6l-0.1-1.6
					c4.4,5.3,7,11.6,8.9,18c1.8,6.4,2.8,13,3.5,19.5c0.6,6.6,0.9,13.1,1.1,19.6c0.2,6.6,0.2,13.2-0.4,19.8
					c-0.6,6.6-1.8,13.1-3.7,19.5c-1.9,6.4-4.6,12.5-7.9,18.3c-3.3,5.8-7.4,11.1-11.8,16c-1.1,1.2-2.3,2.4-3.4,3.6
					c-1.2,1.1-2.3,2.3-3.6,3.4c-1.2,1.1-2.5,2.2-3.7,3.3c-1.2,1.1-2.5,2.1-3.8,3.1c-5.2,4.1-10.7,7.7-16.4,11.1
					c-5.7,3.4-11.6,6.3-17.6,9c-12,5.4-24.4,9.7-37,13.4c-6.3,1.9-12.6,3.6-18.9,5.2l-19,4.8c-6.4,1.5-13,2.4-19.6,2.5
					c-6.6,0-13.4-0.8-19.5-3.8l1.2-0.5c-0.5,1.7-1.3,3.4-2.4,4.8c-1,1.5-2.3,2.7-3.7,3.9c-2.8,2.2-5.9,3.8-9.1,5.1
					c-6.4,2.6-13.1,4.2-19.7,6c-3.3,0.9-6.6,1.9-9.8,3.1c-3.2,1.2-6.3,2.6-9.1,4.6c-1.4,1-2.6,2.1-3.6,3.5c-1,1.3-1.8,2.9-2.2,4.5
					c-0.8,3.3-0.4,6.8,0.6,10l-0.3,0.1c-1-3.3-1.6-6.8-0.8-10.2c0.4-1.7,1.2-3.3,2.2-4.7c1-1.4,2.3-2.6,3.7-3.7
					c2.8-2.1,5.9-3.6,9.1-4.8c3.2-1.3,6.5-2.3,9.8-3.3c6.6-2,13.2-3.7,19.5-6.3c3.1-1.3,6.1-2.9,8.7-5c2.6-2.1,4.6-4.8,5.4-8
					l0.3-0.9l0.9,0.4c5.8,2.7,12.3,3.5,18.7,3.4c6.4-0.1,12.9-1.2,19.1-2.7l18.9-4.9c6.3-1.7,12.6-3.4,18.8-5.3
					c12.5-3.8,24.7-8.1,36.5-13.6c5.9-2.7,11.7-5.7,17.2-9c5.6-3.3,11-6.9,16-10.9c1.3-1,2.5-2,3.7-3.1c1.2-1,2.4-2.1,3.6-3.2
					c1.2-1.1,2.4-2.3,3.5-3.4c1.1-1.1,2.2-2.3,3.3-3.5c4.3-4.7,8.2-9.9,11.4-15.5c3.2-5.5,5.8-11.5,7.6-17.6
					c1.8-6.1,3-12.5,3.6-18.9c0.6-6.4,0.7-12.9,0.5-19.4c-0.2-6.5-0.4-13-1-19.5c-0.6-6.4-1.6-12.9-3.3-19c-1.7-6.1-4.2-12.1-8.2-17
					l-0.6-0.8l0.5-0.8c2.3-3.7,3.6-8.1,4.4-12.6c0.8-4.5,1-9,0.8-13.6c-0.1-2.3-0.2-4.6-0.5-6.8l-0.7-6.9c-0.5-4.6-1-9.2-1.5-13.8
					c-1.1-9.2-2.2-18.4-3.2-27.7c-0.2-2.3-0.5-4.6-0.6-7c-0.2-2.3-0.3-4.7-0.3-7c0-4.7,0.2-9.3,0.5-14c0.6-9.3,1.4-18.5,1.3-27.8
					c-0.1-9.2-1.1-18.5-4.7-27c-3.5-8.5-9.9-15.7-18-20.1c-4-2.2-8.4-3.8-12.8-5c-4.5-1.2-9-2.1-13.6-2.5c-4.6-0.5-9.2-0.5-13.8-0.1
					c-2.3,0.2-4.6,0.5-6.9,0.9c-2.3,0.5-4.5,1-6.7,1.7c-8.9,2.6-17.1,7.1-24.5,12.6c-7.4,5.6-14,12.1-19.8,19.3
					c-5.9,7.2-11,14.9-15.7,22.8c-9.4,16-16.9,32.9-23.6,50.2c-3.3,8.7-6.6,17.3-9.4,26.1c-2.8,8.8-5.3,17.7-7.1,26.8l0-0.2
					c0,0,0.1,0.4,0.3,0.7c0.2,0.3,0.4,0.7,0.7,1.1c0.5,0.7,1.1,1.4,1.7,2.1c1.2,1.4,2.6,2.7,4,3.9c2.8,2.5,5.8,4.8,8.9,7
					c6.2,4.4,12.7,8.2,19.5,11.6c13.6,6.8,27.9,12,42.7,15.7c3.7,0.9,7.4,1.8,11.1,2.6c1.9,0.4,3.7,0.8,5.6,1.1
					c1.9,0.3,3.8,0.7,5.6,1c3.7,0.5,7.5,0.8,11.3,0.9c3.8,0.1,7.6-0.1,11.4-0.4c3.8-0.3,7.6-0.7,11.3-1.2c3.8-0.5,7.5-1.3,11.1-2.3
					c7.4-1.9,14.6-4.5,21.8-6.9L271.8,605.3z"/>
			</g>
		</g>
	</g>
</g>
<g>
	<g opacity="0.5">
		<path fill="none" stroke="#010101" stroke-width="7" stroke-miterlimit="10" d="M447,490.1c-38.8,45-70.8,39.1-88.5,34.8
			c-43.8-10.8-52.7-42.9-52.7-145.6c0-56-4.6-113.3-9.6-168.8c-4.4-49.1-8.3-105.5-53.9-133.1c-46.4-28.1-106.9,0.2-143.6,27.9
			c-10.4,7.8-20.5,17.2-29.6,26.6c-4.7,4.9-14.9,13.9-24.2,22.2"/>
		<circle fill="#010101" cx="446.6" cy="490.4" r="9.2"/>
		<polygon fill="#010101" points="28.3,168.8 43.3,138.4 46.2,153 60.2,157.6 		"/>
		<path fill="none" stroke="#010101" stroke-width="7" stroke-miterlimit="10" d="M183.1,491.9c28.6,69.6,123.8,58.3,123.8-62.1"/>
		<circle fill="#010101" cx="183.4" cy="492.3" r="9.2"/>
		<path fill="none" stroke="#010101" stroke-width="7" stroke-miterlimit="10" d="M215.7,458.2c-17.4,38,27.2,91.2,64.3,57.9"/>
		<circle fill="#010101" cx="215.6" cy="458.6" r="9.2"/>
		<path fill="none" stroke="#010101" stroke-width="7" stroke-miterlimit="10" d="M179.7,549.3c26.7,10.3,67.7,7.7,103.7-37"/>
		<circle fill="#010101" cx="180.1" cy="549.4" r="9.2"/>
		<path fill="none" stroke="#010101" stroke-width="7" stroke-miterlimit="10" d="M455,530.2c-30.1,18.1-76.2,17.8-117.6-14"/>
		<circle fill="#010101" cx="454.6" cy="530.4" r="9.2"/>
		<path fill="none" stroke="#010101" stroke-width="7" stroke-miterlimit="10" d="M337.4,516.2c49.1,22.3,68.6-18,71.1-56.8"/>
		<circle fill="#010101" cx="408.3" cy="459.9" r="9.2"/>
	</g>
	<g>
		<g>
			<g>
				<g>
					<path fill="none" stroke="#6FC492" stroke-width="7" stroke-miterlimit="10" d="M444,487.1c-38.8,45-70.8,39.1-88.5,34.8
						c-43.8-10.8-52.7-42.9-52.7-145.6c0-56-4.6-113.3-9.6-168.8c-4.4-49.1-8.3-105.5-53.9-133.1c-46.4-28.1-106.9,0.2-143.6,27.9
						c-10.4,7.8-20.5,17.2-29.6,26.6c-4.7,4.9-14.9,13.9-24.2,22.2"/>
					<g>
						<circle fill="#6FC492" cx="443.6" cy="487.4" r="9.2"/>
					</g>
					<g>
						<polygon fill="#6FC492" points="25.3,165.8 40.3,135.4 43.2,150 57.2,154.6 						"/>
					</g>
				</g>
			</g>
			<g>
				<g>
					<path fill="none" stroke="#6FC492" stroke-width="7" stroke-miterlimit="10" d="M180.1,488.9c28.6,69.6,123.8,58.3,123.8-62.1"
						/>
					<g>
						<circle fill="#6FC492" cx="180.4" cy="489.3" r="9.2"/>
					</g>
				</g>
			</g>
			<g>
				<g>
					<path fill="none" stroke="#6FC492" stroke-width="7" stroke-miterlimit="10" d="M212.7,455.2c-17.4,38,27.2,91.2,64.3,57.9"/>
					<g>
						<circle fill="#6FC492" cx="212.6" cy="455.6" r="9.2"/>
					</g>
				</g>
			</g>
			<g>
				<g>
					<path fill="none" stroke="#6FC492" stroke-width="7" stroke-miterlimit="10" d="M176.7,546.3c26.7,10.3,67.7,7.7,103.7-37"/>
					<g>
						<circle fill="#6FC492" cx="177.1" cy="546.4" r="9.2"/>
					</g>
				</g>
			</g>
			<g>
				<g>
					<path fill="none" stroke="#6FC492" stroke-width="7" stroke-miterlimit="10" d="M452,527.2c-30.1,18.1-76.2,17.8-117.6-14"/>
					<g>
						<circle fill="#6FC492" cx="451.6" cy="527.4" r="9.2"/>
					</g>
				</g>
			</g>
			<g>
				<g>
					<path fill="none" stroke="#6FC492" stroke-width="7" stroke-miterlimit="10" d="M334.4,513.2c49.1,22.3,68.6-18,71.1-56.8"/>
					<g>
						<circle fill="#6FC492" cx="405.3" cy="456.9" r="9.2"/>
					</g>
				</g>
			</g>
		</g>
	</g>
</g>
<g>
	<rect x="513.9" y="-0.5" fill="#A9483B" width="406" height="759.3"/>
</g>
<g>
	<defs>
		<rect id="SVGID_8_" x="513.9" y="-0.5" width="406" height="759.3"/>
	</defs>
	<clipPath id="SVGID_4_">
		<use xlink:href="#SVGID_8_"  overflow="visible"/>
	</clipPath>
	<g clip-path="url(#SVGID_4_)">
		<g filter="url(#inner-glow1)">
			<path fill="#EA8470" d="M478.2-51.7h411.9c-23.6,10.8-49.3,21.2-79.3,31.8c-24.4,8.7-90,21.1-147.8,32
				c-41.6,7.9-81,15.3-99.1,20.3c-27.9,7.7-57.4,16-85.7,26.5V-51.7z"/>
			<path fill="#E88E89" d="M861.4-45.7c-16.2,6.7-33.5,13.4-52.6,20.2c-24,8.5-89.3,20.9-146.9,31.8c-43.6,8.2-81.2,15.4-99.6,20.4
				c-25.4,7-52.1,14.5-78.1,23.7v-96.1H861.4 M916.4-57.7H472.2V67.6c30.4-11.7,62.1-20.8,93.3-29.3C608.4,26.5,770.2,1,812.9-14.2
				C848.9-27.1,883.1-40.8,916.4-57.7L916.4-57.7z"/>
		</g>
		<g filter="url(#inner-glow1)">
			<path fill="#EA8470" d="M478.2,783.8V720c12.7-3.5,25.7-6.3,39.6-8.4c20.4-3.1,42.2-4.6,66.6-4.6c29.9,0,60.5,2.3,90,4.4l9.1,0.7
				c2.9,0.2,10.7,0.8,10.7,0.8l1,0.1c7.4,0.8,17.2,1.8,28.6,3c56.2,5.6,149.4,14.9,222.5,34.6v33.1H478.2z"/>
			<path fill="#E88E89" d="M584.4,713.1c29.7,0,60.1,2.3,89.6,4.4c2.9,0.2,5.9,0.4,8.8,0.7l0.1,0l0.1,0c2.9,0.2,5.8,0.4,8.8,0.6
				l1.4,0.1l0.5,0l0.8,0.1c7.4,0.9,17.2,1.8,28.5,3c54.8,5.5,145.2,14.4,217.1,33.3v22.5h-456v-53.2c11.1-2.9,22.4-5.2,34.5-7
				C538.9,714.5,560.4,713.1,584.4,713.1 M584.4,701.1c-22.4,0-44.9,1.2-67.5,4.6c-16.1,2.4-30.7,5.7-44.7,9.8v74.3h480v-43.7
				C862.7,721,738.5,712,695.7,707l-1.1-0.1c-0.7,0-1.3-0.1-2-0.1c-2.9-0.2-5.8-0.4-8.7-0.6c-0.1,0-0.2,0-0.2,0l0.2,0
				C650.6,703.8,617.6,701.1,584.4,701.1L584.4,701.1z"/>
		</g>
		<g filter="url(#inner-glow1)">
			<path fill="#EA8470" d="M929.5,499.7c-11.8,0-23.6-0.1-35-0.4c-23.8-0.5-51.8-1.5-79.6-5.1c-26.5-3.4-53.1-9-75.6-14
				c-5-1.1-10.1-2.3-15.1-3.4c-14.2-3.2-28.7-6.5-43.4-9.5c24.5-1.1,48.9-6.1,72.5-14.8c20.9-7.7,42.6-18.8,66.4-33.8
				c21.9-13.8,43.1-29.3,63.6-44.2c7-5.1,13.7-10.7,20.1-16.1c4.6-3.9,9.4-7.9,14.2-11.6c8.2-6.3,17.4-12.3,28.5-18.5v171.3
				c-0.3,0-0.5,0-0.6,0c-3.4,0-6.6,0-9.9,0.1C933.6,499.7,931.6,499.7,929.5,499.7z"/>
			<path fill="#E88E89" d="M940.2,338.7v47.2v93.8v13.9c-1.5,0-3,0-4.6,0c-2.1,0-4.1,0-6.2,0c-11.7,0-23.5-0.1-34.8-0.4
				c-23.6-0.5-51.5-1.5-79-5c-26.3-3.4-52.7-8.9-75-13.9c-5-1.1-10.1-2.3-15.1-3.4c-2.9-0.6-5.7-1.3-8.6-1.9
				c13-2.6,25.9-6.2,38.6-10.9c21.3-7.8,43.3-19.1,67.5-34.4c22-13.9,43.3-29.4,63.9-44.4l0.1-0.1c7.1-5.2,13.9-10.8,20.4-16.3
				c4.6-3.8,9.3-7.8,14-11.5C927,347.2,933.2,343,940.2,338.7 M952.2,318.3c-13.3,6.9-26.3,14.6-38.2,23.8
				c-11.5,9-22.3,18.9-34.1,27.5c-20.8,15.1-41.6,30.3-63.3,44c-20.7,13.1-42.3,24.8-65.3,33.3c-24,8.8-49.2,13.9-74.7,14.6
				c-2.4,0.1-4.8,0.1-7.2,0.1c-14.3,0-28.6-1.1-42.8-1.4c-18-0.5-35.9-0.7-53.9-1.2c29.7,1.5,59.2,5.2,88.5,10.6
				c25.8,4.7,51.2,10.7,76.8,16.4c25.2,5.6,50.5,10.8,76.1,14.1c26.6,3.4,53.4,4.5,80.2,5.1c11.7,0.3,23.4,0.4,35.1,0.4
				c2.1,0,4.1,0,6.2,0c3.3,0,6.6,0,9.9-0.1c0,0,0,0,0,0c0.7,0,2.9,0.2,4.6,0.2c1,0,1.8-0.1,2-0.3c0.2-0.2,0-1.2,0-1.4
				c0-8.1,0-16.2,0-24.3c0-31.3,0-62.5,0-93.8c0-22.2,0-44.4,0-66.6C952.2,319,952.2,318.7,952.2,318.3L952.2,318.3z"/>
		</g>
		<g filter="url(#inner-glow1)">
			<path fill="#EA8470" d="M478.2,71.7c1.4-0.5,2.7-1,4.1-1.5c26.1-9.6,54.8-18.4,87.6-26.9c25.7-6.6,52.4-11.5,78.2-16.2
				c8-1.5,16.2-3,24.4-4.5c5.5-1,11-2.1,16.5-3.1c33.4-6.3,68-12.8,101.6-21.1c19.7-4.9,38.5-12,56.2-18.8
				c16-6.2,30.6-12.3,44.7-18.7c7.4-3.4,14.8-6.9,21.9-10.3c0.7-0.4,1.4-0.7,2-1.1c0.7-0.4,1.7-1,2.2-1.1c0.2,0,0.4,0,0.5,0
				c0.4,0,0.8,0,1.1,0h23c1.1,0,2.1-0.1,3.2-0.1c0.2,0,0.4,0,0.6,0v3.1c-5.3,2.5-10.6,5.2-16,8.1c-11.5,6.2-22.8,13.1-34.7,21.2
				c-39.6,27-74.9,60.3-109.1,92.6c-5.8,5.5-11.6,10.9-17.4,16.4c-49.3,46.1-92.4,79.6-135.7,105.3c-58,34.5-108.8,51.5-155.2,52.1
				V71.7z"/>
			<path fill="#E88E89" d="M919-45.7c0.1,0,0.3,0,0.4,0h7.5c-11.5,6.2-22.9,13.2-34.8,21.3c-40,27.3-75.5,60.8-109.8,93.1
				c-5.7,5.4-11.6,10.9-17.4,16.4c-49,45.8-91.8,79-134.6,104.5c-54.5,32.4-102.4,49.2-146.2,51v-69v-90v-5.8c0.1,0,0.1,0,0.2-0.1
				c25.9-9.5,54.4-18.3,87.1-26.7c25.5-6.6,52.1-11.4,77.8-16.1c8-1.5,16.3-3,24.4-4.5c5.5-1,11-2.1,16.5-3.1
				c33.5-6.3,68.2-12.8,102-21.2c20-5,39.1-12.1,56.9-19.1c16.1-6.2,30.8-12.4,45-18.8c7.5-3.4,14.9-6.9,22.1-10.4
				c0.9-0.4,1.6-0.9,2.3-1.3C918.6-45.5,918.8-45.6,919-45.7 M948.4-57.9c-2,0-4.1,0.2-5.9,0.2c-7.7,0-15.4,0-23,0
				c-0.5,0-1.1-0.1-1.7-0.1c-0.3,0-0.6,0-0.8,0.1c-2,0.3-4.2,1.9-6,2.8c-7.2,3.5-14.4,7-21.7,10.3C874.5-38,859.7-31.9,844.7-26
				c-18.2,7.1-36.4,13.9-55.4,18.6c-38.9,9.7-78.5,16.7-117.8,24.1c-34.3,6.5-69.1,12-103,20.8c-29.7,7.7-59.4,16.5-88.2,27.1
				c-1.7,0.6-3.4,1.2-5,1.9c-0.5,0.2-2.8,0.7-3,1.2c-0.1,0.1,0,0.3,0,0.5c-0.2,0.6,0,1.9,0,2.6c0,3.7,0,7.3,0,11c0,30,0,60,0,90
				c0,25.7,0,51.4,0,77.1c0,0.5-0.3,4.1,0.2,4.1c0,0,0,0,0,0h0c0,0,0,0,0,0l0,0c0,0,0,0,0,0c1.2,0,2.3,0,3.5,0
				c57.1,0,112.3-24.2,160.6-52.9c49.9-29.7,94.4-66.5,136.7-106.1c40.4-37.8,79.9-77.1,125.7-108.4c11-7.5,22.4-14.6,34.2-20.9
				c5.8-3.1,11.6-6.1,17.6-8.8c1.8-0.8,1.5-0.9,1.5-2.8c0-2.1,0-4.1,0-6.2c0-0.8,0.5-3.7,0-4.3c-0.1-0.1-0.2-0.2-0.4-0.2
				c-0.1,0-0.2,0-0.3,0c-0.1,0-0.2,0-0.3,0C950.3-57.9,949.3-57.9,948.4-57.9L948.4-57.9z M472.5,252.8L472.5,252.8L472.5,252.8
				L472.5,252.8z M472.5,252.8C472.5,252.8,472.5,252.8,472.5,252.8C472.5,252.8,472.5,252.8,472.5,252.8L472.5,252.8L472.5,252.8z
				 M472.5,252.8c28.1,0.5,37.4,0.6,37.4,0.6C509.9,253.5,473.2,252.9,472.5,252.8L472.5,252.8C472.5,252.8,472.5,252.8,472.5,252.8
				L472.5,252.8C472.5,252.8,472.5,252.8,472.5,252.8C472.5,252.8,472.5,252.8,472.5,252.8C472.5,252.8,472.5,252.8,472.5,252.8
				L472.5,252.8z"/>
		</g>
		<g filter="url(#inner-glow1)">
			<path fill="#EA8470" d="M946.2,738.2c-16.9-4.5-35.4-8.6-56.4-12.5c-13-2.4-26.5-4.7-40.8-6.9c37.3-1.1,68.7-5.3,97.2-13.1V738.2
				z"/>
			<path fill="#E88E89" d="M940.2,713.5v17c-12.9-3.3-26.8-6.3-42-9.3C913.1,719.3,927,716.8,940.2,713.5 M952.2,697.7
				c-39.6,12-81,15.4-122.3,15.4c-19,0-38.1-0.7-56.9-1.6c-16.4-0.8-32.8-1.8-49.3-2.7c0,0,0,0,0,0c0,0,0,0,0,0c-0.1,0-0.1,0-0.1,0
				c0,0,0,0,0,0c0,0,0,0,0,0c0,0,0,0,0,0c0,0,0,0,0,0c0,0,0,0,0,0c0,0,0,0,0,0s0,0,0,0c0,0,0,0,0,0c0,0,0,0,0,0c0,0,0,0,0,0
				c0,0,0,0,0,0c0,0,0,0,0,0c0,0,0,0,0.1,0c-7.4-0.4-14.7-0.8-22.1-1.3c8.7,0.8,17.5,2,26.2,2.9c15.7,1.6,31.4,3.2,47,4.9
				c38.1,4.3,76.2,9.3,113.9,16.3c21.3,4,42.6,8.6,63.5,14.5c0-14.1,0-28.1,0-42.2C952.2,701.8,952.2,699.8,952.2,697.7L952.2,697.7
				z M694.6,707c2.3,0.2,4.6,0.4,7,0.5C699.3,707.3,697,707.1,694.6,707L694.6,707z M723.6,708.8
				C723.7,708.8,723.7,708.8,723.6,708.8C723.7,708.8,723.7,708.8,723.6,708.8C723.7,708.8,723.7,708.8,723.6,708.8
				c2.6,0.1,32.1,1.7,32.1,1.7C755.8,710.5,747.7,710.1,723.6,708.8L723.6,708.8z"/>
		</g>
		<g filter="url(#inner-glow1)">
			<path fill="#EA8470" d="M478.2,271.4c33.6,2.5,75.8,5.3,98.5,5.3h0.3c17,0,37.8-1.3,58.8-3c-27.9,13.7-54.1,33.3-77.3,52.1
				c-11.1,9-47.5,38-80.2,61.9V271.4z"/>
			<path fill="#E88E89" d="M484.2,277.8c32.5,2.4,71,4.9,92.5,4.9l0.3,0c9.7,0,20.6-0.4,32.1-1.1c-19.4,11.9-37.7,25.9-54.4,39.5
				c-10,8.1-40.6,32.5-70.4,54.6V277.8 M701.2,261c-45.4,5.2-91.7,9.7-124.2,9.7c-0.1,0-0.2,0-0.3,0c-21.4,0-62-2.5-104.5-5.8v134.5
				c34.5-24.7,77.2-58.6,90-69c34.6-28.1,78-59.6,123-67.2c5.3-0.9,10.6-1.6,15.8-2.3L701.2,261L701.2,261z"/>
		</g>
		<g filter="url(#inner-glow1)">
			<path fill="#EA8470" d="M813.9,63.9c22.8-21.3,42.8-39.1,64-55.6C901.6-10,924-24.4,946.2-35.4v81.1c-9.6-0.4-20.2-0.8-30.7-0.8
				c-8.9,0-17,0.3-24.7,0.8c-10.5,0.7-21,2-31.1,4C843.7,52.9,828.3,57.6,813.9,63.9z"/>
			<path fill="#E88E89" d="M940.2-25.6v44.8v20.2c-7.9-0.3-16.3-0.5-24.7-0.5c-7.1,0-13.7,0.2-20,0.5h-0.3c-0.5,0-0.5,0-11.1,0.7
				l-7.1,0.5l-2.3,0.2c-2,0.1-3.7,0.6-5.1,1.2c-3.7,0.6-7.4,1.2-11,1.9c-6.4,1.3-12.7,2.8-18.9,4.5c14.2-12.8,27.8-24.3,41.9-35.3
				C901.8-2.7,921.2-15.4,940.2-25.6 M952.2-44.9c-27.9,12.8-53.8,29.7-78,48.5c-24.5,19-47.5,40-70.1,61.2
				C791,77.1,778,89.5,764.8,101.7c27.1-23.8,60.8-39.2,96.1-46.1c10-2,20.1-3.3,30.3-3.9c-12.3,0.8-16.5,1.1-16.6,1.1
				c-0.1,0,20.5-1.3,20.6-1.3c0,0-1.1,0.1-4,0.3c8.1-0.5,16.2-0.8,24.3-0.8c12.2,0,24.5,0.5,36.7,1.1c0-10.9,0-21.9,0-32.8
				c0-17.3,0-34.7,0-52C952.2-36.8,952.2-40.9,952.2-44.9L952.2-44.9z"/>
		</g>
		<g filter="url(#inner-glow1)">
			<path fill="#EA8470" d="M574.1,264.5c-9.1,0-18-0.2-26.7-0.6c-19.3-0.9-38.3-2.2-52.8-3.3c-4.7-0.3-9.5-0.7-14.2-1l-2.4-0.2
				c0-0.2,0-0.3,0-0.5c7.7-0.1,15.6-0.6,23.5-1.6c37.7-4.6,77.3-18.5,121-42.4c35.2-19.3,70.4-43.5,104.6-71.9
				c7.4-6.2,15.2-12.8,23.6-20.4c2.7-2.4,5.4-4.9,8-7.3c4.9-4.6,10-9.3,15.2-13.5c15.3-12.4,32.7-22.5,51.8-29.9
				c18.4-7.1,38.1-11.7,58.6-13.7c9.3-0.9,19.4-1.3,31-1.3c1.1,0,2.1,0,3.2,0c5.6,0,11.6,0.2,18.3,0.4c3.1,0.1,6.1,0.2,9.2,0.4
				c0.1,0,0.1,0,0.2,0v196c-0.2,0-0.3,0-0.5,0c-1,0-1.5,0-1.9,0.1c-2.9,0.3-5.8,0.6-8.7,0.8c-11.1,1-22.3,1.7-33.2,2.2
				c-5.3,0.2-10.8,0.3-16.4,0.3c-14.4,0-29.6-0.7-47.9-2.2c-24.5-2-46.6-3.7-69-3.7c-1.3,0-2.5,0-3.8,0c-25.1,0.2-45.6,1.4-64.5,3.7
				c-25.8,2.9-45.6,5-64.1,6.5C613.8,263.5,593.4,264.5,574.1,264.5C574.1,264.5,574.1,264.5,574.1,264.5z"/>
			<path fill="#E88E89" d="M915.3,62.9c1,0,2.1,0,3.1,0c5.5,0,11.5,0.2,18.1,0.4c1.2,0,2.4,0.1,3.6,0.1v19.7v68.1v69.6v25v2.3
				c-1.9,0.2-3.7,0.4-5.6,0.5c-11,1-22.1,1.7-32.9,2.2c-5.2,0.2-10.6,0.3-16.1,0.3c-14.3,0-29.3-0.7-47.4-2.2
				c-24.6-2-46.8-3.7-69.5-3.7c-1.3,0-2.5,0-3.8,0c-25.3,0.2-46,1.4-65.2,3.8c-25.7,2.9-45.5,5-64,6.5c-22.4,1.9-42.6,2.8-61.8,2.8
				c-9,0-17.8-0.2-26.4-0.6c-4.4-0.2-8.8-0.4-13.1-0.7c28.7-7.2,58.7-19.5,90.8-37.1c35.6-19.5,71.1-43.9,105.6-72.5
				c7.5-6.2,15.3-12.9,23.8-20.5c2.7-2.4,5.4-5,8.1-7.4c5.1-4.7,9.9-9.1,14.9-13.2c14.8-12,31.7-21.8,50.1-28.9
				c17.8-6.9,37-11.4,57-13.3C894,63.3,904,62.9,915.3,62.9 M915.3,50.9c-10.5,0-21.1,0.3-31.5,1.4c-20.6,2-40.9,6.6-60.2,14.1
				c-19.2,7.5-37.4,17.8-53.4,30.8c-8.1,6.6-15.6,14-23.4,21c-7.7,6.9-15.5,13.7-23.4,20.3c-32.2,26.8-66.9,51.1-103.7,71.2
				c-36.8,20.2-76.9,36.6-118.8,41.7c-8.4,1-16.8,1.6-25.3,1.6c-1.1,0-2.2,0-3.3,0c0,3.5-0.5,7.4,0,10.8c0,0.3-0.2,1,0,1.2
				c0.2,0.2,1.2,0.3,2.1,0.3c0.3,0,0.6,0,0.8,0c0.2,0,0.3,0,0.4,0c1.5,0.1,3,0.2,4.4,0.3c4.7,0.4,9.5,0.7,14.2,1
				c17.6,1.3,35.2,2.4,52.9,3.3c9,0.4,18,0.6,27,0.6c20.9,0,41.8-1.1,62.8-2.9c21.5-1.8,42.9-4.1,64.4-6.6
				c21.2-2.6,42.5-3.5,63.9-3.7c1.2,0,2.5,0,3.7,0c22.9,0,45.6,1.8,68.5,3.6c16.1,1.3,32.2,2.2,48.3,2.2c5.5,0,11.1-0.1,16.6-0.3
				c11.2-0.5,22.3-1.2,33.5-2.2c2.9-0.3,5.8-0.5,8.7-0.8c1.1-0.1,7.3-0.1,7.8-0.9c0.1-0.1-0.1-0.5,0-0.6c0.4-1.2,0-3.2,0-4.4
				c0-2.7,0-5.4,0-8.1c0-8.3,0-16.7,0-25c0-23.2,0-46.4,0-69.6c0-22.7,0-45.4,0-68.1c0-7.4,0-14.8,0-22.3c0-2.1,0-4.3,0-6.4
				c0-0.4,0.3-2.2,0-2.5c-0.2-0.3-1.4-0.4-2.6-0.4c-1.2,0-2.5,0.1-3.1,0.1c-0.1,0-0.1,0-0.2,0c-3.1-0.1-6.1-0.3-9.2-0.4
				c-6.2-0.2-12.3-0.4-18.5-0.4C917.5,50.9,916.4,50.9,915.3,50.9L915.3,50.9z"/>
		</g>
		<g filter="url(#inner-glow1)">
			<path fill="#EA8470" d="M670.8,455.5c-8.1,0-16.5-0.3-24.6-0.6c-4.1-0.2-8.2-0.3-12.3-0.4c-10.8-0.3-21.8-0.5-32.4-0.7
				c-9.5-0.2-19.2-0.4-28.8-0.6c-1.4,0-3.2-0.1-4.4-0.1c-21-0.4-38.1-0.7-53.9-0.7c-12.9,0-24.8,0.1-36.3,0.4v-50.2
				c27.5-19.8,56.6-42.2,89.2-68.5c14.8-11.9,34.5-27.3,56.3-40.1c23-13.6,43.4-21.6,62.4-24.6c25.7-4.1,52.7-6.2,80.3-6.2
				c12.1,0,24.4,0.4,36.7,1.2c8.5,0.5,17.2,1.3,25.6,2c17.7,1.5,35.9,3,54.1,3h0.1c19.9,0,40.6-1.2,63.3-3.6v48.2c0,0.3,0,0.6,0,0.9
				c-10.6,5.6-19.1,10.7-26.7,15.9c-9,6.2-17.4,13.2-25.6,19.9c-6.8,5.6-13.8,11.4-20.9,16.6l-2.3,1.6
				c-26.9,19.5-54.8,39.7-84.4,55.6c-31.7,17-63.4,27.1-94.2,30.1C685.7,455.2,678.7,455.5,670.8,455.5z"/>
			<path fill="#E88E89" d="M766.5,269.1c12,0,24.2,0.4,36.3,1.2c8.5,0.5,17.1,1.3,25.5,2c17.8,1.5,36.2,3,54.6,3h0.1
				c18.1,0,37-1,57.3-3v38.8c-9.4,5.1-17.1,9.8-24.1,14.6c-9.2,6.3-17.8,13.4-26,20.3c-7,5.8-13.6,11.3-20.6,16.4l-2.2,1.6
				c-26.8,19.4-54.5,39.5-83.8,55.2c-31,16.6-62,26.5-92,29.4c-6.2,0.6-13,0.9-20.7,0.9c-8,0-16.3-0.3-24.3-0.6
				c-4-0.2-8.2-0.3-12.4-0.4c-10.8-0.3-21.8-0.5-32.4-0.7c-9.5-0.2-19.4-0.4-29.1-0.6v0c-1.4,0-3-0.1-4.1-0.1
				c-21.1-0.4-38.2-0.7-54-0.7c-10.6,0-20.6,0.1-30.2,0.3v-23.5V406v-0.4c26.8-19.4,55.3-41.3,86.9-66.9
				c14.6-11.8,34.1-27,55.6-39.6c22.4-13.2,42.1-21,60.3-23.9C712.5,271.1,739.2,269.1,766.5,269.1 M766.5,257.1
				c-27.2,0-54.5,2-81.2,6.2c-22.9,3.6-44.7,13.7-64.5,25.4c-20.1,11.9-38.9,26-57.1,40.6c-29.1,23.5-58.6,46.5-88.9,68.3
				c-2,1.4-2.5,1.2-2.5,3.2c0,1.7,0,3.4,0,5.1c0,5.7,0,11.4,0,17.1c0,11.2,0,22.5,0,33.7c0,0.7,0,1.4,0,2.1
				c14.1-0.4,28.2-0.6,42.2-0.6c17.9,0,35.9,0.3,53.8,0.7c1.2,0,3.1,0.1,4.5,0.1c-0.2,0-0.3,0-0.5,0c20.5,0.6,41,0.8,61.5,1.4
				c12.4,0.4,24.7,1.1,37,1.1c7.3,0,14.6-0.2,21.8-1c34-3.3,66.4-14.7,96.5-30.8c30.8-16.5,59.1-37.2,87.4-57.7
				c15.9-11.5,30.1-25.3,46.4-36.5c8.5-5.8,17.5-11,26.5-15.8c1.8-0.9,2.5-0.8,2.8-2.4c0.2-1.1,0-2.4,0-3.5c0-17.8,0-35.6,0-53.4
				c0-0.5,0-1,0-1.5c-23,2.7-46.2,4.3-69.3,4.3c0,0-0.1,0-0.1,0c-26.5,0-52.8-3.3-79.3-5C791.2,257.5,778.9,257.1,766.5,257.1
				L766.5,257.1z"/>
		</g>
		<g filter="url(#inner-glow1)">
			<path fill="#EA8470" d="M478.1,680c0.1-1.1,0.1-2.2,0.1-3.3v-212c0.9,0,1.8,0,2.7-0.1c3.5-0.1,6.9-0.1,10.4-0.2
				c6.7-0.1,13.7-0.1,21.5-0.1l14.8,0c20.7,0,40.9,0.1,61.1,1.7c29.8,2.3,61.8,7.1,97.8,14.7c11.4,2.4,22.9,5,34.1,7.5
				c17.7,4,36,8.1,54.2,11.6c12.6,2.4,25.3,4.4,38.3,6c-13.6,3.7-27.1,9-40.1,15.6c-32.5,16.6-60.3,40.3-87.3,63.2
				c-17.3,14.7-35.2,29.9-53.9,42.9c-22.9,15.9-46.4,28.2-69.8,36.5c-23.9,8.5-50.7,13.8-83.8,16.5
				C478.1,680.5,478.1,680.2,478.1,680z"/>
			<path fill="#E88E89" d="M527.6,470.4c20.5,0,40.6,0.1,60.7,1.7c29.5,2.3,61.2,7,97.1,14.6c11.3,2.4,22.8,5,34,7.5
				c17.8,4,36.1,8.2,54.4,11.6c4.6,0.9,9.2,1.7,13.9,2.5c-5.8,2.4-11.6,5-17.3,7.9c-33.1,16.9-61.2,40.8-88.4,63.9
				c-17.2,14.6-34.9,29.7-53.4,42.5c-22.5,15.6-45.5,27.6-68.4,35.8c-21.8,7.8-46.1,12.8-75.7,15.6v-14.3v-49.7v-58.6V498v-27.3
				c2.3,0,4.6-0.1,7.1-0.1c6.6-0.1,13.6-0.1,21.5-0.1l0.9,0l1.6,0l6.1,0L527.6,470.4 M527.6,458.4c-4.1,0-8.2,0-12.3,0
				c-0.5,0-1,0-1.5,0c-0.3,0-0.6,0-0.9,0c-7.2,0-14.4,0-21.6,0.1c-3.5,0-6.9,0.1-10.4,0.2c-1.6,0-3.3,0.1-4.9,0.1c0,0,0,0-0.1,0
				c-0.4,0-1.5-0.1-2.3-0.1c-0.6,0-1.1,0-1.2,0.2c-0.6,0.6,0,4.4,0,5.2c0,11.3,0,22.6,0,33.9c0,17.9,0,35.7,0,53.6
				c0,19.5,0,39.1,0,58.6c0,16.6,0,33.1,0,49.7c0,5.6,0,11.2,0,16.8c0,3-0.4,6.3,0,9.2c0.1,0.4,0,0.8,0,1.2
				c31.3-2.2,62.1-6.8,91.7-17.3c25.4-9.1,49.1-21.9,71.2-37.3c48.1-33.3,87.9-78.8,140.5-105.6c13.9-7.1,28.5-12.7,43.6-16.4
				c14.4-3.6,30-6.1,45-6.1c1.6,0,3.2,0,4.8,0.1c-31.4-1.3-62.4-4.6-93.2-10.5c-29.6-5.6-58.8-12.9-88.2-19.1
				c-32.6-6.9-65.4-12.3-98.6-14.8C568.7,458.5,548.1,458.4,527.6,458.4L527.6,458.4z M869.2,504.5c0.3,0,0.6,0,0.9,0
				C869.8,504.5,869.5,504.5,869.2,504.5L869.2,504.5z"/>
		</g>
		<g filter="url(#inner-glow1)">
			<path fill="#EA8470" d="M478.2,692.7c0.4,0,0.6,0,0.9,0c24.6-1.9,44.6-5,63-9.8c34.3-9,68.1-25.1,100.4-48.1
				c18.3-13,35.6-27.6,52.3-41.8c12.1-10.2,24.6-20.8,37.3-30.6c35.4-27.3,69.1-43.3,103.2-49c9.7-1.6,19.9-2.5,30.3-2.7
				c1.1,0,2.2,0,3.2,0c4.9,0,10,0.2,14.9,0.4c3.3,0.1,6.7,0.3,10.1,0.3c11.6,0.3,23.7,0.4,35.7,0.4c5.5,0,11.1,0,16.7-0.1
				c0,0.3,0,0.5,0,0.8v180.8c-2.6,0.8-5.3,1.5-7.9,2.1c-11.8,3-24.4,5.4-37.6,7.3c-21.4,3-45,4.4-72,4.4c0,0,0,0,0,0c-2,0-4,0-6,0
				c-45.4-0.3-91.3-3.4-138.3-6.8l-9.1-0.7c-12.7-0.9-25.8-1.9-38.8-2.7c-19-1.1-35.7-1.7-51-1.7c-40.7,0-75.8,4.1-107.2,12.4V692.7
				z"/>
			<path fill="#E88E89" d="M868.9,516.5L868.9,516.5c4.8,0,9.6,0.2,14.7,0.4c3.3,0.1,6.7,0.3,10.2,0.3c11.7,0.3,23.8,0.4,35.9,0.4
				c3.5,0,7.1,0,10.7,0v5.9v33.9v84.6v46.5c-1.1,0.3-2.3,0.6-3.4,0.9c-11.6,2.9-24,5.3-36.9,7.1c-21.2,2.9-44.5,4.3-71.2,4.3
				c-2,0-4,0-6,0c-45.2-0.3-91.1-3.4-137.9-6.8c-3-0.2-6-0.4-9.1-0.7c-12.7-0.9-25.9-1.9-38.9-2.7c-19.1-1.2-35.9-1.7-51.4-1.7
				c-20.4,0-39.5,1-57.4,3.1c5.4-1.1,10.5-2.3,15.6-3.6c35-9.2,69.4-25.6,102.3-49c18.5-13.1,35.9-27.9,52.8-42.1
				c12-10.2,24.5-20.7,37.1-30.4c34.6-26.7,67.4-42.3,100.5-47.8c9.4-1.6,19.3-2.5,29.5-2.7C866.8,516.6,867.8,516.5,868.9,516.5
				 M497.7,696.9c-4.5,0.9-9,1.9-13.4,2.9v-1.6C488.9,697.9,493.3,697.4,497.7,696.9 M868.9,504.5c-1.1,0-2.2,0-3.4,0
				c-10.4,0.2-20.9,1.1-31.2,2.8c-39.6,6.6-74.4,25.9-105.8,50.2c-30.4,23.4-58.1,50.1-89.4,72.3c-29.9,21.2-62.8,37.8-98.4,47.1
				c-20.3,5.3-41,8-61.9,9.7c-1,0.1-6-0.1-6.4,0.5c-0.2,0.3,0,1.3,0,1.6c0,2.2,0,4.4,0,6.6c0,5.6,0,11.3,0,16.9c0,1.1,0,2.2,0,3.2
				c36.9-10.9,75-14.3,113.2-14.3c16.9,0,33.8,0.7,50.6,1.7c15.9,1,31.9,2.2,47.8,3.4c46.1,3.3,92.5,6.5,138.7,6.8c2,0,4.1,0,6.1,0
				c24.3,0,48.7-1.1,72.8-4.4c12.9-1.8,25.6-4.2,38.2-7.4c3-0.8,6.1-1.6,9.1-2.5c0.7-0.2,3-0.5,3.3-1.1c0.1-0.3,0-1,0-1.3
				c0-18,0-36.1,0-54.1c0-28.2,0-56.4,0-84.6c0-11.3,0-22.6,0-33.9c0-3.7,0-7.5,0-11.2c0-1.8,0.5-4.4,0-6.1c-0.1-0.2,0-0.5,0-0.8
				c-7.6,0.1-15.1,0.1-22.7,0.1c-11.9,0-23.7-0.1-35.6-0.4C885.6,505.1,877.2,504.5,868.9,504.5L868.9,504.5z"/>
		</g>
		<g filter="url(#inner-glow1)">
			<path fill="#EF9C8E" d="M699.2,401.1c-5.3,3.2-10.6,5.9-15.6,7.9c-31.3,13-105.6,10-88.5-44.4c7.8-25,47.5-33.3,69.2-36.9
				c19.6-3.3,45-11.9,60,4.9C748.2,359.5,724.3,386,699.2,401.1z"/>
		</g>
		<g filter="url(#inner-glow1)">
			<path fill="#EF9C8E" d="M554.3,615.4c-34.7,12.2-78.3,8.1-90.1-22.7c-33.1-86.9,135.9-80,136.1-26.2
				C600.4,588.8,579.7,606.4,554.3,615.4z"/>
		</g>
		<g filter="url(#inner-glow1)">
			<path fill="#EF9C8E" d="M892.2,181.3c-5.7,5-12.5,8.9-20.1,10.7c-21,5.2-79.5,19.2-91.9-5.3c-24.2-47.5,79-103.1,114.1-74.1
				C917.3,131.7,911.8,163.9,892.2,181.3z"/>
		</g>
		<g filter="url(#inner-glow1)">
			<path fill="#EF9C8E" d="M604.5,174.3c-32.4,17.9-74.5,19.5-88.3-16.6c-24.8-65.2,109.9-105.1,127.2-48.5
				C650.9,134,631,159.6,604.5,174.3z"/>
		</g>
		<g filter="url(#inner-glow1)">
			<path fill="#EF9C8E" d="M874.8,635.1c-21,16.3-50.5,27.1-67.7,29.6c-14.6,2.2-34.4,6.3-43.5-6.5c-18.4-26,16.1-55.2,34.7-69
				c22.3-16.6,80-48.4,97.8-8.6C905.6,601.8,893.6,620.6,874.8,635.1z"/>
		</g>
		<g filter="url(#inner-glow1)">
			<path fill="#EF9C8E" d="M999.5,447.6c-22.2,22-94.1,23-110.4-8.9c-26.8-52.4,78-88.3,112.2-60.1
				C1025.6,398.8,1018.5,428.8,999.5,447.6z"/>
		</g>
		<g opacity="0.47">
			<path fill="#BB4239" d="M472.2,263.7c0,0.3-0.2,1,0,1.2v134.5c34.5-24.7,77.2-58.6,90-69c34.6-28.1,78-59.6,123-67.2
				c5.3-0.9,10.6-1.6,15.8-2.3l0.2,0c21.2-2.6,42.5-3.5,63.9-3.7c24.2-0.2,48.1,1.7,72.2,3.6c21.7,1.8,43.2,2.8,65,1.9
				c11.2-0.5,22.3-1.2,33.5-2.2c2.9-0.3,5.8-0.5,8.7-0.8c1.1-0.1,7.3-0.1,7.8-0.9c0.1-0.1-0.1-0.5,0-0.6c0.4-1.2,0-3.2,0-4.4
				c0-2.7,0-5.4,0-8.1c0-8.3,0-16.7,0-25c0-23.2,0-46.4,0-69.6c0-22.7,0-45.4,0-68.1c0-7.4,0-14.8,0-22.3c0-2.1,0-4.3,0-6.4
				c0-0.4,0.3-2.2,0-2.5c0,0,0,0,0,0c0,0,0,0,0,0c0-10.9,0-21.9,0-32.8c0-17.3,0-34.7,0-52c0-4,0-8.1,0-12.1
				c-19.1,8.7-7.5,3.4-1.5,0.7c1.8-0.8,1.5-0.9,1.5-2.8c0-2.1,0-4.1,0-6.2c0-0.8,0.5-3.7,0-4.3c-0.2-0.3-0.5-0.1-1-0.2
				c-2.7-0.5-6,0-8.8,0c-7.7,0-15.4,0-23,0c-0.8,0-1.8-0.1-2.6,0c-0.3,0-0.5,0.1-0.8,0.2c0.1-0.1,0.2-0.1,0.4-0.2H472.2V67.6
				c0,0,0,0,0,0c-0.1,0.1,0,0.3,0,0.5c-0.2,0.6,0,1.9,0,2.6c0,3.7,0,7.3,0,11c0,30,0,60,0,90c0,25.7,0,51.4,0,77.1
				c0,0.5-0.3,4.1,0.2,4.1c-0.1,0-0.1,0-0.2,0C472.2,256.4,471.8,260.2,472.2,263.7z"/>
		</g>
		<g opacity="0.47">
			<path fill="#BB4239" d="M952.2,642.2c0-28.2,0-56.4,0-84.6c0-11.3,0-22.6,0-33.9c0-3.7,0-7.5,0-11.2c0-1.8,0.5-4.4,0-6.1
				c-0.1-0.2,0-0.5,0-0.8c0,0,0,0,0,0c0,0,0,0,0,0c0.2-0.2,0-1.2,0-1.4c0-8.1,0-16.2,0-24.3c0-31.3,0-62.5,0-93.8
				c0-22.2,0-44.4,0-66.6c0-0.3,0-0.7,0-1c-13.3,6.9-26.3,14.6-38.2,23.8c-11.5,9-22.3,18.9-34.1,27.5c-20.8,15.1-41.6,30.3-63.3,44
				c-20.7,13.1-42.3,24.8-65.3,33.3c-24,8.8-49.2,13.9-74.7,14.6c-16.7,0.5-33.4-0.9-50-1.3c-18-0.5-35.9-0.7-53.9-1.2
				c4.5,0.2,9,0.5,13.5,0.9c-24.1-1.7-48.4-1.5-72.6-1.5c-7.5,0-15,0-22.5,0.1c-3.5,0-6.9,0.1-10.4,0.2c-1.6,0-3.3,0.1-4.9,0.1
				c-0.6,0-3.3-0.3-3.6,0.1c-0.6,0.6,0,4.4,0,5.2c0,11.3,0,22.6,0,33.9c0,17.9,0,35.7,0,53.6c0,19.5,0,39.1,0,58.6
				c0,16.6,0,33.1,0,49.7c0,5.6,0,11.2,0,16.8c0,3-0.4,6.3,0,9.2c0.1,0.4,0,0.8,0,1.2c0,0,0.1,0,0.1,0c0,0-0.1,0-0.1,0.1
				c-0.2,0.3,0,1.3,0,1.6c0,2.2,0,4.4,0,6.6c0,5.6,0,11.3,0,16.9c0,1.1,0,2.2,0,3.2v74.3h480v-43.7c0-14.1,0-28.1,0-42.2
				c0-2,0-4.1,0-6.1c0,0-0.1,0-0.1,0c0.1,0,0.1-0.1,0.1-0.1c0.1-0.3,0-1,0-1.3C952.2,678.3,952.2,660.2,952.2,642.2z"/>
		</g>
	</g>
</g>
<g>
	<g filter="url(#ds1)">
		<rect x="748" y="228.1" fill="#F29C8B" width="151.1" height="71.1"/>
	</g>
	<path fill="#6E6F71" d="M767.5,254.2h2.3l1.2-14.3h-2.3v-2h5.2l4.7,11.2c0.3,0.8,0.4,1.3,0.4,1.3h0.1c0,0,0.1-0.6,0.4-1.3l4.7-11.2
		h5.2v2H787l1.2,14.3h2.3v2h-7.1v-2h2.2l-0.8-11c0-0.6,0.1-1.5,0.1-1.5h-0.1c0,0-0.2,0.9-0.4,1.4l-4.2,9.6h-2.3l-4.2-9.6
		c-0.2-0.5-0.4-1.4-0.4-1.4h-0.1c0,0,0.1,0.9,0.1,1.5l-0.8,11h2.2v2h-7.1V254.2z"/>
	<path fill="#6E6F71" d="M794.9,239.8h-2.3v-2h7.2v2h-2.3v9.5c0,1.2,0.2,2.2,0.7,3c0.8,1.2,2.2,1.9,4,1.9c1.7,0,3.2-0.7,4-1.9
		c0.4-0.8,0.7-1.8,0.7-3v-9.5h-2.3v-2h7.2v2h-2.3v9.5c0,1.7-0.5,3.3-1.3,4.5c-1.2,1.8-3.5,2.7-6,2.7c-2.6,0-4.8-1-6-2.7
		c-0.9-1.2-1.2-2.7-1.2-4.5V239.8z"/>
	<path fill="#6E6F71" d="M816.5,250.7v1.4c0,1.4,1.7,2.2,3.7,2.2c2.1,0,3.6-1,3.6-2.8c0-2.1-2.2-2.8-4.4-3.7c-2.4-0.9-4.9-2-4.9-5.2
		c0-3.5,2.8-4.9,5.9-4.9c2.8,0,5.6,1,5.6,3v2.2h-2.4v-1.3c0-1.1-1.6-1.6-3.1-1.6c-1.8,0-3.2,0.8-3.2,2.5c0,1.9,1.8,2.6,3.9,3.4
		c2.7,1,5.4,2.1,5.4,5.5c0,3.5-2.9,5.3-6.3,5.3c-2.9,0-6.1-1.3-6.1-3.9v-1.9H816.5z"/>
	<path fill="#6E6F71" d="M838.8,237.5c2.2,0,7,0.8,7,3.6v2.2h-2.4V242c0-1.6-2.8-2.2-4.5-2.2c-3.9,0-6.8,2.9-6.8,7
		c0,4.3,3,7.4,7,7.4c1.3,0,4.6-0.5,4.6-2.2v-1.4h2.4v2.2c0,2.7-4.6,3.6-7.2,3.6c-5.5,0-9.5-4.2-9.5-9.6
		C829.4,241.5,833.5,237.5,838.8,237.5z"/>
	<path fill="#6E6F71" d="M849.1,254.2h2.3V240h-2.3v-2.1h7.2v2.1H854v14.1h6.4v-3h2.3v5.1h-13.6V254.2z"/>
	<path fill="#6E6F71" d="M865.5,254.2h2.3v-14.3h-2.3v-2h13.3v4.3h-2.3V240h-6.1v5.9h6.5v2.1h-6.5v6.1h6.6v-2.2h2.3v4.3h-13.7V254.2
		z"/>
	<path fill="#6E6F71" d="M799.9,268.7c2.2,0,7,0.8,7,3.6v2.2h-2.4v-1.4c0-1.6-2.8-2.2-4.5-2.2c-3.9,0-6.8,2.9-6.8,7
		c0,4.3,3,7.4,7,7.4c1.3,0,4.6-0.5,4.6-2.2v-1.4h2.4v2.2c0,2.7-4.6,3.6-7.2,3.6c-5.5,0-9.5-4.2-9.5-9.6
		C790.5,272.7,794.6,268.7,799.9,268.7z"/>
	<path fill="#6E6F71" d="M810.2,285.4h2.3V271h-2.3v-2h13.3v4.3h-2.3v-2.1h-6.1v5.9h6.5v2.1h-6.5v6.1h6.6v-2.2h2.3v4.3h-13.7V285.4z
		"/>
	<path fill="#6E6F71" d="M827.1,285.4h2.3v-14.2h-2.3V269h7.2v2.1H832v14.1h6.4v-3h2.3v5.1h-13.6V285.4z"/>
	<path fill="#6E6F71" d="M843.5,285.4h2.3v-14.2h-2.3V269h7.2v2.1h-2.3v14.1h6.4v-3h2.3v5.1h-13.6V285.4z"/>
</g>
<g>
	<g opacity="0.5">
		<path fill="none" stroke="#010101" stroke-width="7" stroke-miterlimit="10" d="M657.7-38.2C587.8,52.4,575,178,627.6,293.7"/>
		<polygon fill="#010101" points="637.4,313.7 612.2,291.1 626.9,292.2 635.2,279.9 		"/>
	</g>
	<g>
		<g>
			<path fill="none" stroke="#FFFFFF" stroke-width="7" stroke-miterlimit="10" d="M654.7-41.2C584.8,49.4,572,175,624.6,290.7"/>
			<g>
				<polygon fill="#FFFFFF" points="634.4,310.7 609.2,288.1 623.9,289.2 632.2,276.9 				"/>
			</g>
		</g>
	</g>
</g>
<g>
	<g opacity="0.5">
		<path fill="none" stroke="#010101" stroke-width="7" stroke-miterlimit="10" d="M729-49.1c-74,96.8-89.7,227.8-55.3,326.4"/>
		<polygon fill="#010101" points="681.8,298.1 658.6,273.5 673.2,275.8 682.5,264.2 		"/>
	</g>
	<g>
		<g>
			<path fill="none" stroke="#FFFFFF" stroke-width="7" stroke-miterlimit="10" d="M726-52.1c-74,96.8-89.7,227.8-55.3,326.4"/>
			<g>
				<polygon fill="#FFFFFF" points="678.8,295.1 655.6,270.5 670.2,272.8 679.5,261.2 				"/>
			</g>
		</g>
	</g>
</g>
<g>
	<g opacity="0.5">
		<path fill="none" stroke="#010101" stroke-width="7" stroke-miterlimit="10" d="M836.2-49.1C752,3.5,690.5,145.1,716.3,265.1"/>
		<polygon fill="#010101" points="721.9,286.7 701.7,259.5 716,263.5 726.6,253.1 		"/>
	</g>
	<g>
		<g>
			<path fill="none" stroke="#FFFFFF" stroke-width="7" stroke-miterlimit="10" d="M833.2-52.1C749,0.5,687.5,142.1,713.3,262.1"/>
			<g>
				<polygon fill="#FFFFFF" points="718.9,283.7 698.7,256.5 713,260.5 723.6,250.1 				"/>
			</g>
		</g>
	</g>
</g>
<g>
	<g opacity="0.5">
		<path fill="#010101" d="M30.3,115.9c0,0,0.9,0.3,2.5,0.8c0.4,0.1,0.9,0.3,1.4,0.4c0.5,0.2,1.1,0.3,1.7,0.5
			c1.2,0.3,2.5,0.6,4.1,0.9c0.8,0.1,1.6,0.2,2.5,0.4c0.4,0.1,0.9,0.1,1.4,0.2c0.5,0.1,0.9,0.1,1.4,0.1c1,0.1,2,0.1,3.1,0.2
			c1.1,0,2.2-0.1,3.3-0.1c4.6-0.3,9.9-1.3,15.5-3.6c5.6-2.2,11.5-5.7,17.5-10c1.5-1.1,3-2.2,4.6-3.4c1.5-1.2,3.1-2.4,4.7-3.7
			c3.2-2.6,6.5-5.3,9.9-8.1c1.7-1.4,3.5-2.7,5.3-4.1c1.8-1.4,3.7-2.8,5.6-4.2c1.9-1.3,3.9-2.7,5.9-4.1c1-0.7,2-1.4,3-2.1
			c1-0.7,2.1-1.3,3.1-2c2.1-1.3,4.2-2.7,6.4-4.1c2.2-1.3,4.5-2.6,6.7-3.9l1.7-1c0.6-0.3,1.2-0.6,1.8-0.9c1.2-0.6,2.4-1.2,3.6-1.8
			c1.2-0.6,2.4-1.2,3.6-1.8c1.2-0.6,2.5-1.1,3.7-1.7c10-4.6,20.9-8.4,32.7-10.8c5.8-1.3,11.9-1.8,18.1-2.2c1.6,0,3.1,0,4.7,0l2.4,0
			l2.4,0.2c1.6,0.1,3.2,0.2,4.7,0.4c1.6,0.2,3.2,0.5,4.8,0.7c1.6,0.2,3.2,0.6,4.7,0.9c1.6,0.4,3.2,0.7,4.7,1.2
			c1.6,0.5,3.1,0.9,4.7,1.4c1.5,0.6,3.1,1.2,4.6,1.8c6.1,2.5,12,5.8,17.5,9.8c11,8,20.1,18.7,26.8,31c3.3,6.1,6,12.7,8.2,19.4
			c0.5,1.7,1.1,3.2,1.6,4.9c0.5,1.7,1,3.4,1.5,5.1c0.5,1.7,0.9,3.4,1.3,5.1l0.6,2.6l0.6,2.6c3.2,13.7,5.3,27.8,6.9,42
			c1.6,14.2,2.7,28.6,3.5,43c0.7,14.4,1.5,28.8,2.2,43.2c1.4,28.8,2.8,57.7,4.2,86.1c1.3,28.4,2.5,56.3,3.5,83.4
			c0.2,6.8,0.5,13.5,0.6,20.2c0.1,6.7,0.3,13.2,0.1,20l-0.1,2.6l0,1.3l0,0.3l0,0.4l-0.1,0.6l-0.3,2.4c0,0.4-0.1,0.8-0.2,1.3
			l-0.2,1.3c-0.6,3.5-1.6,6.7-2.7,9.9c-2.3,6.3-5.4,12.2-8.9,17.6c-7.2,10.7-15.7,19.6-24.1,27.9c-8.4,8.2-16.7,15.8-24.1,23.5
			c-7.4,7.7-14,15.4-18.7,23.6c-4.9,8.2-8.6,16.6-11.5,24.7c-2.8,8.1-4.7,15.9-5.7,23.2c-1,7.3-1.2,14.1-0.8,20.1
			c0.4,6,1.4,11.4,2.7,15.9c0.3,1.1,0.7,2.2,1,3.2c0.3,1,0.7,2,1,2.9c0.6,1.9,1.4,3.5,2,5c1.4,2.9,2.5,5.1,3.4,6.6
			c0.8,1.4,1.3,2.2,1.3,2.2l-6,3.8c0,0-0.5-0.8-1.4-2.4c-1-1.6-2.2-4-3.7-7.2c-0.7-1.6-1.6-3.4-2.3-5.5c-0.4-1-0.8-2.1-1.1-3.2
			c-0.3-1.1-0.7-2.3-1.1-3.5c-1.4-4.9-2.5-10.7-3-17.3c-0.5-6.6-0.3-13.8,0.7-21.6c1.1-7.8,3.1-16.1,6-24.6
			c3-8.5,6.9-17.3,12.1-26.1c5.2-8.9,12.1-17.1,19.8-25c7.6-7.9,16-15.5,24.2-23.7c8.2-8.1,16.4-16.8,23.1-26.7
			c3.3-5,6.1-10.3,8.1-16l0.7-2.1c0.2-0.7,0.5-1.4,0.6-2.2l0.6-2.2c0.2-0.7,0.3-1.4,0.4-2.2l0.2-1.1c0.1-0.3,0.1-0.7,0.2-1.1
			l0.3-2.4l0.1-0.6c0,0,0-0.3,0-0.2l0-0.3l0-1.2l0.1-2.3c0.2-6.3,0-12.9-0.1-19.5c-0.1-6.6-0.3-13.3-0.5-20.1
			c-0.9-27-2-54.9-3.2-83.3c-1.3-28.4-2.6-57.2-4-86c-0.7-14.4-1.4-28.8-2.1-43.2c-0.7-14.3-1.7-28.5-3.3-42.6
			c-1.6-14-3.6-27.9-6.7-41.3l-0.6-2.5l-0.6-2.5c-0.4-1.7-0.8-3.3-1.3-5c-0.5-1.6-0.9-3.3-1.4-4.9c-0.4-1.6-1-3.3-1.5-4.9
			c-2-6.4-4.5-12.5-7.6-18.3c-6.3-11.5-14.7-21.5-24.8-28.9c-5.1-3.7-10.5-6.7-16.1-9.1c-1.4-0.5-2.8-1.1-4.3-1.6
			c-1.4-0.5-2.9-0.9-4.3-1.3c-1.4-0.5-2.9-0.8-4.4-1.1c-1.5-0.3-2.9-0.7-4.4-0.9c-1.5-0.2-3-0.4-4.4-0.6c-1.5-0.1-3-0.2-4.4-0.3
			l-2.2-0.2l-2.2,0c-1.5,0-2.9,0-4.4,0c-5.8,0.3-11.6,0.9-17.2,2c-11.2,2.2-21.7,5.9-31.4,10.2c-1.2,0.5-2.4,1.1-3.6,1.6
			c-1.2,0.6-2.3,1.2-3.5,1.8c-1.2,0.6-2.3,1.2-3.5,1.8l-1.7,0.9l-1.7,0.9c-2.2,1.3-4.4,2.5-6.6,3.7c-2.1,1.3-4.2,2.6-6.3,3.9
			c-1,0.7-2.1,1.3-3.1,1.9c-1,0.7-2,1.4-3,2c-2,1.3-3.9,2.7-5.8,4c-1.8,1.4-3.7,2.7-5.5,4.1c-1.8,1.3-3.6,2.6-5.3,4
			c-3.4,2.8-6.7,5.4-9.9,8c-1.6,1.3-3.2,2.6-4.8,3.8c-1.6,1.3-3.2,2.4-4.8,3.5c-6.3,4.5-12.6,8.2-18.7,10.6
			c-6.1,2.4-12.1,3.6-17.3,3.9c-1.3,0-2.5,0-3.7,0.1c-1.2,0-2.3-0.1-3.4-0.2c-0.5,0-1.1-0.1-1.6-0.1c-0.5-0.1-1-0.2-1.5-0.2
			c-1-0.1-1.9-0.3-2.8-0.4c-1.8-0.3-3.3-0.8-4.6-1.1c-0.7-0.1-1.2-0.3-1.8-0.5c-0.5-0.2-1-0.3-1.4-0.4c-1.7-0.5-2.5-0.8-2.5-0.8
			L30.3,115.9z"/>
		<circle fill="#010101" cx="30" cy="118.6" r="10.5"/>
		<polygon fill="#010101" points="246.8,705.8 217.3,689.1 232,687 237.4,673.2 		"/>
		<path fill="none" stroke="#010101" stroke-width="7" stroke-miterlimit="10" d="M317.9,450.7c0,46,19.8,60.6,55.1,85
			c59.1,41.1,65.4,99,34.9,151.6"/>
		<polygon fill="#010101" points="395.4,705.8 402,672.5 408.6,685.8 423.4,686.6 		"/>
		<path fill="none" stroke="#010101" stroke-width="7" stroke-miterlimit="10" d="M373,535.7c58.9,39.5,91.6,97.6,104,129"/>
		<polygon fill="#010101" points="482.7,686.2 461.8,659.5 476.1,663.2 486.4,652.5 		"/>
		<path fill="none" stroke="#010101" stroke-width="7" stroke-miterlimit="10" d="M373,535.7c38.7,30.1,70.8,47.8,98.1,39.8"/>
		<polygon fill="#010101" points="490.5,564.7 468.6,590.5 469.3,575.7 456.8,567.8 		"/>
		<path fill="none" stroke="#010101" stroke-width="7" stroke-miterlimit="10" d="M244.1,573.2c-24.3,25.6-47.6,56.4-68.8,93.9"/>
		<polygon fill="#010101" points="164.7,686.7 168.5,653 176.2,665.7 191,665.3 		"/>
		<path fill="none" stroke="#010101" stroke-width="7" stroke-miterlimit="10" d="M244.1,573.2c-10.6,11.4-52.9,55.1-102.9,27.3"/>
		<polygon fill="#010101" points="123.2,587.5 156.2,595 142.7,601.2 141.5,616 		"/>
	</g>
	<g>
		<g>
			<g>
				<g>
					<path fill="#FFFFFF" d="M27.3,112.9c0,0,0.9,0.3,2.5,0.8c0.4,0.1,0.9,0.3,1.4,0.4c0.5,0.2,1.1,0.3,1.7,0.5
						c1.2,0.3,2.5,0.6,4.1,0.9c0.8,0.1,1.6,0.2,2.5,0.4c0.4,0.1,0.9,0.1,1.4,0.2c0.5,0.1,0.9,0.1,1.4,0.1c1,0.1,2,0.1,3.1,0.2
						c1.1,0,2.2-0.1,3.3-0.1c4.6-0.3,9.9-1.3,15.5-3.6c5.6-2.2,11.5-5.7,17.5-10c1.5-1.1,3-2.2,4.6-3.4c1.5-1.2,3.1-2.4,4.7-3.7
						c3.2-2.6,6.5-5.3,9.9-8.1c1.7-1.4,3.5-2.7,5.3-4.1c1.8-1.4,3.7-2.8,5.6-4.2c1.9-1.3,3.9-2.7,5.9-4.1c1-0.7,2-1.4,3-2.1
						c1-0.7,2.1-1.3,3.1-2c2.1-1.3,4.2-2.7,6.4-4.1c2.2-1.3,4.5-2.6,6.7-3.9l1.7-1c0.6-0.3,1.2-0.6,1.8-0.9c1.2-0.6,2.4-1.2,3.6-1.8
						c1.2-0.6,2.4-1.2,3.6-1.8c1.2-0.6,2.5-1.1,3.7-1.7c10-4.6,20.9-8.4,32.7-10.8c5.8-1.3,11.9-1.8,18.1-2.2c1.6,0,3.1,0,4.7,0
						l2.4,0l2.4,0.2c1.6,0.1,3.2,0.2,4.7,0.4c1.6,0.2,3.2,0.5,4.8,0.7c1.6,0.2,3.2,0.6,4.7,0.9c1.6,0.4,3.2,0.7,4.7,1.2
						c1.6,0.5,3.1,0.9,4.7,1.4c1.5,0.6,3.1,1.2,4.6,1.8c6.1,2.5,12,5.8,17.5,9.8c11,8,20.1,18.7,26.8,31c3.3,6.1,6,12.7,8.2,19.4
						c0.5,1.7,1.1,3.2,1.6,4.9c0.5,1.7,1,3.4,1.5,5.1c0.5,1.7,0.9,3.4,1.3,5.1l0.6,2.6l0.6,2.6c3.2,13.7,5.3,27.8,6.9,42
						c1.6,14.2,2.7,28.6,3.5,43c0.7,14.4,1.5,28.8,2.2,43.2c1.4,28.8,2.8,57.7,4.2,86.1c1.3,28.4,2.5,56.3,3.5,83.4
						c0.2,6.8,0.5,13.5,0.6,20.2c0.1,6.7,0.3,13.2,0.1,20l-0.1,2.6l0,1.3l0,0.3l0,0.4l-0.1,0.6l-0.3,2.4c0,0.4-0.1,0.8-0.2,1.3
						l-0.2,1.3c-0.6,3.5-1.6,6.7-2.7,9.9c-2.3,6.3-5.4,12.2-8.9,17.6c-7.2,10.7-15.7,19.6-24.1,27.9c-8.4,8.2-16.7,15.8-24.1,23.5
						c-7.4,7.7-14,15.4-18.7,23.6c-4.9,8.2-8.6,16.6-11.5,24.7c-2.8,8.1-4.7,15.9-5.7,23.2c-1,7.3-1.2,14.1-0.8,20.1
						c0.4,6,1.4,11.4,2.7,15.9c0.3,1.1,0.7,2.2,1,3.2c0.3,1,0.7,2,1,2.9c0.6,1.9,1.4,3.5,2,5c1.4,2.9,2.5,5.1,3.4,6.6
						c0.8,1.4,1.3,2.2,1.3,2.2l-6,3.8c0,0-0.5-0.8-1.4-2.4c-1-1.6-2.2-4-3.7-7.2c-0.7-1.6-1.6-3.4-2.3-5.5c-0.4-1-0.8-2.1-1.1-3.2
						c-0.3-1.1-0.7-2.3-1.1-3.5c-1.4-4.9-2.5-10.7-3-17.3c-0.5-6.6-0.3-13.8,0.7-21.6c1.1-7.8,3.1-16.1,6-24.6
						c3-8.5,6.9-17.3,12.1-26.1c5.2-8.9,12.1-17.1,19.8-25c7.6-7.9,16-15.5,24.2-23.7c8.2-8.1,16.4-16.8,23.1-26.7
						c3.3-5,6.1-10.3,8.1-16l0.7-2.1c0.2-0.7,0.5-1.4,0.6-2.2l0.6-2.2c0.2-0.7,0.3-1.4,0.4-2.2l0.2-1.1c0.1-0.3,0.1-0.7,0.2-1.1
						l0.3-2.4l0.1-0.6c0,0,0-0.3,0-0.2l0-0.3l0-1.2l0.1-2.3c0.2-6.3,0-12.9-0.1-19.5c-0.1-6.6-0.3-13.3-0.5-20.1
						c-0.9-27-2-54.9-3.2-83.3c-1.3-28.4-2.6-57.2-4-86c-0.7-14.4-1.4-28.8-2.1-43.2c-0.7-14.3-1.7-28.5-3.3-42.6
						c-1.6-14-3.6-27.9-6.7-41.3l-0.6-2.5l-0.6-2.5c-0.4-1.7-0.8-3.3-1.3-5c-0.5-1.6-0.9-3.3-1.4-4.9c-0.4-1.6-1-3.3-1.5-4.9
						c-2-6.4-4.5-12.5-7.6-18.3c-6.3-11.5-14.7-21.5-24.8-28.9c-5.1-3.7-10.5-6.7-16.1-9.1c-1.4-0.5-2.8-1.1-4.3-1.6
						c-1.4-0.5-2.9-0.9-4.3-1.3c-1.4-0.5-2.9-0.8-4.4-1.1c-1.5-0.3-2.9-0.7-4.4-0.9c-1.5-0.2-3-0.4-4.4-0.6c-1.5-0.1-3-0.2-4.4-0.3
						l-2.2-0.2l-2.2,0c-1.5,0-2.9,0-4.4,0c-5.8,0.3-11.6,0.9-17.2,2c-11.2,2.2-21.7,5.9-31.4,10.2c-1.2,0.5-2.4,1.1-3.6,1.6
						c-1.2,0.6-2.3,1.2-3.5,1.8c-1.2,0.6-2.3,1.2-3.5,1.8l-1.7,0.9l-1.7,0.9c-2.2,1.3-4.4,2.5-6.6,3.7c-2.1,1.3-4.2,2.6-6.3,3.9
						c-1,0.7-2.1,1.3-3.1,1.9c-1,0.7-2,1.4-3,2c-2,1.3-3.9,2.7-5.8,4c-1.8,1.4-3.7,2.7-5.5,4.1c-1.8,1.3-3.6,2.6-5.3,4
						c-3.4,2.8-6.7,5.4-9.9,8c-1.6,1.3-3.2,2.6-4.8,3.8c-1.6,1.3-3.2,2.4-4.8,3.5c-6.3,4.5-12.6,8.2-18.7,10.6
						c-6.1,2.4-12.1,3.6-17.3,3.9c-1.3,0-2.5,0-3.7,0.1c-1.2,0-2.3-0.1-3.4-0.2c-0.5,0-1.1-0.1-1.6-0.1c-0.5-0.1-1-0.2-1.5-0.2
						c-1-0.1-1.9-0.3-2.8-0.4c-1.8-0.3-3.3-0.8-4.6-1.1c-0.7-0.1-1.2-0.3-1.8-0.5c-0.5-0.2-1-0.3-1.4-0.4c-1.7-0.5-2.5-0.8-2.5-0.8
						L27.3,112.9z"/>
					<g>
						<circle fill="#FFFFFF" cx="27" cy="115.6" r="10.5"/>
					</g>
					<g>
						<polygon fill="#FFFFFF" points="243.8,702.8 214.3,686.1 229,684 234.4,670.2 						"/>
					</g>
				</g>
			</g>
			<g>
				<g>
					<path fill="none" stroke="#FFFFFF" stroke-width="7" stroke-miterlimit="10" d="M314.9,447.7c0,46,19.8,60.6,55.1,85
						c59.1,41.1,65.4,99,34.9,151.6"/>
					<g>
						<polygon fill="#FFFFFF" points="392.4,702.8 399,669.5 405.6,682.8 420.4,683.6 						"/>
					</g>
				</g>
			</g>
			<g>
				<g>
					<path fill="none" stroke="#FFFFFF" stroke-width="7" stroke-miterlimit="10" d="M370,532.7c58.9,39.5,91.6,97.6,104,129"/>
					<g>
						<polygon fill="#FFFFFF" points="479.7,683.2 458.8,656.5 473.1,660.2 483.4,649.5 						"/>
					</g>
				</g>
			</g>
			<g>
				<g>
					<path fill="none" stroke="#FFFFFF" stroke-width="7" stroke-miterlimit="10" d="M370,532.7c38.7,30.1,70.8,47.8,98.1,39.8"/>
					<g>
						<polygon fill="#FFFFFF" points="487.5,561.7 465.6,587.5 466.3,572.7 453.8,564.8 						"/>
					</g>
				</g>
			</g>
			<g>
				<g>
					<path fill="none" stroke="#FFFFFF" stroke-width="7" stroke-miterlimit="10" d="M241.1,570.2c-24.3,25.6-47.6,56.4-68.8,93.9"
						/>
					<g>
						<polygon fill="#FFFFFF" points="161.7,683.7 165.5,650 173.2,662.7 188,662.3 						"/>
					</g>
				</g>
			</g>
			<g>
				<g>
					<path fill="none" stroke="#FFFFFF" stroke-width="7" stroke-miterlimit="10" d="M241.1,570.2c-10.6,11.4-52.9,55.1-102.9,27.3"
						/>
					<g>
						<polygon fill="#FFFFFF" points="120.2,584.5 153.2,592 139.7,598.2 138.5,613 						"/>
					</g>
				</g>
			</g>
		</g>
	</g>
</g>
<g>
	<g opacity="0.5">
		<path fill="none" stroke="#010101" stroke-width="7" stroke-miterlimit="10" d="M675.1,444.9c2.5,44.2,3.5,211.3-106.2,359.2"/>
		<circle fill="#010101" cx="675.1" cy="445.5" r="11.8"/>
	</g>
	<g>
		<g>
			<path fill="none" stroke="#6FC492" stroke-width="7" stroke-miterlimit="10" d="M672.1,441.9c2.5,44.2,3.5,211.3-106.2,359.2"/>
			<g>
				<circle fill="#6FC492" cx="672.1" cy="442.5" r="11.8"/>
			</g>
		</g>
	</g>
</g>
<g>
	<g opacity="0.5">
		<path fill="none" stroke="#010101" stroke-width="7" stroke-miterlimit="10" d="M724.9,430.5c12.2,43.5,51.2,211.7-18.3,371.1"/>
		<circle fill="#010101" cx="725.1" cy="431" r="11.8"/>
	</g>
	<g>
		<g>
			<path fill="none" stroke="#6FC492" stroke-width="7" stroke-miterlimit="10" d="M721.9,427.5c12.2,43.5,51.2,211.7-18.3,371.1"/>
			<g>
				<circle fill="#6FC492" cx="722.1" cy="428" r="11.8"/>
			</g>
		</g>
	</g>
</g>
<g>
	<g opacity="0.5">
		<path fill="none" stroke="#010101" stroke-width="7" stroke-miterlimit="10" d="M774.4,418c27.2,42.4,131.4,221,65.9,383.4"/>
		<circle fill="#010101" cx="774.8" cy="418.5" r="11.8"/>
	</g>
	<g>
		<g>
			<path fill="none" stroke="#6FC492" stroke-width="7" stroke-miterlimit="10" d="M771.4,415c27.2,42.4,131.4,221,65.9,383.4"/>
			<g>
				<circle fill="#6FC492" cx="771.8" cy="415.5" r="11.8"/>
			</g>
		</g>
	</g>
</g>
<g>
	<path fill="#FFFFFF" d="M919.9-0.5v759.3h-406V-0.5H919.9 M933.9-14.5h-14h-406h-14v14v759.3v14h14h406h14v-14V-0.5V-14.5
		L933.9-14.5z"/>
</g>
<g>
	<g filter="url(#ds1)">
		<rect x="429.6" y="586.5" fill="#6FC492" width="151.1" height="71.1"/>
	</g>
	<path fill="#6E6F71" d="M455.9,596c2.2,0,7,0.8,7,3.6v2.2h-2.4v-1.4c0-1.6-2.8-2.2-4.5-2.2c-3.9,0-6.8,2.9-6.8,7c0,4.3,3,7.4,7,7.4
		c1.3,0,4.6-0.5,4.6-2.2v-1.4h2.4v2.2c0,2.7-4.6,3.6-7.2,3.6c-5.5,0-9.5-4.2-9.5-9.6C446.6,600,450.6,596,455.9,596z"/>
	<path fill="#6E6F71" d="M465.7,612.6h1.8l5.8-16.3h2.9l5.9,16.3h1.8v2h-6.4v-2h2l-1.4-4.1h-6.5l-1.4,4.1h2v2h-6.4V612.6z
		 M477.4,606.4l-2.2-6.4c-0.3-0.8-0.3-1.4-0.3-1.4h-0.1c0,0-0.1,0.6-0.3,1.4l-2.3,6.4H477.4z"/>
	<path fill="#6E6F71" d="M486.5,612.6h2.3v-14.3h-2.3v-2h8c1.3,0,2.4,0.1,3.4,0.4c1.9,0.6,3.2,2.3,3.2,4.8c0,2.7-1.5,4.6-3.8,5.1
		v0.1c0,0,0.5,0.3,0.8,0.9l2.6,4.5c0.3,0.5,0.6,0.6,1.3,0.6h0.5v2h-1.6c-1.6,0-1.9-0.3-2.5-1.4l-2.8-5c-0.5-0.8-0.8-1-1.9-1h-2.2
		v5.4h2.3v2h-7.2V612.6z M495.1,605.1c2,0,3.3-1.3,3.3-3.5c0-1.4-0.6-2.4-1.7-2.9c-0.6-0.2-1.4-0.3-2.3-0.3h-3v6.7H495.1z"/>
	<path fill="#6E6F71" d="M505.4,612.6h2.3v-14.3h-2.3v-2h8.3c1.3,0,2.3,0.1,3.2,0.5c1.5,0.6,2.5,2.2,2.5,4.1c0,1.8-0.9,3.2-2.3,4
		v0.1c2,0.6,3,2.4,3,4.4c0,2.4-1.5,4.2-3.4,4.9c-0.9,0.3-1.7,0.3-2.8,0.3h-8.7V612.6z M514.1,604c1.7,0,2.7-1.1,2.7-2.8
		c0-1.1-0.4-2-1.2-2.4c-0.5-0.3-1.1-0.4-1.9-0.4h-3.5v5.6H514.1z M514.2,612.5c0.5,0,1.1-0.1,1.6-0.3c1.1-0.4,1.7-1.6,1.7-3
		c0-1.9-1.2-3.1-3.2-3.1h-4.1v6.4H514.2z"/>
	<path fill="#6E6F71" d="M532.7,596c5.3,0,9.4,4.1,9.4,9.4c0,5.4-4.1,9.6-9.4,9.6c-5.3,0-9.4-4.2-9.4-9.6
		C523.2,600,527.3,596,532.7,596z M532.7,612.6c3.7,0,6.7-3.2,6.7-7.3c0-4-3-7.1-6.7-7.1c-3.7,0-6.8,3.1-6.8,7.1
		C525.9,609.4,528.9,612.6,532.7,612.6z"/>
	<path fill="#6E6F71" d="M544.7,612.6h2.3v-14.3h-2.3v-2h4.9l9,13.2c0.3,0.5,0.6,1.3,0.6,1.3h0.1c0,0-0.1-0.9-0.1-1.5v-11h-2.3v-2
		h7.3v2h-2.3v16.4h-2.5l-9-13.2c-0.3-0.5-0.6-1.3-0.6-1.3h-0.1c0,0,0.1,0.9,0.1,1.5v11h2.4v2h-7.3V612.6z"/>
	<path fill="#6E6F71" d="M448.6,643.8h2.3v-14.3h-2.3v-2h7.8c1.5,0,2.7,0.1,3.9,0.4c3.5,1.1,5.8,4.3,5.8,8.7c0,4.4-2.2,7.5-5.8,8.7
		c-1.2,0.4-2.4,0.5-3.9,0.5h-7.9V643.8z M456.2,643.7c1.2,0,2.2-0.1,3.1-0.5c2.5-0.9,4-3.2,4-6.6c0-3.4-1.5-5.7-4-6.6
		c-1-0.4-1.9-0.4-3.1-0.4h-2.8v14.1H456.2z"/>
	<path fill="#6E6F71" d="M468.8,643.8h2.3v-14.3h-2.3v-2h7.2v2h-2.3v14.3h2.3v2h-7.2V643.8z"/>
	<path fill="#6E6F71" d="M488,627.2c5.3,0,9.4,4.1,9.4,9.4c0,5.4-4.1,9.6-9.4,9.6c-5.3,0-9.4-4.2-9.4-9.6
		C478.5,631.2,482.6,627.2,488,627.2z M488,643.8c3.7,0,6.7-3.2,6.7-7.3c0-4-3-7.1-6.7-7.1c-3.7,0-6.8,3.1-6.8,7.1
		C481.2,640.6,484.2,643.8,488,643.8z"/>
	<path fill="#6E6F71" d="M499,643.8h1.7l4.7-7.3l-4.7-7.1h-1.7v-2h6.4v2h-2l3,4.8c0.3,0.4,0.5,0.7,0.5,0.7h0.1c0,0,0.2-0.3,0.4-0.7
		l2.9-4.8h-1.9v-2h6.2v2H513l-4.8,7.3l4.7,7h1.7v2h-6.4v-2h1.9l-3.1-4.8c-0.3-0.4-0.5-0.8-0.5-0.8h-0.1c0,0-0.2,0.3-0.4,0.8l-3,4.8
		h1.9v2H499V643.8z"/>
	<path fill="#6E6F71" d="M517.6,643.8h2.3v-14.3h-2.3v-2h7.2v2h-2.3v14.3h2.3v2h-7.2V643.8z"/>
	<path fill="#6E6F71" d="M527.9,643.8h2.3v-14.3h-2.3v-2h7.8c1.5,0,2.7,0.1,3.9,0.4c3.5,1.1,5.8,4.3,5.8,8.7c0,4.4-2.2,7.5-5.8,8.7
		c-1.2,0.4-2.4,0.5-3.9,0.5h-7.9V643.8z M535.6,643.7c1.2,0,2.2-0.1,3.1-0.5c2.5-0.9,4-3.2,4-6.6c0-3.4-1.5-5.7-4-6.6
		c-1-0.4-1.9-0.4-3.1-0.4h-2.8v14.1H535.6z"/>
	<path fill="#6E6F71" d="M548.2,643.8h2.3v-14.3h-2.3v-2h13.3v4.3h-2.3v-2.1h-6.1v5.9h6.5v2.1h-6.5v6.1h6.6v-2.2h2.3v4.3h-13.7
		V643.8z"/>
</g>
<g>
	<g filter="url(#ds1)">
		<rect x="429.6" y="94.6" fill="#FFFFFF" width="151.1" height="39.9"/>
	</g>
	<path fill="#6E6F71" d="M458.5,104c5.3,0,9.4,4.1,9.4,9.4c0,5.4-4.1,9.6-9.4,9.6c-5.3,0-9.4-4.2-9.4-9.6
		C449,108.1,453.1,104,458.5,104z M458.5,120.7c3.7,0,6.7-3.2,6.7-7.3c0-4-3-7.1-6.7-7.1c-3.7,0-6.8,3.1-6.8,7.1
		C451.7,117.5,454.7,120.7,458.5,120.7z"/>
	<path fill="#6E6F71" d="M469.5,120.7h1.7l4.7-7.3l-4.7-7.1h-1.7v-2h6.4v2h-2l3,4.8c0.3,0.4,0.5,0.7,0.5,0.7h0.1
		c0,0,0.2-0.3,0.4-0.7l2.9-4.8h-1.9v-2h6.2v2h-1.7l-4.8,7.3l4.7,7h1.7v2h-6.4v-2h1.9l-3.1-4.8c-0.3-0.4-0.5-0.8-0.5-0.8h-0.1
		c0,0-0.2,0.3-0.4,0.8l-3,4.8h1.9v2h-6.2V120.7z"/>
	<path fill="#6E6F71" d="M492.2,120.7h2.3v-5.7l-5.1-8.6h-1.7v-2h6.3v2H492l3.4,5.8c0.2,0.4,0.4,0.8,0.4,0.8h0.1
		c0,0,0.2-0.4,0.4-0.8l3.4-5.8h-1.9v-2h6.3v2h-1.7l-5.1,8.6v5.7h2.3v2h-7.2V120.7z"/>
	<path fill="#6E6F71" d="M514.8,104c3.2,0,7,1.3,7,3.6v2.3h-2.4v-1.4c0-1.5-2.4-2.3-4.6-2.3c-4.3,0-7,2.9-7,7.1
		c0,4.2,2.8,7.4,7.1,7.4c1.6,0,4.9-0.5,4.9-2.3V116h-3.6v-2h6v5.1c0,2.8-4.7,3.8-7.5,3.8c-5.6,0-9.6-4.1-9.6-9.5
		C505.1,108,509,104,514.8,104z"/>
	<path fill="#6E6F71" d="M525.4,120.7h2.3v-14.3h-2.3v-2h13.3v4.3h-2.3v-2.1h-6.1v5.9h6.5v2.1h-6.5v6.1h6.6v-2.2h2.3v4.3h-13.7
		V120.7z"/>
	<path fill="#6E6F71" d="M542.2,120.7h2.3v-14.3h-2.3v-2h4.9l9,13.2c0.3,0.5,0.6,1.3,0.6,1.3h0.1c0,0-0.1-0.9-0.1-1.5v-11h-2.3v-2
		h7.3v2h-2.3v16.4h-2.5l-9-13.2c-0.3-0.5-0.6-1.3-0.6-1.3H547c0,0,0.1,0.9,0.1,1.5v11h2.4v2h-7.3V120.7z"/>
</g>
</svg>
