<?xml version="1.0" encoding="utf-8"?>
<!-- Generator: Adobe Illustrator 18.1.1, SVG Export Plug-In . SVG Version: 6.00 Build 0)  -->
<!DOCTYPE svg PUBLIC "-//W3C//DTD SVG 1.1//EN" "http://www.w3.org/Graphics/SVG/1.1/DTD/svg11.dtd">
<svg version="1.1" id="Layer_1" xmlns="http://www.w3.org/2000/svg" xmlns:xlink="http://www.w3.org/1999/xlink" x="0px" y="0px"
	 viewBox="0 0 1500 1000" enable-background="new 0 0 1500 1000" xml:space="preserve">
<g id="Background">
	
		<linearGradient id="SVGID_1_" gradientUnits="userSpaceOnUse" x1="699.739" y1="1015.2947" x2="792.7061" y2="63.0862" gradientTransform="matrix(1 0 0 -1 0 1000)">
		<stop  offset="0" style="stop-color:#B6E9CF"/>
		<stop  offset="1" style="stop-color:#DDBF6B"/>
	</linearGradient>
	<rect y="-0.5" fill="url(#SVGID_1_)" width="1500" height="1000"/>
</g>
<g id="Liver">
	<g>
		<path fill="#C76D68" d="M1352.1,267c-4.3-21.7-13.5-42.6-28.1-59.1c-55.7-63-163.5-97-248.1-110.1c-54-8.3-109-9.8-163.5-6.8
			c-17,1-75.7,10.1-102.2,15.2c0,0-45.1,9.7-60.6,10.8c-26.1-9.7-39.3-14.7-44.3-16.6c9.1,3.4,39.7,14.9,44.3,16.5
			c-148-55.1-307.5-60.6-445.5,24.7C196,208.4,150.8,320.2,122.9,439.1C97.3,548,88.7,669.9,132.1,775.5
			c10.2,25.1,23.6,48.9,40.1,70.4c8.1,10.5,16.8,20.4,26.1,29.7c5.4,5.3,28.3,24.7,28.3,24.7L864.9,461l-0.6-4.3l83.2,8.6
			l305.1-157.5l101.8-20.3C1354.3,287.5,1355.3,283.4,1352.1,267z M750.2,117.3C750.3,117.3,750.3,117.3,750.2,117.3L750.2,117.3z"
			/>
		<path fill="#B36260" d="M1086.8,340.2c-42.3,23.1-85.5,44.5-127.9,67.5c-37,20.2-77,44.1-120.2,46.2c-20.5,1.1-50.8-2.1-60.6-35.2
			c-8.7-29.2-4.8-66.1-6.4-96.4c-2.4-44.2-4.5-88.4-9.8-132.4c0.1,108.5,3.7,237.9-90,312.8c-36.4,29.2-79.6,51.3-123,68.2
			c-37.7,14.7-76.6,19.8-114.9,31.4c-63.1,19.3-98.1,75.3-113.6,136.6c-8.6,33.8-13,61.7-35,90c-15.9,20.3-32.1,35-50.8,52.7
			c-4,3.8-10,10.2-9.6,17.1c0,0,17.9,12.5,32.3,15.7c29.6,6.7,68.8-0.3,95.6-12.3c64-28.5,114.6-68.3,168.7-108.9
			c62.5-46.9,114.6-102.6,173.9-152.9c14.2-12.1,28.9-24.1,42.2-37.2c9.3-9.1,15.6-22,24.4-30.6c12.9-12.5,39.3-12.5,56.6-16.1
			c18.5-3.9,73.5-23.2,73.5-23.2c90.5-35.5,168.6-88.4,249-142c36.2-24.1,74.8-51.8,116-66.6c32.3-11.6,76.2-4.2,97-37.3
			C1258.7,261.3,1170,295,1086.8,340.2z"/>
		<path fill="#8A3030" d="M226.4,900.2c-8.9-7.2,20.4-30.1,24.9-34.5c11.8-11.5,23.3-23.4,33.5-36.4c9.8-12.5,18.3-26.1,23.9-41.1
			c5.9-15.7,9.2-32.3,12.9-48.8c5.5-25.1,13-48.1,26.6-70c17.1-27.7,41.2-49.3,71.2-62.1c31.2-13.4,65.3-18.5,98-27
			c32.9-8.6,64.4-22.3,94.2-38.3c29.1-15.6,56.7-34.4,79.6-58.3c22.6-23.6,38.8-51.3,49.5-82c22.9-66,21-137.2,20.7-206.1
			c0-4.2,0-8.4,0-12.6c6.8,56.6,10.3,113.6,11.3,170.7c0.3,15.4,0.8,30.7,2.5,46c1.1,9.7,2.9,19.2,7.3,28
			c13.9,27.1,46.4,28,72.7,22.8c29.1-5.8,56.2-18.3,82.3-31.7c27.5-14.2,54.7-29,81.9-43.7c27-14.6,53.9-29.1,81.3-43.2
			c18.9-9.8,37.9-19.8,57.6-27.8c54.8-22.4,115.7-32.3,174.4-21.4c7.3,1.4,14.5,3,21.7,4.9c-2.8-0.1-6.3-1.5-9.2-2.1
			c-3.5-0.8-7.1-1.5-10.6-2.1c-7.3-1.4-14.6-2.4-21.9-3.1c-14.7-1.5-29.6-1.8-44.3-0.9c-28.2,1.6-56.2,7.2-83,15.9
			c-21.7,7.1-42.2,16.5-62.6,26.7c-23.9,12.1-47.6,24.7-71.3,37.4c-26.5,14.2-52.8,28.6-79.2,42.8c-25.6,13.6-51.2,27.8-78.2,38.3
			c-25.3,9.7-56.3,19.3-83.4,11.5c-12-3.4-21.9-11-28-21.8c-6.8-12.2-8.2-26.6-9.3-40.3c-2.4-29.1-1.5-58.5-3.1-87.6
			c-1.6-29.9-3.3-59.8-6.2-89.6c-0.8-7.4-1.5-14.9-2.4-22.2c0.3,0,0.5,0,0.9,0c0,68,2.4,138.1-18.4,203.8
			c-9.7,30.5-24.2,58.7-45.4,82.9c-21.2,24.1-47.2,43.5-74.8,59.6c-28.3,16.4-59,31-90.3,40.6c-32.1,9.8-65.6,14.6-97.5,25.4
			c-15,5.2-29.6,11.6-42.7,20.5s-24.4,20-34.1,32.6c-14.4,18.6-24.9,40.2-31.4,62.9c-8.8,31.7-12.1,64.9-29.7,93.5
			c-8.2,13.4-18.3,25.3-29,36.7c-5.8,6.2-11.7,12.2-17.8,18c-5.7,5.4-11.7,10.3-17.1,16.1C230.3,886.6,222,894.8,226.4,900.2z"/>
		<path fill="#8A3030" d="M1351.8,267c-3.5-17.6-10.3-34.8-20.8-49.5c-10.2-14.5-24.1-26.7-38.2-37.4c-29.2-22.2-63-38.2-97.5-50.6
			c-71.3-25.8-147.5-36.9-223.4-37.2c-18.9,0-37.8,0.6-56.6,1.6c-15.6,0.9-31.2,3.5-46.6,5.9c-25.7,4-51.3,8.7-76.7,13.9
			c-7.9,1.6-16,3.1-24.1,4.5c-4.4,0.8-8.7,1.5-13.1,2c-4.8,0.6-6.3,0.3-10.8-1.4c-11.3-4.2-22.8-7.9-34.4-11.6
			c-23.9-7.4-48.4-13.4-73.1-17.9C568,76.8,497.1,76.8,429.3,93.1c-40.6,9.8-80,25.7-115.8,47.1c-44.2,26.6-81.6,61.9-110.2,104.7
			c-41.2,61.9-63.9,134.3-80.1,206.2c-15.4,68-23.8,138.5-17.1,208.1c7.1,73.7,31.5,147.5,81.6,203.3c12.1,13.5,26,24.9,39.7,36.5
			c-0.4,0-1,0-1.4-0.1c1.4-1.6,7.6,3.7,9.2,4.5c4.8,2.8,9.8,5.3,15,7.3c10.5,4,22.2,4.9,33.3,4.8c22.8-0.3,46-4.9,67-14
			c36.3-15.6,70.2-37,102.3-59.8c38-27,75.6-55.2,110.7-85.7c35.7-30.9,69.2-64,104.1-95.6c17.4-15.7,35.5-30.6,53.2-46.2
			c8.2-7.3,16.5-14.6,23.1-23.4c5.7-7.7,10.7-16.4,18.1-22.6c13.7-11.3,33.8-11.6,50.6-14.2c11.2-1.8,22-5.3,32.9-8.7
			c11.3-3.5,22.7-7.3,34-11.1c29.6-10,58.2-23.3,86-37.5c41.6-21.3,81.4-45.7,120.7-71.1c19.9-12.9,39.7-25.7,59.3-38.8
			c19.4-12.9,38.8-26,59-37.7c19.3-11.2,40.1-22.6,61.9-28.1c21.5-5.4,45-4.9,65.4-14.6c4.4-2.1,8.7-4.8,12.5-7.9
			c3.9-3.4,7.2-7.8,10-11.5C1355,281,1352.9,273.3,1351.8,267C1350.4,260.2,1352.4,270.4,1351.8,267z M1352.5,266.9
			c1.1,6,2.5,12.5,2.4,18.6c-0.1,4.2-4.2,7.9-6.9,10.8c-8.2,8.4-18.9,13.4-30.1,16.5c-12.5,3.4-25.3,4.8-38,7.1
			c-12.2,2.1-23.7,5.8-35,10.7c-23.4,10.1-45.2,23.6-66.4,37.5c-21.7,14.4-43,29.1-64.5,43.6c-43.5,29.2-87.2,57.8-133,83.2
			c-28,15.4-56.8,29.4-86.4,41.2c-15.1,6-31,10.8-46.5,15.7c-11.5,3.7-23.1,7.4-35,9.3c-12.2,1.9-24.9,2.8-36.7,7.3
			c-6.3,2.4-11.3,6-15.6,11.3c-7.8,9.4-14,20-22.9,28.6c-18.6,17.9-39.2,33.8-58.6,50.9C640,694,602.4,730.6,562.1,764.4
			c-23.8,20-48.9,38.4-74,56.9c-38,28.1-77.2,54.4-119.7,75.3c-33.5,16.5-72.2,26.7-109.6,19.3c-11.6-2.3-22.4-8.6-32.4-15
			c0.4,0,0.9,0,1.3,0c-1.1,1.3-2.3-0.4-3.1-1.3c-2.6-2.3-5.3-4.4-7.9-6.7c-5-4.3-10.1-8.6-15-13c-9.8-8.8-18.6-18.8-26.8-29.1
			c-16.1-20.3-29.5-42.7-40.1-66.4c-22.3-49.6-32.5-104.1-34.6-158c-1.9-48.3,3-96.1,11-143.6c6.7-40.1,16.9-80,29.4-118.6
			c16.1-50,37.9-98.8,69.7-141.1c24.4-32.6,54.4-60.5,88.7-82.6c20.7-13.4,42.6-24.4,65.1-34c34.4-14.6,70.9-24.4,107.8-29.6
			c47.5-6.6,95.8-6,143.1,0.9c35.8,5.2,70.7,13.7,105.1,24.7c10.6,3.4,20.9,7.2,31.2,10.8c-0.5,0-1-0.1-1.6-0.3
			c17.1-1.5,34-5.3,50.9-8.7c17-3.4,34.3-6.4,51.4-9.1c20.7-3.1,41.6-6.8,62.5-7.8c23.7-1.1,47.4-1.4,71.2-0.6
			c47.2,1.6,94.2,7.6,140.1,18.5c45.6,11,90.8,26.6,131.8,49.6c38.6,21.7,76.9,51.3,91,95C1349.9,255.8,1351.4,261.3,1352.5,266.9
			C1353.1,270.3,1351.1,260.1,1352.5,266.9z"/>
		<path fill="#8A3030" d="M756.1,559.3c-0.9-46.9,0.4-93.9,1.1-140.9c0.9-51.5,1.8-103.1,2.8-154.6c0.5-24.6,0.8-49.3,1.9-73.8
			c6,46.6,8.4,93.5,8.9,140.5c0.6,51.8-1.5,103.7-6,155.3C762.6,510.4,759.9,535,756.1,559.3z"/>
	</g>
</g>
<g id="Layer_1_1_">
	<g>
		<path fill="#6D6E70" d="M359.6,349.7l-49.1,10.4c-15.3,3.2-31.1,3.2-46.3,0l-49.1-10.4c-0.8-0.2-1.4-0.9-1.4-1.7v-37
			c0-1,0.8-1.8,1.8-1.8h143.8c1,0,1.8,0.8,1.8,1.8v37C361,348.8,360.4,349.5,359.6,349.7z"/>
	</g>
	<g>
		<path fill="#6D6E70" d="M195.8,109.2l-28.7,6c-18.1,3.8-36.7,3.8-54.8,0l-28.7-6C73.5,107,66.1,98,66.1,87.5l0,0
			c0-12.3,9.9-22.2,22.2-22.2h102.9c12.3,0,22.2,9.9,22.2,22.2l0,0C213.5,98,206.1,107,195.8,109.2z"/>
	</g>
	<g>
		<path fill="#6D6E70" d="M195.8,129.7l-28.7,6c-18.1,3.8-36.7,3.8-54.8,0l-28.7-6C73.3,127.5,66,118.5,66,108l0,0
			c0-12.3,9.9-22.2,22.2-22.2h102.9c12.3,0,22.2,9.9,22.2,22.2l0,0C213.5,118.5,206.1,127.5,195.8,129.7z"/>
	</g>
	<g>
		<path fill="#6D6E70" d="M1151.2,686l-21.8,8.9c-13.8,5.6-28,5.6-41.7,0l-21.8-8.9c-7.8-3.2-13.4-16.5-13.4-31.9l0,0
			c0-18,7.6-32.7,16.9-32.7h78.4c9.4,0,16.9,14.6,16.9,32.7l0,0C1164.7,669.5,1159.1,682.8,1151.2,686z"/>
	</g>
	<g>
		<path fill="#6D6E70" d="M815,397c-33.5,0-67,0-100.5,0c-22.3-22.3-22.3-58.6,0-80.9c33.5,0,67,0,100.5,0
			C837.3,338.4,837.3,374.7,815,397z"/>
	</g>
	<g>
		<path fill="#6D6E70" d="M710.6,880.5H614c-1.3,0-2.6-0.6-3.4-1.5c-20.4-21.9-20.4-55.9,0-77.9c0.9-1,2.1-1.5,3.4-1.5h96.6
			c1.3,0,2.6,0.6,3.4,1.5c20.4,22,20.4,56.1-0.1,78C713.1,880,711.9,880.5,710.6,880.5z"/>
	</g>
	<g>
		<path fill="#6D6E70" d="M1271,270.8h-157.7c-2.1,0-4.2-0.4-5.6-1.1c-33.3-15.9-33.3-40.5,0-56.3c1.5-0.7,3.5-1.1,5.6-1.1H1271
			c2.1,0,4.2,0.4,5.6,1.1c33.3,15.9,33.3,40.6-0.2,56.4C1275,270.4,1273,270.8,1271,270.8z"/>
	</g>
	<g>
		<path fill="#6D6E70" d="M634.9,292.3c-19.6,0-39.2,0-58.9,0c-13.1-13.1-13.1-34.3,0-47.4c19.6,0,39.2,0,58.9,0
			C647.9,258,647.9,279.2,634.9,292.3z"/>
	</g>
	<g>
		<path fill="#6D6E70" d="M857,144.8c-0.2,11.6-0.4,23.3-0.7,34.9c-10.1,7.6-26.1,7.3-35.9-0.7c0.2-11.6,0.4-23.3,0.7-34.9
			C831.1,136.5,847.2,136.8,857,144.8z"/>
	</g>
	<g>
		<path fill="#6D6E70" d="M956.4,792.3c-16.8,0-33.6,0-50.3,0c-11.2-13.1-11.2-34.3,0-47.4c16.8,0,33.6,0,50.3,0
			C967.6,758,967.6,779.2,956.4,792.3z"/>
	</g>
	<path fill="#6D6E70" d="M1070.5,343.7h-54.7l-11.7,39.8c-2,6.8,3.1,13.5,10.1,13.5h57.9c7.1,0,12.1-6.8,10.1-13.5L1070.5,343.7z"/>
	<path fill="#6D6E70" d="M220.9,788.4L220.9,788.4c-12.6,0-23.6,8.7-26.5,20.9l-4.2,17.6c-1.6,6.6,2.4,13.1,8,13.1h45.6
		c5.5,0,9.5-6.6,8-13.1l-4.2-17.6C244.5,797,233.5,788.4,220.9,788.4z"/>
	<path fill="#6D6E70" d="M638.2,96.9L638.2,96.9c-12.6,0-23.6,10.9-26.5,26.3l-4.2,22.1c-1.6,8.2,2.4,16.5,8,16.5H661
		c5.5,0,9.5-8.3,8-16.5l-4.2-22.1C661.8,107.8,650.8,96.9,638.2,96.9z"/>
	<path fill="#6D6E70" d="M1360,812L1360,812c14,0.1,26.3-11.9,29.7-29l4.9-24.5c1.8-9.1-2.6-18.3-8.7-18.3c0,0-44.5-0.3-50.7-0.4
		c-6.2,0-10.7,9.1-9,18.2l4.5,24.6C1333.8,799.7,1345.9,811.9,1360,812z"/>
	<path fill="#6D6E70" d="M446.6,192.3h-25c-8.8,0-16.6,5.8-19.1,14.3l0,0c-5.7,19.5,8.9,39.1,29.2,39.1h4.7
		c20.3,0,35-19.6,29.2-39.1l0,0C463.2,198.1,455.4,192.3,446.6,192.3z"/>
	<g>
		<path fill="#6D6E70" d="M727.2,499.6l-23.7,5.6c-3.8,0.9-7.9,0.9-11.7,0l-23.7-5.6v-26.2l23.7-5.6c3.8-0.9,7.9-0.9,11.7,0
			l23.7,5.6V499.6z"/>
	</g>
	<g>
		<path fill="#6D6E70" d="M1231.7,889.1l-11.9,5.6c-1.9,0.9-3.9,0.9-5.9,0l-11.9-5.6v-26.2l11.9-5.6c1.9-0.9,3.9-0.9,5.9,0l11.9,5.6
			V889.1z"/>
	</g>
	<g>
		<path fill="#6D6E70" d="M122.7,276.2L99,281.8c-3.8,0.9-7.9,0.9-11.7,0l-23.7-5.6V250l23.7-5.6c3.8-0.9,7.9-0.9,11.7,0l23.7,5.6
			V276.2z"/>
	</g>
	<g>
		<path fill="#6D6E70" d="M1295.7,523l-19.5,7.8c-3.2,1.3-6.5,1.3-9.6,0l-19.5-7.8v-36.4l19.5-7.8c3.2-1.3,6.5-1.3,9.6,0l19.5,7.8
			V523z"/>
	</g>
	<g>
		<path fill="#6D6E70" d="M338.5,564.5l-89.6,22.4c-9.9,2.5-19.6-5-19.6-15.3v-56h116.2v39.9C345.5,559.8,342.6,563.5,338.5,564.5z"
			/>
	</g>
	<g>
		<path fill="#6D6E70" d="M983.5,278.4l-70.4,17c-7.8,1.9-15.4-3.8-15.4-11.6v-14.7c0-15.3,12.4-27.7,27.7-27.7h35.9
			c15.3,0,27.7,12.4,27.7,27.7v2.5C988.9,274.9,986.7,277.7,983.5,278.4z"/>
	</g>
	<g>
		<g opacity="0.5">
			<path fill="none" stroke="#000000" stroke-width="3" stroke-miterlimit="10" d="M499.7,449.6c30.8,0,55.8,25,55.8,55.8
				s-25,55.8-55.8,55.8s-55.8-25-55.8-55.8c0-25.2,16.7-46.5,39.6-53.4"/>
			<circle cx="499.7" cy="449.6" r="7"/>
			<polygon points="493.7,448.9 481.2,459 482.8,452.2 477.6,447.4 			"/>
		</g>
		<g>
			<g>
				<path fill="none" stroke="#FFFFFF" stroke-width="3" stroke-miterlimit="10" d="M498.7,448.6c30.8,0,55.8,25,55.8,55.8
					s-25,55.8-55.8,55.8s-55.8-25-55.8-55.8c0-25.2,16.7-46.5,39.6-53.4"/>
				<g>
					<circle fill="#FFFFFF" cx="498.7" cy="448.6" r="7"/>
				</g>
				<g>
					<polygon fill="#FFFFFF" points="492.7,447.9 480.2,458 481.8,451.2 476.6,446.4 					"/>
				</g>
			</g>
		</g>
	</g>
	<g>
		<circle fill="#6D6E70" cx="498.7" cy="505.3" r="29.4"/>
		<circle fill="#6D6E70" cx="542.2" cy="460.8" r="19"/>
		<circle fill="#6D6E70" cx="542.2" cy="547.8" r="19"/>
		<circle fill="#6D6E70" cx="455.2" cy="547.8" r="19"/>
		<circle fill="#6D6E70" cx="455.2" cy="460.8" r="19"/>
	</g>
	<rect x="255.1" y="672.4" fill="#6D6E70" width="211.8" height="21.7"/>
	<rect x="1365.2" y="91.6" fill="#6D6E70" width="73.7" height="53.1"/>
	<rect x="587" y="594.9" fill="#6D6E70" width="47.9" height="36.1"/>
	<g>
		<g opacity="0.5">
			<path fill="none" stroke="#000000" stroke-width="4" stroke-miterlimit="10" d="M867.8,153.4c72.8-11.9,147.4,0.7,224.3,45.8"/>
			<polygon points="1103,205.8 1083.9,202.9 1091.3,198.8 1091.4,190.3 			"/>
		</g>
		<g>
			<g>
				<path fill="none" stroke="#FFFFFF" stroke-width="4" stroke-miterlimit="10" d="M866.8,152.4c72.8-11.9,147.4,0.7,224.3,45.8"/>
				<g>
					<polygon fill="#FFFFFF" points="1102,204.8 1082.9,201.9 1090.3,197.8 1090.4,189.3 					"/>
				</g>
			</g>
		</g>
	</g>
	<g>
		<g opacity="0.5">
			<path fill="none" stroke="#000000" stroke-width="4" stroke-miterlimit="10" d="M1175.2,281.7c-9.9,38.2-35.6,62.9-81.9,69.9"/>
			<polygon points="1080.6,352.9 1097.5,343.5 1094.2,351.3 1099.3,358 			"/>
		</g>
		<g>
			<g>
				<path fill="none" stroke="#FFFFFF" stroke-width="4" stroke-miterlimit="10" d="M1174.2,280.7c-9.9,38.2-35.6,62.9-81.9,69.9"/>
				<g>
					<polygon fill="#FFFFFF" points="1079.6,351.9 1096.5,342.5 1093.2,350.3 1098.3,357 					"/>
				</g>
			</g>
		</g>
	</g>
	<g>
		<g opacity="0.5">
			<path fill="none" stroke="#000000" stroke-width="4" stroke-miterlimit="10" d="M365.9,700.6c108.6,79.7,166.2,96.6,214.7,115.7"
				/>
			<polygon points="592.3,821.1 573,821.3 579.6,816.1 578.4,807.7 			"/>
		</g>
		<g>
			<g>
				<path fill="none" stroke="#FFFFFF" stroke-width="4" stroke-miterlimit="10" d="M364.9,699.6c108.6,79.7,166.2,96.6,214.7,115.7
					"/>
				<g>
					<polygon fill="#FFFFFF" points="591.3,820.1 572,820.3 578.6,815.1 577.4,806.7 					"/>
				</g>
			</g>
		</g>
	</g>
	<g>
		<g opacity="0.5">
			<path fill="none" stroke="#000000" stroke-width="4" stroke-miterlimit="10" d="M129,149.2c0,0-28.7,34.9-34.1,71.1"/>
			<polygon points="94.2,233 88.2,214.6 95.2,219.4 102.8,215.7 			"/>
		</g>
		<g>
			<g>
				<path fill="none" stroke="#FFFFFF" stroke-width="4" stroke-miterlimit="10" d="M128,148.2c0,0-28.7,34.9-34.1,71.1"/>
				<g>
					<polygon fill="#FFFFFF" points="93.2,232 87.2,213.6 94.2,218.4 101.8,214.7 					"/>
				</g>
			</g>
		</g>
	</g>
	<g>
		<g opacity="0.5">
			<path fill="none" stroke="#000000" stroke-width="4" stroke-miterlimit="10" d="M300.8,583c0,0,176.4,52.4,269.6,43.5"/>
			<polygon points="583,624.8 566.1,634.3 569.4,626.5 564.3,619.8 			"/>
		</g>
		<g>
			<g>
				<path fill="none" stroke="#FFFFFF" stroke-width="4" stroke-miterlimit="10" d="M299.8,582c0,0,176.4,52.4,269.6,43.5"/>
				<g>
					<polygon fill="#FFFFFF" points="582,623.8 565.1,633.3 568.4,625.5 563.3,618.8 					"/>
				</g>
			</g>
		</g>
	</g>
	<g>
		<g opacity="0.5">
			<path fill="none" stroke="#000000" stroke-width="4" stroke-miterlimit="10" d="M770.9,404c0,0,80.9,234.3,147.8,322.4"/>
			<polygon points="926.7,736.3 909.8,726.8 918.2,725.6 921.3,717.7 			"/>
		</g>
		<g>
			<g>
				<path fill="none" stroke="#FFFFFF" stroke-width="4" stroke-miterlimit="10" d="M769.9,403c0,0,80.9,234.3,147.8,322.4"/>
				<g>
					<polygon fill="#FFFFFF" points="925.7,735.3 908.8,725.8 917.2,724.6 920.3,716.7 					"/>
				</g>
			</g>
		</g>
	</g>
	<g>
		<g opacity="0.5">
			<path fill="none" stroke="#000000" stroke-width="4" stroke-miterlimit="10" d="M606.4,126.2c-187.3,92.5-80.6,217.9-102.9,291.1
				"/>
			<polygon points="498.6,429 498.6,409.7 503.7,416.4 512.1,415.2 			"/>
		</g>
		<g>
			<g>
				<path fill="none" stroke="#FFFFFF" stroke-width="4" stroke-miterlimit="10" d="M605.4,125.2
					c-187.3,92.5-80.6,217.9-102.9,291.1"/>
				<g>
					<polygon fill="#FFFFFF" points="497.6,428 497.6,408.7 502.7,415.4 511.1,414.2 					"/>
				</g>
			</g>
		</g>
	</g>
	<g>
		<g opacity="0.5">
			<path fill="none" stroke="#000000" stroke-width="4" stroke-miterlimit="10" d="M107,283.5c0,0,10.5,137.6,104.6,215.6"/>
			<polygon points="221.6,506.9 203,501.5 210.9,498.4 212.1,490 			"/>
		</g>
		<g>
			<g>
				<path fill="none" stroke="#FFFFFF" stroke-width="4" stroke-miterlimit="10" d="M106,282.5c0,0,10.5,137.6,104.6,215.6"/>
				<g>
					<polygon fill="#FFFFFF" points="220.6,505.9 202,500.5 209.9,497.4 211.1,489 					"/>
				</g>
			</g>
		</g>
	</g>
	<g>
		<g opacity="0.5">
			<path fill="none" stroke="#000000" stroke-width="4" stroke-miterlimit="10" d="M1243.1,516.6c0,0-86.1,38.3-105.7,85.6"/>
			<polygon points="1134,614.5 1132.1,595.2 1137.9,601.4 1146.1,599.4 			"/>
		</g>
		<g>
			<g>
				<path fill="none" stroke="#FFFFFF" stroke-width="4" stroke-miterlimit="10" d="M1242.1,515.6c0,0-86.1,38.3-105.7,85.6"/>
				<g>
					<polygon fill="#FFFFFF" points="1133,613.5 1131.1,594.2 1136.9,600.4 1145.1,598.4 					"/>
				</g>
			</g>
		</g>
	</g>
	<g>
		<g opacity="0.5">
			<path fill="none" stroke="#000000" stroke-width="4" stroke-miterlimit="10" d="M891.3,787.2c0,0-99,58.1-144.3,67.6"/>
			<polygon points="734.4,856.1 751.4,846.8 748,854.5 753,861.3 			"/>
		</g>
		<g>
			<g>
				<path fill="none" stroke="#CF726A" stroke-width="4" stroke-miterlimit="10" d="M890.3,786.2c0,0-99,58.1-144.3,67.6"/>
				<g>
					<polygon fill="#CF726A" points="733.4,855.1 750.4,845.8 747,853.5 752,860.3 					"/>
				</g>
			</g>
		</g>
	</g>
	<g>
		<g opacity="0.5">
			<path fill="none" stroke="#000000" stroke-width="4" stroke-miterlimit="10" d="M821.4,398.1C950.1,435.4,1025.7,565,1046,604.3"
				/>
			<polygon points="1051.6,615.7 1037.1,602.9 1045.5,603.4 1050.2,596.4 			"/>
		</g>
		<g>
			<g>
				<path fill="none" stroke="#CF726A" stroke-width="4" stroke-miterlimit="10" d="M820.4,397.1C949.1,434.4,1024.7,564,1045,603.3
					"/>
				<g>
					<polygon fill="#CF726A" points="1050.6,614.7 1036.1,601.9 1044.5,602.4 1049.2,595.4 					"/>
				</g>
			</g>
		</g>
	</g>
	<g>
		<g opacity="0.5">
			<path fill="none" stroke="#000000" stroke-width="4" stroke-miterlimit="10" d="M1302.6,506.4c47.1,2.2,60.2,168.4,63,216.1"/>
			<polygon points="1366.2,735.2 1357.9,717.7 1365.5,721.5 1372.5,716.9 			"/>
		</g>
		<g>
			<g>
				<path fill="none" stroke="#CF726A" stroke-width="4" stroke-miterlimit="10" d="M1301.6,505.4c47.1,2.2,60.2,168.4,63,216.1"/>
				<g>
					<polygon fill="#CF726A" points="1365.2,734.2 1356.9,716.7 1364.5,720.5 1371.5,715.9 					"/>
				</g>
			</g>
		</g>
	</g>
	<g>
		<g opacity="0.5">
			<path fill="none" stroke="#000000" stroke-width="4" stroke-miterlimit="10" d="M832.7,329.5c0,0,79.9-5.9,153.5,28.3"/>
			<polygon points="997.6,363.5 978.3,362.1 985.3,357.4 984.7,349 			"/>
		</g>
		<g>
			<g>
				<path fill="none" stroke="#F0D973" stroke-width="4" stroke-miterlimit="10" d="M831.7,328.5c0,0,79.9-5.9,153.5,28.3"/>
				<g>
					<polygon fill="#F0D973" points="996.6,362.5 977.3,361.1 984.3,356.4 983.7,348 					"/>
				</g>
			</g>
		</g>
	</g>
	<g>
		<g opacity="0.5">
			<line fill="none" stroke="#000000" stroke-width="4" stroke-miterlimit="10" x1="475.2" y1="225.8" x2="550.4" y2="256.5"/>
			<polygon points="562.2,261.3 542.9,261.3 549.6,256.1 548.4,247.8 			"/>
		</g>
		<g>
			<g>
				<line fill="none" stroke="#F0D973" stroke-width="4" stroke-miterlimit="10" x1="474.2" y1="224.8" x2="549.4" y2="255.5"/>
				<g>
					<polygon fill="#F0D973" points="561.2,260.3 541.9,260.3 548.6,255.1 547.4,246.8 					"/>
				</g>
			</g>
		</g>
	</g>
	<g>
		<g opacity="0.5">
			<path fill="none" stroke="#000000" stroke-width="4" stroke-miterlimit="10" d="M658,487.6c0,0-51.6-107.7-111.4-61.9"/>
			<polygon points="537.1,434.2 545.7,416.9 547.4,425.2 555.4,427.9 			"/>
		</g>
		<g>
			<g>
				<path fill="none" stroke="#F0D973" stroke-width="4" stroke-miterlimit="10" d="M657,486.6c0,0-51.6-107.7-111.4-61.9"/>
				<g>
					<polygon fill="#F0D973" points="536.1,433.2 544.7,415.9 546.4,424.2 554.4,426.9 					"/>
				</g>
			</g>
		</g>
	</g>
	<g>
		<g opacity="0.5">
			<path fill="none" stroke="#000000" stroke-width="4" stroke-miterlimit="10" d="M337,702.6c-16.8,44.8-52,74.4-69.7,87"/>
			<polygon points="256.6,796.6 267.4,780.5 268,788.9 275.6,792.6 			"/>
		</g>
		<g>
			<g>
				<path fill="none" stroke="#F0D973" stroke-width="4" stroke-miterlimit="10" d="M336,701.6c-16.8,44.8-52,74.4-69.7,87"/>
				<g>
					<polygon fill="#F0D973" points="255.6,795.6 266.4,779.5 267,787.9 274.6,791.6 					"/>
				</g>
			</g>
		</g>
	</g>
	<g>
		<g opacity="0.5">
			<path fill="none" stroke="#000000" stroke-width="4" stroke-miterlimit="10" d="M177.1,137.7c0,0,97.4,85,117,152.3"/>
			<polygon points="296.8,302.4 285.7,286.5 293.8,289 299.9,283.3 			"/>
		</g>
		<g>
			<g>
				<path fill="none" stroke="#EAA85B" stroke-width="4" stroke-miterlimit="10" d="M176.1,136.7c0,0,97.4,85,117,152.3"/>
				<g>
					<polygon fill="#EAA85B" points="295.8,301.4 284.7,285.5 292.8,288 298.9,282.3 					"/>
				</g>
			</g>
		</g>
	</g>
	<g>
		<g opacity="0.5">
			<path fill="none" stroke="#000000" stroke-width="4" stroke-miterlimit="10" d="M369.4,330.6c41.4,13.7,93.8,54.8,111.3,86.7"/>
			<polygon points="485.7,429 471.8,415.5 480.2,416.5 485.2,409.7 			"/>
		</g>
		<g>
			<g>
				<path fill="none" stroke="#EAA85B" stroke-width="4" stroke-miterlimit="10" d="M368.4,329.6c41.4,13.7,93.8,54.8,111.3,86.7"/>
				<g>
					<polygon fill="#EAA85B" points="484.7,428 470.8,414.5 479.2,415.5 484.2,408.7 					"/>
				</g>
			</g>
		</g>
	</g>
	<g>
		<g opacity="0.5">
			<path fill="none" stroke="#000000" stroke-width="4" stroke-miterlimit="10" d="M645.7,605.3c0,0,214.9-215.7,331.6-222.4"/>
			<polygon points="990,383 972.1,390.3 976.3,383 972.1,375.7 			"/>
		</g>
		<g>
			<g>
				<path fill="none" stroke="#EAA85B" stroke-width="4" stroke-miterlimit="10" d="M644.7,604.3c0,0,214.9-215.7,331.6-222.4"/>
				<g>
					<polygon fill="#EAA85B" points="989,382 971.1,389.3 975.3,382 971.1,374.7 					"/>
				</g>
			</g>
		</g>
	</g>
	<g>
		<g opacity="0.5">
			<path fill="none" stroke="#000000" stroke-width="4" stroke-miterlimit="10" d="M676.5,888.4c43.9,49.9,444,48.7,510.8,14.2"/>
			<polygon points="1196.5,894 1188,911.3 1186.3,903 1178.3,900.4 			"/>
		</g>
		<g>
			<g>
				<path fill="none" stroke="#EAA85B" stroke-width="4" stroke-miterlimit="10" d="M675.5,887.4c43.9,49.9,444,48.7,510.8,14.2"/>
				<g>
					<polygon fill="#EAA85B" points="1195.5,893 1187,910.3 1185.3,902 1177.3,899.4 					"/>
				</g>
			</g>
		</g>
	</g>
	<g>
		<g opacity="0.5">
			<path fill="none" stroke="#000000" stroke-width="4" stroke-miterlimit="10" d="M672.9,119.2c36.3,12,99.2,123.3,100.3,178.3"/>
			<polygon points="772.1,310.2 766.1,291.8 773.1,296.5 780.7,292.8 			"/>
		</g>
		<g>
			<g>
				<path fill="none" stroke="#EAA85B" stroke-width="4" stroke-miterlimit="10" d="M671.9,118.2c36.3,12,99.2,123.3,100.3,178.3"/>
				<g>
					<polygon fill="#EAA85B" points="771.1,309.2 765.1,290.8 772.1,295.5 779.7,291.8 					"/>
				</g>
			</g>
		</g>
	</g>
	<g>
		<g opacity="0.5">
			<path fill="none" stroke="#000000" stroke-width="4" stroke-miterlimit="10" d="M1243.4,278.1c0,0,55.6,99.5,39.7,176.2"/>
			<polygon points="1279.9,466.7 1277.2,447.5 1283.2,453.4 1291.4,451.1 			"/>
		</g>
		<g>
			<g>
				<path fill="none" stroke="#EAA85B" stroke-width="4" stroke-miterlimit="10" d="M1242.4,277.1c0,0,55.6,99.5,39.7,176.2"/>
				<g>
					<polygon fill="#EAA85B" points="1278.9,465.7 1276.2,446.5 1282.2,452.4 1290.4,450.1 					"/>
				</g>
			</g>
		</g>
	</g>
	<g>
		<g opacity="0.5">
			<path fill="none" stroke="#000000" stroke-width="4" stroke-miterlimit="10" d="M656.4,263.9c0,0,45.7-7.6,77.1,30.8"/>
			<polygon points="740.9,305 724.4,294.8 732.9,294 736.3,286.2 			"/>
		</g>
		<g>
			<g>
				<path fill="none" stroke="#F0D973" stroke-width="4" stroke-miterlimit="10" d="M655.4,262.9c0,0,45.7-7.6,77.1,30.8"/>
				<g>
					<polygon fill="#F0D973" points="739.9,304 723.4,293.8 731.9,293 735.3,285.2 					"/>
				</g>
			</g>
		</g>
	</g>
	<g>
		<g opacity="0.5">
			<path fill="none" stroke="#000000" stroke-width="4" stroke-miterlimit="10" d="M438.2,254.8c17.8,85.9-95.9,322.6-91.6,397.9"/>
			<polygon points="349,665.2 338.7,648.8 346.7,651.7 353.1,646.3 			"/>
		</g>
		<g>
			<g>
				<path fill="none" stroke="#F0D973" stroke-width="4" stroke-miterlimit="10" d="M437.2,253.8c17.8,85.9-95.9,322.6-91.6,397.9"
					/>
				<g>
					<polygon fill="#F0D973" points="348,664.2 337.7,647.8 345.7,650.7 352.1,645.3 					"/>
				</g>
			</g>
		</g>
	</g>
	<g>
		<g opacity="0.5">
			<path fill="none" stroke="#000000" stroke-width="4" stroke-miterlimit="10" d="M1083.7,696.8c0,0-70,58.6-104,73.3"/>
			<polygon points="967.4,773.5 982.5,761.4 980.5,769.7 986.7,775.5 			"/>
		</g>
		<g>
			<g>
				<path fill="none" stroke="#CF726A" stroke-width="4" stroke-miterlimit="10" d="M1082.7,695.8c0,0-70,58.6-104,73.3"/>
				<g>
					<polygon fill="#CF726A" points="966.4,772.5 981.5,760.4 979.5,768.7 985.7,774.5 					"/>
				</g>
			</g>
		</g>
	</g>
	<g>
		<g opacity="0.5">
			<path fill="none" stroke="#000000" stroke-width="4" stroke-miterlimit="10" d="M222,90c0,0,105.7,23,168.4,86.9"/>
			<polygon points="399,186.2 381.4,178.1 389.7,176.2 392.1,168.1 			"/>
		</g>
		<g>
			<g>
				<path fill="none" stroke="#F0D973" stroke-width="4" stroke-miterlimit="10" d="M221,89c0,0,105.7,23,168.4,86.9"/>
				<g>
					<polygon fill="#F0D973" points="398,185.2 380.4,177.1 388.7,175.2 391.1,167.1 					"/>
				</g>
			</g>
		</g>
	</g>
	<g>
		<g opacity="0.5">
			<path fill="none" stroke="#000000" stroke-width="4" stroke-miterlimit="10" d="M699.6,516.1c0,0,105.1,190.6,171.4,240.7"/>
			<polygon points="881.6,763.8 862.7,759.9 870.3,756.2 870.8,747.7 			"/>
		</g>
		<g>
			<g>
				<path fill="none" stroke="#D2AFDE" stroke-width="4" stroke-miterlimit="10" d="M698.6,515.1c0,0,105.1,190.6,171.4,240.7"/>
				<g>
					<polygon fill="#D2AFDE" points="880.6,762.8 861.7,758.9 869.3,755.2 869.8,746.7 					"/>
				</g>
			</g>
		</g>
	</g>
	<g>
		<g opacity="0.5">
			<path fill="none" stroke="#000000" stroke-width="4" stroke-miterlimit="10" d="M602.4,298.3c0,0,42.7,110.9,70.7,151.7"/>
			<polygon points="681,460 664.3,450.3 672.7,449.2 675.9,441.4 			"/>
		</g>
		<g>
			<g>
				<path fill="none" stroke="#D2AFDE" stroke-width="4" stroke-miterlimit="10" d="M601.4,297.3c0,0,42.7,110.9,70.7,151.7"/>
				<g>
					<polygon fill="#D2AFDE" points="680,459 663.3,449.3 671.7,448.2 674.9,440.4 					"/>
				</g>
			</g>
		</g>
	</g>
	<g>
		<g opacity="0.5">
			<path fill="none" stroke="#000000" stroke-width="4" stroke-miterlimit="10" d="M320.1,372.8c15,34.3-18,102-32.4,128.6"/>
			<polygon points="281.5,512.4 283.8,493.2 288.1,500.5 296.6,500.3 			"/>
		</g>
		<g>
			<g>
				<path fill="none" stroke="#D2AFDE" stroke-width="4" stroke-miterlimit="10" d="M319.1,371.8c15,34.3-18,102-32.4,128.6"/>
				<g>
					<polygon fill="#D2AFDE" points="280.5,511.4 282.8,492.2 287.1,499.5 295.6,499.3 					"/>
				</g>
			</g>
		</g>
	</g>
	<g>
		<g opacity="0.5">
			<path fill="none" stroke="#000000" stroke-width="4" stroke-miterlimit="10" d="M644,612.1c56.5,15.4,36.6,127.1,28.2,164.8"/>
			<polygon points="669.3,789.2 666.2,770.1 672.4,775.9 680.5,773.4 			"/>
		</g>
		<g>
			<g>
				<path fill="none" stroke="#A6CC9C" stroke-width="4" stroke-miterlimit="10" d="M643,611.1c56.5,15.4,36.6,127.1,28.2,164.8"/>
				<g>
					<polygon fill="#A6CC9C" points="668.3,788.2 665.2,769.1 671.4,774.9 679.5,772.4 					"/>
				</g>
			</g>
		</g>
	</g>
	<g>
		<g opacity="0.5">
			<path fill="none" stroke="#000000" stroke-width="4" stroke-miterlimit="10" d="M1354.5,98.4c-58.1-6.3-360.3,46.5-398.4,124.5"
				/>
			<polygon points="952.4,235.1 951.1,215.8 956.7,222.1 965,220.3 			"/>
		</g>
		<g>
			<g>
				<path fill="none" stroke="#A6CC9C" stroke-width="4" stroke-miterlimit="10" d="M1353.5,97.4c-58.1-6.3-360.3,46.5-398.4,124.5"
					/>
				<g>
					<polygon fill="#A6CC9C" points="951.4,234.1 950.1,214.8 955.7,221.1 964,219.3 					"/>
				</g>
			</g>
		</g>
	</g>
	<g>
		<g opacity="0.5">
			<path fill="none" stroke="#000000" stroke-width="4" stroke-miterlimit="10" d="M954,290.8c0,0,59.5,3.7,84,38.5"/>
			<polygon points="1044.2,340.4 1028.9,328.5 1037.4,328.5 1041.7,321.2 			"/>
		</g>
		<g>
			<g>
				<path fill="none" stroke="#A6CC9C" stroke-width="4" stroke-miterlimit="10" d="M953,289.8c0,0,59.5,3.7,84,38.5"/>
				<g>
					<polygon fill="#A6CC9C" points="1043.2,339.4 1027.9,327.5 1036.4,327.5 1040.7,320.2 					"/>
				</g>
			</g>
		</g>
	</g>
	<g>
		<g opacity="0.5">
			<path fill="none" stroke="#000000" stroke-width="4" stroke-miterlimit="10" d="M846.7,190.9c27.5,32.8,5.6,64.6-41.1,107"/>
			<polygon points="796.1,306.3 804.4,288.9 806.2,297.1 814.2,299.7 			"/>
		</g>
		<g>
			<g>
				<path fill="none" stroke="#A6CC9C" stroke-width="4" stroke-miterlimit="10" d="M845.7,189.9c27.5,32.8,5.6,64.6-41.1,107"/>
				<g>
					<polygon fill="#A6CC9C" points="795.1,305.3 803.4,287.9 805.2,296.1 813.2,298.7 					"/>
				</g>
			</g>
		</g>
	</g>
	<g>
		<g opacity="0.5">
			<path fill="none" stroke="#000000" stroke-width="4" stroke-miterlimit="10" d="M687,337c-82.7,7.7-144.3,61-166.2,82.8"/>
			<polygon points="512,429 519.2,411.1 521.5,419.2 529.7,421.2 			"/>
		</g>
		<g>
			<g>
				<path fill="none" stroke="#A6CC9C" stroke-width="4" stroke-miterlimit="10" d="M686,336c-82.7,7.7-144.3,61-166.2,82.8"/>
				<g>
					<polygon fill="#A6CC9C" points="511,428 518.2,410.1 520.5,418.2 528.7,420.2 					"/>
				</g>
			</g>
		</g>
	</g>
	<g>
		<g opacity="0.5">
			<path fill="none" stroke="#000000" stroke-width="4" stroke-miterlimit="10" d="M1360.6,113.2c0,0-149.7,36.8-170,80.1"/>
			<polygon points="1188.5,205.8 1184.8,186.8 1191.2,192.4 1199.2,189.7 			"/>
		</g>
		<g>
			<g>
				<path fill="none" stroke="#CF726A" stroke-width="4" stroke-miterlimit="10" d="M1359.6,112.2c0,0-149.7,36.8-170,80.1"/>
				<g>
					<polygon fill="#CF726A" points="1187.5,204.8 1183.8,185.8 1190.2,191.4 1198.2,188.7 					"/>
				</g>
			</g>
		</g>
	</g>
	<g>
		<g opacity="0.5">
			<path fill="none" stroke="#000000" stroke-width="4" stroke-miterlimit="10" d="M1217.8,851.2c0,0-12.4-95.2-63.5-140.8"/>
			<polygon points="1144.4,702.6 1162.9,708.1 1155,711.1 1153.8,719.5 			"/>
		</g>
		<g>
			<g>
				<path fill="none" stroke="#CF726A" stroke-width="4" stroke-miterlimit="10" d="M1216.8,850.2c0,0-12.4-95.2-63.5-140.8"/>
				<g>
					<polygon fill="#CF726A" points="1143.4,701.6 1161.9,707.1 1154,710.1 1152.8,718.5 					"/>
				</g>
			</g>
		</g>
	</g>
	<g>
		<g opacity="0.5">
			<path fill="none" stroke="#000000" stroke-width="4" stroke-miterlimit="10" d="M220.8,558.1c-58.9,69.1-37.3,181.4-28,218.4"/>
			<polygon points="196.1,788.7 184.5,773.3 192.6,775.5 198.6,769.6 			"/>
		</g>
		<g>
			<g>
				<path fill="none" stroke="#D2AFDE" stroke-width="4" stroke-miterlimit="10" d="M219.8,557.1c-58.9,69.1-37.3,181.4-28,218.4"/>
				<g>
					<polygon fill="#D2AFDE" points="195.1,787.7 183.5,772.3 191.6,774.5 197.6,768.6 					"/>
				</g>
			</g>
		</g>
	</g>
	<g>
		<g opacity="0.5">
			<path fill="none" stroke="#000000" stroke-width="4" stroke-miterlimit="10" d="M222,73.3c56.4-26.8,290.2-4,368.8,26.6"/>
			<polygon points="602.4,105 583,104.5 589.9,99.5 588.9,91.1 			"/>
		</g>
		<g>
			<g>
				<path fill="none" stroke="#D2AFDE" stroke-width="4" stroke-miterlimit="10" d="M221,72.3c56.4-26.8,290.2-4,368.8,26.6"/>
				<g>
					<polygon fill="#D2AFDE" points="601.4,104 582,103.5 588.9,98.5 587.9,90.1 					"/>
				</g>
			</g>
		</g>
	</g>
	<g>
		<g opacity="0.5">
			<path fill="none" stroke="#000000" stroke-width="4" stroke-miterlimit="10" d="M263.1,832c0,0,225.7,56.7,308,32.4"/>
			<polygon points="583,859.8 568.8,872.9 570.2,864.6 563.7,859.2 			"/>
		</g>
		<g>
			<g>
				<path fill="none" stroke="#D2AFDE" stroke-width="4" stroke-miterlimit="10" d="M262.1,831c0,0,225.7,56.7,308,32.4"/>
				<g>
					<polygon fill="#D2AFDE" points="582,858.8 567.8,871.9 569.2,863.6 562.7,858.2 					"/>
				</g>
			</g>
		</g>
	</g>
	<g>
		<g opacity="0.5">
			<path fill="none" stroke="#000000" stroke-width="4" stroke-miterlimit="10" d="M1046,405.9c10.9,63.6-15.1,109.3,47.9,198.3"/>
			<polygon points="1101.5,614.5 1085,604.3 1093.5,603.4 1096.9,595.7 			"/>
		</g>
		<g>
			<g>
				<path fill="none" stroke="#A6CC9C" stroke-width="4" stroke-miterlimit="10" d="M1045,404.9c10.9,63.6-15.1,109.3,47.9,198.3"/>
				<g>
					<polygon fill="#A6CC9C" points="1100.5,613.5 1084,603.3 1092.5,602.4 1095.9,594.7 					"/>
				</g>
			</g>
		</g>
	</g>
</g>
</svg>
