<?xml version="1.0" encoding="utf-8"?>
<!-- Generator: Adobe Illustrator 18.1.1, SVG Export Plug-In . SVG Version: 6.00 Build 0)  -->
<!DOCTYPE svg PUBLIC "-//W3C//DTD SVG 1.1//EN" "http://www.w3.org/Graphics/SVG/1.1/DTD/svg11.dtd">
<svg version="1.1" id="Layer_1" xmlns="http://www.w3.org/2000/svg" xmlns:xlink="http://www.w3.org/1999/xlink" x="0px" y="0px"
	 viewBox="0 0 920 690" enable-background="new 0 0 920 690" xml:space="preserve">
<filter  height="170%" width="170%" id="ds1" y="-20%" x="-30%">
	<feOffset  in="SourceAlpha" result="offOut" dy="1" dx="0"></feOffset>
	<feGaussianBlur  in="offOut" stdDeviation="2" result="blurOut"></feGaussianBlur>
	<feComponentTransfer>
		<feFuncA  type="linear" slope="0.5"></feFuncA>
	</feComponentTransfer>
	<feMerge>
		<feMergeNode></feMergeNode>
		<feMergeNode  in="SourceGraphic"></feMergeNode>
	</feMerge>
</filter>
<g opacity="0.45" filter="url(#ds1)">
	<circle fill="#D0D2D3" cx="438.1" cy="647.7" r="6.8"/>
	
		<circle fill="none" stroke="#929497" stroke-width="1.3289" stroke-linejoin="round" stroke-miterlimit="10" cx="438.1" cy="647.7" r="6.8"/>
</g>
<g opacity="0.45">
	<g filter="url(#ds1)">
		<path fill="#D0D2D3" d="M494.4,625.8c-0.1-1.6-1.3-3.6-2.8-4.4l-6.7-3.4c-1.5-0.8-3.8-0.6-5.2,0.3l-6.3,4.1
			c-1.4,0.9-2.5,3-2.5,4.6l0,6.7c0,0.8-0.1,2.7-0.1,2.7s-1.4,1.9-2,2.5l-6.2,6.7c-1.1,1.2-1.4,3.4-0.6,4.8l4.5,8
			c0.8,1.4,2.8,2.4,4.4,2l9-1.8c1.6-0.3,3.1-1.9,3.3-3.6l1.1-9.1c0.2-1.6,0.4-3,0.4-3s1.1-0.7,2.5-1.6l5.3-3.4
			c1.4-0.9,2.5-3,2.4-4.6L494.4,625.8z"/>
		<path fill="none" stroke="#929497" stroke-width="1.4546" stroke-linejoin="round" stroke-miterlimit="10" d="M494.4,625.8
			c-0.1-1.6-1.3-3.6-2.8-4.4l-6.7-3.4c-1.5-0.8-3.8-0.6-5.2,0.3l-6.3,4.1c-1.4,0.9-2.5,3-2.5,4.6l0,6.7c0,0.8-0.1,2.7-0.1,2.7
			s-1.4,1.9-2,2.5l-6.2,6.7c-1.1,1.2-1.4,3.4-0.6,4.8l4.5,8c0.8,1.4,2.8,2.4,4.4,2l9-1.8c1.6-0.3,3.1-1.9,3.3-3.6l1.1-9.1
			c0.2-1.6,0.4-3,0.4-3s1.1-0.7,2.5-1.6l5.3-3.4c1.4-0.9,2.5-3,2.4-4.6L494.4,625.8z"/>
	</g>
	<g filter="url(#ds1)">
		<circle fill="#F4F4F4" cx="468.5" cy="623.3" r="5.1"/>
		<g>
			<rect x="467.8" y="620" fill="#3F3F3F" width="1.5" height="6.6"/>
			<rect x="465.2" y="622.6" fill="#3F3F3F" width="6.6" height="1.5"/>
		</g>
	</g>
	<g filter="url(#ds1)">
		<circle fill="#F4F4F4" cx="491.3" cy="649.1" r="5.1"/>
		<g>
			<rect x="490.6" y="645.8" fill="#3F3F3F" width="1.5" height="6.6"/>
			<rect x="488" y="648.4" fill="#3F3F3F" width="6.6" height="1.5"/>
		</g>
	</g>
	<g filter="url(#ds1)">
		<circle fill="#3F3F3F" cx="475.9" cy="633.7" r="3.7"/>
		<rect x="473.4" y="633" fill="#FFFFFF" width="4.9" height="1.4"/>
	</g>
	<g filter="url(#ds1)">
		<circle fill="#3F3F3F" cx="485.5" cy="635.9" r="3.7"/>
		<rect x="483.1" y="635.2" fill="#FFFFFF" width="4.9" height="1.4"/>
	</g>
</g>
<g>
	<g opacity="0.5">
		<path fill="none" stroke="#000000" stroke-width="2" stroke-miterlimit="10" d="M439.7,607.8c0.8,8.8-3.8,18.1-8.3,24.7"/>
		<polygon points="426.2,639.2 429.5,626.7 431.7,631.9 437.3,632.6 		"/>
	</g>
	<g>
		<g>
			<path fill="none" stroke="#FFFFFF" stroke-width="2" stroke-miterlimit="10" d="M438.7,606.8c0.8,8.8-3.8,18.1-8.3,24.7"/>
			<g>
				<polygon fill="#FFFFFF" points="425.2,638.2 428.5,625.7 430.7,630.9 436.3,631.6 				"/>
			</g>
		</g>
	</g>
</g>
<g opacity="0.45" filter="url(#ds1)">
	<path fill="#D0D2D3" d="M492.9,472.2l37.9-1.4c3.1-0.1,5.6,2.4,5.6,5.4v7.7c0,3.3-2.8,5.8-6.1,5.4l-40.2-4.6
		c-0.7-0.1-1.3-0.7-1.3-1.4v-7.1C489,474.1,490.7,472.3,492.9,472.2z"/>
	<path fill="none" stroke="#929497" stroke-width="1.5" stroke-linejoin="round" stroke-miterlimit="10" d="M492.9,472.2l37.9-1.4
		c3.1-0.1,5.6,2.4,5.6,5.4v7.7c0,3.3-2.8,5.8-6.1,5.4l-40.2-4.6c-0.7-0.1-1.3-0.7-1.3-1.4v-7.1C489,474.1,490.7,472.3,492.9,472.2z"
		/>
</g>
<g opacity="0.45" filter="url(#ds1)">
	<path fill="#D0D2D3" d="M342,448.6l3.2,6.7c0.6,1.5,2.4,2.8,4,2.9l5.1,0.1c1.6,0,3.8-1.1,4.7-2.4l3.8-5.4c1-1.3,1.3-3.7,0.7-5.3
		l-1.8-4.8c-0.6-1.5-2.4-2.8-4-2.9c0,0-7.4-0.9-7.5-0.9c-0.2,0-3.4-6.8-3.4-6.8c-0.6-1.5-2.4-2.8-4-2.9l-7.6-1l-3.3-6.7
		c-0.6-1.5-2.4-2.8-4-2.9l-5.1-0.1c-1.6,0-3.8,1.1-4.7,2.4l-3.8,5.4c-1,1.3-1.3,3.7-0.7,5.3l1.8,4.8c0.6,1.5,2.4,2.8,4,2.9l7.5,0.9
		l3.4,6.8c0.6,1.5,2.4,2.8,4,2.9L342,448.6z"/>
	<path fill="none" stroke="#929497" stroke-width="1.4546" stroke-linejoin="round" stroke-miterlimit="10" d="M342,448.6l3.2,6.7
		c0.6,1.5,2.4,2.8,4,2.9l5.1,0.1c1.6,0,3.8-1.1,4.7-2.4l3.8-5.4c1-1.3,1.3-3.7,0.7-5.3l-1.8-4.8c-0.6-1.5-2.4-2.8-4-2.9
		c0,0-7.4-0.9-7.5-0.9c-0.2,0-3.4-6.8-3.4-6.8c-0.6-1.5-2.4-2.8-4-2.9l-7.6-1l-3.3-6.7c-0.6-1.5-2.4-2.8-4-2.9l-5.1-0.1
		c-1.6,0-3.8,1.1-4.7,2.4l-3.8,5.4c-1,1.3-1.3,3.7-0.7,5.3l1.8,4.8c0.6,1.5,2.4,2.8,4,2.9l7.5,0.9l3.4,6.8c0.6,1.5,2.4,2.8,4,2.9
		L342,448.6z"/>
</g>
<g opacity="0.45" filter="url(#ds1)">
	<path fill="#D0D2D3" d="M322.3,606.2c-0.1-1.6-1.3-3.6-2.8-4.4l-6.7-3.4c-1.5-0.8-3.8-0.6-5.2,0.3l-6.3,4.1c-1.4,0.9-2.5,3-2.5,4.6
		l0,6.7c0,1.7-0.9,4-2,5.2l-6.2,6.7c-1.1,1.2-1.4,3.4-0.6,4.8l4.5,8c0.8,1.4,2.8,2.4,4.4,2l9-1.8c1.6-0.3,3.1-1.9,3.3-3.6l1.1-9.1
		c0.2-1.6,0.4-3,0.4-3s1.1-0.7,2.5-1.6l5.3-3.4c1.4-0.9,2.5-3,2.4-4.6L322.3,606.2z"/>
	<path fill="none" stroke="#929497" stroke-width="1.5" stroke-miterlimit="10" d="M322.3,606.2c-0.1-1.6-1.3-3.6-2.8-4.4l-6.7-3.4
		c-1.5-0.8-3.8-0.6-5.2,0.3l-6.3,4.1c-1.4,0.9-2.5,3-2.5,4.6l0,6.7c0,1.7-0.9,4-2,5.2l-6.2,6.7c-1.1,1.2-1.4,3.4-0.6,4.8l4.5,8
		c0.8,1.4,2.8,2.4,4.4,2l9-1.8c1.6-0.3,3.1-1.9,3.3-3.6l1.1-9.1c0.2-1.6,0.4-3,0.4-3s1.1-0.7,2.5-1.6l5.3-3.4c1.4-0.9,2.5-3,2.4-4.6
		L322.3,606.2z"/>
</g>
<g opacity="0.45" filter="url(#ds1)">
	<path fill="#D0D2D3" d="M292.8,455.7c-0.1-1.6-1.3-3.6-2.8-4.4l-6.7-3.4c-1.5-0.8-3.8-0.6-5.2,0.3l-6.3,4.1c-1.4,0.9-2.5,3-2.5,4.6
		l0,6.7c0,1.6-0.9,4-2,5.2l-6.2,6.7c-1.1,1.2-1.4,3.4-0.6,4.8l4.5,8c0.8,1.4,2.8,2.4,4.4,2l9-1.8c1.6-0.3,3.1-1.9,3.3-3.6l1.1-9.1
		c0.2-1.6,0.4-3,0.4-3s1.1-0.7,2.5-1.6l5.3-3.4c1.4-0.9,2.5-3,2.4-4.6L292.8,455.7z"/>
	<path fill="none" stroke="#929497" stroke-width="1.5" stroke-miterlimit="10" d="M292.8,455.7c-0.1-1.6-1.3-3.6-2.8-4.4l-6.7-3.4
		c-1.5-0.8-3.8-0.6-5.2,0.3l-6.3,4.1c-1.4,0.9-2.5,3-2.5,4.6l0,6.7c0,1.6-0.9,4-2,5.2l-6.2,6.7c-1.1,1.2-1.4,3.4-0.6,4.8l4.5,8
		c0.8,1.4,2.8,2.4,4.4,2l9-1.8c1.6-0.3,3.1-1.9,3.3-3.6l1.1-9.1c0.2-1.6,0.4-3,0.4-3s1.1-0.7,2.5-1.6l5.3-3.4c1.4-0.9,2.5-3,2.4-4.6
		L292.8,455.7z"/>
</g>
<g>
	<g opacity="0.5">
		<path fill="none" stroke="#000000" stroke-width="2" stroke-miterlimit="10" d="M394.5,493c30.8,0,55.8,25,55.8,55.8
			s-25,55.8-55.8,55.8c-30.8,0-55.8-25-55.8-55.8c0-25.2,16.7-46.5,39.6-53.4"/>
		<circle cx="394.5" cy="493" r="4.7"/>
		<polygon points="385.1,493.3 376.7,500.1 377.8,495.5 374.4,492.3 		"/>
	</g>
	<g>
		<g>
			<path fill="none" stroke="#FFFFFF" stroke-width="2" stroke-miterlimit="10" d="M393.5,492c30.8,0,55.8,25,55.8,55.8
				s-25,55.8-55.8,55.8c-30.8,0-55.8-25-55.8-55.8c0-25.2,16.7-46.5,39.6-53.4"/>
			<g>
				<circle fill="#FFFFFF" cx="393.5" cy="492" r="4.7"/>
			</g>
			<g>
				<polygon fill="#FFFFFF" points="384.1,492.3 375.7,499.1 376.8,494.5 373.4,491.3 				"/>
			</g>
		</g>
	</g>
</g>
<g opacity="0.45" filter="url(#ds1)">
	<path fill="#D0D2D3" stroke="#929497" stroke-width="1.3289" stroke-linejoin="round" stroke-miterlimit="10" d="M555.7,275
		l-2.9-8.9c-0.5-1.7,0.1-3.5,1.5-4.5l7.5-5.5c1.4-1,3.3-1,4.7,0l7.5,5.5c1.4,1,2,2.8,1.5,4.5l-2.9,8.9c-0.5,1.7-2.1,2.8-3.8,2.8
		h-9.3C557.7,277.7,556.2,276.6,555.7,275z"/>
	<path fill="#C99BD3" stroke="#9E6AA5" stroke-width="1.5" stroke-miterlimit="10" d="M561.2,251.1c0-0.1,0-0.1,0-0.2
		c-0.1-1,0.1-1.9-0.2-2.9c-0.2-1-0.6-1.9-1.3-2.6c-2-2-5.2-2-7.2,0c-1.2,1.2-1.9,2.6-3.3,3.7c-0.7,0.6-1.5,1-2.1,1.6
		c-2,2-2,5.2,0,7.2c1.8,1.8,4.2,1.1,6.4,1.6c1.2,0.3,2.1,0.7,3.4,0.6c1.3-0.1,2.4-0.7,3.3-1.6c1.3-1.3,1.9-3.3,1.5-5.1
		C561.6,252.6,561.3,251.9,561.2,251.1z"/>
</g>
<g opacity="0.45" filter="url(#ds1)">
	<path fill="#D0D2D3" stroke="#929497" stroke-width="1.3289" stroke-linejoin="round" stroke-miterlimit="10" d="M554.4,225.6
		l-2.9-8.9c-0.5-1.7,0.1-3.5,1.5-4.5l7.5-5.5c1.4-1,3.3-1,4.7,0l7.5,5.5c1.4,1,2,2.8,1.5,4.5l-2.9,8.9c-0.5,1.7-2.1,2.8-3.8,2.8
		h-9.3C556.5,228.4,555,227.3,554.4,225.6z"/>
	<path fill="#C99BD3" stroke="#9E6AA5" stroke-width="1.5" stroke-miterlimit="10" d="M560,201.7c0-0.1,0-0.1,0-0.2
		c-0.1-1,0.1-1.9-0.2-2.9c-0.2-1-0.6-1.9-1.3-2.6c-2-2-5.2-2-7.2,0c-1.2,1.2-1.9,2.6-3.3,3.7c-0.7,0.6-1.5,1-2.1,1.6
		c-2,2-2,5.2,0,7.2c1.8,1.8,4.2,1.1,6.4,1.6c1.2,0.3,2.1,0.7,3.4,0.6c1.3-0.1,2.4-0.7,3.3-1.6c1.3-1.3,1.9-3.3,1.5-5.1
		C560.3,203.3,560,202.6,560,201.7z"/>
</g>
<g opacity="0.45">
	<g filter="url(#ds1)">
		<path fill="#D0D2D3" d="M524.2,247.2c-0.1-1.6-1.3-3.6-2.8-4.4l-6.7-3.4c-1.5-0.8-3.8-0.6-5.2,0.3l-6.3,4.1
			c-1.4,0.9-2.5,3-2.5,4.6l0,6.7c0,0.8-0.1,2.7-0.1,2.7s-1.4,1.9-2,2.5l-6.2,6.7c-1.1,1.2-1.4,3.4-0.6,4.8l4.5,8
			c0.8,1.4,2.8,2.4,4.4,2l9-1.8c1.6-0.3,3.1-1.9,3.3-3.6l1.1-9.1c0.2-1.6,0.4-3,0.4-3s1.1-0.7,2.5-1.6l5.3-3.4
			c1.4-0.9,2.5-3,2.4-4.6L524.2,247.2z"/>
		<path fill="none" stroke="#929497" stroke-width="1.4546" stroke-linejoin="round" stroke-miterlimit="10" d="M524.2,247.2
			c-0.1-1.6-1.3-3.6-2.8-4.4l-6.7-3.4c-1.5-0.8-3.8-0.6-5.2,0.3l-6.3,4.1c-1.4,0.9-2.5,3-2.5,4.6l0,6.7c0,0.8-0.1,2.7-0.1,2.7
			s-1.4,1.9-2,2.5l-6.2,6.7c-1.1,1.2-1.4,3.4-0.6,4.8l4.5,8c0.8,1.4,2.8,2.4,4.4,2l9-1.8c1.6-0.3,3.1-1.9,3.3-3.6l1.1-9.1
			c0.2-1.6,0.4-3,0.4-3s1.1-0.7,2.5-1.6l5.3-3.4c1.4-0.9,2.5-3,2.4-4.6L524.2,247.2z"/>
	</g>
	<g filter="url(#ds1)">
		<circle fill="#F4F4F4" cx="498.4" cy="244.7" r="5.1"/>
		<g>
			<rect x="497.6" y="241.4" fill="#3F3F3F" width="1.5" height="6.6"/>
			<rect x="495.1" y="244" fill="#3F3F3F" width="6.6" height="1.5"/>
		</g>
	</g>
	<g filter="url(#ds1)">
		<circle fill="#F4F4F4" cx="521.2" cy="270.5" r="5.1"/>
		<g>
			<rect x="520.4" y="267.2" fill="#3F3F3F" width="1.5" height="6.6"/>
			<rect x="517.9" y="269.8" fill="#3F3F3F" width="6.6" height="1.5"/>
		</g>
	</g>
	<g filter="url(#ds1)">
		<circle fill="#3F3F3F" cx="505.7" cy="255.1" r="3.7"/>
		<rect x="503.3" y="254.4" fill="#FFFFFF" width="4.9" height="1.4"/>
	</g>
	<g filter="url(#ds1)">
		<circle fill="#3F3F3F" cx="515.4" cy="257.3" r="3.7"/>
		<rect x="512.9" y="256.6" fill="#FFFFFF" width="4.9" height="1.4"/>
	</g>
</g>
<g opacity="0.45">
	<g filter="url(#ds1)">
		<path fill="#D0D2D3" d="M590.7,370.2c-0.1-1.6-1.3-3.6-2.8-4.4l-6.7-3.4c-1.5-0.8-3.8-0.6-5.2,0.3l-6.3,4.1
			c-1.4,0.9-2.5,3-2.5,4.6l0,6.7c0,0.8-0.1,2.7-0.1,2.7s-1.4,1.9-2,2.5l-6.2,6.7c-1.1,1.2-1.4,3.4-0.6,4.8l4.5,8
			c0.8,1.4,2.8,2.4,4.4,2l9-1.8c1.6-0.3,3.1-1.9,3.3-3.6l1.1-9.1c0.2-1.6,0.4-3,0.4-3s1.1-0.7,2.5-1.6l5.3-3.4
			c1.4-0.9,2.5-3,2.4-4.6L590.7,370.2z"/>
		<path fill="none" stroke="#929497" stroke-width="1.4546" stroke-linejoin="round" stroke-miterlimit="10" d="M590.7,370.2
			c-0.1-1.6-1.3-3.6-2.8-4.4l-6.7-3.4c-1.5-0.8-3.8-0.6-5.2,0.3l-6.3,4.1c-1.4,0.9-2.5,3-2.5,4.6l0,6.7c0,0.8-0.1,2.7-0.1,2.7
			s-1.4,1.9-2,2.5l-6.2,6.7c-1.1,1.2-1.4,3.4-0.6,4.8l4.5,8c0.8,1.4,2.8,2.4,4.4,2l9-1.8c1.6-0.3,3.1-1.9,3.3-3.6l1.1-9.1
			c0.2-1.6,0.4-3,0.4-3s1.1-0.7,2.5-1.6l5.3-3.4c1.4-0.9,2.5-3,2.4-4.6L590.7,370.2z"/>
	</g>
	<g filter="url(#ds1)">
		<circle fill="#F4F4F4" cx="564.8" cy="367.8" r="5.1"/>
		<g>
			<rect x="564.1" y="364.5" fill="#3F3F3F" width="1.5" height="6.6"/>
			<rect x="561.5" y="367" fill="#3F3F3F" width="6.6" height="1.5"/>
		</g>
	</g>
	<g filter="url(#ds1)">
		<circle fill="#F4F4F4" cx="587.6" cy="393.6" r="5.1"/>
		<g>
			<rect x="586.9" y="390.3" fill="#3F3F3F" width="1.5" height="6.6"/>
			<rect x="584.3" y="392.8" fill="#3F3F3F" width="6.6" height="1.5"/>
		</g>
	</g>
	<g filter="url(#ds1)">
		<circle fill="#3F3F3F" cx="572.2" cy="378.2" r="3.7"/>
		<rect x="569.7" y="377.5" fill="#FFFFFF" width="4.9" height="1.4"/>
	</g>
	<g filter="url(#ds1)">
		<circle fill="#3F3F3F" cx="581.8" cy="380.3" r="3.7"/>
		<rect x="579.4" y="379.7" fill="#FFFFFF" width="4.9" height="1.4"/>
	</g>
</g>
<g opacity="0.45">
	<g filter="url(#ds1)">
		<path fill="#D0D2D3" d="M527.3,198.7c-0.1-1.6-1.3-3.6-2.8-4.4l-6.7-3.4c-1.5-0.8-3.8-0.6-5.2,0.3l-6.3,4.1
			c-1.4,0.9-2.5,3-2.5,4.6l0,6.7c0,0.8-0.1,2.7-0.1,2.7s-1.4,1.9-2,2.5l-6.2,6.7c-1.1,1.2-1.4,3.4-0.6,4.8l4.5,8
			c0.8,1.4,2.8,2.4,4.4,2l9-1.8c1.6-0.3,3.1-1.9,3.3-3.6l1.1-9.1c0.2-1.6,0.4-3,0.4-3s1.1-0.7,2.5-1.6l5.3-3.4
			c1.4-0.9,2.5-3,2.4-4.6L527.3,198.7z"/>
		<path fill="none" stroke="#929497" stroke-width="1.4546" stroke-linejoin="round" stroke-miterlimit="10" d="M527.3,198.7
			c-0.1-1.6-1.3-3.6-2.8-4.4l-6.7-3.4c-1.5-0.8-3.8-0.6-5.2,0.3l-6.3,4.1c-1.4,0.9-2.5,3-2.5,4.6l0,6.7c0,0.8-0.1,2.7-0.1,2.7
			s-1.4,1.9-2,2.5l-6.2,6.7c-1.1,1.2-1.4,3.4-0.6,4.8l4.5,8c0.8,1.4,2.8,2.4,4.4,2l9-1.8c1.6-0.3,3.1-1.9,3.3-3.6l1.1-9.1
			c0.2-1.6,0.4-3,0.4-3s1.1-0.7,2.5-1.6l5.3-3.4c1.4-0.9,2.5-3,2.4-4.6L527.3,198.7z"/>
	</g>
	<g filter="url(#ds1)">
		<circle fill="#F4F4F4" cx="501.5" cy="196.3" r="5.1"/>
		<g>
			<rect x="500.7" y="193" fill="#3F3F3F" width="1.5" height="6.6"/>
			<rect x="498.2" y="195.5" fill="#3F3F3F" width="6.6" height="1.5"/>
		</g>
	</g>
	<g filter="url(#ds1)">
		<circle fill="#F4F4F4" cx="524.3" cy="222" r="5.1"/>
		<g>
			<rect x="523.5" y="218.7" fill="#3F3F3F" width="1.5" height="6.6"/>
			<rect x="521" y="221.3" fill="#3F3F3F" width="6.6" height="1.5"/>
		</g>
	</g>
	<g filter="url(#ds1)">
		<circle fill="#3F3F3F" cx="508.8" cy="206.6" r="3.7"/>
		<rect x="506.4" y="205.9" fill="#FFFFFF" width="4.9" height="1.4"/>
	</g>
	<g filter="url(#ds1)">
		<circle fill="#3F3F3F" cx="518.5" cy="208.8" r="3.7"/>
		<rect x="516" y="208.1" fill="#FFFFFF" width="4.9" height="1.4"/>
	</g>
</g>
<g filter="url(#ds1)">
	<path fill="#E96667" stroke="#B4474C" stroke-width="1.489" stroke-miterlimit="10" d="M391.3,583.1c-2,0.7-3.8-0.1-5.9,0.5
		c-3.6,1-5.7,4.9-4.7,8.5c1,3.6,4.9,5.7,8.5,4.7c2.1-0.6,3.6-2.3,5.7-2.8c1.9-0.4,3.9,0,5.7-0.5c3.6-1,5.7-4.9,4.7-8.5
		c-1-3.6-4.9-5.7-8.5-4.7c-1.8,0.5-3.4,1.9-5.1,2.6C391.6,583,391.5,583.1,391.3,583.1z"/>
</g>
<g opacity="0.45" filter="url(#ds1)">
	<circle fill="#E96667" cx="432.7" cy="428.6" r="6.8"/>
	<circle fill="none" stroke="#B4474C" stroke-width="1.489" stroke-miterlimit="10" cx="432.7" cy="428.6" r="6.8"/>
</g>
<g opacity="0.45">
	<g filter="url(#ds1)">
		<path fill="#D0D2D3" d="M561.1,366.3c-0.1-1.6-1.3-3.6-2.8-4.4l-6.7-3.4c-1.5-0.8-3.8-0.6-5.2,0.3l-6.3,4.1
			c-1.4,0.9-2.5,3-2.5,4.6l0,6.7c0,0.8-0.1,2.7-0.1,2.7s-1.4,1.9-2,2.5l-6.2,6.7c-1.1,1.2-1.4,3.4-0.6,4.8l4.5,8
			c0.8,1.4,2.8,2.4,4.4,2l9-1.8c1.6-0.3,3.1-1.9,3.3-3.6l1.1-9.1c0.2-1.6,0.4-3,0.4-3s1.1-0.7,2.5-1.6l5.3-3.4
			c1.4-0.9,2.5-3,2.4-4.6L561.1,366.3z"/>
		<path fill="none" stroke="#929497" stroke-width="1.4546" stroke-linejoin="round" stroke-miterlimit="10" d="M561.1,366.3
			c-0.1-1.6-1.3-3.6-2.8-4.4l-6.7-3.4c-1.5-0.8-3.8-0.6-5.2,0.3l-6.3,4.1c-1.4,0.9-2.5,3-2.5,4.6l0,6.7c0,0.8-0.1,2.7-0.1,2.7
			s-1.4,1.9-2,2.5l-6.2,6.7c-1.1,1.2-1.4,3.4-0.6,4.8l4.5,8c0.8,1.4,2.8,2.4,4.4,2l9-1.8c1.6-0.3,3.1-1.9,3.3-3.6l1.1-9.1
			c0.2-1.6,0.4-3,0.4-3s1.1-0.7,2.5-1.6l5.3-3.4c1.4-0.9,2.5-3,2.4-4.6L561.1,366.3z"/>
	</g>
	<g filter="url(#ds1)">
		<circle fill="#F4F4F4" cx="535.2" cy="363.8" r="5.1"/>
		<g>
			<rect x="534.5" y="360.5" fill="#3F3F3F" width="1.5" height="6.6"/>
			<rect x="531.9" y="363.1" fill="#3F3F3F" width="6.6" height="1.5"/>
		</g>
	</g>
	<g filter="url(#ds1)">
		<circle fill="#F4F4F4" cx="558" cy="389.6" r="5.1"/>
		<g>
			<rect x="557.3" y="386.3" fill="#3F3F3F" width="1.5" height="6.6"/>
			<rect x="554.7" y="388.9" fill="#3F3F3F" width="6.6" height="1.5"/>
		</g>
	</g>
	<g filter="url(#ds1)">
		<circle fill="#3F3F3F" cx="542.6" cy="374.2" r="3.7"/>
		<rect x="540.1" y="373.5" fill="#FFFFFF" width="4.9" height="1.4"/>
	</g>
	<g filter="url(#ds1)">
		<circle fill="#3F3F3F" cx="552.2" cy="376.4" r="3.7"/>
		<rect x="549.8" y="375.7" fill="#FFFFFF" width="4.9" height="1.4"/>
	</g>
</g>
<g>
	<g filter="url(#ds1)">
		<path fill="#D0D2D3" d="M515.6,597.9c-0.1-1.6-1.3-3.6-2.8-4.4l-6.7-3.4c-1.5-0.8-3.8-0.6-5.2,0.3l-6.3,4.1
			c-1.4,0.9-2.5,3-2.5,4.6l0,6.7c0,0.8-0.1,2.7-0.1,2.7s-1.4,1.9-2,2.5l-6.2,6.7c-1.1,1.2-1.4,3.4-0.6,4.8l4.5,8
			c0.8,1.4,2.8,2.4,4.4,2l9-1.8c1.6-0.3,3.1-1.9,3.3-3.6l1.1-9.1c0.2-1.6,0.4-3,0.4-3s1.1-0.7,2.5-1.6l5.3-3.4
			c1.4-0.9,2.5-3,2.4-4.6L515.6,597.9z"/>
		<path fill="none" stroke="#929497" stroke-width="1.4546" stroke-linejoin="round" stroke-miterlimit="10" d="M515.6,597.9
			c-0.1-1.6-1.3-3.6-2.8-4.4l-6.7-3.4c-1.5-0.8-3.8-0.6-5.2,0.3l-6.3,4.1c-1.4,0.9-2.5,3-2.5,4.6l0,6.7c0,0.8-0.1,2.7-0.1,2.7
			s-1.4,1.9-2,2.5l-6.2,6.7c-1.1,1.2-1.4,3.4-0.6,4.8l4.5,8c0.8,1.4,2.8,2.4,4.4,2l9-1.8c1.6-0.3,3.1-1.9,3.3-3.6l1.1-9.1
			c0.2-1.6,0.4-3,0.4-3s1.1-0.7,2.5-1.6l5.3-3.4c1.4-0.9,2.5-3,2.4-4.6L515.6,597.9z"/>
	</g>
	<g filter="url(#ds1)">
		<circle fill="#F4F4F4" cx="489.8" cy="595.5" r="5.1"/>
		<g>
			<rect x="489" y="592.2" fill="#3F3F3F" width="1.5" height="6.6"/>
			<rect x="486.5" y="594.7" fill="#3F3F3F" width="6.6" height="1.5"/>
		</g>
	</g>
	<g filter="url(#ds1)">
		<circle fill="#F4F4F4" cx="512.6" cy="621.3" r="5.1"/>
		<g>
			<rect x="511.8" y="618" fill="#3F3F3F" width="1.5" height="6.6"/>
			<rect x="509.3" y="620.5" fill="#3F3F3F" width="6.6" height="1.5"/>
		</g>
	</g>
	<g filter="url(#ds1)">
		<circle fill="#3F3F3F" cx="497.1" cy="605.9" r="3.7"/>
		<rect x="494.7" y="605.2" fill="#FFFFFF" width="4.9" height="1.4"/>
	</g>
	<g filter="url(#ds1)">
		<circle fill="#3F3F3F" cx="506.8" cy="608.1" r="3.7"/>
		<rect x="504.4" y="607.4" fill="#FFFFFF" width="4.9" height="1.4"/>
	</g>
</g>
<g opacity="0.45" filter="url(#ds1)">
	<circle fill="#E96667" cx="425.8" cy="411.2" r="6.8"/>
	<circle fill="none" stroke="#B4474C" stroke-width="1.489" stroke-miterlimit="10" cx="425.8" cy="411.2" r="6.8"/>
</g>
<g filter="url(#ds1)">
	<circle fill="#D0D2D3" cx="420.8" cy="646" r="6.8"/>
	
		<circle fill="none" stroke="#929497" stroke-width="1.3289" stroke-linejoin="round" stroke-miterlimit="10" cx="420.8" cy="646" r="6.8"/>
</g>
<g filter="url(#ds1)">
	<path fill="#D0D2D3" d="M400.9,596.4c-2-0.3-3.8,0.2-5.2,1.2c-1.1,0.8-2.5,0.8-3.6,0c-1.4-1-3.2-1.5-5.2-1.2
		c-2.8,0.5-5,2.7-5.5,5.5c-0.4,1.9,0.1,3.8,1.1,5.2c0.7,1,0.7,2.4,0,3.4c-1,1.4-1.5,3.3-1.1,5.2c0.5,2.7,2.6,4.9,5.3,5.4
		c4.4,0.8,8.2-2.5,8.2-6.7c0-2-0.8-3.7-2.2-5c-0.4-0.4-0.4-0.9,0-1.3c0,0,0,0,0.1-0.1c0.6-0.6,1.5-0.6,2.1,0
		c1.2,1.2,2.9,1.9,4.7,1.9c4.2,0,7.5-3.8,6.7-8.2C405.8,599,403.6,596.8,400.9,596.4z"/>
	<path fill="none" stroke="#929497" stroke-width="1.3289" stroke-linejoin="round" stroke-miterlimit="10" d="M400.9,596.4
		c-2-0.3-3.8,0.2-5.2,1.2c-1.1,0.8-2.5,0.8-3.6,0c-1.4-1-3.2-1.5-5.2-1.2c-2.8,0.5-5,2.7-5.5,5.5c-0.4,1.9,0.1,3.8,1.1,5.2
		c0.7,1,0.7,2.4,0,3.4c-1,1.4-1.5,3.3-1.1,5.2c0.5,2.7,2.6,4.9,5.3,5.4c4.4,0.8,8.2-2.5,8.2-6.7c0-2-0.8-3.7-2.2-5
		c-0.4-0.4-0.4-0.9,0-1.3c0,0,0,0,0.1-0.1c0.6-0.6,1.5-0.6,2.1,0c1.2,1.2,2.9,1.9,4.7,1.9c4.2,0,7.5-3.8,6.7-8.2
		C405.8,599,403.6,596.8,400.9,596.4z"/>
</g>
<g>
	<g opacity="0.5">
		<path fill="none" stroke="#000000" stroke-width="2" stroke-miterlimit="10" d="M455.3,611.9c-8.1-7.8,3-17.6,25.6-6.4"/>
		<polygon points="488.3,609.7 475.5,608.2 480.4,605.3 480.2,599.7 		"/>
	</g>
	<g>
		<g>
			<path fill="none" stroke="#FFFFFF" stroke-width="2" stroke-miterlimit="10" d="M454.3,610.9c-8.1-7.8,3-17.6,25.6-6.4"/>
			<g>
				<polygon fill="#FFFFFF" points="487.3,608.7 474.5,607.2 479.4,604.3 479.2,598.7 				"/>
			</g>
		</g>
	</g>
</g>
<g>
	<circle fill="#6D6E70" cx="393.5" cy="548.8" r="29.4"/>
	<g>
		<g>
			<path fill="#E8E8E8" d="M379.1,532.9c0.9,0,2.8,0.3,2.8,1.4v1h-1.2v-0.5c0-0.5-0.9-0.7-1.5-0.7c-1.4,0-2.4,1-2.4,2.5
				c0,1.6,1,2.6,2.4,2.6c0.4,0,1.5-0.1,1.5-0.7v-0.5h1.2v1c0,1.1-1.8,1.4-2.8,1.4c-2.2,0-3.7-1.6-3.7-3.7
				C375.5,534.5,377.1,532.9,379.1,532.9z"/>
			<path fill="#E8E8E8" d="M383,539.2h0.8V534H383v-1h3v1h-0.9v5.1h0.9v1h-3V539.2z"/>
			<path fill="#E8E8E8" d="M388.4,539.2h0.8v-5.1h-1.3v1.1h-1.1v-2.1h6.2v2.1h-1.1v-1.1h-1.3v5.1h0.9v1h-3V539.2z"/>
			<path fill="#E8E8E8" d="M393.8,539.2h0.8V534h-0.8v-1h3.1c0.5,0,0.9,0,1.3,0.1c0.8,0.3,1.3,0.9,1.3,1.9c0,1-0.5,1.7-1.3,2v0
				l0.1,0.1c0.1,0.1,0.2,0.2,0.2,0.3l0.8,1.5c0.1,0.2,0.2,0.2,0.5,0.2h0.2v1h-0.8c-0.6,0-0.8-0.1-1-0.5l-1-1.8
				c-0.2-0.3-0.3-0.4-0.7-0.4h-0.7v1.7h0.8v1h-3V539.2z M397.1,536.4c0.7,0,1.1-0.4,1.1-1.2c0-0.5-0.2-0.8-0.6-1
				c-0.2-0.1-0.5-0.1-0.8-0.1h-1v2.3H397.1z"/>
			<path fill="#E8E8E8" d="M400.9,539.2h0.8V534h-0.8v-1h3v1h-0.9v5.1h0.9v1h-3V539.2z"/>
			<path fill="#E8E8E8" d="M408.6,532.9c0.9,0,2.8,0.3,2.8,1.4v1h-1.2v-0.5c0-0.5-0.9-0.7-1.5-0.7c-1.4,0-2.4,1-2.4,2.5
				c0,1.6,1,2.6,2.4,2.6c0.4,0,1.5-0.1,1.5-0.7v-0.5h1.2v1c0,1.1-1.8,1.4-2.8,1.4c-2.2,0-3.7-1.6-3.7-3.7
				C404.9,534.5,406.5,532.9,408.6,532.9z"/>
			<path fill="#E8E8E8" d="M380.4,551.2h0.6l2.1-6.1h1.5l2.1,6.1h0.6v1h-2.7v-1h0.7l-0.4-1.3h-2.2l-0.4,1.3h0.7v1h-2.7V551.2z
				 M384.7,548.8l-0.7-2l-0.1-0.4c0-0.1,0-0.1,0-0.2h0l0,0.2c0,0.1,0,0.2-0.1,0.4l-0.7,2H384.7z"/>
			<path fill="#E8E8E8" d="M391.5,544.9c0.9,0,2.8,0.3,2.8,1.4v1h-1.2v-0.5c0-0.5-0.9-0.7-1.5-0.7c-1.4,0-2.4,1-2.4,2.5
				c0,1.6,1,2.6,2.4,2.6c0.4,0,1.5-0.1,1.5-0.7v-0.5h1.2v1c0,1.1-1.8,1.4-2.8,1.4c-2.2,0-3.7-1.6-3.7-3.7
				C387.8,546.5,389.4,544.9,391.5,544.9z"/>
			<path fill="#E8E8E8" d="M395.4,551.2h0.8V546h-0.8v-1h3v1h-0.9v5.1h0.9v1h-3V551.2z"/>
			<path fill="#E8E8E8" d="M399.4,551.2h0.8V546h-0.8v-1h3.1c0.6,0,1,0,1.5,0.2c1.4,0.4,2.3,1.6,2.3,3.4c0,1.7-0.8,2.9-2.2,3.3
				c-0.5,0.2-1,0.2-1.6,0.2h-3.1V551.2z M402.4,551.1c0.5,0,0.8,0,1.2-0.2c0.8-0.3,1.3-1.1,1.3-2.3c0-1.2-0.5-2-1.4-2.3
				c-0.4-0.2-0.7-0.2-1.1-0.2h-0.9v5H402.4z"/>
			<path fill="#E8E8E8" d="M380.6,556.9c0.9,0,2.8,0.3,2.8,1.4v1h-1.2v-0.5c0-0.5-0.9-0.7-1.5-0.7c-1.4,0-2.4,1-2.4,2.5
				c0,1.6,1,2.6,2.4,2.6c0.4,0,1.5-0.1,1.5-0.7v-0.5h1.2v1c0,1.1-1.8,1.4-2.8,1.4c-2.2,0-3.7-1.6-3.7-3.7
				C377,558.5,378.6,556.9,380.6,556.9z"/>
			<path fill="#E8E8E8" d="M385.8,563.2h0.9v-2l-1.9-3.1h-0.7v-1h2.6v1H386l1.1,1.9c0.1,0.1,0.1,0.2,0.1,0.2c0,0,0,0.1,0,0.1h0
				c0,0,0-0.1,0-0.1c0-0.1,0.1-0.1,0.1-0.2l1.1-1.9h-0.7v-1h2.6v1h-0.6l-1.9,3.1v2h0.8v1h-3V563.2z"/>
			<path fill="#E8E8E8" d="M394.5,556.9c0.9,0,2.8,0.3,2.8,1.4v1h-1.2v-0.5c0-0.5-0.9-0.7-1.5-0.7c-1.4,0-2.4,1-2.4,2.5
				c0,1.6,1,2.6,2.4,2.6c0.4,0,1.5-0.1,1.5-0.7v-0.5h1.2v1c0,1.1-1.8,1.4-2.8,1.4c-2.2,0-3.7-1.6-3.7-3.7
				C390.8,558.5,392.4,556.9,394.5,556.9z"/>
			<path fill="#E8E8E8" d="M398.4,563.2h0.8v-5.1h-0.8v-1h3v1h-0.9v5h2.1V562h1.1v2.1h-5.4V563.2z"/>
			<path fill="#E8E8E8" d="M404.5,563.2h0.8V558h-0.8v-1h5.3v1.8h-1.1v-0.8h-2v1.9h2.3v1h-2.3v2h2.1v-0.8h1.1v1.8h-5.4V563.2z"/>
		</g>
	</g>
	<circle fill="#6D6E70" cx="437" cy="504.3" r="19"/>
	<circle fill="#6D6E70" cx="437" cy="591.3" r="19"/>
	<circle fill="#6D6E70" cx="350" cy="591.3" r="19"/>
	<circle fill="#6D6E70" cx="350" cy="504.3" r="19"/>
	<g>
		<g>
			<path fill="#E8E8E8" d="M434.7,507.3h1.9v-4.8c0-0.1,0-0.3,0-0.4V502h0l-0.1,0.1c-0.1,0.1-0.1,0.2-0.3,0.3l-0.7,0.6l-0.9-1
				l2.1-2.1h1.4v7.3h1.8v1.3h-5.2V507.3z"/>
		</g>
	</g>
	<g>
		<g>
			<path fill="#E8E8E8" d="M434.2,595.3c0-0.3-0.1-0.5-0.1-0.8c0-3.1,4.1-3.5,4.1-5.3c0-0.8-0.6-1.2-1.3-1.2c-0.5,0-0.9,0.3-1.2,0.5
				c-0.2,0.2-0.3,0.3-0.4,0.5l-1.1-0.7c0.2-0.3,0.4-0.6,0.6-0.9c0.5-0.4,1.2-0.9,2.2-0.9c1.5,0,2.8,0.9,2.8,2.5c0,2.7-3.9,3.1-4,4.9
				h2.9V593h1.3v2.3H434.2z"/>
		</g>
	</g>
	<g>
		<g>
			<path fill="#E8E8E8" d="M346.6,505.5l3.7-5.4h1.8v5.1h1.1v1.2h-1.1v2.2h-1.5v-2.2h-4V505.5z M348.2,505.2L348.2,505.2l2.4,0v-2.8
				c0-0.2,0-0.3,0-0.5l0-0.3h0l-0.1,0.2c-0.1,0.1-0.1,0.3-0.2,0.4L348.2,505.2z"/>
		</g>
	</g>
	<g>
		<g>
			<path fill="#E8E8E8" d="M347.2,586.8h5.4v1.1l-2,2.4c1.1,0.2,2.2,0.9,2.2,2.4c0,1.5-1.1,2.8-3,2.8c-0.9,0-1.6-0.3-2.1-0.6
				c-0.3-0.2-0.5-0.4-0.7-0.6l0.8-1.1c0.2,0.2,0.3,0.3,0.6,0.4c0.3,0.2,0.8,0.4,1.4,0.4c0.9,0,1.5-0.6,1.5-1.4
				c0-0.9-0.7-1.3-1.7-1.3c-0.2,0-0.4,0-0.5,0l-0.3-0.8l1.8-2.3c0.1-0.1,0.2-0.2,0.2-0.2l0.1-0.1v0c-0.1,0-0.1,0-0.2,0
				c-0.1,0-0.2,0-0.3,0h-1.9v1h-1.3V586.8z"/>
		</g>
	</g>
</g>
<g opacity="0.45" filter="url(#ds1)">
	<path fill="#D0D2D3" d="M457.5,438l37.9-1.4c3.1-0.1,5.6,2.4,5.6,5.4v7.7c0,3.3-2.8,5.8-6.1,5.4l-40.2-4.6
		c-0.7-0.1-1.3-0.7-1.3-1.4v-7.1C453.5,439.8,455.3,438,457.5,438z"/>
	<path fill="none" stroke="#929497" stroke-width="1.5" stroke-linejoin="round" stroke-miterlimit="10" d="M457.5,438l37.9-1.4
		c3.1-0.1,5.6,2.4,5.6,5.4v7.7c0,3.3-2.8,5.8-6.1,5.4l-40.2-4.6c-0.7-0.1-1.3-0.7-1.3-1.4v-7.1C453.5,439.8,455.3,438,457.5,438z"/>
</g>
<g opacity="0.45">
	<g filter="url(#ds1)">
		<path fill="#D0D2D3" d="M323.7,451.3l3.2,6.7c0.6,1.5,2.4,2.8,4,2.9l5.1,0.1c1.6,0,3.8-1.1,4.7-2.4l3.8-5.4c1-1.3,1.3-3.7,0.7-5.3
			l-1.8-4.8c-0.6-1.5-2.4-2.8-4-2.9c0,0-7.4-0.9-7.5-0.9s-3.4-6.8-3.4-6.8c-0.6-1.5-2.4-2.8-4-2.9l-7.6-1l-3.3-6.7
			c-0.6-1.5-2.4-2.8-4-2.9l-5.1-0.1c-1.6,0-3.8,1.1-4.7,2.4l-3.8,5.4c-1,1.3-1.3,3.7-0.7,5.3l1.8,4.8c0.6,1.5,2.4,2.8,4,2.9l7.5,0.9
			l3.4,6.8c0.6,1.5,2.4,2.8,4,2.9L323.7,451.3z"/>
		<path fill="none" stroke="#929497" stroke-width="1.4546" stroke-linejoin="round" stroke-miterlimit="10" d="M323.7,451.3
			l3.2,6.7c0.6,1.5,2.4,2.8,4,2.9l5.1,0.1c1.6,0,3.8-1.1,4.7-2.4l3.8-5.4c1-1.3,1.3-3.7,0.7-5.3l-1.8-4.8c-0.6-1.5-2.4-2.8-4-2.9
			c0,0-7.4-0.9-7.5-0.9s-3.4-6.8-3.4-6.8c-0.6-1.5-2.4-2.8-4-2.9l-7.6-1l-3.3-6.7c-0.6-1.5-2.4-2.8-4-2.9l-5.1-0.1
			c-1.6,0-3.8,1.1-4.7,2.4l-3.8,5.4c-1,1.3-1.3,3.7-0.7,5.3l1.8,4.8c0.6,1.5,2.4,2.8,4,2.9l7.5,0.9l3.4,6.8c0.6,1.5,2.4,2.8,4,2.9
			L323.7,451.3z"/>
	</g>
	<g filter="url(#ds1)">
		<circle fill="#F4F4F4" cx="331.5" cy="426" r="5.1"/>
		<g>
			<rect x="330.7" y="422.7" fill="#3F3F3F" width="1.5" height="6.6"/>
			<rect x="328.2" y="425.3" fill="#3F3F3F" width="6.6" height="1.5"/>
		</g>
	</g>
	<g filter="url(#ds1)">
		<circle fill="#F4F4F4" cx="325.6" cy="464.7" r="5.1"/>
		<g>
			<rect x="324.9" y="461.4" fill="#3F3F3F" width="1.5" height="6.6"/>
			<rect x="322.3" y="464" fill="#3F3F3F" width="6.6" height="1.5"/>
		</g>
	</g>
	<g filter="url(#ds1)">
		<circle fill="#3F3F3F" cx="324" cy="434.8" r="3.7"/>
		<rect x="321.6" y="434.1" fill="#FFFFFF" width="4.9" height="1.4"/>
	</g>
	<g filter="url(#ds1)">
		<circle fill="#3F3F3F" cx="332.7" cy="454.8" r="3.7"/>
		<rect x="330.2" y="454.1" fill="#FFFFFF" width="4.9" height="1.4"/>
	</g>
</g>
<g opacity="0.45" filter="url(#ds1)">
	<circle fill="#D0D2D3" cx="296.3" cy="589" r="6.8"/>
	
		<circle fill="none" stroke="#929497" stroke-width="1.3289" stroke-linejoin="round" stroke-miterlimit="10" cx="296.3" cy="589" r="6.8"/>
</g>
<g opacity="0.45">
	<g filter="url(#ds1)">
		<path fill="#D0D2D3" d="M333.2,623.4c-0.1-1.6-1.3-3.6-2.8-4.4l-6.7-3.4c-1.5-0.8-3.8-0.6-5.2,0.3l-6.3,4.1
			c-1.4,0.9-2.5,3-2.5,4.6l0,6.7c0,0.8-0.1,2.7-0.1,2.7s-1.4,1.9-2,2.5l-6.2,6.7c-1.1,1.2-1.4,3.4-0.6,4.8l4.5,8
			c0.8,1.4,2.8,2.4,4.4,2l9-1.8c1.6-0.3,3.1-1.9,3.3-3.6l1.1-9.1c0.2-1.6,0.4-3,0.4-3s1.1-0.7,2.5-1.6l5.3-3.4
			c1.4-0.9,2.5-3,2.4-4.6L333.2,623.4z"/>
		<path fill="none" stroke="#929497" stroke-width="1.4546" stroke-linejoin="round" stroke-miterlimit="10" d="M333.2,623.4
			c-0.1-1.6-1.3-3.6-2.8-4.4l-6.7-3.4c-1.5-0.8-3.8-0.6-5.2,0.3l-6.3,4.1c-1.4,0.9-2.5,3-2.5,4.6l0,6.7c0,0.8-0.1,2.7-0.1,2.7
			s-1.4,1.9-2,2.5l-6.2,6.7c-1.1,1.2-1.4,3.4-0.6,4.8l4.5,8c0.8,1.4,2.8,2.4,4.4,2l9-1.8c1.6-0.3,3.1-1.9,3.3-3.6l1.1-9.1
			c0.2-1.6,0.4-3,0.4-3s1.1-0.7,2.5-1.6l5.3-3.4c1.4-0.9,2.5-3,2.4-4.6L333.2,623.4z"/>
	</g>
	<g filter="url(#ds1)">
		<circle fill="#F4F4F4" cx="307.4" cy="621" r="5.1"/>
		<g>
			<rect x="306.6" y="617.7" fill="#3F3F3F" width="1.5" height="6.6"/>
			<rect x="304.1" y="620.2" fill="#3F3F3F" width="6.6" height="1.5"/>
		</g>
	</g>
	<g filter="url(#ds1)">
		<circle fill="#F4F4F4" cx="330.2" cy="646.7" r="5.1"/>
		<g>
			<rect x="329.4" y="643.4" fill="#3F3F3F" width="1.5" height="6.6"/>
			<rect x="326.9" y="646" fill="#3F3F3F" width="6.6" height="1.5"/>
		</g>
	</g>
	<g filter="url(#ds1)">
		<circle fill="#3F3F3F" cx="314.7" cy="631.3" r="3.7"/>
		<rect x="312.3" y="630.6" fill="#FFFFFF" width="4.9" height="1.4"/>
	</g>
	<g filter="url(#ds1)">
		<circle fill="#3F3F3F" cx="324.4" cy="633.5" r="3.7"/>
		<rect x="322" y="632.8" fill="#FFFFFF" width="4.9" height="1.4"/>
	</g>
</g>
<g opacity="0.45">
	<g filter="url(#ds1)">
		<path fill="#D0D2D3" d="M302,472.2c-0.1-1.6-1.3-3.6-2.8-4.4l-6.7-3.4c-1.5-0.8-3.8-0.6-5.2,0.3l-6.3,4.1c-1.4,0.9-2.5,3-2.5,4.6
			l0,6.7c0,0.8-0.1,2.7-0.1,2.7s-1.4,1.9-2,2.5l-6.2,6.7c-1.1,1.2-1.4,3.4-0.6,4.8l4.5,8c0.8,1.4,2.8,2.4,4.4,2l9-1.8
			c1.6-0.3,3.1-1.9,3.3-3.6l1.1-9.1c0.2-1.6,0.4-3,0.4-3s1.1-0.7,2.5-1.6l5.3-3.4c1.4-0.9,2.5-3,2.4-4.6L302,472.2z"/>
		<path fill="none" stroke="#929497" stroke-width="1.4546" stroke-linejoin="round" stroke-miterlimit="10" d="M302,472.2
			c-0.1-1.6-1.3-3.6-2.8-4.4l-6.7-3.4c-1.5-0.8-3.8-0.6-5.2,0.3l-6.3,4.1c-1.4,0.9-2.5,3-2.5,4.6l0,6.7c0,0.8-0.1,2.7-0.1,2.7
			s-1.4,1.9-2,2.5l-6.2,6.7c-1.1,1.2-1.4,3.4-0.6,4.8l4.5,8c0.8,1.4,2.8,2.4,4.4,2l9-1.8c1.6-0.3,3.1-1.9,3.3-3.6l1.1-9.1
			c0.2-1.6,0.4-3,0.4-3s1.1-0.7,2.5-1.6l5.3-3.4c1.4-0.9,2.5-3,2.4-4.6L302,472.2z"/>
	</g>
	<g filter="url(#ds1)">
		<circle fill="#F4F4F4" cx="276.1" cy="469.7" r="5.1"/>
		<g>
			<rect x="275.4" y="466.4" fill="#3F3F3F" width="1.5" height="6.6"/>
			<rect x="272.9" y="469" fill="#3F3F3F" width="6.6" height="1.5"/>
		</g>
	</g>
	<g filter="url(#ds1)">
		<circle fill="#F4F4F4" cx="298.9" cy="495.5" r="5.1"/>
		<g>
			<rect x="298.2" y="492.2" fill="#3F3F3F" width="1.5" height="6.6"/>
			<rect x="295.7" y="494.7" fill="#3F3F3F" width="6.6" height="1.5"/>
		</g>
	</g>
	<g filter="url(#ds1)">
		<circle fill="#3F3F3F" cx="283.5" cy="480.1" r="3.7"/>
		<rect x="281.1" y="479.4" fill="#FFFFFF" width="4.9" height="1.4"/>
	</g>
	<g filter="url(#ds1)">
		<circle fill="#3F3F3F" cx="293.2" cy="482.3" r="3.7"/>
		<rect x="290.7" y="481.6" fill="#FFFFFF" width="4.9" height="1.4"/>
	</g>
</g>
<g opacity="0.45" filter="url(#ds1)">
	<path fill="#D0D2D3" stroke="#929497" stroke-width="1.3289" stroke-linejoin="round" stroke-miterlimit="10" d="M241.9,536.6
		l-2.9-8.9c-0.5-1.7,0.1-3.5,1.5-4.5l7.5-5.5c1.4-1,3.3-1,4.7,0l7.5,5.5c1.4,1,2,2.8,1.5,4.5l-2.9,8.9c-0.5,1.7-2.1,2.8-3.8,2.8
		h-9.3C244,539.4,242.5,538.3,241.9,536.6z"/>
	<path fill="#C99BD3" stroke="#9E6AA5" stroke-width="1.5" stroke-miterlimit="10" d="M247.4,512.7c0-0.1,0-0.1,0-0.2
		c-0.1-1,0.1-1.9-0.2-2.9c-0.2-1-0.6-1.9-1.3-2.6c-2-2-5.2-2-7.2,0c-1.2,1.2-1.9,2.6-3.3,3.7c-0.7,0.6-1.5,1-2.1,1.6
		c-2,2-2,5.2,0,7.2c1.8,1.8,4.2,1.1,6.4,1.6c1.2,0.3,2.1,0.7,3.4,0.6c1.3-0.1,2.4-0.7,3.3-1.6c1.3-1.3,1.9-3.3,1.5-5.1
		C247.8,514.3,247.5,513.6,247.4,512.7z"/>
</g>
</svg>
