<?xml version="1.0" encoding="utf-8"?>
<!-- Generator: Adobe Illustrator 18.1.1, SVG Export Plug-In . SVG Version: 6.00 Build 0)  -->
<!DOCTYPE svg PUBLIC "-//W3C//DTD SVG 1.1//EN" "http://www.w3.org/Graphics/SVG/1.1/DTD/svg11.dtd">
<svg version="1.1" id="Layer_1" xmlns="http://www.w3.org/2000/svg" xmlns:xlink="http://www.w3.org/1999/xlink" x="0px" y="0px"
	 viewBox="0 0 920 690" enable-background="new 0 0 920 690" xml:space="preserve">
<filter  height="200%" width="200%" id="ds3" y="-50%" x="-50%">
	<feOffset  in="SourceAlpha" result="offOut" dy="17" dx="0"></feOffset>
	<feGaussianBlur  in="offOut" stdDeviation="15" result="blurOut"></feGaussianBlur>
	<feComponentTransfer>
		<feFuncA  type="linear" slope="0.4"></feFuncA>
	</feComponentTransfer>
	<feMerge>
		<feMergeNode></feMergeNode>
		<feMergeNode  in="SourceGraphic"></feMergeNode>
	</feMerge>
</filter>
<filter  height="200%" width="200%" id="ds2" y="-50%" x="-50%">
	<feOffset  in="SourceAlpha" result="offOut" dy="-1" dx="0"></feOffset>
	<feGaussianBlur  in="offOut" stdDeviation="17" result="blurOut"></feGaussianBlur>
	<feComponentTransfer>
		<feFuncA  type="linear" slope="0.2"></feFuncA>
	</feComponentTransfer>
	<feMerge>
		<feMergeNode></feMergeNode>
		<feMergeNode  in="SourceGraphic"></feMergeNode>
	</feMerge>
</filter>
<filter  height="170%" width="170%" id="ds1" y="-20%" x="-30%">
	<feOffset  in="SourceAlpha" result="offOut" dy="1" dx="0"></feOffset>
	<feGaussianBlur  in="offOut" stdDeviation="2" result="blurOut"></feGaussianBlur>
	<feComponentTransfer>
		<feFuncA  type="linear" slope="0.5"></feFuncA>
	</feComponentTransfer>
	<feMerge>
		<feMergeNode></feMergeNode>
		<feMergeNode  in="SourceGraphic"></feMergeNode>
	</feMerge>
</filter>
<linearGradient id="SVGID_1_" gradientUnits="userSpaceOnUse" x1="425.8095" y1="-5.1941" x2="489.0463" y2="642.5043">
	<stop  offset="0" style="stop-color:#B6E9CF"/>
	<stop  offset="1" style="stop-color:#DDBF6B"/>
</linearGradient>
<rect x="0" y="0" fill="url(#SVGID_1_)" width="920" height="690"/>
<path opacity="0.1" fill="#6D6E70" d="M213.4,301.3l-33.8,7.1c-10.5,2.2-21.4,2.2-31.9,0l-33.8-7.1c-0.6-0.1-1-0.6-1-1.2v-25.5
	c0-0.7,0.5-1.2,1.2-1.2h98.9c0.7,0,1.2,0.5,1.2,1.2v25.5C214.4,300.7,214,301.2,213.4,301.3z"/>
<g opacity="0.45">
	<path fill="#6D6E70" d="M431.6,261.3c-21.8,0-43.5,0-65.3,0c-14.5-14.5-14.5-38,0-52.6c21.8,0,43.5,0,65.3,0
		C446.1,223.2,446.1,246.8,431.6,261.3z"/>
	<g>
		<g>
			<path fill="#E8E8E8" d="M365.7,231.2c1.5,0,3.3,0.6,3.3,1.7v1.2h-1.4v-0.6c0-0.6-0.9-0.9-1.8-0.9c-1.8,0-2.9,1.2-2.9,3
				c0,1.8,1.1,3.2,3,3.2c0.7,0,2-0.2,2-0.9v-0.9h-1.5v-1.2h3v2.6c0,1.3-2.3,1.8-3.5,1.8c-2.6,0-4.5-1.9-4.5-4.4
				S363.1,231.2,365.7,231.2z"/>
			<path fill="#E8E8E8" d="M370.5,238.7h1v-6.1h-1v-1.3h3.6v1.3h-1v6h2.5v-1.3h1.3v2.6h-6.5V238.7z"/>
			<path fill="#E8E8E8" d="M378.9,238.7h1v-2.4l-2.3-3.8h-0.8v-1.2h3.2v1.2h-0.8l1.3,2.2c0.1,0.1,0.1,0.2,0.1,0.3c0,0,0,0.1,0,0.1h0
				c0,0,0-0.1,0-0.1c0-0.1,0.1-0.2,0.1-0.3l1.3-2.2h-0.8v-1.2h3.1v1.2h-0.8l-2.3,3.8v2.4h1v1.2h-3.6V238.7z"/>
			<path fill="#E8E8E8" d="M389.4,231.2c1,0,3.3,0.4,3.3,1.7v1.2h-1.4v-0.7c0-0.6-1.1-0.9-1.8-0.9c-1.6,0-2.8,1.2-2.8,3
				c0,1.9,1.2,3.2,2.9,3.2c0.5,0,1.8-0.2,1.8-0.8v-0.7h1.4v1.2c0,1.3-2.2,1.7-3.4,1.7c-2.6,0-4.5-1.9-4.5-4.4
				C385,233.1,386.9,231.2,389.4,231.2z"/>
			<path fill="#E8E8E8" d="M398.3,231.2c2.5,0,4.4,1.9,4.4,4.3c0,2.5-1.9,4.5-4.4,4.5s-4.4-2-4.4-4.5
				C393.9,233.2,395.8,231.2,398.3,231.2z M398.3,238.7c1.5,0,2.8-1.3,2.8-3.1c0-1.7-1.3-3-2.8-3s-2.8,1.3-2.8,3
				C395.5,237.3,396.8,238.7,398.3,238.7z"/>
			<path fill="#E8E8E8" d="M403.9,238.7h1v-6.1h-1v-1.3h3.6v1.3h-1v6h2.5v-1.3h1.3v2.6h-6.5V238.7z"/>
			<path fill="#E8E8E8" d="M412.2,238.7h1v-2.4l-2.3-3.8h-0.8v-1.2h3.2v1.2h-0.8l1.3,2.2c0.1,0.1,0.1,0.2,0.1,0.3c0,0,0,0.1,0,0.1h0
				c0,0,0-0.1,0-0.1c0-0.1,0.1-0.2,0.1-0.3l1.3-2.2h-0.8v-1.2h3.1v1.2h-0.8l-2.3,3.8v2.4h1v1.2h-3.6V238.7z"/>
			<path fill="#E8E8E8" d="M419.9,237.2v0.6c0,0.5,0.7,0.9,1.5,0.9c0.9,0,1.5-0.4,1.5-1.1c0-0.9-1-1.1-2-1.5
				c-1.1-0.4-2.3-0.9-2.3-2.5c0-1.7,1.4-2.4,2.9-2.4c1.3,0,2.7,0.5,2.7,1.5v1.1h-1.4v-0.6c0-0.4-0.6-0.7-1.3-0.7
				c-0.7,0-1.3,0.3-1.3,0.9c0,0.8,0.8,1,1.7,1.4c1.3,0.4,2.5,1,2.5,2.6c0,1.7-1.5,2.5-3.1,2.5c-1.4,0-2.9-0.6-2.9-1.9v-1H419.9z"/>
			<path fill="#E8E8E8" d="M425.7,238.7h1v-6.2h-1v-1.2h3.6v1.2h-1v6.2h1v1.2h-3.6V238.7z"/>
			<path fill="#E8E8E8" d="M431.9,237.2v0.6c0,0.5,0.7,0.9,1.5,0.9c0.9,0,1.5-0.4,1.5-1.1c0-0.9-1-1.1-2-1.5
				c-1.1-0.4-2.3-0.9-2.3-2.5c0-1.7,1.4-2.4,2.9-2.4c1.3,0,2.7,0.5,2.7,1.5v1.1h-1.4v-0.6c0-0.4-0.6-0.7-1.3-0.7
				c-0.7,0-1.3,0.3-1.3,0.9c0,0.8,0.8,1,1.7,1.4c1.3,0.4,2.5,1,2.5,2.6c0,1.7-1.5,2.5-3.1,2.5c-1.4,0-2.9-0.6-2.9-1.9v-1H431.9z"/>
		</g>
	</g>
</g>
<path opacity="0.1" fill="#6D6E70" d="M773.5,252.4h-54.7l-11.7,39.8c-2,6.8,3.1,13.5,10.1,13.5h57.9c7.1,0,12.1-6.8,10.1-13.5
	L773.5,252.4z"/>
<g opacity="0.45">
	<path fill="#6D6E70" d="M498.6,387.6l-23.7,5.6c-3.8,0.9-7.9,0.9-11.7,0l-23.7-5.6v-26.2l23.7-5.6c3.8-0.9,7.9-0.9,11.7,0l23.7,5.6
		V387.6z"/>
	<g>
		<g>
			<path fill="#E8E8E8" d="M456.1,377.8h1v-6.2h-1v-1.2h4.1c0.5,0,1,0,1.4,0.2c0.9,0.4,1.5,1.3,1.5,2.5c0,1.2-0.6,2.2-1.6,2.6
				c-0.4,0.1-0.8,0.2-1.3,0.2h-1.5v1.8h1v1.2h-3.6V377.8z M460,374.7c0.3,0,0.6-0.1,0.9-0.2c0.5-0.2,0.7-0.7,0.7-1.3
				c0-0.6-0.2-1-0.6-1.3c-0.2-0.1-0.5-0.2-0.9-0.2h-1.3v3H460z"/>
			<path fill="#E8E8E8" d="M464,377.8h1v-6.2h-1v-1.2h3.6v1.2h-1v2.5h3.9v-2.5h-1v-1.2h3.6v1.2h-1v6.2h1v1.2h-3.6v-1.2h1v-2.4h-3.9
				v2.4h1v1.2H464V377.8z"/>
			<path fill="#E8E8E8" d="M478.5,370.3c1,0,3.3,0.4,3.3,1.7v1.2h-1.4v-0.7c0-0.6-1.1-0.9-1.8-0.9c-1.6,0-2.8,1.2-2.8,3
				c0,1.9,1.2,3.2,2.9,3.2c0.5,0,1.8-0.2,1.8-0.8v-0.7h1.4v1.2c0,1.3-2.2,1.7-3.4,1.7c-2.6,0-4.5-1.9-4.5-4.4
				C474.1,372.2,476,370.3,478.5,370.3z"/>
		</g>
	</g>
</g>
<path opacity="0.1" fill="#6D6E70" d="M190.2,519.9l-89.6,22.4c-9.9,2.5-19.6-5-19.6-15.3v-56h116.2v39.9
	C197.2,515.1,194.3,518.8,190.2,519.9z"/>
<g opacity="0.45">
	<g filter="url(#ds2)">
		
			<radialGradient id="SVGID_2_" cx="732.9095" cy="596.4001" r="229.9175" gradientTransform="matrix(1 0 0 0.7185 0 167.9018)" gradientUnits="userSpaceOnUse">
			<stop  offset="0" style="stop-color:#C9E9F0"/>
			<stop  offset="0.2183" style="stop-color:#C1E1EC"/>
			<stop  offset="0.5564" style="stop-color:#ACCBE0"/>
			<stop  offset="0.97" style="stop-color:#8AA8CD"/>
			<stop  offset="1" style="stop-color:#87A5CB"/>
		</radialGradient>
		<rect x="554" y="480.1" fill="url(#SVGID_2_)" width="365.8" height="210.6"/>
	</g>
	<polygon fill="#8689BC" points="581.4,721.1 602.8,641.4 725.4,591.7 892.3,573 932.3,604.5 918.4,738.7 	"/>
	<g filter="url(#ds3)">
		<path fill="none" stroke="#9991CE" stroke-width="29" stroke-miterlimit="10" d="M581.4,719.7c0.5-16.5,4.3-65,21.4-79.7
			c42.5-36.6,176-70.9,289.5-62.2c28.9,2.2,47.2,38,47.2,38"/>
	</g>
	<rect x="554" y="480.1" fill="#6D6E70" width="211.8" height="21.7"/>
	<g filter="url(#ds1)">
		<path fill="#D0D2D3" stroke="#929497" stroke-width="1.4546" stroke-linejoin="round" stroke-miterlimit="10" d="M687.3,617.7
			c1.7-3.5,2.4-7.2,2.4-10.8c2,3.3,4.9,6.2,8.5,8.3l12-3.2c1.8-3.1,2.8-6.5,3.1-9.9c1.8,2.8,4.3,5.2,7.2,7l12.1-2.8
			c7.1-11.3,3.6-26.1-7.6-33.2l-12.1,2.8c-0.7,1.1-1.3,2.3-1.8,3.5l-3.9-1.8l-2.7,3.6c-1-0.8-2-1.5-3.1-2.1l-12,3.2
			c-0.5,0.9-1,1.9-1.4,2.9l-4.9-1.4l-3.2,4.1c-1.2-0.9-2.4-1.6-3.8-2.3c-3.6,1.2-7.9,2.7-11.7,4.1c-5.8,12-0.8,26.4,11.2,32.1
			L687.3,617.7z"/>
		<linearGradient id="SVGID_3_" gradientUnits="userSpaceOnUse" x1="698.0417" y1="582.0451" x2="703.1546" y2="603.854">
			<stop  offset="0" style="stop-color:#B5B5B5"/>
			<stop  offset="1" style="stop-color:#9A9A9A"/>
		</linearGradient>
		<path fill="url(#SVGID_3_)" d="M717.9,588.5c-6.9-0.1-26.9,2-37.1,9.1c-1,0.7-2.4,0.3-2.9,0c-1-0.6-3.3-3.2-3.4-11.6
			c-3.2,1.1-6.9,2.4-10.2,3.6c0.5,9.6,3.3,15.7,8.4,18.5c1.8,1,3.7,1.4,5.7,1.4c2.9,0,6-0.7,8.6-2.9c7.2-6.3,25.4-6.7,31.7-7.2
			c7.2-0.6,13.8-4.2,17.1-10.6c-0.9-4.6-3.1-8.8-6.5-12.2C729.8,587.5,720.1,588.6,717.9,588.5z"/>
	</g>
	<g>
		<g>
			<path fill="#E8E8E8" d="M563.8,486.5c2.5,0,4.4,1.9,4.4,4.3c0,2.5-1.9,4.5-4.4,4.5c-2.5,0-4.4-2-4.4-4.5
				C559.4,488.4,561.3,486.5,563.8,486.5z M563.8,493.9c1.5,0,2.8-1.3,2.8-3.1c0-1.7-1.3-3-2.8-3s-2.8,1.3-2.8,3
				C561,492.6,562.3,493.9,563.8,493.9z"/>
			<path fill="#E8E8E8" d="M568.9,494h0.8l2.1-3.1l-2.1-3h-0.8v-1.2h3.2v1.2h-0.8l1.2,1.8c0.1,0.1,0.1,0.2,0.2,0.3
				c0,0,0,0.1,0.1,0.1h0c0,0,0.1-0.2,0.2-0.4l1.1-1.8h-0.8v-1.2h3.1v1.2h-0.7l-2.2,3.1l2.1,3h0.8v1.2h-3.2V494h0.8l-1.2-1.8
				c-0.1-0.1-0.1-0.2-0.2-0.3c0,0,0-0.1-0.1-0.1h0c0,0-0.1,0.2-0.2,0.4l-1.1,1.8h0.8v1.2h-3.1V494z"/>
			<path fill="#E8E8E8" d="M577.4,494h1v-6.2h-1v-1.2h3.6v1.2h-1v6.2h1v1.2h-3.6V494z"/>
			<path fill="#E8E8E8" d="M582.2,494h1v-6.2h-1v-1.2h3.7c0.7,0,1.2,0,1.8,0.2c1.7,0.5,2.8,2,2.8,4.1c0,2-1,3.5-2.6,4
				c-0.6,0.2-1.2,0.3-1.9,0.3h-3.7V494z M585.8,493.9c0.5,0,1,0,1.4-0.2c1-0.4,1.6-1.4,1.6-2.8c0-1.5-0.6-2.4-1.6-2.8
				c-0.4-0.2-0.8-0.2-1.3-0.2h-1v6H585.8z"/>
			<path fill="#E8E8E8" d="M591,494h0.8l2.6-7.3h1.8l2.6,7.3h0.8v1.2h-3.2V494h0.8l-0.5-1.6h-2.7l-0.5,1.6h0.8v1.2H591V494z
				 M596.2,491.1l-0.8-2.4l-0.1-0.5c0-0.1,0-0.2,0-0.2h0l0,0.2c0,0.1-0.1,0.3-0.1,0.5l-0.8,2.4H596.2z"/>
			<path fill="#E8E8E8" d="M601.3,494h1v-6.1h-1.6v1.3h-1.3v-2.5h7.5v2.5h-1.3v-1.3h-1.6v6.1h1v1.2h-3.6V494z"/>
			<path fill="#E8E8E8" d="M607.7,494h1v-6.2h-1v-1.2h3.6v1.2h-1v6.2h1v1.2h-3.6V494z"/>
			<path fill="#E8E8E8" d="M612.9,487.8h-0.8v-1.2h3.3v1.2h-0.9l1.6,4.9c0.1,0.2,0.1,0.4,0.1,0.5l0,0.3h0l0-0.3
				c0-0.1,0.1-0.3,0.1-0.5l1.6-4.9h-0.9v-1.2h3.3v1.2h-0.8l-2.6,7.3h-1.6L612.9,487.8z"/>
			<path fill="#E8E8E8" d="M621.2,494h1v-6.2h-1v-1.2h6.3v2.2h-1.3v-0.9h-2.4v2.3h2.8v1.3h-2.8v2.4h2.6v-1h1.3v2.2h-6.5V494z"/>
			<path fill="#E8E8E8" d="M631.9,494h1v-6.2h-1v-1.2h4.1c0.5,0,1,0,1.4,0.2c0.9,0.4,1.5,1.3,1.5,2.5c0,1.2-0.6,2.2-1.6,2.6
				c-0.4,0.1-0.8,0.2-1.3,0.2h-1.5v1.8h1v1.2h-3.6V494z M635.8,490.9c0.3,0,0.6-0.1,0.9-0.2c0.5-0.2,0.7-0.7,0.7-1.3
				c0-0.6-0.2-1-0.6-1.3c-0.2-0.1-0.5-0.2-0.9-0.2h-1.3v3H635.8z"/>
			<path fill="#E8E8E8" d="M639.8,494h1v-6.2h-1v-1.2h3.6v1.2h-1v2.5h3.9v-2.5h-1v-1.2h3.6v1.2h-1v6.2h1v1.2h-3.6V494h1v-2.4h-3.9
				v2.4h1v1.2h-3.6V494z"/>
			<path fill="#E8E8E8" d="M654.4,486.5c2.5,0,4.4,1.9,4.4,4.3c0,2.5-1.9,4.5-4.4,4.5s-4.4-2-4.4-4.5
				C650,488.4,651.9,486.5,654.4,486.5z M654.4,493.9c1.5,0,2.8-1.3,2.8-3.1c0-1.7-1.3-3-2.8-3s-2.8,1.3-2.8,3
				C651.6,492.6,652.9,493.9,654.4,493.9z"/>
			<path fill="#E8E8E8" d="M661.3,492.4v0.6c0,0.5,0.7,0.9,1.5,0.9c0.9,0,1.5-0.4,1.5-1.1c0-0.9-1-1.1-2-1.5
				c-1.1-0.4-2.3-0.9-2.3-2.5c0-1.7,1.4-2.4,2.9-2.4c1.3,0,2.7,0.5,2.7,1.5v1.1h-1.4v-0.6c0-0.4-0.6-0.7-1.3-0.7
				c-0.7,0-1.3,0.3-1.3,0.9c0,0.8,0.8,1,1.7,1.4c1.3,0.4,2.5,1,2.5,2.6c0,1.7-1.5,2.5-3.1,2.5c-1.4,0-2.9-0.6-2.9-1.9v-1H661.3z"/>
			<path fill="#E8E8E8" d="M667.1,494h1v-6.2h-1v-1.2h4.1c0.5,0,1,0,1.4,0.2c0.9,0.4,1.5,1.3,1.5,2.5c0,1.2-0.6,2.2-1.6,2.6
				c-0.4,0.1-0.8,0.2-1.3,0.2h-1.5v1.8h1v1.2h-3.6V494z M671,490.9c0.3,0,0.6-0.1,0.9-0.2c0.5-0.2,0.7-0.7,0.7-1.3
				c0-0.6-0.2-1-0.6-1.3c-0.2-0.1-0.5-0.2-0.9-0.2h-1.3v3H671z"/>
			<path fill="#E8E8E8" d="M675,494h1v-6.2h-1v-1.2h3.6v1.2h-1v2.5h3.9v-2.5h-1v-1.2h3.6v1.2h-1v6.2h1v1.2h-3.6V494h1v-2.4h-3.9v2.4
				h1v1.2H675V494z"/>
			<path fill="#E8E8E8" d="M689.6,486.5c2.5,0,4.4,1.9,4.4,4.3c0,2.5-1.9,4.5-4.4,4.5s-4.4-2-4.4-4.5
				C685.2,488.4,687.1,486.5,689.6,486.5z M689.6,493.9c1.5,0,2.8-1.3,2.8-3.1c0-1.7-1.3-3-2.8-3s-2.8,1.3-2.8,3
				C686.8,492.6,688.1,493.9,689.6,493.9z"/>
			<path fill="#E8E8E8" d="M695.1,494h1v-6.2h-1v-1.2h3.8c0.6,0,1.1,0,1.6,0.2c1,0.3,1.6,1.1,1.6,2.3s-0.6,2-1.6,2.4v0l0.1,0.1
				c0.1,0.1,0.2,0.2,0.3,0.3l1,1.8c0.1,0.2,0.3,0.3,0.6,0.3h0.3v1.2h-1c-0.7,0-0.9-0.1-1.2-0.6l-1.2-2.2c-0.2-0.3-0.3-0.4-0.8-0.4
				h-0.8v2.1h1v1.2h-3.6V494z M699.1,490.6c0.8,0,1.4-0.5,1.4-1.4c0-0.6-0.2-1-0.7-1.2c-0.2-0.1-0.6-0.2-1-0.2h-1.2v2.7H699.1z"/>
			<path fill="#E8E8E8" d="M705.1,494h1v-2.4l-2.3-3.8H703v-1.2h3.2v1.2h-0.8l1.3,2.2c0.1,0.1,0.1,0.2,0.1,0.3c0,0,0,0.1,0,0.1h0
				c0,0,0-0.1,0-0.1c0-0.1,0.1-0.2,0.1-0.3l1.3-2.2h-0.8v-1.2h3.1v1.2h-0.8l-2.3,3.8v2.4h1v1.2h-3.6V494z"/>
			<path fill="#E8E8E8" d="M711.4,494h1v-6.1h-1v-1.3h3.6v1.3h-1v6h2.5v-1.3h1.3v2.6h-6.5V494z"/>
			<path fill="#E8E8E8" d="M718.3,494h0.8l2.6-7.3h1.8l2.6,7.3h0.8v1.2h-3.2V494h0.8l-0.5-1.6h-2.7l-0.5,1.6h0.8v1.2h-3.2V494z
				 M723.5,491.1l-0.8-2.4l-0.1-0.5c0-0.1,0-0.2,0-0.2h0l0,0.2c0,0.1-0.1,0.3-0.1,0.5l-0.8,2.4H723.5z"/>
			<path fill="#E8E8E8" d="M728.6,494h1v-6.1H728v1.3h-1.3v-2.5h7.5v2.5h-1.3v-1.3h-1.6v6.1h1v1.2h-3.6V494z"/>
			<path fill="#E8E8E8" d="M735.1,494h1v-6.2h-1v-1.2h3.6v1.2h-1v6.2h1v1.2h-3.6V494z"/>
			<path fill="#E8E8E8" d="M744.2,486.5c2.5,0,4.4,1.9,4.4,4.3c0,2.5-1.9,4.5-4.4,4.5c-2.5,0-4.4-2-4.4-4.5
				C739.8,488.4,741.7,486.5,744.2,486.5z M744.2,493.9c1.5,0,2.8-1.3,2.8-3.1c0-1.7-1.3-3-2.8-3s-2.8,1.3-2.8,3
				C741.4,492.6,742.7,493.9,744.2,493.9z"/>
			<path fill="#E8E8E8" d="M749.7,494h1v-6.2h-1v-1.2h2.6l3.6,5.5c0.1,0.1,0.2,0.3,0.2,0.5l0.1,0.3h0l0-0.3c0-0.2,0-0.4,0-0.5v-4.2
				h-1.1v-1.2h3.6v1.2h-1v7.3h-1.6l-3.6-5.5c-0.1-0.1-0.2-0.3-0.2-0.5l-0.1-0.3h0l0,0.3c0,0.2,0,0.4,0,0.5v4.2h1.1v1.2h-3.6V494z"/>
		</g>
	</g>
	<g filter="url(#ds1)">
		<path fill="#D0D2D3" d="M804.7,527.1c-14.1,7.7-12.3,34.5,1.4,39.2c0.5,0,2.9,24.6,2.9,24.6c-5.3,2.6-2.4,8.1,1.3,7.9
			c2.5-0.2,5.7-0.4,8.2-0.5c4.1-0.2,5.8-6,0.2-8c0,0-0.7-24.7-0.2-24.7c12.2-4.8,14.4-32.5-1.4-39.2
			C813.3,526.6,808.5,526.9,804.7,527.1z"/>
		<path fill="none" stroke="#929497" stroke-width="1.4546" stroke-linejoin="round" stroke-miterlimit="10" d="M804.7,527.1
			c-14.1,7.7-12.3,34.5,1.4,39.2c0.5,0,2.9,24.6,2.9,24.6c-5.3,2.6-2.4,8.1,1.3,7.9c2.5-0.2,5.7-0.4,8.2-0.5c4.1-0.2,5.8-6,0.2-8
			c0,0-0.7-24.7-0.2-24.7c12.2-4.8,14.4-32.5-1.4-39.2C813.3,526.6,808.5,526.9,804.7,527.1z"/>
	</g>
</g>
<g opacity="0.45" filter="url(#ds1)">
	<path fill="#E96667" d="M383.1,85.3c-1.6,0.7-3.1,2-3.8,3.3c-0.9,1.8-0.8,4,0.1,5.8c0.8,1.6,2.3,3.5,0.7,5.1
		c-0.9,0.9-2,1.5-2.9,2.4c-0.9,0.9-1.3,1.9-1.8,3.1c-0.3,0.8-0.8,1.2-1.7,1.2c-1.2,0-2.4-0.8-3.5-1.1c-1.3-0.4-2.5-0.3-3.8,0.1
		c-4,1.2-6.4,6.2-3.9,9.8c1.3,1.9,3.6,3,5.8,3.5c1,0.3,1.9,0,2.9,0.3c1,0.3,1.9,0.8,2.7,1.5c0.5,0.4,1,0.8,1.5,1.1
		c1.3,0.7,3.1,1.2,4.6,1.2c1.6-0.1,2.9,0.1,4.2,1.1c1,0.8,1.9,2.1,3.2,2.5c2.6,0.9,5.6,0,7.3-2c1.2-1.4,1.2-3.5,2.2-5
		c1.3-1.7,3.7-1.9,5.1-3.6c1.6-1.8,2.1-4.4,1.3-6.7c-0.7-1.9-2.4-3.1-3.7-4.7c-1.5-1.8-1.1-3.8-2.2-5.6c-0.4-0.7-0.9-1.2-1.5-1.6
		c-1.2-1-2.4-2-2.8-3.6c-0.8-4-2.4-7.7-6.8-8.6C385.5,84.5,384.3,84.8,383.1,85.3z"/>
	<path fill="none" stroke="#B4474C" stroke-width="1.489" stroke-miterlimit="10" d="M383.1,85.3c-1.6,0.7-3.1,2-3.8,3.3
		c-0.9,1.8-0.8,4,0.1,5.8c0.8,1.6,2.3,3.5,0.7,5.1c-0.9,0.9-2,1.5-2.9,2.4c-0.9,0.9-1.3,1.9-1.8,3.1c-0.3,0.8-0.8,1.2-1.7,1.2
		c-1.2,0-2.4-0.8-3.5-1.1c-1.3-0.4-2.5-0.3-3.8,0.1c-4,1.2-6.4,6.2-3.9,9.8c1.3,1.9,3.6,3,5.8,3.5c1,0.3,1.9,0,2.9,0.3
		c1,0.3,1.9,0.8,2.7,1.5c0.5,0.4,1,0.8,1.5,1.1c1.3,0.7,3.1,1.2,4.6,1.2c1.6-0.1,2.9,0.1,4.2,1.1c1,0.8,1.9,2.1,3.2,2.5
		c2.6,0.9,5.6,0,7.3-2c1.2-1.4,1.2-3.5,2.2-5c1.3-1.7,3.7-1.9,5.1-3.6c1.6-1.8,2.1-4.4,1.3-6.7c-0.7-1.9-2.4-3.1-3.7-4.7
		c-1.5-1.8-1.1-3.8-2.2-5.6c-0.4-0.7-0.9-1.2-1.5-1.6c-1.2-1-2.4-2-2.8-3.6c-0.8-4-2.4-7.7-6.8-8.6
		C385.5,84.5,384.3,84.8,383.1,85.3z"/>
</g>
<g opacity="0.45" filter="url(#ds1)">
	<path fill="#E96667" d="M359.3,29.5c-0.6-1.7-1.7-3.3-3-4.1c-1.7-1.1-3.9-1.2-5.7-0.5c-1.6,0.6-3.7,2-5.2,0.2
		c-0.8-1-1.3-2.2-2.2-3.1c-0.8-0.9-1.8-1.5-2.9-2.1c-0.8-0.4-1.1-0.9-1-1.8c0.1-1.2,1-2.3,1.4-3.4c0.5-1.3,0.5-2.5,0.3-3.8
		c-0.8-4.1-5.6-6.9-9.4-4.8c-2,1.1-3.3,3.4-4,5.4c-0.3,1-0.2,1.9-0.6,2.9c-0.4,1-1,1.8-1.7,2.6c-0.5,0.5-0.9,0.9-1.2,1.4
		c-0.8,1.2-1.5,3-1.6,4.5c-0.1,1.6-0.3,2.9-1.5,4.1c-0.9,0.9-2.2,1.7-2.8,2.9c-1.1,2.5-0.5,5.5,1.3,7.5c1.3,1.3,3.4,1.5,4.8,2.7
		c1.6,1.4,1.6,3.9,3.1,5.4c1.7,1.7,4.2,2.5,6.6,1.9c1.9-0.5,3.3-2.1,5-3.2c1.9-1.3,3.9-0.7,5.8-1.7c0.7-0.3,1.3-0.8,1.8-1.3
		c1.1-1.1,2.2-2.3,3.8-2.4c4.1-0.4,7.9-1.6,9.2-5.9C359.8,31.9,359.7,30.6,359.3,29.5z"/>
	<path fill="none" stroke="#B4474C" stroke-width="1.489" stroke-miterlimit="10" d="M359.3,29.5c-0.6-1.7-1.7-3.3-3-4.1
		c-1.7-1.1-3.9-1.2-5.7-0.5c-1.6,0.6-3.7,2-5.2,0.2c-0.8-1-1.3-2.2-2.2-3.1c-0.8-0.9-1.8-1.5-2.9-2.1c-0.8-0.4-1.1-0.9-1-1.8
		c0.1-1.2,1-2.3,1.4-3.4c0.5-1.3,0.5-2.5,0.3-3.8c-0.8-4.1-5.6-6.9-9.4-4.8c-2,1.1-3.3,3.4-4,5.4c-0.3,1-0.2,1.9-0.6,2.9
		c-0.4,1-1,1.8-1.7,2.6c-0.5,0.5-0.9,0.9-1.2,1.4c-0.8,1.2-1.5,3-1.6,4.5c-0.1,1.6-0.3,2.9-1.5,4.1c-0.9,0.9-2.2,1.7-2.8,2.9
		c-1.1,2.5-0.5,5.5,1.3,7.5c1.3,1.3,3.4,1.5,4.8,2.7c1.6,1.4,1.6,3.9,3.1,5.4c1.7,1.7,4.2,2.5,6.6,1.9c1.9-0.5,3.3-2.1,5-3.2
		c1.9-1.3,3.9-0.7,5.8-1.7c0.7-0.3,1.3-0.8,1.8-1.3c1.1-1.1,2.2-2.3,3.8-2.4c4.1-0.4,7.9-1.6,9.2-5.9
		C359.8,31.9,359.7,30.6,359.3,29.5z"/>
</g>
<g opacity="0.45" filter="url(#ds1)">
	<path fill="#E96667" d="M332.9,61.3c-1.8,0.2-3.6,0.9-4.6,2c-1.4,1.4-2,3.5-1.7,5.5c0.2,1.7,1.1,4-0.9,5.1
		c-1.1,0.6-2.4,0.8-3.5,1.4c-1.1,0.6-1.9,1.4-2.7,2.4c-0.6,0.7-1.1,0.9-1.9,0.6c-1.1-0.3-2.1-1.5-3-2.1c-1.1-0.8-2.3-1.1-3.7-1.1
		c-4.1-0.1-8,3.9-6.7,8.2c0.6,2.2,2.6,3.9,4.4,5.1c0.9,0.5,1.8,0.6,2.7,1.2c0.9,0.6,1.6,1.4,2.1,2.3c0.3,0.6,0.7,1,1.1,1.5
		c1,1.1,2.6,2.2,4,2.6c1.6,0.5,2.7,1,3.7,2.4c0.7,1.1,1.2,2.6,2.3,3.3c2.2,1.6,5.3,1.8,7.6,0.3c1.6-1,2.2-3,3.7-4.1
		c1.7-1.3,4.1-0.7,6-1.8c2.1-1.3,3.3-3.6,3.3-6c0-2-1.3-3.7-2.1-5.6c-0.8-2.1,0.2-3.9-0.3-6c-0.2-0.8-0.5-1.4-0.9-2
		c-0.9-1.3-1.7-2.6-1.5-4.2c0.5-4,0.1-8.1-3.8-10.3C335.3,61.3,334.1,61.1,332.9,61.3z"/>
	<path fill="none" stroke="#B4474C" stroke-width="1.489" stroke-miterlimit="10" d="M332.9,61.3c-1.8,0.2-3.6,0.9-4.6,2
		c-1.4,1.4-2,3.5-1.7,5.5c0.2,1.7,1.1,4-0.9,5.1c-1.1,0.6-2.4,0.8-3.5,1.4c-1.1,0.6-1.9,1.4-2.7,2.4c-0.6,0.7-1.1,0.9-1.9,0.6
		c-1.1-0.3-2.1-1.5-3-2.1c-1.1-0.8-2.3-1.1-3.7-1.1c-4.1-0.1-8,3.9-6.7,8.2c0.6,2.2,2.6,3.9,4.4,5.1c0.9,0.5,1.8,0.6,2.7,1.2
		c0.9,0.6,1.6,1.4,2.1,2.3c0.3,0.6,0.7,1,1.1,1.5c1,1.1,2.6,2.2,4,2.6c1.6,0.5,2.7,1,3.7,2.4c0.7,1.1,1.2,2.6,2.3,3.3
		c2.2,1.6,5.3,1.8,7.6,0.3c1.6-1,2.2-3,3.7-4.1c1.7-1.3,4.1-0.7,6-1.8c2.1-1.3,3.3-3.6,3.3-6c0-2-1.3-3.7-2.1-5.6
		c-0.8-2.1,0.2-3.9-0.3-6c-0.2-0.8-0.5-1.4-0.9-2c-0.9-1.3-1.7-2.6-1.5-4.2c0.5-4,0.1-8.1-3.8-10.3
		C335.3,61.3,334.1,61.1,332.9,61.3z"/>
</g>
<g opacity="0.45" filter="url(#ds1)">
	<path fill="#E96667" d="M459.5,42.2c1.6,1.3,3.8,1.9,5.8,1.4c1.5-0.3,2.5-1.5,4.1-1.3c1.7,0.3,2.3,1.2,4.8,1.8
		c1.8,0.4,3.6-0.5,4.9-1.8c2.1-2.3,1.2-3.7,3.3-4.2c1.9-0.4,2.3,3,3.8,4.2c2.9,2.4,7.2,2,9.6-0.9c2.4-2.9,2-7.2-0.9-9.6
		c-1.2-1-2.5-1.2-3.9-1.6c-1.4-0.4-1.8-1.2-2.4-2.5c-0.5-1.2-1.4-2.1-2.2-3.1c-1.5-1.7-1.1-3.3-1.2-5.4c-0.1-1.9-1-3.8-2.4-5
		c-1.5-1.2-3.5-1.8-5.4-1.5c-1.2,0.2-2.5,0.7-3.8,0.5c-1.3-0.3-2.4-1.4-3.6-2c-2.7-1.2-6-0.4-7.9,1.9c-1.2,1.4-1.1,3.5-2.2,5
		c-1.2,1.8-3.7,1.9-5.1,3.6c-1.5,1.9-2,4.4-1.2,6.7c0.8,2.3,3.8,3.4,3.8,6.1C457.3,37.7,456.9,40.1,459.5,42.2z"/>
	<path fill="none" stroke="#B4474C" stroke-width="1.489" stroke-miterlimit="10" d="M459.5,42.2c1.6,1.3,3.8,1.9,5.8,1.4
		c1.5-0.3,2.5-1.5,4.1-1.3c1.7,0.3,2.3,1.2,4.8,1.8c1.8,0.4,3.6-0.5,4.9-1.8c2.1-2.3,1.2-3.7,3.3-4.2c1.9-0.4,2.3,3,3.8,4.2
		c2.9,2.4,7.2,2,9.6-0.9c2.4-2.9,2-7.2-0.9-9.6c-1.2-1-2.5-1.2-3.9-1.6c-1.4-0.4-1.8-1.2-2.4-2.5c-0.5-1.2-1.4-2.1-2.2-3.1
		c-1.5-1.7-1.1-3.3-1.2-5.4c-0.1-1.9-1-3.8-2.4-5c-1.5-1.2-3.5-1.8-5.4-1.5c-1.2,0.2-2.5,0.7-3.8,0.5c-1.3-0.3-2.4-1.4-3.6-2
		c-2.7-1.2-6-0.4-7.9,1.9c-1.2,1.4-1.1,3.5-2.2,5c-1.2,1.8-3.7,1.9-5.1,3.6c-1.5,1.9-2,4.4-1.2,6.7c0.8,2.3,3.8,3.4,3.8,6.1
		C457.3,37.7,456.9,40.1,459.5,42.2z"/>
</g>
<g opacity="0.45" filter="url(#ds1)">
	<path fill="#E96667" d="M327.8,162c1.6,1.3,3.8,1.9,5.8,1.4c1.5-0.3,2.5-1.5,4.1-1.3c1.7,0.3,2.3,1.2,4.8,1.8
		c1.8,0.4,3.6-0.5,4.9-1.8c2.1-2.3,1.2-3.7,3.3-4.2c1.9-0.4,2.3,3,3.8,4.2c2.9,2.4,7.2,2,9.6-0.9c2.4-2.9,2-7.2-0.9-9.6
		c-1.2-1-2.5-1.2-3.9-1.6c-1.4-0.4-1.8-1.2-2.4-2.5c-0.5-1.2-1.4-2.1-2.2-3.1c-1.5-1.7-1.1-3.3-1.2-5.4c-0.1-1.9-1-3.8-2.4-5
		c-1.5-1.2-3.5-1.8-5.4-1.5c-1.2,0.2-2.5,0.7-3.8,0.5c-1.3-0.3-2.4-1.4-3.6-2c-2.7-1.2-6-0.4-7.9,1.9c-1.2,1.4-1.1,3.5-2.2,5
		c-1.2,1.8-3.7,1.9-5.1,3.6c-1.5,1.9-2,4.4-1.2,6.7c0.8,2.3,3.8,3.4,3.8,6.1C325.6,157.5,325.2,159.8,327.8,162z"/>
	<path fill="none" stroke="#B4474C" stroke-width="1.489" stroke-miterlimit="10" d="M327.8,162c1.6,1.3,3.8,1.9,5.8,1.4
		c1.5-0.3,2.5-1.5,4.1-1.3c1.7,0.3,2.3,1.2,4.8,1.8c1.8,0.4,3.6-0.5,4.9-1.8c2.1-2.3,1.2-3.7,3.3-4.2c1.9-0.4,2.3,3,3.8,4.2
		c2.9,2.4,7.2,2,9.6-0.9c2.4-2.9,2-7.2-0.9-9.6c-1.2-1-2.5-1.2-3.9-1.6c-1.4-0.4-1.8-1.2-2.4-2.5c-0.5-1.2-1.4-2.1-2.2-3.1
		c-1.5-1.7-1.1-3.3-1.2-5.4c-0.1-1.9-1-3.8-2.4-5c-1.5-1.2-3.5-1.8-5.4-1.5c-1.2,0.2-2.5,0.7-3.8,0.5c-1.3-0.3-2.4-1.4-3.6-2
		c-2.7-1.2-6-0.4-7.9,1.9c-1.2,1.4-1.1,3.5-2.2,5c-1.2,1.8-3.7,1.9-5.1,3.6c-1.5,1.9-2,4.4-1.2,6.7c0.8,2.3,3.8,3.4,3.8,6.1
		C325.6,157.5,325.2,159.8,327.8,162z"/>
</g>
<g opacity="0.45" filter="url(#ds1)">
	<path fill="#E96667" d="M462.6,76.5c-2.1,0.2-4,1.4-5.1,3.2c-0.8,1.3-0.6,2.8-1.9,3.9c-1.4,1.1-2.5,0.9-4.6,2.2
		c-1.6,1-2.2,3-2.1,4.8c0.2,3.1,1.9,3.4,0.7,5.3c-1,1.7-3.7-0.4-5.7-0.2c-3.7,0.4-6.5,3.8-6.1,7.5c0.4,3.7,3.8,6.5,7.5,6.1
		c1.6-0.2,2.6-1,3.9-1.7c1.3-0.7,2.1-0.5,3.4,0c1.2,0.4,2.5,0.5,3.8,0.6c2.2,0.1,3.2,1.5,4.7,2.9c1.4,1.3,3.4,1.9,5.3,1.7
		c1.9-0.2,3.7-1.3,4.8-2.8c0.7-1,1.2-2.3,2.3-3.1c1.1-0.8,2.7-0.7,3.9-1.3c2.7-1.2,4.5-4.1,4.1-7c-0.2-1.8-1.8-3.2-2.1-5.1
		c-0.4-2.1,1.1-4,0.9-6.2c-0.3-2.4-1.8-4.5-4-5.5c-2.3-1-5.1,0.4-7-1.5C467.4,78.1,465.9,76.2,462.6,76.5z"/>
	<path fill="none" stroke="#B4474C" stroke-width="1.489" stroke-miterlimit="10" d="M462.6,76.5c-2.1,0.2-4,1.4-5.1,3.2
		c-0.8,1.3-0.6,2.8-1.9,3.9c-1.4,1.1-2.5,0.9-4.6,2.2c-1.6,1-2.2,3-2.1,4.8c0.2,3.1,1.9,3.4,0.7,5.3c-1,1.7-3.7-0.4-5.7-0.2
		c-3.7,0.4-6.5,3.8-6.1,7.5c0.4,3.7,3.8,6.5,7.5,6.1c1.6-0.2,2.6-1,3.9-1.7c1.3-0.7,2.1-0.5,3.4,0c1.2,0.4,2.5,0.5,3.8,0.6
		c2.2,0.1,3.2,1.5,4.7,2.9c1.4,1.3,3.4,1.9,5.3,1.7c1.9-0.2,3.7-1.3,4.8-2.8c0.7-1,1.2-2.3,2.3-3.1c1.1-0.8,2.7-0.7,3.9-1.3
		c2.7-1.2,4.5-4.1,4.1-7c-0.2-1.8-1.8-3.2-2.1-5.1c-0.4-2.1,1.1-4,0.9-6.2c-0.3-2.4-1.8-4.5-4-5.5c-2.3-1-5.1,0.4-7-1.5
		C467.4,78.1,465.9,76.2,462.6,76.5z"/>
</g>
<g opacity="0.45" filter="url(#ds1)">
	<path fill="#E96667" d="M489.6,159.7c1.6-1.4,2.5-3.4,2.4-5.5c-0.1-1.5-1.1-2.7-0.6-4.3c0.5-1.7,1.6-2.1,2.5-4.4
		c0.7-1.7,0.1-3.7-1-5.1c-1.9-2.4-3.5-1.7-3.6-3.9c-0.1-2,3.3-1.8,4.8-3.1c2.8-2.5,3.2-6.8,0.7-9.6c-2.5-2.8-6.8-3.2-9.6-0.7
		c-1.2,1-1.6,2.2-2.2,3.6c-0.7,1.3-1.4,1.6-2.8,2c-1.2,0.4-2.3,1-3.4,1.7c-1.9,1.2-3.4,0.6-5.5,0.3c-1.9-0.2-3.9,0.3-5.3,1.6
		c-1.5,1.3-2.3,3.1-2.4,5.1c0,1.2,0.3,2.6-0.1,3.8c-0.5,1.3-1.8,2.1-2.5,3.3c-1.6,2.5-1.4,5.9,0.6,8.1c1.2,1.4,3.3,1.7,4.6,3
		c1.5,1.5,1.3,3.9,2.8,5.6c1.6,1.8,4.1,2.7,6.4,2.2c2.4-0.5,3.9-3.2,6.6-2.7C484.8,161.2,487,161.9,489.6,159.7z"/>
	<path fill="none" stroke="#B4474C" stroke-width="1.489" stroke-miterlimit="10" d="M489.6,159.7c1.6-1.4,2.5-3.4,2.4-5.5
		c-0.1-1.5-1.1-2.7-0.6-4.3c0.5-1.7,1.6-2.1,2.5-4.4c0.7-1.7,0.1-3.7-1-5.1c-1.9-2.4-3.5-1.7-3.6-3.9c-0.1-2,3.3-1.8,4.8-3.1
		c2.8-2.5,3.2-6.8,0.7-9.6c-2.5-2.8-6.8-3.2-9.6-0.7c-1.2,1-1.6,2.2-2.2,3.6c-0.7,1.3-1.4,1.6-2.8,2c-1.2,0.4-2.3,1-3.4,1.7
		c-1.9,1.2-3.4,0.6-5.5,0.3c-1.9-0.2-3.9,0.3-5.3,1.6c-1.5,1.3-2.3,3.1-2.4,5.1c0,1.2,0.3,2.6-0.1,3.8c-0.5,1.3-1.8,2.1-2.5,3.3
		c-1.6,2.5-1.4,5.9,0.6,8.1c1.2,1.4,3.3,1.7,4.6,3c1.5,1.5,1.3,3.9,2.8,5.6c1.6,1.8,4.1,2.7,6.4,2.2c2.4-0.5,3.9-3.2,6.6-2.7
		C484.8,161.2,487,161.9,489.6,159.7z"/>
</g>
<g opacity="0.45" filter="url(#ds1)">
	<path fill="#E96667" d="M389.3,56.9c2,0.6,4.2,0.2,5.9-1c1.2-0.9,1.6-2.4,3.3-2.8c1.7-0.4,2.6,0.2,5.1-0.3c1.8-0.3,3.1-1.9,3.7-3.6
		c1-2.9-0.4-3.9,1.3-5.1c1.6-1.1,3.3,1.8,5.2,2.4c3.6,1.1,7.4-1,8.5-4.6c1.1-3.6-1-7.4-4.6-8.5c-1.5-0.4-2.7-0.1-4.2,0.1
		c-1.5,0.2-2.1-0.4-3.2-1.3c-1-0.8-2.1-1.4-3.3-1.9c-2-0.9-2.3-2.6-3.2-4.5c-0.8-1.7-2.4-3.1-4.2-3.6c-1.9-0.5-3.9-0.3-5.6,0.8
		c-1,0.7-2,1.7-3.3,2c-1.3,0.3-2.8-0.4-4.1-0.4c-3,0-5.7,2-6.5,4.9c-0.5,1.8,0.4,3.7,0,5.5c-0.4,2.1-2.6,3.3-3.2,5.4
		c-0.7,2.3-0.1,4.9,1.6,6.6c1.7,1.8,4.8,1.6,5.9,4.1C385.5,53.7,386.1,56,389.3,56.9z"/>
	<path fill="none" stroke="#B4474C" stroke-width="1.489" stroke-miterlimit="10" d="M389.3,56.9c2,0.6,4.2,0.2,5.9-1
		c1.2-0.9,1.6-2.4,3.3-2.8c1.7-0.4,2.6,0.2,5.1-0.3c1.8-0.3,3.1-1.9,3.7-3.6c1-2.9-0.4-3.9,1.3-5.1c1.6-1.1,3.3,1.8,5.2,2.4
		c3.6,1.1,7.4-1,8.5-4.6c1.1-3.6-1-7.4-4.6-8.5c-1.5-0.4-2.7-0.1-4.2,0.1c-1.5,0.2-2.1-0.4-3.2-1.3c-1-0.8-2.1-1.4-3.3-1.9
		c-2-0.9-2.3-2.6-3.2-4.5c-0.8-1.7-2.4-3.1-4.2-3.6c-1.9-0.5-3.9-0.3-5.6,0.8c-1,0.7-2,1.7-3.3,2c-1.3,0.3-2.8-0.4-4.1-0.4
		c-3,0-5.7,2-6.5,4.9c-0.5,1.8,0.4,3.7,0,5.5c-0.4,2.1-2.6,3.3-3.2,5.4c-0.7,2.3-0.1,4.9,1.6,6.6c1.7,1.8,4.8,1.6,5.9,4.1
		C385.5,53.7,386.1,56,389.3,56.9z"/>
</g>
<g>
	<g filter="url(#ds1)">
		<rect x="355.8" y="68.2" fill="#FFFFFF" width="94.7" height="27.7"/>
	</g>
	<g>
		<g>
			<path fill="#6D6E70" d="M372.5,84.9v0.8c0,0.8,1.1,1.3,2.3,1.3c1.3,0,2.2-0.6,2.2-1.7c0-1.3-1.3-1.7-2.7-2.3
				c-1.5-0.6-3-1.2-3-3.2c0-2.1,1.7-3,3.6-3c1.7,0,3.4,0.6,3.4,1.9V80h-1.5v-0.8c0-0.7-1-1-1.9-1c-1.1,0-2,0.5-2,1.6
				c0,1.2,1.1,1.6,2.4,2.1c1.7,0.6,3.3,1.3,3.3,3.4c0,2.2-1.8,3.3-3.9,3.3c-1.8,0-3.7-0.8-3.7-2.4v-1.2H372.5z"/>
			<path fill="#6D6E70" d="M381.3,78.2h-1.4V77h4.5v1.2h-1.4v5.8c0,0.7,0.1,1.4,0.4,1.8c0.5,0.7,1.3,1.2,2.4,1.2
				c1.1,0,2-0.4,2.4-1.2c0.3-0.5,0.4-1.1,0.4-1.8v-5.8h-1.4V77h4.4v1.2h-1.4v5.9c0,1.1-0.3,2-0.8,2.8c-0.8,1.1-2.1,1.6-3.7,1.6
				c-1.6,0-2.9-0.6-3.7-1.6c-0.5-0.7-0.8-1.7-0.8-2.8V78.2z"/>
			<path fill="#6D6E70" d="M398.8,76.8c2,0,4.3,0.8,4.3,2.2v1.4h-1.5v-0.8c0-0.9-1.5-1.4-2.8-1.4c-2.6,0-4.3,1.8-4.3,4.4
				c0,2.6,1.7,4.5,4.4,4.5c1,0,3-0.3,3-1.4v-1.5h-2.2v-1.2h3.7v3.2c0,1.7-2.9,2.4-4.6,2.4c-3.5,0-5.9-2.5-5.9-5.9
				C392.9,79.3,395.3,76.8,398.8,76.8z"/>
			<path fill="#6D6E70" d="M404.4,87h1.1l3.6-10.1h1.8l3.6,10.1h1.1v1.2h-3.9V87h1.2l-0.9-2.5h-4l-0.9,2.5h1.2v1.2h-3.9V87z
				 M411.6,83.2l-1.4-3.9c-0.2-0.5-0.2-0.9-0.2-0.9h0c0,0,0,0.4-0.2,0.9l-1.4,3.9H411.6z"/>
			<path fill="#6D6E70" d="M416.6,87h1.4v-8.8h-1.4V77h4.9c0.8,0,1.5,0,2.1,0.2c1.2,0.4,2,1.4,2,2.9c0,1.6-0.9,2.8-2.3,3.2v0
				c0,0,0.3,0.2,0.5,0.5l1.6,2.8c0.2,0.3,0.4,0.4,0.8,0.4h0.3v1.2h-1c-1,0-1.2-0.2-1.6-0.8l-1.7-3.1c-0.3-0.5-0.5-0.6-1.2-0.6h-1.3
				V87h1.4v1.2h-4.4V87z M421.9,82.4c1.2,0,2-0.8,2-2.1c0-0.9-0.4-1.5-1.1-1.8c-0.4-0.1-0.8-0.2-1.4-0.2h-1.9v4.1H421.9z"/>
			<path fill="#6D6E70" d="M429.3,84.9v0.8c0,0.8,1.1,1.3,2.3,1.3c1.3,0,2.2-0.6,2.2-1.7c0-1.3-1.3-1.7-2.7-2.3
				c-1.5-0.6-3-1.2-3-3.2c0-2.1,1.7-3,3.6-3c1.7,0,3.4,0.6,3.4,1.9V80h-1.5v-0.8c0-0.7-1-1-1.9-1c-1.1,0-2,0.5-2,1.6
				c0,1.2,1.1,1.6,2.4,2.1c1.7,0.6,3.3,1.3,3.3,3.4c0,2.2-1.8,3.3-3.9,3.3c-1.8,0-3.7-0.8-3.7-2.4v-1.2H429.3z"/>
		</g>
	</g>
</g>
<g opacity="0.45">
	<g>
		<path fill="none" stroke="#FFFFFF" stroke-width="2" stroke-miterlimit="10" d="M393.5,492c30.8,0,55.8,25,55.8,55.8
			c0,30.8-25,55.8-55.8,55.8c-30.8,0-55.8-25-55.8-55.8c0-25.2,16.7-46.5,39.6-53.4"/>
		<g>
			<circle fill="#FFFFFF" cx="393.5" cy="492" r="4.7"/>
		</g>
		<g>
			<polygon fill="#FFFFFF" points="384.1,492.3 375.7,499.1 376.8,494.5 373.4,491.3 			"/>
		</g>
	</g>
</g>
<g opacity="0.45">
	<circle fill="#6D6E70" cx="393.5" cy="548.8" r="29.4"/>
	<g>
		<g>
			<path fill="#E8E8E8" d="M379.1,532.9c0.9,0,2.8,0.3,2.8,1.4v1h-1.2v-0.5c0-0.5-0.9-0.7-1.5-0.7c-1.4,0-2.4,1-2.4,2.5
				c0,1.6,1,2.6,2.4,2.6c0.4,0,1.5-0.1,1.5-0.7v-0.5h1.2v1c0,1.1-1.8,1.4-2.8,1.4c-2.2,0-3.7-1.6-3.7-3.7
				C375.5,534.5,377.1,532.9,379.1,532.9z"/>
			<path fill="#E8E8E8" d="M383,539.2h0.8V534H383v-1h3v1h-0.9v5.1h0.9v1h-3V539.2z"/>
			<path fill="#E8E8E8" d="M388.4,539.2h0.8v-5.1h-1.3v1.1h-1.1v-2.1h6.2v2.1h-1.1v-1.1h-1.3v5.1h0.9v1h-3V539.2z"/>
			<path fill="#E8E8E8" d="M393.8,539.2h0.8V534h-0.8v-1h3.1c0.5,0,0.9,0,1.3,0.1c0.8,0.3,1.3,0.9,1.3,1.9c0,1-0.5,1.7-1.3,2v0
				l0.1,0.1c0.1,0.1,0.2,0.2,0.2,0.3l0.8,1.5c0.1,0.2,0.2,0.2,0.5,0.2h0.2v1h-0.8c-0.6,0-0.8-0.1-1-0.5l-1-1.8
				c-0.2-0.3-0.3-0.4-0.7-0.4h-0.7v1.7h0.8v1h-3V539.2z M397.1,536.4c0.7,0,1.1-0.4,1.1-1.2c0-0.5-0.2-0.8-0.6-1
				c-0.2-0.1-0.5-0.1-0.8-0.1h-1v2.3H397.1z"/>
			<path fill="#E8E8E8" d="M400.9,539.2h0.8V534h-0.8v-1h3v1h-0.9v5.1h0.9v1h-3V539.2z"/>
			<path fill="#E8E8E8" d="M408.6,532.9c0.9,0,2.8,0.3,2.8,1.4v1h-1.2v-0.5c0-0.5-0.9-0.7-1.5-0.7c-1.4,0-2.4,1-2.4,2.5
				c0,1.6,1,2.6,2.4,2.6c0.4,0,1.5-0.1,1.5-0.7v-0.5h1.2v1c0,1.1-1.8,1.4-2.8,1.4c-2.2,0-3.7-1.6-3.7-3.7
				C404.9,534.5,406.5,532.9,408.6,532.9z"/>
			<path fill="#E8E8E8" d="M380.4,551.2h0.7l2.1-6.1h1.5l2.1,6.1h0.7v1h-2.7v-1h0.7l-0.4-1.3h-2.2l-0.4,1.3h0.7v1h-2.7V551.2z
				 M384.7,548.8l-0.7-2l-0.1-0.4c0-0.1,0-0.1,0-0.2h0l0,0.2c0,0.1-0.1,0.2-0.1,0.4l-0.7,2H384.7z"/>
			<path fill="#E8E8E8" d="M391.5,544.9c0.9,0,2.8,0.3,2.8,1.4v1h-1.2v-0.5c0-0.5-0.9-0.7-1.5-0.7c-1.4,0-2.4,1-2.4,2.5
				c0,1.6,1,2.6,2.4,2.6c0.4,0,1.5-0.1,1.5-0.7v-0.5h1.2v1c0,1.1-1.8,1.4-2.8,1.4c-2.2,0-3.7-1.6-3.7-3.7
				C387.8,546.5,389.4,544.9,391.5,544.9z"/>
			<path fill="#E8E8E8" d="M395.4,551.2h0.8V546h-0.8v-1h3v1h-0.9v5.1h0.9v1h-3V551.2z"/>
			<path fill="#E8E8E8" d="M399.4,551.2h0.8V546h-0.8v-1h3.1c0.6,0,1,0,1.5,0.2c1.4,0.4,2.3,1.6,2.3,3.4c0,1.7-0.8,2.9-2.2,3.3
				c-0.5,0.2-1,0.2-1.6,0.2h-3.1V551.2z M402.4,551.1c0.4,0,0.8,0,1.2-0.2c0.8-0.3,1.3-1.1,1.3-2.3c0-1.2-0.5-2-1.4-2.3
				c-0.4-0.2-0.7-0.2-1.1-0.2h-0.9v5H402.4z"/>
			<path fill="#E8E8E8" d="M380.6,556.9c0.9,0,2.8,0.3,2.8,1.4v1h-1.2v-0.5c0-0.5-0.9-0.7-1.5-0.7c-1.4,0-2.4,1-2.4,2.5
				c0,1.6,1,2.6,2.4,2.6c0.4,0,1.5-0.1,1.5-0.7v-0.5h1.2v1c0,1.1-1.8,1.4-2.8,1.4c-2.2,0-3.7-1.6-3.7-3.7
				C377,558.5,378.6,556.9,380.6,556.9z"/>
			<path fill="#E8E8E8" d="M385.8,563.2h0.9v-2l-1.9-3.1h-0.7v-1h2.6v1H386l1.1,1.9c0.1,0.1,0.1,0.2,0.1,0.2c0,0,0,0.1,0,0.1h0
				c0,0,0-0.1,0-0.1c0-0.1,0.1-0.1,0.1-0.2l1.1-1.9h-0.7v-1h2.6v1h-0.6l-1.9,3.1v2h0.8v1h-3V563.2z"/>
			<path fill="#E8E8E8" d="M394.5,556.9c0.9,0,2.8,0.3,2.8,1.4v1h-1.2v-0.5c0-0.5-0.9-0.7-1.5-0.7c-1.4,0-2.4,1-2.4,2.5
				c0,1.6,1,2.6,2.4,2.6c0.4,0,1.5-0.1,1.5-0.7v-0.5h1.2v1c0,1.1-1.8,1.4-2.8,1.4c-2.2,0-3.7-1.6-3.7-3.7
				C390.8,558.5,392.4,556.9,394.5,556.9z"/>
			<path fill="#E8E8E8" d="M398.4,563.2h0.8v-5.1h-0.8v-1h3v1h-0.9v5h2.1V562h1.1v2.1h-5.4V563.2z"/>
			<path fill="#E8E8E8" d="M404.5,563.2h0.8V558h-0.8v-1h5.3v1.8h-1.1v-0.8h-2v1.9h2.3v1h-2.3v2h2.1v-0.8h1.1v1.8h-5.4V563.2z"/>
		</g>
	</g>
	<circle fill="#6D6E70" cx="437" cy="504.3" r="19"/>
	<circle fill="#6D6E70" cx="437" cy="591.3" r="19"/>
	<circle fill="#6D6E70" cx="350" cy="591.3" r="19"/>
	<circle fill="#6D6E70" cx="350" cy="504.3" r="19"/>
	<g>
		<g>
			<path fill="#E8E8E8" d="M434.7,507.3h1.9v-4.8c0-0.1,0-0.3,0-0.4V502h0l-0.1,0.1c-0.1,0.1-0.1,0.2-0.3,0.3l-0.7,0.6l-0.9-1
				l2.1-2.1h1.4v7.3h1.8v1.3h-5.2V507.3z"/>
		</g>
	</g>
	<g>
		<g>
			<path fill="#E8E8E8" d="M434.2,595.3c0-0.3-0.1-0.5-0.1-0.8c0-3.1,4.1-3.5,4.1-5.3c0-0.8-0.6-1.2-1.3-1.2c-0.5,0-0.9,0.3-1.2,0.5
				c-0.2,0.2-0.3,0.3-0.4,0.5l-1.1-0.7c0.2-0.3,0.4-0.6,0.6-0.9c0.5-0.4,1.2-0.9,2.2-0.9c1.5,0,2.8,0.9,2.8,2.5c0,2.7-3.9,3.1-4,4.9
				h2.9V593h1.3v2.3H434.2z"/>
		</g>
	</g>
	<g>
		<g>
			<path fill="#E8E8E8" d="M346.6,505.5l3.7-5.4h1.8v5.1h1.1v1.2h-1.1v2.2h-1.5v-2.2h-4V505.5z M348.2,505.2L348.2,505.2l2.4,0v-2.8
				c0-0.2,0-0.3,0-0.5l0-0.3h0l-0.1,0.2c-0.1,0.1-0.1,0.3-0.2,0.4L348.2,505.2z"/>
		</g>
	</g>
	<g>
		<g>
			<path fill="#E8E8E8" d="M347.2,586.8h5.4v1.1l-2,2.4c1.1,0.2,2.2,0.9,2.2,2.4c0,1.5-1.1,2.8-3,2.8c-0.9,0-1.6-0.3-2.1-0.6
				c-0.3-0.2-0.5-0.4-0.7-0.6l0.8-1.1c0.2,0.2,0.3,0.3,0.6,0.4c0.3,0.2,0.8,0.4,1.4,0.4c0.9,0,1.5-0.6,1.5-1.4
				c0-0.9-0.7-1.3-1.7-1.3c-0.2,0-0.4,0-0.5,0l-0.3-0.8l1.8-2.3c0.1-0.1,0.2-0.2,0.2-0.2l0.1-0.1v0c-0.1,0-0.1,0-0.2,0
				c-0.1,0-0.2,0-0.3,0h-1.9v1h-1.3V586.8z"/>
		</g>
	</g>
</g>
</svg>
