<!-- Generator: Adobe Illustrator 22.0.1, SVG Export Plug-In  -->
<svg version="1.1"
	 xmlns="http://www.w3.org/2000/svg" xmlns:xlink="http://www.w3.org/1999/xlink" xmlns:a="http://ns.adobe.com/AdobeSVGViewerExtensions/3.0/"
	 x="0px" y="0px" width="94.2px" height="38.2px" viewBox="0 0 94.2 38.2" style="enable-background:new 0 0 94.2 38.2;"
	 xml:space="preserve">
<style type="text/css">
	.st0{fill:#FFFFFF;}
</style>
<defs>
</defs>
<g>
	<g>
		<path class="st0" d="M0,5.6c4,0.2,8.1,0.1,12.3-0.2c4.2-0.3,8.3-0.8,12.5-1.4c8.4-1.2,16.9-2.7,25.6-3.5c4.3-0.4,8.8-0.6,13.3-0.2
			c2.2,0.2,4.5,0.6,6.7,1.2c2.2,0.6,4.4,1.6,6.4,2.8c4,2.4,7.2,6,9.3,10c2.1,4.1,3.2,8.4,4.1,12.7l-3.5,0.6
			c-0.7-4.1-1.8-8.1-3.7-11.6c-1.9-3.5-4.7-6.4-8.2-8.3C71.3,5.8,67.3,5,63.3,4.9c-4-0.2-8.2,0.2-12.3,0.8
			c-8.3,1.2-16.5,3.3-24.9,5.1c-4.2,0.9-8.5,1.8-12.8,2.5C8.9,14,4.5,14.6,0,14.8V5.6z"/>
		<g>
			<polygon class="st0" points="80.7,23.1 87.9,25 94.2,21.2 89.7,38.2 			"/>
		</g>
	</g>
</g>
</svg>
