<svg id="Diagram" xmlns="http://www.w3.org/2000/svg" viewBox="0 0 640 736">
  <defs>
    <style>
      .cls-1 {
        fill: #329fd6;
      }

      .cls-2 {
        fill: #fc0;
      }

      .cls-3 {
        fill: #67b8ef;
      }

      .cls-4 {
        fill: #067dc6;
      }

      .cls-5 {
        fill: #0573aa;
      }

      .cls-6 {
        fill: #59acea;
      }

      .cls-7 {
        fill: #058dc9;
      }

      .cls-8 {
        fill: #69ceed;
      }

      .cls-9 {
        fill: #009245;
      }

      .cls-10 {
        fill: #006837;
      }

      .cls-11, .cls-13 {
        fill: #6aea60;
      }

      .cls-12 {
        fill: #39b54a;
        stroke: #009245;
      }

      .cls-12, .cls-13, .cls-17, .cls-19, .cls-20, .cls-23, .cls-40 {
        stroke-miterlimit: 10;
      }

      .cls-12, .cls-17, .cls-20, .cls-23 {
        stroke-width: 2px;
      }

      .cls-13 {
        stroke: #39b54a;
      }

      .cls-13, .cls-40 {
        stroke-width: 3px;
      }

      .cls-14 {
        fill: #ff3951;
      }

      .cls-15 {
        fill: #7eea75;
      }

      .cls-16 {
        fill: #fff;
      }

      .cls-17, .cls-19, .cls-20, .cls-23, .cls-40 {
        fill: none;
      }

      .cls-17, .cls-19, .cls-20 {
        stroke: #ff3b30;
      }

      .cls-17, .cls-19, .cls-23, .cls-40 {
        stroke-linecap: round;
      }

      .cls-18 {
        fill: #ff3b30;
      }

      .cls-21 {
        fill: #ff5e3e;
      }

      .cls-22 {
        fill: #ff1f1f;
      }

      .cls-23 {
        stroke: #fff;
      }

      .cls-24, .cls-36 {
        fill: #05373f;
      }

      .cls-24 {
        opacity: 0.5;
      }

      .cls-25 {
        fill: #00607a;
      }

      .cls-26 {
        fill: #0f9389;
      }

      .cls-27 {
        fill: #084b5b;
      }

      .cls-28 {
        fill: #10a098;
      }

      .cls-29 {
        fill: #074756;
      }

      .cls-30 {
        fill: #26bcbc;
      }

      .cls-31 {
        fill: #7ddbd8;
      }

      .cls-32 {
        fill: #d0f7f4;
      }

      .cls-33 {
        fill: #b4eeeb;
      }

      .cls-34 {
        fill: #029bb5;
      }

      .cls-35 {
        fill: #60d1cf;
      }

      .cls-36 {
        opacity: 0.4;
      }

      .cls-38 {
        fill: #fff9e8;
        opacity: 0.8;
      }

      .cls-39 {
        fill: #b36918;
      }

      .cls-40 {
        stroke: #b36918;
      }

      .cls-41 {
        opacity: 0;
      }

      .cls-42 {
        fill: #ed3818;
      }

      .cls-43 {
        fill: #dd224f;
      }

      .clickable {
        cursor: pointer;
      }
    </style>
  </defs>
  <title>Types Of Memory Diagram</title>
  <rect class="cls-1" y="118.71" width="640" height="419.12"/>
  <g id="LTM_Bottom" data-name="LTM Bottom" class="clickable">
    <path class="cls-2" d="M640,736.08H0v-219q67.73,12.23,135.39,19.3l15.89-33.44a1769.32,1769.32,0,0,0,342.92-.44L510,535.89q65.05-7,130-18.83v219Z"/>
    <g id="Long_Term_Memory_Label" data-name="Long Term Memory Label">
      <path class="cls-39" d="M162.7,519.84l-1.39,15.46,5.3,0.48-0.23,2.56-8-.72,1.62-18Z"/>
      <path class="cls-39" d="M172.77,529.74a8.86,8.86,0,0,1,3.31-6.32,9.22,9.22,0,0,1,6.9-2.21,9.46,9.46,0,0,1,8.64,10.12,8.9,8.9,0,0,1-3.3,6.38,9.56,9.56,0,0,1-13-.72A8.89,8.89,0,0,1,172.77,529.74Zm2.74,0.25a6.54,6.54,0,0,0,1.62,5.08,6.68,6.68,0,0,0,9.41.7,7,7,0,0,0,.78-9.67,6.75,6.75,0,0,0-9.5-.75A6.53,6.53,0,0,0,175.51,530Z"/>
      <path class="cls-39" d="M199.06,540.9l1.24-19.28,12.28,14.62,0.81-12.55,2.73,0.18L214.89,543,202.6,528.43l-0.81,12.64Z"/>
      <path class="cls-39" d="M234,533.5l7.47,0.37,0,0.6a12.37,12.37,0,0,1-.66,3.58,7.66,7.66,0,0,1-1.72,2.64,8.2,8.2,0,0,1-6.54,2.51,8.81,8.81,0,0,1-6.36-3.06,9.42,9.42,0,0,1,7.54-15.69,9.18,9.18,0,0,1,3.91,1.06,11.42,11.42,0,0,1,3.31,3l-2,1.76A6.61,6.61,0,0,0,233.6,527a6.49,6.49,0,0,0-4.91,1.74,6.62,6.62,0,0,0-2.19,4.77,6.8,6.8,0,0,0,6.21,7.12,5.46,5.46,0,0,0,3.68-1.18,4.84,4.84,0,0,0,2-3.19l-4.51-.23Z"/>
      <path class="cls-39" d="M247.28,536.58l5.22,0.21-0.09,2.29-5.22-.21Z"/>
      <path class="cls-39" d="M264.93,528.65l-0.51,15.52-2.73-.09,0.51-15.52-4.16-.14,0.08-2.56,11,0.36-0.08,2.56Z"/>
      <path class="cls-39" d="M286.12,529.2l-7.25-.17-0.1,4.35,7,0.16-0.06,2.57-7-.16-0.14,6,7.25,0.17-0.06,2.57-10-.23,0.41-18.09,10,0.23Z"/>
      <path class="cls-39" d="M300.33,537.23l5.51,7.78-3.34,0-5.08-7.47h-0.49l-0.09,7.41-2.73,0,0.22-18.09,3.2,0q3.59,0,5.16,1.41a5,5,0,0,1,1.71,4,5.14,5.14,0,0,1-1.14,3.29A4.91,4.91,0,0,1,300.33,537.23ZM297,535.12h0.87q3.88,0,3.91-2.92,0-2.78-3.74-2.82h-1Z"/>
      <path class="cls-39" d="M312.67,545.07l3.79-19.46,6.23,14.06,6.42-14.07L332.55,545h-2.8L328,534.13l-5.34,11.76-5.22-11.76-1.93,10.94h-2.82Z"/>
      <path class="cls-39" d="M352.67,544.8L356,525.26l6.54,13.91,6.1-14.21,3.88,19.37-2.8.07-2-10.88-5.07,11.88-5.48-11.64-1.68,11Z"/>
      <path class="cls-39" d="M390.5,528.15l-7.25.27,0.16,4.34,7-.26,0.09,2.56-7,.26,0.22,6,7.25-.27,0.09,2.56-10,.37-0.67-18.08,10-.37Z"/>
      <path class="cls-39" d="M398.77,543.36l2.83-19.62,6.91,13.74,5.72-14.37,4.39,19.26-2.8.14-2.29-10.82-4.76,12L403,532.2l-1.4,11Z"/>
      <path class="cls-39" d="M425.69,532.81a8.86,8.86,0,0,1,2.37-6.73,9.22,9.22,0,0,1,6.51-3.17,9.46,9.46,0,0,1,10,8.78,8.9,8.9,0,0,1-2.35,6.79,9.56,9.56,0,0,1-13,1.15A8.89,8.89,0,0,1,425.69,532.81Zm2.75-.14a6.54,6.54,0,0,0,2.33,4.79,6.68,6.68,0,0,0,9.41-.65,7,7,0,0,0-.61-9.68,6.39,6.39,0,0,0-4.88-1.65,6.45,6.45,0,0,0-4.63,2.28A6.53,6.53,0,0,0,428.44,532.67Z"/>
      <path class="cls-39" d="M458.82,531.91l6.19,7.25-3.33.26-5.73-7-0.49,0,0.58,7.38-2.72.21-1.41-18,3.19-.25q3.57-.28,5.27.94a5,5,0,0,1,2.06,3.81,5.14,5.14,0,0,1-.84,3.38A4.91,4.91,0,0,1,458.82,531.91Zm-3.55-1.8,0.87-.07q3.87-.3,3.64-3.26-0.22-2.77-4-2.47l-1,.08Z"/>
      <path class="cls-39" d="M474.62,530.49l-6.79-9.71,3.13-.28,4.76,6.84,3.49-7.57,3.13-.28-5,10.76L478,538l-2.72.24Z"/>
    </g>
  </g>
  <g id="STM_Container" data-name="STM Container" class="clickable">
    <path class="cls-9" d="M587.53,448.32H385.25a15,15,0,0,0-15-15V222a15,15,0,0,0,15-15H587.53a15,15,0,0,0,15,15V433.32A15,15,0,0,0,587.53,448.32Z"/>
    <path id="STM_Shadow" data-name="STM Shadow" class="cls-10" d="M542.36,334.73a23,23,0,0,0-7.67.29A5.35,5.35,0,0,1,529,332.4h0a5.36,5.36,0,0,1,.57-6.23,23.55,23.55,0,0,0,5.3-21,23.75,23.75,0,0,0-10.7-14.78A23.59,23.59,0,0,0,489.5,303a5.42,5.42,0,0,1-10.22,0,23.31,23.31,0,0,0-1.93-4.3A23.61,23.61,0,0,0,458.71,287a22.7,22.7,0,0,0-9.67,1.27,23.65,23.65,0,0,0-12.61,34.12,23.31,23.31,0,0,0,2.76,3.83,5.36,5.36,0,0,1,.57,6.23h0a5.35,5.35,0,0,1-5.67,2.62,23,23,0,0,0-7.67-.3,23.62,23.62,0,0,0,3,47.06,23.06,23.06,0,0,0,4.67-.48,5.36,5.36,0,0,1,5.7,2.62h0a5.36,5.36,0,0,1-.57,6.23,23.29,23.29,0,0,0-2.76,3.82,23.64,23.64,0,0,0-.62,22.53,22.35,22.35,0,0,0,5.24,6.84,23.6,23.6,0,0,0,22,5.26,23.55,23.55,0,0,0,16.28-15.31,5.42,5.42,0,0,1,10.22,0,23.56,23.56,0,0,0,16.28,15.31,23.6,23.6,0,0,0,22-5.28,22.37,22.37,0,0,0,5.24-6.86,23.63,23.63,0,0,0-.63-22.5,23.31,23.31,0,0,0-2.76-3.83,5.36,5.36,0,0,1-.57-6.23h0a5.36,5.36,0,0,1,5.7-2.62,23,23,0,0,0,4.67.48A23.62,23.62,0,0,0,542.36,334.73Zm-24.21,14.1a8.8,8.8,0,1,1,3.22-12A8.8,8.8,0,0,1,518.15,348.83Zm3.22,30.68a8.8,8.8,0,1,1-3.22-12A8.8,8.8,0,0,1,521.37,379.52Zm-37-64.06a8.8,8.8,0,1,1-8.8,8.8A8.8,8.8,0,0,1,484.39,315.46Zm-21.74,30.15a8.8,8.8,0,1,1-3.22-12A8.8,8.8,0,0,1,462.65,345.61Zm-3.22,37.13a8.8,8.8,0,1,1,3.22-12A8.8,8.8,0,0,1,459.43,382.74Zm25,18.13a8.8,8.8,0,1,1,8.8-8.8A8.8,8.8,0,0,1,484.39,400.87Z"/>
    <g id="STM">
      <path class="cls-11" d="M544.36,331.73a23,23,0,0,0-7.67.29A5.35,5.35,0,0,1,531,329.4h0a5.36,5.36,0,0,1,.57-6.23,23.55,23.55,0,0,0,5.3-21,23.75,23.75,0,0,0-10.7-14.78A23.59,23.59,0,0,0,491.5,300a5.42,5.42,0,0,1-10.22,0,23.31,23.31,0,0,0-1.93-4.3A23.61,23.61,0,0,0,460.71,284a22.7,22.7,0,0,0-9.67,1.27,23.65,23.65,0,0,0-12.61,34.12,23.3,23.3,0,0,0,2.76,3.83,5.36,5.36,0,0,1,.57,6.23h0a5.35,5.35,0,0,1-5.67,2.62,23,23,0,0,0-7.67-.3,23.62,23.62,0,0,0,3,47.06,23.06,23.06,0,0,0,4.67-.48,5.36,5.36,0,0,1,5.7,2.62h0a5.36,5.36,0,0,1-.57,6.23,23.3,23.3,0,0,0-2.76,3.82,23.64,23.64,0,0,0-.62,22.53,22.35,22.35,0,0,0,5.24,6.84,23.6,23.6,0,0,0,22,5.26,23.55,23.55,0,0,0,16.28-15.31,5.42,5.42,0,0,1,10.22,0,23.56,23.56,0,0,0,16.28,15.31,23.6,23.6,0,0,0,22-5.28,22.37,22.37,0,0,0,5.24-6.86,23.63,23.63,0,0,0-.63-22.5,23.31,23.31,0,0,0-2.76-3.83,5.36,5.36,0,0,1-.57-6.23h0a5.36,5.36,0,0,1,5.7-2.62,23,23,0,0,0,4.67.48A23.62,23.62,0,0,0,544.36,331.73Zm-58-19.27a8.8,8.8,0,1,1-8.8,8.8A8.8,8.8,0,0,1,486.39,312.46Zm-25,67.28a8.8,8.8,0,1,1,3.22-12A8.8,8.8,0,0,1,461.43,379.74Zm3.22-37.13a8.8,8.8,0,1,1-3.22-12A8.8,8.8,0,0,1,464.65,342.61Zm21.74,55.26a8.8,8.8,0,1,1,8.8-8.8A8.8,8.8,0,0,1,486.39,397.87Zm37-21.35a8.8,8.8,0,1,1-3.22-12A8.8,8.8,0,0,1,523.37,376.52Zm-3.22-30.68a8.8,8.8,0,1,1,3.22-12A8.8,8.8,0,0,1,520.15,345.83Z"/>
      <circle class="cls-12" cx="431.38" cy="355.16" r="14.28"/>
      <circle class="cls-12" cx="541.39" cy="355.16" r="14.28"/>
      <circle class="cls-12" cx="513.89" cy="307.53" r="14.28" transform="translate(-9.38 598.81) rotate(-60)"/>
      <circle class="cls-12" cx="458.89" cy="402.8" r="14.28" transform="translate(-119.39 598.81) rotate(-60)"/>
      <circle class="cls-12" cx="513.89" cy="402.8" r="14.28" transform="translate(-132.55 310.91) rotate(-30)"/>
      <circle class="cls-12" cx="458.89" cy="307.53" r="14.28" transform="translate(-92.29 270.64) rotate(-30)"/>
      <polygon class="cls-13" points="503.71 355.15 495.05 370.15 477.73 370.15 469.07 355.15 477.73 340.15 495.05 340.15 503.71 355.15"/>
      <circle id="STM6" class="cls-14" cx="458.89" cy="402.8" r="12.98"/>
      <circle id="STM5" class="cls-14" cx="513.89" cy="402.8" r="12.98"/>
      <circle id="STM4" class="cls-14" cx="541.39" cy="355.15" r="12.98"/>
      <circle id="STM3" class="cls-14" cx="513.89" cy="307.53" r="12.98"/>
      <circle id="STM2" class="cls-14" cx="458.89" cy="307.53" r="12.98"/>
      <circle id="STM1" class="cls-14" cx="431.38" cy="355.16" r="12.98"/>
    </g>
    <g id="STM_Label" data-name="STM Label">
      <path class="cls-15" d="M401.49,226.37l-2.21,1.31a3.81,3.81,0,0,0-1.18-1.41,2.76,2.76,0,0,0-1.51-.37,2.79,2.79,0,0,0-1.89.64,2,2,0,0,0-.75,1.59q0,1.32,2,2.13l1.8,0.74a7.7,7.7,0,0,1,3.22,2.17,4.9,4.9,0,0,1,1,3.15,5.53,5.53,0,0,1-1.66,4.13,5.71,5.71,0,0,1-4.16,1.64,5.57,5.57,0,0,1-3.89-1.39,6.42,6.42,0,0,1-1.89-3.93l2.77-.61a4.7,4.7,0,0,0,.66,2.2,3.12,3.12,0,0,0,4.58.32,3,3,0,0,0,.84-2.17,3,3,0,0,0-.15-1,2.45,2.45,0,0,0-.46-0.81,3.65,3.65,0,0,0-.8-0.69,7.73,7.73,0,0,0-1.17-.62l-1.75-.73q-3.71-1.57-3.71-4.59a4.36,4.36,0,0,1,1.56-3.41,5.63,5.63,0,0,1,3.88-1.38A5.42,5.42,0,0,1,401.49,226.37Z"/>
      <path class="cls-15" d="M412.78,230.76h7.8v-7.08h2.73v18.09h-2.73v-8.45h-7.8v8.45h-2.73V223.68h2.73v7.08Z"/>
      <path class="cls-15" d="M431.54,232.64a8.86,8.86,0,0,1,2.8-6.56,9.22,9.22,0,0,1,6.7-2.74,9.46,9.46,0,0,1,9.41,9.41,8.9,8.9,0,0,1-2.79,6.62,9.56,9.56,0,0,1-13.05.3A8.89,8.89,0,0,1,431.54,232.64Zm2.75,0a6.54,6.54,0,0,0,2,4.93,6.68,6.68,0,0,0,9.43,0,7,7,0,0,0,0-9.7,6.75,6.75,0,0,0-9.53,0A6.53,6.53,0,0,0,434.29,232.68Z"/>
      <path class="cls-15" d="M464.78,234.06l5.6,7.71H467l-5.17-7.41h-0.49v7.41h-2.73V223.68h3.2q3.59,0,5.18,1.35a5,5,0,0,1,1.76,4,5.14,5.14,0,0,1-1.1,3.3A4.91,4.91,0,0,1,464.78,234.06Zm-3.4-2.07h0.87q3.88,0,3.88-3,0-2.78-3.77-2.78h-1V232Z"/>
      <path class="cls-15" d="M482.6,226.24v15.53h-2.73V226.24h-4.16v-2.57h11v2.57H482.6Z"/>
      <path class="cls-15" d="M491.62,234.82h5.23v2.3h-5.23v-2.3Z"/>
      <path class="cls-15" d="M508.6,226.24v15.53h-2.73V226.24h-4.16v-2.57h11v2.57H508.6Z"/>
      <path class="cls-15" d="M529.92,226.24h-7.25v4.35h7v2.57h-7v6h7.25v2.57h-10V223.68h10v2.57Z"/>
      <path class="cls-15" d="M544.46,234.06l5.6,7.71h-3.34l-5.17-7.41h-0.49v7.41h-2.73V223.68h3.2q3.59,0,5.18,1.35a5,5,0,0,1,1.76,4,5.14,5.14,0,0,1-1.1,3.3A4.91,4.91,0,0,1,544.46,234.06Zm-3.4-2.07h0.87q3.88,0,3.88-3,0-2.78-3.77-2.78h-1V232Z"/>
      <path class="cls-15" d="M557.09,241.77l3.81-19.45,6.21,14.06,6.43-14.06L577,241.77h-2.8l-1.75-10.92-5.36,11.75-5.2-11.77-1.95,10.93h-2.82Z"/>
      <path class="cls-15" d="M419.47,270.57l3.81-19.45,6.21,14.06,6.43-14.06,3.42,19.45h-2.8l-1.75-10.92-5.36,11.75-5.2-11.77-1.95,10.93h-2.82Z"/>
      <path class="cls-15" d="M457.58,255h-7.25v4.35h7V262h-7v6h7.25v2.57h-10V252.48h10V255Z"/>
      <path class="cls-15" d="M465,270.57l3.81-19.45L475,265.18l6.43-14.06,3.42,19.45h-2.8l-1.75-10.92L475,271.4l-5.2-11.77-1.95,10.93H465Z"/>
      <path class="cls-15" d="M492,261.44a8.86,8.86,0,0,1,2.8-6.56,9.22,9.22,0,0,1,6.7-2.74,9.46,9.46,0,0,1,9.41,9.41,8.9,8.9,0,0,1-2.79,6.62,9.56,9.56,0,0,1-13.05.3A8.89,8.89,0,0,1,492,261.44Zm2.75,0a6.54,6.54,0,0,0,2,4.93,6.68,6.68,0,0,0,9.43,0,7,7,0,0,0,0-9.7,6.75,6.75,0,0,0-9.53,0A6.53,6.53,0,0,0,494.77,261.48Z"/>
      <path class="cls-15" d="M525.26,262.86l5.6,7.71h-3.34l-5.17-7.41h-0.49v7.41h-2.73V252.48h3.2q3.59,0,5.18,1.35a5,5,0,0,1,1.76,4,5.14,5.14,0,0,1-1.1,3.3A4.91,4.91,0,0,1,525.26,262.86Zm-3.4-2.07h0.87q3.88,0,3.88-3,0-2.78-3.77-2.78h-1v5.74Z"/>
      <path class="cls-15" d="M541.21,262.75l-5.91-10.28h3.14l4.14,7.23,4.15-7.23h3.14l-5.93,10.28v7.82h-2.73v-7.82Z"/>
    </g>
  </g>
  <g id="SM_Container" data-name="SM Container" class="clickable">
    <path class="cls-16" d="M0,0V119.1a25.81,25.81,0,0,1,12.8,3.1l38.4,22.58c7,4.14,18.56,4.14,25.6,0l38.4-22.58c7-4.14,18.56-4.14,25.6,0l38.4,22.58c7,4.14,18.56,4.14,25.6,0l38.4-22.58c7-4.14,18.56-4.14,25.6,0l38.4,22.58c7,4.14,18.56,4.14,25.6,0l38.4-22.58c7-4.14,18.56-4.14,25.6,0l38.4,22.58c7,4.14,18.56,4.14,25.6,0l38.4-22.58c7-4.14,18.56-4.14,25.6,0l38.4,22.58c7,4.14,18.56,4.14,25.6,0l38.4-22.58a25.81,25.81,0,0,1,12.8-3.1V0H0Z"/>
    <g id="Ear">
      <path class="cls-17" d="M556,47.64c-0.28-8.17-.12-16.07,6-22.22a27.89,27.89,0,0,1,20.67-7.8c15.91,0.76,24.12,12.9,22.86,27.82-1.32,15.66-6.58,26.72-12.4,36.12C589.68,87.22,583,98.62,570.29,98c-6.29-.29-10.12-2.82-12.23-6.59S556,81.72,557.81,79"/>
      <path class="cls-17" d="M582.4,74.47a12.9,12.9,0,0,1-9.32,5.07,5.89,5.89,0,0,1-4.71-10c2.64-2.76,8.64-4,12.23-2.86"/>
      <path class="cls-17" d="M576.68,59c-4-.38-7.36-3.29-9.13-6.84-2.72-5.48-3.7-11.87-.75-17.48,5.44-10.35,18.81-11.73,27.41-4.66,12.23,10.06,1.59,37.38-5.6,47.67"/>
      <path class="cls-18" d="M569.34,68.46c-3.26,1.79-2.13,9.23,1.31,9.86,5,0.92,5.62-10.35.22-10.24A3.24,3.24,0,0,0,569.34,68.46Z"/>
      <path class="cls-19" d="M574,66.64c2.44,1.16,4.89,5.41,3.3,8.89"/>
      <path class="cls-19" d="M573.55,31.83c2-1.64,4.89-2.72,9-2.48,14.1,0.81,14.41,16.44,12.93,20.17"/>
      <path class="cls-19" d="M593.47,44.36c-0.55-4.94-2.29-7.4-4.84-9.65C587,33.25,582,31.6,578.09,32.89"/>
    </g>
    <g id="Eye">
      <path class="cls-20" d="M496.77,72.88s-21.06,23.44-47,23.44-47-23.44-47-23.44,21.06-23.44,47-23.44S496.77,72.88,496.77,72.88Z"/>
      <circle class="cls-20" cx="449.72" cy="72.88" r="23.44"/>
      <circle class="cls-18" cx="449.72" cy="72.88" r="10.39"/>
      <path class="cls-19" d="M459.39,59.28a16.68,16.68,0,1,1-9.67-3.1"/>
      <path class="cls-19" d="M449.72,52.95a19.94,19.94,0,1,0,11.55,3.69"/>
      <path class="cls-19" d="M457.54,61.89a13.48,13.48,0,1,1-7.82-2.51"/>
      <path class="cls-19" d="M407.07,72.57a76.64,76.64,0,0,1,26.81-17"/>
      <path class="cls-19" d="M492,72.57a76.64,76.64,0,0,0-26.81-17"/>
    </g>
    <g id="Nose">
      <path class="cls-17" d="M300.63,97.36c-4.82,2-10.8-.55-13.93-4.38-5.47-6.68-2.33-15.3,1.55-21.87,3.45-5.84,10.38-17.94,12.72-24.3"/>
      <path class="cls-17" d="M339.37,97.36c4.77,2,10.68-.51,13.83-4.26,5.28-6.3,2.8-14.75-.93-21.13-3.41-5.83-10.45-19.78-12.85-26.1"/>
      <path class="cls-18" d="M299.85,88.49c3.65-.12,7.67-1.61,5.52-3.71a8.88,8.88,0,0,0-5.84-1.91c-1.79.17-6.32,2.23-4.17,4.55C296.11,88.23,297.93,88.55,299.85,88.49Z"/>
      <path class="cls-17" d="M334.56,91.2c6.77,2.6,11.08-1.21,10.62-4.42-0.65-4.51-7.78-6.23-13,.87-3.64,5-6.59,9.71-12.22,9.71s-8.59-4.73-12.22-9.71c-5.18-7.09-12.31-5.37-13-.87-0.46,3.21,3.85,7,10.62,4.42"/>
      <path class="cls-18" d="M340.15,88.49c-3.65-.12-7.67-1.61-5.52-3.71a8.88,8.88,0,0,1,5.84-1.91c1.79,0.17,6.32,2.23,4.17,4.55C343.89,88.23,342.07,88.55,340.15,88.49Z"/>
      <path class="cls-19" d="M308.41,82.52s6.65,13.52,15,9.87"/>
      <path class="cls-19" d="M312.85,82.52c3,4.72,6.67,7.76,10.59,6.05"/>
      <path class="cls-19" d="M317.09,82.52c1.71,2.19,4,3.35,6.35,2.14"/>
      <path class="cls-19" d="M287.35,82.52c-0.25,7.86,4.48,13.53,12.92,12.42"/>
      <path class="cls-19" d="M290.81,82.52c-0.7,2.78.14,5.48,2.11,8.12"/>
    </g>
    <g id="Lips">
      <path class="cls-20" d="M192,92.28c26,0,47-15,47-17.81s-7.73-6.76-17.22-11.37c-5.73-2.78-10.75-7.43-18.94-9.23-6.82-1.5-8.05,1.93-10.89,1.93s-4.06-3.43-10.89-1.93c-8.19,1.8-13.21,6.45-18.94,9.23C152.69,67.7,145,71.68,145,74.47S166,92.28,192,92.28Z"/>
      <path class="cls-17" d="M233.9,74.47c-16.58,3.23-19-1.66-29.46-1.71-7.07,0-8.41,1.49-12.43,1.49s-5.36-1.52-12.43-1.49c-10.48,0-12.88,4.94-29.46,1.71"/>
      <line class="cls-19" x1="192" y1="73.43" x2="192" y2="59.7"/>
      <path class="cls-19" d="M187,73.5a29.21,29.21,0,0,1-2.83-16"/>
      <path class="cls-19" d="M188,58.82a40.48,40.48,0,0,0,1.85,15.27"/>
      <path class="cls-19" d="M180.7,57c-0.49,7.21.52,12.81,3.8,16"/>
      <path class="cls-19" d="M177.48,57.68c-0.09,7.73,1.18,12.29,3.36,15.09"/>
      <path class="cls-19" d="M174.43,59.12c0,6,1.35,10.46,3.62,13.68"/>
      <path class="cls-19" d="M171.68,61a18.28,18.28,0,0,0,4.15,12"/>
      <path class="cls-19" d="M169.32,62.56c0.25,6,1.65,9,4.17,10.82"/>
      <path class="cls-19" d="M166.6,64.42c0.47,5,1.75,7.78,4.08,9.59"/>
      <path class="cls-19" d="M164,65.49q0.63,7.15,3.88,9.18"/>
      <path class="cls-19" d="M161.31,67q1.14,6.35,3.73,8.22"/>
      <path class="cls-19" d="M159,68q0.82,5.81,3.23,7.54"/>
      <path class="cls-19" d="M156.63,69.21c0.22,3.13,1.34,5,3.07,6.29"/>
      <path class="cls-19" d="M154.12,70.41a6.9,6.9,0,0,0,2.52,4.95"/>
      <path class="cls-19" d="M151.79,71.48A4.49,4.49,0,0,0,153.38,75"/>
      <path class="cls-19" d="M197,73.5a29.21,29.21,0,0,0,2.83-16"/>
      <path class="cls-19" d="M196,58.82a40.48,40.48,0,0,1-1.85,15.27"/>
      <path class="cls-19" d="M203.31,57c0.49,7.21-.52,12.81-3.8,16"/>
      <path class="cls-19" d="M206.53,57.68c0.09,7.73-1.18,12.29-3.36,15.09"/>
      <path class="cls-19" d="M209.58,59.12c0,6-1.35,10.46-3.62,13.68"/>
      <path class="cls-19" d="M212.33,61a18.28,18.28,0,0,1-4.15,12"/>
      <path class="cls-19" d="M214.69,62.56c-0.25,6-1.65,9-4.17,10.82"/>
      <path class="cls-19" d="M217.41,64.42c-0.47,5-1.75,7.78-4.08,9.59"/>
      <path class="cls-19" d="M220,65.49q-0.63,7.15-3.88,9.18"/>
      <path class="cls-19" d="M222.7,67q-1.14,6.35-3.73,8.22"/>
      <path class="cls-19" d="M225,68q-0.82,5.81-3.23,7.54"/>
      <path class="cls-19" d="M227.37,69.21c-0.22,3.13-1.34,5-3.07,6.29"/>
      <path class="cls-19" d="M229.89,70.41a6.9,6.9,0,0,1-2.52,4.95"/>
      <path class="cls-19" d="M232.22,71.48A4.49,4.49,0,0,1,230.62,75"/>
    </g>
    <g id="Finger">
      <path class="cls-17" d="M89.2,92.54v-34c0-18.74-1.82-37-23.69-37s-23.69,18.22-23.69,37v34"/>
      <path class="cls-20" d="M65.52,55.92c17.7,0,16.95-21.82,16.95-21.82-5.1-8.77-14.3-8.88-16.95-8.88s-11.84.11-16.95,8.88C48.57,34.09,47.82,55.92,65.52,55.92Z"/>
      <path class="cls-19" d="M72.94,54.29a12.36,12.36,0,0,0-14.84,0"/>
      <path class="cls-17" d="M81.13,81.24a72.93,72.93,0,0,0-31.24,0"/>
      <path class="cls-19" d="M82.46,38.78c-6-9.87-15.12-9.66-16.95-9.66s-10.9-.21-16.95,9.66"/>
      <path class="cls-17" d="M58.35,85.4a23.35,23.35,0,0,0,14.33,0"/>
      <path class="cls-19" d="M41.83,88.19a5.81,5.81,0,0,1,2.57-2.43"/>
      <path class="cls-19" d="M41.83,85.1A6.22,6.22,0,0,1,46.25,82"/>
      <path class="cls-19" d="M41.83,91.28A5.75,5.75,0,0,1,44.08,89"/>
      <path class="cls-19" d="M41.83,82a6.09,6.09,0,0,1,3.64-2.85"/>
      <path class="cls-19" d="M41.83,93A8.66,8.66,0,0,1,45,91.28"/>
      <path class="cls-19" d="M43.19,40.21A6.89,6.89,0,0,1,45.43,39"/>
      <path class="cls-19" d="M42.92,43.54a6.71,6.71,0,0,1,2.52-1.42"/>
      <path class="cls-19" d="M42.22,47.43a6.36,6.36,0,0,1,2.87-2.1"/>
      <path class="cls-19" d="M41.83,51.13a6,6,0,0,1,2.89-2.58"/>
      <path class="cls-19" d="M41.83,54.22a6,6,0,0,1,2.89-2.58"/>
      <path class="cls-19" d="M41.83,57.31a5.81,5.81,0,0,1,2.57-2.43"/>
      <path class="cls-19" d="M41.83,60.4A5.81,5.81,0,0,1,44.4,58"/>
      <path class="cls-19" d="M41.83,63.49a5.88,5.88,0,0,1,2.92-2.59"/>
      <path class="cls-19" d="M41.83,66.57A5.88,5.88,0,0,1,44.75,64"/>
      <path class="cls-19" d="M41.83,69.66a5.81,5.81,0,0,1,2.57-2.43"/>
      <path class="cls-19" d="M41.83,72.75a5.81,5.81,0,0,1,2.57-2.43"/>
      <path class="cls-19" d="M41.83,75.84a5.75,5.75,0,0,1,2.25-2.26"/>
      <path class="cls-19" d="M41.83,78.92a5.81,5.81,0,0,1,2.57-2.43"/>
    </g>
    <g id="SM_Label" data-name="SM Label">
      <path class="cls-18" d="M185.72,18.49L183.5,19.8a3.81,3.81,0,0,0-1.18-1.41,2.76,2.76,0,0,0-1.51-.37,2.79,2.79,0,0,0-1.89.64,2,2,0,0,0-.75,1.59q0,1.32,2,2.13l1.8,0.74a7.7,7.7,0,0,1,3.22,2.17,4.9,4.9,0,0,1,1,3.15,5.53,5.53,0,0,1-1.66,4.13,5.71,5.71,0,0,1-4.16,1.64,5.57,5.57,0,0,1-3.89-1.39,6.42,6.42,0,0,1-1.89-3.93l2.77-.61a4.7,4.7,0,0,0,.66,2.2,3.12,3.12,0,0,0,4.58.32,3,3,0,0,0,.84-2.17,3,3,0,0,0-.15-1,2.45,2.45,0,0,0-.46-0.81,3.65,3.65,0,0,0-.8-0.69,7.73,7.73,0,0,0-1.17-.62l-1.75-.73q-3.71-1.57-3.71-4.59a4.36,4.36,0,0,1,1.56-3.41,5.63,5.63,0,0,1,3.88-1.38A5.42,5.42,0,0,1,185.72,18.49Z"/>
      <path class="cls-18" d="M204.26,18.36H197v4.35h7v2.57h-7v6h7.25v2.57h-10V15.79h10v2.57Z"/>
      <path class="cls-18" d="M212.68,33.89V14.56l13.2,13.8V15.79h2.73V35l-13.2-13.77V33.89h-2.73Z"/>
      <path class="cls-18" d="M247.79,18.49l-2.21,1.31a3.81,3.81,0,0,0-1.18-1.41,2.76,2.76,0,0,0-1.51-.37,2.79,2.79,0,0,0-1.89.64,2,2,0,0,0-.75,1.59q0,1.32,2,2.13l1.8,0.74a7.7,7.7,0,0,1,3.22,2.17,4.9,4.9,0,0,1,1,3.15,5.53,5.53,0,0,1-1.66,4.13,5.71,5.71,0,0,1-4.16,1.64,5.57,5.57,0,0,1-3.89-1.39,6.42,6.42,0,0,1-1.89-3.93l2.77-.61a4.7,4.7,0,0,0,.66,2.2,3.12,3.12,0,0,0,4.58.32,3,3,0,0,0,.84-2.17,3,3,0,0,0-.15-1,2.45,2.45,0,0,0-.46-0.81,3.65,3.65,0,0,0-.8-0.69,7.73,7.73,0,0,0-1.17-.62l-1.75-.73q-3.71-1.57-3.71-4.59A4.36,4.36,0,0,1,239,16.82a5.63,5.63,0,0,1,3.88-1.38A5.42,5.42,0,0,1,247.79,18.49Z"/>
      <path class="cls-18" d="M255.26,24.76a8.86,8.86,0,0,1,2.8-6.56,9.22,9.22,0,0,1,6.7-2.74,9.46,9.46,0,0,1,9.41,9.41,8.9,8.9,0,0,1-2.79,6.62,9.56,9.56,0,0,1-13.05.3A8.89,8.89,0,0,1,255.26,24.76Zm2.75,0a6.54,6.54,0,0,0,2,4.93,6.68,6.68,0,0,0,9.43,0,6.66,6.66,0,0,0,2-4.85A6.63,6.63,0,0,0,269.49,20,6.75,6.75,0,0,0,260,20,6.53,6.53,0,0,0,258,24.79Z"/>
      <path class="cls-18" d="M288.51,26.18l5.6,7.71h-3.34l-5.17-7.41h-0.49v7.41h-2.73V15.79h3.2q3.59,0,5.18,1.35a5,5,0,0,1,1.76,4,5.14,5.14,0,0,1-1.1,3.3A4.91,4.91,0,0,1,288.51,26.18Zm-3.4-2.07H286q3.88,0,3.88-3,0-2.78-3.77-2.78h-1V24.1Z"/>
      <path class="cls-18" d="M304.45,26.07l-5.91-10.28h3.14L305.82,23,310,15.79h3.14l-5.93,10.28v7.82h-2.73V26.07Z"/>
      <path class="cls-18" d="M331.57,33.89l3.81-19.45,6.21,14.06L348,14.43l3.42,19.45h-2.8L346.9,23l-5.36,11.75L336.34,23l-1.95,10.93h-2.82Z"/>
      <path class="cls-18" d="M369.68,18.36h-7.25v4.35h7v2.57h-7v6h7.25v2.57h-10V15.79h10v2.57Z"/>
      <path class="cls-18" d="M377.12,33.89l3.81-19.45,6.21,14.06,6.43-14.06L397,33.89h-2.8L392.45,23l-5.36,11.75L381.89,23l-1.95,10.93h-2.82Z"/>
      <path class="cls-18" d="M404.12,24.76a8.86,8.86,0,0,1,2.8-6.56,9.22,9.22,0,0,1,6.7-2.74A9.46,9.46,0,0,1,423,24.86a8.9,8.9,0,0,1-2.79,6.62,9.56,9.56,0,0,1-13.05.3A8.89,8.89,0,0,1,404.12,24.76Zm2.75,0a6.54,6.54,0,0,0,2,4.93,6.68,6.68,0,0,0,9.43,0,6.66,6.66,0,0,0,2-4.85A6.63,6.63,0,0,0,418.34,20a6.75,6.75,0,0,0-9.53,0A6.53,6.53,0,0,0,406.87,24.79Z"/>
      <path class="cls-18" d="M437.36,26.18l5.6,7.71h-3.34l-5.17-7.41H434v7.41h-2.73V15.79h3.2q3.59,0,5.18,1.35a5,5,0,0,1,1.76,4,5.14,5.14,0,0,1-1.1,3.3A4.91,4.91,0,0,1,437.36,26.18ZM434,24.1h0.87q3.88,0,3.88-3,0-2.78-3.77-2.78h-1V24.1Z"/>
      <path class="cls-18" d="M453.3,26.07L447.4,15.79h3.14L454.68,23l4.15-7.23H462L456,26.07v7.82H453.3V26.07Z"/>
    </g>
    <circle id="SM5" class="cls-14" cx="576.83" cy="135.91" r="12.98"/>
    <circle id="SM4" class="cls-42" cx="448.33" cy="135.91" r="12.98"/>
    <circle id="SM3" class="cls-22" cx="319.83" cy="135.91" r="12.98"/>
    <circle id="SM2" class="cls-21" cx="191.94" cy="135.91" r="12.98"/>
    <circle id="SM1" class="cls-43" cx="63.89" cy="135.91" r="12.98"/>
  </g>
  <g id="WM_Container" data-name="WM Container" class="clickable">
    <polygon id="WM_Hit" data-name="WM Hit" class="cls-41" points="41.83 301.07 39.51 221.51 90.84 193.15 138.51 186.5 189.85 193.15 247.19 223.3 239.3 301.14 41.83 301.07"/>
    <g id="WM_Label" data-name="WM Label">
      <circle class="cls-23" cx="141.51" cy="355.84" r="112.03"/>
      <path class="cls-23" d="M234.48,224q-4.54-3.21-9.31-6.11"/>
      <path class="cls-23" d="M57.47,218.11q-4.57,2.79-8.93,5.87"/>
      <path class="cls-23" d="M237.51,241.89a149.51,149.51,0,0,0-18-13"/>
      <path class="cls-23" d="M66.46,227.1a149.45,149.45,0,0,0-21,14.79"/>
      <path class="cls-23" d="M44.81,259.25a137.28,137.28,0,0,1,25.55-20.13"/>
      <path class="cls-23" d="M216.27,241.41a137.38,137.38,0,0,1,21.93,17.84"/>
      <path class="cls-23" d="M46.34,275.8a125.07,125.07,0,0,1,26.88-23.9"/>
      <path class="cls-23" d="M206.33,249.7A125,125,0,0,1,236.89,276"/>
      <path class="cls-16" d="M65.4,210.82l9.1,9.25L73.9,206.22l9.45,10.06-0.17-13.09L85.9,202l0.16,20.87-9.33-9.95,0.6,13.71L62.67,212Z"/>
      <path class="cls-16" d="M95.36,208.61a8.86,8.86,0,0,1,1.23-7,9.22,9.22,0,0,1,5.9-4.2,9.46,9.46,0,0,1,11.31,7,8.9,8.9,0,0,1-1.21,7.08A9.56,9.56,0,0,1,100,214.75,8.89,8.89,0,0,1,95.36,208.61ZM98,208a6.54,6.54,0,0,0,3.09,4.35,6.68,6.68,0,0,0,9.18-2.18,7,7,0,0,0-2.19-9.45,6.75,6.75,0,0,0-9.28,2.17A6.53,6.53,0,0,0,98,208Z"/>
      <path class="cls-16" d="M128.9,204.11l6.23,7.21-3.33.28L126,204.66l-0.49,0,0.62,7.38-2.72.23-1.53-18,3.19-.27q3.57-.3,5.27.91a5,5,0,0,1,2.09,3.8,5.14,5.14,0,0,1-.82,3.39A4.91,4.91,0,0,1,128.9,204.11Zm-3.56-1.78,0.86-.07q3.86-.33,3.61-3.28-0.23-2.77-4-2.45l-1,.08Z"/>
      <path class="cls-16" d="M145.1,200.47l7.33-6.93,3.64,0.15-8.5,7.86,7.82,10.22-3.65-.15-6.19-8.3-0.58.54-0.3,7.48-2.73-.11,0.72-18.08,2.73,0.11Z"/>
      <path class="cls-16" d="M167.35,195.19l-2.58,17.91-2.7-.39,2.58-17.91Z"/>
      <path class="cls-16" d="M173.35,214.45l5-18.67,9.18,16.75,3.25-12.15,2.64,0.71-5,18.54-9.19-16.71L176,215.16Z"/>
      <path class="cls-16" d="M209,216.63l6.82,3.06-0.24.55a12.36,12.36,0,0,1-1.92,3.1,7.68,7.68,0,0,1-2.56,1.83,8.19,8.19,0,0,1-7,0,8.81,8.81,0,0,1-4.81-5.17,9.44,9.44,0,0,1,16-9.45,11.44,11.44,0,0,1,2,4l-2.54.9a6.6,6.6,0,0,0-3.73-4.93,6.48,6.48,0,0,0-5.21-.17,6.61,6.61,0,0,0-3.77,3.65,6.8,6.8,0,0,0,3.2,8.89,5.45,5.45,0,0,0,3.86.24,4.84,4.84,0,0,0,3-2.26L208,219Z"/>
      <path class="cls-16" d="M81.18,250.87l-4.32-19.35L88.2,241.91l0.25-15.46,10.94,16.44L96.82,244l-6-9.3-0.19,12.92-9.49-8.69,2.61,10.8Z"/>
      <path class="cls-16" d="M112.68,223.46l-7,1.72,1,4.22,6.84-1.67,0.61,2.49-6.84,1.67,1.43,5.87,7-1.72,0.61,2.49-9.7,2.37-4.29-17.58,9.7-2.37Z"/>
      <path class="cls-16" d="M123,237.13l2.52-19.66,7.13,13.62,5.49-14.46,4.7,19.19L140,236l-2.46-10.78L133,237.3l-6-11.4-1.22,11Z"/>
      <path class="cls-16" d="M150.34,227a8.86,8.86,0,0,1,3.64-6.14,9.22,9.22,0,0,1,7-1.83,9.46,9.46,0,0,1,8.09,10.57,8.9,8.9,0,0,1-3.64,6.2,9.56,9.56,0,0,1-13-1.42A8.89,8.89,0,0,1,150.34,227Zm2.73,0.4a6.54,6.54,0,0,0,1.35,5.16,6.68,6.68,0,0,0,9.36,1.21,7,7,0,0,0,1.3-9.62,6.75,6.75,0,0,0-9.44-1.26A6.53,6.53,0,0,0,153.07,227.41Z"/>
      <path class="cls-16" d="M183.3,235l3,9-3.19-1-2.7-8.62-0.47-.15-2.23,7.06-2.6-.82,5.44-17.26,3.05,1q3.42,1.08,4.53,2.84a5,5,0,0,1,.48,4.31,5.14,5.14,0,0,1-2,2.82A4.91,4.91,0,0,1,183.3,235Zm-2.62-3,0.83,0.26q3.7,1.17,4.59-1.66,0.84-2.65-2.76-3.78l-0.93-.29Z"/>
      <path class="cls-16" d="M198.62,241l-0.9-11.82,2.83,1.35,0.61,8.31,6.86-4.73,2.83,1.35-9.78,6.71-3.37,7.05L195.25,248Z"/>
    </g>
    <circle class="cls-24" cx="138.51" cy="358.18" r="102"/>
    <circle class="cls-25" cx="141.51" cy="354.18" r="92.5"/>
    <path id="Gear3_Shadow" data-name="Gear3 Shadow" class="cls-24" d="M124.22,325.92c0-.63.06-1.27,0.06-1.91s0-1.28-.06-1.91l3.42-1a2.29,2.29,0,0,0-.24-2.32l-3.56-.25a33.65,33.65,0,0,0-.83-3.72l3.19-1.7a2.29,2.29,0,0,0-.72-2.22l-3.63.51a34,34,0,0,0-1.59-3.4l2.86-2.4a2.29,2.29,0,0,0-1.17-2l-3.58,1.3a34.78,34.78,0,0,0-2.22-2.92l2.4-3.07a2.29,2.29,0,0,0-1.56-1.74l-3.38,2.11a35.31,35.31,0,0,0-2.7-2.33l1.78-3.66a2.29,2.29,0,0,0-1.89-1.37l-3,2.89q-1.48-.91-3-1.68l1-4.1a2.29,2.29,0,0,0-2.13-.95l-2.4,3.55q-1.6-.58-3.26-1l0.15-4.33a2.29,2.29,0,0,0-2.28-.49l-1.64,4.05q-1.65-.24-3.36-0.33l-0.76-4.32a2.29,2.29,0,0,0-2.33,0L87,289.53q-1.7.09-3.36,0.33L82,285.81a2.29,2.29,0,0,0-2.28.49l0.15,4.33q-1.66.43-3.26,1l-2.4-3.55a2.29,2.29,0,0,0-2.13.95l1,4.1q-1.57.77-3,1.68l-3-2.89a2.29,2.29,0,0,0-1.89,1.37L67,297a35.34,35.34,0,0,0-2.7,2.33l-3.38-2.11a2.29,2.29,0,0,0-1.56,1.74L61.7,302a34.78,34.78,0,0,0-2.22,2.92l-3.58-1.3a2.29,2.29,0,0,0-1.17,2L57.6,308a34,34,0,0,0-1.59,3.4l-3.63-.51a2.29,2.29,0,0,0-.72,2.22l3.19,1.7a33.65,33.65,0,0,0-.83,3.72l-3.56.25a2.29,2.29,0,0,0-.24,2.32l3.42,1c0,0.63-.06,1.27-0.06,1.91s0,1.28.06,1.91l-3.42,1a2.29,2.29,0,0,0,.24,2.32L54,329.48a33.65,33.65,0,0,0,.83,3.72l-3.19,1.7a2.29,2.29,0,0,0,.72,2.22L56,336.6A34,34,0,0,0,57.6,340l-2.86,2.4a2.29,2.29,0,0,0,1.17,2l3.58-1.3A34.72,34.72,0,0,0,61.7,346l-2.4,3.07a2.29,2.29,0,0,0,1.56,1.74l3.38-2.11a35.34,35.34,0,0,0,2.7,2.33l-1.78,3.66a2.29,2.29,0,0,0,1.89,1.37l3-2.89q1.48,0.91,3,1.68l-1,4.1a2.29,2.29,0,0,0,2.13.95l2.4-3.55q1.6,0.58,3.26,1l-0.15,4.33a2.29,2.29,0,0,0,2.28.49l1.64-4.05q1.65,0.24,3.36.33l0.76,4.32a2.29,2.29,0,0,0,2.33,0l0.76-4.32q1.7-.09,3.36-0.33l1.64,4.05a2.29,2.29,0,0,0,2.28-.49L98,357.39q1.66-.43,3.26-1l2.4,3.55a2.29,2.29,0,0,0,2.13-.95l-1-4.1q1.57-.77,3-1.68l3,2.89a2.29,2.29,0,0,0,1.89-1.37l-1.78-3.66a35.36,35.36,0,0,0,2.7-2.33l3.38,2.11a2.29,2.29,0,0,0,1.56-1.74l-2.4-3.07a34.73,34.73,0,0,0,2.22-2.92l3.58,1.3a2.29,2.29,0,0,0,1.17-2l-2.86-2.4a34,34,0,0,0,1.59-3.4l3.63,0.51a2.29,2.29,0,0,0,.72-2.22l-3.19-1.7a33.65,33.65,0,0,0,.83-3.72l3.56-.25a2.29,2.29,0,0,0,.24-2.32Zm-17.95,2.31c-4.35,1.09-9.93.19-12.71-5.54a4.72,4.72,0,0,0-.67-1.41c4.83-1.94,8-6.43,8.4-12.26a17.09,17.09,0,0,0-3.85-12,28.7,28.7,0,0,1,18.37,16.64,7.67,7.67,0,0,1,.48,4.15A13.35,13.35,0,0,1,106.27,328.23ZM88.92,295.79h0a7.47,7.47,0,0,1,4.85,1.82,13.74,13.74,0,0,1,4.51,11.21c-0.31,4.56-3,9.7-9.54,10.43h0a4.85,4.85,0,0,0-1.2.2c-0.33-5.22-3.62-9.65-9.07-11.84a17,17,0,0,0-13.24.24A29,29,0,0,1,88.92,295.79Zm-27.8,20.57a7.79,7.79,0,0,1,2-3.41,13.34,13.34,0,0,1,14.26-2.55c4.16,1.67,8.13,5.68,7,11.93a4.66,4.66,0,0,0-.31,1.55c-5-1.26-10.24.5-14,5a17,17,0,0,0-3.88,12.59A27.66,27.66,0,0,1,61.12,316.36Zm11.29,14.42c2.91-3.48,8-6,13.71-2.9a4.85,4.85,0,0,0,1.22.61c-2.8,4.41-2.74,9.94.38,14.91a17.09,17.09,0,0,0,10.15,7.43,29.47,29.47,0,0,1-25.1-3.45,7.4,7.4,0,0,1-2.94-3.7A13.55,13.55,0,0,1,72.41,330.78Zm33.53,16a7.58,7.58,0,0,1-4.26,1.45,13.55,13.55,0,0,1-11.42-6.45c-2.42-3.85-3.27-9.52,1.5-14a4.83,4.83,0,0,0,1-.93A13.12,13.12,0,0,0,103,331.65a16.35,16.35,0,0,0,4-.51,16.94,16.94,0,0,0,10.78-8.37c0,0.41,0,.82,0,1.24A28,28,0,0,1,105.94,346.8Z"/>
    <path id="Gear3" class="cls-26" d="M127.22,321.92c0-.63.06-1.27,0.06-1.91s0-1.28-.06-1.91l3.42-1a2.29,2.29,0,0,0-.24-2.32l-3.56-.25a33.65,33.65,0,0,0-.83-3.72l3.19-1.7a2.29,2.29,0,0,0-.72-2.22l-3.63.51a34,34,0,0,0-1.59-3.4l2.86-2.4a2.29,2.29,0,0,0-1.17-2l-3.58,1.3a34.78,34.78,0,0,0-2.22-2.92l2.4-3.07a2.29,2.29,0,0,0-1.56-1.74l-3.38,2.11a35.31,35.31,0,0,0-2.7-2.33l1.78-3.66a2.29,2.29,0,0,0-1.89-1.37l-3,2.89q-1.48-.91-3-1.68l1-4.1a2.29,2.29,0,0,0-2.13-.95l-2.4,3.55q-1.6-.58-3.26-1l0.15-4.33a2.29,2.29,0,0,0-2.28-.49l-1.64,4.05q-1.65-.24-3.36-0.33l-0.76-4.32a2.29,2.29,0,0,0-2.33,0L90,285.53q-1.7.09-3.36,0.33L85,281.81a2.29,2.29,0,0,0-2.28.49l0.15,4.33q-1.66.43-3.26,1l-2.4-3.55a2.29,2.29,0,0,0-2.13.95l1,4.1q-1.57.77-3,1.68l-3-2.89a2.29,2.29,0,0,0-1.89,1.37L70,293a35.34,35.34,0,0,0-2.7,2.33l-3.38-2.11a2.29,2.29,0,0,0-1.56,1.74l2.4,3.07a34.78,34.78,0,0,0-2.22,2.92l-3.58-1.3a2.29,2.29,0,0,0-1.17,2L60.6,304a34,34,0,0,0-1.59,3.4l-3.63-.51a2.29,2.29,0,0,0-.72,2.22l3.19,1.7a33.65,33.65,0,0,0-.83,3.72l-3.56.25a2.29,2.29,0,0,0-.24,2.32l3.42,1c0,0.63-.06,1.27-0.06,1.91s0,1.28.06,1.91l-3.42,1a2.29,2.29,0,0,0,.24,2.32L57,325.47a33.65,33.65,0,0,0,.83,3.72l-3.19,1.7a2.29,2.29,0,0,0,.72,2.22L59,332.6A34,34,0,0,0,60.6,336l-2.86,2.4a2.29,2.29,0,0,0,1.17,2l3.58-1.3A34.72,34.72,0,0,0,64.71,342l-2.4,3.07a2.29,2.29,0,0,0,1.56,1.74l3.38-2.11A35.34,35.34,0,0,0,70,347l-1.78,3.66a2.29,2.29,0,0,0,1.89,1.37l3-2.89q1.48,0.91,3,1.68l-1,4.1a2.29,2.29,0,0,0,2.13.95l2.4-3.55q1.6,0.58,3.26,1l-0.15,4.33a2.29,2.29,0,0,0,2.28.49l1.64-4.05q1.65,0.24,3.36.33l0.76,4.32a2.29,2.29,0,0,0,2.33,0l0.76-4.32q1.7-.09,3.36-0.33l1.64,4.05a2.29,2.29,0,0,0,2.28-.49L101,353.39q1.66-.43,3.26-1l2.4,3.55a2.29,2.29,0,0,0,2.13-.95l-1-4.1q1.57-.77,3-1.68l3,2.89a2.29,2.29,0,0,0,1.89-1.37L113.89,347a35.36,35.36,0,0,0,2.7-2.33l3.38,2.11a2.29,2.29,0,0,0,1.56-1.74l-2.4-3.07a34.73,34.73,0,0,0,2.22-2.92l3.58,1.3a2.29,2.29,0,0,0,1.17-2l-2.86-2.4a34,34,0,0,0,1.59-3.4l3.63,0.51a2.29,2.29,0,0,0,.72-2.22l-3.19-1.7a33.65,33.65,0,0,0,.83-3.72l3.56-.25a2.29,2.29,0,0,0,.24-2.32Zm-17.95,2.31c-4.35,1.09-9.93.19-12.71-5.54a4.72,4.72,0,0,0-.67-1.41c4.83-1.94,8-6.43,8.4-12.26a17.09,17.09,0,0,0-3.85-12,28.7,28.7,0,0,1,18.37,16.64,7.67,7.67,0,0,1,.48,4.15A13.35,13.35,0,0,1,109.27,324.23Zm-15.52-4.46a1.69,1.69,0,0,1,0,.23,1.81,1.81,0,0,1-1.85,1.77,1.88,1.88,0,0,1-1.18-.42h0l0,0a1.73,1.73,0,0,1-.64-1.33,1.7,1.7,0,0,1,.16-0.72h0s0-.08,0-0.12a1.85,1.85,0,0,1,1.62-.94,1.83,1.83,0,0,1,1.79,1.36l0,0Zm-1.82-28h0a7.48,7.48,0,0,1,4.85,1.82,13.74,13.74,0,0,1,4.51,11.21c-0.31,4.56-3,9.7-9.54,10.43h0a4.85,4.85,0,0,0-1.2.2c-0.33-5.22-3.62-9.65-9.07-11.84a17,17,0,0,0-13.24.24A29,29,0,0,1,91.93,291.79Zm-27.8,20.57a7.79,7.79,0,0,1,2-3.41,13.34,13.34,0,0,1,14.26-2.55c4.16,1.67,8.13,5.68,7,11.93a4.66,4.66,0,0,0-.31,1.55c-5-1.26-10.24.5-14,5a17,17,0,0,0-3.88,12.59A27.66,27.66,0,0,1,64.12,312.36Zm11.29,14.42c2.91-3.48,8-6,13.71-2.9a4.85,4.85,0,0,0,1.22.61c-2.8,4.41-2.74,9.94.38,14.91a17.09,17.09,0,0,0,10.15,7.43,29.47,29.47,0,0,1-25.1-3.45,7.4,7.4,0,0,1-2.94-3.7A13.55,13.55,0,0,1,75.41,326.78Zm33.53,16a7.58,7.58,0,0,1-4.26,1.45,13.55,13.55,0,0,1-11.42-6.45c-2.42-3.85-3.27-9.52,1.5-14a4.83,4.83,0,0,0,1-.93A13.12,13.12,0,0,0,106,327.65a16.35,16.35,0,0,0,4-.51,16.94,16.94,0,0,0,10.78-8.37c0,0.41,0,.82,0,1.24A28,28,0,0,1,108.94,342.8Z"/>
    <path class="cls-27" d="M194.63,289.25l-2.38.47,0.1,5.1a16.7,16.7,0,0,0-4.11,2l-4-3.19-1.83,1.6,2.64,4.37a16.86,16.86,0,0,0-2.54,3.78l-5-.79-0.79,2.3,4.45,2.46a16.7,16.7,0,0,0-.29,4.56l-4.76,1.84,0.47,2.38,5.1-.1a16.7,16.7,0,0,0,2,4.11l-3.19,4,1.6,1.83,4.37-2.64a16.86,16.86,0,0,0,3.78,2.54l-0.79,5,2.3,0.79,2.46-4.45a16.7,16.7,0,0,0,4.56.29l1.84,4.76,2.38-.47-0.1-5.1a16.7,16.7,0,0,0,4.11-2l4,3.19,1.83-1.6-2.64-4.37a16.86,16.86,0,0,0,2.54-3.78l5,0.79,0.79-2.3-4.45-2.46a16.7,16.7,0,0,0,.29-4.56l4.76-1.84-0.47-2.38-5.1.1a16.7,16.7,0,0,0-2-4.11l3.19-4-1.6-1.83-4.37,2.64a16.86,16.86,0,0,0-3.78-2.54l0.79-5-2.3-.79L201,294.31a16.7,16.7,0,0,0-4.56-.29Z"/>
    <g id="Gear2">
      <path class="cls-28" d="M197.63,285.25l-2.38.47,0.1,5.1a16.7,16.7,0,0,0-4.11,2l-4-3.19-1.83,1.6,2.64,4.37a16.86,16.86,0,0,0-2.54,3.78l-5-.79-0.79,2.3,4.45,2.46a16.7,16.7,0,0,0-.29,4.56l-4.76,1.84,0.47,2.38,5.1-.1a16.7,16.7,0,0,0,2,4.11l-3.19,4,1.6,1.83,4.37-2.64a16.86,16.86,0,0,0,3.78,2.54l-0.79,5,2.3,0.79,2.46-4.45a16.7,16.7,0,0,0,4.56.29l1.84,4.76,2.38-.47-0.1-5.1a16.7,16.7,0,0,0,4.11-2l4,3.19,1.83-1.6-2.64-4.37a16.86,16.86,0,0,0,2.54-3.78l5,0.79,0.79-2.3-4.45-2.46a16.7,16.7,0,0,0,.29-4.56l4.76-1.84-0.47-2.38-5.1.1a16.7,16.7,0,0,0-2-4.11l3.19-4-1.6-1.83-4.37,2.64a16.86,16.86,0,0,0-3.78-2.54l0.79-5-2.3-.79L204,290.3a16.7,16.7,0,0,0-4.56-.29Z"/>
      <circle class="cls-29" cx="200.62" cy="306.76" r="7.93" transform="translate(-61.51 50.56) rotate(-12.47)"/>
      <circle class="cls-28" cx="200.62" cy="306.76" r="5.57" transform="translate(-61.51 50.56) rotate(-12.47)"/>
    </g>
    <path id="Gear1_Shadow" data-name="Gear1 Shadow" class="cls-24" d="M191.31,358.27l4.31-.92L195.54,355l-4.38-.62q-0.12-1.76-.36-3.48l4.15-1.51-0.41-2.3h-4.41c-0.24-1.15-.53-2.28-0.85-3.4l3.89-2.07-0.72-2.22-4.35.61c-0.4-1.1-.85-2.18-1.33-3.25l3.57-2.59-1-2.1-4.24,1.21q-0.83-1.55-1.76-3l3.17-3.07-1.31-1.94-4,1.8q-1-1.41-2.15-2.76l2.72-3.48-1.56-1.73-3.75,2.34c-0.81-.84-1.64-1.66-2.51-2.44l2.2-3.82-1.79-1.5-3.39,2.84c-0.92-.72-1.86-1.41-2.82-2.07l1.65-4.09-2-1.24-3,3.28c-1-.58-2-1.14-3.09-1.65l1.06-4.27-2.13-.95-2.47,3.65q-1.62-.65-3.29-1.2l0.46-4.38-2.24-.64-1.93,4c-1.13-.28-2.27-0.51-3.43-0.72l-0.16-4.41-2.31-.32-1.36,4.19c-1.15-.12-2.32-0.19-3.49-0.23l-0.77-4.36h-2.33l-0.77,4.36c-1.17,0-2.34.11-3.49,0.23l-1.36-4.19-2.31.32-0.16,4.41c-1.16.2-2.3,0.44-3.43,0.72l-1.93-4-2.24.64L122.1,308q-1.67.55-3.29,1.2l-2.47-3.65-2.13.95,1.06,4.27c-1.05.52-2.08,1.07-3.09,1.65l-3-3.28-2,1.24,1.65,4.09c-1,.66-1.9,1.35-2.82,2.07l-3.39-2.84-1.79,1.5,2.2,3.82c-0.87.78-1.7,1.6-2.51,2.44l-3.75-2.34-1.56,1.73L98,324.31q-1.12,1.34-2.15,2.76l-4-1.8-1.31,1.94,3.17,3.07q-0.93,1.48-1.76,3l-4.23-1.21-1,2.1,3.57,2.59c-0.47,1.07-.92,2.14-1.33,3.25l-4.35-.61-0.72,2.22,3.89,2.07c-0.32,1.12-.61,2.25-0.85,3.4H82.47l-0.41,2.3,4.15,1.51q-0.24,1.72-.36,3.48l-4.38.62-0.08,2.33,4.31,0.92c0,1.18.05,2.34,0.13,3.5L81.59,363l0.24,2.32,4.4,0.31c0.16,1.16.36,2.31,0.6,3.45l-4,1.79,0.56,2.27,4.4-.31c0.32,1.13.68,2.24,1.07,3.34l-3.73,2.33L86,380.66l4.31-.92c0.48,1.07,1,2.12,1.53,3.15l-3.38,2.83,1.17,2,4.15-1.51q0.93,1.48,2,2.9l-3,3.28,1.44,1.84,3.9-2.07q1.13,1.34,2.34,2.6L98,398.45l1.68,1.62,3.57-2.59c0.87,0.78,1.77,1.52,2.68,2.24l-1.94,4,1.89,1.37,3.17-3.06c1,0.65,2,1.26,3,1.85l-1.36,4.2,2.06,1.1,2.71-3.47c1,0.51,2.12,1,3.21,1.42l-0.76,4.34,2.19,0.8,2.2-3.81q1.66,0.54,3.37,1l-0.15,4.4,2.28,0.49,1.66-4.09c1.14,0.2,2.3.37,3.47,0.49l0.46,4.39,2.33,0.16,1.07-4.29c0.58,0,1.16,0,1.75,0s1.17,0,1.75,0l1.07,4.29,2.33-.16,0.46-4.39c1.17-.12,2.32-0.3,3.47-0.49l1.66,4.09,2.28-.49-0.15-4.4q1.71-.43,3.37-1l2.2,3.81,2.19-.8-0.76-4.34c1.09-.44,2.16-0.91,3.21-1.42l2.71,3.47,2.06-1.1-1.36-4.2c1-.59,2-1.2,3-1.85l3.17,3.06L173,403.7l-1.94-4c0.92-.72,1.82-1.46,2.68-2.24l3.57,2.59,1.68-1.62-2.47-3.67q1.21-1.26,2.34-2.6l3.9,2.07,1.44-1.84-3-3.28q1-1.42,2-2.9l4.15,1.51,1.17-2-3.38-2.83c0.55-1,1.05-2.08,1.53-3.15l4.31,0.92,0.87-2.16-3.73-2.33c0.4-1.09.75-2.21,1.07-3.34l4.4,0.31,0.56-2.27-4-1.79c0.24-1.14.43-2.29,0.6-3.45l4.4-.31,0.24-2.32-4.25-1.22C191.26,360.61,191.31,359.45,191.31,358.27Zm-93.38-.09a40.49,40.49,0,0,1,15.68-32,10.1,10.1,0,0,1,16.27,8v48.08a10.1,10.1,0,0,1-16.27,8A40.49,40.49,0,0,1,97.94,358.18Zm49.19,24V334.14a10.1,10.1,0,0,1,16.27-8,40.56,40.56,0,0,1,0,64.07A10.1,10.1,0,0,1,147.12,382.22Z"/>
    <path id="Gear1" class="cls-30" d="M194.31,354.27l4.31-.92L198.55,351l-4.38-.62q-0.12-1.76-.36-3.48l4.15-1.51-0.41-2.3h-4.41c-0.24-1.15-.53-2.28-0.85-3.4l3.89-2.07-0.72-2.22-4.35.61c-0.4-1.1-.85-2.18-1.33-3.25l3.57-2.59-1-2.1-4.24,1.21q-0.83-1.55-1.76-3l3.17-3.07-1.31-1.94-4,1.8q-1-1.41-2.15-2.76l2.72-3.48-1.56-1.73-3.75,2.34c-0.81-.84-1.64-1.66-2.51-2.44l2.2-3.82-1.79-1.5-3.39,2.84c-0.92-.72-1.86-1.41-2.82-2.07l1.65-4.09-2-1.24-3,3.28c-1-.58-2-1.14-3.09-1.65l1.06-4.27-2.13-.95-2.47,3.65q-1.62-.65-3.29-1.2l0.46-4.38-2.24-.64-1.93,4c-1.13-.28-2.27-0.51-3.43-0.72l-0.16-4.41-2.31-.32-1.36,4.19c-1.15-.12-2.32-0.19-3.49-0.23l-0.77-4.36h-2.33l-0.77,4.36c-1.17,0-2.34.11-3.49,0.23l-1.36-4.19-2.31.32-0.16,4.41c-1.16.2-2.3,0.44-3.43,0.72l-1.93-4-2.24.64,0.46,4.38q-1.67.55-3.29,1.2l-2.47-3.65-2.13.95,1.06,4.27c-1.05.52-2.08,1.07-3.09,1.65l-3-3.28-2,1.24,1.65,4.09c-1,.66-1.9,1.35-2.82,2.07l-3.39-2.84-1.79,1.5,2.2,3.82c-0.87.78-1.7,1.6-2.51,2.44l-3.75-2.34-1.56,1.73,2.72,3.48q-1.12,1.34-2.15,2.76l-4-1.8-1.31,1.94,3.17,3.07q-0.93,1.48-1.76,3l-4.23-1.21-1,2.1,3.57,2.59c-0.47,1.07-.92,2.14-1.33,3.25l-4.35-.61-0.72,2.22,3.89,2.07c-0.32,1.12-.61,2.25-0.85,3.4H85.47l-0.41,2.3,4.15,1.51q-0.24,1.72-.36,3.48l-4.38.62-0.08,2.33,4.31,0.92c0,1.18.05,2.34,0.13,3.5L84.59,359l0.24,2.32,4.4,0.31c0.16,1.16.36,2.31,0.6,3.45l-4,1.79,0.56,2.27,4.4-.31c0.32,1.13.68,2.24,1.07,3.34l-3.73,2.33L89,376.65l4.31-.92c0.48,1.07,1,2.12,1.53,3.15l-3.38,2.83,1.17,2,4.15-1.51q0.93,1.48,2,2.9l-3,3.28,1.44,1.84,3.9-2.07q1.13,1.34,2.34,2.6L101,394.45l1.68,1.62,3.57-2.59c0.87,0.78,1.77,1.52,2.68,2.24l-1.94,4,1.89,1.37,3.17-3.06c1,0.65,2,1.26,3,1.85l-1.36,4.2,2.06,1.1,2.71-3.47c1,0.51,2.12,1,3.21,1.42l-0.76,4.34,2.19,0.8,2.2-3.81q1.66,0.54,3.37,1l-0.15,4.4,2.28,0.49,1.66-4.09c1.14,0.2,2.3.37,3.47,0.49l0.46,4.39,2.33,0.16,1.07-4.29c0.58,0,1.16,0,1.75,0s1.17,0,1.75,0l1.07,4.29,2.33-.16,0.46-4.39c1.17-.12,2.32-0.3,3.47-0.49l1.66,4.09,2.28-.49-0.15-4.4q1.71-.43,3.37-1l2.2,3.81,2.19-.8-0.76-4.34c1.09-.44,2.16-0.91,3.21-1.42l2.71,3.47,2.06-1.1-1.36-4.2c1-.59,2-1.2,3-1.85l3.17,3.06,1.89-1.37-1.94-4c0.92-.72,1.82-1.46,2.68-2.24l3.57,2.59,1.68-1.62-2.47-3.67q1.21-1.26,2.34-2.6l3.9,2.07,1.44-1.84-3-3.28q1-1.42,2-2.9l4.15,1.51,1.17-2-3.38-2.83c0.55-1,1.05-2.08,1.53-3.15l4.31,0.92,0.87-2.16-3.73-2.33c0.4-1.09.75-2.21,1.07-3.34l4.4,0.31,0.56-2.27-4-1.79c0.24-1.14.43-2.29,0.6-3.45l4.4-.31,0.24-2.32-4.25-1.22C194.26,356.61,194.31,355.44,194.31,354.27Zm-93.38-.09a40.49,40.49,0,0,1,15.68-32,10.1,10.1,0,0,1,16.27,8v48.08a10.1,10.1,0,0,1-16.27,8A40.49,40.49,0,0,1,100.94,354.18Zm49.19,24V330.13a10.1,10.1,0,0,1,16.27-8,40.56,40.56,0,0,1,0,64.07A10.1,10.1,0,0,1,150.12,378.22Z"/>
    <path class="cls-24" d="M213.65,312.75A90.62,90.62,0,0,0,89.82,280.43,91.34,91.34,0,0,0,74.25,291.9l5.29,8.74a80.63,80.63,0,0,1,134,78.29l-0.12.46A80.53,80.53,0,0,1,161,435.15l5.3,8.76a91.53,91.53,0,0,0,14.92-7,90,90,0,0,0,41.87-55l0.13-.51A90,90,0,0,0,213.65,312.75Z"/>
    <path class="cls-31" d="M141.51,252.18a102,102,0,1,0,102,102A102,102,0,0,0,141.51,252.18Zm0,182.61a80.62,80.62,0,1,1,80.62-80.62A80.62,80.62,0,0,1,141.51,434.79Z"/>
    <clippath id="Attn_Clip">
        <path id="Attention_Clip" data-name="Attention Clip" d="M228.63,284.82v16.29a102.08,102.08,0,0,1,0,106.13v15.93H640V284.82H228.63Z"/>
    </clippath>
    <g id="Attention_Shadow" data-name="Attention Shadow">
      <g id="Arm_Shadow" clip-path="url(#Attn_Clip)">
        <polygon class="cls-24" points="328.27 333.1 328.27 334.94 34.93 334.94 34.93 381.05 328.27 381.05 328.27 382.89 394.37 382.89 394.37 333.1 328.27 333.1"/>
        <path id="Pincer2_Shadow" data-name="Pincer2 Shadow" class="cls-24" d="M405.73,397.31c-17.15,0-25.28-12.46-25.28-21.62a6.94,6.94,0,0,1,13.88,0c0,2.11,3.5,10.06,14.24,10.06,7.48,0,16-5.93,16-18.39h8.84C433.45,383,420.78,397.31,405.73,397.31Z"/>
        <path id="Pincer1_Shadow" data-name="Pincer1 Shadow" class="cls-24" d="M405.73,318.47c-17.15,0-25.28,12.46-25.28,21.62a6.94,6.94,0,0,0,13.88,0c0-2.11,3.5-10.06,14.24-10.06,7.48,0,16,5.93,16,18.39h8.84C433.45,332.74,420.78,318.47,405.73,318.47Z"/>
      </g>
      <path class="cls-24" d="M249.3,376.34a33.1,33.1,0,0,1,0-36.33l0.61,0c3.11-2.95,3.2-5.87,0-8.77l-114.1-2a28.92,28.92,0,0,0-28.92,28.92h0A28.92,28.92,0,0,0,135.8,387.1l114.12-2c2.74-3.12,2.86-6,0-8.77Z"/>
    </g>
    <g id="Attention_Arm" data-name="Attention Arm">
      <g id="Arm" clip-path="url(#Attn_Clip)">
          <rect class="cls-32" x="37.93" y="330.94" width="295.35" height="46.11"/>
          <rect class="cls-33" x="331.28" y="329.09" width="66.09" height="49.8"/>
          <g id="Attention_Label" data-name="Attention Label">
            <path class="cls-34" d="M267.12,357h-5.49l-1.43,3.11h-2.08l6.34-13.62,6.12,13.62h-2.12Zm-0.79-1.82-1.9-4.36-2,4.36h3.89Z"/>
            <path class="cls-34" d="M278.4,349.11v11h-1.93v-11h-2.95v-1.82h7.82v1.82H278.4Z"/>
            <path class="cls-34" d="M290,349.11v11h-1.93v-11h-2.95v-1.82h7.82v1.82H290Z"/>
            <path class="cls-34" d="M305.14,349.11H300v3.08h5V354h-5v4.28h5.14v1.82h-7.07V347.29h7.07v1.82Z"/>
            <path class="cls-34" d="M311.08,360.11V346.42l9.35,9.78v-8.91h1.93v13.6L313,351.14v9h-1.93Z"/>
            <path class="cls-34" d="M332.37,349.11v11h-1.93v-11h-2.95v-1.82h7.82v1.82h-2.94Z"/>
            <path class="cls-34" d="M342.37,347.29v12.82h-1.93V347.29h1.93Z"/>
            <path class="cls-34" d="M348.21,353.65a6.28,6.28,0,0,1,2-4.65,6.53,6.53,0,0,1,4.75-1.94,6.7,6.7,0,0,1,6.67,6.67,6.3,6.3,0,0,1-2,4.69,6.77,6.77,0,0,1-9.25.22A6.3,6.3,0,0,1,348.21,353.65Zm2,0a4.63,4.63,0,0,0,1.43,3.5,4.73,4.73,0,0,0,6.68,0,5,5,0,0,0,0-6.87,4.78,4.78,0,0,0-6.75,0A4.63,4.63,0,0,0,350.16,353.67Z"/>
            <path class="cls-34" d="M367.44,360.11V346.42l9.35,9.78v-8.91h1.93v13.6l-9.35-9.75v9h-1.93Z"/>
          </g>
          <g id="Pincer2">
            <path class="cls-31" d="M408.74,393.31c-17.15,0-25.28-12.46-25.28-21.62a6.94,6.94,0,0,1,13.88,0c0,2.11,3.5,10.06,14.24,10.06,7.48,0,16-5.93,16-18.39h8.84C436.46,379,423.78,393.31,408.74,393.31Z"/>
            <circle class="cls-30" cx="390.4" cy="371.69" r="2.56"/>
          </g>
          <g id="Pincer1">
            <path class="cls-31" d="M408.74,314.46c-17.15,0-25.28,12.46-25.28,21.62a6.94,6.94,0,0,0,13.88,0c0-2.11,3.5-10.06,14.24-10.06,7.48,0,16,5.93,16,18.39h8.84C436.46,328.74,423.78,314.46,408.74,314.46Z"/>
            <circle class="cls-30" cx="390.4" cy="336.08" r="2.56"/>
          </g>
          <circle id="WM_Ball" data-name="WM Ball" class="cls-14" cx="431.38" cy="355.16" r="12.98"/>
      </g>
      <path class="cls-33" d="M249.14,379.77l-108.1,0c-15.11,0-27.44-12.28-27.37-25.59s12.24-25.57,27.35-25.57l108.1,0,3.79,6.4c-8.09,12.1-8.09,26.2,0,38.3Z"/>
      <circle id="Arm_Bolt" class="cls-35" cx="141.51" cy="354.18" r="9.49"/>
      <g id="cluster_group">
      </g>
      <path class="cls-36" d="M114.57,354.14h4a18.58,18.58,0,0,1,18.07-18.86l113.23,2.93,1.27,0a15.46,15.46,0,0,1,1.77-3.23s-111.39-5.31-120.63-5C114.79,332.79,114.84,352.3,114.57,354.14Z"/>
      <path class="cls-35" d="M252.91,336l-113.29-2.93c-11.63,0-21,7.83-21,21s9.42,21,21,21l113.29-2.86c2.87,2.74,2.75,5.66,0,8.77l-114.12,2a28.92,28.92,0,0,1-28.92-28.92h0a28.92,28.92,0,0,1,28.92-28.92l114.1,2C256.11,330.15,256,333.08,252.91,336Z"/>
    </g>
  </g>
  <g id="LTM_Top" data-name="LTM Top">
      <g>
        <circle class="cls-3" cx="592.65" cy="638.95" r="5.67"/>
        <circle class="cls-4" cx="585.51" cy="637.23" r="5.67"/>
        <circle class="cls-4" cx="587.4" cy="632.84" r="5.67"/>
        <circle class="cls-3" cx="592.65" cy="633.86" r="5.67"/>
        <circle class="cls-5" cx="587.84" cy="641.57" r="5.67"/>
        <circle class="cls-4" cx="589.58" cy="637.23" r="5.67"/>
      </g>
      <g>
        <circle class="cls-4" cx="52.56" cy="598.53" r="12.98"/>
        <circle class="cls-6" cx="36.22" cy="594.59" r="12.98"/>
        <circle class="cls-7" cx="40.56" cy="584.55" r="12.98"/>
        <circle class="cls-4" cx="52.56" cy="586.89" r="12.98"/>
        <circle class="cls-5" cx="41.56" cy="604.52" r="12.98"/>
        <circle class="cls-7" cx="45.54" cy="594.1" r="12.98"/>
      </g>
      <g>
        <circle class="cls-5" cx="574.21" cy="617.85" r="12.98" transform="translate(-264.5 707.38) rotate(-53.19)"/>
        <circle class="cls-4" cx="561.27" cy="628.56" r="12.98" transform="translate(-278.27 701.31) rotate(-53.19)"/>
        <circle class="cls-3" cx="555.83" cy="619.08" r="12.98" transform="translate(-272.86 693.15) rotate(-53.19)"/>
        <circle class="cls-7" cx="564.89" cy="610.87" r="12.98" transform="translate(-262.65 697.12) rotate(-53.19)"/>
        <circle class="cls-8" cx="572.42" cy="630.25" r="12.98" transform="translate(-275.15 710.91) rotate(-53.19)"/>
        <circle class="cls-6" cx="566.46" cy="620.82" r="12.98" transform="translate(-269.99 702.36) rotate(-53.19)"/>
      </g>
      <g>
        <circle class="cls-7" cx="226.18" cy="627.29" r="5.67" transform="translate(-296.43 213.14) rotate(-31.78)"/>
        <circle class="cls-7" cx="228.48" cy="634.26" r="5.67" transform="translate(-299.76 215.39) rotate(-31.78)"/>
        <circle class="cls-4" cx="223.75" cy="634.96" r="5.67" transform="translate(-300.84 213.01) rotate(-31.78)"/>
        <circle class="cls-5" cx="221.85" cy="629.97" r="5.67" transform="translate(-298.49 211.26) rotate(-31.78)"/>
        <circle class="cls-3" cx="230.94" cy="630" r="5.67" transform="translate(-297.15 216.05) rotate(-31.78)"/>
        <circle class="cls-8" cx="226.15" cy="630.92" r="5.67" transform="translate(-298.35 213.66) rotate(-31.78)"/>
      </g>
      <g>
        <circle class="cls-6" cx="300.01" cy="600.77" r="12.98" transform="translate(-359.07 729.37) rotate(-74.5)"/>
        <circle class="cls-3" cx="291.85" cy="615.45" r="12.98" transform="translate(-379.2 732.27) rotate(-74.5)"/>
        <circle class="cls-6" cx="283.33" cy="608.6" r="12.98" transform="matrix(0.27, -0.96, 0.96, 0.27, -378.84, 719.04)"/>
        <circle class="cls-3" cx="288.78" cy="597.65" r="12.98" transform="translate(-364.3 716.28) rotate(-74.5)"/>
        <circle class="cls-5" cx="302.84" cy="612.97" r="12.98" transform="translate(-368.75 741.04) rotate(-74.5)"/>
        <circle class="cls-4" cx="293.86" cy="606.35" r="12.98" transform="translate(-368.96 727.54) rotate(-74.5)"/>
      </g>
      <g>
        <circle class="cls-7" cx="179.68" cy="639.14" r="5.67"/>
        <circle class="cls-3" cx="172.54" cy="637.42" r="5.67"/>
        <circle class="cls-4" cx="174.44" cy="633.03" r="5.67"/>
        <circle class="cls-6" cx="179.68" cy="634.05" r="5.67"/>
        <circle class="cls-7" cx="174.87" cy="641.76" r="5.67"/>
        <circle class="cls-3" cx="176.61" cy="637.21" r="5.67"/>
      </g>
      <g>
        <circle class="cls-7" cx="446.1" cy="631.61" r="5.67" transform="translate(-325.61 680.64) rotate(-58.4)"/>
        <circle class="cls-3" cx="451.28" cy="636.81" r="5.67" transform="translate(-327.58 687.53) rotate(-58.4)"/>
        <circle class="cls-8" cx="447.37" cy="639.56" r="5.67" transform="translate(-331.77 685.51) rotate(-58.4)"/>
        <circle class="cls-6" cx="443.43" cy="635.94" r="5.67" transform="translate(-330.57 680.44) rotate(-58.4)"/>
        <circle class="cls-6" cx="451.57" cy="631.9" r="5.67" transform="translate(-323.25 685.44) rotate(-58.4)"/>
        <circle class="cls-4" cx="447.7" cy="634.86" r="5.67" transform="translate(-327.62 683.56) rotate(-58.4)"/>
      </g>
      <g>
        <circle class="cls-7" cx="123.96" cy="627.54" r="12.98"/>
        <circle class="cls-4" cx="107.63" cy="623.6" r="12.98"/>
        <circle class="cls-3" cx="111.96" cy="613.57" r="12.98"/>
        <circle class="cls-6" cx="123.96" cy="615.9" r="12.98"/>
        <circle class="cls-6" cx="112.96" cy="633.54" r="12.98"/>
        <circle class="cls-4" cx="116.94" cy="623.12" r="12.98"/>
      </g>
      <g>
        <circle class="cls-3" cx="505.82" cy="604.9" r="12.98" transform="translate(-105.68 1102.73) rotate(-89.25)"/>
        <circle class="cls-6" cx="501.66" cy="621.18" r="12.98" transform="translate(-126.06 1114.64) rotate(-89.25)"/>
        <circle class="cls-5" cx="491.68" cy="616.72" r="12.98" transform="translate(-131.44 1100.26) rotate(-89.25)"/>
        <circle class="cls-6" cx="494.17" cy="604.75" r="12.98" transform="translate(-117.02 1090.94) rotate(-89.25)"/>
        <circle class="cls-4" cx="511.67" cy="615.98" r="12.98" transform="translate(-110.98 1119.51) rotate(-89.25)"/>
        <circle class="cls-8" cx="501.3" cy="611.87" r="12.98" transform="translate(-117.1 1105.08) rotate(-89.25)"/>
      </g>
      <g>
        <circle class="cls-7" cx="32.39" cy="631.24" r="10.56" transform="translate(-31.32 2.39) rotate(-2.85)"/>
        <circle class="cls-5" cx="29.85" cy="644.67" r="10.56" transform="translate(-31.99 2.28) rotate(-2.85)"/>
        <circle class="cls-7" cx="21.52" cy="641.56" r="10.56" transform="translate(-31.85 1.86) rotate(-2.85)"/>
        <circle class="cls-4" cx="22.93" cy="631.71" r="10.56" transform="translate(-31.36 1.92) rotate(-2.85)"/>
        <circle class="cls-7" cx="37.71" cy="639.94" r="10.56" transform="translate(-31.75 2.66) rotate(-2.85)"/>
        <circle class="cls-6" cx="29.08" cy="637.13" r="10.56" transform="translate(-31.62 2.23) rotate(-2.85)"/>
      </g>
      <g>
        <circle class="cls-7" cx="260.04" cy="654.76" r="10.56"/>
        <circle class="cls-4" cx="246.75" cy="651.56" r="10.56"/>
        <circle class="cls-4" cx="250.27" cy="643.39" r="10.56"/>
        <circle class="cls-3" cx="260.04" cy="645.29" r="10.56"/>
        <circle class="cls-7" cx="251.09" cy="659.64" r="10.56"/>
        <circle class="cls-8" cx="254.32" cy="651.16" r="10.56"/>
      </g>
      <g>
        <circle class="cls-7" cx="622.62" cy="636.95" r="10.56"/>
        <circle class="cls-5" cx="609.33" cy="633.75" r="10.56"/>
        <circle class="cls-4" cx="612.85" cy="625.58" r="10.56"/>
        <circle class="cls-6" cx="622.62" cy="627.48" r="10.56"/>
        <circle class="cls-5" cx="613.67" cy="641.83" r="10.56"/>
        <circle class="cls-3" cx="616.9" cy="633.75" r="10.56"/>
      </g>
      <g>
        <circle class="cls-4" cx="100.1" cy="661.59" r="12.98"/>
        <circle class="cls-7" cx="44.39" cy="663.49" r="12.98"/>
        <circle class="cls-4" cx="55.64" cy="661.99" r="12.98"/>
        <circle class="cls-7" cx="81.6" cy="664.49" r="12.98"/>
        <circle class="cls-8" cx="100.1" cy="665.49" r="12.98"/>
        <circle class="cls-6" cx="125.09" cy="663.73" r="12.98" transform="translate(-540.48 778.63) rotate(-89.12)"/>
        <circle class="cls-8" cx="68.62" cy="655.87" r="12.98" transform="translate(-588.23 714.44) rotate(-89.12)"/>
        <circle class="cls-7" cx="51.96" cy="657.22" r="12.98" transform="translate(-605.98 699.11) rotate(-89.12)"/>
        <circle class="cls-5" cx="36.89" cy="661.02" r="12.98" transform="translate(-624.61 687.79) rotate(-89.12)"/>
        <circle class="cls-8" cx="18.53" cy="652.79" r="12.98" transform="translate(-634.48 661.32) rotate(-89.12)"/>
        <circle class="cls-4" cx="4.23" cy="655.6" r="12.98" transform="translate(-651.35 649.79) rotate(-89.12)"/>
        <circle class="cls-6" cx="179.08" cy="668.85" r="12.98"/>
        <circle class="cls-7" cx="412.81" cy="652.45" r="12.98" transform="translate(-245.89 1055.22) rotate(-89.12)"/>
        <circle class="cls-8" cx="390.06" cy="652.61" r="12.98" transform="translate(-268.45 1032.62) rotate(-89.12)"/>
        <circle class="cls-3" cx="334.39" cy="649.75" r="12.98" transform="translate(-320.41 974.15) rotate(-89.12)"/>
        <circle class="cls-4" cx="318.13" cy="652.51" r="12.98" transform="translate(-339.17 960.6) rotate(-89.12)"/>
        <circle class="cls-4" cx="287.07" cy="657.1" r="12.98" transform="translate(-374.35 934.08) rotate(-89.12)"/>
        <circle class="cls-6" cx="251.83" cy="661.68" r="12.98" transform="translate(-413.63 903.34) rotate(-89.12)"/>
        <circle class="cls-4" cx="625.16" cy="652.45" r="12.98" transform="translate(-36.79 1267.55) rotate(-89.12)"/>
        <circle class="cls-6" cx="602.41" cy="652.61" r="12.98" transform="translate(-59.35 1244.95) rotate(-89.12)"/>
        <circle class="cls-6" cx="530.48" cy="652.51" r="12.98" transform="translate(-130.07 1172.93) rotate(-89.12)"/>
        <circle class="cls-3" cx="498.03" cy="656.5" r="12.98" transform="translate(-166.02 1144.43) rotate(-89.12)"/>
        <circle class="cls-5" cx="467.2" cy="652.51" r="12.98" transform="translate(-192.39 1109.67) rotate(-89.12)"/>
        <circle class="cls-4" cx="4.39" cy="675.35" r="12.98"/>
        <circle class="cls-6" cx="29.64" cy="676.35" r="12.98"/>
        <circle class="cls-8" cx="45.64" cy="677.6" r="12.98"/>
        <circle class="cls-4" cx="67.14" cy="675.85" r="12.98"/>
        <circle class="cls-8" cx="87.12" cy="678.47" r="12.98"/>
        <circle class="cls-7" cx="112.2" cy="675.85" r="12.98"/>
        <circle class="cls-4" cx="165.97" cy="676.71" r="12.98"/>
        <circle class="cls-3" cx="21.64" cy="674" r="12.98"/>
        <circle class="cls-6" cx="152.81" cy="677.67" r="12.98"/>
        <circle class="cls-4" cx="127.39" cy="680.08" r="12.98" transform="translate(-554.56 797.04) rotate(-89.12)"/>
        <circle class="cls-6" cx="167.4" cy="683.52" r="12.98" transform="translate(-518.6 840.43) rotate(-89.12)"/>
        <circle class="cls-8" cx="139.09" cy="672.37" r="12.98" transform="translate(-535.33 801.14) rotate(-89.12)"/>
        <circle class="cls-7" cx="145.38" cy="692" r="12.98" transform="translate(-548.77 826.76) rotate(-89.12)"/>
        <circle class="cls-7" cx="138.59" cy="689.79" r="12.98" transform="translate(-553.24 817.8) rotate(-89.12)"/>
        <circle class="cls-4" cx="121.66" cy="692.39" r="12.98" transform="translate(-572.51 803.43) rotate(-89.12)"/>
        <circle class="cls-6" cx="97.92" cy="691.78" r="12.98" transform="translate(-595.28 779.09) rotate(-89.12)"/>
        <circle class="cls-6" cx="70.96" cy="690.86" r="12.98" transform="translate(-620.9 751.23) rotate(-89.12)"/>
        <circle class="cls-3" cx="46.57" cy="689.63" r="12.98" transform="translate(-643.7 725.64) rotate(-89.12)"/>
        <circle class="cls-6" cx="5.03" cy="692.35" r="12.98" transform="translate(-687.32 686.78) rotate(-89.12)"/>
        <circle class="cls-6" cx="170.78" cy="696.76" r="12.98"/>
        <circle class="cls-6" cx="156.6" cy="709.94" r="12.98" transform="translate(-555.65 855.64) rotate(-89.12)"/>
        <circle class="cls-8" cx="112.2" cy="705.75" r="12.98" transform="translate(-595.19 807.13) rotate(-89.12)"/>
        <circle class="cls-4" cx="95.95" cy="708.51" r="12.98" transform="translate(-613.95 793.59) rotate(-89.12)"/>
        <circle class="cls-6" cx="81.38" cy="699.28" r="12.98" transform="translate(-619.06 769.94) rotate(-89.12)"/>
        <circle class="cls-7" cx="63.5" cy="705" r="12.98" transform="translate(-642.4 757.69) rotate(-89.12)"/>
        <circle class="cls-6" cx="32.89" cy="701.18" r="12.98" transform="translate(-668.71 723.33) rotate(-89.12)"/>
        <circle class="cls-8" cx="15.83" cy="696.11" r="12.98" transform="translate(-680.44 701.28) rotate(-89.12)"/>
        <circle class="cls-4" cx="131.01" cy="696.11" r="12.98"/>
        <circle class="cls-4" cx="21.64" cy="719.99" r="12.98"/>
        <circle class="cls-3" cx="44.39" cy="719.49" r="12.98"/>
        <circle class="cls-3" cx="55.64" cy="717.99" r="12.98"/>
        <circle class="cls-3" cx="116.31" cy="718.49" r="12.98"/>
        <circle class="cls-3" cx="160.22" cy="713.1" r="12.98"/>
        <circle class="cls-7" cx="51.96" cy="713.22" r="12.98" transform="translate(-661.97 754.25) rotate(-89.12)"/>
        <circle class="cls-7" cx="4.23" cy="711.6" r="12.98" transform="translate(-707.35 704.93) rotate(-89.12)"/>
        <circle class="cls-6" cx="135.83" cy="711.87" r="12.98" transform="translate(-578.04 836.79) rotate(-89.12)"/>
        <circle class="cls-6" cx="77.87" cy="720.49" r="12.98"/>
        <circle class="cls-3" cx="100.1" cy="721.49" r="12.98"/>
        <circle class="cls-5" cx="148.81" cy="721.49" r="12.98"/>
        <circle class="cls-4" cx="4.39" cy="735.25" r="12.98"/>
        <circle class="cls-6" cx="29.64" cy="736.25" r="12.98"/>
        <circle class="cls-4" cx="45.64" cy="737.5" r="12.98"/>
        <circle class="cls-6" cx="67.14" cy="735.75" r="12.98"/>
        <circle class="cls-6" cx="90.84" cy="735" r="12.98"/>
        <circle class="cls-8" cx="114.6" cy="735.25" r="12.98"/>
        <circle class="cls-7" cx="131.01" cy="727.49" r="12.98"/>
        <circle class="cls-6" cx="141.56" cy="735.75" r="12.98"/>
        <circle class="cls-4" cx="161.31" cy="735.25" r="12.98" transform="translate(-576.33 885.27) rotate(-89.12)"/>
        <circle class="cls-7" cx="200.89" cy="662.47" r="12.98" transform="translate(-396.09 311.99) rotate(-42.71)"/>
        <circle class="cls-6" cx="226.33" cy="662.6" r="12.98" transform="translate(-389.43 329.29) rotate(-42.71)"/>
        <circle class="cls-4" cx="322.28" cy="661.59" r="12.98"/>
        <circle class="cls-4" cx="366.17" cy="658.96" r="12.98"/>
        <circle class="cls-3" cx="243.83" cy="663.99" r="12.98"/>
        <circle class="cls-8" cx="270.72" cy="676.15" r="12.98"/>
        <circle class="cls-3" cx="281.97" cy="674.65" r="12.98"/>
        <circle class="cls-3" cx="303.78" cy="664.49" r="12.98"/>
        <circle class="cls-7" cx="338.49" cy="662.49" r="12.98"/>
        <circle class="cls-7" cx="382.4" cy="657.1" r="12.98"/>
        <circle class="cls-7" cx="415.9" cy="661.02" r="12.98"/>
        <circle class="cls-8" cx="430.15" cy="657.99" r="12.98"/>
        <circle class="cls-5" cx="278.29" cy="669.89" r="12.98" transform="translate(-395.78 937.88) rotate(-89.12)"/>
        <circle class="cls-8" cx="534.63" cy="661.59" r="12.98"/>
        <circle class="cls-4" cx="583.35" cy="661.6" r="12.98"/>
        <circle class="cls-6" cx="456.18" cy="663.99" r="12.98"/>
        <circle class="cls-4" cx="478.93" cy="663.49" r="12.98"/>
        <circle class="cls-6" cx="490.18" cy="661.99" r="12.98"/>
        <circle class="cls-6" cx="516.13" cy="664.49" r="12.98"/>
        <circle class="cls-6" cx="550.85" cy="662.49" r="12.98"/>
        <circle class="cls-6" cx="594.75" cy="657.1" r="12.98"/>
        <circle class="cls-5" cx="628.25" cy="661.02" r="12.98"/>
        <circle class="cls-7" cx="642.5" cy="657.99" r="12.98"/>
        <circle class="cls-4" cx="591.14" cy="653.94" r="12.98" transform="translate(-71.77 1234.99) rotate(-89.12)"/>
        <circle class="cls-4" cx="438.77" cy="655.6" r="12.98" transform="translate(-223.47 1084.27) rotate(-89.12)"/>
        <circle class="cls-7" cx="353.2" cy="667.6" r="12.98"/>
        <circle class="cls-7" cx="401.65" cy="664.95" r="12.98"/>
        <circle class="cls-4" cx="229.73" cy="671.49" r="12.98" transform="translate(-389.32 324.42) rotate(-41.84)"/>
        <circle class="cls-8" cx="322.28" cy="665.49" r="12.98"/>
        <circle class="cls-4" cx="353.2" cy="671.49" r="12.98"/>
        <circle class="cls-5" cx="370.99" cy="665.49" r="12.98"/>
        <circle class="cls-3" cx="401.65" cy="668.85" r="12.98"/>
        <circle class="cls-5" cx="565.55" cy="667.6" r="12.98"/>
        <circle class="cls-3" cx="614" cy="664.95" r="12.98"/>
        <circle class="cls-7" cx="544.32" cy="676.71" r="12.98"/>
        <circle class="cls-7" cx="565.55" cy="675.85" r="12.98"/>
        <circle class="cls-6" cx="593.35" cy="671.49" r="12.98"/>
        <circle class="cls-6" cx="618.28" cy="672.37" r="12.98"/>
        <circle class="cls-6" cx="192.47" cy="674.35" r="12.98" transform="translate(-406.39 309.43) rotate(-42.71)"/>
        <circle class="cls-7" cx="253.6" cy="680.08" r="12.98"/>
        <circle class="cls-3" cx="271.97" cy="690.27" r="12.98"/>
        <circle class="cls-7" cx="289.32" cy="675.85" r="12.98"/>
        <circle class="cls-7" cx="313.03" cy="675.1" r="12.98"/>
        <circle class="cls-6" cx="336.78" cy="675.35" r="12.98"/>
        <circle class="cls-3" cx="363.74" cy="675.85" r="12.98"/>
        <circle class="cls-4" cx="388.15" cy="676.71" r="12.98"/>
        <circle class="cls-3" cx="418.9" cy="676.87" r="12.98"/>
        <circle class="cls-7" cx="429.65" cy="673.35" r="12.98"/>
        <circle class="cls-5" cx="438.93" cy="675.35" r="12.98"/>
        <circle class="cls-7" cx="464.18" cy="676.35" r="12.98"/>
        <circle class="cls-3" cx="480.18" cy="677.6" r="12.98"/>
        <circle class="cls-4" cx="501.68" cy="675.85" r="12.98"/>
        <circle class="cls-7" cx="525.38" cy="675.1" r="12.98"/>
        <circle class="cls-8" cx="581.78" cy="680.57" r="12.98"/>
        <circle class="cls-4" cx="607.73" cy="684.47" r="12.98"/>
        <circle class="cls-5" cx="626.98" cy="687.63" r="12.98"/>
        <circle class="cls-7" cx="642" cy="673.35" r="12.98"/>
        <circle class="cls-8" cx="207.47" cy="675.1" r="12.98" transform="translate(-397.4 310.5) rotate(-41.84)"/>
        <circle class="cls-5" cx="464.18" cy="686.27" r="12.98" transform="translate(-229.12 1139.88) rotate(-89.12)"/>
        <circle class="cls-6" cx="523.19" cy="687.68" r="12.98" transform="translate(-172.43 1200.28) rotate(-89.12)"/>
        <circle class="cls-4" cx="205.43" cy="683.97" r="12.98" transform="translate(-409.47 320.77) rotate(-42.71)"/>
        <circle class="cls-7" cx="199.99" cy="686.27" r="12.98"/>
        <circle class="cls-8" cx="188.58" cy="690.76" r="12.98"/>
        <circle class="cls-3" cx="430.29" cy="693.46" r="12.98" transform="translate(-269.68 1113.08) rotate(-89.12)"/>
        <circle class="cls-7" cx="405.06" cy="692.08" r="12.98" transform="translate(-293.14 1086.49) rotate(-89.12)"/>
        <circle class="cls-4" cx="389.08" cy="690.58" r="12.98" transform="translate(-307.38 1069.04) rotate(-89.12)"/>
        <circle class="cls-7" cx="383" cy="689.63" r="12.98" transform="translate(-312.42 1062.03) rotate(-89.12)"/>
        <circle class="cls-3" cx="367.56" cy="692" r="12.98" transform="translate(-329.99 1048.92) rotate(-89.12)"/>
        <circle class="cls-8" cx="345.84" cy="690.65" r="12.98" transform="translate(-350.02 1025.87) rotate(-89.12)"/>
        <circle class="cls-3" cx="323.8" cy="691.33" r="12.98" transform="translate(-372.41 1004.51) rotate(-89.12)"/>
        <circle class="cls-5" cx="297.87" cy="687.7" r="12.98" transform="translate(-394.31 975.01) rotate(-89.12)"/>
        <circle class="cls-8" cx="296.61" cy="696.11" r="12.98" transform="translate(-403.96 982.02) rotate(-89.12)"/>
        <circle class="cls-7" cx="642.65" cy="693.46" r="12.98" transform="translate(-60.58 1325.41) rotate(-89.12)"/>
        <circle class="cls-4" cx="610.75" cy="698.82" r="12.98" transform="translate(-97.34 1298.79) rotate(-89.12)"/>
        <circle class="cls-7" cx="591.14" cy="692.19" r="12.98" transform="translate(-110.03 1272.66) rotate(-89.12)"/>
        <circle class="cls-8" cx="556.2" cy="692.39" r="12.98" transform="translate(-144.63 1237.92) rotate(-89.12)"/>
        <circle class="cls-7" cx="532.45" cy="691.78" r="12.98" transform="translate(-167.4 1213.57) rotate(-89.12)"/>
        <circle class="cls-3" cx="505.5" cy="690.86" r="12.98" transform="translate(-193.02 1185.72) rotate(-89.12)"/>
        <circle class="cls-7" cx="485.58" cy="693.42" r="12.98" transform="translate(-215.19 1168.32) rotate(-89.12)"/>
        <circle class="cls-3" cx="450.37" cy="688.99" r="12.98" transform="translate(-245.45 1128.76) rotate(-89.12)"/>
        <circle class="cls-5" cx="439.56" cy="692.35" r="12.98" transform="translate(-259.44 1121.26) rotate(-89.12)"/>
        <circle class="cls-6" cx="572.26" cy="696.11" r="12.98" transform="translate(-132.54 1257.64) rotate(-89.12)"/>
        <circle class="cls-5" cx="223.91" cy="690.58" r="12.98" transform="translate(-470.02 903.89) rotate(-89.12)"/>
        <circle class="cls-6" cx="238.01" cy="688.99" r="12.98" transform="translate(-454.55 916.43) rotate(-89.12)"/>
        <circle class="cls-3" cx="170.78" cy="700.66" r="12.98"/>
        <circle class="cls-3" cx="303.57" cy="699.28" r="12.98" transform="translate(-400.28 992.1) rotate(-89.12)"/>
        <circle class="cls-7" cx="511.01" cy="706.51" r="12.98" transform="translate(-203.24 1206.64) rotate(-89.12)"/>
        <circle class="cls-3" cx="212.25" cy="697.8" r="12.98" transform="translate(-488.72 899.35) rotate(-89.12)"/>
        <circle class="cls-7" cx="181.33" cy="705.02" r="12.98"/>
        <circle class="cls-3" cx="255.08" cy="701.18" r="12.98" transform="translate(-449.92 945.49) rotate(-89.12)"/>
        <circle class="cls-5" cx="480.92" cy="701.99" r="12.98" transform="translate(-262.39 1116.2) rotate(-84.71)"/>
        <circle class="cls-6" cx="467.43" cy="701.18" r="12.98" transform="translate(-240.82 1157.82) rotate(-89.12)"/>
        <circle class="cls-3" cx="190.63" cy="708.45" r="12.98" transform="translate(-520.66 888.21) rotate(-89.12)"/>
        <circle class="cls-3" cx="382.4" cy="713.1" r="12.98"/>
        <circle class="cls-6" cx="430.15" cy="713.99" r="12.98"/>
        <circle class="cls-6" cx="412.81" cy="708.45" r="12.98" transform="translate(-301.88 1110.37) rotate(-89.12)"/>
        <circle class="cls-5" cx="390.06" cy="708.61" r="12.98" transform="translate(-324.44 1087.77) rotate(-89.12)"/>
        <circle class="cls-4" cx="352.87" cy="707.04" r="12.98" transform="translate(-359.49 1049.04) rotate(-89.12)"/>
        <circle class="cls-7" cx="334.39" cy="705.75" r="12.98" transform="translate(-376.4 1029.29) rotate(-89.12)"/>
        <circle class="cls-7" cx="318.13" cy="708.51" r="12.98" transform="translate(-395.16 1015.75) rotate(-89.12)"/>
        <circle class="cls-5" cx="285.68" cy="705" r="12.98" transform="translate(-423.62 979.85) rotate(-89.12)"/>
        <circle class="cls-7" cx="264.85" cy="707.51" r="12.98" transform="translate(-446.64 961.5) rotate(-89.12)"/>
        <circle class="cls-3" cx="642.5" cy="713.99" r="12.98"/>
        <circle class="cls-8" cx="625.16" cy="708.45" r="12.98" transform="translate(-92.78 1322.7) rotate(-89.12)"/>
        <circle class="cls-4" cx="607.73" cy="717.02" r="12.98" transform="translate(-118.51 1313.7) rotate(-89.12)"/>
        <circle class="cls-7" cx="591.14" cy="709.94" r="12.98" transform="translate(-127.77 1290.13) rotate(-89.12)"/>
        <circle class="cls-4" cx="570.28" cy="711.37" r="12.98" transform="translate(-149.74 1270.69) rotate(-89.12)"/>
        <circle class="cls-4" cx="546.74" cy="705.75" r="12.98" transform="translate(-167.3 1241.62) rotate(-89.12)"/>
        <circle class="cls-7" cx="530.48" cy="708.51" r="12.98" transform="translate(-186.06 1228.08) rotate(-89.12)"/>
        <circle class="cls-4" cx="493.16" cy="709.69" r="12.98" transform="translate(-224 1191.92) rotate(-89.12)"/>
        <circle class="cls-7" cx="453.06" cy="708.79" r="12.98" transform="translate(-262.59 1150.95) rotate(-89.12)"/>
        <circle class="cls-7" cx="438.77" cy="711.6" r="12.98" transform="translate(-279.46 1139.42) rotate(-89.12)"/>
        <circle class="cls-6" cx="240.71" cy="708.79" r="12.98" transform="translate(-471.69 938.62) rotate(-89.12)"/>
        <circle class="cls-4" cx="221.9" cy="708.51" r="12.98" transform="translate(-489.92 919.53) rotate(-89.12)"/>
        <circle class="cls-7" cx="207.97" cy="713.99" r="12.98"/>
        <circle class="cls-3" cx="266.58" cy="719.49" r="12.98"/>
        <circle class="cls-4" cx="283.7" cy="719.49" r="12.98"/>
        <circle class="cls-6" cx="303.78" cy="720.49" r="12.98"/>
        <circle class="cls-7" cx="322.28" cy="721.49" r="12.98"/>
        <circle class="cls-3" cx="338.49" cy="718.49" r="12.98"/>
        <circle class="cls-4" cx="369.27" cy="711.8" r="12.98"/>
        <circle class="cls-4" cx="415.9" cy="717.02" r="12.98"/>
        <circle class="cls-3" cx="456.18" cy="719.99" r="12.98"/>
        <circle class="cls-3" cx="478.93" cy="719.49" r="12.98"/>
        <circle class="cls-7" cx="496.84" cy="726.97" r="12.98"/>
        <circle class="cls-8" cx="516.13" cy="720.49" r="12.98"/>
        <circle class="cls-4" cx="534.63" cy="721.49" r="12.98"/>
        <circle class="cls-3" cx="550.85" cy="718.49" r="12.98"/>
        <circle class="cls-3" cx="587.53" cy="722.02" r="12.98"/>
        <circle class="cls-7" cx="628.25" cy="717.02" r="12.98"/>
        <circle class="cls-4" cx="243.83" cy="719.99" r="12.98"/>
        <circle class="cls-8" cx="193.72" cy="717.02" r="12.98"/>
        <circle class="cls-3" cx="223.51" cy="717.02" r="12.98" transform="translate(-496.85 929.52) rotate(-89.12)"/>
        <circle class="cls-4" cx="179.47" cy="724.85" r="12.98"/>
        <circle class="cls-6" cx="179.08" cy="735" r="12.98"/>
        <circle class="cls-6" cx="267.83" cy="737.5" r="12.98"/>
        <circle class="cls-3" cx="289.32" cy="735.75" r="12.98"/>
        <circle class="cls-8" cx="313.03" cy="735" r="12.98"/>
        <circle class="cls-8" cx="336.78" cy="735.25" r="12.98"/>
        <circle class="cls-6" cx="353.2" cy="727.49" r="12.98"/>
        <circle class="cls-7" cx="370.99" cy="730.97" r="12.98"/>
        <circle class="cls-6" cx="388.15" cy="736.6" r="12.98"/>
        <circle class="cls-8" cx="401.65" cy="724.85" r="12.98"/>
        <circle class="cls-3" cx="418.9" cy="736.77" r="12.98"/>
        <circle class="cls-4" cx="429.65" cy="733.25" r="12.98"/>
        <circle class="cls-5" cx="444.86" cy="733.25" r="12.98"/>
        <circle class="cls-5" cx="401.65" cy="743.94" r="12.98"/>
        <circle class="cls-7" cx="464.18" cy="736.25" r="12.98"/>
        <circle class="cls-4" cx="480.18" cy="737.5" r="12.98"/>
        <circle class="cls-4" cx="503.16" cy="740.47" r="12.98"/>
        <circle class="cls-6" cx="525.38" cy="735" r="12.98"/>
        <circle class="cls-4" cx="549.13" cy="735.25" r="12.98"/>
        <circle class="cls-5" cx="565.39" cy="731.47" r="12.98"/>
        <circle class="cls-4" cx="576.1" cy="735.75" r="12.98"/>
        <circle class="cls-4" cx="600.51" cy="736.6" r="12.98"/>
        <circle class="cls-8" cx="618.28" cy="733.47" r="12.98"/>
        <circle class="cls-5" cx="631.25" cy="736.77" r="12.98"/>
        <circle class="cls-3" cx="642" cy="733.25" r="12.98"/>
        <circle class="cls-7" cx="251.83" cy="736.25" r="12.98"/>
        <circle class="cls-7" cx="353.2" cy="743.94" r="12.98"/>
        <circle class="cls-3" cx="226.58" cy="735.25" r="12.98"/>
        <circle class="cls-6" cx="196.72" cy="736.77" r="12.98"/>
        <circle class="cls-3" cx="207.47" cy="733.25" r="12.98"/>
      </g>
    <g id="LTM_Category_Labels" data-name="LTM Category Labels">
      <rect class="cls-38" y="668.07" width="640" height="68"/>
      <g>
        <path class="cls-39" d="M263.93,705.43l1.73,0.66a21.31,21.31,0,0,0-1.27,4,18.86,18.86,0,0,0-.27,2q-0.09,1-.09,2.24t0.09,2.25a18.91,18.91,0,0,0,.27,2,20.54,20.54,0,0,0,1.27,4l-1.73.66A22.58,22.58,0,0,1,263.93,705.43Z"/>
        <path class="cls-39" d="M278.14,708.59h-4.47v3.08H278v1.82h-4.31v6.1h-1.93V706.78h6.4v1.82Z"/>
        <path class="cls-39" d="M290.47,716.48H285l-1.43,3.11h-2.08L287.81,706l6.12,13.62h-2.12Zm-0.79-1.82-1.9-4.36-2,4.36h3.89Z"/>
        <path class="cls-39" d="M307.8,707.47v2.29a5.37,5.37,0,0,0-3.47-1.4,4.42,4.42,0,0,0-3.33,1.42,4.79,4.79,0,0,0-1.36,3.45,4.67,4.67,0,0,0,1.36,3.4,4.49,4.49,0,0,0,3.34,1.39,4.09,4.09,0,0,0,1.73-.33,5,5,0,0,0,.83-0.45,9.89,9.89,0,0,0,.9-0.68v2.33a7,7,0,0,1-3.49.94,6.43,6.43,0,0,1-4.69-1.92,6.36,6.36,0,0,1-1.93-4.67,6.58,6.58,0,0,1,1.62-4.37,6.44,6.44,0,0,1,5.15-2.35A6.54,6.54,0,0,1,307.8,707.47Z"/>
        <path class="cls-39" d="M317.18,708.59v11h-1.93v-11H312.3v-1.82h7.82v1.82h-2.94Z"/>
        <path class="cls-39" d="M332.48,708.69l-1.57.93a2.7,2.7,0,0,0-.84-1,2.23,2.23,0,0,0-2.41.19,1.42,1.42,0,0,0-.53,1.13,1.78,1.78,0,0,0,1.39,1.51L329.8,712a5.45,5.45,0,0,1,2.28,1.54,3.47,3.47,0,0,1,.72,2.23,3.92,3.92,0,0,1-1.18,2.92,4,4,0,0,1-2.95,1.16,3.94,3.94,0,0,1-2.76-1,4.55,4.55,0,0,1-1.34-2.78l2-.43a3.33,3.33,0,0,0,.46,1.56,2.21,2.21,0,0,0,3.25.22,2.1,2.1,0,0,0,.6-1.54,2.15,2.15,0,0,0-.1-0.69,1.73,1.73,0,0,0-.32-0.57,2.62,2.62,0,0,0-.57-0.49,5.5,5.5,0,0,0-.83-0.44l-1.24-.51q-2.63-1.11-2.63-3.25a3.09,3.09,0,0,1,1.1-2.42,4,4,0,0,1,2.75-1A3.84,3.84,0,0,1,332.48,708.69Z"/>
        <path class="cls-39" d="M339.89,723.15l-1.73-.66a20.54,20.54,0,0,0,1.27-4,20.59,20.59,0,0,0-1.27-12.39l1.73-.66A22.58,22.58,0,0,1,339.89,723.15Z"/>
      </g>
      <g>
        <path class="cls-39" d="M235.24,685.1L233,686.42a3.81,3.81,0,0,0-1.18-1.41,2.76,2.76,0,0,0-1.51-.37,2.79,2.79,0,0,0-1.89.64,2,2,0,0,0-.75,1.59q0,1.32,2,2.13l1.8,0.74a7.7,7.7,0,0,1,3.22,2.17,4.9,4.9,0,0,1,1,3.15,5.53,5.53,0,0,1-1.66,4.13,5.71,5.71,0,0,1-4.16,1.64,5.57,5.57,0,0,1-3.89-1.39,6.42,6.42,0,0,1-1.89-3.93l2.77-.61a4.7,4.7,0,0,0,.66,2.2,3.12,3.12,0,0,0,4.58.32,3,3,0,0,0,.84-2.17,3,3,0,0,0-.15-1,2.45,2.45,0,0,0-.46-0.81,3.65,3.65,0,0,0-.8-0.69,7.73,7.73,0,0,0-1.17-.62l-1.75-.73q-3.71-1.57-3.71-4.59a4.36,4.36,0,0,1,1.56-3.41,5.63,5.63,0,0,1,3.88-1.38A5.42,5.42,0,0,1,235.24,685.1Z"/>
        <path class="cls-39" d="M253.79,685h-7.25v4.35h7v2.57h-7v6h7.25v2.57h-10V682.41h10V685Z"/>
        <path class="cls-39" d="M261.54,700.5L265.35,681l6.21,14.06L278,681l3.42,19.45h-2.8l-1.75-10.92-5.36,11.75-5.2-11.77-1.95,10.93h-2.82Z"/>
        <path class="cls-39" d="M300.68,696.11h-7.75l-2,4.39H288l9-19.23,8.64,19.23h-3Zm-1.11-2.57-2.68-6.15-2.81,6.15h5.5Z"/>
        <path class="cls-39" d="M312.63,700.5V681.18l13.2,13.8V682.41h2.73v19.2l-13.2-13.77V700.5h-2.73Z"/>
        <path class="cls-39" d="M342.68,685V700.5h-2.73V685h-4.16v-2.57h11V685h-4.15Z"/>
        <path class="cls-39" d="M356.79,682.41V700.5h-2.73V682.41h2.73Z"/>
        <path class="cls-39" d="M379.31,683.38v3.23a7.57,7.57,0,0,0-4.9-2,6.24,6.24,0,0,0-4.7,2,6.76,6.76,0,0,0-1.92,4.88,6.59,6.59,0,0,0,1.92,4.8,6.35,6.35,0,0,0,4.71,2,5.78,5.78,0,0,0,2.45-.47,7.06,7.06,0,0,0,1.17-.63,13.78,13.78,0,0,0,1.27-1v3.29a9.86,9.86,0,0,1-4.92,1.32,9.08,9.08,0,0,1-6.62-2.71,9,9,0,0,1-2.73-6.59,9.29,9.29,0,0,1,2.29-6.16,9.1,9.1,0,0,1,7.28-3.32A9.24,9.24,0,0,1,379.31,683.38Z"/>
      </g>
      <g>
        <path class="cls-39" d="M434.95,705.43l1.73,0.66a21.31,21.31,0,0,0-1.27,4,18.86,18.86,0,0,0-.27,2q-0.09,1-.09,2.24t0.09,2.25a18.91,18.91,0,0,0,.27,2,20.54,20.54,0,0,0,1.27,4l-1.73.66A22.58,22.58,0,0,1,434.95,705.43Z"/>
        <path class="cls-39" d="M447.1,714.13l4,5.46h-2.37L445,714.35H444.7v5.25h-1.93V706.78H445a5.66,5.66,0,0,1,3.67,1,3.51,3.51,0,0,1,1.25,2.81,3.64,3.64,0,0,1-.78,2.34A3.47,3.47,0,0,1,447.1,714.13Zm-2.41-1.47h0.61q2.75,0,2.75-2.1t-2.67-2H444.7v4.07Z"/>
        <path class="cls-39" d="M458.14,706.78v7.72a4.25,4.25,0,0,0,.54,2.42,2.89,2.89,0,0,0,4.54,0,4.18,4.18,0,0,0,.54-2.42v-7.72h1.93V715a4.62,4.62,0,0,1-1.26,3.34,4.88,4.88,0,0,1-7,0,4.62,4.62,0,0,1-1.26-3.34v-8.25h1.93Z"/>
        <path class="cls-39" d="M474.1,706.78v11h3.77v1.82h-5.7V706.78h1.93Z"/>
        <path class="cls-39" d="M490.17,708.59H485v3.08h5v1.82h-5v4.28h5.14v1.82H483.1V706.78h7.07v1.82Z"/>
        <path class="cls-39" d="M503.36,708.69l-1.57.93a2.7,2.7,0,0,0-.84-1,2.23,2.23,0,0,0-2.41.19,1.42,1.42,0,0,0-.53,1.13,1.78,1.78,0,0,0,1.39,1.51l1.28,0.52a5.45,5.45,0,0,1,2.28,1.54,3.47,3.47,0,0,1,.72,2.23,3.92,3.92,0,0,1-1.18,2.92,4,4,0,0,1-2.95,1.16,3.94,3.94,0,0,1-2.76-1,4.55,4.55,0,0,1-1.34-2.78l2-.43a3.32,3.32,0,0,0,.46,1.56,2.21,2.21,0,0,0,3.25.22,2.1,2.1,0,0,0,.6-1.54,2.15,2.15,0,0,0-.1-0.69,1.74,1.74,0,0,0-.32-0.57,2.63,2.63,0,0,0-.57-0.49,5.48,5.48,0,0,0-.83-0.44l-1.24-.51q-2.63-1.11-2.63-3.25a3.08,3.08,0,0,1,1.1-2.42,4,4,0,0,1,2.75-1A3.84,3.84,0,0,1,503.36,708.69Z"/>
        <path class="cls-39" d="M523.11,712.46l2.31,2.79,0.07-.08q0.37-.41.71-0.8c0.22-.26.43-0.52,0.64-0.79l1.26,1.29c-0.15.22-.36,0.48-0.61,0.77l-0.9,1,2.37,2.93h-2.41L525.28,718a5.12,5.12,0,0,1-3.66,1.82,4.12,4.12,0,0,1-2.89-1.09,3.57,3.57,0,0,1-1.16-2.71,3.76,3.76,0,0,1,1.84-3.19l0.84-.57,0.06,0,0.12-.09a4,4,0,0,1-1.27-2.67,2.79,2.79,0,0,1,.85-2.11,3.43,3.43,0,0,1,4.41,0,2.59,2.59,0,0,1,.86,2,2.55,2.55,0,0,1-.47,1.5A8.05,8.05,0,0,1,523.11,712.46Zm-1.54,1.09-0.11.07a9.31,9.31,0,0,0-1.62,1.32,1.6,1.6,0,0,0-.42,1.05,2.19,2.19,0,0,0,2.1,2.1,4,4,0,0,0,2.58-1.47ZM522,711.1l0.16-.12c0.27-.2.5-0.38,0.67-0.54a2.51,2.51,0,0,0,.38-0.38,1.16,1.16,0,0,0,.25-0.76,1.07,1.07,0,0,0-.34-0.82,1.29,1.29,0,0,0-.91-0.31,1.26,1.26,0,0,0-.88.32,1,1,0,0,0-.36.79,1.75,1.75,0,0,0,.45,1.11l0.48,0.58Z"/>
        <path class="cls-39" d="M549.79,708.69l-1.57.93a2.7,2.7,0,0,0-.84-1,2.23,2.23,0,0,0-2.41.19,1.42,1.42,0,0,0-.53,1.13,1.78,1.78,0,0,0,1.39,1.51l1.28,0.52a5.45,5.45,0,0,1,2.28,1.54,3.47,3.47,0,0,1,.72,2.23,3.92,3.92,0,0,1-1.18,2.92,4,4,0,0,1-2.95,1.16,3.94,3.94,0,0,1-2.76-1,4.55,4.55,0,0,1-1.34-2.78l2-.43a3.32,3.32,0,0,0,.46,1.56,2.21,2.21,0,0,0,3.25.22,2.1,2.1,0,0,0,.6-1.54,2.15,2.15,0,0,0-.1-0.69,1.74,1.74,0,0,0-.32-0.57,2.63,2.63,0,0,0-.57-0.49,5.48,5.48,0,0,0-.83-0.44l-1.24-.51q-2.63-1.11-2.63-3.25a3.08,3.08,0,0,1,1.1-2.42,4,4,0,0,1,2.75-1A3.84,3.84,0,0,1,549.79,708.69Z"/>
        <path class="cls-39" d="M557.79,711.89l5-5.11h2.58l-5.79,5.8,5.83,7H562.8l-4.62-5.7-0.4.4v5.3h-1.93V706.78h1.93v5.11Z"/>
        <path class="cls-39" d="M572.45,706.78v12.82h-1.93V706.78h1.93Z"/>
        <path class="cls-39" d="M580.87,706.78v11h3.77v1.82h-5.7V706.78h1.93Z"/>
        <path class="cls-39" d="M591.8,706.78v11h3.77v1.82h-5.7V706.78h1.93Z"/>
        <path class="cls-39" d="M608.1,708.69l-1.57.93a2.71,2.71,0,0,0-.84-1,2,2,0,0,0-1.07-.27,2,2,0,0,0-1.34.46,1.42,1.42,0,0,0-.53,1.13,1.78,1.78,0,0,0,1.39,1.51l1.28,0.52a5.45,5.45,0,0,1,2.28,1.54,3.47,3.47,0,0,1,.72,2.23,3.92,3.92,0,0,1-1.18,2.92,4,4,0,0,1-2.95,1.16,3.94,3.94,0,0,1-2.76-1,4.55,4.55,0,0,1-1.34-2.78l2-.43a3.34,3.34,0,0,0,.46,1.56,2.21,2.21,0,0,0,3.25.22,2.1,2.1,0,0,0,.6-1.54,2.15,2.15,0,0,0-.1-0.69,1.72,1.72,0,0,0-.32-0.57,2.6,2.6,0,0,0-.57-0.49,5.52,5.52,0,0,0-.83-0.44l-1.24-.51q-2.63-1.11-2.63-3.25a3.09,3.09,0,0,1,1.1-2.42,4,4,0,0,1,2.75-1A3.84,3.84,0,0,1,608.1,708.69Z"/>
        <path class="cls-39" d="M615.51,723.15l-1.73-.66a20.55,20.55,0,0,0,1.27-4,20.59,20.59,0,0,0-1.27-12.39l1.73-.66A22.58,22.58,0,0,1,615.51,723.15Z"/>
      </g>
      <g>
        <path class="cls-39" d="M429.69,693.15v7.35H427V682.41h3.09a14,14,0,0,1,3.43.32,4.6,4.6,0,0,1,2.06,1.2,5.15,5.15,0,0,1,1.56,3.84,5,5,0,0,1-1.66,3.94,6.58,6.58,0,0,1-4.49,1.45h-1.27Zm0-2.53h1q3.76,0,3.76-2.89t-3.88-2.8h-0.9v5.7Z"/>
        <path class="cls-39" d="M450.85,692.79l5.6,7.71h-3.34l-5.17-7.41h-0.49v7.41h-2.73V682.41h3.2q3.59,0,5.18,1.35a5,5,0,0,1,1.76,4,5.14,5.14,0,0,1-1.1,3.3A4.91,4.91,0,0,1,450.85,692.79Zm-3.4-2.07h0.87q3.88,0,3.88-3,0-2.78-3.77-2.78h-1v5.74Z"/>
        <path class="cls-39" d="M462.66,691.37a8.86,8.86,0,0,1,2.8-6.56,9.22,9.22,0,0,1,6.7-2.74,9.46,9.46,0,0,1,9.41,9.41,8.9,8.9,0,0,1-2.79,6.62,9.56,9.56,0,0,1-13.05.3A8.89,8.89,0,0,1,462.66,691.37Zm2.75,0a6.54,6.54,0,0,0,2,4.93,6.68,6.68,0,0,0,9.43,0,7,7,0,0,0,0-9.7,6.75,6.75,0,0,0-9.53,0A6.53,6.53,0,0,0,465.42,691.41Z"/>
        <path class="cls-39" d="M503.18,683.38v3.23a7.57,7.57,0,0,0-4.9-2,6.24,6.24,0,0,0-4.7,2,6.76,6.76,0,0,0-1.92,4.88,6.59,6.59,0,0,0,1.92,4.8,6.35,6.35,0,0,0,4.71,2,5.78,5.78,0,0,0,2.45-.47,7.06,7.06,0,0,0,1.17-.63,13.78,13.78,0,0,0,1.27-1v3.29a9.86,9.86,0,0,1-4.92,1.32,9.08,9.08,0,0,1-6.62-2.71,9,9,0,0,1-2.73-6.59,9.29,9.29,0,0,1,2.29-6.16,9.1,9.1,0,0,1,7.28-3.32A9.24,9.24,0,0,1,503.18,683.38Z"/>
        <path class="cls-39" d="M521.41,685h-7.25v4.35h7v2.57h-7v6h7.25v2.57h-10V682.41h10V685Z"/>
        <path class="cls-39" d="M529.8,700.5V682.41h3.8a13.82,13.82,0,0,1,4.31.54,8.07,8.07,0,0,1,3.08,1.79,9.36,9.36,0,0,1-.12,13.46A8.52,8.52,0,0,1,537.8,700a14,14,0,0,1-4.25.5H529.8Zm2.73-2.57h1.23a10.27,10.27,0,0,0,3.06-.39,6.21,6.21,0,0,0,4.22-6.09,6.29,6.29,0,0,0-2-4.83,7.55,7.55,0,0,0-5.29-1.65h-1.23v13Z"/>
        <path class="cls-39" d="M554.75,682.41v10.9a6,6,0,0,0,.76,3.41,4.07,4.07,0,0,0,6.41,0,5.9,5.9,0,0,0,.76-3.41v-10.9h2.73v11.65a6.52,6.52,0,0,1-1.78,4.71,6.89,6.89,0,0,1-9.83,0,6.52,6.52,0,0,1-1.78-4.71V682.41h2.73Z"/>
        <path class="cls-39" d="M580.68,692.79l5.6,7.71h-3.34l-5.17-7.41h-0.49v7.41h-2.73V682.41h3.2q3.59,0,5.18,1.35a5,5,0,0,1,1.76,4,5.14,5.14,0,0,1-1.1,3.3A4.91,4.91,0,0,1,580.68,692.79Zm-3.4-2.07h0.87q3.88,0,3.88-3,0-2.78-3.77-2.78h-1v5.74Z"/>
        <path class="cls-39" d="M604.43,696.11h-7.75l-2,4.39h-2.94l9-19.23,8.64,19.23h-3Zm-1.11-2.57-2.68-6.15-2.81,6.15h5.5Z"/>
        <path class="cls-39" d="M619.11,682.41v15.53h5.32v2.57h-8.05V682.41h2.73Z"/>
      </g>
      <g>
        <path class="cls-39" d="M36.9,685H29.64v4.35h7v2.57h-7v6H36.9v2.57h-10V682.41h10V685Z"/>
        <path class="cls-39" d="M48,693.15v7.35H45.28V682.41h3.09a14,14,0,0,1,3.43.32,4.6,4.6,0,0,1,2.06,1.2,5.15,5.15,0,0,1,1.56,3.84,5,5,0,0,1-1.66,3.94,6.58,6.58,0,0,1-4.49,1.45H48Zm0-2.53h1q3.76,0,3.76-2.89t-3.88-2.8H48v5.7Z"/>
        <path class="cls-39" d="M65.77,682.41V700.5H63V682.41h2.73Z"/>
        <path class="cls-39" d="M85.15,685.1l-2.21,1.31A3.81,3.81,0,0,0,81.75,685a2.76,2.76,0,0,0-1.51-.37,2.79,2.79,0,0,0-1.89.64,2,2,0,0,0-.75,1.59q0,1.32,2,2.13l1.8,0.74a7.7,7.7,0,0,1,3.22,2.17,4.9,4.9,0,0,1,1,3.15A5.53,5.53,0,0,1,84,699.19a5.71,5.71,0,0,1-4.16,1.64,5.57,5.57,0,0,1-3.89-1.39A6.42,6.42,0,0,1,74,695.51l2.77-.61a4.7,4.7,0,0,0,.66,2.2,3.12,3.12,0,0,0,4.58.32,3,3,0,0,0,.84-2.17,3,3,0,0,0-.15-1,2.45,2.45,0,0,0-.46-0.81,3.65,3.65,0,0,0-.8-0.69,7.73,7.73,0,0,0-1.17-.62l-1.75-.73q-3.71-1.57-3.71-4.59a4.36,4.36,0,0,1,1.56-3.41,5.63,5.63,0,0,1,3.88-1.38A5.42,5.42,0,0,1,85.15,685.1Z"/>
        <path class="cls-39" d="M92.81,691.37a8.86,8.86,0,0,1,2.8-6.56,9.22,9.22,0,0,1,6.7-2.74,9.46,9.46,0,0,1,9.41,9.41,8.9,8.9,0,0,1-2.79,6.62,9.56,9.56,0,0,1-13.05.3A8.89,8.89,0,0,1,92.81,691.37Zm2.75,0a6.54,6.54,0,0,0,2,4.93,6.68,6.68,0,0,0,9.43,0,7,7,0,0,0,0-9.7,6.75,6.75,0,0,0-9.53,0A6.53,6.53,0,0,0,95.57,691.41Z"/>
        <path class="cls-39" d="M120,700.5V682.41h3.8a13.82,13.82,0,0,1,4.31.54,8.07,8.07,0,0,1,3.08,1.79,9.36,9.36,0,0,1-.12,13.46A8.52,8.52,0,0,1,128,700a14,14,0,0,1-4.25.5H120Zm2.73-2.57h1.23a10.27,10.27,0,0,0,3.06-.39,6.21,6.21,0,0,0,4.22-6.09,6.29,6.29,0,0,0-2-4.83,7.55,7.55,0,0,0-5.29-1.65h-1.23v13Z"/>
        <path class="cls-39" d="M144.92,682.41V700.5h-2.73V682.41h2.73Z"/>
        <path class="cls-39" d="M167.43,683.38v3.23a7.57,7.57,0,0,0-4.9-2,6.24,6.24,0,0,0-4.7,2,6.76,6.76,0,0,0-1.92,4.88,6.59,6.59,0,0,0,1.92,4.8,6.35,6.35,0,0,0,4.71,2,5.78,5.78,0,0,0,2.45-.47,7.06,7.06,0,0,0,1.17-.63,13.78,13.78,0,0,0,1.27-1v3.29a9.86,9.86,0,0,1-4.92,1.32,9.08,9.08,0,0,1-6.62-2.71,9,9,0,0,1-2.73-6.59,9.29,9.29,0,0,1,2.29-6.16,9.1,9.1,0,0,1,7.28-3.32A9.24,9.24,0,0,1,167.43,683.38Z"/>
      </g>
      <g>
        <path class="cls-39" d="M50.77,705.43l1.73,0.66a21.31,21.31,0,0,0-1.27,4,18.86,18.86,0,0,0-.27,2q-0.09,1-.09,2.24T51,716.54a18.91,18.91,0,0,0,.27,2,20.54,20.54,0,0,0,1.27,4l-1.73.66A22.58,22.58,0,0,1,50.77,705.43Z"/>
        <path class="cls-39" d="M65.66,708.59H60.52v3.08h5v1.82h-5v4.28h5.14v1.82H58.58V706.78h7.07v1.82Z"/>
        <path class="cls-39" d="M72.24,706.78l3.54,8.88,3.59-8.88H81.5l-5.75,13.78-5.62-13.78h2.12Z"/>
        <path class="cls-39" d="M93.57,708.59H88.43v3.08h5v1.82h-5v4.28h5.14v1.82H86.49V706.78h7.07v1.82Z"/>
        <path class="cls-39" d="M99.51,719.59V705.91l9.35,9.78v-8.91h1.93v13.6l-9.35-9.75v9H99.51Z"/>
        <path class="cls-39" d="M120.79,708.59v11h-1.93v-11h-2.95v-1.82h7.82v1.82h-2.94Z"/>
        <path class="cls-39" d="M136.09,708.69l-1.57.93a2.7,2.7,0,0,0-.84-1,2.23,2.23,0,0,0-2.41.19,1.42,1.42,0,0,0-.53,1.13,1.78,1.78,0,0,0,1.39,1.51l1.28,0.52a5.45,5.45,0,0,1,2.28,1.54,3.47,3.47,0,0,1,.72,2.23,3.92,3.92,0,0,1-1.18,2.92,4,4,0,0,1-2.95,1.16,3.94,3.94,0,0,1-2.76-1,4.55,4.55,0,0,1-1.34-2.78l2-.43a3.33,3.33,0,0,0,.46,1.56,2.21,2.21,0,0,0,3.25.22,2.1,2.1,0,0,0,.6-1.54,2.15,2.15,0,0,0-.1-0.69,1.73,1.73,0,0,0-.32-0.57,2.62,2.62,0,0,0-.57-0.49,5.5,5.5,0,0,0-.83-0.44l-1.24-.51q-2.63-1.11-2.63-3.25a3.09,3.09,0,0,1,1.1-2.42,4,4,0,0,1,2.75-1A3.84,3.84,0,0,1,136.09,708.69Z"/>
        <path class="cls-39" d="M143.5,723.15l-1.73-.66a20.54,20.54,0,0,0,1.27-4,20.59,20.59,0,0,0-1.27-12.39l1.73-.66A22.58,22.58,0,0,1,143.5,723.15Z"/>
      </g>
    </g>
    <line class="cls-40" x1="200.12" y1="590.45" x2="200.12" y2="717.46"/>
    <line class="cls-40" x1="407.9" y1="590.45" x2="407.9" y2="717.46"/>
    <rect id="Episodic_Hit" data-name="Episodic Hit" class="cls-41 clickable" y="605" width="200.62" height="130.75"/>
    <rect id="Semantic_Hit" data-name="Semantic Hit" class="cls-41 clickable" x="200.98" y="605" width="206.78" height="130.75"/>
    <rect id="Procedural_Hit" data-name="Procedural Hit" class="cls-41 clickable" x="407.69" y="605" width="232.31" height="130.75"/>
  </g>
</svg>
