<!-- Generator: Adobe Illustrator 21.0.2, SVG Export Plug-In  -->
<svg version="1.1"
	 xmlns="http://www.w3.org/2000/svg" xmlns:xlink="http://www.w3.org/1999/xlink" xmlns:a="http://ns.adobe.com/AdobeSVGViewerExtensions/3.0/"
	 x="0px" y="0px" width="297.1px" height="80px" viewBox="0 0 297.1 80" style="enable-background:new 0 0 297.1 80;"
	 xml:space="preserve">
<style type="text/css">
	.st0{fill:#D0F4DE;}
</style>
<defs>
</defs>
<path class="st0" d="M285.1,37h-209c-6.6,0-12,5.4-12,12v9.4c-20.8,1-30.1,0-36.6-7.9c-2.9-3.4-2.8-10.6-2.4-19.1l11.2,0L18.1,0
	L0,31.5l11.1,0c-0.6,11.2-0.4,20.8,5.6,28c9,10.8,20.9,13.3,36.3,13.3c3.8,0,7.8-0.2,12-0.4C66.7,76.8,71,80,76.1,80h209
	c6.6,0,12-5.4,12-12V49C297.1,42.4,291.7,37,285.1,37z"/>
</svg>
