<!-- Generator: Adobe Illustrator 21.0.2, SVG Export Plug-In  -->
<svg version="1.1"
	 xmlns="http://www.w3.org/2000/svg" xmlns:xlink="http://www.w3.org/1999/xlink" xmlns:a="http://ns.adobe.com/AdobeSVGViewerExtensions/3.0/"
	 x="0px" y="0px" width="1139.5px" height="639.7px" viewBox="0 0 1139.5 639.7" style="enable-background:new 0 0 1139.5 639.7;"
	 xml:space="preserve">
<style type="text/css">
	.st0{fill:#4E6B66;}
	.st1{opacity:0.7;}
	.st2{clip-path:url(#SVGID_2_);}
	.st3{fill:#3B504D;}
	.st4{clip-path:url(#SVGID_4_);}
</style>
<defs>
</defs>
<g>
	<path class="st0" d="M1122.4,9.6H14.8C7.2,9.6,1,15.8,1,23.3v602.3c0,7.6,6.2,13.7,13.7,13.7h1107.6c7.6,0,13.7-6.2,13.7-13.7V23.3
		C1136.1,15.8,1130,9.6,1122.4,9.6z"/>
</g>
<g class="st1">
	<defs>
		<rect id="SVGID_1_" class="st1" width="1139.5" height="40.6"/>
	</defs>
	<clipPath id="SVGID_2_">
		<use xlink:href="#SVGID_1_"  style="overflow:visible;"/>
	</clipPath>
	<g class="st2">
		<path class="st3" d="M1122.4,9.9H14.8c-7.6,0-13.7,6.2-13.7,13.7V626c0,7.6,6.2,13.7,13.7,13.7h1107.6c7.6,0,13.7-6.2,13.7-13.7
			V23.7C1136.1,16.1,1130,9.9,1122.4,9.9z"/>
	</g>
</g>
</svg>
