<svg class="defsSVG">
   <defs>
		<g id="ALA_Alanine">
			<g>
				<path class="AA_0" d="M136.7,89.7c0-8.7-7-15.7-15.7-15.7c-2.6,0-5,0.7-7.2,1.8c0.8-2.3,1.3-4.7,1.3-7.3c0-11.7-9.5-21.2-21.2-21.2
					c-8.2,0-15.2,4.6-18.8,11.4c-2.6-2.1-5.9-3.5-9.6-3.5c-4.5,0-8.6,2-11.3,5.2c-5.5,1.8-9.7,6.3-11.2,11.9c-0.2,0-0.4,0-0.6,0
					c-11,0-19.9,8.9-19.9,19.9c0,2.2,0.4,4.3,1,6.3c-0.1,0.6-0.2,1.3-0.2,1.9c0,8.7,7.1,15.8,15.8,15.8c5.3,0,10-2.6,12.8-6.6
					c0.5-0.3,1.1-0.6,1.6-1c1.7,8.1,8.8,14.1,17.4,14.1c5.9,0,11.1-2.9,14.3-7.3c3.8-1,7.2-2.9,9.9-5.6c3.6,4.5,9.1,7.5,15.4,7.5
					c9,0,16.6-6.1,18.9-14.4C133.9,100,136.7,95.2,136.7,89.7z"/>
				<path class="AA_1" d="M121,70.8c-0.9,0-1.9,0.1-2.8,0.2c0.1-0.8,0.1-1.7,0.1-2.5c0-13.4-10.9-24.4-24.4-24.4
					c-7.9,0-15.2,3.8-19.7,10.1c-2.7-1.4-5.6-2.2-8.6-2.2c-4.9,0-9.7,2-13.2,5.6c-5.4,2-9.6,6.2-11.7,11.5
					c-11.9,0.9-21.3,10.9-21.3,23c0,2.2,0.3,4.4,1,6.5c-0.1,0.5-0.1,1-0.1,1.6c0,10.5,8.5,19,19,19c4.9,0,9.5-1.9,13-5.2
					c3.5,7,10.7,11.7,18.8,11.7c6.3,0,12.2-2.8,16.2-7.7c2.8-0.9,5.4-2.2,7.7-3.9c4.2,4,9.7,6.2,15.6,6.2c9.8,0,18.6-6.4,21.6-15.6
					c4.8-3.6,7.6-9.1,7.6-15.1C139.9,79.3,131.4,70.8,121,70.8z M71.5,60c-0.2,0.7-0.3,1.3-0.4,2c-1.7-1.6-3.7-2.8-6-3.6
					c0.2,0,0.4,0,0.6,0C67.7,58.4,69.7,59,71.5,60z M54.9,63.6c5.8-0.3,10,1,12.6,3.9c4,4.6,3.2,12,3,13.6c-0.6,1.3-3.8,6.9-12.5,7.3
					c-4.2,0.2-7.5-1.1-9.7-3.8c-2.4-2.9-3.2-7.2-2.1-11.5C47.4,68.7,50.6,65.1,54.9,63.6z M128.8,99.4c-5.8-1.2-10.1-3-12.4-7.5
					c-0.8-1.6-2.7-2.2-4.3-1.4c-1.6,0.8-2.2,2.7-1.4,4.3c3.2,6.3,8.8,9,14.5,10.4c-2.8,5.4-8.3,8.9-14.5,8.9c-5,0-9.7-2.3-12.8-6.3
					l-0.8-1c-2.1-3.3-0.4-8.5,2.5-12c1.1-1.4,0.9-3.4-0.5-4.5c-1.4-1.1-3.4-0.9-4.5,0.5c-4.3,5.3-6.4,12.8-3.5,18.5
					c-0.2,0.2-0.5,0.3-0.7,0.5c-0.1-2-0.7-4.1-1.8-6c-2.1-3.7-8.9-11.7-27.9-7.4c-1.7,0.4-2.8,2.1-2.4,3.8c0.4,1.7,2.1,2.8,3.8,2.4
					c10.2-2.3,18-0.7,20.9,4.3c1.3,2.3,1.1,4.6,0.5,5.7l-0.6,0.8c-2.8,3.8-7.1,6-11.7,6c-6.9,0-12.9-4.9-14.3-11.6l-1-4.7l-0.3,0.2
					c-0.5-0.8-1.2-1.3-2.2-1.5c-3.3-0.6-6.6-1.7-7.7-8.8l-0.3-1.7l-1.6-0.7c-4.2-1.9-12-1.2-15.4,1.3c-1.4,1-1.7,3-0.7,4.5
					c1,1.4,3,1.7,4.5,0.7c1.2-0.9,5-1.4,7.6-1c1.8,7.8,6.5,10.5,9.8,11.6l-0.1,0.1c-2.4,3.3-6.2,5.3-10.2,5.3c-7,0-12.6-5.7-12.6-12.6
					c0-0.3,0-0.6,0.1-1l0.2-1.2l-0.2-0.7c-0.6-1.7-0.9-3.5-0.9-5.2c0-8.1,5.8-14.9,13.5-16.4c-0.2,4.8,1.2,9.5,4,12.9
					c3.3,4,8.1,6.1,13.8,6.1c0.4,0,0.8,0,1.1,0c13.9-0.7,18.1-11.2,18.2-11.7l0.1-0.2c2.6,2.2,6.8,4.4,13.7,4.4
					c2.9,0,6.2-0.4,10.1-1.3c1.7-0.4,2.8-2.1,2.4-3.8s-2.1-2.8-3.8-2.4c-16.6,3.9-19.7-3.5-19.8-3.7l-0.1-0.2
					c-1.1-2.7-3.3-10.9-0.6-16.5c3.2-5.4,9.1-8.8,15.4-8.8c9.9,0,18,8.1,18,18c0,2.1-0.4,4.2-1.1,6.2l-2.9,7.8l7.3-3.8
					c1.9-1,3.8-1.5,5.7-1.5c6.9,0,12.5,5.6,12.5,12.5C133.5,93.5,131.8,97.1,128.8,99.4z"/>
			</g>
		</g>
		<g id="ARG_Arginine">
			<g>
				<path class="AA_2" d="M140.1,140.8c0.1-0.5,0.1-1.1,0.2-1.7c2.3-2.3,3.8-5.5,3.8-9c0-6.9-5.6-12.6-12.6-12.6c-3.1,0-6,1.2-8.2,3.1
					c-0.5-2.1-1.5-4-2.9-5.7c0.9-1.6,1.5-3.4,1.5-5.3c0-5.9-4.8-10.7-10.7-10.7c-1.8,0-3.5,0.5-4.9,1.3c-1.7-0.7-3.5-1.1-5.4-1.1
					c-2.1,0-4.2,0.5-6,1.3c-0.1-1.3-0.4-2.6-0.8-3.8c0.3,0,0.6,0.1,0.9,0.1c8,0,14.4-6.4,14.4-14.4c0-4.3-1.9-8.2-5-10.8
					c0.5-1.1,0.8-2.4,0.8-3.7c0-4.9-4-8.9-8.9-8.9c-3.9,0-7.2,2.5-8.4,6c-0.6-0.1-1.2-0.2-1.8-0.2c-2,0-4,0.4-5.7,1.2
					c-0.3-2.1-0.9-4.1-1.9-5.9c0,0,0.1-0.1,0.1-0.1c1.6,0.7,3.4,1.2,5.2,1.2c6.9,0,12.5-5.6,12.5-12.5c0-2-0.5-3.8-1.3-5.4
					c0.8,0.2,1.7,0.4,2.6,0.4c5.2,0,9.4-4.2,9.4-9.4c0-5.1-4.1-9.2-9.1-9.4c-1.8-6.1-7.4-10.6-14.1-10.6c-2.1,0-4.1,0.5-5.9,1.3
					c-1.2-0.4-2.4-0.7-3.7-0.7c-6.1,0-11,4.9-11,11c0,1.4,0.3,2.7,0.7,3.9c-0.6,0.2-1.2,0.4-1.8,0.7c-0.5-1.3-1.2-2.6-2.1-3.7
					c0.9-1.8,1.5-3.8,1.5-6c0-7.4-6-13.4-13.4-13.4c-7.4,0-13.4,6-13.4,13.4c0,2.1,0.6,4.2,1.5,6c0,0,0,0-0.1,0.1
					c-1.7-0.6-3.5-1-5.4-1c-8.6,0-15.5,6.9-15.5,15.5c0,8.6,6.9,15.5,15.5,15.5c5.2,0,9.8-2.6,12.6-6.6c0.2,0.1,0.4,0.1,0.6,0.2
					c-2.2,2.2-3.6,5.2-3.6,8.5c0,4.2,2.3,7.9,5.6,10c0,0.1,0,0.1,0,0.2c-2.5,1.9-4.1,4.9-4.1,8.2c0,5.7,4.6,10.4,10.4,10.4
					c0.6,0,1.2-0.1,1.8-0.2c-0.7,1.6-1,3.3-1,5.1c0,2.4,0.7,4.7,1.8,6.6c-3.2,3.1-5.2,7.5-5.2,12.3c0,9.5,7.7,17.2,17.2,17.2
					c2.8,0,5.4-0.7,7.8-1.9c1.8,4.7,6.3,8.1,11.6,8.1c0.8,0,1.6-0.1,2.3-0.2c0.5,5.1,4,9.2,8.7,10.7c1.3,5.6,6.2,9.7,12.2,9.7
					c3.4,0,6.6-1.4,8.8-3.7c0.3,0.1,0.6,0.3,0.9,0.4c1,6,6.1,10.5,12.4,10.5c6.9,0,12.6-5.6,12.6-12.6
					C144.1,146.3,142.6,143.1,140.1,140.8z"/>
				<path class="AA_3" d="M147.3,130.2c0-8.7-7.1-15.8-15.8-15.8c-2.3,0-4.5,0.5-6.6,1.5c-0.2-0.4-0.5-0.8-0.7-1.2
					c0.6-1.6,0.9-3.2,0.9-4.9c0-7.7-6.2-13.9-13.9-13.9c-1.7,0-3.4,0.3-5.1,1c-0.2-0.1-0.5-0.1-0.7-0.2c4.4-3.2,7.2-8.4,7.2-14.2
					c0-4.3-1.6-8.4-4.5-11.7c0.2-0.9,0.3-1.9,0.3-2.8c0-6.2-4.6-11.3-10.6-12c1.1-2.1,1.7-4.5,1.7-7.1c0-0.7,0-1.3-0.1-2
					c6.1-0.9,10.8-6.2,10.8-12.5c0-6.1-4.2-11.1-10-12.3c-2.8-6.6-9.2-10.9-16.4-10.9c-2.1,0-4.1,0.4-6,1.1
					c-5.3-1.4-10.5,0.4-13.8,3.9C62,9.3,55.6,4.3,48.2,4.3c-9.2,0-16.6,7.4-16.6,16.6c0,0.6,0,1.2,0.1,1.8c-0.3,0-0.6,0-0.9,0
					c-10.3,0-18.7,8.4-18.7,18.7s8.4,18.7,18.7,18.7c2.2,0,4.4-0.4,6.4-1.1c0,0,0,0,0,0c0,3.9,1.5,7.6,4.2,10.4
					c-1.7,2.3-2.7,5.1-2.7,8.1c0,6.7,4.9,12.3,11.3,13.4c-0.1,0.6-0.1,1.3-0.1,1.9c0,2,0.4,4.1,1.2,6c-3,3.6-4.6,8.1-4.6,12.9
					c0,11.2,9.1,20.4,20.4,20.4c2.2,0,4.3-0.3,6.3-1c2.8,4.3,7.7,7.1,12.9,7.2c1.3,4.3,4.5,7.8,8.7,9.7c2.2,6.3,8,10.5,14.8,10.5
					c2.8,0,5.4-0.7,7.7-2c2.5,5.6,8,9.4,14.4,9.4c8.7,0,15.8-7.1,15.8-15.8c0-3.7-1.2-7.1-3.5-9.9
					C146.1,137.3,147.3,133.8,147.3,130.2z M30.8,53.7c-6.8,0-12.3-5.5-12.3-12.3c0-6.8,5.5-12.3,12.3-12.3c1.4,0,2.8,0.3,4.3,0.8
					l2.2,0.8l2.7-3.5l-0.9-1.8c-0.7-1.5-1.1-3-1.1-4.5c0-5.6,4.6-10.2,10.2-10.2s10.2,4.6,10.2,10.2c0,1.4-0.3,2.7-0.9,4.1
					c-3,3-5.1,3.9-8.3,3.7c-1.7-0.1-3.3,1.3-3.4,3c0,0,0,0,0,0c-0.9-0.2-1.9-0.1-2.7,0.5c-1.4,1.1-1.7,3.1-0.6,4.5
					c1.2,1.5,1.3,7.4-1.8,11.8c0,0-0.1,0.1-0.1,0.1C38.2,51.9,34.6,53.7,30.8,53.7z M131.6,159.3c-4.6,0-8.5-3.3-9.2-7.9l-0.3-1.8
					l-1.7-0.7c-0.2-0.1-0.3-0.1-0.4-0.2l-2.3-1.1l-1.6,1.6c-1.8,1.8-4.1,2.7-6.6,2.7c-4.4,0-8.1-3-9.1-7.3l-0.4-1.8l-1.8-0.5
					c-3.6-1.1-6.1-4.2-6.5-7.9l-0.3-3.5l-3.4,0.7c-0.6,0.1-1.2,0.2-1.7,0.2c-1.4,0-2.8-0.3-4-0.9c1.6-0.2,3-0.7,4.4-1.3
					c3.1-1.6,5.3-4.3,6.4-8c0.5-1.7-0.4-3.5-2.1-4c-1.7-0.5-3.5,0.4-4,2.1c-0.6,2-1.7,3.4-3.2,4.2c-1.7,0.9-4,1-6.6,0.4l-0.7-1.8
					l-1.9,1c-1.7-0.8-2.8-1.8-3.4-3.2c-0.9-2.1-0.8-4.9,0.5-7.9c0.7-1.6-0.1-3.5-1.7-4.2c-1.6-0.7-3.5,0.1-4.2,1.7
					c-2,4.7-2.1,9.3-0.5,13c0.4,1,1,1.9,1.7,2.7c0,0,0,0-0.1,0c-7.7,0-14-6.3-14-14c0-3.8,1.5-7.4,4.3-10l1.8-1.8l-1.3-2.2
					c-0.9-1.6-1.4-3.3-1.4-5c0-0.9,0.1-1.8,0.4-2.6C67.1,85.8,66,77,65.4,74.3c-0.4-1.7-2.1-2.8-3.8-2.4c-1.7,0.4-2.8,2.1-2.4,3.8
					c1,4.1-1,7.1-5.9,8.8c-0.4,0.1-0.8,0.1-1.1,0.1c-4,0-7.2-3.2-7.2-7.2c0-2.2,1-4.3,2.9-5.7l1.3-1l-0.1-3.5l-1.4-0.9
					c-2.6-1.6-4.1-4.3-4.1-7.3c0-2.3,0.9-4.5,2.6-6.2l4-3.8L48,48.4c1.9-4.5,2.2-9.6,0.7-13.2c0,0,0,0,0,0c0.4,0,0.7,0,1,0
					c3.9,0,6.8-1.2,9.5-3.3l1.2,3l3.1-1.4c0.5-0.2,1-0.4,1.5-0.6l3.2-1L67,28.7c-0.4-0.9-0.5-1.9-0.5-2.8c0-4.3,3.5-7.8,7.8-7.8
					c0.8,0,1.7,0.2,2.6,0.5l1.2,0.4l1.2-0.5c1.5-0.7,3-1,4.6-1c3.8,0,7.2,1.9,9.3,4.9c-1.5,0.5-2.9,1.3-4,2.4
					c-2.5,2.5-2.7,5.4-2.7,6.3c0,1.8,1.4,3.2,3.2,3.2S93,32.7,93,31c0,0,0-0.9,0.8-1.7c0.8-0.8,2.2-1.2,4.1-1.2c3.4,0.1,6,2.9,6,6.2
					c0,3.4-2.8,6.2-6.2,6.2c-0.5,0-1-0.1-1.7-0.3l-6.9-1.9l3.1,6.4c0.6,1.3,1,2.7,1,4c0,5.1-4.2,9.3-9.3,9.3c-1,0-2.1-0.2-3.1-0.6
					c-2-2.9-4.2-5.2-6.8-6.9c0.3-6.5,3.1-7.5,6-7.8c1.8-0.2,3-1.8,2.8-3.6s-1.8-3-3.6-2.8c-6.6,0.8-10.4,4.6-11.4,11.4
					c-2.6-0.7-5.3-0.8-8.2-0.4c-1.8,0.2-3,1.9-2.7,3.6c0.2,1.8,1.9,3,3.6,2.7c5.8-0.8,10.7,1.4,14.5,6.7l0.7,1.3
					c0.8,1.5,1.3,3.1,1.5,4.8l0.6,4.1l3.8-1.6c1.4-0.6,2.9-0.9,4.5-0.9c0.3,0,0.6,0,1,0.1l3,0.4l0.8-2.5c0.8-2.3,2.9-3.9,5.3-3.9
					c3.1,0,5.7,2.6,5.7,5.7c0,0.8-0.2,1.6-0.5,2.4l-1,2.2l1.8,1.6c2.5,2.2,3.9,5.2,3.9,8.4c0,5.8-4.4,10.6-10.1,11.1
					c-3.8-7.1-10.7-10.6-19.5-9.7c-7.2,0.7-13.9,7-13.5,12.7c0.1,1.8,1.6,3.1,3.4,3c1.8-0.1,3.1-1.7,3-3.4c-0.1-1.4,3.2-5.5,7.7-5.9
					c4.6-0.5,10.8,0.5,13.8,7.6c0.3,0.9,0.5,1.9,0.6,2.9l0.4,4.5l4.1-1.9c2.9-1.3,5.9-1.4,8.9-0.2l1.4,0.5l1.3-0.7
					c1.1-0.6,2.3-0.9,3.5-0.9c4.1,0,7.5,3.4,7.5,7.5c0,1.2-0.3,2.3-0.9,3.5c-1.8,2.1-5.2,3.4-7.9,3c-1.8-0.2-2.9-1-3.6-2.5
					c-0.7-1.6-2.6-2.3-4.2-1.6c-1.6,0.7-2.3,2.6-1.6,4.2c1.6,3.5,4.7,5.7,8.7,6.2c0.5,0.1,1.1,0.1,1.6,0.1c3.1,0,6.4-1,9-2.8
					c0.2,0.5,0.4,1,0.5,1.6l1.2,5.1l4-3.4c1.2-1.1,3.3-2.3,6.1-2.3c5.2,0,9.4,4.2,9.4,9.4c0,2.2-0.8,4.2-2.1,5.9
					c-5.8-3.2-11.5-2.4-16.7,2.4c-1.3,1.2-1.4,3.2-0.2,4.5s3.2,1.4,4.5,0.2c3.7-3.4,7.2-3.4,11.5,0.1c1.9,1.8,2.9,4.2,2.9,6.7
					C140.9,155.1,136.7,159.3,131.6,159.3z"/>
			</g>
		</g>
		<g id="ASP_Aspartic_Acid">
			<g>
				<path class="AA_0" d="M125.1,87.7c0-4.2-2.1-8-5.3-10.3c1.9-2.8,4.8-11.7-2.3-17.2c-8.6-6.6-16.4-1.5-20,2
					C96.9,55.4,93.6,50.8,88,50c-7.1-1-11.2,2.2-14.2,6.8c-2.1-9.9-10-16.6-20.2-14.5c-5.9,1.2-10,5.2-11.4,11
					c-1.4,5.7,0.4,11,3.8,14.7c-6.8,2-11.7,8.3-11.7,15.7c0,6.6,3.9,12.3,9.6,14.9c1.6,4.5,5.4,8,10.1,9.2c-2.2,8.6,2.8,14.7,9,16.5
					c5.7,1.6,13.1,0.1,17.4-5.9c1.1,0.3,4.2,0.4,5.2,0.2c1.8,4.5,5.3,9.2,12.5,9.3c7.8,0,14.1-6.3,14.2-14.1c3.7-2,6.3-5.9,6.3-10.5
					c0-1.5-0.3-3-0.8-4.3C122.1,97.1,125.1,92.7,125.1,87.7z"/>
				<path class="AA_1" d="M128.3,87.7c0-4.1-1.6-8.1-4.5-11.1c0.8-1.8,1.4-4.2,1.4-6.7c0.1-5-1.9-9.2-5.8-12.2
					c-7-5.4-14.2-4.5-19.8-1.1c-1.9-5.4-5.8-8.9-11.2-9.7c-5.3-0.8-9.7,0.4-13.4,3.6c-4.1-8.6-12.6-13.2-22-11.3
					c-7.1,1.5-12.2,6.4-13.9,13.4c-1.2,4.9-0.5,9.9,2,14.1c-6,3.4-10,10-10,17.1c0,7.2,4,13.8,10.3,17.3c1.8,4,5,7.2,9,9
					c-1,9,4.8,15.5,11.7,17.5c6.1,1.7,14.2,0.6,19.6-5.6c0.6,0,1.2,0.1,1.8,0.1c3,5.9,8.1,9.2,14.5,9.2c8.9,0,16.3-6.8,17.3-15.5
					c4-2.8,6.4-7.4,6.4-12.3c0-1-0.1-1.9-0.3-2.9C125.8,97.7,128.3,92.9,128.3,87.7z M116.4,96.3l-1.9,0.9c-2.4,0.9-5.3,0.8-7.6-0.2
					c-1.6-0.8-3.6-2.4-4-5.8c-0.2-1.8-1.8-3-3.6-2.8c-1.8,0.2-3,1.8-2.8,3.6c0.6,4.9,3.3,8.7,7.6,10.8c2.1,1,4.5,1.5,6.8,1.5
					c1.5,0,3-0.2,4.4-0.6c0,3.2-1.8,6-4.6,7.6l-1.7,0.9l0,1.9c0,6-5,10.9-11,10.9c-4.5,0-7.7-2.4-9.6-7.3l-1-2.3l-2.4,0.3
					c0.9-3.3,0.7-6.9-0.6-10.5c-1.9-5.1-5.7-8.9-10.1-10c-1.7-0.4-3.4,0.6-3.9,2.3c-0.4,1.7,0.6,3.4,2.3,3.9c2.3,0.6,4.4,2.9,5.6,6
					c1.3,3.4,1,6.9-0.8,9.3l0,0c-3.5,4.9-9.7,5.9-13.9,4.7c-4.6-1.3-8.5-5.7-6.7-12.6l0.8-3.1l-3.1-0.8c-1.4-0.4-2.7-1-3.8-1.8
					c2.7-0.3,5.4-1.1,7.9-2.5C63.4,97.9,66,94,66,89.7c0-1.8-1.5-3.2-3.2-3.1c-1.8,0-3.2,1.5-3.1,3.3c0,2.7-2.7,4.5-3.9,5.2
					c-3,1.7-6.8,2.3-9.2,1.4l0,0l-1.2-0.6c-4.7-2.2-7.7-6.9-7.7-12c0-5.3,3.3-10.2,8.1-12.2c2,1.1,4.5,1.6,7.1,1.6
					c2.5,0,5.1-0.5,7.5-1.4c1.7-0.6,2.5-2.5,1.8-4.1c-0.6-1.6-2.5-2.5-4.1-1.8c-3.9,1.5-8,1.1-9.8-0.1c-2.8-3.2-3.9-7.4-2.9-11.6
					c1.1-4.7,4.2-7.7,8.9-8.6c8.7-1.8,14.3,4.1,16.1,11c0,0.1,0,0.1-0.1,0.2c-1,2.2-2.3,5.2-4.9,6.2c-1.7,0.6-2.5,2.5-1.8,4.1
					c0.5,1.3,1.7,2.1,3,2.1c0.4,0,0.8-0.1,1.1-0.2c5.1-1.9,7.2-6.7,8.5-9.6c0.1-0.3,0.3-0.6,0.4-0.9c2.9-4.4,6.1-5.9,10.9-5.2
					c5.1,0.8,6.5,5.4,6.8,9.2l0.6,6.8l4.9-4.7c6.9-6.7,12.9-4,15.8-1.7c3.9,3,3.6,7.4,2.8,10.2c-3.3-1.3-7.1-1.5-10.8-0.5
					c-4.4,1.2-7.8,4-9.4,7.7c-0.7,1.6,0,3.5,1.7,4.2c0.4,0.2,0.8,0.3,1.3,0.3c1.2,0,2.4-0.7,2.9-1.9c1.1-2.6,3.7-3.6,5.2-4
					c3.1-0.8,6.5-0.3,8.7,1.3l0,0c2.5,1.8,4,4.6,4,7.7C121.9,91.4,119.8,94.6,116.4,96.3z"/>
			</g>
		</g>
		<g id="ASN_Asparagine">
			<g>
				<path class="AA_4" d="M111,106.7c3,1.7,6.6,2.4,10.6,1.2c4.8-1.5,8.6-5.6,9.5-10.5c1.5-8.6-5.1-16-13.4-16c-1.6,0-3.3,0.3-4.8,0.7
					c-6.3-6.4-12.1-1.9-12.7-3.5c-0.6-1.7,6.7,1.4,9.3-5.5c4,0.7,16,0.2,16-13.8c-0.3-7.3-6.2-13-13.6-13c-2.1,0-3.4,0.3-5.2,1.2
					c-0.4-0.6-0.9-1.4-1.5-1.9c4.7-2.8,7.6-8.3,6.4-14.4c-1-5.2-5.2-9.4-10.3-10.5c-8.8-1.8-16.5,4.8-16.5,13.3c0,2,0.5,3.9,1.2,5.6
					c-3.1,1.1-6.3,4.3-6.9,6c-1-1.7-3.8-4.4-6-5c1.7-3,2.3-6.6,1.1-10.5c-1.5-4.8-5.6-8.5-10.5-9.4c-8.5-1.5-16,5.1-16,13.4
					c0,3.7,1.5,7.1,3.9,9.5c-2.8,3.2-3.2,8.1-3.2,9.5c-3-1.7-6.6-2.4-10.6-1.3c-4.8,1.4-8.6,5.6-9.5,10.5c-1.5,8.6,5,16,13.3,16
					c7.2,0,13-5.6,13.5-12.7c2.5,1.7,5.4,2.6,8.6,2.6c1.2,0,2.4-0.2,3.6-0.4c0.2,2.2,0.8,4.3,1.8,6.2c-2.4,1.2-4.4,3.1-5.9,5.3
					c-2.6-1-5.6-1.4-8.7-0.5c-5.2,1.4-9.1,6-9.8,11.3c-0.9,7.3,4,13.7,10.7,15.1c-0.7,3.7-0.2,7.8,4.9,12.6c2.3,2.1,5.3,3.5,8.5,3.5
					c7.5,0,13.5-6.1,13.5-13.6c0-1.9-0.4-3.8-1.2-5.5c1-0.3,1.9-0.7,2.7-1.3c0.9,3.8,3.3,7,6.4,9.1c-4.7,2-8.3,6.2-9.3,11.4
					c-3.7-1.1-7.9-1.2-13.2,3.9c-2.5,2.4-4.2,5.6-4.2,9c0,7.5,6.1,13.6,13.6,13.6c6.1,0,11.1-4,12.9-9.5c1.9,0.8,3.9,1.2,6,1.2
					c0.2,0,0.4,0,0.6,0c1.5,5.7,6.5,10,12.6,10.2c7.3,0.2,13.8-5.8,14-13.1c0.2-7.1-5.1-13-11.9-13.8c-0.4-4.8-3-8.9-6.8-11.5
					C107.2,110.3,109.4,108.7,111,106.7z"/>
				<path class="AA_5" d="M130.5,84.1c-3.2-3.8-7.9-6-12.8-6c-1.2,0-2.5,0.1-3.9,0.4c-0.9-0.7-1.8-1.3-2.6-1.8c0.1-0.1,0.1-0.2,0.2-0.3
					c3.7,0.1,8.3-0.8,11.8-3.7c3.6-3,5.5-7.6,5.5-13.5l0-0.1c-0.3-8.9-7.4-15.9-16.3-16.1c2.4-3.6,3.3-8.1,2.4-12.6
					c-1.3-6.4-6.4-11.6-12.8-13c-5.1-1.1-10.2,0.2-14.2,3.4c-3.9,3.2-6.2,7.9-6.2,13c0,1.4,0.2,2.7,0.5,4c-1.1,0.7-2.2,1.6-3.1,2.5
					c-0.6-0.5-1.1-1-1.8-1.4c1.1-3.3,1.1-6.7,0.1-10c-1.9-6-7-10.5-13.1-11.6c-4.9-0.8-10,0.5-13.7,3.7c-3.8,3.2-6,7.9-6,12.8
					c0,3.5,1.1,6.9,3.1,9.7c-0.9,1.6-1.5,3.3-1.8,4.8c-2.9-0.7-5.8-0.7-8.8,0.2c-6,1.8-10.6,6.9-11.7,13c-0.9,5,0.5,10,3.7,13.8
					c3.2,3.8,7.9,6,12.8,6c1.3,0,2.5-0.1,3.7-0.4c-2,2.4-3.4,5.4-3.8,8.6c-1,7.7,3.5,15,10.5,17.8C52,111.9,54,116,58.3,120
					c2,1.8,4.3,3.1,6.7,3.8c-2.8,3-4.3,6.8-4.3,10.5c0,9.2,7.5,16.8,16.8,16.8c6.2,0,11.7-3.4,14.6-8.7c0.8,0.2,1.7,0.3,2.6,0.4
					c2.5,5.9,8.3,10,14.8,10.2c0.2,0,0.4,0,0.5,0c4.2,0,8.3-1.6,11.4-4.6c3.3-3.1,5.2-7.2,5.3-11.6c0.2-7.8-4.9-14.6-12.3-16.6
					c-0.7-3.1-2.1-5.9-4.2-8.2c0.5-0.4,1-0.9,1.5-1.3c3.4,1.3,7.1,1.5,10.7,0.4c6-1.8,10.6-6.9,11.7-13C135,93,133.7,87.9,130.5,84.1z
					 M111.2,126c5.3,0.7,9.3,5.2,9.1,10.6c-0.1,2.7-1.3,5.2-3.3,7.2c-2.1,1.9-4.7,3-7.4,2.9c-4.5-0.1-8.4-3.3-9.6-7.7
					c-0.5-2.8-0.3-10.6,6.5-12.2c1-0.2,1.7-0.8,2.1-1.6l0.1,0.6L111.2,126z M127.9,96.8c-0.7,3.7-3.5,6.9-7.2,8
					c-2.8,0.8-5.5,0.5-8.1-0.9l-1.1-0.6c-2.1-1.3-3.6-3.6-2.6-10.2c0.3-1.7-0.9-3.4-2.7-3.7c-1.7-0.3-3.4,0.9-3.7,2.7
					c-1.1,6.9,0,11.6,3.5,14.9c-0.8,0.5-1.6,1-2.4,1.4l-5.6,2.3l5,3.3c2.6,1.8,4.5,4.4,5.2,7.4c-0.8-0.8-1.9-1.3-3.1-1
					c-8.5,1.9-11.5,9.4-11.7,15.6c-0.7-0.2-1.3-0.4-1.9-0.6l-3.2-1.4l-1.1,3.4c-1.4,4.3-5.3,7.2-9.8,7.2c-5.7,0-10.4-4.6-10.4-10.4
					c0-2.3,1.2-4.8,3.2-6.7c4.5-4.3,7.4-3.9,10.1-3.2l3.4,1l0.7-3.5c0.8-4.1,3.5-7.4,7.3-9l5.6-2.3l-5-3.3c-2.5-1.7-4.4-4.2-5.1-7.2
					l-1-4.1l-3.7,2.2c-0.7,0.4-1.4,0.7-2.2,1l-3.3,1.1l1.4,3.2c0.6,1.3,0.9,2.7,0.9,4.2c0,5.7-4.6,10.3-10.3,10.4c0,0,0,0,0,0
					c-2.2,0-4.4-0.9-6.2-2.7c-4.3-4-4.4-7-3.9-9.7l0.6-3.1l-3.1-0.6c-5.4-1.1-8.9-6-8.2-11.5c0.5-4,3.5-7.5,7.5-8.6
					c2.1-0.6,4.3-0.5,6.4,0.3c4.7,3.1,7.4,5.3,4.9,10.9c-0.7,1.6,0,3.5,1.7,4.2c0.4,0.2,0.8,0.3,1.3,0.3c1.2,0,2.4-0.7,2.9-1.9
					c3.8-8.7-0.6-13.8-4.6-16.9c0.1-0.1,0.3-0.2,0.4-0.3c2.8,3.2,6.5,4.9,10.7,4.9c1.1,0,2.2-0.1,3.3-0.3c1.7-0.3,2.9-2,2.5-3.7
					c-0.3-1.7-2-2.9-3.7-2.5c-4.1,0.8-7.1-0.5-9.3-4.2c-0.8-1.5-1.2-3.1-1.4-4.8l-0.2-2.2c0.1-1.9,0.9-4.2,2.3-6.1
					c0.8-1.1,2.1-2.3,3.9-2.4c1.8-0.1,3.1-1.6,3-3.4c-0.1-1.8-1.6-3.1-3.4-3c-3.3,0.2-6.3,2-8.6,5c-2.1,2.7-3.3,6.3-3.5,9.6
					c-0.1,0-0.2,0-0.2,0c-2.5,0-4.8-0.7-6.8-2.1l-4.6-3.1L52,65.3c-0.3,5.4-4.9,9.7-10.3,9.7c-3.1,0-6-1.4-7.9-3.7
					c-2-2.4-2.8-5.4-2.3-8.6c0.7-3.7,3.5-6.9,7.2-8c2.8-0.8,5.5-0.5,8.1,1l5,2.9l-0.2-5.8c0-0.9,0.2-4.9,2.3-7.3l2-2.2l-2.1-2.1
					c-1.9-2-3-4.5-3-7.3c0-3.1,1.3-5.9,3.7-7.9c2.4-2,5.4-2.8,8.5-2.3c3.7,0.6,6.9,3.4,8,7.2c0.9,2.7,0.6,5.4-0.9,8l-1.9,3.4l3.8,1.2
					c1.3,0.4,3.5,2.4,4.2,3.6l3.4,5.8l2.3-6.3c0.3-0.8,2.7-3.3,5-4.1l3.3-1.2l-1.4-3.2c-0.6-1.4-0.9-2.8-0.9-4.3c0-3.1,1.4-6.1,3.8-8
					c2.5-2,5.6-2.7,8.8-2.1c3.9,0.8,7.1,4,7.9,8c0.9,4.4-1,8.8-4.9,11l-3.5,2.1l2,2.1c-4.8,4.4-7.8,11.3-4.3,18.1
					c0.6,1.1,1.7,1.7,2.8,1.7c0.5,0,1-0.1,1.5-0.4c1.6-0.8,2.2-2.7,1.4-4.3c-2.7-5.2,1.9-10,4.7-11.9c1.3-0.6,2.1-0.8,3.6-0.8
					c5.6,0,10.1,4.3,10.4,9.9c0,3.9-1.1,6.8-3.2,8.5c-2.9,2.4-7.1,2.4-9,2.1l-2.6-0.5l-0.9,2.5c-0.9,2.4-2.5,2.7-4.9,2.8
					c-1.3,0.1-3,0.1-4.1,1.7c-0.6,0.9-0.8,2.1-0.4,3.2c0.3,0.8,1.1,3,5.6,2.3c2.1-0.3,4.7-0.8,7.8,2.3l1.3,1.3l1.8-0.5
					c1.5-0.4,2.9-0.6,4.1-0.6c3.1,0,6,1.3,7.9,3.7C127.6,90.6,128.4,93.7,127.9,96.8z M64.8,71.3c0.1,0.4,0.2,0.9,0.4,1.3
					c-1.1,0.8-2.1,1.8-3,2.8c-1.3-0.3-2.6-0.5-3.9-0.5c-1.3,0-2.5,0.1-3.7,0.4c1.3-1.5,2.3-3.3,3-5.2C59.8,71,62.3,71.4,64.8,71.3z"/>
			</g>
		</g>
		<g id="CYS_Cysteine">
			<g>
				<path class="AA_2" d="M125.1,71.3c0-2.6-0.6-5.2-1.6-7.4c1-1.8,1.6-3.9,1.6-6.1c0-7.2-5.8-13-13-13c-3.6,0-6.8,1.4-9.2,3.8
					c-1.7-0.5-3.5-0.8-5.4-0.8c-10,0-18.1,8.1-18.1,18.1c0,0.7,0.1,1.5,0.1,2.2c-1.4-0.4-3-0.5-4.2-0.3c1.7-2.2,2.8-4.9,2.8-7.9
					c0-7.2-5.8-13-13-13c-5.4,0-10,3.3-12,8c-10.8,1.2-19.1,10.3-19.1,21.4c0,11.9,9.6,21.5,21.5,21.5c-1.2,1.1-2.1,4.6-2.1,7.3
					c0,7.2,5.8,13,13,13c5.1,0,9.4-2.9,11.5-7.1c1.9-0.1,3.7-0.4,5.4-0.9c1,8.5,8.2,15.2,17,15.2c4,0,7.5-1.4,10.4-3.6
					c7-0.2,12.5-5.9,12.5-12.9c0-6.4-4.7-11.7-10.8-12.7c-3.1-3.1-7.4-5.1-12.2-5.1c-0.6,0-1.2,0.1-1.8,0.2c0-0.5,0.1-1.1,0.1-1.6
					c0-0.7,0-1.4-0.1-2.1c2.5,1.3,5.3,2.1,8.3,2.1C117.1,89.4,125.1,81.3,125.1,71.3z"/>
				<path class="AA_3" d="M128.4,71.3c0-2.5-0.4-5-1.3-7.3c0.9-2,1.3-4.1,1.3-6.2c0-8.9-7.2-16.2-16.2-16.2c-3.7,0-7.2,1.2-10,3.5
					c-1.5-0.3-3-0.5-4.6-0.5c-7.2,0-13.5,3.6-17.4,9.1c-2.4-5.8-8.2-9.9-14.9-9.9c-5.9,0-11.3,3.2-14.1,8.3C39.6,54.1,31,64.3,31,76.3
					c0,12,8.6,22.1,20,24.3c-0.4,1.7-0.6,3.4-0.6,4.5c0,8.9,7.2,16.2,16.2,16.2c5.5,0,10.5-2.7,13.4-7.3c0.4,0,0.7-0.1,1.1-0.1
					c2.5,8.5,10.3,14.6,19.4,14.6c4.1,0,8.1-1.3,11.6-3.7c8.3-0.8,14.6-7.6,14.6-16c0-7.6-5.2-14-12.5-15.7c-0.5-0.4-0.9-0.8-1.4-1.2
					C121.8,89.3,128.4,81.1,128.4,71.3z M56.9,105.1c0-1.2,0.2-2.4,0.5-3.3c0.5,0.1,1,0.2,1.6,0.3c1.5,4.8,5.5,9.6,12.8,11.4
					c-1.5,0.9-3.2,1.4-5.1,1.4C61.2,114.9,56.9,110.5,56.9,105.1z M107.1,86.2c-2.4,0-4.7-0.6-6.9-1.7L95,81.8l0.6,5.9
					c0.1,0.6,0.1,1.2,0.1,1.8c0,0.5,0,0.9-0.1,1.4l-0.3,3.8l3.8-0.4c0.2,0,0.4-0.1,0.7-0.1c0.3,0,0.6-0.1,0.8-0.1
					c3.7,0,7.3,1.5,9.9,4.1l0.7,0.7l1,0.2c4.7,0.8,8.1,4.8,8.1,9.6c0,5.2-4,9.4-9.2,9.7c-5.8-0.7-8.7-3.7-8.3-8.6
					c0.2-1.8-1.1-3.3-2.9-3.5c-1.8-0.1-3.3,1.1-3.5,2.9c-0.5,5.5,1.7,9.9,5.8,12.7c-0.5,0.1-1.1,0.1-1.7,0.1c-7,0-13-5.3-13.8-12.4
					l-0.4-3.8l-3.7,1.1c-1.4,0.4-3,0.7-4.6,0.8c-2.5,0-9.8-0.5-12.5-6.2c0.8-0.2,1.6-0.5,2.4-0.8c3.8-1.7,6.2-5,6.8-9.1
					c0.3-1.7-0.9-3.4-2.7-3.6c-1.8-0.3-3.4,0.9-3.6,2.7c-0.3,2-1.3,3.4-3.1,4.2c-0.7,0.3-1.4,0.5-2.1,0.6l1.1-0.9h-7.5
					c-2.5-1.7-5.5-4.4-1.9-11.9c0.8-1.6,0.1-3.5-1.5-4.3c-1.6-0.8-3.5-0.1-4.3,1.5c-2.3,4.8-2.9,9-1.8,12.6c-5.9-3.1-9.9-9.2-9.9-16.3
					c0-9.3,7-17.2,16.3-18.2l1.9-0.2l0.7-1.7c1.5-3.7,5.1-6,9-6c5.4,0,9.8,4.4,9.8,9.8c0,1.9-0.6,3.8-1.7,5.5
					c-7.8,4.3-13.5-0.4-15-2.7c-1-1.5-3-1.8-4.5-0.8c-1.5,1-1.8,3-0.8,4.5c3.7,5.3,8.7,7.1,13.5,7.1c3.7,0,7.3-1.1,9.9-2.6
					c0.6,0,1.5,0,2.3,0.2l4.7,1.4l-0.6-4.9c-0.1-0.7-0.1-1.3-0.1-1.8c0-8.2,6.7-14.9,14.9-14.9c0.2,0,0.4,0,0.7,0
					c-0.6,2.5-0.3,5.3,0.7,8.3c1.9,5.1,5.7,8.7,9.8,9.1c0.1,0,0.2,0,0.4,0c1.6,0,3-1.2,3.2-2.8c0.2-1.8-1.1-3.3-2.8-3.5
					c-1.6-0.2-3.5-2.3-4.5-5c-0.9-2.6-0.8-5,0.3-6.2c1.8-1.8,4.3-2.8,6.8-2.8c5.4,0,9.8,4.4,9.8,9.8c0,1.6-0.4,3.1-1.2,4.6l-0.8,1.4
					l0.7,1.4c0.9,1.9,1.3,4,1.3,6.1C121.9,79.5,115.3,86.2,107.1,86.2z"/>
			</g>
		</g>
		<g id="GLU_Glutamic_Acid">
			<g>
				<path class="AA_4" d="M20.7,91.4c3.8,13.7,17,16.4,26.4,12.4c2.6,7.2,10.4,11.7,19.3,9.2c0.7,7.9,13.3,18,25,8.7
					c11.6,5,18,0.1,20.6-3c2.6-3.1,4.3-9.4,2.4-14.4c5.9,2.4,18.1,1.8,23.9-11.6c1.9-5.5,3.7-18.9-12.3-25.1c0.7-5.8,0.4-17.9-13-20.8
					C95.9,43.2,90.3,58,90.3,58c-3.1-1.9-7.2-1.4-9.6-0.2c-2.3-1.5-6.6-1.4-9.3,0.1C67,47.8,54.8,43.1,45.9,47.2s-13.5,11.1-11,21.7
					C26.7,70.3,17.2,79,20.7,91.4z"/>
				<path class="AA_5" d="M129.5,65.6c0.5-11.5-5.2-19.6-15.7-21.9c-13.4-2.9-21.6,4.3-25.1,10.2c-2.8-0.7-5.7-0.4-7.9,0.4
					c-2.3-0.9-5.2-1-7.9-0.4c-2.7-4.5-6.9-8-11.9-9.9c-5.5-2.1-11.5-2-16.5,0.2C34.6,48.8,30,56.7,31.2,66.6
					c-4.6,1.6-8.8,4.9-11.4,9.1c-3.1,5-3.9,10.7-2.2,16.7c1.8,6.6,5.8,11.6,11.4,14.3c4.9,2.4,10.9,2.8,16.4,1.3
					c3.7,6.5,10.9,9.9,18.6,9c1.7,4.3,5.6,8.4,10.4,10.4c2.3,1,4.7,1.5,7.1,1.5c3.6,0,7.1-1.1,10.3-3.3c12.8,4.8,20-1.5,22.6-4.6
					c2.4-2.8,4.1-7.5,4-12.3c7.5,0.7,17.6-2.4,22.9-14.5l0.1-0.2C144.6,84.7,143.2,72.1,129.5,65.6z M135.4,91.6
					c-1.8,4-9.1,14.1-19.8,9.8l-3.3-1.3c-3.7-2.3-5.3-6.8-5.3-8c0.2-1.8-1.1-3.3-2.9-3.5c-1.8-0.2-3.3,1.1-3.5,2.9
					c-0.3,3.5,3.1,12.5,11.1,15.4c0.7,3.5-0.5,7.7-2.3,9.8c-2.5,3-7.2,5.7-15.2,2.9c-0.4-4.6-0.9-11-0.9-11l-6.4,0.5
					c0,0,0.5,6.6,0.9,11.2c-4.5,2.9-8.5,2.2-11.2,1.1c-3.8-1.6-6.4-4.9-7.2-7.6c3.6-5.6,10.8-17.4,11.1-17.9c0.9-1.5,0.4-3.5-1.1-4.4
					s-3.5-0.4-4.4,1.1c-0.1,0.1-7.4,12.2-11,17.8c-5.5,1.1-12-1.1-14.3-7.5l-1.2-3.1l-3.1,1.3c-4.6,1.9-9.8,1.9-14-0.1
					c-3.9-1.9-6.7-5.4-8-10.2c-1.2-4.2-0.6-8.2,1.5-11.5c2.2-3.5,6.2-6.3,10.2-7l2.2-0.4c2.4-0.1,5.2,0.6,7.5,2.1
					c1.2,0.8,3.4,2.5,3.7,5c0.2,1.6,1.6,2.8,3.2,2.8c0.1,0,0.3,0,0.4,0c1.8-0.2,3-1.8,2.8-3.6c-0.5-3.8-2.8-7.3-6.6-9.7
					c-3.3-2.1-7.5-3.2-11.1-3.1c-0.7-6.9,2.5-11.8,9.7-15.1c3.4-1.6,7.6-1.6,11.5-0.1c4.4,1.7,7.9,5,9.7,9.1l1.4,3.2l3.1-1.7
					c0.2-0.1,0.5-0.2,0.8-0.3c-3.3,4.9-3.2,10-3.2,10.3l0,0.4c0.8,5.1,5,14.2,15.4,14.2c0.5,0,1,0,1.5-0.1c1.8-0.1,3.1-1.7,2.9-3.5
					c-0.1-1.8-1.7-3.1-3.5-2.9c-7.8,0.7-9.7-6.9-10-8.5c0-1,0.5-6.2,5.4-9.7c1.5-0.6,4.3-1.1,6.4,0.1l3.3,2l1.4-3.6
					c0.2-0.5,4.8-12.2,19.3-9.1c10,2.1,11.2,10.6,10.4,17.3l-0.1,0.5c-0.3,2.8-1.7,5.4-3.8,7.2c-2.9,2.5-7.2,3.6-12.3,3.1
					c-1.8-0.2-3.3,1.1-3.5,2.9c-0.2,1.8,1.1,3.3,2.9,3.5c1,0.1,2,0.1,2.9,0.1c7,0,11.5-2.5,14.2-4.7c2.4-2,4.2-4.7,5.2-7.6
					C138.8,78.2,136.6,88.3,135.4,91.6z"/>
			</g>
		</g>
		<g id="GLN_Glutamine">
			<g>
				<path class="AA_6" d="M129.5,118.4c0.6-2.1,1-4.2,1-6.5c0-12.5-10.1-22.6-22.6-22.6c-10.5,0-19.3,7.2-21.9,16.9
					c-7.6,1.4-13.4,8.1-13.4,16.2c0,9.1,7.4,16.5,16.5,16.5c4.8,0,9-2.1,12-5.3c0.1,0,0.1,0,0.2,0.1c0.9,8.8,8.2,15.8,17.3,15.8
					c9.6,0,17.5-7.8,17.5-17.5C136,126.4,133.5,121.6,129.5,118.4z"/>
				<path id="Body_1_" class="AA_7" d="M126.9,93.3c2-2.5,3.5-5.6,4.2-8.9c2.6-12-4.9-23.8-16.9-26.4c-3.1-0.7-6.2-0.7-9.2-0.1
					c-2.1-7.6-8.3-13.8-16.6-15.7c-4.3-1-8.7-0.5-12.5,0.9c-2.6-2.2-5.8-3.8-9.4-4.6c-7.8-1.7-15.4,0.9-20.6,6.2
					c-1.7-1.5-3.8-2.7-6.1-3.2c-7.3-1.6-14.5,3-16.1,10.3c-1.6,7.3,3,14.5,10.3,16.1c2.4,0.5,4.8,0.3,6.9-0.4
					c1.5,4.3,4.4,8.1,8.1,10.8c-0.2,0.5-0.4,1.1-0.5,1.6c-1.6,7.3,3,14.4,10.3,16c3.5,0.8,7,0.1,9.9-1.7c-2,11.6,5.4,22.9,17.1,25.4
					c8.5,1.9,17-1.4,22.1-7.8c1.9,2.3,4.4,4,7.5,4.7c7.3,1.6,14.4-3,16-10.3C132.5,101.3,130.6,96.4,126.9,93.3z"/>
				<circle class="AA_6" cx="58.7" cy="38.2" r="17.6"/>
				<path class="AA_1" d="M107.1,89.7c1.3-1.2,3.3-1.1,4.5,0.1c1.2,1.3,1.1,3.3-0.1,4.5c-1.3,1.2-7.5,7.7-1.1,15.5
					c1.1,1.4,0.9,3.4-0.4,4.5c-0.6,0.5-1.3,0.7-2,0.7c-0.9,0-1.8-0.4-2.5-1.2C97.1,103.9,102.6,94,107.1,89.7z M101.5,75.1
					c0.8-1.6,0.1-3.5-1.5-4.3c-1.6-0.8-3.5-0.1-4.3,1.5c-2.4,5-9.5,6.8-16.7,4.4c-0.9-3.4-3-6.4-6-8.9c-1.4-1.1-3.4-0.9-4.5,0.5
					c-1.1,1.4-0.9,3.4,0.5,4.5c2.9,2.4,4.4,5.3,4.3,8.6c-0.1,3.8-2.5,7.6-6.3,10.2c-1.5,1-1.8,3-0.8,4.5c0.6,0.9,1.6,1.4,2.6,1.4
					c0.6,0,1.3-0.2,1.8-0.6c4.9-3.4,8.1-8.3,8.9-13.4c2,0.5,4,0.7,5.9,0.7C92.5,84.2,98.7,81,101.5,75.1z M119.8,127.6
					c-1.2-1.3-3.2-1.3-4.5-0.1c-3.9,3.7-7.9,4.9-11.9,3.6c-4.3-1.3-7.1-5-7.4-6.3c-0.4-1.7-2.1-2.8-3.8-2.5c-1.7,0.4-2.8,2.1-2.5,3.8
					c0.8,3.8,5.6,9.1,11.8,11.1c1.6,0.5,3.3,0.8,4.9,0.8c4.6,0,9.2-2,13.3-5.8C121,130.9,121.1,128.8,119.8,127.6z"/>
			</g>
		</g>
		<g id="GLY_Glycine">
			<g>
				<path class="AA_2" d="M130.2,87.7c-1.1-10.3-9.1-18.6-19.3-20.1c1.2-2.3,1.9-4.9,1.9-7.7c0-9.6-7.8-17.4-17.4-17.4
					c-1.1,0-2.2,0.1-3.3,0.3c-3.8-3.2-8.8-5.1-14.1-5.1c-8.1,0-15.2,4.4-19.1,11c-4.8,2.7-8.7,7-10.8,12.2c-0.5,0-1-0.1-1.5-0.1
					c-12.1,0-21.9,9.8-21.9,21.9c0,12.1,9.8,21.9,21.9,21.9c3.5,0,6.7-0.8,9.6-2.2c0.8,4.4,2.8,8.4,5.6,11.6
					c0.8,10.2,9.1,18.2,19.5,18.2c10.1,0,18.4-7.7,19.4-17.5c3.6,3.5,8.5,5.6,13.9,5.6c11.1,0,20-9,20-20
					C134.7,95.5,133,91.2,130.2,87.7z"/>
				<path class="AA_3" d="M133.3,86.5c-1.4-10-8.5-18.2-18.1-21.1c0.5-1.8,0.8-3.6,0.8-5.4c0-11.4-9.2-20.6-20.6-20.6
					c-0.8,0-1.6,0.1-2.4,0.2c-4.3-3.2-9.6-4.9-15-4.9c-8.6,0-16.8,4.5-21.4,11.8c-2,1.2-3.8,2.7-5.5,4.3c0,0,0,0,0,0
					c-2,2-3.7,4.3-5,6.9c-13.6,0.3-24.6,11.4-24.6,25.1c0,13.9,11.3,25.1,25.1,25.1c2.5,0,5-0.4,7.4-1.1c1,3,2.5,5.8,4.4,8.3
					c-0.2,3,0.6,5.6,2.4,7.6c3.7,7.6,11.5,12.9,20.4,12.9c9.8,0,18.3-6.2,21.4-15.2c3.6,2.1,7.6,3.3,11.9,3.3
					c12.8,0,23.2-10.4,23.2-23.2C137.9,95.3,136.3,90.4,133.3,86.5z M81.3,129.1c-2.9,0-5.7-0.8-8-2.2c0.2,0,0.4,0,0.6,0
					c6.8,0,14.6-1.9,20.6-4.5C91.5,126.4,86.7,129.1,81.3,129.1z M114.6,117.1c-4.2,0-8.1-1.5-11.2-4.3c-1.4-3.1-1.2-6.3,0.7-9.5
					c3.4-5.8,11.6-10.5,19.6-11c1.8-0.1,3.1-1.6,3-3.4c-0.1-1.8-1.6-3.1-3.4-3c-7.8,0.5-15.6,4-20.8,9.1c-1.8-4.4-2.2-10.4-1.1-17.5
					c0.3-1.7-0.9-3.4-2.7-3.7c-1.7-0.3-3.4,0.9-3.7,2.7c-1.6,10-0.5,18.2,3.2,24.1c-2.3,4.2-2.7,8.8-1.3,13.1
					c-6.2,4.4-23,8.8-29.9,5.5c-0.3-0.1-0.6-0.3-0.9-0.5c-0.6-1.5-1-3.2-1.2-5l-0.1-1l-0.7-0.8c-2.5-2.9-4.2-6.4-4.9-10.2l-0.8-4.1
					l-3.8,1.8c-2.6,1.3-5.4,1.9-8.2,1.9c-10.3,0-18.7-8.4-18.7-18.7c0-10.3,8.4-18.7,18.7-18.7c0.3,0,0.6,0,1,0l2.6,0.2l0.9-2.1
					c1.1-2.6,2.6-4.9,4.6-6.9c2.7-1.9,10.3-2.4,17.1,0.1c3.5,1.3,9.5,4.4,10.9,11c0.3,1.5,1.6,2.6,3.1,2.6c0.2,0,0.4,0,0.6-0.1
					c1.7-0.4,2.8-2,2.5-3.8c-1.5-7.1-6.8-12.7-15-15.7c-3.6-1.3-7.4-2-11-2.1C67.5,43.3,72.6,41,78,41c3.2,0,6.2,0.8,9,2.3
					c-2.7,3.4-3.4,7.2-3.4,7.4c-0.3,1.7,0.9,3.4,2.6,3.7c0.2,0,0.4,0,0.5,0c1.5,0,2.9-1.1,3.2-2.7c0,0,0.7-3.8,3.4-5.8
					c0.7-0.1,1.4-0.2,2.1-0.2c7.8,0,14.2,6.4,14.2,14.2c0,2.1-0.5,4.2-1.5,6.3l-2,4l4.4,0.6c8.8,1.3,15.7,8.4,16.6,17.2l0.1,0.9
					l0.6,0.7c2.4,3,3.7,6.7,3.7,10.5C131.5,109.6,123.9,117.1,114.6,117.1z"/>
				<path class="AA_2" d="M80.5,84.2c-3.3-2.6-7.4-4.1-11.8-4.1c-10.5,0-19.1,8.5-19.1,19.1s8.5,19.1,19.1,19.1s19.1-8.5,19.1-19.1"/>
				<path class="AA_3" d="M68.6,121.4c-12.3,0-22.3-10-22.3-22.3s10-22.3,22.3-22.3c5.1,0,9.9,1.7,13.8,4.8c1.4,1.1,1.6,3.1,0.5,4.5
					c-1.1,1.4-3.1,1.6-4.5,0.5c-2.8-2.2-6.2-3.4-9.8-3.4c-8.7,0-15.9,7.1-15.9,15.9c0,8.7,7.1,15.9,15.9,15.9s15.9-7.1,15.9-15.9
					c0-1.8,1.4-3.2,3.2-3.2s3.2,1.4,3.2,3.2C90.9,111.4,80.9,121.4,68.6,121.4z"/>
			</g>
		</g>
		<g id="HIS_Histidine">
			<g>
				<path class="AA_4" d="M65.3,151.4c-5.3,0-9.7-4.3-9.7-9.7c0-0.6,0.1-1.1,0.2-1.7c-3.2-1.5-5.8-4-7.3-7.2c-2.6,2.1-5.9,3.2-9.3,3.2
					c-8.3,0-15-6.7-15-15c0-5.2,2.7-10,7.1-12.7c-3.9-2.4-6.5-6.5-7-11.2c-4.9-0.5-8.8-4.6-8.8-9.6c0-5.3,4.3-9.7,9.7-9.7
					c3.1,0,6.1,1.6,7.9,4.1c2-0.9,4-1.4,6.1-1.4c4,0,7.8,1.6,10.6,4.4c1.7-4.9,5.8-8.5,10.9-9.6C59,72.9,58,69.9,58,66.9
					c0-1,0.1-2.1,0.4-3.2c-5.1-0.3-9.1-4.5-9.1-9.7c0-5.3,4.3-9.7,9.7-9.7c4.8,0,8.8,3.6,9.5,8.2c1.4-0.5,2.9-0.7,4.5-0.7
					c4.5,0,8.8,2,11.6,5.5c0.6-0.8,1.3-1.5,2.1-2.1c-3.4-2.8-5.4-7.1-5.4-11.6c0-4.5,2-8.7,5.5-11.5c-0.6-1.3-0.9-2.6-0.9-3.9
					c0-5.3,4.3-9.7,9.7-9.7s9.7,4.3,9.7,9.7c0,1.1-0.2,2.1-0.5,3.1c1.4,0.9,2.5,2,3.5,3.2c1.4-0.8,3.1-1.3,4.7-1.3
					c4.3,0,8,2.8,9.2,6.8c1.9-1.2,4.1-1.9,6.4-1.9c6.8,0,12.3,5.5,12.3,12.3c0,5.7-4,10.6-9.5,11.9c0.4,1.4,0.7,2.9,0.7,4.3
					c0,3.7-1.4,7.4-4,10.1c0.8,0.5,1.4,1,2.1,1.6c1.3-0.6,2.6-0.9,4-0.9c5.3,0,9.7,4.3,9.7,9.7c0,5.3-4.3,9.7-9.7,9.7
					c-1.4,0-2.7-0.3-4-0.9c-2.3,2.2-5.4,3.5-8.5,3.5c-6.8,0-12.3-5.5-12.3-12.3c0-2.4,0.7-4.7,2.1-6.7c-1.7-0.7-3.3-1.8-4.7-3.1
					c-0.7,0.7-1.5,1.3-2.3,1.8c0.6,1.3,0.9,2.6,0.9,4c0,5.3-4.3,9.7-9.7,9.7s-9.7-4.3-9.7-9.7c0-1.7,0.4-3.3,1.2-4.7
					c-0.9-0.7-1.7-1.5-2.5-2.4c-2.1,2.6-5,4.4-8.3,5.1C78.1,84,79,87,79,90c0,1.3-0.2,2.5-0.5,3.8c3.9,0.6,7.4,2.8,9.7,6
					c1.3-0.6,2.7-1,4.1-1c5.3,0,9.7,4.3,9.7,9.7c0,5.3-4.3,9.7-9.7,9.7c-1.4,0-2.8-0.3-4.1-1c-2.6,3.6-6.8,6-11.4,6.3
					c0,0.2,0,0.4,0.1,0.6c0.1,0.8,0.2,1.6,0.2,2.3c0,3.7-1.3,7.2-3.8,9.9c1.1,1.6,1.7,3.5,1.7,5.4C75,147,70.6,151.4,65.3,151.4z
					 M47.2,108.3c2.4,1.5,4.3,3.6,5.5,6.1c2.4-1.9,6.4-2.8,8.6-3.1c-0.4-2-0.5-4.6,0.1-6.7c-3-0.5-5.8-2-8-4.2
					C52.3,103.7,50.1,106.5,47.2,108.3z M104.7,54.5c0.5,0.6,1,1.3,1.7,2.1c0.1,0.2,0.2,0.3,0.4,0.5c2.5-2.3,6.2-3.8,9.9-4.1
					c-0.1-0.6-0.2-1.4-0.3-2c-1.4,0.5-3.2,0.7-4.5,0.7c-1.4,0-2.7-0.3-4-0.9C107,52.2,105.9,53.5,104.7,54.5z"/>
				<path class="AA_5" d="M134.1,74.6c-0.2,0-0.4,0-0.6,0c1.1-2.4,1.7-5,1.7-7.7c0-0.8,0-1.5-0.1-2.3c5.3-2.5,8.9-8,8.9-14
					c0-8.5-7-15.5-15.5-15.5c-1.7,0-3.3,0.3-4.9,0.8c-2.3-3.5-6.4-5.8-10.7-5.8c-1.3,0-2.6,0.2-3.9,0.6c-0.2-0.2-0.5-0.4-0.7-0.6
					c0.1-0.6,0.1-1.2,0.1-1.9c0-7.1-5.8-12.9-12.9-12.9c-7.1,0-12.9,5.8-12.9,12.9c0,1,0.1,2,0.4,3c-3.2,3.4-5,7.8-5,12.5
					c0,2,0.3,4.1,1,5.9c-2.6-0.9-5.5-1.2-8.3-0.9c-2-4.5-6.6-7.7-11.7-7.7c-7.1,0-12.9,5.8-12.9,12.9c0,5.6,3.6,10.4,8.7,12.2
					c0,0.2,0,0.4,0,0.7c0,2.3,0.4,4.6,1.3,6.7c-3,1.4-5.6,3.7-7.4,6.5c-2.8-1.8-6.1-2.7-9.5-2.7c-1.7,0-3.5,0.3-5.2,0.8
					c-2.4-2.3-5.5-3.6-8.8-3.6c-7.1,0-12.9,5.8-12.9,12.9c0,5.8,3.8,10.7,9.2,12.3c0.8,3.2,2.4,6.2,4.7,8.5c-3.3,3.4-5.2,7.9-5.2,12.7
					c0,10,8.2,18.2,18.2,18.2c2.9,0,5.7-0.7,8.2-2c1.3,1.8,3,3.3,4.9,4.5c0,7.1,5.8,12.8,12.9,12.8c7.1,0,12.9-5.8,12.9-12.9
					c0-1.8-0.4-3.5-1.1-5.1c2.1-3,3.2-6.6,3.2-10.2c0-0.1,0-0.1,0-0.2c3.4-0.8,6.6-2.7,9-5.2c1,0.3,2.1,0.4,3.1,0.4
					c7.1,0,12.9-5.8,12.9-12.9c0-5.6-3.6-10.4-8.7-12.2c4.1-0.3,7.8-2.6,9.9-5.9c1.4,7.1,7.7,12.5,15.2,12.5c3.3,0,6.5-1.1,9.2-3.1
					c1.1,0.3,2.2,0.4,3.3,0.4c7.1,0,12.9-5.8,12.9-12.9C147,80.4,141.2,74.6,134.1,74.6z M95.6,21.9c3.6,0,6.5,2.9,6.5,6.5
					c0,0.5-0.1,1-0.2,1.5c-0.6-1-1.7-1.7-3-1.6l-9.7,0.7c0-0.2,0-0.4,0-0.6C89.1,24.8,92,21.9,95.6,21.9z M61.4,78.5
					c0.3-0.1,0.5-0.2,0.8-0.3c0.3,0.8,1,1.4,1.8,1.7c0.1,0,6.6,2.4,10.1,4c1.1,1.8,1.7,3.9,1.7,6c0,1-0.1,1.9-0.4,3
					c-0.1,0.2-0.1,0.4-0.1,0.6c-0.9-0.4-2-0.3-2.9,0.2c-0.3,0.2-7,4.3-11.6,7.4c-1.6-0.5-3.2-1.3-4.4-2.4c-0.8-3.6-2.1-10.2-2.1-10.3
					c-0.2-0.9-0.8-1.7-1.5-2.1c0.1-0.1,0.1-0.2,0.2-0.3C54.2,82.3,57.4,79.4,61.4,78.5z M57.8,108.8c-1.3,0.3-2.6,0.7-4,1.3
					c-0.5-0.6-1-1.2-1.5-1.8c0.9-0.9,1.6-1.8,2.3-2.9c1,0.6,2.1,1.1,3.2,1.5C57.8,107.6,57.8,108.2,57.8,108.8z M24.7,93.9
					c-3.4-0.3-5.9-3.1-5.9-6.4c0-3.6,2.9-6.5,6.5-6.5c2.1,0,4.1,1,5.3,2.8c0.9,1.3,2.5,1.7,4,1.1c4.6-2.1,9.7-1,13.1,2.4
					c0.2,0.2,0.4,0.4,0.7,0.5c-0.3,0.6-0.4,1.3-0.3,2c0.1,0.3,1.3,6.8,2.1,10.4c-0.8,2-2.2,3.6-4,4.9c-4.2,0.2-10,0.2-10.1,0.2
					c0,0,0,0,0,0c-0.9,0-1.7,0.4-2.2,0.9c-0.2-0.2-0.4-0.5-0.7-0.7c-3.1-1.9-5.1-5.1-5.5-8.8C27.5,95.3,26.2,94.1,24.7,93.9z
					 M39.3,132.8c-6.5,0-11.8-5.3-11.8-11.8c0-4,2.1-7.8,5.6-10c0.2-0.1,0.4-0.3,0.5-0.4c0.6,0.7,1.5,1.1,2.4,1.1c0,0,0,0,0,0
					c0.5,0,5.9,0,10.2-0.2c1.2,0.9,2.2,2,3,3.3c-1.4,4.9-3,11.9-3,12.2c-0.2,1.1,0.1,2.1,0.8,2.9c-0.2,0.1-0.3,0.2-0.5,0.3
					C44.5,131.9,42,132.8,39.3,132.8z M70.6,138.1c0.8,1.1,1.1,2.3,1.1,3.6c0,3.6-2.9,6.5-6.5,6.5s-6.5-2.9-6.5-6.5
					c0-0.4,0-0.7,0.1-1.1c0.3-1.5-0.4-2.9-1.8-3.6c-2.5-1.1-4.5-3.1-5.7-5.6c-0.1-0.3-0.3-0.6-0.6-0.8c0.8-0.4,1.4-1.2,1.6-2.2
					c0-0.1,1.6-7.3,3-12c1.4-0.8,3.3-1.4,4.9-1.7c3.3,2.8,9.2,7.6,9.5,7.8c0.6,0.5,1.3,0.7,2,0.7c0.7,0,1.3-0.2,1.9-0.6
					c-0.1,0.4-0.1,0.8-0.1,1.1l0.1,0.6c0.1,0.6,0.1,1.4,0.1,1.9c0,2.9-1.1,5.7-3,7.8C69.9,135.3,69.8,136.9,70.6,138.1z M98.8,108.5
					c0,3.6-2.9,6.5-6.5,6.5c-0.9,0-1.9-0.2-2.7-0.6c-1.4-0.7-3.1-0.2-4,1c-2.1,2.9-5.4,4.7-9,4.9c-0.6,0-1.2,0.3-1.6,0.6
					c0.3-1.2-0.1-2.5-1.1-3.3c-0.1-0.1-6.4-5.2-9.6-7.9c-0.1-1-0.2-2.1,0-3.1c4.5-3.1,11.4-7.3,11.5-7.4c0.9-0.6,1.4-1.5,1.5-2.5
					c0.2,0.1,0.4,0.2,0.7,0.2c3.1,0.5,5.8,2.2,7.6,4.7c0.9,1.3,2.6,1.7,4,1c0.9-0.4,1.8-0.6,2.7-0.6C95.9,102,98.8,105,98.8,108.5z
					 M91.4,95.7c-0.7,0.1-1.5,0.2-2.2,0.4c-2-2.1-4.4-3.6-7.1-4.6c0-0.5,0.1-1,0.1-1.5c0-2.3-0.4-4.6-1.3-6.7c0.6-0.3,1.2-0.6,1.8-1
					c0,0.4-0.1,0.8-0.1,1.2C82.7,89.1,86.4,93.9,91.4,95.7z M104.5,75.4c-0.6,0.5-1.2,1-1.8,1.4c-1.3,0.9-1.9,2.6-1.2,4
					c0.4,0.8,0.6,1.7,0.6,2.6c0,3.6-2.9,6.5-6.5,6.5c-3.6,0-6.5-2.9-6.5-6.5c0-1.1,0.3-2.2,0.8-3.1c0.8-1.4,0.4-3.1-0.8-4.1
					c-0.7-0.6-1.4-1.2-1.9-1.9c-0.6-0.7-1.5-1.2-2.5-1.2c0,0,0,0,0,0c-1,0-1.9,0.4-2.5,1.2c-1.4,1.7-3.4,3-5.5,3.7
					c-3.8-1.8-10.2-4.1-10.5-4.2c-0.9-0.3-1.8-0.2-2.6,0.2c-0.1-0.2-0.2-0.4-0.3-0.5c-1.4-2-2.1-4.3-2.1-6.6c0-0.8,0.1-1.6,0.3-2.5
					c0.2-0.9,0-1.9-0.5-2.6s-1.4-1.2-2.4-1.3c-3.4-0.2-6.1-3-6.1-6.5c0-3.6,2.9-6.5,6.5-6.5c3.2,0,5.9,2.4,6.4,5.5
					c0.1,0.9,0.7,1.7,1.5,2.2c0.8,0.5,1.8,0.6,2.6,0.3c1.1-0.4,2.3-0.5,3.5-0.5c3.2,0,6.2,1.3,8.4,3.6v11.2c0,1.8,1.4,3.2,3.2,3.2
					s3.2-1.4,3.2-3.2V58.7c0.3-0.3,0.6-0.6,0.9-0.8c0.7-0.6,1.2-1.5,1.2-2.5c0-1-0.4-1.9-1.2-2.5c-2.7-2.3-4.3-5.6-4.3-9.1
					c0-3.2,1.3-6.2,3.6-8.4l11.2-0.8c1.1-0.1,2.1-0.8,2.6-1.7c0.2,0.5,0.6,0.9,1.1,1.2c1.1,0.7,2,1.6,2.7,2.5c1,1.3,2.7,1.6,4.1,0.8
					c1-0.6,2-0.8,3.2-0.8c2.8,0,5.3,1.9,6.1,4.6c0.3,1,1,1.7,1.9,2.1c0.9,0.3,2,0.2,2.8-0.3c1.5-0.9,3-1.4,4.7-1.4
					c5,0,9.1,4.1,9.1,9.1c0,4.1-2.9,7.8-7,8.8c-0.4,0.1-0.8,0.3-1.2,0.6c0.1-1.1-0.3-2.3-1.3-3l-8.5-5.9c0-0.2,0-0.3-0.1-0.4
					c-0.1-1-0.6-1.8-1.4-2.4c-0.8-0.5-1.8-0.7-2.8-0.3c-1,0.3-2.4,0.6-3.5,0.6c-0.9,0-1.8-0.2-2.7-0.6c-1.5-0.7-3.2-0.2-4.1,1.2
					c-0.7,1.1-1.5,2.1-2.5,2.9c-0.7,0.5-1.1,1.3-1.2,2.2c-0.1,0.9,0.2,1.7,0.8,2.4c0.4,0.5,0.9,1.1,1.5,1.9l0.4,0.5
					c0.5,0.7,1.4,1.2,2.3,1.3c0.1,0,0.2,0,0.3,0c0.8,0,1.6-0.3,2.1-0.8c1.7-1.6,4.3-2.7,7-3.2l8.6,6c0.6,0.4,1.2,0.6,1.8,0.6
					c0.7,0,1.3-0.2,1.9-0.7c0,0.4,0,0.9,0.1,1.3c0.3,1.1,0.5,2.3,0.5,3.4c0,2.9-1.1,5.8-3.2,8c-0.5,0.5-0.8,1.3-0.8,2
					c-0.7-0.9-1.9-1.5-3.1-1.3l-9.9,1.8c-1.1-0.5-2-1.2-2.9-2C107.7,74.2,105.7,74.2,104.5,75.4z M134.1,94c-0.9,0-1.8-0.2-2.6-0.6
					c-1.2-0.6-2.6-0.3-3.6,0.6c-1.7,1.7-4,2.6-6.3,2.6c-5,0-9.1-4.1-9.1-9.1c0-1.4,0.3-2.6,0.9-3.8l9.5-1.7c1.5-0.3,2.5-1.5,2.6-3
					c0.2,0.3,0.5,0.6,0.9,0.8c0.6,0.3,1.1,0.8,1.5,1.2c1,0.9,2.4,1.2,3.6,0.6c0.8-0.4,1.7-0.6,2.6-0.6c3.6,0,6.5,2.9,6.5,6.5
					C140.6,91.1,137.7,94,134.1,94z"/>
			</g>
		</g>
		<g id="ILE_Isoleucine">
			<g>
				<path class="AA_0" d="M136.9,79.2c0.4-1.4,0.7-2.9,0.7-4.5c0-3.1-0.9-5.9-2.4-8.3c3.6-2.2,5.9-6.2,5.9-10.7c0-7-5.7-12.6-12.6-12.6
					c-7,0-12.6,5.7-12.6,12.6c0,1.4,0.3,2.8,0.7,4c-2.7,0.9-5.1,2.6-7,4.8c-1.6-4.6-5-8.2-9.5-10c4.8-2,8.4-6.2,9.6-11.4
					c1.6,0.6,3.3,0.9,5.2,0.9c8.5,0,15.5-6.9,15.5-15.5s-6.9-15.5-15.5-15.5c-7.2,0-13.1,4.9-14.9,11.5c-1.9-0.7-3.9-1.2-6-1.2
					c-1.5,0-2.9,0.3-4.3,0.7C87.6,18,81.9,13.5,75,13.5c-8.6,0-15.6,7-15.6,15.6s7,15.6,15.6,15.6c1.3,0,2.5-0.2,3.6-0.5
					c1.4,4.6,4.8,8.4,9.2,10.2c-3.5,1.4-6.4,4-8.2,7.3c-2.3-3.1-6-5.1-10.2-5.1c-5.8,0-10.7,3.9-12.2,9.2c-1.8-1.8-3.9-3.2-6.3-4.1
					c0.5-1.4,0.9-2.9,0.9-4.4c0-6.9-5.6-12.5-12.5-12.5c-6.9,0-12.5,5.6-12.5,12.5c0,3.8,1.7,7.1,4.4,9.4c-2.2,2.6-3.8,5.8-4.2,9.4
					c-0.1,0-0.1,0-0.2,0c-6.6,0-12,5.4-12,12c0,6.6,5.4,12,12,12c4.3,0,8.1-2.3,10.2-5.7c2.3,1.1,4.9,1.7,7.6,1.7c3.5,0,6.7-1,9.5-2.8
					c2.1,3.2,5.2,5.7,8.7,7.2c-1.3,2-2.7,6-1.8,8.7c-0.4,0.2-0.8,0.5-1,0.8c-2.8-2.4-7.9-6.4-11.6-5.2c-3.7,1.3-6.6,3.5-6.6,9
					c-1,1.1-1.8,2.3-2.5,3.7c-1.1-0.4-2.3-0.7-3.5-0.7c-5.5,0-9.9,4.4-9.9,9.9s4.4,9.9,9.9,9.9c2,0,3.9-0.6,5.5-1.7
					c2.1,2.6,5,4.6,8.3,5.5c-0.6,1.4-0.9,2.9-0.9,4.5c0,6.4,5.2,11.7,11.7,11.7c6.5,0,11.7-5.2,11.7-11.7c0-4.2-2.2-7.8-5.5-9.9
					c0.9-1.1,1.8-2.4,2.4-3.7c1.8,2,4.5,3.3,7.4,3.3c5.5,0,10-4.5,10-10c1.4,0.7,4.6,2,7.5,2c6.5,0,11.8-5.3,11.8-11.8
					c0-6.5-5.3-11.8-11.8-11.8c-1.8,0-3.6,0.5-5.1,1.2c-0.9-3-2.7-5.6-5.1-7.5c3.2-2.9,5.4-6.7,6.2-11.1c0.3,0.1,0.5,0.2,0.8,0.2
					c1.7,3.1,4.9,5.2,8.7,5.2c4.3,0,7.9-2.7,9.3-6.5c0.4,3.3,8.5,7.1,11.1,5.6c0,0.1,0,0.1,0,0.2c0,6.8,5.5,12.4,12.4,12.4
					c6.8,0,12.4-5.5,12.4-12.4C144.6,85.5,141.4,81.1,136.9,79.2z"/>
				<path class="AA_1" d="M140.6,77.6c0.2-1,0.2-1.9,0.2-2.8c0-2.5-0.5-5.1-1.5-7.4c3.2-3,5.1-7.1,5.1-11.6c0-8.3-6.4-15.2-14.6-15.8
					c2.4-3.2,3.9-7.1,3.9-11.4c0-10.3-8.4-18.7-18.7-18.7c-7.3,0-13.8,4.3-16.9,10.8c-2.1-0.5-4.2-0.6-6.5-0.3
					c-3.2-6.1-9.6-10.1-16.6-10.1c-10.4,0-18.8,8.4-18.8,18.8S64.7,48,75,48c0.5,0,1,0,1.6-0.1c1.2,2.6,2.9,4.8,5.1,6.6
					c-0.9,0.7-1.7,1.5-2.5,2.4c-2.8-2.2-6.2-3.4-9.8-3.4c-5.5,0-10.5,2.9-13.4,7.4c-0.4-0.3-0.9-0.5-1.3-0.8c0.2-0.9,0.2-1.8,0.2-2.7
					c0-8.7-7-15.7-15.7-15.7c-8.7,0-15.7,7-15.7,15.7c0,3.5,1.2,6.9,3.4,9.7c-1.2,1.9-2.1,4-2.7,6.2c-7.2,1.2-12.7,7.5-12.7,15
					c0,8.4,6.8,15.2,15.2,15.2c4.4,0,8.4-1.8,11.3-5c4.9,1.6,10.4,1.3,15.1-0.8c1.6,1.8,3.4,3.3,5.4,4.5c-0.3,0.8-0.5,1.6-0.7,2.4
					c-4-2.6-7.5-3.5-10.4-2.5c-5.4,1.8-8.4,5.5-8.8,10.8c-0.3,0.4-0.6,0.8-0.9,1.2c-0.7-0.1-1.3-0.2-2-0.2c-7.2,0-13.1,5.9-13.1,13.1
					c0,7.2,5.9,13.1,13.1,13.1c1.6,0,3.3-0.3,4.8-0.9c1.5,1.4,3.3,2.6,5.1,3.5c-0.1,0.8-0.2,1.7-0.2,2.6c0,8.2,6.7,14.9,14.9,14.9
					s14.9-6.7,14.9-14.9c0-2.7-0.7-5.2-2-7.4c1,0.3,2.1,0.4,3.1,0.4c5.8,0,10.7-3.7,12.5-8.9c1.5,0.5,3.3,0.8,5,0.8
					c8.3,0,15-6.7,15-15s-6.7-15-15-15c-1.1,0-2.2,0.1-3.3,0.4c-0.7-1.3-1.5-2.5-2.4-3.6c1.3-1.6,2.3-3.3,3.2-5.1
					c2.2,1.7,5,2.7,7.9,2.7c3.7,0,7.1-1.6,9.5-4.1c1.1,0.9,2.3,1.5,3,1.9c1,0.5,2.9,1.3,5,1.6c1.5,7,7.8,12.3,15.2,12.3
					c8.6,0,15.6-7,15.6-15.6C147.8,85.3,145,80.4,140.6,77.6z M18,88.2c0-4.8,3.9-8.7,8.7-8.8c0.1,0,0.2,0,0.2,0
					c0.6,0,1.1-0.1,1.6-0.4c-1.2,0.7-1.8,2.2-1.4,3.6c0.3,0.9,2.2,7.5,5.7,12c-1.6,1.5-3.7,2.4-6,2.4C22,97,18,93.1,18,88.2z
					 M56.8,91.7c-1-1.4-2.9-1.8-4.4-0.9c-4,2.6-9.2,3-13.6,1c-2.7-2.6-4.9-8.7-5.6-11c-0.5-1.7-2.3-2.7-4-2.2
					c-0.2,0.1-0.4,0.1-0.5,0.2c0.7-0.5,1.3-1.3,1.4-2.3c0.4-2.9,1.5-5.5,3.4-7.7c0.6-0.6,0.8-1.5,0.8-2.3c-0.1-0.8-0.5-1.6-1.1-2.2
					c-2.1-1.8-3.3-4.3-3.3-7c0-5.1,4.2-9.3,9.3-9.3c5.1,0,9.3,4.2,9.3,9.3c0,1.1-0.2,2.2-0.6,3.3c-0.6,1.7,0.2,3.5,1.8,4.1
					c2,0.8,3.7,1.9,5.2,3.4c0.8,0.8,2,1.1,3.1,0.9c1.1-0.3,2-1.1,2.3-2.2c1.2-4.1,4.9-6.9,9.1-6.9c3,0,5.8,1.4,7.6,3.9c0,0,0,0,0,0
					c0.1,0.2,0.3,0.4,0.5,0.5c0.1,0,0.1,0.1,0.2,0.1c0.1,0.1,0.2,0.2,0.3,0.2c7.8,4.3,10.7,11.1,8.8,20.7c0,0,0,0,0,0c0,0,0,0,0,0
					c-0.6,3.6-2.5,6.9-5.2,9.3c0,0,0,0-0.1,0.1c0,0-0.1,0-0.1,0.1c-2.7,2.7-11.3,5.9-17.3,3c0,0-0.1,0-0.1,0c0,0,0,0-0.1,0
					C61.1,96.4,58.6,94.3,56.8,91.7z M90.3,107.4c1.2-0.6,2.5-0.9,3.7-0.9c4.8,0,8.6,3.9,8.6,8.6s-3.9,8.6-8.6,8.6
					c-2.4,0-5.2-1.3-6.1-1.7c-1-0.5-2.2-0.4-3.1,0.2c-0.9,0.6-1.5,1.6-1.5,2.7c0,3.8-3.1,6.8-6.8,6.8c-1.9,0-3.7-0.8-5.1-2.3
					c-0.7-0.8-1.8-1.2-2.9-1c-1.1,0.2-2,0.9-2.4,1.9c-0.5,1-1.1,2-1.9,3c-0.6,0.7-0.8,1.6-0.7,2.5s0.7,1.7,1.5,2.2
					c2.5,1.6,4,4.2,4,7.2c0,4.7-3.8,8.5-8.5,8.5s-8.5-3.8-8.5-8.5c0-0.7,0.1-1.4,0.3-2l9.2-3.2c1.7-0.6,2.6-2.4,2-4.1
					c-0.6-1.7-2.4-2.6-4.1-2l-9.7,3.3c-2.3-0.8-4.3-2.2-5.8-4.1c-0.6-0.8-1.6-1.2-2.5-1.2c-0.6,0-1.2,0.2-1.8,0.5
					c-1.1,0.7-2.4,1.1-3.7,1.1c-3.7,0-6.7-3-6.7-6.7c0-3.7,3-6.7,6.7-6.7c0.8,0,1.6,0.2,2.4,0.5c1.5,0.6,3.3-0.1,4-1.6
					c0.5-1.1,1.2-2.1,2-3c0.5-0.6,0.8-1.3,0.8-2.1c0-3.3,1.2-4.9,4.5-6c0.9-0.3,3.6,0.3,8.4,4.5c0.7,0.6,1.7,0.9,2.7,0.7
					c0.8-0.1,1.5-0.6,2-1.2c1.3-0.7,2-2.4,1.5-3.9c-0.3-0.8-0.1-2.3,0.4-3.7c1.7,0.5,3.5,0.7,5.3,0.7c5.2,0,10.4-1.8,13.9-4.1
					c1,1.2,1.8,2.6,2.2,4.1c0.3,0.9,0.9,1.7,1.8,2C88.5,107.8,89.5,107.8,90.3,107.4z M111.9,84.3c-0.2-1.4-1.4-2.5-2.8-2.7
					c-1.5-0.2-2.8,0.7-3.4,2.1c-1,2.6-3.5,4.4-6.3,4.4c-2.4,0-4.7-1.4-5.9-3.5c0,0-0.1-0.1-0.1-0.1c1.4-10.1-1.8-18.1-9.3-23.5
					c1.4-1.5,3-2.7,4.9-3.5c1.2-0.5,2-1.7,2-3c0-1.3-0.8-2.5-2-3c-3.5-1.5-6.2-4.5-7.4-8.2c-0.5-1.6-2.2-2.6-3.8-2.2
					c-1.1,0.3-2,0.4-2.9,0.4c-6.8,0-12.4-5.6-12.4-12.4c0-6.8,5.6-12.4,12.4-12.4c4.8,0,9.1,2.8,11.1,7.1l-6.6,11.3
					c-0.9,1.5-0.4,3.5,1.1,4.4c0.5,0.3,1.1,0.4,1.6,0.4c1.1,0,2.2-0.6,2.8-1.6l6.7-11.4c0.8-0.2,1.5-0.2,2.2-0.2c1.6,0,3.2,0.3,4.8,1
					c0.8,0.3,1.8,0.3,2.6-0.1c0.8-0.4,1.4-1.2,1.7-2c1.4-5.4,6.3-9.1,11.8-9.1c6.8,0,12.3,5.5,12.3,12.3s-5.5,12.3-12.3,12.3
					c-1,0-2-0.1-3-0.4c-2.9-5.2-6.5-11.7-6.5-11.7l-5.6,3.1c0,0,3.6,6.5,6.5,11.7c-1.2,3.6-3.8,6.6-7.4,8c-1.2,0.5-2,1.7-2,3
					c0,1.3,0.8,2.5,2,3c3.6,1.4,6.4,4.4,7.6,8.1c0.4,1.1,1.3,1.9,2.4,2.1c1.1,0.2,2.3-0.2,3-1.1c1.5-1.8,3.4-3.1,5.6-3.8
					c1.7-0.6,2.6-2.4,2-4.1c-0.4-1.1-0.6-2.1-0.6-3c0-5.2,4.2-9.4,9.4-9.4s9.4,4.2,9.4,9.4c0,3.2-1.7,6.2-4.4,8
					c-1.5,0.9-1.9,2.9-1,4.4c1.3,2,1.9,4.3,1.9,6.6c0,1.1-0.2,2.2-0.6,3.6c0,0.1-0.1,0.3-0.1,0.4c-1-0.4-2.2-0.3-3.1,0.4
					c-0.1,0.1-7,5.2-11.7,8.3c-0.2,0.1-0.3,0.1-0.5,0.2C116.9,87.8,112.5,85.6,111.9,84.3z M112.9,57.9c-0.8,0.4-1.5,0.9-2.2,1.4
					c-1.2-1.8-2.6-3.5-4.3-4.8c2.4-2,4.3-4.6,5.5-7.5c1.1,0.2,2.2,0.3,3.3,0.3c-1.6,2.5-2.5,5.4-2.5,8.5
					C112.7,56.5,112.8,57.2,112.9,57.9z M132.2,99.8c-4.5,0-8.2-3.3-9-7.5c4.7-3.2,11-7.8,11.3-8c0.7-0.5,1.1-1.3,1.3-2.1
					c3.4,1.4,5.7,4.7,5.7,8.5C141.4,95.7,137.3,99.8,132.2,99.8z"/>
			</g>
		</g>
		<g id="LEU_Leucine">
			<g>
				<path class="AA_2" d="M136.3,83.9c0-6.6-4.9-12.1-11.3-13c-0.7-0.9-1.5-1.6-2.3-2.4c0-0.2,0.1-0.3,0.1-0.5
					c0-7.1-5.8-12.9-12.9-12.9c-4.6,0-8.5,2.4-10.8,6c0.5-1.4,0.8-2.9,0.8-4.5c0-6-4-11-9.5-12.6c-0.4-0.7-0.9-1.4-1.4-2.1
					c-0.1-5.9-4.9-10.7-10.9-10.7c-2.9,0-5.5,1.1-7.4,2.9c-0.8,0.1-1.6,0.2-2.4,0.4c-1.5-0.6-3.2-0.9-5-0.9c-7.8,0-14.1,6.3-14.1,14.1
					c0,0.4,0.1,0.7,0.1,1.1c-1.1-0.2-2.2-0.3-3.3-0.3c-0.7,0-1.3,0-1.9,0.1c-1.9-0.9-4.1-1.5-6.3-1.5c-8.1,0-14.7,6.6-14.7,14.7
					c0,3.7,1.4,7.1,3.7,9.7c0,0.3,0.1,0.6,0.2,0.8c-0.9,1.9-1.4,4.1-1.4,6.4c0,8.5,6.9,15.4,15.4,15.4c5.3,0,9.9-2.6,12.7-6.6
					c0.9,0.8,1.9,1.6,2.9,2.3c-0.3,1.2-0.5,2.4-0.5,3.6c0,8.8,7.1,15.9,15.9,15.9c0.8,0,1.5-0.1,2.3-0.2c-3.3,3.1-5.4,7.6-5.4,12.5
					c0,9.5,7.7,17.2,17.2,17.2c6,0,11.3-3.1,14.4-7.8c2.6,1.6,5.7,2.6,8.9,2.6c9.3,0,16.8-7.5,16.8-16.8c0-0.9-0.1-1.8-0.2-2.7
					c2.6-2.5,4.3-5.9,4.3-9.8c0-3-1-5.8-2.7-8C132.7,94.4,136.3,89.6,136.3,83.9z"/>
				<path class="AA_3" d="M139.5,83.9c0-7.6-5.4-14.2-12.8-15.9c-0.2-0.3-0.5-0.5-0.8-0.8c-0.4-8.5-7.5-15.2-16-15.2
					c-2.5,0-4.9,0.6-7.1,1.7c-1.1-5.5-5-10.2-10.3-12.2c-0.1-0.2-0.3-0.4-0.4-0.6c-0.7-7.2-6.8-12.8-14-12.8c-3.2,0-6.3,1.1-8.8,3.1
					c-0.3,0-0.5,0.1-0.8,0.1c-1.7-0.6-3.5-0.8-5.2-0.8c-8.7,0-15.9,6.4-17.1,14.8c-0.5,0-1,0-1.5,0c-2.2-1-4.6-1.4-6.9-1.4
					c-9.9,0-17.9,8-17.9,17.9c0,3.8,1.3,7.5,3.6,10.6c-0.7,2-1.1,4.1-1.1,6.2c0,10.3,8.4,18.6,18.6,18.6c4.4,0,8.6-1.6,12-4.4
					c0,0.1,0,0.3,0,0.4c0,9.2,6.5,16.8,15.1,18.7c-1.5,2.9-2.3,6.1-2.3,9.5c0,11.3,9.2,20.4,20.4,20.4c5.9,0,11.4-2.5,15.3-6.9
					c2.5,1.1,5.3,1.7,8.1,1.7c11,0,20-9,20-20c0-0.5,0-1-0.1-1.6c2.7-3,4.1-6.9,4.1-10.9c0-2.3-0.5-4.6-1.4-6.7
					C136.6,94.6,139.5,89.5,139.5,83.9z M63.3,36.9c1.2,0,2.5,0.2,3.8,0.7c0.6,0.2,1.2,0.3,1.8,0.1c0.1,0,0.2,0,0.2,0
					c-0.5,0.6-0.8,1.5-0.7,2.4c0,0,0.2,3.7-4.4,9.1c-2.9,3.4-6,5.1-8.3,4.3c-1.7-0.6-3-2.5-3.2-5c0,0,0,0,0,0c0-0.2,0-0.4-0.1-0.6
					c0-0.1,0-0.2,0-0.2C52.5,41.8,57.4,36.9,63.3,36.9z M126.5,93.3c-0.9,0.4-1.7,1.1-2,2.1c-0.3,1-0.1,2,0.5,2.8
					c1.3,1.8,2.1,3.9,2.1,6.1c0,1.8-0.4,3.4-1.3,4.9c-3.4-3.2-7.4-5.4-12.2-6.8c-1.7-0.5-3.5,0.5-4,2.2c-0.5,1.7,0.5,3.5,2.2,4
					c3,0.9,7.3,2.5,11.2,6.9c0.1,0.5,0.1,0.9,0.1,1.3c0,7.5-6.1,13.6-13.6,13.6c-1.6,0-3.2-0.3-4.7-0.8c0.7-2.7,0.2-6-1.5-9.4
					c-3.7-7.7-12.8-14.9-22.9-14c-1.8,0.2-3.1,1.7-2.9,3.5c0.2,1.8,1.7,3.1,3.5,2.9c7.1-0.6,13.9,4.9,16.6,10.5
					c1.2,2.5,1.5,4.9,0.6,5.8c-0.1,0.1-0.1,0.1-0.2,0.2c-0.1,0.1-0.1,0.1-0.2,0.2c-2.6,4-7,6.3-11.7,6.3c-7.7,0-14-6.3-14-14
					c0-3.9,1.5-7.5,4.4-10.1c1-1,1.3-2.5,0.7-3.7c-0.5-1.1-1.7-1.8-2.9-1.8c-0.1,0-0.3,0-0.5,0l-0.3,0c-0.6,0.1-1.1,0.2-1.5,0.2
					c-7,0-12.7-5.7-12.7-12.7c0-0.9,0.1-1.8,0.4-2.9c0.3-1.3-0.2-2.7-1.4-3.4c-0.9-0.6-1.7-1.2-2.5-1.9c-0.7-0.6-1.6-0.9-2.5-0.8
					c-0.9,0.1-1.7,0.6-2.3,1.4c-2.3,3.3-6.1,5.3-10,5.3c-6.7,0-12.2-5.5-12.2-12.2c0-1.7,0.4-3.4,1.1-5c0.3-0.6,0.4-1.3,0.2-2
					c0-0.2-0.1-0.3-0.1-0.5l0-0.2c-0.1-0.6-0.4-1.1-0.8-1.6c-1.3-1.5-2.9-4-2.9-7.6c0-6.3,5.2-11.5,11.5-11.5c1.7,0,3.3,0.4,4.9,1.2
					c1.2,0.6,1,2.7,0.8,3.8c-0.9,5.1-5.9,11.7-10.3,12.1c-1.8,0.2-3,1.8-2.9,3.5c0.2,1.6,1.6,2.9,3.2,2.9c0.1,0,0.2,0,0.3,0
					c7.5-0.8,14.2-9.3,15.8-16.7c1.2,1.2,2.6,2,4.1,2.5c1,0.3,2,0.5,3.1,0.5c4.1,0,8.3-2.4,12-6.8c6.4-7.5,6-13.2,5.9-13.9
					c-0.1-1.3-1.1-2.3-2.2-2.7c0.1-0.1,0.1-0.1,0.2-0.2c1.4-1.3,3.3-2.1,5.2-2.1c4.2,0,7.6,3.4,7.7,7.6c0,0.7,0.2,1.4,0.7,1.9
					c0.4,0.5,0.8,1.1,1.2,1.8c0.4,0.7,1.1,1.2,1.8,1.4c4.3,1.3,7.2,5.1,7.2,9.5c0,1.1-0.2,2.2-0.6,3.4c-0.6,1.5,0.1,3.2,1.6,4
					c1.5,0.7,3.2,0.2,4.1-1.1c1.8-2.8,4.8-4.5,8.1-4.5c4,0,7.5,2.5,8.9,6c-5.6-0.3-12.6,0.3-17.8,1.8c-1.7,0.5-2.7,2.3-2.2,4
					c0.4,1.4,1.7,2.3,3.1,2.3c0.3,0,0.6,0,0.9-0.1c5.1-1.4,12.7-2,17.8-1.3c0,0,0,0,0,0c0.7,0.6,1.3,1.3,1.9,2c0.5,0.6,1.2,1,2,1.2
					c4.9,0.7,8.5,4.9,8.5,9.8C133.1,88.1,130.4,91.8,126.5,93.3z"/>
				<path class="AA_8" d="M57.6,68c-2.1,0-4.1,0.4-5.9,1.2c-5.4,2.3-9.3,7.7-9.3,14c0,8.4,6.8,15.2,15.2,15.2s15.2-6.8,15.2-15.2"/>
				<path class="AA_8" d="M94.8,97.2c2.1-0.1,4.1-0.6,5.9-1.4c5.4-2.5,9-8,8.7-14.3c-0.3-8.4-7.3-14.9-15.7-14.6s-14.9,7.3-14.6,15.7"
					/>
			</g>
		</g>
		<g id="LYS_Lysine">
			<g>
				<path class="AA_4" d="M117.7,136.9c0.4-1.1,0.6-2.3,0.6-3.6c0-6.3-5.2-11.5-11.5-11.5c-3.9,0-7.3,2-9.4,4.9c-2.2-1.8-5-3-8.1-3.2
					c5.1-1.6,8.8-6.3,9-11.9c0.8-1.3,1.4-2.7,1.8-4.2c4.6-0.5,8.3-4.4,8.3-9.1c0-5.1-4.1-9.2-9.2-9.2c-1.7,0-3.2,0.5-4.6,1.3
					c-2.9-2.4-6.6-3.8-10.6-3.8c-0.3,0-0.5,0-0.8,0c0.4-1.2,0.7-2.4,0.7-3.7c0.5,0.1,1,0.2,1.6,0.2c5.5,0,10-4.5,10-10
					c0-0.9-0.2-1.7-0.4-2.6c0.1,0,0.2,0,0.4,0c5.4,0,9.7-4.4,9.7-9.7s-4.4-9.7-9.7-9.7c-2.1,0-4,0.7-5.6,1.8c-2.7-2.3-6.2-3.7-10-3.7
					c-0.3,0-0.6,0.1-1,0.1c0.4-1.4,0.7-2.8,0.7-4.3c0-1.5-0.3-2.9-0.7-4.3c5.5-0.4,9.9-5,9.9-10.7c0-0.4-0.1-0.8-0.1-1.2
					c0.3-1.1,0.5-2.3,0.5-3.6c0-7.9-6.4-14.3-14.3-14.3c-0.8,0-1.6,0.1-2.3,0.2c-0.6-4.6-4.5-8.1-9.3-8.1c-5.2,0-9.4,4.2-9.4,9.4
					c0,4.5,3.1,8.2,7.3,9.1c-0.3,1.2-0.5,2.4-0.5,3.6c0,0.8,0.1,1.5,0.2,2.3c-5.4,0.5-9.6,5-9.6,10.5c0,0.4,0.1,0.9,0.1,1.3
					c-0.1,0.2-0.1,0.3-0.2,0.5c-1.2-0.5-2.5-0.8-3.9-0.8c-5.8,0-10.5,4.7-10.5,10.5c0,5.8,4.7,10.5,10.5,10.5c3.3,0,6.2-1.6,8.1-3.9
					c2.6,2.2,5.8,3.5,9.4,3.5c0,0,0.1,0,0.1,0c-0.6,1.7-1,3.4-1,5.3c0,0.4,0.1,0.7,0.1,1.1c-4,1-6.9,4.6-6.9,8.9c0,1,0.2,1.9,0.5,2.7
					c-1.5-0.7-3.1-1.1-4.9-1.1c-6.3,0-11.4,5.1-11.4,11.4s5.1,11.4,11.4,11.4c4.6,0,8.6-2.8,10.4-6.7c1.8,1.4,3.9,2.3,6.3,2.5
					c-1.3,2.4-2.1,5.2-2.1,8.1c0,0,0,0.1,0,0.1c-3.3,1.7-5.6,5-5.6,9c0,0.9,0.2,1.8,0.4,2.6c-0.2,0.4-0.4,0.9-0.5,1.3
					c-2.3-1.8-5.1-2.9-8.2-2.9c-7.4,0-13.4,6-13.4,13.4c0,1.1,0.2,2.2,0.5,3.3c-3.1,1.6-5.3,4.8-5.3,8.6c0,5.4,4.4,9.7,9.7,9.7
					c2.9,0,5.4-1.3,7.2-3.3c0.8,0.2,1.6,0.4,2.5,0.4c5.5,0,10-4.5,10-10c0-0.4-0.1-0.8-0.1-1.3c0.7-1,1.1-2.1,1.5-3.2
					c2.2,1.7,5,2.8,8.1,2.8c0.2,0,0.4-0.1,0.6-0.1c-0.4,1.3-0.6,2.6-0.6,4c0,3.7,1.4,7,3.7,9.5c-3.1,1.8-5.2,5.2-5.2,9
					c0,5.8,4.7,10.5,10.5,10.5c5.8,0,10.5-4.7,10.5-10.5c0-1.8-0.5-3.4-1.3-4.9c4.1-1.2,7.5-4.1,9.2-8c1.4,0.8,3,1.2,4.7,1.3
					c0,0.3-0.1,0.5-0.1,0.8c0,5,4.1,9.1,9.1,9.1s9.1-4.1,9.1-9.1C124.2,141.5,121.4,138,117.7,136.9z"/>
				<path class="AA_5" d="M121.4,135.1c0.1-0.6,0.1-1.1,0.1-1.7c0-8.1-6.6-14.7-14.7-14.7c-3.5,0-6.9,1.3-9.5,3.5
					c2.4-2.6,3.9-5.9,4.1-9.5c0.4-0.8,0.8-1.6,1.1-2.4c5.2-1.5,9-6.3,9-11.9c0-6.8-5.6-12.4-12.4-12.4c-1.4,0-2.9,0.3-4.2,0.8
					c-1.1-0.7-2.3-1.3-3.5-1.8c4.2-2.1,7.1-6.5,7.2-11.5c5.6-1.4,9.7-6.5,9.7-12.5c0-7.1-5.8-12.9-12.9-12.9c-1.9,0-3.7,0.4-5.4,1.2
					c-2.3-1.5-4.7-2.5-7.4-2.9c0-0.4,0-0.8,0-1.2c0-0.6,0-1.2-0.1-1.8c5.4-1.9,9.3-7.1,9.3-13.1c0-0.4,0-0.7-0.1-1.1
					c0.3-1.3,0.5-2.5,0.5-3.7c0-9.6-7.8-17.5-17.4-17.5C73,3.2,68.4,0,63.2,0c-7,0-12.6,5.7-12.6,12.6c0,4.8,2.7,9.1,6.8,11.2
					c0,0.4-0.1,0.9-0.1,1.3c-4.8,1.6-8.4,5.8-9.2,10.9c-0.3,0-0.6,0-0.9,0c-7.5,0-13.7,6.1-13.7,13.7c0,7.5,6.1,13.7,13.7,13.7
					c3.1,0,6-1.1,8.4-3c1.6,1,3.4,1.7,5.2,2.1c-0.1,0.5-0.1,1-0.2,1.5c-3.7,1.8-6.2,5.4-6.8,9.5c-0.4,0-0.9-0.1-1.3-0.1
					c-8,0-14.6,6.5-14.6,14.6s6.5,14.6,14.6,14.6c4.5,0,8.7-2.1,11.4-5.6c0.3,0.1,0.5,0.2,0.8,0.3c-0.4,1.4-0.7,2.8-0.8,4.2
					c-3.2,2.2-5.2,5.7-5.6,9.5c-1.7-0.6-3.4-0.9-5.2-0.9c-9.1,0-16.6,7.4-16.6,16.6c0,0.6,0,1.2,0.1,1.8c-3.1,2.4-4.9,6.1-4.9,10.1
					c0,7.1,5.8,12.9,12.9,12.9c3,0,5.9-1.1,8.2-3c0.5,0.1,1,0.1,1.5,0.1c7.2,0,13-5.8,13.2-12.9c1,0.4,2,0.7,3.1,1c0,0.3,0,0.7,0,1
					c0,3.2,0.9,6.2,2.5,8.9c-2.5,2.5-4,6-4,9.6c0,7.5,6.1,13.7,13.7,13.7c7.5,0,13.7-6.1,13.7-13.7c0-1-0.1-2.1-0.4-3.1
					c2.6-1.4,4.9-3.3,6.5-5.8c0,0,0.1,0,0.1,0c0.9,5.9,6,10.4,12.1,10.4c6.8,0,12.3-5.5,12.3-12.3C127.4,141.2,125,137.3,121.4,135.1z
					 M57.5,53.7c-0.7-0.6-1.5-0.8-2.4-0.8c-0.9,0.1-1.6,0.5-2.2,1.2c-1.4,1.7-3.5,2.7-5.6,2.7c-4,0-7.3-3.3-7.3-7.3
					c0-4,3.3-7.3,7.3-7.3c0.9,0,1.8,0.2,2.7,0.5c0.8,0.3,1.7,0.3,2.5,0c0.8-0.3,1.4-1,1.7-1.8c0.1-0.2,0.1-0.3,0.2-0.5
					c0.2-0.5,0.2-1,0.2-1.5l0-0.4c0-0.2-0.1-0.4-0.1-0.5c0-3.8,2.9-6.9,6.7-7.3c0.9-0.1,1.7-0.5,2.2-1.2s0.8-1.6,0.6-2.5
					c-0.1-0.6-0.2-1.2-0.2-1.7c0-0.8,0.1-1.7,0.4-2.8c0.2-0.8,0.1-1.7-0.4-2.5c-0.4-0.7-1.2-1.3-2-1.5C59,18,57,15.5,57,12.6
					c0-3.4,2.8-6.2,6.2-6.2c3.1,0,5.7,2.3,6.1,5.4c0.1,0.9,0.6,1.6,1.3,2.1c0.7,0.5,1.6,0.7,2.4,0.6c0.7-0.1,1.3-0.2,1.8-0.2
					c6.1,0,11.1,5,11.1,11.1c0,0.8-0.1,1.7-0.4,2.8c-0.1,0.4-0.1,0.8-0.1,1.2l0.1,0.4c0,0.2,0,0.3,0,0.5c0,3.9-3.1,7.2-7,7.5
					c-1,0.1-1.9,0.6-2.4,1.4c-0.5,0.8-0.7,1.8-0.4,2.7c0.4,1.3,0.6,2.3,0.6,3.3c0,1-0.2,2.1-0.6,3.3c-0.2,0.7-0.2,1.3,0.1,2
					c-1.1-0.5-2.5-0.3-3.5,0.5c-2.5,2.3-6.1,5-7.8,5.6C61.3,56.4,58.9,55,57.5,53.7z M62.3,89.5c-0.9,0.2-1.7,0.9-2.1,1.8
					c-1.3,2.9-4.2,4.8-7.4,4.8c-4.5,0-8.2-3.7-8.2-8.2s3.7-8.2,8.2-8.2c1.2,0,2.4,0.3,3.5,0.8c1.2,0.6,2.5,0.4,3.5-0.5
					c1-0.8,1.3-2.2,1-3.4c-0.2-0.7-0.3-1.2-0.3-1.8c0-2.7,1.9-5.1,4.5-5.8c1.5-0.4,2.5-1.8,2.4-3.3c0-0.2,0-0.4-0.1-0.7
					c0-0.1,0-0.2,0-0.2c0-0.9,0.1-1.9,0.4-2.9c3.8-1.7,8.1-5.6,9.1-6.5c1-0.9,1.3-2.2,0.9-3.4c0.5,0.2,1,0.3,1.5,0.3
					c0.2,0,0.4,0,0.7-0.1l0.1,0c2.9,0,5.7,1,8,3c1.1,0.9,2.7,1,3.9,0.1c1.1-0.8,2.4-1.2,3.8-1.2c3.6,0,6.5,2.9,6.5,6.5
					c0,3.6-2.9,6.5-6.4,6.5c-0.1,0-0.3,0-0.4,0c-1,0-2,0.4-2.6,1.2c-0.6,0.8-0.9,1.8-0.6,2.8c0.2,0.7,0.3,1.2,0.3,1.7
					c0,3.3-2.3,6-5.4,6.6c-0.6-2.9-2.1-6-4.2-8.4c-2.4-2.7-5.3-4.2-8.2-4.2c-1.8,0-3.2,1.4-3.2,3.2s1.4,3.2,3.2,3.2
					c1,0,2.2,0.8,3.4,2.1c2,2.3,3,5.3,2.8,7c0,0,0,0.1,0,0.1c0,0,0,0.1,0,0.1c0,1-0.2,1.9-0.6,2.8c-0.4,1-0.2,2.1,0.4,3
					c0.6,0.9,1.6,1.3,2.7,1.3l0.3,0c0.1,0,0.2,0,0.3,0c3.1,0,6.1,1.1,8.5,3.1c1,0.8,2.5,1,3.6,0.3c1-0.6,2-0.8,3-0.8c3.3,0,6,2.7,6,6
					c0,3.1-2.3,5.6-5.4,5.9c-1.3,0.1-2.4,1.1-2.8,2.4c-0.3,1.2-0.8,2.3-1.4,3.4c-0.3,0.5-0.4,1-0.4,1.5c-0.1,2-0.8,4-1.9,5.5
					c-0.2-1.7-0.8-3.3-1.6-4.7c-2.2-4-6.3-6.9-11.2-7.9c-4.7-1-8.4,0-10.8,1.2c0.6-0.6,0.9-1.4,0.9-2.2c0,0,0-0.1,0-0.2
					c0-2.3,0.6-4.5,1.7-6.5c0.5-0.9,0.5-2.1,0.1-3c-0.5-1-1.4-1.6-2.5-1.7c-1.7-0.2-3.4-0.9-4.7-1.9C64.2,89.5,63.2,89.3,62.3,89.5z
					 M83,163.6c-4,0-7.3-3.3-7.3-7.3c0-2.1,0.9-4,2.5-5.4c0.1,0.9,0.6,1.8,1.5,2.3c0.2,0.1,3.6,2.2,8.3,2.2c0.7,0,1.5-0.1,2.2-0.2
					c0.1,0.4,0.1,0.7,0.1,1.1C90.3,160.4,87.1,163.6,83,163.6z M115.1,151.5c-3.2,0-5.9-2.6-5.9-5.8l0-0.2c0-0.1,0-0.3,0.1-0.4
					c0.1-0.9-0.2-1.7-0.8-2.4c-0.6-0.7-1.4-1.1-2.2-1.1c-1.2-0.1-2.3-0.4-3.4-1c-0.8-0.4-1.7-0.5-2.6-0.2c-0.8,0.3-1.5,0.9-1.9,1.7
					c-1.3,3-3.9,5.3-7.1,6.2c0,0-0.1,0-0.1,0.1c-0.1,0-0.1,0-0.2,0c-4.1,1.6-8-0.7-8-0.7c-0.6-0.4-1.4-0.5-2.1-0.4
					c0-0.8-0.3-1.6-0.8-2.2c-1.9-2.1-2.9-4.7-2.9-7.4c0-0.9,0.2-1.9,0.5-3.1c0.3-1,0.1-2.1-0.6-2.9c-0.6-0.8-1.5-1.2-2.5-1.2
					c-0.1,0-0.1,0-0.2,0c-0.2,0-0.4,0-0.6,0.1c-2.2,0-4.2-0.8-6-2.1c-0.8-0.6-1.9-0.8-2.9-0.5c-1,0.3-1.8,1.1-2.1,2
					c-0.3,1-0.7,1.8-1.1,2.4c-0.4,0.6-0.6,1.4-0.5,2.2l0,0.3c0,0.2,0.1,0.4,0.1,0.6c0,2.7-1.5,4.9-3.8,6.1c0.6-2.7,0.5-5.6-0.5-8.3
					c-1.7-4.3-5.3-6.8-9.8-6.6c-1.8,0.1-3.1,1.5-3.1,3.3c0.1,1.8,1.6,3.2,3.3,3.1c0.6,0,2.6-0.1,3.6,2.6c1,2.5,0.5,5.8-1.1,7.1
					c0,0,0,0,0,0c-0.1,0.1-0.2,0.2-0.3,0.3c-1.3,1.4-3,2.2-4.8,2.2c-3.6,0-6.5-2.9-6.5-6.5c0-2.4,1.4-4.6,3.5-5.8
					c1.3-0.7,2-2.2,1.6-3.6c-0.2-1-0.4-1.7-0.4-2.5c0-5.6,4.6-10.2,10.2-10.2c2.2,0,4.4,0.8,6.2,2.2c0.8,0.6,1.9,0.8,2.9,0.6
					c1-0.3,1.8-1,2.1-2c0.1-0.3,0.2-0.7,0.4-1c0.3-0.7,0.4-1.5,0.2-2.2c-0.2-0.7-0.3-1.3-0.3-1.8c0-0.7,0.1-1.4,0.3-2
					c0,0.7,0.3,1.4,0.9,2c1.2,1.3,3.2,1.3,4.5,0.1c0.1-0.1,3.2-2.8,8.4-1.7c3,0.6,5.6,2.4,6.9,4.8c1.1,2.1,1.3,4.5,0.3,7
					c0,0,0,0.1,0,0.1c0,0.1-0.1,0.2-0.1,0.4c0,0.1,0,0.2,0,0.3c0,0.1,0,0.2,0,0.3c0,0.1,0,0.2,0,0.3c0,0,0,0.1,0,0.1
					c0,0.1,0,0.1,0,0.2c0,0.1,0,0.2,0.1,0.3c0,0.1,0.1,0.2,0.1,0.3c0,0.1,0.1,0.1,0.1,0.2c0.1,0.1,0.1,0.2,0.2,0.4
					c0,0,0.1,0.1,0.1,0.1c0.1,0.2,0.2,0.3,0.4,0.4c0,0,0.1,0.1,0.1,0.1c0.1,0.1,0.2,0.2,0.3,0.3c0.1,0,0.1,0.1,0.2,0.1
					c0.1,0.1,0.2,0.1,0.4,0.2c0,0,0.1,0,0.1,0c0.1,0,0.1,0,0.2,0c0.1,0,0.2,0.1,0.3,0.1c0.1,0,0.2,0,0.3,0c0.1,0,0.1,0,0.2,0
					c2.3,0.2,4.5,1,6.2,2.5c0.7,0.6,1.6,0.8,2.5,0.7c0.9-0.1,1.7-0.6,2.2-1.3c1.6-2.2,4.1-3.6,6.8-3.6c4.6,0,8.3,3.7,8.3,8.3
					c0,0.8-0.2,1.6-0.5,2.6c-0.3,0.8-0.2,1.7,0.2,2.5c0.4,0.8,1.1,1.3,1.9,1.6c2.5,0.7,4.3,3,4.3,5.6
					C121,148.9,118.4,151.5,115.1,151.5z"/>
			</g>
		</g>
		<g id="MET_Methionine">
			<g>
				<path class="AA_0" d="M131.1,117.8c2.5-2.5,4.1-5.9,4.1-9.7c0-7.6-6.1-13.7-13.7-13.7c-2.9,0-5.6,0.9-7.8,2.5
					c-2.1,0.3-4,0.9-5.8,1.8c0.4-1.3,0.6-2.7,0.7-4.2c1.6-2.3,2.5-5,2.5-8c0-7.8-6.1-16.3-28.5-13.3c-0.3,0,0.6-2.2,0.3-3
					c19.4,3,22.9-8,22.9-14.9c0-8.7-7.1-15.8-15.8-15.8c-2,0-3.8,0.4-5.5,1.1c-1.5-1.1-3.1-2-4.8-2.7c-3-4.8-8.3-8-14.3-8
					c-9,0-16.2,7-16.8,15.9c-0.7-0.1-1.5-0.2-2.3-0.2c-5.8,0-10.7,4.3-11.6,9.9c-0.1,0.1-0.2,0.2-0.2,0.3c-5.8,1.1-10.1,6.1-10.1,12.2
					c0,5.1,3,9.4,7.4,11.3c0.6,6.6,6,11.8,12.7,11.8c1.9,0,3.7-0.4,5.3-1.2c-1.3,2-2,4.4-2,6.9c0,7.2,5.8,13,13,13
					c4.9,0,9.2-2.8,11.4-6.8c0.3,0.5,0.6,1,0.9,1.5c-1.7,3.1-2.7,6.6-2.7,10.4c0,11.9,9.6,21.5,21.5,21.5c5.4,0,10.3-2,14-5.2
					c2.1,5.2,7.1,9,13.1,9c7.8,0,14.1-6.3,14.1-14.1c0-2.7-0.8-5.3-2.2-7.4C130.9,118.4,131,118.1,131.1,117.8z"/>
				<path class="AA_1" d="M138.4,108.1c0-9.3-7.6-16.9-16.9-16.9c-3.1,0-6.2,0.9-8.8,2.5c1-2.2,1.5-4.7,1.5-7.2c0-4.8-1.8-8.8-5.2-11.8
					c-2-1.8-4.6-3.1-7.7-4c0.6-0.4,1.1-0.8,1.6-1.2c5.1-4.4,5.9-10.8,5.9-14.2c0-10.5-8.5-19-19-19c-1.7,0-3.3,0.2-5,0.7
					c-1-0.7-2.1-1.2-3.2-1.7c-3.8-5.4-9.8-8.6-16.5-8.6c-9.5,0-17.5,6.6-19.5,15.6c-6.5,0.2-12,4.5-13.8,10.6C25.5,55,21,61,21,67.8
					c0,5.5,2.9,10.6,7.6,13.4c1.5,7.6,8.1,13,15.9,12.9c-0.1,0.8-0.2,1.7-0.2,2.5c0,9,7.3,16.2,16.2,16.2c2.3,0,4.6-0.5,6.6-1.4
					c-0.2,1.1-0.2,2.3-0.2,3.4c0,13.6,11.1,24.7,24.7,24.7c4.6,0,9.1-1.3,13-3.7c3.2,4.6,8.4,7.4,14.2,7.4c9.5,0,17.3-7.8,17.3-17.3
					c0-2.5-0.6-5-1.7-7.3C137,115.8,138.4,112,138.4,108.1z M85.2,43.7c0.1,0,0.1,0,0.1-0.1c0,0,0.1,0,0.1,0c1.5-0.6,3-0.8,4.4-0.8
					c6.9,0,12.6,5.6,12.6,12.6c0,2.3-0.5,6.6-3.7,9.3c-2.8,2.4-7.2,3.3-13,2.7c-0.1-0.9-0.4-1.9-0.7-2.8c-0.7-4.2-1.5-9.3-1.5-13.6
					C83.5,45.6,84.6,43.9,85.2,43.7z M78.6,41c0.1,0.1,0.2,0.1,0.4,0.2c-1.8,3.3-2.1,8.2-1.7,13.4c-0.6-0.4-1.2-0.7-1.8-1
					c-1.6-0.8-3.5-0.1-4.3,1.5c-0.8,1.6-0.1,3.5,1.5,4.3c2.6,1.2,4.6,3.3,5.8,5.9c0.1,0.3,0.3,0.6,0.4,0.9c0.1,0.4,0.1,0.8,0.2,1.2
					c0.2,1.1,0.4,2.1,0.5,3c0,0.2,0,0.5,0,0.7c0,0.1-0.1,0.2-0.1,0.3c-0.1,0.5-0.3,1.1-0.3,1.7c-0.9,3.5-3.2,6.6-6.7,8.2
					c-6.1,2.8-13.3,0.1-16.1-6C55,72.3,54.9,69,56.1,66c1.1-3,3.4-5.4,6.3-6.8c1.4-0.6,2.8-1,4.3-1.1c1.8-0.1,3.1-1.6,3-3.4
					c-0.1-1.8-1.6-3.1-3.4-3c-1.7,0.1-3.3,0.4-4.8,1C63.6,46.8,69.7,39.3,78.6,41z M48.4,86.8C48.3,86.8,48.3,86.8,48.4,86.8
					c-1.4,0.6-2.7,0.9-4,0.9c-3.5,0-6.5-1.8-8.2-4.6c2-0.1,3.6-0.7,4.7-1.3c4.3-2.3,6.7-7.1,7.6-10.9c1.2-5.4,0-13.8-6.7-15.8
					c-1.7-0.5-3.5,0.5-4,2.2c-0.5,1.7,0.5,3.5,2.2,4c2.8,0.8,2.8,6.2,2.3,8.2c-0.6,2.5-2.1,5.5-4.4,6.7c-1.4,0.8-3.1,0.8-5,0
					c-3.3-1.5-5.4-4.8-5.4-8.4c0-4.4,3.2-8.2,7.5-9.1c0.7-0.1,1.3-0.5,1.8-1l0.2-0.2c0.4-0.5,0.7-1.1,0.8-1.7c0.7-4.2,4.2-7.2,8.4-7.2
					c0.5,0,1.1,0.1,1.7,0.2c0.9,0.2,1.8,0,2.6-0.6c0.7-0.6,1.2-1.4,1.2-2.3c0.4-7.2,6.4-12.9,13.6-12.9c2.4,0,4.6,0.6,6.6,1.7
					c-8.1,1.8-14.2,8.8-16.7,16.4c-0.5,1.5,0.2,3.1,1.6,3.8c-3,2.1-5.4,5.1-6.7,8.7c-1.7,4.6-1.6,9.7,0.5,14.2
					c1.5,3.2,3.7,5.8,6.5,7.6C54,85.1,51,85.5,48.4,86.8z M69.9,100.5c-0.3,0.2-0.5,0.5-0.7,0.9c-1.7,3.2-5,5.1-8.6,5.1
					c-5.4,0-9.8-4.4-9.8-9.8c0-1.5,0.4-3,1.1-4.4c4.1-1.5,10,0.8,13.7,5.5c0.6,0.8,1.6,1.2,2.5,1.2c0.7,0,1.4-0.2,1.9-0.7
					C70,99.1,70,99.8,69.9,100.5z M70.7,93.9C70.7,93.9,70.7,93.9,70.7,93.9c-1.7-2.2-3.7-3.9-5.8-5.3c0.8,0.1,1.7,0.2,2.5,0.2
					c1.6,0,3.3-0.2,4.9-0.7c-0.3,0.4-0.6,0.9-0.7,1.4C71.6,89.6,71.2,91.4,70.7,93.9z M91.3,101.2c0.2,1.6,1.6,2.7,3.2,2.7
					c0.2,0,0.3,0,0.5,0c3.2-0.5,6.1-0.9,8.4-1.3c-1.8,7.3-4.1,20.2-1.6,27.5c-3,2-6.5,3-10,3c-10.1,0-18.3-8.2-18.3-18.3
					c0-2.6,0.6-5.2,1.6-7.5c1.2-0.2,2.4-0.4,3.9-0.7c2.2-0.4,4.6-0.9,7.1-1.3c1.7-0.3,2.9-1.9,2.6-3.7c-0.3-1.7-1.9-2.9-3.7-2.6
					c-2.6,0.4-5.1,0.9-7.2,1.3c-0.5,0.1-1,0.2-1.5,0.3c0.4-5,1.5-9.6,1.5-9.7c0.4-1.7-0.7-3.4-2.4-3.8c-0.1,0-0.2,0-0.3,0
					c4.8-2.2,8.2-6.2,9.8-10.9c0.1,0,0.3,0,0.4,0c0.3,0.1,0.6,0.3,1,0.3c9.8,1.1,15.5,12.7,17.6,19.7c-2.5,0.4-6,0.9-9.9,1.5
					C92.3,97.9,91.1,99.5,91.3,101.2z M104.8,82.6c-1.3-2-2.7-3.8-4.1-5.4c1.8,0.7,3.2,1.5,4.1,2.3c2,1.8,3,4.1,3,7
					c0,0.5,0,0.9-0.1,1.4C106.9,86.1,105.9,84.3,104.8,82.6z M118.9,136.9c-3.6,0-6.9-1.8-8.9-4.7c6.3-4,12.5-6.2,16.1-6.7
					c1.8-0.2,3-1.8,2.8-3.6c0-0.1-0.1-0.3-0.1-0.4c0.7,1.4,1,2.9,1,4.5C129.8,132.1,124.9,136.9,118.9,136.9z M128.8,115.5
					c-0.4,0.4-0.6,0.8-0.8,1.3l-0.1,0.3c0,0.1-0.1,0.2-0.1,0.3c-0.3,0.9-0.2,1.9,0.2,2.7c-0.7-0.7-1.7-1.2-2.8-1
					c-5,0.6-11.7,3.3-17.9,7.1c-1-6.3,1-18.5,3.1-25.3c1.1-0.5,2.3-0.8,3.6-0.9c0.5-0.1,1-0.3,1.5-0.6c1.8-1.2,3.9-1.9,6-1.9
					c5.8,0,10.5,4.7,10.5,10.5C132,110.9,130.8,113.5,128.8,115.5z"/>
			</g>
		</g>
		<g id="PHE_Phenylalanine">
			<g>
				<path class="AA_2" d="M137.7,83.9c-2.2,0-4.2,0.7-5.9,1.9c-1.4-1-3-1.8-4.7-2.3c0.1-0.8,0.2-1.6,0.2-2.4c0-3.5-1.1-6.7-2.9-9.4
					c2.6-1.9,4.3-5,4.3-8.5c0-5.9-4.8-10.7-10.7-10.7s-10.7,4.8-10.7,10.7c0,0.5,0.1,1.1,0.2,1.6c-5.1,1-9.3,4.4-11.6,8.9c0,0,0,0,0,0
					c0.2-1.1,0.3-2.2,0.3-3.4c0-0.9-0.1-1.7-0.2-2.5c3.3-1.6,5.6-4.9,5.6-8.8c0-5.4-4.4-9.8-9.8-9.8c-3.2,0-6,1.5-7.7,3.9
					c-1.5-0.5-3-0.9-4.6-1c-0.1-1.4-0.4-2.8-0.8-4.1c2.3-1.5,3.9-4,3.9-7c0-4.6-3.7-8.2-8.2-8.2c-3.1,0-5.7,1.7-7.2,4.2
					c-0.2-0.1-0.4-0.1-0.6-0.2c3.2-2.6,5.3-6.6,5.3-11c0-7.9-6.4-14.3-14.3-14.3c-5.2,0-9.8,2.8-12.3,7c-2.7,0.5-5,1.7-7.1,3.3
					c-2.8-3.3-6.9-5.5-11.6-5.5c-8.4,0-15.2,6.8-15.2,15.2c0,7.2,5,13.2,11.8,14.8c-1.9,1.8-3.1,4.3-3.1,7.2c0,5.5,4.5,10,10,10
					c0.1,0,0.2,0,0.3,0c-0.2,0.9-0.3,1.8-0.3,2.7c0,2.8,0.9,5.5,2.3,7.7c-2.8,1.8-4.7,4.9-4.7,8.5c0,5.6,4.5,10.1,10.1,10.1
					S47.8,87.5,47.8,82c0-0.6-0.1-1.1-0.2-1.7c1.2,0.5,2.5,0.8,3.8,0.8c0.7,0,1.5-0.1,2.1-0.3c0,0.1,0,0.2,0,0.3
					c0,5.3,4.3,9.5,9.5,9.5c3,0,5.6-1.4,7.4-3.6c1.8,0.8,3.8,1.3,5.8,1.5c0,0,0,0.1,0,0.1c0,3.1,0.9,5.9,2.5,8.3
					c-6.6,1.3-11.7,6.6-12.8,13.2c-4.7,0.5-8.4,4.5-8.4,9.3c0,5.2,4.2,9.4,9.4,9.4c2.3,0,4.4-0.8,6-2.2c2,1.3,4.3,2.2,6.7,2.5
					c0,0.4-0.1,0.7-0.1,1.1c0,3.8,1.4,7.2,3.6,9.8c-3.1,1.7-5.3,5-5.3,8.8c0,5.5,4.5,10,10,10s10-4.5,10-10c0-1.2-0.2-2.4-0.6-3.4
					c5.6-0.8,10.1-4.6,12.1-9.7c1,0.4,2.1,0.6,3.3,0.8c0,0.1,0,0.1,0,0.2c0,5.7,4.6,10.3,10.3,10.3s10.3-4.6,10.3-10.3
					c0-4-2.4-7.5-5.7-9.2c0.5-1.5,0.9-3.1,0.9-4.8c0-3.5-1.4-6.8-3.6-9.2c5.5-0.7,10.1-4.1,12.3-9c0.3,0,0.5,0.1,0.8,0.1
					c5.7,0,10.3-4.6,10.3-10.3C148,88.5,143.4,83.9,137.7,83.9z M101.8,116.5c-1.1-0.6-2.3-1.1-3.6-1.3c0.1-0.7,0.2-1.5,0.2-2.2
					c0-3.5-1.1-6.7-3-9.4c4-1,7.4-3.5,9.5-7c0.8,0.3,1.6,0.6,2.4,0.7c0,0.3-0.1,0.6-0.1,0.9c0,4.2,1.7,8,4.4,10.8
					C107.4,109.8,103.8,112.7,101.8,116.5z M39.2,49.2c1.9,1.2,4,2.1,6.4,2.5c0,0.1,0,0.2,0,0.3c-0.5-0.1-1-0.2-1.6-0.2
					c-1.4,0-2.7,0.3-4,0.7C39.9,51.4,39.7,50.3,39.2,49.2z"/>
				<path class="AA_3" d="M137.7,80.7c-2,0-4,0.5-5.8,1.3c-0.4-0.2-0.9-0.5-1.3-0.7c0-0.1,0-0.2,0-0.3c0-3.1-0.7-6.1-2.1-8.8
					c2.2-2.5,3.4-5.7,3.4-9.1c0-7.6-6.2-13.9-13.9-13.9c-6.2,0-11.4,4.1-13.2,9.7c0,0,0,0,0-0.1c0-7.2-5.8-13-13-13
					c-3.3,0-6.4,1.2-8.7,3.4c-0.3-0.1-0.5-0.1-0.8-0.2c0,0,0-0.1,0-0.1c2.2-2.1,3.5-5.1,3.5-8.2c0-6.2-5-11.3-11.1-11.4
					c0.3-1.2,0.4-2.5,0.4-3.8C75,16,67.2,8.1,57.5,8.1c-5.7,0-10.9,2.7-14.2,7.4c-1.6,0.4-3.2,1.1-4.7,2c-3.3-2.9-7.6-4.6-12-4.6
					c-10.1,0-18.4,8.2-18.4,18.4c0,7,3.9,13.3,10,16.3c-0.8,1.7-1.2,3.6-1.2,5.6c0,6.2,4.3,11.4,10,12.8c0,2.3,0.5,4.6,1.4,6.7
					c-2.4,2.5-3.8,5.8-3.8,9.3c0,7.3,6,13.3,13.3,13.3c6.5,0,11.9-4.7,13-10.8c0,0,0,0,0.1,0c0,0,0,0,0,0c1.5,5.4,6.4,9.3,12.2,9.3
					c3,0,5.9-1.1,8.2-3c0.6,0.2,1.3,0.4,2,0.5c0.2,1.3,0.5,2.5,1,3.7c-5.2,2.3-9.3,6.9-11,12.4c-5.2,1.6-9,6.4-9,12
					c0,7,5.7,12.6,12.6,12.6c2.2,0,4.3-0.6,6.1-1.6c1.1,0.5,2.2,1,3.4,1.3c0.2,2.7,1,5.2,2.4,7.6c-2.6,2.5-4.1,5.9-4.1,9.5
					c0,7.3,5.9,13.2,13.2,13.2c7.3,0,13.2-5.9,13.2-13.2c0-0.4,0-0.7,0-1.1c3.6-1.3,6.8-3.6,9-6.8c1.8,5.3,6.8,9.2,12.8,9.2
					c7.4,0,13.5-6,13.5-13.5c0-4.2-1.9-8.1-5.2-10.6c0.2-1.1,0.4-2.2,0.4-3.3c0-2.5-0.6-5-1.6-7.3c3.8-1.5,7-4.2,9.1-7.7
					c7-0.6,12.5-6.4,12.5-13.5C151.2,86.8,145.2,80.7,137.7,80.7z M37.7,88.8c-3.8,0-6.9-3.1-6.9-6.9c0-2.4,1.2-4.5,3.2-5.8
					c0.7-0.5,1.2-1.2,1.4-2s0-1.7-0.5-2.4c-1.2-1.8-1.8-3.8-1.8-5.9c0-0.7,0.1-1.3,0.2-2.1c0.2-1-0.1-1.9-0.7-2.7
					c-0.6-0.7-1.6-1.2-2.5-1.1c-0.1,0-0.2,0-0.3,0c-3.7-0.1-6.6-3.1-6.6-6.8c0-1.8,0.7-3.6,2.1-4.9c0.8-0.8,1.2-2,0.9-3.2
					c-0.3-1.1-1.2-2-2.4-2.3c-5.5-1.3-9.3-6-9.3-11.6c0-6.6,5.4-12,12-12c3.5,0,6.8,1.6,9.1,4.4c2.2,2.7,2.9,6.7,1.9,10.5
					c-0.8,3.2-2.7,5.7-5,6.6c-1.6,0.7-2.4,2.6-1.7,4.2c0.5,1.2,1.7,2,3,2c0.4,0,0.8-0.1,1.2-0.2c4.3-1.8,7.5-5.8,8.8-11
					c1.2-4.6,0.7-9.2-1.3-13.1c1.1-0.5,2.2-0.9,3.3-1.2c0.9-0.2,1.7-0.7,2.1-1.5c2-3.4,5.6-5.4,9.5-5.4c6.1,0,11.1,5,11.1,11.1
					c0,3.2-1.5,6.3-4,8.4c-5.1,3.1-9.9,3.2-12.9,0.3c-1.3-1.2-3.3-1.2-4.5,0.1C46,35.7,46,37.8,47.3,39c2.3,2.2,5.8,3.8,10,3.8
					c2.9,0,6.3-0.8,9.8-2.8c1.1,0,2.2-0.6,2.8-1.6c0.9-1.6,2.6-2.6,4.4-2.6c2.8,0,5,2.3,5,5c0,1.7-0.9,3.3-2.4,4.3
					c-1.3,0.8-1.8,2.3-1.4,3.7c0.4,1.1,0.6,2.2,0.7,3.3c0,0,0,0,0,0c0,0,0,0,0,0c0.4,5.6-1.1,9.8-9.8,11.7c-1.3,0.3-2.3,1.4-2.5,2.7
					C62.2,61,57,57,50.8,57c-7.6,0-13.7,6.2-13.7,13.7c0,5.3,3,9.9,7.5,12.2C44.1,86.3,41.2,88.8,37.7,88.8z M53.3,77.6
					c-0.1,0-0.3,0-0.4,0c-0.5,0.1-1,0.2-1.4,0.2c-0.9,0-1.8-0.2-2.6-0.5c-0.5-0.2-1.1-0.3-1.7-0.2c-2.2-1.3-3.7-3.6-3.7-6.4
					c0-4.1,3.3-7.3,7.3-7.3s7.3,3.3,7.3,7.3C58.2,73.9,56.2,76.6,53.3,77.6z M72.9,123.4c-0.7,0-1.5,0.2-2,0.7
					c-0.8,0.7-2.1,1.5-3.9,1.5c-3.4,0-6.2-2.8-6.2-6.2c0-3.2,2.4-5.8,5.5-6.1c1.4-0.2,2.6-1.2,2.8-2.6c0.9-5.3,5.1-9.6,10.3-10.6
					c1-0.2,1.9-0.9,2.3-1.9s0.3-2.1-0.2-3c-1.3-2-1.9-4.2-1.9-6.5c0-0.1,0-0.1,0-0.2c0-1.7-1.3-3-2.9-3.2c-1.7-0.1-3.3-0.6-4.8-1.2
					c-1.3-0.6-2.9-0.2-3.8,0.9c-1.2,1.5-3,2.4-4.9,2.4c-2.8,0-5.2-1.9-6-4.4c4.4-2.3,7.5-6.9,7.5-12.2c0-0.6-0.1-1.3-0.1-1.9
					c0.6,0.9,1.6,1.5,2.7,1.5c0.2,0,0.5,0,0.7-0.1c9-2,13.9-6.9,14.7-14.3c0.1,0,0.3,0.1,0.4,0.1c1.3,0.5,2.8,0,3.6-1.1
					c1.3-1.7,3.2-2.6,5.2-2.6c3.6,0,6.6,2.9,6.6,6.6c0,2.5-1.4,4.8-3.8,5.9c-1.3,0.6-2,1.9-1.8,3.3c0.1,0.8,0.2,1.5,0.2,2.1
					c0,0.9-0.1,1.8-0.3,2.7c-2.1,5.3-1.9,11.5,0.7,16.9c1.6,3.4,3.9,6.1,6.6,7.9c-1.5,1.3-3.3,2.3-5.2,2.8c-1,0.3-1.9,1-2.2,2
					c-0.4,1-0.2,2.1,0.4,3c1.2,1.8,2,3.8,2.3,5.9c-4.3-0.3-9,1.2-12.7,4c-3.2,2.5-5.3,5.9-5.9,9.6c-0.7-0.3-1.3-0.6-1.9-1
					C74.1,123.6,73.5,123.4,72.9,123.4z M101.6,111.3c-0.2-2.1-0.7-4.1-1.5-6c1.6-0.8,3.1-1.8,4.5-3.1c0.4,1.8,1.1,3.6,2,5.3
					C104.7,108.4,103,109.7,101.6,111.3z M96.7,142.2c-1,0.1-1.8,0.7-2.3,1.5c-0.5,0.8-0.6,1.8-0.3,2.7c0.3,0.8,0.4,1.6,0.4,2.3
					c0,3.7-3,6.8-6.8,6.8s-6.8-3-6.8-6.8c0-2.5,1.4-4.7,3.6-5.9c0.8-0.5,1.4-1.3,1.6-2.2s-0.1-1.9-0.7-2.7c-1.9-2.3-2.9-4.9-2.9-7.7
					c0-0.1,0-0.1,0-0.2c0-0.2,0.1-0.4,0.1-0.6c0,0,0,0,0,0c0,0,0,0,0,0c0-0.2,0-0.4,0-0.6c0,0,0,0,0,0c-0.5-4.1,1.7-6.8,3.6-8.3
					c3.1-2.4,7.6-3.4,10.6-2.2c0.1,0,0.1,0,0.2,0.1c0.1,0,0.2,0.1,0.2,0.1c0.2,0,0.5,0.1,0.7,0.2c-1.2,8.3,1.2,15,6.7,18.6
					C103,139.8,100.1,141.7,96.7,142.2z M137.8,101.4l-0.1,0c-0.2,0-0.3,0-0.5-0.1c-1.4-0.1-2.6,0.6-3.2,1.9c-1.7,3.9-5.4,6.6-9.7,7.1
					c-1.2,0.1-2.2,0.9-2.6,2c-0.4,1.1-0.2,2.4,0.6,3.3c1.3,1.4,2.7,3.8,2.7,7.1c0,1.2-0.2,2.4-0.7,3.7c-0.6,1.5,0.1,3.2,1.6,4
					c2.4,1.2,4,3.6,4,6.3c0,3.9-3.2,7.1-7.1,7.1c-3.8,0-7-3.1-7.1-6.9c0-0.1,0-0.2,0-0.3c0-1.6-1.2-3-2.8-3.2c-1-0.1-1.8-0.3-2.5-0.6
					c0,0,0,0,0,0c0,0,0,0,0,0c-7-2.6-6.5-10.3-5.5-15c1.5-2.9,4.3-4.9,7.5-5.5c1.2-0.2,2.1-1.1,2.5-2.2s0.1-2.4-0.8-3.2
					c-2.3-2.3-3.5-5.4-3.5-8.5l0-0.1c0-0.2,0.1-0.4,0.1-0.6c0.1-1.6-1-3-2.6-3.3c-0.6-0.1-1.2-0.3-1.9-0.6c0,0-0.1,0-0.1,0
					c0,0-0.1,0-0.1,0c-2.6-0.7-5.1-3.1-6.7-6.4c-1.9-3.9-2-8.4-0.4-12.1c1.9-3.7,5.3-6.3,9.3-7.1c1.7-0.3,2.8-2,2.5-3.7
					c-0.1-0.4-0.1-0.8-0.1-1.1c0-4.1,3.4-7.5,7.5-7.5s7.5,3.4,7.5,7.5c0,2.3-1.1,4.5-3,5.9c-1.4,1-1.7,3-0.7,4.4c1.3,1.9,2,4,2.3,6.2
					c-2.6-0.1-5.3,0.5-7.9,1.9c-3.9,2-6.9,5.4-7.6,8.4c-0.4,1.7,0.7,3.4,2.4,3.8c0.2,0.1,0.5,0.1,0.7,0.1c1.5,0,2.8-1,3.1-2.5
					c0.2-0.7,1.6-2.7,4.3-4.1c1.4-0.7,4.1-1.8,6.7-0.7c0,0,0.1,0,0.1,0c0.1,0,0.1,0,0.2,0.1c1.4,0.4,2.7,1,3.7,1.8
					c1.1,0.8,2.6,0.8,3.7,0c1.2-0.8,2.6-1.3,4.1-1.3c3.9,0,7.1,3.2,7.1,7.1C144.8,98.2,141.6,101.4,137.8,101.4z M36.8,52.7
					c-0.1-0.9-0.2-1.6-0.5-2.2c-0.6-1.3-0.2-2.8,0.9-3.7c1.1-0.9,2.6-1,3.8-0.2c1.5,1,3.3,1.7,5.2,2c1.6,0.3,2.8,1.8,2.6,3.4l0,0.3
					c-0.1,0.9-0.5,1.7-1.1,2.2c-0.7,0.6-1.5,0.8-2.4,0.7c-0.2,0-0.3,0-0.5-0.1c-0.3,0-0.5-0.1-0.7-0.1c-0.9,0-1.9,0.2-3.1,0.5
					c-0.3,0.1-0.6,0.1-0.9,0.1c-0.6,0-1.3-0.2-1.8-0.6C37.3,54.6,36.8,53.7,36.8,52.7z"/>
			</g>
		</g>
		<g id="PRO_Proline">
			<g>
				<path class="AA_4" d="M141.4,103c7.7,0,14-6.3,14-14s-6.3-14-14-14c-4.8,0-9,2.4-11.5,6c-3.8-3.9-9.2-6.3-15.1-6.3
					c-3.8,0-7.4,1-10.5,2.8c-0.9-2.2-2.2-4.2-3.7-5.9c0.4-1,0.6-2.1,0.6-3.3c0-5-4.1-9.1-9.1-9.1c-2,0-3.8,0.6-5.2,1.7
					c-0.9-4-2.8-7.6-5.5-10.5c1.1-1.6,1.7-3.5,1.7-5.5c0-5.5-4.4-9.9-9.9-9.9c-5,0-9.1,3.7-9.8,8.5c-4.4,0.4-8.5,2-11.8,4.6
					c-1.8-2-3.9-3.8-6.2-5.1c-0.4-5.7-5.1-10.1-10.9-10.1S23.9,37.4,23.5,43c-4,2.2-7.3,5.6-9.3,9.7C8.6,52.7,4,57.3,4,62.9
					s4.6,10.2,10.2,10.2c1.6,3.2,4,5.9,6.8,8c-3.1,3.5-4.9,8.1-4.9,13.2c0,0.4,0,0.7,0.1,1.1c0,0,0,0-0.1,0c-6.4,0-11.5,5.2-11.5,11.5
					s5.2,11.5,11.5,11.5c4.6,0,8.5-2.7,10.3-6.5c2.9,1.6,6.3,2.6,9.8,2.6c3.2,0,6.3-0.8,9-2.1c0.8,9.5,8.3,17,17.9,17.6
					c1.3,4.1,5.1,7.1,9.7,7.1c5.6,0,10.2-4.6,10.2-10.2c0-2.3-0.8-4.5-2.1-6.2c1.7-2.9,2.8-6.3,2.8-9.9c0-2.4-0.5-4.7-1.3-6.8
					c1.2,0.2,2.5,0.4,3.7,0.4c3.1,0,5.9-0.7,8.5-2c1.3,4,3.8,7.5,7,10.1c-0.6,1.4-0.9,2.9-0.9,4.4c0,6.5,5.3,11.8,11.8,11.8
					c3.2,0,6.2-1.3,8.3-3.4c1.7,5.9,7,10.2,13.4,10.2c7.7,0,14-6.3,14-14s-6.3-14-14-14c-0.7,0-1.3,0.1-1.9,0.2c1.3-1.9,2.2-4,2.8-6.2
					C137.1,102.4,139.1,103,141.4,103z M61.2,92.3c-4.6,1.3-6.9,4.4-6.9,4.4c1.8-4.1,0.7-10.7-1.7-13.2c2.2,1.6,4.5,2.6,8.5,3
					c3.9,0.3,6-0.1,7.9-0.5c-0.7,2.2,0.5,5.8,2.2,7.3C70.1,93.1,65.4,91.2,61.2,92.3z"/>
				<path class="AA_5" d="M72,86.9c0.3-1.1,0-2.3-0.7-3.1s-1.9-1.2-3-0.9c-1.7,0.4-3.5,0.7-6.9,0.4c-3.3-0.3-5-1.1-6.9-2.4
					c-3.9-2.7-8.4-10.6-6.5-17.8c0.5-1.7-0.6-3.5-2.3-3.9c-1.7-0.5-3.5,0.6-3.9,2.3c-2.5,9.3,2.5,19.7,8.6,24.3c1.3,1.6,2.3,6.7,1,9.6
					c-0.7,1.5-0.1,3.3,1.3,4.1c0.5,0.3,1.1,0.4,1.6,0.4c1,0,2-0.5,2.6-1.3c0,0,1.7-2.3,5.1-3.2c2.5-0.7,5.6,0.2,7.2,0.7
					c0.6,0.2,1,0.3,1.4,0.4c1.4,0.3,2.8-0.5,3.5-1.8c0.6-1.3,0.3-2.8-0.8-3.8C72.5,90.2,71.7,87.9,72,86.9z M58.3,89.9
					c0-0.2,0-0.4-0.1-0.6c0.4,0.1,0.8,0.1,1.2,0.2C59,89.6,58.6,89.8,58.3,89.9z M158.6,89c0-9.5-7.7-17.2-17.2-17.2
					c-4.4,0-8.6,1.7-11.8,4.7c-4.2-3.2-9.4-5-14.8-5c-3.1,0-6.1,0.6-9,1.7c-0.5-0.8-1-1.6-1.7-2.4c0.2-0.8,0.3-1.7,0.3-2.5
					c0-6.8-5.5-12.3-12.3-12.3c-1.1,0-2.2,0.1-3.3,0.4C88,54.1,86.7,52,85.2,50c0.7-1.6,1-3.3,1-5.1c0-7.2-5.9-13.1-13.1-13.1
					c-5.6,0-10.6,3.7-12.4,8.9c-3.1,0.5-6.1,1.7-8.8,3.3c-1.2-1.1-2.4-2-3.7-2.9c-1.3-6.5-7.1-11.4-13.8-11.4s-12.5,4.9-13.8,11.4
					c-3.4,2.2-6.3,5.1-8.3,8.6c-6.4,1-11.4,6.6-11.4,13.3c0,6.7,5,12.3,11.4,13.3c1.2,2,2.7,3.9,4.4,5.5c-2.1,3.3-3.4,7-3.7,10.9
					c-6.6,1.4-11.6,7.3-11.6,14.4c0,8.1,6.6,14.7,14.7,14.7c4.6,0,8.8-2.1,11.5-5.6c4.8,1.9,10.3,2.2,15.2,0.7
					c2.3,8.4,9.4,14.8,18.1,16.2c2.3,4.5,6.8,7.4,11.9,7.4c7.4,0,13.4-6,13.4-13.4c0-2.2-0.6-4.4-1.6-6.3c1.5-3,2.3-6.4,2.3-9.8
					c0-1.1-0.1-2.2-0.2-3.2c2.1,0,4.2-0.4,6.3-1c1.3,2.6,3,5,5.1,7c-0.3,1.1-0.4,2.3-0.4,3.4c0,8.3,6.7,15,15,15c2.5,0,4.8-0.6,7-1.7
					c3,5.2,8.6,8.5,14.8,8.5c9.5,0,17.2-7.7,17.2-17.2c0-6.7-3.9-12.6-9.5-15.4C151.2,105.8,158.6,98.2,158.6,89z M141.4,99.8
					c-1.6,0-3.2-0.4-4.7-1.1c-0.9-0.4-1.9-0.4-2.7,0c-0.9,0.4-1.5,1.2-1.8,2.1c-0.4,1.5-1,3-1.8,4.3c-8.1,2.1-11.6,8.6-12,12.7
					c-0.1,1.8,1.2,3.3,2.9,3.5c0.1,0,0.2,0,0.3,0c1.6,0,3-1.3,3.2-2.9c0.2-1.9,2.4-6.1,8.1-7.2l0.2,0c0.5-0.1,0.9-0.1,1.2-0.1
					c6,0,10.8,4.8,10.8,10.8c0,6-4.8,10.8-10.8,10.8c-4.8,0-9-3.2-10.3-7.9c-0.3-1.1-1.2-1.9-2.3-2.2c-1.1-0.3-2.3,0-3.1,0.8
					c-1.6,1.6-3.8,2.5-6.1,2.5c-4.7,0-8.6-3.8-8.6-8.6c0-1.1,0.2-2.2,0.6-3.2c0.5-1.3,0.1-2.8-1-3.7c-2.2-1.7-3.9-3.9-5.1-6.3
					c4.6-3.4,7.9-9.2,8.6-15.3c0.2-1.8-1.1-3.3-2.8-3.5c-1.8-0.2-3.3,1.1-3.5,2.8c-0.6,5-3.7,9.8-7.7,11.8c-3.2,1.5-6.6,2-10.2,1.3
					c-1.1-0.2-2.3,0.2-3.1,1.1c-0.7,0.9-1,2.1-0.5,3.2c0.7,1.8,1,3.7,1,5.7c0,2.9-0.8,5.8-2.3,8.3c-0.7,1.1-0.6,2.6,0.2,3.6
					c1,1.3,1.5,2.7,1.5,4.2c0,3.9-3.1,7-7,7c-3,0-5.7-2-6.6-4.9c-0.4-1.3-1.5-2.1-2.8-2.2c-7.9-0.5-14.3-6.9-14.9-14.7c0,0,0,0,0,0
					c-0.3-4.3,3.2-7.5,3.2-7.5c1.4-1.1,1.5-3.2,0.4-4.5s-3.2-1.5-4.5-0.4c-0.2,0.2-4.9,4.2-5.5,10.5c-1.9,0.7-3.8,1-5.8,1
					c-2.9,0-5.7-0.7-8.3-2.2c-0.8-0.4-1.7-0.5-2.5-0.3c-0.8,0.3-1.5,0.9-1.9,1.7c-1.4,2.9-4.3,4.7-7.4,4.7c-4.6,0-8.3-3.7-8.3-8.3
					c0-4.6,3.7-8.3,8.2-8.3c1,0,1.8-0.3,2.5-1c0.6-0.6,0.9-1.5,0.9-2.4l0-0.4c0-0.2,0-0.3,0-0.5c0-4.1,1.5-8,4.2-11.1c0,0,0,0,0,0
					c0,0,0,0,0,0c3.5-4.1,10.7-4.8,15-2.9c1.6,0.7,3.5,0,4.2-1.6c0.7-1.6,0-3.5-1.6-4.2c-5.7-2.5-14.3-2.1-20.2,2.4
					c-1.6-1.5-2.9-3.3-3.8-5.2c-0.5-1.1-1.6-1.8-2.8-1.8c-3.9,0-7-3.2-7-7c0-3.9,3.1-7,7-7c1.2,0,2.3-0.7,2.8-1.8
					c1.8-3.5,4.6-6.4,8-8.3c1-0.5,1.6-1.5,1.7-2.6c0.3-4,3.7-7.2,7.7-7.2s7.4,3.2,7.7,7.2c0.1,1.1,0.7,2,1.7,2.6
					c2,1.1,3.8,2.6,5.4,4.4c1.1,1.3,3,1.5,4.4,0.4c2.9-2.3,6.4-3.6,10.1-3.9c1.5-0.1,2.7-1.3,2.9-2.7c0.5-3.3,3.3-5.8,6.6-5.8
					c3.7,0,6.7,3,6.7,6.7c0,1.3-0.4,2.6-1.1,3.8c-0.8,1.2-0.7,2.9,0.3,4c2.4,2.5,4,5.6,4.7,9c0,0,0,0.1,0,0.1c0,0.1,0,0.1,0,0.2
					c1.4,4.1,0.9,8.8-1.1,12.3c-1.1,1.9-3.3,4.4-7.1,5.2c-1.7,0.3-2.9,2-2.5,3.8c0.3,1.5,1.6,2.6,3.1,2.6c0.2,0,0.4,0,0.6-0.1
					c4.8-1,8.9-3.9,11.4-8.2c2.5-4.3,3.3-9.8,2.3-14.8c0.5-0.1,1-0.2,1.5-0.2c3.2,0,5.9,2.6,5.9,5.9c0,0.7-0.1,1.4-0.4,2.1
					c-0.4,1.1-0.2,2.4,0.6,3.3c1.3,1.5,2.4,3.1,3.1,5c0.3,0.9,1,1.5,1.9,1.8c0.9,0.3,1.8,0.2,2.6-0.2c2.7-1.5,5.8-2.4,8.9-2.4
					c4.8,0,9.4,1.9,12.8,5.3c0.7,0.7,1.6,1,2.6,0.9c0.9-0.1,1.8-0.6,2.4-1.4c2-2.9,5.3-4.7,8.9-4.7c6,0,10.8,4.8,10.8,10.8
					S147.3,99.8,141.4,99.8z"/>
			</g>
		</g>
		<g id="SER_Serine">
			<g>
				<path class="AA_0" d="M127.6,88.6c0.7-1.9,1.1-3.8,1.1-5.9c0-6-3.1-11.3-7.8-14.3c1.7-2.4,2.8-5.3,2.8-8.5c0-7.2-5.2-13.1-12-14.3
					c-2.5-1.7-5.3-2.8-8.4-3.2c-2.8-3.6-7.1-6-11.9-6c-8.3,0-15.1,6.7-15.1,15.1c0,1.9,0.4,3.8,1.1,5.5c-0.7,0.3-1.3,0.6-1.9,0.9
					c0,0,0,0,0,0c0.1-0.8,0.2-1.6,0.2-2.4c0-9.8-7.9-17.7-17.7-17.7c-3.4,0-6.6,1-9.3,2.7c-1.1-0.3-2.3-0.4-3.5-0.4
					c-8.5,0-15.4,6.9-15.4,15.4c0,8,6.2,14.6,14.1,15.2c-0.4,1.5-0.6,3-0.7,4.6c-2.6,2.8-4.3,6.6-4.3,10.8c0,8.8,7.1,15.9,15.9,15.9
					c4.2,0,8.1-1.7,10.9-4.4c1.9-0.1,3.7-0.4,5.4-1c0.3,0.3,0.7,0.5,1,0.8c-0.1,1-0.2,2-0.2,3c0,0.8,0,1.5,0.1,2.2
					c-2.9,3.3-4.7,7.7-4.7,12.5c0,10.4,8.4,18.8,18.8,18.8c9.5,0,17.3-7,18.6-16.1c1.1-0.7,2.1-1.5,3-2.4c1.4,0.3,2.8,0.5,4.2,0.5
					c10.1,0,18.2-8.2,18.2-18.2C129.9,94.2,129,91.2,127.6,88.6z"/>
				<path class="AA_1" d="M131.1,88.3c0.6-1.9,0.8-3.8,0.8-5.7c0-5.9-2.5-11.3-6.8-15.1c1.2-2.4,1.8-5,1.8-7.7c0-8.4-5.9-15.6-14-17.3
					c-2.4-1.5-5.1-2.6-7.9-3.1c-3.5-4-8.4-6.2-13.7-6.2c-7.2,0-13.4,4.2-16.4,10.2c-3.8-5.4-10-8.9-17.1-8.9c-3.4,0-6.8,0.9-9.9,2.5
					c-1-0.2-2-0.3-3-0.3c-10.2,0-18.6,8.3-18.6,18.6c0,8.5,5.6,15.6,13.5,17.8c0,0.2-0.1,0.5-0.1,0.7c-2.8,3.4-4.3,7.7-4.3,12.1
					c0,10.5,8.5,19.1,19.1,19.1c4.5,0,8.8-1.6,12.3-4.5c0.6-0.1,1.1-0.1,1.7-0.2c0,0.4,0,0.7,0,1.1c-3,3.9-4.7,8.6-4.7,13.5
					c0,12.2,9.9,22,22,22c10.4,0,19.4-7.4,21.5-17.4c0.3-0.3,0.7-0.5,1-0.8c1.1,0.2,2.2,0.3,3.3,0.3c11.8,0,21.4-9.6,21.4-21.4
					C133.1,94.3,132.4,91.2,131.1,88.3z M32.7,55.3c0-5.2,3.3-9.7,8-11.4c-1.9,3.2-2.9,7-2.7,11c0.3,5.3,2.7,9.8,6.5,12.6
					c-0.2-0.1-0.4-0.1-0.6-0.1C37.5,66.8,32.7,61.6,32.7,55.3z M41.8,85.9c0-3.2,1.2-6.2,3.4-8.6c0.5-0.5,0.7-1.1,0.8-1.8
					c0.4,1.4,1.6,2.4,3.1,2.4c2.6,0,4.1,0.8,6.8,3.3c0.6,0.6,1.4,0.9,2.2,0.9c0.8,0,1.7-0.3,2.3-1c1.2-1.3,1.2-3.3-0.1-4.5
					c-3.2-3.1-6.3-5.1-11.2-5.1c-1.3,0-2.3,0.7-2.9,1.8c0.1-0.7,0.2-1.3,0.4-2c0.2-0.9,0.1-1.9-0.5-2.7c-0.1-0.1-0.2-0.2-0.3-0.3
					c0.2,0.1,0.3,0.2,0.5,0.3c0.5,0.2,1,0.3,1.4,0.3c1.2,0,2.3-0.6,2.9-1.8c0.8-1.6,0.2-3.5-1.4-4.3c-2.9-1.5-4.8-4.6-5-8.4
					c-0.2-4.6,2-9,5.8-11.5c2.3-1.4,4.9-2.2,7.6-2.2c8,0,14.5,6.5,14.5,14.5c0,0.6,0,1.2-0.1,1.9c-0.2,1.3,0.5,2.6,1.6,3.2
					c0.9,0.6,2.1,0.6,3.1,0.1c0.6-0.3,1.1-0.5,1.7-0.8c1.6-0.7,2.4-2.5,1.8-4.1c-0.6-1.4-0.8-2.9-0.8-4.3c0-6.5,5.3-11.9,11.9-11.9
					c3.7,0,7.1,1.7,9.4,4.7c0.2,0.2,0.4,0.4,0.6,0.6c-2.7,1.7-4.9,4.2-6.4,7.5c-1.5,3.2-1.8,6.6-1,9.8c-2.5-1.2-5.3-1.9-8.3-1.9
					c-10.5,0-19,8.5-19,19c0,2.3,0.4,4.5,1.2,6.5c-0.9-1.6-1.9-3-2.9-4.1c-1.2-1.3-3.2-1.3-4.5-0.1c-1.3,1.2-1.3,3.2-0.1,4.5
					c3.1,3.3,4,7.9,3.4,8.7c0,0-0.1,0.1-0.1,0.1c0,0-0.1,0.1-0.1,0.1c-2.4,2.3-5.5,3.5-8.7,3.5C47.5,98.5,41.8,92.9,41.8,85.9z
					 M85.8,130.5c-8.6,0-15.6-7-15.6-15.6c0-3.5,1.2-6.9,3.4-9.6c2.7-0.6,6.3-0.2,11,1.2c0.3,0.1,0.6,0.1,0.9,0.1
					c1.4,0,2.6-0.9,3.1-2.3c0.5-1.7-0.5-3.5-2.1-4c-4.5-1.3-8.2-1.9-11.5-1.7c0-0.3,0.1-0.6,0.1-1c0.2-1.2-0.3-2.3-1.2-3l-0.1-0.1
					c-0.3-0.2-0.5-0.4-0.8-0.6c-0.6-0.5-1.3-0.8-2.1-0.8c-0.3,0-0.6,0-0.9,0.1c-0.1-1.5-0.5-3.1-1-4.6c3.3,5.7,9.5,9.6,16.5,9.6
					c1.8,0,3.2-1.4,3.2-3.2s-1.4-3.2-3.2-3.2c-7,0-12.6-5.7-12.6-12.6c0-7,5.7-12.6,12.6-12.6s12.6,5.7,12.6,12.6
					c0,2.2-0.6,4.4-1.7,6.4c-0.9,1.5-0.4,3.5,1.1,4.4c1.5,0.9,3.5,0.4,4.4-1.1c1.7-2.9,2.6-6.2,2.6-9.6c0-2.2-0.4-4.4-1.1-6.4
					c2,0.8,4.2,1.3,6.5,1.3c1.2,0,2.5-0.1,3.7-0.4c1.7-0.4,2.8-2,2.5-3.8c-0.4-1.7-2-2.8-3.8-2.5c-4.1,0.8-8.2-0.5-10.7-3.6
					c-2.1-2.7-2.5-5.9-1.1-8.9c2.1-4.4,5.7-6.5,10.6-6.3c5.4,1,9.2,5.6,9.2,11.1c0,2.4-0.7,4.6-2.2,6.6c-0.5,0.7-0.7,1.6-0.6,2.5
					c0.2,0.9,0.7,1.6,1.4,2.1c4,2.6,6.4,6.9,6.4,11.6c0,0.5,0,1-0.1,1.4c-4.4-1.5-9.6-1.8-13.6-0.7c-0.5-0.6-1-1.2-1.6-1.7
					c-1.3-1.2-3.3-1.2-4.5,0c-1.2,1.3-1.2,3.3,0,4.5c4.7,4.7,5.3,10.3,4.9,14.2c-0.4,4.2-2,8-3.7,10.5c-1.3-2.6-3.8-4.8-7.5-6.5
					c-1.6-0.8-3.5-0.1-4.3,1.5c-0.8,1.6-0.1,3.5,1.5,4.3c4.7,2.2,5.3,4.2,4.7,6.7c0,0,0,0.1,0,0.1c0,0,0,0.1,0,0.1
					C100.2,124.7,93.5,130.5,85.8,130.5z M113.5,112.3c1.9-3.4,3.1-7.4,3.5-11.4c0.4-4.2-0.2-8.1-1.7-11.7c3.1-0.3,7.1,0.2,9.9,1.7
					c1,2,1.5,4.3,1.5,6.5C126.7,105.1,120.9,111.4,113.5,112.3z"/>
			</g>
		</g>
		<g id="THR_Threonine">
			<g>
				<path class="AA_2" d="M138.2,91.1c-0.1-4-1.3-7.8-3.4-10.9c0.1-0.7,0.2-1.4,0.2-2.2c0-8.7-7-15.7-15.7-15.7
					c-8.3,0-15.1,6.4-15.7,14.6c-1.7,1.6-3,3.5-4.1,5.6c-1.6-0.4-3.3-0.7-5-0.7c-0.3,0-0.7,0-1,0c-0.1-2.9-0.7-5.6-1.9-8.1
					c1.8-3,2.9-6.6,2.9-10.4c0-10.8-8.4-19.6-18.9-20.3c-2-6.3-7.8-10.9-14.8-10.9c-8.6,0-15.5,6.9-15.5,15.5c0,6.1,3.5,11.3,8.6,13.8
					c-0.1,0.6-0.1,1.2-0.1,1.9c0,3.1,0.7,6,1.9,8.6c-0.7,1.2-1.3,2.5-1.8,3.8c-1.6-0.4-3.4-0.7-5.2-0.7c-2.7,0-5.4,0.5-7.7,1.5
					c-2.6-1.2-5.4-2-8.5-2C21.7,74.7,13,83.4,13,94.1c0,3.6,1,6.9,2.7,9.8c-1.9,2.4-3.1,5.4-3.1,8.8c0,7.8,6.3,14.1,14.1,14.1
					c3.9,0,7.4-1.6,9.9-4.1c1.9,0.6,3.9,1,6,1c7.4,0,13.8-4.3,16.9-10.6c4-2.5,7.1-6.3,8.6-10.9c1.2,0.3,2.4,0.5,3.6,0.6
					c-0.5,1.6-0.9,3.2-0.9,5c0,0.4,0.1,0.8,0.1,1.2c-1.5,2.8-2.4,6-2.4,9.4c0,10.8,8.8,19.5,19.5,19.5c10.8,0,19.5-8.8,19.5-19.5
					c0-0.7,0-1.5-0.1-2.2c1.6-1.5,3-3.2,4.1-5.1c1.9,0.6,4,1,6.2,1c0.7,0,1.5,0,2.2-0.1c2.5,4.2,7.1,7,12.3,7c8,0,14.5-6.5,14.5-14.5
					C146.8,98.4,143.3,93.3,138.2,91.1z"/>
				<path class="AA_3" d="M141.3,89.1c-0.4-3.4-1.4-6.7-3.2-9.7c0-0.5,0.1-1,0.1-1.4c0-10.4-8.5-18.9-18.9-18.9
					c-9.5,0-17.5,7.1-18.7,16.4c-1,1.1-1.9,2.2-2.6,3.4c-0.5-0.1-1-0.1-1.5-0.2c-0.3-1.6-0.7-3.2-1.3-4.7c1.6-3.3,2.5-6.9,2.5-10.6
					c0-11.6-8.6-21.4-19.8-23.3c-3-6.7-9.6-11.1-17.1-11.1C50.4,29,42,37.4,42,47.7c0,6.4,3.2,12.2,8.5,15.6c0,0,0,0,0,0.1
					c0,2.9,0.5,5.7,1.6,8.4c-0.1,0.1-0.1,0.2-0.2,0.3c-3.7-0.5-7.4-0.1-10.8,1c-2.7-1.1-5.6-1.7-8.6-1.7C20,71.5,9.8,81.6,9.8,94.1
					c0,3.3,0.7,6.6,2.1,9.5c-1.7,2.7-2.6,5.8-2.6,9c0,9.5,7.7,17.3,17.3,17.3c3.9,0,7.7-1.3,10.7-3.7c1.7,0.4,3.5,0.6,5.2,0.6
					c8.2,0,15.5-4.4,19.3-11.6c1.7-1.1,3.2-2.5,4.6-4c-0.7,2.3-1.1,4.7-1.1,7.1c0,12.5,10.2,22.7,22.7,22.7
					c12.5,0,22.7-10.2,22.7-22.7c0-0.3,0-0.6,0-0.9c0.8-0.8,1.6-1.7,2.2-2.7c1.7,0.4,3.5,0.5,5.3,0.5c3.3,4.3,8.4,6.9,13.9,6.9
					c9.8,0,17.7-7.9,17.7-17.7C150,98,146.7,92.2,141.3,89.1z M91.2,63.4c0,1.5-0.2,3-0.6,4.4c-1.6-9.1-9.5-16-19.1-16
					c-3.4,0-6.6,0.9-9.3,2.4c3.7-4.1,7.4-5.8,13.6-7.8C84.5,47.3,91.2,54.6,91.2,63.4z M58.6,70.9c0.2-7,5.9-12.7,13-12.7
					c7.2,0,13,5.8,13,13s-5.8,13-13,13c-6.6,0-12.1-5-12.9-11.4C58.9,72.2,58.8,71.5,58.6,70.9z M48.4,47.7c0-6.8,5.5-12.3,12.3-12.3
					c4.3,0,8.2,2.2,10.4,5.8c-6.6,2.3-10.9,5-15.6,11c-1.1,1.4-0.8,3.4,0.6,4.5c0.6,0.4,1.2,0.6,1.9,0.7c-0.7,0.6-1.3,1.4-1.8,2.1
					c-0.3-0.3-0.6-0.6-0.9-0.7C51,56.6,48.4,52.4,48.4,47.7z M15.8,112.7c0-0.9,0.1-1.7,0.3-2.5c2.7,2.6,6.7,4.6,11.5,5.5c0,0,0,0,0,0
					c2.2,2.1,4.3,4.4,5.2,6c-1.8,1.3-3.9,1.9-6.2,1.9C20.6,123.5,15.8,118.7,15.8,112.7z M39.2,120c-0.6-1.4-1.5-2.9-2.6-4.2
					c1.1-0.2,2.1-0.4,3-0.8c2.7,2,6.6,3.3,10.7,3.4c-2.3,1.3-4.9,2-7.7,2C41.4,120.4,40.3,120.3,39.2,120z M65.1,101.1
					c-1.3,3.8-3.8,7-7.2,9.2c-4.1,2.3-9.3,2-12.6,0.7c0.6-1.3,0.3-2.9-0.8-3.8c-1.4-1.1-3.4-1-4.5,0.4c-0.3,0.3-0.7,0.6-1.1,0.9
					c-0.1,0-0.1,0.1-0.2,0.1c-2.2,1.2-6,1.5-9.9,0.8c-5.1-0.9-9-3.5-10-6.4c0,0,0,0,0,0c-0.1-0.2-0.1-0.4-0.2-0.5
					c-1.5-2.5-2.2-5.3-2.2-8.2c0-8.9,7.3-16.2,16.2-16.2c2.4,0,4.8,0.6,7.1,1.6c0,0,0.1,0,0.1,0c0,0,0.1,0,0.1,0.1
					c6.3,2.6,8.9,9.2,7.4,13.6c-0.6,1.7,0.3,3.5,1.9,4.1c0.4,0.1,0.7,0.2,1.1,0.2c1.3,0,2.5-0.8,3-2.1c2.2-6.2-0.1-12.6-4.3-17.1
					c1.4,0,2.8,0.2,4.2,0.6c0.3,0.1,0.5,0.1,0.8,0.1c3,6.8,9.8,11.6,17.8,11.6c2.4,0,4.7-0.5,6.8-1.3c-4.3,1.9-7.7,5.4-9.7,9.6
					c-0.2,0-0.4-0.1-0.6-0.1C66.8,98.9,65.5,99.8,65.1,101.1z M74.2,108.6c0-0.2,0-0.4-0.1-0.6c0-0.1,0-0.2,0-0.3
					c0-1.2,0.2-2.5,0.7-3.9c0.3-0.8,0.2-1.6-0.1-2.4C76.8,97,81.2,94,86.3,94c7.2,0,13,5.8,13,13s-5.8,13-13,13
					c-6,0-11.1-4.1-12.5-9.6C74.1,109.9,74.2,109.2,74.2,108.6z M132.3,115.6c-3.4,0-6.6-1.6-8.8-4.2c1.6-3.8,5.1-8.9,10.9-12.5
					c1.5-0.9,1.9-2.9,1-4.4c-0.9-1.5-2.9-1.9-4.4-1c-6.9,4.3-11.2,10.4-13.3,15.3c-1.8,0-3.4-0.3-5.1-0.8c-1.4-0.5-3,0.2-3.8,1.5
					c-0.9,1.6-2,3-3.4,4.3c-0.8,0.7-1.2,1.7-1,2.7c0.1,0.7,0.1,1.2,0.1,1.8c0,9-7.3,16.3-16.3,16.3c-8.5,0-15.4-6.5-16.3-14.7
					c3.6,4,8.7,6.5,14.5,6.5c10.7,0,19.4-8.7,19.4-19.4S97,87.6,86.3,87.6c-2.4,0-4.7,0.5-6.8,1.3c4.7-2.1,8.3-6,10.2-10.8
					c0.3,1.3,0.5,2.6,0.6,3.9c0,0.9,0.4,1.7,1,2.3c0.6,0.6,1.5,0.9,2.3,0.9l0.4,0c1.5-0.1,3.1,0.1,4.7,0.5c1.4,0.4,2.8-0.2,3.5-1.4
					c0.6,1,1.3,2,2.1,2.8c3.3,3.4,8.5,5.4,13.8,5.4c7.8,0,13.5-4.2,13.7-4.3c1.4-1,1.7-3,0.7-4.5c-1-1.4-3-1.7-4.5-0.7
					c0,0-4.3,3.1-9.9,3.1c-3.6,0-7.1-1.3-9.2-3.5c-1.5-1.5-2.2-3.3-2.2-5.5c0.5-6.5,6-11.6,12.5-11.6c6.9,0,12.5,5.6,12.5,12.5
					c0,0.5,0,1.1-0.1,1.7c-0.1,0.8,0.1,1.6,0.5,2.2c1.8,2.7,2.8,5.9,2.9,9.2c0,1.2,0.8,2.3,1.9,2.9c4.1,1.8,6.7,5.9,6.7,10.3
					C143.6,110.5,138.5,115.6,132.3,115.6z"/>
			</g>
		</g>
		<g id="TRP_Tryptophan">
			<g>
				<path class="AA_9" d="M130,98.4c-0.6-5.8-5.3-10.4-11.2-10.8c0.2-0.9,0.3-1.7,0.3-2.7c0-6.4-5.2-11.6-11.6-11.6
					c-0.5,0-1,0.1-1.5,0.2c-1.8-3.2-5-5.4-8.8-5.8c-1.6-3.7-5.1-6.3-9.2-6.8c-1-2.1-2.6-4-4.4-5.4c0.1-0.5,0.2-1.1,0.2-1.7
					c0-0.1,0-0.1,0-0.2c0.8-1.6,1.2-3.3,1.2-5.2c0-6.6-5.3-11.9-11.9-11.9c-3,0-5.6,1.1-7.7,2.9c-1,0.2-1.9,0.6-2.8,1
					c-0.9-0.7-1.9-1.2-3-1.7c-1-4.9-5.3-8.6-10.5-8.6c-5.9,0-10.7,4.8-10.7,10.7c0,2,0.6,3.8,1.5,5.3c-0.5,1-0.9,2.1-1.2,3.3
					c-0.7-0.2-1.5-0.2-2.3-0.2c-6,0-10.8,4.8-10.8,10.8c0,4.8,3.1,8.8,7.4,10.2c0.9,1.7,2.1,3.1,3.5,4.4c-0.4,0.3-0.9,0.7-1.3,1
					c-5.7,0.9-10.2,5.8-10.2,11.8c0,6.6,5.4,12,12,12c1.6,0,3.2-0.3,4.6-0.9c0.4,1.4,0.9,2.6,1.6,3.8c-0.4,1.2-0.6,2.4-0.6,3.8
					c0,7,5.7,12.7,12.7,12.7c5.9,0,10.8-4,12.2-9.4c0.6,0.7,1.2,1.4,1.9,2.1c-0.2,0.8-0.3,1.6-0.3,2.5c0,6.2,5,11.2,11.2,11.2
					c3.6,0,6.7-1.7,8.7-4.3c0.5,0.6,1.1,1.2,1.8,1.8c-0.3,1-0.4,2.1-0.4,3.2c0,7.6,6.2,13.8,13.8,13.8s13.8-6.2,13.8-13.8
					c0-0.7-0.1-1.3-0.2-2c0.5-0.4,0.9-0.7,1.4-1.1c0.2,0,0.4,0.1,0.6,0.1c7.9,0,14.4-6.4,14.4-14.4C134.3,104.6,132.7,101,130,98.4z"
					/>
				<path class="AA_5" d="M133.1,96.9c-1-5.8-5.2-10.4-10.7-12c0,0,0,0,0,0c0-8.1-6.6-14.7-14.7-14.8c-2.1-2.7-5-4.5-8.3-5.3
					c-2-3.4-5.4-5.9-9.3-6.8c-0.9-1.4-1.9-2.7-3.1-3.8c0.8-1.9,1.2-3.8,1.2-5.8c0-8.3-6.8-15.1-15.1-15.1c-3.3,0-6.6,1.1-9.2,3.2
					c-0.3,0.1-0.6,0.2-0.9,0.3c-0.2-0.1-0.4-0.2-0.6-0.3c-1.9-5.6-7.2-9.5-13.2-9.5c-7.7,0-13.9,6.2-13.9,13.9c0,1.8,0.3,3.5,1,5.2
					c-7.6,0.1-13.8,6.3-13.8,14c0,5.6,3.3,10.6,8.4,12.8c0.1,0.2,0.3,0.4,0.4,0.7c-5.6,2.3-9.4,7.7-9.4,14c0,8.4,6.8,15.2,15.2,15.2
					c0.9,0,1.8-0.1,2.7-0.2c0.1,0.1,0.1,0.2,0.2,0.3c-0.3,1.2-0.4,2.3-0.4,3.4c0,8.8,7.1,15.9,15.9,15.9c4.2,0,8.2-1.7,11-4.5
					c1.6,6.2,7.2,10.9,13.9,10.9c2.4,0,4.8-0.6,6.9-1.8c0.4,9.1,7.9,16.4,17,16.4c9.4,0,17-7.6,17-16.9c9-0.7,16.1-8.3,16.1-17.5
					C137.5,104.2,135.9,100.1,133.1,96.9z M87.7,64.2c1.4,0.1,2.6,0.6,3.7,1.4c-2.5,1-4.9,2.6-6.5,4.7c-2.9-6-8.6-9.3-13.7-11.3
					c3.9-1.2,8.2-1.6,10.7-0.6c1.4,1.1,2.5,2.5,3.2,4C85.7,63.4,86.6,64.1,87.7,64.2z M94.1,91.7c5.2,0,9.4,4.2,9.4,9.4
					s-4.2,9.4-9.4,9.4c-5.2,0-9.4-4.2-9.4-9.4S89,91.7,94.1,91.7z M78.6,98.1c0-0.1,0-0.2,0-0.3c0-4.4-1.2-8.6-3.4-12
					c2.8-0.6,5.7-1,8.1-0.8c0,0,0,0,0.1,0c0,0,0,0,0.1,0c1.3,0.1,2.4,0.4,3.2,0.9c0.3,0.2,0.6,0.4,0.8,0.9
					C82.9,89,79.6,93.1,78.6,98.1z M67.7,106.3c0.3-0.2,0.6-0.5,0.9-0.8c1-1.4,0.7-3.4-0.7-4.5c-3.9-2.8-8.4-4.5-12.8-4.9
					c1.7-1.5,3.2-3.2,4.5-5c4.1-5.7,5.4-11.3,3.5-15.5c-2-4.3-7.1-7.1-13.9-7.6c-0.1,0-0.2,0-0.3,0c3.6-2.2,7.5-3.7,12.3-4.8
					c5.8,9.1,5.6,13,5.2,20.3l0,0.3c0,0,0,0,0,0l0,0c0,0,0,0,0,0c0,0.2,0,0.4,0,0.6c0,0,0,0.1,0,0.1c0,0.2,0.1,0.4,0.1,0.5
					c0,0,0,0.1,0,0.1c0.1,0.1,0.1,0.3,0.2,0.4c0,0,0,0.1,0.1,0.1c0.1,0.2,0.2,0.3,0.3,0.4c0,0,0,0,0,0c0.1,0.1,0.1,0.2,0.2,0.2
					c3.1,2.7,4.8,6.8,4.8,11.3c0,3.4-1,6.6-2.8,9.1C69,106.5,68.3,106.3,67.7,106.3z M42.9,95.4c-5.1-4.3-8.3-12.4-5.1-17.7
					c0.2-0.2,0.4-0.4,0.7-0.5c0,0,0,0,0,0c0,0,0,0,0,0c0,0,0,0,0,0c0.2-0.1,0.3-0.3,0.5-0.5c0.2-0.2,0.4-0.5,0.6-0.7
					c1.8-1,4.5-1.6,7.4-1.6c0.5,0,1.1,0,1.6,0.1c4.2,0.3,7.6,1.9,8.6,3.9c0.9,1.9-0.3,5.5-2.8,9C51,92.1,46.3,95.3,42.9,95.4z
					 M69.6,65.3c7.3,3,10.7,7.2,10.9,13.3c-2.8,0.1-5.5,0.6-7.6,1.1C73,75.2,72.5,71.1,69.6,65.3z M73.1,39.8c4.8,0,8.7,3.9,8.7,8.7
					c0,1-0.2,2.1-0.6,3.1c-4.3-0.6-9.5,0.3-13.9,2c0.7-3.9,0.9-8.2-0.1-11.5c0.1,0,0.1-0.1,0.2-0.1C68.6,41,70.5,39.8,73.1,39.8z
					 M49.1,33.4c3.6,0,6.7,2.5,7.4,6c0.2,1,0.9,1.9,1.9,2.3c0.8,0.3,1.6,0.8,2.4,1.3c0,0,0,0,0,0c0,0,0,0,0,0c0.8,0.7,0.9,4.4,0.2,9.1
					c-5.3-5.3-12.4-7.3-18.1-6.9c-0.1-0.2-0.1-0.4-0.3-0.6c-0.7-1.2-1-2.5-1-3.7C41.6,36.8,45,33.4,49.1,33.4z M28.8,60.1
					c0-4.2,3.4-7.6,7.6-7.6c0.5,0,1,0.1,1.6,0.2c0,0,0.1,0,0.1,0c0.1,0,0.2,0,0.3,0c0.1,0,0.2,0,0.3,0c0.1,0,0.2,0,0.3,0
					c0.1,0,0.2,0,0.3,0c0.1,0,0.2,0,0.2-0.1c0.1,0,0.2-0.1,0.4-0.1c0,0,0.1,0,0.1,0c4.1-1.9,12.1-0.5,17.3,5.2
					c-8.4,2.3-14.7,6-20.8,12.2c-0.2-0.4-0.5-0.7-0.7-1.1c-0.4-0.7-1-1.3-1.8-1.5C30.9,66.2,28.8,63.3,28.8,60.1z M28.3,87.5
					c0-2,0.7-3.9,1.9-5.4c-0.2,4.5,1.3,9.5,4.5,13.8C31,94.9,28.3,91.5,28.3,87.5z M64.5,108.7c-1.1,4.1-4.9,7-9.1,7
					c-5.2,0-9.5-4.3-9.5-9.5c0-0.6,0.1-1.2,0.2-1.9c3.8-2.7,11.3-2.8,17.9,2c0.5,0.4,1.2,0.6,1.8,0.6
					C65.2,107.3,64.8,107.9,64.5,108.7z M104.3,136.6c-5.9,0-10.6-4.8-10.6-10.6c0-0.8,0.1-1.5,0.3-2.5c0.3-1.1-0.1-2.3-1-3.1
					c-0.5-0.5-1-1-1.5-1.5c-0.6-0.7-1.5-1.1-2.4-1.1c0,0-0.1,0-0.1,0c-0.9,0-1.8,0.5-2.4,1.2c-1.5,1.9-3.8,3.1-6.2,3.1
					c-4.4,0-8-3.6-8-8c0-0.3,0-0.6,0.1-0.8c3.1-3.1,5.1-7.2,5.9-11.7c0.2,8.5,7.2,15.4,15.8,15.4c8.7,0,15.8-7.1,15.8-15.8
					c0.4,0.7,1,1.2,1.8,1.4c1.5,0.7,5.6,6,6.6,11.5c0.5,2.5,0.2,4.4-0.8,5.9c-5.1-2.4-14-3.7-20.7-2.6c-1.7,0.3-2.9,1.9-2.7,3.7
					c0.3,1.7,1.9,2.9,3.7,2.7c6-0.9,14.1,0.5,17.2,2.1c0,0,0,0.1,0,0.1C115,131.8,110.2,136.6,104.3,136.6z M124.8,118.6
					c0.4-2.2,0.2-4.7-0.5-7.4c-1.8-6.6-6.9-13.6-10.7-14.8c-1.6-0.5-3.3,0.4-3.9,2c-1.3-7.5-7.8-13.2-15.6-13.2c-0.2,0-0.3,0-0.5,0
					c-0.8-2.3-2.2-3.8-3.5-4.6c-0.1-0.1-0.2-0.1-0.2-0.2c-1.3-1.7-1.6-3.4-0.7-5.1c1.3-2.6,4.9-4.6,7.8-4.5c2.6,0.3,5,1.8,6.3,4.2
					c0.6,1.1,1.9,1.8,3.2,1.6l0.3,0c0.3,0,0.6-0.1,0.8-0.1c4.6,0,8.4,3.8,8.4,8.4c0,0.6-0.1,1.2-0.2,1.9c-0.2,0.9,0,1.9,0.5,2.6
					c0.6,0.8,1.4,1.2,2.4,1.3c4.3,0.3,7.8,3.6,8.2,7.9c0.1,0.7,0.4,1.4,0.9,2c2.1,2.1,3.3,4.9,3.3,7.9
					C131.1,113,128.5,116.8,124.8,118.6z"/>
			</g>
		</g>
		<g id="TYR_Tyrosine">
			<g>
				<path class="AA_0" d="M148.1,109.5c4.1-4,6.7-9.6,6.7-15.7c0-12.1-9.8-21.9-21.9-21.9c-10.6-0.8-17.2,7-17.5,7
					c2-9.3-6-17-13.8-17.5c0.6-1.7,1-3.4,1-5.3c0-9-7.3-16.3-16.3-16.3c-2.7,0-5.3,0.7-7.5,1.9c-3-1.8-7.4-1.3-7.5-1.3c0,0,0,0,0,0
					c0-8-6.5-14.4-14.4-14.4c-8,0-14.4,6.5-14.4,14.4c0,0,0,0,0,0c-0.6,0.6-1.2,1.3-1.8,2C38.2,36.3,32.3,32,25.3,32
					c-8.1,0-14.8,5.8-16.2,13.5c-3.6,3.4-5.9,8.1-5.9,13.4c0,17.9,17.2,18.6,17.3,18.7c-5.3,2.2-9,7.5-9,13.6
					c0,8.1,6.6,14.7,14.7,14.7c3.4,0,6.6-1.2,9.1-3.2c1.4,0.4,2.9,0.6,4.4,0.6c1.5,8.1,8.6,14.2,17.2,14.2c6.2,0,11.6-3.2,14.7-8.1
					c0,0,0,0.1,0,0.1c0,3.9,1.1,7.5,3.1,10.5c-0.2,0.9-0.3,1.9-0.3,2.9c0,8.6,7,15.5,15.5,15.5c6.8,0,12.5-4.4,14.6-10.4
					c2.3,9.2,10.7,16.1,20.7,16.1c3.1,0,6-0.7,8.7-1.9c1.4,0.3,2.8,0.6,4.3,0.6c10,0,18.1-8.1,18.1-18.1
					C156.2,118.3,153,112.8,148.1,109.5z"/>
				<path class="AA_1" d="M152.7,109.1c3.4-4.4,5.2-9.7,5.2-15.3c0-13.8-11.2-25-25-25.1c-5.1-0.4-10,0.9-14.5,3.8
					c-0.5-2.4-1.6-4.6-3.1-6.7c-2.5-3.3-6.1-5.8-9.9-6.9c0.2-0.9,0.2-1.9,0.2-2.8c0-10.7-8.7-19.5-19.5-19.5c-2.6,0-5.1,0.5-7.5,1.6
					c-1.6-0.6-3.2-0.9-4.6-1c-1.5-8.2-8.7-14.4-17.3-14.4c-7.9,0-14.7,5.3-16.9,12.5c-3.7-4.1-8.9-6.5-14.6-6.5c-9.1,0-17,6.3-19.1,15
					c-4,4.1-6.2,9.4-6.2,15C0,68.6,4.7,75.7,13,79c-3,3.2-4.7,7.5-4.7,12.1c0,9.9,8,17.9,17.9,17.9c3.5,0,6.8-1,9.8-3
					c0.4,0.1,0.8,0.1,1.2,0.2c2.7,8.5,10.6,14.5,19.7,14.5c4.6,0,9-1.5,12.6-4.3c0.5,1.5,1.1,2.9,1.9,4.2c-0.1,0.8-0.1,1.5-0.1,2.2
					c0,10.3,8.4,18.7,18.7,18.7c5.5,0,10.6-2.4,14.1-6.5c4.3,7.4,12.3,12.2,21.2,12.2c3.1,0,6.1-0.6,9-1.7c1.4,0.3,2.7,0.4,4,0.4
					c11.8,0,21.3-9.6,21.3-21.3C159.4,118.7,156.9,113.1,152.7,109.1z M132.6,75.1c0.1,0,0.2,0,0.2,0c10.3,0,18.7,8.4,18.7,18.7
					c0,5.1-2,9.8-5.7,13.4c-1.6,0.9-10.8-1.4-19.3-8.6c-3.4-2.9-10.8-10.2-8.5-17.8C119.8,79.2,125,74.5,132.6,75.1z M110.2,69.6
					c1.3,1.8,2.8,4.7,2,8.5c-0.3,0.8-0.5,1.6-0.7,2.5c-0.1,0-0.2,0-0.2,0c-3.5,1.1-8.9-0.6-14-4.4C93,73,91,69.9,90.8,68.7
					c0,0,0,0,0-0.1c0.1-0.1,1.2-1.4,3.7-2.5c0,0,0.1,0,0.1,0c1.6-0.7,3.9-1.3,6.8-1.5C104.7,64.9,108.1,66.8,110.2,69.6z M78.5,101
					c0.3-0.5,0.5-1,0.6-1.6c0-0.4,0-0.7,0-1.1c0.1-0.2,0.2-0.4,0.3-0.7v0c1.2-2.7,3.5-4,5.2-4.5c1.1-0.4,2.3-0.5,3.4-0.5
					c2.1,0,4.2,0.5,6,1.6c8.4,4.9,5.9,10.4,5.1,12.2c-1.2,2.6-3.3,4.7-6,5.7c-2.7,1-5.6,1-8.3-0.2C80.5,109.9,78.1,105.4,78.5,101z
					 M72.1,100.4c-2.5-3.7-7.2-7.1-15.2-8.6c-4.5-0.8-10.5-0.5-15,2c0.4-11.1,5.8-21.7,12-25c0.4,0.3,0.8,0.6,1.3,1
					c5.7,4.6,17.4,14,17.5,27.4C72.4,98.3,72.2,99.3,72.1,100.4z M23.1,67.6c0.6-7.9,4.2-16.2,16.3-21.3c0.8,1.1,1.7,2.1,2.5,3.2
					c2.3,2.8,4.9,5.9,7.1,10.4c-5.1-0.8-10.9-0.3-16.2,1.7C29.1,63,25.8,65.1,23.1,67.6z M59.2,59.9c2.7-8.3,6.9-13.7,12.8-16.4
					c1.4-0.1,3.7,0.1,5.1,0.9c9.4,5.5,12,13.4,12.7,16.9c-0.7,0.4-1.3,0.8-1.8,1.2C81.5,58.8,71.1,56.5,59.2,59.9z M99.2,56
					c0,0.8-0.1,1.5-0.3,2.3c-1.2,0.2-2.2,0.4-3.2,0.6c-1-4.1-3.5-10.4-9.9-16c0.1,0,0.2,0,0.3,0C93.4,43,99.2,48.8,99.2,56z
					 M56.8,29.2c5.5,0,10.1,4,11,9.3c-7.5,4-11.6,11-13.9,16.9c-2.3-4.3-4.9-7.3-7.1-10c-0.8-1-1.6-1.9-2.2-2.7
					c0.6-0.6,0.9-1.4,0.9-2.2c0,0,0-0.1,0-0.1C45.6,34.1,50.7,29.2,56.8,29.2z M25.3,35.2c4.4,0,8.4,2.1,10.8,5.6
					c-0.3,0.1-0.6,0.3-0.9,0.4c-7.3-2.8-14.9-2.1-20.4-0.8C17.2,37.2,21.1,35.2,25.3,35.2z M6.4,58.9c0-4,1.6-7.8,4.5-10.7
					c4.7-1.8,10.9-3,16.7-2.3c-8,6.5-11.6,15.7-10.8,27.6C11.9,72,6.4,68.3,6.4,58.9z M14.7,91.1c0-4.6,2.8-8.8,7.1-10.6
					c0,0,0,0,0.1,0c0.1,0,0.2-0.1,0.3-0.1c0.1,0,0.1-0.1,0.2-0.1c0,0,0.1-0.1,0.1-0.1c0,0,0,0,0.1-0.1c0,0,0.1-0.1,0.1-0.1
					c0,0,0.1,0,0.1-0.1c0.1-0.1,0.1-0.1,0.2-0.2c0,0,0.1-0.1,0.1-0.1c0,0,0.1-0.1,0.1-0.1c0,0,0-0.1,0.1-0.1c0.1-0.1,0.2-0.2,0.2-0.4
					c0,0,0,0,0-0.1c0-0.1,0-0.1,0.1-0.2c0-0.1,0.1-0.1,0.1-0.2c2.2-6.4,7.6-9.5,11.6-11.1c3.8-1.4,8.1-1.9,11.8-1.5
					c-5.3,4.9-9.2,13-10.7,21.7c-2-3.2-4.6-6.1-7.8-7.9c-1.5-0.9-3.5-0.4-4.4,1.2c-0.9,1.5-0.4,3.5,1.2,4.4c4.3,2.5,7.7,8.5,8.2,12.5
					c0.2,1.6-0.1,2.2-0.2,2.3c-2.1,1.6-4.5,2.5-7.1,2.5C19.8,102.6,14.7,97.5,14.7,91.1z M56.8,114.3c-6.8,0-12.7-4.9-14-11.6
					c-0.2-0.9,0.1-1.6,0.8-2.3c2.2-2.1,7.6-3.2,12.2-2.3c11.3,2.1,12.6,8.1,12.6,10.3C65.7,112.1,61.4,114.3,56.8,114.3z M107.6,127.5
					c0.3-2.8,9.7-6.6,20.9-8.8c-2.4,6.4-5.3,16.3-2.3,22.1c-0.4,0-0.8,0.1-1.1,0.1C116.9,140.9,109.8,135.4,107.6,127.5z M138.1,139.6
					c-1.1,0-2.2-0.2-3.5-0.5c-0.2,0-0.4-0.1-0.6-0.1c0,0,0,0,0,0c-1.2-0.1-1.7-0.5-1.9-0.9c-2.2-3.6,1.5-15.3,4.7-22
					c0.5-1.1,0.4-2.3-0.3-3.2c-0.7-0.9-1.8-1.4-3-1.3c-7.6,1-31.7,5-32.1,15.8c-1.9,4.7-6.4,7.8-11.4,7.8c-6.8,0-12.3-5.5-12.3-12.3
					c0-0.7,0.1-1.4,0.2-2.3c0.1-0.8,0-1.6-0.5-2.3c-1.4-2.1-2.2-4.5-2.5-6.9c1.8,2.7,4.3,5,7.4,6.4c2.2,1,4.6,1.5,7,1.5
					c2.1,0,4.2-0.4,6.2-1.2c4.3-1.6,7.7-4.9,9.5-9.1c3.5-8,0.7-15.4-7.7-20.3c-4.4-2.6-9.9-3.2-14.6-1.6c-1.7,0.6-3.3,1.4-4.6,2.4
					c-3.1-11-11.8-18.8-17.2-23.2c10.3-3,18.8-0.8,23.5,1.8c-0.1,1.3,0.2,3,1.4,5.1C89,78.8,99.4,87.4,109,87.4c0.9,0,1.8-0.1,2.6-0.2
					c1.6,7.8,8.3,15,15.5,19.8c4.5,3,12,6.8,17.7,6.8c1.1,0,2.1-0.1,3-0.4c3.3,2.8,5.2,6.9,5.2,11.3
					C153,132.9,146.3,139.6,138.1,139.6z"/>
			</g>
		</g>
		<g id="VAL_Valine">
			<g>
				<path class="AA_2" d="M130.2,77.9c0-7.8-5.7-14.3-13.2-15.4c0.1-0.6,0.1-1.2,0.1-1.8c0-8.8-7.1-16-16-16c-5.8,0-10.8,3.1-13.6,7.7
					c-1.6,0.6-3.2,1.4-4.6,2.3c2.1-2.8,3.4-6.2,3.4-10c0-9.1-7.4-16.5-16.5-16.5c-4.4,0-8.4,1.7-11.4,4.6c-3,0.1-5.9,0.7-8.5,1.9
					c-1.3-0.3-2.6-0.5-3.9-0.5c-9.2,0-16.7,7.5-16.7,16.7c0,5.7,2.9,10.7,7.2,13.7c-1.2,2.2-2,4.8-2,7.5c0,3,0.9,5.9,2.4,8.3
					c-0.7,1.8-1.1,3.8-1.1,5.8c0,9,7.3,16.2,16.2,16.2c0.6,0,1.3,0,1.9-0.1c2.2,2.4,4.9,4.2,7.9,5.3c0,0.2,0,0.4,0,0.5
					c-4,3.5-6.6,8.7-6.6,14.4c0,10.6,8.6,19.1,19.1,19.1c7.9,0,14.6-4.8,17.5-11.5c2.8,1.4,5.9,2.3,9.2,2.3c11.1,0,20.1-9,20.1-20.1
					c0-2.4-0.4-4.6-1.2-6.7c1.2-2.1,1.9-4.6,1.9-7.2c0-2.2-0.5-4.3-1.3-6.1C126.2,89.9,130.2,84.4,130.2,77.9z"/>
				<path class="AA_3" d="M133.4,77.9c0-8.2-5.5-15.5-13.2-17.9c-0.4-10.2-8.8-18.4-19.1-18.4c-4.3,0-8.4,1.4-11.7,4c0-0.3,0-0.5,0-0.8
					c0-10.9-8.9-19.7-19.7-19.7c-4.7,0-9.1,1.6-12.7,4.6c-2.6,0.2-5.1,0.7-7.5,1.7c-1.2-0.2-2.4-0.3-3.6-0.3C34.9,31,26,39.9,26,50.9
					c0,5.6,2.4,10.9,6.5,14.7c-0.8,2.1-1.2,4.3-1.2,6.6c0,3,0.7,6,2.1,8.6c-0.5,1.8-0.8,3.6-0.8,5.5c0,10.7,8.7,19.4,19.4,19.4
					c0.2,0,0.4,0,0.7,0c1.3,1.2,2.7,2.3,4.2,3.2c-3.1,3.9-4.8,8.8-4.8,13.9C52,135,62,145,74.3,145c7.8,0,15-4.1,19-10.6
					c2.5,0.9,5.1,1.3,7.8,1.3c12.9,0,23.3-10.5,23.3-23.3c0-2.2-0.3-4.3-0.9-6.4c1.1-2.4,1.6-4.9,1.6-7.5c0-1.6-0.2-3.1-0.6-4.6
					C130,90.4,133.4,84.5,133.4,77.9z M83,44.8c0,1.1-0.1,2.3-0.4,3.4c-2.2-8.5-8.5-13.9-15-16.5c0.7-0.1,1.4-0.2,2-0.2
					C77.1,31.4,83,37.4,83,44.8z M37.8,73.8c-0.1-0.5-0.1-1.1-0.1-1.6c0-1.1,0.2-2.2,0.5-3.3c0.8,1.2,1.7,2.3,2.7,3.3
					C39.9,72.4,38.8,72.9,37.8,73.8z M40.6,59c-1.1-3.3-0.2-7.9,2.5-12.7c2.6-4.5,6-7.8,8-8.7c0,0,0,0,0,0c0,0,0,0,0,0
					c2.3-1,4.7-1.5,7.3-1.6c4.7,0,15.8,3.6,18.2,14.3c1.1,4.8,0.6,8.7-1.4,11.8c-2.3,3.6-6.9,6-13.4,7.3C46,72.4,43.5,67.4,40.6,59z
					 M32.4,50.9c0-5.6,3.4-10.4,8.3-12.4c-4,5-7.2,11.7-7,18.1C32.9,54.8,32.4,52.9,32.4,50.9z M39,86.2c0-1.6,0.3-3.1,0.9-4.6
					c0.9-2.1,2-3.2,3.1-3.4c2.5-0.3,7.1,2.9,11.3,8.1c2.4,2.9,5.1,8.6,3.9,11.1c-0.6,1.3-2.7,1.7-4.5,1.8c0,0,0,0-0.1,0
					c-0.1,0-0.1,0-0.2,0c-0.6,0.1-1.1,0.1-1.5,0.1C44.8,99.3,39,93.4,39,86.2z M74.3,138.6c-8.8,0-15.9-7.1-15.9-15.9
					c0-4.6,2-9,5.5-12c0.7-0.6,1.1-1.4,1.1-2.3l0-0.1c0.5,1,1.5,1.8,2.6,1.9c10,0.9,17.6,6.9,20.5,12.1c0.8,1.5,2,4.3,0.8,6.6
					c0,0,0,0.1,0,0.1c0,0,0,0.1,0,0.1C86.4,134.8,80.7,138.6,74.3,138.6z M93.8,119.1c-3.5-6.3-11.8-13.1-22.8-15
					c0-0.7,0.2-1.5,0.4-2.1c12.7,3.8,23.4,3.6,33.4-0.8c1.6,2.9,2.1,6.2,1.5,9.5c-1,5.1-4.6,9.7-10.6,13.5
					C95.4,122.7,94.7,120.9,93.8,119.1z M119.4,89.3c-0.8,0.3-1.4,1-1.7,1.8s-0.3,1.7,0.1,2.5c0.7,1.5,1.1,3.2,1.1,4.8
					c0,2-0.5,4-1.5,5.7c-0.4,0.8-0.5,1.8-0.2,2.6c0.7,1.8,1,3.7,1,5.6c0,9.3-7.6,16.9-16.9,16.9c-0.4,0-0.8,0-1.2,0
					c8.8-5.9,11.8-12.5,12.7-17.2c1.1-5.9-0.4-12-4.2-16.7c-0.9-1.2-2.6-1.6-4-0.9c-6.6,3.4-16.2,6.5-33,1c-0.9-0.3-1.9-0.2-2.7,0.3
					c-4.2,2.5-4.3,7.8-4.1,10.4c-0.4-0.6-0.9-1.1-1.6-1.4c-0.7-0.3-1.5-0.6-2.2-1c1.7-1.1,2.7-2.5,3.3-3.7c2.8-6.3-2.6-14.9-4.8-17.7
					c-1.4-1.7-3.2-3.7-5.4-5.6c0,0,0,0,0.1,0c2.6,0,5.6-0.3,9.1-1c8.3-1.6,14.3-5,17.6-10c1-1.5,1.7-3.1,2.2-4.8
					c0.1,2.2,0.4,3.7,0.5,3.8c0.2,0.9,0.8,1.6,1.7,2c0.5,0.2,0.9,0.3,1.4,0.3c0.4,0,0.8-0.1,1.2-0.2c4.8-1.9,11.4-3,14.9-2.5
					c1.7,0.3,3.4-0.9,3.6-2.7c0.3-1.7-0.9-3.4-2.7-3.6c-3.7-0.6-9.1,0.1-14.2,1.5c0.1-1.6,0.4-3.5,1.2-5.6c2.4-3.7,6.4-6,10.8-6
					c6.6,0,12.1,5.1,12.7,11.6c-3.5,0.6-6.7,2.2-9.2,4.7c-3.4,3.4-5.1,8.3-5,13.9c0.4,6.1,1,16.3,12.2,16.3c0.1,0,0.2,0,0.3,0
					c1.8,0,3.2-1.5,3.1-3.3c0-1.8-1.5-3.2-3.3-3.1c-4.4,0.1-5.5-1.8-6.1-10.2c-0.1-3.7,1-6.8,3.1-9.1c1.9-1.9,4.6-3,7.5-3
					c5.9,1,10.3,6.2,10.3,12.2C127,82.9,124,87.4,119.4,89.3z M57.8,68.4c-8,0-14.6-6.5-14.6-14.6s6.5-14.6,14.6-14.6
					s14.6,6.5,14.6,14.6c0,1.9-0.4,3.7-1.1,5.4c-0.7,1.6-2.5,2.4-4.2,1.8c-1.6-0.7-2.4-2.5-1.8-4.2c0.4-1,0.6-2,0.6-3
					c0-4.5-3.7-8.2-8.2-8.2c-4.5,0-8.2,3.7-8.2,8.2s3.7,8.2,8.2,8.2c1.4,0,2.7-0.3,3.9-1c1.5-0.9,3.5-0.3,4.3,1.3
					c0.9,1.5,0.3,3.5-1.3,4.3C62.7,67.8,60.3,68.4,57.8,68.4z M99.4,83.1c0,7.7-6.3,14-14,14s-14-6.3-14-14c0-7.7,6.3-14,14-14
					c1.7,0,3.4,0.3,5,0.9c1.7,0.6,2.5,2.5,1.8,4.1c-0.6,1.6-2.5,2.5-4.1,1.8c-0.9-0.3-1.8-0.5-2.7-0.5c-4.2,0-7.6,3.4-7.6,7.6
					c0,4.2,3.4,7.6,7.6,7.6s7.6-3.4,7.6-7.6c0-1.8,1.4-3.2,3.2-3.2S99.4,81.3,99.4,83.1z"/>
			</g>
		</g>
	</defs>
</svg>
