<?xml version="1.0" encoding="utf-8"?>
<!-- Generator: Adobe Illustrator 21.0.0, SVG Export Plug-In . SVG Version: 6.00 Build 0)  -->
<svg version="1.1" id="SVG_TXTL" xmlns="http://www.w3.org/2000/svg" xmlns:xlink="http://www.w3.org/1999/xlink" x="0px" y="0px"
	 viewBox="0 0 3000 2000" class="defsSVG" xml:space="preserve">
<style type="text/css">
	.st0{fill:none;stroke:#000000;stroke-miterlimit:10;}
</style>
<path id="Mopath_4" class="st0" d="M1951.9,785.9c0,0-150.1,12.9-291,18c-138,5-244.8-20-436.8-20s-306.2-32.6-544.2-18
	c-163,10-249.8,26.9-398,21s-313,17-313,17"/>
<path id="Mopath_5" class="st0" d="M2134.9,458.9c0,0-477-161-735-126c-262.2,35.6-471,200-707,207c-75.8,2.2-250,2.2-425,2.2
	c-334,0-249,906.8-249,906.8"/>
<path id="Mopath_6" class="st0" d="M2134.9,458.9c0,0-477-161-735-126c-262.2,35.6-471,200-707,207c-61.5-46.1-133.8-43-333.3-67
	C-0.4,429.5-222.3,369-222.3,369"/>
</svg>
