<svg class="defsSVG">
   <defs>
      <g id="tRNABody_f8">
         <path id="Body_8" class="tRNA-body-style" d="M75.2,20.4c33.8,6.3,48,69.7,37,78.7c2.9,20.9-4.4,38.5-17,54.1c11.2,16.6,4.9,48.9-3,58.7
            c-5.9,7.2-6.5,10.4-5.9,17.2c1,10.1-4.9,26-9.2,34.5c48.3,29.7-2.2,61.5-9.5,11.1c-1.3,1.1-5.8,2.7-8,3.3
            c21.3,38.1-34.3,37-11.6-0.2c-1.9-0.3-5.8-1.7-7.5-2.3C29,319.4-14.1,289,35,263c-1.1-5.6-6.8-17.9-7.3-23.6c-0.2-2.1-0.7-4.6-2-6
            C9.7,215.9,5.5,194.8,8,172c0.6-5.9,2.4-11.8,4.7-17.2c2-4.6,2.5-8.6,0.3-12.9c-4.6-9.1-3.5-17.9,0.9-26.9
            c-1.2-2.3-2.5-4.8-3.7-7.2c-9.6-18.6-6.4-36.4,3.5-53.8c0.7-20.2,15-28.4,23.2-32.1c-2-3.8,1.6-19.7,19.1-19.7
            C69,2.2,76.3,7.8,75.2,20.4z"/>
         <g id="Shadow_8">
            <path class="tRNA-shadow-style" d="M36.9,15.4c-2,9-2.7,24.8,6.8,30.6c-6.9,15.9,8,33.3,0.7,33C38.8,78.8,23.5,65.4,31.2,50
               c-17.4,14.4,9.3,50.6,6.2,56.6c-9.7,8-23.5-21.7-16.1-43.3c-19,28.2,6.6,44.4,0.2,47c-13.3,5.4-6.5,5-7.3,6.3
               c-4.2,7.3-0.2,17.3,6.9,32.8c-10.6,20.3-3.8,45.9-1.9,53.6c1.8,7.2,21.7,33.4,7.8,32.9c0.1,8.7,7,27.5,7,27.6
               c-2.2,1.2-31.6,19.2-21,31.5c9.3,10.7,26.8-12.2,31.2-17.9c0,7.3-7.6,30.1,8.1,29.8c19.9,0.1,11.6-25.6,11.9-30
               c13.1,32.3,26.5,25.6,32.3,20.6c2.7-2.4,6.9-18.5-19.2-34.9c0.1-0.2-1.1-34.7-1.6-40.8c-0.3-3.9,5.2-10,2.1-22.4
               c-4.9-19.4-18.9-23.9-12.5-23.7c16.1-1.3,30.1-14.5,30.2-20.2c-2.6,2.1-15.3,10.8-20.1,11.4c-0.9-3.4-2.8-4.5-6.3-3.7
               c0.1-0.2,18.4-9.1,17.6-31.9c4.5-3.2,12.3-10.1,12.7-15.7c9.3-5.7,11.3-11.7,12.7-16.1c2.1-4.5,6-7.7,3-18.3
               c-7.5,9.5-24.8,27.4-34.2,24.1c-5-1.9,23-51.7,7.7-57.9c-1.3,2.6-13.8,31-17.4,34.5c6-13.1-0.9-25-3-36.8
               c10.3-4.3,6.7-21,6.8-31.1C74.4,20.1,48.5,34.8,36.9,15.4z M28.6,285.3c-2.9,4.6-6.2,6.2-8.5,4.1c-2-1.8-1.1-4.5,1.7-8.3
               c2.8-3.8,7.3-6.3,8.9-5.2C32.3,276.9,31.6,280.6,28.6,285.3z M19.8,128.9c3.5,4.3,16.2,8,16.2,8s9,13.6,6.2,16.2
               c-2.4,1.3-11.4-4.1-17-10.1C22,139.5,18.1,135.6,19.8,128.9z M57.1,291.6c-0.3,3.1-0.7,6.9-3.8,6.9c-3.1,0.1-4.1-5.5-3.6-8.3
               c0.6-2.8,0.9-7.7,3.7-7.8C56.1,282.2,57.4,288.4,57.1,291.6z M53.4,269c-9.6,0.8-8.4-13.2-10.6-23.8c10.5,1.2,10.9-6.1,10.9-6.1
               c6,6.6,12.4-0.6,12.4-0.6S66.5,267.8,53.4,269z M79.7,276.6c3.6-1.5,5.4,1.3,8,4.7c2.7,3.4,2.7,10,1,11.5s-5.6-1.5-8.9-5
               C76.6,284.2,76.5,277.9,79.7,276.6z M50.2,201.9c10.8,2.2,13.6-7.1,13.6-7.1s8.6,29.1-13.1,27.6S29,172.6,29,172.6
               S39.4,199.6,50.2,201.9z"/>
         </g>
         <g id="Wrinkles_8">
            <path class="tRNA-wrinkle-style1" d="M69.9,31.2c-10,21.5-33.1,4.9-33.1-9.2"/>
            <path class="tRNA-wrinkle-style1" d="M95.1,153.2c-6.1,12.6-41,25.9-66.5-2.1"/>
            <path class="tRNA-wrinkle-style1" d="M113.3,67.9c11.4,45.2-41,48.3-64.6,46.3c-23.7-2-35.1-29.2-27.8-49.8c-25.2,22.7-5.8,66.1,23.9,65.3
               c10.6,14.2,44.1,8.6,54.7-12.7"/>
            <path class="tRNA-wrinkle-style1" d="M45,230.1c-17.6-6.8-27.8-43.2-27.2-64.3"/>
            <path class="tRNA-wrinkle-style1" d="M88.4,48.5c12.7,20.7-10,36-31.5,36c-14,0-35.5-19.6-26-33.6"/>
            <path class="tRNA-wrinkle-style1" d="M50.5,193.1c-3.3-2.8-15.1-24.3-14.1-34.9"/>
            <path class="tRNA-wrinkle-style1" d="M63.9,228.8c-9,7.8-21.3,0.2-21.3,0.2c0.8,10.1-8.8,13.8-15.2,6.1"/>
            <path class="tRNA-wrinkle-style2" d="M53.3,308.3c-3.1,0-6.2-1.1-8.7-3.2c-6.1-5.4-6.2-14.9-0.3-25.9c-0.8-0.3-1.7-0.6-2.6-0.9
               c-4.7,15.9-13.7,21.6-20.7,21.6c0,0,0,0-0.1,0c-5.4,0-9.7-3.4-10.9-8.5c-0.9-3.6-1.8-16.3,22.3-29.6c-0.6-2.2-1.7-5.1-2.8-8.1
               c-1.9-5.2-3.8-10.6-4.1-14.1c-0.2-2.2-0.7-3.9-1.4-4.7C8.9,218.4,2.9,197.7,5.8,171.8c0.6-5.8,2.3-12,4.9-17.9
               c2-4.5,2.1-7.7,0.4-11c-4.4-8.7-4.3-17.8,0.4-27.9l-0.6-1.2c-0.9-1.7-1.7-3.3-2.6-5c-8.9-17.4-7.9-35.5,3.2-55.4
               c0.4-9.2,3.6-16.9,9.4-23.1c4.4-4.7,9.5-7.7,13.4-9.5c-0.4-3.1,0.6-7.4,2.8-10.9C39.2,6.1,44.7,0,56,0c8,0,13.8,2,17.4,5.9
               c2.9,3.1,4.2,7.4,4.1,12.7c8.8,2.2,17,8.3,23.9,17.8c6,8.3,11,19.2,13.9,30.7c3,11.7,4.4,26.9-0.9,32.9
               c2.3,18.7-3.2,36.3-16.7,53.5c10.8,18.1,3.9,50.2-4,59.9c-5.4,6.7-6,9.2-5.4,15.6c1,10.4-4.7,25.7-8.6,33.9
               c7.9,5.1,13.6,10.6,16.9,16.3c3.1,5.3,3.9,10.8,2.4,15.4c-1.9,5.9-7.4,9.4-13.6,8.9c-7.5-0.7-16.4-7.7-19.8-25.3
               c-1,0.4-2.1,0.9-3.1,1.2c5.6,11.3,5.3,21-1.1,26.1C59.2,307.3,56.3,308.3,53.3,308.3z M40.3,273.2c0.3,0,0.5,0,0.7,0.1l0.8,0.3
               c1.7,0.6,4.8,1.7,6.2,1.9c0.8,0.1,1.4,0.6,1.7,1.3c0.3,0.7,0.3,1.5-0.1,2.1c-9.1,14.9-3.9,21.2-2.1,22.8c3.1,2.7,7.9,2.8,11.1,0.2
               c1.9-1.5,7.3-7.6-1.3-22.9c-0.3-0.6-0.4-1.3-0.1-2c0.3-0.6,0.8-1.1,1.5-1.3c2.6-0.7,6.4-2.2,7.2-2.9c0.6-0.5,1.5-0.6,2.2-0.3
               c0.8,0.3,1.3,1,1.4,1.8c2.5,17.3,10,24,16.3,24.6c4.1,0.4,7.7-2,9-5.8c2.1-6.4-1.8-16.9-19.1-27.5c-1-0.6-1.4-1.9-0.8-2.9
               c4.1-8.2,9.9-23.7,9-33.2c-0.7-7.3,0.1-11.1,6.4-18.8c7.5-9.2,13.4-40.3,2.9-56c-0.5-0.8-0.5-1.9,0.1-2.7
               c13.7-16.9,19.1-34.1,16.6-52.4c-0.1-0.8,0.2-1.5,0.8-2c3.1-2.6,4.3-13.7,0.3-29.2c-4.8-18.8-17.2-42.1-36.3-45.6
               c-1.1-0.2-1.9-1.2-1.8-2.4c0.4-4.9-0.5-8.7-2.9-11.2C67.4,6,62.6,4.5,56,4.5c-8.6,0-13,4.2-15.1,7.7c-2.5,4.1-2.4,8-2,8.8
               c0.3,0.5,0.3,1.2,0.1,1.8c-0.2,0.6-0.6,1.1-1.2,1.3c-14.2,6.4-21.4,16.3-21.9,30.1c0,0.4-0.1,0.7-0.3,1
               C4.9,74.1,3.8,90.5,12.2,106.8c0.9,1.7,1.7,3.4,2.6,5l1.1,2.2c0.3,0.6,0.3,1.4,0,2c-4.5,9.3-4.8,17.2-0.9,24.9
               c2.9,5.8,1.4,10.9-0.3,14.8c-2.4,5.4-3.9,11.2-4.5,16.6c-2.7,24.6,2.9,44.1,17.2,59.7c1.4,1.5,2.3,4,2.6,7.3
               c0.3,2.9,2.2,8.3,3.9,13c1.5,4,2.8,7.8,3.3,10.4c0.2,1-0.3,1.9-1.2,2.4c-11.3,6-23.8,16.2-21.6,25.4c0.8,3.1,3.3,5,6.6,5.1
               c0,0,0,0,0,0c5.4,0,13.1-5.4,17-20.6c0.2-0.6,0.6-1.1,1.1-1.4C39.6,273.2,40,273.2,40.3,273.2z"/>
         </g>
      </g>
      <g id="tRNABody_f7">
         <path id="Body_7" class="tRNA-body-style" d="M65.4,20.4c33.8,6.3,57.8,69.7,46.8,78.7c2.9,20.9-4.4,38.5-17,54.1c11.2,16.6,4.9,48.9-3,58.7
            c-5.9,7.2-6.5,10.4-5.9,17.2c1,10.1-4.9,26-9.2,34.5c48.3,29.7-2.2,61.5-9.5,11.1c-1.3,1.1-5.8,2.7-8,3.3
            c21.3,38.1-34.3,37-11.6-0.2c-1.9-0.3-5.8-1.7-7.5-2.3C29,319.4-14.1,289,35,263c-1.1-5.6-6.8-17.9-7.3-23.6c-0.2-2.1-0.7-4.6-2-6
            C9.7,215.9,5.5,194.8,8,172c0.6-5.9,2.4-11.8,4.7-17.2c2-4.6,2.5-8.6,0.3-12.9c-4.6-9.1-3.5-17.9,0.9-26.9
            c-1.2-2.3-2.5-4.8-3.7-7.2C0.6,89.2-0.4,71.4,9.5,54.1c0.7-20.2,9.4-28.4,17.6-32.1c-2-3.8,1.6-19.7,19.1-19.7
            C59.2,2.2,66.5,7.8,65.4,20.4z"/>
         <g id="Shadow_7">
            <path class="tRNA-shadow-style" d="M27,15.4c-2,9-3.1,24.3,9,30.6C29,61.9,32,71,36.8,79.4c-5.6-0.2-21.7-14-14-29.5
               c-17.4,14.4,15.5,50.6,12.3,56.6c-9.7,8-28.5-21.7-21-43.3c-19,28.2,13,49.3,6.1,49.3c-3.7,0-5.2,2.8-6,4.1
               c-4.2,7.3-2.5,17.3,4.7,32.8C8.2,169.7,15.1,195.4,17,203c1.8,7.2,23.9,33.4,10.1,32.9c0.1,8.7,7,27.5,7,27.6
               c-2.2,1.2-31.6,19.2-21,31.5c9.3,10.7,26.8-12.2,31.2-17.9c0,7.3-7.6,30.1,8.1,29.8c19.9,0.1,11.6-25.6,11.9-30
               c13.1,32.3,26.5,25.6,32.3,20.6c2.7-2.4,5.7-17.8-20.4-34.2c0.1-0.2,4.1-35.6-2.6-41.4c3.5-3.7,5.2-10,2.1-22.4
               c-4.9-19.4-18.9-23.9-12.5-23.7c16.1-1.3,30.1-14.5,30.2-20.2c-2.6,2.1-12.3,17.9-42.4,9.5c16.2-1.5,26.9-5,29.5-12.1
               c0.9-3.4,2.4-8-2.4-13.3c16.2-8.8,18.9-15.9,19.2-21.5c9.3-5.7,4.7-12.6,6.2-17c2.1-4.5,6.9-18.1-1.9-33
               c-1.5,26.1-26.1,43.7-33.1,37.2c-6.4-7,35.6-39.2,11.2-58c2.5,15.1-8.1,25.8-13.7,27.4c-7.3-10.4-9.5-17.9-7-29.7
               c10.3-4.3,5.1-14.2,7-31.1C65.2,20.1,37.1,43,27,15.4z M28.6,285.3c-2.9,4.6-6.2,6.2-8.5,4.1c-2-1.8-1.1-4.5,1.7-8.3
               c2.8-3.8,7.3-6.3,8.9-5.2C32.3,276.9,31.6,280.6,28.6,285.3z M17.6,128.9c3.5,4.3,16,7.2,16,7.2s-2.9,8.5,6.4,17.1
               c-2.4,1.3-11.4-4.1-17-10.1C19.8,139.5,15.9,135.6,17.6,128.9z M57.1,291.6c-0.3,3.1-0.7,6.9-3.8,6.9c-3.1,0.1-4.1-5.5-3.6-8.3
               c0.6-2.8,0.9-7.7,3.7-7.8C56.1,282.2,57.4,288.4,57.1,291.6z M53.4,269c-9.6,0.8-12.5-13.2-14.7-23.8c10.5,1.2,15-6.1,15-6.1
               c6,6.6,12.4-0.6,12.4-0.6S66.5,267.8,53.4,269z M79.7,276.6c3.6-1.5,5.4,1.3,8,4.7c2.7,3.4,2.7,10,1,11.5s-5.6-1.5-8.9-5
               C76.6,284.2,76.5,277.9,79.7,276.6z M52.3,196.6c1.3,9-11.9,3.8-11,14c0.8,9.6,21.7,14.4,9.5,15.1c-21.7,0.9-28.2-64-28.2-64
               S44.8,196.3,52.3,196.6z"/>
         </g>
         <g id="Wrinkles_7">
            <path class="tRNA-wrinkle-style1" d="M62.6,32.6c-10,21.5-35.2,7.9-35.6-10.6"/>
            <path class="tRNA-wrinkle-style1" d="M95.1,153.2c-6.1,12.6-41,25.9-66.5-2.1"/>
            <path class="tRNA-wrinkle-style1" d="M100.7,67.9c11.4,45.2-35.4,48.3-59,46.3c-23.7-2-35.1-29.2-27.8-49.8c-25.2,22.7-5.8,66.1,23.9,65.3
               c10.6,14.2,44.1,8.6,54.7-12.7"/>
            <path class="tRNA-wrinkle-style1" d="M45,230.1c-17.6-6.8-27.8-43.2-27.2-64.3"/>
            <path class="tRNA-wrinkle-style1" d="M80,48.5c12.7,20.7-10,36-31.5,36c-14,0-35.5-19.6-26-33.6"/>
            <path class="tRNA-wrinkle-style1" d="M51.9,195.9c-3.3-2.8-16.5-27.1-15.5-37.7"/>
            <path class="tRNA-wrinkle-style1" d="M63.9,228.8c-9,7.8-21.3,0.2-21.3,0.2c0.8,10.1-8.8,13.8-15.2,6.1"/>
            <path class="tRNA-wrinkle-style2" d="M53.3,308.3c-3.1,0-6.2-1.1-8.7-3.2c-6.1-5.4-6.2-14.9-0.3-25.9c-0.8-0.3-1.7-0.6-2.6-0.9
               c-4.7,15.9-13.7,21.6-20.7,21.6c0,0,0,0-0.1,0c-5.4,0-9.7-3.4-10.9-8.5c-0.9-3.6-1.8-16.3,22.3-29.6c-0.6-2.2-1.7-5.1-2.8-8.1
               c-1.9-5.2-3.8-10.6-4.1-14.1c-0.2-2.2-0.7-3.9-1.4-4.7C8.9,218.4,2.9,197.7,5.8,171.8c0.6-5.8,2.3-12,4.9-17.9
               c2-4.5,2.1-7.7,0.4-11c-4.4-8.7-4.3-17.8,0.4-27.9l-0.6-1.2c-0.9-1.7-1.7-3.3-2.6-5c-10.3-20-10.6-38.1-1-55.4
               c0.7-16.1,6.5-27,17.2-32.7c-0.4-3.1,0.6-7.4,2.8-11c2.2-3.7,7.7-9.8,19-9.8c8,0,13.8,2,17.4,5.9c2.9,3.1,4.2,7.4,4.1,12.7
               c23.8,5.9,42,37.8,47.5,59.3c1.6,6.2,3.5,17-0.7,22c2.3,18.8-3.2,36.3-16.7,53.5c10.8,18.1,3.9,50.2-4,59.9
               c-5.4,6.7-6,9.2-5.4,15.6c1,10.4-4.7,25.7-8.6,33.9c7.9,5.1,13.6,10.6,16.9,16.3c3.1,5.3,3.9,10.8,2.4,15.4
               c-1.9,5.9-7.4,9.4-13.6,8.9c-7.5-0.7-16.4-7.7-19.8-25.3c-1,0.4-2.1,0.9-3.1,1.2c5.6,11.3,5.3,21-1.1,26.1
               C59.2,307.3,56.3,308.3,53.3,308.3z M40.3,273.2c0.3,0,0.5,0,0.7,0.1l0.8,0.3c1.7,0.6,4.8,1.7,6.2,1.9c0.8,0.1,1.4,0.6,1.7,1.3
               c0.3,0.7,0.3,1.5-0.1,2.1c-9.1,14.9-3.9,21.2-2.1,22.8c3.1,2.7,7.9,2.8,11.1,0.2c1.9-1.5,7.3-7.6-1.3-22.9c-0.3-0.6-0.4-1.3-0.1-2
               c0.3-0.6,0.8-1.1,1.5-1.3c2.6-0.7,6.4-2.2,7.2-2.9c0.6-0.5,1.5-0.6,2.2-0.3c0.8,0.3,1.3,1,1.4,1.8c2.5,17.3,10,24,16.3,24.6
               c4.1,0.4,7.7-2,9-5.8c2.1-6.4-1.8-16.9-19.1-27.5c-1-0.6-1.4-1.9-0.8-2.9c4.1-8.2,9.9-23.7,9-33.2c-0.7-7.3,0.1-11.1,6.4-18.8
               c7.5-9.2,13.4-40.3,2.9-56c-0.5-0.8-0.5-1.9,0.1-2.7c13.7-16.9,19.1-34.1,16.6-52.4c-0.1-0.8,0.2-1.5,0.8-2
               c1.9-1.5,3-7.3,0.2-18.4c-3-11.7-9.3-24.7-16.9-34.9C87.8,35.6,77.6,24.9,65,22.6c-1.1-0.2-1.9-1.2-1.8-2.4
               c0.4-4.9-0.5-8.7-2.9-11.2c-2.7-3-7.5-4.5-14.1-4.5c-8.6,0-13,4.2-15.1,7.7c-2.5,4.1-2.4,8-2,8.8c0.3,0.5,0.3,1.2,0.1,1.8
               C29,23.3,28.5,23.8,28,24c-10.4,4.7-15.7,14.5-16.3,30.1c0,0.4-0.1,0.7-0.3,1c-9.1,16-8.8,32.9,0.8,51.7c0.9,1.7,1.7,3.4,2.6,5
               l1.1,2.2c0.3,0.6,0.3,1.4,0,2c-4.5,9.3-4.8,17.2-0.9,24.9c2.9,5.8,1.4,10.9-0.3,14.8c-2.4,5.4-3.9,11.2-4.5,16.6
               c-2.7,24.6,2.9,44.1,17.2,59.7c1.4,1.5,2.3,4,2.6,7.3c0.3,2.9,2.2,8.3,3.9,13c1.5,4,2.8,7.8,3.3,10.4c0.2,1-0.3,1.9-1.2,2.4
               c-11.3,6-23.8,16.2-21.6,25.4c0.8,3.1,3.3,5,6.6,5.1c0,0,0,0,0,0c5.4,0,13.1-5.4,17-20.6c0.2-0.6,0.6-1.1,1.1-1.4
               C39.6,273.2,40,273.2,40.3,273.2z"/>
         </g>
      </g>
      <g id="tRNABody_f6">
         <path id="Body_6" class="tRNA-body-style" d="M75.2,20.4c33.8,6.3,48,69.7,37,78.7c2.9,20.9-4.4,38.5-17,54.1c11.2,16.6,4.9,48.9-3,58.7
            c-5.9,7.2-6.5,10.4-5.9,17.2c1,10.1-4.9,26-9.2,34.5c48.3,29.7-2.2,61.5-9.5,11.1c-1.3,1.1-5.8,2.7-8,3.3
            c21.3,38.1-34.3,37-11.6-0.2c-1.9-0.3-5.8-1.7-7.5-2.3C29,319.4-14.1,289,35,263c-1.1-5.6-6.8-17.9-7.3-23.6c-0.2-2.1-0.7-4.6-2-6
            C9.7,215.9,5.5,194.8,8,172c0.6-5.9,2.4-11.8,4.7-17.2c2-4.6,2.5-8.6,0.3-12.9c-4.6-9.1-3.5-17.9,0.9-26.9
            c-1.2-2.3-2.5-4.8-3.7-7.2c-9.6-18.6-6.4-36.4,3.5-53.8c0.7-20.2,15-28.4,23.2-32.1c-2-3.8,1.6-19.7,19.1-19.7
            C69,2.2,76.3,7.8,75.2,20.4z"/>
         <g id="Shadow_6">
            <path class="tRNA-shadow-style" d="M36.9,15.4c-2,9-2.7,24.8,6.8,30.6c-6.9,15.9,8,33.3,0.7,33C38.8,78.8,23.5,65.4,31.2,50
               c-17.4,14.4,9.3,50.6,6.2,56.6c-9.7,8-23.5-21.7-16.1-43.3c-19,28.2,6.6,44.4,0.2,47c-13.3,5.4-6.5,5-7.3,6.3
               c-4.2,7.3-0.2,17.3,6.9,32.8c-10.6,20.3-3.8,45.9-1.9,53.6c1.8,7.2,21.7,33.4,7.8,32.9c0.1,8.7,7,27.5,7,27.6
               c-2.2,1.2-31.6,19.2-21,31.5c9.3,10.7,26.8-12.2,31.2-17.9c0,7.3-7.6,30.1,8.1,29.8c19.9,0.1,11.6-25.6,11.9-30
               c13.1,32.3,26.5,25.6,32.3,20.6c2.7-2.4,6.9-18.5-19.2-34.9c0.1-0.2-1.1-34.7-1.6-40.8c-0.3-3.9,5.2-10,2.1-22.4
               c-4.9-19.4-18.9-23.9-12.5-23.7c16.1-1.3,30.1-14.5,30.2-20.2c-2.6,2.1-15.3,10.8-20.1,11.4c-0.9-3.4-2.8-4.5-6.3-3.7
               c0.1-0.2,18.4-9.1,17.6-31.9c4.5-3.2,12.3-10.1,12.7-15.7c9.3-5.7,11.3-11.7,12.7-16.1c2.1-4.5,6-7.7,3-18.3
               c-7.5,9.5-24.8,27.4-34.2,24.1c-5-1.9,23-51.7,7.7-57.9c-1.3,2.6-13.8,31-17.4,34.5c6-13.1-0.9-25-3-36.8
               c10.3-4.3,6.7-21,6.8-31.1C74.4,20.1,48.5,34.8,36.9,15.4z M28.6,285.3c-2.9,4.6-6.2,6.2-8.5,4.1c-2-1.8-1.1-4.5,1.7-8.3
               c2.8-3.8,7.3-6.3,8.9-5.2C32.3,276.9,31.6,280.6,28.6,285.3z M19.8,128.9c3.5,4.3,16.2,8,16.2,8s9,13.6,6.2,16.2
               c-2.4,1.3-11.4-4.1-17-10.1C22,139.5,18.1,135.6,19.8,128.9z M57.1,291.6c-0.3,3.1-0.7,6.9-3.8,6.9c-3.1,0.1-4.1-5.5-3.6-8.3
               c0.6-2.8,0.9-7.7,3.7-7.8C56.1,282.2,57.4,288.4,57.1,291.6z M53.4,269c-9.6,0.8-8.4-13.2-10.6-23.8c10.5,1.2,10.9-6.1,10.9-6.1
               c6,6.6,12.4-0.6,12.4-0.6S66.5,267.8,53.4,269z M79.7,276.6c3.6-1.5,5.4,1.3,8,4.7c2.7,3.4,2.7,10,1,11.5s-5.6-1.5-8.9-5
               C76.6,284.2,76.5,277.9,79.7,276.6z M50.2,201.9c10.8,2.2,13.6-7.1,13.6-7.1s8.6,29.1-13.1,27.6S29,172.6,29,172.6
               S39.4,199.6,50.2,201.9z"/>
         </g>
         <g id="Wrinkles_6">
            <path class="tRNA-wrinkle-style1" d="M69.9,31.2c-10,21.5-33.1,4.9-33.1-9.2"/>
            <path class="tRNA-wrinkle-style1" d="M95.1,153.2c-6.1,12.6-41,25.9-66.5-2.1"/>
            <path class="tRNA-wrinkle-style1" d="M113.3,67.9c11.4,45.2-41,48.3-64.6,46.3c-23.7-2-35.1-29.2-27.8-49.8c-25.2,22.7-5.8,66.1,23.9,65.3
               c10.6,14.2,44.1,8.6,54.7-12.7"/>
            <path class="tRNA-wrinkle-style1" d="M45,230.1c-17.6-6.8-27.8-43.2-27.2-64.3"/>
            <path class="tRNA-wrinkle-style1" d="M88.4,48.5c12.7,20.7-10,36-31.5,36c-14,0-35.5-19.6-26-33.6"/>
            <path class="tRNA-wrinkle-style1" d="M50.5,193.1c-3.3-2.8-15.1-24.3-14.1-34.9"/>
            <path class="tRNA-wrinkle-style1" d="M63.9,228.8c-9,7.8-21.3,0.2-21.3,0.2c0.8,10.1-8.8,13.8-15.2,6.1"/>
            <path class="tRNA-wrinkle-style2" d="M53.3,308.3c-3.1,0-6.2-1.1-8.7-3.2c-6.1-5.4-6.2-14.9-0.3-25.9c-0.8-0.3-1.7-0.6-2.6-0.9
               c-4.7,15.9-13.7,21.6-20.7,21.6c0,0,0,0-0.1,0c-5.4,0-9.7-3.4-10.9-8.5c-0.9-3.6-1.8-16.3,22.3-29.6c-0.6-2.2-1.7-5.1-2.8-8.1
               c-1.9-5.2-3.8-10.6-4.1-14.1c-0.2-2.2-0.7-3.9-1.4-4.7C8.9,218.4,2.9,197.7,5.8,171.8c0.6-5.8,2.3-12,4.9-17.9
               c2-4.5,2.1-7.7,0.4-11c-4.4-8.7-4.3-17.8,0.4-27.9l-0.6-1.2c-0.9-1.7-1.7-3.3-2.6-5c-8.9-17.4-7.9-35.5,3.2-55.4
               c0.4-9.2,3.6-16.9,9.4-23.1c4.4-4.7,9.5-7.7,13.4-9.5c-0.4-3.1,0.6-7.4,2.8-10.9C39.2,6.1,44.7,0,56,0c8,0,13.8,2,17.4,5.9
               c2.9,3.1,4.2,7.4,4.1,12.7c8.8,2.2,17,8.3,23.9,17.8c6,8.3,11,19.2,13.9,30.7c3,11.7,4.4,26.9-0.9,32.9
               c2.3,18.7-3.2,36.3-16.7,53.5c10.8,18.1,3.9,50.2-4,59.9c-5.4,6.7-6,9.2-5.4,15.6c1,10.4-4.7,25.7-8.6,33.9
               c7.9,5.1,13.6,10.6,16.9,16.3c3.1,5.3,3.9,10.8,2.4,15.4c-1.9,5.9-7.4,9.4-13.6,8.9c-7.5-0.7-16.4-7.7-19.8-25.3
               c-1,0.4-2.1,0.9-3.1,1.2c5.6,11.3,5.3,21-1.1,26.1C59.2,307.3,56.3,308.3,53.3,308.3z M40.3,273.2c0.3,0,0.5,0,0.7,0.1l0.8,0.3
               c1.7,0.6,4.8,1.7,6.2,1.9c0.8,0.1,1.4,0.6,1.7,1.3c0.3,0.7,0.3,1.5-0.1,2.1c-9.1,14.9-3.9,21.2-2.1,22.8c3.1,2.7,7.9,2.8,11.1,0.2
               c1.9-1.5,7.3-7.6-1.3-22.9c-0.3-0.6-0.4-1.3-0.1-2c0.3-0.6,0.8-1.1,1.5-1.3c2.6-0.7,6.4-2.2,7.2-2.9c0.6-0.5,1.5-0.6,2.2-0.3
               c0.8,0.3,1.3,1,1.4,1.8c2.5,17.3,10,24,16.3,24.6c4.1,0.4,7.7-2,9-5.8c2.1-6.4-1.8-16.9-19.1-27.5c-1-0.6-1.4-1.9-0.8-2.9
               c4.1-8.2,9.9-23.7,9-33.2c-0.7-7.3,0.1-11.1,6.4-18.8c7.5-9.2,13.4-40.3,2.9-56c-0.5-0.8-0.5-1.9,0.1-2.7
               c13.7-16.9,19.1-34.1,16.6-52.4c-0.1-0.8,0.2-1.5,0.8-2c3.1-2.6,4.3-13.7,0.3-29.2c-4.8-18.8-17.2-42.1-36.3-45.6
               c-1.1-0.2-1.9-1.2-1.8-2.4c0.4-4.9-0.5-8.7-2.9-11.2C67.4,6,62.6,4.5,56,4.5c-8.6,0-13,4.2-15.1,7.7c-2.5,4.1-2.4,8-2,8.8
               c0.3,0.5,0.3,1.2,0.1,1.8c-0.2,0.6-0.6,1.1-1.2,1.3c-14.2,6.4-21.4,16.3-21.9,30.1c0,0.4-0.1,0.7-0.3,1
               C4.9,74.1,3.8,90.5,12.2,106.8c0.9,1.7,1.7,3.4,2.6,5l1.1,2.2c0.3,0.6,0.3,1.4,0,2c-4.5,9.3-4.8,17.2-0.9,24.9
               c2.9,5.8,1.4,10.9-0.3,14.8c-2.4,5.4-3.9,11.2-4.5,16.6c-2.7,24.6,2.9,44.1,17.2,59.7c1.4,1.5,2.3,4,2.6,7.3
               c0.3,2.9,2.2,8.3,3.9,13c1.5,4,2.8,7.8,3.3,10.4c0.2,1-0.3,1.9-1.2,2.4c-11.3,6-23.8,16.2-21.6,25.4c0.8,3.1,3.3,5,6.6,5.1
               c0,0,0,0,0,0c5.4,0,13.1-5.4,17-20.6c0.2-0.6,0.6-1.1,1.1-1.4C39.6,273.2,40,273.2,40.3,273.2z"/>
         </g>
      </g>
      <g id="tRNABody_f5">
         <path id="Body_5" class="tRNA-body-style" d="M74.1,13.1c4.3-8.1,25.4-17.2,38-1.1c8.1,11.3-0.5,21.8-0.5,29.4c0,8.1,14.2,34.3,1.8,67.2
            c-1.6,21.5-8,32.5-18.3,44.6c11.2,16.6,4.9,48.9-3,58.7c-5.9,7.2-6.5,10.4-5.9,17.2c1,10.1-4.9,26-9.2,34.5
            c48.3,29.7-2.2,61.5-9.5,11.1c-1.3,1.1-5.8,2.7-8,3.3c21.3,38.1-34.3,37-11.6-0.2c-1.9-0.3-5.8-1.7-7.5-2.3
            c-11.3,44-54.4,13.6-5.3-12.4c-1.1-5.6-6.8-17.9-7.3-23.6c-0.2-2.1-0.7-4.6-2-6C9.6,215.8,5.4,194.8,7.9,171.9
            c0.6-5.9,2.4-11.8,4.7-17.2c2-4.6,2.5-8.6,0.3-12.9c-4.6-9.1-3.5-17.9,0.9-26.9c-1.2-2.3-2.5-4.8-3.7-7.2
            C0.5,89.1,3.7,71.4,13.6,54c4.1-7.2,9.1-13.4,14.8-18.6c4.6-12.8,9.9-15.9,20.8-20.6C55.8,12.8,63.7,11.6,74.1,13.1z"/>
         <g id="Shadow_5">
            <path class="tRNA-shadow-style" d="M70.9,22.3c-2.5,9,5.4,21.7,14,24.6c5.4,16.2-9.4,30-18.5,29.7c-7-0.2-23.8-17.9-24.6-22.2
               c-4.5,7.8-3.3,20.4,6,30.2c3.4,2.8,8.8,8,3.4,9.1C37.5,94,33.2,73.1,31,61C14.7,77,28.8,98.7,20.7,101.3
               C4.1,106.7,0.6,77.9,11,60.7c-5.4-1.5,11.7-12.4,7.4-14.6C2.2,58.9-2.1,97.8,12.5,115c-4.2,7.3-5.7,18.5,1.4,34
               c-10.6,20.3-8.4,44.8-6.4,52.5c1.8,7.2,10.9,24.5,19.6,34.4c0.1,8.7,7,27.5,7,27.6c-2.2,1.2-31.6,19.2-21,31.5
               c9.3,10.7,26.8-12.2,31.2-17.9c0,7.3-7.6,30.1,8.1,29.8c19.9,0.1,11.6-25.6,11.9-30c13.1,32.3,26.5,25.6,32.3,20.6
               c2.7-2.4,6.9-18.5-19.2-34.9c0.1-0.2,1.8-12,1.2-18.1c-0.9-9.9-12.4-20.6-11-22.7c8.7-13.4,11.7-29.2,11.9-34.9
               c0.7-18.9,0.4-25.4-8.7-23.7c0.1-0.2,17.5-12.5,16.6-35.3c10.5,0.2,22.5-8.6,25.6-16.1c-7.7,3.7-15.9,5.6-17.7,6.2
               c10.9-9.4,6.5-21.9,1.7-23.5c9.3-1.3,21.3-9.9,19.6-20.9c-1.7,2.6-6.3,6.2-10.8,9.7c7.5-13.1,1.1-24.8-1.5-36.6
               c7.8-2.1,11.7-13.4,11.8-23.5C115.2,29.1,85.5,41.7,70.9,22.3z M28.6,285.3c-2.9,4.6-6.2,6.2-8.5,4.1c-2-1.8-1.1-4.5,1.7-8.3
               c2.8-3.8,7.3-6.3,8.9-5.2C32.3,276.9,31.6,280.6,28.6,285.3z M13,128.3c5,4.4,6.4,1.2,6.4,1.2s0.9,6.2,1.7,11.1
               c1.3,5.6,9.7,17.9-3.9,4.9C11.8,139.9,13,128.3,13,128.3z M9.2,185.2c-0.4-27,6.3-31.2,6.3-31.2s-0.1,2.3,3.3,3.8
               c3.2,1.4,4.3,1.7,4.3,1.7s-6.9,23.1-4.5,38.4c2.4,15.3,10.4,27.7,6.8,28.2S9.6,212.3,9.2,185.2z M57.1,291.6
               c-0.3,3.1-0.7,6.9-3.8,6.9c-3.1,0.1-4.1-5.5-3.6-8.3c0.6-2.8,0.9-7.7,3.7-7.8C56.1,282.2,57.4,288.4,57.1,291.6z M51,269
               c-11.9,0.8-10.5-13.2-13.3-23.8c13.2,1.2,13.6-6.1,13.6-6.1c7.6,6.6,15.5-0.6,15.5-0.6S67.4,267.8,51,269z M79.7,276.6
               c3.6-1.5,5.4,1.3,8,4.7c2.7,3.4,2.7,10,1,11.5s-5.6-1.5-8.9-5C76.6,284.2,76.5,277.9,79.7,276.6z M39.6,193.1
               c3.1,15.4,22.1,29.2,12.7,26.6c-4.2-1.2-24.2-23.6-24.9-53.8c3.8,4.8,9.4,2.4,9.4,2.4S37.1,180.4,39.6,193.1z M53.4,156
               c-6.1,1.7-25.7-17.8-22.8-33c0.4-1.9,0-5.7,4.1-8c9.2-5.3,13.4,4.9,20.7,4.3C68.7,145,59.4,154.3,53.4,156z"/>
         </g>
         <g id="Wrinkles_5">
            <path class="tRNA-wrinkle-style1" d="M114.8,54c14.6,44.6-65.4,44.6-72.1,2.3"/>
            <path class="tRNA-wrinkle-style1" d="M111.6,41.4C88.9,61.5,60,33.8,74.1,13.1"/>
            <path class="tRNA-wrinkle-style1" d="M95,153.2c-11.9,12.9-59.2,21.2-69.6-21.3"/>
            <path class="tRNA-wrinkle-style1" d="M30.5,109.3C23.1,122,15.4,114.3,9,98.4c-7.6-18.7-3.7-43.8,13.7-42"/>
            <path class="tRNA-wrinkle-style1" d="M72.4,228.8c-9,7.8-25.4-5.1-25.4-5.1c-1.7,12.3-15,17.4-21.3,9.7"/>
            <path class="tRNA-wrinkle-style1" d="M33.5,86c6.8,37.1,65.8,41,79.9,22.6"/>
            <path class="tRNA-wrinkle-style1" d="M47,223.7c-13-13.8-25.2-35.3-25.8-57.9"/>
            <path class="tRNA-wrinkle-style1" d="M46,178.6c-3.3-2.8-7.8-12.8-6.8-23.3"/>
            <path class="tRNA-wrinkle-style2" d="M53.2,308.2c-3.1,0-6.2-1.1-8.7-3.2c-6.1-5.4-6.2-14.9-0.3-25.9c-0.8-0.3-1.7-0.6-2.6-0.9
               c-4.7,15.9-13.7,21.6-20.7,21.6c0,0,0,0-0.1,0c-5.4,0-9.7-3.4-10.9-8.5c-0.9-3.6-1.8-16.3,22.3-29.6c-0.6-2.2-1.7-5.1-2.8-8.1
               c-1.9-5.2-3.8-10.6-4.1-14.1c-0.2-2.2-0.7-3.9-1.4-4.7C8.8,218.3,2.8,197.6,5.7,171.7c0.6-5.8,2.3-12,4.9-17.9
               c2-4.5,2.1-7.7,0.4-11c-4.4-8.7-4.3-17.8,0.4-27.9l-0.7-1.3c-0.8-1.6-1.7-3.2-2.5-4.9c-9-17.5-7.9-35.8,3.5-55.9
               c4-7.1,9-13.4,14.9-18.8c4.7-12.8,10.3-16.4,21.8-21.3c0.1,0,0.2-0.1,0.2-0.1c7.9-2.4,15.7-3.1,24.4-2c3.5-5,11.3-9,18.9-9.7
               c8.7-0.8,16.5,2.6,22,9.6c0,0,0,0,0.1,0.1c6.2,8.7,3.6,16.9,1.6,23.5c-0.8,2.7-1.6,5.2-1.6,7.2c0,1.7,0.9,4.8,1.9,8.4
               c1.7,6.2,4.1,14.7,4.8,24.8c0.8,11.9-0.8,23.5-4.9,34.5c-1.6,20.8-7.7,32.3-17.8,44.3c10.7,18.2,3.9,50.2-4,59.9
               c-5.4,6.7-6,9.2-5.4,15.6c1,10.4-4.7,25.7-8.6,33.9c7.9,5.1,13.6,10.6,16.9,16.3c3.1,5.3,3.9,10.8,2.4,15.4
               c-1.9,5.9-7.4,9.4-13.6,8.9c-7.5-0.7-16.4-7.7-19.8-25.3c-1,0.4-2.1,0.9-3.1,1.2c5.6,11.3,5.3,21-1.1,26.1
               C59.1,307.3,56.2,308.2,53.2,308.2z M40.2,273.1c0.3,0,0.5,0,0.7,0.1l0.8,0.3c1.7,0.6,4.8,1.7,6.2,1.9c0.8,0.1,1.4,0.6,1.7,1.3
               c0.3,0.7,0.3,1.5-0.1,2.1c-9.1,14.9-3.9,21.2-2.1,22.8c3.1,2.7,7.9,2.8,11.1,0.2c1.9-1.5,7.3-7.6-1.3-22.9c-0.3-0.6-0.4-1.3-0.1-2
               c0.3-0.6,0.8-1.1,1.5-1.3c2.6-0.7,6.4-2.2,7.2-2.9c0.6-0.5,1.5-0.6,2.2-0.3c0.8,0.3,1.3,1,1.4,1.8c2.5,17.3,10,24,16.3,24.6
               c4.1,0.4,7.7-2,9-5.8c2.1-6.4-1.8-16.9-19.1-27.5c-1-0.6-1.4-1.9-0.8-2.9c4.1-8.2,9.9-23.7,9-33.2c-0.7-7.3,0.1-11.1,6.4-18.8
               c7.5-9.2,13.4-40.3,2.9-56c-0.6-0.8-0.5-1.9,0.2-2.7c10.4-12.2,16.3-22.7,17.8-43.3c0-0.2,0.1-0.4,0.1-0.6
               c9.2-24.2,3.5-44.6,0.1-56.8c-1.2-4.2-2-7.3-2-9.6c0-2.7,0.9-5.6,1.8-8.6c2-6.2,4-12.6-0.9-19.5c-5.8-7.3-13-8.4-18-7.9
               c-5.9,0.5-13.7,4-16.2,8.7c-0.4,0.8-1.4,1.3-2.3,1.2C65.2,14.1,57.6,14.6,50,17c-10.8,4.6-15.2,7.5-19.4,19.2
               c-0.1,0.3-0.3,0.7-0.6,0.9c-5.7,5.1-10.5,11.2-14.4,18C4.8,74,3.7,90.4,12.1,106.7c0.8,1.6,1.7,3.3,2.5,4.9l1.2,2.3
               c0.3,0.6,0.3,1.4,0,2c-4.5,9.3-4.8,17.2-0.9,24.9c2.9,5.8,1.4,10.9-0.3,14.8c-2.4,5.4-3.9,11.2-4.5,16.6
               c-2.7,24.6,2.9,44.1,17.2,59.7c1.4,1.5,2.3,4,2.6,7.3c0.3,2.9,2.2,8.3,3.9,13c1.5,4,2.8,7.8,3.3,10.4c0.2,1-0.3,1.9-1.2,2.4
               c-11.3,6-23.8,16.2-21.6,25.4c0.8,3.1,3.3,5,6.6,5.1c0,0,0,0,0,0c5.4,0,13.1-5.4,17-20.6c0.2-0.6,0.6-1.1,1.1-1.4
               C39.5,273.2,39.9,273.1,40.2,273.1z"/>
         </g>
      </g>
      <g id="tRNABody_f4">
         <path id="Body_4" class="tRNA-body-style" d="M76.2,16.9c6.8-3.5,10.7-6.3,32.9-2.5c4.3-8.1,25.4-17.2,38-1.1c8.1,11.3,1.4,28.1-7.8,29.4
            c6.4,6.7,3.3,27.4-3.7,30.5c-3.1,11.8-7.7,21.8-12.1,21.8c-3,11.1-3.9,13-10.2,13.4c-1.6,21.5-8,32.5-18.3,44.6
            c11.2,16.6,4.9,48.9-3,58.7c-5.9,7.2-6.5,10.4-5.9,17.2c1,10.1-4.9,26-9.2,34.5c48.3,29.7-2.2,61.5-9.5,11.1
            c-1.3,1.1-5.8,2.7-8,3.3c21.3,38.1-34.3,37-11.6-0.2c-1.9-0.3-5.8-1.7-7.5-2.3c-11.3,44-54.4,13.6-5.3-12.4
            c-1.1-5.6-6.8-17.9-7.3-23.6c-0.2-2.1-0.7-4.6-2-6C9.6,215.8,5.4,194.8,7.9,171.9c0.6-5.9,2.4-11.8,4.7-17.2
            c2-4.6,2.5-8.6,0.3-12.9c-4.6-9.1-3.5-17.9,0.9-26.9c-1.2-2.3-2.5-4.8-3.7-7.2C0.5,89.1,3.7,71.4,13.6,54
            c4.1-7.2,9.1-13.4,14.8-18.6c4.6-12.8,9.9-15.9,20.8-20.6C60.6,9.9,70.1,10.7,76.2,16.9z"/>
         <g id="Shadow_4">
            <path class="tRNA-shadow-style" d="M108.1,24c-3,9-0.9,20.9,9.1,23.9c-1.6,6.7-2.2,27.9-15.3,29c-11.7,0.3-13.4-3.8-19-11.5
               c-6.5-8.8-7.7-21.5-9-24.9C65.4,53,64.9,70.2,75.8,80c-0.4,3.3-0.9,10.9-7.3,12.1c-7.2,0.8-20.1-4.1-22-34.9
               c-19.2,16.1,2,47.2-13.4,49.8c-27.6,4.8-13.6-40.5-10.3-46.4C16.4,59.2,10.2,73.5,9,84.8c-1.3,12.8,6.1,22.1,3.8,21.4
               C9.5,104.4,5.3,91,6.6,78.4c1.6-14.9,16.1-30,11.8-32.3C2.2,58.9-2.1,97.8,12.5,115c-4.2,7.3-5.7,18.5,1.4,34
               c-10.6,20.3-8.4,44.8-6.4,52.5c1.8,7.2,10.9,24.5,19.6,34.4c0.1,8.7,7,27.5,7,27.6c-2.2,1.2-31.6,19.2-21,31.5
               c9.3,10.7,26.8-12.2,31.2-17.9c0,7.3-7.6,30.1,8.1,29.8c19.9,0.1,11.6-25.6,11.9-30c13.1,32.3,26.5,25.6,32.3,20.6
               c2.7-2.4,6.9-18.5-19.2-34.9c0.1-0.2,5.1-14.2,6.5-18.1c3.4-9.3-6.7-20.6-5.1-22.7c10.2-13.4,13.8-29.2,14-34.9
               c0.8-18.9-0.9-31.5-10.3-25.4c0.3-0.5,13.4-19,15.5-30.6c1.7-9.4,1-19.3,0.9-20.9c11.9,0.8,11.3-6.5,14.2-15.5
               c8.5-1.4,10.6-6.9,10.5-11.2c8.8-13.1,10.5-25.5,9.9-38.1c8.1-1.3,11-3.6,12.9-6.3c3.6-5.1,4.7-10.4,4.9-20.5
               C150.3,24.3,125.3,43.4,108.1,24z M28.6,285.3c-2.9,4.6-6.2,6.2-8.5,4.1c-2-1.8-1.1-4.5,1.7-8.3c2.8-3.8,7.3-6.3,8.9-5.2
               C32.3,276.9,31.6,280.6,28.6,285.3z M14.6,128.3c5.8,4.4,11.8,1.2,11.8,1.2s1,6.2,2,11.1c1.5,5.6,7.1,17.9-8.9,4.9
               C13.2,139.9,14.6,128.3,14.6,128.3z M10.1,185.2c-0.5-27,7.4-31.2,7.4-31.2s-0.2,2.3,3.9,3.8c3.8,1.4,5.1,1.7,5.1,1.7
               s-8.1,23.1-5.2,38.4c2.8,15.3,12.2,27.7,8,28.2S10.6,212.3,10.1,185.2z M57.1,291.6c-0.3,3.1-0.7,6.9-3.8,6.9
               c-3.1,0.1-4.1-5.5-3.6-8.3c0.6-2.8,0.9-7.7,3.7-7.8C56.1,282.2,57.4,288.4,57.1,291.6z M56.1,269c-11.9,0.8-15.7-13.2-18.4-23.8
               c13.2,1.2,18.8-6.1,18.8-6.1c7.6,6.6,20.3-0.6,20.3-0.6S72.5,267.8,56.1,269z M79.7,276.6c3.6-1.5,5.4,1.3,8,4.7
               c2.7,3.4,2.7,10,1,11.5s-5.6-1.5-8.9-5C76.6,284.2,76.5,277.9,79.7,276.6z M57.2,193.1c3.6,15.4,15,28,3.6,26.6
               c-11.8-1.5-22.2-23.6-23-53.8c4.5,4.8,16.1,2.4,16.1,2.4S54.2,180.4,57.2,193.1z M50.8,151c-7.2,1.7-11.6-6.9-11.9-20.9
               c5.4,2.2,6.3,3.4,11.1,1c10.8-5.3,13.2-10.5,14-16.7C65.6,139.7,57.9,149.3,50.8,151z M44.4,19.1c0,0-9.9,10.1-11.2,18.2
               c-1.4,1-7.7,6,0.6,10.9c0.4,1-8.9,5.8-9.8-7.7c4.5-5.1,9-19,17.5-22.8C42.7,18.5,44.4,19.1,44.4,19.1z M77.7,19.1
               c0,0-14.8,10.5-15.9,18.6c-1.2,1-7.1,0.7-6.8,9.4c0.4,1-5.2-9.1,2.1-12.3c3.8-5.1,9.4-15.7,16.7-19.4
               C74.9,16.2,77.7,19.1,77.7,19.1z"/>
         </g>
         <g id="Wrinkles_4">
            <path class="tRNA-wrinkle-style1" d="M135.6,73.3c-26.1,31.1-64.5,2.4-62.5-14"/>
            <path class="tRNA-wrinkle-style1" d="M139.3,42.8c-7.9,3.1-24.8,6.1-27.7-10.2"/>
            <path class="tRNA-wrinkle-style1" d="M57.4,35.3c0,0,4.5-11.2,18.8-18.3"/>
            <path class="tRNA-wrinkle-style1" d="M95,153.2c-11.9,12.9-52.6,21.2-56.4-23.6"/>
            <path class="tRNA-wrinkle-style1" d="M34.7,115.6c-9.9-0.4-21.6-7.2-25.7-17.2c-7.6-18.7,4.7-43.8,22.1-42"/>
            <path class="tRNA-wrinkle-style1" d="M72.4,228.8c-9,7.8-22.6-5.1-22.6-5.1c-1.7,12.3-15.1,17.1-21.5,9.4"/>
            <path class="tRNA-wrinkle-style1" d="M44.8,62.9c-8.9,44.5,55.8,48.7,68.6,45.6"/>
            <path class="tRNA-wrinkle-style1" d="M49.8,223.7c-13-13.8-19-36.3-17.4-57.9"/>
            <path class="tRNA-wrinkle-style2" d="M53.2,308.2c-3.1,0-6.2-1.1-8.7-3.2c-6.1-5.4-6.2-14.9-0.3-25.9c-0.8-0.3-1.7-0.6-2.6-0.9
               c-4.7,15.9-13.7,21.6-20.7,21.6c0,0,0,0-0.1,0c-5.4,0-9.7-3.4-10.9-8.5c-0.9-3.6-1.8-16.3,22.3-29.6c-0.6-2.2-1.7-5.1-2.8-8.1
               c-1.9-5.2-3.8-10.6-4.1-14.1c-0.2-2.2-0.7-3.9-1.4-4.7C8.8,218.3,2.8,197.6,5.7,171.7c0.6-5.8,2.3-12,4.9-17.9
               c2-4.5,2.1-7.7,0.4-11c-4.4-8.7-4.3-17.8,0.4-27.9l-0.7-1.3c-0.8-1.6-1.7-3.2-2.5-4.9c-9-17.5-7.9-35.8,3.5-55.9
               c4-7.1,9-13.4,14.9-18.8c4.7-12.8,10.3-16.4,21.8-21.3c11.6-5,21.5-4.5,28.3,1.4C82.9,11,87.9,8.7,108,12c3.5-5,11.3-9,18.9-9.7
               c8.7-0.8,16.5,2.6,22,9.6c0,0,0,0,0.1,0.1c5.4,7.6,4.6,16.7,2.1,22.7c-1.9,4.4-4.8,7.6-8.1,9.2c2.7,5.1,2.5,12.6,1.4,18.2
               c-0.6,3-2.4,9.9-6.7,12.6c-4.3,15.7-8.7,21-12.2,22.2c-2.5,9.2-4,12.6-9.9,13.5c-1.7,19.9-7.8,31-17.6,42.8
               c10.7,18.2,3.9,50.2-4,59.9c-5.4,6.7-6,9.2-5.4,15.6c1,10.4-4.7,25.7-8.6,33.9c7.9,5.1,13.6,10.6,16.9,16.3
               c3.1,5.3,3.9,10.8,2.4,15.4c-1.9,5.9-7.4,9.4-13.6,8.9c-7.5-0.7-16.4-7.7-19.8-25.3c-1,0.4-2.1,0.9-3.1,1.2
               c5.6,11.3,5.3,21-1.1,26.1C59.1,307.3,56.2,308.2,53.2,308.2z M40.2,273.1c0.3,0,0.5,0,0.7,0.1l0.8,0.3c1.7,0.6,4.8,1.7,6.2,1.9
               c0.8,0.1,1.4,0.6,1.7,1.3c0.3,0.7,0.3,1.5-0.1,2.1c-9.1,14.9-3.9,21.2-2.1,22.8c3.1,2.7,7.9,2.8,11.1,0.2
               c1.9-1.5,7.3-7.6-1.3-22.9c-0.3-0.6-0.4-1.3-0.1-2c0.3-0.6,0.8-1.1,1.5-1.3c2.6-0.7,6.4-2.2,7.2-2.9c0.6-0.5,1.5-0.6,2.2-0.3
               c0.8,0.3,1.3,1,1.4,1.8c2.5,17.3,10,24,16.3,24.6c4.1,0.4,7.7-2,9-5.8c2.1-6.4-1.8-16.9-19.1-27.5c-1-0.6-1.4-1.9-0.8-2.9
               c4.1-8.2,9.9-23.7,9-33.2c-0.7-7.3,0.1-11.1,6.4-18.8c7.5-9.2,13.4-40.3,2.9-56c-0.6-0.8-0.5-1.9,0.2-2.7
               c10.4-12.2,16.3-22.7,17.8-43.3c0.1-1.1,1-2,2.1-2.1c4.7-0.4,5.2-0.7,8.2-11.8c0.3-1,1.2-1.7,2.2-1.7c1.9,0,6.2-6.3,9.9-20.2
               c0.2-0.7,0.6-1.2,1.3-1.5c2.1-0.9,4.2-4.9,5.2-9.9c1.4-7,0.5-14.2-2.2-17c-0.6-0.6-0.8-1.5-0.5-2.3c0.3-0.8,1-1.4,1.8-1.5
               c3.1-0.4,6.1-3.3,7.9-7.5c2.1-4.9,2.8-12.2-1.6-18.3c-5.8-7.3-13-8.4-18-7.9c-5.9,0.5-13.7,4-16.2,8.7c-0.5,0.9-1.4,1.3-2.4,1.2
               c-20.4-3.5-24.4-1.4-30.5,1.7l-1,0.5c-0.9,0.5-1.9,0.3-2.6-0.4c-3.8-3.9-11.1-7.4-24.5-1.6c-10.8,4.7-15.3,7.5-19.6,19.3
               c-0.1,0.3-0.3,0.7-0.6,0.9c-5.7,5.1-10.5,11.2-14.4,18C4.8,74,3.7,90.4,12.1,106.7c0.8,1.6,1.7,3.3,2.5,4.9l1.2,2.3
               c0.3,0.6,0.3,1.4,0,2c-4.5,9.3-4.8,17.2-0.9,24.9c2.9,5.8,1.4,10.9-0.3,14.8c-2.4,5.4-3.9,11.2-4.5,16.6
               c-2.7,24.6,2.9,44.1,17.2,59.7c1.4,1.5,2.3,4,2.6,7.3c0.3,2.9,2.2,8.3,3.9,13c1.5,4,2.8,7.8,3.3,10.4c0.2,1-0.3,1.9-1.2,2.4
               c-11.3,6-23.8,16.2-21.6,25.4c0.8,3.1,3.3,5,6.6,5.1c0,0,0,0,0,0c5.4,0,13.1-5.4,17-20.6c0.2-0.6,0.6-1.1,1.1-1.4
               C39.5,273.2,39.9,273.1,40.2,273.1z"/>
         </g>
      </g>
      <g id="tRNABody_f3">
         <path id="Body_3" class="tRNA-body-style" d="M92,19.4c6.8-3.5,31.1-19.2,56.2,2.6c5.6-4.3,31.3-21.2,40.4-2.9c5.7,12.7-6.7,27.7-20.2,29.5
            c1.7,15.8-7.6,42.4-29.1,43.3c-5.6,11.2-10.5,16.7-27.2,16.8c-1.6,21.5-6.7,32.5-17.1,44.6c11.2,16.6,4.9,48.9-3,58.7
            c-5.9,7.2-6.5,10.4-5.9,17.2c1,10.1-4.9,26-9.2,34.5c48.3,29.7-2.2,61.5-9.5,11.1c-1.3,1.1-5.8,2.7-8,3.3
            c21.3,38.1-34.3,37-11.6-0.2c-1.9-0.3-5.8-1.7-7.5-2.3c-11.3,44-54.4,13.6-5.3-12.4c-1.1-5.6-6.8-17.9-7.3-23.6
            c-0.2-2.1-0.7-4.6-2-6C9.6,215.8,5.4,194.8,7.9,171.9c0.6-5.9,2.4-11.8,4.7-17.2c2-4.6,2.5-8.6,0.3-12.9
            c-4.6-9.1-3.5-17.9,0.9-26.9c-1.2-2.3-2.5-4.8-3.7-7.2C0.5,89.1,3.7,71.4,13.6,54c4.1-7.2,9.1-13.4,14.8-18.6
            C33,22.6,44.8,14.8,56.5,12.8C68.7,10.7,83.6,10.8,92,19.4z"/>
         <g id="Shadow_3">
            <path class="tRNA-shadow-style" d="M161.4,35.5c-7.5,1-15,7.5-10.5,11.4c-1.9,6.7-7.4,28.9-22.8,30c-13.7,0.3-21.8-2.6-25.7-11.5
               c-3.8-8.7-4.2-21.5-5.7-24.9C86.6,53,85,75.5,97.9,85.3c-0.5,3.3-3.1,10.6-10.7,11.8c-8.5,0.8-28.6-1.4-30.8-32.2
               c-11.8,10.4,4.7,38.8-13.4,41.4c-32.5,4.8-19.6-39.8-15.7-45.6C19.8,59.2,12.4,73.5,11,84.8c-1.6,12.8,7.2,22.1,4.5,21.4
               c-3.9-1.8-8.9-15.2-7.3-27.8c1.9-14.9,14.5-30,10.2-32.3C2.2,58.9-2.1,97.8,12.5,115c-4.2,7.3-5.7,18.5,1.4,34
               c-10.6,20.3-8.4,44.8-6.4,52.5c1.8,7.2,10.9,24.5,19.6,34.4c0.1,8.7,7,27.5,7,27.6c-2.2,1.2-31.6,19.2-21,31.5
               c9.3,10.7,26.8-12.2,31.2-17.9c0,7.3-7.6,30.1,8.1,29.8c19.9,0.1,11.6-25.6,11.9-30c13.1,32.3,26.5,25.6,32.3,20.6
               c2.7-2.4,6.9-18.5-19.2-34.9c0.1-0.2,5.1-14.2,6.5-18.1c3.4-9.3,0.4-21,2.2-23c12-13.4,15.6-27.9,15.9-33.5
               c0.9-18.9-3.9-39.4-11.2-31c0.4-0.5,10.9-20.8,11.9-25.1c2.2-9.4,1.9-21.1,1.8-22.7c14,0.8,30.5-7.7,33.9-16.7
               c10-1.4,10.9-3,13.6-5.9c2.4-2.5,12.9-24.4,12.1-37c6.9,0.8,15.8-3.9,18-6.7c4.2-5.1,8.4-10.6,8.6-20.7
               C189.7,28.3,174.3,40.5,161.4,35.5z M28.6,285.3c-2.9,4.6-6.2,6.2-8.5,4.1c-2-1.8-1.1-4.5,1.7-8.3c2.8-3.8,7.3-6.3,8.9-5.2
               C32.3,276.9,31.6,280.6,28.6,285.3z M17.6,128.3c6.9,4.4,13.9,1.2,13.9,1.2s1.2,6.2,2.4,11.1c1.8,5.6,8.4,17.9-10.5,4.9
               C16,139.9,17.6,128.3,17.6,128.3z M12.4,185.2c-0.6-27,8.7-31.2,8.7-31.2s-0.2,2.3,4.6,3.8c4.4,1.4,6,1.7,6,1.7
               s-9.5,23.1-6.2,38.4c3.3,15.3,14.4,27.7,9.4,28.2S13,212.3,12.4,185.2z M57.1,291.6c-0.3,3.1-0.7,6.9-3.8,6.9
               c-3.1,0.1-4.1-5.5-3.6-8.3c0.6-2.8,0.9-7.7,3.7-7.8C56.1,282.2,57.4,288.4,57.1,291.6z M56.1,269c-11.9,0.8-15.7-13.2-18.4-23.8
               c13.2,1.2,18.8-6.1,18.8-6.1c7.6,6.6,20.3-0.6,20.3-0.6S72.5,267.8,56.1,269z M79.7,276.6c3.6-1.5,5.4,1.3,8,4.7
               c2.7,3.4,2.7,10,1,11.5s-5.6-1.5-8.9-5C76.6,284.2,76.5,277.9,79.7,276.6z M80.6,194.3c-4.9,15.3-10,26.8-23.3,25.3
               c-13.8-1.5-21.3-25.5-12.2-53.8c5.2,4.8,10.9,7,17.9,6.7c7.5-0.3,15.9-6,15.9-6S85.4,179.3,80.6,194.3z M60.2,151
               c-8.5,1.7-13.6-6.9-14.1-20.9c6.4,2.2,7.4,3.4,13.1,1c12.7-5.3,15.5-10.5,16.5-16.7C77.7,139.7,68.5,149.3,60.2,151z M44.4,19.1
               c0,0-9.9,10.1-11.2,18.2c-1.4,1-7.7,6,0.6,10.9c0.4,1-8.9,5.8-9.8-7.7c4.5-5.1,9-19,17.5-22.8C42.7,18.5,44.4,19.1,44.4,19.1z
                M91.9,19.1c0,0-17.4,10.5-18.7,18.6c-1.4,1-8.4,0.7-8,9.4c0.4,1-6.2-9.1,2.4-12.3c4.5-5.1,11.1-15.7,19.6-19.4
               C88.5,16.2,91.9,19.1,91.9,19.1z"/>
         </g>
         <g id="Wrinkles_3">
            <path class="tRNA-wrinkle-style1" d="M139.3,91.8c-22.1,2.8-46.2-16.1-44.2-32.5"/>
            <path class="tRNA-wrinkle-style1" d="M168.4,48.5c-8.9,3-17.5-1.6-17.5-1.6"/>
            <path class="tRNA-wrinkle-style1" d="M73.2,37.7c0,0,4.5-11.2,18.8-18.3"/>
            <path class="tRNA-wrinkle-style1" d="M95,153.2c-11.9,12.9-52.6,21.2-56.4-23.6"/>
            <path class="tRNA-wrinkle-style1" d="M56.5,109.3c-7.4,12.6-32.6,4.9-39.1-10.9c-7.6-18.7,4.7-43.8,22.1-42"/>
            <path class="tRNA-wrinkle-style1" d="M68.2,228.8c-9,7.8-21.2-5.1-21.2-5.1c-1.7,12.3-12.3,17.1-18.7,9.4"/>
            <path class="tRNA-wrinkle-style1" d="M38.6,117.9c-11.3,6.3-12.1,6-22.4-2"/>
            <path class="tRNA-wrinkle-style1" d="M57.5,62.9c-8.9,44.5,41.8,48.7,54.6,45.6"/>
            <path class="tRNA-wrinkle-style1" d="M47,223.7c-13-13.8-15.2-37-11.8-57.9"/>
            <path class="tRNA-wrinkle-style2" d="M53.2,308.2c-3.1,0-6.2-1.1-8.7-3.2c-6.1-5.4-6.2-14.9-0.3-25.9c-0.8-0.3-1.7-0.6-2.6-0.9
               c-4.7,15.9-13.7,21.6-20.7,21.6c0,0,0,0-0.1,0c-5.4,0-9.7-3.4-10.9-8.5c-0.9-3.6-1.8-16.3,22.3-29.6c-0.6-2.2-1.7-5.1-2.8-8.1
               c-1.9-5.2-3.8-10.6-4.1-14.1c-0.2-2.2-0.7-3.9-1.4-4.7C8.8,218.3,2.8,197.6,5.7,171.7c0.6-5.8,2.3-12,4.9-17.9
               c2-4.5,2.1-7.7,0.4-11c-4.4-8.7-4.3-17.8,0.4-27.9l-0.7-1.3c-0.8-1.6-1.7-3.2-2.5-4.9c-9-17.5-7.9-35.8,3.5-55.9
               c4-7.1,9-13.4,14.9-18.8C32,19.6,45.3,12.5,56.1,10.6c9.3-1.6,26.1-2.9,36.2,6.1c0.1,0,0.1-0.1,0.2-0.1
               c8.7-4.7,31.6-17.1,55.7,2.6c4.9-3.4,19.6-12.9,31.3-10.2c4.9,1.1,8.6,4.2,11,9.1c0,0,0,0.1,0,0.1c2.5,5.7,2.1,12.1-1.3,18.2
               c-3.9,7-11,12.3-18.5,14c0.5,9.8-2.7,23.8-11.1,33.5c-5.2,6-11.7,9.5-18.9,10.1c-5.8,11.1-11.4,16.3-26.5,16.8
               c-1.8,20.9-7.4,31.8-16.4,42.6c10.7,18.2,3.9,50.2-4,59.9c-5.4,6.7-6,9.2-5.4,15.6c1,10.4-4.7,25.7-8.6,33.9
               c7.9,5.1,13.6,10.6,16.9,16.3c3.1,5.3,3.9,10.8,2.4,15.4c-1.9,5.9-7.4,9.5-13.6,8.9c-7.5-0.7-16.4-7.7-19.8-25.3
               c-1,0.4-2.1,0.9-3.1,1.2c5.6,11.3,5.3,21-1.1,26.1C59.1,307.3,56.2,308.2,53.2,308.2z M40.2,273.1c0.3,0,0.5,0,0.7,0.1l0.8,0.3
               c1.7,0.6,4.8,1.7,6.2,1.9c0.8,0.1,1.4,0.6,1.7,1.3c0.3,0.7,0.3,1.5-0.1,2.1c-9.1,14.9-3.9,21.2-2.1,22.8c3.1,2.7,7.9,2.8,11.1,0.2
               c1.9-1.5,7.3-7.6-1.3-22.9c-0.3-0.6-0.4-1.3-0.1-2c0.3-0.6,0.8-1.1,1.5-1.3c2.6-0.7,6.4-2.2,7.2-2.9c0.6-0.5,1.5-0.6,2.2-0.3
               c0.8,0.3,1.3,1,1.4,1.8c2.5,17.3,10,24,16.3,24.6c4.1,0.4,7.7-2,9-5.8c2.1-6.4-1.8-16.9-19.1-27.5c-1-0.6-1.4-1.9-0.8-2.9
               c4.1-8.2,9.9-23.7,9-33.2c-0.7-7.3,0.1-11.1,6.4-18.8c7.5-9.2,13.4-40.3,2.9-56c-0.6-0.8-0.5-1.9,0.2-2.7
               c9.5-11.1,14.9-21.3,16.5-43.3c0.1-1.2,1.1-2.1,2.2-2.1c15.7-0.1,19.9-5.1,25.2-15.6c0.4-0.7,1.1-1.2,1.9-1.2
               c6.6-0.3,12.3-3.2,17.1-8.6c7.8-9,10.9-23,9.9-32.2c-0.1-1.2,0.7-2.3,1.9-2.5c6.8-0.9,13.8-5.8,17.3-12.1
               c2.7-4.8,3.1-9.8,1.1-14.1c-1.8-3.7-4.4-5.8-8-6.6c-4.3-1-10.1,0.1-16.7,3.1c-6.4,2.9-11.4,6.6-12.4,7.3c-0.8,0.6-2,0.6-2.8-0.1
               c-22.2-19.3-43.9-7.6-52-3.2c-0.6,0.3-1.2,0.6-1.7,0.9c-0.9,0.4-1.9,0.3-2.6-0.4c-8.5-8.8-24.6-7.5-33.5-6
               c-9.7,1.7-21.7,8.1-26.4,21.1c-0.1,0.3-0.3,0.7-0.6,0.9c-5.7,5.1-10.5,11.2-14.4,18C4.8,74,3.7,90.4,12.1,106.7
               c0.8,1.6,1.7,3.3,2.5,4.9l1.2,2.3c0.3,0.6,0.3,1.4,0,2c-4.5,9.3-4.8,17.2-0.9,24.9c2.9,5.8,1.4,10.9-0.3,14.8
               c-2.4,5.4-3.9,11.2-4.5,16.6c-2.7,24.6,2.9,44.1,17.2,59.7c1.4,1.5,2.3,4,2.6,7.3c0.3,2.9,2.2,8.3,3.9,13c1.5,4,2.8,7.8,3.3,10.4
               c0.2,1-0.3,1.9-1.2,2.4c-11.3,6-23.8,16.2-21.6,25.4c0.8,3.1,3.3,5,6.6,5.1c0,0,0,0,0,0c5.4,0,13.1-5.4,17-20.6
               c0.2-0.6,0.6-1.1,1.1-1.4C39.5,273.2,39.9,273.1,40.2,273.1z"/>
         </g>
      </g>
      <g id="tRNABody_f2">
         <g>
            <path id="Body_2" class="tRNA-body-style" d="M121.4,19.4c6.8-3.5,31.1-19.2,56.2,2.6c5.6-4.3,31.3-21.2,40.4-2.9
               c5.7,12.7-11.2,29.1-24.6,30.9c1.7,15.8-15.7,42.2-34.5,41.8c-5.6,11.2-30,16.8-46.7,16.9c-1.6,21.5-6.7,32.5-17.1,44.6
               c11.2,16.6,4.9,48.9-3,58.7c-5.9,7.2-6.5,10.4-5.9,17.2c1,10.1-4.9,26-9.2,34.5c48.3,29.7-2.2,61.5-9.5,11.1
               c-1.3,1.1-5.8,2.7-8,3.3c21.3,38.1-34.3,37-11.6-0.2c-1.9-0.3-5.8-1.7-7.5-2.3c-11.3,44-54.4,13.6-5.3-12.4
               c-1.1-5.6-6.8-17.9-7.3-23.6c-0.2-2.1-0.7-4.6-2-6C9.6,215.8,5.4,194.8,7.9,171.9c0.6-5.9,2.4-11.8,4.7-17.2
               c2-4.6,2.5-8.6,0.3-12.9c-4.6-9.1-3.5-17.9,0.9-26.9c-1.2-2.3-2.5-4.8-3.7-7.2C0.5,89.1,3.7,71.4,13.6,54
               c10-17.7,32.5-37.8,54-35.3C77.9,1.3,115.7,5.5,121.4,19.4z"/>
         </g>
         <g id="Shadow_2">
            <path class="tRNA-shadow-style" d="M198.3,38c-8.8,1-22.7,4.8-17.4,8.7c-2.2,6.7-8.2,22.8-21.6,26.9c-14.9,4.1-30.1,0.8-34.7-8.1
               c-4.5-8.7,0.3-24.3-1.4-27.7c-11.8,12.5-19,37.8-3.9,47.6c-0.5,3.3-7.9,9.7-16.8,10.9c-10,0.8-18.2,0.6-26-11.8
               c-5.1,16.8-14.2,31.8-29.4,27.6c-22.6-6.3-5.3-47-4-50.2c-8.8-1.5-16.1,11.7-17.7,22.9c-1.8,12.8,1.2,22.2-2,21.5
               C13.9,103.6,12,91,13.8,78.3c2.2-14.9,8.9-30,4.6-32.2C2.2,58.9-2.1,97.8,12.5,115c-4.2,7.3-5.7,18.5,1.4,34
               c-10.6,20.3-8.4,44.8-6.4,52.5c1.8,7.2,10.9,24.5,19.6,34.4c0.1,8.7,7,27.5,7,27.6c-2.2,1.2-31.6,19.2-21,31.5
               c9.3,10.7,26.8-12.2,31.2-17.9c0,7.3-7.6,30.1,8.1,29.8c19.9,0.1,11.6-25.6,11.9-30c13.1,32.3,26.5,25.6,32.3,20.6
               c2.7-2.4,6.9-18.5-19.2-34.9c0.1-0.2,5.1-14.2,6.5-18.1c3.4-9.3,0.4-21,2.2-23c12-13.4,15.6-27.9,15.9-33.5
               c0.9-18.9-3-26.4-5.8-32.7c0.4-0.5,5.8-10.7,6.9-12.7c2.2-3.8,4.8-8.9,6.5-12.9c4.1-9.5,2.5-19.5,2.4-21.2
               c9.3-0.6,17.6-1.3,20.7-2.8c3-1.4,20-6.5,25.2-13.2c11.8-1.4,12.8-3,16-5.9c2.8-2.5,8.4-7,10.6-11.5c-0.6-7.6,4.5-12.9,3.6-25.5
               c8.1,0.8,18.6-3.9,21.2-6.7c5-5.1,9.9-10.6,10.1-20.7C218.3,28.3,206,37.2,198.3,38z M28.6,285.3c-2.9,4.6-6.2,6.2-8.5,4.1
               c-2-1.8-1.1-4.5,1.7-8.3c2.8-3.8,7.3-6.3,8.9-5.2C32.3,276.9,31.6,280.6,28.6,285.3z M15.9,128.3c8.1,4.4,16.4,1.2,16.4,1.2
               s1.4,6.2,2.8,11.1c2.1,5.6,9.8,17.9-12.3,4.9C14,139.9,15.9,128.3,15.9,128.3z M9.7,185.2C9,158.2,19.9,154,19.9,154
               s-0.2,2.3,5.4,3.8c5.2,1.4,12.6,1.7,12.6,1.7s-11.2,23.1-7.3,38.4c3.9,15.3,11.4,27.7,5.5,28.2S10.4,212.3,9.7,185.2z M57.1,291.6
               c-0.3,3.1-0.7,6.9-3.8,6.9c-3.1,0.1-4.1-5.5-3.6-8.3c0.6-2.8,0.9-7.7,3.7-7.8C56.1,282.2,57.4,288.4,57.1,291.6z M56.1,269
               c-11.9,0.8-15.7-13.2-18.4-23.8c13.2,1.2,18.8-6.1,18.8-6.1c7.6,6.6,20.3-0.6,20.3-0.6S72.5,267.8,56.1,269z M79.7,276.6
               c3.6-1.5,5.4,1.3,8,4.7c2.7,3.4,2.7,10,1,11.5s-5.6-1.5-8.9-5C76.6,284.2,76.5,277.9,79.7,276.6z M89.9,194.3
               c-5.7,15.3-11.7,26.8-27.4,25.3c-16.3-1.5-21.8-25.5-11.2-53.8c6.2,4.8,9.7,7,17.9,6.7c8.8-0.3,18.8-6,18.8-6
               S95.6,179.3,89.9,194.3z M74.1,146c-10,1.7-24.2-2-24.7-16c7.5,2.2,16,2.4,22.7,0c15-5.3,20-12.6,21.1-18.8
               C95.6,136.6,83.9,144.4,74.1,146z M68.8,17.8c0,0-10,12.5-6.8,26.1s14.4,11.4,15.4,13.9c1.1,2-20.7,8.9-22.8-18.5
               c-0.5-6.7,1.6-17.6,7.1-21.7C64.8,19.2,65.8,18.6,68.8,17.8z"/>
         </g>
         <g id="Wrinkles_2">
            <path class="tRNA-wrinkle-style1" d="M158.8,91.6c-22.1,2.8-45-13.8-42.9-30.1"/>
            <path class="tRNA-wrinkle-style1" d="M197.8,48.5c-8.9,3-17.5-1.6-17.5-1.6"/>
            <path class="tRNA-wrinkle-style1" d="M102.6,37.7c0,0,4.5-11.2,18.8-18.3"/>
            <path class="tRNA-wrinkle-style1" d="M95,153.2c-10.1,16.1-49.2,13.9-50.8-23.6"/>
            <path class="tRNA-wrinkle-style1" d="M78.9,109.3c-7.4,12.6-43.8,17.5-51.2-6.2C21.1,82,29.2,59,50.2,56.3"/>
            <path class="tRNA-wrinkle-style1" d="M71,228.8c-9,7.8-21.2-5.1-21.2-5.1c-1.7,12.3-15.1,17.1-21.5,9.4"/>
            <path class="tRNA-wrinkle-style1" d="M38.6,117.9c-11.3,6.3-12.1,6-22.4-2"/>
            <path class="tRNA-wrinkle-style1" d="M61.5,33.8c0,0-0.6-7.6,6.1-15.1"/>
            <path class="tRNA-wrinkle-style1" d="M75.1,88.1c1.4,13.8,24.2,23.5,37,20.4"/>
            <path class="tRNA-wrinkle-style1" d="M49.8,223.7c-13-13.8-14.1-39.6-6.2-57.9"/>
            <path class="tRNA-wrinkle-style2" d="M53.2,308.2c-3.1,0-6.2-1.1-8.7-3.2c-6.1-5.4-6.2-14.9-0.3-25.9c-0.8-0.3-1.7-0.6-2.6-0.9
               c-4.7,15.9-13.7,21.6-20.7,21.6c0,0,0,0-0.1,0c-5.4,0-9.7-3.4-10.9-8.5c-0.9-3.6-1.8-16.3,22.3-29.6c-0.6-2.2-1.7-5.1-2.8-8.1
               c-1.9-5.2-3.8-10.6-4.1-14.1c-0.2-2.2-0.7-3.9-1.4-4.7C8.8,218.3,2.8,197.6,5.7,171.7c0.6-5.8,2.3-12,4.9-17.9
               c2-4.5,2.1-7.7,0.4-11c-4.4-8.7-4.3-17.8,0.4-27.9l-0.7-1.3c-0.8-1.6-1.7-3.2-2.5-4.9c-9-17.5-7.9-35.8,3.5-55.9
               c5.5-9.7,14-19.2,23.3-25.9c10.6-7.7,21.5-11.4,31.5-10.6C73,6.9,86.6,4.3,97.5,5.2c11.5,0.9,20.8,5.2,24.8,11.2
               c9-4.8,31.6-16.7,55.4,2.8c4.9-3.4,19.6-12.9,31.3-10.2c4.9,1.1,8.6,4.2,11,9.1c0,0,0,0.1,0,0.1c2.2,4.9,1.7,10.6-1.5,16.3
               c-4.6,8.2-14.1,15.3-22.8,17.3c0.1,9.4-5,21.2-13.3,30.2c-6.8,7.4-14.7,11.6-22.3,11.9c-7.2,11.6-30.9,16.4-45.9,16.9
               c-1.8,20.9-7.4,31.8-16.4,42.6c10.7,18.2,3.9,50.2-4,59.9c-5.4,6.7-6,9.2-5.4,15.6c1,10.4-4.7,25.7-8.6,33.9
               c7.9,5.1,13.6,10.6,16.9,16.3c3.1,5.3,3.9,10.8,2.4,15.4c-1.9,5.9-7.4,9.5-13.6,8.9c-7.5-0.7-16.4-7.7-19.8-25.3
               c-1,0.4-2.1,0.9-3.1,1.2c5.6,11.3,5.3,21-1.1,26.1C59.1,307.3,56.2,308.2,53.2,308.2z M40.2,273.1c0.3,0,0.5,0,0.7,0.1l0.8,0.3
               c1.7,0.6,4.8,1.7,6.2,1.9c0.8,0.1,1.4,0.6,1.7,1.3c0.3,0.7,0.3,1.5-0.1,2.1c-9.1,14.9-3.9,21.2-2.1,22.8c3.1,2.7,7.9,2.8,11.1,0.2
               c1.9-1.5,7.3-7.6-1.3-22.9c-0.3-0.6-0.4-1.3-0.1-2c0.3-0.6,0.8-1.1,1.5-1.3c2.6-0.7,6.4-2.2,7.2-2.9c0.6-0.5,1.5-0.6,2.2-0.3
               c0.8,0.3,1.3,1,1.4,1.8c2.5,17.3,10,24,16.3,24.6c4.1,0.4,7.7-2,9-5.8c2.1-6.4-1.8-16.9-19.1-27.5c-1-0.6-1.4-1.9-0.8-2.9
               c4.1-8.2,9.9-23.7,9-33.2c-0.7-7.3,0.1-11.1,6.4-18.8c7.5-9.2,13.4-40.3,2.9-56c-0.6-0.8-0.5-1.9,0.2-2.7
               c9.5-11.1,14.9-21.3,16.5-43.3c0.1-1.2,1.1-2.1,2.2-2.1c17.7-0.1,39.8-6.1,44.7-15.7c0.4-0.8,1.2-1.2,2-1.2c0.1,0,0.2,0,0.4,0
               c6.6,0,13.7-3.7,19.9-10.5c7.9-8.6,12.9-20.5,12-28.8c-0.1-1.2,0.7-2.3,1.9-2.5c7.9-1.1,17.3-7.8,21.6-15.4
               c1.7-3.1,3.4-7.8,1.4-12.3c-1.8-3.7-4.4-5.8-8-6.6c-4.3-1-10.1,0.1-16.7,3.1c-6.4,2.9-11.4,6.6-12.4,7.3c-0.8,0.6-2,0.6-2.8-0.1
               c-22.2-19.3-43.9-7.6-52-3.2c-0.6,0.3-1.2,0.6-1.7,0.9c-0.6,0.3-1.2,0.3-1.8,0.1c-0.6-0.2-1.1-0.7-1.3-1.3
               c-2.2-5.4-11.3-9.8-22.1-10.6c-15.2-1.2-24.3,4.5-27.7,10.2c-0.5,0.8-1.3,1.2-2.2,1.1c-11.7-1.4-22.6,4.5-29.7,9.7
               c-8.8,6.4-16.8,15.3-22,24.5C4.8,74,3.7,90.4,12.1,106.7c0.8,1.6,1.7,3.3,2.5,4.9l1.2,2.3c0.3,0.6,0.3,1.4,0,2
               c-4.5,9.3-4.8,17.2-0.9,24.9c2.9,5.8,1.4,10.9-0.3,14.8c-2.4,5.4-3.9,11.2-4.5,16.6c-2.7,24.6,2.9,44.1,17.2,59.7
               c1.4,1.5,2.3,4,2.6,7.3c0.3,2.9,2.2,8.3,3.9,13c1.5,4,2.8,7.8,3.3,10.4c0.2,1-0.3,1.9-1.2,2.4c-11.3,6-23.8,16.2-21.6,25.4
               c0.8,3.1,3.3,5,6.6,5.1c0,0,0,0,0,0c5.4,0,13.1-5.4,17-20.6c0.2-0.6,0.6-1.1,1.1-1.4C39.5,273.2,39.9,273.1,40.2,273.1z"/>
         </g>
      </g>
      <g id="tRNABody_f1">
         <path id="Body_1" class="tRNA-body-style" d="M92,19.4c6.8-3.5,12.8-7.5,19.3-9.7c13.8-4.7,27.3-3.5,39.1,6c3.6,2.9,6.9,3.9,11.6,3.2
            c11.9-1.7,22.8,1.6,32.8,8.1c1.7,1.1,3.2,2.3,4.7,3.4c5.6-4.3,10.8-8.6,16.3-12.3c3.3-2.2,7-4.1,10.9-5c9.8-2.3,16.4,4.6,13.7,14.3
            c-0.8,2.8-2.3,5.6-4.3,7.8c-6.9,7.7-14.4,14.7-25.1,17.8c0.3,12.7-7.7,20.5-17.4,26c-10.4,5.9-22.1,8.1-34.2,4.8
            c-2.2-0.6-4.3-1.4-7-2.3C142.7,94.5,128.8,99,112.1,99c2.9,20.9-4.4,38.5-17,54.1c11.2,16.6,4.9,48.9-3,58.7
            c-5.9,7.2-6.5,10.4-5.9,17.2c1,10.1-4.9,26-9.2,34.5c48.3,29.7-2.2,61.5-9.5,11.1c-1.3,1.1-5.8,2.7-8,3.3
            c21.3,38.1-34.3,37-11.6-0.2c-1.9-0.3-5.8-1.7-7.5-2.3c-11.3,44-54.4,13.6-5.3-12.4c-1.1-5.6-6.8-17.9-7.3-23.6
            c-0.2-2.1-0.7-4.6-2-6C9.6,215.8,5.4,194.8,7.9,171.9c0.6-5.9,2.4-11.8,4.7-17.2c2-4.6,2.5-8.6,0.3-12.9
            c-4.6-9.1-3.5-17.9,0.9-26.9c-1.2-2.3-2.5-4.8-3.7-7.2C0.5,89.1,3.7,71.4,13.6,54c10-17.7,25.3-28.8,44.2-35.3
            C69.5,14.6,81.3,13.6,92,19.4z"/>
         <g id="Shadow_1">
            <path class="tRNA-shadow-style" d="M222.9,35.5c-9.8,1-9.2,7.8-17.5,13.2c-7.4,4.8-8.9,20.9-23.7,24.9c-16.5,4.1-29.3-8.2-34.4-17.1
               c-5-8.7-4.6-17.2-6.6-20.6c-13.2,12.5-13.2,35.8-5.2,45.2c-0.6,3.3-8.2,7.6-18.1,8.8c-11.1,0.8-21.5,0.7-28-5.5
               c-5.7,16.8-16.9,31.8-33.8,27.6c-25.1-6.3-11.8-47-10.4-50.2c-9.8-1.5-18.2,11.7-19.8,22.9c-1.8,12.8,1.2,22.2-2,21.5
               C13.9,103.6,12,91,13.8,78.3c2.2-14.9,8.9-30,4.6-32.2C2.2,58.9-2.1,97.8,12.5,115c-4.2,7.3-5.7,18.5,1.4,34
               c-10.6,20.3-8.4,44.8-6.4,52.5c1.8,7.2,10.9,24.5,19.6,34.4c0.1,8.7,7,27.5,7,27.6c-2.2,1.2-31.6,19.2-21,31.5
               c9.3,10.7,26.8-12.2,31.2-17.9c0,7.3-7.6,30.1,8.1,29.8c19.9,0.1,11.6-25.6,11.9-30c13.1,32.3,26.5,25.6,32.3,20.6
               c2.7-2.4,6.9-18.5-19.2-34.9c0.1-0.2,5.1-14.2,6.5-18.1c3.4-9.3,0.4-21,2.2-23c12-13.4,15.6-27.9,15.9-33.5
               c0.9-18.9-3-26.4-5.8-32.7c0.4-0.5,5.8-10.7,6.9-12.7c2.2-3.8,4.8-8.9,6.5-12.9c4.1-9.5,4.4-28.8,4.3-30.4
               c10.3-0.6,17.8-2.2,21.3-3.7c3.3-1.4,12-6.4,17.7-13.1c13.2,4.7,20,3.5,24.6,2.2c8.4-2.2,16.9-4.3,23.3-10.1
               c4.8-4.4,10.1-11.8,11-21.3c8.3-3,15.2-7.5,18.1-10.3c5.5-5.1,11-10.6,11.2-20.7C239.9,28.3,231.4,34.6,222.9,35.5z M28.6,285.3
               c-2.9,4.6-6.2,6.2-8.5,4.1c-2-1.8-1.1-4.5,1.7-8.3c2.8-3.8,7.3-6.3,8.9-5.2C32.3,276.9,31.6,280.6,28.6,285.3z M19.6,128.3
               c8.1,4.4,15,1.2,15,1.2s1.2,6.2,2.6,11.1c2.1,5.6,11.4,17.9-10.7,4.9C17.7,139.9,19.6,128.3,19.6,128.3z M9.7,185.2
               C9,158.2,19.9,154,19.9,154s4.5,3.5,10.1,5c5.2,1.4,12.6,1.7,12.6,1.7s-10.9,22.3-7,37.5c3.9,15.3,6.4,27.3,0.5,27.8
               S10.4,212.3,9.7,185.2z M57.1,291.6c-0.3,3.1-0.7,6.9-3.8,6.9c-3.1,0.1-4.1-5.5-3.6-8.3c0.6-2.8,0.9-7.7,3.7-7.8
               C56.1,282.2,57.4,288.4,57.1,291.6z M56.1,269c-11.9,0.8-15.7-13.2-18.4-23.8c13.2,1.2,18.8-6.1,18.8-6.1
               c7.6,6.6,20.3-0.6,20.3-0.6S72.5,267.8,56.1,269z M79.7,276.6c3.6-1.5,5.4,1.3,8,4.7c2.7,3.4,2.7,10,1,11.5s-5.6-1.5-8.9-5
               C76.6,284.2,76.5,277.9,79.7,276.6z M89.9,194.3c-5.7,15.3-12.6,26.6-23.1,25.3c-16.2-2-17.6-25.2-9.5-53.8
               c6.2,4.8,9.7,7,17.9,6.7c8.8-0.3,18.3-6,18.3-6S95.6,179.3,89.9,194.3z M79.7,146c-11.1,1.7-26.9-2-27.4-16
               c8.3,2.2,17.8,2.4,25.2,0c16.6-5.3,22.2-12.6,23.5-18.8C103.6,136.6,90.6,144.4,79.7,146z M94,17.9c0,0-13.2,12.5-9.6,26.1
               c3.5,13.6,17.4,8.3,19.1,13.9c1.8,5.6-27.3,8.9-29.7-18.5c-0.6-6.7,2.2-18.1,8.4-22.3C85.8,18.7,90.7,18.7,94,17.9z"/>
         </g>
         <g id="Wrinkles_1">
            <path class="tRNA-wrinkle-style1" d="M155.1,81.3c-11-2.9-19.5-13.1-17.3-24.9"/>
            <path class="tRNA-wrinkle-style1" d="M99.3,56.4C75.1,51.2,83.5,27.7,94.5,19"/>
            <path class="tRNA-wrinkle-style1" d="M97.7,152.9c-9.9,8.4-23.3,7.9-31.6,3.3"/>
            <path class="tRNA-wrinkle-style1" d="M75.1,226.3c-9,7.8-21.7-2.6-21.7-2.6c-1.7,12.3-18.7,17.1-25,9.4"/>
            <path class="tRNA-wrinkle-style1" d="M53.4,147.9c0,0-11.3-16-6.4-30c-8.8,7.2-20.5,6-30.8-2"/>
            <path class="tRNA-wrinkle-style1" d="M45.4,64.3c-13.2,7.5-20.1,42.5,1.6,53.6s41.2-2,45.3-19.3"/>
            <path class="tRNA-wrinkle-style1" d="M53.4,223.7c-13-13.8-11.1-39.6-3.3-57.9"/>
            <path class="tRNA-wrinkle-style2" d="M53.2,308.2c-3.1,0-6.2-1.1-8.7-3.2c-6.1-5.4-6.2-14.9-0.3-25.9c-0.8-0.3-1.7-0.6-2.6-0.9
               c-4.7,15.9-13.7,21.6-20.7,21.6c0,0,0,0-0.1,0c-5.4,0-9.7-3.4-10.9-8.5c-0.9-3.6-1.8-16.3,22.3-29.6c-0.6-2.2-1.7-5.1-2.8-8.1
               c-1.9-5.2-3.8-10.6-4.1-14.1c-0.2-2.2-0.7-3.9-1.4-4.7C8.8,218.3,2.8,197.6,5.7,171.7c0.6-5.8,2.3-12,4.9-17.9
               c2-4.5,2.1-7.7,0.4-11c-4.4-8.7-4.3-17.8,0.4-27.9l-0.7-1.3c-0.8-1.6-1.7-3.2-2.5-4.9c-9-17.5-7.9-35.8,3.5-55.9
               C21.4,35.5,36.3,23.7,57,16.5C70.7,11.9,82.2,12,92,16.9c1.8-0.9,3.5-1.9,5.2-2.9c4.5-2.5,8.7-4.9,13.4-6.4
               c15.5-5.3,29.3-3.1,41.2,6.4c3.2,2.6,5.9,3.3,9.9,2.8c11.7-1.7,23.2,1.1,34.4,8.4c1.2,0.8,2.3,1.6,3.4,2.4c0,0,0.1,0,0.1,0.1
               c1.2-0.9,2.4-1.9,3.6-2.8c3.9-3,7.6-5.9,11.6-8.6c3.9-2.6,7.9-4.4,11.6-5.3c5.4-1.3,10.4-0.1,13.6,3.2c3.3,3.4,4.3,8.4,2.8,13.9
               c-0.8,3.1-2.6,6.3-4.8,8.7c-6.6,7.3-14.1,14.4-24.6,18c-0.3,10.8-6.4,19.4-18.5,26.3c-11.5,6.5-23.9,8.3-35.8,5
               c-1.5-0.4-3-0.9-4.6-1.5c-0.3-0.1-0.7-0.2-1-0.3c-8.9,11-21.3,16.5-38.7,17c1.9,18.2-3.6,35.3-16.8,52.1
               c10.8,18.1,3.9,50.2-4,59.9c-5.4,6.7-6,9.2-5.4,15.6c1,10.4-4.7,25.7-8.6,33.9c7.9,5.1,13.6,10.6,16.9,16.3
               c3.1,5.3,3.9,10.8,2.4,15.4c-1.9,5.9-7.4,9.5-13.6,8.9c-7.5-0.7-16.4-7.7-19.8-25.3c-1,0.4-2.1,0.9-3.1,1.2
               c5.6,11.3,5.3,21-1.1,26.1C59.1,307.3,56.2,308.2,53.2,308.2z M40.2,273.1c0.3,0,0.5,0,0.7,0.1l0.8,0.3c1.7,0.6,4.8,1.7,6.2,1.9
               c0.8,0.1,1.4,0.6,1.7,1.3c0.3,0.7,0.3,1.5-0.1,2.1c-9.1,14.9-3.9,21.2-2.1,22.8c3.1,2.7,7.9,2.8,11.1,0.2
               c1.9-1.5,7.3-7.6-1.3-22.9c-0.3-0.6-0.4-1.3-0.1-2c0.3-0.6,0.8-1.1,1.5-1.3c2.6-0.7,6.4-2.2,7.2-2.9c0.6-0.5,1.5-0.6,2.2-0.3
               c0.8,0.3,1.3,1,1.4,1.8c2.5,17.3,10,24,16.3,24.6c4.1,0.4,7.7-2,9-5.8c2.1-6.4-1.8-16.9-19.1-27.5c-1-0.6-1.4-1.9-0.8-2.9
               c4.1-8.2,9.9-23.7,9-33.2c-0.7-7.3,0.1-11.1,6.4-18.8c7.5-9.2,13.4-40.3,2.9-56c-0.5-0.8-0.5-1.9,0.1-2.7
               c13.7-16.9,19.1-34.1,16.6-52.4c-0.1-0.6,0.1-1.3,0.5-1.8c0.4-0.5,1-0.8,1.7-0.8c17.9-0.1,30.1-5.4,38.6-16.6
               c0.6-0.8,1.6-1.1,2.5-0.8c0.9,0.3,1.8,0.6,2.5,0.9c1.6,0.5,2.9,1,4.3,1.4c11,3,21.9,1.4,32.5-4.6c11.3-6.4,16.5-14.1,16.3-24
               c0-1,0.6-1.9,1.6-2.2c9.7-2.8,16.6-8.9,24.1-17.2c1.7-1.9,3.1-4.4,3.8-6.9c1.1-3.9,0.4-7.4-1.7-9.6c-2.1-2.2-5.5-2.9-9.4-2
               c-3.2,0.8-6.7,2.4-10.1,4.6c-3.8,2.6-7.5,5.4-11.3,8.4c-1.6,1.3-3.3,2.6-5,3.8c-0.8,0.6-1.9,0.6-2.7,0c-0.5-0.3-1-0.7-1.5-1.1
               c-1-0.8-2.1-1.5-3.2-2.3c-10.2-6.7-20.8-9.3-31.3-7.7c-5.2,0.8-9.1-0.3-13.3-3.7c-10.6-8.5-23-10.4-36.9-5.6
               c-4.3,1.5-8.3,3.7-12.6,6.1c-2,1.1-4.2,2.3-6.4,3.5c-0.7,0.3-1.4,0.3-2.1,0c-8.9-4.8-19.5-5-32.4-0.6c-19.7,6.7-33.7,18-43,34.3
               C4.8,74,3.7,90.4,12.1,106.7c0.8,1.6,1.7,3.3,2.5,4.9l1.2,2.3c0.3,0.6,0.3,1.4,0,2c-4.5,9.3-4.8,17.2-0.9,24.9
               c2.9,5.8,1.4,10.9-0.3,14.8c-2.4,5.4-3.9,11.2-4.5,16.6c-2.7,24.6,2.9,44.1,17.2,59.7c1.4,1.5,2.3,4,2.6,7.3
               c0.3,2.9,2.2,8.3,3.9,13c1.5,4,2.8,7.8,3.3,10.4c0.2,1-0.3,1.9-1.2,2.4c-11.3,6-23.8,16.2-21.6,25.4c0.8,3.1,3.3,5,6.6,5.1
               c0,0,0,0,0,0c5.4,0,13.1-5.4,17-20.6c0.2-0.6,0.6-1.1,1.1-1.4C39.5,273.2,39.9,273.1,40.2,273.1z"/>
         </g>
      </g>
   </defs>
</svg>
