<?xml version="1.0" encoding="utf-8"?>
<!-- Generator: Adobe Illustrator 18.1.1, SVG Export Plug-In . SVG Version: 6.00 Build 0)  -->
<!DOCTYPE svg PUBLIC "-//W3C//DTD SVG 1.1//EN" "http://www.w3.org/Graphics/SVG/1.1/DTD/svg11.dtd">
<svg version="1.1" id="Layer_1" xmlns="http://www.w3.org/2000/svg" xmlns:xlink="http://www.w3.org/1999/xlink" x="0px" y="0px"
	 viewBox="0 0 920 690" enable-background="new 0 0 920 690" xml:space="preserve">
<filter  height="200%" width="200%" x="-50%" id="ds3" y="-50%">
	<feOffset  result="offOut" dy="17" dx="0" in="SourceAlpha"></feOffset>
	<feGaussianBlur  result="blurOut" stdDeviation="15" in="offOut"></feGaussianBlur>
	<feComponentTransfer>
		<feFuncA  type="linear" slope="0.4"></feFuncA>
	</feComponentTransfer>
	<feMerge>
		<feMergeNode></feMergeNode>
		<feMergeNode  in="SourceGraphic"></feMergeNode>
	</feMerge>
</filter>
<filter  height="200%" width="200%" x="-50%" id="ds2" y="-50%">
	<feOffset  result="offOut" dy="-1" dx="0" in="SourceAlpha"></feOffset>
	<feGaussianBlur  result="blurOut" stdDeviation="17" in="offOut"></feGaussianBlur>
	<feComponentTransfer>
		<feFuncA  type="linear" slope="0.2"></feFuncA>
	</feComponentTransfer>
	<feMerge>
		<feMergeNode></feMergeNode>
		<feMergeNode  in="SourceGraphic"></feMergeNode>
	</feMerge>
</filter>
<filter  height="170%" width="170%" x="-30%" id="ds1" y="-20%">
	<feOffset  result="offOut" dy="1" dx="0" in="SourceAlpha"></feOffset>
	<feGaussianBlur  result="blurOut" stdDeviation="2" in="offOut"></feGaussianBlur>
	<feComponentTransfer>
		<feFuncA  type="linear" slope="0.5"></feFuncA>
	</feComponentTransfer>
	<feMerge>
		<feMergeNode></feMergeNode>
		<feMergeNode  in="SourceGraphic"></feMergeNode>
	</feMerge>
</filter>
<g filter="url(#ds2)">
	
		<radialGradient id="SVGID_1_" cx="732.9097" cy="596.4002" r="229.9175" gradientTransform="matrix(1 0 0 0.7185 0 167.9018)" gradientUnits="userSpaceOnUse">
		<stop  offset="0" style="stop-color:#C9E9F0"/>
		<stop  offset="0.2183" style="stop-color:#C1E1EC"/>
		<stop  offset="0.5564" style="stop-color:#ACCBE0"/>
		<stop  offset="0.97" style="stop-color:#8AA8CD"/>
		<stop  offset="1" style="stop-color:#87A5CB"/>
	</radialGradient>
	<rect x="554" y="480.1" fill="url(#SVGID_1_)" width="365.8" height="210.6"/>
</g>
<polygon fill="#8689BC" points="581.4,721.1 602.8,641.4 725.4,591.7 892.3,573 932.3,604.5 918.4,738.7 "/>
<g filter="url(#ds3)">
	<path fill="none" stroke="#9991CE" stroke-width="29" stroke-miterlimit="10" d="M581.4,719.7c0.5-16.5,4.3-65,21.4-79.7
		c42.5-36.6,176-70.9,289.5-62.2c28.9,2.2,47.2,38,47.2,38"/>
</g>
<g opacity="0.45">
	<g filter="url(#ds1)">
		<circle fill="#F4F4F4" cx="734.4" cy="515.6" r="5.1"/>
		<g>
			<rect x="733.6" y="512.3" fill="#3F3F3F" width="1.5" height="6.6"/>
			<rect x="731.1" y="514.8" fill="#3F3F3F" width="6.6" height="1.5"/>
		</g>
	</g>
	<g filter="url(#ds1)">
		<circle fill="#F4F4F4" cx="756.9" cy="515.6" r="5.1"/>
		<g>
			<rect x="756.2" y="512.3" fill="#3F3F3F" width="1.5" height="6.6"/>
			<rect x="753.6" y="514.8" fill="#3F3F3F" width="6.6" height="1.5"/>
		</g>
	</g>
	<g filter="url(#ds1)">
		<circle fill="#3A94ED" cx="745.4" cy="504.5" r="9.2"/>
	</g>
	<g filter="url(#ds1)">
		<circle fill="#3F3F3F" cx="753.6" cy="511.6" r="3.7"/>
		
			<rect x="752.9" y="509.1" transform="matrix(-2.208451e-02 0.9998 -0.9998 -2.208451e-02 1281.6879 -230.5812)" fill="#FFFFFF" width="1.4" height="4.9"/>
	</g>
	<g filter="url(#ds1)">
		<circle fill="#3F3F3F" cx="737.9" cy="511.6" r="3.7"/>
		
			<rect x="737.3" y="509.1" transform="matrix(2.208454e-02 0.9998 -0.9998 2.208454e-02 1233.073 -237.5054)" fill="#FFFFFF" width="1.4" height="4.9"/>
	</g>
</g>
<g filter="url(#ds1)">
	<path fill="#D0D2D3" stroke="#929497" stroke-width="1.4546" stroke-linejoin="round" stroke-miterlimit="10" d="M687.3,617.7
		c1.7-3.5,2.4-7.2,2.4-10.8c2,3.3,4.9,6.2,8.5,8.3l12-3.2c1.8-3.1,2.8-6.5,3.1-9.9c1.8,2.8,4.3,5.2,7.2,7l12.1-2.8
		c7.1-11.3,3.6-26.1-7.6-33.2l-12.1,2.8c-0.7,1.1-1.3,2.3-1.8,3.5l-3.9-1.8l-2.7,3.6c-1-0.8-2-1.5-3.1-2.1l-12,3.2
		c-0.5,0.9-1,1.9-1.4,2.9l-4.9-1.4l-3.2,4.1c-1.2-0.9-2.4-1.6-3.8-2.3c-3.6,1.2-7.9,2.7-11.7,4.1c-5.8,12-0.8,26.4,11.2,32.1
		L687.3,617.7z"/>
	<linearGradient id="SVGID_2_" gradientUnits="userSpaceOnUse" x1="698.0419" y1="582.0452" x2="703.1548" y2="603.854">
		<stop  offset="0" style="stop-color:#B5B5B5"/>
		<stop  offset="1" style="stop-color:#9A9A9A"/>
	</linearGradient>
	<path fill="url(#SVGID_2_)" d="M717.9,588.5c-6.9-0.1-26.9,2-37.1,9.1c-1,0.7-2.4,0.3-2.9,0c-1-0.6-3.3-3.2-3.4-11.6
		c-3.2,1.1-6.9,2.4-10.2,3.6c0.5,9.6,3.3,15.7,8.4,18.5c1.8,1,3.7,1.4,5.7,1.4c2.9,0,6-0.7,8.6-2.9c7.2-6.3,25.4-6.7,31.7-7.2
		c7.2-0.6,13.8-4.2,17.1-10.6c-0.9-4.6-3.1-8.8-6.5-12.2C729.8,587.5,720.1,588.6,717.9,588.5z"/>
</g>
<path fill="#919191" d="M814.5,598.5C814.5,598.5,814.5,598.5,814.5,598.5C814.5,598.5,814.5,598.5,814.5,598.5
	C814.5,598.5,814.5,598.5,814.5,598.5z"/>
<path fill="#919191" d="M814.6,598.5C814.5,598.5,814.5,598.5,814.6,598.5C814.5,598.5,814.6,598.5,814.6,598.5z"/>
<path fill="#919191" d="M814.5,598.5C814.5,598.5,814.5,598.5,814.5,598.5C814.5,598.5,814.5,598.5,814.5,598.5z"/>
<g filter="url(#ds1)">
	<circle fill="#3F3F3F" cx="689" cy="598.8" r="3.7"/>
	
		<rect x="688.4" y="596.3" transform="matrix(-2.208451e-02 0.9998 -0.9998 -2.208451e-02 1302.8641 -76.8887)" fill="#FFFFFF" width="1.4" height="4.9"/>
</g>
<g filter="url(#ds1)">
	<circle fill="#3F3F3F" cx="696.8" cy="597.4" r="3.7"/>
	
		<rect x="696.1" y="595" transform="matrix(-2.208451e-02 0.9998 -0.9998 -2.208451e-02 1309.5112 -86.0174)" fill="#FFFFFF" width="1.4" height="4.9"/>
</g>
<g opacity="0.45" filter="url(#ds1)">
	<path fill="#D0D2D3" d="M703.5,532.2l-4.8-5.6c-0.9-1.3-3-2.1-4.6-1.7l-5,1.3c-1.6,0.4-3.4,2-4,3.5l-2.3,6.2
		c-0.6,1.5-0.3,3.9,0.7,5.3l2.9,4.2c0.9,1.3,3,2.1,4.6,1.7c0,0,7.4-1,7.5-1.1c0.2,0,5,5.7,5,5.7c0.9,1.3,3,2.1,4.6,1.7l7.6-1
		l4.9,5.7c0.9,1.3,3,2.1,4.6,1.7l5-1.3c1.6-0.4,3.4-2,4-3.5l2.3-6.2c0.6-1.5,0.3-3.9-0.7-5.3l-2.9-4.2c-0.9-1.3-3-2.1-4.6-1.7
		l-7.5,1.1l-5-5.7c-0.9-1.3-3-2.1-4.6-1.7L703.5,532.2z"/>
	<path fill="none" stroke="#929497" stroke-width="1.4546" stroke-linejoin="round" stroke-miterlimit="10" d="M703.5,532.2
		l-4.8-5.6c-0.9-1.3-3-2.1-4.6-1.7l-5,1.3c-1.6,0.4-3.4,2-4,3.5l-2.3,6.2c-0.6,1.5-0.3,3.9,0.7,5.3l2.9,4.2c0.9,1.3,3,2.1,4.6,1.7
		c0,0,7.4-1,7.5-1.1c0.2,0,5,5.7,5,5.7c0.9,1.3,3,2.1,4.6,1.7l7.6-1l4.9,5.7c0.9,1.3,3,2.1,4.6,1.7l5-1.3c1.6-0.4,3.4-2,4-3.5
		l2.3-6.2c0.6-1.5,0.3-3.9-0.7-5.3l-2.9-4.2c-0.9-1.3-3-2.1-4.6-1.7l-7.5,1.1l-5-5.7c-0.9-1.3-3-2.1-4.6-1.7L703.5,532.2z"/>
</g>
<g opacity="0.2" filter="url(#ds1)">
	<circle fill="#F4F4F4" cx="721.9" cy="511.4" r="5.1"/>
	<g>
		<rect x="721.1" y="508.2" fill="#3F3F3F" width="1.5" height="6.6"/>
		<rect x="718.6" y="510.7" fill="#3F3F3F" width="6.6" height="1.5"/>
	</g>
</g>
<g opacity="0.2" filter="url(#ds1)">
	<circle fill="#F4F4F4" cx="765.8" cy="547.8" r="5.1"/>
	<g>
		<rect x="765.1" y="544.5" fill="#3F3F3F" width="1.5" height="6.6"/>
		<rect x="762.5" y="547" fill="#3F3F3F" width="6.6" height="1.5"/>
	</g>
</g>
<g opacity="0.2" filter="url(#ds1)">
	<circle fill="#F4F4F4" cx="680.5" cy="512.2" r="5.1"/>
	<g>
		<rect x="679.8" y="508.9" fill="#3F3F3F" width="1.5" height="6.6"/>
		<rect x="677.2" y="511.4" fill="#3F3F3F" width="6.6" height="1.5"/>
	</g>
</g>
<g opacity="0.2" filter="url(#ds1)">
	<circle fill="#F4F4F4" cx="663.6" cy="539" r="5.1"/>
	<g>
		<rect x="662.8" y="535.7" fill="#3F3F3F" width="1.5" height="6.6"/>
		<rect x="660.3" y="538.3" fill="#3F3F3F" width="6.6" height="1.5"/>
	</g>
</g>
<g opacity="0.2" filter="url(#ds1)">
	<circle fill="#F4F4F4" cx="863.3" cy="489.4" r="5.1"/>
	<g>
		<rect x="862.6" y="486.1" fill="#3F3F3F" width="1.5" height="6.6"/>
		<rect x="860" y="488.6" fill="#3F3F3F" width="6.6" height="1.5"/>
	</g>
</g>
<g opacity="0.2" filter="url(#ds1)">
	<circle fill="#F4F4F4" cx="899.7" cy="547" r="5.1"/>
	<g>
		<rect x="898.9" y="543.7" fill="#3F3F3F" width="1.5" height="6.6"/>
		<rect x="896.4" y="546.3" fill="#3F3F3F" width="6.6" height="1.5"/>
	</g>
</g>
<rect x="554" y="480.1" fill="#6D6E70" width="211.8" height="21.7"/>
<g>
	<g>
		<path fill="#E8E8E8" d="M563.8,486.5c2.5,0,4.4,1.9,4.4,4.3c0,2.5-1.9,4.5-4.4,4.5c-2.5,0-4.4-2-4.4-4.5
			C559.4,488.4,561.3,486.5,563.8,486.5z M563.8,493.9c1.5,0,2.8-1.3,2.8-3.1c0-1.7-1.3-3-2.8-3s-2.8,1.3-2.8,3
			C561,492.6,562.3,493.9,563.8,493.9z"/>
		<path fill="#E8E8E8" d="M568.9,494h0.8l2.1-3.1l-2.1-3h-0.8v-1.2h3.2v1.2h-0.8l1.2,1.8c0.1,0.1,0.1,0.2,0.2,0.3c0,0,0,0.1,0.1,0.1
			h0c0,0,0.1-0.2,0.2-0.4l1.1-1.8h-0.8v-1.2h3.1v1.2h-0.7l-2.2,3.1l2.1,3h0.8v1.2h-3.2V494h0.8l-1.2-1.8c-0.1-0.1-0.1-0.2-0.2-0.3
			c0,0,0-0.1-0.1-0.1h0c0,0-0.1,0.2-0.2,0.4l-1.1,1.8h0.8v1.2h-3.1V494z"/>
		<path fill="#E8E8E8" d="M577.4,494h1v-6.2h-1v-1.2h3.6v1.2h-1v6.2h1v1.2h-3.6V494z"/>
		<path fill="#E8E8E8" d="M582.2,494h1v-6.2h-1v-1.2h3.7c0.7,0,1.2,0,1.8,0.2c1.7,0.5,2.8,2,2.8,4.1c0,2-1,3.5-2.6,4
			c-0.6,0.2-1.2,0.3-1.9,0.3h-3.7V494z M585.8,493.9c0.5,0,1,0,1.4-0.2c1-0.4,1.6-1.4,1.6-2.8c0-1.5-0.6-2.4-1.6-2.8
			c-0.4-0.2-0.8-0.2-1.3-0.2h-1v6H585.8z"/>
		<path fill="#E8E8E8" d="M591,494h0.8l2.6-7.3h1.8l2.6,7.3h0.8v1.2h-3.2V494h0.8l-0.5-1.6h-2.7l-0.5,1.6h0.8v1.2H591V494z
			 M596.2,491.1l-0.8-2.4l-0.1-0.5c0-0.1,0-0.2,0-0.2h0l0,0.2c0,0.1-0.1,0.3-0.1,0.5l-0.8,2.4H596.2z"/>
		<path fill="#E8E8E8" d="M601.3,494h1v-6.1h-1.6v1.3h-1.3v-2.5h7.5v2.5h-1.3v-1.3h-1.6v6.1h1v1.2h-3.6V494z"/>
		<path fill="#E8E8E8" d="M607.7,494h1v-6.2h-1v-1.2h3.6v1.2h-1v6.2h1v1.2h-3.6V494z"/>
		<path fill="#E8E8E8" d="M612.9,487.8h-0.8v-1.2h3.3v1.2h-0.9l1.6,4.9c0.1,0.2,0.1,0.4,0.1,0.5l0,0.3h0l0-0.3
			c0-0.1,0.1-0.3,0.1-0.5l1.6-4.9h-0.9v-1.2h3.3v1.2h-0.8l-2.6,7.3h-1.6L612.9,487.8z"/>
		<path fill="#E8E8E8" d="M621.2,494h1v-6.2h-1v-1.2h6.3v2.2h-1.3v-0.9h-2.4v2.3h2.8v1.3h-2.8v2.4h2.6v-1h1.3v2.2h-6.5V494z"/>
		<path fill="#E8E8E8" d="M631.9,494h1v-6.2h-1v-1.2h4.1c0.5,0,1,0,1.4,0.2c0.9,0.4,1.5,1.3,1.5,2.5c0,1.2-0.6,2.2-1.6,2.6
			c-0.4,0.1-0.8,0.2-1.3,0.2h-1.5v1.8h1v1.2h-3.6V494z M635.8,490.9c0.3,0,0.6-0.1,0.9-0.2c0.5-0.2,0.7-0.7,0.7-1.3
			c0-0.6-0.2-1-0.6-1.3c-0.2-0.1-0.5-0.2-0.9-0.2h-1.3v3H635.8z"/>
		<path fill="#E8E8E8" d="M639.8,494h1v-6.2h-1v-1.2h3.6v1.2h-1v2.5h3.9v-2.5h-1v-1.2h3.6v1.2h-1v6.2h1v1.2h-3.6V494h1v-2.4h-3.9
			v2.4h1v1.2h-3.6V494z"/>
		<path fill="#E8E8E8" d="M654.4,486.5c2.5,0,4.4,1.9,4.4,4.3c0,2.5-1.9,4.5-4.4,4.5s-4.4-2-4.4-4.5
			C650,488.4,651.9,486.5,654.4,486.5z M654.4,493.9c1.5,0,2.8-1.3,2.8-3.1c0-1.7-1.3-3-2.8-3s-2.8,1.3-2.8,3
			C651.6,492.6,652.9,493.9,654.4,493.9z"/>
		<path fill="#E8E8E8" d="M661.3,492.4v0.6c0,0.5,0.7,0.9,1.5,0.9c0.9,0,1.5-0.4,1.5-1.1c0-0.9-1-1.1-2-1.5
			c-1.1-0.4-2.3-0.9-2.3-2.5c0-1.7,1.4-2.4,2.9-2.4c1.3,0,2.7,0.5,2.7,1.5v1.1h-1.4v-0.6c0-0.4-0.6-0.7-1.3-0.7
			c-0.7,0-1.3,0.3-1.3,0.9c0,0.8,0.8,1,1.7,1.4c1.3,0.4,2.5,1,2.5,2.6c0,1.7-1.5,2.5-3.1,2.5c-1.4,0-2.9-0.6-2.9-1.9v-1H661.3z"/>
		<path fill="#E8E8E8" d="M667.1,494h1v-6.2h-1v-1.2h4.1c0.5,0,1,0,1.4,0.2c0.9,0.4,1.5,1.3,1.5,2.5c0,1.2-0.6,2.2-1.6,2.6
			c-0.4,0.1-0.8,0.2-1.3,0.2h-1.5v1.8h1v1.2h-3.6V494z M671,490.9c0.3,0,0.6-0.1,0.9-0.2c0.5-0.2,0.7-0.7,0.7-1.3
			c0-0.6-0.2-1-0.6-1.3c-0.2-0.1-0.5-0.2-0.9-0.2h-1.3v3H671z"/>
		<path fill="#E8E8E8" d="M675,494h1v-6.2h-1v-1.2h3.6v1.2h-1v2.5h3.9v-2.5h-1v-1.2h3.6v1.2h-1v6.2h1v1.2h-3.6V494h1v-2.4h-3.9v2.4
			h1v1.2H675V494z"/>
		<path fill="#E8E8E8" d="M689.6,486.5c2.5,0,4.4,1.9,4.4,4.3c0,2.5-1.9,4.5-4.4,4.5s-4.4-2-4.4-4.5
			C685.2,488.4,687.1,486.5,689.6,486.5z M689.6,493.9c1.5,0,2.8-1.3,2.8-3.1c0-1.7-1.3-3-2.8-3s-2.8,1.3-2.8,3
			C686.8,492.6,688.1,493.9,689.6,493.9z"/>
		<path fill="#E8E8E8" d="M695.1,494h1v-6.2h-1v-1.2h3.8c0.6,0,1.1,0,1.6,0.2c1,0.3,1.6,1.1,1.6,2.3s-0.6,2-1.6,2.4v0l0.1,0.1
			c0.1,0.1,0.2,0.2,0.3,0.3l1,1.8c0.1,0.2,0.3,0.3,0.6,0.3h0.3v1.2h-1c-0.7,0-0.9-0.1-1.2-0.6l-1.2-2.2c-0.2-0.3-0.3-0.4-0.8-0.4
			h-0.8v2.1h1v1.2h-3.6V494z M699.1,490.6c0.8,0,1.4-0.5,1.4-1.4c0-0.6-0.2-1-0.7-1.2c-0.2-0.1-0.6-0.2-1-0.2h-1.2v2.7H699.1z"/>
		<path fill="#E8E8E8" d="M705.1,494h1v-2.4l-2.3-3.8H703v-1.2h3.2v1.2h-0.8l1.3,2.2c0.1,0.1,0.1,0.2,0.1,0.3c0,0,0,0.1,0,0.1h0
			c0,0,0-0.1,0-0.1c0-0.1,0.1-0.2,0.1-0.3l1.3-2.2h-0.8v-1.2h3.1v1.2h-0.8l-2.3,3.8v2.4h1v1.2h-3.6V494z"/>
		<path fill="#E8E8E8" d="M711.4,494h1v-6.1h-1v-1.3h3.6v1.3h-1v6h2.5v-1.3h1.3v2.6h-6.5V494z"/>
		<path fill="#E8E8E8" d="M718.3,494h0.8l2.6-7.3h1.8l2.6,7.3h0.8v1.2h-3.2V494h0.8l-0.5-1.6h-2.7l-0.5,1.6h0.8v1.2h-3.2V494z
			 M723.5,491.1l-0.8-2.4l-0.1-0.5c0-0.1,0-0.2,0-0.2h0l0,0.2c0,0.1-0.1,0.3-0.1,0.5l-0.8,2.4H723.5z"/>
		<path fill="#E8E8E8" d="M728.6,494h1v-6.1H728v1.3h-1.3v-2.5h7.5v2.5h-1.3v-1.3h-1.6v6.1h1v1.2h-3.6V494z"/>
		<path fill="#E8E8E8" d="M735.1,494h1v-6.2h-1v-1.2h3.6v1.2h-1v6.2h1v1.2h-3.6V494z"/>
		<path fill="#E8E8E8" d="M744.2,486.5c2.5,0,4.4,1.9,4.4,4.3c0,2.5-1.9,4.5-4.4,4.5c-2.5,0-4.4-2-4.4-4.5
			C739.8,488.4,741.7,486.5,744.2,486.5z M744.2,493.9c1.5,0,2.8-1.3,2.8-3.1c0-1.7-1.3-3-2.8-3s-2.8,1.3-2.8,3
			C741.4,492.6,742.7,493.9,744.2,493.9z"/>
		<path fill="#E8E8E8" d="M749.7,494h1v-6.2h-1v-1.2h2.6l3.6,5.5c0.1,0.1,0.2,0.3,0.2,0.5l0.1,0.3h0l0-0.3c0-0.2,0-0.4,0-0.5v-4.2
			h-1.1v-1.2h3.6v1.2h-1v7.3h-1.6l-3.6-5.5c-0.1-0.1-0.2-0.3-0.2-0.5l-0.1-0.3h0l0,0.3c0,0.2,0,0.4,0,0.5v4.2h1.1v1.2h-3.6V494z"/>
	</g>
</g>
<g opacity="0.2" filter="url(#ds1)">
	<circle fill="#F4F4F4" cx="689.8" cy="665" r="5.1"/>
	<g>
		<rect x="689" y="661.7" fill="#3F3F3F" width="1.5" height="6.6"/>
		<rect x="686.5" y="664.2" fill="#3F3F3F" width="6.6" height="1.5"/>
	</g>
</g>
<g opacity="0.2" filter="url(#ds1)">
	<circle fill="#F4F4F4" cx="678.5" cy="645" r="5.1"/>
	<g>
		<rect x="677.7" y="641.8" fill="#3F3F3F" width="1.5" height="6.6"/>
		<rect x="675.2" y="644.3" fill="#3F3F3F" width="6.6" height="1.5"/>
	</g>
</g>
<g opacity="0.2" filter="url(#ds1)">
	<circle fill="#F4F4F4" cx="889.5" cy="644" r="5.1"/>
	<g>
		<rect x="888.7" y="640.7" fill="#3F3F3F" width="1.5" height="6.6"/>
		<rect x="886.2" y="643.3" fill="#3F3F3F" width="6.6" height="1.5"/>
	</g>
</g>
<g opacity="0.2" filter="url(#ds1)">
	<circle fill="#F4F4F4" cx="853" cy="633" r="5.1"/>
	<g>
		<rect x="852.2" y="629.7" fill="#3F3F3F" width="1.5" height="6.6"/>
		<rect x="849.7" y="632.2" fill="#3F3F3F" width="6.6" height="1.5"/>
	</g>
</g>
<g opacity="0.2" filter="url(#ds1)">
	<circle fill="#F4F4F4" cx="854.7" cy="610.3" r="5.1"/>
	<g>
		<rect x="854" y="607" fill="#3F3F3F" width="1.5" height="6.6"/>
		<rect x="851.4" y="609.5" fill="#3F3F3F" width="6.6" height="1.5"/>
	</g>
</g>
<g opacity="0.2" filter="url(#ds1)">
	<circle fill="#F4F4F4" cx="868.4" cy="659.6" r="5.1"/>
	<g>
		<rect x="867.7" y="656.3" fill="#3F3F3F" width="1.5" height="6.6"/>
		<rect x="865.1" y="658.9" fill="#3F3F3F" width="6.6" height="1.5"/>
	</g>
</g>
<g opacity="0.2" filter="url(#ds1)">
	<circle fill="#F4F4F4" cx="844.6" cy="673.7" r="5.1"/>
	<g>
		<rect x="843.8" y="670.4" fill="#3F3F3F" width="1.5" height="6.6"/>
		<rect x="841.3" y="672.9" fill="#3F3F3F" width="6.6" height="1.5"/>
	</g>
</g>
<g opacity="0.2" filter="url(#ds1)">
	<circle fill="#F4F4F4" cx="903" cy="675.5" r="5.1"/>
	<g>
		<rect x="902.2" y="672.2" fill="#3F3F3F" width="1.5" height="6.6"/>
		<rect x="899.7" y="674.7" fill="#3F3F3F" width="6.6" height="1.5"/>
	</g>
</g>
<g opacity="0.2" filter="url(#ds1)">
	<circle fill="#F4F4F4" cx="910.6" cy="657.9" r="5.1"/>
	<g>
		<rect x="909.8" y="654.6" fill="#3F3F3F" width="1.5" height="6.6"/>
		<rect x="907.3" y="657.2" fill="#3F3F3F" width="6.6" height="1.5"/>
	</g>
</g>
<g opacity="0.2" filter="url(#ds1)">
	<circle fill="#F4F4F4" cx="880.1" cy="687.9" r="5.1"/>
	<g>
		<rect x="879.3" y="684.6" fill="#3F3F3F" width="1.5" height="6.6"/>
		<rect x="876.8" y="687.2" fill="#3F3F3F" width="6.6" height="1.5"/>
	</g>
</g>
<g opacity="0.2" filter="url(#ds1)">
	<circle fill="#F4F4F4" cx="836.2" cy="651.1" r="5.1"/>
	<g>
		<rect x="835.5" y="647.8" fill="#3F3F3F" width="1.5" height="6.6"/>
		<rect x="832.9" y="650.3" fill="#3F3F3F" width="6.6" height="1.5"/>
	</g>
</g>
<g opacity="0.2" filter="url(#ds1)">
	<circle fill="#F4F4F4" cx="795.7" cy="650.3" r="5.1"/>
	<g>
		<rect x="794.9" y="647" fill="#3F3F3F" width="1.5" height="6.6"/>
		<rect x="792.4" y="649.6" fill="#3F3F3F" width="6.6" height="1.5"/>
	</g>
</g>
<g opacity="0.2" filter="url(#ds1)">
	<circle fill="#F4F4F4" cx="778.9" cy="631.2" r="5.1"/>
	<g>
		<rect x="778.1" y="627.9" fill="#3F3F3F" width="1.5" height="6.6"/>
		<rect x="775.6" y="630.4" fill="#3F3F3F" width="6.6" height="1.5"/>
	</g>
</g>
<g opacity="0.2" filter="url(#ds1)">
	<circle fill="#F4F4F4" cx="755.7" cy="623.8" r="5.1"/>
	<g>
		<rect x="755" y="620.5" fill="#3F3F3F" width="1.5" height="6.6"/>
		<rect x="752.4" y="623.1" fill="#3F3F3F" width="6.6" height="1.5"/>
	</g>
</g>
<g opacity="0.2" filter="url(#ds1)">
	<circle fill="#F4F4F4" cx="819.5" cy="636.3" r="5.1"/>
	<g>
		<rect x="818.7" y="633" fill="#3F3F3F" width="1.5" height="6.6"/>
		<rect x="816.2" y="635.5" fill="#3F3F3F" width="6.6" height="1.5"/>
	</g>
</g>
<g opacity="0.2" filter="url(#ds1)">
	<circle fill="#F4F4F4" cx="880.1" cy="615.9" r="5.1"/>
	<g>
		<rect x="879.3" y="612.6" fill="#3F3F3F" width="1.5" height="6.6"/>
		<rect x="876.8" y="615.2" fill="#3F3F3F" width="6.6" height="1.5"/>
	</g>
</g>
<g opacity="0.2" filter="url(#ds1)">
	<circle fill="#F4F4F4" cx="911.3" cy="625.3" r="5.1"/>
	<g>
		<rect x="910.6" y="622" fill="#3F3F3F" width="1.5" height="6.6"/>
		<rect x="908" y="624.6" fill="#3F3F3F" width="6.6" height="1.5"/>
	</g>
</g>
<g opacity="0.2" filter="url(#ds1)">
	<circle fill="#F4F4F4" cx="800.8" cy="624.6" r="5.1"/>
	<g>
		<rect x="800" y="621.3" fill="#3F3F3F" width="1.5" height="6.6"/>
		<rect x="797.5" y="623.8" fill="#3F3F3F" width="6.6" height="1.5"/>
	</g>
</g>
<g opacity="0.2" filter="url(#ds1)">
	<circle fill="#F4F4F4" cx="785.5" cy="611.9" r="5.1"/>
	<g>
		<rect x="784.8" y="608.6" fill="#3F3F3F" width="1.5" height="6.6"/>
		<rect x="782.2" y="611.1" fill="#3F3F3F" width="6.6" height="1.5"/>
	</g>
</g>
<g opacity="0.2" filter="url(#ds1)">
	<circle fill="#F4F4F4" cx="831.1" cy="612.6" r="5.1"/>
	<g>
		<rect x="830.4" y="609.3" fill="#3F3F3F" width="1.5" height="6.6"/>
		<rect x="827.8" y="611.9" fill="#3F3F3F" width="6.6" height="1.5"/>
	</g>
</g>
<g opacity="0.2" filter="url(#ds1)">
	<circle fill="#F4F4F4" cx="805.8" cy="677" r="5.1"/>
	<g>
		<rect x="805.1" y="673.7" fill="#3F3F3F" width="1.5" height="6.6"/>
		<rect x="802.5" y="676.2" fill="#3F3F3F" width="6.6" height="1.5"/>
	</g>
</g>
<g opacity="0.2" filter="url(#ds1)">
	<circle fill="#F4F4F4" cx="780.7" cy="672.9" r="5.1"/>
	<g>
		<rect x="779.9" y="669.7" fill="#3F3F3F" width="1.5" height="6.6"/>
		<rect x="777.4" y="672.2" fill="#3F3F3F" width="6.6" height="1.5"/>
	</g>
</g>
<g opacity="0.2" filter="url(#ds1)">
	<circle fill="#F4F4F4" cx="770.9" cy="653.9" r="5.1"/>
	<g>
		<rect x="770.2" y="650.6" fill="#3F3F3F" width="1.5" height="6.6"/>
		<rect x="767.6" y="653.1" fill="#3F3F3F" width="6.6" height="1.5"/>
	</g>
</g>
<g opacity="0.2" filter="url(#ds1)">
	<circle fill="#F4F4F4" cx="740.8" cy="647" r="5.1"/>
	<g>
		<rect x="740.1" y="643.7" fill="#3F3F3F" width="1.5" height="6.6"/>
		<rect x="737.5" y="646.3" fill="#3F3F3F" width="6.6" height="1.5"/>
	</g>
</g>
<g opacity="0.2" filter="url(#ds1)">
	<circle fill="#F4F4F4" cx="740" cy="678.8" r="5.1"/>
	<g>
		<rect x="739.2" y="675.5" fill="#3F3F3F" width="1.5" height="6.6"/>
		<rect x="736.7" y="678" fill="#3F3F3F" width="6.6" height="1.5"/>
	</g>
</g>
<g opacity="0.2" filter="url(#ds1)">
	<circle fill="#F4F4F4" cx="725.6" cy="671.9" r="5.1"/>
	<g>
		<rect x="724.9" y="668.6" fill="#3F3F3F" width="1.5" height="6.6"/>
		<rect x="722.3" y="671.2" fill="#3F3F3F" width="6.6" height="1.5"/>
	</g>
</g>
<g opacity="0.2" filter="url(#ds1)">
	<circle fill="#F4F4F4" cx="641.1" cy="678.8" r="5.1"/>
	<g>
		<rect x="640.3" y="675.5" fill="#3F3F3F" width="1.5" height="6.6"/>
		<rect x="637.8" y="678" fill="#3F3F3F" width="6.6" height="1.5"/>
	</g>
</g>
<g opacity="0.2" filter="url(#ds1)">
	<circle fill="#F4F4F4" cx="646.1" cy="657.9" r="5.1"/>
	<g>
		<rect x="645.4" y="654.6" fill="#3F3F3F" width="1.5" height="6.6"/>
		<rect x="642.8" y="657.2" fill="#3F3F3F" width="6.6" height="1.5"/>
	</g>
</g>
<g opacity="0.2" filter="url(#ds1)">
	<circle fill="#F4F4F4" cx="617.6" cy="677.7" r="5.1"/>
	<g>
		<rect x="616.8" y="674.4" fill="#3F3F3F" width="1.5" height="6.6"/>
		<rect x="614.3" y="677" fill="#3F3F3F" width="6.6" height="1.5"/>
	</g>
</g>
<g opacity="0.2" filter="url(#ds1)">
	<circle fill="#F4F4F4" cx="711.1" cy="682.1" r="5.1"/>
	<g>
		<rect x="710.3" y="678.8" fill="#3F3F3F" width="1.5" height="6.6"/>
		<rect x="707.8" y="681.3" fill="#3F3F3F" width="6.6" height="1.5"/>
	</g>
</g>
<g opacity="0.2" filter="url(#ds1)">
	<circle fill="#F4F4F4" cx="665.2" cy="690" r="5.1"/>
	<g>
		<rect x="664.5" y="686.7" fill="#3F3F3F" width="1.5" height="6.6"/>
		<rect x="661.9" y="689.3" fill="#3F3F3F" width="6.6" height="1.5"/>
	</g>
</g>
<g opacity="0.2" filter="url(#ds1)">
	<circle fill="#F4F4F4" cx="669.6" cy="657.9" r="5.1"/>
	<g>
		
			<rect x="668.9" y="654.6" transform="matrix(0.1874 0.9823 -0.9823 0.1874 1190.4172 -123.1481)" fill="#3F3F3F" width="1.5" height="6.6"/>
		
			<rect x="668.9" y="654.6" transform="matrix(-0.9823 0.1874 -0.1874 -0.9823 1450.7288 1178.7141)" fill="#3F3F3F" width="1.5" height="6.6"/>
	</g>
</g>
<g opacity="0.2" filter="url(#ds1)">
	<circle fill="#F4F4F4" cx="707.8" cy="633.7" r="5.1"/>
	<g>
		
			<rect x="707" y="630.4" transform="matrix(0.1874 0.9823 -0.9823 0.1874 1197.6099 -180.3086)" fill="#3F3F3F" width="1.5" height="6.6"/>
		
			<rect x="707" y="630.4" transform="matrix(-0.9823 0.1874 -0.1874 -0.9823 1521.8015 1123.5284)" fill="#3F3F3F" width="1.5" height="6.6"/>
	</g>
</g>
<g opacity="0.2" filter="url(#ds1)">
	<circle fill="#F4F4F4" cx="718.4" cy="646.3" r="5.1"/>
	<g>
		<rect x="717.7" y="643" fill="#3F3F3F" width="1.5" height="6.6"/>
		<rect x="715.1" y="645.5" fill="#3F3F3F" width="6.6" height="1.5"/>
	</g>
</g>
<g opacity="0.2" filter="url(#ds1)">
	<circle fill="#F4F4F4" cx="758.7" cy="639.5" r="5.1"/>
	<g>
		<rect x="757.9" y="636.3" fill="#3F3F3F" width="1.5" height="6.6"/>
		<rect x="755.4" y="638.8" fill="#3F3F3F" width="6.6" height="1.5"/>
	</g>
</g>
<g opacity="0.2" filter="url(#ds1)">
	<circle fill="#F4F4F4" cx="750.9" cy="662.9" r="5.1"/>
	<g>
		<rect x="750.2" y="659.6" fill="#3F3F3F" width="1.5" height="6.6"/>
		<rect x="747.6" y="662.1" fill="#3F3F3F" width="6.6" height="1.5"/>
	</g>
</g>
<g opacity="0.2" filter="url(#ds1)">
	<circle fill="#F4F4F4" cx="730.5" cy="657.2" r="5.1"/>
	<g>
		<rect x="729.8" y="653.9" fill="#3F3F3F" width="1.5" height="6.6"/>
		<rect x="727.2" y="656.4" fill="#3F3F3F" width="6.6" height="1.5"/>
	</g>
</g>
<g opacity="0.2" filter="url(#ds1)">
	<circle fill="#F4F4F4" cx="709.4" cy="664.1" r="5.1"/>
	<g>
		<rect x="708.6" y="660.8" fill="#3F3F3F" width="1.5" height="6.6"/>
		<rect x="706.1" y="663.3" fill="#3F3F3F" width="6.6" height="1.5"/>
	</g>
</g>
<g opacity="0.45" filter="url(#ds1)">
	<path fill="#D0D2D3" stroke="#929497" stroke-width="1.3289" stroke-linejoin="round" stroke-miterlimit="10" d="M241.7,536.6
		l-2.9-8.9c-0.5-1.7,0.1-3.5,1.5-4.5l7.5-5.5c1.4-1,3.3-1,4.7,0l7.5,5.5c1.4,1,2,2.8,1.5,4.5l-2.9,8.9c-0.5,1.7-2.1,2.8-3.8,2.8
		h-9.3C243.8,539.4,242.3,538.3,241.7,536.6z"/>
	<path fill="#C99BD3" stroke="#9E6AA5" stroke-width="1.5" stroke-miterlimit="10" d="M247.3,512.7c0-0.1,0-0.1,0-0.2
		c-0.1-1,0.1-1.9-0.2-2.9c-0.2-1-0.6-1.9-1.3-2.6c-2-2-5.2-2-7.2,0c-1.2,1.2-1.9,2.6-3.3,3.7c-0.7,0.6-1.5,1-2.1,1.6
		c-2,2-2,5.2,0,7.2c1.8,1.8,4.2,1.1,6.4,1.6c1.2,0.3,2.1,0.7,3.4,0.6c1.3-0.1,2.4-0.7,3.3-1.6c1.3-1.3,1.9-3.3,1.5-5.1
		C247.6,514.3,247.3,513.6,247.3,512.7z"/>
</g>
<g opacity="0.45" filter="url(#ds1)">
	<circle fill="#D0D2D3" cx="437.9" cy="647.7" r="6.8"/>
	
		<circle fill="none" stroke="#929497" stroke-width="1.3289" stroke-linejoin="round" stroke-miterlimit="10" cx="437.9" cy="647.7" r="6.8"/>
</g>
<g opacity="0.45" filter="url(#ds1)">
	<path fill="#D0D2D3" d="M492.8,472.2l37.9-1.4c3.1-0.1,5.6,2.4,5.6,5.4v7.7c0,3.3-2.8,5.8-6.1,5.4l-40.2-4.6
		c-0.7-0.1-1.3-0.7-1.3-1.4v-7.1C488.8,474.1,490.6,472.3,492.8,472.2z"/>
	<path fill="none" stroke="#929497" stroke-width="1.5" stroke-linejoin="round" stroke-miterlimit="10" d="M492.8,472.2l37.9-1.4
		c3.1-0.1,5.6,2.4,5.6,5.4v7.7c0,3.3-2.8,5.8-6.1,5.4l-40.2-4.6c-0.7-0.1-1.3-0.7-1.3-1.4v-7.1C488.8,474.1,490.6,472.3,492.8,472.2
		z"/>
</g>
<g opacity="0.2" filter="url(#ds1)">
	<circle fill="#6AE6A7" cx="413.1" cy="412.2" r="6.8"/>
	
		<circle fill="none" stroke="#3F9166" stroke-width="1.489" stroke-linejoin="round" stroke-miterlimit="10" cx="413.1" cy="412.2" r="6.8"/>
</g>
<g opacity="0.45" filter="url(#ds1)">
	<circle fill="#8CD0C6" cx="77.4" cy="282.3" r="3"/>
	
		<circle fill="none" stroke="#00B8B5" stroke-width="1.489" stroke-linejoin="round" stroke-miterlimit="10" cx="77.4" cy="282.3" r="3"/>
</g>
<g opacity="0.45" filter="url(#ds1)">
	<circle fill="#8CD0C6" cx="78" cy="293.3" r="3"/>
	
		<circle fill="none" stroke="#00B8B5" stroke-width="1.489" stroke-linejoin="round" stroke-miterlimit="10" cx="78" cy="293.3" r="3"/>
</g>
<g opacity="0.45" filter="url(#ds1)">
	<circle fill="#8CD0C6" cx="66.9" cy="289.5" r="3"/>
	
		<circle fill="none" stroke="#00B8B5" stroke-width="1.489" stroke-linejoin="round" stroke-miterlimit="10" cx="66.9" cy="289.5" r="3"/>
</g>
<g opacity="0.45" filter="url(#ds1)">
	<circle fill="#8CD0C6" cx="81" cy="302.7" r="3"/>
	
		<circle fill="none" stroke="#00B8B5" stroke-width="1.489" stroke-linejoin="round" stroke-miterlimit="10" cx="81" cy="302.7" r="3"/>
</g>
<g opacity="0.45" filter="url(#ds1)">
	<circle fill="#8CD0C6" cx="79.2" cy="273.8" r="3"/>
	
		<circle fill="none" stroke="#00B8B5" stroke-width="1.489" stroke-linejoin="round" stroke-miterlimit="10" cx="79.2" cy="273.8" r="3"/>
</g>
<g opacity="0.45" filter="url(#ds1)">
	<circle fill="#8CD0C6" cx="69.9" cy="300.5" r="3"/>
	
		<circle fill="none" stroke="#00B8B5" stroke-width="1.489" stroke-linejoin="round" stroke-miterlimit="10" cx="69.9" cy="300.5" r="3"/>
</g>
<g opacity="0.45" filter="url(#ds1)">
	<circle fill="#8CD0C6" cx="81" cy="265.4" r="3"/>
	
		<circle fill="none" stroke="#00B8B5" stroke-width="1.489" stroke-linejoin="round" stroke-miterlimit="10" cx="81" cy="265.4" r="3"/>
</g>
<g opacity="0.45" filter="url(#ds1)">
	<circle fill="#8CD0C6" cx="66.3" cy="277.5" r="3"/>
	
		<circle fill="none" stroke="#00B8B5" stroke-width="1.489" stroke-linejoin="round" stroke-miterlimit="10" cx="66.3" cy="277.5" r="3"/>
</g>
<g opacity="0.45" filter="url(#ds1)">
	<circle fill="#8CD0C6" cx="68.8" cy="267.6" r="3"/>
	
		<circle fill="none" stroke="#00B8B5" stroke-width="1.489" stroke-linejoin="round" stroke-miterlimit="10" cx="68.8" cy="267.6" r="3"/>
</g>
<g opacity="0.45" filter="url(#ds1)">
	<path fill="#D0D2D3" stroke="#929497" stroke-width="1.3289" stroke-linejoin="round" stroke-miterlimit="10" d="M515.5,274.3
		l-2.9-8.9c-0.5-1.7,0.1-3.5,1.5-4.5l7.5-5.5c1.4-1,3.3-1,4.7,0l7.5,5.5c1.4,1,2,2.8,1.5,4.5l-2.9,8.9c-0.5,1.7-2.1,2.8-3.8,2.8
		h-9.3C517.6,277.1,516.1,275.9,515.5,274.3z"/>
	<path fill="#C99BD3" stroke="#9E6AA5" stroke-width="1.5" stroke-miterlimit="10" d="M521.1,250.4c0-0.1,0-0.1,0-0.2
		c-0.1-1,0.1-1.9-0.2-2.9c-0.2-1-0.6-1.9-1.3-2.6c-2-2-5.2-2-7.2,0c-1.2,1.2-1.9,2.6-3.3,3.7c-0.7,0.6-1.5,1-2.1,1.6
		c-2,2-2,5.2,0,7.2c1.8,1.8,4.2,1.1,6.4,1.6c1.2,0.3,2.1,0.7,3.4,0.6c1.3-0.1,2.4-0.7,3.3-1.6c1.3-1.3,1.9-3.3,1.5-5.1
		C521.4,251.9,521.1,251.2,521.1,250.4z"/>
</g>
<g opacity="0.45" filter="url(#ds1)">
	<path fill="#D0D2D3" stroke="#929497" stroke-width="1.3289" stroke-linejoin="round" stroke-miterlimit="10" d="M520.7,235.6
		l-2.9-8.9c-0.5-1.7,0.1-3.5,1.5-4.5l7.5-5.5c1.4-1,3.3-1,4.7,0l7.5,5.5c1.4,1,2,2.8,1.5,4.5l-2.9,8.9c-0.5,1.7-2.1,2.8-3.8,2.8
		h-9.3C522.8,238.3,521.2,237.2,520.7,235.6z"/>
	<path fill="#C99BD3" stroke="#9E6AA5" stroke-width="1.5" stroke-miterlimit="10" d="M526.2,211.7c0-0.1,0-0.1,0-0.2
		c-0.1-1,0.1-1.9-0.2-2.9c-0.2-1-0.6-1.9-1.3-2.6c-2-2-5.2-2-7.2,0c-1.2,1.2-1.9,2.6-3.3,3.7c-0.7,0.6-1.5,1-2.1,1.6
		c-2,2-2,5.2,0,7.2c1.8,1.8,4.2,1.1,6.4,1.6c1.2,0.3,2.1,0.7,3.4,0.6c1.3-0.1,2.4-0.7,3.3-1.6c1.3-1.3,1.9-3.3,1.5-5.1
		C526.6,213.2,526.3,212.5,526.2,211.7z"/>
</g>
<g opacity="0.2" filter="url(#ds1)">
	<circle fill="#6AE6A7" cx="96.1" cy="639.3" r="6.9"/>
	
		<circle fill="none" stroke="#3F9166" stroke-width="1.489" stroke-linejoin="round" stroke-miterlimit="10" cx="96.1" cy="639.3" r="6.9"/>
</g>
<g opacity="0.2" filter="url(#ds1)">
	<circle fill="#6AE6A7" cx="78.3" cy="633.8" r="6.9"/>
	
		<circle fill="none" stroke="#3F9166" stroke-width="1.489" stroke-linejoin="round" stroke-miterlimit="10" cx="78.3" cy="633.8" r="6.9"/>
</g>
<g opacity="0.2" filter="url(#ds1)">
	<circle fill="#6AE6A7" cx="76.6" cy="615" r="6.9"/>
	
		<circle fill="none" stroke="#3F9166" stroke-width="1.489" stroke-linejoin="round" stroke-miterlimit="10" cx="76.6" cy="615" r="6.9"/>
</g>
<g opacity="0.2" filter="url(#ds1)">
	<circle fill="#6AE6A7" cx="59.2" cy="618.6" r="6.9"/>
	
		<circle fill="none" stroke="#3F9166" stroke-width="1.489" stroke-linejoin="round" stroke-miterlimit="10" cx="59.2" cy="618.6" r="6.9"/>
</g>
<g opacity="0.2" filter="url(#ds1)">
	<circle fill="#6AE6A7" cx="60.2" cy="639.1" r="6.9"/>
	
		<circle fill="none" stroke="#3F9166" stroke-width="1.489" stroke-linejoin="round" stroke-miterlimit="10" cx="60.2" cy="639.1" r="6.9"/>
</g>
<g opacity="0.2" filter="url(#ds1)">
	<circle fill="#6AE6A7" cx="94.5" cy="618.6" r="6.9"/>
	
		<circle fill="none" stroke="#3F9166" stroke-width="1.489" stroke-linejoin="round" stroke-miterlimit="10" cx="94.5" cy="618.6" r="6.9"/>
</g>
<g opacity="0.45" filter="url(#ds1)">
	<circle fill="#D0D2D3" cx="360.6" cy="645.9" r="6.8"/>
	
		<circle fill="none" stroke="#929497" stroke-width="1.3289" stroke-linejoin="round" stroke-miterlimit="10" cx="360.6" cy="645.9" r="6.8"/>
</g>
<g opacity="0.45" filter="url(#ds1)">
	<path fill="#D0D2D3" d="M397.1,488.4c1.5,1.5,3.8,2.4,6.2,1.9c2.7-0.5,4.9-2.7,5.5-5.4c0.9-4.4-2.5-8.3-6.8-8.3
		c-1.6,0-3.1,0.6-4.3,1.5c-0.8,0.7-2,0.6-2.9,0c-1.5-1.2-3.4-1.7-5.5-1.3c-2.7,0.5-5,2.7-5.5,5.4c-0.4,2.1,0.1,4,1.3,5.5
		c0.6,0.8,0.7,2,0,2.8c-1.1,1.5-1.7,3.4-1.3,5.4c0.4,2.3,2,4.2,4.1,5.1c0.9,0.4,1.9,0.6,2.7,0.6c1,0,2,0.6,2.3,1.5
		c1,2.4,3.3,4.2,6.1,4.3c3.8,0.2,7.2-3,7.2-6.8c0.1-3.9-3.1-7-6.9-7l0,0c-1,0-2-0.7-2.4-1.6c-0.4-0.9-1-1.8-1.7-2.4
		c-0.3-0.2-0.3-0.7,0-0.9c0.1-0.1,0.2-0.2,0.3-0.3C395.9,488,396.6,487.9,397.1,488.4z"/>
	<path fill="none" stroke="#929497" stroke-width="1.3289" stroke-linejoin="round" stroke-miterlimit="10" d="M397.1,488.4
		c1.5,1.5,3.8,2.4,6.2,1.9c2.7-0.5,4.9-2.7,5.5-5.4c0.9-4.4-2.5-8.3-6.8-8.3c-1.6,0-3.1,0.6-4.3,1.5c-0.8,0.7-2,0.6-2.9,0
		c-1.5-1.2-3.4-1.7-5.5-1.3c-2.7,0.5-5,2.7-5.5,5.4c-0.4,2.1,0.1,4,1.3,5.5c0.6,0.8,0.7,2,0,2.8c-1.1,1.5-1.7,3.4-1.3,5.4
		c0.4,2.3,2,4.2,4.1,5.1c0.9,0.4,1.9,0.6,2.7,0.6c1,0,2,0.6,2.3,1.5c1,2.4,3.3,4.2,6.1,4.3c3.8,0.2,7.2-3,7.2-6.8
		c0.1-3.9-3.1-7-6.9-7l0,0c-1,0-2-0.7-2.4-1.6c-0.4-0.9-1-1.8-1.7-2.4c-0.3-0.2-0.3-0.7,0-0.9c0.1-0.1,0.2-0.2,0.3-0.3
		C395.9,488,396.6,487.9,397.1,488.4z"/>
</g>
<g opacity="0.45" filter="url(#ds1)">
	<path fill="#D0D2D3" d="M804.7,527.1c-14.1,7.7-12.3,34.5,1.4,39.2c0.5,0,2.9,24.6,2.9,24.6c-5.3,2.6-2.4,8.1,1.3,7.9
		c2.5-0.2,5.7-0.4,8.2-0.5c4.1-0.2,5.8-6,0.2-8c0,0-0.7-24.7-0.2-24.7c12.2-4.8,14.4-32.5-1.4-39.2
		C813.3,526.6,808.5,526.9,804.7,527.1z"/>
	<path fill="none" stroke="#929497" stroke-width="1.4546" stroke-linejoin="round" stroke-miterlimit="10" d="M804.7,527.1
		c-14.1,7.7-12.3,34.5,1.4,39.2c0.5,0,2.9,24.6,2.9,24.6c-5.3,2.6-2.4,8.1,1.3,7.9c2.5-0.2,5.7-0.4,8.2-0.5c4.1-0.2,5.8-6,0.2-8
		c0,0-0.7-24.7-0.2-24.7c12.2-4.8,14.4-32.5-1.4-39.2C813.3,526.6,808.5,526.9,804.7,527.1z"/>
</g>
<g opacity="0.25" filter="url(#ds1)">
	<path fill="#D0D2D3" d="M874.2,544.5l-9.2-1.5c-1.7-0.3-3-1.6-3.3-3.4l-1.4-9.2c-0.3-1.7,0.6-3.4,2.2-4.2l8.3-4.2
		c1.6-0.8,3.4-0.5,4.6,0.8l6.5,6.6c1.2,1.2,1.5,3.1,0.7,4.7l-4.3,8.3C877.6,543.9,875.9,544.7,874.2,544.5z"/>
	<path fill="none" stroke="#929497" stroke-width="1.3289" stroke-linejoin="round" stroke-miterlimit="10" d="M874.2,544.5
		l-9.2-1.5c-1.7-0.3-3-1.6-3.3-3.4l-1.4-9.2c-0.3-1.7,0.6-3.4,2.2-4.2l8.3-4.2c1.6-0.8,3.4-0.5,4.6,0.8l6.5,6.6
		c1.2,1.2,1.5,3.1,0.7,4.7l-4.3,8.3C877.6,543.9,875.9,544.7,874.2,544.5z"/>
</g>
<g opacity="0.25" filter="url(#ds1)">
	<path fill="#C99BD3" d="M846,491.3c-0.1,0-0.1,0-0.2-0.1c-0.9-0.4-1.7-0.9-2.6-1.2c-1-0.3-1.9-0.3-2.9,0c-2.7,0.8-4.2,3.7-3.3,6.4
		c0.5,1.6,1.5,2.9,1.8,4.6c0.2,0.9,0.2,1.8,0.5,2.6c0.8,2.7,3.7,4.2,6.4,3.3c2.4-0.8,2.9-3.2,4.4-5c0.8-0.9,1.6-1.5,2.1-2.7
		c0.5-1.2,0.5-2.5,0.1-3.7c-0.6-1.8-2.1-3.3-3.9-3.7C847.5,491.7,846.7,491.6,846,491.3z"/>
	<path fill="none" stroke="#9E6AA5" stroke-width="1.5" stroke-miterlimit="10" d="M846,491.3c-0.1,0-0.1,0-0.2-0.1
		c-0.9-0.4-1.7-0.9-2.6-1.2c-1-0.3-1.9-0.3-2.9,0c-2.7,0.8-4.2,3.7-3.3,6.4c0.5,1.6,1.5,2.9,1.8,4.6c0.2,0.9,0.2,1.8,0.5,2.6
		c0.8,2.7,3.7,4.2,6.4,3.3c2.4-0.8,2.9-3.2,4.4-5c0.8-0.9,1.6-1.5,2.1-2.7c0.5-1.2,0.5-2.5,0.1-3.7c-0.6-1.8-2.1-3.3-3.9-3.7
		C847.5,491.7,846.7,491.6,846,491.3z"/>
</g>
<g filter="url(#ds1)">
	<circle fill="#F4F4F4" cx="665.9" cy="572.3" r="5.1"/>
	<g>
		
			<rect x="665.1" y="569" transform="matrix(0.1874 0.9823 -0.9823 0.1874 1103.2207 -189.0195)" fill="#3F3F3F" width="1.5" height="6.6"/>
		
			<rect x="665.1" y="569" transform="matrix(-0.9823 0.1874 -0.1874 -0.9823 1427.1768 1009.6625)" fill="#3F3F3F" width="1.5" height="6.6"/>
	</g>
</g>
<g filter="url(#ds1)">
	<circle fill="#F4F4F4" cx="684.9" cy="555.7" r="5.1"/>
	<g>
		
			<rect x="684.1" y="552.4" transform="matrix(0.1874 0.9823 -0.9823 0.1874 1102.4144 -221.1631)" fill="#3F3F3F" width="1.5" height="6.6"/>
		
			<rect x="684.1" y="552.4" transform="matrix(-0.9823 0.1874 -0.1874 -0.9823 1461.7863 973.2721)" fill="#3F3F3F" width="1.5" height="6.6"/>
	</g>
</g>
<g opacity="0.45">
	<g>
		<g opacity="0.5">
			<path fill="none" stroke="#000000" stroke-width="2" stroke-linecap="round" stroke-miterlimit="10" d="M548.2,486.3
				c0,6.1-5,11.1-11.1,11.1H490c-6.1,0-11.1-5-11.1-11.1"/>
		</g>
		<g>
			<path fill="none" stroke="#FFFFFF" stroke-width="2" stroke-linecap="round" stroke-miterlimit="10" d="M547.2,485.3
				c0,6.1-5,11.1-11.1,11.1H489c-6.1,0-11.1-5-11.1-11.1"/>
		</g>
	</g>
	<g>
		<g opacity="0.5">
			<rect x="502.2" y="497.4" width="22.6" height="12.1"/>
		</g>
		<g>
			<rect x="501.2" y="496.4" fill="#FFFFFF" width="22.6" height="12.1"/>
		</g>
	</g>
	<g>
		<g>
			<path fill="#6D6E70" d="M509.3,504.6l1.7-2v0l-2.5-0.6l0.7-2.2l2.4,1l-0.2-2.6h2.3l-0.2,2.6l2.5-1l0.7,2.2l-2.6,0.6v0l1.7,2
				l-1.8,1.3l-1.4-2.2h0l-1.4,2.2L509.3,504.6z"/>
		</g>
	</g>
</g>
<g opacity="0.45">
	<g>
		<g opacity="0.5">
			<path fill="none" stroke="#000000" stroke-width="2" stroke-linecap="round" stroke-miterlimit="10" d="M456.3,651.4
				c0,6.1-5,11.1-11.1,11.1h-12.6c-6.1,0-11.1-5-11.1-11.1"/>
		</g>
		<g>
			<path fill="none" stroke="#FFFFFF" stroke-width="2" stroke-linecap="round" stroke-miterlimit="10" d="M455.3,650.4
				c0,6.1-5,11.1-11.1,11.1h-12.6c-6.1,0-11.1-5-11.1-11.1"/>
		</g>
	</g>
	<g>
		<g opacity="0.5">
			<rect x="430.6" y="662.1" width="16.6" height="12.1"/>
		</g>
		<g>
			<rect x="429.6" y="661.1" fill="#FFFFFF" width="16.6" height="12.1"/>
		</g>
	</g>
	<g>
		<g>
			<path fill="#6D6E70" d="M434.7,669.7l1.7-2v0l-2.5-0.6l0.7-2.2l2.4,1l-0.2-2.6h2.3l-0.2,2.6l2.5-1l0.7,2.2l-2.6,0.6v0l1.7,2
				l-1.8,1.3l-1.4-2.2h0l-1.4,2.2L434.7,669.7z"/>
		</g>
	</g>
</g>
<g opacity="0.45">
	<g>
		<g opacity="0.5">
			<path fill="none" stroke="#000000" stroke-width="2" stroke-linecap="round" stroke-miterlimit="10" d="M431.4,415.5
				c0,6.1-5,11.1-11.1,11.1h-12.6c-6.1,0-11.1-5-11.1-11.1"/>
		</g>
		<g>
			<path fill="none" stroke="#FFFFFF" stroke-width="2" stroke-linecap="round" stroke-miterlimit="10" d="M430.4,414.5
				c0,6.1-5,11.1-11.1,11.1h-12.6c-6.1,0-11.1-5-11.1-11.1"/>
		</g>
	</g>
	<g>
		<g opacity="0.5">
			<rect x="405.7" y="426.2" width="16.6" height="12.1"/>
		</g>
		<g>
			<rect x="404.7" y="425.2" fill="#FFFFFF" width="16.6" height="12.1"/>
		</g>
	</g>
	<g>
		<g>
			<path fill="#6D6E70" d="M409.8,433.8l1.7-2v0l-2.5-0.6l0.7-2.2l2.4,1l-0.2-2.6h2.3L414,430l2.5-1l0.7,2.2l-2.6,0.6v0l1.7,2
				l-1.8,1.3l-1.4-2.2h0l-1.4,2.2L409.8,433.8z"/>
		</g>
	</g>
</g>
<g opacity="0.45">
	<g>
		<g opacity="0.5">
			<path fill="none" stroke="#000000" stroke-width="2" stroke-linecap="round" stroke-miterlimit="10" d="M378.9,651
				c0,6.1-5,11.1-11.1,11.1h-12.6c-6.1,0-11.1-5-11.1-11.1"/>
		</g>
		<g>
			<path fill="none" stroke="#FFFFFF" stroke-width="2" stroke-linecap="round" stroke-miterlimit="10" d="M377.9,650
				c0,6.1-5,11.1-11.1,11.1h-12.6c-6.1,0-11.1-5-11.1-11.1"/>
		</g>
	</g>
	<g>
		<g opacity="0.5">
			<rect x="353.2" y="661.7" width="16.6" height="12.1"/>
		</g>
		<g>
			<rect x="352.2" y="660.7" fill="#FFFFFF" width="16.6" height="12.1"/>
		</g>
	</g>
	<g>
		<g>
			<path fill="#6D6E70" d="M357.3,669.4l1.7-2v0l-2.5-0.6l0.7-2.2l2.4,1l-0.2-2.6h2.3l-0.2,2.6l2.5-1l0.7,2.2l-2.6,0.6v0l1.7,2
				l-1.8,1.3l-1.4-2.2h0l-1.4,2.2L357.3,669.4z"/>
		</g>
	</g>
</g>
<g opacity="0.45">
	<g>
		<g opacity="0.5">
			<path fill="none" stroke="#000000" stroke-width="2" stroke-linecap="round" stroke-miterlimit="10" d="M271.8,537.1
				c0,6.1-5,11.1-11.1,11.1h-23.6c-6.1,0-11.1-5-11.1-11.1"/>
		</g>
		<g>
			<path fill="none" stroke="#FFFFFF" stroke-width="2" stroke-linecap="round" stroke-miterlimit="10" d="M270.8,536.1
				c0,6.1-5,11.1-11.1,11.1h-23.6c-6.1,0-11.1-5-11.1-11.1"/>
		</g>
	</g>
	<g>
		<g opacity="0.5">
			<rect x="237.7" y="548.1" width="22.6" height="12.1"/>
		</g>
		<g>
			<rect x="236.7" y="547.1" fill="#FFFFFF" width="22.6" height="12.1"/>
		</g>
	</g>
	<g>
		<g>
			<path fill="#6D6E70" d="M244.7,555.4l1.7-2v0l-2.5-0.6l0.7-2.2l2.4,1l-0.2-2.6h2.3l-0.2,2.6l2.5-1l0.7,2.2l-2.6,0.6v0l1.7,2
				l-1.8,1.3l-1.4-2.2h0l-1.4,2.2L244.7,555.4z"/>
		</g>
	</g>
</g>
</svg>
