<?xml version="1.0" encoding="utf-8"?>
<!-- Generator: Adobe Illustrator 18.1.1, SVG Export Plug-In . SVG Version: 6.00 Build 0)  -->
<!DOCTYPE svg PUBLIC "-//W3C//DTD SVG 1.1//EN" "http://www.w3.org/Graphics/SVG/1.1/DTD/svg11.dtd">
<svg version="1.1" id="Layer_1" xmlns="http://www.w3.org/2000/svg" xmlns:xlink="http://www.w3.org/1999/xlink" x="0px" y="0px"
	 viewBox="0 0 920 690" enable-background="new 0 0 920 690" xml:space="preserve">
<filter  height="170%" width="170%" x="-30%" id="ds1" y="-20%">
	<feOffset  result="offOut" dy="1" dx="0" in="SourceAlpha"></feOffset>
	<feGaussianBlur  result="blurOut" stdDeviation="2" in="offOut"></feGaussianBlur>
	<feComponentTransfer>
		<feFuncA  type="linear" slope="0.5"></feFuncA>
	</feComponentTransfer>
	<feMerge>
		<feMergeNode></feMergeNode>
		<feMergeNode  in="SourceGraphic"></feMergeNode>
	</feMerge>
</filter>
<g>
	<g filter="url(#ds1)">
		<path fill="#D0D2D3" d="M684.3,385c-0.1-1.6-1.3-3.6-2.8-4.4l-6.7-3.4c-1.5-0.8-3.8-0.6-5.2,0.3l-6.3,4.1c-1.4,0.9-2.5,3-2.5,4.6
			l0,6.7c0,0.8-0.1,2.7-0.1,2.7s-1.4,1.9-2,2.5l-6.2,6.7c-1.1,1.2-1.4,3.4-0.6,4.8l4.5,8c0.8,1.4,2.8,2.4,4.4,2l9-1.8
			c1.6-0.3,3.1-1.9,3.3-3.6l1.1-9.1c0.2-1.6,0.4-3,0.4-3s1.1-0.7,2.5-1.6l5.3-3.4c1.4-0.9,2.5-3,2.4-4.6L684.3,385z"/>
		<path fill="none" stroke="#929497" stroke-width="1.4546" stroke-linejoin="round" stroke-miterlimit="10" d="M684.3,385
			c-0.1-1.6-1.3-3.6-2.8-4.4l-6.7-3.4c-1.5-0.8-3.8-0.6-5.2,0.3l-6.3,4.1c-1.4,0.9-2.5,3-2.5,4.6l0,6.7c0,0.8-0.1,2.7-0.1,2.7
			s-1.4,1.9-2,2.5l-6.2,6.7c-1.1,1.2-1.4,3.4-0.6,4.8l4.5,8c0.8,1.4,2.8,2.4,4.4,2l9-1.8c1.6-0.3,3.1-1.9,3.3-3.6l1.1-9.1
			c0.2-1.6,0.4-3,0.4-3s1.1-0.7,2.5-1.6l5.3-3.4c1.4-0.9,2.5-3,2.4-4.6L684.3,385z"/>
	</g>
	<g filter="url(#ds1)">
		<circle fill="#F4F4F4" cx="658.5" cy="382.5" r="5.1"/>
		<g>
			<rect x="657.7" y="379.2" fill="#3F3F3F" width="1.5" height="6.6"/>
			<rect x="655.2" y="381.8" fill="#3F3F3F" width="6.6" height="1.5"/>
		</g>
	</g>
	<g filter="url(#ds1)">
		<circle fill="#F4F4F4" cx="681.3" cy="408.3" r="5.1"/>
		<g>
			<rect x="680.5" y="405" fill="#3F3F3F" width="1.5" height="6.6"/>
			<rect x="678" y="407.5" fill="#3F3F3F" width="6.6" height="1.5"/>
		</g>
	</g>
	<g filter="url(#ds1)">
		<circle fill="#3F3F3F" cx="665.8" cy="392.9" r="3.7"/>
		<rect x="663.4" y="392.2" fill="#FFFFFF" width="4.9" height="1.4"/>
	</g>
	<g filter="url(#ds1)">
		<circle fill="#3F3F3F" cx="675.5" cy="395.1" r="3.7"/>
		<rect x="673.1" y="394.4" fill="#FFFFFF" width="4.9" height="1.4"/>
	</g>
</g>
<g>
	<g filter="url(#ds1)">
		<path fill="#D0D2D3" d="M727.1,402.6l-5.8,4.5c-1.4,0.9-2.3,2.9-1.9,4.6l1,5c0.3,1.6,1.9,3.5,3.4,4.1l6.1,2.6
			c1.5,0.6,3.9,0.4,5.3-0.5l4.3-2.8c1.4-0.9,2.3-2.9,1.9-4.6c0,0-0.7-7.4-0.7-7.6s5.9-4.8,5.9-4.8c1.4-0.9,2.3-2.9,1.9-4.6l-0.7-7.7
			l5.9-4.7c1.4-0.9,2.3-2.9,1.9-4.6l-1-5c-0.3-1.6-1.9-3.5-3.4-4.1l-6.1-2.6c-1.5-0.6-3.9-0.4-5.3,0.5l-4.3,2.8
			c-1.4,0.9-2.3,2.9-1.9,4.6l0.7,7.6l-5.9,4.8c-1.4,0.9-2.3,2.9-1.9,4.6L727.1,402.6z"/>
		<path fill="none" stroke="#929497" stroke-width="1.4546" stroke-linejoin="round" stroke-miterlimit="10" d="M727.1,402.6
			l-5.8,4.5c-1.4,0.9-2.3,2.9-1.9,4.6l1,5c0.3,1.6,1.9,3.5,3.4,4.1l6.1,2.6c1.5,0.6,3.9,0.4,5.3-0.5l4.3-2.8
			c1.4-0.9,2.3-2.9,1.9-4.6c0,0-0.7-7.4-0.7-7.6s5.9-4.8,5.9-4.8c1.4-0.9,2.3-2.9,1.9-4.6l-0.7-7.7l5.9-4.7c1.4-0.9,2.3-2.9,1.9-4.6
			l-1-5c-0.3-1.6-1.9-3.5-3.4-4.1l-6.1-2.6c-1.5-0.6-3.9-0.4-5.3,0.5l-4.3,2.8c-1.4,0.9-2.3,2.9-1.9,4.6l0.7,7.6l-5.9,4.8
			c-1.4,0.9-2.3,2.9-1.9,4.6L727.1,402.6z"/>
	</g>
	<g filter="url(#ds1)">
		<circle fill="#F4F4F4" cx="714.4" cy="407.5" r="5.1"/>
		<g>
			<rect x="713.6" y="404.2" fill="#3F3F3F" width="1.5" height="6.6"/>
			<rect x="711.1" y="406.7" fill="#3F3F3F" width="6.6" height="1.5"/>
		</g>
	</g>
	<g filter="url(#ds1)">
		<circle fill="#F4F4F4" cx="753.4" cy="404.6" r="5.1"/>
		<g>
			<rect x="752.7" y="401.3" fill="#3F3F3F" width="1.5" height="6.6"/>
			<rect x="750.2" y="403.9" fill="#3F3F3F" width="6.6" height="1.5"/>
		</g>
	</g>
	<g filter="url(#ds1)">
		<circle fill="#3F3F3F" cx="743.2" cy="399.3" r="3.7"/>
		<rect x="740.8" y="398.6" fill="#FFFFFF" width="4.9" height="1.4"/>
	</g>
	<g filter="url(#ds1)">
		<circle fill="#3F3F3F" cx="725.6" cy="412.1" r="3.7"/>
		<rect x="723.2" y="411.4" fill="#FFFFFF" width="4.9" height="1.4"/>
	</g>
</g>
<g opacity="0.45" filter="url(#ds1)">
	<path fill="#D0D2D3" stroke="#929497" stroke-width="1.3289" stroke-linejoin="round" stroke-miterlimit="10" d="M241.7,536.6
		l-2.9-8.9c-0.5-1.7,0.1-3.5,1.5-4.5l7.5-5.5c1.4-1,3.3-1,4.7,0l7.5,5.5c1.4,1,2,2.8,1.5,4.5l-2.9,8.9c-0.5,1.7-2.1,2.8-3.8,2.8
		h-9.3C243.8,539.4,242.3,538.3,241.7,536.6z"/>
	<path fill="#C99BD3" stroke="#9E6AA5" stroke-width="1.5" stroke-miterlimit="10" d="M247.3,512.7c0-0.1,0-0.1,0-0.2
		c-0.1-1,0.1-1.9-0.2-2.9c-0.2-1-0.6-1.9-1.3-2.6c-2-2-5.2-2-7.2,0c-1.2,1.2-1.9,2.6-3.3,3.7c-0.7,0.6-1.5,1-2.1,1.6
		c-2,2-2,5.2,0,7.2c1.8,1.8,4.2,1.1,6.4,1.6c1.2,0.3,2.1,0.7,3.4,0.6c1.3-0.1,2.4-0.7,3.3-1.6c1.3-1.3,1.9-3.3,1.5-5.1
		C247.6,514.3,247.3,513.6,247.3,512.7z"/>
</g>
<g opacity="0.45" filter="url(#ds1)">
	<circle fill="#D0D2D3" cx="437.9" cy="647.7" r="6.8"/>
	
		<circle fill="none" stroke="#929497" stroke-width="1.3289" stroke-linejoin="round" stroke-miterlimit="10" cx="437.9" cy="647.7" r="6.8"/>
</g>
<g opacity="0.45" filter="url(#ds1)">
	<path fill="#D0D2D3" d="M492.8,472.2l37.9-1.4c3.1-0.1,5.6,2.4,5.6,5.4v7.7c0,3.3-2.8,5.8-6.1,5.4l-40.2-4.6
		c-0.7-0.1-1.3-0.7-1.3-1.4v-7.1C488.8,474.1,490.6,472.3,492.8,472.2z"/>
	<path fill="none" stroke="#929497" stroke-width="1.5" stroke-linejoin="round" stroke-miterlimit="10" d="M492.8,472.2l37.9-1.4
		c3.1-0.1,5.6,2.4,5.6,5.4v7.7c0,3.3-2.8,5.8-6.1,5.4l-40.2-4.6c-0.7-0.1-1.3-0.7-1.3-1.4v-7.1C488.8,474.1,490.6,472.3,492.8,472.2
		z"/>
</g>
<g opacity="0.2" filter="url(#ds1)">
	<circle fill="#6AE6A7" cx="413.1" cy="412.2" r="6.8"/>
	
		<circle fill="none" stroke="#3F9166" stroke-width="1.489" stroke-linejoin="round" stroke-miterlimit="10" cx="413.1" cy="412.2" r="6.8"/>
</g>
<g opacity="0.45" filter="url(#ds1)">
	<circle fill="#8CD0C6" cx="77.4" cy="282.3" r="3"/>
	
		<circle fill="none" stroke="#00B8B5" stroke-width="1.489" stroke-linejoin="round" stroke-miterlimit="10" cx="77.4" cy="282.3" r="3"/>
</g>
<g opacity="0.45" filter="url(#ds1)">
	<circle fill="#8CD0C6" cx="78" cy="293.3" r="3"/>
	
		<circle fill="none" stroke="#00B8B5" stroke-width="1.489" stroke-linejoin="round" stroke-miterlimit="10" cx="78" cy="293.3" r="3"/>
</g>
<g opacity="0.45" filter="url(#ds1)">
	<circle fill="#8CD0C6" cx="66.9" cy="289.5" r="3"/>
	
		<circle fill="none" stroke="#00B8B5" stroke-width="1.489" stroke-linejoin="round" stroke-miterlimit="10" cx="66.9" cy="289.5" r="3"/>
</g>
<g opacity="0.45" filter="url(#ds1)">
	<circle fill="#8CD0C6" cx="81" cy="302.7" r="3"/>
	
		<circle fill="none" stroke="#00B8B5" stroke-width="1.489" stroke-linejoin="round" stroke-miterlimit="10" cx="81" cy="302.7" r="3"/>
</g>
<g opacity="0.45" filter="url(#ds1)">
	<circle fill="#8CD0C6" cx="79.2" cy="273.8" r="3"/>
	
		<circle fill="none" stroke="#00B8B5" stroke-width="1.489" stroke-linejoin="round" stroke-miterlimit="10" cx="79.2" cy="273.8" r="3"/>
</g>
<g opacity="0.45" filter="url(#ds1)">
	<circle fill="#8CD0C6" cx="69.9" cy="300.5" r="3"/>
	
		<circle fill="none" stroke="#00B8B5" stroke-width="1.489" stroke-linejoin="round" stroke-miterlimit="10" cx="69.9" cy="300.5" r="3"/>
</g>
<g opacity="0.45" filter="url(#ds1)">
	<circle fill="#8CD0C6" cx="81" cy="265.4" r="3"/>
	
		<circle fill="none" stroke="#00B8B5" stroke-width="1.489" stroke-linejoin="round" stroke-miterlimit="10" cx="81" cy="265.4" r="3"/>
</g>
<g opacity="0.45" filter="url(#ds1)">
	<circle fill="#8CD0C6" cx="66.3" cy="277.5" r="3"/>
	
		<circle fill="none" stroke="#00B8B5" stroke-width="1.489" stroke-linejoin="round" stroke-miterlimit="10" cx="66.3" cy="277.5" r="3"/>
</g>
<g opacity="0.45" filter="url(#ds1)">
	<circle fill="#8CD0C6" cx="68.8" cy="267.6" r="3"/>
	
		<circle fill="none" stroke="#00B8B5" stroke-width="1.489" stroke-linejoin="round" stroke-miterlimit="10" cx="68.8" cy="267.6" r="3"/>
</g>
<g opacity="0.45" filter="url(#ds1)">
	<path fill="#D0D2D3" stroke="#929497" stroke-width="1.3289" stroke-linejoin="round" stroke-miterlimit="10" d="M515.5,274.3
		l-2.9-8.9c-0.5-1.7,0.1-3.5,1.5-4.5l7.5-5.5c1.4-1,3.3-1,4.7,0l7.5,5.5c1.4,1,2,2.8,1.5,4.5l-2.9,8.9c-0.5,1.7-2.1,2.8-3.8,2.8
		h-9.3C517.6,277.1,516.1,275.9,515.5,274.3z"/>
	<path fill="#C99BD3" stroke="#9E6AA5" stroke-width="1.5" stroke-miterlimit="10" d="M521.1,250.4c0-0.1,0-0.1,0-0.2
		c-0.1-1,0.1-1.9-0.2-2.9c-0.2-1-0.6-1.9-1.3-2.6c-2-2-5.2-2-7.2,0c-1.2,1.2-1.9,2.6-3.3,3.7c-0.7,0.6-1.5,1-2.1,1.6
		c-2,2-2,5.2,0,7.2c1.8,1.8,4.2,1.1,6.4,1.6c1.2,0.3,2.1,0.7,3.4,0.6c1.3-0.1,2.4-0.7,3.3-1.6c1.3-1.3,1.9-3.3,1.5-5.1
		C521.4,251.9,521.1,251.2,521.1,250.4z"/>
</g>
<g opacity="0.45" filter="url(#ds1)">
	<path fill="#D0D2D3" stroke="#929497" stroke-width="1.3289" stroke-linejoin="round" stroke-miterlimit="10" d="M520.7,235.6
		l-2.9-8.9c-0.5-1.7,0.1-3.5,1.5-4.5l7.5-5.5c1.4-1,3.3-1,4.7,0l7.5,5.5c1.4,1,2,2.8,1.5,4.5l-2.9,8.9c-0.5,1.7-2.1,2.8-3.8,2.8
		h-9.3C522.8,238.3,521.2,237.2,520.7,235.6z"/>
	<path fill="#C99BD3" stroke="#9E6AA5" stroke-width="1.5" stroke-miterlimit="10" d="M526.2,211.7c0-0.1,0-0.1,0-0.2
		c-0.1-1,0.1-1.9-0.2-2.9c-0.2-1-0.6-1.9-1.3-2.6c-2-2-5.2-2-7.2,0c-1.2,1.2-1.9,2.6-3.3,3.7c-0.7,0.6-1.5,1-2.1,1.6
		c-2,2-2,5.2,0,7.2c1.8,1.8,4.2,1.1,6.4,1.6c1.2,0.3,2.1,0.7,3.4,0.6c1.3-0.1,2.4-0.7,3.3-1.6c1.3-1.3,1.9-3.3,1.5-5.1
		C526.6,213.2,526.3,212.5,526.2,211.7z"/>
</g>
<g opacity="0.2" filter="url(#ds1)">
	<circle fill="#6AE6A7" cx="96.1" cy="639.3" r="6.9"/>
	
		<circle fill="none" stroke="#3F9166" stroke-width="1.489" stroke-linejoin="round" stroke-miterlimit="10" cx="96.1" cy="639.3" r="6.9"/>
</g>
<g opacity="0.2" filter="url(#ds1)">
	<circle fill="#6AE6A7" cx="78.3" cy="633.8" r="6.9"/>
	
		<circle fill="none" stroke="#3F9166" stroke-width="1.489" stroke-linejoin="round" stroke-miterlimit="10" cx="78.3" cy="633.8" r="6.9"/>
</g>
<g opacity="0.2" filter="url(#ds1)">
	<circle fill="#6AE6A7" cx="76.6" cy="615" r="6.9"/>
	
		<circle fill="none" stroke="#3F9166" stroke-width="1.489" stroke-linejoin="round" stroke-miterlimit="10" cx="76.6" cy="615" r="6.9"/>
</g>
<g opacity="0.2" filter="url(#ds1)">
	<circle fill="#6AE6A7" cx="59.2" cy="618.6" r="6.9"/>
	
		<circle fill="none" stroke="#3F9166" stroke-width="1.489" stroke-linejoin="round" stroke-miterlimit="10" cx="59.2" cy="618.6" r="6.9"/>
</g>
<g opacity="0.2" filter="url(#ds1)">
	<circle fill="#6AE6A7" cx="60.2" cy="639.1" r="6.9"/>
	
		<circle fill="none" stroke="#3F9166" stroke-width="1.489" stroke-linejoin="round" stroke-miterlimit="10" cx="60.2" cy="639.1" r="6.9"/>
</g>
<g opacity="0.2" filter="url(#ds1)">
	<circle fill="#6AE6A7" cx="94.5" cy="618.6" r="6.9"/>
	
		<circle fill="none" stroke="#3F9166" stroke-width="1.489" stroke-linejoin="round" stroke-miterlimit="10" cx="94.5" cy="618.6" r="6.9"/>
</g>
<g opacity="0.45" filter="url(#ds1)">
	<circle fill="#D0D2D3" cx="360.6" cy="645.9" r="6.8"/>
	
		<circle fill="none" stroke="#929497" stroke-width="1.3289" stroke-linejoin="round" stroke-miterlimit="10" cx="360.6" cy="645.9" r="6.8"/>
</g>
<g opacity="0.45" filter="url(#ds1)">
	<path fill="#D0D2D3" d="M397.1,488.4c1.5,1.5,3.8,2.4,6.2,1.9c2.7-0.5,4.9-2.7,5.5-5.4c0.9-4.4-2.5-8.3-6.8-8.3
		c-1.6,0-3.1,0.6-4.3,1.5c-0.8,0.7-2,0.6-2.9,0c-1.5-1.2-3.4-1.7-5.5-1.3c-2.7,0.5-5,2.7-5.5,5.4c-0.4,2.1,0.1,4,1.3,5.5
		c0.6,0.8,0.7,2,0,2.8c-1.1,1.5-1.7,3.4-1.3,5.4c0.4,2.3,2,4.2,4.1,5.1c0.9,0.4,1.9,0.6,2.7,0.6c1,0,2,0.6,2.3,1.5
		c1,2.4,3.3,4.2,6.1,4.3c3.8,0.2,7.2-3,7.2-6.8c0.1-3.9-3.1-7-6.9-7l0,0c-1,0-2-0.7-2.4-1.6c-0.4-0.9-1-1.8-1.7-2.4
		c-0.3-0.2-0.3-0.7,0-0.9c0.1-0.1,0.2-0.2,0.3-0.3C395.9,488,396.6,487.9,397.1,488.4z"/>
	<path fill="none" stroke="#929497" stroke-width="1.3289" stroke-linejoin="round" stroke-miterlimit="10" d="M397.1,488.4
		c1.5,1.5,3.8,2.4,6.2,1.9c2.7-0.5,4.9-2.7,5.5-5.4c0.9-4.4-2.5-8.3-6.8-8.3c-1.6,0-3.1,0.6-4.3,1.5c-0.8,0.7-2,0.6-2.9,0
		c-1.5-1.2-3.4-1.7-5.5-1.3c-2.7,0.5-5,2.7-5.5,5.4c-0.4,2.1,0.1,4,1.3,5.5c0.6,0.8,0.7,2,0,2.8c-1.1,1.5-1.7,3.4-1.3,5.4
		c0.4,2.3,2,4.2,4.1,5.1c0.9,0.4,1.9,0.6,2.7,0.6c1,0,2,0.6,2.3,1.5c1,2.4,3.3,4.2,6.1,4.3c3.8,0.2,7.2-3,7.2-6.8
		c0.1-3.9-3.1-7-6.9-7l0,0c-1,0-2-0.7-2.4-1.6c-0.4-0.9-1-1.8-1.7-2.4c-0.3-0.2-0.3-0.7,0-0.9c0.1-0.1,0.2-0.2,0.3-0.3
		C395.9,488,396.6,487.9,397.1,488.4z"/>
</g>
<g opacity="0.58" filter="url(#ds1)">
	<path fill="#F4F4F4" d="M309.3,437.3l-5.9,4.5c-1.4,0.9-2.3,2.9-2,4.5l1,5c0.3,1.6,1.8,3.5,3.3,4.1l6.1,2.6
		c1.5,0.7,3.9,0.5,5.3-0.4l4.3-2.7c1.4-0.9,2.3-2.9,2-4.5c0,0-0.6-7.4-0.7-7.6c0-0.2,6-4.7,6-4.7c1.4-0.9,2.3-2.9,2-4.5l-0.6-7.7
		l5.9-4.6c1.4-0.9,2.3-2.9,2-4.5l-1-5c-0.3-1.6-1.8-3.5-3.3-4.1l-6.1-2.6c-1.5-0.7-3.9-0.5-5.3,0.4l-4.3,2.7c-1.4,0.9-2.3,2.9-2,4.5
		l0.7,7.6l-6,4.7c-1.4,0.9-2.3,2.9-2,4.5L309.3,437.3z"/>
	<circle fill="#F4F4F4" cx="335.6" cy="439.6" r="5.1"/>
	<circle fill="#F4F4F4" cx="296.5" cy="441.9" r="5.1"/>
</g>
<g opacity="0.58" filter="url(#ds1)">
	<path fill="#F4F4F4" d="M31.1,540.5l-5.9,4.5c-1.4,0.9-2.3,2.9-2,4.5l1,5c0.3,1.6,1.8,3.5,3.3,4.1l6.1,2.6c1.5,0.7,3.9,0.5,5.3-0.4
		l4.3-2.7c1.4-0.9,2.3-2.9,2-4.5c0,0-0.6-7.4-0.7-7.6c0-0.2,6-4.7,6-4.7c1.4-0.9,2.3-2.9,2-4.5l-0.6-7.7l5.9-4.6
		c1.4-0.9,2.3-2.9,2-4.5l-1-5c-0.3-1.6-1.8-3.5-3.3-4.1l-6.1-2.6c-1.5-0.7-3.9-0.5-5.3,0.4l-4.3,2.7c-1.4,0.9-2.3,2.9-2,4.5l0.7,7.6
		l-6,4.7c-1.4,0.9-2.3,2.9-2,4.5L31.1,540.5z"/>
	<circle fill="#F4F4F4" cx="57.4" cy="542.7" r="5.1"/>
	<circle fill="#F4F4F4" cx="18.3" cy="545.1" r="5.1"/>
</g>
<g opacity="0.58" filter="url(#ds1)">
	<path fill="#F4F4F4" d="M282.1,421.3c-0.1-1.6-1.3-3.6-2.8-4.4l-6.7-3.4c-1.5-0.8-3.8-0.6-5.2,0.3l-6.3,4.1c-1.4,0.9-2.5,3-2.5,4.6
		l0,6.7c0,0.8-0.1,2.7-0.1,2.7s-1.4,1.9-2,2.5l-6.2,6.7c-1.1,1.2-1.4,3.4-0.6,4.8l4.5,8c0.8,1.4,2.8,2.4,4.4,2l9-1.8
		c1.6-0.3,3.1-1.9,3.3-3.6l1.1-9.1c0.2-1.6,0.4-3,0.4-3s1.1-0.7,2.5-1.6l5.3-3.4c1.4-0.9,2.5-3,2.4-4.6L282.1,421.3z"/>
	<circle fill="#F4F4F4" cx="256.2" cy="418.9" r="5.1"/>
	<circle fill="#F4F4F4" cx="279" cy="444.7" r="5.1"/>
</g>
<g opacity="0.58" filter="url(#ds1)">
	<path fill="#F4F4F4" d="M56.4,436.6c-0.1-1.6-1.3-3.6-2.8-4.4l-6.7-3.4c-1.5-0.8-3.8-0.6-5.2,0.3l-6.3,4.1c-1.4,0.9-2.5,3-2.5,4.6
		l0,6.7c0,0.8-0.1,2.7-0.1,2.7s-1.4,1.9-2,2.5l-6.2,6.7c-1.1,1.2-1.4,3.4-0.6,4.8l4.5,8c0.8,1.4,2.8,2.4,4.4,2l9-1.8
		c1.6-0.3,3.1-1.9,3.3-3.6l1.1-9.1c0.2-1.6,0.4-3,0.4-3s1.1-0.7,2.5-1.6l5.3-3.4c1.4-0.9,2.5-3,2.4-4.6L56.4,436.6z"/>
	<circle fill="#F4F4F4" cx="30.5" cy="434.1" r="5.1"/>
	<circle fill="#F4F4F4" cx="53.3" cy="459.9" r="5.1"/>
</g>
<g opacity="0.58" filter="url(#ds1)">
	<path fill="#F4F4F4" d="M292.2,594.1c-0.1-1.6-1.3-3.6-2.8-4.4l-6.7-3.4c-1.5-0.8-3.8-0.6-5.2,0.3l-6.3,4.1c-1.4,0.9-2.5,3-2.5,4.6
		l0,6.7c0,0.8-0.1,2.7-0.1,2.7s-1.4,1.9-2,2.5l-6.2,6.7c-1.1,1.2-1.4,3.4-0.6,4.8l4.5,8c0.8,1.4,2.8,2.4,4.4,2l9-1.8
		c1.6-0.3,3.1-1.9,3.3-3.6l1.1-9.1c0.2-1.6,0.4-3,0.4-3s1.1-0.7,2.5-1.6l5.3-3.4c1.4-0.9,2.5-3,2.4-4.6L292.2,594.1z"/>
	<circle fill="#F4F4F4" cx="266.3" cy="591.7" r="5.1"/>
	<circle fill="#F4F4F4" cx="289.1" cy="617.4" r="5.1"/>
</g>
<g opacity="0.58" filter="url(#ds1)">
	<path fill="#F4F4F4" d="M516.9,587.3c-0.1-1.6-1.3-3.6-2.8-4.4l-6.7-3.4c-1.5-0.8-3.8-0.6-5.2,0.3l-6.3,4.1c-1.4,0.9-2.5,3-2.5,4.6
		l0,6.7c0,0.8-0.1,2.7-0.1,2.7s-1.4,1.9-2,2.5l-6.2,6.7c-1.1,1.2-1.4,3.4-0.6,4.8l4.5,8c0.8,1.4,2.8,2.4,4.4,2l9-1.8
		c1.6-0.3,3.1-1.9,3.3-3.6l1.1-9.1c0.2-1.6,0.4-3,0.4-3s1.1-0.7,2.5-1.6l5.3-3.4c1.4-0.9,2.5-3,2.4-4.6L516.9,587.3z"/>
	<circle fill="#F4F4F4" cx="491" cy="584.9" r="5.1"/>
	<circle fill="#F4F4F4" cx="513.8" cy="610.6" r="5.1"/>
</g>
<g opacity="0.58" filter="url(#ds1)">
	<path fill="#F4F4F4" d="M573.8,355.2c-0.1-1.6-1.3-3.6-2.8-4.4l-6.7-3.4c-1.5-0.8-3.8-0.6-5.2,0.3l-6.3,4.1c-1.4,0.9-2.5,3-2.5,4.6
		l0,6.7c0,0.8-0.1,2.7-0.1,2.7s-1.4,1.9-2,2.5L542,375c-1.1,1.2-1.4,3.4-0.6,4.8l4.5,8c0.8,1.4,2.8,2.4,4.4,2l9-1.8
		c1.6-0.3,3.1-1.9,3.3-3.6l1.1-9.1c0.2-1.6,0.4-3,0.4-3s1.1-0.7,2.5-1.6l5.3-3.4c1.4-0.9,2.5-3,2.4-4.6L573.8,355.2z"/>
	<circle fill="#F4F4F4" cx="547.9" cy="352.8" r="5.1"/>
	<circle fill="#F4F4F4" cx="570.7" cy="378.6" r="5.1"/>
</g>
<g>
	<g>
		<g opacity="0.5">
			<path fill="none" stroke="#000000" stroke-width="2" stroke-linecap="round" stroke-miterlimit="10" d="M689.7,416.7
				c0,6.1-5,11.1-11.1,11.1H655c-6.1,0-11.1-5-11.1-11.1"/>
		</g>
		<g>
			<path fill="none" stroke="#FFFFFF" stroke-width="2" stroke-linecap="round" stroke-miterlimit="10" d="M688.7,415.7
				c0,6.1-5,11.1-11.1,11.1H654c-6.1,0-11.1-5-11.1-11.1"/>
		</g>
	</g>
	<g>
		<g opacity="0.5">
			<rect x="655.5" y="427.8" width="22.6" height="12.1"/>
		</g>
		<g>
			<rect x="654.5" y="426.8" fill="#FFFFFF" width="22.6" height="12.1"/>
		</g>
	</g>
	<g>
		<g>
			<path fill="#6D6E70" d="M662.6,435.1l1.7-2v0l-2.5-0.6l0.7-2.2l2.4,1l-0.2-2.6h2.3l-0.2,2.6l2.5-1l0.7,2.2l-2.6,0.6v0l1.7,2
				l-1.8,1.3l-1.4-2.2h0l-1.4,2.2L662.6,435.1z"/>
		</g>
	</g>
</g>
<g>
	<g>
		<g opacity="0.5">
			<path fill="none" stroke="#000000" stroke-width="2" stroke-linecap="round" stroke-miterlimit="10" d="M762.4,420.5
				c0,6.1-5,11.1-11.1,11.1h-32.6c-6.1,0-11.1-5-11.1-11.1"/>
		</g>
		<g>
			<path fill="none" stroke="#FFFFFF" stroke-width="2" stroke-linecap="round" stroke-miterlimit="10" d="M761.4,419.5
				c0,6.1-5,11.1-11.1,11.1h-32.6c-6.1,0-11.1-5-11.1-11.1"/>
		</g>
	</g>
	<g>
		<g opacity="0.5">
			<rect x="723.7" y="431.6" width="22.6" height="12.1"/>
		</g>
		<g>
			<rect x="722.7" y="430.6" fill="#FFFFFF" width="22.6" height="12.1"/>
		</g>
	</g>
	<g>
		<g>
			<path fill="#6D6E70" d="M730.7,438.9l1.7-2v0l-2.5-0.6l0.7-2.2l2.4,1l-0.2-2.6h2.3L735,435l2.5-1l0.7,2.2l-2.6,0.6v0l1.7,2
				l-1.8,1.3L734,438h0l-1.4,2.2L730.7,438.9z"/>
		</g>
	</g>
</g>
<g opacity="0.45">
	<g>
		<g opacity="0.5">
			<path fill="none" stroke="#000000" stroke-width="2" stroke-linecap="round" stroke-miterlimit="10" d="M271.8,537.1
				c0,6.1-5,11.1-11.1,11.1h-23.6c-6.1,0-11.1-5-11.1-11.1"/>
		</g>
		<g>
			<path fill="none" stroke="#FFFFFF" stroke-width="2" stroke-linecap="round" stroke-miterlimit="10" d="M270.8,536.1
				c0,6.1-5,11.1-11.1,11.1h-23.6c-6.1,0-11.1-5-11.1-11.1"/>
		</g>
	</g>
	<g>
		<g opacity="0.5">
			<rect x="237.7" y="548.1" width="22.6" height="12.1"/>
		</g>
		<g>
			<rect x="236.7" y="547.1" fill="#FFFFFF" width="22.6" height="12.1"/>
		</g>
	</g>
	<g>
		<g>
			<path fill="#6D6E70" d="M244.7,555.4l1.7-2v0l-2.5-0.6l0.7-2.2l2.4,1l-0.2-2.6h2.3l-0.2,2.6l2.5-1l0.7,2.2l-2.6,0.6v0l1.7,2
				l-1.8,1.3l-1.4-2.2h0l-1.4,2.2L244.7,555.4z"/>
		</g>
	</g>
</g>
<g opacity="0.45">
	<g>
		<g opacity="0.5">
			<path fill="none" stroke="#000000" stroke-width="2" stroke-linecap="round" stroke-miterlimit="10" d="M548.2,486.3
				c0,6.1-5,11.1-11.1,11.1H490c-6.1,0-11.1-5-11.1-11.1"/>
		</g>
		<g>
			<path fill="none" stroke="#FFFFFF" stroke-width="2" stroke-linecap="round" stroke-miterlimit="10" d="M547.2,485.3
				c0,6.1-5,11.1-11.1,11.1H489c-6.1,0-11.1-5-11.1-11.1"/>
		</g>
	</g>
	<g>
		<g opacity="0.5">
			<rect x="502.2" y="497.4" width="22.6" height="12.1"/>
		</g>
		<g>
			<rect x="501.2" y="496.4" fill="#FFFFFF" width="22.6" height="12.1"/>
		</g>
	</g>
	<g>
		<g>
			<path fill="#6D6E70" d="M509.3,504.6l1.7-2v0l-2.5-0.6l0.7-2.2l2.4,1l-0.2-2.6h2.3l-0.2,2.6l2.5-1l0.7,2.2l-2.6,0.6v0l1.7,2
				l-1.8,1.3l-1.4-2.2h0l-1.4,2.2L509.3,504.6z"/>
		</g>
	</g>
</g>
<g opacity="0.45">
	<g>
		<g opacity="0.5">
			<path fill="none" stroke="#000000" stroke-width="2" stroke-linecap="round" stroke-miterlimit="10" d="M456.3,651.4
				c0,6.1-5,11.1-11.1,11.1h-12.6c-6.1,0-11.1-5-11.1-11.1"/>
		</g>
		<g>
			<path fill="none" stroke="#FFFFFF" stroke-width="2" stroke-linecap="round" stroke-miterlimit="10" d="M455.3,650.4
				c0,6.1-5,11.1-11.1,11.1h-12.6c-6.1,0-11.1-5-11.1-11.1"/>
		</g>
	</g>
	<g>
		<g opacity="0.5">
			<rect x="430.6" y="662.1" width="16.6" height="12.1"/>
		</g>
		<g>
			<rect x="429.6" y="661.1" fill="#FFFFFF" width="16.6" height="12.1"/>
		</g>
	</g>
	<g>
		<g>
			<path fill="#6D6E70" d="M434.7,669.7l1.7-2v0l-2.5-0.6l0.7-2.2l2.4,1l-0.2-2.6h2.3l-0.2,2.6l2.5-1l0.7,2.2l-2.6,0.6v0l1.7,2
				l-1.8,1.3l-1.4-2.2h0l-1.4,2.2L434.7,669.7z"/>
		</g>
	</g>
</g>
<g opacity="0.45">
	<g>
		<g opacity="0.5">
			<path fill="none" stroke="#000000" stroke-width="2" stroke-linecap="round" stroke-miterlimit="10" d="M431.4,415.5
				c0,6.1-5,11.1-11.1,11.1h-12.6c-6.1,0-11.1-5-11.1-11.1"/>
		</g>
		<g>
			<path fill="none" stroke="#FFFFFF" stroke-width="2" stroke-linecap="round" stroke-miterlimit="10" d="M430.4,414.5
				c0,6.1-5,11.1-11.1,11.1h-12.6c-6.1,0-11.1-5-11.1-11.1"/>
		</g>
	</g>
	<g>
		<g opacity="0.5">
			<rect x="405.7" y="426.2" width="16.6" height="12.1"/>
		</g>
		<g>
			<rect x="404.7" y="425.2" fill="#FFFFFF" width="16.6" height="12.1"/>
		</g>
	</g>
	<g>
		<g>
			<path fill="#6D6E70" d="M409.8,433.8l1.7-2v0l-2.5-0.6l0.7-2.2l2.4,1l-0.2-2.6h2.3L414,430l2.5-1l0.7,2.2l-2.6,0.6v0l1.7,2
				l-1.8,1.3l-1.4-2.2h0l-1.4,2.2L409.8,433.8z"/>
		</g>
	</g>
</g>
<g opacity="0.45">
	<g>
		<g opacity="0.5">
			<path fill="none" stroke="#000000" stroke-width="2" stroke-linecap="round" stroke-miterlimit="10" d="M378.9,651
				c0,6.1-5,11.1-11.1,11.1h-12.6c-6.1,0-11.1-5-11.1-11.1"/>
		</g>
		<g>
			<path fill="none" stroke="#FFFFFF" stroke-width="2" stroke-linecap="round" stroke-miterlimit="10" d="M377.9,650
				c0,6.1-5,11.1-11.1,11.1h-12.6c-6.1,0-11.1-5-11.1-11.1"/>
		</g>
	</g>
	<g>
		<g opacity="0.5">
			<rect x="353.2" y="661.7" width="16.6" height="12.1"/>
		</g>
		<g>
			<rect x="352.2" y="660.7" fill="#FFFFFF" width="16.6" height="12.1"/>
		</g>
	</g>
	<g>
		<g>
			<path fill="#6D6E70" d="M357.3,669.4l1.7-2v0l-2.5-0.6l0.7-2.2l2.4,1l-0.2-2.6h2.3l-0.2,2.6l2.5-1l0.7,2.2l-2.6,0.6v0l1.7,2
				l-1.8,1.3l-1.4-2.2h0l-1.4,2.2L357.3,669.4z"/>
		</g>
	</g>
</g>
</svg>
