<?xml version="1.0" encoding="utf-8"?>
<!-- Generator: Adobe Illustrator 18.1.1, SVG Export Plug-In . SVG Version: 6.00 Build 0)  -->
<!DOCTYPE svg PUBLIC "-//W3C//DTD SVG 1.1//EN" "http://www.w3.org/Graphics/SVG/1.1/DTD/svg11.dtd">
<svg version="1.1" id="Layer_1" xmlns="http://www.w3.org/2000/svg" xmlns:xlink="http://www.w3.org/1999/xlink" x="0px" y="0px"
	 viewBox="0 0 920 690" enable-background="new 0 0 920 690" xml:space="preserve">
<filter  height="200%" width="200%" x="-50%" id="ds3" y="-50%">
	<feOffset  result="offOut" dy="17" dx="0" in="SourceAlpha"></feOffset>
	<feGaussianBlur  result="blurOut" stdDeviation="15" in="offOut"></feGaussianBlur>
	<feComponentTransfer>
		<feFuncA  type="linear" slope="0.4"></feFuncA>
	</feComponentTransfer>
	<feMerge>
		<feMergeNode></feMergeNode>
		<feMergeNode  in="SourceGraphic"></feMergeNode>
	</feMerge>
</filter>
<filter  height="200%" width="200%" x="-50%" id="ds2" y="-50%">
	<feOffset  result="offOut" dy="-1" dx="0" in="SourceAlpha"></feOffset>
	<feGaussianBlur  result="blurOut" stdDeviation="17" in="offOut"></feGaussianBlur>
	<feComponentTransfer>
		<feFuncA  type="linear" slope="0.2"></feFuncA>
	</feComponentTransfer>
	<feMerge>
		<feMergeNode></feMergeNode>
		<feMergeNode  in="SourceGraphic"></feMergeNode>
	</feMerge>
</filter>
<filter  height="170%" width="170%" x="-30%" id="ds1" y="-20%">
	<feOffset  result="offOut" dy="1" dx="0" in="SourceAlpha"></feOffset>
	<feGaussianBlur  result="blurOut" stdDeviation="2" in="offOut"></feGaussianBlur>
	<feComponentTransfer>
		<feFuncA  type="linear" slope="0.5"></feFuncA>
	</feComponentTransfer>
	<feMerge>
		<feMergeNode></feMergeNode>
		<feMergeNode  in="SourceGraphic"></feMergeNode>
	</feMerge>
</filter>
<linearGradient id="SVGID_1_" gradientUnits="userSpaceOnUse" x1="425.8094" y1="-5.1941" x2="489.0463" y2="642.5042">
	<stop  offset="0" style="stop-color:#B6E9CF"/>
	<stop  offset="1" style="stop-color:#DDBF6B"/>
</linearGradient>
<rect x="0" y="0" fill="url(#SVGID_1_)" width="920" height="690"/>
<g opacity="0.45">
	<path fill="#6D6E70" d="M213.4,301.3l-33.8,7.1c-10.5,2.2-21.4,2.2-31.9,0l-33.8-7.1c-0.6-0.1-1-0.6-1-1.2v-25.5
		c0-0.7,0.5-1.2,1.2-1.2h98.9c0.7,0,1.2,0.5,1.2,1.2v25.5C214.4,300.7,214,301.2,213.4,301.3z"/>
	<g>
		<g>
			<path fill="#E8E8E8" d="M117.6,290.9h1v-6.2h-1v-1.2h3.7c0.7,0,1.2,0,1.8,0.2c1.7,0.5,2.8,2,2.8,4.1c0,2-1,3.5-2.6,4
				c-0.6,0.2-1.2,0.3-1.9,0.3h-3.7V290.9z M121.2,290.8c0.5,0,1,0,1.4-0.2c1-0.4,1.6-1.4,1.6-2.8c0-1.5-0.6-2.4-1.6-2.8
				c-0.4-0.2-0.8-0.2-1.3-0.2h-1v6H121.2z"/>
			<path fill="#E8E8E8" d="M127,290.9h1v-6.2h-1v-1.2h6.3v2.2H132v-0.9h-2.4v2.3h2.8v1.3h-2.8v2.4h2.6v-1h1.3v2.2H127V290.9z"/>
			<path fill="#E8E8E8" d="M134.2,290.9h0.8l2.6-7.3h1.8l2.6,7.3h0.8v1.2h-3.2v-1.2h0.8l-0.5-1.6h-2.7l-0.5,1.6h0.8v1.2h-3.2V290.9z
				 M139.4,288.1l-0.8-2.4l-0.1-0.5c0-0.1,0-0.2,0-0.2h0l0,0.2c0,0.1-0.1,0.3-0.1,0.5l-0.8,2.4H139.4z"/>
			<path fill="#E8E8E8" d="M143.3,290.9h1l0.5-6.2h-1v-1.2h2.8l1.9,4.8c0.1,0.2,0.1,0.4,0.2,0.5l0,0.2h0l0-0.2
				c0-0.1,0.1-0.3,0.2-0.5l1.9-4.8h2.8v1.2h-1l0.5,6.2h1v1.2h-3.5v-1.2h0.9l-0.3-4.3c0-0.2,0-0.3,0-0.5l0-0.3h0c0,0.1,0,0.2-0.1,0.3
				c0,0.2-0.1,0.3-0.1,0.5l-1.6,3.9h-1.3l-1.6-3.9c0-0.1-0.1-0.3-0.1-0.5c0-0.1,0-0.2-0.1-0.3h0l0,0.3c0,0.2,0,0.3,0,0.5l-0.3,4.3h1
				v1.2h-3.5V290.9z"/>
			<path fill="#E8E8E8" d="M155,290.9h1v-6.2h-1v-1.2h3.6v1.2h-1v6.2h1v1.2H155V290.9z"/>
			<path fill="#E8E8E8" d="M159.9,290.9h1v-6.2h-1v-1.2h2.6l3.6,5.5c0.1,0.1,0.2,0.3,0.2,0.5l0.1,0.3h0l0-0.3c0-0.2,0-0.4,0-0.5
				v-4.2h-1.1v-1.2h3.6v1.2h-1v7.3h-1.6l-3.6-5.5c-0.1-0.1-0.2-0.3-0.2-0.5l-0.1-0.3h0l0,0.3c0,0.2,0,0.4,0,0.5v4.2h1.1v1.2h-3.6
				V290.9z"/>
			<path fill="#E8E8E8" d="M169.4,290.9h0.8l2.6-7.3h1.8l2.6,7.3h0.8v1.2h-3.2v-1.2h0.8l-0.5-1.6h-2.7l-0.5,1.6h0.8v1.2h-3.2V290.9z
				 M174.6,288.1l-0.8-2.4l-0.1-0.5c0-0.1,0-0.2,0-0.2h0l0,0.2c0,0.1-0.1,0.3-0.1,0.5l-0.8,2.4H174.6z"/>
			<path fill="#E8E8E8" d="M179.7,290.9h1v-6.1h-1.6v1.3h-1.3v-2.5h7.5v2.5h-1.3v-1.3h-1.6v6.1h1v1.2h-3.6V290.9z"/>
			<path fill="#E8E8E8" d="M186.2,290.9h1v-6.2h-1v-1.2h3.6v1.2h-1v6.2h1v1.2h-3.6V290.9z"/>
			<path fill="#E8E8E8" d="M195.3,283.4c2.5,0,4.4,1.9,4.4,4.3c0,2.5-1.9,4.5-4.4,4.5s-4.4-2-4.4-4.5
				C190.9,285.3,192.8,283.4,195.3,283.4z M195.3,290.9c1.5,0,2.8-1.3,2.8-3.1c0-1.7-1.3-3-2.8-3s-2.8,1.3-2.8,3
				C192.5,289.5,193.8,290.9,195.3,290.9z"/>
			<path fill="#E8E8E8" d="M200.9,290.9h1v-6.2h-1v-1.2h2.6l3.6,5.5c0.1,0.1,0.2,0.3,0.2,0.5l0.1,0.3h0l0-0.3c0-0.2,0-0.4,0-0.5
				v-4.2h-1.1v-1.2h3.6v1.2h-1v7.3h-1.6l-3.6-5.5c-0.1-0.1-0.2-0.3-0.2-0.5l-0.1-0.3h0l0,0.3c0,0.2,0,0.4,0,0.5v4.2h1.1v1.2h-3.6
				V290.9z"/>
		</g>
	</g>
</g>
<g opacity="0.45">
	<path fill="#6D6E70" d="M431.6,261.3c-21.8,0-43.5,0-65.3,0c-14.5-14.5-14.5-38,0-52.6c21.8,0,43.5,0,65.3,0
		C446.1,223.2,446.1,246.8,431.6,261.3z"/>
	<g>
		<g>
			<path fill="#E8E8E8" d="M365.7,231.2c1.5,0,3.3,0.6,3.3,1.7v1.2h-1.4v-0.6c0-0.6-0.9-0.9-1.8-0.9c-1.8,0-2.9,1.2-2.9,3
				c0,1.8,1.1,3.2,3,3.2c0.7,0,2-0.2,2-0.9v-0.9h-1.5v-1.2h3v2.6c0,1.3-2.3,1.8-3.5,1.8c-2.6,0-4.5-1.9-4.5-4.4
				C361.2,233.1,363.1,231.2,365.7,231.2z"/>
			<path fill="#E8E8E8" d="M370.5,238.7h1v-6.1h-1v-1.3h3.6v1.3h-1v6h2.5v-1.3h1.3v2.6h-6.5V238.7z"/>
			<path fill="#E8E8E8" d="M378.9,238.7h1v-2.4l-2.3-3.8h-0.8v-1.2h3.2v1.2h-0.8l1.3,2.2c0.1,0.1,0.1,0.2,0.1,0.3c0,0,0,0.1,0,0.1h0
				c0,0,0-0.1,0-0.1c0-0.1,0.1-0.2,0.1-0.3l1.3-2.2h-0.8v-1.2h3.1v1.2h-0.8l-2.3,3.8v2.4h1v1.2h-3.6V238.7z"/>
			<path fill="#E8E8E8" d="M389.4,231.2c1,0,3.3,0.4,3.3,1.7v1.2h-1.4v-0.7c0-0.6-1.1-0.9-1.8-0.9c-1.6,0-2.8,1.2-2.8,3
				c0,1.9,1.2,3.2,2.9,3.2c0.5,0,1.8-0.2,1.8-0.8v-0.7h1.4v1.2c0,1.3-2.2,1.7-3.4,1.7c-2.6,0-4.5-1.9-4.5-4.4
				C385,233.1,386.9,231.2,389.4,231.2z"/>
			<path fill="#E8E8E8" d="M398.3,231.2c2.5,0,4.4,1.9,4.4,4.3c0,2.5-1.9,4.5-4.4,4.5s-4.4-2-4.4-4.5
				C393.9,233.2,395.8,231.2,398.3,231.2z M398.3,238.7c1.5,0,2.8-1.3,2.8-3.1c0-1.7-1.3-3-2.8-3s-2.8,1.3-2.8,3
				C395.5,237.3,396.8,238.7,398.3,238.7z"/>
			<path fill="#E8E8E8" d="M403.9,238.7h1v-6.1h-1v-1.3h3.6v1.3h-1v6h2.5v-1.3h1.3v2.6h-6.5V238.7z"/>
			<path fill="#E8E8E8" d="M412.2,238.7h1v-2.4l-2.3-3.8h-0.8v-1.2h3.2v1.2h-0.8l1.3,2.2c0.1,0.1,0.1,0.2,0.1,0.3c0,0,0,0.1,0,0.1h0
				c0,0,0-0.1,0-0.1c0-0.1,0.1-0.2,0.1-0.3l1.3-2.2h-0.8v-1.2h3.1v1.2h-0.8l-2.3,3.8v2.4h1v1.2h-3.6V238.7z"/>
			<path fill="#E8E8E8" d="M419.9,237.2v0.6c0,0.5,0.7,0.9,1.5,0.9c0.9,0,1.5-0.4,1.5-1.1c0-0.9-1-1.1-2-1.5
				c-1.1-0.4-2.3-0.9-2.3-2.5c0-1.7,1.4-2.4,2.9-2.4c1.3,0,2.7,0.5,2.7,1.5v1.1h-1.4v-0.6c0-0.4-0.6-0.7-1.3-0.7
				c-0.7,0-1.3,0.3-1.3,0.9c0,0.8,0.8,1,1.7,1.4c1.3,0.4,2.5,1,2.5,2.6c0,1.7-1.5,2.5-3.1,2.5c-1.4,0-2.9-0.6-2.9-1.9v-1H419.9z"/>
			<path fill="#E8E8E8" d="M425.7,238.7h1v-6.2h-1v-1.2h3.6v1.2h-1v6.2h1v1.2h-3.6V238.7z"/>
			<path fill="#E8E8E8" d="M431.9,237.2v0.6c0,0.5,0.7,0.9,1.5,0.9c0.9,0,1.5-0.4,1.5-1.1c0-0.9-1-1.1-2-1.5
				c-1.1-0.4-2.3-0.9-2.3-2.5c0-1.7,1.4-2.4,2.9-2.4c1.3,0,2.7,0.5,2.7,1.5v1.1h-1.4v-0.6c0-0.4-0.6-0.7-1.3-0.7
				c-0.7,0-1.3,0.3-1.3,0.9c0,0.8,0.8,1,1.7,1.4c1.3,0.4,2.5,1,2.5,2.6c0,1.7-1.5,2.5-3.1,2.5c-1.4,0-2.9-0.6-2.9-1.9v-1H431.9z"/>
		</g>
	</g>
</g>
<path opacity="0.1" fill="#6D6E70" d="M773.5,252.4h-54.7l-11.7,39.8c-2,6.8,3.1,13.5,10.1,13.5h57.9c7.1,0,12.1-6.8,10.1-13.5
	L773.5,252.4z"/>
<g opacity="0.45">
	<g>
		<path fill="none" stroke="#EDEDED" stroke-width="2" stroke-miterlimit="10" d="M393.4,492c30.8,0,55.8,25,55.8,55.8
			c0,30.8-25,55.8-55.8,55.8s-55.8-25-55.8-55.8c0-25.2,16.7-46.5,39.6-53.4"/>
		<g>
			<circle fill="#EDEDED" cx="393.4" cy="492" r="4.7"/>
		</g>
		<g>
			<polygon fill="#EDEDED" points="384,492.3 375.7,499.1 376.7,494.5 373.3,491.3 			"/>
		</g>
	</g>
</g>
<g opacity="0.45">
	<path fill="#6D6E70" d="M498.6,387.6l-23.7,5.6c-3.8,0.9-7.9,0.9-11.7,0l-23.7-5.6v-26.2l23.7-5.6c3.8-0.9,7.9-0.9,11.7,0l23.7,5.6
		V387.6z"/>
	<g>
		<g>
			<path fill="#E8E8E8" d="M456.1,377.8h1v-6.2h-1v-1.2h4.1c0.5,0,1,0,1.4,0.2c0.9,0.4,1.5,1.3,1.5,2.5c0,1.2-0.6,2.2-1.6,2.6
				c-0.4,0.1-0.8,0.2-1.3,0.2h-1.5v1.8h1v1.2h-3.6V377.8z M460,374.7c0.3,0,0.6-0.1,0.9-0.2c0.5-0.2,0.7-0.7,0.7-1.3
				c0-0.6-0.2-1-0.6-1.3c-0.2-0.1-0.5-0.2-0.9-0.2h-1.3v3H460z"/>
			<path fill="#E8E8E8" d="M464,377.8h1v-6.2h-1v-1.2h3.6v1.2h-1v2.5h3.9v-2.5h-1v-1.2h3.6v1.2h-1v6.2h1v1.2h-3.6v-1.2h1v-2.4h-3.9
				v2.4h1v1.2H464V377.8z"/>
			<path fill="#E8E8E8" d="M478.5,370.3c1,0,3.3,0.4,3.3,1.7v1.2h-1.4v-0.7c0-0.6-1.1-0.9-1.8-0.9c-1.6,0-2.8,1.2-2.8,3
				c0,1.9,1.2,3.2,2.9,3.2c0.5,0,1.8-0.2,1.8-0.8v-0.7h1.4v1.2c0,1.3-2.2,1.7-3.4,1.7c-2.6,0-4.4-1.9-4.4-4.4
				C474.1,372.2,476,370.3,478.5,370.3z"/>
		</g>
	</g>
</g>
<g opacity="0.45">
	<circle fill="#6D6E70" cx="393.4" cy="548.8" r="29.4"/>
	<g>
		<g>
			<path fill="#E8E8E8" d="M379.1,532.9c0.9,0,2.8,0.3,2.8,1.4v1h-1.2v-0.5c0-0.5-0.9-0.7-1.5-0.7c-1.4,0-2.4,1-2.4,2.5
				c0,1.6,1,2.6,2.4,2.6c0.4,0,1.5-0.1,1.5-0.7v-0.5h1.2v1c0,1.1-1.8,1.4-2.8,1.4c-2.2,0-3.7-1.6-3.7-3.7
				C375.4,534.5,377,532.9,379.1,532.9z"/>
			<path fill="#E8E8E8" d="M382.9,539.2h0.8V534h-0.8v-1h3v1h-0.9v5.1h0.9v1h-3V539.2z"/>
			<path fill="#E8E8E8" d="M388.3,539.2h0.8v-5.1h-1.3v1.1h-1.1v-2.1h6.2v2.1h-1.1v-1.1h-1.3v5.1h0.9v1h-3V539.2z"/>
			<path fill="#E8E8E8" d="M393.7,539.2h0.8V534h-0.8v-1h3.1c0.5,0,0.9,0,1.3,0.1c0.8,0.3,1.3,0.9,1.3,1.9c0,1-0.5,1.7-1.3,2v0
				l0.1,0.1c0.1,0.1,0.2,0.2,0.2,0.3l0.8,1.5c0.1,0.2,0.2,0.2,0.5,0.2h0.2v1h-0.8c-0.6,0-0.8-0.1-1-0.5l-1-1.8
				c-0.2-0.3-0.3-0.4-0.7-0.4h-0.7v1.7h0.8v1h-3V539.2z M397,536.4c0.7,0,1.1-0.4,1.1-1.2c0-0.5-0.2-0.8-0.6-1
				c-0.2-0.1-0.5-0.1-0.8-0.1h-1v2.3H397z"/>
			<path fill="#E8E8E8" d="M400.9,539.2h0.8V534h-0.8v-1h3v1H403v5.1h0.9v1h-3V539.2z"/>
			<path fill="#E8E8E8" d="M408.5,532.9c0.9,0,2.8,0.3,2.8,1.4v1h-1.2v-0.5c0-0.5-0.9-0.7-1.5-0.7c-1.4,0-2.4,1-2.4,2.5
				c0,1.6,1,2.6,2.4,2.6c0.4,0,1.5-0.1,1.5-0.7v-0.5h1.2v1c0,1.1-1.8,1.4-2.8,1.4c-2.2,0-3.7-1.6-3.7-3.7
				C404.8,534.5,406.4,532.9,408.5,532.9z"/>
			<path fill="#E8E8E8" d="M380.3,551.2h0.6l2.1-6.1h1.5l2.1,6.1h0.6v1h-2.7v-1h0.7l-0.4-1.3h-2.2l-0.4,1.3h0.7v1h-2.7V551.2z
				 M384.7,548.8l-0.7-2l-0.1-0.4c0-0.1,0-0.1,0-0.2h0l0,0.2c0,0.1,0,0.2-0.1,0.4l-0.7,2H384.7z"/>
			<path fill="#E8E8E8" d="M391.4,544.9c0.9,0,2.8,0.3,2.8,1.4v1H393v-0.5c0-0.5-0.9-0.7-1.5-0.7c-1.4,0-2.4,1-2.4,2.5
				c0,1.6,1,2.6,2.4,2.6c0.4,0,1.5-0.1,1.5-0.7v-0.5h1.2v1c0,1.1-1.8,1.4-2.8,1.4c-2.2,0-3.7-1.6-3.7-3.7
				C387.8,546.5,389.4,544.9,391.4,544.9z"/>
			<path fill="#E8E8E8" d="M395.3,551.2h0.8V546h-0.8v-1h3v1h-0.9v5.1h0.9v1h-3V551.2z"/>
			<path fill="#E8E8E8" d="M399.3,551.2h0.8V546h-0.8v-1h3.1c0.6,0,1,0,1.5,0.2c1.4,0.4,2.3,1.6,2.3,3.4c0,1.7-0.8,2.9-2.2,3.3
				c-0.5,0.2-1,0.2-1.6,0.2h-3.1V551.2z M402.4,551.1c0.5,0,0.8,0,1.2-0.2c0.8-0.3,1.3-1.1,1.3-2.3c0-1.2-0.5-2-1.4-2.3
				c-0.4-0.2-0.7-0.2-1.1-0.2h-0.9v5H402.4z"/>
			<path fill="#E8E8E8" d="M380.6,556.9c0.9,0,2.8,0.3,2.8,1.4v1h-1.2v-0.5c0-0.5-0.9-0.7-1.5-0.7c-1.4,0-2.4,1-2.4,2.5
				c0,1.6,1,2.6,2.4,2.6c0.4,0,1.5-0.1,1.5-0.7v-0.5h1.2v1c0,1.1-1.8,1.4-2.8,1.4c-2.2,0-3.7-1.6-3.7-3.7
				C376.9,558.5,378.5,556.9,380.6,556.9z"/>
			<path fill="#E8E8E8" d="M385.7,563.2h0.9v-2l-1.9-3.1H384v-1h2.6v1H386l1.1,1.9c0.1,0.1,0.1,0.2,0.1,0.2c0,0,0,0.1,0,0.1h0
				c0,0,0-0.1,0-0.1c0-0.1,0.1-0.1,0.1-0.2l1.1-1.9h-0.7v-1h2.6v1h-0.6l-1.9,3.1v2h0.8v1h-3V563.2z"/>
			<path fill="#E8E8E8" d="M394.4,556.9c0.9,0,2.8,0.3,2.8,1.4v1H396v-0.5c0-0.5-0.9-0.7-1.5-0.7c-1.4,0-2.4,1-2.4,2.5
				c0,1.6,1,2.6,2.4,2.6c0.4,0,1.5-0.1,1.5-0.7v-0.5h1.2v1c0,1.1-1.8,1.4-2.8,1.4c-2.2,0-3.7-1.6-3.7-3.7
				C390.8,558.5,392.4,556.9,394.4,556.9z"/>
			<path fill="#E8E8E8" d="M398.3,563.2h0.8v-5.1h-0.8v-1h3v1h-0.9v5h2.1V562h1.1v2.1h-5.4V563.2z"/>
			<path fill="#E8E8E8" d="M404.4,563.2h0.8V558h-0.8v-1h5.3v1.8h-1.1v-0.8h-2v1.9h2.3v1h-2.3v2h2.1v-0.8h1.1v1.8h-5.4V563.2z"/>
		</g>
	</g>
	<circle fill="#6D6E70" cx="436.9" cy="504.3" r="19"/>
	<circle fill="#6D6E70" cx="436.9" cy="591.3" r="19"/>
	<circle fill="#6D6E70" cx="349.9" cy="591.3" r="19"/>
	<circle fill="#6D6E70" cx="349.9" cy="504.3" r="19"/>
	<g>
		<g>
			<path fill="#E8E8E8" d="M434.6,507.3h1.9v-4.8c0-0.1,0-0.3,0-0.4V502h0l-0.1,0.1c-0.1,0.1-0.1,0.2-0.3,0.3l-0.7,0.6l-0.9-1
				l2.1-2.1h1.4v7.3h1.8v1.3h-5.2V507.3z"/>
		</g>
	</g>
	<g>
		<g>
			<path fill="#E8E8E8" d="M434.1,595.3c0-0.3-0.1-0.5-0.1-0.8c0-3.1,4.1-3.5,4.1-5.3c0-0.8-0.6-1.2-1.3-1.2c-0.5,0-0.9,0.3-1.2,0.5
				c-0.2,0.2-0.3,0.3-0.4,0.5l-1.1-0.7c0.2-0.3,0.4-0.6,0.6-0.9c0.5-0.4,1.2-0.9,2.2-0.9c1.5,0,2.8,0.9,2.8,2.5c0,2.7-3.9,3.1-4,4.9
				h2.9V593h1.3v2.3H434.1z"/>
		</g>
	</g>
	<g>
		<g>
			<path fill="#E8E8E8" d="M346.5,505.5l3.7-5.4h1.8v5.1h1.1v1.2H352v2.2h-1.5v-2.2h-4V505.5z M348.1,505.2L348.1,505.2l2.4,0v-2.8
				c0-0.2,0-0.3,0-0.5l0-0.3h0l-0.1,0.2c-0.1,0.1-0.1,0.3-0.2,0.4L348.1,505.2z"/>
		</g>
	</g>
	<g>
		<g>
			<path fill="#E8E8E8" d="M347.2,586.8h5.4v1.1l-2,2.4c1.1,0.2,2.2,0.9,2.2,2.4c0,1.5-1.1,2.8-3,2.8c-0.9,0-1.6-0.3-2.1-0.6
				c-0.3-0.2-0.5-0.4-0.7-0.6l0.8-1.1c0.2,0.2,0.3,0.3,0.6,0.4c0.3,0.2,0.8,0.4,1.4,0.4c0.9,0,1.5-0.6,1.5-1.4
				c0-0.9-0.7-1.3-1.7-1.3c-0.2,0-0.4,0-0.5,0l-0.3-0.8l1.8-2.3c0.1-0.1,0.2-0.2,0.2-0.2l0.1-0.1v0c-0.1,0-0.1,0-0.2,0
				c-0.1,0-0.2,0-0.3,0h-1.9v1h-1.3V586.8z"/>
		</g>
	</g>
</g>
<g opacity="0.45">
	<g filter="url(#ds2)">
		
			<radialGradient id="SVGID_2_" cx="733.088" cy="596.4003" r="229.9175" gradientTransform="matrix(1 0 0 0.7185 0 167.9018)" gradientUnits="userSpaceOnUse">
			<stop  offset="0" style="stop-color:#C9E9F0"/>
			<stop  offset="0.2183" style="stop-color:#C1E1EC"/>
			<stop  offset="0.5564" style="stop-color:#ACCBE0"/>
			<stop  offset="0.97" style="stop-color:#8AA8CD"/>
			<stop  offset="1" style="stop-color:#87A5CB"/>
		</radialGradient>
		<rect x="554.2" y="480.1" fill="url(#SVGID_2_)" width="365.8" height="210.6"/>
	</g>
	<polygon fill="#8689BC" points="581.6,721.1 602.9,641.4 725.6,591.7 892.4,573 932.4,604.5 918.5,738.7 	"/>
	<g filter="url(#ds3)">
		<path fill="none" stroke="#9991CE" stroke-width="29" stroke-miterlimit="10" d="M581.6,719.7c0.5-16.5,4.3-65,21.4-79.7
			c42.5-36.6,176-70.9,289.5-62.2c28.9,2.2,47.2,38,47.2,38"/>
	</g>
	<g filter="url(#ds1)">
		<path fill="#D0D2D3" stroke="#929497" stroke-width="1.4546" stroke-linejoin="round" stroke-miterlimit="10" d="M687.4,617.7
			c1.7-3.5,2.4-7.2,2.4-10.8c2,3.3,4.9,6.2,8.5,8.3l12-3.2c1.8-3.1,2.8-6.5,3.1-9.9c1.8,2.8,4.3,5.2,7.2,7l12.1-2.8
			c7.1-11.3,3.6-26.1-7.6-33.2l-12.1,2.8c-0.7,1.1-1.3,2.3-1.8,3.5l-3.9-1.8l-2.7,3.6c-1-0.8-2-1.5-3.1-2.1l-12,3.2
			c-0.5,0.9-1,1.9-1.4,2.9l-4.9-1.4l-3.2,4.1c-1.2-0.9-2.4-1.6-3.8-2.3c-3.6,1.2-7.9,2.7-11.7,4.1c-5.8,12-0.8,26.4,11.2,32.1
			L687.4,617.7z"/>
		<linearGradient id="SVGID_3_" gradientUnits="userSpaceOnUse" x1="698.2202" y1="582.0452" x2="703.3331" y2="603.8541">
			<stop  offset="0" style="stop-color:#B5B5B5"/>
			<stop  offset="1" style="stop-color:#9A9A9A"/>
		</linearGradient>
		<path fill="url(#SVGID_3_)" d="M718.1,588.5c-6.9-0.1-26.9,2-37.1,9.1c-1,0.7-2.4,0.3-2.9,0c-1-0.6-3.3-3.2-3.4-11.6
			c-3.2,1.1-6.9,2.4-10.2,3.6c0.5,9.6,3.3,15.7,8.4,18.5c1.8,1,3.7,1.4,5.7,1.4c2.9,0,6-0.7,8.6-2.9c7.2-6.3,25.4-6.7,31.7-7.2
			c7.2-0.6,13.8-4.2,17.1-10.6c-0.9-4.6-3.1-8.8-6.5-12.2C729.9,587.5,720.3,588.6,718.1,588.5z"/>
	</g>
	<g filter="url(#ds1)">
		<path fill="#D0D2D3" d="M804.9,543.6c-9,6.9-8.3,17.1,1.4,22.7c0.5,0,2.9,24.6,2.9,24.6c-5.3,2.6-2.4,8.1,1.3,7.9
			c2.5-0.2,5.7-0.4,8.2-0.5c4.1-0.2,5.8-6,0.2-8c0,0-0.7-24.7-0.2-24.7c9-6.9,8.3-17.1-1.4-22.7C813.5,543,808.7,543.3,804.9,543.6z
			"/>
		<path fill="none" stroke="#929497" stroke-width="1.4546" stroke-linejoin="round" stroke-miterlimit="10" d="M804.9,543.6
			c-9,6.9-8.3,17.1,1.4,22.7c0.5,0,2.9,24.6,2.9,24.6c-5.3,2.6-2.4,8.1,1.3,7.9c2.5-0.2,5.7-0.4,8.2-0.5c4.1-0.2,5.8-6,0.2-8
			c0,0-0.7-24.7-0.2-24.7c9-6.9,8.3-17.1-1.4-22.7C813.5,543,808.7,543.3,804.9,543.6z"/>
	</g>
	<rect x="554.2" y="480.1" fill="#6D6E70" width="211.8" height="21.7"/>
	<g>
		<g>
			<path fill="#E8E8E8" d="M564,486.5c2.5,0,4.4,1.9,4.4,4.3c0,2.5-1.9,4.5-4.4,4.5s-4.4-2-4.4-4.5
				C559.6,488.4,561.5,486.5,564,486.5z M564,493.9c1.5,0,2.8-1.3,2.8-3.1c0-1.7-1.3-3-2.8-3s-2.8,1.3-2.8,3
				C561.2,492.6,562.5,493.9,564,493.9z"/>
			<path fill="#E8E8E8" d="M569,494h0.8l2.1-3.1l-2.1-3h-0.8v-1.2h3.2v1.2h-0.8l1.2,1.8c0.1,0.1,0.1,0.2,0.2,0.3c0,0,0,0.1,0.1,0.1
				h0c0,0,0.1-0.2,0.2-0.4l1.1-1.8h-0.8v-1.2h3.1v1.2h-0.7l-2.2,3.1l2.1,3h0.8v1.2h-3.2V494h0.8l-1.2-1.8c-0.1-0.1-0.1-0.2-0.2-0.3
				c0,0,0-0.1-0.1-0.1h0c0,0-0.1,0.2-0.2,0.4l-1.1,1.8h0.8v1.2H569V494z"/>
			<path fill="#E8E8E8" d="M577.6,494h1v-6.2h-1v-1.2h3.6v1.2h-1v6.2h1v1.2h-3.6V494z"/>
			<path fill="#E8E8E8" d="M582.4,494h1v-6.2h-1v-1.2h3.7c0.7,0,1.2,0,1.8,0.2c1.7,0.5,2.8,2,2.8,4.1c0,2-1,3.5-2.6,4
				c-0.6,0.2-1.2,0.3-1.9,0.3h-3.7V494z M586,493.9c0.5,0,1,0,1.4-0.2c1-0.4,1.6-1.4,1.6-2.8c0-1.5-0.6-2.4-1.6-2.8
				c-0.4-0.2-0.8-0.2-1.3-0.2h-1v6H586z"/>
			<path fill="#E8E8E8" d="M591.2,494h0.8l2.6-7.3h1.8l2.6,7.3h0.8v1.2h-3.2V494h0.8l-0.5-1.6h-2.7l-0.5,1.6h0.8v1.2h-3.2V494z
				 M596.4,491.1l-0.8-2.4l-0.1-0.5c0-0.1,0-0.2,0-0.2h0l0,0.2c0,0.1-0.1,0.3-0.1,0.5l-0.8,2.4H596.4z"/>
			<path fill="#E8E8E8" d="M601.4,494h1v-6.1h-1.6v1.3h-1.3v-2.5h7.5v2.5h-1.3v-1.3H604v6.1h1v1.2h-3.6V494z"/>
			<path fill="#E8E8E8" d="M607.9,494h1v-6.2h-1v-1.2h3.6v1.2h-1v6.2h1v1.2h-3.6V494z"/>
			<path fill="#E8E8E8" d="M613,487.8h-0.8v-1.2h3.3v1.2h-0.9l1.6,4.9c0.1,0.2,0.1,0.4,0.1,0.5l0,0.3h0l0-0.3c0-0.1,0.1-0.3,0.1-0.5
				l1.6-4.9h-0.9v-1.2h3.3v1.2h-0.8l-2.6,7.3h-1.6L613,487.8z"/>
			<path fill="#E8E8E8" d="M621.4,494h1v-6.2h-1v-1.2h6.3v2.2h-1.3v-0.9H624v2.3h2.8v1.3H624v2.4h2.6v-1h1.3v2.2h-6.5V494z"/>
			<path fill="#E8E8E8" d="M632.1,494h1v-6.2h-1v-1.2h4.1c0.5,0,1,0,1.4,0.2c0.9,0.4,1.5,1.3,1.5,2.5c0,1.2-0.6,2.2-1.6,2.6
				c-0.4,0.1-0.8,0.2-1.3,0.2h-1.5v1.8h1v1.2h-3.6V494z M636,490.9c0.3,0,0.6-0.1,0.9-0.2c0.5-0.2,0.7-0.7,0.7-1.3
				c0-0.6-0.2-1-0.6-1.3c-0.2-0.1-0.5-0.2-0.9-0.2h-1.3v3H636z"/>
			<path fill="#E8E8E8" d="M640,494h1v-6.2h-1v-1.2h3.6v1.2h-1v2.5h3.9v-2.5h-1v-1.2h3.6v1.2h-1v6.2h1v1.2h-3.6V494h1v-2.4h-3.9v2.4
				h1v1.2H640V494z"/>
			<path fill="#E8E8E8" d="M654.6,486.5c2.5,0,4.4,1.9,4.4,4.3c0,2.5-1.9,4.5-4.4,4.5s-4.4-2-4.4-4.5
				C650.2,488.4,652.1,486.5,654.6,486.5z M654.6,493.9c1.5,0,2.8-1.3,2.8-3.1c0-1.7-1.3-3-2.8-3s-2.8,1.3-2.8,3
				C651.8,492.6,653.1,493.9,654.6,493.9z"/>
			<path fill="#E8E8E8" d="M661.5,492.4v0.6c0,0.5,0.7,0.9,1.5,0.9c0.9,0,1.5-0.4,1.5-1.1c0-0.9-1-1.1-2-1.5
				c-1.1-0.4-2.3-0.9-2.3-2.5c0-1.7,1.4-2.4,2.9-2.4c1.3,0,2.7,0.5,2.7,1.5v1.1h-1.4v-0.6c0-0.4-0.6-0.7-1.3-0.7
				c-0.7,0-1.3,0.3-1.3,0.9c0,0.8,0.8,1,1.7,1.4c1.3,0.4,2.5,1,2.5,2.6c0,1.7-1.5,2.5-3.1,2.5c-1.4,0-2.9-0.6-2.9-1.9v-1H661.5z"/>
			<path fill="#E8E8E8" d="M667.3,494h1v-6.2h-1v-1.2h4.1c0.5,0,1,0,1.4,0.2c0.9,0.4,1.5,1.3,1.5,2.5c0,1.2-0.6,2.2-1.6,2.6
				c-0.4,0.1-0.8,0.2-1.3,0.2h-1.5v1.8h1v1.2h-3.6V494z M671.2,490.9c0.3,0,0.6-0.1,0.9-0.2c0.5-0.2,0.7-0.7,0.7-1.3
				c0-0.6-0.2-1-0.6-1.3c-0.2-0.1-0.5-0.2-0.9-0.2h-1.3v3H671.2z"/>
			<path fill="#E8E8E8" d="M675.2,494h1v-6.2h-1v-1.2h3.6v1.2h-1v2.5h3.9v-2.5h-1v-1.2h3.6v1.2h-1v6.2h1v1.2h-3.6V494h1v-2.4h-3.9
				v2.4h1v1.2h-3.6V494z"/>
			<path fill="#E8E8E8" d="M689.8,486.5c2.5,0,4.4,1.9,4.4,4.3c0,2.5-1.9,4.5-4.4,4.5s-4.4-2-4.4-4.5
				C685.4,488.4,687.3,486.5,689.8,486.5z M689.8,493.9c1.5,0,2.8-1.3,2.8-3.1c0-1.7-1.3-3-2.8-3s-2.8,1.3-2.8,3
				C687,492.6,688.2,493.9,689.8,493.9z"/>
			<path fill="#E8E8E8" d="M695.3,494h1v-6.2h-1v-1.2h3.8c0.6,0,1.1,0,1.6,0.2c1,0.3,1.6,1.1,1.6,2.3s-0.6,2-1.6,2.4v0l0.1,0.1
				c0.1,0.1,0.2,0.2,0.3,0.3l1,1.8c0.1,0.2,0.3,0.3,0.6,0.3h0.3v1.2h-1c-0.7,0-0.9-0.1-1.2-0.6l-1.2-2.2c-0.2-0.3-0.3-0.4-0.8-0.4
				h-0.8v2.1h1v1.2h-3.6V494z M699.3,490.6c0.8,0,1.4-0.5,1.4-1.4c0-0.6-0.2-1-0.7-1.2c-0.2-0.1-0.6-0.2-1-0.2h-1.2v2.7H699.3z"/>
			<path fill="#E8E8E8" d="M705.2,494h1v-2.4l-2.3-3.8h-0.8v-1.2h3.2v1.2h-0.8l1.3,2.2c0.1,0.1,0.1,0.2,0.1,0.3c0,0,0,0.1,0,0.1h0
				c0,0,0-0.1,0-0.1c0-0.1,0.1-0.2,0.1-0.3l1.3-2.2h-0.8v-1.2h3.1v1.2h-0.8l-2.3,3.8v2.4h1v1.2h-3.6V494z"/>
			<path fill="#E8E8E8" d="M711.6,494h1v-6.1h-1v-1.3h3.6v1.3h-1v6h2.5v-1.3h1.3v2.6h-6.5V494z"/>
			<path fill="#E8E8E8" d="M718.5,494h0.8l2.6-7.3h1.8l2.6,7.3h0.8v1.2h-3.2V494h0.8l-0.5-1.6h-2.7l-0.5,1.6h0.8v1.2h-3.2V494z
				 M723.7,491.1l-0.8-2.4l-0.1-0.5c0-0.1,0-0.2,0-0.2h0l0,0.2c0,0.1-0.1,0.3-0.1,0.5l-0.8,2.4H723.7z"/>
			<path fill="#E8E8E8" d="M728.8,494h1v-6.1h-1.6v1.3h-1.3v-2.5h7.5v2.5H733v-1.3h-1.6v6.1h1v1.2h-3.6V494z"/>
			<path fill="#E8E8E8" d="M735.2,494h1v-6.2h-1v-1.2h3.6v1.2h-1v6.2h1v1.2h-3.6V494z"/>
			<path fill="#E8E8E8" d="M744.4,486.5c2.5,0,4.4,1.9,4.4,4.3c0,2.5-1.9,4.5-4.4,4.5s-4.4-2-4.4-4.5
				C740,488.4,741.9,486.5,744.4,486.5z M744.4,493.9c1.5,0,2.8-1.3,2.8-3.1c0-1.7-1.3-3-2.8-3s-2.8,1.3-2.8,3
				C741.6,492.6,742.9,493.9,744.4,493.9z"/>
			<path fill="#E8E8E8" d="M749.9,494h1v-6.2h-1v-1.2h2.6l3.6,5.5c0.1,0.1,0.2,0.3,0.2,0.5l0.1,0.3h0l0-0.3c0-0.2,0-0.4,0-0.5v-4.2
				h-1.1v-1.2h3.6v1.2h-1v7.3h-1.6l-3.6-5.5c-0.1-0.1-0.2-0.3-0.2-0.5l-0.1-0.3h0l0,0.3c0,0.2,0,0.4,0,0.5v4.2h1.1v1.2h-3.6V494z"/>
		</g>
	</g>
</g>
<g opacity="0.45">
	<path fill="#6D6E70" d="M190.2,519.9l-89.6,22.4c-9.9,2.5-19.6-5-19.6-15.3v-56h116.2v39.9C197.2,515.1,194.3,518.8,190.2,519.9z"
		/>
	<g>
		<g>
			<path fill="#E8E8E8" d="M94.8,490.3h0.8l2.6-7.3h1.8l2.6,7.3h0.8v1.2h-3.2v-1.2h0.8l-0.5-1.6h-2.7l-0.5,1.6H98v1.2h-3.2V490.3z
				 M100,487.5l-0.8-2.4l-0.1-0.5c0-0.1,0-0.2,0-0.2h0l0,0.2c0,0.1-0.1,0.3-0.1,0.5l-0.8,2.4H100z"/>
			<path fill="#E8E8E8" d="M103.9,490.3h1l0.5-6.2h-1V483h2.8l1.9,4.8c0.1,0.2,0.1,0.4,0.2,0.5l0,0.2h0l0-0.2c0-0.1,0.1-0.3,0.2-0.5
				l1.9-4.8h2.8v1.2h-1l0.5,6.2h1v1.2h-3.5v-1.2h0.9l-0.3-4.3c0-0.2,0-0.3,0-0.5l0-0.3h0c0,0.1,0,0.2-0.1,0.3c0,0.2-0.1,0.3-0.1,0.5
				l-1.6,3.9h-1.3l-1.6-3.9c0-0.1-0.1-0.3-0.1-0.5c0-0.1,0-0.2-0.1-0.3h0l0,0.3c0,0.2,0,0.3,0,0.5l-0.3,4.3h1v1.2h-3.5V490.3z"/>
			<path fill="#E8E8E8" d="M115.6,490.3h1v-6.2h-1V483h3.6v1.2h-1v6.2h1v1.2h-3.6V490.3z"/>
			<path fill="#E8E8E8" d="M120.5,490.3h1v-6.2h-1V483h2.6l3.6,5.5c0.1,0.1,0.2,0.3,0.2,0.5l0.1,0.3h0l0-0.3c0-0.2,0-0.4,0-0.5v-4.2
				h-1.1V483h3.6v1.2h-1v7.3H127l-3.6-5.5c-0.1-0.1-0.2-0.3-0.2-0.5l-0.1-0.3h0l0,0.3c0,0.2,0,0.4,0,0.5v4.2h1.1v1.2h-3.6V490.3z"/>
			<path fill="#E8E8E8" d="M135,482.9c2.5,0,4.4,1.9,4.4,4.3c0,2.5-1.9,4.5-4.4,4.5s-4.4-2-4.4-4.5
				C130.5,484.8,132.4,482.9,135,482.9z M135,490.3c1.5,0,2.8-1.3,2.8-3.1c0-1.7-1.3-3-2.8-3s-2.8,1.3-2.8,3
				C132.2,489,133.4,490.3,135,490.3z"/>
			<path fill="#E8E8E8" d="M143,490.3h0.8l2.6-7.3h1.8l2.6,7.3h0.8v1.2h-3.2v-1.2h0.8l-0.5-1.6h-2.7l-0.5,1.6h0.8v1.2H143V490.3z
				 M148.2,487.5l-0.8-2.4l-0.1-0.5c0-0.1,0-0.2,0-0.2h0l0,0.2c0,0.1-0.1,0.3-0.1,0.5l-0.8,2.4H148.2z"/>
			<path fill="#E8E8E8" d="M156.4,482.9c1,0,3.3,0.4,3.3,1.7v1.2h-1.4V485c0-0.6-1.1-0.9-1.8-0.9c-1.6,0-2.8,1.2-2.8,3
				c0,1.9,1.2,3.2,2.9,3.2c0.5,0,1.8-0.2,1.8-0.8v-0.7h1.4v1.2c0,1.3-2.2,1.7-3.4,1.7c-2.6,0-4.5-1.9-4.5-4.4
				C152,484.7,153.9,482.9,156.4,482.9z"/>
			<path fill="#E8E8E8" d="M161,490.3h1v-6.2h-1V483h3.6v1.2h-1v6.2h1v1.2H161V490.3z"/>
			<path fill="#E8E8E8" d="M165.9,490.3h1v-6.2h-1V483h3.7c0.7,0,1.2,0,1.8,0.2c1.7,0.5,2.8,2,2.8,4.1c0,2-1,3.5-2.6,4
				c-0.6,0.2-1.2,0.3-1.9,0.3h-3.7V490.3z M169.5,490.3c0.5,0,1,0,1.4-0.2c1-0.4,1.6-1.4,1.6-2.8c0-1.5-0.6-2.4-1.6-2.8
				c-0.4-0.2-0.8-0.2-1.3-0.2h-1v6H169.5z"/>
			<path fill="#E8E8E8" d="M95.3,504.7h1v-6.2h-1v-1.2h4.1c0.5,0,1,0,1.4,0.2c0.9,0.4,1.5,1.3,1.5,2.5c0,1.2-0.6,2.2-1.6,2.6
				c-0.4,0.1-0.8,0.2-1.3,0.2h-1.5v1.8h1v1.2h-3.6V504.7z M99.2,501.6c0.3,0,0.6-0.1,0.9-0.2c0.5-0.2,0.7-0.7,0.7-1.3
				c0-0.6-0.2-1-0.6-1.3c-0.2-0.1-0.5-0.2-0.9-0.2h-1.3v3H99.2z"/>
			<path fill="#E8E8E8" d="M103.2,504.7h1v-6.2h-1v-1.2h3.8c0.6,0,1.1,0,1.6,0.2c1,0.3,1.6,1.1,1.6,2.3s-0.6,2-1.6,2.4v0l0.1,0.1
				c0.1,0.1,0.2,0.2,0.3,0.3l1,1.8c0.1,0.2,0.3,0.3,0.6,0.3h0.3v1.2h-1c-0.7,0-0.9-0.1-1.2-0.6l-1.2-2.2c-0.2-0.3-0.3-0.4-0.8-0.4
				h-0.8v2.1h1v1.2h-3.6V504.7z M107.2,501.4c0.8,0,1.4-0.5,1.4-1.4c0-0.6-0.2-1-0.7-1.2c-0.2-0.1-0.6-0.2-1-0.2h-1.2v2.7H107.2z"/>
			<path fill="#E8E8E8" d="M116.1,497.3c2.5,0,4.4,1.9,4.4,4.3c0,2.5-1.9,4.5-4.4,4.5s-4.4-2-4.4-4.5
				C111.7,499.2,113.6,497.3,116.1,497.3z M116.1,504.7c1.5,0,2.8-1.3,2.8-3.1c0-1.7-1.3-3-2.8-3s-2.8,1.3-2.8,3
				C113.3,503.4,114.6,504.7,116.1,504.7z"/>
			<path fill="#E8E8E8" d="M126,497.3c1,0,3.3,0.4,3.3,1.7v1.2h-1.4v-0.7c0-0.6-1.1-0.9-1.8-0.9c-1.6,0-2.8,1.2-2.8,3
				c0,1.9,1.2,3.2,2.9,3.2c0.5,0,1.8-0.2,1.8-0.8v-0.7h1.4v1.2c0,1.3-2.2,1.7-3.4,1.7c-2.6,0-4.4-1.9-4.4-4.4
				C121.6,499.1,123.5,497.3,126,497.3z"/>
			<path fill="#E8E8E8" d="M130.6,504.7h1v-6.2h-1v-1.2h6.3v2.2h-1.3v-0.9h-2.4v2.3h2.8v1.3h-2.8v2.4h2.6v-1h1.3v2.2h-6.5V504.7z"/>
			<path fill="#E8E8E8" d="M139.7,503.2v0.6c0,0.5,0.7,0.9,1.5,0.9c0.9,0,1.5-0.4,1.5-1.1c0-0.9-1-1.1-2-1.5
				c-1.1-0.4-2.3-0.9-2.3-2.5c0-1.7,1.4-2.4,2.9-2.4c1.3,0,2.7,0.5,2.7,1.5v1.1h-1.4v-0.6c0-0.4-0.6-0.7-1.3-0.7
				c-0.7,0-1.3,0.3-1.3,0.9c0,0.8,0.8,1,1.7,1.4c1.3,0.4,2.5,1,2.5,2.6c0,1.7-1.5,2.5-3.1,2.5c-1.4,0-2.9-0.6-2.9-1.9v-1H139.7z"/>
			<path fill="#E8E8E8" d="M146.8,503.2v0.6c0,0.5,0.7,0.9,1.5,0.9c0.9,0,1.5-0.4,1.5-1.1c0-0.9-1-1.1-2-1.5
				c-1.1-0.4-2.3-0.9-2.3-2.5c0-1.7,1.4-2.4,2.9-2.4c1.3,0,2.7,0.5,2.7,1.5v1.1h-1.4v-0.6c0-0.4-0.6-0.7-1.3-0.7
				c-0.7,0-1.3,0.3-1.3,0.9c0,0.8,0.8,1,1.7,1.4c1.3,0.4,2.5,1,2.5,2.6c0,1.7-1.5,2.5-3.1,2.5c-1.4,0-2.9-0.6-2.9-1.9v-1H146.8z"/>
			<path fill="#E8E8E8" d="M152.6,504.7h1v-6.2h-1v-1.2h3.6v1.2h-1v6.2h1v1.2h-3.6V504.7z"/>
			<path fill="#E8E8E8" d="M157.4,504.7h1v-6.2h-1v-1.2h2.6l3.6,5.5c0.1,0.1,0.2,0.3,0.2,0.5l0.1,0.3h0l0-0.3c0-0.2,0-0.4,0-0.5
				v-4.2h-1.1v-1.2h3.6v1.2h-1v7.3h-1.6l-3.6-5.5c-0.1-0.1-0.2-0.3-0.2-0.5l-0.1-0.3h0l0,0.3c0,0.2,0,0.4,0,0.5v4.2h1.1v1.2h-3.6
				V504.7z"/>
			<path fill="#E8E8E8" d="M172,497.3c1.5,0,3.3,0.6,3.3,1.7v1.2h-1.4v-0.6c0-0.6-0.9-0.9-1.8-0.9c-1.8,0-2.9,1.2-2.9,3
				c0,1.8,1.1,3.2,3,3.2c0.7,0,2-0.2,2-0.9v-0.9h-1.5v-1.2h3v2.6c0,1.3-2.3,1.8-3.5,1.8c-2.6,0-4.5-1.9-4.5-4.4
				C167.5,499.1,169.3,497.3,172,497.3z"/>
			<path fill="#E8E8E8" d="M95.3,519.1h1V513h-1v-1.2h6.3v2.2h-1.3v-0.9h-2.4v2.3h2.8v1.3h-2.8v2.4h2.6v-1h1.3v2.2h-6.5V519.1z"/>
			<path fill="#E8E8E8" d="M102.9,519.1h1V513h-1v-1.2h2.6l3.6,5.5c0.1,0.1,0.2,0.3,0.2,0.5l0.1,0.3h0l0-0.3c0-0.2,0-0.4,0-0.5V513
				h-1.1v-1.2h3.6v1.2h-1v7.3h-1.6l-3.6-5.5c-0.1-0.1-0.2-0.3-0.2-0.5l-0.1-0.3h0l0,0.3c0,0.2,0,0.4,0,0.5v4.2h1.1v1.2h-3.6V519.1z"
				/>
			<path fill="#E8E8E8" d="M113.1,519.3l4.1-5.9c0.1-0.1,0.2-0.2,0.2-0.3l0.1-0.1v0c0,0-0.1,0-0.2,0c-0.1,0-0.2,0-0.3,0h-2.6v1.3
				h-1.3v-2.5h6.3v1l-4.1,5.9c-0.1,0.1-0.2,0.2-0.2,0.3l-0.1,0.1v0l0.2,0c0.1,0,0.2,0,0.3,0h2.7v-1.3h1.3v2.6h-6.5V519.3z"/>
			<path fill="#E8E8E8" d="M122.4,519.1h1v-2.4l-2.3-3.8h-0.8v-1.2h3.2v1.2h-0.8l1.3,2.2c0.1,0.1,0.1,0.2,0.1,0.3c0,0,0,0.1,0,0.1h0
				c0,0,0-0.1,0-0.1c0-0.1,0.1-0.2,0.1-0.3l1.3-2.2h-0.8v-1.2h3.1v1.2h-0.8l-2.3,3.8v2.4h1v1.2h-3.6V519.1z"/>
			<path fill="#E8E8E8" d="M128.5,519.1h1l0.5-6.2h-1v-1.2h2.8l1.9,4.8c0.1,0.2,0.1,0.4,0.2,0.5l0,0.2h0l0-0.2
				c0-0.1,0.1-0.3,0.2-0.5l1.9-4.8h2.8v1.2h-1l0.5,6.2h1v1.2h-3.5v-1.2h0.9l-0.3-4.3c0-0.2,0-0.3,0-0.5l0-0.3h0c0,0.1,0,0.2-0.1,0.3
				c0,0.2-0.1,0.3-0.1,0.5l-1.6,3.9h-1.3l-1.6-3.9c0-0.1-0.1-0.3-0.1-0.5c0-0.1,0-0.2-0.1-0.3h0l0,0.3c0,0.2,0,0.3,0,0.5l-0.3,4.3h1
				v1.2h-3.5V519.1z"/>
			<path fill="#E8E8E8" d="M140.3,519.1h1V513h-1v-1.2h6.3v2.2h-1.3v-0.9h-2.4v2.3h2.8v1.3h-2.8v2.4h2.6v-1h1.3v2.2h-6.5V519.1z"/>
			<path fill="#E8E8E8" d="M149.4,517.6v0.6c0,0.5,0.7,0.9,1.5,0.9c0.9,0,1.5-0.4,1.5-1.1c0-0.9-1-1.1-2-1.5
				c-1.1-0.4-2.3-0.9-2.3-2.5c0-1.7,1.4-2.4,2.9-2.4c1.3,0,2.7,0.5,2.7,1.5v1.1h-1.4v-0.6c0-0.4-0.6-0.7-1.3-0.7
				c-0.7,0-1.3,0.3-1.3,0.9c0,0.8,0.8,1,1.7,1.4c1.3,0.4,2.5,1,2.5,2.6c0,1.7-1.5,2.5-3.1,2.5c-1.4,0-2.9-0.6-2.9-1.9v-1H149.4z"/>
		</g>
	</g>
</g>
<g opacity="0.56">
	<g>
		<path d="M24.7,677.3h1.1v-4.5c0-0.2-0.1-0.3-0.3-0.3h-0.9v-1.4h2c0.7,0,1,0.3,1,0.9v0.3c0,0.1,0,0.2,0,0.2c0,0,0,0.1,0,0.1h0
			c0.4-0.8,1.4-1.7,2.6-1.7c1.1,0,1.8,0.5,2.1,1.7h0c0.4-0.9,1.4-1.7,2.7-1.7c1.6,0,2.5,0.9,2.5,2.9v3.5h1.1v1.4h-3v-4.6
			c0-0.9-0.2-1.5-1-1.5c-1.3,0-2,1.3-2,2.7v2h1.1v1.4h-3v-4.6c0-0.8-0.1-1.5-1-1.5c-1.3,0-2,1.4-2,2.8v1.9h1.1v1.4h-4.1V677.3z"/>
		<path d="M40.5,672.5h-1.2v-1.4h3.1v4.6c0,0.9,0.2,1.5,1.2,1.5c1.3,0,2.1-1.4,2.1-2.7v-2h-1.2v-1.4h3.1v5.9c0,0.2,0.1,0.3,0.3,0.3
			h0.7v1.4h-1.9c-0.7,0-1-0.3-1-0.9v-0.3c0-0.1,0-0.2,0-0.3v-0.1h0c-0.1,0.3-0.9,1.7-2.8,1.7c-1.5,0-2.5-0.8-2.5-2.9V672.5z"/>
		<path d="M50.2,669.5H49v-1.4h3.1v8.1c0,0.7,0.1,1,0.8,1c0.1,0,0.2,0,0.3,0h0.1v1.5l-0.2,0c-0.1,0-0.3,0-0.5,0
			c-1.2,0-2.3-0.4-2.3-2.5V669.5z"/>
		<path d="M55,672.5h-1.2v-1.4h1.2V669h1.8v2.1h1.7v1.4h-1.7v3.2c0,1.3,1,1.5,1.5,1.5c0.1,0,0.2,0,0.3,0h0.1v1.6l-0.2,0
			c-0.1,0-0.2,0-0.4,0c-1.1,0-3.2-0.3-3.2-2.9V672.5z"/>
		<path d="M60,677.3h1.1v-4.8h-1.2v-1.4H63v6.2h1.1v1.4H60V677.3z M61.1,668.1H63v1.7h-1.9V668.1z"/>
		<path d="M66.1,680.3v-7.5c0-0.2-0.1-0.3-0.3-0.3h-0.9v-1.4h2c0.7,0,0.9,0.3,0.9,0.7v0v0.2c0,0,0,0.1,0,0.1h0
			c0.1-0.2,0.3-0.4,0.6-0.6c0.4-0.3,1-0.6,1.9-0.6c2.1,0,3.4,1.6,3.4,4c0,2.4-1.5,4-3.5,4c-0.8,0-1.3-0.3-1.7-0.5
			c-0.2-0.2-0.4-0.3-0.5-0.5h0l0,0.2c0,0.1,0,0.3,0,0.5v1.8h1.1v1.4h-4.1v-1.4H66.1z M69.8,677.3c1,0,1.9-0.9,1.9-2.4
			c0-1.5-0.8-2.4-1.9-2.4c-1,0-1.9,0.7-1.9,2.4C67.9,676.1,68.5,677.3,69.8,677.3z"/>
		<path d="M75.3,669.5h-1.2v-1.4h3.1v8.1c0,0.7,0.1,1,0.8,1c0.1,0,0.2,0,0.3,0h0.1v1.5l-0.2,0c-0.1,0-0.3,0-0.5,0
			c-1.2,0-2.3-0.4-2.3-2.5V669.5z"/>
		<path d="M83.2,670.9c2.2,0,3.4,1.6,3.4,3.6c0,0.1,0,0.3,0,0.4l0,0.2h-5.3c0.1,1.4,1.1,2.1,2.3,2.1c0.6,0,1.2-0.2,1.6-0.4
			c0.2-0.1,0.5-0.3,0.6-0.4l0.7,1.4c-0.2,0.2-0.5,0.4-0.8,0.5c-0.5,0.3-1.3,0.5-2.3,0.5c-2.5,0-4.1-1.8-4.1-4
			C79.3,672.5,80.9,670.9,83.2,670.9z M84.7,674c0-1.1-0.7-1.7-1.5-1.7c-1,0-1.7,0.7-1.8,1.7H84.7z"/>
	</g>
</g>
<g opacity="0.56">
	<path d="M9.9,677.2l2.4-2.8v-0.1l-3.5-0.9l1-3l3.4,1.4l-0.3-3.7H16l-0.3,3.7l3.4-1.4l1,3l-3.6,0.9v0.1l2.4,2.8l-2.5,1.9l-1.9-3.1
		h-0.1l-1.9,3.1L9.9,677.2z"/>
</g>
</svg>
