<svg id="ReproductiveAdvantage" x="0px" y="0px" viewBox="0 0 1920 1080" xml:space="preserve" preserveAspectRatio="xMinYMin" xmlns="http://www.w3.org/2000/svg" xmlns:xlink="http://www.w3.org/1999/xlink">
   <style>
      .shadow {
         fill: #191710;
         opacity: 0.43;
      }
      .blackFur {
         fill: #777167;
         stroke: #565147;
         stroke-width:6;
         stroke-linejoin:round;
         stroke-miterlimit:10;
      }
      .tanFur {
         fill: #BA9F70;
         stroke: #917D56;
         stroke-width:6;
         stroke-linejoin:round;
         stroke-miterlimit:10;
      }
      .whiteFur {
         fill: #c7c4c1;
         stroke: none;
      }
   </style>
   <defs>
      <!-- classes weren't working as expected... so I gave up because time. Hence blackMouse and tanMouse instead of mouse with Tan/Black class -->
      <g id="blackMouse">
         <ellipse class="shadow" cx="-7.8" cy="-9.1" rx="27.9" ry="12.5"/>
         <g>
            <circle class="blackFur" cx="0.1" cy="-21.6" r="23.2"/>
            <path class="whiteFur" d="M-0.3-4.1c-6.6,0-12.7-2.2-17.6-5.8c3.6,6.2,10.4,10.3,18,10.3c8.2,0,15.4-4.8,18.8-11.7 C13.8-6.8,7.1-4.1-0.3-4.1z"/>
         </g>
      </g>
      <g id="tanMouse">
         <ellipse class="shadow" cx="-7.8" cy="-9.1" rx="27.9" ry="12.5"/>
         <g>
            <circle class="tanFur" cx="0.1" cy="-21.6" r="23.2"/>
            <path class="whiteFur" d="M-0.3-4.1c-6.6,0-12.7-2.2-17.6-5.8c3.6,6.2,10.4,10.3,18,10.3c8.2,0,15.4-4.8,18.8-11.7 C13.8-6.8,7.1-4.1-0.3-4.1z"/>
         </g>
      </g>
      <g id="owl">
         <circle style="fill:#997A44; stroke:#5B4B2F; stroke-width:6; stroke-linejoin:round; stroke-miterlimit:10;" class="st6" cx="0" cy="-66.6" r="39.5"/>
         <path class="whiteFur" d="M-6-52.8c-10.7-3.4-30.9-8.8-24.6,6.1C-24.4-36.3-13-29.2,0.1-29.2c14,0,26.1-8.1,32-19.9 C23.3-41.5,5.9-49.1-6-52.8z"/>
      </g>
      <ellipse id="owlShadow" class="shadow" cx="0" cy="-7" rx="39.5" ry="15.8"/>
      <polygon id="rock" points="2.1,-135.1 78.6,-79.5 49.4,10.5 -45.2,10.5 -74.4,-79.5 "/>
   </defs>

   <rect x="0" y="0" width="1920" height="1080" style="fill:#CABE90"/>

   <g id="rocks">
      <polygon style="fill:#474747" points="464.6,85.3 634.3,399.3 388.1,657.8 66.2,503.5 113.5,149.6 "/>
      <polygon style="fill:#474747" points="388.8,862 711.3,969.2 709.1,1309 385.2,1411.9 187.2,1135.6 "/>
      <polygon style="fill:#484848" points="1328.7,-340.3 1594.5,-42.4 1393.3,302.5 1003.2,217.7 963.2,-179.6 "/>
      <polygon style="fill:#484848" points="1365.1,535.2 1632.8,632.7 1622.8,917.3 1349,995.8 1189.8,759.6 "/>
      <polygon style="fill:#494949" points="1936,84.2 2215.9,110.5 2277.3,384.8 2035.4,528 1824.5,342.2 "/>
      <polygon style="fill:#494949" points="-53.9,-297.5 210,-212.2 210.5,65.2 -53.2,151.3 -216.6,-72.8 "/>
      <polygon style="fill:#4A4A4A" points="29.4,805.4 213.8,1007.6 78.4,1245.4 -189.6,1190.2 -219.9,918.2 "/>
      <polygon style="fill:#4A4A4A" points="862.1,-148.1 1080.5,10.5 997.1,267.3 727.1,267.3 643.7,10.5 "/>
      <polygon style="fill:#4B4B4B" points="1057.5,185.7 1253,327.7 1178.3,557.4 936.8,557.4 862.1,327.7 "/>
      <polygon style="fill:#4B4B4B" points="781.2,420.3 1021.2,526.5 994.4,787.7 737.8,842.8 606,615.8 "/>
      <polygon style="fill:#4C4C4C" points="1710.5,-243.6 1960.4,-125.8 1925.6,148.2 1654.2,199.8 1521.3,-42.3 "/>
      <polygon style="fill:#4C4C4C" points="312.5,553.5 545.5,657.2 518.8,910.9 269.3,963.9 141.8,743 "/>
      <polygon style="fill:#4C4C4C" points="821.8,217.1 962.5,425.3 808,623.6 571.7,537.8 580.2,286.6 "/>
      <polygon style="fill:#4C4C4C" points="1895,340.3 2035.7,548.5 1881.2,746.7 1644.9,661 1653.5,409.8 "/>
      <polygon style="fill:#4D4D4D" points="1054.9,510.3 1285.4,600.6 1270.8,847.8 1031.3,910.3 897.8,701.7 "/>
      <polygon style="fill:#4D4D4D" points="44.6,371.5 280.5,433.3 294.7,676.8 67.5,765.5 -87.1,576.8 "/>
      <polygon style="fill:#4E4E4E" points="690.7,650.8 842.6,836.9 712.6,1038.8 480.3,977.5 466.8,737.7 "/>
      <polygon style="fill:#4E4E4E" points="1600.4,235.2 1728.3,453 1560.6,642 1329.1,540.9 1353.7,289.5 "/>
      <polygon style="fill:#4F4F4F" points="294.7,-140.7 483,-3.9 411.1,217.5 178.4,217.5 106.4,-3.9 "/>
      <polygon style="fill:#4F4F4F" points="1730.7,890.2 1896.7,1047.9 1798,1254.6 1571,1224.6 1529.3,999.4 "/>
      <polygon style="fill:#505050" points="1001,37.3 1219.4,92.7 1234.2,317.5 1025,401 880.9,227.8 "/>
      <polygon style="fill:#505050" points="1038.3,758.4 1259.8,756.5 1330,966.6 1151.9,1098.4 971.5,969.6 "/>
      <polygon style="fill:#505050" points="1229.7,388.4 1445.9,362.3 1537.6,559.9 1377.9,708.1 1187.6,602.1 "/>
      <polygon style="fill:#515151" points="897.5,67.2 968.6,269.2 798.5,399.2 622.3,277.6 683.5,72.4 "/>
      <polygon style="fill:#515151" points="1554.9,-9.5 1710,137.4 1618.2,330.3 1406.3,302.6 1367.2,92.6 "/>
      <polygon style="fill:#515151" points="260.4,745.7 413.1,890.4 322.7,1080.4 114.1,1053.1 75.6,846.3 "/>
      <polygon style="fill:#525252" points="1441.1,836.8 1608.3,958.2 1544.5,1154.8 1337.8,1154.8 1273.9,958.2 "/>
      <polygon style="fill:#525252" points="1010.3,901 1192,991.5 1162.1,1192.2 962,1225.8 868.1,1045.8 "/>
      <polygon style="fill:#535353" points="103.1,11.8 244.4,152.3 154.4,330 -42.5,299.5 -74.2,102.8 "/>
      <polygon style="fill:#535353" points="571.7,409.4 729.9,524.3 669.5,710.3 473.9,710.3 413.5,524.3 "/>
      <polygon style="fill:#535353" points="1693.4,633.4 1893.8,779 1817.3,1014.5 1569.6,1014.5 1493.1,779 "/>
      <polygon style="fill:#545454" points="92.3,617.9 247.5,730.7 188.2,913.1 -3.6,913.1 -62.9,730.7 "/>
      <polygon style="fill:#545454" points="1654.1,206.2 1782.1,344.1 1690.4,508.4 1505.9,472 1483.5,285.3 "/>
      <polygon style="fill:#555555" points="1861.8,846.6 2036.9,904.4 2036.1,1088.7 1860.5,1144.9 1752.8,995.3 "/>
      <polygon style="fill:#555555" points="911,725.1 1073.3,804.4 1048.1,983.2 870.2,1014.5 785.4,855 "/>
      <polygon style="fill:#555555" points="474,745.4 589.7,879.3 498.2,1030.7 325.9,990.4 311,814.1 "/>
      <polygon style="fill:#565656" points="644.6,-39.6 706.2,122.2 571.3,230.9 426.3,136.2 471.6,-31 "/>
      <polygon style="fill:#565656" points="1834.3,128.1 1916.6,276.3 1801.2,400.3 1647.5,328.9 1668,160.6 "/>
      <polygon style="fill:#575757" points="1171.9,357.3 1276.6,485.7 1186.9,625.1 1026.6,582.8 1017.3,417.3 "/>
      <polygon style="fill:#575757" points="1241.5,980.5 1393.4,1046.8 1377.4,1211.8 1215.5,1247.5 1131.5,1104.6 "/>
      <polygon style="fill:#575757" points="1695.3,467.8 1826.4,563 1776.4,717.2 1614.3,717.2 1564.3,563 "/>
      <polygon style="fill:#585858" points="893.4,899.7 930.5,1073.1 777,1162 645.1,1043.5 717.1,881.4 "/>
      <polygon style="fill:#585858" points="1669.7,732 1819.3,771.2 1828.3,925.5 1684.3,981.8 1586.3,862.2 "/>
      <polygon style="fill:#595959" points="603.4,117.1 725.4,205.8 678.8,349.3 527.9,349.3 481.3,205.8 "/>
      <polygon style="fill:#595959" points="1869.4,652.3 1988.5,738.8 1943,878.7 1795.8,878.7 1750.4,738.8 "/>
      <polygon style="fill:#595959" points="1414.1,38.4 1536.5,113.1 1503.4,252.6 1360.4,264.2 1305.2,131.8 "/>
      <polygon style="fill:#5A5A5A" points="307.2,554.3 444.9,578.2 464.6,716.5 339.2,778.1 241.9,677.8 "/>
      <polygon style="fill:#5A5A5A" points="-5.9,264.1 129.5,277.4 158.6,410.2 41.3,479 -60.4,388.7 "/>
      <polygon style="fill:#5B5B5B" points="1860.7,453.2 1982.6,504.5 1971.5,636.4 1842.6,666.4 1774.2,553.2 "/>
      <polygon style="fill:#5B5B5B" points="1282,226.6 1386,302.1 1346.3,424.4 1217.7,424.4 1178,302.1 "/>
      <polygon style="fill:#5C5C5C" points="210.5,942.8 311.5,1016.1 272.9,1134.9 148,1134.9 109.5,1016.1 "/>
      <polygon style="fill:#5C5C5C" points="1271.7,829.5 1385.9,869.8 1382.8,990.9 1266.7,1025.4 1198,925.6 "/>
      <polygon style="fill:#5D5D5D" points="1774.2,362.9 1869.2,431.9 1832.9,543.5 1715.5,543.5 1679.2,431.9 "/>
      <polygon style="fill:#5D5D5D" points="1859.9,72 1971.5,93.9 1985,206.8 1881.9,254.6 1804.6,171.2 "/>
      <polygon style="fill:#5E5E5E" points="744.6,758.2 833.6,822.9 799.6,927.4 689.7,927.4 655.7,822.9 "/>
      <polygon style="fill:#5E5E5E" points="288.5,304.3 374.5,366.8 341.7,467.8 235.4,467.8 202.6,366.8 "/>
   </g>


   <!-- <use x="100" y="500" xlink:href="#mouse" class="blackMouse" />
   <use x="200" y="500" xlink:href="#mouse" class="tanMouse" />
   <use x="250" y="500" xlink:href="#owlShadow" />
   <use x="250" y="430" xlink:href="#owl" /> -->

   <g id="sliderGroup">
   	<path style="fill:#CABE90;" d="M1875.1,1047.3H120c-4.9,0-8.9-4-8.9-8.9v-42.2c0-4.9,4-8.9,8.9-8.9h1755.1c4.9,0,8.9,4,8.9,8.9v42.2 C1884,1043.3,1880,1047.3,1875.1,1047.3z"/>
      <path style="fill:#505050" d="M126.5,1047.3H120c-4.9,0-8.9-4-8.9-8.9v-42.2c0-4.9,4-8.9,8.9-8.9h6.5V1047.3z"/>
      <rect id="sliderDarkSide" x="125.7" y="987.3" style="fill:#505050" width="20" height="60"/>
   	<path style="fill:none;stroke:#000000;stroke-miterlimit:10;" d="M1875.1,1047.3H120c-4.9,0-8.9-4-8.9-8.9v-42.2c0-4.9,4-8.9,8.9-8.9h1755.1c4.9,0,8.9,4,8.9,8.9v42.2 C1884,1043.3,1880,1047.3,1875.1,1047.3z"/>
   	<path id="sliderHandle" style="fill:#FFFFFF;stroke:#C1C1C1;stroke-width:4;stroke-linejoin:round;stroke-miterlimit:10;cursor:ew-resize" transform="matrix(1 0 0 1 112 0)" d="M51.1,1047.3H8.9c-4.9,0-8.9-4-8.9-8.9v-42.2c0-4.9,4-8.9,8.9-8.9h42.2c4.9,0,8.9,4,8.9,8.9v42.2 C60,1043.3,56,1047.3,51.1,1047.3z"/>
   </g>

</svg>
