<svg id="animal-cell" xmlns="http://www.w3.org/2000/svg" xmlns:xlink="http://www.w3.org/1999/xlink" x="0px" y="0px" viewBox="0 0 1920 1080">
  <style type="text/css">
    .st0{fill:#00473D;}
    .st1{fill:#5CF0FF;}
    .st2{fill:#45FFBC;}
    .st3{fill:#FFFB71;}
    .st4{fill:#FB5CFF;}
    .st5{fill:#B0EF4D;}
    .st6{fill:#12D74F;}
    .st7{fill:#18DC54;}
    .st8{fill:#34E069;}
    .st9{fill:#4BE47A;}
    .st10{fill:#FFFFFF;}
  </style>
  <path id="animal-bg" class="st0" d="M1437.5,1036.1c-56.1-0.6-111.8-7-167.4-9.8c-25.5,1.5-53.8,3.8-75.4,4.3
    c-26.1,1.8-58.4-2-86.9-3.2c-52.4,0.8-99.4,1.1-150.3,0.9c-52.5,1.4-108,5.5-158-2.8c-103.4-21-202.1-42.7-304.3-61
    c-230-46.6-240.3-74.7-332.5-153.2C68.1,726.1-0.6,693.9,36.8,624.4c12.9-22.3,31.4-33.7,49.5-49.2c24.9-21.5,19.8-50.3,32.3-75.8
    c18.8-42.6,60.6-74,77.3-119.3c4.2-15.1,5-28.1,9.3-42.1c20.2-77.9,116.9-58,108.9-96.7c-10.5-17-23.1-35.2-19.7-55.4
    c16.5-71,93.6-39.3,122-43.8c28.7-1.3,55.9-7,84.4-9c16.2-1.6,31.9,0.4,48.3-2.2c82.2-14.3,58-77.3,129.5-82.3
    c41.3-0.8,92.6,3.2,137.9,3.4c72.8,1.7,145.3,3.6,217.7,12.3c109,15.7,216.7,33,326.1,51.8c53.4,8.1,106.6,12.4,159.9,29.6
    c127.5,41.3,228.8,135.5,281.3,255c13.3,28.7,19.2,58.4,29.8,87.3c29.7,80.5,54.3,82.9,62.7,137.5c10.2,66.4-55.7,101.8-58.3,139
    C1830.5,964.8,1609,1031.8,1437.5,1036.1z"/>
  <path class="st6 animal-protein" d="M1637.4,320.6c-0.4-9.2-6.9-16.6-15.4-18.5c-2.1-0.5-3.5-2.6-3-4.8c0.7-2.9,0.7-6-0.1-9.1
    c-1.9-8-8.8-14.1-16.9-15c-6.7-0.7-12.7,1.8-16.8,6.2c-1.5,1.6-4.1,1.7-5.7,0.2c-4.4-4.1-10.6-6.2-17.3-4.9
    c-8,1.5-14.5,8.2-15.7,16.3c-0.5,3.2-0.2,6.3,0.7,9.1c0.6,2.1-0.6,4.3-2.6,5c-8.4,2.6-14.3,10.5-13.9,19.7
    c0.4,9.2,6.9,16.6,15.4,18.5c2.1,0.5,3.5,2.6,3,4.8c-0.7,2.9-0.7,6,0.1,9.1c1.9,8,8.8,14.1,16.9,15c6.7,0.7,12.7-1.8,16.8-6.2
    c1.5-1.6,4.1-1.7,5.7-0.2c4.4,4.1,10.6,6.1,17.2,4.9c8-1.5,14.5-8.2,15.7-16.3c0.5-3.2,0.2-6.3-0.7-9.1c-0.6-2.1,0.6-4.3,2.6-5
    C1631.8,337.7,1637.7,329.8,1637.4,320.6z M1581.7,338.1c-2.5-2.3-5.6-4-9-4.8c-2.2-0.5-3.5-2.8-3-5c0.3-1.6,0.5-3.3,0.4-5
    c-0.1-1.7-0.3-3.3-0.8-4.9c-0.7-2.2,0.4-4.6,2.6-5.2c3.4-1,6.3-3,8.6-5.5c1.5-1.6,4.1-1.7,5.7-0.2c2.5,2.3,5.6,4,9,4.8
    c2.2,0.5,3.5,2.8,3,5c-0.3,1.6-0.5,3.3-0.4,5s0.3,3.3,0.8,4.9c0.7,2.2-0.4,4.6-2.6,5.2c-3.4,1-6.3,3-8.6,5.5
    C1585.9,339.5,1583.3,339.6,1581.7,338.1z"/>
  <path class="st6 animal-protein" d="M194.4,670c-0.4-9.7-7.3-17.5-16.3-19.5c-2.2-0.5-3.7-2.8-3.2-5c0.7-3,0.7-6.3-0.1-9.6
    c-2-8.4-9.3-14.8-17.9-15.8c-7.1-0.8-13.4,1.9-17.7,6.6c-1.6,1.7-4.3,1.8-6,0.2c-4.6-4.3-11.2-6.5-18.2-5.1
    c-8.5,1.6-15.3,8.6-16.5,17.1c-0.5,3.4-0.2,6.6,0.7,9.6c0.7,2.2-0.6,4.6-2.8,5.3c-8.8,2.7-15.1,11.1-14.7,20.7
    C82.2,684.1,89,692,98,694c2.2,0.5,3.7,2.8,3.2,5c-0.7,3-0.7,6.3,0.1,9.6c2,8.4,9.3,14.8,17.9,15.8c7.1,0.8,13.4-1.9,17.7-6.6
    c1.6-1.7,4.3-1.8,6-0.2c4.6,4.3,11.2,6.5,18.2,5.1c8.5-1.6,15.3-8.6,16.6-17.1c0.5-3.4,0.2-6.6-0.7-9.6c-0.7-2.2,0.6-4.6,2.8-5.3
    C188.6,688,194.8,679.6,194.4,670z M135.8,688.4c-2.6-2.5-5.9-4.2-9.5-5c-2.3-0.5-3.7-2.9-3.2-5.3c0.4-1.7,0.5-3.4,0.4-5.2
    c-0.1-1.8-0.4-3.5-0.9-5.2c-0.7-2.3,0.5-4.8,2.8-5.5c3.5-1.1,6.7-3.1,9.1-5.8c1.6-1.7,4.3-1.8,6-0.2c2.6,2.5,5.9,4.2,9.5,5
    c2.3,0.5,3.7,2.9,3.2,5.3c-0.4,1.7-0.5,3.4-0.4,5.2s0.4,3.5,0.9,5.2c0.7,2.3-0.5,4.8-2.8,5.5c-3.5,1.1-6.7,3.1-9.1,5.8
    C140.2,689.8,137.5,689.9,135.8,688.4z"/>
  <path class="st7 animal-protein" d="M420.3,321.4c-2.2,1.7-3,1.6-4.7-0.6c-7.4-9.5-21-11.2-30.5-3.8s-11.2,21-3.8,30.5
    c1.6,2,1.5,3.1-0.6,4.7c-9.5,7.4-11.2,21-3.8,30.5c7.4,9.5,21,11.2,30.5,3.8c1.8-1.4,3.3-1.2,4.7,0.6c7.4,9.5,21,11.2,30.5,3.8
    c9.5-7.4,11.2-21,3.8-30.5c-1.6-2.1-1.4-3.2,0.6-4.7c9.5-7.4,11.2-21,3.8-30.5C443.4,315.7,429.8,314,420.3,321.4z M413,361.8
    c-0.2,0-0.4-0.1-0.6-0.1c-1.7-0.6-1.9-3.1-2.9-4.4c-1.1-1.4-4.1-2.1-4.1-4c0.1-2.4,3.6-2.5,5-3.7c1.3-1,2-3.7,4-3.7
    c2.4,0,2.6,3.2,3.7,4.7c1.1,1.4,5,2.9,3.3,5.1c-1,1.3-3,1.6-4.2,2.5C415.9,359.2,415,362,413,361.8z"/>
  <path class="st8 animal-protein" d="M319.2,826.1c1.8-1.1,3.5,1.2,8.8,0c4.5-1,4.6-3.3,8.3-2.5c4,0.9,5,4.5,7.8,6.9
    c4.5,4,10.7,6,16.7,5.3c6.8-0.8,12.9-4.8,16.3-10.7c1.7-3,2.5-6.2,2.8-9.6c0.4-4.1,2.1-4.2,5.6-5.7c2.1-0.9,3.9-2.3,5.4-4
    c3-3.4,4.4-7.9,3.9-12.4c-1-8.8-8.9-15.1-17.7-14.1c-3.7,0.4-7.2,2.2-9.8,4.9c-1.7,1.8-2.2,4.4-3.8,6.3c-2.3,2.8-5.6,0.3-9.8,1.2
    c-5.5,1.2-6.7,5.1-10.6,2.6c-3-1.9-4.3-5.7-7.2-7.8c-4.4-3.3-9.9-4.8-15.3-4.1c-5.8,0.7-11.2,3.7-14.7,8.4c-1.8,2.4-3.1,5.1-3.8,8
    c-0.6,2.7-0.2,5.7-2.5,7.7c-1.8,1.7-4.6,2.1-6.6,3.6c-4.5,3.4-6.9,9-6.3,14.6c1,8.8,8.9,15.1,17.7,14.1c3.7-0.4,7.1-2.1,9.7-4.8
    c1.8-1.8,2.2-4.6,3.8-6.6C318.2,826.9,318.7,826.5,319.2,826.1z"/>
  <path class="st8 animal-protein" d="M1697.9,436.9c1.6-1,3.2,1.1,8,0c4.1-0.9,4.2-3,7.5-2.3c3.7,0.8,4.6,4.1,7.2,6.3
    c4.1,3.7,9.7,5.4,15.2,4.8c6.2-0.7,11.7-4.4,14.8-9.8c1.6-2.7,2.3-5.6,2.6-8.7c0.4-3.7,2-3.8,5.1-5.2c1.9-0.9,3.6-2.1,4.9-3.7
    c2.7-3.1,4-7.2,3.5-11.3c-0.9-8-8.2-13.7-16.2-12.8c-3.4,0.4-6.6,2-8.9,4.5c-1.5,1.6-2,4-3.4,5.7c-2.1,2.5-5.1,0.3-8.9,1.1
    c-5,1.1-6.1,4.6-9.7,2.4c-2.8-1.7-4-5.2-6.6-7.1c-4-3-9-4.3-14-3.8c-5.3,0.6-10.2,3.4-13.5,7.7c-1.6,2.2-2.8,4.7-3.5,7.3
    c-0.6,2.5-0.2,5.2-2.3,7.1c-1.7,1.5-4.2,1.9-6,3.3c-4.1,3.1-6.3,8.2-5.7,13.3c0.9,8,8.2,13.7,16.2,12.8c3.4-0.4,6.5-1.9,8.8-4.4
    c1.6-1.7,2-4.2,3.4-6C1697,437.6,1697.4,437.2,1697.9,436.9z"/>
  <path class="st9 animal-protein" d="M1070.4,976.4c2.2-1.5,5.5-1,7.9-1.8c7.5-2.4,12.9-9.2,13.6-17c0.4-3.8-1.5-7.4-1.1-11.1
    c0.5-3.9,3.4-6.8,4.5-10.4c1.4-4.6,1.4-9.6-0.1-14.2c-1.8-5.6-5.7-10.4-10.8-13.3c-2.3-1.3-5.4-1.7-7.2-3.5c-1.9-1.9-2-4.8-3.3-7.1
    c-1.5-2.7-3.7-5-6.2-6.7c-5-3.3-11.4-4.2-17.1-2.4c-2.4,0.8-4.6,3.1-7.1,3.2c-2.1,0.1-4-1.4-5.8-2c-3.1-1.1-6.6-1.1-9.7-0.1
    c-8.2,2.6-12.7,11.4-10,19.6c1.5,4.6,5.1,8.3,9.7,9.9c2.3,0.8,4.7,1,7.1,0.7c2.5-0.3,4.8-1.1,7.3-0.1c5,1.9,4.3,6.6,4.7,11.1
    c0.3,4.1,1.9,8.1,4.3,11.3c0.8,1,1.7,2,2.3,3.1c1.6,2.7,1.2,5.7-0.5,8.2c-2.5,3.7-7.2,4.7-10.1,8c-3.6,4.1-4.8,9.9-3.1,15
    c2.6,8.2,11.4,12.7,19.6,10c2.9-0.9,5.5-2.7,7.3-5.1c1.3-1.6,1.9-4,3.6-5.3C1070.3,976.5,1070.4,976.5,1070.4,976.4z"/>
  <path class="st7 animal-protein" d="M1729.1,785.8c1.3,2,1.1,2.7-0.9,4c-8.8,5.6-11.5,17.3-5.9,26.1c5.6,8.8,17.3,11.5,26.1,5.9
    c1.9-1.2,2.8-1,4,0.9c5.6,8.8,17.3,11.5,26.1,5.9s11.5-17.3,5.9-26.1c-1.1-1.7-0.8-2.9,0.9-4c8.8-5.6,11.5-17.3,5.9-26.1
    c-5.6-8.8-17.3-11.5-26.1-5.9c-1.9,1.2-2.9,0.9-4-0.9c-5.6-8.8-17.3-11.5-26.1-5.9C1726.2,765.3,1723.5,776.9,1729.1,785.8z
     M1763.6,795.5c0,0.1-0.1,0.3-0.2,0.5c-0.7,1.4-2.9,1.4-4.1,2.1c-1.3,0.8-2.2,3.4-3.8,3.2c-2-0.3-1.9-3.3-2.8-4.7
    c-0.8-1.2-3-2-2.9-3.8c0.2-2.1,3-2,4.4-2.8c1.3-0.8,2.9-4.1,4.7-2.4c1.1,1,1.1,2.7,1.8,3.9C1761.6,792.8,1764,793.8,1763.6,795.5z"
    />
  <path class="st8 animal-protein" d="M968.3,685.7c-2.1,0.4-2.9-2.3-8.2-3c-4.6-0.6-5.5,1.5-8.6-0.5c-3.5-2.2-3.2-5.9-4.9-9.3
    c-2.8-5.4-7.9-9.3-13.8-10.8c-6.6-1.6-13.7,0-19,4.3c-2.7,2.2-4.5,4.9-6,8c-1.8,3.7-3.5,3.2-7.2,3.4c-2.3,0.2-4.5,0.8-6.5,1.9
    c-4,2.1-6.9,5.9-8,10.2c-2.1,8.6,3.1,17.2,11.6,19.4c3.6,0.9,7.5,0.5,10.9-1.2c2.2-1.1,3.6-3.3,5.7-4.6c3.1-1.8,5.3,1.7,9.6,2.3
    c5.6,0.8,8.1-2.4,10.8,1.3c2.2,2.8,2.1,6.8,4,9.8c2.9,4.6,7.6,7.9,12.9,9.3c5.7,1.4,11.8,0.4,16.8-2.7c2.5-1.6,4.7-3.7,6.4-6.2
    c1.6-2.3,2.2-5.2,5-6.4c2.3-0.9,5-0.3,7.5-1.1c5.4-1.6,9.7-6,11-11.5c2.1-8.6-3.1-17.2-11.6-19.4c-3.6-0.9-7.4-0.5-10.8,1.1
    c-2.3,1.1-3.7,3.5-5.9,4.9C969.4,685.3,968.8,685.6,968.3,685.7z"/>
  <path class="st9 animal-protein" d="M1349.7,497.5c-2-1.6-2.6-4.7-4.1-6.7c-4.4-6.1-12.3-9-19.6-7.3c-3.6,0.8-6.3,3.6-9.8,4.3
    c-3.7,0.7-7.2-1-10.9-1c-4.6,0.1-9.2,1.6-12.9,4.4c-4.6,3.3-7.7,8.3-8.9,13.8c-0.5,2.4,0.1,5.4-1,7.6c-1.1,2.3-3.8,3.3-5.5,5.1
    c-2,2.2-3.5,4.8-4.3,7.7c-1.6,5.6-0.5,11.6,2.9,16.3c1.4,1.9,4.2,3.3,5.1,5.5c0.7,1.8-0.1,4-0.1,5.9c0,3.2,0.9,6.3,2.8,8.9
    c4.9,6.7,14.2,8.1,20.8,3.3c3.8-2.7,6.1-7.2,6.1-11.9c0-2.3-0.5-4.6-1.5-6.7c-1-2.2-2.5-4-2.3-6.6c0.3-5.1,4.7-5.9,8.7-7.6
    c3.6-1.5,6.8-4.1,9-7.4c0.7-1,1.3-2.1,2.2-3.1c2-2.3,4.8-2.8,7.7-2c4.1,1.2,6.5,5.2,10.4,6.8c4.8,2,10.4,1.4,14.7-1.7
    c6.7-4.9,8.1-14.2,3.3-20.8c-1.7-2.4-4.1-4.2-6.8-5.2c-1.9-0.7-4.2-0.5-5.9-1.7C1349.8,497.5,1349.8,497.5,1349.7,497.5z"/>
  <g id="animal-instructions-button" class="vid-button">
    <path class="st1 button-bg" d="M1200.7,522.9c-0.9,14.8-3.5,29.2-7.1,41.2c-4.2,13.8-19.8,28.7-31.7,35.8
      c-17.6,10.4-37.9,1.9-55,4.8c-20.7,3.5-41.4,1.7-62.1,3.5c-47.1,4.2-94.3,6-141.5,5.4c-30.5-0.4-61,1.6-91.4-2.3
      c-33.4-4.3-81.4-12.5-73.4-96.3c8.7-92.1,79.3-84.7,117.1-85.2c28.5-0.4,56-4.7,84.4-4.7c65.2-0.1,113.2,3.1,178.3,9.4
      c10.6,1,39.7,7.4,49.3,15.7C1184.8,465.1,1202.8,490.7,1200.7,522.9z"/>
    <g class="button-label">
      <path class="st0" d="M874.2,494.9h-18l-2.1,5c-1.3,3.1-3.4,3.8-4.9,3.8c-2.6,0-4.9-1.8-4.9-4.8c0-0.8,0.1-1.6,0.6-2.8l13.8-30.3
        c1.9-4.2,4.7-4.9,6.7-4.9c2.1,0,4.7,0.6,6.6,4.9l13.7,30.2c0.5,1.1,0.6,2.1,0.6,2.7c0,3.2-2.4,5.1-5,5.1c-1.6,0-3.8-0.6-5.1-3.8
        L874.2,494.9z M859.6,486.8h11.4l-5.7-13.8L859.6,486.8z"/>
      <path class="st0" d="M903.7,496.8c0-2.5,1.9-4.7,4.7-4.7c1,0,2.1,0.4,3.4,1.4c1.5,1.1,4.4,2.4,6.9,2.4c2.5,0,5.1-1.3,5.1-4.5
        c0-3.2-3.2-4.2-8.7-5.9c-5.3-1.7-10.7-4.4-10.7-12c0-9.2,8.4-13.1,16.1-13.1c3.2,0,6.9,0.9,9.5,2.4c2.1,1.3,2.7,2.7,2.7,4.2
        c0,2.4-1.8,4.4-4.2,4.4c-0.8,0-1.5-0.2-2.9-0.9c-2.4-1.2-4-1.8-5.5-1.8c-2.9,0-5.5,1.2-5.5,4.2c0,2.8,2.5,3.7,6.4,4.9
        c5.7,1.8,13,4.2,13,12.5c0,9.6-7.7,13.9-16,13.9c-4.2,0-9.4-1.4-12-3.4C904.2,499.3,903.7,498,903.7,496.8z"/>
      <path class="st0" d="M962.8,493.6c2.1,0,3.7,1.5,3.7,3.7c0,0.8-0.3,2.2-1.7,3.3c-2.5,2.1-6.1,3.4-10.8,3.4
        c-8.8,0-16.1-5.6-16.1-15.5c0-9.6,7-15.7,15.8-15.7c7.4,0,12.7,4.3,14.3,11.4c0.2,0.8,0.3,1.5,0.3,2.2c0,3.3-1.9,4.7-5,4.7h-16.1
        c0.3,3.2,3.5,5.5,7,5.5c2.2,0,3.7-0.4,5.6-1.7C961.2,493.9,961.8,493.6,962.8,493.6z M959.5,485c0-3.1-1.9-5.6-5.8-5.6
        c-3.7,0-6.4,2.6-6.7,5.6H959.5z"/>
      <path class="st0" d="M975,470.7c0-4.5,3.2-5.3,4.8-5.3c1.5,0,4.7,0.8,4.7,5.3v3h3.4c3.4,0,4.1,2.5,4.1,3.6c0,1.2-0.6,3.7-4.1,3.7
        h-3.4v11.2c0,2.7,0.8,4,2.9,4c0.3,0,0.5,0,0.8,0c2.4,0,3.6,1.8,3.6,3.5c0,3.1-2.8,4.1-6.2,4.1c-7.8,0-10.4-4.2-10.4-10.4V481h-1.2
        c-3.4,0-4.1-2.5-4.1-3.7c0-1.1,0.6-3.6,4.1-3.6h1.2V470.7z"/>
      <path class="st0" d="M1025.4,504c-8.8,0-16.3-6.1-16.3-15.7c0-9.6,7.4-15.5,16.3-15.5c8.9,0,16.3,5.9,16.3,15.5
        C1041.7,497.9,1034.3,504,1025.4,504z M1025.4,480.8c-4.5,0-6.9,3.7-6.9,7.5s2.4,7.6,6.9,7.6c4.5,0,6.9-3.8,6.9-7.6
        S1029.9,480.8,1025.4,480.8z"/>
      <path class="st0" d="M1046.9,481c-3.4,0-4.1-2.5-4.1-3.7c0-1.1,0.6-3.6,4.1-3.6h1.9v-2.8c0-7.7,3.3-13.5,12.3-13.5
        c2.8,0,5.4,0.9,5.4,4c0,2.4-1.6,3.8-4.2,3.8c-3.1,0-3.8,2.2-3.8,5.1v3.4h3.1c3.4,0,4.1,2.5,4.1,3.6c0,1.2-0.6,3.7-4.1,3.7h-3.1
        v17.3c0,4.7-3.2,5.4-4.8,5.4c-1.6,0-4.8-0.8-4.8-5.4V481H1046.9z"/>
      <path class="st0" d="M792.6,537.1c0-4.8,3.4-5.7,5.1-5.7s5.1,0.8,5.1,5.7v31.6c0,4.8-3.4,5.7-5.1,5.7s-5.1-0.8-5.1-5.7V537.1z"/>
      <path class="st0" d="M810.3,549c0-4.5,3.1-5.2,4.7-5.2c1.5,0,4.5,0.7,4.7,4.7h0.1c1.4-2.6,4.7-4.9,8.8-4.9c7.9,0,10.7,6.1,10.7,12
        v13.3c0,4.7-3.2,5.4-4.9,5.4c-1.6,0-4.8-0.8-4.8-5.4v-11.2c0-3.2-0.9-6.2-4.4-6.2c-3.4,0-5.2,2.9-5.2,6.3v11.1
        c0,4.7-3.2,5.4-4.9,5.4c-1.6,0-4.8-0.8-4.8-5.4V549z"/>
      <path class="st0" d="M844.2,568.8c0-2.1,1.6-3.8,3.7-3.8c0.9,0,1.8,0.3,2.9,1.1c1.7,1.2,3.3,1.6,4.8,1.6c1.6,0,3.5-0.6,3.5-2.5
        c0-1.8-1.8-2.4-5.8-3.3c-4.1-0.9-8.5-3.1-8.5-8.6c0-7,6.6-9.8,12.2-9.8c2.5,0,6,0.6,8,1.7c1.9,1.1,2.5,2.4,2.5,3.5
        c0,2.1-1.4,3.7-3.7,3.7c-0.8,0-1.5-0.3-2.5-0.8c-1.4-0.8-2.5-1.1-3.9-1.1c-1.8,0-3.7,0.6-3.7,2.4c0,1.6,1.6,2.1,5.4,2.9
        c4.5,1,9.4,3.3,9.4,9c0,7.4-6.5,10-12.5,10c-3.4,0-7.2-0.8-9.4-2.3C844.7,571.2,844.2,569.9,844.2,568.8z"/>
      <path class="st0" d="M875.4,541.4c0-4.5,3.2-5.3,4.8-5.3c1.5,0,4.7,0.8,4.7,5.3v3h3.4c3.4,0,4.1,2.5,4.1,3.6
        c0,1.2-0.6,3.7-4.1,3.7h-3.4v11.2c0,2.7,0.8,4,2.9,4c0.3,0,0.5,0,0.8,0c2.4,0,3.6,1.8,3.6,3.5c0,3.1-2.8,4.1-6.2,4.1
        c-7.8,0-10.4-4.2-10.4-10.4v-12.4h-1.2c-3.4,0-4.1-2.5-4.1-3.7c0-1.1,0.6-3.6,4.1-3.6h1.2V541.4z"/>
      <path class="st0" d="M896.4,549c0-4.5,3.1-5.2,4.7-5.2c1.5,0,4.7,0.8,4.7,4.8h0.1c1.1-2.5,3.1-5,6.1-5c2.7,0,4.3,1.8,4.3,4.2
        c0,2.2-1.2,4.4-4.9,4.6c-3.4,0.2-5.2,2.8-5.2,6.2v10.2c0,4.7-3.2,5.4-4.8,5.4s-4.8-0.8-4.8-5.4V549z"/>
      <path class="st0" d="M948.3,569.1c0,4.5-3.1,5.2-4.6,5.2c-1.5,0-4.5-0.7-4.7-4.7h-0.1c-1.4,2.6-4.7,4.9-8.8,4.9
        c-7.9,0-10.7-6.1-10.7-12v-13.3c0-4.7,3.2-5.4,4.9-5.4c1.6,0,4.8,0.8,4.8,5.4v11.1c0,3.3,0.8,6.2,4.4,6.2c3.4,0,5.2-2.9,5.2-6.3
        v-11c0-4.7,3.2-5.4,4.8-5.4s4.8,0.8,4.8,5.4V569.1z"/>
      <path class="st0" d="M953.7,559c0-9.5,7.2-15.6,16.4-15.6c2.4,0,4.8,0.5,6.5,1.3c2.2,1.1,2.8,2.7,2.8,3.9c0,2.2-1.4,4.2-3.9,4.2
        c-0.7,0-1.5-0.2-2.6-0.7c-0.8-0.4-1.6-0.6-2.6-0.6c-4.1,0-6.8,3.5-6.8,7.5s2.6,7.5,6.9,7.5c0.9,0,1.8-0.1,2.6-0.5
        c1.1-0.5,1.9-0.7,2.6-0.7c2.6,0,3.9,1.9,3.9,4.2c0,1.2-0.7,2.8-2.8,3.9c-1.8,0.9-4.2,1.3-6.5,1.3
        C960.9,574.7,953.7,568.8,953.7,559z"/>
      <path class="st0" d="M986.9,541.4c0-4.5,3.2-5.3,4.8-5.3c1.5,0,4.7,0.8,4.7,5.3v3h3.4c3.4,0,4.1,2.5,4.1,3.6
        c0,1.2-0.6,3.7-4.1,3.7h-3.4v11.2c0,2.7,0.8,4,2.9,4c0.3,0,0.5,0,0.8,0c2.4,0,3.6,1.8,3.6,3.5c0,3.1-2.8,4.1-6.2,4.1
        c-7.8,0-10.4-4.2-10.4-10.4v-12.4h-1.2c-3.4,0-4.1-2.5-4.1-3.7c0-1.1,0.6-3.6,4.1-3.6h1.2V541.4z"/>
      <path class="st0" d="M1012.6,540.3c-3.1,0-5.5-2.4-5.5-5.3c0-2.8,2.4-5.3,5.5-5.3c3.1,0,5.5,2.4,5.5,5.3
        C1018.2,538,1015.7,540.3,1012.6,540.3z M1007.8,549.2c0-4.7,3.2-5.4,4.8-5.4c1.6,0,4.8,0.8,4.8,5.4v19.7c0,4.7-3.2,5.4-4.8,5.4
        c-1.6,0-4.8-0.8-4.8-5.4V549.2z"/>
      <path class="st0" d="M1038.9,574.7c-8.8,0-16.3-6.1-16.3-15.7s7.4-15.5,16.3-15.5c8.9,0,16.3,5.9,16.3,15.5
        S1047.8,574.7,1038.9,574.7z M1038.9,551.4c-4.5,0-6.9,3.7-6.9,7.5s2.4,7.6,6.9,7.6c4.5,0,6.9-3.8,6.9-7.6
        S1043.4,551.4,1038.9,551.4z"/>
      <path class="st0" d="M1060.5,549c0-4.5,3.1-5.2,4.7-5.2c1.5,0,4.5,0.7,4.7,4.7h0.1c1.4-2.6,4.7-4.9,8.8-4.9
        c7.9,0,10.7,6.1,10.7,12v13.3c0,4.7-3.2,5.4-4.9,5.4c-1.6,0-4.8-0.8-4.8-5.4v-11.2c0-3.2-0.9-6.2-4.4-6.2c-3.4,0-5.2,2.9-5.2,6.3
        v11.1c0,4.7-3.2,5.4-4.9,5.4c-1.6,0-4.8-0.8-4.8-5.4V549z"/>
      <path class="st0" d="M1094.4,568.8c0-2.1,1.6-3.8,3.7-3.8c0.9,0,1.8,0.3,2.9,1.1c1.7,1.2,3.3,1.6,4.8,1.6c1.6,0,3.5-0.6,3.5-2.5
        c0-1.8-1.8-2.4-5.8-3.3c-4.1-0.9-8.5-3.1-8.5-8.6c0-7,6.6-9.8,12.2-9.8c2.5,0,6,0.6,8,1.7c1.9,1.1,2.5,2.4,2.5,3.5
        c0,2.1-1.4,3.7-3.7,3.7c-0.8,0-1.5-0.3-2.5-0.8c-1.4-0.8-2.5-1.1-3.9-1.1c-1.8,0-3.7,0.6-3.7,2.4c0,1.6,1.6,2.1,5.4,2.9
        c4.5,1,9.4,3.3,9.4,9c0,7.4-6.5,10-12.5,10c-3.4,0-7.2-0.8-9.4-2.3C1095,571.2,1094.4,569.9,1094.4,568.8z"/>
    </g>
  </g>
  <g id="animal-read-instructions-button" class="vid-button">
    <path class="st2 button-bg" d="M743.7,940c-53-0.6-105.1-8.1-157.8-12c-29.5-2.2-63.4,3.5-89.5-10.3c-25.6-13.5-44.1-33.3-49.2-62.8
      c-7.2-41.5,11.4-111.1,60.7-118.3c12.4-1.8,25-0.2,37.4,0.9c115.6,10.9,232.3-24.9,346.9,5.9c22.2,6,43.5,18.9,54.4,39.1
      c23.2,43.1,25.1,121.9-28.1,142.4c-24.5,9.5-46.3,4.8-71.1,6.2c-29.2,1.7-56,8-85.2,8.6C756.1,940.1,749.9,940.1,743.7,940z"/>
    <g class="button-label">
      <path class="st0" d="M537.5,803.9h-18l-2.1,5c-1.3,3.1-3.4,3.8-4.9,3.8c-2.6,0-4.9-1.8-4.9-4.8c0-0.8,0.1-1.6,0.6-2.8l13.8-30.3
        c1.9-4.2,4.7-4.9,6.7-4.9c2.1,0,4.7,0.6,6.6,4.9l13.7,30.2c0.5,1.1,0.6,2.1,0.6,2.7c0,3.2-2.4,5.1-5,5.1c-1.6,0-3.8-0.6-5.1-3.8
        L537.5,803.9z M522.8,795.8h11.4l-5.7-13.8L522.8,795.8z"/>
      <path class="st0" d="M580,801.3h0.2l4.2-13.8c1.4-4.7,4.2-5.3,6.1-5.3c1.9,0,4.6,0.6,6.1,5.2l4.4,13.9h0.1l4.4-15.1
        c0.9-3.3,2.9-4.1,4.7-4.1c2.6,0,4.6,1.9,4.6,4.5c0,0.5-0.1,1.3-0.5,2.4l-6.8,18.8c-1.5,4.1-4.2,4.9-6.2,4.9s-4.9-0.8-6.3-4.9
        l-4.7-14h-0.1l-4.5,14c-1.3,4.1-4.2,4.9-6.3,4.9c-2.1,0-4.8-0.8-6.2-4.9l-6.8-18.8c-0.3-0.9-0.4-1.7-0.4-2.2
        c0-2.6,2.1-4.7,4.8-4.7c1.8,0,3.9,0.8,4.8,4.2L580,801.3z"/>
      <path class="st0" d="M622.7,791.5c-1.9,0-3.4-1.5-3.4-3.5c0-1.1,0.5-2.5,2.3-3.6c3.1-1.9,6.6-2.6,9.7-2.6
        c9.8,0,13.5,4.8,13.5,15.5v10.3c0,4.3-3,5.1-4.5,5.1c-1.3,0-3.8-0.6-4.4-3.7h-0.2c-1.5,2.4-4.8,3.8-8.3,3.8
        c-4.7,0-10.7-2.3-10.7-9.2c0-8.5,10.3-9.9,18.8-9.9v-0.5c0-2.6-2-4.2-5-4.2c-1.9,0-3.8,0.9-5.7,1.9
        C624.1,791.3,623.3,791.5,622.7,791.5z M635.9,799.3h-1.2c-4.2,0-9,0.5-9,4c0,2.2,2.2,3,4.2,3c3.9,0,6.1-2.4,6.1-6V799.3z"/>
      <path class="st0" d="M663.8,801.5h0.2l5.4-15.1c1.2-3.4,3.1-4.2,4.7-4.2c2.8,0,4.8,1.9,4.8,4.5c0,0.6-0.1,1.5-0.5,2.6l-11.4,27.4
        c-2.5,6.1-5.4,9.6-12.9,9.6h-0.5c-4.1,0-4.8-2.6-4.8-4.1c0-1.4,0.6-4.1,4.6-4.1c1.2,0,3.2-0.1,4.5-3.7l1.1-2.7l-10.1-22
        c-0.5-1.1-0.6-2.1-0.6-2.7c0-2.6,2-4.7,4.8-4.7c1.8,0,3.7,0.9,4.8,3.9L663.8,801.5z"/>
      <path class="st0" d="M699.5,779.7c0-4.5,3.2-5.3,4.8-5.3c1.5,0,4.7,0.8,4.7,5.3v3h3.4c3.4,0,4.1,2.5,4.1,3.6
        c0,1.2-0.6,3.7-4.1,3.7H709v11.2c0,2.7,0.8,4,2.9,4c0.3,0,0.5,0,0.8,0c2.4,0,3.6,1.8,3.6,3.5c0,3.1-2.8,4.1-6.2,4.1
        c-7.8,0-10.4-4.2-10.4-10.4V790h-1.2c-3.4,0-4.1-2.5-4.1-3.7c0-1.1,0.6-3.6,4.1-3.6h1.2V779.7z"/>
      <path class="st0" d="M734.5,813c-8.8,0-16.3-6.1-16.3-15.7c0-9.6,7.4-15.5,16.3-15.5c8.9,0,16.3,5.9,16.3,15.5
        C750.9,806.9,743.4,813,734.5,813z M734.5,789.8c-4.5,0-6.9,3.7-6.9,7.5s2.4,7.6,6.9,7.6c4.5,0,7-3.8,7-7.6
        S739.1,789.8,734.5,789.8z"/>
      <path class="st0" d="M771.7,787.3c0-4.5,3.1-5.2,4.7-5.2c1.5,0,4.7,0.8,4.7,4.8h0.1c1.1-2.5,3.1-5,6.1-5c2.7,0,4.3,1.8,4.3,4.2
        c0,2.2-1.2,4.4-4.9,4.6c-3.4,0.2-5.2,2.8-5.2,6.2v10.2c0,4.7-3.2,5.4-4.8,5.4c-1.6,0-4.8-0.8-4.8-5.4V787.3z"/>
      <path class="st0" d="M817.8,802.6c2.1,0,3.7,1.5,3.7,3.7c0,0.8-0.3,2.2-1.7,3.3c-2.5,2.1-6.1,3.4-10.8,3.4
        c-8.8,0-16.1-5.6-16.1-15.5c0-9.6,6.9-15.7,15.8-15.7c7.4,0,12.7,4.3,14.3,11.4c0.2,0.8,0.3,1.5,0.3,2.2c0,3.3-1.9,4.7-5,4.7
        h-16.1c0.3,3.2,3.5,5.5,7,5.5c2.2,0,3.7-0.4,5.6-1.7C816.2,802.9,816.8,802.6,817.8,802.6z M814.5,794c0-3.1-1.9-5.6-5.8-5.6
        c-3.7,0-6.4,2.6-6.7,5.6H814.5z"/>
      <path class="st0" d="M832.3,791.5c-1.9,0-3.4-1.5-3.4-3.5c0-1.1,0.5-2.5,2.3-3.6c3.1-1.9,6.6-2.6,9.7-2.6
        c9.8,0,13.5,4.8,13.5,15.5v10.3c0,4.3-3,5.1-4.5,5.1c-1.3,0-3.8-0.6-4.4-3.7h-0.2c-1.5,2.4-4.8,3.8-8.3,3.8
        c-4.7,0-10.7-2.3-10.7-9.2c0-8.5,10.3-9.9,18.8-9.9v-0.5c0-2.6-2-4.2-5-4.2c-1.9,0-3.8,0.9-5.7,1.9
        C833.8,791.3,833,791.5,832.3,791.5z M845.6,799.3h-1.2c-4.2,0-9,0.5-9,4c0,2.2,2.2,3,4.2,3c3.9,0,6.1-2.4,6.1-6V799.3z"/>
      <path class="st0" d="M892,807.6c0,4.4-3,5.1-4.5,5.1c-1.5,0-4.2-0.8-4.4-4.4H883c-1.9,2.9-5.7,4.7-9.6,4.7c-8.8,0-14-7.4-14-15.6
        c0-8.2,5.3-15.4,13.8-15.4c4.3,0,7.3,2,9,3.9h0.1v-13.5c0-4.7,3.2-5.4,4.8-5.4c1.6,0,4.8,0.8,4.8,5.4V807.6z M875.7,789.8
        c-4.6,0-6.9,3.7-6.9,7.5c0,3.8,2.4,7.6,6.9,7.6c4.4,0,7.1-3.7,7.1-7.5C882.8,793.6,880.1,789.8,875.7,789.8z"/>
      <path class="st0" d="M486.5,850.4c0-4.5,3.2-5.3,4.8-5.3c1.5,0,4.7,0.8,4.7,5.3v3h3.4c3.4,0,4.1,2.5,4.1,3.6
        c0,1.2-0.6,3.7-4.1,3.7H496v11.2c0,2.7,0.8,4,2.9,4c0.3,0,0.5,0,0.8,0c2.4,0,3.6,1.8,3.6,3.5c0,3.1-2.8,4.1-6.2,4.1
        c-7.8,0-10.4-4.2-10.4-10.4v-12.4h-1.2c-3.4,0-4.1-2.5-4.1-3.7c0-1.1,0.6-3.6,4.1-3.6h1.2V850.4z"/>
      <path class="st0" d="M507.6,843c0-4.7,3.2-5.4,4.8-5.4c1.6,0,4.8,0.8,4.8,5.4v14.1h0.1c1.3-2.4,4.4-4.5,8.4-4.5
        c8,0,10.7,6.1,10.7,12v13.3c0,4.7-3.2,5.4-4.9,5.4c-1.6,0-4.8-0.8-4.8-5.4v-11.1c0-3.3-0.8-6.2-4.3-6.2c-3.4,0-5.2,2.8-5.2,6.2v11
        c0,4.7-3.2,5.4-4.8,5.4c-1.6,0-4.8-0.8-4.8-5.4V843z"/>
      <path class="st0" d="M566.6,873.3c2.1,0,3.7,1.5,3.7,3.7c0,0.8-0.3,2.2-1.7,3.3c-2.5,2.1-6.1,3.4-10.8,3.4
        c-8.8,0-16.1-5.6-16.1-15.5c0-9.6,6.9-15.7,15.8-15.7c7.4,0,12.7,4.3,14.3,11.4c0.2,0.8,0.3,1.5,0.3,2.2c0,3.3-1.9,4.7-5,4.7
        h-16.1c0.3,3.2,3.5,5.5,7,5.5c2.2,0,3.7-0.4,5.6-1.7C565,873.5,565.6,873.3,566.6,873.3z M563.3,864.7c0-3.1-1.9-5.6-5.8-5.6
        c-3.7,0-6.4,2.6-6.7,5.6H563.3z"/>
      <path class="st0" d="M593.5,846.1c0-4.8,3.4-5.7,5.1-5.7c1.6,0,5.1,0.8,5.1,5.7v31.6c0,4.8-3.4,5.7-5.1,5.7
        c-1.6,0-5.1-0.8-5.1-5.7V846.1z"/>
      <path class="st0" d="M611.1,858c0-4.5,3.1-5.2,4.7-5.2c1.5,0,4.5,0.7,4.7,4.7h0.1c1.4-2.6,4.7-4.9,8.8-4.9c7.9,0,10.7,6.1,10.7,12
        v13.3c0,4.7-3.2,5.4-4.9,5.4c-1.6,0-4.8-0.8-4.8-5.4v-11.2c0-3.2-0.9-6.2-4.4-6.2c-3.4,0-5.2,2.9-5.2,6.3v11.1
        c0,4.7-3.2,5.4-4.9,5.4c-1.6,0-4.8-0.8-4.8-5.4V858z"/>
      <path class="st0" d="M645,877.8c0-2.1,1.6-3.8,3.7-3.8c0.9,0,1.8,0.3,2.9,1.1c1.7,1.2,3.3,1.6,4.8,1.6c1.6,0,3.5-0.6,3.5-2.5
        c0-1.8-1.8-2.4-5.8-3.3c-4.1-0.9-8.5-3.1-8.5-8.6c0-7,6.6-9.8,12.2-9.8c2.5,0,6,0.6,8,1.7c1.9,1.1,2.5,2.4,2.5,3.5
        c0,2.1-1.4,3.7-3.7,3.7c-0.8,0-1.5-0.3-2.5-0.8c-1.4-0.8-2.5-1.1-3.9-1.1c-1.8,0-3.7,0.6-3.7,2.4c0,1.6,1.6,2.1,5.4,2.9
        c4.5,1,9.4,3.3,9.4,9c0,7.4-6.5,10-12.5,10c-3.4,0-7.2-0.8-9.4-2.3C645.5,880.3,645,879,645,877.8z"/>
      <path class="st0" d="M676.3,850.4c0-4.5,3.2-5.3,4.8-5.3c1.5,0,4.7,0.8,4.7,5.3v3h3.4c3.4,0,4.1,2.5,4.1,3.6
        c0,1.2-0.6,3.7-4.1,3.7h-3.4v11.2c0,2.7,0.8,4,2.9,4c0.3,0,0.5,0,0.8,0c2.4,0,3.6,1.8,3.6,3.5c0,3.1-2.8,4.1-6.2,4.1
        c-7.8,0-10.4-4.2-10.4-10.4v-12.4h-1.2c-3.4,0-4.1-2.5-4.1-3.7c0-1.1,0.6-3.6,4.1-3.6h1.2V850.4z"/>
      <path class="st0" d="M697.3,858c0-4.5,3.1-5.2,4.7-5.2c1.5,0,4.7,0.8,4.7,4.8h0.1c1.1-2.5,3.1-5,6.1-5c2.7,0,4.3,1.8,4.3,4.2
        c0,2.2-1.2,4.4-4.9,4.6c-3.4,0.2-5.2,2.8-5.2,6.2v10.2c0,4.7-3.2,5.4-4.8,5.4c-1.6,0-4.8-0.8-4.8-5.4V858z"/>
      <path class="st0" d="M749.2,878.1c0,4.5-3.1,5.2-4.6,5.2c-1.5,0-4.5-0.7-4.7-4.7h-0.1c-1.4,2.6-4.7,4.9-8.8,4.9
        c-7.9,0-10.7-6.1-10.7-12v-13.3c0-4.7,3.2-5.4,4.9-5.4c1.6,0,4.8,0.8,4.8,5.4v11.1c0,3.3,0.8,6.2,4.4,6.2c3.4,0,5.2-2.9,5.2-6.3
        v-11c0-4.7,3.2-5.4,4.8-5.4c1.6,0,4.8,0.8,4.8,5.4V878.1z"/>
      <path class="st0" d="M754.6,868.1c0-9.5,7.2-15.6,16.4-15.6c2.4,0,4.8,0.5,6.5,1.3c2.2,1.1,2.8,2.6,2.8,3.9c0,2.2-1.4,4.2-3.9,4.2
        c-0.7,0-1.5-0.2-2.6-0.7c-0.8-0.4-1.6-0.6-2.6-0.6c-4.1,0-6.8,3.5-6.8,7.5c0,4.1,2.7,7.5,6.9,7.5c0.9,0,1.8-0.1,2.6-0.5
        c1.1-0.5,1.9-0.7,2.6-0.7c2.6,0,3.9,1.9,3.9,4.2c0,1.2-0.7,2.8-2.8,3.9c-1.8,0.9-4.2,1.3-6.5,1.3
        C761.7,883.7,754.6,877.8,754.6,868.1z"/>
      <path class="st0" d="M787.7,850.4c0-4.5,3.2-5.3,4.8-5.3c1.5,0,4.7,0.8,4.7,5.3v3h3.4c3.4,0,4.1,2.5,4.1,3.6
        c0,1.2-0.6,3.7-4.1,3.7h-3.4v11.2c0,2.7,0.8,4,2.9,4c0.3,0,0.5,0,0.8,0c2.4,0,3.6,1.8,3.6,3.5c0,3.1-2.8,4.1-6.2,4.1
        c-7.8,0-10.4-4.2-10.4-10.4v-12.4h-1.2c-3.4,0-4.1-2.5-4.1-3.7c0-1.1,0.6-3.6,4.1-3.6h1.2V850.4z"/>
      <path class="st0" d="M813.5,849.3c-3.1,0-5.5-2.4-5.5-5.3c0-2.8,2.4-5.3,5.5-5.3c3.1,0,5.5,2.4,5.5,5.3
        C819,847,816.5,849.3,813.5,849.3z M808.6,858.2c0-4.7,3.2-5.4,4.8-5.4c1.6,0,4.8,0.8,4.8,5.4v19.7c0,4.7-3.2,5.4-4.8,5.4
        c-1.6,0-4.8-0.8-4.8-5.4V858.2z"/>
      <path class="st0" d="M839.7,883.7c-8.8,0-16.3-6.1-16.3-15.7c0-9.6,7.4-15.5,16.3-15.5c8.9,0,16.3,5.9,16.3,15.5
        C856,877.6,848.6,883.7,839.7,883.7z M839.7,860.5c-4.5,0-6.9,3.7-6.9,7.5s2.4,7.6,6.9,7.6s6.9-3.8,6.9-7.6
        S844.2,860.5,839.7,860.5z"/>
      <path class="st0" d="M861.4,858c0-4.5,3.1-5.2,4.7-5.2c1.5,0,4.5,0.7,4.7,4.7h0.1c1.4-2.6,4.7-4.9,8.8-4.9c7.9,0,10.7,6.1,10.7,12
        v13.3c0,4.7-3.2,5.4-4.9,5.4c-1.6,0-4.8-0.8-4.8-5.4v-11.2c0-3.2-0.9-6.2-4.4-6.2c-3.4,0-5.2,2.9-5.2,6.3v11.1
        c0,4.7-3.2,5.4-4.9,5.4c-1.6,0-4.8-0.8-4.8-5.4V858z"/>
      <path class="st0" d="M895.3,877.8c0-2.1,1.6-3.8,3.7-3.8c0.9,0,1.8,0.3,2.9,1.1c1.7,1.2,3.3,1.6,4.8,1.6c1.6,0,3.5-0.6,3.5-2.5
        c0-1.8-1.8-2.4-5.8-3.3c-4.1-0.9-8.5-3.1-8.5-8.6c0-7,6.6-9.8,12.2-9.8c2.5,0,6,0.6,8,1.7c1.9,1.1,2.5,2.4,2.5,3.5
        c0,2.1-1.4,3.7-3.7,3.7c-0.8,0-1.5-0.3-2.5-0.8c-1.4-0.8-2.5-1.1-3.9-1.1c-1.8,0-3.7,0.6-3.7,2.4c0,1.6,1.6,2.1,5.4,2.9
        c4.5,1,9.4,3.3,9.4,9c0,7.4-6.5,10-12.5,10c-3.4,0-7.2-0.8-9.4-2.3C895.8,880.3,895.3,879,895.3,877.8z"/>
    </g>
  </g>
  <g id="animal-container-button" class="vid-button">
    <path class="st3 button-bg" d="M1792.4,625.9c-18,16.5-49.3,22.7-77.3,25.3c-60.4,5.8-123.9-6.7-184.9-6.4
      c-39.1,0.2-97,4.4-128.3-24.4c-32.3-29.8-14.3-76.6,18.4-96.6c17.4-10.7,27.9-8.7,47.6-7.9c15.5,0.6,31.6,1.2,46.9,1.3
      c36.9,0.2,73.6-0.8,110.5-2.1c29.5-1.1,58.5,4.6,88.4,4.4c18.6-0.1,37.8-0.1,54.7,7.6c15.6,7.1,28,20.7,33.8,36.8
      C1812.7,593.3,1806.7,612.9,1792.4,625.9z"/>
    <g class="button-label">
      <path class="st0" d="M1458.1,591.8h-18l-2.1,5c-1.3,3.1-3.4,3.8-4.9,3.8c-2.6,0-4.9-1.8-4.9-4.8c0-0.8,0.1-1.6,0.6-2.8l13.8-30.3
        c1.9-4.2,4.7-4.9,6.7-4.9c2.1,0,4.7,0.6,6.6,4.9l13.7,30.2c0.5,1.1,0.6,2.1,0.6,2.7c0,3.2-2.4,5.1-5,5.1c-1.6,0-3.8-0.6-5.1-3.8
        L1458.1,591.8z M1443.4,583.8h11.4l-5.7-13.8L1443.4,583.8z"/>
      <path class="st0" d="M1510.7,566.3c-7,0-12,5.4-12,12.8c0,7.6,4.9,12.8,11.8,12.8c2.2,0,3.9-0.4,6-1.8c1.7-1.2,2.6-1.4,3.5-1.4
        c2.4,0,4.5,1.8,4.5,4.5c0,1.2-0.5,2.8-2.3,4.2c-2.3,1.9-6.9,3.7-12.1,3.7c-12.8,0-22.4-9-22.4-22c0-13.4,9.9-21.9,22.6-21.9
        c4.4,0,9.1,1.4,11.4,2.9c2.1,1.5,2.4,3.1,2.4,4.3c0,2.6-2,4.5-4.6,4.5c-0.9,0-1.8-0.2-3.4-1.2
        C1514.8,566.9,1513,566.3,1510.7,566.3z"/>
      <path class="st0" d="M1543.9,601c-8.8,0-16.3-6.1-16.3-15.7c0-9.6,7.4-15.5,16.3-15.5c8.9,0,16.3,5.9,16.3,15.5
        C1560.2,594.9,1552.8,601,1543.9,601z M1543.9,577.8c-4.5,0-6.9,3.7-6.9,7.5s2.4,7.6,6.9,7.6s6.9-3.8,6.9-7.6
        S1548.4,577.8,1543.9,577.8z"/>
      <path class="st0" d="M1565.5,575.3c0-4.5,3.1-5.2,4.7-5.2c1.5,0,4.5,0.7,4.7,4.7h0.1c1.4-2.6,4.7-4.9,8.8-4.9
        c7.9,0,10.7,6.1,10.7,12v13.3c0,4.7-3.2,5.4-4.9,5.4c-1.6,0-4.8-0.8-4.8-5.4V584c0-3.2-0.9-6.2-4.4-6.2c-3.4,0-5.2,2.9-5.2,6.3
        v11.1c0,4.7-3.2,5.4-4.9,5.4c-1.6,0-4.8-0.8-4.8-5.4V575.3z"/>
      <path class="st0" d="M1602.3,567.7c0-4.5,3.2-5.3,4.8-5.3c1.5,0,4.7,0.8,4.7,5.3v3h3.4c3.4,0,4.1,2.5,4.1,3.6
        c0,1.2-0.6,3.7-4.1,3.7h-3.4v11.2c0,2.7,0.8,4,2.9,4c0.3,0,0.5,0,0.8,0c2.4,0,3.6,1.8,3.6,3.5c0,3.1-2.8,4.1-6.2,4.1
        c-7.8,0-10.4-4.2-10.4-10.4V578h-1.2c-3.4,0-4.1-2.5-4.1-3.7c0-1.1,0.6-3.6,4.1-3.6h1.2V567.7z"/>
      <path class="st0" d="M1627.4,579.4c-1.9,0-3.4-1.5-3.4-3.5c0-1.1,0.5-2.5,2.3-3.6c3.1-1.9,6.6-2.6,9.7-2.6
        c9.8,0,13.5,4.8,13.5,15.5v10.3c0,4.3-3,5.1-4.5,5.1c-1.3,0-3.8-0.6-4.4-3.7h-0.2c-1.5,2.4-4.8,3.8-8.3,3.8
        c-4.7,0-10.7-2.3-10.7-9.2c0-8.5,10.3-9.9,18.8-9.9v-0.5c0-2.6-2-4.2-5-4.2c-1.9,0-3.8,0.9-5.7,1.9
        C1628.8,579.2,1628.1,579.4,1627.4,579.4z M1640.7,587.3h-1.2c-4.2,0-9,0.5-9,4c0,2.2,2.2,3,4.2,3c3.9,0,6.1-2.4,6.1-6V587.3z"/>
      <path class="st0" d="M1660.9,566.6c-3.1,0-5.5-2.4-5.5-5.3c0-2.8,2.4-5.3,5.5-5.3c3.1,0,5.5,2.4,5.5,5.3
        C1666.4,564.3,1663.9,566.6,1660.9,566.6z M1656.1,575.5c0-4.7,3.2-5.4,4.8-5.4c1.6,0,4.8,0.8,4.8,5.4v19.7c0,4.7-3.2,5.4-4.8,5.4
        c-1.6,0-4.8-0.8-4.8-5.4V575.5z"/>
      <path class="st0" d="M1672.5,575.3c0-4.5,3.1-5.2,4.7-5.2c1.5,0,4.5,0.7,4.7,4.7h0.1c1.4-2.6,4.7-4.9,8.8-4.9
        c7.9,0,10.7,6.1,10.7,12v13.3c0,4.7-3.2,5.4-4.9,5.4c-1.6,0-4.8-0.8-4.8-5.4V584c0-3.2-0.9-6.2-4.4-6.2c-3.4,0-5.2,2.9-5.2,6.3
        v11.1c0,4.7-3.2,5.4-4.9,5.4c-1.6,0-4.8-0.8-4.8-5.4V575.3z"/>
      <path class="st0" d="M1731.6,590.6c2.1,0,3.7,1.5,3.7,3.7c0,0.8-0.3,2.2-1.7,3.3c-2.5,2.1-6.1,3.4-10.8,3.4
        c-8.8,0-16.1-5.6-16.1-15.5c0-9.6,6.9-15.7,15.8-15.7c7.4,0,12.7,4.3,14.3,11.4c0.2,0.8,0.3,1.5,0.3,2.2c0,3.3-1.9,4.7-5,4.7H1716
        c0.3,3.2,3.5,5.5,7,5.5c2.2,0,3.7-0.4,5.6-1.7C1730,590.8,1730.7,590.6,1731.6,590.6z M1728.4,582c0-3.1-1.9-5.6-5.8-5.6
        c-3.7,0-6.4,2.6-6.7,5.6H1728.4z"/>
      <path class="st0" d="M1742.5,575.3c0-4.5,3.1-5.2,4.7-5.2c1.5,0,4.7,0.8,4.7,4.8h0.1c1.1-2.5,3.1-5,6.1-5c2.7,0,4.3,1.8,4.3,4.2
        c0,2.2-1.2,4.4-4.9,4.6c-3.4,0.2-5.2,2.8-5.2,6.2v10.2c0,4.7-3.2,5.4-4.8,5.4c-1.6,0-4.8-0.8-4.8-5.4V575.3z"/>
    </g>
  </g>
  <g id="animal-energy-button" class="vid-button">
    <path class="st4 button-bg" d="M1406.2,922.8c-15.5-0.4-31.2-1.1-47-2.2c-57.2-3.9-114.4-7.9-171.3-14.6
      c-43.3-5.1-76.9-4.7-97.4-50.9c-10.5-23.7-11.8-50.8-7-76.2c7.6-39.9,22.8-73.2,66.2-82.5c26-5.6,52.9-2.1,79.4-0.7
      c60.9,3.1,121.8-5.7,182.7-9c35.9-2,72.1-1.8,107.8,3.4c37,5.4,95.6-9.1,124.8,20.1c11.3,11.4,15.7,27.8,18.7,43.6
      c8.8,47,15.7,107.3-27,141.2c-15.9,12.6-36,18.9-56.1,21.3C1523.2,922.8,1463.8,924.3,1406.2,922.8z"/>
    <g class="button-label">
      <path class="st0" d="M1167.4,781.4h-18l-2.1,5c-1.3,3.1-3.4,3.8-4.9,3.8c-2.6,0-4.9-1.8-4.9-4.8c0-0.8,0.1-1.6,0.6-2.8l13.8-30.3
        c1.9-4.2,4.7-4.9,6.7-4.9c2.1,0,4.7,0.6,6.6,4.9l13.7,30.2c0.5,1.1,0.6,2.1,0.6,2.7c0,3.2-2.4,5.1-5,5.1c-1.6,0-3.8-0.6-5.1-3.8
        L1167.4,781.4z M1152.7,773.3h11.4l-5.7-13.8L1152.7,773.3z"/>
      <path class="st0" d="M1210,778.8h0.2l4.2-13.8c1.4-4.7,4.2-5.3,6.1-5.3s4.6,0.6,6.1,5.2l4.4,13.9h0.1l4.4-15.1
        c0.9-3.3,2.9-4.1,4.7-4.1c2.6,0,4.6,1.9,4.6,4.5c0,0.5-0.1,1.3-0.5,2.4l-6.8,18.8c-1.5,4.1-4.2,4.9-6.2,4.9
        c-2.1,0-4.9-0.8-6.3-4.9l-4.7-14h-0.1l-4.5,14c-1.3,4.1-4.2,4.9-6.3,4.9c-2.1,0-4.8-0.8-6.2-4.9l-6.8-18.8
        c-0.3-0.9-0.4-1.7-0.4-2.2c0-2.6,2.1-4.7,4.8-4.7c1.8,0,3.9,0.8,4.8,4.2L1210,778.8z"/>
      <path class="st0" d="M1252.6,769c-1.9,0-3.4-1.5-3.4-3.5c0-1.1,0.5-2.5,2.3-3.6c3.1-1.9,6.6-2.6,9.7-2.6c9.8,0,13.5,4.8,13.5,15.5
        v10.3c0,4.3-3,5.1-4.5,5.1c-1.3,0-3.8-0.6-4.4-3.7h-0.2c-1.5,2.4-4.8,3.8-8.3,3.8c-4.7,0-10.7-2.3-10.7-9.2
        c0-8.5,10.3-9.9,18.8-9.9v-0.5c0-2.6-2-4.2-5-4.2c-1.9,0-3.8,0.9-5.7,1.9C1254,768.8,1253.2,769,1252.6,769z M1265.8,776.8h-1.2
        c-4.2,0-9,0.5-9,4c0,2.2,2.2,3,4.2,3c3.9,0,6.1-2.4,6.1-6V776.8z"/>
      <path class="st0" d="M1293.7,779h0.2l5.4-15.1c1.2-3.4,3.1-4.2,4.7-4.2c2.8,0,4.8,1.9,4.8,4.5c0,0.6-0.1,1.5-0.5,2.6l-11.4,27.4
        c-2.5,6.1-5.4,9.6-12.9,9.6h-0.5c-4.1,0-4.8-2.7-4.8-4.1c0-1.4,0.6-4.1,4.6-4.1c1.2,0,3.2-0.1,4.5-3.7l1.1-2.7l-10.1-22
        c-0.5-1.1-0.6-2.1-0.6-2.7c0-2.7,2-4.7,4.8-4.7c1.8,0,3.7,0.9,4.8,3.9L1293.7,779z"/>
      <path class="st0" d="M1329.5,757.3c0-4.5,3.2-5.3,4.8-5.3c1.5,0,4.7,0.8,4.7,5.3v3h3.4c3.4,0,4.1,2.5,4.1,3.6
        c0,1.2-0.6,3.7-4.1,3.7h-3.4v11.2c0,2.7,0.8,4,2.9,4c0.3,0,0.5,0,0.8,0c2.4,0,3.6,1.8,3.6,3.5c0,3.1-2.8,4.1-6.2,4.1
        c-7.8,0-10.4-4.2-10.4-10.4v-12.4h-1.2c-3.4,0-4.1-2.5-4.1-3.7c0-1.1,0.6-3.6,4.1-3.6h1.2V757.3z"/>
      <path class="st0" d="M1364.5,790.5c-8.8,0-16.3-6.1-16.3-15.7c0-9.6,7.4-15.5,16.3-15.5c8.9,0,16.3,5.9,16.3,15.5
        C1380.8,784.4,1373.4,790.5,1364.5,790.5z M1364.5,767.3c-4.5,0-6.9,3.7-6.9,7.5s2.4,7.6,6.9,7.6s6.9-3.8,6.9-7.6
        S1369,767.3,1364.5,767.3z"/>
      <path class="st0" d="M1401.5,797c0-2.2,1.5-4.2,4-4.2c0.8,0,1.7,0.2,3.2,1.1c2.4,1.4,4.7,1.9,6.7,1.9c5,0,7.8-3.2,7.8-8.1V786
        h-0.2c-1.8,2.4-5,3.9-8.9,3.9c-8.9,0-14-6.9-14-15.1c0-8.1,5.1-15.4,14-15.4c3.7,0,7.3,1.5,9.4,4.6h0.1c0.3-3.6,3.1-4.4,4.5-4.4
        c1.5,0,4.6,0.7,4.6,5.2v22c0,11.5-6.8,16.9-17.3,16.9c-3.6,0-8.4-0.8-11.5-2.9C1402.2,799.7,1401.5,798.3,1401.5,797z
         M1416.4,767.3c-4.4,0-6.9,3.4-6.9,7.4c0,3.9,2.5,7.5,6.9,7.5c4.4,0,7.1-3.5,7.1-7.5S1420.8,767.3,1416.4,767.3z"/>
      <path class="st0" d="M1463.1,780.2c2.1,0,3.7,1.5,3.7,3.7c0,0.8-0.3,2.2-1.7,3.3c-2.5,2.1-6.1,3.4-10.8,3.4
        c-8.8,0-16.1-5.6-16.1-15.5c0-9.6,6.9-15.7,15.8-15.7c7.4,0,12.7,4.3,14.3,11.4c0.2,0.8,0.3,1.5,0.3,2.2c0,3.3-1.9,4.7-5,4.7
        h-16.1c0.3,3.2,3.5,5.5,7,5.5c2.2,0,3.7-0.4,5.6-1.7C1461.5,780.4,1462.2,780.2,1463.1,780.2z M1459.9,771.6
        c0-3.1-1.9-5.6-5.8-5.6c-3.7,0-6.4,2.6-6.7,5.6H1459.9z"/>
      <path class="st0" d="M1475.3,757.3c0-4.5,3.2-5.3,4.8-5.3c1.5,0,4.7,0.8,4.7,5.3v3h3.4c3.4,0,4.1,2.5,4.1,3.6
        c0,1.2-0.6,3.7-4.1,3.7h-3.4v11.2c0,2.7,0.8,4,2.9,4c0.3,0,0.5,0,0.8,0c2.4,0,3.6,1.8,3.6,3.5c0,3.1-2.8,4.1-6.2,4.1
        c-7.8,0-10.4-4.2-10.4-10.4v-12.4h-1.2c-3.4,0-4.1-2.5-4.1-3.7c0-1.1,0.6-3.6,4.1-3.6h1.2V757.3z"/>
      <path class="st0" d="M1515,769c-1.9,0-3.4-1.5-3.4-3.5c0-1.1,0.5-2.5,2.3-3.6c3.1-1.9,6.6-2.6,9.7-2.6c9.8,0,13.5,4.8,13.5,15.5
        v10.3c0,4.3-3,5.1-4.5,5.1c-1.3,0-3.8-0.6-4.4-3.7h-0.2c-1.5,2.4-4.8,3.8-8.3,3.8c-4.7,0-10.7-2.3-10.7-9.2
        c0-8.5,10.3-9.9,18.8-9.9v-0.5c0-2.6-2-4.2-5-4.2c-1.9,0-3.8,0.9-5.7,1.9C1516.4,768.8,1515.7,769,1515,769z M1528.3,776.8h-1.2
        c-4.2,0-9,0.5-9,4c0,2.2,2.2,3,4.2,3c3.9,0,6.1-2.4,6.1-6V776.8z"/>
      <path class="st0" d="M1543.7,764.9c0-4.5,3.1-5.2,4.7-5.2c1.5,0,4.5,0.7,4.7,4.7h0.1c1.4-2.6,4.7-4.9,8.8-4.9
        c7.9,0,10.7,6.1,10.7,12v13.3c0,4.7-3.2,5.4-4.9,5.4c-1.6,0-4.8-0.8-4.8-5.4v-11.2c0-3.2-0.9-6.2-4.4-6.2c-3.4,0-5.2,2.9-5.2,6.3
        v11.1c0,4.7-3.2,5.4-4.9,5.4c-1.6,0-4.8-0.8-4.8-5.4V764.9z"/>
      <path class="st0" d="M1610.5,785.1c0,4.4-3,5.1-4.5,5.1s-4.2-0.8-4.4-4.4h-0.1c-1.9,2.9-5.7,4.7-9.6,4.7c-8.8,0-14-7.4-14-15.6
        c0-8.2,5.3-15.4,13.8-15.4c4.3,0,7.3,2,9,3.9h0.1v-13.5c0-4.7,3.2-5.4,4.8-5.4c1.6,0,4.8,0.8,4.8,5.4V785.1z M1594.2,767.3
        c-4.6,0-7,3.7-7,7.5c0,3.8,2.4,7.6,7,7.6c4.4,0,7.1-3.7,7.1-7.5C1601.2,771.2,1598.5,767.3,1594.2,767.3z"/>
      <path class="st0" d="M1252.7,855.7c0,4.5-3.1,5.2-4.6,5.2c-1.5,0-4.5-0.7-4.7-4.7h-0.1c-1.4,2.6-4.7,4.9-8.8,4.9
        c-7.9,0-10.7-6.1-10.7-12v-13.3c0-4.7,3.2-5.4,4.9-5.4c1.6,0,4.8,0.8,4.8,5.4v11.1c0,3.3,0.8,6.2,4.4,6.2c3.4,0,5.2-2.9,5.2-6.3
        v-11c0-4.7,3.2-5.4,4.8-5.4s4.8,0.8,4.8,5.4V855.7z"/>
      <path class="st0" d="M1258,855.3c0-2.1,1.6-3.8,3.7-3.8c0.9,0,1.8,0.3,2.9,1.1c1.7,1.2,3.3,1.6,4.8,1.6c1.6,0,3.5-0.6,3.5-2.5
        c0-1.8-1.8-2.4-5.8-3.3c-4.1-0.9-8.5-3.1-8.5-8.6c0-7,6.6-9.8,12.2-9.8c2.5,0,6,0.6,8,1.7c1.9,1.1,2.5,2.4,2.5,3.5
        c0,2.1-1.4,3.7-3.7,3.7c-0.8,0-1.5-0.3-2.5-0.8c-1.4-0.8-2.5-1.1-3.9-1.1c-1.8,0-3.7,0.6-3.7,2.4c0,1.6,1.6,2.1,5.4,2.9
        c4.5,1,9.4,3.3,9.4,9c0,7.4-6.5,10-12.5,10c-3.4,0-7.2-0.8-9.4-2.3C1258.5,857.8,1258,856.5,1258,855.3z"/>
      <path class="st0" d="M1310.6,850.8c2.1,0,3.7,1.5,3.7,3.7c0,0.8-0.3,2.2-1.7,3.3c-2.5,2.1-6.1,3.4-10.8,3.4
        c-8.8,0-16.1-5.6-16.1-15.5c0-9.6,7-15.7,15.8-15.7c7.4,0,12.7,4.3,14.3,11.4c0.2,0.8,0.3,1.5,0.3,2.2c0,3.3-1.9,4.7-5,4.7h-16.1
        c0.3,3.2,3.5,5.5,7,5.5c2.2,0,3.7-0.4,5.6-1.7C1309,851.1,1309.6,850.8,1310.6,850.8z M1307.3,842.2c0-3.1-1.9-5.6-5.8-5.6
        c-3.7,0-6.4,2.6-6.7,5.6H1307.3z"/>
      <path class="st0" d="M1360.4,850.8c2.1,0,3.7,1.5,3.7,3.7c0,0.8-0.3,2.2-1.7,3.3c-2.5,2.1-6.1,3.4-10.8,3.4
        c-8.8,0-16.1-5.6-16.1-15.5c0-9.6,7-15.7,15.8-15.7c7.4,0,12.7,4.3,14.3,11.4c0.2,0.8,0.3,1.5,0.3,2.2c0,3.3-1.9,4.7-5,4.7h-16.1
        c0.3,3.2,3.5,5.5,7,5.5c2.2,0,3.7-0.4,5.6-1.7C1358.8,851.1,1359.4,850.8,1360.4,850.8z M1357.1,842.2c0-3.1-1.9-5.6-5.8-5.6
        c-3.7,0-6.4,2.6-6.7,5.6H1357.1z"/>
      <path class="st0" d="M1371.2,835.5c0-4.5,3.1-5.2,4.7-5.2c1.5,0,4.5,0.7,4.7,4.7h0.1c1.4-2.6,4.7-4.9,8.8-4.9
        c7.9,0,10.7,6.1,10.7,12v13.3c0,4.7-3.2,5.4-4.9,5.4c-1.6,0-4.8-0.8-4.8-5.4v-11.2c0-3.2-0.9-6.2-4.4-6.2c-3.4,0-5.2,2.9-5.2,6.3
        v11.1c0,4.7-3.2,5.4-4.9,5.4c-1.6,0-4.8-0.8-4.8-5.4V835.5z"/>
      <path class="st0" d="M1430.3,850.8c2.1,0,3.7,1.5,3.7,3.7c0,0.8-0.3,2.2-1.7,3.3c-2.5,2.1-6.1,3.4-10.8,3.4
        c-8.8,0-16.1-5.6-16.1-15.5c0-9.6,6.9-15.7,15.8-15.7c7.4,0,12.7,4.3,14.3,11.4c0.2,0.8,0.3,1.5,0.3,2.2c0,3.3-1.9,4.7-5,4.7
        h-16.1c0.3,3.2,3.5,5.5,7,5.5c2.2,0,3.7-0.4,5.6-1.7C1428.7,851.1,1429.3,850.8,1430.3,850.8z M1427,842.2c0-3.1-1.9-5.6-5.8-5.6
        c-3.7,0-6.4,2.6-6.7,5.6H1427z"/>
      <path class="st0" d="M1441.1,835.5c0-4.5,3.1-5.2,4.7-5.2c1.5,0,4.7,0.8,4.7,4.8h0.1c1.1-2.5,3.1-5,6.1-5c2.7,0,4.3,1.8,4.3,4.2
        c0,2.2-1.2,4.4-4.9,4.6c-3.4,0.2-5.2,2.8-5.2,6.2v10.2c0,4.7-3.2,5.4-4.8,5.4s-4.8-0.8-4.8-5.4V835.5z"/>
      <path class="st0" d="M1463.7,867.7c0-2.2,1.5-4.2,4-4.2c0.8,0,1.7,0.2,3.2,1.1c2.4,1.4,4.7,1.9,6.7,1.9c5,0,7.8-3.2,7.8-8.1v-1.8
        h-0.2c-1.8,2.4-5,3.9-8.9,3.9c-8.9,0-14-6.9-14-15.1c0-8.1,5.1-15.4,14-15.4c3.7,0,7.3,1.5,9.4,4.6h0.1c0.3-3.6,3.1-4.4,4.5-4.4
        c1.5,0,4.6,0.7,4.6,5.2v22c0,11.5-6.8,16.9-17.3,16.9c-3.6,0-8.4-0.8-11.5-2.9C1464.3,870.3,1463.7,868.9,1463.7,867.7z
         M1478.6,838c-4.4,0-6.9,3.4-6.9,7.4c0,3.9,2.5,7.5,6.9,7.5c4.4,0,7.1-3.5,7.1-7.5S1482.9,838,1478.6,838z"/>
      <path class="st0" d="M1514.8,849.7h0.2l5.4-15.1c1.2-3.4,3.1-4.2,4.7-4.2c2.8,0,4.8,1.9,4.8,4.5c0,0.6-0.1,1.5-0.5,2.6l-11.4,27.4
        c-2.5,6.1-5.4,9.6-12.9,9.6h-0.5c-4.1,0-4.8-2.7-4.8-4.1c0-1.4,0.6-4.1,4.6-4.1c1.2,0,3.2-0.1,4.5-3.7l1.1-2.7l-10.1-22
        c-0.5-1.1-0.6-2.1-0.6-2.7c0-2.7,2-4.7,4.8-4.7c1.8,0,3.7,0.9,4.8,3.9L1514.8,849.7z"/>
    </g>
  </g>
  <g id="animal-waste-button" class="vid-button">
    <path class="st5 button-bg" d="M666,540.3c-1.6,12.1-6.2,23.2-7.1,35c-0.8,11.2,1.2,21.1-1.9,32.4
      c-5.2,19.1-17.6,36.4-34.8,46.3c-23.4,13.6-52,13.7-79.1,13.5c-48.7-0.4-97.8-0.5-146.1-3.9c-44.4-3.1-88.6,8.6-132.7-2.9
      c-18.3-4.8-35.7-18.6-38.7-37.3c-2.7-16.1,2.6-31.8-1.8-47.9c-5.5-20.1-12.4-34.9-5.6-56.4c19.9-62.7,84.3-46.1,134.4-46.9
      c68.4-1.2,137.6-11.7,205.5-6.8c38.9,2.8,94.4-2.4,106.6,46.1C667.1,520.9,667.3,530.7,666,540.3z"/>
    <g class="button-label">
      <path class="st0" d="M292.2,539.2h-18l-2.1,5c-1.3,3.1-3.4,3.8-4.9,3.8c-2.6,0-4.9-1.8-4.9-4.8c0-0.8,0.1-1.6,0.6-2.8l13.8-30.3
        c1.9-4.2,4.7-4.9,6.7-4.9c2.1,0,4.7,0.6,6.6,4.9l13.7,30.2c0.5,1.1,0.6,2.1,0.6,2.7c0,3.2-2.4,5.1-5,5.1c-1.6,0-3.8-0.6-5.1-3.8
        L292.2,539.2z M277.5,531.2h11.4l-5.7-13.8L277.5,531.2z"/>
      <path class="st0" d="M334.7,536.6h0.2l4.2-13.8c1.4-4.7,4.2-5.3,6.1-5.3s4.6,0.6,6.1,5.2l4.4,13.9h0.1l4.4-15.1
        c0.9-3.3,2.9-4.1,4.7-4.1c2.6,0,4.6,1.9,4.6,4.5c0,0.5-0.1,1.3-0.5,2.4l-6.8,18.8c-1.5,4.1-4.2,4.9-6.2,4.9
        c-2.1,0-4.9-0.8-6.3-4.9l-4.7-14H345l-4.5,14c-1.3,4.1-4.2,4.9-6.3,4.9c-2.1,0-4.8-0.8-6.2-4.9l-6.8-18.8
        c-0.3-0.9-0.4-1.7-0.4-2.2c0-2.7,2.1-4.7,4.8-4.7c1.8,0,3.9,0.8,4.8,4.2L334.7,536.6z"/>
      <path class="st0" d="M377.4,526.8c-1.9,0-3.4-1.5-3.4-3.5c0-1.1,0.5-2.5,2.3-3.6c3.1-1.9,6.6-2.6,9.7-2.6
        c9.8,0,13.5,4.8,13.5,15.5v10.3c0,4.3-3,5.1-4.5,5.1c-1.3,0-3.8-0.6-4.4-3.7h-0.2c-1.5,2.4-4.8,3.8-8.3,3.8
        c-4.7,0-10.7-2.3-10.7-9.2c0-8.5,10.3-9.9,18.8-9.9v-0.5c0-2.6-2-4.2-5-4.2c-1.9,0-3.8,0.9-5.7,1.9
        C378.8,526.6,378,526.8,377.4,526.8z M390.6,534.6h-1.2c-4.2,0-9,0.5-9,4c0,2.2,2.2,3,4.2,3c3.9,0,6.1-2.4,6.1-6V534.6z"/>
      <path class="st0" d="M418.5,536.8h0.2l5.4-15.1c1.2-3.4,3.1-4.2,4.7-4.2c2.8,0,4.8,1.9,4.8,4.5c0,0.6-0.1,1.5-0.5,2.6l-11.4,27.4
        c-2.5,6.1-5.4,9.6-12.9,9.6h-0.5c-4.1,0-4.8-2.7-4.8-4.1c0-1.4,0.6-4.1,4.6-4.1c1.2,0,3.2-0.1,4.5-3.7l1.1-2.7l-10.1-22
        c-0.5-1.1-0.6-2.1-0.6-2.7c0-2.7,2-4.7,4.8-4.7c1.8,0,3.7,0.9,4.8,3.9L418.5,536.8z"/>
      <path class="st0" d="M454.3,515.1c0-4.5,3.2-5.3,4.8-5.3c1.5,0,4.7,0.8,4.7,5.3v3h3.4c3.4,0,4.1,2.5,4.1,3.6
        c0,1.2-0.6,3.7-4.1,3.7h-3.4v11.2c0,2.7,0.8,4,2.9,4c0.3,0,0.5,0,0.8,0c2.4,0,3.6,1.8,3.6,3.5c0,3.1-2.8,4.1-6.2,4.1
        c-7.8,0-10.4-4.2-10.4-10.4v-12.4h-1.2c-3.4,0-4.1-2.5-4.1-3.7c0-1.1,0.6-3.6,4.1-3.6h1.2V515.1z"/>
      <path class="st0" d="M489.2,548.4c-8.8,0-16.3-6.1-16.3-15.7c0-9.6,7.4-15.5,16.3-15.5c8.9,0,16.3,5.9,16.3,15.5
        C505.6,542.2,498.1,548.4,489.2,548.4z M489.2,525.1c-4.5,0-6.9,3.7-6.9,7.5c0,3.8,2.4,7.6,6.9,7.6s6.9-3.8,6.9-7.6
        C496.3,528.9,493.8,525.1,489.2,525.1z"/>
      <path class="st0" d="M526.3,554.8c0-2.2,1.5-4.2,4-4.2c0.8,0,1.7,0.2,3.2,1.1c2.4,1.4,4.7,1.9,6.7,1.9c5,0,7.8-3.2,7.8-8.1v-1.8
        h-0.2c-1.8,2.4-5,3.9-8.9,3.9c-8.9,0-14-6.9-14-15.1c0-8.1,5.1-15.4,14-15.4c3.7,0,7.3,1.5,9.4,4.6h0.1c0.3-3.6,3.1-4.4,4.5-4.4
        c1.5,0,4.6,0.7,4.6,5.2v22c0,11.5-6.8,16.9-17.3,16.9c-3.6,0-8.4-0.8-11.5-2.9C526.9,557.5,526.3,556.1,526.3,554.8z M541.2,525.1
        c-4.4,0-6.9,3.4-6.9,7.4c0,3.9,2.5,7.5,6.9,7.5c4.4,0,7.1-3.5,7.1-7.5C548.3,528.6,545.5,525.1,541.2,525.1z"/>
      <path class="st0" d="M587.9,538c2.1,0,3.7,1.5,3.7,3.7c0,0.8-0.3,2.2-1.7,3.3c-2.5,2.1-6.1,3.4-10.8,3.4
        c-8.8,0-16.1-5.6-16.1-15.5c0-9.6,6.9-15.7,15.8-15.7c7.4,0,12.7,4.3,14.3,11.4c0.2,0.8,0.3,1.5,0.3,2.2c0,3.3-1.9,4.7-5,4.7
        h-16.1c0.3,3.2,3.5,5.5,7,5.5c2.2,0,3.7-0.4,5.6-1.7C586.3,538.2,587,538,587.9,538z M584.7,529.4c0-3.1-1.9-5.6-5.8-5.6
        c-3.7,0-6.4,2.6-6.7,5.6H584.7z"/>
      <path class="st0" d="M600.1,515.1c0-4.5,3.2-5.3,4.8-5.3c1.5,0,4.7,0.8,4.7,5.3v3h3.4c3.4,0,4.1,2.5,4.1,3.6
        c0,1.2-0.6,3.7-4.1,3.7h-3.4v11.2c0,2.7,0.8,4,2.9,4c0.3,0,0.5,0,0.8,0c2.4,0,3.6,1.8,3.6,3.5c0,3.1-2.8,4.1-6.2,4.1
        c-7.8,0-10.4-4.2-10.4-10.4v-12.4h-1.2c-3.4,0-4.1-2.5-4.1-3.7c0-1.1,0.6-3.6,4.1-3.6h1.2V515.1z"/>
      <path class="st0" d="M276.5,593.3c0-4.5,3.1-5.2,4.7-5.2c1.5,0,4.7,0.8,4.7,4.8h0.1c1.1-2.5,3.1-5,6.1-5c2.7,0,4.3,1.8,4.3,4.2
        c0,2.2-1.2,4.4-4.9,4.6c-3.4,0.2-5.2,2.8-5.2,6.2v10.2c0,4.7-3.2,5.4-4.8,5.4c-1.6,0-4.8-0.8-4.8-5.4V593.3z"/>
      <path class="st0" d="M304.5,584.7c-3.1,0-5.5-2.4-5.5-5.3c0-2.8,2.4-5.3,5.5-5.3c3.1,0,5.5,2.4,5.5,5.3
        C310.1,582.4,307.6,584.7,304.5,584.7z M299.7,593.6c0-4.7,3.2-5.4,4.8-5.4c1.6,0,4.8,0.8,4.8,5.4v19.7c0,4.7-3.2,5.4-4.8,5.4
        c-1.6,0-4.8-0.8-4.8-5.4V593.6z"/>
      <path class="st0" d="M347.2,613.6c0,4.4-3,5.1-4.5,5.1c-1.5,0-4.2-0.8-4.4-4.4h-0.1c-1.9,2.9-5.7,4.7-9.6,4.7
        c-8.8,0-14-7.4-14-15.6c0-8.2,5.3-15.4,13.8-15.4c4.3,0,7.3,2,9,3.9h0.1v-13.5c0-4.7,3.2-5.4,4.8-5.4c1.6,0,4.8,0.8,4.8,5.4V613.6
        z M330.9,595.8c-4.6,0-6.9,3.7-6.9,7.5c0,3.8,2.4,7.6,6.9,7.6c4.4,0,7.1-3.7,7.1-7.5C338,599.6,335.3,595.8,330.9,595.8z"/>
      <path class="st0" d="M384.4,619c-8.8,0-16.3-6.1-16.3-15.7c0-9.6,7.4-15.5,16.3-15.5c8.9,0,16.3,5.9,16.3,15.5
        C400.7,612.9,393.3,619,384.4,619z M384.4,595.8c-4.5,0-6.9,3.7-6.9,7.5s2.4,7.6,6.9,7.6s6.9-3.8,6.9-7.6S388.9,595.8,384.4,595.8
        z"/>
      <path class="st0" d="M405.9,596c-3.4,0-4.1-2.5-4.1-3.7c0-1.1,0.6-3.6,4.1-3.6h1.9v-2.8c0-7.7,3.3-13.5,12.3-13.5
        c2.8,0,5.4,0.9,5.4,4c0,2.4-1.6,3.8-4.2,3.8c-3.1,0-3.8,2.2-3.8,5.1v3.4h3.1c3.4,0,4.1,2.5,4.1,3.6c0,1.2-0.6,3.7-4.1,3.7h-3.1
        v17.3c0,4.7-3.2,5.4-4.8,5.4c-1.6,0-4.8-0.8-4.8-5.4V596H405.9z"/>
      <path class="st0" d="M453.9,607.3h0.2l4.2-13.8c1.4-4.7,4.2-5.3,6.1-5.3c1.9,0,4.6,0.6,6.1,5.2l4.4,13.9h0.1l4.4-15.1
        c0.9-3.3,2.9-4.1,4.7-4.1c2.6,0,4.6,1.9,4.6,4.5c0,0.5-0.1,1.3-0.5,2.4l-6.8,18.8c-1.5,4.1-4.2,4.9-6.2,4.9
        c-2.1,0-4.9-0.8-6.3-4.9l-4.7-14h-0.1l-4.5,14c-1.3,4.1-4.2,4.9-6.3,4.9c-2.1,0-4.8-0.8-6.2-4.9l-6.8-18.8
        c-0.3-0.9-0.4-1.7-0.4-2.2c0-2.6,2.1-4.7,4.8-4.7c1.8,0,3.9,0.8,4.8,4.2L453.9,607.3z"/>
      <path class="st0" d="M496.5,597.5c-1.9,0-3.4-1.5-3.4-3.5c0-1.1,0.5-2.5,2.3-3.6c3.1-1.9,6.6-2.6,9.7-2.6
        c9.8,0,13.5,4.8,13.5,15.5v10.3c0,4.3-3,5.1-4.5,5.1c-1.3,0-3.8-0.6-4.4-3.7h-0.2c-1.5,2.4-4.8,3.8-8.3,3.8
        c-4.7,0-10.7-2.3-10.7-9.2c0-8.5,10.3-9.9,18.8-9.9v-0.5c0-2.6-2-4.2-5-4.2c-1.9,0-3.8,0.9-5.7,1.9
        C497.9,597.3,497.1,597.5,496.5,597.5z M509.7,605.3h-1.2c-4.2,0-9,0.5-9,4c0,2.2,2.2,3,4.2,3c3.9,0,6.1-2.4,6.1-6V605.3z"/>
      <path class="st0" d="M523.3,613.1c0-2.1,1.6-3.8,3.7-3.8c0.9,0,1.8,0.3,2.9,1.1c1.7,1.2,3.3,1.6,4.8,1.6c1.6,0,3.5-0.6,3.5-2.5
        c0-1.8-1.8-2.4-5.8-3.3c-4.1-0.9-8.5-3.1-8.5-8.6c0-7,6.6-9.8,12.2-9.8c2.5,0,6,0.6,8,1.7c1.9,1.1,2.5,2.4,2.5,3.5
        c0,2.1-1.4,3.7-3.7,3.7c-0.8,0-1.5-0.3-2.5-0.8c-1.4-0.8-2.5-1.1-3.9-1.1c-1.8,0-3.7,0.6-3.7,2.4c0,1.6,1.6,2.1,5.4,2.9
        c4.5,1,9.4,3.3,9.4,9c0,7.4-6.5,10-12.5,10c-3.4,0-7.2-0.8-9.4-2.3C523.9,615.6,523.3,614.3,523.3,613.1z"/>
      <path class="st0" d="M554.6,585.7c0-4.5,3.2-5.3,4.8-5.3c1.5,0,4.7,0.8,4.7,5.3v3h3.4c3.4,0,4.1,2.5,4.1,3.6
        c0,1.2-0.6,3.7-4.1,3.7h-3.4v11.2c0,2.7,0.8,4,2.9,4c0.3,0,0.5,0,0.8,0c2.4,0,3.6,1.8,3.6,3.5c0,3.1-2.8,4.1-6.2,4.1
        c-7.8,0-10.4-4.2-10.4-10.4V596h-1.2c-3.4,0-4.1-2.5-4.1-3.7c0-1.1,0.6-3.6,4.1-3.6h1.2V585.7z"/>
      <path class="st0" d="M598.4,608.7c2.1,0,3.7,1.5,3.7,3.7c0,0.8-0.3,2.2-1.7,3.3c-2.5,2.1-6.1,3.4-10.8,3.4
        c-8.8,0-16.1-5.6-16.1-15.5c0-9.6,6.9-15.7,15.8-15.7c7.4,0,12.7,4.3,14.3,11.4c0.2,0.8,0.3,1.5,0.3,2.2c0,3.3-1.9,4.7-5,4.7
        h-16.1c0.3,3.2,3.5,5.5,7,5.5c2.2,0,3.7-0.4,5.6-1.7C596.9,608.9,597.5,608.7,598.4,608.7z M595.2,600.1c0-3.1-1.9-5.6-5.8-5.6
        c-3.7,0-6.4,2.6-6.7,5.6H595.2z"/>
    </g>
  </g>
  <g id="animal-subtitle">
    <path class="st10" d="M543.6,349.1c0-2.1,1.6-3.9,3.8-3.9c0.8,0,1.7,0.3,2.8,1.1c1.3,0.9,3.6,1.9,5.7,1.9c2,0,4.1-1.1,4.1-3.7
      c0-2.6-2.6-3.4-7.1-4.9c-4.3-1.4-8.7-3.6-8.7-9.8c0-7.6,6.9-10.7,13.2-10.7c2.6,0,5.7,0.7,7.8,2c1.7,1.1,2.2,2.2,2.2,3.4
      c0,1.9-1.4,3.6-3.5,3.6c-0.7,0-1.2-0.1-2.4-0.8c-1.9-1-3.3-1.4-4.5-1.4c-2.4,0-4.5,1-4.5,3.4c0,2.3,2,3,5.3,4
      c4.6,1.5,10.6,3.5,10.6,10.3c0,7.9-6.3,11.4-13.1,11.4c-3.4,0-7.7-1.1-9.8-2.8C543.9,351.1,543.6,350,543.6,349.1z"/>
    <path class="st10" d="M592.1,346.5c1.7,0,3,1.2,3,3c0,0.7-0.2,1.8-1.4,2.7c-2.1,1.7-5,2.8-8.8,2.8c-7.2,0-13.2-4.6-13.2-12.7
      c0-7.9,5.7-12.9,13-12.9c6,0,10.4,3.5,11.7,9.3c0.1,0.7,0.2,1.3,0.2,1.8c0,2.7-1.6,3.8-4.1,3.8h-13.2c0.2,2.7,2.9,4.5,5.7,4.5
      c1.8,0,3-0.3,4.6-1.4C590.8,346.7,591.3,346.5,592.1,346.5z M589.4,339.4c0-2.5-1.6-4.6-4.7-4.6c-3,0-5.3,2.1-5.5,4.6H589.4z"/>
    <path class="st10" d="M601.1,321.7c0-3.9,2.7-4.5,4-4.5c1.3,0,4,0.6,4,4.5v28.5c0,3.9-2.7,4.5-4,4.5c-1.3,0-4-0.6-4-4.5V321.7z"/>
    <path class="st10" d="M634.1,346.5c1.7,0,3,1.2,3,3c0,0.7-0.2,1.8-1.4,2.7c-2.1,1.7-5,2.8-8.8,2.8c-7.2,0-13.2-4.6-13.2-12.7
      c0-7.9,5.7-12.9,13-12.9c6,0,10.4,3.5,11.7,9.3c0.1,0.7,0.2,1.3,0.2,1.8c0,2.7-1.6,3.8-4.1,3.8h-13.2c0.2,2.7,2.9,4.5,5.7,4.5
      c1.8,0,3-0.3,4.6-1.4C632.8,346.7,633.3,346.5,634.1,346.5z M631.4,339.4c0-2.5-1.6-4.6-4.7-4.6c-3,0-5.3,2.1-5.5,4.6H631.4z"/>
    <path class="st10" d="M641.9,342.2c0-7.8,5.9-12.8,13.4-12.8c1.9,0,3.9,0.4,5.3,1.1c1.8,0.9,2.3,2.2,2.3,3.2c0,1.8-1.1,3.4-3.2,3.4
      c-0.6,0-1.3-0.1-2.1-0.6c-0.7-0.3-1.4-0.5-2.1-0.5c-3.3,0-5.5,2.8-5.5,6.2c0,3.3,2.2,6.1,5.6,6.1c0.8,0,1.4-0.1,2.1-0.4
      c0.9-0.4,1.5-0.6,2.1-0.6c2.1,0,3.2,1.6,3.2,3.4c0,1-0.6,2.3-2.3,3.2c-1.4,0.7-3.4,1.1-5.4,1.1C647.8,355,641.9,350.1,641.9,342.2z
      "/>
    <path class="st10" d="M669.2,327.7c0-3.7,2.7-4.3,3.9-4.3c1.2,0,3.9,0.6,3.9,4.3v2.5h2.8c2.8,0,3.3,2,3.3,2.9c0,1-0.5,3-3.3,3H677
      v9.2c0,2.2,0.6,3.3,2.4,3.3c0.2,0,0.4,0,0.6,0c2,0,2.9,1.5,2.9,2.8c0,2.5-2.3,3.4-5.1,3.4c-6.4,0-8.5-3.4-8.5-8.5v-10.1h-1
      c-2.8,0-3.3-2-3.3-3c0-0.9,0.5-2.9,3.3-2.9h1V327.7z"/>
    <path class="st10" d="M701.7,337.3c-1.5,0-2.8-1.2-2.8-2.8c0-0.9,0.4-2,1.9-2.9c2.5-1.5,5.4-2.1,8-2.1c8.1,0,11.1,4,11.1,12.7v8.4
      c0,3.5-2.5,4.1-3.7,4.1c-1.1,0-3.1-0.5-3.6-3h-0.1c-1.2,2-4,3.1-6.8,3.1c-3.8,0-8.7-1.9-8.7-7.5c0-6.9,8.4-8.1,15.4-8.1v-0.4
      c0-2.1-1.6-3.5-4.1-3.5c-1.5,0-3.1,0.8-4.7,1.5C702.9,337.1,702.2,337.3,701.7,337.3z M712.6,343.7h-1c-3.5,0-7.4,0.4-7.4,3.3
      c0,1.8,1.8,2.5,3.4,2.5c3.2,0,5-1.9,5-4.9V343.7z"/>
    <path class="st10" d="M737.8,333.9c0-3.7,2.5-4.2,3.8-4.2c1.2,0,3.4,0.5,3.8,3.4h0.1c1.4-1.9,4.2-3.6,7.7-3.6
      c7,0,11.4,5.9,11.4,12.6c0,6.7-4.2,12.8-11.4,12.8c-2.9,0-5.8-1.3-7.3-3.3h-0.1v10.3c0,3.8-2.7,4.4-4,4.4s-4-0.6-4-4.4V333.9z
       M751.2,335.9c-3.6,0-5.8,3.1-5.8,6.2c0,3.1,2.2,6.2,5.8,6.2c3.8,0,5.6-3.1,5.6-6.2C756.8,339,754.9,335.9,751.2,335.9z"/>
    <path class="st10" d="M769.1,333.9c0-3.7,2.6-4.2,3.8-4.2c1.2,0,3.8,0.6,3.8,4h0.1c0.9-2,2.5-4.1,5-4.1c2.2,0,3.5,1.5,3.5,3.5
      c0,1.8-1,3.6-4.1,3.8c-2.8,0.2-4.3,2.3-4.3,5.1v8.4c0,3.8-2.7,4.4-4,4.4s-4-0.6-4-4.4V333.9z"/>
    <path class="st10" d="M799.8,355c-7.2,0-13.3-5-13.3-12.9c0-7.9,6.1-12.7,13.3-12.7c7.3,0,13.4,4.8,13.4,12.7
      C813.2,349.9,807.1,355,799.8,355z M799.8,335.9c-3.7,0-5.6,3-5.6,6.1c0,3.1,2,6.2,5.7,6.2c3.7,0,5.7-3.1,5.7-6.2
      C805.6,339,803.6,335.9,799.8,335.9z"/>
    <path class="st10" d="M816.5,342.2c0-7.8,5.9-12.8,13.4-12.8c1.9,0,3.9,0.4,5.3,1.1c1.8,0.9,2.3,2.2,2.3,3.2c0,1.8-1.1,3.4-3.2,3.4
      c-0.6,0-1.3-0.1-2.1-0.6c-0.7-0.3-1.4-0.5-2.1-0.5c-3.3,0-5.5,2.8-5.5,6.2c0,3.3,2.2,6.1,5.6,6.1c0.8,0,1.4-0.1,2.1-0.4
      c0.9-0.4,1.5-0.6,2.1-0.6c2.1,0,3.2,1.6,3.2,3.4c0,1-0.6,2.3-2.3,3.2c-1.4,0.7-3.4,1.1-5.4,1.1C822.4,355,816.5,350.1,816.5,342.2z
      "/>
    <path class="st10" d="M860.5,346.5c1.7,0,3,1.2,3,3c0,0.7-0.2,1.8-1.4,2.7c-2.1,1.7-5,2.8-8.8,2.8c-7.2,0-13.2-4.6-13.2-12.7
      c0-7.9,5.7-12.9,13-12.9c6,0,10.4,3.5,11.7,9.3c0.1,0.7,0.2,1.3,0.2,1.8c0,2.7-1.6,3.8-4.1,3.8h-13.2c0.2,2.7,2.9,4.5,5.7,4.5
      c1.8,0,3-0.3,4.6-1.4C859.2,346.7,859.7,346.5,860.5,346.5z M857.9,339.4c0-2.5-1.6-4.6-4.7-4.6c-3,0-5.3,2.1-5.5,4.6H857.9z"/>
    <path class="st10" d="M868,350.1c0-1.7,1.3-3.1,3-3.1c0.8,0,1.5,0.2,2.4,0.9c1.4,1,2.7,1.4,4,1.4c1.3,0,2.8-0.5,2.8-2.1
      c0-1.5-1.5-1.9-4.8-2.7c-3.3-0.8-7-2.5-7-7c0-5.7,5.4-8.1,10-8.1c2.1,0,4.9,0.5,6.5,1.4c1.6,0.9,2,1.9,2,2.9c0,1.7-1.2,3-3,3
      c-0.6,0-1.3-0.2-2-0.7c-1.1-0.6-2-0.9-3.2-0.9c-1.5,0-3,0.5-3,1.9c0,1.4,1.3,1.7,4.4,2.4c3.7,0.8,7.7,2.7,7.7,7.4
      c0,6.1-5.4,8.2-10.3,8.2c-2.8,0-5.9-0.7-7.7-1.9C868.4,352.2,868,351.1,868,350.1z"/>
    <path class="st10" d="M890.7,350.1c0-1.7,1.3-3.1,3-3.1c0.8,0,1.5,0.2,2.4,0.9c1.4,1,2.7,1.4,4,1.4c1.3,0,2.8-0.5,2.8-2.1
      c0-1.5-1.5-1.9-4.8-2.7c-3.3-0.8-7-2.5-7-7c0-5.7,5.4-8.1,10-8.1c2.1,0,4.9,0.5,6.5,1.4c1.6,0.9,2,1.9,2,2.9c0,1.7-1.2,3-3,3
      c-0.6,0-1.3-0.2-2-0.7c-1.1-0.6-2-0.9-3.2-0.9c-1.5,0-3,0.5-3,1.9c0,1.4,1.3,1.7,4.4,2.4c3.7,0.8,7.7,2.7,7.7,7.4
      c0,6.1-5.4,8.2-10.3,8.2c-2.8,0-5.9-0.7-7.7-1.9C891.1,352.2,890.7,351.1,890.7,350.1z"/>
    <path class="st10" d="M928,327.7c0-3.7,2.7-4.3,3.9-4.3c1.2,0,3.9,0.6,3.9,4.3v2.5h2.8c2.8,0,3.3,2,3.3,2.9c0,1-0.5,3-3.3,3h-2.8
      v9.2c0,2.2,0.6,3.3,2.4,3.3c0.2,0,0.4,0,0.6,0c2,0,2.9,1.5,2.9,2.8c0,2.5-2.3,3.4-5.1,3.4c-6.4,0-8.5-3.4-8.5-8.5v-10.1h-1
      c-2.8,0-3.3-2-3.3-3c0-0.9,0.5-2.9,3.3-2.9h1V327.7z"/>
    <path class="st10" d="M956.8,355c-7.2,0-13.3-5-13.3-12.9c0-7.9,6.1-12.7,13.3-12.7c7.3,0,13.4,4.8,13.4,12.7
      C970.2,349.9,964.1,355,956.8,355z M956.8,335.9c-3.7,0-5.6,3-5.6,6.1c0,3.1,2,6.2,5.7,6.2c3.7,0,5.7-3.1,5.7-6.2
      C962.5,339,960.5,335.9,956.8,335.9z"/>
    <path class="st10" d="M987.3,321.7c0-3.9,2.7-4.5,4-4.5c1.3,0,4,0.6,4,4.5v28.5c0,3.9-2.7,4.5-4,4.5c-1.3,0-4-0.6-4-4.5V321.7z"/>
    <path class="st10" d="M1020.3,346.5c1.7,0,3,1.2,3,3c0,0.7-0.2,1.8-1.4,2.7c-2.1,1.7-5,2.8-8.8,2.8c-7.2,0-13.2-4.6-13.2-12.7
      c0-7.9,5.7-12.9,13-12.9c6,0,10.4,3.5,11.7,9.3c0.1,0.7,0.2,1.3,0.2,1.8c0,2.7-1.6,3.8-4.1,3.8h-13.2c0.2,2.7,2.9,4.5,5.7,4.5
      c1.8,0,3-0.3,4.6-1.4C1019,346.7,1019.5,346.5,1020.3,346.5z M1017.7,339.4c0-2.5-1.6-4.6-4.7-4.6c-3,0-5.3,2.1-5.5,4.6H1017.7z"/>
    <path class="st10" d="M1032.4,337.3c-1.5,0-2.8-1.2-2.8-2.8c0-0.9,0.4-2,1.9-2.9c2.5-1.5,5.4-2.1,8-2.1c8.1,0,11.1,4,11.1,12.7v8.4
      c0,3.5-2.5,4.1-3.7,4.1c-1.1,0-3.1-0.5-3.6-3h-0.1c-1.2,2-4,3.1-6.8,3.1c-3.8,0-8.7-1.9-8.7-7.5c0-6.9,8.4-8.1,15.4-8.1v-0.4
      c0-2.1-1.6-3.5-4.1-3.5c-1.5,0-3.1,0.8-4.7,1.5C1033.6,337.1,1032.9,337.3,1032.4,337.3z M1043.3,343.7h-1c-3.5,0-7.4,0.4-7.4,3.3
      c0,1.8,1.8,2.5,3.4,2.5c3.2,0,5-1.9,5-4.9V343.7z"/>
    <path class="st10" d="M1056.1,333.9c0-3.7,2.6-4.2,3.8-4.2c1.2,0,3.8,0.6,3.8,4h0.1c0.9-2,2.5-4.1,5-4.1c2.2,0,3.5,1.5,3.5,3.5
      c0,1.8-1,3.6-4.1,3.8c-2.8,0.2-4.3,2.3-4.3,5.1v8.4c0,3.8-2.7,4.4-4,4.4c-1.3,0-4-0.6-4-4.4V333.9z"/>
    <path class="st10" d="M1075.1,333.9c0-3.7,2.6-4.2,3.8-4.2c1.3,0,3.7,0.6,3.9,3.8h0.1c1.1-2.1,3.9-4,7.2-4c6.5,0,8.8,5,8.8,9.8v10.9
      c0,3.8-2.7,4.4-4,4.4c-1.3,0-4-0.6-4-4.4v-9.2c0-2.7-0.7-5.1-3.6-5.1c-2.8,0-4.2,2.4-4.2,5.2v9.1c0,3.8-2.7,4.4-4,4.4
      c-1.3,0-4-0.6-4-4.4V333.9z"/>
    <path class="st10" d="M1124.7,333.5c1.1-2,3.6-4,7.2-4c3.5,0,5.9,1.5,7.2,4.1c1.6-2.5,4.1-4.1,7.7-4.1c6.5,0,8.7,5.3,8.7,9.8v10.9
      c0,3.8-2.7,4.4-4,4.4c-1.3,0-4-0.6-4-4.4v-9.2c0-2.8-0.6-5.1-3.4-5.1c-2.7,0-4,2.5-4,5.2v9c0,3.8-2.7,4.4-4,4.4s-4-0.6-4-4.4v-9.7
      c0-2.8-1.1-4.5-3.4-4.5c-2.5,0-4,2.3-4,5.2v9.1c0,3.8-2.7,4.4-4,4.4c-1.3,0-4-0.6-4-4.4v-16.3c0-3.7,2.6-4.2,3.8-4.2
      C1122,329.7,1124.4,330.2,1124.7,333.5L1124.7,333.5z"/>
    <path class="st10" d="M1173.2,355c-7.2,0-13.3-5-13.3-12.9c0-7.9,6.1-12.7,13.3-12.7c7.3,0,13.4,4.8,13.4,12.7
      C1186.6,349.9,1180.5,355,1173.2,355z M1173.2,335.9c-3.7,0-5.6,3-5.6,6.1c0,3.1,2,6.2,5.7,6.2c3.7,0,5.7-3.1,5.7-6.2
      C1178.9,339,1176.9,335.9,1173.2,335.9z"/>
    <path class="st10" d="M1191.1,333.9c0-3.7,2.6-4.2,3.8-4.2c1.2,0,3.8,0.6,3.8,4h0.1c0.9-2,2.5-4.1,5-4.1c2.2,0,3.5,1.5,3.5,3.5
      c0,1.8-1,3.6-4.1,3.8c-2.8,0.2-4.3,2.3-4.3,5.1v8.4c0,3.8-2.7,4.4-4,4.4s-4-0.6-4-4.4V333.9z"/>
    <path class="st10" d="M1229,346.5c1.7,0,3,1.2,3,3c0,0.7-0.2,1.8-1.4,2.7c-2.1,1.7-5,2.8-8.8,2.8c-7.2,0-13.2-4.6-13.2-12.7
      c0-7.9,5.7-12.9,13-12.9c6,0,10.4,3.5,11.7,9.3c0.1,0.7,0.2,1.3,0.2,1.8c0,2.7-1.6,3.8-4.1,3.8h-13.2c0.2,2.7,2.9,4.5,5.7,4.5
      c1.8,0,3-0.3,4.6-1.4C1227.7,346.7,1228.2,346.5,1229,346.5z M1226.3,339.4c0-2.5-1.6-4.6-4.7-4.6c-3,0-5.3,2.1-5.5,4.6H1226.3z"/>
    <path class="st10" d="M1253.9,337.3c-1.5,0-2.8-1.2-2.8-2.8c0-0.9,0.4-2,1.9-2.9c2.5-1.5,5.4-2.1,8-2.1c8.1,0,11.1,4,11.1,12.7v8.4
      c0,3.5-2.5,4.1-3.7,4.1c-1.1,0-3.1-0.5-3.6-3h-0.1c-1.2,2-4,3.1-6.8,3.1c-3.8,0-8.7-1.9-8.7-7.5c0-6.9,8.4-8.1,15.4-8.1v-0.4
      c0-2.1-1.6-3.5-4.1-3.5c-1.5,0-3.1,0.8-4.7,1.5C1255.1,337.1,1254.4,337.3,1253.9,337.3z M1264.8,343.7h-1c-3.5,0-7.4,0.4-7.4,3.3
      c0,1.8,1.8,2.5,3.4,2.5c3.2,0,5-1.9,5-4.9V343.7z"/>
    <path class="st10" d="M1277.6,321.7c0-3.8,2.7-4.4,4-4.4c1.3,0,4,0.6,4,4.4v11.1h0.1c1.4-1.6,3.8-3.2,7.3-3.2
      c7,0,11.3,5.9,11.3,12.6c0,6.7-4.2,12.8-11.4,12.8c-3.2,0-6.3-1.4-7.9-3.8h-0.1c-0.1,3-2.4,3.6-3.6,3.6c-1.2,0-3.7-0.6-3.7-4.1
      V321.7z M1291,335.9c-3.6,0-5.8,3.1-5.8,6.2c0,3.1,2.2,6.2,5.8,6.2c3.8,0,5.7-3.1,5.7-6.2C1296.7,339,1294.7,335.9,1291,335.9z"/>
    <path class="st10" d="M1320.9,355c-7.2,0-13.3-5-13.3-12.9c0-7.9,6.1-12.7,13.3-12.7c7.3,0,13.4,4.8,13.4,12.7
      C1334.3,349.9,1328.2,355,1320.9,355z M1320.9,335.9c-3.7,0-5.6,3-5.6,6.1c0,3.1,2,6.2,5.7,6.2c3.7,0,5.7-3.1,5.7-6.2
      C1326.7,339,1324.6,335.9,1320.9,335.9z"/>
    <path class="st10" d="M1362.3,350.4c0,3.7-2.6,4.2-3.8,4.2c-1.3,0-3.7-0.6-3.9-3.8h-0.1c-1.1,2.1-3.9,4-7.2,4c-6.5,0-8.8-5-8.8-9.8
      v-10.9c0-3.8,2.7-4.4,4-4.4c1.3,0,4,0.6,4,4.4v9.1c0,2.7,0.7,5.1,3.6,5.1c2.8,0,4.2-2.4,4.2-5.2v-9c0-3.8,2.7-4.4,4-4.4
      c1.3,0,4,0.6,4,4.4V350.4z"/>
    <path class="st10" d="M1369.4,327.7c0-3.7,2.7-4.3,3.9-4.3c1.2,0,3.9,0.6,3.9,4.3v2.5h2.8c2.8,0,3.3,2,3.3,2.9c0,1-0.5,3-3.3,3h-2.8
      v9.2c0,2.2,0.6,3.3,2.4,3.3c0.2,0,0.4,0,0.6,0c2,0,2.9,1.5,2.9,2.8c0,2.5-2.3,3.4-5.1,3.4c-6.4,0-8.5-3.4-8.5-8.5v-10.1h-1
      c-2.8,0-3.3-2-3.3-3c0-0.9,0.5-2.9,3.3-2.9h1V327.7z"/>
    <path class="st10" d="M1402.6,326.8c-2.6,0-4.5-2-4.5-4.3c0-2.3,2-4.3,4.5-4.3c2.5,0,4.5,1.9,4.5,4.3
      C1407.2,324.9,1405.1,326.8,1402.6,326.8z M1398.7,334.1c0-3.8,2.7-4.4,4-4.4c1.3,0,4,0.6,4,4.4v16.1c0,3.8-2.7,4.4-4,4.4
      c-1.3,0-4-0.6-4-4.4V334.1z"/>
    <path class="st10" d="M1413.7,327.7c0-3.7,2.7-4.3,3.9-4.3c1.2,0,3.9,0.6,3.9,4.3v2.5h2.8c2.8,0,3.3,2,3.3,2.9c0,1-0.5,3-3.3,3h-2.8
      v9.2c0,2.2,0.6,3.3,2.4,3.3c0.2,0,0.4,0,0.6,0c2,0,2.9,1.5,2.9,2.8c0,2.5-2.3,3.4-5.1,3.4c-6.4,0-8.5-3.4-8.5-8.5v-10.1h-1
      c-2.8,0-3.3-2-3.3-3c0-0.9,0.5-2.9,3.3-2.9h1V327.7z"/>
  </g>
  <g id="animal-title">
    <path class="st6" d="M565.5,210.5c-5.6,0.4-10.4-3.7-10.8-9.6c-0.2-3.3,0.9-7.4,6.1-11.1c8.7-6.2,19-9,28.2-9.6
      c29.1-2,40.9,11.6,43,43.1l2.1,30.5c0.9,12.7-7.9,15.6-12.2,15.9c-3.8,0.3-11.4-1-13.6-10.1l-0.5,0c-3.9,7.4-13.5,12.3-23.8,13
      c-13.8,0.9-32-4.7-33.4-25c-1.7-25.1,28.5-31.3,53.7-33l-0.1-1.4c-0.5-7.7-6.8-12.1-15.7-11.5c-5.6,0.4-11.1,3.6-16.5,6.7
      C569.6,209.7,567.4,210.4,565.5,210.5z M606.2,231.1l-3.7,0.2c-12.5,0.9-26.5,3.4-25.8,13.7c0.4,6.6,7.2,8.4,13,8
      c11.5-0.8,17.5-8.2,16.7-19L606.2,231.1z"/>
    <path class="st6" d="M653.7,182.6c0.7-13.2,10-14.9,14.6-14.6c4.5,0.2,13.3,2.8,13.2,14.5l0.3,0c4.4-7.5,14.7-13.7,26.7-13.1
      c23.4,1.2,30.8,19.8,29.9,37.2l-2.1,39.4c-0.7,13.8-10.4,15.5-15.3,15.3c-4.7-0.2-14.2-3-13.5-16.8l1.7-33.1
      c0.5-9.6-1.7-18.4-11.9-19c-10.1-0.5-15.8,7.9-16.3,17.8l-1.7,32.8c-0.7,13.8-10.4,15.5-15.3,15.3c-4.7-0.2-14.2-3-13.5-16.8
      L653.7,182.6z"/>
    <path class="st6" d="M768.2,166.6c-9.2,0.2-16.5-6.9-16.7-15.4c-0.1-8.4,6.9-15.8,16.1-16c9.1-0.2,16.5,6.7,16.7,15.4
      C784.5,159.5,777.3,166.4,768.2,166.6z M754.4,193.2c-0.2-13.8,9.3-16.2,14-16.3c4.7-0.1,14.4,2,14.6,15.8l1,58.3
      c0.2,13.8-9.3,16.2-14,16.3c-4.7,0.1-14.4-2-14.6-15.8L754.4,193.2z"/>
    <path class="st6" d="M828.7,176.7c4.2-7.2,13.3-14.1,26.4-13.8c12.6,0.3,21.1,6,25.8,15.5c6-8.9,15.2-14.4,28.2-14.1
      c23.6,0.6,31.1,20.1,30.6,36.5l-1.1,39.4c-0.4,13.8-10,15.8-14.7,15.7c-4.7-0.1-14.2-2.7-13.9-16.4l0.9-33.2
      c0.3-9.9-1.8-18.4-11.9-18.7c-9.8-0.3-14.7,8.7-15,18.5l-0.9,32.6c-0.4,13.8-10,15.8-14.7,15.7c-4.7-0.1-14.2-2.7-13.9-16.4l1-35.3
      c0.3-9.9-3.4-16.3-11.9-16.6c-9.1-0.2-14.5,7.8-14.8,18.3l-0.9,32.8c-0.4,13.8-10,15.8-14.9,15.7c-4.7-0.1-14.2-2.7-13.9-16.4
      l1.6-59c0.4-13.3,9.7-15.1,14.2-15c4.5,0.1,13.4,2.5,13.6,14.2L828.7,176.7z"/>
    <path class="st6" d="M968.8,205.6c-5.6,0.1-10.2-4.1-10.4-10c-0.1-3.3,1.2-7.4,6.5-10.8c8.9-5.8,19.3-8.2,28.6-8.4
      c29.1-0.7,40.3,13.3,41.1,44.9l0.8,30.5c0.3,12.7-8.5,15.2-12.9,15.3c-3.8,0.1-11.4-1.5-13.2-10.7l-0.5,0c-4.2,7.3-14,11.7-24.3,12
      c-13.8,0.4-31.8-6-32.3-26.4c-0.6-25.1,29.8-30.1,55.1-30.7l0-1.4c-0.2-7.7-6.3-12.4-15.2-12.2c-5.6,0.1-11.3,3.1-16.8,6
      C973,205,970.7,205.6,968.8,205.6z M1008.7,227.8l-3.7,0.1c-12.6,0.3-26.7,2.3-26.4,12.5c0.2,6.6,6.9,8.7,12.6,8.6
      c11.5-0.3,17.8-7.4,17.5-18.3L1008.7,227.8z"/>
    <path class="st6" d="M1055.5,157.2c0-14,9.8-16.2,14.5-16.2c4.7,0,14.5,2.3,14.5,16.2v103c0,14-9.8,16.2-14.5,16.2
      c-4.7,0-14.5-2.3-14.5-16.2V157.2z"/>
    <path class="st6" d="M1150.7,238.4c-2.1-28.2,18-47.7,45-49.7c7-0.5,14.2,0.4,19.4,2.4c6.8,2.7,8.9,7.2,9.2,10.9
      c0.5,6.6-3.1,12.7-10.8,13.2c-2.1,0.2-4.6-0.2-7.8-1.5c-2.5-1-5-1.4-7.8-1.2c-12,0.9-19.3,11.7-18.4,23.7c0.9,12,9.4,21.5,22,20.6
      c2.8-0.2,5.2-0.7,7.5-2.1c3-1.8,5.4-2.5,7.5-2.6c7.7-0.6,12.1,4.9,12.6,11.5c0.3,3.7-1.5,8.5-7.5,12.1c-5,3-12.1,4.7-19,5.2
      C1175.3,283,1152.8,267.2,1150.7,238.4z"/>
    <path class="st6" d="M1307.1,256.8c6.3,0.5,10.6,5.3,10,11.7c-0.2,2.4-1.4,6.4-5.9,9.3c-8,5.4-18.8,8.5-32.7,7.3
      c-26.1-2.2-46.2-20.6-43.7-49.9c2.4-28.3,24.5-44.7,50.8-42.4c21.7,1.9,36.3,15.9,39.2,37.2c0.3,2.5,0.5,4.6,0.3,6.7
      c-0.8,9.7-6.9,13.2-16,12.5l-47.7-4.1c0,9.6,9,17.2,19.3,18.1c6.6,0.6,11.1-0.3,17-3.6C1302.3,257,1304.3,256.5,1307.1,256.8z
       M1299.7,230.5c0.8-9-4.3-17-15.6-18c-11-0.9-19.6,6-21.1,14.8L1299.7,230.5z"/>
    <path class="st6" d="M1333.1,166.2c-0.8-13.9,8.8-16.8,13.5-17c4.7-0.3,14.6,1.4,15.4,15.4l5.9,102.8c0.8,13.9-8.8,16.8-13.5,17
      c-4.7,0.3-14.6-1.4-15.4-15.4L1333.1,166.2z"/>
    <path class="st6" d="M1387.9,182c0-14,9.8-16.2,14.5-16.2c4.7,0,14.5,2.3,14.5,16.2l0,103c0,14-9.8,16.2-14.5,16.2
      c-4.7,0-14.5-2.3-14.5-16.2L1387.9,182z"/>
  </g>
</svg>
