<svg id="plant-cell" xmlns="http://www.w3.org/2000/svg" xmlns:xlink="http://www.w3.org/1999/xlink" x="0px" y="0px" viewBox="0 0 1920 1080">
	<style type="text/css">
		.st0{fill:#00473D;}
		.st1{fill:#5CF0FF;}
		.st2{fill:#45FFBC;}
		.st3{fill:#FFFB71;}
		.st4{fill:#FB5CFF;}
		.st5{fill:#B0EF4D;}
		.st6{fill:#12D74F;}
		.st7{fill:#18DC54;}
		.st8{fill:#34E069;}
		.st9{fill:#4BE47A;}
		.st10{fill:#FFFFFF;}
	</style>
	<path id="plant-bg" class="st0" d="M490.7,1053.7c-18.4,0-36.1-5.6-51.2-16.1C318.1,953.3,191.5,876.3,63,808.7
		c-12.5-6.6-22.3-16.8-28.3-29.5c-6-12.8-7.7-26.8-4.8-40.6C59.6,595.2,81.2,450.7,94.3,309c2-22,17-40.3,38-46.6
		c195.8-58.9,447.1-146.7,655.9-229.1c10.6-4.2,21.7-6.3,33.1-6.3c6.1,0,12.3,0.6,18.3,1.9c255.5,52.8,511.2,91.5,759.8,114.9
		c23.1,2.2,44.2,13,59.4,30.6c65.3,75,137.5,149.3,214.7,220.7c12.5,11.6,21.4,26.3,25.8,42.7c4.4,16.4,4.1,33.7-0.9,49.9
		c-24.9,80.4-43.4,160-55,236.8c-4.8,31.9-26.3,58.9-56.2,70.7c-152.1,59.8-317.1,133.5-490.5,219.2c-12.3,6.1-25.9,9.3-39.5,9.3
		c-266,1-521.6,11-759.7,29.7C495.4,1053.6,493,1053.7,490.7,1053.7z"/>
	<g id="plant-instructions-button" class="vid-button">
		<path class="st1 button-bg" d="M1386.1,806.3c1.3,10.8,1.7,21.8,1.6,32.7c-0.3,27.3-4.8,57.5-25.7,75.2c-30.6,25.9-76,13.4-112.1,16.8
			c-48.6,4.5-97.2,6.5-146,5.1c-41.4-1.1-111,3.6-145.1-25.5c-17.8-15.2-19.8-41.5-20.5-64.9c-0.8-25.9-1.4-52.6,7.7-76.8
			c26-68.8,127-52.9,185.6-52.9c48.5,0,96.9,0.6,145.4,2c41.3,1.2,77.4,5.7,97.5,47.1C1380.9,778,1384.4,792,1386.1,806.3z"/>
		<g class="button-label">
			<path class="st0" d="M1082.4,798.8h-17.6l-2,4.9c-1.3,3.1-3.3,3.7-4.9,3.7c-2.5,0-4.8-1.7-4.8-4.7c0-0.8,0.1-1.6,0.6-2.8
				l13.5-29.7c1.9-4.1,4.6-4.9,6.5-4.9c2,0,4.6,0.6,6.5,4.9l13.4,29.6c0.5,1.1,0.6,2.1,0.6,2.7c0,3.2-2.4,5-4.9,5
				c-1.6,0-3.7-0.6-5-3.8L1082.4,798.8z M1068,790.8h11.2l-5.6-13.6L1068,790.8z"/>
			<path class="st0" d="M1111.4,800.7c0-2.5,1.9-4.6,4.6-4.6c1,0,2.1,0.4,3.4,1.3c1.5,1.1,4.3,2.3,6.8,2.3c2.4,0,5-1.3,5-4.5
				c0-3.1-3.1-4.1-8.5-5.8c-5.2-1.7-10.5-4.3-10.5-11.7c0-9.1,8.2-12.8,15.8-12.8c3.1,0,6.8,0.9,9.3,2.4c2.1,1.3,2.7,2.7,2.7,4.1
				c0,2.3-1.7,4.3-4.2,4.3c-0.8,0-1.4-0.2-2.9-0.9c-2.3-1.2-3.9-1.7-5.4-1.7c-2.9,0-5.4,1.2-5.4,4.1c0,2.7,2.4,3.6,6.3,4.8
				c5.6,1.8,12.7,4.2,12.7,12.3c0,9.4-7.6,13.6-15.7,13.6c-4.1,0-9.3-1.3-11.8-3.3C1111.8,803.1,1111.4,801.8,1111.4,800.7z"/>
			<path class="st0" d="M1169.3,797.5c2.1,0,3.6,1.4,3.6,3.6c0,0.8-0.3,2.1-1.7,3.2c-2.5,2-6,3.4-10.6,3.4c-8.7,0-15.8-5.5-15.8-15.2
				c0-9.4,6.8-15.4,15.6-15.4c7.2,0,12.4,4.2,14,11.2c0.2,0.8,0.3,1.5,0.3,2.2c0,3.2-1.9,4.6-4.9,4.6H1154c0.3,3.2,3.5,5.4,6.9,5.4
				c2.2,0,3.6-0.4,5.5-1.7C1167.8,797.8,1168.4,797.5,1169.3,797.5z M1166.2,789.1c0-3-1.9-5.5-5.7-5.5c-3.6,0-6.3,2.5-6.5,5.5
				H1166.2z"/>
			<path class="st0" d="M1181.3,775c0-4.5,3.2-5.2,4.7-5.2c1.4,0,4.6,0.8,4.6,5.2v2.9h3.4c3.4,0,4,2.4,4,3.5c0,1.2-0.6,3.6-4,3.6
				h-3.4v11c0,2.7,0.8,3.9,2.8,3.9c0.3,0,0.5,0,0.8,0c2.4,0,3.5,1.8,3.5,3.4c0,3-2.7,4-6.1,4c-7.7,0-10.2-4.1-10.2-10.2v-12.1h-1.2
				c-3.4,0-4-2.4-4-3.6c0-1.1,0.6-3.5,4-3.5h1.2V775z"/>
			<path class="st0" d="M1230.8,807.7c-8.7,0-16-6-16-15.4c0-9.4,7.3-15.2,16-15.2c8.7,0,16,5.8,16,15.2
				C1246.8,801.7,1239.6,807.7,1230.8,807.7z M1230.8,784.9c-4.5,0-6.8,3.6-6.8,7.3c0,3.7,2.4,7.5,6.8,7.5c4.5,0,6.8-3.8,6.8-7.5
				C1237.7,788.6,1235.3,784.9,1230.8,784.9z"/>
			<path class="st0" d="M1252,785.1c-3.4,0-4-2.4-4-3.6c0-1.1,0.6-3.5,4-3.5h1.9v-2.8c0-7.5,3.2-13.2,12.1-13.2
				c2.7,0,5.3,0.9,5.3,3.9c0,2.3-1.6,3.8-4.2,3.8c-3.1,0-3.8,2.2-3.8,5v3.4h3c3.4,0,4,2.4,4,3.5c0,1.2-0.6,3.6-4,3.6h-3V802
				c0,4.6-3.2,5.3-4.7,5.3c-1.6,0-4.7-0.8-4.7-5.3v-16.9H1252z"/>
			<path class="st0" d="M1002.3,840.2c0-4.7,3.4-5.6,5-5.6s5,0.8,5,5.6v31c0,4.7-3.4,5.6-5,5.6s-5-0.8-5-5.6V840.2z"/>
			<path class="st0" d="M1019.6,851.9c0-4.4,3.1-5.1,4.6-5.1c1.5,0,4.5,0.7,4.6,4.6h0.1c1.3-2.5,4.6-4.8,8.6-4.8
				c7.7,0,10.5,6,10.5,11.8v13.1c0,4.6-3.2,5.3-4.8,5.3c-1.6,0-4.7-0.8-4.7-5.3v-11c0-3.2-0.9-6.1-4.3-6.1c-3.4,0-5.1,2.9-5.1,6.2
				v10.9c0,4.6-3.2,5.3-4.8,5.3c-1.6,0-4.7-0.8-4.7-5.3V851.9z"/>
			<path class="st0" d="M1052.9,871.3c0-2.1,1.6-3.7,3.6-3.7c0.9,0,1.8,0.3,2.9,1c1.7,1.2,3.2,1.6,4.7,1.6c1.6,0,3.4-0.6,3.4-2.5
				c0-1.8-1.8-2.3-5.7-3.2c-4-0.9-8.4-3-8.4-8.4c0-6.9,6.5-9.7,12-9.7c2.5,0,5.9,0.6,7.8,1.7c1.9,1.1,2.4,2.3,2.4,3.5
				c0,2-1.4,3.6-3.6,3.6c-0.8,0-1.5-0.3-2.4-0.8c-1.3-0.8-2.4-1.1-3.9-1.1c-1.8,0-3.6,0.6-3.6,2.3c0,1.6,1.6,2,5.3,2.8
				c4.4,1,9.2,3.2,9.2,8.8c0,7.3-6.4,9.8-12.3,9.8c-3.3,0-7.1-0.8-9.3-2.3C1053.4,873.7,1052.9,872.5,1052.9,871.3z"/>
			<path class="st0" d="M1083.6,844.4c0-4.5,3.2-5.2,4.7-5.2c1.4,0,4.6,0.8,4.6,5.2v2.9h3.4c3.4,0,4,2.4,4,3.5c0,1.2-0.6,3.6-4,3.6
				h-3.4v11c0,2.7,0.8,3.9,2.8,3.9c0.3,0,0.5,0,0.8,0c2.4,0,3.5,1.8,3.5,3.4c0,3-2.7,4-6.1,4c-7.7,0-10.2-4.1-10.2-10.2v-12.1h-1.2
				c-3.4,0-4-2.4-4-3.6c0-1.1,0.6-3.5,4-3.5h1.2V844.4z"/>
			<path class="st0" d="M1104.2,851.9c0-4.4,3.1-5.1,4.6-5.1c1.4,0,4.6,0.8,4.6,4.7h0.1c1.1-2.4,3-4.9,6-4.9c2.7,0,4.2,1.8,4.2,4.2
				c0,2.1-1.2,4.3-4.9,4.5c-3.3,0.2-5.1,2.8-5.1,6.1v10.1c0,4.6-3.2,5.3-4.7,5.3c-1.6,0-4.7-0.8-4.7-5.3V851.9z"/>
			<path class="st0" d="M1155.2,871.7c0,4.4-3.1,5.1-4.5,5.1c-1.5,0-4.5-0.7-4.6-4.6h-0.1c-1.3,2.5-4.6,4.8-8.6,4.8
				c-7.7,0-10.5-6-10.5-11.8v-13.1c0-4.6,3.2-5.3,4.8-5.3c1.6,0,4.7,0.8,4.7,5.3V863c0,3.2,0.8,6.1,4.3,6.1c3.3,0,5.1-2.9,5.1-6.2
				v-10.8c0-4.6,3.2-5.3,4.7-5.3c1.6,0,4.7,0.8,4.7,5.3V871.7z"/>
			<path class="st0" d="M1160.5,861.8c0-9.4,7.1-15.3,16.1-15.3c2.3,0,4.7,0.5,6.4,1.3c2.2,1,2.8,2.6,2.8,3.8c0,2.2-1.3,4.1-3.9,4.1
				c-0.7,0-1.5-0.2-2.5-0.7c-0.8-0.4-1.6-0.6-2.5-0.6c-4,0-6.6,3.4-6.6,7.4c0,4,2.6,7.3,6.8,7.3c0.9,0,1.7-0.1,2.5-0.5
				c1-0.5,1.9-0.7,2.5-0.7c2.5,0,3.9,1.9,3.9,4.1c0,1.2-0.7,2.8-2.8,3.8c-1.7,0.9-4.1,1.3-6.4,1.3
				C1167.5,877.1,1160.5,871.3,1160.5,861.8z"/>
			<path class="st0" d="M1193,844.4c0-4.5,3.2-5.2,4.7-5.2c1.4,0,4.6,0.8,4.6,5.2v2.9h3.4c3.4,0,4,2.4,4,3.5c0,1.2-0.6,3.6-4,3.6
				h-3.4v11c0,2.7,0.8,3.9,2.8,3.9c0.3,0,0.5,0,0.8,0c2.4,0,3.5,1.8,3.5,3.4c0,3-2.7,4-6.1,4c-7.7,0-10.2-4.1-10.2-10.2v-12.1h-1.2
				c-3.4,0-4-2.4-4-3.6c0-1.1,0.6-3.5,4-3.5h1.2V844.4z"/>
			<path class="st0" d="M1218.3,843.4c-3.1,0-5.4-2.4-5.4-5.2c0-2.8,2.4-5.2,5.4-5.2c3,0,5.4,2.3,5.4,5.2
				C1223.7,841.1,1221.3,843.4,1218.3,843.4z M1213.5,852.1c0-4.6,3.2-5.3,4.7-5.3c1.6,0,4.7,0.8,4.7,5.3v19.3c0,4.6-3.2,5.3-4.7,5.3
				c-1.6,0-4.7-0.8-4.7-5.3V852.1z"/>
			<path class="st0" d="M1244.1,877.1c-8.7,0-16-6-16-15.4c0-9.4,7.3-15.2,16-15.2c8.7,0,16,5.8,16,15.2
				C1260.1,871.1,1252.8,877.1,1244.1,877.1z M1244.1,854.3c-4.5,0-6.8,3.6-6.8,7.3c0,3.7,2.4,7.5,6.8,7.5c4.5,0,6.8-3.8,6.8-7.5
				C1250.9,858,1248.5,854.3,1244.1,854.3z"/>
			<path class="st0" d="M1265.3,851.9c0-4.4,3.1-5.1,4.6-5.1c1.5,0,4.5,0.7,4.6,4.6h0.1c1.3-2.5,4.6-4.8,8.6-4.8
				c7.7,0,10.5,6,10.5,11.8v13.1c0,4.6-3.2,5.3-4.8,5.3c-1.6,0-4.7-0.8-4.7-5.3v-11c0-3.2-0.9-6.1-4.3-6.1c-3.4,0-5.1,2.9-5.1,6.2
				v10.9c0,4.6-3.2,5.3-4.8,5.3c-1.6,0-4.7-0.8-4.7-5.3V851.9z"/>
			<path class="st0" d="M1298.6,871.3c0-2.1,1.6-3.7,3.6-3.7c0.9,0,1.8,0.3,2.9,1c1.7,1.2,3.2,1.6,4.7,1.6c1.6,0,3.4-0.6,3.4-2.5
				c0-1.8-1.8-2.3-5.7-3.2c-4-0.9-8.4-3-8.4-8.4c0-6.9,6.5-9.7,12-9.7c2.5,0,5.9,0.6,7.8,1.7c1.9,1.1,2.4,2.3,2.4,3.5
				c0,2-1.4,3.6-3.6,3.6c-0.8,0-1.5-0.3-2.4-0.8c-1.3-0.8-2.4-1.1-3.9-1.1c-1.8,0-3.6,0.6-3.6,2.3c0,1.6,1.6,2,5.3,2.8
				c4.4,1,9.2,3.2,9.2,8.8c0,7.3-6.4,9.8-12.3,9.8c-3.3,0-7.1-0.8-9.3-2.3C1299.2,873.7,1298.6,872.5,1298.6,871.3z"/>
		</g>
	</g>
	<g id="plant-read-instructions-button" class="vid-button">
		<path class="st2 button-bg" d="M680.8,943.8c-52.1-0.6-103.2-8-155-11.8c-29-2.2-62.3,3.4-87.9-10.1c-25.1-13.3-43.3-32.7-48.3-61.6
			c-7.1-40.8,11.2-109,59.6-116.1c12.2-1.8,24.5-0.2,36.7,0.9c113.5,10.7,228-24.5,340.6,5.8c21.8,5.9,42.7,18.6,53.4,38.4
			c22.8,42.3,24.6,119.7-27.5,139.9c-24.1,9.3-45.5,4.7-69.8,6.1c-28.6,1.7-55,7.9-83.7,8.5C692.9,943.8,686.9,943.8,680.8,943.8z"
			/>
		<g class="button-label">
			<path class="st0" d="M478.3,810.1h-17.6l-2,4.9c-1.3,3.1-3.3,3.7-4.9,3.7c-2.5,0-4.8-1.7-4.8-4.7c0-0.8,0.1-1.6,0.6-2.8l13.5-29.7
				c1.9-4.1,4.6-4.9,6.5-4.9c2,0,4.6,0.6,6.5,4.9l13.4,29.6c0.5,1.1,0.6,2.1,0.6,2.7c0,3.2-2.4,5-4.9,5c-1.6,0-3.7-0.6-5-3.8
				L478.3,810.1z M463.9,802.2h11.2l-5.6-13.6L463.9,802.2z"/>
			<path class="st0" d="M520.1,807.6h0.2l4.2-13.6c1.4-4.6,4.1-5.2,6-5.2s4.5,0.6,6,5.1l4.3,13.6h0.1l4.3-14.8c0.9-3.2,2.9-4,4.6-4
				c2.5,0,4.5,1.9,4.5,4.4c0,0.5-0.1,1.3-0.5,2.3l-6.7,18.4c-1.4,4-4.1,4.8-6.1,4.8c-2,0-4.9-0.8-6.2-4.8l-4.6-13.7h-0.1l-4.5,13.7
				c-1.3,4-4.2,4.8-6.2,4.8c-2,0-4.7-0.8-6.1-4.8l-6.6-18.4c-0.3-0.9-0.3-1.7-0.3-2.1c0-2.6,2-4.6,4.7-4.6c1.8,0,3.8,0.8,4.7,4.2
				L520.1,807.6z"/>
			<path class="st0" d="M562,797.9c-1.9,0-3.4-1.4-3.4-3.4c0-1.1,0.5-2.4,2.3-3.5c3-1.9,6.5-2.5,9.5-2.5c9.7,0,13.2,4.7,13.2,15.2
				v10.1c0,4.2-2.9,5-4.4,5c-1.3,0-3.8-0.6-4.3-3.6h-0.2c-1.4,2.4-4.7,3.8-8.2,3.8c-4.6,0-10.5-2.3-10.5-9c0-8.3,10.1-9.7,18.5-9.7
				v-0.5c0-2.5-2-4.2-4.9-4.2c-1.9,0-3.8,0.9-5.6,1.9C563.4,797.7,562.6,797.9,562,797.9z M575,805.6h-1.2c-4.2,0-8.8,0.5-8.8,3.9
				c0,2.2,2.2,2.9,4.1,2.9c3.8,0,6-2.3,6-5.9V805.6z"/>
			<path class="st0" d="M602.4,807.7h0.2l5.3-14.9c1.2-3.4,3-4.1,4.6-4.1c2.7,0,4.7,1.9,4.7,4.4c0,0.6-0.1,1.5-0.5,2.5l-11.2,26.9
				c-2.5,6-5.3,9.4-12.7,9.4h-0.5c-4,0-4.7-2.6-4.7-4c0-1.3,0.6-4,4.5-4c1.2,0,3.1-0.1,4.5-3.6l1-2.7l-9.9-21.6
				c-0.5-1-0.6-2.1-0.6-2.7c0-2.6,2-4.6,4.7-4.6c1.7,0,3.6,0.9,4.7,3.8L602.4,807.7z"/>
			<path class="st0" d="M637.5,786.4c0-4.5,3.2-5.2,4.7-5.2c1.4,0,4.6,0.8,4.6,5.2v2.9h3.4c3.4,0,4,2.4,4,3.5c0,1.2-0.6,3.6-4,3.6
				h-3.4v11c0,2.7,0.8,3.9,2.8,3.9c0.3,0,0.5,0,0.8,0c2.4,0,3.5,1.8,3.5,3.4c0,3-2.7,4-6.1,4c-7.7,0-10.2-4.1-10.2-10.2v-12.1h-1.2
				c-3.4,0-4-2.4-4-3.6c0-1.1,0.6-3.5,4-3.5h1.2V786.4z"/>
			<path class="st0" d="M671.8,819.1c-8.7,0-16-6-16-15.4c0-9.4,7.3-15.2,16-15.2c8.7,0,16,5.8,16,15.2
				C687.8,813.1,680.5,819.1,671.8,819.1z M671.8,796.3c-4.5,0-6.8,3.6-6.8,7.3c0,3.7,2.4,7.5,6.8,7.5s6.8-3.8,6.8-7.5
				C678.7,799.9,676.3,796.3,671.8,796.3z"/>
			<path class="st0" d="M708.3,793.9c0-4.4,3.1-5.1,4.6-5.1c1.4,0,4.6,0.8,4.6,4.7h0.1c1.1-2.4,3-4.9,6-4.9c2.7,0,4.2,1.8,4.2,4.2
				c0,2.1-1.2,4.3-4.9,4.5c-3.3,0.2-5.1,2.8-5.1,6.1v10.1c0,4.6-3.2,5.3-4.7,5.3s-4.7-0.8-4.7-5.3V793.9z"/>
			<path class="st0" d="M753.5,808.9c2.1,0,3.6,1.4,3.6,3.6c0,0.8-0.3,2.1-1.7,3.2c-2.5,2-6,3.4-10.6,3.4c-8.7,0-15.8-5.5-15.8-15.2
				c0-9.4,6.8-15.4,15.6-15.4c7.2,0,12.4,4.2,14,11.2c0.2,0.8,0.3,1.5,0.3,2.2c0,3.2-1.9,4.6-4.9,4.6h-15.8c0.3,3.2,3.5,5.4,6.9,5.4
				c2.2,0,3.6-0.4,5.5-1.7C751.9,809.1,752.6,808.9,753.5,808.9z M750.3,800.4c0-3-1.9-5.5-5.7-5.5c-3.6,0-6.3,2.5-6.5,5.5H750.3z"/>
			<path class="st0" d="M767.8,797.9c-1.9,0-3.4-1.4-3.4-3.4c0-1.1,0.5-2.4,2.3-3.5c3-1.9,6.5-2.5,9.5-2.5c9.7,0,13.2,4.7,13.2,15.2
				v10.1c0,4.2-2.9,5-4.4,5c-1.3,0-3.8-0.6-4.3-3.6h-0.2c-1.4,2.4-4.7,3.8-8.2,3.8c-4.6,0-10.5-2.3-10.5-9c0-8.3,10.1-9.7,18.5-9.7
				v-0.5c0-2.5-2-4.2-4.9-4.2c-1.9,0-3.8,0.9-5.6,1.9C769.2,797.7,768.5,797.9,767.8,797.9z M780.8,805.6h-1.2
				c-4.2,0-8.8,0.5-8.8,3.9c0,2.2,2.2,2.9,4.1,2.9c3.8,0,6-2.3,6-5.9V805.6z"/>
			<path class="st0" d="M826.4,813.7c0,4.3-2.9,5-4.4,5c-1.4,0-4.2-0.8-4.3-4.3h-0.1c-1.9,2.9-5.6,4.6-9.4,4.6
				c-8.7,0-13.7-7.3-13.7-15.3c0-8,5.2-15.1,13.6-15.1c4.2,0,7.2,2,8.8,3.9h0.1v-13.2c0-4.6,3.2-5.3,4.7-5.3c1.6,0,4.7,0.8,4.7,5.3
				V813.7z M810.4,796.3c-4.5,0-6.8,3.6-6.8,7.3c0,3.8,2.3,7.5,6.8,7.5c4.3,0,6.9-3.6,6.9-7.4C817.3,800,814.7,796.3,810.4,796.3z"/>
			<path class="st0" d="M428.3,855.8c0-4.5,3.2-5.2,4.7-5.2c1.4,0,4.6,0.8,4.6,5.2v2.9h3.4c3.4,0,4,2.4,4,3.5c0,1.2-0.6,3.6-4,3.6
				h-3.4v11c0,2.7,0.8,3.9,2.8,3.9c0.3,0,0.5,0,0.8,0c2.4,0,3.5,1.8,3.5,3.4c0,3-2.7,4-6.1,4c-7.7,0-10.2-4.1-10.2-10.2v-12.1h-1.2
				c-3.4,0-4-2.4-4-3.6c0-1.1,0.6-3.5,4-3.5h1.2V855.8z"/>
			<path class="st0" d="M448.9,848.5c0-4.6,3.2-5.3,4.7-5.3c1.6,0,4.7,0.8,4.7,5.3v13.8h0.1c1.3-2.3,4.3-4.5,8.3-4.5
				c7.8,0,10.5,6,10.5,11.8v13.1c0,4.6-3.2,5.3-4.8,5.3c-1.6,0-4.7-0.8-4.7-5.3v-10.9c0-3.2-0.8-6.1-4.2-6.1c-3.3,0-5.1,2.7-5.1,6.1
				v10.8c0,4.6-3.2,5.3-4.7,5.3c-1.6,0-4.7-0.8-4.7-5.3V848.5z"/>
			<path class="st0" d="M506.9,878.3c2.1,0,3.6,1.4,3.6,3.6c0,0.8-0.3,2.1-1.7,3.2c-2.5,2-6,3.4-10.6,3.4c-8.7,0-15.8-5.5-15.8-15.2
				c0-9.4,6.8-15.4,15.6-15.4c7.2,0,12.4,4.2,14,11.2c0.2,0.8,0.3,1.5,0.3,2.2c0,3.2-1.9,4.6-4.9,4.6h-15.8c0.3,3.2,3.5,5.4,6.9,5.4
				c2.2,0,3.6-0.4,5.5-1.7C505.3,878.5,505.9,878.3,506.9,878.3z M503.7,869.8c0-3-1.9-5.5-5.7-5.5c-3.6,0-6.3,2.5-6.5,5.5H503.7z"/>
			<path class="st0" d="M533.3,851.6c0-4.7,3.4-5.6,5-5.6s5,0.8,5,5.6v31c0,4.7-3.4,5.6-5,5.6s-5-0.8-5-5.6V851.6z"/>
			<path class="st0" d="M550.6,863.2c0-4.4,3.1-5.1,4.6-5.1s4.5,0.7,4.6,4.6h0.1c1.3-2.5,4.6-4.8,8.6-4.8c7.7,0,10.5,6,10.5,11.8
				v13.1c0,4.6-3.2,5.3-4.8,5.3c-1.6,0-4.7-0.8-4.7-5.3v-11c0-3.2-0.9-6.1-4.3-6.1c-3.4,0-5.1,2.9-5.1,6.2v10.9
				c0,4.6-3.2,5.3-4.8,5.3c-1.6,0-4.7-0.8-4.7-5.3V863.2z"/>
			<path class="st0" d="M583.9,882.7c0-2.1,1.6-3.7,3.6-3.7c0.9,0,1.8,0.3,2.9,1c1.7,1.2,3.2,1.6,4.7,1.6c1.6,0,3.4-0.6,3.4-2.5
				c0-1.8-1.8-2.3-5.7-3.2c-4-0.9-8.4-3-8.4-8.4c0-6.9,6.5-9.7,12-9.7c2.5,0,5.9,0.6,7.8,1.7c1.9,1.1,2.4,2.3,2.4,3.5
				c0,2-1.4,3.6-3.6,3.6c-0.8,0-1.5-0.3-2.4-0.8c-1.3-0.8-2.4-1.1-3.9-1.1c-1.8,0-3.6,0.6-3.6,2.3c0,1.6,1.6,2,5.3,2.8
				c4.4,1,9.2,3.2,9.2,8.8c0,7.3-6.4,9.8-12.3,9.8c-3.3,0-7.1-0.8-9.3-2.3C584.4,885.1,583.9,883.8,583.9,882.7z"/>
			<path class="st0" d="M614.6,855.8c0-4.5,3.2-5.2,4.7-5.2c1.4,0,4.6,0.8,4.6,5.2v2.9h3.4c3.4,0,4,2.4,4,3.5c0,1.2-0.6,3.6-4,3.6
				h-3.4v11c0,2.7,0.8,3.9,2.8,3.9c0.3,0,0.5,0,0.8,0c2.4,0,3.5,1.8,3.5,3.4c0,3-2.7,4-6.1,4c-7.7,0-10.2-4.1-10.2-10.2v-12.1h-1.2
				c-3.4,0-4-2.4-4-3.6c0-1.1,0.6-3.5,4-3.5h1.2V855.8z"/>
			<path class="st0" d="M635.2,863.2c0-4.4,3.1-5.1,4.6-5.1c1.4,0,4.6,0.8,4.6,4.7h0.1c1.1-2.4,3-4.9,6-4.9c2.7,0,4.2,1.8,4.2,4.2
				c0,2.1-1.2,4.3-4.9,4.5c-3.3,0.2-5.1,2.8-5.1,6.1v10.1c0,4.6-3.2,5.3-4.7,5.3c-1.6,0-4.7-0.8-4.7-5.3V863.2z"/>
			<path class="st0" d="M686.2,883c0,4.4-3.1,5.1-4.5,5.1c-1.5,0-4.5-0.7-4.6-4.6h-0.1c-1.3,2.5-4.6,4.8-8.6,4.8
				c-7.7,0-10.5-6-10.5-11.8v-13.1c0-4.6,3.2-5.3,4.8-5.3c1.6,0,4.7,0.8,4.7,5.3v10.9c0,3.2,0.8,6.1,4.3,6.1c3.3,0,5.1-2.9,5.1-6.2
				v-10.8c0-4.6,3.2-5.3,4.7-5.3c1.6,0,4.7,0.8,4.7,5.3V883z"/>
			<path class="st0" d="M691.5,873.1c0-9.4,7.1-15.3,16.1-15.3c2.3,0,4.7,0.5,6.4,1.3c2.2,1,2.8,2.6,2.8,3.8c0,2.2-1.3,4.1-3.9,4.1
				c-0.7,0-1.5-0.2-2.5-0.7c-0.8-0.4-1.6-0.6-2.5-0.6c-4,0-6.6,3.4-6.6,7.4c0,4,2.6,7.3,6.8,7.3c0.9,0,1.7-0.1,2.5-0.5
				c1-0.5,1.9-0.7,2.5-0.7c2.5,0,3.9,1.9,3.9,4.1c0,1.2-0.7,2.8-2.8,3.8c-1.7,0.9-4.1,1.3-6.4,1.3
				C698.5,888.4,691.5,882.7,691.5,873.1z"/>
			<path class="st0" d="M724,855.8c0-4.5,3.2-5.2,4.7-5.2c1.4,0,4.6,0.8,4.6,5.2v2.9h3.4c3.4,0,4,2.4,4,3.5c0,1.2-0.6,3.6-4,3.6h-3.4
				v11c0,2.7,0.8,3.9,2.8,3.9c0.3,0,0.5,0,0.8,0c2.4,0,3.5,1.8,3.5,3.4c0,3-2.7,4-6.1,4c-7.7,0-10.2-4.1-10.2-10.2v-12.1h-1.2
				c-3.4,0-4-2.4-4-3.6c0-1.1,0.6-3.5,4-3.5h1.2V855.8z"/>
			<path class="st0" d="M749.3,854.7c-3.1,0-5.4-2.4-5.4-5.2c0-2.8,2.4-5.2,5.4-5.2c3,0,5.4,2.3,5.4,5.2
				C754.7,852.5,752.3,854.7,749.3,854.7z M744.5,863.5c0-4.6,3.2-5.3,4.7-5.3c1.6,0,4.7,0.8,4.7,5.3v19.3c0,4.6-3.2,5.3-4.7,5.3
				c-1.6,0-4.7-0.8-4.7-5.3V863.5z"/>
			<path class="st0" d="M775.1,888.4c-8.7,0-16-6-16-15.4s7.3-15.2,16-15.2c8.7,0,16,5.8,16,15.2S783.8,888.4,775.1,888.4z
				M775.1,865.7c-4.5,0-6.8,3.6-6.8,7.3s2.4,7.5,6.8,7.5s6.8-3.8,6.8-7.5S779.5,865.7,775.1,865.7z"/>
			<path class="st0" d="M796.3,863.2c0-4.4,3.1-5.1,4.6-5.1s4.5,0.7,4.6,4.6h0.1c1.3-2.5,4.6-4.8,8.6-4.8c7.7,0,10.5,6,10.5,11.8
				v13.1c0,4.6-3.2,5.3-4.8,5.3c-1.6,0-4.7-0.8-4.7-5.3v-11c0-3.2-0.9-6.1-4.3-6.1c-3.4,0-5.1,2.9-5.1,6.2v10.9
				c0,4.6-3.2,5.3-4.8,5.3c-1.6,0-4.7-0.8-4.7-5.3V863.2z"/>
			<path class="st0" d="M829.6,882.7c0-2.1,1.6-3.7,3.6-3.7c0.9,0,1.8,0.3,2.9,1c1.7,1.2,3.2,1.6,4.7,1.6c1.6,0,3.4-0.6,3.4-2.5
				c0-1.8-1.8-2.3-5.7-3.2c-4-0.9-8.4-3-8.4-8.4c0-6.9,6.5-9.7,12-9.7c2.5,0,5.9,0.6,7.8,1.7c1.9,1.1,2.4,2.3,2.4,3.5
				c0,2-1.4,3.6-3.6,3.6c-0.8,0-1.5-0.3-2.4-0.8c-1.3-0.8-2.4-1.1-3.9-1.1c-1.8,0-3.6,0.6-3.6,2.3c0,1.6,1.6,2,5.3,2.8
				c4.4,1,9.2,3.2,9.2,8.8c0,7.3-6.4,9.8-12.3,9.8c-3.3,0-7.1-0.8-9.3-2.3C830.2,885.1,829.6,883.8,829.6,882.7z"/>
		</g>
	</g>
	<g id="plant-container-button" class="vid-button">
		<path class="st3 button-bg" d="M1217.2,641.3c-17.7,16.2-48.4,22.2-75.9,24.9c-59.3,5.7-121.6-6.5-181.5-6.3c-38.4,0.2-95.2,4.4-125.9-24
			c-31.7-29.3-14-75.2,18.1-94.9c17.1-10.5,27.4-8.5,46.7-7.8c15.3,0.6,31,1.2,46.1,1.3c36.2,0.2,72.3-0.8,108.5-2.1
			c28.9-1.1,57.4,4.5,86.8,4.3c18.2-0.1,37.1-0.1,53.7,7.4c15.3,7,27.5,20.3,33.1,36.2C1237.1,609.2,1231.2,628.5,1217.2,641.3z"/>
		<g class="button-label">
			<path class="st0" d="M888.9,607.8h-17.6l-2,4.9c-1.3,3.1-3.3,3.7-4.9,3.7c-2.5,0-4.8-1.7-4.8-4.7c0-0.8,0.1-1.6,0.6-2.8l13.5-29.7
				c1.9-4.1,4.6-4.9,6.5-4.9c2,0,4.6,0.6,6.5,4.9l13.4,29.6c0.5,1.1,0.6,2.1,0.6,2.7c0,3.2-2.4,5-4.9,5c-1.6,0-3.7-0.6-5-3.8
				L888.9,607.8z M874.5,599.9h11.2l-5.6-13.6L874.5,599.9z"/>
			<path class="st0" d="M940.6,582.8c-6.9,0-11.8,5.3-11.8,12.5c0,7.5,4.8,12.5,11.6,12.5c2.2,0,3.8-0.3,5.9-1.8
				c1.7-1.2,2.5-1.3,3.5-1.3c2.4,0,4.4,1.7,4.4,4.5c0,1.2-0.5,2.7-2.3,4.1c-2.3,1.9-6.8,3.6-11.9,3.6c-12.6,0-22-8.8-22-21.6
				c0-13.1,9.7-21.5,22.2-21.5c4.3,0,9,1.3,11.2,2.9c2.1,1.5,2.4,3,2.4,4.2c0,2.5-2,4.5-4.5,4.5c-0.9,0-1.8-0.2-3.4-1.2
				C944.6,583.4,942.8,582.8,940.6,582.8z"/>
			<path class="st0" d="M973.1,616.8c-8.7,0-16-6-16-15.4s7.3-15.2,16-15.2c8.7,0,16,5.8,16,15.2S981.9,616.8,973.1,616.8z
				M973.1,594c-4.5,0-6.8,3.6-6.8,7.3s2.4,7.5,6.8,7.5s6.8-3.8,6.8-7.5S977.6,594,973.1,594z"/>
			<path class="st0" d="M994.4,591.6c0-4.4,3.1-5.1,4.6-5.1c1.5,0,4.5,0.7,4.6,4.6h0.1c1.3-2.5,4.6-4.8,8.6-4.8
				c7.7,0,10.5,6,10.5,11.8v13.1c0,4.6-3.2,5.3-4.8,5.3c-1.6,0-4.7-0.8-4.7-5.3v-11c0-3.2-0.9-6.1-4.3-6.1c-3.4,0-5.1,2.9-5.1,6.2
				v10.9c0,4.6-3.2,5.3-4.8,5.3c-1.6,0-4.7-0.8-4.7-5.3V591.6z"/>
			<path class="st0" d="M1030.5,584.1c0-4.5,3.2-5.2,4.7-5.2c1.4,0,4.6,0.8,4.6,5.2v2.9h3.4c3.4,0,4,2.4,4,3.5c0,1.2-0.6,3.6-4,3.6
				h-3.4v11c0,2.7,0.8,3.9,2.8,3.9c0.3,0,0.5,0,0.8,0c2.4,0,3.5,1.8,3.5,3.4c0,3-2.7,4-6.1,4c-7.7,0-10.2-4.1-10.2-10.2v-12.1h-1.2
				c-3.4,0-4-2.4-4-3.6c0-1.1,0.6-3.5,4-3.5h1.2V584.1z"/>
			<path class="st0" d="M1055.1,595.6c-1.9,0-3.4-1.4-3.4-3.4c0-1.1,0.5-2.4,2.3-3.5c3-1.9,6.5-2.5,9.5-2.5c9.7,0,13.2,4.7,13.2,15.2
				v10.1c0,4.2-2.9,5-4.4,5c-1.3,0-3.8-0.6-4.3-3.6h-0.2c-1.4,2.4-4.7,3.8-8.2,3.8c-4.6,0-10.5-2.3-10.5-9c0-8.3,10.1-9.7,18.5-9.7
				v-0.5c0-2.5-2-4.2-4.9-4.2c-1.9,0-3.8,0.9-5.6,1.9C1056.5,595.5,1055.8,595.6,1055.1,595.6z M1068.1,603.3h-1.2
				c-4.2,0-8.8,0.5-8.8,3.9c0,2.2,2.2,2.9,4.1,2.9c3.8,0,6-2.3,6-5.9V603.3z"/>
			<path class="st0" d="M1088,583.1c-3.1,0-5.4-2.4-5.4-5.2c0-2.8,2.4-5.2,5.4-5.2c3,0,5.4,2.3,5.4,5.2
				C1093.4,580.8,1091,583.1,1088,583.1z M1083.3,591.8c0-4.6,3.2-5.3,4.7-5.3c1.6,0,4.7,0.8,4.7,5.3v19.3c0,4.6-3.2,5.3-4.7,5.3
				c-1.6,0-4.7-0.8-4.7-5.3V591.8z"/>
			<path class="st0" d="M1099.5,591.6c0-4.4,3.1-5.1,4.6-5.1c1.5,0,4.5,0.7,4.6,4.6h0.1c1.3-2.5,4.6-4.8,8.6-4.8
				c7.7,0,10.5,6,10.5,11.8v13.1c0,4.6-3.2,5.3-4.8,5.3c-1.6,0-4.7-0.8-4.7-5.3v-11c0-3.2-0.9-6.1-4.3-6.1c-3.4,0-5.1,2.9-5.1,6.2
				v10.9c0,4.6-3.2,5.3-4.8,5.3c-1.6,0-4.7-0.8-4.7-5.3V591.6z"/>
			<path class="st0" d="M1157.5,606.6c2.1,0,3.6,1.4,3.6,3.6c0,0.8-0.3,2.1-1.7,3.2c-2.5,2-6,3.4-10.6,3.4c-8.7,0-15.8-5.5-15.8-15.2
				c0-9.4,6.8-15.4,15.6-15.4c7.2,0,12.4,4.2,14,11.2c0.2,0.8,0.3,1.5,0.3,2.2c0,3.2-1.9,4.6-4.9,4.6h-15.8c0.3,3.2,3.5,5.4,6.9,5.4
				c2.2,0,3.6-0.4,5.5-1.7C1155.9,606.9,1156.5,606.6,1157.5,606.6z M1154.3,598.2c0-3-1.9-5.5-5.7-5.5c-3.6,0-6.3,2.5-6.5,5.5
				H1154.3z"/>
			<path class="st0" d="M1168.1,591.6c0-4.4,3.1-5.1,4.6-5.1c1.4,0,4.6,0.8,4.6,4.7h0.1c1.1-2.4,3-4.9,6-4.9c2.7,0,4.2,1.8,4.2,4.2
				c0,2.1-1.2,4.3-4.9,4.5c-3.3,0.2-5.1,2.8-5.1,6.1v10.1c0,4.6-3.2,5.3-4.7,5.3c-1.6,0-4.7-0.8-4.7-5.3V591.6z"/>
		</g>
	</g>
	<g id="plant-energy-button" class="vid-button">
		<path class="st4 button-bg" d="M490.9,661.7c-15.2-0.4-30.6-1.1-46.1-2.1c-56.1-3.9-112.3-7.7-168.2-14.3c-42.5-5-75.5-4.6-95.7-50
			c-10.3-23.2-11.6-49.8-6.9-74.8c7.5-39.2,22.4-71.8,65-81c25.5-5.5,51.9-2,78-0.7c59.8,3,119.6-5.6,179.4-8.8
			c35.3-1.9,70.8-1.8,105.8,3.4c36.4,5.3,93.9-9,122.5,19.8c11.1,11.2,15.4,27.3,18.3,42.8c8.7,46.2,15.4,105.3-26.5,138.6
			c-15.6,12.4-35.3,18.6-55.1,20.9C605.7,661.7,547.4,663.2,490.9,661.7z"/>
		<g class="button-label">
			<path class="st0" d="M256.4,522.9h-17.6l-2,4.9c-1.3,3.1-3.3,3.7-4.9,3.7c-2.5,0-4.8-1.7-4.8-4.7c0-0.8,0.1-1.6,0.6-2.8l13.5-29.7
				c1.9-4.1,4.6-4.9,6.5-4.9c2,0,4.6,0.6,6.5,4.9l13.4,29.6c0.5,1.1,0.6,2.1,0.6,2.7c0,3.2-2.4,5-4.9,5c-1.6,0-3.7-0.6-5-3.8
				L256.4,522.9z M242,515h11.2l-5.6-13.6L242,515z"/>
			<path class="st0" d="M298.2,520.3h0.2l4.2-13.6c1.4-4.6,4.1-5.2,6-5.2s4.5,0.6,6,5.1l4.3,13.6h0.1l4.3-14.8c0.9-3.2,2.9-4,4.6-4
				c2.5,0,4.5,1.9,4.5,4.4c0,0.5-0.1,1.3-0.5,2.3l-6.7,18.4c-1.4,4-4.1,4.8-6.1,4.8c-2,0-4.9-0.8-6.2-4.8l-4.6-13.7h-0.1l-4.5,13.7
				c-1.3,4-4.2,4.8-6.2,4.8c-2,0-4.7-0.8-6.1-4.8l-6.6-18.4c-0.3-0.9-0.3-1.7-0.3-2.1c0-2.6,2-4.6,4.7-4.6c1.8,0,3.8,0.8,4.7,4.2
				L298.2,520.3z"/>
			<path class="st0" d="M340,510.7c-1.9,0-3.4-1.4-3.4-3.4c0-1.1,0.5-2.4,2.3-3.5c3-1.9,6.5-2.5,9.5-2.5c9.7,0,13.2,4.7,13.2,15.2
				v10.1c0,4.2-2.9,5-4.4,5c-1.3,0-3.8-0.6-4.3-3.6h-0.2c-1.4,2.4-4.7,3.8-8.2,3.8c-4.6,0-10.5-2.3-10.5-9c0-8.3,10.1-9.7,18.5-9.7
				v-0.5c0-2.5-2-4.2-4.9-4.2c-1.9,0-3.8,0.9-5.6,1.9C341.4,510.5,340.6,510.7,340,510.7z M353,518.4h-1.2c-4.2,0-8.8,0.5-8.8,3.9
				c0,2.2,2.2,2.9,4.1,2.9c3.8,0,6-2.3,6-5.9V518.4z"/>
			<path class="st0" d="M380.4,520.5h0.2l5.3-14.9c1.2-3.4,3-4.1,4.6-4.1c2.7,0,4.7,1.9,4.7,4.4c0,0.6-0.1,1.5-0.5,2.5l-11.2,26.9
				c-2.5,6-5.3,9.4-12.7,9.4h-0.5c-4,0-4.7-2.6-4.7-4c0-1.3,0.6-4,4.5-4c1.2,0,3.1-0.1,4.5-3.6l1-2.7l-9.9-21.6
				c-0.5-1-0.6-2.1-0.6-2.7c0-2.6,2-4.6,4.7-4.6c1.7,0,3.6,0.9,4.7,3.8L380.4,520.5z"/>
			<path class="st0" d="M415.5,499.2c0-4.5,3.2-5.2,4.7-5.2c1.4,0,4.6,0.8,4.6,5.2v2.9h3.4c3.4,0,4,2.4,4,3.5c0,1.2-0.6,3.6-4,3.6
				h-3.4v11c0,2.7,0.8,3.9,2.8,3.9c0.3,0,0.5,0,0.8,0c2.4,0,3.5,1.8,3.5,3.4c0,3-2.7,4-6.1,4c-7.7,0-10.2-4.1-10.2-10.2v-12.1h-1.2
				c-3.4,0-4-2.4-4-3.6c0-1.1,0.6-3.5,4-3.5h1.2V499.2z"/>
			<path class="st0" d="M449.9,531.8c-8.7,0-16-6-16-15.4c0-9.4,7.3-15.2,16-15.2c8.7,0,16,5.8,16,15.2
				C465.9,525.8,458.6,531.8,449.9,531.8z M449.9,509.1c-4.5,0-6.8,3.6-6.8,7.3c0,3.7,2.4,7.5,6.8,7.5c4.5,0,6.8-3.8,6.8-7.5
				C456.7,512.7,454.3,509.1,449.9,509.1z"/>
			<path class="st0" d="M486.2,538.2c0-2.2,1.5-4.1,3.9-4.1c0.8,0,1.7,0.2,3.2,1.1c2.3,1.4,4.6,1.9,6.6,1.9c4.9,0,7.6-3.2,7.6-8v-1.7
				h-0.2c-1.8,2.3-4.9,3.8-8.7,3.8c-8.7,0-13.8-6.8-13.8-14.8c0-8,5-15.1,13.7-15.1c3.6,0,7.2,1.4,9.2,4.5h0.1c0.3-3.5,3-4.3,4.5-4.3
				c1.5,0,4.5,0.7,4.5,5.1v21.6c0,11.3-6.7,16.6-16.9,16.6c-3.5,0-8.2-0.8-11.3-2.8C486.9,540.8,486.2,539.4,486.2,538.2z
				M500.8,509.1c-4.3,0-6.8,3.3-6.8,7.3c0,3.8,2.5,7.3,6.8,7.3c4.3,0,7-3.4,7-7.3C507.8,512.4,505.1,509.1,500.8,509.1z"/>
			<path class="st0" d="M546.7,521.7c2.1,0,3.6,1.4,3.6,3.6c0,0.8-0.3,2.1-1.7,3.2c-2.5,2-6,3.4-10.6,3.4c-8.7,0-15.8-5.5-15.8-15.2
				c0-9.4,6.8-15.4,15.6-15.4c7.2,0,12.4,4.2,14,11.2c0.2,0.8,0.3,1.5,0.3,2.2c0,3.2-1.9,4.6-4.9,4.6h-15.8c0.3,3.2,3.5,5.4,6.9,5.4
				c2.2,0,3.6-0.4,5.5-1.7C545.2,521.9,545.8,521.7,546.7,521.7z M543.5,513.2c0-3-1.9-5.5-5.7-5.5c-3.6,0-6.3,2.5-6.5,5.5H543.5z"/>
			<path class="st0" d="M558.7,499.2c0-4.5,3.2-5.2,4.7-5.2c1.4,0,4.6,0.8,4.6,5.2v2.9h3.4c3.4,0,4,2.4,4,3.5c0,1.2-0.6,3.6-4,3.6
				H568v11c0,2.7,0.8,3.9,2.8,3.9c0.3,0,0.5,0,0.8,0c2.4,0,3.5,1.8,3.5,3.4c0,3-2.7,4-6.1,4c-7.7,0-10.2-4.1-10.2-10.2v-12.1h-1.2
				c-3.4,0-4-2.4-4-3.6c0-1.1,0.6-3.5,4-3.5h1.2V499.2z"/>
			<path class="st0" d="M597.7,510.7c-1.9,0-3.4-1.4-3.4-3.4c0-1.1,0.5-2.4,2.3-3.5c3-1.9,6.5-2.5,9.5-2.5c9.7,0,13.2,4.7,13.2,15.2
				v10.1c0,4.2-2.9,5-4.4,5c-1.3,0-3.8-0.6-4.3-3.6h-0.2c-1.4,2.4-4.7,3.8-8.2,3.8c-4.6,0-10.5-2.3-10.5-9c0-8.3,10.1-9.7,18.5-9.7
				v-0.5c0-2.5-2-4.2-4.9-4.2c-1.9,0-3.8,0.9-5.6,1.9C599.1,510.5,598.3,510.7,597.7,510.7z M610.7,518.4h-1.2
				c-4.2,0-8.8,0.5-8.8,3.9c0,2.2,2.2,2.9,4.1,2.9c3.8,0,6-2.3,6-5.9V518.4z"/>
			<path class="st0" d="M625.9,506.6c0-4.4,3.1-5.1,4.6-5.1s4.5,0.7,4.6,4.6h0.1c1.3-2.5,4.6-4.8,8.6-4.8c7.7,0,10.5,6,10.5,11.8
				v13.1c0,4.6-3.2,5.3-4.8,5.3c-1.6,0-4.7-0.8-4.7-5.3v-11c0-3.2-0.9-6.1-4.3-6.1c-3.4,0-5.1,2.9-5.1,6.2v10.9
				c0,4.6-3.2,5.3-4.8,5.3c-1.6,0-4.7-0.8-4.7-5.3V506.6z"/>
			<path class="st0" d="M691.4,526.5c0,4.3-2.9,5-4.4,5c-1.4,0-4.2-0.8-4.3-4.3h-0.1c-1.9,2.9-5.6,4.6-9.4,4.6
				c-8.7,0-13.7-7.3-13.7-15.3c0-8,5.2-15.1,13.6-15.1c4.2,0,7.2,2,8.8,3.9h0.1v-13.2c0-4.6,3.2-5.3,4.7-5.3c1.6,0,4.7,0.8,4.7,5.3
				V526.5z M675.4,509.1c-4.5,0-6.8,3.6-6.8,7.3c0,3.8,2.3,7.5,6.8,7.5c4.3,0,6.9-3.6,6.9-7.4C682.3,512.8,679.6,509.1,675.4,509.1z"
				/>
			<path class="st0" d="M340.1,595.8c0,4.4-3.1,5.1-4.5,5.1c-1.5,0-4.5-0.7-4.6-4.6h-0.1c-1.3,2.5-4.6,4.8-8.6,4.8
				c-7.7,0-10.5-6-10.5-11.8v-13.1c0-4.6,3.2-5.3,4.8-5.3c1.6,0,4.7,0.8,4.7,5.3v10.9c0,3.2,0.8,6.1,4.3,6.1c3.3,0,5.1-2.9,5.1-6.2
				v-10.8c0-4.6,3.2-5.3,4.7-5.3c1.6,0,4.7,0.8,4.7,5.3V595.8z"/>
			<path class="st0" d="M345.3,595.4c0-2.1,1.6-3.7,3.6-3.7c0.9,0,1.8,0.3,2.9,1c1.7,1.2,3.2,1.6,4.7,1.6c1.6,0,3.4-0.6,3.4-2.5
				c0-1.8-1.8-2.3-5.7-3.2c-4-0.9-8.4-3-8.4-8.4c0-6.9,6.5-9.7,12-9.7c2.5,0,5.9,0.6,7.8,1.7c1.9,1.1,2.4,2.3,2.4,3.5
				c0,2-1.4,3.6-3.6,3.6c-0.8,0-1.5-0.3-2.4-0.8c-1.3-0.8-2.4-1.1-3.9-1.1c-1.8,0-3.6,0.6-3.6,2.3c0,1.6,1.6,2,5.3,2.8
				c4.4,1,9.2,3.2,9.2,8.8c0,7.3-6.4,9.8-12.3,9.8c-3.3,0-7.1-0.8-9.3-2.3C345.8,597.9,345.3,596.6,345.3,595.4z"/>
			<path class="st0" d="M396.9,591c2.1,0,3.6,1.4,3.6,3.6c0,0.8-0.3,2.1-1.7,3.2c-2.5,2-6,3.4-10.6,3.4c-8.7,0-15.8-5.5-15.8-15.2
				c0-9.4,6.8-15.4,15.6-15.4c7.2,0,12.4,4.2,14,11.2c0.2,0.8,0.3,1.5,0.3,2.2c0,3.2-1.9,4.6-4.9,4.6h-15.8c0.3,3.2,3.5,5.4,6.9,5.4
				c2.2,0,3.6-0.4,5.5-1.7C395.4,591.3,396,591,396.9,591z M393.7,582.6c0-3-1.9-5.5-5.7-5.5c-3.6,0-6.3,2.5-6.5,5.5H393.7z"/>
			<path class="st0" d="M445.8,591c2.1,0,3.6,1.4,3.6,3.6c0,0.8-0.3,2.1-1.7,3.2c-2.5,2-6,3.4-10.6,3.4c-8.7,0-15.8-5.5-15.8-15.2
				c0-9.4,6.8-15.4,15.6-15.4c7.2,0,12.4,4.2,14,11.2c0.2,0.8,0.3,1.5,0.3,2.2c0,3.2-1.9,4.6-4.9,4.6h-15.8c0.3,3.2,3.5,5.4,6.9,5.4
				c2.2,0,3.6-0.4,5.5-1.7C444.3,591.3,444.9,591,445.8,591z M442.7,582.6c0-3-1.9-5.5-5.7-5.5c-3.6,0-6.3,2.5-6.5,5.5H442.7z"/>
			<path class="st0" d="M456.5,576c0-4.4,3.1-5.1,4.6-5.1s4.5,0.7,4.6,4.6h0.1c1.3-2.5,4.6-4.8,8.6-4.8c7.7,0,10.5,6,10.5,11.8v13.1
				c0,4.6-3.2,5.3-4.8,5.3c-1.6,0-4.7-0.8-4.7-5.3v-11c0-3.2-0.9-6.1-4.3-6.1c-3.4,0-5.1,2.9-5.1,6.2v10.9c0,4.6-3.2,5.3-4.8,5.3
				c-1.6,0-4.7-0.8-4.7-5.3V576z"/>
			<path class="st0" d="M514.5,591c2.1,0,3.6,1.4,3.6,3.6c0,0.8-0.3,2.1-1.7,3.2c-2.5,2-6,3.4-10.6,3.4c-8.7,0-15.8-5.5-15.8-15.2
				c0-9.4,6.8-15.4,15.6-15.4c7.2,0,12.4,4.2,14,11.2c0.2,0.8,0.3,1.5,0.3,2.2c0,3.2-1.9,4.6-4.9,4.6h-15.8c0.3,3.2,3.5,5.4,6.9,5.4
				c2.2,0,3.6-0.4,5.5-1.7C512.9,591.3,513.5,591,514.5,591z M511.3,582.6c0-3-1.9-5.5-5.7-5.5c-3.6,0-6.3,2.5-6.5,5.5H511.3z"/>
			<path class="st0" d="M525.1,576c0-4.4,3.1-5.1,4.6-5.1c1.4,0,4.6,0.8,4.6,4.7h0.1c1.1-2.4,3-4.9,6-4.9c2.7,0,4.2,1.8,4.2,4.2
				c0,2.1-1.2,4.3-4.9,4.5c-3.3,0.2-5.1,2.8-5.1,6.1v10.1c0,4.6-3.2,5.3-4.7,5.3c-1.6,0-4.7-0.8-4.7-5.3V576z"/>
			<path class="st0" d="M547.3,607.6c0-2.2,1.5-4.1,3.9-4.1c0.8,0,1.7,0.2,3.2,1.1c2.3,1.4,4.6,1.9,6.6,1.9c4.9,0,7.6-3.2,7.6-8v-1.7
				h-0.2c-1.8,2.3-4.9,3.8-8.7,3.8c-8.7,0-13.8-6.8-13.8-14.8c0-8,5-15.1,13.7-15.1c3.6,0,7.2,1.4,9.2,4.5h0.1c0.3-3.5,3-4.3,4.5-4.3
				c1.5,0,4.5,0.7,4.5,5.1v21.6c0,11.3-6.7,16.6-16.9,16.6c-3.5,0-8.2-0.8-11.3-2.8C547.9,610.2,547.3,608.8,547.3,607.6z
				M561.9,578.4c-4.3,0-6.8,3.3-6.8,7.3c0,3.8,2.5,7.3,6.8,7.3c4.3,0,7-3.4,7-7.3C568.9,581.8,566.2,578.4,561.9,578.4z"/>
			<path class="st0" d="M597.5,589.9h0.2l5.3-14.9c1.2-3.4,3-4.1,4.6-4.1c2.7,0,4.7,1.9,4.7,4.4c0,0.6-0.1,1.5-0.5,2.5l-11.2,26.9
				c-2.5,6-5.3,9.4-12.7,9.4h-0.5c-4,0-4.7-2.6-4.7-4c0-1.3,0.6-4,4.5-4c1.2,0,3.1-0.1,4.5-3.6l1-2.7l-9.9-21.6
				c-0.5-1-0.6-2.1-0.6-2.7c0-2.6,2-4.6,4.7-4.6c1.7,0,3.6,0.9,4.7,3.8L597.5,589.9z"/>
		</g>
	</g>
	<g id="plant-waste-button" class="vid-button">
		<path class="st5 button-bg" d="M1742.8,534.9c-1.6,11.9-6.1,22.7-6.9,34.3c-0.8,11,1.2,20.7-1.8,31.8c-5.1,18.7-17.3,35.7-34.2,45.5
			c-23,13.3-51,13.4-77.6,13.2c-47.8-0.4-96-0.5-143.4-3.8c-43.6-3-87,8.4-130.3-2.9c-18-4.7-35-18.2-38-36.6
			c-2.6-15.8,2.6-31.2-1.8-47c-5.4-19.7-12.2-34.3-5.5-55.3c19.5-61.6,82.8-45.2,131.9-46.1c67.2-1.1,135.1-11.5,201.8-6.7
			c38.1,2.7,92.7-2.3,104.7,45.2C1743.9,515.9,1744,525.5,1742.8,534.9z"/>
		<g class="button-label">
			<path class="st0" d="M1375.7,533.9h-17.6l-2,4.9c-1.3,3.1-3.3,3.7-4.9,3.7c-2.5,0-4.8-1.7-4.8-4.7c0-0.8,0.1-1.6,0.6-2.8
				l13.5-29.7c1.9-4.1,4.6-4.9,6.5-4.9c2,0,4.6,0.6,6.5,4.9l13.4,29.6c0.5,1.1,0.6,2.1,0.6,2.7c0,3.2-2.4,5-4.9,5
				c-1.6,0-3.7-0.6-5-3.8L1375.7,533.9z M1361.3,526h11.2l-5.6-13.6L1361.3,526z"/>
			<path class="st0" d="M1417.5,531.3h0.2l4.2-13.6c1.4-4.6,4.1-5.2,6-5.2c1.9,0,4.5,0.6,6,5.1l4.3,13.6h0.1l4.3-14.8
				c0.9-3.2,2.9-4,4.6-4c2.5,0,4.5,1.9,4.5,4.4c0,0.5-0.1,1.3-0.5,2.3l-6.7,18.4c-1.4,4-4.1,4.8-6.1,4.8s-4.9-0.8-6.2-4.8l-4.6-13.7
				h-0.1l-4.5,13.7c-1.3,4-4.2,4.8-6.2,4.8s-4.7-0.8-6.1-4.8l-6.6-18.4c-0.3-0.9-0.3-1.7-0.3-2.1c0-2.6,2-4.6,4.7-4.6
				c1.8,0,3.8,0.8,4.7,4.2L1417.5,531.3z"/>
			<path class="st0" d="M1459.4,521.7c-1.9,0-3.4-1.4-3.4-3.4c0-1.1,0.5-2.4,2.3-3.5c3-1.9,6.5-2.5,9.5-2.5c9.7,0,13.2,4.7,13.2,15.2
				v10.1c0,4.2-2.9,5-4.4,5c-1.3,0-3.8-0.6-4.3-3.6h-0.2c-1.4,2.4-4.7,3.8-8.2,3.8c-4.6,0-10.5-2.3-10.5-9c0-8.3,10.1-9.7,18.5-9.7
				v-0.5c0-2.5-2-4.2-4.9-4.2c-1.9,0-3.8,0.9-5.6,1.9C1460.8,521.5,1460,521.7,1459.4,521.7z M1472.4,529.4h-1.2
				c-4.2,0-8.8,0.5-8.8,3.9c0,2.2,2.2,2.9,4.1,2.9c3.8,0,6-2.3,6-5.9V529.4z"/>
			<path class="st0" d="M1499.8,531.5h0.2l5.3-14.9c1.2-3.4,3-4.1,4.6-4.1c2.7,0,4.7,1.9,4.7,4.4c0,0.6-0.1,1.5-0.5,2.5l-11.2,26.9
				c-2.5,6-5.3,9.4-12.7,9.4h-0.5c-4,0-4.7-2.6-4.7-4c0-1.3,0.6-4,4.5-4c1.2,0,3.1-0.1,4.5-3.6l1-2.7l-9.9-21.6
				c-0.5-1-0.6-2.1-0.6-2.7c0-2.6,2-4.6,4.7-4.6c1.7,0,3.6,0.9,4.7,3.8L1499.8,531.5z"/>
			<path class="st0" d="M1534.9,510.2c0-4.5,3.2-5.2,4.7-5.2c1.4,0,4.6,0.8,4.6,5.2v2.9h3.4c3.4,0,4,2.4,4,3.5c0,1.2-0.6,3.6-4,3.6
				h-3.4v11c0,2.7,0.8,3.9,2.8,3.9c0.3,0,0.5,0,0.8,0c2.4,0,3.5,1.8,3.5,3.4c0,3-2.7,4-6.1,4c-7.7,0-10.2-4.1-10.2-10.2v-12.1h-1.2
				c-3.4,0-4-2.4-4-3.6c0-1.1,0.6-3.5,4-3.5h1.2V510.2z"/>
			<path class="st0" d="M1569.2,542.8c-8.7,0-16-6-16-15.4s7.3-15.2,16-15.2c8.7,0,16,5.8,16,15.2S1578,542.8,1569.2,542.8z
				M1569.2,520.1c-4.5,0-6.8,3.6-6.8,7.3s2.4,7.5,6.8,7.5c4.5,0,6.8-3.8,6.8-7.5S1573.7,520.1,1569.2,520.1z"/>
			<path class="st0" d="M1605.6,549.2c0-2.2,1.5-4.1,3.9-4.1c0.8,0,1.7,0.2,3.2,1.1c2.3,1.4,4.6,1.9,6.6,1.9c4.9,0,7.6-3.2,7.6-8
				v-1.7h-0.2c-1.8,2.3-4.9,3.8-8.7,3.8c-8.7,0-13.8-6.8-13.8-14.8s5-15.1,13.7-15.1c3.6,0,7.2,1.4,9.2,4.5h0.1
				c0.3-3.5,3-4.3,4.5-4.3c1.5,0,4.5,0.7,4.5,5.1v21.6c0,11.3-6.7,16.6-16.9,16.6c-3.5,0-8.2-0.8-11.3-2.8
				C1606.2,551.8,1605.6,550.4,1605.6,549.2z M1620.2,520.1c-4.3,0-6.8,3.3-6.8,7.3c0,3.8,2.5,7.3,6.8,7.3c4.3,0,7-3.4,7-7.3
				C1627.2,523.4,1624.5,520.1,1620.2,520.1z"/>
			<path class="st0" d="M1666.1,532.7c2.1,0,3.6,1.4,3.6,3.6c0,0.8-0.3,2.1-1.7,3.2c-2.5,2-6,3.4-10.6,3.4c-8.7,0-15.8-5.5-15.8-15.2
				c0-9.4,6.8-15.4,15.6-15.4c7.2,0,12.4,4.2,14,11.2c0.2,0.8,0.3,1.5,0.3,2.2c0,3.2-1.9,4.6-4.9,4.6h-15.8c0.3,3.2,3.5,5.4,6.9,5.4
				c2.2,0,3.6-0.4,5.5-1.7C1664.5,532.9,1665.2,532.7,1666.1,532.7z M1662.9,524.2c0-3-1.9-5.5-5.7-5.5c-3.6,0-6.3,2.5-6.5,5.5
				H1662.9z"/>
			<path class="st0" d="M1678.1,510.2c0-4.5,3.2-5.2,4.7-5.2c1.4,0,4.6,0.8,4.6,5.2v2.9h3.4c3.4,0,4,2.4,4,3.5c0,1.2-0.6,3.6-4,3.6
				h-3.4v11c0,2.7,0.8,3.9,2.8,3.9c0.3,0,0.5,0,0.8,0c2.4,0,3.5,1.8,3.5,3.4c0,3-2.7,4-6.1,4c-7.7,0-10.2-4.1-10.2-10.2v-12.1h-1.2
				c-3.4,0-4-2.4-4-3.6c0-1.1,0.6-3.5,4-3.5h1.2V510.2z"/>
			<path class="st0" d="M1360.4,587c0-4.4,3.1-5.1,4.6-5.1c1.4,0,4.6,0.8,4.6,4.7h0.1c1.1-2.4,3-4.9,6-4.9c2.7,0,4.2,1.8,4.2,4.2
				c0,2.1-1.2,4.3-4.9,4.5c-3.3,0.2-5.1,2.8-5.1,6.1v10.1c0,4.6-3.2,5.3-4.7,5.3c-1.6,0-4.7-0.8-4.7-5.3V587z"/>
			<path class="st0" d="M1387.9,578.5c-3.1,0-5.4-2.4-5.4-5.2c0-2.8,2.4-5.2,5.4-5.2c3,0,5.4,2.3,5.4,5.2
				C1393.3,576.3,1390.9,578.5,1387.9,578.5z M1383.1,587.2c0-4.6,3.2-5.3,4.7-5.3c1.6,0,4.7,0.8,4.7,5.3v19.3c0,4.6-3.2,5.3-4.7,5.3
				c-1.6,0-4.7-0.8-4.7-5.3V587.2z"/>
			<path class="st0" d="M1429.8,606.9c0,4.3-2.9,5-4.4,5s-4.2-0.8-4.3-4.3h-0.1c-1.9,2.9-5.6,4.6-9.4,4.6c-8.7,0-13.7-7.3-13.7-15.3
				c0-8,5.2-15.1,13.6-15.1c4.2,0,7.2,2,8.8,3.9h0.1v-13.2c0-4.6,3.2-5.3,4.7-5.3s4.7,0.8,4.7,5.3V606.9z M1413.8,589.4
				c-4.5,0-6.8,3.6-6.8,7.3c0,3.8,2.3,7.5,6.8,7.5c4.3,0,6.9-3.6,6.9-7.4C1420.7,593.2,1418.1,589.4,1413.8,589.4z"/>
			<path class="st0" d="M1466.3,612.2c-8.7,0-16-6-16-15.4c0-9.4,7.3-15.2,16-15.2c8.7,0,16,5.8,16,15.2
				C1482.3,606.2,1475,612.2,1466.3,612.2z M1466.3,589.4c-4.5,0-6.8,3.6-6.8,7.3c0,3.7,2.4,7.5,6.8,7.5c4.5,0,6.8-3.8,6.8-7.5
				C1473.2,593.1,1470.7,589.4,1466.3,589.4z"/>
			<path class="st0" d="M1487.4,589.6c-3.4,0-4-2.4-4-3.6c0-1.1,0.6-3.5,4-3.5h1.9v-2.8c0-7.5,3.2-13.2,12.1-13.2
				c2.7,0,5.3,0.9,5.3,3.9c0,2.3-1.6,3.8-4.2,3.8c-3.1,0-3.8,2.2-3.8,5v3.4h3c3.4,0,4,2.4,4,3.5c0,1.2-0.6,3.6-4,3.6h-3v16.9
				c0,4.6-3.2,5.3-4.7,5.3c-1.6,0-4.7-0.8-4.7-5.3v-16.9H1487.4z"/>
			<path class="st0" d="M1534.5,600.7h0.2l4.2-13.6c1.4-4.6,4.1-5.2,6-5.2c1.9,0,4.5,0.6,6,5.1l4.3,13.6h0.1l4.3-14.8
				c0.9-3.2,2.9-4,4.6-4c2.5,0,4.5,1.9,4.5,4.4c0,0.5-0.1,1.3-0.5,2.3l-6.7,18.4c-1.4,4-4.1,4.8-6.1,4.8c-2,0-4.9-0.8-6.2-4.8
				l-4.6-13.7h-0.1l-4.5,13.7c-1.3,4-4.2,4.8-6.2,4.8s-4.7-0.8-6.1-4.8l-6.6-18.4c-0.3-0.9-0.3-1.7-0.3-2.1c0-2.6,2-4.6,4.7-4.6
				c1.8,0,3.8,0.8,4.7,4.2L1534.5,600.7z"/>
			<path class="st0" d="M1576.3,591.1c-1.9,0-3.4-1.4-3.4-3.4c0-1.1,0.5-2.4,2.3-3.5c3-1.9,6.5-2.5,9.5-2.5c9.7,0,13.2,4.7,13.2,15.2
				v10.1c0,4.2-2.9,5-4.4,5c-1.3,0-3.8-0.6-4.3-3.6h-0.2c-1.4,2.4-4.7,3.8-8.2,3.8c-4.6,0-10.5-2.3-10.5-9c0-8.3,10.1-9.7,18.5-9.7
				v-0.5c0-2.5-2-4.2-4.9-4.2c-1.9,0-3.8,0.9-5.6,1.9C1577.7,590.9,1577,591.1,1576.3,591.1z M1589.4,598.7h-1.2
				c-4.2,0-8.8,0.5-8.8,3.9c0,2.2,2.2,2.9,4.1,2.9c3.8,0,6-2.3,6-5.9V598.7z"/>
			<path class="st0" d="M1602.7,606.4c0-2.1,1.6-3.7,3.6-3.7c0.9,0,1.8,0.3,2.9,1c1.7,1.2,3.2,1.6,4.7,1.6c1.6,0,3.4-0.6,3.4-2.5
				c0-1.8-1.8-2.3-5.7-3.2c-4-0.9-8.4-3-8.4-8.4c0-6.9,6.5-9.7,12-9.7c2.5,0,5.9,0.6,7.8,1.7c1.9,1.1,2.4,2.3,2.4,3.5
				c0,2-1.4,3.6-3.6,3.6c-0.8,0-1.5-0.3-2.4-0.8c-1.3-0.8-2.4-1.1-3.9-1.1c-1.8,0-3.6,0.6-3.6,2.3c0,1.6,1.6,2,5.3,2.8
				c4.4,1,9.2,3.2,9.2,8.8c0,7.3-6.4,9.8-12.3,9.8c-3.3,0-7.1-0.8-9.3-2.3C1603.2,608.9,1602.7,607.6,1602.7,606.4z"/>
			<path class="st0" d="M1633.4,579.5c0-4.5,3.2-5.2,4.7-5.2c1.4,0,4.6,0.8,4.6,5.2v2.9h3.4c3.4,0,4,2.4,4,3.5c0,1.2-0.6,3.6-4,3.6
				h-3.4v11c0,2.7,0.8,3.9,2.8,3.9c0.3,0,0.5,0,0.8,0c2.4,0,3.5,1.8,3.5,3.4c0,3-2.7,4-6.1,4c-7.7,0-10.2-4.1-10.2-10.2v-12.1h-1.2
				c-3.4,0-4-2.4-4-3.6c0-1.1,0.6-3.5,4-3.5h1.2V579.5z"/>
			<path class="st0" d="M1676.4,602c2.1,0,3.6,1.4,3.6,3.6c0,0.8-0.3,2.1-1.7,3.2c-2.5,2-6,3.4-10.6,3.4c-8.7,0-15.8-5.5-15.8-15.2
				c0-9.4,6.8-15.4,15.6-15.4c7.2,0,12.4,4.2,14,11.2c0.2,0.8,0.3,1.5,0.3,2.2c0,3.2-1.9,4.6-4.9,4.6h-15.8c0.3,3.2,3.5,5.4,6.9,5.4
				c2.2,0,3.6-0.4,5.5-1.7C1674.9,602.3,1675.5,602,1676.4,602z M1673.3,593.6c0-3-1.9-5.5-5.7-5.5c-3.6,0-6.3,2.5-6.5,5.5H1673.3z"
				/>
		</g>
	</g>
	<path class="st6 plant-protein" d="M201.8,712.3c-0.4-9.6-7.2-17.3-16.1-19.3c-2.2-0.5-3.7-2.8-3.2-5c0.7-3,0.7-6.2-0.1-9.5
		c-2-8.3-9.2-14.7-17.7-15.6c-7-0.8-13.3,1.9-17.5,6.5c-1.6,1.7-4.3,1.8-6,0.2c-4.6-4.2-11.1-6.4-18-5.1c-8.4,1.6-15.1,8.5-16.4,17
		c-0.5,3.4-0.2,6.6,0.7,9.5c0.7,2.1-0.6,4.5-2.8,5.2c-8.7,2.7-14.9,11-14.5,20.5c0.4,9.6,7.2,17.3,16.1,19.3c2.2,0.5,3.7,2.8,3.2,5
		c-0.7,3-0.7,6.2,0.1,9.5c1.9,8.3,9.2,14.7,17.7,15.6c7,0.8,13.3-1.9,17.6-6.5c1.6-1.7,4.3-1.8,6-0.2c4.6,4.2,11.1,6.4,18,5.1
		c8.4-1.6,15.1-8.5,16.4-17c0.5-3.4,0.2-6.6-0.7-9.5c-0.7-2.2,0.6-4.5,2.8-5.2C196,730.1,202.2,721.8,201.8,712.3z M143.7,730.5
		c-2.6-2.4-5.9-4.2-9.4-5c-2.3-0.5-3.6-2.9-3.2-5.2c0.4-1.7,0.5-3.4,0.4-5.2c-0.1-1.8-0.4-3.5-0.9-5.1c-0.7-2.3,0.5-4.8,2.7-5.5
		c3.5-1.1,6.6-3.1,9-5.7c1.5-1.7,4.2-1.8,5.9-0.2c2.6,2.4,5.9,4.2,9.4,5c2.3,0.5,3.6,2.9,3.2,5.2c-0.4,1.7-0.5,3.4-0.4,5.2
		c0.1,1.8,0.4,3.5,0.9,5.1c0.7,2.3-0.5,4.8-2.7,5.5c-3.5,1.1-6.6,3.1-9,5.7C148.1,731.9,145.4,732,143.7,730.5z"/>
	<path class="st7 plant-protein" d="M238,309.8c-2.1,1.7-3,1.6-4.6-0.6c-7.3-9.4-20.8-11.1-30.1-3.8c-9.4,7.3-11.1,20.8-3.8,30.1
		c1.6,2,1.5,3-0.6,4.6c-9.4,7.3-11.1,20.8-3.8,30.1c7.3,9.4,20.8,11.1,30.1,3.8c1.8-1.4,3.2-1.2,4.6,0.6c7.3,9.4,20.8,11.1,30.1,3.8
		c9.4-7.3,11.1-20.8,3.8-30.1c-1.6-2-1.4-3.1,0.6-4.6c9.4-7.3,11.1-20.8,3.8-30.1C260.8,304.2,247.3,302.5,238,309.8z M230.7,349.8
		c-0.2,0-0.4-0.1-0.5-0.1c-1.6-0.6-1.9-3.1-2.8-4.4c-1-1.3-4.1-2.1-4-4c0.1-2.3,3.5-2.5,5-3.6c1.3-1,2-3.7,3.9-3.7
		c2.4,0,2.5,3.2,3.7,4.6c1.1,1.4,5,2.8,3.2,5.1c-1,1.3-2.9,1.5-4.2,2.5C233.6,347.3,232.7,350.1,230.7,349.8z"/>
	<path class="st8 plant-protein" d="M1769.8,590.8c0.5,2-2.2,2.9-2.7,8.3c-0.4,4.5,1.7,5.3-0.2,8.5c-2.1,3.5-5.8,3.3-9,5.2c-5.2,3-8.9,8.2-10.2,14
		c-1.4,6.6,0.5,13.6,5,18.6c2.3,2.5,5,4.3,8.1,5.6c3.7,1.6,3.3,3.3,3.7,7c0.2,2.2,1,4.4,2.1,6.3c2.2,3.8,6.1,6.6,10.4,7.5
		c8.6,1.8,16.9-3.7,18.7-12.3c0.8-3.6,0.2-7.5-1.6-10.7c-1.2-2.2-3.4-3.4-4.7-5.5c-1.9-3,1.5-5.4,1.9-9.6c0.6-5.5-2.7-7.9,0.8-10.8
		c2.7-2.2,6.7-2.3,9.6-4.3c4.4-3.1,7.6-7.8,8.7-13.1c1.2-5.7,0-11.7-3.3-16.5c-1.7-2.4-3.8-4.5-6.4-6.1c-2.3-1.4-5.2-2-6.5-4.7
		c-1-2.2-0.5-5-1.3-7.4c-1.8-5.3-6.3-9.3-11.8-10.5c-8.6-1.8-16.9,3.7-18.7,12.3c-0.7,3.6-0.2,7.4,1.5,10.6c1.2,2.2,3.6,3.5,5,5.6
		C1769.4,589.7,1769.7,590.2,1769.8,590.8z"/>
	<path class="st8 plant-protein" d="M1500.4,821c1.8-1.1,3.5,1.2,8.7,0c4.5-1,4.5-3.3,8.2-2.5c4,0.9,5,4.4,7.8,6.9c4.5,4,10.5,5.9,16.5,5.2
		c6.7-0.8,12.7-4.8,16.1-10.6c1.7-3,2.5-6.1,2.8-9.5c0.4-4,2.1-4.1,5.5-5.7c2-0.9,3.9-2.3,5.3-4c2.9-3.3,4.3-7.8,3.8-12.2
		c-1-8.7-8.8-14.9-17.5-13.9c-3.7,0.4-7.1,2.2-9.7,4.9c-1.7,1.8-2.2,4.3-3.7,6.2c-2.2,2.7-5.5,0.3-9.7,1.2c-5.4,1.2-6.6,5-10.5,2.6
		c-3-1.9-4.3-5.6-7.1-7.7c-4.3-3.2-9.8-4.7-15.1-4.1c-5.8,0.7-11.1,3.7-14.6,8.3c-1.8,2.4-3.1,5.1-3.8,7.9c-0.6,2.7-0.2,5.6-2.4,7.7
		c-1.8,1.7-4.5,2.1-6.6,3.6c-4.5,3.3-6.9,8.9-6.2,14.5c1,8.7,8.8,14.9,17.5,13.9c3.6-0.4,7.1-2.1,9.6-4.8c1.7-1.8,2.2-4.6,3.7-6.5
		C1499.5,821.7,1500,821.3,1500.4,821z"/>
	<path class="st9 plant-protein" d="M447,303.7c2.2-1.4,5.4-1,7.9-1.8c7.4-2.4,12.8-9.1,13.5-16.8c0.4-3.8-1.5-7.4-1.1-11c0.5-3.9,3.3-6.7,4.5-10.3
		c1.4-4.6,1.4-9.5-0.1-14.1c-1.8-5.5-5.6-10.3-10.7-13.1c-2.2-1.3-5.3-1.7-7.2-3.5c-1.9-1.9-2-4.8-3.3-7c-1.5-2.7-3.6-5-6.2-6.7
		c-4.9-3.3-11.2-4.2-16.9-2.4c-2.4,0.8-4.6,3.1-7,3.2c-2,0.1-3.9-1.4-5.8-2c-3.1-1.1-6.5-1.1-9.6-0.1c-8.1,2.6-12.5,11.3-9.9,19.4
		c1.5,4.6,5.1,8.3,9.6,9.8c2.3,0.8,4.7,1,7,0.7c2.5-0.3,4.7-1.1,7.2-0.1c4.9,1.9,4.3,6.6,4.6,11c0.3,4,1.8,8,4.3,11.2
		c0.8,1,1.7,2,2.3,3.1c1.6,2.7,1.2,5.7-0.5,8.2c-2.4,3.6-7.2,4.7-10,8c-3.6,4-4.7,9.8-3.1,14.9c2.6,8.1,11.3,12.5,19.4,9.9
		c2.9-0.9,5.4-2.7,7.3-5c1.3-1.6,1.9-4,3.6-5.2C446.9,303.8,447,303.8,447,303.7z"/>
	<path class="st6 plant-protein" d="M1633.7,313c-9.5-0.5-17.9,5.5-20.8,14.2c-0.7,2.1-3.1,3.4-5.2,2.7c-2.9-1-6.1-1.3-9.5-0.9
		c-8.5,1.1-15.5,7.7-17.2,16.1c-1.4,6.9,0.6,13.4,4.8,18.1c1.6,1.7,1.4,4.4-0.3,6c-4.7,4.2-7.5,10.4-6.8,17.4
		c0.8,8.5,7,15.9,15.3,17.9c3.3,0.8,6.5,0.9,9.5,0.2c2.2-0.5,4.5,1,4.9,3.2c1.8,8.9,9.5,15.9,19,16.4c9.5,0.5,17.9-5.5,20.8-14.2
		c0.7-2.1,3.1-3.4,5.2-2.7c2.9,1,6.1,1.3,9.5,0.9c8.5-1.1,15.5-7.7,17.2-16.1c1.4-6.9-0.6-13.4-4.8-18.1c-1.6-1.7-1.4-4.4,0.3-6
		c4.7-4.2,7.5-10.4,6.8-17.4c-0.8-8.5-7-15.9-15.3-17.9c-3.3-0.8-6.5-0.9-9.5-0.2c-2.2,0.5-4.5-1-4.9-3.3
		C1650.9,320.4,1643.3,313.5,1633.7,313z M1646.2,372.5c-2.7,2.4-4.7,5.4-5.9,8.9c-0.7,2.2-3.3,3.4-5.5,2.6c-1.6-0.5-3.3-0.8-5.1-0.9
		c-1.8-0.1-3.5,0-5.2,0.4c-2.3,0.5-4.7-0.9-5.2-3.2c-0.8-3.6-2.4-6.9-4.8-9.5c-1.5-1.7-1.4-4.4,0.3-5.9c2.7-2.4,4.7-5.4,5.9-8.9
		c0.7-2.2,3.3-3.4,5.5-2.6c1.6,0.5,3.3,0.8,5.1,0.9c1.8,0.1,3.5,0,5.2-0.4c2.3-0.5,4.7,0.9,5.2,3.2c0.8,3.6,2.4,6.9,4.8,9.5
		C1648.1,368.3,1647.9,371,1646.2,372.5z"/>
	<path class="st7 plant-protein" d="M1430.6,225.1c1.4,2.3,1.3,3.1-1,4.6c-10,6.3-13,19.6-6.7,29.6c6.3,10,19.6,13,29.6,6.7c2.1-1.4,3.2-1.2,4.6,1
		c6.3,10,19.6,13,29.6,6.7c10-6.3,13-19.6,6.7-29.6c-1.2-1.9-0.9-3.3,1-4.6c10-6.3,13-19.6,6.7-29.6c-6.3-10-19.6-13-29.6-6.7
		c-2.2,1.4-3.3,1-4.6-1c-6.3-10-19.6-13-29.6-6.7C1427.3,201.8,1424.3,215,1430.6,225.1z M1469.7,236.1c0,0.2-0.1,0.3-0.2,0.5
		c-0.8,1.6-3.3,1.6-4.6,2.4c-1.4,0.9-2.5,3.9-4.3,3.6c-2.3-0.3-2.1-3.8-3.1-5.3c-0.9-1.4-3.5-2.3-3.3-4.3c0.2-2.4,3.4-2.2,5-3.2
		c1.5-1,3.3-4.7,5.4-2.7c1.2,1.1,1.2,3.1,2.1,4.4C1467.5,233,1470.2,234.2,1469.7,236.1z"/>
	<path class="st8 plant-protein" d="M1045.9,468.3c-2-0.6-1.5-3.3-5.8-6.4c-3.7-2.6-5.5-1.1-7.3-4.4c-2-3.5-0.1-6.7-0.1-10.4c0-6-2.7-11.8-7.2-15.8
		c-5.1-4.5-12.1-6.3-18.7-4.9c-3.3,0.7-6.2,2.3-8.9,4.3c-3.3,2.4-4.5,1.2-7.9-0.3c-2-0.9-4.3-1.3-6.5-1.3c-4.4,0.1-8.7,2-11.7,5.4
		c-5.8,6.6-5.2,16.6,1.4,22.3c2.8,2.5,6.4,3.9,10.1,3.9c2.5,0,4.7-1.3,7.1-1.4c3.5-0.2,3.9,3.9,7.4,6.4c4.5,3.2,8.2,1.6,8.9,6
		c0.6,3.5-1.3,7-1,10.5c0.5,5.4,3,10.4,7.1,14c4.4,3.8,10.2,5.8,16,5.3c2.9-0.3,5.8-1.1,8.4-2.5c2.4-1.3,4.3-3.6,7.3-3.3
		c2.4,0.2,4.6,2,7.1,2.5c5.5,1.1,11.2-0.9,14.9-5.1c5.8-6.6,5.2-16.6-1.4-22.3c-2.7-2.4-6.3-3.8-10-3.9c-2.5-0.1-4.9,1.4-7.4,1.6
		C1047,468.5,1046.4,468.4,1045.9,468.3z"/>
	<path class="st9 plant-protein" d="M337.2,811.4c-1.2-2.3-0.5-5.5-1.1-8c-1.7-7.6-7.8-13.6-15.4-15.1c-3.7-0.7-7.5,0.8-11.1,0
		c-3.8-0.9-6.4-4-9.9-5.4c-4.4-1.8-9.3-2.3-14-1.3c-5.7,1.2-10.7,4.6-14.1,9.3c-1.5,2.1-2.2,5.1-4.1,6.8c-2,1.7-4.9,1.5-7.3,2.6
		c-2.8,1.2-5.3,3.1-7.2,5.5c-3.8,4.6-5.3,10.8-4,16.6c0.5,2.4,2.6,4.9,2.5,7.3c-0.1,2-1.7,3.8-2.5,5.6c-1.4,3-1.7,6.4-1,9.6
		c1.8,8.3,10,13.6,18.3,11.8c4.7-1,8.7-4.3,10.7-8.6c1-2.2,1.5-4.5,1.4-6.9c-0.1-2.5-0.6-4.8,0.6-7.2c2.4-4.7,6.9-3.6,11.4-3.6
		c4.1,0.1,8.1-1.1,11.6-3.2c1.1-0.7,2.2-1.5,3.3-2c2.8-1.3,5.7-0.6,8.1,1.3c3.4,2.8,4,7.6,7,10.8c3.7,3.9,9.3,5.7,14.5,4.5
		c8.3-1.8,13.6-10,11.8-18.3c-0.6-2.9-2.1-5.6-4.3-7.7c-1.5-1.4-3.8-2.2-4.9-4.1C337.3,811.5,337.3,811.5,337.2,811.4z"/>
	<g id="plant-title">
		<path class="st7" d="M570.1,200.1c-0.4-13.5,8.7-15.9,13.4-16.1c4.4-0.1,12.7,1.6,14.3,12.2l0.5,0c5.1-7.3,14.9-13.8,27.8-14.2
			c25.8-0.8,42.6,20.3,43.4,45c0.8,24.7-14,47.6-40.6,48.4c-10.8,0.3-21.5-3.9-27.2-11.4l-0.4,0l1.2,37.8c0.4,14-9.3,16.7-14,16.8
			c-4.8,0.2-14.6-1.8-15.1-15.9L570.1,200.1z M619.7,205.9c-13.1,0.4-21,12.2-20.6,23.4c0.4,11.5,8.9,22.5,22,22.1
			c13.9-0.4,20.4-12,20.1-23.6C640.9,216.5,633.6,205.5,619.7,205.9z"/>
		<path class="st7" d="M682.2,150.9c-0.5-14.2,9.4-16.9,14.2-17c4.8-0.2,14.8,1.8,15.3,16l3.6,104.8c0.5,14.2-9.4,16.9-14.2,17
			c-4.8,0.2-14.8-1.8-15.3-16L682.2,150.9z"/>
		<path class="st7" d="M747.4,196.8c-5.7-0.1-10.2-4.6-10.1-10.7c0.1-3.4,1.6-7.4,7.1-10.7c9.4-5.5,20.1-7.4,29.5-7.3
			c29.7,0.6,40.4,15.4,39.8,47.5l-0.6,31.1c-0.3,13-9.4,15.1-13.8,15c-3.9-0.1-11.5-2-12.9-11.5l-0.5,0c-4.6,7.2-14.8,11.3-25.3,11.1
			c-14-0.3-32-7.6-31.6-28.3c0.5-25.6,31.7-29.3,57.5-28.8l0-1.4c0.2-7.8-5.8-12.9-14.9-13.1c-5.7-0.1-11.6,2.6-17.4,5.4
			C751.6,196.4,749.3,196.9,747.4,196.8z M786.9,221.2l-3.7-0.1c-12.8-0.2-27.2,1.1-27.4,11.6c-0.1,6.8,6.6,9.2,12.4,9.3
			c11.7,0.2,18.4-6.8,18.7-17.8L786.9,221.2z"/>
		<path class="st7" d="M828.1,175.3c-0.2-13.5,9.2-15.8,13.8-15.8c4.6-0.1,13.7,2,14.4,13.9l0.4,0c4-7.9,14-14.9,26.3-15.1
			c23.8-0.3,32.6,18.1,32.8,35.8l0.5,40.2c0.2,14-9.6,16.5-14.5,16.5c-4.8,0.1-14.6-2.1-14.8-16.2l-0.4-33.8
			c-0.1-9.8-2.9-18.6-13.4-18.5c-10.3,0.1-15.5,9.1-15.4,19.2l0.4,33.4c0.2,14-9.6,16.5-14.5,16.5c-4.8,0.1-14.6-2.1-14.8-16.2
			L828.1,175.3z"/>
		<path class="st7" d="M941.9,165.9c0.3-13.7,10.1-15.8,14.7-15.7c4.4,0.1,14.2,2.6,13.9,16.3l-0.2,9.1l10.3,0.2
			c10.3,0.2,12.1,7.7,12,11.1c-0.1,3.6-2.2,11-12.5,10.8l-10.3-0.2l-0.7,33.8c-0.2,8.2,2.1,12.1,8.5,12.3c0.9,0,1.4,0,2.3,0
			c7.3,0.2,10.7,5.7,10.6,10.7c-0.2,9.2-8.6,12.3-19.1,12c-23.6-0.5-31.2-13.3-30.8-32.1l0.8-37.3l-3.7-0.1
			c-10.3-0.2-12.1-7.7-12-11.3c0.1-3.4,2.2-10.8,12.5-10.6l3.6,0.1L941.9,165.9z"/>
		<path class="st7" d="M1046.2,214.4c0-28.8,21.9-47.1,49.4-47.1c7.1,0,14.4,1.4,19.6,3.9c6.8,3.2,8.5,8,8.5,11.7
			c0,6.8-4.1,12.6-11.9,12.6c-2.1,0-4.6-0.5-7.8-2.1c-2.5-1.2-5-1.8-7.8-1.8c-12.3,0-20.4,10.5-20.4,22.8c0,12.3,8,22.6,20.8,22.6
			c2.8,0,5.3-0.4,7.8-1.6c3.2-1.6,5.7-2.1,7.8-2.1c7.8,0,11.9,5.9,11.9,12.6c0,3.7-2.1,8.5-8.5,11.7c-5.3,2.7-12.6,3.9-19.7,3.9
			C1067.9,261.5,1046.2,243.7,1046.2,214.4z"/>
		<path class="st7" d="M1206.9,233.3c6.4,0,11.2,4.4,11.2,11c0,2.5-0.9,6.6-5.2,10c-7.6,6.2-18.3,10.3-32.5,10.3
			c-26.7,0-48.7-16.9-48.7-46.8c0-29,21-47.5,47.8-47.5c22.2,0,38.2,13,43,34.3c0.5,2.5,0.9,4.6,0.9,6.8c0,10-5.9,14-15.1,14h-48.7
			c0.9,9.8,10.7,16.7,21.2,16.7c6.8,0,11.2-1.2,16.9-5.2C1202.1,234,1204.1,233.3,1206.9,233.3z M1197.1,207.3
			c0-9.2-5.9-16.9-17.4-16.9c-11.2,0-19.4,7.8-20.1,16.9H1197.1z"/>
		<path class="st7" d="M1236.7,157.6c-0.3-14.2,9.6-16.8,14.4-16.9c4.8-0.1,14.8,2,15.1,16.2l2.4,104.9c0.3,14.2-9.6,16.8-14.4,16.9
			c-4.8,0.1-14.8-2-15.1-16.2L1236.7,157.6z"/>
		<path class="st7" d="M1288.5,165.8c0.2-14.2,10.2-16.4,15-16.4c4.8,0.1,14.7,2.5,14.6,16.7l-1.3,104.9c-0.2,14.2-10.2,16.4-15,16.4
			c-4.8-0.1-14.7-2.5-14.6-16.7L1288.5,165.8z"/>
	</g>
	<g id="plant-subtitle">
		<path class="st10" d="M498.4,363c0-2.1,1.6-3.9,3.8-3.9c0.8,0,1.7,0.3,2.8,1.1c1.3,0.9,3.6,1.9,5.7,1.9c2,0,4.1-1.1,4.1-3.7
			s-2.6-3.4-7.1-4.9c-4.3-1.4-8.7-3.6-8.7-9.8c0-7.6,6.9-10.7,13.2-10.7c2.6,0,5.7,0.7,7.8,2c1.7,1.1,2.2,2.2,2.2,3.4
			c0,1.9-1.4,3.6-3.5,3.6c-0.7,0-1.2-0.1-2.4-0.8c-1.9-1-3.3-1.4-4.5-1.4c-2.4,0-4.5,1-4.5,3.4c0,2.3,2,3,5.3,4
			c4.6,1.5,10.6,3.5,10.6,10.3c0,7.9-6.3,11.4-13.1,11.4c-3.4,0-7.7-1.1-9.8-2.8C498.7,365,498.4,363.9,498.4,363z"/>
		<path class="st10" d="M546.9,360.4c1.7,0,3,1.2,3,3c0,0.7-0.2,1.8-1.4,2.7c-2.1,1.7-5,2.8-8.8,2.8c-7.2,0-13.2-4.6-13.2-12.7
			c0-7.9,5.7-12.9,13-12.9c6,0,10.4,3.5,11.7,9.3c0.1,0.7,0.2,1.3,0.2,1.8c0,2.7-1.6,3.8-4.1,3.8h-13.2c0.2,2.7,2.9,4.5,5.7,4.5
			c1.8,0,3-0.3,4.6-1.4C545.6,360.6,546.1,360.4,546.9,360.4z M544.2,353.3c0-2.5-1.6-4.6-4.7-4.6c-3,0-5.3,2.1-5.5,4.6H544.2z"/>
		<path class="st10" d="M555.9,335.6c0-3.9,2.7-4.5,4-4.5s4,0.6,4,4.5v28.5c0,3.9-2.7,4.5-4,4.5s-4-0.6-4-4.5V335.6z"/>
		<path class="st10" d="M588.9,360.4c1.7,0,3,1.2,3,3c0,0.7-0.2,1.8-1.4,2.7c-2.1,1.7-5,2.8-8.8,2.8c-7.2,0-13.2-4.6-13.2-12.7
			c0-7.9,5.7-12.9,13-12.9c6,0,10.4,3.5,11.7,9.3c0.1,0.7,0.2,1.3,0.2,1.8c0,2.7-1.6,3.8-4.1,3.8h-13.2c0.2,2.7,2.9,4.5,5.7,4.5
			c1.8,0,3-0.3,4.6-1.4C587.6,360.6,588.1,360.4,588.9,360.4z M586.2,353.3c0-2.5-1.6-4.6-4.7-4.6c-3,0-5.3,2.1-5.5,4.6H586.2z"/>
		<path class="st10" d="M596.7,356.1c0-7.8,5.9-12.8,13.4-12.8c1.9,0,3.9,0.4,5.3,1.1c1.8,0.9,2.3,2.2,2.3,3.2c0,1.8-1.1,3.4-3.2,3.4
			c-0.6,0-1.3-0.1-2.1-0.6c-0.7-0.3-1.4-0.5-2.1-0.5c-3.3,0-5.5,2.8-5.5,6.2c0,3.3,2.2,6.1,5.6,6.1c0.8,0,1.4-0.1,2.1-0.4
			c0.9-0.4,1.5-0.6,2.1-0.6c2.1,0,3.2,1.6,3.2,3.4c0,1-0.6,2.3-2.3,3.2c-1.4,0.7-3.4,1.1-5.4,1.1C602.6,368.9,596.7,364,596.7,356.1z
			"/>
		<path class="st10" d="M624,341.6c0-3.7,2.7-4.3,3.9-4.3s3.9,0.6,3.9,4.3v2.5h2.8c2.8,0,3.3,2,3.3,2.9c0,1-0.5,3-3.3,3h-2.8v9.2
			c0,2.2,0.6,3.3,2.4,3.3c0.2,0,0.4,0,0.6,0c2,0,2.9,1.5,2.9,2.8c0,2.5-2.3,3.4-5.1,3.4c-6.4,0-8.5-3.4-8.5-8.5v-10.1h-1
			c-2.8,0-3.3-2-3.3-3c0-0.9,0.5-2.9,3.3-2.9h1v-2.6H624z"/>
		<path class="st10" d="M656.5,351.2c-1.5,0-2.8-1.2-2.8-2.8c0-0.9,0.4-2,1.9-2.9c2.5-1.5,5.4-2.1,8-2.1c8.1,0,11.1,4,11.1,12.7v8.4
			c0,3.5-2.5,4.1-3.7,4.1c-1.1,0-3.1-0.5-3.6-3h-0.1c-1.2,2-4,3.1-6.8,3.1c-3.8,0-8.7-1.9-8.7-7.5c0-6.9,8.4-8.1,15.4-8.1v-0.4
			c0-2.1-1.6-3.5-4.1-3.5c-1.5,0-3.1,0.8-4.7,1.5C657.7,351,657,351.2,656.5,351.2z M667.4,357.6h-1c-3.5,0-7.4,0.4-7.4,3.3
			c0,1.8,1.8,2.5,3.4,2.5c3.2,0,5-1.9,5-4.9V357.6z"/>
		<path class="st10" d="M692.6,347.8c0-3.7,2.5-4.2,3.8-4.2c1.2,0,3.4,0.5,3.8,3.4h0.1c1.4-1.9,4.2-3.6,7.7-3.6
			c7,0,11.4,5.9,11.4,12.6s-4.2,12.8-11.4,12.8c-2.9,0-5.8-1.3-7.3-3.3h-0.1v10.3c0,3.8-2.7,4.4-4,4.4s-4-0.6-4-4.4V347.8z
			M706,349.8c-3.6,0-5.8,3.1-5.8,6.2s2.2,6.2,5.8,6.2c3.8,0,5.6-3.1,5.6-6.2S709.7,349.8,706,349.8z"/>
		<path class="st10" d="M723.9,347.8c0-3.7,2.6-4.2,3.8-4.2s3.8,0.6,3.8,4h0.1c0.9-2,2.5-4.1,5-4.1c2.2,0,3.5,1.5,3.5,3.5
			c0,1.8-1,3.6-4.1,3.8c-2.8,0.2-4.3,2.3-4.3,5.1v8.4c0,3.8-2.7,4.4-4,4.4s-4-0.6-4-4.4v-16.5H723.9z"/>
		<path class="st10" d="M754.6,368.9c-7.2,0-13.3-5-13.3-12.9s6.1-12.7,13.3-12.7c7.3,0,13.4,4.8,13.4,12.7
			C768,363.8,761.9,368.9,754.6,368.9z M754.6,349.8c-3.7,0-5.6,3-5.6,6.1s2,6.2,5.7,6.2s5.7-3.1,5.7-6.2
			C760.4,352.9,758.4,349.8,754.6,349.8z"/>
		<path class="st10" d="M771.3,356.1c0-7.8,5.9-12.8,13.4-12.8c1.9,0,3.9,0.4,5.3,1.1c1.8,0.9,2.3,2.2,2.3,3.2c0,1.8-1.1,3.4-3.2,3.4
			c-0.6,0-1.3-0.1-2.1-0.6c-0.7-0.3-1.4-0.5-2.1-0.5c-3.3,0-5.5,2.8-5.5,6.2c0,3.3,2.2,6.1,5.6,6.1c0.8,0,1.4-0.1,2.1-0.4
			c0.9-0.4,1.5-0.6,2.1-0.6c2.1,0,3.2,1.6,3.2,3.4c0,1-0.6,2.3-2.3,3.2c-1.4,0.7-3.4,1.1-5.4,1.1C777.2,368.9,771.3,364,771.3,356.1z
			"/>
		<path class="st10" d="M815.3,360.4c1.7,0,3,1.2,3,3c0,0.7-0.2,1.8-1.4,2.7c-2.1,1.7-5,2.8-8.8,2.8c-7.2,0-13.2-4.6-13.2-12.7
			c0-7.9,5.7-12.9,13-12.9c6,0,10.4,3.5,11.7,9.3c0.1,0.7,0.2,1.3,0.2,1.8c0,2.7-1.6,3.8-4.1,3.8h-13.2c0.2,2.7,2.9,4.5,5.7,4.5
			c1.8,0,3-0.3,4.6-1.4C814,360.6,814.5,360.4,815.3,360.4z M812.7,353.3c0-2.5-1.6-4.6-4.7-4.6c-3,0-5.3,2.1-5.5,4.6H812.7z"/>
		<path class="st10" d="M822.8,364c0-1.7,1.3-3.1,3-3.1c0.8,0,1.5,0.2,2.4,0.9c1.4,1,2.7,1.4,4,1.4s2.8-0.5,2.8-2.1
			c0-1.5-1.5-1.9-4.8-2.7c-3.3-0.8-7-2.5-7-7c0-5.7,5.4-8.1,10-8.1c2.1,0,4.9,0.5,6.5,1.4s2,1.9,2,2.9c0,1.7-1.2,3-3,3
			c-0.6,0-1.3-0.2-2-0.7c-1.1-0.6-2-0.9-3.2-0.9c-1.5,0-3,0.5-3,1.9s1.3,1.7,4.4,2.4c3.7,0.8,7.7,2.7,7.7,7.4c0,6.1-5.4,8.2-10.3,8.2
			c-2.8,0-5.9-0.7-7.7-1.9C823.2,366.1,822.8,365,822.8,364z"/>
		<path class="st10" d="M845.5,364c0-1.7,1.3-3.1,3-3.1c0.8,0,1.5,0.2,2.4,0.9c1.4,1,2.7,1.4,4,1.4s2.8-0.5,2.8-2.1
			c0-1.5-1.5-1.9-4.8-2.7c-3.3-0.8-7-2.5-7-7c0-5.7,5.4-8.1,10-8.1c2.1,0,4.9,0.5,6.5,1.4s2,1.9,2,2.9c0,1.7-1.2,3-3,3
			c-0.6,0-1.3-0.2-2-0.7c-1.1-0.6-2-0.9-3.2-0.9c-1.5,0-3,0.5-3,1.9s1.3,1.7,4.4,2.4c3.7,0.8,7.7,2.7,7.7,7.4c0,6.1-5.4,8.2-10.3,8.2
			c-2.8,0-5.9-0.7-7.7-1.9C845.9,366.1,845.5,365,845.5,364z"/>
		<path class="st10" d="M882.8,341.6c0-3.7,2.7-4.3,3.9-4.3s3.9,0.6,3.9,4.3v2.5h2.8c2.8,0,3.3,2,3.3,2.9c0,1-0.5,3-3.3,3h-2.8v9.2
			c0,2.2,0.6,3.3,2.4,3.3c0.2,0,0.4,0,0.6,0c2,0,2.9,1.5,2.9,2.8c0,2.5-2.3,3.4-5.1,3.4c-6.4,0-8.5-3.4-8.5-8.5v-10.1h-1
			c-2.8,0-3.3-2-3.3-3c0-0.9,0.5-2.9,3.3-2.9h1v-2.6H882.8z"/>
		<path class="st10" d="M911.6,368.9c-7.2,0-13.3-5-13.3-12.9s6.1-12.7,13.3-12.7c7.3,0,13.4,4.8,13.4,12.7
			C925,363.8,918.9,368.9,911.6,368.9z M911.6,349.8c-3.7,0-5.6,3-5.6,6.1s2,6.2,5.7,6.2s5.7-3.1,5.7-6.2
			C917.3,352.9,915.3,349.8,911.6,349.8z"/>
		<path class="st10" d="M942.1,335.6c0-3.9,2.7-4.5,4-4.5s4,0.6,4,4.5v28.5c0,3.9-2.7,4.5-4,4.5s-4-0.6-4-4.5V335.6z"/>
		<path class="st10" d="M975.1,360.4c1.7,0,3,1.2,3,3c0,0.7-0.2,1.8-1.4,2.7c-2.1,1.7-5,2.8-8.8,2.8c-7.2,0-13.2-4.6-13.2-12.7
			c0-7.9,5.7-12.9,13-12.9c6,0,10.4,3.5,11.7,9.3c0.1,0.7,0.2,1.3,0.2,1.8c0,2.7-1.6,3.8-4.1,3.8h-13.2c0.2,2.7,2.9,4.5,5.7,4.5
			c1.8,0,3-0.3,4.6-1.4C973.8,360.6,974.3,360.4,975.1,360.4z M972.5,353.3c0-2.5-1.6-4.6-4.7-4.6c-3,0-5.3,2.1-5.5,4.6H972.5z"/>
		<path class="st10" d="M987.2,351.2c-1.5,0-2.8-1.2-2.8-2.8c0-0.9,0.4-2,1.9-2.9c2.5-1.5,5.4-2.1,8-2.1c8.1,0,11.1,4,11.1,12.7v8.4
			c0,3.5-2.5,4.1-3.7,4.1c-1.1,0-3.1-0.5-3.6-3H998c-1.2,2-4,3.1-6.8,3.1c-3.8,0-8.7-1.9-8.7-7.5c0-6.9,8.4-8.1,15.4-8.1v-0.4
			c0-2.1-1.6-3.5-4.1-3.5c-1.5,0-3.1,0.8-4.7,1.5C988.4,351,987.7,351.2,987.2,351.2z M998.1,357.6h-1c-3.5,0-7.4,0.4-7.4,3.3
			c0,1.8,1.8,2.5,3.4,2.5c3.2,0,5-1.9,5-4.9V357.6z"/>
		<path class="st10" d="M1010.9,347.8c0-3.7,2.6-4.2,3.8-4.2c1.2,0,3.8,0.6,3.8,4h0.1c0.9-2,2.5-4.1,5-4.1c2.2,0,3.5,1.5,3.5,3.5
			c0,1.8-1,3.6-4.1,3.8c-2.8,0.2-4.3,2.3-4.3,5.1v8.4c0,3.8-2.7,4.4-4,4.4s-4-0.6-4-4.4v-16.5H1010.9z"/>
		<path class="st10" d="M1029.9,347.8c0-3.7,2.6-4.2,3.8-4.2c1.3,0,3.7,0.6,3.9,3.8h0.1c1.1-2.1,3.9-4,7.2-4c6.5,0,8.8,5,8.8,9.8
			v10.9c0,3.8-2.7,4.4-4,4.4s-4-0.6-4-4.4v-9.2c0-2.7-0.7-5.1-3.6-5.1c-2.8,0-4.2,2.4-4.2,5.2v9.1c0,3.8-2.7,4.4-4,4.4s-4-0.6-4-4.4
			L1029.9,347.8L1029.9,347.8z"/>
		<path class="st10" d="M1079.5,347.4c1.1-2,3.6-4,7.2-4c3.5,0,5.9,1.5,7.2,4.1c1.6-2.5,4.1-4.1,7.7-4.1c6.5,0,8.7,5.3,8.7,9.8v10.9
			c0,3.8-2.7,4.4-4,4.4s-4-0.6-4-4.4v-9.2c0-2.8-0.6-5.1-3.4-5.1c-2.7,0-4,2.5-4,5.2v9c0,3.8-2.7,4.4-4,4.4s-4-0.6-4-4.4v-9.7
			c0-2.8-1.1-4.5-3.4-4.5c-2.5,0-4,2.3-4,5.2v9.1c0,3.8-2.7,4.4-4,4.4s-4-0.6-4-4.4v-16.3c0-3.7,2.6-4.2,3.8-4.2
			C1076.8,343.6,1079.2,344.1,1079.5,347.4L1079.5,347.4z"/>
		<path class="st10" d="M1128,368.9c-7.2,0-13.3-5-13.3-12.9s6.1-12.7,13.3-12.7c7.3,0,13.4,4.8,13.4,12.7
			C1141.4,363.8,1135.3,368.9,1128,368.9z M1128,349.8c-3.7,0-5.6,3-5.6,6.1s2,6.2,5.7,6.2s5.7-3.1,5.7-6.2
			C1133.7,352.9,1131.7,349.8,1128,349.8z"/>
		<path class="st10" d="M1145.9,347.8c0-3.7,2.6-4.2,3.8-4.2c1.2,0,3.8,0.6,3.8,4h0.1c0.9-2,2.5-4.1,5-4.1c2.2,0,3.5,1.5,3.5,3.5
			c0,1.8-1,3.6-4.1,3.8c-2.8,0.2-4.3,2.3-4.3,5.1v8.4c0,3.8-2.7,4.4-4,4.4s-4-0.6-4-4.4v-16.5H1145.9z"/>
		<path class="st10" d="M1183.8,360.4c1.7,0,3,1.2,3,3c0,0.7-0.2,1.8-1.4,2.7c-2.1,1.7-5,2.8-8.8,2.8c-7.2,0-13.2-4.6-13.2-12.7
			c0-7.9,5.7-12.9,13-12.9c6,0,10.4,3.5,11.7,9.3c0.1,0.7,0.2,1.3,0.2,1.8c0,2.7-1.6,3.8-4.1,3.8H1171c0.2,2.7,2.9,4.5,5.7,4.5
			c1.8,0,3-0.3,4.6-1.4C1182.5,360.6,1183,360.4,1183.8,360.4z M1181.1,353.3c0-2.5-1.6-4.6-4.7-4.6c-3,0-5.3,2.1-5.5,4.6H1181.1z"/>
		<path class="st10" d="M1208.7,351.2c-1.5,0-2.8-1.2-2.8-2.8c0-0.9,0.4-2,1.9-2.9c2.5-1.5,5.4-2.1,8-2.1c8.1,0,11.1,4,11.1,12.7v8.4
			c0,3.5-2.5,4.1-3.7,4.1c-1.1,0-3.1-0.5-3.6-3h-0.1c-1.2,2-4,3.1-6.8,3.1c-3.8,0-8.7-1.9-8.7-7.5c0-6.9,8.4-8.1,15.4-8.1v-0.4
			c0-2.1-1.6-3.5-4.1-3.5c-1.5,0-3.1,0.8-4.7,1.5C1209.9,351,1209.2,351.2,1208.7,351.2z M1219.6,357.6h-1c-3.5,0-7.4,0.4-7.4,3.3
			c0,1.8,1.8,2.5,3.4,2.5c3.2,0,5-1.9,5-4.9V357.6z"/>
		<path class="st10" d="M1232.4,335.6c0-3.8,2.7-4.4,4-4.4s4,0.6,4,4.4v11.1h0.1c1.4-1.6,3.8-3.2,7.3-3.2c7,0,11.3,5.9,11.3,12.6
			s-4.2,12.8-11.4,12.8c-3.2,0-6.3-1.4-7.9-3.8h-0.1c-0.1,3-2.4,3.6-3.6,3.6s-3.7-0.6-3.7-4.1L1232.4,335.6L1232.4,335.6z
			M1245.8,349.8c-3.6,0-5.8,3.1-5.8,6.2s2.2,6.2,5.8,6.2c3.8,0,5.7-3.1,5.7-6.2S1249.5,349.8,1245.8,349.8z"/>
		<path class="st10" d="M1275.7,368.9c-7.2,0-13.3-5-13.3-12.9s6.1-12.7,13.3-12.7c7.3,0,13.4,4.8,13.4,12.7
			C1289.1,363.8,1283,368.9,1275.7,368.9z M1275.7,349.8c-3.7,0-5.6,3-5.6,6.1s2,6.2,5.7,6.2s5.7-3.1,5.7-6.2
			C1281.5,352.9,1279.4,349.8,1275.7,349.8z"/>
		<path class="st10" d="M1317.1,364.3c0,3.7-2.6,4.2-3.8,4.2c-1.3,0-3.7-0.6-3.9-3.8h-0.1c-1.1,2.1-3.9,4-7.2,4c-6.5,0-8.8-5-8.8-9.8
			V348c0-3.8,2.7-4.4,4-4.4s4,0.6,4,4.4v9.1c0,2.7,0.7,5.1,3.6,5.1c2.8,0,4.2-2.4,4.2-5.2v-9c0-3.8,2.7-4.4,4-4.4s4,0.6,4,4.4
			L1317.1,364.3L1317.1,364.3z"/>
		<path class="st10" d="M1324.2,341.6c0-3.7,2.7-4.3,3.9-4.3c1.2,0,3.9,0.6,3.9,4.3v2.5h2.8c2.8,0,3.3,2,3.3,2.9c0,1-0.5,3-3.3,3
			h-2.8v9.2c0,2.2,0.6,3.3,2.4,3.3c0.2,0,0.4,0,0.6,0c2,0,2.9,1.5,2.9,2.8c0,2.5-2.3,3.4-5.1,3.4c-6.4,0-8.5-3.4-8.5-8.5v-10.1h-1
			c-2.8,0-3.3-2-3.3-3c0-0.9,0.5-2.9,3.3-2.9h1v-2.6H1324.2z"/>
		<path class="st10" d="M1357.4,340.7c-2.6,0-4.5-2-4.5-4.3s2-4.3,4.5-4.3s4.5,1.9,4.5,4.3C1362,338.8,1359.9,340.7,1357.4,340.7z
			M1353.5,348c0-3.8,2.7-4.4,4-4.4s4,0.6,4,4.4v16.1c0,3.8-2.7,4.4-4,4.4s-4-0.6-4-4.4V348z"/>
		<path class="st10" d="M1368.5,341.6c0-3.7,2.7-4.3,3.9-4.3c1.2,0,3.9,0.6,3.9,4.3v2.5h2.8c2.8,0,3.3,2,3.3,2.9c0,1-0.5,3-3.3,3
			h-2.8v9.2c0,2.2,0.6,3.3,2.4,3.3c0.2,0,0.4,0,0.6,0c2,0,2.9,1.5,2.9,2.8c0,2.5-2.3,3.4-5.1,3.4c-6.4,0-8.5-3.4-8.5-8.5v-10.1h-1
			c-2.8,0-3.3-2-3.3-3c0-0.9,0.5-2.9,3.3-2.9h1v-2.6H1368.5z"/>
	</g>
</svg>
