<?xml version="1.0" encoding="utf-8"?>
<!-- Generator: Adobe Illustrator 24.2.1, SVG Export Plug-In . SVG Version: 6.00 Build 0)  -->
<svg version="1.1" id="start-screen" xmlns="http://www.w3.org/2000/svg" xmlns:xlink="http://www.w3.org/1999/xlink" x="0px"
	 y="0px" viewBox="0 0 1920 1080" style="enable-background:new 0 0 1920 1080;" xml:space="preserve">
<style type="text/css">
	.st9{fill:#4BE47A;}
	.st1{fill:#5CF0FF;}
	.st0{fill:#00473D;}
	.st3{fill:#FFFB71;}
</style>
<g id="start-labels">
	<g>
		<path class="st9" d="M121.5,116.9H102l-2.2,5.4c-1.4,3.4-3.6,4.1-5.4,4.1c-2.8,0-5.3-1.9-5.3-5.2c0-0.8,0.1-1.7,0.7-3.1l15-32.8
			c2-4.5,5-5.4,7.2-5.4s5,0.6,7.2,5.4L134,118c0.5,1.2,0.6,2.3,0.6,2.9c0,3.5-2.6,5.5-5.4,5.5c-1.8,0-4.1-0.6-5.5-4.2L121.5,116.9z
			 M105.6,108.1H118l-6.1-15L105.6,108.1z"/>
		<path class="st9" d="M139,82.8c0-5.1,3.6-5.9,5.3-5.9s5.3,0.8,5.3,5.9v37.7c0,5.1-3.6,5.9-5.3,5.9s-5.3-0.8-5.3-5.9V82.8z"/>
		<path class="st9" d="M157.1,82.8c0-5.1,3.6-5.9,5.3-5.9s5.3,0.8,5.3,5.9v37.7c0,5.1-3.6,5.9-5.3,5.9s-5.3-0.8-5.3-5.9V82.8z"/>
		<path class="st9" d="M192.1,82.8c0-5.1,3.6-5.9,5.3-5.9s5.3,0.8,5.3,5.9v37.7c0,5.1-3.6,5.9-5.3,5.9s-5.3-0.8-5.3-5.9V82.8z"/>
		<path class="st9" d="M215.4,89.5c-3.4,0-6-2.6-6-5.8c0-3.1,2.6-5.8,6-5.8c3.3,0,6,2.6,6,5.8C221.4,87,218.7,89.5,215.4,89.5z
			 M210.1,99.2c0-5,3.5-5.9,5.2-5.9s5.2,0.8,5.2,5.9v21.3c0,5-3.5,5.9-5.2,5.9s-5.2-0.8-5.2-5.9V99.2z"/>
		<path class="st9" d="M249.2,120.6c-2,4.8-5.2,5.8-7.7,5.8s-5.6-1-7.7-5.8l-8.3-19.2c-0.5-1.2-0.7-2.3-0.7-3c0-3,2.2-5.1,5.2-5.1
			c1.7,0,3.8,0.7,5.2,4.4l6.3,16.9h0.2l6.2-16.9c1.3-3.8,3.6-4.3,5.1-4.3c3,0,5.1,2.1,5.1,4.9c0,0.5-0.1,1.7-0.7,3.1L249.2,120.6z"
			/>
		<path class="st9" d="M267.8,89.5c-3.4,0-6-2.6-6-5.8c0-3.1,2.6-5.8,6-5.8c3.3,0,6,2.6,6,5.8C273.8,87,271.1,89.5,267.8,89.5z
			 M262.6,99.2c0-5,3.5-5.9,5.2-5.9s5.2,0.8,5.2,5.9v21.3c0,5-3.5,5.9-5.2,5.9s-5.2-0.8-5.2-5.9V99.2z"/>
		<path class="st9" d="M280.3,98.9c0-4.9,3.4-5.6,5-5.6s4.9,0.8,5.1,5h0.1c1.5-2.8,5.1-5.3,9.5-5.3c8.6,0,11.6,6.6,11.6,13v14.4
			c0,5-3.5,5.9-5.3,5.9c-1.7,0-5.2-0.8-5.2-5.9v-12.1c0-3.5-1-6.7-4.7-6.7s-5.6,3.2-5.6,6.8v12c0,5-3.5,5.9-5.3,5.9
			c-1.7,0-5.2-0.8-5.2-5.9V98.9z"/>
		<path class="st9" d="M318.7,133.8c0-2.4,1.7-4.5,4.3-4.5c0.9,0,1.9,0.2,3.5,1.2c2.6,1.5,5,2.1,7.3,2.1c5.4,0,8.4-3.5,8.4-8.8v-1.9
			H342c-2,2.6-5.4,4.2-9.6,4.2c-9.6,0-15.2-7.5-15.2-16.4c0-8.8,5.6-16.7,15.1-16.7c4,0,7.9,1.6,10.2,5h0.1c0.3-3.9,3.3-4.7,4.9-4.7
			c1.7,0,5,0.8,5,5.6v23.8c0,12.5-7.4,18.3-18.7,18.3c-3.9,0-9.1-0.8-12.5-3.1C319.4,136.7,318.7,135.2,318.7,133.8z M334.9,101.6
			c-4.7,0-7.5,3.6-7.5,8.1c0,4.2,2.7,8.1,7.5,8.1s7.7-3.8,7.7-8.1C342.6,105.3,339.6,101.6,334.9,101.6z"/>
		<path class="st9" d="M378,90.7c0-4.9,3.5-5.8,5.2-5.8c1.6,0,5.1,0.8,5.1,5.8V94h3.7c3.7,0,4.4,2.7,4.4,3.9c0,1.3-0.7,4-4.4,4h-3.7
			V114c0,2.9,0.8,4.3,3.1,4.3c0.3,0,0.5,0,0.8,0c2.6,0,3.9,2,3.9,3.8c0,3.3-3,4.5-6.8,4.5c-8.5,0-11.3-4.5-11.3-11.3v-13.4h-1.3
			c-3.7,0-4.4-2.7-4.4-4c0-1.2,0.7-3.9,4.4-3.9h1.3L378,90.7L378,90.7z"/>
		<path class="st9" d="M400.7,82.7c0-5,3.5-5.9,5.2-5.9s5.2,0.8,5.2,5.9V98h0.1c1.4-2.6,4.7-4.9,9.1-4.9c8.6,0,11.6,6.6,11.6,13
			v14.4c0,5-3.5,5.9-5.3,5.9c-1.7,0-5.2-0.8-5.2-5.9v-12c0-3.6-0.9-6.7-4.7-6.7c-3.6,0-5.7,3-5.7,6.8v11.9c0,5-3.5,5.9-5.2,5.9
			s-5.2-0.8-5.2-5.9V82.7H400.7z"/>
		<path class="st9" d="M444.3,89.5c-3.4,0-6-2.6-6-5.8c0-3.1,2.6-5.8,6-5.8c3.3,0,6,2.6,6,5.8C450.3,87,447.6,89.5,444.3,89.5z
			 M439.1,99.2c0-5,3.5-5.9,5.2-5.9s5.2,0.8,5.2,5.9v21.3c0,5-3.5,5.9-5.2,5.9s-5.2-0.8-5.2-5.9V99.2z"/>
		<path class="st9" d="M456.8,98.9c0-4.9,3.4-5.6,5-5.6s4.9,0.8,5.1,5h0.1c1.5-2.8,5.1-5.3,9.5-5.3c8.6,0,11.6,6.6,11.6,13v14.4
			c0,5-3.5,5.9-5.3,5.9c-1.7,0-5.2-0.8-5.2-5.9v-12.1c0-3.5-1-6.7-4.7-6.7s-5.6,3.2-5.6,6.8v12c0,5-3.5,5.9-5.3,5.9
			c-1.7,0-5.2-0.8-5.2-5.9V98.9z"/>
		<path class="st9" d="M495.2,133.8c0-2.4,1.7-4.5,4.3-4.5c0.9,0,1.9,0.2,3.5,1.2c2.6,1.5,5,2.1,7.3,2.1c5.4,0,8.4-3.5,8.4-8.8v-1.9
			h-0.2c-2,2.6-5.4,4.2-9.6,4.2c-9.6,0-15.2-7.5-15.2-16.4c0-8.8,5.6-16.7,15.1-16.7c4,0,7.9,1.6,10.2,5h0.1
			c0.3-3.9,3.3-4.7,4.9-4.7c1.7,0,5,0.8,5,5.6v23.8c0,12.5-7.4,18.3-18.7,18.3c-3.9,0-9.1-0.8-12.5-3.1
			C495.9,136.7,495.2,135.2,495.2,133.8z M511.4,101.6c-4.7,0-7.5,3.6-7.5,8.1c0,4.2,2.7,8.1,7.5,8.1c4.8,0,7.7-3.8,7.7-8.1
			C519.1,105.3,516.1,101.6,511.4,101.6z"/>
		<path class="st9" d="M534.8,120.4c0-2.3,1.7-4.1,4-4.1c1,0,2,0.3,3.2,1.2c1.9,1.3,3.6,1.8,5.2,1.8c1.7,0,3.8-0.7,3.8-2.7
			s-2-2.6-6.3-3.6c-4.4-1-9.3-3.3-9.3-9.3c0-7.6,7.2-10.7,13.2-10.7c2.7,0,6.5,0.6,8.6,1.9c2.1,1.2,2.7,2.6,2.7,3.8c0,2.2-1.5,4-4,4
			c-0.8,0-1.7-0.3-2.7-0.9c-1.5-0.8-2.7-1.2-4.3-1.2c-2,0-4,0.7-4,2.6c0,1.8,1.7,2.2,5.8,3.1c4.9,1.1,10.2,3.6,10.2,9.8
			c0,8.1-7.1,10.9-13.6,10.9c-3.6,0-7.8-0.9-10.2-2.5C535.4,123.1,534.8,121.7,534.8,120.4z"/>
		<path class="st9" d="M599.1,126.8c-9.6,0-17.6-6.6-17.6-17.1c0-10.4,8.1-16.8,17.6-16.8c9.6,0,17.7,6.4,17.7,16.8
			C616.8,120.1,608.8,126.8,599.1,126.8z M599.1,101.6c-4.9,0-7.5,4-7.5,8.1s2.6,8.2,7.5,8.2s7.5-4.2,7.5-8.2
			S604.1,101.6,599.1,101.6z"/>
		<path class="st9" d="M622.5,98.9c0-4.9,3.4-5.6,5-5.6s4.9,0.8,5.1,5h0.1c1.5-2.8,5.1-5.3,9.5-5.3c8.6,0,11.6,6.6,11.6,13v14.4
			c0,5-3.5,5.9-5.3,5.9c-1.7,0-5.2-0.8-5.2-5.9v-12.1c0-3.5-1-6.7-4.7-6.7s-5.6,3.2-5.6,6.8v12c0,5-3.5,5.9-5.3,5.9
			c-1.7,0-5.2-0.8-5.2-5.9L622.5,98.9L622.5,98.9z"/>
		<path class="st9" d="M703.4,98.3c4.5,0,5,3,5,4.3c0,1.4-0.6,4.4-5,4.4H689v9.4h16.5c4.5,0,5.2,3.1,5.2,4.7s-0.7,4.7-5.2,4.7h-20.8
			c-4.3,0-6.3-2-6.3-6.3V86.8c0-4.3,2-6.3,6.3-6.3h19.6c4.5,0,5.2,3.1,5.2,4.6s-0.7,4.7-5.2,4.7H689v8.5
			C689,98.3,703.4,98.3,703.4,98.3z"/>
		<path class="st9" d="M720.5,103.4c-2,0-3.7-1.6-3.7-3.8c0-1.2,0.5-2.7,2.5-3.9c3.3-2,7.2-2.8,10.5-2.8c10.7,0,14.6,5.2,14.6,16.8
			v11.2c0,4.7-3.3,5.5-4.9,5.5c-1.4,0-4.2-0.6-4.7-4h-0.2c-1.6,2.6-5.2,4.2-9,4.2c-5,0-11.6-2.5-11.6-10c0-9.2,11.2-10.7,20.4-10.7
			v-0.5c0-2.8-2.2-4.6-5.4-4.6c-2,0-4.2,1-6.2,2C722,103.2,721.2,103.4,720.5,103.4z M734.8,111.9h-1.3c-4.6,0-9.8,0.6-9.8,4.3
			c0,2.4,2.4,3.3,4.5,3.3c4.2,0,6.6-2.6,6.6-6.5V111.9z"/>
		<path class="st9" d="M751.5,98.9c0-4.9,3.4-5.6,5-5.6s5,0.8,5,5.2h0.1c1.2-2.7,3.3-5.4,6.6-5.4c2.9,0,4.7,2,4.7,4.6
			c0,2.4-1.3,4.7-5.4,5c-3.6,0.3-5.7,3.1-5.7,6.7v11.1c0,5-3.5,5.9-5.2,5.9s-5.2-0.8-5.2-5.9V98.9H751.5z"/>
		<path class="st9" d="M780,90.7c0-4.9,3.5-5.8,5.2-5.8c1.6,0,5.1,0.8,5.1,5.8V94h3.7c3.7,0,4.4,2.7,4.4,3.9c0,1.3-0.7,4-4.4,4h-3.7
			V114c0,2.9,0.8,4.3,3.1,4.3c0.3,0,0.5,0,0.8,0c2.6,0,3.9,2,3.9,3.8c0,3.3-3,4.5-6.8,4.5c-8.5,0-11.3-4.5-11.3-11.3v-13.4h-1.3
			c-3.7,0-4.4-2.7-4.4-4c0-1.2,0.7-3.9,4.4-3.9h1.3V90.7z"/>
		<path class="st9" d="M802.8,82.7c0-5,3.5-5.9,5.2-5.9s5.2,0.8,5.2,5.9V98h0.1c1.4-2.6,4.7-4.9,9.1-4.9c8.6,0,11.6,6.6,11.6,13
			v14.4c0,5-3.5,5.9-5.3,5.9c-1.7,0-5.2-0.8-5.2-5.9v-12c0-3.6-0.9-6.7-4.7-6.7c-3.6,0-5.7,3-5.7,6.8v11.9c0,5-3.5,5.9-5.2,5.9
			s-5.2-0.8-5.2-5.9V82.7H802.8z"/>
		<path class="st9" d="M97.1,179.7c-2,0-3.7-1.6-3.7-3.8c0-1.2,0.5-2.7,2.5-3.9c3.3-2,7.2-2.8,10.5-2.8c10.7,0,14.6,5.2,14.6,16.8
			v11.2c0,4.7-3.3,5.5-4.9,5.5c-1.4,0-4.2-0.6-4.7-4h-0.2c-1.6,2.6-5.2,4.2-9,4.2c-5,0-11.6-2.5-11.6-10c0-9.2,11.2-10.7,20.4-10.7
			v-0.5c0-2.8-2.2-4.6-5.4-4.6c-2,0-4.2,1-6.2,2C98.7,179.5,97.8,179.7,97.1,179.7z M111.5,188.2h-1.3c-4.6,0-9.8,0.6-9.8,4.3
			c0,2.4,2.4,3.3,4.5,3.3c4.2,0,6.6-2.6,6.6-6.5C111.5,189.3,111.5,188.2,111.5,188.2z"/>
		<path class="st9" d="M128.1,175.2c0-4.9,3.4-5.6,5-5.6s5,0.8,5,5.2h0.1c1.2-2.7,3.3-5.4,6.6-5.4c2.9,0,4.7,2,4.7,4.6
			c0,2.4-1.3,4.7-5.4,5c-3.6,0.3-5.7,3.1-5.7,6.7v11.1c0,5-3.5,5.9-5.2,5.9s-5.2-0.8-5.2-5.9L128.1,175.2L128.1,175.2z"/>
		<path class="st9" d="M178,191.8c2.3,0,4,1.6,4,4c0,0.9-0.3,2.4-1.9,3.6c-2.7,2.2-6.6,3.7-11.7,3.7c-9.6,0-17.5-6.1-17.5-16.8
			c0-10.4,7.5-17.1,17.2-17.1c8,0,13.7,4.7,15.5,12.3c0.2,0.9,0.3,1.7,0.3,2.4c0,3.6-2.1,5-5.4,5H161c0.3,3.5,3.8,6,7.6,6
			c2.4,0,4-0.4,6.1-1.9C176.2,192.1,176.9,191.8,178,191.8z M174.5,182.5c0-3.3-2.1-6.1-6.3-6.1c-4,0-7,2.8-7.2,6.1H174.5z"/>
		<path class="st9" d="M205,186.1c0-10.4,7.9-16.9,17.8-16.9c2.6,0,5.2,0.5,7,1.4c2.4,1.2,3.1,2.9,3.1,4.2c0,2.4-1.5,4.5-4.3,4.5
			c-0.8,0-1.7-0.2-2.8-0.8c-0.9-0.4-1.8-0.6-2.8-0.6c-4.4,0-7.3,3.8-7.3,8.2s2.9,8.1,7.5,8.1c1,0,1.9-0.1,2.8-0.6
			c1.2-0.6,2-0.8,2.8-0.8c2.8,0,4.3,2.1,4.3,4.5c0,1.3-0.8,3.1-3.1,4.2c-1.9,1-4.5,1.4-7.1,1.4C212.8,203.1,205,196.7,205,186.1z"/>
		<path class="st9" d="M262.9,191.8c2.3,0,4,1.6,4,4c0,0.9-0.3,2.4-1.9,3.6c-2.7,2.2-6.6,3.7-11.7,3.7c-9.6,0-17.5-6.1-17.5-16.8
			c0-10.4,7.5-17.1,17.2-17.1c8,0,13.7,4.7,15.5,12.3c0.2,0.9,0.3,1.7,0.3,2.4c0,3.6-2.1,5-5.4,5h-17.5c0.3,3.5,3.8,6,7.6,6
			c2.4,0,4-0.4,6.1-1.9C261.2,192.1,261.9,191.8,262.9,191.8z M259.4,182.5c0-3.3-2.1-6.1-6.3-6.1c-4,0-7,2.8-7.2,6.1H259.4z"/>
		<path class="st9" d="M274.6,159c0-5.1,3.6-5.9,5.3-5.9c1.7,0,5.3,0.8,5.3,5.9v37.7c0,5.1-3.6,5.9-5.3,5.9c-1.7,0-5.3-0.8-5.3-5.9
			V159z"/>
		<path class="st9" d="M292.7,159c0-5.1,3.6-5.9,5.3-5.9c1.7,0,5.3,0.8,5.3,5.9v37.7c0,5.1-3.6,5.9-5.3,5.9c-1.7,0-5.3-0.8-5.3-5.9
			V159z"/>
		<path class="st9" d="M313.6,189.4c-4,0-4.7-2.8-4.7-4.2c0-1.3,0.7-4.2,4.7-4.2h8.2c4,0,4.7,2.8,4.7,4.2c0,1.3-0.7,4.2-4.7,4.2
			H313.6z"/>
		<path class="st9" d="M332.1,159c0-5,3.5-5.9,5.2-5.9s5.2,0.8,5.2,5.9v14.6h0.1c1.8-2.1,5-4.3,9.7-4.3c9.3,0,15,7.8,15,16.7
			s-5.6,16.9-15.1,16.9c-4.2,0-8.4-1.9-10.4-5h-0.1c-0.2,4-3.2,4.8-4.8,4.8s-4.9-0.8-4.9-5.5L332.1,159L332.1,159z M349.8,177.9
			c-4.7,0-7.7,4.2-7.7,8.2c0,4.2,2.9,8.2,7.7,8.2c5,0,7.5-4.1,7.5-8.2C357.3,181.9,354.7,177.9,349.8,177.9z"/>
		<path class="st9" d="M377.4,179.7c-2,0-3.7-1.6-3.7-3.8c0-1.2,0.5-2.7,2.5-3.9c3.3-2,7.2-2.8,10.5-2.8c10.7,0,14.6,5.2,14.6,16.8
			v11.2c0,4.7-3.3,5.5-4.9,5.5c-1.4,0-4.2-0.6-4.7-4h-0.2c-1.6,2.6-5.2,4.2-9,4.2c-5,0-11.6-2.5-11.6-10c0-9.2,11.2-10.7,20.4-10.7
			v-0.5c0-2.8-2.2-4.6-5.4-4.6c-2,0-4.2,1-6.2,2C378.9,179.5,378.1,179.7,377.4,179.7z M391.8,188.2h-1.3c-4.6,0-9.8,0.6-9.8,4.3
			c0,2.4,2.4,3.3,4.5,3.3c4.2,0,6.6-2.6,6.6-6.5L391.8,188.2L391.8,188.2z"/>
		<path class="st9" d="M406.4,196.7c0-2.3,1.7-4.1,4-4.1c1,0,2,0.3,3.2,1.1c1.9,1.3,3.6,1.8,5.2,1.8c1.7,0,3.8-0.7,3.8-2.7
			s-2-2.6-6.3-3.6c-4.4-1-9.3-3.3-9.3-9.3c0-7.6,7.2-10.7,13.2-10.7c2.7,0,6.5,0.6,8.6,1.9c2.1,1.2,2.7,2.6,2.7,3.8c0,2.2-1.5,4-4,4
			c-0.8,0-1.7-0.3-2.7-0.9c-1.5-0.8-2.7-1.2-4.3-1.2c-2,0-4,0.7-4,2.6c0,1.8,1.7,2.2,5.8,3.1c4.9,1.1,10.2,3.6,10.2,9.8
			c0,8.1-7.1,10.9-13.6,10.9c-3.6,0-7.8-0.9-10.2-2.5C407,199.4,406.4,197.9,406.4,196.7z"/>
		<path class="st9" d="M463.3,191.8c2.3,0,4,1.6,4,4c0,0.9-0.3,2.4-1.9,3.6c-2.7,2.2-6.6,3.7-11.7,3.7c-9.6,0-17.5-6.1-17.5-16.8
			c0-10.4,7.5-17.1,17.2-17.1c8,0,13.7,4.7,15.5,12.3c0.2,0.9,0.3,1.7,0.3,2.4c0,3.6-2.1,5-5.4,5h-17.5c0.3,3.5,3.8,6,7.6,6
			c2.4,0,4-0.4,6.1-1.9C461.6,192.1,462.3,191.8,463.3,191.8z M459.8,182.5c0-3.3-2.1-6.1-6.3-6.1c-4,0-7,2.8-7.2,6.1H459.8z"/>
		<path class="st9" d="M508.6,197.2c0,4.7-3.3,5.5-4.9,5.5s-4.6-0.8-4.8-4.8h-0.1c-2,3.2-6.2,5-10.4,5c-9.6,0-15.1-8.1-15.1-16.9
			c0-8.9,5.8-16.7,15-16.7c4.7,0,7.9,2.2,9.7,4.3h0.1V159c0-5,3.5-5.9,5.2-5.9s5.2,0.8,5.2,5.9L508.6,197.2L508.6,197.2z
			 M490.9,177.9c-5,0-7.5,4-7.5,8.1c0,4.2,2.6,8.2,7.5,8.2c4.7,0,7.7-4,7.7-8.2C498.6,182,495.7,177.9,490.9,177.9z"/>
		<path class="st9" d="M521.8,202.7c-3.5,0-6.5-2.7-6.5-6.2s2.9-6.3,6.5-6.3c3.5,0,6.4,2.7,6.4,6.3S525.2,202.7,521.8,202.7z"/>
		<path class="st9" d="M121.5,308.6H102l-2.2,5.4c-1.4,3.4-3.6,4.1-5.4,4.1c-2.8,0-5.3-1.9-5.3-5.2c0-0.8,0.1-1.7,0.7-3.1l15-32.8
			c2-4.5,5-5.4,7.2-5.4s5,0.6,7.2,5.4l14.8,32.7c0.5,1.2,0.6,2.3,0.6,2.9c0,3.5-2.6,5.5-5.4,5.5c-1.8,0-4.1-0.6-5.5-4.2L121.5,308.6
			z M105.6,299.8H118l-6.1-15L105.6,299.8z"/>
		<path class="st9" d="M138.9,290.6c0-4.9,3.4-5.6,5-5.6s4.9,0.8,5.1,5h0.1c1.5-2.8,5.1-5.3,9.5-5.3c8.6,0,11.6,6.6,11.6,13v14.4
			c0,5-3.5,5.9-5.3,5.9c-1.7,0-5.2-0.8-5.2-5.9V300c0-3.5-1-6.7-4.7-6.7s-5.6,3.2-5.6,6.8v12c0,5-3.5,5.9-5.3,5.9
			c-1.7,0-5.2-0.8-5.2-5.9L138.9,290.6L138.9,290.6z"/>
		<path class="st9" d="M211.2,312.6c0,4.7-3.3,5.5-4.9,5.5c-1.6,0-4.6-0.8-4.8-4.8h-0.1c-2,3.2-6.2,5-10.4,5
			c-9.6,0-15.1-8.1-15.1-16.9c0-8.9,5.8-16.7,15-16.7c4.7,0,7.9,2.2,9.7,4.3h0.1v-14.6c0-5,3.5-5.9,5.2-5.9s5.2,0.8,5.2,5.9v38.2
			H211.2z M193.5,293.3c-5,0-7.5,4-7.5,8.1c0,4.2,2.6,8.2,7.5,8.2c4.7,0,7.7-4,7.7-8.2C201.2,297.5,198.2,293.3,193.5,293.3z"/>
		<path class="st9" d="M239.9,295.1c-2,0-3.7-1.6-3.7-3.8c0-1.2,0.5-2.7,2.5-3.9c3.3-2,7.2-2.8,10.5-2.8c10.7,0,14.6,5.2,14.6,16.8
			v11.2c0,4.7-3.3,5.5-4.9,5.5c-1.4,0-4.2-0.6-4.7-4H254c-1.6,2.6-5.2,4.2-9,4.2c-5,0-11.6-2.5-11.6-10c0-9.2,11.2-10.7,20.4-10.7
			V297c0-2.8-2.2-4.6-5.4-4.6c-2,0-4.2,1-6.2,2C241.4,294.9,240.6,295.1,239.9,295.1z M254.3,303.6H253c-4.6,0-9.8,0.6-9.8,4.3
			c0,2.4,2.4,3.3,4.5,3.3c4.2,0,6.6-2.6,6.6-6.5V303.6z"/>
		<path class="st9" d="M271,274.5c0-5.1,3.6-5.9,5.3-5.9c1.7,0,5.3,0.8,5.3,5.9v37.7c0,5.1-3.6,5.9-5.3,5.9c-1.7,0-5.3-0.8-5.3-5.9
			V274.5z"/>
		<path class="st9" d="M289.1,274.5c0-5.1,3.6-5.9,5.3-5.9c1.7,0,5.3,0.8,5.3,5.9v37.7c0,5.1-3.6,5.9-5.3,5.9
			c-1.7,0-5.3-0.8-5.3-5.9V274.5z"/>
		<path class="st9" d="M322.4,301.6c0-10.4,7.9-16.9,17.8-16.9c2.6,0,5.2,0.5,7,1.4c2.4,1.1,3.1,2.9,3.1,4.2c0,2.4-1.5,4.5-4.3,4.5
			c-0.8,0-1.7-0.2-2.8-0.8c-0.9-0.4-1.8-0.6-2.8-0.6c-4.4,0-7.3,3.8-7.3,8.2s2.9,8.1,7.5,8.1c1,0,1.9-0.1,2.8-0.6
			c1.2-0.6,2-0.8,2.8-0.8c2.8,0,4.3,2.1,4.3,4.5c0,1.3-0.8,3.1-3.1,4.2c-1.9,1-4.5,1.4-7.1,1.4C330.2,318.5,322.4,312.1,322.4,301.6
			z"/>
		<path class="st9" d="M380.3,307.3c2.3,0,4,1.6,4,4c0,0.9-0.3,2.4-1.9,3.6c-2.7,2.2-6.6,3.7-11.7,3.7c-9.6,0-17.5-6.1-17.5-16.8
			c0-10.4,7.5-17.1,17.2-17.1c8,0,13.7,4.7,15.5,12.3c0.2,0.9,0.3,1.7,0.3,2.4c0,3.6-2.1,5-5.4,5h-17.5c0.3,3.5,3.8,6,7.6,6
			c2.4,0,4-0.4,6.1-1.9C378.6,307.5,379.3,307.3,380.3,307.3z M376.8,297.9c0-3.3-2.1-6.1-6.3-6.1c-4,0-7,2.8-7.2,6.1H376.8z"/>
		<path class="st9" d="M391.9,274.5c0-5.1,3.6-5.9,5.3-5.9c1.7,0,5.3,0.8,5.3,5.9v37.7c0,5.1-3.6,5.9-5.3,5.9
			c-1.7,0-5.3-0.8-5.3-5.9V274.5z"/>
		<path class="st9" d="M410,274.5c0-5.1,3.6-5.9,5.3-5.9c1.7,0,5.3,0.8,5.3,5.9v37.7c0,5.1-3.6,5.9-5.3,5.9c-1.7,0-5.3-0.8-5.3-5.9
			V274.5z"/>
		<path class="st9" d="M426.2,312.1c0-2.3,1.7-4.1,4-4.1c1,0,2,0.3,3.2,1.2c1.9,1.3,3.6,1.8,5.2,1.8c1.7,0,3.8-0.7,3.8-2.7
			s-2-2.6-6.3-3.6c-4.4-1-9.3-3.3-9.3-9.3c0-7.6,7.2-10.7,13.2-10.7c2.7,0,6.5,0.6,8.6,1.9c2.1,1.2,2.7,2.6,2.7,3.8c0,2.2-1.5,4-4,4
			c-0.8,0-1.7-0.3-2.7-0.9c-1.5-0.8-2.7-1.2-4.3-1.2c-2,0-4,0.7-4,2.6c0,1.8,1.7,2.2,5.8,3.1c4.9,1.1,10.2,3.6,10.2,9.8
			c0,8.1-7.1,10.9-13.6,10.9c-3.6,0-7.8-0.9-10.2-2.5C426.8,314.8,426.2,313.4,426.2,312.1z"/>
		<path class="st9" d="M474.7,274.4c0-5,3.5-5.9,5.2-5.9s5.2,0.8,5.2,5.9v15.3h0.1c1.4-2.6,4.7-4.9,9.1-4.9c8.6,0,11.6,6.6,11.6,13
			v14.4c0,5-3.5,5.9-5.3,5.9c-1.7,0-5.2-0.8-5.2-5.9v-12c0-3.6-0.9-6.7-4.7-6.7c-3.6,0-5.7,3-5.7,6.8v11.9c0,5-3.5,5.9-5.2,5.9
			s-5.2-0.8-5.2-5.9v-37.8H474.7z"/>
		<path class="st9" d="M517.5,295.1c-2,0-3.7-1.6-3.7-3.8c0-1.2,0.5-2.7,2.5-3.9c3.3-2,7.2-2.8,10.5-2.8c10.7,0,14.6,5.2,14.6,16.8
			v11.2c0,4.7-3.3,5.5-4.9,5.5c-1.4,0-4.2-0.6-4.7-4h-0.2c-1.6,2.6-5.2,4.2-9,4.2c-5,0-11.6-2.5-11.6-10c0-9.2,11.2-10.7,20.4-10.7
			V297c0-2.8-2.2-4.6-5.4-4.6c-2,0-4.2,1-6.2,2C519,294.9,518.2,295.1,517.5,295.1z M531.9,303.6h-1.3c-4.6,0-9.8,0.6-9.8,4.3
			c0,2.4,2.4,3.3,4.5,3.3c4.2,0,6.6-2.6,6.6-6.5V303.6z"/>
		<path class="st9" d="M569.2,312.3c-2,4.8-5.2,5.8-7.7,5.8s-5.6-1-7.7-5.8l-8.3-19.2c-0.5-1.2-0.7-2.3-0.7-3c0-3,2.2-5.1,5.2-5.1
			c1.7,0,3.8,0.7,5.2,4.4l6.3,16.9h0.2l6.2-16.9c1.3-3.8,3.6-4.3,5.1-4.3c3,0,5.1,2.1,5.1,4.9c0,0.5-0.1,1.7-0.7,3.1L569.2,312.3z"
			/>
		<path class="st9" d="M607.6,307.3c2.3,0,4,1.6,4,4c0,0.9-0.3,2.4-1.9,3.6c-2.7,2.2-6.6,3.7-11.7,3.7c-9.6,0-17.5-6.1-17.5-16.8
			c0-10.4,7.5-17.1,17.2-17.1c8,0,13.7,4.7,15.5,12.3c0.2,0.9,0.3,1.7,0.3,2.4c0,3.6-2.1,5-5.4,5h-17.5c0.3,3.5,3.8,6,7.6,6
			c2.4,0,4-0.4,6.1-1.9C605.9,307.5,606.6,307.3,607.6,307.3z M604.1,297.9c0-3.3-2.1-6.1-6.3-6.1c-4,0-7,2.8-7.2,6.1H604.1z"/>
		<path class="st9" d="M634.6,301.6c0-10.4,7.9-16.9,17.8-16.9c2.6,0,5.2,0.5,7,1.4c2.4,1.1,3.1,2.9,3.1,4.2c0,2.4-1.5,4.5-4.3,4.5
			c-0.8,0-1.7-0.2-2.8-0.8c-0.9-0.4-1.8-0.6-2.8-0.6c-4.4,0-7.3,3.8-7.3,8.2s2.9,8.1,7.5,8.1c1,0,1.9-0.1,2.8-0.6
			c1.2-0.6,2-0.8,2.8-0.8c2.8,0,4.3,2.1,4.3,4.5c0,1.3-0.8,3.1-3.1,4.2c-1.9,1-4.5,1.4-7.1,1.4C642.4,318.5,634.6,312.1,634.6,301.6
			z"/>
		<path class="st9" d="M692.5,307.3c2.3,0,4,1.6,4,4c0,0.9-0.3,2.4-1.9,3.6c-2.7,2.2-6.6,3.7-11.7,3.7c-9.6,0-17.5-6.1-17.5-16.8
			c0-10.4,7.5-17.1,17.2-17.1c8,0,13.7,4.7,15.5,12.3c0.2,0.9,0.3,1.7,0.3,2.4c0,3.6-2.1,5-5.4,5h-17.5c0.3,3.5,3.8,6,7.6,6
			c2.4,0,4-0.4,6.1-1.9C690.8,307.5,691.5,307.3,692.5,307.3z M689,297.9c0-3.3-2.1-6.1-6.3-6.1c-4,0-7,2.8-7.2,6.1H689z"/>
		<path class="st9" d="M704.1,290.6c0-4.9,3.4-5.6,5-5.6s5,0.8,5,5.2h0.1c1.2-2.7,3.3-5.4,6.6-5.4c2.9,0,4.7,2,4.7,4.6
			c0,2.4-1.3,4.7-5.4,5c-3.6,0.3-5.7,3.1-5.7,6.7v11.1c0,5-3.5,5.9-5.2,5.9s-5.2-0.8-5.2-5.9v-21.6H704.1z"/>
		<path class="st9" d="M732.7,282.4c0-4.9,3.5-5.8,5.2-5.8c1.6,0,5.1,0.8,5.1,5.8v3.3h3.7c3.7,0,4.4,2.7,4.4,3.9c0,1.3-0.7,4-4.4,4
			H743v12.1c0,2.9,0.8,4.3,3.1,4.3c0.3,0,0.5,0,0.8,0c2.6,0,3.9,2,3.9,3.8c0,3.3-3,4.5-6.8,4.5c-8.5,0-11.3-4.5-11.3-11.3v-13.4
			h-1.3c-3.7,0-4.4-2.7-4.4-4c0-1.2,0.7-3.9,4.4-3.9h1.3V282.4z"/>
		<path class="st9" d="M759.8,295.1c-2,0-3.7-1.6-3.7-3.8c0-1.2,0.5-2.7,2.5-3.9c3.3-2,7.2-2.8,10.5-2.8c10.7,0,14.6,5.2,14.6,16.8
			v11.2c0,4.7-3.3,5.5-4.9,5.5c-1.4,0-4.2-0.6-4.7-4H774c-1.6,2.6-5.2,4.2-9,4.2c-5,0-11.6-2.5-11.6-10c0-9.2,11.2-10.7,20.4-10.7
			V297c0-2.8-2.2-4.6-5.4-4.6c-2,0-4.2,1-6.2,2C761.3,294.9,760.5,295.1,759.8,295.1z M774.2,303.6h-1.3c-4.6,0-9.8,0.6-9.8,4.3
			c0,2.4,2.4,3.3,4.5,3.3c4.2,0,6.6-2.6,6.6-6.5V303.6z"/>
		<path class="st9" d="M796,281.2c-3.4,0-6-2.6-6-5.8c0-3.1,2.6-5.8,6-5.8c3.3,0,6,2.6,6,5.8C802,278.8,799.3,281.2,796,281.2z
			 M790.7,290.9c0-5,3.5-5.9,5.2-5.9s5.2,0.8,5.2,5.9v21.3c0,5-3.5,5.9-5.2,5.9s-5.2-0.8-5.2-5.9V290.9z"/>
		<path class="st9" d="M808.5,290.6c0-4.9,3.4-5.6,5-5.6s4.9,0.8,5.1,5h0.1c1.5-2.8,5.1-5.3,9.5-5.3c8.6,0,11.6,6.6,11.6,13v14.4
			c0,5-3.5,5.9-5.3,5.9c-1.7,0-5.2-0.8-5.2-5.9V300c0-3.5-1-6.7-4.7-6.7s-5.6,3.2-5.6,6.8v12c0,5-3.5,5.9-5.3,5.9
			c-1.7,0-5.2-0.8-5.2-5.9L808.5,290.6L808.5,290.6z"/>
		<path class="st9" d="M93.8,358.7c0-4.9,3.5-5.8,5.2-5.8c1.6,0,5.1,0.8,5.1,5.8v3.3h3.7c3.7,0,4.4,2.7,4.4,3.9c0,1.3-0.7,4-4.4,4
			h-3.7V382c0,2.9,0.8,4.3,3.1,4.3c0.3,0,0.5,0,0.8,0c2.6,0,3.9,2,3.9,3.8c0,3.3-3,4.5-6.8,4.5c-8.5,0-11.3-4.5-11.3-11.3v-13.4
			h-1.3c-3.7,0-4.4-2.7-4.4-4c0-1.2,0.7-3.9,4.4-3.9h1.3C93.8,362,93.8,358.7,93.8,358.7z"/>
		<path class="st9" d="M116.5,350.7c0-5,3.5-5.9,5.2-5.9s5.2,0.8,5.2,5.9V366h0.1c1.4-2.6,4.7-4.9,9.1-4.9c8.6,0,11.6,6.6,11.6,13
			v14.4c0,5-3.5,5.9-5.3,5.9c-1.7,0-5.2-0.8-5.2-5.9v-12c0-3.6-0.9-6.7-4.7-6.7c-3.6,0-5.7,3-5.7,6.8v11.9c0,5-3.5,5.9-5.2,5.9
			s-5.2-0.8-5.2-5.9L116.5,350.7L116.5,350.7z"/>
		<path class="st9" d="M160.2,357.5c-3.4,0-6-2.6-6-5.8c0-3.1,2.6-5.8,6-5.8c3.3,0,6,2.6,6,5.8C166.2,355,163.5,357.5,160.2,357.5z
			 M154.9,367.2c0-5,3.5-5.9,5.2-5.9s5.2,0.8,5.2,5.9v21.3c0,5-3.5,5.9-5.2,5.9s-5.2-0.8-5.2-5.9V367.2z"/>
		<path class="st9" d="M172.7,366.9c0-4.9,3.4-5.6,5-5.6s4.9,0.8,5.1,5h0.1c1.5-2.8,5.1-5.3,9.5-5.3c8.6,0,11.6,6.6,11.6,13v14.4
			c0,5-3.5,5.9-5.3,5.9c-1.7,0-5.2-0.8-5.2-5.9v-12.1c0-3.5-1-6.7-4.7-6.7s-5.6,3.2-5.6,6.8v12c0,5-3.5,5.9-5.3,5.9
			c-1.7,0-5.2-0.8-5.2-5.9L172.7,366.9L172.7,366.9z"/>
		<path class="st9" d="M211.1,401.8c0-2.4,1.7-4.5,4.3-4.5c0.9,0,1.9,0.2,3.5,1.2c2.6,1.5,5,2.1,7.3,2.1c5.4,0,8.4-3.5,8.4-8.8v-1.9
			h-0.2c-2,2.6-5.4,4.2-9.6,4.2c-9.6,0-15.2-7.5-15.2-16.4c0-8.8,5.6-16.7,15.1-16.7c4,0,7.9,1.6,10.2,5h0.1
			c0.3-3.9,3.3-4.7,4.9-4.7c1.7,0,5,0.8,5,5.6v23.8c0,12.5-7.4,18.3-18.7,18.3c-3.9,0-9.1-0.8-12.5-3.1
			C211.8,404.7,211.1,403.2,211.1,401.8z M227.3,369.6c-4.7,0-7.5,3.6-7.5,8.1c0,4.2,2.7,8.1,7.5,8.1s7.7-3.8,7.7-8.1
			C235,373.3,232,369.6,227.3,369.6z"/>
		<path class="st9" d="M250.6,388.4c0-2.3,1.7-4.1,4-4.1c1,0,2,0.3,3.2,1.1c1.9,1.3,3.6,1.8,5.2,1.8c1.7,0,3.8-0.7,3.8-2.7
			s-2-2.6-6.3-3.6c-4.4-1-9.3-3.3-9.3-9.3c0-7.6,7.2-10.7,13.2-10.7c2.7,0,6.5,0.6,8.6,1.9c2.1,1.2,2.7,2.6,2.7,3.8c0,2.2-1.5,4-4,4
			c-0.8,0-1.7-0.3-2.7-0.9c-1.5-0.8-2.7-1.2-4.3-1.2c-2,0-4,0.7-4,2.6c0,1.8,1.7,2.2,5.8,3.1c4.9,1.1,10.2,3.6,10.2,9.8
			c0,8.1-7.1,10.9-13.6,10.9c-3.6,0-7.8-0.9-10.2-2.5C251.2,391.1,250.6,389.7,250.6,388.4z"/>
		<path class="st9" d="M304.3,357.5c-3.4,0-6-2.6-6-5.8c0-3.1,2.6-5.8,6-5.8c3.3,0,6,2.6,6,5.8C310.3,355,307.6,357.5,304.3,357.5z
			 M299.1,367.2c0-5,3.5-5.9,5.2-5.9s5.2,0.8,5.2,5.9v21.3c0,5-3.5,5.9-5.2,5.9s-5.2-0.8-5.2-5.9V367.2z"/>
		<path class="st9" d="M316.8,366.9c0-4.9,3.4-5.6,5-5.6s4.9,0.8,5.1,5h0.1c1.5-2.8,5.1-5.3,9.5-5.3c8.6,0,11.6,6.6,11.6,13v14.4
			c0,5-3.5,5.9-5.3,5.9c-1.7,0-5.2-0.8-5.2-5.9v-12.1c0-3.5-1-6.7-4.7-6.7s-5.6,3.2-5.6,6.8v12c0,5-3.5,5.9-5.3,5.9
			c-1.7,0-5.2-0.8-5.2-5.9V366.9z"/>
		<path class="st9" d="M370.6,377.8c0-10.4,7.9-16.9,17.8-16.9c2.6,0,5.2,0.5,7,1.4c2.4,1.2,3.1,2.9,3.1,4.2c0,2.4-1.5,4.5-4.3,4.5
			c-0.8,0-1.7-0.2-2.8-0.8c-0.9-0.4-1.8-0.6-2.8-0.6c-4.4,0-7.3,3.8-7.3,8.2c0,4.4,2.9,8.1,7.5,8.1c1,0,1.9-0.1,2.8-0.6
			c1.2-0.6,2-0.8,2.8-0.8c2.8,0,4.3,2.1,4.3,4.5c0,1.3-0.8,3.1-3.1,4.2c-1.9,1-4.5,1.4-7.1,1.4C378.4,394.8,370.6,388.4,370.6,377.8
			z"/>
		<path class="st9" d="M419.1,394.8c-9.6,0-17.6-6.6-17.6-17.1c0-10.4,8.1-16.8,17.6-16.8c9.6,0,17.7,6.4,17.7,16.8
			C436.8,388.1,428.8,394.8,419.1,394.8z M419.1,369.6c-4.9,0-7.5,4-7.5,8.1s2.6,8.2,7.5,8.2s7.5-4.2,7.5-8.2S424,369.6,419.1,369.6
			z"/>
		<path class="st9" d="M452.8,366.3c1.5-2.7,4.7-5.3,9.5-5.3c4.6,0,7.8,2,9.6,5.4c2.1-3.3,5.4-5.4,10.2-5.4c8.6,0,11.6,7,11.6,13
			v14.4c0,5-3.5,5.9-5.2,5.9s-5.2-0.8-5.2-5.9v-12.1c0-3.6-0.8-6.7-4.5-6.7c-3.6,0-5.3,3.3-5.3,6.9v11.9c0,5-3.5,5.9-5.2,5.9
			s-5.2-0.8-5.2-5.9v-12.9c0-3.6-1.4-5.9-4.5-5.9c-3.3,0-5.2,3-5.2,6.8v12c0,5-3.5,5.9-5.3,5.9c-1.7,0-5.2-0.8-5.2-5.9v-21.6
			c0-4.9,3.4-5.6,5-5.6s4.9,0.8,5.1,5h-0.2V366.3z"/>
		<path class="st9" d="M511.2,366.3c1.5-2.7,4.7-5.3,9.5-5.3c4.6,0,7.8,2,9.6,5.4c2.1-3.3,5.4-5.4,10.2-5.4c8.6,0,11.6,7,11.6,13
			v14.4c0,5-3.5,5.9-5.2,5.9s-5.2-0.8-5.2-5.9v-12.1c0-3.6-0.8-6.7-4.5-6.7c-3.6,0-5.3,3.3-5.3,6.9v11.9c0,5-3.5,5.9-5.2,5.9
			s-5.2-0.8-5.2-5.9v-12.9c0-3.6-1.4-5.9-4.5-5.9c-3.3,0-5.2,3-5.2,6.8v12c0,5-3.5,5.9-5.3,5.9c-1.7,0-5.2-0.8-5.2-5.9v-21.6
			c0-4.9,3.4-5.6,5-5.6s4.9,0.8,5.1,5h-0.2V366.3z"/>
		<path class="st9" d="M575.1,394.8c-9.6,0-17.6-6.6-17.6-17.1c0-10.4,8.1-16.8,17.6-16.8c9.6,0,17.7,6.4,17.7,16.8
			C592.8,388.1,584.7,394.8,575.1,394.8z M575.1,369.6c-4.9,0-7.5,4-7.5,8.1s2.6,8.2,7.5,8.2s7.5-4.2,7.5-8.2S580,369.6,575.1,369.6
			z"/>
		<path class="st9" d="M598.5,366.9c0-4.9,3.4-5.6,5-5.6s4.9,0.8,5.1,5h0.1c1.5-2.8,5.1-5.3,9.5-5.3c8.6,0,11.6,6.6,11.6,13v14.4
			c0,5-3.5,5.9-5.3,5.9c-1.7,0-5.2-0.8-5.2-5.9v-12.1c0-3.5-1-6.7-4.7-6.7s-5.6,3.2-5.6,6.8v12c0,5-3.5,5.9-5.3,5.9
			c-1.7,0-5.2-0.8-5.2-5.9L598.5,366.9L598.5,366.9z"/>
		<path class="st9" d="M642.8,394.4c-3.5,0-6.5-2.7-6.5-6.2s2.9-6.3,6.5-6.3c3.5,0,6.4,2.7,6.4,6.3S646.3,394.4,642.8,394.4z"/>
	</g>
	<g>
		<path class="st1" d="M1128.3,929.5c0-3,2.3-5.5,5.6-5.5c1.2,0,2.3,0.2,4.1,1.5c2.5,1.9,5.6,2.8,8.2,2.8c4.2,0,8.3-1.8,8.3-6.3
			c0-3.6-3.2-5.4-8-7.1c-6.7-2.3-12.3-5.6-12.3-13.9c0-10.5,9.4-17.2,20.9-17.2c3.9,0,7.8,1,11.2,2.8c2.3,1.2,3.4,2.9,3.4,4.8
			c0,2.9-2.1,5.4-5.3,5.4c-1,0-2.3-0.4-4-1.4c-1.5-1-3.5-1.6-6-1.6c-3.3,0-7.8,1.8-7.8,6.2c0,2.9,2.4,4.4,6.5,5.9
			c8.9,3.1,14.2,7.4,14.2,15.2c0,12.4-11.4,17.3-21.4,17.3c-5.4,0-11.2-1.5-15-4.2C1128.8,932.6,1128.3,931,1128.3,929.5z"/>
		<path class="st1" d="M1182.6,921.9c-0.1,0.3-0.1,0.5-0.1,0.7c0,4.1,4,6.5,8.1,6.5c2.4,0,4.6-0.7,6.6-1.9c1.8-1.2,2.9-1.5,4-1.5
			c2.6,0,4.3,1.8,4.3,4.2c0,1.5-0.5,3.2-2.9,4.8c-3.8,2.3-8.2,3.5-13,3.5c-10.1,0-17.9-5.8-17.9-16.4c0-12.4,9.1-22.2,22-22.2
			c9.6,0,16.1,5.5,16.1,15.4c0,4.7-2,7.1-6.7,7.1h-20.5V921.9z M1199.2,913.3c0-3.2-2.4-5.6-6.7-5.6c-5.2,0-8.5,4-9.2,7.1h15.8
			C1199.2,914.3,1199.2,913.7,1199.2,913.3z"/>
		<path class="st1" d="M1225.2,931.3c-1,5.8-4.5,6.4-6.6,6.4c-2,0-5.3-1.2-5.3-5.5c0-0.3,0-1.1,0.3-2.9l7.4-41.9
			c1-5.8,4.5-6.4,6.6-6.4c2,0,5.3,1.2,5.3,5.5c0,0.3,0,1.1-0.3,2.9L1225.2,931.3z"/>
		<path class="st1" d="M1244.1,921.9c-0.1,0.3-0.1,0.5-0.1,0.7c0,4.1,4,6.5,8.1,6.5c2.4,0,4.6-0.7,6.6-1.9c1.8-1.2,2.9-1.5,4-1.5
			c2.6,0,4.3,1.8,4.3,4.2c0,1.5-0.5,3.2-2.9,4.8c-3.8,2.3-8.2,3.5-13,3.5c-10.1,0-17.9-5.8-17.9-16.4c0-12.4,9.1-22.2,22-22.2
			c9.6,0,16.1,5.5,16.1,15.4c0,4.7-2,7.1-6.7,7.1h-20.5V921.9z M1260.8,913.3c0-3.2-2.4-5.6-6.7-5.6c-5.2,0-8.5,4-9.2,7.1h15.8
			C1260.8,914.3,1260.8,913.7,1260.8,913.3z"/>
		<path class="st1" d="M1298.2,927.4c1.4-0.7,2.2-1,3.5-1c2.5,0,4.3,1.8,4.3,4.2c0,1.4-0.4,3.4-3.6,5.1c-2.3,1.2-5.7,2.3-10.1,2.3
			c-10.6,0-17.7-6.4-17.7-16c0-11.9,8.9-22.5,22.4-22.5c2.9,0,6.1,0.6,8.5,1.8c2.6,1.3,3.3,3.2,3.3,4.8c0,2.4-1.8,4.9-4.9,4.9
			c-0.9,0-1.9-0.3-3.1-0.9c-1.2-0.6-2.6-1-4.1-1c-6.3,0-10.8,5.3-10.8,11.5c0,4.1,2.4,7.8,7.9,7.8
			C1295.4,928.3,1296.6,928.2,1298.2,927.4z"/>
		<path class="st1" d="M1313.7,929c0-1.2,0.2-2.9,0.4-4.2l2.8-15.4h-1.3c-3.9,0-4.6-2.6-4.6-4c0-1.8,0.9-4.8,5.3-4.8h2l0.7-4.2
			c1-5.6,4.4-6.1,6.4-6.1c1.9,0,5,1.2,5,5.2c0,0.2,0,1.1-0.3,2.8l-0.4,2.4h3c3.9,0,4.6,2.6,4.6,4c0,1.8-0.9,4.8-5.3,4.8h-3.7
			l-2.6,14.3c-0.1,1-0.2,1.5-0.2,2c0,1.8,0.8,2.7,2.3,2.7h0.7c3,0,4.4,2,4.4,4c0,3.5-3.2,5.4-8.5,5.4
			C1318.1,937.9,1313.7,935.1,1313.7,929z"/>
		<path class="st1" d="M1389.1,929.9c-0.1,1-0.2,1.5-0.3,2c-0.6,5-3.8,5.8-5.6,5.8c-1.5,0-4.8-0.7-5-4.6h-0.1
			c-2.7,3.2-6.5,4.8-11.1,4.8c-5.1,0-11.3-2.4-11.3-9.7c0-11.7,12.9-14.2,25-14.2c0.1-0.9,0.1-1.3,0.1-1.7c0-2.9-2.1-4.1-5.7-4.1
			c-2.3,0-4.6,0.7-6.9,1.8c-1.1,0.5-1.8,0.7-2.6,0.7c-2.3,0-4-1.5-4-3.7c0-1.5,0.6-3.1,3.1-4.5c2.7-1.6,7.6-2.9,11.9-2.9
			c8.7,0,15.2,3.7,15.2,11.8c0,1.3-0.1,3-0.4,4.5L1389.1,929.9z M1379,921.1c-5.9,0-12.7,0.8-12.7,5.3c0,2.9,2.4,3.7,4.8,3.7
			c4.5,0,7.7-3.1,8.5-7.2l0.4-1.8H1379z"/>
		<path class="st1" d="M1439.4,927.4c1.4-0.7,2.2-1,3.5-1c2.5,0,4.3,1.8,4.3,4.2c0,1.4-0.4,3.4-3.6,5.1c-2.3,1.2-5.7,2.3-10.1,2.3
			c-10.6,0-17.7-6.4-17.7-16c0-11.9,8.9-22.5,22.4-22.5c2.9,0,6.1,0.6,8.5,1.8c2.6,1.3,3.3,3.2,3.3,4.8c0,2.4-1.8,4.9-4.9,4.9
			c-0.9,0-1.9-0.3-3.1-0.9c-1.2-0.6-2.6-1-4.1-1c-6.3,0-10.8,5.3-10.8,11.5c0,4.1,2.4,7.8,7.9,7.8
			C1436.6,928.3,1437.8,928.2,1439.4,927.4z"/>
		<path class="st1" d="M1462.3,921.9c-0.1,0.3-0.1,0.5-0.1,0.7c0,4.1,4,6.5,8.1,6.5c2.4,0,4.6-0.7,6.6-1.9c1.8-1.2,2.9-1.5,4-1.5
			c2.6,0,4.3,1.8,4.3,4.2c0,1.5-0.5,3.2-2.9,4.8c-3.8,2.3-8.2,3.5-13,3.5c-10.1,0-17.9-5.8-17.9-16.4c0-12.4,9.1-22.2,22-22.2
			c9.6,0,16.1,5.5,16.1,15.4c0,4.7-2,7.1-6.7,7.1h-20.5V921.9z M1479,913.3c0-3.2-2.4-5.6-6.7-5.6c-5.2,0-8.5,4-9.2,7.1h15.8
			C1479,914.3,1479,913.7,1479,913.3z"/>
		<path class="st1" d="M1505,931.3c-1,5.8-4.5,6.4-6.6,6.4c-2,0-5.3-1.2-5.3-5.5c0-0.3,0-1.1,0.3-2.9l7.4-41.9
			c1-5.8,4.5-6.4,6.6-6.4c2,0,5.3,1.2,5.3,5.5c0,0.3,0,1.1-0.3,2.9L1505,931.3z"/>
		<path class="st1" d="M1525.5,931.3c-1,5.8-4.5,6.4-6.6,6.4c-2,0-5.3-1.2-5.3-5.5c0-0.3,0-1.1,0.3-2.9l7.4-41.9
			c1-5.8,4.5-6.4,6.6-6.4c2,0,5.3,1.2,5.3,5.5c0,0.3,0,1.1-0.3,2.9L1525.5,931.3z"/>
		<path class="st1" d="M1555.3,929c0-1.2,0.2-2.9,0.4-4.2l2.8-15.4h-1.3c-3.9,0-4.6-2.6-4.6-4c0-1.8,0.9-4.8,5.3-4.8h2l0.7-4.2
			c1-5.6,4.4-6.1,6.4-6.1c1.9,0,5,1.2,5,5.2c0,0.2,0,1.1-0.3,2.8l-0.4,2.4h3c3.9,0,4.6,2.6,4.6,4c0,1.8-0.9,4.8-5.3,4.8h-3.7
			l-2.6,14.3c-0.1,1-0.2,1.5-0.2,2c0,1.8,0.8,2.7,2.3,2.7h0.7c3,0,4.4,2,4.4,4c0,3.5-3.2,5.4-8.5,5.4
			C1559.6,937.9,1555.3,935.1,1555.3,929z"/>
		<path class="st1" d="M1598.1,942.5c-4.5,7.5-7.9,12.1-16.5,12.1h-0.4c-4.7,0-5.6-2.6-5.6-4.7c0-1.7,1.1-5.1,5.7-5.1
			c2.9,0,4.5-1.9,6.2-4.9l1.8-3l-7.4-28c-0.3-1.2-0.4-2.3-0.4-3.1c0-3.4,2.7-6,6.1-6c2.1,0,4.8,1,5.6,4.9l4.1,19.7h0.1l11-20.1
			c2-3.7,4.1-4.5,6.1-4.5c3.1,0,5.2,2.2,5.2,5c0,0.7-0.1,2-1,3.5L1598.1,942.5z"/>
		<path class="st1" d="M1635.2,905.6c2.7-3.7,7.1-5.9,11.9-5.9c9.6,0,15.3,6.7,15.3,15.7c0,12.5-8.5,22.7-20.2,22.7
			c-5.3,0-9.4-2.1-11.3-5.6h-0.1l-2.9,16.5c-1,5.7-4.5,6.3-6.4,6.3c-2,0-5.2-1.2-5.2-5.3c0-0.2,0-1.1,0.3-2.9l7.2-41.3
			c1-5.4,4.4-6,6.2-6c1.9,0,5,1.1,5,5v0.7L1635.2,905.6L1635.2,905.6z M1643.2,909.1c-5.9,0-10.4,5.4-10.4,11.7
			c0,4.5,2.9,7.7,7.7,7.7c6.2,0,10.2-5.2,10.2-11.6C1650.7,912.6,1648.1,909.1,1643.2,909.1z"/>
		<path class="st1" d="M1677.2,921.9c-0.1,0.3-0.1,0.5-0.1,0.7c0,4.1,4,6.5,8.1,6.5c2.4,0,4.6-0.7,6.6-1.9c1.8-1.2,2.9-1.5,4-1.5
			c2.6,0,4.3,1.8,4.3,4.2c0,1.5-0.5,3.2-2.9,4.8c-3.8,2.3-8.2,3.5-13,3.5c-10.1,0-17.9-5.8-17.9-16.4c0-12.4,9.1-22.2,22-22.2
			c9.6,0,16.1,5.5,16.1,15.4c0,4.7-2,7.1-6.7,7.1h-20.5V921.9z M1693.9,913.3c0-3.2-2.4-5.6-6.7-5.6c-5.2,0-8.5,4-9.2,7.1h15.8
			C1693.9,914.3,1693.9,913.7,1693.9,913.3z"/>
		<path class="st1" d="M1729.5,929c0-1.2,0.2-2.9,0.4-4.2l2.8-15.4h-1.3c-3.9,0-4.6-2.6-4.6-4c0-1.8,0.9-4.8,5.3-4.8h2l0.7-4.2
			c1-5.6,4.4-6.1,6.4-6.1c1.9,0,5,1.2,5,5.2c0,0.2,0,1.1-0.3,2.8l-0.4,2.4h3c3.9,0,4.6,2.6,4.6,4c0,1.8-0.9,4.8-5.3,4.8h-3.7
			l-2.6,14.3c-0.1,1-0.2,1.5-0.2,2c0,1.8,0.8,2.7,2.3,2.7h0.7c3,0,4.4,2,4.4,4c0,3.5-3.2,5.4-8.5,5.4
			C1733.9,937.9,1729.5,935.1,1729.5,929z"/>
		<path class="st1" d="M1753.1,922c0-12.1,8.5-22.5,22.2-22.5c10.8,0,18.7,6.1,18.7,16c0,12.2-8.5,22.5-22.5,22.5
			C1761,938,1753.1,931.9,1753.1,922z M1774.8,909.1c-6.2,0-10.2,5.4-10.2,11.7c0,4.4,2.8,7.6,7.6,7.6c6.3,0,10.3-5.3,10.3-11.6
			C1782.5,912.3,1779.6,909.1,1774.8,909.1z"/>
		<path class="st1" d="M1142.1,1019.1c-1,5.8-4.5,6.4-6.6,6.4c-2,0-5.3-1.2-5.3-5.5c0-0.3,0-1.1,0.3-2.9l7.4-41.9
			c1-5.8,4.5-6.4,6.6-6.4c2,0,5.3,1.2,5.3,5.5c0,0.3,0,1.1-0.3,2.9L1142.1,1019.1z"/>
		<path class="st1" d="M1161,1009.8c-0.1,0.3-0.1,0.5-0.1,0.7c0,4.1,4,6.5,8.1,6.5c2.4,0,4.6-0.7,6.6-1.9c1.8-1.2,2.9-1.5,4-1.5
			c2.6,0,4.3,1.8,4.3,4.2c0,1.5-0.5,3.2-2.9,4.8c-3.8,2.3-8.2,3.5-13,3.5c-10.1,0-17.9-5.8-17.9-16.4c0-12.4,9.1-22.2,22-22.2
			c9.6,0,16.1,5.5,16.1,15.4c0,4.7-2,7.1-6.7,7.1H1161V1009.8z M1177.7,1001.1c0-3.2-2.4-5.6-6.7-5.6c-5.2,0-8.5,4-9.2,7.1h15.8
			C1177.7,1002.1,1177.7,1001.6,1177.7,1001.1z"/>
		<path class="st1" d="M1223.5,1017.7c-0.1,1-0.2,1.5-0.3,2c-0.6,5-3.8,5.8-5.6,5.8c-1.5,0-4.8-0.7-5-4.6h-0.1
			c-2.7,3.2-6.5,4.8-11.1,4.8c-5.1,0-11.3-2.4-11.3-9.7c0-11.7,12.9-14.2,25-14.2c0.1-0.9,0.1-1.3,0.1-1.7c0-2.9-2.1-4.1-5.7-4.1
			c-2.3,0-4.6,0.7-6.9,1.8c-1.1,0.5-1.8,0.7-2.6,0.7c-2.3,0-4-1.5-4-3.7c0-1.5,0.6-3.1,3.1-4.5c2.7-1.6,7.6-2.9,11.9-2.9
			c8.7,0,15.2,3.7,15.2,11.8c0,1.3-0.1,3-0.4,4.5L1223.5,1017.7z M1213.5,1008.9c-5.9,0-12.7,0.8-12.7,5.3c0,2.9,2.4,3.7,4.8,3.7
			c4.5,0,7.7-3.1,8.5-7.2l0.4-1.8H1213.5z"/>
		<path class="st1" d="M1246.9,993.7c2.3-3.7,5.1-6.2,8.4-6.2c3.1,0,4.8,2.1,4.8,4.7c0,2.9-1.7,5.6-6,5.6c-6.1,0-8.6,5.3-9.1,8.3
			l-2.3,13.2c-1,5.7-4.5,6.3-6.4,6.3s-5.2-1.2-5.2-5.3c0-0.2,0-1.1,0.3-2.9l4.2-23.7c1-5.4,4.4-6,6.2-6c1.9,0,5,1.1,5,5
			L1246.9,993.7L1246.9,993.7L1246.9,993.7z"/>
		<path class="st1" d="M1263,993.8c1-5.6,4.5-6.1,6.4-6.1s5,1.1,5,5.1c0,0.1,0,0.3-0.1,0.9h0.1c2.3-3.6,6.4-6.2,11.4-6.2
			c8.1,0,11.6,5.1,11.6,11.1c0,1.3-0.1,2.7-0.4,4l-3,16.8c-1,5.7-4.5,6.3-6.5,6.3s-5.2-1.2-5.2-5.3c0-0.2,0-1.1,0.3-2.9l2.2-12.3
			c0.2-1.1,0.4-2.2,0.4-3.1c0-2.7-1.2-4.9-4.8-4.9c-4.2,0-6.9,3.7-7.7,8l-2.6,14.2c-1,5.7-4.5,6.3-6.5,6.3s-5.2-1.2-5.2-5.3
			c0-0.2,0-1.1,0.3-2.9L1263,993.8z"/>
		<path class="st1" d="M1337.8,993.7c2.1-3.1,5.8-6.2,11.1-6.2c5.7,0,9.2,2.6,10.5,6.4c2.8-3.8,6.7-6.4,12.1-6.4
			c8.4,0,12.1,5.6,12.1,11.5c0,0.9-0.1,2.6-0.3,3.4l-3,16.9c-1,5.7-4.5,6.3-6.5,6.3s-5.2-1.2-5.2-5.3c0-0.2,0-1.1,0.3-2.9l2.1-12.3
			c0.1-1,0.4-2.1,0.4-3.1c0-2.8-1.3-5-4.8-5c-4.1,0-6.7,4-7.4,8.2l-2.5,14.1c-1,5.7-4.5,6.3-6.5,6.3s-5.2-1.2-5.2-5.3
			c0-0.2,0-1.1,0.3-2.9l2.3-13.4c0.1-0.7,0.2-1.5,0.2-2c0-2.9-1.4-4.9-4.4-4.9c-4,0-6.5,3.7-7.3,8l-2.5,14.2c-1,5.7-4.5,6.3-6.5,6.3
			s-5.2-1.2-5.2-5.3c0-0.2,0-1.1,0.3-2.9l4.1-23.6c1-5.6,4.5-6.1,6.4-6.1s5,1.1,5,5.1c0,0.1,0,0.3-0.1,0.9L1337.8,993.7
			L1337.8,993.7z"/>
		<path class="st1" d="M1388.1,1009.8c0-12.1,8.5-22.5,22.2-22.5c10.8,0,18.7,6.1,18.7,16c0,12.2-8.5,22.5-22.5,22.5
			C1396,1025.9,1388.1,1019.7,1388.1,1009.8z M1409.8,996.9c-6.2,0-10.2,5.4-10.2,11.7c0,4.4,2.8,7.6,7.6,7.6
			c6.3,0,10.3-5.3,10.3-11.6C1417.5,1000.2,1414.6,996.9,1409.8,996.9z"/>
		<path class="st1" d="M1448.6,993.7c2.3-3.7,5.1-6.2,8.4-6.2c3.1,0,4.8,2.1,4.8,4.7c0,2.9-1.7,5.6-6,5.6c-6.1,0-8.6,5.3-9.1,8.3
			l-2.3,13.2c-1,5.7-4.5,6.3-6.4,6.3s-5.2-1.2-5.2-5.3c0-0.2,0-1.1,0.3-2.9l4.2-23.7c1-5.4,4.4-6,6.2-6c1.9,0,5,1.1,5,5
			L1448.6,993.7L1448.6,993.7L1448.6,993.7z"/>
		<path class="st1" d="M1471.1,1009.8c-0.1,0.3-0.1,0.5-0.1,0.7c0,4.1,4,6.5,8.1,6.5c2.4,0,4.6-0.7,6.6-1.9c1.8-1.2,2.9-1.5,4-1.5
			c2.6,0,4.3,1.8,4.3,4.2c0,1.5-0.5,3.2-2.9,4.8c-3.8,2.3-8.2,3.5-13,3.5c-10.1,0-17.9-5.8-17.9-16.4c0-12.4,9.1-22.2,22-22.2
			c9.6,0,16.1,5.5,16.1,15.4c0,4.7-2,7.1-6.7,7.1h-20.5V1009.8z M1487.7,1001.1c0-3.2-2.4-5.6-6.7-5.6c-5.2,0-8.5,4-9.2,7.1h15.8
			C1487.7,1002.1,1487.7,1001.6,1487.7,1001.1z"/>
		<path class="st1" d="M1553.7,1017.7c-0.1,1-0.2,1.5-0.3,2c-0.6,5-3.8,5.8-5.6,5.8c-1.5,0-4.8-0.7-5-4.6h-0.1
			c-2.7,3.2-6.5,4.8-11.1,4.8c-5.1,0-11.3-2.4-11.3-9.7c0-11.7,12.9-14.2,25-14.2c0.1-0.9,0.1-1.3,0.1-1.7c0-2.9-2.1-4.1-5.7-4.1
			c-2.3,0-4.6,0.7-6.9,1.8c-1.1,0.5-1.8,0.7-2.6,0.7c-2.3,0-4-1.5-4-3.7c0-1.5,0.6-3.1,3.1-4.5c2.7-1.6,7.6-2.9,11.9-2.9
			c8.7,0,15.2,3.7,15.2,11.8c0,1.3-0.1,3-0.4,4.5L1553.7,1017.7z M1543.7,1008.9c-5.9,0-12.7,0.8-12.7,5.3c0,2.9,2.4,3.7,4.8,3.7
			c4.5,0,7.7-3.1,8.5-7.2l0.4-1.8H1543.7z"/>
		<path class="st1" d="M1569.1,975.1c1-5.7,4.5-6.3,6.5-6.3s5.2,1.2,5.2,5.3c0,0.2,0,1.1-0.3,2.9l-2.9,16.1h0.1
			c2.6-3.4,7-5.6,11.6-5.6c9.4,0,15.1,6.6,15.1,15.7c0,12.5-8.5,22.6-20.1,22.6c-5.1,0-9.9-2.3-12.1-6.1h-0.1
			c-0.9,5.3-4.2,5.9-6,5.9s-4.8-1.1-4.8-4.9c0-0.1,0-1,0.3-2.6L1569.1,975.1z M1585.3,996.9c-5.9,0-10.3,5.4-10.3,11.7
			c0,4.5,2.9,7.7,7.7,7.7c6.2,0,10.2-5.2,10.2-11.6C1592.8,1000.2,1590.2,996.9,1585.3,996.9z"/>
		<path class="st1" d="M1608.3,1009.8c0-12.1,8.5-22.5,22.2-22.5c10.8,0,18.7,6.1,18.7,16c0,12.2-8.5,22.5-22.5,22.5
			C1616.3,1025.9,1608.3,1019.7,1608.3,1009.8z M1630,996.9c-6.2,0-10.2,5.4-10.2,11.7c0,4.4,2.8,7.6,7.6,7.6
			c6.3,0,10.3-5.3,10.3-11.6C1637.7,1000.2,1634.9,996.9,1630,996.9z"/>
		<path class="st1" d="M1688.1,1019.4c-1,5.6-4.4,6.1-6.3,6.1s-5-1.1-5-5.1c0-0.1,0-0.3,0.1-0.9h-0.2c-2.3,3.5-6.4,6.2-11.4,6.2
			c-8,0-11.6-5.2-11.6-11.1c0-1.2,0.1-2.6,0.4-4l2.9-16.8c1-5.7,4.5-6.3,6.5-6.3s5.2,1.2,5.2,5.3c0,0.2,0,1.1-0.3,2.9l-2.2,12.3
			c-0.2,1-0.3,2.1-0.3,3.1c0,2.6,1.2,4.9,4.8,4.9c4.2,0,7-3.7,7.7-8l2.5-14.1c1-5.7,4.5-6.3,6.5-6.3s5.2,1.2,5.2,5.3
			c0,0.2,0,1.1-0.3,2.9L1688.1,1019.4z"/>
		<path class="st1" d="M1699,1016.9c0-1.2,0.2-2.9,0.4-4.2l2.8-15.4h-1.3c-3.9,0-4.6-2.6-4.6-4c0-1.8,0.9-4.8,5.3-4.8h2l0.7-4.2
			c1-5.6,4.4-6.1,6.4-6.1c1.9,0,5,1.2,5,5.2c0,0.2,0,1.1-0.3,2.8l-0.4,2.4h3c3.9,0,4.6,2.6,4.6,4c0,1.8-0.9,4.8-5.3,4.8h-3.7
			l-2.6,14.3c-0.1,1-0.2,1.5-0.2,2c0,1.8,0.8,2.7,2.3,2.7h0.7c3,0,4.4,2,4.4,4c0,3.5-3.2,5.4-8.5,5.4
			C1703.3,1025.7,1699,1022.9,1699,1016.9z"/>
		<path class="st1" d="M1746.6,994c1-5.7,4.5-6.3,6.5-6.3s5.2,1.2,5.2,5.3c0,0.2,0,1.1-0.3,2.9l-4.1,23.4c-1,5.7-4.5,6.3-6.5,6.3
			s-5.2-1.2-5.2-5.3c0-0.2,0-1.1,0.3-2.9L1746.6,994z M1755.1,983.2c-3.7,0-6.4-2.5-6.4-5.9c0-4,3.1-7,7-7c3.6,0,6.2,2.6,6.2,5.9
			C1761.9,980,1759,983.2,1755.1,983.2z"/>
		<path class="st1" d="M1764.4,1016.9c0-1.2,0.2-2.9,0.4-4.2l2.8-15.4h-1.3c-3.9,0-4.6-2.6-4.6-4c0-1.8,0.9-4.8,5.3-4.8h2l0.7-4.2
			c1-5.6,4.4-6.1,6.4-6.1c1.9,0,5,1.2,5,5.2c0,0.2,0,1.1-0.3,2.8l-0.4,2.4h3c3.9,0,4.6,2.6,4.6,4c0,1.8-0.9,4.8-5.3,4.8h-3.7
			l-2.6,14.3c-0.1,1-0.2,1.5-0.2,2c0,1.8,0.8,2.7,2.3,2.7h0.7c3,0,4.4,2,4.4,4c0,3.5-3.2,5.4-8.5,5.4
			C1768.7,1025.7,1764.4,1022.9,1764.4,1016.9z"/>
		<path class="st1" d="M1795,1025.3c-4,0-6.7-2.6-6.7-6.2c0-4.2,3.2-7.5,7.4-7.5c3.8,0,6.6,2.7,6.6,6.3
			C1802.2,1022,1799.1,1025.3,1795,1025.3z"/>
	</g>
	<g>
		<path class="st0" d="M411,758c0-5.5,3.8-6.3,5.6-6.3c1.8,0,5.1,0.8,5.6,5.1h0.2c2.2-2.9,6.2-5.4,11.5-5.4c10.5,0,17,8.8,17,18.8
			s-6.3,19.1-17.1,19.1c-4.4,0-8.7-1.9-10.9-5h-0.1v15.4c0,5.7-4,6.6-5.9,6.6s-5.9-0.9-5.9-6.6L411,758L411,758z M431,761
			c-5.3,0-8.7,4.7-8.7,9.2c0,4.7,3.3,9.2,8.7,9.2c5.6,0,8.4-4.6,8.4-9.3C439.5,765.5,436.6,761,431,761z"/>
		<path class="st0" d="M457.3,739.7c0-5.8,4-6.7,6-6.7c1.9,0,6,0.9,6,6.7v42.6c0,5.8-4,6.7-6,6.7c-1.9,0-6-0.9-6-6.7V739.7z"/>
		<path class="st0" d="M482.5,763c-2.3,0-4.2-1.8-4.2-4.3c0-1.4,0.6-3,2.8-4.4c3.8-2.3,8.1-3.2,11.9-3.2c12.1,0,16.5,5.9,16.5,19
			v12.6c0,5.3-3.7,6.2-5.5,6.2c-1.6,0-4.7-0.7-5.3-4.5h-0.2c-1.8,3-5.9,4.7-10.2,4.7c-5.7,0-13.1-2.8-13.1-11.3
			c0-10.4,12.6-12.1,23.1-12.1v-0.6c0-3.2-2.5-5.2-6.1-5.2c-2.3,0-4.7,1.2-7,2.3C484.2,762.8,483.3,763,482.5,763z M498.7,772.6
			h-1.5c-5.2,0-11,0.6-11,4.9c0,2.7,2.7,3.7,5.1,3.7c4.8,0,7.4-2.9,7.4-7.4V772.6z"/>
		<path class="st0" d="M517.4,758c0-5.5,3.8-6.3,5.7-6.3s5.6,0.9,5.8,5.7h0.1c1.7-3.2,5.8-6,10.8-6c9.7,0,13.1,7.5,13.1,14.7v16.3
			c0,5.7-4,6.6-6,6.6c-1.9,0-5.9-0.9-5.9-6.6v-13.7c0-4-1.1-7.6-5.3-7.6s-6.4,3.6-6.4,7.7v13.6c0,5.7-4,6.6-6,6.6
			c-1.9,0-5.9-0.9-5.9-6.6L517.4,758L517.4,758z"/>
		<path class="st0" d="M562.1,748.7c0-5.6,4-6.5,5.8-6.5s5.8,0.9,5.8,6.5v3.7h4.2c4.2,0,5,3,5,4.4s-0.8,4.5-5,4.5h-4.2V775
			c0,3.3,0.9,4.9,3.5,4.9c0.4,0,0.6,0,0.9,0c3,0,4.4,2.2,4.4,4.3c0,3.8-3.4,5.1-7.6,5.1c-9.6,0-12.8-5.1-12.8-12.8v-15.2h-1.5
			c-4.2,0-5-3-5-4.5c0-1.4,0.8-4.4,5-4.4h1.4L562.1,748.7L562.1,748.7z"/>
		<path class="st0" d="M604,770.3c0-11.7,8.9-19.1,20.1-19.1c2.9,0,5.8,0.6,7.9,1.6c2.7,1.3,3.5,3.2,3.5,4.8c0,2.7-1.7,5.1-4.8,5.1
			c-0.9,0-1.9-0.2-3.2-0.9c-1-0.5-2-0.7-3.2-0.7c-5,0-8.3,4.3-8.3,9.2c0,5,3.2,9.2,8.4,9.2c1.2,0,2.2-0.1,3.2-0.6
			c1.3-0.6,2.3-0.9,3.2-0.9c3.2,0,4.8,2.4,4.8,5.1c0,1.5-0.9,3.5-3.5,4.8c-2.2,1.1-5.1,1.6-8,1.6C612.8,789.4,604,782.2,604,770.3z"
			/>
		<path class="st0" d="M669.2,776.7c2.6,0,4.5,1.8,4.5,4.5c0,1-0.4,2.7-2.1,4c-3.1,2.5-7.4,4.2-13.2,4.2c-10.8,0-19.8-6.9-19.8-19
			c0-11.8,8.5-19.3,19.4-19.3c9,0,15.5,5.3,17.5,13.9c0.2,1,0.4,1.9,0.4,2.7c0,4-2.4,5.7-6.1,5.7H650c0.4,4,4.3,6.8,8.6,6.8
			c2.7,0,4.5-0.5,6.9-2.1C667.2,777,668,776.7,669.2,776.7z M665.2,766.2c0-3.8-2.4-6.9-7.1-6.9c-4.5,0-7.9,3.2-8.2,6.9H665.2z"/>
		<path class="st0" d="M682.2,739.7c0-5.8,4-6.7,6-6.7s6,0.9,6,6.7v42.6c0,5.8-4,6.7-6,6.7s-6-0.9-6-6.7V739.7z"/>
		<path class="st0" d="M702.5,739.7c0-5.8,4-6.7,6-6.7s6,0.9,6,6.7v42.6c0,5.8-4,6.7-6,6.7s-6-0.9-6-6.7V739.7z"/>
	</g>
	<g>
		<path class="st0" d="M1263.4,283.2c-2.3,0-4.2-1.8-4.2-4.3c0-1.4,0.6-3,2.8-4.4c3.8-2.3,8.1-3.2,11.9-3.2c12.1,0,16.5,5.9,16.5,19
			V303c0,5.3-3.7,6.2-5.5,6.2c-1.6,0-4.7-0.7-5.3-4.5h-0.2c-1.8,3-5.9,4.7-10.2,4.7c-5.7,0-13.1-2.8-13.1-11.3
			c0-10.4,12.6-12.1,23.1-12.1v-0.6c0-3.2-2.5-5.2-6.1-5.2c-2.3,0-4.7,1.2-7,2.3C1265.1,283,1264.2,283.2,1263.4,283.2z
			 M1279.6,292.8h-1.5c-5.2,0-11,0.6-11,4.9c0,2.7,2.7,3.7,5.1,3.7c4.8,0,7.4-2.9,7.4-7.4V292.8z"/>
		<path class="st0" d="M1298.3,278.1c0-5.5,3.8-6.4,5.7-6.4c1.9,0,5.6,0.9,5.8,5.7h0.1c1.7-3.2,5.8-6,10.8-6
			c9.7,0,13.1,7.5,13.1,14.7v16.3c0,5.7-4,6.6-6,6.6c-1.9,0-5.9-0.9-5.9-6.6v-13.7c0-4-1.1-7.6-5.3-7.6c-4.2,0-6.3,3.6-6.3,7.7v13.6
			c0,5.7-4,6.6-6,6.6c-1.9,0-5.9-0.9-5.9-6.6L1298.3,278.1L1298.3,278.1z"/>
		<path class="st0" d="M1347.4,267.5c-3.8,0-6.8-3-6.8-6.5s3-6.5,6.8-6.5s6.8,2.9,6.8,6.5C1354.2,264.7,1351.2,267.5,1347.4,267.5z
			 M1341.5,278.4c0-5.7,4-6.6,5.9-6.6s5.9,0.9,5.9,6.6v24.1c0,5.7-4,6.6-5.9,6.6s-5.9-0.9-5.9-6.6V278.4z"/>
		<path class="st0" d="M1373,277.5c1.7-3,5.3-6,10.8-6c5.2,0,8.8,2.2,10.8,6.1c2.4-3.8,6.1-6.1,11.5-6.1c9.7,0,13.1,7.9,13.1,14.7
			v16.3c0,5.7-4,6.6-5.9,6.6s-5.9-0.9-5.9-6.6v-13.7c0-4.1-0.9-7.6-5.1-7.6c-4,0-6,3.8-6,7.8v13.5c0,5.7-4,6.6-5.9,6.6
			s-5.9-0.9-5.9-6.6V288c0-4.1-1.6-6.7-5.1-6.7c-3.8,0-5.9,3.4-5.9,7.7v13.6c0,5.7-4,6.6-6,6.6c-1.9,0-5.9-0.9-5.9-6.6v-24.4
			c0-5.5,3.8-6.4,5.7-6.4C1369.2,271.8,1372.9,272.7,1373,277.5L1373,277.5L1373,277.5z"/>
		<path class="st0" d="M1432,283.2c-2.3,0-4.2-1.8-4.2-4.3c0-1.4,0.6-3,2.8-4.4c3.8-2.3,8.1-3.2,11.9-3.2c12.1,0,16.5,5.9,16.5,19
			V303c0,5.3-3.7,6.2-5.5,6.2c-1.6,0-4.7-0.7-5.3-4.5h-0.2c-1.8,3-5.9,4.7-10.2,4.7c-5.7,0-13.1-2.8-13.1-11.3
			c0-10.4,12.6-12.1,23.1-12.1v-0.6c0-3.2-2.5-5.2-6.1-5.2c-2.3,0-4.7,1.2-7,2.3C1433.7,283,1432.8,283.2,1432,283.2z M1448.2,292.8
			h-1.5c-5.2,0-11,0.6-11,4.9c0,2.7,2.7,3.7,5.1,3.7c4.8,0,7.4-2.9,7.4-7.4V292.8z"/>
		<path class="st0" d="M1466.9,259.9c0-5.8,4-6.7,6-6.7s6,0.9,6,6.7v42.6c0,5.8-4,6.7-6,6.7s-6-0.9-6-6.7V259.9z"/>
		<path class="st0" d="M1504.5,290.5c0-11.7,8.9-19.1,20.1-19.1c2.9,0,5.8,0.6,7.9,1.6c2.7,1.3,3.5,3.2,3.5,4.8
			c0,2.7-1.7,5.1-4.8,5.1c-0.9,0-1.9-0.2-3.2-0.9c-1-0.5-2-0.7-3.2-0.7c-5,0-8.3,4.3-8.3,9.2c0,5,3.2,9.2,8.4,9.2
			c1.2,0,2.2-0.1,3.2-0.6c1.3-0.6,2.3-0.9,3.2-0.9c3.2,0,4.8,2.4,4.8,5.1c0,1.5-0.9,3.5-3.5,4.8c-2.2,1.1-5.1,1.6-8,1.6
			C1513.3,309.6,1504.5,302.4,1504.5,290.5z"/>
		<path class="st0" d="M1569.8,296.9c2.6,0,4.5,1.8,4.5,4.5c0,1-0.4,2.7-2.1,4c-3.1,2.5-7.4,4.2-13.2,4.2c-10.8,0-19.8-6.9-19.8-19
			c0-11.8,8.5-19.3,19.4-19.3c9,0,15.5,5.3,17.5,13.9c0.2,1,0.4,1.9,0.4,2.7c0,4-2.4,5.7-6.1,5.7h-19.8c0.4,4,4.3,6.8,8.6,6.8
			c2.7,0,4.5-0.5,6.9-2.1C1567.8,297.2,1568.6,296.9,1569.8,296.9z M1565.8,286.4c0-3.8-2.4-6.9-7.1-6.9c-4.5,0-7.9,3.2-8.2,6.9
			H1565.8z"/>
		<path class="st0" d="M1582.8,259.9c0-5.8,4-6.7,6-6.7s6,0.9,6,6.7v42.6c0,5.8-4,6.7-6,6.7s-6-0.9-6-6.7V259.9z"/>
		<path class="st0" d="M1603,259.9c0-5.8,4-6.7,6-6.7s6,0.9,6,6.7v42.6c0,5.8-4,6.7-6,6.7s-6-0.9-6-6.7V259.9z"/>
	</g>
	<g>
		<path class="st3" d="M1263.4,754.8c0-5.7,4-6.6,5.9-6.6s5.9,0.9,5.9,6.6v16.5h0.1c2-2.4,5.7-4.8,11-4.8c10.5,0,17,8.8,17,18.8
			s-6.3,19.1-17.1,19.1c-4.8,0-9.5-2.1-11.8-5.7h-0.1c-0.2,4.5-3.6,5.4-5.4,5.4s-5.5-0.9-5.5-6.2V754.8z M1283.4,776.2
			c-5.3,0-8.7,4.7-8.7,9.2c0,4.7,3.3,9.2,8.7,9.2c5.6,0,8.5-4.6,8.5-9.3C1291.9,780.7,1289,776.2,1283.4,776.2z"/>
		<path class="st3" d="M1314.4,778.2c-2.3,0-4.2-1.8-4.2-4.3c0-1.4,0.6-3,2.8-4.4c3.8-2.3,8.1-3.2,11.9-3.2c12.1,0,16.5,5.9,16.5,19
			v12.6c0,5.3-3.7,6.2-5.5,6.2c-1.6,0-4.7-0.7-5.3-4.5h-0.2c-1.8,3-5.9,4.7-10.2,4.7c-5.7,0-13.1-2.8-13.1-11.3
			c0-10.4,12.6-12.1,23.1-12.1v-0.6c0-3.2-2.5-5.2-6.1-5.2c-2.3,0-4.7,1.2-7,2.3C1316.2,778,1315.2,778.2,1314.4,778.2z
			 M1330.7,787.8h-1.5c-5.2,0-11,0.6-11,4.9c0,2.7,2.7,3.7,5.1,3.7c4.8,0,7.4-2.9,7.4-7.4V787.8z"/>
		<path class="st3" d="M1347.3,785.5c0-11.7,8.9-19.1,20.1-19.1c2.9,0,5.8,0.6,7.9,1.6c2.7,1.3,3.5,3.2,3.5,4.8
			c0,2.7-1.7,5.1-4.8,5.1c-0.9,0-1.9-0.2-3.2-0.9c-1-0.5-2-0.7-3.2-0.7c-5,0-8.3,4.3-8.3,9.2c0,5,3.2,9.2,8.4,9.2
			c1.2,0,2.2-0.1,3.2-0.6c1.3-0.6,2.3-0.9,3.2-0.9c3.2,0,4.8,2.4,4.8,5.1c0,1.5-0.9,3.5-3.5,4.8c-2.2,1.1-5.1,1.6-8,1.6
			C1356.1,804.6,1347.3,797.4,1347.3,785.5z"/>
		<path class="st3" d="M1387.7,763.8c0-5.6,4-6.5,5.8-6.5s5.8,0.9,5.8,6.5v3.7h4.2c4.2,0,5,3,5,4.4s-0.8,4.5-5,4.5h-4.2v13.7
			c0,3.3,0.9,4.9,3.5,4.9c0.4,0,0.6,0,0.9,0c3,0,4.4,2.2,4.4,4.3c0,3.8-3.4,5.1-7.6,5.1c-9.6,0-12.8-5.1-12.8-12.8v-15.2h-1.5
			c-4.2,0-5-3-5-4.5c0-1.4,0.8-4.4,5-4.4h1.4L1387.7,763.8L1387.7,763.8z"/>
		<path class="st3" d="M1441.1,791.9c2.6,0,4.5,1.8,4.5,4.5c0,1-0.4,2.7-2.1,4c-3.1,2.5-7.4,4.2-13.2,4.2c-10.8,0-19.8-6.9-19.8-19
			c0-11.8,8.5-19.3,19.4-19.3c9,0,15.5,5.3,17.5,13.9c0.2,1,0.4,1.9,0.4,2.7c0,4-2.4,5.7-6.1,5.7h-19.8c0.4,4,4.3,6.8,8.6,6.8
			c2.7,0,4.5-0.5,6.9-2.1C1439.1,792.2,1439.9,791.9,1441.1,791.9z M1437.1,781.4c0-3.8-2.4-6.9-7.1-6.9c-4.5,0-7.9,3.2-8.2,6.9
			H1437.1z"/>
		<path class="st3" d="M1454,773.1c0-5.5,3.8-6.3,5.7-6.3c1.8,0,5.7,0.9,5.7,5.9h0.1c1.4-3,3.8-6.1,7.5-6.1c3.3,0,5.3,2.2,5.3,5.2
			c0,2.7-1.5,5.3-6.1,5.6c-4.1,0.3-6.4,3.5-6.4,7.6v12.6c0,5.7-4,6.6-5.9,6.6s-5.9-0.9-5.9-6.6L1454,773.1L1454,773.1z"/>
		<path class="st3" d="M1488,762.5c-3.8,0-6.8-3-6.8-6.5s3-6.5,6.8-6.5s6.8,2.9,6.8,6.5C1494.8,759.7,1491.8,762.5,1488,762.5z
			 M1482.1,773.4c0-5.7,4-6.6,5.9-6.6s5.9,0.9,5.9,6.6v24.1c0,5.7-4,6.6-5.9,6.6s-5.9-0.9-5.9-6.6V773.4z"/>
		<path class="st3" d="M1507,778.2c-2.3,0-4.2-1.8-4.2-4.3c0-1.4,0.6-3,2.8-4.4c3.8-2.3,8.1-3.2,11.9-3.2c12.1,0,16.5,5.9,16.5,19
			v12.6c0,5.3-3.7,6.2-5.5,6.2c-1.6,0-4.7-0.7-5.3-4.5h-0.2c-1.8,3-5.9,4.7-10.2,4.7c-5.7,0-13.1-2.8-13.1-11.3
			c0-10.4,12.6-12.1,23.1-12.1v-0.6c0-3.2-2.5-5.2-6.1-5.2c-2.3,0-4.7,1.2-7,2.3C1508.7,778,1507.8,778.2,1507,778.2z M1523.2,787.8
			h-1.5c-5.2,0-11,0.6-11,4.9c0,2.7,2.7,3.7,5.1,3.7c4.8,0,7.4-2.9,7.4-7.4V787.8z"/>
		<path class="st3" d="M1541.9,754.9c0-5.8,4-6.7,6-6.7s6,0.9,6,6.7v42.6c0,5.8-4,6.7-6,6.7s-6-0.9-6-6.7V754.9z"/>
		<path class="st3" d="M1579.5,785.5c0-11.7,8.9-19.1,20.1-19.1c2.9,0,5.8,0.6,7.9,1.6c2.7,1.3,3.5,3.2,3.5,4.8
			c0,2.7-1.7,5.1-4.8,5.1c-0.9,0-1.9-0.2-3.2-0.9c-1-0.5-2-0.7-3.2-0.7c-5,0-8.3,4.3-8.3,9.2c0,5,3.2,9.2,8.4,9.2
			c1.2,0,2.2-0.1,3.2-0.6c1.3-0.6,2.3-0.9,3.2-0.9c3.2,0,4.8,2.4,4.8,5.1c0,1.5-0.9,3.5-3.5,4.8c-2.2,1.1-5.1,1.6-8,1.6
			C1588.3,804.6,1579.5,797.4,1579.5,785.5z"/>
		<path class="st3" d="M1644.7,791.9c2.6,0,4.5,1.8,4.5,4.5c0,1-0.4,2.7-2.1,4c-3.1,2.5-7.4,4.2-13.2,4.2c-10.8,0-19.8-6.9-19.8-19
			c0-11.8,8.5-19.3,19.4-19.3c9,0,15.5,5.3,17.5,13.9c0.2,1,0.4,1.9,0.4,2.7c0,4-2.4,5.7-6.1,5.7h-19.8c0.4,4,4.3,6.8,8.6,6.8
			c2.7,0,4.5-0.5,6.9-2.1C1642.8,792.2,1643.6,791.9,1644.7,791.9z M1640.7,781.4c0-3.8-2.4-6.9-7.1-6.9c-4.5,0-7.9,3.2-8.2,6.9
			H1640.7z"/>
		<path class="st3" d="M1657.7,754.9c0-5.8,4-6.7,6-6.7s6,0.9,6,6.7v42.6c0,5.8-4,6.7-6,6.7s-6-0.9-6-6.7V754.9z"/>
		<path class="st3" d="M1678,754.9c0-5.8,4-6.7,6-6.7s6,0.9,6,6.7v42.6c0,5.8-4,6.7-6,6.7s-6-0.9-6-6.7V754.9z"/>
	</g>
</g>
<g id="bacteria-small-label" style="opacity:0">
	<path class="st0" d="M1673.9,96.1c0-4.4,3.1-5.1,4.6-5.1s4.6,0.7,4.6,5.1v12.8h0.1c1.6-1.8,4.4-3.7,8.5-3.7
		c8.1,0,13.1,6.8,13.1,14.5c0,7.7-4.8,14.8-13.2,14.8c-3.7,0-7.3-1.6-9.1-4.4h-0.1c-0.2,3.5-2.8,4.2-4.2,4.2c-1.4,0-4.2-0.7-4.2-4.8
		V96.1z M1689.3,112.5c-4.1,0-6.7,3.6-6.7,7.1c0,3.6,2.6,7.1,6.7,7.1c4.3,0,6.6-3.6,6.6-7.2C1695.9,116.1,1693.6,112.5,1689.3,112.5
		z"/>
	<path class="st0" d="M1713.5,114.1c-1.8,0-3.2-1.4-3.2-3.3c0-1.1,0.4-2.3,2.2-3.4c2.9-1.8,6.2-2.5,9.2-2.5
		c9.3,0,12.8,4.6,12.8,14.6v9.7c0,4.1-2.8,4.8-4.2,4.8c-1.2,0-3.6-0.6-4.1-3.5h-0.2c-1.4,2.3-4.6,3.6-7.9,3.6
		c-4.4,0-10.1-2.2-10.1-8.7c0-8,9.7-9.4,17.8-9.4v-0.4c0-2.5-1.9-4-4.7-4c-1.8,0-3.6,0.9-5.4,1.8
		C1714.8,113.9,1714.1,114.1,1713.5,114.1z M1726,121.5h-1.2c-4,0-8.5,0.5-8.5,3.8c0,2.1,2.1,2.8,4,2.8c3.7,0,5.7-2.2,5.7-5.7V121.5
		z"/>
	<path class="st0" d="M1739.1,119.7c0-9,6.9-14.8,15.5-14.8c2.2,0,4.5,0.4,6.1,1.2c2.1,1,2.7,2.5,2.7,3.7c0,2.1-1.3,4-3.7,4
		c-0.7,0-1.4-0.2-2.5-0.7c-0.8-0.4-1.6-0.6-2.5-0.6c-3.8,0-6.4,3.3-6.4,7.1c0,3.8,2.5,7.1,6.5,7.1c0.9,0,1.7-0.1,2.5-0.5
		c1-0.5,1.8-0.7,2.5-0.7c2.5,0,3.7,1.8,3.7,4c0,1.2-0.7,2.7-2.7,3.7c-1.7,0.8-4,1.2-6.2,1.2C1745.9,134.5,1739.1,128.9,1739.1,119.7
		z"/>
	<path class="st0" d="M1770.5,103c0-4.3,3.1-5,4.5-5c1.4,0,4.5,0.7,4.5,5v2.8h3.2c3.2,0,3.8,2.3,3.8,3.4c0,1.1-0.6,3.5-3.8,3.5h-3.2
		v10.6c0,2.6,0.7,3.8,2.7,3.8c0.3,0,0.4,0,0.7,0c2.3,0,3.4,1.7,3.4,3.3c0,2.9-2.6,3.9-5.9,3.9c-7.4,0-9.9-4-9.9-9.9v-11.7h-1.2
		c-3.2,0-3.8-2.3-3.8-3.5c0-1.1,0.6-3.4,3.8-3.4h1.1V103z"/>
	<path class="st0" d="M1812,124.7c2,0,3.5,1.4,3.5,3.5c0,0.8-0.3,2.1-1.6,3.1c-2.4,1.9-5.7,3.2-10.2,3.2c-8.4,0-15.3-5.3-15.3-14.6
		c0-9.1,6.6-14.9,15-14.9c7,0,12,4.1,13.5,10.7c0.2,0.8,0.3,1.4,0.3,2.1c0,3.1-1.8,4.4-4.7,4.4h-15.3c0.3,3.1,3.3,5.2,6.6,5.2
		c2.1,0,3.5-0.4,5.3-1.6C1810.5,124.9,1811.1,124.7,1812,124.7z M1808.9,116.6c0-2.9-1.8-5.3-5.5-5.3c-3.5,0-6.1,2.5-6.3,5.3H1808.9
		z"/>
	<path class="st0" d="M1822.2,110.2c0-4.2,3-4.9,4.4-4.9c1.4,0,4.4,0.7,4.4,4.6h0.1c1.1-2.3,2.9-4.7,5.8-4.7c2.6,0,4.1,1.7,4.1,4
		c0,2.1-1.2,4.1-4.7,4.3c-3.2,0.2-5,2.7-5,5.8v9.7c0,4.4-3.1,5.1-4.6,5.1s-4.6-0.7-4.6-5.1V110.2z"/>
	<path class="st0" d="M1848.7,102c-3,0-5.2-2.3-5.2-5c0-2.7,2.3-5,5.2-5c2.9,0,5.2,2.2,5.2,5C1853.9,99.9,1851.6,102,1848.7,102z
		 M1844.1,110.4c0-4.4,3.1-5.1,4.6-5.1c1.5,0,4.6,0.7,4.6,5.1V129c0,4.4-3.1,5.1-4.6,5.1c-1.5,0-4.6-0.7-4.6-5.1V110.4z"/>
	<path class="st0" d="M1863.6,114.1c-1.8,0-3.2-1.4-3.2-3.3c0-1.1,0.4-2.3,2.2-3.4c2.9-1.8,6.2-2.5,9.2-2.5
		c9.3,0,12.8,4.6,12.8,14.6v9.7c0,4.1-2.8,4.8-4.2,4.8c-1.2,0-3.6-0.6-4.1-3.5h-0.2c-1.4,2.3-4.6,3.6-7.9,3.6
		c-4.4,0-10.1-2.2-10.1-8.7c0-8,9.7-9.4,17.8-9.4v-0.4c0-2.5-1.9-4-4.7-4c-1.8,0-3.6,0.9-5.4,1.8
		C1864.9,113.9,1864.2,114.1,1863.6,114.1z M1876.1,121.5h-1.2c-4,0-8.5,0.5-8.5,3.8c0,2.1,2.1,2.8,4,2.8c3.7,0,5.7-2.2,5.7-5.7
		V121.5z"/>
</g>
<g id="animal-small-label-l" style="opacity:0">
	<path class="st0" d="M53.6,117.3c-1.8,0-3.2-1.4-3.2-3.3c0-1.1,0.4-2.3,2.2-3.4c2.9-1.8,6.2-2.5,9.2-2.5c9.3,0,12.8,4.6,12.8,14.6
		v9.7c0,4.1-2.8,4.8-4.2,4.8c-1.2,0-3.6-0.6-4.1-3.5h-0.2c-1.4,2.3-4.6,3.6-7.9,3.6c-4.4,0-10.1-2.2-10.1-8.7c0-8,9.7-9.4,17.8-9.4
		V119c0-2.5-1.9-4-4.7-4c-1.8,0-3.6,0.9-5.4,1.8C54.9,117.1,54.2,117.3,53.6,117.3z M66.1,124.7h-1.2c-4,0-8.5,0.5-8.5,3.8
		c0,2.1,2.1,2.8,4,2.8c3.7,0,5.7-2.2,5.7-5.7V124.7z"/>
	<path class="st0" d="M80.7,113.4c0-4.2,3-4.9,4.4-4.9c1.4,0,4.3,0.7,4.5,4.4h0.1c1.3-2.5,4.5-4.6,8.3-4.6c7.5,0,10.1,5.8,10.1,11.4
		v12.6c0,4.4-3.1,5.1-4.6,5.1c-1.5,0-4.6-0.7-4.6-5.1v-10.6c0-3.1-0.8-5.8-4.1-5.8c-3.2,0-4.9,2.8-4.9,6v10.5c0,4.4-3.1,5.1-4.6,5.1
		c-1.5,0-4.6-0.7-4.6-5.1V113.4z"/>
	<path class="st0" d="M119,105.2c-3,0-5.2-2.3-5.2-5c0-2.7,2.3-5,5.2-5c2.9,0,5.2,2.2,5.2,5C124.2,103.1,121.9,105.2,119,105.2z
		 M114.4,113.6c0-4.4,3.1-5.1,4.6-5.1c1.5,0,4.6,0.7,4.6,5.1v18.6c0,4.4-3.1,5.1-4.6,5.1c-1.5,0-4.6-0.7-4.6-5.1V113.6z"/>
	<path class="st0" d="M139,112.9c1.3-2.3,4.1-4.6,8.3-4.6c4,0,6.8,1.7,8.4,4.7c1.8-2.9,4.7-4.7,8.9-4.7c7.5,0,10.1,6.1,10.1,11.4
		v12.6c0,4.4-3.1,5.1-4.6,5.1s-4.6-0.7-4.6-5.1v-10.6c0-3.2-0.7-5.8-4-5.8c-3.1,0-4.6,2.9-4.6,6v10.4c0,4.4-3.1,5.1-4.6,5.1
		s-4.6-0.7-4.6-5.1V121c0-3.2-1.2-5.2-4-5.2c-2.9,0-4.6,2.6-4.6,6v10.5c0,4.4-3.1,5.1-4.6,5.1c-1.5,0-4.6-0.7-4.6-5.1v-18.8
		c0-4.2,3-4.9,4.4-4.9c1.4,0,4.3,0.7,4.5,4.4H139z"/>
	<path class="st0" d="M184.7,117.3c-1.8,0-3.2-1.4-3.2-3.3c0-1.1,0.4-2.3,2.2-3.4c2.9-1.8,6.2-2.5,9.2-2.5c9.3,0,12.8,4.6,12.8,14.6
		v9.7c0,4.1-2.8,4.8-4.2,4.8c-1.2,0-3.6-0.6-4.1-3.5h-0.2c-1.4,2.3-4.6,3.6-7.9,3.6c-4.4,0-10.1-2.2-10.1-8.7c0-8,9.7-9.4,17.8-9.4
		V119c0-2.5-1.9-4-4.7-4c-1.8,0-3.6,0.9-5.4,1.8C186.1,117.1,185.4,117.3,184.7,117.3z M197.3,124.7h-1.2c-4,0-8.5,0.5-8.5,3.8
		c0,2.1,2.1,2.8,4,2.8c3.7,0,5.7-2.2,5.7-5.7V124.7z"/>
	<path class="st0" d="M212,99.3c0-4.5,3.1-5.2,4.6-5.2s4.6,0.7,4.6,5.2v32.9c0,4.5-3.1,5.2-4.6,5.2s-4.6-0.7-4.6-5.2V99.3z"/>
</g>
<g id="animal-small-label-r" style="opacity:0">
	<path class="st0" d="M1705.5,120.3c-1.8,0-3.2-1.4-3.2-3.3c0-1.1,0.4-2.3,2.2-3.4c2.9-1.8,6.2-2.5,9.2-2.5
		c9.3,0,12.8,4.6,12.8,14.6v9.7c0,4.1-2.8,4.8-4.2,4.8c-1.2,0-3.6-0.6-4.1-3.5h-0.2c-1.4,2.3-4.6,3.6-7.9,3.6
		c-4.4,0-10.1-2.2-10.1-8.7c0-8,9.7-9.4,17.8-9.4V122c0-2.5-1.9-4-4.7-4c-1.8,0-3.6,0.9-5.4,1.8
		C1706.8,120.1,1706.1,120.3,1705.5,120.3z M1718,127.7h-1.2c-4,0-8.5,0.5-8.5,3.8c0,2.1,2.1,2.8,4,2.8c3.7,0,5.7-2.2,5.7-5.7V127.7
		z"/>
	<path class="st0" d="M1732.6,116.4c0-4.2,3-4.9,4.4-4.9c1.4,0,4.3,0.7,4.5,4.4h0.1c1.3-2.5,4.5-4.6,8.3-4.6
		c7.5,0,10.1,5.8,10.1,11.4v12.6c0,4.4-3.1,5.1-4.6,5.1c-1.5,0-4.6-0.7-4.6-5.1v-10.6c0-3.1-0.8-5.8-4.1-5.8c-3.2,0-4.9,2.8-4.9,6
		v10.5c0,4.4-3.1,5.1-4.6,5.1c-1.5,0-4.6-0.7-4.6-5.1V116.4z"/>
	<path class="st0" d="M1770.9,108.2c-3,0-5.2-2.3-5.2-5c0-2.7,2.3-5,5.2-5c2.9,0,5.2,2.2,5.2,5
		C1776.1,106.1,1773.8,108.2,1770.9,108.2z M1766.3,116.6c0-4.4,3.1-5.1,4.6-5.1c1.5,0,4.6,0.7,4.6,5.1v18.6c0,4.4-3.1,5.1-4.6,5.1
		c-1.5,0-4.6-0.7-4.6-5.1V116.6z"/>
	<path class="st0" d="M1790.9,115.9c1.3-2.3,4.1-4.6,8.3-4.6c4,0,6.8,1.7,8.4,4.7c1.8-2.9,4.7-4.7,8.9-4.7c7.5,0,10.1,6.1,10.1,11.4
		v12.6c0,4.4-3.1,5.1-4.6,5.1s-4.6-0.7-4.6-5.1v-10.6c0-3.2-0.7-5.8-4-5.8c-3.1,0-4.6,2.9-4.6,6v10.4c0,4.4-3.1,5.1-4.6,5.1
		s-4.6-0.7-4.6-5.1V124c0-3.2-1.2-5.2-4-5.2c-2.9,0-4.6,2.6-4.6,6v10.5c0,4.4-3.1,5.1-4.6,5.1c-1.5,0-4.6-0.7-4.6-5.1v-18.8
		c0-4.2,3-4.9,4.4-4.9c1.4,0,4.3,0.7,4.5,4.4H1790.9z"/>
	<path class="st0" d="M1836.6,120.3c-1.8,0-3.2-1.4-3.2-3.3c0-1.1,0.4-2.3,2.2-3.4c2.9-1.8,6.2-2.5,9.2-2.5
		c9.3,0,12.8,4.6,12.8,14.6v9.7c0,4.1-2.8,4.8-4.2,4.8c-1.2,0-3.6-0.6-4.1-3.5h-0.2c-1.4,2.3-4.6,3.6-7.9,3.6
		c-4.4,0-10.1-2.2-10.1-8.7c0-8,9.7-9.4,17.8-9.4V122c0-2.5-1.9-4-4.7-4c-1.8,0-3.6,0.9-5.4,1.8
		C1838,120.1,1837.3,120.3,1836.6,120.3z M1849.2,127.7h-1.2c-4,0-8.5,0.5-8.5,3.8c0,2.1,2.1,2.8,4,2.8c3.7,0,5.7-2.2,5.7-5.7V127.7
		z"/>
	<path class="st0" d="M1863.9,102.3c0-4.5,3.1-5.2,4.6-5.2s4.6,0.7,4.6,5.2v32.9c0,4.5-3.1,5.2-4.6,5.2s-4.6-0.7-4.6-5.2V102.3z"/>
</g>
<g id="plant-small-label" style="opacity:0">
	<path class="st0" d="M68.9,113.5c0-4.2,2.9-4.9,4.3-4.9c1.4,0,4,0.6,4.3,4h0.2c1.7-2.2,4.8-4.2,8.9-4.2c8.1,0,13.1,6.8,13.1,14.5
		c0,7.7-4.8,14.8-13.2,14.8c-3.4,0-6.7-1.4-8.4-3.8H78v11.9c0,4.4-3.1,5.1-4.6,5.1s-4.6-0.7-4.6-5.1V113.5z M84.4,115.8
		c-4.1,0-6.7,3.6-6.7,7.1c0,3.6,2.6,7.1,6.7,7.1c4.3,0,6.5-3.6,6.5-7.2C90.9,119.3,88.7,115.8,84.4,115.8z"/>
	<path class="st0" d="M104.9,99.4c0-4.5,3.1-5.2,4.6-5.2s4.6,0.7,4.6,5.2v32.9c0,4.5-3.1,5.2-4.6,5.2s-4.6-0.7-4.6-5.2V99.4z"/>
	<path class="st0" d="M124.6,117.4c-1.8,0-3.2-1.4-3.2-3.3c0-1.1,0.4-2.3,2.2-3.4c2.9-1.8,6.2-2.5,9.2-2.5c9.3,0,12.8,4.6,12.8,14.6
		v9.7c0,4.1-2.8,4.8-4.2,4.8c-1.2,0-3.6-0.6-4.1-3.5H137c-1.4,2.3-4.6,3.6-7.9,3.6c-4.4,0-10.1-2.2-10.1-8.7c0-8,9.7-9.4,17.8-9.4
		V119c0-2.5-1.9-4-4.7-4c-1.8,0-3.6,0.9-5.4,1.8C125.9,117.2,125.2,117.4,124.6,117.4z M137.1,124.8H136c-4,0-8.5,0.5-8.5,3.8
		c0,2.1,2.1,2.8,4,2.8c3.7,0,5.7-2.2,5.7-5.7V124.8z"/>
	<path class="st0" d="M151.8,113.5c0-4.2,3-4.9,4.4-4.9s4.3,0.7,4.5,4.4h0.1c1.3-2.5,4.5-4.6,8.3-4.6c7.5,0,10.1,5.8,10.1,11.4v12.6
		c0,4.4-3.1,5.1-4.6,5.1c-1.5,0-4.6-0.7-4.6-5.1v-10.6c0-3.1-0.8-5.8-4.1-5.8c-3.2,0-4.9,2.8-4.9,6v10.5c0,4.4-3.1,5.1-4.6,5.1
		c-1.5,0-4.6-0.7-4.6-5.1V113.5z"/>
	<path class="st0" d="M186.6,106.3c0-4.3,3.1-5,4.5-5c1.4,0,4.5,0.7,4.5,5v2.8h3.2c3.2,0,3.8,2.3,3.8,3.4c0,1.1-0.6,3.5-3.8,3.5
		h-3.2v10.6c0,2.6,0.7,3.8,2.7,3.8c0.3,0,0.4,0,0.7,0c2.3,0,3.4,1.7,3.4,3.3c0,2.9-2.6,3.9-5.9,3.9c-7.4,0-9.9-4-9.9-9.9V116h-1.2
		c-3.2,0-3.8-2.3-3.8-3.5c0-1.1,0.6-3.4,3.8-3.4h1.1V106.3z"/>
</g>
</svg>
