<!-- Generator: Adobe Illustrator 23.0.3, SVG Export Plug-In  -->
<svg version="1.1" xmlns="http://www.w3.org/2000/svg" xmlns:xlink="http://www.w3.org/1999/xlink" x="0px" y="0px"
	 width="252.86px" height="236.31px" viewBox="0 0 252.86 236.31" style="enable-background:new 0 0 252.86 236.31;"
	 xml:space="preserve">
<style type="text/css">
	.st0{fill:#ECF1F7;}
	.st1{fill:#929DAA;stroke:#5F7889;stroke-width:0.75;stroke-miterlimit:10;}
</style>
<defs>
</defs>
<path class="st0" d="M197.05,235.9c-0.46-28.58-0.92-57.16-1.38-85.74c-0.28-17.41-0.25-35.96,9.16-50.6
	c11.37-17.7,34.47-26.32,42.93-45.58c7.85-17.9-1.86-41.38-20.06-48.5c-10.04-3.93-21.21-3.21-31.97-2.65
	c-23.18,1.22-115.38,1.22-138.56,0C46.38,2.26,35.22,1.54,25.18,5.47C6.98,12.59-2.74,36.08,5.11,53.97
	c8.45,19.26,31.55,27.88,42.93,45.58c9.41,14.65,9.44,33.2,9.16,50.6c-0.46,28.58-0.92,57.16-1.38,85.74"/>
<path class="st1" d="M195.05,235.93l-1.38-85.74c-0.26-16.07-0.58-36.07,9.48-51.72c5.31-8.27,13.08-14.61,20.6-20.73
	c9.12-7.44,17.74-14.46,22.18-24.57c3.52-8.03,3.42-17.78-0.28-26.73c-3.7-8.95-10.51-15.92-18.68-19.11
	c-9.38-3.67-20.01-3.1-30.29-2.56l-0.85,0.04c-23.35,1.23-115.43,1.23-138.77,0L56.2,4.78C45.92,4.23,35.28,3.67,25.91,7.33
	c-8.17,3.2-14.98,10.16-18.68,19.11s-3.8,18.69-0.28,26.73C11.38,63.28,20,70.31,29.12,77.74c7.52,6.13,15.29,12.46,20.6,20.73
	c10.06,15.65,9.73,35.65,9.48,51.72l-1.38,85.74l-4-0.06l1.38-85.74c0.25-15.53,0.56-34.86-8.84-49.49
	c-4.97-7.73-12.49-13.86-19.76-19.79C17.51,73.44,8.11,65.77,3.28,54.78c-3.96-9.03-3.87-19.91,0.25-29.86
	C7.64,14.97,15.27,7.2,24.45,3.61c10.18-3.98,21.25-3.4,31.96-2.83l0.84,0.04c23.27,1.23,115.08,1.23,138.35,0l0.84-0.04
	c10.71-0.57,21.78-1.16,31.96,2.83c9.18,3.59,16.81,11.36,20.92,21.31s4.21,20.84,0.25,29.86c-4.82,11-14.22,18.66-23.31,26.07
	c-7.27,5.93-14.79,12.06-19.76,19.79c-9.4,14.64-9.09,33.96-8.84,49.49l1.38,85.74L195.05,235.93z"/>
</svg>
