<!-- Generator: Adobe Illustrator 23.0.3, SVG Export Plug-In  -->
<svg version="1.1" xmlns="http://www.w3.org/2000/svg" xmlns:xlink="http://www.w3.org/1999/xlink" x="0px" y="0px" width="43.55px"
	 height="44.31px" viewBox="0 0 43.55 44.31" style="enable-background:new 0 0 43.55 44.31;" xml:space="preserve">
<style type="text/css">
	.st0{fill:#6D6E71;}
</style>
<defs>
</defs>
<path class="st0" d="M21.76,0.74C16.36,0.74,11.41,2.72,7.6,6L1.22,0l0.53,16.87l16.87-0.53l-7.34-6.9
	c2.87-2.31,6.52-3.71,10.49-3.71c9.26,0,16.79,7.53,16.79,16.79c0,9.26-7.53,16.79-16.79,16.79c-8.83,0-16.07-6.85-16.72-15.51
	L0,23.5c0.52,11.56,10.08,20.81,21.76,20.81c12.01,0,21.79-9.77,21.79-21.79S33.78,0.74,21.76,0.74z"/>
</svg>
