<?xml version="1.0" encoding="utf-8"?>
<!-- Generator: Adobe Illustrator 18.1.1, SVG Export Plug-In . SVG Version: 6.00 Build 0)  -->
<!DOCTYPE svg PUBLIC "-//W3C//DTD SVG 1.1//EN" "http://www.w3.org/Graphics/SVG/1.1/DTD/svg11.dtd">
<svg version="1.1" id="Layer_1" xmlns="http://www.w3.org/2000/svg" xmlns:xlink="http://www.w3.org/1999/xlink" x="0px" y="0px"
	 viewBox="0 0 920 690" enable-background="new 0 0 920 690" xml:space="preserve">
<filter  height="170%" width="170%" id="ds1" y="-20%" x="-30%">
	<feOffset  in="SourceAlpha" result="offOut" dy="1" dx="0"></feOffset>
	<feGaussianBlur  in="offOut" stdDeviation="2" result="blurOut"></feGaussianBlur>
	<feComponentTransfer>
		<feFuncA  type="linear" slope="0.5"></feFuncA>
	</feComponentTransfer>
	<feMerge>
		<feMergeNode></feMergeNode>
		<feMergeNode  in="SourceGraphic"></feMergeNode>
	</feMerge>
</filter>
<linearGradient id="SVGID_1_" gradientUnits="userSpaceOnUse" x1="425.8141" y1="-5.1838" x2="489.0509" y2="642.5145">
	<stop  offset="0" style="stop-color:#B6E9CF"/>
	<stop  offset="1" style="stop-color:#DDBF6B"/>
</linearGradient>
<rect x="0" y="0" fill="url(#SVGID_1_)" width="920" height="690"/>
<g filter="url(#ds1)">
	<path fill="#E96667" d="M480.6,166.4c0.3-2.1-0.4-4.2-1.8-5.7c-1.1-1.1-2.6-1.3-3.3-2.8c-0.7-1.6-0.2-2.6-1-5
		c-0.6-1.7-2.3-2.8-4.1-3.2c-3-0.6-3.8,1-5.3-0.6c-1.4-1.4,1.3-3.5,1.6-5.5c0.5-3.7-2.1-7.2-5.8-7.7c-3.7-0.5-7.2,2.1-7.7,5.8
		c-0.2,1.6,0.3,2.7,0.7,4.2c0.4,1.4-0.1,2.1-0.8,3.3c-0.7,1.1-1.1,2.3-1.5,3.5c-0.6,2.2-2.2,2.7-3.9,3.9c-1.6,1.1-2.7,2.8-3,4.7
		c-0.3,1.9,0.3,3.9,1.6,5.4c0.8,0.9,2,1.8,2.4,3c0.5,1.3,0,2.8,0.2,4.1c0.4,2.9,2.8,5.3,5.8,5.7c1.8,0.3,3.6-0.9,5.4-0.8
		c2.1,0.1,3.6,2.1,5.8,2.4c2.4,0.3,4.8-0.6,6.3-2.5c1.5-1.9,0.9-5,3.2-6.4C478,170.6,480.2,169.7,480.6,166.4z"/>
	<path fill="none" stroke="#B4474C" stroke-width="1.489" stroke-miterlimit="10" d="M480.6,166.4c0.3-2.1-0.4-4.2-1.8-5.7
		c-1.1-1.1-2.6-1.3-3.3-2.8c-0.7-1.6-0.2-2.6-1-5c-0.6-1.7-2.3-2.8-4.1-3.2c-3-0.6-3.8,1-5.3-0.6c-1.4-1.4,1.3-3.5,1.6-5.5
		c0.5-3.7-2.1-7.2-5.8-7.7c-3.7-0.5-7.2,2.1-7.7,5.8c-0.2,1.6,0.3,2.7,0.7,4.2c0.4,1.4-0.1,2.1-0.8,3.3c-0.7,1.1-1.1,2.3-1.5,3.5
		c-0.6,2.2-2.2,2.7-3.9,3.9c-1.6,1.1-2.7,2.8-3,4.7c-0.3,1.9,0.3,3.9,1.6,5.4c0.8,0.9,2,1.8,2.4,3c0.5,1.3,0,2.8,0.2,4.1
		c0.4,2.9,2.8,5.3,5.8,5.7c1.8,0.3,3.6-0.9,5.4-0.8c2.1,0.1,3.6,2.1,5.8,2.4c2.4,0.3,4.8-0.6,6.3-2.5c1.5-1.9,0.9-5,3.2-6.4
		C478,170.6,480.2,169.7,480.6,166.4z"/>
</g>
<g filter="url(#ds1)">
	<path fill="#E96667" d="M382.8,115c-1.6-1.3-3.8-1.8-5.8-1.4c-1.5,0.3-2.4,1.6-4.1,1.3c-1.7-0.3-2.4-1.2-4.8-1.7
		c-1.8-0.4-3.6,0.5-4.9,1.9c-2.1,2.3-1.1,3.7-3.2,4.2c-1.9,0.4-2.3-2.9-3.8-4.2c-2.9-2.4-7.2-2-9.6,1c-2.4,2.9-2,7.2,1,9.6
		c1.2,1,2.5,1.1,3.9,1.6c1.4,0.4,1.8,1.1,2.4,2.4c0.6,1.2,1.4,2.1,2.2,3.1c1.5,1.7,1.2,3.3,1.2,5.4c0.1,1.9,1,3.7,2.5,5
		c1.5,1.2,3.5,1.8,5.4,1.5c1.2-0.2,2.5-0.8,3.8-0.5c1.3,0.3,2.4,1.4,3.7,1.9c2.7,1.1,6,0.3,7.9-2c1.2-1.4,1.1-3.5,2.1-5.1
		c1.2-1.8,3.7-2,5-3.7c1.5-1.9,2-4.5,1.1-6.7c-0.9-2.3-3.8-3.3-3.8-6C385.1,119.4,385.4,117.1,382.8,115z"/>
	<path fill="none" stroke="#B4474C" stroke-width="1.489" stroke-miterlimit="10" d="M382.8,115c-1.6-1.3-3.8-1.8-5.8-1.4
		c-1.5,0.3-2.4,1.6-4.1,1.3c-1.7-0.3-2.4-1.2-4.8-1.7c-1.8-0.4-3.6,0.5-4.9,1.9c-2.1,2.3-1.1,3.7-3.2,4.2c-1.9,0.4-2.3-2.9-3.8-4.2
		c-2.9-2.4-7.2-2-9.6,1c-2.4,2.9-2,7.2,1,9.6c1.2,1,2.5,1.1,3.9,1.6c1.4,0.4,1.8,1.1,2.4,2.4c0.6,1.2,1.4,2.1,2.2,3.1
		c1.5,1.7,1.2,3.3,1.2,5.4c0.1,1.9,1,3.7,2.5,5c1.5,1.2,3.5,1.8,5.4,1.5c1.2-0.2,2.5-0.8,3.8-0.5c1.3,0.3,2.4,1.4,3.7,1.9
		c2.7,1.1,6,0.3,7.9-2c1.2-1.4,1.1-3.5,2.1-5.1c1.2-1.8,3.7-2,5-3.7c1.5-1.9,2-4.5,1.1-6.7c-0.9-2.3-3.8-3.3-3.8-6
		C385.1,119.4,385.4,117.1,382.8,115z"/>
</g>
<g filter="url(#ds1)">
	<path fill="#E96667" d="M329.2,95.4c-0.9-1.9-2.7-3.2-4.8-3.6c-1.5-0.3-2.9,0.4-4.3-0.5c-1.5-0.9-1.7-2-3.7-3.5
		c-1.5-1.1-3.5-1-5.2-0.3c-2.8,1.2-2.5,3-4.7,2.5c-1.9-0.4-0.9-3.6-1.8-5.4c-1.7-3.4-5.8-4.7-9.2-3c-3.4,1.7-4.7,5.8-3,9.2
		c0.7,1.4,1.8,2.1,3,3c1.1,1,1.2,1.8,1.2,3.2c0,1.3,0.4,2.5,0.8,3.7c0.7,2.1-0.3,3.5-1,5.4c-0.7,1.8-0.6,3.8,0.3,5.5
		c0.9,1.7,2.5,3,4.4,3.5c1.2,0.3,2.6,0.3,3.7,1.1c1.1,0.8,1.6,2.3,2.6,3.2c2,2.2,5.4,2.7,8,1.4c1.6-0.8,2.4-2.8,4-3.8
		c1.8-1.1,4.1-0.3,6.1-1.3c2.2-1.1,3.6-3.3,3.7-5.7c0.2-2.5-2.1-4.6-1-7.1C329.4,100.4,330.7,98.4,329.2,95.4z"/>
	<path fill="none" stroke="#B4474C" stroke-width="1.489" stroke-miterlimit="10" d="M329.2,95.4c-0.9-1.9-2.7-3.2-4.8-3.6
		c-1.5-0.3-2.9,0.4-4.3-0.5c-1.5-0.9-1.7-2-3.7-3.5c-1.5-1.1-3.5-1-5.2-0.3c-2.8,1.2-2.5,3-4.7,2.5c-1.9-0.4-0.9-3.6-1.8-5.4
		c-1.7-3.4-5.8-4.7-9.2-3c-3.4,1.7-4.7,5.8-3,9.2c0.7,1.4,1.8,2.1,3,3c1.1,1,1.2,1.8,1.2,3.2c0,1.3,0.4,2.5,0.8,3.7
		c0.7,2.1-0.3,3.5-1,5.4c-0.7,1.8-0.6,3.8,0.3,5.5c0.9,1.7,2.5,3,4.4,3.5c1.2,0.3,2.6,0.3,3.7,1.1c1.1,0.8,1.6,2.3,2.6,3.2
		c2,2.2,5.4,2.7,8,1.4c1.6-0.8,2.4-2.8,4-3.8c1.8-1.1,4.1-0.3,6.1-1.3c2.2-1.1,3.6-3.3,3.7-5.7c0.2-2.5-2.1-4.6-1-7.1
		C329.4,100.4,330.7,98.4,329.2,95.4z"/>
</g>
<g filter="url(#ds1)">
	<path fill="#E96667" d="M319.7,61.7c1.4-1.5,2.1-3.7,1.8-5.7c-0.2-1.5-1.4-2.5-1-4.2c0.4-1.7,1.3-2.3,2.1-4.7
		c0.5-1.8-0.3-3.7-1.6-5c-2.1-2.2-3.7-1.4-4-3.5c-0.3-1.9,3.1-2.1,4.4-3.5c2.6-2.7,2.4-7.1-0.3-9.6c-2.7-2.6-7.1-2.4-9.6,0.3
		c-1.1,1.2-1.3,2.4-1.8,3.8c-0.5,1.4-1.3,1.7-2.6,2.2c-1.2,0.5-2.2,1.2-3.2,2c-1.8,1.4-3.4,0.9-5.4,0.9c-1.9,0-3.8,0.8-5.1,2.2
		c-1.3,1.4-2,3.4-1.8,5.3c0.1,1.2,0.6,2.6,0.3,3.8c-0.4,1.3-1.6,2.3-2.2,3.5c-1.3,2.7-0.7,6,1.4,8c1.3,1.3,3.5,1.3,4.9,2.5
		c1.7,1.3,1.7,3.8,3.3,5.3c1.8,1.6,4.3,2.2,6.6,1.6c2.4-0.7,3.6-3.6,6.3-3.4C315.1,63.6,317.4,64.1,319.7,61.7z"/>
	<path fill="none" stroke="#B4474C" stroke-width="1.489" stroke-miterlimit="10" d="M319.7,61.7c1.4-1.5,2.1-3.7,1.8-5.7
		c-0.2-1.5-1.4-2.5-1-4.2c0.4-1.7,1.3-2.3,2.1-4.7c0.5-1.8-0.3-3.7-1.6-5c-2.1-2.2-3.7-1.4-4-3.5c-0.3-1.9,3.1-2.1,4.4-3.5
		c2.6-2.7,2.4-7.1-0.3-9.6c-2.7-2.6-7.1-2.4-9.6,0.3c-1.1,1.2-1.3,2.4-1.8,3.8c-0.5,1.4-1.3,1.7-2.6,2.2c-1.2,0.5-2.2,1.2-3.2,2
		c-1.8,1.4-3.4,0.9-5.4,0.9c-1.9,0-3.8,0.8-5.1,2.2c-1.3,1.4-2,3.4-1.8,5.3c0.1,1.2,0.6,2.6,0.3,3.8c-0.4,1.3-1.6,2.3-2.2,3.5
		c-1.3,2.7-0.7,6,1.4,8c1.3,1.3,3.5,1.3,4.9,2.5c1.7,1.3,1.7,3.8,3.3,5.3c1.8,1.6,4.3,2.2,6.6,1.6c2.4-0.7,3.6-3.6,6.3-3.4
		C315.1,63.6,317.4,64.1,319.7,61.7z"/>
</g>
<g filter="url(#ds1)">
	<path fill="#E96667" d="M444.1,61.5c1.6,1.3,3.8,1.9,5.8,1.4c1.5-0.3,2.5-1.5,4.1-1.3c1.7,0.3,2.3,1.2,4.8,1.8
		c1.8,0.4,3.6-0.5,4.9-1.8c2.1-2.3,1.2-3.7,3.3-4.2c1.9-0.4,2.3,3,3.8,4.2c2.9,2.4,7.2,2,9.6-0.9c2.4-2.9,2-7.2-0.9-9.6
		c-1.2-1-2.5-1.2-3.9-1.6c-1.4-0.4-1.8-1.2-2.4-2.5c-0.5-1.2-1.4-2.1-2.2-3.1c-1.5-1.7-1.1-3.3-1.2-5.4c-0.1-1.9-1-3.8-2.4-5
		c-1.5-1.2-3.5-1.8-5.4-1.5c-1.2,0.2-2.5,0.7-3.8,0.5c-1.3-0.3-2.4-1.4-3.6-2c-2.7-1.2-6-0.4-7.9,1.9c-1.2,1.4-1.1,3.5-2.2,5
		c-1.2,1.8-3.7,1.9-5.1,3.6c-1.5,1.9-2,4.4-1.2,6.7c0.8,2.3,3.8,3.4,3.8,6.1C441.9,57,441.5,59.3,444.1,61.5z"/>
	<path fill="none" stroke="#B4474C" stroke-width="1.489" stroke-miterlimit="10" d="M444.1,61.5c1.6,1.3,3.8,1.9,5.8,1.4
		c1.5-0.3,2.5-1.5,4.1-1.3c1.7,0.3,2.3,1.2,4.8,1.8c1.8,0.4,3.6-0.5,4.9-1.8c2.1-2.3,1.2-3.7,3.3-4.2c1.9-0.4,2.3,3,3.8,4.2
		c2.9,2.4,7.2,2,9.6-0.9c2.4-2.9,2-7.2-0.9-9.6c-1.2-1-2.5-1.2-3.9-1.6c-1.4-0.4-1.8-1.2-2.4-2.5c-0.5-1.2-1.4-2.1-2.2-3.1
		c-1.5-1.7-1.1-3.3-1.2-5.4c-0.1-1.9-1-3.8-2.4-5c-1.5-1.2-3.5-1.8-5.4-1.5c-1.2,0.2-2.5,0.7-3.8,0.5c-1.3-0.3-2.4-1.4-3.6-2
		c-2.7-1.2-6-0.4-7.9,1.9c-1.2,1.4-1.1,3.5-2.2,5c-1.2,1.8-3.7,1.9-5.1,3.6c-1.5,1.9-2,4.4-1.2,6.7c0.8,2.3,3.8,3.4,3.8,6.1
		C441.9,57,441.5,59.3,444.1,61.5z"/>
</g>
<g filter="url(#ds1)">
	<path fill="#E96667" d="M312.4,181.2c1.6,1.3,3.8,1.9,5.8,1.4c1.5-0.3,2.5-1.5,4.1-1.3c1.7,0.3,2.3,1.2,4.8,1.8
		c1.8,0.4,3.6-0.5,4.9-1.8c2.1-2.3,1.2-3.7,3.3-4.2c1.9-0.4,2.3,3,3.8,4.2c2.9,2.4,7.2,2,9.6-0.9c2.4-2.9,2-7.2-0.9-9.6
		c-1.2-1-2.5-1.2-3.9-1.6c-1.4-0.4-1.8-1.2-2.4-2.5c-0.5-1.2-1.4-2.1-2.2-3.1c-1.5-1.7-1.1-3.3-1.2-5.4c-0.1-1.9-1-3.8-2.4-5
		c-1.5-1.2-3.5-1.8-5.4-1.5c-1.2,0.2-2.5,0.7-3.8,0.5c-1.3-0.3-2.4-1.4-3.6-2c-2.7-1.2-6-0.4-7.9,1.9c-1.2,1.4-1.1,3.5-2.2,5
		c-1.2,1.8-3.7,1.9-5.1,3.6c-1.5,1.9-2,4.4-1.2,6.7c0.8,2.3,3.8,3.4,3.8,6.1C310.2,176.7,309.8,179.1,312.4,181.2z"/>
	<path fill="none" stroke="#B4474C" stroke-width="1.489" stroke-miterlimit="10" d="M312.4,181.2c1.6,1.3,3.8,1.9,5.8,1.4
		c1.5-0.3,2.5-1.5,4.1-1.3c1.7,0.3,2.3,1.2,4.8,1.8c1.8,0.4,3.6-0.5,4.9-1.8c2.1-2.3,1.2-3.7,3.3-4.2c1.9-0.4,2.3,3,3.8,4.2
		c2.9,2.4,7.2,2,9.6-0.9c2.4-2.9,2-7.2-0.9-9.6c-1.2-1-2.5-1.2-3.9-1.6c-1.4-0.4-1.8-1.2-2.4-2.5c-0.5-1.2-1.4-2.1-2.2-3.1
		c-1.5-1.7-1.1-3.3-1.2-5.4c-0.1-1.9-1-3.8-2.4-5c-1.5-1.2-3.5-1.8-5.4-1.5c-1.2,0.2-2.5,0.7-3.8,0.5c-1.3-0.3-2.4-1.4-3.6-2
		c-2.7-1.2-6-0.4-7.9,1.9c-1.2,1.4-1.1,3.5-2.2,5c-1.2,1.8-3.7,1.9-5.1,3.6c-1.5,1.9-2,4.4-1.2,6.7c0.8,2.3,3.8,3.4,3.8,6.1
		C310.2,176.7,309.8,179.1,312.4,181.2z"/>
</g>
<g filter="url(#ds1)">
	<path fill="#E96667" d="M447.2,95.8c-2.1,0.2-4,1.4-5.1,3.2c-0.8,1.3-0.6,2.8-1.9,3.9c-1.4,1.1-2.5,0.9-4.6,2.2
		c-1.6,1-2.2,3-2.1,4.8c0.2,3.1,1.9,3.4,0.7,5.3c-1,1.7-3.7-0.4-5.7-0.2c-3.7,0.4-6.5,3.8-6.1,7.5c0.4,3.7,3.8,6.5,7.5,6.1
		c1.6-0.2,2.6-1,3.9-1.7c1.3-0.7,2.1-0.5,3.4,0c1.2,0.4,2.5,0.5,3.8,0.6c2.2,0.1,3.2,1.5,4.7,2.9c1.4,1.3,3.4,1.9,5.3,1.7
		c1.9-0.2,3.7-1.3,4.8-2.8c0.7-1,1.2-2.3,2.3-3.1c1.1-0.8,2.7-0.7,3.9-1.3c2.7-1.2,4.5-4.1,4.1-7c-0.2-1.8-1.8-3.2-2.1-5.1
		c-0.4-2.1,1.1-4,0.9-6.2c-0.3-2.4-1.8-4.5-4-5.5c-2.3-1-5.1,0.4-7-1.5C451.9,97.3,450.5,95.4,447.2,95.8z"/>
	<path fill="none" stroke="#B4474C" stroke-width="1.489" stroke-miterlimit="10" d="M447.2,95.8c-2.1,0.2-4,1.4-5.1,3.2
		c-0.8,1.3-0.6,2.8-1.9,3.9c-1.4,1.1-2.5,0.9-4.6,2.2c-1.6,1-2.2,3-2.1,4.8c0.2,3.1,1.9,3.4,0.7,5.3c-1,1.7-3.7-0.4-5.7-0.2
		c-3.7,0.4-6.5,3.8-6.1,7.5c0.4,3.7,3.8,6.5,7.5,6.1c1.6-0.2,2.6-1,3.9-1.7c1.3-0.7,2.1-0.5,3.4,0c1.2,0.4,2.5,0.5,3.8,0.6
		c2.2,0.1,3.2,1.5,4.7,2.9c1.4,1.3,3.4,1.9,5.3,1.7c1.9-0.2,3.7-1.3,4.8-2.8c0.7-1,1.2-2.3,2.3-3.1c1.1-0.8,2.7-0.7,3.9-1.3
		c2.7-1.2,4.5-4.1,4.1-7c-0.2-1.8-1.8-3.2-2.1-5.1c-0.4-2.1,1.1-4,0.9-6.2c-0.3-2.4-1.8-4.5-4-5.5c-2.3-1-5.1,0.4-7-1.5
		C451.9,97.3,450.5,95.4,447.2,95.8z"/>
</g>
<g filter="url(#ds1)">
	<path fill="#E96667" d="M373.9,76.2c2,0.6,4.2,0.2,5.9-1c1.2-0.9,1.6-2.4,3.3-2.8c1.7-0.4,2.6,0.2,5.1-0.3c1.8-0.3,3.1-1.9,3.7-3.6
		c1-2.9-0.4-3.9,1.3-5.1c1.6-1.1,3.3,1.8,5.2,2.4c3.6,1.1,7.4-1,8.5-4.6c1.1-3.6-1-7.4-4.6-8.5c-1.5-0.4-2.7-0.1-4.2,0.1
		c-1.5,0.2-2.1-0.4-3.2-1.3c-1-0.8-2.1-1.4-3.3-1.9c-2-0.9-2.3-2.6-3.2-4.5c-0.8-1.7-2.4-3.1-4.2-3.6c-1.9-0.5-3.9-0.3-5.6,0.8
		c-1,0.7-2,1.7-3.3,2c-1.3,0.3-2.8-0.4-4.1-0.4c-3,0-5.7,2-6.5,4.9c-0.5,1.8,0.4,3.7,0,5.5c-0.4,2.1-2.6,3.3-3.2,5.4
		c-0.7,2.3-0.1,4.9,1.6,6.6c1.7,1.8,4.8,1.6,5.9,4.1C370.1,72.9,370.7,75.2,373.9,76.2z"/>
	<path fill="none" stroke="#B4474C" stroke-width="1.489" stroke-miterlimit="10" d="M373.9,76.2c2,0.6,4.2,0.2,5.9-1
		c1.2-0.9,1.6-2.4,3.3-2.8c1.7-0.4,2.6,0.2,5.1-0.3c1.8-0.3,3.1-1.9,3.7-3.6c1-2.9-0.4-3.9,1.3-5.1c1.6-1.1,3.3,1.8,5.2,2.4
		c3.6,1.1,7.4-1,8.5-4.6c1.1-3.6-1-7.4-4.6-8.5c-1.5-0.4-2.7-0.1-4.2,0.1c-1.5,0.2-2.1-0.4-3.2-1.3c-1-0.8-2.1-1.4-3.3-1.9
		c-2-0.9-2.3-2.6-3.2-4.5c-0.8-1.7-2.4-3.1-4.2-3.6c-1.9-0.5-3.9-0.3-5.6,0.8c-1,0.7-2,1.7-3.3,2c-1.3,0.3-2.8-0.4-4.1-0.4
		c-3,0-5.7,2-6.5,4.9c-0.5,1.8,0.4,3.7,0,5.5c-0.4,2.1-2.6,3.3-3.2,5.4c-0.7,2.3-0.1,4.9,1.6,6.6c1.7,1.8,4.8,1.6,5.9,4.1
		C370.1,72.9,370.7,75.2,373.9,76.2z"/>
</g>
<g>
	<g filter="url(#ds1)">
		<rect x="337.1" y="90.5" fill="#FFFFFF" width="100.5" height="27.7"/>
	</g>
	<g>
		<g>
			<path fill="#6D6E70" d="M354.7,99.1c2,0,4.3,0.8,4.3,2.2v1.4h-1.5v-0.8c0-0.9-1.5-1.4-2.8-1.4c-2.6,0-4.3,1.8-4.3,4.4
				c0,2.6,1.7,4.5,4.4,4.5c1,0,3-0.3,3-1.4v-1.5h-2.2v-1.2h3.7v3.2c0,1.7-2.9,2.4-4.6,2.4c-3.5,0-5.9-2.5-5.9-5.9
				S351.1,99.1,354.7,99.1z"/>
			<path fill="#6D6E70" d="M361.1,109.3h1.4v-8.7h-1.4v-1.3h4.4v1.3h-1.4v8.7h3.9v-1.8h1.4v3.1h-8.4V109.3z"/>
			<path fill="#6D6E70" d="M371.6,100.5h-1.4v-1.2h4.5v1.2h-1.4v5.8c0,0.7,0.1,1.4,0.4,1.8c0.5,0.7,1.3,1.2,2.4,1.2
				c1.1,0,2-0.4,2.4-1.2c0.3-0.5,0.4-1.1,0.4-1.8v-5.8h-1.4v-1.2h4.4v1.2h-1.4v5.9c0,1.1-0.3,2-0.8,2.8c-0.8,1.1-2.1,1.6-3.7,1.6
				c-1.6,0-2.9-0.6-3.7-1.6c-0.5-0.7-0.8-1.7-0.8-2.8V100.5z"/>
			<path fill="#6D6E70" d="M388.9,99.1c1.4,0,4.3,0.5,4.3,2.2v1.4h-1.5v-0.9c0-1-1.7-1.4-2.8-1.4c-2.4,0-4.2,1.8-4.2,4.3
				c0,2.7,1.8,4.6,4.3,4.6c0.8,0,2.8-0.3,2.8-1.3v-0.9h1.5v1.4c0,1.7-2.8,2.2-4.4,2.2c-3.4,0-5.8-2.6-5.8-5.9
				C383.1,101.5,385.6,99.1,388.9,99.1z"/>
			<path fill="#6D6E70" d="M400.8,99.1c3.3,0,5.8,2.5,5.8,5.8c0,3.3-2.5,5.9-5.8,5.9c-3.3,0-5.8-2.6-5.8-5.9
				C395,101.6,397.5,99.1,400.8,99.1z M400.8,109.3c2.3,0,4.1-2,4.1-4.5c0-2.5-1.9-4.4-4.1-4.4c-2.3,0-4.2,1.9-4.2,4.4
				C396.7,107.4,398.5,109.3,400.8,109.3z"/>
			<path fill="#6D6E70" d="M409.7,107.2v0.8c0,0.8,1.1,1.3,2.3,1.3c1.3,0,2.2-0.6,2.2-1.7c0-1.3-1.3-1.7-2.7-2.3
				c-1.5-0.6-3-1.2-3-3.2c0-2.1,1.7-3,3.6-3c1.7,0,3.4,0.6,3.4,1.9v1.3H414v-0.8c0-0.7-1-1-1.9-1c-1.1,0-2,0.5-2,1.6
				c0,1.2,1.1,1.6,2.4,2.1c1.7,0.6,3.3,1.3,3.3,3.4c0,2.2-1.8,3.3-3.9,3.3c-1.8,0-3.7-0.8-3.7-2.4v-1.2H409.7z"/>
			<path fill="#6D6E70" d="M417.5,109.3h1.4v-8.8h-1.4v-1.2h8.2v2.6h-1.4v-1.3h-3.8v3.6h4v1.3h-4v3.7h4v-1.4h1.4v2.7h-8.5V109.3z"/>
		</g>
	</g>
</g>
</svg>
