<?xml version="1.0" encoding="utf-8"?>
<!-- Generator: Adobe Illustrator 18.1.1, SVG Export Plug-In . SVG Version: 6.00 Build 0)  -->
<!DOCTYPE svg PUBLIC "-//W3C//DTD SVG 1.1//EN" "http://www.w3.org/Graphics/SVG/1.1/DTD/svg11.dtd">
<svg version="1.1" id="Layer_1" xmlns="http://www.w3.org/2000/svg" xmlns:xlink="http://www.w3.org/1999/xlink" x="0px" y="0px"
	 viewBox="0 0 1546.5 1000" enable-background="new 0 0 1546.5 1000" xml:space="preserve">
<filter  width="200%" height="200%" x="-50%" id="ds3" y="-50%">
	<feOffset  dy="51" dx="0" in="SourceAlpha" result="offOut"></feOffset>
	<feGaussianBlur  in="offOut" stdDeviation="45" result="blurOut"></feGaussianBlur>
	<feComponentTransfer>
		<feFuncA  type="linear" slope="0.4"></feFuncA>
	</feComponentTransfer>
	<feMerge>
		<feMergeNode></feMergeNode>
		<feMergeNode  in="SourceGraphic"></feMergeNode>
	</feMerge>
</filter>
<filter  width="170%" height="170%" x="-30%" id="ds1" y="-20%">
	<feOffset  dy="3" dx="0" in="SourceAlpha" result="offOut"></feOffset>
	<feGaussianBlur  in="offOut" stdDeviation="6" result="blurOut"></feGaussianBlur>
	<feComponentTransfer>
		<feFuncA  type="linear" slope="0.5"></feFuncA>
	</feComponentTransfer>
	<feMerge>
		<feMergeNode></feMergeNode>
		<feMergeNode  in="SourceGraphic"></feMergeNode>
	</feMerge>
</filter>
<radialGradient id="SVGID_1_" cx="650.7232" cy="549.5236" r="1101.8612" gradientTransform="matrix(1 0 0 0.7185 0 154.7048)" gradientUnits="userSpaceOnUse">
	<stop  offset="0" style="stop-color:#C9E9F0"/>
	<stop  offset="0.2183" style="stop-color:#C1E1EC"/>
	<stop  offset="0.5564" style="stop-color:#ACCBE0"/>
	<stop  offset="0.97" style="stop-color:#8AA8CD"/>
	<stop  offset="1" style="stop-color:#87A5CB"/>
</radialGradient>
<rect x="-206.7" y="-7.8" fill="url(#SVGID_1_)" width="1753.2" height="1009.3"/>
<polygon fill="#8689BC" points="-11,1128.1 78.1,795.9 589.4,588.9 1284.7,510.7 1599,642 1541,1201.6 "/>
<g filter="url(#ds3)">
	<path fill="none" stroke="#9991CE" stroke-width="116" stroke-miterlimit="10" d="M-11,1122.4c2.1-68.9,18.1-271.1,89.1-332.2
		c177.2-152.6,733.6-295.6,1206.7-259.4C1405.3,540,1634,659.3,1634,659.3"/>
</g>
<g opacity="0.2" filter="url(#ds1)">
	<circle fill="#F4F4F4" cx="522.8" cy="906.3" r="21.2"/>
	<g>
		<rect x="519.6" y="892.6" fill="#3F3F3F" width="6.2" height="27.5"/>
		<rect x="509" y="903.2" fill="#3F3F3F" width="27.5" height="6.2"/>
	</g>
</g>
<g filter="url(#ds1)">
	<circle fill="#F4F4F4" cx="325.1" cy="930.5" r="21.2"/>
	<g>
		
			<rect x="321.9" y="916.8" transform="matrix(0.9983 -5.888048e-02 5.888048e-02 0.9983 -54.2235 20.7542)" fill="#3F3F3F" width="6.2" height="27.5"/>
		
			<rect x="321.9" y="916.8" transform="matrix(5.888042e-02 0.9983 -0.9983 5.888042e-02 1234.7958 551.2001)" fill="#3F3F3F" width="6.2" height="27.5"/>
	</g>
</g>
<path fill="#919191" d="M960.5,617.1c0.1,0,0.1,0,0.2,0c0,0,0,0,0,0C960.6,617.1,960.5,617.1,960.5,617.1z"/>
<path fill="#919191" d="M960.8,617.1c0,0-0.1,0-0.1,0C960.8,617.1,960.8,617.1,960.8,617.1z"/>
<path fill="#919191" d="M960.7,617.1C960.7,617.1,960.7,617.1,960.7,617.1C960.7,617.1,960.7,617.1,960.7,617.1z"/>
<g filter="url(#ds1)">
	<circle fill="#F4F4F4" cx="338.2" cy="856.7" r="21.2"/>
	<g>
		
			<rect x="335.1" y="843" transform="matrix(0.9983 -5.888048e-02 5.888048e-02 0.9983 -49.8569 21.4024)" fill="#3F3F3F" width="6.2" height="27.5"/>
		
			<rect x="335.1" y="843" transform="matrix(5.888042e-02 0.9983 -0.9983 5.888042e-02 1173.5569 468.6137)" fill="#3F3F3F" width="6.2" height="27.5"/>
	</g>
</g>
<g opacity="0.2" filter="url(#ds1)">
	<circle fill="#F4F4F4" cx="1273" cy="806.9" r="21.2"/>
	<g>
		<rect x="1269.9" y="793.1" fill="#3F3F3F" width="6.2" height="27.5"/>
		<rect x="1259.2" y="803.7" fill="#3F3F3F" width="27.5" height="6.2"/>
	</g>
</g>
<g opacity="0.2" filter="url(#ds1)">
	<circle fill="#F4F4F4" cx="1107.1" cy="89" r="21.2"/>
	<g>
		<rect x="1104" y="75.2" fill="#3F3F3F" width="6.2" height="27.5"/>
		<rect x="1093.4" y="85.8" fill="#3F3F3F" width="27.5" height="6.2"/>
	</g>
</g>
<g opacity="0.2" filter="url(#ds1)">
	<circle fill="#F4F4F4" cx="1120.8" cy="760.8" r="21.2"/>
	<g>
		<rect x="1117.7" y="747" fill="#3F3F3F" width="6.2" height="27.5"/>
		<rect x="1107.1" y="757.7" fill="#3F3F3F" width="27.5" height="6.2"/>
	</g>
</g>
<g opacity="0.2" filter="url(#ds1)">
	<circle fill="#F4F4F4" cx="1051" cy="729.7" r="21.2"/>
	<g>
		<rect x="1047.9" y="716" fill="#3F3F3F" width="6.2" height="27.5"/>
		<rect x="1037.3" y="726.6" fill="#3F3F3F" width="27.5" height="6.2"/>
	</g>
</g>
<g opacity="0.2" filter="url(#ds1)">
	<circle fill="#F4F4F4" cx="1128.3" cy="666.3" r="21.2"/>
	<g>
		<rect x="1125.2" y="652.6" fill="#3F3F3F" width="6.2" height="27.5"/>
		<rect x="1114.6" y="663.2" fill="#3F3F3F" width="27.5" height="6.2"/>
	</g>
</g>
<g opacity="0.2" filter="url(#ds1)">
	<circle fill="#F4F4F4" cx="1185.3" cy="871.8" r="21.2"/>
	<g>
		<rect x="1182.1" y="858.1" fill="#3F3F3F" width="6.2" height="27.5"/>
		<rect x="1171.5" y="868.7" fill="#3F3F3F" width="27.5" height="6.2"/>
	</g>
</g>
<g opacity="0.2" filter="url(#ds1)">
	<circle fill="#F4F4F4" cx="1188.4" cy="782.7" r="21.2"/>
	<g>
		<rect x="1185.3" y="769" fill="#3F3F3F" width="6.2" height="27.5"/>
		<rect x="1174.7" y="779.6" fill="#3F3F3F" width="27.5" height="6.2"/>
	</g>
</g>
<g opacity="0.2" filter="url(#ds1)">
	<circle fill="#F4F4F4" cx="1085.9" cy="930.6" r="21.2"/>
	<g>
		<rect x="1082.8" y="916.9" fill="#3F3F3F" width="6.2" height="27.5"/>
		<rect x="1072.2" y="927.5" fill="#3F3F3F" width="27.5" height="6.2"/>
	</g>
</g>
<g opacity="0.2" filter="url(#ds1)">
	<circle fill="#F4F4F4" cx="1323" cy="948.6" r="21.2"/>
	<g>
		<rect x="1319.9" y="934.9" fill="#3F3F3F" width="6.2" height="27.5"/>
		<rect x="1309.3" y="945.5" fill="#3F3F3F" width="27.5" height="6.2"/>
	</g>
</g>
<g opacity="0.2" filter="url(#ds1)">
	<circle fill="#F4F4F4" cx="1438.3" cy="694.2" r="21.2"/>
	<g>
		<rect x="1435.1" y="680.4" fill="#3F3F3F" width="6.2" height="27.5"/>
		<rect x="1424.5" y="691" fill="#3F3F3F" width="27.5" height="6.2"/>
	</g>
</g>
<g opacity="0.2" filter="url(#ds1)">
	<circle fill="#F4F4F4" cx="1417.1" cy="941.2" r="21.2"/>
	<g>
		<rect x="1414" y="927.5" fill="#3F3F3F" width="6.2" height="27.5"/>
		<rect x="1403.4" y="938.1" fill="#3F3F3F" width="27.5" height="6.2"/>
	</g>
</g>
<g opacity="0.2" filter="url(#ds1)">
	<circle fill="#F4F4F4" cx="1329.2" cy="873" r="21.2"/>
	<g>
		<rect x="1326.1" y="859.3" fill="#3F3F3F" width="6.2" height="27.5"/>
		<rect x="1315.5" y="869.9" fill="#3F3F3F" width="27.5" height="6.2"/>
	</g>
</g>
<g opacity="0.2" filter="url(#ds1)">
	<circle fill="#F4F4F4" cx="1417.1" cy="860.6" r="21.2"/>
	<g>
		<rect x="1414" y="846.9" fill="#3F3F3F" width="6.2" height="27.5"/>
		<rect x="1403.4" y="857.5" fill="#3F3F3F" width="27.5" height="6.2"/>
	</g>
</g>
<g opacity="0.2" filter="url(#ds1)">
	<circle fill="#F4F4F4" cx="1230.8" cy="968.7" r="21.2"/>
	<g>
		<rect x="1227.7" y="954.9" fill="#3F3F3F" width="6.2" height="27.5"/>
		<rect x="1217" y="965.6" fill="#3F3F3F" width="27.5" height="6.2"/>
	</g>
</g>
<g opacity="0.2" filter="url(#ds1)">
	<circle fill="#F4F4F4" cx="1051" cy="836.3" r="21.2"/>
	<g>
		<rect x="1047.9" y="822.6" fill="#3F3F3F" width="6.2" height="27.5"/>
		<rect x="1037.3" y="833.2" fill="#3F3F3F" width="27.5" height="6.2"/>
	</g>
</g>
<g opacity="0.2" filter="url(#ds1)">
	<circle fill="#F4F4F4" cx="967.5" cy="875" r="21.2"/>
	<g>
		<rect x="964.4" y="861.2" fill="#3F3F3F" width="6.2" height="27.5"/>
		<rect x="953.8" y="871.8" fill="#3F3F3F" width="27.5" height="6.2"/>
	</g>
</g>
<g opacity="0.2" filter="url(#ds1)">
	<circle fill="#F4F4F4" cx="882.1" cy="833.2" r="21.2"/>
	<g>
		<rect x="879" y="819.5" fill="#3F3F3F" width="6.2" height="27.5"/>
		<rect x="868.4" y="830.1" fill="#3F3F3F" width="27.5" height="6.2"/>
	</g>
</g>
<g opacity="0.2" filter="url(#ds1)">
	<circle fill="#F4F4F4" cx="812.1" cy="753.3" r="21.2"/>
	<g>
		<rect x="809" y="739.6" fill="#3F3F3F" width="6.2" height="27.5"/>
		<rect x="798.4" y="750.2" fill="#3F3F3F" width="27.5" height="6.2"/>
	</g>
</g>
<g filter="url(#ds1)">
	<circle fill="#F4F4F4" cx="606" cy="774.7" r="21.2"/>
	<g>
		
			<rect x="602.9" y="760.9" transform="matrix(0.9983 -5.888048e-02 5.888048e-02 0.9983 -44.5619 37.0258)" fill="#3F3F3F" width="6.2" height="27.5"/>
		
			<rect x="602.9" y="760.9" transform="matrix(5.888042e-02 0.9983 -0.9983 5.888042e-02 1343.6532 124.1112)" fill="#3F3F3F" width="6.2" height="27.5"/>
	</g>
</g>
<g opacity="0.2" filter="url(#ds1)">
	<circle fill="#F4F4F4" cx="981.2" cy="774.5" r="21.2"/>
	<g>
		<rect x="978.1" y="760.8" fill="#3F3F3F" width="6.2" height="27.5"/>
		<rect x="967.5" y="771.4" fill="#3F3F3F" width="27.5" height="6.2"/>
	</g>
</g>
<g opacity="0.2" filter="url(#ds1)">
	<circle fill="#F4F4F4" cx="1233.9" cy="689.8" r="21.2"/>
	<g>
		<rect x="1230.8" y="676.1" fill="#3F3F3F" width="6.2" height="27.5"/>
		<rect x="1220.2" y="686.7" fill="#3F3F3F" width="27.5" height="6.2"/>
	</g>
</g>
<g opacity="0.2" filter="url(#ds1)">
	<circle fill="#F4F4F4" cx="1326.1" cy="725.9" r="21.2"/>
	<g>
		<rect x="1323" y="712.1" fill="#3F3F3F" width="6.2" height="27.5"/>
		<rect x="1312.4" y="722.7" fill="#3F3F3F" width="27.5" height="6.2"/>
	</g>
</g>
<g opacity="0.2" filter="url(#ds1)">
	<circle fill="#F4F4F4" cx="903.3" cy="725.9" r="21.2"/>
	<g>
		<rect x="900.2" y="712.1" fill="#3F3F3F" width="6.2" height="27.5"/>
		<rect x="889.6" y="722.7" fill="#3F3F3F" width="27.5" height="6.2"/>
	</g>
</g>
<g opacity="0.2" filter="url(#ds1)">
	<circle fill="#F4F4F4" cx="839.8" cy="673" r="21.2"/>
	<g>
		<rect x="836.6" y="659.3" fill="#3F3F3F" width="6.2" height="27.5"/>
		<rect x="826" y="669.9" fill="#3F3F3F" width="27.5" height="6.2"/>
	</g>
</g>
<g filter="url(#ds1)">
	<circle fill="#F4F4F4" cx="984.3" cy="673" r="21.2"/>
	<g>
		<rect x="981.2" y="659.3" fill="#3F3F3F" width="6.2" height="27.5"/>
		<rect x="970.6" y="669.9" fill="#3F3F3F" width="27.5" height="6.2"/>
	</g>
</g>
<g opacity="0.2" filter="url(#ds1)">
	<circle fill="#F4F4F4" cx="924.5" cy="944.3" r="21.2"/>
	<g>
		<rect x="921.4" y="930.6" fill="#3F3F3F" width="6.2" height="27.5"/>
		<rect x="910.8" y="941.2" fill="#3F3F3F" width="27.5" height="6.2"/>
	</g>
</g>
<g opacity="0.2" filter="url(#ds1)">
	<circle fill="#F4F4F4" cx="819.6" cy="927.5" r="21.2"/>
	<g>
		<rect x="816.5" y="913.7" fill="#3F3F3F" width="6.2" height="27.5"/>
		<rect x="805.9" y="924.3" fill="#3F3F3F" width="27.5" height="6.2"/>
	</g>
</g>
<g opacity="0.2" filter="url(#ds1)">
	<circle fill="#F4F4F4" cx="737.5" cy="886.1" r="21.2"/>
	<g>
		<rect x="734.4" y="872.4" fill="#3F3F3F" width="6.2" height="27.5"/>
		<rect x="723.8" y="883" fill="#3F3F3F" width="27.5" height="6.2"/>
	</g>
</g>
<g opacity="0.2" filter="url(#ds1)">
	<circle fill="#F4F4F4" cx="665.7" cy="846.9" r="21.2"/>
	<g>
		<rect x="662.5" y="833.2" fill="#3F3F3F" width="6.2" height="27.5"/>
		<rect x="651.9" y="843.8" fill="#3F3F3F" width="27.5" height="6.2"/>
	</g>
</g>
<g opacity="0.2" filter="url(#ds1)">
	<circle fill="#F4F4F4" cx="708" cy="669.9" r="21.2"/>
	<g>
		<rect x="704.9" y="656.1" fill="#3F3F3F" width="6.2" height="27.5"/>
		<rect x="694.3" y="666.7" fill="#3F3F3F" width="27.5" height="6.2"/>
	</g>
</g>
<g filter="url(#ds1)">
	<circle fill="#F4F4F4" cx="579.3" cy="828.8" r="21.2"/>
	<g>
		
			<rect x="576.2" y="815.1" transform="matrix(0.9983 -5.888048e-02 5.888048e-02 0.9983 -47.7974 35.548)" fill="#3F3F3F" width="6.2" height="27.5"/>
		
			<rect x="576.2" y="815.1" transform="matrix(5.888042e-02 0.9983 -0.9983 5.888042e-02 1372.6012 201.7323)" fill="#3F3F3F" width="6.2" height="27.5"/>
	</g>
</g>
<g opacity="0.2" filter="url(#ds1)">
	<circle fill="#F4F4F4" cx="649.9" cy="951.8" r="21.2"/>
	<g>
		<rect x="646.7" y="938" fill="#3F3F3F" width="6.2" height="27.5"/>
		<rect x="636.1" y="948.6" fill="#3F3F3F" width="27.5" height="6.2"/>
	</g>
</g>
<g opacity="0.2" filter="url(#ds1)">
	<circle fill="#F4F4F4" cx="1392.8" cy="778.6" r="21.2"/>
	<g>
		<rect x="1389.7" y="764.9" fill="#3F3F3F" width="6.2" height="27.5"/>
		<rect x="1379" y="775.5" fill="#3F3F3F" width="27.5" height="6.2"/>
	</g>
</g>
<g opacity="0.2" filter="url(#ds1)">
	<circle fill="#F4F4F4" cx="1430.8" cy="56" r="21.2"/>
	<g>
		<rect x="1427.7" y="42.2" fill="#3F3F3F" width="6.2" height="27.5"/>
		<rect x="1417.1" y="52.8" fill="#3F3F3F" width="27.5" height="6.2"/>
	</g>
</g>
<g opacity="0.2" filter="url(#ds1)">
	<circle fill="#F4F4F4" cx="599.1" cy="880.4" r="21.2"/>
	<g>
		<rect x="596" y="866.7" fill="#3F3F3F" width="6.2" height="27.5"/>
		<rect x="585.4" y="877.3" fill="#3F3F3F" width="27.5" height="6.2"/>
	</g>
</g>
<g filter="url(#ds1)">
	<circle fill="#F4F4F4" cx="483.9" cy="865.6" r="21.2"/>
	<g>
		
			<rect x="480.8" y="851.9" transform="matrix(0.9983 -5.888048e-02 5.888048e-02 0.9983 -50.1292 29.9931)" fill="#3F3F3F" width="6.2" height="27.5"/>
		
			<rect x="480.8" y="851.9" transform="matrix(5.888042e-02 0.9983 -0.9983 5.888042e-02 1319.519 331.618)" fill="#3F3F3F" width="6.2" height="27.5"/>
	</g>
</g>
<g opacity="0.2" filter="url(#ds1)">
	<circle fill="#F4F4F4" cx="237.7" cy="951.8" r="21.2"/>
	<g>
		<rect x="234.6" y="938" fill="#3F3F3F" width="6.2" height="27.5"/>
		<rect x="224" y="948.6" fill="#3F3F3F" width="27.5" height="6.2"/>
	</g>
</g>
<g opacity="0.2" filter="url(#ds1)">
	<circle fill="#F4F4F4" cx="272.6" cy="819.5" r="21.2"/>
	<g>
		<rect x="269.5" y="805.7" fill="#3F3F3F" width="6.2" height="27.5"/>
		<rect x="258.9" y="816.3" fill="#3F3F3F" width="27.5" height="6.2"/>
	</g>
</g>
<g opacity="0.2" filter="url(#ds1)">
	<circle fill="#F4F4F4" cx="139.8" cy="947.4" r="21.2"/>
	<g>
		<rect x="136.7" y="933.7" fill="#3F3F3F" width="6.2" height="27.5"/>
		<rect x="126.1" y="944.3" fill="#3F3F3F" width="27.5" height="6.2"/>
	</g>
</g>
<g opacity="0.2" filter="url(#ds1)">
	<circle fill="#F4F4F4" cx="396.7" cy="965.6" r="21.2"/>
	<g>
		<rect x="393.6" y="951.8" fill="#3F3F3F" width="6.2" height="27.5"/>
		<rect x="383" y="962.4" fill="#3F3F3F" width="27.5" height="6.2"/>
	</g>
</g>
<g opacity="0.2" filter="url(#ds1)">
	<circle fill="#F4F4F4" cx="200.1" cy="877.3" r="21.2"/>
	<g>
		<rect x="197" y="863.6" fill="#3F3F3F" width="6.2" height="27.5"/>
		<rect x="186.4" y="874.2" fill="#3F3F3F" width="27.5" height="6.2"/>
	</g>
</g>
<g opacity="0.2" filter="url(#ds1)">
	<circle fill="#F4F4F4" cx="711.1" cy="739.6" r="21.2"/>
	<g>
		
			<rect x="708" y="725.9" transform="matrix(0.1874 0.9823 -0.9823 0.1874 1304.3501 -97.5532)" fill="#3F3F3F" width="6.2" height="27.5"/>
		
			<rect x="708" y="725.9" transform="matrix(-0.9823 0.1874 -0.1874 -0.9823 1548.291 1332.8113)" fill="#3F3F3F" width="6.2" height="27.5"/>
	</g>
</g>
<g filter="url(#ds1)">
	<circle fill="#F4F4F4" cx="436" cy="829.3" r="21.2"/>
	<g>
		
			<rect x="432.9" y="815.6" transform="matrix(0.2449 0.9695 -0.9695 0.2449 1133.27 203.442)" fill="#3F3F3F" width="6.2" height="27.5"/>
		
			<rect x="432.9" y="815.6" transform="matrix(-0.9695 0.2449 -0.2449 -0.9695 1061.884 1526.5544)" fill="#3F3F3F" width="6.2" height="27.5"/>
	</g>
</g>
<g opacity="0.75">
	<g opacity="0.5">
		<path fill="none" stroke="#000000" stroke-width="4" stroke-linecap="round" stroke-miterlimit="10" d="M256.5,911.2
			c-8.5-24.1,4-50.5,28.1-59l315.8-116.3c24.1-8.5,50.5,4,59,28.1"/>
	</g>
	<g>
		<path fill="none" stroke="#FFFFFF" stroke-width="4" stroke-linecap="round" stroke-miterlimit="10" d="M255.5,910.2
			c-8.5-24.1,4-50.5,28.1-59l315.8-116.3c24.1-8.5,50.5,4,59,28.1"/>
	</g>
</g>
<g filter="url(#ds1)">
	<circle fill="#F4F4F4" cx="519.5" cy="796.6" r="21.2"/>
	<g>
		
			<rect x="516.4" y="782.9" transform="matrix(0.9983 -5.888048e-02 5.888048e-02 0.9983 -46.0042 31.9723)" fill="#3F3F3F" width="6.2" height="27.5"/>
		
			<rect x="516.4" y="782.9" transform="matrix(5.888042e-02 0.9983 -0.9983 5.888042e-02 1284.1823 231.0882)" fill="#3F3F3F" width="6.2" height="27.5"/>
	</g>
</g>
<g opacity="0.2" filter="url(#ds1)">
	<circle fill="#F4F4F4" cx="559.5" cy="958" r="21.2"/>
	<g>
		<rect x="556.4" y="944.3" fill="#3F3F3F" width="6.2" height="27.5"/>
		<rect x="545.8" y="954.9" fill="#3F3F3F" width="27.5" height="6.2"/>
	</g>
</g>
<g opacity="0.2" filter="url(#ds1)">
	<circle fill="#F4F4F4" cx="740.6" cy="961.2" r="21.2"/>
	<g>
		<rect x="737.5" y="947.4" fill="#3F3F3F" width="6.2" height="27.5"/>
		<rect x="726.9" y="958" fill="#3F3F3F" width="27.5" height="6.2"/>
	</g>
</g>
<g opacity="0.2" filter="url(#ds1)">
	<circle fill="#F4F4F4" cx="585.4" cy="689.8" r="21.2"/>
	<g>
		<rect x="582.3" y="676.1" fill="#3F3F3F" width="6.2" height="27.5"/>
		<rect x="571.6" y="686.7" fill="#3F3F3F" width="27.5" height="6.2"/>
	</g>
</g>
<g filter="url(#ds1)">
	<circle fill="#F4F4F4" cx="400.8" cy="892.9" r="21.2"/>
	<g>
		
			<rect x="397.7" y="879.2" transform="matrix(0.9983 -5.888048e-02 5.888048e-02 0.9983 -51.8781 25.1485)" fill="#3F3F3F" width="6.2" height="27.5"/>
		
			<rect x="397.7" y="879.2" transform="matrix(5.888042e-02 0.9983 -0.9983 5.888042e-02 1268.5375 440.206)" fill="#3F3F3F" width="6.2" height="27.5"/>
	</g>
</g>
<g opacity="0.2" filter="url(#ds1)">
	<circle fill="#F4F4F4" cx="757.7" cy="815.1" r="21.2"/>
	<g>
		<rect x="754.6" y="801.4" fill="#3F3F3F" width="6.2" height="27.5"/>
		<rect x="744" y="812" fill="#3F3F3F" width="27.5" height="6.2"/>
	</g>
</g>
<g opacity="0.2" filter="url(#ds1)">
	<circle fill="#F4F4F4" cx="477.8" cy="958" r="21.2"/>
	<g>
		<rect x="474.7" y="944.3" fill="#3F3F3F" width="6.2" height="27.5"/>
		<rect x="464.1" y="954.9" fill="#3F3F3F" width="27.5" height="6.2"/>
	</g>
</g>
<g filter="url(#ds1)">
	<circle fill="#F4F4F4" cx="442.4" cy="287.6" r="21.2"/>
</g>
<g filter="url(#ds1)">
	<circle fill="#F4F4F4" cx="183.6" cy="262.5" r="21.2"/>
</g>
<g filter="url(#ds1)">
	<circle fill="#F4F4F4" cx="634.1" cy="428" r="21.2"/>
</g>
<g filter="url(#ds1)">
	<circle fill="#F4F4F4" cx="576.6" cy="329.1" r="21.2"/>
</g>
<g filter="url(#ds1)">
	<circle fill="#F4F4F4" cx="270.5" cy="300.9" r="21.2"/>
</g>
<g filter="url(#ds1)">
	<circle fill="#F4F4F4" cx="206.5" cy="416.7" r="21.2"/>
</g>
<g opacity="0.75">
	<g opacity="0.5">
		<line fill="none" stroke="#000000" stroke-width="6" stroke-miterlimit="10" x1="291.3" y1="730.7" x2="318.5" y2="803.5"/>
		<polygon points="327.4,827.3 301.1,798.9 317.8,801.7 328.5,788.6 		"/>
	</g>
	<g>
		<g>
			<line fill="none" stroke="#FFFFFF" stroke-width="6" stroke-miterlimit="10" x1="290.3" y1="729.7" x2="317.5" y2="802.5"/>
			<g>
				<polygon fill="#FFFFFF" points="326.4,826.3 300.1,797.9 316.8,800.7 327.5,787.6 				"/>
			</g>
		</g>
	</g>
</g>
<g opacity="0.75">
	<g opacity="0.5">
		<line fill="none" stroke="#000000" stroke-width="6" stroke-miterlimit="10" x1="385.5" y1="700.4" x2="411.7" y2="768.8"/>
		<polygon points="420.8,792.5 394.3,764.3 411.1,767 421.7,753.8 		"/>
	</g>
	<g>
		<g>
			<line fill="none" stroke="#FFFFFF" stroke-width="6" stroke-miterlimit="10" x1="384.5" y1="699.4" x2="410.7" y2="767.8"/>
			<g>
				<polygon fill="#FFFFFF" points="419.8,791.5 393.3,763.3 410.1,766 420.7,752.8 				"/>
			</g>
		</g>
	</g>
</g>
<g opacity="0.75">
	<g opacity="0.5">
		<line fill="none" stroke="#000000" stroke-width="6" stroke-miterlimit="10" x1="480" y1="667.3" x2="504.2" y2="732.7"/>
		<polygon points="513,756.5 486.8,728 503.5,730.9 514.3,717.8 		"/>
	</g>
	<g>
		<g>
			<line fill="none" stroke="#FFFFFF" stroke-width="6" stroke-miterlimit="10" x1="479" y1="666.3" x2="503.2" y2="731.7"/>
			<g>
				<polygon fill="#FFFFFF" points="512,755.5 485.8,727 502.5,729.9 513.3,716.8 				"/>
			</g>
		</g>
	</g>
</g>
<g>
	<g opacity="0.5">
		<path fill="none" stroke="#000000" stroke-width="4" stroke-miterlimit="10" d="M517,473c-43.7,29.2-79.9,72-65.6,123.9"/>
	</g>
	<g>
		<path fill="none" stroke="#FFFFFF" stroke-width="4" stroke-miterlimit="10" d="M516,472c-43.7,29.2-79.9,72-65.6,123.9"/>
	</g>
</g>
<g>
	<g opacity="0.5">
		<path fill="none" stroke="#000000" stroke-width="4" stroke-miterlimit="10" d="M217.4,435.8c0.4,0.7,0.8,1.5,1.2,2.2"/>
		<path fill="none" stroke="#000000" stroke-width="4" stroke-miterlimit="10" stroke-dasharray="5.0511,5.0511" d="M221.1,442.4
			c11.4,19.5,22.8,34.6,34,47"/>
		<path fill="none" stroke="#000000" stroke-width="4" stroke-miterlimit="10" d="M256.8,491.2c0.6,0.6,1.1,1.2,1.7,1.8"/>
	</g>
	<g>
		<g>
			<path fill="none" stroke="#FFFFFF" stroke-width="4" stroke-miterlimit="10" d="M216.4,434.8c0.4,0.7,0.8,1.5,1.2,2.2"/>
			<path fill="none" stroke="#FFFFFF" stroke-width="4" stroke-miterlimit="10" stroke-dasharray="5.0511,5.0511" d="M220.1,441.4
				c11.4,19.5,22.8,34.6,34,47"/>
			<path fill="none" stroke="#FFFFFF" stroke-width="4" stroke-miterlimit="10" d="M255.8,490.2c0.6,0.6,1.1,1.2,1.7,1.8"/>
		</g>
	</g>
</g>
<g>
	<g opacity="0.5">
		<path fill="none" stroke="#000000" stroke-width="4" stroke-miterlimit="10" d="M196.1,280.4c0.5,0.7,1,1.3,1.5,2"/>
		<path fill="none" stroke="#000000" stroke-width="4" stroke-miterlimit="10" stroke-dasharray="5.0919,5.0919" d="M200.5,286.6
			c21.5,31.3,55.7,92.9,88.3,157.6"/>
		<path fill="none" stroke="#000000" stroke-width="4" stroke-miterlimit="10" d="M289.9,446.6c0.4,0.7,0.7,1.5,1.1,2.2"/>
	</g>
	<g>
		<g>
			<path fill="none" stroke="#FFFFFF" stroke-width="4" stroke-miterlimit="10" d="M195.1,279.4c0.5,0.7,1,1.3,1.5,2"/>
			<path fill="none" stroke="#FFFFFF" stroke-width="4" stroke-miterlimit="10" stroke-dasharray="5.0919,5.0919" d="M199.5,285.6
				c21.5,31.3,55.7,92.9,88.3,157.6"/>
			<path fill="none" stroke="#FFFFFF" stroke-width="4" stroke-miterlimit="10" d="M288.9,445.6c0.4,0.7,0.7,1.5,1.1,2.2"/>
		</g>
	</g>
</g>
<g>
	<g opacity="0.5">
		<path fill="none" stroke="#000000" stroke-width="4" stroke-miterlimit="10" d="M280.4,320.2c0.4,0.7,0.7,1.5,1.1,2.2"/>
		<path fill="none" stroke="#000000" stroke-width="4" stroke-miterlimit="10" stroke-dasharray="4.9716,4.9716" d="M283.5,327
			c9.5,20.9,22.7,56.6,36.6,100.4"/>
		<path fill="none" stroke="#000000" stroke-width="4" stroke-miterlimit="10" d="M320.9,429.8c0.2,0.8,0.5,1.6,0.7,2.4"/>
	</g>
	<g>
		<g>
			<path fill="none" stroke="#FFFFFF" stroke-width="4" stroke-miterlimit="10" d="M279.4,319.2c0.4,0.7,0.7,1.5,1.1,2.2"/>
			<path fill="none" stroke="#FFFFFF" stroke-width="4" stroke-miterlimit="10" stroke-dasharray="4.9716,4.9716" d="M282.5,326
				c9.5,20.9,22.7,56.6,36.6,100.4"/>
			<path fill="none" stroke="#FFFFFF" stroke-width="4" stroke-miterlimit="10" d="M319.9,428.8c0.2,0.8,0.5,1.6,0.7,2.4"/>
		</g>
	</g>
</g>
<g>
	<g opacity="0.5">
		<path fill="none" stroke="#000000" stroke-width="4" stroke-miterlimit="10" d="M434.3,307c-0.4,0.7-0.8,1.5-1.2,2.2"/>
		<path fill="none" stroke="#000000" stroke-width="4" stroke-miterlimit="10" stroke-dasharray="4.9892,4.9892" d="M430.9,313.7
			c-14.5,28.8-29.2,67.3-40.9,109.7"/>
		<path fill="none" stroke="#000000" stroke-width="4" stroke-miterlimit="10" d="M389.3,425.8c-0.2,0.8-0.4,1.6-0.7,2.4"/>
	</g>
	<g>
		<g>
			<path fill="none" stroke="#FFFFFF" stroke-width="4" stroke-miterlimit="10" d="M433.3,306c-0.4,0.7-0.8,1.5-1.2,2.2"/>
			<path fill="none" stroke="#FFFFFF" stroke-width="4" stroke-miterlimit="10" stroke-dasharray="4.9892,4.9892" d="M429.9,312.7
				c-14.5,28.8-29.2,67.3-40.9,109.7"/>
			<path fill="none" stroke="#FFFFFF" stroke-width="4" stroke-miterlimit="10" d="M388.3,424.8c-0.2,0.8-0.4,1.6-0.7,2.4"/>
		</g>
	</g>
</g>
<g>
	<g opacity="0.5">
		<path fill="none" stroke="#000000" stroke-width="4" stroke-miterlimit="10" d="M560.5,340.8c-0.7,0.4-1.4,0.8-2.1,1.3"/>
		<path fill="none" stroke="#000000" stroke-width="4" stroke-miterlimit="10" stroke-dasharray="5.2001,5.2001" d="M554,344.8
			c-28.8,18.7-54.4,48.3-72.8,83.3"/>
		<path fill="none" stroke="#000000" stroke-width="4" stroke-miterlimit="10" d="M479.9,430.4c-0.4,0.7-0.8,1.5-1.1,2.2"/>
	</g>
	<g>
		<g>
			<path fill="none" stroke="#FFFFFF" stroke-width="4" stroke-miterlimit="10" d="M559.5,339.8c-0.7,0.4-1.4,0.8-2.1,1.3"/>
			<path fill="none" stroke="#FFFFFF" stroke-width="4" stroke-miterlimit="10" stroke-dasharray="5.2001,5.2001" d="M553,343.8
				c-28.8,18.7-54.4,48.3-72.8,83.3"/>
			<path fill="none" stroke="#FFFFFF" stroke-width="4" stroke-miterlimit="10" d="M478.9,429.4c-0.4,0.7-0.8,1.5-1.1,2.2"/>
		</g>
	</g>
</g>
<g>
	<g opacity="0.5">
		<path fill="none" stroke="#000000" stroke-width="4" stroke-miterlimit="10" d="M615,431.4c-0.8,0.1-1.6,0.2-2.5,0.4"/>
		<path fill="none" stroke="#000000" stroke-width="4" stroke-miterlimit="10" stroke-dasharray="4.8675,4.8675" d="M607.8,432.7
			c-22.2,4.8-55.9,17.8-86.7,37.6"/>
		<path fill="none" stroke="#000000" stroke-width="4" stroke-miterlimit="10" d="M519.1,471.6c-0.7,0.5-1.4,0.9-2.1,1.4"/>
	</g>
	<g>
		<g>
			<path fill="none" stroke="#FFFFFF" stroke-width="4" stroke-miterlimit="10" d="M614,430.4c-0.8,0.1-1.6,0.2-2.5,0.4"/>
			<path fill="none" stroke="#FFFFFF" stroke-width="4" stroke-miterlimit="10" stroke-dasharray="4.8675,4.8675" d="M606.8,431.7
				c-22.2,4.8-55.9,17.8-86.7,37.6"/>
			<path fill="none" stroke="#FFFFFF" stroke-width="4" stroke-miterlimit="10" d="M518.1,470.6c-0.7,0.5-1.4,0.9-2.1,1.4"/>
		</g>
	</g>
</g>
<g>
	<g opacity="0.5">
		<path fill="none" stroke="#000000" stroke-width="4" stroke-miterlimit="10" d="M258.5,493.1c43.5,46.5,83.6,56.2,110.3,142.7"/>
	</g>
	<g>
		<path fill="none" stroke="#FFFFFF" stroke-width="4" stroke-miterlimit="10" d="M257.5,492.1c43.5,46.5,83.6,56.2,110.3,142.7"/>
	</g>
</g>
<g>
	<g opacity="0.5">
		<path fill="none" stroke="#000000" stroke-width="4" stroke-miterlimit="10" d="M291,448.8c38.6,77,74.5,157.5,83.8,196"/>
	</g>
	<g>
		<path fill="none" stroke="#FFFFFF" stroke-width="4" stroke-miterlimit="10" d="M290,447.8c38.6,77,74.5,157.5,83.8,196"/>
	</g>
</g>
<g>
	<g opacity="0.5">
		<path fill="none" stroke="#000000" stroke-width="4" stroke-miterlimit="10" d="M321.6,432.2c20.4,65.3,41.8,147.4,53.9,225"/>
	</g>
	<g>
		<path fill="none" stroke="#FFFFFF" stroke-width="4" stroke-miterlimit="10" d="M320.6,431.2c20.4,65.3,41.8,147.4,53.9,225"/>
	</g>
</g>
<g>
	<g opacity="0.5">
		<path fill="none" stroke="#000000" stroke-width="4" stroke-miterlimit="10" d="M388.7,428.2c-20.5,76.2-30.9,163.9-13.2,228.9"/>
	</g>
	<g>
		<path fill="none" stroke="#FFFFFF" stroke-width="4" stroke-miterlimit="10" d="M387.7,427.2c-20.5,76.2-30.9,163.9-13.2,228.9"/>
	</g>
</g>
<g>
	<g opacity="0.5">
		<path fill="none" stroke="#000000" stroke-width="4" stroke-miterlimit="10" d="M478.8,432.6c-25.7,51.2-36.1,113.2-18.9,169.5"/>
	</g>
	<g>
		<path fill="none" stroke="#FFFFFF" stroke-width="4" stroke-miterlimit="10" d="M477.8,431.6c-25.7,51.2-36.1,113.2-18.9,169.5"/>
	</g>
</g>
<g filter="url(#ds1)">
	<path fill="#D0D2D3" stroke="#929497" stroke-width="1.4546" stroke-linejoin="round" stroke-miterlimit="10" d="M324.3,738
		c6.1-14.9,8.4-30.4,7.3-45.5c9.2,13.4,21.9,24.7,37.4,32.5l49.2-16.2c6.8-13.5,10.2-27.8,10.7-42c8.3,11,19,20.5,31.9,27.5
		l49.7-14.5c26.6-48.6,8.8-109.6-39.8-136.2L420.9,558c-2.7,4.8-4.8,9.8-6.6,14.8l-16.8-6.4L386.9,582c-4.1-3-8.6-5.6-13.3-8
		l-49.2,16.2c-2.1,4.1-3.8,8.2-5.2,12.5l-20.9-4.8l-12.3,17.7c-5.1-3.3-10.5-6.2-16.4-8.6c-14.5,6-32,13.3-47.8,19.9
		c-21.1,51.2,3.3,109.9,54.6,131L324.3,738z"/>
	
		<linearGradient id="SVGID_2_" gradientUnits="userSpaceOnUse" x1="360.7939" y1="583.4861" x2="382.1043" y2="674.3844" gradientTransform="matrix(0.9983 -5.888048e-02 5.888048e-02 0.9983 -34.0235 25.9524)">
		<stop  offset="0" style="stop-color:#B5B5B5"/>
		<stop  offset="1" style="stop-color:#9A9A9A"/>
	</linearGradient>
	<path fill="url(#SVGID_2_)" d="M444.7,609.2c-28.9,1.2-111.2,14.9-152.2,47c-4.2,3.3-10,1.8-12.1,0.7c-4.4-2.1-14.5-12.5-16.8-47.4
		c-13.1,5.5-27.9,11.6-41.5,17.3c4.5,39.8,17.5,64.5,39.6,74.9c7.6,3.6,15.8,5.1,24.2,4.6c11.9-0.7,25-4.3,34.9-14
		c28.5-27.8,104-34.2,130.1-37.7c29.9-4.1,56.4-20.7,68.6-48.4c-4.9-18.7-15.1-36-30-49.3C493.8,602,453.8,608.9,444.7,609.2z"/>
</g>
<g filter="url(#ds1)">
	<circle fill="#3F3F3F" cx="466.2" cy="620.4" r="15.6"/>
	
		<rect x="463.3" y="610.2" transform="matrix(-2.208451e-02 0.9998 -0.9998 -2.208451e-02 1096.6914 167.9992)" fill="#FFFFFF" width="5.7" height="20.2"/>
</g>
<g filter="url(#ds1)">
	<circle fill="#3F3F3F" cx="499" cy="595.9" r="15.6"/>
	
		<rect x="496.1" y="585.8" transform="matrix(-2.208451e-02 0.9998 -0.9998 -2.208451e-02 1105.7384 110.1906)" fill="#FFFFFF" width="5.7" height="20.2"/>
</g>
<g opacity="0.2" filter="url(#ds1)">
	<circle fill="#F4F4F4" cx="1235.1" cy="46.6" r="21.2"/>
	<g>
		<rect x="1232" y="32.9" fill="#3F3F3F" width="6.2" height="27.5"/>
		<rect x="1221.4" y="43.5" fill="#3F3F3F" width="27.5" height="6.2"/>
	</g>
</g>
<g opacity="0.2" filter="url(#ds1)">
	<circle fill="#F4F4F4" cx="1350.4" cy="135.7" r="21.2"/>
	<g>
		<rect x="1347.3" y="121.9" fill="#3F3F3F" width="6.2" height="27.5"/>
		<rect x="1336.7" y="132.5" fill="#3F3F3F" width="27.5" height="6.2"/>
	</g>
</g>
<g filter="url(#ds1)">
	<path fill="#D0D2D3" d="M851.8,323.6c-56.8,35.8-42.5,146.8,16,162.7c2-0.3,18.4,101.4,18.4,101.4c-21.3,12.3-8,34.4,7.2,32.5
		c10.2-1.3,23.8-3,34-4.3c17.1-2,22.7-26.6-1-33.3c0,0-9.2-102.5-7.2-102.8c49.4-23.1,51.4-138.9-16-162.7
		C887.5,319.2,867.4,321.7,851.8,323.6z"/>
	<path fill="none" stroke="#929497" stroke-width="1.4546" stroke-linejoin="round" stroke-miterlimit="10" d="M851.8,323.6
		c-56.8,35.8-42.5,146.8,16,162.7c2-0.3,18.4,101.4,18.4,101.4c-21.3,12.3-8,34.4,7.2,32.5c10.2-1.3,23.8-3,34-4.3
		c17.1-2,22.7-26.6-1-33.3c0,0-9.2-102.5-7.2-102.8c49.4-23.1,51.4-138.9-16-162.7C887.5,319.2,867.4,321.7,851.8,323.6z"/>
</g>
<g filter="url(#ds1)">
	<path fill="#D0D2D3" d="M1016,474.4l-38.3-6.4c-7.1-1.2-12.7-6.9-13.8-14l-5.7-38.4c-1.1-7.2,2.6-14.2,9.1-17.4l34.8-17.3
		c6.5-3.2,14.3-1.9,19.4,3.2l27.2,27.7c5.1,5.2,6.2,13,2.9,19.4l-17.9,34.4C1030.3,472.1,1023.2,475.6,1016,474.4z"/>
	<path fill="none" stroke="#929497" stroke-width="1.3289" stroke-linejoin="round" stroke-miterlimit="10" d="M1016,474.4
		l-38.3-6.4c-7.1-1.2-12.7-6.9-13.8-14l-5.7-38.4c-1.1-7.2,2.6-14.2,9.1-17.4l34.8-17.3c6.5-3.2,14.3-1.9,19.4,3.2l27.2,27.7
		c5.1,5.2,6.2,13,2.9,19.4l-17.9,34.4C1030.3,472.1,1023.2,475.6,1016,474.4z"/>
</g>
<g filter="url(#ds1)">
	<path fill="#D0D2D3" d="M1387.8,470.1l-38.3-6.4c-7.1-1.2-12.7-6.9-13.8-14l-5.7-38.4c-1.1-7.2,2.6-14.2,9.1-17.4l34.8-17.3
		c6.5-3.2,14.3-1.9,19.4,3.2l27.2,27.7c5.1,5.2,6.2,13,2.9,19.4l-17.9,34.4C1402,467.8,1394.9,471.3,1387.8,470.1z"/>
	<path fill="none" stroke="#929497" stroke-width="1.3289" stroke-linejoin="round" stroke-miterlimit="10" d="M1387.8,470.1
		l-38.3-6.4c-7.1-1.2-12.7-6.9-13.8-14l-5.7-38.4c-1.1-7.2,2.6-14.2,9.1-17.4l34.8-17.3c6.5-3.2,14.3-1.9,19.4,3.2l27.2,27.7
		c5.1,5.2,6.2,13,2.9,19.4l-17.9,34.4C1402,467.8,1394.9,471.3,1387.8,470.1z"/>
</g>
<g filter="url(#ds1)">
	<path fill="#C99BD3" d="M991.5,303c0-0.3,0.1-0.5,0.1-0.8c0.6-4,1.8-7.9,1.8-11.9c-0.1-4.1-1.1-8.1-3.3-11.6
		c-6.4-9.7-19.5-12.4-29.3-6c-5.8,3.8-10.1,9.2-16.4,12.6c-3.2,1.7-6.8,2.8-9.9,4.8c-9.7,6.4-12.4,19.5-6,29.3
		c5.8,8.8,16.1,8,24.9,11.8c4.6,2,8,4.8,13.3,5.3c5.2,0.5,10.5-0.8,14.9-3.7c6.4-4.2,10.7-12,10.4-19.7
		C991.8,309.6,991.2,306.4,991.5,303z"/>
	<path fill="none" stroke="#9E6AA5" stroke-width="1.5" stroke-miterlimit="10" d="M991.5,303c0-0.3,0.1-0.5,0.1-0.8
		c0.6-4,1.8-7.9,1.8-11.9c-0.1-4.1-1.1-8.1-3.3-11.6c-6.4-9.7-19.5-12.4-29.3-6c-5.8,3.8-10.1,9.2-16.4,12.6
		c-3.2,1.7-6.8,2.8-9.9,4.8c-9.7,6.4-12.4,19.5-6,29.3c5.8,8.8,16.1,8,24.9,11.8c4.6,2,8,4.8,13.3,5.3c5.2,0.5,10.5-0.8,14.9-3.7
		c6.4-4.2,10.7-12,10.4-19.7C991.8,309.6,991.2,306.4,991.5,303z"/>
</g>
<g filter="url(#ds1)">
	<path fill="#C99BD3" d="M1369.6,364.8c0-0.3,0.1-0.5,0.1-0.8c0.6-4,1.8-7.9,1.8-11.9c-0.1-4.1-1.1-8.1-3.3-11.6
		c-6.4-9.7-19.5-12.4-29.3-6c-5.8,3.8-10.1,9.2-16.4,12.6c-3.2,1.7-6.8,2.8-9.9,4.8c-9.7,6.4-12.4,19.5-6,29.3
		c5.8,8.8,16.1,8,24.9,11.8c4.6,2,8,4.8,13.3,5.3c5.2,0.5,10.5-0.8,14.9-3.7c6.4-4.2,10.7-12,10.4-19.7
		C1369.9,371.4,1369.3,368.2,1369.6,364.8z"/>
	<path fill="none" stroke="#9E6AA5" stroke-width="1.5" stroke-miterlimit="10" d="M1369.6,364.8c0-0.3,0.1-0.5,0.1-0.8
		c0.6-4,1.8-7.9,1.8-11.9c-0.1-4.1-1.1-8.1-3.3-11.6c-6.4-9.7-19.5-12.4-29.3-6c-5.8,3.8-10.1,9.2-16.4,12.6
		c-3.2,1.7-6.8,2.8-9.9,4.8c-9.7,6.4-12.4,19.5-6,29.3c5.8,8.8,16.1,8,24.9,11.8c4.6,2,8,4.8,13.3,5.3c5.2,0.5,10.5-0.8,14.9-3.7
		c6.4-4.2,10.7-12,10.4-19.7C1369.9,371.4,1369.3,368.2,1369.6,364.8z"/>
</g>
<g>
	<g filter="url(#ds1)">
		<path fill="#D0D2D3" d="M233.2,598.9c5.5-2.9,10.2-10.3,10.5-16.5l1.2-28.4c0.3-6.2-3.8-14-9.1-17.3l-24-15.2
			c-5.3-3.3-14.2-3.9-19.8-1.3L169,530.7c-2.6,1.2-9.2,4-9.2,4s-8.6-1.7-11.8-2.7l-32.8-10.6c-5.9-1.9-13.7,0.6-17.4,5.7l-20.2,27.9
			c-3.7,5-3.6,13.3,0,18.3L97.9,601c3.7,5,11.5,7.6,17.4,5.6L148,596c5.9-1.9,10.8-3.5,10.8-3.5s4.3,2.7,9.6,6l20.1,12.7
			c5.3,3.3,14.1,3.7,19.6,0.8L233.2,598.9z"/>
		<path fill="none" stroke="#929497" stroke-width="1.4546" stroke-linejoin="round" stroke-miterlimit="10" d="M233.2,598.9
			c5.5-2.9,10.2-10.3,10.5-16.5l1.2-28.4c0.3-6.2-3.8-14-9.1-17.3l-24-15.2c-5.3-3.3-14.2-3.9-19.8-1.3L169,530.7
			c-2.6,1.2-9.2,4-9.2,4s-8.6-1.7-11.8-2.7l-32.8-10.6c-5.9-1.9-13.7,0.6-17.4,5.7l-20.2,27.9c-3.7,5-3.6,13.3,0,18.3L97.9,601
			c3.7,5,11.5,7.6,17.4,5.6L148,596c5.9-1.9,10.8-3.5,10.8-3.5s4.3,2.7,9.6,6l20.1,12.7c5.3,3.3,14.1,3.7,19.6,0.8L233.2,598.9z"/>
	</g>
	<g filter="url(#ds1)">
		<circle fill="#F4F4F4" cx="200.6" cy="506.6" r="19.2"/>
		<g>
			
				<rect x="197.8" y="494.2" transform="matrix(0.4198 0.9076 -0.9076 0.4198 576.2416 111.8373)" fill="#3F3F3F" width="5.6" height="24.8"/>
			
				<rect x="197.8" y="494.2" transform="matrix(-0.9076 0.4198 -0.4198 -0.9076 595.4368 882.2217)" fill="#3F3F3F" width="5.6" height="24.8"/>
		</g>
	</g>
	<g filter="url(#ds1)">
		<circle fill="#F4F4F4" cx="148.5" cy="625.4" r="19.2"/>
		<g>
			
				<rect x="145.7" y="613" transform="matrix(0.4198 0.9076 -0.9076 0.4198 653.8032 228.0409)" fill="#3F3F3F" width="5.6" height="24.8"/>
			
				<rect x="145.7" y="613" transform="matrix(-0.9076 0.4198 -0.4198 -0.9076 545.8919 1130.6582)" fill="#3F3F3F" width="5.6" height="24.8"/>
		</g>
	</g>
	<g filter="url(#ds1)">
		<circle fill="#3F3F3F" cx="176.8" cy="548.1" r="14.1"/>
		
			<rect x="174.2" y="539" transform="matrix(-0.9076 0.4198 -0.4198 -0.9076 567.3638 971.4449)" fill="#FFFFFF" width="5.2" height="18.3"/>
	</g>
	<g filter="url(#ds1)">
		<circle fill="#3F3F3F" cx="184.6" cy="584.7" r="14.1"/>
		
			<rect x="182" y="575.5" transform="matrix(-0.9076 0.4198 -0.4198 -0.9076 597.5533 1037.8199)" fill="#FFFFFF" width="5.2" height="18.3"/>
	</g>
</g>
<g>
	<g filter="url(#ds1)">
		<path fill="#D0D2D3" d="M378.7,116.7l-26.9,6.9c-6.1,1-12.2,6.7-13.5,12.8l-4,18.9c-1.3,6.1,1.2,14.7,5.4,19.2l17.1,18
			c4.3,4.5,12.8,7.4,18.9,6.4l19-3c6.1-1,12.2-6.7,13.5-12.8c0,0,8.7-26.5,8.9-27.2c0.2-0.6,27.6-7.5,27.6-7.5
			c6.1-1,12.2-6.7,13.5-12.8l9.2-27.5l27.3-7.2c6.1-1,12.2-6.7,13.5-12.8l4-18.9c1.3-6.1-1.2-14.7-5.4-19.2l-17.1-18
			c-4.3-4.5-12.8-7.4-18.9-6.4l-19,3c-6.1,1-12.2,6.7-13.5,12.8l-8.9,27.2l-27.6,7.5c-6.1,1-12.2,6.7-13.5,12.8L378.7,116.7z"/>
		<path fill="none" stroke="#929497" stroke-width="1.4546" stroke-linejoin="round" stroke-miterlimit="10" d="M378.7,116.7
			l-26.9,6.9c-6.1,1-12.2,6.7-13.5,12.8l-4,18.9c-1.3,6.1,1.2,14.7,5.4,19.2l17.1,18c4.3,4.5,12.8,7.4,18.9,6.4l19-3
			c6.1-1,12.2-6.7,13.5-12.8c0,0,8.7-26.5,8.9-27.2c0.2-0.6,27.6-7.5,27.6-7.5c6.1-1,12.2-6.7,13.5-12.8l9.2-27.5l27.3-7.2
			c6.1-1,12.2-6.7,13.5-12.8l4-18.9c1.3-6.1-1.2-14.7-5.4-19.2l-17.1-18c-4.3-4.5-12.8-7.4-18.9-6.4l-19,3
			c-6.1,1-12.2,6.7-13.5,12.8l-8.9,27.2l-27.6,7.5c-6.1,1-12.2,6.7-13.5,12.8L378.7,116.7z"/>
	</g>
	<g filter="url(#ds1)">
		<circle fill="#F4F4F4" cx="327.4" cy="114.3" r="19.1"/>
		<g>
			
				<rect x="324.6" y="101.9" transform="matrix(0.9157 0.4018 -0.4018 0.9157 73.5222 -121.906)" fill="#3F3F3F" width="5.6" height="24.8"/>
			
				<rect x="324.6" y="101.9" transform="matrix(-0.4018 0.9157 -0.9157 -0.4018 563.5907 -139.5329)" fill="#3F3F3F" width="5.6" height="24.8"/>
		</g>
	</g>
	<g filter="url(#ds1)">
		<circle fill="#F4F4F4" cx="466.2" cy="163.4" r="19.1"/>
		<g>
			
				<rect x="463.4" y="151" transform="matrix(0.9157 0.4018 -0.4018 0.9157 104.9416 -173.5453)" fill="#3F3F3F" width="5.6" height="24.8"/>
			
				<rect x="463.4" y="151" transform="matrix(-0.4018 0.9157 -0.9157 -0.4018 803.1215 -197.8445)" fill="#3F3F3F" width="5.6" height="24.8"/>
		</g>
	</g>
	<g filter="url(#ds1)">
		<circle fill="#3F3F3F" cx="439" cy="129.6" r="14.1"/>
		
			<rect x="436.4" y="120.5" transform="matrix(-0.4018 0.9157 -0.9157 -0.4018 734.106 -220.273)" fill="#FFFFFF" width="5.2" height="18.2"/>
	</g>
	<g filter="url(#ds1)">
		<circle fill="#3F3F3F" cx="359.2" cy="147" r="14.1"/>
		
			<rect x="356.6" y="137.9" transform="matrix(-0.4018 0.9157 -0.9157 -0.4018 638.1506 -122.8572)" fill="#FFFFFF" width="5.2" height="18.2"/>
	</g>
</g>
<g>
	<g>
		<path fill="#FFFFFF" d="M1392.1,325.4h3.9l12.8-36.7h8.9l12.8,36.7h3.9v5.9h-16v-5.9h4.2l-2.6-8h-13.4l-2.6,8h4.2v5.9h-16V325.4z
			 M1418.1,311.3l-4-12.1l-0.7-2.6c-0.1-0.4-0.1-0.8-0.1-1.1h-0.2l-0.2,1.1c-0.2,0.7-0.3,1.5-0.6,2.6l-4.1,12.1H1418.1z"/>
		<path fill="#FFFFFF" d="M1443.5,325.4h5.1V295h-8v6.4h-6.7v-12.7h37.3v12.7h-6.7V295h-8.1v30.4h5.2v5.9h-18.1V325.4z"/>
		<path fill="#FFFFFF" d="M1475.8,325.4h5.1v-30.8h-5.1v-5.9h20.4c2.6,0,5.1,0.2,7.2,1.1c4.6,1.9,7.6,6.6,7.6,12.6
			c0,6.1-3.1,11.2-8.1,13c-2,0.7-4.1,0.8-6.5,0.8h-7.6v9.2h5.2v5.9h-18.1V325.4z M1495.4,309.9c1.7,0,3.2-0.3,4.3-0.8
			c2.3-1.1,3.5-3.5,3.5-6.7c0-2.9-1.1-5.2-3.1-6.4c-1.1-0.7-2.6-1-4.6-1h-6.7v14.9H1495.4z"/>
	</g>
</g>
<g>
	<g>
		<path fill="#FFFFFF" d="M1010.3,352h3.9l12.8-36.7h8.9l12.8,36.7h3.9v5.9h-16V352h4.2l-2.6-8h-13.4l-2.6,8h4.2v5.9h-16V352z
			 M1036.3,337.9l-4-12.1l-0.7-2.6c-0.1-0.4-0.1-0.8-0.1-1.1h-0.2l-0.2,1.1c-0.2,0.7-0.3,1.5-0.6,2.6l-4.1,12.1H1036.3z"/>
		<path fill="#FFFFFF" d="M1056.3,352h5.1v-30.8h-5.1v-5.9h18.4c3.4,0,6.1,0.1,8.9,1c8.3,2.4,13.8,9.8,13.8,20.3
			c0,10.1-5,17.3-13.2,20c-2.9,1-5.8,1.3-9.4,1.3h-18.5V352z M1074.4,351.6c2.7,0,4.9-0.2,7-1.1c4.9-2,7.9-6.9,7.9-13.9
			c0-7.3-3.2-12.1-8.2-14c-2.2-0.9-4.1-1-6.7-1h-5.2v30H1074.4z"/>
		<path fill="#FFFFFF" d="M1103.1,352h5.1v-30.8h-5.1v-5.9h20.4c2.6,0,5.1,0.2,7.2,1.1c4.6,1.9,7.6,6.6,7.6,12.6
			c0,6.1-3.1,11.2-8.1,13c-2,0.7-4.1,0.8-6.5,0.8h-7.6v9.2h5.2v5.9h-18.1V352z M1122.7,336.5c1.7,0,3.2-0.3,4.3-0.8
			c2.3-1.1,3.5-3.5,3.5-6.7c0-2.9-1.1-5.2-3.1-6.4c-1.1-0.7-2.6-1-4.6-1h-6.7v14.9H1122.7z"/>
	</g>
</g>
<g>
	<path fill="#FFFFFF" d="M766,100.7h3.9L782.7,64h8.9l12.8,36.7h3.9v5.9h-16v-5.9h4.2l-2.6-8h-13.4l-2.6,8h4.2v5.9h-16V100.7z
		 M792,86.6l-4-12.1l-0.7-2.6c-0.1-0.4-0.1-0.8-0.1-1.1H787l-0.2,1.1c-0.2,0.7-0.3,1.5-0.6,2.6l-4.1,12.1H792z"/>
	<path fill="#FFFFFF" d="M817.3,100.7h5.1V70.3h-8v6.4h-6.7V64h37.3v12.7h-6.7v-6.4h-8.1v30.4h5.2v5.9h-18.1V100.7z"/>
	<path fill="#FFFFFF" d="M849.7,100.7h5.1V70h-5.1V64h20.4c2.6,0,5.1,0.2,7.2,1.1c4.6,1.9,7.6,6.6,7.6,12.6c0,6.1-3.1,11.2-8.1,13
		c-2,0.7-4.1,0.8-6.5,0.8h-7.6v9.2h5.2v5.9h-18.1V100.7z M869.2,85.2c1.7,0,3.2-0.3,4.3-0.8c2.3-1.1,3.5-3.5,3.5-6.7
		c0-2.9-1.1-5.2-3.1-6.4c-1.1-0.7-2.6-1-4.6-1h-6.7v14.9H869.2z"/>
	<path fill="#FFFFFF" d="M668.2,164.9v3.2c0,2.7,3.5,4.4,7.5,4.4c4.3,0,7.4-1.9,7.4-5.3c0-4.3-4.9-5.7-9.8-7.6
		c-5.7-2.2-11.3-4.7-11.3-12.4c0-8.6,6.9-11.9,14.3-11.9c6.7,0,13.5,2.5,13.5,7.5v5.6h-7.1v-2.9c0-2.2-3.2-3.3-6.4-3.3
		c-3.5,0-6.4,1.4-6.4,4.7c0,4,4,5.2,8.4,7c6.4,2.2,12.7,4.9,12.7,12.8c0,8.7-7.3,12.7-15.4,12.7c-7.1,0-14.6-3.2-14.6-9.6v-4.9
		H668.2z"/>
	<path fill="#FFFFFF" d="M704.2,172.7h5.2v-11.9L698.1,142h-3.9V136H710v5.9h-4.1l6.5,11.2c0.3,0.5,0.5,0.9,0.7,1.3
		c0.1,0.2,0.2,0.4,0.2,0.6h0.1c0.1-0.2,0.1-0.4,0.2-0.6c0.2-0.4,0.4-0.8,0.7-1.3l6.5-11.2h-4.1V136h15.7v5.9h-3.8l-11.3,18.8v11.9
		h5.1v5.9h-18.1V172.7z"/>
	<path fill="#FFFFFF" d="M736,172.7h5.1V142H736V136h13l17.9,27.4c0.4,0.7,0.8,1.6,1.1,2.3l0.5,1.3h0.2l-0.1-1.4
		c-0.1-0.9-0.1-1.8-0.1-2.6V142h-5.3V136h18.2v5.9h-5.1v36.7h-7.9l-17.9-27.3c-0.4-0.7-0.8-1.6-1.1-2.3l-0.5-1.3h-0.2l0.2,1.4
		c0.1,0.8,0.2,1.8,0.1,2.6v21.1h5.3v5.9H736V172.7z"/>
	<path fill="#FFFFFF" d="M795.1,172.7h5.1v-30.4h-8v6.4h-6.7V136h37.3v12.7h-6.7v-6.4H808v30.4h5.2v5.9h-18.1V172.7z"/>
	<path fill="#FFFFFF" d="M827.4,172.7h5.1V142h-5.1V136h18.1v5.9h-5.2v12.3h19.4V142h-5.2V136h18.1v5.9h-5.1v30.8h5.1v5.9h-18.1
		v-5.9h5.2v-12.2h-19.4v12.2h5.2v5.9h-18.1V172.7z"/>
	<path fill="#FFFFFF" d="M876.4,172.7h3.9l12.8-36.7h8.9l12.8,36.7h3.9v5.9h-16v-5.9h4.2l-2.6-8h-13.4l-2.6,8h4.2v5.9h-16V172.7z
		 M902.5,158.6l-4-12.1l-0.7-2.6c-0.1-0.4-0.1-0.8-0.1-1.1h-0.2l-0.2,1.1c-0.2,0.7-0.3,1.5-0.6,2.6l-4.1,12.1H902.5z"/>
	<path fill="#FFFFFF" d="M929.5,164.9v3.2c0,2.7,3.5,4.4,7.5,4.4c4.3,0,7.4-1.9,7.4-5.3c0-4.3-4.9-5.7-9.8-7.6
		c-5.7-2.2-11.3-4.7-11.3-12.4c0-8.6,6.9-11.9,14.3-11.9c6.7,0,13.5,2.5,13.5,7.5v5.6h-7.1v-2.9c0-2.2-3.2-3.3-6.4-3.3
		c-3.5,0-6.4,1.4-6.4,4.7c0,4,4,5.2,8.4,7c6.4,2.2,12.7,4.9,12.7,12.8c0,8.7-7.3,12.7-15.4,12.7c-7.1,0-14.6-3.2-14.6-9.6v-4.9
		H929.5z"/>
	<path fill="#FFFFFF" d="M958.2,172.7h5.1V142h-5.1V136h31.6v11h-6.7v-4.7h-11.9V154h14v6.3h-14v12H984v-4.8h6.7v11.1h-32.5V172.7z"
		/>
</g>
<g>
	<g opacity="0.5">
		<path fill="none" stroke="#000000" stroke-width="6" stroke-miterlimit="10" d="M952.7,678.1c0,0-26,2.1-37.2-31.9"/>
		<polygon points="911.5,627.5 928.2,651.3 916.1,647.5 906.8,656.2 		"/>
	</g>
	<g>
		<g>
			<path fill="none" stroke="#FFFFFF" stroke-width="6" stroke-miterlimit="10" d="M951.7,677.1c0,0-26,2.1-37.2-31.9"/>
			<g>
				<polygon fill="#FFFFFF" points="910.5,626.5 927.2,650.3 915.1,646.5 905.8,655.2 				"/>
			</g>
		</g>
	</g>
</g>
<g filter="url(#ds1)">
	<circle fill="#F4F4F4" cx="1226.8" cy="175.6" r="21.2"/>
	<g>
		<rect x="1223.6" y="161.9" fill="#3F3F3F" width="6.2" height="27.5"/>
		<rect x="1213" y="172.5" fill="#3F3F3F" width="27.5" height="6.2"/>
	</g>
</g>
<g filter="url(#ds1)">
	<path fill="#D0D2D3" d="M1198.5,307.6c-60.9,28.1-61.3,140.1-5.3,163.4c2,0,5,102.9,5,102.9c-22.8,9.4-12.4,33,2.9,33.2
		c10.3,0.1,24,0.1,34.3,0.2c17.2,0.2,26-23.5,3.3-33.2c0,0,4.2-102.9,6.2-102.9c52-16.4,69.1-131,5.3-163.4
		C1234.5,307.9,1214.3,307.7,1198.5,307.6z"/>
	<path fill="none" stroke="#929497" stroke-width="1.4546" stroke-linejoin="round" stroke-miterlimit="10" d="M1198.5,307.6
		c-60.9,28.1-61.3,140.1-5.3,163.4c2,0,5,102.9,5,102.9c-22.8,9.4-12.4,33,2.9,33.2c10.3,0.1,24,0.1,34.3,0.2
		c17.2,0.2,26-23.5,3.3-33.2c0,0,4.2-102.9,6.2-102.9c52-16.4,69.1-131,5.3-163.4C1234.5,307.9,1214.3,307.7,1198.5,307.6z"/>
</g>
<g>
	<g opacity="0.5">
		<line fill="none" stroke="#000000" stroke-width="6" stroke-miterlimit="10" x1="1228" y1="304" x2="1228" y2="234"/>
		<polygon points="1228,215 1239,241.9 1228,235.5 1217,241.9 		"/>
	</g>
	<g>
		<g>
			<line fill="none" stroke="#FFFFFF" stroke-width="6" stroke-miterlimit="10" x1="1227" y1="303" x2="1227" y2="233"/>
			<g>
				<polygon fill="#FFFFFF" points="1227,214 1238,240.9 1227,234.5 1216,240.9 				"/>
			</g>
		</g>
	</g>
</g>
<g>
	<g opacity="0.5">
		<path fill="none" stroke="#000000" stroke-width="11" stroke-miterlimit="10" d="M722.7,200c0,0,18.9,81.5,66.7,142.3"/>
		<polygon points="813.1,368 765.2,344.9 788,340.1 795.1,317.9 		"/>
	</g>
	<g>
		<g>
			<path fill="none" stroke="#FFFFFF" stroke-width="11" stroke-miterlimit="10" d="M721.7,199c0,0,18.9,81.5,66.7,142.3"/>
			<g>
				<polygon fill="#FFFFFF" points="812.1,367 764.2,343.9 787,339.1 794.1,316.9 				"/>
			</g>
		</g>
	</g>
</g>
</svg>
