<?xml version="1.0" encoding="utf-8"?>
<!-- Generator: Adobe Illustrator 18.1.1, SVG Export Plug-In . SVG Version: 6.00 Build 0)  -->
<!DOCTYPE svg PUBLIC "-//W3C//DTD SVG 1.1//EN" "http://www.w3.org/Graphics/SVG/1.1/DTD/svg11.dtd">
<svg version="1.1" id="Layer_1" xmlns="http://www.w3.org/2000/svg" xmlns:xlink="http://www.w3.org/1999/xlink" x="0px" y="0px"
	 viewBox="0 0 920 690" enable-background="new 0 0 920 690" xml:space="preserve">
<filter  id="inner-glow2">
	<!--   Shadow Offset   -->
	<feOffset  dx="0" dy="0"></feOffset>
	<!--   Shadow Blur   -->
	<feGaussianBlur  result="offset-blur" stdDeviation="70"></feGaussianBlur>
	<!--   Invert the drop shadow to create an inner shadow   -->
	<feComposite  in="SourceGraphic" result="inverse" operator="out" in2="offset-blur"></feComposite>
	<!--   Color & Opacity   -->
	<feFlood  flood-color="#6B0010" flood-opacity="1" result="color"></feFlood>
	<!--   Clip color inside shadow   -->
	<feComposite  in="color" result="shadow" operator="in" in2="inverse"></feComposite>
	<!--   Put shadow over original object   -->
	<feComposite  in="shadow" operator="over" in2="SourceGraphic"></feComposite>
</filter>
<filter  id="inner-glow1">
	<!--   Shadow Offset   -->
	<feOffset  dx="0" dy="0"></feOffset>
	<!--   Shadow Blur   -->
	<feGaussianBlur  result="offset-blur" stdDeviation="30"></feGaussianBlur>
	<!--   Invert the drop shadow to create an inner shadow   -->
	<feComposite  in="SourceGraphic" result="inverse" operator="out" in2="offset-blur"></feComposite>
	<!--   Color & Opacity   -->
	<feFlood  flood-color="#C10000" flood-opacity="1" result="color"></feFlood>
	<!--   Clip color inside shadow   -->
	<feComposite  in="color" result="shadow" operator="in" in2="inverse"></feComposite>
	<!--   Put shadow over original object   -->
	<feComposite  in="shadow" operator="over" in2="SourceGraphic"></feComposite>
</filter>
<filter  width="170%" height="170%" id="ds1" y="-20%" x="-30%">
	<feOffset  in="SourceAlpha" result="offOut" dx="0" dy="1"></feOffset>
	<feGaussianBlur  in="offOut" result="blurOut" stdDeviation="2"></feGaussianBlur>
	<feComponentTransfer>
		<feFuncA  type="linear" slope="0.5"></feFuncA>
	</feComponentTransfer>
	<feMerge>
		<feMergeNode></feMergeNode>
		<feMergeNode  in="SourceGraphic"></feMergeNode>
	</feMerge>
</filter>
<g>
	<defs>
		<rect id="SVGID_172_" width="920" height="690"/>
	</defs>
	<clipPath id="SVGID_1_">
		<use xlink:href="#SVGID_172_"  overflow="visible"/>
	</clipPath>
	<g clip-path="url(#SVGID_1_)">
		<rect x="-14.1" y="-11.2" fill="#C15D5D" width="945.6" height="708.2"/>
		<g filter="url(#inner-glow2)">
			<path fill="#BA696D" d="M1011,131.4c-263,18.9-526.8,38.3-787,91.5c-111.3,22.8-222.8,51.9-334.4,84.3c-1.5,26.1-3.5,52.2-6,78.2
				c-6.8,69-17.1,137.5-27.4,206c66.4-20.1,133.1-39.4,200.1-57.2c74.4-19.8,149.2-38.1,224.7-53.2c242.8-49.6,487-71,730.5-88.4
				C1010.8,305.6,1010.5,218.5,1011,131.4z"/>
		</g>
		<path opacity="0.45" fill="#9A3E4A" d="M1011.4,376.6c-10.4-2.8-20.9-5.6-31.3-8.4c-14.7-4-29.3-7.9-44-11.9
			c-6.3-1.7-22.5-2.6-25.8-9.3c-4.5-9.2,18.3-19.2,24.3-23c10-6.4,20.1-12.7,30.1-19.1c4.7-3,10-7.7,15.2-9.6
			c4.6-1.7,10.6-1.5,15.5-2.7c5.1-1.3,10.3-1.1,15.5-0.3c0-2.4,0-4.9,0-7.3c-2.3-1.3-3.8-3-3.7-5.1c0.1-1.5,1.5-3.2,3.6-5
			c0-2.2,0-4.4,0-6.5c-9.4,5-19.4,8.4-30.4,8.4c-6.1,0-11.6-2.8-17.4-4.4c-13.2-3.6-26.4-7.3-39.7-10.9c-10.9-3-21.9-6-32.8-9
			c-6.1-1.7-9.6-3.7-10-6.5c-0.3-2.3,1.6-5.2,6.3-8.8c8.7-6.7,18.8-12.1,28.1-18c12.1-7.8,24.8-16.8,39-20.2
			c15-3.6,32.3,4.1,46.8,7.9c3.4,0.9,6.7,1.8,10.1,2.7c0-2.1,0-4.3,0-6.4c-0.8-0.2-1.6-0.4-2.3-0.6c-10.4-2.8-21.2-4.9-31.4-8.3
			c-12-4-8.1-9.8,0.7-15.3c8.9-5.5,17.6-11.3,26.4-16.9c2.2-1.4,4.5-2.9,6.7-4.3c0-2.5,0-5,0-7.4c-10.5,6.7-20.4,13.1-21.8,14
			c-10.3,6.6-20.3,14.7-32.3,17.7c-13.3,3.3-26.5,0-39.4-3.5c-15-4-30-8-45-11.9c-19.5-5.2-39-10.3-58.5-15.5l-0.8,3l-1.7-2.6
			c-15.4,9.9-30.9,19.9-46.3,29.8c-9.6,6.2-20.6,16-31.5,19.7c-14.9,4.9-31.6-0.1-46-4c-14.5-4-29.1-8-43.6-12
			c-18.5-5.1-37.1-10.2-55.6-15.3l-0.8,3l-1.8-2.6c-16.3,11.4-32.6,22.7-48.9,34.1c-10.9,7.6-21.6,15.7-32.9,22.9
			c-15.4,9.8-34.4,3.8-50.8-0.7c-14.4-3.9-28.7-7.7-43.1-11.6c-18.5-5-37-10-55.5-15l-0.8,3l-1.9-2.5c0,0-1.1,0.9-1.2,0.9
			c-25.8,19.9-51.4,40.1-77.5,59.6c-27.2,20.4-59,3.7-88.4-2.9c-18.8-4.2-37.6-8.4-56.3-12.6l-0.7,3.1l-2-2.4L64,296.2
			c-12.5,10.2-25.3,26-41.7,28c-20.4,2.5-40.5-5.7-60.2-9.4c-16.6-3.1-33.2-6.2-49.8-9.3l-0.6,3.1l-2-2.4
			c-7.1,5.7-14.1,11.3-21.2,17c-0.2,2.8-0.4,5.6-0.6,8.5c7.5-6.1,15.9-13.7,25.5-16.9c3.8-1.3,7.7-1.8,11.9-1.4
			c12.2,1.4,25.3,5.6,37.6,7.9c13.8,2.6,31.9,0.4,43.6,9.3c10.9,8.3-1.9,13.9-9.2,19.8l-32.1,26.1c-11.3,9.2-23.8,23.7-38,27.4
			c-14.9,4-30.3,0.9-45.4-2.2c-0.2,1.9-0.4,3.8-0.6,5.7l6.4,1c4.6,0.7,26.3,1.7,27,6.2c1.1,6.8-15.1,15.3-19.4,18.9
			c-6.3,5.1-12.6,10.2-18.9,15.4c-0.4,3-0.8,6-1.1,9c9.9-8.1,19.8-16.1,29.7-24.2c7.6-6.2,15.7-11.7,24.5-14.5
			c5.5-1.7,11.4-2.4,17.5-1.4c20.1,3.1,40.3,6.3,60.4,9.4c9.3,1.5,37,0.3,28.2,14.9c-6.5,11-20.7,17.2-30.5,24.7
			c-18.1,13.9-44.8,42.9-69.6,40.7c-11.5-1-23-3.1-34.4-4.8l-31.2-4.6c-0.3,2.1-0.6,4.1-0.9,6.2c2.9,0.4,5.8,0.9,8.7,1.3
			c12.1,0,25.2,3.7,37.2,5.4c4.6,0.7,23,1.9,21.6,8.8c-0.6,2.8-11.9,8.9-14.5,10.9c-6.2,4.7-12.3,9.5-18.5,14.2
			c-15.2,11.7-30.5,23.4-45.7,35.2c-0.4,3-0.9,5.9-1.3,8.9c12.8-9.8,25.6-19.7,38.4-29.5c11.2-8.6,22.4-17.2,33.5-25.8
			c4.3-3.3,8.7-8,13.3-10.8c11.6-7.1,27.1-3.9,39.7-2l39.9,5.9c3.1,0.5,51.1,7.5,51.1,7.5l0.5-3.1l1.8,2.6l46-32.1
			c18.9-13.2,36.6-28.8,57.9-38.1c17.7-7.7,30.6-4.9,48.9-2.1l87.1,13.6c0.9,0.1,1.9,0.3,2.8,0.4l0.5-3.1l1.7,2.6
			c14.8-9.5,29.7-19.1,44.5-28.6c11.6-7.4,23.1-14.9,34.7-22.3c17.3-11.1,28.1-16.4,48.5-12.6l45.9,8.5c26.7,5,53.3,9.9,80,14.9
			c0.9,0.2,1.9,0.3,2.8,0.5l0.6-3.1l1.7,2.6l41.4-26.5c19-12.2,36.3-28.4,59.5-31.4c14.4-1.8,30.9,4.6,45,7.7
			c27.3,6.1,54.6,12.2,82,18.3c0.5,0.1,1,0.2,1.5,0.3l0.7-3.1l1.7,2.6c11.3-7.1,22.6-14.3,33.8-21.4c13.9-8.8,26.2-21.2,42.1-26.7
			c12.8-4.4,26.3,1.5,38.8,4.9l86.7,23.4C1011.5,380.9,1011.4,378.7,1011.4,376.6z M747.3,199.9c20.3-16.1,44.5-28.6,66.3-42.7
			c2.5-1.6,17.8,4.7,20.4,5.4c15.4,4.1,30.7,8.1,46.1,12.2c15.2,4,30.5,8,45.7,12.1c9.4,2.6,14.4,5.4,5.9,13.9
			c-6.3,6.4-15.3,9.6-22.8,14.4c-18.5,11.8-39,29.5-62.6,26.2c-5.9-0.8-11.5-4.3-17.4-6c-14-4-28-7.7-42.1-11.5
			C778.2,221.6,729,214.4,747.3,199.9z M801.4,234.4c12.5,3.4,25,7.1,37.5,10.3c23,5.9-9.2,21.6-16.6,26.3
			c-18.7,12-37,27.3-58.9,32.4c-25.3,5.9-57.4-9.2-81.7-15.7c-11.2-3-22.4-5.9-33.6-9c-5.4-1.5-7.5-3.4-7.6-5.6
			c-0.3-4.4,7.7-9.6,13.2-13c10.5-6.6,21-13.5,31.4-20.2c9.2-5.9,19-14.5,29.1-18.6C741.5,210.2,774.6,227.1,801.4,234.4z
			 M504.1,235.4c0.7-6,25.7-18.8,30.9-22.4c17.7-12.3,35.4-24.7,53.1-37c2.3-1.6,18.4,5.1,21,5.8c15.2,4.2,30.5,8.4,45.7,12.5
			c15.1,4.1,30.6,7.6,45.5,12.5c22.1,7.3-8.5,21.5-16.7,26.7c-16,10.3-32,23.2-48.4,32.2c-17.8,9.8-51-3-68.9-7.6
			c-12.9-3.3-25.7-7.2-38.5-11.1C522.4,245.3,503.1,244.1,504.1,235.4z M490.2,247.8c16.7-3.1,33.4,3.9,49.4,8.2
			c14,3.8,28,7.5,41.9,11.3c6.4,1.7,26.6,3.9,24.8,14c-1.1,5.9-15.5,11.8-20,14.7c-8.7,5.6-17.4,11.2-26,16.8
			c-14.8,9.5-25.2,17.9-43.6,17.5c-21.5-0.5-42-7.6-62.8-12.3c-9-2-18-4-27-6c-5.6-1.2-18.4-1.9-19.2-7c-0.2-1.2,0.3-2.7,1.8-4.5
			c7.1-8.7,22.3-15.5,31.5-22C456.4,267.7,470.9,251.3,490.2,247.8z M318.1,234.2c12.1-9.3,24.3-18.7,36.4-28
			c18.1,4.9,36.2,9.8,54.4,14.6c13.8,3.7,27.7,7.5,41.5,11.2c5.7,1.5,11.4,3.1,17.1,4.6c7.2,1.8,12.3,3.3,7.1,10.1
			c-6.6,8.6-20.5,15-29.4,21.2c-17.2,12-36.9,31.3-58,34.6c-4.7,0.7-5.7-0.5-9.8-1.6c-5.7-1.5-11.4-2.6-17.2-3.8
			c-13.9-3.1-27.9-6.2-41.8-9.3c-10.6-2.4-21.3-4.7-31.9-7.1c-3.2-0.7-14-1.3-16.1-3.4C264.7,271.2,312.2,238.7,318.1,234.2z
			 M256.1,284.3c15-3.6,32.5,3.2,47.1,6.4c16.2,3.6,32.4,7.2,48.7,10.9c5.8,1.3,23.1,2.5,25.7,8.9c3.4,8.2-33.7,28-40.3,32.6
			c-11,7.7-21.9,15.4-33,23c-15,10.2-28.3,7.2-45.3,4c-13.7-2.5-27.4-5.1-41.1-7.6c-11-2-21.9-4.1-32.9-6.1
			c-3-0.6-10.8-1.9-12.4-4.9c-0.2-0.3-0.3-0.7-0.4-1c-1.4-4.5,4.6-7.7,8-10.3c10.6-8,21.1-16.2,31.6-24.3
			C225.6,305.2,238.3,288.6,256.1,284.3z M47.4,317.9c10.8-8.8,21.6-17.6,32.4-26.4c16.3-13.2,32.5-26.5,48.8-39.7
			c0.1,0,0.5,0.1,0.6,0.1c27.8,6.2,55.5,12.4,83.3,18.6c9.3,2.1,35,2.5,25.2,16.1c-7.3,10.2-19.9,16.7-29.6,24.2
			c-17.9,13.7-41.3,39.1-65.9,37.5c-5.1-0.3-10.5-2-15.6-2.9c-13.3-2.5-26.6-4.9-39.8-7.4c-11.3-2.1-22.5-4.2-33.8-6.3
			c-3-0.6-11.5-0.7-13.2-3.6C37.2,323.8,44.2,320.4,47.4,317.9z M27.7,424c-13.4-2.1-26.8-4.2-40.2-6.3c-10.1-1.6-20.2-3.1-30.2-4.7
			c-6.9-1.1-12.9-2.5-14-5.7c-0.7-2,0.6-4.8,4.8-8.6c10.1-9.2,21.3-17.4,31.9-26c14.9-12.1,28.3-29,47.4-34.7
			c15.3-4.6,31.9,1.2,47.3,4c15,2.8,30,5.6,45,8.4c4.8,0.9,15.9,0.8,19.2,4.6c8.1,9.4-32,33.6-38.6,38.7
			c-10.9,8.4-21.8,16.9-32.8,25.2C53.9,429.2,43.6,426.5,27.7,424z M134.6,484.3c-20.8,14.5-41.6,29-62.4,43.5l-45.4-6.7
			c-12-1.8-24.1-3.5-36.1-5.3c-6.7-1-27.1,0-23.5-10.7c1.8-5.2,11-9.7,15.2-12.9c6.4-4.9,12.8-9.8,19.2-14.8
			c15.3-11.8,29.8-25.8,47.9-33.2c17.5-7.2,34-5.2,52-2.4c13.1,0,27.5,4.3,40.4,6.3c6,0.9,25.9,0.5,26.8,8.9
			C169.6,465.3,140.5,480.2,134.6,484.3z M182.3,446.2c-15.5,2.5-31-3-46.2-5.3c-13.2-2.1-26.4-4.1-39.5-6.2c-5.6-0.9-26.1-1.6-26-9
			c0-6.4,27-22,32.1-26c10.8-8.3,21.7-16.7,32.5-25c7.8-6,15-11.2,23.3-13.5c4.7-1.3,9.7-1.6,15.5-0.6c19,3.2,38,7.1,56.9,10.6
			l24.6,4.6c3.2,0.6,17.4,1.2,19.2,3.8c3.9,5.6-14.3,17.2-18.4,20l-30.7,21.4C212.3,430.2,198.7,443.5,182.3,446.2z M352.4,446.5
			c-8.4,5.4-16.7,10.7-25.1,16.1c-1.6,1-8.1,6.8-10.1,6.5c-16.7-2.6-33.4-5.2-50.1-7.8c-13.1-2-26.2-4.1-39.3-6.1
			c-5.5-0.9-20.7-0.8-24.1-5.8c-5-7.5,26.6-24.1,32.5-28.2c10.7-7.5,21.4-14.9,32.1-22.4c7.5-5.2,15-12.4,24.1-14.5
			c6.3-1.4,12.6,0.8,18.9,1.9c14.3,2.7,28.7,5.3,43,8c12.1,2.3,24.3,4.5,36.4,6.8c5,0.9,11.6,0.4,13.5,5
			C408.9,417.3,361.1,440.9,352.4,446.5z M428,396c-17.8,5.1-36.7-1.4-53.8-4.5c-13.1-2.4-26.3-4.9-39.4-7.3
			c-6.1-1.1-24.4-1.5-27-8.6c-2.5-7.1,22.6-20,28-23.8c17.6-12.2,33.5-29.2,54.5-35.4c1.6-0.5,3.1-0.8,4.7-1.1
			c14.6-2.6,28.7,2.4,43.2,5.7c14.6,3.3,29.1,6.5,43.7,9.8c6.4,1.4,24.3,1.3,27.1,8.7c3.5,9.1-20.8,19.8-26.7,23.6
			C465.8,373.6,446.9,390.6,428,396z M655.9,376.5c-4.1,8.4-23.3,16.1-31,21c-16.3,10.5-32.6,20.9-48.9,31.4l-60.6-11.3
			c-15.7-2.9-31.4-5.8-47.1-8.8c-6.2-1.2-12.4-2.6-18.7-3.5c-16.1-2.4-7.8-9,1.1-14.7c10.9-7,21.7-14,32.6-20.9
			c13.6-8.7,26.5-17.6,41.6-23.6c12.7-5,27.9,0.2,40.5,3c14.7,3.3,29.3,6.6,44,9.8c10.4,2.3,20.8,4.6,31.2,7
			C647,367.5,660.1,368,655.9,376.5z M592.3,348.9c-9-2-17.9-4-26.9-6c-5.5-1.2-18.8-2.2-20.1-9.2c-1.8-10.1,22-17.9,28.5-22.1
			c16.2-10.4,31.9-24.7,51.6-27.8c0.2,0,0.3-0.1,0.5-0.1c22.5-3.3,48.3,8.6,69.8,14.4c15.2,4.1,30.6,7.8,45.6,12.3
			c7.8,2.4,7.8,4.5,1.2,10.8c-3.8,3.6-8.4,6.4-12.8,9.2c-11.2,7.2-22.4,14.4-33.6,21.5C664.4,372.2,625.7,356.3,592.3,348.9z
			 M849.6,370.5c-13.9,8.8-27.9,17.7-41.8,26.5c-17.6-3.9-35.3-7.9-52.9-11.8c-13.5-3-27-6-40.5-9c-5.5-1.2-11.4-1.9-16.7-3.7
			c-7.7-2.6-9.3-6.8-4.3-11.5c8-7.7,21.2-13.3,30.6-19.4c12.3-7.9,24.3-18.1,38.7-21.6c14-3.4,31.4,4.6,45,8.3
			c7.1,0,16.4,4.4,23.3,6.3c8.3,2.2,16.6,4.5,25,6.7c5.4,1.5,17.6,2.5,17.6,10C873.5,359.1,855.1,367,849.6,370.5z M890.1,341.1
			c-16.1,1.9-32.3-5.9-47.5-10l-38.3-10.3c-5.3-1.4-10.6-2.7-15.8-4.3c-22-6.7,28.2-34.4,34.5-38.5c12.8-8.2,26.7-18.5,42.1-21.5
			c3.8-0.7,7.8-1,11.8-0.8c14,1,29,7.4,42.5,11.1c12.2,3.4,24.5,6.7,36.7,10.1c7.8,2.2,24.2,4.2,15.1,16.2c-6.4,8.5-23.1,15-32,20.6
			C923.6,323.6,909.3,338.8,890.1,341.1z"/>
		<path fill="#D27979" stroke="#B4474D" stroke-width="8.3413" stroke-miterlimit="10" d="M1011.1,116.2c-10.4-1.2-21.4,0-33,0.9
			c-24,1.7-48.1,3.5-72.1,5.3c-24,1.8-77.2-3.9-93.4,19.2c-11.5-15.9-33-9.3-48.9-7.9c-22.8,2-45.7,4-68.5,6.1
			c-23.2,2.2-46.4,4.7-69.7,6.9c-17.4,1.7-28.4,0.4-39.3,15.3c-21.8-12.8-44.6-6-68.2-3.1c-21.9,2.7-43.8,5.6-65.7,8.6
			c-21.2,2.9-42.7,4.8-63.7,9.3c-14.3,3.1-32.6,9-36.8,17c-19.9-10.8-40.1-4.4-60.7-0.7c-23.5,4.3-46.9,8.8-70.3,13.6
			c-14.8,3-79.6,9.3-92.3,35.3c-5.4-7.5-20.4-7.4-28.5-6.9c-10.2,0.6-20.3,3.6-30.1,6.1c-22.4,5.6-44.7,11.4-67,17.3
			c-22.6,6-45,12-67,20c-3.1,1.1-26.1,5.3-29.4,19.6c-5.1-3.7-10.4-4.8-15.9-4.7c-0.6,10.7-1.2,21.5-1.9,32.2
			c9.5-5.5,12.4-12.6,19.2-21.5c21.7,12.6,48.1,4.6,69.9-4.1c18.4-7.4,39.6-10.9,58.8-15.9c23.6-6.2,81.2-8.1,91.4-35.6
			c12.1,5.9,29.6,5.3,44.8,3.1c18.5-2.6,36.5-8.6,54.8-12.3c24.3-5,48.7-9.6,73.1-14.1c15.1-2.7,47.9-3.3,53.4-22.4
			c8.8,21.8,84.6,0.2,101-2.1c24.5-3.4,49.1-6.6,73.7-9.6c19.9-2.4,46.9,0.6,59.1-18.5c14.5,10,36.4,7.7,52.9,6
			c22.4-2.3,44.8-4.5,67.2-6.5c19.6-1.8,39.1-3.5,58.7-5.2c15.2-1.3,36,0.9,46.7-12.9c9.8,9.2,25.5,6.9,37.6,6
			c19.8-1.5,39.5-3,59.3-4.5c24.8-1.8,49.6-3.6,74.4-5.4c8.4-0.6,17.6-0.9,26.5-2.3C1011,137.1,1011,126.6,1011.1,116.2z"/>
		<path fill="#D27979" stroke="#B4474D" stroke-width="8.3413" stroke-miterlimit="10" d="M1011.4,375.6
			c-17.7-1.7-38.7,3.2-52.1,4.2c-29.5,2.2-59,4.5-88.5,6.9c-14.8,1.2-52.1,0.7-62.4,13.6c-22.4-8.3-35.6-5.2-58.9-2.9
			c-35.5,3.4-71,7.1-106.4,11.1c-19.4,2.2-54.5,4.7-66.5,23.9c-27.4-25-91.2-3.7-123.1,1.2c-34,5.2-114.7,4.9-135.6,38.9
			c-12.4-20.5-52.5-5.2-69.9-1.4c-33.3,7.2-66.4,14.7-99.5,22.7c-22.2,5.4-68,9.8-75.5,37.4c-20-18.3-41.1-8-62.7-1.6
			c-26.8,8-53.9,15.1-80.8,22.9c-15.5,4.5-28.4,11.3-43.1,17.1c-1.5,0.6-17.8,5.4-28.7,12c-1,6.7-2,13.3-3,20
			c8,3.3,22.7,1.1,24.9,0.7c11.7-2.2,22.7-10,33.8-14.1c11.3-4.1,22.9-7.1,34.1-10.4c25.4-7.5,51.6-11.7,77.3-18
			c13.5-3.3,50.8-3.8,50.2-24.3c22.8,12.3,50.4,0.4,71.7-7.1c34.1-12.1,72.8-17.3,108.2-24.8c23.5-5,46.2-9,65.5-25
			c15.1,12,40.8,6.4,57.8,2.6c25.3-5.8,51-10.2,76.9-14.2c25.2-3.9,52.2-10.7,77.7-11.1c11.9-0.2,39.3,1.8,45.6-14
			c8.6,15.7,64.4,0.1,69.7-0.5c34.8-3.9,69.7-8.5,104.7-10.9c15.4-1.1,47-1.6,54.9-18.8c5,13.2,59.8,8.4,65.6,8.1
			c29.3-1.3,58.7-4.7,88-6.8c17.7-1.3,34.3-1.8,50.4-6.2C1011.6,396.4,1011.5,386,1011.4,375.6z"/>
		<path opacity="0.45" fill="#883446" d="M210.9,402.5c-4.8,14-39,19.6-46.3,5.2c-8.1-16.1,12.3-23.9,24.8-23
			C198.5,385.5,215.5,389,210.9,402.5z"/>
		<path opacity="0.45" fill="#883446" d="M298.1,329.9c-3.4,7.6-12.8,14-27.1,11.8c-24.1-3.6-27-20.1-3.7-28.5
			C294.3,303.6,303.4,318.2,298.1,329.9z"/>
		<path opacity="0.45" fill="#883446" d="M318.4,431c-3.6,15-37.8,23.1-40.8,4.5c-1.9-11.9,15.3-18.9,24.7-18.3
			C309.9,417.6,320.7,421.4,318.4,431z"/>
		<path opacity="0.45" fill="#883446" d="M155.8,289.4c7,1.7,11.7,6.1,10,14.1c-3.5,16.2-49.3,12.4-43.7-2.4
			C125.6,291.7,143.9,286.5,155.8,289.4z"/>
		<path opacity="0.45" fill="#883446" d="M235,496.4c-10.5,5-26,8.8-29.3,9.4c-8.7,1.8-18.1,4.6-27.1,4.9c-17.6,0.6-4.8-9.2,2.3-13
			c6.8-3.5,14.8-5.8,22.1-8.1c7.3-2.3,14.3-3.3,21.8-4.2c4.3-0.5,15.8-4.6,18.9-0.6C247,488.9,242.2,493,235,496.4z"/>
		<path opacity="0.45" fill="#883446" d="M85.9,490.1c-11.4,2.1-41.7,20-43.8-1.1c-1.6-16.1,23.7-24.2,36.7-25.8
			c7.5-0.9,23.3,0,22.7,11.2C101.2,480,85.8,489.8,85.9,490.1z"/>
		<path opacity="0.45" fill="#883446" d="M43.7,382.6c-0.8,1-1.7,1.8-2.9,2.5c-8.4,4.7-35.6,12.8-41.5,1.2
			c-6.7-13.1,11.9-23.7,22.5-25.5C34.7,358.7,56.6,366.2,43.7,382.6z"/>
		<g filter="url(#inner-glow1)">
			<path fill="#FFC59C" d="M13.6,181c-3.1,14.7,5.6,32.8,19.3,39.4c13.2,6.4,29.8,2.4,43.7,0.7c13-1.6,26.2,0.9,39.2-1.4
				c14.8-2.7,27.7-14.7,42.9-19.3c21.6-6.5,44.3-10.8,66.1-15.5c18.5-4,45.7-3.6,61.3-16.8c28.6-24.3-33.1-46.1-49.5-49.7
				c-17.3-3.8-34.4,0.6-52.1-3.5c-17-3.9-35-4-52.4-4.5c-15.9-0.5-24.7,2.6-39.7,8.1c-22.5,8.2-42.7,14.7-60.7,31.7
				C23.6,157.7,16.1,169.3,13.6,181z"/>
			<path fill="none" stroke="#E88E79" stroke-width="1.0427" stroke-miterlimit="10" d="M13.6,181c-3.1,14.7,5.6,32.8,19.3,39.4
				c13.2,6.4,29.8,2.4,43.7,0.7c13-1.6,26.2,0.9,39.2-1.4c14.8-2.7,27.7-14.7,42.9-19.3c21.6-6.5,44.3-10.8,66.1-15.5
				c18.5-4,45.7-3.6,61.3-16.8c28.6-24.3-33.1-46.1-49.5-49.7c-17.3-3.8-34.4,0.6-52.1-3.5c-17-3.9-35-4-52.4-4.5
				c-15.9-0.5-24.7,2.6-39.7,8.1c-22.5,8.2-42.7,14.7-60.7,31.7C23.6,157.7,16.1,169.3,13.6,181z"/>
		</g>
		<g filter="url(#inner-glow1)">
			<path fill="#FFC59C" d="M343.8,166.7c-16.4-0.1-32.3-7.9-37.5-24.4c-5.3-16.9,13.6-26.3,26-34.6c22.5-15.2,55-17.5,81.2-23.9
				c34.2-8.4,63.7-31.4,100.6-21.4c16.3,4.4,38.3,11.3,50.3,24.1c10.8,11.5,3.5,29.2-6,38.5c-12.6,12.4-31.3,13-47.7,16.4
				c-16.7,3.5-35.3,7-52.3,7.9c-17.7,1-34.9,2.2-52.3,5.5C388.1,158.2,364.7,166.8,343.8,166.7z"/>
			<path fill="none" stroke="#E88E79" stroke-width="1.0427" stroke-miterlimit="10" d="M343.8,166.7c-16.4-0.1-32.3-7.9-37.5-24.4
				c-5.3-16.9,13.6-26.3,26-34.6c22.5-15.2,55-17.5,81.2-23.9c34.2-8.4,63.7-31.4,100.6-21.4c16.3,4.4,38.3,11.3,50.3,24.1
				c10.8,11.5,3.5,29.2-6,38.5c-12.6,12.4-31.3,13-47.7,16.4c-16.7,3.5-35.3,7-52.3,7.9c-17.7,1-34.9,2.2-52.3,5.5
				C388.1,158.2,364.7,166.8,343.8,166.7z"/>
		</g>
		<g filter="url(#inner-glow1)">
			<path fill="#FFC59C" d="M614,130.5c-5.1-0.2-10-0.7-14.5-1.5c-23.3-4.4-20.1-30.5-9.4-44.4c13.8-17.8,34.4-26,53.8-35.9
				c33.1-16.9,61.1-30.7,98.7-18.8c32.3,10.2,71.4,14.3,98.7,36.1c28.9,23.1-4.3,46.1-29.8,49.4c-11.6,1.5-18.1-3.4-28.5-5.5
				c-32-6.5-72.2,8.3-104,13.8C660.6,127.1,635.2,131.3,614,130.5z"/>
			<path fill="none" stroke="#E88E79" stroke-width="1.0427" stroke-miterlimit="10" d="M614,130.5c-5.1-0.2-10-0.7-14.5-1.5
				c-23.3-4.4-20.1-30.5-9.4-44.4c13.8-17.8,34.4-26,53.8-35.9c33.1-16.9,61.1-30.7,98.7-18.8c32.3,10.2,71.4,14.3,98.7,36.1
				c28.9,23.1-4.3,46.1-29.8,49.4c-11.6,1.5-18.1-3.4-28.5-5.5c-32-6.5-72.2,8.3-104,13.8C660.6,127.1,635.2,131.3,614,130.5z"/>
		</g>
		<g filter="url(#inner-glow1)">
			<path fill="#FFC59C" d="M981.6,8.8c-20.2,1.7-36,9.3-54.5,18.8c-17.2,8.8-37.5,13.8-52.2,27c-20.7,18.6-8.4,38.9,15.4,44.7
				c21.5,5.3,43.3-0.5,64.7-3.1c14.3-1.8,29.2-2.5,43.6-1.1c4.2,0.4,8.4,1.2,12.7,2c0.3-12.8,1.3-25.4,3-37.7
				C1001.7,43.4,990.8,26.6,981.6,8.8z"/>
			<path fill="none" stroke="#E88E79" stroke-width="1.0427" stroke-miterlimit="10" d="M981.6,8.8c-20.2,1.7-36,9.3-54.5,18.8
				c-17.2,8.8-37.5,13.8-52.2,27c-20.7,18.6-8.4,38.9,15.4,44.7c21.5,5.3,43.3-0.5,64.7-3.1c14.3-1.8,29.2-2.5,43.6-1.1
				c4.2,0.4,8.4,1.2,12.7,2c0.3-12.8,1.3-25.4,3-37.7C1001.7,43.4,990.8,26.6,981.6,8.8z"/>
		</g>
		<g filter="url(#inner-glow1)">
			<path fill="#FFC59C" d="M124.9,68.2c-10.7-19.9-62.1-11.2-78.6-9.7c-24,2.2-48.4-0.6-71.8,4.6C-49.7,68.4-73,79.5-91.9,95.6
				c-2.4,2.1-5.5,4.8-8.6,7.9c-1,14.1-2.1,28.2-2.7,42.4c0,1.1-0.1,2.2-0.1,3.3c5.8,1.7,12.1,2.6,16.4,3.8
				c16.1,4.3,32.9,3.8,49.2,6.9c14.5,2.8,24.2,6.7,36.4-2.9c14-11.1,25.1-23.7,40.3-33c18.2-11.1,37.6-20.2,57.6-27.6
				C107.4,92.4,134.2,85.4,124.9,68.2z"/>
			<path fill="none" stroke="#E88E79" stroke-width="1.0427" stroke-miterlimit="10" d="M124.9,68.2c-10.7-19.9-62.1-11.2-78.6-9.7
				c-24,2.2-48.4-0.6-71.8,4.6C-49.7,68.4-73,79.5-91.9,95.6c-2.4,2.1-5.5,4.8-8.6,7.9c-1,14.1-2.1,28.2-2.7,42.4
				c0,1.1-0.1,2.2-0.1,3.3c5.8,1.7,12.1,2.6,16.4,3.8c16.1,4.3,32.9,3.8,49.2,6.9c14.5,2.8,24.2,6.7,36.4-2.9
				c14-11.1,25.1-23.7,40.3-33c18.2-11.1,37.6-20.2,57.6-27.6C107.4,92.4,134.2,85.4,124.9,68.2z"/>
		</g>
		<g filter="url(#inner-glow1)">
			<path fill="#FFC59C" d="M150.3,63.2c-7.6,7.6-10,15.3-2.7,22.4c21.2,20.7,66,11,92.6,15.9c13.1,2.4,26.9,9.8,40.3,8.4
				c17.1-1.8,30.5-17.1,46-23.7c17.3-7.4,34.1-14.6,52.4-17.8c9.7-1.6,24.3-2.2,28.6-12.6C419.9,26,372.7,22.6,356.7,17
				c-19-6.6-41-8.1-61.1-7.2c-23,1-41,0.9-61.9,10.8C223.5,25.3,169.8,43.7,150.3,63.2z"/>
			<path fill="none" stroke="#E88E79" stroke-width="1.0427" stroke-miterlimit="10" d="M150.3,63.2c-7.6,7.6-10,15.3-2.7,22.4
				c21.2,20.7,66,11,92.6,15.9c13.1,2.4,26.9,9.8,40.3,8.4c17.1-1.8,30.5-17.1,46-23.7c17.3-7.4,34.1-14.6,52.4-17.8
				c9.7-1.6,24.3-2.2,28.6-12.6C419.9,26,372.7,22.6,356.7,17c-19-6.6-41-8.1-61.1-7.2c-23,1-41,0.9-61.9,10.8
				C223.5,25.3,169.8,43.7,150.3,63.2z"/>
		</g>
		<g filter="url(#inner-glow1)">
			<path fill="#FFC59C" d="M661.9-23.9c-55,1.2-110.1,2.2-165.2,1.5c-2.1,1.5-4.3,3.1-6.6,4.8c-16.4,11.1-35.4,19.9-52.4,30.1
				c-11.3,6.8-23.9,17.6-14.7,32.1c12.5,19.6,59.2-0.1,77.1,0c28.3,0.1,50.4,19.9,78.7,16.4c28.6-3.5,53-23,75.6-39.3
				c12.3-8.9,26.7-23.2,15.3-38.2C667.7-19.4,665-21.8,661.9-23.9z"/>
			<path fill="none" stroke="#E88E79" stroke-width="1.0427" stroke-miterlimit="10" d="M661.9-23.9c-55,1.2-110.1,2.2-165.2,1.5
				c-2.1,1.5-4.3,3.1-6.6,4.8c-16.4,11.1-35.4,19.9-52.4,30.1c-11.3,6.8-23.9,17.6-14.7,32.1c12.5,19.6,59.2-0.1,77.1,0
				c28.3,0.1,50.4,19.9,78.7,16.4c28.6-3.5,53-23,75.6-39.3c12.3-8.9,26.7-23.2,15.3-38.2C667.7-19.4,665-21.8,661.9-23.9z"/>
		</g>
		<path opacity="0.45" fill="#883446" d="M401.4,367.1c-7.5,3.8-28.1,8.6-33.4,0.7c-8.2-11.9,13.5-19,21.3-20.6
			c8.7-1.8,22.3-6.2,21.8,6.3C410.9,360,406.5,364,401.4,367.1z"/>
		<path opacity="0.45" fill="#883446" d="M369.5,267c-9.1,0.4-32.6,6.9-36.7-5.8c-3.8-11.6,16.5-16.2,23.8-17.2
			c8.4-1.1,19.7,0.1,22.8,9.1C382.1,261,375.3,267.6,369.5,267z"/>
		<path opacity="0.45" fill="#883446" d="M562.5,398.9c-10.6,6.2-28.1,6.9-34.2-0.3c-10.6-12.4,16.1-25.5,25.4-26
			c10-0.5,15.8,1.8,17.3,11.8C572,390.6,568.2,395.6,562.5,398.9z"/>
		<path opacity="0.45" fill="#883446" d="M531.4,296.2c-7.6,3.2-30.9,12.3-35.5-0.2c-3.7-10.1,13.9-17.8,21.6-18.6
			c6.7-0.7,20.1-1,20.9,8.4C538.9,292.1,530.7,295.7,531.4,296.2z"/>
		<g filter="url(#inner-glow1)">
			<path fill="#FFC59C" d="M906.7-30.6c-70.1,2.1-140.1,4.3-210.2,6c-1.9,5.5-1.8,11.9,1.4,19c4.3,9.8,13.6,8.3,23.7,10.4
				c25.9,5.4,51.6,11.5,76.7,19.7c9.6,3.2,18.9,7.2,28.4,10.4c7.8,2.6,16.4,7.9,24.9,7.9c20.5-0.1,36.7-17.2,55-23.7
				C923.2,13.2,946.3,7,946-14.7c-0.1-6.8-2.7-12.4-6.7-16.9C928.5-31.3,917.6-31,906.7-30.6z"/>
			<path fill="none" stroke="#E88E79" stroke-width="1.0427" stroke-miterlimit="10" d="M906.7-30.6c-70.1,2.1-140.1,4.3-210.2,6
				c-1.9,5.5-1.8,11.9,1.4,19c4.3,9.8,13.6,8.3,23.7,10.4c25.9,5.4,51.6,11.5,76.7,19.7c9.6,3.2,18.9,7.2,28.4,10.4
				c7.8,2.6,16.4,7.9,24.9,7.9c20.5-0.1,36.7-17.2,55-23.7C923.2,13.2,946.3,7,946-14.7c-0.1-6.8-2.7-12.4-6.7-16.9
				C928.5-31.3,917.6-31,906.7-30.6z"/>
		</g>
		<g filter="url(#inner-glow1)">
			<path fill="#FFC59C" d="M224.9-33.8C154.9-36.9,85-38.7,15-36.2c-1.2,0-2.4,0-3.6,0c-8.7,3.5-17,7.8-24.6,13.1
				c-9.1,6.3-14.3,16.8-15.5,27.9c-5.1,48.1,49.3,35.5,78.9,33.9c21.8-1.2,40.8-0.7,61.8,2.1c15.8,2.1,30.8-3.3,45.2-8.7
				c15.2-5.7,96.8-29.8,74.8-59C230.2-29.5,227.7-31.8,224.9-33.8z"/>
			<path fill="none" stroke="#E88E79" stroke-width="1.0427" stroke-miterlimit="10" d="M224.9-33.8C154.9-36.9,85-38.7,15-36.2
				c-1.2,0-2.4,0-3.6,0c-8.7,3.5-17,7.8-24.6,13.1c-9.1,6.3-14.3,16.8-15.5,27.9c-5.1,48.1,49.3,35.5,78.9,33.9
				c21.8-1.2,40.8-0.7,61.8,2.1c15.8,2.1,30.8-3.3,45.2-8.7c15.2-5.7,96.8-29.8,74.8-59C230.2-29.5,227.7-31.8,224.9-33.8z"/>
		</g>
		<g filter="url(#inner-glow1)">
			<path fill="#FFC59C" d="M373.4-26.6c-15.1,2.2-30.5,3-46.4,2.4h-6c-18.3-0.1-36.2-1.5-53.7-4.5c1.5,2,3.4,3.8,5.9,5.4
				c1.8,1.1,3.7,2.2,5.6,3.1c14.8,7.2,33.6,9.3,49,13.1c24,5.9,50.5,17.9,75.6,11.3c15-4,33.8-12.2,42.3-24.9c0.6-1,1.2-1.9,1.8-2.9
				C422.8-24.3,398.1-25.4,373.4-26.6z"/>
			<path fill="none" stroke="#E88E79" stroke-width="1.0427" stroke-miterlimit="10" d="M373.4-26.6c-15.1,2.2-30.5,3-46.4,2.4h-6
				c-18.3-0.1-36.2-1.5-53.7-4.5c1.5,2,3.4,3.8,5.9,5.4c1.8,1.1,3.7,2.2,5.6,3.1c14.8,7.2,33.6,9.3,49,13.1
				c24,5.9,50.5,17.9,75.6,11.3c15-4,33.8-12.2,42.3-24.9c0.6-1,1.2-1.9,1.8-2.9C422.8-24.3,398.1-25.4,373.4-26.6z"/>
		</g>
		<path opacity="0.45" fill="#883446" d="M456,454.7c-14.1,2-26.2,10-40.7,10.4c-9.3,0.2-24.2-1-12.1-11.5
			c12.9-11.2,42-11,57.9-10.2C464.3,449.8,460.8,453.3,456,454.7z"/>
		<path opacity="0.45" fill="#883446" d="M683.3,428.6c13.3,0,26.5-0.5,39.6-2.3c12.2-1.7,27.8-11.5,6.7-13.3c-12-1-26.4-1-38,1.3
			c-3.4,0.7-13.1,1.9-14.4,6.3C675.5,426.4,681.4,428.5,683.3,428.6z"/>
		<path opacity="0.45" fill="#883446" d="M926.5,131.1c6.5-1,13.1-1.5,16.6,0.2c10.9,5.3-0.3,8.3-7.7,9.5
			c-5.8,0.9-56.3,3.6-48.8-3.9c3.4-3.4,19.9-3,24.9-3.4C914.9,133.2,920.6,132,926.5,131.1z"/>
		<path opacity="0.45" fill="#883446" d="M745.7,157.8c-10.7,2.8-26.6,1.5-34.7,2.2c-8,0.7-17,2.7-24.5-1.6
			c4.4-12.2,37.9-9.3,47.9-10.3c3-0.3,29.9-3.6,19.1,5.9C751.6,155.8,748.9,156.9,745.7,157.8z"/>
		<path opacity="0.45" fill="#883446" d="M519.6,178.4c-2,3.7-41.1,9.6-50.3,10.5c-5.6,0.5-14.7,2.4-15.4-4.2
			c-0.8-7.9,11.5-7.9,16.7-9.1c13.6-3,27.2-4.4,40.9-6.3c3.5-0.5,12.7-3.6,15.1,0C530.1,174.1,523,178.7,519.6,178.4z"/>
		<path opacity="0.45" fill="#883446" d="M261.4,219.9c-9.4,2.7-19.2,3-28.5,5.3c-9.4,2.3-19.3,6.8-29.2,3.9
			c-9.3-2.7-0.6-7.7,4.2-9.3c8.2-2.7,17.3-2.2,25.5-4.9c7.4-2.4,15-3.2,22.4-5.1c4.1-1.1,10.9-5.4,15.8-0.2
			C275.7,214.2,269.6,217.6,261.4,219.9z"/>
		<path opacity="0.45" fill="#883446" d="M60.8,264.9c-14.8,5-30.2,12.2-45.9,12.7c-3.8,0.1-10,1.8-10.4-3.8
			c-0.5-7.3,14.4-9.8,19.3-10.9c7.8-1.8,15.6-2.8,23.5-4.4c4.8-0.9,11.6-3.8,16.3-3.3C75.5,256.3,69.1,263.2,60.8,264.9z"/>
		<path opacity="0.45" fill="#883446" d="M7.3,552c-10.9,5-23.1,11.7-35.2,12.5c-4.6,0.3-23.8,2.4-18-5.5c3.6-4.9,16.7-6.1,22.1-8
			c5.6-2,11.1-4.3,16.9-5.9c3.9-1.1,18.8-7.3,22.9-4.9C25.4,545.8,8.1,551.4,7.3,552z"/>
		<path opacity="0.45" fill="#883446" d="M657.7,323.3c-4.9,11.7-46.6,20.5-44.3-1.3c1.5-13.7,21.4-15.6,30.8-15.3
			C651.6,306.9,662.9,311,657.7,323.3z"/>
		<path opacity="0.45" fill="#883446" d="M790.2,349.3c7.8-2,27.3-7.5,28.6,4.7C822.5,388.1,742.4,361.6,790.2,349.3z"/>
		<path opacity="0.45" fill="#883446" d="M765.2,245.6c15.2-1.9,26.7,9.2,11.8,19c-8.8,5.8-32,14.2-38.5,1.4
			C732.3,253.7,757.1,246.6,765.2,245.6z"/>
		<path opacity="0.45" fill="#883446" d="M599.8,212.8c15.7,1.7,29.1,19,7.5,23c-9.8,1.8-32.8,2.3-32.6-12.6
			C575,212.8,592.3,211.9,599.8,212.8z"/>
		<path opacity="0.45" fill="#883446" d="M884.5,285.5c8.8-2,30-3.6,20.1,11.7c-5.8,9-27.6,14-36.3,7.8
			C854.6,295.3,877.1,287.2,884.5,285.5z"/>
		<path opacity="0.45" fill="#883446" d="M819.3,189.3c8-4.7,41.9-5.4,32.6,11.8C843.1,217.6,795.4,203.5,819.3,189.3z"/>
		<g filter="url(#inner-glow1)">
			<path fill="#FFC59C" d="M1011.9,426.3c-13.1,2.3-26.3,5.3-40.4,7.7c-20.4,3.4-46.7,4.5-64.5,15.2c-13.4,8-22.2,25.8-11.5,40
				c3.4,4.5,8.6,7.3,14.6,9.3c11,3.5,24.6,3.9,33.8,5.9c19.9,4.2,38.8,10.4,58.8,14.4c3.4,0.7,6.8,1.3,10.2,1.8
				C1012.5,489.1,1012.1,457.7,1011.9,426.3z"/>
			<path fill="none" stroke="#E88E79" stroke-width="1.0427" stroke-miterlimit="10" d="M1011.9,426.3c-13.1,2.3-26.3,5.3-40.4,7.7
				c-20.4,3.4-46.7,4.5-64.5,15.2c-13.4,8-22.2,25.8-11.5,40c3.4,4.5,8.6,7.3,14.6,9.3c11,3.5,24.6,3.9,33.8,5.9
				c19.9,4.2,38.8,10.4,58.8,14.4c3.4,0.7,6.8,1.3,10.2,1.8C1012.5,489.1,1012.1,457.7,1011.9,426.3z"/>
		</g>
		<g filter="url(#inner-glow1)">
			<path fill="#FFC59C" d="M869.5,490.7c6.3-8.2,8.7-18.1,3.1-29.8c-7.8-16-34.7-16.7-49.8-19.5c-25.8-4.8-42.1,7.1-66.2,13.1
				c-19,4.7-41.8,2.9-61.5,2.9C668,457.4,580,467.7,591.9,513c7,26.5,45.3,22.9,66.8,25.1c24.6,2.5,48.1,9.6,73.2,8.3
				c31.3-1.6,64.7-18.9,93.8-29.1C838.9,512.6,859.3,503.9,869.5,490.7z"/>
			<path fill="none" stroke="#E88E79" stroke-width="1.0427" stroke-miterlimit="10" d="M869.5,490.7c6.3-8.2,8.7-18.1,3.1-29.8
				c-7.8-16-34.7-16.7-49.8-19.5c-25.8-4.8-42.1,7.1-66.2,13.1c-19,4.7-41.8,2.9-61.5,2.9C668,457.4,580,467.7,591.9,513
				c7,26.5,45.3,22.9,66.8,25.1c24.6,2.5,48.1,9.6,73.2,8.3c31.3-1.6,64.7-18.9,93.8-29.1C838.9,512.6,859.3,503.9,869.5,490.7z"/>
		</g>
		<g filter="url(#inner-glow1)">
			<path fill="#FFC59C" d="M559.2,529.1c9.7-8.8,14.3-28,10-40.3c-6.9-19.9-27.1-14.5-43.7-12.4c-20.6,2.6-41.2,6.4-61.6,9.7
				c-18.6,3-35.7,12.1-54.7,13c-25.3,1.2-51.4,2.3-76.6,5.5c-23.3,3-69,9-72.6,39.1c-3.5,28.7,59.3,28.6,77.6,31.8
				c25.3,4.4,53.9,9.7,80.2,8.4c35-1.6,63.3-12.5,93.4-29.7C526,545.7,546.4,540.6,559.2,529.1z"/>
			<path fill="none" stroke="#E88E79" stroke-width="1.0427" stroke-miterlimit="10" d="M559.2,529.1c9.7-8.8,14.3-28,10-40.3
				c-6.9-19.9-27.1-14.5-43.7-12.4c-20.6,2.6-41.2,6.4-61.6,9.7c-18.6,3-35.7,12.1-54.7,13c-25.3,1.2-51.4,2.3-76.6,5.5
				c-23.3,3-69,9-72.6,39.1c-3.5,28.7,59.3,28.6,77.6,31.8c25.3,4.4,53.9,9.7,80.2,8.4c35-1.6,63.3-12.5,93.4-29.7
				C526,545.7,546.4,540.6,559.2,529.1z"/>
		</g>
		<g filter="url(#inner-glow1)">
			<path fill="#FFC59C" d="M126.1,643.8c-17,4.1-33.9,6.1-51.3,7.6c-13.1,1.1-26.8,5.5-40.1,4.9c-23.8-1-62-5.5-72-31.7
				c-13.2-34.6,68.6-38.3,87.9-45.2c21.2-7.5,33.6-20.5,57.5-20.5c24.2,0.1,53.2-3.3,76.6-9.2c17.6-4.3,38.2-17.1,53.8-0.6
				C280.1,593.1,153,637.3,126.1,643.8z"/>
			<path fill="none" stroke="#E88E79" stroke-width="1.0427" stroke-miterlimit="10" d="M126.1,643.8c-17,4.1-33.9,6.1-51.3,7.6
				c-13.1,1.1-26.8,5.5-40.1,4.9c-23.8-1-62-5.5-72-31.7c-13.2-34.6,68.6-38.3,87.9-45.2c21.2-7.5,33.6-20.5,57.5-20.5
				c24.2,0.1,53.2-3.3,76.6-9.2c17.6-4.3,38.2-17.1,53.8-0.6C280.1,593.1,153,637.3,126.1,643.8z"/>
		</g>
		<g filter="url(#inner-glow1)">
			<path fill="#FFC59C" d="M174.7,656.1c2.3-0.8,4.6-1.8,6.8-2.8c19.4-9.2,39.8-24.2,57.9-36.2c17.1-11.4,24.3-26.3,46.5-26.2
				c20.3,0.1,37.1,5.5,56.5,8.5c15.6,2.4,110.5-1,83.4,39.5c-6.5,9.7-24.7,16.6-34.4,21.7c-14.3,7.5-29.4,16.4-44.6,22.5
				c-24.9,10.1-55.8,17.6-82.7,16.4c-20.3-1-41-1.4-61.4,0c-21.9,1.6-43,10.4-65.1,3.6c-15.7-4.8-26.6-16.4-10.1-29
				C141.8,663.2,158.9,661.8,174.7,656.1z"/>
			<path fill="none" stroke="#E88E79" stroke-width="1.0427" stroke-miterlimit="10" d="M174.7,656.1c2.3-0.8,4.6-1.8,6.8-2.8
				c19.4-9.2,39.8-24.2,57.9-36.2c17.1-11.4,24.3-26.3,46.5-26.2c20.3,0.1,37.1,5.5,56.5,8.5c15.6,2.4,110.5-1,83.4,39.5
				c-6.5,9.7-24.7,16.6-34.4,21.7c-14.3,7.5-29.4,16.4-44.6,22.5c-24.9,10.1-55.8,17.6-82.7,16.4c-20.3-1-41-1.4-61.4,0
				c-21.9,1.6-43,10.4-65.1,3.6c-15.7-4.8-26.6-16.4-10.1-29C141.8,663.2,158.9,661.8,174.7,656.1z"/>
		</g>
		<g filter="url(#inner-glow1)">
			<path fill="#FFC59C" d="M735.8,564.3c20.2,0.3,45.7,3,39.8,29.9c-3.3,14.9-24.7,22.4-36,30.3c-15.1,10.7-28.7,22.2-45.9,29.8
				c-44.8,19.6-95,15.3-141.2,3.1c-23.2-6.1-47.2-6.3-70.5-12.7c-24-6.5-38.3-17.3-24.3-35.1c15.3-19.4,51.8-30,73.4-38.3
				c14.5-5.5,27.4-15.5,42.7-18.9c14.9-3.4,28.1,3,42.9,4.1c34.9,2.5,69.7,6.3,104.7,7.6C725.3,564.3,730.4,564.2,735.8,564.3z"/>
			<path fill="none" stroke="#E88E79" stroke-width="1.0427" stroke-miterlimit="10" d="M735.8,564.3c20.2,0.3,45.7,3,39.8,29.9
				c-3.3,14.9-24.7,22.4-36,30.3c-15.1,10.7-28.7,22.2-45.9,29.8c-44.8,19.6-95,15.3-141.2,3.1c-23.2-6.1-47.2-6.3-70.5-12.7
				c-24-6.5-38.3-17.3-24.3-35.1c15.3-19.4,51.8-30,73.4-38.3c14.5-5.5,27.4-15.5,42.7-18.9c14.9-3.4,28.1,3,42.9,4.1
				c34.9,2.5,69.7,6.3,104.7,7.6C725.3,564.3,730.4,564.2,735.8,564.3z"/>
		</g>
		<g filter="url(#inner-glow1)">
			<path fill="#FFC59C" d="M1013.1,543.9c-5.5-0.3-10.6-0.8-14.6-1.8c-18.6-4.9-36.1-6.5-54.2-12.8c-17.6-6.1-36.7-13.8-55.7-11.9
				c-18.2,1.8-30.8,12.9-46.6,19.8c-16.5,7.3-38.9,7.1-46,27.4c-6.2,17.6,8.2,28.2,25,34.5c12.6,4.7,26.6,7.2,34.5,8.4
				c21.3,3.2,40.1,11,60.2,17.1c32.2,9.7,63.1,2.5,91.9-10.2c2.1-0.9,4.2-1.7,6.2-2.5C1013.7,589.3,1013.4,566.6,1013.1,543.9z"/>
			<path fill="none" stroke="#E88E79" stroke-width="1.0427" stroke-miterlimit="10" d="M1013.1,543.9c-5.5-0.3-10.6-0.8-14.6-1.8
				c-18.6-4.9-36.1-6.5-54.2-12.8c-17.6-6.1-36.7-13.8-55.7-11.9c-18.2,1.8-30.8,12.9-46.6,19.8c-16.5,7.3-38.9,7.1-46,27.4
				c-6.2,17.6,8.2,28.2,25,34.5c12.6,4.7,26.6,7.2,34.5,8.4c21.3,3.2,40.1,11,60.2,17.1c32.2,9.7,63.1,2.5,91.9-10.2
				c2.1-0.9,4.2-1.7,6.2-2.5C1013.7,589.3,1013.4,566.6,1013.1,543.9z"/>
		</g>
		<g filter="url(#inner-glow1)">
			<path fill="#FFC59C" d="M721.3,716.7c-9.8-2.1-19.1-6.3-21-15.6c-4.9-23.2,31.5-36.5,45.1-46.4c16.7-12.1,34.1-27.3,54.3-33.2
				c41.7-12.3,83.1,19.4,124.1,23.4c31.1,3,59.5,1.6,72.5,36c9,23.8-5.4,34.7-29.3,37.6c-28.1,3.5-56,1.6-84.1,3
				c-22.7,1.1-43.5,12.9-65.5,11c-26-2.2-50.7-12.1-76.8-13.6C735.2,718.5,728.1,718.2,721.3,716.7z"/>
			<path fill="none" stroke="#E88E79" stroke-width="1.0427" stroke-miterlimit="10" d="M721.3,716.7c-9.8-2.1-19.1-6.3-21-15.6
				c-4.9-23.2,31.5-36.5,45.1-46.4c16.7-12.1,34.1-27.3,54.3-33.2c41.7-12.3,83.1,19.4,124.1,23.4c31.1,3,59.5,1.6,72.5,36
				c9,23.8-5.4,34.7-29.3,37.6c-28.1,3.5-56,1.6-84.1,3c-22.7,1.1-43.5,12.9-65.5,11c-26-2.2-50.7-12.1-76.8-13.6
				C735.2,718.5,728.1,718.2,721.3,716.7z"/>
		</g>
		<g filter="url(#inner-glow1)">
			<path fill="#FFC59C" d="M370.6,730.4c52.4,4.9,104.9,9.3,157.5,12.5c15.4,0.9,30.9,1.8,46.3,2.5c18.5-11.2,38.2-28.8,23.1-49.2
				c-10.7-14.5-32-16.4-48.3-19.1c-19.8-3.4-37.7-7-57-12.2c-12.7-3.4-29.6-5.3-42.7-3.2c-14.6,2.4-18.5,9.4-28.5,17.9
				c-12.5,10.6-32.7,16.1-47.3,22.5c-0.4,3.8-9.5,14-16.2,27C361.8,729.5,366.2,730,370.6,730.4z"/>
			<path fill="none" stroke="#E88E79" stroke-width="1.0427" stroke-miterlimit="10" d="M370.6,730.4c52.4,4.9,104.9,9.3,157.5,12.5
				c15.4,0.9,30.9,1.8,46.3,2.5c18.5-11.2,38.2-28.8,23.1-49.2c-10.7-14.5-32-16.4-48.3-19.1c-19.8-3.4-37.7-7-57-12.2
				c-12.7-3.4-29.6-5.3-42.7-3.2c-14.6,2.4-18.5,9.4-28.5,17.9c-12.5,10.6-32.7,16.1-47.3,22.5c-0.4,3.8-9.5,14-16.2,27
				C361.8,729.5,366.2,730,370.6,730.4z"/>
		</g>
		<path fill="#EF9C8E" d="M440.7,539.8c2,36-65.9,21.8-46.8-7.9c1.9-3,4.7-5.3,7.7-7.1c7.2-4.3,16.2-6,24.2-3.4
			C433.7,524,440.2,531.4,440.7,539.8z"/>
		<path fill="#EF9C8E" d="M281.5,633.5c9.3-7.4,22.3-9.8,33.7-6.4c6.1,1.9,12.2,5.9,13.6,12.2c1.4,6.3-2.6,12.9-8,16.4
			s-12,4.7-18.4,5.9c-2.6,0.5-5.1,0.9-7.7,1.4c-5.8,1-12.2,1.9-17-1.3c-4.6-3.1-6.4-9.3-5.3-14.7
			C273.6,641.5,277.2,636.9,281.5,633.5z"/>
		<path fill="#EF9C8E" d="M128.8,588.4c28.2,20.4-40.3,57.8-51.7,33c-3.2-7-0.4-15.7,4.9-21.3c5.3-5.6,12.7-8.8,20-11.5
			C110.8,585.5,121.3,583,128.8,588.4z"/>
		<path fill="#EF9C8E" d="M605.2,603c2.9,23.4-44.4,37.7-53.8,15c-3.1-7.5,0.3-16.5,6.4-21.8c6.1-5.3,14.5-7.3,22.6-7.6
			c5.3-0.2,10.7,0.2,15.4,2.5C600.6,593.4,604.5,597.8,605.2,603z"/>
		<path fill="#EF9C8E" d="M719.1,515.8c13.6,6,36.3,7.5,42.1-5.9c3.1-7.1,0.8-15.9-4.7-21.3c-8.2-8.1-26.7-11.5-36.4-4.8
			c-9.2,6.4-19,18.6-7.7,28C714.1,513.2,716.4,514.6,719.1,515.8z"/>
		<path fill="#EF9C8E" d="M829.7,667.8c3.2-3.7,8-5.5,12.7-6.9c9.4-2.9,19.7-4.8,28.9-1.2s15.9,14.6,11.9,23.5
			c-3.6,8-13.4,10.8-22.1,12.1c-11.9,1.7-26.6,1-32.7-9.3C825,680.4,825.4,672.7,829.7,667.8z"/>
		<path fill="#EF9C8E" d="M943,573.6c4.3-28.6-56.6-32.6-58.2,0.7c-0.2,3.9,0.6,7.9,2.9,11c3,4.1,8,6.1,12.9,7.3
			c8.5,2.2,17.6,2.7,25.8-0.3S941.7,582.3,943,573.6z"/>
		<path fill="#EF9C8E" d="M112.6,155.5c10-7.2,27.9-19.4,37.3-4.4c4.8,7.6,2.8,18.3-3.3,24.9c-8.6,9.4-35.6,16.3-43,1.5
			C99.8,169.7,105.6,160.5,112.6,155.5z"/>
		<path fill="#EF9C8E" d="M5.1,110.7c-4.8,15.4-38,27.4-48.6,12.3c-8.1-11.7,1.9-21.8,10.5-28.7c5.9-4.8,13-8.9,20.5-8.5
			C-0.7,86.3,8.6,99.5,5.1,110.7z"/>
		<path fill="#EF9C8E" d="M257.9,41c13-10,49.8-7.6,43.2,17c-1.7,6.4-7.7,10.9-14,12.6c-6.4,1.7-13.1,1-19.6-0.1
			C248.4,67.3,240,54.8,257.9,41z"/>
		<path fill="#EF9C8E" d="M500.1,105.8c-8.2,23.2-62.4,20.3-49.2-5.5c2.3-4.6,6.5-7.9,10.9-10.5c7.8-4.7,17.3-7.6,25.9-4.9
			C496.4,87.6,503.1,97.3,500.1,105.8z"/>
		<path fill="#EF9C8E" d="M675.4,74.8c4.3-17.5,25.8-28.6,40.6-16c6.8,5.8,9.6,16.2,5.8,24.3c-3.1,6.6-9.7,10.9-16.8,12.6
			C690.7,99.3,670.7,93.8,675.4,74.8z"/>
		<path fill="#EF9C8E" d="M599.3-19.2c-0.4-0.5-0.8-1-1.3-1.5c-0.7-0.7-1.4-1.3-2.2-1.9c-9,0.1-18,0.2-27,0.3
			c-17.2,11.3-27,39.1-0.4,46.2c18.8,5,36.7-13.4,34.9-31.5C602.9-11.8,601.7-16,599.3-19.2z"/>
		<path fill="#EF9C8E" d="M788.6-27.1c-9.6,18.1,22.3,35,41.3,24c11.8-6.8,12.1-17.2,6.7-25.4C820.6-28,804.6-27.6,788.6-27.1z"/>
		<path fill="#EF9C8E" d="M107.9-35.4c-1-0.7-2.1-1.3-3.2-1.8c-7.8-0.1-15.5-0.1-23.3-0.1C62.8-28.6,64.5-4.8,82.6,4.1
			c8,3.9,17.9,4.5,25.6,0C122-4,120.5-27,107.9-35.4z"/>
	</g>
	<g clip-path="url(#SVGID_1_)" filter="url(#ds1)">
		<path fill="#91CBDF" d="M184.9,246.8h5.8v-32.8h-5.8v-9.4h24.1c4,0,6.6,0.1,9.4,1.1c5.5,1.9,9,6.3,9,12.3c0,4.5-2.1,8.8-6.1,11
			v0.1c6,1.9,8.2,6.8,8.2,11.8c0,7.7-5.4,12.9-11.4,14.4c-2.8,0.6-4.9,0.7-7.7,0.7h-25.4V246.8z M209.9,224.7c3.2,0,4.5-2.2,4.5-5
			c0-1.8-0.7-3.7-2.4-4.5c-0.9-0.4-1.8-0.4-3.2-0.4h-5.3v9.9H209.9z M211,246.1c0.9,0,1.7-0.1,2.4-0.4c2-0.9,3.1-3.2,3.1-5.6
			c0-3.1-1.7-5.3-5.4-5.3h-7.5v11.4H211z"/>
		<path fill="#91CBDF" d="M263,214.1h-5.8v-9.4h24.4v9.4h-5.8v22.5c0,2.3,0.5,4.3,1.3,5.7c1.4,2.3,4.2,3.7,7.7,3.7
			c3.4,0,5.8-1.1,7.5-3.6c0.9-1.5,1.4-3.4,1.4-5.8v-22.5H288v-9.4h24.4v9.4h-5.8v22.5c0,5.2-1.6,10-4.2,13.4
			c-4,4.9-10.7,7.1-17.6,7.1c-7.4,0-13.8-2.6-17.5-6.9c-3.1-3.5-4.3-8.1-4.3-13.6V214.1z"/>
		<path fill="#91CBDF" d="M341.6,246.8h5.8v-32.8h-5.8v-9.4H366v9.4h-5.8v32.8h5.8v9.4h-24.4V246.8z"/>
		<path fill="#91CBDF" d="M397.4,246.8h5.8v-32h-5.8v-10.1h24.4v10.1H416v31.3h11.1v-7.6h10.8v17.6h-40.5V246.8z"/>
		<path fill="#91CBDF" d="M466.9,246.8h5.8v-32.8h-5.8v-9.4h22.7c4,0,7.3,0.1,10.6,1.1c10.2,2.9,17.3,11.7,17.3,24.6
			c0,11.9-6,20.6-15.5,24.1c-3.7,1.4-7.6,1.7-12.3,1.7h-22.8V246.8z M489.3,246.1c3.2,0,5.5-0.4,7.8-1.4c4.4-2.2,7-7.3,7-14.2
			c0-7.7-3.1-12.6-7.9-14.6c-2.2-0.9-4.3-1.1-6.9-1.1h-3.7v31.3H489.3z"/>
		<path fill="#91CBDF" d="M546.7,246.8h5.8v-32.8h-5.8v-9.4h24.4v9.4h-5.8v32.8h5.8v9.4h-24.4V246.8z"/>
		<path fill="#91CBDF" d="M602.4,246.8h5.8v-32.8h-5.8v-9.4h18.8l16.1,27.3c0.6,1.1,1.2,2.3,1.5,3.4l0.6,1.9h0.3l-0.2-2
			c-0.2-1.2-0.2-2.6-0.2-3.7v-17.4h-6v-9.4H658v9.4h-5.8v42.1h-13L623.1,229c-0.6-1.1-1.2-2.3-1.5-3.4l-0.6-1.9h-0.3l0.2,2
			c0.2,1.2,0.2,2.6,0.2,3.7v17.3h6v9.4h-24.7V246.8z"/>
		<path fill="#91CBDF" d="M713.4,203.8c9.4,0,20.7,3.5,20.7,10.1v8.4h-11.5v-3.7c0-2.6-3.8-3.9-8.5-3.9c-9.4,0-15,5.2-15,14.9
			c0,9.6,5.5,16.7,15.7,16.7c3.5,0,8.9-0.9,8.9-3.7V239h-8.3v-9.4h19.8v17.1c0,7.7-14.5,10.3-22,10.3c-15.8,0-27.4-11.4-27.4-26.9
			C685.8,214.6,697.2,203.8,713.4,203.8z"/>
		<path fill="#E77862" d="M206.2,346.8h5.8v-32.8h-5.8v-9.4h24.1c4,0,6.6,0.1,9.4,1.1c5.5,1.9,9,6.3,9,12.3c0,4.5-2.1,8.8-6.1,11
			v0.1c6,1.9,8.2,6.8,8.2,11.8c0,7.7-5.4,12.9-11.4,14.4c-2.8,0.6-4.9,0.7-7.7,0.7h-25.4V346.8z M231.2,324.7c3.2,0,4.5-2.2,4.5-5
			c0-1.8-0.7-3.7-2.4-4.5c-0.9-0.4-1.8-0.4-3.2-0.4h-5.3v9.9H231.2z M232.2,346.1c0.9,0,1.7-0.1,2.4-0.4c2-0.9,3.1-3.2,3.1-5.6
			c0-3.1-1.7-5.3-5.4-5.3h-7.5v11.4H232.2z"/>
		<path fill="#E77862" d="M284.3,314.1h-5.8v-9.4H303v9.4h-5.8v22.5c0,2.3,0.5,4.3,1.3,5.7c1.4,2.3,4.2,3.7,7.7,3.7
			c3.4,0,5.8-1.1,7.5-3.6c0.9-1.5,1.4-3.4,1.4-5.8v-22.5h-5.8v-9.4h24.4v9.4H328v22.5c0,5.2-1.6,10-4.2,13.4
			c-4,4.9-10.7,7.1-17.6,7.1c-7.4,0-13.8-2.6-17.5-6.9c-3.1-3.5-4.3-8.1-4.3-13.6V314.1z"/>
		<path fill="#E77862" d="M362.9,346.8h5.8v-32.8h-5.8v-9.4h23.3c4,0,7.3,0.1,10.3,1c6.3,1.9,10.3,6.9,10.3,14.5
			c0,6.8-3.2,11.3-8.4,14.1v0.1c0.4,0.2,0.8,0.4,1.2,0.7c0.6,0.5,1.4,1.2,2,2.4l4,7.6c0.6,1.2,1.7,1.7,3.3,1.7h1.8v9.4h-8.5
			c-4.1,0-5.8-1-7.3-3.8l-6.3-12c-0.9-1.7-1.8-2.2-4.5-2.2h-2.6v8.7h5.4v9.4h-24.1V346.8z M387.4,328c4,0,6.6-2,6.6-6.7
			c0-2.4-0.6-4.6-2.8-5.7c-1.2-0.6-2.8-0.9-5-0.9h-4.6V328H387.4z"/>
		<path fill="#E77862" d="M440,346.8h5.8v-32.8H440v-9.4h18.8L475,332c0.6,1.1,1.2,2.3,1.5,3.4l0.6,1.9h0.3l-0.2-2
			c-0.2-1.2-0.2-2.6-0.2-3.7v-17.4h-6v-9.4h24.7v9.4h-5.8v42.1h-13L460.7,329c-0.6-1.1-1.2-2.3-1.5-3.4l-0.6-1.9h-0.3l0.2,2
			c0.2,1.2,0.2,2.6,0.2,3.7v17.3h6v9.4H440V346.8z"/>
		<path fill="#E77862" d="M525.4,346.8h5.8v-32.8h-5.8v-9.4h24.4v9.4H544v32.8h5.8v9.4h-24.4V346.8z"/>
		<path fill="#E77862" d="M581.1,346.8h5.8v-32.8h-5.8v-9.4h18.8l16.1,27.3c0.6,1.1,1.2,2.3,1.5,3.4l0.6,1.9h0.3l-0.2-2
			c-0.2-1.2-0.2-2.6-0.2-3.7v-17.4h-6v-9.4h24.7v9.4H631v42.1h-13L601.8,329c-0.6-1.1-1.2-2.3-1.5-3.4l-0.6-1.9h-0.3l0.2,2
			c0.2,1.2,0.2,2.6,0.2,3.7v17.3h6v9.4h-24.7V346.8z"/>
		<path fill="#E77862" d="M692.1,303.8c9.4,0,20.7,3.5,20.7,10.1v8.4h-11.5v-3.7c0-2.6-3.8-3.9-8.5-3.9c-9.4,0-15,5.2-15,14.9
			c0,9.6,5.5,16.7,15.7,16.7c3.5,0,8.9-0.9,8.9-3.7V339h-8.3v-9.4H714v17.1c0,7.7-14.5,10.3-22,10.3c-15.8,0-27.4-11.4-27.4-26.9
			C664.5,314.6,676,303.8,692.1,303.8z"/>
		<path fill="#EFE989" d="M226.2,437.9v3.8c0,2.7,3.4,4.2,7.4,4.2s6.9-1.4,6.9-4.2c0-4-5.7-5.3-11.1-7.3c-7-2.7-13.5-6-13.5-15.5
			c0-11.4,9.4-15,18.5-15c8.8,0,17.5,3.3,17.5,9.9v7.6h-11.5v-3.2c0-2-2.7-3.1-6-3.1c-3,0-5.5,0.9-5.5,3.5c0,3.6,4.2,5,8.9,6.7
			c7.8,2.7,15.7,6,15.7,15.7c0,11.7-10.1,16.1-19.9,16.1c-9.6,0-18.9-4.2-18.9-12.5v-6.6H226.2z"/>
		<path fill="#EFE989" d="M292.4,446.8h5.8v-32h-6.1v7.3h-10.8v-17.4H328v17.4h-10.8v-7.3h-6.1v32h5.8v9.4h-24.4V446.8z"/>
		<path fill="#EFE989" d="M383.1,403.8c15.8,0,27.1,11.5,27.1,26.3c0,15.1-11.3,26.9-27.1,26.9c-15.8,0-27.1-11.8-27.1-26.9
			C356,415.4,367.3,403.8,383.1,403.8z M383.1,445.9c7.6,0,13.8-6.8,13.8-15.8c0-8.6-6.2-15.1-13.8-15.1s-13.8,6.5-13.8,15.1
			C369.3,439.1,375.5,445.9,383.1,445.9z"/>
		<path fill="#EFE989" d="M439.1,446.8h5.8v-32.8h-5.8v-9.4h23.3c4,0,7.3,0.1,10.3,1c6.3,1.9,10.3,6.9,10.3,14.5
			c0,6.8-3.2,11.3-8.4,14.1v0.1c0.4,0.2,0.8,0.4,1.2,0.7c0.6,0.5,1.4,1.2,2,2.4l4,7.6c0.6,1.2,1.7,1.7,3.3,1.7h1.8v9.4h-8.5
			c-4.1,0-5.8-1-7.3-3.8l-6.3-12c-0.9-1.7-1.8-2.2-4.5-2.2h-2.6v8.7h5.4v9.4h-24.1V446.8z M463.6,428c4,0,6.6-2,6.6-6.7
			c0-2.4-0.6-4.6-2.8-5.7c-1.2-0.6-2.8-0.9-5-0.9h-4.6V428H463.6z"/>
		<path fill="#EFE989" d="M516.2,446.8h5.8v-32.8h-5.8v-9.4h24.4v9.4h-5.8v32.8h5.8v9.4h-24.4V446.8z"/>
		<path fill="#EFE989" d="M572,446.8h5.8v-32.8H572v-9.4h18.8l16.1,27.3c0.6,1.1,1.2,2.3,1.5,3.4l0.6,1.9h0.3l-0.2-2
			c-0.2-1.2-0.2-2.6-0.2-3.7v-17.4h-6v-9.4h24.7v9.4h-5.8v42.1h-13L592.7,429c-0.6-1.1-1.2-2.3-1.5-3.4l-0.6-1.9h-0.3l0.2,2
			c0.2,1.2,0.2,2.6,0.2,3.7v17.3h6v9.4H572V446.8z"/>
		<path fill="#EFE989" d="M682.9,403.8c9.4,0,20.7,3.5,20.7,10.1v8.4h-11.5v-3.7c0-2.6-3.8-3.9-8.5-3.9c-9.4,0-15,5.2-15,14.9
			c0,9.6,5.5,16.7,15.7,16.7c3.5,0,8.9-0.9,8.9-3.7V439H685v-9.4h19.8v17.1c0,7.7-14.5,10.3-22,10.3c-15.8,0-27.4-11.4-27.4-26.9
			C655.4,414.6,666.8,403.8,682.9,403.8z"/>
	</g>
</g>
</svg>
