<?xml version="1.0" encoding="utf-8"?>
<!-- Generator: Adobe Illustrator 16.0.4, SVG Export Plug-In . SVG Version: 6.00 Build 0)  -->
<!DOCTYPE svg PUBLIC "-//W3C//DTD SVG 1.1//EN" "http://www.w3.org/Graphics/SVG/1.1/DTD/svg11.dtd">
<svg version="1.1" id="Layer_1" xmlns="http://www.w3.org/2000/svg" xmlns:xlink="http://www.w3.org/1999/xlink" x="0px" y="0px"
	 width="61.159px" height="76px" viewBox="0 0 61.159 76" enable-background="new 0 0 61.159 76" xml:space="preserve">
<path fill="#231F20" d="M46.301,56.484c-2.333-13.566-17.436-19.279-17.436-19.279s-0.701,0.498-0.588,0.571
	c3.154,2.047,5.516,4.065,7.274,5.984l-13.152,2.646c0.271-3.66,1.761-7.33,5.796-9.789C47.303,24.98,43.967,14.203,43.967,14.203
	l-5.717,0.892c0,0,4.913,9.495-12.573,22.067c-11.616,8.354-6.016,23.22-6.016,23.22l5.433-1.376c0,0-0.797-1.588-1.533-3.967
	l16.56-3.33c0.838,3.382-0.017,5.562-0.017,5.562L46.301,56.484z M22.838,52.227c-0.188-0.912-0.336-1.875-0.417-2.867l15.175-3.052
	c0.635,0.919,1.136,1.802,1.532,2.642L22.838,52.227z M25.396,36.481l0.587-0.571c-10.146-7.484-2.242-20.139-2.242-20.139
	s-6.844,0.683-6.878,0.875C14.142,32.078,25.396,36.481,25.396,36.481z M29.174,25.125c1.628,0.022,2.965-1.28,2.987-2.908
	c0.021-1.629-1.281-2.967-2.91-2.988c-1.628-0.023-2.966,1.279-2.988,2.908C26.242,23.766,27.544,25.104,29.174,25.125z"/>
</svg>
