<?xml version="1.0" encoding="utf-8"?>
<!-- Generator: Adobe Illustrator 18.1.1, SVG Export Plug-In . SVG Version: 6.00 Build 0)  -->
<svg version="1.1" xmlns="http://www.w3.org/2000/svg" xmlns:xlink="http://www.w3.org/1999/xlink" x="0px" y="0px"
	 viewBox="0 0 2328 2519.8" enable-background="new 0 0 2328 2519.8" xml:space="preserve">
<g id="Ref">
	
		<image overflow="visible" width="860" height="509" xlink:href="../../References/obese.gif"  transform="matrix(0.331 0 0 0.5523 2660.8699 1229.6094)">
	</image>
</g>
<g id="Layer_3">
	
		<image overflow="visible" opacity="0.7" width="2200" height="352" xlink:href="../../References/DNA double helix_2.jpg"  transform="matrix(0.1717 0 0 0.1717 -820.0467 981.3977)">
	</image>
</g>
<g id="Layer_4">
</g>
<g id="DNA_TIMELINE">
	<linearGradient id="SVGID_1_" gradientUnits="userSpaceOnUse" x1="2166.2769" y1="743.673" x2="2166.2769" y2="187.7657">
		<stop  offset="0" style="stop-color:#EE4085"/>
		<stop  offset="0.1859" style="stop-color:#F493A8"/>
		<stop  offset="0.5464" style="stop-color:#F495AA;stop-opacity:0.5572"/>
		<stop  offset="0.6763" style="stop-color:#F59CAF;stop-opacity:0.3976"/>
		<stop  offset="0.7688" style="stop-color:#F6A7B8;stop-opacity:0.284"/>
		<stop  offset="0.8437" style="stop-color:#F8B8C6;stop-opacity:0.192"/>
		<stop  offset="0.9078" style="stop-color:#FACED8;stop-opacity:0.1133"/>
		<stop  offset="0.9635" style="stop-color:#FDE9ED;stop-opacity:4.485708e-02"/>
		<stop  offset="1" style="stop-color:#FFFFFF;stop-opacity:0"/>
	</linearGradient>
	<rect x="2145.7" y="187.8" fill="url(#SVGID_1_)" width="41.1" height="555.9"/>
	<polygon fill="#BBE4ED" points="144.6,745.3 535.3,2225.8 537.6,991.9 2059.2,992.1 	"/>
	<g>
		<g>
			<path fill="#FFFFFF" stroke="#000000" stroke-miterlimit="10" d="M-749.1,970h-0.1c-0.9,0-1.7-0.8-1.7-1.7v-37.4
				c0-0.9,0.8-1.7,1.7-1.7h0.1c0.9,0,1.7,0.8,1.7,1.7v37.4C-747.4,969.2-748.2,970-749.1,970z"/>
			<path fill="#FFFFFF" stroke="#000000" stroke-miterlimit="10" d="M-740.9,969.1h-0.1c-0.9,0-1.7-0.8-1.7-1.7v-34.8
				c0-0.9,0.8-1.7,1.7-1.7h0.1c0.9,0,1.7,0.8,1.7,1.7v34.8C-739.1,968.3-739.9,969.1-740.9,969.1z"/>
			<path fill="#FFFFFF" stroke="#000000" stroke-miterlimit="10" d="M-732.6,966.8h-0.1c-0.9,0-1.7-0.8-1.7-1.7v-29.9
				c0-0.9,0.8-1.7,1.7-1.7h0.1c0.9,0,1.7,0.8,1.7,1.7V965C-730.9,966-731.7,966.8-732.6,966.8z"/>
			<path fill="#FFFFFF" stroke="#000000" stroke-miterlimit="10" d="M-724.4,960.5h-0.1c-0.9,0-1.7-0.8-1.7-1.7v-19.4
				c0-0.9,0.8-1.7,1.7-1.7h0.1c0.9,0,1.7,0.8,1.7,1.7v19.4C-722.7,959.8-723.4,960.5-724.4,960.5z"/>
			<path fill="#FFFFFF" stroke="#000000" stroke-miterlimit="10" d="M-756.4,969.1h0.1c0.9,0,1.7-0.8,1.7-1.7v-34.8
				c0-0.9-0.8-1.7-1.7-1.7h-0.1c-0.9,0-1.7,0.8-1.7,1.7v34.8C-758.2,968.3-757.4,969.1-756.4,969.1z"/>
			<path fill="#FFFFFF" stroke="#000000" stroke-miterlimit="10" d="M-764.7,966.8h0.1c0.9,0,1.7-0.8,1.7-1.7v-29.9
				c0-0.9-0.8-1.7-1.7-1.7h-0.1c-0.9,0-1.7,0.8-1.7,1.7V965C-766.4,966-765.6,966.8-764.7,966.8z"/>
			<path fill="#FFFFFF" stroke="#000000" stroke-miterlimit="10" d="M-772.9,960.5h0.1c0.9,0,1.7-0.8,1.7-1.7v-19.4
				c0-0.9-0.8-1.7-1.7-1.7h-0.1c-0.9,0-1.7,0.8-1.7,1.7v19.4C-774.6,959.8-773.9,960.5-772.9,960.5z"/>
		</g>
		<g>
			<path fill="#FFFFFF" stroke="#000000" stroke-miterlimit="10" d="M-812.3,970h-0.1c-0.9,0-1.7-0.8-1.7-1.7v-37.4
				c0-0.9,0.8-1.7,1.7-1.7h0.1c0.9,0,1.7,0.8,1.7,1.7v37.4C-810.6,969.2-811.3,970-812.3,970z"/>
			<path fill="#FFFFFF" stroke="#000000" stroke-miterlimit="10" d="M-804,969.1h-0.1c-0.9,0-1.7-0.8-1.7-1.7v-34.8
				c0-0.9,0.8-1.7,1.7-1.7h0.1c0.9,0,1.7,0.8,1.7,1.7v34.8C-802.3,968.3-803.1,969.1-804,969.1z"/>
			<path fill="#FFFFFF" stroke="#000000" stroke-miterlimit="10" d="M-795.8,966.8h-0.1c-0.9,0-1.7-0.8-1.7-1.7v-29.9
				c0-0.9,0.8-1.7,1.7-1.7h0.1c0.9,0,1.7,0.8,1.7,1.7V965C-794.1,966-794.9,966.8-795.8,966.8z"/>
			<path fill="#FFFFFF" stroke="#000000" stroke-miterlimit="10" d="M-787.6,960.5h-0.1c-0.9,0-1.7-0.8-1.7-1.7v-19.4
				c0-0.9,0.8-1.7,1.7-1.7h0.1c0.9,0,1.7,0.8,1.7,1.7v19.4C-785.8,959.8-786.6,960.5-787.6,960.5z"/>
			<path fill="#FFFFFF" stroke="#000000" stroke-miterlimit="10" d="M-819.6,969.1h0.1c0.9,0,1.7-0.8,1.7-1.7v-34.8
				c0-0.9-0.8-1.7-1.7-1.7h-0.1c-0.9,0-1.7,0.8-1.7,1.7v34.8C-821.3,968.3-820.6,969.1-819.6,969.1z"/>
			<path fill="#FFFFFF" stroke="#000000" stroke-miterlimit="10" d="M-827.9,966.8h0.1c0.9,0,1.7-0.8,1.7-1.7v-29.9
				c0-0.9-0.8-1.7-1.7-1.7h-0.1c-0.9,0-1.7,0.8-1.7,1.7V965C-829.6,966-828.8,966.8-827.9,966.8z"/>
			<path fill="#FFFFFF" stroke="#000000" stroke-miterlimit="10" d="M-836.1,960.5h0.1c0.9,0,1.7-0.8,1.7-1.7v-19.4
				c0-0.9-0.8-1.7-1.7-1.7h-0.1c-0.9,0-1.7,0.8-1.7,1.7v19.4C-837.8,959.8-837,960.5-836.1,960.5z"/>
		</g>
		<g>
			<path fill="#FFFFFF" stroke="#000000" stroke-miterlimit="10" d="M-686.8,970h-0.1c-0.9,0-1.7-0.8-1.7-1.7v-37.4
				c0-0.9,0.8-1.7,1.7-1.7h0.1c0.9,0,1.7,0.8,1.7,1.7v37.4C-685.1,969.2-685.8,970-686.8,970z"/>
			<path fill="#FFFFFF" stroke="#000000" stroke-miterlimit="10" d="M-678.6,969.1h-0.1c-0.9,0-1.7-0.8-1.7-1.7v-34.8
				c0-0.9,0.8-1.7,1.7-1.7h0.1c0.9,0,1.7,0.8,1.7,1.7v34.8C-676.8,968.3-677.6,969.1-678.6,969.1z"/>
			<path fill="#FFFFFF" stroke="#000000" stroke-miterlimit="10" d="M-670.3,966.8h-0.1c-0.9,0-1.7-0.8-1.7-1.7v-29.9
				c0-0.9,0.8-1.7,1.7-1.7h0.1c0.9,0,1.7,0.8,1.7,1.7V965C-668.6,966-669.4,966.8-670.3,966.8z"/>
			<path fill="#FFFFFF" stroke="#000000" stroke-miterlimit="10" d="M-662.1,960.5h-0.1c-0.9,0-1.7-0.8-1.7-1.7v-19.4
				c0-0.9,0.8-1.7,1.7-1.7h0.1c0.9,0,1.7,0.8,1.7,1.7v19.4C-660.4,959.8-661.1,960.5-662.1,960.5z"/>
			<path fill="#FFFFFF" stroke="#000000" stroke-miterlimit="10" d="M-694.1,969.1h0.1c0.9,0,1.7-0.8,1.7-1.7v-34.8
				c0-0.9-0.8-1.7-1.7-1.7h-0.1c-0.9,0-1.7,0.8-1.7,1.7v34.8C-695.8,968.3-695.1,969.1-694.1,969.1z"/>
			<path fill="#FFFFFF" stroke="#000000" stroke-miterlimit="10" d="M-702.4,966.8h0.1c0.9,0,1.7-0.8,1.7-1.7v-29.9
				c0-0.9-0.8-1.7-1.7-1.7h-0.1c-0.9,0-1.7,0.8-1.7,1.7V965C-704.1,966-703.3,966.8-702.4,966.8z"/>
			<path fill="#FFFFFF" stroke="#000000" stroke-miterlimit="10" d="M-710.6,960.5h0.1c0.9,0,1.7-0.8,1.7-1.7v-19.4
				c0-0.9-0.8-1.7-1.7-1.7h-0.1c-0.9,0-1.7,0.8-1.7,1.7v19.4C-712.3,959.8-711.6,960.5-710.6,960.5z"/>
		</g>
		<g>
			<path fill="#FFFFFF" stroke="#000000" stroke-miterlimit="10" d="M-624.9,970h-0.1c-0.9,0-1.7-0.8-1.7-1.7v-37.4
				c0-0.9,0.8-1.7,1.7-1.7h0.1c0.9,0,1.7,0.8,1.7,1.7v37.4C-623.1,969.2-623.9,970-624.9,970z"/>
			<path fill="#FFFFFF" stroke="#000000" stroke-miterlimit="10" d="M-616.6,969.1h-0.1c-0.9,0-1.7-0.8-1.7-1.7v-34.8
				c0-0.9,0.8-1.7,1.7-1.7h0.1c0.9,0,1.7,0.8,1.7,1.7v34.8C-614.9,968.3-615.7,969.1-616.6,969.1z"/>
			<path fill="#FFFFFF" stroke="#000000" stroke-miterlimit="10" d="M-608.4,966.8h-0.1c-0.9,0-1.7-0.8-1.7-1.7v-29.9
				c0-0.9,0.8-1.7,1.7-1.7h0.1c0.9,0,1.7,0.8,1.7,1.7V965C-606.7,966-607.4,966.8-608.4,966.8z"/>
			<path fill="#FFFFFF" stroke="#000000" stroke-miterlimit="10" d="M-600.1,960.5h-0.1c-0.9,0-1.7-0.8-1.7-1.7v-19.4
				c0-0.9,0.8-1.7,1.7-1.7h0.1c0.9,0,1.7,0.8,1.7,1.7v19.4C-598.4,959.8-599.2,960.5-600.1,960.5z"/>
			<path fill="#FFFFFF" stroke="#000000" stroke-miterlimit="10" d="M-632.2,969.1h0.1c0.9,0,1.7-0.8,1.7-1.7v-34.8
				c0-0.9-0.8-1.7-1.7-1.7h-0.1c-0.9,0-1.7,0.8-1.7,1.7v34.8C-633.9,968.3-633.1,969.1-632.2,969.1z"/>
			<path fill="#FFFFFF" stroke="#000000" stroke-miterlimit="10" d="M-640.4,966.8h0.1c0.9,0,1.7-0.8,1.7-1.7v-29.9
				c0-0.9-0.8-1.7-1.7-1.7h-0.1c-0.9,0-1.7,0.8-1.7,1.7V965C-642.2,966-641.4,966.8-640.4,966.8z"/>
			<path fill="#FFFFFF" stroke="#000000" stroke-miterlimit="10" d="M-648.7,960.5h0.1c0.9,0,1.7-0.8,1.7-1.7v-19.4
				c0-0.9-0.8-1.7-1.7-1.7h-0.1c-0.9,0-1.7,0.8-1.7,1.7v19.4C-650.4,959.8-649.6,960.5-648.7,960.5z"/>
		</g>
		<g>
			<path fill="#FFFFFF" stroke="#000000" stroke-miterlimit="10" d="M-561.7,970h-0.1c-0.9,0-1.7-0.8-1.7-1.7v-37.4
				c0-0.9,0.8-1.7,1.7-1.7h0.1c0.9,0,1.7,0.8,1.7,1.7v37.4C-559.9,969.2-560.7,970-561.7,970z"/>
			<path fill="#FFFFFF" stroke="#000000" stroke-miterlimit="10" d="M-553.4,969.1h-0.1c-0.9,0-1.7-0.8-1.7-1.7v-34.8
				c0-0.9,0.8-1.7,1.7-1.7h0.1c0.9,0,1.7,0.8,1.7,1.7v34.8C-551.7,968.3-552.5,969.1-553.4,969.1z"/>
			<path fill="#FFFFFF" stroke="#000000" stroke-miterlimit="10" d="M-545.2,966.8h-0.1c-0.9,0-1.7-0.8-1.7-1.7v-29.9
				c0-0.9,0.8-1.7,1.7-1.7h0.1c0.9,0,1.7,0.8,1.7,1.7V965C-543.5,966-544.2,966.8-545.2,966.8z"/>
			<path fill="#FFFFFF" stroke="#000000" stroke-miterlimit="10" d="M-536.9,960.5h-0.1c-0.9,0-1.7-0.8-1.7-1.7v-19.4
				c0-0.9,0.8-1.7,1.7-1.7h0.1c0.9,0,1.7,0.8,1.7,1.7v19.4C-535.2,959.8-536,960.5-536.9,960.5z"/>
			<path fill="#FFFFFF" stroke="#000000" stroke-miterlimit="10" d="M-569,969.1h0.1c0.9,0,1.7-0.8,1.7-1.7v-34.8
				c0-0.9-0.8-1.7-1.7-1.7h-0.1c-0.9,0-1.7,0.8-1.7,1.7v34.8C-570.7,968.3-569.9,969.1-569,969.1z"/>
			<path fill="#FFFFFF" stroke="#000000" stroke-miterlimit="10" d="M-577.2,966.8h0.1c0.9,0,1.7-0.8,1.7-1.7v-29.9
				c0-0.9-0.8-1.7-1.7-1.7h-0.1c-0.9,0-1.7,0.8-1.7,1.7V965C-578.9,966-578.2,966.8-577.2,966.8z"/>
			<path fill="#FFFFFF" stroke="#000000" stroke-miterlimit="10" d="M-585.5,960.5h0.1c0.9,0,1.7-0.8,1.7-1.7v-19.4
				c0-0.9-0.8-1.7-1.7-1.7h-0.1c-0.9,0-1.7,0.8-1.7,1.7v19.4C-587.2,959.8-586.4,960.5-585.5,960.5z"/>
		</g>
		<g>
			<path fill="#FFFFFF" stroke="#000000" stroke-miterlimit="10" d="M-499.1,970h-0.1c-0.9,0-1.7-0.8-1.7-1.7v-37.4
				c0-0.9,0.8-1.7,1.7-1.7h0.1c0.9,0,1.7,0.8,1.7,1.7v37.4C-497.4,969.2-498.1,970-499.1,970z"/>
			<path fill="#EE4085" stroke="#000000" stroke-miterlimit="10" d="M-490.8,969.1h-0.1c-0.9,0-1.7-0.8-1.7-1.7v-34.8
				c0-0.9,0.8-1.7,1.7-1.7h0.1c0.9,0,1.7,0.8,1.7,1.7v34.8C-489.1,968.3-489.9,969.1-490.8,969.1z"/>
			<path fill="#FFFFFF" stroke="#000000" stroke-miterlimit="10" d="M-482.6,966.8h-0.1c-0.9,0-1.7-0.8-1.7-1.7v-29.9
				c0-0.9,0.8-1.7,1.7-1.7h0.1c0.9,0,1.7,0.8,1.7,1.7V965C-480.9,966-481.7,966.8-482.6,966.8z"/>
			<path fill="#FFFFFF" stroke="#000000" stroke-miterlimit="10" d="M-474.4,960.5h-0.1c-0.9,0-1.7-0.8-1.7-1.7v-19.4
				c0-0.9,0.8-1.7,1.7-1.7h0.1c0.9,0,1.7,0.8,1.7,1.7v19.4C-472.6,959.8-473.4,960.5-474.4,960.5z"/>
			<path fill="#FFFFFF" stroke="#000000" stroke-miterlimit="10" d="M-506.4,969.1h0.1c0.9,0,1.7-0.8,1.7-1.7v-34.8
				c0-0.9-0.8-1.7-1.7-1.7h-0.1c-0.9,0-1.7,0.8-1.7,1.7v34.8C-508.1,968.3-507.4,969.1-506.4,969.1z"/>
			<path fill="#FFFFFF" stroke="#000000" stroke-miterlimit="10" d="M-514.7,966.8h0.1c0.9,0,1.7-0.8,1.7-1.7v-29.9
				c0-0.9-0.8-1.7-1.7-1.7h-0.1c-0.9,0-1.7,0.8-1.7,1.7V965C-516.4,966-515.6,966.8-514.7,966.8z"/>
			<path fill="#FFFFFF" stroke="#000000" stroke-miterlimit="10" d="M-522.9,960.5h0.1c0.9,0,1.7-0.8,1.7-1.7v-19.4
				c0-0.9-0.8-1.7-1.7-1.7h-0.1c-0.9,0-1.7,0.8-1.7,1.7v19.4C-524.6,959.8-523.8,960.5-522.9,960.5z"/>
		</g>
		<g>
			<path fill="#FFFFFF" stroke="#000000" stroke-miterlimit="10" d="M-437,970h-0.1c-0.9,0-1.7-0.8-1.7-1.7v-37.4
				c0-0.9,0.8-1.7,1.7-1.7h0.1c0.9,0,1.7,0.8,1.7,1.7v37.4C-435.3,969.2-436.1,970-437,970z"/>
			<path fill="#FFFFFF" stroke="#000000" stroke-miterlimit="10" d="M-428.8,969.1h-0.1c-0.9,0-1.7-0.8-1.7-1.7v-34.8
				c0-0.9,0.8-1.7,1.7-1.7h0.1c0.9,0,1.7,0.8,1.7,1.7v34.8C-427.1,968.3-427.8,969.1-428.8,969.1z"/>
			<path fill="#FFFFFF" stroke="#000000" stroke-miterlimit="10" d="M-420.5,966.8h-0.1c-0.9,0-1.7-0.8-1.7-1.7v-29.9
				c0-0.9,0.8-1.7,1.7-1.7h0.1c0.9,0,1.7,0.8,1.7,1.7V965C-418.8,966-419.6,966.8-420.5,966.8z"/>
			<path fill="#FFFFFF" stroke="#000000" stroke-miterlimit="10" d="M-412.3,960.5h-0.1c-0.9,0-1.7-0.8-1.7-1.7v-19.4
				c0-0.9,0.8-1.7,1.7-1.7h0.1c0.9,0,1.7,0.8,1.7,1.7v19.4C-410.6,959.8-411.3,960.5-412.3,960.5z"/>
			<path fill="#FFFFFF" stroke="#000000" stroke-miterlimit="10" d="M-444.4,969.1h0.1c0.9,0,1.7-0.8,1.7-1.7v-34.8
				c0-0.9-0.8-1.7-1.7-1.7h-0.1c-0.9,0-1.7,0.8-1.7,1.7v34.8C-446.1,968.3-445.3,969.1-444.4,969.1z"/>
			<path fill="#FFFFFF" stroke="#000000" stroke-miterlimit="10" d="M-452.6,966.8h0.1c0.9,0,1.7-0.8,1.7-1.7v-29.9
				c0-0.9-0.8-1.7-1.7-1.7h-0.1c-0.9,0-1.7,0.8-1.7,1.7V965C-454.3,966-453.5,966.8-452.6,966.8z"/>
			<path fill="#FFFFFF" stroke="#000000" stroke-miterlimit="10" d="M-460.8,960.5h0.1c0.9,0,1.7-0.8,1.7-1.7v-19.4
				c0-0.9-0.8-1.7-1.7-1.7h-0.1c-0.9,0-1.7,0.8-1.7,1.7v19.4C-462.6,959.8-461.8,960.5-460.8,960.5z"/>
		</g>
		<path fill="#FFFFFF" stroke="#000000" stroke-miterlimit="10" d="M-433.3,928.8c-21.7,0.7-30.9,21.1-30.9,21.1
			c-8.8,19.3-31.7,20.1-31.7,20.1c-21.7-0.7-30.9-21.1-30.9-21.1c-8.8-19.3-31.7-20.1-31.7-20.1c-21.7,0.7-30.9,21.1-30.9,21.1
			c-8.8,19.3-31.7,20.1-31.7,20.1c-21.7-0.7-30.9-21.1-30.9-21.1c-8.8-19.3-31.7-20.1-31.7-20.1c-21.7,0.7-30.9,21.1-30.9,21.1
			c-8.8,19.3-31.7,20.1-31.7,20.1c-21.7-0.7-30.9-21.1-30.9-21.1c-8.8-19.3-31.7-20.1-31.7-20.1h-6.5c0,0,22.9,0.8,31.7,20.1
			c0,0,9.2,20.3,30.9,21.1c0,0,22.9-0.8,31.7-20.1c0,0,9.2-20.3,30.9-21.1c0,0,22.9,0.8,31.7,20.1c0,0,9.2,20.3,30.9,21.1
			c0,0,22.9-0.8,31.7-20.1c0,0,9.2-20.3,30.9-21.1c0,0,22.9,0.8,31.7,20.1c0,0,9.2,20.3,30.9,21.1c0,0,22.9-0.8,31.7-20.1
			c0,0,9.2-20.3,30.9-21.1"/>
		<g>
			<path fill="#FFFFFF" stroke="#000000" stroke-miterlimit="10" d="M-433.3,970c-21.7-0.7-30.9-21.1-30.9-21.1
				c-8.8-19.3-31.7-20.1-31.7-20.1c-21.7,0.7-30.9,21.1-30.9,21.1c-8.8,19.3-31.7,20.1-31.7,20.1c-21.7-0.7-30.9-21.1-30.9-21.1
				c-8.8-19.3-31.7-20.1-31.7-20.1c-21.7,0.7-30.9,21.1-30.9,21.1c-8.8,19.3-31.7,20.1-31.7,20.1c-21.7-0.7-30.9-21.1-30.9-21.1
				c-8.8-19.3-31.7-20.1-31.7-20.1c-21.7,0.7-30.9,21.1-30.9,21.1C-786.1,969.2-809,970-809,970h-6.5c0,0,22.9-0.8,31.7-20.1
				c0,0,9.2-20.3,30.9-21.1c0,0,22.9,0.8,31.7,20.1c0,0,9.2,20.3,30.9,21.1c0,0,22.9-0.8,31.7-20.1c0,0,9.2-20.3,30.9-21.1
				c0,0,22.9,0.8,31.7,20.1c0,0,9.2,20.3,30.9,21.1c0,0,22.9-0.8,31.7-20.1c0,0,9.2-20.3,30.9-21.1c0,0,22.9,0.8,31.7,20.1
				c0,0,9.2,20.3,30.9,21.1"/>
		</g>
	</g>
	<g>
		<path d="M106.9,142.5h27.3v34.1c-7.4,2.5-15.6,3.8-24.4,3.8c-9.7,0-17.3-2.8-22.6-8.5c-5.3-5.7-8-13.7-8-24.2
			c0-10.2,2.9-18.2,8.7-23.8c5.8-5.7,14-8.5,24.5-8.5c4,0,7.7,0.4,11.3,1.1c3.5,0.8,6.6,1.7,9.2,2.9l-5.4,13.4
			c-4.6-2.2-9.6-3.4-15-3.4c-5,0-8.8,1.6-11.6,4.9c-2.7,3.2-4.1,7.9-4.1,13.9c0,5.9,1.2,10.4,3.7,13.5c2.5,3.1,6,4.6,10.7,4.6
			c2.5,0,4.9-0.2,7-0.7v-9.9h-11.3V142.5z"/>
		<path d="M184.6,179.6h-37.5v-63.2h37.5V130h-20.5v9.9h18.9v13.7h-18.9v11.9h20.5V179.6z"/>
		<path d="M255.9,179.6h-22.4L210.4,135H210c0.5,7,0.8,12.4,0.8,16v28.5h-15.1v-63.2H218l23,43.9h0.3c-0.4-6.4-0.6-11.5-0.6-15.4
			v-28.6h15.2V179.6z"/>
		<path d="M307.1,179.6h-37.5v-63.2h37.5V130h-20.5v9.9h18.9v13.7h-18.9v11.9h20.5V179.6z"/>
		<path d="M346.1,179.6H329v-49.3h-15.4v-14h47.9v14h-15.4V179.6z"/>
		<path d="M370.5,179.6v-63.2h17.2v63.2H370.5z"/>
		<path d="M429.5,129.4c-4.1,0-7.2,1.7-9.5,5c-2.3,3.3-3.4,7.9-3.4,13.8c0,12.2,4.6,18.3,13.9,18.3c2.8,0,5.5-0.4,8.1-1.2
			c2.6-0.8,5.3-1.7,7.9-2.8v14.4c-5.3,2.3-11.2,3.5-17.9,3.5c-9.5,0-16.9-2.8-21.9-8.3c-5.1-5.5-7.6-13.5-7.6-24
			c0-6.5,1.2-12.3,3.7-17.3c2.5-5,6-8.8,10.6-11.4c4.6-2.7,10.1-4,16.3-4c6.8,0,13.4,1.5,19.6,4.5l-5.2,13.5c-2.3-1.1-4.7-2-7-2.8
			C434.7,129.8,432.2,129.4,429.5,129.4z"/>
		<path d="M510,129.4c-4.1,0-7.2,1.7-9.5,5c-2.3,3.3-3.4,7.9-3.4,13.8c0,12.2,4.6,18.3,13.9,18.3c2.8,0,5.5-0.4,8.1-1.2
			c2.6-0.8,5.3-1.7,7.9-2.8v14.4c-5.3,2.3-11.2,3.5-17.9,3.5c-9.5,0-16.9-2.8-21.9-8.3c-5.1-5.5-7.6-13.5-7.6-24
			c0-6.5,1.2-12.3,3.7-17.3c2.5-5,6-8.8,10.6-11.4c4.6-2.7,10.1-4,16.3-4c6.8,0,13.4,1.5,19.6,4.5l-5.2,13.5c-2.3-1.1-4.7-2-7-2.8
			C515.2,129.8,512.7,129.4,510,129.4z"/>
		<path d="M593.5,179.6h-17.2v-25.8h-19.9v25.8h-17.2v-63.2h17.2v23.4h19.9v-23.4h17.2V179.6z"/>
		<path d="M646,179.6l-3.1-11.9h-20.5l-3.2,11.9h-18.8l20.6-63.5h22.8l20.9,63.5H646z M639.3,153.7l-2.7-10.4
			c-0.6-2.3-1.4-5.3-2.3-9c-0.9-3.7-1.5-6.3-1.8-7.9c-0.3,1.5-0.8,3.9-1.5,7.3c-0.8,3.4-2.5,10-5.1,19.9H639.3z"/>
		<path d="M731.7,179.6h-22.4L686.2,135h-0.4c0.5,7,0.8,12.4,0.8,16v28.5h-15.1v-63.2h22.3l23,43.9h0.3c-0.4-6.4-0.6-11.5-0.6-15.4
			v-28.6h15.2V179.6z"/>
		<path d="M770.8,142.5h27.3v34.1c-7.4,2.5-15.6,3.8-24.4,3.8c-9.7,0-17.3-2.8-22.6-8.5c-5.3-5.7-8-13.7-8-24.2
			c0-10.2,2.9-18.2,8.7-23.8c5.8-5.7,14-8.5,24.5-8.5c4,0,7.7,0.4,11.3,1.1c3.5,0.8,6.6,1.7,9.2,2.9l-5.4,13.4
			c-4.6-2.2-9.6-3.4-15-3.4c-5,0-8.8,1.6-11.6,4.9c-2.7,3.2-4.1,7.9-4.1,13.9c0,5.9,1.2,10.4,3.7,13.5c2.5,3.1,6,4.6,10.7,4.6
			c2.5,0,4.9-0.2,7-0.7v-9.9h-11.3V142.5z"/>
		<path d="M848.5,179.6h-37.5v-63.2h37.5V130H828v9.9H847v13.7H828v11.9h20.5V179.6z"/>
		<path d="M910.7,129.4c-4.1,0-7.2,1.7-9.5,5c-2.3,3.3-3.4,7.9-3.4,13.8c0,12.2,4.6,18.3,13.9,18.3c2.8,0,5.5-0.4,8.1-1.2
			c2.6-0.8,5.3-1.7,7.9-2.8v14.4c-5.3,2.3-11.2,3.5-17.9,3.5c-9.5,0-16.9-2.8-21.9-8.3c-5.1-5.5-7.6-13.5-7.6-24
			c0-6.5,1.2-12.3,3.7-17.3c2.5-5,6-8.8,10.6-11.4c4.6-2.7,10.1-4,16.3-4c6.8,0,13.4,1.5,19.6,4.5l-5.2,13.5c-2.3-1.1-4.7-2-7-2.8
			C915.9,129.8,913.4,129.4,910.7,129.4z"/>
		<path d="M978.8,179.6l-3.1-11.9h-20.5l-3.2,11.9h-18.8l20.6-63.5h22.8l20.9,63.5H978.8z M972.2,153.7l-2.7-10.4
			c-0.6-2.3-1.4-5.3-2.3-9c-0.9-3.7-1.5-6.3-1.8-7.9c-0.3,1.5-0.8,3.9-1.5,7.3c-0.8,3.4-2.5,10-5.1,19.9H972.2z"/>
		<path d="M1064.6,179.6h-22.4l-23.1-44.5h-0.4c0.5,7,0.8,12.4,0.8,16v28.5h-15.1v-63.2h22.3l23,43.9h0.3
			c-0.4-6.4-0.6-11.5-0.6-15.4v-28.6h15.2V179.6z"/>
		<path d="M1129.1,179.6h-17.1v-49.3h-15.4v-14h47.9v14h-15.4V179.6z"/>
		<path d="M1192.4,179.6l-3.1-11.9h-20.5l-3.2,11.9h-18.8l20.6-63.5h22.8l20.9,63.5H1192.4z M1185.7,153.7l-2.7-10.4
			c-0.6-2.3-1.4-5.3-2.3-9c-0.9-3.7-1.5-6.3-1.8-7.9c-0.3,1.5-0.8,3.9-1.5,7.3c-0.8,3.4-2.5,10-5.1,19.9H1185.7z"/>
		<path d="M1271.9,179.6h-19.3l-12.5-24.2l-5.1,3v21.1h-17.2v-63.2h17.2v27.5c0.9-1.7,2.6-4.4,5.2-8.1l13.3-19.4h18.7l-19.9,28.3
			L1271.9,179.6z"/>
		<path d="M1316.3,179.6h-37.5v-63.2h37.5V130h-20.5v9.9h18.9v13.7h-18.9v11.9h20.5V179.6z"/>
		<path fill="#EE4085" d="M1390.1,179.6h-19.8v-38.3c0-4.6,0.1-8.9,0.3-12.8c-1.2,1.5-2.7,3-4.5,4.6l-8.2,6.8l-10.1-12.5l24.8-20.2
			h17.6V179.6z"/>
		<path fill="#EE4085" d="M1432.7,106.3c7.6,0,13.5,1.5,17.8,4.6c4.2,3.1,6.4,7.4,6.4,13c0,3.8-1,7.2-3,10.1c-2,2.9-5.1,5.4-9.5,7.5
			c5.3,3,9.1,6.1,11.3,9.1c2.2,3,3.3,6.3,3.3,9.8c0,6.4-2.3,11.4-7,14.9c-4.6,3.5-11.1,5.3-19.5,5.3c-8.5,0-15-1.7-19.5-5.2
			c-4.5-3.4-6.8-8.4-6.8-14.9c0-4.2,1-7.8,3-10.7c2-2.9,5.4-5.6,10.1-8c-3.8-2.6-6.6-5.3-8.4-8.3c-1.8-2.9-2.6-6.2-2.6-9.7
			c0-5.5,2.2-9.8,6.5-12.9C1419.1,107.8,1425.1,106.3,1432.7,106.3z M1424.1,159.7c0,2,0.7,3.7,2.2,4.9c1.4,1.2,3.5,1.9,6,1.9
			c5.8,0,8.7-2.1,8.7-6.4c0-1.6-0.6-3.2-1.9-4.8c-1.3-1.6-3.5-3.3-6.8-5.3c-2.9,1.5-5,3.1-6.3,4.7
			C1424.7,156.3,1424.1,158,1424.1,159.7z M1432.6,120.3c-1.7,0-3.1,0.5-4.3,1.5c-1.2,1-1.7,2.2-1.7,3.8c0,2.8,1.9,5.3,5.8,7.5
			c2.3-1.4,3.9-2.6,4.8-3.7c0.9-1.1,1.3-2.4,1.3-3.8c0-1.6-0.6-2.8-1.7-3.8C1435.6,120.8,1434.2,120.3,1432.6,120.3z"/>
		<path fill="#EE4085" d="M1517.9,143.5c0,12.8-2.1,22.2-6.4,28.1c-4.3,5.9-10.8,8.9-19.7,8.9c-8.6,0-15.1-3.1-19.5-9.3
			s-6.6-15.4-6.6-27.7c0-12.9,2.1-22.3,6.4-28.3c4.3-6,10.8-9,19.7-9c8.6,0,15.1,3.1,19.5,9.4
			C1515.7,121.9,1517.9,131.2,1517.9,143.5z M1485.1,143.5c0,8.2,0.5,13.8,1.5,16.9c1,3.1,2.7,4.6,5.1,4.6c2.4,0,4.2-1.6,5.2-4.7
			c1-3.2,1.5-8.7,1.5-16.7c0-8-0.5-13.6-1.5-16.8c-1-3.2-2.7-4.8-5.1-4.8s-4.1,1.5-5.1,4.6C1485.7,129.6,1485.1,135.3,1485.1,143.5z
			"/>
		<path fill="#EE4085" d="M1577.2,143.5c0,12.8-2.1,22.2-6.4,28.1c-4.3,5.9-10.8,8.9-19.7,8.9c-8.6,0-15.1-3.1-19.5-9.3
			s-6.6-15.4-6.6-27.7c0-12.9,2.1-22.3,6.4-28.3c4.3-6,10.8-9,19.7-9c8.6,0,15.1,3.1,19.5,9.4C1575,121.9,1577.2,131.2,1577.2,143.5
			z M1544.5,143.5c0,8.2,0.5,13.8,1.5,16.9c1,3.1,2.7,4.6,5.1,4.6c2.4,0,4.2-1.6,5.2-4.7c1-3.2,1.5-8.7,1.5-16.7
			c0-8-0.5-13.6-1.5-16.8c-1-3.2-2.7-4.8-5.1-4.8s-4.1,1.5-5.1,4.6C1545,129.6,1544.5,135.3,1544.5,143.5z"/>
		<path d="M1636,142.5h27.3v34.1c-7.4,2.5-15.6,3.8-24.4,3.8c-9.7,0-17.3-2.8-22.6-8.5c-5.3-5.7-8-13.7-8-24.2
			c0-10.2,2.9-18.2,8.7-23.8c5.8-5.7,14-8.5,24.5-8.5c4,0,7.7,0.4,11.3,1.1c3.5,0.8,6.6,1.7,9.2,2.9l-5.4,13.4
			c-4.6-2.2-9.6-3.4-15-3.4c-5,0-8.8,1.6-11.6,4.9c-2.7,3.2-4.1,7.9-4.1,13.9c0,5.9,1.2,10.4,3.7,13.5c2.5,3.1,6,4.6,10.7,4.6
			c2.5,0,4.9-0.2,7-0.7v-9.9H1636V142.5z"/>
		<path d="M1713.7,179.6h-37.5v-63.2h37.5V130h-20.5v9.9h18.9v13.7h-18.9v11.9h20.5V179.6z"/>
		<path d="M1785,179.6h-22.4l-23.1-44.5h-0.4c0.5,7,0.8,12.4,0.8,16v28.5h-15.1v-63.2h22.3l23,43.9h0.3c-0.4-6.4-0.6-11.5-0.6-15.4
			v-28.6h15.2V179.6z"/>
		<path d="M1836.2,179.6h-37.5v-63.2h37.5V130h-20.5v9.9h18.9v13.7h-18.9v11.9h20.5V179.6z"/>
		<path d="M1864.4,156.5v23h-17.1v-63.2h20.7c17.2,0,25.8,6.2,25.8,18.7c0,7.3-3.6,13-10.7,17l18.4,27.6h-19.4l-13.4-23H1864.4z
			 M1864.4,143.7h3.2c6,0,9-2.6,9-7.9c0-4.4-2.9-6.5-8.8-6.5h-3.4V143.7z"/>
		<path d="M1946,179.6l-3.1-11.9h-20.5l-3.2,11.9h-18.8l20.6-63.5h22.8l20.9,63.5H1946z M1939.4,153.7l-2.7-10.4
			c-0.6-2.3-1.4-5.3-2.3-9c-0.9-3.7-1.5-6.3-1.8-7.9c-0.3,1.5-0.8,3.9-1.5,7.3s-2.5,10-5.1,19.9H1939.4z"/>
		<path d="M1999.5,179.6h-17.1v-49.3h-15.4v-14h47.9v14h-15.4V179.6z"/>
		<path d="M2023.9,179.6v-63.2h17.2v63.2H2023.9z"/>
		<path d="M2113.9,147.9c0,10.6-2.6,18.7-7.8,24.3s-12.9,8.3-22.9,8.3c-9.9,0-17.5-2.8-22.8-8.3c-5.3-5.6-7.9-13.7-7.9-24.3
			c0-10.5,2.6-18.6,7.9-24.1c5.3-5.6,12.9-8.3,22.9-8.3c10.1,0,17.7,2.8,22.9,8.3C2111.3,129.1,2113.9,137.2,2113.9,147.9z
			 M2070.4,147.9c0,12.2,4.3,18.3,12.8,18.3c4.3,0,7.5-1.5,9.6-4.5c2.1-3,3.1-7.6,3.1-13.9c0-6.3-1.1-11-3.2-14
			c-2.1-3-5.3-4.5-9.5-4.5C2074.7,129.3,2070.4,135.5,2070.4,147.9z"/>
		<path d="M2185.5,179.6h-22.4L2140,135h-0.4c0.5,7,0.8,12.4,0.8,16v28.5h-15.1v-63.2h22.3l23,43.9h0.3c-0.4-6.4-0.6-11.5-0.6-15.4
			v-28.6h15.2V179.6z"/>
		<path d="M2240.5,160.4c0,3.9-1,7.4-3,10.4c-2,3-4.9,5.4-8.6,7.1c-3.7,1.7-8.1,2.5-13.2,2.5c-4.2,0-7.7-0.3-10.6-0.9
			c-2.9-0.6-5.8-1.6-8.9-3.1v-15.2c3.3,1.7,6.6,3,10.2,3.9c3.5,0.9,6.7,1.4,9.7,1.4c2.5,0,4.4-0.4,5.6-1.3c1.2-0.9,1.8-2,1.8-3.4
			c0-0.9-0.2-1.6-0.7-2.3s-1.2-1.3-2.3-2c-1.1-0.7-3.9-2-8.4-4.1c-4.1-1.9-7.2-3.7-9.3-5.4s-3.6-3.8-4.6-6.1c-1-2.3-1.5-5-1.5-8.1
			c0-5.8,2.1-10.4,6.4-13.6c4.2-3.3,10.1-4.9,17.5-4.9c6.5,0,13.2,1.5,20,4.5l-5.2,13.2c-5.9-2.7-11-4.1-15.3-4.1
			c-2.2,0-3.8,0.4-4.8,1.2c-1,0.8-1.5,1.7-1.5,2.9c0,1.2,0.6,2.4,1.9,3.3c1.3,1,4.8,2.8,10.4,5.4c5.4,2.5,9.2,5.1,11.4,7.9
			C2239.5,152.5,2240.5,156.1,2240.5,160.4z"/>
	</g>
	<g>
		<line fill="none" stroke="#000000" stroke-width="5" stroke-miterlimit="10" x1="250.1" y1="688.4" x2="250.1" y2="745.3"/>
		<line fill="none" stroke="#000000" stroke-width="5" stroke-miterlimit="10" x1="357.6" y1="688.4" x2="357.6" y2="745.3"/>
		<line fill="none" stroke="#000000" stroke-width="5" stroke-miterlimit="10" x1="471.5" y1="688.4" x2="471.5" y2="745.3"/>
		<line fill="none" stroke="#000000" stroke-width="5" stroke-miterlimit="10" x1="585.4" y1="688.4" x2="585.4" y2="745.3"/>
		<line fill="none" stroke="#000000" stroke-width="5" stroke-miterlimit="10" x1="699.3" y1="688.4" x2="699.3" y2="745.3"/>
		<line fill="none" stroke="#000000" stroke-width="5" stroke-miterlimit="10" x1="813.2" y1="688.4" x2="813.2" y2="745.3"/>
		<line fill="none" stroke="#000000" stroke-width="5" stroke-miterlimit="10" x1="927" y1="688.4" x2="927" y2="745.3"/>
		<line fill="none" stroke="#000000" stroke-width="5" stroke-miterlimit="10" x1="1047.3" y1="688.4" x2="1047.3" y2="745.3"/>
		<line fill="none" stroke="#000000" stroke-width="5" stroke-miterlimit="10" x1="1161.1" y1="688.4" x2="1161.1" y2="745.3"/>
		<line fill="none" stroke="#000000" stroke-width="5" stroke-miterlimit="10" x1="1268.7" y1="688.4" x2="1268.7" y2="745.3"/>
		<line fill="none" stroke="#000000" stroke-width="5" stroke-miterlimit="10" x1="1388.9" y1="688.4" x2="1388.9" y2="745.3"/>
		<line fill="none" stroke="#000000" stroke-width="5" stroke-miterlimit="10" x1="1502.8" y1="688.4" x2="1502.8" y2="745.3"/>
		<line fill="none" stroke="#000000" stroke-width="5" stroke-miterlimit="10" x1="1610.4" y1="688.4" x2="1610.4" y2="745.3"/>
		<line fill="none" stroke="#000000" stroke-width="5" stroke-miterlimit="10" x1="1724.2" y1="688.4" x2="1724.2" y2="745.3"/>
		<line fill="none" stroke="#000000" stroke-width="5" stroke-miterlimit="10" x1="1844.5" y1="688.4" x2="1844.5" y2="745.3"/>
		<line fill="none" stroke="#000000" stroke-width="5" stroke-miterlimit="10" x1="1952" y1="688.4" x2="1952" y2="745.3"/>
		<line fill="none" stroke="#000000" stroke-width="5" stroke-miterlimit="10" x1="2063.8" y1="688.4" x2="2063.8" y2="745.3"/>
		<polyline fill="none" stroke="#000000" stroke-width="5" stroke-miterlimit="10" points="2167.1,688.4 2167.1,745.3 144.6,745.3 
			144.6,688.4 		"/>
	</g>
	<g>
		<g>
			<path d="M160.2,792.3c0,7.9-1.3,13.7-3.9,17.5c-2.6,3.8-6.6,5.7-11.9,5.7c-5.2,0-9.1-2-11.8-5.9c-2.6-3.9-4-9.7-4-17.3
				c0-8,1.3-13.8,3.9-17.6c2.6-3.8,6.5-5.7,11.9-5.7c5.2,0,9.1,2,11.8,5.9C158.9,778.9,160.2,784.7,160.2,792.3z M138.1,792.3
				c0,5.5,0.5,9.5,1.4,11.9c1,2.4,2.6,3.6,4.8,3.6c2.2,0,3.8-1.2,4.8-3.6c1-2.4,1.5-6.4,1.5-11.9c0-5.5-0.5-9.5-1.5-11.9
				c-1-2.4-2.6-3.6-4.8-3.6c-2.2,0-3.9,1.2-4.8,3.6C138.6,782.8,138.1,786.8,138.1,792.3z"/>
		</g>
	</g>
	<g>
		<g>
			<path d="M442.4,779.9c0,2.8-0.9,5.2-2.6,7.2c-1.7,2-4.1,3.3-7.2,4.1v0.2c3.6,0.5,6.4,1.6,8.3,3.3c1.9,1.8,2.8,4.1,2.8,7.1
				c0,4.3-1.6,7.7-4.7,10.1c-3.2,2.4-7.7,3.6-13.5,3.6c-4.9,0-9.2-0.8-13-2.4V805c1.8,0.9,3.7,1.6,5.8,2.2c2.1,0.6,4.2,0.8,6.2,0.8
				c3.2,0,5.5-0.5,7-1.6c1.5-1.1,2.3-2.8,2.3-5.2c0-2.1-0.9-3.6-2.6-4.5c-1.7-0.9-4.5-1.3-8.3-1.3h-3.4V788h3.5
				c3.5,0,6.1-0.5,7.7-1.4c1.6-0.9,2.4-2.5,2.4-4.7c0-3.4-2.1-5.1-6.4-5.1c-1.5,0-3,0.2-4.5,0.7s-3.2,1.3-5.1,2.6l-4.4-6.6
				c4.1-3,9-4.4,14.7-4.4c4.7,0,8.4,0.9,11.1,2.8C441,773.8,442.4,776.5,442.4,779.9z"/>
			<path d="M480,792.3c0,7.9-1.3,13.7-3.9,17.5c-2.6,3.8-6.6,5.7-11.9,5.7c-5.2,0-9.1-2-11.8-5.9c-2.6-3.9-4-9.7-4-17.3
				c0-8,1.3-13.8,3.9-17.6c2.6-3.8,6.5-5.7,11.9-5.7c5.2,0,9.1,2,11.8,5.9C478.7,778.9,480,784.7,480,792.3z M457.9,792.3
				c0,5.5,0.5,9.5,1.4,11.9c1,2.4,2.6,3.6,4.8,3.6c2.2,0,3.8-1.2,4.8-3.6c1-2.4,1.5-6.4,1.5-11.9c0-5.5-0.5-9.5-1.5-11.9
				c-1-2.4-2.6-3.6-4.8-3.6c-2.2,0-3.9,1.2-4.8,3.6C458.4,782.8,457.9,786.8,457.9,792.3z"/>
			<path d="M516.1,792.3c0,7.9-1.3,13.7-3.9,17.5c-2.6,3.8-6.6,5.7-11.9,5.7c-5.2,0-9.1-2-11.8-5.9c-2.6-3.9-4-9.7-4-17.3
				c0-8,1.3-13.8,3.9-17.6c2.6-3.8,6.5-5.7,11.9-5.7c5.2,0,9.1,2,11.8,5.9C514.8,778.9,516.1,784.7,516.1,792.3z M494,792.3
				c0,5.5,0.5,9.5,1.4,11.9c1,2.4,2.6,3.6,4.8,3.6c2.2,0,3.8-1.2,4.8-3.6c1-2.4,1.5-6.4,1.5-11.9c0-5.5-0.5-9.5-1.5-11.9
				c-1-2.4-2.6-3.6-4.8-3.6c-2.2,0-3.9,1.2-4.8,3.6C494.5,782.8,494,786.8,494,792.3z"/>
		</g>
	</g>
	<g>
		<g>
			<path d="M760.2,795.7c0-8.9,1.9-15.6,5.7-20c3.8-4.4,9.4-6.5,17-6.5c2.6,0,4.6,0.2,6.1,0.5v7.6c-1.8-0.4-3.6-0.6-5.4-0.6
				c-3.3,0-5.9,0.5-8,1.5c-2.1,1-3.6,2.5-4.6,4.4c-1,1.9-1.6,4.7-1.8,8.2h0.4c2-3.5,5.3-5.3,9.8-5.3c4,0,7.2,1.3,9.5,3.8
				s3.4,6,3.4,10.5c0,4.8-1.4,8.6-4.1,11.4c-2.7,2.8-6.5,4.2-11.3,4.2c-3.3,0-6.2-0.8-8.7-2.3c-2.5-1.5-4.4-3.8-5.7-6.8
				C760.9,803.5,760.2,799.9,760.2,795.7z M776.5,807.9c2,0,3.6-0.7,4.7-2.1c1.1-1.4,1.6-3.3,1.6-5.9c0-2.2-0.5-3.9-1.5-5.2
				s-2.6-1.9-4.6-1.9c-1.9,0-3.6,0.6-5,1.9c-1.4,1.3-2.1,2.7-2.1,4.4c0,2.5,0.6,4.5,1.9,6.2C772.9,807.1,774.6,807.9,776.5,807.9z"
				/>
			<path d="M828,792.3c0,7.9-1.3,13.7-3.9,17.5c-2.6,3.8-6.6,5.7-11.9,5.7c-5.2,0-9.1-2-11.8-5.9c-2.6-3.9-4-9.7-4-17.3
				c0-8,1.3-13.8,3.9-17.6c2.6-3.8,6.5-5.7,11.9-5.7c5.2,0,9.1,2,11.8,5.9C826.6,778.9,828,784.7,828,792.3z M805.9,792.3
				c0,5.5,0.5,9.5,1.4,11.9c1,2.4,2.6,3.6,4.8,3.6c2.2,0,3.8-1.2,4.8-3.6c1-2.4,1.5-6.4,1.5-11.9c0-5.5-0.5-9.5-1.5-11.9
				c-1-2.4-2.6-3.6-4.8-3.6c-2.2,0-3.9,1.2-4.8,3.6C806.4,782.8,805.9,786.8,805.9,792.3z"/>
			<path d="M864.1,792.3c0,7.9-1.3,13.7-3.9,17.5c-2.6,3.8-6.6,5.7-11.9,5.7c-5.2,0-9.1-2-11.8-5.9c-2.6-3.9-4-9.7-4-17.3
				c0-8,1.3-13.8,3.9-17.6c2.6-3.8,6.5-5.7,11.9-5.7c5.2,0,9.1,2,11.8,5.9C862.8,778.9,864.1,784.7,864.1,792.3z M842,792.3
				c0,5.5,0.5,9.5,1.4,11.9c1,2.4,2.6,3.6,4.8,3.6c2.2,0,3.8-1.2,4.8-3.6c1-2.4,1.5-6.4,1.5-11.9c0-5.5-0.5-9.5-1.5-11.9
				c-1-2.4-2.6-3.6-4.8-3.6c-2.2,0-3.9,1.2-4.8,3.6C842.5,782.8,842,786.8,842,792.3z"/>
		</g>
	</g>
	<g>
		<g>
			<path d="M1139.9,789c0,8.9-1.9,15.5-5.6,19.9c-3.7,4.4-9.4,6.6-17,6.6c-2.7,0-4.7-0.1-6.1-0.4v-7.7c1.7,0.4,3.5,0.6,5.4,0.6
				c3.2,0,5.8-0.5,7.9-1.4s3.6-2.4,4.7-4.4c1.1-2,1.7-4.8,1.9-8.3h-0.4c-1.2,1.9-2.6,3.3-4.1,4.1c-1.6,0.8-3.5,1.2-5.9,1.2
				c-3.9,0-7-1.3-9.3-3.8s-3.4-6-3.4-10.5c0-4.8,1.4-8.7,4.1-11.5c2.7-2.8,6.5-4.2,11.2-4.2c3.3,0,6.3,0.8,8.8,2.3
				c2.5,1.6,4.4,3.8,5.8,6.8S1139.9,784.9,1139.9,789z M1123.6,776.9c-2,0-3.5,0.7-4.6,2s-1.7,3.3-1.7,5.9c0,2.2,0.5,3.9,1.5,5.2
				c1,1.3,2.5,1.9,4.6,1.9c1.9,0,3.6-0.6,5-1.9s2.1-2.7,2.1-4.4c0-2.5-0.6-4.5-1.9-6.2C1127.2,777.7,1125.6,776.9,1123.6,776.9z"/>
			<path d="M1176,792.3c0,7.9-1.3,13.7-3.9,17.5s-6.6,5.7-11.9,5.7c-5.2,0-9.1-2-11.8-5.9c-2.6-3.9-4-9.7-4-17.3
				c0-8,1.3-13.8,3.9-17.6c2.6-3.8,6.5-5.7,11.9-5.7c5.2,0,9.1,2,11.8,5.9C1174.6,778.9,1176,784.7,1176,792.3z M1153.9,792.3
				c0,5.5,0.5,9.5,1.4,11.9c1,2.4,2.6,3.6,4.8,3.6c2.2,0,3.8-1.2,4.8-3.6c1-2.4,1.5-6.4,1.5-11.9c0-5.5-0.5-9.5-1.5-11.9
				c-1-2.4-2.6-3.6-4.8-3.6c-2.2,0-3.9,1.2-4.8,3.6C1154.4,782.8,1153.9,786.8,1153.9,792.3z"/>
			<path d="M1212.1,792.3c0,7.9-1.3,13.7-3.9,17.5s-6.6,5.7-11.9,5.7c-5.2,0-9.1-2-11.8-5.9c-2.6-3.9-4-9.7-4-17.3
				c0-8,1.3-13.8,3.9-17.6s6.5-5.7,11.9-5.7c5.2,0,9.1,2,11.8,5.9C1210.7,778.9,1212.1,784.7,1212.1,792.3z M1190,792.3
				c0,5.5,0.5,9.5,1.4,11.9c1,2.4,2.6,3.6,4.8,3.6c2.2,0,3.8-1.2,4.8-3.6c1-2.4,1.5-6.4,1.5-11.9c0-5.5-0.5-9.5-1.5-11.9
				c-1-2.4-2.6-3.6-4.8-3.6c-2.2,0-3.9,1.2-4.8,3.6C1190.5,782.8,1190,786.8,1190,792.3z"/>
		</g>
	</g>
	<g>
		<g>
			<path d="M1459,814.9h-9.5v-26.1l0.1-4.3l0.2-4.7c-1.6,1.6-2.7,2.6-3.3,3.1l-5.2,4.2l-4.6-5.7l14.6-11.6h7.8V814.9z"/>
			<path d="M1503.1,814.9h-31.6v-6.6l11.3-11.5c3.4-3.4,5.5-5.8,6.6-7.2c1-1.3,1.8-2.6,2.2-3.7c0.5-1.1,0.7-2.3,0.7-3.5
				c0-1.8-0.5-3.2-1.5-4c-1-0.9-2.3-1.3-4-1.3c-1.8,0-3.5,0.4-5.1,1.2s-3.4,1.9-5.2,3.4l-5.2-6.1c2.2-1.9,4.1-3.2,5.5-4
				c1.5-0.8,3.1-1.4,4.8-1.8c1.7-0.4,3.7-0.6,5.8-0.6c2.8,0,5.3,0.5,7.5,1.5c2.2,1,3.8,2.5,5,4.3c1.2,1.9,1.8,4,1.8,6.4
				c0,2.1-0.4,4-1.1,5.9c-0.7,1.8-1.9,3.7-3.4,5.6s-4.2,4.6-8.1,8.2l-5.8,5.5v0.4h19.7V814.9z"/>
			<path d="M1539,792.3c0,7.9-1.3,13.7-3.9,17.5c-2.6,3.8-6.6,5.7-11.9,5.7c-5.2,0-9.1-2-11.8-5.9c-2.6-3.9-4-9.7-4-17.3
				c0-8,1.3-13.8,3.9-17.6s6.5-5.7,11.9-5.7c5.2,0,9.1,2,11.8,5.9C1537.6,778.9,1539,784.7,1539,792.3z M1516.9,792.3
				c0,5.5,0.5,9.5,1.4,11.9c1,2.4,2.6,3.6,4.8,3.6c2.2,0,3.8-1.2,4.8-3.6c1-2.4,1.5-6.4,1.5-11.9c0-5.5-0.5-9.5-1.5-11.9
				c-1-2.4-2.6-3.6-4.8-3.6c-2.2,0-3.9,1.2-4.8,3.6C1517.4,782.8,1516.9,786.8,1516.9,792.3z"/>
			<path d="M1575.1,792.3c0,7.9-1.3,13.7-3.9,17.5c-2.6,3.8-6.6,5.7-11.9,5.7c-5.2,0-9.1-2-11.8-5.9c-2.6-3.9-4-9.7-4-17.3
				c0-8,1.3-13.8,3.9-17.6s6.5-5.7,11.9-5.7c5.2,0,9.1,2,11.8,5.9C1573.7,778.9,1575.1,784.7,1575.1,792.3z M1553,792.3
				c0,5.5,0.5,9.5,1.4,11.9c1,2.4,2.6,3.6,4.8,3.6c2.2,0,3.8-1.2,4.8-3.6c1-2.4,1.5-6.4,1.5-11.9c0-5.5-0.5-9.5-1.5-11.9
				c-1-2.4-2.6-3.6-4.8-3.6c-2.2,0-3.9,1.2-4.8,3.6C1553.5,782.8,1553,786.8,1553,792.3z"/>
		</g>
	</g>
	<g>
		<g>
			<path d="M1796.4,814.9h-9.5v-26.1l0.1-4.3l0.2-4.7c-1.6,1.6-2.7,2.6-3.3,3.1l-5.2,4.2l-4.6-5.7l14.6-11.6h7.8V814.9z"/>
			<path d="M1825.4,786.1c4.4,0,7.8,1.2,10.4,3.7c2.6,2.5,3.9,5.8,3.9,10.1c0,5-1.6,8.9-4.7,11.6c-3.1,2.7-7.6,4.1-13.3,4.1
				c-5,0-9.1-0.8-12.2-2.4v-8.2c1.6,0.9,3.5,1.6,5.7,2.1c2.2,0.5,4.2,0.8,6.1,0.8c5.8,0,8.7-2.4,8.7-7.2c0-4.6-3-6.8-9.1-6.8
				c-1.1,0-2.3,0.1-3.6,0.3c-1.3,0.2-2.4,0.4-3.2,0.7l-3.8-2l1.7-23h24.5v8.1h-16.1l-0.8,8.9l1.1-0.2
				C1822,786.2,1823.5,786.1,1825.4,786.1z"/>
			<path d="M1876.4,792.3c0,7.9-1.3,13.7-3.9,17.5c-2.6,3.8-6.6,5.7-11.9,5.7c-5.2,0-9.1-2-11.8-5.9c-2.6-3.9-4-9.7-4-17.3
				c0-8,1.3-13.8,3.9-17.6s6.5-5.7,11.9-5.7c5.2,0,9.1,2,11.8,5.9C1875.1,778.9,1876.4,784.7,1876.4,792.3z M1854.3,792.3
				c0,5.5,0.5,9.5,1.4,11.9c1,2.4,2.6,3.6,4.8,3.6c2.2,0,3.8-1.2,4.8-3.6c1-2.4,1.5-6.4,1.5-11.9c0-5.5-0.5-9.5-1.5-11.9
				c-1-2.4-2.6-3.6-4.8-3.6c-2.2,0-3.9,1.2-4.8,3.6C1854.8,782.8,1854.3,786.8,1854.3,792.3z"/>
			<path d="M1912.5,792.3c0,7.9-1.3,13.7-3.9,17.5c-2.6,3.8-6.6,5.7-11.9,5.7c-5.2,0-9.1-2-11.8-5.9c-2.6-3.9-4-9.7-4-17.3
				c0-8,1.3-13.8,3.9-17.6s6.5-5.7,11.9-5.7c5.2,0,9.1,2,11.8,5.9C1911.2,778.9,1912.5,784.7,1912.5,792.3z M1890.4,792.3
				c0,5.5,0.5,9.5,1.4,11.9c1,2.4,2.6,3.6,4.8,3.6c2.2,0,3.8-1.2,4.8-3.6c1-2.4,1.5-6.4,1.5-11.9c0-5.5-0.5-9.5-1.5-11.9
				c-1-2.4-2.6-3.6-4.8-3.6c-2.2,0-3.9,1.2-4.8,3.6C1890.9,782.8,1890.4,786.8,1890.4,792.3z"/>
		</g>
	</g>
	<g>
		<g>
			<path d="M2123.8,814.9h-9.5v-26.1l0.1-4.3l0.2-4.7c-1.6,1.6-2.7,2.6-3.3,3.1l-5.2,4.2l-4.6-5.7l14.6-11.6h7.8V814.9z"/>
			<path d="M2151.8,769.2c4.3,0,7.8,1,10.5,3c2.6,2,4,4.6,4,8c0,2.3-0.6,4.4-1.9,6.2c-1.3,1.8-3.3,3.4-6.2,4.8
				c3.4,1.8,5.8,3.7,7.3,5.7s2.2,4.1,2.2,6.5c0,3.7-1.5,6.7-4.4,8.9c-2.9,2.3-6.7,3.4-11.5,3.4c-4.9,0-8.8-1.1-11.6-3.2
				c-2.8-2.1-4.2-5.1-4.2-8.9c0-2.6,0.7-4.9,2.1-6.9c1.4-2,3.6-3.8,6.6-5.3c-2.6-1.6-4.4-3.4-5.6-5.2c-1.1-1.9-1.7-3.9-1.7-6.1
				c0-3.2,1.3-5.8,4-7.8C2144,770.2,2147.5,769.2,2151.8,769.2z M2144.8,802.9c0,1.8,0.6,3.2,1.9,4.1c1.2,1,2.9,1.5,5.1,1.5
				c2.4,0,4.1-0.5,5.3-1.5s1.8-2.4,1.8-4c0-1.4-0.6-2.7-1.7-3.9c-1.2-1.2-3.1-2.5-5.7-3.8C2147,797.3,2144.8,799.8,2144.8,802.9z
				 M2151.8,776.2c-1.6,0-2.9,0.4-3.9,1.3s-1.5,2-1.5,3.4c0,1.2,0.4,2.3,1.2,3.3c0.8,1,2.2,2,4.3,3c2-0.9,3.4-1.9,4.2-2.9
				c0.8-1,1.2-2.1,1.2-3.4c0-1.4-0.5-2.5-1.5-3.4C2154.7,776.6,2153.4,776.2,2151.8,776.2z"/>
			<path d="M2203.7,792.3c0,7.9-1.3,13.7-3.9,17.5c-2.6,3.8-6.6,5.7-11.9,5.7c-5.2,0-9.1-2-11.8-5.9c-2.6-3.9-4-9.7-4-17.3
				c0-8,1.3-13.8,3.9-17.6s6.5-5.7,11.9-5.7c5.2,0,9.1,2,11.8,5.9C2202.4,778.9,2203.7,784.7,2203.7,792.3z M2181.6,792.3
				c0,5.5,0.5,9.5,1.4,11.9c1,2.4,2.6,3.6,4.8,3.6c2.2,0,3.8-1.2,4.8-3.6c1-2.4,1.5-6.4,1.5-11.9c0-5.5-0.5-9.5-1.5-11.9
				c-1-2.4-2.6-3.6-4.8-3.6c-2.2,0-3.9,1.2-4.8,3.6C2182.1,782.8,2181.6,786.8,2181.6,792.3z"/>
			<path d="M2239.8,792.3c0,7.9-1.3,13.7-3.9,17.5c-2.6,3.8-6.6,5.7-11.9,5.7c-5.2,0-9.1-2-11.8-5.9c-2.6-3.9-4-9.7-4-17.3
				c0-8,1.3-13.8,3.9-17.6s6.5-5.7,11.9-5.7c5.2,0,9.1,2,11.8,5.9C2238.5,778.9,2239.8,784.7,2239.8,792.3z M2217.7,792.3
				c0,5.5,0.5,9.5,1.4,11.9c1,2.4,2.6,3.6,4.8,3.6c2.2,0,3.8-1.2,4.8-3.6c1-2.4,1.5-6.4,1.5-11.9c0-5.5-0.5-9.5-1.5-11.9
				c-1-2.4-2.6-3.6-4.8-3.6c-2.2,0-3.9,1.2-4.8,3.6C2218.2,782.8,2217.7,786.8,2217.7,792.3z"/>
		</g>
	</g>
	<g>
		<g>
			<linearGradient id="SVGID_2_" gradientUnits="userSpaceOnUse" x1="492.4947" y1="451.8646" x2="950.3175" y2="451.8646">
				<stop  offset="1.335300e-03" style="stop-color:#333333"/>
				<stop  offset="0.5202" style="stop-color:#C2932D"/>
				<stop  offset="1" style="stop-color:#333333"/>
			</linearGradient>
			<path fill="url(#SVGID_2_)" stroke="#000000" stroke-width="5" stroke-miterlimit="10" d="M950.3,267.7c0,0-42.7-2.5-86.7,52.7
				c0,0-72.8,108-105.5,155.7c-32.7,47.7-115.5,179.6-175.8,163.3c-15.1,1.3-72.8,6.3-87.9,1.3c-15.1-5,60.3,20.1,155.7-123.1
				s159.5-273.8,234.9-255L950.3,267.7z"/>
			<linearGradient id="SVGID_3_" gradientUnits="userSpaceOnUse" x1="1007.4187" y1="451.8646" x2="1465.2416" y2="451.8646">
				<stop  offset="1.335300e-03" style="stop-color:#333333"/>
				<stop  offset="0.5202" style="stop-color:#C2932D"/>
				<stop  offset="1" style="stop-color:#333333"/>
			</linearGradient>
			<path fill="url(#SVGID_3_)" stroke="#000000" stroke-width="5" stroke-miterlimit="10" d="M1465.2,267.7c0,0-42.7-2.5-86.7,52.7
				c0,0-72.8,108-105.5,155.7c-32.7,47.7-115.5,179.6-175.8,163.3c-15.1,1.3-72.8,6.3-87.9,1.3c-15.1-5,60.3,20.1,155.7-123.1
				s159.5-273.8,234.9-255L1465.2,267.7z"/>
			<linearGradient id="SVGID_4_" gradientUnits="userSpaceOnUse" x1="1782.3165" y1="451.8646" x2="2240.1394" y2="451.8646">
				<stop  offset="1.335300e-03" style="stop-color:#333333"/>
				<stop  offset="0.5202" style="stop-color:#C2932D"/>
				<stop  offset="1" style="stop-color:#333333"/>
			</linearGradient>
			<path fill="url(#SVGID_4_)" stroke="#000000" stroke-width="5" stroke-miterlimit="10" d="M2240.1,267.7c0,0-42.7-2.5-86.7,52.7
				c0,0-72.8,108-105.5,155.7c-32.7,47.7-115.5,179.6-175.8,163.3c-15.1,1.3-72.8,6.3-87.9,1.3c-15.1-5,60.3,20.1,155.7-123.1
				c95.4-143.2,159.5-273.8,234.9-255L2240.1,267.7z"/>
			<linearGradient id="SVGID_5_" gradientUnits="userSpaceOnUse" x1="2030.9872" y1="451.8646" x2="2488.8101" y2="451.8646">
				<stop  offset="1.335300e-03" style="stop-color:#333333"/>
				<stop  offset="0.5202" style="stop-color:#C2932D"/>
				<stop  offset="1" style="stop-color:#333333"/>
			</linearGradient>
			<path fill="url(#SVGID_5_)" stroke="#000000" stroke-width="5" stroke-miterlimit="10" d="M2488.8,267.7c0,0-42.7-2.5-86.7,52.7
				c0,0-72.8,108-105.5,155.7c-32.7,47.7-115.5,179.6-175.8,163.3c-15.1,1.3-72.8,6.3-87.9,1.3c-15.1-5,60.3,20.1,155.7-123.1
				c95.4-143.2,159.5-273.8,234.9-255L2488.8,267.7z"/>
			<linearGradient id="SVGID_6_" gradientUnits="userSpaceOnUse" x1="1263.6248" y1="451.8646" x2="1721.4476" y2="451.8646">
				<stop  offset="1.335300e-03" style="stop-color:#333333"/>
				<stop  offset="0.5202" style="stop-color:#C2932D"/>
				<stop  offset="1" style="stop-color:#333333"/>
			</linearGradient>
			<path fill="url(#SVGID_6_)" stroke="#000000" stroke-width="5" stroke-miterlimit="10" d="M1721.4,267.7c0,0-42.7-2.5-86.7,52.7
				c0,0-72.8,108-105.5,155.7s-115.5,179.6-175.8,163.3c-15.1,1.3-72.8,6.3-87.9,1.3c-15.1-5,60.3,20.1,155.7-123.1
				c95.4-143.2,159.5-273.8,234.9-255L1721.4,267.7z"/>
			<linearGradient id="SVGID_7_" gradientUnits="userSpaceOnUse" x1="245.08" y1="451.8646" x2="702.9028" y2="451.8646">
				<stop  offset="1.335300e-03" style="stop-color:#333333"/>
				<stop  offset="0.5202" style="stop-color:#C2932D"/>
				<stop  offset="1" style="stop-color:#333333"/>
			</linearGradient>
			<path fill="url(#SVGID_7_)" stroke="#000000" stroke-width="5" stroke-miterlimit="10" d="M702.9,267.7c0,0-42.7-2.5-86.7,52.7
				c0,0-72.8,108-105.5,155.7S395.2,655.8,334.9,639.4c-15.1,1.3-72.8,6.3-87.9,1.3c-15.1-5,60.3,20.1,155.7-123.1
				s159.5-273.8,234.9-255L702.9,267.7z"/>
			<linearGradient id="SVGID_8_" gradientUnits="userSpaceOnUse" x1="-232.1667" y1="451.8646" x2="225.6562" y2="451.8646">
				<stop  offset="1.335300e-03" style="stop-color:#333333"/>
				<stop  offset="0.5202" style="stop-color:#C2932D"/>
				<stop  offset="1" style="stop-color:#333333"/>
			</linearGradient>
			<path fill="url(#SVGID_8_)" stroke="#000000" stroke-width="5" stroke-miterlimit="10" d="M225.7,267.7c0,0-42.7-2.5-86.7,52.7
				c0,0-72.8,108-105.5,155.7S-82,655.8-142.3,639.4c-15.1,1.3-72.8,6.3-87.9,1.3c-15.1-5,60.3,20.1,155.7-123.1
				S85,243.8,160.3,262.7L225.7,267.7z"/>
		</g>
		<g>
			<path fill="#BBE4ED" stroke="#000000" stroke-width="5" stroke-miterlimit="10" d="M153.1,282.4c0,0,23.5-3.8,37.7-0.9
				c0,31.1,0,309,0,309s-30.1,2.8-36.7-0.9C154,564.1,153.1,282.4,153.1,282.4z"/>
			<path fill="#BBE4ED" stroke="#000000" stroke-width="5" stroke-miterlimit="10" d="M236.9,320.1c0,0,23.5-3.8,37.7-0.9
				c0,31.1,0,309,0,309s-30.1,2.8-36.7-0.9C237.9,601.8,236.9,320.1,236.9,320.1z"/>
			<path fill="#BBE4ED" stroke="#000000" stroke-width="5" stroke-miterlimit="10" d="M534.6,352.1c0,0,24.5-24.5,37.7-7.6
				c0,28.5,0,288.3,0,288.3s-30.1,2.6-36.7-0.9C535.5,608.6,534.6,352.1,534.6,352.1z"/>
			<path fill="#BBE4ED" stroke="#000000" stroke-width="5" stroke-miterlimit="10" d="M613.7,290.1c0,0,23.5-3.9,37.7-1
				c0,32.2,0,298.6,0,298.6s0,30.1-36.7,20.7C614.6,581.9,613.7,290.1,613.7,290.1z"/>
			<path fill="#BBE4ED" stroke="#000000" stroke-width="5" stroke-miterlimit="10" d="M697.5,277.9c0,0,23.5-2.3,37.7-0.6
				c0,19,0,178.4,0,178.4s0,31.1-36.7,10.2C698.5,450.4,697.5,277.9,697.5,277.9z"/>
			<path fill="#BBE4ED" stroke="#000000" stroke-width="5" stroke-miterlimit="10" d="M322.6,439c0,0,23.5-2.3,37.7-0.6
				c0,19.1,0,172.8,0,172.8s1.9,17-36.7,16.8C323.6,612.3,322.6,439,322.6,439z"/>
			<path fill="#BBE4ED" stroke="#000000" stroke-width="5" stroke-miterlimit="10" d="M458.3,440.9c20.7-13.4,23.5-2.3,37.7-0.6
				c0,18.9,0,188.3,0,188.3s-30.1,1.7-36.7-0.6C459.2,612.5,458.3,458.9,458.3,440.9z"/>
			<path fill="#BBE4ED" stroke="#000000" stroke-width="5" stroke-miterlimit="10" d="M1050.7,338.8c0,0-23.5-3.5-37.7-0.9
				c0,28.5,0,283.7,0,283.7s30.1,2.6,36.7-0.9C1049.8,597.4,1050.7,338.8,1050.7,338.8z"/>
			<path fill="#BBE4ED" stroke="#000000" stroke-width="5" stroke-miterlimit="10" d="M971.6,275.9c0,0-23.5-3.9-37.7-1
				c0,32.2,0,320.2,0,320.2s30.1,2.9,36.7-1C970.7,567.8,971.6,275.9,971.6,275.9z"/>
			<path fill="#BBE4ED" stroke="#000000" stroke-width="5" stroke-miterlimit="10" d="M887.8,293c0,0-23.5-2.3-37.7-0.6
				c0,19,0,189.2,0,189.2s30.1,1.7,36.7-0.6C886.9,465.4,887.8,293,887.8,293z"/>
			<path fill="#BBE4ED" stroke="#000000" stroke-width="5" stroke-miterlimit="10" d="M1127,440.9c-20.7-13.4-23.5-2.3-37.7-0.6
				c0,18.9,0,188.3,0,188.3s30.1,9,36.7-17.4C1126.1,595.7,1127,458.9,1127,440.9z"/>
			<path fill="#BBE4ED" stroke="#000000" stroke-width="5" stroke-miterlimit="10" d="M1300.4,353.1c0,0,19.8-27.3,37.7-8.6
				c0,28.5,0,283.7,0,283.7s-30.1,2.6-36.7-0.9C1301.3,604,1300.4,353.1,1300.4,353.1z"/>
			<path fill="#BBE4ED" stroke="#000000" stroke-width="5" stroke-miterlimit="10" d="M1379.5,280.1c0,0,23.5-3.9,37.7-1
				c0,32.2,0,313.3,0,313.3s-4.7,27.3-36.7,15.9C1380.4,581.9,1379.5,280.1,1379.5,280.1z"/>
			<path fill="#BBE4ED" stroke="#000000" stroke-width="5" stroke-miterlimit="10" d="M1463.3,277.9c0,0,23.5-2.3,37.7-0.6
				c0,19,0,178.4,0,178.4s-0.9,33-36.7,10.2C1464.3,450.4,1463.3,277.9,1463.3,277.9z"/>
			<path fill="#BBE4ED" stroke="#000000" stroke-width="5" stroke-miterlimit="10" d="M1224.1,440.9c20.7-13.4,23.5-2.3,37.7-0.6
				c0,18.9,0,188.3,0,188.3s-30.1,1.7-36.7-0.6C1225,612.5,1224.1,458.9,1224.1,440.9z"/>
			<path fill="#BBE4ED" stroke="#000000" stroke-width="5" stroke-miterlimit="10" d="M2067.1,345.4c0,0,24.5-14.9,37.7-0.9
				c0,28.5,0,291.1,0,291.1s-30.1,2.6-36.7-0.9C2068,611.5,2067.1,345.4,2067.1,345.4z"/>
			<path fill="#EE4085" stroke="#000000" stroke-width="5" stroke-miterlimit="10" d="M2146.2,290.1c0,0,23.5-3.9,37.7-1
				c0,32.2,0,295.7,0,295.7s1.9,34.9-36.7,23.5C2147.2,581.9,2146.2,290.1,2146.2,290.1z"/>
			<path fill="#BBE4ED" stroke="#000000" stroke-width="5" stroke-miterlimit="10" d="M2230,277.9c0,0,23.5-2.3,37.7-0.6
				c0,19,0,189.2,0,189.2s-17.9,19.4-36.7-0.6C2231,450.4,2230,277.9,2230,277.9z"/>
			<path fill="#BBE4ED" stroke="#000000" stroke-width="5" stroke-miterlimit="10" d="M1990.8,440.9c20.7-13.4,23.5-2.3,37.7-0.6
				c0,18.9,0,188.3,0,188.3s-30.1,1.7-36.7-0.6C1991.7,612.5,1990.8,458.9,1990.8,440.9z"/>
			<path fill="#BBE4ED" stroke="#000000" stroke-width="5" stroke-miterlimit="10" d="M1814.7,345.4c0,0-23.5-3.5-37.7-0.9
				c0,28.5,0,283.7,0,283.7s30.1,2.6,36.7-0.9C1813.7,604,1814.7,345.4,1814.7,345.4z"/>
			<path fill="#BBE4ED" stroke="#000000" stroke-width="5" stroke-miterlimit="10" d="M1735.5,276.8c0,0-23.5-3.9-37.7-1
				c0,32.2,0,333.4,0,333.4s30.1,2.9,36.7-1C1734.6,581.9,1735.5,276.8,1735.5,276.8z"/>
			<path fill="#BBE4ED" stroke="#000000" stroke-width="5" stroke-miterlimit="10" d="M1651.7,293.7c0,0-10.4-12.2-37.7-0.6
				c0,19,0,173.3,0,173.3s30.1,1.7,36.7-0.6C1650.8,450.4,1651.7,293.7,1651.7,293.7z"/>
			<path fill="#BBE4ED" stroke="#000000" stroke-width="5" stroke-miterlimit="10" d="M1891,440.9c-20.7-13.4-23.5-2.3-37.7-0.6
				c0,18.9,0,188.3,0,188.3s28.3,3.4,36.7-15.5C1890,597.6,1891,458.9,1891,440.9z"/>
			<path fill="#BBE4ED" stroke="#000000" stroke-width="5" stroke-miterlimit="10" d="M2580.4,345.4c0,0-23.5-3.5-37.7-0.9
				c0,28.5,0,283.7,0,283.7s30.1,2.6,36.7-0.9C2579.5,604,2580.4,345.4,2580.4,345.4z"/>
			<path fill="#BBE4ED" stroke="#000000" stroke-width="5" stroke-miterlimit="10" d="M2501.3,274c0,0-23.5-3.9-37.7-1
				c0,32.2,0,336.3,0,336.3s30.1,2.9,36.7-1C2500.4,581.9,2501.3,274,2501.3,274z"/>
			<path fill="#BBE4ED" stroke="#000000" stroke-width="5" stroke-miterlimit="10" d="M2417.5,290c0,0-16-5.7-37.7,2.2
				c0,19,0,174.3,0,174.3s30.1,1.7,36.7-0.6C2416.6,450.4,2417.5,290,2417.5,290z"/>
			<path fill="#BBE4ED" stroke="#000000" stroke-width="5" stroke-miterlimit="10" d="M2656.7,440.9c-20.7-13.4-23.5-2.3-37.7-0.6
				c0,18.9,0,188.3,0,188.3s27.3,7.1,36.7-22.1C2655.8,591,2656.7,458.9,2656.7,440.9z"/>
			<g>
				<path fill="none" stroke="#000000" stroke-width="5" stroke-linecap="round" stroke-miterlimit="10" d="M2541.3,497.4
					c1.4-3.6,4.9-6,8.6-7.1c3.7-1.1,7.6-1,11.4-0.9c7.2,0.2,15.9,1.3,18.7,8"/>
				<path fill="none" stroke="#000000" stroke-width="5" stroke-linecap="round" stroke-miterlimit="10" d="M2618.2,540.6
					c6-5.8,12.4-11.2,19.3-15.9c6.4,4.6,12.4,9.8,17.7,15.5"/>
				<path fill="none" stroke="#000000" stroke-width="5" stroke-linecap="round" stroke-miterlimit="10" d="M2462.6,435.9
					c5.9-5.1,12.3-9.6,19.2-13.4c6.8,3.6,13.1,8.1,18.7,13.4"/>
				<path fill="none" stroke="#000000" stroke-width="5" stroke-linecap="round" stroke-miterlimit="10" d="M2417.4,387.3
					c-10.6-6.2-24.8-5.7-35,1.3"/>
				<path fill="none" stroke="#000000" stroke-width="5" stroke-linecap="round" stroke-miterlimit="10" d="M2268.4,364.8
					c-5.6,5.2-11.6,9.9-17.9,14c-0.9,0.6-1.9,1.2-3,1.2c-1,0-1.9-0.5-2.8-1.1c-4.5-2.7-9-5.5-13.5-8.2"/>
				<path fill="none" stroke="#000000" stroke-width="5" stroke-linecap="round" stroke-miterlimit="10" d="M2185.6,447.9
					c-5.5-5.1-13.1-7.8-20.6-7.3s-14.7,4.2-19.4,10"/>
				<path fill="none" stroke="#000000" stroke-width="5" stroke-linecap="round" stroke-miterlimit="10" d="M2106.2,488.7
					c-6.1,5.9-12.3,11.7-18.4,17.6c-0.5,0.5-1.2,1.1-1.9,1.1c-0.8,0-1.5-0.6-2.1-1.1c-5.7-5.2-11.4-10.4-17.1-15.6"/>
				<path fill="none" stroke="#000000" stroke-width="5" stroke-linecap="round" stroke-miterlimit="10" d="M2030.3,524.8
					c-11.6-8.7-29.8-6.6-39.2,4.5"/>
				<path fill="none" stroke="#000000" stroke-width="5" stroke-linecap="round" stroke-miterlimit="10" d="M1890.1,541.1
					c-4.7-5.7-11-10.1-18-12.4c-5.1,3.8-10.5,7.2-16.3,10.1"/>
				<path fill="none" stroke="#000000" stroke-width="5" stroke-linecap="round" stroke-miterlimit="10" d="M1815,480.1
					c-9.2,10.6-26.9,12.5-38,3.9"/>
				<path fill="none" stroke="#000000" stroke-width="5" stroke-linecap="round" stroke-miterlimit="10" d="M1736.3,436.4
					c-6.3-4.6-11.4-9.2-17.6-13.8c-0.7-0.5-1.4-1-2.2-1c-0.9,0-1.8,0.5-2.5,1.1c-5.8,4.1-11.7,8.3-17.5,12.4"/>
				<path fill="none" stroke="#000000" stroke-width="5" stroke-linecap="round" stroke-miterlimit="10" d="M1653,389.5
					c-3.4-6.1-10.8-8.9-17.8-9.4c-8.2-0.6-16.5,1.3-23.6,5.3"/>
				<path fill="none" stroke="#000000" stroke-width="5" stroke-linecap="round" stroke-miterlimit="10" d="M1502.7,364.1
					c-5.3,4.7-11,8.9-17.1,12.4c-1.5,0.9-3.1,1.7-4.8,2.1c-6.8,1.6-13-4.1-17.7-9.3"/>
				<path fill="none" stroke="#000000" stroke-width="5" stroke-linecap="round" stroke-miterlimit="10" d="M1416,449.3
					c-9.7-9.6-27-10-37.1-0.7"/>
				<path fill="none" stroke="#000000" stroke-width="5" stroke-linecap="round" stroke-miterlimit="10" d="M1339.8,490.7
					c-5.6,4.8-11.6,9-18,12.5c-0.9,0.5-1.9,1-2.9,1.1c-1.3,0.1-2.6-0.5-3.8-1.1c-6.4-3.5-11.7-8.8-15.3-15.1"/>
				<path fill="none" stroke="#000000" stroke-width="5" stroke-linecap="round" stroke-miterlimit="10" d="M1262.1,523.2
					c-12.6-5.4-28-4-39.4,3.6"/>
				<path fill="none" stroke="#000000" stroke-width="5" stroke-linecap="round" stroke-miterlimit="10" d="M1126.6,542
					c-4.2-4.6-9.3-8.4-14.8-11.3c-1.1-0.6-2.3-1.1-3.6-1.1c-1.4,0-2.7,0.7-3.9,1.3c-5.3,2.9-10.6,5.7-15.9,8.6"/>
				<path fill="none" stroke="#000000" stroke-width="5" stroke-linecap="round" stroke-miterlimit="10" d="M1052.8,476.8
					c-2.6,1.2-4.8,3.1-7.2,4.6c-10.3,6.5-24.7,5.8-34.3-1.7"/>
				<path fill="none" stroke="#000000" stroke-width="5" stroke-linecap="round" stroke-miterlimit="10" d="M972,436.4
					c-6-5.4-11.9-10.7-17.9-16.1c-0.7-0.6-1.5-1.3-2.4-1.3c-0.8,0-1.5,0.5-2.1,1c-5.6,4.3-11.2,8.7-16.8,13"/>
				<path fill="none" stroke="#000000" stroke-width="5" stroke-linecap="round" stroke-miterlimit="10" d="M888.1,389.9
					c-1.7-3.7-3.2-6.1-7.2-7c-4-0.9-8.1-0.6-12.2-0.2c-7.1,0.6-14.6,1.4-20.2,5.8"/>
				<path fill="none" stroke="#000000" stroke-width="5" stroke-linecap="round" stroke-miterlimit="10" d="M737.2,365.5
					c-8.2,4.8-16.4,9.6-24.7,14.5c-5.7-3.3-11-7.5-15.5-12.3"/>
				<path fill="none" stroke="#000000" stroke-width="5" stroke-linecap="round" stroke-miterlimit="10" d="M651.9,448.5
					c-9.8-9.4-26.9-9.7-37.2-0.8"/>
				<path fill="none" stroke="#000000" stroke-width="5" stroke-linecap="round" stroke-miterlimit="10" d="M574,489.4
					c-4.8,4.8-9.9,9.4-15.2,13.8c-1.3,1.1-2.7,2.2-4.4,2.3c-1.3,0.1-2.6-0.4-3.8-0.9c-5.9-2.7-11.2-6.8-15.3-11.9"/>
				<path fill="none" stroke="#000000" stroke-width="5" stroke-linecap="round" stroke-miterlimit="10" d="M496,523.3
					c-11.2-8.1-28.5-5.8-37.2,4.8"/>
				<path fill="none" stroke="#000000" stroke-width="5" stroke-linecap="round" stroke-miterlimit="10" d="M361.9,543.3
					c-5.7-4.1-11.5-8.1-17.2-12.2c-1-0.7-2.1-1.4-3.3-1.5c-1.4-0.1-2.7,0.6-3.9,1.3c-4.8,2.8-9.7,5.6-14.5,8.4"/>
				<path fill="none" stroke="#000000" stroke-width="5" stroke-linecap="round" stroke-miterlimit="10" d="M274.7,474.2
					c-10.1,9.7-27.6,10.3-38.2,1.2"/>
				<path fill="none" stroke="#000000" stroke-width="5" stroke-linecap="round" stroke-miterlimit="10" d="M192.6,439.2
					c-6.2-5.2-12.3-10.4-18.5-15.6c-0.6-0.5-1.3-1.1-2.2-1.2c-1-0.1-1.9,0.6-2.7,1.2c-5.9,4.8-11.8,9.6-17.7,14.4"/>
			</g>
			<path fill="#BBE4ED" stroke="#000000" stroke-width="5" stroke-miterlimit="10" d="M115.9,305.6c0,0-23.5-2.3-37.7-0.6
				c0,18.6,0,185,0,185s30.1,1.7,36.7-0.6C115,474.2,115.9,305.6,115.9,305.6z"/>
			<path fill="none" stroke="#000000" stroke-width="5" stroke-linecap="round" stroke-miterlimit="10" d="M116.2,389.9
				c-1.7-3.7-3.2-6.1-7.2-7s-8.1-0.6-12.2-0.2c-7.1,0.6-14.6,1.4-20.2,5.8"/>
		</g>
		<g>
			<path fill="#FFCE06" stroke="#000000" stroke-width="5" stroke-miterlimit="10" d="M132,261.4c0,0,42.7,3.8,86.7,59
				c0,0,72.8,108,105.5,155.7S439.7,655.8,500,639.4c15.1,1.3,72.8,6.3,87.9,1.3c15.1-5-60.3,20.1-155.7-123.1
				s-159.5-273.8-234.9-255L132,261.4z"/>
			<path fill="#FFCE06" stroke="#000000" stroke-width="5" stroke-miterlimit="10" d="M-126.7,267.7c0,0,42.7-2.5,86.7,52.7
				c0,0,72.8,108,105.5,155.7S181,655.8,241.3,639.4c15.1,1.3,72.8,6.3,87.9,1.3c15.1-5-60.3,20.1-155.7-123.1S14,243.8-61.4,262.7
				L-126.7,267.7z"/>
			<path fill="#FFCE06" stroke="#000000" stroke-width="5" stroke-miterlimit="10" d="M628.1,261.4c0,0,42.7,3.8,86.7,59
				c0,0,72.8,108,105.5,155.7c32.7,47.7,115.5,179.6,175.8,163.3c15.1,1.3,72.8,6.3,87.9,1.3c15.1-5-60.3,20.1-155.7-123.1
				s-159.5-273.8-234.9-255L628.1,261.4z"/>
			<path fill="#FFCE06" stroke="#000000" stroke-width="5" stroke-miterlimit="10" d="M894.4,263.9c0,0,42.7,1.3,86.7,56.5
				c0,0,72.8,108,105.5,155.7c32.7,47.7,115.5,179.6,175.8,163.3c15.1,1.3,72.8,6.3,87.9,1.3c15.1-5-60.3,20.1-155.7-123.1
				s-159.5-273.8-234.9-255L894.4,263.9z"/>
			<path fill="#FFCE06" stroke="#000000" stroke-width="5" stroke-miterlimit="10" d="M1393,261.4c0,0,42.7,3.8,86.7,59
				c0,0,72.8,108,105.5,155.7s115.5,179.6,175.8,163.3c15.1,1.3,72.8,6.3,87.9,1.3c15.1-5-60.3,20.1-155.7-123.1
				s-159.5-273.8-234.9-255L1393,261.4z"/>
			<path fill="#FFCE06" stroke="#000000" stroke-width="5" stroke-miterlimit="10" d="M2157.8,260.2c0,0,42.7,5,86.7,60.3
				c0,0,72.8,108,105.5,155.7c32.7,47.7,115.5,179.6,175.8,163.3c15.1,1.3,72.8,6.3,87.9,1.3c15.1-5-60.3,20.1-155.7-123.1
				c-95.4-143.2-159.5-273.8-234.9-255L2157.8,260.2z"/>
			<path fill="#FFCE06" stroke="#000000" stroke-width="5" stroke-miterlimit="10" d="M2426.6,261.4c0,0,42.7,3.8,86.7,59
				c0,0,72.8,108,105.5,155.7c32.7,47.7,115.5,179.6,175.8,163.3c15.1,1.3,72.8,6.3,87.9,1.3c15.1-5-60.3,20.1-155.7-123.1
				c-95.4-143.2-159.5-273.8-234.9-255L2426.6,261.4z"/>
			<path fill="#FFCE06" stroke="#000000" stroke-width="5" stroke-miterlimit="10" d="M1660.5,262.7c0,0,42.7,2.5,86.7,57.8
				c0,0,72.8,108,105.5,155.7c32.7,47.7,115.5,179.6,175.8,163.3c15.1,1.3,72.8,6.3,87.9,1.3c15.1-5-60.3,20.1-155.7-123.1
				s-159.5-273.8-234.9-255H1660.5z"/>
		</g>
	</g>
	<g>
		<g>
			<path fill="#EE4085" d="M153.1,718.4l-1.9,17.4l17.6-5l1.8,14.6l-15.5,1l10.2,13.7l-12.9,6.8l-7.1-14l-6.1,13.9l-13.4-6.7
				l10.2-13.7l-15.5-1.2l2.2-14.4l17.2,5l-1.9-17.4H153.1z"/>
		</g>
	</g>
</g>
<g id="GRAPH">
	<rect x="534.4" y="992.9" fill="#FFFFFF" width="1530.4" height="1229.8"/>
	<polyline fill="#FFCE06" points="2062.3,2222.7 534.4,2222.7 534.4,1899.8 835.6,1854.7 1143.2,1803.9 1450.7,1586.6 
		1758.2,1367.4 2065.7,1115 	"/>
	<g>
		<polyline fill="none" stroke="#000000" stroke-width="6" stroke-miterlimit="10" points="2060.9,988.9 2060.9,2222.7 
			534.4,2222.7 534.4,988.9 		"/>
		<line fill="none" stroke="#000000" stroke-width="6" stroke-miterlimit="10" x1="534.4" y1="2068.7" x2="2060.9" y2="2068.7"/>
		<line fill="none" stroke="#000000" stroke-width="6" stroke-miterlimit="10" x1="534.4" y1="1914.8" x2="2060.9" y2="1914.8"/>
		<line fill="none" stroke="#000000" stroke-width="6" stroke-miterlimit="10" x1="534.4" y1="1760.8" x2="2060.9" y2="1760.8"/>
		<line fill="none" stroke="#000000" stroke-width="6" stroke-miterlimit="10" x1="534.4" y1="1606.8" x2="2060.9" y2="1606.8"/>
		<line fill="none" stroke="#000000" stroke-width="6" stroke-miterlimit="10" x1="534.4" y1="1452.9" x2="2060.9" y2="1452.9"/>
		<line fill="none" stroke="#000000" stroke-width="6" stroke-miterlimit="10" x1="534.4" y1="1298.9" x2="2060.9" y2="1298.9"/>
		<line fill="none" stroke="#000000" stroke-width="6" stroke-miterlimit="10" x1="534.4" y1="1145" x2="2060.9" y2="1145"/>
		<line fill="none" stroke="#000000" stroke-width="6" stroke-miterlimit="10" x1="534.4" y1="991" x2="2060.9" y2="991"/>
		<line fill="none" stroke="#000000" stroke-width="6" stroke-miterlimit="10" x1="2062.3" y1="988.9" x2="2062.3" y2="2222.7"/>
		<line fill="none" stroke="#000000" stroke-width="6" stroke-miterlimit="10" x1="1756.7" y1="988.9" x2="1756.7" y2="2222.7"/>
		<line fill="none" stroke="#000000" stroke-width="6" stroke-miterlimit="10" x1="1451.1" y1="988.9" x2="1451.1" y2="2222.7"/>
		<line fill="none" stroke="#000000" stroke-width="6" stroke-miterlimit="10" x1="1145.6" y1="988.9" x2="1145.6" y2="2222.7"/>
		<line fill="none" stroke="#000000" stroke-width="6" stroke-miterlimit="10" x1="840" y1="988.9" x2="840" y2="2222.7"/>
	</g>
	<g>
		<g>
			<path d="M1099.9,2408.2h-6.4v-49h-17.3v-5.6h41v5.6h-17.3V2408.2z"/>
			<path d="M1125.4,2408.2v-54.7h6.4v54.7H1125.4z"/>
			<path d="M1171,2408.2l-18.5-48.5h-0.3c0.3,3.8,0.5,8.4,0.5,13.7v34.8h-5.9v-54.7h9.6l17.3,45.1h0.3l17.5-45.1h9.5v54.7h-6.4V2373
				c0-4,0.2-8.4,0.5-13.2h-0.3l-18.7,48.4H1171z"/>
			<path d="M1246.4,2408.2h-30.5v-54.7h30.5v5.6h-24.1v17.6h22.7v5.6h-22.7v20.1h24.1V2408.2z"/>
			<path d="M1273.9,2387.2c0-6.6,1-12.8,2.9-18.5c1.9-5.8,4.7-10.8,8.4-15.1h6.1c-3.6,4.8-6.3,10.1-8.1,15.9s-2.7,11.7-2.7,17.8
				c0,6,0.9,11.8,2.8,17.5c1.8,5.7,4.5,10.9,8,15.6h-6c-3.7-4.2-6.5-9.2-8.4-14.8C1274.9,2399.8,1273.9,2393.7,1273.9,2387.2z"/>
			<path d="M1314.9,2380.9l14.6-27.3h6.9l-18.2,33.5v21.2h-6.4v-20.9l-18.2-33.8h7L1314.9,2380.9z"/>
			<path d="M1374.4,2408.2h-30.5v-54.7h30.5v5.6h-24.1v17.6h22.7v5.6h-22.7v20.1h24.1V2408.2z"/>
			<path d="M1420.9,2408.2l-6.8-17.4h-21.9l-6.7,17.4h-6.4l21.6-54.9h5.3l21.5,54.9H1420.9z M1412.1,2385.1l-6.4-16.9
				c-0.8-2.1-1.7-4.8-2.5-7.9c-0.5,2.4-1.3,5-2.4,7.9l-6.4,16.9H1412.1z"/>
			<path d="M1441.3,2385.5v22.7h-6.4v-54.7h15c6.7,0,11.7,1.3,14.9,3.9c3.2,2.6,4.8,6.4,4.8,11.6c0,7.2-3.7,12.1-11,14.7l14.8,24.6
				h-7.5l-13.2-22.7H1441.3z M1441.3,2380h8.7c4.5,0,7.8-0.9,9.9-2.7c2.1-1.8,3.1-4.5,3.1-8c0-3.6-1.1-6.2-3.2-7.8
				c-2.1-1.6-5.6-2.4-10.3-2.4h-8.3V2380z"/>
			<path d="M1513.1,2393.7c0,4.8-1.7,8.6-5.2,11.3c-3.5,2.7-8.2,4-14.2,4c-6.5,0-11.5-0.8-15-2.5v-6.1c2.2,0.9,4.7,1.7,7.3,2.2
				c2.6,0.5,5.3,0.8,7.9,0.8c4.2,0,7.4-0.8,9.6-2.4c2.1-1.6,3.2-3.8,3.2-6.7c0-1.9-0.4-3.4-1.1-4.7c-0.8-1.2-2-2.3-3.8-3.3
				c-1.8-1-4.5-2.2-8.1-3.5c-5.1-1.8-8.7-4-10.9-6.5c-2.2-2.5-3.3-5.7-3.3-9.8c0-4.2,1.6-7.6,4.7-10.1c3.2-2.5,7.4-3.7,12.6-3.7
				c5.4,0,10.4,1,15,3l-2,5.5c-4.5-1.9-8.9-2.8-13.2-2.8c-3.4,0-6,0.7-7.9,2.2c-1.9,1.4-2.8,3.5-2.8,6c0,1.9,0.3,3.4,1,4.7
				c0.7,1.2,1.9,2.3,3.5,3.3c1.7,1,4.2,2.1,7.6,3.3c5.7,2,9.7,4.2,11.8,6.6C1512,2386.9,1513.1,2389.9,1513.1,2393.7z"/>
			<path d="M1536.4,2387.2c0,6.6-1,12.7-2.9,18.3s-4.7,10.6-8.4,14.8h-6c3.5-4.7,6.1-9.9,8-15.6c1.8-5.7,2.8-11.6,2.8-17.6
				c0-6.1-0.9-12-2.7-17.8c-1.8-5.8-4.5-11-8.1-15.9h6.1c3.7,4.4,6.5,9.4,8.4,15.2C1535.4,2374.5,1536.4,2380.7,1536.4,2387.2z"/>
		</g>
	</g>
	<g>
		<g>
			<path d="M344.3,1858.3c8.7,0,15.6,2.2,20.6,6.6c5,4.4,7.5,10.6,7.5,18.5c0,8.1-2.5,14.3-7.4,18.6c-4.9,4.4-11.9,6.6-20.8,6.6
				c-8.9,0-15.8-2.2-20.7-6.6s-7.3-10.6-7.3-18.7c0-7.9,2.5-14,7.5-18.4C328.6,1860.5,335.5,1858.3,344.3,1858.3z M344.3,1901.9
				c7.4,0,13-1.6,16.8-4.7c3.8-3.2,5.7-7.7,5.7-13.7c0-6.1-1.9-10.6-5.7-13.7s-9.4-4.6-16.9-4.6c-7.4,0-12.9,1.5-16.7,4.6
				c-3.8,3.1-5.7,7.6-5.7,13.7c0,6.1,1.9,10.7,5.7,13.8C331.4,1900.3,337,1901.9,344.3,1901.9z"/>
			<path d="M317,1846.1v-15.4c0-7.3,1.1-12.5,3.3-15.7s5.6-4.9,10.3-4.9c3.2,0,5.9,0.9,8,2.7c2.1,1.8,3.5,4.4,4.1,7.9h0.4
				c1.4-8.3,5.8-12.4,13.1-12.4c4.9,0,8.7,1.7,11.4,5s4.1,7.9,4.1,13.9v19.1H317z M340.4,1839.8v-10.5c0-4.5-0.7-7.7-2.1-9.7
				c-1.4-2-3.8-3-7.1-3c-3.1,0-5.3,1.1-6.6,3.3c-1.4,2.2-2,5.7-2,10.5v9.3H340.4z M345.8,1839.8h20.5v-11.4c0-4.4-0.9-7.7-2.6-10
				c-1.7-2.2-4.4-3.3-8-3.3c-3.4,0-5.9,1.1-7.5,3.4c-1.6,2.3-2.4,5.8-2.4,10.4V1839.8z"/>
			<path d="M371.7,1766.1v30.5H317v-30.5h5.6v24.1h17.6v-22.7h5.6v22.7H366v-24.1H371.7z"/>
			<path d="M357.1,1723.1c4.8,0,8.6,1.7,11.3,5.2c2.7,3.5,4,8.2,4,14.2c0,6.5-0.8,11.5-2.5,15h-6.1c0.9-2.2,1.7-4.7,2.2-7.3
				c0.5-2.6,0.8-5.3,0.8-7.9c0-4.2-0.8-7.4-2.4-9.6c-1.6-2.1-3.8-3.2-6.7-3.2c-1.9,0-3.4,0.4-4.7,1.1c-1.2,0.8-2.3,2-3.3,3.8
				c-1,1.8-2.2,4.5-3.5,8.1c-1.8,5.1-4,8.7-6.5,10.9c-2.5,2.2-5.7,3.3-9.8,3.3c-4.2,0-7.6-1.6-10.1-4.7s-3.7-7.4-3.7-12.6
				c0-5.4,1-10.4,3-15l5.5,2c-1.9,4.5-2.8,8.9-2.8,13.2c0,3.4,0.7,6,2.2,7.9c1.4,1.9,3.5,2.8,6,2.8c1.9,0,3.4-0.3,4.7-1
				c1.2-0.7,2.3-1.9,3.3-3.5c1-1.7,2.1-4.2,3.3-7.6c2-5.7,4.2-9.7,6.6-11.8C350.4,1724.2,353.4,1723.1,357.1,1723.1z"/>
			<path d="M371.7,1711.9H317v-6.4h54.7V1711.9z"/>
			<path d="M371.7,1673.8v6.4h-49v17.3H317v-41h5.6v17.3H371.7z"/>
			<path d="M344.4,1634.3l-27.3-14.6v-6.9l33.5,18.2h21.2v6.4h-20.9l-33.8,18.2v-7L344.4,1634.3z"/>
			<path d="M349,1579.1h22.7v6.4H317v-15c0-6.7,1.3-11.7,3.9-14.9c2.6-3.2,6.4-4.8,11.6-4.8c7.2,0,12.1,3.7,14.7,11l24.6-14.8v7.5
				l-22.7,13.2V1579.1z M343.5,1579.1v-8.7c0-4.5-0.9-7.8-2.7-9.9c-1.8-2.1-4.5-3.1-8-3.1c-3.6,0-6.2,1.1-7.8,3.2
				c-1.6,2.1-2.4,5.6-2.4,10.3v8.3H343.5z"/>
			<path d="M371.7,1503.8l-17.4,6.8v21.9l17.4,6.7v6.4l-54.9-21.6v-5.3l54.9-21.5V1503.8z M348.6,1512.6l-16.9,6.4
				c-2.1,0.8-4.8,1.7-7.9,2.5c2.4,0.5,5,1.3,7.9,2.4l16.9,6.4V1512.6z"/>
			<path d="M371.7,1472.8v6.4h-49v17.3H317v-41h5.6v17.3H371.7z"/>
			<path d="M371.7,1416.8v30.5H317v-30.5h5.6v24.1h17.6v-22.7h5.6v22.7H366v-24.1H371.7z"/>
			<path d="M350.7,1389.3c-6.6,0-12.8-1-18.5-2.9s-10.8-4.7-15.1-8.4v-6.1c4.8,3.6,10.1,6.3,15.9,8.1c5.8,1.8,11.7,2.7,17.8,2.7
				c6,0,11.8-0.9,17.5-2.8c5.7-1.8,10.9-4.5,15.6-8v6c-4.2,3.7-9.2,6.5-14.8,8.4C363.3,1388.3,357.2,1389.3,350.7,1389.3z"/>
			<path d="M333.3,1343.5c5.7,0,10,1,12.9,2.9c2.9,1.9,4.4,4.7,4.4,8.4c0,3.5-1.5,6.2-4.4,8.1c-3,1.9-7.2,2.9-12.8,2.9
				c-5.7,0-9.9-0.9-12.8-2.8c-2.9-1.9-4.3-4.6-4.3-8.2c0-3.6,1.5-6.4,4.4-8.3C323.7,1344.5,327.9,1343.5,333.3,1343.5z M317,1320.2
				l54.7,30.3v5.5l-54.7-30.3V1320.2z M333.3,1360.7c4.2,0,7.4-0.5,9.5-1.4c2.1-0.9,3.2-2.4,3.2-4.5c0-4.1-4.2-6.1-12.7-6.1
				c-8.4,0-12.6,2-12.6,6.1c0,2.1,1,3.6,3.1,4.5S329.1,1360.7,333.3,1360.7z M355.2,1310.6c5.7,0,9.9,1,12.8,2.9
				c2.9,1.9,4.4,4.7,4.4,8.4c0,3.5-1.5,6.3-4.4,8.2c-3,1.9-7.2,2.9-12.7,2.9c-5.7,0-9.9-0.9-12.8-2.8c-2.9-1.9-4.3-4.6-4.3-8.2
				c0-3.5,1.5-6.3,4.4-8.3C345.5,1311.6,349.7,1310.6,355.2,1310.6z M355.2,1327.8c4.3,0,7.4-0.5,9.6-1.4c2.1-0.9,3.2-2.4,3.2-4.5
				c0-2.1-1-3.6-3.1-4.6c-2.1-1-5.3-1.5-9.6-1.5c-4.3,0-7.4,0.5-9.5,1.5c-2.1,1-3.1,2.5-3.1,4.6c0,2.1,1,3.6,3.1,4.5
				S351,1327.8,355.2,1327.8z"/>
			<path d="M350.7,1287.1c6.6,0,12.7,1,18.3,2.9c5.7,1.9,10.6,4.7,14.8,8.4v6c-4.7-3.5-9.9-6.1-15.6-8c-5.7-1.8-11.6-2.8-17.6-2.8
				c-6.1,0-12,0.9-17.8,2.7s-11,4.5-15.9,8.1v-6.1c4.4-3.7,9.4-6.5,15.2-8.4C338,1288,344.2,1287.1,350.7,1287.1z"/>
		</g>
	</g>
	<g>
		<path d="M448.8,1933.7h-9.5v-26.1l0.1-4.3l0.2-4.7c-1.6,1.6-2.7,2.6-3.3,3.1l-5.2,4.2l-4.6-5.7l14.6-11.6h7.8V1933.7z"/>
		<path d="M492.6,1911.2c0,7.9-1.3,13.7-3.9,17.5c-2.6,3.8-6.6,5.7-11.9,5.7c-5.2,0-9.1-2-11.8-5.9s-4-9.7-4-17.3
			c0-8,1.3-13.8,3.9-17.6c2.6-3.8,6.5-5.7,11.9-5.7c5.2,0,9.1,2,11.8,5.9C491.3,1897.8,492.6,1903.5,492.6,1911.2z M470.6,1911.2
			c0,5.5,0.5,9.5,1.4,11.9c1,2.4,2.6,3.6,4.8,3.6c2.2,0,3.8-1.2,4.8-3.6c1-2.4,1.5-6.4,1.5-11.9c0-5.5-0.5-9.5-1.5-11.9
			c-1-2.4-2.6-3.6-4.8-3.6c-2.2,0-3.9,1.2-4.8,3.6C471,1901.6,470.6,1905.6,470.6,1911.2z"/>
	</g>
	<g>
		<path d="M456.8,1625.8h-31.6v-6.6l11.3-11.5c3.4-3.4,5.6-5.8,6.6-7.2c1-1.3,1.8-2.6,2.2-3.7c0.5-1.1,0.7-2.3,0.7-3.5
			c0-1.8-0.5-3.2-1.5-4s-2.3-1.3-4-1.3c-1.8,0-3.5,0.4-5.1,1.2c-1.6,0.8-3.4,1.9-5.2,3.4l-5.2-6.1c2.2-1.9,4.1-3.2,5.5-4
			c1.5-0.8,3.1-1.4,4.8-1.8c1.7-0.4,3.7-0.6,5.8-0.6c2.8,0,5.3,0.5,7.5,1.5c2.2,1,3.8,2.5,5,4.3c1.2,1.9,1.8,4,1.8,6.4
			c0,2.1-0.4,4-1.1,5.9c-0.7,1.8-1.9,3.7-3.4,5.6c-1.5,1.9-4.2,4.6-8.1,8.2l-5.8,5.5v0.4h19.7V1625.8z"/>
		<path d="M492.6,1603.2c0,7.9-1.3,13.7-3.9,17.5c-2.6,3.8-6.6,5.7-11.9,5.7c-5.2,0-9.1-2-11.8-5.9s-4-9.7-4-17.3
			c0-8,1.3-13.8,3.9-17.6c2.6-3.8,6.5-5.7,11.9-5.7c5.2,0,9.1,2,11.8,5.9C491.3,1589.8,492.6,1595.6,492.6,1603.2z M470.6,1603.2
			c0,5.5,0.5,9.5,1.4,11.9c1,2.4,2.6,3.6,4.8,3.6c2.2,0,3.8-1.2,4.8-3.6c1-2.4,1.5-6.4,1.5-11.9c0-5.5-0.5-9.5-1.5-11.9
			c-1-2.4-2.6-3.6-4.8-3.6c-2.2,0-3.9,1.2-4.8,3.6C471,1593.7,470.6,1597.7,470.6,1603.2z"/>
	</g>
	<g>
		<path d="M452.9,1280.7c0,2.8-0.9,5.2-2.6,7.2c-1.7,2-4.1,3.3-7.2,4.1v0.2c3.6,0.5,6.4,1.6,8.3,3.3c1.9,1.8,2.8,4.1,2.8,7.1
			c0,4.3-1.6,7.7-4.7,10.1c-3.2,2.4-7.7,3.6-13.5,3.6c-4.9,0-9.2-0.8-13-2.4v-8.1c1.8,0.9,3.7,1.6,5.8,2.2c2.1,0.6,4.2,0.8,6.2,0.8
			c3.2,0,5.5-0.5,7-1.6c1.5-1.1,2.3-2.8,2.3-5.2c0-2.1-0.9-3.6-2.6-4.5c-1.7-0.9-4.5-1.3-8.3-1.3h-3.4v-7.3h3.5
			c3.5,0,6.1-0.5,7.7-1.4c1.6-0.9,2.4-2.5,2.4-4.7c0-3.4-2.1-5.1-6.4-5.1c-1.5,0-3,0.2-4.5,0.7s-3.2,1.3-5.1,2.6l-4.4-6.6
			c4.1-3,9-4.4,14.7-4.4c4.7,0,8.4,0.9,11.1,2.8C451.6,1274.7,452.9,1277.4,452.9,1280.7z"/>
		<path d="M490.5,1293.2c0,7.9-1.3,13.7-3.9,17.5c-2.6,3.8-6.6,5.7-11.9,5.7c-5.2,0-9.1-2-11.8-5.9s-4-9.7-4-17.3
			c0-8,1.3-13.8,3.9-17.6c2.6-3.8,6.5-5.7,11.9-5.7c5.2,0,9.1,2,11.8,5.9C489.2,1279.8,490.5,1285.6,490.5,1293.2z M468.4,1293.2
			c0,5.5,0.5,9.5,1.4,11.9c1,2.4,2.6,3.6,4.8,3.6c2.2,0,3.8-1.2,4.8-3.6c1-2.4,1.5-6.4,1.5-11.9c0-5.5-0.5-9.5-1.5-11.9
			c-1-2.4-2.6-3.6-4.8-3.6c-2.2,0-3.9,1.2-4.8,3.6C468.9,1283.7,468.4,1287.7,468.4,1293.2z"/>
	</g>
	<g>
		<path d="M455.7,1004.9h-5.4v9.4h-9.3v-9.4h-19.3v-6.6l19.8-29.2h8.8v28.4h5.4V1004.9z M440.9,997.4v-7.7c0-1.3,0.1-3.1,0.2-5.6
			c0.1-2.4,0.2-3.8,0.2-4.2h-0.2c-0.8,1.7-1.7,3.3-2.7,4.9l-8.3,12.5H440.9z"/>
		<path d="M490.5,991.6c0,7.9-1.3,13.7-3.9,17.5c-2.6,3.8-6.6,5.7-11.9,5.7c-5.2,0-9.1-2-11.8-5.9c-2.6-3.9-4-9.7-4-17.3
			c0-8,1.3-13.8,3.9-17.6c2.6-3.8,6.5-5.7,11.9-5.7c5.2,0,9.1,2,11.8,5.9C489.2,978.2,490.5,984,490.5,991.6z M468.4,991.6
			c0,5.5,0.5,9.5,1.4,11.9c1,2.4,2.6,3.6,4.8,3.6c2.2,0,3.8-1.2,4.8-3.6c1-2.4,1.5-6.4,1.5-11.9c0-5.5-0.5-9.5-1.5-11.9
			c-1-2.4-2.6-3.6-4.8-3.6c-2.2,0-3.9,1.2-4.8,3.6C468.9,982.1,468.4,986.1,468.4,991.6z"/>
	</g>
	<g>
		<path d="M488.9,2307h-9.5v-26.1l0.1-4.3l0.2-4.7c-1.6,1.6-2.7,2.6-3.3,3.1l-5.2,4.2l-4.6-5.7l14.6-11.6h7.8V2307z"/>
		<path d="M532.8,2281.1c0,8.9-1.9,15.5-5.6,19.9c-3.7,4.4-9.4,6.6-17,6.6c-2.7,0-4.7-0.1-6.1-0.4v-7.7c1.7,0.4,3.5,0.6,5.4,0.6
			c3.2,0,5.8-0.5,7.9-1.4c2.1-0.9,3.6-2.4,4.7-4.4c1.1-2,1.7-4.8,1.9-8.3h-0.4c-1.2,1.9-2.6,3.3-4.1,4.1c-1.6,0.8-3.5,1.2-5.9,1.2
			c-3.9,0-7-1.3-9.3-3.8c-2.3-2.5-3.4-6-3.4-10.5c0-4.8,1.4-8.7,4.1-11.5c2.7-2.8,6.5-4.2,11.2-4.2c3.3,0,6.3,0.8,8.8,2.3
			c2.5,1.6,4.4,3.8,5.8,6.8C532.1,2273.5,532.8,2277,532.8,2281.1z M516.4,2269c-2,0-3.5,0.7-4.6,2c-1.1,1.4-1.7,3.3-1.7,5.9
			c0,2.2,0.5,3.9,1.5,5.2c1,1.3,2.5,1.9,4.6,1.9c1.9,0,3.6-0.6,5-1.9s2.1-2.7,2.1-4.4c0-2.5-0.6-4.5-1.9-6.2
			C520.1,2269.8,518.4,2269,516.4,2269z"/>
		<path d="M537.2,2287.8c0-8.9,1.9-15.6,5.7-20s9.4-6.5,17-6.5c2.6,0,4.6,0.2,6.1,0.5v7.6c-1.8-0.4-3.6-0.6-5.4-0.6
			c-3.3,0-5.9,0.5-8,1.5c-2.1,1-3.6,2.5-4.6,4.4c-1,1.9-1.6,4.7-1.8,8.2h0.4c2-3.5,5.3-5.3,9.8-5.3c4,0,7.2,1.3,9.5,3.8
			s3.4,6,3.4,10.5c0,4.8-1.4,8.6-4.1,11.4c-2.7,2.8-6.5,4.2-11.3,4.2c-3.3,0-6.2-0.8-8.7-2.3c-2.5-1.5-4.4-3.8-5.7-6.8
			C537.9,2295.6,537.2,2292,537.2,2287.8z M553.5,2300c2,0,3.6-0.7,4.7-2.1c1.1-1.4,1.6-3.3,1.6-5.9c0-2.2-0.5-3.9-1.5-5.2
			s-2.6-1.9-4.6-1.9c-1.9,0-3.6,0.6-5,1.9c-1.4,1.3-2.1,2.7-2.1,4.4c0,2.5,0.6,4.5,1.9,6.2C549.9,2299.2,551.5,2300,553.5,2300z"/>
		<path d="M604.9,2284.4c0,7.9-1.3,13.7-3.9,17.5c-2.6,3.8-6.6,5.7-11.9,5.7c-5.2,0-9.1-2-11.8-5.9s-4-9.7-4-17.3
			c0-8,1.3-13.8,3.9-17.6c2.6-3.8,6.5-5.7,11.9-5.7c5.2,0,9.1,2,11.8,5.9C603.6,2271,604.9,2276.8,604.9,2284.4z M582.9,2284.4
			c0,5.5,0.5,9.5,1.4,11.9c1,2.4,2.6,3.6,4.8,3.6c2.2,0,3.8-1.2,4.8-3.6c1-2.4,1.5-6.4,1.5-11.9c0-5.5-0.5-9.5-1.5-11.9
			c-1-2.4-2.6-3.6-4.8-3.6c-2.2,0-3.9,1.2-4.8,3.6C583.3,2274.9,582.9,2278.9,582.9,2284.4z"/>
	</g>
	<g>
		<path d="M788.4,2307h-9.5v-26.1l0.1-4.3l0.2-4.7c-1.6,1.6-2.7,2.6-3.3,3.1l-5.2,4.2l-4.6-5.7l14.6-11.6h7.8V2307z"/>
		<path d="M832.3,2281.1c0,8.9-1.9,15.5-5.6,19.9c-3.7,4.4-9.4,6.6-17,6.6c-2.7,0-4.7-0.1-6.1-0.4v-7.7c1.7,0.4,3.5,0.6,5.4,0.6
			c3.2,0,5.8-0.5,7.9-1.4c2.1-0.9,3.6-2.4,4.7-4.4c1.1-2,1.7-4.8,1.9-8.3h-0.4c-1.2,1.9-2.6,3.3-4.1,4.1c-1.6,0.8-3.5,1.2-5.9,1.2
			c-3.9,0-7-1.3-9.3-3.8c-2.3-2.5-3.4-6-3.4-10.5c0-4.8,1.4-8.7,4.1-11.5c2.7-2.8,6.5-4.2,11.2-4.2c3.3,0,6.3,0.8,8.8,2.3
			c2.5,1.6,4.4,3.8,5.8,6.8C831.6,2273.5,832.3,2277,832.3,2281.1z M815.9,2269c-2,0-3.5,0.7-4.6,2c-1.1,1.4-1.7,3.3-1.7,5.9
			c0,2.2,0.5,3.9,1.5,5.2c1,1.3,2.5,1.9,4.6,1.9c1.9,0,3.6-0.6,5-1.9s2.1-2.7,2.1-4.4c0-2.5-0.6-4.5-1.9-6.2
			C819.6,2269.8,817.9,2269,815.9,2269z"/>
		<path d="M841.5,2307l17-37.1h-22.3v-8h32.4v6l-17.1,39.1H841.5z"/>
		<path d="M904.4,2284.4c0,7.9-1.3,13.7-3.9,17.5c-2.6,3.8-6.6,5.7-11.9,5.7c-5.2,0-9.1-2-11.8-5.9s-4-9.7-4-17.3
			c0-8,1.3-13.8,3.9-17.6c2.6-3.8,6.5-5.7,11.9-5.7c5.2,0,9.1,2,11.8,5.9C903.1,2271,904.4,2276.8,904.4,2284.4z M882.3,2284.4
			c0,5.5,0.5,9.5,1.4,11.9c1,2.4,2.6,3.6,4.8,3.6c2.2,0,3.8-1.2,4.8-3.6c1-2.4,1.5-6.4,1.5-11.9c0-5.5-0.5-9.5-1.5-11.9
			c-1-2.4-2.6-3.6-4.8-3.6c-2.2,0-3.9,1.2-4.8,3.6C882.8,2274.9,882.3,2278.9,882.3,2284.4z"/>
	</g>
	<g>
		<path d="M1083.6,2307h-9.5v-26.1l0.1-4.3l0.2-4.7c-1.6,1.6-2.7,2.6-3.3,3.1l-5.2,4.2l-4.6-5.7l14.6-11.6h7.8V2307z"/>
		<path d="M1127.5,2281.1c0,8.9-1.9,15.5-5.6,19.9c-3.7,4.4-9.4,6.6-17,6.6c-2.7,0-4.7-0.1-6.1-0.4v-7.7c1.7,0.4,3.5,0.6,5.4,0.6
			c3.2,0,5.8-0.5,7.9-1.4c2.1-0.9,3.6-2.4,4.7-4.4c1.1-2,1.7-4.8,1.9-8.3h-0.4c-1.2,1.9-2.6,3.3-4.1,4.1c-1.6,0.8-3.5,1.2-5.9,1.2
			c-3.9,0-7-1.3-9.3-3.8c-2.3-2.5-3.4-6-3.4-10.5c0-4.8,1.4-8.7,4.1-11.5c2.7-2.8,6.5-4.2,11.2-4.2c3.3,0,6.3,0.8,8.8,2.3
			c2.5,1.6,4.4,3.8,5.8,6.8C1126.8,2273.5,1127.5,2277,1127.5,2281.1z M1111.2,2269c-2,0-3.5,0.7-4.6,2c-1.1,1.4-1.7,3.3-1.7,5.9
			c0,2.2,0.5,3.9,1.5,5.2c1,1.3,2.5,1.9,4.6,1.9c1.9,0,3.6-0.6,5-1.9s2.1-2.7,2.1-4.4c0-2.5-0.6-4.5-1.9-6.2
			C1114.8,2269.8,1113.2,2269,1111.2,2269z"/>
		<path d="M1147.8,2261.3c4.3,0,7.8,1,10.5,3c2.6,2,4,4.6,4,8c0,2.3-0.6,4.4-1.9,6.2c-1.3,1.8-3.3,3.4-6.2,4.8
			c3.4,1.8,5.8,3.7,7.3,5.7c1.5,2,2.2,4.1,2.2,6.5c0,3.7-1.5,6.7-4.4,8.9c-2.9,2.3-6.7,3.4-11.5,3.4c-4.9,0-8.8-1.1-11.6-3.2
			s-4.2-5.1-4.2-8.9c0-2.6,0.7-4.9,2.1-6.9c1.4-2,3.6-3.8,6.6-5.3c-2.6-1.6-4.4-3.4-5.6-5.2s-1.7-3.9-1.7-6.1c0-3.2,1.3-5.8,4-7.8
			C1140,2262.3,1143.5,2261.3,1147.8,2261.3z M1140.8,2295c0,1.8,0.6,3.2,1.9,4.1c1.2,1,2.9,1.5,5.1,1.5c2.4,0,4.1-0.5,5.3-1.5
			s1.8-2.4,1.8-4c0-1.4-0.6-2.7-1.7-3.9c-1.2-1.2-3.1-2.5-5.7-3.8C1143,2289.4,1140.8,2291.9,1140.8,2295z M1147.7,2268.3
			c-1.6,0-2.9,0.4-3.9,1.3c-1,0.8-1.5,2-1.5,3.4c0,1.2,0.4,2.3,1.2,3.3c0.8,1,2.2,2,4.3,3c2-0.9,3.4-1.9,4.2-2.9
			c0.8-1,1.2-2.1,1.2-3.4c0-1.4-0.5-2.5-1.5-3.4C1150.7,2268.7,1149.4,2268.3,1147.7,2268.3z"/>
		<path d="M1199.7,2284.4c0,7.9-1.3,13.7-3.9,17.5c-2.6,3.8-6.6,5.7-11.9,5.7c-5.2,0-9.1-2-11.8-5.9s-4-9.7-4-17.3
			c0-8,1.3-13.8,3.9-17.6c2.6-3.8,6.5-5.7,11.9-5.7c5.2,0,9.1,2,11.8,5.9C1198.3,2271,1199.7,2276.8,1199.7,2284.4z M1177.6,2284.4
			c0,5.5,0.5,9.5,1.4,11.9c1,2.4,2.6,3.6,4.8,3.6c2.2,0,3.8-1.2,4.8-3.6c1-2.4,1.5-6.4,1.5-11.9c0-5.5-0.5-9.5-1.5-11.9
			c-1-2.4-2.6-3.6-4.8-3.6c-2.2,0-3.9,1.2-4.8,3.6C1178.1,2274.9,1177.6,2278.9,1177.6,2284.4z"/>
	</g>
	<g>
		<path d="M1393.6,2307h-9.5v-26.1l0.1-4.3l0.2-4.7c-1.6,1.6-2.7,2.6-3.3,3.1l-5.2,4.2l-4.6-5.7l14.6-11.6h7.8V2307z"/>
		<path d="M1437.5,2281.1c0,8.9-1.9,15.5-5.6,19.9c-3.7,4.4-9.4,6.6-17,6.6c-2.7,0-4.7-0.1-6.1-0.4v-7.7c1.7,0.4,3.5,0.6,5.4,0.6
			c3.2,0,5.8-0.5,7.9-1.4c2.1-0.9,3.6-2.4,4.7-4.4c1.1-2,1.7-4.8,1.9-8.3h-0.4c-1.2,1.9-2.6,3.3-4.1,4.1c-1.6,0.8-3.5,1.2-5.9,1.2
			c-3.9,0-7-1.3-9.3-3.8c-2.3-2.5-3.4-6-3.4-10.5c0-4.8,1.4-8.7,4.1-11.5c2.8-2.8,6.5-4.2,11.2-4.2c3.3,0,6.3,0.8,8.8,2.3
			c2.5,1.6,4.4,3.8,5.8,6.8C1436.9,2273.5,1437.5,2277,1437.5,2281.1z M1421.2,2269c-2,0-3.5,0.7-4.6,2c-1.1,1.4-1.7,3.3-1.7,5.9
			c0,2.2,0.5,3.9,1.5,5.2c1,1.3,2.5,1.9,4.6,1.9c1.9,0,3.6-0.6,5-1.9c1.4-1.3,2.1-2.7,2.1-4.4c0-2.5-0.6-4.5-1.9-6.2
			S1423.2,2269,1421.2,2269z"/>
		<path d="M1473.6,2281.1c0,8.9-1.9,15.5-5.6,19.9c-3.7,4.4-9.4,6.6-17,6.6c-2.7,0-4.7-0.1-6.1-0.4v-7.7c1.7,0.4,3.5,0.6,5.4,0.6
			c3.2,0,5.8-0.5,7.9-1.4c2.1-0.9,3.6-2.4,4.7-4.4c1.1-2,1.7-4.8,1.9-8.3h-0.4c-1.2,1.9-2.6,3.3-4.1,4.1c-1.6,0.8-3.5,1.2-5.9,1.2
			c-3.9,0-7-1.3-9.3-3.8c-2.3-2.5-3.4-6-3.4-10.5c0-4.8,1.4-8.7,4.1-11.5c2.8-2.8,6.5-4.2,11.2-4.2c3.3,0,6.3,0.8,8.8,2.3
			c2.5,1.6,4.4,3.8,5.8,6.8C1473,2273.5,1473.6,2277,1473.6,2281.1z M1457.3,2269c-2,0-3.5,0.7-4.6,2c-1.1,1.4-1.7,3.3-1.7,5.9
			c0,2.2,0.5,3.9,1.5,5.2c1,1.3,2.5,1.9,4.6,1.9c1.9,0,3.6-0.6,5-1.9c1.4-1.3,2.1-2.7,2.1-4.4c0-2.5-0.6-4.5-1.9-6.2
			S1459.3,2269,1457.3,2269z"/>
		<path d="M1509.7,2284.4c0,7.9-1.3,13.7-3.9,17.5c-2.6,3.8-6.6,5.7-11.9,5.7c-5.2,0-9.1-2-11.8-5.9s-4-9.7-4-17.3
			c0-8,1.3-13.8,3.9-17.6c2.6-3.8,6.5-5.7,11.9-5.7c5.2,0,9.1,2,11.8,5.9S1509.7,2276.8,1509.7,2284.4z M1487.6,2284.4
			c0,5.5,0.5,9.5,1.4,11.9c1,2.4,2.6,3.6,4.8,3.6c2.2,0,3.8-1.2,4.8-3.6c1-2.4,1.5-6.4,1.5-11.9c0-5.5-0.5-9.5-1.5-11.9
			c-1-2.4-2.6-3.6-4.8-3.6c-2.2,0-3.9,1.2-4.8,3.6C1488.1,2274.9,1487.6,2278.9,1487.6,2284.4z"/>
	</g>
	<g>
		<path d="M1726.4,2307h-31.6v-6.6l11.3-11.5c3.4-3.4,5.5-5.8,6.6-7.2c1-1.3,1.8-2.6,2.2-3.7c0.5-1.1,0.7-2.3,0.7-3.5
			c0-1.8-0.5-3.2-1.5-4c-1-0.9-2.3-1.3-4-1.3c-1.8,0-3.5,0.4-5.1,1.2c-1.6,0.8-3.4,1.9-5.2,3.4l-5.2-6.1c2.2-1.9,4.1-3.2,5.5-4
			c1.5-0.8,3.1-1.4,4.8-1.8c1.7-0.4,3.7-0.6,5.8-0.6c2.8,0,5.3,0.5,7.5,1.5c2.2,1,3.8,2.5,5,4.3s1.8,4,1.8,6.4c0,2.1-0.4,4-1.1,5.9
			c-0.7,1.8-1.9,3.7-3.4,5.6c-1.5,1.9-4.2,4.6-8.1,8.2l-5.8,5.5v0.4h19.7V2307z"/>
		<path d="M1762.3,2284.4c0,7.9-1.3,13.7-3.9,17.5c-2.6,3.8-6.6,5.7-11.9,5.7c-5.2,0-9.1-2-11.8-5.9s-4-9.7-4-17.3
			c0-8,1.3-13.8,3.9-17.6c2.6-3.8,6.5-5.7,11.9-5.7c5.2,0,9.1,2,11.8,5.9S1762.3,2276.8,1762.3,2284.4z M1740.2,2284.4
			c0,5.5,0.5,9.5,1.4,11.9c1,2.4,2.6,3.6,4.8,3.6c2.2,0,3.8-1.2,4.8-3.6c1-2.4,1.5-6.4,1.5-11.9c0-5.5-0.5-9.5-1.5-11.9
			c-1-2.4-2.6-3.6-4.8-3.6c-2.2,0-3.9,1.2-4.8,3.6C1740.7,2274.9,1740.2,2278.9,1740.2,2284.4z"/>
		<path d="M1798.4,2284.4c0,7.9-1.3,13.7-3.9,17.5c-2.6,3.8-6.6,5.7-11.9,5.7c-5.2,0-9.1-2-11.8-5.9s-4-9.7-4-17.3
			c0-8,1.3-13.8,3.9-17.6c2.6-3.8,6.5-5.7,11.9-5.7c5.2,0,9.1,2,11.8,5.9S1798.4,2276.8,1798.4,2284.4z M1776.3,2284.4
			c0,5.5,0.5,9.5,1.4,11.9c1,2.4,2.6,3.6,4.8,3.6c2.2,0,3.8-1.2,4.8-3.6c1-2.4,1.5-6.4,1.5-11.9c0-5.5-0.5-9.5-1.5-11.9
			c-1-2.4-2.6-3.6-4.8-3.6c-2.2,0-3.9,1.2-4.8,3.6C1776.8,2274.9,1776.3,2278.9,1776.3,2284.4z"/>
		<path d="M1834.5,2284.4c0,7.9-1.3,13.7-3.9,17.5c-2.6,3.8-6.6,5.7-11.9,5.7c-5.2,0-9.1-2-11.8-5.9s-4-9.7-4-17.3
			c0-8,1.3-13.8,3.9-17.6c2.6-3.8,6.5-5.7,11.9-5.7c5.2,0,9.1,2,11.8,5.9S1834.5,2276.8,1834.5,2284.4z M1812.4,2284.4
			c0,5.5,0.5,9.5,1.4,11.9c1,2.4,2.6,3.6,4.8,3.6c2.2,0,3.8-1.2,4.8-3.6c1-2.4,1.5-6.4,1.5-11.9c0-5.5-0.5-9.5-1.5-11.9
			c-1-2.4-2.6-3.6-4.8-3.6c-2.2,0-3.9,1.2-4.8,3.6C1812.9,2274.9,1812.4,2278.9,1812.4,2284.4z"/>
	</g>
	<g>
		<path d="M2009,2307h-31.6v-6.6l11.3-11.5c3.4-3.4,5.5-5.8,6.6-7.2c1-1.3,1.8-2.6,2.2-3.7c0.5-1.1,0.7-2.3,0.7-3.5
			c0-1.8-0.5-3.2-1.5-4c-1-0.9-2.3-1.3-4-1.3c-1.8,0-3.5,0.4-5.1,1.2c-1.6,0.8-3.4,1.9-5.2,3.4l-5.2-6.1c2.2-1.9,4.1-3.2,5.5-4
			c1.5-0.8,3.1-1.4,4.8-1.8c1.7-0.4,3.7-0.6,5.8-0.6c2.8,0,5.3,0.5,7.5,1.5c2.2,1,3.8,2.5,5,4.3s1.8,4,1.8,6.4c0,2.1-0.4,4-1.1,5.9
			c-0.7,1.8-1.9,3.7-3.4,5.6c-1.5,1.9-4.2,4.6-8.1,8.2l-5.8,5.5v0.4h19.7V2307z"/>
		<path d="M2044.9,2284.4c0,7.9-1.3,13.7-3.9,17.5c-2.6,3.8-6.6,5.7-11.9,5.7c-5.2,0-9.1-2-11.8-5.9s-4-9.7-4-17.3
			c0-8,1.3-13.8,3.9-17.6c2.6-3.8,6.5-5.7,11.9-5.7c5.2,0,9.1,2,11.8,5.9S2044.9,2276.8,2044.9,2284.4z M2022.8,2284.4
			c0,5.5,0.5,9.5,1.4,11.9c1,2.4,2.6,3.6,4.8,3.6c2.2,0,3.8-1.2,4.8-3.6c1-2.4,1.5-6.4,1.5-11.9c0-5.5-0.5-9.5-1.5-11.9
			c-1-2.4-2.6-3.6-4.8-3.6c-2.2,0-3.9,1.2-4.8,3.6C2023.3,2274.9,2022.8,2278.9,2022.8,2284.4z"/>
		<path d="M2073.3,2307h-9.5v-26.1l0.1-4.3l0.2-4.7c-1.6,1.6-2.7,2.6-3.3,3.1l-5.2,4.2l-4.6-5.7l14.6-11.6h7.8V2307z"/>
		<path d="M2117.1,2284.4c0,7.9-1.3,13.7-3.9,17.5c-2.6,3.8-6.6,5.7-11.9,5.7c-5.2,0-9.1-2-11.8-5.9s-4-9.7-4-17.3
			c0-8,1.3-13.8,3.9-17.6c2.6-3.8,6.5-5.7,11.9-5.7c5.2,0,9.1,2,11.8,5.9S2117.1,2276.8,2117.1,2284.4z M2095,2284.4
			c0,5.5,0.5,9.5,1.4,11.9c1,2.4,2.6,3.6,4.8,3.6c2.2,0,3.8-1.2,4.8-3.6c1-2.4,1.5-6.4,1.5-11.9c0-5.5-0.5-9.5-1.5-11.9
			c-1-2.4-2.6-3.6-4.8-3.6c-2.2,0-3.9,1.2-4.8,3.6C2095.5,2274.9,2095,2278.9,2095,2284.4z"/>
	</g>
	<g>
		<path d="M693.9,933.9c0,9.2-2.3,16.2-6.8,21c-4.5,4.8-11.1,7.2-19.8,7.2c-8.6,0-15.1-2.4-19.7-7.2c-4.6-4.8-6.9-11.8-6.9-21
			c0-9.1,2.3-16,6.8-20.8c4.5-4.8,11.2-7.2,19.8-7.2c8.7,0,15.3,2.4,19.8,7.1C691.7,917.7,693.9,924.7,693.9,933.9z M656.3,933.9
			c0,10.6,3.7,15.9,11,15.9c3.7,0,6.5-1.3,8.3-3.9c1.8-2.6,2.7-6.6,2.7-12c0-5.5-0.9-9.5-2.7-12.1s-4.6-3.9-8.2-3.9
			C660,917.9,656.3,923.3,656.3,933.9z"/>
		<path d="M703.8,906.7h19.1c7.4,0,12.9,1.1,16.5,3.3c3.6,2.2,5.4,5.6,5.4,10.3c0,3.1-0.8,5.7-2.4,7.9s-3.6,3.6-6.2,4.2v0.4
			c3.4,0.9,5.8,2.4,7.4,4.5c1.5,2.1,2.3,4.8,2.3,8.2c0,5-1.9,8.9-5.6,11.7c-3.7,2.9-8.8,4.3-15.2,4.3h-21.3V906.7z M718.5,927.6h4.4
			c2.1,0,3.8-0.4,4.9-1.3c1.2-0.9,1.7-2.2,1.7-3.9c0-3.1-2.3-4.6-7-4.6h-4.1V927.6z M718.5,938.4v11.5h5.2c4.6,0,6.9-1.9,6.9-5.8
			c0-1.8-0.6-3.2-1.9-4.2c-1.2-1-3-1.5-5.4-1.5H718.5z"/>
		<path d="M787.8,961.3h-32.5v-54.7h32.5v11.9h-17.7v8.6h16.4V939h-16.4v10.3h17.7V961.3z"/>
		<path d="M833.1,944.7c0,3.4-0.9,6.4-2.6,9c-1.7,2.6-4.2,4.7-7.4,6.1c-3.2,1.5-7,2.2-11.4,2.2c-3.6,0-6.7-0.3-9.2-0.8
			c-2.5-0.5-5-1.4-7.7-2.7v-13.2c2.8,1.4,5.7,2.6,8.8,3.4c3,0.8,5.8,1.2,8.4,1.2c2.2,0,3.8-0.4,4.8-1.1c1-0.8,1.5-1.7,1.5-2.9
			c0-0.7-0.2-1.4-0.6-2s-1.1-1.1-2-1.7c-0.9-0.6-3.3-1.7-7.3-3.5c-3.6-1.6-6.2-3.2-8-4.7c-1.8-1.5-3.1-3.3-4-5.2
			c-0.9-2-1.3-4.3-1.3-7c0-5,1.8-9,5.5-11.8c3.7-2.8,8.7-4.2,15.1-4.2c5.7,0,11.4,1.3,17.3,3.9l-4.5,11.4c-5.1-2.3-9.5-3.5-13.2-3.5
			c-1.9,0-3.3,0.3-4.2,1c-0.9,0.7-1.3,1.5-1.3,2.5c0,1.1,0.6,2,1.7,2.9c1.1,0.8,4.1,2.4,9,4.6c4.7,2.1,8,4.4,9.8,6.8
			C832.2,938,833.1,941,833.1,944.7z"/>
		<path d="M841.6,961.3v-54.7h14.8v54.7H841.6z"/>
		<path d="M892.4,961.3h-14.8v-42.6h-13.3v-12.1h41.4v12.1h-13.3V961.3z"/>
		<path d="M933,926.9l9.4-20.3h16l-18,33.3v21.3h-14.9v-20.9l-18-33.8h16.1L933,926.9z"/>
		<path d="M999,941.4v19.9h-14.8v-54.7h17.9c14.9,0,22.3,5.4,22.3,16.2c0,6.3-3.1,11.2-9.3,14.7l15.9,23.8h-16.7l-11.6-19.9H999z
			 M999,930.3h2.8c5.2,0,7.7-2.3,7.7-6.8c0-3.8-2.5-5.6-7.6-5.6H999V930.3z"/>
		<path d="M1069.6,961.3l-2.7-10.2h-17.8l-2.8,10.2h-16.2l17.8-54.9h19.7l18.1,54.9H1069.6z M1063.8,939l-2.4-9
			c-0.5-2-1.2-4.6-2-7.7c-0.8-3.2-1.3-5.4-1.6-6.8c-0.2,1.3-0.7,3.4-1.3,6.3c-0.7,2.9-2.1,8.7-4.4,17.2H1063.8z"/>
		<path d="M1115.7,961.3H1101v-42.6h-13.3v-12.1h41.4v12.1h-13.3V961.3z"/>
		<path d="M1169.3,961.3h-32.5v-54.7h32.5v11.9h-17.7v8.6h16.4V939h-16.4v10.3h17.7V961.3z"/>
		<path d="M1214.6,944.7c0,3.4-0.9,6.4-2.6,9c-1.7,2.6-4.2,4.7-7.4,6.1c-3.2,1.5-7,2.2-11.4,2.2c-3.6,0-6.7-0.3-9.2-0.8
			c-2.5-0.5-5-1.4-7.7-2.7v-13.2c2.8,1.4,5.7,2.6,8.8,3.4c3,0.8,5.8,1.2,8.4,1.2c2.2,0,3.8-0.4,4.8-1.1c1-0.8,1.5-1.7,1.5-2.9
			c0-0.7-0.2-1.4-0.6-2s-1.1-1.1-2-1.7c-0.9-0.6-3.3-1.7-7.3-3.5c-3.6-1.6-6.2-3.2-8-4.7c-1.8-1.5-3.1-3.3-4-5.2
			c-0.9-2-1.3-4.3-1.3-7c0-5,1.8-9,5.5-11.8c3.7-2.8,8.7-4.2,15.1-4.2c5.7,0,11.4,1.3,17.3,3.9l-4.5,11.4c-5.1-2.3-9.5-3.5-13.2-3.5
			c-1.9,0-3.3,0.3-4.2,1c-0.9,0.7-1.3,1.5-1.3,2.5c0,1.1,0.6,2,1.7,2.9c1.1,0.8,4.1,2.4,9,4.6c4.7,2.1,8,4.4,9.8,6.8
			C1213.7,938,1214.6,941,1214.6,944.7z"/>
		<path d="M1289.8,961.3H1275V939h-17.2v22.3H1243v-54.7h14.8v20.3h17.2v-20.3h14.8V961.3z"/>
		<path d="M1335.2,961.3l-2.7-10.2h-17.8l-2.8,10.2h-16.2l17.8-54.9h19.7l18.1,54.9H1335.2z M1329.4,939l-2.4-9
			c-0.5-2-1.2-4.6-2-7.7c-0.8-3.2-1.3-5.4-1.6-6.8c-0.2,1.3-0.7,3.4-1.3,6.3s-2.1,8.7-4.4,17.2H1329.4z"/>
		<path d="M1387.9,906.7h16.5l-17.9,54.7h-17.4l-17.8-54.7h16.6l7.4,27.7c1.5,6.2,2.4,10.4,2.5,12.9c0.2-1.7,0.5-3.9,1-6.5
			c0.5-2.6,1-4.7,1.4-6.2L1387.9,906.7z"/>
		<path d="M1442.8,961.3h-32.5v-54.7h32.5v11.9h-17.7v8.6h16.4V939h-16.4v10.3h17.7V961.3z"/>
		<path d="M1496.4,961.3h-14.8v-42.6h-13.3v-12.1h41.4v12.1h-13.3V961.3z"/>
		<path d="M1532.3,941.4v19.9h-14.8v-54.7h17.9c14.9,0,22.3,5.4,22.3,16.2c0,6.3-3.1,11.2-9.3,14.7l15.9,23.8h-16.7l-11.6-19.9
			H1532.3z M1532.3,930.3h2.8c5.2,0,7.7-2.3,7.7-6.8c0-3.8-2.5-5.6-7.6-5.6h-2.9V930.3z"/>
		<path d="M1569.3,961.3v-54.7h14.8v54.7H1569.3z"/>
		<path d="M1635.6,924.1c0,6.1-1.8,10.8-5.4,14.2c-3.6,3.3-8.7,5-15.3,5h-4.1v18.1H1596v-54.7h18.9c6.9,0,12.1,1.5,15.6,4.5
			C1633.9,914.2,1635.6,918.5,1635.6,924.1z M1610.7,931.2h2.7c2.2,0,4-0.6,5.3-1.9c1.3-1.2,2-3,2-5.2c0-3.7-2-5.5-6.1-5.5h-3.8
			V931.2z"/>
		<path d="M1644.3,961.3v-54.7h14.8v42.7h21v11.9H1644.3z"/>
		<path d="M1721.4,961.3h-32.5v-54.7h32.5v11.9h-17.7v8.6h16.4V939h-16.4v10.3h17.7V961.3z"/>
		<path d="M1777.3,932.8c0,9.1-2.5,16.2-7.5,21.1s-12.1,7.4-21.2,7.4h-17.7v-54.7h18.9c8.8,0,15.5,2.2,20.3,6.7
			C1774.9,917.9,1777.3,924.4,1777.3,932.8z M1762,933.4c0-5-1-8.7-3-11.1c-2-2.4-5-3.6-9-3.6h-4.3v30.6h3.3c4.5,0,7.8-1.3,9.9-3.9
			C1760.9,942.7,1762,938.7,1762,933.4z"/>
		<path d="M1807,961.3v-54.7h14.8v54.7H1807z"/>
		<path d="M1885.7,961.3h-19.4l-20-38.5h-0.3c0.5,6.1,0.7,10.7,0.7,13.9v24.6h-13.1v-54.7h19.3l19.9,38h0.2
			c-0.3-5.5-0.5-9.9-0.5-13.3v-24.7h13.2V961.3z"/>
		<path fill="#EE4085" d="M1964.5,904.7c0,4.5-1.4,8.3-4.1,11.5s-6.7,5.5-11.9,7v0.3c12.1,1.5,18.1,7.2,18.1,17.1
			c0,6.7-2.7,12-8,15.9c-5.3,3.9-12.7,5.8-22.2,5.8c-3.9,0-7.5-0.3-10.8-0.8c-3.3-0.6-6.9-1.6-10.8-3.1v-16.2
			c3.2,1.6,6.4,2.8,9.7,3.6c3.3,0.8,6.3,1.2,9.1,1.2c4.3,0,7.4-0.6,9.4-1.8c2-1.2,2.9-3.1,2.9-5.7c0-2-0.5-3.5-1.5-4.6
			c-1-1.1-2.7-1.9-4.9-2.4c-2.3-0.5-5.2-0.8-8.9-0.8h-4.4V917h4.5c9.9,0,14.9-2.5,14.9-7.6c0-1.9-0.7-3.3-2.2-4.3
			c-1.5-0.9-3.4-1.4-5.9-1.4c-4.6,0-9.4,1.5-14.3,4.6l-8.1-13c3.8-2.6,7.7-4.5,11.7-5.6c4-1.1,8.6-1.7,13.8-1.7
			c7.5,0,13.3,1.5,17.6,4.4S1964.5,899.5,1964.5,904.7z"/>
	</g>
</g>
</svg>
