<?xml version="1.0" encoding="utf-8"?>
<!-- Generator: Adobe Illustrator 18.1.1, SVG Export Plug-In . SVG Version: 6.00 Build 0)  -->
<!DOCTYPE svg PUBLIC "-//W3C//DTD SVG 1.1//EN" "http://www.w3.org/Graphics/SVG/1.1/DTD/svg11.dtd">
<svg version="1.1" id="Layer_1" xmlns="http://www.w3.org/2000/svg" xmlns:xlink="http://www.w3.org/1999/xlink" x="0px" y="0px"
	 viewBox="0 0 920 690" enable-background="new 0 0 920 690" xml:space="preserve">
<filter  height="170%" width="170%" id="ds1" y="-20%" x="-30%">
	<feOffset  in="SourceAlpha" result="offOut" dy="1" dx="0"></feOffset>
	<feGaussianBlur  in="offOut" stdDeviation="2" result="blurOut"></feGaussianBlur>
	<feComponentTransfer>
		<feFuncA  type="linear" slope="0.5"></feFuncA>
	</feComponentTransfer>
	<feMerge>
		<feMergeNode></feMergeNode>
		<feMergeNode  in="SourceGraphic"></feMergeNode>
	</feMerge>
</filter>
<g opacity="0.3">
	<g>
		<g filter="url(#ds1)">
			<path fill="#D0D2D3" d="M352.7,552l37.9-1.4c3.1-0.1,5.6,2.4,5.6,5.4v7.7c0,3.3-2.8,5.8-6.1,5.4l-40.2-4.6
				c-0.7-0.1-1.3-0.7-1.3-1.4v-7.1C348.7,553.9,350.5,552.1,352.7,552z"/>
			<path fill="none" stroke="#929497" stroke-width="1.5" stroke-linejoin="round" stroke-miterlimit="10" d="M352.7,552l37.9-1.4
				c3.1-0.1,5.6,2.4,5.6,5.4v7.7c0,3.3-2.8,5.8-6.1,5.4l-40.2-4.6c-0.7-0.1-1.3-0.7-1.3-1.4v-7.1C348.7,553.9,350.5,552.1,352.7,552
				z"/>
		</g>
		<g filter="url(#ds1)">
			<path fill="#6AE6A7" d="M336.3,553.1c-2.2,0.1-3.7-1.2-5.8-1.1c-3.8,0-6.9,3.1-6.8,6.9s3.1,6.9,6.9,6.8c2.2,0,4.1-1.3,6.2-1.1
				c1.9,0.1,3.8,1.1,5.7,1c3.8,0,6.9-3.1,6.8-6.9c0-3.8-3.1-6.9-6.9-6.8c-1.9,0-3.7,0.9-5.6,1.2C336.6,553,336.4,553,336.3,553.1z"
				/>
			<path fill="none" stroke="#3F9166" stroke-width="1.489" stroke-linejoin="round" stroke-miterlimit="10" d="M336.3,553.1
				c-2.2,0.1-3.7-1.2-5.8-1.1c-3.8,0-6.9,3.1-6.8,6.9s3.1,6.9,6.9,6.8c2.2,0,4.1-1.3,6.2-1.1c1.9,0.1,3.8,1.1,5.7,1
				c3.8,0,6.9-3.1,6.8-6.9c0-3.8-3.1-6.9-6.9-6.8c-1.9,0-3.7,0.9-5.6,1.2C336.6,553,336.4,553,336.3,553.1z"/>
		</g>
	</g>
	<g>
		<g filter="url(#ds1)">
			<path fill="#D0D2D3" d="M350.6,589l37.9-1.4c3.1-0.1,5.6,2.4,5.6,5.4v7.7c0,3.3-2.8,5.8-6.1,5.4l-40.2-4.6
				c-0.7-0.1-1.3-0.7-1.3-1.4v-7.1C346.6,590.9,348.4,589,350.6,589z"/>
			<path fill="none" stroke="#929497" stroke-width="1.5" stroke-linejoin="round" stroke-miterlimit="10" d="M350.6,589l37.9-1.4
				c3.1-0.1,5.6,2.4,5.6,5.4v7.7c0,3.3-2.8,5.8-6.1,5.4l-40.2-4.6c-0.7-0.1-1.3-0.7-1.3-1.4v-7.1C346.6,590.9,348.4,589,350.6,589z"
				/>
		</g>
		<g filter="url(#ds1)">
			<path fill="#6AE6A7" d="M334.2,590c-2.2,0.1-3.7-1.2-5.8-1.1c-3.8,0-6.9,3.1-6.8,6.9c0,3.8,3.1,6.9,6.9,6.8
				c2.2,0,4.1-1.3,6.2-1.1c1.9,0.1,3.8,1.1,5.7,1c3.8,0,6.9-3.1,6.8-6.9c0-3.8-3.1-6.9-6.9-6.8c-1.9,0-3.7,0.9-5.6,1.2
				C334.5,589.9,334.3,590,334.2,590z"/>
			<path fill="none" stroke="#3F9166" stroke-width="1.489" stroke-linejoin="round" stroke-miterlimit="10" d="M334.2,590
				c-2.2,0.1-3.7-1.2-5.8-1.1c-3.8,0-6.9,3.1-6.8,6.9c0,3.8,3.1,6.9,6.9,6.8c2.2,0,4.1-1.3,6.2-1.1c1.9,0.1,3.8,1.1,5.7,1
				c3.8,0,6.9-3.1,6.8-6.9c0-3.8-3.1-6.9-6.9-6.8c-1.9,0-3.7,0.9-5.6,1.2C334.5,589.9,334.3,590,334.2,590z"/>
		</g>
	</g>
	<g>
		<g filter="url(#ds1)">
			<path fill="#D0D2D3" d="M343.9,569.5l37.9-1.4c3.1-0.1,5.6,2.4,5.6,5.4v7.7c0,3.3-2.8,5.8-6.1,5.4l-40.2-4.6
				c-0.7-0.1-1.3-0.7-1.3-1.4v-7.1C340,571.3,341.7,569.5,343.9,569.5z"/>
			<path fill="none" stroke="#929497" stroke-width="1.5" stroke-linejoin="round" stroke-miterlimit="10" d="M343.9,569.5l37.9-1.4
				c3.1-0.1,5.6,2.4,5.6,5.4v7.7c0,3.3-2.8,5.8-6.1,5.4l-40.2-4.6c-0.7-0.1-1.3-0.7-1.3-1.4v-7.1C340,571.3,341.7,569.5,343.9,569.5
				z"/>
		</g>
		<g filter="url(#ds1)">
			<path fill="#6AE6A7" d="M327.5,570.5c-2.2,0.1-3.7-1.2-5.8-1.1c-3.8,0-6.9,3.1-6.8,6.9c0,3.8,3.1,6.9,6.9,6.8
				c2.2,0,4.1-1.3,6.2-1.1c1.9,0.1,3.8,1.1,5.7,1c3.8,0,6.9-3.1,6.8-6.9c0-3.8-3.1-6.9-6.9-6.8c-1.9,0-3.7,0.9-5.6,1.2
				C327.8,570.4,327.7,570.5,327.5,570.5z"/>
			<path fill="none" stroke="#3F9166" stroke-width="1.489" stroke-linejoin="round" stroke-miterlimit="10" d="M327.5,570.5
				c-2.2,0.1-3.7-1.2-5.8-1.1c-3.8,0-6.9,3.1-6.8,6.9c0,3.8,3.1,6.9,6.9,6.8c2.2,0,4.1-1.3,6.2-1.1c1.9,0.1,3.8,1.1,5.7,1
				c3.8,0,6.9-3.1,6.8-6.9c0-3.8-3.1-6.9-6.9-6.8c-1.9,0-3.7,0.9-5.6,1.2C327.8,570.4,327.7,570.5,327.5,570.5z"/>
		</g>
	</g>
	<g>
		<g filter="url(#ds1)">
			<path fill="#D0D2D3" d="M360.6,579.3l37.9-1.4c3.1-0.1,5.6,2.4,5.6,5.4v7.7c0,3.3-2.8,5.8-6.1,5.4l-40.2-4.6
				c-0.7-0.1-1.3-0.7-1.3-1.4v-7.1C356.7,581.2,358.4,579.4,360.6,579.3z"/>
			<path fill="none" stroke="#929497" stroke-width="1.5" stroke-linejoin="round" stroke-miterlimit="10" d="M360.6,579.3l37.9-1.4
				c3.1-0.1,5.6,2.4,5.6,5.4v7.7c0,3.3-2.8,5.8-6.1,5.4l-40.2-4.6c-0.7-0.1-1.3-0.7-1.3-1.4v-7.1
				C356.7,581.2,358.4,579.4,360.6,579.3z"/>
		</g>
		<g filter="url(#ds1)">
			<path fill="#6AE6A7" d="M344.2,580.3c-2.2,0.1-3.7-1.2-5.8-1.1c-3.8,0-6.9,3.1-6.8,6.9c0,3.8,3.1,6.9,6.9,6.8
				c2.2,0,4.1-1.3,6.2-1.1c1.9,0.1,3.8,1.1,5.7,1c3.8,0,6.9-3.1,6.8-6.9c0-3.8-3.1-6.9-6.9-6.8c-1.9,0-3.7,0.9-5.6,1.2
				C344.5,580.3,344.4,580.3,344.2,580.3z"/>
			<path fill="none" stroke="#3F9166" stroke-width="1.489" stroke-linejoin="round" stroke-miterlimit="10" d="M344.2,580.3
				c-2.2,0.1-3.7-1.2-5.8-1.1c-3.8,0-6.9,3.1-6.8,6.9c0,3.8,3.1,6.9,6.9,6.8c2.2,0,4.1-1.3,6.2-1.1c1.9,0.1,3.8,1.1,5.7,1
				c3.8,0,6.9-3.1,6.8-6.9c0-3.8-3.1-6.9-6.9-6.8c-1.9,0-3.7,0.9-5.6,1.2C344.5,580.3,344.4,580.3,344.2,580.3z"/>
		</g>
	</g>
	<g>
		<g filter="url(#ds1)">
			<path fill="#D0D2D3" d="M369.3,563.8l37.9-1.4c3.1-0.1,5.6,2.4,5.6,5.4v7.7c0,3.3-2.8,5.8-6.1,5.4l-40.2-4.6
				c-0.7-0.1-1.3-0.7-1.3-1.4v-7.1C365.3,565.7,367.1,563.9,369.3,563.8z"/>
			<path fill="none" stroke="#929497" stroke-width="1.5" stroke-linejoin="round" stroke-miterlimit="10" d="M369.3,563.8l37.9-1.4
				c3.1-0.1,5.6,2.4,5.6,5.4v7.7c0,3.3-2.8,5.8-6.1,5.4l-40.2-4.6c-0.7-0.1-1.3-0.7-1.3-1.4v-7.1
				C365.3,565.7,367.1,563.9,369.3,563.8z"/>
		</g>
		<g filter="url(#ds1)">
			<path fill="#6AE6A7" d="M352.9,564.9c-2.2,0.1-3.7-1.2-5.8-1.1c-3.8,0-6.9,3.1-6.8,6.9c0,3.8,3.1,6.9,6.9,6.8
				c2.2,0,4.1-1.3,6.2-1.1c1.9,0.1,3.8,1.1,5.7,1c3.8,0,6.9-3.1,6.8-6.9c0-3.8-3.1-6.9-6.9-6.8c-1.9,0-3.7,0.9-5.6,1.2
				C353.2,564.8,353,564.8,352.9,564.9z"/>
			<path fill="none" stroke="#3F9166" stroke-width="1.489" stroke-linejoin="round" stroke-miterlimit="10" d="M352.9,564.9
				c-2.2,0.1-3.7-1.2-5.8-1.1c-3.8,0-6.9,3.1-6.8,6.9c0,3.8,3.1,6.9,6.9,6.8c2.2,0,4.1-1.3,6.2-1.1c1.9,0.1,3.8,1.1,5.7,1
				c3.8,0,6.9-3.1,6.8-6.9c0-3.8-3.1-6.9-6.9-6.8c-1.9,0-3.7,0.9-5.6,1.2C353.2,564.8,353,564.8,352.9,564.9z"/>
		</g>
	</g>
	<g>
		<g filter="url(#ds1)">
			<path fill="#D0D2D3" d="M364.3,539.8l37.9-1.4c3.1-0.1,5.6,2.4,5.6,5.4v7.7c0,3.3-2.8,5.8-6.1,5.4l-40.2-4.6
				c-0.7-0.1-1.3-0.7-1.3-1.4v-7.1C360.4,541.6,362.1,539.8,364.3,539.8z"/>
			<path fill="none" stroke="#929497" stroke-width="1.5" stroke-linejoin="round" stroke-miterlimit="10" d="M364.3,539.8l37.9-1.4
				c3.1-0.1,5.6,2.4,5.6,5.4v7.7c0,3.3-2.8,5.8-6.1,5.4l-40.2-4.6c-0.7-0.1-1.3-0.7-1.3-1.4v-7.1
				C360.4,541.6,362.1,539.8,364.3,539.8z"/>
		</g>
		<g filter="url(#ds1)">
			<path fill="#6AE6A7" d="M347.9,540.8c-2.2,0.1-3.7-1.2-5.8-1.1c-3.8,0-6.9,3.1-6.8,6.9c0,3.8,3.1,6.9,6.9,6.8
				c2.2,0,4.1-1.3,6.2-1.1c1.9,0.1,3.8,1.1,5.7,1c3.8,0,6.9-3.1,6.8-6.9c0-3.8-3.1-6.9-6.9-6.8c-1.9,0-3.7,0.9-5.6,1.2
				C348.2,540.7,348.1,540.8,347.9,540.8z"/>
			<path fill="none" stroke="#3F9166" stroke-width="1.489" stroke-linejoin="round" stroke-miterlimit="10" d="M347.9,540.8
				c-2.2,0.1-3.7-1.2-5.8-1.1c-3.8,0-6.9,3.1-6.8,6.9c0,3.8,3.1,6.9,6.9,6.8c2.2,0,4.1-1.3,6.2-1.1c1.9,0.1,3.8,1.1,5.7,1
				c3.8,0,6.9-3.1,6.8-6.9c0-3.8-3.1-6.9-6.9-6.8c-1.9,0-3.7,0.9-5.6,1.2C348.2,540.7,348.1,540.8,347.9,540.8z"/>
		</g>
	</g>
	<g>
		<g filter="url(#ds1)">
			<path fill="#D0D2D3" d="M384.7,553l37.9-1.4c3.1-0.1,5.6,2.4,5.6,5.4v7.7c0,3.3-2.8,5.8-6.1,5.4l-40.2-4.6
				c-0.7-0.1-1.3-0.7-1.3-1.4V557C380.8,554.8,382.5,553,384.7,553z"/>
			<path fill="none" stroke="#929497" stroke-width="1.5" stroke-linejoin="round" stroke-miterlimit="10" d="M384.7,553l37.9-1.4
				c3.1-0.1,5.6,2.4,5.6,5.4v7.7c0,3.3-2.8,5.8-6.1,5.4l-40.2-4.6c-0.7-0.1-1.3-0.7-1.3-1.4V557C380.8,554.8,382.5,553,384.7,553z"
				/>
		</g>
		<g filter="url(#ds1)">
			<path fill="#6AE6A7" d="M368.3,554c-2.2,0.1-3.7-1.2-5.8-1.1c-3.8,0-6.9,3.1-6.8,6.9c0,3.8,3.1,6.9,6.9,6.8
				c2.2,0,4.1-1.3,6.2-1.1c1.9,0.1,3.8,1.1,5.7,1c3.8,0,6.9-3.1,6.8-6.9c0-3.8-3.1-6.9-6.9-6.8c-1.9,0-3.7,0.9-5.6,1.2
				C368.6,553.9,368.5,554,368.3,554z"/>
			<path fill="none" stroke="#3F9166" stroke-width="1.489" stroke-linejoin="round" stroke-miterlimit="10" d="M368.3,554
				c-2.2,0.1-3.7-1.2-5.8-1.1c-3.8,0-6.9,3.1-6.8,6.9c0,3.8,3.1,6.9,6.9,6.8c2.2,0,4.1-1.3,6.2-1.1c1.9,0.1,3.8,1.1,5.7,1
				c3.8,0,6.9-3.1,6.8-6.9c0-3.8-3.1-6.9-6.9-6.8c-1.9,0-3.7,0.9-5.6,1.2C368.6,553.9,368.5,554,368.3,554z"/>
		</g>
	</g>
	<g>
		<g filter="url(#ds1)">
			<path fill="#D0D2D3" d="M384.5,579.7l37.9-1.4c3.1-0.1,5.6,2.4,5.6,5.4v7.7c0,3.3-2.8,5.8-6.1,5.4l-40.2-4.6
				c-0.7-0.1-1.3-0.7-1.3-1.4v-7.1C380.6,581.6,382.3,579.7,384.5,579.7z"/>
			<path fill="none" stroke="#929497" stroke-width="1.5" stroke-linejoin="round" stroke-miterlimit="10" d="M384.5,579.7l37.9-1.4
				c3.1-0.1,5.6,2.4,5.6,5.4v7.7c0,3.3-2.8,5.8-6.1,5.4l-40.2-4.6c-0.7-0.1-1.3-0.7-1.3-1.4v-7.1
				C380.6,581.6,382.3,579.7,384.5,579.7z"/>
		</g>
		<g filter="url(#ds1)">
			<path fill="#6AE6A7" d="M368.1,580.7c-2.2,0.1-3.7-1.2-5.8-1.1c-3.8,0-6.9,3.1-6.8,6.9c0,3.8,3.1,6.9,6.9,6.8
				c2.2,0,4.1-1.3,6.2-1.1c1.9,0.1,3.8,1.1,5.7,1c3.8,0,6.9-3.1,6.8-6.9c0-3.8-3.1-6.9-6.9-6.8c-1.9,0-3.7,0.9-5.6,1.2
				C368.4,580.7,368.3,580.7,368.1,580.7z"/>
			<path fill="none" stroke="#3F9166" stroke-width="1.489" stroke-linejoin="round" stroke-miterlimit="10" d="M368.1,580.7
				c-2.2,0.1-3.7-1.2-5.8-1.1c-3.8,0-6.9,3.1-6.8,6.9c0,3.8,3.1,6.9,6.9,6.8c2.2,0,4.1-1.3,6.2-1.1c1.9,0.1,3.8,1.1,5.7,1
				c3.8,0,6.9-3.1,6.8-6.9c0-3.8-3.1-6.9-6.9-6.8c-1.9,0-3.7,0.9-5.6,1.2C368.4,580.7,368.3,580.7,368.1,580.7z"/>
		</g>
	</g>
	<g>
		<g filter="url(#ds1)">
			<path fill="#D0D2D3" d="M367.4,596l37.9-1.4c3.1-0.1,5.6,2.4,5.6,5.4v7.7c0,3.3-2.8,5.8-6.1,5.4l-40.2-4.6
				c-0.7-0.1-1.3-0.7-1.3-1.4v-7.1C363.5,597.9,365.2,596,367.4,596z"/>
			<path fill="none" stroke="#929497" stroke-width="1.5" stroke-linejoin="round" stroke-miterlimit="10" d="M367.4,596l37.9-1.4
				c3.1-0.1,5.6,2.4,5.6,5.4v7.7c0,3.3-2.8,5.8-6.1,5.4l-40.2-4.6c-0.7-0.1-1.3-0.7-1.3-1.4v-7.1C363.5,597.9,365.2,596,367.4,596z"
				/>
		</g>
		<g filter="url(#ds1)">
			<path fill="#6AE6A7" d="M351,597c-2.2,0.1-3.7-1.2-5.8-1.1c-3.8,0-6.9,3.1-6.8,6.9s3.1,6.9,6.9,6.8c2.2,0,4.1-1.3,6.2-1.1
				c1.9,0.1,3.8,1.1,5.7,1c3.8,0,6.9-3.1,6.8-6.9c0-3.8-3.1-6.9-6.9-6.8c-1.9,0-3.7,0.9-5.6,1.2C351.3,597,351.1,597,351,597z"/>
			<path fill="none" stroke="#3F9166" stroke-width="1.489" stroke-linejoin="round" stroke-miterlimit="10" d="M351,597
				c-2.2,0.1-3.7-1.2-5.8-1.1c-3.8,0-6.9,3.1-6.8,6.9s3.1,6.9,6.9,6.8c2.2,0,4.1-1.3,6.2-1.1c1.9,0.1,3.8,1.1,5.7,1
				c3.8,0,6.9-3.1,6.8-6.9c0-3.8-3.1-6.9-6.9-6.8c-1.9,0-3.7,0.9-5.6,1.2C351.3,597,351.1,597,351,597z"/>
		</g>
	</g>
	<g>
		<g filter="url(#ds1)">
			<path fill="#D0D2D3" d="M351.8,608.1l37.9-1.4c3.1-0.1,5.6,2.4,5.6,5.4v7.7c0,3.3-2.8,5.8-6.1,5.4l-40.2-4.6
				c-0.7-0.1-1.3-0.7-1.3-1.4v-7.1C347.8,609.9,349.6,608.1,351.8,608.1z"/>
			<path fill="none" stroke="#929497" stroke-width="1.5" stroke-linejoin="round" stroke-miterlimit="10" d="M351.8,608.1l37.9-1.4
				c3.1-0.1,5.6,2.4,5.6,5.4v7.7c0,3.3-2.8,5.8-6.1,5.4l-40.2-4.6c-0.7-0.1-1.3-0.7-1.3-1.4v-7.1
				C347.8,609.9,349.6,608.1,351.8,608.1z"/>
		</g>
		<g filter="url(#ds1)">
			<path fill="#6AE6A7" d="M335.4,609.1c-2.2,0.1-3.7-1.2-5.8-1.1c-3.8,0-6.9,3.1-6.8,6.9s3.1,6.9,6.9,6.8c2.2,0,4.1-1.3,6.2-1.1
				c1.9,0.1,3.8,1.1,5.7,1c3.8,0,6.9-3.1,6.8-6.9c0-3.8-3.1-6.9-6.9-6.8c-1.9,0-3.7,0.9-5.6,1.2C335.7,609,335.5,609.1,335.4,609.1z
				"/>
			<path fill="none" stroke="#3F9166" stroke-width="1.489" stroke-linejoin="round" stroke-miterlimit="10" d="M335.4,609.1
				c-2.2,0.1-3.7-1.2-5.8-1.1c-3.8,0-6.9,3.1-6.8,6.9s3.1,6.9,6.9,6.8c2.2,0,4.1-1.3,6.2-1.1c1.9,0.1,3.8,1.1,5.7,1
				c3.8,0,6.9-3.1,6.8-6.9c0-3.8-3.1-6.9-6.9-6.8c-1.9,0-3.7,0.9-5.6,1.2C335.7,609,335.5,609.1,335.4,609.1z"/>
		</g>
	</g>
	<g>
		<g filter="url(#ds1)">
			<path fill="#D0D2D3" d="M391.1,601.7l37.9-1.4c3.1-0.1,5.6,2.4,5.6,5.4v7.7c0,3.3-2.8,5.8-6.1,5.4l-40.2-4.6
				c-0.7-0.1-1.3-0.7-1.3-1.4v-7.1C387.2,603.5,388.9,601.7,391.1,601.7z"/>
			<path fill="none" stroke="#929497" stroke-width="1.5" stroke-linejoin="round" stroke-miterlimit="10" d="M391.1,601.7l37.9-1.4
				c3.1-0.1,5.6,2.4,5.6,5.4v7.7c0,3.3-2.8,5.8-6.1,5.4l-40.2-4.6c-0.7-0.1-1.3-0.7-1.3-1.4v-7.1
				C387.2,603.5,388.9,601.7,391.1,601.7z"/>
		</g>
		<g filter="url(#ds1)">
			<path fill="#6AE6A7" d="M374.7,602.7c-2.2,0.1-3.7-1.2-5.8-1.1c-3.8,0-6.9,3.1-6.8,6.9c0,3.8,3.1,6.9,6.9,6.8
				c2.2,0,4.1-1.3,6.2-1.1c1.9,0.1,3.8,1.1,5.7,1c3.8,0,6.9-3.1,6.8-6.9c0-3.8-3.1-6.9-6.9-6.8c-1.9,0-3.7,0.9-5.6,1.2
				C375,602.6,374.8,602.7,374.7,602.7z"/>
			<path fill="none" stroke="#3F9166" stroke-width="1.489" stroke-linejoin="round" stroke-miterlimit="10" d="M374.7,602.7
				c-2.2,0.1-3.7-1.2-5.8-1.1c-3.8,0-6.9,3.1-6.8,6.9c0,3.8,3.1,6.9,6.9,6.8c2.2,0,4.1-1.3,6.2-1.1c1.9,0.1,3.8,1.1,5.7,1
				c3.8,0,6.9-3.1,6.8-6.9c0-3.8-3.1-6.9-6.9-6.8c-1.9,0-3.7,0.9-5.6,1.2C375,602.6,374.8,602.7,374.7,602.7z"/>
		</g>
	</g>
	<g>
		<g filter="url(#ds1)">
			<path fill="#D0D2D3" d="M408.2,547.3l37.9-1.4c3.1-0.1,5.6,2.4,5.6,5.4v7.7c0,3.3-2.8,5.8-6.1,5.4l-40.2-4.6
				c-0.7-0.1-1.3-0.7-1.3-1.4v-7.1C404.3,549.2,406,547.3,408.2,547.3z"/>
			<path fill="none" stroke="#929497" stroke-width="1.5" stroke-linejoin="round" stroke-miterlimit="10" d="M408.2,547.3l37.9-1.4
				c3.1-0.1,5.6,2.4,5.6,5.4v7.7c0,3.3-2.8,5.8-6.1,5.4l-40.2-4.6c-0.7-0.1-1.3-0.7-1.3-1.4v-7.1C404.3,549.2,406,547.3,408.2,547.3
				z"/>
		</g>
		<g filter="url(#ds1)">
			<path fill="#6AE6A7" d="M391.8,548.3c-2.2,0.1-3.7-1.2-5.8-1.1c-3.8,0-6.9,3.1-6.8,6.9c0,3.8,3.1,6.9,6.9,6.8
				c2.2,0,4.1-1.3,6.2-1.1c1.9,0.1,3.8,1.1,5.7,1c3.8,0,6.9-3.1,6.8-6.9c0-3.8-3.1-6.9-6.9-6.8c-1.9,0-3.7,0.9-5.6,1.2
				C392.1,548.3,391.9,548.3,391.8,548.3z"/>
			<path fill="none" stroke="#3F9166" stroke-width="1.489" stroke-linejoin="round" stroke-miterlimit="10" d="M391.8,548.3
				c-2.2,0.1-3.7-1.2-5.8-1.1c-3.8,0-6.9,3.1-6.8,6.9c0,3.8,3.1,6.9,6.9,6.8c2.2,0,4.1-1.3,6.2-1.1c1.9,0.1,3.8,1.1,5.7,1
				c3.8,0,6.9-3.1,6.8-6.9c0-3.8-3.1-6.9-6.9-6.8c-1.9,0-3.7,0.9-5.6,1.2C392.1,548.3,391.9,548.3,391.8,548.3z"/>
		</g>
	</g>
	<g>
		<g filter="url(#ds1)">
			<path fill="#D0D2D3" d="M380.2,613.8l37.9-1.4c3.1-0.1,5.6,2.4,5.6,5.4v7.7c0,3.3-2.8,5.8-6.1,5.4l-40.2-4.6
				c-0.7-0.1-1.3-0.7-1.3-1.4v-7.1C376.3,615.6,378,613.8,380.2,613.8z"/>
			<path fill="none" stroke="#929497" stroke-width="1.5" stroke-linejoin="round" stroke-miterlimit="10" d="M380.2,613.8l37.9-1.4
				c3.1-0.1,5.6,2.4,5.6,5.4v7.7c0,3.3-2.8,5.8-6.1,5.4l-40.2-4.6c-0.7-0.1-1.3-0.7-1.3-1.4v-7.1C376.3,615.6,378,613.8,380.2,613.8
				z"/>
		</g>
		<g filter="url(#ds1)">
			<path fill="#6AE6A7" d="M363.8,614.8c-2.2,0.1-3.7-1.2-5.8-1.1c-3.8,0-6.9,3.1-6.8,6.9c0,3.8,3.1,6.9,6.9,6.8
				c2.2,0,4.1-1.3,6.2-1.1c1.9,0.1,3.8,1.1,5.7,1c3.8,0,6.9-3.1,6.8-6.9c0-3.8-3.1-6.9-6.9-6.8c-1.9,0-3.7,0.9-5.6,1.2
				C364.1,614.7,364,614.8,363.8,614.8z"/>
			<path fill="none" stroke="#3F9166" stroke-width="1.489" stroke-linejoin="round" stroke-miterlimit="10" d="M363.8,614.8
				c-2.2,0.1-3.7-1.2-5.8-1.1c-3.8,0-6.9,3.1-6.8,6.9c0,3.8,3.1,6.9,6.9,6.8c2.2,0,4.1-1.3,6.2-1.1c1.9,0.1,3.8,1.1,5.7,1
				c3.8,0,6.9-3.1,6.8-6.9c0-3.8-3.1-6.9-6.9-6.8c-1.9,0-3.7,0.9-5.6,1.2C364.1,614.7,364,614.8,363.8,614.8z"/>
		</g>
	</g>
	<g>
		<g filter="url(#ds1)">
			<path fill="#D0D2D3" d="M408.2,610.8l37.9-1.4c3.1-0.1,5.6,2.4,5.6,5.4v7.7c0,3.3-2.8,5.8-6.1,5.4l-40.2-4.6
				c-0.7-0.1-1.3-0.7-1.3-1.4v-7.1C404.3,612.7,406,610.9,408.2,610.8z"/>
			<path fill="none" stroke="#929497" stroke-width="1.5" stroke-linejoin="round" stroke-miterlimit="10" d="M408.2,610.8l37.9-1.4
				c3.1-0.1,5.6,2.4,5.6,5.4v7.7c0,3.3-2.8,5.8-6.1,5.4l-40.2-4.6c-0.7-0.1-1.3-0.7-1.3-1.4v-7.1C404.3,612.7,406,610.9,408.2,610.8
				z"/>
		</g>
		<g filter="url(#ds1)">
			<path fill="#6AE6A7" d="M391.8,611.9c-2.2,0.1-3.7-1.2-5.8-1.1c-3.8,0-6.9,3.1-6.8,6.9c0,3.8,3.1,6.9,6.9,6.8
				c2.2,0,4.1-1.3,6.2-1.1c1.9,0.1,3.8,1.1,5.7,1c3.8,0,6.9-3.1,6.8-6.9c0-3.8-3.1-6.9-6.9-6.8c-1.9,0-3.7,0.9-5.6,1.2
				C392.1,611.8,391.9,611.8,391.8,611.9z"/>
			<path fill="none" stroke="#3F9166" stroke-width="1.489" stroke-linejoin="round" stroke-miterlimit="10" d="M391.8,611.9
				c-2.2,0.1-3.7-1.2-5.8-1.1c-3.8,0-6.9,3.1-6.8,6.9c0,3.8,3.1,6.9,6.9,6.8c2.2,0,4.1-1.3,6.2-1.1c1.9,0.1,3.8,1.1,5.7,1
				c3.8,0,6.9-3.1,6.8-6.9c0-3.8-3.1-6.9-6.9-6.8c-1.9,0-3.7,0.9-5.6,1.2C392.1,611.8,391.9,611.8,391.8,611.9z"/>
		</g>
	</g>
	<g>
		<g filter="url(#ds1)">
			<path fill="#D0D2D3" d="M396.9,567.1l37.9-1.4c3.1-0.1,5.6,2.4,5.6,5.4v7.7c0,3.3-2.8,5.8-6.1,5.4l-40.2-4.6
				c-0.7-0.1-1.3-0.7-1.3-1.4v-7.1C393,569,394.7,567.2,396.9,567.1z"/>
			<path fill="none" stroke="#929497" stroke-width="1.5" stroke-linejoin="round" stroke-miterlimit="10" d="M396.9,567.1l37.9-1.4
				c3.1-0.1,5.6,2.4,5.6,5.4v7.7c0,3.3-2.8,5.8-6.1,5.4l-40.2-4.6c-0.7-0.1-1.3-0.7-1.3-1.4v-7.1C393,569,394.7,567.2,396.9,567.1z"
				/>
		</g>
		<g filter="url(#ds1)">
			<path fill="#6AE6A7" d="M380.5,568.1c-2.2,0.1-3.7-1.2-5.8-1.1c-3.8,0-6.9,3.1-6.8,6.9s3.1,6.9,6.9,6.8c2.2,0,4.1-1.3,6.2-1.1
				c1.9,0.1,3.8,1.1,5.7,1c3.8,0,6.9-3.1,6.8-6.9c0-3.8-3.1-6.9-6.9-6.8c-1.9,0-3.7,0.9-5.6,1.2
				C380.8,568.1,380.7,568.1,380.5,568.1z"/>
			<path fill="none" stroke="#3F9166" stroke-width="1.489" stroke-linejoin="round" stroke-miterlimit="10" d="M380.5,568.1
				c-2.2,0.1-3.7-1.2-5.8-1.1c-3.8,0-6.9,3.1-6.8,6.9s3.1,6.9,6.9,6.8c2.2,0,4.1-1.3,6.2-1.1c1.9,0.1,3.8,1.1,5.7,1
				c3.8,0,6.9-3.1,6.8-6.9c0-3.8-3.1-6.9-6.9-6.8c-1.9,0-3.7,0.9-5.6,1.2C380.8,568.1,380.7,568.1,380.5,568.1z"/>
		</g>
	</g>
	<g>
		<g filter="url(#ds1)">
			<path fill="#D0D2D3" d="M397.1,538l37.9-1.4c3.1-0.1,5.6,2.4,5.6,5.4v7.7c0,3.3-2.8,5.8-6.1,5.4l-40.2-4.6
				c-0.7-0.1-1.3-0.7-1.3-1.4v-7.1C393.1,539.9,394.9,538.1,397.1,538z"/>
			<path fill="none" stroke="#929497" stroke-width="1.5" stroke-linejoin="round" stroke-miterlimit="10" d="M397.1,538l37.9-1.4
				c3.1-0.1,5.6,2.4,5.6,5.4v7.7c0,3.3-2.8,5.8-6.1,5.4l-40.2-4.6c-0.7-0.1-1.3-0.7-1.3-1.4v-7.1C393.1,539.9,394.9,538.1,397.1,538
				z"/>
		</g>
		<g filter="url(#ds1)">
			<path fill="#6AE6A7" d="M380.7,539c-2.2,0.1-3.7-1.2-5.8-1.1c-3.8,0-6.9,3.1-6.8,6.9c0,3.8,3.1,6.9,6.9,6.8
				c2.2,0,4.1-1.3,6.2-1.1c1.9,0.1,3.8,1.1,5.7,1c3.8,0,6.9-3.1,6.8-6.9c0-3.8-3.1-6.9-6.9-6.8c-1.9,0-3.7,0.9-5.6,1.2
				C381,539,380.8,539,380.7,539z"/>
			<path fill="none" stroke="#3F9166" stroke-width="1.489" stroke-linejoin="round" stroke-miterlimit="10" d="M380.7,539
				c-2.2,0.1-3.7-1.2-5.8-1.1c-3.8,0-6.9,3.1-6.8,6.9c0,3.8,3.1,6.9,6.9,6.8c2.2,0,4.1-1.3,6.2-1.1c1.9,0.1,3.8,1.1,5.7,1
				c3.8,0,6.9-3.1,6.8-6.9c0-3.8-3.1-6.9-6.9-6.8c-1.9,0-3.7,0.9-5.6,1.2C381,539,380.8,539,380.7,539z"/>
		</g>
	</g>
</g>
<g>
	<path fill="#6D6E70" d="M790.4,424c-27.1,0-54.2,0-81.3,0c-9.4-18.4,10.1-43.1,0-62.9c27.1,0,54.2,0,81.3,0
		C799.3,385.9,780.4,404.2,790.4,424z"/>
	<g>
		<g>
			<path fill="#E8E8E8" d="M719.6,389.2h0.8v-5.1h-0.8v-1h5.1v1.8h-1.1v-0.7h-1.8v2h2.3v1h-2.3v1.9h0.9v1h-3.1V389.2z"/>
			<path fill="#E8E8E8" d="M724.7,389.2h0.6l2.1-6.1h1.5l2.1,6.1h0.6v1h-2.7v-1h0.7l-0.4-1.3h-2.2l-0.4,1.3h0.7v1h-2.7V389.2z
				 M729,386.8l-0.7-2l-0.1-0.4c0-0.1,0-0.1,0-0.2h0l0,0.2c0,0.1,0,0.2-0.1,0.4l-0.7,2H729z"/>
			<path fill="#E8E8E8" d="M733.3,389.2h0.8v-5.1h-1.3v1.1h-1.1v-2.1h6.2v2.1h-1.1v-1.1h-1.3v5.1h0.9v1h-3V389.2z"/>
			<path fill="#E8E8E8" d="M740,389.2h0.8v-5.1h-1.3v1.1h-1.1v-2.1h6.2v2.1h-1.1v-1.1h-1.3v5.1h0.9v1h-3V389.2z"/>
			<path fill="#E8E8E8" d="M746.7,389.2h0.9v-2l-1.9-3.1H745v-1h2.6v1H747l1.1,1.9c0,0.1,0.1,0.2,0.1,0.2c0,0,0,0.1,0,0.1h0
				c0,0,0-0.1,0-0.1c0-0.1,0.1-0.1,0.1-0.2l1.1-1.9h-0.7v-1h2.6v1h-0.6l-1.9,3.1v2h0.8v1h-3V389.2z"/>
			<path fill="#E8E8E8" d="M754.1,389.2h0.6l2.1-6.1h1.5l2.1,6.1h0.6v1h-2.7v-1h0.7l-0.4-1.3h-2.2l-0.4,1.3h0.7v1h-2.7V389.2z
				 M758.4,386.8l-0.7-2l-0.1-0.4c0-0.1,0-0.1,0-0.2h0l0,0.2c0,0.1-0.1,0.2-0.1,0.4l-0.7,2H758.4z"/>
			<path fill="#E8E8E8" d="M765.2,383c0.9,0,2.8,0.3,2.8,1.4v1h-1.2v-0.5c0-0.5-0.9-0.7-1.5-0.7c-1.4,0-2.4,1-2.4,2.5
				c0,1.6,1,2.6,2.4,2.6c0.4,0,1.5-0.1,1.5-0.7v-0.5h1.2v1c0,1.1-1.8,1.4-2.8,1.4c-2.2,0-3.7-1.6-3.7-3.7
				C761.6,384.5,763.2,383,765.2,383z"/>
			<path fill="#E8E8E8" d="M769.1,389.2h0.8v-5.1h-0.8v-1h3v1h-0.9v5.1h0.9v1h-3V389.2z"/>
			<path fill="#E8E8E8" d="M773.1,389.2h0.8v-5.1h-0.8v-1h3.1c0.6,0,1,0,1.5,0.2c1.4,0.4,2.3,1.6,2.3,3.4c0,1.7-0.8,2.9-2.2,3.3
				c-0.5,0.2-1,0.2-1.6,0.2h-3.1V389.2z M776.1,389.1c0.5,0,0.8,0,1.2-0.2c0.8-0.3,1.3-1.1,1.3-2.3c0-1.2-0.5-2-1.4-2.3
				c-0.4-0.2-0.7-0.2-1.1-0.2h-0.9v5H776.1z"/>
			<path fill="#E8E8E8" d="M722.1,399.9v0.5c0,0.4,0.6,0.7,1.2,0.7c0.7,0,1.2-0.3,1.2-0.9c0-0.7-0.8-0.9-1.6-1.3
				c-0.9-0.4-1.9-0.8-1.9-2.1c0-1.4,1.1-2,2.4-2c1.1,0,2.2,0.4,2.2,1.2v0.9h-1.2v-0.5c0-0.4-0.5-0.5-1.1-0.5c-0.6,0-1.1,0.2-1.1,0.8
				c0,0.7,0.7,0.9,1.4,1.2c1.1,0.4,2.1,0.8,2.1,2.1c0,1.4-1.2,2.1-2.6,2.1c-1.2,0-2.4-0.5-2.4-1.6v-0.8H722.1z"/>
			<path fill="#E8E8E8" d="M728.2,401.2h0.9v-2l-1.9-3.1h-0.6v-1h2.6v1h-0.7l1.1,1.9c0,0.1,0.1,0.2,0.1,0.2c0,0,0,0.1,0,0.1h0
				c0,0,0-0.1,0-0.1c0-0.1,0.1-0.1,0.1-0.2l1.1-1.9h-0.7v-1h2.6v1h-0.6l-1.9,3.1v2h0.8v1h-3V401.2z"/>
			<path fill="#E8E8E8" d="M733.5,401.2h0.8v-5.1h-0.8v-1h2.2l3,4.6c0.1,0.1,0.1,0.3,0.2,0.4l0.1,0.2h0l0-0.2c0-0.1,0-0.3,0-0.4
				v-3.5H738v-1h3v1h-0.8v6.1h-1.3l-3-4.5c-0.1-0.1-0.1-0.3-0.2-0.4l-0.1-0.2h0l0,0.2c0,0.1,0,0.3,0,0.4v3.5h0.9v1h-3V401.2z"/>
			<path fill="#E8E8E8" d="M743.3,401.2h0.8v-5.1h-1.3v1.1h-1.1v-2.1h6.2v2.1h-1.1v-1.1h-1.3v5.1h0.9v1h-3V401.2z"/>
			<path fill="#E8E8E8" d="M748.7,401.2h0.8v-5.1h-0.8v-1h3v1h-0.9v2h3.2v-2h-0.9v-1h3v1h-0.8v5.1h0.8v1h-3v-1h0.9v-2h-3.2v2h0.9v1
				h-3V401.2z"/>
			<path fill="#E8E8E8" d="M757.2,401.2h0.8v-5.1h-0.8v-1h5.3v1.8h-1.1v-0.8h-2v1.9h2.3v1h-2.3v2h2.1v-0.8h1.1v1.8h-5.4V401.2z"/>
			<path fill="#E8E8E8" d="M764.8,399.9v0.5c0,0.4,0.6,0.7,1.2,0.7c0.7,0,1.2-0.3,1.2-0.9c0-0.7-0.8-0.9-1.6-1.3
				c-0.9-0.4-1.9-0.8-1.9-2.1c0-1.4,1.1-2,2.4-2c1.1,0,2.2,0.4,2.2,1.2v0.9h-1.2v-0.5c0-0.4-0.5-0.5-1.1-0.5c-0.6,0-1.1,0.2-1.1,0.8
				c0,0.7,0.7,0.9,1.4,1.2c1.1,0.4,2.1,0.8,2.1,2.1c0,1.4-1.2,2.1-2.6,2.1c-1.2,0-2.4-0.5-2.4-1.6v-0.8H764.8z"/>
			<path fill="#E8E8E8" d="M769.6,401.2h0.8v-5.1h-0.8v-1h3v1h-0.9v5.1h0.9v1h-3V401.2z"/>
			<path fill="#E8E8E8" d="M774.8,399.9v0.5c0,0.4,0.6,0.7,1.2,0.7c0.7,0,1.2-0.3,1.2-0.9c0-0.7-0.8-0.9-1.6-1.3
				c-0.9-0.4-1.9-0.8-1.9-2.1c0-1.4,1.1-2,2.4-2c1.1,0,2.2,0.4,2.2,1.2v0.9h-1.2v-0.5c0-0.4-0.5-0.5-1.1-0.5c-0.6,0-1.1,0.2-1.1,0.8
				c0,0.7,0.7,0.9,1.4,1.2c1.1,0.4,2.1,0.8,2.1,2.1c0,1.4-1.2,2.1-2.6,2.1c-1.2,0-2.4-0.5-2.4-1.6v-0.8H774.8z"/>
		</g>
	</g>
</g>
<g opacity="0.45" filter="url(#ds1)">
	<path fill="#E96667" stroke="#B4474C" stroke-miterlimit="10" d="M412.6,113.1c0-1-0.4-2.1-1.2-2.7c-0.6-0.5-1.4-0.5-1.8-1.2
		c-0.4-0.8-0.3-1.3-0.8-2.4c-0.4-0.8-1.3-1.3-2.2-1.3c-1.5-0.1-1.8,0.7-2.7,0c-0.8-0.6,0.5-1.8,0.5-2.8c0-1.9-1.5-3.4-3.3-3.5
		c-1.9,0-3.4,1.5-3.5,3.3c0,0.8,0.3,1.3,0.6,2c0.3,0.7,0.1,1.1-0.2,1.7c-0.3,0.6-0.4,1.2-0.5,1.8c-0.2,1.1-0.9,1.5-1.7,2.1
		c-0.7,0.6-1.2,1.5-1.2,2.5c0,1,0.4,1.9,1.1,2.6c0.5,0.4,1.1,0.8,1.4,1.3c0.3,0.6,0.2,1.4,0.4,2c0.4,1.4,1.7,2.5,3.2,2.5
		c0.9,0,1.7-0.7,2.6-0.7c1.1-0.1,1.9,0.8,3,0.9c1.2,0,2.4-0.6,3-1.6c0.6-1.1,0.1-2.5,1.2-3.4C411.5,115.4,412.5,114.8,412.6,113.1z"
		/>
	<path fill="#E96667" stroke="#B4474C" stroke-miterlimit="10" d="M430.7,113.1c0-1-0.4-2.1-1.2-2.7c-0.6-0.5-1.4-0.5-1.8-1.2
		c-0.4-0.8-0.3-1.3-0.8-2.4c-0.4-0.8-1.3-1.3-2.2-1.3c-1.5-0.1-1.8,0.7-2.7,0c-0.8-0.6,0.5-1.8,0.5-2.8c0-1.9-1.5-3.4-3.3-3.5
		c-1.9,0-3.4,1.5-3.5,3.3c0,0.8,0.3,1.3,0.6,2c0.3,0.7,0.1,1.1-0.2,1.7c-0.3,0.6-0.4,1.2-0.5,1.8c-0.2,1.1-0.9,1.5-1.7,2.1
		c-0.7,0.6-1.2,1.5-1.2,2.5c0,1,0.4,1.9,1.1,2.6c0.5,0.4,1.1,0.8,1.4,1.3c0.3,0.6,0.2,1.4,0.4,2c0.4,1.4,1.7,2.5,3.2,2.5
		c0.9,0,1.7-0.7,2.6-0.7c1.1-0.1,1.9,0.8,3,0.9c1.2,0,2.4-0.6,3-1.6c0.6-1.1,0.1-2.5,1.2-3.4C429.6,115.4,430.6,114.8,430.7,113.1z"
		/>
	<path fill="#E96667" stroke="#B4474C" stroke-miterlimit="10" d="M448.8,113.2c0-1-0.4-2.1-1.2-2.7c-0.6-0.5-1.4-0.5-1.8-1.2
		c-0.4-0.8-0.3-1.3-0.8-2.4c-0.4-0.8-1.3-1.3-2.2-1.3c-1.5-0.1-1.8,0.7-2.7,0c-0.8-0.6,0.5-1.8,0.5-2.8c0-1.9-1.5-3.4-3.3-3.5
		c-1.9,0-3.4,1.5-3.5,3.3c0,0.8,0.3,1.3,0.6,2c0.3,0.7,0.1,1.1-0.2,1.7c-0.3,0.6-0.4,1.2-0.5,1.8c-0.2,1.1-0.9,1.5-1.7,2.1
		c-0.7,0.6-1.2,1.5-1.2,2.5c0,1,0.4,1.9,1.1,2.6c0.5,0.4,1.1,0.8,1.4,1.3c0.3,0.6,0.2,1.4,0.4,2c0.4,1.4,1.7,2.5,3.2,2.5
		c0.9,0,1.7-0.7,2.6-0.7c1.1-0.1,1.9,0.8,3,0.9c1.2,0,2.4-0.6,3-1.6c0.6-1.1,0.1-2.5,1.2-3.4C447.7,115.4,448.8,114.8,448.8,113.2z"
		/>
	<path fill="#E96667" stroke="#B4474C" stroke-miterlimit="10" d="M466.9,113.2c0-1-0.4-2.1-1.2-2.7c-0.6-0.5-1.4-0.5-1.8-1.2
		c-0.4-0.8-0.3-1.3-0.8-2.4c-0.4-0.8-1.3-1.3-2.2-1.3c-1.5-0.1-1.8,0.7-2.7,0c-0.8-0.6,0.5-1.8,0.5-2.8c0-1.9-1.5-3.4-3.3-3.5
		c-1.9,0-3.4,1.5-3.5,3.3c0,0.8,0.3,1.3,0.6,2c0.3,0.7,0.1,1.1-0.2,1.7c-0.3,0.6-0.4,1.2-0.5,1.8c-0.2,1.1-0.9,1.5-1.7,2.1
		c-0.7,0.6-1.2,1.5-1.2,2.5c0,1,0.4,1.9,1.1,2.6c0.5,0.4,1.1,0.8,1.4,1.3c0.3,0.6,0.2,1.4,0.4,2c0.4,1.4,1.7,2.5,3.2,2.5
		c0.9,0,1.7-0.7,2.6-0.7c1.1-0.1,1.9,0.8,3,0.9c1.2,0,2.4-0.6,3-1.6c0.6-1.1,0.1-2.5,1.2-3.4C465.9,115.4,466.9,114.8,466.9,113.2z"
		/>
	<path fill="#E96667" stroke="#B4474C" stroke-miterlimit="10" d="M485.1,113.2c0-1-0.4-2.1-1.2-2.7c-0.6-0.5-1.4-0.5-1.8-1.2
		c-0.4-0.8-0.3-1.3-0.8-2.4c-0.4-0.8-1.3-1.3-2.2-1.3c-1.5-0.1-1.8,0.7-2.7,0c-0.8-0.6,0.5-1.8,0.5-2.8c0-1.9-1.5-3.4-3.3-3.5
		c-1.9,0-3.4,1.5-3.5,3.3c0,0.8,0.3,1.3,0.6,2c0.3,0.7,0.1,1.1-0.2,1.7c-0.3,0.6-0.4,1.2-0.5,1.8c-0.2,1.1-0.9,1.5-1.7,2.1
		c-0.7,0.6-1.2,1.5-1.2,2.5c0,1,0.4,1.9,1.1,2.6c0.5,0.4,1.1,0.8,1.4,1.3c0.3,0.6,0.2,1.4,0.4,2c0.4,1.4,1.7,2.5,3.2,2.5
		c0.9,0,1.7-0.7,2.6-0.7c1.1-0.1,1.9,0.8,3,0.9c1.2,0,2.4-0.6,3-1.6c0.6-1.1,0.1-2.5,1.2-3.4C484,115.5,485,114.9,485.1,113.2z"/>
	<path fill="#E96667" stroke="#B4474C" stroke-miterlimit="10" d="M503.2,113.2c0-1-0.4-2.1-1.2-2.7c-0.6-0.5-1.4-0.5-1.8-1.2
		c-0.4-0.8-0.3-1.3-0.8-2.4c-0.4-0.8-1.3-1.3-2.2-1.3c-1.5-0.1-1.8,0.7-2.7,0c-0.8-0.6,0.5-1.8,0.5-2.8c0-1.9-1.5-3.4-3.3-3.5
		c-1.9,0-3.4,1.5-3.5,3.3c0,0.8,0.3,1.3,0.6,2c0.3,0.7,0.1,1.1-0.2,1.7c-0.3,0.6-0.4,1.2-0.5,1.8c-0.2,1.1-0.9,1.5-1.7,2.1
		c-0.7,0.6-1.2,1.5-1.2,2.5c0,1,0.4,1.9,1.1,2.6c0.5,0.4,1.1,0.8,1.4,1.3c0.3,0.6,0.2,1.4,0.4,2c0.4,1.4,1.7,2.5,3.2,2.5
		c0.9,0,1.7-0.7,2.6-0.7c1.1-0.1,1.9,0.8,3,0.9c1.2,0,2.4-0.6,3-1.6c0.6-1.1,0.1-2.5,1.2-3.4C502.1,115.5,503.2,114.9,503.2,113.2z"
		/>
	<path fill="#E96667" stroke="#B4474C" stroke-miterlimit="10" d="M425.3,78c0.6-0.8,0.8-1.9,0.6-2.9c-0.2-0.7-0.8-1.2-0.8-2
		c0.1-0.9,0.5-1.2,0.8-2.4c0.2-0.9-0.3-1.8-1.1-2.4c-1.2-1-1.9-0.5-2.2-1.5c-0.3-1,1.4-1.2,2-2c1.1-1.5,0.8-3.7-0.7-4.8
		c-1.5-1.1-3.7-0.8-4.8,0.7c-0.5,0.6-0.5,1.3-0.7,2c-0.2,0.7-0.5,0.9-1.2,1.3c-0.6,0.3-1,0.7-1.5,1.2c-0.8,0.8-1.6,0.7-2.7,0.7
		c-1,0.1-1.8,0.6-2.4,1.4c-0.6,0.8-0.8,1.8-0.6,2.7c0.1,0.6,0.4,1.2,0.4,1.9c-0.1,0.7-0.6,1.2-0.9,1.9c-0.5,1.4,0,3,1.2,3.9
		c0.7,0.6,1.8,0.5,2.6,0.9c0.9,0.6,1.1,1.8,2,2.4c1,0.7,2.3,0.9,3.4,0.4c1.1-0.5,1.6-2,2.9-2C423.2,79.2,424.3,79.4,425.3,78z"/>
	<path fill="#E96667" stroke="#B4474C" stroke-miterlimit="10" d="M440.1,88.5c0.6-0.8,0.8-1.9,0.6-2.9c-0.2-0.7-0.8-1.2-0.8-2
		c0.1-0.9,0.5-1.2,0.8-2.4c0.2-0.9-0.3-1.8-1.1-2.4c-1.2-1-1.9-0.5-2.2-1.5c-0.3-1,1.4-1.2,2-2c1.1-1.5,0.8-3.7-0.7-4.8
		c-1.5-1.1-3.7-0.8-4.8,0.7c-0.5,0.6-0.5,1.3-0.7,2c-0.2,0.7-0.5,0.9-1.2,1.3c-0.6,0.3-1,0.7-1.5,1.2c-0.8,0.8-1.6,0.7-2.7,0.7
		c-1,0.1-1.8,0.6-2.4,1.4c-0.6,0.8-0.8,1.8-0.6,2.7c0.1,0.6,0.4,1.2,0.4,1.9c-0.1,0.7-0.6,1.2-0.9,1.9c-0.5,1.4,0,3,1.2,3.9
		c0.7,0.6,1.8,0.5,2.6,0.9c0.9,0.6,1.1,1.8,2,2.4c1,0.7,2.3,0.9,3.4,0.4c1.1-0.5,1.6-2,2.9-2C437.9,89.7,439.1,89.9,440.1,88.5z"/>
	<path fill="#E96667" stroke="#B4474C" stroke-miterlimit="10" d="M454.9,99c0.6-0.8,0.8-1.9,0.6-2.9c-0.2-0.7-0.8-1.2-0.8-2
		c0.1-0.9,0.5-1.2,0.8-2.4c0.2-0.9-0.3-1.8-1.1-2.4c-1.2-1-1.9-0.5-2.2-1.5c-0.3-1,1.4-1.2,2-2c1.1-1.5,0.8-3.7-0.7-4.8
		c-1.5-1.1-3.7-0.8-4.8,0.7c-0.5,0.6-0.5,1.3-0.7,2c-0.2,0.7-0.5,0.9-1.2,1.3c-0.6,0.3-1,0.7-1.5,1.2c-0.8,0.8-1.6,0.7-2.7,0.7
		c-1,0.1-1.8,0.6-2.4,1.4c-0.6,0.8-0.8,1.8-0.6,2.7c0.1,0.6,0.4,1.2,0.4,1.9c-0.1,0.7-0.6,1.2-0.9,1.9c-0.5,1.4,0,3,1.2,3.9
		c0.7,0.6,1.8,0.5,2.6,0.9c0.9,0.6,1.1,1.8,2,2.4c1,0.7,2.3,0.9,3.4,0.4c1.1-0.5,1.6-2,2.9-2C452.7,100.3,453.9,100.4,454.9,99z"/>
</g>
<g>
	<g filter="url(#ds1)">
		<rect x="387.9" y="38.4" fill="#FFFFFF" width="112.5" height="27.7"/>
	</g>
	<g>
		<g>
			<path fill="#6D6E70" d="M404.8,47c2,0,4.3,0.8,4.3,2.2v1.4h-1.5v-0.8c0-0.9-1.5-1.4-2.8-1.4c-2.6,0-4.3,1.8-4.3,4.4
				c0,2.6,1.7,4.5,4.4,4.5c1,0,3-0.3,3-1.4v-1.5h-2.2v-1.2h3.7v3.2c0,1.7-2.9,2.4-4.6,2.4c-3.5,0-5.9-2.5-5.9-5.9S401.3,47,404.8,47
				z"/>
			<path fill="#6D6E70" d="M411.3,57.3h1.4v-8.7h-1.4v-1.3h4.4v1.3h-1.4v8.7h3.9v-1.8h1.4v3.1h-8.4V57.3z"/>
			<path fill="#6D6E70" d="M422.3,57.3h1.4v-3.5l-3.2-5.3h-1.1v-1.2h3.9v1.2h-1.2l2.1,3.6c0.1,0.2,0.2,0.5,0.2,0.5h0
				c0,0,0.1-0.2,0.2-0.5l2.1-3.6h-1.2v-1.2h3.9v1.2h-1.1l-3.2,5.3v3.5h1.4v1.2h-4.4V57.3z"/>
			<path fill="#6D6E70" d="M436,47c1.4,0,4.3,0.5,4.3,2.2v1.4h-1.5v-0.9c0-1-1.7-1.4-2.8-1.4c-2.4,0-4.2,1.8-4.2,4.3
				c0,2.7,1.8,4.6,4.3,4.6c0.8,0,2.8-0.3,2.8-1.3v-0.9h1.5v1.4c0,1.7-2.8,2.2-4.4,2.2c-3.4,0-5.8-2.6-5.8-5.9
				C430.2,49.5,432.7,47,436,47z"/>
			<path fill="#6D6E70" d="M447.9,47c3.3,0,5.8,2.5,5.8,5.8c0,3.3-2.5,5.9-5.8,5.9c-3.3,0-5.8-2.6-5.8-5.9
				C442.1,49.5,444.6,47,447.9,47z M447.9,57.3c2.3,0,4.1-2,4.1-4.5c0-2.5-1.9-4.4-4.1-4.4c-2.3,0-4.2,1.9-4.2,4.4
				C443.8,55.3,445.6,57.3,447.9,57.3z"/>
			<path fill="#6D6E70" d="M461.2,47c2,0,4.3,0.8,4.3,2.2v1.4h-1.5v-0.8c0-0.9-1.5-1.4-2.8-1.4c-2.6,0-4.3,1.8-4.3,4.4
				c0,2.6,1.7,4.5,4.4,4.5c1,0,3-0.3,3-1.4v-1.5h-2.2v-1.2h3.7v3.2c0,1.7-2.9,2.4-4.6,2.4c-3.5,0-5.9-2.5-5.9-5.9S457.7,47,461.2,47
				z"/>
			<path fill="#6D6E70" d="M467.6,57.3h1.4v-8.8h-1.4v-1.2h8.2v2.6h-1.4v-1.3h-3.8v3.6h4v1.3h-4v3.7h4v-1.4h1.4v2.7h-8.5V57.3z"/>
			<path fill="#6D6E70" d="M477.7,57.3h1.4v-8.8h-1.4v-1.2h3l5.6,8.1c0.2,0.3,0.4,0.8,0.4,0.8h0c0,0-0.1-0.6-0.1-0.9v-6.8h-1.4v-1.2
				h4.5v1.2h-1.4v10.1h-1.6l-5.6-8.1c-0.2-0.3-0.4-0.8-0.4-0.8h0c0,0,0.1,0.6,0.1,0.9v6.8h1.5v1.2h-4.5V57.3z"/>
		</g>
	</g>
</g>
<g opacity="0.3" filter="url(#ds1)">
	<circle fill="#8CD0C6" cx="35.1" cy="330.5" r="3"/>
	
		<circle fill="none" stroke="#00B8B5" stroke-width="1.489" stroke-linejoin="round" stroke-miterlimit="10" cx="35.1" cy="330.5" r="3"/>
</g>
<g opacity="0.3" filter="url(#ds1)">
	<circle fill="#8CD0C6" cx="36.9" cy="353.7" r="3"/>
	
		<circle fill="none" stroke="#00B8B5" stroke-width="1.489" stroke-linejoin="round" stroke-miterlimit="10" cx="36.9" cy="353.7" r="3"/>
</g>
<g opacity="0.3" filter="url(#ds1)">
	<circle fill="#8CD0C6" cx="38.1" cy="339.1" r="3"/>
	
		<circle fill="none" stroke="#00B8B5" stroke-width="1.489" stroke-linejoin="round" stroke-miterlimit="10" cx="38.1" cy="339.1" r="3"/>
</g>
<g opacity="0.3" filter="url(#ds1)">
	<circle fill="#8CD0C6" cx="32.1" cy="345.1" r="3"/>
	
		<circle fill="none" stroke="#00B8B5" stroke-width="1.489" stroke-linejoin="round" stroke-miterlimit="10" cx="32.1" cy="345.1" r="3"/>
</g>
<g opacity="0.3" filter="url(#ds1)">
	<circle fill="#8CD0C6" cx="57.5" cy="328" r="3"/>
	
		<circle fill="none" stroke="#00B8B5" stroke-width="1.489" stroke-linejoin="round" stroke-miterlimit="10" cx="57.5" cy="328" r="3"/>
</g>
<g opacity="0.3" filter="url(#ds1)">
	<circle fill="#8CD0C6" cx="35.8" cy="365.6" r="3"/>
	
		<circle fill="none" stroke="#00B8B5" stroke-width="1.489" stroke-linejoin="round" stroke-miterlimit="10" cx="35.8" cy="365.6" r="3"/>
</g>
<g opacity="0.3" filter="url(#ds1)">
	<circle fill="#8CD0C6" cx="47.2" cy="331.4" r="3"/>
	
		<circle fill="none" stroke="#00B8B5" stroke-width="1.489" stroke-linejoin="round" stroke-miterlimit="10" cx="47.2" cy="331.4" r="3"/>
</g>
<g opacity="0.3" filter="url(#ds1)">
	<circle fill="#8CD0C6" cx="45.8" cy="348.4" r="3"/>
	
		<circle fill="none" stroke="#00B8B5" stroke-width="1.489" stroke-linejoin="round" stroke-miterlimit="10" cx="45.8" cy="348.4" r="3"/>
</g>
<g opacity="0.3" filter="url(#ds1)">
	<circle fill="#8CD0C6" cx="77.4" cy="354.7" r="3"/>
	
		<circle fill="none" stroke="#00B8B5" stroke-width="1.489" stroke-linejoin="round" stroke-miterlimit="10" cx="77.4" cy="354.7" r="3"/>
</g>
<g opacity="0.3" filter="url(#ds1)">
	<circle fill="#8CD0C6" cx="78" cy="365.7" r="3"/>
	
		<circle fill="none" stroke="#00B8B5" stroke-width="1.489" stroke-linejoin="round" stroke-miterlimit="10" cx="78" cy="365.7" r="3"/>
</g>
<g opacity="0.3" filter="url(#ds1)">
	<circle fill="#8CD0C6" cx="66.9" cy="361.9" r="3"/>
	
		<circle fill="none" stroke="#00B8B5" stroke-width="1.489" stroke-linejoin="round" stroke-miterlimit="10" cx="66.9" cy="361.9" r="3"/>
</g>
<g opacity="0.3" filter="url(#ds1)">
	<circle fill="#8CD0C6" cx="81" cy="375.1" r="3"/>
	
		<circle fill="none" stroke="#00B8B5" stroke-width="1.489" stroke-linejoin="round" stroke-miterlimit="10" cx="81" cy="375.1" r="3"/>
</g>
<g opacity="0.3" filter="url(#ds1)">
	<circle fill="#8CD0C6" cx="79.2" cy="346.1" r="3"/>
	
		<circle fill="none" stroke="#00B8B5" stroke-width="1.489" stroke-linejoin="round" stroke-miterlimit="10" cx="79.2" cy="346.1" r="3"/>
</g>
<g opacity="0.3" filter="url(#ds1)">
	<circle fill="#8CD0C6" cx="69.9" cy="372.8" r="3"/>
	
		<circle fill="none" stroke="#00B8B5" stroke-width="1.489" stroke-linejoin="round" stroke-miterlimit="10" cx="69.9" cy="372.8" r="3"/>
</g>
<g opacity="0.3" filter="url(#ds1)">
	<circle fill="#8CD0C6" cx="81" cy="337.8" r="3"/>
	
		<circle fill="none" stroke="#00B8B5" stroke-width="1.489" stroke-linejoin="round" stroke-miterlimit="10" cx="81" cy="337.8" r="3"/>
</g>
<g opacity="0.3" filter="url(#ds1)">
	<circle fill="#8CD0C6" cx="66.3" cy="349.8" r="3"/>
	
		<circle fill="none" stroke="#00B8B5" stroke-width="1.489" stroke-linejoin="round" stroke-miterlimit="10" cx="66.3" cy="349.8" r="3"/>
</g>
<g opacity="0.3" filter="url(#ds1)">
	<circle fill="#8CD0C6" cx="68.8" cy="339.9" r="3"/>
	
		<circle fill="none" stroke="#00B8B5" stroke-width="1.489" stroke-linejoin="round" stroke-miterlimit="10" cx="68.8" cy="339.9" r="3"/>
</g>
<g>
	<g filter="url(#ds1)">
		<rect x="551.2" y="212.9" fill="#FFFFFF" width="109.9" height="27.7"/>
	</g>
	<g>
		<g>
			<path fill="#6D6E70" d="M569.3,221.5c2,0,4.3,0.8,4.3,2.2v1.4h-1.5v-0.8c0-0.9-1.5-1.4-2.8-1.4c-2.6,0-4.3,1.8-4.3,4.4
				c0,2.6,1.7,4.5,4.4,4.5c1,0,3-0.3,3-1.4v-1.5h-2.2v-1.2h3.7v3.2c0,1.7-2.9,2.4-4.6,2.4c-3.5,0-5.9-2.5-5.9-5.9
				S565.8,221.5,569.3,221.5z"/>
			<path fill="#6D6E70" d="M575.7,231.8h1.4V223h-1.4v-1.3h4.4v1.3h-1.4v8.7h3.9v-1.8h1.4v3.1h-8.4V231.8z"/>
			<path fill="#6D6E70" d="M586.8,231.8h1.4v-3.5l-3.2-5.3H584v-1.2h3.9v1.2h-1.2l2.1,3.6c0.1,0.2,0.2,0.5,0.2,0.5h0
				c0,0,0.1-0.2,0.2-0.5l2.1-3.6h-1.2v-1.2h3.9v1.2H593l-3.2,5.3v3.5h1.4v1.2h-4.4V231.8z"/>
			<path fill="#6D6E70" d="M600.5,221.5c1.4,0,4.3,0.5,4.3,2.2v1.4h-1.5v-0.9c0-1-1.7-1.4-2.8-1.4c-2.4,0-4.2,1.8-4.2,4.3
				c0,2.7,1.8,4.6,4.3,4.6c0.8,0,2.8-0.3,2.8-1.3v-0.9h1.5v1.4c0,1.7-2.8,2.2-4.4,2.2c-3.4,0-5.8-2.6-5.8-5.9
				C594.7,224,597.2,221.5,600.5,221.5z"/>
			<path fill="#6D6E70" d="M606.7,231.8h1.4V223h-1.4v-1.2h8.2v2.6h-1.4V223h-3.8v3.6h4v1.3h-4v3.7h4v-1.4h1.4v2.7h-8.5V231.8z"/>
			<path fill="#6D6E70" d="M616.8,231.8h1.4V223h-1.4v-1.2h4.9c0.8,0,1.5,0,2.1,0.2c1.2,0.4,2,1.4,2,2.9c0,1.6-0.9,2.8-2.3,3.2v0
				c0,0,0.3,0.2,0.5,0.5l1.6,2.8c0.2,0.3,0.4,0.4,0.8,0.4h0.3v1.2h-1c-1,0-1.2-0.2-1.6-0.8l-1.7-3.1c-0.3-0.5-0.5-0.6-1.2-0.6h-1.3
				v3.3h1.4v1.2h-4.4V231.8z M622.1,227.2c1.2,0,2-0.8,2-2.1c0-0.9-0.4-1.5-1.1-1.8c-0.4-0.1-0.8-0.2-1.4-0.2h-1.9v4.1H622.1z"/>
			<path fill="#6D6E70" d="M633.6,221.5c3.3,0,5.8,2.5,5.8,5.8c0,3.3-2.5,5.9-5.8,5.9c-3.3,0-5.8-2.6-5.8-5.9
				C627.8,224,630.4,221.5,633.6,221.5z M633.6,231.8c2.3,0,4.1-2,4.1-4.5c0-2.5-1.9-4.4-4.1-4.4c-2.3,0-4.2,1.9-4.2,4.4
				C629.5,229.8,631.3,231.8,633.6,231.8z"/>
			<path fill="#6D6E70" d="M641,231.8h1.4V223H641v-1.3h4.4v1.3H644v8.7h3.9v-1.8h1.4v3.1H641V231.8z"/>
		</g>
	</g>
</g>
<g opacity="0.45" filter="url(#ds1)">
	<path fill="#F49F38" d="M586.1,257.7c0,0.1,0,0.1,0,0.2c-0.4,1.7-1.6,3.2-2,4.9c-0.4,1.8,0.2,3.8-0.2,5.5c-0.4,1.9-1.9,3.3-2.2,5.2
		c-0.3,1.8,0.4,3.6,0,5.4c-0.7,3.4-4,5.6-7.4,4.8c-3.4-0.7-5.6-4-4.8-7.4c0.3-1.3,1.1-2.1,1.7-3.3c0.6-1.1,1-2.7,0.8-4
		c-0.2-1.2-0.5-2.1-0.3-3.3c0.4-1.7,1.9-2.9,2.5-4.6c0.6-1.9-0.7-4-0.3-6c0.7-3.4,4-5.6,7.4-4.8C584.6,251,586.7,254.3,586.1,257.7z
		"/>
	<path fill="none" stroke="#C66320" stroke-width="1.4874" stroke-miterlimit="10" d="M586.1,257.7c0,0.1,0,0.1,0,0.2
		c-0.4,1.7-1.6,3.2-2,4.9c-0.4,1.8,0.2,3.8-0.2,5.5c-0.4,1.9-1.9,3.3-2.2,5.2c-0.3,1.8,0.4,3.6,0,5.4c-0.7,3.4-4,5.6-7.4,4.8
		c-3.4-0.7-5.6-4-4.8-7.4c0.3-1.3,1.1-2.1,1.7-3.3c0.6-1.1,1-2.7,0.8-4c-0.2-1.2-0.5-2.1-0.3-3.3c0.4-1.7,1.9-2.9,2.5-4.6
		c0.6-1.9-0.7-4-0.3-6c0.7-3.4,4-5.6,7.4-4.8C584.6,251,586.7,254.3,586.1,257.7z"/>
</g>
<g opacity="0.45" filter="url(#ds1)">
	<path fill="#F49F38" d="M608.3,280.2c0,0.1-0.1,0.1-0.1,0.2c-1.1,1.4-2.7,2.2-3.8,3.6c-1.1,1.5-1.4,3.5-2.4,5
		c-1.1,1.6-3.1,2.2-4.2,3.8c-1,1.5-1.1,3.5-2.2,4.9c-2,2.8-6,3.4-8.7,1.4c-2.8-2-3.4-6-1.4-8.7c0.8-1.1,1.9-1.5,2.9-2.3
		c1-0.8,2-2,2.4-3.3c0.3-1.2,0.4-2.1,1.1-3.2c1-1.4,3-1.9,4.2-3.2c1.4-1.5,1-3.9,2.2-5.6c2-2.8,6-3.4,8.7-1.4
		C609.7,273.5,610.3,277.5,608.3,280.2z"/>
	<path fill="none" stroke="#C66320" stroke-width="1.4874" stroke-miterlimit="10" d="M608.3,280.2c0,0.1-0.1,0.1-0.1,0.2
		c-1.1,1.4-2.7,2.2-3.8,3.6c-1.1,1.5-1.4,3.5-2.4,5c-1.1,1.6-3.1,2.2-4.2,3.8c-1,1.5-1.1,3.5-2.2,4.9c-2,2.8-6,3.4-8.7,1.4
		c-2.8-2-3.4-6-1.4-8.7c0.8-1.1,1.9-1.5,2.9-2.3c1-0.8,2-2,2.4-3.3c0.3-1.2,0.4-2.1,1.1-3.2c1-1.4,3-1.9,4.2-3.2
		c1.4-1.5,1-3.9,2.2-5.6c2-2.8,6-3.4,8.7-1.4C609.7,273.5,610.3,277.5,608.3,280.2z"/>
</g>
<g opacity="0.45" filter="url(#ds1)">
	<path fill="#F49F38" d="M630.3,257.8c0,0.1,0.1,0.1,0.1,0.2c0.9,1.5,1.1,3.4,2,4.8c1,1.6,2.8,2.5,3.8,4c1.1,1.6,1,3.7,2.1,5.2
		c1.1,1.5,2.9,2.3,3.8,3.8c1.9,2.9,1.1,6.8-1.8,8.7s-6.8,1.1-8.7-1.8c-0.7-1.1-0.7-2.3-1.1-3.5c-0.4-1.2-1.2-2.6-2.2-3.4
		c-1-0.7-1.9-1.1-2.6-2.2c-1-1.5-0.7-3.4-1.5-5c-0.9-1.8-3.3-2.3-4.4-4.1c-1.9-2.9-1.1-6.8,1.8-8.7
		C624.5,254.1,628.4,255,630.3,257.8z"/>
	<path fill="none" stroke="#C66320" stroke-width="1.4874" stroke-miterlimit="10" d="M630.3,257.8c0,0.1,0.1,0.1,0.1,0.2
		c0.9,1.5,1.1,3.4,2,4.8c1,1.6,2.8,2.5,3.8,4c1.1,1.6,1,3.7,2.1,5.2c1.1,1.5,2.9,2.3,3.8,3.8c1.9,2.9,1.1,6.8-1.8,8.7
		s-6.8,1.1-8.7-1.8c-0.7-1.1-0.7-2.3-1.1-3.5c-0.4-1.2-1.2-2.6-2.2-3.4c-1-0.7-1.9-1.1-2.6-2.2c-1-1.5-0.7-3.4-1.5-5
		c-0.9-1.8-3.3-2.3-4.4-4.1c-1.9-2.9-1.1-6.8,1.8-8.7C624.5,254.1,628.4,255,630.3,257.8z"/>
</g>
<g opacity="0.25" filter="url(#ds1)">
	<circle fill="#6AE6A7" cx="35.1" cy="534.5" r="6.8"/>
	
		<circle fill="none" stroke="#3F9166" stroke-width="1.489" stroke-linejoin="round" stroke-miterlimit="10" cx="35.1" cy="534.5" r="6.8"/>
</g>
<g opacity="0.25" filter="url(#ds1)">
	<circle fill="#6AE6A7" cx="59.9" cy="527.6" r="6.8"/>
	
		<circle fill="none" stroke="#3F9166" stroke-width="1.489" stroke-linejoin="round" stroke-miterlimit="10" cx="59.9" cy="527.6" r="6.8"/>
</g>
<g opacity="0.25" filter="url(#ds1)">
	<circle fill="#6AE6A7" cx="42.7" cy="516.3" r="6.8"/>
	
		<circle fill="none" stroke="#3F9166" stroke-width="1.489" stroke-linejoin="round" stroke-miterlimit="10" cx="42.7" cy="516.3" r="6.8"/>
</g>
<g opacity="0.25" filter="url(#ds1)">
	<circle fill="#6AE6A7" cx="38" cy="569.9" r="6.8"/>
	
		<circle fill="none" stroke="#3F9166" stroke-width="1.489" stroke-linejoin="round" stroke-miterlimit="10" cx="38" cy="569.9" r="6.8"/>
</g>
<g opacity="0.25" filter="url(#ds1)">
	<circle fill="#6AE6A7" cx="82.6" cy="525.4" r="6.8"/>
	
		<circle fill="none" stroke="#3F9166" stroke-width="1.489" stroke-linejoin="round" stroke-miterlimit="10" cx="82.6" cy="525.4" r="6.8"/>
</g>
<g opacity="0.25" filter="url(#ds1)">
	<circle fill="#6AE6A7" cx="72.4" cy="547.7" r="6.8"/>
	
		<circle fill="none" stroke="#3F9166" stroke-width="1.489" stroke-linejoin="round" stroke-miterlimit="10" cx="72.4" cy="547.7" r="6.8"/>
</g>
<g opacity="0.25" filter="url(#ds1)">
	<circle fill="#6AE6A7" cx="62" cy="588.5" r="6.8"/>
	
		<circle fill="none" stroke="#3F9166" stroke-width="1.489" stroke-linejoin="round" stroke-miterlimit="10" cx="62" cy="588.5" r="6.8"/>
</g>
<g opacity="0.25" filter="url(#ds1)">
	<circle fill="#6AE6A7" cx="82.6" cy="598.1" r="6.8"/>
	
		<circle fill="none" stroke="#3F9166" stroke-width="1.489" stroke-linejoin="round" stroke-miterlimit="10" cx="82.6" cy="598.1" r="6.8"/>
</g>
<g opacity="0.25" filter="url(#ds1)">
	<circle fill="#6AE6A7" cx="42.7" cy="609.1" r="6.8"/>
	
		<circle fill="none" stroke="#3F9166" stroke-width="1.489" stroke-linejoin="round" stroke-miterlimit="10" cx="42.7" cy="609.1" r="6.8"/>
</g>
<g opacity="0.25" filter="url(#ds1)">
	<circle fill="#6AE6A7" cx="65.5" cy="616.3" r="6.8"/>
	
		<circle fill="none" stroke="#3F9166" stroke-width="1.489" stroke-linejoin="round" stroke-miterlimit="10" cx="65.5" cy="616.3" r="6.8"/>
</g>
<g opacity="0.25" filter="url(#ds1)">
	<circle fill="#6AE6A7" cx="81.8" cy="572.6" r="6.8"/>
	
		<circle fill="none" stroke="#3F9166" stroke-width="1.489" stroke-linejoin="round" stroke-miterlimit="10" cx="81.8" cy="572.6" r="6.8"/>
</g>
<g opacity="0.25" filter="url(#ds1)">
	<circle fill="#6AE6A7" cx="51.7" cy="556.3" r="6.8"/>
	
		<circle fill="none" stroke="#3F9166" stroke-width="1.489" stroke-linejoin="round" stroke-miterlimit="10" cx="51.7" cy="556.3" r="6.8"/>
</g>
<g opacity="0.45">
	<g filter="url(#ds1)">
		<path fill="#D0D2D3" d="M596.3,444.4l37.9-1.4c3.1-0.1,5.6,2.4,5.6,5.4v7.7c0,3.3-2.8,5.8-6.1,5.4l-40.2-4.6
			c-0.7-0.1-1.3-0.7-1.3-1.4v-7.1C592.3,446.3,594.1,444.5,596.3,444.4z"/>
		<path fill="none" stroke="#929497" stroke-width="1.5" stroke-linejoin="round" stroke-miterlimit="10" d="M596.3,444.4l37.9-1.4
			c3.1-0.1,5.6,2.4,5.6,5.4v7.7c0,3.3-2.8,5.8-6.1,5.4l-40.2-4.6c-0.7-0.1-1.3-0.7-1.3-1.4v-7.1
			C592.3,446.3,594.1,444.5,596.3,444.4z"/>
	</g>
	<g filter="url(#ds1)">
		<path fill="#D0D2D3" d="M586.4,432.2l37.9-1.4c3.1-0.1,5.6,2.4,5.6,5.4v7.7c0,3.3-2.8,5.8-6.1,5.4l-40.2-4.6
			c-0.7-0.1-1.3-0.7-1.3-1.4v-7.1C582.4,434.1,584.2,432.3,586.4,432.2z"/>
		<path fill="none" stroke="#929497" stroke-width="1.5" stroke-linejoin="round" stroke-miterlimit="10" d="M586.4,432.2l37.9-1.4
			c3.1-0.1,5.6,2.4,5.6,5.4v7.7c0,3.3-2.8,5.8-6.1,5.4l-40.2-4.6c-0.7-0.1-1.3-0.7-1.3-1.4v-7.1
			C582.4,434.1,584.2,432.3,586.4,432.2z"/>
	</g>
	<g filter="url(#ds1)">
		<path fill="#D0D2D3" d="M570.1,416.6l37.9-1.4c3.1-0.1,5.6,2.4,5.6,5.4v7.7c0,3.3-2.8,5.8-6.1,5.4l-40.2-4.6
			c-0.7-0.1-1.3-0.7-1.3-1.4v-7.1C566.1,418.5,567.9,416.7,570.1,416.6z"/>
		<path fill="none" stroke="#929497" stroke-width="1.5" stroke-linejoin="round" stroke-miterlimit="10" d="M570.1,416.6l37.9-1.4
			c3.1-0.1,5.6,2.4,5.6,5.4v7.7c0,3.3-2.8,5.8-6.1,5.4l-40.2-4.6c-0.7-0.1-1.3-0.7-1.3-1.4v-7.1
			C566.1,418.5,567.9,416.7,570.1,416.6z"/>
	</g>
	<g filter="url(#ds1)">
		<path fill="#D0D2D3" d="M594.8,419.5l37.9-1.4c3.1-0.1,5.6,2.4,5.6,5.4v7.7c0,3.3-2.8,5.8-6.1,5.4l-40.2-4.6
			c-0.7-0.1-1.3-0.7-1.3-1.4v-7.1C590.8,421.4,592.6,419.6,594.8,419.5z"/>
		<path fill="none" stroke="#929497" stroke-width="1.5" stroke-linejoin="round" stroke-miterlimit="10" d="M594.8,419.5l37.9-1.4
			c3.1-0.1,5.6,2.4,5.6,5.4v7.7c0,3.3-2.8,5.8-6.1,5.4l-40.2-4.6c-0.7-0.1-1.3-0.7-1.3-1.4v-7.1
			C590.8,421.4,592.6,419.6,594.8,419.5z"/>
	</g>
	<g filter="url(#ds1)">
		<path fill="#D0D2D3" d="M580.3,405.4l37.9-1.4c3.1-0.1,5.6,2.4,5.6,5.4v7.7c0,3.3-2.8,5.8-6.1,5.4l-40.2-4.6
			c-0.7-0.1-1.3-0.7-1.3-1.4v-7.1C576.4,407.3,578.1,405.5,580.3,405.4z"/>
		<path fill="none" stroke="#929497" stroke-width="1.5" stroke-linejoin="round" stroke-miterlimit="10" d="M580.3,405.4l37.9-1.4
			c3.1-0.1,5.6,2.4,5.6,5.4v7.7c0,3.3-2.8,5.8-6.1,5.4l-40.2-4.6c-0.7-0.1-1.3-0.7-1.3-1.4v-7.1
			C576.4,407.3,578.1,405.5,580.3,405.4z"/>
	</g>
	<g filter="url(#ds1)">
		<path fill="#D0D2D3" d="M594.8,393.9l37.9-1.4c3.1-0.1,5.6,2.4,5.6,5.4v7.7c0,3.3-2.8,5.8-6.1,5.4l-40.2-4.6
			c-0.7-0.1-1.3-0.7-1.3-1.4V398C590.8,395.8,592.6,394,594.8,393.9z"/>
		<path fill="none" stroke="#929497" stroke-width="1.5" stroke-linejoin="round" stroke-miterlimit="10" d="M594.8,393.9l37.9-1.4
			c3.1-0.1,5.6,2.4,5.6,5.4v7.7c0,3.3-2.8,5.8-6.1,5.4l-40.2-4.6c-0.7-0.1-1.3-0.7-1.3-1.4V398C590.8,395.8,592.6,394,594.8,393.9z"
			/>
	</g>
</g>
<g filter="url(#ds1)">
	<path fill="#F9DA55" d="M838.3,254.7c0.7-0.7,1.1-1.5,1.4-2.4c0.8-2.2,2.5-3.9,4.6-4.9c0.7-0.3,1.4-0.8,2-1.4
		c2.6-2.7,2.5-7.2-0.2-9.7c-2.8-2.6-7.1-2.5-9.7,0.3c-0.6,0.6-1,1.4-1.3,2.1c-0.9,2.3-2.6,4.1-4.8,5.2c-0.7,0.4-1.4,0.9-2,1.5
		c-0.6,0.6-1,1.4-1.3,2.1c-0.9,2.3-2.6,4.1-4.8,5.2c-0.7,0.4-1.4,0.9-2,1.5c-0.6,0.6-1,1.4-1.3,2.1c-0.9,2.3-2.6,4.1-4.8,5.2
		c-0.7,0.4-1.4,0.9-2,1.5c-0.6,0.6-1,1.4-1.3,2.1c-0.9,2.3-2.6,4.1-4.8,5.2c-0.7,0.4-1.4,0.9-2,1.5c-0.6,0.6-1,1.4-1.3,2.1
		c-0.9,2.3-2.6,4.1-4.8,5.2c-0.7,0.4-1.4,0.9-2,1.5s-1,1.4-1.3,2.1c-0.9,2.3-2.6,4.1-4.8,5.2c-0.7,0.4-1.4,0.9-2,1.5
		c-0.6,0.6-1,1.4-1.3,2.1c-0.9,2.3-2.6,4.1-4.8,5.2c-0.7,0.4-1.4,0.9-2,1.5c-0.6,0.6-1,1.4-1.3,2.1c-0.9,2.3-2.6,4.1-4.8,5.2
		c-0.7,0.4-1.4,0.9-2,1.5c-0.6,0.6-1,1.4-1.3,2.1c-0.9,2.3-2.6,4.1-4.8,5.2c-0.7,0.4-1.4,0.9-2,1.5c-0.6,0.6-1,1.4-1.3,2.1
		c-0.9,2.3-2.6,4.1-4.8,5.2c-0.7,0.4-1.4,0.9-2,1.5c-0.7,0.7-1.1,1.5-1.4,2.4c-0.8,2.2-2.5,3.9-4.6,4.9c-0.7,0.3-1.4,0.8-2,1.4
		c-2.6,2.7-2.5,7.2,0.2,9.7c2.8,2.6,7.1,2.5,9.7-0.3c0.6-0.6,1-1.4,1.3-2.1c0.9-2.3,2.6-4.1,4.8-5.2c0.7-0.4,1.4-0.9,2-1.5
		c0.6-0.6,1-1.4,1.3-2.1c0.9-2.3,2.6-4.1,4.8-5.2c0.7-0.4,1.4-0.9,2-1.5c0.6-0.6,1-1.4,1.3-2.1c0.9-2.3,2.6-4.1,4.8-5.2
		c0.7-0.4,1.4-0.9,2-1.5s1-1.4,1.3-2.1c0.9-2.3,2.6-4.1,4.8-5.2c0.7-0.4,1.4-0.9,2-1.5c0.6-0.6,1-1.4,1.3-2.1
		c0.9-2.3,2.6-4.1,4.8-5.2c0.7-0.4,1.4-0.9,2-1.5s1-1.4,1.3-2.1c0.9-2.3,2.6-4.1,4.8-5.2c0.7-0.4,1.4-0.9,2-1.5
		c0.6-0.6,1-1.4,1.3-2.1c0.9-2.3,2.6-4.1,4.8-5.2c0.7-0.4,1.4-0.9,2-1.5c0.6-0.6,1-1.4,1.3-2.1c0.9-2.3,2.6-4.1,4.8-5.2
		c0.7-0.4,1.4-0.9,2-1.5c0.6-0.6,1-1.4,1.3-2.1c0.9-2.3,2.6-4.1,4.8-5.2c0.7-0.4,1.4-0.9,2-1.5c0.6-0.6,1-1.4,1.3-2.1
		c0.9-2.3,2.6-4.1,4.8-5.2C837,255.8,837.7,255.3,838.3,254.7z"/>
	<path fill="none" stroke="#D6971A" stroke-width="1.489" stroke-miterlimit="10" d="M838.3,254.7c0.7-0.7,1.1-1.5,1.4-2.4
		c0.8-2.2,2.5-3.9,4.6-4.9c0.7-0.3,1.4-0.8,2-1.4c2.6-2.7,2.5-7.2-0.2-9.7c-2.8-2.6-7.1-2.5-9.7,0.3c-0.6,0.6-1,1.4-1.3,2.1
		c-0.9,2.3-2.6,4.1-4.8,5.2c-0.7,0.4-1.4,0.9-2,1.5c-0.6,0.6-1,1.4-1.3,2.1c-0.9,2.3-2.6,4.1-4.8,5.2c-0.7,0.4-1.4,0.9-2,1.5
		c-0.6,0.6-1,1.4-1.3,2.1c-0.9,2.3-2.6,4.1-4.8,5.2c-0.7,0.4-1.4,0.9-2,1.5c-0.6,0.6-1,1.4-1.3,2.1c-0.9,2.3-2.6,4.1-4.8,5.2
		c-0.7,0.4-1.4,0.9-2,1.5c-0.6,0.6-1,1.4-1.3,2.1c-0.9,2.3-2.6,4.1-4.8,5.2c-0.7,0.4-1.4,0.9-2,1.5s-1,1.4-1.3,2.1
		c-0.9,2.3-2.6,4.1-4.8,5.2c-0.7,0.4-1.4,0.9-2,1.5c-0.6,0.6-1,1.4-1.3,2.1c-0.9,2.3-2.6,4.1-4.8,5.2c-0.7,0.4-1.4,0.9-2,1.5
		c-0.6,0.6-1,1.4-1.3,2.1c-0.9,2.3-2.6,4.1-4.8,5.2c-0.7,0.4-1.4,0.9-2,1.5c-0.6,0.6-1,1.4-1.3,2.1c-0.9,2.3-2.6,4.1-4.8,5.2
		c-0.7,0.4-1.4,0.9-2,1.5c-0.6,0.6-1,1.4-1.3,2.1c-0.9,2.3-2.6,4.1-4.8,5.2c-0.7,0.4-1.4,0.9-2,1.5c-0.7,0.7-1.1,1.5-1.4,2.4
		c-0.8,2.2-2.5,3.9-4.6,4.9c-0.7,0.3-1.4,0.8-2,1.4c-2.6,2.7-2.5,7.2,0.2,9.7c2.8,2.6,7.1,2.5,9.7-0.3c0.6-0.6,1-1.4,1.3-2.1
		c0.9-2.3,2.6-4.1,4.8-5.2c0.7-0.4,1.4-0.9,2-1.5c0.6-0.6,1-1.4,1.3-2.1c0.9-2.3,2.6-4.1,4.8-5.2c0.7-0.4,1.4-0.9,2-1.5
		c0.6-0.6,1-1.4,1.3-2.1c0.9-2.3,2.6-4.1,4.8-5.2c0.7-0.4,1.4-0.9,2-1.5s1-1.4,1.3-2.1c0.9-2.3,2.6-4.1,4.8-5.2
		c0.7-0.4,1.4-0.9,2-1.5c0.6-0.6,1-1.4,1.3-2.1c0.9-2.3,2.6-4.1,4.8-5.2c0.7-0.4,1.4-0.9,2-1.5s1-1.4,1.3-2.1
		c0.9-2.3,2.6-4.1,4.8-5.2c0.7-0.4,1.4-0.9,2-1.5c0.6-0.6,1-1.4,1.3-2.1c0.9-2.3,2.6-4.1,4.8-5.2c0.7-0.4,1.4-0.9,2-1.5
		c0.6-0.6,1-1.4,1.3-2.1c0.9-2.3,2.6-4.1,4.8-5.2c0.7-0.4,1.4-0.9,2-1.5c0.6-0.6,1-1.4,1.3-2.1c0.9-2.3,2.6-4.1,4.8-5.2
		c0.7-0.4,1.4-0.9,2-1.5c0.6-0.6,1-1.4,1.3-2.1c0.9-2.3,2.6-4.1,4.8-5.2C837,255.8,837.7,255.3,838.3,254.7z"/>
</g>
<g>
	<g filter="url(#ds1)">
		<rect x="728.6" y="254.4" fill="#FFFFFF" width="128.5" height="27.7"/>
	</g>
	<g>
		<g>
			<path fill="#6D6E70" d="M740.8,273.2h1.4v-8.8h-1.4v-1.2h7.8v2.7h-1.4v-1.3h-3.4v3.7h3.9v1.3h-3.9v3.6h1.5v1.2h-4.5V273.2z"/>
			<path fill="#6D6E70" d="M748.6,273.2h1.1l3.6-10.1h1.8l3.6,10.1h1.1v1.2h-3.9v-1.2h1.2l-0.9-2.5h-4l-0.9,2.5h1.2v1.2h-3.9V273.2z
				 M755.8,269.4l-1.4-3.9c-0.2-0.5-0.2-0.9-0.2-0.9h0c0,0,0,0.4-0.2,0.9l-1.4,3.9H755.8z"/>
			<path fill="#6D6E70" d="M762.3,273.2h1.4v-8.7h-2.7v1.8h-1.4v-3.1h9.7v3.1H768v-1.8h-2.7v8.7h1.4v1.2h-4.4V273.2z"/>
			<path fill="#6D6E70" d="M772.9,273.2h1.4v-8.7h-2.7v1.8h-1.4v-3.1h9.7v3.1h-1.4v-1.8h-2.7v8.7h1.4v1.2h-4.4V273.2z"/>
			<path fill="#6D6E70" d="M783.4,273.2h1.4v-3.5l-3.2-5.3h-1.1v-1.2h3.9v1.2h-1.2l2.1,3.6c0.1,0.2,0.2,0.5,0.2,0.5h0
				c0,0,0.1-0.2,0.2-0.5l2.1-3.6h-1.2v-1.2h3.9v1.2h-1.1l-3.2,5.3v3.5h1.4v1.2h-4.4V273.2z"/>
			<path fill="#6D6E70" d="M795,273.2h1.1l3.6-10.1h1.8l3.6,10.1h1.1v1.2h-3.9v-1.2h1.2l-0.9-2.5h-4l-0.9,2.5h1.2v1.2H795V273.2z
				 M802.2,269.4l-1.4-3.9c-0.2-0.5-0.2-0.9-0.2-0.9h0c0,0,0,0.4-0.2,0.9l-1.4,3.9H802.2z"/>
			<path fill="#6D6E70" d="M812.7,263c1.4,0,4.3,0.5,4.3,2.2v1.4h-1.5v-0.9c0-1-1.7-1.4-2.8-1.4c-2.4,0-4.2,1.8-4.2,4.3
				c0,2.7,1.8,4.6,4.3,4.6c0.8,0,2.8-0.3,2.8-1.3V271h1.5v1.4c0,1.7-2.8,2.2-4.4,2.2c-3.4,0-5.8-2.6-5.8-5.9
				C806.9,265.4,809.4,263,812.7,263z"/>
			<path fill="#6D6E70" d="M818.9,273.2h1.4v-8.8h-1.4v-1.2h4.4v1.2h-1.4v8.8h1.4v1.2h-4.4V273.2z"/>
			<path fill="#6D6E70" d="M825,273.2h1.4v-8.8H825v-1.2h4.8c0.9,0,1.7,0,2.4,0.3c2.2,0.7,3.6,2.6,3.6,5.4c0,2.7-1.4,4.6-3.6,5.3
				c-0.7,0.2-1.5,0.3-2.4,0.3H825V273.2z M829.7,273.1c0.7,0,1.3-0.1,1.9-0.3c1.5-0.5,2.5-2,2.5-4c0-2.1-0.9-3.5-2.4-4.1
				c-0.6-0.2-1.2-0.3-1.9-0.3H828v8.7H829.7z"/>
			<path fill="#6D6E70" d="M838.9,271.1v0.8c0,0.8,1.1,1.3,2.3,1.3c1.3,0,2.2-0.6,2.2-1.7c0-1.3-1.3-1.7-2.7-2.3
				c-1.5-0.6-3-1.2-3-3.2c0-2.1,1.7-3,3.6-3c1.7,0,3.4,0.6,3.4,1.9v1.3h-1.5v-0.8c0-0.7-1-1-1.9-1c-1.1,0-2,0.5-2,1.6
				c0,1.2,1.1,1.6,2.4,2.1c1.7,0.6,3.3,1.3,3.3,3.4c0,2.2-1.8,3.3-3.9,3.3c-1.8,0-3.7-0.8-3.7-2.4v-1.2H838.9z"/>
		</g>
	</g>
</g>
</svg>
