<?xml version="1.0" encoding="utf-8"?>
<!-- Generator: Adobe Illustrator 18.1.1, SVG Export Plug-In . SVG Version: 6.00 Build 0)  -->
<!DOCTYPE svg PUBLIC "-//W3C//DTD SVG 1.1//EN" "http://www.w3.org/Graphics/SVG/1.1/DTD/svg11.dtd">
<svg version="1.1" id="Layer_1" xmlns="http://www.w3.org/2000/svg" xmlns:xlink="http://www.w3.org/1999/xlink" x="0px" y="0px"
	 viewBox="0 0 920 690" enable-background="new 0 0 920 690" xml:space="preserve">
<filter  height="170%" width="170%" id="ds1" y="-20%" x="-30%">
	<feOffset  in="SourceAlpha" result="offOut" dy="1" dx="0"></feOffset>
	<feGaussianBlur  in="offOut" stdDeviation="2" result="blurOut"></feGaussianBlur>
	<feComponentTransfer>
		<feFuncA  type="linear" slope="0.5"></feFuncA>
	</feComponentTransfer>
	<feMerge>
		<feMergeNode></feMergeNode>
		<feMergeNode  in="SourceGraphic"></feMergeNode>
	</feMerge>
</filter>
<g filter="url(#ds1)">
	<path fill="#6AE6A7" d="M185.8,430.9c-1.5-1.1-3.5-1.5-5.2-2.3c-0.1-0.1-0.3-0.1-0.4-0.2c-1.8-1.2-2.3-3.1-4-4.3c0,0-0.1,0-0.1-0.1
		c0.6-0.4,1.1-1,1.6-1.6c1.1-1.5,1.5-3.3,1.2-5.1c-0.3-1.8-1.3-3.4-2.8-4.4c-1.2-0.8-2.5-1.3-4-1.3c-2.2,0-4.3,1.1-5.6,2.9
		c-1.1,1.5-1.5,3.3-1.2,5.1c0.3,1.8,1.3,3.4,2.8,4.4c0,0,0.1,0,0.1,0.1c-0.6,0.4-1.1,1-1.6,1.6c-1.8,2.5-1.7,5.7,0.1,8.2
		c0.3,0.4,0.6,0.7,1,0.9c1.9,1.1,4.5,1.7,6.3,3.1c1.5,1.2,2.4,3.1,4,4.1c3.1,2.2,7.3,1.5,9.5-1.6C189.5,437.3,188.8,433,185.8,430.9
		z"/>
	<path fill="none" stroke="#3F9166" stroke-width="1.489" stroke-linejoin="round" stroke-miterlimit="10" d="M185.8,430.9
		c-1.5-1.1-3.5-1.5-5.2-2.3c-0.1-0.1-0.3-0.1-0.4-0.2c-1.8-1.2-2.3-3.1-4-4.3c0,0-0.1,0-0.1-0.1c0.6-0.4,1.1-1,1.6-1.6
		c1.1-1.5,1.5-3.3,1.2-5.1c-0.3-1.8-1.3-3.4-2.8-4.4c-1.2-0.8-2.5-1.3-4-1.3c-2.2,0-4.3,1.1-5.6,2.9c-1.1,1.5-1.5,3.3-1.2,5.1
		c0.3,1.8,1.3,3.4,2.8,4.4c0,0,0.1,0,0.1,0.1c-0.6,0.4-1.1,1-1.6,1.6c-1.8,2.5-1.7,5.7,0.1,8.2c0.3,0.4,0.6,0.7,1,0.9
		c1.9,1.1,4.5,1.7,6.3,3.1c1.5,1.2,2.4,3.1,4,4.1c3.1,2.2,7.3,1.5,9.5-1.6C189.5,437.3,188.8,433,185.8,430.9z"/>
</g>
<g filter="url(#ds1)">
	<path fill="#6AE6A7" d="M87.9,450.5c-1.5-1.1-3.5-1.5-5.2-2.3c-0.1-0.1-0.3-0.1-0.4-0.2c-1.8-1.2-2.3-3.1-4-4.3
		c0,0-0.1-0.1-0.1-0.1c0.6-0.5,1.2-1,1.7-1.7c1.2-1.7,1.7-3.2,4-3c2.5,0.2,4.7-0.3,6.3-2.6c1.1-1.5,1.5-3.3,1.2-5.1
		c-0.3-1.8-1.3-3.4-2.8-4.4c-1.2-0.8-2.5-1.3-4-1.3c-2,0-4.1,0.9-5.3,2.5c-0.7,0.9-1.3,2-2.4,2.5c-1.6,0.9-3.5,0.5-5.2,1.2
		c-1.6,0.7-3.1,1.9-3.8,3.6c-1.2,2.9-0.3,6.4,2.3,8.2c0,0,0.1,0,0.1,0.1c-0.6,0.4-1.1,1-1.6,1.6c-1.4,2-1.7,5.1-0.5,7.3
		c1.6,3.1,5.4,2.9,7.8,4.9c1.5,1.2,2.4,3.1,4,4.1c3.1,2.2,7.3,1.5,9.5-1.6C91.6,456.9,90.9,452.7,87.9,450.5z"/>
	<path fill="none" stroke="#3F9166" stroke-width="1.489" stroke-linejoin="round" stroke-miterlimit="10" d="M87.9,450.5
		c-1.5-1.1-3.5-1.5-5.2-2.3c-0.1-0.1-0.3-0.1-0.4-0.2c-1.8-1.2-2.3-3.1-4-4.3c0,0-0.1-0.1-0.1-0.1c0.6-0.5,1.2-1,1.7-1.7
		c1.2-1.7,1.7-3.2,4-3c2.5,0.2,4.7-0.3,6.3-2.6c1.1-1.5,1.5-3.3,1.2-5.1c-0.3-1.8-1.3-3.4-2.8-4.4c-1.2-0.8-2.5-1.3-4-1.3
		c-2,0-4.1,0.9-5.3,2.5c-0.7,0.9-1.3,2-2.4,2.5c-1.6,0.9-3.5,0.5-5.2,1.2c-1.6,0.7-3.1,1.9-3.8,3.6c-1.2,2.9-0.3,6.4,2.3,8.2
		c0,0,0.1,0,0.1,0.1c-0.6,0.4-1.1,1-1.6,1.6c-1.4,2-1.7,5.1-0.5,7.3c1.6,3.1,5.4,2.9,7.8,4.9c1.5,1.2,2.4,3.1,4,4.1
		c3.1,2.2,7.3,1.5,9.5-1.6C91.6,456.9,90.9,452.7,87.9,450.5z"/>
</g>
<g filter="url(#ds1)">
	<path fill="#6AE6A7" d="M111.1,443.4c1-1.5,3.1-1.5,4.7-1.6c2-0.2,3.4-1.2,4.3-2.6c0.7-1.1,1.1-2.4,1.1-3.9c0,0,0-0.1,0-0.1
		c0,0,0-0.1,0-0.1c0-1.3-0.4-2.6-1.2-3.7c-0.3-0.6-0.5-1.2-0.6-1.9c-0.2-1.8,1.4-3.2,1.7-4.9c0.3-1.8-0.1-3.6-1.2-5.1
		c-1.6-2.3-3.8-2.8-6.3-2.6c-2.2,0.2-2.8-1.3-4-3c-1.3-1.8-3.4-3-5.6-3c-1.4,0-2.8,0.4-4,1.3c-1.1,0.8-1.6,2.1-2.5,3
		c-0.9,1-2.5,1.5-3.8,1.6c-1.5,0.1-2.7,0.1-4,1c-1.9,1.4-3,3.7-2.8,6c0.1,1.3,0.6,2,1.1,3.1c0.5,1.2,0.4,2.8,0.1,4.1
		c-0.3,1.3-1.3,2.5-1.3,3.8c0,1.2,0.3,2.8,0.9,3.8c0.8,1.4,2,2.5,3.5,3.1c0.7,0.3,1.6,0.6,2.4,0.7c0.8,0.1,1.6-0.3,2.3,0.1
		c0.6,0.4,0.8,1.2,1.2,1.8c0.9,1.5,1.8,2.2,1.3,4c-0.4,1.8-1.2,3.5-1,5.4c0.2,1.7,1.2,3.3,2.7,4.3c0,0,0.1,0,0.1,0.1
		c-0.6,0.4-1.1,1-1.6,1.6c-2,2.7-1.2,5.9,0.7,8.4c0.8,1,1.7,2.3,3,2.6c1.4,0.3,2.4,0.3,3.6,1.3c1.5,1.2,2.4,3.1,4,4.1
		c3.1,2.2,7.3,1.5,9.5-1.6c2.2-3.1,1.5-7.3-1.6-9.5c-1.5-1.1-3.5-1.5-5.2-2.3c-0.1-0.1-0.3-0.1-0.4-0.2c-1.8-1.2-2.3-3.1-4-4.3
		c0,0-0.1-0.1-0.1-0.1c0.6-0.5,1.2-1,1.7-1.7c1.1-1.6,1.5-3.8,1.1-5.7c-0.5-2.3-2.4-2.9-0.7-5.2C110.6,444.9,110.6,444,111.1,443.4z
		"/>
	<path fill="none" stroke="#3F9166" stroke-width="1.489" stroke-linejoin="round" stroke-miterlimit="10" d="M111.1,443.4
		c1-1.5,3.1-1.5,4.7-1.6c2-0.2,3.4-1.2,4.3-2.6c0.7-1.1,1.1-2.4,1.1-3.9c0,0,0-0.1,0-0.1c0,0,0-0.1,0-0.1c0-1.3-0.4-2.6-1.2-3.7
		c-0.3-0.6-0.5-1.2-0.6-1.9c-0.2-1.8,1.4-3.2,1.7-4.9c0.3-1.8-0.1-3.6-1.2-5.1c-1.6-2.3-3.8-2.8-6.3-2.6c-2.2,0.2-2.8-1.3-4-3
		c-1.3-1.8-3.4-3-5.6-3c-1.4,0-2.8,0.4-4,1.3c-1.1,0.8-1.6,2.1-2.5,3c-0.9,1-2.5,1.5-3.8,1.6c-1.5,0.1-2.7,0.1-4,1
		c-1.9,1.4-3,3.7-2.8,6c0.1,1.3,0.6,2,1.1,3.1c0.5,1.2,0.4,2.8,0.1,4.1c-0.3,1.3-1.3,2.5-1.3,3.8c0,1.2,0.3,2.8,0.9,3.8
		c0.8,1.4,2,2.5,3.5,3.1c0.7,0.3,1.6,0.6,2.4,0.7c0.8,0.1,1.6-0.3,2.3,0.1c0.6,0.4,0.8,1.2,1.2,1.8c0.9,1.5,1.8,2.2,1.3,4
		c-0.4,1.8-1.2,3.5-1,5.4c0.2,1.7,1.2,3.3,2.7,4.3c0,0,0.1,0,0.1,0.1c-0.6,0.4-1.1,1-1.6,1.6c-2,2.7-1.2,5.9,0.7,8.4
		c0.8,1,1.7,2.3,3,2.6c1.4,0.3,2.4,0.3,3.6,1.3c1.5,1.2,2.4,3.1,4,4.1c3.1,2.2,7.3,1.5,9.5-1.6c2.2-3.1,1.5-7.3-1.6-9.5
		c-1.5-1.1-3.5-1.5-5.2-2.3c-0.1-0.1-0.3-0.1-0.4-0.2c-1.8-1.2-2.3-3.1-4-4.3c0,0-0.1-0.1-0.1-0.1c0.6-0.5,1.2-1,1.7-1.7
		c1.1-1.6,1.5-3.8,1.1-5.7c-0.5-2.3-2.4-2.9-0.7-5.2C110.6,444.9,110.6,444,111.1,443.4z"/>
</g>
<g filter="url(#ds1)">
	<path fill="#6AE6A7" d="M154.2,439.1c1.1-0.3,2.3,0.1,3.4-0.1c1.5-0.2,2.9-1,3.9-2.2c1.4-1.7,2-4.1,1.4-6.3
		c-0.3-1.1-1.1-1.8-1.5-2.9c-0.2-0.4-0.2-0.8-0.2-1.2c0.1-1.7,1.6-3.2,1.9-4.8c0.3-1.8-0.1-3.6-1.2-5.1c-1.3-1.8-3.4-2.9-5.6-2.9
		c-1.4,0-2.8,0.4-4,1.3c-1.5,1.1-2.5,2.6-2.8,4.4c-0.4,2.5,0.9,3.9,1.7,6c0.7,1.8-0.5,3.6-1.7,4.8c-0.8,0.8-1.9,1-2.9,1.1
		c-2,0.1-4.2,0.4-5.7,1.9c-1.3,1.3-1.9,3.1-1.9,4.9c0,1.5,0.5,3,1.3,4.6c0.9,1.6-0.4,3.5-0.8,5.1c-0.6,2.2-0.5,4.3,0.8,6.1
		c0.5,0.7,1,1.2,1.7,1.7c-0.6,0.4-1.2,1-1.7,1.7c-1.7,2.4-1.7,5.6,0.2,7.8c1,1.1,1.9,2,3.2,2.6c1.3,0.6,2.8,0.9,3.9,1.9
		c1.5,1.2,2.4,3.1,4,4.1c3.1,2.2,7.3,1.5,9.5-1.6c2.2-3.1,1.5-7.3-1.6-9.5c-1.5-1.1-3.5-1.5-5.2-2.3c-0.1-0.1-0.3-0.1-0.4-0.2
		c-1.8-1.2-2.3-3.1-4-4.3c0,0,0.1,0,0.1-0.1c1.8-1.3,2.6-3.4,2.8-5.5c0.2-2.9-2.4-5.1-0.9-8C152.3,440.8,152.9,439.5,154.2,439.1z"
		/>
	<path fill="none" stroke="#3F9166" stroke-width="1.489" stroke-linejoin="round" stroke-miterlimit="10" d="M154.2,439.1
		c1.1-0.3,2.3,0.1,3.4-0.1c1.5-0.2,2.9-1,3.9-2.2c1.4-1.7,2-4.1,1.4-6.3c-0.3-1.1-1.1-1.8-1.5-2.9c-0.2-0.4-0.2-0.8-0.2-1.2
		c0.1-1.7,1.6-3.2,1.9-4.8c0.3-1.8-0.1-3.6-1.2-5.1c-1.3-1.8-3.4-2.9-5.6-2.9c-1.4,0-2.8,0.4-4,1.3c-1.5,1.1-2.5,2.6-2.8,4.4
		c-0.4,2.5,0.9,3.9,1.7,6c0.7,1.8-0.5,3.6-1.7,4.8c-0.8,0.8-1.9,1-2.9,1.1c-2,0.1-4.2,0.4-5.7,1.9c-1.3,1.3-1.9,3.1-1.9,4.9
		c0,1.5,0.5,3,1.3,4.6c0.9,1.6-0.4,3.5-0.8,5.1c-0.6,2.2-0.5,4.3,0.8,6.1c0.5,0.7,1,1.2,1.7,1.7c-0.6,0.4-1.2,1-1.7,1.7
		c-1.7,2.4-1.7,5.6,0.2,7.8c1,1.1,1.9,2,3.2,2.6c1.3,0.6,2.8,0.9,3.9,1.9c1.5,1.2,2.4,3.1,4,4.1c3.1,2.2,7.3,1.5,9.5-1.6
		c2.2-3.1,1.5-7.3-1.6-9.5c-1.5-1.1-3.5-1.5-5.2-2.3c-0.1-0.1-0.3-0.1-0.4-0.2c-1.8-1.2-2.3-3.1-4-4.3c0,0,0.1,0,0.1-0.1
		c1.8-1.3,2.6-3.4,2.8-5.5c0.2-2.9-2.4-5.1-0.9-8C152.3,440.8,152.9,439.5,154.2,439.1z"/>
</g>
<g filter="url(#ds1)">
	<path fill="#6AE6A7" d="M141.3,443.4c1-1.5,3.1-1.5,4.7-1.6c2-0.2,3.4-1.2,4.3-2.6c0.7-1.1,1.1-2.4,1.1-3.9c0,0,0-0.1,0-0.1
		c0,0,0-0.1,0-0.1c0-1.3-0.4-2.6-1.2-3.7c-0.3-0.6-0.5-1.2-0.6-1.9c-0.2-1.8,1.4-3.2,1.7-4.9c0.3-1.8-0.1-3.6-1.2-5.1
		c-1.6-2.3-3.8-2.8-6.3-2.6c-2.2,0.2-2.8-1.3-4-3c-1.3-1.8-3.4-3-5.6-3c-1.4,0-2.8,0.4-4,1.3c-1.1,0.8-1.6,2.1-2.5,3
		c-0.9,1-2.5,1.5-3.8,1.6c-1.5,0.1-2.7,0.1-4,1c-1.9,1.4-3,3.7-2.8,6c0.1,1.3,0.6,2,1.1,3.1c0.5,1.2,0.4,2.8,0.1,4.1
		c-0.3,1.3-1.3,2.5-1.3,3.8c0,1.2,0.3,2.8,0.9,3.8c0.8,1.4,2,2.5,3.5,3.1c0.7,0.3,1.6,0.6,2.4,0.7c0.8,0.1,1.6-0.3,2.3,0.1
		c0.6,0.4,0.8,1.2,1.2,1.8c0.9,1.5,1.8,2.2,1.3,4c-0.4,1.8-1.2,3.5-1,5.4c0.2,1.7,1.2,3.3,2.7,4.3c0,0,0.1,0,0.1,0.1
		c-0.6,0.4-1.1,1-1.6,1.6c-1.8,2.6-1.5,5.3,0.2,7.8c0.3,0.4,0.6,0.9,1,1.3c1.7,1.5,4.3,1.8,6,3.2c1.5,1.2,2.4,3.1,4,4.1
		c3.1,2.2,7.3,1.5,9.5-1.6c2.2-3.1,1.5-7.3-1.6-9.5c-1.5-1.1-3.5-1.5-5.2-2.3c-0.1-0.1-0.3-0.1-0.4-0.2c-1.8-1.2-2.3-3.1-4-4.3
		c0,0-0.1-0.1-0.1-0.1c0.6-0.5,1.2-1,1.7-1.7c1.1-1.6,1.5-3.8,1.1-5.7c-0.5-2.3-2.4-2.9-0.7-5.2
		C140.8,444.9,140.9,444.1,141.3,443.4z"/>
	<path fill="none" stroke="#3F9166" stroke-width="1.489" stroke-linejoin="round" stroke-miterlimit="10" d="M141.3,443.4
		c1-1.5,3.1-1.5,4.7-1.6c2-0.2,3.4-1.2,4.3-2.6c0.7-1.1,1.1-2.4,1.1-3.9c0,0,0-0.1,0-0.1c0,0,0-0.1,0-0.1c0-1.3-0.4-2.6-1.2-3.7
		c-0.3-0.6-0.5-1.2-0.6-1.9c-0.2-1.8,1.4-3.2,1.7-4.9c0.3-1.8-0.1-3.6-1.2-5.1c-1.6-2.3-3.8-2.8-6.3-2.6c-2.2,0.2-2.8-1.3-4-3
		c-1.3-1.8-3.4-3-5.6-3c-1.4,0-2.8,0.4-4,1.3c-1.1,0.8-1.6,2.1-2.5,3c-0.9,1-2.5,1.5-3.8,1.6c-1.5,0.1-2.7,0.1-4,1
		c-1.9,1.4-3,3.7-2.8,6c0.1,1.3,0.6,2,1.1,3.1c0.5,1.2,0.4,2.8,0.1,4.1c-0.3,1.3-1.3,2.5-1.3,3.8c0,1.2,0.3,2.8,0.9,3.8
		c0.8,1.4,2,2.5,3.5,3.1c0.7,0.3,1.6,0.6,2.4,0.7c0.8,0.1,1.6-0.3,2.3,0.1c0.6,0.4,0.8,1.2,1.2,1.8c0.9,1.5,1.8,2.2,1.3,4
		c-0.4,1.8-1.2,3.5-1,5.4c0.2,1.7,1.2,3.3,2.7,4.3c0,0,0.1,0,0.1,0.1c-0.6,0.4-1.1,1-1.6,1.6c-1.8,2.6-1.5,5.3,0.2,7.8
		c0.3,0.4,0.6,0.9,1,1.3c1.7,1.5,4.3,1.8,6,3.2c1.5,1.2,2.4,3.1,4,4.1c3.1,2.2,7.3,1.5,9.5-1.6c2.2-3.1,1.5-7.3-1.6-9.5
		c-1.5-1.1-3.5-1.5-5.2-2.3c-0.1-0.1-0.3-0.1-0.4-0.2c-1.8-1.2-2.3-3.1-4-4.3c0,0-0.1-0.1-0.1-0.1c0.6-0.5,1.2-1,1.7-1.7
		c1.1-1.6,1.5-3.8,1.1-5.7c-0.5-2.3-2.4-2.9-0.7-5.2C140.8,444.9,140.9,444.1,141.3,443.4z"/>
</g>
<g filter="url(#ds1)">
	<path fill="#6AE6A7" d="M214,433.6c-1.5-1.1-3.5-1.5-5.2-2.3c-0.1-0.1-0.3-0.1-0.4-0.2c-0.9-0.6-1.5-1.4-2.1-2.2
		c-0.1-0.3-0.2-0.7-0.2-1.1c-0.5-2.7,1.5-5.1,1.2-7.9c-0.3-2.7-2.2-5.1-4.8-5.9c-1-0.3-2.6-0.3-3.5-0.1c-0.9,0.1-1.7,0.5-2.6,0.7
		c-0.8,0.2-1.6,0.2-2.4,0.1c-0.7-0.1-1.1-0.6-1.7-0.9c-0.6-0.3-1.4-0.5-2.1-0.7c-1.5-0.3-3.2-0.4-4.6,0.2c-3.2,1.2-4.2,4.4-4.2,7.6
		c0,1.9-0.5,3.1-1.4,4.7c-0.8,1.4-1.5,2.9-1.6,4.5c-0.1,1.8,0.9,4.1,2.2,5.4c1.5,1.4,3.6,1.7,5.4,2.5c1.3,0.5,1.8,1.8,2.8,2.8
		c2,1.9,4.6,2.3,7.1,1.1c1.7-0.8,2.4-2.1,4.2-2.5c0.7,0.3,1.5,0.6,2.1,1.2c1.5,1.2,2.4,3.1,4,4.1c3.1,2.2,7.3,1.5,9.5-1.6
		C217.8,440,217.1,435.8,214,433.6z"/>
	<path fill="none" stroke="#3F9166" stroke-width="1.489" stroke-linejoin="round" stroke-miterlimit="10" d="M214,433.6
		c-1.5-1.1-3.5-1.5-5.2-2.3c-0.1-0.1-0.3-0.1-0.4-0.2c-0.9-0.6-1.5-1.4-2.1-2.2c-0.1-0.3-0.2-0.7-0.2-1.1c-0.5-2.7,1.5-5.1,1.2-7.9
		c-0.3-2.7-2.2-5.1-4.8-5.9c-1-0.3-2.6-0.3-3.5-0.1c-0.9,0.1-1.7,0.5-2.6,0.7c-0.8,0.2-1.6,0.2-2.4,0.1c-0.7-0.1-1.1-0.6-1.7-0.9
		c-0.6-0.3-1.4-0.5-2.1-0.7c-1.5-0.3-3.2-0.4-4.6,0.2c-3.2,1.2-4.2,4.4-4.2,7.6c0,1.9-0.5,3.1-1.4,4.7c-0.8,1.4-1.5,2.9-1.6,4.5
		c-0.1,1.8,0.9,4.1,2.2,5.4c1.5,1.4,3.6,1.7,5.4,2.5c1.3,0.5,1.8,1.8,2.8,2.8c2,1.9,4.6,2.3,7.1,1.1c1.7-0.8,2.4-2.1,4.2-2.5
		c0.7,0.3,1.5,0.6,2.1,1.2c1.5,1.2,2.4,3.1,4,4.1c3.1,2.2,7.3,1.5,9.5-1.6C217.8,440,217.1,435.8,214,433.6z"/>
</g>
<g filter="url(#ds1)">
	<path fill="#6AE6A7" d="M263.3,471.6c-1.9,0.2-3.6,1.3-5.4,1.7c-0.1,0-0.3,0.1-0.4,0.1c-2.1,0.3-3.7-0.8-5.9-0.5c0,0-0.1,0-0.1,0
		c0.2-0.8,0.2-1.6,0.1-2.4c-0.2-1.9-1.3-3.5-2.8-4.6c-1.3-1-3.2-1.5-4.2-2.9c-0.9-1.3-1.3-2.8-2.2-4.1c-0.2-0.3-0.5-0.6-0.7-0.9
		c-2-2.2-5.3-3-8.1-1.8c-3.3,1.5-5,5.7-3.2,8.9c1,1.8,2.1,2.9,3.7,4.1c1.8,1.3,3.4,2.6,4.1,4.7c0.9,2.7,4.4,4.6,7.3,4.3
		c0,0,0.1,0,0.1,0c-0.2,0.7-0.2,1.5-0.1,2.2c0.4,3.2,3.3,6.1,6.6,6c2.5-0.1,4.6-1.6,7-1.7c1.9-0.1,3.8,0.7,5.7,0.5
		c3.7-0.4,6.4-3.8,6-7.5C270.4,473.9,267,471.2,263.3,471.6z"/>
	<path fill="none" stroke="#3F9166" stroke-width="1.489" stroke-linejoin="round" stroke-miterlimit="10" d="M263.3,471.6
		c-1.9,0.2-3.6,1.3-5.4,1.7c-0.1,0-0.3,0.1-0.4,0.1c-2.1,0.3-3.7-0.8-5.9-0.5c0,0-0.1,0-0.1,0c0.2-0.8,0.2-1.6,0.1-2.4
		c-0.2-1.9-1.3-3.5-2.8-4.6c-1.3-1-3.2-1.5-4.2-2.9c-0.9-1.3-1.3-2.8-2.2-4.1c-0.2-0.3-0.5-0.6-0.7-0.9c-2-2.2-5.3-3-8.1-1.8
		c-3.3,1.5-5,5.7-3.2,8.9c1,1.8,2.1,2.9,3.7,4.1c1.8,1.3,3.4,2.6,4.1,4.7c0.9,2.7,4.4,4.6,7.3,4.3c0,0,0.1,0,0.1,0
		c-0.2,0.7-0.2,1.5-0.1,2.2c0.4,3.2,3.3,6.1,6.6,6c2.5-0.1,4.6-1.6,7-1.7c1.9-0.1,3.8,0.7,5.7,0.5c3.7-0.4,6.4-3.8,6-7.5
		C270.4,473.9,267,471.2,263.3,471.6z"/>
</g>
<g filter="url(#ds1)">
	<path fill="#6AE6A7" d="M245.9,423.4c-1.7,0.6-3.2,2.1-4.9,3c-0.1,0.1-0.3,0.1-0.4,0.2c-2,0.8-3.8,0.2-5.8,0.9c0,0-0.1,0-0.1,0.1
		c0-0.8-0.2-1.6-0.4-2.3c-0.7-1.8-2.1-3-3.8-3.8c-1.5-0.7-3.5-0.7-4.8-1.8c-1.1-1.1-2-2.4-3.1-3.5c-0.3-0.3-0.6-0.5-0.9-0.7
		c-4.5-3-11-0.3-10.8,5.9c0.1,2.5,1.4,4.4,3.6,5.6c3.1,1.7,5.8,1.7,7.8,4.8c1.6,2.4,5.4,3.4,8.1,2.4c0,0,0.1,0,0.1-0.1
		c0,0.7,0.1,1.5,0.4,2.2c0.9,2.4,3.4,4.2,5.9,4.4c3.4,0.3,5.3-2.7,8.3-3.5c1.8-0.5,3.9-0.3,5.6-0.9c3.5-1.3,5.3-5.2,4-8.8
		C253.4,423.9,249.5,422.1,245.9,423.4z"/>
	<path fill="none" stroke="#3F9166" stroke-width="1.489" stroke-linejoin="round" stroke-miterlimit="10" d="M245.9,423.4
		c-1.7,0.6-3.2,2.1-4.9,3c-0.1,0.1-0.3,0.1-0.4,0.2c-2,0.8-3.8,0.2-5.8,0.9c0,0-0.1,0-0.1,0.1c0-0.8-0.2-1.6-0.4-2.3
		c-0.7-1.8-2.1-3-3.8-3.8c-1.5-0.7-3.5-0.7-4.8-1.8c-1.1-1.1-2-2.4-3.1-3.5c-0.3-0.3-0.6-0.5-0.9-0.7c-4.5-3-11-0.3-10.8,5.9
		c0.1,2.5,1.4,4.4,3.6,5.6c3.1,1.7,5.8,1.7,7.8,4.8c1.6,2.4,5.4,3.4,8.1,2.4c0,0,0.1,0,0.1-0.1c0,0.7,0.1,1.5,0.4,2.2
		c0.9,2.4,3.4,4.2,5.9,4.4c3.4,0.3,5.3-2.7,8.3-3.5c1.8-0.5,3.9-0.3,5.6-0.9c3.5-1.3,5.3-5.2,4-8.8
		C253.4,423.9,249.5,422.1,245.9,423.4z"/>
</g>
<g filter="url(#ds1)">
	<path fill="#6AE6A7" d="M245.4,416c-0.1-0.1-0.2-0.3-0.3-0.4c-1.3-1.8-3.9-3.1-6.2-2.7c-3.4,0.6-3.9,2.2-6.1,4.5
		c-0.8,0.8-1.9,1-2.9,1.1c-2,0.1-4.2,0.4-5.7,1.9c-1.3,1.3-1.9,3.1-1.9,4.9c0,1.5,0.5,3,1.3,4.6c0.9,1.6-0.4,3.5-0.8,5.1
		c-0.6,2.2-0.5,4.3,0.8,6.1c0.5,0.7,1,1.2,1.7,1.7c-0.6,0.4-1.2,1-1.7,1.7c-1.5,2-1.4,4.1-0.6,6.3c1.3,3.7,5.3,3.8,7.9,6
		c1.5,1.2,2.4,3.1,4,4.1c3.1,2.2,7.3,1.5,9.5-1.6c2.2-3.1,1.5-7.3-1.6-9.5c-1.5-1.1-3.5-1.5-5.2-2.3c-0.1-0.1-0.3-0.1-0.4-0.2
		c-1.8-1.2-2.3-3.1-4-4.3c0,0,0.1,0,0.1-0.1c1.8-1.3,2.6-3.4,2.8-5.5c0.2-2.9-2.4-5.1-0.9-8c0.6-1.1,1.1-2.5,2.4-2.9
		c1.1-0.3,2.3,0.1,3.4-0.1c1.5-0.2,2.9-1,3.9-2.2C246.6,421.8,247,418.5,245.4,416z"/>
	<path fill="none" stroke="#3F9166" stroke-width="1.489" stroke-linejoin="round" stroke-miterlimit="10" d="M245.4,416
		c-0.1-0.1-0.2-0.3-0.3-0.4c-1.3-1.8-3.9-3.1-6.2-2.7c-3.4,0.6-3.9,2.2-6.1,4.5c-0.8,0.8-1.9,1-2.9,1.1c-2,0.1-4.2,0.4-5.7,1.9
		c-1.3,1.3-1.9,3.1-1.9,4.9c0,1.5,0.5,3,1.3,4.6c0.9,1.6-0.4,3.5-0.8,5.1c-0.6,2.2-0.5,4.3,0.8,6.1c0.5,0.7,1,1.2,1.7,1.7
		c-0.6,0.4-1.2,1-1.7,1.7c-1.5,2-1.4,4.1-0.6,6.3c1.3,3.7,5.3,3.8,7.9,6c1.5,1.2,2.4,3.1,4,4.1c3.1,2.2,7.3,1.5,9.5-1.6
		c2.2-3.1,1.5-7.3-1.6-9.5c-1.5-1.1-3.5-1.5-5.2-2.3c-0.1-0.1-0.3-0.1-0.4-0.2c-1.8-1.2-2.3-3.1-4-4.3c0,0,0.1,0,0.1-0.1
		c1.8-1.3,2.6-3.4,2.8-5.5c0.2-2.9-2.4-5.1-0.9-8c0.6-1.1,1.1-2.5,2.4-2.9c1.1-0.3,2.3,0.1,3.4-0.1c1.5-0.2,2.9-1,3.9-2.2
		C246.6,421.8,247,418.5,245.4,416z"/>
</g>
<g filter="url(#ds1)">
	<path fill="#6AE6A7" d="M198.5,470.3c-1.5-1.1-3.5-1.5-5.2-2.3c-0.1-0.1-0.3-0.1-0.4-0.2c-1.8-1.2-2.3-3.1-4-4.3
		c0,0-0.1-0.1-0.1-0.1c0.6-0.5,1.2-1,1.7-1.7c1.3-1.9,1.4-3.9,0.8-6.1c-0.5-1.6-1.7-3.4-0.8-5.1c0.8-1.5,1.3-3,1.3-4.6
		c0-1.8-0.6-3.6-1.9-4.9c-1.5-1.5-3.6-1.8-5.7-1.9c-1,0-2.2-0.3-2.9-1.1c-1-1.1-1.5-2.6-2.8-3.5c-1.2-0.8-2.5-1.3-4-1.3
		c-2.2,0-4.3,1.1-5.6,2.9c-1.8,2.5-1.6,6.1,0.4,8.4c1,1.2,2.3,2,3.9,2.2c1.1,0.2,2.3-0.2,3.4,0.1c1.3,0.4,1.8,1.7,2.4,2.9
		c1.5,2.9-1.2,5.1-0.9,8c0.2,2.1,1,4.2,2.8,5.5c0,0,0.1,0,0.1,0.1c-0.6,0.4-1.1,1-1.6,1.6c-1.7,2.4-2,6.5,0.5,8.5
		c2,1.7,4.8,2,6.8,3.7c1.5,1.2,2.4,3.1,4,4.1c3.1,2.2,7.3,1.5,9.5-1.6C202.3,476.8,201.6,472.5,198.5,470.3z"/>
	<path fill="none" stroke="#3F9166" stroke-width="1.489" stroke-linejoin="round" stroke-miterlimit="10" d="M198.5,470.3
		c-1.5-1.1-3.5-1.5-5.2-2.3c-0.1-0.1-0.3-0.1-0.4-0.2c-1.8-1.2-2.3-3.1-4-4.3c0,0-0.1-0.1-0.1-0.1c0.6-0.5,1.2-1,1.7-1.7
		c1.3-1.9,1.4-3.9,0.8-6.1c-0.5-1.6-1.7-3.4-0.8-5.1c0.8-1.5,1.3-3,1.3-4.6c0-1.8-0.6-3.6-1.9-4.9c-1.5-1.5-3.6-1.8-5.7-1.9
		c-1,0-2.2-0.3-2.9-1.1c-1-1.1-1.5-2.6-2.8-3.5c-1.2-0.8-2.5-1.3-4-1.3c-2.2,0-4.3,1.1-5.6,2.9c-1.8,2.5-1.6,6.1,0.4,8.4
		c1,1.2,2.3,2,3.9,2.2c1.1,0.2,2.3-0.2,3.4,0.1c1.3,0.4,1.8,1.7,2.4,2.9c1.5,2.9-1.2,5.1-0.9,8c0.2,2.1,1,4.2,2.8,5.5
		c0,0,0.1,0,0.1,0.1c-0.6,0.4-1.1,1-1.6,1.6c-1.7,2.4-2,6.5,0.5,8.5c2,1.7,4.8,2,6.8,3.7c1.5,1.2,2.4,3.1,4,4.1
		c3.1,2.2,7.3,1.5,9.5-1.6C202.3,476.8,201.6,472.5,198.5,470.3z"/>
</g>
<g filter="url(#ds1)">
	<path fill="#6AE6A7" d="M139.5,475.1c-1.5-1.1-3.5-1.5-5.2-2.3c-0.1-0.1-0.3-0.1-0.4-0.2c-1.8-1.2-2.3-3.1-4-4.3
		c0,0-0.1-0.1-0.1-0.1c0.6-0.5,1.2-1,1.7-1.7c1.3-1.9,1.4-3.9,0.8-6.1c-0.5-1.6-1.7-3.4-0.8-5.1c0.8-1.5,1.3-3,1.3-4.6
		c0-1.8-0.6-3.6-1.9-4.9c-1.5-1.5-3.6-1.8-5.7-1.9c-1,0-2.2-0.3-2.9-1.1c-1-1.1-1.5-2.6-2.8-3.5c-0.5-0.3-1-0.6-1.6-0.8
		c0.6-0.3,1.2-0.8,1.6-1.5c1.6-2.2,1.1-5.4-1.2-7c-1.5-1.1-3.4-1.2-4.9-0.5c0.3-1,0.4-2.2,0.3-3.3c-0.3-1.8-1.3-3.4-2.8-4.4
		c-1.2-0.8-2.5-1.3-4-1.3c-2.2,0-4.3,1.1-5.6,2.9c-1.1,1.5-1.5,3.3-1.2,5.1c0.3,1.8,1.3,3.4,2.8,4.4c1.2,0.8,2.5,1.3,4,1.3
		c1.3,0,2.5-0.4,3.6-1c-0.2,0.9-0.1,1.9,0.3,2.8c0,0.1,0.1,0.2,0.1,0.3c0.4,0.7,0.9,1.4,1.6,1.9c0.2,0.1,0.3,0.2,0.5,0.3
		c-1.2,0.5-2.3,1.3-3.1,2.4c-1.8,2.5-1.6,6.1,0.4,8.4c1,1.2,2.3,2,3.9,2.2c1.1,0.2,2.3-0.2,3.4,0.1c1.3,0.4,1.8,1.7,2.4,2.9
		c1.5,2.9-1.2,5.1-0.9,8c0.2,2.1,1,4.2,2.8,5.5c0,0,0.1,0,0.1,0.1c-0.6,0.4-1.1,1-1.6,1.6c-1.6,2.2-1.5,4.7-0.3,7
		c0.5,0.9,1,1.8,1.7,2.6c1.7,1.8,4.1,1.1,5.9,2.7c1.5,1.2,2.4,3.1,4,4.1c3.1,2.2,7.3,1.5,9.5-1.6
		C143.3,481.6,142.6,477.3,139.5,475.1z"/>
	<path fill="none" stroke="#3F9166" stroke-width="1.489" stroke-linejoin="round" stroke-miterlimit="10" d="M139.5,475.1
		c-1.5-1.1-3.5-1.5-5.2-2.3c-0.1-0.1-0.3-0.1-0.4-0.2c-1.8-1.2-2.3-3.1-4-4.3c0,0-0.1-0.1-0.1-0.1c0.6-0.5,1.2-1,1.7-1.7
		c1.3-1.9,1.4-3.9,0.8-6.1c-0.5-1.6-1.7-3.4-0.8-5.1c0.8-1.5,1.3-3,1.3-4.6c0-1.8-0.6-3.6-1.9-4.9c-1.5-1.5-3.6-1.8-5.7-1.9
		c-1,0-2.2-0.3-2.9-1.1c-1-1.1-1.5-2.6-2.8-3.5c-0.5-0.3-1-0.6-1.6-0.8c0.6-0.3,1.2-0.8,1.6-1.5c1.6-2.2,1.1-5.4-1.2-7
		c-1.5-1.1-3.4-1.2-4.9-0.5c0.3-1,0.4-2.2,0.3-3.3c-0.3-1.8-1.3-3.4-2.8-4.4c-1.2-0.8-2.5-1.3-4-1.3c-2.2,0-4.3,1.1-5.6,2.9
		c-1.1,1.5-1.5,3.3-1.2,5.1c0.3,1.8,1.3,3.4,2.8,4.4c1.2,0.8,2.5,1.3,4,1.3c1.3,0,2.5-0.4,3.6-1c-0.2,0.9-0.1,1.9,0.3,2.8
		c0,0.1,0.1,0.2,0.1,0.3c0.4,0.7,0.9,1.4,1.6,1.9c0.2,0.1,0.3,0.2,0.5,0.3c-1.2,0.5-2.3,1.3-3.1,2.4c-1.8,2.5-1.6,6.1,0.4,8.4
		c1,1.2,2.3,2,3.9,2.2c1.1,0.2,2.3-0.2,3.4,0.1c1.3,0.4,1.8,1.7,2.4,2.9c1.5,2.9-1.2,5.1-0.9,8c0.2,2.1,1,4.2,2.8,5.5
		c0,0,0.1,0,0.1,0.1c-0.6,0.4-1.1,1-1.6,1.6c-1.6,2.2-1.5,4.7-0.3,7c0.5,0.9,1,1.8,1.7,2.6c1.7,1.8,4.1,1.1,5.9,2.7
		c1.5,1.2,2.4,3.1,4,4.1c3.1,2.2,7.3,1.5,9.5-1.6C143.3,481.6,142.6,477.3,139.5,475.1z"/>
</g>
<g filter="url(#ds1)">
	<path fill="#6AE6A7" d="M194,446.1c1.1-3.6-1.3-7.2-5-7.8c-2.6-0.4-3.2-2.2-4.2-4.4c-0.4-0.8-0.6-1.5-0.6-2.4
		c0.1-1.6,1.3-2.8,1.6-4.3c0.3-1.8-0.1-3.6-1.2-5.1c-1.6-2.3-3.8-2.8-6.3-2.6c-2.2,0.2-2.8-1.3-4-3c-1.3-1.8-3.4-3-5.6-3
		c-1.4,0-2.8,0.4-4,1.3c-1.1,0.8-1.6,2.1-2.5,3c-0.9,1-2.5,1.5-3.8,1.6c-1.5,0.1-2.7,0.1-4,1c-1.9,1.4-3,3.7-2.8,6
		c0.1,1.3,0.6,2,1.1,3.1c0.5,1.2,0.4,2.8,0.1,4.1c-0.3,1.3-1.3,2.5-1.3,3.8c0,1.2,0.3,2.8,0.9,3.8c0.8,1.4,2,2.5,3.5,3.1
		c1.8,0.7,3.4-0.6,5.2,0.6c1.3,0.9,2,2.4,2.9,3.6c0.6,0.7,1.3,1.4,1.7,2.2c0.4,1,0.3,2,0.4,3c0.2,1.3,0.8,2.5,0.4,3.9
		c-0.6,1.7-2.4,2.3-3.4,3.7c-1.1,1.5-1.5,3.3-1.2,5.1c0.3,1.8,1.3,3.4,2.8,4.4c0,0,0.1,0,0.1,0.1c-0.6,0.4-1.1,1-1.6,1.6
		c-1.5,2.2-1.6,4.9-0.4,7.2c1.7,3.2,5.2,2.9,7.7,5c1.5,1.2,2.4,3.1,4,4.1c3.1,2.2,7.3,1.5,9.5-1.6c2.2-3.1,1.5-7.3-1.6-9.5
		c-1.5-1.1-3.5-1.5-5.2-2.3c-0.1-0.1-0.3-0.1-0.4-0.2c-1.8-1.2-2.3-3.1-4-4.3c0,0-0.1,0-0.1-0.1c0.6-0.4,1.1-1,1.6-1.6
		c1-1.3,1.3-2.9,1.4-4.5c0.1-1-0.3-2.2,0.2-3.2c1.4-2.8,4.1-1.9,6.4-1c2.7,1,5.9,0.5,8-1.6c1.1-1.1,1.7-2.6,2-4.2
		c0.3-1.5-0.4-2.9-0.2-4.4C192.2,448.7,193.5,447.6,194,446.1z"/>
	<path fill="none" stroke="#3F9166" stroke-width="1.489" stroke-linejoin="round" stroke-miterlimit="10" d="M194,446.1
		c1.1-3.6-1.3-7.2-5-7.8c-2.6-0.4-3.2-2.2-4.2-4.4c-0.4-0.8-0.6-1.5-0.6-2.4c0.1-1.6,1.3-2.8,1.6-4.3c0.3-1.8-0.1-3.6-1.2-5.1
		c-1.6-2.3-3.8-2.8-6.3-2.6c-2.2,0.2-2.8-1.3-4-3c-1.3-1.8-3.4-3-5.6-3c-1.4,0-2.8,0.4-4,1.3c-1.1,0.8-1.6,2.1-2.5,3
		c-0.9,1-2.5,1.5-3.8,1.6c-1.5,0.1-2.7,0.1-4,1c-1.9,1.4-3,3.7-2.8,6c0.1,1.3,0.6,2,1.1,3.1c0.5,1.2,0.4,2.8,0.1,4.1
		c-0.3,1.3-1.3,2.5-1.3,3.8c0,1.2,0.3,2.8,0.9,3.8c0.8,1.4,2,2.5,3.5,3.1c1.8,0.7,3.4-0.6,5.2,0.6c1.3,0.9,2,2.4,2.9,3.6
		c0.6,0.7,1.3,1.4,1.7,2.2c0.4,1,0.3,2,0.4,3c0.2,1.3,0.8,2.5,0.4,3.9c-0.6,1.7-2.4,2.3-3.4,3.7c-1.1,1.5-1.5,3.3-1.2,5.1
		c0.3,1.8,1.3,3.4,2.8,4.4c0,0,0.1,0,0.1,0.1c-0.6,0.4-1.1,1-1.6,1.6c-1.5,2.2-1.6,4.9-0.4,7.2c1.7,3.2,5.2,2.9,7.7,5
		c1.5,1.2,2.4,3.1,4,4.1c3.1,2.2,7.3,1.5,9.5-1.6c2.2-3.1,1.5-7.3-1.6-9.5c-1.5-1.1-3.5-1.5-5.2-2.3c-0.1-0.1-0.3-0.1-0.4-0.2
		c-1.8-1.2-2.3-3.1-4-4.3c0,0-0.1,0-0.1-0.1c0.6-0.4,1.1-1,1.6-1.6c1-1.3,1.3-2.9,1.4-4.5c0.1-1-0.3-2.2,0.2-3.2
		c1.4-2.8,4.1-1.9,6.4-1c2.7,1,5.9,0.5,8-1.6c1.1-1.1,1.7-2.6,2-4.2c0.3-1.5-0.4-2.9-0.2-4.4C192.2,448.7,193.5,447.6,194,446.1z"/>
</g>
<g filter="url(#ds1)">
	<path fill="#6AE6A7" d="M242.4,473.2c-1.5-1.1-3.5-1.5-5.2-2.3c-0.1-0.1-0.3-0.1-0.4-0.2c-1.8-1.2-2.3-3.1-4-4.3c0,0-0.1,0-0.1-0.1
		c0.6-0.4,1.1-1,1.6-1.6c1.1-1.5,1.5-3.3,1.2-5.1c-0.3-1.8-1.3-3.4-2.8-4.4c-1-0.7-2.1-0.9-3.3-1.2c-0.4-0.1-0.8-0.3-1.2-0.5
		c-1.4-0.9-1.1-3-1.4-4.3c-0.4-1.8-0.2-3.2,0.3-4.9c0.4-1.6,0.8-3.2,0.5-4.8c-0.4-1.8-1.9-3.8-3.4-4.7c-2-1.2-4.9-0.5-6.9-1.6
		c-0.5-0.3-0.9-0.6-1.4-0.9c-3.6-2.7-8.5-1.8-10.6,2.3c-0.5,0.9-0.5,2.1-1.2,2.9c-0.8,0.9-2,1.3-2.8,2.2c-1.8,1.8-2.3,4.3-1.6,6.7
		c0.5,1.7,1.2,3.1,2.6,4.2c1.4,1.2,2,3,2.7,4.7c0.6,1.4,1.8,2.9,3.3,3.5c1.9,0.8,3.3,0.3,5.1-0.3c0.9-0.3,2.2-0.4,3.1-0.3
		c0.8,0.1,1.5,0.4,2.3,0.5c0.8,0.2,1.7,0.1,2.4,0.7c0.5,0.6,0.7,1.4,0.9,2.1c0.4,1.9,1.2,3.7,2.9,4.9c0,0,0.1,0,0.1,0.1
		c-0.6,0.4-1.1,1-1.6,1.6c-0.6,0.9-1,1.9-1.2,2.9c-0.1,1-0.2,2.2,0.3,3.1c0.5,1,1.1,1.9,1.8,2.7c0.3,0.4,0.7,0.8,1.1,1.1
		c0.4,0.3,0.9,0.5,1.4,0.6c1.3,0.5,2.7,0.9,3.8,1.8c1.5,1.2,2.4,3.1,4,4.1c3.1,2.2,7.3,1.5,9.5-1.6
		C246.2,479.6,245.4,475.3,242.4,473.2z"/>
	<path fill="none" stroke="#3F9166" stroke-width="1.489" stroke-linejoin="round" stroke-miterlimit="10" d="M242.4,473.2
		c-1.5-1.1-3.5-1.5-5.2-2.3c-0.1-0.1-0.3-0.1-0.4-0.2c-1.8-1.2-2.3-3.1-4-4.3c0,0-0.1,0-0.1-0.1c0.6-0.4,1.1-1,1.6-1.6
		c1.1-1.5,1.5-3.3,1.2-5.1c-0.3-1.8-1.3-3.4-2.8-4.4c-1-0.7-2.1-0.9-3.3-1.2c-0.4-0.1-0.8-0.3-1.2-0.5c-1.4-0.9-1.1-3-1.4-4.3
		c-0.4-1.8-0.2-3.2,0.3-4.9c0.4-1.6,0.8-3.2,0.5-4.8c-0.4-1.8-1.9-3.8-3.4-4.7c-2-1.2-4.9-0.5-6.9-1.6c-0.5-0.3-0.9-0.6-1.4-0.9
		c-3.6-2.7-8.5-1.8-10.6,2.3c-0.5,0.9-0.5,2.1-1.2,2.9c-0.8,0.9-2,1.3-2.8,2.2c-1.8,1.8-2.3,4.3-1.6,6.7c0.5,1.7,1.2,3.1,2.6,4.2
		c1.4,1.2,2,3,2.7,4.7c0.6,1.4,1.8,2.9,3.3,3.5c1.9,0.8,3.3,0.3,5.1-0.3c0.9-0.3,2.2-0.4,3.1-0.3c0.8,0.1,1.5,0.4,2.3,0.5
		c0.8,0.2,1.7,0.1,2.4,0.7c0.5,0.6,0.7,1.4,0.9,2.1c0.4,1.9,1.2,3.7,2.9,4.9c0,0,0.1,0,0.1,0.1c-0.6,0.4-1.1,1-1.6,1.6
		c-0.6,0.9-1,1.9-1.2,2.9c-0.1,1-0.2,2.2,0.3,3.1c0.5,1,1.1,1.9,1.8,2.7c0.3,0.4,0.7,0.8,1.1,1.1c0.4,0.3,0.9,0.5,1.4,0.6
		c1.3,0.5,2.7,0.9,3.8,1.8c1.5,1.2,2.4,3.1,4,4.1c3.1,2.2,7.3,1.5,9.5-1.6C246.2,479.6,245.4,475.3,242.4,473.2z"/>
</g>
<g filter="url(#ds1)">
	<path fill="#6AE6A7" d="M121.3,474.4c-1.5-1.1-3.5-1.5-5.2-2.3c-0.1-0.1-0.3-0.1-0.4-0.2c-1.8-1.2-2.3-3.1-4-4.3
		c0,0-0.1-0.1-0.1-0.1c0.6-0.5,1.2-1,1.7-1.7c1.3-1.9,1.4-3.9,0.8-6.1c-0.5-1.6-1.7-3.4-0.8-5.1c0.8-1.5,1.3-3,1.3-4.6
		c0-1.8-0.6-3.6-1.9-4.9c-1.5-1.5-3.6-1.8-5.7-1.9c-1,0-2.2-0.3-2.9-1.1c-1-1.1-1.5-2.6-2.8-3.5c-1.2-0.8-2.5-1.3-4-1.3
		c-2.2,0-4.3,1.1-5.6,2.9c-1.8,2.5-1.6,6.1,0.4,8.4c1,1.2,2.3,2,3.9,2.2c1.1,0.2,2.3-0.2,3.4,0.1c1.3,0.4,1.8,1.7,2.4,2.9
		c1.5,2.9-1.2,5.1-0.9,8c0.2,2.1,1,4.2,2.8,5.5c0,0,0.1,0,0.1,0.1c-0.6,0.4-1.1,1-1.6,1.6c-1,1.4-1.5,3.3-1.1,5
		c0.2,0.9,0.6,1.7,1.1,2.5c0.5,0.9,1.2,1.7,2,2.3c1.4,1,3.1,1.2,4.5,2c0.3,0.2,0.5,0.3,0.8,0.5c1.5,1.2,2.4,3.1,4,4.1
		c3.1,2.2,7.3,1.5,9.5-1.6C125.1,480.8,124.4,476.6,121.3,474.4z"/>
	<path fill="none" stroke="#3F9166" stroke-width="1.489" stroke-linejoin="round" stroke-miterlimit="10" d="M121.3,474.4
		c-1.5-1.1-3.5-1.5-5.2-2.3c-0.1-0.1-0.3-0.1-0.4-0.2c-1.8-1.2-2.3-3.1-4-4.3c0,0-0.1-0.1-0.1-0.1c0.6-0.5,1.2-1,1.7-1.7
		c1.3-1.9,1.4-3.9,0.8-6.1c-0.5-1.6-1.7-3.4-0.8-5.1c0.8-1.5,1.3-3,1.3-4.6c0-1.8-0.6-3.6-1.9-4.9c-1.5-1.5-3.6-1.8-5.7-1.9
		c-1,0-2.2-0.3-2.9-1.1c-1-1.1-1.5-2.6-2.8-3.5c-1.2-0.8-2.5-1.3-4-1.3c-2.2,0-4.3,1.1-5.6,2.9c-1.8,2.5-1.6,6.1,0.4,8.4
		c1,1.2,2.3,2,3.9,2.2c1.1,0.2,2.3-0.2,3.4,0.1c1.3,0.4,1.8,1.7,2.4,2.9c1.5,2.9-1.2,5.1-0.9,8c0.2,2.1,1,4.2,2.8,5.5
		c0,0,0.1,0,0.1,0.1c-0.6,0.4-1.1,1-1.6,1.6c-1,1.4-1.5,3.3-1.1,5c0.2,0.9,0.6,1.7,1.1,2.5c0.5,0.9,1.2,1.7,2,2.3
		c1.4,1,3.1,1.2,4.5,2c0.3,0.2,0.5,0.3,0.8,0.5c1.5,1.2,2.4,3.1,4,4.1c3.1,2.2,7.3,1.5,9.5-1.6C125.1,480.8,124.4,476.6,121.3,474.4
		z"/>
</g>
<g filter="url(#ds1)">
	<path fill="#6AE6A7" d="M78.1,473.2c-1.5-1.1-3.5-1.5-5.2-2.3c-0.1-0.1-0.3-0.1-0.4-0.2c-1.8-1.2-2.3-3.1-4-4.3
		c-3.1-2.2-7.3-1.5-9.5,1.6c-0.7,1-1.1,2.1-1.2,3.3c-0.1,0.6,0,1.2,0.1,1.7c0.3,1.6,1.2,3.1,2.4,4.2c1.2,1.1,2.8,1.4,4.2,2
		c0.6,0.3,1.3,0.6,1.8,1c1.5,1.2,2.4,3.1,4,4.1c3.1,2.2,7.3,1.5,9.5-1.6C81.8,479.6,81.1,475.3,78.1,473.2z"/>
	<path fill="none" stroke="#3F9166" stroke-width="1.489" stroke-linejoin="round" stroke-miterlimit="10" d="M78.1,473.2
		c-1.5-1.1-3.5-1.5-5.2-2.3c-0.1-0.1-0.3-0.1-0.4-0.2c-1.8-1.2-2.3-3.1-4-4.3c-3.1-2.2-7.3-1.5-9.5,1.6c-0.7,1-1.1,2.1-1.2,3.3
		c-0.1,0.6,0,1.2,0.1,1.7c0.3,1.6,1.2,3.1,2.4,4.2c1.2,1.1,2.8,1.4,4.2,2c0.6,0.3,1.3,0.6,1.8,1c1.5,1.2,2.4,3.1,4,4.1
		c3.1,2.2,7.3,1.5,9.5-1.6C81.8,479.6,81.1,475.3,78.1,473.2z"/>
</g>
<g filter="url(#ds1)">
	<path fill="#6AE6A7" d="M220.4,474.2c-1.5-1.1-3.5-1.5-5.2-2.3c-0.1-0.1-0.3-0.1-0.4-0.2c-1.8-1.2-2.3-3.1-4-4.3
		c0,0-0.1-0.1-0.1-0.1c0.6-0.5,1.2-1,1.7-1.7c1.2-1.7,1.7-3.2,4-3c2.5,0.2,4.7-0.3,6.3-2.6c1.1-1.5,1.5-3.3,1.2-5.1
		c-0.3-1.8-1.3-3.4-2.8-4.4c-1.2-0.8-2.5-1.3-4-1.3c-2,0-4.1,0.9-5.3,2.5c-1.1,1.5-1.7,2.6-3.8,3.1c-1.8,0.4-3.5,0.6-4.9-0.8
		c-1-1.1-1.5-2.6-2.8-3.5c-1.2-0.8-2.5-1.3-4-1.3c-2.2,0-4.3,1.1-5.6,2.9c-2.2,3.1-1.5,7.3,1.6,9.5c1.3,0.9,2.5,0.9,4,1
		c1.3,0.1,2.8,0.7,3.8,1.6c0.9,0.9,1.4,2.2,2.5,3c0,0,0.1,0,0.1,0.1c-0.6,0.4-1.1,1-1.6,1.6c-0.6,0.9-1,1.9-1.2,2.9
		c-0.1,0.9-0.1,1.8,0.1,2.7c0.5,1.7,1.7,3.3,3.2,4.3c0.9,0.5,1.8,0.7,2.7,1.1c0.8,0.3,1.7,0.7,2.4,1.3c1.5,1.2,2.4,3.1,4,4.1
		c3.1,2.2,7.3,1.5,9.5-1.6C224.1,480.7,223.4,476.4,220.4,474.2z"/>
	<path fill="none" stroke="#3F9166" stroke-width="1.489" stroke-linejoin="round" stroke-miterlimit="10" d="M220.4,474.2
		c-1.5-1.1-3.5-1.5-5.2-2.3c-0.1-0.1-0.3-0.1-0.4-0.2c-1.8-1.2-2.3-3.1-4-4.3c0,0-0.1-0.1-0.1-0.1c0.6-0.5,1.2-1,1.7-1.7
		c1.2-1.7,1.7-3.2,4-3c2.5,0.2,4.7-0.3,6.3-2.6c1.1-1.5,1.5-3.3,1.2-5.1c-0.3-1.8-1.3-3.4-2.8-4.4c-1.2-0.8-2.5-1.3-4-1.3
		c-2,0-4.1,0.9-5.3,2.5c-1.1,1.5-1.7,2.6-3.8,3.1c-1.8,0.4-3.5,0.6-4.9-0.8c-1-1.1-1.5-2.6-2.8-3.5c-1.2-0.8-2.5-1.3-4-1.3
		c-2.2,0-4.3,1.1-5.6,2.9c-2.2,3.1-1.5,7.3,1.6,9.5c1.3,0.9,2.5,0.9,4,1c1.3,0.1,2.8,0.7,3.8,1.6c0.9,0.9,1.4,2.2,2.5,3
		c0,0,0.1,0,0.1,0.1c-0.6,0.4-1.1,1-1.6,1.6c-0.6,0.9-1,1.9-1.2,2.9c-0.1,0.9-0.1,1.8,0.1,2.7c0.5,1.7,1.7,3.3,3.2,4.3
		c0.9,0.5,1.8,0.7,2.7,1.1c0.8,0.3,1.7,0.7,2.4,1.3c1.5,1.2,2.4,3.1,4,4.1c3.1,2.2,7.3,1.5,9.5-1.6
		C224.1,480.7,223.4,476.4,220.4,474.2z"/>
</g>
<g filter="url(#ds1)">
	<path fill="#6AE6A7" d="M95.4,470.2c-1.5-1.1-3.5-1.5-5.2-2.3c-0.1-0.1-0.3-0.1-0.4-0.2c-1.8-1.2-2.3-3.1-4-4.3
		c0,0-0.1-0.1-0.1-0.1c0.6-0.5,1.2-1,1.7-1.7c1.2-1.7,1.7-3.2,4-3c2.5,0.2,4.7-0.3,6.3-2.6c1.1-1.5,1.5-3.3,1.2-5.1
		c-0.3-1.8-1.3-3.4-2.8-4.4c-1.2-0.8-2.5-1.3-4-1.3c-2,0-4.1,0.9-5.3,2.5c-0.7,0.9-1.3,2-2.4,2.5c-1.6,0.9-3.5,0.5-5.2,1.2
		c-1.6,0.7-3.1,1.9-3.8,3.6c-1.2,2.9-0.3,6.4,2.3,8.2c0,0,0.1,0,0.1,0.1c-0.6,0.4-1.1,1-1.6,1.6c-0.7,1-1.1,2.2-1.2,3.4
		c0,0.6,0,1.2,0.1,1.8c0.1,0.6,0.2,1.2,0.5,1.7c0.2,0.3,0.4,0.6,0.6,0.9c0.4,0.6,0.8,1.1,1.3,1.6c0.5,0.4,1.2,0.7,1.8,1
		c1.3,0.5,2.6,0.8,3.8,1.6c0.2,0.1,0.3,0.2,0.4,0.3c1.5,1.2,2.4,3.1,4,4.1c3.1,2.2,7.3,1.5,9.5-1.6
		C99.2,476.7,98.4,472.4,95.4,470.2z"/>
	<path fill="none" stroke="#3F9166" stroke-width="1.489" stroke-linejoin="round" stroke-miterlimit="10" d="M95.4,470.2
		c-1.5-1.1-3.5-1.5-5.2-2.3c-0.1-0.1-0.3-0.1-0.4-0.2c-1.8-1.2-2.3-3.1-4-4.3c0,0-0.1-0.1-0.1-0.1c0.6-0.5,1.2-1,1.7-1.7
		c1.2-1.7,1.7-3.2,4-3c2.5,0.2,4.7-0.3,6.3-2.6c1.1-1.5,1.5-3.3,1.2-5.1c-0.3-1.8-1.3-3.4-2.8-4.4c-1.2-0.8-2.5-1.3-4-1.3
		c-2,0-4.1,0.9-5.3,2.5c-0.7,0.9-1.3,2-2.4,2.5c-1.6,0.9-3.5,0.5-5.2,1.2c-1.6,0.7-3.1,1.9-3.8,3.6c-1.2,2.9-0.3,6.4,2.3,8.2
		c0,0,0.1,0,0.1,0.1c-0.6,0.4-1.1,1-1.6,1.6c-0.7,1-1.1,2.2-1.2,3.4c0,0.6,0,1.2,0.1,1.8c0.1,0.6,0.2,1.2,0.5,1.7
		c0.2,0.3,0.4,0.6,0.6,0.9c0.4,0.6,0.8,1.1,1.3,1.6c0.5,0.4,1.2,0.7,1.8,1c1.3,0.5,2.6,0.8,3.8,1.6c0.2,0.1,0.3,0.2,0.4,0.3
		c1.5,1.2,2.4,3.1,4,4.1c3.1,2.2,7.3,1.5,9.5-1.6C99.2,476.7,98.4,472.4,95.4,470.2z"/>
</g>
<g filter="url(#ds1)">
	<path fill="#6AE6A7" d="M92.6,453c-1.5-1.1-3.5-1.5-5.2-2.3c-0.1-0.1-0.3-0.1-0.4-0.2c-1.8-1.2-2.3-3.1-4-4.3c0,0-0.1-0.1-0.1-0.1
		c0.6-0.5,1.2-1,1.7-1.7c1.3-1.9,1.4-3.9,0.8-6.1c-0.5-1.6-1.7-3.4-0.8-5.1c0.6-1.2,1.5-2.9,2.8-3.5c1.3-0.7,3,0.1,4.5-0.4
		c0.4-0.1,0.8-0.3,1.2-0.6c0.8-0.5,1.5-1.2,2-1.9c1.1-1.5,1.5-3.3,1.2-5.1c-0.3-1.8-1.3-3.4-2.8-4.4c-1.2-0.8-2.5-1.3-4-1.3
		c-2,0-4.1,0.9-5.3,2.5c-1.1,1.5-1.7,2.6-3.8,3.1c-1.8,0.4-3.5,0.6-4.9-0.8c-1-1.1-1.5-2.6-2.8-3.5c-1.2-0.8-2.5-1.3-4-1.3
		c-2.2,0-4.3,1.1-5.6,2.9c-1.8,2.5-1.6,6.1,0.4,8.4c1,1.2,2.3,2,3.9,2.2c1.1,0.2,2.3-0.2,3.4,0.1c1.3,0.4,1.8,1.7,2.4,2.9
		c1.5,2.9-1.2,5.1-0.9,8c0.2,2.1,1,4.2,2.8,5.5c0,0,0.1,0,0.1,0.1c-0.6,0.4-1.1,1-1.6,1.6c-0.6,0.9-1,1.9-1.2,2.9
		c-0.1,1-0.1,2.2,0.3,3.1c0.5,1.2,1.3,2.3,2.2,3.2c0.7,0.7,1.8,1.1,2.7,1.4c1,0.3,2,0.7,2.8,1.3c0.1,0.1,0.3,0.2,0.4,0.3
		c1.5,1.2,2.4,3.1,4,4.1c3.1,2.2,7.3,1.5,9.5-1.6C96.4,459.4,95.7,455.1,92.6,453z"/>
	<path fill="none" stroke="#3F9166" stroke-width="1.489" stroke-linejoin="round" stroke-miterlimit="10" d="M92.6,453
		c-1.5-1.1-3.5-1.5-5.2-2.3c-0.1-0.1-0.3-0.1-0.4-0.2c-1.8-1.2-2.3-3.1-4-4.3c0,0-0.1-0.1-0.1-0.1c0.6-0.5,1.2-1,1.7-1.7
		c1.3-1.9,1.4-3.9,0.8-6.1c-0.5-1.6-1.7-3.4-0.8-5.1c0.6-1.2,1.5-2.9,2.8-3.5c1.3-0.7,3,0.1,4.5-0.4c0.4-0.1,0.8-0.3,1.2-0.6
		c0.8-0.5,1.5-1.2,2-1.9c1.1-1.5,1.5-3.3,1.2-5.1c-0.3-1.8-1.3-3.4-2.8-4.4c-1.2-0.8-2.5-1.3-4-1.3c-2,0-4.1,0.9-5.3,2.5
		c-1.1,1.5-1.7,2.6-3.8,3.1c-1.8,0.4-3.5,0.6-4.9-0.8c-1-1.1-1.5-2.6-2.8-3.5c-1.2-0.8-2.5-1.3-4-1.3c-2.2,0-4.3,1.1-5.6,2.9
		c-1.8,2.5-1.6,6.1,0.4,8.4c1,1.2,2.3,2,3.9,2.2c1.1,0.2,2.3-0.2,3.4,0.1c1.3,0.4,1.8,1.7,2.4,2.9c1.5,2.9-1.2,5.1-0.9,8
		c0.2,2.1,1,4.2,2.8,5.5c0,0,0.1,0,0.1,0.1c-0.6,0.4-1.1,1-1.6,1.6c-0.6,0.9-1,1.9-1.2,2.9c-0.1,1-0.1,2.2,0.3,3.1
		c0.5,1.2,1.3,2.3,2.2,3.2c0.7,0.7,1.8,1.1,2.7,1.4c1,0.3,2,0.7,2.8,1.3c0.1,0.1,0.3,0.2,0.4,0.3c1.5,1.2,2.4,3.1,4,4.1
		c3.1,2.2,7.3,1.5,9.5-1.6C96.4,459.4,95.7,455.1,92.6,453z"/>
</g>
<g filter="url(#ds1)">
	<path fill="#6AE6A7" d="M259.9,441.2c1.3-0.7,3,0.1,4.5-0.4c0.4-0.1,0.8-0.3,1.2-0.6c0.8-0.5,1.5-1.2,2-1.9
		c1.1-1.5,1.5-3.3,1.2-5.1c-0.3-1.7-1.6-2.8-1.7-4.5c0-0.1,0-0.1,0-0.2c0-1.6,1.4-3.2,1.7-4.9c0.3-1.8-0.1-3.6-1.2-5.1
		c-1.3-1.8-3.4-2.9-5.6-2.9c-1.4,0-2.8,0.4-4,1.3c-3.2,2.3-3.4,6.1-1.8,9.4c0.8,1.5,1.1,2.6,0,4.1c-0.8,1.1-2,2.3-3.4,2.5
		c-1.8,0.4-3.5,0.6-4.9-0.8c-1-1.1-1.5-2.6-2.8-3.5c-1.2-0.8-2.5-1.3-4-1.3c-2.2,0-4.3,1.1-5.6,2.9c-1.8,2.5-1.6,6.1,0.4,8.4
		c1,1.2,2.3,2,3.9,2.2c1.1,0.2,2.3-0.2,3.4,0.1c1.3,0.4,1.8,1.7,2.4,2.9c1.5,2.9-1.2,5.1-0.9,8c0.2,2.1,1,4.2,2.8,5.5
		c0,0,0.1,0,0.1,0.1c-0.6,0.4-1.1,1-1.6,1.6c-0.6,0.9-1,1.9-1.2,2.9c-0.1,0.4-0.1,0.7-0.1,1.1c0,0.3,0,0.7,0,1
		c0,0.7,0.3,1.4,0.7,1.9c0.5,0.8,1.2,1.4,1.8,2c0.4,0.3,0.8,0.7,1.2,1c0.5,0.3,0.9,0.5,1.5,0.7c1.2,0.4,2.4,0.8,3.3,1.6
		c1.5,1.2,2.4,3.1,4,4.1c1,0.7,2.4,1.3,3.6,1.3c1.2,0,2.5-0.4,3.6-0.8c0.5-0.2,1.1-0.4,1.4-0.8c0.3-0.4,0.6-0.8,0.9-1.2
		c2.2-3.1,1.5-7.3-1.6-9.5c-1.5-1.1-3.5-1.5-5.2-2.3c-0.1-0.1-0.3-0.1-0.4-0.2c-1.8-1.2-2.3-3.1-4-4.3c0,0-0.1-0.1-0.1-0.1
		c0.6-0.5,1.2-1,1.7-1.7c1.3-1.9,1.4-3.9,0.8-6.1c-0.5-1.6-1.7-3.4-0.8-5.1C257.7,443.5,258.6,441.8,259.9,441.2z"/>
	<path fill="none" stroke="#3F9166" stroke-width="1.489" stroke-linejoin="round" stroke-miterlimit="10" d="M259.9,441.2
		c1.3-0.7,3,0.1,4.5-0.4c0.4-0.1,0.8-0.3,1.2-0.6c0.8-0.5,1.5-1.2,2-1.9c1.1-1.5,1.5-3.3,1.2-5.1c-0.3-1.7-1.6-2.8-1.7-4.5
		c0-0.1,0-0.1,0-0.2c0-1.6,1.4-3.2,1.7-4.9c0.3-1.8-0.1-3.6-1.2-5.1c-1.3-1.8-3.4-2.9-5.6-2.9c-1.4,0-2.8,0.4-4,1.3
		c-3.2,2.3-3.4,6.1-1.8,9.4c0.8,1.5,1.1,2.6,0,4.1c-0.8,1.1-2,2.3-3.4,2.5c-1.8,0.4-3.5,0.6-4.9-0.8c-1-1.1-1.5-2.6-2.8-3.5
		c-1.2-0.8-2.5-1.3-4-1.3c-2.2,0-4.3,1.1-5.6,2.9c-1.8,2.5-1.6,6.1,0.4,8.4c1,1.2,2.3,2,3.9,2.2c1.1,0.2,2.3-0.2,3.4,0.1
		c1.3,0.4,1.8,1.7,2.4,2.9c1.5,2.9-1.2,5.1-0.9,8c0.2,2.1,1,4.2,2.8,5.5c0,0,0.1,0,0.1,0.1c-0.6,0.4-1.1,1-1.6,1.6
		c-0.6,0.9-1,1.9-1.2,2.9c-0.1,0.4-0.1,0.7-0.1,1.1c0,0.3,0,0.7,0,1c0,0.7,0.3,1.4,0.7,1.9c0.5,0.8,1.2,1.4,1.8,2
		c0.4,0.3,0.8,0.7,1.2,1c0.5,0.3,0.9,0.5,1.5,0.7c1.2,0.4,2.4,0.8,3.3,1.6c1.5,1.2,2.4,3.1,4,4.1c1,0.7,2.4,1.3,3.6,1.3
		c1.2,0,2.5-0.4,3.6-0.8c0.5-0.2,1.1-0.4,1.4-0.8c0.3-0.4,0.6-0.8,0.9-1.2c2.2-3.1,1.5-7.3-1.6-9.5c-1.5-1.1-3.5-1.5-5.2-2.3
		c-0.1-0.1-0.3-0.1-0.4-0.2c-1.8-1.2-2.3-3.1-4-4.3c0,0-0.1-0.1-0.1-0.1c0.6-0.5,1.2-1,1.7-1.7c1.3-1.9,1.4-3.9,0.8-6.1
		c-0.5-1.6-1.7-3.4-0.8-5.1C257.7,443.5,258.6,441.8,259.9,441.2z"/>
</g>
<g>
	<path fill="#6D6E70" d="M229.4,572.1l-89.6,22.4c-9.9,2.5-19.6-5-19.6-15.3v-56h116.2v39.9C236.4,567.4,233.5,571.1,229.4,572.1z"
		/>
	<g>
		<g>
			<path fill="#E8E8E8" d="M134.1,542.6h0.8l2.6-7.3h1.8l2.6,7.3h0.8v1.2h-3.2v-1.2h0.8l-0.5-1.6h-2.7l-0.5,1.6h0.8v1.2h-3.2V542.6z
				 M139.3,539.8l-0.8-2.4l-0.1-0.5c0-0.1,0-0.2,0-0.2h0l0,0.2c0,0.1-0.1,0.3-0.1,0.5l-0.8,2.4H139.3z"/>
			<path fill="#E8E8E8" d="M143.1,542.6h1l0.5-6.2h-1v-1.2h2.8l1.9,4.8c0.1,0.2,0.1,0.4,0.2,0.5l0,0.2h0l0-0.2
				c0-0.1,0.1-0.3,0.2-0.5l1.9-4.8h2.8v1.2h-1l0.5,6.2h1v1.2h-3.5v-1.2h0.9l-0.3-4.3c0-0.2,0-0.3,0-0.5l0-0.3h0c0,0.1,0,0.2-0.1,0.3
				c0,0.2-0.1,0.3-0.1,0.5l-1.6,3.9h-1.3l-1.6-3.9c0-0.1-0.1-0.3-0.1-0.5c0-0.1,0-0.2-0.1-0.3h0l0,0.3c0,0.2,0,0.3,0,0.5l-0.3,4.3h1
				v1.2h-3.5V542.6z"/>
			<path fill="#E8E8E8" d="M154.9,542.6h1v-6.2h-1v-1.2h3.6v1.2h-1v6.2h1v1.2h-3.6V542.6z"/>
			<path fill="#E8E8E8" d="M159.7,542.6h1v-6.2h-1v-1.2h2.6l3.6,5.5c0.1,0.1,0.2,0.3,0.2,0.5l0.1,0.3h0l0-0.3c0-0.2,0-0.4,0-0.5
				v-4.2h-1.1v-1.2h3.6v1.2h-1v7.3h-1.6l-3.6-5.5c-0.1-0.1-0.2-0.3-0.2-0.5l-0.1-0.3h0l0,0.3c0,0.2,0,0.4,0,0.5v4.2h1.1v1.2h-3.6
				V542.6z"/>
			<path fill="#E8E8E8" d="M174.2,535.1c2.5,0,4.4,1.9,4.4,4.3c0,2.5-1.9,4.5-4.4,4.5c-2.5,0-4.4-2-4.4-4.5
				C169.8,537,171.7,535.1,174.2,535.1z M174.2,542.5c1.5,0,2.8-1.3,2.8-3.1c0-1.7-1.3-3-2.8-3s-2.8,1.3-2.8,3
				C171.4,541.2,172.7,542.5,174.2,542.5z"/>
			<path fill="#E8E8E8" d="M182.3,542.6h0.8l2.6-7.3h1.8l2.6,7.3h0.8v1.2h-3.2v-1.2h0.8l-0.5-1.6h-2.7l-0.5,1.6h0.8v1.2h-3.2V542.6z
				 M187.5,539.8l-0.8-2.4l-0.1-0.5c0-0.1,0-0.2,0-0.2h0l0,0.2c0,0.1-0.1,0.3-0.1,0.5l-0.8,2.4H187.5z"/>
			<path fill="#E8E8E8" d="M195.6,535.1c1,0,3.3,0.4,3.3,1.7v1.2h-1.4v-0.7c0-0.6-1.1-0.9-1.8-0.9c-1.6,0-2.8,1.2-2.8,3
				c0,1.9,1.2,3.2,2.9,3.2c0.5,0,1.8-0.2,1.8-0.8v-0.7h1.4v1.2c0,1.3-2.2,1.7-3.4,1.7c-2.6,0-4.4-1.9-4.4-4.4
				C191.2,537,193.2,535.1,195.6,535.1z"/>
			<path fill="#E8E8E8" d="M200.3,542.6h1v-6.2h-1v-1.2h3.6v1.2h-1v6.2h1v1.2h-3.6V542.6z"/>
			<path fill="#E8E8E8" d="M205.1,542.6h1v-6.2h-1v-1.2h3.7c0.7,0,1.2,0,1.8,0.2c1.7,0.5,2.8,2,2.8,4.1c0,2-1,3.5-2.6,4
				c-0.6,0.2-1.2,0.3-1.9,0.3h-3.7V542.6z M208.7,542.5c0.5,0,1,0,1.4-0.2c1-0.4,1.6-1.4,1.6-2.8c0-1.5-0.6-2.4-1.6-2.8
				c-0.4-0.2-0.8-0.2-1.3-0.2h-1v6H208.7z"/>
			<path fill="#E8E8E8" d="M134.5,557h1v-6.2h-1v-1.2h4.1c0.5,0,1,0,1.4,0.2c0.9,0.4,1.5,1.3,1.5,2.5c0,1.2-0.6,2.2-1.6,2.6
				c-0.4,0.1-0.8,0.2-1.3,0.2h-1.5v1.8h1v1.2h-3.6V557z M138.4,553.9c0.3,0,0.6-0.1,0.9-0.2c0.5-0.2,0.7-0.7,0.7-1.3
				c0-0.6-0.2-1-0.6-1.3c-0.2-0.1-0.5-0.2-0.9-0.2h-1.3v3H138.4z"/>
			<path fill="#E8E8E8" d="M142.5,557h1v-6.2h-1v-1.2h3.8c0.6,0,1.1,0,1.6,0.2c1,0.3,1.6,1.1,1.6,2.3s-0.6,2-1.6,2.4v0l0.1,0.1
				c0.1,0.1,0.2,0.2,0.3,0.3l1,1.8c0.1,0.2,0.3,0.3,0.6,0.3h0.3v1.2h-1c-0.7,0-0.9-0.1-1.2-0.6l-1.2-2.2c-0.2-0.3-0.3-0.4-0.8-0.4
				h-0.8v2.1h1v1.2h-3.6V557z M146.5,553.7c0.8,0,1.4-0.5,1.4-1.4c0-0.6-0.2-1-0.7-1.2c-0.2-0.1-0.6-0.2-1-0.2h-1.2v2.7H146.5z"/>
			<path fill="#E8E8E8" d="M155.4,549.5c2.5,0,4.4,1.9,4.4,4.3c0,2.5-1.9,4.5-4.4,4.5c-2.5,0-4.4-2-4.4-4.5
				C151,551.4,152.9,549.5,155.4,549.5z M155.4,556.9c1.5,0,2.8-1.3,2.8-3.1c0-1.7-1.3-3-2.8-3s-2.8,1.3-2.8,3
				C152.6,555.6,153.9,556.9,155.4,556.9z"/>
			<path fill="#E8E8E8" d="M165.2,549.5c1,0,3.3,0.4,3.3,1.7v1.2h-1.4v-0.7c0-0.6-1.1-0.9-1.8-0.9c-1.6,0-2.8,1.2-2.8,3
				c0,1.9,1.2,3.2,2.9,3.2c0.5,0,1.8-0.2,1.8-0.8v-0.7h1.4v1.2c0,1.3-2.2,1.7-3.4,1.7c-2.6,0-4.5-1.9-4.5-4.4
				C160.8,551.4,162.7,549.5,165.2,549.5z"/>
			<path fill="#E8E8E8" d="M169.8,557h1v-6.2h-1v-1.2h6.3v2.2h-1.3v-0.9h-2.4v2.3h2.8v1.3h-2.8v2.4h2.6v-1h1.3v2.2h-6.5V557z"/>
			<path fill="#E8E8E8" d="M178.9,555.4v0.6c0,0.5,0.7,0.9,1.5,0.9c0.9,0,1.5-0.4,1.5-1.1c0-0.9-1-1.1-2-1.5
				c-1.1-0.4-2.3-0.9-2.3-2.5c0-1.7,1.4-2.4,2.9-2.4c1.3,0,2.7,0.5,2.7,1.5v1.1h-1.4v-0.6c0-0.4-0.6-0.7-1.3-0.7
				c-0.7,0-1.3,0.3-1.3,0.9c0,0.8,0.8,1,1.7,1.4c1.3,0.4,2.5,1,2.5,2.6c0,1.7-1.5,2.5-3.1,2.5c-1.4,0-2.9-0.6-2.9-1.9v-1H178.9z"/>
			<path fill="#E8E8E8" d="M186.1,555.4v0.6c0,0.5,0.7,0.9,1.5,0.9c0.9,0,1.5-0.4,1.5-1.1c0-0.9-1-1.1-2-1.5
				c-1.1-0.4-2.3-0.9-2.3-2.5c0-1.7,1.4-2.4,2.9-2.4c1.3,0,2.7,0.5,2.7,1.5v1.1H189v-0.6c0-0.4-0.6-0.7-1.3-0.7
				c-0.7,0-1.3,0.3-1.3,0.9c0,0.8,0.8,1,1.7,1.4c1.3,0.4,2.5,1,2.5,2.6c0,1.7-1.5,2.5-3.1,2.5c-1.4,0-2.9-0.6-2.9-1.9v-1H186.1z"/>
			<path fill="#E8E8E8" d="M191.8,557h1v-6.2h-1v-1.2h3.6v1.2h-1v6.2h1v1.2h-3.6V557z"/>
			<path fill="#E8E8E8" d="M196.6,557h1v-6.2h-1v-1.2h2.6l3.6,5.5c0.1,0.1,0.2,0.3,0.2,0.5l0.1,0.3h0l0-0.3c0-0.2,0-0.4,0-0.5v-4.2
				h-1.1v-1.2h3.6v1.2h-1v7.3h-1.6l-3.6-5.5c-0.1-0.1-0.2-0.3-0.2-0.5l-0.1-0.3h0l0,0.3c0,0.2,0,0.4,0,0.5v4.2h1.1v1.2h-3.6V557z"/>
			<path fill="#E8E8E8" d="M211.2,549.5c1.5,0,3.3,0.6,3.3,1.7v1.2h-1.4v-0.6c0-0.6-0.9-0.9-1.8-0.9c-1.8,0-2.9,1.2-2.9,3
				c0,1.8,1.1,3.2,3,3.2c0.7,0,2-0.2,2-0.9v-0.9h-1.5V554h3v2.6c0,1.3-2.3,1.8-3.5,1.8c-2.6,0-4.5-1.9-4.5-4.4
				C206.7,551.3,208.6,549.5,211.2,549.5z"/>
			<path fill="#E8E8E8" d="M134.5,571.4h1v-6.2h-1v-1.2h6.3v2.2h-1.3v-0.9h-2.4v2.3h2.8v1.3h-2.8v2.4h2.6v-1h1.3v2.2h-6.5V571.4z"/>
			<path fill="#E8E8E8" d="M142.2,571.4h1v-6.2h-1v-1.2h2.6l3.6,5.5c0.1,0.1,0.2,0.3,0.2,0.5l0.1,0.3h0l0-0.3c0-0.2,0-0.4,0-0.5
				v-4.2h-1.1v-1.2h3.6v1.2h-1v7.3h-1.6l-3.6-5.5c-0.1-0.1-0.2-0.3-0.2-0.5l-0.1-0.3h0l0,0.3c0,0.2,0,0.4,0,0.5v4.2h1.1v1.2h-3.6
				V571.4z"/>
			<path fill="#E8E8E8" d="M152.4,571.6l4.1-5.9c0.1-0.1,0.2-0.2,0.2-0.3l0.1-0.1v0c0,0-0.1,0-0.2,0c-0.1,0-0.2,0-0.3,0h-2.6v1.3
				h-1.3v-2.5h6.3v1l-4.1,5.9c-0.1,0.1-0.2,0.2-0.2,0.3l-0.1,0.1v0l0.2,0c0.1,0,0.2,0,0.3,0h2.7V570h1.3v2.6h-6.5V571.6z"/>
			<path fill="#E8E8E8" d="M161.6,571.4h1V569l-2.3-3.8h-0.8v-1.2h3.2v1.2h-0.8l1.3,2.2c0.1,0.1,0.1,0.2,0.1,0.3c0,0,0,0.1,0,0.1h0
				c0,0,0-0.1,0-0.1c0-0.1,0.1-0.2,0.1-0.3l1.3-2.2h-0.8v-1.2h3.1v1.2h-0.8l-2.3,3.8v2.4h1v1.2h-3.6V571.4z"/>
			<path fill="#E8E8E8" d="M167.8,571.4h1l0.5-6.2h-1v-1.2h2.8l1.9,4.8c0.1,0.2,0.1,0.4,0.2,0.5l0,0.2h0l0-0.2
				c0-0.1,0.1-0.3,0.2-0.5l1.9-4.8h2.8v1.2h-1l0.5,6.2h1v1.2H175v-1.2h0.9l-0.3-4.3c0-0.2,0-0.3,0-0.5l0-0.3h0c0,0.1,0,0.2-0.1,0.3
				c0,0.2-0.1,0.3-0.1,0.5l-1.6,3.9h-1.3l-1.6-3.9c0-0.1-0.1-0.3-0.1-0.5c0-0.1,0-0.2-0.1-0.3h0l0,0.3c0,0.2,0,0.3,0,0.5l-0.3,4.3h1
				v1.2h-3.5V571.4z"/>
			<path fill="#E8E8E8" d="M179.5,571.4h1v-6.2h-1v-1.2h6.3v2.2h-1.3v-0.9h-2.4v2.3h2.8v1.3h-2.8v2.4h2.6v-1h1.3v2.2h-6.5V571.4z"/>
			<path fill="#E8E8E8" d="M188.6,569.8v0.6c0,0.5,0.7,0.9,1.5,0.9c0.9,0,1.5-0.4,1.5-1.1c0-0.9-1-1.1-2-1.5
				c-1.1-0.4-2.3-0.9-2.3-2.5c0-1.7,1.4-2.4,2.9-2.4c1.3,0,2.7,0.5,2.7,1.5v1.1h-1.4V566c0-0.4-0.6-0.7-1.3-0.7
				c-0.7,0-1.3,0.3-1.3,0.9c0,0.8,0.8,1,1.7,1.4c1.3,0.4,2.5,1,2.5,2.6c0,1.7-1.5,2.5-3.1,2.5c-1.4,0-2.9-0.6-2.9-1.9v-1H188.6z"/>
		</g>
	</g>
</g>
<g opacity="0.45" filter="url(#ds1)">
	<path fill="#E96667" stroke="#B4474C" stroke-miterlimit="10" d="M412.6,113.1c0-1-0.4-2.1-1.2-2.7c-0.6-0.5-1.4-0.5-1.8-1.2
		c-0.4-0.8-0.3-1.3-0.8-2.4c-0.4-0.8-1.3-1.3-2.2-1.3c-1.5-0.1-1.8,0.7-2.7,0c-0.8-0.6,0.5-1.8,0.5-2.8c0-1.9-1.5-3.4-3.3-3.5
		c-1.9,0-3.4,1.5-3.5,3.3c0,0.8,0.3,1.3,0.6,2c0.3,0.7,0.1,1.1-0.2,1.7c-0.3,0.6-0.4,1.2-0.5,1.8c-0.2,1.1-0.9,1.5-1.7,2.1
		c-0.7,0.6-1.2,1.5-1.2,2.5c0,1,0.4,1.9,1.1,2.6c0.5,0.4,1.1,0.8,1.4,1.3c0.3,0.6,0.2,1.4,0.4,2c0.4,1.4,1.7,2.5,3.2,2.5
		c0.9,0,1.7-0.7,2.6-0.7c1.1-0.1,1.9,0.8,3,0.9c1.2,0,2.4-0.6,3-1.6c0.6-1.1,0.1-2.5,1.2-3.4C411.5,115.4,412.5,114.8,412.6,113.1z"
		/>
	<path fill="#E96667" stroke="#B4474C" stroke-miterlimit="10" d="M430.7,113.1c0-1-0.4-2.1-1.2-2.7c-0.6-0.5-1.4-0.5-1.8-1.2
		c-0.4-0.8-0.3-1.3-0.8-2.4c-0.4-0.8-1.3-1.3-2.2-1.3c-1.5-0.1-1.8,0.7-2.7,0c-0.8-0.6,0.5-1.8,0.5-2.8c0-1.9-1.5-3.4-3.3-3.5
		c-1.9,0-3.4,1.5-3.5,3.3c0,0.8,0.3,1.3,0.6,2c0.3,0.7,0.1,1.1-0.2,1.7c-0.3,0.6-0.4,1.2-0.5,1.8c-0.2,1.1-0.9,1.5-1.7,2.1
		c-0.7,0.6-1.2,1.5-1.2,2.5c0,1,0.4,1.9,1.1,2.6c0.5,0.4,1.1,0.8,1.4,1.3c0.3,0.6,0.2,1.4,0.4,2c0.4,1.4,1.7,2.5,3.2,2.5
		c0.9,0,1.7-0.7,2.6-0.7c1.1-0.1,1.9,0.8,3,0.9c1.2,0,2.4-0.6,3-1.6c0.6-1.1,0.1-2.5,1.2-3.4C429.6,115.4,430.6,114.8,430.7,113.1z"
		/>
	<path fill="#E96667" stroke="#B4474C" stroke-miterlimit="10" d="M448.8,113.2c0-1-0.4-2.1-1.2-2.7c-0.6-0.5-1.4-0.5-1.8-1.2
		c-0.4-0.8-0.3-1.3-0.8-2.4c-0.4-0.8-1.3-1.3-2.2-1.3c-1.5-0.1-1.8,0.7-2.7,0c-0.8-0.6,0.5-1.8,0.5-2.8c0-1.9-1.5-3.4-3.3-3.5
		c-1.9,0-3.4,1.5-3.5,3.3c0,0.8,0.3,1.3,0.6,2c0.3,0.7,0.1,1.1-0.2,1.7c-0.3,0.6-0.4,1.2-0.5,1.8c-0.2,1.1-0.9,1.5-1.7,2.1
		c-0.7,0.6-1.2,1.5-1.2,2.5c0,1,0.4,1.9,1.1,2.6c0.5,0.4,1.1,0.8,1.4,1.3c0.3,0.6,0.2,1.4,0.4,2c0.4,1.4,1.7,2.5,3.2,2.5
		c0.9,0,1.7-0.7,2.6-0.7c1.1-0.1,1.9,0.8,3,0.9c1.2,0,2.4-0.6,3-1.6c0.6-1.1,0.1-2.5,1.2-3.4C447.7,115.4,448.8,114.8,448.8,113.2z"
		/>
	<path fill="#E96667" stroke="#B4474C" stroke-miterlimit="10" d="M466.9,113.2c0-1-0.4-2.1-1.2-2.7c-0.6-0.5-1.4-0.5-1.8-1.2
		c-0.4-0.8-0.3-1.3-0.8-2.4c-0.4-0.8-1.3-1.3-2.2-1.3c-1.5-0.1-1.8,0.7-2.7,0c-0.8-0.6,0.5-1.8,0.5-2.8c0-1.9-1.5-3.4-3.3-3.5
		c-1.9,0-3.4,1.5-3.5,3.3c0,0.8,0.3,1.3,0.6,2c0.3,0.7,0.1,1.1-0.2,1.7c-0.3,0.6-0.4,1.2-0.5,1.8c-0.2,1.1-0.9,1.5-1.7,2.1
		c-0.7,0.6-1.2,1.5-1.2,2.5c0,1,0.4,1.9,1.1,2.6c0.5,0.4,1.1,0.8,1.4,1.3c0.3,0.6,0.2,1.4,0.4,2c0.4,1.4,1.7,2.5,3.2,2.5
		c0.9,0,1.7-0.7,2.6-0.7c1.1-0.1,1.9,0.8,3,0.9c1.2,0,2.4-0.6,3-1.6c0.6-1.1,0.1-2.5,1.2-3.4C465.9,115.4,466.9,114.8,466.9,113.2z"
		/>
	<path fill="#E96667" stroke="#B4474C" stroke-miterlimit="10" d="M485.1,113.2c0-1-0.4-2.1-1.2-2.7c-0.6-0.5-1.4-0.5-1.8-1.2
		c-0.4-0.8-0.3-1.3-0.8-2.4c-0.4-0.8-1.3-1.3-2.2-1.3c-1.5-0.1-1.8,0.7-2.7,0c-0.8-0.6,0.5-1.8,0.5-2.8c0-1.9-1.5-3.4-3.3-3.5
		c-1.9,0-3.4,1.5-3.5,3.3c0,0.8,0.3,1.3,0.6,2c0.3,0.7,0.1,1.1-0.2,1.7c-0.3,0.6-0.4,1.2-0.5,1.8c-0.2,1.1-0.9,1.5-1.7,2.1
		c-0.7,0.6-1.2,1.5-1.2,2.5c0,1,0.4,1.9,1.1,2.6c0.5,0.4,1.1,0.8,1.4,1.3c0.3,0.6,0.2,1.4,0.4,2c0.4,1.4,1.7,2.5,3.2,2.5
		c0.9,0,1.7-0.7,2.6-0.7c1.1-0.1,1.9,0.8,3,0.9c1.2,0,2.4-0.6,3-1.6c0.6-1.1,0.1-2.5,1.2-3.4C484,115.5,485,114.9,485.1,113.2z"/>
	<path fill="#E96667" stroke="#B4474C" stroke-miterlimit="10" d="M503.2,113.2c0-1-0.4-2.1-1.2-2.7c-0.6-0.5-1.4-0.5-1.8-1.2
		c-0.4-0.8-0.3-1.3-0.8-2.4c-0.4-0.8-1.3-1.3-2.2-1.3c-1.5-0.1-1.8,0.7-2.7,0c-0.8-0.6,0.5-1.8,0.5-2.8c0-1.9-1.5-3.4-3.3-3.5
		c-1.9,0-3.4,1.5-3.5,3.3c0,0.8,0.3,1.3,0.6,2c0.3,0.7,0.1,1.1-0.2,1.7c-0.3,0.6-0.4,1.2-0.5,1.8c-0.2,1.1-0.9,1.5-1.7,2.1
		c-0.7,0.6-1.2,1.5-1.2,2.5c0,1,0.4,1.9,1.1,2.6c0.5,0.4,1.1,0.8,1.4,1.3c0.3,0.6,0.2,1.4,0.4,2c0.4,1.4,1.7,2.5,3.2,2.5
		c0.9,0,1.7-0.7,2.6-0.7c1.1-0.1,1.9,0.8,3,0.9c1.2,0,2.4-0.6,3-1.6c0.6-1.1,0.1-2.5,1.2-3.4C502.1,115.5,503.2,114.9,503.2,113.2z"
		/>
	<path fill="#E96667" stroke="#B4474C" stroke-miterlimit="10" d="M425.3,78c0.6-0.8,0.8-1.9,0.6-2.9c-0.2-0.7-0.8-1.2-0.8-2
		c0.1-0.9,0.5-1.2,0.8-2.4c0.2-0.9-0.3-1.8-1.1-2.4c-1.2-1-1.9-0.5-2.2-1.5c-0.3-1,1.4-1.2,2-2c1.1-1.5,0.8-3.7-0.7-4.8
		c-1.5-1.1-3.7-0.8-4.8,0.7c-0.5,0.6-0.5,1.3-0.7,2c-0.2,0.7-0.5,0.9-1.2,1.3c-0.6,0.3-1,0.7-1.5,1.2c-0.8,0.8-1.6,0.7-2.7,0.7
		c-1,0.1-1.8,0.6-2.4,1.4c-0.6,0.8-0.8,1.8-0.6,2.7c0.1,0.6,0.4,1.2,0.4,1.9c-0.1,0.7-0.6,1.2-0.9,1.9c-0.5,1.4,0,3,1.2,3.9
		c0.7,0.6,1.8,0.5,2.6,0.9c0.9,0.6,1.1,1.8,2,2.4c1,0.7,2.3,0.9,3.4,0.4c1.1-0.5,1.6-2,2.9-2C423.2,79.2,424.3,79.4,425.3,78z"/>
	<path fill="#E96667" stroke="#B4474C" stroke-miterlimit="10" d="M440.1,88.5c0.6-0.8,0.8-1.9,0.6-2.9c-0.2-0.7-0.8-1.2-0.8-2
		c0.1-0.9,0.5-1.2,0.8-2.4c0.2-0.9-0.3-1.8-1.1-2.4c-1.2-1-1.9-0.5-2.2-1.5c-0.3-1,1.4-1.2,2-2c1.1-1.5,0.8-3.7-0.7-4.8
		c-1.5-1.1-3.7-0.8-4.8,0.7c-0.5,0.6-0.5,1.3-0.7,2c-0.2,0.7-0.5,0.9-1.2,1.3c-0.6,0.3-1,0.7-1.5,1.2c-0.8,0.8-1.6,0.7-2.7,0.7
		c-1,0.1-1.8,0.6-2.4,1.4c-0.6,0.8-0.8,1.8-0.6,2.7c0.1,0.6,0.4,1.2,0.4,1.9c-0.1,0.7-0.6,1.2-0.9,1.9c-0.5,1.4,0,3,1.2,3.9
		c0.7,0.6,1.8,0.5,2.6,0.9c0.9,0.6,1.1,1.8,2,2.4c1,0.7,2.3,0.9,3.4,0.4c1.1-0.5,1.6-2,2.9-2C437.9,89.7,439.1,89.9,440.1,88.5z"/>
	<path fill="#E96667" stroke="#B4474C" stroke-miterlimit="10" d="M454.9,99c0.6-0.8,0.8-1.9,0.6-2.9c-0.2-0.7-0.8-1.2-0.8-2
		c0.1-0.9,0.5-1.2,0.8-2.4c0.2-0.9-0.3-1.8-1.1-2.4c-1.2-1-1.9-0.5-2.2-1.5c-0.3-1,1.4-1.2,2-2c1.1-1.5,0.8-3.7-0.7-4.8
		c-1.5-1.1-3.7-0.8-4.8,0.7c-0.5,0.6-0.5,1.3-0.7,2c-0.2,0.7-0.5,0.9-1.2,1.3c-0.6,0.3-1,0.7-1.5,1.2c-0.8,0.8-1.6,0.7-2.7,0.7
		c-1,0.1-1.8,0.6-2.4,1.4c-0.6,0.8-0.8,1.8-0.6,2.7c0.1,0.6,0.4,1.2,0.4,1.9c-0.1,0.7-0.6,1.2-0.9,1.9c-0.5,1.4,0,3,1.2,3.9
		c0.7,0.6,1.8,0.5,2.6,0.9c0.9,0.6,1.1,1.8,2,2.4c1,0.7,2.3,0.9,3.4,0.4c1.1-0.5,1.6-2,2.9-2C452.7,100.3,453.9,100.4,454.9,99z"/>
</g>
<g>
	<g filter="url(#ds1)">
		<rect x="387.9" y="38.4" fill="#FFFFFF" width="112.5" height="27.7"/>
	</g>
	<g>
		<g>
			<path fill="#6D6E70" d="M404.8,47c2,0,4.3,0.8,4.3,2.2v1.4h-1.5v-0.8c0-0.9-1.5-1.4-2.8-1.4c-2.6,0-4.3,1.8-4.3,4.4
				c0,2.6,1.7,4.5,4.4,4.5c1,0,3-0.3,3-1.4v-1.5h-2.2v-1.2h3.7v3.2c0,1.7-2.9,2.4-4.6,2.4c-3.5,0-5.9-2.5-5.9-5.9
				C398.9,49.5,401.3,47,404.8,47z"/>
			<path fill="#6D6E70" d="M411.3,57.3h1.4v-8.7h-1.4v-1.3h4.4v1.3h-1.4v8.7h3.9v-1.8h1.4v3.1h-8.4V57.3z"/>
			<path fill="#6D6E70" d="M422.3,57.3h1.4v-3.5l-3.2-5.3h-1.1v-1.2h3.9v1.2h-1.2l2.1,3.6c0.1,0.2,0.2,0.5,0.2,0.5h0
				c0,0,0.1-0.2,0.2-0.5l2.1-3.6h-1.2v-1.2h3.9v1.2h-1.1l-3.2,5.3v3.5h1.4v1.2h-4.4V57.3z"/>
			<path fill="#6D6E70" d="M436,47c1.4,0,4.3,0.5,4.3,2.2v1.4h-1.5v-0.9c0-1-1.7-1.4-2.8-1.4c-2.4,0-4.2,1.8-4.2,4.3
				c0,2.7,1.8,4.6,4.3,4.6c0.8,0,2.8-0.3,2.8-1.3v-0.9h1.5v1.4c0,1.7-2.8,2.2-4.4,2.2c-3.4,0-5.8-2.6-5.8-5.9
				C430.2,49.5,432.7,47,436,47z"/>
			<path fill="#6D6E70" d="M447.9,47c3.3,0,5.8,2.5,5.8,5.8c0,3.3-2.5,5.9-5.8,5.9c-3.3,0-5.8-2.6-5.8-5.9
				C442.1,49.5,444.6,47,447.9,47z M447.9,57.3c2.3,0,4.1-2,4.1-4.5c0-2.5-1.9-4.4-4.1-4.4c-2.3,0-4.2,1.9-4.2,4.4
				C443.8,55.3,445.6,57.3,447.9,57.3z"/>
			<path fill="#6D6E70" d="M461.2,47c2,0,4.3,0.8,4.3,2.2v1.4h-1.5v-0.8c0-0.9-1.5-1.4-2.8-1.4c-2.6,0-4.3,1.8-4.3,4.4
				c0,2.6,1.7,4.5,4.4,4.5c1,0,3-0.3,3-1.4v-1.5h-2.2v-1.2h3.7v3.2c0,1.7-2.9,2.4-4.6,2.4c-3.5,0-5.9-2.5-5.9-5.9
				C455.3,49.5,457.7,47,461.2,47z"/>
			<path fill="#6D6E70" d="M467.6,57.3h1.4v-8.8h-1.4v-1.2h8.2v2.6h-1.4v-1.3h-3.8v3.6h4v1.3h-4v3.7h4v-1.4h1.4v2.7h-8.5V57.3z"/>
			<path fill="#6D6E70" d="M477.7,57.3h1.4v-8.8h-1.4v-1.2h3l5.6,8.1c0.2,0.3,0.4,0.8,0.4,0.8h0c0,0-0.1-0.6-0.1-0.9v-6.8h-1.4v-1.2
				h4.5v1.2h-1.4v10.1h-1.6l-5.6-8.1c-0.2-0.3-0.4-0.8-0.4-0.8h0c0,0,0.1,0.6,0.1,0.9v6.8h1.5v1.2h-4.5V57.3z"/>
		</g>
	</g>
</g>
<g>
	<g opacity="0.5">
		<path fill="none" stroke="#000000" stroke-width="2" stroke-linecap="round" stroke-miterlimit="10" d="M275.7,483.7
			c0,6.1-5,11.1-11.1,11.1H67.9c-6.1,0-11.1-5-11.1-11.1"/>
	</g>
	<g>
		<path fill="none" stroke="#FFFFFF" stroke-width="2" stroke-linecap="round" stroke-miterlimit="10" d="M274.7,482.7
			c0,6.1-5,11.1-11.1,11.1H66.9c-6.1,0-11.1-5-11.1-11.1"/>
	</g>
</g>
<g>
	<g opacity="0.5">
		<line fill="none" stroke="#000000" stroke-width="2" stroke-miterlimit="10" x1="173.2" y1="494.8" x2="173.2" y2="515.1"/>
		<polygon points="173.2,523.6 168.3,511.6 173.2,514.5 178.1,511.6 		"/>
	</g>
	<g>
		<g>
			<line fill="none" stroke="#FFFFFF" stroke-width="2" stroke-miterlimit="10" x1="172.2" y1="493.8" x2="172.2" y2="514.1"/>
			<g>
				<polygon fill="#FFFFFF" points="172.2,522.6 167.3,510.6 172.2,513.5 177.1,510.6 				"/>
			</g>
		</g>
	</g>
</g>
<g opacity="0.3" filter="url(#ds1)">
	<circle fill="#8CD0C6" cx="35.1" cy="330.5" r="3"/>
	
		<circle fill="none" stroke="#00B8B5" stroke-width="1.489" stroke-linejoin="round" stroke-miterlimit="10" cx="35.1" cy="330.5" r="3"/>
</g>
<g opacity="0.3" filter="url(#ds1)">
	<circle fill="#8CD0C6" cx="36.9" cy="353.7" r="3"/>
	
		<circle fill="none" stroke="#00B8B5" stroke-width="1.489" stroke-linejoin="round" stroke-miterlimit="10" cx="36.9" cy="353.7" r="3"/>
</g>
<g opacity="0.3" filter="url(#ds1)">
	<circle fill="#8CD0C6" cx="38.1" cy="339.1" r="3"/>
	
		<circle fill="none" stroke="#00B8B5" stroke-width="1.489" stroke-linejoin="round" stroke-miterlimit="10" cx="38.1" cy="339.1" r="3"/>
</g>
<g opacity="0.3" filter="url(#ds1)">
	<circle fill="#8CD0C6" cx="32.1" cy="345.1" r="3"/>
	
		<circle fill="none" stroke="#00B8B5" stroke-width="1.489" stroke-linejoin="round" stroke-miterlimit="10" cx="32.1" cy="345.1" r="3"/>
</g>
<g opacity="0.3" filter="url(#ds1)">
	<circle fill="#8CD0C6" cx="57.5" cy="328" r="3"/>
	
		<circle fill="none" stroke="#00B8B5" stroke-width="1.489" stroke-linejoin="round" stroke-miterlimit="10" cx="57.5" cy="328" r="3"/>
</g>
<g opacity="0.3" filter="url(#ds1)">
	<circle fill="#8CD0C6" cx="35.8" cy="365.6" r="3"/>
	
		<circle fill="none" stroke="#00B8B5" stroke-width="1.489" stroke-linejoin="round" stroke-miterlimit="10" cx="35.8" cy="365.6" r="3"/>
</g>
<g opacity="0.3" filter="url(#ds1)">
	<circle fill="#8CD0C6" cx="47.2" cy="331.4" r="3"/>
	
		<circle fill="none" stroke="#00B8B5" stroke-width="1.489" stroke-linejoin="round" stroke-miterlimit="10" cx="47.2" cy="331.4" r="3"/>
</g>
<g opacity="0.3" filter="url(#ds1)">
	<circle fill="#8CD0C6" cx="45.8" cy="348.4" r="3"/>
	
		<circle fill="none" stroke="#00B8B5" stroke-width="1.489" stroke-linejoin="round" stroke-miterlimit="10" cx="45.8" cy="348.4" r="3"/>
</g>
<g opacity="0.3" filter="url(#ds1)">
	<circle fill="#8CD0C6" cx="77.4" cy="354.7" r="3"/>
	
		<circle fill="none" stroke="#00B8B5" stroke-width="1.489" stroke-linejoin="round" stroke-miterlimit="10" cx="77.4" cy="354.7" r="3"/>
</g>
<g opacity="0.3" filter="url(#ds1)">
	<circle fill="#8CD0C6" cx="78" cy="365.7" r="3"/>
	
		<circle fill="none" stroke="#00B8B5" stroke-width="1.489" stroke-linejoin="round" stroke-miterlimit="10" cx="78" cy="365.7" r="3"/>
</g>
<g opacity="0.3" filter="url(#ds1)">
	<circle fill="#8CD0C6" cx="66.9" cy="361.9" r="3"/>
	
		<circle fill="none" stroke="#00B8B5" stroke-width="1.489" stroke-linejoin="round" stroke-miterlimit="10" cx="66.9" cy="361.9" r="3"/>
</g>
<g opacity="0.3" filter="url(#ds1)">
	<circle fill="#8CD0C6" cx="81" cy="375.1" r="3"/>
	
		<circle fill="none" stroke="#00B8B5" stroke-width="1.489" stroke-linejoin="round" stroke-miterlimit="10" cx="81" cy="375.1" r="3"/>
</g>
<g opacity="0.3" filter="url(#ds1)">
	<circle fill="#8CD0C6" cx="79.2" cy="346.1" r="3"/>
	
		<circle fill="none" stroke="#00B8B5" stroke-width="1.489" stroke-linejoin="round" stroke-miterlimit="10" cx="79.2" cy="346.1" r="3"/>
</g>
<g opacity="0.3" filter="url(#ds1)">
	<circle fill="#8CD0C6" cx="69.9" cy="372.8" r="3"/>
	
		<circle fill="none" stroke="#00B8B5" stroke-width="1.489" stroke-linejoin="round" stroke-miterlimit="10" cx="69.9" cy="372.8" r="3"/>
</g>
<g opacity="0.3" filter="url(#ds1)">
	<circle fill="#8CD0C6" cx="81" cy="337.8" r="3"/>
	
		<circle fill="none" stroke="#00B8B5" stroke-width="1.489" stroke-linejoin="round" stroke-miterlimit="10" cx="81" cy="337.8" r="3"/>
</g>
<g opacity="0.3" filter="url(#ds1)">
	<circle fill="#8CD0C6" cx="66.3" cy="349.8" r="3"/>
	
		<circle fill="none" stroke="#00B8B5" stroke-width="1.489" stroke-linejoin="round" stroke-miterlimit="10" cx="66.3" cy="349.8" r="3"/>
</g>
<g opacity="0.3" filter="url(#ds1)">
	<circle fill="#8CD0C6" cx="68.8" cy="339.9" r="3"/>
	
		<circle fill="none" stroke="#00B8B5" stroke-width="1.489" stroke-linejoin="round" stroke-miterlimit="10" cx="68.8" cy="339.9" r="3"/>
</g>
<g>
	<g filter="url(#ds1)">
		<rect x="551.2" y="212.9" fill="#FFFFFF" width="109.9" height="27.7"/>
	</g>
	<g>
		<g>
			<path fill="#6D6E70" d="M569.3,221.5c2,0,4.3,0.8,4.3,2.2v1.4h-1.5v-0.8c0-0.9-1.5-1.4-2.8-1.4c-2.6,0-4.3,1.8-4.3,4.4
				c0,2.6,1.7,4.5,4.4,4.5c1,0,3-0.3,3-1.4v-1.5h-2.2v-1.2h3.7v3.2c0,1.7-2.9,2.4-4.6,2.4c-3.5,0-5.9-2.5-5.9-5.9
				C563.4,224,565.8,221.5,569.3,221.5z"/>
			<path fill="#6D6E70" d="M575.7,231.8h1.4V223h-1.4v-1.3h4.4v1.3h-1.4v8.7h3.9v-1.8h1.4v3.1h-8.4V231.8z"/>
			<path fill="#6D6E70" d="M586.8,231.8h1.4v-3.5l-3.2-5.3H584v-1.2h3.9v1.2h-1.2l2.1,3.6c0.1,0.2,0.2,0.5,0.2,0.5h0
				c0,0,0.1-0.2,0.2-0.5l2.1-3.6h-1.2v-1.2h3.9v1.2H593l-3.2,5.3v3.5h1.4v1.2h-4.4V231.8z"/>
			<path fill="#6D6E70" d="M600.5,221.5c1.4,0,4.3,0.5,4.3,2.2v1.4h-1.5v-0.9c0-1-1.7-1.4-2.8-1.4c-2.4,0-4.2,1.8-4.2,4.3
				c0,2.7,1.8,4.6,4.3,4.6c0.8,0,2.8-0.3,2.8-1.3v-0.9h1.5v1.4c0,1.7-2.8,2.2-4.4,2.2c-3.4,0-5.8-2.6-5.8-5.9
				C594.7,224,597.2,221.5,600.5,221.5z"/>
			<path fill="#6D6E70" d="M606.7,231.8h1.4V223h-1.4v-1.2h8.2v2.6h-1.4V223h-3.8v3.6h4v1.3h-4v3.7h4v-1.4h1.4v2.7h-8.5V231.8z"/>
			<path fill="#6D6E70" d="M616.8,231.8h1.4V223h-1.4v-1.2h4.9c0.8,0,1.5,0,2.1,0.2c1.2,0.4,2,1.4,2,2.9c0,1.6-0.9,2.8-2.3,3.2v0
				c0,0,0.3,0.2,0.5,0.5l1.6,2.8c0.2,0.3,0.4,0.4,0.8,0.4h0.3v1.2h-1c-1,0-1.2-0.2-1.6-0.8l-1.7-3.1c-0.3-0.5-0.5-0.6-1.2-0.6h-1.3
				v3.3h1.4v1.2h-4.4V231.8z M622.1,227.2c1.2,0,2-0.8,2-2.1c0-0.9-0.4-1.5-1.1-1.8c-0.4-0.1-0.8-0.2-1.4-0.2h-1.9v4.1H622.1z"/>
			<path fill="#6D6E70" d="M633.6,221.5c3.3,0,5.8,2.5,5.8,5.8c0,3.3-2.5,5.9-5.8,5.9c-3.3,0-5.8-2.6-5.8-5.9
				C627.8,224,630.4,221.5,633.6,221.5z M633.6,231.8c2.3,0,4.1-2,4.1-4.5c0-2.5-1.9-4.4-4.1-4.4c-2.3,0-4.2,1.9-4.2,4.4
				C629.5,229.8,631.3,231.8,633.6,231.8z"/>
			<path fill="#6D6E70" d="M641,231.8h1.4V223H641v-1.3h4.4v1.3H644v8.7h3.9v-1.8h1.4v3.1H641V231.8z"/>
		</g>
	</g>
</g>
<g opacity="0.45" filter="url(#ds1)">
	<path fill="#F49F38" d="M586.1,257.7c0,0.1,0,0.1,0,0.2c-0.4,1.7-1.6,3.2-2,4.9c-0.4,1.8,0.2,3.8-0.2,5.5c-0.4,1.9-1.9,3.3-2.2,5.2
		c-0.3,1.8,0.4,3.6,0,5.4c-0.7,3.4-4,5.6-7.4,4.8c-3.4-0.7-5.6-4-4.8-7.4c0.3-1.3,1.1-2.1,1.7-3.3c0.6-1.1,1-2.7,0.8-4
		c-0.2-1.2-0.5-2.1-0.3-3.3c0.4-1.7,1.9-2.9,2.5-4.6c0.6-1.9-0.7-4-0.3-6c0.7-3.4,4-5.6,7.4-4.8C584.6,251,586.7,254.3,586.1,257.7z
		"/>
	<path fill="none" stroke="#C66320" stroke-width="1.4874" stroke-miterlimit="10" d="M586.1,257.7c0,0.1,0,0.1,0,0.2
		c-0.4,1.7-1.6,3.2-2,4.9c-0.4,1.8,0.2,3.8-0.2,5.5c-0.4,1.9-1.9,3.3-2.2,5.2c-0.3,1.8,0.4,3.6,0,5.4c-0.7,3.4-4,5.6-7.4,4.8
		c-3.4-0.7-5.6-4-4.8-7.4c0.3-1.3,1.1-2.1,1.7-3.3c0.6-1.1,1-2.7,0.8-4c-0.2-1.2-0.5-2.1-0.3-3.3c0.4-1.7,1.9-2.9,2.5-4.6
		c0.6-1.9-0.7-4-0.3-6c0.7-3.4,4-5.6,7.4-4.8C584.6,251,586.7,254.3,586.1,257.7z"/>
</g>
<g opacity="0.45" filter="url(#ds1)">
	<path fill="#F49F38" d="M608.3,280.2c0,0.1-0.1,0.1-0.1,0.2c-1.1,1.4-2.7,2.2-3.8,3.6c-1.1,1.5-1.4,3.5-2.4,5
		c-1.1,1.6-3.1,2.2-4.2,3.8c-1,1.5-1.1,3.5-2.2,4.9c-2,2.8-6,3.4-8.7,1.4s-3.4-6-1.4-8.7c0.8-1.1,1.9-1.5,2.9-2.3c1-0.8,2-2,2.4-3.3
		c0.3-1.2,0.4-2.1,1.1-3.2c1-1.4,3-1.9,4.2-3.2c1.4-1.5,1-3.9,2.2-5.6c2-2.8,6-3.4,8.7-1.4C609.7,273.5,610.3,277.5,608.3,280.2z"/>
	<path fill="none" stroke="#C66320" stroke-width="1.4874" stroke-miterlimit="10" d="M608.3,280.2c0,0.1-0.1,0.1-0.1,0.2
		c-1.1,1.4-2.7,2.2-3.8,3.6c-1.1,1.5-1.4,3.5-2.4,5c-1.1,1.6-3.1,2.2-4.2,3.8c-1,1.5-1.1,3.5-2.2,4.9c-2,2.8-6,3.4-8.7,1.4
		s-3.4-6-1.4-8.7c0.8-1.1,1.9-1.5,2.9-2.3c1-0.8,2-2,2.4-3.3c0.3-1.2,0.4-2.1,1.1-3.2c1-1.4,3-1.9,4.2-3.2c1.4-1.5,1-3.9,2.2-5.6
		c2-2.8,6-3.4,8.7-1.4C609.7,273.5,610.3,277.5,608.3,280.2z"/>
</g>
<g opacity="0.45" filter="url(#ds1)">
	<path fill="#F49F38" d="M630.3,257.8c0,0.1,0.1,0.1,0.1,0.2c0.9,1.5,1.1,3.4,2,4.8c1,1.6,2.8,2.5,3.8,4c1.1,1.6,1,3.7,2.1,5.2
		c1.1,1.5,2.9,2.3,3.8,3.8c1.9,2.9,1.1,6.8-1.8,8.7c-2.9,1.9-6.8,1.1-8.7-1.8c-0.7-1.1-0.7-2.3-1.1-3.5c-0.4-1.2-1.2-2.6-2.2-3.4
		c-1-0.7-1.9-1.1-2.6-2.2c-1-1.5-0.7-3.4-1.5-5c-0.9-1.8-3.3-2.3-4.4-4.1c-1.9-2.9-1.1-6.8,1.8-8.7
		C624.5,254.1,628.4,255,630.3,257.8z"/>
	<path fill="none" stroke="#C66320" stroke-width="1.4874" stroke-miterlimit="10" d="M630.3,257.8c0,0.1,0.1,0.1,0.1,0.2
		c0.9,1.5,1.1,3.4,2,4.8c1,1.6,2.8,2.5,3.8,4c1.1,1.6,1,3.7,2.1,5.2c1.1,1.5,2.9,2.3,3.8,3.8c1.9,2.9,1.1,6.8-1.8,8.7
		c-2.9,1.9-6.8,1.1-8.7-1.8c-0.7-1.1-0.7-2.3-1.1-3.5c-0.4-1.2-1.2-2.6-2.2-3.4c-1-0.7-1.9-1.1-2.6-2.2c-1-1.5-0.7-3.4-1.5-5
		c-0.9-1.8-3.3-2.3-4.4-4.1c-1.9-2.9-1.1-6.8,1.8-8.7C624.5,254.1,628.4,255,630.3,257.8z"/>
</g>
<g filter="url(#ds1)">
	<path fill="#6AE6A7" d="M163.9,452.2c1.1-0.3,2.3,0.1,3.4-0.1c1.5-0.2,2.9-1,3.9-2.2c1.4-1.7,2-4.1,1.4-6.3
		c-0.3-1.1-1.1-1.8-1.5-2.9c-0.2-0.4-0.2-0.8-0.2-1.2c0.1-1.7,1.6-3.2,1.9-4.8c0.3-1.8-0.1-3.6-1.2-5.1c-1.3-1.8-3.4-2.9-5.6-2.9
		c-1.4,0-2.8,0.4-4,1.3c-1.5,1.1-2.5,2.6-2.8,4.4c-0.4,2.5,0.9,3.9,1.7,6c0.7,1.8-0.5,3.6-1.7,4.8c-0.8,0.8-1.9,1-2.9,1.1
		c-2,0.1-4.2,0.4-5.7,1.9c-1.3,1.3-1.9,3.1-1.9,4.9c0,1.5,0.5,3,1.3,4.6c0.9,1.6-0.4,3.5-0.8,5.1c-0.6,2.2-0.5,4.3,0.8,6.1
		c0.5,0.7,1,1.2,1.7,1.7c-0.6,0.4-1.2,1-1.7,1.7c-1.7,2.4-1.7,5.6,0.2,7.8c1,1.1,1.9,2,3.2,2.6c1.3,0.6,2.8,0.9,3.9,1.9
		c1.5,1.2,2.4,3.1,4,4.1c3.1,2.2,7.3,1.5,9.5-1.6c2.2-3.1,1.5-7.3-1.6-9.5c-1.5-1.1-3.5-1.5-5.2-2.3c-0.1-0.1-0.3-0.1-0.4-0.2
		c-1.8-1.2-2.3-3.1-4-4.3c0,0,0.1,0,0.1-0.1c1.8-1.3,2.6-3.4,2.8-5.5c0.2-2.9-2.4-5.1-0.9-8C162.1,453.9,162.6,452.6,163.9,452.2z"
		/>
	<path fill="none" stroke="#3F9166" stroke-width="1.489" stroke-linejoin="round" stroke-miterlimit="10" d="M163.9,452.2
		c1.1-0.3,2.3,0.1,3.4-0.1c1.5-0.2,2.9-1,3.9-2.2c1.4-1.7,2-4.1,1.4-6.3c-0.3-1.1-1.1-1.8-1.5-2.9c-0.2-0.4-0.2-0.8-0.2-1.2
		c0.1-1.7,1.6-3.2,1.9-4.8c0.3-1.8-0.1-3.6-1.2-5.1c-1.3-1.8-3.4-2.9-5.6-2.9c-1.4,0-2.8,0.4-4,1.3c-1.5,1.1-2.5,2.6-2.8,4.4
		c-0.4,2.5,0.9,3.9,1.7,6c0.7,1.8-0.5,3.6-1.7,4.8c-0.8,0.8-1.9,1-2.9,1.1c-2,0.1-4.2,0.4-5.7,1.9c-1.3,1.3-1.9,3.1-1.9,4.9
		c0,1.5,0.5,3,1.3,4.6c0.9,1.6-0.4,3.5-0.8,5.1c-0.6,2.2-0.5,4.3,0.8,6.1c0.5,0.7,1,1.2,1.7,1.7c-0.6,0.4-1.2,1-1.7,1.7
		c-1.7,2.4-1.7,5.6,0.2,7.8c1,1.1,1.9,2,3.2,2.6c1.3,0.6,2.8,0.9,3.9,1.9c1.5,1.2,2.4,3.1,4,4.1c3.1,2.2,7.3,1.5,9.5-1.6
		c2.2-3.1,1.5-7.3-1.6-9.5c-1.5-1.1-3.5-1.5-5.2-2.3c-0.1-0.1-0.3-0.1-0.4-0.2c-1.8-1.2-2.3-3.1-4-4.3c0,0,0.1,0,0.1-0.1
		c1.8-1.3,2.6-3.4,2.8-5.5c0.2-2.9-2.4-5.1-0.9-8C162.1,453.9,162.6,452.6,163.9,452.2z"/>
</g>
<g>
	<g opacity="0.5">
		<path fill="none" stroke="#000000" stroke-width="2" stroke-miterlimit="10" d="M426.1,600.7c-90.5,0-83.9-53.7-180.3-54.5"/>
		<polygon points="237.4,546.2 249.3,541.3 246.5,546.1 249.4,551 		"/>
	</g>
	<g>
		<g>
			<path fill="none" stroke="#FFFFFF" stroke-width="2" stroke-miterlimit="10" d="M425.1,599.7c-90.5,0-83.9-53.7-180.3-54.5"/>
			<g>
				<polygon fill="#FFFFFF" points="236.4,545.2 248.3,540.3 245.5,545.1 248.4,550 				"/>
			</g>
		</g>
	</g>
</g>
<g>
	<g opacity="0.5">
		<path fill="none" stroke="#000000" stroke-width="2" stroke-linecap="round" stroke-miterlimit="10" d="M437.2,654.4
			c-6.1,0-11.1-5-11.1-11.1V555c0-6.1,5-11.1,11.1-11.1"/>
	</g>
	<g>
		<path fill="none" stroke="#FFFFFF" stroke-width="2" stroke-linecap="round" stroke-miterlimit="10" d="M436.2,653.4
			c-6.1,0-11.1-5-11.1-11.1V554c0-6.1,5-11.1,11.1-11.1"/>
	</g>
</g>
<g opacity="0.25" filter="url(#ds1)">
	<circle fill="#6AE6A7" cx="35.1" cy="534.5" r="6.8"/>
	
		<circle fill="none" stroke="#3F9166" stroke-width="1.489" stroke-linejoin="round" stroke-miterlimit="10" cx="35.1" cy="534.5" r="6.8"/>
</g>
<g opacity="0.25" filter="url(#ds1)">
	<circle fill="#6AE6A7" cx="59.9" cy="527.6" r="6.8"/>
	
		<circle fill="none" stroke="#3F9166" stroke-width="1.489" stroke-linejoin="round" stroke-miterlimit="10" cx="59.9" cy="527.6" r="6.8"/>
</g>
<g opacity="0.25" filter="url(#ds1)">
	<circle fill="#6AE6A7" cx="42.7" cy="516.3" r="6.8"/>
	
		<circle fill="none" stroke="#3F9166" stroke-width="1.489" stroke-linejoin="round" stroke-miterlimit="10" cx="42.7" cy="516.3" r="6.8"/>
</g>
<g opacity="0.25" filter="url(#ds1)">
	<circle fill="#6AE6A7" cx="38" cy="569.9" r="6.8"/>
	
		<circle fill="none" stroke="#3F9166" stroke-width="1.489" stroke-linejoin="round" stroke-miterlimit="10" cx="38" cy="569.9" r="6.8"/>
</g>
<g opacity="0.25" filter="url(#ds1)">
	<circle fill="#6AE6A7" cx="82.6" cy="525.4" r="6.8"/>
	
		<circle fill="none" stroke="#3F9166" stroke-width="1.489" stroke-linejoin="round" stroke-miterlimit="10" cx="82.6" cy="525.4" r="6.8"/>
</g>
<g opacity="0.25" filter="url(#ds1)">
	<circle fill="#6AE6A7" cx="72.4" cy="547.7" r="6.8"/>
	
		<circle fill="none" stroke="#3F9166" stroke-width="1.489" stroke-linejoin="round" stroke-miterlimit="10" cx="72.4" cy="547.7" r="6.8"/>
</g>
<g opacity="0.25" filter="url(#ds1)">
	<circle fill="#6AE6A7" cx="62" cy="588.5" r="6.8"/>
	
		<circle fill="none" stroke="#3F9166" stroke-width="1.489" stroke-linejoin="round" stroke-miterlimit="10" cx="62" cy="588.5" r="6.8"/>
</g>
<g opacity="0.25" filter="url(#ds1)">
	<circle fill="#6AE6A7" cx="82.6" cy="598.1" r="6.8"/>
	
		<circle fill="none" stroke="#3F9166" stroke-width="1.489" stroke-linejoin="round" stroke-miterlimit="10" cx="82.6" cy="598.1" r="6.8"/>
</g>
<g opacity="0.25" filter="url(#ds1)">
	<circle fill="#6AE6A7" cx="42.7" cy="609.1" r="6.8"/>
	
		<circle fill="none" stroke="#3F9166" stroke-width="1.489" stroke-linejoin="round" stroke-miterlimit="10" cx="42.7" cy="609.1" r="6.8"/>
</g>
<g opacity="0.25" filter="url(#ds1)">
	<circle fill="#6AE6A7" cx="65.5" cy="616.3" r="6.8"/>
	
		<circle fill="none" stroke="#3F9166" stroke-width="1.489" stroke-linejoin="round" stroke-miterlimit="10" cx="65.5" cy="616.3" r="6.8"/>
</g>
<g opacity="0.25" filter="url(#ds1)">
	<circle fill="#6AE6A7" cx="81.8" cy="572.6" r="6.8"/>
	
		<circle fill="none" stroke="#3F9166" stroke-width="1.489" stroke-linejoin="round" stroke-miterlimit="10" cx="81.8" cy="572.6" r="6.8"/>
</g>
<g opacity="0.25" filter="url(#ds1)">
	<circle fill="#6AE6A7" cx="51.7" cy="556.3" r="6.8"/>
	
		<circle fill="none" stroke="#3F9166" stroke-width="1.489" stroke-linejoin="round" stroke-miterlimit="10" cx="51.7" cy="556.3" r="6.8"/>
</g>
<g filter="url(#ds1)">
	<path fill="#D0D2D3" d="M507.4,603.1l37.9-1.4c3.1-0.1,5.6,2.4,5.6,5.4v7.7c0,3.3-2.8,5.8-6.1,5.4l-40.2-4.6
		c-0.7-0.1-1.3-0.7-1.3-1.4v-7.1C503.5,605,505.2,603.2,507.4,603.1z"/>
	<path fill="none" stroke="#929497" stroke-width="1.5" stroke-linejoin="round" stroke-miterlimit="10" d="M507.4,603.1l37.9-1.4
		c3.1-0.1,5.6,2.4,5.6,5.4v7.7c0,3.3-2.8,5.8-6.1,5.4l-40.2-4.6c-0.7-0.1-1.3-0.7-1.3-1.4v-7.1C503.5,605,505.2,603.2,507.4,603.1z"
		/>
</g>
<g filter="url(#ds1)">
	<path fill="#D0D2D3" d="M499.3,616.4l37.9-1.4c3.1-0.1,5.6,2.4,5.6,5.4v7.7c0,3.3-2.8,5.8-6.1,5.4l-40.2-4.6
		c-0.7-0.1-1.3-0.7-1.3-1.4v-7.1C495.4,618.3,497.1,616.5,499.3,616.4z"/>
	<path fill="none" stroke="#929497" stroke-width="1.5" stroke-linejoin="round" stroke-miterlimit="10" d="M499.3,616.4l37.9-1.4
		c3.1-0.1,5.6,2.4,5.6,5.4v7.7c0,3.3-2.8,5.8-6.1,5.4l-40.2-4.6c-0.7-0.1-1.3-0.7-1.3-1.4v-7.1C495.4,618.3,497.1,616.5,499.3,616.4
		z"/>
</g>
<g filter="url(#ds1)">
	<path fill="#D0D2D3" d="M503,568.4l37.9-1.4c3.1-0.1,5.6,2.4,5.6,5.4v7.7c0,3.3-2.8,5.8-6.1,5.4l-40.2-4.6
		c-0.7-0.1-1.3-0.7-1.3-1.4v-7.1C499.1,570.3,500.8,568.5,503,568.4z"/>
	<path fill="none" stroke="#929497" stroke-width="1.5" stroke-linejoin="round" stroke-miterlimit="10" d="M503,568.4l37.9-1.4
		c3.1-0.1,5.6,2.4,5.6,5.4v7.7c0,3.3-2.8,5.8-6.1,5.4l-40.2-4.6c-0.7-0.1-1.3-0.7-1.3-1.4v-7.1C499.1,570.3,500.8,568.5,503,568.4z"
		/>
</g>
<g filter="url(#ds1)">
	<path fill="#D0D2D3" d="M494.5,558.4l37.9-1.4c3.1-0.1,5.6,2.4,5.6,5.4v7.7c0,3.3-2.8,5.8-6.1,5.4l-40.2-4.6
		c-0.7-0.1-1.3-0.7-1.3-1.4v-7.1C490.6,560.2,492.3,558.4,494.5,558.4z"/>
	<path fill="none" stroke="#929497" stroke-width="1.5" stroke-linejoin="round" stroke-miterlimit="10" d="M494.5,558.4l37.9-1.4
		c3.1-0.1,5.6,2.4,5.6,5.4v7.7c0,3.3-2.8,5.8-6.1,5.4l-40.2-4.6c-0.7-0.1-1.3-0.7-1.3-1.4v-7.1C490.6,560.2,492.3,558.4,494.5,558.4
		z"/>
</g>
<g filter="url(#ds1)">
	<path fill="#D0D2D3" d="M442.8,621.7l37.9-1.4c3.1-0.1,5.6,2.4,5.6,5.4v7.7c0,3.3-2.8,5.8-6.1,5.4l-40.2-4.6
		c-0.7-0.1-1.3-0.7-1.3-1.4v-7.1C438.9,623.6,440.6,621.8,442.8,621.7z"/>
	<path fill="none" stroke="#929497" stroke-width="1.5" stroke-linejoin="round" stroke-miterlimit="10" d="M442.8,621.7l37.9-1.4
		c3.1-0.1,5.6,2.4,5.6,5.4v7.7c0,3.3-2.8,5.8-6.1,5.4l-40.2-4.6c-0.7-0.1-1.3-0.7-1.3-1.4v-7.1C438.9,623.6,440.6,621.8,442.8,621.7
		z"/>
</g>
<g filter="url(#ds1)">
	<path fill="#D0D2D3" d="M451.8,612.4l37.9-1.4c3.1-0.1,5.6,2.4,5.6,5.4v7.7c0,3.3-2.8,5.8-6.1,5.4l-40.2-4.6
		c-0.7-0.1-1.3-0.7-1.3-1.4v-7.1C447.9,614.3,449.6,612.5,451.8,612.4z"/>
	<path fill="none" stroke="#929497" stroke-width="1.5" stroke-linejoin="round" stroke-miterlimit="10" d="M451.8,612.4l37.9-1.4
		c3.1-0.1,5.6,2.4,5.6,5.4v7.7c0,3.3-2.8,5.8-6.1,5.4l-40.2-4.6c-0.7-0.1-1.3-0.7-1.3-1.4v-7.1C447.9,614.3,449.6,612.5,451.8,612.4
		z"/>
</g>
<g filter="url(#ds1)">
	<path fill="#D0D2D3" d="M437,601.1l37.9-1.4c3.1-0.1,5.6,2.4,5.6,5.4v7.7c0,3.3-2.8,5.8-6.1,5.4l-40.2-4.6
		c-0.7-0.1-1.3-0.7-1.3-1.4v-7.1C433.1,603,434.8,601.2,437,601.1z"/>
	<path fill="none" stroke="#929497" stroke-width="1.5" stroke-linejoin="round" stroke-miterlimit="10" d="M437,601.1l37.9-1.4
		c3.1-0.1,5.6,2.4,5.6,5.4v7.7c0,3.3-2.8,5.8-6.1,5.4l-40.2-4.6c-0.7-0.1-1.3-0.7-1.3-1.4v-7.1C433.1,603,434.8,601.2,437,601.1z"/>
</g>
<g filter="url(#ds1)">
	<path fill="#D0D2D3" d="M456.9,594.7l37.9-1.4c3.1-0.1,5.6,2.4,5.6,5.4v7.7c0,3.3-2.8,5.8-6.1,5.4l-40.2-4.6
		c-0.7-0.1-1.3-0.7-1.3-1.4v-7.1C452.9,596.6,454.7,594.8,456.9,594.7z"/>
	<path fill="none" stroke="#929497" stroke-width="1.5" stroke-linejoin="round" stroke-miterlimit="10" d="M456.9,594.7l37.9-1.4
		c3.1-0.1,5.6,2.4,5.6,5.4v7.7c0,3.3-2.8,5.8-6.1,5.4l-40.2-4.6c-0.7-0.1-1.3-0.7-1.3-1.4v-7.1C452.9,596.6,454.7,594.8,456.9,594.7
		z"/>
</g>
<g filter="url(#ds1)">
	<path fill="#D0D2D3" d="M442.2,581.2l37.9-1.4c3.1-0.1,5.6,2.4,5.6,5.4v7.7c0,3.3-2.8,5.8-6.1,5.4l-40.2-4.6
		c-0.7-0.1-1.3-0.7-1.3-1.4v-7.1C438.2,583.1,440,581.3,442.2,581.2z"/>
	<path fill="none" stroke="#929497" stroke-width="1.5" stroke-linejoin="round" stroke-miterlimit="10" d="M442.2,581.2l37.9-1.4
		c3.1-0.1,5.6,2.4,5.6,5.4v7.7c0,3.3-2.8,5.8-6.1,5.4l-40.2-4.6c-0.7-0.1-1.3-0.7-1.3-1.4v-7.1C438.2,583.1,440,581.3,442.2,581.2z"
		/>
</g>
<g filter="url(#ds1)">
	<path fill="#D0D2D3" d="M470.8,627.7l37.9-1.4c3.1-0.1,5.6,2.4,5.6,5.4v7.7c0,3.3-2.8,5.8-6.1,5.4l-40.2-4.6
		c-0.7-0.1-1.3-0.7-1.3-1.4v-7.1C466.8,629.6,468.6,627.8,470.8,627.7z"/>
	<path fill="none" stroke="#929497" stroke-width="1.5" stroke-linejoin="round" stroke-miterlimit="10" d="M470.8,627.7l37.9-1.4
		c3.1-0.1,5.6,2.4,5.6,5.4v7.7c0,3.3-2.8,5.8-6.1,5.4l-40.2-4.6c-0.7-0.1-1.3-0.7-1.3-1.4v-7.1C466.8,629.6,468.6,627.8,470.8,627.7
		z"/>
</g>
<g filter="url(#ds1)">
	<path fill="#D0D2D3" d="M486.7,621.7l37.9-1.4c3.1-0.1,5.6,2.4,5.6,5.4v7.7c0,3.3-2.8,5.8-6.1,5.4l-40.2-4.6
		c-0.7-0.1-1.3-0.7-1.3-1.4v-7.1C482.8,623.6,484.5,621.8,486.7,621.7z"/>
	<path fill="none" stroke="#929497" stroke-width="1.5" stroke-linejoin="round" stroke-miterlimit="10" d="M486.7,621.7l37.9-1.4
		c3.1-0.1,5.6,2.4,5.6,5.4v7.7c0,3.3-2.8,5.8-6.1,5.4l-40.2-4.6c-0.7-0.1-1.3-0.7-1.3-1.4v-7.1C482.8,623.6,484.5,621.8,486.7,621.7
		z"/>
</g>
<g filter="url(#ds1)">
	<path fill="#D0D2D3" d="M464,609.1l37.9-1.4c3.1-0.1,5.6,2.4,5.6,5.4v7.7c0,3.3-2.8,5.8-6.1,5.4l-40.2-4.6
		c-0.7-0.1-1.3-0.7-1.3-1.4v-7.1C460,611,461.8,609.2,464,609.1z"/>
	<path fill="none" stroke="#929497" stroke-width="1.5" stroke-linejoin="round" stroke-miterlimit="10" d="M464,609.1l37.9-1.4
		c3.1-0.1,5.6,2.4,5.6,5.4v7.7c0,3.3-2.8,5.8-6.1,5.4l-40.2-4.6c-0.7-0.1-1.3-0.7-1.3-1.4v-7.1C460,611,461.8,609.2,464,609.1z"/>
</g>
<g filter="url(#ds1)">
	<path fill="#D0D2D3" d="M451.8,618.4l37.9-1.4c3.1-0.1,5.6,2.4,5.6,5.4v7.7c0,3.3-2.8,5.8-6.1,5.4l-40.2-4.6
		c-0.7-0.1-1.3-0.7-1.3-1.4v-7.1C447.9,620.3,449.6,618.5,451.8,618.4z"/>
	<path fill="none" stroke="#929497" stroke-width="1.5" stroke-linejoin="round" stroke-miterlimit="10" d="M451.8,618.4l37.9-1.4
		c3.1-0.1,5.6,2.4,5.6,5.4v7.7c0,3.3-2.8,5.8-6.1,5.4l-40.2-4.6c-0.7-0.1-1.3-0.7-1.3-1.4v-7.1C447.9,620.3,449.6,618.5,451.8,618.4
		z"/>
</g>
<g filter="url(#ds1)">
	<path fill="#D0D2D3" d="M482.6,604l37.9-1.4c3.1-0.1,5.6,2.4,5.6,5.4v7.7c0,3.3-2.8,5.8-6.1,5.4l-40.2-4.6
		c-0.7-0.1-1.3-0.7-1.3-1.4v-7.1C478.6,605.9,480.4,604.1,482.6,604z"/>
	<path fill="none" stroke="#929497" stroke-width="1.5" stroke-linejoin="round" stroke-miterlimit="10" d="M482.6,604l37.9-1.4
		c3.1-0.1,5.6,2.4,5.6,5.4v7.7c0,3.3-2.8,5.8-6.1,5.4l-40.2-4.6c-0.7-0.1-1.3-0.7-1.3-1.4v-7.1C478.6,605.9,480.4,604.1,482.6,604z"
		/>
</g>
<g filter="url(#ds1)">
	<path fill="#D0D2D3" d="M494.8,595.8l37.9-1.4c3.1-0.1,5.6,2.4,5.6,5.4v7.7c0,3.3-2.8,5.8-6.1,5.4l-40.2-4.6
		c-0.7-0.1-1.3-0.7-1.3-1.4v-7.1C490.9,597.7,492.6,595.9,494.8,595.8z"/>
	<path fill="none" stroke="#929497" stroke-width="1.5" stroke-linejoin="round" stroke-miterlimit="10" d="M494.8,595.8l37.9-1.4
		c3.1-0.1,5.6,2.4,5.6,5.4v7.7c0,3.3-2.8,5.8-6.1,5.4l-40.2-4.6c-0.7-0.1-1.3-0.7-1.3-1.4v-7.1C490.9,597.7,492.6,595.9,494.8,595.8
		z"/>
</g>
<g filter="url(#ds1)">
	<path fill="#D0D2D3" d="M480.6,579.1l37.9-1.4c3.1-0.1,5.6,2.4,5.6,5.4v7.7c0,3.3-2.8,5.8-6.1,5.4l-40.2-4.6
		c-0.7-0.1-1.3-0.7-1.3-1.4v-7.1C476.7,581,478.4,579.2,480.6,579.1z"/>
	<path fill="none" stroke="#929497" stroke-width="1.5" stroke-linejoin="round" stroke-miterlimit="10" d="M480.6,579.1l37.9-1.4
		c3.1-0.1,5.6,2.4,5.6,5.4v7.7c0,3.3-2.8,5.8-6.1,5.4l-40.2-4.6c-0.7-0.1-1.3-0.7-1.3-1.4v-7.1C476.7,581,478.4,579.2,480.6,579.1z"
		/>
</g>
<g filter="url(#ds1)">
	<path fill="#D0D2D3" d="M494.5,582.5l37.9-1.4c3.1-0.1,5.6,2.4,5.6,5.4v7.7c0,3.3-2.8,5.8-6.1,5.4l-40.2-4.6
		c-0.7-0.1-1.3-0.7-1.3-1.4v-7.1C490.6,584.4,492.3,582.6,494.5,582.5z"/>
	<path fill="none" stroke="#929497" stroke-width="1.5" stroke-linejoin="round" stroke-miterlimit="10" d="M494.5,582.5l37.9-1.4
		c3.1-0.1,5.6,2.4,5.6,5.4v7.7c0,3.3-2.8,5.8-6.1,5.4l-40.2-4.6c-0.7-0.1-1.3-0.7-1.3-1.4v-7.1C490.6,584.4,492.3,582.6,494.5,582.5
		z"/>
</g>
<g filter="url(#ds1)">
	<path fill="#D0D2D3" d="M456.1,569.9l37.9-1.4c3.1-0.1,5.6,2.4,5.6,5.4v7.7c0,3.3-2.8,5.8-6.1,5.4l-40.2-4.6
		c-0.7-0.1-1.3-0.7-1.3-1.4v-7.1C452.2,571.7,453.9,569.9,456.1,569.9z"/>
	<path fill="none" stroke="#929497" stroke-width="1.5" stroke-linejoin="round" stroke-miterlimit="10" d="M456.1,569.9l37.9-1.4
		c3.1-0.1,5.6,2.4,5.6,5.4v7.7c0,3.3-2.8,5.8-6.1,5.4l-40.2-4.6c-0.7-0.1-1.3-0.7-1.3-1.4v-7.1C452.2,571.7,453.9,569.9,456.1,569.9
		z"/>
</g>
<g filter="url(#ds1)">
	<path fill="#D0D2D3" d="M479.8,561.6l37.9-1.4c3.1-0.1,5.6,2.4,5.6,5.4v7.7c0,3.3-2.8,5.8-6.1,5.4l-40.2-4.6
		c-0.7-0.1-1.3-0.7-1.3-1.4v-7.1C475.9,563.5,477.6,561.7,479.8,561.6z"/>
	<path fill="none" stroke="#929497" stroke-width="1.5" stroke-linejoin="round" stroke-miterlimit="10" d="M479.8,561.6l37.9-1.4
		c3.1-0.1,5.6,2.4,5.6,5.4v7.7c0,3.3-2.8,5.8-6.1,5.4l-40.2-4.6c-0.7-0.1-1.3-0.7-1.3-1.4v-7.1C475.9,563.5,477.6,561.7,479.8,561.6
		z"/>
</g>
<g filter="url(#ds1)">
	<path fill="#D0D2D3" d="M503,589.3l37.9-1.4c3.1-0.1,5.6,2.4,5.6,5.4v7.7c0,3.3-2.8,5.8-6.1,5.4l-40.2-4.6
		c-0.7-0.1-1.3-0.7-1.3-1.4v-7.1C499.1,591.2,500.8,589.4,503,589.3z"/>
	<path fill="none" stroke="#929497" stroke-width="1.5" stroke-linejoin="round" stroke-miterlimit="10" d="M503,589.3l37.9-1.4
		c3.1-0.1,5.6,2.4,5.6,5.4v7.7c0,3.3-2.8,5.8-6.1,5.4l-40.2-4.6c-0.7-0.1-1.3-0.7-1.3-1.4v-7.1C499.1,591.2,500.8,589.4,503,589.3z"
		/>
</g>
<g filter="url(#ds1)">
	<path fill="#D0D2D3" d="M511.7,580l37.9-1.4c3.1-0.1,5.6,2.4,5.6,5.4v7.7c0,3.3-2.8,5.8-6.1,5.4l-40.2-4.6
		c-0.7-0.1-1.3-0.7-1.3-1.4v-7.1C507.7,581.9,509.5,580.1,511.7,580z"/>
	<path fill="none" stroke="#929497" stroke-width="1.5" stroke-linejoin="round" stroke-miterlimit="10" d="M511.7,580l37.9-1.4
		c3.1-0.1,5.6,2.4,5.6,5.4v7.7c0,3.3-2.8,5.8-6.1,5.4l-40.2-4.6c-0.7-0.1-1.3-0.7-1.3-1.4v-7.1C507.7,581.9,509.5,580.1,511.7,580z"
		/>
</g>
<g filter="url(#ds1)">
	<path fill="#D0D2D3" d="M465.9,593.8l37.9-1.4c3.1-0.1,5.6,2.4,5.6,5.4v7.7c0,3.3-2.8,5.8-6.1,5.4l-40.2-4.6
		c-0.7-0.1-1.3-0.7-1.3-1.4v-7.1C462,595.7,463.7,593.9,465.9,593.8z"/>
	<path fill="none" stroke="#929497" stroke-width="1.5" stroke-linejoin="round" stroke-miterlimit="10" d="M465.9,593.8l37.9-1.4
		c3.1-0.1,5.6,2.4,5.6,5.4v7.7c0,3.3-2.8,5.8-6.1,5.4l-40.2-4.6c-0.7-0.1-1.3-0.7-1.3-1.4v-7.1C462,595.7,463.7,593.9,465.9,593.8z"
		/>
</g>
<g filter="url(#ds1)">
	<path fill="#D0D2D3" d="M506.3,622.6l37.9-1.4c3.1-0.1,5.6,2.4,5.6,5.4v7.7c0,3.3-2.8,5.8-6.1,5.4l-40.2-4.6
		c-0.7-0.1-1.3-0.7-1.3-1.4v-7.1C502.4,624.5,504.1,622.6,506.3,622.6z"/>
	<path fill="none" stroke="#929497" stroke-width="1.5" stroke-linejoin="round" stroke-miterlimit="10" d="M506.3,622.6l37.9-1.4
		c3.1-0.1,5.6,2.4,5.6,5.4v7.7c0,3.3-2.8,5.8-6.1,5.4l-40.2-4.6c-0.7-0.1-1.3-0.7-1.3-1.4v-7.1C502.4,624.5,504.1,622.6,506.3,622.6
		z"/>
</g>
<g filter="url(#ds1)">
	<path fill="#D0D2D3" d="M451.8,555.9l37.9-1.4c3.1-0.1,5.6,2.4,5.6,5.4v7.7c0,3.3-2.8,5.8-6.1,5.4l-40.2-4.6
		c-0.7-0.1-1.3-0.7-1.3-1.4V560C447.9,557.8,449.6,555.9,451.8,555.9z"/>
	<path fill="none" stroke="#929497" stroke-width="1.5" stroke-linejoin="round" stroke-miterlimit="10" d="M451.8,555.9l37.9-1.4
		c3.1-0.1,5.6,2.4,5.6,5.4v7.7c0,3.3-2.8,5.8-6.1,5.4l-40.2-4.6c-0.7-0.1-1.3-0.7-1.3-1.4V560C447.9,557.8,449.6,555.9,451.8,555.9z
		"/>
</g>
</svg>
