<?xml version="1.0" encoding="utf-8"?>
<!-- Generator: Adobe Illustrator 18.1.1, SVG Export Plug-In . SVG Version: 6.00 Build 0)  -->
<!DOCTYPE svg PUBLIC "-//W3C//DTD SVG 1.1//EN" "http://www.w3.org/Graphics/SVG/1.1/DTD/svg11.dtd">
<svg version="1.1" id="Layer_1" xmlns="http://www.w3.org/2000/svg" xmlns:xlink="http://www.w3.org/1999/xlink" x="0px" y="0px"
	 viewBox="0 0 920 690" enable-background="new 0 0 920 690" xml:space="preserve">
<filter  height="170%" width="170%" id="ds1" y="-20%" x="-30%">
	<feOffset  in="SourceAlpha" result="offOut" dy="1" dx="0"></feOffset>
	<feGaussianBlur  in="offOut" stdDeviation="2" result="blurOut"></feGaussianBlur>
	<feComponentTransfer>
		<feFuncA  type="linear" slope="0.5"></feFuncA>
	</feComponentTransfer>
	<feMerge>
		<feMergeNode></feMergeNode>
		<feMergeNode  in="SourceGraphic"></feMergeNode>
	</feMerge>
</filter>
<g>
	<g opacity="0.5">
		<path fill="none" stroke="#000000" stroke-width="2" stroke-linecap="round" stroke-miterlimit="10" d="M287.1,485.2
			c0,6.1-5,11.1-11.1,11.1H61.2c-6.1,0-11.1-5-11.1-11.1"/>
	</g>
	<g>
		<path fill="none" stroke="#FFFFFF" stroke-width="2" stroke-linecap="round" stroke-miterlimit="10" d="M286.1,484.2
			c0,6.1-5,11.1-11.1,11.1H60.2c-6.1,0-11.1-5-11.1-11.1"/>
	</g>
</g>
<g opacity="0.25" filter="url(#ds1)">
	<path fill="#6AE6A7" d="M245.5,236.1c-1.5-1.1-3.5-1.5-5.2-2.3c-0.1-0.1-0.3-0.1-0.4-0.2c-1.8-1.2-2.3-3.1-4-4.3c0,0-0.1,0-0.1-0.1
		c0.6-0.4,1.1-1,1.6-1.6c1.1-1.5,1.5-3.3,1.2-5.1c-0.3-1.8-1.3-3.4-2.8-4.4c-1-0.7-2.1-0.9-3.3-1.2c-0.4-0.1-0.8-0.3-1.2-0.5
		c-1.4-0.9-1.1-3-1.4-4.3c-0.4-1.8-0.2-3.2,0.3-4.9c0.4-1.6,0.8-3.2,0.5-4.8c-0.4-1.8-1.9-3.8-3.4-4.7c-2-1.2-4.9-0.5-6.9-1.6
		c-0.5-0.3-0.9-0.6-1.4-0.9c-3.6-2.7-8.5-1.8-10.6,2.3c-0.5,0.9-0.5,2.1-1.2,2.9c-0.8,0.9-2,1.3-2.8,2.2c-1.8,1.8-2.3,4.3-1.6,6.7
		c0.5,1.7,1.2,3.1,2.6,4.2c1.4,1.2,2,3,2.7,4.7c0.6,1.4,1.8,2.9,3.3,3.5c1.9,0.8,3.3,0.3,5.1-0.3c0.9-0.3,2.2-0.4,3.1-0.3
		c0.8,0.1,1.5,0.4,2.3,0.5c0.8,0.2,1.7,0.1,2.4,0.7c0.5,0.6,0.7,1.4,0.9,2.1c0.4,1.9,1.2,3.7,2.9,4.9c0,0,0.1,0,0.1,0.1
		c-0.6,0.4-1.1,1-1.6,1.6c-1.3,1.8-1.6,4.1-0.9,6c-1.3-0.5-2.9,0-3.7,1.2c-1.1,1.5-0.7,3.6,0.8,4.6c1.5,1.1,3.6,0.7,4.6-0.8
		c0.4-0.5,0.6-1.2,0.6-1.8c0.1,0.1,0.2,0.2,0.3,0.2c1.8,1.3,4,1.3,5.7,2.7c1.5,1.2,2.4,3.1,4,4.1c3.1,2.2,7.3,1.5,9.5-1.6
		C249.3,242.6,248.6,238.3,245.5,236.1z"/>
	<path fill="none" stroke="#3F9166" stroke-width="1.489" stroke-linejoin="round" stroke-miterlimit="10" d="M245.5,236.1
		c-1.5-1.1-3.5-1.5-5.2-2.3c-0.1-0.1-0.3-0.1-0.4-0.2c-1.8-1.2-2.3-3.1-4-4.3c0,0-0.1,0-0.1-0.1c0.6-0.4,1.1-1,1.6-1.6
		c1.1-1.5,1.5-3.3,1.2-5.1c-0.3-1.8-1.3-3.4-2.8-4.4c-1-0.7-2.1-0.9-3.3-1.2c-0.4-0.1-0.8-0.3-1.2-0.5c-1.4-0.9-1.1-3-1.4-4.3
		c-0.4-1.8-0.2-3.2,0.3-4.9c0.4-1.6,0.8-3.2,0.5-4.8c-0.4-1.8-1.9-3.8-3.4-4.7c-2-1.2-4.9-0.5-6.9-1.6c-0.5-0.3-0.9-0.6-1.4-0.9
		c-3.6-2.7-8.5-1.8-10.6,2.3c-0.5,0.9-0.5,2.1-1.2,2.9c-0.8,0.9-2,1.3-2.8,2.2c-1.8,1.8-2.3,4.3-1.6,6.7c0.5,1.7,1.2,3.1,2.6,4.2
		c1.4,1.2,2,3,2.7,4.7c0.6,1.4,1.8,2.9,3.3,3.5c1.9,0.8,3.3,0.3,5.1-0.3c0.9-0.3,2.2-0.4,3.1-0.3c0.8,0.1,1.5,0.4,2.3,0.5
		c0.8,0.2,1.7,0.1,2.4,0.7c0.5,0.6,0.7,1.4,0.9,2.1c0.4,1.9,1.2,3.7,2.9,4.9c0,0,0.1,0,0.1,0.1c-0.6,0.4-1.1,1-1.6,1.6
		c-1.3,1.8-1.6,4.1-0.9,6c-1.3-0.5-2.9,0-3.7,1.2c-1.1,1.5-0.7,3.6,0.8,4.6c1.5,1.1,3.6,0.7,4.6-0.8c0.4-0.5,0.6-1.2,0.6-1.8
		c0.1,0.1,0.2,0.2,0.3,0.2c1.8,1.3,4,1.3,5.7,2.7c1.5,1.2,2.4,3.1,4,4.1c3.1,2.2,7.3,1.5,9.5-1.6
		C249.3,242.6,248.6,238.3,245.5,236.1z"/>
</g>
<g opacity="0.25" filter="url(#ds1)">
	<path fill="#6AE6A7" d="M307.8,217.6c-1.5-1.1-3.5-1.5-5.2-2.3c-0.1-0.1-0.3-0.1-0.4-0.2c-1.8-1.2-2.3-3.1-4-4.3
		c0,0-0.1-0.1-0.1-0.1c0.6-0.5,1.2-1,1.7-1.7c1.3-1.9,1.4-3.9,0.8-6.1c-0.5-1.6-1.7-3.4-0.8-5.1c0.8-1.5,1.3-3,1.3-4.6
		c0-1.8-0.6-3.6-1.9-4.9c-1.5-1.5-3.6-1.8-5.7-1.9c-1,0-2.2-0.3-2.9-1.1c-1-1.1-1.5-2.6-2.8-3.5c-1.2-0.8-2.5-1.3-4-1.3
		c-2.2,0-4.3,1.1-5.6,2.9c-1.8,2.5-1.6,6.1,0.4,8.4c1,1.2,2.3,2,3.9,2.2c1.1,0.2,2.3-0.2,3.4,0.1c1.3,0.4,1.8,1.7,2.4,2.9
		c1.5,2.9-1.2,5.1-0.9,8c0.2,2.1,1,4.2,2.8,5.5c0,0,0.1,0,0.1,0.1c-0.6,0.4-1.1,1-1.6,1.6c-1.3,1.8-1.6,4.1-0.9,6
		c-1.3-0.5-2.9,0-3.7,1.2c-1.1,1.5-0.7,3.6,0.8,4.6c1.5,1.1,3.6,0.7,4.6-0.8c0.4-0.5,0.6-1.2,0.6-1.8c0.1,0.1,0.2,0.2,0.3,0.2
		c1.8,1.3,4,1.3,5.7,2.7c1.5,1.2,2.4,3.1,4,4.1c3.1,2.2,7.3,1.5,9.5-1.6C311.6,224.1,310.9,219.8,307.8,217.6z"/>
	<path fill="none" stroke="#3F9166" stroke-width="1.489" stroke-linejoin="round" stroke-miterlimit="10" d="M307.8,217.6
		c-1.5-1.1-3.5-1.5-5.2-2.3c-0.1-0.1-0.3-0.1-0.4-0.2c-1.8-1.2-2.3-3.1-4-4.3c0,0-0.1-0.1-0.1-0.1c0.6-0.5,1.2-1,1.7-1.7
		c1.3-1.9,1.4-3.9,0.8-6.1c-0.5-1.6-1.7-3.4-0.8-5.1c0.8-1.5,1.3-3,1.3-4.6c0-1.8-0.6-3.6-1.9-4.9c-1.5-1.5-3.6-1.8-5.7-1.9
		c-1,0-2.2-0.3-2.9-1.1c-1-1.1-1.5-2.6-2.8-3.5c-1.2-0.8-2.5-1.3-4-1.3c-2.2,0-4.3,1.1-5.6,2.9c-1.8,2.5-1.6,6.1,0.4,8.4
		c1,1.2,2.3,2,3.9,2.2c1.1,0.2,2.3-0.2,3.4,0.1c1.3,0.4,1.8,1.7,2.4,2.9c1.5,2.9-1.2,5.1-0.9,8c0.2,2.1,1,4.2,2.8,5.5
		c0,0,0.1,0,0.1,0.1c-0.6,0.4-1.1,1-1.6,1.6c-1.3,1.8-1.6,4.1-0.9,6c-1.3-0.5-2.9,0-3.7,1.2c-1.1,1.5-0.7,3.6,0.8,4.6
		c1.5,1.1,3.6,0.7,4.6-0.8c0.4-0.5,0.6-1.2,0.6-1.8c0.1,0.1,0.2,0.2,0.3,0.2c1.8,1.3,4,1.3,5.7,2.7c1.5,1.2,2.4,3.1,4,4.1
		c3.1,2.2,7.3,1.5,9.5-1.6C311.6,224.1,310.9,219.8,307.8,217.6z"/>
</g>
<g opacity="0.25" filter="url(#ds1)">
	<path fill="#6AE6A7" d="M241,140.4c-1.5-1.1-3.5-1.5-5.2-2.3c-0.1-0.1-0.3-0.1-0.4-0.2c-1.8-1.2-2.3-3.1-4-4.3c0,0-0.1,0-0.1-0.1
		c0.6-0.4,1.1-1,1.6-1.6c1.1-1.5,1.5-3.3,1.2-5.1c-0.3-1.8-1.3-3.4-2.8-4.4c-1.2-0.8-2.5-1.3-4-1.3c-1.2,0-2.4,0.3-3.4,0.9
		c1-2.1,0.4-4.8-1.6-6.2c-2.2-1.6-5.4-1.1-7,1.2c-1,1.4-1.2,3.2-0.6,4.8c0,0.1,0.1,0.2,0.1,0.3c0.4,0.7,0.9,1.4,1.6,1.9
		c1.5,1.1,3.4,1.2,5,0.5c-0.8,1.4-1.1,3-0.8,4.6c0.3,1.8,1.3,3.4,2.8,4.4c0,0,0.1,0,0.1,0.1c-0.6,0.4-1.1,1-1.6,1.6
		c-1.3,1.8-1.6,4.1-0.9,6c-1.3-0.5-2.9,0-3.7,1.2c-1.1,1.5-0.7,3.6,0.8,4.6c1.5,1.1,3.6,0.7,4.6-0.8c0.4-0.5,0.6-1.2,0.6-1.8
		c0.1,0.1,0.2,0.2,0.3,0.2c1.8,1.3,4,1.3,5.7,2.7c1.5,1.2,2.4,3.1,4,4.1c3.1,2.2,7.3,1.5,9.5-1.6C244.8,146.9,244.1,142.6,241,140.4
		z"/>
	<path fill="none" stroke="#3F9166" stroke-width="1.489" stroke-linejoin="round" stroke-miterlimit="10" d="M241,140.4
		c-1.5-1.1-3.5-1.5-5.2-2.3c-0.1-0.1-0.3-0.1-0.4-0.2c-1.8-1.2-2.3-3.1-4-4.3c0,0-0.1,0-0.1-0.1c0.6-0.4,1.1-1,1.6-1.6
		c1.1-1.5,1.5-3.3,1.2-5.1c-0.3-1.8-1.3-3.4-2.8-4.4c-1.2-0.8-2.5-1.3-4-1.3c-1.2,0-2.4,0.3-3.4,0.9c1-2.1,0.4-4.8-1.6-6.2
		c-2.2-1.6-5.4-1.1-7,1.2c-1,1.4-1.2,3.2-0.6,4.8c0,0.1,0.1,0.2,0.1,0.3c0.4,0.7,0.9,1.4,1.6,1.9c1.5,1.1,3.4,1.2,5,0.5
		c-0.8,1.4-1.1,3-0.8,4.6c0.3,1.8,1.3,3.4,2.8,4.4c0,0,0.1,0,0.1,0.1c-0.6,0.4-1.1,1-1.6,1.6c-1.3,1.8-1.6,4.1-0.9,6
		c-1.3-0.5-2.9,0-3.7,1.2c-1.1,1.5-0.7,3.6,0.8,4.6c1.5,1.1,3.6,0.7,4.6-0.8c0.4-0.5,0.6-1.2,0.6-1.8c0.1,0.1,0.2,0.2,0.3,0.2
		c1.8,1.3,4,1.3,5.7,2.7c1.5,1.2,2.4,3.1,4,4.1c3.1,2.2,7.3,1.5,9.5-1.6C244.8,146.9,244.1,142.6,241,140.4z"/>
</g>
<g opacity="0.25" filter="url(#ds1)">
	<path fill="#6AE6A7" d="M82.1,210.3c-1.5-1.1-3.5-1.5-5.2-2.3c-0.1-0.1-0.3-0.1-0.4-0.2c-1.8-1.2-2.3-3.1-4-4.3
		c-3.1-2.2-7.3-1.5-9.5,1.6c-1.3,1.8-1.6,4.1-0.9,6c-1.3-0.5-2.9,0-3.7,1.2c-1.1,1.5-0.7,3.6,0.8,4.6c1.5,1.1,3.6,0.7,4.6-0.8
		c0.4-0.5,0.6-1.2,0.6-1.8c0.1,0.1,0.2,0.2,0.3,0.2c1.8,1.3,4,1.3,5.7,2.7c1.5,1.2,2.4,3.1,4,4.1c3.1,2.2,7.3,1.5,9.5-1.6
		C85.9,216.8,85.2,212.5,82.1,210.3z"/>
	<path fill="none" stroke="#3F9166" stroke-width="1.489" stroke-linejoin="round" stroke-miterlimit="10" d="M82.1,210.3
		c-1.5-1.1-3.5-1.5-5.2-2.3c-0.1-0.1-0.3-0.1-0.4-0.2c-1.8-1.2-2.3-3.1-4-4.3c-3.1-2.2-7.3-1.5-9.5,1.6c-1.3,1.8-1.6,4.1-0.9,6
		c-1.3-0.5-2.9,0-3.7,1.2c-1.1,1.5-0.7,3.6,0.8,4.6c1.5,1.1,3.6,0.7,4.6-0.8c0.4-0.5,0.6-1.2,0.6-1.8c0.1,0.1,0.2,0.2,0.3,0.2
		c1.8,1.3,4,1.3,5.7,2.7c1.5,1.2,2.4,3.1,4,4.1c3.1,2.2,7.3,1.5,9.5-1.6C85.9,216.8,85.2,212.5,82.1,210.3z"/>
</g>
<g opacity="0.25" filter="url(#ds1)">
	<path fill="#6AE6A7" d="M178.2,146.9c-1.5-1.1-3.5-1.5-5.2-2.3c-0.1-0.1-0.3-0.1-0.4-0.2c-0.9-0.6-1.5-1.4-2.1-2.2
		c-0.1-0.3-0.2-0.7-0.2-1.1c-0.5-2.7,1.5-5.1,1.2-7.9c-0.3-2.7-2.2-5.1-4.8-5.9c-1-0.3-2.6-0.3-3.5-0.1c-0.9,0.1-1.7,0.5-2.6,0.7
		c-0.8,0.2-1.6,0.2-2.4,0.1c-0.7-0.1-1.1-0.6-1.7-0.9c-0.6-0.3-1.4-0.5-2.1-0.7c-1.5-0.3-3.2-0.4-4.6,0.2c-3.2,1.2-4.2,4.4-4.2,7.6
		c0,1.9-0.5,3.1-1.4,4.7c-0.8,1.4-1.5,2.9-1.6,4.5c-0.1,1.8,0.9,4.1,2.2,5.4c1.5,1.4,3.6,1.7,5.4,2.5c1.3,0.5,1.8,1.8,2.8,2.8
		c2,1.9,4.6,2.3,7.1,1.1c1.7-0.8,2.4-2.1,4.2-2.5c0.7,0.3,1.5,0.6,2.1,1.2c1.5,1.2,2.4,3.1,4,4.1c3.1,2.2,7.3,1.5,9.5-1.6
		C181.9,153.4,181.2,149.1,178.2,146.9z"/>
	<path fill="none" stroke="#3F9166" stroke-width="1.489" stroke-linejoin="round" stroke-miterlimit="10" d="M178.2,146.9
		c-1.5-1.1-3.5-1.5-5.2-2.3c-0.1-0.1-0.3-0.1-0.4-0.2c-0.9-0.6-1.5-1.4-2.1-2.2c-0.1-0.3-0.2-0.7-0.2-1.1c-0.5-2.7,1.5-5.1,1.2-7.9
		c-0.3-2.7-2.2-5.1-4.8-5.9c-1-0.3-2.6-0.3-3.5-0.1c-0.9,0.1-1.7,0.5-2.6,0.7c-0.8,0.2-1.6,0.2-2.4,0.1c-0.7-0.1-1.1-0.6-1.7-0.9
		c-0.6-0.3-1.4-0.5-2.1-0.7c-1.5-0.3-3.2-0.4-4.6,0.2c-3.2,1.2-4.2,4.4-4.2,7.6c0,1.9-0.5,3.1-1.4,4.7c-0.8,1.4-1.5,2.9-1.6,4.5
		c-0.1,1.8,0.9,4.1,2.2,5.4c1.5,1.4,3.6,1.7,5.4,2.5c1.3,0.5,1.8,1.8,2.8,2.8c2,1.9,4.6,2.3,7.1,1.1c1.7-0.8,2.4-2.1,4.2-2.5
		c0.7,0.3,1.5,0.6,2.1,1.2c1.5,1.2,2.4,3.1,4,4.1c3.1,2.2,7.3,1.5,9.5-1.6C181.9,153.4,181.2,149.1,178.2,146.9z"/>
</g>
<g opacity="0.25" filter="url(#ds1)">
	<path fill="#6AE6A7" d="M121.3,82.7c-1.5-1.1-3.5-1.5-5.2-2.3c-0.1-0.1-0.3-0.1-0.4-0.2c-1.8-1.2-2.3-3.1-4-4.3
		c0,0-0.1-0.1-0.1-0.1c0.6-0.5,1.2-1,1.7-1.7c1.2-1.7,1.7-3.2,4-3c2.5,0.2,4.7-0.3,6.3-2.6c1.1-1.5,1.5-3.3,1.2-5.1
		c-0.3-1.8-1.3-3.4-2.8-4.4c-1.2-0.8-2.5-1.3-4-1.3c-2,0-4.1,0.9-5.3,2.5c-1.1,1.5-1.7,2.6-3.8,3.1c-1.8,0.4-3.5,0.6-4.9-0.8
		c-1-1.1-1.5-2.6-2.8-3.5c-1.2-0.8-2.5-1.3-4-1.3c-2.2,0-4.3,1.1-5.6,2.9c-2.2,3.1-1.5,7.3,1.6,9.5c1.3,0.9,2.5,0.9,4,1
		c1.3,0.1,2.8,0.7,3.8,1.6c0.9,0.9,1.4,2.2,2.5,3c0,0,0.1,0,0.1,0.1c-0.6,0.4-1.1,1-1.6,1.6c-1.3,1.8-1.6,4.1-0.9,6
		c-1.3-0.5-2.9,0-3.7,1.2c-1.1,1.5-0.7,3.6,0.8,4.6c1.5,1.1,3.6,0.7,4.6-0.8c0.4-0.5,0.6-1.2,0.6-1.8c0.1,0.1,0.2,0.2,0.3,0.2
		c1.8,1.3,4,1.3,5.7,2.7c1.5,1.2,2.4,3.1,4,4.1c3.1,2.2,7.3,1.5,9.5-1.6C125.1,89.1,124.4,84.9,121.3,82.7z"/>
	<path fill="none" stroke="#3F9166" stroke-width="1.489" stroke-linejoin="round" stroke-miterlimit="10" d="M121.3,82.7
		c-1.5-1.1-3.5-1.5-5.2-2.3c-0.1-0.1-0.3-0.1-0.4-0.2c-1.8-1.2-2.3-3.1-4-4.3c0,0-0.1-0.1-0.1-0.1c0.6-0.5,1.2-1,1.7-1.7
		c1.2-1.7,1.7-3.2,4-3c2.5,0.2,4.7-0.3,6.3-2.6c1.1-1.5,1.5-3.3,1.2-5.1c-0.3-1.8-1.3-3.4-2.8-4.4c-1.2-0.8-2.5-1.3-4-1.3
		c-2,0-4.1,0.9-5.3,2.5c-1.1,1.5-1.7,2.6-3.8,3.1c-1.8,0.4-3.5,0.6-4.9-0.8c-1-1.1-1.5-2.6-2.8-3.5c-1.2-0.8-2.5-1.3-4-1.3
		c-2.2,0-4.3,1.1-5.6,2.9c-2.2,3.1-1.5,7.3,1.6,9.5c1.3,0.9,2.5,0.9,4,1c1.3,0.1,2.8,0.7,3.8,1.6c0.9,0.9,1.4,2.2,2.5,3
		c0,0,0.1,0,0.1,0.1c-0.6,0.4-1.1,1-1.6,1.6c-1.3,1.8-1.6,4.1-0.9,6c-1.3-0.5-2.9,0-3.7,1.2c-1.1,1.5-0.7,3.6,0.8,4.6
		c1.5,1.1,3.6,0.7,4.6-0.8c0.4-0.5,0.6-1.2,0.6-1.8c0.1,0.1,0.2,0.2,0.3,0.2c1.8,1.3,4,1.3,5.7,2.7c1.5,1.2,2.4,3.1,4,4.1
		c3.1,2.2,7.3,1.5,9.5-1.6C125.1,89.1,124.4,84.9,121.3,82.7z"/>
</g>
<g opacity="0.25" filter="url(#ds1)">
	<path fill="#6AE6A7" d="M152.1,202.6c-1.5-1.1-3.5-1.5-5.2-2.3c-0.1-0.1-0.3-0.1-0.4-0.2c-1.8-1.2-2.3-3.1-4-4.3
		c0,0-0.1-0.1-0.1-0.1c0.6-0.5,1.2-1,1.7-1.7c1.2-1.7,1.7-3.2,4-3c2.5,0.2,4.7-0.3,6.3-2.6c1.1-1.5,1.5-3.3,1.2-5.1
		c-0.3-1.8-1.3-3.4-2.8-4.4c-1.2-0.8-2.5-1.3-4-1.3c-2,0-4.1,0.9-5.3,2.5c-0.7,0.9-1.3,2-2.4,2.5c-1.6,0.9-3.5,0.5-5.2,1.2
		c-1.6,0.7-3.1,1.9-3.8,3.6c-1.2,2.9-0.3,6.4,2.3,8.2c0,0,0.1,0,0.1,0.1c-0.6,0.4-1.1,1-1.6,1.6c-1.3,1.8-1.6,4.1-0.9,6
		c-1.3-0.5-2.9,0-3.7,1.2c-1.1,1.5-0.7,3.6,0.8,4.6c1.5,1.1,3.6,0.7,4.6-0.8c0.4-0.5,0.6-1.2,0.6-1.8c0.1,0.1,0.2,0.2,0.3,0.2
		c1.8,1.3,4,1.3,5.7,2.7c1.5,1.2,2.4,3.1,4,4.1c3.1,2.2,7.3,1.5,9.5-1.6C155.9,209.1,155.2,204.8,152.1,202.6z"/>
	<path fill="none" stroke="#3F9166" stroke-width="1.489" stroke-linejoin="round" stroke-miterlimit="10" d="M152.1,202.6
		c-1.5-1.1-3.5-1.5-5.2-2.3c-0.1-0.1-0.3-0.1-0.4-0.2c-1.8-1.2-2.3-3.1-4-4.3c0,0-0.1-0.1-0.1-0.1c0.6-0.5,1.2-1,1.7-1.7
		c1.2-1.7,1.7-3.2,4-3c2.5,0.2,4.7-0.3,6.3-2.6c1.1-1.5,1.5-3.3,1.2-5.1c-0.3-1.8-1.3-3.4-2.8-4.4c-1.2-0.8-2.5-1.3-4-1.3
		c-2,0-4.1,0.9-5.3,2.5c-0.7,0.9-1.3,2-2.4,2.5c-1.6,0.9-3.5,0.5-5.2,1.2c-1.6,0.7-3.1,1.9-3.8,3.6c-1.2,2.9-0.3,6.4,2.3,8.2
		c0,0,0.1,0,0.1,0.1c-0.6,0.4-1.1,1-1.6,1.6c-1.3,1.8-1.6,4.1-0.9,6c-1.3-0.5-2.9,0-3.7,1.2c-1.1,1.5-0.7,3.6,0.8,4.6
		c1.5,1.1,3.6,0.7,4.6-0.8c0.4-0.5,0.6-1.2,0.6-1.8c0.1,0.1,0.2,0.2,0.3,0.2c1.8,1.3,4,1.3,5.7,2.7c1.5,1.2,2.4,3.1,4,4.1
		c3.1,2.2,7.3,1.5,9.5-1.6C155.9,209.1,155.2,204.8,152.1,202.6z"/>
</g>
<g opacity="0.25" filter="url(#ds1)">
	<path fill="#6AE6A7" d="M163.7,107.6c-1.5-1.1-3.5-1.5-5.2-2.3c-0.1-0.1-0.3-0.1-0.4-0.2c-1.8-1.2-2.3-3.1-4-4.3
		c0,0-0.1-0.1-0.1-0.1c0.6-0.5,1.2-1,1.7-1.7c1.3-1.9,1.4-3.9,0.8-6.1c-0.5-1.6-1.7-3.4-0.8-5.1c0.6-1.2,1.5-2.9,2.8-3.5
		c1.3-0.7,3,0.1,4.5-0.4c0.4-0.1,0.8-0.3,1.2-0.6c0.8-0.5,1.5-1.2,2-1.9c1.1-1.5,1.5-3.3,1.2-5.1c-0.3-1.8-1.3-3.4-2.8-4.4
		c-1.2-0.8-2.5-1.3-4-1.3c-2,0-4.1,0.9-5.3,2.5c-1.1,1.5-1.7,2.6-3.8,3.1c-1.8,0.4-3.5,0.6-4.9-0.8c-1-1.1-1.5-2.6-2.8-3.5
		c-1.2-0.8-2.5-1.3-4-1.3c-2.2,0-4.3,1.1-5.6,2.9c-1.8,2.5-1.6,6.1,0.4,8.4c1,1.2,2.3,2,3.9,2.2c1.1,0.2,2.3-0.2,3.4,0.1
		c1.3,0.4,1.8,1.7,2.4,2.9c1.5,2.9-1.2,5.1-0.9,8c0.2,2.1,1,4.2,2.8,5.5c0,0,0.1,0,0.1,0.1c-0.6,0.4-1.1,1-1.6,1.6
		c-1.3,1.8-1.6,4.1-0.9,6c-1.3-0.5-2.9,0-3.7,1.2c-1.1,1.5-0.7,3.6,0.8,4.6c1.5,1.1,3.6,0.7,4.6-0.8c0.4-0.5,0.6-1.2,0.6-1.8
		c0.1,0.1,0.2,0.2,0.3,0.2c1.8,1.3,4,1.3,5.7,2.7c1.5,1.2,2.4,3.1,4,4.1c3.1,2.2,7.3,1.5,9.5-1.6
		C167.5,114.1,166.8,109.8,163.7,107.6z"/>
	<path fill="none" stroke="#3F9166" stroke-width="1.489" stroke-linejoin="round" stroke-miterlimit="10" d="M163.7,107.6
		c-1.5-1.1-3.5-1.5-5.2-2.3c-0.1-0.1-0.3-0.1-0.4-0.2c-1.8-1.2-2.3-3.1-4-4.3c0,0-0.1-0.1-0.1-0.1c0.6-0.5,1.2-1,1.7-1.7
		c1.3-1.9,1.4-3.9,0.8-6.1c-0.5-1.6-1.7-3.4-0.8-5.1c0.6-1.2,1.5-2.9,2.8-3.5c1.3-0.7,3,0.1,4.5-0.4c0.4-0.1,0.8-0.3,1.2-0.6
		c0.8-0.5,1.5-1.2,2-1.9c1.1-1.5,1.5-3.3,1.2-5.1c-0.3-1.8-1.3-3.4-2.8-4.4c-1.2-0.8-2.5-1.3-4-1.3c-2,0-4.1,0.9-5.3,2.5
		c-1.1,1.5-1.7,2.6-3.8,3.1c-1.8,0.4-3.5,0.6-4.9-0.8c-1-1.1-1.5-2.6-2.8-3.5c-1.2-0.8-2.5-1.3-4-1.3c-2.2,0-4.3,1.1-5.6,2.9
		c-1.8,2.5-1.6,6.1,0.4,8.4c1,1.2,2.3,2,3.9,2.2c1.1,0.2,2.3-0.2,3.4,0.1c1.3,0.4,1.8,1.7,2.4,2.9c1.5,2.9-1.2,5.1-0.9,8
		c0.2,2.1,1,4.2,2.8,5.5c0,0,0.1,0,0.1,0.1c-0.6,0.4-1.1,1-1.6,1.6c-1.3,1.8-1.6,4.1-0.9,6c-1.3-0.5-2.9,0-3.7,1.2
		c-1.1,1.5-0.7,3.6,0.8,4.6c1.5,1.1,3.6,0.7,4.6-0.8c0.4-0.5,0.6-1.2,0.6-1.8c0.1,0.1,0.2,0.2,0.3,0.2c1.8,1.3,4,1.3,5.7,2.7
		c1.5,1.2,2.4,3.1,4,4.1c3.1,2.2,7.3,1.5,9.5-1.6C167.5,114.1,166.8,109.8,163.7,107.6z"/>
</g>
<g opacity="0.25" filter="url(#ds1)">
	<path fill="#6AE6A7" d="M313.6,166.3c-1.5-1.1-3.5-1.5-5.2-2.3c-0.1-0.1-0.3-0.1-0.4-0.2c-1.8-1.2-2.3-3.1-4-4.3
		c0,0-0.1-0.1-0.1-0.1c0.6-0.5,1.2-1,1.7-1.7c1.1-1.6,1.3-3.4,1-5.3c-0.3-1.6-1.4-3.3-1.2-5c0.2-1.5,0.9-3,1.1-4.5
		c0.1-0.4,0.1-0.8,0.1-1.2c0-5.5-6-9.3-11-5.6c-0.4,0.3-0.7,0.6-1,0.9c0-0.4-0.1-0.8-0.2-1.1c0-0.1-0.1-0.2-0.1-0.3
		c-0.2-0.5-0.6-0.9-1-1.2c-1.5-1.1-3.6-0.7-4.6,0.8c-1.1,1.5-0.7,3.6,0.8,4.6c1.1,0.8,2.6,0.8,3.7,0.1c-0.2,0.8-0.2,1.6-0.1,2.4
		c0.3,3.5,1.8,5.7,0.4,9.1c-1.1,2.6,0.2,6.4,2.6,8.1c0,0,0.1,0,0.1,0.1c-0.6,0.4-1.1,1-1.6,1.6c-1.3,1.8-1.6,4.1-0.9,6
		c-1.3-0.5-2.9,0-3.7,1.2c-1.1,1.5-0.7,3.6,0.8,4.6c1.5,1.1,3.6,0.7,4.6-0.8c0.4-0.5,0.6-1.2,0.6-1.8c0.1,0.1,0.2,0.2,0.3,0.2
		c1.8,1.3,4,1.3,5.7,2.7c1.5,1.2,2.4,3.1,4,4.1c3.1,2.2,7.3,1.5,9.5-1.6C317.4,172.8,316.6,168.5,313.6,166.3z"/>
	<path fill="none" stroke="#3F9166" stroke-width="1.489" stroke-linejoin="round" stroke-miterlimit="10" d="M313.6,166.3
		c-1.5-1.1-3.5-1.5-5.2-2.3c-0.1-0.1-0.3-0.1-0.4-0.2c-1.8-1.2-2.3-3.1-4-4.3c0,0-0.1-0.1-0.1-0.1c0.6-0.5,1.2-1,1.7-1.7
		c1.1-1.6,1.3-3.4,1-5.3c-0.3-1.6-1.4-3.3-1.2-5c0.2-1.5,0.9-3,1.1-4.5c0.1-0.4,0.1-0.8,0.1-1.2c0-5.5-6-9.3-11-5.6
		c-0.4,0.3-0.7,0.6-1,0.9c0-0.4-0.1-0.8-0.2-1.1c0-0.1-0.1-0.2-0.1-0.3c-0.2-0.5-0.6-0.9-1-1.2c-1.5-1.1-3.6-0.7-4.6,0.8
		c-1.1,1.5-0.7,3.6,0.8,4.6c1.1,0.8,2.6,0.8,3.7,0.1c-0.2,0.8-0.2,1.6-0.1,2.4c0.3,3.5,1.8,5.7,0.4,9.1c-1.1,2.6,0.2,6.4,2.6,8.1
		c0,0,0.1,0,0.1,0.1c-0.6,0.4-1.1,1-1.6,1.6c-1.3,1.8-1.6,4.1-0.9,6c-1.3-0.5-2.9,0-3.7,1.2c-1.1,1.5-0.7,3.6,0.8,4.6
		c1.5,1.1,3.6,0.7,4.6-0.8c0.4-0.5,0.6-1.2,0.6-1.8c0.1,0.1,0.2,0.2,0.3,0.2c1.8,1.3,4,1.3,5.7,2.7c1.5,1.2,2.4,3.1,4,4.1
		c3.1,2.2,7.3,1.5,9.5-1.6C317.4,172.8,316.6,168.5,313.6,166.3z"/>
</g>
<g opacity="0.25" filter="url(#ds1)">
	<path fill="#6AE6A7" d="M271.2,211.8c-1.5-1.1-3.5-1.5-5.2-2.3c-0.1-0.1-0.3-0.1-0.4-0.2c-1.8-1.2-2.3-3.1-4-4.3
		c0,0-0.1-0.1-0.1-0.1c0.6-0.5,1.2-1,1.7-1.7c1.1-1.6,1.3-3.4,1-5.3c-0.3-1.6-1.4-3.3-1.2-5c0.2-1.5,0.9-3,1.1-4.5
		c0.1-0.4,0.1-0.8,0.1-1.2c0-5.5-6-9.3-11-5.6c-2,1.5-2.9,3.7-2.6,6.1c0.3,3.5,1.8,5.7,0.4,9.1c-1.1,2.6,0.2,6.4,2.6,8.1
		c0,0,0.1,0,0.1,0.1c-0.6,0.4-1.1,1-1.6,1.6c-1.3,1.8-1.6,4.1-0.9,6c-1.3-0.5-2.9,0-3.7,1.2c-1.1,1.5-0.7,3.6,0.8,4.6
		c1.5,1.1,3.6,0.7,4.6-0.8c0.4-0.5,0.6-1.2,0.6-1.8c0.1,0.1,0.2,0.2,0.3,0.2c1.8,1.3,4,1.3,5.7,2.7c1.5,1.2,2.4,3.1,4,4.1
		c3.1,2.2,7.3,1.5,9.5-1.6C275,218.3,274.3,214,271.2,211.8z"/>
	<path fill="none" stroke="#3F9166" stroke-width="1.489" stroke-linejoin="round" stroke-miterlimit="10" d="M271.2,211.8
		c-1.5-1.1-3.5-1.5-5.2-2.3c-0.1-0.1-0.3-0.1-0.4-0.2c-1.8-1.2-2.3-3.1-4-4.3c0,0-0.1-0.1-0.1-0.1c0.6-0.5,1.2-1,1.7-1.7
		c1.1-1.6,1.3-3.4,1-5.3c-0.3-1.6-1.4-3.3-1.2-5c0.2-1.5,0.9-3,1.1-4.5c0.1-0.4,0.1-0.8,0.1-1.2c0-5.5-6-9.3-11-5.6
		c-2,1.5-2.9,3.7-2.6,6.1c0.3,3.5,1.8,5.7,0.4,9.1c-1.1,2.6,0.2,6.4,2.6,8.1c0,0,0.1,0,0.1,0.1c-0.6,0.4-1.1,1-1.6,1.6
		c-1.3,1.8-1.6,4.1-0.9,6c-1.3-0.5-2.9,0-3.7,1.2c-1.1,1.5-0.7,3.6,0.8,4.6c1.5,1.1,3.6,0.7,4.6-0.8c0.4-0.5,0.6-1.2,0.6-1.8
		c0.1,0.1,0.2,0.2,0.3,0.2c1.8,1.3,4,1.3,5.7,2.7c1.5,1.2,2.4,3.1,4,4.1c3.1,2.2,7.3,1.5,9.5-1.6C275,218.3,274.3,214,271.2,211.8z"
		/>
</g>
<g opacity="0.25" filter="url(#ds1)">
	<path fill="#6AE6A7" d="M200.1,197.7c0-0.1-0.1-0.2-0.1-0.3c-0.2-0.5-0.6-0.9-1-1.2c-0.9-0.6-2-0.8-2.9-0.4c0.3-0.6,0.5-1.3,0.6-2
		c0.3-1.8-0.1-3.6-1.2-5.1c-1-1.4-2.4-2.3-4-2.7c0.4-0.2,0.8-0.6,1.1-1c0.7-0.9,0.8-2.1,0.4-3.1c0-0.1-0.1-0.2-0.1-0.3
		c-0.2-0.5-0.6-0.9-1-1.2c-1.5-1.1-3.6-0.7-4.6,0.8c-1.1,1.5-0.7,3.6,0.8,4.6c0.1,0.1,0.2,0.1,0.4,0.2c-0.9,0.2-1.7,0.5-2.4,1.1
		c-1.5,1.1-2.5,2.6-2.8,4.4c-0.2,1.3,0,2.7,0.5,3.9c-1.2-0.3-2.6,0.2-3.3,1.3c-1.1,1.5-0.7,3.6,0.8,4.6c0.1,0.1,0.3,0.2,0.5,0.3
		c-0.9,0.2-1.8,0.6-2.5,1.1c-1.2,0.9-1.7,2.4-2.8,3.5c-0.8,0.8-1.9,1-2.9,1.1c-2,0.1-4.2,0.4-5.7,1.9c-1.3,1.3-1.9,3.1-1.9,4.9
		c0,1.5,0.5,3,1.3,4.6c0.9,1.6-0.4,3.5-0.8,5.1c-0.6,2.2-0.5,4.3,0.8,6.1c0.5,0.7,1,1.2,1.7,1.7c-0.6,0.4-1.2,1-1.7,1.7
		c-1.3,1.8-1.6,4.1-0.9,6c-1.3-0.5-2.9,0-3.7,1.2c-1.1,1.5-0.7,3.6,0.8,4.6c1.5,1.1,3.6,0.7,4.6-0.8c0.4-0.5,0.6-1.2,0.6-1.8
		c0.1,0.1,0.2,0.2,0.3,0.2c1.8,1.3,4,1.3,5.7,2.7c1.5,1.2,2.4,3.1,4,4.1c3.1,2.2,7.3,1.5,9.5-1.6c2.2-3.1,1.5-7.3-1.6-9.5
		c-1.5-1.1-3.5-1.5-5.2-2.3c-0.1-0.1-0.3-0.1-0.4-0.2c-1.8-1.2-2.3-3.1-4-4.3c0,0,0,0,0,0c0,0,0.1,0,0.1-0.1
		c1.8-1.3,2.6-3.4,2.8-5.5c0.2-2.9-2.4-5.1-0.9-8c0.6-1.1,1.1-2.5,2.4-2.9c1.1-0.3,2.3,0.1,3.4-0.1c1.5-0.2,2.9-1,3.9-2.2
		c2-2.4,2.2-5.9,0.4-8.4c-1-1.4-2.5-2.3-4.1-2.7c0.5-0.2,0.9-0.6,1.3-1c0.5-0.7,0.7-1.4,0.6-2.2c1.1,0.7,2.3,1,3.6,1
		c1.4,0,2.7-0.4,3.9-1.2c-0.2,1.2,0.2,2.5,1.3,3.3c1.5,1.1,3.6,0.7,4.6-0.8C200.4,199.9,200.5,198.7,200.1,197.7z"/>
	<path fill="none" stroke="#3F9166" stroke-width="1.489" stroke-linejoin="round" stroke-miterlimit="10" d="M200.1,197.7
		c0-0.1-0.1-0.2-0.1-0.3c-0.2-0.5-0.6-0.9-1-1.2c-0.9-0.6-2-0.8-2.9-0.4c0.3-0.6,0.5-1.3,0.6-2c0.3-1.8-0.1-3.6-1.2-5.1
		c-1-1.4-2.4-2.3-4-2.7c0.4-0.2,0.8-0.6,1.1-1c0.7-0.9,0.8-2.1,0.4-3.1c0-0.1-0.1-0.2-0.1-0.3c-0.2-0.5-0.6-0.9-1-1.2
		c-1.5-1.1-3.6-0.7-4.6,0.8c-1.1,1.5-0.7,3.6,0.8,4.6c0.1,0.1,0.2,0.1,0.4,0.2c-0.9,0.2-1.7,0.5-2.4,1.1c-1.5,1.1-2.5,2.6-2.8,4.4
		c-0.2,1.3,0,2.7,0.5,3.9c-1.2-0.3-2.6,0.2-3.3,1.3c-1.1,1.5-0.7,3.6,0.8,4.6c0.1,0.1,0.3,0.2,0.5,0.3c-0.9,0.2-1.8,0.6-2.5,1.1
		c-1.2,0.9-1.7,2.4-2.8,3.5c-0.8,0.8-1.9,1-2.9,1.1c-2,0.1-4.2,0.4-5.7,1.9c-1.3,1.3-1.9,3.1-1.9,4.9c0,1.5,0.5,3,1.3,4.6
		c0.9,1.6-0.4,3.5-0.8,5.1c-0.6,2.2-0.5,4.3,0.8,6.1c0.5,0.7,1,1.2,1.7,1.7c-0.6,0.4-1.2,1-1.7,1.7c-1.3,1.8-1.6,4.1-0.9,6
		c-1.3-0.5-2.9,0-3.7,1.2c-1.1,1.5-0.7,3.6,0.8,4.6c1.5,1.1,3.6,0.7,4.6-0.8c0.4-0.5,0.6-1.2,0.6-1.8c0.1,0.1,0.2,0.2,0.3,0.2
		c1.8,1.3,4,1.3,5.7,2.7c1.5,1.2,2.4,3.1,4,4.1c3.1,2.2,7.3,1.5,9.5-1.6c2.2-3.1,1.5-7.3-1.6-9.5c-1.5-1.1-3.5-1.5-5.2-2.3
		c-0.1-0.1-0.3-0.1-0.4-0.2c-1.8-1.2-2.3-3.1-4-4.3c0,0,0,0,0,0c0,0,0.1,0,0.1-0.1c1.8-1.3,2.6-3.4,2.8-5.5c0.2-2.9-2.4-5.1-0.9-8
		c0.6-1.1,1.1-2.5,2.4-2.9c1.1-0.3,2.3,0.1,3.4-0.1c1.5-0.2,2.9-1,3.9-2.2c2-2.4,2.2-5.9,0.4-8.4c-1-1.4-2.5-2.3-4.1-2.7
		c0.5-0.2,0.9-0.6,1.3-1c0.5-0.7,0.7-1.4,0.6-2.2c1.1,0.7,2.3,1,3.6,1c1.4,0,2.7-0.4,3.9-1.2c-0.2,1.2,0.2,2.5,1.3,3.3
		c1.5,1.1,3.6,0.7,4.6-0.8C200.4,199.9,200.5,198.7,200.1,197.7z"/>
</g>
<g opacity="0.25" filter="url(#ds1)">
	<path fill="#6AE6A7" d="M254.3,92.8c-1.5-1.1-3.5-1.5-5.2-2.3c-0.1-0.1-0.3-0.1-0.4-0.2c-1.8-1.2-2.3-3.1-4-4.3
		c0,0-0.1-0.1-0.1-0.1c0.6-0.5,1.2-1,1.7-1.7c1.3-1.9,1.4-3.9,0.8-6.1c-0.5-1.6-1.7-3.4-0.8-5.1c0.8-1.5,1.3-3,1.3-4.6
		c0-1.8-0.6-3.6-1.9-4.9c-1.5-1.5-3.6-1.8-5.7-1.9c-1,0-2.2-0.3-2.9-1.1c-1-1.1-1.5-2.6-2.8-3.5c-1.2-0.8-2.5-1.3-4-1.3
		c-2.2,0-4.3,1.1-5.6,2.9c-1.4,2-1.6,4.6-0.6,6.8c-1.4-0.7-3.2-0.3-4.1,1c-1.1,1.5-0.7,3.6,0.8,4.6c1.5,1.1,3.6,0.7,4.6-0.8
		c0.5-0.7,0.7-1.6,0.6-2.4c0.9,0.8,1.9,1.3,3.1,1.4c1.1,0.2,2.3-0.2,3.4,0.1c1.3,0.4,1.8,1.7,2.4,2.9c1.5,2.9-1.2,5.1-0.9,8
		c0.2,2.1,1,4.2,2.8,5.5c0,0,0.1,0,0.1,0.1c-0.6,0.4-1.1,1-1.6,1.6c-1.3,1.8-1.6,4.1-0.9,6c-1.3-0.5-2.9,0-3.7,1.2
		c-1.1,1.5-0.7,3.6,0.8,4.6c1.5,1.1,3.6,0.7,4.6-0.8c0.4-0.5,0.6-1.2,0.6-1.8c0.1,0.1,0.2,0.2,0.3,0.2c1.8,1.3,4,1.3,5.7,2.7
		c1.5,1.2,2.4,3.1,4,4.1c3.1,2.2,7.3,1.5,9.5-1.6C258,99.2,257.3,95,254.3,92.8z"/>
	<path fill="none" stroke="#3F9166" stroke-width="1.489" stroke-linejoin="round" stroke-miterlimit="10" d="M254.3,92.8
		c-1.5-1.1-3.5-1.5-5.2-2.3c-0.1-0.1-0.3-0.1-0.4-0.2c-1.8-1.2-2.3-3.1-4-4.3c0,0-0.1-0.1-0.1-0.1c0.6-0.5,1.2-1,1.7-1.7
		c1.3-1.9,1.4-3.9,0.8-6.1c-0.5-1.6-1.7-3.4-0.8-5.1c0.8-1.5,1.3-3,1.3-4.6c0-1.8-0.6-3.6-1.9-4.9c-1.5-1.5-3.6-1.8-5.7-1.9
		c-1,0-2.2-0.3-2.9-1.1c-1-1.1-1.5-2.6-2.8-3.5c-1.2-0.8-2.5-1.3-4-1.3c-2.2,0-4.3,1.1-5.6,2.9c-1.4,2-1.6,4.6-0.6,6.8
		c-1.4-0.7-3.2-0.3-4.1,1c-1.1,1.5-0.7,3.6,0.8,4.6c1.5,1.1,3.6,0.7,4.6-0.8c0.5-0.7,0.7-1.6,0.6-2.4c0.9,0.8,1.9,1.3,3.1,1.4
		c1.1,0.2,2.3-0.2,3.4,0.1c1.3,0.4,1.8,1.7,2.4,2.9c1.5,2.9-1.2,5.1-0.9,8c0.2,2.1,1,4.2,2.8,5.5c0,0,0.1,0,0.1,0.1
		c-0.6,0.4-1.1,1-1.6,1.6c-1.3,1.8-1.6,4.1-0.9,6c-1.3-0.5-2.9,0-3.7,1.2c-1.1,1.5-0.7,3.6,0.8,4.6c1.5,1.1,3.6,0.7,4.6-0.8
		c0.4-0.5,0.6-1.2,0.6-1.8c0.1,0.1,0.2,0.2,0.3,0.2c1.8,1.3,4,1.3,5.7,2.7c1.5,1.2,2.4,3.1,4,4.1c3.1,2.2,7.3,1.5,9.5-1.6
		C258,99.2,257.3,95,254.3,92.8z"/>
</g>
<g opacity="0.25" filter="url(#ds1)">
	<path fill="#6AE6A7" d="M285.3,78.4c1.3-0.7,3,0.1,4.5-0.4c0.4-0.1,0.8-0.3,1.2-0.6c0.8-0.5,1.5-1.2,2-1.9c1.1-1.5,1.5-3.3,1.2-5.1
		c-0.3-1.7-1.6-2.8-1.7-4.5c0-0.1,0-0.1,0-0.2c0-1.6,1.4-3.2,1.7-4.9c0.3-1.8-0.1-3.6-1.2-5.1c-1.3-1.8-3.4-2.9-5.6-2.9
		c-1.4,0-2.8,0.4-4,1.3c-3.2,2.3-3.4,6.1-1.8,9.4c0.8,1.5,1.1,2.6,0,4.1c-0.8,1.1-2,2.3-3.4,2.5c-1.8,0.4-3.5,0.6-4.9-0.8
		c-1-1.1-1.5-2.6-2.8-3.5c-1.2-0.8-2.5-1.3-4-1.3c-2.2,0-4.3,1.1-5.6,2.9c-1.8,2.5-1.6,6.1,0.4,8.4c1,1.2,2.3,2,3.9,2.2
		c1.1,0.2,2.3-0.2,3.4,0.1c1.3,0.4,1.8,1.7,2.4,2.9c1.5,2.9-1.2,5.1-0.9,8c0.2,2.1,1,4.2,2.8,5.5c0,0,0.1,0,0.1,0.1
		c-0.6,0.4-1.1,1-1.6,1.6c-1.3,1.8-1.6,4.1-0.9,6c-1.3-0.5-2.9,0-3.7,1.2c-1.1,1.5-0.7,3.6,0.8,4.6c1.5,1.1,3.6,0.7,4.6-0.8
		c0.4-0.5,0.6-1.2,0.6-1.8c0.1,0.1,0.2,0.2,0.3,0.2c1.8,1.3,4,1.3,5.7,2.7c1.5,1.2,2.4,3.1,4,4.1c1,0.7,2.4,1.3,3.6,1.3
		c1.2,0,2.5-0.4,3.6-0.8c0.5-0.2,1.1-0.4,1.4-0.8c0.3-0.4,0.6-0.8,0.9-1.2c2.2-3.1,1.5-7.3-1.6-9.5c-1.5-1.1-3.5-1.5-5.2-2.3
		c-0.1-0.1-0.3-0.1-0.4-0.2c-1.8-1.2-2.3-3.1-4-4.3c0,0-0.1-0.1-0.1-0.1c0.6-0.5,1.2-1,1.7-1.7c1.3-1.9,1.4-3.9,0.8-6.1
		c-0.5-1.6-1.7-3.4-0.8-5.1C283.1,80.7,284,79,285.3,78.4z"/>
	<path fill="none" stroke="#3F9166" stroke-width="1.489" stroke-linejoin="round" stroke-miterlimit="10" d="M285.3,78.4
		c1.3-0.7,3,0.1,4.5-0.4c0.4-0.1,0.8-0.3,1.2-0.6c0.8-0.5,1.5-1.2,2-1.9c1.1-1.5,1.5-3.3,1.2-5.1c-0.3-1.7-1.6-2.8-1.7-4.5
		c0-0.1,0-0.1,0-0.2c0-1.6,1.4-3.2,1.7-4.9c0.3-1.8-0.1-3.6-1.2-5.1c-1.3-1.8-3.4-2.9-5.6-2.9c-1.4,0-2.8,0.4-4,1.3
		c-3.2,2.3-3.4,6.1-1.8,9.4c0.8,1.5,1.1,2.6,0,4.1c-0.8,1.1-2,2.3-3.4,2.5c-1.8,0.4-3.5,0.6-4.9-0.8c-1-1.1-1.5-2.6-2.8-3.5
		c-1.2-0.8-2.5-1.3-4-1.3c-2.2,0-4.3,1.1-5.6,2.9c-1.8,2.5-1.6,6.1,0.4,8.4c1,1.2,2.3,2,3.9,2.2c1.1,0.2,2.3-0.2,3.4,0.1
		c1.3,0.4,1.8,1.7,2.4,2.9c1.5,2.9-1.2,5.1-0.9,8c0.2,2.1,1,4.2,2.8,5.5c0,0,0.1,0,0.1,0.1c-0.6,0.4-1.1,1-1.6,1.6
		c-1.3,1.8-1.6,4.1-0.9,6c-1.3-0.5-2.9,0-3.7,1.2c-1.1,1.5-0.7,3.6,0.8,4.6c1.5,1.1,3.6,0.7,4.6-0.8c0.4-0.5,0.6-1.2,0.6-1.8
		c0.1,0.1,0.2,0.2,0.3,0.2c1.8,1.3,4,1.3,5.7,2.7c1.5,1.2,2.4,3.1,4,4.1c1,0.7,2.4,1.3,3.6,1.3c1.2,0,2.5-0.4,3.6-0.8
		c0.5-0.2,1.1-0.4,1.4-0.8c0.3-0.4,0.6-0.8,0.9-1.2c2.2-3.1,1.5-7.3-1.6-9.5c-1.5-1.1-3.5-1.5-5.2-2.3c-0.1-0.1-0.3-0.1-0.4-0.2
		c-1.8-1.2-2.3-3.1-4-4.3c0,0-0.1-0.1-0.1-0.1c0.6-0.5,1.2-1,1.7-1.7c1.3-1.9,1.4-3.9,0.8-6.1c-0.5-1.6-1.7-3.4-0.8-5.1
		C283.1,80.7,284,79,285.3,78.4z"/>
</g>
<g opacity="0.25" filter="url(#ds1)">
	<path fill="#6AE6A7" d="M97.1,188.4c-1.5-1.1-3.5-1.5-5.2-2.3c-0.1-0.1-0.3-0.1-0.4-0.2c-1.8-1.2-2.3-3.1-4-4.3
		c0,0-0.1-0.1-0.1-0.1c0.6-0.5,1.2-1,1.7-1.7c1.3-1.9,1.4-3.9,0.8-6.1c-0.5-1.6-1.7-3.4-0.8-5.1c0.8-1.5,1.3-3,1.3-4.6
		c0-1.8-0.6-3.6-1.9-4.9c-1.5-1.5-3.6-1.8-5.7-1.9c-1,0-2.2-0.3-2.9-1.1c-1-1.1-1.5-2.6-2.8-3.5c-0.5-0.3-1-0.6-1.6-0.8
		c0.6-0.3,1.2-0.8,1.6-1.5c1.6-2.2,1.1-5.4-1.2-7c-1.5-1.1-3.4-1.2-4.9-0.5c0.3-1,0.4-2.2,0.3-3.3c-0.3-1.8-1.3-3.4-2.8-4.4
		c-1.2-0.8-2.5-1.3-4-1.3c-2.2,0-4.3,1.1-5.6,2.9c-1.1,1.5-1.5,3.3-1.2,5.1c0.3,1.8,1.3,3.4,2.8,4.4c1.2,0.8,2.5,1.3,4,1.3
		c1.3,0,2.5-0.4,3.6-1c-0.2,0.9-0.1,1.9,0.3,2.8c0,0.1,0.1,0.2,0.1,0.3c0.4,0.7,0.9,1.4,1.6,1.9c0.2,0.1,0.3,0.2,0.5,0.3
		c-1.2,0.5-2.3,1.3-3.1,2.4c-1.8,2.5-1.6,6.1,0.4,8.4c1,1.2,2.3,2,3.9,2.2c1.1,0.2,2.3-0.2,3.4,0.1c1.3,0.4,1.8,1.7,2.4,2.9
		c1.5,2.9-1.2,5.1-0.9,8c0.2,2.1,1,4.2,2.8,5.5c0,0,0.1,0,0.1,0.1c-0.6,0.4-1.1,1-1.6,1.6c-1.3,1.8-1.6,4.1-0.9,6
		c-1.3-0.5-2.9,0-3.7,1.2c-1.1,1.5-0.7,3.6,0.8,4.6c1.5,1.1,3.6,0.7,4.6-0.8c0.4-0.5,0.6-1.2,0.6-1.8c0.1,0.1,0.2,0.2,0.3,0.2
		c1.8,1.3,4,1.3,5.7,2.7c1.5,1.2,2.4,3.1,4,4.1c3.1,2.2,7.3,1.5,9.5-1.6C100.9,194.8,100.1,190.6,97.1,188.4z"/>
	<path fill="none" stroke="#3F9166" stroke-width="1.489" stroke-linejoin="round" stroke-miterlimit="10" d="M97.1,188.4
		c-1.5-1.1-3.5-1.5-5.2-2.3c-0.1-0.1-0.3-0.1-0.4-0.2c-1.8-1.2-2.3-3.1-4-4.3c0,0-0.1-0.1-0.1-0.1c0.6-0.5,1.2-1,1.7-1.7
		c1.3-1.9,1.4-3.9,0.8-6.1c-0.5-1.6-1.7-3.4-0.8-5.1c0.8-1.5,1.3-3,1.3-4.6c0-1.8-0.6-3.6-1.9-4.9c-1.5-1.5-3.6-1.8-5.7-1.9
		c-1,0-2.2-0.3-2.9-1.1c-1-1.1-1.5-2.6-2.8-3.5c-0.5-0.3-1-0.6-1.6-0.8c0.6-0.3,1.2-0.8,1.6-1.5c1.6-2.2,1.1-5.4-1.2-7
		c-1.5-1.1-3.4-1.2-4.9-0.5c0.3-1,0.4-2.2,0.3-3.3c-0.3-1.8-1.3-3.4-2.8-4.4c-1.2-0.8-2.5-1.3-4-1.3c-2.2,0-4.3,1.1-5.6,2.9
		c-1.1,1.5-1.5,3.3-1.2,5.1c0.3,1.8,1.3,3.4,2.8,4.4c1.2,0.8,2.5,1.3,4,1.3c1.3,0,2.5-0.4,3.6-1c-0.2,0.9-0.1,1.9,0.3,2.8
		c0,0.1,0.1,0.2,0.1,0.3c0.4,0.7,0.9,1.4,1.6,1.9c0.2,0.1,0.3,0.2,0.5,0.3c-1.2,0.5-2.3,1.3-3.1,2.4c-1.8,2.5-1.6,6.1,0.4,8.4
		c1,1.2,2.3,2,3.9,2.2c1.1,0.2,2.3-0.2,3.4,0.1c1.3,0.4,1.8,1.7,2.4,2.9c1.5,2.9-1.2,5.1-0.9,8c0.2,2.1,1,4.2,2.8,5.5
		c0,0,0.1,0,0.1,0.1c-0.6,0.4-1.1,1-1.6,1.6c-1.3,1.8-1.6,4.1-0.9,6c-1.3-0.5-2.9,0-3.7,1.2c-1.1,1.5-0.7,3.6,0.8,4.6
		c1.5,1.1,3.6,0.7,4.6-0.8c0.4-0.5,0.6-1.2,0.6-1.8c0.1,0.1,0.2,0.2,0.3,0.2c1.8,1.3,4,1.3,5.7,2.7c1.5,1.2,2.4,3.1,4,4.1
		c3.1,2.2,7.3,1.5,9.5-1.6C100.9,194.8,100.1,190.6,97.1,188.4z"/>
</g>
<g opacity="0.25" filter="url(#ds1)">
	<path fill="#6AE6A7" d="M217.1,93.7c1.1-3.6-1.3-7.2-5-7.8c-2.6-0.4-3.2-2.2-4.2-4.4c-0.4-0.8-0.6-1.5-0.6-2.4
		c0.1-1.6,1.3-2.8,1.6-4.3c0.3-1.8-0.1-3.6-1.2-5.1c-1.6-2.3-3.8-2.8-6.3-2.6c-2.2,0.2-2.8-1.3-4-3c-1.3-1.8-3.4-3-5.6-3
		c-1.4,0-2.8,0.4-4,1.3c-1.1,0.8-1.6,2.1-2.5,3c-0.9,1-2.5,1.5-3.8,1.6c-1.5,0.1-2.7,0.1-4,1c-1.9,1.4-3,3.7-2.8,6
		c0.1,1.3,0.6,2,1.1,3.1c0.5,1.2,0.4,2.8,0.1,4.1c-0.3,1.3-1.3,2.5-1.3,3.8c0,1.2,0.3,2.8,0.9,3.8c0.8,1.4,2,2.5,3.5,3.1
		c1.8,0.7,3.4-0.6,5.2,0.6c1.3,0.9,2,2.4,2.9,3.6c0.6,0.7,1.3,1.4,1.7,2.2c0.4,1,0.3,2,0.4,3c0.2,1.3,0.8,2.5,0.4,3.9
		c-0.6,1.7-2.4,2.3-3.4,3.7c-1.1,1.5-1.5,3.3-1.2,5.1c0.3,1.8,1.3,3.4,2.8,4.4c0,0,0.1,0,0.1,0.1c-0.6,0.4-1.1,1-1.6,1.6
		c-1.3,1.8-1.6,4.1-0.9,6c-1.3-0.5-2.9,0-3.7,1.2c-1.1,1.5-0.7,3.6,0.8,4.6c1.5,1.1,3.6,0.7,4.6-0.8c0.4-0.5,0.6-1.2,0.6-1.8
		c0.1,0.1,0.2,0.2,0.3,0.2c1.8,1.3,4,1.3,5.7,2.7c1.5,1.2,2.4,3.1,4,4.1c3.1,2.2,7.3,1.5,9.5-1.6c2.2-3.1,1.5-7.3-1.6-9.5
		c-1.5-1.1-3.5-1.5-5.2-2.3c-0.1-0.1-0.3-0.1-0.4-0.2c-1.8-1.2-2.3-3.1-4-4.3c0,0-0.1,0-0.1-0.1c0.6-0.4,1.1-1,1.6-1.6
		c1-1.3,1.3-2.9,1.4-4.5c0.1-1-0.3-2.2,0.2-3.2c1.4-2.8,4.1-1.9,6.4-1c2.7,1,5.9,0.5,8-1.6c1.1-1.1,1.7-2.6,2-4.2
		c0.3-1.5-0.4-2.9-0.2-4.4C215.3,96.4,216.6,95.3,217.1,93.7z"/>
	<path fill="none" stroke="#3F9166" stroke-width="1.489" stroke-linejoin="round" stroke-miterlimit="10" d="M217.1,93.7
		c1.1-3.6-1.3-7.2-5-7.8c-2.6-0.4-3.2-2.2-4.2-4.4c-0.4-0.8-0.6-1.5-0.6-2.4c0.1-1.6,1.3-2.8,1.6-4.3c0.3-1.8-0.1-3.6-1.2-5.1
		c-1.6-2.3-3.8-2.8-6.3-2.6c-2.2,0.2-2.8-1.3-4-3c-1.3-1.8-3.4-3-5.6-3c-1.4,0-2.8,0.4-4,1.3c-1.1,0.8-1.6,2.1-2.5,3
		c-0.9,1-2.5,1.5-3.8,1.6c-1.5,0.1-2.7,0.1-4,1c-1.9,1.4-3,3.7-2.8,6c0.1,1.3,0.6,2,1.1,3.1c0.5,1.2,0.4,2.8,0.1,4.1
		c-0.3,1.3-1.3,2.5-1.3,3.8c0,1.2,0.3,2.8,0.9,3.8c0.8,1.4,2,2.5,3.5,3.1c1.8,0.7,3.4-0.6,5.2,0.6c1.3,0.9,2,2.4,2.9,3.6
		c0.6,0.7,1.3,1.4,1.7,2.2c0.4,1,0.3,2,0.4,3c0.2,1.3,0.8,2.5,0.4,3.9c-0.6,1.7-2.4,2.3-3.4,3.7c-1.1,1.5-1.5,3.3-1.2,5.1
		c0.3,1.8,1.3,3.4,2.8,4.4c0,0,0.1,0,0.1,0.1c-0.6,0.4-1.1,1-1.6,1.6c-1.3,1.8-1.6,4.1-0.9,6c-1.3-0.5-2.9,0-3.7,1.2
		c-1.1,1.5-0.7,3.6,0.8,4.6c1.5,1.1,3.6,0.7,4.6-0.8c0.4-0.5,0.6-1.2,0.6-1.8c0.1,0.1,0.2,0.2,0.3,0.2c1.8,1.3,4,1.3,5.7,2.7
		c1.5,1.2,2.4,3.1,4,4.1c3.1,2.2,7.3,1.5,9.5-1.6c2.2-3.1,1.5-7.3-1.6-9.5c-1.5-1.1-3.5-1.5-5.2-2.3c-0.1-0.1-0.3-0.1-0.4-0.2
		c-1.8-1.2-2.3-3.1-4-4.3c0,0-0.1,0-0.1-0.1c0.6-0.4,1.1-1,1.6-1.6c1-1.3,1.3-2.9,1.4-4.5c0.1-1-0.3-2.2,0.2-3.2
		c1.4-2.8,4.1-1.9,6.4-1c2.7,1,5.9,0.5,8-1.6c1.1-1.1,1.7-2.6,2-4.2c0.3-1.5-0.4-2.9-0.2-4.4C215.3,96.4,216.6,95.3,217.1,93.7z"/>
</g>
<g opacity="0.3" filter="url(#ds1)">
	<circle fill="#8CD0C6" cx="49.1" cy="333.1" r="3"/>
	
		<circle fill="none" stroke="#00B8B5" stroke-width="1.489" stroke-linejoin="round" stroke-miterlimit="10" cx="49.1" cy="333.1" r="3"/>
</g>
<g opacity="0.3" filter="url(#ds1)">
	<circle fill="#8CD0C6" cx="51" cy="356.3" r="3"/>
	
		<circle fill="none" stroke="#00B8B5" stroke-width="1.489" stroke-linejoin="round" stroke-miterlimit="10" cx="51" cy="356.3" r="3"/>
</g>
<g opacity="0.3" filter="url(#ds1)">
	<circle fill="#8CD0C6" cx="52.2" cy="341.7" r="3"/>
	
		<circle fill="none" stroke="#00B8B5" stroke-width="1.489" stroke-linejoin="round" stroke-miterlimit="10" cx="52.2" cy="341.7" r="3"/>
</g>
<g opacity="0.3" filter="url(#ds1)">
	<circle fill="#8CD0C6" cx="46.1" cy="347.8" r="3"/>
	
		<circle fill="none" stroke="#00B8B5" stroke-width="1.489" stroke-linejoin="round" stroke-miterlimit="10" cx="46.1" cy="347.8" r="3"/>
</g>
<g opacity="0.3" filter="url(#ds1)">
	<circle fill="#8CD0C6" cx="69.3" cy="342.1" r="3"/>
	
		<circle fill="none" stroke="#00B8B5" stroke-width="1.489" stroke-linejoin="round" stroke-miterlimit="10" cx="69.3" cy="342.1" r="3"/>
</g>
<g opacity="0.3" filter="url(#ds1)">
	<circle fill="#8CD0C6" cx="73.2" cy="366" r="3"/>
	
		<circle fill="none" stroke="#00B8B5" stroke-width="1.489" stroke-linejoin="round" stroke-miterlimit="10" cx="73.2" cy="366" r="3"/>
</g>
<g opacity="0.3" filter="url(#ds1)">
	<circle fill="#8CD0C6" cx="75.9" cy="350.2" r="3"/>
	
		<circle fill="none" stroke="#00B8B5" stroke-width="1.489" stroke-linejoin="round" stroke-miterlimit="10" cx="75.9" cy="350.2" r="3"/>
</g>
<g opacity="0.3" filter="url(#ds1)">
	<circle fill="#8CD0C6" cx="63.9" cy="356.3" r="3"/>
	
		<circle fill="none" stroke="#00B8B5" stroke-width="1.489" stroke-linejoin="round" stroke-miterlimit="10" cx="63.9" cy="356.3" r="3"/>
</g>
<g>
	<path fill="#6D6E70" d="M229.4,572.1l-89.6,22.4c-9.9,2.5-19.6-5-19.6-15.3v-56h116.2v39.9C236.4,567.4,233.5,571.1,229.4,572.1z"
		/>
	<g>
		<g>
			<path fill="#E8E8E8" d="M134.1,542.6h0.8l2.6-7.3h1.8l2.6,7.3h0.8v1.2h-3.2v-1.2h0.8l-0.5-1.6h-2.7l-0.5,1.6h0.8v1.2h-3.2V542.6z
				 M139.3,539.8l-0.8-2.4l-0.1-0.5c0-0.1,0-0.2,0-0.2h0l0,0.2c0,0.1-0.1,0.3-0.1,0.5l-0.8,2.4H139.3z"/>
			<path fill="#E8E8E8" d="M143.1,542.6h1l0.5-6.2h-1v-1.2h2.8l1.9,4.8c0.1,0.2,0.1,0.4,0.2,0.5l0,0.2h0l0-0.2
				c0-0.1,0.1-0.3,0.2-0.5l1.9-4.8h2.8v1.2h-1l0.5,6.2h1v1.2h-3.5v-1.2h0.9l-0.3-4.3c0-0.2,0-0.3,0-0.5l0-0.3h0c0,0.1,0,0.2-0.1,0.3
				c0,0.2-0.1,0.3-0.1,0.5l-1.6,3.9h-1.3l-1.6-3.9c0-0.1-0.1-0.3-0.1-0.5c0-0.1,0-0.2-0.1-0.3h0l0,0.3c0,0.2,0,0.3,0,0.5l-0.3,4.3h1
				v1.2h-3.5V542.6z"/>
			<path fill="#E8E8E8" d="M154.9,542.6h1v-6.2h-1v-1.2h3.6v1.2h-1v6.2h1v1.2h-3.6V542.6z"/>
			<path fill="#E8E8E8" d="M159.7,542.6h1v-6.2h-1v-1.2h2.6l3.6,5.5c0.1,0.1,0.2,0.3,0.2,0.5l0.1,0.3h0l0-0.3c0-0.2,0-0.4,0-0.5
				v-4.2h-1.1v-1.2h3.6v1.2h-1v7.3h-1.6l-3.6-5.5c-0.1-0.1-0.2-0.3-0.2-0.5l-0.1-0.3h0l0,0.3c0,0.2,0,0.4,0,0.5v4.2h1.1v1.2h-3.6
				V542.6z"/>
			<path fill="#E8E8E8" d="M174.2,535.1c2.5,0,4.4,1.9,4.4,4.3c0,2.5-1.9,4.5-4.4,4.5c-2.5,0-4.4-2-4.4-4.5
				C169.8,537,171.7,535.1,174.2,535.1z M174.2,542.5c1.5,0,2.8-1.3,2.8-3.1c0-1.7-1.3-3-2.8-3s-2.8,1.3-2.8,3
				C171.4,541.2,172.7,542.5,174.2,542.5z"/>
			<path fill="#E8E8E8" d="M182.3,542.6h0.8l2.6-7.3h1.8l2.6,7.3h0.8v1.2h-3.2v-1.2h0.8l-0.5-1.6h-2.7l-0.5,1.6h0.8v1.2h-3.2V542.6z
				 M187.5,539.8l-0.8-2.4l-0.1-0.5c0-0.1,0-0.2,0-0.2h0l0,0.2c0,0.1-0.1,0.3-0.1,0.5l-0.8,2.4H187.5z"/>
			<path fill="#E8E8E8" d="M195.6,535.1c1,0,3.3,0.4,3.3,1.7v1.2h-1.4v-0.7c0-0.6-1.1-0.9-1.8-0.9c-1.6,0-2.8,1.2-2.8,3
				c0,1.9,1.2,3.2,2.9,3.2c0.5,0,1.8-0.2,1.8-0.8v-0.7h1.4v1.2c0,1.3-2.2,1.7-3.4,1.7c-2.6,0-4.4-1.9-4.4-4.4
				C191.2,537,193.2,535.1,195.6,535.1z"/>
			<path fill="#E8E8E8" d="M200.3,542.6h1v-6.2h-1v-1.2h3.6v1.2h-1v6.2h1v1.2h-3.6V542.6z"/>
			<path fill="#E8E8E8" d="M205.1,542.6h1v-6.2h-1v-1.2h3.7c0.7,0,1.2,0,1.8,0.2c1.7,0.5,2.8,2,2.8,4.1c0,2-1,3.5-2.6,4
				c-0.6,0.2-1.2,0.3-1.9,0.3h-3.7V542.6z M208.7,542.5c0.5,0,1,0,1.4-0.2c1-0.4,1.6-1.4,1.6-2.8c0-1.5-0.6-2.4-1.6-2.8
				c-0.4-0.2-0.8-0.2-1.3-0.2h-1v6H208.7z"/>
			<path fill="#E8E8E8" d="M134.5,557h1v-6.2h-1v-1.2h4.1c0.5,0,1,0,1.4,0.2c0.9,0.4,1.5,1.3,1.5,2.5c0,1.2-0.6,2.2-1.6,2.6
				c-0.4,0.1-0.8,0.2-1.3,0.2h-1.5v1.8h1v1.2h-3.6V557z M138.4,553.9c0.3,0,0.6-0.1,0.9-0.2c0.5-0.2,0.7-0.7,0.7-1.3
				c0-0.6-0.2-1-0.6-1.3c-0.2-0.1-0.5-0.2-0.9-0.2h-1.3v3H138.4z"/>
			<path fill="#E8E8E8" d="M142.5,557h1v-6.2h-1v-1.2h3.8c0.6,0,1.1,0,1.6,0.2c1,0.3,1.6,1.1,1.6,2.3s-0.6,2-1.6,2.4v0l0.1,0.1
				c0.1,0.1,0.2,0.2,0.3,0.3l1,1.8c0.1,0.2,0.3,0.3,0.6,0.3h0.3v1.2h-1c-0.7,0-0.9-0.1-1.2-0.6l-1.2-2.2c-0.2-0.3-0.3-0.4-0.8-0.4
				h-0.8v2.1h1v1.2h-3.6V557z M146.5,553.7c0.8,0,1.4-0.5,1.4-1.4c0-0.6-0.2-1-0.7-1.2c-0.2-0.1-0.6-0.2-1-0.2h-1.2v2.7H146.5z"/>
			<path fill="#E8E8E8" d="M155.4,549.5c2.5,0,4.4,1.9,4.4,4.3c0,2.5-1.9,4.5-4.4,4.5c-2.5,0-4.4-2-4.4-4.5
				C151,551.4,152.9,549.5,155.4,549.5z M155.4,556.9c1.5,0,2.8-1.3,2.8-3.1c0-1.7-1.3-3-2.8-3s-2.8,1.3-2.8,3
				C152.6,555.6,153.8,556.9,155.4,556.9z"/>
			<path fill="#E8E8E8" d="M165.2,549.5c1,0,3.3,0.4,3.3,1.7v1.2h-1.4v-0.7c0-0.6-1.1-0.9-1.8-0.9c-1.6,0-2.8,1.2-2.8,3
				c0,1.9,1.2,3.2,2.9,3.2c0.5,0,1.8-0.2,1.8-0.8v-0.7h1.4v1.2c0,1.3-2.2,1.7-3.4,1.7c-2.6,0-4.4-1.9-4.4-4.4
				C160.8,551.4,162.7,549.5,165.2,549.5z"/>
			<path fill="#E8E8E8" d="M169.8,557h1v-6.2h-1v-1.2h6.3v2.2h-1.3v-0.9h-2.4v2.3h2.8v1.3h-2.8v2.4h2.6v-1h1.3v2.2h-6.5V557z"/>
			<path fill="#E8E8E8" d="M178.9,555.4v0.6c0,0.5,0.7,0.9,1.5,0.9c0.9,0,1.5-0.4,1.5-1.1c0-0.9-1-1.1-2-1.5
				c-1.1-0.4-2.3-0.9-2.3-2.5c0-1.7,1.4-2.4,2.9-2.4c1.3,0,2.7,0.5,2.7,1.5v1.1h-1.4v-0.6c0-0.4-0.6-0.7-1.3-0.7
				c-0.7,0-1.3,0.3-1.3,0.9c0,0.8,0.8,1,1.7,1.4c1.3,0.4,2.5,1,2.5,2.6c0,1.7-1.5,2.5-3.1,2.5c-1.4,0-2.9-0.6-2.9-1.9v-1H178.9z"/>
			<path fill="#E8E8E8" d="M186.1,555.4v0.6c0,0.5,0.7,0.9,1.5,0.9c0.9,0,1.5-0.4,1.5-1.1c0-0.9-1-1.1-2-1.5
				c-1.1-0.4-2.3-0.9-2.3-2.5c0-1.7,1.4-2.4,2.9-2.4c1.3,0,2.7,0.5,2.7,1.5v1.1H189v-0.6c0-0.4-0.6-0.7-1.3-0.7
				c-0.7,0-1.3,0.3-1.3,0.9c0,0.8,0.8,1,1.7,1.4c1.3,0.4,2.5,1,2.5,2.6c0,1.7-1.5,2.5-3.1,2.5c-1.4,0-2.9-0.6-2.9-1.9v-1H186.1z"/>
			<path fill="#E8E8E8" d="M191.8,557h1v-6.2h-1v-1.2h3.6v1.2h-1v6.2h1v1.2h-3.6V557z"/>
			<path fill="#E8E8E8" d="M196.6,557h1v-6.2h-1v-1.2h2.6l3.6,5.5c0.1,0.1,0.2,0.3,0.2,0.5l0.1,0.3h0l0-0.3c0-0.2,0-0.4,0-0.5v-4.2
				h-1.1v-1.2h3.6v1.2h-1v7.3h-1.6l-3.6-5.5c-0.1-0.1-0.2-0.3-0.2-0.5l-0.1-0.3h0l0,0.3c0,0.2,0,0.4,0,0.5v4.2h1.1v1.2h-3.6V557z"/>
			<path fill="#E8E8E8" d="M211.2,549.5c1.5,0,3.3,0.6,3.3,1.7v1.2h-1.4v-0.6c0-0.6-0.9-0.9-1.8-0.9c-1.8,0-2.9,1.2-2.9,3
				c0,1.8,1.1,3.2,3,3.2c0.7,0,2-0.2,2-0.9v-0.9h-1.5V554h3v2.6c0,1.3-2.3,1.8-3.5,1.8c-2.6,0-4.5-1.9-4.5-4.4
				C206.7,551.3,208.6,549.5,211.2,549.5z"/>
			<path fill="#E8E8E8" d="M134.5,571.4h1v-6.2h-1v-1.2h6.3v2.2h-1.3v-0.9h-2.4v2.3h2.8v1.3h-2.8v2.4h2.6v-1h1.3v2.2h-6.5V571.4z"/>
			<path fill="#E8E8E8" d="M142.2,571.4h1v-6.2h-1v-1.2h2.6l3.6,5.5c0.1,0.1,0.2,0.3,0.2,0.5l0.1,0.3h0l0-0.3c0-0.2,0-0.4,0-0.5
				v-4.2h-1.1v-1.2h3.6v1.2h-1v7.3h-1.6l-3.6-5.5c-0.1-0.1-0.2-0.3-0.2-0.5l-0.1-0.3h0l0,0.3c0,0.2,0,0.4,0,0.5v4.2h1.1v1.2h-3.6
				V571.4z"/>
			<path fill="#E8E8E8" d="M152.4,571.6l4.1-5.9c0.1-0.1,0.2-0.2,0.2-0.3l0.1-0.1v0c0,0-0.1,0-0.2,0c-0.1,0-0.2,0-0.3,0h-2.6v1.3
				h-1.3v-2.5h6.3v1l-4.1,5.9c-0.1,0.1-0.2,0.2-0.2,0.3l-0.1,0.1v0l0.2,0c0.1,0,0.2,0,0.3,0h2.7V570h1.3v2.6h-6.5V571.6z"/>
			<path fill="#E8E8E8" d="M161.6,571.4h1V569l-2.3-3.8h-0.8v-1.2h3.2v1.2h-0.8l1.3,2.2c0.1,0.1,0.1,0.2,0.1,0.3c0,0,0,0.1,0,0.1h0
				c0,0,0-0.1,0-0.1c0-0.1,0.1-0.2,0.1-0.3l1.3-2.2h-0.8v-1.2h3.1v1.2h-0.8l-2.3,3.8v2.4h1v1.2h-3.6V571.4z"/>
			<path fill="#E8E8E8" d="M167.8,571.4h1l0.5-6.2h-1v-1.2h2.8l1.9,4.8c0.1,0.2,0.1,0.4,0.2,0.5l0,0.2h0l0-0.2
				c0-0.1,0.1-0.3,0.2-0.5l1.9-4.8h2.8v1.2h-1l0.5,6.2h1v1.2H175v-1.2h0.9l-0.3-4.3c0-0.2,0-0.3,0-0.5l0-0.3h0c0,0.1,0,0.2-0.1,0.3
				c0,0.2-0.1,0.3-0.1,0.5l-1.6,3.9h-1.3l-1.6-3.9c0-0.1-0.1-0.3-0.1-0.5c0-0.1,0-0.2-0.1-0.3h0l0,0.3c0,0.2,0,0.3,0,0.5l-0.3,4.3h1
				v1.2h-3.5V571.4z"/>
			<path fill="#E8E8E8" d="M179.5,571.4h1v-6.2h-1v-1.2h6.3v2.2h-1.3v-0.9h-2.4v2.3h2.8v1.3h-2.8v2.4h2.6v-1h1.3v2.2h-6.5V571.4z"/>
			<path fill="#E8E8E8" d="M188.6,569.8v0.6c0,0.5,0.7,0.9,1.5,0.9c0.9,0,1.5-0.4,1.5-1.1c0-0.9-1-1.1-2-1.5
				c-1.1-0.4-2.3-0.9-2.3-2.5c0-1.7,1.4-2.4,2.9-2.4c1.3,0,2.7,0.5,2.7,1.5v1.1h-1.4V566c0-0.4-0.6-0.7-1.3-0.7
				c-0.7,0-1.3,0.3-1.3,0.9c0,0.8,0.8,1,1.7,1.4c1.3,0.4,2.5,1,2.5,2.6c0,1.7-1.5,2.5-3.1,2.5c-1.4,0-2.9-0.6-2.9-1.9v-1H188.6z"/>
		</g>
	</g>
</g>
<g opacity="0.25" filter="url(#ds1)">
	<path fill="#6AE6A7" d="M82.1,99.4c-1.5-1.1-3.5-1.5-5.2-2.3c-0.1-0.1-0.3-0.1-0.4-0.2c-1.8-1.2-2.3-3.1-4-4.3c0,0-0.1,0-0.1-0.1
		c0.6-0.4,1.1-1,1.6-1.6c1.1-1.5,1.5-3.3,1.2-5.1c-0.3-1.8-1.3-3.4-2.8-4.4c-1.2-0.8-2.5-1.3-4-1.3c-2.2,0-4.3,1.1-5.6,2.9
		c-1.1,1.5-1.5,3.3-1.2,5.1c0.3,1.8,1.3,3.4,2.8,4.4c0,0,0.1,0,0.1,0.1c-0.6,0.4-1.1,1-1.6,1.6c-1.3,1.8-1.6,4.1-0.9,6
		c-1.3-0.5-2.9,0-3.7,1.2c-1.1,1.5-0.7,3.6,0.8,4.6c1.5,1.1,3.6,0.7,4.6-0.8c0.4-0.5,0.6-1.2,0.6-1.8c0.1,0.1,0.2,0.2,0.3,0.2
		c1.8,1.3,4,1.3,5.7,2.7c1.5,1.2,2.4,3.1,4,4.1c3.1,2.2,7.3,1.5,9.5-1.6C85.9,105.8,85.2,101.5,82.1,99.4z"/>
	<path fill="none" stroke="#3F9166" stroke-width="1.489" stroke-linejoin="round" stroke-miterlimit="10" d="M82.1,99.4
		c-1.5-1.1-3.5-1.5-5.2-2.3c-0.1-0.1-0.3-0.1-0.4-0.2c-1.8-1.2-2.3-3.1-4-4.3c0,0-0.1,0-0.1-0.1c0.6-0.4,1.1-1,1.6-1.6
		c1.1-1.5,1.5-3.3,1.2-5.1c-0.3-1.8-1.3-3.4-2.8-4.4c-1.2-0.8-2.5-1.3-4-1.3c-2.2,0-4.3,1.1-5.6,2.9c-1.1,1.5-1.5,3.3-1.2,5.1
		c0.3,1.8,1.3,3.4,2.8,4.4c0,0,0.1,0,0.1,0.1c-0.6,0.4-1.1,1-1.6,1.6c-1.3,1.8-1.6,4.1-0.9,6c-1.3-0.5-2.9,0-3.7,1.2
		c-1.1,1.5-0.7,3.6,0.8,4.6c1.5,1.1,3.6,0.7,4.6-0.8c0.4-0.5,0.6-1.2,0.6-1.8c0.1,0.1,0.2,0.2,0.3,0.2c1.8,1.3,4,1.3,5.7,2.7
		c1.5,1.2,2.4,3.1,4,4.1c3.1,2.2,7.3,1.5,9.5-1.6C85.9,105.8,85.2,101.5,82.1,99.4z"/>
</g>
<g opacity="0.25" filter="url(#ds1)">
	<path fill="#6AE6A7" d="M267.5,144.2c1-1.5,3.1-1.5,4.7-1.6c2-0.2,3.4-1.2,4.3-2.6c0.7-1.1,1.1-2.4,1.1-3.9c0,0,0-0.1,0-0.1
		c0,0,0-0.1,0-0.1c0-1.3-0.4-2.6-1.2-3.7c-0.3-0.6-0.5-1.2-0.6-1.9c0,0,0,0,0,0c-0.2-1.8,1.4-3.2,1.7-4.9c0.3-1.8-0.1-3.6-1.2-5.1
		c-1.6-2.3-3.8-2.8-6.3-2.6c-2.2,0.2-2.8-1.3-4-3c-1.3-1.8-3.4-3-5.6-3c-1.4,0-2.8,0.4-4,1.3c-1.1,0.8-1.6,2.1-2.5,3
		c-0.9,1-2.5,1.5-3.8,1.6c-1.5,0.1-2.7,0.1-4,1c-1.9,1.4-3,3.7-2.8,6c0.1,1.3,0.6,2,1.1,3.1c0.5,1.2,0.4,2.8,0.1,4.1
		c-0.3,1.3-1.3,2.5-1.3,3.8c0,1.2,0.3,2.8,0.9,3.8c0.8,1.4,2,2.5,3.5,3.1c0.7,0.3,1.6,0.6,2.4,0.7c0.8,0.1,1.6-0.3,2.3,0.1
		c0.6,0.4,0.8,1.2,1.2,1.8c0.9,1.5,1.8,2.2,1.3,4c-0.4,1.8-1.2,3.5-1,5.4c0.2,1.7,1.2,3.3,2.7,4.3c0,0,0.1,0,0.1,0.1
		c-0.6,0.4-1.1,1-1.6,1.6c-1.3,1.8-1.6,4.1-0.9,6c-1.3-0.5-2.9,0-3.7,1.2c-1.1,1.5-0.7,3.6,0.8,4.6c1.5,1.1,3.6,0.7,4.6-0.8
		c0.4-0.5,0.6-1.2,0.6-1.8c0.1,0.1,0.2,0.2,0.3,0.2c1.8,1.3,4,1.3,5.7,2.7c1.5,1.2,2.4,3.1,4,4.1c3.1,2.2,7.3,1.5,9.5-1.6
		c2.2-3.1,1.5-7.3-1.6-9.5c-1.5-1.1-3.5-1.5-5.2-2.3c-0.1-0.1-0.3-0.1-0.4-0.2c-1.8-1.2-2.3-3.1-4-4.3c0,0-0.1-0.1-0.1-0.1
		c0.6-0.5,1.2-1,1.7-1.7c1.1-1.6,1.5-3.8,1.1-5.7c-0.5-2.3-2.4-2.9-0.7-5.2C267,145.7,267,144.8,267.5,144.2z"/>
	<path fill="none" stroke="#3F9166" stroke-width="1.489" stroke-linejoin="round" stroke-miterlimit="10" d="M267.5,144.2
		c1-1.5,3.1-1.5,4.7-1.6c2-0.2,3.4-1.2,4.3-2.6c0.7-1.1,1.1-2.4,1.1-3.9c0,0,0-0.1,0-0.1c0,0,0-0.1,0-0.1c0-1.3-0.4-2.6-1.2-3.7
		c-0.3-0.6-0.5-1.2-0.6-1.9c0,0,0,0,0,0c-0.2-1.8,1.4-3.2,1.7-4.9c0.3-1.8-0.1-3.6-1.2-5.1c-1.6-2.3-3.8-2.8-6.3-2.6
		c-2.2,0.2-2.8-1.3-4-3c-1.3-1.8-3.4-3-5.6-3c-1.4,0-2.8,0.4-4,1.3c-1.1,0.8-1.6,2.1-2.5,3c-0.9,1-2.5,1.5-3.8,1.6
		c-1.5,0.1-2.7,0.1-4,1c-1.9,1.4-3,3.7-2.8,6c0.1,1.3,0.6,2,1.1,3.1c0.5,1.2,0.4,2.8,0.1,4.1c-0.3,1.3-1.3,2.5-1.3,3.8
		c0,1.2,0.3,2.8,0.9,3.8c0.8,1.4,2,2.5,3.5,3.1c0.7,0.3,1.6,0.6,2.4,0.7c0.8,0.1,1.6-0.3,2.3,0.1c0.6,0.4,0.8,1.2,1.2,1.8
		c0.9,1.5,1.8,2.2,1.3,4c-0.4,1.8-1.2,3.5-1,5.4c0.2,1.7,1.2,3.3,2.7,4.3c0,0,0.1,0,0.1,0.1c-0.6,0.4-1.1,1-1.6,1.6
		c-1.3,1.8-1.6,4.1-0.9,6c-1.3-0.5-2.9,0-3.7,1.2c-1.1,1.5-0.7,3.6,0.8,4.6c1.5,1.1,3.6,0.7,4.6-0.8c0.4-0.5,0.6-1.2,0.6-1.8
		c0.1,0.1,0.2,0.2,0.3,0.2c1.8,1.3,4,1.3,5.7,2.7c1.5,1.2,2.4,3.1,4,4.1c3.1,2.2,7.3,1.5,9.5-1.6c2.2-3.1,1.5-7.3-1.6-9.5
		c-1.5-1.1-3.5-1.5-5.2-2.3c-0.1-0.1-0.3-0.1-0.4-0.2c-1.8-1.2-2.3-3.1-4-4.3c0,0-0.1-0.1-0.1-0.1c0.6-0.5,1.2-1,1.7-1.7
		c1.1-1.6,1.5-3.8,1.1-5.7c-0.5-2.3-2.4-2.9-0.7-5.2C267,145.7,267,144.8,267.5,144.2z"/>
</g>
<g opacity="0.25" filter="url(#ds1)">
	<path fill="#6AE6A7" d="M112.7,215.9c1.1-0.3,2.3,0.1,3.4-0.1c1.5-0.2,2.9-1,3.9-2.2c1.4-1.7,2-4.1,1.4-6.3
		c-0.3-1.1-1.1-1.8-1.5-2.9c-0.2-0.4-0.2-0.8-0.2-1.2c0.1-1.7,1.6-3.2,1.9-4.8c0.3-1.8-0.1-3.6-1.2-5.1c-1.3-1.8-3.4-2.9-5.6-2.9
		c-1.4,0-2.8,0.4-4,1.3c-1.5,1.1-2.5,2.6-2.8,4.4c-0.4,2.5,0.9,3.9,1.7,6c0.7,1.8-0.5,3.6-1.7,4.8c-0.8,0.8-1.9,1-2.9,1.1
		c-2,0.1-4.2,0.4-5.7,1.9c-1.3,1.3-1.9,3.1-1.9,4.9c0,1.5,0.5,3,1.3,4.6c0.9,1.6-0.4,3.5-0.8,5.1c-0.6,2.2-0.5,4.3,0.8,6.1
		c0.5,0.7,1,1.2,1.7,1.7c-0.6,0.4-1.2,1-1.7,1.7c-1.3,1.8-1.6,4.1-0.9,6c-1.3-0.5-2.9,0-3.7,1.2c-1.1,1.5-0.7,3.6,0.8,4.6
		c1.5,1.1,3.6,0.7,4.6-0.8c0.4-0.5,0.6-1.2,0.6-1.8c0.1,0.1,0.2,0.2,0.3,0.2c1.8,1.3,4,1.3,5.7,2.7c1.5,1.2,2.4,3.1,4,4.1
		c3.1,2.2,7.3,1.5,9.5-1.6c2.2-3.1,1.5-7.3-1.6-9.5c-1.5-1.1-3.5-1.5-5.2-2.3c-0.1-0.1-0.3-0.1-0.4-0.2c-1.8-1.2-2.3-3.1-4-4.3
		c0,0,0,0,0,0c0,0,0.1,0,0.1-0.1c1.8-1.3,2.6-3.4,2.8-5.5c0.2-2.9-2.4-5.1-0.9-8C110.8,217.6,111.3,216.2,112.7,215.9z"/>
	<path fill="none" stroke="#3F9166" stroke-width="1.489" stroke-linejoin="round" stroke-miterlimit="10" d="M112.7,215.9
		c1.1-0.3,2.3,0.1,3.4-0.1c1.5-0.2,2.9-1,3.9-2.2c1.4-1.7,2-4.1,1.4-6.3c-0.3-1.1-1.1-1.8-1.5-2.9c-0.2-0.4-0.2-0.8-0.2-1.2
		c0.1-1.7,1.6-3.2,1.9-4.8c0.3-1.8-0.1-3.6-1.2-5.1c-1.3-1.8-3.4-2.9-5.6-2.9c-1.4,0-2.8,0.4-4,1.3c-1.5,1.1-2.5,2.6-2.8,4.4
		c-0.4,2.5,0.9,3.9,1.7,6c0.7,1.8-0.5,3.6-1.7,4.8c-0.8,0.8-1.9,1-2.9,1.1c-2,0.1-4.2,0.4-5.7,1.9c-1.3,1.3-1.9,3.1-1.9,4.9
		c0,1.5,0.5,3,1.3,4.6c0.9,1.6-0.4,3.5-0.8,5.1c-0.6,2.2-0.5,4.3,0.8,6.1c0.5,0.7,1,1.2,1.7,1.7c-0.6,0.4-1.2,1-1.7,1.7
		c-1.3,1.8-1.6,4.1-0.9,6c-1.3-0.5-2.9,0-3.7,1.2c-1.1,1.5-0.7,3.6,0.8,4.6c1.5,1.1,3.6,0.7,4.6-0.8c0.4-0.5,0.6-1.2,0.6-1.8
		c0.1,0.1,0.2,0.2,0.3,0.2c1.8,1.3,4,1.3,5.7,2.7c1.5,1.2,2.4,3.1,4,4.1c3.1,2.2,7.3,1.5,9.5-1.6c2.2-3.1,1.5-7.3-1.6-9.5
		c-1.5-1.1-3.5-1.5-5.2-2.3c-0.1-0.1-0.3-0.1-0.4-0.2c-1.8-1.2-2.3-3.1-4-4.3c0,0,0,0,0,0c0,0,0.1,0,0.1-0.1
		c1.8-1.3,2.6-3.4,2.8-5.5c0.2-2.9-2.4-5.1-0.9-8C110.8,217.6,111.3,216.2,112.7,215.9z"/>
</g>
<g opacity="0.25" filter="url(#ds1)">
	<path fill="#6AE6A7" d="M117.7,140.6c1-1.5,3.1-1.5,4.7-1.6c2-0.2,3.4-1.2,4.3-2.6c0.7-1.1,1.1-2.4,1.1-3.9c0,0,0-0.1,0-0.1
		c0,0,0-0.1,0-0.1c0-1.3-0.4-2.6-1.2-3.7c-0.3-0.6-0.5-1.2-0.6-1.9c0,0,0,0,0,0c-0.2-1.8,1.4-3.2,1.7-4.9c0.3-1.8-0.1-3.6-1.2-5.1
		c-1.6-2.3-3.8-2.8-6.3-2.6c-2.2,0.2-2.8-1.3-4-3c-1.3-1.8-3.4-3-5.6-3c-1.4,0-2.8,0.4-4,1.3c-1.1,0.8-1.6,2.1-2.5,3
		c-0.9,1-2.5,1.5-3.8,1.6c-1.5,0.1-2.7,0.1-4,1c-1.9,1.4-3,3.7-2.8,6c0.1,1.3,0.6,2,1.1,3.1c0.5,1.2,0.4,2.8,0.1,4.1
		c-0.3,1.3-1.3,2.5-1.3,3.8c0,1.2,0.3,2.8,0.9,3.8c0.8,1.4,2,2.5,3.5,3.1c0.7,0.3,1.6,0.6,2.4,0.7c0.8,0.1,1.6-0.3,2.3,0.1
		c0.6,0.4,0.8,1.2,1.2,1.8c0.9,1.5,1.8,2.2,1.3,4c-0.4,1.8-1.2,3.5-1,5.4c0.2,1.7,1.2,3.3,2.7,4.3c0,0,0.1,0,0.1,0.1
		c-0.6,0.4-1.1,1-1.6,1.6c-1.3,1.8-1.6,4.1-0.9,6c-1.3-0.5-2.9,0-3.7,1.2c-1.1,1.5-0.7,3.6,0.8,4.6c1.5,1.1,3.6,0.7,4.6-0.8
		c0.4-0.5,0.6-1.2,0.6-1.8c0.1,0.1,0.2,0.2,0.3,0.2c1.8,1.3,4,1.3,5.7,2.7c1.5,1.2,2.4,3.1,4,4.1c3.1,2.2,7.3,1.5,9.5-1.6
		c2.2-3.1,1.5-7.3-1.6-9.5c-1.5-1.1-3.5-1.5-5.2-2.3c-0.1-0.1-0.3-0.1-0.4-0.2c-1.8-1.2-2.3-3.1-4-4.3c0,0-0.1-0.1-0.1-0.1
		c0.6-0.5,1.2-1,1.7-1.7c1.1-1.6,1.5-3.8,1.1-5.7c-0.5-2.3-2.4-2.9-0.7-5.2C117.2,142.1,117.3,141.3,117.7,140.6z"/>
	<path fill="none" stroke="#3F9166" stroke-width="1.489" stroke-linejoin="round" stroke-miterlimit="10" d="M117.7,140.6
		c1-1.5,3.1-1.5,4.7-1.6c2-0.2,3.4-1.2,4.3-2.6c0.7-1.1,1.1-2.4,1.1-3.9c0,0,0-0.1,0-0.1c0,0,0-0.1,0-0.1c0-1.3-0.4-2.6-1.2-3.7
		c-0.3-0.6-0.5-1.2-0.6-1.9c0,0,0,0,0,0c-0.2-1.8,1.4-3.2,1.7-4.9c0.3-1.8-0.1-3.6-1.2-5.1c-1.6-2.3-3.8-2.8-6.3-2.6
		c-2.2,0.2-2.8-1.3-4-3c-1.3-1.8-3.4-3-5.6-3c-1.4,0-2.8,0.4-4,1.3c-1.1,0.8-1.6,2.1-2.5,3c-0.9,1-2.5,1.5-3.8,1.6
		c-1.5,0.1-2.7,0.1-4,1c-1.9,1.4-3,3.7-2.8,6c0.1,1.3,0.6,2,1.1,3.1c0.5,1.2,0.4,2.8,0.1,4.1c-0.3,1.3-1.3,2.5-1.3,3.8
		c0,1.2,0.3,2.8,0.9,3.8c0.8,1.4,2,2.5,3.5,3.1c0.7,0.3,1.6,0.6,2.4,0.7c0.8,0.1,1.6-0.3,2.3,0.1c0.6,0.4,0.8,1.2,1.2,1.8
		c0.9,1.5,1.8,2.2,1.3,4c-0.4,1.8-1.2,3.5-1,5.4c0.2,1.7,1.2,3.3,2.7,4.3c0,0,0.1,0,0.1,0.1c-0.6,0.4-1.1,1-1.6,1.6
		c-1.3,1.8-1.6,4.1-0.9,6c-1.3-0.5-2.9,0-3.7,1.2c-1.1,1.5-0.7,3.6,0.8,4.6c1.5,1.1,3.6,0.7,4.6-0.8c0.4-0.5,0.6-1.2,0.6-1.8
		c0.1,0.1,0.2,0.2,0.3,0.2c1.8,1.3,4,1.3,5.7,2.7c1.5,1.2,2.4,3.1,4,4.1c3.1,2.2,7.3,1.5,9.5-1.6c2.2-3.1,1.5-7.3-1.6-9.5
		c-1.5-1.1-3.5-1.5-5.2-2.3c-0.1-0.1-0.3-0.1-0.4-0.2c-1.8-1.2-2.3-3.1-4-4.3c0,0-0.1-0.1-0.1-0.1c0.6-0.5,1.2-1,1.7-1.7
		c1.1-1.6,1.5-3.8,1.1-5.7c-0.5-2.3-2.4-2.9-0.7-5.2C117.2,142.1,117.3,141.3,117.7,140.6z"/>
</g>
<g opacity="0.25" filter="url(#ds1)">
	<path fill="#6AE6A7" d="M154.4,244c-1.5-1.1-3.5-1.5-5.2-2.3c-0.1-0.1-0.3-0.1-0.4-0.2c-1.8-1.2-2.3-3.1-4-4.3c0,0-0.1,0-0.1-0.1
		c0.6-0.4,1.1-1,1.6-1.6c1.1-1.5,1.5-3.3,1.2-5.1c-0.3-1.8-1.3-3.4-2.8-4.4c-1.2-0.8-2.5-1.3-4-1.3c-2.2,0-4.3,1.1-5.6,2.9
		c-1.1,1.5-1.5,3.3-1.2,5.1c0.3,1.8,1.3,3.4,2.8,4.4c0,0,0.1,0,0.1,0.1c-0.6,0.4-1.1,1-1.6,1.6c-1.3,1.8-1.6,4.1-0.9,6
		c-1.3-0.5-2.9,0-3.7,1.2c-1.1,1.5-0.7,3.6,0.8,4.6c1.5,1.1,3.6,0.7,4.6-0.8c0.4-0.5,0.6-1.2,0.6-1.8c0.1,0.1,0.2,0.2,0.3,0.2
		c1.8,1.3,4,1.3,5.7,2.7c1.5,1.2,2.4,3.1,4,4.1c3.1,2.2,7.3,1.5,9.5-1.6C158.1,250.4,157.4,246.2,154.4,244z"/>
	<path fill="none" stroke="#3F9166" stroke-width="1.489" stroke-linejoin="round" stroke-miterlimit="10" d="M154.4,244
		c-1.5-1.1-3.5-1.5-5.2-2.3c-0.1-0.1-0.3-0.1-0.4-0.2c-1.8-1.2-2.3-3.1-4-4.3c0,0-0.1,0-0.1-0.1c0.6-0.4,1.1-1,1.6-1.6
		c1.1-1.5,1.5-3.3,1.2-5.1c-0.3-1.8-1.3-3.4-2.8-4.4c-1.2-0.8-2.5-1.3-4-1.3c-2.2,0-4.3,1.1-5.6,2.9c-1.1,1.5-1.5,3.3-1.2,5.1
		c0.3,1.8,1.3,3.4,2.8,4.4c0,0,0.1,0,0.1,0.1c-0.6,0.4-1.1,1-1.6,1.6c-1.3,1.8-1.6,4.1-0.9,6c-1.3-0.5-2.9,0-3.7,1.2
		c-1.1,1.5-0.7,3.6,0.8,4.6c1.5,1.1,3.6,0.7,4.6-0.8c0.4-0.5,0.6-1.2,0.6-1.8c0.1,0.1,0.2,0.2,0.3,0.2c1.8,1.3,4,1.3,5.7,2.7
		c1.5,1.2,2.4,3.1,4,4.1c3.1,2.2,7.3,1.5,9.5-1.6C158.1,250.4,157.4,246.2,154.4,244z"/>
</g>
<g>
	<g filter="url(#ds1)">
		<rect x="110.5" y="155.8" fill="#FFFFFF" width="135.1" height="27.7"/>
	</g>
	<g>
		<g>
			<path fill="#6D6E70" d="M121.1,174.7h1.1l3.6-10.1h1.8l3.6,10.1h1.1v1.2h-3.9v-1.2h1.2l-0.9-2.5h-4l-0.9,2.5h1.2v1.2h-3.9V174.7z
				 M128.3,170.9l-1.4-3.9c-0.2-0.5-0.2-0.9-0.2-0.9h0c0,0,0,0.4-0.2,0.9l-1.4,3.9H128.3z"/>
			<path fill="#6D6E70" d="M133,174.7h1.4l0.7-8.8h-1.4v-1.2h3.2l2.9,6.9c0.2,0.5,0.3,0.8,0.3,0.8h0c0,0,0.1-0.4,0.3-0.8l2.9-6.9
				h3.2v1.2H145l0.7,8.8h1.4v1.2h-4.4v-1.2h1.4l-0.5-6.8c0-0.4,0-0.9,0-0.9h0c0,0-0.1,0.5-0.3,0.9l-2.6,5.9h-1.4l-2.6-5.9
				c-0.1-0.3-0.3-0.9-0.3-0.9h0c0,0,0.1,0.6,0,0.9l-0.5,6.8h1.4v1.2H133V174.7z"/>
			<path fill="#6D6E70" d="M148.6,174.7h1.4v-8.8h-1.4v-1.2h4.4v1.2h-1.4v8.8h1.4v1.2h-4.4V174.7z"/>
			<path fill="#6D6E70" d="M154.7,174.7h1.4v-8.8h-1.4v-1.2h3l5.6,8.1c0.2,0.3,0.4,0.8,0.4,0.8h0c0,0-0.1-0.6-0.1-0.9v-6.8h-1.4
				v-1.2h4.5v1.2h-1.4v10.1h-1.6l-5.6-8.1c-0.2-0.3-0.4-0.8-0.4-0.8h0c0,0,0.1,0.6,0.1,0.9v6.8h1.5v1.2h-4.5V174.7z"/>
			<path fill="#6D6E70" d="M173.8,164.4c3.3,0,5.8,2.5,5.8,5.8c0,3.3-2.5,5.9-5.8,5.9c-3.3,0-5.8-2.6-5.8-5.9
				C168,166.9,170.5,164.4,173.8,164.4z M173.8,174.7c2.3,0,4.1-2,4.1-4.5c0-2.5-1.9-4.4-4.1-4.4c-2.3,0-4.2,1.9-4.2,4.4
				C169.6,172.7,171.5,174.7,173.8,174.7z"/>
			<path fill="#6D6E70" d="M184.5,174.7h1.1l3.6-10.1h1.8l3.6,10.1h1.1v1.2h-3.9v-1.2h1.2l-0.9-2.5h-4l-0.9,2.5h1.2v1.2h-3.9V174.7z
				 M191.7,170.9l-1.4-3.9c-0.2-0.5-0.2-0.9-0.2-0.9h0c0,0,0,0.4-0.2,0.9l-1.4,3.9H191.7z"/>
			<path fill="#6D6E70" d="M202.2,164.4c1.4,0,4.3,0.5,4.3,2.2v1.4H205v-0.9c0-1-1.7-1.4-2.8-1.4c-2.4,0-4.2,1.8-4.2,4.3
				c0,2.7,1.8,4.6,4.3,4.6c0.8,0,2.8-0.3,2.8-1.3v-0.9h1.5v1.4c0,1.7-2.8,2.2-4.4,2.2c-3.4,0-5.8-2.6-5.8-5.9
				C196.4,166.9,198.9,164.4,202.2,164.4z"/>
			<path fill="#6D6E70" d="M208.4,174.7h1.4v-8.8h-1.4v-1.2h4.4v1.2h-1.4v8.8h1.4v1.2h-4.4V174.7z"/>
			<path fill="#6D6E70" d="M214.5,174.7h1.4v-8.8h-1.4v-1.2h4.8c0.9,0,1.6,0,2.4,0.3c2.2,0.7,3.6,2.6,3.6,5.4c0,2.7-1.4,4.6-3.6,5.3
				c-0.7,0.2-1.5,0.3-2.4,0.3h-4.8V174.7z M219.2,174.6c0.7,0,1.3-0.1,1.9-0.3c1.5-0.5,2.5-2,2.5-4c0-2.1-0.9-3.5-2.4-4.1
				c-0.6-0.2-1.2-0.3-1.9-0.3h-1.7v8.7H219.2z"/>
			<path fill="#6D6E70" d="M228.4,172.5v0.8c0,0.8,1.1,1.3,2.3,1.3c1.3,0,2.2-0.6,2.2-1.7c0-1.3-1.3-1.7-2.7-2.3
				c-1.5-0.6-3-1.2-3-3.2c0-2.1,1.7-3,3.6-3c1.7,0,3.4,0.6,3.4,1.9v1.3h-1.5v-0.8c0-0.7-1-1-1.9-1c-1.1,0-2,0.5-2,1.6
				c0,1.2,1.1,1.6,2.4,2.1c1.7,0.6,3.3,1.3,3.3,3.4c0,2.2-1.8,3.3-3.9,3.3c-1.8,0-3.7-0.8-3.7-2.4v-1.2H228.4z"/>
		</g>
	</g>
</g>
<g>
	<g opacity="0.5">
		<line fill="none" stroke="#000000" stroke-width="2" stroke-miterlimit="10" x1="172.6" y1="496.3" x2="172.6" y2="516.5"/>
		<polygon points="172.6,525 167.7,513.1 172.6,515.9 177.5,513.1 		"/>
	</g>
	<g>
		<g>
			<line fill="none" stroke="#FFFFFF" stroke-width="2" stroke-miterlimit="10" x1="171.6" y1="495.3" x2="171.6" y2="515.5"/>
			<g>
				<polygon fill="#FFFFFF" points="171.6,524 166.7,512.1 171.6,514.9 176.5,512.1 				"/>
			</g>
		</g>
	</g>
</g>
<g filter="url(#ds1)">
	<path fill="#6AE6A7" d="M191.9,427.4c1.6,1,3.6,1.3,5.3,2c0.1,0.1,0.3,0.1,0.4,0.2c1,0.5,1.6,1.3,2.2,2.1c0.1,0.3,0.2,0.7,0.3,1
		c0.7,2.7-1.2,5.2-0.8,7.9c0.5,2.7,2.4,5,5.1,5.6c1,0.2,2.6,0.2,3.5,0c0.9-0.2,1.7-0.6,2.5-0.9c0.8-0.2,1.6-0.3,2.4-0.2
		c0.7,0.1,1.1,0.5,1.7,0.8c0.7,0.3,1.4,0.4,2.2,0.5c1.6,0.3,3.2,0.2,4.6-0.4c3.2-1.4,3.9-4.7,3.8-7.9c-0.1-1.9,0.3-3.2,1.2-4.8
		c0.7-1.5,1.4-2.9,1.4-4.6c0-1.8-1.2-4-2.5-5.2c-1.5-1.3-3.7-1.5-5.6-2.2c-1.3-0.5-1.9-1.7-3-2.6c-2.1-1.8-4.8-2-7.1-0.7
		c-1.6,0.9-2.3,2.2-4,2.8c-0.8-0.2-1.5-0.5-2.2-1c-1.5-1.2-2.6-2.9-4.2-3.9c-3.2-2-7.4-1.1-9.4,2.1
		C187.8,421.1,188.8,425.3,191.9,427.4z"/>
	<path fill="none" stroke="#3F9166" stroke-width="1.489" stroke-linejoin="round" stroke-miterlimit="10" d="M191.9,427.4
		c1.6,1,3.6,1.3,5.3,2c0.1,0.1,0.3,0.1,0.4,0.2c1,0.5,1.6,1.3,2.2,2.1c0.1,0.3,0.2,0.7,0.3,1c0.7,2.7-1.2,5.2-0.8,7.9
		c0.5,2.7,2.4,5,5.1,5.6c1,0.2,2.6,0.2,3.5,0c0.9-0.2,1.7-0.6,2.5-0.9c0.8-0.2,1.6-0.3,2.4-0.2c0.7,0.1,1.1,0.5,1.7,0.8
		c0.7,0.3,1.4,0.4,2.2,0.5c1.6,0.3,3.2,0.2,4.6-0.4c3.2-1.4,3.9-4.7,3.8-7.9c-0.1-1.9,0.3-3.2,1.2-4.8c0.7-1.5,1.4-2.9,1.4-4.6
		c0-1.8-1.2-4-2.5-5.2c-1.5-1.3-3.7-1.5-5.6-2.2c-1.3-0.5-1.9-1.7-3-2.6c-2.1-1.8-4.8-2-7.1-0.7c-1.6,0.9-2.3,2.2-4,2.8
		c-0.8-0.2-1.5-0.5-2.2-1c-1.5-1.2-2.6-2.9-4.2-3.9c-3.2-2-7.4-1.1-9.4,2.1C187.8,421.1,188.8,425.3,191.9,427.4z"/>
</g>
<g filter="url(#ds1)">
	<path fill="#6AE6A7" d="M215.5,442c-0.1-0.1-0.3-0.2-0.4-0.3c-1.9-1.2-4.8-1.3-6.7-0.1c-2.9,1.9-2.7,3.5-3.9,6.5
		c-0.4,1-1.3,1.7-2.3,2.1c-1.8,0.9-3.7,2-4.5,3.9c-0.7,1.7-0.5,3.6,0.2,5.3c0.6,1.4,1.6,2.6,3,3.7c1.4,1.2,1,3.3,1.2,5
		c0.2,2.3,1.2,4.1,3.1,5.3c0.7,0.4,1.4,0.7,2.2,0.9c-0.4,0.7-0.7,1.4-0.9,2.2c-0.6,2.4,0.3,4.3,1.8,6c2.6,2.9,6.4,1.4,9.6,2.5
		c1.8,0.6,3.4,1.9,5.2,2.3c3.7,0.8,7.3-1.5,8.2-5.2c0.8-3.7-1.5-7.3-5.2-8.2c-1.8-0.4-3.8,0-5.7-0.1c-0.2,0-0.3,0-0.4-0.1
		c-2.1-0.4-3.3-1.9-5.4-2.4c0,0,0-0.1,0.1-0.1c1.1-1.8,1.1-4.1,0.4-6.2c-0.9-2.8-4.2-3.7-4-7c0.1-1.3,0-2.7,1.1-3.6
		c0.9-0.7,2.1-0.8,3.1-1.4c1.3-0.8,2.2-2.1,2.7-3.6C218.9,446.9,217.9,443.7,215.5,442z"/>
	<path fill="none" stroke="#3F9166" stroke-width="1.489" stroke-linejoin="round" stroke-miterlimit="10" d="M215.5,442
		c-0.1-0.1-0.3-0.2-0.4-0.3c-1.9-1.2-4.8-1.3-6.7-0.1c-2.9,1.9-2.7,3.5-3.9,6.5c-0.4,1-1.3,1.7-2.3,2.1c-1.8,0.9-3.7,2-4.5,3.9
		c-0.7,1.7-0.5,3.6,0.2,5.3c0.6,1.4,1.6,2.6,3,3.7c1.4,1.2,1,3.3,1.2,5c0.2,2.3,1.2,4.1,3.1,5.3c0.7,0.4,1.4,0.7,2.2,0.9
		c-0.4,0.7-0.7,1.4-0.9,2.2c-0.6,2.4,0.3,4.3,1.8,6c2.6,2.9,6.4,1.4,9.6,2.5c1.8,0.6,3.4,1.9,5.2,2.3c3.7,0.8,7.3-1.5,8.2-5.2
		c0.8-3.7-1.5-7.3-5.2-8.2c-1.8-0.4-3.8,0-5.7-0.1c-0.2,0-0.3,0-0.4-0.1c-2.1-0.4-3.3-1.9-5.4-2.4c0,0,0-0.1,0.1-0.1
		c1.1-1.8,1.1-4.1,0.4-6.2c-0.9-2.8-4.2-3.7-4-7c0.1-1.3,0-2.7,1.1-3.6c0.9-0.7,2.1-0.8,3.1-1.4c1.3-0.8,2.2-2.1,2.7-3.6
		C218.9,446.9,217.9,443.7,215.5,442z"/>
</g>
<g filter="url(#ds1)">
	<path fill="#6AE6A7" d="M199.5,462.3c-1.5-1.1-3.5-1.5-5.2-2.3c-0.1-0.1-0.3-0.1-0.4-0.2c-1.8-1.2-2.3-3.1-4-4.3
		c0,0-0.1-0.1-0.1-0.1c0.6-0.5,1.2-1,1.7-1.7c1.3-1.9,1.4-3.9,0.8-6.1c-0.5-1.6-1.7-3.4-0.8-5.1c0.8-1.5,1.3-3,1.3-4.6
		c0-1.8-0.6-3.6-1.9-4.9c-1.5-1.5-3.6-1.8-5.7-1.9c-1,0-2.2-0.3-2.9-1.1c-1-1.1-1.5-2.6-2.8-3.5c-1.2-0.8-2.5-1.3-4-1.3
		c-2.2,0-4.3,1.1-5.6,2.9c-1.8,2.5-1.6,6.1,0.4,8.4c1,1.2,2.3,2,3.9,2.2c1.1,0.2,2.3-0.2,3.4,0.1c1.3,0.4,1.8,1.7,2.4,2.9
		c1.5,2.9-1.2,5.1-0.9,8c0.2,2.1,1,4.2,2.8,5.5c0,0,0.1,0,0.1,0.1c-0.6,0.4-1.1,1-1.6,1.6c-1.7,2.4-2,6.5,0.5,8.5
		c2,1.7,4.8,2,6.8,3.7c1.5,1.2,2.4,3.1,4,4.1c3.1,2.2,7.3,1.5,9.5-1.6C203.3,468.7,202.6,464.5,199.5,462.3z"/>
	<path fill="none" stroke="#3F9166" stroke-width="1.489" stroke-linejoin="round" stroke-miterlimit="10" d="M199.5,462.3
		c-1.5-1.1-3.5-1.5-5.2-2.3c-0.1-0.1-0.3-0.1-0.4-0.2c-1.8-1.2-2.3-3.1-4-4.3c0,0-0.1-0.1-0.1-0.1c0.6-0.5,1.2-1,1.7-1.7
		c1.3-1.9,1.4-3.9,0.8-6.1c-0.5-1.6-1.7-3.4-0.8-5.1c0.8-1.5,1.3-3,1.3-4.6c0-1.8-0.6-3.6-1.9-4.9c-1.5-1.5-3.6-1.8-5.7-1.9
		c-1,0-2.2-0.3-2.9-1.1c-1-1.1-1.5-2.6-2.8-3.5c-1.2-0.8-2.5-1.3-4-1.3c-2.2,0-4.3,1.1-5.6,2.9c-1.8,2.5-1.6,6.1,0.4,8.4
		c1,1.2,2.3,2,3.9,2.2c1.1,0.2,2.3-0.2,3.4,0.1c1.3,0.4,1.8,1.7,2.4,2.9c1.5,2.9-1.2,5.1-0.9,8c0.2,2.1,1,4.2,2.8,5.5
		c0,0,0.1,0,0.1,0.1c-0.6,0.4-1.1,1-1.6,1.6c-1.7,2.4-2,6.5,0.5,8.5c2,1.7,4.8,2,6.8,3.7c1.5,1.2,2.4,3.1,4,4.1
		c3.1,2.2,7.3,1.5,9.5-1.6C203.3,468.7,202.6,464.5,199.5,462.3z"/>
</g>
<g filter="url(#ds1)">
	<path fill="#6AE6A7" d="M87.6,471c-1.5-1.1-3.5-1.5-5.2-2.3c-0.1-0.1-0.3-0.1-0.4-0.2c-1.8-1.2-2.3-3.1-4-4.3c0,0-0.1-0.1-0.1-0.1
		c0.6-0.5,1.2-1,1.7-1.7c1.3-1.9,1.4-3.9,0.8-6.1c-0.5-1.6-1.7-3.4-0.8-5.1c0.8-1.5,1.3-3,1.3-4.6c0-1.8-0.6-3.6-1.9-4.9
		c-1.5-1.5-3.6-1.8-5.7-1.9c-1,0-2.2-0.3-2.9-1.1c-1-1.1-1.5-2.6-2.8-3.5c-0.5-0.3-1-0.6-1.6-0.8c0.6-0.3,1.2-0.8,1.6-1.5
		c1.6-2.2,1.1-5.4-1.2-7c-1.5-1.1-3.4-1.2-4.9-0.5c0.3-1,0.4-2.2,0.3-3.3c-0.3-1.8-1.3-3.4-2.8-4.4c-1.2-0.8-2.5-1.3-4-1.3
		c-2.2,0-4.3,1.1-5.6,2.9c-1.1,1.5-1.5,3.3-1.2,5.1c0.3,1.8,1.3,3.4,2.8,4.4c1.2,0.8,2.5,1.3,4,1.3c1.3,0,2.5-0.4,3.6-1
		c-0.2,0.9-0.1,1.9,0.3,2.8c0,0.1,0.1,0.2,0.1,0.3c0.4,0.7,0.9,1.4,1.6,1.9c0.2,0.1,0.3,0.2,0.5,0.3c-1.2,0.5-2.3,1.3-3.1,2.4
		c-1.8,2.5-1.6,6.1,0.4,8.4c1,1.2,2.3,2,3.9,2.2c1.1,0.2,2.3-0.2,3.4,0.1c1.3,0.4,1.8,1.7,2.4,2.9c1.5,2.9-1.2,5.1-0.9,8
		c0.2,2.1,1,4.2,2.8,5.5c0,0,0.1,0,0.1,0.1c-0.6,0.4-1.1,1-1.6,1.6c-1.6,2.2-1.5,4.7-0.3,7c0.5,0.9,1,1.8,1.7,2.6
		c1.7,1.8,4.1,1.1,5.9,2.7c1.5,1.2,2.4,3.1,4,4.1c3.1,2.2,7.3,1.5,9.5-1.6C91.3,477.5,90.6,473.2,87.6,471z"/>
	<path fill="none" stroke="#3F9166" stroke-width="1.489" stroke-linejoin="round" stroke-miterlimit="10" d="M87.6,471
		c-1.5-1.1-3.5-1.5-5.2-2.3c-0.1-0.1-0.3-0.1-0.4-0.2c-1.8-1.2-2.3-3.1-4-4.3c0,0-0.1-0.1-0.1-0.1c0.6-0.5,1.2-1,1.7-1.7
		c1.3-1.9,1.4-3.9,0.8-6.1c-0.5-1.6-1.7-3.4-0.8-5.1c0.8-1.5,1.3-3,1.3-4.6c0-1.8-0.6-3.6-1.9-4.9c-1.5-1.5-3.6-1.8-5.7-1.9
		c-1,0-2.2-0.3-2.9-1.1c-1-1.1-1.5-2.6-2.8-3.5c-0.5-0.3-1-0.6-1.6-0.8c0.6-0.3,1.2-0.8,1.6-1.5c1.6-2.2,1.1-5.4-1.2-7
		c-1.5-1.1-3.4-1.2-4.9-0.5c0.3-1,0.4-2.2,0.3-3.3c-0.3-1.8-1.3-3.4-2.8-4.4c-1.2-0.8-2.5-1.3-4-1.3c-2.2,0-4.3,1.1-5.6,2.9
		c-1.1,1.5-1.5,3.3-1.2,5.1c0.3,1.8,1.3,3.4,2.8,4.4c1.2,0.8,2.5,1.3,4,1.3c1.3,0,2.5-0.4,3.6-1c-0.2,0.9-0.1,1.9,0.3,2.8
		c0,0.1,0.1,0.2,0.1,0.3c0.4,0.7,0.9,1.4,1.6,1.9c0.2,0.1,0.3,0.2,0.5,0.3c-1.2,0.5-2.3,1.3-3.1,2.4c-1.8,2.5-1.6,6.1,0.4,8.4
		c1,1.2,2.3,2,3.9,2.2c1.1,0.2,2.3-0.2,3.4,0.1c1.3,0.4,1.8,1.7,2.4,2.9c1.5,2.9-1.2,5.1-0.9,8c0.2,2.1,1,4.2,2.8,5.5
		c0,0,0.1,0,0.1,0.1c-0.6,0.4-1.1,1-1.6,1.6c-1.6,2.2-1.5,4.7-0.3,7c0.5,0.9,1,1.8,1.7,2.6c1.7,1.8,4.1,1.1,5.9,2.7
		c1.5,1.2,2.4,3.1,4,4.1c3.1,2.2,7.3,1.5,9.5-1.6C91.3,477.5,90.6,473.2,87.6,471z"/>
</g>
<g filter="url(#ds1)">
	<path fill="#6AE6A7" d="M176.7,443.8c1.1-3.6-1.3-7.2-5-7.8c-2.6-0.4-3.2-2.2-4.2-4.4c-0.4-0.8-0.6-1.5-0.6-2.4
		c0.1-1.6,1.3-2.8,1.6-4.3c0.3-1.8-0.1-3.6-1.2-5.1c-1.6-2.3-3.8-2.8-6.3-2.6c-2.2,0.2-2.8-1.3-4-3c-1.3-1.8-3.4-3-5.6-3
		c-1.4,0-2.8,0.4-4,1.3c-1.1,0.8-1.6,2.1-2.5,3c-0.9,1-2.5,1.5-3.8,1.6c-1.5,0.1-2.7,0.1-4,1c-1.9,1.4-3,3.7-2.8,6
		c0.1,1.3,0.6,2,1.1,3.1c0.5,1.2,0.4,2.8,0.1,4.1c-0.3,1.3-1.3,2.5-1.3,3.8c0,1.2,0.3,2.8,0.9,3.8c0.8,1.4,2,2.5,3.5,3.1
		c1.8,0.7,3.4-0.6,5.2,0.6c1.3,0.9,2,2.4,2.9,3.6c0.6,0.7,1.3,1.4,1.7,2.2c0.4,1,0.3,2,0.4,3c0.2,1.3,0.8,2.5,0.4,3.9
		c-0.6,1.7-2.4,2.3-3.4,3.7c-1.1,1.5-1.5,3.3-1.2,5.1c0.3,1.8,1.3,3.4,2.8,4.4c0,0,0.1,0,0.1,0.1c-0.6,0.4-1.1,1-1.6,1.6
		c-1.5,2.2-1.6,4.9-0.4,7.2c1.7,3.2,5.2,2.9,7.7,5c1.5,1.2,2.4,3.1,4,4.1c3.1,2.2,7.3,1.5,9.5-1.6c2.2-3.1,1.5-7.3-1.6-9.5
		c-1.5-1.1-3.5-1.5-5.2-2.3c-0.1-0.1-0.3-0.1-0.4-0.2c-1.8-1.2-2.3-3.1-4-4.3c0,0-0.1,0-0.1-0.1c0.6-0.4,1.1-1,1.6-1.6
		c1-1.3,1.3-2.9,1.4-4.5c0.1-1-0.3-2.2,0.2-3.2c1.4-2.8,4.1-1.9,6.4-1c2.7,1,5.9,0.5,8-1.6c1.1-1.1,1.7-2.6,2-4.2
		c0.3-1.5-0.4-2.9-0.2-4.4C174.9,446.4,176.2,445.3,176.7,443.8z"/>
	<path fill="none" stroke="#3F9166" stroke-width="1.489" stroke-linejoin="round" stroke-miterlimit="10" d="M176.7,443.8
		c1.1-3.6-1.3-7.2-5-7.8c-2.6-0.4-3.2-2.2-4.2-4.4c-0.4-0.8-0.6-1.5-0.6-2.4c0.1-1.6,1.3-2.8,1.6-4.3c0.3-1.8-0.1-3.6-1.2-5.1
		c-1.6-2.3-3.8-2.8-6.3-2.6c-2.2,0.2-2.8-1.3-4-3c-1.3-1.8-3.4-3-5.6-3c-1.4,0-2.8,0.4-4,1.3c-1.1,0.8-1.6,2.1-2.5,3
		c-0.9,1-2.5,1.5-3.8,1.6c-1.5,0.1-2.7,0.1-4,1c-1.9,1.4-3,3.7-2.8,6c0.1,1.3,0.6,2,1.1,3.1c0.5,1.2,0.4,2.8,0.1,4.1
		c-0.3,1.3-1.3,2.5-1.3,3.8c0,1.2,0.3,2.8,0.9,3.8c0.8,1.4,2,2.5,3.5,3.1c1.8,0.7,3.4-0.6,5.2,0.6c1.3,0.9,2,2.4,2.9,3.6
		c0.6,0.7,1.3,1.4,1.7,2.2c0.4,1,0.3,2,0.4,3c0.2,1.3,0.8,2.5,0.4,3.9c-0.6,1.7-2.4,2.3-3.4,3.7c-1.1,1.5-1.5,3.3-1.2,5.1
		c0.3,1.8,1.3,3.4,2.8,4.4c0,0,0.1,0,0.1,0.1c-0.6,0.4-1.1,1-1.6,1.6c-1.5,2.2-1.6,4.9-0.4,7.2c1.7,3.2,5.2,2.9,7.7,5
		c1.5,1.2,2.4,3.1,4,4.1c3.1,2.2,7.3,1.5,9.5-1.6c2.2-3.1,1.5-7.3-1.6-9.5c-1.5-1.1-3.5-1.5-5.2-2.3c-0.1-0.1-0.3-0.1-0.4-0.2
		c-1.8-1.2-2.3-3.1-4-4.3c0,0-0.1,0-0.1-0.1c0.6-0.4,1.1-1,1.6-1.6c1-1.3,1.3-2.9,1.4-4.5c0.1-1-0.3-2.2,0.2-3.2
		c1.4-2.8,4.1-1.9,6.4-1c2.7,1,5.9,0.5,8-1.6c1.1-1.1,1.7-2.6,2-4.2c0.3-1.5-0.4-2.9-0.2-4.4C174.9,446.4,176.2,445.3,176.7,443.8z"
		/>
</g>
<g filter="url(#ds1)">
	<path fill="#6AE6A7" d="M106.6,444.9c1.1-0.3,2.3,0.1,3.4-0.1c1.5-0.2,2.9-1,3.9-2.2c1.4-1.7,2-4.1,1.4-6.3
		c-0.3-1.1-1.1-1.8-1.5-2.9c-0.2-0.4-0.2-0.8-0.2-1.2c0.1-1.7,1.6-3.2,1.9-4.8c0.3-1.8-0.1-3.6-1.2-5.1c-1.3-1.8-3.4-2.9-5.6-2.9
		c-1.4,0-2.8,0.4-4,1.3c-1.5,1.1-2.5,2.6-2.8,4.4c-0.4,2.5,0.9,3.9,1.7,6c0.7,1.8-0.5,3.6-1.7,4.8c-0.8,0.8-1.9,1-2.9,1.1
		c-2,0.1-4.2,0.4-5.7,1.9c-1.3,1.3-1.9,3.1-1.9,4.9c0,1.5,0.5,3,1.3,4.6c0.9,1.6-0.4,3.5-0.8,5.1c-0.6,2.2-0.5,4.3,0.8,6.1
		c0.5,0.7,1,1.2,1.7,1.7c-0.6,0.4-1.2,1-1.7,1.7c-1.7,2.4-1.7,5.6,0.2,7.8c1,1.1,1.9,2,3.2,2.6c1.3,0.6,2.8,0.9,3.9,1.9
		c1.5,1.2,2.4,3.1,4,4.1c3.1,2.2,7.3,1.5,9.5-1.6c2.2-3.1,1.5-7.3-1.6-9.5c-1.5-1.1-3.5-1.5-5.2-2.3c-0.1-0.1-0.3-0.1-0.4-0.2
		c-1.8-1.2-2.3-3.1-4-4.3c0,0,0.1,0,0.1-0.1c1.8-1.3,2.6-3.4,2.8-5.5c0.2-2.9-2.4-5.1-0.9-8C104.8,446.6,105.3,445.2,106.6,444.9z"
		/>
	<path fill="none" stroke="#3F9166" stroke-width="1.489" stroke-linejoin="round" stroke-miterlimit="10" d="M106.6,444.9
		c1.1-0.3,2.3,0.1,3.4-0.1c1.5-0.2,2.9-1,3.9-2.2c1.4-1.7,2-4.1,1.4-6.3c-0.3-1.1-1.1-1.8-1.5-2.9c-0.2-0.4-0.2-0.8-0.2-1.2
		c0.1-1.7,1.6-3.2,1.9-4.8c0.3-1.8-0.1-3.6-1.2-5.1c-1.3-1.8-3.4-2.9-5.6-2.9c-1.4,0-2.8,0.4-4,1.3c-1.5,1.1-2.5,2.6-2.8,4.4
		c-0.4,2.5,0.9,3.9,1.7,6c0.7,1.8-0.5,3.6-1.7,4.8c-0.8,0.8-1.9,1-2.9,1.1c-2,0.1-4.2,0.4-5.7,1.9c-1.3,1.3-1.9,3.1-1.9,4.9
		c0,1.5,0.5,3,1.3,4.6c0.9,1.6-0.4,3.5-0.8,5.1c-0.6,2.2-0.5,4.3,0.8,6.1c0.5,0.7,1,1.2,1.7,1.7c-0.6,0.4-1.2,1-1.7,1.7
		c-1.7,2.4-1.7,5.6,0.2,7.8c1,1.1,1.9,2,3.2,2.6c1.3,0.6,2.8,0.9,3.9,1.9c1.5,1.2,2.4,3.1,4,4.1c3.1,2.2,7.3,1.5,9.5-1.6
		c2.2-3.1,1.5-7.3-1.6-9.5c-1.5-1.1-3.5-1.5-5.2-2.3c-0.1-0.1-0.3-0.1-0.4-0.2c-1.8-1.2-2.3-3.1-4-4.3c0,0,0.1,0,0.1-0.1
		c1.8-1.3,2.6-3.4,2.8-5.5c0.2-2.9-2.4-5.1-0.9-8C104.8,446.6,105.3,445.2,106.6,444.9z"/>
</g>
<g filter="url(#ds1)">
	<path fill="#6AE6A7" d="M93.5,437c-1.5-1.1-3.5-1.5-5.2-2.3c-0.1-0.1-0.3-0.1-0.4-0.2c-1.8-1.2-2.3-3.1-4-4.3c0,0-0.1-0.1-0.1-0.1
		c0.6-0.5,1.2-1,1.7-1.7c1.2-1.7,1.7-3.2,4-3c2.5,0.2,4.7-0.3,6.3-2.6c1.1-1.5,1.5-3.3,1.2-5.1c-0.3-1.8-1.3-3.4-2.8-4.4
		c-1.2-0.8-2.5-1.3-4-1.3c-2,0-4.1,0.9-5.3,2.5c-0.7,0.9-1.3,2-2.4,2.5c-1.6,0.9-3.5,0.5-5.2,1.2c-1.6,0.7-3.1,1.9-3.8,3.6
		c-1.2,2.9-0.3,6.4,2.3,8.2c0,0,0.1,0,0.1,0.1c-0.6,0.4-1.1,1-1.6,1.6c-1.4,2-1.7,5.1-0.5,7.3c1.6,3.1,5.4,2.9,7.8,4.9
		c1.5,1.2,2.4,3.1,4,4.1c3.1,2.2,7.3,1.5,9.5-1.6C97.2,443.5,96.5,439.2,93.5,437z"/>
	<path fill="none" stroke="#3F9166" stroke-width="1.489" stroke-linejoin="round" stroke-miterlimit="10" d="M93.5,437
		c-1.5-1.1-3.5-1.5-5.2-2.3c-0.1-0.1-0.3-0.1-0.4-0.2c-1.8-1.2-2.3-3.1-4-4.3c0,0-0.1-0.1-0.1-0.1c0.6-0.5,1.2-1,1.7-1.7
		c1.2-1.7,1.7-3.2,4-3c2.5,0.2,4.7-0.3,6.3-2.6c1.1-1.5,1.5-3.3,1.2-5.1c-0.3-1.8-1.3-3.4-2.8-4.4c-1.2-0.8-2.5-1.3-4-1.3
		c-2,0-4.1,0.9-5.3,2.5c-0.7,0.9-1.3,2-2.4,2.5c-1.6,0.9-3.5,0.5-5.2,1.2c-1.6,0.7-3.1,1.9-3.8,3.6c-1.2,2.9-0.3,6.4,2.3,8.2
		c0,0,0.1,0,0.1,0.1c-0.6,0.4-1.1,1-1.6,1.6c-1.4,2-1.7,5.1-0.5,7.3c1.6,3.1,5.4,2.9,7.8,4.9c1.5,1.2,2.4,3.1,4,4.1
		c3.1,2.2,7.3,1.5,9.5-1.6C97.2,443.5,96.5,439.2,93.5,437z"/>
</g>
<g filter="url(#ds1)">
	<path fill="#6AE6A7" d="M131.8,451.9c1-1.5,3.1-1.5,4.7-1.6c2-0.2,3.4-1.2,4.3-2.6c0.7-1.1,1.1-2.4,1.1-3.9c0,0,0-0.1,0-0.1
		c0,0,0-0.1,0-0.1c0-1.3-0.4-2.6-1.2-3.7c-0.3-0.6-0.5-1.2-0.6-1.9c-0.2-1.8,1.4-3.2,1.7-4.9c0.3-1.8-0.1-3.6-1.2-5.1
		c-1.6-2.3-3.8-2.8-6.3-2.6c-2.2,0.2-2.8-1.3-4-3c-1.3-1.8-3.4-3-5.6-3c-1.4,0-2.8,0.4-4,1.3c-1.1,0.8-1.6,2.1-2.5,3
		c-0.9,1-2.5,1.5-3.8,1.6c-1.5,0.1-2.7,0.1-4,1c-1.9,1.4-3,3.7-2.8,6c0.1,1.3,0.6,2,1.1,3.1c0.5,1.2,0.4,2.8,0.1,4.1
		c-0.3,1.3-1.3,2.5-1.3,3.8c0,1.2,0.3,2.8,0.9,3.8c0.8,1.4,2,2.5,3.5,3.1c0.7,0.3,1.6,0.6,2.4,0.7c0.8,0.1,1.6-0.3,2.3,0.1
		c0.6,0.4,0.8,1.2,1.2,1.8c0.9,1.5,1.8,2.2,1.3,4c-0.4,1.8-1.2,3.5-1,5.4c0.2,1.7,1.2,3.3,2.7,4.3c0,0,0.1,0,0.1,0.1
		c-0.6,0.4-1.1,1-1.6,1.6c-2,2.7-1.2,5.9,0.7,8.4c0.8,1,1.7,2.3,3,2.6c1.4,0.3,2.4,0.3,3.6,1.3c1.5,1.2,2.4,3.1,4,4.1
		c3.1,2.2,7.3,1.5,9.5-1.6c2.2-3.1,1.5-7.3-1.6-9.5c-1.5-1.1-3.5-1.5-5.2-2.3c-0.1-0.1-0.3-0.1-0.4-0.2c-1.8-1.2-2.3-3.1-4-4.3
		c0,0-0.1-0.1-0.1-0.1c0.6-0.5,1.2-1,1.7-1.7c1.1-1.6,1.5-3.8,1.1-5.7c-0.5-2.3-2.4-2.9-0.7-5.2
		C131.3,453.4,131.3,452.6,131.8,451.9z"/>
	<path fill="none" stroke="#3F9166" stroke-width="1.489" stroke-linejoin="round" stroke-miterlimit="10" d="M131.8,451.9
		c1-1.5,3.1-1.5,4.7-1.6c2-0.2,3.4-1.2,4.3-2.6c0.7-1.1,1.1-2.4,1.1-3.9c0,0,0-0.1,0-0.1c0,0,0-0.1,0-0.1c0-1.3-0.4-2.6-1.2-3.7
		c-0.3-0.6-0.5-1.2-0.6-1.9c-0.2-1.8,1.4-3.2,1.7-4.9c0.3-1.8-0.1-3.6-1.2-5.1c-1.6-2.3-3.8-2.8-6.3-2.6c-2.2,0.2-2.8-1.3-4-3
		c-1.3-1.8-3.4-3-5.6-3c-1.4,0-2.8,0.4-4,1.3c-1.1,0.8-1.6,2.1-2.5,3c-0.9,1-2.5,1.5-3.8,1.6c-1.5,0.1-2.7,0.1-4,1
		c-1.9,1.4-3,3.7-2.8,6c0.1,1.3,0.6,2,1.1,3.1c0.5,1.2,0.4,2.8,0.1,4.1c-0.3,1.3-1.3,2.5-1.3,3.8c0,1.2,0.3,2.8,0.9,3.8
		c0.8,1.4,2,2.5,3.5,3.1c0.7,0.3,1.6,0.6,2.4,0.7c0.8,0.1,1.6-0.3,2.3,0.1c0.6,0.4,0.8,1.2,1.2,1.8c0.9,1.5,1.8,2.2,1.3,4
		c-0.4,1.8-1.2,3.5-1,5.4c0.2,1.7,1.2,3.3,2.7,4.3c0,0,0.1,0,0.1,0.1c-0.6,0.4-1.1,1-1.6,1.6c-2,2.7-1.2,5.9,0.7,8.4
		c0.8,1,1.7,2.3,3,2.6c1.4,0.3,2.4,0.3,3.6,1.3c1.5,1.2,2.4,3.1,4,4.1c3.1,2.2,7.3,1.5,9.5-1.6c2.2-3.1,1.5-7.3-1.6-9.5
		c-1.5-1.1-3.5-1.5-5.2-2.3c-0.1-0.1-0.3-0.1-0.4-0.2c-1.8-1.2-2.3-3.1-4-4.3c0,0-0.1-0.1-0.1-0.1c0.6-0.5,1.2-1,1.7-1.7
		c1.1-1.6,1.5-3.8,1.1-5.7c-0.5-2.3-2.4-2.9-0.7-5.2C131.3,453.4,131.3,452.6,131.8,451.9z"/>
</g>
<g filter="url(#ds1)">
	<path fill="#6AE6A7" d="M268.7,451.9c1.1-0.3,2.3,0.1,3.4-0.1c1.5-0.2,2.9-1,3.9-2.2c1.4-1.7,2-4.1,1.4-6.3
		c-0.3-1.1-1.1-1.8-1.5-2.9c-0.2-0.4-0.2-0.8-0.2-1.2c0.1-1.7,1.6-3.2,1.9-4.8c0.3-1.8-0.1-3.6-1.2-5.1c-1.3-1.8-3.4-2.9-5.6-2.9
		c-1.4,0-2.8,0.4-4,1.3c-1.5,1.1-2.5,2.6-2.8,4.4c-0.4,2.5,0.9,3.9,1.7,6c0.7,1.8-0.5,3.6-1.7,4.8c-0.8,0.8-1.9,1-2.9,1.1
		c-2,0.1-4.2,0.4-5.7,1.9c-1.3,1.3-1.9,3.1-1.9,4.9c0,1.5,0.5,3,1.3,4.6c0.9,1.6-0.4,3.5-0.8,5.1c-0.6,2.2-0.5,4.3,0.8,6.1
		c0.5,0.7,1,1.2,1.7,1.7c-0.6,0.4-1.2,1-1.7,1.7c-1.7,2.4-1.7,5.6,0.2,7.8c1,1.1,1.9,2,3.2,2.6c1.3,0.6,2.8,0.9,3.9,1.9
		c1.5,1.2,2.4,3.1,4,4.1c3.1,2.2,7.3,1.5,9.5-1.6c2.2-3.1,1.5-7.3-1.6-9.5c-1.5-1.1-3.5-1.5-5.2-2.3c-0.1-0.1-0.3-0.1-0.4-0.2
		c-1.8-1.2-2.3-3.1-4-4.3c0,0,0.1,0,0.1-0.1c1.8-1.3,2.6-3.4,2.8-5.5c0.2-2.9-2.4-5.1-0.9-8C266.8,453.6,267.3,452.3,268.7,451.9z"
		/>
	<path fill="none" stroke="#3F9166" stroke-width="1.489" stroke-linejoin="round" stroke-miterlimit="10" d="M268.7,451.9
		c1.1-0.3,2.3,0.1,3.4-0.1c1.5-0.2,2.9-1,3.9-2.2c1.4-1.7,2-4.1,1.4-6.3c-0.3-1.1-1.1-1.8-1.5-2.9c-0.2-0.4-0.2-0.8-0.2-1.2
		c0.1-1.7,1.6-3.2,1.9-4.8c0.3-1.8-0.1-3.6-1.2-5.1c-1.3-1.8-3.4-2.9-5.6-2.9c-1.4,0-2.8,0.4-4,1.3c-1.5,1.1-2.5,2.6-2.8,4.4
		c-0.4,2.5,0.9,3.9,1.7,6c0.7,1.8-0.5,3.6-1.7,4.8c-0.8,0.8-1.9,1-2.9,1.1c-2,0.1-4.2,0.4-5.7,1.9c-1.3,1.3-1.9,3.1-1.9,4.9
		c0,1.5,0.5,3,1.3,4.6c0.9,1.6-0.4,3.5-0.8,5.1c-0.6,2.2-0.5,4.3,0.8,6.1c0.5,0.7,1,1.2,1.7,1.7c-0.6,0.4-1.2,1-1.7,1.7
		c-1.7,2.4-1.7,5.6,0.2,7.8c1,1.1,1.9,2,3.2,2.6c1.3,0.6,2.8,0.9,3.9,1.9c1.5,1.2,2.4,3.1,4,4.1c3.1,2.2,7.3,1.5,9.5-1.6
		c2.2-3.1,1.5-7.3-1.6-9.5c-1.5-1.1-3.5-1.5-5.2-2.3c-0.1-0.1-0.3-0.1-0.4-0.2c-1.8-1.2-2.3-3.1-4-4.3c0,0,0.1,0,0.1-0.1
		c1.8-1.3,2.6-3.4,2.8-5.5c0.2-2.9-2.4-5.1-0.9-8C266.8,453.6,267.3,452.3,268.7,451.9z"/>
</g>
<g filter="url(#ds1)">
	<path fill="#6AE6A7" d="M249.6,444.7c1-1.5,3.1-1.5,4.7-1.6c2-0.2,3.4-1.2,4.3-2.6c0.7-1.1,1.1-2.4,1.1-3.9c0,0,0-0.1,0-0.1
		c0,0,0-0.1,0-0.1c0-1.3-0.4-2.6-1.2-3.7c-0.3-0.6-0.5-1.2-0.6-1.9c-0.2-1.8,1.4-3.2,1.7-4.9c0.3-1.8-0.1-3.6-1.2-5.1
		c-1.6-2.3-3.8-2.8-6.3-2.6c-2.2,0.2-2.8-1.3-4-3c-1.3-1.8-3.4-3-5.6-3c-1.4,0-2.8,0.4-4,1.3c-1.1,0.8-1.6,2.1-2.5,3
		c-0.9,1-2.5,1.5-3.8,1.6c-1.5,0.1-2.7,0.1-4,1c-1.9,1.4-3,3.7-2.8,6c0.1,1.3,0.6,2,1.1,3.1c0.5,1.2,0.4,2.8,0.1,4.1
		c-0.3,1.3-1.3,2.5-1.3,3.8c0,1.2,0.3,2.8,0.9,3.8c0.8,1.4,2,2.5,3.5,3.1c0.7,0.3,1.6,0.6,2.4,0.7c0.8,0.1,1.6-0.3,2.3,0.1
		c0.6,0.4,0.8,1.2,1.2,1.8c0.9,1.5,1.8,2.2,1.3,4c-0.4,1.8-1.2,3.5-1,5.4c0.2,1.7,1.2,3.3,2.7,4.3c0,0,0.1,0,0.1,0.1
		c-0.6,0.4-1.1,1-1.6,1.6c-1.8,2.6-1.5,5.3,0.2,7.8c0.3,0.4,0.6,0.9,1,1.3c1.7,1.5,4.3,1.8,6,3.2c1.5,1.2,2.4,3.1,4,4.1
		c3.1,2.2,7.3,1.5,9.5-1.6c2.2-3.1,1.5-7.3-1.6-9.5c-1.5-1.1-3.5-1.5-5.2-2.3c-0.1-0.1-0.3-0.1-0.4-0.2c-1.8-1.2-2.3-3.1-4-4.3
		c0,0-0.1-0.1-0.1-0.1c0.6-0.5,1.2-1,1.7-1.7c1.1-1.6,1.5-3.8,1.1-5.7c-0.5-2.3-2.4-2.9-0.7-5.2
		C249.1,446.2,249.1,445.3,249.6,444.7z"/>
	<path fill="none" stroke="#3F9166" stroke-width="1.489" stroke-linejoin="round" stroke-miterlimit="10" d="M249.6,444.7
		c1-1.5,3.1-1.5,4.7-1.6c2-0.2,3.4-1.2,4.3-2.6c0.7-1.1,1.1-2.4,1.1-3.9c0,0,0-0.1,0-0.1c0,0,0-0.1,0-0.1c0-1.3-0.4-2.6-1.2-3.7
		c-0.3-0.6-0.5-1.2-0.6-1.9c-0.2-1.8,1.4-3.2,1.7-4.9c0.3-1.8-0.1-3.6-1.2-5.1c-1.6-2.3-3.8-2.8-6.3-2.6c-2.2,0.2-2.8-1.3-4-3
		c-1.3-1.8-3.4-3-5.6-3c-1.4,0-2.8,0.4-4,1.3c-1.1,0.8-1.6,2.1-2.5,3c-0.9,1-2.5,1.5-3.8,1.6c-1.5,0.1-2.7,0.1-4,1
		c-1.9,1.4-3,3.7-2.8,6c0.1,1.3,0.6,2,1.1,3.1c0.5,1.2,0.4,2.8,0.1,4.1c-0.3,1.3-1.3,2.5-1.3,3.8c0,1.2,0.3,2.8,0.9,3.8
		c0.8,1.4,2,2.5,3.5,3.1c0.7,0.3,1.6,0.6,2.4,0.7c0.8,0.1,1.6-0.3,2.3,0.1c0.6,0.4,0.8,1.2,1.2,1.8c0.9,1.5,1.8,2.2,1.3,4
		c-0.4,1.8-1.2,3.5-1,5.4c0.2,1.7,1.2,3.3,2.7,4.3c0,0,0.1,0,0.1,0.1c-0.6,0.4-1.1,1-1.6,1.6c-1.8,2.6-1.5,5.3,0.2,7.8
		c0.3,0.4,0.6,0.9,1,1.3c1.7,1.5,4.3,1.8,6,3.2c1.5,1.2,2.4,3.1,4,4.1c3.1,2.2,7.3,1.5,9.5-1.6c2.2-3.1,1.5-7.3-1.6-9.5
		c-1.5-1.1-3.5-1.5-5.2-2.3c-0.1-0.1-0.3-0.1-0.4-0.2c-1.8-1.2-2.3-3.1-4-4.3c0,0-0.1-0.1-0.1-0.1c0.6-0.5,1.2-1,1.7-1.7
		c1.1-1.6,1.5-3.8,1.1-5.7c-0.5-2.3-2.4-2.9-0.7-5.2C249.1,446.2,249.1,445.3,249.6,444.7z"/>
</g>
<g filter="url(#ds1)">
	<path fill="#6AE6A7" d="M245.9,477.3c-1.7-0.7-3.8-0.6-5.6-1.1c-0.1,0-0.3-0.1-0.4-0.1c-2-0.7-2.9-2.4-4.9-3.3c0,0-0.1,0-0.1,0
		c0.5-0.6,0.9-1.3,1.2-2c0.7-1.8,0.5-3.7-0.3-5.4c-0.7-1.5-2.1-2.8-2.3-4.6c-0.1-1.6,0.2-3.1,0-4.6c0-0.4-0.1-0.8-0.2-1.2
		c-0.7-2.9-3.2-5.2-6.2-5.4c-3.6-0.3-7,2.6-7.1,6.3c0,2,0.4,3.6,1.3,5.4c1,2,1.8,3.9,1.4,6.1c-0.5,2.8,1.7,6.2,4.4,7.2
		c0,0,0.1,0,0.1,0c-0.5,0.6-0.9,1.2-1.2,1.9c-1.2,3,0,6.9,3,8.4c2.2,1.1,4.8,0.8,6.9,1.8c1.7,0.9,3.1,2.4,4.8,3.1
		c3.5,1.4,7.5-0.3,8.9-3.8C251,482.7,249.4,478.7,245.9,477.3z"/>
	<path fill="none" stroke="#3F9166" stroke-width="1.489" stroke-linejoin="round" stroke-miterlimit="10" d="M245.9,477.3
		c-1.7-0.7-3.8-0.6-5.6-1.1c-0.1,0-0.3-0.1-0.4-0.1c-2-0.7-2.9-2.4-4.9-3.3c0,0-0.1,0-0.1,0c0.5-0.6,0.9-1.3,1.2-2
		c0.7-1.8,0.5-3.7-0.3-5.4c-0.7-1.5-2.1-2.8-2.3-4.6c-0.1-1.6,0.2-3.1,0-4.6c0-0.4-0.1-0.8-0.2-1.2c-0.7-2.9-3.2-5.2-6.2-5.4
		c-3.6-0.3-7,2.6-7.1,6.3c0,2,0.4,3.6,1.3,5.4c1,2,1.8,3.9,1.4,6.1c-0.5,2.8,1.7,6.2,4.4,7.2c0,0,0.1,0,0.1,0
		c-0.5,0.6-0.9,1.2-1.2,1.9c-1.2,3,0,6.9,3,8.4c2.2,1.1,4.8,0.8,6.9,1.8c1.7,0.9,3.1,2.4,4.8,3.1c3.5,1.4,7.5-0.3,8.9-3.8
		C251,482.7,249.4,478.7,245.9,477.3z"/>
</g>
<g filter="url(#ds1)">
	<path fill="#6AE6A7" d="M198.5,468.7c-1.7,0.6-3.2,2.1-4.9,3c-0.1,0.1-0.3,0.1-0.4,0.2c-2,0.8-3.8,0.2-5.8,0.9c0,0-0.1,0-0.1,0.1
		c0-0.8-0.2-1.6-0.4-2.3c-0.7-1.8-2.1-3-3.8-3.8c-1.5-0.7-3.5-0.7-4.8-1.8c-1.1-1.1-2-2.4-3.1-3.5c-0.3-0.3-0.6-0.5-0.9-0.7
		c-4.5-3-11-0.3-10.8,5.9c0.1,2.5,1.4,4.4,3.6,5.6c3.1,1.7,5.8,1.7,7.8,4.8c1.6,2.4,5.4,3.4,8.1,2.4c0,0,0.1,0,0.1-0.1
		c0,0.7,0.1,1.5,0.4,2.2c0.9,2.4,3.4,4.2,5.9,4.4c3.4,0.3,5.3-2.7,8.3-3.5c1.8-0.5,3.9-0.3,5.6-0.9c3.5-1.3,5.3-5.2,4-8.8
		C206,469.2,202.1,467.4,198.5,468.7z"/>
	<path fill="none" stroke="#3F9166" stroke-width="1.489" stroke-linejoin="round" stroke-miterlimit="10" d="M198.5,468.7
		c-1.7,0.6-3.2,2.1-4.9,3c-0.1,0.1-0.3,0.1-0.4,0.2c-2,0.8-3.8,0.2-5.8,0.9c0,0-0.1,0-0.1,0.1c0-0.8-0.2-1.6-0.4-2.3
		c-0.7-1.8-2.1-3-3.8-3.8c-1.5-0.7-3.5-0.7-4.8-1.8c-1.1-1.1-2-2.4-3.1-3.5c-0.3-0.3-0.6-0.5-0.9-0.7c-4.5-3-11-0.3-10.8,5.9
		c0.1,2.5,1.4,4.4,3.6,5.6c3.1,1.7,5.8,1.7,7.8,4.8c1.6,2.4,5.4,3.4,8.1,2.4c0,0,0.1,0,0.1-0.1c0,0.7,0.1,1.5,0.4,2.2
		c0.9,2.4,3.4,4.2,5.9,4.4c3.4,0.3,5.3-2.7,8.3-3.5c1.8-0.5,3.9-0.3,5.6-0.9c3.5-1.3,5.3-5.2,4-8.8
		C206,469.2,202.1,467.4,198.5,468.7z"/>
</g>
<g opacity="0.45" filter="url(#ds1)">
	<path fill="#E96667" d="M386.4,284.2c1.6,1.3,3.8,1.9,5.8,1.4c1.5-0.3,2.5-1.5,4.1-1.3c1.7,0.3,2.3,1.2,4.8,1.8
		c1.8,0.4,3.6-0.5,4.9-1.8c2.1-2.3,1.2-3.7,3.3-4.2c1.9-0.4,2.3,3,3.8,4.2c2.9,2.4,7.2,2,9.6-0.9c2.4-2.9,2-7.2-0.9-9.6
		c-1.2-1-2.5-1.2-3.9-1.6c-1.4-0.4-1.8-1.2-2.4-2.5c-0.5-1.2-1.4-2.1-2.2-3.1c-1.5-1.7-1.1-3.3-1.2-5.4c-0.1-1.9-1-3.8-2.4-5
		c-1.5-1.2-3.5-1.8-5.4-1.5c-1.2,0.2-2.5,0.7-3.8,0.5c-1.3-0.3-2.4-1.4-3.6-2c-2.7-1.2-6-0.4-7.9,1.9c-1.2,1.4-1.1,3.5-2.2,5
		c-1.2,1.8-3.7,1.9-5.1,3.6c-1.5,1.9-2,4.4-1.2,6.7c0.8,2.3,3.8,3.4,3.8,6.1C384.2,279.7,383.8,282,386.4,284.2z"/>
	<path fill="none" stroke="#B4474C" stroke-width="1.489" stroke-miterlimit="10" d="M386.4,284.2c1.6,1.3,3.8,1.9,5.8,1.4
		c1.5-0.3,2.5-1.5,4.1-1.3c1.7,0.3,2.3,1.2,4.8,1.8c1.8,0.4,3.6-0.5,4.9-1.8c2.1-2.3,1.2-3.7,3.3-4.2c1.9-0.4,2.3,3,3.8,4.2
		c2.9,2.4,7.2,2,9.6-0.9c2.4-2.9,2-7.2-0.9-9.6c-1.2-1-2.5-1.2-3.9-1.6c-1.4-0.4-1.8-1.2-2.4-2.5c-0.5-1.2-1.4-2.1-2.2-3.1
		c-1.5-1.7-1.1-3.3-1.2-5.4c-0.1-1.9-1-3.8-2.4-5c-1.5-1.2-3.5-1.8-5.4-1.5c-1.2,0.2-2.5,0.7-3.8,0.5c-1.3-0.3-2.4-1.4-3.6-2
		c-2.7-1.2-6-0.4-7.9,1.9c-1.2,1.4-1.1,3.5-2.2,5c-1.2,1.8-3.7,1.9-5.1,3.6c-1.5,1.9-2,4.4-1.2,6.7c0.8,2.3,3.8,3.4,3.8,6.1
		C384.2,279.7,383.8,282,386.4,284.2z"/>
</g>
<g opacity="0.45" filter="url(#ds1)">
	<path fill="#E96667" d="M473.6,288c1.6-1.4,2.5-3.4,2.4-5.5c-0.1-1.5-1.1-2.7-0.6-4.3c0.5-1.7,1.6-2.1,2.5-4.4
		c0.7-1.7,0.1-3.7-1-5.1c-1.9-2.4-3.5-1.7-3.6-3.9c-0.1-2,3.3-1.8,4.8-3.1c2.8-2.5,3.2-6.8,0.7-9.6c-2.5-2.8-6.8-3.2-9.6-0.7
		c-1.2,1-1.6,2.2-2.2,3.6c-0.7,1.3-1.4,1.6-2.8,2c-1.2,0.4-2.3,1-3.4,1.7c-1.9,1.2-3.4,0.6-5.5,0.3c-1.9-0.2-3.9,0.3-5.3,1.6
		c-1.5,1.3-2.3,3.1-2.4,5.1c0,1.2,0.3,2.6-0.1,3.8c-0.5,1.3-1.8,2.1-2.5,3.3c-1.6,2.5-1.4,5.9,0.6,8.1c1.2,1.4,3.3,1.7,4.6,3
		c1.5,1.5,1.3,3.9,2.8,5.6c1.6,1.8,4.1,2.7,6.4,2.2c2.4-0.5,3.9-3.2,6.6-2.7C468.8,289.4,471.1,290.2,473.6,288z"/>
	<path fill="none" stroke="#B4474C" stroke-width="1.489" stroke-miterlimit="10" d="M473.6,288c1.6-1.4,2.5-3.4,2.4-5.5
		c-0.1-1.5-1.1-2.7-0.6-4.3c0.5-1.7,1.6-2.1,2.5-4.4c0.7-1.7,0.1-3.7-1-5.1c-1.9-2.4-3.5-1.7-3.6-3.9c-0.1-2,3.3-1.8,4.8-3.1
		c2.8-2.5,3.2-6.8,0.7-9.6c-2.5-2.8-6.8-3.2-9.6-0.7c-1.2,1-1.6,2.2-2.2,3.6c-0.7,1.3-1.4,1.6-2.8,2c-1.2,0.4-2.3,1-3.4,1.7
		c-1.9,1.2-3.4,0.6-5.5,0.3c-1.9-0.2-3.9,0.3-5.3,1.6c-1.5,1.3-2.3,3.1-2.4,5.1c0,1.2,0.3,2.6-0.1,3.8c-0.5,1.3-1.8,2.1-2.5,3.3
		c-1.6,2.5-1.4,5.9,0.6,8.1c1.2,1.4,3.3,1.7,4.6,3c1.5,1.5,1.3,3.9,2.8,5.6c1.6,1.8,4.1,2.7,6.4,2.2c2.4-0.5,3.9-3.2,6.6-2.7
		C468.8,289.4,471.1,290.2,473.6,288z"/>
</g>
<g>
	<g filter="url(#ds1)">
		<rect x="385.3" y="212.6" fill="#FFFFFF" width="93.7" height="27.7"/>
	</g>
	<g>
		<g>
			<path fill="#6D6E70" d="M401.5,229.3v0.8c0,0.8,1.1,1.3,2.3,1.3c1.3,0,2.2-0.6,2.2-1.7c0-1.3-1.3-1.7-2.7-2.3
				c-1.5-0.6-3-1.2-3-3.2c0-2.1,1.7-3,3.6-3c1.7,0,3.4,0.6,3.4,1.9v1.3h-1.5v-0.8c0-0.7-1-1-1.9-1c-1.1,0-2,0.5-2,1.6
				c0,1.2,1.1,1.6,2.4,2.1c1.7,0.6,3.3,1.3,3.3,3.4c0,2.2-1.8,3.3-3.9,3.3c-1.8,0-3.7-0.8-3.7-2.4v-1.2H401.5z"/>
			<path fill="#6D6E70" d="M410.3,222.6h-1.4v-1.2h4.5v1.2h-1.4v5.8c0,0.7,0.1,1.4,0.4,1.8c0.5,0.7,1.3,1.2,2.4,1.2
				c1.1,0,2-0.4,2.4-1.2c0.3-0.5,0.4-1.1,0.4-1.8v-5.8h-1.4v-1.2h4.4v1.2h-1.4v5.9c0,1.1-0.3,2-0.8,2.8c-0.8,1.1-2.1,1.6-3.7,1.6
				c-1.6,0-2.9-0.6-3.7-1.6c-0.5-0.7-0.8-1.7-0.8-2.8V222.6z"/>
			<path fill="#6D6E70" d="M427.8,221.2c2,0,4.3,0.8,4.3,2.2v1.4h-1.5V224c0-0.9-1.5-1.4-2.8-1.4c-2.6,0-4.3,1.8-4.3,4.4
				c0,2.6,1.7,4.5,4.4,4.5c1,0,3-0.3,3-1.4v-1.5h-2.2v-1.2h3.7v3.2c0,1.7-2.9,2.4-4.6,2.4c-3.5,0-5.9-2.5-5.9-5.9
				S424.3,221.2,427.8,221.2z"/>
			<path fill="#6D6E70" d="M433.4,231.5h1.1l3.6-10.1h1.8l3.6,10.1h1.1v1.2h-3.9v-1.2h1.2l-0.9-2.5h-4l-0.9,2.5h1.2v1.2h-3.9V231.5z
				 M440.6,227.7l-1.4-3.9c-0.2-0.5-0.2-0.9-0.2-0.9h0c0,0,0,0.4-0.2,0.9l-1.4,3.9H440.6z"/>
			<path fill="#6D6E70" d="M445.6,231.5h1.4v-8.8h-1.4v-1.2h4.9c0.8,0,1.5,0,2.1,0.2c1.2,0.4,2,1.4,2,2.9c0,1.6-0.9,2.8-2.3,3.2v0
				c0,0,0.3,0.2,0.5,0.5l1.6,2.8c0.2,0.3,0.4,0.4,0.8,0.4h0.3v1.2h-1c-1,0-1.2-0.2-1.6-0.8l-1.7-3.1c-0.3-0.5-0.5-0.6-1.2-0.6h-1.3
				v3.3h1.4v1.2h-4.4V231.5z M450.9,226.8c1.2,0,2-0.8,2-2.1c0-0.9-0.4-1.5-1.1-1.8c-0.4-0.1-0.8-0.2-1.4-0.2h-1.9v4.1H450.9z"/>
			<path fill="#6D6E70" d="M458.3,229.3v0.8c0,0.8,1.1,1.3,2.3,1.3c1.3,0,2.2-0.6,2.2-1.7c0-1.3-1.3-1.7-2.7-2.3
				c-1.5-0.6-3-1.2-3-3.2c0-2.1,1.7-3,3.6-3c1.7,0,3.4,0.6,3.4,1.9v1.3h-1.5v-0.8c0-0.7-1-1-1.9-1c-1.1,0-2,0.5-2,1.6
				c0,1.2,1.1,1.6,2.4,2.1c1.7,0.6,3.3,1.3,3.3,3.4c0,2.2-1.8,3.3-3.9,3.3c-1.8,0-3.7-0.8-3.7-2.4v-1.2H458.3z"/>
		</g>
	</g>
</g>
<g opacity="0.45">
	<g filter="url(#ds1)">
		<path fill="#D0D2D3" d="M507.4,603.1l37.9-1.4c3.1-0.1,5.6,2.4,5.6,5.4v7.7c0,3.3-2.8,5.8-6.1,5.4l-40.2-4.6
			c-0.7-0.1-1.3-0.7-1.3-1.4v-7.1C503.5,605,505.2,603.2,507.4,603.1z"/>
		<path fill="none" stroke="#929497" stroke-width="1.5" stroke-linejoin="round" stroke-miterlimit="10" d="M507.4,603.1l37.9-1.4
			c3.1-0.1,5.6,2.4,5.6,5.4v7.7c0,3.3-2.8,5.8-6.1,5.4l-40.2-4.6c-0.7-0.1-1.3-0.7-1.3-1.4v-7.1C503.5,605,505.2,603.2,507.4,603.1z
			"/>
	</g>
	<g filter="url(#ds1)">
		<path fill="#D0D2D3" d="M499.3,616.4l37.9-1.4c3.1-0.1,5.6,2.4,5.6,5.4v7.7c0,3.3-2.8,5.8-6.1,5.4l-40.2-4.6
			c-0.7-0.1-1.3-0.7-1.3-1.4v-7.1C495.4,618.3,497.1,616.5,499.3,616.4z"/>
		<path fill="none" stroke="#929497" stroke-width="1.5" stroke-linejoin="round" stroke-miterlimit="10" d="M499.3,616.4l37.9-1.4
			c3.1-0.1,5.6,2.4,5.6,5.4v7.7c0,3.3-2.8,5.8-6.1,5.4l-40.2-4.6c-0.7-0.1-1.3-0.7-1.3-1.4v-7.1
			C495.4,618.3,497.1,616.5,499.3,616.4z"/>
	</g>
	<g filter="url(#ds1)">
		<path fill="#D0D2D3" d="M503,568.4l37.9-1.4c3.1-0.1,5.6,2.4,5.6,5.4v7.7c0,3.3-2.8,5.8-6.1,5.4l-40.2-4.6
			c-0.7-0.1-1.3-0.7-1.3-1.4v-7.1C499.1,570.3,500.8,568.5,503,568.4z"/>
		<path fill="none" stroke="#929497" stroke-width="1.5" stroke-linejoin="round" stroke-miterlimit="10" d="M503,568.4l37.9-1.4
			c3.1-0.1,5.6,2.4,5.6,5.4v7.7c0,3.3-2.8,5.8-6.1,5.4l-40.2-4.6c-0.7-0.1-1.3-0.7-1.3-1.4v-7.1C499.1,570.3,500.8,568.5,503,568.4z
			"/>
	</g>
	<g filter="url(#ds1)">
		<path fill="#D0D2D3" d="M494.5,558.4l37.9-1.4c3.1-0.1,5.6,2.4,5.6,5.4v7.7c0,3.3-2.8,5.8-6.1,5.4l-40.2-4.6
			c-0.7-0.1-1.3-0.7-1.3-1.4v-7.1C490.6,560.3,492.3,558.4,494.5,558.4z"/>
		<path fill="none" stroke="#929497" stroke-width="1.5" stroke-linejoin="round" stroke-miterlimit="10" d="M494.5,558.4l37.9-1.4
			c3.1-0.1,5.6,2.4,5.6,5.4v7.7c0,3.3-2.8,5.8-6.1,5.4l-40.2-4.6c-0.7-0.1-1.3-0.7-1.3-1.4v-7.1
			C490.6,560.3,492.3,558.4,494.5,558.4z"/>
	</g>
	<g filter="url(#ds1)">
		<path fill="#D0D2D3" d="M442.8,621.7l37.9-1.4c3.1-0.1,5.6,2.4,5.6,5.4v7.7c0,3.3-2.8,5.8-6.1,5.4l-40.2-4.6
			c-0.7-0.1-1.3-0.7-1.3-1.4v-7.1C438.9,623.6,440.6,621.8,442.8,621.7z"/>
		<path fill="none" stroke="#929497" stroke-width="1.5" stroke-linejoin="round" stroke-miterlimit="10" d="M442.8,621.7l37.9-1.4
			c3.1-0.1,5.6,2.4,5.6,5.4v7.7c0,3.3-2.8,5.8-6.1,5.4l-40.2-4.6c-0.7-0.1-1.3-0.7-1.3-1.4v-7.1
			C438.9,623.6,440.6,621.8,442.8,621.7z"/>
	</g>
	<g filter="url(#ds1)">
		<path fill="#D0D2D3" d="M451.8,612.4l37.9-1.4c3.1-0.1,5.6,2.4,5.6,5.4v7.7c0,3.3-2.8,5.8-6.1,5.4l-40.2-4.6
			c-0.7-0.1-1.3-0.7-1.3-1.4v-7.1C447.9,614.3,449.6,612.5,451.8,612.4z"/>
		<path fill="none" stroke="#929497" stroke-width="1.5" stroke-linejoin="round" stroke-miterlimit="10" d="M451.8,612.4l37.9-1.4
			c3.1-0.1,5.6,2.4,5.6,5.4v7.7c0,3.3-2.8,5.8-6.1,5.4l-40.2-4.6c-0.7-0.1-1.3-0.7-1.3-1.4v-7.1
			C447.9,614.3,449.6,612.5,451.8,612.4z"/>
	</g>
	<g filter="url(#ds1)">
		<path fill="#D0D2D3" d="M437,601.1l37.9-1.4c3.1-0.1,5.6,2.4,5.6,5.4v7.7c0,3.3-2.8,5.8-6.1,5.4l-40.2-4.6
			c-0.7-0.1-1.3-0.7-1.3-1.4v-7.1C433.1,603,434.8,601.2,437,601.1z"/>
		<path fill="none" stroke="#929497" stroke-width="1.5" stroke-linejoin="round" stroke-miterlimit="10" d="M437,601.1l37.9-1.4
			c3.1-0.1,5.6,2.4,5.6,5.4v7.7c0,3.3-2.8,5.8-6.1,5.4l-40.2-4.6c-0.7-0.1-1.3-0.7-1.3-1.4v-7.1C433.1,603,434.8,601.2,437,601.1z"
			/>
	</g>
	<g filter="url(#ds1)">
		<path fill="#D0D2D3" d="M456.9,594.7l37.9-1.4c3.1-0.1,5.6,2.4,5.6,5.4v7.7c0,3.3-2.8,5.8-6.1,5.4l-40.2-4.6
			c-0.7-0.1-1.3-0.7-1.3-1.4v-7.1C452.9,596.6,454.7,594.8,456.9,594.7z"/>
		<path fill="none" stroke="#929497" stroke-width="1.5" stroke-linejoin="round" stroke-miterlimit="10" d="M456.9,594.7l37.9-1.4
			c3.1-0.1,5.6,2.4,5.6,5.4v7.7c0,3.3-2.8,5.8-6.1,5.4l-40.2-4.6c-0.7-0.1-1.3-0.7-1.3-1.4v-7.1
			C452.9,596.6,454.7,594.8,456.9,594.7z"/>
	</g>
	<g filter="url(#ds1)">
		<path fill="#D0D2D3" d="M442.2,581.2l37.9-1.4c3.1-0.1,5.6,2.4,5.6,5.4v7.7c0,3.3-2.8,5.8-6.1,5.4l-40.2-4.6
			c-0.7-0.1-1.3-0.7-1.3-1.4v-7.1C438.2,583.1,440,581.3,442.2,581.2z"/>
		<path fill="none" stroke="#929497" stroke-width="1.5" stroke-linejoin="round" stroke-miterlimit="10" d="M442.2,581.2l37.9-1.4
			c3.1-0.1,5.6,2.4,5.6,5.4v7.7c0,3.3-2.8,5.8-6.1,5.4l-40.2-4.6c-0.7-0.1-1.3-0.7-1.3-1.4v-7.1C438.2,583.1,440,581.3,442.2,581.2z
			"/>
	</g>
	<g filter="url(#ds1)">
		<path fill="#D0D2D3" d="M470.8,627.7l37.9-1.4c3.1-0.1,5.6,2.4,5.6,5.4v7.7c0,3.3-2.8,5.8-6.1,5.4l-40.2-4.6
			c-0.7-0.1-1.3-0.7-1.3-1.4v-7.1C466.8,629.6,468.6,627.8,470.8,627.7z"/>
		<path fill="none" stroke="#929497" stroke-width="1.5" stroke-linejoin="round" stroke-miterlimit="10" d="M470.8,627.7l37.9-1.4
			c3.1-0.1,5.6,2.4,5.6,5.4v7.7c0,3.3-2.8,5.8-6.1,5.4l-40.2-4.6c-0.7-0.1-1.3-0.7-1.3-1.4v-7.1
			C466.8,629.6,468.6,627.8,470.8,627.7z"/>
	</g>
	<g filter="url(#ds1)">
		<path fill="#D0D2D3" d="M486.7,621.7l37.9-1.4c3.1-0.1,5.6,2.4,5.6,5.4v7.7c0,3.3-2.8,5.8-6.1,5.4l-40.2-4.6
			c-0.7-0.1-1.3-0.7-1.3-1.4v-7.1C482.8,623.6,484.5,621.8,486.7,621.7z"/>
		<path fill="none" stroke="#929497" stroke-width="1.5" stroke-linejoin="round" stroke-miterlimit="10" d="M486.7,621.7l37.9-1.4
			c3.1-0.1,5.6,2.4,5.6,5.4v7.7c0,3.3-2.8,5.8-6.1,5.4l-40.2-4.6c-0.7-0.1-1.3-0.7-1.3-1.4v-7.1
			C482.8,623.6,484.5,621.8,486.7,621.7z"/>
	</g>
	<g filter="url(#ds1)">
		<path fill="#D0D2D3" d="M464,609.1l37.9-1.4c3.1-0.1,5.6,2.4,5.6,5.4v7.7c0,3.3-2.8,5.8-6.1,5.4l-40.2-4.6
			c-0.7-0.1-1.3-0.7-1.3-1.4v-7.1C460,611,461.8,609.2,464,609.1z"/>
		<path fill="none" stroke="#929497" stroke-width="1.5" stroke-linejoin="round" stroke-miterlimit="10" d="M464,609.1l37.9-1.4
			c3.1-0.1,5.6,2.4,5.6,5.4v7.7c0,3.3-2.8,5.8-6.1,5.4l-40.2-4.6c-0.7-0.1-1.3-0.7-1.3-1.4v-7.1C460,611,461.8,609.2,464,609.1z"/>
	</g>
	<g filter="url(#ds1)">
		<path fill="#D0D2D3" d="M451.8,618.4l37.9-1.4c3.1-0.1,5.6,2.4,5.6,5.4v7.7c0,3.3-2.8,5.8-6.1,5.4l-40.2-4.6
			c-0.7-0.1-1.3-0.7-1.3-1.4v-7.1C447.9,620.3,449.6,618.5,451.8,618.4z"/>
		<path fill="none" stroke="#929497" stroke-width="1.5" stroke-linejoin="round" stroke-miterlimit="10" d="M451.8,618.4l37.9-1.4
			c3.1-0.1,5.6,2.4,5.6,5.4v7.7c0,3.3-2.8,5.8-6.1,5.4l-40.2-4.6c-0.7-0.1-1.3-0.7-1.3-1.4v-7.1
			C447.9,620.3,449.6,618.5,451.8,618.4z"/>
	</g>
	<g filter="url(#ds1)">
		<path fill="#D0D2D3" d="M482.6,604l37.9-1.4c3.1-0.1,5.6,2.4,5.6,5.4v7.7c0,3.3-2.8,5.8-6.1,5.4l-40.2-4.6
			c-0.7-0.1-1.3-0.7-1.3-1.4v-7.1C478.6,605.9,480.4,604.1,482.6,604z"/>
		<path fill="none" stroke="#929497" stroke-width="1.5" stroke-linejoin="round" stroke-miterlimit="10" d="M482.6,604l37.9-1.4
			c3.1-0.1,5.6,2.4,5.6,5.4v7.7c0,3.3-2.8,5.8-6.1,5.4l-40.2-4.6c-0.7-0.1-1.3-0.7-1.3-1.4v-7.1C478.6,605.9,480.4,604.1,482.6,604z
			"/>
	</g>
	<g filter="url(#ds1)">
		<path fill="#D0D2D3" d="M494.8,595.8l37.9-1.4c3.1-0.1,5.6,2.4,5.6,5.4v7.7c0,3.3-2.8,5.8-6.1,5.4l-40.2-4.6
			c-0.7-0.1-1.3-0.7-1.3-1.4v-7.1C490.9,597.7,492.6,595.9,494.8,595.8z"/>
		<path fill="none" stroke="#929497" stroke-width="1.5" stroke-linejoin="round" stroke-miterlimit="10" d="M494.8,595.8l37.9-1.4
			c3.1-0.1,5.6,2.4,5.6,5.4v7.7c0,3.3-2.8,5.8-6.1,5.4l-40.2-4.6c-0.7-0.1-1.3-0.7-1.3-1.4v-7.1
			C490.9,597.7,492.6,595.9,494.8,595.8z"/>
	</g>
	<g filter="url(#ds1)">
		<path fill="#D0D2D3" d="M480.6,579.1l37.9-1.4c3.1-0.1,5.6,2.4,5.6,5.4v7.7c0,3.3-2.8,5.8-6.1,5.4l-40.2-4.6
			c-0.7-0.1-1.3-0.7-1.3-1.4v-7.1C476.7,581,478.4,579.2,480.6,579.1z"/>
		<path fill="none" stroke="#929497" stroke-width="1.5" stroke-linejoin="round" stroke-miterlimit="10" d="M480.6,579.1l37.9-1.4
			c3.1-0.1,5.6,2.4,5.6,5.4v7.7c0,3.3-2.8,5.8-6.1,5.4l-40.2-4.6c-0.7-0.1-1.3-0.7-1.3-1.4v-7.1C476.7,581,478.4,579.2,480.6,579.1z
			"/>
	</g>
	<g filter="url(#ds1)">
		<path fill="#D0D2D3" d="M494.5,582.5l37.9-1.4c3.1-0.1,5.6,2.4,5.6,5.4v7.7c0,3.3-2.8,5.8-6.1,5.4l-40.2-4.6
			c-0.7-0.1-1.3-0.7-1.3-1.4v-7.1C490.6,584.4,492.3,582.6,494.5,582.5z"/>
		<path fill="none" stroke="#929497" stroke-width="1.5" stroke-linejoin="round" stroke-miterlimit="10" d="M494.5,582.5l37.9-1.4
			c3.1-0.1,5.6,2.4,5.6,5.4v7.7c0,3.3-2.8,5.8-6.1,5.4l-40.2-4.6c-0.7-0.1-1.3-0.7-1.3-1.4v-7.1
			C490.6,584.4,492.3,582.6,494.5,582.5z"/>
	</g>
	<g filter="url(#ds1)">
		<path fill="#D0D2D3" d="M456.1,569.9l37.9-1.4c3.1-0.1,5.6,2.4,5.6,5.4v7.7c0,3.3-2.8,5.8-6.1,5.4l-40.2-4.6
			c-0.7-0.1-1.3-0.7-1.3-1.4v-7.1C452.2,571.7,453.9,569.9,456.1,569.9z"/>
		<path fill="none" stroke="#929497" stroke-width="1.5" stroke-linejoin="round" stroke-miterlimit="10" d="M456.1,569.9l37.9-1.4
			c3.1-0.1,5.6,2.4,5.6,5.4v7.7c0,3.3-2.8,5.8-6.1,5.4l-40.2-4.6c-0.7-0.1-1.3-0.7-1.3-1.4v-7.1
			C452.2,571.7,453.9,569.9,456.1,569.9z"/>
	</g>
	<g filter="url(#ds1)">
		<path fill="#D0D2D3" d="M479.8,561.6l37.9-1.4c3.1-0.1,5.6,2.4,5.6,5.4v7.7c0,3.3-2.8,5.8-6.1,5.4l-40.2-4.6
			c-0.7-0.1-1.3-0.7-1.3-1.4v-7.1C475.9,563.5,477.6,561.7,479.8,561.6z"/>
		<path fill="none" stroke="#929497" stroke-width="1.5" stroke-linejoin="round" stroke-miterlimit="10" d="M479.8,561.6l37.9-1.4
			c3.1-0.1,5.6,2.4,5.6,5.4v7.7c0,3.3-2.8,5.8-6.1,5.4l-40.2-4.6c-0.7-0.1-1.3-0.7-1.3-1.4v-7.1
			C475.9,563.5,477.6,561.7,479.8,561.6z"/>
	</g>
	<g filter="url(#ds1)">
		<path fill="#D0D2D3" d="M503,589.3l37.9-1.4c3.1-0.1,5.6,2.4,5.6,5.4v7.7c0,3.3-2.8,5.8-6.1,5.4l-40.2-4.6
			c-0.7-0.1-1.3-0.7-1.3-1.4v-7.1C499.1,591.2,500.8,589.4,503,589.3z"/>
		<path fill="none" stroke="#929497" stroke-width="1.5" stroke-linejoin="round" stroke-miterlimit="10" d="M503,589.3l37.9-1.4
			c3.1-0.1,5.6,2.4,5.6,5.4v7.7c0,3.3-2.8,5.8-6.1,5.4l-40.2-4.6c-0.7-0.1-1.3-0.7-1.3-1.4v-7.1C499.1,591.2,500.8,589.4,503,589.3z
			"/>
	</g>
	<g filter="url(#ds1)">
		<path fill="#D0D2D3" d="M511.7,580l37.9-1.4c3.1-0.1,5.6,2.4,5.6,5.4v7.7c0,3.3-2.8,5.8-6.1,5.4l-40.2-4.6
			c-0.7-0.1-1.3-0.7-1.3-1.4v-7.1C507.7,581.9,509.5,580.1,511.7,580z"/>
		<path fill="none" stroke="#929497" stroke-width="1.5" stroke-linejoin="round" stroke-miterlimit="10" d="M511.7,580l37.9-1.4
			c3.1-0.1,5.6,2.4,5.6,5.4v7.7c0,3.3-2.8,5.8-6.1,5.4l-40.2-4.6c-0.7-0.1-1.3-0.7-1.3-1.4v-7.1C507.7,581.9,509.5,580.1,511.7,580z
			"/>
	</g>
	<g filter="url(#ds1)">
		<path fill="#D0D2D3" d="M465.9,593.8l37.9-1.4c3.1-0.1,5.6,2.4,5.6,5.4v7.7c0,3.3-2.8,5.8-6.1,5.4l-40.2-4.6
			c-0.7-0.1-1.3-0.7-1.3-1.4v-7.1C462,595.7,463.7,593.9,465.9,593.8z"/>
		<path fill="none" stroke="#929497" stroke-width="1.5" stroke-linejoin="round" stroke-miterlimit="10" d="M465.9,593.8l37.9-1.4
			c3.1-0.1,5.6,2.4,5.6,5.4v7.7c0,3.3-2.8,5.8-6.1,5.4l-40.2-4.6c-0.7-0.1-1.3-0.7-1.3-1.4v-7.1C462,595.7,463.7,593.9,465.9,593.8z
			"/>
	</g>
	<g filter="url(#ds1)">
		<path fill="#D0D2D3" d="M506.3,622.6l37.9-1.4c3.1-0.1,5.6,2.4,5.6,5.4v7.7c0,3.3-2.8,5.8-6.1,5.4l-40.2-4.6
			c-0.7-0.1-1.3-0.7-1.3-1.4v-7.1C502.4,624.5,504.1,622.6,506.3,622.6z"/>
		<path fill="none" stroke="#929497" stroke-width="1.5" stroke-linejoin="round" stroke-miterlimit="10" d="M506.3,622.6l37.9-1.4
			c3.1-0.1,5.6,2.4,5.6,5.4v7.7c0,3.3-2.8,5.8-6.1,5.4l-40.2-4.6c-0.7-0.1-1.3-0.7-1.3-1.4v-7.1
			C502.4,624.5,504.1,622.6,506.3,622.6z"/>
	</g>
	<g filter="url(#ds1)">
		<path fill="#D0D2D3" d="M451.8,555.9l37.9-1.4c3.1-0.1,5.6,2.4,5.6,5.4v7.7c0,3.3-2.8,5.8-6.1,5.4l-40.2-4.6
			c-0.7-0.1-1.3-0.7-1.3-1.4V560C447.9,557.8,449.6,555.9,451.8,555.9z"/>
		<path fill="none" stroke="#929497" stroke-width="1.5" stroke-linejoin="round" stroke-miterlimit="10" d="M451.8,555.9l37.9-1.4
			c3.1-0.1,5.6,2.4,5.6,5.4v7.7c0,3.3-2.8,5.8-6.1,5.4l-40.2-4.6c-0.7-0.1-1.3-0.7-1.3-1.4V560C447.9,557.8,449.6,555.9,451.8,555.9
			z"/>
	</g>
</g>
</svg>
