<?xml version="1.0" encoding="utf-8"?>
<!-- Generator: Adobe Illustrator 18.1.1, SVG Export Plug-In . SVG Version: 6.00 Build 0)  -->
<!DOCTYPE svg PUBLIC "-//W3C//DTD SVG 1.1//EN" "http://www.w3.org/Graphics/SVG/1.1/DTD/svg11.dtd">
<svg version="1.1" id="Layer_1" xmlns="http://www.w3.org/2000/svg" xmlns:xlink="http://www.w3.org/1999/xlink" x="0px" y="0px"
	 viewBox="0 0 920 690" enable-background="new 0 0 920 690" xml:space="preserve">
<linearGradient id="SVGID_1_" gradientUnits="userSpaceOnUse" x1="425.8096" y1="-5.1941" x2="489.0464" y2="642.5042">
	<stop  offset="0" style="stop-color:#B6E9CF"/>
	<stop  offset="1" style="stop-color:#DDBF6B"/>
</linearGradient>
<rect x="0" y="0" fill="url(#SVGID_1_)" width="920" height="690"/>
<g opacity="0.45">
	<path fill="#6D6E70" d="M460.6,409c-21.8,0-43.5,0-65.3,0c-14.5-14.5-14.5-38,0-52.6c21.8,0,43.5,0,65.3,0
		C475.1,370.9,475.1,394.5,460.6,409z"/>
	<g>
		<g>
			<path fill="#E8E8E8" d="M394.7,378.9c1.5,0,3.3,0.6,3.3,1.7v1.2h-1.4v-0.6c0-0.6-0.9-0.9-1.8-0.9c-1.8,0-2.9,1.2-2.9,3
				c0,1.8,1.1,3.2,3,3.2c0.7,0,2-0.2,2-0.9v-0.9h-1.5v-1.2h3v2.6c0,1.3-2.3,1.8-3.5,1.8c-2.6,0-4.5-1.9-4.5-4.4
				C390.2,380.8,392.1,378.9,394.7,378.9z"/>
			<path fill="#E8E8E8" d="M399.5,386.4h1v-6.1h-1v-1.3h3.6v1.3h-1v6h2.5V385h1.3v2.6h-6.5V386.4z"/>
			<path fill="#E8E8E8" d="M407.9,386.4h1V384l-2.3-3.8h-0.8v-1.2h3.2v1.2h-0.8l1.3,2.2c0.1,0.1,0.1,0.2,0.1,0.3c0,0,0,0.1,0,0.1h0
				c0,0,0-0.1,0-0.1c0-0.1,0.1-0.2,0.1-0.3l1.3-2.2h-0.8v-1.2h3.1v1.2h-0.8l-2.3,3.8v2.4h1v1.2h-3.6V386.4z"/>
			<path fill="#E8E8E8" d="M418.4,378.9c1,0,3.3,0.4,3.3,1.7v1.2h-1.4v-0.7c0-0.6-1.1-0.9-1.8-0.9c-1.6,0-2.8,1.2-2.8,3
				c0,1.9,1.2,3.2,2.9,3.2c0.5,0,1.8-0.2,1.8-0.8v-0.7h1.4v1.2c0,1.3-2.2,1.7-3.4,1.7c-2.6,0-4.4-1.9-4.4-4.4
				C414,380.8,415.9,378.9,418.4,378.9z"/>
			<path fill="#E8E8E8" d="M427.3,378.9c2.5,0,4.4,1.9,4.4,4.3c0,2.5-1.9,4.5-4.4,4.5c-2.5,0-4.4-2-4.4-4.5
				C422.9,380.9,424.8,378.9,427.3,378.9z M427.3,386.4c1.5,0,2.8-1.3,2.8-3.1c0-1.7-1.3-3-2.8-3s-2.8,1.3-2.8,3
				C424.5,385.1,425.8,386.4,427.3,386.4z"/>
			<path fill="#E8E8E8" d="M432.9,386.4h1v-6.1h-1v-1.3h3.6v1.3h-1v6h2.5V385h1.3v2.6h-6.5V386.4z"/>
			<path fill="#E8E8E8" d="M441.2,386.4h1V384l-2.3-3.8h-0.8v-1.2h3.2v1.2h-0.8l1.3,2.2c0.1,0.1,0.1,0.2,0.1,0.3c0,0,0,0.1,0,0.1h0
				c0,0,0-0.1,0-0.1c0-0.1,0.1-0.2,0.1-0.3l1.3-2.2h-0.8v-1.2h3.1v1.2h-0.8l-2.3,3.8v2.4h1v1.2h-3.6V386.4z"/>
			<path fill="#E8E8E8" d="M448.9,384.9v0.6c0,0.5,0.7,0.9,1.5,0.9c0.9,0,1.5-0.4,1.5-1.1c0-0.9-1-1.1-2-1.5
				c-1.1-0.4-2.3-0.9-2.3-2.5c0-1.7,1.4-2.4,2.9-2.4c1.3,0,2.7,0.5,2.7,1.5v1.1h-1.4V381c0-0.4-0.6-0.7-1.3-0.7
				c-0.7,0-1.3,0.3-1.3,0.9c0,0.8,0.8,1,1.7,1.4c1.3,0.4,2.5,1,2.5,2.6c0,1.7-1.5,2.5-3.1,2.5c-1.4,0-2.9-0.6-2.9-1.9v-1H448.9z"/>
			<path fill="#E8E8E8" d="M454.7,386.4h1v-6.2h-1v-1.2h3.6v1.2h-1v6.2h1v1.2h-3.6V386.4z"/>
			<path fill="#E8E8E8" d="M460.9,384.9v0.6c0,0.5,0.7,0.9,1.5,0.9c0.9,0,1.5-0.4,1.5-1.1c0-0.9-1-1.1-2-1.5
				c-1.1-0.4-2.3-0.9-2.3-2.5c0-1.7,1.4-2.4,2.9-2.4c1.3,0,2.7,0.5,2.7,1.5v1.1h-1.4V381c0-0.4-0.6-0.7-1.3-0.7
				c-0.7,0-1.3,0.3-1.3,0.9c0,0.8,0.8,1,1.7,1.4c1.3,0.4,2.5,1,2.5,2.6c0,1.7-1.5,2.5-3.1,2.5c-1.4,0-2.9-0.6-2.9-1.9v-1H460.9z"/>
		</g>
	</g>
</g>
<g opacity="0.45">
	<path fill="#6D6E70" d="M790.4,424c-27.1,0-54.2,0-81.3,0c-9.4-18.4,10.1-43.1,0-62.9c27.1,0,54.2,0,81.3,0
		C799.3,385.9,780.4,404.2,790.4,424z"/>
	<g>
		<g>
			<path fill="#E8E8E8" d="M719.6,389.2h0.8v-5.1h-0.8v-1h5.1v1.8h-1.1v-0.7h-1.8v2h2.3v1h-2.3v1.9h0.9v1h-3.1V389.2z"/>
			<path fill="#E8E8E8" d="M724.7,389.2h0.6l2.1-6.1h1.5l2.1,6.1h0.6v1h-2.7v-1h0.7l-0.4-1.3h-2.2l-0.4,1.3h0.7v1h-2.7V389.2z
				 M729,386.8l-0.7-2l-0.1-0.4c0-0.1,0-0.1,0-0.2h0l0,0.2c0,0.1-0.1,0.2-0.1,0.4l-0.7,2H729z"/>
			<path fill="#E8E8E8" d="M733.3,389.2h0.8v-5.1h-1.3v1.1h-1.1v-2.1h6.2v2.1h-1.1v-1.1h-1.3v5.1h0.9v1h-3V389.2z"/>
			<path fill="#E8E8E8" d="M740,389.2h0.8v-5.1h-1.3v1.1h-1.1v-2.1h6.2v2.1h-1.1v-1.1h-1.3v5.1h0.9v1h-3V389.2z"/>
			<path fill="#E8E8E8" d="M746.7,389.2h0.9v-2l-1.9-3.1H745v-1h2.6v1H747l1.1,1.9c0,0.1,0.1,0.2,0.1,0.2c0,0,0,0.1,0,0.1h0
				c0,0,0-0.1,0-0.1c0-0.1,0.1-0.1,0.1-0.2l1.1-1.9h-0.7v-1h2.6v1h-0.6l-1.9,3.1v2h0.8v1h-3V389.2z"/>
			<path fill="#E8E8E8" d="M754.1,389.2h0.6l2.1-6.1h1.5l2.1,6.1h0.6v1h-2.7v-1h0.7l-0.4-1.3h-2.2l-0.4,1.3h0.7v1h-2.7V389.2z
				 M758.4,386.8l-0.7-2l-0.1-0.4c0-0.1,0-0.1,0-0.2h0l0,0.2c0,0.1,0,0.2-0.1,0.4l-0.7,2H758.4z"/>
			<path fill="#E8E8E8" d="M765.2,383c0.9,0,2.8,0.3,2.8,1.4v1h-1.2v-0.5c0-0.5-0.9-0.7-1.5-0.7c-1.4,0-2.4,1-2.4,2.5
				c0,1.6,1,2.6,2.4,2.6c0.4,0,1.5-0.1,1.5-0.7v-0.5h1.2v1c0,1.1-1.8,1.4-2.8,1.4c-2.2,0-3.7-1.6-3.7-3.7
				C761.6,384.5,763.2,383,765.2,383z"/>
			<path fill="#E8E8E8" d="M769.1,389.2h0.8v-5.1h-0.8v-1h3v1h-0.9v5.1h0.9v1h-3V389.2z"/>
			<path fill="#E8E8E8" d="M773.1,389.2h0.8v-5.1h-0.8v-1h3.1c0.6,0,1,0,1.5,0.2c1.4,0.4,2.3,1.6,2.3,3.4c0,1.7-0.8,2.9-2.2,3.3
				c-0.5,0.2-1,0.2-1.6,0.2h-3.1V389.2z M776.1,389.1c0.5,0,0.8,0,1.2-0.2c0.8-0.3,1.3-1.1,1.3-2.3c0-1.2-0.5-2-1.4-2.3
				c-0.4-0.2-0.7-0.2-1.1-0.2h-0.9v5H776.1z"/>
			<path fill="#E8E8E8" d="M722.1,399.9v0.5c0,0.4,0.6,0.7,1.2,0.7c0.7,0,1.2-0.3,1.2-0.9c0-0.7-0.8-0.9-1.6-1.3
				c-0.9-0.4-1.9-0.8-1.9-2.1c0-1.4,1.1-2,2.4-2c1.1,0,2.2,0.4,2.2,1.2v0.9h-1.2v-0.5c0-0.4-0.5-0.5-1.1-0.5c-0.6,0-1.1,0.2-1.1,0.8
				c0,0.7,0.7,0.9,1.4,1.2c1.1,0.4,2.1,0.8,2.1,2.1c0,1.4-1.2,2.1-2.6,2.1c-1.2,0-2.4-0.5-2.4-1.6v-0.8H722.1z"/>
			<path fill="#E8E8E8" d="M728.2,401.2h0.9v-2l-1.9-3.1h-0.6v-1h2.6v1h-0.7l1.1,1.9c0,0.1,0.1,0.2,0.1,0.2c0,0,0,0.1,0,0.1h0
				c0,0,0-0.1,0-0.1c0-0.1,0.1-0.1,0.1-0.2l1.1-1.9h-0.7v-1h2.6v1h-0.6l-1.9,3.1v2h0.8v1h-3V401.2z"/>
			<path fill="#E8E8E8" d="M733.5,401.2h0.8v-5.1h-0.8v-1h2.2l3,4.6c0.1,0.1,0.1,0.3,0.2,0.4l0.1,0.2h0l0-0.2c0-0.1,0-0.3,0-0.4
				v-3.5H738v-1h3v1h-0.8v6.1h-1.3l-3-4.5c-0.1-0.1-0.1-0.3-0.2-0.4l-0.1-0.2h0l0,0.2c0,0.1,0,0.3,0,0.4v3.5h0.9v1h-3V401.2z"/>
			<path fill="#E8E8E8" d="M743.3,401.2h0.8v-5.1h-1.3v1.1h-1.1v-2.1h6.2v2.1h-1.1v-1.1h-1.3v5.1h0.9v1h-3V401.2z"/>
			<path fill="#E8E8E8" d="M748.7,401.2h0.8v-5.1h-0.8v-1h3v1h-0.9v2h3.2v-2h-0.9v-1h3v1h-0.8v5.1h0.8v1h-3v-1h0.9v-2h-3.2v2h0.9v1
				h-3V401.2z"/>
			<path fill="#E8E8E8" d="M757.2,401.2h0.8v-5.1h-0.8v-1h5.3v1.8h-1.1v-0.8h-2v1.9h2.3v1h-2.3v2h2.1v-0.8h1.1v1.8h-5.4V401.2z"/>
			<path fill="#E8E8E8" d="M764.8,399.9v0.5c0,0.4,0.6,0.7,1.2,0.7c0.7,0,1.2-0.3,1.2-0.9c0-0.7-0.8-0.9-1.6-1.3
				c-0.9-0.4-1.9-0.8-1.9-2.1c0-1.4,1.1-2,2.4-2c1.1,0,2.2,0.4,2.2,1.2v0.9h-1.2v-0.5c0-0.4-0.5-0.5-1.1-0.5c-0.6,0-1.1,0.2-1.1,0.8
				c0,0.7,0.7,0.9,1.4,1.2c1.1,0.4,2.1,0.8,2.1,2.1c0,1.4-1.2,2.1-2.6,2.1c-1.2,0-2.4-0.5-2.4-1.6v-0.8H764.8z"/>
			<path fill="#E8E8E8" d="M769.6,401.2h0.8v-5.1h-0.8v-1h3v1h-0.9v5.1h0.9v1h-3V401.2z"/>
			<path fill="#E8E8E8" d="M774.8,399.9v0.5c0,0.4,0.6,0.7,1.2,0.7c0.7,0,1.2-0.3,1.2-0.9c0-0.7-0.8-0.9-1.6-1.3
				c-0.9-0.4-1.9-0.8-1.9-2.1c0-1.4,1.1-2,2.4-2c1.1,0,2.2,0.4,2.2,1.2v0.9h-1.2v-0.5c0-0.4-0.5-0.5-1.1-0.5c-0.6,0-1.1,0.2-1.1,0.8
				c0,0.7,0.7,0.9,1.4,1.2c1.1,0.4,2.1,0.8,2.1,2.1c0,1.4-1.2,2.1-2.6,2.1c-1.2,0-2.4-0.5-2.4-1.6v-0.8H774.8z"/>
		</g>
	</g>
</g>
<g opacity="0.45">
	<path fill="#6D6E70" d="M213.4,373.9l-33.8,7.1c-10.5,2.2-21.4,2.2-31.9,0l-33.8-7.1c-0.6-0.1-1-0.6-1-1.2v-25.5
		c0-0.7,0.5-1.2,1.2-1.2h98.9c0.7,0,1.2,0.5,1.2,1.2v25.5C214.4,373.2,214,373.7,213.4,373.9z"/>
	<g>
		<g>
			<path fill="#E8E8E8" d="M117.6,363.5h1v-6.2h-1v-1.2h3.7c0.7,0,1.2,0,1.8,0.2c1.7,0.5,2.8,2,2.8,4.1c0,2-1,3.5-2.6,4
				c-0.6,0.2-1.2,0.3-1.9,0.3h-3.7V363.5z M121.2,363.4c0.5,0,1,0,1.4-0.2c1-0.4,1.6-1.4,1.6-2.8c0-1.5-0.6-2.4-1.6-2.8
				c-0.4-0.2-0.8-0.2-1.3-0.2h-1v6H121.2z"/>
			<path fill="#E8E8E8" d="M127,363.5h1v-6.2h-1v-1.2h6.3v2.2H132v-0.9h-2.4v2.3h2.8v1.3h-2.8v2.4h2.6v-1h1.3v2.2H127V363.5z"/>
			<path fill="#E8E8E8" d="M134.2,363.5h0.8l2.6-7.3h1.8l2.6,7.3h0.8v1.2h-3.2v-1.2h0.8l-0.5-1.6h-2.7l-0.5,1.6h0.8v1.2h-3.2V363.5z
				 M139.4,360.7l-0.8-2.4l-0.1-0.5c0-0.1,0-0.2,0-0.2h0l0,0.2c0,0.1-0.1,0.3-0.1,0.5l-0.8,2.4H139.4z"/>
			<path fill="#E8E8E8" d="M143.3,363.5h1l0.5-6.2h-1v-1.2h2.8l1.9,4.8c0.1,0.2,0.1,0.4,0.2,0.5l0,0.2h0l0-0.2
				c0-0.1,0.1-0.3,0.2-0.5l1.9-4.8h2.8v1.2h-1l0.5,6.2h1v1.2h-3.5v-1.2h0.9l-0.3-4.3c0-0.2,0-0.3,0-0.5l0-0.3h0c0,0.1,0,0.2-0.1,0.3
				c0,0.2-0.1,0.3-0.1,0.5l-1.6,3.9h-1.3l-1.6-3.9c0-0.1-0.1-0.3-0.1-0.5c0-0.1,0-0.2-0.1-0.3h0l0,0.3c0,0.2,0,0.3,0,0.5l-0.3,4.3h1
				v1.2h-3.5V363.5z"/>
			<path fill="#E8E8E8" d="M155,363.5h1v-6.2h-1v-1.2h3.6v1.2h-1v6.2h1v1.2H155V363.5z"/>
			<path fill="#E8E8E8" d="M159.9,363.5h1v-6.2h-1v-1.2h2.6l3.6,5.5c0.1,0.1,0.2,0.3,0.2,0.5l0.1,0.3h0l0-0.3c0-0.2,0-0.4,0-0.5
				v-4.2h-1.1v-1.2h3.6v1.2h-1v7.3h-1.6l-3.6-5.5c-0.1-0.1-0.2-0.3-0.2-0.5l-0.1-0.3h0l0,0.3c0,0.2,0,0.4,0,0.5v4.2h1.1v1.2h-3.6
				V363.5z"/>
			<path fill="#E8E8E8" d="M169.4,363.5h0.8l2.6-7.3h1.8l2.6,7.3h0.8v1.2h-3.2v-1.2h0.8l-0.5-1.6h-2.7l-0.5,1.6h0.8v1.2h-3.2V363.5z
				 M174.6,360.7l-0.8-2.4l-0.1-0.5c0-0.1,0-0.2,0-0.2h0l0,0.2c0,0.1-0.1,0.3-0.1,0.5l-0.8,2.4H174.6z"/>
			<path fill="#E8E8E8" d="M179.7,363.5h1v-6.1h-1.6v1.3h-1.3v-2.5h7.5v2.5h-1.3v-1.3h-1.6v6.1h1v1.2h-3.6V363.5z"/>
			<path fill="#E8E8E8" d="M186.2,363.5h1v-6.2h-1v-1.2h3.6v1.2h-1v6.2h1v1.2h-3.6V363.5z"/>
			<path fill="#E8E8E8" d="M195.3,356c2.5,0,4.4,1.9,4.4,4.3c0,2.5-1.9,4.5-4.4,4.5s-4.4-2-4.4-4.5C190.9,357.9,192.8,356,195.3,356
				z M195.3,363.4c1.5,0,2.8-1.3,2.8-3.1c0-1.7-1.3-3-2.8-3s-2.8,1.3-2.8,3C192.5,362.1,193.8,363.4,195.3,363.4z"/>
			<path fill="#E8E8E8" d="M200.9,363.5h1v-6.2h-1v-1.2h2.6l3.6,5.5c0.1,0.1,0.2,0.3,0.2,0.5l0.1,0.3h0l0-0.3c0-0.2,0-0.4,0-0.5
				v-4.2h-1.1v-1.2h3.6v1.2h-1v7.3h-1.6l-3.6-5.5c-0.1-0.1-0.2-0.3-0.2-0.5l-0.1-0.3h0l0,0.3c0,0.2,0,0.4,0,0.5v4.2h1.1v1.2h-3.6
				V363.5z"/>
		</g>
	</g>
</g>
<g opacity="0.45">
	<path fill="#6D6E70" d="M229.4,572.1l-89.6,22.4c-9.9,2.5-19.6-5-19.6-15.3v-56h116.2v39.9C236.4,567.4,233.5,571.1,229.4,572.1z"
		/>
	<g>
		<g>
			<path fill="#E8E8E8" d="M134.1,542.6h0.8l2.6-7.3h1.8l2.6,7.3h0.8v1.2h-3.2v-1.2h0.8l-0.5-1.6h-2.7l-0.5,1.6h0.8v1.2h-3.2V542.6z
				 M139.3,539.8l-0.8-2.4l-0.1-0.5c0-0.1,0-0.2,0-0.2h0l0,0.2c0,0.1-0.1,0.3-0.1,0.5l-0.8,2.4H139.3z"/>
			<path fill="#E8E8E8" d="M143.1,542.6h1l0.5-6.2h-1v-1.2h2.8l1.9,4.8c0.1,0.2,0.1,0.4,0.2,0.5l0,0.2h0l0-0.2
				c0-0.1,0.1-0.3,0.2-0.5l1.9-4.8h2.8v1.2h-1l0.5,6.2h1v1.2h-3.5v-1.2h0.9l-0.3-4.3c0-0.2,0-0.3,0-0.5l0-0.3h0c0,0.1,0,0.2-0.1,0.3
				c0,0.2-0.1,0.3-0.1,0.5l-1.6,3.9h-1.3l-1.6-3.9c0-0.1-0.1-0.3-0.1-0.5c0-0.1,0-0.2-0.1-0.3h0l0,0.3c0,0.2,0,0.3,0,0.5l-0.3,4.3h1
				v1.2h-3.5V542.6z"/>
			<path fill="#E8E8E8" d="M154.9,542.6h1v-6.2h-1v-1.2h3.6v1.2h-1v6.2h1v1.2h-3.6V542.6z"/>
			<path fill="#E8E8E8" d="M159.7,542.6h1v-6.2h-1v-1.2h2.6l3.6,5.5c0.1,0.1,0.2,0.3,0.2,0.5l0.1,0.3h0l0-0.3c0-0.2,0-0.4,0-0.5
				v-4.2h-1.1v-1.2h3.6v1.2h-1v7.3h-1.6l-3.6-5.5c-0.1-0.1-0.2-0.3-0.2-0.5l-0.1-0.3h0l0,0.3c0,0.2,0,0.4,0,0.5v4.2h1.1v1.2h-3.6
				V542.6z"/>
			<path fill="#E8E8E8" d="M174.2,535.1c2.5,0,4.4,1.9,4.4,4.3c0,2.5-1.9,4.5-4.4,4.5s-4.4-2-4.4-4.5
				C169.8,537,171.7,535.1,174.2,535.1z M174.2,542.5c1.5,0,2.8-1.3,2.8-3.1c0-1.7-1.3-3-2.8-3s-2.8,1.3-2.8,3
				C171.4,541.2,172.7,542.5,174.2,542.5z"/>
			<path fill="#E8E8E8" d="M182.3,542.6h0.8l2.6-7.3h1.8l2.6,7.3h0.8v1.2h-3.2v-1.2h0.8l-0.5-1.6h-2.7l-0.5,1.6h0.8v1.2h-3.2V542.6z
				 M187.5,539.8l-0.8-2.4l-0.1-0.5c0-0.1,0-0.2,0-0.2h0l0,0.2c0,0.1-0.1,0.3-0.1,0.5l-0.8,2.4H187.5z"/>
			<path fill="#E8E8E8" d="M195.6,535.1c1,0,3.3,0.4,3.3,1.7v1.2h-1.4v-0.7c0-0.6-1.1-0.9-1.8-0.9c-1.6,0-2.8,1.2-2.8,3
				c0,1.9,1.2,3.2,2.9,3.2c0.5,0,1.8-0.2,1.8-0.8v-0.7h1.4v1.2c0,1.3-2.2,1.7-3.4,1.7c-2.6,0-4.5-1.9-4.5-4.4
				C191.2,537,193.2,535.1,195.6,535.1z"/>
			<path fill="#E8E8E8" d="M200.3,542.6h1v-6.2h-1v-1.2h3.6v1.2h-1v6.2h1v1.2h-3.6V542.6z"/>
			<path fill="#E8E8E8" d="M205.1,542.6h1v-6.2h-1v-1.2h3.7c0.7,0,1.2,0,1.8,0.2c1.7,0.5,2.8,2,2.8,4.1c0,2-1,3.5-2.6,4
				c-0.6,0.2-1.2,0.3-1.9,0.3h-3.7V542.6z M208.7,542.5c0.5,0,1,0,1.4-0.2c1-0.4,1.6-1.4,1.6-2.8c0-1.5-0.6-2.4-1.6-2.8
				c-0.4-0.2-0.8-0.2-1.3-0.2h-1v6H208.7z"/>
			<path fill="#E8E8E8" d="M134.5,557h1v-6.2h-1v-1.2h4.1c0.5,0,1,0,1.4,0.2c0.9,0.4,1.5,1.3,1.5,2.5c0,1.2-0.6,2.2-1.6,2.6
				c-0.4,0.1-0.8,0.2-1.3,0.2h-1.5v1.8h1v1.2h-3.6V557z M138.4,553.9c0.3,0,0.6-0.1,0.9-0.2c0.5-0.2,0.7-0.7,0.7-1.3
				c0-0.6-0.2-1-0.6-1.3c-0.2-0.1-0.5-0.2-0.9-0.2h-1.3v3H138.4z"/>
			<path fill="#E8E8E8" d="M142.5,557h1v-6.2h-1v-1.2h3.8c0.6,0,1.1,0,1.6,0.2c1,0.3,1.6,1.1,1.6,2.3s-0.6,2-1.6,2.4v0l0.1,0.1
				c0.1,0.1,0.2,0.2,0.3,0.3l1,1.8c0.1,0.2,0.3,0.3,0.6,0.3h0.3v1.2h-1c-0.7,0-0.9-0.1-1.2-0.6l-1.2-2.2c-0.2-0.3-0.3-0.4-0.8-0.4
				h-0.8v2.1h1v1.2h-3.6V557z M146.5,553.7c0.8,0,1.4-0.5,1.4-1.4c0-0.6-0.2-1-0.7-1.2c-0.2-0.1-0.6-0.2-1-0.2h-1.2v2.7H146.5z"/>
			<path fill="#E8E8E8" d="M155.4,549.5c2.5,0,4.4,1.9,4.4,4.3c0,2.5-1.9,4.5-4.4,4.5s-4.4-2-4.4-4.5
				C151,551.4,152.9,549.5,155.4,549.5z M155.4,556.9c1.5,0,2.8-1.3,2.8-3.1c0-1.7-1.3-3-2.8-3s-2.8,1.3-2.8,3
				C152.6,555.6,153.8,556.9,155.4,556.9z"/>
			<path fill="#E8E8E8" d="M165.2,549.5c1,0,3.3,0.4,3.3,1.7v1.2h-1.4v-0.7c0-0.6-1.1-0.9-1.8-0.9c-1.6,0-2.8,1.2-2.8,3
				c0,1.9,1.2,3.2,2.9,3.2c0.5,0,1.8-0.2,1.8-0.8v-0.7h1.4v1.2c0,1.3-2.2,1.7-3.4,1.7c-2.6,0-4.4-1.9-4.4-4.4
				C160.8,551.4,162.7,549.5,165.2,549.5z"/>
			<path fill="#E8E8E8" d="M169.8,557h1v-6.2h-1v-1.2h6.3v2.2h-1.3v-0.9h-2.4v2.3h2.8v1.3h-2.8v2.4h2.6v-1h1.3v2.2h-6.5V557z"/>
			<path fill="#E8E8E8" d="M178.9,555.4v0.6c0,0.5,0.7,0.9,1.5,0.9c0.9,0,1.5-0.4,1.5-1.1c0-0.9-1-1.1-2-1.5
				c-1.1-0.4-2.3-0.9-2.3-2.5c0-1.7,1.4-2.4,2.9-2.4c1.3,0,2.7,0.5,2.7,1.5v1.1h-1.4v-0.6c0-0.4-0.6-0.7-1.3-0.7
				c-0.7,0-1.3,0.3-1.3,0.9c0,0.8,0.8,1,1.7,1.4c1.3,0.4,2.5,1,2.5,2.6c0,1.7-1.5,2.5-3.1,2.5c-1.4,0-2.9-0.6-2.9-1.9v-1H178.9z"/>
			<path fill="#E8E8E8" d="M186.1,555.4v0.6c0,0.5,0.7,0.9,1.5,0.9c0.9,0,1.5-0.4,1.5-1.1c0-0.9-1-1.1-2-1.5
				c-1.1-0.4-2.3-0.9-2.3-2.5c0-1.7,1.4-2.4,2.9-2.4c1.3,0,2.7,0.5,2.7,1.5v1.1H189v-0.6c0-0.4-0.6-0.7-1.3-0.7
				c-0.7,0-1.3,0.3-1.3,0.9c0,0.8,0.8,1,1.7,1.4c1.3,0.4,2.5,1,2.5,2.6c0,1.7-1.5,2.5-3.1,2.5c-1.4,0-2.9-0.6-2.9-1.9v-1H186.1z"/>
			<path fill="#E8E8E8" d="M191.8,557h1v-6.2h-1v-1.2h3.6v1.2h-1v6.2h1v1.2h-3.6V557z"/>
			<path fill="#E8E8E8" d="M196.6,557h1v-6.2h-1v-1.2h2.6l3.6,5.5c0.1,0.1,0.2,0.3,0.2,0.5l0.1,0.3h0l0-0.3c0-0.2,0-0.4,0-0.5v-4.2
				h-1.1v-1.2h3.6v1.2h-1v7.3h-1.6l-3.6-5.5c-0.1-0.1-0.2-0.3-0.2-0.5l-0.1-0.3h0l0,0.3c0,0.2,0,0.4,0,0.5v4.2h1.1v1.2h-3.6V557z"/>
			<path fill="#E8E8E8" d="M211.2,549.5c1.5,0,3.3,0.6,3.3,1.7v1.2h-1.4v-0.6c0-0.6-0.9-0.9-1.8-0.9c-1.8,0-2.9,1.2-2.9,3
				c0,1.8,1.1,3.2,3,3.2c0.7,0,2-0.2,2-0.9v-0.9h-1.5V554h3v2.6c0,1.3-2.3,1.8-3.5,1.8c-2.6,0-4.5-1.9-4.5-4.4
				C206.7,551.3,208.6,549.5,211.2,549.5z"/>
			<path fill="#E8E8E8" d="M134.5,571.4h1v-6.2h-1v-1.2h6.3v2.2h-1.3v-0.9h-2.4v2.3h2.8v1.3h-2.8v2.4h2.6v-1h1.3v2.2h-6.5V571.4z"/>
			<path fill="#E8E8E8" d="M142.2,571.4h1v-6.2h-1v-1.2h2.6l3.6,5.5c0.1,0.1,0.2,0.3,0.2,0.5l0.1,0.3h0l0-0.3c0-0.2,0-0.4,0-0.5
				v-4.2h-1.1v-1.2h3.6v1.2h-1v7.3h-1.6l-3.6-5.5c-0.1-0.1-0.2-0.3-0.2-0.5l-0.1-0.3h0l0,0.3c0,0.2,0,0.4,0,0.5v4.2h1.1v1.2h-3.6
				V571.4z"/>
			<path fill="#E8E8E8" d="M152.4,571.6l4.1-5.9c0.1-0.1,0.2-0.2,0.2-0.3l0.1-0.1v0c0,0-0.1,0-0.2,0c-0.1,0-0.2,0-0.3,0h-2.6v1.3
				h-1.3v-2.5h6.3v1l-4.1,5.9c-0.1,0.1-0.2,0.2-0.2,0.3l-0.1,0.1v0l0.2,0c0.1,0,0.2,0,0.3,0h2.7V570h1.3v2.6h-6.5V571.6z"/>
			<path fill="#E8E8E8" d="M161.6,571.4h1V569l-2.3-3.8h-0.8v-1.2h3.2v1.2h-0.8l1.3,2.2c0.1,0.1,0.1,0.2,0.1,0.3c0,0,0,0.1,0,0.1h0
				c0,0,0-0.1,0-0.1c0-0.1,0.1-0.2,0.1-0.3l1.3-2.2h-0.8v-1.2h3.1v1.2h-0.8l-2.3,3.8v2.4h1v1.2h-3.6V571.4z"/>
			<path fill="#E8E8E8" d="M167.8,571.4h1l0.5-6.2h-1v-1.2h2.8l1.9,4.8c0.1,0.2,0.1,0.4,0.2,0.5l0,0.2h0l0-0.2
				c0-0.1,0.1-0.3,0.2-0.5l1.9-4.8h2.8v1.2h-1l0.5,6.2h1v1.2H175v-1.2h0.9l-0.3-4.3c0-0.2,0-0.3,0-0.5l0-0.3h0c0,0.1,0,0.2-0.1,0.3
				c0,0.2-0.1,0.3-0.1,0.5l-1.6,3.9h-1.3l-1.6-3.9c0-0.1-0.1-0.3-0.1-0.5c0-0.1,0-0.2-0.1-0.3h0l0,0.3c0,0.2,0,0.3,0,0.5l-0.3,4.3h1
				v1.2h-3.5V571.4z"/>
			<path fill="#E8E8E8" d="M179.5,571.4h1v-6.2h-1v-1.2h6.3v2.2h-1.3v-0.9h-2.4v2.3h2.8v1.3h-2.8v2.4h2.6v-1h1.3v2.2h-6.5V571.4z"/>
			<path fill="#E8E8E8" d="M188.6,569.8v0.6c0,0.5,0.7,0.9,1.5,0.9c0.9,0,1.5-0.4,1.5-1.1c0-0.9-1-1.1-2-1.5
				c-1.1-0.4-2.3-0.9-2.3-2.5c0-1.7,1.4-2.4,2.9-2.4c1.3,0,2.7,0.5,2.7,1.5v1.1h-1.4V566c0-0.4-0.6-0.7-1.3-0.7
				c-0.7,0-1.3,0.3-1.3,0.9c0,0.8,0.8,1,1.7,1.4c1.3,0.4,2.5,1,2.5,2.6c0,1.7-1.5,2.5-3.1,2.5c-1.4,0-2.9-0.6-2.9-1.9v-1H188.6z"/>
		</g>
	</g>
</g>
<path opacity="0.1" fill="#6D6E70" d="M527.6,535.4l-23.7,5.6c-3.8,0.9-7.9,0.9-11.7,0l-23.7-5.6v-26.2l23.7-5.6
	c3.8-0.9,7.9-0.9,11.7,0l23.7,5.6V535.4z"/>
</svg>
