<?xml version="1.0" encoding="utf-8"?>
<!-- Generator: Adobe Illustrator 18.1.1, SVG Export Plug-In . SVG Version: 6.00 Build 0)  -->
<!DOCTYPE svg PUBLIC "-//W3C//DTD SVG 1.1//EN" "http://www.w3.org/Graphics/SVG/1.1/DTD/svg11.dtd">
<svg version="1.1" id="Layer_1" xmlns="http://www.w3.org/2000/svg" xmlns:xlink="http://www.w3.org/1999/xlink" x="0px" y="0px"
	 viewBox="0 0 920 690" enable-background="new 0 0 920 690" xml:space="preserve">
<filter  height="170%" width="170%" id="ds1" y="-20%" x="-30%">
	<feOffset  in="SourceAlpha" result="offOut" dy="1" dx="0"></feOffset>
	<feGaussianBlur  in="offOut" stdDeviation="2" result="blurOut"></feGaussianBlur>
	<feComponentTransfer>
		<feFuncA  type="linear" slope="0.5"></feFuncA>
	</feComponentTransfer>
	<feMerge>
		<feMergeNode></feMergeNode>
		<feMergeNode  in="SourceGraphic"></feMergeNode>
	</feMerge>
</filter>
<g opacity="0.45">
	<g filter="url(#ds1)">
		<path fill="#D0D2D3" d="M576.4,339.6c-0.1-1.6-1.3-3.6-2.8-4.4l-6.7-3.4c-1.5-0.8-3.8-0.6-5.2,0.3l-6.3,4.1
			c-1.4,0.9-2.5,3-2.5,4.6l0,6.7c0,0.8-0.1,2.7-0.1,2.7s-1.4,1.9-2,2.5l-6.2,6.7c-1.1,1.2-1.4,3.4-0.6,4.8l4.5,8
			c0.8,1.4,2.8,2.4,4.4,2l9-1.8c1.6-0.3,3.1-1.9,3.3-3.6l1.1-9.1c0.2-1.6,0.4-3,0.4-3s1.1-0.7,2.5-1.6l5.3-3.4
			c1.4-0.9,2.5-3,2.4-4.6L576.4,339.6z"/>
		<path fill="none" stroke="#929497" stroke-width="1.4546" stroke-linejoin="round" stroke-miterlimit="10" d="M576.4,339.6
			c-0.1-1.6-1.3-3.6-2.8-4.4l-6.7-3.4c-1.5-0.8-3.8-0.6-5.2,0.3l-6.3,4.1c-1.4,0.9-2.5,3-2.5,4.6l0,6.7c0,0.8-0.1,2.7-0.1,2.7
			s-1.4,1.9-2,2.5l-6.2,6.7c-1.1,1.2-1.4,3.4-0.6,4.8l4.5,8c0.8,1.4,2.8,2.4,4.4,2l9-1.8c1.6-0.3,3.1-1.9,3.3-3.6l1.1-9.1
			c0.2-1.6,0.4-3,0.4-3s1.1-0.7,2.5-1.6l5.3-3.4c1.4-0.9,2.5-3,2.4-4.6L576.4,339.6z"/>
	</g>
	<g filter="url(#ds1)">
		<circle fill="#F4F4F4" cx="550.5" cy="337.2" r="5.1"/>
		<g>
			<rect x="549.8" y="333.9" fill="#3F3F3F" width="1.5" height="6.6"/>
			<rect x="547.2" y="336.4" fill="#3F3F3F" width="6.6" height="1.5"/>
		</g>
	</g>
	<g filter="url(#ds1)">
		<circle fill="#F4F4F4" cx="573.3" cy="363" r="5.1"/>
		<g>
			<rect x="572.6" y="359.7" fill="#3F3F3F" width="1.5" height="6.6"/>
			<rect x="570" y="362.2" fill="#3F3F3F" width="6.6" height="1.5"/>
		</g>
	</g>
	<g filter="url(#ds1)">
		<circle fill="#3F3F3F" cx="557.9" cy="347.6" r="3.7"/>
		<rect x="555.4" y="346.9" fill="#FFFFFF" width="4.9" height="1.4"/>
	</g>
	<g filter="url(#ds1)">
		<circle fill="#3F3F3F" cx="567.5" cy="349.8" r="3.7"/>
		<rect x="565.1" y="349.1" fill="#FFFFFF" width="4.9" height="1.4"/>
	</g>
</g>
<g opacity="0.6" filter="url(#ds1)">
	<path fill="#FFFFFF" d="M703.7,293.8l37.9-1.4c3.1-0.1,5.6,2.4,5.6,5.4v7.7c0,3.3-2.8,5.8-6.1,5.4l-40.2-4.6
		c-0.7-0.1-1.3-0.7-1.3-1.4v-7.1C699.7,295.7,701.5,293.9,703.7,293.8z"/>
</g>
<g opacity="0.6" filter="url(#ds1)">
	<path fill="#FFFFFF" d="M687.3,294.8c-2.2,0.1-3.7-1.2-5.8-1.1c-3.8,0-6.9,3.1-6.8,6.9c0,3.8,3.1,6.9,6.9,6.8
		c2.2,0,4.1-1.3,6.2-1.1c1.9,0.1,3.8,1.1,5.7,1c3.8,0,6.9-3.1,6.8-6.9c0-3.8-3.1-6.9-6.9-6.8c-1.9,0-3.7,0.9-5.6,1.2
		C687.6,294.8,687.4,294.8,687.3,294.8z"/>
</g>
<g>
	<g filter="url(#ds1)">
		<path fill="#D0D2D3" d="M506.5,419.1l37.9-1.4c3.1-0.1,5.6,2.4,5.6,5.4v7.7c0,3.3-2.8,5.8-6.1,5.4l-40.2-4.6
			c-0.7-0.1-1.3-0.7-1.3-1.4v-7.1C502.5,421,504.3,419.1,506.5,419.1z"/>
		<path fill="none" stroke="#929497" stroke-width="1.5" stroke-linejoin="round" stroke-miterlimit="10" d="M506.5,419.1l37.9-1.4
			c3.1-0.1,5.6,2.4,5.6,5.4v7.7c0,3.3-2.8,5.8-6.1,5.4l-40.2-4.6c-0.7-0.1-1.3-0.7-1.3-1.4v-7.1C502.5,421,504.3,419.1,506.5,419.1z
			"/>
	</g>
	<g filter="url(#ds1)">
		<path fill="#F9DA55" d="M490.1,420.1c-2.2,0.1-3.7-1.2-5.8-1.1c-3.8,0-6.9,3.1-6.8,6.9c0,3.8,3.1,6.9,6.9,6.8
			c2.2,0,4.1-1.3,6.2-1.1c1.9,0.1,3.8,1.1,5.7,1c3.8,0,6.9-3.1,6.8-6.9c0-3.8-3.1-6.9-6.9-6.8c-1.9,0-3.7,0.9-5.6,1.2
			C490.3,420.1,490.2,420.1,490.1,420.1z"/>
		<path fill="none" stroke="#D6971A" stroke-width="1.489" stroke-miterlimit="10" d="M490.1,420.1c-2.2,0.1-3.7-1.2-5.8-1.1
			c-3.8,0-6.9,3.1-6.8,6.9c0,3.8,3.1,6.9,6.9,6.8c2.2,0,4.1-1.3,6.2-1.1c1.9,0.1,3.8,1.1,5.7,1c3.8,0,6.9-3.1,6.8-6.9
			c0-3.8-3.1-6.9-6.9-6.8c-1.9,0-3.7,0.9-5.6,1.2C490.3,420.1,490.2,420.1,490.1,420.1z"/>
	</g>
</g>
<g opacity="0.45" filter="url(#ds1)">
	<circle fill="#F49F38" cx="437" cy="399.2" r="6.8"/>
	<circle fill="none" stroke="#C66320" stroke-width="1.4874" stroke-miterlimit="10" cx="437" cy="399.2" r="6.8"/>
</g>
<g opacity="0.45" filter="url(#ds1)">
	<path fill="#D0D2D3" stroke="#929497" stroke-width="1.3289" stroke-linejoin="round" stroke-miterlimit="10" d="M541.7,221.5
		l-2.9-8.9c-0.5-1.7,0.1-3.5,1.5-4.5l7.5-5.5c1.4-1,3.3-1,4.7,0l7.5,5.5c1.4,1,2,2.8,1.5,4.5l-2.9,8.9c-0.5,1.7-2.1,2.8-3.8,2.8
		h-9.3C543.8,224.3,542.2,223.2,541.7,221.5z"/>
	<path fill="#C99BD3" stroke="#9E6AA5" stroke-width="1.5" stroke-miterlimit="10" d="M547.2,197.6c0-0.1,0-0.1,0-0.2
		c-0.1-1,0.1-1.9-0.2-2.9c-0.2-1-0.6-1.9-1.3-2.6c-2-2-5.2-2-7.2,0c-1.2,1.2-1.9,2.6-3.3,3.7c-0.7,0.6-1.5,1-2.1,1.6
		c-2,2-2,5.2,0,7.2c1.8,1.8,4.2,1.1,6.4,1.6c1.2,0.3,2.1,0.7,3.4,0.6c1.3-0.1,2.4-0.7,3.3-1.6c1.3-1.3,1.9-3.3,1.5-5.1
		C547.6,199.2,547.3,198.5,547.2,197.6z"/>
</g>
<g opacity="0.45">
	<g filter="url(#ds1)">
		<path fill="#D0D2D3" d="M522.6,194.6c-0.1-1.6-1.3-3.6-2.8-4.4l-6.7-3.4c-1.5-0.8-3.8-0.6-5.2,0.3l-6.3,4.1
			c-1.4,0.9-2.5,3-2.5,4.6l0,6.7c0,0.8-0.1,2.7-0.1,2.7s-1.4,1.9-2,2.5l-6.2,6.7c-1.1,1.2-1.4,3.4-0.6,4.8l4.5,8
			c0.8,1.4,2.8,2.4,4.4,2l9-1.8c1.6-0.3,3.1-1.9,3.3-3.6l1.1-9.1c0.2-1.6,0.4-3,0.4-3s1.1-0.7,2.5-1.6l5.3-3.4
			c1.4-0.9,2.5-3,2.4-4.6L522.6,194.6z"/>
		<path fill="none" stroke="#929497" stroke-width="1.4546" stroke-linejoin="round" stroke-miterlimit="10" d="M522.6,194.6
			c-0.1-1.6-1.3-3.6-2.8-4.4l-6.7-3.4c-1.5-0.8-3.8-0.6-5.2,0.3l-6.3,4.1c-1.4,0.9-2.5,3-2.5,4.6l0,6.7c0,0.8-0.1,2.7-0.1,2.7
			s-1.4,1.9-2,2.5l-6.2,6.7c-1.1,1.2-1.4,3.4-0.6,4.8l4.5,8c0.8,1.4,2.8,2.4,4.4,2l9-1.8c1.6-0.3,3.1-1.9,3.3-3.6l1.1-9.1
			c0.2-1.6,0.4-3,0.4-3s1.1-0.7,2.5-1.6l5.3-3.4c1.4-0.9,2.5-3,2.4-4.6L522.6,194.6z"/>
	</g>
	<g filter="url(#ds1)">
		<circle fill="#F4F4F4" cx="496.8" cy="192.2" r="5.1"/>
		<g>
			<rect x="496.1" y="188.9" fill="#3F3F3F" width="1.5" height="6.6"/>
			<rect x="493.5" y="191.4" fill="#3F3F3F" width="6.6" height="1.5"/>
		</g>
	</g>
	<g filter="url(#ds1)">
		<circle fill="#F4F4F4" cx="519.6" cy="218" r="5.1"/>
		<g>
			<rect x="518.9" y="214.7" fill="#3F3F3F" width="1.5" height="6.6"/>
			<rect x="516.3" y="217.2" fill="#3F3F3F" width="6.6" height="1.5"/>
		</g>
	</g>
	<g filter="url(#ds1)">
		<circle fill="#3F3F3F" cx="504.1" cy="202.5" r="3.7"/>
		<rect x="501.7" y="201.9" fill="#FFFFFF" width="4.9" height="1.4"/>
	</g>
	<g filter="url(#ds1)">
		<circle fill="#3F3F3F" cx="513.8" cy="204.7" r="3.7"/>
		<rect x="511.4" y="204" fill="#FFFFFF" width="4.9" height="1.4"/>
	</g>
</g>
<g opacity="0.45">
	<g>
		<g opacity="0.5">
			<path fill="none" stroke="#000000" stroke-width="2" stroke-linecap="round" stroke-miterlimit="10" d="M886.4,321.5
				c0,6.1-5,11.1-11.1,11.1h-68.5c-6.1,0-11.1-5-11.1-11.1"/>
		</g>
		<g>
			<path fill="none" stroke="#FFFFFF" stroke-width="2" stroke-linecap="round" stroke-miterlimit="10" d="M885.4,320.5
				c0,6.1-5,11.1-11.1,11.1h-68.5c-6.1,0-11.1-5-11.1-11.1"/>
		</g>
	</g>
	<g>
		<g opacity="0.5">
			<rect x="831.6" y="332.6" width="18.9" height="12.1"/>
		</g>
		<g>
			<rect x="830.6" y="331.6" fill="#FFFFFF" width="18.9" height="12.1"/>
		</g>
	</g>
	<g>
		<g>
			<path fill="#6D6E70" d="M835,338.8h0.6l0.9-1.3l-0.8-1.2H835v-0.8h1.3l0.6,1c0,0.1,0.1,0.1,0.1,0.2c0,0,0,0.1,0,0.1h0
				c0,0,0-0.1,0-0.1l0.1-0.2l0.6-1h1.2v0.8h-0.6l-0.8,1.2l0.9,1.3h0.5v0.8h-1.1l-0.7-1.1l-0.1-0.2c0,0,0-0.1,0-0.1h0
				c0,0,0,0.1,0,0.1c0,0.1-0.1,0.1-0.1,0.2l-0.7,1.1H835V338.8z"/>
			<path fill="#6D6E70" d="M839.8,337.6c0-2,1.1-4,3.3-4c0.4,0,0.8,0.1,1,0.1c0.1,0,0.3,0.1,0.4,0.2l-0.4,1.1
				c-0.1,0-0.2-0.1-0.3-0.1c-0.2-0.1-0.4-0.1-0.7-0.1c-1.1,0-1.7,0.9-1.9,1.9h0c0.3-0.3,0.8-0.5,1.4-0.5c1.4,0,2.3,1.1,2.3,2.3
				c0,1.3-1,2.4-2.4,2.4C841.1,340.9,839.8,339.7,839.8,337.6z M842.6,339.8c0.7,0,1.1-0.5,1.1-1.3c0-0.7-0.4-1.3-1.4-1.3
				c-0.6,0-1.1,0.4-1.1,0.9C841.2,338.9,841.8,339.8,842.6,339.8z"/>
		</g>
	</g>
</g>
<g opacity="0.45">
	<g filter="url(#ds1)">
		<path fill="#D0D2D3" d="M833.2,284.7c-0.1-1.6-1.3-3.6-2.8-4.4l-6.7-3.4c-1.5-0.8-3.8-0.6-5.2,0.3l-6.3,4.1
			c-1.4,0.9-2.5,3-2.5,4.6l0,6.7c0,0.8-0.1,2.7-0.1,2.7s-1.4,1.9-2,2.5l-6.2,6.7c-1.1,1.2-1.4,3.4-0.6,4.8l4.5,8
			c0.8,1.4,2.8,2.4,4.4,2l9-1.8c1.6-0.3,3.1-1.9,3.3-3.6l1.1-9.1c0.2-1.6,0.4-3,0.4-3s1.1-0.7,2.5-1.6l5.3-3.4
			c1.4-0.9,2.5-3,2.4-4.6L833.2,284.7z"/>
		<path fill="none" stroke="#929497" stroke-width="1.4546" stroke-linejoin="round" stroke-miterlimit="10" d="M833.2,284.7
			c-0.1-1.6-1.3-3.6-2.8-4.4l-6.7-3.4c-1.5-0.8-3.8-0.6-5.2,0.3l-6.3,4.1c-1.4,0.9-2.5,3-2.5,4.6l0,6.7c0,0.8-0.1,2.7-0.1,2.7
			s-1.4,1.9-2,2.5l-6.2,6.7c-1.1,1.2-1.4,3.4-0.6,4.8l4.5,8c0.8,1.4,2.8,2.4,4.4,2l9-1.8c1.6-0.3,3.1-1.9,3.3-3.6l1.1-9.1
			c0.2-1.6,0.4-3,0.4-3s1.1-0.7,2.5-1.6l5.3-3.4c1.4-0.9,2.5-3,2.4-4.6L833.2,284.7z"/>
	</g>
	<g filter="url(#ds1)">
		<circle fill="#F4F4F4" cx="807.3" cy="282.2" r="5.1"/>
		<g>
			<rect x="806.6" y="278.9" fill="#3F3F3F" width="1.5" height="6.6"/>
			<rect x="804" y="281.5" fill="#3F3F3F" width="6.6" height="1.5"/>
		</g>
	</g>
	<g filter="url(#ds1)">
		<circle fill="#F4F4F4" cx="830.1" cy="308" r="5.1"/>
		<g>
			<rect x="829.4" y="304.7" fill="#3F3F3F" width="1.5" height="6.6"/>
			<rect x="826.8" y="307.3" fill="#3F3F3F" width="6.6" height="1.5"/>
		</g>
	</g>
	<g filter="url(#ds1)">
		<circle fill="#3F3F3F" cx="814.7" cy="292.6" r="3.7"/>
		<rect x="812.2" y="291.9" fill="#FFFFFF" width="4.9" height="1.4"/>
	</g>
	<g filter="url(#ds1)">
		<circle fill="#3F3F3F" cx="824.3" cy="294.8" r="3.7"/>
		<rect x="821.9" y="294.1" fill="#FFFFFF" width="4.9" height="1.4"/>
	</g>
</g>
<g opacity="0.45">
	<g filter="url(#ds1)">
		<path fill="#D0D2D3" d="M863.9,306.4l-5.8,4.5c-1.4,0.9-2.3,2.9-1.9,4.6l1,5c0.3,1.6,1.9,3.5,3.4,4.1l6.1,2.6
			c1.5,0.6,3.9,0.4,5.3-0.5l4.3-2.8c1.4-0.9,2.3-2.9,1.9-4.6c0,0-0.7-7.4-0.7-7.6c0-0.2,5.9-4.8,5.9-4.8c1.4-0.9,2.3-2.9,1.9-4.6
			l-0.7-7.7l5.9-4.7c1.4-0.9,2.3-2.9,1.9-4.6l-1-5c-0.3-1.6-1.9-3.5-3.4-4.1l-6.1-2.6c-1.5-0.6-3.9-0.4-5.3,0.5l-4.3,2.8
			c-1.4,0.9-2.3,2.9-1.9,4.6l0.7,7.6l-5.9,4.8c-1.4,0.9-2.3,2.9-1.9,4.6L863.9,306.4z"/>
		<path fill="none" stroke="#929497" stroke-width="1.4546" stroke-linejoin="round" stroke-miterlimit="10" d="M863.9,306.4
			l-5.8,4.5c-1.4,0.9-2.3,2.9-1.9,4.6l1,5c0.3,1.6,1.9,3.5,3.4,4.1l6.1,2.6c1.5,0.6,3.9,0.4,5.3-0.5l4.3-2.8
			c1.4-0.9,2.3-2.9,1.9-4.6c0,0-0.7-7.4-0.7-7.6c0-0.2,5.9-4.8,5.9-4.8c1.4-0.9,2.3-2.9,1.9-4.6l-0.7-7.7l5.9-4.7
			c1.4-0.9,2.3-2.9,1.9-4.6l-1-5c-0.3-1.6-1.9-3.5-3.4-4.1l-6.1-2.6c-1.5-0.6-3.9-0.4-5.3,0.5l-4.3,2.8c-1.4,0.9-2.3,2.9-1.9,4.6
			l0.7,7.6l-5.9,4.8c-1.4,0.9-2.3,2.9-1.9,4.6L863.9,306.4z"/>
	</g>
	<g filter="url(#ds1)">
		<circle fill="#F4F4F4" cx="851.1" cy="311.3" r="5.1"/>
		<g>
			<rect x="850.4" y="308" fill="#3F3F3F" width="1.5" height="6.6"/>
			<rect x="847.8" y="310.6" fill="#3F3F3F" width="6.6" height="1.5"/>
		</g>
	</g>
	<g filter="url(#ds1)">
		<circle fill="#F4F4F4" cx="890.2" cy="308.4" r="5.1"/>
		<g>
			<rect x="889.4" y="305.1" fill="#3F3F3F" width="1.5" height="6.6"/>
			<rect x="886.9" y="307.7" fill="#3F3F3F" width="6.6" height="1.5"/>
		</g>
	</g>
	<g filter="url(#ds1)">
		<circle fill="#3F3F3F" cx="880" cy="303.1" r="3.7"/>
		<rect x="877.5" y="302.4" fill="#FFFFFF" width="4.9" height="1.4"/>
	</g>
	<g filter="url(#ds1)">
		<circle fill="#3F3F3F" cx="862.4" cy="315.9" r="3.7"/>
		<rect x="860" y="315.2" fill="#FFFFFF" width="4.9" height="1.4"/>
	</g>
</g>
<g opacity="0.45" filter="url(#ds1)">
	<path fill="#D0D2D3" d="M514.4,528.3c-0.1-1.6-1.3-3.6-2.8-4.4l-6.7-3.4c-1.5-0.8-3.8-0.6-5.2,0.3l-6.3,4.1c-1.4,0.9-2.5,3-2.5,4.6
		l0,6.7c0,1.7-0.9,4-2,5.2l-6.2,6.7c-1.1,1.2-1.4,3.4-0.6,4.8l4.5,8c0.8,1.4,2.8,2.4,4.4,2l9-1.8c1.6-0.3,3.1-1.9,3.3-3.6l1.1-9.1
		c0.2-1.6,0.4-3,0.4-3s1.1-0.7,2.5-1.6l5.3-3.4c1.4-0.9,2.5-3,2.4-4.6L514.4,528.3z"/>
	<path fill="none" stroke="#929497" stroke-width="1.5" stroke-miterlimit="10" d="M514.4,528.3c-0.1-1.6-1.3-3.6-2.8-4.4l-6.7-3.4
		c-1.5-0.8-3.8-0.6-5.2,0.3l-6.3,4.1c-1.4,0.9-2.5,3-2.5,4.6l0,6.7c0,1.7-0.9,4-2,5.2l-6.2,6.7c-1.1,1.2-1.4,3.4-0.6,4.8l4.5,8
		c0.8,1.4,2.8,2.4,4.4,2l9-1.8c1.6-0.3,3.1-1.9,3.3-3.6l1.1-9.1c0.2-1.6,0.4-3,0.4-3s1.1-0.7,2.5-1.6l5.3-3.4c1.4-0.9,2.5-3,2.4-4.6
		L514.4,528.3z"/>
</g>
<g opacity="0.45">
	<g>
		<g opacity="0.5">
			<path fill="none" stroke="#000000" stroke-width="2" stroke-linecap="round" stroke-miterlimit="10" d="M515.5,557.8
				c0,6.1-5,11.1-11.1,11.1h-18.3c-6.1,0-11.1-5-11.1-11.1"/>
		</g>
		<g>
			<path fill="none" stroke="#FFFFFF" stroke-width="2" stroke-linecap="round" stroke-miterlimit="10" d="M514.5,556.8
				c0,6.1-5,11.1-11.1,11.1h-18.3c-6.1,0-11.1-5-11.1-11.1"/>
		</g>
	</g>
	<g>
		<g opacity="0.5">
			<rect x="485.9" y="568.9" width="18.9" height="12.1"/>
		</g>
		<g>
			<rect x="484.9" y="567.9" fill="#FFFFFF" width="18.9" height="12.1"/>
		</g>
	</g>
	<g>
		<g>
			<path fill="#6D6E70" d="M489.6,575.1h0.6l0.9-1.3l-0.8-1.2h-0.6v-0.8h1.3l0.6,1c0,0.1,0.1,0.1,0.1,0.2c0,0,0,0.1,0,0.1h0
				c0,0,0-0.1,0-0.1l0.1-0.2l0.6-1h1.2v0.8H493l-0.8,1.2l0.9,1.3h0.5v0.8h-1.1l-0.7-1.1l-0.1-0.2c0,0,0-0.1,0-0.1h0c0,0,0,0.1,0,0.1
				c0,0.1-0.1,0.1-0.1,0.2l-0.7,1.1h-1.2V575.1z"/>
			<path fill="#6D6E70" d="M497.6,571.5c0.1-0.1,0.1-0.2,0.2-0.3l0.1-0.1v0c0,0-0.1,0-0.1,0c-0.1,0-0.2,0-0.3,0h-2v0.8h-1.1V570h5
				v0.9l-3.1,6.2h-1.3L497.6,571.5z"/>
		</g>
	</g>
</g>
<g opacity="0.45" filter="url(#ds1)">
	<path fill="#D0D2D3" d="M291.6,542.4c-0.1-1.6-1.3-3.6-2.8-4.4l-6.7-3.4c-1.5-0.8-3.8-0.6-5.2,0.3l-6.3,4.1c-1.4,0.9-2.5,3-2.5,4.6
		l0,6.7c0,1.7-0.9,4-2,5.2l-6.2,6.7c-1.1,1.2-1.4,3.4-0.6,4.8l4.5,8c0.8,1.4,2.8,2.4,4.4,2l9-1.8c1.6-0.3,3.1-1.9,3.3-3.6l1.1-9.1
		c0.2-1.6,0.4-3,0.4-3s1.1-0.7,2.5-1.6l5.3-3.4c1.4-0.9,2.5-3,2.4-4.6L291.6,542.4z"/>
	<path fill="none" stroke="#929497" stroke-width="1.5" stroke-miterlimit="10" d="M291.6,542.4c-0.1-1.6-1.3-3.6-2.8-4.4l-6.7-3.4
		c-1.5-0.8-3.8-0.6-5.2,0.3l-6.3,4.1c-1.4,0.9-2.5,3-2.5,4.6l0,6.7c0,1.7-0.9,4-2,5.2l-6.2,6.7c-1.1,1.2-1.4,3.4-0.6,4.8l4.5,8
		c0.8,1.4,2.8,2.4,4.4,2l9-1.8c1.6-0.3,3.1-1.9,3.3-3.6l1.1-9.1c0.2-1.6,0.4-3,0.4-3s1.1-0.7,2.5-1.6l5.3-3.4c1.4-0.9,2.5-3,2.4-4.6
		L291.6,542.4z"/>
</g>
<g opacity="0.45">
	<g>
		<g opacity="0.5">
			<path fill="none" stroke="#000000" stroke-width="2" stroke-linecap="round" stroke-miterlimit="10" d="M290.2,571.7
				c0,6.1-5,11.1-11.1,11.1h-18.3c-6.1,0-11.1-5-11.1-11.1"/>
		</g>
		<g>
			<path fill="none" stroke="#FFFFFF" stroke-width="2" stroke-linecap="round" stroke-miterlimit="10" d="M289.2,570.7
				c0,6.1-5,11.1-11.1,11.1h-18.3c-6.1,0-11.1-5-11.1-11.1"/>
		</g>
	</g>
	<g>
		<g opacity="0.5">
			<rect x="260.5" y="582.8" width="18.9" height="12.1"/>
		</g>
		<g>
			<rect x="259.5" y="581.8" fill="#FFFFFF" width="18.9" height="12.1"/>
		</g>
	</g>
	<g>
		<g>
			<path fill="#6D6E70" d="M264.2,589h0.6l0.9-1.3l-0.8-1.2h-0.6v-0.8h1.3l0.6,1c0,0.1,0.1,0.1,0.1,0.2c0,0,0,0.1,0,0.1h0
				c0,0,0-0.1,0-0.1l0.1-0.2l0.6-1h1.2v0.8h-0.6l-0.8,1.2l0.9,1.3h0.5v0.8h-1.1l-0.7-1.1l-0.1-0.2c0,0,0-0.1,0-0.1h0
				c0,0,0,0.1,0,0.1c0,0.1-0.1,0.1-0.1,0.2l-0.7,1.1h-1.2V589z"/>
			<path fill="#6D6E70" d="M272.3,585.4c0.1-0.1,0.1-0.2,0.2-0.3l0.1-0.1v0c0,0-0.1,0-0.1,0c-0.1,0-0.2,0-0.3,0h-2v0.8h-1.1V584h5
				v0.9l-3.1,6.2h-1.3L272.3,585.4z"/>
		</g>
	</g>
</g>
<g opacity="0.45" filter="url(#ds1)">
	<path fill="#D0D2D3" d="M306.5,464.6c-0.1-1.6-1.3-3.6-2.8-4.4l-6.7-3.4c-1.5-0.8-3.8-0.6-5.2,0.3l-6.3,4.1c-1.4,0.9-2.5,3-2.5,4.6
		l0,6.7c0,1.6-0.9,4-2,5.2l-6.2,6.7c-1.1,1.2-1.4,3.4-0.6,4.8l4.5,8c0.8,1.4,2.8,2.4,4.4,2l9-1.8c1.6-0.3,3.1-1.9,3.3-3.6l1.1-9.1
		c0.2-1.6,0.4-3,0.4-3s1.1-0.7,2.5-1.6l5.3-3.4c1.4-0.9,2.5-3,2.4-4.6L306.5,464.6z"/>
	<path fill="none" stroke="#929497" stroke-width="1.5" stroke-miterlimit="10" d="M306.5,464.6c-0.1-1.6-1.3-3.6-2.8-4.4l-6.7-3.4
		c-1.5-0.8-3.8-0.6-5.2,0.3l-6.3,4.1c-1.4,0.9-2.5,3-2.5,4.6l0,6.7c0,1.6-0.9,4-2,5.2l-6.2,6.7c-1.1,1.2-1.4,3.4-0.6,4.8l4.5,8
		c0.8,1.4,2.8,2.4,4.4,2l9-1.8c1.6-0.3,3.1-1.9,3.3-3.6l1.1-9.1c0.2-1.6,0.4-3,0.4-3s1.1-0.7,2.5-1.6l5.3-3.4c1.4-0.9,2.5-3,2.4-4.6
		L306.5,464.6z"/>
</g>
<g opacity="0.45">
	<g>
		<g opacity="0.5">
			<path fill="none" stroke="#000000" stroke-width="2" stroke-linecap="round" stroke-miterlimit="10" d="M312.4,497.2
				c0,6.1-5,11.1-11.1,11.1h-88.5c-6.1,0-11.1-5-11.1-11.1"/>
		</g>
		<g>
			<path fill="none" stroke="#FFFFFF" stroke-width="2" stroke-linecap="round" stroke-miterlimit="10" d="M311.4,496.2
				c0,6.1-5,11.1-11.1,11.1h-88.5c-6.1,0-11.1-5-11.1-11.1"/>
		</g>
	</g>
	<g>
		<g opacity="0.5">
			<rect x="247.6" y="508.3" width="18.9" height="12.1"/>
		</g>
		<g>
			<rect x="246.6" y="507.3" fill="#FFFFFF" width="18.9" height="12.1"/>
		</g>
	</g>
	<g>
		<g>
			<path fill="#6D6E70" d="M251.3,514.5h0.6l0.9-1.3l-0.8-1.2h-0.6v-0.8h1.3l0.6,1c0,0.1,0.1,0.1,0.1,0.2c0,0,0,0.1,0,0.1h0
				c0,0,0-0.1,0-0.1l0.1-0.2l0.6-1h1.2v0.8h-0.6l-0.8,1.2l0.9,1.3h0.5v0.8h-1.1l-0.7-1.1l-0.1-0.2c0,0,0-0.1,0-0.1h0
				c0,0,0,0.1,0,0.1c0,0.1-0.1,0.1-0.1,0.2l-0.7,1.1h-1.2V514.5z"/>
			<path fill="#6D6E70" d="M259.3,510.9c0.1-0.1,0.1-0.2,0.2-0.3l0.1-0.1v0c0,0-0.1,0-0.1,0c-0.1,0-0.2,0-0.3,0h-2v0.8H256v-1.9h5
				v0.9l-3.1,6.2h-1.3L259.3,510.9z"/>
		</g>
	</g>
</g>
<g opacity="0.45" filter="url(#ds1)">
	<path fill="#D0D2D3" d="M215.3,490.8l-2.9-8.9c-0.5-1.7,0.1-3.5,1.5-4.5l7.5-5.5c1.4-1,3.3-1,4.7,0l7.5,5.5c1.4,1,2,2.8,1.5,4.5
		l-2.9,8.9c-0.5,1.7-2.1,2.8-3.8,2.8h-9.3C217.4,493.6,215.8,492.5,215.3,490.8z"/>
	<path fill="none" stroke="#929497" stroke-width="1.3289" stroke-linejoin="round" stroke-miterlimit="10" d="M215.3,490.8
		l-2.9-8.9c-0.5-1.7,0.1-3.5,1.5-4.5l7.5-5.5c1.4-1,3.3-1,4.7,0l7.5,5.5c1.4,1,2,2.8,1.5,4.5l-2.9,8.9c-0.5,1.7-2.1,2.8-3.8,2.8
		h-9.3C217.4,493.6,215.8,492.5,215.3,490.8z"/>
</g>
<g opacity="0.45" filter="url(#ds1)">
	<path fill="#C99BD3" d="M238.5,455.3c0-0.1,0-0.1,0-0.2c-0.1-1,0.1-1.9-0.2-2.9c-0.2-1-0.6-1.9-1.3-2.6c-2-2-5.2-2-7.2,0
		c-1.2,1.2-1.9,2.6-3.3,3.7c-0.7,0.6-1.5,1-2.1,1.6c-2,2-2,5.2,0,7.2c1.8,1.8,4.2,1.1,6.4,1.6c1.2,0.3,2.1,0.7,3.4,0.6
		c1.3-0.1,2.4-0.7,3.3-1.6c1.3-1.3,1.9-3.3,1.5-5.1C238.9,456.8,238.6,456.1,238.5,455.3z"/>
	<path fill="none" stroke="#9E6AA5" stroke-width="1.5" stroke-miterlimit="10" d="M238.5,455.3c0-0.1,0-0.1,0-0.2
		c-0.1-1,0.1-1.9-0.2-2.9c-0.2-1-0.6-1.9-1.3-2.6c-2-2-5.2-2-7.2,0c-1.2,1.2-1.9,2.6-3.3,3.7c-0.7,0.6-1.5,1-2.1,1.6
		c-2,2-2,5.2,0,7.2c1.8,1.8,4.2,1.1,6.4,1.6c1.2,0.3,2.1,0.7,3.4,0.6c1.3-0.1,2.4-0.7,3.3-1.6c1.3-1.3,1.9-3.3,1.5-5.1
		C238.9,456.8,238.6,456.1,238.5,455.3z"/>
</g>
<g opacity="0.45" filter="url(#ds1)">
	<path fill="#D0D2D3" d="M247.8,477.1l-5.8,4.5c-1.4,0.9-2.3,2.9-1.9,4.6l1,5c0.3,1.6,1.9,3.5,3.4,4.1l6.1,2.6
		c1.5,0.6,3.9,0.4,5.3-0.5l4.3-2.8c1.4-0.9,2.3-2.9,1.9-4.6c0,0-0.7-7.4-0.7-7.6s5.9-4.8,5.9-4.8c1.4-0.9,2.3-2.9,1.9-4.6l-0.7-7.7
		l5.9-4.7c1.4-0.9,2.3-2.9,1.9-4.6l-1-5c-0.3-1.6-1.9-3.5-3.4-4.1l-6.1-2.6c-1.5-0.6-3.9-0.4-5.3,0.5l-4.3,2.8
		c-1.4,0.9-2.3,2.9-1.9,4.6l0.7,7.6l-5.9,4.8c-1.4,0.9-2.3,2.9-1.9,4.6L247.8,477.1z"/>
	<path fill="none" stroke="#929497" stroke-width="1.4546" stroke-linejoin="round" stroke-miterlimit="10" d="M247.8,477.1
		l-5.8,4.5c-1.4,0.9-2.3,2.9-1.9,4.6l1,5c0.3,1.6,1.9,3.5,3.4,4.1l6.1,2.6c1.5,0.6,3.9,0.4,5.3-0.5l4.3-2.8c1.4-0.9,2.3-2.9,1.9-4.6
		c0,0-0.7-7.4-0.7-7.6s5.9-4.8,5.9-4.8c1.4-0.9,2.3-2.9,1.9-4.6l-0.7-7.7l5.9-4.7c1.4-0.9,2.3-2.9,1.9-4.6l-1-5
		c-0.3-1.6-1.9-3.5-3.4-4.1l-6.1-2.6c-1.5-0.6-3.9-0.4-5.3,0.5l-4.3,2.8c-1.4,0.9-2.3,2.9-1.9,4.6l0.7,7.6l-5.9,4.8
		c-1.4,0.9-2.3,2.9-1.9,4.6L247.8,477.1z"/>
</g>
<g>
	<g>
		<g opacity="0.5">
			<path fill="none" stroke="#000000" stroke-width="2" stroke-linecap="round" stroke-miterlimit="10" d="M560.9,434
				c0,6.1-5,11.1-11.1,11.1h-68.5c-6.1,0-11.1-5-11.1-11.1"/>
		</g>
		<g>
			<path fill="none" stroke="#FFFFFF" stroke-width="2" stroke-linecap="round" stroke-miterlimit="10" d="M559.9,433
				c0,6.1-5,11.1-11.1,11.1h-68.5c-6.1,0-11.1-5-11.1-11.1"/>
		</g>
	</g>
	<g>
		<g opacity="0.5">
			<rect x="506.1" y="445.1" width="18.9" height="12.1"/>
		</g>
		<g>
			<rect x="505.1" y="444.1" fill="#FFFFFF" width="18.9" height="12.1"/>
		</g>
	</g>
	<g>
		<g>
			<path fill="#6D6E70" d="M509.8,451.3h0.6l0.9-1.3l-0.8-1.2h-0.6V448h1.3l0.6,1c0,0.1,0.1,0.1,0.1,0.2c0,0,0,0.1,0,0.1h0
				c0,0,0-0.1,0-0.1l0.1-0.2l0.6-1h1.2v0.8h-0.6l-0.8,1.2l0.9,1.3h0.5v0.8h-1.1l-0.7-1.1l-0.1-0.2c0,0,0-0.1,0-0.1h0
				c0,0,0,0.1,0,0.1c0,0.1-0.1,0.1-0.1,0.2l-0.7,1.1h-1.2V451.3z"/>
			<path fill="#6D6E70" d="M517.8,447.7c0.1-0.1,0.1-0.2,0.2-0.3l0.1-0.1v0c0,0-0.1,0-0.1,0c-0.1,0-0.2,0-0.3,0h-2v0.8h-1.1v-1.9h5
				v0.9l-3.1,6.2H515L517.8,447.7z"/>
		</g>
	</g>
</g>
<g>
	<g opacity="0.5">
		<path fill="none" stroke="#000000" stroke-width="2" stroke-miterlimit="10" d="M716.3,311.6c-3.7,41.3-171.2,57.5-197.5,93.1"/>
		<polygon points="515.5,412.5 516.1,399.6 519.4,404.2 525,403.7 		"/>
	</g>
	<g>
		<g>
			<path fill="none" stroke="#FFFFFF" stroke-width="2" stroke-miterlimit="10" d="M715.3,310.6c-3.7,41.3-171.2,57.5-197.5,93.1"/>
			<g>
				<polygon fill="#FFFFFF" points="514.5,411.5 515.1,398.6 518.4,403.2 524,402.7 				"/>
			</g>
		</g>
	</g>
</g>
<g opacity="0.45" filter="url(#ds1)">
	<path fill="#D0D2D3" d="M397.1,462.8c1.5,1.5,3.8,2.4,6.2,1.9c2.7-0.5,4.9-2.7,5.5-5.4c0.9-4.4-2.5-8.3-6.8-8.3
		c-1.6,0-3.1,0.6-4.3,1.5c-0.8,0.7-2,0.6-2.9,0c-1.5-1.2-3.4-1.7-5.5-1.3c-2.7,0.5-5,2.7-5.5,5.4c-0.4,2.1,0.1,4,1.3,5.5
		c0.6,0.8,0.7,2,0,2.8c-1.1,1.5-1.7,3.4-1.3,5.4c0.4,2.3,2,4.2,4.1,5.1c0.9,0.4,1.9,0.6,2.7,0.6c1,0,2,0.6,2.3,1.5
		c1,2.4,3.3,4.2,6.1,4.3c3.8,0.2,7.2-3,7.2-6.8c0.1-3.9-3.1-7-6.9-7l0,0c-1,0-2-0.7-2.4-1.6c-0.4-0.9-1-1.8-1.7-2.4
		c-0.3-0.2-0.3-0.7,0-0.9c0.1-0.1,0.2-0.2,0.3-0.3C395.9,462.4,396.6,462.4,397.1,462.8z"/>
	<path fill="none" stroke="#929497" stroke-width="1.3289" stroke-linejoin="round" stroke-miterlimit="10" d="M397.1,462.8
		c1.5,1.5,3.8,2.4,6.2,1.9c2.7-0.5,4.9-2.7,5.5-5.4c0.9-4.4-2.5-8.3-6.8-8.3c-1.6,0-3.1,0.6-4.3,1.5c-0.8,0.7-2,0.6-2.9,0
		c-1.5-1.2-3.4-1.7-5.5-1.3c-2.7,0.5-5,2.7-5.5,5.4c-0.4,2.1,0.1,4,1.3,5.5c0.6,0.8,0.7,2,0,2.8c-1.1,1.5-1.7,3.4-1.3,5.4
		c0.4,2.3,2,4.2,4.1,5.1c0.9,0.4,1.9,0.6,2.7,0.6c1,0,2,0.6,2.3,1.5c1,2.4,3.3,4.2,6.1,4.3c3.8,0.2,7.2-3,7.2-6.8
		c0.1-3.9-3.1-7-6.9-7l0,0c-1,0-2-0.7-2.4-1.6c-0.4-0.9-1-1.8-1.7-2.4c-0.3-0.2-0.3-0.7,0-0.9c0.1-0.1,0.2-0.2,0.3-0.3
		C395.9,462.4,396.6,462.4,397.1,462.8z"/>
</g>
</svg>
