<?xml version="1.0" encoding="utf-8"?>
<!-- Generator: Adobe Illustrator 18.1.1, SVG Export Plug-In . SVG Version: 6.00 Build 0)  -->
<!DOCTYPE svg PUBLIC "-//W3C//DTD SVG 1.1//EN" "http://www.w3.org/Graphics/SVG/1.1/DTD/svg11.dtd">
<svg version="1.1" id="Layer_1" xmlns="http://www.w3.org/2000/svg" xmlns:xlink="http://www.w3.org/1999/xlink" x="0px" y="0px"
	 viewBox="0 0 920 690" enable-background="new 0 0 920 690" xml:space="preserve">
<filter  height="200%" width="200%" id="ds3" y="-50%" x="-50%">
	<feOffset  in="SourceAlpha" result="offOut" dy="17" dx="0"></feOffset>
	<feGaussianBlur  in="offOut" stdDeviation="15" result="blurOut"></feGaussianBlur>
	<feComponentTransfer>
		<feFuncA  type="linear" slope="0.4"></feFuncA>
	</feComponentTransfer>
	<feMerge>
		<feMergeNode></feMergeNode>
		<feMergeNode  in="SourceGraphic"></feMergeNode>
	</feMerge>
</filter>
<filter  height="200%" width="200%" id="ds2" y="-50%" x="-50%">
	<feOffset  in="SourceAlpha" result="offOut" dy="-1" dx="0"></feOffset>
	<feGaussianBlur  in="offOut" stdDeviation="17" result="blurOut"></feGaussianBlur>
	<feComponentTransfer>
		<feFuncA  type="linear" slope="0.2"></feFuncA>
	</feComponentTransfer>
	<feMerge>
		<feMergeNode></feMergeNode>
		<feMergeNode  in="SourceGraphic"></feMergeNode>
	</feMerge>
</filter>
<filter  height="170%" width="170%" id="ds1" y="-20%" x="-30%">
	<feOffset  in="SourceAlpha" result="offOut" dy="1" dx="0"></feOffset>
	<feGaussianBlur  in="offOut" stdDeviation="2" result="blurOut"></feGaussianBlur>
	<feComponentTransfer>
		<feFuncA  type="linear" slope="0.5"></feFuncA>
	</feComponentTransfer>
	<feMerge>
		<feMergeNode></feMergeNode>
		<feMergeNode  in="SourceGraphic"></feMergeNode>
	</feMerge>
</filter>
<g filter="url(#ds2)">
	
		<radialGradient id="SVGID_1_" cx="732.9096" cy="596.4002" r="229.9175" gradientTransform="matrix(1 0 0 0.7185 0 167.9018)" gradientUnits="userSpaceOnUse">
		<stop  offset="0" style="stop-color:#C9E9F0"/>
		<stop  offset="0.2183" style="stop-color:#C1E1EC"/>
		<stop  offset="0.5564" style="stop-color:#ACCBE0"/>
		<stop  offset="0.97" style="stop-color:#8AA8CD"/>
		<stop  offset="1" style="stop-color:#87A5CB"/>
	</radialGradient>
	<rect x="554" y="480.1" fill="url(#SVGID_1_)" width="365.8" height="210.6"/>
</g>
<polygon fill="#8689BC" points="581.4,721.1 602.8,641.4 725.4,591.7 892.3,573 932.3,604.5 918.4,738.7 "/>
<g filter="url(#ds3)">
	<path fill="none" stroke="#9991CE" stroke-width="29" stroke-miterlimit="10" d="M581.4,719.7c0.5-16.5,4.3-65,21.4-79.7
		c42.5-36.6,176-70.9,289.5-62.2c28.9,2.2,47.2,38,47.2,38"/>
</g>
<g opacity="0.45" filter="url(#ds1)">
	<path fill="#D0D2D3" stroke="#929497" stroke-width="1.3289" stroke-linejoin="round" stroke-miterlimit="10" d="M322.4,319.1
		l-2.9-8.9c-0.5-1.7,0.1-3.5,1.5-4.5l7.5-5.5c1.4-1,3.3-1,4.7,0l7.5,5.5c1.4,1,2,2.8,1.5,4.5l-2.9,8.9c-0.5,1.7-2.1,2.8-3.8,2.8
		h-9.3C324.5,321.9,322.9,320.7,322.4,319.1z"/>
	<path fill="#C99BD3" stroke="#9E6AA5" stroke-width="1.5" stroke-miterlimit="10" d="M327.9,295.2c0-0.1,0-0.1,0-0.2
		c-0.1-1,0.1-1.9-0.2-2.9c-0.2-1-0.6-1.9-1.3-2.6c-2-2-5.2-2-7.2,0c-1.2,1.2-1.9,2.6-3.3,3.7c-0.7,0.6-1.5,1-2.1,1.6
		c-2,2-2,5.2,0,7.2c1.8,1.8,4.2,1.1,6.4,1.6c1.2,0.3,2.1,0.7,3.4,0.6c1.3-0.1,2.4-0.7,3.3-1.6c1.3-1.3,1.9-3.3,1.5-5.1
		C328.3,296.7,328,296,327.9,295.2z"/>
</g>
<g opacity="0.45" filter="url(#ds1)">
	<path fill="#D0D2D3" d="M397.1,462.8c1.5,1.5,3.8,2.4,6.2,1.9c2.7-0.5,4.9-2.7,5.5-5.4c0.9-4.4-2.5-8.3-6.8-8.3
		c-1.6,0-3.1,0.6-4.3,1.5c-0.8,0.7-2,0.6-2.9,0c-1.5-1.2-3.4-1.7-5.5-1.3c-2.7,0.5-5,2.7-5.5,5.4c-0.4,2.1,0.1,4,1.3,5.5
		c0.6,0.8,0.7,2,0,2.8c-1.1,1.5-1.7,3.4-1.3,5.4c0.4,2.3,2,4.2,4.1,5.1c0.9,0.4,1.9,0.6,2.7,0.6c1,0,2,0.6,2.3,1.5
		c1,2.4,3.3,4.2,6.1,4.3c3.8,0.2,7.2-3,7.2-6.8c0.1-3.9-3.1-7-6.9-7l0,0c-1,0-2-0.7-2.4-1.6c-0.4-0.9-1-1.8-1.7-2.4
		c-0.3-0.2-0.3-0.7,0-0.9c0.1-0.1,0.2-0.2,0.3-0.3C395.9,462.4,396.6,462.4,397.1,462.8z"/>
	<path fill="none" stroke="#929497" stroke-width="1.3289" stroke-linejoin="round" stroke-miterlimit="10" d="M397.1,462.8
		c1.5,1.5,3.8,2.4,6.2,1.9c2.7-0.5,4.9-2.7,5.5-5.4c0.9-4.4-2.5-8.3-6.8-8.3c-1.6,0-3.1,0.6-4.3,1.5c-0.8,0.7-2,0.6-2.9,0
		c-1.5-1.2-3.4-1.7-5.5-1.3c-2.7,0.5-5,2.7-5.5,5.4c-0.4,2.1,0.1,4,1.3,5.5c0.6,0.8,0.7,2,0,2.8c-1.1,1.5-1.7,3.4-1.3,5.4
		c0.4,2.3,2,4.2,4.1,5.1c0.9,0.4,1.9,0.6,2.7,0.6c1,0,2,0.6,2.3,1.5c1,2.4,3.3,4.2,6.1,4.3c3.8,0.2,7.2-3,7.2-6.8
		c0.1-3.9-3.1-7-6.9-7l0,0c-1,0-2-0.7-2.4-1.6c-0.4-0.9-1-1.8-1.7-2.4c-0.3-0.2-0.3-0.7,0-0.9c0.1-0.1,0.2-0.2,0.3-0.3
		C395.9,462.4,396.6,462.4,397.1,462.8z"/>
</g>
<g opacity="0.45" filter="url(#ds1)">
	<path fill="#D0D2D3" stroke="#929497" stroke-width="1.3289" stroke-linejoin="round" stroke-miterlimit="10" d="M541.7,221.5
		l-2.9-8.9c-0.5-1.7,0.1-3.5,1.5-4.5l7.5-5.5c1.4-1,3.3-1,4.7,0l7.5,5.5c1.4,1,2,2.8,1.5,4.5l-2.9,8.9c-0.5,1.7-2.1,2.8-3.8,2.8
		h-9.3C543.8,224.3,542.2,223.2,541.7,221.5z"/>
	<path fill="#C99BD3" stroke="#9E6AA5" stroke-width="1.5" stroke-miterlimit="10" d="M547.2,197.6c0-0.1,0-0.1,0-0.2
		c-0.1-1,0.1-1.9-0.2-2.9c-0.2-1-0.6-1.9-1.3-2.6c-2-2-5.2-2-7.2,0c-1.2,1.2-1.9,2.6-3.3,3.7c-0.7,0.6-1.5,1-2.1,1.6
		c-2,2-2,5.2,0,7.2c1.8,1.8,4.2,1.1,6.4,1.6c1.2,0.3,2.1,0.7,3.4,0.6c1.3-0.1,2.4-0.7,3.3-1.6c1.3-1.3,1.9-3.3,1.5-5.1
		C547.6,199.2,547.3,198.5,547.2,197.6z"/>
</g>
<g opacity="0.45" filter="url(#ds1)">
	<circle fill="#D0D2D3" cx="358.7" cy="623.3" r="6.8"/>
	
		<circle fill="none" stroke="#929497" stroke-width="1.3289" stroke-linejoin="round" stroke-miterlimit="10" cx="358.7" cy="623.3" r="6.8"/>
</g>
<g opacity="0.45" filter="url(#ds1)">
	<circle fill="#D0D2D3" cx="438.1" cy="621.9" r="6.8"/>
	
		<circle fill="none" stroke="#929497" stroke-width="1.3289" stroke-linejoin="round" stroke-miterlimit="10" cx="438.1" cy="621.9" r="6.8"/>
</g>
<g opacity="0.45">
	<g>
		<g opacity="0.5">
			<path fill="none" stroke="#000000" stroke-width="2" stroke-linecap="round" stroke-miterlimit="10" d="M459.8,624.4
				c0,6.1-5,11.1-11.1,11.1h-18.3c-6.1,0-11.1-5-11.1-11.1"/>
		</g>
		<g>
			<path fill="none" stroke="#FFFFFF" stroke-width="2" stroke-linecap="round" stroke-miterlimit="10" d="M458.8,623.4
				c0,6.1-5,11.1-11.1,11.1h-18.3c-6.1,0-11.1-5-11.1-11.1"/>
		</g>
	</g>
	<g>
		<g opacity="0.5">
			<rect x="430.1" y="635.5" width="18.9" height="12.1"/>
		</g>
		<g>
			<rect x="429.1" y="634.5" fill="#FFFFFF" width="18.9" height="12.1"/>
		</g>
	</g>
	<g>
		<g>
			<path fill="#6D6E70" d="M433.8,641.7h0.6l0.9-1.3l-0.8-1.2h-0.6v-0.8h1.3l0.6,1c0,0.1,0.1,0.1,0.1,0.2c0,0,0,0.1,0,0.1h0
				c0,0,0-0.1,0-0.1l0.1-0.2l0.6-1h1.2v0.8h-0.6l-0.8,1.2l0.9,1.3h0.5v0.8h-1.1l-0.7-1.1l-0.1-0.2c0,0,0-0.1,0-0.1h0
				c0,0,0,0.1,0,0.1c0,0.1-0.1,0.1-0.1,0.2l-0.7,1.1h-1.2V641.7z"/>
			<path fill="#6D6E70" d="M441.9,638c0.1-0.1,0.1-0.2,0.2-0.3l0.1-0.1v0c0,0-0.1,0-0.1,0c-0.1,0-0.2,0-0.3,0h-2v0.8h-1.1v-1.9h5
				v0.9l-3.1,6.2H439L441.9,638z"/>
		</g>
	</g>
</g>
<g opacity="0.45">
	<g>
		<g opacity="0.5">
			<path fill="none" stroke="#000000" stroke-width="2" stroke-linecap="round" stroke-miterlimit="10" d="M349.9,321.4
				c0,6.1-5,11.1-11.1,11.1h-18.3c-6.1,0-11.1-5-11.1-11.1"/>
		</g>
		<g>
			<path fill="none" stroke="#FFFFFF" stroke-width="2" stroke-linecap="round" stroke-miterlimit="10" d="M348.9,320.4
				c0,6.1-5,11.1-11.1,11.1h-18.3c-6.1,0-11.1-5-11.1-11.1"/>
		</g>
	</g>
	<g>
		<g opacity="0.5">
			<rect x="320.2" y="332.5" width="18.9" height="12.1"/>
		</g>
		<g>
			<rect x="319.2" y="331.5" fill="#FFFFFF" width="18.9" height="12.1"/>
		</g>
	</g>
	<g>
		<g>
			<path fill="#6D6E70" d="M323.9,338.7h0.6l0.9-1.3l-0.8-1.2h-0.6v-0.8h1.3l0.6,1c0,0.1,0.1,0.1,0.1,0.2c0,0,0,0.1,0,0.1h0
				c0,0,0-0.1,0-0.1l0.1-0.2l0.6-1h1.2v0.8h-0.6l-0.8,1.2l0.9,1.3h0.5v0.8h-1.1l-0.7-1.1l-0.1-0.2c0,0,0-0.1,0-0.1h0
				c0,0,0,0.1,0,0.1c0,0.1-0.1,0.1-0.1,0.2l-0.7,1.1h-1.2V338.7z"/>
			<path fill="#6D6E70" d="M331.9,335.1c0.1-0.1,0.1-0.2,0.2-0.3l0.1-0.1v0c0,0-0.1,0-0.1,0c-0.1,0-0.2,0-0.3,0h-2v0.8h-1.1v-1.9h5
				v0.9l-3.1,6.2h-1.3L331.9,335.1z"/>
		</g>
	</g>
</g>
<g opacity="0.45" filter="url(#ds1)">
	<path fill="#D0D2D3" d="M492.9,446.4l37.9-1.4c3.1-0.1,5.6,2.4,5.6,5.4v7.7c0,3.3-2.8,5.8-6.1,5.4l-40.2-4.6
		c-0.7-0.1-1.3-0.7-1.3-1.4v-7.1C489,448.3,490.7,446.5,492.9,446.4z"/>
	<path fill="none" stroke="#929497" stroke-width="1.5" stroke-linejoin="round" stroke-miterlimit="10" d="M492.9,446.4l37.9-1.4
		c3.1-0.1,5.6,2.4,5.6,5.4v7.7c0,3.3-2.8,5.8-6.1,5.4l-40.2-4.6c-0.7-0.1-1.3-0.7-1.3-1.4v-7.1C489,448.3,490.7,446.5,492.9,446.4z"
		/>
</g>
<g opacity="0.45">
	<g>
		<g opacity="0.5">
			<path fill="none" stroke="#000000" stroke-width="2" stroke-linecap="round" stroke-miterlimit="10" d="M548.2,458.8
				c0,6.1-5,11.1-11.1,11.1h-45.5c-6.1,0-11.1-5-11.1-11.1"/>
		</g>
		<g>
			<path fill="none" stroke="#FFFFFF" stroke-width="2" stroke-linecap="round" stroke-miterlimit="10" d="M547.2,457.8
				c0,6.1-5,11.1-11.1,11.1h-45.5c-6.1,0-11.1-5-11.1-11.1"/>
		</g>
	</g>
	<g>
		<g opacity="0.5">
			<rect x="504.9" y="469.9" width="18.9" height="12.1"/>
		</g>
		<g>
			<rect x="503.9" y="468.9" fill="#FFFFFF" width="18.9" height="12.1"/>
		</g>
	</g>
	<g>
		<g>
			<path fill="#6D6E70" d="M508.5,476h0.6l0.9-1.3l-0.8-1.2h-0.6v-0.8h1.3l0.6,1c0,0.1,0.1,0.1,0.1,0.2c0,0,0,0.1,0,0.1h0
				c0,0,0-0.1,0-0.1l0.1-0.2l0.6-1h1.2v0.8H512l-0.8,1.2l0.9,1.3h0.5v0.8h-1.1l-0.7-1.1l-0.1-0.2c0,0,0-0.1,0-0.1h0c0,0,0,0.1,0,0.1
				c0,0.1-0.1,0.1-0.1,0.2l-0.7,1.1h-1.2V476z"/>
			<path fill="#6D6E70" d="M516.6,472.4c0.1-0.1,0.1-0.2,0.2-0.3l0.1-0.1v0c0,0-0.1,0-0.1,0c-0.1,0-0.2,0-0.3,0h-2v0.8h-1.1V471h5
				v0.9l-3.1,6.2h-1.3L516.6,472.4z"/>
		</g>
	</g>
</g>
<g opacity="0.45">
	<g>
		<g opacity="0.5">
			<path fill="none" stroke="#000000" stroke-width="2" stroke-linecap="round" stroke-miterlimit="10" d="M379.9,626
				c0,6.1-5,11.1-11.1,11.1h-18.3c-6.1,0-11.1-5-11.1-11.1"/>
		</g>
		<g>
			<path fill="none" stroke="#FFFFFF" stroke-width="2" stroke-linecap="round" stroke-miterlimit="10" d="M378.9,625
				c0,6.1-5,11.1-11.1,11.1h-18.3c-6.1,0-11.1-5-11.1-11.1"/>
		</g>
	</g>
	<g>
		<g opacity="0.5">
			<rect x="350.3" y="637.1" width="18.9" height="12.1"/>
		</g>
		<g>
			<rect x="349.3" y="636.1" fill="#FFFFFF" width="18.9" height="12.1"/>
		</g>
	</g>
	<g>
		<g>
			<path fill="#6D6E70" d="M354,643.3h0.6l0.9-1.3l-0.8-1.2H354v-0.8h1.3l0.6,1c0,0.1,0.1,0.1,0.1,0.2c0,0,0,0.1,0,0.1h0
				c0,0,0-0.1,0-0.1l0.1-0.2l0.6-1h1.2v0.8h-0.6l-0.8,1.2l0.9,1.3h0.5v0.8h-1.1l-0.7-1.1l-0.1-0.2c0,0,0-0.1,0-0.1h0
				c0,0,0,0.1,0,0.1c0,0.1-0.1,0.1-0.1,0.2l-0.7,1.1H354V643.3z"/>
			<path fill="#6D6E70" d="M362,639.7c0.1-0.1,0.1-0.2,0.2-0.3l0.1-0.1v0c0,0-0.1,0-0.1,0c-0.1,0-0.2,0-0.3,0h-2v0.8h-1.1v-1.9h5
				v0.9l-3.1,6.2h-1.3L362,639.7z"/>
		</g>
	</g>
</g>
<g opacity="0.45">
	<g filter="url(#ds1)">
		<circle fill="#F4F4F4" cx="734.5" cy="515.6" r="5.1"/>
		<g>
			<rect x="733.8" y="512.3" fill="#3F3F3F" width="1.5" height="6.6"/>
			<rect x="731.3" y="514.8" fill="#3F3F3F" width="6.6" height="1.5"/>
		</g>
	</g>
	<g filter="url(#ds1)">
		<circle fill="#F4F4F4" cx="757.1" cy="515.6" r="5.1"/>
		<g>
			<rect x="756.3" y="512.3" fill="#3F3F3F" width="1.5" height="6.6"/>
			<rect x="753.8" y="514.8" fill="#3F3F3F" width="6.6" height="1.5"/>
		</g>
	</g>
	<g filter="url(#ds1)">
		<circle fill="#3A94ED" cx="745.5" cy="504.5" r="9.2"/>
	</g>
	<g filter="url(#ds1)">
		<circle fill="#3F3F3F" cx="753.8" cy="511.6" r="3.7"/>
		
			<rect x="753.1" y="509.1" transform="matrix(-2.208451e-02 0.9998 -0.9998 -2.208451e-02 1281.87 -230.7598)" fill="#FFFFFF" width="1.4" height="4.9"/>
	</g>
	<g filter="url(#ds1)">
		<circle fill="#3F3F3F" cx="738.1" cy="511.6" r="3.7"/>
		
			<rect x="737.4" y="509.1" transform="matrix(2.208454e-02 0.9998 -0.9998 2.208454e-02 1233.2474 -237.6841)" fill="#FFFFFF" width="1.4" height="4.9"/>
	</g>
</g>
<path fill="#919191" d="M814.7,598.5C814.7,598.5,814.7,598.5,814.7,598.5C814.7,598.5,814.7,598.5,814.7,598.5
	C814.7,598.5,814.7,598.5,814.7,598.5z"/>
<path fill="#919191" d="M814.7,598.5C814.7,598.5,814.7,598.5,814.7,598.5C814.7,598.5,814.7,598.5,814.7,598.5z"/>
<path fill="#919191" d="M814.7,598.5L814.7,598.5L814.7,598.5z"/>
<rect x="554.2" y="480.1" fill="#6D6E70" width="211.8" height="21.7"/>
<g>
	<g>
		<path fill="#E8E8E8" d="M564,486.5c2.5,0,4.4,1.9,4.4,4.3c0,2.5-1.9,4.5-4.4,4.5c-2.5,0-4.4-2-4.4-4.5
			C559.6,488.4,561.5,486.5,564,486.5z M564,493.9c1.5,0,2.8-1.3,2.8-3.1c0-1.7-1.3-3-2.8-3s-2.8,1.3-2.8,3
			C561.2,492.6,562.5,493.9,564,493.9z"/>
		<path fill="#E8E8E8" d="M569,494h0.8l2.1-3.1l-2.1-3h-0.8v-1.2h3.2v1.2h-0.8l1.2,1.8c0.1,0.1,0.1,0.2,0.2,0.3c0,0,0,0.1,0.1,0.1h0
			c0,0,0.1-0.2,0.2-0.4l1.1-1.8h-0.8v-1.2h3.1v1.2h-0.7l-2.2,3.1l2.1,3h0.8v1.2h-3.2V494h0.8l-1.2-1.8c-0.1-0.1-0.1-0.2-0.2-0.3
			c0,0,0-0.1-0.1-0.1h0c0,0-0.1,0.2-0.2,0.4l-1.1,1.8h0.8v1.2H569V494z"/>
		<path fill="#E8E8E8" d="M577.6,494h1v-6.2h-1v-1.2h3.6v1.2h-1v6.2h1v1.2h-3.6V494z"/>
		<path fill="#E8E8E8" d="M582.4,494h1v-6.2h-1v-1.2h3.7c0.7,0,1.2,0,1.8,0.2c1.7,0.5,2.8,2,2.8,4.1c0,2-1,3.5-2.6,4
			c-0.6,0.2-1.2,0.3-1.9,0.3h-3.7V494z M586,493.9c0.5,0,1,0,1.4-0.2c1-0.4,1.6-1.4,1.6-2.8c0-1.5-0.6-2.4-1.6-2.8
			c-0.4-0.2-0.8-0.2-1.3-0.2h-1v6H586z"/>
		<path fill="#E8E8E8" d="M591.2,494h0.8l2.6-7.3h1.8l2.6,7.3h0.8v1.2h-3.2V494h0.8l-0.5-1.6H594l-0.5,1.6h0.8v1.2h-3.2V494z
			 M596.4,491.1l-0.8-2.4l-0.1-0.5c0-0.1,0-0.2,0-0.2h0l0,0.2c0,0.1-0.1,0.3-0.1,0.5l-0.8,2.4H596.4z"/>
		<path fill="#E8E8E8" d="M601.4,494h1v-6.1h-1.6v1.3h-1.3v-2.5h7.5v2.5h-1.3v-1.3H604v6.1h1v1.2h-3.6V494z"/>
		<path fill="#E8E8E8" d="M607.9,494h1v-6.2h-1v-1.2h3.6v1.2h-1v6.2h1v1.2h-3.6V494z"/>
		<path fill="#E8E8E8" d="M613,487.8h-0.8v-1.2h3.3v1.2h-0.9l1.6,4.9c0.1,0.2,0.1,0.4,0.1,0.5l0,0.3h0l0-0.3c0-0.1,0.1-0.3,0.1-0.5
			l1.6-4.9h-0.9v-1.2h3.3v1.2h-0.8l-2.6,7.3h-1.6L613,487.8z"/>
		<path fill="#E8E8E8" d="M621.4,494h1v-6.2h-1v-1.2h6.3v2.2h-1.3v-0.9H624v2.3h2.8v1.3H624v2.4h2.6v-1h1.3v2.2h-6.5V494z"/>
		<path fill="#E8E8E8" d="M632.1,494h1v-6.2h-1v-1.2h4.1c0.5,0,1,0,1.4,0.2c0.9,0.4,1.5,1.3,1.5,2.5c0,1.2-0.6,2.2-1.6,2.6
			c-0.4,0.1-0.8,0.2-1.3,0.2h-1.5v1.8h1v1.2h-3.6V494z M636,490.9c0.3,0,0.6-0.1,0.9-0.2c0.5-0.2,0.7-0.7,0.7-1.3
			c0-0.6-0.2-1-0.6-1.3c-0.2-0.1-0.5-0.2-0.9-0.2h-1.3v3H636z"/>
		<path fill="#E8E8E8" d="M640,494h1v-6.2h-1v-1.2h3.6v1.2h-1v2.5h3.9v-2.5h-1v-1.2h3.6v1.2h-1v6.2h1v1.2h-3.6V494h1v-2.4h-3.9v2.4
			h1v1.2H640V494z"/>
		<path fill="#E8E8E8" d="M654.6,486.5c2.5,0,4.4,1.9,4.4,4.3c0,2.5-1.9,4.5-4.4,4.5s-4.4-2-4.4-4.5
			C650.2,488.4,652.1,486.5,654.6,486.5z M654.6,493.9c1.5,0,2.8-1.3,2.8-3.1c0-1.7-1.3-3-2.8-3s-2.8,1.3-2.8,3
			C651.8,492.6,653.1,493.9,654.6,493.9z"/>
		<path fill="#E8E8E8" d="M661.5,492.4v0.6c0,0.5,0.7,0.9,1.5,0.9c0.9,0,1.5-0.4,1.5-1.1c0-0.9-1-1.1-2-1.5
			c-1.1-0.4-2.3-0.9-2.3-2.5c0-1.7,1.4-2.4,2.9-2.4c1.3,0,2.7,0.5,2.7,1.5v1.1h-1.4v-0.6c0-0.4-0.6-0.7-1.3-0.7
			c-0.7,0-1.3,0.3-1.3,0.9c0,0.8,0.8,1,1.7,1.4c1.3,0.4,2.5,1,2.5,2.6c0,1.7-1.5,2.5-3.1,2.5c-1.4,0-2.9-0.6-2.9-1.9v-1H661.5z"/>
		<path fill="#E8E8E8" d="M667.3,494h1v-6.2h-1v-1.2h4.1c0.5,0,1,0,1.4,0.2c0.9,0.4,1.5,1.3,1.5,2.5c0,1.2-0.6,2.2-1.6,2.6
			c-0.4,0.1-0.8,0.2-1.3,0.2h-1.5v1.8h1v1.2h-3.6V494z M671.2,490.9c0.3,0,0.6-0.1,0.9-0.2c0.5-0.2,0.7-0.7,0.7-1.3
			c0-0.6-0.2-1-0.6-1.3c-0.2-0.1-0.5-0.2-0.9-0.2h-1.3v3H671.2z"/>
		<path fill="#E8E8E8" d="M675.2,494h1v-6.2h-1v-1.2h3.6v1.2h-1v2.5h3.9v-2.5h-1v-1.2h3.6v1.2h-1v6.2h1v1.2h-3.6V494h1v-2.4h-3.9
			v2.4h1v1.2h-3.6V494z"/>
		<path fill="#E8E8E8" d="M689.8,486.5c2.5,0,4.4,1.9,4.4,4.3c0,2.5-1.9,4.5-4.4,4.5s-4.4-2-4.4-4.5
			C685.4,488.4,687.3,486.5,689.8,486.5z M689.8,493.9c1.5,0,2.8-1.3,2.8-3.1c0-1.7-1.3-3-2.8-3s-2.8,1.3-2.8,3
			C687,492.6,688.2,493.9,689.8,493.9z"/>
		<path fill="#E8E8E8" d="M695.3,494h1v-6.2h-1v-1.2h3.8c0.6,0,1.1,0,1.6,0.2c1,0.3,1.6,1.1,1.6,2.3s-0.6,2-1.6,2.4v0l0.1,0.1
			c0.1,0.1,0.2,0.2,0.3,0.3l1,1.8c0.1,0.2,0.3,0.3,0.6,0.3h0.3v1.2h-1c-0.7,0-0.9-0.1-1.2-0.6l-1.2-2.2c-0.2-0.3-0.3-0.4-0.8-0.4
			h-0.8v2.1h1v1.2h-3.6V494z M699.3,490.6c0.8,0,1.4-0.5,1.4-1.4c0-0.6-0.2-1-0.7-1.2c-0.2-0.1-0.6-0.2-1-0.2h-1.2v2.7H699.3z"/>
		<path fill="#E8E8E8" d="M705.2,494h1v-2.4l-2.3-3.8h-0.8v-1.2h3.2v1.2h-0.8l1.3,2.2c0.1,0.1,0.1,0.2,0.1,0.3c0,0,0,0.1,0,0.1h0
			c0,0,0-0.1,0-0.1c0-0.1,0.1-0.2,0.1-0.3l1.3-2.2h-0.8v-1.2h3.1v1.2h-0.8l-2.3,3.8v2.4h1v1.2h-3.6V494z"/>
		<path fill="#E8E8E8" d="M711.6,494h1v-6.1h-1v-1.3h3.6v1.3h-1v6h2.5v-1.3h1.3v2.6h-6.5V494z"/>
		<path fill="#E8E8E8" d="M718.5,494h0.8l2.6-7.3h1.8l2.6,7.3h0.8v1.2h-3.2V494h0.8l-0.5-1.6h-2.7l-0.5,1.6h0.8v1.2h-3.2V494z
			 M723.7,491.1l-0.8-2.4l-0.1-0.5c0-0.1,0-0.2,0-0.2h0l0,0.2c0,0.1-0.1,0.3-0.1,0.5l-0.8,2.4H723.7z"/>
		<path fill="#E8E8E8" d="M728.8,494h1v-6.1h-1.6v1.3h-1.3v-2.5h7.5v2.5H733v-1.3h-1.6v6.1h1v1.2h-3.6V494z"/>
		<path fill="#E8E8E8" d="M735.2,494h1v-6.2h-1v-1.2h3.6v1.2h-1v6.2h1v1.2h-3.6V494z"/>
		<path fill="#E8E8E8" d="M744.4,486.5c2.5,0,4.4,1.9,4.4,4.3c0,2.5-1.9,4.5-4.4,4.5c-2.5,0-4.4-2-4.4-4.5
			C740,488.4,741.9,486.5,744.4,486.5z M744.4,493.9c1.5,0,2.8-1.3,2.8-3.1c0-1.7-1.3-3-2.8-3s-2.8,1.3-2.8,3
			C741.6,492.6,742.9,493.9,744.4,493.9z"/>
		<path fill="#E8E8E8" d="M749.9,494h1v-6.2h-1v-1.2h2.6l3.6,5.5c0.1,0.1,0.2,0.3,0.2,0.5l0.1,0.3h0l0-0.3c0-0.2,0-0.4,0-0.5v-4.2
			h-1.1v-1.2h3.6v1.2h-1v7.3h-1.6l-3.6-5.5c-0.1-0.1-0.2-0.3-0.2-0.5l-0.1-0.3h0l0,0.3c0,0.2,0,0.4,0,0.5v4.2h1.1v1.2h-3.6V494z"/>
	</g>
</g>
<g opacity="0.2" filter="url(#ds1)">
	<circle fill="#F4F4F4" cx="863.5" cy="489.4" r="5.1"/>
	<g>
		<rect x="862.8" y="486.1" fill="#3F3F3F" width="1.5" height="6.6"/>
		<rect x="860.2" y="488.6" fill="#3F3F3F" width="6.6" height="1.5"/>
	</g>
</g>
<g opacity="0.2" filter="url(#ds1)">
	<circle fill="#F4F4F4" cx="899.8" cy="547" r="5.1"/>
	<g>
		<rect x="899.1" y="543.7" fill="#3F3F3F" width="1.5" height="6.6"/>
		<rect x="896.5" y="546.3" fill="#3F3F3F" width="6.6" height="1.5"/>
	</g>
</g>
<g opacity="0.25" filter="url(#ds1)">
	<path fill="#D0D2D3" d="M834.5,517.1l-9.2-1.5c-1.7-0.3-3-1.6-3.3-3.4l-1.4-9.2c-0.3-1.7,0.6-3.4,2.2-4.2l8.3-4.2
		c1.6-0.8,3.4-0.5,4.6,0.8l6.5,6.6c1.2,1.2,1.5,3.1,0.7,4.7l-4.3,8.3C837.9,516.5,836.2,517.4,834.5,517.1z"/>
	<path fill="none" stroke="#929497" stroke-width="1.3289" stroke-linejoin="round" stroke-miterlimit="10" d="M834.5,517.1
		l-9.2-1.5c-1.7-0.3-3-1.6-3.3-3.4l-1.4-9.2c-0.3-1.7,0.6-3.4,2.2-4.2l8.3-4.2c1.6-0.8,3.4-0.5,4.6,0.8l6.5,6.6
		c1.2,1.2,1.5,3.1,0.7,4.7l-4.3,8.3C837.9,516.5,836.2,517.4,834.5,517.1z"/>
</g>
<g opacity="0.25" filter="url(#ds1)">
	<path fill="#C99BD3" d="M790.4,503.2c-0.1,0-0.1,0-0.2-0.1c-0.9-0.4-1.7-0.9-2.6-1.2c-1-0.3-1.9-0.3-2.9,0
		c-2.7,0.8-4.2,3.7-3.3,6.4c0.5,1.6,1.5,2.9,1.8,4.6c0.2,0.9,0.2,1.8,0.5,2.6c0.8,2.7,3.7,4.2,6.4,3.3c2.4-0.8,2.9-3.2,4.4-5
		c0.8-0.9,1.6-1.5,2.1-2.7c0.5-1.2,0.5-2.5,0.1-3.7c-0.6-1.8-2.1-3.3-3.9-3.7C791.9,503.6,791.1,503.6,790.4,503.2z"/>
	<path fill="none" stroke="#9E6AA5" stroke-width="1.5" stroke-miterlimit="10" d="M790.4,503.2c-0.1,0-0.1,0-0.2-0.1
		c-0.9-0.4-1.7-0.9-2.6-1.2c-1-0.3-1.9-0.3-2.9,0c-2.7,0.8-4.2,3.7-3.3,6.4c0.5,1.6,1.5,2.9,1.8,4.6c0.2,0.9,0.2,1.8,0.5,2.6
		c0.8,2.7,3.7,4.2,6.4,3.3c2.4-0.8,2.9-3.2,4.4-5c0.8-0.9,1.6-1.5,2.1-2.7c0.5-1.2,0.5-2.5,0.1-3.7c-0.6-1.8-2.1-3.3-3.9-3.7
		C791.9,503.6,791.1,503.6,790.4,503.2z"/>
</g>
<g opacity="0.45" filter="url(#ds1)">
	<path fill="#D0D2D3" d="M804.7,527.1c-14.1,7.7-12.3,34.5,1.4,39.2c0.5,0,2.9,24.6,2.9,24.6c-5.3,2.6-2.4,8.1,1.3,7.9
		c2.5-0.2,5.7-0.4,8.2-0.5c4.1-0.2,5.8-6,0.2-8c0,0-0.7-24.7-0.2-24.7c12.2-4.8,14.4-32.5-1.4-39.2
		C813.3,526.6,808.5,526.9,804.7,527.1z"/>
	<path fill="none" stroke="#929497" stroke-width="1.4546" stroke-linejoin="round" stroke-miterlimit="10" d="M804.7,527.1
		c-14.1,7.7-12.3,34.5,1.4,39.2c0.5,0,2.9,24.6,2.9,24.6c-5.3,2.6-2.4,8.1,1.3,7.9c2.5-0.2,5.7-0.4,8.2-0.5c4.1-0.2,5.8-6,0.2-8
		c0,0-0.7-24.7-0.2-24.7c12.2-4.8,14.4-32.5-1.4-39.2C813.3,526.6,808.5,526.9,804.7,527.1z"/>
</g>
<g filter="url(#ds1)">
	<path fill="#D0D2D3" stroke="#929497" stroke-width="1.4546" stroke-linejoin="round" stroke-miterlimit="10" d="M687.4,617.7
		c1.7-3.5,2.4-7.2,2.4-10.8c2,3.3,4.9,6.2,8.5,8.3l12-3.2c1.8-3.1,2.8-6.5,3.1-9.9c1.8,2.8,4.3,5.2,7.2,7l12.1-2.8
		c7.1-11.3,3.6-26.1-7.6-33.2l-12.1,2.8c-0.7,1.1-1.3,2.3-1.8,3.5l-3.9-1.8l-2.7,3.6c-1-0.8-2-1.5-3.1-2.1l-12,3.2
		c-0.5,0.9-1,1.9-1.4,2.9l-4.9-1.4l-3.2,4.1c-1.2-0.9-2.4-1.6-3.8-2.3c-3.6,1.2-7.9,2.7-11.7,4.1c-5.8,12-0.8,26.4,11.2,32.1
		L687.4,617.7z"/>
	<linearGradient id="SVGID_2_" gradientUnits="userSpaceOnUse" x1="698.2203" y1="582.0452" x2="703.3333" y2="603.8541">
		<stop  offset="0" style="stop-color:#B5B5B5"/>
		<stop  offset="1" style="stop-color:#9A9A9A"/>
	</linearGradient>
	<path fill="url(#SVGID_2_)" d="M718.1,588.5c-6.9-0.1-26.9,2-37.1,9.1c-1,0.7-2.4,0.3-2.9,0c-1-0.6-3.3-3.2-3.4-11.6
		c-3.2,1.1-6.9,2.4-10.2,3.6c0.5,9.6,3.3,15.7,8.4,18.5c1.8,1,3.7,1.4,5.7,1.4c2.9,0,6-0.7,8.6-2.9c7.2-6.3,25.4-6.7,31.7-7.2
		c7.2-0.6,13.8-4.2,17.1-10.6c-0.9-4.6-3.1-8.8-6.5-12.2C729.9,587.5,720.3,588.6,718.1,588.5z"/>
</g>
<g filter="url(#ds1)">
	<circle fill="#3F3F3F" cx="724" cy="592.8" r="3.7"/>
	
		<rect x="723.3" y="590.4" transform="matrix(-2.208451e-02 0.9998 -0.9998 -2.208451e-02 1332.6727 -117.9647)" fill="#FFFFFF" width="1.4" height="4.9"/>
</g>
<g filter="url(#ds1)">
	<circle fill="#3F3F3F" cx="731.2" cy="587" r="3.7"/>
	
		<rect x="730.6" y="584.5" transform="matrix(-2.208451e-02 0.9998 -0.9998 -2.208451e-02 1334.2141 -131.1348)" fill="#FFFFFF" width="1.4" height="4.9"/>
</g>
<g filter="url(#ds1)">
	<circle fill="#F4F4F4" cx="690" cy="665" r="5.1"/>
	<g>
		<rect x="689.2" y="661.7" fill="#3F3F3F" width="1.5" height="6.6"/>
		<rect x="686.7" y="664.2" fill="#3F3F3F" width="6.6" height="1.5"/>
	</g>
</g>
<g filter="url(#ds1)">
	<circle fill="#F4F4F4" cx="697.3" cy="650.1" r="5.1"/>
	<g>
		<rect x="696.6" y="646.8" fill="#3F3F3F" width="1.5" height="6.6"/>
		<rect x="694" y="649.4" fill="#3F3F3F" width="6.6" height="1.5"/>
	</g>
</g>
<g filter="url(#ds1)">
	<circle fill="#F4F4F4" cx="678.6" cy="645" r="5.1"/>
	<g>
		<rect x="677.9" y="641.8" fill="#3F3F3F" width="1.5" height="6.6"/>
		<rect x="675.3" y="644.3" fill="#3F3F3F" width="6.6" height="1.5"/>
	</g>
</g>
<g filter="url(#ds1)">
	<circle fill="#F4F4F4" cx="889.6" cy="644" r="5.1"/>
	<g>
		<rect x="888.9" y="640.7" fill="#3F3F3F" width="1.5" height="6.6"/>
		<rect x="886.3" y="643.3" fill="#3F3F3F" width="6.6" height="1.5"/>
	</g>
</g>
<g filter="url(#ds1)">
	<circle fill="#F4F4F4" cx="853.1" cy="633" r="5.1"/>
	<g>
		<rect x="852.4" y="629.7" fill="#3F3F3F" width="1.5" height="6.6"/>
		<rect x="849.8" y="632.2" fill="#3F3F3F" width="6.6" height="1.5"/>
	</g>
</g>
<g filter="url(#ds1)">
	<circle fill="#F4F4F4" cx="868.6" cy="659.6" r="5.1"/>
	<g>
		<rect x="867.8" y="656.3" fill="#3F3F3F" width="1.5" height="6.6"/>
		<rect x="865.3" y="658.9" fill="#3F3F3F" width="6.6" height="1.5"/>
	</g>
</g>
<g filter="url(#ds1)">
	<circle fill="#F4F4F4" cx="844.8" cy="673.7" r="5.1"/>
	<g>
		<rect x="844" y="670.4" fill="#3F3F3F" width="1.5" height="6.6"/>
		<rect x="841.5" y="672.9" fill="#3F3F3F" width="6.6" height="1.5"/>
	</g>
</g>
<g filter="url(#ds1)">
	<circle fill="#F4F4F4" cx="903.1" cy="675.5" r="5.1"/>
	<g>
		<rect x="902.4" y="672.2" fill="#3F3F3F" width="1.5" height="6.6"/>
		<rect x="899.8" y="674.7" fill="#3F3F3F" width="6.6" height="1.5"/>
	</g>
</g>
<g filter="url(#ds1)">
	<circle fill="#F4F4F4" cx="910.8" cy="657.9" r="5.1"/>
	<g>
		<rect x="910" y="654.6" fill="#3F3F3F" width="1.5" height="6.6"/>
		<rect x="907.5" y="657.2" fill="#3F3F3F" width="6.6" height="1.5"/>
	</g>
</g>
<g filter="url(#ds1)">
	<circle fill="#F4F4F4" cx="880.3" cy="687.9" r="5.1"/>
	<g>
		<rect x="879.5" y="684.6" fill="#3F3F3F" width="1.5" height="6.6"/>
		<rect x="877" y="687.2" fill="#3F3F3F" width="6.6" height="1.5"/>
	</g>
</g>
<g filter="url(#ds1)">
	<circle fill="#F4F4F4" cx="836.4" cy="651.1" r="5.1"/>
	<g>
		<rect x="835.6" y="647.8" fill="#3F3F3F" width="1.5" height="6.6"/>
		<rect x="833.1" y="650.3" fill="#3F3F3F" width="6.6" height="1.5"/>
	</g>
</g>
<g filter="url(#ds1)">
	<circle fill="#F4F4F4" cx="795.9" cy="650.3" r="5.1"/>
	<g>
		<rect x="795.1" y="647" fill="#3F3F3F" width="1.5" height="6.6"/>
		<rect x="792.6" y="649.6" fill="#3F3F3F" width="6.6" height="1.5"/>
	</g>
</g>
<g filter="url(#ds1)">
	<circle fill="#F4F4F4" cx="779.1" cy="631.2" r="5.1"/>
	<g>
		<rect x="778.3" y="627.9" fill="#3F3F3F" width="1.5" height="6.6"/>
		<rect x="775.8" y="630.4" fill="#3F3F3F" width="6.6" height="1.5"/>
	</g>
</g>
<g filter="url(#ds1)">
	<circle fill="#F4F4F4" cx="755.9" cy="623.8" r="5.1"/>
	<g>
		<rect x="755.1" y="620.5" fill="#3F3F3F" width="1.5" height="6.6"/>
		<rect x="752.6" y="623.1" fill="#3F3F3F" width="6.6" height="1.5"/>
	</g>
</g>
<g filter="url(#ds1)">
	<circle fill="#F4F4F4" cx="819.6" cy="636.3" r="5.1"/>
	<g>
		<rect x="818.9" y="633" fill="#3F3F3F" width="1.5" height="6.6"/>
		<rect x="816.3" y="635.5" fill="#3F3F3F" width="6.6" height="1.5"/>
	</g>
</g>
<g filter="url(#ds1)">
	<circle fill="#F4F4F4" cx="880.3" cy="615.9" r="5.1"/>
	<g>
		<rect x="879.5" y="612.6" fill="#3F3F3F" width="1.5" height="6.6"/>
		<rect x="877" y="615.2" fill="#3F3F3F" width="6.6" height="1.5"/>
	</g>
</g>
<g filter="url(#ds1)">
	<circle fill="#F4F4F4" cx="911.5" cy="625.3" r="5.1"/>
	<g>
		<rect x="910.8" y="622" fill="#3F3F3F" width="1.5" height="6.6"/>
		<rect x="908.2" y="624.6" fill="#3F3F3F" width="6.6" height="1.5"/>
	</g>
</g>
<g filter="url(#ds1)">
	<circle fill="#F4F4F4" cx="800.9" cy="624.6" r="5.1"/>
	<g>
		<rect x="800.2" y="621.3" fill="#3F3F3F" width="1.5" height="6.6"/>
		<rect x="797.6" y="623.8" fill="#3F3F3F" width="6.6" height="1.5"/>
	</g>
</g>
<g filter="url(#ds1)">
	<circle fill="#F4F4F4" cx="785.7" cy="611.9" r="5.1"/>
	<g>
		<rect x="784.9" y="608.6" fill="#3F3F3F" width="1.5" height="6.6"/>
		<rect x="782.4" y="611.1" fill="#3F3F3F" width="6.6" height="1.5"/>
	</g>
</g>
<g filter="url(#ds1)">
	<circle fill="#F4F4F4" cx="831.3" cy="612.6" r="5.1"/>
	<g>
		<rect x="830.5" y="609.3" fill="#3F3F3F" width="1.5" height="6.6"/>
		<rect x="828" y="611.9" fill="#3F3F3F" width="6.6" height="1.5"/>
	</g>
</g>
<g filter="url(#ds1)">
	<circle fill="#F4F4F4" cx="806" cy="677" r="5.1"/>
	<g>
		<rect x="805.3" y="673.7" fill="#3F3F3F" width="1.5" height="6.6"/>
		<rect x="802.7" y="676.2" fill="#3F3F3F" width="6.6" height="1.5"/>
	</g>
</g>
<g filter="url(#ds1)">
	<circle fill="#F4F4F4" cx="780.9" cy="672.9" r="5.1"/>
	<g>
		<rect x="780.1" y="669.7" fill="#3F3F3F" width="1.5" height="6.6"/>
		<rect x="777.6" y="672.2" fill="#3F3F3F" width="6.6" height="1.5"/>
	</g>
</g>
<g filter="url(#ds1)">
	<circle fill="#F4F4F4" cx="771.1" cy="653.9" r="5.1"/>
	<g>
		<rect x="770.3" y="650.6" fill="#3F3F3F" width="1.5" height="6.6"/>
		<rect x="767.8" y="653.1" fill="#3F3F3F" width="6.6" height="1.5"/>
	</g>
</g>
<g filter="url(#ds1)">
	<circle fill="#F4F4F4" cx="741" cy="647" r="5.1"/>
	<g>
		<rect x="740.3" y="643.7" fill="#3F3F3F" width="1.5" height="6.6"/>
		<rect x="737.7" y="646.3" fill="#3F3F3F" width="6.6" height="1.5"/>
	</g>
</g>
<g filter="url(#ds1)">
	<circle fill="#F4F4F4" cx="740.1" cy="678.8" r="5.1"/>
	<g>
		<rect x="739.4" y="675.5" fill="#3F3F3F" width="1.5" height="6.6"/>
		<rect x="736.8" y="678" fill="#3F3F3F" width="6.6" height="1.5"/>
	</g>
</g>
<g filter="url(#ds1)">
	<circle fill="#F4F4F4" cx="725.8" cy="671.9" r="5.1"/>
	<g>
		<rect x="725.1" y="668.6" fill="#3F3F3F" width="1.5" height="6.6"/>
		<rect x="722.5" y="671.2" fill="#3F3F3F" width="6.6" height="1.5"/>
	</g>
</g>
<g filter="url(#ds1)">
	<circle fill="#F4F4F4" cx="641.2" cy="678.8" r="5.1"/>
	<g>
		<rect x="640.5" y="675.5" fill="#3F3F3F" width="1.5" height="6.6"/>
		<rect x="637.9" y="678" fill="#3F3F3F" width="6.6" height="1.5"/>
	</g>
</g>
<g filter="url(#ds1)">
	<circle fill="#F4F4F4" cx="646.3" cy="657.9" r="5.1"/>
	<g>
		<rect x="645.6" y="654.6" fill="#3F3F3F" width="1.5" height="6.6"/>
		<rect x="643" y="657.2" fill="#3F3F3F" width="6.6" height="1.5"/>
	</g>
</g>
<g filter="url(#ds1)">
	<circle fill="#F4F4F4" cx="617.7" cy="677.7" r="5.1"/>
	<g>
		<rect x="617" y="674.4" fill="#3F3F3F" width="1.5" height="6.6"/>
		<rect x="614.5" y="677" fill="#3F3F3F" width="6.6" height="1.5"/>
	</g>
</g>
<g filter="url(#ds1)">
	<circle fill="#F4F4F4" cx="711.3" cy="682.1" r="5.1"/>
	<g>
		<rect x="710.5" y="678.8" fill="#3F3F3F" width="1.5" height="6.6"/>
		<rect x="708" y="681.3" fill="#3F3F3F" width="6.6" height="1.5"/>
	</g>
</g>
<g filter="url(#ds1)">
	<circle fill="#F4F4F4" cx="665.4" cy="690" r="5.1"/>
	<g>
		<rect x="664.6" y="686.7" fill="#3F3F3F" width="1.5" height="6.6"/>
		<rect x="662.1" y="689.3" fill="#3F3F3F" width="6.6" height="1.5"/>
	</g>
</g>
<g filter="url(#ds1)">
	<circle fill="#F4F4F4" cx="669.8" cy="657.9" r="5.1"/>
	<g>
		
			<rect x="669.1" y="654.6" transform="matrix(0.1874 0.9823 -0.9823 0.1874 1190.5625 -123.323)" fill="#3F3F3F" width="1.5" height="6.6"/>
		
			<rect x="669.1" y="654.6" transform="matrix(-0.9823 0.1874 -0.1874 -0.9823 1451.0823 1178.6813)" fill="#3F3F3F" width="1.5" height="6.6"/>
	</g>
</g>
<g filter="url(#ds1)">
	<circle fill="#F4F4F4" cx="708" cy="633.7" r="5.1"/>
	<g>
		
			<rect x="707.2" y="630.4" transform="matrix(0.1874 0.9823 -0.9823 0.1874 1197.7551 -180.4839)" fill="#3F3F3F" width="1.5" height="6.6"/>
		
			<rect x="707.2" y="630.4" transform="matrix(-0.9823 0.1874 -0.1874 -0.9823 1522.1555 1123.4952)" fill="#3F3F3F" width="1.5" height="6.6"/>
	</g>
</g>
<g filter="url(#ds1)">
	<circle fill="#F4F4F4" cx="735" cy="633" r="5.1"/>
	<g>
		<rect x="734.2" y="629.7" fill="#3F3F3F" width="1.5" height="6.6"/>
		<rect x="731.7" y="632.2" fill="#3F3F3F" width="6.6" height="1.5"/>
	</g>
</g>
<g filter="url(#ds1)">
	<circle fill="#F4F4F4" cx="718.6" cy="646.3" r="5.1"/>
	<g>
		<rect x="717.9" y="643" fill="#3F3F3F" width="1.5" height="6.6"/>
		<rect x="715.3" y="645.5" fill="#3F3F3F" width="6.6" height="1.5"/>
	</g>
</g>
<g filter="url(#ds1)">
	<circle fill="#F4F4F4" cx="758.8" cy="639.5" r="5.1"/>
	<g>
		<rect x="758.1" y="636.3" fill="#3F3F3F" width="1.5" height="6.6"/>
		<rect x="755.6" y="638.8" fill="#3F3F3F" width="6.6" height="1.5"/>
	</g>
</g>
<g filter="url(#ds1)">
	<circle fill="#F4F4F4" cx="751.1" cy="662.9" r="5.1"/>
	<g>
		<rect x="750.3" y="659.6" fill="#3F3F3F" width="1.5" height="6.6"/>
		<rect x="747.8" y="662.1" fill="#3F3F3F" width="6.6" height="1.5"/>
	</g>
</g>
<g filter="url(#ds1)">
	<circle fill="#F4F4F4" cx="730.7" cy="657.2" r="5.1"/>
	<g>
		<rect x="730" y="653.9" fill="#3F3F3F" width="1.5" height="6.6"/>
		<rect x="727.4" y="656.4" fill="#3F3F3F" width="6.6" height="1.5"/>
	</g>
</g>
<g filter="url(#ds1)">
	<circle fill="#F4F4F4" cx="709.5" cy="664.1" r="5.1"/>
	<g>
		<rect x="708.8" y="660.8" fill="#3F3F3F" width="1.5" height="6.6"/>
		<rect x="706.2" y="663.3" fill="#3F3F3F" width="6.6" height="1.5"/>
	</g>
</g>
</svg>
