<?xml version="1.0" encoding="utf-8"?>
<!-- Generator: Adobe Illustrator 18.1.1, SVG Export Plug-In . SVG Version: 6.00 Build 0)  -->
<!DOCTYPE svg PUBLIC "-//W3C//DTD SVG 1.1//EN" "http://www.w3.org/Graphics/SVG/1.1/DTD/svg11.dtd">
<svg version="1.1" id="Layer_1" xmlns="http://www.w3.org/2000/svg" xmlns:xlink="http://www.w3.org/1999/xlink" x="0px" y="0px"
	 viewBox="0 0 920 690" enable-background="new 0 0 920 690" xml:space="preserve">
<filter  height="200%" width="200%" id="ds3" y="-50%" x="-50%">
	<feOffset  in="SourceAlpha" result="offOut" dy="17" dx="0"></feOffset>
	<feGaussianBlur  in="offOut" stdDeviation="15" result="blurOut"></feGaussianBlur>
	<feComponentTransfer>
		<feFuncA  type="linear" slope="0.4"></feFuncA>
	</feComponentTransfer>
	<feMerge>
		<feMergeNode></feMergeNode>
		<feMergeNode  in="SourceGraphic"></feMergeNode>
	</feMerge>
</filter>
<filter  height="200%" width="200%" id="ds2" y="-50%" x="-50%">
	<feOffset  in="SourceAlpha" result="offOut" dy="-1" dx="0"></feOffset>
	<feGaussianBlur  in="offOut" stdDeviation="17" result="blurOut"></feGaussianBlur>
	<feComponentTransfer>
		<feFuncA  type="linear" slope="0.2"></feFuncA>
	</feComponentTransfer>
	<feMerge>
		<feMergeNode></feMergeNode>
		<feMergeNode  in="SourceGraphic"></feMergeNode>
	</feMerge>
</filter>
<filter  height="170%" width="170%" id="ds1" y="-20%" x="-30%">
	<feOffset  in="SourceAlpha" result="offOut" dy="1" dx="0"></feOffset>
	<feGaussianBlur  in="offOut" stdDeviation="2" result="blurOut"></feGaussianBlur>
	<feComponentTransfer>
		<feFuncA  type="linear" slope="0.5"></feFuncA>
	</feComponentTransfer>
	<feMerge>
		<feMergeNode></feMergeNode>
		<feMergeNode  in="SourceGraphic"></feMergeNode>
	</feMerge>
</filter>
<linearGradient id="SVGID_1_" gradientUnits="userSpaceOnUse" x1="425.8094" y1="-5.1941" x2="489.0463" y2="642.5043">
	<stop  offset="0" style="stop-color:#B6E9CF"/>
	<stop  offset="1" style="stop-color:#DDBF6B"/>
</linearGradient>
<rect x="0" y="0" fill="url(#SVGID_1_)" width="920" height="690"/>
<g opacity="0.45" filter="url(#ds1)">
	<path fill="#F9DA55" d="M803.7,48c0.8-0.6,1.4-1.3,1.8-2.1c1.1-2.1,3.1-3.4,5.3-4.1c0.8-0.2,1.5-0.6,2.2-1.1c3-2.2,3.7-6.6,1.4-9.6
		c-2.3-3-6.6-3.6-9.6-1.3c-0.7,0.5-1.2,1.2-1.6,1.9c-1.3,2.1-3.2,3.7-5.6,4.4c-0.8,0.2-1.5,0.6-2.2,1.2s-1.2,1.2-1.6,1.9
		c-1.3,2.1-3.2,3.7-5.6,4.4c-0.8,0.2-1.5,0.6-2.2,1.2c-0.7,0.5-1.2,1.2-1.6,1.9c-1.3,2.1-3.2,3.7-5.6,4.4c-0.8,0.2-1.5,0.6-2.2,1.2
		c-0.7,0.5-1.2,1.2-1.6,1.9c-1.3,2.1-3.2,3.7-5.6,4.4c-0.8,0.2-1.5,0.6-2.2,1.2c-0.7,0.5-1.2,1.2-1.6,1.9c-1.3,2.1-3.2,3.7-5.6,4.4
		c-0.8,0.2-1.5,0.6-2.2,1.2c-0.7,0.5-1.2,1.2-1.6,1.9c-1.3,2.1-3.2,3.7-5.6,4.4c-0.8,0.2-1.5,0.6-2.2,1.2c-0.7,0.5-1.2,1.2-1.6,1.9
		c-1.3,2.1-3.2,3.7-5.6,4.4c-0.8,0.2-1.5,0.6-2.2,1.2c-0.7,0.5-1.2,1.2-1.6,1.9c-1.3,2.1-3.2,3.7-5.6,4.4c-0.8,0.2-1.5,0.6-2.2,1.2
		s-1.2,1.2-1.6,1.9c-1.3,2.1-3.2,3.7-5.6,4.4c-0.8,0.2-1.5,0.6-2.2,1.2c-0.7,0.5-1.2,1.2-1.6,1.9c-1.3,2.1-3.2,3.7-5.6,4.4
		c-0.8,0.2-1.5,0.6-2.2,1.2c-0.8,0.6-1.4,1.3-1.8,2.1c-1.1,2.1-3.1,3.4-5.3,4.1c-0.8,0.2-1.5,0.6-2.2,1.1c-3,2.2-3.7,6.6-1.4,9.6
		c2.3,3,6.6,3.6,9.6,1.3c0.7-0.5,1.2-1.2,1.6-1.9c1.3-2.1,3.2-3.7,5.6-4.4c0.8-0.2,1.5-0.6,2.2-1.2c0.7-0.5,1.2-1.2,1.6-1.9
		c1.3-2.1,3.2-3.7,5.6-4.4c0.8-0.2,1.5-0.6,2.2-1.2c0.7-0.5,1.2-1.2,1.6-1.9c1.3-2.1,3.2-3.7,5.6-4.4c0.8-0.2,1.5-0.6,2.2-1.2
		c0.7-0.5,1.2-1.2,1.6-1.9c1.3-2.1,3.2-3.7,5.6-4.4c0.8-0.2,1.5-0.6,2.2-1.2c0.7-0.5,1.2-1.2,1.6-1.9c1.3-2.1,3.2-3.7,5.6-4.4
		c0.8-0.2,1.5-0.6,2.2-1.2c0.7-0.5,1.2-1.2,1.6-1.9c1.3-2.1,3.2-3.7,5.6-4.4c0.8-0.2,1.5-0.6,2.2-1.2c0.7-0.5,1.2-1.2,1.6-1.9
		c1.3-2.1,3.2-3.7,5.6-4.4c0.8-0.2,1.5-0.6,2.2-1.2c0.7-0.5,1.2-1.2,1.6-1.9c1.3-2.1,3.2-3.7,5.6-4.4c0.8-0.2,1.5-0.6,2.2-1.2
		c0.7-0.5,1.2-1.2,1.6-1.9c1.3-2.1,3.2-3.7,5.6-4.4c0.8-0.2,1.5-0.6,2.2-1.2c0.7-0.5,1.2-1.2,1.6-1.9c1.3-2.1,3.2-3.7,5.6-4.4
		C802.2,48.9,803,48.5,803.7,48z"/>
	<path fill="none" stroke="#D6971A" stroke-width="1.489" stroke-miterlimit="10" d="M803.7,48c0.8-0.6,1.4-1.3,1.8-2.1
		c1.1-2.1,3.1-3.4,5.3-4.1c0.8-0.2,1.5-0.6,2.2-1.1c3-2.2,3.7-6.6,1.4-9.6c-2.3-3-6.6-3.6-9.6-1.3c-0.7,0.5-1.2,1.2-1.6,1.9
		c-1.3,2.1-3.2,3.7-5.6,4.4c-0.8,0.2-1.5,0.6-2.2,1.2s-1.2,1.2-1.6,1.9c-1.3,2.1-3.2,3.7-5.6,4.4c-0.8,0.2-1.5,0.6-2.2,1.2
		c-0.7,0.5-1.2,1.2-1.6,1.9c-1.3,2.1-3.2,3.7-5.6,4.4c-0.8,0.2-1.5,0.6-2.2,1.2c-0.7,0.5-1.2,1.2-1.6,1.9c-1.3,2.1-3.2,3.7-5.6,4.4
		c-0.8,0.2-1.5,0.6-2.2,1.2c-0.7,0.5-1.2,1.2-1.6,1.9c-1.3,2.1-3.2,3.7-5.6,4.4c-0.8,0.2-1.5,0.6-2.2,1.2c-0.7,0.5-1.2,1.2-1.6,1.9
		c-1.3,2.1-3.2,3.7-5.6,4.4c-0.8,0.2-1.5,0.6-2.2,1.2c-0.7,0.5-1.2,1.2-1.6,1.9c-1.3,2.1-3.2,3.7-5.6,4.4c-0.8,0.2-1.5,0.6-2.2,1.2
		c-0.7,0.5-1.2,1.2-1.6,1.9c-1.3,2.1-3.2,3.7-5.6,4.4c-0.8,0.2-1.5,0.6-2.2,1.2s-1.2,1.2-1.6,1.9c-1.3,2.1-3.2,3.7-5.6,4.4
		c-0.8,0.2-1.5,0.6-2.2,1.2c-0.7,0.5-1.2,1.2-1.6,1.9c-1.3,2.1-3.2,3.7-5.6,4.4c-0.8,0.2-1.5,0.6-2.2,1.2c-0.8,0.6-1.4,1.3-1.8,2.1
		c-1.1,2.1-3.1,3.4-5.3,4.1c-0.8,0.2-1.5,0.6-2.2,1.1c-3,2.2-3.7,6.6-1.4,9.6c2.3,3,6.6,3.6,9.6,1.3c0.7-0.5,1.2-1.2,1.6-1.9
		c1.3-2.1,3.2-3.7,5.6-4.4c0.8-0.2,1.5-0.6,2.2-1.2c0.7-0.5,1.2-1.2,1.6-1.9c1.3-2.1,3.2-3.7,5.6-4.4c0.8-0.2,1.5-0.6,2.2-1.2
		c0.7-0.5,1.2-1.2,1.6-1.9c1.3-2.1,3.2-3.7,5.6-4.4c0.8-0.2,1.5-0.6,2.2-1.2c0.7-0.5,1.2-1.2,1.6-1.9c1.3-2.1,3.2-3.7,5.6-4.4
		c0.8-0.2,1.5-0.6,2.2-1.2c0.7-0.5,1.2-1.2,1.6-1.9c1.3-2.1,3.2-3.7,5.6-4.4c0.8-0.2,1.5-0.6,2.2-1.2c0.7-0.5,1.2-1.2,1.6-1.9
		c1.3-2.1,3.2-3.7,5.6-4.4c0.8-0.2,1.5-0.6,2.2-1.2c0.7-0.5,1.2-1.2,1.6-1.9c1.3-2.1,3.2-3.7,5.6-4.4c0.8-0.2,1.5-0.6,2.2-1.2
		c0.7-0.5,1.2-1.2,1.6-1.9c1.3-2.1,3.2-3.7,5.6-4.4c0.8-0.2,1.5-0.6,2.2-1.2c0.7-0.5,1.2-1.2,1.6-1.9c1.3-2.1,3.2-3.7,5.6-4.4
		c0.8-0.2,1.5-0.6,2.2-1.2c0.7-0.5,1.2-1.2,1.6-1.9c1.3-2.1,3.2-3.7,5.6-4.4C802.2,48.9,803,48.5,803.7,48z"/>
</g>
<g opacity="0.45" filter="url(#ds1)">
	<path fill="#F9DA55" d="M832.9,87.5c1-0.1,1.8-0.5,2.6-0.9c2-1.2,4.4-1.4,6.6-0.9c0.8,0.2,1.6,0.3,2.4,0.2c3.7-0.4,6.5-3.9,6.1-7.6
		c-0.5-3.8-3.9-6.5-7.7-5.9c-0.9,0.1-1.6,0.4-2.4,0.8c-2.2,1.2-4.6,1.5-7,1c-0.8-0.2-1.6-0.2-2.5-0.1s-1.6,0.4-2.4,0.8
		c-2.2,1.2-4.6,1.5-7,1c-0.8-0.2-1.6-0.2-2.5-0.1c-0.9,0.1-1.6,0.4-2.4,0.8c-2.2,1.2-4.6,1.5-7,1c-0.8-0.2-1.6-0.2-2.5-0.1
		c-0.9,0.1-1.6,0.4-2.4,0.8c-2.2,1.2-4.6,1.5-7,1c-0.8-0.2-1.6-0.2-2.5-0.1c-0.9,0.1-1.6,0.4-2.4,0.8c-2.2,1.2-4.6,1.5-7,1
		c-0.8-0.2-1.6-0.2-2.5-0.1c-0.9,0.1-1.6,0.4-2.4,0.8c-2.2,1.2-4.6,1.5-7,1c-0.8-0.2-1.6-0.2-2.5-0.1c-0.9,0.1-1.6,0.4-2.4,0.8
		c-2.2,1.2-4.6,1.5-7,1c-0.8-0.2-1.6-0.2-2.5-0.1c-0.9,0.1-1.6,0.4-2.4,0.8c-2.2,1.2-4.6,1.5-7,1c-0.8-0.2-1.6-0.2-2.5-0.1
		s-1.6,0.4-2.4,0.8c-2.2,1.2-4.6,1.5-7,1c-0.8-0.2-1.6-0.2-2.5-0.1s-1.6,0.4-2.4,0.8c-2.2,1.2-4.6,1.5-7,1c-0.8-0.2-1.6-0.2-2.5-0.1
		c-1,0.1-1.8,0.5-2.6,0.9c-2,1.2-4.4,1.4-6.6,0.9c-0.8-0.2-1.6-0.3-2.4-0.2c-3.7,0.4-6.5,3.9-6.1,7.6c0.5,3.8,3.9,6.5,7.7,5.9
		c0.9-0.1,1.6-0.4,2.4-0.8c2.2-1.2,4.6-1.5,7-1c0.8,0.2,1.6,0.2,2.5,0.1c0.9-0.1,1.7-0.4,2.4-0.8c2.2-1.2,4.6-1.5,7-1
		c0.8,0.2,1.6,0.2,2.5,0.1c0.9-0.1,1.6-0.4,2.4-0.8c2.2-1.2,4.6-1.5,7-1c0.8,0.2,1.6,0.2,2.5,0.1c0.9-0.1,1.6-0.4,2.4-0.8
		c2.2-1.2,4.6-1.5,7-1c0.8,0.2,1.6,0.2,2.5,0.1c0.9-0.1,1.6-0.4,2.4-0.8c2.2-1.2,4.6-1.5,7-1c0.8,0.2,1.6,0.2,2.5,0.1
		c0.9-0.1,1.6-0.4,2.4-0.8c2.2-1.2,4.6-1.5,7-1c0.8,0.2,1.6,0.2,2.5,0.1c0.9-0.1,1.6-0.4,2.4-0.8c2.2-1.2,4.6-1.5,7-1
		c0.8,0.2,1.6,0.2,2.5,0.1s1.6-0.4,2.4-0.8c2.2-1.2,4.6-1.5,7-1c0.8,0.2,1.6,0.2,2.5,0.1c0.9-0.1,1.6-0.4,2.4-0.8
		c2.2-1.2,4.6-1.5,7-1c0.8,0.2,1.6,0.2,2.5,0.1c0.9-0.1,1.7-0.4,2.4-0.8c2.2-1.2,4.6-1.5,7-1C831.2,87.6,832.1,87.6,832.9,87.5z"/>
	<path fill="none" stroke="#D6971A" stroke-width="1.489" stroke-miterlimit="10" d="M832.9,87.5c1-0.1,1.8-0.5,2.6-0.9
		c2-1.2,4.4-1.4,6.6-0.9c0.8,0.2,1.6,0.3,2.4,0.2c3.7-0.4,6.5-3.9,6.1-7.6c-0.5-3.8-3.9-6.5-7.7-5.9c-0.9,0.1-1.6,0.4-2.4,0.8
		c-2.2,1.2-4.6,1.5-7,1c-0.8-0.2-1.6-0.2-2.5-0.1s-1.6,0.4-2.4,0.8c-2.2,1.2-4.6,1.5-7,1c-0.8-0.2-1.6-0.2-2.5-0.1
		c-0.9,0.1-1.6,0.4-2.4,0.8c-2.2,1.2-4.6,1.5-7,1c-0.8-0.2-1.6-0.2-2.5-0.1c-0.9,0.1-1.6,0.4-2.4,0.8c-2.2,1.2-4.6,1.5-7,1
		c-0.8-0.2-1.6-0.2-2.5-0.1c-0.9,0.1-1.6,0.4-2.4,0.8c-2.2,1.2-4.6,1.5-7,1c-0.8-0.2-1.6-0.2-2.5-0.1c-0.9,0.1-1.6,0.4-2.4,0.8
		c-2.2,1.2-4.6,1.5-7,1c-0.8-0.2-1.6-0.2-2.5-0.1c-0.9,0.1-1.6,0.4-2.4,0.8c-2.2,1.2-4.6,1.5-7,1c-0.8-0.2-1.6-0.2-2.5-0.1
		c-0.9,0.1-1.6,0.4-2.4,0.8c-2.2,1.2-4.6,1.5-7,1c-0.8-0.2-1.6-0.2-2.5-0.1s-1.6,0.4-2.4,0.8c-2.2,1.2-4.6,1.5-7,1
		c-0.8-0.2-1.6-0.2-2.5-0.1s-1.6,0.4-2.4,0.8c-2.2,1.2-4.6,1.5-7,1c-0.8-0.2-1.6-0.2-2.5-0.1c-1,0.1-1.8,0.5-2.6,0.9
		c-2,1.2-4.4,1.4-6.6,0.9c-0.8-0.2-1.6-0.3-2.4-0.2c-3.7,0.4-6.5,3.9-6.1,7.6c0.5,3.8,3.9,6.5,7.7,5.9c0.9-0.1,1.6-0.4,2.4-0.8
		c2.2-1.2,4.6-1.5,7-1c0.8,0.2,1.6,0.2,2.5,0.1c0.9-0.1,1.7-0.4,2.4-0.8c2.2-1.2,4.6-1.5,7-1c0.8,0.2,1.6,0.2,2.5,0.1
		c0.9-0.1,1.6-0.4,2.4-0.8c2.2-1.2,4.6-1.5,7-1c0.8,0.2,1.6,0.2,2.5,0.1c0.9-0.1,1.6-0.4,2.4-0.8c2.2-1.2,4.6-1.5,7-1
		c0.8,0.2,1.6,0.2,2.5,0.1c0.9-0.1,1.6-0.4,2.4-0.8c2.2-1.2,4.6-1.5,7-1c0.8,0.2,1.6,0.2,2.5,0.1c0.9-0.1,1.6-0.4,2.4-0.8
		c2.2-1.2,4.6-1.5,7-1c0.8,0.2,1.6,0.2,2.5,0.1c0.9-0.1,1.6-0.4,2.4-0.8c2.2-1.2,4.6-1.5,7-1c0.8,0.2,1.6,0.2,2.5,0.1
		s1.6-0.4,2.4-0.8c2.2-1.2,4.6-1.5,7-1c0.8,0.2,1.6,0.2,2.5,0.1c0.9-0.1,1.6-0.4,2.4-0.8c2.2-1.2,4.6-1.5,7-1
		c0.8,0.2,1.6,0.2,2.5,0.1c0.9-0.1,1.7-0.4,2.4-0.8c2.2-1.2,4.6-1.5,7-1C831.2,87.6,832.1,87.6,832.9,87.5z"/>
</g>
<g opacity="0.45" filter="url(#ds1)">
	<path fill="#F9DA55" d="M876.3,111.6c1,0,1.9-0.2,2.7-0.6c2.1-1,4.5-0.9,6.7,0c0.7,0.3,1.5,0.5,2.4,0.5c3.7,0.1,7-3.1,7-6.8
		c0-3.8-3.1-6.9-6.9-6.8c-0.9,0-1.7,0.2-2.4,0.5c-2.3,0.9-4.8,1-7.1,0.1c-0.8-0.3-1.6-0.4-2.5-0.4c-0.9,0-1.7,0.2-2.4,0.5
		c-2.3,0.9-4.8,1-7.1,0.1c-0.8-0.3-1.6-0.4-2.5-0.4c-0.9,0-1.7,0.2-2.4,0.5c-2.3,0.9-4.8,1-7.1,0.1c-0.8-0.3-1.6-0.4-2.5-0.4
		c-0.9,0-1.7,0.2-2.4,0.5c-2.3,0.9-4.8,1-7.1,0.1c-0.8-0.3-1.6-0.4-2.5-0.4c-0.9,0-1.7,0.2-2.4,0.5c-2.3,0.9-4.8,1-7.1,0.1
		c-0.8-0.3-1.6-0.4-2.5-0.4s-1.7,0.2-2.4,0.5c-2.3,0.9-4.8,1-7.1,0.1c-0.8-0.3-1.6-0.4-2.5-0.4c-0.9,0-1.7,0.2-2.4,0.5
		c-2.3,0.9-4.8,1-7.1,0.1c-0.8-0.3-1.6-0.4-2.5-0.4c-0.9,0-1.7,0.2-2.4,0.5c-2.3,0.9-4.8,1-7.1,0.1c-0.8-0.3-1.6-0.4-2.5-0.4
		s-1.7,0.2-2.4,0.5c-2.3,0.9-4.8,1-7.1,0.1c-0.8-0.3-1.6-0.4-2.5-0.4c-0.9,0-1.7,0.2-2.4,0.5c-2.3,0.9-4.8,1-7.1,0.1
		c-0.8-0.3-1.6-0.4-2.5-0.4c-1,0-1.9,0.2-2.7,0.6c-2.1,1-4.5,0.9-6.7,0c-0.7-0.3-1.5-0.5-2.4-0.5c-3.7-0.1-7,3.1-7,6.8
		c0,3.8,3.1,6.9,6.9,6.8c0.9,0,1.7-0.2,2.4-0.5c2.3-0.9,4.8-1,7.1-0.1c0.8,0.3,1.6,0.4,2.5,0.4c0.9,0,1.7-0.2,2.4-0.5
		c2.3-0.9,4.8-1,7.1-0.1c0.8,0.3,1.6,0.4,2.5,0.4c0.9,0,1.7-0.2,2.4-0.5c2.3-0.9,4.8-1,7.1-0.1c0.8,0.3,1.6,0.4,2.5,0.4
		s1.7-0.2,2.4-0.5c2.3-0.9,4.8-1,7.1-0.1c0.8,0.3,1.6,0.4,2.5,0.4c0.9,0,1.7-0.2,2.4-0.5c2.3-0.9,4.8-1,7.1-0.1
		c0.8,0.3,1.6,0.4,2.5,0.4c0.9,0,1.7-0.2,2.4-0.5c2.3-0.9,4.8-1,7.1-0.1c0.8,0.3,1.6,0.4,2.5,0.4s1.7-0.2,2.4-0.5
		c2.3-0.9,4.8-1,7.1-0.1c0.8,0.3,1.6,0.4,2.5,0.4s1.7-0.2,2.4-0.5c2.3-0.9,4.8-1,7.1-0.1c0.8,0.3,1.6,0.4,2.5,0.4
		c0.9,0,1.7-0.2,2.4-0.5c2.3-0.9,4.8-1,7.1-0.1c0.8,0.3,1.6,0.4,2.5,0.4c0.9,0,1.7-0.2,2.4-0.5c2.3-0.9,4.8-1,7.1-0.1
		C874.6,111.4,875.5,111.6,876.3,111.6z"/>
	<path fill="none" stroke="#D6971A" stroke-width="1.489" stroke-miterlimit="10" d="M876.3,111.6c1,0,1.9-0.2,2.7-0.6
		c2.1-1,4.5-0.9,6.7,0c0.7,0.3,1.5,0.5,2.4,0.5c3.7,0.1,7-3.1,7-6.8c0-3.8-3.1-6.9-6.9-6.8c-0.9,0-1.7,0.2-2.4,0.5
		c-2.3,0.9-4.8,1-7.1,0.1c-0.8-0.3-1.6-0.4-2.5-0.4c-0.9,0-1.7,0.2-2.4,0.5c-2.3,0.9-4.8,1-7.1,0.1c-0.8-0.3-1.6-0.4-2.5-0.4
		c-0.9,0-1.7,0.2-2.4,0.5c-2.3,0.9-4.8,1-7.1,0.1c-0.8-0.3-1.6-0.4-2.5-0.4c-0.9,0-1.7,0.2-2.4,0.5c-2.3,0.9-4.8,1-7.1,0.1
		c-0.8-0.3-1.6-0.4-2.5-0.4c-0.9,0-1.7,0.2-2.4,0.5c-2.3,0.9-4.8,1-7.1,0.1c-0.8-0.3-1.6-0.4-2.5-0.4s-1.7,0.2-2.4,0.5
		c-2.3,0.9-4.8,1-7.1,0.1c-0.8-0.3-1.6-0.4-2.5-0.4c-0.9,0-1.7,0.2-2.4,0.5c-2.3,0.9-4.8,1-7.1,0.1c-0.8-0.3-1.6-0.4-2.5-0.4
		c-0.9,0-1.7,0.2-2.4,0.5c-2.3,0.9-4.8,1-7.1,0.1c-0.8-0.3-1.6-0.4-2.5-0.4s-1.7,0.2-2.4,0.5c-2.3,0.9-4.8,1-7.1,0.1
		c-0.8-0.3-1.6-0.4-2.5-0.4c-0.9,0-1.7,0.2-2.4,0.5c-2.3,0.9-4.8,1-7.1,0.1c-0.8-0.3-1.6-0.4-2.5-0.4c-1,0-1.9,0.2-2.7,0.6
		c-2.1,1-4.5,0.9-6.7,0c-0.7-0.3-1.5-0.5-2.4-0.5c-3.7-0.1-7,3.1-7,6.8c0,3.8,3.1,6.9,6.9,6.8c0.9,0,1.7-0.2,2.4-0.5
		c2.3-0.9,4.8-1,7.1-0.1c0.8,0.3,1.6,0.4,2.5,0.4c0.9,0,1.7-0.2,2.4-0.5c2.3-0.9,4.8-1,7.1-0.1c0.8,0.3,1.6,0.4,2.5,0.4
		c0.9,0,1.7-0.2,2.4-0.5c2.3-0.9,4.8-1,7.1-0.1c0.8,0.3,1.6,0.4,2.5,0.4s1.7-0.2,2.4-0.5c2.3-0.9,4.8-1,7.1-0.1
		c0.8,0.3,1.6,0.4,2.5,0.4c0.9,0,1.7-0.2,2.4-0.5c2.3-0.9,4.8-1,7.1-0.1c0.8,0.3,1.6,0.4,2.5,0.4c0.9,0,1.7-0.2,2.4-0.5
		c2.3-0.9,4.8-1,7.1-0.1c0.8,0.3,1.6,0.4,2.5,0.4s1.7-0.2,2.4-0.5c2.3-0.9,4.8-1,7.1-0.1c0.8,0.3,1.6,0.4,2.5,0.4s1.7-0.2,2.4-0.5
		c2.3-0.9,4.8-1,7.1-0.1c0.8,0.3,1.6,0.4,2.5,0.4c0.9,0,1.7-0.2,2.4-0.5c2.3-0.9,4.8-1,7.1-0.1c0.8,0.3,1.6,0.4,2.5,0.4
		c0.9,0,1.7-0.2,2.4-0.5c2.3-0.9,4.8-1,7.1-0.1C874.6,111.4,875.5,111.6,876.3,111.6z"/>
</g>
<g opacity="0.45" filter="url(#ds1)">
	<path fill="#F9DA55" d="M862.5,66c0.8-0.5,1.5-1.2,2-1.9c1.3-1.9,3.4-3.1,5.7-3.4c0.8-0.1,1.5-0.4,2.3-0.8c3.3-1.8,4.4-6.2,2.5-9.4
		c-1.9-3.3-6.2-4.4-9.4-2.4c-0.7,0.4-1.4,1-1.9,1.7c-1.5,2-3.6,3.2-6.1,3.7c-0.8,0.1-1.6,0.4-2.3,0.9c-0.7,0.4-1.4,1-1.9,1.7
		c-1.5,2-3.6,3.2-6.1,3.7c-0.8,0.1-1.6,0.4-2.3,0.9c-0.7,0.4-1.4,1-1.9,1.7c-1.5,2-3.6,3.2-6.1,3.7c-0.8,0.1-1.6,0.4-2.3,0.9
		c-0.7,0.4-1.4,1-1.9,1.7c-1.5,2-3.6,3.2-6.1,3.7c-0.8,0.1-1.6,0.4-2.3,0.9c-0.7,0.4-1.4,1-1.9,1.7c-1.5,2-3.6,3.2-6.1,3.7
		c-0.8,0.1-1.6,0.4-2.3,0.9c-0.7,0.4-1.4,1-1.9,1.7c-1.5,2-3.6,3.2-6.1,3.7c-0.8,0.1-1.6,0.4-2.3,0.9c-0.7,0.4-1.4,1-1.9,1.7
		c-1.5,2-3.6,3.2-6.1,3.7c-0.8,0.1-1.6,0.4-2.3,0.9c-0.7,0.4-1.4,1-1.9,1.7c-1.5,2-3.6,3.2-6.1,3.7c-0.8,0.1-1.6,0.4-2.3,0.9
		c-0.7,0.4-1.4,1-1.9,1.7c-1.5,2-3.6,3.2-6.1,3.7c-0.8,0.1-1.6,0.4-2.3,0.9c-0.7,0.4-1.4,1-1.9,1.7c-1.5,2-3.6,3.2-6.1,3.7
		c-0.8,0.1-1.6,0.4-2.3,0.9c-0.8,0.5-1.5,1.2-2,1.9c-1.3,1.9-3.4,3.1-5.7,3.4c-0.8,0.1-1.5,0.4-2.3,0.8c-3.3,1.8-4.4,6.2-2.5,9.4
		c1.9,3.3,6.2,4.4,9.4,2.4c0.7-0.4,1.4-1,1.9-1.7c1.5-2,3.6-3.2,6.1-3.7c0.8-0.1,1.6-0.4,2.3-0.9c0.7-0.4,1.4-1,1.9-1.7
		c1.5-2,3.6-3.2,6.1-3.7c0.8-0.1,1.6-0.4,2.3-0.9c0.7-0.4,1.4-1,1.9-1.7c1.5-2,3.6-3.2,6.1-3.7c0.8-0.1,1.6-0.4,2.3-0.9
		c0.7-0.4,1.4-1,1.9-1.7c1.5-2,3.6-3.2,6.1-3.7c0.8-0.1,1.6-0.4,2.3-0.9c0.7-0.4,1.4-1,1.9-1.7c1.5-2,3.6-3.2,6.1-3.7
		c0.8-0.1,1.6-0.4,2.3-0.9c0.7-0.4,1.4-1,1.9-1.7c1.5-2,3.6-3.2,6.1-3.7c0.8-0.1,1.6-0.4,2.3-0.9c0.7-0.4,1.4-1,1.9-1.7
		c1.5-2,3.6-3.2,6.1-3.7c0.8-0.1,1.6-0.4,2.3-0.9c0.7-0.4,1.4-1,1.9-1.7c1.5-2,3.6-3.2,6.1-3.7c0.8-0.1,1.6-0.4,2.3-0.9
		c0.7-0.4,1.4-1,1.9-1.7c1.5-2,3.6-3.2,6.1-3.7c0.8-0.1,1.6-0.4,2.3-0.9c0.7-0.4,1.4-1,1.9-1.7c1.5-2,3.6-3.2,6.1-3.7
		C860.9,66.7,861.7,66.4,862.5,66z"/>
	<path fill="none" stroke="#D6971A" stroke-width="1.489" stroke-miterlimit="10" d="M862.5,66c0.8-0.5,1.5-1.2,2-1.9
		c1.3-1.9,3.4-3.1,5.7-3.4c0.8-0.1,1.5-0.4,2.3-0.8c3.3-1.8,4.4-6.2,2.5-9.4c-1.9-3.3-6.2-4.4-9.4-2.4c-0.7,0.4-1.4,1-1.9,1.7
		c-1.5,2-3.6,3.2-6.1,3.7c-0.8,0.1-1.6,0.4-2.3,0.9c-0.7,0.4-1.4,1-1.9,1.7c-1.5,2-3.6,3.2-6.1,3.7c-0.8,0.1-1.6,0.4-2.3,0.9
		c-0.7,0.4-1.4,1-1.9,1.7c-1.5,2-3.6,3.2-6.1,3.7c-0.8,0.1-1.6,0.4-2.3,0.9c-0.7,0.4-1.4,1-1.9,1.7c-1.5,2-3.6,3.2-6.1,3.7
		c-0.8,0.1-1.6,0.4-2.3,0.9c-0.7,0.4-1.4,1-1.9,1.7c-1.5,2-3.6,3.2-6.1,3.7c-0.8,0.1-1.6,0.4-2.3,0.9c-0.7,0.4-1.4,1-1.9,1.7
		c-1.5,2-3.6,3.2-6.1,3.7c-0.8,0.1-1.6,0.4-2.3,0.9c-0.7,0.4-1.4,1-1.9,1.7c-1.5,2-3.6,3.2-6.1,3.7c-0.8,0.1-1.6,0.4-2.3,0.9
		c-0.7,0.4-1.4,1-1.9,1.7c-1.5,2-3.6,3.2-6.1,3.7c-0.8,0.1-1.6,0.4-2.3,0.9c-0.7,0.4-1.4,1-1.9,1.7c-1.5,2-3.6,3.2-6.1,3.7
		c-0.8,0.1-1.6,0.4-2.3,0.9c-0.7,0.4-1.4,1-1.9,1.7c-1.5,2-3.6,3.2-6.1,3.7c-0.8,0.1-1.6,0.4-2.3,0.9c-0.8,0.5-1.5,1.2-2,1.9
		c-1.3,1.9-3.4,3.1-5.7,3.4c-0.8,0.1-1.5,0.4-2.3,0.8c-3.3,1.8-4.4,6.2-2.5,9.4c1.9,3.3,6.2,4.4,9.4,2.4c0.7-0.4,1.4-1,1.9-1.7
		c1.5-2,3.6-3.2,6.1-3.7c0.8-0.1,1.6-0.4,2.3-0.9c0.7-0.4,1.4-1,1.9-1.7c1.5-2,3.6-3.2,6.1-3.7c0.8-0.1,1.6-0.4,2.3-0.9
		c0.7-0.4,1.4-1,1.9-1.7c1.5-2,3.6-3.2,6.1-3.7c0.8-0.1,1.6-0.4,2.3-0.9c0.7-0.4,1.4-1,1.9-1.7c1.5-2,3.6-3.2,6.1-3.7
		c0.8-0.1,1.6-0.4,2.3-0.9c0.7-0.4,1.4-1,1.9-1.7c1.5-2,3.6-3.2,6.1-3.7c0.8-0.1,1.6-0.4,2.3-0.9c0.7-0.4,1.4-1,1.9-1.7
		c1.5-2,3.6-3.2,6.1-3.7c0.8-0.1,1.6-0.4,2.3-0.9c0.7-0.4,1.4-1,1.9-1.7c1.5-2,3.6-3.2,6.1-3.7c0.8-0.1,1.6-0.4,2.3-0.9
		c0.7-0.4,1.4-1,1.9-1.7c1.5-2,3.6-3.2,6.1-3.7c0.8-0.1,1.6-0.4,2.3-0.9c0.7-0.4,1.4-1,1.9-1.7c1.5-2,3.6-3.2,6.1-3.7
		c0.8-0.1,1.6-0.4,2.3-0.9c0.7-0.4,1.4-1,1.9-1.7c1.5-2,3.6-3.2,6.1-3.7C860.9,66.7,861.7,66.4,862.5,66z"/>
</g>
<g opacity="0.45" filter="url(#ds1)">
	<path fill="#F9DA55" d="M823.7,46.8c0.9-0.3,1.8-0.7,2.4-1.3c1.8-1.5,4.1-2.1,6.4-1.9c0.8,0.1,1.6,0,2.4-0.2c3.6-1,5.8-4.9,4.8-8.5
		c-1.1-3.7-4.9-5.8-8.5-4.7c-0.8,0.3-1.6,0.6-2.2,1.1c-1.9,1.5-4.3,2.2-6.8,2.1c-0.8-0.1-1.6,0-2.5,0.3c-0.8,0.3-1.6,0.6-2.2,1.1
		c-1.9,1.5-4.3,2.2-6.8,2.1c-0.8-0.1-1.6,0-2.5,0.3c-0.8,0.3-1.6,0.6-2.2,1.1c-1.9,1.5-4.3,2.2-6.8,2.1c-0.8-0.1-1.6,0-2.5,0.3
		c-0.8,0.3-1.6,0.6-2.2,1.1c-1.9,1.5-4.3,2.2-6.8,2.1c-0.8-0.1-1.6,0-2.5,0.3s-1.6,0.6-2.2,1.1c-1.9,1.5-4.3,2.2-6.8,2.1
		c-0.8-0.1-1.6,0-2.5,0.3c-0.8,0.3-1.6,0.6-2.2,1.1c-1.9,1.5-4.3,2.2-6.8,2.1c-0.8-0.1-1.6,0-2.5,0.3c-0.8,0.3-1.6,0.6-2.2,1.1
		c-1.9,1.5-4.3,2.2-6.8,2.1c-0.8-0.1-1.6,0-2.5,0.3c-0.8,0.3-1.6,0.6-2.2,1.1c-1.9,1.5-4.3,2.2-6.8,2.1c-0.8-0.1-1.6,0-2.5,0.3
		c-0.8,0.3-1.6,0.6-2.2,1.1c-1.9,1.5-4.3,2.2-6.8,2.1c-0.8-0.1-1.6,0-2.5,0.3c-0.8,0.3-1.6,0.6-2.2,1.1c-1.9,1.5-4.3,2.2-6.8,2.1
		c-0.8-0.1-1.6,0-2.5,0.3c-0.9,0.3-1.8,0.7-2.4,1.3c-1.8,1.5-4.1,2.1-6.4,1.9c-0.8-0.1-1.6,0-2.4,0.2c-3.6,1-5.8,4.9-4.8,8.5
		c1.1,3.7,4.9,5.8,8.5,4.7c0.8-0.3,1.6-0.6,2.2-1.1c1.9-1.5,4.3-2.2,6.8-2.1c0.8,0.1,1.6,0,2.5-0.3c0.8-0.3,1.6-0.6,2.2-1.1
		c1.9-1.5,4.3-2.2,6.8-2.1c0.8,0.1,1.6,0,2.5-0.3c0.8-0.3,1.6-0.6,2.2-1.1c1.9-1.5,4.3-2.2,6.8-2.1c0.8,0.1,1.6,0,2.5-0.3
		c0.8-0.3,1.6-0.6,2.2-1.1c1.9-1.5,4.3-2.2,6.8-2.1c0.8,0.1,1.6,0,2.5-0.3c0.8-0.3,1.6-0.6,2.2-1.1c1.9-1.5,4.3-2.2,6.8-2.1
		c0.8,0.1,1.6,0,2.5-0.3c0.8-0.3,1.6-0.6,2.2-1.1c1.9-1.5,4.3-2.2,6.8-2.1c0.8,0.1,1.6,0,2.5-0.3c0.8-0.3,1.6-0.6,2.2-1.1
		c1.9-1.5,4.3-2.2,6.8-2.1c0.8,0.1,1.6,0,2.5-0.3s1.6-0.6,2.2-1.1c1.9-1.5,4.3-2.2,6.8-2.1c0.8,0.1,1.6,0,2.5-0.3
		c0.8-0.3,1.6-0.6,2.2-1.1c1.9-1.5,4.3-2.2,6.8-2.1c0.8,0.1,1.6,0,2.5-0.3c0.8-0.3,1.6-0.6,2.2-1.1c1.9-1.5,4.3-2.2,6.8-2.1
		C822.1,47.1,822.9,47,823.7,46.8z"/>
	<path fill="none" stroke="#D6971A" stroke-width="1.489" stroke-miterlimit="10" d="M823.7,46.8c0.9-0.3,1.8-0.7,2.4-1.3
		c1.8-1.5,4.1-2.1,6.4-1.9c0.8,0.1,1.6,0,2.4-0.2c3.6-1,5.8-4.9,4.8-8.5c-1.1-3.7-4.9-5.8-8.5-4.7c-0.8,0.3-1.6,0.6-2.2,1.1
		c-1.9,1.5-4.3,2.2-6.8,2.1c-0.8-0.1-1.6,0-2.5,0.3c-0.8,0.3-1.6,0.6-2.2,1.1c-1.9,1.5-4.3,2.2-6.8,2.1c-0.8-0.1-1.6,0-2.5,0.3
		c-0.8,0.3-1.6,0.6-2.2,1.1c-1.9,1.5-4.3,2.2-6.8,2.1c-0.8-0.1-1.6,0-2.5,0.3c-0.8,0.3-1.6,0.6-2.2,1.1c-1.9,1.5-4.3,2.2-6.8,2.1
		c-0.8-0.1-1.6,0-2.5,0.3s-1.6,0.6-2.2,1.1c-1.9,1.5-4.3,2.2-6.8,2.1c-0.8-0.1-1.6,0-2.5,0.3c-0.8,0.3-1.6,0.6-2.2,1.1
		c-1.9,1.5-4.3,2.2-6.8,2.1c-0.8-0.1-1.6,0-2.5,0.3c-0.8,0.3-1.6,0.6-2.2,1.1c-1.9,1.5-4.3,2.2-6.8,2.1c-0.8-0.1-1.6,0-2.5,0.3
		c-0.8,0.3-1.6,0.6-2.2,1.1c-1.9,1.5-4.3,2.2-6.8,2.1c-0.8-0.1-1.6,0-2.5,0.3c-0.8,0.3-1.6,0.6-2.2,1.1c-1.9,1.5-4.3,2.2-6.8,2.1
		c-0.8-0.1-1.6,0-2.5,0.3c-0.8,0.3-1.6,0.6-2.2,1.1c-1.9,1.5-4.3,2.2-6.8,2.1c-0.8-0.1-1.6,0-2.5,0.3c-0.9,0.3-1.8,0.7-2.4,1.3
		c-1.8,1.5-4.1,2.1-6.4,1.9c-0.8-0.1-1.6,0-2.4,0.2c-3.6,1-5.8,4.9-4.8,8.5c1.1,3.7,4.9,5.8,8.5,4.7c0.8-0.3,1.6-0.6,2.2-1.1
		c1.9-1.5,4.3-2.2,6.8-2.1c0.8,0.1,1.6,0,2.5-0.3c0.8-0.3,1.6-0.6,2.2-1.1c1.9-1.5,4.3-2.2,6.8-2.1c0.8,0.1,1.6,0,2.5-0.3
		c0.8-0.3,1.6-0.6,2.2-1.1c1.9-1.5,4.3-2.2,6.8-2.1c0.8,0.1,1.6,0,2.5-0.3c0.8-0.3,1.6-0.6,2.2-1.1c1.9-1.5,4.3-2.2,6.8-2.1
		c0.8,0.1,1.6,0,2.5-0.3c0.8-0.3,1.6-0.6,2.2-1.1c1.9-1.5,4.3-2.2,6.8-2.1c0.8,0.1,1.6,0,2.5-0.3c0.8-0.3,1.6-0.6,2.2-1.1
		c1.9-1.5,4.3-2.2,6.8-2.1c0.8,0.1,1.6,0,2.5-0.3c0.8-0.3,1.6-0.6,2.2-1.1c1.9-1.5,4.3-2.2,6.8-2.1c0.8,0.1,1.6,0,2.5-0.3
		s1.6-0.6,2.2-1.1c1.9-1.5,4.3-2.2,6.8-2.1c0.8,0.1,1.6,0,2.5-0.3c0.8-0.3,1.6-0.6,2.2-1.1c1.9-1.5,4.3-2.2,6.8-2.1
		c0.8,0.1,1.6,0,2.5-0.3c0.8-0.3,1.6-0.6,2.2-1.1c1.9-1.5,4.3-2.2,6.8-2.1C822.1,47.1,822.9,47,823.7,46.8z"/>
</g>
<g opacity="0.45" filter="url(#ds1)">
	<path fill="#F9DA55" d="M740,47.2c-0.9-0.2-1.9-0.3-2.8-0.2c-2.3,0.4-4.6-0.4-6.4-1.8c-0.6-0.5-1.3-0.9-2.1-1.1
		c-3.6-1.1-7.5,1.1-8.5,4.7c-1,3.7,1.1,7.5,4.8,8.5c0.8,0.2,1.7,0.3,2.5,0.2c2.5-0.3,4.9,0.4,6.9,1.8c0.7,0.5,1.4,0.8,2.2,1.1
		s1.7,0.3,2.5,0.2c2.5-0.3,4.9,0.4,6.9,1.8c0.7,0.5,1.4,0.8,2.2,1.1c0.8,0.2,1.7,0.3,2.5,0.2c2.5-0.3,4.9,0.4,6.9,1.8
		c0.7,0.5,1.4,0.8,2.2,1.1c0.8,0.2,1.7,0.3,2.5,0.2c2.5-0.3,4.9,0.4,6.9,1.8c0.7,0.5,1.4,0.8,2.2,1.1c0.8,0.2,1.7,0.3,2.5,0.2
		c2.5-0.3,4.9,0.4,6.9,1.8c0.7,0.5,1.4,0.8,2.2,1.1s1.7,0.3,2.5,0.2c2.5-0.3,4.9,0.4,6.9,1.8c0.7,0.5,1.4,0.8,2.2,1.1
		c0.8,0.2,1.7,0.3,2.5,0.2c2.5-0.3,4.9,0.4,6.9,1.8c0.7,0.5,1.4,0.8,2.2,1.1c0.8,0.2,1.7,0.3,2.5,0.2c2.5-0.3,4.9,0.4,6.9,1.8
		c0.7,0.5,1.4,0.8,2.2,1.1s1.7,0.3,2.5,0.2c2.5-0.3,4.9,0.4,6.9,1.8c0.7,0.5,1.4,0.8,2.2,1.1c0.8,0.2,1.7,0.3,2.5,0.2
		c2.5-0.3,4.9,0.4,6.9,1.8c0.7,0.5,1.4,0.8,2.2,1.1c0.9,0.2,1.9,0.3,2.8,0.2c2.3-0.4,4.6,0.4,6.4,1.8c0.6,0.5,1.3,0.9,2.1,1.1
		c3.6,1.1,7.5-1.1,8.5-4.7c1-3.7-1.1-7.5-4.8-8.5c-0.8-0.2-1.7-0.3-2.5-0.2c-2.5,0.3-4.9-0.4-6.9-1.8c-0.7-0.5-1.4-0.8-2.2-1.1
		c-0.8-0.2-1.7-0.3-2.5-0.2c-2.5,0.3-4.9-0.4-6.9-1.8c-0.7-0.5-1.4-0.8-2.2-1.1c-0.8-0.2-1.7-0.3-2.5-0.2c-2.5,0.3-4.9-0.4-6.9-1.8
		c-0.7-0.5-1.4-0.8-2.2-1.1c-0.8-0.2-1.7-0.3-2.5-0.2c-2.5,0.3-4.9-0.4-6.9-1.8c-0.7-0.5-1.4-0.8-2.2-1.1c-0.8-0.2-1.7-0.3-2.5-0.2
		c-2.5,0.3-4.9-0.4-6.9-1.8c-0.7-0.5-1.4-0.8-2.2-1.1c-0.8-0.2-1.7-0.3-2.5-0.2c-2.5,0.3-4.9-0.4-6.9-1.8c-0.7-0.5-1.4-0.8-2.2-1.1
		c-0.8-0.2-1.7-0.3-2.5-0.2c-2.5,0.3-4.9-0.4-6.9-1.8c-0.7-0.5-1.4-0.8-2.2-1.1s-1.7-0.3-2.5-0.2c-2.5,0.3-4.9-0.4-6.9-1.8
		c-0.7-0.5-1.4-0.8-2.2-1.1c-0.8-0.2-1.7-0.3-2.5-0.2c-2.5,0.3-4.9-0.4-6.9-1.8c-0.7-0.5-1.4-0.8-2.2-1.1c-0.8-0.2-1.7-0.3-2.5-0.2
		c-2.5,0.3-4.9-0.4-6.9-1.8C741.6,47.8,740.9,47.5,740,47.2z"/>
	<path fill="none" stroke="#D6971A" stroke-width="1.489" stroke-miterlimit="10" d="M740,47.2c-0.9-0.2-1.9-0.3-2.8-0.2
		c-2.3,0.4-4.6-0.4-6.4-1.8c-0.6-0.5-1.3-0.9-2.1-1.1c-3.6-1.1-7.5,1.1-8.5,4.7c-1,3.7,1.1,7.5,4.8,8.5c0.8,0.2,1.7,0.3,2.5,0.2
		c2.5-0.3,4.9,0.4,6.9,1.8c0.7,0.5,1.4,0.8,2.2,1.1s1.7,0.3,2.5,0.2c2.5-0.3,4.9,0.4,6.9,1.8c0.7,0.5,1.4,0.8,2.2,1.1
		c0.8,0.2,1.7,0.3,2.5,0.2c2.5-0.3,4.9,0.4,6.9,1.8c0.7,0.5,1.4,0.8,2.2,1.1c0.8,0.2,1.7,0.3,2.5,0.2c2.5-0.3,4.9,0.4,6.9,1.8
		c0.7,0.5,1.4,0.8,2.2,1.1c0.8,0.2,1.7,0.3,2.5,0.2c2.5-0.3,4.9,0.4,6.9,1.8c0.7,0.5,1.4,0.8,2.2,1.1s1.7,0.3,2.5,0.2
		c2.5-0.3,4.9,0.4,6.9,1.8c0.7,0.5,1.4,0.8,2.2,1.1c0.8,0.2,1.7,0.3,2.5,0.2c2.5-0.3,4.9,0.4,6.9,1.8c0.7,0.5,1.4,0.8,2.2,1.1
		c0.8,0.2,1.7,0.3,2.5,0.2c2.5-0.3,4.9,0.4,6.9,1.8c0.7,0.5,1.4,0.8,2.2,1.1s1.7,0.3,2.5,0.2c2.5-0.3,4.9,0.4,6.9,1.8
		c0.7,0.5,1.4,0.8,2.2,1.1c0.8,0.2,1.7,0.3,2.5,0.2c2.5-0.3,4.9,0.4,6.9,1.8c0.7,0.5,1.4,0.8,2.2,1.1c0.9,0.2,1.9,0.3,2.8,0.2
		c2.3-0.4,4.6,0.4,6.4,1.8c0.6,0.5,1.3,0.9,2.1,1.1c3.6,1.1,7.5-1.1,8.5-4.7c1-3.7-1.1-7.5-4.8-8.5c-0.8-0.2-1.7-0.3-2.5-0.2
		c-2.5,0.3-4.9-0.4-6.9-1.8c-0.7-0.5-1.4-0.8-2.2-1.1c-0.8-0.2-1.7-0.3-2.5-0.2c-2.5,0.3-4.9-0.4-6.9-1.8c-0.7-0.5-1.4-0.8-2.2-1.1
		c-0.8-0.2-1.7-0.3-2.5-0.2c-2.5,0.3-4.9-0.4-6.9-1.8c-0.7-0.5-1.4-0.8-2.2-1.1c-0.8-0.2-1.7-0.3-2.5-0.2c-2.5,0.3-4.9-0.4-6.9-1.8
		c-0.7-0.5-1.4-0.8-2.2-1.1c-0.8-0.2-1.7-0.3-2.5-0.2c-2.5,0.3-4.9-0.4-6.9-1.8c-0.7-0.5-1.4-0.8-2.2-1.1c-0.8-0.2-1.7-0.3-2.5-0.2
		c-2.5,0.3-4.9-0.4-6.9-1.8c-0.7-0.5-1.4-0.8-2.2-1.1c-0.8-0.2-1.7-0.3-2.5-0.2c-2.5,0.3-4.9-0.4-6.9-1.8c-0.7-0.5-1.4-0.8-2.2-1.1
		s-1.7-0.3-2.5-0.2c-2.5,0.3-4.9-0.4-6.9-1.8c-0.7-0.5-1.4-0.8-2.2-1.1c-0.8-0.2-1.7-0.3-2.5-0.2c-2.5,0.3-4.9-0.4-6.9-1.8
		c-0.7-0.5-1.4-0.8-2.2-1.1c-0.8-0.2-1.7-0.3-2.5-0.2c-2.5,0.3-4.9-0.4-6.9-1.8C741.6,47.8,740.9,47.5,740,47.2z"/>
</g>
<g>
	<g filter="url(#ds1)">
		<rect x="530.6" y="38" fill="#FFFFFF" width="109.9" height="27.7"/>
	</g>
	<g>
		<g>
			<path fill="#6D6E70" d="M548.7,46.6c2,0,4.3,0.8,4.3,2.2v1.4h-1.5v-0.8c0-0.9-1.5-1.4-2.8-1.4c-2.6,0-4.3,1.8-4.3,4.4
				c0,2.6,1.7,4.5,4.4,4.5c1,0,3-0.3,3-1.4V54h-2.2v-1.2h3.7v3.2c0,1.7-2.9,2.4-4.6,2.4c-3.5,0-5.9-2.5-5.9-5.9
				S545.2,46.6,548.7,46.6z"/>
			<path fill="#6D6E70" d="M555.1,56.8h1.4v-8.7h-1.4v-1.3h4.4v1.3h-1.4v8.7h3.9v-1.8h1.4v3.1h-8.4V56.8z"/>
			<path fill="#6D6E70" d="M566.2,56.8h1.4v-3.5l-3.2-5.3h-1.1v-1.2h3.9V48H566l2.1,3.6c0.1,0.2,0.2,0.5,0.2,0.5h0
				c0,0,0.1-0.2,0.2-0.5l2.1-3.6h-1.2v-1.2h3.9V48h-1.1l-3.2,5.3v3.5h1.4v1.2h-4.4V56.8z"/>
			<path fill="#6D6E70" d="M579.8,46.6c1.4,0,4.3,0.5,4.3,2.2v1.4h-1.5v-0.9c0-1-1.7-1.4-2.8-1.4c-2.4,0-4.2,1.8-4.2,4.3
				c0,2.7,1.8,4.6,4.3,4.6c0.8,0,2.8-0.3,2.8-1.3v-0.9h1.5V56c0,1.7-2.8,2.2-4.4,2.2c-3.4,0-5.8-2.6-5.8-5.9
				C574.1,49.1,576.6,46.6,579.8,46.6z"/>
			<path fill="#6D6E70" d="M586,56.8h1.4V48H586v-1.2h8.2v2.6h-1.4v-1.3H589v3.6h4V53h-4v3.7h4v-1.4h1.4v2.7H586V56.8z"/>
			<path fill="#6D6E70" d="M596.1,56.8h1.4V48h-1.4v-1.2h4.9c0.8,0,1.5,0,2.1,0.2c1.2,0.4,2,1.4,2,2.9c0,1.6-0.9,2.8-2.3,3.2v0
				c0,0,0.3,0.2,0.5,0.5l1.6,2.8c0.2,0.3,0.4,0.4,0.8,0.4h0.3v1.2h-1c-1,0-1.2-0.2-1.6-0.8l-1.7-3.1c-0.3-0.5-0.5-0.6-1.2-0.6h-1.3
				v3.3h1.4v1.2h-4.4V56.8z M601.4,52.2c1.2,0,2-0.8,2-2.1c0-0.9-0.4-1.5-1.1-1.8c-0.4-0.1-0.8-0.2-1.4-0.2h-1.9v4.1H601.4z"/>
			<path fill="#6D6E70" d="M613,46.6c3.3,0,5.8,2.5,5.8,5.8c0,3.3-2.5,5.9-5.8,5.9c-3.3,0-5.8-2.6-5.8-5.9
				C607.2,49.1,609.7,46.6,613,46.6z M613,56.8c2.3,0,4.1-2,4.1-4.5c0-2.5-1.9-4.4-4.1-4.4c-2.3,0-4.2,1.9-4.2,4.4
				C608.8,54.9,610.7,56.8,613,56.8z"/>
			<path fill="#6D6E70" d="M620.3,56.8h1.4v-8.7h-1.4v-1.3h4.4v1.3h-1.4v8.7h3.9v-1.8h1.4v3.1h-8.4V56.8z"/>
		</g>
	</g>
</g>
<g>
	<g filter="url(#ds1)">
		<rect x="731" y="40.1" fill="#FFFFFF" width="128.5" height="27.7"/>
	</g>
	<g>
		<g>
			<path fill="#6D6E70" d="M743.2,58.9h1.4v-8.8h-1.4v-1.2h7.8v2.7h-1.4v-1.3h-3.4V54h3.9v1.3h-3.9v3.6h1.5v1.2h-4.5V58.9z"/>
			<path fill="#6D6E70" d="M751.1,58.9h1.1l3.6-10.1h1.8l3.6,10.1h1.1v1.2h-3.9v-1.2h1.2l-0.9-2.5h-4l-0.9,2.5h1.2v1.2h-3.9V58.9z
				 M758.2,55.1l-1.4-3.9c-0.2-0.5-0.2-0.9-0.2-0.9h0c0,0,0,0.4-0.2,0.9l-1.4,3.9H758.2z"/>
			<path fill="#6D6E70" d="M764.7,58.9h1.4v-8.7h-2.7v1.8h-1.4v-3.1h9.7v3.1h-1.4v-1.8h-2.7v8.7h1.4v1.2h-4.5V58.9z"/>
			<path fill="#6D6E70" d="M775.3,58.9h1.4v-8.7h-2.7v1.8h-1.4v-3.1h9.7v3.1H781v-1.8h-2.7v8.7h1.4v1.2h-4.5V58.9z"/>
			<path fill="#6D6E70" d="M785.8,58.9h1.4v-3.5l-3.2-5.3H783v-1.2h3.9v1.2h-1.2l2.1,3.6c0.1,0.2,0.2,0.5,0.2,0.5h0
				c0,0,0.1-0.2,0.2-0.5l2.1-3.6h-1.2v-1.2h3.9v1.2H792l-3.2,5.3v3.5h1.4v1.2h-4.4V58.9z"/>
			<path fill="#6D6E70" d="M797.4,58.9h1.1l3.6-10.1h1.8l3.6,10.1h1.1v1.2h-3.9v-1.2h1.2l-0.9-2.5h-4l-0.9,2.5h1.2v1.2h-3.9V58.9z
				 M804.6,55.1l-1.4-3.9c-0.2-0.5-0.2-0.9-0.2-0.9h0c0,0,0,0.4-0.2,0.9l-1.4,3.9H804.6z"/>
			<path fill="#6D6E70" d="M815.1,48.7c1.4,0,4.3,0.5,4.3,2.2v1.4h-1.5v-0.9c0-1-1.7-1.4-2.8-1.4c-2.4,0-4.2,1.8-4.2,4.3
				c0,2.7,1.8,4.6,4.3,4.6c0.8,0,2.8-0.3,2.8-1.3v-0.9h1.5v1.4c0,1.7-2.8,2.2-4.4,2.2c-3.4,0-5.8-2.6-5.8-5.9
				C809.3,51.1,811.8,48.7,815.1,48.7z"/>
			<path fill="#6D6E70" d="M821.3,58.9h1.4v-8.8h-1.4v-1.2h4.4v1.2h-1.4v8.8h1.4v1.2h-4.4V58.9z"/>
			<path fill="#6D6E70" d="M827.4,58.9h1.4v-8.8h-1.4v-1.2h4.8c0.9,0,1.6,0,2.4,0.3c2.2,0.7,3.6,2.6,3.6,5.4c0,2.7-1.4,4.6-3.6,5.3
				c-0.7,0.2-1.5,0.3-2.4,0.3h-4.8V58.9z M832.1,58.8c0.7,0,1.3-0.1,1.9-0.3c1.5-0.5,2.5-2,2.5-4.1c0-2.1-0.9-3.5-2.4-4.1
				c-0.6-0.2-1.2-0.3-1.9-0.3h-1.7v8.7H832.1z"/>
			<path fill="#6D6E70" d="M841.3,56.8v0.8c0,0.8,1.1,1.3,2.3,1.3c1.3,0,2.2-0.6,2.2-1.7c0-1.3-1.3-1.7-2.7-2.3
				c-1.5-0.6-3-1.2-3-3.2c0-2.1,1.7-3,3.6-3c1.7,0,3.4,0.6,3.4,1.9v1.3h-1.5v-0.8c0-0.7-1-1-1.9-1c-1.1,0-2,0.5-2,1.6
				c0,1.2,1.1,1.6,2.4,2.1c1.7,0.6,3.3,1.3,3.3,3.4c0,2.2-1.8,3.3-3.9,3.3c-1.8,0-3.7-0.8-3.7-2.4v-1.2H841.3z"/>
		</g>
	</g>
</g>
<g opacity="0.45" filter="url(#ds1)">
	<path fill="#F49F38" d="M595.6,111.3c0,0.1-0.1,0.1-0.1,0.2c-1.1,1.4-2.7,2.2-3.8,3.6c-1.1,1.5-1.4,3.5-2.4,5
		c-1.1,1.6-3.1,2.2-4.2,3.8c-1,1.5-1.1,3.5-2.2,4.9c-2,2.8-6,3.4-8.7,1.4c-2.8-2-3.4-6-1.4-8.7c0.8-1.1,1.9-1.5,2.9-2.3
		c1-0.8,2-2,2.4-3.3c0.3-1.2,0.4-2.1,1.1-3.2c1-1.4,3-1.9,4.2-3.2c1.4-1.5,1-3.9,2.2-5.6c2-2.8,6-3.4,8.7-1.4
		C597,104.6,597.6,108.5,595.6,111.3z"/>
	<path fill="none" stroke="#C66320" stroke-width="1.4874" stroke-miterlimit="10" d="M595.6,111.3c0,0.1-0.1,0.1-0.1,0.2
		c-1.1,1.4-2.7,2.2-3.8,3.6c-1.1,1.5-1.4,3.5-2.4,5c-1.1,1.6-3.1,2.2-4.2,3.8c-1,1.5-1.1,3.5-2.2,4.9c-2,2.8-6,3.4-8.7,1.4
		c-2.8-2-3.4-6-1.4-8.7c0.8-1.1,1.9-1.5,2.9-2.3c1-0.8,2-2,2.4-3.3c0.3-1.2,0.4-2.1,1.1-3.2c1-1.4,3-1.9,4.2-3.2
		c1.4-1.5,1-3.9,2.2-5.6c2-2.8,6-3.4,8.7-1.4C597,104.6,597.6,108.5,595.6,111.3z"/>
</g>
<g opacity="0.45" filter="url(#ds1)">
	<path fill="#F49F38" d="M601.5,79.6c0,0.1,0.1,0.1,0.1,0.2c1,1.5,1.3,3.3,2.2,4.8c1,1.5,2.9,2.4,4,3.9c1.1,1.6,1.1,3.7,2.3,5.2
		c1.1,1.4,2.9,2.2,4,3.6c2,2.8,1.4,6.7-1.4,8.7c-2.8,2-6.7,1.4-8.7-1.4c-0.8-1.1-0.8-2.2-1.3-3.4c-0.4-1.2-1.3-2.6-2.4-3.3
		c-1-0.7-1.9-1-2.6-2.1c-1-1.4-0.9-3.4-1.7-4.9c-1-1.8-3.4-2.2-4.6-3.9c-2-2.8-1.4-6.7,1.4-8.7C595.5,76.2,599.5,76.8,601.5,79.6z"
		/>
	<path fill="none" stroke="#C66320" stroke-width="1.4874" stroke-miterlimit="10" d="M601.5,79.6c0,0.1,0.1,0.1,0.1,0.2
		c1,1.5,1.3,3.3,2.2,4.8c1,1.5,2.9,2.4,4,3.9c1.1,1.6,1.1,3.7,2.3,5.2c1.1,1.4,2.9,2.2,4,3.6c2,2.8,1.4,6.7-1.4,8.7
		c-2.8,2-6.7,1.4-8.7-1.4c-0.8-1.1-0.8-2.2-1.3-3.4c-0.4-1.2-1.3-2.6-2.4-3.3c-1-0.7-1.9-1-2.6-2.1c-1-1.4-0.9-3.4-1.7-4.9
		c-1-1.8-3.4-2.2-4.6-3.9c-2-2.8-1.4-6.7,1.4-8.7C595.5,76.2,599.5,76.8,601.5,79.6z"/>
</g>
<g opacity="0.45" filter="url(#ds1)">
	<path fill="#F49F38" d="M633.3,111.3c0,0.1-0.1,0.1-0.1,0.2c-1.1,1.4-2.7,2.2-3.8,3.6c-1.1,1.5-1.4,3.5-2.4,5
		c-1.1,1.6-3.1,2.2-4.2,3.8c-1,1.5-1.1,3.5-2.2,4.9c-2,2.8-6,3.4-8.7,1.4c-2.8-2-3.4-6-1.4-8.7c0.8-1.1,1.9-1.5,2.9-2.3
		c1-0.8,2-2,2.4-3.3c0.3-1.2,0.4-2.1,1.1-3.2c1-1.4,3-1.9,4.2-3.2c1.4-1.5,1-3.9,2.2-5.6c2-2.8,6-3.4,8.7-1.4
		C634.7,104.6,635.3,108.5,633.3,111.3z"/>
	<path fill="none" stroke="#C66320" stroke-width="1.4874" stroke-miterlimit="10" d="M633.3,111.3c0,0.1-0.1,0.1-0.1,0.2
		c-1.1,1.4-2.7,2.2-3.8,3.6c-1.1,1.5-1.4,3.5-2.4,5c-1.1,1.6-3.1,2.2-4.2,3.8c-1,1.5-1.1,3.5-2.2,4.9c-2,2.8-6,3.4-8.7,1.4
		c-2.8-2-3.4-6-1.4-8.7c0.8-1.1,1.9-1.5,2.9-2.3c1-0.8,2-2,2.4-3.3c0.3-1.2,0.4-2.1,1.1-3.2c1-1.4,3-1.9,4.2-3.2
		c1.4-1.5,1-3.9,2.2-5.6c2-2.8,6-3.4,8.7-1.4C634.7,104.6,635.3,108.5,633.3,111.3z"/>
</g>
<g opacity="0.45">
	<g>
		<path fill="none" stroke="#FFFFFF" stroke-width="2" stroke-miterlimit="10" d="M393.5,466.3c30.8,0,55.8,25,55.8,55.8
			c0,30.8-25,55.8-55.8,55.8c-30.8,0-55.8-25-55.8-55.8c0-25.2,16.7-46.5,39.6-53.4"/>
		<g>
			<circle fill="#FFFFFF" cx="393.5" cy="466.3" r="4.7"/>
		</g>
		<g>
			<polygon fill="#FFFFFF" points="384.1,466.6 375.7,473.4 376.8,468.8 373.4,465.6 			"/>
		</g>
	</g>
</g>
<g opacity="0.45">
	<path fill="#6D6E70" d="M498.6,361.9l-23.7,5.6c-3.8,0.9-7.9,0.9-11.7,0l-23.7-5.6v-26.2l23.7-5.6c3.8-0.9,7.9-0.9,11.7,0l23.7,5.6
		V361.9z"/>
	<g>
		<g>
			<path fill="#E8E8E8" d="M456.1,352h1v-6.2h-1v-1.2h4.1c0.5,0,1,0,1.4,0.2c0.9,0.4,1.5,1.3,1.5,2.5c0,1.2-0.6,2.2-1.6,2.6
				c-0.4,0.1-0.8,0.2-1.3,0.2h-1.5v1.8h1v1.2h-3.6V352z M460,348.9c0.3,0,0.6-0.1,0.9-0.2c0.5-0.2,0.7-0.7,0.7-1.3
				c0-0.6-0.2-1-0.6-1.3c-0.2-0.1-0.5-0.2-0.9-0.2h-1.3v3H460z"/>
			<path fill="#E8E8E8" d="M464.1,352h1v-6.2h-1v-1.2h3.6v1.2h-1v2.5h3.9v-2.5h-1v-1.2h3.6v1.2h-1v6.2h1v1.2h-3.6V352h1v-2.4h-3.9
				v2.4h1v1.2h-3.6V352z"/>
			<path fill="#E8E8E8" d="M478.6,344.5c1,0,3.3,0.4,3.3,1.7v1.2h-1.4v-0.7c0-0.6-1.1-0.9-1.8-0.9c-1.6,0-2.8,1.2-2.8,3
				c0,1.9,1.2,3.2,2.9,3.2c0.5,0,1.8-0.2,1.8-0.8v-0.7h1.4v1.2c0,1.3-2.2,1.7-3.4,1.7c-2.6,0-4.4-1.9-4.4-4.4
				C474.2,346.4,476.1,344.5,478.6,344.5z"/>
		</g>
	</g>
</g>
<g opacity="0.45">
	<path fill="#6D6E70" d="M431.6,235.5c-21.8,0-43.5,0-65.3,0c-14.5-14.5-14.5-38,0-52.6c21.8,0,43.5,0,65.3,0
		C446.1,197.5,446.1,221,431.6,235.5z"/>
	<g>
		<g>
			<path fill="#E8E8E8" d="M365.7,205.5c1.5,0,3.3,0.6,3.3,1.7v1.2h-1.4v-0.6c0-0.6-0.9-0.9-1.8-0.9c-1.8,0-2.9,1.2-2.9,3
				c0,1.8,1.1,3.2,3,3.2c0.7,0,2-0.2,2-0.9v-0.9h-1.5V210h3v2.6c0,1.3-2.3,1.8-3.5,1.8c-2.6,0-4.5-1.9-4.5-4.4
				C361.2,207.3,363.1,205.5,365.7,205.5z"/>
			<path fill="#E8E8E8" d="M370.5,213h1v-6.1h-1v-1.3h3.6v1.3h-1v6h2.5v-1.3h1.3v2.6h-6.5V213z"/>
			<path fill="#E8E8E8" d="M378.9,213h1v-2.4l-2.3-3.8h-0.8v-1.2h3.2v1.2h-0.8l1.3,2.2c0.1,0.1,0.1,0.2,0.1,0.3c0,0,0,0.1,0,0.1h0
				c0,0,0-0.1,0-0.1c0-0.1,0.1-0.2,0.1-0.3l1.3-2.2h-0.8v-1.2h3.1v1.2h-0.8l-2.3,3.8v2.4h1v1.2h-3.6V213z"/>
			<path fill="#E8E8E8" d="M389.4,205.5c1,0,3.3,0.4,3.3,1.7v1.2h-1.4v-0.7c0-0.6-1.1-0.9-1.8-0.9c-1.6,0-2.8,1.2-2.8,3
				c0,1.9,1.2,3.2,2.9,3.2c0.5,0,1.8-0.2,1.8-0.8v-0.7h1.4v1.2c0,1.3-2.2,1.7-3.4,1.7c-2.6,0-4.5-1.9-4.5-4.4
				C385,207.3,386.9,205.5,389.4,205.5z"/>
			<path fill="#E8E8E8" d="M398.3,205.5c2.5,0,4.4,1.9,4.4,4.3c0,2.5-1.9,4.5-4.4,4.5c-2.5,0-4.4-2-4.4-4.5
				C393.9,207.4,395.8,205.5,398.3,205.5z M398.3,212.9c1.5,0,2.8-1.3,2.8-3.1c0-1.7-1.3-3-2.8-3s-2.8,1.3-2.8,3
				C395.5,211.6,396.8,212.9,398.3,212.9z"/>
			<path fill="#E8E8E8" d="M403.9,213h1v-6.1h-1v-1.3h3.6v1.3h-1v6h2.5v-1.3h1.3v2.6h-6.5V213z"/>
			<path fill="#E8E8E8" d="M412.2,213h1v-2.4l-2.3-3.8h-0.8v-1.2h3.2v1.2h-0.8l1.3,2.2c0.1,0.1,0.1,0.2,0.1,0.3c0,0,0,0.1,0,0.1h0
				c0,0,0-0.1,0-0.1c0-0.1,0.1-0.2,0.1-0.3l1.3-2.2h-0.8v-1.2h3.1v1.2h-0.8l-2.3,3.8v2.4h1v1.2h-3.6V213z"/>
			<path fill="#E8E8E8" d="M419.9,211.4v0.6c0,0.5,0.7,0.9,1.5,0.9c0.9,0,1.5-0.4,1.5-1.1c0-0.9-1-1.1-2-1.5
				c-1.1-0.4-2.3-0.9-2.3-2.5c0-1.7,1.4-2.4,2.9-2.4c1.3,0,2.7,0.5,2.7,1.5v1.1h-1.4v-0.6c0-0.4-0.6-0.7-1.3-0.7
				c-0.7,0-1.3,0.3-1.3,0.9c0,0.8,0.8,1,1.7,1.4c1.3,0.4,2.5,1,2.5,2.6c0,1.7-1.5,2.5-3.1,2.5c-1.4,0-2.9-0.6-2.9-1.9v-1H419.9z"/>
			<path fill="#E8E8E8" d="M425.7,213h1v-6.2h-1v-1.2h3.6v1.2h-1v6.2h1v1.2h-3.6V213z"/>
			<path fill="#E8E8E8" d="M431.9,211.4v0.6c0,0.5,0.7,0.9,1.5,0.9c0.9,0,1.5-0.4,1.5-1.1c0-0.9-1-1.1-2-1.5
				c-1.1-0.4-2.3-0.9-2.3-2.5c0-1.7,1.4-2.4,2.9-2.4c1.3,0,2.7,0.5,2.7,1.5v1.1h-1.4v-0.6c0-0.4-0.6-0.7-1.3-0.7
				c-0.7,0-1.3,0.3-1.3,0.9c0,0.8,0.8,1,1.7,1.4c1.3,0.4,2.5,1,2.5,2.6c0,1.7-1.5,2.5-3.1,2.5c-1.4,0-2.9-0.6-2.9-1.9v-1H431.9z"/>
		</g>
	</g>
</g>
<g opacity="0.45">
	<circle fill="#6D6E70" cx="393.5" cy="523" r="29.4"/>
	<g>
		<g>
			<path fill="#E8E8E8" d="M379.1,507.2c0.9,0,2.8,0.3,2.8,1.4v1h-1.2V509c0-0.5-0.9-0.7-1.5-0.7c-1.4,0-2.4,1-2.4,2.5
				c0,1.6,1,2.6,2.4,2.6c0.4,0,1.5-0.1,1.5-0.7v-0.6h1.2v1c0,1.1-1.8,1.4-2.8,1.4c-2.2,0-3.7-1.6-3.7-3.7
				C375.5,508.7,377.1,507.2,379.1,507.2z"/>
			<path fill="#E8E8E8" d="M383,513.4h0.8v-5.1H383v-1h3v1h-0.9v5.1h0.9v1h-3V513.4z"/>
			<path fill="#E8E8E8" d="M388.4,513.4h0.8v-5.1h-1.3v1.1h-1.1v-2.1h6.2v2.1h-1.1v-1.1h-1.3v5.1h0.9v1h-3V513.4z"/>
			<path fill="#E8E8E8" d="M393.8,513.4h0.8v-5.1h-0.8v-1h3.1c0.5,0,0.9,0,1.3,0.1c0.8,0.3,1.3,0.9,1.3,1.9c0,1-0.5,1.7-1.3,2v0
				l0.1,0.1c0.1,0.1,0.2,0.2,0.2,0.3l0.8,1.5c0.1,0.2,0.2,0.2,0.5,0.2h0.2v1h-0.8c-0.6,0-0.8-0.1-1-0.5l-1-1.8
				c-0.2-0.3-0.3-0.4-0.7-0.4h-0.7v1.7h0.8v1h-3V513.4z M397.1,510.6c0.7,0,1.1-0.4,1.1-1.2c0-0.5-0.2-0.8-0.6-1
				c-0.2-0.1-0.5-0.1-0.8-0.1h-1v2.3H397.1z"/>
			<path fill="#E8E8E8" d="M400.9,513.4h0.8v-5.1h-0.8v-1h3v1h-0.9v5.1h0.9v1h-3V513.4z"/>
			<path fill="#E8E8E8" d="M408.6,507.2c0.9,0,2.8,0.3,2.8,1.4v1h-1.2V509c0-0.5-0.9-0.7-1.5-0.7c-1.4,0-2.4,1-2.4,2.5
				c0,1.6,1,2.6,2.4,2.6c0.4,0,1.5-0.1,1.5-0.7v-0.6h1.2v1c0,1.1-1.8,1.4-2.8,1.4c-2.2,0-3.7-1.6-3.7-3.7
				C404.9,508.7,406.5,507.2,408.6,507.2z"/>
			<path fill="#E8E8E8" d="M380.4,525.4h0.6l2.1-6.1h1.5l2.1,6.1h0.6v1h-2.7v-1h0.7l-0.4-1.3h-2.2l-0.4,1.3h0.7v1h-2.7V525.4z
				 M384.7,523.1l-0.7-2l-0.1-0.4c0-0.1,0-0.1,0-0.2h0l0,0.2c0,0.1,0,0.2-0.1,0.4l-0.7,2H384.7z"/>
			<path fill="#E8E8E8" d="M391.5,519.2c0.9,0,2.8,0.3,2.8,1.4v1h-1.2V521c0-0.5-0.9-0.7-1.5-0.7c-1.4,0-2.4,1-2.4,2.5
				c0,1.6,1,2.6,2.4,2.6c0.4,0,1.5-0.1,1.5-0.7v-0.6h1.2v1c0,1.1-1.8,1.4-2.8,1.4c-2.2,0-3.7-1.6-3.7-3.7
				C387.8,520.7,389.4,519.2,391.5,519.2z"/>
			<path fill="#E8E8E8" d="M395.4,525.4h0.8v-5.1h-0.8v-1h3v1h-0.9v5.1h0.9v1h-3V525.4z"/>
			<path fill="#E8E8E8" d="M399.4,525.4h0.8v-5.1h-0.8v-1h3.1c0.6,0,1,0,1.5,0.2c1.4,0.4,2.3,1.6,2.3,3.4c0,1.7-0.8,2.9-2.2,3.3
				c-0.5,0.2-1,0.2-1.6,0.2h-3.1V525.4z M402.4,525.3c0.5,0,0.8,0,1.2-0.2c0.8-0.3,1.3-1.1,1.3-2.3c0-1.2-0.5-2-1.4-2.3
				c-0.4-0.2-0.7-0.2-1.1-0.2h-0.9v5H402.4z"/>
			<path fill="#E8E8E8" d="M380.6,531.2c0.9,0,2.8,0.3,2.8,1.4v1h-1.2V533c0-0.5-0.9-0.7-1.5-0.7c-1.4,0-2.4,1-2.4,2.5
				c0,1.6,1,2.6,2.4,2.6c0.4,0,1.5-0.1,1.5-0.7v-0.6h1.2v1c0,1.1-1.8,1.4-2.8,1.4c-2.2,0-3.7-1.6-3.7-3.7
				C377,532.7,378.6,531.2,380.6,531.2z"/>
			<path fill="#E8E8E8" d="M385.8,537.4h0.9v-2l-1.9-3.1h-0.7v-1h2.6v1H386l1.1,1.9c0.1,0.1,0.1,0.2,0.1,0.2c0,0,0,0.1,0,0.1h0
				c0,0,0-0.1,0-0.1c0-0.1,0.1-0.1,0.1-0.2l1.1-1.9h-0.7v-1h2.6v1h-0.6l-1.9,3.1v2h0.8v1h-3V537.4z"/>
			<path fill="#E8E8E8" d="M394.5,531.2c0.9,0,2.8,0.3,2.8,1.4v1h-1.2V533c0-0.5-0.9-0.7-1.5-0.7c-1.4,0-2.4,1-2.4,2.5
				c0,1.6,1,2.6,2.4,2.6c0.4,0,1.5-0.1,1.5-0.7v-0.6h1.2v1c0,1.1-1.8,1.4-2.8,1.4c-2.2,0-3.7-1.6-3.7-3.7
				C390.8,532.7,392.4,531.2,394.5,531.2z"/>
			<path fill="#E8E8E8" d="M398.4,537.4h0.8v-5.1h-0.8v-1h3v1h-0.9v5h2.1v-1.1h1.1v2.1h-5.4V537.4z"/>
			<path fill="#E8E8E8" d="M404.5,537.4h0.8v-5.1h-0.8v-1h5.3v1.8h-1.1v-0.8h-2v1.9h2.3v1h-2.3v2h2.1v-0.8h1.1v1.8h-5.4V537.4z"/>
		</g>
	</g>
	<circle fill="#6D6E70" cx="437" cy="478.5" r="19"/>
	<circle fill="#6D6E70" cx="437" cy="565.5" r="19"/>
	<circle fill="#6D6E70" cx="350" cy="565.5" r="19"/>
	<circle fill="#6D6E70" cx="350" cy="478.5" r="19"/>
	<g>
		<g>
			<path fill="#E8E8E8" d="M434.7,481.6h1.9v-4.8c0-0.1,0-0.3,0-0.4v-0.2h0l-0.1,0.1c-0.1,0.1-0.1,0.2-0.3,0.3l-0.7,0.6l-0.9-1
				l2.1-2.1h1.4v7.3h1.8v1.3h-5.2V481.6z"/>
		</g>
	</g>
	<g>
		<g>
			<path fill="#E8E8E8" d="M434.2,569.6c0-0.3-0.1-0.5-0.1-0.8c0-3.1,4.1-3.5,4.1-5.3c0-0.8-0.6-1.2-1.3-1.2c-0.5,0-0.9,0.3-1.2,0.5
				c-0.2,0.2-0.3,0.3-0.4,0.5l-1.1-0.7c0.2-0.3,0.4-0.6,0.6-0.9c0.5-0.4,1.2-0.9,2.2-0.9c1.5,0,2.8,0.9,2.8,2.5c0,2.7-3.9,3.1-4,4.9
				h2.9v-1.1h1.3v2.3H434.2z"/>
		</g>
	</g>
	<g>
		<g>
			<path fill="#E8E8E8" d="M346.6,479.7l3.7-5.4h1.8v5.1h1.1v1.2h-1.1v2.2h-1.5v-2.2h-4V479.7z M348.2,479.4L348.2,479.4l2.4,0v-2.8
				c0-0.2,0-0.3,0-0.5l0-0.3h0l-0.1,0.2c-0.1,0.1-0.1,0.3-0.2,0.4L348.2,479.4z"/>
		</g>
	</g>
	<g>
		<g>
			<path fill="#E8E8E8" d="M347.2,561h5.4v1.1l-2,2.4c1.1,0.2,2.2,0.9,2.2,2.4c0,1.5-1.1,2.8-3,2.8c-0.9,0-1.6-0.3-2.1-0.6
				c-0.3-0.2-0.5-0.4-0.7-0.6l0.8-1.1c0.2,0.2,0.3,0.3,0.6,0.4c0.3,0.2,0.8,0.4,1.4,0.4c0.9,0,1.5-0.6,1.5-1.4
				c0-0.9-0.7-1.3-1.7-1.3c-0.2,0-0.4,0-0.5,0l-0.3-0.8l1.8-2.3c0.1-0.1,0.2-0.2,0.2-0.2l0.1-0.1v0c-0.1,0-0.1,0-0.2,0
				c-0.1,0-0.2,0-0.3,0h-1.9v1h-1.3V561z"/>
		</g>
	</g>
</g>
<g opacity="0.1">
	<path fill="#6D6E70" d="M175.1,200.6l-33.8,7.1c-10.5,2.2-21.4,2.2-31.9,0l-33.8-7.1c-0.6-0.1-1-0.6-1-1.2v-25.5
		c0-0.7,0.5-1.2,1.2-1.2h98.9c0.7,0,1.2,0.5,1.2,1.2v25.5C176,200,175.6,200.5,175.1,200.6z"/>
</g>
<g opacity="0.1">
	<path fill="#6D6E70" d="M200.4,391.7l-89.6,22.4c-9.9,2.5-19.6-5-19.6-15.3v-56h116.2v39.9C207.4,386.9,204.5,390.6,200.4,391.7z"
		/>
</g>
<g opacity="0.45">
	<path fill="#6D6E70" d="M780.9,189.7h-62.4l-13.4,45.3c-2.3,7.7,3.5,15.4,11.5,15.4h66c8,0,13.8-7.7,11.5-15.4L780.9,189.7z"/>
	<g>
		<g>
			<path fill="#E8E8E8" d="M736.7,223h0.8v-5.1h-0.8v-1h3.3c0.5,0,0.9,0,1.3,0.2c0.6,0.2,1.1,0.8,1.1,1.6c0,0.7-0.3,1.2-0.9,1.5v0
				c0.8,0.2,1.1,0.9,1.1,1.7c0,1-0.6,1.7-1.4,1.9c-0.3,0.1-0.7,0.1-1.1,0.1h-3.4V223z M740.1,219.8c0.6,0,0.9-0.4,0.9-0.9
				c0-0.3-0.1-0.7-0.4-0.8c-0.2-0.1-0.4-0.1-0.6-0.1h-1.1v1.8H740.1z M740.2,223c0.2,0,0.4,0,0.5-0.1c0.4-0.2,0.6-0.5,0.6-1
				c0-0.6-0.4-1-1-1h-1.4v2.1H740.2z"/>
			<path fill="#E8E8E8" d="M743.6,223h0.8v-5.1h-0.8v-1h5.3v1.8h-1.1V218h-2v1.9h2.3v1h-2.3v2h2.1v-0.8h1.1v1.8h-5.4V223z"/>
			<path fill="#E8E8E8" d="M751.4,223h0.8V218h-1.3v1.1h-1.1v-2.1h6.2v2.1h-1.1V218h-1.3v5.1h0.9v1h-3V223z"/>
			<path fill="#E8E8E8" d="M755.9,223h0.6l2.1-6.1h1.5l2.1,6.1h0.6v1h-2.7v-1h0.7l-0.4-1.3h-2.2l-0.4,1.3h0.7v1h-2.7V223z
				 M760.3,220.7l-0.7-2l-0.1-0.4c0-0.1,0-0.1,0-0.2h0l0,0.2c0,0.1,0,0.2-0.1,0.4l-0.7,2H760.3z"/>
			<path fill="#E8E8E8" d="M723.3,228.8c2.1,0,3.7,1.6,3.7,3.6c0,2.1-1.6,3.7-3.7,3.7s-3.7-1.6-3.7-3.7
				C719.7,230.4,721.2,228.8,723.3,228.8z M723.3,235c1.3,0,2.3-1.1,2.3-2.6c0-1.4-1-2.5-2.3-2.5s-2.3,1.1-2.3,2.5
				C721,233.9,722,235,723.3,235z"/>
			<path fill="#E8E8E8" d="M727.5,235h0.6l1.8-2.6l-1.7-2.5h-0.6v-1h2.7v1h-0.7l1,1.5c0.1,0.1,0.1,0.2,0.2,0.2c0,0,0,0.1,0,0.1h0
				c0,0,0.1-0.1,0.2-0.3l0.9-1.5h-0.7v-1h2.6v1h-0.6l-1.8,2.6l1.8,2.5h0.6v1h-2.7v-1h0.7l-1-1.5c-0.1-0.1-0.1-0.1-0.2-0.2
				c0,0,0-0.1,0-0.1h0c0,0-0.1,0.1-0.2,0.3l-0.9,1.5h0.7v1h-2.6V235z"/>
			<path fill="#E8E8E8" d="M734.6,235h0.8v-5.1h-0.8v-1h3v1h-0.9v5.1h0.9v1h-3V235z"/>
			<path fill="#E8E8E8" d="M738.6,235h0.8v-5.1h-0.8v-1h3.1c0.6,0,1,0,1.5,0.2c1.4,0.4,2.3,1.6,2.3,3.4c0,1.7-0.8,2.9-2.2,3.3
				c-0.5,0.2-1,0.2-1.6,0.2h-3.1V235z M741.7,235c0.5,0,0.8,0,1.2-0.2c0.8-0.3,1.3-1.1,1.3-2.3c0-1.2-0.5-2-1.4-2.3
				c-0.4-0.2-0.7-0.2-1.1-0.2h-0.9v5H741.7z"/>
			<path fill="#E8E8E8" d="M746,235h0.6l2.1-6.1h1.5l2.1,6.1h0.6v1h-2.7v-1h0.7l-0.4-1.3h-2.2l-0.4,1.3h0.7v1H746V235z M750.3,232.7
				l-0.7-2l-0.1-0.4c0-0.1,0-0.1,0-0.2h0l0,0.2c0,0.1-0.1,0.2-0.1,0.4l-0.7,2H750.3z"/>
			<path fill="#E8E8E8" d="M754.5,235h0.8V230H754v1.1h-1.1v-2.1h6.2v2.1H758V230h-1.3v5.1h0.9v1h-3V235z"/>
			<path fill="#E8E8E8" d="M759.9,235h0.8v-5.1h-0.8v-1h3v1h-0.9v5.1h0.9v1h-3V235z"/>
			<path fill="#E8E8E8" d="M767.5,228.8c2.1,0,3.7,1.6,3.7,3.6c0,2.1-1.6,3.7-3.7,3.7c-2.1,0-3.7-1.6-3.7-3.7
				C763.9,230.4,765.4,228.8,767.5,228.8z M767.5,235c1.3,0,2.3-1.1,2.3-2.6c0-1.4-1-2.5-2.3-2.5s-2.3,1.1-2.3,2.5
				C765.2,233.9,766.3,235,767.5,235z"/>
			<path fill="#E8E8E8" d="M772.1,235h0.8v-5.1h-0.8v-1h2.2l3,4.6c0.1,0.1,0.1,0.3,0.2,0.4l0.1,0.2h0l0-0.2c0-0.1,0-0.3,0-0.4v-3.5
				h-0.9v-1h3v1h-0.8v6.1h-1.3l-3-4.5c-0.1-0.1-0.1-0.3-0.2-0.4l-0.1-0.2h0l0,0.2c0,0.1,0,0.3,0,0.4v3.5h0.9v1h-3V235z"/>
		</g>
	</g>
</g>
<g opacity="0.45">
	<g filter="url(#ds2)">
		
			<radialGradient id="SVGID_2_" cx="732.9097" cy="596.4002" r="229.9175" gradientTransform="matrix(1 0 0 0.7185 0 167.9018)" gradientUnits="userSpaceOnUse">
			<stop  offset="0" style="stop-color:#C9E9F0"/>
			<stop  offset="0.2183" style="stop-color:#C1E1EC"/>
			<stop  offset="0.5564" style="stop-color:#ACCBE0"/>
			<stop  offset="0.97" style="stop-color:#8AA8CD"/>
			<stop  offset="1" style="stop-color:#87A5CB"/>
		</radialGradient>
		<rect x="554" y="480.1" fill="url(#SVGID_2_)" width="365.8" height="210.6"/>
	</g>
	<polygon fill="#8689BC" points="581.4,721.1 602.8,641.4 725.4,591.7 892.3,573 932.3,604.5 918.4,738.7 	"/>
	<g filter="url(#ds3)">
		<path fill="none" stroke="#9991CE" stroke-width="29" stroke-miterlimit="10" d="M581.4,719.7c0.5-16.5,4.3-65,21.4-79.7
			c42.5-36.6,176-70.9,289.5-62.2c28.9,2.2,47.2,38,47.2,38"/>
	</g>
	<g filter="url(#ds1)">
		<path fill="#D0D2D3" stroke="#929497" stroke-width="1.4546" stroke-linejoin="round" stroke-miterlimit="10" d="M687.4,617.7
			c1.7-3.5,2.4-7.2,2.4-10.8c2,3.3,4.9,6.2,8.5,8.3l12-3.2c1.8-3.1,2.8-6.5,3.1-9.9c1.8,2.8,4.3,5.2,7.2,7l12.1-2.8
			c7.1-11.3,3.6-26.1-7.6-33.2l-12.1,2.8c-0.7,1.1-1.3,2.3-1.8,3.5l-3.9-1.8l-2.7,3.6c-1-0.8-2-1.5-3.1-2.1l-12,3.2
			c-0.5,0.9-1,1.9-1.4,2.9l-4.9-1.4l-3.2,4.1c-1.2-0.9-2.4-1.6-3.8-2.3c-3.6,1.2-7.9,2.7-11.7,4.1c-5.8,12-0.8,26.4,11.2,32.1
			L687.4,617.7z"/>
		<linearGradient id="SVGID_3_" gradientUnits="userSpaceOnUse" x1="698.2203" y1="582.0452" x2="703.3333" y2="603.8541">
			<stop  offset="0" style="stop-color:#B5B5B5"/>
			<stop  offset="1" style="stop-color:#9A9A9A"/>
		</linearGradient>
		<path fill="url(#SVGID_3_)" d="M718.1,588.5c-6.9-0.1-26.9,2-37.1,9.1c-1,0.7-2.4,0.3-2.9,0c-1-0.6-3.3-3.2-3.4-11.6
			c-3.2,1.1-6.9,2.4-10.2,3.6c0.5,9.6,3.3,15.7,8.4,18.5c1.8,1,3.7,1.4,5.7,1.4c2.9,0,6-0.7,8.6-2.9c7.2-6.3,25.4-6.7,31.7-7.2
			c7.2-0.6,13.8-4.2,17.1-10.6c-0.9-4.6-3.1-8.8-6.5-12.2C729.9,587.5,720.3,588.6,718.1,588.5z"/>
	</g>
	<rect x="554.2" y="480.1" fill="#6D6E70" width="211.8" height="21.7"/>
	<g>
		<g>
			<path fill="#E8E8E8" d="M564,486.5c2.5,0,4.4,1.9,4.4,4.3c0,2.5-1.9,4.5-4.4,4.5s-4.4-2-4.4-4.5
				C559.6,488.4,561.5,486.5,564,486.5z M564,493.9c1.5,0,2.8-1.3,2.8-3.1c0-1.7-1.3-3-2.8-3s-2.8,1.3-2.8,3
				C561.2,492.6,562.5,493.9,564,493.9z"/>
			<path fill="#E8E8E8" d="M569,494h0.8l2.1-3.1l-2.1-3h-0.8v-1.2h3.2v1.2h-0.8l1.2,1.8c0.1,0.1,0.1,0.2,0.2,0.3c0,0,0,0.1,0.1,0.1
				h0c0,0,0.1-0.2,0.2-0.4l1.1-1.8h-0.8v-1.2h3.1v1.2h-0.7l-2.2,3.1l2.1,3h0.8v1.2h-3.2V494h0.8l-1.2-1.8c-0.1-0.1-0.1-0.2-0.2-0.3
				c0,0,0-0.1-0.1-0.1h0c0,0-0.1,0.2-0.2,0.4l-1.1,1.8h0.8v1.2H569V494z"/>
			<path fill="#E8E8E8" d="M577.6,494h1v-6.2h-1v-1.2h3.6v1.2h-1v6.2h1v1.2h-3.6V494z"/>
			<path fill="#E8E8E8" d="M582.4,494h1v-6.2h-1v-1.2h3.7c0.7,0,1.2,0,1.8,0.2c1.7,0.5,2.8,2,2.8,4.1c0,2-1,3.5-2.6,4
				c-0.6,0.2-1.2,0.3-1.9,0.3h-3.7V494z M586,493.9c0.5,0,1,0,1.4-0.2c1-0.4,1.6-1.4,1.6-2.8c0-1.5-0.6-2.4-1.6-2.8
				c-0.4-0.2-0.8-0.2-1.3-0.2h-1v6H586z"/>
			<path fill="#E8E8E8" d="M591.2,494h0.8l2.6-7.3h1.8l2.6,7.3h0.8v1.2h-3.2V494h0.8l-0.5-1.6H594l-0.5,1.6h0.8v1.2h-3.2V494z
				 M596.4,491.1l-0.8-2.4l-0.1-0.5c0-0.1,0-0.2,0-0.2h0l0,0.2c0,0.1-0.1,0.3-0.1,0.5l-0.8,2.4H596.4z"/>
			<path fill="#E8E8E8" d="M601.4,494h1v-6.1h-1.6v1.3h-1.3v-2.5h7.5v2.5h-1.3v-1.3H604v6.1h1v1.2h-3.6V494z"/>
			<path fill="#E8E8E8" d="M607.9,494h1v-6.2h-1v-1.2h3.6v1.2h-1v6.2h1v1.2h-3.6V494z"/>
			<path fill="#E8E8E8" d="M613,487.8h-0.8v-1.2h3.3v1.2h-0.9l1.6,4.9c0.1,0.2,0.1,0.4,0.1,0.5l0,0.3h0l0-0.3c0-0.1,0.1-0.3,0.1-0.5
				l1.6-4.9h-0.9v-1.2h3.3v1.2h-0.8l-2.6,7.3h-1.6L613,487.8z"/>
			<path fill="#E8E8E8" d="M621.4,494h1v-6.2h-1v-1.2h6.3v2.2h-1.3v-0.9H624v2.3h2.8v1.3H624v2.4h2.6v-1h1.3v2.2h-6.5V494z"/>
			<path fill="#E8E8E8" d="M632.1,494h1v-6.2h-1v-1.2h4.1c0.5,0,1,0,1.4,0.2c0.9,0.4,1.5,1.3,1.5,2.5c0,1.2-0.6,2.2-1.6,2.6
				c-0.4,0.1-0.8,0.2-1.3,0.2h-1.5v1.8h1v1.2h-3.6V494z M636,490.9c0.3,0,0.6-0.1,0.9-0.2c0.5-0.2,0.7-0.7,0.7-1.3
				c0-0.6-0.2-1-0.6-1.3c-0.2-0.1-0.5-0.2-0.9-0.2h-1.3v3H636z"/>
			<path fill="#E8E8E8" d="M640,494h1v-6.2h-1v-1.2h3.6v1.2h-1v2.5h3.9v-2.5h-1v-1.2h3.6v1.2h-1v6.2h1v1.2h-3.6V494h1v-2.4h-3.9v2.4
				h1v1.2H640V494z"/>
			<path fill="#E8E8E8" d="M654.6,486.5c2.5,0,4.4,1.9,4.4,4.3c0,2.5-1.9,4.5-4.4,4.5c-2.5,0-4.4-2-4.4-4.5
				C650.2,488.4,652.1,486.5,654.6,486.5z M654.6,493.9c1.5,0,2.8-1.3,2.8-3.1c0-1.7-1.3-3-2.8-3s-2.8,1.3-2.8,3
				C651.8,492.6,653.1,493.9,654.6,493.9z"/>
			<path fill="#E8E8E8" d="M661.5,492.4v0.6c0,0.5,0.7,0.9,1.5,0.9c0.9,0,1.5-0.4,1.5-1.1c0-0.9-1-1.1-2-1.5
				c-1.1-0.4-2.3-0.9-2.3-2.5c0-1.7,1.4-2.4,2.9-2.4c1.3,0,2.7,0.5,2.7,1.5v1.1h-1.4v-0.6c0-0.4-0.6-0.7-1.3-0.7
				c-0.7,0-1.3,0.3-1.3,0.9c0,0.8,0.8,1,1.7,1.4c1.3,0.4,2.5,1,2.5,2.6c0,1.7-1.5,2.5-3.1,2.5c-1.4,0-2.9-0.6-2.9-1.9v-1H661.5z"/>
			<path fill="#E8E8E8" d="M667.3,494h1v-6.2h-1v-1.2h4.1c0.5,0,1,0,1.4,0.2c0.9,0.4,1.5,1.3,1.5,2.5c0,1.2-0.6,2.2-1.6,2.6
				c-0.4,0.1-0.8,0.2-1.3,0.2h-1.5v1.8h1v1.2h-3.6V494z M671.2,490.9c0.3,0,0.6-0.1,0.9-0.2c0.5-0.2,0.7-0.7,0.7-1.3
				c0-0.6-0.2-1-0.6-1.3c-0.2-0.1-0.5-0.2-0.9-0.2h-1.3v3H671.2z"/>
			<path fill="#E8E8E8" d="M675.2,494h1v-6.2h-1v-1.2h3.6v1.2h-1v2.5h3.9v-2.5h-1v-1.2h3.6v1.2h-1v6.2h1v1.2h-3.6V494h1v-2.4h-3.9
				v2.4h1v1.2h-3.6V494z"/>
			<path fill="#E8E8E8" d="M689.8,486.5c2.5,0,4.4,1.9,4.4,4.3c0,2.5-1.9,4.5-4.4,4.5c-2.5,0-4.4-2-4.4-4.5
				C685.4,488.4,687.3,486.5,689.8,486.5z M689.8,493.9c1.5,0,2.8-1.3,2.8-3.1c0-1.7-1.3-3-2.8-3s-2.8,1.3-2.8,3
				C687,492.6,688.2,493.9,689.8,493.9z"/>
			<path fill="#E8E8E8" d="M695.3,494h1v-6.2h-1v-1.2h3.8c0.6,0,1.1,0,1.6,0.2c1,0.3,1.6,1.1,1.6,2.3s-0.6,2-1.6,2.4v0l0.1,0.1
				c0.1,0.1,0.2,0.2,0.3,0.3l1,1.8c0.1,0.2,0.3,0.3,0.6,0.3h0.3v1.2h-1c-0.7,0-0.9-0.1-1.2-0.6l-1.2-2.2c-0.2-0.3-0.3-0.4-0.8-0.4
				h-0.8v2.1h1v1.2h-3.6V494z M699.3,490.6c0.8,0,1.4-0.5,1.4-1.4c0-0.6-0.2-1-0.7-1.2c-0.2-0.1-0.6-0.2-1-0.2h-1.2v2.7H699.3z"/>
			<path fill="#E8E8E8" d="M705.2,494h1v-2.4l-2.3-3.8h-0.8v-1.2h3.2v1.2h-0.8l1.3,2.2c0.1,0.1,0.1,0.2,0.1,0.3c0,0,0,0.1,0,0.1h0
				c0,0,0-0.1,0-0.1c0-0.1,0.1-0.2,0.1-0.3l1.3-2.2h-0.8v-1.2h3.1v1.2h-0.8l-2.3,3.8v2.4h1v1.2h-3.6V494z"/>
			<path fill="#E8E8E8" d="M711.6,494h1v-6.1h-1v-1.3h3.6v1.3h-1v6h2.5v-1.3h1.3v2.6h-6.5V494z"/>
			<path fill="#E8E8E8" d="M718.5,494h0.8l2.6-7.3h1.8l2.6,7.3h0.8v1.2h-3.2V494h0.8l-0.5-1.6h-2.7l-0.5,1.6h0.8v1.2h-3.2V494z
				 M723.7,491.1l-0.8-2.4l-0.1-0.5c0-0.1,0-0.2,0-0.2h0l0,0.2c0,0.1-0.1,0.3-0.1,0.5l-0.8,2.4H723.7z"/>
			<path fill="#E8E8E8" d="M728.8,494h1v-6.1h-1.6v1.3h-1.3v-2.5h7.5v2.5H733v-1.3h-1.6v6.1h1v1.2h-3.6V494z"/>
			<path fill="#E8E8E8" d="M735.2,494h1v-6.2h-1v-1.2h3.6v1.2h-1v6.2h1v1.2h-3.6V494z"/>
			<path fill="#E8E8E8" d="M744.4,486.5c2.5,0,4.4,1.9,4.4,4.3c0,2.5-1.9,4.5-4.4,4.5s-4.4-2-4.4-4.5
				C740,488.4,741.9,486.5,744.4,486.5z M744.4,493.9c1.5,0,2.8-1.3,2.8-3.1c0-1.7-1.3-3-2.8-3s-2.8,1.3-2.8,3
				C741.6,492.6,742.9,493.9,744.4,493.9z"/>
			<path fill="#E8E8E8" d="M749.9,494h1v-6.2h-1v-1.2h2.6l3.6,5.5c0.1,0.1,0.2,0.3,0.2,0.5l0.1,0.3h0l0-0.3c0-0.2,0-0.4,0-0.5v-4.2
				h-1.1v-1.2h3.6v1.2h-1v7.3h-1.6l-3.6-5.5c-0.1-0.1-0.2-0.3-0.2-0.5l-0.1-0.3h0l0,0.3c0,0.2,0,0.4,0,0.5v4.2h1.1v1.2h-3.6V494z"/>
		</g>
	</g>
	<g filter="url(#ds1)">
		<path fill="#D0D2D3" d="M804.7,527.1c-14.1,7.7-12.3,34.5,1.4,39.2c0.5,0,2.9,24.6,2.9,24.6c-5.3,2.6-2.4,8.1,1.3,7.9
			c2.5-0.2,5.7-0.4,8.2-0.5c4.1-0.2,5.8-6,0.2-8c0,0-0.7-24.7-0.2-24.7c12.2-4.8,14.4-32.5-1.4-39.2
			C813.3,526.6,808.5,526.9,804.7,527.1z"/>
		<path fill="none" stroke="#929497" stroke-width="1.4546" stroke-linejoin="round" stroke-miterlimit="10" d="M804.7,527.1
			c-14.1,7.7-12.3,34.5,1.4,39.2c0.5,0,2.9,24.6,2.9,24.6c-5.3,2.6-2.4,8.1,1.3,7.9c2.5-0.2,5.7-0.4,8.2-0.5c4.1-0.2,5.8-6,0.2-8
			c0,0-0.7-24.7-0.2-24.7c12.2-4.8,14.4-32.5-1.4-39.2C813.3,526.6,808.5,526.9,804.7,527.1z"/>
	</g>
</g>
</svg>
