<?xml version="1.0" encoding="utf-8"?>
<!-- Generator: Adobe Illustrator 18.1.1, SVG Export Plug-In . SVG Version: 6.00 Build 0)  -->
<!DOCTYPE svg PUBLIC "-//W3C//DTD SVG 1.1//EN" "http://www.w3.org/Graphics/SVG/1.1/DTD/svg11.dtd">
<svg version="1.1" id="Layer_1" xmlns="http://www.w3.org/2000/svg" xmlns:xlink="http://www.w3.org/1999/xlink" x="0px" y="0px"
	 viewBox="0 0 920 690" enable-background="new 0 0 920 690" xml:space="preserve">
<filter  height="170%" width="170%" id="ds1" y="-20%" x="-30%">
	<feOffset  in="SourceAlpha" result="offOut" dy="1" dx="0"></feOffset>
	<feGaussianBlur  in="offOut" stdDeviation="2" result="blurOut"></feGaussianBlur>
	<feComponentTransfer>
		<feFuncA  type="linear" slope="0.5"></feFuncA>
	</feComponentTransfer>
	<feMerge>
		<feMergeNode></feMergeNode>
		<feMergeNode  in="SourceGraphic"></feMergeNode>
	</feMerge>
</filter>
<g>
	<g filter="url(#ds1)">
		<path fill="#D0D2D3" d="M684.3,385c-0.1-1.6-1.3-3.6-2.8-4.4l-6.7-3.4c-1.5-0.8-3.8-0.6-5.2,0.3l-6.3,4.1c-1.4,0.9-2.5,3-2.5,4.6
			l0,6.7c0,0.8-0.1,2.7-0.1,2.7s-1.4,1.9-2,2.5l-6.2,6.7c-1.1,1.2-1.4,3.4-0.6,4.8l4.5,8c0.8,1.4,2.8,2.4,4.4,2l9-1.8
			c1.6-0.3,3.1-1.9,3.3-3.6l1.1-9.1c0.2-1.6,0.4-3,0.4-3s1.1-0.7,2.5-1.6l5.3-3.4c1.4-0.9,2.5-3,2.4-4.6L684.3,385z"/>
		<path fill="none" stroke="#929497" stroke-width="1.4546" stroke-linejoin="round" stroke-miterlimit="10" d="M684.3,385
			c-0.1-1.6-1.3-3.6-2.8-4.4l-6.7-3.4c-1.5-0.8-3.8-0.6-5.2,0.3l-6.3,4.1c-1.4,0.9-2.5,3-2.5,4.6l0,6.7c0,0.8-0.1,2.7-0.1,2.7
			s-1.4,1.9-2,2.5l-6.2,6.7c-1.1,1.2-1.4,3.4-0.6,4.8l4.5,8c0.8,1.4,2.8,2.4,4.4,2l9-1.8c1.6-0.3,3.1-1.9,3.3-3.6l1.1-9.1
			c0.2-1.6,0.4-3,0.4-3s1.1-0.7,2.5-1.6l5.3-3.4c1.4-0.9,2.5-3,2.4-4.6L684.3,385z"/>
	</g>
	<g filter="url(#ds1)">
		<circle fill="#F4F4F4" cx="658.5" cy="382.5" r="5.1"/>
		<g>
			<rect x="657.7" y="379.2" fill="#3F3F3F" width="1.5" height="6.6"/>
			<rect x="655.2" y="381.8" fill="#3F3F3F" width="6.6" height="1.5"/>
		</g>
	</g>
	<g filter="url(#ds1)">
		<circle fill="#F4F4F4" cx="681.3" cy="408.3" r="5.1"/>
		<g>
			<rect x="680.5" y="405" fill="#3F3F3F" width="1.5" height="6.6"/>
			<rect x="678" y="407.5" fill="#3F3F3F" width="6.6" height="1.5"/>
		</g>
	</g>
	<g filter="url(#ds1)">
		<circle fill="#3F3F3F" cx="665.8" cy="392.9" r="3.7"/>
		<rect x="663.4" y="392.2" fill="#FFFFFF" width="4.9" height="1.4"/>
	</g>
	<g filter="url(#ds1)">
		<circle fill="#3F3F3F" cx="675.5" cy="395.1" r="3.7"/>
		<rect x="673.1" y="394.4" fill="#FFFFFF" width="4.9" height="1.4"/>
	</g>
</g>
<g>
	<g filter="url(#ds1)">
		<path fill="#D0D2D3" d="M727.1,403.6l-5.8,4.5c-1.4,0.9-2.3,2.9-1.9,4.6l1,5c0.3,1.6,1.9,3.5,3.4,4.1l6.1,2.6
			c1.5,0.6,3.9,0.4,5.3-0.5l4.3-2.8c1.4-0.9,2.3-2.9,1.9-4.6c0,0-0.7-7.4-0.7-7.6s5.9-4.8,5.9-4.8c1.4-0.9,2.3-2.9,1.9-4.6l-0.7-7.7
			l5.9-4.7c1.4-0.9,2.3-2.9,1.9-4.6l-1-5c-0.3-1.6-1.9-3.5-3.4-4.1l-6.1-2.6c-1.5-0.6-3.9-0.4-5.3,0.5l-4.3,2.8
			c-1.4,0.9-2.3,2.9-1.9,4.6l0.7,7.6l-5.9,4.8c-1.4,0.9-2.3,2.9-1.9,4.6L727.1,403.6z"/>
		<path fill="none" stroke="#929497" stroke-width="1.4546" stroke-linejoin="round" stroke-miterlimit="10" d="M727.1,403.6
			l-5.8,4.5c-1.4,0.9-2.3,2.9-1.9,4.6l1,5c0.3,1.6,1.9,3.5,3.4,4.1l6.1,2.6c1.5,0.6,3.9,0.4,5.3-0.5l4.3-2.8
			c1.4-0.9,2.3-2.9,1.9-4.6c0,0-0.7-7.4-0.7-7.6s5.9-4.8,5.9-4.8c1.4-0.9,2.3-2.9,1.9-4.6l-0.7-7.7l5.9-4.7c1.4-0.9,2.3-2.9,1.9-4.6
			l-1-5c-0.3-1.6-1.9-3.5-3.4-4.1l-6.1-2.6c-1.5-0.6-3.9-0.4-5.3,0.5l-4.3,2.8c-1.4,0.9-2.3,2.9-1.9,4.6l0.7,7.6l-5.9,4.8
			c-1.4,0.9-2.3,2.9-1.9,4.6L727.1,403.6z"/>
	</g>
	<g filter="url(#ds1)">
		<circle fill="#F4F4F4" cx="714.4" cy="408.5" r="5.1"/>
		<g>
			<rect x="713.6" y="405.2" fill="#3F3F3F" width="1.5" height="6.6"/>
			<rect x="711.1" y="407.7" fill="#3F3F3F" width="6.6" height="1.5"/>
		</g>
	</g>
	<g filter="url(#ds1)">
		<circle fill="#F4F4F4" cx="753.4" cy="405.6" r="5.1"/>
		<g>
			<rect x="752.7" y="402.3" fill="#3F3F3F" width="1.5" height="6.6"/>
			<rect x="750.2" y="404.9" fill="#3F3F3F" width="6.6" height="1.5"/>
		</g>
	</g>
	<g filter="url(#ds1)">
		<circle fill="#3F3F3F" cx="743.2" cy="400.3" r="3.7"/>
		<rect x="740.8" y="399.6" fill="#FFFFFF" width="4.9" height="1.4"/>
	</g>
	<g filter="url(#ds1)">
		<circle fill="#3F3F3F" cx="725.6" cy="413.1" r="3.7"/>
		<rect x="723.2" y="412.4" fill="#FFFFFF" width="4.9" height="1.4"/>
	</g>
</g>
<g opacity="0.45" filter="url(#ds1)">
	<path fill="#D0D2D3" stroke="#929497" stroke-width="1.3289" stroke-linejoin="round" stroke-miterlimit="10" d="M322.4,319.1
		l-2.9-8.9c-0.5-1.7,0.1-3.5,1.5-4.5l7.5-5.5c1.4-1,3.3-1,4.7,0l7.5,5.5c1.4,1,2,2.8,1.5,4.5l-2.9,8.9c-0.5,1.7-2.1,2.8-3.8,2.8
		h-9.3C324.5,321.9,322.9,320.7,322.4,319.1z"/>
	<path fill="#C99BD3" stroke="#9E6AA5" stroke-width="1.5" stroke-miterlimit="10" d="M327.9,295.2c0-0.1,0-0.1,0-0.2
		c-0.1-1,0.1-1.9-0.2-2.9c-0.2-1-0.6-1.9-1.3-2.6c-2-2-5.2-2-7.2,0c-1.2,1.2-1.9,2.6-3.3,3.7c-0.7,0.6-1.5,1-2.1,1.6
		c-2,2-2,5.2,0,7.2c1.8,1.8,4.2,1.1,6.4,1.6c1.2,0.3,2.1,0.7,3.4,0.6c1.3-0.1,2.4-0.7,3.3-1.6c1.3-1.3,1.9-3.3,1.5-5.1
		C328.3,296.7,328,296,327.9,295.2z"/>
</g>
<g opacity="0.45" filter="url(#ds1)">
	<path fill="#D0D2D3" d="M397.1,462.8c1.5,1.5,3.8,2.4,6.2,1.9c2.7-0.5,4.9-2.7,5.5-5.4c0.9-4.4-2.5-8.3-6.8-8.3
		c-1.6,0-3.1,0.6-4.3,1.5c-0.8,0.7-2,0.6-2.9,0c-1.5-1.2-3.4-1.7-5.5-1.3c-2.7,0.5-5,2.7-5.5,5.4c-0.4,2.1,0.1,4,1.3,5.5
		c0.6,0.8,0.7,2,0,2.8c-1.1,1.5-1.7,3.4-1.3,5.4c0.4,2.3,2,4.2,4.1,5.1c0.9,0.4,1.9,0.6,2.7,0.6c1,0,2,0.6,2.3,1.5
		c1,2.4,3.3,4.2,6.1,4.3c3.8,0.2,7.2-3,7.2-6.8c0.1-3.9-3.1-7-6.9-7l0,0c-1,0-2-0.7-2.4-1.6c-0.4-0.9-1-1.8-1.7-2.4
		c-0.3-0.2-0.3-0.7,0-0.9c0.1-0.1,0.2-0.2,0.3-0.3C395.9,462.4,396.6,462.4,397.1,462.8z"/>
	<path fill="none" stroke="#929497" stroke-width="1.3289" stroke-linejoin="round" stroke-miterlimit="10" d="M397.1,462.8
		c1.5,1.5,3.8,2.4,6.2,1.9c2.7-0.5,4.9-2.7,5.5-5.4c0.9-4.4-2.5-8.3-6.8-8.3c-1.6,0-3.1,0.6-4.3,1.5c-0.8,0.7-2,0.6-2.9,0
		c-1.5-1.2-3.4-1.7-5.5-1.3c-2.7,0.5-5,2.7-5.5,5.4c-0.4,2.1,0.1,4,1.3,5.5c0.6,0.8,0.7,2,0,2.8c-1.1,1.5-1.7,3.4-1.3,5.4
		c0.4,2.3,2,4.2,4.1,5.1c0.9,0.4,1.9,0.6,2.7,0.6c1,0,2,0.6,2.3,1.5c1,2.4,3.3,4.2,6.1,4.3c3.8,0.2,7.2-3,7.2-6.8
		c0.1-3.9-3.1-7-6.9-7l0,0c-1,0-2-0.7-2.4-1.6c-0.4-0.9-1-1.8-1.7-2.4c-0.3-0.2-0.3-0.7,0-0.9c0.1-0.1,0.2-0.2,0.3-0.3
		C395.9,462.4,396.6,462.4,397.1,462.8z"/>
</g>
<g opacity="0.45" filter="url(#ds1)">
	<circle fill="#F49F38" cx="437" cy="399.2" r="6.8"/>
	<circle fill="none" stroke="#C66320" stroke-width="1.4874" stroke-miterlimit="10" cx="437" cy="399.2" r="6.8"/>
</g>
<g opacity="0.45" filter="url(#ds1)">
	<path fill="#D0D2D3" stroke="#929497" stroke-width="1.3289" stroke-linejoin="round" stroke-miterlimit="10" d="M541.7,221.5
		l-2.9-8.9c-0.5-1.7,0.1-3.5,1.5-4.5l7.5-5.5c1.4-1,3.3-1,4.7,0l7.5,5.5c1.4,1,2,2.8,1.5,4.5l-2.9,8.9c-0.5,1.7-2.1,2.8-3.8,2.8
		h-9.3C543.8,224.3,542.2,223.2,541.7,221.5z"/>
	<path fill="#C99BD3" stroke="#9E6AA5" stroke-width="1.5" stroke-miterlimit="10" d="M547.2,197.6c0-0.1,0-0.1,0-0.2
		c-0.1-1,0.1-1.9-0.2-2.9c-0.2-1-0.6-1.9-1.3-2.6c-2-2-5.2-2-7.2,0c-1.2,1.2-1.9,2.6-3.3,3.7c-0.7,0.6-1.5,1-2.1,1.6
		c-2,2-2,5.2,0,7.2c1.8,1.8,4.2,1.1,6.4,1.6c1.2,0.3,2.1,0.7,3.4,0.6c1.3-0.1,2.4-0.7,3.3-1.6c1.3-1.3,1.9-3.3,1.5-5.1
		C547.6,199.2,547.3,198.5,547.2,197.6z"/>
</g>
<g opacity="0.45" filter="url(#ds1)">
	<circle fill="#D0D2D3" cx="358.7" cy="623.3" r="6.8"/>
	
		<circle fill="none" stroke="#929497" stroke-width="1.3289" stroke-linejoin="round" stroke-miterlimit="10" cx="358.7" cy="623.3" r="6.8"/>
</g>
<g opacity="0.45" filter="url(#ds1)">
	<circle fill="#D0D2D3" cx="438.1" cy="621.9" r="6.8"/>
	
		<circle fill="none" stroke="#929497" stroke-width="1.3289" stroke-linejoin="round" stroke-miterlimit="10" cx="438.1" cy="621.9" r="6.8"/>
</g>
<g opacity="0.45">
	<g>
		<g opacity="0.5">
			<path fill="none" stroke="#000000" stroke-width="2" stroke-linecap="round" stroke-miterlimit="10" d="M459.8,624.4
				c0,6.1-5,11.1-11.1,11.1h-18.3c-6.1,0-11.1-5-11.1-11.1"/>
		</g>
		<g>
			<path fill="none" stroke="#FFFFFF" stroke-width="2" stroke-linecap="round" stroke-miterlimit="10" d="M458.8,623.4
				c0,6.1-5,11.1-11.1,11.1h-18.3c-6.1,0-11.1-5-11.1-11.1"/>
		</g>
	</g>
	<g>
		<g opacity="0.5">
			<rect x="430.1" y="635.5" width="18.9" height="12.1"/>
		</g>
		<g>
			<rect x="429.1" y="634.5" fill="#FFFFFF" width="18.9" height="12.1"/>
		</g>
	</g>
	<g>
		<g>
			<path fill="#6D6E70" d="M433.8,641.7h0.6l0.9-1.3l-0.8-1.2h-0.6v-0.8h1.3l0.6,1c0,0.1,0.1,0.1,0.1,0.2c0,0,0,0.1,0,0.1h0
				c0,0,0-0.1,0-0.1l0.1-0.2l0.6-1h1.2v0.8h-0.6l-0.8,1.2l0.9,1.3h0.5v0.8h-1.1l-0.7-1.1l-0.1-0.2c0,0,0-0.1,0-0.1h0
				c0,0,0,0.1,0,0.1c0,0.1-0.1,0.1-0.1,0.2l-0.7,1.1h-1.2V641.7z"/>
			<path fill="#6D6E70" d="M441.9,638c0.1-0.1,0.1-0.2,0.2-0.3l0.1-0.1v0c0,0-0.1,0-0.1,0c-0.1,0-0.2,0-0.3,0h-2v0.8h-1.1v-1.9h5
				v0.9l-3.1,6.2H439L441.9,638z"/>
		</g>
	</g>
</g>
<g opacity="0.45">
	<g>
		<g opacity="0.5">
			<path fill="none" stroke="#000000" stroke-width="2" stroke-linecap="round" stroke-miterlimit="10" d="M349.9,321.4
				c0,6.1-5,11.1-11.1,11.1h-18.3c-6.1,0-11.1-5-11.1-11.1"/>
		</g>
		<g>
			<path fill="none" stroke="#FFFFFF" stroke-width="2" stroke-linecap="round" stroke-miterlimit="10" d="M348.9,320.4
				c0,6.1-5,11.1-11.1,11.1h-18.3c-6.1,0-11.1-5-11.1-11.1"/>
		</g>
	</g>
	<g>
		<g opacity="0.5">
			<rect x="320.2" y="332.5" width="18.9" height="12.1"/>
		</g>
		<g>
			<rect x="319.2" y="331.5" fill="#FFFFFF" width="18.9" height="12.1"/>
		</g>
	</g>
	<g>
		<g>
			<path fill="#6D6E70" d="M323.9,338.7h0.6l0.9-1.3l-0.8-1.2h-0.6v-0.8h1.3l0.6,1c0,0.1,0.1,0.1,0.1,0.2c0,0,0,0.1,0,0.1h0
				c0,0,0-0.1,0-0.1l0.1-0.2l0.6-1h1.2v0.8h-0.6l-0.8,1.2l0.9,1.3h0.5v0.8h-1.1l-0.7-1.1l-0.1-0.2c0,0,0-0.1,0-0.1h0
				c0,0,0,0.1,0,0.1c0,0.1-0.1,0.1-0.1,0.2l-0.7,1.1h-1.2V338.7z"/>
			<path fill="#6D6E70" d="M331.9,335.1c0.1-0.1,0.1-0.2,0.2-0.3l0.1-0.1v0c0,0-0.1,0-0.1,0c-0.1,0-0.2,0-0.3,0h-2v0.8h-1.1v-1.9h5
				v0.9l-3.1,6.2h-1.3L331.9,335.1z"/>
		</g>
	</g>
</g>
<g opacity="0.45" filter="url(#ds1)">
	<path fill="#D0D2D3" d="M492.9,446.4l37.9-1.4c3.1-0.1,5.6,2.4,5.6,5.4v7.7c0,3.3-2.8,5.8-6.1,5.4l-40.2-4.6
		c-0.7-0.1-1.3-0.7-1.3-1.4v-7.1C489,448.3,490.7,446.5,492.9,446.4z"/>
	<path fill="none" stroke="#929497" stroke-width="1.5" stroke-linejoin="round" stroke-miterlimit="10" d="M492.9,446.4l37.9-1.4
		c3.1-0.1,5.6,2.4,5.6,5.4v7.7c0,3.3-2.8,5.8-6.1,5.4l-40.2-4.6c-0.7-0.1-1.3-0.7-1.3-1.4v-7.1C489,448.3,490.7,446.5,492.9,446.4z"
		/>
</g>
<g opacity="0.45">
	<g>
		<g opacity="0.5">
			<path fill="none" stroke="#000000" stroke-width="2" stroke-linecap="round" stroke-miterlimit="10" d="M548.2,458.8
				c0,6.1-5,11.1-11.1,11.1h-45.5c-6.1,0-11.1-5-11.1-11.1"/>
		</g>
		<g>
			<path fill="none" stroke="#FFFFFF" stroke-width="2" stroke-linecap="round" stroke-miterlimit="10" d="M547.2,457.8
				c0,6.1-5,11.1-11.1,11.1h-45.5c-6.1,0-11.1-5-11.1-11.1"/>
		</g>
	</g>
	<g>
		<g opacity="0.5">
			<rect x="504.9" y="469.9" width="18.9" height="12.1"/>
		</g>
		<g>
			<rect x="503.9" y="468.9" fill="#FFFFFF" width="18.9" height="12.1"/>
		</g>
	</g>
	<g>
		<g>
			<path fill="#6D6E70" d="M508.5,476h0.6l0.9-1.3l-0.8-1.2h-0.6v-0.8h1.3l0.6,1c0,0.1,0.1,0.1,0.1,0.2c0,0,0,0.1,0,0.1h0
				c0,0,0-0.1,0-0.1l0.1-0.2l0.6-1h1.2v0.8H512l-0.8,1.2l0.9,1.3h0.5v0.8h-1.1l-0.7-1.1l-0.1-0.2c0,0,0-0.1,0-0.1h0c0,0,0,0.1,0,0.1
				c0,0.1-0.1,0.1-0.1,0.2l-0.7,1.1h-1.2V476z"/>
			<path fill="#6D6E70" d="M516.6,472.4c0.1-0.1,0.1-0.2,0.2-0.3l0.1-0.1v0c0,0-0.1,0-0.1,0c-0.1,0-0.2,0-0.3,0h-2v0.8h-1.1V471h5
				v0.9l-3.1,6.2h-1.3L516.6,472.4z"/>
		</g>
	</g>
</g>
<g opacity="0.45">
	<g>
		<g opacity="0.5">
			<path fill="none" stroke="#000000" stroke-width="2" stroke-linecap="round" stroke-miterlimit="10" d="M379.9,626
				c0,6.1-5,11.1-11.1,11.1h-18.3c-6.1,0-11.1-5-11.1-11.1"/>
		</g>
		<g>
			<path fill="none" stroke="#FFFFFF" stroke-width="2" stroke-linecap="round" stroke-miterlimit="10" d="M378.9,625
				c0,6.1-5,11.1-11.1,11.1h-18.3c-6.1,0-11.1-5-11.1-11.1"/>
		</g>
	</g>
	<g>
		<g opacity="0.5">
			<rect x="350.3" y="637.1" width="18.9" height="12.1"/>
		</g>
		<g>
			<rect x="349.3" y="636.1" fill="#FFFFFF" width="18.9" height="12.1"/>
		</g>
	</g>
	<g>
		<g>
			<path fill="#6D6E70" d="M354,643.3h0.6l0.9-1.3l-0.8-1.2H354v-0.8h1.3l0.6,1c0,0.1,0.1,0.1,0.1,0.2c0,0,0,0.1,0,0.1h0
				c0,0,0-0.1,0-0.1l0.1-0.2l0.6-1h1.2v0.8h-0.6l-0.8,1.2l0.9,1.3h0.5v0.8h-1.1l-0.7-1.1l-0.1-0.2c0,0,0-0.1,0-0.1h0
				c0,0,0,0.1,0,0.1c0,0.1-0.1,0.1-0.1,0.2l-0.7,1.1H354V643.3z"/>
			<path fill="#6D6E70" d="M362,639.7c0.1-0.1,0.1-0.2,0.2-0.3l0.1-0.1v0c0,0-0.1,0-0.1,0c-0.1,0-0.2,0-0.3,0h-2v0.8h-1.1v-1.9h5
				v0.9l-3.1,6.2h-1.3L362,639.7z"/>
		</g>
	</g>
</g>
<g opacity="0.58" filter="url(#ds1)">
	<path fill="#F4F4F4" d="M349.4,395.1l-5.9,4.5c-1.4,0.9-2.3,2.9-2,4.5l1,5c0.3,1.6,1.8,3.5,3.3,4.1l6.1,2.6
		c1.5,0.7,3.9,0.5,5.3-0.4l4.3-2.7c1.4-0.9,2.3-2.9,2-4.5c0,0-0.6-7.4-0.7-7.6c0-0.2,6-4.7,6-4.7c1.4-0.9,2.3-2.9,2-4.5l-0.6-7.7
		l5.9-4.6c1.4-0.9,2.3-2.9,2-4.5l-1-5c-0.3-1.6-1.8-3.5-3.3-4.1l-6.1-2.6c-1.5-0.7-3.9-0.5-5.3,0.4l-4.3,2.7c-1.4,0.9-2.3,2.9-2,4.5
		l0.7,7.6l-6,4.7c-1.4,0.9-2.3,2.9-2,4.5L349.4,395.1z"/>
	<circle fill="#F4F4F4" cx="375.7" cy="397.3" r="5.1"/>
	<circle fill="#F4F4F4" cx="336.6" cy="399.7" r="5.1"/>
</g>
<g opacity="0.58" filter="url(#ds1)">
	<path fill="#F4F4F4" d="M863.9,305.1l-5.9,4.5c-1.4,0.9-2.3,2.9-2,4.5l1,5c0.3,1.6,1.8,3.5,3.3,4.1l6.1,2.6
		c1.5,0.7,3.9,0.5,5.3-0.4l4.3-2.7c1.4-0.9,2.3-2.9,2-4.5c0,0-0.6-7.4-0.7-7.6c0-0.2,6-4.7,6-4.7c1.4-0.9,2.3-2.9,2-4.5l-0.6-7.7
		l5.9-4.6c1.4-0.9,2.3-2.9,2-4.5l-1-5c-0.3-1.6-1.8-3.5-3.3-4.1l-6.1-2.6c-1.5-0.7-3.9-0.5-5.3,0.4l-4.3,2.7c-1.4,0.9-2.3,2.9-2,4.5
		l0.7,7.6l-6,4.7c-1.4,0.9-2.3,2.9-2,4.5L863.9,305.1z"/>
	<circle fill="#F4F4F4" cx="890.2" cy="307.4" r="5.1"/>
	<circle fill="#F4F4F4" cx="851.1" cy="309.8" r="5.1"/>
</g>
<g opacity="0.58" filter="url(#ds1)">
	<path fill="#F4F4F4" d="M319.7,379.7c-0.1-1.6-1.3-3.6-2.8-4.4l-6.7-3.4c-1.5-0.8-3.8-0.6-5.2,0.3l-6.3,4.1c-1.4,0.9-2.5,3-2.5,4.6
		l0,6.7c0,0.8-0.1,2.7-0.1,2.7s-1.4,1.9-2,2.5l-6.2,6.7c-1.1,1.2-1.4,3.4-0.6,4.8l4.5,8c0.8,1.4,2.8,2.4,4.4,2l9-1.8
		c1.6-0.3,3.1-1.9,3.3-3.6l1.1-9.1c0.2-1.6,0.4-3,0.4-3s1.1-0.7,2.5-1.6l5.3-3.4c1.4-0.9,2.5-3,2.4-4.6L319.7,379.7z"/>
	<circle fill="#F4F4F4" cx="293.9" cy="377.3" r="5.1"/>
	<circle fill="#F4F4F4" cx="316.7" cy="403" r="5.1"/>
</g>
<g opacity="0.58" filter="url(#ds1)">
	<path fill="#F4F4F4" d="M323.8,599.7c-0.1-1.6-1.3-3.6-2.8-4.4l-6.7-3.4c-1.5-0.8-3.8-0.6-5.2,0.3l-6.3,4.1c-1.4,0.9-2.5,3-2.5,4.6
		l0,6.7c0,0.8-0.1,2.7-0.1,2.7s-1.4,1.9-2,2.5l-6.2,6.7c-1.1,1.2-1.4,3.4-0.6,4.8l4.5,8c0.8,1.4,2.8,2.4,4.4,2l9-1.8
		c1.6-0.3,3.1-1.9,3.3-3.6l1.1-9.1c0.2-1.6,0.4-3,0.4-3s1.1-0.7,2.5-1.6l5.3-3.4c1.4-0.9,2.5-3,2.4-4.6L323.8,599.7z"/>
	<circle fill="#F4F4F4" cx="298" cy="597.3" r="5.1"/>
	<circle fill="#F4F4F4" cx="320.8" cy="623" r="5.1"/>
</g>
<g opacity="0.58" filter="url(#ds1)">
	<path fill="#F4F4F4" d="M507,600.3c-0.1-1.6-1.3-3.6-2.8-4.4l-6.7-3.4c-1.5-0.8-3.8-0.6-5.2,0.3l-6.3,4.1c-1.4,0.9-2.5,3-2.5,4.6
		l0,6.7c0,0.8-0.1,2.7-0.1,2.7s-1.4,1.9-2,2.5l-6.2,6.7c-1.1,1.2-1.4,3.4-0.6,4.8l4.5,8c0.8,1.4,2.8,2.4,4.4,2l9-1.8
		c1.6-0.3,3.1-1.9,3.3-3.6l1.1-9.1c0.2-1.6,0.4-3,0.4-3s1.1-0.7,2.5-1.6l5.3-3.4c1.4-0.9,2.5-3,2.4-4.6L507,600.3z"/>
	<circle fill="#F4F4F4" cx="481.1" cy="597.9" r="5.1"/>
	<circle fill="#F4F4F4" cx="503.9" cy="623.7" r="5.1"/>
</g>
<g opacity="0.58" filter="url(#ds1)">
	<path fill="#F4F4F4" d="M575.7,339.6c-0.1-1.6-1.3-3.6-2.8-4.4l-6.7-3.4c-1.5-0.8-3.8-0.6-5.2,0.3l-6.3,4.1c-1.4,0.9-2.5,3-2.5,4.6
		l0,6.7c0,0.8-0.1,2.7-0.1,2.7s-1.4,1.9-2,2.5l-6.2,6.7c-1.1,1.2-1.4,3.4-0.6,4.8l4.5,8c0.8,1.4,2.8,2.4,4.4,2l9-1.8
		c1.6-0.3,3.1-1.9,3.3-3.6l1.1-9.1c0.2-1.6,0.4-3,0.4-3s1.1-0.7,2.5-1.6l5.3-3.4c1.4-0.9,2.5-3,2.4-4.6L575.7,339.6z"/>
	<circle fill="#F4F4F4" cx="549.9" cy="337.2" r="5.1"/>
	<circle fill="#F4F4F4" cx="572.7" cy="363" r="5.1"/>
</g>
<g opacity="0.58" filter="url(#ds1)">
	<path fill="#F4F4F4" d="M522.8,194.6c-0.1-1.6-1.3-3.6-2.8-4.4l-6.7-3.4c-1.5-0.8-3.8-0.6-5.2,0.3l-6.3,4.1c-1.4,0.9-2.5,3-2.5,4.6
		l0,6.7c0,0.8-0.1,2.7-0.1,2.7s-1.4,1.9-2,2.5l-6.2,6.7c-1.1,1.2-1.4,3.4-0.6,4.8l4.5,8c0.8,1.4,2.8,2.4,4.4,2l9-1.8
		c1.6-0.3,3.1-1.9,3.3-3.6l1.1-9.1c0.2-1.6,0.4-3,0.4-3s1.1-0.7,2.5-1.6l5.3-3.4c1.4-0.9,2.5-3,2.4-4.6L522.8,194.6z"/>
	<circle fill="#F4F4F4" cx="496.9" cy="192.2" r="5.1"/>
	<circle fill="#F4F4F4" cx="519.7" cy="218" r="5.1"/>
</g>
<g opacity="0.58" filter="url(#ds1)">
	<path fill="#F4F4F4" d="M833.8,284.7c-0.1-1.6-1.3-3.6-2.8-4.4l-6.7-3.4c-1.5-0.8-3.8-0.6-5.2,0.3l-6.3,4.1c-1.4,0.9-2.5,3-2.5,4.6
		l0,6.7c0,0.8-0.1,2.7-0.1,2.7s-1.4,1.9-2,2.5l-6.2,6.7c-1.1,1.2-1.4,3.4-0.6,4.8l4.5,8c0.8,1.4,2.8,2.4,4.4,2l9-1.8
		c1.6-0.3,3.1-1.9,3.3-3.6l1.1-9.1c0.2-1.6,0.4-3,0.4-3s1.1-0.7,2.5-1.6l5.3-3.4c1.4-0.9,2.5-3,2.4-4.6L833.8,284.7z"/>
	<circle fill="#F4F4F4" cx="808" cy="282.2" r="5.1"/>
	<circle fill="#F4F4F4" cx="830.8" cy="308" r="5.1"/>
</g>
<g>
	<g>
		<g opacity="0.5">
			<path fill="none" stroke="#000000" stroke-width="2" stroke-linecap="round" stroke-miterlimit="10" d="M763.5,418.7
				c0,6.1-5,11.1-11.1,11.1h-35.6c-6.1,0-11.1-5-11.1-11.1"/>
		</g>
		<g>
			<path fill="none" stroke="#FFFFFF" stroke-width="2" stroke-linecap="round" stroke-miterlimit="10" d="M762.5,417.7
				c0,6.1-5,11.1-11.1,11.1h-35.6c-6.1,0-11.1-5-11.1-11.1"/>
		</g>
	</g>
	<g>
		<g opacity="0.5">
			<rect x="724.5" y="430" width="20.3" height="12.1"/>
		</g>
		<g>
			<rect x="723.5" y="429" fill="#FFFFFF" width="20.3" height="12.1"/>
		</g>
	</g>
	<g>
		<g>
			<path fill="#6D6E70" d="M725.9,436.2h0.6l0.9-1.3l-0.8-1.2h-0.6v-0.8h1.3l0.6,1c0,0.1,0.1,0.1,0.1,0.2c0,0,0,0.1,0,0.1h0
				c0,0,0-0.1,0-0.1l0.1-0.2l0.6-1h1.2v0.8h-0.6l-0.8,1.2l0.9,1.3h0.5v0.8h-1.1l-0.7-1.1l-0.1-0.2c0,0,0-0.1,0-0.1h0
				c0,0,0,0.1,0,0.1c0,0.1-0.1,0.1-0.1,0.2l-0.7,1.1h-1.2V436.2z"/>
			<path fill="#6D6E70" d="M730.7,437.2h1.5v-4c0-0.1,0-0.2,0-0.3v-0.2h0l-0.1,0.1c0,0.1-0.1,0.2-0.2,0.3l-0.6,0.5l-0.8-0.8l1.8-1.7
				h1.1v6h1.5v1h-4.3V437.2z"/>
			<path fill="#6D6E70" d="M735.9,431.2h4.5v0.9l-1.7,2c0.9,0.1,1.8,0.8,1.8,2c0,1.2-0.9,2.3-2.5,2.3c-0.8,0-1.3-0.2-1.7-0.5
				c-0.2-0.1-0.4-0.3-0.6-0.5l0.6-0.9c0.1,0.1,0.3,0.2,0.5,0.4c0.3,0.2,0.7,0.4,1.2,0.4c0.8,0,1.3-0.5,1.3-1.1
				c0-0.7-0.6-1.1-1.4-1.1c-0.2,0-0.3,0-0.4,0l-0.3-0.6l1.5-1.9c0.1-0.1,0.1-0.2,0.2-0.2l0.1-0.1v0c0,0-0.1,0-0.1,0
				c-0.1,0-0.2,0-0.3,0H737v0.8h-1.1V431.2z"/>
		</g>
	</g>
</g>
<g>
	<g>
		<g opacity="0.5">
			<path fill="none" stroke="#000000" stroke-width="2" stroke-linecap="round" stroke-miterlimit="10" d="M693.1,418.9
				c0,6.1-5,11.1-11.1,11.1h-28.9c-6.1,0-11.1-5-11.1-11.1"/>
		</g>
		<g>
			<path fill="none" stroke="#FFFFFF" stroke-width="2" stroke-linecap="round" stroke-miterlimit="10" d="M692.1,417.9
				c0,6.1-5,11.1-11.1,11.1h-28.9c-6.1,0-11.1-5-11.1-11.1"/>
		</g>
	</g>
	<g>
		<g opacity="0.5">
			<rect x="657.4" y="430" width="20.3" height="12.1"/>
		</g>
		<g>
			<rect x="656.4" y="429" fill="#FFFFFF" width="20.3" height="12.1"/>
		</g>
	</g>
	<g>
		<g>
			<path fill="#6D6E70" d="M658.5,436.2h0.6l0.9-1.3l-0.8-1.2h-0.6v-0.8h1.3l0.6,1c0,0.1,0.1,0.1,0.1,0.2c0,0,0,0.1,0,0.1h0
				c0,0,0-0.1,0-0.1l0.1-0.2l0.6-1h1.2v0.8H662l-0.8,1.2l0.9,1.3h0.5v0.8h-1.1l-0.7-1.1l-0.1-0.2c0,0,0-0.1,0-0.1h0c0,0,0,0.1,0,0.1
				c0,0.1-0.1,0.1-0.1,0.2l-0.7,1.1h-1.2V436.2z"/>
			<path fill="#6D6E70" d="M663.4,438.3c0-0.2-0.1-0.4-0.1-0.6c0-2.6,3.4-2.9,3.4-4.4c0-0.7-0.5-1-1.1-1c-0.4,0-0.8,0.2-1,0.4
				c-0.1,0.1-0.2,0.3-0.4,0.5l-0.9-0.6c0.1-0.3,0.3-0.5,0.5-0.7c0.4-0.4,1-0.7,1.8-0.7c1.2,0,2.3,0.8,2.3,2.1c0,2.2-3.3,2.6-3.3,4.1
				h2.4v-0.9h1.1v1.9H663.4z"/>
			<path fill="#6D6E70" d="M671.6,431c1.5,0,2.7,1.2,2.7,3.3c0,1.9-1,4-3.3,4c-0.4,0-0.8-0.1-1-0.2c-0.2,0-0.3-0.1-0.4-0.1l0.4-1.1
				c0.1,0,0.2,0.1,0.3,0.1c0.2,0.1,0.4,0.1,0.7,0.1c1.1,0,1.7-0.9,1.9-1.9h0c-0.3,0.3-0.8,0.5-1.4,0.5c-1.4,0-2.3-1.1-2.3-2.3
				C669.2,432.1,670.2,431,671.6,431z M671.9,434.7c0.6,0,1.1-0.4,1.1-0.9c0-0.8-0.6-1.6-1.4-1.6c-0.7,0-1.1,0.5-1.1,1.2
				C670.5,434.1,671,434.7,671.9,434.7z"/>
		</g>
	</g>
</g>
</svg>
