<?xml version="1.0" encoding="utf-8"?>
<!-- Generator: Adobe Illustrator 18.1.1, SVG Export Plug-In . SVG Version: 6.00 Build 0)  -->
<!DOCTYPE svg PUBLIC "-//W3C//DTD SVG 1.1//EN" "http://www.w3.org/Graphics/SVG/1.1/DTD/svg11.dtd">
<svg version="1.1" id="Layer_1" xmlns="http://www.w3.org/2000/svg" xmlns:xlink="http://www.w3.org/1999/xlink" x="0px" y="0px"
	 viewBox="0 0 920 690" enable-background="new 0 0 920 690" xml:space="preserve">
<filter  height="170%" width="170%" id="ds1" y="-20%" x="-30%">
	<feOffset  in="SourceAlpha" result="offOut" dy="1" dx="0"></feOffset>
	<feGaussianBlur  in="offOut" stdDeviation="2" result="blurOut"></feGaussianBlur>
	<feComponentTransfer>
		<feFuncA  type="linear" slope="0.5"></feFuncA>
	</feComponentTransfer>
	<feMerge>
		<feMergeNode></feMergeNode>
		<feMergeNode  in="SourceGraphic"></feMergeNode>
	</feMerge>
</filter>
<g opacity="0.45" filter="url(#ds1)">
	<path fill="#D0D2D3" stroke="#929497" stroke-width="1.3289" stroke-linejoin="round" stroke-miterlimit="10" d="M322.4,319.1
		l-2.9-8.9c-0.5-1.7,0.1-3.5,1.5-4.5l7.5-5.5c1.4-1,3.3-1,4.7,0l7.5,5.5c1.4,1,2,2.8,1.5,4.5l-2.9,8.9c-0.5,1.7-2.1,2.8-3.8,2.8
		h-9.3C324.5,321.9,322.9,320.7,322.4,319.1z"/>
	<path fill="#C99BD3" stroke="#9E6AA5" stroke-width="1.5" stroke-miterlimit="10" d="M327.9,295.2c0-0.1,0-0.1,0-0.2
		c-0.1-1,0.1-1.9-0.2-2.9c-0.2-1-0.6-1.9-1.3-2.6c-2-2-5.2-2-7.2,0c-1.2,1.2-1.9,2.6-3.3,3.7c-0.7,0.6-1.5,1-2.1,1.6
		c-2,2-2,5.2,0,7.2c1.8,1.8,4.2,1.1,6.4,1.6c1.2,0.3,2.1,0.7,3.4,0.6c1.3-0.1,2.4-0.7,3.3-1.6c1.3-1.3,1.9-3.3,1.5-5.1
		C328.3,296.7,328,296,327.9,295.2z"/>
</g>
<g opacity="0.45">
	<g>
		<path fill="none" stroke="#FFFFFF" stroke-width="2" stroke-miterlimit="10" d="M393.5,466.3c30.8,0,55.8,25,55.8,55.8
			s-25,55.8-55.8,55.8c-30.8,0-55.8-25-55.8-55.8c0-25.2,16.7-46.5,39.6-53.4"/>
		<g>
			<circle fill="#FFFFFF" cx="393.5" cy="466.3" r="4.7"/>
		</g>
		<g>
			<polygon fill="#FFFFFF" points="384.1,466.6 375.7,473.4 376.8,468.8 373.4,465.6 			"/>
		</g>
	</g>
</g>
<g opacity="0.45" filter="url(#ds1)">
	<path fill="#D0D2D3" d="M397.1,462.8c1.5,1.5,3.8,2.4,6.2,1.9c2.7-0.5,4.9-2.7,5.5-5.4c0.9-4.4-2.5-8.3-6.8-8.3
		c-1.6,0-3.1,0.6-4.3,1.5c-0.8,0.7-2,0.6-2.9,0c-1.5-1.2-3.4-1.7-5.5-1.3c-2.7,0.5-5,2.7-5.5,5.4c-0.4,2.1,0.1,4,1.3,5.5
		c0.6,0.8,0.7,2,0,2.8c-1.1,1.5-1.7,3.4-1.3,5.4c0.4,2.3,2,4.2,4.1,5.1c0.9,0.4,1.9,0.6,2.7,0.6c1,0,2,0.6,2.3,1.5
		c1,2.4,3.3,4.2,6.1,4.3c3.8,0.2,7.2-3,7.2-6.8c0.1-3.9-3.1-7-6.9-7l0,0c-1,0-2-0.7-2.4-1.6c-0.4-0.9-1-1.8-1.7-2.4
		c-0.3-0.2-0.3-0.7,0-0.9c0.1-0.1,0.2-0.2,0.3-0.3C395.9,462.4,396.6,462.4,397.1,462.8z"/>
	<path fill="none" stroke="#929497" stroke-width="1.3289" stroke-linejoin="round" stroke-miterlimit="10" d="M397.1,462.8
		c1.5,1.5,3.8,2.4,6.2,1.9c2.7-0.5,4.9-2.7,5.5-5.4c0.9-4.4-2.5-8.3-6.8-8.3c-1.6,0-3.1,0.6-4.3,1.5c-0.8,0.7-2,0.6-2.9,0
		c-1.5-1.2-3.4-1.7-5.5-1.3c-2.7,0.5-5,2.7-5.5,5.4c-0.4,2.1,0.1,4,1.3,5.5c0.6,0.8,0.7,2,0,2.8c-1.1,1.5-1.7,3.4-1.3,5.4
		c0.4,2.3,2,4.2,4.1,5.1c0.9,0.4,1.9,0.6,2.7,0.6c1,0,2,0.6,2.3,1.5c1,2.4,3.3,4.2,6.1,4.3c3.8,0.2,7.2-3,7.2-6.8
		c0.1-3.9-3.1-7-6.9-7l0,0c-1,0-2-0.7-2.4-1.6c-0.4-0.9-1-1.8-1.7-2.4c-0.3-0.2-0.3-0.7,0-0.9c0.1-0.1,0.2-0.2,0.3-0.3
		C395.9,462.4,396.6,462.4,397.1,462.8z"/>
</g>
<g>
	<g filter="url(#ds1)">
		<path fill="#D0D2D3" d="M576.4,339.6c-0.1-1.6-1.3-3.6-2.8-4.4l-6.7-3.4c-1.5-0.8-3.8-0.6-5.2,0.3l-6.3,4.1
			c-1.4,0.9-2.5,3-2.5,4.6l0,6.7c0,0.8-0.1,2.7-0.1,2.7s-1.4,1.9-2,2.5l-6.2,6.7c-1.1,1.2-1.4,3.4-0.6,4.8l4.5,8
			c0.8,1.4,2.8,2.4,4.4,2l9-1.8c1.6-0.3,3.1-1.9,3.3-3.6l1.1-9.1c0.2-1.6,0.4-3,0.4-3s1.1-0.7,2.5-1.6l5.3-3.4
			c1.4-0.9,2.5-3,2.4-4.6L576.4,339.6z"/>
		<path fill="none" stroke="#929497" stroke-width="1.4546" stroke-linejoin="round" stroke-miterlimit="10" d="M576.4,339.6
			c-0.1-1.6-1.3-3.6-2.8-4.4l-6.7-3.4c-1.5-0.8-3.8-0.6-5.2,0.3l-6.3,4.1c-1.4,0.9-2.5,3-2.5,4.6l0,6.7c0,0.8-0.1,2.7-0.1,2.7
			s-1.4,1.9-2,2.5l-6.2,6.7c-1.1,1.2-1.4,3.4-0.6,4.8l4.5,8c0.8,1.4,2.8,2.4,4.4,2l9-1.8c1.6-0.3,3.1-1.9,3.3-3.6l1.1-9.1
			c0.2-1.6,0.4-3,0.4-3s1.1-0.7,2.5-1.6l5.3-3.4c1.4-0.9,2.5-3,2.4-4.6L576.4,339.6z"/>
	</g>
	<g filter="url(#ds1)">
		<circle fill="#F4F4F4" cx="550.5" cy="337.2" r="5.1"/>
		<g>
			<rect x="549.8" y="333.9" fill="#3F3F3F" width="1.5" height="6.6"/>
			<rect x="547.2" y="336.4" fill="#3F3F3F" width="6.6" height="1.5"/>
		</g>
	</g>
	<g filter="url(#ds1)">
		<circle fill="#F4F4F4" cx="573.3" cy="363" r="5.1"/>
		<g>
			<rect x="572.6" y="359.7" fill="#3F3F3F" width="1.5" height="6.6"/>
			<rect x="570" y="362.2" fill="#3F3F3F" width="6.6" height="1.5"/>
		</g>
	</g>
	<g filter="url(#ds1)">
		<circle fill="#3F3F3F" cx="557.9" cy="347.6" r="3.7"/>
		<rect x="555.4" y="346.9" fill="#FFFFFF" width="4.9" height="1.4"/>
	</g>
	<g filter="url(#ds1)">
		<circle fill="#3F3F3F" cx="567.5" cy="349.8" r="3.7"/>
		<rect x="565.1" y="349.1" fill="#FFFFFF" width="4.9" height="1.4"/>
	</g>
</g>
<g opacity="0.45" filter="url(#ds1)">
	<circle fill="#F49F38" cx="437" cy="399.2" r="6.8"/>
	<circle fill="none" stroke="#C66320" stroke-width="1.4874" stroke-miterlimit="10" cx="437" cy="399.2" r="6.8"/>
</g>
<g opacity="0.45" filter="url(#ds1)">
	<path fill="#D0D2D3" stroke="#929497" stroke-width="1.3289" stroke-linejoin="round" stroke-miterlimit="10" d="M541.7,221.5
		l-2.9-8.9c-0.5-1.7,0.1-3.5,1.5-4.5l7.5-5.5c1.4-1,3.3-1,4.7,0l7.5,5.5c1.4,1,2,2.8,1.5,4.5l-2.9,8.9c-0.5,1.7-2.1,2.8-3.8,2.8
		h-9.3C543.8,224.3,542.2,223.2,541.7,221.5z"/>
	<path fill="#C99BD3" stroke="#9E6AA5" stroke-width="1.5" stroke-miterlimit="10" d="M547.2,197.6c0-0.1,0-0.1,0-0.2
		c-0.1-1,0.1-1.9-0.2-2.9c-0.2-1-0.6-1.9-1.3-2.6c-2-2-5.2-2-7.2,0c-1.2,1.2-1.9,2.6-3.3,3.7c-0.7,0.6-1.5,1-2.1,1.6
		c-2,2-2,5.2,0,7.2c1.8,1.8,4.2,1.1,6.4,1.6c1.2,0.3,2.1,0.7,3.4,0.6c1.3-0.1,2.4-0.7,3.3-1.6c1.3-1.3,1.9-3.3,1.5-5.1
		C547.6,199.2,547.3,198.5,547.2,197.6z"/>
</g>
<g>
	<g filter="url(#ds1)">
		<path fill="#D0D2D3" d="M522.6,194.6c-0.1-1.6-1.3-3.6-2.8-4.4l-6.7-3.4c-1.5-0.8-3.8-0.6-5.2,0.3l-6.3,4.1
			c-1.4,0.9-2.5,3-2.5,4.6l0,6.7c0,0.8-0.1,2.7-0.1,2.7s-1.4,1.9-2,2.5l-6.2,6.7c-1.1,1.2-1.4,3.4-0.6,4.8l4.5,8
			c0.8,1.4,2.8,2.4,4.4,2l9-1.8c1.6-0.3,3.1-1.9,3.3-3.6l1.1-9.1c0.2-1.6,0.4-3,0.4-3s1.1-0.7,2.5-1.6l5.3-3.4
			c1.4-0.9,2.5-3,2.4-4.6L522.6,194.6z"/>
		<path fill="none" stroke="#929497" stroke-width="1.4546" stroke-linejoin="round" stroke-miterlimit="10" d="M522.6,194.6
			c-0.1-1.6-1.3-3.6-2.8-4.4l-6.7-3.4c-1.5-0.8-3.8-0.6-5.2,0.3l-6.3,4.1c-1.4,0.9-2.5,3-2.5,4.6l0,6.7c0,0.8-0.1,2.7-0.1,2.7
			s-1.4,1.9-2,2.5l-6.2,6.7c-1.1,1.2-1.4,3.4-0.6,4.8l4.5,8c0.8,1.4,2.8,2.4,4.4,2l9-1.8c1.6-0.3,3.1-1.9,3.3-3.6l1.1-9.1
			c0.2-1.6,0.4-3,0.4-3s1.1-0.7,2.5-1.6l5.3-3.4c1.4-0.9,2.5-3,2.4-4.6L522.6,194.6z"/>
	</g>
	<g filter="url(#ds1)">
		<circle fill="#F4F4F4" cx="496.8" cy="192.2" r="5.1"/>
		<g>
			<rect x="496.1" y="188.9" fill="#3F3F3F" width="1.5" height="6.6"/>
			<rect x="493.5" y="191.4" fill="#3F3F3F" width="6.6" height="1.5"/>
		</g>
	</g>
	<g filter="url(#ds1)">
		<circle fill="#F4F4F4" cx="519.6" cy="218" r="5.1"/>
		<g>
			<rect x="518.9" y="214.7" fill="#3F3F3F" width="1.5" height="6.6"/>
			<rect x="516.3" y="217.2" fill="#3F3F3F" width="6.6" height="1.5"/>
		</g>
	</g>
	<g filter="url(#ds1)">
		<circle fill="#3F3F3F" cx="504.1" cy="202.5" r="3.7"/>
		<rect x="501.7" y="201.9" fill="#FFFFFF" width="4.9" height="1.4"/>
	</g>
	<g filter="url(#ds1)">
		<circle fill="#3F3F3F" cx="513.8" cy="204.7" r="3.7"/>
		<rect x="511.4" y="204" fill="#FFFFFF" width="4.9" height="1.4"/>
	</g>
</g>
<g>
	<g>
		<g opacity="0.5">
			<path fill="none" stroke="#000000" stroke-width="2" stroke-linecap="round" stroke-miterlimit="10" d="M886.4,321.5
				c0,6.1-5,11.1-11.1,11.1h-68.5c-6.1,0-11.1-5-11.1-11.1"/>
		</g>
		<g>
			<path fill="none" stroke="#FFFFFF" stroke-width="2" stroke-linecap="round" stroke-miterlimit="10" d="M885.4,320.5
				c0,6.1-5,11.1-11.1,11.1h-68.5c-6.1,0-11.1-5-11.1-11.1"/>
		</g>
	</g>
	<g>
		<g opacity="0.5">
			<rect x="831.6" y="332.6" width="18.9" height="12.1"/>
		</g>
		<g>
			<rect x="830.6" y="331.6" fill="#FFFFFF" width="18.9" height="12.1"/>
		</g>
	</g>
	<g>
		<g>
			<path fill="#6D6E70" d="M835,338.8h0.6l0.9-1.3l-0.8-1.2H835v-0.8h1.3l0.6,1c0,0.1,0.1,0.1,0.1,0.2c0,0,0,0.1,0,0.1h0
				c0,0,0-0.1,0-0.1l0.1-0.2l0.6-1h1.2v0.8h-0.6l-0.8,1.2l0.9,1.3h0.5v0.8h-1.1l-0.7-1.1l-0.1-0.2c0,0,0-0.1,0-0.1h0
				c0,0,0,0.1,0,0.1c0,0.1-0.1,0.1-0.1,0.2l-0.7,1.1H835V338.8z"/>
			<path fill="#6D6E70" d="M839.8,337.6c0-2,1.1-4,3.3-4c0.4,0,0.8,0.1,1,0.1c0.2,0,0.3,0.1,0.4,0.2l-0.4,1.1
				c-0.1,0-0.2-0.1-0.3-0.1c-0.2-0.1-0.4-0.1-0.7-0.1c-1.1,0-1.7,0.9-1.9,1.9h0c0.3-0.3,0.8-0.5,1.4-0.5c1.4,0,2.3,1.1,2.3,2.3
				c0,1.3-1,2.4-2.4,2.4C841.1,340.9,839.8,339.7,839.8,337.6z M842.6,339.8c0.7,0,1.1-0.5,1.1-1.3c0-0.7-0.4-1.3-1.4-1.3
				c-0.6,0-1.1,0.4-1.1,0.9C841.2,338.9,841.8,339.8,842.6,339.8z"/>
		</g>
	</g>
</g>
<g>
	<g filter="url(#ds1)">
		<path fill="#D0D2D3" d="M833.2,284.7c-0.1-1.6-1.3-3.6-2.8-4.4l-6.7-3.4c-1.5-0.8-3.8-0.6-5.2,0.3l-6.3,4.1
			c-1.4,0.9-2.5,3-2.5,4.6l0,6.7c0,0.8-0.1,2.7-0.1,2.7s-1.4,1.9-2,2.5l-6.2,6.7c-1.1,1.2-1.4,3.4-0.6,4.8l4.5,8
			c0.8,1.4,2.8,2.4,4.4,2l9-1.8c1.6-0.3,3.1-1.9,3.3-3.6l1.1-9.1c0.2-1.6,0.4-3,0.4-3s1.1-0.7,2.5-1.6l5.3-3.4
			c1.4-0.9,2.5-3,2.4-4.6L833.2,284.7z"/>
		<path fill="none" stroke="#929497" stroke-width="1.4546" stroke-linejoin="round" stroke-miterlimit="10" d="M833.2,284.7
			c-0.1-1.6-1.3-3.6-2.8-4.4l-6.7-3.4c-1.5-0.8-3.8-0.6-5.2,0.3l-6.3,4.1c-1.4,0.9-2.5,3-2.5,4.6l0,6.7c0,0.8-0.1,2.7-0.1,2.7
			s-1.4,1.9-2,2.5l-6.2,6.7c-1.1,1.2-1.4,3.4-0.6,4.8l4.5,8c0.8,1.4,2.8,2.4,4.4,2l9-1.8c1.6-0.3,3.1-1.9,3.3-3.6l1.1-9.1
			c0.2-1.6,0.4-3,0.4-3s1.1-0.7,2.5-1.6l5.3-3.4c1.4-0.9,2.5-3,2.4-4.6L833.2,284.7z"/>
	</g>
	<g filter="url(#ds1)">
		<circle fill="#F4F4F4" cx="807.3" cy="282.2" r="5.1"/>
		<g>
			<rect x="806.6" y="278.9" fill="#3F3F3F" width="1.5" height="6.6"/>
			<rect x="804" y="281.5" fill="#3F3F3F" width="6.6" height="1.5"/>
		</g>
	</g>
	<g filter="url(#ds1)">
		<circle fill="#F4F4F4" cx="830.1" cy="308" r="5.1"/>
		<g>
			<rect x="829.4" y="304.7" fill="#3F3F3F" width="1.5" height="6.6"/>
			<rect x="826.8" y="307.3" fill="#3F3F3F" width="6.6" height="1.5"/>
		</g>
	</g>
	<g filter="url(#ds1)">
		<circle fill="#3F3F3F" cx="814.7" cy="292.6" r="3.7"/>
		<rect x="812.2" y="291.9" fill="#FFFFFF" width="4.9" height="1.4"/>
	</g>
	<g filter="url(#ds1)">
		<circle fill="#3F3F3F" cx="824.3" cy="294.8" r="3.7"/>
		<rect x="821.9" y="294.1" fill="#FFFFFF" width="4.9" height="1.4"/>
	</g>
</g>
<g>
	<g filter="url(#ds1)">
		<path fill="#D0D2D3" d="M863.9,306.4l-5.8,4.5c-1.4,0.9-2.3,2.9-1.9,4.6l1,5c0.3,1.6,1.9,3.5,3.4,4.1l6.1,2.6
			c1.5,0.6,3.9,0.4,5.3-0.5l4.3-2.8c1.4-0.9,2.3-2.9,1.9-4.6c0,0-0.7-7.4-0.7-7.6s5.9-4.8,5.9-4.8c1.4-0.9,2.3-2.9,1.9-4.6l-0.7-7.7
			l5.9-4.7c1.4-0.9,2.3-2.9,1.9-4.6l-1-5c-0.3-1.6-1.9-3.5-3.4-4.1l-6.1-2.6c-1.5-0.6-3.9-0.4-5.3,0.5l-4.3,2.8
			c-1.4,0.9-2.3,2.9-1.9,4.6l0.7,7.6l-5.9,4.8c-1.4,0.9-2.3,2.9-1.9,4.6L863.9,306.4z"/>
		<path fill="none" stroke="#929497" stroke-width="1.4546" stroke-linejoin="round" stroke-miterlimit="10" d="M863.9,306.4
			l-5.8,4.5c-1.4,0.9-2.3,2.9-1.9,4.6l1,5c0.3,1.6,1.9,3.5,3.4,4.1l6.1,2.6c1.5,0.6,3.9,0.4,5.3-0.5l4.3-2.8
			c1.4-0.9,2.3-2.9,1.9-4.6c0,0-0.7-7.4-0.7-7.6s5.9-4.8,5.9-4.8c1.4-0.9,2.3-2.9,1.9-4.6l-0.7-7.7l5.9-4.7c1.4-0.9,2.3-2.9,1.9-4.6
			l-1-5c-0.3-1.6-1.9-3.5-3.4-4.1l-6.1-2.6c-1.5-0.6-3.9-0.4-5.3,0.5l-4.3,2.8c-1.4,0.9-2.3,2.9-1.9,4.6l0.7,7.6l-5.9,4.8
			c-1.4,0.9-2.3,2.9-1.9,4.6L863.9,306.4z"/>
	</g>
	<g filter="url(#ds1)">
		<circle fill="#F4F4F4" cx="851.1" cy="311.3" r="5.1"/>
		<g>
			<rect x="850.4" y="308" fill="#3F3F3F" width="1.5" height="6.6"/>
			<rect x="847.8" y="310.6" fill="#3F3F3F" width="6.6" height="1.5"/>
		</g>
	</g>
	<g filter="url(#ds1)">
		<circle fill="#F4F4F4" cx="890.2" cy="308.4" r="5.1"/>
		<g>
			<rect x="889.4" y="305.1" fill="#3F3F3F" width="1.5" height="6.6"/>
			<rect x="886.9" y="307.7" fill="#3F3F3F" width="6.6" height="1.5"/>
		</g>
	</g>
	<g filter="url(#ds1)">
		<circle fill="#3F3F3F" cx="880" cy="303.1" r="3.7"/>
		<rect x="877.5" y="302.4" fill="#FFFFFF" width="4.9" height="1.4"/>
	</g>
	<g filter="url(#ds1)">
		<circle fill="#3F3F3F" cx="862.4" cy="315.9" r="3.7"/>
		<rect x="860" y="315.2" fill="#FFFFFF" width="4.9" height="1.4"/>
	</g>
</g>
<g>
	<g filter="url(#ds1)">
		<path fill="#D0D2D3" d="M319.1,379.2c-0.1-1.6-1.3-3.6-2.8-4.4l-6.7-3.4c-1.5-0.8-3.8-0.6-5.2,0.3l-6.3,4.1
			c-1.4,0.9-2.5,3-2.5,4.6l0,6.7c0,0.8-0.1,2.7-0.1,2.7s-1.4,1.9-2,2.5l-6.2,6.7c-1.1,1.2-1.4,3.4-0.6,4.8l4.5,8
			c0.8,1.4,2.8,2.4,4.4,2l9-1.8c1.6-0.3,3.1-1.9,3.3-3.6l1.1-9.1c0.2-1.6,0.4-3,0.4-3s1.1-0.7,2.5-1.6l5.3-3.4
			c1.4-0.9,2.5-3,2.4-4.6L319.1,379.2z"/>
		<path fill="none" stroke="#929497" stroke-width="1.4546" stroke-linejoin="round" stroke-miterlimit="10" d="M319.1,379.2
			c-0.1-1.6-1.3-3.6-2.8-4.4l-6.7-3.4c-1.5-0.8-3.8-0.6-5.2,0.3l-6.3,4.1c-1.4,0.9-2.5,3-2.5,4.6l0,6.7c0,0.8-0.1,2.7-0.1,2.7
			s-1.4,1.9-2,2.5l-6.2,6.7c-1.1,1.2-1.4,3.4-0.6,4.8l4.5,8c0.8,1.4,2.8,2.4,4.4,2l9-1.8c1.6-0.3,3.1-1.9,3.3-3.6l1.1-9.1
			c0.2-1.6,0.4-3,0.4-3s1.1-0.7,2.5-1.6l5.3-3.4c1.4-0.9,2.5-3,2.4-4.6L319.1,379.2z"/>
	</g>
	<g filter="url(#ds1)">
		<circle fill="#F4F4F4" cx="293.2" cy="376.7" r="5.1"/>
		<g>
			<rect x="292.5" y="373.4" fill="#3F3F3F" width="1.5" height="6.6"/>
			<rect x="289.9" y="376" fill="#3F3F3F" width="6.6" height="1.5"/>
		</g>
	</g>
	<g filter="url(#ds1)">
		<circle fill="#F4F4F4" cx="316" cy="402.5" r="5.1"/>
		<g>
			<rect x="315.3" y="399.2" fill="#3F3F3F" width="1.5" height="6.6"/>
			<rect x="312.7" y="401.8" fill="#3F3F3F" width="6.6" height="1.5"/>
		</g>
	</g>
	<g filter="url(#ds1)">
		<circle fill="#3F3F3F" cx="300.6" cy="387.1" r="3.7"/>
		<rect x="298.1" y="386.4" fill="#FFFFFF" width="4.9" height="1.4"/>
	</g>
	<g filter="url(#ds1)">
		<circle fill="#3F3F3F" cx="310.2" cy="389.3" r="3.7"/>
		<rect x="307.8" y="388.6" fill="#FFFFFF" width="4.9" height="1.4"/>
	</g>
</g>
<g>
	<g filter="url(#ds1)">
		<path fill="#D0D2D3" d="M349.8,395.2l-5.8,4.5c-1.4,0.9-2.3,2.9-1.9,4.6l1,5c0.3,1.6,1.9,3.5,3.4,4.1l6.1,2.6
			c1.5,0.6,3.9,0.4,5.3-0.5l4.3-2.8c1.4-0.9,2.3-2.9,1.9-4.6c0,0-0.7-7.4-0.7-7.6c0-0.2,5.9-4.8,5.9-4.8c1.4-0.9,2.3-2.9,1.9-4.6
			l-0.7-7.7l5.9-4.7c1.4-0.9,2.3-2.9,1.9-4.6l-1-5c-0.3-1.6-1.9-3.5-3.4-4.1l-6.1-2.6c-1.5-0.6-3.9-0.4-5.3,0.5l-4.3,2.8
			c-1.4,0.9-2.3,2.9-1.9,4.6l0.7,7.6l-5.9,4.8c-1.4,0.9-2.3,2.9-1.9,4.6L349.8,395.2z"/>
		<path fill="none" stroke="#929497" stroke-width="1.4546" stroke-linejoin="round" stroke-miterlimit="10" d="M349.8,395.2
			l-5.8,4.5c-1.4,0.9-2.3,2.9-1.9,4.6l1,5c0.3,1.6,1.9,3.5,3.4,4.1l6.1,2.6c1.5,0.6,3.9,0.4,5.3-0.5l4.3-2.8
			c1.4-0.9,2.3-2.9,1.9-4.6c0,0-0.7-7.4-0.7-7.6c0-0.2,5.9-4.8,5.9-4.8c1.4-0.9,2.3-2.9,1.9-4.6l-0.7-7.7l5.9-4.7
			c1.4-0.9,2.3-2.9,1.9-4.6l-1-5c-0.3-1.6-1.9-3.5-3.4-4.1l-6.1-2.6c-1.5-0.6-3.9-0.4-5.3,0.5l-4.3,2.8c-1.4,0.9-2.3,2.9-1.9,4.6
			l0.7,7.6l-5.9,4.8c-1.4,0.9-2.3,2.9-1.9,4.6L349.8,395.2z"/>
	</g>
	<g filter="url(#ds1)">
		<circle fill="#F4F4F4" cx="337" cy="400.1" r="5.1"/>
		<g>
			<rect x="336.3" y="396.8" fill="#3F3F3F" width="1.5" height="6.6"/>
			<rect x="333.7" y="399.3" fill="#3F3F3F" width="6.6" height="1.5"/>
		</g>
	</g>
	<g filter="url(#ds1)">
		<circle fill="#F4F4F4" cx="376.1" cy="397.2" r="5.1"/>
		<g>
			<rect x="375.4" y="393.9" fill="#3F3F3F" width="1.5" height="6.6"/>
			<rect x="372.8" y="396.4" fill="#3F3F3F" width="6.6" height="1.5"/>
		</g>
	</g>
	<g filter="url(#ds1)">
		<circle fill="#3F3F3F" cx="365.9" cy="391.9" r="3.7"/>
		<rect x="363.4" y="391.2" fill="#FFFFFF" width="4.9" height="1.4"/>
	</g>
	<g filter="url(#ds1)">
		<circle fill="#3F3F3F" cx="348.3" cy="404.6" r="3.7"/>
		<rect x="345.9" y="403.9" fill="#FFFFFF" width="4.9" height="1.4"/>
	</g>
</g>
<g opacity="0.45">
	<circle fill="#6D6E70" cx="393.5" cy="523" r="29.4"/>
	<g>
		<g>
			<path fill="#E8E8E8" d="M379.1,507.2c0.9,0,2.8,0.3,2.8,1.4v1h-1.2V509c0-0.5-0.9-0.7-1.5-0.7c-1.4,0-2.4,1-2.4,2.5
				c0,1.6,1,2.6,2.4,2.6c0.4,0,1.5-0.1,1.5-0.7v-0.5h1.2v1c0,1.1-1.8,1.4-2.8,1.4c-2.2,0-3.7-1.6-3.7-3.7
				C375.5,508.7,377.1,507.2,379.1,507.2z"/>
			<path fill="#E8E8E8" d="M383,513.4h0.8v-5.1H383v-1h3v1h-0.9v5.1h0.9v1h-3V513.4z"/>
			<path fill="#E8E8E8" d="M388.4,513.4h0.8v-5.1h-1.3v1.1h-1.1v-2.1h6.2v2.1h-1.1v-1.1h-1.3v5.1h0.9v1h-3V513.4z"/>
			<path fill="#E8E8E8" d="M393.8,513.4h0.8v-5.1h-0.8v-1h3.1c0.5,0,0.9,0,1.3,0.2c0.8,0.3,1.3,0.9,1.3,1.9s-0.5,1.7-1.3,2v0
				l0.1,0.1c0.1,0.1,0.2,0.2,0.2,0.3l0.8,1.5c0.1,0.2,0.2,0.2,0.5,0.2h0.2v1h-0.8c-0.6,0-0.8-0.1-1-0.5l-1-1.8
				c-0.2-0.3-0.3-0.4-0.7-0.4h-0.7v1.7h0.8v1h-3V513.4z M397.1,510.6c0.7,0,1.1-0.4,1.1-1.2c0-0.5-0.2-0.8-0.6-1
				c-0.2-0.1-0.5-0.1-0.8-0.1h-1v2.3H397.1z"/>
			<path fill="#E8E8E8" d="M400.9,513.4h0.8v-5.1h-0.8v-1h3v1h-0.9v5.1h0.9v1h-3V513.4z"/>
			<path fill="#E8E8E8" d="M408.6,507.2c0.9,0,2.8,0.3,2.8,1.4v1h-1.2V509c0-0.5-0.9-0.7-1.5-0.7c-1.4,0-2.4,1-2.4,2.5
				c0,1.6,1,2.6,2.4,2.6c0.4,0,1.5-0.1,1.5-0.7v-0.5h1.2v1c0,1.1-1.8,1.4-2.8,1.4c-2.2,0-3.7-1.6-3.7-3.7
				C404.9,508.7,406.5,507.2,408.6,507.2z"/>
			<path fill="#E8E8E8" d="M380.4,525.4h0.6l2.1-6.1h1.5l2.1,6.1h0.6v1h-2.7v-1h0.7l-0.4-1.3h-2.2l-0.4,1.3h0.7v1h-2.7V525.4z
				 M384.7,523.1l-0.7-2l-0.1-0.4c0-0.1,0-0.1,0-0.2h0l0,0.2c0,0.1,0,0.2-0.1,0.4l-0.7,2H384.7z"/>
			<path fill="#E8E8E8" d="M391.5,519.2c0.9,0,2.8,0.3,2.8,1.4v1h-1.2V521c0-0.5-0.9-0.7-1.5-0.7c-1.4,0-2.4,1-2.4,2.5
				c0,1.6,1,2.6,2.4,2.6c0.4,0,1.5-0.1,1.5-0.7v-0.5h1.2v1c0,1.1-1.8,1.4-2.8,1.4c-2.2,0-3.7-1.6-3.7-3.7
				C387.8,520.7,389.4,519.2,391.5,519.2z"/>
			<path fill="#E8E8E8" d="M395.4,525.4h0.8v-5.1h-0.8v-1h3v1h-0.9v5.1h0.9v1h-3V525.4z"/>
			<path fill="#E8E8E8" d="M399.4,525.4h0.8v-5.1h-0.8v-1h3.1c0.6,0,1,0,1.5,0.2c1.4,0.4,2.3,1.6,2.3,3.4c0,1.7-0.8,2.9-2.2,3.3
				c-0.5,0.2-1,0.2-1.6,0.2h-3.1V525.4z M402.4,525.3c0.5,0,0.8,0,1.2-0.2c0.8-0.3,1.3-1.2,1.3-2.3c0-1.2-0.5-2-1.4-2.3
				c-0.4-0.2-0.7-0.2-1.1-0.2h-0.9v5H402.4z"/>
			<path fill="#E8E8E8" d="M380.6,531.2c0.9,0,2.8,0.3,2.8,1.4v1h-1.2V533c0-0.5-0.9-0.7-1.5-0.7c-1.4,0-2.4,1-2.4,2.5
				c0,1.6,1,2.6,2.4,2.6c0.4,0,1.5-0.1,1.5-0.7v-0.5h1.2v1c0,1.1-1.8,1.4-2.8,1.4c-2.2,0-3.7-1.6-3.7-3.7
				C377,532.7,378.6,531.2,380.6,531.2z"/>
			<path fill="#E8E8E8" d="M385.8,537.4h0.9v-2l-1.9-3.1h-0.7v-1h2.6v1H386l1.1,1.9c0.1,0.1,0.1,0.2,0.1,0.2c0,0,0,0.1,0,0.1h0
				c0,0,0-0.1,0-0.1c0-0.1,0.1-0.1,0.1-0.2l1.1-1.9h-0.7v-1h2.6v1h-0.6l-1.9,3.1v2h0.8v1h-3V537.4z"/>
			<path fill="#E8E8E8" d="M394.5,531.2c0.9,0,2.8,0.3,2.8,1.4v1h-1.2V533c0-0.5-0.9-0.7-1.5-0.7c-1.4,0-2.4,1-2.4,2.5
				c0,1.6,1,2.6,2.4,2.6c0.4,0,1.5-0.1,1.5-0.7v-0.5h1.2v1c0,1.1-1.8,1.4-2.8,1.4c-2.2,0-3.7-1.6-3.7-3.7
				C390.8,532.7,392.4,531.2,394.5,531.2z"/>
			<path fill="#E8E8E8" d="M398.4,537.4h0.8v-5.1h-0.8v-1h3v1h-0.9v5h2.1v-1.1h1.1v2.1h-5.4V537.4z"/>
			<path fill="#E8E8E8" d="M404.5,537.4h0.8v-5.1h-0.8v-1h5.3v1.8h-1.1v-0.8h-2v1.9h2.3v1.1h-2.3v2h2.1v-0.8h1.1v1.8h-5.4V537.4z"/>
		</g>
	</g>
	<circle fill="#6D6E70" cx="437" cy="478.5" r="19"/>
	<circle fill="#6D6E70" cx="437" cy="565.5" r="19"/>
	<circle fill="#6D6E70" cx="350" cy="565.5" r="19"/>
	<circle fill="#6D6E70" cx="350" cy="478.5" r="19"/>
	<g>
		<g>
			<path fill="#E8E8E8" d="M434.7,481.6h1.9v-4.8c0-0.1,0-0.3,0-0.4v-0.2h0l-0.1,0.1c-0.1,0.1-0.1,0.2-0.3,0.3l-0.7,0.6l-0.9-1
				l2.1-2.1h1.4v7.3h1.8v1.3h-5.2V481.6z"/>
		</g>
	</g>
	<g>
		<g>
			<path fill="#E8E8E8" d="M434.2,569.6c0-0.3-0.1-0.5-0.1-0.8c0-3.1,4.1-3.5,4.1-5.3c0-0.8-0.6-1.2-1.3-1.2c-0.5,0-0.9,0.3-1.2,0.5
				c-0.2,0.2-0.3,0.3-0.4,0.5l-1.1-0.7c0.2-0.3,0.4-0.6,0.6-0.9c0.5-0.4,1.2-0.9,2.2-0.9c1.5,0,2.8,0.9,2.8,2.5c0,2.7-3.9,3.1-4,4.9
				h2.9v-1.1h1.3v2.3H434.2z"/>
		</g>
	</g>
	<g>
		<g>
			<path fill="#E8E8E8" d="M346.6,479.7l3.7-5.4h1.8v5.1h1.1v1.2h-1.1v2.2h-1.5v-2.2h-4V479.7z M348.2,479.4L348.2,479.4l2.4,0v-2.8
				c0-0.2,0-0.3,0-0.5l0-0.3h0l-0.1,0.2c-0.1,0.1-0.1,0.3-0.2,0.4L348.2,479.4z"/>
		</g>
	</g>
	<g>
		<g>
			<path fill="#E8E8E8" d="M347.2,561h5.4v1.1l-2,2.4c1.1,0.2,2.2,0.9,2.2,2.4c0,1.5-1.1,2.8-3,2.8c-0.9,0-1.6-0.3-2.1-0.6
				c-0.3-0.2-0.5-0.4-0.7-0.6l0.8-1.1c0.2,0.2,0.3,0.3,0.6,0.4c0.3,0.2,0.8,0.4,1.4,0.4c0.9,0,1.5-0.6,1.5-1.4
				c0-0.9-0.7-1.3-1.7-1.3c-0.2,0-0.4,0-0.5,0l-0.3-0.8l1.8-2.3c0.1-0.1,0.2-0.2,0.2-0.2l0.1-0.1v0c-0.1,0-0.1,0-0.2,0
				c-0.1,0-0.2,0-0.3,0h-1.9v1h-1.3V561z"/>
		</g>
	</g>
</g>
<g>
	<g filter="url(#ds1)">
		<path fill="#D0D2D3" d="M323.4,599.7c-0.1-1.6-1.3-3.6-2.8-4.4l-6.7-3.4c-1.5-0.8-3.8-0.6-5.2,0.3l-6.3,4.1
			c-1.4,0.9-2.5,3-2.5,4.6l0,6.7c0,0.8-0.1,2.7-0.1,2.7s-1.4,1.9-2,2.5l-6.2,6.7c-1.1,1.2-1.4,3.4-0.6,4.8l4.5,8
			c0.8,1.4,2.8,2.4,4.4,2l9-1.8c1.6-0.3,3.1-1.9,3.3-3.6l1.1-9.1c0.2-1.6,0.4-3,0.4-3s1.1-0.7,2.5-1.6l5.3-3.4
			c1.4-0.9,2.5-3,2.4-4.6L323.4,599.7z"/>
		<path fill="none" stroke="#929497" stroke-width="1.4546" stroke-linejoin="round" stroke-miterlimit="10" d="M323.4,599.7
			c-0.1-1.6-1.3-3.6-2.8-4.4l-6.7-3.4c-1.5-0.8-3.8-0.6-5.2,0.3l-6.3,4.1c-1.4,0.9-2.5,3-2.5,4.6l0,6.7c0,0.8-0.1,2.7-0.1,2.7
			s-1.4,1.9-2,2.5l-6.2,6.7c-1.1,1.2-1.4,3.4-0.6,4.8l4.5,8c0.8,1.4,2.8,2.4,4.4,2l9-1.8c1.6-0.3,3.1-1.9,3.3-3.6l1.1-9.1
			c0.2-1.6,0.4-3,0.4-3s1.1-0.7,2.5-1.6l5.3-3.4c1.4-0.9,2.5-3,2.4-4.6L323.4,599.7z"/>
	</g>
	<g filter="url(#ds1)">
		<circle fill="#F4F4F4" cx="297.6" cy="597.3" r="5.1"/>
		<g>
			<rect x="296.8" y="594" fill="#3F3F3F" width="1.5" height="6.6"/>
			<rect x="294.3" y="596.5" fill="#3F3F3F" width="6.6" height="1.5"/>
		</g>
	</g>
	<g filter="url(#ds1)">
		<circle fill="#F4F4F4" cx="320.4" cy="623" r="5.1"/>
		<g>
			<rect x="319.6" y="619.7" fill="#3F3F3F" width="1.5" height="6.6"/>
			<rect x="317.1" y="622.3" fill="#3F3F3F" width="6.6" height="1.5"/>
		</g>
	</g>
	<g filter="url(#ds1)">
		<circle fill="#3F3F3F" cx="304.9" cy="607.6" r="3.7"/>
		<rect x="302.5" y="606.9" fill="#FFFFFF" width="4.9" height="1.4"/>
	</g>
	<g filter="url(#ds1)">
		<circle fill="#3F3F3F" cx="314.6" cy="609.8" r="3.7"/>
		<rect x="312.2" y="609.1" fill="#FFFFFF" width="4.9" height="1.4"/>
	</g>
</g>
<g opacity="0.45" filter="url(#ds1)">
	<circle fill="#D0D2D3" cx="358.7" cy="623.3" r="6.8"/>
	
		<circle fill="none" stroke="#929497" stroke-width="1.3289" stroke-linejoin="round" stroke-miterlimit="10" cx="358.7" cy="623.3" r="6.8"/>
</g>
<g>
	<g filter="url(#ds1)">
		<path fill="#D0D2D3" d="M507,600.3c-0.1-1.6-1.3-3.6-2.8-4.4l-6.7-3.4c-1.5-0.8-3.8-0.6-5.2,0.3l-6.3,4.1c-1.4,0.9-2.5,3-2.5,4.6
			l0,6.7c0,0.8-0.1,2.7-0.1,2.7s-1.4,1.9-2,2.5l-6.2,6.7c-1.1,1.2-1.4,3.4-0.6,4.8l4.5,8c0.8,1.4,2.8,2.4,4.4,2l9-1.8
			c1.6-0.3,3.1-1.9,3.3-3.6l1.1-9.1c0.2-1.6,0.4-3,0.4-3s1.1-0.7,2.5-1.6l5.3-3.4c1.4-0.9,2.5-3,2.4-4.6L507,600.3z"/>
		<path fill="none" stroke="#929497" stroke-width="1.4546" stroke-linejoin="round" stroke-miterlimit="10" d="M507,600.3
			c-0.1-1.6-1.3-3.6-2.8-4.4l-6.7-3.4c-1.5-0.8-3.8-0.6-5.2,0.3l-6.3,4.1c-1.4,0.9-2.5,3-2.5,4.6l0,6.7c0,0.8-0.1,2.7-0.1,2.7
			s-1.4,1.9-2,2.5l-6.2,6.7c-1.1,1.2-1.4,3.4-0.6,4.8l4.5,8c0.8,1.4,2.8,2.4,4.4,2l9-1.8c1.6-0.3,3.1-1.9,3.3-3.6l1.1-9.1
			c0.2-1.6,0.4-3,0.4-3s1.1-0.7,2.5-1.6l5.3-3.4c1.4-0.9,2.5-3,2.4-4.6L507,600.3z"/>
	</g>
	<g filter="url(#ds1)">
		<circle fill="#F4F4F4" cx="481.1" cy="597.9" r="5.1"/>
		<g>
			<rect x="480.4" y="594.6" fill="#3F3F3F" width="1.5" height="6.6"/>
			<rect x="477.8" y="597.2" fill="#3F3F3F" width="6.6" height="1.5"/>
		</g>
	</g>
	<g filter="url(#ds1)">
		<circle fill="#F4F4F4" cx="503.9" cy="623.7" r="5.1"/>
		<g>
			<rect x="503.2" y="620.4" fill="#3F3F3F" width="1.5" height="6.6"/>
			<rect x="500.6" y="622.9" fill="#3F3F3F" width="6.6" height="1.5"/>
		</g>
	</g>
	<g filter="url(#ds1)">
		<circle fill="#3F3F3F" cx="488.5" cy="608.3" r="3.7"/>
		<rect x="486" y="607.6" fill="#FFFFFF" width="4.9" height="1.4"/>
	</g>
	<g filter="url(#ds1)">
		<circle fill="#3F3F3F" cx="498.1" cy="610.5" r="3.7"/>
		<rect x="495.7" y="609.8" fill="#FFFFFF" width="4.9" height="1.4"/>
	</g>
</g>
<g opacity="0.45" filter="url(#ds1)">
	<circle fill="#D0D2D3" cx="438.1" cy="621.9" r="6.8"/>
	
		<circle fill="none" stroke="#929497" stroke-width="1.3289" stroke-linejoin="round" stroke-miterlimit="10" cx="438.1" cy="621.9" r="6.8"/>
</g>
<g>
	<g>
		<g opacity="0.5">
			<path fill="none" stroke="#000000" stroke-width="2" stroke-linecap="round" stroke-miterlimit="10" d="M510.9,630.8
				c0,6.1-5,11.1-11.1,11.1h-18.3c-6.1,0-11.1-5-11.1-11.1"/>
		</g>
		<g>
			<path fill="none" stroke="#FFFFFF" stroke-width="2" stroke-linecap="round" stroke-miterlimit="10" d="M509.9,629.8
				c0,6.1-5,11.1-11.1,11.1h-18.3c-6.1,0-11.1-5-11.1-11.1"/>
		</g>
	</g>
	<g>
		<g opacity="0.5">
			<rect x="481.3" y="641.8" width="18.9" height="12.1"/>
		</g>
		<g>
			<rect x="480.3" y="640.8" fill="#FFFFFF" width="18.9" height="12.1"/>
		</g>
	</g>
	<g>
		<g>
			<path fill="#6D6E70" d="M485,648h0.6l0.9-1.3l-0.8-1.2H485v-0.8h1.3l0.6,1c0,0.1,0.1,0.1,0.1,0.2c0,0,0,0.1,0,0.1h0
				c0,0,0-0.1,0-0.1l0.1-0.2l0.6-1h1.2v0.8h-0.6l-0.8,1.2l0.9,1.3h0.5v0.8h-1.1l-0.7-1.1l-0.1-0.2c0,0,0-0.1,0-0.1h0
				c0,0,0,0.1,0,0.1c0,0.1-0.1,0.1-0.1,0.2l-0.7,1.1H485V648z"/>
			<path fill="#6D6E70" d="M493,644.4c0.1-0.1,0.1-0.2,0.2-0.3l0.1-0.1v0c0,0-0.1,0-0.1,0c-0.1,0-0.2,0-0.3,0h-2v0.8h-1.1V643h5v0.9
				l-3.1,6.2h-1.3L493,644.4z"/>
		</g>
	</g>
</g>
<g opacity="0.45">
	<g>
		<g opacity="0.5">
			<path fill="none" stroke="#000000" stroke-width="2" stroke-linecap="round" stroke-miterlimit="10" d="M459.8,624.4
				c0,6.1-5,11.1-11.1,11.1h-18.3c-6.1,0-11.1-5-11.1-11.1"/>
		</g>
		<g>
			<path fill="none" stroke="#FFFFFF" stroke-width="2" stroke-linecap="round" stroke-miterlimit="10" d="M458.8,623.4
				c0,6.1-5,11.1-11.1,11.1h-18.3c-6.1,0-11.1-5-11.1-11.1"/>
		</g>
	</g>
	<g>
		<g opacity="0.5">
			<rect x="430.1" y="635.5" width="18.9" height="12.1"/>
		</g>
		<g>
			<rect x="429.1" y="634.5" fill="#FFFFFF" width="18.9" height="12.1"/>
		</g>
	</g>
	<g>
		<g>
			<path fill="#6D6E70" d="M433.8,641.7h0.6l0.9-1.3l-0.8-1.2h-0.6v-0.8h1.3l0.6,1c0,0.1,0.1,0.1,0.1,0.2c0,0,0,0.1,0,0.1h0
				c0,0,0-0.1,0-0.1l0.1-0.2l0.6-1h1.2v0.8h-0.6l-0.8,1.2l0.9,1.3h0.5v0.8h-1.1l-0.7-1.1l-0.1-0.2c0,0,0-0.1,0-0.1h0
				c0,0,0,0.1,0,0.1c0,0.1-0.1,0.1-0.1,0.2l-0.7,1.1h-1.2V641.7z"/>
			<path fill="#6D6E70" d="M441.9,638c0.1-0.1,0.1-0.2,0.2-0.3l0.1-0.1v0c0,0-0.1,0-0.1,0c-0.1,0-0.2,0-0.3,0h-2v0.8h-1.1v-1.9h5
				v0.9l-3.1,6.2H439L441.9,638z"/>
		</g>
	</g>
</g>
<g opacity="0.45">
	<g>
		<g opacity="0.5">
			<path fill="none" stroke="#000000" stroke-width="2" stroke-linecap="round" stroke-miterlimit="10" d="M349.9,321.4
				c0,6.1-5,11.1-11.1,11.1h-18.3c-6.1,0-11.1-5-11.1-11.1"/>
		</g>
		<g>
			<path fill="none" stroke="#FFFFFF" stroke-width="2" stroke-linecap="round" stroke-miterlimit="10" d="M348.9,320.4
				c0,6.1-5,11.1-11.1,11.1h-18.3c-6.1,0-11.1-5-11.1-11.1"/>
		</g>
	</g>
	<g>
		<g opacity="0.5">
			<rect x="320.2" y="332.5" width="18.9" height="12.1"/>
		</g>
		<g>
			<rect x="319.2" y="331.5" fill="#FFFFFF" width="18.9" height="12.1"/>
		</g>
	</g>
	<g>
		<g>
			<path fill="#6D6E70" d="M323.9,338.7h0.6l0.9-1.3l-0.8-1.2h-0.6v-0.8h1.3l0.6,1c0,0.1,0.1,0.1,0.1,0.2c0,0,0,0.1,0,0.1h0
				c0,0,0-0.1,0-0.1l0.1-0.2l0.6-1h1.2v0.8h-0.6l-0.8,1.2l0.9,1.3h0.5v0.8h-1.1l-0.7-1.1l-0.1-0.2c0,0,0-0.1,0-0.1h0
				c0,0,0,0.1,0,0.1c0,0.1-0.1,0.1-0.1,0.2l-0.7,1.1h-1.2V338.7z"/>
			<path fill="#6D6E70" d="M331.9,335.1c0.1-0.1,0.1-0.2,0.2-0.3l0.1-0.1v0c0,0-0.1,0-0.1,0c-0.1,0-0.2,0-0.3,0h-2v0.8h-1.1v-1.9h5
				v0.9l-3.1,6.2h-1.3L331.9,335.1z"/>
		</g>
	</g>
</g>
<g opacity="0.45" filter="url(#ds1)">
	<path fill="#D0D2D3" d="M492.9,446.4l37.9-1.4c3.1-0.1,5.6,2.4,5.6,5.4v7.7c0,3.3-2.8,5.8-6.1,5.4l-40.2-4.6
		c-0.7-0.1-1.3-0.7-1.3-1.4v-7.1C489,448.3,490.7,446.5,492.9,446.4z"/>
	<path fill="none" stroke="#929497" stroke-width="1.5" stroke-linejoin="round" stroke-miterlimit="10" d="M492.9,446.4l37.9-1.4
		c3.1-0.1,5.6,2.4,5.6,5.4v7.7c0,3.3-2.8,5.8-6.1,5.4l-40.2-4.6c-0.7-0.1-1.3-0.7-1.3-1.4v-7.1C489,448.3,490.7,446.5,492.9,446.4z"
		/>
</g>
<g opacity="0.45">
	<g>
		<g opacity="0.5">
			<path fill="none" stroke="#000000" stroke-width="2" stroke-linecap="round" stroke-miterlimit="10" d="M548.2,458.8
				c0,6.1-5,11.1-11.1,11.1h-45.5c-6.1,0-11.1-5-11.1-11.1"/>
		</g>
		<g>
			<path fill="none" stroke="#FFFFFF" stroke-width="2" stroke-linecap="round" stroke-miterlimit="10" d="M547.2,457.8
				c0,6.1-5,11.1-11.1,11.1h-45.5c-6.1,0-11.1-5-11.1-11.1"/>
		</g>
	</g>
	<g>
		<g opacity="0.5">
			<rect x="504.9" y="469.9" width="18.9" height="12.1"/>
		</g>
		<g>
			<rect x="503.9" y="468.9" fill="#FFFFFF" width="18.9" height="12.1"/>
		</g>
	</g>
	<g>
		<g>
			<path fill="#6D6E70" d="M508.5,476h0.6l0.9-1.3l-0.8-1.2h-0.6v-0.8h1.3l0.6,1c0,0.1,0.1,0.1,0.1,0.2c0,0,0,0.1,0,0.1h0
				c0,0,0-0.1,0-0.1l0.1-0.2l0.6-1h1.2v0.8H512l-0.8,1.2l0.9,1.3h0.5v0.8h-1.1l-0.7-1.1l-0.1-0.2c0,0,0-0.1,0-0.1h0c0,0,0,0.1,0,0.1
				c0,0.1-0.1,0.1-0.1,0.2l-0.7,1.1h-1.2V476z"/>
			<path fill="#6D6E70" d="M516.6,472.4c0.1-0.1,0.1-0.2,0.2-0.3l0.1-0.1v0c0,0-0.1,0-0.1,0c-0.1,0-0.2,0-0.3,0h-2v0.8h-1.1V471h5
				v0.9l-3.1,6.2h-1.3L516.6,472.4z"/>
		</g>
	</g>
</g>
<g>
	<g>
		<g opacity="0.5">
			<path fill="none" stroke="#000000" stroke-width="2" stroke-linecap="round" stroke-miterlimit="10" d="M328.4,630.3
				c0,6.1-5,11.1-11.1,11.1h-18.3c-6.1,0-11.1-5-11.1-11.1"/>
		</g>
		<g>
			<path fill="none" stroke="#FFFFFF" stroke-width="2" stroke-linecap="round" stroke-miterlimit="10" d="M327.4,629.3
				c0,6.1-5,11.1-11.1,11.1h-18.3c-6.1,0-11.1-5-11.1-11.1"/>
		</g>
	</g>
	<g>
		<g opacity="0.5">
			<rect x="298.7" y="641.4" width="18.9" height="12.1"/>
		</g>
		<g>
			<rect x="297.7" y="640.4" fill="#FFFFFF" width="18.9" height="12.1"/>
		</g>
	</g>
	<g>
		<g>
			<path fill="#6D6E70" d="M302.4,647.5h0.6l0.9-1.3l-0.8-1.2h-0.6v-0.8h1.3l0.6,1c0,0.1,0.1,0.1,0.1,0.2c0,0,0,0.1,0,0.1h0
				c0,0,0-0.1,0-0.1l0.1-0.2l0.6-1h1.2v0.8h-0.6l-0.8,1.2l0.9,1.3h0.5v0.8h-1.1l-0.7-1.1l-0.1-0.2c0,0,0-0.1,0-0.1h0
				c0,0,0,0.1,0,0.1c0,0.1-0.1,0.1-0.1,0.2l-0.7,1.1h-1.2V647.5z"/>
			<path fill="#6D6E70" d="M310.5,643.9c0.1-0.1,0.1-0.2,0.2-0.3l0.1-0.1v0c0,0-0.1,0-0.1,0c-0.1,0-0.2,0-0.3,0h-2v0.8h-1.1v-1.9h5
				v0.9l-3.1,6.2h-1.3L310.5,643.9z"/>
		</g>
	</g>
</g>
<g opacity="0.45">
	<g>
		<g opacity="0.5">
			<path fill="none" stroke="#000000" stroke-width="2" stroke-linecap="round" stroke-miterlimit="10" d="M379.9,626
				c0,6.1-5,11.1-11.1,11.1h-18.3c-6.1,0-11.1-5-11.1-11.1"/>
		</g>
		<g>
			<path fill="none" stroke="#FFFFFF" stroke-width="2" stroke-linecap="round" stroke-miterlimit="10" d="M378.9,625
				c0,6.1-5,11.1-11.1,11.1h-18.3c-6.1,0-11.1-5-11.1-11.1"/>
		</g>
	</g>
	<g>
		<g opacity="0.5">
			<rect x="350.3" y="637.1" width="18.9" height="12.1"/>
		</g>
		<g>
			<rect x="349.3" y="636.1" fill="#FFFFFF" width="18.9" height="12.1"/>
		</g>
	</g>
	<g>
		<g>
			<path fill="#6D6E70" d="M354,643.3h0.6l0.9-1.3l-0.8-1.2H354v-0.8h1.3l0.6,1c0,0.1,0.1,0.1,0.1,0.2c0,0,0,0.1,0,0.1h0
				c0,0,0-0.1,0-0.1l0.1-0.2l0.6-1h1.2v0.8h-0.6l-0.8,1.2l0.9,1.3h0.5v0.8h-1.1l-0.7-1.1l-0.1-0.2c0,0,0-0.1,0-0.1h0
				c0,0,0,0.1,0,0.1c0,0.1-0.1,0.1-0.1,0.2l-0.7,1.1H354V643.3z"/>
			<path fill="#6D6E70" d="M362,639.6c0.1-0.1,0.1-0.2,0.2-0.3l0.1-0.1v0c0,0-0.1,0-0.1,0c-0.1,0-0.2,0-0.3,0h-2v0.8h-1.1v-1.9h5
				v0.9l-3.1,6.2h-1.3L362,639.6z"/>
		</g>
	</g>
</g>
<g>
	<g>
		<g opacity="0.5">
			<path fill="none" stroke="#000000" stroke-width="2" stroke-linecap="round" stroke-miterlimit="10" d="M383.8,412
				c0,6.1-5,11.1-11.1,11.1h-88.5c-6.1,0-11.1-5-11.1-11.1"/>
		</g>
		<g>
			<path fill="none" stroke="#FFFFFF" stroke-width="2" stroke-linecap="round" stroke-miterlimit="10" d="M382.8,411
				c0,6.1-5,11.1-11.1,11.1h-88.5c-6.1,0-11.1-5-11.1-11.1"/>
		</g>
	</g>
	<g>
		<g opacity="0.5">
			<rect x="319" y="423" width="18.9" height="12.1"/>
		</g>
		<g>
			<rect x="318" y="422" fill="#FFFFFF" width="18.9" height="12.1"/>
		</g>
	</g>
	<g>
		<g>
			<path fill="#6D6E70" d="M322.6,429.2h0.6l0.9-1.3l-0.8-1.2h-0.6v-0.8h1.3l0.6,1c0,0.1,0.1,0.1,0.1,0.2c0,0,0,0.1,0,0.1h0
				c0,0,0-0.1,0-0.1l0.1-0.2l0.6-1h1.2v0.8h-0.6l-0.8,1.2l0.9,1.3h0.5v0.8h-1.1l-0.7-1.1l-0.1-0.2c0,0,0-0.1,0-0.1h0
				c0,0,0,0.1,0,0.1c0,0.1-0.1,0.1-0.1,0.2l-0.7,1.1h-1.2V429.2z"/>
			<path fill="#6D6E70" d="M330.7,425.6c0.1-0.1,0.1-0.2,0.2-0.3l0.1-0.1v0c0,0-0.1,0-0.1,0c-0.1,0-0.2,0-0.3,0h-2v0.8h-1.1v-1.9h5
				v0.9l-3.1,6.2h-1.3L330.7,425.6z"/>
		</g>
	</g>
</g>
</svg>
