<?xml version="1.0" encoding="utf-8"?>
<svg id="vm-ui" xmlns="http://www.w3.org/2000/svg" xmlns:xlink="http://www.w3.org/1999/xlink" x="0px" y="0px" viewBox="0 0 2560 1440">
<style type="text/css">
	.st0{fill:url(#SVGID_1_);}
	.st1{opacity:0.15;fill:#E26F54;}
	.st2{fill:none;stroke:#E85C51;stroke-width:4;stroke-miterlimit:10;}
	.st3{fill:#E85C51;}
	.st4{fill:#FFC224;stroke:#E85C51;stroke-width:3;stroke-linecap:round;stroke-miterlimit:10;}
	.st5{fill:none;stroke:#E85C51;stroke-width:3;stroke-linecap:round;stroke-linejoin:round;stroke-miterlimit:10;}
	.st6{fill:#FFC224;}
	.st7{fill:none;stroke:#E85C51;stroke-width:3;stroke-linejoin:round;stroke-miterlimit:10;}
	.st8{fill:none;}
	.st9{fill:#FFC224;stroke:#E85C51;stroke-width:3;stroke-linecap:round;stroke-linejoin:round;stroke-miterlimit:10;}
	.icon{transition:transform 0.5s;}
  .iconLabel{opacity:0;transition:opacity 0.5s;}
	.iconLabel text{fill:#E85C51;font-family:courier;font-size:17px;font-weight:600;letter-spacing:2px;}
	.boxLabel{fill:#E85C51;font-family:courier;font-size:38px;letter-spacing:3px;}
	#selection-arrow{transition:transform 0.3s;}
  .hit{cursor:pointer;opacity:0;}
  .visible{opacity:1;}
</style>
<defs>
  <filter id="big-lens-blur">
    <feGaussianBlur stdDeviation="5"/>
  </filter>
	<filter id="small-lens-blur">
    <feGaussianBlur stdDeviation="3"/>
  </filter>
  <mask id="big-lens-mask1">
    <ellipse cx="854px" cy="718px" rx="645" ry="645" fill="white" filter="url(#big-lens-blur)"></ellipse>
  </mask>
	<mask id="big-lens-mask2">
    <ellipse cx="854px" cy="718px" rx="645" ry="645" fill="white" filter="url(#big-lens-blur)"></ellipse>
  </mask>
	<mask id="small-lens-mask1">
    <ellipse cx="182px" cy="182px" rx="150" ry="150" fill="white" filter="url(#small-lens-blur)"></ellipse>
  </mask>
	<mask id="small-lens-mask2">
    <ellipse cx="182px" cy="182px" rx="150" ry="150" fill="white" filter="url(#small-lens-blur)"></ellipse>
  </mask>

	<filter id="displacementFilter">
	  <feTurbulence type="turbulence" baseFrequency="0.05" numOctaves="2" result="turbulence"/>
		<feImage xlink:href="images/displacement.jpg" result="tester" x="0" y="0" width="128" height="128" />
	  <feDisplacementMap in2="displacement" in="SourceGraphic" scale="50" xChannelSelector="R" yChannelSelector="G"/>
	</filter>

	<filter id="big-lens-fx" style="color-interpolation-filters:sRGB" >
    <feColorMatrix in="SourceGraphic" values="1 0 0 0 0 0 0 0 0 0 0 0 0 0 0 0 0 0 1 0 " result="rChannel"/>
    <feColorMatrix in="SourceGraphic" values="0 0 0 0 0 0 1 0 0 0 0 0 0 0 0 0 0 0 1 0 " result="gChannel"/>
    <feColorMatrix in="SourceGraphic" values="0 0 0 0 0 0 0 0 0 0 0 0 1 0 0 0 0 0 1 0 " result="bChannel"/>

		<feImage xlink:href="images/displacement.jpg" result="displacement" x="165" y="30" width="1380" height="1380" />
		<feDisplacementMap in2="displacement" in="rChannel" result="dRChannel" scale="-25" xChannelSelector="R" yChannelSelector="G"/>
		<feDisplacementMap in2="displacement" in="bChannel" result="dBChannel" scale="40" xChannelSelector="R" yChannelSelector="G"/>

    <feBlend mode="screen" in="dRChannel" in2="gChannel" result="rg"/>
    <feBlend mode="screen" in="rg" in2="dBChannel"/>
  </filter>

	<filter id="small-lens-fx" style="color-interpolation-filters:sRGB">
    <feColorMatrix in="SourceGraphic" values="1 0 0 0 0 0 0 0 0 0 0 0 0 0 0 0 0 0 1 0 " result="s-rChannel"/>
    <feColorMatrix in="SourceGraphic" values="0 0 0 0 0 0 1 0 0 0 0 0 0 0 0 0 0 0 1 0 " result="s-gChannel"/>
    <feColorMatrix in="SourceGraphic" values="0 0 0 0 0 0 0 0 0 0 0 0 1 0 0 0 0 0 1 0 " result="s-bChannel"/>

		<feImage xlink:href="images/displacement.jpg" result="s-displacement" x="16" y="16" width="334" height="334" />
		<feDisplacementMap in2="s-displacement" in="s-rChannel" result="s-dRChannel" scale="-15" xChannelSelector="R" yChannelSelector="G"/>
		<feDisplacementMap in2="s-displacement" in="s-bChannel" result="s-dBChannel" scale="24" xChannelSelector="R" yChannelSelector="G"/>

    <feBlend mode="screen" in="s-dRChannel" in2="s-gChannel" result="s-rg"/>
    <feBlend mode="screen" in="s-rg" in2="s-dBChannel"/>
  </filter>

</defs>
<linearGradient id="SVGID_1_" gradientUnits="userSpaceOnUse" x1="1279.9773" y1="-9.094947e-13" x2="1279.9773" y2="1440.0062">
	<stop  offset="3.611790e-04" style="stop-color:#1E202A"/>
	<stop  offset="1" style="stop-color:#16161E"/>
</linearGradient>
<rect class="st0" width="2560" height="1440"/>
<!-- <path class="st0" d="M0,0v1440h2560V0H0z M852.6,1372.8c-360.5,0-652.8-292.3-652.8-652.8c0-360.5,292.3-652.8,652.8-652.8
	s652.8,292.3,652.8,652.8C1505.4,1080.5,1213.2,1372.8,852.6,1372.8z"/> -->
<g id="magnification-box">
	<path class="st1" d="M1718,111.3v49.3h801v-49.3c0-8.3-6.7-15-15-15h-771C1724.8,96.3,1718,103,1718,111.3z"/>
	<path class="st2" d="M1734.3,96.3c-8.9,0-16.3,7.3-16.3,16.3v202.5c0,9,7.3,16.3,16.3,16.3h768.5c8.9,0,16.3-7.3,16.3-16.3V112.6
		c0-9-7.3-16.3-16.3-16.3H1734.3L1734.3,96.3z"/>
	<line class="st2" x1="1718" y1="160.1" x2="2519" y2="160.1"/>
	<path id="selection-arrow" class="st3" d="M1749.3,329.6l-8.4-14.8c-0.5-0.8-1.6-0.8-2.1,0l-8.4,14.8c-0.5,0.8,0.1,1.8,1,1.8h16.9
		C1749.2,331.4,1749.8,330.4,1749.3,329.6z"/>
	<text id="magnification-label" x="1720" y="140" class="boxLabel">MAGNIFICATION</text>
</g>
<g id="atom-label" class="iconLabel">
	<text x="1551" y="72" class="boxLabel">&nbsp;&nbsp;&nbsp;ATOM&nbsp;&nbsp;&nbsp;</text>
	<path class="st2" d="M1663.4,83.4h-103.5c-8.3,0-15-6.7-15-15V52h133.5v16.5C1678.4,76.7,1671.7,83.4,1663.4,83.4z"/>
</g>
<g id="atom-icon">
	<circle class="st4" cx="1485" cy="95.2" r="17.1"/>
	<circle class="st5" cx="1485" cy="95.2" r="47.1"/>
	<circle class="st4" cx="1451.7" cy="61.9" r="7.8"/>
</g>
<rect id="atom-hit" class="hit" width="150" height="168"/>
<g id="molecule-label" class="iconLabel">
	<text x="1551" y="72" class="boxLabel">&nbsp;MOLECULE&nbsp;</text>
	<path class="st2" d="M1663.5,83.4H1560c-8.3,0-15-6.7-15-15V52h133.5v16.5C1678.5,76.7,1671.8,83.4,1663.5,83.4z"/>
</g>
<g id="molecule-icon">
	<g>
		<circle class="st4" cx="1485" cy="84.8" r="18.3"/>
		<circle class="st4" cx="1485" cy="126.6" r="11"/>
		<circle class="st4" cx="1521.1" cy="63.9" r="11"/>
		<circle class="st4" cx="1448.8" cy="63.9" r="11"/>
		<line class="st5" x1="1485" y1="103" x2="1485" y2="115.6"/>
		<line class="st5" x1="1500.8" y1="75.6" x2="1511.6" y2="69.4"/>
		<line class="st5" x1="1469.1" y1="75.6" x2="1458.3" y2="69.4"/>
	</g>
</g>
<rect id="molecule-hit" class="hit" width="150" height="168"/>
<g id="protein-label" class="iconLabel">
	<text x="1557" y="72" class="boxLabel">&nbsp;PROTEIN&nbsp;</text>
	<path class="st2" d="M1663.4,83.4h-103.5c-8.3,0-15-6.7-15-15V52h133.5v16.5C1678.4,76.7,1671.7,83.4,1663.4,83.4z"/>
</g>
<g id="protein-icon">
	<circle class="st4" cx="1507.9" cy="118.2" r="17"/>
	<circle class="st4" cx="1485" cy="95.2" r="26.1"/>
	<path class="st4" d="M1467.3,88.4c-1.7,0.6-3.5,0.9-5.4,0.9c-9.4,0-17-7.6-17-17s7.6-17,17-17s17,7.6,17,17c0,2.1-0.4,4-1,5.9"/>
</g>
<rect id="protein-hit" class="hit" width="150" height="168"/>
<g id="cell-label" class="iconLabel">
	<text x="1551" y="72" class="boxLabel">&nbsp;&nbsp;&nbsp;CELL&nbsp;&nbsp;&nbsp;</text>
	<path class="st2" d="M1663.4,83.4h-103.5c-8.3,0-15-6.7-15-15V52h133.5v16.5C1678.4,76.7,1671.7,83.4,1663.4,83.4z"/>
</g>
<g id="cell-icon">
	<g>
		<path class="st6" d="M1485,142.2c-8.1,0-14.3-7.1-20.8-10.9c-6.7-3.9-16-5.9-19.9-12.6c-3.8-6.5-1-15.4-1-23.5s-2.8-17,1-23.5
			c3.9-6.7,13.2-8.7,19.9-12.6c6.5-3.8,12.8-10.9,20.8-10.9c8.1,0,14.3,7.1,20.8,10.9c6.7,3.9,16,5.9,19.9,12.6
			c3.8,6.5,1,15.4,1,23.5s2.8,17-1,23.5c-3.9,6.7-13.2,8.7-19.9,12.6C1499.3,135.1,1493,142.2,1485,142.2z"/>
		<path class="st2" d="M1485,142.2c-8.1,0-14.3-7.1-20.8-10.9c-6.7-3.9-16-5.9-19.9-12.6c-3.8-6.5-1-15.4-1-23.5s-2.8-17,1-23.5
			c3.9-6.7,13.2-8.7,19.9-12.6c6.5-3.8,12.8-10.9,20.8-10.9c8.1,0,14.3,7.1,20.8,10.9c6.7,3.9,16,5.9,19.9,12.6
			c3.8,6.5,1,15.4,1,23.5s2.8,17-1,23.5c-3.9,6.7-13.2,8.7-19.9,12.6C1499.3,135.1,1493,142.2,1485,142.2z"/>
	</g>
	<circle class="st3" cx="1485" cy="95.2" r="17.1"/>
</g>
<rect id="cell-hit" class="hit" width="150" height="168"/>
<g id="tissue-label" class="iconLabel">
	<text x="1551" y="72" class="boxLabel">&nbsp;&nbsp;TISSUE&nbsp;&nbsp;</text>
	<path class="st2" d="M1663.4,83.4h-103.5c-8.3,0-15-6.7-15-15V52h133.5v16.5C1678.4,76.7,1671.7,83.4,1663.4,83.4z"/>
</g>
<g id="tissue-icon">
	<path class="st6" d="M1438.1,95.1C1438.1,95.2,1438.1,95.2,1438.1,95.1c0,26,21,47,46.9,47s46.9-21,46.9-46.9c0,0,0,0,0-0.1
		C1531.9,95.1,1438.1,95.1,1438.1,95.1z"/>
	<path class="st3" d="M1488,117.9L1488,117.9c0-1.1-0.6-2.1-1.5-2.6l0,0c-0.9-0.5-2.1-0.5-3,0l0,0c-0.9,0.5-1.5,1.5-1.5,2.6l0,0
		c0,1.1,0.6,2.1,1.5,2.6l0,0c0.9,0.5,2.1,0.5,3,0l0,0C1487.5,119.9,1488,118.9,1488,117.9z"/>
	<path class="st3" d="M1512,117.9L1512,117.9c0-1.1-0.6-2.1-1.5-2.6l0,0c-0.9-0.5-2.1-0.5-3,0l0,0c-0.9,0.5-1.5,1.5-1.5,2.6l0,0
		c0,1.1,0.6,2.1,1.5,2.6l0,0c0.9,0.5,2.1,0.5,3,0l0,0C1511.4,119.9,1512,118.9,1512,117.9z"/>
	<path class="st3" d="M1464.1,117.9L1464.1,117.9c0-1.1-0.6-2.1-1.5-2.6l0,0c-0.9-0.5-2.1-0.5-3,0l0,0c-0.9,0.5-1.5,1.5-1.5,2.6l0,0
		c0,1.1,0.6,2.1,1.5,2.6l0,0c0.9,0.5,2.1,0.5,3,0l0,0C1463.5,119.9,1464.1,118.9,1464.1,117.9z"/>
	<path class="st3" d="M1452.2,97.1L1452.2,97.1c0-1.1-0.6-2.1-1.5-2.6l0,0c-0.9-0.5-2.1-0.5-3,0l0,0c-0.9,0.5-1.5,1.5-1.5,2.6l0,0
		c0,1.1,0.6,2.1,1.5,2.6l0,0c0.9,0.5,2.1,0.5,3,0l0,0C1451.6,99.2,1452.2,98.2,1452.2,97.1z"/>
	<path class="st3" d="M1476.1,97.1L1476.1,97.1c0-1.1-0.6-2.1-1.5-2.6l0,0c-0.9-0.5-2.1-0.5-3,0l0,0c-0.9,0.5-1.5,1.5-1.5,2.6l0,0
		c0,1.1,0.6,2.1,1.5,2.6l0,0c0.9,0.5,2.1,0.5,3,0l0,0C1475.5,99.2,1476.1,98.2,1476.1,97.1z"/>
	<path class="st3" d="M1500,97.1L1500,97.1c0-1.1-0.6-2.1-1.5-2.6l0,0c-0.9-0.5-2.1-0.5-3,0l0,0c-0.9,0.5-1.5,1.5-1.5,2.6l0,0
		c0,1.1,0.6,2.1,1.5,2.6l0,0c0.9,0.5,2.1,0.5,3,0l0,0C1499.4,99.2,1500,98.2,1500,97.1z"/>
	<path class="st3" d="M1523.9,97.1L1523.9,97.1c0-1.1-0.6-2.1-1.5-2.6l0,0c-0.9-0.5-2.1-0.5-3,0l0,0c-0.9,0.5-1.5,1.5-1.5,2.6l0,0
		c0,1.1,0.6,2.1,1.5,2.6l0,0c0.9,0.5,2.1,0.5,3,0l0,0C1523.4,99.2,1523.9,98.2,1523.9,97.1z"/>
	<path class="st3" d="M1476.1,138.6L1476.1,138.6c0-1.1-0.6-2.1-1.5-2.6l0,0c-0.9-0.5-2.1-0.5-3,0l0,0c-0.9,0.5-1.5,1.5-1.5,2.6l0,0
		c0,1.1,0.6,2.1,1.5,2.6l0,0c0.9,0.5,2.1,0.5,3,0l0,0C1475.5,140.6,1476.1,139.6,1476.1,138.6z"/>
	<path class="st3" d="M1500,138.6L1500,138.6c0-1.1-0.6-2.1-1.5-2.6l0,0c-0.9-0.5-2.1-0.5-3,0l0,0c-0.9,0.5-1.5,1.5-1.5,2.6l0,0
		c0,1.1,0.6,2.1,1.5,2.6l0,0c0.9,0.5,2.1,0.5,3,0l0,0C1499.4,140.6,1500,139.6,1500,138.6z"/>
	<path class="st3" d="M1485,141c0.5,0,1,0,1.5,0v-5.1c0-2,1.1-3.9,2.9-5l4.7-2.7c0.9-0.5,1.9-0.8,2.9-0.8s2,0.2,2.9,0.8l4.7,2.7
		c1.6,0.9,2.6,2.5,2.8,4.3c6-3.3,11.2-8,15.1-13.5c-0.1-0.3-0.1-0.7-0.1-1.1v-5.5c0-2,1.1-3.9,2.8-4.9c0,0,0,0,0.1,0l4-2.3
		c0.5-1.6,0.8-3.2,1.2-4.8c-0.5,0.7-1.1,1.3-1.8,1.8c0,0,0,0-0.1,0l-4.7,2.7c0,0,0,0-0.1,0c-1.7,1-3.9,1-5.6,0c0,0,0,0-0.1,0
		l-4.7-2.7c0,0,0,0-0.1,0c-1.7-1-2.8-2.9-2.8-4.9v-5h-3v5c0,2-1.1,3.9-2.8,4.9c0,0,0,0-0.1,0l-4.7,2.7c0,0,0,0-0.1,0
		c-1.7,1-3.9,1-5.6,0c0,0,0,0-0.1,0l-4.7-2.7c0,0,0,0-0.1,0c-1.7-1-2.8-2.9-2.8-4.9v-5h-3v5c0,2-1.1,3.9-2.8,4.9c0,0,0,0-0.1,0
		l-4.7,2.7c0,0,0,0-0.1,0c-1.7,1-3.9,1-5.6,0c0,0,0,0-0.1,0l-4.7-2.7l0,0c-1.7-1-2.8-2.9-2.8-4.9v-5h-3v5c0,2-1.1,3.9-2.8,4.9
		c0,0,0,0-0.1,0l-4.7,2.7c0,0,0,0-0.1,0c-1.7,1-3.9,1-5.6,0c0,0,0,0-0.1,0l-4.7-2.7c0,0,0,0-0.1,0c-0.8-0.5-1.4-1.1-1.9-1.9
		c0.3,1.7,0.7,3.3,1.2,4.9l4.1,2.3c0,0,0,0,0.1,0c1.7,1,2.8,2.9,2.8,4.9v5.5c0,0.4,0,0.8-0.1,1.1c4,5.5,9.2,10.2,15.1,13.5
		c0.2-1.8,1.2-3.4,2.8-4.3l4.7-2.7c0.9-0.5,1.9-0.8,2.9-0.8s2,0.2,2.9,0.8l4.7,2.7c1.8,1,2.9,2.9,2.9,5v5.1
		C1484,140.9,1484.5,141,1485,141z M1498.5,115.1c0-2,1.1-3.9,2.8-4.9c0,0,0,0,0.1,0l4.7-2.7c0,0,0,0,0.1,0c0.9-0.5,1.8-0.7,2.8-0.7
		s1.9,0.2,2.8,0.7c0,0,0,0,0.1,0l4.7,2.7c0,0,0,0,0.1,0c1.7,1,2.8,2.9,2.8,4.9v5.5c0,2-1.1,3.9-2.9,5l-4.7,2.7c-1.8,1-4,1-5.7,0
		l-4.7-2.7c-1.8-1-2.9-2.9-2.9-5L1498.5,115.1L1498.5,115.1z M1471.6,120.6c0,2-1.1,3.9-2.9,5l-4.7,2.7c-1.8,1-4,1-5.7,0l-4.7-2.7
		c-1.8-1-2.9-2.9-2.9-5v-5.5c0-2,1.1-3.9,2.8-4.9c0,0,0,0,0.1,0l4.7-2.7c0,0,0,0,0.1,0c0.9-0.5,1.8-0.7,2.8-0.7s1.9,0.2,2.8,0.7l0,0
		l4.7,2.7c0,0,0,0,0.1,0c1.7,1,2.8,2.9,2.8,4.9L1471.6,120.6L1471.6,120.6z M1482.2,128.3l-4.7-2.7c-1.8-1-2.9-2.9-2.9-5v-5.5
		c0-2,1.1-3.9,2.8-4.9c0,0,0,0,0.1,0l4.7-2.7c0,0,0,0,0.1,0c0.9-0.5,1.8-0.7,2.8-0.7s1.9,0.2,2.8,0.7c0,0,0,0,0.1,0l4.7,2.7
		c0,0,0,0,0.1,0c1.7,1,2.8,2.9,2.8,4.9v5.5c0,2-1.1,3.9-2.9,5l-4.7,2.7C1486.2,129.3,1484,129.3,1482.2,128.3z"/>
	<line class="st7" x1="1438" y1="95.2" x2="1532.1" y2="95.2"/>
	<circle class="st5" cx="1485" cy="95.2" r="46.9"/>
	<circle class="st8" cx="1485" cy="95.2" r="46.9"/>
</g>
<rect id="tissue-hit" class="hit" width="150" height="168"/>
<g id="organ-label" class="iconLabel">
	<text x="1557" y="72" class="boxLabel">&nbsp;&nbsp;ORGAN&nbsp;&nbsp;</text>
	<path class="st2" d="M1663.4,83.4h-103.5c-8.3,0-15-6.7-15-15V52h133.5v16.5C1678.4,76.7,1671.7,83.4,1663.4,83.4z"/>
</g>
<g id="organ-icon">
	<path class="st9" d="M1500.4,104.3c0,10.5-6.9,17.4-15.3,17.4c-8.4,0-15.3-7.2-15.3-17.4c0-13.8,4.4-24.9,15.3-35.8
		C1495.8,79.2,1500.4,90.7,1500.4,104.3z"/>
	<circle class="st5" cx="1485.1" cy="95.2" r="47"/>
	<line class="st5" x1="1485.1" y1="70.7" x2="1485.1" y2="142.2"/>
</g>
<rect id="organ-hit" class="hit" width="150" height="168"/>
<g id="organism-label" class="iconLabel">
	<text x="1551" y="72" class="boxLabel">&nbsp;&nbsp;SYSTEM&nbsp;&nbsp;</text>
	<path class="st2" d="M1663.4,83.4h-103.5c-8.3,0-15-6.7-15-15V52h133.5v16.5C1678.4,76.7,1671.7,83.4,1663.4,83.4z"/>
</g>
<g id="organism-icon">
	<path class="st3" d="M1484.9,46.6c-26.8,0-48.6,21.8-48.6,48.6s21.8,48.6,48.6,48.6c26.8,0,48.6-21.8,48.6-48.6
		S1511.7,46.6,1484.9,46.6z M1516,128.5c-8.3-6.9-18.7-10.9-29.6-11.2V96.6c6.7-0.7,13-3.7,17.8-8.5c5.1-5.1,8.2-11.9,8.6-19.1
		c0-0.4-0.1-0.9-0.4-1.1c-0.3-0.3-0.7-0.5-1.2-0.4c-6.6,0.4-12.9,3-17.8,7.4c-0.4-6.6-3-12.8-7.4-17.8c-0.6-0.6-1.7-0.6-2.2,0
		c-4.4,5-7,11.2-7.4,17.8c-4.9-4.4-11.2-7-17.8-7.4c-0.4,0-0.8,0.1-1.2,0.4c-0.3,0.3-0.5,0.7-0.4,1.1c0.5,7.2,3.5,14,8.6,19.1
		c4.8,4.8,11,7.8,17.8,8.5v20.7c-10.8,0.3-21.2,4.3-29.6,11.2c-8.9-8.3-14.5-20.2-14.5-33.3c0-25.1,20.5-45.6,45.6-45.6
		s45.6,20.5,45.6,45.6C1530.5,108.4,1524.9,120.2,1516,128.5z"/>
	<path class="st6" d="M1484.9,140.8c10.5,0,20.7-3.6,28.8-10.3c-8.1-6.6-18.3-10.3-28.8-10.3s-20.8,3.5-28.8,10.3
		C1464.2,137.2,1474.4,140.8,1484.9,140.8z"/>
	<path class="st6" d="M1484.9,92.9c3.6-4.7,5.6-10.4,5.6-16.3s-2-11.6-5.6-16.3c-3.6,4.7-5.6,10.4-5.6,16.3S1481.3,88.2,1484.9,92.9
		z"/>
	<path class="st6" d="M1475.6,78.1c-4.2-4.2-9.6-6.9-15.5-7.6c0.8,5.8,3.4,11.3,7.6,15.5c3.8,3.8,8.5,6.3,13.7,7.3
		c-2.9-4.2-4.6-9.1-5-14.3C1476.2,78.7,1475.9,78.4,1475.6,78.1z"/>
	<path class="st6" d="M1488.3,93.3c5.2-1,10-3.5,13.7-7.3c4.2-4.2,6.8-9.6,7.6-15.5c-5.8,0.8-11.3,3.4-15.5,7.6
		c-0.3,0.3-0.5,0.6-0.8,0.9C1492.9,84.1,1491.2,89,1488.3,93.3z"/>
</g>
<rect id="organism-hit" class="hit" width="150" height="168"/>
<g id="small-lens" style="filter:url(#small-lens-fx)">
	<image id="minimap" xlink:href="images/Human.jpg" x="22" y="22" width="320" height="320" mask="url(#small-lens-mask1)" />
</g>
<g id="big-lens" style="filter:url(#big-lens-fx)">
	<g mask="url(#big-lens-mask1)">
		<image id="bottom-slide" xlink:href="images/Human.jpg" x="200" y="65" width="1310" height="1310" mask="url(#big-lens-mask1)"/>
		<image id="top-slide" xlink:href="images/Resp_System.jpg" x="200" y="65" width="1310" height="1310" mask="url(#big-lens-mask2)" />
	</g>
</g>
</svg>
