<?xml version="1.0" encoding="utf-8"?>
<!-- Generator: Adobe Illustrator 18.1.1, SVG Export Plug-In . SVG Version: 6.00 Build 0)  -->
<!DOCTYPE svg PUBLIC "-//W3C//DTD SVG 1.1//EN" "http://www.w3.org/Graphics/SVG/1.1/DTD/svg11.dtd">
<svg version="1.1" id="Layer_1" xmlns="http://www.w3.org/2000/svg" xmlns:xlink="http://www.w3.org/1999/xlink" x="0px" y="0px"
	 viewBox="0 0 920 649.5" enable-background="new 0 0 920 649.5" xml:space="preserve">
<filter  width="170%" height="170%" y="-20%" x="-30%" id="ds1">
	<feOffset  in="SourceAlpha" dy="1" dx="0" result="offOut"></feOffset>
	<feGaussianBlur  in="offOut" stdDeviation="2" result="blurOut"></feGaussianBlur>
	<feComponentTransfer>
		<feFuncA  type="linear" slope="0.5"></feFuncA>
	</feComponentTransfer>
	<feMerge>
		<feMergeNode></feMergeNode>
		<feMergeNode  in="SourceGraphic"></feMergeNode>
	</feMerge>
</filter>
<g>
	<defs>
		<rect id="SVGID_32_" x="0" y="0" width="920" height="651"/>
	</defs>
	<clipPath id="SVGID_1_">
		<use xlink:href="#SVGID_32_"  overflow="visible"/>
	</clipPath>
	<g clip-path="url(#SVGID_1_)">
		<linearGradient id="SVGID_2_" gradientUnits="userSpaceOnUse" x1="465.6044" y1="656.2202" x2="454.7508" y2="331.6463">
			<stop  offset="0" style="stop-color:#D27979"/>
			<stop  offset="0.8835" style="stop-color:#A54654"/>
		</linearGradient>
		<rect x="0" y="326.2" fill="url(#SVGID_2_)" width="920" height="324.8"/>
	</g>
	<g clip-path="url(#SVGID_1_)">
		<g>
			<path fill="#FFFFFF" d="M31.8,360.3h2.1l-1.2,5.3h-2.7L31.8,360.3z M35.6,360.3h2.1l-1.2,5.3h-2.7L35.6,360.3z"/>
			<path fill="#FFFFFF" d="M42.8,371.6v1.2c0,1,1.3,1.7,2.8,1.7c1.6,0,2.8-0.7,2.8-2c0-1.6-1.8-2.2-3.7-2.9
				c-2.2-0.8-4.3-1.8-4.3-4.7c0-3.3,2.6-4.5,5.4-4.5c2.6,0,5.1,1,5.1,2.8v2.1h-2.7v-1.1c0-0.8-1.2-1.3-2.4-1.3
				c-1.3,0-2.4,0.5-2.4,1.8c0,1.5,1.5,2,3.2,2.6c2.4,0.8,4.8,1.8,4.8,4.9c0,3.3-2.8,4.8-5.8,4.8c-2.7,0-5.6-1.2-5.6-3.6v-1.8H42.8z"
				/>
			<path fill="#FFFFFF" d="M54.3,374.6h1.9v-11.7h-1.9v-2.3h6.9v2.3h-2v11.7h2v2.2h-6.9V374.6z"/>
			<path fill="#FFFFFF" d="M63.7,374.6h1.9l1-11.7h-2v-2.3h5.3l3.6,9.1c0.2,0.4,0.2,0.7,0.3,1l0.1,0.4h0l0.1-0.4
				c0.1-0.3,0.2-0.6,0.3-1l3.6-9.1h5.3v2.3h-1.9l0.9,11.7h1.9v2.2h-6.6v-2.2h1.8l-0.6-8.2c0-0.3,0-0.7,0-1l0-0.5h-0.1
				c0,0.2-0.1,0.3-0.1,0.5c-0.1,0.3-0.2,0.7-0.3,0.9l-3.1,7.5h-2.6l-3.1-7.5c-0.1-0.3-0.2-0.6-0.3-0.9c0-0.2-0.1-0.3-0.1-0.5h-0.1
				l0,0.5c0,0.3,0,0.7,0,1l-0.6,8.2h1.8v2.2h-6.7V374.6z"/>
			<path fill="#FFFFFF" d="M86.7,374.6h1.9v-11.7h-1.9v-2.3h7.8c1,0,1.9,0.1,2.7,0.4c1.8,0.7,2.9,2.5,2.9,4.8c0,2.3-1.2,4.3-3.1,4.9
				c-0.8,0.2-1.6,0.3-2.5,0.3h-2.9v3.5h2v2.2h-6.9V374.6z M94.1,368.7c0.7,0,1.2-0.1,1.6-0.3c0.9-0.4,1.3-1.3,1.3-2.5
				c0-1.1-0.4-2-1.2-2.4c-0.4-0.3-1-0.4-1.8-0.4h-2.5v5.7H94.1z"/>
			<path fill="#FFFFFF" d="M102.4,374.6h1.9V363h-1.9v-2.4h6.9v2.4h-2v11.4h4.8v-2.5h2.6v4.9h-12.3V374.6z"/>
			<path fill="#FFFFFF" d="M116.9,374.6h1.9v-11.7h-1.9v-2.3h12v4.2h-2.6V363h-4.5v4.4h5.3v2.4h-5.3v4.6h4.9v-1.8h2.6v4.2h-12.4
				V374.6z"/>
			<path fill="#FFFFFF" d="M133.1,360.3h2.7l-1.8,5.3h-2.1L133.1,360.3z M136.9,360.3h2.7l-1.8,5.3h-2.1L136.9,360.3z"/>
			<path fill="#FFFFFF" d="M32.9,398.9v1.2c0,1,1.3,1.7,2.8,1.7c1.6,0,2.8-0.7,2.8-2c0-1.6-1.8-2.2-3.7-2.9
				c-2.2-0.8-4.3-1.8-4.3-4.7c0-3.3,2.6-4.5,5.4-4.5c2.6,0,5.1,1,5.1,2.8v2.1h-2.7v-1.1c0-0.8-1.2-1.3-2.4-1.3
				c-1.3,0-2.4,0.5-2.4,1.8c0,1.5,1.5,2,3.2,2.6c2.4,0.8,4.8,1.8,4.8,4.9c0,3.3-2.8,4.8-5.8,4.8c-2.7,0-5.6-1.2-5.6-3.6v-1.8H32.9z"
				/>
			<path fill="#FFFFFF" d="M45.9,390.2H44V388h6.9v2.3h-2v7.8c0,0.9,0.2,1.7,0.5,2.3c0.6,0.9,1.7,1.4,3.1,1.4c1.4,0,2.4-0.5,3-1.5
				c0.4-0.6,0.5-1.4,0.5-2.3v-7.8h-1.9V388H61v2.3h-1.9v7.8c0,1.6-0.4,3-1.2,4.1c-1.2,1.6-3.2,2.3-5.4,2.3c-2.3,0-4.3-0.8-5.4-2.3
				c-0.8-1.1-1.2-2.4-1.2-4.1V390.2z"/>
			<path fill="#FFFFFF" d="M71.8,387.7c2.9,0,6.3,1.1,6.3,3.2v2.2h-2.7v-1.2c0-1.1-1.8-1.7-3.5-1.7c-3.4,0-5.6,2.2-5.6,5.6
				c0,3.5,2.1,6,5.7,6c1.3,0,3.7-0.3,3.7-1.7v-1.7h-2.9v-2.2h5.7v4.9c0,2.5-4.3,3.3-6.7,3.3c-5,0-8.5-3.6-8.5-8.4
				S66.8,387.7,71.8,387.7z"/>
			<path fill="#FFFFFF" d="M80.6,401.9h1.5l4.9-14h3.4l4.9,14h1.5v2.2h-6.1v-2.2h1.6l-1-3h-5.1l-1,3h1.6v2.2h-6.1V401.9z
				 M90.5,396.5L89,392l-0.3-1c0-0.2,0-0.3,0-0.4h-0.1l-0.1,0.4c-0.1,0.3-0.1,0.6-0.2,1l-1.6,4.6H90.5z"/>
			<path fill="#FFFFFF" d="M98.7,401.9h1.9v-11.7h-1.9V388h7.1c1.2,0,2.2,0.1,3.1,0.3c1.8,0.6,3,2.1,3,4.3c0,2.3-1.2,3.9-3.1,4.5v0
				l0.3,0.2c0.2,0.2,0.4,0.3,0.5,0.6l1.9,3.4c0.3,0.4,0.5,0.5,1.1,0.5h0.5v2.2h-1.9c-1.3,0-1.8-0.3-2.3-1.2l-2.3-4.2
				c-0.3-0.6-0.6-0.8-1.6-0.8h-1.5v4h1.9v2.2h-6.8V401.9z M106.3,395.5c1.6,0,2.6-0.9,2.6-2.7c0-1.1-0.4-1.9-1.3-2.2
				c-0.4-0.2-1-0.3-1.8-0.3h-2.2v5.2H106.3z"/>
			<path fill="#FFFFFF" d="M118.1,398.9v1.2c0,1,1.3,1.7,2.8,1.7c1.6,0,2.8-0.7,2.8-2c0-1.6-1.8-2.2-3.7-2.9
				c-2.2-0.8-4.3-1.8-4.3-4.7c0-3.3,2.6-4.5,5.4-4.5c2.6,0,5.1,1,5.1,2.8v2.1h-2.7v-1.1c0-0.8-1.2-1.3-2.4-1.3
				c-1.3,0-2.4,0.5-2.4,1.8c0,1.5,1.5,2,3.2,2.6c2.4,0.8,4.8,1.8,4.8,4.9c0,3.3-2.8,4.8-5.8,4.8c-2.7,0-5.6-1.2-5.6-3.6v-1.8H118.1z
				"/>
			<path fill="#FFFFFF" d="M135.9,401.9h1.9v-11.7h-1.9V388h6.9v2.3h-2v11.7h2v2.2h-6.9V401.9z"/>
			<path fill="#FFFFFF" d="M145.6,401.9h1.9v-11.7h-1.9V388h4.9l6.8,10.4c0.2,0.3,0.3,0.6,0.4,0.9l0.2,0.5h0.1l0-0.5
				c0-0.3,0-0.7,0-1v-8h-2V388h6.9v2.3h-1.9v13.9h-3l-6.8-10.4c-0.2-0.3-0.3-0.6-0.4-0.9l-0.2-0.5h-0.1l0.1,0.5c0,0.3,0.1,0.7,0,1v8
				h2v2.2h-6.9V401.9z"/>
			<path fill="#FFFFFF" d="M171.8,401.9h1.9v-11.7h-1.9V388h7.4c1.2,0,2.1,0.1,2.9,0.4c1.5,0.6,2.5,1.9,2.5,3.7c0,1.5-0.7,2.8-2,3.5
				v0c1.8,0.5,2.6,2.1,2.6,3.8c0,2.3-1.5,3.9-3.2,4.4c-0.8,0.3-1.5,0.3-2.4,0.3h-7.8V401.9z M179.5,394.6c1.3,0,2-0.9,2-2.1
				c0-0.8-0.3-1.5-0.9-1.8c-0.3-0.2-0.8-0.3-1.4-0.3h-2.5v4.2H179.5z M179.7,401.7c0.4,0,0.8,0,1.2-0.2c0.8-0.3,1.3-1.3,1.3-2.3
				c0-1.4-0.9-2.3-2.3-2.3h-3.1v4.8H179.7z"/>
			<path fill="#FFFFFF" d="M188,401.9h1.9v-11.6H188V388h6.9v2.4h-2v11.4h4.8v-2.5h2.6v4.9H188V401.9z"/>
			<path fill="#FFFFFF" d="M210.8,387.7c4.8,0,8.4,3.6,8.4,8.3c0,4.8-3.6,8.5-8.4,8.5s-8.4-3.7-8.4-8.5
				C202.4,391.3,206,387.7,210.8,387.7z M210.8,401.8c2.9,0,5.3-2.5,5.3-5.9c0-3.2-2.4-5.6-5.3-5.6s-5.3,2.4-5.3,5.6
				C205.5,399.3,207.9,401.8,210.8,401.8z"/>
			<path fill="#FFFFFF" d="M230,387.7c4.8,0,8.4,3.6,8.4,8.3c0,4.8-3.6,8.5-8.4,8.5c-4.8,0-8.4-3.7-8.4-8.5
				C221.7,391.3,225.3,387.7,230,387.7z M230,401.8c2.9,0,5.3-2.5,5.3-5.9c0-3.2-2.4-5.6-5.3-5.6s-5.3,2.4-5.3,5.6
				C224.7,399.3,227.1,401.8,230,401.8z"/>
			<path fill="#FFFFFF" d="M241.1,401.9h1.9v-11.7h-1.9V388h7c1.3,0,2.3,0,3.4,0.4c3.2,0.9,5.2,3.7,5.2,7.7c0,3.9-1.9,6.6-5,7.6
				c-1.1,0.4-2.2,0.5-3.6,0.5h-7V401.9z M248,401.7c1,0,1.8-0.1,2.6-0.4c1.8-0.8,3-2.6,3-5.3c0-2.8-1.2-4.6-3.1-5.3
				c-0.8-0.3-1.5-0.4-2.5-0.4h-2v11.4H248z"/>
			<path fill="#FFFFFF" d="M262.1,398.9v1.2c0,1,1.3,1.7,2.8,1.7c1.6,0,2.8-0.7,2.8-2c0-1.6-1.8-2.2-3.7-2.9
				c-2.2-0.8-4.3-1.8-4.3-4.7c0-3.3,2.6-4.5,5.4-4.5c2.6,0,5.1,1,5.1,2.8v2.1h-2.7v-1.1c0-0.8-1.2-1.3-2.4-1.3
				c-1.3,0-2.4,0.5-2.4,1.8c0,1.5,1.5,2,3.2,2.6c2.4,0.8,4.8,1.8,4.8,4.9c0,3.3-2.8,4.8-5.8,4.8c-2.7,0-5.6-1.2-5.6-3.6v-1.8H262.1z
				"/>
			<path fill="#FFFFFF" d="M276.7,401.9h1.9v-11.6h-3.1v2.4h-2.5V388h14.2v4.8h-2.5v-2.4h-3.1v11.6h2v2.2h-6.9V401.9z"/>
			<path fill="#FFFFFF" d="M289.6,401.9h1.9v-11.7h-1.9V388h7.1c1.2,0,2.2,0.1,3.1,0.3c1.8,0.6,3,2.1,3,4.3c0,2.3-1.2,3.9-3.1,4.5v0
				l0.3,0.2c0.2,0.2,0.4,0.3,0.5,0.6l1.9,3.4c0.3,0.4,0.5,0.5,1.1,0.5h0.5v2.2h-1.9c-1.3,0-1.8-0.3-2.3-1.2l-2.3-4.2
				c-0.3-0.6-0.6-0.8-1.6-0.8h-1.5v4h1.9v2.2h-6.8V401.9z M297.2,395.5c1.6,0,2.6-0.9,2.6-2.7c0-1.1-0.4-1.9-1.3-2.2
				c-0.4-0.2-1-0.3-1.8-0.3h-2.2v5.2H297.2z"/>
			<path fill="#FFFFFF" d="M306.5,401.9h1.9v-11.7h-1.9V388h12v4.2h-2.6v-1.8h-4.5v4.4h5.3v2.4h-5.3v4.6h4.9v-1.8h2.6v4.2h-12.4
				V401.9z"/>
			<path fill="#FFFFFF" d="M320.8,401.9h1.5l4.9-14h3.4l4.9,14h1.5v2.2h-6.1v-2.2h1.6l-1-3h-5.1l-1,3h1.6v2.2h-6.1V401.9z
				 M330.7,396.5l-1.5-4.6l-0.3-1c0-0.2,0-0.3,0-0.4h-0.1l-0.1,0.4c-0.1,0.3-0.1,0.6-0.2,1l-1.6,4.6H330.7z"/>
			<path fill="#FFFFFF" d="M338.5,401.9h1.9l1-11.7h-2V388h5.3l3.6,9.1c0.2,0.4,0.2,0.7,0.3,1l0.1,0.4h0l0.1-0.4
				c0.1-0.3,0.2-0.6,0.3-1l3.6-9.1h5.3v2.3h-1.9l0.9,11.7h1.9v2.2h-6.6v-2.2h1.8l-0.6-8.2c0-0.3,0-0.7,0-1l0-0.5h-0.1
				c0,0.2-0.1,0.3-0.1,0.5c-0.1,0.3-0.2,0.7-0.3,0.9l-3.1,7.5h-2.6l-3.1-7.5c-0.1-0.3-0.2-0.6-0.3-0.9c0-0.2-0.1-0.3-0.1-0.5h-0.1
				l0,0.5c0,0.3,0,0.7,0,1l-0.6,8.2h1.8v2.2h-6.7V401.9z"/>
		</g>
	</g>
	<g clip-path="url(#SVGID_1_)">
		<g filter="url(#ds1)">
			
				<linearGradient id="SVGID_3_" gradientUnits="userSpaceOnUse" x1="457.771" y1="313.4731" x2="511.9043" y2="407.2347" gradientTransform="matrix(0.782 -0.6233 0.6233 0.782 -150.8489 372.0154)">
				<stop  offset="0" style="stop-color:#FE9A89"/>
				<stop  offset="1" style="stop-color:#FF6A83"/>
			</linearGradient>
			<path fill="url(#SVGID_3_)" d="M460.6,301.2c-4.5,1-8.9,3.6-11.3,6.7c-3.1,4.1-4,9.8-2.6,14.7c1.2,4.4,4.1,9.9-0.7,13.4
				c-2.7,1.9-6,2.8-8.7,4.8c-2.6,1.9-4.4,4.3-6.1,7c-1.2,1.9-2.5,2.6-4.8,2.2c-3-0.5-5.8-3.1-8.5-4.5c-3.1-1.7-6.3-2-9.8-1.7
				c-10.7,1.1-19.2,12.6-14.7,23.2c2.3,5.4,7.9,9.3,13.1,11.8c2.4,1.1,4.9,1,7.4,2.2c2.4,1.2,4.5,3,6.2,5.2c1.1,1.3,2.1,2.5,3.4,3.5
				c3,2.4,7.4,4.7,11.1,5.3c4.2,0.7,7.3,1.6,10.2,4.8c2.2,2.5,3.9,6.2,6.9,7.9c6.2,3.4,14.2,2.8,19.7-1.6c3.7-3,4.7-8.4,8.1-11.7
				c4.1-3.8,10.3-3,14.8-6.6c4.9-3.9,7.4-10.3,6.5-16.5c-0.8-5.1-4.7-9.1-7.1-13.6c-2.8-5.2-0.9-10.2-2.8-15.4
				c-0.7-1.9-1.8-3.5-3-4.9c-2.7-3.1-5.3-6.2-5.3-10.4c-0.1-10.6-2.3-20.8-13-25.3C466.9,300.5,463.7,300.5,460.6,301.2z"/>
		</g>
		<g filter="url(#ds1)">
			<circle fill="#5A5A5A" cx="483.3" cy="373.8" r="11.9"/>
		</g>
		<g filter="url(#ds1)">
			<circle fill="#5A5A5A" cx="463.9" cy="318.5" r="11.9"/>
		</g>
		<g filter="url(#ds1)">
			<circle fill="#5A5A5A" cx="473.6" cy="346.1" r="11.9"/>
		</g>
		<g filter="url(#ds1)">
			<circle fill="#5A5A5A" cx="435.6" cy="376.5" r="11.9"/>
		</g>
		<g filter="url(#ds1)">
			<circle fill="#5A5A5A" cx="410.7" cy="360.9" r="11.9"/>
		</g>
		<g filter="url(#ds1)">
			<circle fill="#5A5A5A" cx="460.4" cy="392.1" r="11.9"/>
		</g>
		<g filter="url(#ds1)">
			<circle fill="#FCFBEB" cx="445.6" cy="351.2" r="8"/>
		</g>
		<g filter="url(#ds1)">
			<circle fill="#FCFBEB" cx="482" cy="304" r="8"/>
		</g>
		<g filter="url(#ds1)">
			<circle fill="#FCFBEB" cx="497.3" cy="344.4" r="8"/>
		</g>
		<g filter="url(#ds1)">
			<circle fill="#FCFBEB" cx="505.4" cy="383.5" r="8"/>
		</g>
		<g filter="url(#ds1)">
			<circle fill="#FCFBEB" cx="464.9" cy="415.7" r="8"/>
		</g>
		<g filter="url(#ds1)">
			<circle fill="#FCFBEB" cx="428.6" cy="399.2" r="8"/>
		</g>
	</g>
	<g clip-path="url(#SVGID_1_)">
		<g filter="url(#ds1)">
			
				<linearGradient id="SVGID_4_" gradientUnits="userSpaceOnUse" x1="349.8246" y1="479.6463" x2="403.9579" y2="573.408" gradientTransform="matrix(0.9704 -0.2413 0.2413 0.9704 -116.6436 104.712)">
				<stop  offset="0" style="stop-color:#FE9A89"/>
				<stop  offset="1" style="stop-color:#FF6A83"/>
			</linearGradient>
			<path fill="url(#SVGID_4_)" d="M404.2,482.1c-4.5-0.9-9.6-0.4-13,1.4c-4.6,2.4-7.7,7.2-8.5,12.3c-0.7,4.5-0.4,10.7-6.2,11.9
				c-3.3,0.6-6.6,0.1-9.9,0.7c-3.2,0.6-5.7,2.1-8.4,3.8c-1.9,1.2-3.4,1.3-5.3,0c-2.5-1.7-4-5.2-5.8-7.6c-2.2-2.8-4.8-4.4-8.2-5.6
				c-10.2-3.5-22.7,3.5-23,15c-0.1,5.9,3.3,11.7,7,16.1c1.7,2,4.1,2.9,5.8,5.1c1.7,2.2,2.8,4.6,3.5,7.3c0.4,1.7,0.8,3.1,1.6,4.6
				c1.7,3.4,4.7,7.3,7.9,9.4c3.5,2.3,6,4.5,7.3,8.7c0.9,3.2,1,7.2,3,10c4.2,5.7,11.7,8.4,18.6,6.7c4.6-1.2,7.7-5.7,12.3-7.2
				c5.3-1.8,10.7,1.5,16.2,0.2c6.1-1.5,11-6.3,12.7-12.3c1.5-5-0.4-10.2-0.8-15.4c-0.4-5.9,3.5-9.6,3.9-15.2
				c0.1-2.1-0.2-3.9-0.7-5.7c-1.1-4-2.2-7.8-0.5-11.7c4.3-9.6,6.6-19.9-1.3-28.4C410.2,484.1,407.3,482.8,404.2,482.1z"/>
		</g>
		<g filter="url(#ds1)">
			<circle fill="#5A5A5A" cx="394.6" cy="557.6" r="11.9"/>
		</g>
		<g filter="url(#ds1)">
			<circle fill="#5A5A5A" cx="399.9" cy="499.2" r="11.9"/>
		</g>
		<g filter="url(#ds1)">
			<circle fill="#5A5A5A" cx="397.3" cy="528.4" r="11.9"/>
		</g>
		<g filter="url(#ds1)">
			<circle fill="#5A5A5A" cx="350" cy="540.2" r="11.9"/>
		</g>
		<g filter="url(#ds1)">
			<circle fill="#5A5A5A" cx="333.9" cy="515.6" r="11.9"/>
		</g>
		<g filter="url(#ds1)">
			<circle fill="#5A5A5A" cx="366.1" cy="564.7" r="11.9"/>
		</g>
		<g filter="url(#ds1)">
			<circle fill="#FCFBEB" cx="369.7" cy="521.4" r="8"/>
		</g>
		<g filter="url(#ds1)">
			<circle fill="#FCFBEB" cx="422.5" cy="493.6" r="8"/>
		</g>
		<g filter="url(#ds1)">
			<circle fill="#FCFBEB" cx="419.6" cy="536.7" r="8"/>
		</g>
		<g filter="url(#ds1)">
			<circle fill="#FCFBEB" cx="410.6" cy="575.6" r="8"/>
		</g>
		<g filter="url(#ds1)">
			<circle fill="#FCFBEB" cx="360.4" cy="588.1" r="8"/>
		</g>
		<g filter="url(#ds1)">
			<circle fill="#FCFBEB" cx="334.2" cy="557.9" r="8"/>
		</g>
	</g>
	<g clip-path="url(#SVGID_1_)">
		<g filter="url(#ds1)">
			
				<linearGradient id="SVGID_5_" gradientUnits="userSpaceOnUse" x1="525.9597" y1="444.5288" x2="580.093" y2="538.2904" gradientTransform="matrix(0.874 0.486 -0.486 0.874 310.1683 -204.4779)">
				<stop  offset="0" style="stop-color:#FE9A89"/>
				<stop  offset="1" style="stop-color:#FF6A83"/>
			</linearGradient>
			<path fill="url(#SVGID_5_)" d="M604.2,481.7c-2.7-3.8-6.7-6.9-10.5-7.9c-5-1.3-10.6,0.1-14.6,3.2c-3.6,2.8-7.6,7.6-12.7,4.4
				c-2.8-1.8-4.9-4.4-7.7-6.2c-2.7-1.7-5.6-2.4-8.8-3c-2.2-0.4-3.4-1.3-3.9-3.6c-0.7-3,0.7-6.6,0.9-9.6c0.3-3.5-0.5-6.6-2.2-9.7
				c-5-9.5-19-13-27-4.7c-4.1,4.2-5.6,10.8-5.9,16.6c-0.1,2.6,1,4.9,0.8,7.6c-0.2,2.7-1.1,5.3-2.4,7.7c-0.8,1.5-1.5,2.8-2,4.5
				c-1.1,3.7-1.5,8.6-0.6,12.3c1,4.1,1.4,7.4-0.6,11.3c-1.5,3-4.2,6-4.6,9.4c-0.8,7,2.8,14.2,9,17.6c4.2,2.3,9.5,1.1,13.9,3.1
				c5.1,2.3,6.8,8.4,11.7,11.2c5.5,3,12.3,2.9,17.7-0.3c4.5-2.7,6.7-7.8,9.9-11.8c3.7-4.6,9.1-4.7,13.2-8.5c1.5-1.4,2.5-3,3.4-4.6
				c1.9-3.7,3.7-7.2,7.6-8.9c9.7-4.1,18.4-10,18.4-21.7C607.3,487.3,606.1,484.3,604.2,481.7z"/>
		</g>
		<g filter="url(#ds1)">
			<circle fill="#5A5A5A" cx="545.7" cy="530.4" r="11.9"/>
		</g>
		<g filter="url(#ds1)">
			<circle fill="#5A5A5A" cx="589.5" cy="491.3" r="11.9"/>
		</g>
		<g filter="url(#ds1)">
			<circle fill="#5A5A5A" cx="567.6" cy="510.8" r="11.9"/>
		</g>
		<g filter="url(#ds1)">
			<circle fill="#5A5A5A" cx="525" cy="487.2" r="11.9"/>
		</g>
		<g filter="url(#ds1)">
			<circle fill="#5A5A5A" cx="530" cy="458.3" r="11.9"/>
		</g>
		<g filter="url(#ds1)">
			<circle fill="#5A5A5A" cx="520.1" cy="516.1" r="11.9"/>
		</g>
		<g filter="url(#ds1)">
			<circle fill="#FCFBEB" cx="552.2" cy="486.9" r="8"/>
		</g>
		<g filter="url(#ds1)">
			<circle fill="#FCFBEB" cx="609.8" cy="502.6" r="8"/>
		</g>
		<g filter="url(#ds1)">
			<circle fill="#FCFBEB" cx="578.3" cy="532.1" r="8"/>
		</g>
		<g filter="url(#ds1)">
			<circle fill="#FCFBEB" cx="545.1" cy="554.4" r="8"/>
		</g>
		<g filter="url(#ds1)">
			<circle fill="#FCFBEB" cx="499.9" cy="529.3" r="8"/>
		</g>
		<g filter="url(#ds1)">
			<circle fill="#FCFBEB" cx="501.4" cy="489.4" r="8"/>
		</g>
	</g>
	<g clip-path="url(#SVGID_1_)">
		<g filter="url(#ds1)">
			
				<linearGradient id="SVGID_6_" gradientUnits="userSpaceOnUse" x1="779.353" y1="447.6255" x2="838.4586" y2="549.9994" gradientTransform="matrix(0.9894 -0.1453 0.1453 0.9894 -50.85 126.0757)">
				<stop  offset="0" style="stop-color:#D8855F"/>
				<stop  offset="1" style="stop-color:#CB4A4F"/>
			</linearGradient>
			<path fill="url(#SVGID_6_)" d="M876,504.7c-0.8-5.3-4.1-10.1-8.7-12.8c-3.4-2-7.4-1.3-10.2-4.7c-2.9-3.5-2.5-6.4-6.1-11.7
				c-2.7-3.9-7.9-5.3-12.6-4.9c-7.9,0.7-8.7,5.2-13.5,2.4c-4.4-2.5,0.7-9.7,0-14.7c-1.4-9.7-10.4-16.4-20.1-14.9
				c-9.7,1.4-16.4,10.4-14.9,20.1c0.6,4.1,2.8,6.5,4.8,9.9c2,3.3,1.4,5.3,0.4,8.9c-1,3.2-1.1,6.5-1.1,9.8c0,5.8-3.5,8.3-7,12.5
				c-3.2,3.8-4.6,8.9-3.9,13.9c0.7,5,3.6,9.5,7.9,12.3c2.7,1.7,6.2,2.9,8.2,5.6c2.1,2.8,2.2,6.9,3.6,10.1c3.3,7,11,11.1,18.6,10
				c4.7-0.7,8.2-4.9,12.9-6c5.4-1.3,10.5,2.6,16.1,1.7c6.2-0.9,11.5-5.2,13.9-11c2.4-5.9-1.5-13.1,3.2-18.2
				C872.5,517.2,877.3,513.3,876,504.7z"/>
		</g>
		<g filter="url(#ds1)">
			<g>
				<circle fill="#5A5A5A" cx="847.7" cy="534.5" r="11.9"/>
			</g>
			<g>
				<circle fill="#5A5A5A" cx="858.5" cy="507.3" r="11.9"/>
			</g>
			<g>
				<circle fill="#5A5A5A" cx="800.4" cy="515.8" r="11.9"/>
			</g>
			<g>
				<circle fill="#5A5A5A" cx="811.3" cy="488.5" r="11.9"/>
			</g>
			<g>
				<circle fill="#5A5A5A" cx="807.2" cy="460.9" r="11.9"/>
			</g>
			<g>
				<circle fill="#5A5A5A" cx="818.6" cy="538.8" r="11.9"/>
			</g>
			<g>
				<circle fill="#FCFBEB" cx="840.3" cy="484.3" r="8"/>
			</g>
			<g>
				<circle fill="#FCFBEB" cx="803.7" cy="437.1" r="8"/>
			</g>
			<g>
				<circle fill="#FCFBEB" cx="881.3" cy="515.2" r="8"/>
			</g>
			<g>
				<circle fill="#FCFBEB" cx="861.8" cy="554" r="8"/>
			</g>
			<g>
				<circle fill="#FCFBEB" cx="810.7" cy="561.5" r="8"/>
			</g>
			<g>
				<circle fill="#FCFBEB" cx="780.9" cy="529.9" r="8"/>
			</g>
		</g>
	</g>
	<g clip-path="url(#SVGID_1_)">
		<g filter="url(#ds1)">
			<linearGradient id="SVGID_8_" gradientUnits="userSpaceOnUse" x1="640.1124" y1="565.7411" x2="699.218" y2="668.115">
				<stop  offset="0" style="stop-color:#D8855F"/>
				<stop  offset="1" style="stop-color:#CB4A4F"/>
			</linearGradient>
			<path fill="url(#SVGID_8_)" d="M722.8,627.4c0-5.4-2.5-10.6-6.8-13.9c-3.1-2.5-7.1-2.3-9.4-6.1c-2.4-3.9-1.5-6.7-4.4-12.5
				c-2.1-4.3-7-6.4-11.8-6.7c-8-0.4-9.3,3.9-13.8,0.4c-4-3.2,2.1-9.4,2.1-14.6c0-9.8-7.9-17.7-17.7-17.7c-9.8,0-17.7,7.9-17.7,17.7
				c0,4.1,1.8,6.9,3.3,10.5c1.5,3.6,0.6,5.5-0.9,8.8c-1.4,3-2,6.2-2.5,9.5c-0.8,5.8-4.7,7.7-8.7,11.3c-3.7,3.3-5.9,8.2-5.9,13.2
				c0,5,2.2,9.9,6,13.3c2.4,2.1,5.7,3.8,7.3,6.7c1.7,3.1,1.1,7.1,2.1,10.5c2.2,7.4,9.2,12.6,17,12.6c4.8,0,8.9-3.7,13.7-4.1
				c5.6-0.5,10,4.1,15.7,4.1c6.3,0,12.2-3.4,15.3-8.8c3.2-5.5,0.4-13.1,5.8-17.6C717.4,639.3,722.8,636.1,722.8,627.4z"/>
		</g>
		<g filter="url(#ds1)">
			<g>
				<circle fill="#5A5A5A" cx="690.4" cy="652.8" r="11.9"/>
			</g>
			<g>
				<circle fill="#5A5A5A" cx="705.1" cy="627.4" r="11.9"/>
			</g>
			<g>
				<circle fill="#5A5A5A" cx="646.4" cy="627.4" r="11.9"/>
			</g>
			<g>
				<circle fill="#5A5A5A" cx="661" cy="602" r="11.9"/>
			</g>
			<g>
				<circle fill="#5A5A5A" cx="661" cy="574.1" r="11.9"/>
			</g>
			<g>
				<circle fill="#5A5A5A" cx="661" cy="652.8" r="11.9"/>
			</g>
			<g>
				<circle fill="#FCFBEB" cx="690.4" cy="602" r="8"/>
			</g>
			<g>
				<circle fill="#FCFBEB" cx="661" cy="550" r="8"/>
			</g>
			<g>
				<circle fill="#FCFBEB" cx="726.5" cy="638.5" r="8"/>
			</g>
			<g>
				<circle fill="#FCFBEB" cx="625" cy="638.5" r="8"/>
			</g>
		</g>
	</g>
	<g clip-path="url(#SVGID_1_)">
		<g filter="url(#ds1)">
			
				<linearGradient id="SVGID_9_" gradientUnits="userSpaceOnUse" x1="660.0128" y1="364.9011" x2="719.1184" y2="467.275" gradientTransform="matrix(0.936 0.352 -0.352 0.936 188.7534 -218.4519)">
				<stop  offset="0" style="stop-color:#D8855F"/>
				<stop  offset="1" style="stop-color:#CB4A4F"/>
			</linearGradient>
			<path fill="url(#SVGID_9_)" d="M733.7,442.2c1.9-5.1,1.4-10.8-1.5-15.4c-2.1-3.4-5.9-4.7-6.7-9c-0.8-4.5,1-6.8,0.3-13.2
				c-0.5-4.8-4.3-8.5-8.7-10.4c-7.3-3.2-10.1,0.4-13-4.4c-2.7-4.4,5.3-8.1,7.1-12.9c3.4-9.1-1.2-19.4-10.3-22.8
				c-9.1-3.4-19.4,1.2-22.8,10.3c-1.5,3.9-0.7,7-0.6,11c0.1,3.9-1.3,5.3-4,7.9c-2.4,2.3-4.1,5.1-5.7,8c-2.8,5.1-7.1,5.6-12.1,7.5
				c-4.6,1.8-8.4,5.6-10.1,10.2c-1.8,4.7-1.4,10.1,0.9,14.5c1.5,2.8,4,5.6,4.4,8.9c0.5,3.5-1.5,7.1-1.7,10.6
				c-0.5,7.7,4.2,15.1,11.4,17.8c4.5,1.7,9.6-0.3,14.2,1c5.4,1.5,7.9,7.3,13.2,9.3c5.9,2.2,12.6,1.1,17.4-2.9
				c5-4.1,5-12.1,11.6-14.4C724.6,451.5,730.7,450.4,733.7,442.2z"/>
		</g>
		<g filter="url(#ds1)">
			<g>
				<circle fill="#5A5A5A" cx="694.5" cy="454.6" r="11.9"/>
			</g>
			<g>
				<circle fill="#5A5A5A" cx="717.1" cy="436" r="11.9"/>
			</g>
			<g>
				<circle fill="#5A5A5A" cx="662.2" cy="415.3" r="11.9"/>
			</g>
			<g>
				<circle fill="#5A5A5A" cx="684.9" cy="396.7" r="11.9"/>
			</g>
			<g>
				<circle fill="#5A5A5A" cx="694.7" cy="370.6" r="11.9"/>
			</g>
			<g>
				<circle fill="#5A5A5A" cx="667" cy="444.3" r="11.9"/>
			</g>
			<g>
				<circle fill="#FCFBEB" cx="712.4" cy="407.1" r="8"/>
			</g>
			<g>
				<circle fill="#FCFBEB" cx="703.2" cy="348.1" r="8"/>
			</g>
			<g>
				<circle fill="#FCFBEB" cx="733.3" cy="453.9" r="8"/>
			</g>
			<g>
				<circle fill="#FCFBEB" cx="697.4" cy="478.5" r="8"/>
			</g>
			<g>
				<circle fill="#FCFBEB" cx="649" cy="460.3" r="8"/>
			</g>
			<g>
				<circle fill="#FCFBEB" cx="638.3" cy="418.2" r="8"/>
			</g>
		</g>
	</g>
	<g clip-path="url(#SVGID_1_)">
		<g filter="url(#ds1)">
			
				<linearGradient id="SVGID_10_" gradientUnits="userSpaceOnUse" x1="839.9448" y1="280.3332" x2="899.0504" y2="382.7071" gradientTransform="matrix(0.6514 0.7588 -0.7588 0.6514 546.821 -532.3698)">
				<stop  offset="0" style="stop-color:#D8855F"/>
				<stop  offset="1" style="stop-color:#CB4A4F"/>
			</linearGradient>
			<path fill="url(#SVGID_10_)" d="M888.3,390.4c4.1-3.5,6.4-8.8,6.1-14.2c-0.2-4-2.9-6.9-1.5-11.1c1.4-4.3,4.1-5.5,6.6-11.4
				c1.9-4.4,0.3-9.5-2.6-13.3c-4.9-6.3-9.1-4.5-9.3-10.1c-0.2-5.1,8.6-4.5,12.5-7.9c7.4-6.4,8.3-17.6,1.9-25
				c-6.4-7.4-17.6-8.3-25-1.9c-3.1,2.7-4,5.8-5.8,9.3c-1.7,3.4-3.7,4-7.3,5c-3.2,0.9-6,2.5-8.8,4.3c-4.9,3.1-8.9,1.5-14.3,0.8
				c-4.9-0.6-10,0.9-13.8,4.1c-3.8,3.3-6.1,8.1-6.2,13.2c0,3.2,0.8,6.8-0.4,9.9c-1.3,3.3-4.7,5.5-6.6,8.5
				c-4.2,6.5-3.6,15.2,1.5,21.1c3.1,3.6,8.6,4.3,12,7.7c4,3.9,3.4,10.2,7.1,14.6c4.1,4.7,10.5,7,16.7,5.9c6.3-1.2,10.2-8.2,17.1-7
				C875.8,394.1,881.7,396.1,888.3,390.4z"/>
		</g>
		<g filter="url(#ds1)">
			<g>
				<circle fill="#5A5A5A" cx="847.9" cy="382.4" r="11.9"/>
			</g>
			<g>
				<circle fill="#5A5A5A" cx="876.8" cy="377" r="11.9"/>
			</g>
			<g>
				<circle fill="#5A5A5A" cx="838.5" cy="332.5" r="11.9"/>
			</g>
			<g>
				<circle fill="#5A5A5A" cx="867.4" cy="327" r="11.9"/>
			</g>
			<g>
				<circle fill="#5A5A5A" cx="888.5" cy="308.9" r="11.9"/>
			</g>
			<g>
				<circle fill="#5A5A5A" cx="828.8" cy="360.1" r="11.9"/>
			</g>
			<g>
				<circle fill="#FCFBEB" cx="886.5" cy="349.3" r="8"/>
			</g>
			<g>
				<circle fill="#FCFBEB" cx="906.8" cy="293.2" r="8"/>
			</g>
			<g>
				<circle fill="#FCFBEB" cx="882.3" cy="400.5" r="8"/>
			</g>
			<g>
				<circle fill="#FCFBEB" cx="839" cy="404.8" r="8"/>
			</g>
			<g>
				<circle fill="#FCFBEB" cx="805.4" cy="365.5" r="8"/>
			</g>
			<g>
				<circle fill="#FCFBEB" cx="816.2" cy="323.5" r="8"/>
			</g>
		</g>
	</g>
	<g clip-path="url(#SVGID_1_)">
		<g filter="url(#ds1)">
			
				<linearGradient id="SVGID_11_" gradientUnits="userSpaceOnUse" x1="45.2181" y1="487.5403" x2="104.3237" y2="589.9142" gradientTransform="matrix(0.9674 0.2532 -0.2532 0.9674 132.6268 -4.4472)">
				<stop  offset="0" style="stop-color:#E37A89"/>
				<stop  offset="1" style="stop-color:#BD4352"/>
			</linearGradient>
			<path fill="url(#SVGID_11_)" d="M117.3,559.2c1.4-5.2,0.2-10.9-3-15.2c-2.4-3.2-6.3-4.1-7.6-8.3c-1.3-4.4,0.2-6.9-1.1-13.2
				c-1-4.7-5.2-8-9.7-9.4c-7.6-2.4-10,1.4-13.4-3.1c-3.1-4.1,4.4-8.6,5.7-13.6c2.5-9.4-3.2-19.1-12.6-21.6
				c-9.4-2.5-19.1,3.2-21.6,12.6c-1,4,0,7.1,0.5,11c0.5,3.8-0.8,5.5-3.1,8.3c-2.1,2.6-3.5,5.5-4.8,8.6c-2.3,5.4-6.5,6.3-11.3,8.8
				c-4.4,2.3-7.7,6.4-9,11.2c-1.3,4.9-0.4,10.2,2.4,14.4c1.8,2.7,4.6,5.1,5.3,8.3c0.8,3.4-0.7,7.2-0.6,10.7
				c0.3,7.7,5.7,14.5,13.2,16.5c4.6,1.2,9.5-1.3,14.2-0.5c5.5,1,8.6,6.5,14.1,7.9c6.1,1.6,12.6-0.2,17.1-4.7
				c4.5-4.5,3.7-12.6,10.1-15.5C109.1,569.4,115.1,567.7,117.3,559.2z"/>
		</g>
		<g filter="url(#ds1)">
			<circle fill="#5A5A5A" cx="79.6" cy="575.6" r="11.9"/>
		</g>
		<g filter="url(#ds1)">
			<circle fill="#5A5A5A" cx="100.2" cy="554.7" r="11.9"/>
		</g>
		<g filter="url(#ds1)">
			<circle fill="#5A5A5A" cx="43.4" cy="540" r="11.9"/>
		</g>
		<g filter="url(#ds1)">
			<circle fill="#5A5A5A" cx="64" cy="519.1" r="11.9"/>
		</g>
		<g filter="url(#ds1)">
			<circle fill="#5A5A5A" cx="71" cy="492" r="11.9"/>
		</g>
		<g filter="url(#ds1)">
			<circle fill="#5A5A5A" cx="51.2" cy="568.2" r="11.9"/>
		</g>
		<g filter="url(#ds1)">
			<circle fill="#FCFBEB" cx="92.4" cy="526.4" r="8"/>
		</g>
		<g filter="url(#ds1)">
			<circle fill="#FCFBEB" cx="77" cy="468.7" r="8"/>
		</g>
		<g filter="url(#ds1)">
			<circle fill="#FCFBEB" cx="118.1" cy="570.8" r="8"/>
		</g>
		<g filter="url(#ds1)">
			<circle fill="#FCFBEB" cx="85.1" cy="599" r="8"/>
		</g>
		<g filter="url(#ds1)">
			<circle fill="#FCFBEB" cx="35.1" cy="586.1" r="8"/>
		</g>
		<g filter="url(#ds1)">
			<circle fill="#FCFBEB" cx="25.7" cy="523.1" r="8"/>
		</g>
	</g>
	<g clip-path="url(#SVGID_1_)">
		<g filter="url(#ds1)">
			
				<linearGradient id="SVGID_12_" gradientUnits="userSpaceOnUse" x1="235.5187" y1="582.1531" x2="294.6243" y2="684.527" gradientTransform="matrix(0.822 -0.5695 0.5695 0.822 -346.2168 308.1388)">
				<stop  offset="0" style="stop-color:#E37A89"/>
				<stop  offset="1" style="stop-color:#BD4352"/>
			</linearGradient>
			<path fill="url(#SVGID_12_)" d="M281.9,656.2c-3.1-4.4-8.1-7.3-13.5-7.6c-4-0.2-7.2,2.1-11.2,0.3c-4.1-1.9-5-4.6-10.7-7.8
				c-4.2-2.3-9.4-1.3-13.5,1.2c-6.8,4.2-5.5,8.5-11.1,8.2c-5.1-0.3-3.6-9-6.6-13.2c-5.6-8-16.6-10-24.6-4.5c-8,5.6-10,16.6-4.5,24.6
				c2.4,3.4,5.4,4.6,8.7,6.7c3.3,2.1,3.6,4.1,4.3,7.8c0.6,3.3,1.9,6.3,3.4,9.2c2.6,5.2,0.5,9-0.7,14.3c-1.1,4.9-0.2,10.1,2.7,14.2
				c2.9,4.2,7.5,6.9,12.5,7.5c3.2,0.4,6.9-0.1,9.8,1.4c3.1,1.6,5,5.2,7.7,7.4c6,4.8,14.8,5.1,21.1,0.7c3.9-2.7,5.2-8.1,8.9-11.1
				c4.3-3.6,10.5-2.3,15.2-5.6c5.1-3.6,8.1-9.7,7.6-16c-0.5-6.4-7.1-11-5.2-17.8C284.3,669,286.9,663.3,281.9,656.2z"/>
		</g>
		<g filter="url(#ds1)">
			<circle fill="#5A5A5A" cx="200.8" cy="647.6" r="11.9"/>
		</g>
		<g filter="url(#ds1)">
			<circle fill="#FCFBEB" cx="240.8" cy="653.7" r="8"/>
		</g>
		<g filter="url(#ds1)">
			<circle fill="#FCFBEB" cx="187" cy="627.8" r="8"/>
		</g>
	</g>
	<g clip-path="url(#SVGID_1_)">
		<g filter="url(#ds1)">
			
				<linearGradient id="SVGID_13_" gradientUnits="userSpaceOnUse" x1="180.8084" y1="434.6362" x2="239.914" y2="537.0101" gradientTransform="matrix(0.8985 -0.439 0.439 0.8985 -184.5663 143.4062)">
				<stop  offset="0" style="stop-color:#E37A89"/>
				<stop  offset="1" style="stop-color:#BD4352"/>
			</linearGradient>
			<path fill="url(#SVGID_13_)" d="M270,473.7c-2.4-4.9-6.9-8.4-12.2-9.5c-3.9-0.8-7.4,1-11.1-1.3c-3.8-2.5-4.3-5.4-9.4-9.3
				c-3.8-2.9-9.1-2.7-13.5-0.8c-7.3,3.1-6.7,7.6-12.2,6.4c-5-1.1-2.2-9.4-4.5-14c-4.3-8.8-14.9-12.4-23.7-8.1
				c-8.8,4.3-12.4,14.9-8.1,23.7c1.8,3.7,4.6,5.4,7.6,8c2.9,2.5,3,4.6,3,8.3c0.1,3.3,0.9,6.5,2,9.6c1.8,5.5-0.8,9-2.9,14
				c-1.9,4.6-1.7,9.9,0.5,14.4c2.2,4.5,6.3,7.9,11.2,9.3c3.1,0.8,6.8,0.9,9.5,2.8c2.9,2.1,4.1,5.9,6.5,8.5
				c5.2,5.7,13.8,7.3,20.8,3.9c4.3-2.1,6.4-7.2,10.5-9.7c4.8-2.9,10.8-0.7,15.9-3.2c5.6-2.7,9.4-8.4,9.9-14.7
				c0.5-6.4-5.4-12-2.5-18.4C270.4,486.7,273.8,481.5,270,473.7z"/>
		</g>
		<g filter="url(#ds1)">
			<circle fill="#5A5A5A" cx="252.2" cy="510.6" r="11.9"/>
		</g>
		<g filter="url(#ds1)">
			<circle fill="#5A5A5A" cx="254.1" cy="481.4" r="11.9"/>
		</g>
		<g filter="url(#ds1)">
			<circle fill="#5A5A5A" cx="201.5" cy="507.2" r="11.9"/>
		</g>
		<g filter="url(#ds1)">
			<circle fill="#5A5A5A" cx="203.4" cy="478" r="11.9"/>
		</g>
		<g filter="url(#ds1)">
			<circle fill="#5A5A5A" cx="191.1" cy="452.9" r="11.9"/>
		</g>
		<g filter="url(#ds1)">
			<circle fill="#5A5A5A" cx="225.8" cy="523.6" r="11.9"/>
		</g>
		<g filter="url(#ds1)">
			<circle fill="#FCFBEB" cx="229.7" cy="465" r="8"/>
		</g>
		<g filter="url(#ds1)">
			<circle fill="#FCFBEB" cx="180.5" cy="431.3" r="8"/>
		</g>
		<g filter="url(#ds1)">
			<circle fill="#FCFBEB" cx="278.2" cy="481.9" r="8"/>
		</g>
		<g filter="url(#ds1)">
			<circle fill="#FCFBEB" cx="271.6" cy="524.8" r="8"/>
		</g>
		<g filter="url(#ds1)">
			<circle fill="#FCFBEB" cx="225.2" cy="547.6" r="8"/>
		</g>
		<g filter="url(#ds1)">
			<circle fill="#FCFBEB" cx="177" cy="506" r="8"/>
		</g>
	</g>
	<linearGradient id="SVGID_14_" gradientUnits="userSpaceOnUse" x1="460" y1="-16.5117" x2="460" y2="322.4868">
		<stop  offset="0" style="stop-color:#F7ABA8"/>
		<stop  offset="1" style="stop-color:#EA8070"/>
	</linearGradient>
	<rect x="0" clip-path="url(#SVGID_1_)" fill="url(#SVGID_14_)" width="920" height="326.2"/>
	<g clip-path="url(#SVGID_1_)">
		<g>
			<path fill="#FFFFFF" d="M38.5,31c2,0,6.3,0.7,6.3,3.2v2.2h-2.7v-1.3c0-1.2-2.1-1.6-3.5-1.6c-3.1,0-5.4,2.2-5.4,5.6
				c0,3.6,2.4,6,5.6,6c1,0,3.5-0.3,3.5-1.6v-1.3H45v2.2c0,2.4-4.1,3.2-6.4,3.2c-4.9,0-8.5-3.7-8.5-8.4C30.1,34.5,33.8,31,38.5,31z"
				/>
			<path fill="#FFFFFF" d="M47,45.2h1.5l4.9-14h3.4l4.9,14H63v2.2h-6.1v-2.2h1.6l-1-3h-5.1l-1,3H53v2.2H47V45.2z M56.9,39.8
				l-1.5-4.6l-0.3-1c0-0.2,0-0.3,0-0.4H55l-0.1,0.4c-0.1,0.3-0.1,0.6-0.2,1l-1.6,4.6H56.9z"/>
			<path fill="#FFFFFF" d="M65,45.2h1.9V33.5H65v-2.3h7.1c1.2,0,2.2,0.1,3.1,0.3c1.8,0.6,3,2.1,3,4.3c0,2.3-1.2,3.9-3.1,4.5v0
				l0.3,0.2c0.2,0.2,0.4,0.3,0.5,0.6l1.9,3.4c0.3,0.4,0.5,0.5,1.1,0.5h0.5v2.2h-1.9c-1.3,0-1.8-0.3-2.3-1.2L73,42
				c-0.3-0.6-0.6-0.8-1.6-0.8h-1.5v4h1.9v2.2H65V45.2z M72.6,38.8c1.6,0,2.6-0.9,2.6-2.7c0-1.1-0.4-1.9-1.3-2.2
				c-0.4-0.2-1-0.3-1.8-0.3h-2.2v5.2H72.6z"/>
			<path fill="#FFFFFF" d="M81.8,45.2h1.9V33.5h-1.9v-2.3h7.4c1.2,0,2.1,0.1,2.9,0.4c1.5,0.6,2.5,1.9,2.5,3.7c0,1.5-0.7,2.8-2,3.5v0
				c1.8,0.5,2.6,2.1,2.6,3.8c0,2.3-1.5,3.9-3.2,4.4c-0.8,0.3-1.5,0.3-2.4,0.3h-7.8V45.2z M89.6,37.8c1.3,0,2-0.9,2-2.1
				c0-0.8-0.3-1.5-0.9-1.8c-0.3-0.2-0.8-0.3-1.4-0.3h-2.5v4.2H89.6z M89.7,45c0.4,0,0.8,0,1.2-0.2c0.8-0.3,1.3-1.3,1.3-2.3
				c0-1.4-0.9-2.3-2.3-2.3h-3.1V45H89.7z"/>
			<path fill="#FFFFFF" d="M106.3,31c4.8,0,8.4,3.6,8.4,8.3c0,4.8-3.6,8.5-8.4,8.5s-8.4-3.7-8.4-8.5C97.9,34.6,101.5,31,106.3,31z
				 M106.3,45.1c2.9,0,5.3-2.5,5.3-5.9c0-3.2-2.4-5.6-5.3-5.6S101,36,101,39.2C101,42.6,103.4,45.1,106.3,45.1z"/>
			<path fill="#FFFFFF" d="M117.3,45.2h1.9V33.5h-1.9v-2.3h6.9v2.3h-2v4.7h7.4v-4.7h-2v-2.3h6.9v2.3h-1.9v11.7h1.9v2.2h-6.9v-2.2h2
				v-4.6h-7.4v4.6h2v2.2h-6.9V45.2z"/>
			<path fill="#FFFFFF" d="M140.3,45.2h2v-4.5l-4.3-7.2h-1.5v-2.3h6v2.3h-1.6l2.5,4.2c0.1,0.2,0.2,0.3,0.3,0.5
				c0,0.1,0.1,0.2,0.1,0.2h0c0-0.1,0-0.2,0.1-0.2c0.1-0.2,0.2-0.3,0.3-0.5l2.5-4.2H145v-2.3h6v2.3h-1.5l-4.3,7.2v4.5h1.9v2.2h-6.9
				V45.2z"/>
			<path fill="#FFFFFF" d="M153,45.2h1.9V33.5H153v-2.3h7c1.3,0,2.3,0,3.4,0.4c3.2,0.9,5.2,3.7,5.2,7.7c0,3.9-1.9,6.6-5,7.6
				c-1.1,0.4-2.2,0.5-3.6,0.5h-7V45.2z M159.8,45c1,0,1.8-0.1,2.6-0.4c1.8-0.8,3-2.6,3-5.3c0-2.8-1.2-4.6-3.1-5.3
				c-0.8-0.3-1.5-0.4-2.5-0.4h-2V45H159.8z"/>
			<path fill="#FFFFFF" d="M171.3,45.2h1.9V33.5h-1.9v-2.3h7.1c1.2,0,2.2,0.1,3.1,0.3c1.8,0.6,3,2.1,3,4.3c0,2.3-1.2,3.9-3.1,4.5v0
				l0.3,0.2c0.2,0.2,0.4,0.3,0.5,0.6l1.9,3.4c0.3,0.4,0.5,0.5,1.1,0.5h0.5v2.2h-1.9c-1.3,0-1.8-0.3-2.3-1.2l-2.3-4.2
				c-0.3-0.6-0.6-0.8-1.6-0.8h-1.5v4h1.9v2.2h-6.8V45.2z M178.9,38.8c1.6,0,2.6-0.9,2.6-2.7c0-1.1-0.4-1.9-1.3-2.2
				c-0.4-0.2-1-0.3-1.8-0.3h-2.2v5.2H178.9z"/>
			<path fill="#FFFFFF" d="M187.4,45.2h1.5l4.9-14h3.4l4.9,14h1.5v2.2h-6.1v-2.2h1.6l-1-3h-5.1l-1,3h1.6v2.2h-6.1V45.2z M197.3,39.8
				l-1.5-4.6l-0.3-1c0-0.2,0-0.3,0-0.4h-0.1l-0.1,0.4c-0.1,0.3-0.1,0.6-0.2,1l-1.6,4.6H197.3z"/>
			<path fill="#FFFFFF" d="M207.4,45.2h1.9V33.6h-3.1v2.4h-2.5v-4.8H218v4.8h-2.5v-2.4h-3.1v11.6h2v2.2h-6.9V45.2z"/>
			<path fill="#FFFFFF" d="M220.3,45.2h1.9V33.5h-1.9v-2.3h12v4.2h-2.6v-1.8h-4.5v4.4h5.3v2.4h-5.3V45h4.9v-1.8h2.6v4.2h-12.4V45.2z
				"/>
			<path fill="#FFFFFF" d="M238.1,42.2v1.2c0,1,1.3,1.7,2.8,1.7c1.6,0,2.8-0.7,2.8-2c0-1.6-1.8-2.2-3.7-2.9
				c-2.2-0.8-4.3-1.8-4.3-4.7c0-3.3,2.6-4.5,5.4-4.5c2.6,0,5.1,1,5.1,2.8v2.1h-2.7v-1.1c0-0.8-1.2-1.3-2.4-1.3
				c-1.3,0-2.4,0.5-2.4,1.8c0,1.5,1.5,2,3.2,2.6c2.4,0.8,4.8,1.8,4.8,4.9c0,3.3-2.8,4.8-5.8,4.8c-2.7,0-5.6-1.2-5.6-3.6v-1.8H238.1z
				"/>
			<path fill="#FFFFFF" d="M30.3,72.5h1.9V60.8h-1.9v-2.3h6.9v2.3h-2v11.7h2v2.2h-6.9V72.5z"/>
			<path fill="#FFFFFF" d="M40,72.5H42V60.8H40v-2.3H45L51.8,69c0.2,0.3,0.3,0.6,0.4,0.9l0.2,0.5h0.1l0-0.5c0-0.3,0-0.7,0-1v-8h-2
				v-2.3h6.9v2.3h-1.9v13.9h-3l-6.8-10.4c-0.2-0.3-0.3-0.6-0.4-0.9L44.9,63h-0.1l0.1,0.5c0,0.3,0.1,0.7,0,1v8h2v2.2H40V72.5z"/>
			<path fill="#FFFFFF" d="M66.2,72.5h1.9V60.8h-1.9v-2.3h11.6v4.2h-2.6v-1.7h-4.1v4.7h5.3v2.4h-5.3v4.4h2.1v2.2h-7.1V72.5z"/>
			<path fill="#FFFFFF" d="M88.3,58.3c4.8,0,8.4,3.6,8.4,8.3c0,4.8-3.6,8.5-8.4,8.5S80,71.3,80,66.6C80,61.9,83.6,58.3,88.3,58.3z
				 M88.3,72.4c2.9,0,5.3-2.5,5.3-5.9c0-3.2-2.4-5.6-5.3-5.6S83,63.4,83,66.6C83,69.9,85.4,72.4,88.3,72.4z"/>
			<path fill="#FFFFFF" d="M107.6,58.3c4.8,0,8.4,3.6,8.4,8.3c0,4.8-3.6,8.5-8.4,8.5s-8.4-3.7-8.4-8.5
				C99.2,61.9,102.8,58.3,107.6,58.3z M107.6,72.4c2.9,0,5.3-2.5,5.3-5.9c0-3.2-2.4-5.6-5.3-5.6s-5.3,2.4-5.3,5.6
				C102.3,69.9,104.7,72.4,107.6,72.4z"/>
			<path fill="#FFFFFF" d="M118.7,72.5h1.9V60.8h-1.9v-2.3h7c1.3,0,2.3,0,3.4,0.4c3.2,0.9,5.2,3.7,5.2,7.7c0,3.9-1.9,6.6-5,7.6
				c-1.1,0.4-2.2,0.5-3.6,0.5h-7V72.5z M125.5,72.4c1,0,1.8-0.1,2.6-0.4c1.8-0.8,3-2.6,3-5.3c0-2.8-1.2-4.6-3.1-5.3
				c-0.8-0.3-1.5-0.4-2.5-0.4h-2v11.4H125.5z"/>
		</g>
	</g>
	<g clip-path="url(#SVGID_1_)">
		<g>
			<g filter="url(#ds1)">
				
					<linearGradient id="SVGID_15_" gradientUnits="userSpaceOnUse" x1="39.5187" y1="145.6821" x2="98.6243" y2="248.056" gradientTransform="matrix(0.998 -6.380580e-02 6.380580e-02 0.998 -10.4494 9.1665)">
					<stop  offset="0" style="stop-color:#D8855F"/>
					<stop  offset="1" style="stop-color:#CB4A4F"/>
				</linearGradient>
				<path fill="url(#SVGID_15_)" d="M124.7,208.3c-0.3-5.4-3.2-10.4-7.7-13.5c-3.3-2.2-7.3-1.9-9.8-5.5c-2.6-3.7-1.9-6.6-5.2-12.2
					c-2.4-4.1-7.4-5.9-12.2-5.9c-8,0.1-9.1,4.5-13.7,1.3c-4.2-2.9,1.5-9.6,1.2-14.7c-0.6-9.7-9.1-17.2-18.8-16.5
					c-9.7,0.6-17.2,9.1-16.5,18.8c0.3,4.1,2.2,6.7,4,10.2c1.7,3.5,1,5.4-0.4,8.9c-1.2,3.1-1.6,6.4-1.9,9.7c-0.5,5.8-4.2,8-8,11.9
					c-3.5,3.6-5.3,8.5-5,13.5c0.3,5,2.8,9.8,6.8,12.9c2.5,2,5.9,3.4,7.7,6.2c1.9,3,1.6,7,2.8,10.3c2.7,7.2,10,12,17.7,11.5
					c4.8-0.3,8.6-4.2,13.4-4.9c5.5-0.8,10.2,3.4,15.9,3.1c6.2-0.4,11.9-4.2,14.7-9.8c2.9-5.7-0.4-13.1,4.7-17.9
					C120.1,220.5,125.2,217,124.7,208.3z"/>
			</g>
			<g filter="url(#ds1)">
				<g>
					<circle fill="#5A5A5A" cx="94" cy="235.7" r="11.9"/>
				</g>
				<g>
					<circle fill="#5A5A5A" cx="107" cy="209.4" r="11.9"/>
				</g>
				<g>
					<circle fill="#5A5A5A" cx="48.5" cy="213.2" r="11.9"/>
				</g>
				<g>
					<circle fill="#5A5A5A" cx="61.5" cy="186.9" r="11.9"/>
				</g>
				<g>
					<circle fill="#5A5A5A" cx="59.7" cy="159" r="11.9"/>
				</g>
				<g>
					<circle fill="#5A5A5A" cx="64.7" cy="237.6" r="11.9"/>
				</g>
				<g>
					<circle fill="#FCFBEB" cx="90.8" cy="185" r="8"/>
				</g>
				<g>
					<circle fill="#FCFBEB" cx="58.2" cy="135" r="8"/>
				</g>
				<g>
					<circle fill="#FCFBEB" cx="106.5" cy="256.3" r="8"/>
				</g>
				<g>
					<circle fill="#FCFBEB" cx="54.9" cy="259.6" r="8"/>
				</g>
				<g>
					<circle fill="#FCFBEB" cx="27.8" cy="225.6" r="8"/>
				</g>
			</g>
		</g>
		<g>
			<g filter="url(#ds1)">
				
					<linearGradient id="SVGID_16_" gradientUnits="userSpaceOnUse" x1="147.7531" y1="149.0797" x2="201.8864" y2="242.8413" gradientTransform="matrix(0.998 -6.380580e-02 6.380580e-02 0.998 -10.4494 9.1665)">
					<stop  offset="0" style="stop-color:#FE9A89"/>
					<stop  offset="1" style="stop-color:#FF6A83"/>
				</linearGradient>
				<path fill="url(#SVGID_16_)" d="M211.7,156.6c-4.3-1.7-9.4-2.2-13.1-1c-4.9,1.6-8.9,5.8-10.5,10.6c-1.5,4.3-2.3,10.5-8.3,10.6
					c-3.3,0-6.5-1.1-9.8-1.1c-3.2,0-6,1-9,2.2c-2.1,0.9-3.6,0.7-5.2-0.9c-2.2-2.2-3-5.9-4.4-8.6c-1.6-3.2-4-5.2-7.1-7
					c-9.4-5.2-23-0.6-25.3,10.6c-1.2,5.8,1.1,12.1,4,17.1c1.3,2.3,3.5,3.6,4.8,6c1.3,2.4,2,5.1,2.2,7.8c0.1,1.7,0.3,3.2,0.7,4.8
					c1,3.7,3.4,8,6.1,10.7c3.1,2.9,5.1,5.5,5.6,9.8c0.4,3.3-0.3,7.3,1.2,10.4c3.1,6.3,10,10.4,17.1,9.9c4.8-0.3,8.6-4.2,13.4-4.9
					c5.5-0.8,10.2,3.4,15.9,3.1c6.2-0.4,11.9-4.2,14.7-9.8c2.3-4.7,1.4-10.2,2-15.3c0.6-5.9,5.1-8.9,6.5-14.3c0.5-2,0.5-3.9,0.3-5.7
					c-0.4-4.1-0.8-8.1,1.6-11.6c6-8.7,10-18.4,3.8-28.2C217.3,159.7,214.7,157.8,211.7,156.6z"/>
			</g>
			<g filter="url(#ds1)">
				<circle fill="#5A5A5A" cx="188.8" cy="229.2" r="11.9"/>
			</g>
			<g filter="url(#ds1)">
				<circle fill="#5A5A5A" cx="204.5" cy="172.7" r="11.9"/>
			</g>
			<g filter="url(#ds1)">
				<circle fill="#5A5A5A" cx="196.6" cy="201" r="11.9"/>
			</g>
			<g filter="url(#ds1)">
				<circle fill="#5A5A5A" cx="148" cy="204.1" r="11.9"/>
			</g>
			<g filter="url(#ds1)">
				<circle fill="#5A5A5A" cx="136.6" cy="177.1" r="11.9"/>
			</g>
			<g filter="url(#ds1)">
				<circle fill="#5A5A5A" cx="159.5" cy="231.1" r="11.9"/>
			</g>
			<g filter="url(#ds1)">
				<circle fill="#FCFBEB" cx="170.8" cy="189.1" r="8"/>
			</g>
			<g filter="url(#ds1)">
				<circle fill="#FCFBEB" cx="227.6" cy="171.2" r="8"/>
			</g>
			<g filter="url(#ds1)">
				<circle fill="#FCFBEB" cx="217.1" cy="213.1" r="8"/>
			</g>
			<g filter="url(#ds1)">
				<circle fill="#FCFBEB" cx="201.3" cy="249.8" r="8"/>
			</g>
			<g filter="url(#ds1)">
				<circle fill="#FCFBEB" cx="149.7" cy="253.1" r="8"/>
			</g>
			<g filter="url(#ds1)">
				<circle fill="#FCFBEB" cx="129.3" cy="218.7" r="8"/>
			</g>
		</g>
	</g>
	<g clip-path="url(#SVGID_1_)">
		<g>
			<g filter="url(#ds1)">
				
					<linearGradient id="SVGID_17_" gradientUnits="userSpaceOnUse" x1="404.8564" y1="120.5741" x2="463.962" y2="222.948" gradientTransform="matrix(0.9753 0.2209 -0.2209 0.9753 34.0441 -78.6395)">
					<stop  offset="0" style="stop-color:#E37A89"/>
					<stop  offset="1" style="stop-color:#BD4352"/>
				</linearGradient>
				<path fill="url(#SVGID_17_)" d="M469.2,206.8c1.2-5.3-0.1-10.9-3.5-15.1c-2.5-3.1-6.5-3.9-7.8-8c-1.4-4.3,0-6.9-1.5-13.1
					c-1.1-4.6-5.4-7.8-10-9.1c-7.7-2.2-10,1.8-13.5-2.6c-3.2-4,4.2-8.7,5.3-13.8c2.2-9.5-3.8-19-13.4-21.2
					c-9.5-2.2-19,3.8-21.2,13.4c-0.9,4,0.2,7.1,0.9,10.9c0.7,3.8-0.6,5.5-2.8,8.4c-2,2.6-3.3,5.6-4.5,8.7c-2.1,5.4-6.3,6.5-11,9.1
					c-4.4,2.4-7.5,6.7-8.6,11.5c-1.1,4.9,0,10.2,2.9,14.3c1.9,2.6,4.7,5,5.6,8.2c0.9,3.4-0.5,7.2-0.2,10.7
					c0.5,7.7,6.2,14.3,13.8,16.1c4.7,1.1,9.5-1.6,14.2-1c5.5,0.8,8.8,6.2,14.4,7.4c6.1,1.4,12.6-0.6,16.9-5.2
					c4.4-4.7,3.3-12.7,9.6-15.9C461.4,217.2,467.3,215.3,469.2,206.8z"/>
			</g>
			<g filter="url(#ds1)">
				<circle fill="#5A5A5A" cx="432.2" cy="224.4" r="11.9"/>
			</g>
			<g filter="url(#ds1)">
				<circle fill="#5A5A5A" cx="452" cy="202.8" r="11.9"/>
			</g>
			<g filter="url(#ds1)">
				<circle fill="#5A5A5A" cx="394.8" cy="190" r="11.9"/>
			</g>
			<g filter="url(#ds1)">
				<circle fill="#5A5A5A" cx="414.6" cy="168.4" r="11.9"/>
			</g>
			<g filter="url(#ds1)">
				<circle fill="#5A5A5A" cx="420.7" cy="141.2" r="11.9"/>
			</g>
			<g filter="url(#ds1)">
				<circle fill="#5A5A5A" cx="403.5" cy="218" r="11.9"/>
			</g>
			<g filter="url(#ds1)">
				<circle fill="#FCFBEB" cx="443.3" cy="174.8" r="8"/>
			</g>
			<g filter="url(#ds1)">
				<circle fill="#FCFBEB" cx="426" cy="117.7" r="8"/>
			</g>
			<g filter="url(#ds1)">
				<circle fill="#FCFBEB" cx="470.5" cy="218.3" r="8"/>
			</g>
			<g filter="url(#ds1)">
				<circle fill="#FCFBEB" cx="438.4" cy="247.6" r="8"/>
			</g>
			<g filter="url(#ds1)">
				<circle fill="#FCFBEB" cx="388" cy="236.3" r="8"/>
			</g>
		</g>
		<g>
			<g filter="url(#ds1)">
				
					<linearGradient id="SVGID_18_" gradientUnits="userSpaceOnUse" x1="303.3864" y1="97.8338" x2="362.492" y2="200.2077" gradientTransform="matrix(0.9753 0.2209 -0.2209 0.9753 34.0441 -78.6395)">
					<stop  offset="0" style="stop-color:#D8855F"/>
					<stop  offset="1" style="stop-color:#CB4A4F"/>
				</linearGradient>
				<path fill="url(#SVGID_18_)" d="M375.3,162.2c1.2-5.3-0.1-10.9-3.5-15.1c-2.5-3.1-6.5-3.9-7.8-8c-1.4-4.3,0-6.9-1.5-13.1
					c-1.1-4.6-5.4-7.8-10-9.1c-7.7-2.2-10,1.8-13.5-2.6c-3.2-4,4.2-8.7,5.3-13.8c2.2-9.5-3.8-19-13.4-21.2
					c-9.5-2.2-19,3.8-21.2,13.4c-0.9,4,0.2,7.1,0.9,10.9c0.7,3.8-0.6,5.5-2.8,8.4c-2,2.6-3.3,5.6-4.5,8.7c-2.1,5.4-6.3,6.5-11,9.1
					c-4.4,2.4-7.5,6.7-8.6,11.5c-1.1,4.9,0,10.2,2.9,14.3c1.9,2.6,4.7,5,5.6,8.2c0.9,3.4-0.5,7.2-0.2,10.7
					c0.5,7.7,6.2,14.3,13.8,16.1c4.7,1.1,9.5-1.6,14.2-1c5.5,0.8,8.8,6.2,14.4,7.4c6.1,1.4,12.6-0.6,16.9-5.2
					c4.4-4.7,3.3-12.7,9.6-15.9C367.5,172.6,373.4,170.7,375.3,162.2z"/>
			</g>
			<g filter="url(#ds1)">
				<g>
					<circle fill="#5A5A5A" cx="338.1" cy="179.8" r="11.9"/>
				</g>
				<g>
					<circle fill="#5A5A5A" cx="358" cy="158.3" r="11.9"/>
				</g>
				<g>
					<circle fill="#5A5A5A" cx="300.8" cy="145.3" r="11.9"/>
				</g>
				<g>
					<circle fill="#5A5A5A" cx="320.7" cy="123.8" r="11.9"/>
				</g>
				<g>
					<circle fill="#5A5A5A" cx="326.9" cy="96.6" r="11.9"/>
				</g>
				<g>
					<circle fill="#5A5A5A" cx="309.5" cy="173.3" r="11.9"/>
				</g>
				<g>
					<circle fill="#FCFBEB" cx="349.3" cy="130.3" r="8"/>
				</g>
				<g>
					<circle fill="#FCFBEB" cx="332.2" cy="73.1" r="8"/>
				</g>
				<g>
					<circle fill="#FCFBEB" cx="376.5" cy="173.8" r="8"/>
				</g>
				<g>
					<circle fill="#FCFBEB" cx="344.3" cy="203.1" r="8"/>
				</g>
				<g>
					<circle fill="#FCFBEB" cx="293.9" cy="191.6" r="8"/>
				</g>
				<g>
					<circle fill="#FCFBEB" cx="277.5" cy="151.4" r="8"/>
				</g>
			</g>
		</g>
	</g>
	<g clip-path="url(#SVGID_1_)">
		<g>
			<g filter="url(#ds1)">
				
					<linearGradient id="SVGID_19_" gradientUnits="userSpaceOnUse" x1="639.7073" y1="178.4777" x2="698.8129" y2="280.8516" gradientTransform="matrix(0.9724 -0.2335 0.2335 0.9724 -33.9208 136.8262)">
					<stop  offset="0" style="stop-color:#D8855F"/>
					<stop  offset="1" style="stop-color:#CB4A4F"/>
				</linearGradient>
				<path fill="url(#SVGID_19_)" d="M724.5,201.7c-1.3-5.3-4.9-9.7-9.9-12c-3.6-1.7-7.5-0.6-10.6-3.7c-3.2-3.2-3-6.2-7.2-11.1
					c-3.1-3.7-8.3-4.6-13-3.7c-7.8,1.4-8.2,6-13.3,3.6c-4.7-2.1-0.1-9.7-1.3-14.7c-2.3-9.5-11.9-15.4-21.3-13.1
					c-9.5,2.3-15.4,11.9-13.1,21.3c1,4,3.3,6.2,5.7,9.4c2.3,3.1,1.9,5.2,1.2,8.8c-0.7,3.3-0.5,6.5-0.2,9.8c0.5,5.8-2.8,8.6-5.8,13.1
					c-2.8,4.1-3.8,9.3-2.6,14.2c1.2,4.9,4.5,9.1,8.9,11.5c2.8,1.5,6.4,2.4,8.6,4.8c2.3,2.6,2.8,6.7,4.5,9.7
					c3.9,6.7,11.9,10.1,19.4,8.3c4.7-1.1,7.8-5.6,12.3-7.1c5.3-1.8,10.7,1.6,16.2,0.3c6.1-1.5,11-6.2,12.8-12.2
					c1.8-6.1-2.7-12.9,1.6-18.5C722.1,214.4,726.6,210.1,724.5,201.7z"/>
			</g>
			<g filter="url(#ds1)">
				<g>
					<circle fill="#5A5A5A" cx="699" cy="233.9" r="11.9"/>
				</g>
				<g>
					<circle fill="#5A5A5A" cx="707.3" cy="205.8" r="11.9"/>
				</g>
				<g>
					<circle fill="#5A5A5A" cx="650.3" cy="219.5" r="11.9"/>
				</g>
				<g>
					<circle fill="#5A5A5A" cx="658.6" cy="191.4" r="11.9"/>
				</g>
				<g>
					<circle fill="#5A5A5A" cx="652.1" cy="164.2" r="11.9"/>
				</g>
				<g>
					<circle fill="#5A5A5A" cx="670.5" cy="240.8" r="11.9"/>
				</g>
				<g>
					<circle fill="#FCFBEB" cx="687.1" cy="184.5" r="8"/>
				</g>
				<g>
					<circle fill="#FCFBEB" cx="646.5" cy="140.8" r="8"/>
				</g>
				<g>
					<circle fill="#FCFBEB" cx="730.7" cy="211.6" r="8"/>
				</g>
				<g>
					<circle fill="#FCFBEB" cx="714.8" cy="252" r="8"/>
				</g>
				<g>
					<circle fill="#FCFBEB" cx="664.6" cy="264.1" r="8"/>
				</g>
			</g>
		</g>
		<g>
			<g filter="url(#ds1)">
				
					<linearGradient id="SVGID_20_" gradientUnits="userSpaceOnUse" x1="538.2285" y1="178.4777" x2="597.334" y2="280.8516" gradientTransform="matrix(0.9724 -0.2335 0.2335 0.9724 -33.9208 136.8262)">
					<stop  offset="0" style="stop-color:#D8855F"/>
					<stop  offset="1" style="stop-color:#CB4A4F"/>
				</linearGradient>
				<path fill="url(#SVGID_20_)" d="M625.9,225.4c-1.3-5.3-4.9-9.7-9.9-12c-3.6-1.7-7.5-0.6-10.6-3.7c-3.2-3.2-3-6.2-7.2-11.1
					c-3.1-3.7-8.3-4.6-13-3.7c-7.8,1.4-8.2,6-13.3,3.6c-4.7-2.1-0.1-9.7-1.3-14.7c-2.3-9.5-11.9-15.4-21.3-13.1
					c-9.5,2.3-15.4,11.9-13.1,21.3c1,4,3.3,6.2,5.7,9.4c2.3,3.1,1.9,5.2,1.2,8.8c-0.7,3.3-0.5,6.5-0.2,9.8c0.5,5.8-2.8,8.6-5.8,13.1
					c-2.8,4.1-3.8,9.3-2.6,14.2c1.2,4.9,4.5,9.1,8.9,11.5c2.8,1.5,6.4,2.4,8.6,4.8c2.3,2.6,2.8,6.7,4.5,9.7
					c3.9,6.7,11.9,10.1,19.4,8.3c4.7-1.1,7.8-5.6,12.3-7.1c5.3-1.8,10.7,1.6,16.2,0.3c6.1-1.5,11-6.2,12.8-12.2
					c1.8-6.1-2.7-12.9,1.6-18.5C623.4,238.1,627.9,233.8,625.9,225.4z"/>
			</g>
			<g filter="url(#ds1)">
				<g>
					<circle fill="#5A5A5A" cx="600.3" cy="257.6" r="11.9"/>
				</g>
				<g>
					<circle fill="#5A5A5A" cx="608.6" cy="229.5" r="11.9"/>
				</g>
				<g>
					<circle fill="#5A5A5A" cx="551.6" cy="243.2" r="11.9"/>
				</g>
				<g>
					<circle fill="#5A5A5A" cx="559.9" cy="215.1" r="11.9"/>
				</g>
				<g>
					<circle fill="#5A5A5A" cx="553.4" cy="187.9" r="11.9"/>
				</g>
				<g>
					<circle fill="#5A5A5A" cx="571.8" cy="264.5" r="11.9"/>
				</g>
				<g>
					<circle fill="#FCFBEB" cx="588.4" cy="208.2" r="8"/>
				</g>
				<g>
					<circle fill="#FCFBEB" cx="547.8" cy="164.5" r="8"/>
				</g>
				<g>
					<circle fill="#FCFBEB" cx="632" cy="235.3" r="8"/>
				</g>
				<g>
					<circle fill="#FCFBEB" cx="616.2" cy="275.7" r="8"/>
				</g>
				<g>
					<circle fill="#FCFBEB" cx="565.9" cy="287.8" r="8"/>
				</g>
				<g>
					<circle fill="#FCFBEB" cx="533.4" cy="259" r="8"/>
				</g>
			</g>
		</g>
	</g>
	<g clip-path="url(#SVGID_1_)">
		<g>
			<g filter="url(#ds1)">
				
					<linearGradient id="SVGID_21_" gradientUnits="userSpaceOnUse" x1="474.6335" y1="15.1655" x2="533.7391" y2="117.5394" gradientTransform="matrix(0.9849 0.1732 -0.1732 0.9849 22.6661 -116.9146)">
					<stop  offset="0" style="stop-color:#D8855F"/>
					<stop  offset="1" style="stop-color:#CB4A4F"/>
				</linearGradient>
				<path fill="url(#SVGID_21_)" d="M558.2,55.2c0.9-5.3-0.7-10.9-4.3-14.9c-2.7-3-6.6-3.5-8.2-7.6c-1.6-4.2-0.3-6.8-2.2-13
					c-1.4-4.6-5.8-7.5-10.5-8.6c-7.8-1.8-9.9,2.2-13.6-1.9c-3.4-3.8,3.7-8.9,4.6-14c1.7-9.6-4.8-18.8-14.4-20.5
					c-9.6-1.7-18.8,4.8-20.5,14.4c-0.7,4.1,0.6,7.1,1.4,10.9c0.9,3.8-0.3,5.5-2.4,8.5c-1.9,2.7-3,5.8-4.1,8.9
					c-1.8,5.5-6,6.8-10.5,9.6c-4.2,2.6-7.2,7-8.1,11.9c-0.9,5,0.5,10.2,3.6,14.1c2,2.5,5,4.7,6,7.9c1.1,3.4-0.1,7.2,0.3,10.7
					c0.9,7.7,6.9,14,14.5,15.4c4.7,0.8,9.4-2.1,14.2-1.6c5.6,0.5,9.1,5.7,14.7,6.7c6.2,1.1,12.6-1.3,16.6-6
					c4.1-4.9,2.7-12.9,8.8-16.3C550.9,66,556.7,63.8,558.2,55.2z"/>
			</g>
			<g filter="url(#ds1)">
				<g>
					<circle fill="#5A5A5A" cx="521.9" cy="74.7" r="11.9"/>
				</g>
				<g>
					<circle fill="#5A5A5A" cx="540.8" cy="52.2" r="11.9"/>
				</g>
				<g>
					<circle fill="#5A5A5A" cx="483" cy="42" r="11.9"/>
				</g>
				<g>
					<circle fill="#5A5A5A" cx="501.8" cy="19.5" r="11.9"/>
				</g>
				<g>
					<circle fill="#5A5A5A" cx="506.7" cy="-7.9" r="11.9"/>
				</g>
				<g>
					<circle fill="#5A5A5A" cx="493" cy="69.6" r="11.9"/>
				</g>
				<g>
					<circle fill="#FCFBEB" cx="530.7" cy="24.6" r="8"/>
				</g>
				<g>
					<circle fill="#FCFBEB" cx="529.3" cy="97.6" r="8"/>
				</g>
				<g>
					<circle fill="#FCFBEB" cx="478.3" cy="88.6" r="8"/>
				</g>
				<g>
					<circle fill="#FCFBEB" cx="460" cy="49.3" r="8"/>
				</g>
			</g>
		</g>
		<g>
			<g filter="url(#ds1)">
				
					<linearGradient id="SVGID_22_" gradientUnits="userSpaceOnUse" x1="883.7838" y1="15.1655" x2="942.8894" y2="117.5394" gradientTransform="matrix(0.9849 0.1732 -0.1732 0.9849 22.6661 -116.9146)">
					<stop  offset="0" style="stop-color:#D8855F"/>
					<stop  offset="1" style="stop-color:#CB4A4F"/>
				</linearGradient>
				<path fill="url(#SVGID_22_)" d="M961.2,126.1c0.9-5.3-0.7-10.9-4.3-14.9c-2.7-3-6.6-3.5-8.2-7.6c-1.6-4.2-0.3-6.8-2.2-13
					c-1.4-4.6-5.8-7.5-10.5-8.6c-7.8-1.8-9.9,2.2-13.6-1.9c-3.4-3.8,3.7-8.9,4.6-14c1.7-9.6-4.8-18.8-14.4-20.5
					c-9.6-1.7-18.8,4.8-20.5,14.4c-0.7,4.1,0.6,7.1,1.4,10.9c0.9,3.8-0.3,5.5-2.4,8.5c-1.9,2.7-3,5.8-4.1,8.9
					c-1.8,5.5-6,6.8-10.5,9.6c-4.2,2.6-7.2,7-8.1,11.9c-0.9,5,0.5,10.2,3.6,14.1c2,2.5,5,4.7,6,7.9c1.1,3.4-0.1,7.2,0.3,10.7
					c0.9,7.7,6.9,14,14.5,15.4c4.7,0.8,9.4-2.1,14.2-1.6c5.6,0.5,9.1,5.7,14.7,6.7c6.2,1.1,12.6-1.3,16.6-6
					c4.1-4.9,2.7-12.9,8.8-16.3C953.9,136.9,959.7,134.7,961.2,126.1z"/>
			</g>
			<g filter="url(#ds1)">
				<g>
					<circle fill="#5A5A5A" cx="924.9" cy="145.5" r="11.9"/>
				</g>
				<g>
					<circle fill="#5A5A5A" cx="886" cy="112.9" r="11.9"/>
				</g>
				<g>
					<circle fill="#5A5A5A" cx="904.8" cy="90.4" r="11.9"/>
				</g>
				<g>
					<circle fill="#5A5A5A" cx="909.6" cy="62.9" r="11.9"/>
				</g>
				<g>
					<circle fill="#5A5A5A" cx="896" cy="140.4" r="11.9"/>
				</g>
				<g>
					<circle fill="#FCFBEB" cx="913.8" cy="39.2" r="8"/>
				</g>
				<g>
					<circle fill="#FCFBEB" cx="881.3" cy="159.5" r="8"/>
				</g>
			</g>
		</g>
		<g>
			<g filter="url(#ds1)">
				
					<linearGradient id="SVGID_23_" gradientUnits="userSpaceOnUse" x1="780.7044" y1="15.1655" x2="839.81" y2="117.5394" gradientTransform="matrix(0.9849 0.1732 -0.1732 0.9849 22.6661 -116.9146)">
					<stop  offset="0" style="stop-color:#D8855F"/>
					<stop  offset="1" style="stop-color:#CB4A4F"/>
				</linearGradient>
				<path fill="url(#SVGID_23_)" d="M859.7,108.2c0.9-5.3-0.7-10.9-4.3-14.9c-2.7-3-6.6-3.5-8.2-7.6c-1.6-4.2-0.3-6.8-2.2-13
					c-1.4-4.6-5.8-7.5-10.5-8.6c-7.8-1.8-9.9,2.2-13.6-1.9c-3.4-3.8,3.7-8.9,4.6-14c1.7-9.6-4.8-18.8-14.4-20.5
					c-9.6-1.7-18.8,4.8-20.5,14.4c-0.7,4.1,0.6,7.1,1.4,10.9c0.9,3.8-0.3,5.5-2.4,8.5c-1.9,2.7-3,5.8-4.1,8.9
					c-1.8,5.5-6,6.8-10.5,9.6c-4.2,2.6-7.2,7-8.1,11.9c-0.9,5,0.5,10.2,3.6,14.1c2,2.5,5,4.7,6,7.9c1.1,3.4-0.1,7.2,0.3,10.7
					c0.9,7.7,6.9,14,14.5,15.4c4.7,0.8,9.4-2.1,14.2-1.6c5.6,0.5,9.1,5.7,14.7,6.7c6.2,1.1,12.6-1.3,16.6-6
					c4.1-4.9,2.7-12.9,8.8-16.3C852.4,119,858.2,116.8,859.7,108.2z"/>
			</g>
			<g filter="url(#ds1)">
				<g>
					<circle fill="#5A5A5A" cx="823.4" cy="127.7" r="11.9"/>
				</g>
				<g>
					<circle fill="#5A5A5A" cx="842.2" cy="105.2" r="11.9"/>
				</g>
				<g>
					<circle fill="#5A5A5A" cx="784.4" cy="95" r="11.9"/>
				</g>
				<g>
					<circle fill="#5A5A5A" cx="803.3" cy="72.5" r="11.9"/>
				</g>
				<g>
					<circle fill="#5A5A5A" cx="808.1" cy="45.1" r="11.9"/>
				</g>
				<g>
					<circle fill="#5A5A5A" cx="794.5" cy="122.6" r="11.9"/>
				</g>
				<g>
					<circle fill="#FCFBEB" cx="832.2" cy="77.6" r="8"/>
				</g>
				<g>
					<circle fill="#FCFBEB" cx="812.3" cy="21.3" r="8"/>
				</g>
				<g>
					<circle fill="#FCFBEB" cx="861.4" cy="119.8" r="8"/>
				</g>
				<g>
					<circle fill="#FCFBEB" cx="830.7" cy="150.6" r="8"/>
				</g>
				<g>
					<circle fill="#FCFBEB" cx="779.8" cy="141.6" r="8"/>
				</g>
			</g>
		</g>
		<g>
			<g filter="url(#ds1)">
				
					<linearGradient id="SVGID_24_" gradientUnits="userSpaceOnUse" x1="677.625" y1="15.1655" x2="736.7306" y2="117.5394" gradientTransform="matrix(0.9849 0.1732 -0.1732 0.9849 22.6661 -116.9146)">
					<stop  offset="0" style="stop-color:#D8855F"/>
					<stop  offset="1" style="stop-color:#CB4A4F"/>
				</linearGradient>
				<path fill="url(#SVGID_24_)" d="M758.1,90.4c0.9-5.3-0.7-10.9-4.3-14.9c-2.7-3-6.6-3.5-8.2-7.6c-1.6-4.2-0.3-6.8-2.2-13
					c-1.4-4.6-5.8-7.5-10.5-8.6c-7.8-1.8-9.9,2.2-13.6-1.9c-3.4-3.8,3.7-8.9,4.6-14c1.7-9.6-4.8-18.8-14.4-20.5
					c-9.6-1.7-18.8,4.8-20.5,14.4c-0.7,4.1,0.6,7.1,1.4,10.9c0.9,3.8-0.3,5.5-2.4,8.5c-1.9,2.7-3,5.8-4.1,8.9
					c-1.8,5.5-6,6.8-10.5,9.6c-4.2,2.6-7.2,7-8.1,11.9c-0.9,5,0.5,10.2,3.6,14.1c2,2.5,5,4.7,6,7.9c1.1,3.4-0.1,7.2,0.3,10.7
					c0.9,7.7,6.9,14,14.5,15.4c4.7,0.8,9.4-2.1,14.2-1.6c5.6,0.5,9.1,5.7,14.7,6.7c6.2,1.1,12.6-1.3,16.6-6
					c4.1-4.9,2.7-12.9,8.8-16.3C750.8,101.2,756.6,99,758.1,90.4z"/>
			</g>
			<g filter="url(#ds1)">
				<g>
					<circle fill="#5A5A5A" cx="721.9" cy="109.8" r="11.9"/>
				</g>
				<g>
					<circle fill="#5A5A5A" cx="740.7" cy="87.3" r="11.9"/>
				</g>
				<g>
					<circle fill="#5A5A5A" cx="682.9" cy="77.2" r="11.9"/>
				</g>
				<g>
					<circle fill="#5A5A5A" cx="701.8" cy="54.7" r="11.9"/>
				</g>
				<g>
					<circle fill="#5A5A5A" cx="706.6" cy="27.2" r="11.9"/>
				</g>
				<g>
					<circle fill="#5A5A5A" cx="693" cy="104.7" r="11.9"/>
				</g>
				<g>
					<circle fill="#FCFBEB" cx="730.7" cy="59.8" r="8"/>
				</g>
				<g>
					<circle fill="#FCFBEB" cx="710.8" cy="3.5" r="8"/>
				</g>
				<g>
					<circle fill="#FCFBEB" cx="759.9" cy="102" r="8"/>
				</g>
				<g>
					<circle fill="#FCFBEB" cx="729.2" cy="132.7" r="8"/>
				</g>
				<g>
					<circle fill="#FCFBEB" cx="678.3" cy="123.8" r="8"/>
				</g>
			</g>
		</g>
		<g>
			<g filter="url(#ds1)">
				
					<linearGradient id="SVGID_25_" gradientUnits="userSpaceOnUse" x1="576.1462" y1="15.1655" x2="635.2518" y2="117.5394" gradientTransform="matrix(0.9849 0.1732 -0.1732 0.9849 22.6661 -116.9146)">
					<stop  offset="0" style="stop-color:#D8855F"/>
					<stop  offset="1" style="stop-color:#CB4A4F"/>
				</linearGradient>
				<path fill="url(#SVGID_25_)" d="M658.2,72.8c0.9-5.3-0.7-10.9-4.3-14.9c-2.7-3-6.6-3.5-8.2-7.6c-1.6-4.2-0.3-6.8-2.2-13
					c-1.4-4.6-5.8-7.5-10.5-8.6c-7.8-1.8-9.9,2.2-13.6-1.9c-3.4-3.8,3.7-8.9,4.6-14c1.7-9.6-4.8-18.8-14.4-20.5
					c-9.6-1.7-18.8,4.8-20.5,14.4c-0.7,4.1,0.6,7.1,1.4,10.9c0.9,3.8-0.3,5.5-2.4,8.5c-1.9,2.7-3,5.8-4.1,8.9
					c-1.8,5.5-6,6.8-10.5,9.6c-4.2,2.6-7.2,7-8.1,11.9c-0.9,5,0.5,10.2,3.6,14.1c2,2.5,5,4.7,6,7.9c1.1,3.4-0.1,7.2,0.3,10.7
					c0.9,7.7,6.9,14,14.5,15.4c4.7,0.8,9.4-2.1,14.2-1.6c5.6,0.5,9.1,5.7,14.7,6.7c6.2,1.1,12.6-1.3,16.6-6
					c4.1-4.9,2.7-12.9,8.8-16.3C650.9,83.6,656.7,81.4,658.2,72.8z"/>
			</g>
			<g filter="url(#ds1)">
				<g>
					<circle fill="#5A5A5A" cx="621.9" cy="92.2" r="11.9"/>
				</g>
				<g>
					<circle fill="#5A5A5A" cx="640.8" cy="69.8" r="11.9"/>
				</g>
				<g>
					<circle fill="#5A5A5A" cx="583" cy="59.6" r="11.9"/>
				</g>
				<g>
					<circle fill="#5A5A5A" cx="601.8" cy="37.1" r="11.9"/>
				</g>
				<g>
					<circle fill="#5A5A5A" cx="606.7" cy="9.6" r="11.9"/>
				</g>
				<g>
					<circle fill="#5A5A5A" cx="593" cy="87.2" r="11.9"/>
				</g>
				<g>
					<circle fill="#FCFBEB" cx="630.7" cy="42.2" r="8"/>
				</g>
				<g>
					<circle fill="#FCFBEB" cx="659.9" cy="84.4" r="8"/>
				</g>
				<g>
					<circle fill="#FCFBEB" cx="629.2" cy="115.2" r="8"/>
				</g>
				<g>
					<circle fill="#FCFBEB" cx="578.3" cy="106.2" r="8"/>
				</g>
				<g>
					<circle fill="#FCFBEB" cx="560" cy="66.8" r="8"/>
				</g>
			</g>
		</g>
	</g>
	<line clip-path="url(#SVGID_1_)" fill="none" stroke="#FFFFFF" stroke-width="10" x1="0" y1="326.2" x2="920" y2="326.2"/>
	<g clip-path="url(#SVGID_1_)">
		<g>
			<path fill="#FFFFFF" d="M96.3,285.9v1.2c0,1,1.3,1.7,2.8,1.7c1.6,0,2.8-0.7,2.8-2c0-1.6-1.8-2.2-3.7-2.9
				c-2.2-0.8-4.3-1.8-4.3-4.7c0-3.3,2.6-4.5,5.4-4.5c2.6,0,5.1,1,5.1,2.8v2.1h-2.7v-1.1c0-0.8-1.2-1.3-2.4-1.3
				c-1.3,0-2.4,0.5-2.4,1.8c0,1.5,1.5,2,3.2,2.6c2.4,0.8,4.8,1.8,4.8,4.9c0,3.3-2.8,4.8-5.8,4.8c-2.7,0-5.6-1.2-5.6-3.6v-1.8H96.3z"
				/>
			<path fill="#FFFFFF" d="M108.9,281.7H107v-2.2h4.7v7c0,1.4,0.4,2.3,1.8,2.3c2,0,3.2-2.1,3.2-4.1v-3H115v-2.2h4.7v9
				c0,0.3,0.2,0.5,0.5,0.5h1.1v2.1h-2.9c-1,0-1.5-0.5-1.5-1.3v-0.4c0-0.2,0-0.3,0-0.4v-0.2h0c-0.1,0.4-1.3,2.6-4.2,2.6
				c-2.3,0-3.8-1.3-3.8-4.4V281.7z"/>
			<path fill="#FFFFFF" d="M129.6,279.2c1.9,0,4.8,0.7,4.8,2.8v1.6h-2.5v-0.8c0-0.8-1.2-1.1-2.2-1.1c-2.1,0-3.4,1.5-3.4,3.6
				c0,2.4,1.7,3.7,3.6,3.7c1.6,0,3-0.9,3.6-1.4l1,2.1c-0.8,0.8-2.6,1.8-4.8,1.8c-3.4,0-6.4-2.3-6.4-6.1
				C123.3,281.9,126,279.2,129.6,279.2z"/>
			<path fill="#FFFFFF" d="M136.9,289h1.7v-6.8c0-0.3-0.2-0.5-0.5-0.5h-1.3v-2.2h3c1,0,1.5,0.5,1.5,1.4v0.7c0,0.2,0,0.4,0,0.5
				c0,0.1,0,0.1,0,0.2h0c0.5-1.7,1.9-3,3.7-3c0.2,0,0.3,0,0.4,0c0.1,0,0.1,0,0.2,0v2.8c-0.1,0-0.1,0-0.2,0c-0.2,0-0.3,0-0.5,0
				c-2.3,0-3.4,2.1-3.4,4.2v2.5h1.7v2.2h-6.2V289z"/>
			<path fill="#FFFFFF" d="M153.7,279.2c3.6,0,6.4,2.5,6.4,6.1c0,3.6-2.8,6.1-6.4,6.1c-3.6,0-6.4-2.5-6.4-6.1
				C147.3,281.8,150.2,279.2,153.7,279.2z M153.7,288.9c1.9,0,3.4-1.5,3.4-3.6c0-2.1-1.5-3.6-3.4-3.6s-3.5,1.5-3.5,3.6
				C150.3,287.5,151.8,288.9,153.7,288.9z"/>
			<path fill="#FFFFFF" d="M162.2,287.2h2.5v0.7c0,0.8,1.1,1.2,2.3,1.2c1.2,0,2-0.4,2-1.2c0-1-1.1-1.3-2.6-1.8
				c-1.7-0.6-3.7-1.4-3.7-3.6c0-2.5,2.5-3.3,4.6-3.3c1.7,0,4.2,0.7,4.2,2.4v1.5h-2.5v-0.7c0-0.6-0.7-1-1.7-1c-0.9,0-1.7,0.3-1.7,1
				c0,1,1.1,1.4,2.4,1.7c1.8,0.5,3.9,1.3,3.9,3.6c0,2.4-2.2,3.5-4.9,3.5c-2.1,0-4.7-0.9-4.7-2.8V287.2z"/>
			<path fill="#FFFFFF" d="M180,279.2c3.4,0,5.2,2.4,5.2,5.5c0,0.2,0,0.4,0,0.6l0,0.4h-8c0.2,2.1,1.7,3.2,3.5,3.2
				c1,0,1.8-0.3,2.4-0.6c0.4-0.2,0.7-0.4,1-0.6l1.1,2.1c-0.3,0.3-0.8,0.5-1.3,0.8c-0.8,0.4-2,0.8-3.4,0.8c-3.9,0-6.2-2.8-6.2-6.1
				C174,281.7,176.5,279.2,180,279.2z M182.1,284c-0.1-1.6-1-2.6-2.3-2.6c-1.5,0-2.5,1-2.8,2.6H182.1z"/>
		</g>
	</g>
	<g clip-path="url(#SVGID_1_)">
		<g>
			<path fill="#FFFFFF" d="M278.1,233.2h1.9v-11.6h-1.9v-2.4h6.9v2.4h-2v11.4h4.8v-2.5h2.6v4.9h-12.3V233.2z"/>
			<path fill="#FFFFFF" d="M298.7,228.3h0.7v-0.4c0-1.5-0.9-2-2.1-2c-0.9,0-1.7,0.3-2.3,0.5c-0.4,0.2-0.7,0.4-1,0.6l-1.1-2
				c0.4-0.3,0.8-0.5,1.3-0.7c0.8-0.4,2-0.7,3.4-0.7c3.1,0,4.8,1.6,4.8,4.6v4.7c0,0.3,0.2,0.5,0.5,0.5h1v2.2h-2.7
				c-1.1,0-1.5-0.6-1.5-1.2v-0.1c0-0.2,0-0.3,0-0.4c0-0.1,0-0.1,0-0.2h0c-0.2,0.4-0.5,0.8-0.8,1.1c-0.6,0.6-1.5,1.1-2.8,1.1
				c-2,0-3.9-1.2-3.9-3.5C292.1,228.6,296.8,228.3,298.7,228.3z M296.7,233.6c1.6,0,2.7-1.7,2.7-3.1V230h-0.5
				c-1.2,0-3.9,0.2-3.9,1.9C295,232.9,295.7,233.6,296.7,233.6z"/>
			<path fill="#FFFFFF" d="M312,223.6c1.9,0,4.8,0.7,4.8,2.8v1.6h-2.5v-0.8c0-0.8-1.2-1.1-2.2-1.1c-2.1,0-3.4,1.5-3.4,3.6
				c0,2.4,1.7,3.7,3.6,3.7c1.6,0,3-0.9,3.6-1.4l1,2.1c-0.8,0.8-2.6,1.8-4.8,1.8c-3.4,0-6.4-2.3-6.4-6.1
				C305.7,226.2,308.4,223.6,312,223.6z"/>
			<path fill="#FFFFFF" d="M320.4,226h-1.8v-2.2h1.9v-3.2h2.8v3.2h2.6v2.2h-2.6v4.9c0,2,1.5,2.3,2.3,2.3c0.2,0,0.3,0,0.4,0h0.1v2.4
				l-0.3,0c-0.2,0-0.4,0-0.6,0c-1.6,0-4.9-0.5-4.9-4.4V226z"/>
			<path fill="#FFFFFF" d="M334.6,223.6c3.6,0,6.4,2.5,6.4,6.1c0,3.6-2.8,6.1-6.4,6.1c-3.6,0-6.4-2.5-6.4-6.1
				C328.2,226.1,331.1,223.6,334.6,223.6z M334.6,233.3c1.9,0,3.4-1.5,3.4-3.6c0-2.1-1.5-3.6-3.4-3.6s-3.5,1.5-3.5,3.6
				C331.2,231.8,332.8,233.3,334.6,233.3z"/>
			<path fill="#FFFFFF" d="M343.2,231.6h2.5v0.7c0,0.8,1.1,1.2,2.3,1.2c1.2,0,2-0.4,2-1.2c0-1-1.1-1.3-2.6-1.8
				c-1.7-0.6-3.7-1.4-3.7-3.6c0-2.5,2.5-3.3,4.6-3.3c1.7,0,4.2,0.7,4.2,2.4v1.5h-2.5v-0.7c0-0.6-0.7-1-1.7-1c-0.9,0-1.7,0.3-1.7,1
				c0,1,1.1,1.4,2.4,1.7c1.8,0.5,3.9,1.3,3.9,3.6c0,2.4-2.2,3.5-4.9,3.5c-2.1,0-4.7-0.9-4.7-2.8V231.6z"/>
			<path fill="#FFFFFF" d="M360.9,223.6c3.4,0,5.2,2.4,5.2,5.5c0,0.2,0,0.4,0,0.6l0,0.4h-8c0.2,2.1,1.7,3.2,3.5,3.2
				c1,0,1.8-0.3,2.4-0.6c0.4-0.2,0.7-0.4,1-0.6l1.1,2.1c-0.3,0.3-0.8,0.5-1.3,0.8c-0.8,0.4-2,0.8-3.4,0.8c-3.9,0-6.2-2.8-6.2-6.1
				C355,226.1,357.4,223.6,360.9,223.6z M363.1,228.3c-0.1-1.6-1-2.6-2.3-2.6c-1.5,0-2.5,1-2.8,2.6H363.1z"/>
		</g>
	</g>
	<g clip-path="url(#SVGID_1_)">
		<g>
			<path fill="#FFFFFF" d="M638,294.6h1.9l1-11.7h-2v-2.3h5.3l3.6,9.1c0.2,0.4,0.2,0.7,0.3,1l0.1,0.4h0l0.1-0.4
				c0.1-0.3,0.2-0.6,0.3-1l3.6-9.1h5.3v2.3h-1.9l0.9,11.7h1.9v2.2h-6.6v-2.2h1.8l-0.6-8.2c0-0.3,0-0.7,0-1l0-0.5H653
				c0,0.2-0.1,0.3-0.1,0.5c-0.1,0.3-0.2,0.7-0.3,0.9l-3.1,7.5H647l-3.1-7.5c-0.1-0.3-0.2-0.6-0.2-0.9c0-0.2-0.1-0.3-0.1-0.5h-0.1
				l0,0.5c0,0.3,0,0.7,0,1l-0.6,8.2h1.8v2.2H638V294.6z"/>
			<path fill="#FFFFFF" d="M667,289.7h0.7v-0.4c0-1.5-0.9-2-2.1-2c-0.9,0-1.7,0.3-2.3,0.5c-0.4,0.2-0.7,0.4-1,0.6l-1.1-2
				c0.4-0.3,0.8-0.5,1.3-0.7c0.8-0.4,2-0.7,3.4-0.7c3.1,0,4.8,1.6,4.8,4.6v4.7c0,0.3,0.2,0.5,0.5,0.5h1v2.2h-2.7
				c-1.1,0-1.5-0.6-1.5-1.2v-0.1c0-0.2,0-0.3,0-0.4c0-0.1,0-0.1,0-0.2h0c-0.2,0.4-0.5,0.8-0.8,1.1c-0.6,0.6-1.5,1.1-2.8,1.1
				c-2,0-3.9-1.2-3.9-3.5C660.5,290.1,665.2,289.7,667,289.7z M665.1,295c1.6,0,2.7-1.7,2.7-3.1v-0.4h-0.5c-1.2,0-3.9,0.2-3.9,1.9
				C663.4,294.3,664,295,665.1,295z"/>
			<path fill="#FFFFFF" d="M674.9,282.9h-1.8v-2.2h4.7V293c0,1.1,0.2,1.6,1.2,1.6c0.2,0,0.3,0,0.4,0h0.2v2.3l-0.3,0
				c-0.2,0-0.4,0-0.7,0c-1.8,0-3.6-0.6-3.6-3.8V282.9z"/>
			<path fill="#FFFFFF" d="M682.9,287.4h-1.8v-2.2h1.9v-3.2h2.8v3.2h2.6v2.2h-2.6v4.9c0,2,1.5,2.3,2.3,2.3c0.2,0,0.3,0,0.4,0h0.1
				v2.4l-0.3,0c-0.2,0-0.4,0-0.6,0c-1.6,0-4.9-0.5-4.9-4.4V287.4z"/>
			<path fill="#FFFFFF" d="M697,285c3.6,0,6.4,2.5,6.4,6.1c0,3.6-2.8,6.1-6.4,6.1c-3.6,0-6.4-2.5-6.4-6.1
				C690.7,287.5,693.5,285,697,285z M697.1,294.7c1.9,0,3.4-1.5,3.4-3.6c0-2.1-1.5-3.6-3.4-3.6c-1.9,0-3.5,1.5-3.5,3.6
				C693.6,293.2,695.2,294.7,697.1,294.7z"/>
			<path fill="#FFFFFF" d="M705.6,293h2.5v0.7c0,0.8,1.1,1.2,2.3,1.2c1.2,0,2-0.4,2-1.2c0-1-1.1-1.3-2.6-1.8
				c-1.7-0.6-3.7-1.4-3.7-3.6c0-2.5,2.5-3.3,4.6-3.3c1.7,0,4.2,0.7,4.2,2.4v1.5h-2.5v-0.7c0-0.6-0.7-1-1.7-1c-0.9,0-1.7,0.3-1.7,1
				c0,1,1.1,1.4,2.4,1.7c1.8,0.5,3.9,1.3,3.9,3.6c0,2.4-2.2,3.5-4.9,3.5c-2.1,0-4.7-0.9-4.7-2.8V293z"/>
			<path fill="#FFFFFF" d="M723.3,285c3.4,0,5.2,2.4,5.2,5.5c0,0.2,0,0.4,0,0.6l0,0.4h-8c0.2,2.1,1.7,3.2,3.5,3.2
				c1,0,1.8-0.3,2.4-0.6c0.4-0.2,0.7-0.4,1-0.6l1.1,2.1c-0.3,0.3-0.8,0.5-1.3,0.8c-0.8,0.4-2,0.8-3.4,0.8c-3.9,0-6.2-2.8-6.2-6.1
				C717.4,287.5,719.8,285,723.3,285z M725.5,289.8c-0.1-1.6-1-2.6-2.3-2.6c-1.5,0-2.5,1-2.8,2.6H725.5z"/>
		</g>
	</g>
	<g clip-path="url(#SVGID_1_)">
		<g>
			<path fill="#FFFFFF" d="M794.9,179v1.2c0,1,1.3,1.7,2.8,1.7c1.6,0,2.8-0.7,2.8-2c0-1.6-1.8-2.2-3.7-2.9c-2.2-0.8-4.3-1.8-4.3-4.7
				c0-3.3,2.6-4.5,5.4-4.5c2.6,0,5.1,1,5.1,2.8v2.1h-2.7v-1.1c0-0.8-1.2-1.3-2.4-1.3c-1.3,0-2.4,0.5-2.4,1.8c0,1.5,1.5,2,3.2,2.6
				c2.4,0.8,4.8,1.8,4.8,4.9c0,3.3-2.8,4.8-5.8,4.8c-2.7,0-5.6-1.2-5.6-3.6V179H794.9z"/>
			<path fill="#FFFFFF" d="M807.4,174.7h-1.8v-2.2h1.9v-3.2h2.8v3.2h2.6v2.2h-2.6v4.9c0,2,1.5,2.3,2.3,2.3c0.2,0,0.3,0,0.4,0h0.1
				v2.4l-0.3,0c-0.2,0-0.4,0-0.6,0c-1.6,0-4.9-0.5-4.9-4.4V174.7z"/>
			<path fill="#FFFFFF" d="M821.6,177h0.7v-0.4c0-1.5-0.9-2-2.1-2c-0.9,0-1.7,0.3-2.3,0.5c-0.4,0.2-0.7,0.4-1,0.6l-1.1-2
				c0.4-0.3,0.8-0.5,1.3-0.7c0.8-0.4,2-0.7,3.4-0.7c3.1,0,4.8,1.6,4.8,4.6v4.7c0,0.3,0.2,0.5,0.5,0.5h1v2.2h-2.7
				c-1.1,0-1.5-0.6-1.5-1.2v-0.1c0-0.2,0-0.3,0-0.4c0-0.1,0-0.1,0-0.2h0c-0.2,0.4-0.5,0.8-0.8,1.1c-0.6,0.6-1.5,1.1-2.8,1.1
				c-2,0-3.9-1.2-3.9-3.5C815.1,177.4,819.8,177,821.6,177z M819.7,182.3c1.6,0,2.7-1.7,2.7-3.1v-0.4h-0.5c-1.2,0-3.9,0.2-3.9,1.9
				C818,181.6,818.6,182.3,819.7,182.3z"/>
			<path fill="#FFFFFF" d="M828.9,182h1.7v-6.8c0-0.3-0.2-0.5-0.5-0.5h-1.3v-2.2h3c1,0,1.5,0.5,1.5,1.4v0.7c0,0.2,0,0.4,0,0.5
				c0,0.1,0,0.1,0,0.2h0c0.5-1.7,1.9-3,3.7-3c0.2,0,0.3,0,0.4,0c0.1,0,0.1,0,0.2,0v2.8c-0.1,0-0.1,0-0.2,0c-0.2,0-0.3,0-0.5,0
				c-2.3,0-3.4,2.1-3.4,4.2v2.5h1.7v2.2h-6.2V182z"/>
			<path fill="#FFFFFF" d="M845.6,172.3c1.9,0,4.8,0.7,4.8,2.8v1.6h-2.5v-0.8c0-0.8-1.2-1.1-2.2-1.1c-2.1,0-3.4,1.5-3.4,3.6
				c0,2.4,1.7,3.7,3.6,3.7c1.6,0,3-0.9,3.6-1.4l1,2.1c-0.8,0.8-2.6,1.8-4.8,1.8c-3.4,0-6.4-2.3-6.4-6.1
				C839.4,174.9,842,172.3,845.6,172.3z"/>
			<path fill="#FFFFFF" d="M852.5,182h1.7v-11.9h-1.8V168h4.7v5.7c0,0.3,0,0.5,0,0.7l0,0.3h0c0.5-1.1,2-2.3,4-2.3
				c2.6,0,4.1,1.3,4.1,4.4v5.3h1.7v2.2h-4.6v-6.9c0-1.4-0.4-2.4-1.8-2.4c-2.1,0-3.3,1.8-3.3,3.9v3.2h1.7v2.2h-6.2V182z"/>
		</g>
	</g>
	<g clip-path="url(#SVGID_1_)">
		<g>
			<path fill="#FFFFFF" d="M127.7,590.8c2.9,0,6.3,1.1,6.3,3.2v2.2h-2.7v-1.2c0-1.1-1.8-1.7-3.5-1.7c-3.4,0-5.6,2.2-5.6,5.6
				c0,3.5,2.1,6,5.7,6c1.3,0,3.7-0.3,3.7-1.7v-1.7h-2.9v-2.2h5.7v4.9c0,2.5-4.3,3.3-6.7,3.3c-5,0-8.5-3.6-8.5-8.4
				S122.6,590.8,127.7,590.8z"/>
			<path fill="#FFFFFF" d="M143.4,600.1h0.7v-0.4c0-1.5-0.9-2-2.1-2c-0.9,0-1.7,0.3-2.3,0.5c-0.4,0.2-0.7,0.4-1,0.6l-1.1-2
				c0.4-0.3,0.8-0.5,1.3-0.7c0.8-0.4,2-0.7,3.4-0.7c3.1,0,4.8,1.6,4.8,4.6v4.7c0,0.3,0.2,0.5,0.5,0.5h1v2.2h-2.7
				c-1.1,0-1.5-0.6-1.5-1.2v-0.1c0-0.2,0-0.3,0-0.4c0-0.1,0-0.1,0-0.2h0c-0.2,0.4-0.5,0.8-0.8,1.1c-0.6,0.6-1.5,1.1-2.8,1.1
				c-2,0-3.9-1.2-3.9-3.5C136.8,600.5,141.5,600.1,143.4,600.1z M141.4,605.4c1.6,0,2.7-1.7,2.7-3.1v-0.4h-0.5
				c-1.2,0-3.9,0.2-3.9,1.9C139.7,604.7,140.4,605.4,141.4,605.4z"/>
			<path fill="#FFFFFF" d="M151.3,593.3h-1.8v-2.2h4.7v12.3c0,1.1,0.2,1.6,1.2,1.6c0.2,0,0.3,0,0.4,0h0.2v2.3l-0.3,0
				c-0.2,0-0.4,0-0.7,0c-1.8,0-3.6-0.6-3.6-3.8V593.3z"/>
			<path fill="#FFFFFF" d="M164.3,600.1h0.7v-0.4c0-1.5-0.9-2-2.1-2c-0.9,0-1.7,0.3-2.3,0.5c-0.4,0.2-0.7,0.4-1,0.6l-1.1-2
				c0.4-0.3,0.8-0.5,1.3-0.7c0.8-0.4,2-0.7,3.4-0.7c3.1,0,4.8,1.6,4.8,4.6v4.7c0,0.3,0.2,0.5,0.5,0.5h1v2.2h-2.7
				c-1.1,0-1.5-0.6-1.5-1.2v-0.1c0-0.2,0-0.3,0-0.4c0-0.1,0-0.1,0-0.2h0c-0.2,0.4-0.5,0.8-0.8,1.1c-0.6,0.6-1.5,1.1-2.8,1.1
				c-2,0-3.9-1.2-3.9-3.5C157.8,600.5,162.4,600.1,164.3,600.1z M162.4,605.4c1.6,0,2.7-1.7,2.7-3.1v-0.4h-0.5
				c-1.2,0-3.9,0.2-3.9,1.9C160.7,604.7,161.3,605.4,162.4,605.4z"/>
			<path fill="#FFFFFF" d="M177.6,595.4c1.9,0,4.8,0.7,4.8,2.8v1.6h-2.5V599c0-0.8-1.2-1.1-2.2-1.1c-2.1,0-3.4,1.5-3.4,3.6
				c0,2.4,1.7,3.7,3.6,3.7c1.6,0,3-0.9,3.6-1.4l1,2.1c-0.8,0.8-2.6,1.8-4.8,1.8c-3.4,0-6.4-2.3-6.4-6.1
				C171.4,598,174,595.4,177.6,595.4z"/>
			<path fill="#FFFFFF" d="M186.1,597.8h-1.8v-2.2h1.9v-3.2h2.8v3.2h2.6v2.2H189v4.9c0,2,1.5,2.3,2.3,2.3c0.2,0,0.3,0,0.4,0h0.1v2.4
				l-0.3,0c-0.2,0-0.4,0-0.6,0c-1.6,0-4.9-0.5-4.9-4.4V597.8z"/>
			<path fill="#FFFFFF" d="M200.3,595.4c3.6,0,6.4,2.5,6.4,6.1c0,3.6-2.8,6.1-6.4,6.1c-3.6,0-6.4-2.5-6.4-6.1
				C193.9,597.9,196.7,595.4,200.3,595.4z M200.3,605.1c1.9,0,3.4-1.5,3.4-3.6c0-2.1-1.5-3.6-3.4-3.6c-1.9,0-3.5,1.5-3.5,3.6
				C196.8,603.6,198.4,605.1,200.3,605.1z"/>
			<path fill="#FFFFFF" d="M208.8,603.4h2.5v0.7c0,0.8,1.1,1.2,2.3,1.2c1.2,0,2-0.4,2-1.2c0-1-1.1-1.3-2.6-1.8
				c-1.7-0.6-3.7-1.4-3.7-3.6c0-2.5,2.5-3.3,4.6-3.3c1.7,0,4.2,0.7,4.2,2.4v1.5h-2.5v-0.7c0-0.6-0.7-1-1.7-1c-0.9,0-1.7,0.3-1.7,1
				c0,1,1.1,1.4,2.4,1.7c1.8,0.5,3.9,1.3,3.9,3.6c0,2.4-2.2,3.5-4.9,3.5c-2.1,0-4.7-0.9-4.7-2.8V603.4z"/>
			<path fill="#FFFFFF" d="M226.5,595.4c3.4,0,5.2,2.4,5.2,5.5c0,0.2,0,0.4,0,0.6l0,0.4h-8c0.2,2.1,1.7,3.2,3.5,3.2
				c1,0,1.8-0.3,2.4-0.6c0.4-0.2,0.7-0.4,1-0.6l1.1,2.1c-0.3,0.3-0.8,0.5-1.3,0.8c-0.8,0.4-2,0.8-3.4,0.8c-3.9,0-6.2-2.8-6.2-6.1
				C220.6,597.9,223,595.4,226.5,595.4z M228.7,600.2c-0.1-1.6-1-2.6-2.3-2.6c-1.5,0-2.5,1-2.8,2.6H228.7z"/>
		</g>
	</g>
	<g clip-path="url(#SVGID_1_)">
		<g>
			<path fill="#FFFFFF" d="M436.5,605h1.9v-11.7h-1.9v-2.3H448v4.2h-2.6v-1.7h-4.1v4.7h5.3v2.4h-5.3v4.4h2.1v2.2h-7.1V605z"/>
			<path fill="#FFFFFF" d="M450.4,605.1h1.7v-6.8c0-0.3-0.2-0.5-0.5-0.5h-1.3v-2.2h3c1,0,1.6,0.5,1.6,1.4v0.7c0,0.2,0,0.4,0,0.5
				c0,0.1,0,0.1,0,0.2h0c0.5-1.7,1.9-3,3.7-3c0.2,0,0.3,0,0.4,0c0.1,0,0.1,0,0.2,0v2.8c-0.1,0-0.1,0-0.2,0c-0.2,0-0.3,0-0.5,0
				c-2.3,0-3.4,2.1-3.4,4.2v2.5h1.7v2.2h-6.2V605.1z"/>
			<path fill="#FFFFFF" d="M462.3,597.8h-1.8v-2.2h4.7v7c0,1.4,0.4,2.3,1.8,2.3c2,0,3.2-2.1,3.2-4.1v-3h-1.8v-2.2h4.7v9
				c0,0.3,0.2,0.5,0.5,0.5h1.1v2.1h-2.9c-1,0-1.5-0.5-1.5-1.3v-0.4c0-0.2,0-0.3,0-0.4V605h0c-0.1,0.4-1.3,2.6-4.2,2.6
				c-2.3,0-3.8-1.3-3.8-4.4V597.8z"/>
			<path fill="#FFFFFF" d="M483,595.4c1.9,0,4.8,0.7,4.8,2.8v1.6h-2.5V599c0-0.8-1.2-1.1-2.2-1.1c-2.1,0-3.4,1.5-3.4,3.6
				c0,2.4,1.7,3.7,3.6,3.7c1.6,0,3-0.9,3.6-1.4l1,2.1c-0.8,0.8-2.6,1.8-4.8,1.8c-3.4,0-6.4-2.3-6.4-6.1
				C476.8,598,479.5,595.4,483,595.4z"/>
			<path fill="#FFFFFF" d="M491.5,597.8h-1.8v-2.2h1.9v-3.2h2.8v3.2h2.6v2.2h-2.6v4.9c0,2,1.5,2.3,2.3,2.3c0.2,0,0.3,0,0.4,0h0.1
				v2.4l-0.3,0c-0.2,0-0.4,0-0.6,0c-1.6,0-4.9-0.5-4.9-4.4V597.8z"/>
			<path fill="#FFFFFF" d="M505.7,595.4c3.6,0,6.4,2.5,6.4,6.1c0,3.6-2.8,6.1-6.4,6.1c-3.6,0-6.4-2.5-6.4-6.1
				C499.3,597.9,502.2,595.4,505.7,595.4z M505.7,605.1c1.9,0,3.4-1.5,3.4-3.6c0-2.1-1.5-3.6-3.4-3.6c-1.9,0-3.5,1.5-3.5,3.6
				C502.3,603.6,503.9,605.1,505.7,605.1z"/>
			<path fill="#FFFFFF" d="M514.3,603.4h2.5v0.7c0,0.8,1.1,1.2,2.3,1.2c1.2,0,2-0.4,2-1.2c0-1-1.1-1.3-2.6-1.8
				c-1.7-0.6-3.7-1.4-3.7-3.6c0-2.5,2.5-3.3,4.6-3.3c1.7,0,4.2,0.7,4.2,2.4v1.5H521v-0.7c0-0.6-0.7-1-1.7-1c-0.9,0-1.7,0.3-1.7,1
				c0,1,1.1,1.4,2.4,1.7c1.8,0.5,3.9,1.3,3.9,3.6c0,2.4-2.2,3.5-4.9,3.5c-2.1,0-4.7-0.9-4.7-2.8V603.4z"/>
			<path fill="#FFFFFF" d="M532,595.4c3.4,0,5.2,2.4,5.2,5.5c0,0.2,0,0.4,0,0.6l0,0.4h-8c0.2,2.1,1.7,3.2,3.5,3.2
				c1,0,1.8-0.3,2.4-0.6c0.4-0.2,0.7-0.4,1-0.6l1.1,2.1c-0.3,0.3-0.8,0.5-1.3,0.8c-0.8,0.4-2,0.8-3.4,0.8c-3.9,0-6.2-2.8-6.2-6.1
				C526.1,597.9,528.5,595.4,532,595.4z M534.2,600.2c-0.1-1.6-1-2.6-2.3-2.6c-1.5,0-2.5,1-2.8,2.6H534.2z"/>
		</g>
	</g>
	<g clip-path="url(#SVGID_1_)">
		<g>
			<path fill="#FFFFFF" d="M760.4,590.8c2.9,0,6.3,1.1,6.3,3.2v2.2H764v-1.2c0-1.1-1.8-1.7-3.5-1.7c-3.4,0-5.6,2.2-5.6,5.6
				c0,3.5,2.1,6,5.7,6c1.3,0,3.7-0.3,3.7-1.7v-1.7h-2.9v-2.2h5.7v4.9c0,2.5-4.3,3.3-6.7,3.3c-5,0-8.5-3.6-8.5-8.4
				S755.4,590.8,760.4,590.8z"/>
			<path fill="#FFFFFF" d="M770.7,593.3h-1.8v-2.2h4.7v12.3c0,1.1,0.2,1.6,1.2,1.6c0.2,0,0.3,0,0.4,0h0.2v2.3l-0.3,0
				c-0.2,0-0.4,0-0.7,0c-1.8,0-3.6-0.6-3.6-3.8V593.3z"/>
			<path fill="#FFFFFF" d="M778.7,597.8h-1.8v-2.2h4.7v7c0,1.4,0.4,2.3,1.8,2.3c2,0,3.2-2.1,3.2-4.1v-3h-1.8v-2.2h4.7v9
				c0,0.3,0.2,0.5,0.5,0.5h1.1v2.1h-2.9c-1,0-1.5-0.5-1.5-1.3v-0.4c0-0.2,0-0.3,0-0.4V605h0c-0.1,0.4-1.3,2.6-4.2,2.6
				c-2.3,0-3.8-1.3-3.8-4.4V597.8z"/>
			<path fill="#FFFFFF" d="M799.4,595.4c1.9,0,4.8,0.7,4.8,2.8v1.6h-2.5V599c0-0.8-1.2-1.1-2.2-1.1c-2.1,0-3.4,1.5-3.4,3.6
				c0,2.4,1.7,3.7,3.6,3.7c1.6,0,3-0.9,3.6-1.4l1,2.1c-0.8,0.8-2.6,1.8-4.8,1.8c-3.4,0-6.4-2.3-6.4-6.1
				C793.2,598,795.8,595.4,799.4,595.4z"/>
			<path fill="#FFFFFF" d="M812.8,595.4c3.6,0,6.4,2.5,6.4,6.1c0,3.6-2.8,6.1-6.4,6.1c-3.6,0-6.4-2.5-6.4-6.1
				C806.5,597.9,809.3,595.4,812.8,595.4z M812.9,605.1c1.9,0,3.4-1.5,3.4-3.6c0-2.1-1.5-3.6-3.4-3.6s-3.5,1.5-3.5,3.6
				C809.4,603.6,811,605.1,812.9,605.1z"/>
			<path fill="#FFFFFF" d="M821.4,603.4h2.5v0.7c0,0.8,1.1,1.2,2.3,1.2c1.2,0,2-0.4,2-1.2c0-1-1.1-1.3-2.6-1.8
				c-1.7-0.6-3.7-1.4-3.7-3.6c0-2.5,2.5-3.3,4.6-3.3c1.7,0,4.2,0.7,4.2,2.4v1.5h-2.5v-0.7c0-0.6-0.7-1-1.7-1c-0.9,0-1.7,0.3-1.7,1
				c0,1,1.1,1.4,2.4,1.7c1.8,0.5,3.9,1.3,3.9,3.6c0,2.4-2.2,3.5-4.9,3.5c-2.1,0-4.7-0.9-4.7-2.8V603.4z"/>
			<path fill="#FFFFFF" d="M839.1,595.4c3.4,0,5.2,2.4,5.2,5.5c0,0.2,0,0.4,0,0.6l0,0.4h-8c0.2,2.1,1.7,3.2,3.5,3.2
				c1,0,1.8-0.3,2.4-0.6c0.4-0.2,0.7-0.4,1-0.6l1.1,2.1c-0.3,0.3-0.8,0.5-1.3,0.8c-0.8,0.4-2,0.8-3.4,0.8c-3.9,0-6.2-2.8-6.2-6.1
				C833.2,597.9,835.6,595.4,839.1,595.4z M841.3,600.2c-0.1-1.6-1-2.6-2.3-2.6c-1.5,0-2.5,1-2.8,2.6H841.3z"/>
		</g>
	</g>
</g>
</svg>
