<?xml version="1.0" encoding="utf-8"?>
<!-- Generator: Adobe Illustrator 23.0.1, SVG Export Plug-In . SVG Version: 6.00 Build 0)  -->
<svg version="1.1" id="Layer_1" xmlns="http://www.w3.org/2000/svg" xmlns:xlink="http://www.w3.org/1999/xlink" x="0px" y="0px"
	 viewBox="0 0 604.1 440.8" style="enable-background:new 0 0 604.1 440.8;" xml:space="preserve">
<style type="text/css">
	.st0{fill:#3F3B31;}
	.st1{fill:#302D25;}
	.st2{fill:#7C7055;}
	.st3{fill:#685D47;}
	.st4{fill:#2B2B2B;}
	.st5{fill:#161511;}
	.st6{fill:none;stroke:#161511;stroke-width:2;stroke-linecap:round;stroke-miterlimit:10;}
	.st7{fill:none;stroke:#161511;stroke-width:3;stroke-linecap:round;stroke-miterlimit:10;}
</style>
<path class="st0" d="M595.3,308.6c0.2-1.7,0.4-3.3,0.8-5c1-4.2,2.9-8,4.1-12.2c1.9-6.5,1.4-13,0.1-19.4c-0.1-1.5-0.2-2.9-0.3-4.4
	c-0.3-4.1-0.8-8.2-1.3-12.3c-0.2-1.3-0.3-2.6-0.5-3.9c-0.2-10.5-0.3-21-0.5-31.6c-0.2-11.6,0.1-23.4-0.8-35c-0.2-3-0.6-6-1-8.9
	c-0.3-2.4-0.8-4.9-1.3-7.3c-0.1-0.4-0.2-0.8-0.3-1.1c0,0,0-0.1,0-0.1c0-0.3-0.1-0.6-0.1-0.9c0.1-0.7,0.2-1.5,0.3-2.2
	c0-0.8-0.1-1.6-0.3-2.4c-0.2-0.9-0.6-1.8-1.1-2.6c0-0.1-0.1-0.2-0.1-0.2c-0.2-1-0.5-2.1-0.8-3.1c1-1.9,0.4-4.1-0.9-5.8
	c-0.8-1-1.6-2-2.4-3c-0.1-0.5-0.1-1-0.2-1.4c-0.1-2.4-0.1-5-0.2-7.4c-0.2-3.3-0.5-6.5-1.3-9.6c-0.5-1.8-1.2-3.6-2-5.4
	c-1.8-3.7-4.2-7.3-6.7-10.4c-0.4-0.5-0.7-0.9-1.1-1.3c-0.1-0.1-0.1-0.1-0.2-0.2c-0.9-2.1-1.9-4.2-3-6.2c0-0.1-0.1-0.1-0.1-0.2
	c-0.4-0.8-0.9-1.5-1.5-2.1c-1.6-3.8-3.4-7.5-5.5-11.1c-1.2-2.7-2.5-5.4-4-8c-1.2-2.2-2.9-3.6-4.7-4.3c-1.3-1.5-2.7-3.1-4.2-4.5
	c-4.2-4.2-9.1-8.3-14.5-10.9c-4.9-2.4-9.5-2.7-13.1-7c-2.2-2.6-5.7-3.3-9-2.7c-7.4-4.8-15.2-8.6-23.5-11.7
	c-10.2-3.7-20.5-4.6-31-6.7c-1.3-0.8-2.9-1.3-4.7-1.4c-3.4-0.2-6.8-0.3-10.2-0.4c-1.3-0.6-2.7-0.9-4.4-0.8c-2.8,0.3-5.5,0.6-8.3,0.9
	c-11.4,0.4-22.8,1.4-34.2,2.6c-7.9,0.9-15.8,1.8-23.7,2.7c-1.1-0.1-2.3,0-3.5,0.2c-0.5,0.1-1,0.2-1.6,0.4
	c-8.2,0.9-16.4,1.8-24.3,3.9c-10.8,1.5-21.6,3.2-32.4,5.1c-13.7,2.5-27.3,4.7-41.3,4c-1.8-0.1-3.3,0.2-4.6,0.8
	c-12.9-1.3-25.6-4.2-38-8.6c-11.3-10.5-26-14.9-39.3-22.1c-0.1-1.7-0.3-3.4-0.6-5.2c-0.9-5.6-7.5-8-12.3-7
	c-8.8,1.9-17.8,2.9-25.4,7.8c0-0.4-0.1-0.8-0.1-1.2c-0.7-6.5-5.3-11.1-10.2-14c-1.4-0.8-2.8-1.4-4.2-1.6c-6.1-1.2-11.7,2.8-15.5,7.9
	c-0.1,0.2-0.2,0.3-0.3,0.5c-0.9,0.5-1.6,1-2.2,1.7c-0.7,0.7-1.3,1.3-2,2c-0.4,0.4-0.7,0.8-1,1.2c-0.1,0-0.2,0-0.3,0
	c-0.6,0.1-1,0.4-1.1,0.9c-1.3,0.2-1.4,2.1-0.1,2.4c0,0.1-0.1,0.1-0.1,0.2c-9,3.2-17.8,7.2-26.3,11.6c-9.5,4.9-19.7,9.8-28.3,16.2
	c-3.2,2.4-5.2,6-4.9,9.7c-0.4,0-0.8,0.3-1,0.6c-0.2,0.3-0.3,0.7-0.1,1.1c0,0.1,0.1,0.2,0.2,0.3c-0.1,0.1-0.1,0.3-0.1,0.4
	c-10.1,3.9-20.3,7.5-30.6,10.8c-2.3,0.8-4,2.1-5.2,3.7C15.7,72.7,7.7,73.8,4.6,78c-0.1,0.1-0.1,0.2-0.2,0.4
	c-0.2,0.2-0.4,0.4-0.5,0.6c-1,0.2-1.9,0.9-1.8,2.3c0,0.3,0.1,0.7,0.1,1c-0.7,2.7-0.2,5.7,1.1,8.1c1,4.7,2.8,9.3,6.5,11
	c1,0.5,1.9,0.7,2.7,0.7c0,0.4,0.1,0.9,0.2,1.3c-0.5,0.4-0.6,1.3-0.2,1.8c0,0.1,0,0.1,0,0.2c-0.1,0.3-0.1,0.5,0,0.8
	c0.2,1.6,1.3,2.9,3.3,3c0.2,0.2,0.3,0.4,0.5,0.6c0.1,0.1,0.1,0.2,0.2,0.3c2.6,2.8,5.9,4.6,9.3,6.3c0,0.2,0,0.3,0,0.5c0,0,0,0,0,0
	c0,0.8,0.2,1.5,0.6,2.2c0,0.1,0,0.2,0,0.3c0.3,1.1,1,1.7,2.1,2.2c0.1,0.1,0.3,0.3,0.4,0.4c0.4,1,0.9,1.9,1.6,2.8
	c4.3,6.4,13.7,5.1,20.8,5.3c0.5,0,0.8-0.2,1-0.6c0.4,0.1,0.8,0.2,1.2,0.3c1.1,0.3,2,0,2.8-0.4c0.4,0,0.8,0.1,1.1,0.1
	c0.7,0,1.4,0.1,2.1,0.1c1.8,0.2,3.6,0.4,5.3,0.6c0,0,0.1,0,0.1,0c0.1,0.3,0.4,0.5,0.7,0.6c0.8,0.2,1.6,0.4,2.3,0.5
	c0.5,0.2,1,0.4,1.5,0.7c0.7,0.3,1.3,0.4,1.9,0.4c1.7,1.1,4,0.5,5.2-0.8c0.3,0,0.5-0.1,0.7-0.2c0,0,0.1,0,0.1,0
	c0.1,0.1,0.2,0.2,0.3,0.3c8.2,6.5,17.5,10.7,27.7,12.8c5.1,1,10.2,1.7,15.4,2.2c2,0.2,4,0.4,5.9,0.5c0.2,0.3,0.5,0.5,0.8,0.7
	c5.6,4.7,11.3,9.3,16.8,14.1c0.4,1.6,1.2,3.3,2.6,4.8c6.5,6.8,12.6,13.8,18.4,21.1c0.6,1.3,1.3,2.5,2.1,3.6c0.2,0.5,0.5,0.9,0.8,1.4
	c5.5,8.3,10.9,16.7,16.2,25.1c1.1,1.8,2.5,3,4.1,3.7c0.5,0.6,1.1,1.2,1.8,1.7c0.8,1.6,2.1,3.1,4.1,4.2c5.9,3.2,12,5.9,18.3,8.2
	c0,0.8,0.1,1.7,0.4,2.7c2.2,8.1,5,16.1,6.2,24.4c1.3,9.2,3,18.3,4,27.5c0.9,8.4,1.7,16.9,2.5,25.3c0.6,6.4,1.4,13,1.4,19.6
	c-0.5,1.2-0.9,2.5-1.1,3.9c-1.5,1.6-2.4,3.8-2.3,6.8c0.1,1.1,0.1,2.1,0,3.2c-0.7,1.2-1.1,2.7-1.2,4.4c0,0.3,0,0.6-0.1,0.9
	c-0.5,0.9-0.9,1.8-1.1,3c-1,5.8-2.7,12-5.1,17.4c-1.8,4.2-6,5.7-10.1,7c-1.7,0.5-3,1.3-4,2.3c-1.4-1-3.1-1.6-4.8-1.8
	c-3.5-0.3-5.4,2.6-7.5,4.9c-2,2.1-4.7,4.4-4.8,7.6c-0.1,3.4,2.4,6,5.7,6.1c0.4,0,0.9,0,1.2-0.1c0.3,0.2,0.6,0.3,0.9,0.4
	c2.4,0.5,4.8,0.6,7.2,0.2c0.6,0.4,1.2,0.6,2,0.6h4c0.6,0,1.1-0.2,1.6-0.4c1.2,0.1,2.4-0.1,3.8-0.5c1-0.3,1.9-0.6,2.9-1
	c0.8,0.6,1.8,1,2.9,1.4c7,2.1,14.2,1.7,21.4,1.3c2.2-0.1,4.3-0.3,6.3-0.6c0.3,0.1,0.6,0.2,0.8,0.3c2.6,1,5.4,0.4,7.7-1.1
	c1.9-0.4,3.6-1.1,5.1-2.2c1.6-0.5,3.1-1.3,4.4-2.4c4.2-3.7,7.2-8.4,9.7-13.4c0.1-0.3,0.3-0.5,0.4-0.8c0.1,2.3,0.1,4.6-0.1,7
	c-0.4,4.2-0.8,8.4-1.3,12.6c-0.1,0.1-0.1,0.2-0.2,0.3c-0.6,1-1.2,1.9-1.8,2.8c0,0,0,0,0,0c-0.4,0.5-0.8,0.9-1.2,1.4
	c-0.8,0.8-1.6,1.5-2.4,2.3c-0.1,0.1-0.2,0.2-0.3,0.2c-0.5,0.3-1.2,0.8-1.3,0.8c-0.3,0.2-0.7,0.5-1,0.7c-1.4-0.4-2.9-0.8-4.3-1.1
	c-4.7-1-9.2,0.2-12.3,3.7c-0.9,0.4-1.7,0.9-2.4,1.5c-0.7-0.3-1.4-0.4-2.3-0.2c-5.1,1.1-9.7,4.3-12.4,8.8c-0.8,1.3-1.5,3-1.8,4.6
	c-0.7,3.6,0.3,7.3,4.9,7.9c2.6,0.3,5.6-0.3,8.1-0.9c0.1,0,0.2,0.1,0.3,0.1c0.7,0.1,1.3,0.1,1.8,0c0.4,0.7,1.1,1.2,2.2,1.3
	c8.8,1.4,17.4,1.3,26.1-0.4c0.8-0.2,1.4-0.5,1.8-1c9.5,4.3,20.5,4.1,30.7,2.6c2.5-0.4,5.2-1,7.8-1.9c3.2,0.3,6.5-0.2,9.4-2
	c5.6-3.3,8.1-10.5,6.4-16.5c1.2-3.5,2.7-6.8,4.3-10.1c1.3-0.7,2.5-1.8,3.4-3.3c5.2-8,7.1-19.2,9.6-28.3c2.6-9.5,4.9-19.1,6.6-28.8
	c2-11.2,3.5-22.5,4-33.9c3.7-7.2,4.6-15.6,5.4-23.9c0.8-8.1,0.2-16.1-0.7-24.2c5.3,0.4,10.9-0.8,16.7-1.8
	c10.2-1.6,20.4-3.3,30.5-4.9c0.1,0,0.1,0,0.2,0c5.6,0.6,11.7,2.2,16.3,5.2c2.2,1.4,4.4,1.8,6.4,1.5c0.3,0.1,0.7,0.3,1,0.4
	c3.6,2.1,7.3,4,11.2,5.5c1,3.2,2.3,6.2,3.7,9.2c0.3,0.5,0.6,1,1,1.5c2.1,12.5,3.9,25.1,3.6,37.8c-0.1,3.4-0.4,6.7-0.8,10
	c-1.2,1.7-2,3.8-2.2,6c-0.7,8-3.2,15.8-5.8,23.4c-0.5,0.3-1,0.7-1.4,1.1c-3,2.9-5.6,6.2-7.9,9.7c-0.6-0.2-1.1-0.5-1.7-0.7
	c-2-0.7-4.2-1-6.3-0.9c-5.3,0.4-9.7,2.9-12.5,7.4c-0.7,1.1-1.1,2.2-1.2,3.5c-1.3,0.9-1.9,2.4-1.5,4.1c0.6,3.1,3.2,5.9,6.3,6.8
	c1.6,2,4.1,3.3,7.4,3.3c0.9,0,1.7-0.1,2.4-0.3c6.9,1.8,15.1,0.6,21.8-0.8c0.2,0,0.3-0.1,0.5-0.1c0.4,0.2,0.7,0.3,1.1,0.4
	c4.6,1.4,9.4,1.4,14.2,1c0.7,0.1,1.4,0.1,2.1,0.1c3.9-0.2,8.1-0.3,11.9-1.2c0.5-0.1,1.1-0.3,1.6-0.5c0.7,0,1.4-0.1,2.1-0.4
	c2.4-0.9,4.9-1.8,7.3-2.7c2.5-0.9,4.6-2.2,6-4.6c0.1-0.1,0.1-0.2,0.2-0.4c2.8-2.5,5-5.6,7.1-8.7c0.4-0.5,0.6-1,0.9-1.6
	c0.7-1,1.3-2.1,1.5-3.3c0.6-2.8,1.1-5.7,1.7-8.6c1-1.1,1.7-2.5,2.1-4.2c0.5-2,1-4,1.5-6c1.1-1.1,1.9-2.5,2.5-4.2
	c1.7-5.6,3.3-11.2,4.8-16.8c0.3,2,0.6,4,0.9,6c0,0.2,0.1,0.4,0.1,0.6c0.9,6,1.1,11.9,1.1,18c0,9.7,0.9,19.1,0.9,28.6
	c-0.2,0.8-0.4,1.6-0.5,2.4c-0.4,3.4-1.5,7.4-3.3,10.3c-1.3,2.2-3.4,3.4-5.6,4.6c-1.9-0.2-3.8,0.2-5.6,1.4c-3,1.9-5.9,4.2-8.5,6.7
	c-1.5-0.3-3.3,0.3-3.9,1.8c-0.9,2.1-2.1,4-3,6c-0.1,0.3-0.2,0.6-0.4,1c-0.8,2.4-0.6,4.7,0.3,7c-0.2,0.4-0.2,0.9-0.2,1.5
	c0.2,3.9,2,7.1,6.2,7.4c1.7,0.1,3.3-0.1,4.8-0.6c0.8,0.7,1.9,1.1,3.3,0.7c1.5-0.4,4.2-0.8,6.2-1.8c0.5,0.2,1,0.3,1.6,0.4
	c0.8,1.2,2.1,2,4,2c1.8,0,3-0.8,3.8-1.8c2.6-0.2,5.1-0.9,7.5-2.3c1.6,1.5,3.8,2.4,6.6,2.3c3.1-0.1,6.2-0.2,9.2-0.4
	c11.3,0.6,22.5,2.1,32.7-3.1c2-0.7,3.8-1.8,5.4-3.1c0.8-0.6,1.5-1.2,2.2-1.9c0.4-0.4,0.7-0.8,1-1.2c7-6.9,11-16.5,8.3-26.5
	c0.4-3.4,0.7-6.7,0.9-10.1c0.6-1.2,0.9-2.6,0.9-4.3c0-5,0-10.1,0.3-15.2c0.3-3,0.6-5.9,1.2-8.9c1.6-8.6,5.1-17,6.1-25.7
	C602.3,323.6,599.2,315.9,595.3,308.6z"/>
<path class="st1" d="M12.6,105.2c-0.2,0.6,0,1.4,0.8,1.7c0.3,0.1,0.7,0.2,1,0.3c-0.8-1.2-1.3-2.5-1.6-3.8
	C12.2,103.8,12.1,104.7,12.6,105.2z"/>
<path class="st1" d="M21,103.1c1-2,1.4-4.4,2.6-6.4c0.8-1.2,1.8-2.1,2.9-2.9c1.8-0.3,3.5-0.5,5.1-1.9c2-1.7,2.1-3.8,1.6-6.3
	c-0.3-1.4-2.5-1.1-2.5,0.3c0,0.5-0.1,0.9-0.2,1.3c-0.3,0.1-0.6,0.2-0.8,0.5c-1.3,1.9-3.5,2.3-5.8,2.4c0.1-0.5,0-1-0.5-1.3
	c-1.9-1.2-3.7-2.4-5.6-3.7c-0.2-1-1.8-1.3-2.3-0.3c-0.7,1.4-0.7,2.6-0.3,3.8c0.1,1.8,0.6,3.4,1.8,4.8c-1.1,2.9,1.9,8.3-2.4,9.2
	c-0.1,0-0.2,0-0.3,0.1c0,0-0.1,0-0.2,0c-0.3,0-0.5,0-0.8,0.1c-0.3,0-0.6,0.1-0.8,0.3c0.3,1.3,0.9,2.6,1.6,3.8
	C17.2,107.6,19.7,105.7,21,103.1z"/>
<path class="st1" d="M83.7,63.6c0.1-0.7-0.3-1.4-1-1.6c0-0.1-0.1-0.3-0.2-0.4c-0.1-0.7-0.7-1.2-1.5-1c-3.5,1.2-7.1,2.3-10.6,3.4
	c-0.5,0.2-0.8,0.5-0.8,0.9c-0.2,0.3-0.3,0.7-0.3,1.1c0,1.4,1,2.7,2.2,3.3c1.6,0.8,3.8,0.7,5.5,0.7c1.6,0,3.5,0.1,4.6-1.1
	c0.4-0.4,0.4-1,0.2-1.5c0.6-0.5,1-1.2,1.3-2c0.1,0,0.2-0.1,0.3-0.1C84.2,65.1,84.2,64.2,83.7,63.6C83.7,63.7,83.7,63.6,83.7,63.6z"
	/>
<path class="st1" d="M100.1,63.8c-1.2-0.4-2.7-0.2-3.9-0.3c-0.8-0.1-1.6-0.2-2.3-0.3c-0.5-0.1-1.4-0.1-2-0.3
	c-0.5-0.8-2.2-0.5-2.3,0.7c0,0,0,0.1,0,0.1c0,0.4,0.3,0.8,0.6,1.1c0.4,0.2,0.8,0.4,1.3,0.5c0,0.2,0,0.3,0.1,0.5
	c0.7,1.7,2.5,4.7,4.6,3.2c1.1-0.7,2-1.4,3.2-2.1c0.9-0.5,1.7-0.9,1.7-2C101,64.4,100.6,63.9,100.1,63.8z"/>
<path class="st1" d="M103.5,63.8c-0.7-0.2-1.3,0.2-1.5,0.9c-0.2,0.6-0.5,1.1-0.8,1.7c-0.8,1.4,1.3,2.6,2.2,1.3
	c0.4-0.7,0.8-1.5,1-2.3C104.6,64.7,104.1,63.9,103.5,63.8z"/>
<path class="st1" d="M107.1,65.1c0-1.6-2.5-1.6-2.5,0c0,0.6,0.1,1.2,0.4,1.8c0.8,1.4,2.9,0.1,2.2-1.3
	C107.1,65.4,107.1,65.3,107.1,65.1z"/>
<path class="st1" d="M110,63.3c-1.1-1.2-2.9,0.6-1.8,1.8c0.2,0.2,0.4,0.5,0.6,0.7c1.1,1.2,2.9-0.6,1.8-1.8
	C110.4,63.8,110.2,63.5,110,63.3z"/>
<path class="st1" d="M65.3,67.3v3.1c0,1.6,2.5,1.6,2.5,0v-3.1C67.8,65.7,65.3,65.7,65.3,67.3z"/>
<path class="st1" d="M61.5,68.7c0,1.6-0.2,3.3-0.4,4.9c-0.2,1.6,2.2,2.3,2.4,0.7c0.3-1.8,0.5-3.7,0.5-5.5
	C64,67.1,61.5,67.1,61.5,68.7z"/>
<path class="st1" d="M57,72.7c-0.1,1.1-0.1,2.1-0.2,3.2c-0.1,1.6,2.4,1.6,2.5,0c0.1-1.1,0.1-2.1,0.2-3.2
	C59.6,71.1,57.1,71.1,57,72.7z"/>
<path class="st1" d="M51,75.1c0,0.4-0.1,0.7-0.2,1.1c-0.2,0.6,0.2,1.4,0.9,1.5c0.7,0.2,1.3-0.2,1.5-0.9c0.2-0.6,0.3-1.2,0.3-1.8
	C53.5,73.4,51,73.4,51,75.1z"/>
<path class="st1" d="M58,56.3c-0.4,0-0.8,0.3-1,0.6c-0.2,0.3-0.3,0.7-0.1,1.1c0,0.1,0.1,0.2,0.2,0.3c-0.1,0.1-0.1,0.3-0.1,0.4
	c0.5-0.2,0.9-0.4,1.4-0.5C58.2,57.5,58,56.9,58,56.3z"/>
<path class="st1" d="M58.2,60.1c1.2,0.1,2.5,0.3,3.7,0.1c1.1-0.2,1.9-1.2,1.4-2.3c-0.2-0.5-0.6-0.8-1.2-1c-0.5-0.1-1,0-1.5,0.1
	c-1,0.1-1.5-0.7-2.5-0.8c0,0-0.1,0-0.1,0c0.1,0.6,0.2,1.3,0.4,1.9c-0.5,0.2-0.9,0.4-1.4,0.5c0,0.1,0,0.1,0,0.2
	C56.9,59.6,57.5,60,58.2,60.1z"/>
<path class="st1" d="M67.5,57c-0.2-0.1-0.5-0.1-0.7-0.1c-0.2,0-0.3,0.1-0.5,0.1c-0.1,0.1-0.1,0.1,0,0c-0.7,0.1-1,0.9-0.9,1.5
	c0.2,0.6,0.6,0.8,1.1,0.9c0.2,0.1,0.5,0.1,0.8,0c0,0,0,0,0,0c0.5-0.2,1-0.6,0.9-1.2C68.3,57.7,68,57.3,67.5,57z"/>
<path class="st1" d="M174,36.9c0.1-0.3,0.1-0.7,0.2-1c0.7,0.1,1.6-0.2,1.6-1.2c0-1,0.1-1.9,0.3-2.8c0-0.2,0.1-0.4,0.1-0.6
	c0.4,1.2,2.4,1,2.4-0.4c0-0.4,0.1-0.9,0.1-1.3c0.7,0.3,1.8,0,2-1.1c0.1-1,0.3-2,0.5-3c0.7,0.1,1.4-0.3,1.4-1.2c-0.1-1,0.1-2,0.5-3
	c0.2-0.6-0.3-1.4-0.9-1.5c-0.7-0.2-1.3,0.2-1.5,0.9c0,0,0,0,0,0.1c-0.2,0.1-0.4,0.2-0.5,0.5c-0.1,0.2-0.3,0.4-0.4,0.6
	c-0.4,0.1-0.7,0.2-1.1,0.2c-0.7,0.1-1,0.9-0.9,1.5c0,0.2,0.1,0.3,0.2,0.5c-0.4,0.5-0.9,0.9-1.3,1.4c-1.2,0.2-2.3,0.3-3.5,0.2
	c-1.6-0.1-1.6,2.4-0.1,2.5c-0.4,0.2-0.7,0.4-1.1,0.6c-0.9-0.2-1.7-0.3-2.6-0.3c-1.1-0.1-1.4,1.1-1,1.9c-0.9,0.3-1.8,0.5-2.7,0.7
	c-1-0.3-2.1-0.5-3.1-0.8c-1.4-0.4-2,1.4-1.2,2.2c-0.1,0.2-0.1,0.5,0,0.7c-0.2-0.1-0.4-0.1-0.6-0.1c-0.3,0-0.6-0.1-0.8-0.2
	c-0.3,0-0.5-0.1-0.8-0.2c-0.1,0-0.3-0.1-0.4-0.1c-0.2-0.1-0.4-0.1-0.6-0.1c-1.2-0.3-2.4-0.5-3.6-0.9c-0.4-0.1-0.7,0-0.9,0.1
	c-0.4-0.2-0.7-0.5-1-0.8c-0.9-1-2.3,0.1-2.1,1.1c0,0.1-0.1,0.2-0.1,0.3c-0.1,0.8-0.1,1.6-0.1,2.4c-0.7,0.6-0.8,1.4-1,2.3
	c-0.2,0.9-0.8,2.4-0.1,3.2c0.7,0.9,1.8,0.5,2.6,0.2c0,0,0,0,0.1,0c0,0.1,0,0.2,0,0.3c-0.3,0.7,0.3,1.7,1.2,1.8
	c1.2,0.2,2.5,0.3,3.7,0.5c-0.2,0.4-0.4,0.9-0.6,1.3c-0.4,0.9,0.7,1.7,1.5,1.5c0.7-0.1,1.3-0.3,2-0.4c0.1,0.6,0.2,1.3,0.5,1.9
	c0.5,1.1,1.9,0.6,2.3-0.3c0,0,0,0,0,0c0.1,0.3,0.2,0.7,0.4,1c0.3,0.7,1.4,0.8,2,0.3c0.3,0.5,0.7,1.1,1.1,1.6
	c0.9,1.3,2.9,0.2,2.2-1.3c-0.4-0.8-0.9-1.5-1.4-2.2c0,0,0,0,0.1,0c0.9,0.1,1.6-1.2,1.1-1.9c-0.7-1.1-1.9-1.9-2.3-3.1
	c-0.4-1-0.5-2.2-0.4-3.3c0.3,0.7,0.7,1.4,1.1,2c0.7,1.1,1.4,3.3,3,3.3c0.5,0,1.1-0.4,1.2-0.9c0.3-1.2,0-2.6,0-3.8
	c0.1-1.5,0.3-2.9,0.6-4.3c0.3,0.9,0.5,1.7,0.6,2.6C171.8,38.1,173.7,38,174,36.9z M159.5,39.1c0.4-0.2,0.6-0.6,0.7-1.1
	c0.1,0.2,0.2,0.4,0.3,0.6C160.2,38.8,159.9,39,159.5,39.1z"/>
<path class="st1" d="M143.9,21.7c-0.6-0.2-1.4,0.2-1.5,0.9c-0.2,1.1-0.3,2.1-0.2,3.2c0.1,0.7,0.5,1.2,1.2,1.2c0.6,0,1.3-0.6,1.2-1.2
	c-0.1-0.9-0.1-1.7,0.1-2.6C144.9,22.6,144.6,21.9,143.9,21.7z"/>
<path class="st1" d="M141.4,24.7c-0.4-1.6-2.8-0.9-2.4,0.7c0.2,1,0.7,1.9,1.4,2.6c0.4,0.5,1.3,0.4,1.8,0c0.5-0.5,0.4-1.2,0-1.8
	C141.7,25.8,141.5,25.3,141.4,24.7z"/>
<path class="st1" d="M139.2,30.9c-0.4,0-0.7-0.1-1-0.3c-0.6-0.3-1.4-0.2-1.7,0.4c-0.3,0.6-0.2,1.4,0.4,1.7c0.7,0.4,1.5,0.6,2.3,0.6
	c0.7,0.1,1.2-0.6,1.2-1.2C140.4,31.5,139.9,31,139.2,30.9z"/>
<path class="st1" d="M118.8,15.3c-0.6,0.1-1,0.4-1.1,0.9c-1.3,0.2-1.4,2.1-0.1,2.4c0.3-1.2,0.9-2.3,1.6-3.3
	C119,15.2,118.9,15.2,118.8,15.3z"/>
<path class="st1" d="M125.9,18.7c0.1,0,0.3,0,0.4,0c5.2,0,10.4,0,15.6-0.2c3.7-0.1,7.5-0.2,11.2-0.7c0.4-0.1,0.9-0.1,1.3-0.2
	c-0.7-6.5-5.3-11.1-10.2-14c-1.4-0.8-2.8-1.4-4.2-1.6c0.1,3.8,0.2,6.9-3.2,9.9c-0.5,0.4-1.1,0.8-1.6,1.2c-5.3,1-10.7,1.7-16.1,2.2
	c-0.7,1-1.2,2.1-1.6,3.3c0.1,0,0.2,0.1,0.3,0.1C120.5,18.6,123.2,18.7,125.9,18.7z"/>
<path class="st1" d="M188.6,61.3c0.6-0.5,0.7-1.4,0.1-1.9c0.3-0.7,0-1.8-1.1-2c-0.1,0-0.2,0-0.3,0c0.3-0.3,0.4-0.5,0.6-1
	c0.3-0.7-0.5-1.7-1.2-1.6c-0.8,0.1-1.7,0.2-2.5,0.2c1.3-0.2,2.6-0.5,3.9-0.8c1.6-0.4,0.9-2.8-0.7-2.4c-1.2,0.3-2.3,0.5-3.5,0.7
	c0.3-0.1,0.5-0.2,0.8-0.2c0.3-0.1,0.5-0.3,0.7-0.5c1.5-0.5,0.8-2.9-0.7-2.4c-1.3,0.4-2.6,0.9-3.8,1.4c-2.4,0.7-4.8,1.4-7.1,2.1
	c-1.5,0.5-0.9,2.8,0.6,2.4c0.1,0.5,0.5,1,1.2,1c0.9-0.1,1.9-0.2,2.8-0.3c0,0.3,0,0.7,0.2,1c-1.4,0.2-1.3,2.4,0.1,2.5
	c0,0.2,0,0.4,0,0.6c-0.9,0.5-1.1,2.1,0.2,2.3c2.8,0.4,5.5,0.8,8.3,1.2C188.6,63.6,189.3,62,188.6,61.3z"/>
<path class="st1" d="M190.3,64.6c-2.7-0.4-5.3-0.9-8-1.5c-1.6-0.4-2.2,2.1-0.7,2.4c2.6,0.6,5.3,1.1,8,1.5
	C191.2,67.3,191.9,64.9,190.3,64.6z"/>
<path class="st1" d="M190.6,68c-2.1-0.5-4.4-0.5-6.6-0.6c-1.6-0.1-1.6,2.4,0,2.5c1.9,0.2,4.1,0.1,5.9,0.6
	C191.5,70.9,192.2,68.4,190.6,68z"/>
<path class="st1" d="M186.1,74.8c0.5,0,0.9,0.1,1.3,0.3c0.6,0.2,1.4-0.3,1.5-0.9c0.2-0.7-0.2-1.3-0.9-1.5c-0.6-0.2-1.3-0.3-2-0.4
	c-0.7,0-1.2,0.6-1.2,1.2C184.8,74.2,185.4,74.7,186.1,74.8z"/>
<path class="st1" d="M189.6,84.5c-0.9-0.6-1.8-1.1-2.8-1.6c-0.6-0.3-1.3-0.2-1.7,0.4c-0.3,0.5-0.2,1.4,0.4,1.7c1,0.4,1.9,1,2.8,1.6
	c0.6,0.4,1.4,0.1,1.7-0.4C190.4,85.6,190.1,84.9,189.6,84.5z"/>
<path class="st1" d="M193.5,130.7c-3.2,2.3-6.4,4.6-9.5,7.1c-2.1,1.7-1.8,5.3,0,7.1c2.1,2.1,5,1.7,7.1,0c2.4-1.9,4.9-3.8,7.4-5.6
	c2.2-1.5,3.2-4.4,1.8-6.8C199,130.3,195.7,129.1,193.5,130.7z"/>
<path class="st1" d="M206.6,133.9c-1.1,0.6-2.1,1.1-3.2,1.7c-2.3,1.2-3.2,4.6-1.8,6.8c1.5,2.4,4.4,3.1,6.8,1.8
	c1.1-0.6,2.1-1.1,3.2-1.7c2.3-1.2,3.2-4.6,1.8-6.8C211.9,133.3,209.1,132.6,206.6,133.9z"/>
<path class="st1" d="M223.7,138.4c-2.8,3.5-5.7,6.9-8.4,10.5c-1.6,2.1-0.3,5.6,1.8,6.8c2.6,1.5,5.2,0.4,6.8-1.8
	c2.2-2.9,4.5-5.7,6.8-8.5c1.7-2.1,2-5,0-7.1C229,136.7,225.4,136.3,223.7,138.4z"/>
<path class="st1" d="M273.4,368.8c0-0.2-0.1-0.4-0.1-0.5c0.1-0.4,0.2-0.7,0.3-1.1c2.4-7.1,1.4-14.8,1.2-22.1c0-0.2,0-0.5-0.1-0.7
	c0.1-0.6,0.2-1.3,0.3-1.9c0.4-2.7-0.2-5.4,0.2-8c0.1-0.9,0.1-1.7-0.1-2.4c0.3-1.4,0.6-2.8,0.7-4.2c0.3-3.3-2.3-4.9-4.8-4.8
	c-1-12.8-5.1-25.2-9.4-37.3c-0.3-0.9-0.8-1.6-1.4-2.1c-1.7-3.8-3.5-7.4-5.4-11c-1.4-5.1-3.3-10.1-5.5-15c-0.4-0.9-1-1.5-1.6-2
	c-1-2.6-2-5.2-3-7.9c-0.3-1.3-0.7-2.6-1-4c-0.5-2.1-2-3.2-3.7-3.5c-0.2-0.3-0.5-0.5-0.8-0.8c-0.5-0.4-1-0.8-1.6-1.1
	c-0.1-0.4-0.2-0.7-0.3-1.1c-1.2-2.9-2.5-5.9-3.8-8.8c-0.2-1-0.5-2.1-0.7-3.1c-0.1-0.7-0.3-1.4-0.5-2.1c-0.1-2.9-0.5-5.8-1.6-8.4
	c-0.1-1-0.2-2.1-0.3-3.1c0.1-0.4,0.2-0.7,0.2-1.2c0.6-5.7,0.2-11.2-1-16.7c-0.1-0.5-0.3-0.9-0.5-1.3c-0.1-3.4,0.1-6.8-0.4-10.1
	c0.4-2.5,0.3-5,1-7.3c0.6-1.9,0.1-3.5-0.9-4.5c0.4-1.9,0.9-3.9,1.4-5.8c1.8-6.2-7.8-8.8-9.6-2.7c-0.2,0.6-0.4,1.3-0.5,1.9
	c-1.7-0.6-3.5-0.3-4.7,1.3c0,0-0.1-0.1-0.1-0.1c2.1-4.3-4-9.5-8.2-5.6l-3.6,3.3c-1.1-1.4-2.9-2.2-4.8-1.7c2.5-1.8,4.9-3.5,7.4-5.3
	c5.2-3.7,0.2-12.4-5-8.6c-3,2.1-6,4.3-9.1,6.4c-0.4,0.3-0.8,0.6-1.2,0.9c1.1-4.4-3.5-6.9-6.8-5.7c-0.7-1.5-2.4-2.4-4.1-2.5
	c0.5-1.7-0.1-3.1-1.1-4.1c2.2-1.5,2.3-4,1.3-5.9c3.1-2.1,6.3-3.9,9.6-5.4c5.5-2.6,1.3-10.4-4-9c-0.5-0.6-1.2-1.2-1.9-1.5
	c-0.1-0.4-0.3-0.8-0.4-1.1c0,0,0-0.1,0.1-0.1c0-0.1,0-0.2,0-0.2c0.8,0.2,1.5,0.3,2.3,0.3c1,0,1.4-1,1.1-1.8c0.1,0,0.2,0,0.4,0
	c0.8,0.1,1.4-0.9,1.2-1.6c-0.5-1.4-1-2.6-1.7-3.8c0.6-0.1,1-0.7,1.1-1.3c0.1-0.7,0.1-1.1,0.1-1.4c0.4-0.4,0.6-1,0.3-1.6
	c0,0,0-0.1,0-0.1c0.2-1.3,0.3-2.7,0.2-4.1c0-0.2-0.1-0.4-0.1-0.5c0-0.1,0-0.2,0-0.3c0-0.1,0-0.2,0-0.3c0,0,0,0,0,0
	c0.1,0,0.1,0.1,0.2,0.1c0.6,1.1,2.5,0.9,2.3-0.5c-0.1-0.8-0.2-1.5-0.4-2.3c0,0,0,0,0,0c-0.2-1.1-0.5-2.1-0.9-3.1
	c0.5,0.4,0.9,0.9,1.4,1.3c1.2,1.1,2.9-0.7,1.8-1.8c-1-1-2.1-2-3.1-3c-0.7-0.6-1.5-1.3-2.1-2c0.9,0.7,1.9,1.4,2.9,2.1
	c1.3,0.9,2.6-1.3,1.3-2.2c-2-1.3-3.8-2.8-5.6-4.5c-1.2-1.1-2.9,0.6-1.8,1.8c0.4,0.4,0.9,0.8,1.4,1.3c-0.7,0.1-1.4,0.9-1,1.8
	c-1,0-1.8,1.2-1,2.1c0.1,0.1,0.1,0.1,0.2,0.2c-0.2,0.2-0.2,0.6,0,0.9c0.2,0.5,0.4,0.9,0.6,1.4c-0.6-0.1-1.1,0.4-1.2,1
	c-0.5,0.2-1,0.7-0.8,1.5c0.6,3,1.6,5.8,3,8.6c0,0.1-0.1,0.2-0.1,0.3c0,0.4,0,0.8,0,1.3l-1.1-0.5c-1.3-0.6-2.5,0.9-1.5,2
	c0.6,0.7,1.1,1.4,1.6,2c-0.8-0.3-1.6-0.6-2.4-1.1c-1.4-0.8-2.7,1.4-1.3,2.2c0.8,0.5,1.6,0.8,2.5,1.1c-0.9-0.1-1.9-0.2-2.8-0.3
	c-0.9-0.1-1.6,1.1-1.1,1.9c0.2,0.3,0.4,0.6,0.5,0.8c-0.3-0.1-0.7-0.2-1-0.3c-1.5-0.5-2.2,1.9-0.7,2.4c0.2,0.1,0.4,0.1,0.7,0.2
	l-2.3-0.2c-1-0.1-1.5,1.1-1.1,1.9c0.3,0.6,0.6,1.2,0.9,1.8c-0.7-0.1-1.4-0.2-2.1-0.2c-1.3-0.1-1.5,1.5-0.7,2.2
	c-0.4,0-0.8-0.1-1.2-0.1c-0.4,0-0.9,0.3-1.1,0.7c-0.1,0-0.2-0.1-0.3-0.1c-1.3-0.4-2,1.2-1.2,2.1c-0.2,0-0.4,0-0.6,0
	c-0.2,0-0.4,0.1-0.6,0.1c-0.4-0.1-0.9-0.1-1.3-0.1c-2.3,0.3-4.7,0.5-7,0.8c-1.9,0.2-3.9,1.3-4.6,3c-0.4-0.2-0.7-0.4-1.2-0.4
	c-3.4-0.6-6.8-1.4-10.2-2.3c-4.3-1.2-6.9,3.1-6,6.4c-3.1-0.4-6.2-1-9.2-1.6c-2.6-0.6-5.4,0.8-6.2,3.5c-0.2,0.6-0.2,1.2-0.1,1.8
	c-7.5-0.4-14.9-1.5-22.3-3.2c-4-1.4-8.1-2.8-12.1-4.2c-0.4-0.2-0.9-0.4-1.3-0.6c-4-1.8-8.2-3.1-12.4-4.3c-2.3-0.8-4.7-1.6-7-2.5
	c-1.2-0.4-2.4-0.9-3.5-1.4c-0.4-0.3-0.7-0.6-1-0.7c2.4,0,4.7,0,7.1-0.3c3.8-0.4,8.9-4.6,3.8-7.5c-0.8-0.5-1.6,0.1-1.8,0.8
	c-3.2-0.4-7.2,0.8-10.3,1.1c-5,0.6-10.1,1.1-15.1,1.3c-4.4,0.2-8.9,0-13.3,0c-0.3,0-0.7,0-1.1,0c-1.1-0.3-2.2-0.5-3.4-0.6
	c-0.2-0.1-0.4-0.2-0.7-0.2c-0.7,0-1.4,0.1-2,0.3c0.1,1.3,0.5,2.6,1.5,3.5c0.4,0.4,0.9,0.7,1.5,1c1.1,3.7,4.2,6.7,9.2,6.7
	c1.6,0,3-0.3,4.2-0.8c11.8,1.8,23.7,3.2,35.6,4.2c0.1,0.1,0.2,0.2,0.3,0.3c8.2,6.5,17.5,10.7,27.7,12.8c5.1,1,10.2,1.7,15.4,2.2
	c2,0.2,4,0.4,5.9,0.5c0.2,0.3,0.5,0.5,0.8,0.7c5.6,4.7,11.3,9.3,16.8,14.1c0.4,1.6,1.2,3.3,2.6,4.8c6.5,6.8,12.6,13.8,18.4,21.1
	c0.6,1.3,1.3,2.5,2.1,3.6c0.2,0.5,0.5,0.9,0.8,1.4c5.5,8.3,10.9,16.7,16.2,25.1c1.1,1.8,2.5,3,4.1,3.7c0.5,0.6,1.1,1.2,1.8,1.7
	c0.8,1.6,2.1,3.1,4.1,4.2c5.9,3.2,12,5.9,18.3,8.2c0,0.8,0.1,1.7,0.4,2.7c2.2,8.1,5,16.1,6.2,24.4c1.3,9.2,3,18.3,4,27.5
	c0.9,8.4,1.7,16.9,2.5,25.3c0.6,6.4,1.4,13,1.4,19.6c-0.5,1.2-0.9,2.5-1.1,3.9c-1.5,1.6-2.4,3.8-2.3,6.8c0.1,1.1,0.1,2.1,0,3.2
	c-0.7,1.2-1.1,2.7-1.2,4.4c0,0.3,0,0.6-0.1,0.9c-0.5,0.9-0.9,1.8-1.1,3c-1,5.8-2.7,12-5.1,17.4c-1.8,4.2-6,5.7-10.1,7
	c-1.7,0.5-3,1.3-4,2.3c-1.4-1-3.1-1.6-4.8-1.8c-3.5-0.3-5.4,2.6-7.5,4.9c-2,2.1-4.7,4.4-4.8,7.6c-0.1,3.4,2.4,6,5.7,6.1
	c0.4,0,0.9,0,1.2-0.1c0.3,0.2,0.6,0.3,0.9,0.4c2.4,0.5,4.8,0.6,7.2,0.2c0.6,0.4,1.2,0.6,2,0.6h4c0.6,0,1.1-0.2,1.6-0.4
	c1.2,0.1,2.4-0.1,3.8-0.5c1-0.3,1.9-0.6,2.9-1c0.8,0.6,1.8,1,2.9,1.4c7,2.1,14.2,1.7,21.4,1.3c2.2-0.1,4.3-0.3,6.3-0.6
	c0.3,0.1,0.6,0.2,0.8,0.3c2.6,1,5.4,0.4,7.7-1.1c1.9-0.4,3.6-1.1,5.1-2.2c1.6-0.5,3.1-1.3,4.4-2.4c4.2-3.7,7.2-8.4,9.7-13.4
	C273.9,378.7,274,373.8,273.4,368.8z"/>
<path class="st1" d="M198.2,128.7c1.3,0.3,2.7,0.2,3.9-0.5c0.3-0.2,0.7-0.4,1-0.7c1.1-0.7,1.9-1.7,2.3-3c0.3-1.2,0.2-2.8-0.5-3.9
	c-0.7-1.1-1.7-2-3-2.3c-1.3-0.3-2.7-0.2-3.9,0.5c-0.3,0.2-0.7,0.4-1,0.7c-1.1,0.7-1.9,1.7-2.3,3c-0.3,1.2-0.2,2.8,0.5,3.9
	C195.9,127.5,196.9,128.4,198.2,128.7z"/>
<path class="st1" d="M432.4,133.4c-2.5-1.4-5-2.8-7.5-4.4c-2.2-1.4-5.6-0.5-6.8,1.8c-1.3,2.5-0.6,5.3,1.8,6.8c2.4,1.5,4.9,3,7.5,4.4
	c2.3,1.2,5.6,0.6,6.8-1.8C435.5,137.9,434.9,134.7,432.4,133.4z"/>
<path class="st1" d="M410.8,124.2c1.9,0.8,3.7,1.4,5.7,2c2.5,0.7,5.6-0.9,6.2-3.5c0.6-2.7-0.8-5.4-3.5-6.2c-1.9-0.6-3.8-1.2-5.7-2
	c-2.4-1-5.6,1.1-6.2,3.5C406.7,121,408.2,123.2,410.8,124.2z"/>
<path class="st1" d="M414.8,143.8c-3.1-2.3-6.3-4.4-9.7-6.3c-5.6-3.1-10.7,5.5-5,8.6c3.4,1.9,6.6,4,9.7,6.3c2.1,1.6,5.6,0.3,6.8-1.8
	C418.1,148.1,417,145.5,414.8,143.8z"/>
<path class="st1" d="M404.2,170.7c3.4,2.1,6.8,4.1,10.3,6.2c5.5,3.3,10.5-5.3,5-8.6c-3.4-2.1-6.8-4.1-10.3-6.2
	C403.7,158.7,398.7,167.4,404.2,170.7z"/>
<path class="st1" d="M423.4,114.6c1.6,0.5,3.2,1,4.8,1.5c2.5,0.8,5.6-0.9,6.2-3.5c0.6-2.7-0.8-5.3-3.5-6.2c-1.6-0.5-3.2-1-4.8-1.5
	c-2.5-0.8-5.6,0.9-6.2,3.5C419.3,111.2,420.8,113.7,423.4,114.6z"/>
<path class="st1" d="M517.9,325.5c0-5.4-1.7-10.6-1.2-15.9c0.7,0.1,1.4,0.1,2-0.1c1.5-0.4,2.4-1.3,3-2.4c1.5,1.6,4.3,2.2,6.2,0.9
	c2.3-1.5,3.2-4.4,1.8-6.8c-1-1.8-2-3.5-3-5.3c-1.3-2.3-4.6-3.2-6.8-1.8c-0.6-1.7-1.4-3.5-2.2-5.2c-1-2.1-3.6-2.8-5.8-2.2
	c-1.5-1.2-3.6-1.5-5.3-0.9c-0.1-0.1-0.1-0.1-0.2-0.2c-2.4-3.1-4.9-6.1-7.6-9c-0.1-0.1-0.1-0.1-0.2-0.2c-1.1-2-2.3-3.9-3.9-5.8
	c-2.4-2.9-5.5-8.1-9.2-10.9c-0.7-1.3-1.7-2.6-2.5-3.8c-2.3-3.3-4.6-6.5-6.9-9.8c-6.6-12-12.7-24.3-18.4-36.7
	c-0.7-1.5-1.8-2.3-2.9-2.5c-0.4-1.3-0.8-2.6-1.2-3.9c-0.8-3.3-1.5-6.6-2.1-10c-0.2-1.5-1-2.4-1.9-3c-1-6.4-1.6-12.9-1.6-19.3
	c0-1.9-0.9-3.3-2.2-4c-0.6-4-2.1-7.8-4.3-11.2c-0.1-0.1-0.2-0.3-0.3-0.4c0.1-1.8-0.8-3.6-2.4-4.6c-3.8-2.5-7.7-4.8-11.6-7
	c-5.7-3.1-10.7,5.5-5,8.6c1.8,1,3.7,2.1,5.5,3.1c-0.2,0.3-0.3,0.7-0.4,1.1c-1-0.5-1.9-1-2.9-1.5c-5.7-2.9-10.8,5.7-5,8.6
	c4.1,2.1,8.1,4.4,12,6.8c-0.1,0.1-0.2,0.2-0.2,0.3c-2.2-1.4-5.4-0.1-6.6,2c-1.3,2.2-0.6,4.4,0.9,6c-3.8-1.3-8.1,3.5-5.8,7.5
	c-2.5-1.8-4.9-3.7-7.4-5.5c-2.2-1.6-5.6-0.4-6.8,1.8c-1.5,2.6-0.4,5.2,1.8,6.8c3,2.2,6,4.4,8.9,6.7c-1.1,0.3-2.1,1.1-2.8,2
	c-2.9-3-5.9-6-9.1-8.8c-4.8-4.3-11.8,2.7-7.1,7.1c3.1,2.8,6.1,5.8,9,8.8c0,0.4,0.1,0.7,0.2,1.1c0.2,0.7,0.4,1.4,0.6,2.1
	c-1.5,0.3-2.9,1.2-3.6,2.5c-1.6-2.8-3.2-5.6-4.6-8.4c-2.9-5.8-11.5-0.7-8.6,5c1.4,2.8,2.9,5.5,4.4,8.1c-1.4,0.7-2.5,1.9-2.8,3.4
	c-1.3-2.6-2.5-5.4-3.6-8.1c-1.7-4.3-7.2-4.1-9.2-1.5c-2-2.6-4.1-5.1-6.3-7.5c3.6,0.2,7.4-3.4,4.8-7.3c-2.2-3.4-4.6-6.7-7.1-9.9
	c1.2,0.2,2.4,0,3.4-0.6c2.6-1.5,2.9-4.4,1.8-6.8c-1.2-2.9-2.7-5.6-4.3-8.3c-1.4-2.3-4.5-3.2-6.8-1.8c-2.3,1.3-3.2,4.5-1.8,6.8
	c0.8,1.3,1.6,2.7,2.3,4c-3.9-3.4-9.5,2-7.3,6.5c-4.9-7.1-10.5-13.7-16.6-19.7c-4.6-4.5-11.7,2.6-7.1,7.1c5,4.8,9.5,10,13.6,15.5
	c-0.4,0.4-0.7,0.8-1,1.2c-0.4-0.8-0.9-1.6-1.3-2.3c-3.3-5.5-11.9-0.5-8.6,5c3.1,5.3,6,10.6,8.9,16c-4.9-2.9-11.1,3.6-6.4,7.5
	c6.8,5.6,11.4,13.4,15.4,21.5c-0.2-0.2-0.4-0.3-0.6-0.5c-3.5-2.9-10.2-0.3-8.4,4.9c1.2,3.5,2.3,7,3.3,10.5
	c-3.5-3.5-10.4,1.2-7.7,6.3c3.2,6,4.1,13.3,5.3,20c1.3,7.2,2.4,14.4,3.2,21.6c0,0.3,0.1,0.6,0.1,0.8c-1.6,13.4-2.5,26.9-2.6,40.4
	c-1.9,6.9-3.9,13.8-6,20.5c-0.2,0.8-0.3,1.5-0.2,2.1c-3,8.3-6.3,16.5-9.7,24.6c-3,7-6,14-9.2,20.9c-0.8,1.8-1.6,3.6-2.4,5.3
	c-7,8.2-15.4,14.9-25.6,17.6c-5.5,0.3-10.8-0.7-15.4-3.5c-0.6-0.3-1.1-0.6-1.6-0.7c-1.4-0.8-3.1-0.9-4.7,0.2
	c-5.3,3.7-11.5,3.7-17.7,2.5c-3-0.6-6-1.5-9.1-1.5c-0.8,0-1.6,0.2-2.4,0.4c-2.5-1.1-5.4-1.3-7.5,0.2c-1.5-0.1-3-0.1-4.6,0.1
	c-0.1,0-0.1,0-0.1,0c-0.6-0.1-1.3-0.3-1.9-0.5c-0.7,3.6,0.3,7.3,4.9,7.9c2.6,0.3,5.6-0.3,8.1-0.9c0.1,0,0.2,0.1,0.3,0.1
	c0.7,0.1,1.3,0.1,1.8,0c0.4,0.7,1.1,1.2,2.2,1.3c8.8,1.4,17.4,1.3,26.1-0.4c0.8-0.2,1.4-0.5,1.8-1c9.5,4.3,20.5,4.1,30.7,2.6
	c2.5-0.4,5.2-1,7.8-1.9c3.2,0.3,6.5-0.2,9.4-2c5.6-3.3,8.1-10.5,6.4-16.5c1.2-3.5,2.7-6.8,4.3-10.1c1.3-0.7,2.5-1.8,3.4-3.3
	c5.2-8,7.1-19.2,9.6-28.3c2.6-9.5,4.9-19.1,6.6-28.8c2-11.2,3.5-22.5,4-33.9c3.7-7.2,4.6-15.6,5.4-23.9c0.8-8.1,0.2-16.1-0.7-24.2
	c5.3,0.4,10.9-0.8,16.7-1.8c10.2-1.6,20.4-3.3,30.5-4.9c0.1,0,0.1,0,0.2,0c5.6,0.6,11.7,2.2,16.3,5.2c2.2,1.4,4.4,1.8,6.4,1.5
	c0.3,0.1,0.7,0.3,1,0.4c3.6,2.1,7.3,4,11.2,5.5c1,3.2,2.3,6.2,3.7,9.2c0.3,0.5,0.6,1,1,1.5c2.1,12.5,3.9,25.1,3.6,37.8
	c-0.1,3.4-0.4,6.7-0.8,10c-1.2,1.7-2,3.8-2.2,6c-0.7,8-3.2,15.8-5.8,23.4c-0.5,0.3-1,0.7-1.4,1.1c-3,2.9-5.6,6.2-7.9,9.7
	c-0.6-0.2-1.1-0.5-1.7-0.7c-2-0.7-4.2-1-6.3-0.9c-5.3,0.4-9.7,2.9-12.5,7.4c-0.7,1.1-1.1,2.2-1.2,3.5c-1.3,0.9-1.9,2.4-1.5,4.1
	c0.6,3.1,3.2,5.9,6.3,6.8c1.6,2,4.1,3.3,7.4,3.3c0.9,0,1.7-0.1,2.4-0.3c6.9,1.8,15.1,0.6,21.8-0.8c0.2,0,0.3-0.1,0.5-0.1
	c0.4,0.2,0.7,0.3,1.1,0.4c4.6,1.4,9.4,1.4,14.2,1c0.7,0.1,1.4,0.1,2.1,0.1c3.9-0.2,8.1-0.3,11.9-1.2c0.5-0.1,1.1-0.3,1.6-0.5
	c0.7,0,1.4-0.1,2.1-0.4c2.4-0.9,4.9-1.8,7.3-2.7c2.5-0.9,4.6-2.2,6-4.6c0.1-0.1,0.1-0.2,0.2-0.4c2.8-2.5,5-5.6,7.1-8.7
	c0.4-0.5,0.6-1,0.9-1.6c0.7-1,1.3-2.1,1.5-3.3c0.6-2.8,1.1-5.7,1.7-8.6c1-1.1,1.7-2.5,2.1-4.2c0.5-2,1-4,1.5-6
	c1.1-1.1,1.9-2.5,2.5-4.2c1.7-5.6,3.3-11.2,4.8-16.8c0.3,2,0.6,4,0.9,6c0,0.2,0.1,0.4,0.1,0.6c0.7-2.6,1-5.2,1.3-7.8
	C519.5,327.6,518.8,326.4,517.9,325.5z M364.6,196.7c-2-2.3-4.1-4.5-6.4-6.7c0.9-1.3,1.2-3,0.1-4.8c3.1,3.6,6,7.4,8.7,11.4
	C366.2,196.4,365.4,196.4,364.6,196.7z"/>
<path class="st1" d="M357.1,151.5c-1.4-2.2-4.5-3.3-6.8-1.8c-1.2,0.8-2.1,2-2.4,3.4c-0.2-0.3-0.5-0.7-0.7-1c-1.4-1.9-3.6-3-5.8-2.2
	c1.2-1.8,1.4-4.2-0.6-6.1c-2-2-3.6-4.4-4.5-7c-0.5-1.5-1.6-2.7-2.9-3.3c2.5-0.9,4-3.4,3.3-6.1c-0.8-3.1-2.3-5.7-4.3-8.2
	c-1.6-2.1-5.4-1.8-7.1,0c-2,2.2-1.7,4.9,0,7.1c-0.8-1,0.2,0.4,0.4,0.6c0.2,0.4,0.5,0.8,0.7,1.2c0.1,0.1,0.1,0.2,0.2,0.3
	c0,0,0,0.1,0,0.1c0.2,0.5,0.3,1,0.5,1.5c0.4,1.4,1.5,2.6,2.9,3.3c-2.4,0.8-4.1,3.6-3.2,6.1c1.5,4.3,3.8,8.2,7.1,11.4
	c1.6,1.5,3.4,1.7,5,1.2c-1,1.6-1.3,3.7-0.1,5.2c3.1,4.1,5.9,8.4,8.2,13c2.6,5.1,9.7,1.7,9.2-3.2c0.5,0,1,0,1.5-0.2
	c2.6-0.9,4.2-3.4,3.5-6.2C360.1,157.4,358.8,154.3,357.1,151.5z"/>
<path class="st1" d="M344.5,143.9c3.1,5.6,11.8,0.6,8.6-5c-1.9-3.4-4-6.6-6.3-9.7c-1.6-2.2-4.3-3.3-6.8-1.8
	c-2.1,1.2-3.4,4.7-1.8,6.8C340.5,137.3,342.6,140.5,344.5,143.9z"/>
<path class="st1" d="M346.9,127.9c1.7,2.1,5.3,1.8,7.1,0c2.1-2.1,1.7-5,0-7.1c-2.2-2.7-4.4-5.3-6.6-8c-1.7-2.1-5.3-1.8-7.1,0
	c-2.1,2.1-1.7,5,0,7.1C342.5,122.6,344.7,125.3,346.9,127.9z"/>
<path class="st1" d="M326.5,109.9c0.5,1.1,1.9,2,3,2.3c1.2,0.3,2.8,0.2,3.9-0.5c1.1-0.7,2-1.7,2.3-3c0.3-1.4,0.1-2.6-0.5-3.9
	c-0.3-0.7-0.7-1.3-1-2c-0.5-1.1-1.9-2-3-2.3c-1.2-0.3-2.8-0.2-3.9,0.5c-1.1,0.7-2,1.7-2.3,3c-0.3,1.4-0.1,2.6,0.5,3.9
	C325.9,108.6,326.2,109.3,326.5,109.9z"/>
<path class="st1" d="M365.4,142.1c-1.4-2.2-4.5-3.3-6.8-1.8c-2.2,1.4-3.3,4.5-1.8,6.8c1,1.6,2,3.1,3,4.7c1.4,2.2,4.5,3.3,6.8,1.8
	c2.2-1.4,3.3-4.5,1.8-6.8C367.4,145.2,366.4,143.7,365.4,142.1z"/>
<path class="st1" d="M591.2,152.1c0.4,1.3,0.8,2.5,1.2,3.8c1-1.9,0.4-4.1-0.9-5.8c-0.8-1-1.6-2-2.4-3c0.1,0.5,0.1,1,0.2,1.5
	C590,149.6,590.7,150.8,591.2,152.1z"/>
<path class="st1" d="M577,140.8c-2.1,2.1-1.7,4.9,0,7.1c2.4,3.1,4.9,6.2,7.3,9.3c0.2,0.3,0.5,0.6,0.8,0.8c-1.7,1.6-2,4.1-0.9,6.2
	c1.7,3.3,3.3,6.7,5,10c1.2,2.4,4.5,3.1,6.8,1.8c-0.3-2.4-0.8-4.9-1.3-7.3c-0.1-0.4-0.2-0.8-0.3-1.1c0,0,0-0.1,0-0.1
	c0-0.3-0.1-0.6-0.1-0.9c0.1-0.7,0.2-1.5,0.3-2.2c0-0.8-0.1-1.6-0.3-2.4c-0.5-0.9-0.9-1.9-1.4-2.8c-0.4-0.8-1-1.3-1.7-1.7
	c0.1-0.1,0.1-0.1,0.2-0.2c0.4-0.4,0.7-0.8,0.9-1.3c-0.3-1.3-0.7-2.5-1.2-3.8c-0.5-1.3-1.1-2.5-2-3.5c0-0.5-0.1-1-0.2-1.5
	c-1.6-2.1-3.3-4.2-4.9-6.3C582.4,138.7,578.8,139,577,140.8z"/>
<path class="st1" d="M576.4,121.5c-0.8,0.8-1.3,2-1.4,3.2c-0.1-0.3-0.2-0.6-0.4-0.9c-0.9-1.8-1.8-3.5-2.7-5.3
	c-1.2-2.3-4.7-3.2-6.8-1.8c-2.4,1.5-3,4.3-1.8,6.8c0.9,1.8,1.8,3.5,2.7,5.3c1.2,2.3,4.7,3.2,6.8,1.8c1.5-0.9,2.3-2.4,2.4-3.9
	c0.2,0.7,0.6,1.3,1.2,1.8c2.5,2.2,5.1,4.8,6.9,7.2c1.3,1.7,3.3,2.8,5.3,2.4c-0.2-3.3-0.5-6.5-1.3-9.6c-0.5-1.8-1.2-3.6-2-5.4
	c-0.6-0.6-1.3-1.2-1.9-1.8C581.4,119.8,578.4,119.5,576.4,121.5z"/>
<path class="st1" d="M560.7,140.7c0.5,0.6,1,1.1,1.5,1.7c0.2,0.3,0.5,0.6,0.7,0.9c0.1,0.1,0.7,0.9,0.4,0.5c1.6,2.1,4.4,3.4,6.8,1.8
	c2-1.3,3.5-4.6,1.8-6.8c-2.3-3-4.8-5.9-7.4-8.7c-1.8-1.9-5.3-2-7.1,0c-1.8,2-2,5.1,0,7.1C558.5,138.4,559.6,139.5,560.7,140.7z"/>
<path class="st1" d="M574.6,115.1c1.9,0,3.3-0.9,4.1-2.2c-0.4-0.5-0.7-0.9-1.1-1.3c-0.1-0.1-0.1-0.1-0.2-0.2c-0.9-2.1-1.9-4.2-3-6.2
	C568.2,105.3,568.2,115.1,574.6,115.1z"/>
<path class="st1" d="M562,159.9c4.8,5.1,8.9,10.6,12.6,16.5c3.4,5.5,12,0.4,8.6-5c-4.1-6.6-8.9-12.8-14.2-18.5
	C564.7,148.1,557.6,155.2,562,159.9z"/>
<path class="st1" d="M572.1,213.1c3.2,2.4,5.8,5.5,7.8,8.9c3.3,5.5,11.9,0.5,8.6-5c-2.9-5-6.8-9-11.4-12.5c-2.2-1.6-5.6-0.4-6.8,1.8
	C568.8,208.9,569.9,211.5,572.1,213.1z"/>
<path class="st1" d="M566.4,237l6.4,7.6c1.7,2,5.4,1.9,7.1,0c2-2.1,1.8-4.9,0-7.1c-2.1-2.5-4.2-5.1-6.4-7.6c-1.7-2-5.4-1.9-7.1,0
	C564.4,232.1,564.6,234.8,566.4,237z"/>
<path class="st1" d="M535.5,312.1c1.8,1.9,5.3,2,7.1,0c1.8-2,2-5.1,0-7.1c-0.3-0.3-0.6-0.7-0.9-1c-0.1-0.2-0.3-0.3-0.4-0.5
	c0,0,0,0,0,0c-0.5-0.8-1.1-1.6-1.5-2.5c-1.2-2.3-4.6-3.2-6.8-1.8c-2.4,1.5-3.1,4.4-1.8,6.8C532.2,308.3,533.7,310.4,535.5,312.1z"/>
<path class="st1" d="M546.4,311.1c0.9,0.9,2.3,1.5,3.5,1.5c1.2,0,2.7-0.5,3.5-1.5c0.9-1,1.5-2.2,1.5-3.5c-0.1-1.3-0.5-2.6-1.5-3.5
	c-0.3-0.3-0.7-0.7-1-1c-0.9-0.9-2.3-1.5-3.5-1.5c-1.2,0-2.7,0.5-3.5,1.5c-0.9,1-1.5,2.2-1.5,3.5c0.1,1.3,0.5,2.6,1.5,3.5
	C545.8,310.5,546.1,310.8,546.4,311.1z"/>
<path class="st1" d="M230.8,126.6c-2.2,1.5-4.2,3.1-6,4.9c-1.2,1.1,0.6,2.9,1.8,1.8c1.7-1.7,3.5-3.2,5.5-4.5
	C233.4,127.9,232.1,125.7,230.8,126.6z"/>
<path class="st1" d="M236.1,118c-2.9-0.1-5.7,0-8.6,0.1c-1,0.1-1.8,1.4-0.9,2.1c0.1,0.1,0.3,0.2,0.4,0.4c0.6,0.5,1.3,0.3,1.7,0
	c2.4-0.1,4.9-0.1,7.3-0.1C237.7,120.5,237.7,118,236.1,118z"/>
<path class="st1" d="M233.6,122.3c-2.4,0.5-4.8,1.2-7,2.2c-1.5,0.6-0.8,3,0.7,2.4c2.3-0.9,4.6-1.7,7-2.2
	C235.8,124.3,235.2,121.9,233.6,122.3z"/>
<path class="st1" d="M237.6,109.4c-1.8,0.2-3.5,0.7-5.2,1.3c-1.5,0.6-0.8,3,0.7,2.4c1.7-0.6,3.4-1.1,5.2-1.3c0.7-0.1,1-0.9,0.9-1.5
	C238.9,109.5,238.2,109.3,237.6,109.4z"/>
<path class="st1" d="M241.3,101.8c-2,0.6-4,1.2-6,1.6c-1.6,0.3-0.9,2.8,0.7,2.4c2-0.4,4-1,6-1.6
	C243.4,103.8,242.8,101.4,241.3,101.8z"/>
<path class="st1" d="M244,98c-1.4,0.2-2.8,0.4-4.2,0.6c-0.7,0.1-1,1-0.9,1.5c0.2,0.7,0.9,1,1.5,0.9c1.4-0.2,2.8-0.4,4.2-0.6
	c0.7-0.1,1-1,0.9-1.5C245.4,98.1,244.7,97.9,244,98z"/>
<path class="st1" d="M251.4,93.1c-1.3-0.1-2.5-0.1-3.8-0.2c-1.6-0.1-1.6,2.4,0,2.5c1.3,0.1,2.5,0.1,3.8,0.2
	C253,95.6,253,93.1,251.4,93.1z"/>
<path class="st1" d="M256.8,57.3c-2.6,0.8-5.2,1.2-7.8,1.4c-1.6,0.1-1.6,2.6,0,2.5c2.9-0.2,5.7-0.7,8.5-1.5
	C259,59.3,258.4,56.9,256.8,57.3z"/>
<path class="st1" d="M265,57.9c-2.6,0.7-5.3,1.4-7.9,2c-1.6,0.4-0.9,2.8,0.7,2.4c2.7-0.6,5.3-1.3,7.9-2
	C267.2,59.9,266.5,57.5,265,57.9z"/>
<path class="st1" d="M275.8,59.8c-2.3,0.6-4.5,1.2-6.8,1.9c-1.6,0.4-0.9,2.8,0.7,2.4c2.3-0.6,4.5-1.2,6.8-1.9
	C278,61.8,277.3,59.4,275.8,59.8z"/>
<path class="st1" d="M285.3,60.8c-1.4,0.7-2.8,1.4-4.3,1.9c-1.5,0.6-0.8,3,0.7,2.4c1.7-0.6,3.3-1.3,4.9-2.2
	C288,62.2,286.7,60,285.3,60.8z"/>
<path class="st1" d="M289.9,60.3c-0.7,0-1.2,0.6-1.2,1.2c-0.1,0.7-0.3,1.4-0.7,2c-0.8,1.4,1.4,2.7,2.2,1.3c0.6-1,0.9-2.1,1-3.3
	C291.3,60.9,290.6,60.3,289.9,60.3z"/>
<path class="st1" d="M296,60.9c0.2,0.7,0.1,1.3-0.1,2c-0.2,0.6,0.3,1.4,0.9,1.5c0.7,0.2,1.3-0.2,1.5-0.9c0.4-1.1,0.4-2.2,0.1-3.3
	C298,58.7,295.6,59.3,296,60.9z"/>
<path class="st1" d="M304.9,59.8c-1.4-0.8-2.6,1.3-1.3,2.2c0.4,0.2,0.5,0.5,0.6,0.9c0.1,0.7,0.9,1,1.5,0.9c0.7-0.2,1-0.9,0.9-1.5
	C306.4,61.2,305.7,60.3,304.9,59.8z"/>
<path class="st1" d="M243,59.4c1.3-0.8,2.6-1.3,4-1.5c1.6-0.3,0.9-2.7-0.7-2.4c-1.6,0.3-3.2,0.9-4.6,1.8
	C240.4,58.1,241.6,60.3,243,59.4z"/>
<path class="st1" d="M418.2,55.2c0.4-1.8,1.2-3.5,2.5-4.9c1.1-1.2-0.7-3-1.8-1.8c-1.5,1.7-2.6,3.7-3.1,6
	C415.5,56.1,417.9,56.8,418.2,55.2z"/>
<path class="st1" d="M422.1,54.4c0.5,0.5,1.3,0.5,1.8,0c0,0,0.1-0.1,0.1-0.1c0.1-0.1,0.2-0.2,0.2-0.3c2.3-2.4,4.7-4.5,7.4-6.4
	c1.3-0.9,0-3.1-1.3-2.2c-3,2.1-5.7,4.5-8.3,7.2C421.6,53,421.6,53.8,422.1,54.4C422.1,54.3,422.1,54.4,422.1,54.4z"/>
<path class="st1" d="M447.7,43.4c-3.8,1.5-7.3,3.4-10.5,5.9c-0.4,0-0.7,0.2-1,0.5l-0.7,0.9c-0.9,1.2,1,2.4,2,1.5
	c3.3-2.8,6.9-5,10.9-6.5C449.8,45.3,449.2,42.9,447.7,43.4z"/>
<path class="st1" d="M464.5,44.8c-4.3,1-8.4,2.4-12.4,4.4c-1.4,0.7-0.2,2.9,1.3,2.2c3.8-1.8,7.7-3.2,11.8-4.1
	C466.7,46.9,466.1,44.4,464.5,44.8z"/>
<path class="st1" d="M482.1,48.1c-4.3,0.5-8.7,1.2-13,2.1c-1.6,0.3-0.9,2.7,0.7,2.4c4.1-0.8,8.2-1.5,12.3-2
	C483.7,50.4,483.7,47.9,482.1,48.1z"/>
<path class="st1" d="M500.9,55.5c-3.9-0.6-7.7-0.8-11.7-0.7c-1.6,0-1.6,2.5,0,2.5c3.7-0.1,7.3,0.1,11,0.6
	C501.9,58.2,502.5,55.8,500.9,55.5z"/>
<path class="st1" d="M512.1,59c-3.2-0.3-6.4-0.3-9.6-0.2c-1.6,0.1-1.6,2.6,0,2.5c3.2-0.2,6.4-0.1,9.6,0.2
	C513.7,61.6,513.7,59.1,512.1,59z"/>
<path class="st1" d="M521.2,64.3c-1.7-0.5-3.4-0.9-5.2-1c-1.6-0.1-1.6,2.4,0,2.5c1.5,0.1,3,0.4,4.5,0.9
	C522.1,67.2,522.8,64.8,521.2,64.3z"/>
<path class="st1" d="M412.8,56.1c0.4-1.5,0.6-3.1,0.6-4.7c0-1.6-2.5-1.6-2.5,0c0,1.4-0.2,2.7-0.5,4C409.9,57,412.4,57.6,412.8,56.1z
	"/>
<path class="st1" d="M404.9,57c0.5,1.5,2.9,0.9,2.4-0.7l-0.8-2.8c-0.5-1.5-2.9-0.9-2.4,0.7C404.4,55.2,404.7,56.1,404.9,57z"/>
<path class="st1" d="M489.5,424.4c-0.2,0.4-0.2,0.9-0.2,1.5c0.2,3.9,2,7.1,6.2,7.4c1.7,0.1,3.3-0.1,4.8-0.6c0.8,0.7,1.9,1.1,3.3,0.7
	c1.5-0.4,4.2-0.8,6.2-1.8c0.5,0.2,1,0.3,1.6,0.4c0.8,1.2,2.1,2,4,2c1.8,0,3-0.8,3.8-1.8c2.6-0.2,5.1-0.9,7.5-2.3
	c1.6,1.5,3.8,2.4,6.6,2.3c3.1-0.1,6.2-0.2,9.2-0.4c11.3,0.6,22.5,2.1,32.7-3.1c2-0.7,3.8-1.8,5.4-3.1c0.8-0.6,1.5-1.2,2.2-1.9
	c0.4-0.4,0.7-0.8,1-1.2c7-6.9,11-16.5,8.3-26.5c0.4-3.4,0.7-6.7,0.9-10.1c0.6-1.2,0.9-2.6,0.9-4.3c0-5,0-10.1,0.3-15.2
	c0.3-3,0.6-5.9,1.2-8.9c1.6-8.6,5.1-17,6.1-25.7c1-8.4-2.2-16.1-6-23.4c0.2-1.7,0.4-3.3,0.8-5c1-4.2,2.9-8,4.1-12.2
	c1.9-6.5,1.4-13,0.1-19.4c-0.1-1.5-0.2-2.9-0.3-4.4c-0.3-4.1-0.8-8.2-1.3-12.3c-0.2-1.3-0.3-2.6-0.5-3.9c-0.2-10.5-0.3-21-0.5-31.6
	c-0.2-11.6,0.1-23.4-0.8-35c-0.7-1.6-1.3-3.3-1.9-5c-2.2-6-11.8-3.4-9.6,2.7c2.1,5.9,4.6,11.6,7.4,17.2c-1.3-2.1-3.8-2.6-5.8-2.1
	c0.2-1.1,0-2.2-0.7-3c-3.2-4.4-6.7-8.6-10.5-12.6c-4.5-4.6-11.6,2.5-7.1,7.1c3.2,3.3,6.2,6.8,9,10.5c1.4,1.9,3.6,2.9,5.7,2.3
	c0,0.5,0.1,1,0.3,1.6c2.1,5.9,4.3,11.6,6.8,17.3c0,3.6,0,7.2,0.2,10.9c-0.7-1.4-1.5-2.8-2.2-4.3c-2.9-5.7-11.6-0.7-8.6,5
	c2.3,4.4,4.6,8.8,7,13.1c-3.8-1.9-9.3,2.4-6.6,7c2.7,4.7,5.4,9.4,8,14.1c-0.2,0.5-0.3,1.1-0.5,1.6c-0.4-0.5-0.8-1-1.2-1.5
	c-0.4-0.5-1-0.9-1.6-1.1c-3-5.5-6.6-10.5-10.7-15.1c-4.3-4.8-11.4,2.3-7.1,7.1c3.6,4,6.7,8.5,9.3,13.2c0.7,1.2,1.6,1.9,2.5,2.3
	c0.2,0.3,0.3,0.5,0.5,0.8l1,1.3c-0.9,0.2-1.8,0.7-2.4,1.3c-0.9,1-1.5,2.2-1.5,3.5c0.1,1.3,0.5,2.7,1.5,3.5c0.8,0.7,1.6,1.3,2.3,2
	c0.4,0.3,0.8,0.6,1.2,0.8c-0.3,1.3-0.6,2.7-0.7,4c-0.4,3-0.3,6.1,0.1,9.2c-0.3,1.6-0.6,3.1-0.8,4.7c-0.2,1.1-0.1,2.1,0.3,3
	c0,0.6,0.1,1.2,0.4,1.8c-0.3,2-0.3,3.9-0.1,5.9c0.8,7.8,3.9,15.2,5.2,23c2.7,17-0.1,33.6-3.4,50.2c-2.8,3.5-4.9,8-5.8,11.1
	c-1.2,4.3-0.2,8.4-0.5,12.8c-0.1,2.2-1.1,4.2-2.4,6c-6.5,4.1-14.6,5.9-22.4,6.8c-2.4,0.3-4.8,0.4-7.1,0.5c-0.2-0.1-0.4-0.2-0.5-0.2
	c-5.7-2-11.5-2.3-17.2-1.8c-6.8-0.7-13.5-0.6-20.1,1.3c-1.6-1.5-4-1.7-6-0.7c-1.9,1-4,2.2-6.1,1.6c-0.4-0.1-0.8-0.2-1.1-0.2
	c-0.2-0.2-0.4-0.4-0.7-0.6c0.8,0.6-0.4-0.7-0.3-0.5c-0.1-0.2-0.2-0.4-0.3-0.6c0,0,0-0.1-0.1-0.1c0,0,0-0.1-0.1-0.4
	c-0.1-0.2-0.1-0.4-0.1-0.5c0.1,0.1,0.1-1.6-0.1-0.5c0.3-2.1-0.3-4.4-2-5.5c-0.1,0.3-0.2,0.6-0.4,1
	C488.5,419.9,488.6,422.2,489.5,424.4z"/>
<path class="st2" d="M77,127.5c-4.2-6,1.4-11.1,0.3-17.3c-1-5.7-6.3-10-8.1-15.6c-2.3-7.1,0.6-13.2,0.1-20.2
	c-0.4-6-4.5-10.2-8.9-13.8c-0.9-0.7-1.9-1-2.8-0.9c-0.9-0.3-1.9-0.3-2.9,0.1c-2.5,1.1-5,2.1-7.5,3.1c-0.4,0-0.8,0-1.2,0.2
	c-2,0.6-3.9,1.5-5.8,2.4c-1.1,0.4-2.1,0.7-3.2,1.1c-0.6,0.2-1.1,0.5-1.4,0.8c-3,1-6,1.8-9.1,2.5c-2.6,0.6-3.1,3.2-2.3,5.1
	c0.3,1.2,1.1,2.2,2.5,2.6c1.8,0.5,2.9,1.8,3.5,3.6c0.3,1,1,3.3,0.1,4.2c-0.4,0.4-0.7,0.9-0.9,1.3c-0.2,0.1-0.4,0.3-0.6,0.5
	c-0.6,0.6-0.9,0.8-1.4,0.9c-0.9,0.2-1.9,0.4-2.6,0.5c-1,0.1-2,0.5-2.7,1.2c-0.1,0-0.2,0.1-0.3,0.1c-2.6,1.4-3.7,4.1-3.2,6.8
	c0,0.1,0,0.1,0,0.2c0,0,0,1.6,0.1,1.1c-0.2,0.6-0.9,1.1-1.2,1.6c-0.3,0.5-0.7,1.2-0.8,1.8c0,0,0,0.1-0.1,0.1c-0.1,0-0.2,0-0.4,0.1
	c-4.8,0.1-4.8,7.5-0.1,7.5c0.2,0.3,0.3,0.6,0.6,0.8c2.9,3.1,6.6,5,10.4,6.8c-0.7,1.3-0.7,2.8,0.8,4c1.1,0.9,2,2,2.9,3
	c0.5,0.9,1.2,1.7,1.9,2.4c1.2,1.3,2.6,2.4,4.8,3c3.1,0.8,9.3,1.4,12.6-0.1c1.2,0.2,2.4,0.4,3.6,0.7c1.4,0.3,2.5-0.1,3.3-0.8
	c0.5,0,0.9-0.2,1.3-0.4c3.9,0.7,7.8,1.7,11.4,3.5c0.7,0.3,1.3,0.4,1.9,0.4C74.7,134.3,79.4,131,77,127.5z"/>
<path class="st3" d="M32.5,86.4c-0.3-1.2-2.1-1.2-2.4,0c-0.8,2.9-3.5,1.8-5.9,2.6c-0.2,0.1-0.3,0.1-0.5,0.2
	c-2.9,0.6-5.4,2.6-6.5,5.7c-0.5,1.6-0.5,3.3-1,4.9c-0.4,1.2-1.1,2.1-1.7,3c-0.1,0-0.2,0.1-0.3,0.1c-0.2,0.2-0.4,0.3-0.6,0.5
	c-0.7,0.5-0.7,1.4-0.2,1.9c-0.1,0.8,0.3,1.6,1.2,2c4.5,2.1,6.1-8,7.3-10C24.7,93.1,34.6,93.7,32.5,86.4z"/>
<path class="st4" d="M92.7,66.9c-1.1-1.4-2.7-2.4-4.3-2.9c-0.5-0.1-1-0.1-1.4-0.1c-0.6-0.2-1.3-0.2-2,0.1c-1.4,0.7-2,2-2,3.4
	c-0.8,2.2-1.2,4.7,0.3,6.2c2.5,2.5,6.4-0.1,7.8-2.4c0,0,0,0,0-0.1c0.7,0,1.3-0.3,1.7-0.7C93.7,69.4,93.5,67.9,92.7,66.9z"/>
<path class="st4" d="M23.4,73.4c-5.3-1-15.3-0.2-18.8,4.5c-0.2,0.3-0.4,0.6-0.6,0.9c-1.1,0.1-2.1,0.9-1.9,2.4
	c0.6,5.9,1.4,17.2,7.7,20.2c5,2.3,7.7-1.5,7.6-5.7c1-1.9,2.1-3.9,4.3-4.7c1.4-0.5,2.9-0.2,4.3-0.7c2.4-0.9,5-2.9,6-5.3
	C34.4,79.2,28.6,74.4,23.4,73.4z"/>
<g>
	<path class="st5" d="M22.4,88.7c1.5,0.7,3.3,0.5,4.9-0.3c1.6-0.8,2.9-2,3.6-3.5c0.4-0.7,0.6-1.5,0.6-2.3c0-0.7-0.2-1.4-0.6-2.1
		c-0.4-0.7-1-1.3-1.7-1.9c-0.6-0.6-1.4-1.1-2.1-1.6c-3.1-1.8-6.7-2.5-10.3-2.1c-3.6,0.4-7.1,1.7-10.2,3.6c-0.8,0.5-1.6,1-2.3,1.5
		c-0.4,0.2-0.6,0.5-0.7,0.6C3.4,81,3.4,81,3.4,81.2c-0.1,0.4,0.2,1.5,0.3,2.4c0.2,0.9,0.4,1.9,0.6,2.8c0.4,1.9,0.9,3.7,1.4,5.5
		c0.6,1.8,1.1,3.6,1.9,5.2c0.8,1.6,1.8,3,3.1,3.6c0.7,0.3,1.3,0.5,2.1,0.5c0.7,0,1.5-0.2,2.1-0.6c0.6-0.4,1.2-0.9,1.5-1.6
		c0.3-0.7,0.5-1.4,0.5-2.2c0-0.8-0.3-1.6-0.7-2.2c-0.2-0.3-0.5-0.7-0.8-1.2c-0.3-0.4-0.7-1.1-0.7-1.8c0-0.5,0.3-0.9,0.8-0.9
		c0.5,0,0.9,0.3,0.9,0.8c0.1,0.5,0.7,1,1.5,1.9c0.7,0.9,1.1,2,1.3,3.2c0.1,1.1,0,2.3-0.5,3.5c-0.5,1.1-1.3,2.1-2.3,2.8
		c-1,0.7-2.1,1.1-3.4,1.2c-1.2,0.1-2.5-0.1-3.6-0.6c-2.2-1.1-3.6-3-4.6-4.8c-0.5-0.9-0.9-1.9-1.3-2.9c-0.3-0.9-0.7-1.9-1-2.8
		C1.9,91,1.4,89.1,1,87.2c-0.2-1-0.4-1.9-0.6-2.9l-0.3-1.5C0,82.2,0,81.6,0,80.9c0.1-0.7,0.4-1.6,0.9-2.2c0.5-0.6,1-1,1.4-1.3
		c0.8-0.6,1.7-1.1,2.6-1.6c3.5-2,7.5-3.5,11.6-3.8c4.2-0.3,8.5,0.6,12,2.9c0.9,0.6,1.7,1.2,2.5,2c0.7,0.7,1.5,1.5,2.1,2.5
		c0.6,1,0.9,2.3,0.8,3.5c-0.1,1.2-0.5,2.3-1.1,3.2c-1.1,1.9-2.9,3.4-4.8,4.2c-2,0.8-4.4,0.9-6.4-0.2c-0.4-0.2-0.5-0.7-0.3-1.1
		C21.6,88.7,22.1,88.6,22.4,88.7L22.4,88.7z"/>
</g>
<g>
	<path class="st5" d="M15.1,87.8C15,87.5,15,87.1,15,86.6c0-0.4,0-0.9,0.3-1.3c0.2-0.5,0.7-0.8,1.1-1c0.5-0.2,1.1-0.1,1.8,0.3
		c0.3,0.3,0.3,0.8-0.1,1.1C17.8,86,17.3,86,17,85.7c0.1-0.2-0.1-0.3-0.3-0.2c-0.2,0-0.5,0.2-0.6,0.4c-0.3,0.5-0.4,1.2-0.2,2
		c0,0.2-0.1,0.4-0.3,0.4C15.3,88.1,15.2,88,15.1,87.8L15.1,87.8z"/>
</g>
<g>
	<path class="st5" d="M9.8,102.1c-2.3-4.3-3.4-9.2-3.1-14c0-0.5,0.4-0.9,0.9-0.9c0.5,0,0.8,0.4,0.9,0.9c0.1,4.5,1.4,8.9,3.7,12.7
		c0.4,0.6,0.2,1.4-0.4,1.8C11,103,10.2,102.8,9.8,102.1C9.8,102.2,9.8,102.2,9.8,102.1z"/>
</g>
<g>
	<path class="st5" d="M12.5,101.8c1.6,5,5.3,9.2,9.9,11.7c2.3,1.3,4.9,2,7.5,2.3c2.7,0.3,5.5,0.3,8.2,0.3c5.5-0.1,11-0.4,16.5-1.1
		c2.7-0.3,5.4-0.7,8.2-1.1c2.8-0.4,5.7-0.8,8.8-1l0.1,0c1.4-0.1,2.6,1,2.7,2.4c0.1,1.4-1,2.6-2.4,2.7c-0.4,0-0.8-0.1-1.1-0.2
		c-2.3-1-5.1-1.1-7.8-1c-2.7,0.2-5.5,0.6-8.3,0.8c-5.6,0.5-11.2,0.8-16.8,0.8c-2.8,0-5.6,0-8.4-0.3c-2.9-0.3-5.8-1.1-8.3-2.5
		c-5.2-2.7-9.3-7.3-11.4-12.9c-0.2-0.7,0.1-1.4,0.8-1.7S12.2,101.1,12.5,101.8C12.5,101.8,12.5,101.8,12.5,101.8z"/>
</g>
<g>
	<path class="st5" d="M85.6,61.4c1.4,0.2,3,0.4,4.6,1.2c1.5,0.8,2.8,2.2,3.4,3.9c0.2,0.4,0.3,0.8,0.4,1.1c0.1,0.4,0.2,0.7,0.3,1.2
		c0.1,0.5,0.1,1.1-0.2,1.8c-0.3,0.7-0.8,1.1-1.1,1.3c-1.2,0.9-2.5,1.7-3.8,2.4c-0.7,0.3-1.5,0.6-2.3,0.8c-0.9,0.2-1.9,0.1-2.8-0.3
		c-0.9-0.4-1.6-1.2-2.1-2c-0.4-0.8-0.7-1.6-0.8-2.4c-0.3-1.5-0.2-3.2,0.4-4.8c0.6-1.6,1.8-3,3.4-3.7c0.6-0.2,1.2,0,1.4,0.6
		c0.2,0.5,0,1.2-0.6,1.4l0,0c-1,0.4-1.8,1.4-2.1,2.5c-0.4,1.1-0.4,2.3-0.2,3.6c0.2,1.2,0.8,2.3,1.5,2.5c0.7,0.3,1.9,0,3-0.6
		c1.2-0.6,2.3-1.3,3.3-2.2c0.3-0.2,0.3-0.3,0.3-0.3c0,0,0-0.1,0-0.3c0-0.2-0.1-0.5-0.2-0.9c-0.1-0.3-0.2-0.6-0.3-0.9
		c-0.4-1-1.2-1.9-2.1-2.3c-1-0.5-2.2-0.7-3.6-0.8c-0.8-0.1-1.4-0.8-1.3-1.7S84.7,61.3,85.6,61.4C85.6,61.4,85.6,61.4,85.6,61.4z"/>
</g>
<g>
	<path class="st5" d="M81.8,60c0.2,0.3,0.7,0.5,1.6,0.6L86,61l5.5,0.7c0.6,0.1,1,0.6,0.9,1.2c-0.1,0.5-0.5,0.9-1.1,0.9l-5.5-0.2
		l-2.8-0.1c-0.5,0-1.1-0.1-1.7-0.3c-0.6-0.2-1.3-0.5-1.8-1l-0.2-0.2c-0.6-0.6-0.6-1.6,0-2.1c0.6-0.6,1.6-0.6,2.1,0
		C81.6,59.8,81.7,59.9,81.8,60z"/>
</g>
<path class="st6" d="M76.9,62.5c0.5,0.6,1.1,1.1,1.8,1.4"/>
<path class="st6" d="M71.5,63.9c0.2,0.4,0.4,0.8,0.6,1.2"/>
<path class="st6" d="M95.9,62.8c0.5,0.4,1.2,0.6,1.8,0.6"/>
<path class="st6" d="M102.9,63.2c0.1,0,0.2,0,0.3,0"/>
<path class="st6" d="M61.8,68.4c0,1.9-0.1,3.8-0.2,5.6"/>
<path class="st6" d="M57.5,74c-0.1,0.4-0.2,0.9-0.2,1.3"/>
<path class="st6" d="M51.2,76.5c-0.1,0.1-0.1,0.2-0.2,0.3"/>
<g>
	<path class="st5" d="M27.5,116.1c1.1,4.8,3.8,9.2,7.8,12.3c0.4,0.3,0.5,0.9,0.2,1.4c-0.3,0.4-0.9,0.5-1.3,0.2
		c-4.5-3.1-7.9-7.8-9.5-13.1l0,0c-0.2-0.8,0.2-1.6,1-1.9s1.6,0.2,1.9,1C27.4,116,27.4,116.1,27.5,116.1z"/>
</g>
<g>
	<path class="st5" d="M38.4,125.8l1.3,2.6c0.2,0.4,0,0.9-0.4,1.1c-0.3,0.1-0.6,0.1-0.8-0.1l-2.4-1.7c-0.7-0.5-0.9-1.5-0.4-2.2
		s1.5-0.9,2.2-0.4C38.1,125.4,38.3,125.6,38.4,125.8z"/>
</g>
<g>
	<path class="st5" d="M44,126.7c0.1,0.4,0.3,0.8,0.6,1.1l0.1,0.1c0.5,0.5,0.5,1.3,0,1.9c-0.4,0.5-1.2,0.5-1.7,0.2
		c-0.8-0.5-1.4-1.2-1.8-2.1l-0.1-0.1c-0.4-0.8,0-1.7,0.7-2c0.8-0.4,1.7,0,2,0.7C43.9,126.5,43.9,126.6,44,126.7z"/>
</g>
<g>
	<path class="st5" d="M48.2,127.3c9.7,0.8,19.3,2.3,28.7,4.3c0.5,0.1,0.9,0.7,0.8,1.2c-0.1,0.5-0.6,0.9-1.2,0.8
		c-9.4-1.7-19-2.8-28.5-3.3c-0.8,0-1.5-0.7-1.4-1.6C46.7,127.9,47.4,127.2,48.2,127.3C48.2,127.3,48.2,127.3,48.2,127.3z"/>
</g>
<g>
	<path class="st5" d="M83.4,131.2L83,136l0,0.1c0,0.6-0.5,1-1.1,0.9c-0.5,0-0.9-0.4-0.9-0.9l-0.6-5c-0.1-0.8,0.5-1.6,1.3-1.7
		c0.8-0.1,1.6,0.5,1.7,1.3c0,0.1,0,0.2,0,0.3L83.4,131.2z"/>
</g>
<g>
	<path class="st5" d="M89.7,135.2l-1,4.4c-0.1,0.6-0.7,0.9-1.2,0.8c-0.5-0.1-0.8-0.5-0.8-1l0-4.5c0-0.8,0.7-1.5,1.5-1.5
		s1.5,0.7,1.5,1.5C89.7,135,89.7,135.1,89.7,135.2z"/>
</g>
<g>
	<path class="st5" d="M95.3,138.1c-0.6,1.5-0.9,3.1-1,4.8l0,0c0,0.6-0.5,1.1-1.2,1.1c-0.6,0-1-0.5-1.1-1c-0.2-1.9-0.1-3.9,0.3-5.8
		l0,0c0.2-0.8,1-1.3,1.8-1.1c0.8,0.2,1.3,1,1.1,1.8C95.3,138,95.3,138,95.3,138.1z"/>
</g>
<g>
	<path class="st5" d="M100.8,140.7c-0.4,1.7-0.7,3.5-0.9,5.3c0,0.5-0.5,0.9-1,0.9c-0.5,0-0.8-0.4-0.9-0.9c-0.2-1.9-0.3-3.8-0.2-5.7
		l0,0c0-0.8,0.7-1.5,1.6-1.5c0.8,0,1.5,0.7,1.5,1.6C100.9,140.5,100.9,140.6,100.8,140.7z"/>
</g>
<g>
	<path class="st5" d="M107.4,142c-0.4,1.8-0.7,3.7-0.9,5.6c-0.1,0.6-0.6,1-1.1,0.9c-0.5-0.1-0.9-0.5-0.9-1c-0.1-2-0.1-4,0-6l0,0
		c0.1-0.8,0.8-1.5,1.6-1.4c0.8,0.1,1.5,0.8,1.4,1.6C107.4,141.8,107.4,141.9,107.4,142z"/>
</g>
<g>
	<path class="st5" d="M112.9,142.4c-0.3,1.9-0.3,3.8-0.1,5.7l0,0c0.1,0.6-0.4,1.1-1,1.2c-0.5,0.1-1-0.3-1.2-0.8
		c-0.5-2-0.8-4.2-0.7-6.3l0,0c0-0.8,0.7-1.5,1.5-1.5c0.8,0,1.5,0.7,1.5,1.5C112.9,142.2,112.9,142.3,112.9,142.4z"/>
</g>
<g>
	<path class="st5" d="M120.2,142.3l0.2,6.1c0,0.6-0.4,1-1,1.1c-0.5,0-0.9-0.3-1-0.8l-1.2-6c-0.2-0.8,0.4-1.6,1.2-1.8
		c0.8-0.2,1.6,0.4,1.8,1.2C120.2,142.1,120.2,142.2,120.2,142.3z"/>
</g>
<g>
	<path class="st5" d="M126.8,144c0.6,2.4,0.8,4.9,0.8,7.3c0,0.4-0.4,0.8-0.8,0.8c-0.4,0-0.7-0.3-0.8-0.6c-0.4-2.3-1.1-4.4-2.1-6.5
		c-0.4-0.8,0-1.7,0.7-2c0.8-0.4,1.7,0,2,0.7C126.7,143.8,126.8,143.9,126.8,144L126.8,144z"/>
</g>
<g>
	<path class="st5" d="M130.9,149c13.6,11,25.4,24.2,34.9,38.9c4.8,7.3,9.1,14.8,14,21.9c4.9,7.1,10.5,13.7,17.4,18.7
		c0.4,0.3,0.5,0.9,0.2,1.3c-0.3,0.4-0.9,0.5-1.3,0.2c-7.2-5.1-13-11.9-18.1-19c-5.1-7.1-9.5-14.6-14.3-21.8
		c-9.5-14.4-21.3-27.2-34.8-37.9c-0.6-0.5-0.8-1.5-0.2-2.1C129.3,148.6,130.2,148.5,130.9,149L130.9,149z"/>
</g>
<g>
	<path class="st5" d="M195.7,220c4.3,4,8.5,8.2,12.4,12.6c0.3,0.3,0.3,0.8-0.1,1.2c-0.3,0.3-0.8,0.3-1.1,0c-4.3-4-8.7-7.8-13.2-11.5
		c-0.6-0.5-0.8-1.5-0.2-2.1S195,219.4,195.7,220C195.6,219.9,195.7,220,195.7,220z"/>
</g>
<g>
	<path class="st5" d="M209.9,226.3l12.7,13.6c0.3,0.3,0.2,0.7,0,1c-0.3,0.2-0.7,0.2-0.9,0l-13.8-12.5c-0.6-0.6-0.7-1.5-0.1-2.1
		C208.2,225.8,209.2,225.7,209.9,226.3C209.8,226.3,209.8,226.3,209.9,226.3z"/>
</g>
<g>
	<path class="st5" d="M227.3,236.9c3,3.8,6.5,7.2,10.4,10.1c0.3,0.2,0.4,0.7,0.2,1c-0.2,0.3-0.6,0.4-1,0.2
		c-4.3-2.6-8.3-5.7-11.9-9.3c-0.6-0.6-0.6-1.5,0-2.1c0.6-0.6,1.5-0.6,2.1,0C227.2,236.8,227.3,236.9,227.3,236.9z"/>
</g>
<g>
	<path class="st5" d="M182.2,151.1c0.2,2.3,0.1,4.6-0.2,6.9c-0.1,0.3-0.4,0.6-0.7,0.5c-0.3,0-0.5-0.3-0.5-0.6
		c0.1-2.2-0.1-4.4-0.5-6.5c-0.1-0.5,0.2-1.1,0.8-1.2c0.5-0.1,1.1,0.2,1.2,0.8C182.1,151,182.2,151.1,182.2,151.1z"/>
</g>
<g>
	<path class="st5" d="M187.2,155.8l0,9.9c0,0.4-0.3,0.6-0.7,0.6c-0.3,0-0.6-0.3-0.6-0.6l-0.7-9.9c0-0.6,0.4-1,0.9-1.1
		S187.2,155.2,187.2,155.8C187.2,155.7,187.2,155.8,187.2,155.8z"/>
</g>
<g>
	<path class="st5" d="M192.5,161.4c-0.5,3.4-0.6,6.9-0.3,10.4c0,0.3-0.2,0.5-0.5,0.6c-0.3,0-0.5-0.2-0.6-0.4
		c-0.6-3.5-0.8-7.1-0.6-10.7c0-0.6,0.5-1,1-1S192.5,160.7,192.5,161.4C192.5,161.3,192.5,161.4,192.5,161.4z"/>
</g>
<g>
	<path class="st5" d="M198.7,168.7l0.3,8.3c0,0.3-0.2,0.5-0.5,0.5c-0.3,0-0.5-0.2-0.5-0.5l-1.2-8.2c-0.1-0.5,0.3-1.1,0.8-1.1
		c0.5-0.1,1.1,0.3,1.1,0.8C198.7,168.6,198.7,168.6,198.7,168.7z"/>
</g>
<g>
	<path class="st5" d="M205.3,176.2l2.4,6.1c0.1,0.3,0,0.6-0.3,0.7c-0.3,0.1-0.6,0-0.7-0.3l-3.2-5.7c-0.3-0.5-0.1-1.1,0.4-1.4
		c0.5-0.3,1.1-0.1,1.4,0.4C205.3,176.1,205.3,176.2,205.3,176.2z"/>
</g>
<g>
	<path class="st5" d="M131.6,143.2c2.8,2.2,5.7,4.3,8.6,6.2c0.5,0.3,0.6,0.9,0.3,1.4c-0.3,0.4-0.8,0.6-1.3,0.3
		c-3.2-1.7-6.3-3.5-9.4-5.4c-0.7-0.4-0.9-1.4-0.5-2.1c0.4-0.7,1.4-0.9,2.1-0.5C131.5,143.1,131.6,143.2,131.6,143.2z"/>
</g>
<g>
	<path class="st5" d="M139.5,141.2l8.8,5.7c0.3,0.2,0.3,0.5,0.2,0.8c-0.2,0.2-0.5,0.3-0.7,0.2l-9.3-5c-0.5-0.3-0.7-0.9-0.4-1.4
		C138.4,141,139,140.9,139.5,141.2C139.5,141.1,139.5,141.2,139.5,141.2z"/>
</g>
<g>
	<path class="st5" d="M147.4,138c3.5,2.2,7.1,4.2,10.8,6c0.3,0.1,0.4,0.4,0.2,0.7c-0.1,0.2-0.4,0.4-0.7,0.3
		c-3.9-1.6-7.7-3.3-11.4-5.2c-0.5-0.3-0.7-0.9-0.4-1.3S146.8,137.7,147.4,138C147.3,138,147.4,138,147.4,138z"/>
</g>
<g>
	<path class="st5" d="M155,135.2c2.9,2,5.9,3.7,9.1,5.3c0.2,0.1,0.3,0.4,0.2,0.6c-0.1,0.2-0.4,0.3-0.6,0.2c-3.3-1.2-6.6-2.7-9.7-4.4
		c-0.5-0.3-0.7-0.9-0.4-1.4C153.8,135,154.4,134.9,155,135.2C155,135.1,155,135.2,155,135.2z"/>
</g>
<g>
	<path class="st5" d="M161.8,131.4c2.5,1.9,5.2,3.6,8.1,4.9c0.3,0.1,0.4,0.5,0.3,0.8c-0.1,0.3-0.5,0.4-0.8,0.3
		c-3.1-1.1-6-2.6-8.8-4.4c-0.5-0.3-0.6-0.9-0.3-1.4C160.6,131.2,161.2,131,161.8,131.4C161.7,131.4,161.7,131.4,161.8,131.4z"/>
</g>
<g>
	<path class="st5" d="M170.1,127.5c1.4,1.2,2.8,2.4,4.3,3.4c0.2,0.2,0.3,0.5,0.1,0.7c-0.2,0.2-0.4,0.3-0.7,0.2
		c-1.7-0.8-3.4-1.7-5-2.7c-0.5-0.3-0.6-0.9-0.3-1.4c0.3-0.5,0.9-0.6,1.4-0.3C170.1,127.5,170.1,127.5,170.1,127.5z"/>
</g>
<g>
	<path class="st5" d="M175.2,121.7l3.7,3.8c0.2,0.2,0.2,0.5,0,0.7c-0.2,0.2-0.5,0.2-0.7,0.1l-4.3-3c-0.5-0.3-0.6-0.9-0.2-1.4
		s0.9-0.6,1.4-0.2C175.1,121.6,175.1,121.6,175.2,121.7z"/>
</g>
<g>
	<path class="st5" d="M178.9,117.1c1.6,0.9,3.1,1.9,4.4,3.2c0.2,0.2,0.3,0.6,0,0.8c-0.2,0.2-0.5,0.2-0.8,0.1
		c-1.4-0.9-2.9-1.7-4.5-2.3c-0.5-0.2-0.8-0.8-0.6-1.3c0.2-0.5,0.8-0.8,1.3-0.6C178.8,117.1,178.8,117.1,178.9,117.1L178.9,117.1z"/>
</g>
<g>
	<path class="st5" d="M182.2,111.2c1.1,1.5,2,3.1,2.8,4.7c0.1,0.3,0,0.7-0.3,0.8c-0.3,0.1-0.6,0-0.8-0.2c-1-1.4-2.1-2.8-3.3-4
		c-0.4-0.4-0.4-1,0-1.4c0.4-0.4,1-0.4,1.4,0C182.1,111.1,182.2,111.1,182.2,111.2z"/>
</g>
<g>
	<path class="st5" d="M184.3,104.7l2.1,4c0.1,0.3,0,0.6-0.2,0.8c-0.2,0.1-0.5,0.1-0.7-0.1l-2.8-3.5c-0.3-0.4-0.3-1.1,0.2-1.4
		c0.4-0.3,1.1-0.3,1.4,0.2C184.3,104.5,184.3,104.6,184.3,104.7z"/>
</g>
<g>
	<path class="st5" d="M185.2,96.6c1,1.7,2.1,3.4,3.3,4.9c0.2,0.2,0.1,0.6-0.1,0.8c-0.2,0.2-0.5,0.1-0.7,0c-1.5-1.4-2.8-2.9-4.1-4.5
		c-0.3-0.4-0.3-1.1,0.2-1.4s1.1-0.3,1.4,0.2C185.1,96.5,185.2,96.5,185.2,96.6z"/>
</g>
<g>
	<path class="st5" d="M185.8,89l3.2,3.8c0.2,0.3,0.2,0.7-0.1,1c-0.3,0.2-0.6,0.2-0.9,0l-3.6-3.4c-0.4-0.4-0.4-1-0.1-1.4
		C184.7,88.5,185.3,88.5,185.8,89C185.8,88.9,185.8,88.9,185.8,89z"/>
</g>
<g>
	<path class="st5" d="M185.1,53.1c-1.6,0.9-3.3,1.6-5.1,2l0,0c-0.5,0.1-1.1-0.2-1.2-0.7c-0.1-0.5,0.2-1.1,0.7-1.2c0.1,0,0.1,0,0.2,0
		c1.7-0.1,3.4-0.5,5.1-1c0.3-0.1,0.6,0.1,0.7,0.3C185.4,52.7,185.3,52.9,185.1,53.1z"/>
</g>
<g>
	<path class="st5" d="M183,58l-3.5,0.5c-0.5,0.1-1.1-0.3-1.1-0.9s0.3-1.1,0.9-1.1c0.1,0,0.1,0,0.2,0l3.5,0.1c0.4,0,0.7,0.3,0.7,0.7
		C183.6,57.7,183.3,57.9,183,58z"/>
</g>
<g>
	<path class="st5" d="M179.2,59.9c1,0.4,1.8,1,2.5,1.7c0.2,0.2,0.2,0.6,0,0.8c-0.2,0.2-0.4,0.2-0.6,0.1l0,0
		c-0.8-0.4-1.6-0.6-2.4-0.6c-0.6,0-1-0.5-0.9-1.1c0-0.6,0.5-1,1.1-0.9C178.9,59.8,179,59.9,179.2,59.9L179.2,59.9z"/>
</g>
<g>
	<path class="st5" d="M155.1,33l5.2,4.8l0,0c0.3,0.2,0.3,0.6,0,0.9c-0.2,0.2-0.6,0.3-0.8,0.1l-5.8-4.3c-0.4-0.3-0.5-1-0.2-1.4
		c0.3-0.4,1-0.5,1.4-0.2C155,32.9,155,32.9,155.1,33L155.1,33z"/>
</g>
<g>
	<path class="st5" d="M162.1,31.5c1.8,1.6,3.8,3.1,5.9,4.4c0.3,0.2,0.3,0.5,0.2,0.8c-0.2,0.2-0.5,0.3-0.7,0.2
		c-2.3-1.1-4.5-2.3-6.6-3.8c-0.5-0.3-0.6-0.9-0.3-1.4S161.5,31.1,162.1,31.5C162,31.5,162.1,31.5,162.1,31.5z"/>
</g>
<g>
	<path class="st5" d="M168.5,29.3c2,1.2,4.1,2.1,6.4,2.7c0.3,0.1,0.5,0.4,0.4,0.7c-0.1,0.3-0.3,0.4-0.6,0.4c-2.4-0.3-4.8-1-7-2
		c-0.5-0.2-0.7-0.8-0.5-1.3c0.2-0.5,0.8-0.7,1.3-0.5C168.4,29.3,168.5,29.3,168.5,29.3z"/>
</g>
<g>
	<path class="st5" d="M172.5,26.2l5.2,1.4c0.2,0.1,0.4,0.3,0.3,0.6c-0.1,0.2-0.3,0.4-0.5,0.3l-5.4-0.3c-0.6,0-1-0.5-0.9-1.1
		s0.5-1,1.1-0.9C172.4,26.2,172.5,26.2,172.5,26.2z"/>
</g>
<g>
	<path class="st5" d="M177.9,23c0.8,0.1,1.7,0.2,2.5,0.1l0,0c0.4,0,0.7,0.2,0.7,0.6c0,0.3-0.1,0.6-0.4,0.7c-0.9,0.4-1.9,0.6-2.9,0.7
		l0,0c-0.6,0.1-1.1-0.3-1.1-0.9c-0.1-0.6,0.3-1.1,0.9-1.1C177.7,23,177.8,23,177.9,23z"/>
</g>
<g>
	<path class="st5" d="M180.5,19.1l1.9,0c0.4,0,0.7,0.3,0.7,0.7c0,0.3-0.2,0.6-0.5,0.7l-1.8,0.5c-0.5,0.1-1-0.2-1.1-0.6
		c-0.1-0.5,0.2-1,0.6-1.1C180.3,19.2,180.4,19.1,180.5,19.1z"/>
</g>
<g>
	<path class="st5" d="M151.2,32.4l-0.9,3.6c-0.1,0.4-0.5,0.7-0.9,0.6c-0.4-0.1-0.6-0.4-0.6-0.8l0.4-3.7c0.1-0.6,0.6-1,1.1-0.9
		c0.6,0.1,1,0.6,0.9,1.1C151.3,32.3,151.2,32.4,151.2,32.4z"/>
</g>
<g>
	<path class="st5" d="M165.6,42.2c-0.8-1.9-1.3-3.8-1.6-5.8c0-0.2,0.1-0.5,0.4-0.5c0.2,0,0.4,0.1,0.5,0.3c0.6,1.8,1.5,3.5,2.5,5.1
		c0.3,0.5,0.2,1.1-0.3,1.4s-1.1,0.2-1.4-0.3C165.6,42.3,165.6,42.3,165.6,42.2L165.6,42.2z"/>
</g>
<g>
	<path class="st5" d="M170.4,36.9l-0.5-4c0-0.3,0.2-0.5,0.4-0.6c0.2,0,0.4,0.1,0.5,0.3l1.5,3.7c0.2,0.5-0.1,1.1-0.6,1.3
		c-0.5,0.2-1.1-0.1-1.3-0.6C170.5,37.1,170.4,37,170.4,36.9z"/>
</g>
<g>
	<path class="st5" d="M174.5,32.1l0.4-2.7c0-0.3,0.3-0.5,0.6-0.4c0.2,0,0.4,0.2,0.4,0.4l0.5,2.7c0.1,0.6-0.3,1.1-0.8,1.2
		c-0.6,0.1-1.1-0.3-1.2-0.8C174.5,32.3,174.5,32.2,174.5,32.1z"/>
</g>
<g>
	<path class="st5" d="M163.8,44.2c1.3,0.3,2.5,0.8,3.6,1.4l0,0c0.5,0.3,0.6,0.9,0.4,1.4c-0.3,0.5-0.9,0.6-1.4,0.4
		c-0.1,0-0.1-0.1-0.2-0.1c-0.9-0.7-1.8-1.4-2.9-1.8l0,0c-0.3-0.1-0.5-0.5-0.3-0.9C163.2,44.3,163.5,44.1,163.8,44.2z"/>
</g>
<g>
	<path class="st5" d="M167,49.3l1.5-0.3c0.4-0.1,0.8,0.2,0.9,0.6c0.1,0.4-0.2,0.8-0.6,0.9c-0.1,0-0.2,0-0.2,0l-1.5-0.1
		c-0.3,0-0.5-0.3-0.5-0.6C166.6,49.5,166.8,49.3,167,49.3z"/>
</g>
<path class="st7" d="M19.8,73.3c11.7-5.9,23.9-10.9,36.5-14.9"/>
<g>
	<path class="st5" d="M55.7,58.5c-0.2-3.1,0.4-6.2,1.5-9c0.2-0.5,0.8-0.7,1.2-0.5c0.4,0.2,0.7,0.7,0.5,1.1l0,0
		c-0.7,2.6-0.8,5.4-0.4,8c0.2,0.8-0.4,1.6-1.2,1.8c-0.8,0.2-1.6-0.4-1.8-1.2C55.7,58.7,55.7,58.6,55.7,58.5L55.7,58.5z"/>
</g>
<g>
	<path class="st5" d="M57.2,49.7c2.1-2.1,4.6-3.9,7.1-5.4c2.5-1.5,5.1-2.7,7.5-4.1c4.9-2.9,9.9-5.9,14.9-8.6
		C96.9,26,107.4,21,118.4,17.3c0.8-0.3,1.6,0.1,1.9,0.9s-0.1,1.6-0.9,1.9l0,0c-10.8,3.6-21.1,8.5-31.2,13.9c-5,2.7-10,5.6-14.9,8.5
		c-2.5,1.5-5.1,2.7-7.6,4.1c-2.4,1.4-4.7,3-6.6,4.9c-0.5,0.5-1.3,0.5-1.8,0C56.8,51,56.8,50.2,57.2,49.7z"/>
</g>
<path class="st7" d="M118.9,18.7c12.7-1.6,27.1-1.1,39.8-1.7"/>
<g>
	<path class="st5" d="M144.6,23.3c6.7-5,14.2-9,22.2-11.7c4-1.4,8.2-2.2,12.5-2.6c2.1-0.2,4.3-0.2,6.5-0.1c0.5,0,1.1,0.1,1.6,0.1
		c0.6,0.1,1.2,0.2,2,0.4c0.7,0.2,1.5,0.7,2,1.3c0.5,0.5,0.9,1.1,1.2,1.7c1.1,2.1,1.6,4.2,1.9,6.4c0.3,2.2,0.5,4.3,0.3,6.5
		c-0.2,2.2-0.7,4.3-1.2,6.3c-0.6,2-1.2,4-2,5.9c-0.8,1.9-1.5,3.9-2.4,5.8c-0.5,1-1,1.9-1.7,2.8c-0.7,0.9-1.5,1.6-2.3,2.3
		c-3.5,2.6-7.7,3.5-11.2,5.3c-0.3,0.2-0.7,0-0.9-0.3s0-0.7,0.3-0.9c0,0,0,0,0,0c1.9-0.9,3.8-1.6,5.7-2.4c1.9-0.8,3.7-1.6,5.2-2.9
		c1.5-1.2,2.6-2.8,3.4-4.6c0.8-1.8,1.5-3.8,2.2-5.7c1.2-3.9,2.4-7.8,2.5-11.7c0.1-1.9-0.1-3.9-0.7-5.7c-0.6-1.8-1.6-3.5-2.5-5
		c-0.2-0.3-0.5-0.6-0.6-0.8c-0.2-0.2-0.3-0.2-0.6-0.3c-0.2-0.1-0.6-0.2-1-0.2c-0.5-0.1-1-0.1-1.4-0.1c-1.9-0.1-3.9-0.1-5.9,0
		c-3.9,0.3-7.8,1.2-11.6,2.3c-3.8,1.2-7.5,2.7-11.1,4.5c-3.6,1.7-7.1,3.7-10.6,5.9l0,0c-0.7,0.4-1.6,0.2-2.1-0.5
		C143.8,24.7,144,23.8,144.6,23.3z"/>
</g>
<path class="st7" d="M115.8,18.9c3.2-5.3,6.3-8.6,11-12.6c2.8-2.4,6.1-4.6,9.8-4.8c3.1-0.2,6.2,1.1,8.8,2.9s4.6,4.2,6.7,6.6
	c1.2,1.4,2.4,2.8,2.9,4.6"/>
<g>
	<path class="st5" d="M194.6,24.2l6.6,0c0.5,0,1,0.4,1,1c0,0.5-0.4,0.9-0.8,1l-6.5,1.1c-0.8,0.1-1.6-0.4-1.7-1.2s0.4-1.6,1.2-1.7
		C194.4,24.2,194.5,24.2,194.6,24.2z"/>
</g>
<g>
	<path class="st5" d="M193.6,27.9l17,0.3c0.5,0,0.9,0.4,0.9,1c0,0.5-0.4,0.9-0.9,0.9l-17,0.8c-0.8,0-1.5-0.6-1.6-1.4
		C192,28.7,192.6,27.9,193.6,27.9C193.5,27.9,193.5,27.9,193.6,27.9z"/>
</g>
<g>
	<path class="st5" d="M209.2,31.7c4.2,0.1,8.4,0.5,12.6,1c0.5,0.1,0.8,0.5,0.8,1c-0.1,0.5-0.5,0.8-0.9,0.8
		c-4.1-0.2-8.3-0.1-12.4,0.2c-0.8,0.1-1.5-0.6-1.6-1.4c-0.1-0.8,0.6-1.5,1.4-1.6C209.1,31.7,209.1,31.7,209.2,31.7z"/>
</g>
<g>
	<path class="st5" d="M217.8,36.3l10,1.8c0.4,0.1,0.7,0.5,0.6,0.9c-0.1,0.4-0.4,0.6-0.8,0.6l-10.2-0.3c-0.8,0-1.5-0.7-1.5-1.5
		c0-0.8,0.7-1.5,1.5-1.5C217.6,36.3,217.7,36.3,217.8,36.3z"/>
</g>
<g>
	<path class="st5" d="M228.3,40.8c8.7,4.2,18,7.2,27.6,8.9c9.6,1.8,19.3,2.1,29,1.4c9.7-0.7,19.4-2.2,29.1-3.7l29.1-4.5
		c19.4-2.9,39-5.6,58.6-7.4c9.8-0.9,19.6-1.7,29.5-2.1c9.8-0.4,19.7-0.6,29.5-0.4c0.5,0,0.9,0.4,0.9,0.9c0,0.5-0.4,0.9-0.9,0.9l0,0
		c-9.8-0.1-19.6,0.1-29.4,0.6c-9.8,0.5-19.6,1.3-29.3,2.2c-19.5,2-39,4.7-58.4,7.7l-29.1,4.6c-9.7,1.6-19.4,3.2-29.3,3.9
		c-9.9,0.8-19.9,0.5-29.7-1.3c-9.8-1.7-19.4-4.8-28.4-9c-0.7-0.4-1.1-1.2-0.7-2C226.7,40.7,227.5,40.4,228.3,40.8L228.3,40.8
		L228.3,40.8z"/>
</g>
<g>
	<path class="st5" d="M453.5,36.1c9.1,0,18.2,0.3,27.2,1.2c0.5,0,0.8,0.4,0.8,0.9c0,0.4-0.4,0.8-0.9,0.8c-9-0.4-18-0.3-27,0.2
		c-0.8,0-1.5-0.6-1.6-1.4C452,36.8,452.6,36.1,453.5,36.1C453.5,36.1,453.5,36.1,453.5,36.1z"/>
</g>
<g>
	<path class="st5" d="M477.4,40.2c8.3,0.6,16.6,1.9,24.6,4c0.4,0.1,0.7,0.6,0.6,1c-0.1,0.4-0.5,0.7-1,0.6c-8-1.6-16.2-2.5-24.3-2.6
		c-0.8,0-1.5-0.7-1.5-1.5C475.8,40.8,476.5,40.1,477.4,40.2C477.3,40.2,477.4,40.2,477.4,40.2z"/>
</g>
<g>
	<path class="st5" d="M497.6,46.1c26.6,5.6,51.1,19.9,69,40.1c0.3,0.4,0.3,0.9-0.1,1.2c-0.4,0.3-0.9,0.3-1.2-0.1
		C547.4,67.7,523.1,54.1,497,49c-0.8-0.2-1.3-0.9-1.2-1.8C496,46.4,496.8,45.9,497.6,46.1C497.6,46.1,497.6,46.1,497.6,46.1z"/>
</g>
<g>
	<path class="st5" d="M565.3,89.8c3.3,3.4,6.1,7.2,8.6,11.1c2.5,3.9,4.8,8,7,12c1.1,2,2.2,4,3.3,6.2c1,2.1,1.9,4.3,2.6,6.6
		c1.4,4.5,2.2,9.1,3,13.6c0.1,0.5-0.2,0.9-0.7,1c-0.5,0.1-0.9-0.2-1-0.7c-0.9-4.5-1.8-9-3.3-13.3c-0.7-2.1-1.6-4.2-2.6-6.2
		c-1-2-2.2-4-3.3-6c-2.3-4-4.6-7.9-7.2-11.7c-2.5-3.8-5.3-7.4-8.5-10.5c-0.6-0.6-0.6-1.5,0-2.1S564.7,89.2,565.3,89.8
		C565.3,89.8,565.3,89.8,565.3,89.8z"/>
</g>
<g>
	<path class="st5" d="M587.5,138.6c3.9,8.1,6.9,16.6,8.9,25.3c0.1,0.5-0.2,1.1-0.8,1.2c-0.5,0.1-1.1-0.2-1.2-0.7
		c-2.2-8.5-5.5-16.7-9.6-24.4c-0.4-0.7-0.1-1.6,0.6-2C586.2,137.5,587.1,137.8,587.5,138.6C587.5,138.5,587.5,138.6,587.5,138.6z"/>
</g>
<g>
	<path class="st5" d="M594.8,165.2l4.6,16.9l0,0c0.1,0.4-0.1,0.9-0.6,1c-0.4,0.1-0.9-0.1-1-0.5l-5.9-16.6c-0.3-0.8,0.1-1.6,0.9-1.9
		c0.8-0.3,1.6,0.1,1.9,0.9C594.7,165.1,594.8,165.2,594.8,165.2L594.8,165.2z"/>
</g>
<g>
	<path class="st5" d="M595.6,182.2l4.2,12.8c0.1,0.4-0.1,0.8-0.5,0.9c-0.4,0.1-0.8-0.1-0.9-0.4l-5.6-12.3c-0.3-0.8,0-1.6,0.7-2
		s1.6,0,2,0.7C595.6,182.1,595.6,182.1,595.6,182.2z"/>
</g>
<g>
	<path class="st5" d="M597.3,198.6c0.6,2.4,1.5,4.8,2.6,7c0.2,0.4,0.1,1-0.4,1.2c-0.4,0.2-0.9,0.1-1.1-0.3c-1.5-2.2-2.9-4.5-3.9-7
		l0,0c-0.3-0.8,0-1.6,0.8-2c0.8-0.3,1.6,0,2,0.8C597.3,198.5,597.3,198.6,597.3,198.6z"/>
</g>
<g>
	<path class="st5" d="M597.4,208.1l4.3,7.2c0.2,0.4,0.1,0.9-0.3,1.1c-0.4,0.2-0.8,0.1-1.1-0.2l-5.4-6.5c-0.5-0.6-0.5-1.6,0.2-2.1
		c0.6-0.5,1.6-0.5,2.1,0.2C597.3,207.9,597.4,208,597.4,208.1z"/>
</g>
<g>
	<path class="st5" d="M598.4,218.2l4.2,7.4c0.2,0.4,0.1,1-0.3,1.2c-0.4,0.2-0.9,0.1-1.2-0.2l-5.2-6.7c-0.5-0.7-0.4-1.6,0.3-2.1
		c0.7-0.5,1.6-0.4,2.1,0.3C598.3,218.1,598.3,218.1,598.4,218.2z"/>
</g>
<g>
	<path class="st5" d="M597.8,226.3c1.8,2.5,3.4,5.1,4.8,7.7c0.2,0.5,0.1,1-0.4,1.3c-0.4,0.2-0.9,0.1-1.2-0.3
		c-1.7-2.4-3.5-4.7-5.5-6.8c-0.6-0.6-0.5-1.6,0.1-2.1c0.6-0.6,1.6-0.5,2.1,0.1C597.7,226.2,597.7,226.3,597.8,226.3z"/>
</g>
<g>
	<path class="st5" d="M597.9,236.6c1.4,3,2.5,6.1,3.4,9.3c0.1,0.4-0.1,0.8-0.5,0.9c-0.3,0.1-0.7-0.1-0.9-0.4
		c-1.3-2.9-2.9-5.7-4.7-8.3c-0.5-0.7-0.3-1.6,0.4-2.1c0.7-0.5,1.6-0.3,2.1,0.4C597.9,236.4,597.9,236.5,597.9,236.6L597.9,236.6z"/>
</g>
<g>
	<path class="st5" d="M597,246.5c1.3,2.7,2.9,5.3,4.9,7.6c0.3,0.4,0.3,1-0.1,1.4c-0.4,0.3-0.9,0.3-1.3,0c-2.3-2.2-4.4-4.7-6.1-7.5
		l0,0c-0.4-0.7-0.2-1.6,0.5-2.1c0.7-0.4,1.6-0.2,2.1,0.5C597,246.4,597,246.5,597,246.5z"/>
</g>
<g>
	<path class="st5" d="M596.9,256.1c2,2.6,4.2,5,6.7,7.3c0.3,0.3,0.3,0.8,0.1,1.1c-0.3,0.3-0.7,0.3-1,0.1c-2.8-1.9-5.5-4.1-8-6.5l0,0
		c-0.6-0.6-0.6-1.5,0-2.1c0.6-0.6,1.5-0.6,2.1,0C596.8,256,596.9,256,596.9,256.1z"/>
</g>
<g>
	<path class="st5" d="M595.6,263l7.5,4.5c0.4,0.2,0.5,0.7,0.3,1.1c-0.2,0.3-0.6,0.5-0.9,0.3l-8.1-3.2c-0.8-0.3-1.2-1.2-0.9-2
		s1.2-1.2,2-0.9C595.4,263,595.5,263,595.6,263z"/>
</g>
<g>
	<path class="st5" d="M595.1,269.7c2.9,0.2,5.8,0.8,8.5,1.8c0.5,0.2,0.7,0.7,0.5,1.1c-0.1,0.4-0.6,0.6-1,0.6c-2.7-0.5-5.4-0.7-8-0.5
		c-0.8,0.1-1.5-0.6-1.6-1.4c-0.1-0.8,0.6-1.5,1.4-1.6C594.9,269.7,595,269.7,595.1,269.7L595.1,269.7z"/>
</g>
<g>
	<path class="st5" d="M603.8,277.4l-5.4,7.3l-0.1,0.1c-0.5,0.7-1.4,0.8-2.1,0.3c-0.7-0.5-0.8-1.4-0.3-2.1c0-0.1,0.1-0.1,0.1-0.2
		l6.5-6.6c0.3-0.3,0.9-0.3,1.2,0C604,276.5,604.1,277,603.8,277.4L603.8,277.4z"/>
</g>
<g>
	<path class="st5" d="M602.2,284.7c-1.6,2.5-3.5,4.8-5.7,6.8l0,0c-0.6,0.6-1.6,0.5-2.1-0.1c-0.6-0.6-0.5-1.6,0.1-2.1
		c0.1-0.1,0.1-0.1,0.2-0.1c2.3-1.5,4.4-3.4,6.3-5.5c0.3-0.4,0.8-0.4,1.2-0.1C602.4,283.9,602.5,284.3,602.2,284.7z"/>
</g>
<g>
	<path class="st5" d="M601.5,293l-6.1,3.8l-0.1,0.1c-0.7,0.4-1.6,0.2-2.1-0.5c-0.4-0.7-0.2-1.6,0.5-2.1c0.1,0,0.1-0.1,0.2-0.1
		l6.8-2.9c0.5-0.2,1,0,1.2,0.5C602.1,292.2,602,292.7,601.5,293L601.5,293z"/>
</g>
<g>
	<path class="st5" d="M594.7,298.2c2.5,0.7,4.9,1.8,7,3.3c0.5,0.3,0.6,1,0.3,1.5c-0.3,0.4-0.9,0.6-1.3,0.3l0,0
		c-2.1-1.1-4.3-1.8-6.5-2.1c-0.8-0.1-1.4-0.9-1.3-1.7c0.1-0.8,0.9-1.4,1.7-1.3C594.6,298.2,594.6,298.2,594.7,298.2L594.7,298.2z"/>
</g>
<g>
	<path class="st5" d="M596.1,303.8l1.8,11.4c0.1,0.4-0.2,0.8-0.7,0.9c-0.4,0.1-0.8-0.2-0.9-0.6l-3.2-11.1c-0.2-0.8,0.2-1.6,1-1.9
		c0.8-0.2,1.6,0.2,1.9,1C596.1,303.7,596.1,303.7,596.1,303.8z"/>
</g>
<g>
	<path class="st5" d="M602.9,318l-8.1,7.9l-0.1,0.1c-0.6,0.6-1.5,0.6-2.1,0c-0.6-0.6-0.6-1.5,0-2.1c0,0,0.1-0.1,0.1-0.1l9-7.1
		c0.4-0.3,1-0.2,1.3,0.2C603.3,317.2,603.3,317.7,602.9,318L602.9,318z"/>
</g>
<g>
	<path class="st5" d="M603.3,324.6l-6.8,8.6l-0.1,0.1c-0.5,0.7-1.5,0.8-2.1,0.3c-0.7-0.5-0.8-1.5-0.3-2.1c0,0,0.1-0.1,0.1-0.1
		l7.8-7.9c0.3-0.3,0.9-0.4,1.3,0C603.6,323.7,603.6,324.2,603.3,324.6L603.3,324.6z"/>
</g>
<g>
	<path class="st5" d="M602.7,333.6l-6.9,7.5l0,0c-0.6,0.6-1.5,0.6-2.1,0.1s-0.6-1.5-0.1-2.1c0,0,0.1-0.1,0.1-0.1l7.9-6.6
		c0.4-0.3,0.9-0.3,1.2,0.1C603.1,332.8,603.1,333.3,602.7,333.6L602.7,333.6z"/>
</g>
<g>
	<path class="st5" d="M601.3,341.1c-2.2,2.8-4.8,5.5-7.6,7.8l0,0c-0.6,0.5-1.6,0.4-2.1-0.2c-0.5-0.6-0.4-1.6,0.2-2.1
		c0,0,0.1-0.1,0.2-0.1c2.9-1.8,5.7-4,8.1-6.4c0.3-0.3,0.8-0.3,1.1,0C601.6,340.3,601.6,340.8,601.3,341.1z"/>
</g>
<g>
	<path class="st5" d="M599.4,350.4c-1.9,2.2-3.5,4.6-4.9,7.1c-0.4,0.7-1.3,1-2,0.6c-0.7-0.4-1-1.3-0.6-2c0-0.1,0.1-0.1,0.1-0.2l0,0
		c1.9-2.4,3.9-4.6,6.2-6.6c0.3-0.3,0.9-0.3,1.2,0.1C599.6,349.6,599.6,350,599.4,350.4z"/>
</g>
<g>
	<path class="st5" d="M596.3,361.8c-1.3,1.9-2.7,3.8-4.2,5.6l0,0c-0.5,0.6-1.5,0.7-2.1,0.2c-0.6-0.5-0.7-1.5-0.2-2.1
		c0.1-0.1,0.1-0.1,0.2-0.2c1.7-1.4,3.4-3,5-4.6c0.3-0.3,0.9-0.3,1.2,0C596.5,361,596.5,361.5,596.3,361.8z"/>
</g>
<g>
	<path class="st5" d="M597,367.9c-1.6,1.7-3.1,3.5-4.5,5.3c-0.5,0.7-1.5,0.8-2.1,0.3c-0.7-0.5-0.8-1.5-0.3-2.1
		c0.1-0.1,0.1-0.2,0.2-0.2l0,0c1.8-1.6,3.7-3.1,5.7-4.4c0.4-0.2,0.8-0.2,1.1,0.2C597.3,367.2,597.2,367.6,597,367.9z"/>
</g>
<g>
	<path class="st5" d="M597.4,375l-3.9,5.2c-0.5,0.7-1.4,0.8-2.1,0.3c-0.7-0.5-0.8-1.4-0.3-2.1c0.1-0.1,0.1-0.2,0.2-0.2l4.9-4.3
		c0.4-0.3,0.9-0.3,1.2,0.1C597.6,374.3,597.6,374.7,597.4,375z"/>
</g>
<g>
	<path class="st5" d="M596.3,382.5c-0.9,2.7-1.7,5.4-2,8.1c-0.3,2.7-0.1,5.6-0.2,8.5c0,0.5-0.5,0.9-1,0.9c-0.5,0-0.9-0.4-0.9-0.9
		c-0.1-2.8-0.5-5.7-0.3-8.7c0.2-3,0.9-5.9,1.6-8.7c0.2-0.8,1-1.3,1.8-1.1C596,380.8,596.5,381.6,596.3,382.5
		C596.3,382.4,596.3,382.4,596.3,382.5z"/>
</g>
<g>
	<path class="st5" d="M590.7,404.4l6.8-0.7c0.5-0.1,1,0.3,1,0.9c0,0.5-0.3,0.9-0.7,1l-6.6,1.7c-0.8,0.2-1.6-0.3-1.8-1.1
		c-0.2-0.8,0.3-1.6,1.1-1.8C590.6,404.4,590.6,404.4,590.7,404.4z"/>
</g>
<g>
	<path class="st5" d="M588.3,408.3l6.8,2.4c0.5,0.2,0.7,0.7,0.6,1.2c-0.2,0.4-0.6,0.7-1.1,0.6l-7.1-1.4c-0.8-0.2-1.4-0.9-1.2-1.8
		c0.2-0.8,0.9-1.4,1.8-1.2C588.2,408.2,588.3,408.2,588.3,408.3z"/>
</g>
<g>
	<path class="st5" d="M585.5,413c2.6,0.5,5.2,1.1,7.7,2c0.5,0.2,0.8,0.8,0.6,1.3c-0.2,0.5-0.7,0.8-1.2,0.7c-2.5-0.5-5-0.8-7.5-0.9
		c-0.8,0-1.5-0.7-1.4-1.6c0-0.8,0.7-1.5,1.6-1.4C585.4,413,585.5,413,585.5,413L585.5,413z"/>
</g>
<g>
	<path class="st5" d="M583.1,416.9c1.7,1.3,3.6,2.3,5.6,3.2c0.4,0.2,0.6,0.7,0.4,1.1c-0.2,0.4-0.6,0.6-1,0.5
		c-2.2-0.5-4.4-1.3-6.5-2.2l0,0c-0.8-0.3-1.1-1.2-0.7-2c0.3-0.8,1.2-1.1,2-0.7C582.9,416.8,583,416.9,583.1,416.9z"/>
</g>
<g>
	<path class="st5" d="M581,421.3l3.8,3.2c0.4,0.4,0.5,1,0.1,1.5c-0.3,0.4-0.9,0.5-1.3,0.2l-4.3-2.5c-0.7-0.4-1-1.3-0.5-2.1
		c0.4-0.7,1.3-1,2.1-0.5C580.8,421.2,580.9,421.3,581,421.3z"/>
</g>
<g>
	<path class="st5" d="M525.4,429.3l13.5,1.8c2.2,0.3,4.5,0.5,6.7,0.6c2.2,0.1,4.4,0,6.7-0.1c4.5-0.3,9.1-0.6,13.5-1.2
		c4.5-0.5,8.9-1.4,13.2-2.8c0.3-0.1,0.7,0.1,0.8,0.4c0.1,0.3-0.1,0.7-0.4,0.8c-4.3,1.6-8.8,2.6-13.4,3.3c-4.5,0.7-9.1,1.1-13.6,1.6
		c-2.3,0.2-4.6,0.4-6.9,0.3c-2.3,0-4.6-0.2-6.9-0.4l-13.6-1.4c-0.8-0.1-1.4-0.8-1.3-1.6C523.8,429.8,524.5,429.2,525.4,429.3
		C525.4,429.3,525.4,429.3,525.4,429.3z"/>
</g>
<g>
	<path class="st5" d="M525.4,432.5l-3.9,1.4c-1.3,0.4-2.7,1-4.3,1.1c-1.6,0.1-2.9-0.1-4.3-0.4c-1.4-0.2-2.8-0.6-4.1-1
		c-0.5-0.2-0.8-0.7-0.6-1.2c0.2-0.5,0.7-0.8,1.2-0.6c1.3,0.3,2.6,0.6,3.9,0.7c1.3,0.1,2.7,0.2,3.8,0.1c1.1-0.1,2.3-0.6,3.5-1.2
		l3.8-1.6c0.8-0.3,1.6,0,2,0.8C526.6,431.2,526.2,432.1,525.4,432.5C525.4,432.4,525.4,432.4,525.4,432.5z"/>
</g>
<g>
	<path class="st5" d="M505.9,430.9c-1.1,1-1.8,2.7-1.7,4.3l0,0c0,0.6-0.4,1.1-1,1.1c-0.5,0-1-0.3-1.1-0.8c-0.5-2.2,0-4.7,1.5-6.6
		l0,0c0.5-0.7,1.4-0.8,2.1-0.3s0.8,1.4,0.3,2.1C506,430.7,505.9,430.8,505.9,430.9z"/>
</g>
<g>
	<path class="st5" d="M502.2,426.7c2-3.8,4.4-7.5,7.7-10.5c1.6-1.5,3.5-2.8,5.5-3.7c2-1,4.3-1.6,6.6-1.9l0,0
		c0.8-0.1,1.6,0.5,1.6,1.4c0.1,0.8-0.5,1.6-1.4,1.6c0,0-0.1,0-0.1,0c-3.8,0.1-7.7,1.8-10.8,4.3c-3.2,2.5-5.7,5.9-7.9,9.5
		c-0.2,0.3-0.6,0.5-1,0.2C502.2,427.4,502.1,427,502.2,426.7z"/>
</g>
<g>
	<path class="st5" d="M519.3,407.9c1.9-0.4,3.9-0.5,5.9,0l0,0c0.5,0.1,0.9,0.6,0.8,1.2s-0.6,0.9-1.2,0.8c0,0-0.1,0-0.1,0
		c-1.6-0.5-3.4-0.7-5.1-0.4c-0.4,0.1-0.8-0.2-0.8-0.6C518.6,408.4,518.9,408,519.3,407.9z"/>
</g>
<g>
	<path class="st5" d="M503.6,434.4c-4.1,1.2-8.4,0.9-12.3-0.6c-0.5-0.2-0.7-0.7-0.5-1.2c0.2-0.5,0.7-0.7,1.1-0.5l0,0
		c3.5,1.1,7.4,0.9,10.7-0.4c0.8-0.3,1.6,0.1,1.9,0.8c0.3,0.8-0.1,1.6-0.8,1.9C503.7,434.4,503.7,434.4,503.6,434.4L503.6,434.4z"/>
</g>
<g>
	<path class="st5" d="M490.5,430.1c-1.4,0.4-2.6,1.8-2.9,3.5l0,0c-0.1,0.4-0.4,0.7-0.9,0.7c-0.4,0-0.6-0.3-0.7-0.7
		c-0.2-2.3,0.8-4.8,3-6.2l0.1-0.1c0.7-0.5,1.6-0.3,2.1,0.4c0.5,0.7,0.3,1.6-0.4,2.1C490.8,430,490.7,430,490.5,430.1z"/>
</g>
<g>
	<path class="st5" d="M489.2,425.2c3.9-9.2,11.8-16.6,21.4-19.8c0.8-0.3,1.6,0.2,1.9,0.9s-0.2,1.6-0.9,1.9c0,0,0,0-0.1,0
		c-8.9,2.6-16.7,9.2-20.7,17.7c-0.2,0.5-0.8,0.7-1.2,0.4C489.3,426.2,489.1,425.7,489.2,425.2z"/>
</g>
<g>
	<path class="st5" d="M511.6,402.6c1.5,0,3,0.5,4.3,1.3l0,0c0.5,0.3,0.6,0.9,0.3,1.4c-0.3,0.5-0.9,0.6-1.4,0.3
		c-0.1,0-0.1-0.1-0.2-0.1c-0.9-0.8-2-1.4-3.3-1.7l0,0c-0.3-0.1-0.5-0.4-0.5-0.7C511.1,402.7,511.3,402.5,511.6,402.6z"/>
</g>
<g>
	<path class="st5" d="M512.8,403.7c-1.4-1.4-4.1-1.7-6.3-0.8c-2.3,0.8-4.4,2.5-6.6,4.2l-3.2,2.6c-1.1,0.9-2.1,1.7-3.1,2.6
		c-2,1.8-3.8,3.8-4.6,6.2l0,0c-0.2,0.5-0.7,0.7-1.1,0.5c-0.4-0.2-0.7-0.6-0.6-1.1c0.9-2.9,2.8-5.2,4.8-7.2c1-1,2-1.9,3.1-2.8
		l3.1-2.7c2.1-1.8,4.3-3.7,7.1-4.9c1.4-0.6,3-0.9,4.7-0.7c1.6,0.1,3.3,0.7,4.6,1.9l0,0c0.6,0.6,0.7,1.5,0.1,2.1
		S513.5,404.3,512.8,403.7C512.8,403.8,512.8,403.8,512.8,403.7z"/>
</g>
<g>
	<path class="st5" d="M490.6,421.6c-1.2,1-2.2,2.1-3.1,3.4l0,0c-0.3,0.4-0.8,0.5-1.2,0.2c-0.3-0.2-0.4-0.7-0.3-1
		c0.6-1.6,1.4-3.1,2.4-4.5l0,0c0.5-0.7,1.4-0.9,2.1-0.4c0.7,0.5,0.9,1.4,0.4,2.1C490.8,421.5,490.7,421.6,490.6,421.6z"/>
</g>
<g>
	<path class="st5" d="M515.1,396.7c1.2,1.1,2.5,2.2,3.9,3c0.5,0.3,0.6,0.9,0.3,1.4s-0.9,0.6-1.4,0.3c0,0-0.1,0-0.1-0.1
		c-1.4-1.1-2.7-2.4-3.8-3.7c-0.2-0.3-0.2-0.7,0.1-1C514.4,396.5,514.8,396.5,515.1,396.7z"/>
</g>
<g>
	<path class="st5" d="M518.9,394.6c0.8,0.2,1.6,0.4,2.4,0.4c0.6,0,1,0.4,1,1c0,0.6-0.4,1-1,1c-0.1,0-0.1,0-0.2,0l0,0
		c-1-0.2-1.9-0.5-2.8-0.9c-0.4-0.2-0.5-0.7-0.3-1C518.2,394.7,518.5,394.5,518.9,394.6L518.9,394.6z"/>
</g>
<g>
	<path class="st5" d="M464,218.7c0.9,1.6,1.4,3.3,2,4.9c0.5,1.6,1.2,3.1,1.8,4.7c0.6,1.5,1.4,3,2.1,4.5c0.8,1.5,1.6,2.9,2.4,4.4
		c3.4,5.8,7.3,11.3,11.5,16.6c4.1,5.4,8.4,10.7,12.5,16.1c4.1,5.5,7.9,11.2,11.1,17.2c0.3,0.5,0.1,1.1-0.4,1.3
		c-0.5,0.2-1.1,0.1-1.3-0.4c-3.2-5.9-7.1-11.4-11.2-16.8c-4.1-5.4-8.5-10.6-12.7-15.9c-4.2-5.4-8.3-10.9-11.9-16.8
		c-0.8-1.5-1.7-3-2.5-4.5c-0.7-1.6-1.6-3.1-2.2-4.7c-0.7-1.6-1.4-3.2-2-4.8c-0.6-1.6-1.2-3.1-1.9-4.5c-0.4-0.7-0.1-1.6,0.6-2
		S463.6,218,464,218.7C463.9,218.7,464,218.7,464,218.7z"/>
</g>
<g>
	<path class="st5" d="M456.5,218.3c-1.2-4.9-1.9-9.9-2-14.9c0-0.8,0.6-1.5,1.5-1.5c0.8,0,1.5,0.6,1.5,1.5c0,0,0,0.1,0,0.1
		c-0.3,4.8,0,9.7,0.8,14.5c0.1,0.5-0.2,1-0.7,1C457,219,456.6,218.7,456.5,218.3z"/>
</g>
<g>
	<path class="st5" d="M450.2,201.6c-0.1-3.2,0-6.5,0.4-9.7c0.1-0.8,0.8-1.4,1.7-1.3s1.4,0.8,1.3,1.7c0,0.1,0,0.1,0,0.2
		c-0.7,3-1.2,6.1-1.4,9.2c0,0.5-0.5,0.9-1,0.9C450.6,202.5,450.3,202.1,450.2,201.6z"/>
</g>
<g>
	<path class="st5" d="M447.3,192.1l1.7-6.8c0.2-0.8,1-1.3,1.8-1.1c0.8,0.2,1.3,1,1.1,1.8c0,0.1-0.1,0.2-0.1,0.3l-3,6.3
		c-0.2,0.4-0.7,0.6-1,0.4C447.4,192.8,447.2,192.4,447.3,192.1z"/>
</g>
<g>
	<path class="st5" d="M446,181.5l3.4-6c0.3-0.5,0.9-0.7,1.4-0.4s0.7,0.9,0.4,1.4c0,0,0,0.1-0.1,0.1l-4,5.6c-0.2,0.3-0.6,0.4-0.9,0.2
		C445.9,182.2,445.9,181.8,446,181.5z"/>
</g>
<g>
	<path class="st5" d="M446.3,171.2c0.8-0.9,1.2-2,1.4-3.1c0.1-0.6,0.6-0.9,1.2-0.8c0.6,0.1,0.9,0.6,0.8,1.2c0,0.1,0,0.2-0.1,0.2l0,0
		c-0.6,1.3-1.5,2.5-2.6,3.3c-0.2,0.2-0.6,0.1-0.7-0.1C446.1,171.7,446.1,171.4,446.3,171.2L446.3,171.2z"/>
</g>
<g>
	<path class="st5" d="M448.2,161l-1,1.3c-0.2,0.2-0.5,0.3-0.8,0.1c-0.2-0.1-0.2-0.3-0.2-0.5l0.1-1.6c0.1-0.6,0.6-1,1.1-0.9
		s1,0.6,0.9,1.1C448.4,160.7,448.3,160.8,448.2,161z"/>
</g>
<g>
	<path class="st5" d="M444.8,152.4c-0.3,2.3-0.8,4.6-1.5,6.8c-0.1,0.3-0.4,0.4-0.7,0.4c-0.3-0.1-0.4-0.3-0.4-0.6
		c0.4-2.2,0.6-4.5,0.6-6.7c0-0.6,0.4-1,1-1s1,0.4,1,1C444.8,152.3,444.8,152.3,444.8,152.4z"/>
</g>
<g>
	<path class="st5" d="M436.8,148.8c1,1.6,1.3,3.5,0.9,5.2c-0.1,0.4-0.4,0.6-0.8,0.5c-0.3-0.1-0.5-0.4-0.5-0.7l0,0
		c0.1-1.4-0.4-2.9-1.2-3.9c-0.4-0.4-0.3-1.1,0.1-1.4s1.1-0.3,1.4,0.1C436.8,148.7,436.8,148.7,436.8,148.8L436.8,148.8z"/>
</g>
<path class="st6" d="M427.4,147.4"/>
<g>
	<path class="st5" d="M511.6,283.9c1.8,1.7,3.1,3.8,3.9,6c0.9,2.2,1.4,4.5,1.7,6.7c0.3,2.3,0.5,4.5,0.7,6.7c0.2,2.2,0.3,4.4,0.5,6.6
		c0.5,8.8,0.6,17.7,0.8,26.5c0.2,8.8,0.4,17.6,1.2,26.4c0.4,4.4,0.9,8.8,1.1,13.2c0,2.2,0.1,4.5-0.4,6.8c-0.2,1.1-0.6,2.3-1.2,3.4
		c-0.6,1.1-1.5,2-2.5,2.7c-0.4,0.3-1,0.1-1.3-0.3s-0.1-1,0.3-1.3l0,0c1.6-1,2.5-2.9,2.9-4.9c0.4-2,0.4-4.2,0.3-6.4
		c-0.2-4.3-0.8-8.7-1.2-13.1c-0.9-8.8-1.2-17.7-1.5-26.5c-0.3-8.8-0.5-17.6-1.1-26.4c-0.1-2.2-0.3-4.4-0.5-6.6
		c-0.2-2.2-0.4-4.4-0.8-6.5c-0.7-4.2-2-8.3-4.9-11c-0.6-0.6-0.6-1.5-0.1-2.1C510,283.4,511,283.4,511.6,283.9
		C511.6,283.9,511.6,283.9,511.6,283.9z"/>
</g>
<g>
	<path class="st5" d="M517.7,390.4c1.1,0,2.2-0.3,2.9-0.9c0.7-0.5,1.6-0.4,2.1,0.3c0.5,0.7,0.4,1.6-0.3,2.1
		c-0.1,0.1-0.2,0.1-0.3,0.2l-0.1,0c-1.5,0.7-3.2,0.8-4.8,0.4c-0.6-0.2-0.9-0.7-0.8-1.3C516.7,390.7,517.1,390.4,517.7,390.4
		L517.7,390.4z"/>
</g>
<g>
	<path class="st5" d="M232.7,138.1c-1.3,17.6-2.6,35.2-2.1,52.8c0.3,8.8,1,17.6,2.4,26.2c1.4,8.7,3.6,17.2,6.6,25.5
		c0.1,0.4-0.1,0.8-0.4,0.9c-0.4,0.1-0.8,0-0.9-0.4c-3.2-8.3-5.5-16.9-7.1-25.6c-1.6-8.7-2.5-17.6-2.9-26.5
		c-0.8-17.7,0.2-35.5,1.3-53.1c0.1-0.8,0.8-1.5,1.6-1.4S232.8,137.2,232.7,138.1C232.7,138.1,232.7,138.1,232.7,138.1z"/>
</g>
<g>
	<path class="st5" d="M243.1,238.6c5.5,14.1,12.2,27.7,18,41.8c2.9,7.1,5.5,14.2,7.6,21.6c2.1,7.4,3.6,14.9,4.1,22.6
		c0,0.5-0.3,1-0.9,1c-0.5,0-0.9-0.3-1-0.8c-0.6-7.5-2.2-14.9-4.3-22.1c-2.1-7.2-4.8-14.3-7.8-21.3c-5.9-13.9-12.9-27.5-18.6-41.6
		c-0.3-0.8,0.1-1.6,0.8-2C241.9,237.5,242.8,237.8,243.1,238.6C243.1,238.6,243.1,238.6,243.1,238.6z"/>
</g>
<g>
	<path class="st5" d="M277.7,325.7L276,338c-0.1,0.5-0.5,0.9-1.1,0.8c-0.5-0.1-0.8-0.5-0.8-1l0.6-12.4c0-0.8,0.7-1.5,1.6-1.4
		s1.5,0.7,1.4,1.6C277.8,325.6,277.8,325.7,277.7,325.7z"/>
</g>
<g>
	<path class="st5" d="M277.1,343.6l-4.4,60.1c0,0.5-0.5,0.8-0.9,0.8c-0.5,0-0.8-0.4-0.8-0.9l3.1-60.2c0-0.8,0.7-1.5,1.6-1.4
		C276.5,342.1,277.2,342.8,277.1,343.6C277.1,343.6,277.1,343.6,277.1,343.6z"/>
</g>
<g>
	<path class="st5" d="M267.4,405.9c1.4,0.8,2.8,1.4,4.2,1.8c0.8,0.2,1.3,1,1.1,1.9c-0.2,0.8-1,1.3-1.9,1.1c-0.2,0-0.3-0.1-0.5-0.2
		l0,0c-1.4-1-2.7-2.2-3.8-3.5c-0.2-0.3-0.2-0.7,0.1-0.9C266.9,405.8,267.1,405.8,267.4,405.9L267.4,405.9z"/>
</g>
<g>
	<path class="st5" d="M264.8,410.6l2.8,0.5c0.6,0.1,0.9,0.6,0.8,1.2s-0.6,0.9-1.2,0.8c-0.1,0-0.2-0.1-0.3-0.1l-2.5-1.5
		c-0.2-0.1-0.3-0.5-0.2-0.7C264.4,410.6,264.6,410.5,264.8,410.6z"/>
</g>
<g>
	<path class="st5" d="M348,176l2.1,5.4l1.9,4.9l0.2,0.6c0.2,0.4,0,0.8-0.4,1c-0.2,0.1-0.4,0.1-0.6,0c-0.5-0.2-0.7-0.6-0.9-0.9
		c-0.2-0.3-0.3-0.5-0.4-0.7l-0.7-1.3l-1.3-2.6l-2.7-5.2c-0.4-0.7-0.1-1.6,0.6-2c0.7-0.4,1.6-0.1,2,0.6
		C347.9,175.9,347.9,175.9,348,176z"/>
</g>
<g>
	<path class="st5" d="M348.6,190.7c2.4,3.7,4.4,7.6,6.2,11.7c0.2,0.4,0,0.8-0.4,0.9c-0.3,0.1-0.7,0-0.9-0.3
		c-2.2-3.7-4.6-7.2-7.3-10.5c-0.5-0.6-0.4-1.6,0.2-2.1c0.6-0.5,1.6-0.4,2.1,0.2C348.6,190.6,348.6,190.6,348.6,190.7z"/>
</g>
<g>
	<path class="st5" d="M348.5,201.2l9.2,12.4c0.3,0.4,0.2,0.9-0.2,1.1c-0.3,0.3-0.8,0.2-1.1-0.1l-10.3-11.6c-0.6-0.6-0.5-1.6,0.1-2.1
		s1.6-0.5,2.1,0.1C348.4,201.2,348.4,201.2,348.5,201.2z"/>
</g>
<g>
	<path class="st5" d="M351,212.4c2.2,4.8,5,9.4,8.3,13.5c0.3,0.3,0.2,0.8-0.1,1.1c-0.3,0.2-0.8,0.2-1-0.1c-3.8-3.9-7.1-8.4-9.8-13.2
		c-0.4-0.7-0.2-1.6,0.6-2.1c0.7-0.4,1.6-0.2,2.1,0.6C351,212.4,351,212.4,351,212.4z"/>
</g>
<g>
	<path class="st5" d="M353.5,229.6l6.1,10.5c0.2,0.4,0.1,0.9-0.3,1.1c-0.4,0.2-0.8,0.1-1.1-0.2l-7.2-9.8c-0.5-0.7-0.4-1.6,0.3-2.1
		c0.7-0.5,1.6-0.4,2.1,0.3C353.5,229.6,353.5,229.6,353.5,229.6z"/>
</g>
<g>
	<path class="st5" d="M351.2,238.5c1.9,3.9,4.2,7.5,7,10.8c0.3,0.3,0.2,0.9-0.1,1.2c-0.3,0.3-0.8,0.2-1.1,0
		c-3.2-3.1-6.1-6.7-8.5-10.5c-0.4-0.7-0.2-1.6,0.5-2.1c0.7-0.4,1.6-0.2,2.1,0.5C351.1,238.4,351.1,238.5,351.2,238.5z"/>
</g>
<g>
	<path class="st5" d="M350.2,253.3l9.4,2.4c0.4,0.1,0.7,0.5,0.5,0.9c-0.1,0.4-0.4,0.6-0.8,0.6l-9.6-1c-0.8-0.1-1.4-0.8-1.3-1.6
		c0.1-0.8,0.8-1.4,1.6-1.3C350.1,253.3,350.1,253.3,350.2,253.3z"/>
</g>
<g>
	<path class="st5" d="M363.9,261.6c-3.2,1.9-6.6,3.5-10.2,4.8c-0.8,0.3-1.6-0.1-1.9-0.9s0.1-1.6,0.9-1.9c0,0,0.1,0,0.2,0
		c3.5-0.9,6.9-2.1,10.2-3.6c0.5-0.2,1,0,1.2,0.4C364.5,260.9,364.3,261.4,363.9,261.6z"/>
</g>
<g>
	<path class="st5" d="M363.1,270.6l-7.3,12.3c-0.4,0.7-1.3,0.9-2.1,0.5c-0.7-0.4-0.9-1.3-0.5-2.1c0,0,0-0.1,0.1-0.1l8.4-11.6
		c0.3-0.4,0.8-0.5,1.2-0.2C363.2,269.7,363.3,270.2,363.1,270.6z"/>
</g>
<g>
	<path class="st5" d="M363.7,281c-1.8,3.8-4.2,7.4-7.2,10.5l0,0c-0.6,0.6-1.5,0.6-2.1,0c-0.6-0.6-0.6-1.5,0-2.1c0,0,0.1-0.1,0.1-0.1
		c3.1-2.5,5.7-5.6,7.8-9c0.2-0.4,0.7-0.5,1.1-0.3C363.7,280.2,363.8,280.6,363.7,281z"/>
</g>
<g>
	<path class="st5" d="M355.4,294.6L366,290c0.5-0.2,1,0,1.2,0.5c0.2,0.4,0,0.9-0.4,1.2l-10.1,5.6c-0.7,0.4-1.6,0.1-2-0.6
		c-0.4-0.7-0.1-1.6,0.6-2C355.3,294.6,355.4,294.6,355.4,294.6z"/>
</g>
<g>
	<path class="st5" d="M356.3,300.4c2.5-0.6,4.9-1,7.4-1.2c0.5,0,1,0.3,1,0.9c0,0.5-0.3,0.9-0.7,1c-2.3,0.6-4.6,1.3-6.8,2.2
		c-0.8,0.3-1.6-0.1-2-0.8c-0.3-0.8,0.1-1.6,0.8-2C356.2,300.4,356.2,300.4,356.3,300.4L356.3,300.4z"/>
</g>
<g>
	<path class="st5" d="M354.9,305.7c1.8,0,3.5,0.4,4.9,1.2c0.4,0.2,0.5,0.7,0.3,1c-0.2,0.3-0.5,0.5-0.8,0.4l0,0
		c-1.4-0.2-2.8-0.1-4.1,0.3c-0.8,0.3-1.7-0.2-1.9-1s0.2-1.7,1-1.9C354.5,305.7,354.7,305.7,354.9,305.7L354.9,305.7z"/>
</g>
<g>
	<path class="st5" d="M355.3,311.1c1.6,0.3,3.2,0.8,4.7,1.4c0.5,0.2,0.7,0.7,0.6,1.2c-0.2,0.4-0.6,0.7-1,0.6l0,0
		c-1.5-0.2-3.1-0.3-4.6-0.2c-0.8,0-1.5-0.6-1.5-1.5s0.6-1.5,1.5-1.5C355,311.1,355.1,311.1,355.3,311.1L355.3,311.1z"/>
</g>
<g>
	<path class="st5" d="M353.5,315.6c1.2,2,1.9,4.1,2.4,6.2c0.5,2.1,0.9,4.1,1.5,6c0.1,0.4-0.1,0.9-0.5,1c-0.4,0.1-0.8-0.1-1-0.4
		c-0.9-1.9-1.5-4-2.2-5.9c-0.7-1.9-1.5-3.7-2.7-5.1c-0.5-0.6-0.4-1.6,0.2-2.1c0.6-0.5,1.6-0.4,2.1,0.2
		C353.4,315.4,353.4,315.5,353.5,315.6L353.5,315.6z"/>
</g>
<g>
	<path class="st5" d="M352.8,323.3l3.9,19.3l0,0c0.1,0.5-0.2,1-0.7,1.1c-0.5,0.1-0.9-0.2-1.1-0.7l-5-19c-0.2-0.8,0.3-1.6,1.1-1.8
		C351.8,321.9,352.6,322.4,352.8,323.3C352.8,323.2,352.8,323.2,352.8,323.3L352.8,323.3z"/>
</g>
<g>
	<path class="st5" d="M351.4,335.3c0,3.3,0,6.5,0.4,9.7c0.4,3.2,1.1,6.3,2.4,9.2c0.2,0.4,0,0.9-0.4,1.1c-0.4,0.2-0.9,0-1.1-0.3
		c-1.7-3-2.7-6.3-3.3-9.6c-0.6-3.3-0.8-6.7-1-9.9c-0.1-0.8,0.6-1.5,1.4-1.6c0.8-0.1,1.5,0.6,1.6,1.4
		C351.4,335.2,351.4,335.3,351.4,335.3z"/>
</g>
<g>
	<path class="st5" d="M349.1,355.5l2.3,12.3c0.1,0.5-0.2,1-0.7,1.1c-0.5,0.1-0.9-0.2-1.1-0.7l-3.4-12c-0.2-0.8,0.2-1.6,1-1.9
		c0.8-0.2,1.6,0.2,1.9,1C349.1,355.4,349.1,355.4,349.1,355.5z"/>
</g>
<g>
	<path class="st5" d="M347.2,366.8c0.5,4,1.2,8,2.1,11.9c0.1,0.4-0.2,0.9-0.6,1c-0.4,0.1-0.8-0.1-0.9-0.5c-1.4-3.9-2.5-7.8-3.5-11.8
		c-0.2-0.8,0.3-1.6,1.1-1.8c0.8-0.2,1.6,0.3,1.8,1.1C347.2,366.7,347.2,366.8,347.2,366.8z"/>
</g>
<g>
	<path class="st5" d="M343.1,374.6c1.2,4.2,2.2,8.4,3.1,12.6c0.1,0.4-0.2,0.9-0.6,1c-0.4,0.1-0.8-0.2-1-0.6
		c-1.3-4.1-2.7-8.1-4.3-12.1c-0.3-0.8,0.1-1.6,0.8-2c0.8-0.3,1.6,0.1,2,0.8C343.1,374.5,343.1,374.5,343.1,374.6z"/>
</g>
<g>
	<path class="st5" d="M341.6,387.2l5.2,10.7c0.2,0.4,0,0.9-0.4,1c-0.4,0.2-0.8,0-1-0.3l-6.4-10c-0.5-0.7-0.3-1.6,0.4-2.1
		s1.6-0.3,2.1,0.4C341.5,387.1,341.6,387.2,341.6,387.2z"/>
</g>
<g>
	<path class="st5" d="M338.5,394.3c0.5,4.2,1.7,8.4,3.5,12.3c0.2,0.4,0,0.8-0.4,1c-0.3,0.2-0.7,0-0.9-0.3c-2.3-3.8-4.1-8-5.2-12.4
		l0,0c-0.2-0.8,0.3-1.6,1.1-1.8s1.6,0.3,1.8,1.1C338.5,394.2,338.5,394.2,338.5,394.3z"/>
</g>
<g>
	<path class="st5" d="M335.4,406.8c-1.8,1.9-3.1,4.5-4.2,7.2c-0.5,1.3-1.1,2.7-1.5,4.1c-0.4,1.3-0.7,2.7-0.6,4l0,0
		c0,0.4-0.3,0.8-0.7,0.8c-0.4,0-0.8-0.3-0.8-0.7c-0.2-1.6,0-3.2,0.3-4.7c0.4-1.5,0.8-2.9,1.2-4.4c0.9-2.9,2.1-5.8,4.1-8.4l0,0
		c0.5-0.6,1.5-0.8,2.1-0.2C335.9,405.1,336,406.1,335.4,406.8C335.5,406.7,335.4,406.8,335.4,406.8z"/>
</g>
<g>
	<path class="st5" d="M333.2,423.9c-1.1,1.7-2.8,3.1-4.9,3.8l-0.1,0c-0.8,0.3-1.7-0.1-1.9-0.9c-0.3-0.8,0.1-1.7,0.9-1.9
		c0.1,0,0.2-0.1,0.3-0.1c1.5-0.2,3-1,4.1-2.1l0,0c0.4-0.4,1-0.4,1.4,0C333.4,423,333.5,423.5,333.2,423.9z"/>
</g>
<g>
	<path class="st5" d="M332,429.4c-1.2,1.1-2.8,1.8-4.6,1.9l-0.1,0c-0.8,0.1-1.6-0.6-1.6-1.4c-0.1-0.8,0.6-1.6,1.4-1.6
		c0.2,0,0.3,0,0.5,0c1.1,0.3,2.3,0.2,3.4-0.3l0,0c0.4-0.2,1,0,1.2,0.4C332.4,428.8,332.3,429.2,332,429.4z"/>
</g>
<g>
	<path class="st5" d="M328.1,434.8l-5.7-0.9c-0.8-0.1-1.4-0.9-1.3-1.7s0.9-1.4,1.7-1.3c0.1,0,0.2,0.1,0.3,0.1l5.3,2.1
		c0.4,0.2,0.7,0.7,0.5,1.1C328.9,434.6,328.5,434.8,328.1,434.8z"/>
</g>
<g>
	<path class="st5" d="M321.6,438.5c-1.4-0.6-2.6-1.5-3.8-2.6l0,0c-0.6-0.6-0.6-1.6,0-2.1c0.6-0.6,1.6-0.6,2.1,0
		c0.1,0.1,0.2,0.2,0.3,0.4c0.6,1.1,1.4,2.1,2.4,2.9l0,0c0.4,0.3,0.4,0.9,0.1,1.3C322.3,438.6,321.9,438.7,321.6,438.5z"/>
</g>
<g>
	<path class="st5" d="M313.7,437.2c-6.4,1.5-13,2.4-19.6,2.7c-3.3,0.2-6.6,0.2-9.9,0l-2.5-0.2c-0.8-0.1-1.7-0.1-2.6-0.3
		c-1.7-0.3-3.4-0.9-5-1.6c-0.8-0.3-1.1-1.2-0.7-2c0.3-0.8,1.2-1.1,2-0.7c0,0,0,0,0,0c1.4,0.7,2.8,1.2,4.3,1.6
		c0.7,0.2,1.5,0.3,2.3,0.4l2.3,0.3c3.2,0.2,6.5,0.4,9.7,0.3c6.5-0.1,12.9-0.8,19.3-2c0.5-0.1,0.9,0.2,1,0.7
		C314.5,436.7,314.2,437.1,313.7,437.2z"/>
</g>
<g>
	<path class="st5" d="M275.3,437.8c-1.2,0.6-2.4,0.8-3.5,0.9l-3.2,0.2c-2.1,0.1-4.2,0.3-6.3,0.3c-4.2,0.1-8.5-0.2-12.7-0.9
		c-0.4-0.1-0.7-0.5-0.7-1c0.1-0.4,0.5-0.7,0.9-0.7c4.1,0.5,8.2,0.6,12.3,0.2c2.1-0.2,4.1-0.4,6.2-0.6c2.1-0.3,4.3-0.4,5.6-1.1
		c0.7-0.4,1.6-0.2,2.1,0.5c0.4,0.7,0.2,1.6-0.5,2.1C275.4,437.7,275.4,437.8,275.3,437.8L275.3,437.8z"/>
</g>
<g>
	<path class="st5" d="M246.7,436.1c-0.6,0.5-1.2,1-1.5,1.5c-0.4,0.5-0.6,1.1-0.5,1.6l0,0.1c0.1,0.4-0.3,0.8-0.7,0.9
		c-0.4,0-0.7-0.2-0.8-0.5c-0.5-1-0.4-2.2,0-3.2c0.4-1,0.9-1.8,1.4-2.4c0.5-0.7,1.4-0.9,2.1-0.4c0.7,0.5,0.9,1.4,0.4,2.1
		C246.9,435.9,246.8,436,246.7,436.1z"/>
</g>
<g>
	<path class="st5" d="M243.1,438.1l-5.2-0.1l-2.6-0.1c-0.9,0-1.9-0.2-2.9-0.6c-0.4-0.2-0.5-0.6-0.3-1c0.2-0.3,0.6-0.5,0.9-0.4l0,0
		c0.7,0.2,1.4,0.2,2.2,0.1l2.6-0.3l5.2-0.6c0.8-0.1,1.6,0.5,1.7,1.3c0.1,0.8-0.5,1.6-1.3,1.7C243.2,438.1,243.2,438.1,243.1,438.1z"
		/>
</g>
<g>
	<path class="st5" d="M239.7,427.7c0.3-1.9,0.9-3.8,1.8-5.6c0.9-1.8,2.2-3.4,3.9-4.6c1.6-1.2,3.6-2.1,5.8-2.3
		c2.1-0.2,3.9,0.1,5.1-0.5c0.8-0.3,1.6,0,2,0.8c0.3,0.8,0,1.6-0.8,2c0,0-0.1,0-0.1,0.1l-0.1,0c-1.2,0.4-2.3,0.4-3.3,0.4
		c-1,0-1.9-0.1-2.7-0.1c-1.6,0.1-3.2,0.6-4.6,1.6c-2.8,1.8-4.7,5.1-5.5,8.6c-0.1,0.4-0.5,0.7-1,0.6
		C239.9,428.5,239.6,428.1,239.7,427.7z"/>
</g>
<g>
	<path class="st5" d="M258.7,412.7c1.6,0.1,3.2,0.7,4.5,1.9l0,0c0.4,0.4,0.5,1,0.1,1.4c-0.4,0.4-1,0.5-1.4,0.1
		c-0.1,0-0.1-0.1-0.2-0.2c-0.8-1-1.9-1.9-3.3-2.2l0,0c-0.3-0.1-0.4-0.4-0.4-0.6C258.3,412.9,258.5,412.7,258.7,412.7z"/>
</g>
<g>
	<path class="st5" d="M230.3,436c-1,0.7-1.6,2.2-1.3,3.6l0,0c0.1,0.5-0.2,0.9-0.6,1.1c-0.4,0.1-0.8-0.1-1-0.4
		c-1-1.9-0.8-4.5,0.7-6.4l0.1-0.1c0.5-0.7,1.5-0.7,2.1-0.2c0.7,0.5,0.7,1.5,0.2,2.1C230.5,435.8,230.4,436,230.3,436z"/>
</g>
<g>
	<path class="st5" d="M227.2,429.4c0.3-2.4,1.4-4.7,2.7-6.6c0.7-1,1.4-1.8,2.2-2.7c0.8-0.8,1.6-1.7,2.5-2.4c0.9-0.8,1.9-1.5,3-2.1
		c1.1-0.6,2.4-0.9,3.6-1.1c2.5-0.3,4.8,0.1,7.1,0.5c0.8,0.1,1.4,0.9,1.2,1.7c-0.1,0.8-0.9,1.4-1.7,1.2c0,0-0.1,0-0.1,0
		c-2.2-0.5-4.2-0.9-6.2-0.8c-1,0.1-1.9,0.3-2.8,0.7c-0.9,0.4-1.7,1-2.6,1.6c-1.6,1.3-3.2,2.9-4.6,4.5c-1.3,1.7-2.4,3.5-2.7,5.5l0,0
		c-0.1,0.5-0.5,0.8-1,0.7C227.4,430.2,227.1,429.8,227.2,429.4z"/>
</g>
<g>
	<path class="st5" d="M243.5,413.5c2.7-1.3,5.1-3.2,8.1-4.6c1.5-0.7,3.1-1.2,4.9-1.4c1.7-0.2,3.6,0,5.3,0.9l0,0c0.7,0.4,1,1.3,0.7,2
		s-1.3,1-2,0.7c0,0-0.1,0-0.1,0c-1-0.6-2.3-0.9-3.7-0.8c-1.4,0-2.7,0.4-4.1,0.9c-2.7,1-5.3,2.8-8.3,4.1c-0.5,0.2-1,0-1.2-0.5
		C242.8,414.3,243,413.8,243.5,413.5z"/>
</g>
<g>
	<path class="st5" d="M302.9,432.4l0.1,1.3c0,0.3-0.2,0.6-0.5,0.6c-0.2,0-0.4-0.1-0.5-0.2l-0.9-1c-0.3-0.4-0.3-1,0.1-1.4
		c0.4-0.3,1-0.3,1.4,0.1C302.8,432.1,302.9,432.3,302.9,432.4z"/>
</g>
<g>
	<path class="st5" d="M305.6,427c1.2,1.9,2.6,3.6,4.2,5.2c0.2,0.2,0.2,0.5,0,0.7c-0.2,0.2-0.5,0.2-0.7,0.1c-1.9-1.4-3.6-3-5.1-4.8
		c-0.4-0.4-0.3-1.1,0.1-1.4c0.4-0.4,1.1-0.3,1.4,0.1C305.6,426.9,305.6,426.9,305.6,427z"/>
</g>
<g>
	<path class="st5" d="M310.7,426.9l2.4,2.6c0.2,0.3,0.2,0.7-0.1,0.9c-0.2,0.2-0.6,0.2-0.9,0l-2.8-2.2c-0.4-0.3-0.5-1-0.2-1.4
		c0.3-0.4,1-0.5,1.4-0.2C310.7,426.8,310.7,426.9,310.7,426.9z"/>
</g>
<g>
	<path class="st5" d="M315.2,424.4l1.6,1.8c0.2,0.3,0.2,0.7-0.1,0.9c-0.2,0.2-0.5,0.2-0.8,0.1l-2-1.2c-0.5-0.3-0.6-0.9-0.3-1.4
		c0.3-0.5,0.9-0.6,1.4-0.3C315,424.3,315.1,424.3,315.2,424.4z"/>
</g>
<g>
	<path class="st5" d="M317.9,420.9l0.9,1c0.2,0.3,0.2,0.7,0,0.9c-0.2,0.1-0.4,0.2-0.6,0.2l-1.4-0.3c-0.6-0.1-1-0.7-0.9-1.3
		s0.7-1,1.3-0.9C317.5,420.6,317.7,420.8,317.9,420.9z"/>
</g>
<g>
	<path class="st5" d="M214,232.9c1.2,12.2,4.6,24.3,7.3,36.4c1.4,6.1,2.6,12.3,3.3,18.5c0.7,6.2,0.8,12.6,0,18.9
		c-0.1,0.4-0.5,0.8-0.9,0.7c-0.4-0.1-0.7-0.4-0.7-0.9c0.6-6.1,0.4-12.3-0.4-18.4c-0.8-6.1-2.1-12.2-3.6-18.2
		c-2.9-12-6.6-24.1-8.1-36.6c-0.1-0.8,0.5-1.6,1.3-1.7S213.9,232,214,232.9C214,232.9,214,232.9,214,232.9z"/>
</g>
<g>
	<path class="st5" d="M228.6,307c-0.9,4.7-2.1,9.4-3.7,13.9c-0.2,0.5-0.7,0.7-1.1,0.5c-0.4-0.2-0.7-0.6-0.6-1
		c1.2-4.5,2-9.1,2.4-13.8c0.1-0.8,0.8-1.4,1.6-1.4c0.8,0.1,1.4,0.8,1.4,1.6C228.6,306.9,228.6,306.9,228.6,307z"/>
</g>
<g>
	<path class="st5" d="M230,321.3c-2.6,17-6.5,33.8-11.4,50.3c-0.2,0.6-0.8,1-1.4,0.8c-0.6-0.2-1-0.8-0.8-1.4
		c4.7-16.4,8.3-33.2,10.7-50.1c0.1-0.8,0.9-1.4,1.7-1.3C229.5,319.7,230.1,320.5,230,321.3C230,321.3,230,321.3,230,321.3z"/>
</g>
<g>
	<path class="st5" d="M214.3,373.5c1.8,0.2,3.6,0.6,5.3,1.4l0,0c0.8,0.4,1.1,1.3,0.7,2c-0.4,0.8-1.3,1.1-2,0.7
		c-0.1,0-0.2-0.1-0.3-0.2c-1.2-0.9-2.6-1.6-4.1-2.1l0,0c-0.5-0.2-0.8-0.7-0.7-1.2C213.4,373.8,213.8,373.5,214.3,373.5z"/>
</g>
<g>
	<path class="st5" d="M211.9,376.5c1.4,0.6,2.8,1.4,4.1,2.3l0,0c0.6,0.4,0.7,1.1,0.3,1.7c-0.4,0.6-1.1,0.7-1.7,0.3
		c0,0-0.1,0-0.1-0.1c-1.1-0.9-2.3-1.7-3.6-2.4c-0.5-0.3-0.7-0.9-0.4-1.4C210.8,376.5,211.4,376.3,211.9,376.5z"/>
</g>
<g>
	<path class="st5" d="M209.5,379.3l3.5,1.4c0.7,0.3,1,1,0.7,1.7s-1,1-1.7,0.7c-0.1,0-0.1-0.1-0.2-0.1l-3.2-2
		c-0.4-0.3-0.6-0.9-0.3-1.3C208.6,379.3,209.1,379.1,209.5,379.3z"/>
</g>
<g>
	<path class="st5" d="M205.9,385c-1.5,0.1-2.9-0.2-4.1-0.6c-1.2-0.3-2.4-0.7-3.4-0.9c-1.1-0.2-2.1-0.1-3,0.2c-1,0.3-1.9,0.9-2.8,1.6
		c-1.7,1.5-3,3.5-4.3,5.6c-1.3,2-2.5,4.1-3.1,6.4c-0.1,0.4-0.5,0.6-0.8,0.5c-0.4-0.1-0.6-0.5-0.5-0.8c0.6-2.5,1.7-4.8,2.9-6.9
		c1.2-2.1,2.4-4.4,4.3-6.3c1-0.9,2.1-1.7,3.4-2.3c1.3-0.5,2.8-0.7,4.2-0.5c2.7,0.3,5,1.2,6.9,1c0.8-0.1,1.6,0.5,1.7,1.3
		c0.1,0.8-0.5,1.6-1.3,1.7C206,385,206,385,205.9,385L205.9,385z"/>
</g>
<g>
	<path class="st5" d="M189.8,397.8c-0.7,1.5-0.9,3.3-0.3,5l0,0c0.2,0.5-0.1,1.1-0.6,1.3c-0.5,0.2-1,0-1.2-0.5
		c-1.1-2-1.4-4.5-0.7-6.9l0,0c0.2-0.8,1.1-1.2,1.9-1c0.8,0.2,1.2,1.1,1,1.9C189.8,397.6,189.8,397.7,189.8,397.8z"/>
</g>
<g>
	<path class="st5" d="M189.5,399.5c3.8,1,7.6,1.7,11.5,2c1.9,0.2,3.9,0.3,5.7,0.2c1.8-0.1,3.6-0.6,5-1.5c0.7-0.4,1.6-0.2,2.1,0.5
		c0.4,0.7,0.2,1.6-0.5,2.1c0,0,0,0,0,0c-2,1.1-4.2,1.6-6.4,1.7c-2.1,0.1-4.2-0.1-6.2-0.4c-4-0.5-8-1.4-11.8-2.5
		c-0.6-0.2-0.9-0.8-0.7-1.3C188.3,399.7,188.9,399.4,189.5,399.5z"/>
</g>
<g>
	<path class="st5" d="M213,400.1c3.9,0.6,7.8,1.2,11.7,1.6c3.9,0.4,7.8,0.5,11.7,0.5c3.9-0.1,7.9-0.2,11.8-0.5
		c3.9-0.3,7.8-0.9,11.1-2.6c0.4-0.2,0.9-0.1,1.1,0.3c0.2,0.4,0.1,0.9-0.3,1.1c-3.6,2-7.8,2.7-11.7,3.1c-4,0.4-7.9,0.6-11.9,0.8
		c-4,0.2-8,0.2-12-0.1c-4-0.3-8-0.8-11.9-1.3c-0.8-0.1-1.4-0.9-1.3-1.7S212.2,399.9,213,400.1C213,400.1,213,400.1,213,400.1z"/>
</g>
<g>
	<path class="st5" d="M262.2,395.3l3,3.6c0.3,0.3,0.2,0.8-0.1,1.1c-0.3,0.2-0.6,0.2-0.9,0.1l-4-2.5c-0.7-0.4-0.9-1.4-0.5-2.1
		s1.4-0.9,2.1-0.5C261.9,395,262.1,395.1,262.2,395.3z"/>
</g>
<g>
	<path class="st5" d="M265.7,393.4c0.7,0.4,1.2,0.9,1.7,1.5c0.3,0.4,0.2,1-0.2,1.3c-0.4,0.3-0.9,0.3-1.2,0l0,0
		c-0.4-0.3-0.8-0.6-1.3-0.8c-0.6-0.2-0.9-0.9-0.7-1.5c0.2-0.6,0.9-0.9,1.5-0.7C265.5,393.3,265.6,393.3,265.7,393.4L265.7,393.4z"/>
</g>
<g>
	<path class="st5" d="M268.4,387.8l2.2,3c0.3,0.4,0.2,0.9-0.2,1.2c-0.3,0.2-0.7,0.2-1,0l-3.1-2c-0.7-0.5-0.9-1.4-0.4-2.1
		c0.5-0.7,1.4-0.9,2.1-0.4C268.2,387.5,268.3,387.6,268.4,387.8z"/>
</g>
<g>
	<path class="st5" d="M251.8,393.5l0.9,2.9c0.1,0.4-0.1,0.8-0.5,0.9c-0.3,0.1-0.7-0.1-0.9-0.4l-1.4-2.7c-0.3-0.5-0.1-1.1,0.4-1.4
		c0.5-0.3,1.1-0.1,1.4,0.4C251.7,393.4,251.8,393.5,251.8,393.5z"/>
</g>
<g>
	<path class="st5" d="M256.1,389.5l2.2,3.7c0.2,0.3,0.1,0.7-0.2,0.9c-0.3,0.2-0.6,0.1-0.8-0.1l-2.8-3.3c-0.4-0.4-0.3-1.1,0.1-1.4
		s1.1-0.3,1.4,0.1C256.1,389.4,256.1,389.5,256.1,389.5z"/>
</g>
<g>
	<path class="st5" d="M261.5,385.1c0.4,0.7,1,1.3,1.8,1.8l0,0c0.3,0.2,0.4,0.6,0.3,0.9c-0.1,0.3-0.5,0.4-0.7,0.3
		c-1.1-0.3-2.1-0.9-2.9-1.8l0,0c-0.4-0.4-0.4-1,0-1.4c0.4-0.4,1-0.4,1.4,0C261.4,385,261.4,385.1,261.5,385.1z"/>
</g>
<g>
	<path class="st5" d="M284.6,324.7l-0.1,7.3l0,0.1c0,0.6-0.5,1-1,1c-0.5,0-0.9-0.4-1-0.9l-0.9-7.4c-0.1-0.8,0.5-1.6,1.3-1.7
		s1.6,0.5,1.7,1.3c0,0.1,0,0.1,0,0.2L284.6,324.7z"/>
</g>
<g>
	<path class="st5" d="M291.2,327.6l-0.2,5.7c0,0.5-0.5,1-1,0.9c-0.5,0-0.9-0.4-0.9-0.8l-0.9-5.6c-0.1-0.8,0.4-1.6,1.3-1.7
		c0.8-0.1,1.6,0.4,1.7,1.3C291.2,327.5,291.2,327.5,291.2,327.6z"/>
</g>
<g>
	<path class="st5" d="M296.6,333.7l-0.3,4.3c0,0.6-0.5,1-1.1,1c-0.5,0-0.9-0.4-0.9-0.9l-0.6-4.3c-0.1-0.8,0.4-1.6,1.3-1.7
		c0.8-0.1,1.6,0.4,1.7,1.3C296.6,333.4,296.6,333.6,296.6,333.7z"/>
</g>
<g>
	<path class="st5" d="M300.9,340c-0.2,0.7-0.3,1.4-0.3,2.1l0,0c0,0.5-0.4,0.9-0.9,0.8c-0.4,0-0.7-0.3-0.8-0.7
		c-0.2-0.8-0.3-1.7-0.3-2.5l0,0c0-0.7,0.5-1.2,1.2-1.2c0.7,0,1.2,0.5,1.2,1.2C301,339.8,301,339.9,300.9,340z"/>
</g>
<g>
	<path class="st5" d="M364.3,263.5c4.4,0.7,9,0.1,13.5-0.8c4.6-1,9.3-2,14-2.7c4.7-0.7,9.4-1.2,14.2-1.4c2.4-0.1,4.7-0.2,7.2-0.1
		c1.2,0.1,2.5,0.2,3.7,0.5c1.2,0.3,2.5,0.9,3.4,1.8c0.3,0.3,0.4,0.8,0,1.2c-0.3,0.3-0.8,0.4-1.2,0.1l0,0c-1.5-1.4-3.8-1.7-6.1-1.8
		c-2.3,0-4.7,0.1-7,0.3c-4.7,0.3-9.3,0.9-13.9,1.7c-4.6,0.8-9.1,1.9-13.8,3c-4.6,1-9.5,1.9-14.5,1.2c-0.8-0.1-1.4-0.9-1.3-1.7
		C362.7,263.9,363.4,263.3,364.3,263.5C364.3,263.5,364.3,263.5,364.3,263.5z"/>
</g>
<g>
	<path class="st5" d="M425.3,257.7c1.4,2.4,3,4.7,4.9,6.8c0.4,0.4,0.3,1-0.1,1.4c-0.4,0.3-0.9,0.3-1.3,0c-2.2-1.9-4.3-4.1-6.1-6.6
		l0,0c-0.5-0.7-0.3-1.6,0.3-2.1c0.7-0.5,1.6-0.3,2.1,0.3C425.2,257.5,425.2,257.6,425.3,257.7z"/>
</g>
<g>
	<path class="st5" d="M433.2,259.8c0.7,2.9,1.7,5.7,3,8.5c0.2,0.4,0,1-0.4,1.2c-0.4,0.2-0.9,0.1-1.1-0.3c-1.8-2.6-3.2-5.5-4.3-8.5
		l0,0c-0.3-0.8,0.1-1.6,0.9-1.9s1.6,0.1,1.9,0.9C433.2,259.7,433.2,259.8,433.2,259.8z"/>
</g>
<g>
	<path class="st5" d="M442.2,261.4c0.8,3.4,1.3,6.8,1.6,10.3c0,0.5-0.3,0.9-0.8,0.9c-0.4,0-0.8-0.2-0.9-0.6
		c-0.7-3.3-1.7-6.5-2.9-9.7c-0.3-0.8,0.1-1.6,0.9-1.9c0.8-0.3,1.6,0.1,1.9,0.9C442.2,261.3,442.2,261.3,442.2,261.4z"/>
</g>
<g>
	<path class="st5" d="M450.4,264.5c0.7,2.9,1.2,5.8,1.6,8.7c0.1,0.5-0.3,0.9-0.7,0.9c-0.4,0-0.8-0.2-0.9-0.6
		c-0.8-2.8-1.7-5.5-2.8-8.1c-0.3-0.8,0-1.6,0.8-2c0.8-0.3,1.6,0,2,0.8C450.3,264.3,450.3,264.4,450.4,264.5z"/>
</g>
<g>
	<path class="st5" d="M458,264.6l1.3,6.7l0,0.1c0.1,0.5-0.2,1-0.7,1.1c-0.5,0.1-0.9-0.2-1-0.6l-2.4-6.5c-0.3-0.8,0.1-1.6,0.9-1.9
		s1.6,0.1,1.9,0.9C458,264.3,458,264.4,458,264.6L458,264.6z"/>
</g>
<path class="st7" d="M464.5,264.7c0.4,1.4,0.8,2.8,1.2,4.2"/>
<path class="st7" d="M471.3,263c1,1.7,2,3.5,2.8,5.3"/>
<path class="st7" d="M479,260.7c0.7,1.3,1.4,2.7,2.2,4"/>
<g>
	<path class="st5" d="M444.8,205.8c0.9,2.5,2.1,4.9,3.5,7.2c0.2,0.3,0.1,0.6-0.2,0.8c-0.3,0.2-0.6,0.1-0.8-0.1
		c-1.7-2.2-3.1-4.6-4.4-7.1c-0.2-0.5,0-1.1,0.5-1.3S444.5,205.2,444.8,205.8C444.8,205.7,444.8,205.8,444.8,205.8z"/>
</g>
<g>
	<path class="st5" d="M435.8,204.1l2.7,9.5c0.1,0.3-0.1,0.6-0.4,0.7c-0.3,0.1-0.6-0.1-0.7-0.4l-3.5-9.2c-0.2-0.5,0.1-1.1,0.6-1.3
		C435,203.2,435.6,203.5,435.8,204.1C435.8,204,435.8,204.1,435.8,204.1z"/>
</g>
<g>
	<path class="st5" d="M429.7,206.9l2.2,5.8c0.1,0.3,0,0.6-0.3,0.7c-0.2,0.1-0.5,0-0.6-0.2l-3-5.4c-0.3-0.5-0.1-1.1,0.4-1.4
		c0.5-0.3,1.1-0.1,1.4,0.4C429.7,206.8,429.7,206.8,429.7,206.9z"/>
</g>
<g>
	<path class="st5" d="M424.3,208.5l1.6,3.3c0.1,0.3,0,0.6-0.3,0.7c-0.2,0.1-0.5,0-0.7-0.1l-2.4-2.8c-0.4-0.4-0.3-1.1,0.1-1.4
		c0.4-0.4,1.1-0.3,1.4,0.1C424.2,208.4,424.3,208.5,424.3,208.5z"/>
</g>
<g>
	<path class="st5" d="M414.4,208.4l1.7,4.5c0.1,0.2,0,0.5-0.3,0.6c-0.2,0.1-0.4,0-0.5-0.2l-2.7-4c-0.3-0.5-0.2-1.1,0.3-1.4
		s1.1-0.2,1.4,0.3C414.3,208.3,414.4,208.3,414.4,208.4z"/>
</g>
<g>
	<path class="st5" d="M406.6,210.3c0.2,0.5,0.6,1.1,1.1,1.5l0,0c0.3,0.3,0.3,0.7,0.1,1c-0.2,0.2-0.6,0.3-0.8,0.2
		c-0.8-0.4-1.5-0.9-2-1.6l0,0c-0.3-0.4-0.3-1.1,0.2-1.4s1.1-0.3,1.4,0.2C406.5,210.1,406.6,210.2,406.6,210.3z"/>
</g>
<g>
	<path class="st5" d="M364.1,213.3l3.6,9.9c0.1,0.3,0,0.7-0.4,0.8c-0.3,0.1-0.7,0-0.8-0.4l-4.3-9.6c-0.2-0.5,0-1.1,0.5-1.3
		C363.3,212.6,363.9,212.8,364.1,213.3C364.1,213.3,364.1,213.3,364.1,213.3z"/>
</g>
<g>
	<path class="st5" d="M371.5,219.8c0.8,2.3,1.7,4.6,2.8,6.8c0.1,0.3,0,0.6-0.2,0.7c-0.2,0.1-0.5,0-0.7-0.2c-1.4-2.1-2.6-4.3-3.7-6.6
		c-0.2-0.5,0-1.1,0.5-1.3c0.5-0.2,1.1,0,1.3,0.5C371.4,219.7,371.5,219.7,371.5,219.8z"/>
</g>
<g>
	<path class="st5" d="M377.7,221.3c0.9,1.5,2.1,2.8,3.5,3.9c0.3,0.2,0.3,0.6,0.1,0.8c-0.2,0.2-0.5,0.3-0.8,0.1
		c-1.6-1-3.2-2.2-4.4-3.7l0,0c-0.4-0.4-0.3-1.1,0.1-1.4s1.1-0.3,1.4,0.1C377.7,221.2,377.7,221.3,377.7,221.3z"/>
</g>
<g>
	<path class="st5" d="M560.5,422.1l3,1.6c0.3,0.2,0.5,0.6,0.3,1c-0.2,0.3-0.5,0.5-0.8,0.3l-3.2-1c-0.5-0.2-0.8-0.7-0.6-1.3
		s0.7-0.8,1.3-0.6C560.4,422,560.4,422,560.5,422.1z"/>
</g>
<g>
	<path class="st5" d="M567.6,417.2l5.4,3c0.3,0.2,0.4,0.5,0.2,0.8c-0.1,0.2-0.4,0.3-0.7,0.2l-5.7-2.3c-0.5-0.2-0.8-0.8-0.6-1.3
		c0.2-0.5,0.8-0.8,1.3-0.6C567.5,417.2,567.6,417.2,567.6,417.2z"/>
</g>
<g>
	<path class="st5" d="M575,411.4l5.3,1.2c0.3,0.1,0.5,0.3,0.4,0.6c-0.1,0.3-0.3,0.4-0.5,0.4l-5.4-0.2c-0.6,0-1-0.5-1-1s0.5-1,1-1
		C574.9,411.4,575,411.4,575,411.4z"/>
</g>
<g>
	<path class="st5" d="M582.6,404.7c1.5,0.4,3.2,0.4,4.8,0c0.4-0.1,0.7,0.1,0.8,0.5c0.1,0.3-0.1,0.6-0.4,0.8
		c-1.7,0.6-3.6,0.8-5.4,0.7l0,0c-0.6-0.1-1-0.5-0.9-1.1c0.1-0.6,0.5-1,1.1-0.9C582.5,404.7,582.6,404.7,582.6,404.7z"/>
</g>
<g>
	<path class="st5" d="M414.5,389.1c-0.4,0.3-0.7,0.9-0.7,1.6c0,0.7,0.2,1.4,0.7,1.9l0,0c0.4,0.4,0.4,1,0.1,1.4
		c-0.3,0.4-0.9,0.4-1.3,0.2c-1.1-0.7-1.8-2-2.1-3.2c-0.2-1.3,0-2.8,1-3.9l0.1-0.2c0.5-0.6,1.5-0.7,2.1-0.2s0.7,1.5,0.2,2.1
		C414.7,388.9,414.6,389,414.5,389.1z"/>
</g>
<g>
	<path class="st5" d="M408.7,383.5c0.5-5.6,3.7-10.9,8.6-13.9c1.2-0.8,2.5-1.4,3.9-1.8c1.4-0.5,3-0.6,4.4-0.5
		c2.9,0.2,5.6,0.8,8.2,1.7c0.8,0.3,1.2,1.1,0.9,1.9s-1.1,1.2-1.9,0.9c0,0,0,0-0.1,0l0,0c-2.3-0.9-4.9-1.6-7.3-1.9
		c-1.2-0.1-2.3,0-3.5,0.3c-1.2,0.3-2.3,0.8-3.4,1.4c-4.3,2.5-7.4,7.1-8.1,12.1l0,0c-0.1,0.5-0.5,0.8-1,0.7
		C409,384.3,408.7,383.9,408.7,383.5z"/>
</g>
<g>
	<path class="st5" d="M434.9,365.5c0.6,0.9,1.6,1.4,2.6,1.4c0.6,0,1,0.5,1,1c0,0.6-0.5,1-1,1c-0.1,0-0.2,0-0.2,0l-0.1,0
		c-1.5-0.4-2.7-1.5-3.2-2.9c-0.1-0.3,0-0.6,0.3-0.8C434.4,365.2,434.7,365.3,434.9,365.5L434.9,365.5z"/>
</g>
<g>
	<path class="st5" d="M439.5,362.1l1.9,1.5c0.6,0.5,0.7,1.4,0.3,2c-0.5,0.6-1.4,0.7-2,0.3c-0.2-0.1-0.3-0.3-0.4-0.4l-1.2-2.1
		c-0.3-0.4-0.1-1,0.3-1.3C438.8,361.8,439.2,361.9,439.5,362.1z"/>
</g>
<g>
	<path class="st5" d="M447.3,274.9c1.4,6.9,2.8,13.9,3.7,21c0.9,7.1,1.4,14.3,1,21.4c-0.4,7.2-1.6,14.2-3.2,21.2
		c-1.6,6.9-3.7,13.7-5.9,20.5c-0.1,0.4-0.6,0.6-1,0.5c-0.4-0.1-0.6-0.6-0.5-1c2.1-6.8,4-13.6,5.5-20.5c1.5-6.9,2.6-13.9,2.8-20.8
		c0.3-7-0.3-14-1.3-20.9c-1-7-2.5-13.9-4-20.8c-0.2-0.8,0.3-1.6,1.2-1.8S447.1,274,447.3,274.9C447.3,274.8,447.3,274.8,447.3,274.9
		z"/>
</g>
<g>
	<path class="st5" d="M416.4,388.8c1.9,1.2,4,1.9,6.2,2.3c2.2,0.4,4.5,0.5,6.8,0.5c2.3,0,4.6-0.1,7-0.3c2.3-0.1,4.6-0.4,6.8-0.8
		c0.8-0.2,1.6,0.3,1.8,1.2c0.2,0.8-0.3,1.6-1.2,1.8c0,0,0,0-0.1,0c-2.4,0.4-4.9,0.5-7.2,0.6c-2.4,0-4.7,0.1-7.1,0
		c-2.4-0.1-4.8-0.3-7.2-0.8c-1.2-0.3-2.4-0.6-3.5-1.1c-1.1-0.5-2.2-1.1-3.3-1.8c-0.4-0.3-0.6-0.9-0.3-1.4
		C415.4,388.6,416,388.5,416.4,388.8L416.4,388.8z"/>
</g>
<g>
	<path class="st5" d="M443.1,390.8c7.8,1.6,15.7,2.3,23.7,2c4-0.2,8-0.5,11.8-1.3c3.8-0.8,7.5-2.2,10.5-4.6l0,0
		c0.4-0.3,1-0.3,1.4,0.1c0.3,0.4,0.3,1-0.1,1.4c-3.2,2.8-7.3,4.4-11.3,5.3c-4,0.9-8.1,1.3-12.2,1.6c-8.1,0.5-16.3-0.1-24.4-1.6
		c-0.8-0.2-1.4-0.9-1.2-1.7C441.4,391.1,442.2,390.6,443.1,390.8C443,390.8,443.1,390.8,443.1,390.8z"/>
</g>
<g>
	<path class="st5" d="M493.1,383.4c0.3,2.1,1.1,4.1,2.4,5.9l0,0c0.3,0.4,0.2,1-0.2,1.2c-0.4,0.3-0.8,0.2-1.1-0.1
		c-1.7-1.7-3.1-3.9-4-6.2l0,0c-0.3-0.8,0.1-1.6,0.9-1.9c0.8-0.3,1.6,0.1,1.9,0.9C493.1,383.2,493.1,383.3,493.1,383.4z"/>
</g>
<g>
	<path class="st5" d="M496.9,379.3l3,7.1l0,0.1c0.2,0.5,0,1-0.5,1.2c-0.4,0.2-0.9,0-1.1-0.3l-4.2-6.6c-0.4-0.7-0.2-1.6,0.5-2.1
		c0.7-0.4,1.6-0.2,2.1,0.5C496.8,379.1,496.8,379.2,496.9,379.3L496.9,379.3z"/>
</g>
<g>
	<path class="st5" d="M501.2,376c0.5,1.6,1.2,3.1,2.2,4.5l0,0c0.3,0.5,0.2,1-0.3,1.3c-0.4,0.3-0.9,0.2-1.2-0.1
		c-1.3-1.3-2.4-2.8-3.4-4.5l0,0c-0.4-0.7-0.2-1.6,0.6-2.1c0.7-0.4,1.6-0.2,2.1,0.6C501.1,375.8,501.1,375.9,501.2,376z"/>
</g>
<g>
	<path class="st5" d="M503.7,373.5l0.5,1.2c0.1,0.4-0.1,0.8-0.4,0.9c-0.3,0.1-0.6,0-0.8-0.2l-0.9-1c-0.3-0.4-0.3-1,0.1-1.3
		c0.4-0.3,1-0.3,1.3,0.1C503.6,373.3,503.6,373.4,503.7,373.5z"/>
</g>
<g>
	<path class="st5" d="M503.1,371c0.6-5.4,1.7-10.9,3.4-16.1c0.2-0.8,1.1-1.2,1.9-1s1.2,1.1,1,1.9c0,0,0,0.1,0,0.1
		c-2,4.9-3.6,10.1-4.6,15.4c-0.1,0.4-0.5,0.7-0.9,0.6C503.4,371.8,503.1,371.4,503.1,371z"/>
</g>
<g>
	<path class="st5" d="M512.1,349c0.8,1,1.5,2.1,2,3.2c0.2,0.5,0,1.1-0.5,1.3c-0.4,0.2-0.9,0.1-1.1-0.2l0,0c-0.7-0.8-1.6-1.5-2.4-2.1
		c-0.7-0.5-0.9-1.4-0.4-2.1c0.5-0.7,1.4-0.9,2.1-0.4C511.9,348.7,512,348.8,512.1,349L512.1,349z"/>
</g>
<g>
	<path class="st5" d="M512.1,343.1c0.8,0.9,1.7,1.8,2.8,2.4l0,0c0.4,0.3,0.6,0.8,0.3,1.3c-0.2,0.4-0.6,0.5-1,0.4
		c-1.4-0.4-2.8-1-4.1-1.8l0,0c-0.7-0.5-0.9-1.4-0.4-2.1c0.5-0.7,1.4-0.9,2.1-0.4C511.9,342.9,512,343,512.1,343.1z"/>
</g>
<g>
	<path class="st5" d="M512.7,338.6l4.4,3.2c0.4,0.3,0.5,0.9,0.2,1.3c-0.3,0.3-0.7,0.5-1.1,0.3l-5-2.1c-0.8-0.3-1.1-1.2-0.8-2
		c0.3-0.8,1.2-1.1,2-0.8C512.5,338.5,512.6,338.5,512.7,338.6z"/>
</g>
<g>
	<path class="st5" d="M511.9,332.9c2.1,0.4,4,1.5,5.3,3c0.4,0.4,0.3,1-0.1,1.3c-0.3,0.3-0.8,0.3-1.2,0.1l0,0
		c-1.3-0.9-2.9-1.4-4.4-1.4c-0.8,0-1.5-0.7-1.5-1.5c0-0.8,0.7-1.5,1.5-1.5C511.6,332.8,511.7,332.9,511.9,332.9L511.9,332.9z"/>
</g>
<g>
	<path class="st5" d="M514.9,327.8l2.3,1.2c0.5,0.3,0.7,0.9,0.4,1.4c-0.2,0.4-0.6,0.6-1.1,0.5l-2.6-0.3c-0.8-0.1-1.4-0.9-1.3-1.7
		c0.1-0.8,0.9-1.4,1.7-1.3C514.5,327.7,514.7,327.7,514.9,327.8z"/>
</g>
<g>
	<path class="st5" d="M480.5,387.6l-1.2-2.3c-0.3-0.5-0.1-1.1,0.5-1.4c0.5-0.3,1.1-0.1,1.4,0.5c0.1,0.1,0.1,0.3,0.1,0.4l0.1,2.6
		c0,0.3-0.2,0.5-0.5,0.5C480.8,387.9,480.6,387.8,480.5,387.6z"/>
</g>
<g>
	<path class="st5" d="M484.4,384.6l-1.9-3.6c-0.3-0.5-0.1-1.1,0.4-1.4c0.5-0.3,1.1-0.1,1.4,0.4c0,0.1,0.1,0.1,0.1,0.2l1.2,3.9
		c0.1,0.3-0.1,0.7-0.4,0.8C484.8,385.1,484.5,384.9,484.4,384.6z"/>
</g>
<g>
	<path class="st5" d="M487.7,380.1l-1.6-1.8c-0.4-0.4-0.3-1.1,0.1-1.4c0.4-0.4,1.1-0.3,1.4,0.1c0.1,0.1,0.1,0.1,0.1,0.2l1.1,2.2
		c0.2,0.4,0,0.8-0.3,0.9C488.2,380.5,487.9,380.4,487.7,380.1z"/>
</g>
<g>
	<path class="st5" d="M493.2,376.8c-0.6-0.2-1.2-0.6-1.6-1.2l-0.1-0.1c-0.4-0.5-0.3-1.1,0.2-1.5c0.5-0.4,1.1-0.3,1.5,0.2
		c0.1,0.1,0.2,0.3,0.2,0.5c0.1,0.4,0.2,0.8,0.5,1.1l0,0c0.2,0.3,0.2,0.7,0,0.9C493.7,376.8,493.4,376.9,493.2,376.8z"/>
</g>
<g>
	<path class="st5" d="M474.9,388l-0.1-0.7c-0.1-0.6,0.3-1.1,0.8-1.2c0.6-0.1,1.1,0.3,1.2,0.8c0,0.1,0,0.2,0,0.3l-0.1,0.7
		c-0.1,0.5-0.5,0.8-1,0.7C475.3,388.6,475,388.3,474.9,388z"/>
</g>
<g>
	<path class="st5" d="M521.8,290.8c0.3,2.1,0.7,4.1,1.3,6.2c0.1,0.5-0.2,1.1-0.7,1.2c-0.5,0.1-1-0.1-1.2-0.5c-0.9-2-1.7-4.1-2.4-6.2
		l0,0c-0.2-0.8,0.2-1.6,1-1.9c0.8-0.2,1.6,0.2,1.9,1C521.8,290.6,521.8,290.7,521.8,290.8z"/>
</g>
<g>
	<path class="st5" d="M530.8,297.1c0.8,2,1.4,4.1,1.9,6.2c0.1,0.5-0.2,0.9-0.6,1c-0.4,0.1-0.8-0.1-1-0.5c-0.9-1.9-1.9-3.6-3-5.3
		c-0.5-0.7-0.3-1.6,0.4-2.1c0.7-0.5,1.6-0.3,2.1,0.4C530.7,296.9,530.7,297,530.8,297.1L530.8,297.1z"/>
</g>
<g>
	<path class="st5" d="M540.6,300.2l1.4,2.7c0.3,0.5,0.1,1.2-0.4,1.4c-0.4,0.2-0.9,0.1-1.3-0.2l-2.1-2.2c-0.6-0.6-0.6-1.6,0-2.1
		c0.6-0.6,1.6-0.6,2.1,0C540.5,299.9,540.6,300.1,540.6,300.2z"/>
</g>
<g>
	<path class="st5" d="M224.3,135.7c1.4-2.3,2.9-4.5,4.7-6.6c0.4-0.4,1-0.5,1.4-0.1c0.4,0.4,0.5,1,0.1,1.4c0,0,0,0,0,0.1
		c-1.8,1.8-3.5,3.8-4.9,6c-0.2,0.3-0.7,0.4-1,0.2C224.2,136.5,224.1,136.1,224.3,135.7z"/>
</g>
<g>
	<path class="st5" d="M228.5,120.6c1.8-0.4,3.6-0.6,5.4-0.8c0.6,0,1,0.4,1.1,0.9s-0.4,1-0.9,1.1c0,0,0,0,0,0
		c-1.7,0.1-3.5,0.2-5.2,0.5c-0.5,0.1-0.9-0.3-1-0.7C227.7,121.2,228,120.7,228.5,120.6z"/>
</g>
<g>
	<path class="st5" d="M234.1,112.5l2.2-0.5c0.5-0.1,1.1,0.2,1.2,0.8c0.1,0.5-0.2,1.1-0.8,1.2c-0.1,0-0.1,0-0.2,0l-2.2,0
		c-0.4,0-0.8-0.3-0.8-0.8C233.5,112.9,233.8,112.6,234.1,112.5z"/>
</g>
<g>
	<path class="st5" d="M251.3,58.4l5.2-0.2c0.3,0,0.6,0.2,0.6,0.5c0,0.3-0.2,0.5-0.4,0.6l-5,1.1c-0.5,0.1-1.1-0.2-1.2-0.8
		s0.2-1.1,0.8-1.2C251.2,58.4,251.3,58.4,251.3,58.4z"/>
</g>
<g>
	<path class="st5" d="M259.9,61.4l5.1-1.7c0.3-0.1,0.6,0.1,0.7,0.4c0.1,0.3,0,0.6-0.3,0.7l-4.7,2.5c-0.5,0.3-1.1,0.1-1.4-0.4
		c-0.3-0.5-0.1-1.1,0.4-1.4C259.8,61.4,259.9,61.4,259.9,61.4z"/>
</g>
<g>
	<path class="st5" d="M269.1,63.5l7.9-1.9c0.3-0.1,0.7,0.1,0.7,0.5c0.1,0.3-0.1,0.6-0.4,0.7l-7.7,2.7c-0.5,0.2-1.1-0.1-1.3-0.6
		C268.2,64.3,268.5,63.7,269.1,63.5C269.1,63.5,269.1,63.5,269.1,63.5z"/>
</g>
<g>
	<path class="st5" d="M282.5,64.2l2.5-1.7c0.3-0.2,0.7-0.1,0.9,0.2c0.2,0.2,0.1,0.6,0,0.8l-2,2.3c-0.4,0.4-1,0.5-1.4,0.1
		c-0.4-0.4-0.5-1-0.1-1.4C282.4,64.3,282.4,64.3,282.5,64.2z"/>
</g>
<g>
	<path class="st5" d="M417.6,52.9l3.4-4c0.2-0.3,0.6-0.3,0.9-0.1c0.2,0.2,0.3,0.5,0.1,0.8l-2.7,4.5c-0.3,0.5-0.9,0.6-1.4,0.3
		s-0.6-0.9-0.3-1.4C417.5,52.9,417.6,52.9,417.6,52.9z"/>
</g>
<g>
	<path class="st5" d="M424.5,52.3c2.1-2,4.4-3.8,6.7-5.6c0.2-0.2,0.6-0.1,0.7,0.1c0.2,0.2,0.1,0.5-0.1,0.7c-2.1,2-4,4-5.9,6.2
		c-0.4,0.4-1,0.5-1.4,0.1C424.1,53.4,424.1,52.8,424.5,52.3C424.5,52.3,424.5,52.3,424.5,52.3z"/>
</g>
<g>
	<path class="st5" d="M438.6,49.5c3.2-2.3,6.6-4.1,10.3-5.3c0.2-0.1,0.5,0,0.6,0.3c0.1,0.2,0,0.5-0.2,0.6c-3.4,1.6-6.6,3.6-9.3,6.1
		c-0.4,0.4-1,0.3-1.4-0.1C438.1,50.6,438.1,49.9,438.6,49.5C438.5,49.6,438.6,49.5,438.6,49.5z"/>
</g>
<g>
	<path class="st5" d="M454.4,49.1l10.6-2.8c0.3-0.1,0.6,0.1,0.6,0.4c0.1,0.3-0.1,0.5-0.3,0.6L455,51c-0.5,0.2-1.1-0.1-1.3-0.6
		C453.6,49.9,453.8,49.3,454.4,49.1C454.4,49.1,454.4,49.1,454.4,49.1z"/>
</g>
<g>
	<path class="st5" d="M473.1,51.3l8.7-0.2c0.3,0,0.5,0.2,0.5,0.5c0,0.3-0.2,0.5-0.4,0.5l-8.6,1.2c-0.5,0.1-1.1-0.3-1.1-0.9
		c-0.1-0.5,0.3-1.1,0.9-1.1C473,51.3,473,51.3,473.1,51.3z"/>
</g>
<g>
	<path class="st5" d="M490.5,56.7c2.7,0.4,5.5,0.7,8.3,0.7c0.3,0,0.5,0.2,0.4,0.5c0,0.2-0.2,0.4-0.4,0.4c-2.8,0.3-5.7,0.4-8.5,0.3
		c-0.6,0-1-0.5-1-1c0-0.6,0.5-1,1-1C490.4,56.7,490.5,56.7,490.5,56.7z"/>
</g>
<g>
	<path class="st5" d="M412.7,385.5c-0.5,0.1-1,0.6-1.2,1.3c-0.3,0.6-0.3,1.4,0.1,2l0,0.1c0.3,0.5,0.1,1.1-0.4,1.3
		c-0.4,0.2-0.9,0.1-1.2-0.3c-0.8-1.1-1.1-2.5-0.8-3.7c0.2-1.3,1-2.6,2.3-3.3l0.2-0.1c0.7-0.4,1.7-0.2,2.1,0.5
		c0.4,0.7,0.2,1.7-0.5,2.1C412.9,385.4,412.8,385.5,412.7,385.5z"/>
</g>
</svg>
