<?xml version="1.0" encoding="utf-8"?>
<!-- Generator: Adobe Illustrator 23.0.1, SVG Export Plug-In . SVG Version: 6.00 Build 0)  -->
<svg version="1.1" id="Layer_1" xmlns="http://www.w3.org/2000/svg" xmlns:xlink="http://www.w3.org/1999/xlink" x="0px" y="0px"
	 viewBox="0 0 33.7 398.4" style="enable-background:new 0 0 33.7 398.4;" xml:space="preserve">
<style type="text/css">
	.st0{fill:#2AB34E;}
</style>
<path class="st0" d="M33.7,40.2c0-5.4-3.4-10.2-8.4-12.7c5-2.6,8.4-7.3,8.4-12.7C33.7,6.6,26.2,0,16.8,0S0,6.6,0,14.7
	c0,5.4,3.4,10.2,8.4,12.7C3.4,30,0,34.8,0,40.2c0,5.6,3.6,10.4,8.8,12.9C3.6,55.7,0,60.5,0,66.1c0,5.5,3.4,10.3,8.5,12.8
	C3.4,81.5,0,86.2,0,91.7c0,5,2.9,9.4,7.2,12.1c-4.4,2.7-7.2,7.1-7.2,12.1c0,5,2.9,9.5,7.3,12.1c-4.4,2.7-7.3,7.1-7.3,12.1
	c0,5,2.9,9.4,7.2,12.1c-4.4,2.7-7.2,7.1-7.2,12.1c0,5.1,3,9.6,7.5,12.3C3,179.3,0,183.8,0,188.9c0,4.9,2.8,9.3,7,12
	c-4.3,2.7-7,7-7,12c0,5.2,3.1,9.8,7.7,12.4c-4.6,2.6-7.7,7.2-7.7,12.4c0,4.9,2.7,9.1,6.8,11.8c-4.1,2.7-6.8,7-6.8,11.8
	c0,5.3,3.2,9.9,8,12.5c-4.8,2.6-8,7.2-8,12.5c0,4.8,2.6,9,6.6,11.7c-4,2.7-6.6,6.9-6.6,11.7c0,5.4,3.3,10.1,8.2,12.6
	c-4.9,2.6-8.2,7.3-8.2,12.6c0,4.7,2.5,8.9,6.4,11.6c-3.9,2.7-6.4,6.9-6.4,11.6c0,5.5,3.4,10.2,8.5,12.8c-5.1,2.5-8.5,7.3-8.5,12.8
	c0,8.1,7.5,14.7,16.8,14.7s16.8-6.6,16.8-14.7c0-5.5-3.4-10.2-8.5-12.8c5.1-2.5,8.5-7.3,8.5-12.8c0-4.7-2.5-8.9-6.4-11.6
	c3.9-2.7,6.4-6.9,6.4-11.6c0-5.4-3.3-10.1-8.2-12.6c4.9-2.6,8.2-7.3,8.2-12.6c0-4.8-2.6-9-6.6-11.7c4-2.7,6.6-6.9,6.6-11.7
	c0-5.3-3.2-9.9-8-12.5c4.8-2.6,8-7.2,8-12.5c0-4.9-2.7-9.2-6.8-11.8c4.1-2.7,6.8-7,6.8-11.8c0-5.2-3.1-9.8-7.7-12.4
	c4.6-2.6,7.7-7.2,7.7-12.4c0-4.9-2.8-9.3-7-12c4.3-2.7,7-7,7-12c0-5.1-3-9.6-7.5-12.3c4.5-2.6,7.5-7.1,7.5-12.3
	c0-5-2.9-9.4-7.2-12.1c4.4-2.7,7.2-7.1,7.2-12.1c0-5-2.9-9.5-7.3-12.1c4.4-2.7,7.3-7.1,7.3-12.1c0-5-2.9-9.4-7.2-12.1
	c4.4-2.7,7.2-7.1,7.2-12.1c0-5.5-3.4-10.3-8.5-12.8c5.1-2.5,8.5-7.3,8.5-12.8c0-5.6-3.6-10.4-8.8-12.9
	C30.1,50.7,33.7,45.8,33.7,40.2z"/>
</svg>
