<?xml version="1.0" encoding="utf-8"?>
<!-- Generator: Adobe Illustrator 23.0.1, SVG Export Plug-In . SVG Version: 6.00 Build 0)  -->
<svg version="1.1" id="Layer_1" xmlns="http://www.w3.org/2000/svg" xmlns:xlink="http://www.w3.org/1999/xlink" x="0px" y="0px"
	 viewBox="0 0 318.6 582.7" style="enable-background:new 0 0 318.6 582.7;" xml:space="preserve">
<style type="text/css">
	.st0{fill:none;}
	.st1{fill:#3E7C66;}
	.st2{fill:#397761;}
	.st3{fill:#41846E;}
	.st4{fill:url(#New_Pattern_Swatch_6);}
	.st5{fill:url(#New_Pattern_Swatch_5);}
	.st6{fill:#DFFC65;}
	.st7{fill:#23683A;}
</style>
<pattern  x="-732.1" y="-57.7" width="52.5" height="58" patternUnits="userSpaceOnUse" id="New_Pattern_Swatch_5" viewBox="0 -58 52.5 58" style="overflow:visible;">
	<g>
		<rect x="0" y="-58" class="st0" width="52.5" height="58"/>
		<circle class="st1" cx="23.1" cy="-8.8" r="2.8"/>
		<circle class="st1" cx="37.4" cy="-8.8" r="2.8"/>
		<circle class="st1" cx="28.6" cy="-3.7" r="2.8"/>
		<circle class="st1" cx="28.6" cy="-17.4" r="2.8"/>
		<circle class="st1" cx="12.8" cy="-13.3" r="2.8"/>
		<circle class="st1" cx="15.7" cy="-5.9" r="2.8"/>
		<circle class="st1" cx="4.3" cy="-6.6" r="2.8"/>
		<circle class="st1" cx="17.4" cy="-20.2" r="2.8"/>
		<circle class="st1" cx="43.1" cy="-20.2" r="2.8"/>
		<circle class="st1" cx="37.4" cy="-23.9" r="1.4"/>
		<circle class="st1" cx="49" cy="-5" r="1.4"/>
		<circle class="st1" cx="43.1" cy="-11.6" r="1.4"/>
		<circle class="st1" cx="41.7" cy="-3.7" r="1.4"/>
		<circle class="st1" cx="38.9" cy="-14.5" r="1.4"/>
		<circle class="st1" cx="34.4" cy="-13.3" r="1.4"/>
		<circle class="st1" cx="28.6" cy="-9.4" r="1.4"/>
		<circle class="st1" cx="35.9" cy="-3.7" r="1.4"/>
		<circle class="st1" cx="24.4" cy="-21.6" r="1.4"/>
		<circle class="st1" cx="20.6" cy="-1.4" r="1.4"/>
		<circle class="st1" cx="24.4" cy="-14.7" r="1.4"/>
		<circle class="st1" cx="10.5" cy="-7.2" r="1.4"/>
		<circle class="st1" cx="11.9" cy="-19.3" r="1.4"/>
		<circle class="st1" cx="7.1" cy="-10.8" r="1.4"/>
		<circle class="st1" cx="2.8" cy="-16.4" r="1.4"/>
		<circle class="st1" cx="18.5" cy="-13.3" r="1.4"/>
		<circle class="st1" cx="8.5" cy="-2.3" r="1.4"/>
		<circle class="st1" cx="31.4" cy="-23.9" r="2.8"/>
		<circle class="st1" cx="13.3" cy="-34.4" r="2.8"/>
		<circle class="st1" cx="6.2" cy="-47.3" r="2.8"/>
		<circle class="st1" cx="5" cy="-40.1" r="2.8"/>
		<circle class="st1" cx="40.3" cy="-36.7" r="2.8"/>
		<circle class="st1" cx="49.7" cy="-42.9" r="2.8"/>
		<circle class="st1" cx="38.9" cy="-52.4" r="2.8"/>
		<circle class="st1" cx="25.8" cy="-26.8" r="2.8"/>
		<circle class="st1" cx="19.9" cy="-55.2" r="2.8"/>
		<circle class="st1" cx="8.5" cy="-24.9" r="2.8"/>
		<circle class="st1" cx="30.8" cy="-46.3" r="2.8"/>
		<circle class="st1" cx="24.4" cy="-45.1" r="2.8"/>
		<circle class="st1" cx="20.6" cy="-38.3" r="2.8"/>
		<circle class="st1" cx="47.5" cy="-27.7" r="2.8"/>
		<circle class="st1" cx="48.3" cy="-21.1" r="1.4"/>
		<circle class="st1" cx="42.5" cy="-29.1" r="1.4"/>
		<circle class="st1" cx="4.8" cy="-53.8" r="1.4"/>
		<circle class="st1" cx="1.4" cy="-45.7" r="1.4"/>
		<circle class="st1" cx="50.7" cy="-55.6" r="1.4"/>
		<circle class="st1" cx="50.4" cy="-34.4" r="1.4"/>
		<circle class="st1" cx="47.5" cy="-16.4" r="1.4"/>
		<circle class="st1" cx="44.7" cy="-7.2" r="1.4"/>
		<circle class="st1" cx="41" cy="-47.2" r="1.4"/>
		<circle class="st1" cx="34.8" cy="-29.6" r="1.4"/>
		<circle class="st1" cx="28" cy="-35.9" r="1.4"/>
		<circle class="st1" cx="31.4" cy="-39.6" r="1.4"/>
		<circle class="st1" cx="23.4" cy="-33.5" r="1.4"/>
		<circle class="st1" cx="19.9" cy="-24.9" r="1.4"/>
		<circle class="st1" cx="29.8" cy="-29.6" r="1.4"/>
		<circle class="st1" cx="18" cy="-50.2" r="1.4"/>
		<circle class="st1" cx="13.3" cy="-52.7" r="1.4"/>
		<circle class="st1" cx="9.1" cy="-52.7" r="1.4"/>
		<circle class="st1" cx="15.7" cy="-39.6" r="1.4"/>
		<circle class="st1" cx="9.1" cy="-42.3" r="1.4"/>
		<circle class="st1" cx="2.7" cy="-33.5" r="1.4"/>
		<circle class="st1" cx="2.7" cy="-22.5" r="1.4"/>
		<circle class="st1" cx="9.2" cy="-38.1" r="1.4"/>
		<circle class="st1" cx="12.4" cy="-27.8" r="1.4"/>
		<circle class="st1" cx="17.4" cy="-30.5" r="1.4"/>
		<circle class="st1" cx="8" cy="-30.3" r="1.4"/>
		<circle class="st1" cx="44.2" cy="-42.3" r="1.4"/>
		<circle class="st1" cx="34.8" cy="-35.9" r="1.4"/>
		<circle class="st1" cx="46.1" cy="-35.9" r="1.4"/>
		<circle class="st1" cx="45.9" cy="-54.4" r="1.4"/>
		<circle class="st1" cx="30.5" cy="-55.8" r="1.4"/>
		<circle class="st1" cx="24.8" cy="-51.3" r="1.4"/>
		<circle class="st1" cx="36.2" cy="-44.5" r="1.4"/>
		<circle class="st1" cx="12.8" cy="-47.7" r="1.4"/>
	</g>
</pattern>
<pattern  x="-732.1" y="-57.7" width="82.5" height="91.1" patternUnits="userSpaceOnUse" id="New_Pattern_Swatch_6" viewBox="0 -91.1 82.5 91.1" style="overflow:visible;">
	<g>
		<rect y="-91.1" class="st0" width="82.5" height="91.1"/>
		<circle class="st2" cx="46.3" cy="-77.4" r="4.4"/>
		<circle class="st2" cx="23.7" cy="-77.4" r="4.4"/>
		<circle class="st2" cx="37.5" cy="-85.3" r="4.4"/>
		<circle class="st2" cx="37.5" cy="-63.9" r="4.4"/>
		<circle class="st2" cx="62.3" cy="-70.2" r="4.4"/>
		<circle class="st2" cx="57.9" cy="-81.8" r="4.4"/>
		<circle class="st2" cx="75.8" cy="-80.8" r="4.4"/>
		<circle class="st2" cx="55.2" cy="-59.4" r="4.4"/>
		<circle class="st2" cx="14.8" cy="-59.4" r="4.4"/>
		<circle class="st2" cx="23.7" cy="-53.5" r="2.2"/>
		<circle class="st2" cx="5.6" cy="-83.3" r="2.2"/>
		<circle class="st2" cx="14.8" cy="-72.9" r="2.2"/>
		<circle class="st2" cx="17" cy="-85.3" r="2.2"/>
		<circle class="st2" cx="21.4" cy="-68.3" r="2.2"/>
		<circle class="st2" cx="28.4" cy="-70.2" r="2.2"/>
		<circle class="st2" cx="37.5" cy="-76.4" r="2.2"/>
		<circle class="st2" cx="26.1" cy="-85.3" r="2.2"/>
		<circle class="st2" cx="44.2" cy="-57.2" r="2.2"/>
		<circle class="st2" cx="50.1" cy="-88.9" r="2.2"/>
		<circle class="st2" cx="44.2" cy="-68" r="2.2"/>
		<circle class="st2" cx="66" cy="-79.9" r="2.2"/>
		<circle class="st2" cx="63.8" cy="-60.9" r="2.2"/>
		<circle class="st2" cx="71.3" cy="-74.2" r="2.2"/>
		<circle class="st2" cx="78" cy="-65.3" r="2.2"/>
		<circle class="st2" cx="53.4" cy="-70.2" r="2.2"/>
		<circle class="st2" cx="69.1" cy="-87.5" r="2.2"/>
		<circle class="st2" cx="33.1" cy="-53.5" r="4.4"/>
		<circle class="st2" cx="61.5" cy="-37" r="4.4"/>
		<circle class="st2" cx="72.7" cy="-16.8" r="4.4"/>
		<circle class="st2" cx="74.6" cy="-28.2" r="4.4"/>
		<circle class="st2" cx="19.2" cy="-33.4" r="4.4"/>
		<circle class="st2" cx="4.4" cy="-23.7" r="4.4"/>
		<circle class="st2" cx="21.4" cy="-8.9" r="4.4"/>
		<circle class="st2" cx="42" cy="-49.1" r="4.4"/>
		<circle class="st2" cx="51.2" cy="-4.4" r="4.4"/>
		<circle class="st2" cx="69.1" cy="-52.1" r="4.4"/>
		<circle class="st2" cx="34.1" cy="-18.5" r="4.4"/>
		<circle class="st2" cx="44.2" cy="-20.3" r="4.4"/>
		<circle class="st2" cx="50.1" cy="-31" r="4.4"/>
		<circle class="st2" cx="7.8" cy="-47.6" r="4.4"/>
		<circle class="st2" cx="6.7" cy="-58" r="2.2"/>
		<circle class="st2" cx="15.8" cy="-45.4" r="2.2"/>
		<circle class="st2" cx="74.9" cy="-6.7" r="2.2"/>
		<circle class="st2" cx="80.2" cy="-19.3" r="2.2"/>
		<circle class="st2" cx="2.9" cy="-3.8" r="2.2"/>
		<circle class="st2" cx="3.4" cy="-37" r="2.2"/>
		<circle class="st2" cx="7.8" cy="-65.3" r="2.2"/>
		<circle class="st2" cx="12.3" cy="-79.9" r="2.2"/>
		<circle class="st2" cx="18" cy="-17" r="2.2"/>
		<circle class="st2" cx="27.8" cy="-44.6" r="2.2"/>
		<circle class="st2" cx="38.6" cy="-34.8" r="2.2"/>
		<circle class="st2" cx="33.1" cy="-29" r="2.2"/>
		<circle class="st2" cx="45.7" cy="-38.6" r="2.2"/>
		<circle class="st2" cx="51.2" cy="-52.1" r="2.2"/>
		<circle class="st2" cx="35.7" cy="-44.6" r="2.2"/>
		<circle class="st2" cx="54.2" cy="-12.4" r="2.2"/>
		<circle class="st2" cx="61.5" cy="-8.3" r="2.2"/>
		<circle class="st2" cx="68.2" cy="-8.3" r="2.2"/>
		<circle class="st2" cx="57.9" cy="-29" r="2.2"/>
		<circle class="st2" cx="68.2" cy="-24.7" r="2.2"/>
		<circle class="st2" cx="78.3" cy="-38.6" r="2.2"/>
		<circle class="st2" cx="78.3" cy="-55.8" r="2.2"/>
		<circle class="st2" cx="68" cy="-31.2" r="2.2"/>
		<circle class="st2" cx="63" cy="-47.5" r="2.2"/>
		<circle class="st2" cx="55.2" cy="-43.2" r="2.2"/>
		<circle class="st2" cx="69.9" cy="-43.5" r="2.2"/>
		<circle class="st2" cx="13.1" cy="-24.7" r="2.2"/>
		<circle class="st2" cx="27.8" cy="-34.8" r="2.2"/>
		<circle class="st2" cx="10" cy="-34.8" r="2.2"/>
		<circle class="st2" cx="10.3" cy="-5.6" r="2.2"/>
		<circle class="st2" cx="34.6" cy="-3.4" r="2.2"/>
		<circle class="st2" cx="43.5" cy="-10.5" r="2.2"/>
		<circle class="st2" cx="25.5" cy="-21.2" r="2.2"/>
		<circle class="st2" cx="62.3" cy="-16.2" r="2.2"/>
	</g>
</pattern>
<g>
	<path class="st3" d="M146.6,520C43.5,407.8-7,260.5,8.6,117.9c3.1-28.4,9.3-57.7,28.8-80.7S93.1-0.4,123.8,10
		c24.1,8.2,39.4,29.5,45.3,51.4s3.9,44.6,3.5,67c-2.2,109.2,33,218.9,100,311.5c16.1,22.3,34.4,44.5,39.6,70.4
		C335.6,626.7,190.1,567.4,146.6,520z"/>
	<path class="st4" d="M146.6,520C43.5,407.8-7,260.5,8.6,117.9c3.1-28.4,9.3-57.7,28.8-80.7S93.1-0.4,123.8,10
		c24.1,8.2,39.4,29.5,45.3,51.4s3.9,44.6,3.5,67c-2.2,109.2,33,218.9,100,311.5c16.1,22.3,34.4,44.5,39.6,70.4
		C335.6,626.7,190.1,567.4,146.6,520z"/>
	<path class="st5" d="M146.6,520C43.5,407.8-7,260.5,8.6,117.9c3.1-28.4,9.3-57.7,28.8-80.7S93.1-0.4,123.8,10
		c24.1,8.2,39.4,29.5,45.3,51.4s3.9,44.6,3.5,67c-2.2,109.2,33,218.9,100,311.5c16.1,22.3,34.4,44.5,39.6,70.4
		C335.6,626.7,190.1,567.4,146.6,520z"/>
</g>
<g>
	<path class="st6" d="M144.3,522.1l-29.7-32.9c-10-11-19.4-22.5-27.1-35.2c-1.9-3.2-3.7-6.5-5.4-9.8c-1.7-3.3-3.3-6.7-5-9.9
		l-2.6-4.9c-0.9-1.6-1.7-3.3-2.7-4.9c-0.9-1.6-1.8-3.2-2.8-4.8c-0.9-1.6-1.8-3.2-2.8-4.8c-3.9-6.3-7.8-12.6-11.6-19
		c-1.8-3.2-3.6-6.5-5.3-9.8l-1.3-2.5l-1.2-2.5c-0.8-1.7-1.5-3.4-2.2-5.1c-0.7-1.7-1.4-3.4-2.1-5.2c-0.6-1.7-1.3-3.5-1.8-5.3
		c-0.6-1.8-1.2-3.5-1.8-5.3l-0.9-2.6l-0.8-2.7c-1-3.6-2.1-7.1-3.3-10.6c-1.1-3.5-2.2-7.1-3.4-10.5c-4.5-14-11.8-27.3-15.3-41.8
		c-0.9-3.6-1.6-7.2-2.3-10.9c-0.7-3.7-1.1-7.4-1.5-11c-0.5-3.7-0.8-7.4-1.2-11.1c-0.4-3.7-1-7.3-1.4-11c-0.5-3.7-1.2-7.3-1.8-10.9
		c-0.6-3.6-1.4-7.3-2.2-10.9c-1.4-7.3-3.1-14.6-3.9-22c-0.2-1.8-0.4-3.7-0.6-5.5c-0.1-1.9-0.2-3.7-0.3-5.6c-0.1-3.7-0.2-7.4,0-11.2
		c0.2-3.7,0.4-7.4,0.7-11.1c0.4-3.7,0.7-7.4,1-11.1c0.2-3.7,0.6-7.4,0.7-11.1c0.1-3.7,0.2-7.4,0.2-11.1l-0.1-11.2
		c0-3.7-0.1-7.5,0.1-11.2c0.3-7.5,1.3-15,3.2-22.3c1.9-7.3,5-14.4,7.9-21.4c2.9-7,5.8-14,9.1-20.9c3.3-6.9,6.9-13.8,11.9-20
		c5-6.1,11.2-11.4,18.2-14.9l2.6-1.3l1.3-0.6c0.4-0.2,0.9-0.4,1.4-0.6c1.8-0.7,3.6-1.5,5.4-2.2c1.8-0.7,3.6-1.4,5.4-2.1
		C71,8.4,72.8,7.7,74.6,7c1.8-0.7,3.6-1.3,5.4-2c0.9-0.4,1.8-0.7,2.7-1l2.8-1l1.4-0.5c0.5-0.2,0.9-0.3,1.4-0.4
		c1-0.3,1.9-0.5,2.9-0.8c1.9-0.5,3.9-0.8,5.9-1c7.9-0.8,16.1,0.2,23.7,2.8c7.7,2.5,14.6,6.6,20.9,11.1c6.4,4.5,12,10,17.1,15.9
		c5.1,5.9,9.5,12.5,12.7,19.7c0.4,0.9,0.8,1.8,1.2,2.7l1.1,2.8c0.3,0.9,0.6,1.9,0.9,2.8c0.3,0.9,0.6,1.9,0.8,2.8
		c0.2,1,0.4,1.9,0.6,2.9c0.2,1,0.3,1.9,0.4,2.9c0.3,1.9,0.5,3.8,0.7,5.8c0.8,7.7,0.3,15.3,0.3,22.7c0,7.5,0,14.9,0.2,22.2
		c0.1,3.7,0.3,7.3,0.4,11c0.2,3.6,0.4,7.3,0.6,10.9c0.1,1.8,0.1,3.6,0.2,5.4l0,2.7l0,1.4l0.1,1.4c0.2,3.6,0.3,7.2,0.3,10.9
		c0,3.6-0.2,7.3-0.2,10.9c0,3.6,0,7.3,0.1,10.9c0,1.8,0.1,3.6,0.2,5.5c0,0.9,0.1,1.8,0.2,2.7c0.1,0.9,0.2,1.8,0.3,2.7
		c0.4,3.6,0.9,7.2,1.5,10.8c2.5,14.4,6.9,28.3,9.7,42.5c0.3,1.8,0.7,3.6,1.1,5.3c0.4,1.8,0.8,3.5,1.1,5.3c0.7,3.6,1.4,7.1,2,10.7
		c1.5,7.1,3.3,14.2,5.4,21.2c2.3,6.9,5,13.7,8,20.3c1.6,3.3,3.1,6.6,4.6,9.9c0.7,1.7,1.5,3.3,2.1,5l1,2.5l1.1,2.5
		c1.4,3.3,2.8,6.7,4.1,10.1c1.3,3.4,2.5,6.8,3.9,10.2c1.4,3.4,2.7,6.7,4.2,10.1c0.7,1.7,1.4,3.4,2.2,5c0.8,1.7,1.6,3.3,2.4,4.9
		c1.7,3.2,3.4,6.4,5.2,9.6c0.9,1.6,1.8,3.2,2.7,4.7l3,4.6l6.1,9.1c2,3.1,4.1,6,6.2,9c4.1,6,7.9,12.2,11.9,18.2
		c3.9,6.1,7.5,12.4,11.7,18.5c4.1,6.1,8.5,12,12.8,18c4.4,6,8.8,12.1,12.6,18.7c3.8,6.6,7,13.7,8.9,21.3c0.2,0.9,0.5,1.9,0.7,2.8
		l0.5,2.9c0.4,1.9,0.5,3.8,0.8,5.7c0.4,3.8,0.7,7.6,0.9,11.4c0.4,7.6,0.4,15.3-0.8,23.1l-0.5,2.9l-0.7,2.9c-0.2,1-0.6,1.9-0.9,2.9
		c-0.2,0.5-0.3,1-0.5,1.5l-0.6,1.4c-1.6,3.8-3.8,7.5-6.6,10.7c-2.8,3.2-6.3,5.9-10.1,7.8c-3.7,2-7.7,3.3-11.7,4.1c-4,0.7-8,1-11.9,1
		c-3.9,0-7.8-0.2-11.6-0.7c-3.8-0.5-7.6-1.2-11.2-2c-3.7-0.9-7.3-1.8-11-2.7c-3.6-0.9-7.2-1.9-10.9-2.9c-3.6-1-7.2-2-10.8-3.1
		c-7.2-2.2-14.3-4.6-21.1-7.9c-6.8-3.2-13.3-7-19.5-11.3c-3.1-2.2-6.1-4.4-9-6.8c-2.9-2.3-5.8-4.8-8.6-7.3c-2.8-2.5-5.6-5-8.3-7.7
		C149.4,527.6,146.8,524.9,144.3,522.1z M148.9,517.9c2.4,2.6,5.1,5,7.9,7.2c2.8,2.2,5.7,4.4,8.6,6.4c5.9,4.1,12.2,7.6,18.5,11
		l9.5,5.1l9.5,5c6.3,3.4,12.6,6.9,19.1,10c6.5,3.1,13.2,5.8,20.2,7.6c6.9,1.8,14.1,2.6,21.1,2.9c7,0.4,14-0.4,20.3-2.1
		c6.3-1.8,12-4.5,16.4-8.7c4.4-4.2,7.8-9.9,9.4-16.5c0.3-0.8,0.4-1.7,0.6-2.5c0.2-0.8,0.3-1.7,0.4-2.5l0.3-2.6l0.1-2.6l0.1-1.3
		l0-1.3l-0.1-2.6c-0.1-1.8-0.2-3.5-0.5-5.3c-0.5-3.5-1.2-7-2-10.4c-0.4-1.7-0.9-3.5-1.4-5.1l-0.7-2.5c-0.3-0.8-0.6-1.6-0.8-2.4
		c-2.3-6.5-5-12.9-8.2-19.2c-3.2-6.3-6.7-12.6-10.7-18.6c-4-6.1-8.3-11.9-12.9-17.6c-9.2-11.5-18.7-23.1-26-36
		c-3.9-6.3-7-13.1-10.4-19.7l-2.5-4.9l-2.4-5c-1.7-3.3-3.4-6.6-5.1-9.8l-2.7-4.9c-0.9-1.6-1.7-3.3-2.6-4.9c-1.8-3.3-3.6-6.5-5.4-9.7
		c-1.9-3.2-3.5-6.6-5.1-9.9c-1.6-3.3-3.2-6.7-4.6-10.1l-1.1-2.6c-0.3-0.9-0.6-1.7-1-2.6c-0.6-1.7-1.3-3.5-1.8-5.3
		c-1.2-3.5-2.3-7.1-3.4-10.6c-0.6-1.8-1-3.6-1.5-5.4c-0.5-1.8-1-3.6-1.5-5.3c-1.1-3.6-2.2-7.1-3.4-10.6c-1.1-3.5-2.2-7-3.5-10.5
		l-3.8-10.5c-1.1-3.5-2.3-7.1-3.4-10.6c-0.6-1.8-1.1-3.6-1.6-5.3l-0.8-2.7c-0.3-0.9-0.4-1.8-0.7-2.7c-0.8-3.6-1.6-7.3-2.3-10.9
		c-0.7-3.7-1.3-7.3-1.7-11l-1.1-11.1c-0.2-1.8-0.4-3.7-0.6-5.5l-0.5-5.5c-0.3-3.7-0.8-7.4-1.3-11l-1.5-11c-0.6-3.7-1.2-7.3-1.8-11
		l-0.5-2.8c-0.1-0.9-0.2-1.8-0.3-2.8c-0.2-1.8-0.4-3.7-0.6-5.5c-0.3-3.7-0.6-7.4-0.7-11.1c-0.1-3.7,0-7.4,0.2-11.2
		c0.2-3.7,0.3-7.4,0.6-11.1l1-11c0.7-7.3,1.1-14.6,0.9-21.8c-0.2-3.6-0.5-7.2-1.1-10.7c-0.5-3.5-1.2-7-1.9-10.4
		c-0.7-3.4-1.7-6.8-2.6-10.1c-0.4-1.7-0.9-3.3-1.3-4.9c-0.5-1.6-1-3.3-1.6-4.9c-2.2-6.4-5-12.8-8.9-18.5l-1.5-2.1
		c-0.5-0.7-1.1-1.3-1.6-2c-1.1-1.4-2.3-2.6-3.5-3.8c-1.2-1.2-2.5-2.3-3.8-3.5l-2.1-1.5c-0.7-0.5-1.4-1-2.1-1.4
		c-5.8-3.7-12.3-5.9-18.9-7c-6.6-1.1-13.2-1.3-19.9-1.1c-1.7,0-3.4,0-5.1,0.1c-1.7,0.1-3.4,0-5.2,0.2c-1.7,0.2-3.5,0.2-5.2,0.6
		c-1.7,0.4-3.4,0.7-5.1,1.2c-1.7,0.6-3.3,1.2-4.9,1.8c-1.6,0.8-3.1,1.6-4.6,2.4c-3,1.8-5.8,3.9-8.4,6.2c-5.3,4.5-10.6,8.6-15.5,13.3
		c-4.9,4.7-9.8,9.8-13.7,15.7c-3.9,5.9-6.9,12.4-8.7,19.3c-1.8,6.9-2.4,14.1-3.3,21.2c-0.9,7.1-2.1,14.1-3.4,21.2l-2.1,10.7
		c-0.3,1.8-0.7,3.6-1,5.4c-0.3,1.8-0.5,3.6-0.8,5.4c-0.5,3.6-0.9,7.2-1,10.9c-0.1,3.6-0.2,7.3-0.1,10.9c0.2,3.6,0.5,7.3,0.8,10.9
		c0.4,3.6,0.8,7.2,1.1,10.9c0.3,3.6,0.7,7.2,0.8,10.8c0.1,1.8,0.2,3.6,0.2,5.4c0.1,1.8,0.2,3.6,0.2,5.4c0.1,7.3,0.1,14.5,0.2,21.9
		c0.1,3.6,0.3,7.3,0.7,10.9c0.3,3.6,0.9,7.2,1.5,10.8c0.6,3.6,1.4,7.1,2.4,10.7c0.9,3.5,1.9,7,3,10.5c1.1,3.5,2.1,7,3.2,10.5
		c1.1,3.5,2,7,2.9,10.5c3.9,13.9,5.1,28.8,10.1,42.5c4.7,13.8,12.3,26.5,18.4,39.6c3,6.6,6.1,13.2,8.7,19.9l4.2,10.1
		c0.7,1.7,1.4,3.3,2.2,5c0.8,1.7,1.6,3.3,2.4,4.9c0.8,1.6,1.6,3.3,2.5,4.9c0.9,1.6,1.8,3.2,2.7,4.7c0.9,1.6,1.9,3.1,2.9,4.7
		c1,1.5,2,3.1,3.1,4.5c2.1,3,4.3,5.9,6.5,8.8c2.2,2.9,4.5,5.8,6.6,8.7c2.1,3,4.3,5.9,6.3,8.9l6.1,9c2,3,3.9,6.1,5.9,9.1l6,9.1
		C129.9,495.7,139,507.1,148.9,517.9z"/>
</g>
<g>
	<path class="st7" d="M98.9,183.9c-4.8,1.5-10.3,8.5-9.4,14.1c1.1,6.6,11.9,10.4,14.9,11c6.8,1.2,13.9,0.6,20.7,1.5
		c14.8,2.1,27.5,12.3,31,24.9c3.5,12.6-2.5,26.7-14.5,34.4c-10.9,7-28.3,12.2-26.8,23.8c0.9,6.9,8.9,11.5,16.7,12.9
		c7.8,1.5,16,0.8,23.8,2.2c42,7.7,35.3,55.6,5.9,72.7c-4.8,2.8-10.3,5-14.1,8.8c-3.8,3.8-5.2,10.1-1.2,13.7
		c5.3,4.8,14.4,1.5,21.8-0.4c41.3-10.6,85.4,43.5,53.9,72c-4.1,3.7-9.3,6.6-13.2,10.5c-19.3,19.6,14.4,19.7,27.7,18.4
		c11.7-1.1,32.2-4.1,33.2,10.7c0.2,2.9-0.8,5.3-2.5,7.4c-1.5,1.8-14,11.3-33.2,10.5c-24.3-0.9-58.1-18.1-61.7-42.5
		c-4-27.2,34.9-39.5,20.7-53.2c-16.4-15.6-21.6,7.8-42.7,0.3c-22.8-8.1-37.9-44.8-27.8-64.6c6.5-12.9,21.3-13.9,21.6-24.7
		c0.3-11.4-16-20.9-18.6-21.8c-10.3-3.8-21.7-4.6-32.2-7.9c-17-5.3-33.2-28.6-24-44.2c3.6-6.1,11-9.7,18.2-12.6
		c7.2-2.8,14.9-5.4,20.3-10.4c5.4-5,7.6-13.5,2.4-18.6c-6.8-6.8-19.5-3.3-29.9-3.6c-11.3-0.3-22.1-6.2-27.4-14.8
		c-8.6-14.2-7.4-44,9-54.3c9-5.6,20.7-6.1,31.3-9c10.6-2.8,21.5-10.3,20.1-19.8c-1.4-9.4-14.1-14.2-25-15.1
		c-19.2-1.5-25.3,0.5-32.2-4.7c-11.5-8.7-11.5-38.4,3.5-54.5c22.7-24.4,74-23.2,71.3,0.5C129.5,69.3,91.7,67.9,90.3,82
		c-0.1,1.1,0,2,0.4,2.9c5.5,13.6,34.3,7.2,49.5,23.8c5.1,5.6,10.3,15.8,8.5,25.7C147,143,148.1,168.2,98.9,183.9z"/>
	<path class="st6" d="M99.8,186.6c-1.4,0.5-3,1.7-4.2,3.1c-0.6,0.7-1.2,1.5-1.7,2.3c-0.5,0.8-0.9,1.6-1.2,2.5
		c-0.3,0.8-0.4,1.6-0.5,2.4c0,0.4,0,0.7,0.1,1c0,0.3,0.2,0.7,0.3,1c0.6,1.4,2,2.8,3.6,4c1.6,1.2,3.5,2.2,5.4,3.1c1,0.4,2,0.8,2.9,1
		c1,0.2,2.1,0.4,3.2,0.6c4.3,0.6,8.9,0.6,13.5,0.9c1.2,0.1,2.3,0.2,3.5,0.3c1.2,0.1,2.3,0.3,3.5,0.4c2.3,0.4,4.7,0.9,6.9,1.6
		c0.6,0.2,1.1,0.4,1.7,0.6l1.7,0.7c1.1,0.4,2.2,1,3.3,1.6c2.1,1.2,4.1,2.5,5.9,4.1c3.7,3.1,6.8,7,9,11.5c1,2.2,1.9,4.6,2.3,7
		c0.3,1.2,0.4,2.4,0.5,3.7c0,1.2,0.1,2.5,0,3.7c-0.2,4.9-1.7,9.7-3.8,13.9c-1.1,2.1-2.4,4.2-3.9,6c-0.7,1-1.6,1.8-2.4,2.7
		c-0.9,0.8-1.7,1.7-2.6,2.5l-1.4,1.2c-0.5,0.4-1,0.7-1.5,1.1c-1,0.7-2,1.4-3,2c-2,1.2-4,2.4-6,3.5c-3.9,2.2-7.9,4.4-11.2,6.9
		c-3.3,2.5-6,5.5-6,8.6c-0.1,1.7,0.4,3.1,1.3,4.6c0.9,1.5,2.3,2.8,3.9,4c1.6,1.2,3.5,2.2,5.4,3c2,0.8,4,1.4,6.2,1.8
		c4.3,0.8,8.8,1,13.4,1.2c2.3,0.1,4.6,0.2,6.9,0.5c2.3,0.3,4.7,0.5,7,1.1c4.6,1,9.4,2.6,13.5,5.5c2.1,1.4,3.9,3.2,5.6,5.1
		c0.4,0.5,0.8,1,1.1,1.5c0.4,0.5,0.8,1,1.1,1.6c0.6,1.1,1.3,2.2,1.8,3.4c2.1,4.6,2.9,9.7,2.7,14.5c-0.2,4.8-1.2,9.5-2.6,14
		c-1.4,4.4-3.3,8.7-5.8,12.7c-2.4,4-5.3,7.7-8.6,11c-0.8,0.8-1.7,1.6-2.6,2.4c-0.9,0.7-1.8,1.5-2.8,2.2c-1,0.7-1.9,1.4-2.9,2
		c-1,0.6-2,1.2-3,1.8c-2,1.2-3.9,2.3-5.6,3.5c-1.7,1.2-3.3,2.5-4.4,3.8c-1.1,1.3-1.9,2.9-2.1,4.4c-0.2,1.5,0.1,2.7,0.7,3.6
		c0.8,1,2,1.9,3.7,2.3c1.7,0.5,3.8,0.5,5.9,0.4c2.1-0.2,4.3-0.5,6.5-1c1.1-0.2,2.2-0.5,3.3-0.8c1.2-0.2,2.3-0.5,3.5-0.7
		c4.6-0.8,9.4-1.4,14.2-1.3c4.8,0.1,9.6,1.1,14.1,3.1c4.4,1.9,8.5,4.4,12.2,7.4c3.7,3,7,6.4,10,10c3,3.6,5.7,7.5,8,11.6
		c2.3,4.1,4.4,8.5,5.7,13.2c1.3,4.7,1.7,9.9,0.6,15c-1,5-3.6,9.8-7,13.4c-0.9,0.9-1.7,1.8-2.7,2.6c-1,0.8-1.9,1.6-2.9,2.3
		c-2,1.4-4,2.6-5.9,3.8c-1.9,1.2-3.7,2.5-5.3,3.9c-0.8,0.7-1.5,1.5-2.2,2.3c-0.3,0.4-0.7,0.8-1,1.3l-0.8,1.3
		c-0.5,0.9-0.9,1.8-1.2,2.6c-0.2,0.4-0.2,0.8-0.3,1.2c-0.1,0.2,0,0.4,0,0.5c0,0.2-0.1,0.3,0,0.5c0,0.6,0.3,0.8,0.4,1.1
		c0.2,0.3,0.6,0.6,1.2,1c1.2,0.8,3,1.5,4.9,2c1.9,0.5,4,0.9,6.1,1.2c4.2,0.6,8.7,1,13.1,1c4.4,0,8.9-0.5,13.5-0.7
		c2.3-0.1,4.6-0.2,7-0.3c2.4,0,4.8,0,7.3,0.3c2.5,0.4,5.2,1.1,7.7,2.8c1.2,0.9,2.4,1.9,3.3,3.2c0.9,1.3,1.6,2.7,2,4.2
		c0.2,0.7,0.4,1.5,0.4,2.2c0.1,0.7,0.2,1.4,0.2,2.2c0,1.6-0.3,3.2-0.8,4.7c-0.6,1.5-1.4,2.8-2.3,4l-0.4,0.4
		c-0.1,0.2-0.3,0.4-0.5,0.5c-0.2,0.2-0.4,0.3-0.5,0.4l-0.4,0.4c-0.6,0.4-1.1,0.8-1.6,1.2c-4.2,2.8-8.7,4.6-13.3,6
		c-9.3,2.6-19,2.5-28.1,0.8c-4.6-0.8-9-2-13.5-3.4c-4.4-1.4-8.8-3-12.9-5.1c-8.3-4.1-16.2-9.6-22.3-17.1c-3.1-3.7-5.6-8.1-7.1-12.9
		c-0.8-2.4-1.3-4.9-1.5-7.5c-0.1-2.6,0-5.2,0.5-7.7c1.1-5.1,3.4-9.7,6.4-13.4c3.1-3.7,6.6-6.8,9.7-10.1c1.5-1.7,3-3.3,4.3-5.1
		c1.3-1.7,2.4-3.6,3-5.3c0.2-0.4,0.2-0.8,0.4-1.2c0-0.4,0.1-0.8,0.1-1.1c0-0.2,0-0.3,0-0.5c0-0.2-0.1-0.3-0.1-0.4
		c0-0.3-0.2-0.6-0.3-0.8c-0.1-0.3-0.3-0.5-0.5-0.8c-0.3-0.3-0.4-0.6-0.7-0.9l-0.9-0.9l-1.1-1c-1.5-1.3-3-2.4-4.6-3
		c-1.5-0.6-3-0.8-4.7-0.5c-1.7,0.3-3.7,1-5.7,1.9c-2,0.9-4.2,1.8-6.6,2.6c-2.3,0.8-4.8,1.3-7.3,1.4c-2.5,0.1-5-0.1-7.4-0.7
		c-2.4-0.5-4.7-1.4-6.8-2.4c-1.1-0.5-2.1-1.1-3.2-1.7c-1-0.6-2-1.3-3-2c-7.7-5.6-13.7-13.2-17.9-21.7c-2.1-4.2-3.7-8.7-4.8-13.4
		c-1.1-4.6-1.5-9.5-1.1-14.3c0.5-4.8,1.9-9.7,4.5-14c1.3-2.1,2.9-4,4.6-5.8c1.7-1.7,3.6-3.2,5.4-4.6c1.9-1.4,3.7-2.8,5.3-4.2
		c1.6-1.4,3-3,3.7-4.5c0.7-1.5,0.8-2.9,0.6-4.5c-0.2-1.6-0.8-3.2-1.6-4.8c-1.8-3.2-4.7-6.3-7.9-9c-1.6-1.3-3.3-2.6-5.1-3.8
		c-0.4-0.3-0.9-0.5-1.2-0.7c0,0-0.2-0.1-0.3-0.1l-0.4-0.2l-0.7-0.3c-1-0.4-2-0.8-3-1.2c-8.3-3-17.3-4.2-26.3-6.6
		c-4.6-1.2-9.1-3.4-13-6.1c-3.9-2.7-7.5-6.1-10.5-9.9c-3-3.9-5.3-8.3-6.6-13.2c-0.6-2.5-0.9-5.1-0.8-7.7c0.1-2.6,0.7-5.3,1.8-7.7
		c0.3-0.6,0.6-1.2,0.9-1.8c0.3-0.6,0.7-1.1,1-1.7c0.8-1.1,1.6-2.1,2.6-3c1.8-1.8,3.9-3.1,6-4.3c4.2-2.3,8.5-3.9,12.8-5.6
		c4.2-1.7,8.4-3.4,12-5.9c1.8-1.2,3.5-2.5,4.9-4c0.7-0.7,1.3-1.4,1.9-2.2c0.5-0.8,1-1.6,1.4-2.4c0.8-1.6,1.2-3.4,1.3-5
		c0-1.6-0.3-3-1.1-4.2c-0.4-0.6-0.9-1.2-1.5-1.7c-0.6-0.5-1.3-1-2.1-1.4c-1.6-0.8-3.5-1.3-5.5-1.6c-4.1-0.6-8.6-0.4-13.2-0.3
		c-2.3,0.1-4.6,0.1-7,0c-2.4-0.1-4.8-0.5-7.1-1.1c-4.7-1.1-9.1-3.1-13.1-5.9c-4-2.7-7.5-6.5-9.8-11c-2.3-4.4-3.6-9.1-4.3-13.9
		c-0.7-4.8-0.7-9.6-0.1-14.4c0.6-4.8,2-9.5,4.1-13.9c2.2-4.4,5.1-8.5,9.1-11.6c4-3.1,8.6-4.8,13.2-6c4.5-1.2,9-2,13.4-3
		c2.2-0.5,4.4-1,6.5-1.6c2.1-0.6,4.1-1.3,6-2.3c3.8-1.8,7.3-4.3,9.8-7.1c1.2-1.4,2.1-2.9,2.6-4.4c0.5-1.5,0.5-3,0.1-4.5
		c-0.4-1.5-1.2-2.9-2.4-4.2c-1.2-1.3-2.8-2.5-4.5-3.6c-1.7-1.1-3.7-1.9-5.7-2.6c-2-0.7-4.1-1.2-6.2-1.5c-2.1-0.3-4.3-0.4-6.6-0.5
		c-2.2-0.1-4.5,0-6.7,0.1l-6.8,0.4c-2.3,0.1-4.7,0.2-7.3-0.2c-2.6-0.3-5.4-1.2-7.8-2.8c-0.6-0.4-1.1-0.8-1.7-1.2
		c-0.5-0.5-1.1-0.9-1.6-1.5c-0.5-0.5-1-1-1.4-1.6l-0.6-0.8l-0.5-0.9c-1.4-2.3-2.2-4.8-2.8-7.2c-0.6-2.4-0.9-4.8-1.2-7.2
		c-0.5-4.8-0.3-9.5,0.5-14.2c0.8-4.6,2.1-9.2,4-13.5c1.9-4.3,4.5-8.4,7.7-11.9c6.5-6.9,14.6-12,23.4-15.2c4.4-1.6,9-2.7,13.6-3.4
		c4.6-0.7,9.4-0.9,14.1-0.6c2.4,0.1,4.7,0.6,7.1,1.1c2.3,0.6,4.7,1.3,7,2.4c2.3,1.1,4.4,2.6,6.3,4.5c1.9,1.9,3.3,4.4,3.9,7.1
		c0.1,0.3,0.2,0.7,0.2,1l0.1,1c0.1,0.7,0.2,1.4,0.1,2c0,0.7-0.1,1.3-0.1,2c-0.1,0.4-0.2,0.8-0.3,1.3c-0.1,0.4-0.3,0.8-0.5,1.2
		c-0.8,1.5-1.8,2.6-2.9,3.4c-0.6,0.5-1.1,0.7-1.7,1.1c-0.6,0.3-1.1,0.6-1.7,0.9c-2.3,1-4.5,1.7-6.7,2.4l-6.6,1.8
		c-4.3,1.2-8.7,2.6-12.4,4.6c-1.9,1-3.6,2.2-4.9,3.5c-0.7,0.6-1.1,1.3-1.5,1.9c-0.1,0.3-0.4,0.6-0.4,0.9c0,0.2-0.1,0.3-0.2,0.5
		c0,0.2,0,0.3-0.1,0.5c-0.1,0.3-0.1,0.6,0,0.9c0,0.3,0.1,0.4,0.2,0.7c0.2,0.3,0.3,0.7,0.5,1.1l0.3,0.5l0.4,0.5
		c1,1.3,2.5,2.3,4.3,3.2c3.6,1.8,7.9,3,12.3,4.1c4.4,1.1,8.9,2.2,13.4,3.5c2.2,0.7,4.5,1.4,6.7,2.4c2.2,1,4.4,2.1,6.4,3.6
		c2,1.4,3.9,3.1,5.6,4.9c1.7,1.9,3.1,3.8,4.4,6c2.6,4.2,4.3,9.1,4.7,14.3c0.1,0.6,0.1,1.3,0.1,1.9l0,1l-0.1,1c0,0.7-0.1,1.3-0.2,2
		c-0.1,0.6-0.2,1.4-0.3,1.8c-0.2,1-0.4,2.1-0.6,3.2c-0.2,1.2-0.4,2.3-0.8,3.5c-1.1,4.7-3.1,9.2-5.7,13.3l-1,1.5l-0.5,0.8l-0.5,0.7
		l-2.2,2.8l-2.4,2.6c-0.4,0.4-0.8,0.9-1.2,1.3l-1.3,1.2l-2.6,2.4l-2.8,2.1l-1.4,1.1c-0.5,0.4-0.9,0.7-1.4,1l-2.9,1.9
		C117,179.7,108.5,183.6,99.8,186.6z M98.1,181.2c8.4-2.7,16.9-5.6,24.5-10l2.8-1.7c0.5-0.3,0.9-0.6,1.4-0.9l1.3-1
		c0.9-0.7,1.8-1.3,2.6-2l2.4-2.2l1.2-1.1c0.4-0.4,0.7-0.8,1.1-1.2c0.7-0.8,1.4-1.6,2.1-2.5l1.8-2.7l0.4-0.7l0.4-0.7l0.7-1.4
		c1.9-3.8,2.9-7.9,3.5-12.1c0.3-2.1,0.4-4.2,0.7-6.7c0.1-0.7,0.1-1.1,0.2-1.5c0.1-0.5,0.1-0.9,0.1-1.4c0-0.5,0-0.9,0-1.4
		c0-0.5,0-1-0.1-1.4c-0.4-3.8-1.6-7.7-3.4-11.4c-0.9-1.8-1.9-3.6-3.2-5.2c-1.2-1.6-2.6-3.1-4.2-4.4c-3.1-2.6-6.9-4.8-10.9-6.3
		c-4.1-1.6-8.4-2.5-12.9-3.3c-2.2-0.4-4.5-0.8-6.8-1.3c-2.3-0.5-4.6-1.1-7-2c-2.3-1-4.8-2.3-6.7-4.5c-1-1.1-1.8-2.4-2.4-3.7
		c-0.4-0.8-0.6-1.7-0.7-2.6c-0.1-0.9-0.1-1.7,0.1-2.5l0.2-1.2c0.1-0.4,0.3-0.8,0.4-1.1c0.3-0.8,0.7-1.4,1.1-2.1
		c0.9-1.2,1.9-2.3,3-3.1c2.2-1.6,4.5-2.5,6.8-3.3c2.3-0.8,4.5-1.4,6.7-2l6.6-1.9c4.3-1.3,8.6-2.8,12.2-4.8c0.4-0.3,0.8-0.5,1.3-0.8
		c0.4-0.3,0.8-0.6,1.1-0.9c0.7-0.6,1.1-1.2,1.3-1.7c0-0.1,0.1-0.3,0.1-0.4c0-0.1,0-0.3,0.1-0.4c0-0.4,0-0.9,0-1.4
		c0.1-0.5-0.1-0.9-0.1-1.4l-0.1-0.7l-0.2-0.6c-0.4-1.7-1.3-3.3-2.6-4.6c-1.3-1.3-2.9-2.4-4.7-3.3c-1.8-0.9-3.8-1.5-5.8-2.1
		c-2.1-0.5-4.1-0.9-6.3-1c-8.5-0.9-17.4,0.4-25.7,3.1c-4.1,1.4-8.2,3.1-11.9,5.3c-3.8,2.2-7.2,4.9-10.1,8.1
		c-1.5,1.6-2.7,3.3-3.9,5.1c-1.1,1.8-2.1,3.7-3,5.7c-0.8,2-1.5,4-2.1,6.1c-0.5,2.1-0.9,4.2-1.2,6.4c-0.5,4.3-0.4,8.7,0.3,12.8
		c0.7,4.2,2.5,8.1,4.9,10.9l0.4,0.5l0.5,0.5c0.3,0.3,0.6,0.6,0.9,0.9c0.3,0.3,0.6,0.5,1,0.7c0.4,0.2,0.7,0.5,1.1,0.7
		c1.5,0.9,3,1.5,4.9,1.9c1.9,0.4,4,0.7,6.2,1l6.7,0.8c2.3,0.2,4.5,0.5,6.8,0.7c2.3,0.2,4.5,0.3,6.9,0.6c2.4,0.3,4.7,0.7,7,1.2
		c2.3,0.5,4.7,1.2,7,2.2c2.3,1,4.6,2.3,6.6,4.1c2,1.8,3.8,4.3,4.7,7.1c0.9,2.8,0.8,6.1-0.1,8.9c-1,2.8-2.7,5.1-4.5,7
		c-1.9,1.9-4,3.3-6.1,4.6c-2.2,1.2-4.4,2.2-6.7,3c-2.3,0.8-4.7,1.4-6.9,1.8c-2.3,0.4-4.5,0.8-6.8,1.2c-4.5,0.7-8.9,1.5-13,2.9
		c-4.1,1.3-8.1,3.2-11.1,5.8c-3,2.6-5.3,6.1-6.9,10c-1.5,3.9-2.4,8-3,12.2c-0.5,4.2-0.6,8.5-0.1,12.7c0.5,4.2,1.4,8.4,3,12.1
		c3.2,7.4,10.6,13,18.8,15.1c4.1,1.1,8.3,1.2,12.8,0.9c4.5-0.3,9-1.1,13.9-1c2.5,0.1,5.1,0.3,7.7,1.3c2.6,1,5.1,2.6,6.9,5.2
		c0.9,1.2,1.5,2.7,1.9,4.2c0.4,1.5,0.5,3,0.4,4.5c-0.2,2.9-1.2,5.6-2.6,7.9c-0.7,1.1-1.5,2.2-2.5,3.2c-0.9,1-2,1.8-3,2.5
		c-2.1,1.4-4.2,2.6-6.4,3.5c-4.4,1.9-8.8,3.2-13,4.8c-4.2,1.6-8.3,3.5-11.6,6.1c-1.7,1.3-3.2,2.8-4.3,4.4c-0.6,0.8-1.1,1.6-1.5,2.5
		l-0.6,1.3l-0.4,1.4c-1.9,7.3,0.6,15.5,5.1,22.5c2.2,3.5,5,6.8,8.2,9.7c3.2,2.8,6.8,5.1,11,6.3c8.4,2.7,17.5,3.5,26.6,5.5
		c1.1,0.2,2.3,0.5,3.4,0.9l0.9,0.2l0.4,0.1c0.1,0,0.3,0.1,0.5,0.2c0.8,0.3,1.3,0.5,1.9,0.8c2.2,1.1,4.3,2.3,6.3,3.6
		c2,1.4,3.9,2.9,5.7,4.6c1.8,1.7,3.4,3.7,4.8,6.1c1.3,2.3,2.3,5.1,2.4,8c0,1.5-0.2,3-0.6,4.4c-0.5,1.5-1.2,2.8-2.1,3.9
		c-1.8,2.3-4,3.7-6,4.9c-2,1.3-3.9,2.4-5.7,3.7c-3.6,2.5-6.6,5.6-8.3,9.3c-1.8,3.7-2.4,7.9-2.5,12c-0.1,8.3,1.7,16.9,5.1,24.8
		c3.4,7.9,8.2,15.4,15,20.7c0.8,0.7,1.7,1.2,2.6,1.9c0.9,0.5,1.8,1.1,2.8,1.6c1.9,0.9,3.9,1.7,5.9,2.2c4.1,1,8.2,0.5,12-1.3
		c1.9-0.8,3.8-2,5.7-3.1c2-1.1,4.1-2.4,6.8-3.2c1.3-0.4,2.8-0.6,4.3-0.6c1.5,0,3,0.3,4.3,0.8c2.8,0.9,5,2.5,6.9,4.1
		c1.8,1.5,4.1,3.7,5.1,6.9c0.2,0.8,0.4,1.6,0.4,2.5c0,0.4,0,0.8,0,1.2l-0.2,1.2c0,0.4-0.2,0.8-0.3,1.1c-0.1,0.4-0.2,0.7-0.4,1.1
		c-0.3,0.6-0.6,1.3-0.9,1.9c-1.4,2.3-3,4.1-4.6,5.9c-1.6,1.7-3.2,3.4-4.7,5.1c-1.5,1.7-2.9,3.5-4.1,5.3c-1.2,1.8-2.4,3.7-3.4,5.5
		c-1,1.9-2,3.7-2.8,5.5c-0.8,1.8-1.4,3.7-1.8,5.6c-0.4,1.9-0.5,3.8-0.5,5.8c0.1,1.9,0.4,3.9,0.9,5.9c1,3.9,2.9,7.6,5.4,11
		c5,6.8,12,12.3,19.6,16.6c3.8,2.1,7.8,4.1,12,5.6c4.1,1.5,8.5,2.6,12.8,3.2c8.7,1.3,17.5,0.2,25.4-2.9c2-0.8,3.9-1.7,5.7-2.7
		c1.8-1,3.6-2.1,5.2-3.3c0.4-0.3,0.8-0.6,1.1-0.9l0.2-0.2c0.1-0.1,0.1-0.1,0.1-0.1c0,0,0,0,0.1-0.1l0.2-0.2c0.5-0.6,0.8-1.2,1-1.9
		c0.2-0.6,0.3-1.3,0.3-2c0-0.3-0.1-0.7-0.1-1.2c0-0.4-0.1-0.8-0.2-1.2c-0.2-0.7-0.4-1.4-0.7-2c-0.3-0.6-0.8-1.2-1.3-1.7
		c-1.1-1.1-2.7-2-4.6-2.7c-3.8-1.3-8.3-1.6-12.7-1.3c-4.4,0.3-8.8,1.1-13.5,1.6c-4.6,0.5-9.3,0.8-14,0.6c-2.4-0.1-4.8-0.3-7.2-0.9
		c-2.5-0.5-5-1.3-7.6-3l-0.5-0.3l-0.5-0.4c-0.3-0.3-0.6-0.5-0.9-0.9c-0.3-0.3-0.6-0.7-0.9-1c-0.3-0.4-0.5-0.8-0.7-1.2
		c-0.9-1.7-1.1-3.8-0.7-5.5c0-0.5,0.2-0.8,0.3-1.2c0.1-0.4,0.2-0.8,0.4-1.1c0.4-0.6,0.7-1.4,1.1-1.9c0.8-1.2,1.6-2.1,2.5-3l1.3-1.3
		c0.4-0.4,0.9-0.8,1.3-1.2c0.9-0.8,1.8-1.6,2.7-2.4c1.8-1.5,3.7-3,5.4-4.4c1.8-1.4,3.4-2.9,4.9-4.4c0.7-0.8,1.3-1.6,2-2.4
		c0.3-0.4,0.7-0.8,0.9-1.2l0.8-1.3c2.2-3.4,3.7-7,4.7-10.8c1-3.8,1.3-7.8,1-12c-0.3-4.1-1.5-8.4-3.4-12.2c-1.9-3.9-4.5-7.4-7.5-10.6
		c-3-3.1-6.5-5.8-10.1-8.1c-3.6-2.3-7.4-4.2-11.3-5.8c-1-0.4-2-0.8-3-1.2c-1-0.3-2-0.7-3-1c-2-0.6-4-1.3-6.1-1.8
		c-4.1-1-8.5-1.5-12.8-0.9c-1.1,0.2-2.1,0.4-3.2,0.7c-1.1,0.3-2.1,0.6-3.2,1c-2.2,0.7-4.4,1.4-6.7,2.1c-2.3,0.6-4.8,1.1-7.6,0.9
		c-1.4-0.1-2.8-0.4-4.2-1.1c-0.7-0.3-1.4-0.7-2-1.2c-0.6-0.4-1.2-1-1.8-1.6c-1.1-1.2-1.9-2.8-2.2-4.4c-0.4-1.6-0.3-3.2-0.1-4.7
		c0.5-3,2-5.5,3.9-7.6c3.8-4,8.4-5.8,12.4-7.8c1-0.5,2-0.9,3-1.4c1-0.5,1.9-1,2.8-1.5c0.9-0.6,1.8-1.2,2.7-1.7
		c0.9-0.7,1.7-1.3,2.6-2c3.3-2.8,6.3-6,8.7-9.7c2.4-3.7,4.3-7.7,5.4-11.9c1.1-4.2,1.3-8.6,0.7-12.8c-0.6-4.2-2-8.1-3.9-11.6
		c-0.9-1.8-2.1-3.4-3.3-4.9c-0.7-0.7-1.3-1.5-2-2.2c-0.7-0.7-1.4-1.4-2.2-2.1c-6-5.3-14.5-9.2-23.4-9.7c-4.5-0.4-9-0.3-13.7-0.6
		c-4.6-0.3-9.5-1.3-13.9-3.7c-2.2-1.2-4.3-2.9-6-5.1c-0.8-1.1-1.5-2.4-1.9-3.8c-0.2-0.7-0.4-1.4-0.5-2.2c-0.1-0.7-0.1-1.4-0.1-2.2
		c0.1-1.5,0.4-2.9,0.9-4.3c0.5-1.4,1.3-2.6,2.1-3.6c0.8-1.1,1.7-2,2.7-2.9c0.9-0.9,1.9-1.6,2.9-2.3c4-2.8,8.2-4.7,12.2-6.7
		c2-1,4-2,5.9-3c1-0.5,1.9-1.1,2.8-1.7c0.4-0.3,0.9-0.6,1.3-0.9l1.3-1c3.3-2.7,6-6.1,7.9-9.8c0.9-1.9,1.7-3.9,2.2-5.9
		c0.4-2,0.8-4.1,0.7-6.2c0.1-1-0.1-2.1-0.2-3.1c-0.2-1-0.3-2-0.6-3c-0.4-2-1.3-3.9-2.2-5.7c-0.5-0.9-1-1.8-1.6-2.6
		c-0.5-0.9-1.2-1.7-1.8-2.5c-1.3-1.6-2.7-3.1-4.4-4.5c-3.2-2.7-6.7-5.1-10.6-7c-1.9-1-3.9-1.7-6-2.3c-1.1-0.2-2.1-0.5-3.2-0.7
		c-1.1-0.2-2.2-0.3-3.3-0.4c-4.4-0.3-9-0.1-13.6-0.4c-1.2-0.1-2.3-0.2-3.5-0.4c-1.3-0.2-2.4-0.5-3.6-0.9c-2.3-0.8-4.5-1.7-6.7-3
		c-2.1-1.3-4.3-3-5.7-5.6c-0.7-1.3-1.2-2.9-1.2-4.4c0-1.5,0.2-2.9,0.6-4.3c0.9-2.6,2.3-4.9,4-6.8C93.1,183.9,95.2,182.2,98.1,181.2z
		"/>
</g>
</svg>
