<?xml version="1.0" encoding="utf-8"?>
<!-- Generator: Adobe Illustrator 23.0.1, SVG Export Plug-In . SVG Version: 6.00 Build 0)  -->
<svg version="1.1" xmlns="http://www.w3.org/2000/svg" xmlns:xlink="http://www.w3.org/1999/xlink" x="0px" y="0px"
	 viewBox="0 0 320 320" style="enable-background:new 0 0 320 320;" xml:space="preserve">
<style type="text/css">
	.st0{clip-path:url(#SVGID_2_);fill:#31563A;}
	.st1{clip-path:url(#SVGID_2_);fill:#2AB34E;}
	.st2{clip-path:url(#SVGID_2_);fill:#197219;}
	.st3{clip-path:url(#SVGID_2_);fill:#EF3737;}
	.st4{clip-path:url(#SVGID_2_);fill:#3A9CED;}
	.st5{fill:#52C3EA;}
	.st6{display:none;}
	.st7{display:inline;}
	.st8{clip-path:url(#SVGID_4_);fill:#3F6972;}
	.st9{clip-path:url(#SVGID_4_);fill:#52C3EA;}
	.st10{clip-path:url(#SVGID_4_);fill:#884CE5;}
	.st11{clip-path:url(#SVGID_4_);fill:#4D4DE2;}
	.st12{clip-path:url(#SVGID_4_);fill:#52C662;}
	.st13{clip-path:url(#SVGID_6_);fill:#3F6972;}
	.st14{clip-path:url(#SVGID_6_);fill:#52C3EA;}
	.st15{clip-path:url(#SVGID_6_);fill:#52C662;}
	.st16{clip-path:url(#SVGID_6_);fill:#884CE5;}
	.st17{clip-path:url(#SVGID_6_);fill:#4D4DE2;}
</style>
<g id="Layer_1">
	<g>
		<g>
			<defs>
				<circle id="SVGID_1_" cx="160" cy="160" r="148.1"/>
			</defs>
			<clipPath id="SVGID_2_">
				<use xlink:href="#SVGID_1_"  style="overflow:visible;"/>
			</clipPath>
			<circle class="st0" cx="160" cy="160" r="148.1"/>
			<path class="st1" d="M59.8-28c0-5.4-3.4-10.2-8.4-12.7c5-2.6,8.4-7.3,8.4-12.7c0-8.1-7.5-14.7-16.8-14.7s-16.8,6.6-16.8,14.7
				c0,5.4,3.4,10.2,8.4,12.7c-5,2.6-8.4,7.3-8.4,12.7c0,5.6,3.6,10.4,8.8,12.9c-5.2,2.5-8.8,7.4-8.8,12.9c0,5.5,3.4,10.3,8.5,12.8
				c-5.1,2.5-8.5,7.3-8.5,12.8c0,5,2.9,9.4,7.2,12.1c-4.4,2.7-7.2,7.1-7.2,12.1c0,5,2.9,9.5,7.3,12.1c-4.4,2.7-7.3,7.1-7.3,12.1
				c0,5,2.9,9.4,7.2,12.1c-4.4,2.7-7.2,7.1-7.2,12.1c0,5.1,3,9.6,7.5,12.3c-4.5,2.6-7.5,7.1-7.5,12.3c0,4.9,2.8,9.3,7,12
				c-4.3,2.7-7,7-7,12c0,5.2,3.1,9.8,7.7,12.4c-4.6,2.6-7.7,7.2-7.7,12.4c0,4.9,2.7,9.1,6.8,11.8c-4.1,2.7-6.8,7-6.8,11.8
				c0,5.3,3.2,9.9,8,12.5c-4.8,2.6-8,7.2-8,12.5c0,4.8,2.6,9,6.6,11.7c-4,2.7-6.6,6.9-6.6,11.7c0,5.4,3.3,10.1,8.2,12.6
				c-4.9,2.6-8.2,7.3-8.2,12.6c0,4.7,2.5,8.9,6.4,11.6c-3.9,2.7-6.4,6.9-6.4,11.6c0,5.5,3.4,10.2,8.5,12.8
				c-5.1,2.5-8.5,7.3-8.5,12.8c0,8.1,7.5,14.7,16.8,14.7s16.8-6.6,16.8-14.7c0-5.5-3.4-10.2-8.5-12.8c5.1-2.5,8.5-7.3,8.5-12.8
				c0-4.7-2.5-8.9-6.4-11.6c3.9-2.7,6.4-6.9,6.4-11.6c0-5.4-3.3-10.1-8.2-12.6c4.9-2.6,8.2-7.3,8.2-12.6c0-4.8-2.6-9-6.6-11.7
				c4-2.7,6.6-6.9,6.6-11.7c0-5.3-3.2-9.9-8-12.5c4.8-2.6,8-7.2,8-12.5c0-4.9-2.7-9.2-6.8-11.8c4.1-2.7,6.8-7,6.8-11.8
				c0-5.2-3.1-9.8-7.7-12.4c4.6-2.6,7.7-7.2,7.7-12.4c0-4.9-2.8-9.3-7-12c4.3-2.7,7-7,7-12c0-5.1-3-9.6-7.5-12.3
				c4.5-2.6,7.5-7.1,7.5-12.3c0-5-2.9-9.4-7.2-12.1c4.4-2.7,7.2-7.1,7.2-12.1c0-5-2.9-9.5-7.3-12.1c4.4-2.7,7.3-7.1,7.3-12.1
				c0-5-2.9-9.4-7.2-12.1c4.4-2.7,7.2-7.1,7.2-12.1c0-5.5-3.4-10.3-8.5-12.8c5.1-2.5,8.5-7.3,8.5-12.8c0-5.6-3.6-10.4-8.8-12.9
				C56.2-17.6,59.8-22.4,59.8-28z"/>
			<path class="st1" d="M107.3,32.7c0-5.4-3.4-10.2-8.4-12.7c5-2.6,8.4-7.3,8.4-12.7c0-8.1-7.5-14.7-16.8-14.7S73.6-0.9,73.6,7.2
				c0,5.4,3.4,10.2,8.4,12.7c-5,2.6-8.4,7.3-8.4,12.7c0,5.6,3.6,10.4,8.8,12.9c-5.2,2.5-8.8,7.4-8.8,12.9c0,5.5,3.4,10.3,8.5,12.8
				c-5.1,2.5-8.5,7.3-8.5,12.8c0,5,2.9,9.4,7.2,12.1c-4.4,2.7-7.2,7.1-7.2,12.1c0,5,2.9,9.5,7.3,12.1c-4.4,2.7-7.3,7.1-7.3,12.1
				c0,5,2.9,9.4,7.2,12.1c-4.4,2.7-7.2,7.1-7.2,12.1c0,5.1,3,9.6,7.5,12.3c-4.5,2.6-7.5,7.1-7.5,12.3c0,4.9,2.8,9.3,7,12
				c-4.3,2.7-7,7-7,12c0,5.2,3.1,9.8,7.7,12.4c-4.6,2.6-7.7,7.2-7.7,12.4c0,4.9,2.7,9.1,6.8,11.8c-4.1,2.7-6.8,7-6.8,11.8
				c0,5.3,3.2,9.9,8,12.5c-4.8,2.6-8,7.2-8,12.5c0,4.8,2.6,9,6.6,11.7c-4,2.7-6.6,6.9-6.6,11.7c0,5.4,3.3,10.1,8.2,12.6
				c-4.9,2.6-8.2,7.3-8.2,12.6c0,4.7,2.5,8.9,6.4,11.6c-3.9,2.7-6.4,6.9-6.4,11.6c0,5.5,3.4,10.2,8.5,12.8
				c-5.1,2.5-8.5,7.3-8.5,12.8c0,8.1,7.5,14.7,16.8,14.7s16.8-6.6,16.8-14.7c0-5.5-3.4-10.2-8.5-12.8c5.1-2.5,8.5-7.3,8.5-12.8
				c0-4.7-2.5-8.9-6.4-11.6c3.9-2.7,6.4-6.9,6.4-11.6c0-5.4-3.3-10.1-8.2-12.6c4.9-2.6,8.2-7.3,8.2-12.6c0-4.8-2.6-9-6.6-11.7
				c4-2.7,6.6-6.9,6.6-11.7c0-5.3-3.2-9.9-8-12.5c4.8-2.6,8-7.2,8-12.5c0-4.9-2.7-9.2-6.8-11.8c4.1-2.7,6.8-7,6.8-11.8
				c0-5.2-3.1-9.8-7.7-12.4c4.6-2.6,7.7-7.2,7.7-12.4c0-4.9-2.8-9.3-7-12c4.3-2.7,7-7,7-12c0-5.1-3-9.6-7.5-12.3
				c4.5-2.6,7.5-7.1,7.5-12.3c0-5-2.9-9.4-7.2-12.1c4.4-2.7,7.2-7.1,7.2-12.1c0-5-2.9-9.5-7.3-12.1c4.4-2.7,7.3-7.1,7.3-12.1
				c0-5-2.9-9.4-7.2-12.1c4.4-2.7,7.2-7.1,7.2-12.1c0-5.5-3.4-10.3-8.5-12.8c5.1-2.5,8.5-7.3,8.5-12.8c0-5.6-3.6-10.4-8.8-12.9
				C103.7,43.2,107.3,38.3,107.3,32.7z"/>
			<path class="st1" d="M160-28c0-5.4-3.4-10.2-8.4-12.7c5-2.6,8.4-7.3,8.4-12.7c0-8.1-7.5-14.7-16.8-14.7s-16.8,6.6-16.8,14.7
				c0,5.4,3.4,10.2,8.4,12.7c-5,2.6-8.4,7.3-8.4,12.7c0,5.6,3.6,10.4,8.8,12.9c-5.2,2.5-8.8,7.4-8.8,12.9c0,5.5,3.4,10.3,8.5,12.8
				c-5.1,2.5-8.5,7.3-8.5,12.8c0,5,2.9,9.4,7.2,12.1c-4.4,2.7-7.2,7.1-7.2,12.1c0,5,2.9,9.5,7.3,12.1c-4.4,2.7-7.3,7.1-7.3,12.1
				c0,5,2.9,9.4,7.2,12.1c-4.4,2.7-7.2,7.1-7.2,12.1c0,5.1,3,9.6,7.5,12.3c-4.5,2.6-7.5,7.1-7.5,12.3c0,4.9,2.8,9.3,7,12
				c-4.3,2.7-7,7-7,12c0,5.2,3.1,9.8,7.7,12.4c-4.6,2.6-7.7,7.2-7.7,12.4c0,4.9,2.7,9.1,6.8,11.8c-4.1,2.7-6.8,7-6.8,11.8
				c0,5.3,3.2,9.9,8,12.5c-4.8,2.6-8,7.2-8,12.5c0,4.8,2.6,9,6.6,11.7c-4,2.7-6.6,6.9-6.6,11.7c0,5.4,3.3,10.1,8.2,12.6
				c-4.9,2.6-8.2,7.3-8.2,12.6c0,4.7,2.5,8.9,6.4,11.6c-3.9,2.7-6.4,6.9-6.4,11.6c0,5.5,3.4,10.2,8.5,12.8
				c-5.1,2.5-8.5,7.3-8.5,12.8c0,8.1,7.5,14.7,16.8,14.7s16.8-6.6,16.8-14.7c0-5.5-3.4-10.2-8.5-12.8c5.1-2.5,8.5-7.3,8.5-12.8
				c0-4.7-2.5-8.9-6.4-11.6c3.9-2.7,6.4-6.9,6.4-11.6c0-5.4-3.3-10.1-8.2-12.6c4.9-2.6,8.2-7.3,8.2-12.6c0-4.8-2.6-9-6.6-11.7
				c4-2.7,6.6-6.9,6.6-11.7c0-5.3-3.2-9.9-8-12.5c4.8-2.6,8-7.2,8-12.5c0-4.9-2.7-9.2-6.8-11.8c4.1-2.7,6.8-7,6.8-11.8
				c0-5.2-3.1-9.8-7.7-12.4c4.6-2.6,7.7-7.2,7.7-12.4c0-4.9-2.8-9.3-7-12c4.3-2.7,7-7,7-12c0-5.1-3-9.6-7.5-12.3
				c4.5-2.6,7.5-7.1,7.5-12.3c0-5-2.9-9.4-7.2-12.1c4.4-2.7,7.2-7.1,7.2-12.1c0-5-2.9-9.5-7.3-12.1c4.4-2.7,7.3-7.1,7.3-12.1
				c0-5-2.9-9.4-7.2-12.1c4.4-2.7,7.2-7.1,7.2-12.1c0-5.5-3.4-10.3-8.5-12.8c5.1-2.5,8.5-7.3,8.5-12.8c0-5.6-3.6-10.4-8.8-12.9
				C156.4-17.6,160-22.4,160-28z"/>
			<path class="st1" d="M251.9,50.9c0-5.4-3.4-10.2-8.4-12.7c5-2.6,8.4-7.3,8.4-12.7c0-8.1-7.5-14.7-16.8-14.7s-16.8,6.6-16.8,14.7
				c0,5.4,3.4,10.2,8.4,12.7c-5,2.6-8.4,7.3-8.4,12.7c0,5.6,3.6,10.4,8.8,12.9c-5.2,2.5-8.8,7.4-8.8,12.9c0,5.5,3.4,10.3,8.5,12.8
				c-5.1,2.5-8.5,7.3-8.5,12.8c0,5,2.9,9.4,7.2,12.1c-4.4,2.7-7.2,7.1-7.2,12.1c0,5,2.9,9.5,7.3,12.1c-4.4,2.7-7.3,7.1-7.3,12.1
				c0,5,2.9,9.4,7.2,12.1c-4.4,2.7-7.2,7.1-7.2,12.1c0,5.1,3,9.6,7.5,12.3c-4.5,2.6-7.5,7.1-7.5,12.3c0,4.9,2.8,9.3,7,12
				c-4.3,2.7-7,7-7,12c0,5.2,3.1,9.8,7.7,12.4c-4.6,2.6-7.7,7.2-7.7,12.4c0,4.9,2.7,9.1,6.8,11.8c-4.1,2.7-6.8,7-6.8,11.8
				c0,5.3,3.2,9.9,8,12.5c-4.8,2.6-8,7.2-8,12.5c0,4.8,2.6,9,6.6,11.7c-4,2.7-6.6,6.9-6.6,11.7c0,5.4,3.3,10.1,8.2,12.6
				c-4.9,2.6-8.2,7.3-8.2,12.6c0,4.7,2.5,8.9,6.4,11.6c-3.9,2.7-6.4,6.9-6.4,11.6c0,5.5,3.4,10.2,8.5,12.8
				c-5.1,2.5-8.5,7.3-8.5,12.8c0,8.1,7.5,14.7,16.8,14.7s16.8-6.6,16.8-14.7c0-5.5-3.4-10.2-8.5-12.8c5.1-2.5,8.5-7.3,8.5-12.8
				c0-4.7-2.5-8.9-6.4-11.6c3.9-2.7,6.4-6.9,6.4-11.6c0-5.4-3.3-10.1-8.2-12.6c4.9-2.6,8.2-7.3,8.2-12.6c0-4.8-2.6-9-6.6-11.7
				c4-2.7,6.6-6.9,6.6-11.7c0-5.3-3.2-9.9-8-12.5c4.8-2.6,8-7.2,8-12.5c0-4.9-2.7-9.2-6.8-11.8c4.1-2.7,6.8-7,6.8-11.8
				c0-5.2-3.1-9.8-7.7-12.4c4.6-2.6,7.7-7.2,7.7-12.4c0-4.9-2.8-9.3-7-12c4.3-2.7,7-7,7-12c0-5.1-3-9.6-7.5-12.3
				c4.5-2.6,7.5-7.1,7.5-12.3c0-5-2.9-9.4-7.2-12.1c4.4-2.7,7.2-7.1,7.2-12.1c0-5-2.9-9.5-7.3-12.1c4.4-2.7,7.3-7.1,7.3-12.1
				c0-5-2.9-9.4-7.2-12.1c4.4-2.7,7.2-7.1,7.2-12.1c0-5.5-3.4-10.3-8.5-12.8c5.1-2.5,8.5-7.3,8.5-12.8c0-5.6-3.6-10.4-8.8-12.9
				C248.4,61.4,251.9,56.5,251.9,50.9z"/>
			<path class="st1" d="M206-18.2c0-5.4-3.4-10.2-8.4-12.7c5-2.6,8.4-7.3,8.4-12.7c0-8.1-7.5-14.7-16.8-14.7s-16.8,6.6-16.8,14.7
				c0,5.4,3.4,10.2,8.4,12.7c-5,2.6-8.4,7.3-8.4,12.7c0,5.6,3.6,10.4,8.8,12.9c-5.2,2.5-8.8,7.4-8.8,12.9c0,5.5,3.4,10.3,8.5,12.8
				c-5.1,2.5-8.5,7.3-8.5,12.8c0,5,2.9,9.4,7.2,12.1c-4.4,2.7-7.2,7.1-7.2,12.1c0,5,2.9,9.5,7.3,12.1c-4.4,2.7-7.3,7.1-7.3,12.1
				c0,5,2.9,9.4,7.2,12.1c-4.4,2.7-7.2,7.1-7.2,12.1c0,5.1,3,9.6,7.5,12.3c-4.5,2.6-7.5,7.1-7.5,12.3c0,4.9,2.8,9.3,7,12
				c-4.3,2.7-7,7-7,12c0,5.2,3.1,9.8,7.7,12.4c-4.6,2.6-7.7,7.2-7.7,12.4c0,4.9,2.7,9.1,6.8,11.8c-4.1,2.7-6.8,7-6.8,11.8
				c0,5.3,3.2,9.9,8,12.5c-4.8,2.6-8,7.2-8,12.5c0,4.8,2.6,9,6.6,11.7c-4,2.7-6.6,6.9-6.6,11.7c0,5.4,3.3,10.1,8.2,12.6
				c-4.9,2.6-8.2,7.3-8.2,12.6c0,4.7,2.5,8.9,6.4,11.6c-3.9,2.7-6.4,6.9-6.4,11.6c0,5.5,3.4,10.2,8.5,12.8
				c-5.1,2.5-8.5,7.3-8.5,12.8c0,8.1,7.5,14.7,16.8,14.7s16.8-6.6,16.8-14.7c0-5.5-3.4-10.2-8.5-12.8c5.1-2.5,8.5-7.3,8.5-12.8
				c0-4.7-2.5-8.9-6.4-11.6c3.9-2.7,6.4-6.9,6.4-11.6c0-5.4-3.3-10.1-8.2-12.6c4.9-2.6,8.2-7.3,8.2-12.6c0-4.8-2.6-9-6.6-11.7
				c4-2.7,6.6-6.9,6.6-11.7c0-5.3-3.2-9.9-8-12.5c4.8-2.6,8-7.2,8-12.5c0-4.9-2.7-9.2-6.8-11.8c4.1-2.7,6.8-7,6.8-11.8
				c0-5.2-3.1-9.8-7.7-12.4c4.6-2.6,7.7-7.2,7.7-12.4c0-4.9-2.8-9.3-7-12c4.3-2.7,7-7,7-12c0-5.1-3-9.6-7.5-12.3
				c4.5-2.6,7.5-7.1,7.5-12.3c0-5-2.9-9.4-7.2-12.1c4.4-2.7,7.2-7.1,7.2-12.1c0-5-2.9-9.5-7.3-12.1c4.4-2.7,7.3-7.1,7.3-12.1
				c0-5-2.9-9.4-7.2-12.1c4.4-2.7,7.2-7.1,7.2-12.1c0-5.5-3.4-10.3-8.5-12.8c5.1-2.5,8.5-7.3,8.5-12.8c0-5.6-3.6-10.4-8.8-12.9
				C202.4-7.8,206-12.6,206-18.2z"/>
			<path class="st1" d="M304.6,58.6c0-5.4-3.4-10.2-8.4-12.7c5-2.6,8.4-7.3,8.4-12.7c0-8.1-7.5-14.7-16.8-14.7s-16.8,6.6-16.8,14.7
				c0,5.4,3.4,10.2,8.4,12.7c-5,2.6-8.4,7.3-8.4,12.7c0,5.6,3.6,10.4,8.8,12.9c-5.2,2.5-8.8,7.4-8.8,12.9c0,5.5,3.4,10.3,8.5,12.8
				c-5.1,2.5-8.5,7.3-8.5,12.8c0,5,2.9,9.4,7.2,12.1c-4.4,2.7-7.2,7.1-7.2,12.1c0,5,2.9,9.5,7.3,12.1c-4.4,2.7-7.3,7.1-7.3,12.1
				c0,5,2.9,9.4,7.2,12.1c-4.4,2.7-7.2,7.1-7.2,12.1c0,5.1,3,9.6,7.5,12.3c-4.5,2.6-7.5,7.1-7.5,12.3c0,4.9,2.8,9.3,7,12
				c-4.3,2.7-7,7-7,12c0,5.2,3.1,9.8,7.7,12.4c-4.6,2.6-7.7,7.2-7.7,12.4c0,4.9,2.7,9.1,6.8,11.8c-4.1,2.7-6.8,7-6.8,11.8
				c0,5.3,3.2,9.9,8,12.5c-4.8,2.6-8,7.2-8,12.5c0,4.8,2.6,9,6.6,11.7c-4,2.7-6.6,6.9-6.6,11.7c0,5.4,3.3,10.1,8.2,12.6
				c-4.9,2.6-8.2,7.3-8.2,12.6c0,4.7,2.5,8.9,6.4,11.6c-3.9,2.7-6.4,6.9-6.4,11.6c0,5.5,3.4,10.2,8.5,12.8
				c-5.1,2.5-8.5,7.3-8.5,12.8c0,8.1,7.5,14.7,16.8,14.7s16.8-6.6,16.8-14.7c0-5.5-3.4-10.2-8.5-12.8c5.1-2.5,8.5-7.3,8.5-12.8
				c0-4.7-2.5-8.9-6.4-11.6c3.9-2.7,6.4-6.9,6.4-11.6c0-5.4-3.3-10.1-8.2-12.6c4.9-2.6,8.2-7.3,8.2-12.6c0-4.8-2.6-9-6.6-11.7
				c4-2.7,6.6-6.9,6.6-11.7c0-5.3-3.2-9.9-8-12.5c4.8-2.6,8-7.2,8-12.5c0-4.9-2.7-9.2-6.8-11.8c4.1-2.7,6.8-7,6.8-11.8
				c0-5.2-3.1-9.8-7.7-12.4c4.6-2.6,7.7-7.2,7.7-12.4c0-4.9-2.8-9.3-7-12c4.3-2.7,7-7,7-12c0-5.1-3-9.6-7.5-12.3
				c4.5-2.6,7.5-7.1,7.5-12.3c0-5-2.9-9.4-7.2-12.1c4.4-2.7,7.2-7.1,7.2-12.1c0-5-2.9-9.5-7.3-12.1c4.4-2.7,7.3-7.1,7.3-12.1
				c0-5-2.9-9.4-7.2-12.1c4.4-2.7,7.2-7.1,7.2-12.1c0-5.5-3.4-10.3-8.5-12.8c5.1-2.5,8.5-7.3,8.5-12.8c0-5.6-3.6-10.4-8.8-12.9
				C301.1,69,304.6,64.1,304.6,58.6z"/>
			<ellipse class="st2" cx="287.8" cy="134.2" rx="16.8" ry="14.7"/>
			<ellipse class="st3" cx="235.1" cy="25.5" rx="16.8" ry="14.7"/>
			<ellipse class="st3" cx="235.1" cy="248.1" rx="16.8" ry="14.7"/>
			<ellipse class="st4" cx="235.1" cy="272" rx="16.8" ry="14.7"/>
			<ellipse class="st4" cx="189.1" cy="106" rx="16.8" ry="14.7"/>
			<ellipse class="st4" cx="143.2" cy="23.6" rx="16.8" ry="14.7"/>
			<ellipse class="st3" cx="143.2" cy="193.1" rx="16.8" ry="14.7"/>
			<ellipse class="st4" cx="143.2" cy="315.4" rx="16.8" ry="14.7"/>
			<ellipse class="st3" cx="143.2" cy="47.6" rx="16.8" ry="14.7"/>
			<ellipse class="st4" cx="143.2" cy="71.9" rx="16.8" ry="14.7"/>
			<ellipse class="st2" cx="143.2" cy="95.9" rx="16.8" ry="14.7"/>
			<ellipse class="st4" cx="90.4" cy="84.3" rx="16.8" ry="14.7"/>
		</g>
		<g>
			<path class="st5" d="M160,313.2c-40.9,0-79.4-15.9-108.3-44.9C22.8,239.4,6.8,200.9,6.8,160S22.8,80.6,51.7,51.7
				C80.6,22.8,119.1,6.8,160,6.8s79.4,15.9,108.3,44.9c28.9,28.9,44.9,67.4,44.9,108.3s-15.9,79.4-44.9,108.3
				C239.4,297.2,200.9,313.2,160,313.2z M160,17C81.2,17,17,81.2,17,160s64.1,143,143,143s143-64.1,143-143S238.8,17,160,17z"/>
		</g>
	</g>
</g>
<g id="Layer_3" class="st6">
	<g class="st7">
		<g>
			<defs>
				<circle id="SVGID_3_" cx="160.2" cy="159.6" r="148.1"/>
			</defs>
			<clipPath id="SVGID_4_">
				<use xlink:href="#SVGID_3_"  style="overflow:visible;"/>
			</clipPath>
			<circle class="st8" cx="160.2" cy="159.6" r="148.1"/>
			<path class="st9" d="M26,13.4C26,8,22.6,3.2,17.6,0.7c5-2.6,8.4-7.3,8.4-12.7c0-8.1-7.5-14.7-16.8-14.7S-7.7-20.2-7.7-12.1
				c0,5.4,3.4,10.2,8.4,12.7c-5,2.6-8.4,7.3-8.4,12.7c0,5.6,3.6,10.4,8.8,12.9c-5.2,2.5-8.8,7.4-8.8,12.9c0,5.5,3.4,10.3,8.5,12.8
				c-5.1,2.5-8.5,7.3-8.5,12.8c0,5,2.9,9.4,7.2,12.1c-4.4,2.7-7.2,7.1-7.2,12.1c0,5,2.9,9.5,7.3,12.1c-4.4,2.7-7.3,7.1-7.3,12.1
				c0,5,2.9,9.4,7.2,12.1c-4.4,2.7-7.2,7.1-7.2,12.1c0,5.1,3,9.6,7.5,12.3c-4.5,2.6-7.5,7.1-7.5,12.3c0,4.9,2.8,9.3,7,12
				c-4.3,2.7-7,7-7,12c0,5.2,3.1,9.8,7.7,12.4c-4.6,2.6-7.7,7.2-7.7,12.4c0,4.9,2.7,9.1,6.8,11.8c-4.1,2.7-6.8,7-6.8,11.8
				c0,5.3,3.2,9.9,8,12.5c-4.8,2.6-8,7.2-8,12.5c0,4.8,2.6,9,6.6,11.7c-4,2.7-6.6,6.9-6.6,11.7c0,5.4,3.3,10.1,8.2,12.6
				c-4.9,2.6-8.2,7.3-8.2,12.6c0,4.7,2.5,8.9,6.4,11.6c-3.9,2.7-6.4,6.9-6.4,11.6c0,5.5,3.4,10.2,8.5,12.8
				c-5.1,2.5-8.5,7.3-8.5,12.8c0,8.1,7.5,14.7,16.8,14.7S26,365,26,356.8c0-5.5-3.4-10.2-8.5-12.8c5.1-2.5,8.5-7.3,8.5-12.8
				c0-4.7-2.5-8.9-6.4-11.6c3.9-2.7,6.4-6.9,6.4-11.6c0-5.4-3.3-10.1-8.2-12.6c4.9-2.6,8.2-7.3,8.2-12.6c0-4.8-2.6-9-6.6-11.7
				c4-2.7,6.6-6.9,6.6-11.7c0-5.3-3.2-9.9-8-12.5c4.8-2.6,8-7.2,8-12.5c0-4.9-2.7-9.2-6.8-11.8c4.1-2.7,6.8-7,6.8-11.8
				c0-5.2-3.1-9.8-7.7-12.4c4.6-2.6,7.7-7.2,7.7-12.4c0-4.9-2.8-9.3-7-12c4.3-2.7,7-7,7-12c0-5.1-3-9.6-7.5-12.3
				c4.5-2.6,7.5-7.1,7.5-12.3c0-5-2.9-9.4-7.2-12.1c4.4-2.7,7.2-7.1,7.2-12.1c0-5-2.9-9.5-7.3-12.1c4.4-2.7,7.3-7.1,7.3-12.1
				c0-5-2.9-9.4-7.2-12.1c4.4-2.7,7.2-7.1,7.2-12.1c0-5.5-3.4-10.3-8.5-12.8c5.1-2.5,8.5-7.3,8.5-12.8c0-5.6-3.6-10.4-8.8-12.9
				C22.5,23.8,26,19,26,13.4z"/>
			<path class="st9" d="M83.4-22.7c0-5.4-3.4-10.2-8.4-12.7c5-2.6,8.4-7.3,8.4-12.7c0-8.1-7.5-14.7-16.8-14.7s-16.8,6.6-16.8,14.7
				c0,5.4,3.4,10.2,8.4,12.7c-5,2.6-8.4,7.3-8.4,12.7c0,5.6,3.6,10.4,8.8,12.9c-5.2,2.5-8.8,7.4-8.8,12.9c0,5.5,3.4,10.3,8.5,12.8
				c-5.1,2.5-8.5,7.3-8.5,12.8c0,5,2.9,9.4,7.2,12.1c-4.4,2.7-7.2,7.1-7.2,12.1c0,5,2.9,9.5,7.3,12.1c-4.4,2.7-7.3,7.1-7.3,12.1
				c0,5,2.9,9.4,7.2,12.1c-4.4,2.7-7.2,7.1-7.2,12.1c0,5.1,3,9.6,7.5,12.3c-4.5,2.6-7.5,7.1-7.5,12.3c0,4.9,2.8,9.3,7,12
				c-4.3,2.7-7,7-7,12c0,5.2,3.1,9.8,7.7,12.4c-4.6,2.6-7.7,7.2-7.7,12.4c0,4.9,2.7,9.1,6.8,11.8c-4.1,2.7-6.8,7-6.8,11.8
				c0,5.3,3.2,9.9,8,12.5c-4.8,2.6-8,7.2-8,12.5c0,4.8,2.6,9,6.6,11.7c-4,2.7-6.6,6.9-6.6,11.7c0,5.4,3.3,10.1,8.2,12.6
				c-4.9,2.6-8.2,7.3-8.2,12.6c0,4.7,2.5,8.9,6.4,11.6c-3.9,2.7-6.4,6.9-6.4,11.6c0,5.5,3.4,10.2,8.5,12.8
				c-5.1,2.5-8.5,7.3-8.5,12.8c0,8.1,7.5,14.7,16.8,14.7s16.8-6.6,16.8-14.7c0-5.5-3.4-10.2-8.5-12.8c5.1-2.5,8.5-7.3,8.5-12.8
				c0-4.7-2.5-8.9-6.4-11.6c3.9-2.7,6.4-6.9,6.4-11.6c0-5.4-3.3-10.1-8.2-12.6c4.9-2.6,8.2-7.3,8.2-12.6c0-4.8-2.6-9-6.6-11.7
				c4-2.7,6.6-6.9,6.6-11.7c0-5.3-3.2-9.9-8-12.5c4.8-2.6,8-7.2,8-12.5c0-4.9-2.7-9.2-6.8-11.8c4.1-2.7,6.8-7,6.8-11.8
				c0-5.2-3.1-9.8-7.7-12.4c4.6-2.6,7.7-7.2,7.7-12.4c0-4.9-2.8-9.3-7-12c4.3-2.7,7-7,7-12c0-5.1-3-9.6-7.5-12.3
				c4.5-2.6,7.5-7.1,7.5-12.3c0-5-2.9-9.4-7.2-12.1c4.4-2.7,7.2-7.1,7.2-12.1c0-5-2.9-9.5-7.3-12.1c4.4-2.7,7.3-7.1,7.3-12.1
				c0-5-2.9-9.4-7.2-12.1c4.4-2.7,7.2-7.1,7.2-12.1c0-5.5-3.4-10.3-8.5-12.8c5.1-2.5,8.5-7.3,8.5-12.8c0-5.6-3.6-10.4-8.8-12.9
				C79.8-12.2,83.4-17.1,83.4-22.7z"/>
			<path class="st9" d="M130.9,38.1c0-5.4-3.4-10.2-8.4-12.7c5-2.6,8.4-7.3,8.4-12.7c0-8.1-7.5-14.7-16.8-14.7S97.2,4.4,97.2,12.6
				c0,5.4,3.4,10.2,8.4,12.7c-5,2.6-8.4,7.3-8.4,12.7c0,5.6,3.6,10.4,8.8,12.9c-5.2,2.5-8.8,7.4-8.8,12.9c0,5.5,3.4,10.3,8.5,12.8
				c-5.1,2.5-8.5,7.3-8.5,12.8c0,5,2.9,9.4,7.2,12.1c-4.4,2.7-7.2,7.1-7.2,12.1c0,5,2.9,9.5,7.3,12.1c-4.4,2.7-7.3,7.1-7.3,12.1
				c0,5,2.9,9.4,7.2,12.1c-4.4,2.7-7.2,7.1-7.2,12.1c0,5.1,3,9.6,7.5,12.3c-4.5,2.6-7.5,7.1-7.5,12.3c0,4.9,2.8,9.3,7,12
				c-4.3,2.7-7,7-7,12c0,5.2,3.1,9.8,7.7,12.4c-4.6,2.6-7.7,7.2-7.7,12.4c0,4.9,2.7,9.1,6.8,11.8c-4.1,2.7-6.8,7-6.8,11.8
				c0,5.3,3.2,9.9,8,12.5c-4.8,2.6-8,7.2-8,12.5c0,4.8,2.6,9,6.6,11.7c-4,2.7-6.6,6.9-6.6,11.7c0,5.4,3.3,10.1,8.2,12.6
				c-4.9,2.6-8.2,7.3-8.2,12.6c0,4.7,2.5,8.9,6.4,11.6c-3.9,2.7-6.4,6.9-6.4,11.6c0,5.5,3.4,10.2,8.5,12.8
				c-5.1,2.5-8.5,7.3-8.5,12.8c0,8.1,7.5,14.7,16.8,14.7s16.8-6.6,16.8-14.7c0-5.5-3.4-10.2-8.5-12.8c5.1-2.5,8.5-7.3,8.5-12.8
				c0-4.7-2.5-8.9-6.4-11.6c3.9-2.7,6.4-6.9,6.4-11.6c0-5.4-3.3-10.1-8.2-12.6c4.9-2.6,8.2-7.3,8.2-12.6c0-4.8-2.6-9-6.6-11.7
				c4-2.7,6.6-6.9,6.6-11.7c0-5.3-3.2-9.9-8-12.5c4.8-2.6,8-7.2,8-12.5c0-4.9-2.7-9.2-6.8-11.8c4.1-2.7,6.8-7,6.8-11.8
				c0-5.2-3.1-9.8-7.7-12.4c4.6-2.6,7.7-7.2,7.7-12.4c0-4.9-2.8-9.3-7-12c4.3-2.7,7-7,7-12c0-5.1-3-9.6-7.5-12.3
				c4.5-2.6,7.5-7.1,7.5-12.3c0-5-2.9-9.4-7.2-12.1c4.4-2.7,7.2-7.1,7.2-12.1c0-5-2.9-9.5-7.3-12.1c4.4-2.7,7.3-7.1,7.3-12.1
				c0-5-2.9-9.4-7.2-12.1c4.4-2.7,7.2-7.1,7.2-12.1c0-5.5-3.4-10.3-8.5-12.8c5.1-2.5,8.5-7.3,8.5-12.8c0-5.6-3.6-10.4-8.8-12.9
				C127.3,48.5,130.9,43.7,130.9,38.1z"/>
			<path class="st9" d="M183.6-22.7c0-5.4-3.4-10.2-8.4-12.7c5-2.6,8.4-7.3,8.4-12.7c0-8.1-7.5-14.7-16.8-14.7s-16.8,6.6-16.8,14.7
				c0,5.4,3.4,10.2,8.4,12.7c-5,2.6-8.4,7.3-8.4,12.7c0,5.6,3.6,10.4,8.8,12.9c-5.2,2.5-8.8,7.4-8.8,12.9c0,5.5,3.4,10.3,8.5,12.8
				c-5.1,2.5-8.5,7.3-8.5,12.8c0,5,2.9,9.4,7.2,12.1c-4.4,2.7-7.2,7.1-7.2,12.1c0,5,2.9,9.5,7.3,12.1c-4.4,2.7-7.3,7.1-7.3,12.1
				c0,5,2.9,9.4,7.2,12.1c-4.4,2.7-7.2,7.1-7.2,12.1c0,5.1,3,9.6,7.5,12.3c-4.5,2.6-7.5,7.1-7.5,12.3c0,4.9,2.8,9.3,7,12
				c-4.3,2.7-7,7-7,12c0,5.2,3.1,9.8,7.7,12.4c-4.6,2.6-7.7,7.2-7.7,12.4c0,4.9,2.7,9.1,6.8,11.8c-4.1,2.7-6.8,7-6.8,11.8
				c0,5.3,3.2,9.9,8,12.5c-4.8,2.6-8,7.2-8,12.5c0,4.8,2.6,9,6.6,11.7c-4,2.7-6.6,6.9-6.6,11.7c0,5.4,3.3,10.1,8.2,12.6
				c-4.9,2.6-8.2,7.3-8.2,12.6c0,4.7,2.5,8.9,6.4,11.6c-3.9,2.7-6.4,6.9-6.4,11.6c0,5.5,3.4,10.2,8.5,12.8
				c-5.1,2.5-8.5,7.3-8.5,12.8c0,8.1,7.5,14.7,16.8,14.7s16.8-6.6,16.8-14.7c0-5.5-3.4-10.2-8.5-12.8c5.1-2.5,8.5-7.3,8.5-12.8
				c0-4.7-2.5-8.9-6.4-11.6c3.9-2.7,6.4-6.9,6.4-11.6c0-5.4-3.3-10.1-8.2-12.6c4.9-2.6,8.2-7.3,8.2-12.6c0-4.8-2.6-9-6.6-11.7
				c4-2.7,6.6-6.9,6.6-11.7c0-5.3-3.2-9.9-8-12.5c4.8-2.6,8-7.2,8-12.5c0-4.9-2.7-9.2-6.8-11.8c4.1-2.7,6.8-7,6.8-11.8
				c0-5.2-3.1-9.8-7.7-12.4c4.6-2.6,7.7-7.2,7.7-12.4c0-4.9-2.8-9.3-7-12c4.3-2.7,7-7,7-12c0-5.1-3-9.6-7.5-12.3
				c4.5-2.6,7.5-7.1,7.5-12.3c0-5-2.9-9.4-7.2-12.1c4.4-2.7,7.2-7.1,7.2-12.1c0-5-2.9-9.5-7.3-12.1c4.4-2.7,7.3-7.1,7.3-12.1
				c0-5-2.9-9.4-7.2-12.1c4.4-2.7,7.2-7.1,7.2-12.1c0-5.5-3.4-10.3-8.5-12.8c5.1-2.5,8.5-7.3,8.5-12.8c0-5.6-3.6-10.4-8.8-12.9
				C180-12.2,183.6-17.1,183.6-22.7z"/>
			<path class="st9" d="M275.5,56.3c0-5.4-3.4-10.2-8.4-12.7c5-2.6,8.4-7.3,8.4-12.7c0-8.1-7.5-14.7-16.8-14.7s-16.8,6.6-16.8,14.7
				c0,5.4,3.4,10.2,8.4,12.7c-5,2.6-8.4,7.3-8.4,12.7c0,5.6,3.6,10.4,8.8,12.9c-5.2,2.5-8.8,7.4-8.8,12.9c0,5.5,3.4,10.3,8.5,12.8
				c-5.1,2.5-8.5,7.3-8.5,12.8c0,5,2.9,9.4,7.2,12.1c-4.4,2.7-7.2,7.1-7.2,12.1c0,5,2.9,9.5,7.3,12.1c-4.4,2.7-7.3,7.1-7.3,12.1
				c0,5,2.9,9.4,7.2,12.1c-4.4,2.7-7.2,7.1-7.2,12.1c0,5.1,3,9.6,7.5,12.3c-4.5,2.6-7.5,7.1-7.5,12.3c0,4.9,2.8,9.3,7,12
				c-4.3,2.7-7,7-7,12c0,5.2,3.1,9.8,7.7,12.4c-4.6,2.6-7.7,7.2-7.7,12.4c0,4.9,2.7,9.1,6.8,11.8c-4.1,2.7-6.8,7-6.8,11.8
				c0,5.3,3.2,9.9,8,12.5c-4.8,2.6-8,7.2-8,12.5c0,4.8,2.6,9,6.6,11.7c-4,2.7-6.6,6.9-6.6,11.7c0,5.4,3.3,10.1,8.2,12.6
				c-4.9,2.6-8.2,7.3-8.2,12.6c0,4.7,2.5,8.9,6.4,11.6c-3.9,2.7-6.4,6.9-6.4,11.6c0,5.5,3.4,10.2,8.5,12.8
				c-5.1,2.5-8.5,7.3-8.5,12.8c0,8.1,7.5,14.7,16.8,14.7s16.8-6.6,16.8-14.7c0-5.5-3.4-10.2-8.5-12.8c5.1-2.5,8.5-7.3,8.5-12.8
				c0-4.7-2.5-8.9-6.4-11.6c3.9-2.7,6.4-6.9,6.4-11.6c0-5.4-3.3-10.1-8.2-12.6c4.9-2.6,8.2-7.3,8.2-12.6c0-4.8-2.6-9-6.6-11.7
				c4-2.7,6.6-6.9,6.6-11.7c0-5.3-3.2-9.9-8-12.5c4.8-2.6,8-7.2,8-12.5c0-4.9-2.7-9.2-6.8-11.8c4.1-2.7,6.8-7,6.8-11.8
				c0-5.2-3.1-9.8-7.7-12.4c4.6-2.6,7.7-7.2,7.7-12.4c0-4.9-2.8-9.3-7-12c4.3-2.7,7-7,7-12c0-5.1-3-9.6-7.5-12.3
				c4.5-2.6,7.5-7.1,7.5-12.3c0-5-2.9-9.4-7.2-12.1c4.4-2.7,7.2-7.1,7.2-12.1c0-5-2.9-9.5-7.3-12.1c4.4-2.7,7.3-7.1,7.3-12.1
				c0-5-2.9-9.4-7.2-12.1c4.4-2.7,7.2-7.1,7.2-12.1c0-5.5-3.4-10.3-8.5-12.8c5.1-2.5,8.5-7.3,8.5-12.8c0-5.6-3.6-10.4-8.8-12.9
				C271.9,66.7,275.5,61.9,275.5,56.3z"/>
			<path class="st9" d="M229.5-12.9c0-5.4-3.4-10.2-8.4-12.7c5-2.6,8.4-7.3,8.4-12.7c0-8.1-7.5-14.7-16.8-14.7s-16.8,6.6-16.8,14.7
				c0,5.4,3.4,10.2,8.4,12.7c-5,2.6-8.4,7.3-8.4,12.7c0,5.6,3.6,10.4,8.8,12.9c-5.2,2.5-8.8,7.4-8.8,12.9c0,5.5,3.4,10.3,8.5,12.8
				c-5.1,2.5-8.5,7.3-8.5,12.8c0,5,2.9,9.4,7.2,12.1c-4.4,2.7-7.2,7.1-7.2,12.1c0,5,2.9,9.5,7.3,12.1c-4.4,2.7-7.3,7.1-7.3,12.1
				c0,5,2.9,9.4,7.2,12.1c-4.4,2.7-7.2,7.1-7.2,12.1c0,5.1,3,9.6,7.5,12.3c-4.5,2.6-7.5,7.1-7.5,12.3c0,4.9,2.8,9.3,7,12
				c-4.3,2.7-7,7-7,12c0,5.2,3.1,9.8,7.7,12.4c-4.6,2.6-7.7,7.2-7.7,12.4c0,4.9,2.7,9.1,6.8,11.8c-4.1,2.7-6.8,7-6.8,11.8
				c0,5.3,3.2,9.9,8,12.5c-4.8,2.6-8,7.2-8,12.5c0,4.8,2.6,9,6.6,11.7c-4,2.7-6.6,6.9-6.6,11.7c0,5.4,3.3,10.1,8.2,12.6
				c-4.9,2.6-8.2,7.3-8.2,12.6c0,4.7,2.5,8.9,6.4,11.6c-3.9,2.7-6.4,6.9-6.4,11.6c0,5.5,3.4,10.2,8.5,12.8
				c-5.1,2.5-8.5,7.3-8.5,12.8c0,8.1,7.5,14.7,16.8,14.7s16.8-6.6,16.8-14.7c0-5.5-3.4-10.2-8.5-12.8c5.1-2.5,8.5-7.3,8.5-12.8
				c0-4.7-2.5-8.9-6.4-11.6c3.9-2.7,6.4-6.9,6.4-11.6c0-5.4-3.3-10.1-8.2-12.6c4.9-2.6,8.2-7.3,8.2-12.6c0-4.8-2.6-9-6.6-11.7
				c4-2.7,6.6-6.9,6.6-11.7c0-5.3-3.2-9.9-8-12.5c4.8-2.6,8-7.2,8-12.5c0-4.9-2.7-9.2-6.8-11.8c4.1-2.7,6.8-7,6.8-11.8
				c0-5.2-3.1-9.8-7.7-12.4c4.6-2.6,7.7-7.2,7.7-12.4c0-4.9-2.8-9.3-7-12c4.3-2.7,7-7,7-12c0-5.1-3-9.6-7.5-12.3
				c4.5-2.6,7.5-7.1,7.5-12.3c0-5-2.9-9.4-7.2-12.1c4.4-2.7,7.2-7.1,7.2-12.1c0-5-2.9-9.5-7.3-12.1c4.4-2.7,7.3-7.1,7.3-12.1
				c0-5-2.9-9.4-7.2-12.1c4.4-2.7,7.2-7.1,7.2-12.1c0-5.5-3.4-10.3-8.5-12.8c5.1-2.5,8.5-7.3,8.5-12.8c0-5.6-3.6-10.4-8.8-12.9
				C226-2.4,229.5-7.3,229.5-12.9z"/>
			<path class="st9" d="M328.2,63.9c0-5.4-3.4-10.2-8.4-12.7c5-2.6,8.4-7.3,8.4-12.7c0-8.1-7.5-14.7-16.8-14.7s-16.8,6.6-16.8,14.7
				c0,5.4,3.4,10.2,8.4,12.7c-5,2.6-8.4,7.3-8.4,12.7c0,5.6,3.6,10.4,8.8,12.9c-5.2,2.5-8.8,7.4-8.8,12.9c0,5.5,3.4,10.3,8.5,12.8
				c-5.1,2.5-8.5,7.3-8.5,12.8c0,5,2.9,9.4,7.2,12.1c-4.4,2.7-7.2,7.1-7.2,12.1c0,5,2.9,9.5,7.3,12.1c-4.4,2.7-7.3,7.1-7.3,12.1
				c0,5,2.9,9.4,7.2,12.1c-4.4,2.7-7.2,7.1-7.2,12.1c0,5.1,3,9.6,7.5,12.3c-4.5,2.6-7.5,7.1-7.5,12.3c0,4.9,2.8,9.3,7,12
				c-4.3,2.7-7,7-7,12c0,5.2,3.1,9.8,7.7,12.4c-4.6,2.6-7.7,7.2-7.7,12.4c0,4.9,2.7,9.1,6.8,11.8c-4.1,2.7-6.8,7-6.8,11.8
				c0,5.3,3.2,9.9,8,12.5c-4.8,2.6-8,7.2-8,12.5c0,4.8,2.6,9,6.6,11.7c-4,2.7-6.6,6.9-6.6,11.7c0,5.4,3.3,10.1,8.2,12.6
				c-4.9,2.6-8.2,7.3-8.2,12.6c0,4.7,2.5,8.9,6.4,11.6c-3.9,2.7-6.4,6.9-6.4,11.6c0,5.5,3.4,10.2,8.5,12.8
				c-5.1,2.5-8.5,7.3-8.5,12.8c0,8.1,7.5,14.7,16.8,14.7s16.8-6.6,16.8-14.7c0-5.5-3.4-10.2-8.5-12.8c5.1-2.5,8.5-7.3,8.5-12.8
				c0-4.7-2.5-8.9-6.4-11.6c3.9-2.7,6.4-6.9,6.4-11.6c0-5.4-3.3-10.1-8.2-12.6c4.9-2.6,8.2-7.3,8.2-12.6c0-4.8-2.6-9-6.6-11.7
				c4-2.7,6.6-6.9,6.6-11.7c0-5.3-3.2-9.9-8-12.5c4.8-2.6,8-7.2,8-12.5c0-4.9-2.7-9.2-6.8-11.8c4.1-2.7,6.8-7,6.8-11.8
				c0-5.2-3.1-9.8-7.7-12.4c4.6-2.6,7.7-7.2,7.7-12.4c0-4.9-2.8-9.3-7-12c4.3-2.7,7-7,7-12c0-5.1-3-9.6-7.5-12.3
				c4.5-2.6,7.5-7.1,7.5-12.3c0-5-2.9-9.4-7.2-12.1c4.4-2.7,7.2-7.1,7.2-12.1c0-5-2.9-9.5-7.3-12.1c4.4-2.7,7.3-7.1,7.3-12.1
				c0-5-2.9-9.4-7.2-12.1c4.4-2.7,7.2-7.1,7.2-12.1c0-5.5-3.4-10.3-8.5-12.8c5.1-2.5,8.5-7.3,8.5-12.8c0-5.6-3.6-10.4-8.8-12.9
				C324.6,74.3,328.2,69.5,328.2,63.9z"/>
			<ellipse class="st10" cx="9.2" cy="162" rx="16.8" ry="14.7"/>
			<ellipse class="st11" cx="66.5" cy="101.2" rx="16.8" ry="14.7"/>
			<ellipse class="st12" cx="114" cy="63.7" rx="16.8" ry="14.7"/>
			<ellipse class="st10" cx="66.5" cy="77.4" rx="16.8" ry="14.7"/>
			<ellipse class="st11" cx="114" cy="186.4" rx="16.8" ry="14.7"/>
			<ellipse class="st10" cx="166.7" cy="320.9" rx="16.8" ry="14.7"/>
			<ellipse class="st11" cx="212.7" cy="111.5" rx="16.8" ry="14.7"/>
			<ellipse class="st12" cx="212.7" cy="159.6" rx="16.8" ry="14.7"/>
			<ellipse class="st12" cx="212.7" cy="184.5" rx="16.8" ry="14.7"/>
			<ellipse class="st10" cx="212.7" cy="256.5" rx="16.8" ry="14.7"/>
			<ellipse class="st11" cx="258.7" cy="56.5" rx="16.8" ry="14.7"/>
			<ellipse class="st10" cx="212.7" cy="12.8" rx="16.8" ry="14.7"/>
			<ellipse class="st10" cx="212.7" cy="38.4" rx="16.8" ry="14.7"/>
			<ellipse class="st12" cx="311.4" cy="115.4" rx="16.8" ry="14.7"/>
			<ellipse class="st10" cx="311.4" cy="212.2" rx="16.8" ry="14.7"/>
		</g>
		<g>
			<path class="st5" d="M160.2,312.8c-40.9,0-79.4-15.9-108.3-44.9C23,239,7.1,200.5,7.1,159.6S23,80.2,51.9,51.3
				C80.9,22.3,119.3,6.4,160.2,6.4s79.4,15.9,108.3,44.9c28.9,28.9,44.9,67.4,44.9,108.3s-15.9,79.4-44.9,108.3
				C239.6,296.8,201.2,312.8,160.2,312.8z M160.2,16.6c-78.8,0-143,64.1-143,143s64.1,143,143,143s143-64.1,143-143
				S239.1,16.6,160.2,16.6z"/>
		</g>
	</g>
</g>
<g id="Layer_2" class="st6">
	<g class="st7">
		<g>
			<defs>
				<circle id="SVGID_5_" cx="160" cy="160" r="148.1"/>
			</defs>
			<clipPath id="SVGID_6_">
				<use xlink:href="#SVGID_5_"  style="overflow:visible;"/>
			</clipPath>
			<circle class="st13" cx="160" cy="160" r="148.1"/>
			<path class="st14" d="M69.3-30.7c0-5.4-3.4-10.2-8.4-12.7c5-2.6,8.4-7.3,8.4-12.7c0-8.1-7.5-14.7-16.8-14.7s-16.8,6.6-16.8,14.7
				c0,5.4,3.4,10.2,8.4,12.7c-5,2.6-8.4,7.3-8.4,12.7c0,5.6,3.6,10.4,8.8,12.9c-5.2,2.5-8.8,7.4-8.8,12.9C35.6,0.7,39,5.4,44.1,8
				c-5.1,2.5-8.5,7.3-8.5,12.8c0,5,2.9,9.4,7.2,12.1c-4.4,2.7-7.2,7.1-7.2,12.1c0,5,2.9,9.5,7.3,12.1c-4.4,2.7-7.3,7.1-7.3,12.1
				c0,5,2.9,9.4,7.2,12.1c-4.4,2.7-7.2,7.1-7.2,12.1c0,5.1,3,9.6,7.5,12.3c-4.5,2.6-7.5,7.1-7.5,12.3c0,4.9,2.8,9.3,7,12
				c-4.3,2.7-7,7-7,12c0,5.2,3.1,9.8,7.7,12.4c-4.6,2.6-7.7,7.2-7.7,12.4c0,4.9,2.7,9.1,6.8,11.8c-4.1,2.7-6.8,7-6.8,11.8
				c0,5.3,3.2,9.9,8,12.5c-4.8,2.6-8,7.2-8,12.5c0,4.8,2.6,9,6.6,11.7c-4,2.7-6.6,6.9-6.6,11.7c0,5.4,3.3,10.1,8.2,12.6
				c-4.9,2.6-8.2,7.3-8.2,12.6c0,4.7,2.5,8.9,6.4,11.6c-3.9,2.7-6.4,6.9-6.4,11.6c0,5.5,3.4,10.2,8.5,12.8
				c-5.1,2.5-8.5,7.3-8.5,12.8c0,8.1,7.5,14.7,16.8,14.7s16.8-6.6,16.8-14.7c0-5.5-3.4-10.2-8.5-12.8c5.1-2.5,8.5-7.3,8.5-12.8
				c0-4.7-2.5-8.9-6.4-11.6c3.9-2.7,6.4-6.9,6.4-11.6c0-5.4-3.3-10.1-8.2-12.6c4.9-2.6,8.2-7.3,8.2-12.6c0-4.8-2.6-9-6.6-11.7
				c4-2.7,6.6-6.9,6.6-11.7c0-5.3-3.2-9.9-8-12.5c4.8-2.6,8-7.2,8-12.5c0-4.9-2.7-9.2-6.8-11.8c4.1-2.7,6.8-7,6.8-11.8
				c0-5.2-3.1-9.8-7.7-12.4c4.6-2.6,7.7-7.2,7.7-12.4c0-4.9-2.8-9.3-7-12c4.3-2.7,7-7,7-12c0-5.1-3-9.6-7.5-12.3
				c4.5-2.6,7.5-7.1,7.5-12.3c0-5-2.9-9.4-7.2-12.1c4.4-2.7,7.2-7.1,7.2-12.1c0-5-2.9-9.5-7.3-12.1c4.4-2.7,7.3-7.1,7.3-12.1
				c0-5-2.9-9.4-7.2-12.1c4.4-2.7,7.2-7.1,7.2-12.1c0-5.5-3.4-10.3-8.5-12.8c5.1-2.5,8.5-7.3,8.5-12.8c0-5.6-3.6-10.4-8.8-12.9
				C65.7-20.3,69.3-25.1,69.3-30.7z"/>
			<path class="st14" d="M116.8,30c0-5.4-3.4-10.2-8.4-12.7c5-2.6,8.4-7.3,8.4-12.7c0-8.1-7.5-14.7-16.8-14.7S83.1-3.6,83.1,4.5
				c0,5.4,3.4,10.2,8.4,12.7c-5,2.6-8.4,7.3-8.4,12.7c0,5.6,3.6,10.4,8.8,12.9c-5.2,2.5-8.8,7.4-8.8,12.9c0,5.5,3.4,10.3,8.5,12.8
				c-5.1,2.5-8.5,7.3-8.5,12.8c0,5,2.9,9.4,7.2,12.1c-4.4,2.7-7.2,7.1-7.2,12.1c0,5,2.9,9.5,7.3,12.1c-4.4,2.7-7.3,7.1-7.3,12.1
				c0,5,2.9,9.4,7.2,12.1c-4.4,2.7-7.2,7.1-7.2,12.1c0,5.1,3,9.6,7.5,12.3c-4.5,2.6-7.5,7.1-7.5,12.3c0,4.9,2.8,9.3,7,12
				c-4.3,2.7-7,7-7,12c0,5.2,3.1,9.8,7.7,12.4c-4.6,2.6-7.7,7.2-7.7,12.4c0,4.9,2.7,9.1,6.8,11.8c-4.1,2.7-6.8,7-6.8,11.8
				c0,5.3,3.2,9.9,8,12.5c-4.8,2.6-8,7.2-8,12.5c0,4.8,2.6,9,6.6,11.7c-4,2.7-6.6,6.9-6.6,11.7c0,5.4,3.3,10.1,8.2,12.6
				c-4.9,2.6-8.2,7.3-8.2,12.6c0,4.7,2.5,8.9,6.4,11.6c-3.9,2.7-6.4,6.9-6.4,11.6c0,5.5,3.4,10.2,8.5,12.8
				c-5.1,2.5-8.5,7.3-8.5,12.8c0,8.1,7.5,14.7,16.8,14.7s16.8-6.6,16.8-14.7c0-5.5-3.4-10.2-8.5-12.8c5.1-2.5,8.5-7.3,8.5-12.8
				c0-4.7-2.5-8.9-6.4-11.6c3.9-2.7,6.4-6.9,6.4-11.6c0-5.4-3.3-10.1-8.2-12.6c4.9-2.6,8.2-7.3,8.2-12.6c0-4.8-2.6-9-6.6-11.7
				c4-2.7,6.6-6.9,6.6-11.7c0-5.3-3.2-9.9-8-12.5c4.8-2.6,8-7.2,8-12.5c0-4.9-2.7-9.2-6.8-11.8c4.1-2.7,6.8-7,6.8-11.8
				c0-5.2-3.1-9.8-7.7-12.4c4.6-2.6,7.7-7.2,7.7-12.4c0-4.9-2.8-9.3-7-12c4.3-2.7,7-7,7-12c0-5.1-3-9.6-7.5-12.3
				c4.5-2.6,7.5-7.1,7.5-12.3c0-5-2.9-9.4-7.2-12.1c4.4-2.7,7.2-7.1,7.2-12.1c0-5-2.9-9.5-7.3-12.1c4.4-2.7,7.3-7.1,7.3-12.1
				c0-5-2.9-9.4-7.2-12.1c4.4-2.7,7.2-7.1,7.2-12.1c0-5.5-3.4-10.3-8.5-12.8c5.1-2.5,8.5-7.3,8.5-12.8c0-5.6-3.6-10.4-8.8-12.9
				C113.2,40.5,116.8,35.6,116.8,30z"/>
			<path class="st14" d="M169.5-30.7c0-5.4-3.4-10.2-8.4-12.7c5-2.6,8.4-7.3,8.4-12.7c0-8.1-7.5-14.7-16.8-14.7s-16.8,6.6-16.8,14.7
				c0,5.4,3.4,10.2,8.4,12.7c-5,2.6-8.4,7.3-8.4,12.7c0,5.6,3.6,10.4,8.8,12.9c-5.2,2.5-8.8,7.4-8.8,12.9c0,5.5,3.4,10.3,8.5,12.8
				c-5.1,2.5-8.5,7.3-8.5,12.8c0,5,2.9,9.4,7.2,12.1c-4.4,2.7-7.2,7.1-7.2,12.1c0,5,2.9,9.5,7.3,12.1c-4.4,2.7-7.3,7.1-7.3,12.1
				c0,5,2.9,9.4,7.2,12.1c-4.4,2.7-7.2,7.1-7.2,12.1c0,5.1,3,9.6,7.5,12.3c-4.5,2.6-7.5,7.1-7.5,12.3c0,4.9,2.8,9.3,7,12
				c-4.3,2.7-7,7-7,12c0,5.2,3.1,9.8,7.7,12.4c-4.6,2.6-7.7,7.2-7.7,12.4c0,4.9,2.7,9.1,6.8,11.8c-4.1,2.7-6.8,7-6.8,11.8
				c0,5.3,3.2,9.9,8,12.5c-4.8,2.6-8,7.2-8,12.5c0,4.8,2.6,9,6.6,11.7c-4,2.7-6.6,6.9-6.6,11.7c0,5.4,3.3,10.1,8.2,12.6
				c-4.9,2.6-8.2,7.3-8.2,12.6c0,4.7,2.5,8.9,6.4,11.6c-3.9,2.7-6.4,6.9-6.4,11.6c0,5.5,3.4,10.2,8.5,12.8
				c-5.1,2.5-8.5,7.3-8.5,12.8c0,8.1,7.5,14.7,16.8,14.7s16.8-6.6,16.8-14.7c0-5.5-3.4-10.2-8.5-12.8c5.1-2.5,8.5-7.3,8.5-12.8
				c0-4.7-2.5-8.9-6.4-11.6c3.9-2.7,6.4-6.9,6.4-11.6c0-5.4-3.3-10.1-8.2-12.6c4.9-2.6,8.2-7.3,8.2-12.6c0-4.8-2.6-9-6.6-11.7
				c4-2.7,6.6-6.9,6.6-11.7c0-5.3-3.2-9.9-8-12.5c4.8-2.6,8-7.2,8-12.5c0-4.9-2.7-9.2-6.8-11.8c4.1-2.7,6.8-7,6.8-11.8
				c0-5.2-3.1-9.8-7.7-12.4c4.6-2.6,7.7-7.2,7.7-12.4c0-4.9-2.8-9.3-7-12c4.3-2.7,7-7,7-12c0-5.1-3-9.6-7.5-12.3
				c4.5-2.6,7.5-7.1,7.5-12.3c0-5-2.9-9.4-7.2-12.1c4.4-2.7,7.2-7.1,7.2-12.1c0-5-2.9-9.5-7.3-12.1c4.4-2.7,7.3-7.1,7.3-12.1
				c0-5-2.9-9.4-7.2-12.1c4.4-2.7,7.2-7.1,7.2-12.1c0-5.5-3.4-10.3-8.5-12.8c5.1-2.5,8.5-7.3,8.5-12.8c0-5.6-3.6-10.4-8.8-12.9
				C165.9-20.3,169.5-25.1,169.5-30.7z"/>
			<path class="st14" d="M261.4,48.3c0-5.4-3.4-10.2-8.4-12.7c5-2.6,8.4-7.3,8.4-12.7c0-8.1-7.5-14.7-16.8-14.7s-16.8,6.6-16.8,14.7
				c0,5.4,3.4,10.2,8.4,12.7c-5,2.6-8.4,7.3-8.4,12.7c0,5.6,3.6,10.4,8.8,12.9c-5.2,2.5-8.8,7.4-8.8,12.9c0,5.5,3.4,10.3,8.5,12.8
				c-5.1,2.5-8.5,7.3-8.5,12.8c0,5,2.9,9.4,7.2,12.1c-4.4,2.7-7.2,7.1-7.2,12.1c0,5,2.9,9.5,7.3,12.1c-4.4,2.7-7.3,7.1-7.3,12.1
				c0,5,2.9,9.4,7.2,12.1c-4.4,2.7-7.2,7.1-7.2,12.1c0,5.1,3,9.6,7.5,12.3c-4.5,2.6-7.5,7.1-7.5,12.3c0,4.9,2.8,9.3,7,12
				c-4.3,2.7-7,7-7,12c0,5.2,3.1,9.8,7.7,12.4c-4.6,2.6-7.7,7.2-7.7,12.4c0,4.9,2.7,9.1,6.8,11.8c-4.1,2.7-6.8,7-6.8,11.8
				c0,5.3,3.2,9.9,8,12.5c-4.8,2.6-8,7.2-8,12.5c0,4.8,2.6,9,6.6,11.7c-4,2.7-6.6,6.9-6.6,11.7c0,5.4,3.3,10.1,8.2,12.6
				c-4.9,2.6-8.2,7.3-8.2,12.6c0,4.7,2.5,8.9,6.4,11.6c-3.9,2.7-6.4,6.9-6.4,11.6c0,5.5,3.4,10.2,8.5,12.8
				c-5.1,2.5-8.5,7.3-8.5,12.8c0,8.1,7.5,14.7,16.8,14.7s16.8-6.6,16.8-14.7c0-5.5-3.4-10.2-8.5-12.8c5.1-2.5,8.5-7.3,8.5-12.8
				c0-4.7-2.5-8.9-6.4-11.6c3.9-2.7,6.4-6.9,6.4-11.6c0-5.4-3.3-10.1-8.2-12.6c4.9-2.6,8.2-7.3,8.2-12.6c0-4.8-2.6-9-6.6-11.7
				c4-2.7,6.6-6.9,6.6-11.7c0-5.3-3.2-9.9-8-12.5c4.8-2.6,8-7.2,8-12.5c0-4.9-2.7-9.2-6.8-11.8c4.1-2.7,6.8-7,6.8-11.8
				c0-5.2-3.1-9.8-7.7-12.4c4.6-2.6,7.7-7.2,7.7-12.4c0-4.9-2.8-9.3-7-12c4.3-2.7,7-7,7-12c0-5.1-3-9.6-7.5-12.3
				c4.5-2.6,7.5-7.1,7.5-12.3c0-5-2.9-9.4-7.2-12.1c4.4-2.7,7.2-7.1,7.2-12.1c0-5-2.9-9.5-7.3-12.1c4.4-2.7,7.3-7.1,7.3-12.1
				c0-5-2.9-9.4-7.2-12.1c4.4-2.7,7.2-7.1,7.2-12.1c0-5.5-3.4-10.3-8.5-12.8c5.1-2.5,8.5-7.3,8.5-12.8c0-5.6-3.6-10.4-8.8-12.9
				C257.8,58.7,261.4,53.8,261.4,48.3z"/>
			<path class="st14" d="M215.4-20.9c0-5.4-3.4-10.2-8.4-12.7c5-2.6,8.4-7.3,8.4-12.7c0-8.1-7.5-14.7-16.8-14.7s-16.8,6.6-16.8,14.7
				c0,5.4,3.4,10.2,8.4,12.7c-5,2.6-8.4,7.3-8.4,12.7c0,5.6,3.6,10.4,8.8,12.9c-5.2,2.5-8.8,7.4-8.8,12.9c0,5.5,3.4,10.3,8.5,12.8
				c-5.1,2.5-8.5,7.3-8.5,12.8c0,5,2.9,9.4,7.2,12.1c-4.4,2.7-7.2,7.1-7.2,12.1c0,5,2.9,9.5,7.3,12.1c-4.4,2.7-7.3,7.1-7.3,12.1
				c0,5,2.9,9.4,7.2,12.1c-4.4,2.7-7.2,7.1-7.2,12.1c0,5.1,3,9.6,7.5,12.3c-4.5,2.6-7.5,7.1-7.5,12.3c0,4.9,2.8,9.3,7,12
				c-4.3,2.7-7,7-7,12c0,5.2,3.1,9.8,7.7,12.4c-4.6,2.6-7.7,7.2-7.7,12.4c0,4.9,2.7,9.1,6.8,11.8c-4.1,2.7-6.8,7-6.8,11.8
				c0,5.3,3.2,9.9,8,12.5c-4.8,2.6-8,7.2-8,12.5c0,4.8,2.6,9,6.6,11.7c-4,2.7-6.6,6.9-6.6,11.7c0,5.4,3.3,10.1,8.2,12.6
				c-4.9,2.6-8.2,7.3-8.2,12.6c0,4.7,2.5,8.9,6.4,11.6c-3.9,2.7-6.4,6.9-6.4,11.6c0,5.5,3.4,10.2,8.5,12.8
				c-5.1,2.5-8.5,7.3-8.5,12.8c0,8.1,7.5,14.7,16.8,14.7s16.8-6.6,16.8-14.7c0-5.5-3.4-10.2-8.5-12.8c5.1-2.5,8.5-7.3,8.5-12.8
				c0-4.7-2.5-8.9-6.4-11.6c3.9-2.7,6.4-6.9,6.4-11.6c0-5.4-3.3-10.1-8.2-12.6c4.9-2.6,8.2-7.3,8.2-12.6c0-4.8-2.6-9-6.6-11.7
				c4-2.7,6.6-6.9,6.6-11.7c0-5.3-3.2-9.9-8-12.5c4.8-2.6,8-7.2,8-12.5c0-4.9-2.7-9.2-6.8-11.8c4.1-2.7,6.8-7,6.8-11.8
				c0-5.2-3.1-9.8-7.7-12.4c4.6-2.6,7.7-7.2,7.7-12.4c0-4.9-2.8-9.3-7-12c4.3-2.7,7-7,7-12c0-5.1-3-9.6-7.5-12.3
				c4.5-2.6,7.5-7.1,7.5-12.3c0-5-2.9-9.4-7.2-12.1c4.4-2.7,7.2-7.1,7.2-12.1c0-5-2.9-9.5-7.3-12.1c4.4-2.7,7.3-7.1,7.3-12.1
				c0-5-2.9-9.4-7.2-12.1c4.4-2.7,7.2-7.1,7.2-12.1c0-5.5-3.4-10.3-8.5-12.8c5.1-2.5,8.5-7.3,8.5-12.8c0-5.6-3.6-10.4-8.8-12.9
				C211.9-10.5,215.4-15.3,215.4-20.9z"/>
			<path class="st14" d="M314.1,55.9c0-5.4-3.4-10.2-8.4-12.7c5-2.6,8.4-7.3,8.4-12.7c0-8.1-7.5-14.7-16.8-14.7s-16.8,6.6-16.8,14.7
				c0,5.4,3.4,10.2,8.4,12.7c-5,2.6-8.4,7.3-8.4,12.7c0,5.6,3.6,10.4,8.8,12.9c-5.2,2.5-8.8,7.4-8.8,12.9c0,5.5,3.4,10.3,8.5,12.8
				c-5.1,2.5-8.5,7.3-8.5,12.8c0,5,2.9,9.4,7.2,12.1c-4.4,2.7-7.2,7.1-7.2,12.1c0,5,2.9,9.5,7.3,12.1c-4.4,2.7-7.3,7.1-7.3,12.1
				c0,5,2.9,9.4,7.2,12.1c-4.4,2.7-7.2,7.1-7.2,12.1c0,5.1,3,9.6,7.5,12.3c-4.5,2.6-7.5,7.1-7.5,12.3c0,4.9,2.8,9.3,7,12
				c-4.3,2.7-7,7-7,12c0,5.2,3.1,9.8,7.7,12.4c-4.6,2.6-7.7,7.2-7.7,12.4c0,4.9,2.7,9.1,6.8,11.8c-4.1,2.7-6.8,7-6.8,11.8
				c0,5.3,3.2,9.9,8,12.5c-4.8,2.6-8,7.2-8,12.5c0,4.8,2.6,9,6.6,11.7c-4,2.7-6.6,6.9-6.6,11.7c0,5.4,3.3,10.1,8.2,12.6
				c-4.9,2.6-8.2,7.3-8.2,12.6c0,4.7,2.5,8.9,6.4,11.6c-3.9,2.7-6.4,6.9-6.4,11.6c0,5.5,3.4,10.2,8.5,12.8
				c-5.1,2.5-8.5,7.3-8.5,12.8c0,8.1,7.5,14.7,16.8,14.7s16.8-6.6,16.8-14.7c0-5.5-3.4-10.2-8.5-12.8c5.1-2.5,8.5-7.3,8.5-12.8
				c0-4.7-2.5-8.9-6.4-11.6c3.9-2.7,6.4-6.9,6.4-11.6c0-5.4-3.3-10.1-8.2-12.6c4.9-2.6,8.2-7.3,8.2-12.6c0-4.8-2.6-9-6.6-11.7
				c4-2.7,6.6-6.9,6.6-11.7c0-5.3-3.2-9.9-8-12.5c4.8-2.6,8-7.2,8-12.5c0-4.9-2.7-9.2-6.8-11.8c4.1-2.7,6.8-7,6.8-11.8
				c0-5.2-3.1-9.8-7.7-12.4c4.6-2.6,7.7-7.2,7.7-12.4c0-4.9-2.8-9.3-7-12c4.3-2.7,7-7,7-12c0-5.1-3-9.6-7.5-12.3
				c4.5-2.6,7.5-7.1,7.5-12.3c0-5-2.9-9.4-7.2-12.1c4.4-2.7,7.2-7.1,7.2-12.1c0-5-2.9-9.5-7.3-12.1c4.4-2.7,7.3-7.1,7.3-12.1
				c0-5-2.9-9.4-7.2-12.1c4.4-2.7,7.2-7.1,7.2-12.1c0-5.5-3.4-10.3-8.5-12.8c5.1-2.5,8.5-7.3,8.5-12.8c0-5.6-3.6-10.4-8.8-12.9
				C310.5,66.3,314.1,61.4,314.1,55.9z"/>
			<ellipse class="st15" cx="52.4" cy="263.8" rx="16.8" ry="14.7"/>
			<ellipse class="st15" cx="52.4" cy="117.9" rx="16.8" ry="14.7"/>
			<ellipse class="st16" cx="52.4" cy="68.9" rx="16.8" ry="14.7"/>
			<ellipse class="st16" cx="99.9" cy="179.1" rx="16.8" ry="14.7"/>
			<ellipse class="st17" cx="99.9" cy="130.1" rx="16.8" ry="14.7"/>
			<ellipse class="st16" cx="198.6" cy="225.1" rx="16.8" ry="14.7"/>
			<ellipse class="st16" cx="198.6" cy="200.1" rx="16.8" ry="14.7"/>
			<ellipse class="st15" cx="244.5" cy="22.8" rx="16.8" ry="14.7"/>
			<ellipse class="st17" cx="244.5" cy="148.3" rx="16.8" ry="14.7"/>
			<ellipse class="st17" cx="244.5" cy="269.2" rx="16.8" ry="14.7"/>
			<ellipse class="st17" cx="297.2" cy="81.7" rx="16.8" ry="14.7"/>
			<ellipse class="st17" cx="297.2" cy="107.3" rx="16.8" ry="14.7"/>
		</g>
		<g>
			<path class="st5" d="M160,313.2c-40.9,0-79.4-15.9-108.3-44.9C22.8,239.4,6.8,200.9,6.8,160S22.8,80.6,51.7,51.7
				C80.6,22.8,119.1,6.8,160,6.8s79.4,15.9,108.3,44.9c28.9,28.9,44.9,67.4,44.9,108.3s-15.9,79.4-44.9,108.3
				C239.4,297.2,200.9,313.2,160,313.2z M160,17C81.2,17,17,81.2,17,160s64.1,143,143,143s143-64.1,143-143S238.8,17,160,17z"/>
		</g>
	</g>
</g>
</svg>
