<?xml version="1.0" encoding="utf-8"?>
<!-- Generator: Adobe Illustrator 23.0.1, SVG Export Plug-In . SVG Version: 6.00 Build 0)  -->
<svg version="1.1" id="Layer_1" xmlns="http://www.w3.org/2000/svg" xmlns:xlink="http://www.w3.org/1999/xlink" x="0px" y="0px"
	 viewBox="0 0 137.3 114.4" style="enable-background:new 0 0 137.3 114.4;" xml:space="preserve">
<style type="text/css">
	.st0{fill:#FFBD76;}
	.st1{fill:#FA9801;}
</style>
<g>
	<g>
		<path class="st0" d="M72.5,54.8c-0.3-1.5-0.6-9.1-4.3-12.8c-3.1-3-8.2-6-13.4-10.5c-3.3-2.8-4.4-4.4-6.8-7.9
			c-5.8-8.2-5.8-8.2-12.3-11.9c-7-3.9-21-6.5-27.9-2.8c-10.9,5.8-8.1,25.4-5.3,34.7C5,51.9,8.3,54.1,8.1,61.4
			c-0.2,8-4.2,9.6-6.3,18.8c-1.1,4.7-4.5,19.4,4.3,25.4c8,5.4,30.9,4.3,38.3-2.6c4.7-4.4,2.2-10.3,8.1-16.5c6.2-6.5,5-4.2,11.5-10.3
			C65.9,74.4,74.4,65.6,72.5,54.8z"/>
	</g>
	<g>
		<path class="st0" d="M110.8,55.9c-0.8-5.1-9.6-8-15.1-8.7c-7.5-0.9-18.5,1.2-20.2,7.1c-1.7,5.9,6.5,13.8,15.4,14.8
			C101.1,70.2,111.8,62.1,110.8,55.9z"/>
	</g>
	<g>
		<path class="st0" d="M68.7,76.5c2.9-6,16.8-3.4,17.8-3.2c6.8,1.3,16.7,5.8,16.5,10.8c-0.2,5.8-14.3,13.1-24.5,8.5
			C71.7,89.6,66.3,81.3,68.7,76.5z"/>
	</g>
	<g>
		<path class="st0" d="M51.8,95.4c2.9-4.7,14.7-2,21,0.8c3.3,1.4,9.9,4.4,10,8.4c0.1,5.2-10.8,12.1-19.8,9.2
			C54.3,111,49,99.9,51.8,95.4z"/>
	</g>
	<g>
		<path class="st0" d="M102.6,29.5c-0.6-5.2-9.4-8.5-15.5-9c-10.4-0.8-22.3,5.6-22,11.5c0.3,5.7,12.1,11.3,22.1,9.7
			C94.6,40.5,103.3,35,102.6,29.5z"/>
	</g>
	<g>
		<path class="st0" d="M50.3,19.9c3.1,4.2,12.7,1.9,17.1,0.2c4.5-1.8,13-6.5,12.4-11.5c-0.7-5.6-12-11-20.5-7.4
			C51.3,4.5,47,15.4,50.3,19.9z"/>
	</g>
	<g>
		<path class="st0" d="M83.2,6.9c0.4,1.1,0.8,2.2,1.1,3.3c2.3,0.3,5.1,0.5,8.3,0.9c6.4,0.7,11.6,1.3,14.8,1.7
			c-4.7-5.4-9.6-7.9-12.4-9.1C93.3,3,85.7,0,80.2,1.7C81.4,3.3,82.4,5,83.2,6.9z"/>
	</g>
	<g>
		<path class="st0" d="M103,25c2,2.3,3.1,5.4,3.6,8.5c2,0.1,4.3,0.2,6.9,0.3c6.4,0.3,11.6,0.6,14.9,0.8c-5-5.1-10-7.3-13-8.3
			c-1.6-0.5-7.5-2.5-12.5-1.8C103,24.6,103,24.8,103,25z"/>
	</g>
	<g>
		<path class="st0" d="M86.5,105.2c0.4-1.1,0.6-2.2,0.9-3.3c2.3-0.4,5-0.9,8.2-1.5c6.3-1.2,11.5-2.2,14.7-2.8
			c-4.2,5.8-9,8.6-11.7,10c-1.7,0.8-9.1,4.5-14.6,3.2C84.9,108.9,85.8,107.1,86.5,105.2z"/>
	</g>
	<g>
		<path class="st0" d="M104.8,89.6c1.7-2.5,2.5-5.7,2.7-8.8c2-0.3,4.3-0.6,6.9-1c6.4-1,11.5-1.8,14.7-2.4c-4.4,5.6-9.2,8.3-12,9.6
			c-1.5,0.7-7.2,3.2-12.2,3.1C104.9,89.9,104.8,89.7,104.8,89.6z"/>
	</g>
	<g>
		<path class="st0" d="M114.3,53.6c1,1.8,1.4,3.9,1.1,6c-0.2,1-0.5,2-1,2.8l0,0c2.5,0.3,5.6-0.3,10.4-1.2c5.4-1.1,9.8-2,12.5-2.6
			c-5.5-2.8-10.3-4.2-13.7-5c-4.6-1.1-7.5-1.2-9.4-1C114.3,52.9,114.3,53.3,114.3,53.6z"/>
	</g>
</g>
<path class="st1" d="M56.3,54.5L22.5,35.9c-2.7-1.5-6.1,0.5-6.1,3.6v37.4c0,3.1,3.3,5.1,6.1,3.6l33.8-18.7
	C59.1,60.2,59.1,56.1,56.3,54.5z"/>
</svg>
