<?xml version="1.0" encoding="utf-8"?>
<!-- Generator: Adobe Illustrator 23.0.1, SVG Export Plug-In . SVG Version: 6.00 Build 0)  -->
<svg version="1.1" xmlns="http://www.w3.org/2000/svg" xmlns:xlink="http://www.w3.org/1999/xlink" x="0px" y="0px"
	 viewBox="0 0 218 103" style="enable-background:new 0 0 218 103;" xml:space="preserve">
<style type="text/css">
	.st0{fill:#808184;}
	.st1{display:none;}
	.st2{display:inline;fill:#808184;}
</style>
<g id="Layer_1">
	<path class="st0" d="M0,94.5c8-6.3,16.8-11.7,26.6-15c5-1.6,10.1-2.4,15.1-2.8c5-0.5,10-0.7,15-1.2c9.9-0.9,19.8-2.4,29.1-5.6
		c4.7-1.6,9.1-3.7,13.3-6.3c4.2-2.6,7.9-5.9,11.3-9.5c3.4-3.6,6.7-7.4,10.3-10.9c3.6-3.5,7.7-6.7,11.9-9.3c8.6-5.3,18.1-9,27.7-11.9
		c9.6-2.9,19.4-5,29.1-7.4c9.7-2.4,19.4-5.1,28.6-9.1c-9.1,4.2-18.8,7.1-28.4,9.6c-9.7,2.6-19.5,4.8-29,7.8
		c-9.5,3-18.8,6.8-27.2,12.2c-4.2,2.7-8,5.8-11.5,9.3c-3.5,3.5-6.7,7.4-10.1,11.1c-3.4,3.7-7.2,7.2-11.5,10c-4.3,2.8-8.9,5-13.7,6.8
		C77,75.7,67,77.3,57,78.5c-10,1.2-20.1,1.2-29.3,4.3C18.5,86,10.1,91.4,2.5,97.6L0,94.5z"/>
	<path class="st0" d="M0,94.5c8-6.3,16.8-11.7,26.6-15c5-1.6,10.1-2.4,15.1-2.8c5-0.5,10-0.7,15-1.2c9.9-0.9,19.8-2.4,29.1-5.6
		c4.7-1.6,9.1-3.7,13.3-6.3c4.2-2.6,7.9-5.9,11.3-9.5c3.4-3.6,6.7-7.4,10.3-10.9c3.6-3.5,7.7-6.7,11.9-9.3c8.6-5.3,18.1-9,27.7-11.9
		c9.6-2.9,19.4-5,29.1-7.4c9.7-2.4,19.4-5.1,28.6-9.1c-9.1,4.2-18.8,7.1-28.4,9.6c-9.7,2.6-19.5,4.8-29,7.8
		c-9.5,3-18.8,6.8-27.2,12.2c-4.2,2.7-8,5.8-11.5,9.3c-3.5,3.5-6.7,7.4-10.1,11.1c-3.4,3.7-7.2,7.2-11.5,10c-4.3,2.8-8.9,5-13.7,6.8
		C77,75.7,67,77.3,57,78.5c-10,1.2-20.1,1.2-29.3,4.3C18.5,86,10.1,91.4,2.5,97.6L0,94.5z"/>
	<path class="st0" d="M0,94.5c8-6.3,16.8-11.7,26.6-15c5-1.6,10.1-2.4,15.1-2.8c5-0.5,10-0.7,15-1.2c9.9-0.9,19.8-2.4,29.1-5.6
		c4.7-1.6,9.1-3.7,13.3-6.3c4.2-2.6,7.9-5.9,11.3-9.5c3.4-3.6,6.7-7.4,10.3-10.9c3.6-3.5,7.7-6.7,11.9-9.3c8.6-5.3,18.1-9,27.7-11.9
		c9.6-2.9,19.4-5,29.1-7.4c9.7-2.4,19.4-5.1,28.6-9.1c-9.1,4.2-18.8,7.1-28.4,9.6c-9.7,2.6-19.5,4.8-29,7.8
		c-9.5,3-18.8,6.8-27.2,12.2c-4.2,2.7-8,5.8-11.5,9.3c-3.5,3.5-6.7,7.4-10.1,11.1c-3.4,3.7-7.2,7.2-11.5,10c-4.3,2.8-8.9,5-13.7,6.8
		C77,75.7,67,77.3,57,78.5c-10,1.2-20.1,1.2-29.3,4.3C18.5,86,10.1,91.4,2.5,97.6L0,94.5z"/>
	<path class="st0" d="M0,94.5c8-6.3,16.8-11.7,26.6-15c5-1.6,10.1-2.4,15.1-2.8c5-0.5,10-0.7,15-1.2c9.9-0.9,19.8-2.4,29.1-5.6
		c4.7-1.6,9.1-3.7,13.3-6.3c4.2-2.6,7.9-5.9,11.3-9.5c3.4-3.6,6.7-7.4,10.3-10.9c3.6-3.5,7.7-6.7,11.9-9.3c8.6-5.3,18.1-9,27.7-11.9
		c9.6-2.9,19.4-5,29.1-7.4c9.7-2.4,19.4-5.1,28.6-9.1c-9.1,4.2-18.8,7.1-28.4,9.6c-9.7,2.6-19.5,4.8-29,7.8
		c-9.5,3-18.8,6.8-27.2,12.2c-4.2,2.7-8,5.8-11.5,9.3c-3.5,3.5-6.7,7.4-10.1,11.1c-3.4,3.7-7.2,7.2-11.5,10c-4.3,2.8-8.9,5-13.7,6.8
		C77,75.7,67,77.3,57,78.5c-10,1.2-20.1,1.2-29.3,4.3C18.5,86,10.1,91.4,2.5,97.6L0,94.5z"/>
	<path class="st0" d="M0,94.5c8-6.3,16.8-11.7,26.6-15c5-1.6,10.1-2.4,15.1-2.8c5-0.5,10-0.7,15-1.2c9.9-0.9,19.8-2.4,29.1-5.6
		c4.7-1.6,9.1-3.7,13.3-6.3c4.2-2.6,7.9-5.9,11.3-9.5c3.4-3.6,6.7-7.4,10.3-10.9c3.6-3.5,7.7-6.7,11.9-9.3c8.6-5.3,18.1-9,27.7-11.9
		c9.6-2.9,19.4-5,29.1-7.4c9.7-2.4,19.4-5.1,28.6-9.1c-9.1,4.2-18.8,7.1-28.4,9.6c-9.7,2.6-19.5,4.8-29,7.8
		c-9.5,3-18.8,6.8-27.2,12.2c-4.2,2.7-8,5.8-11.5,9.3c-3.5,3.5-6.7,7.4-10.1,11.1c-3.4,3.7-7.2,7.2-11.5,10c-4.3,2.8-8.9,5-13.7,6.8
		C77,75.7,67,77.3,57,78.5c-10,1.2-20.1,1.2-29.3,4.3C18.5,86,10.1,91.4,2.5,97.6L0,94.5z"/>
</g>
<g id="Layer_3" class="st1">
	<path class="st2" d="M216.4,2.8c-17.6,8.3-35.3,16.5-53,24.7l-53,24.6l-53,24.6L4.3,101.1l-1.6-3.5c17.7-8.2,35.5-16.2,53.2-24.2
		c17.8-7.9,35.6-15.9,53.4-23.8l53.5-23.5C180.6,18.3,198.5,10.6,216.4,2.8z"/>
</g>
<g id="Layer_2" class="st1">
	<path class="st2" d="M3.6,99.1c9.7-1.5,19.3-4.3,27.8-8.9c8.5-4.7,15.2-12.2,22.7-18.9c7.5-6.7,15.4-13.1,24.4-17.9
		c4.5-2.4,9.2-4.4,14.2-5.7c4.9-1.3,10.1-1.9,15.1-1.9c5-0.1,10,0.1,15-0.1c4.9-0.3,9.8-1.1,14.6-2.4c9.6-2.6,18.6-7,27.2-12.1
		c8.6-5.1,16.8-10.9,25.2-16.4C198.2,9.3,206.8,4,216,0c-9.1,4.2-17.6,9.6-25.8,15.2c-8.3,5.6-16.3,11.6-24.9,16.8
		c-8.5,5.2-17.6,9.8-27.3,12.7c-4.9,1.4-9.9,2.3-14.9,2.7c-5.1,0.3-10.1,0.2-15,0.4c-5,0.1-9.9,0.7-14.6,2.1
		c-4.7,1.3-9.3,3.3-13.6,5.7c-8.6,4.8-16.3,11.2-23.6,17.9c-3.7,3.4-7.2,6.9-10.9,10.4c-3.7,3.4-7.7,6.8-12.2,9.4
		c-9,5.1-18.9,8.1-28.9,9.8L3.6,99.1z"/>
</g>
</svg>
