<?xml version="1.0" encoding="utf-8"?>
<!-- Generator: Adobe Illustrator 23.0.1, SVG Export Plug-In . SVG Version: 6.00 Build 0)  -->
<svg version="1.1" id="Layer_1" xmlns="http://www.w3.org/2000/svg" xmlns:xlink="http://www.w3.org/1999/xlink" x="0px" y="0px"
	 viewBox="0 0 42.5 22.8" style="enable-background:new 0 0 42.5 22.8;" xml:space="preserve">
<style type="text/css">
	.st0{fill:#BBBDBF;}
	.st1{fill:#808184;}
	.st2{fill:#A0CEEE;}
	.st3{fill:#1B75BB;}
</style>
<path class="st0" d="M36.9,9c1.2-0.5,2.2-1.2,2.9-2.1c0.7-0.9,0.9-1.8,0.6-2.5c-0.3-0.8-1-1.3-2-1.6c-0.5-0.1-1-0.2-1.6-0.2
	c-0.5,0-1.1,0.1-1.6,0.2c0.8,0.7,1.4,1.6,1.7,2.5C37.3,6.5,37.2,7.7,36.9,9z"/>
<path class="st1" d="M42.3,3.8c-0.5-1.4-1.7-2.4-3.4-2.9c-1.6-0.4-3.4-0.3-5.2,0.3c-0.2,0.1-0.5,0.2-0.7,0.3
	c0.4,0.2,0.8,0.4,1.2,0.6c0.4,0.2,0.7,0.5,1,0.8c0.5-0.1,1.1-0.2,1.6-0.2c0.6,0,1.1,0.1,1.6,0.2c1.1,0.3,1.8,0.9,2,1.6
	c0.3,0.8,0,1.7-0.6,2.5c-0.7,0.9-1.7,1.6-2.9,2.1c-0.1,0.4-0.3,0.8-0.5,1.2c-0.2,0.4-0.4,0.8-0.6,1.2c0.4-0.1,0.8-0.2,1.2-0.3
	c1.8-0.6,3.3-1.6,4.3-2.9C42.4,6.7,42.8,5.2,42.3,3.8z"/>
<path class="st2" d="M34,6.2c-0.3-0.8-1-1.5-2-2.1c-0.3-0.2-0.7-0.3-1-0.5c-0.3-0.1-0.7-0.2-1.1-0.3c-1.2-0.3-2.5-0.4-4-0.4
	c-2.8,0-6,0.5-9.5,1.7c-9.1,3-14.3,8.7-13.2,11.9c0.5,1.6,2.6,2.7,5.6,3.1c3.5,0.4,7.8-0.1,12.1-1.5c5.1-1.7,9-4.3,11.2-6.8
	c0.3-0.3,0.5-0.6,0.7-0.9c0.2-0.3,0.4-0.6,0.6-0.9C34.1,8.3,34.3,7.2,34,6.2z"/>
<path class="st3" d="M36.9,5.3c-0.3-1-0.9-1.8-1.7-2.5c-0.3-0.3-0.6-0.5-1-0.8c-0.4-0.2-0.8-0.4-1.2-0.6c-4.1-1.9-10.6-1.8-17.6,0.5
	C5.1,5.3-1.5,12.2,0.3,17.5c0.9,2.8,3.8,4.6,8.1,5.1c0.9,0.1,1.9,0.2,2.9,0.2c3.3,0,6.9-0.6,10.5-1.8c6.6-2.2,11.7-5.8,14-9.6
	c0.2-0.4,0.5-0.8,0.6-1.2c0.2-0.4,0.3-0.8,0.5-1.2C37.2,7.7,37.3,6.5,36.9,5.3z M20.8,18.1c-4.3,1.4-8.6,2-12.1,1.5
	c-3.1-0.4-5.1-1.5-5.6-3.1C2.1,13.4,7.2,7.7,16.3,4.7C19.8,3.5,23.1,3,25.9,3c1.5,0,2.8,0.2,4,0.4c0.4,0.1,0.8,0.2,1.1,0.3
	c0.4,0.1,0.7,0.3,1,0.5c1,0.5,1.7,1.2,2,2.1c0.3,0.9,0.1,2.1-0.6,3.3c-0.2,0.3-0.4,0.6-0.6,0.9c-0.2,0.3-0.4,0.6-0.7,0.9
	C29.9,13.9,26,16.4,20.8,18.1z"/>
</svg>
