<svg id="Diabetes_Title" xmlns="http://www.w3.org/2000/svg" viewBox="0 0 1222.76 682.28">
  <defs>
    <style>
      .cls-1, .cls-3 {
        fill: none;
        stroke-miterlimit: 10;
      }

      .cls-1 {
        stroke: #000;
        stroke-width: 13.79px;
      }

      .cls-2 {
        fill: #fff;
      }

      .play-poly {
        <!-- fill: #99FFFF; -->
        fill: #fff;
      }

      .cls-3 {
        <!-- stroke: #99FFFF; -->
        stroke: #fff;
        stroke-width: 14.13px;
      }

      .start-button {
         fill: none;
      }

      .pulse-class {
         opacity:0;
         cursor:pointer;
      }

      .tranOrig {
         transform-origin: 38px 40px 0px;
      }

    </style>
  </defs>
  <title>Diabetes_Title</title>
  <rect id="Start_Button_Outline" class="start-button" data-name="Button Outline" width="1224.74" height="690"/>

  <g id="Start_Button" class="tranOrig" data-name="Start Button">
    <g id="Play_Button_Black" data-name="Play Button Black">
      <g>
        <polygon points="640.06 518.89 592.67 546.25 592.67 491.53 640.06 518.89"/>
        <circle class="cls-1" cx="612.6" cy="518.89" r="56"/>
      </g>
    </g>
    <g id="Play_Button_White" data-name="Play Button White">
        <polygon class="play-poly" points="634.85 514.8 587.46 542.16 587.46 487.44 634.85 514.8"/>
        <circle class="cls-3" cx="607.4" cy="514.8" r="56"/>
    </g>
    <g id="Start_Button_BG" data-name="Start Button BG">
      <circle class="pulse-class" cx="607.4" cy="514.8" r="56"/>
    </g>
  </g>

  <!-- <g id="Click_To_Start" data-name="Click To Start">
    <g id="CTS_Black" data-name="CTS Black">
      <g> -->
        <!-- <path d="M411.06,501.59l-1,8a20.68,20.68,0,0,0-15.26-6.5,15.9,15.9,0,0,0-12.61,5.54q-4.84,5.51-4.84,14.36,0,8.28,4.65,12.93t13.06,4.62a19.24,19.24,0,0,0,12.42-4.33l-1.05,8.63a36.53,36.53,0,0,1-12.64,2.52q-10.7,0-17.23-6.78T370,522.64q0-11.4,6.94-18.92a22.89,22.89,0,0,1,17.52-7.52Q402.81,496.2,411.06,501.59Z"/>
        <path d="M427.88,497.19l-5.19,42.39H436.6l-0.83,6.78H414.56l6.05-49.18h7.26Z"/>
        <path d="M456,497.19l-6.05,49.18h-7.29l6.05-49.18H456Z"/>
        <path d="M503.27,501.59l-1,8a20.68,20.68,0,0,0-15.26-6.5,15.9,15.9,0,0,0-12.61,5.54q-4.84,5.51-4.84,14.36,0,8.28,4.65,12.93t13.06,4.62a19.24,19.24,0,0,0,12.42-4.33l-1.05,8.63A36.53,36.53,0,0,1,486,547.32q-10.7,0-17.23-6.78t-6.53-17.9q0-11.4,6.94-18.92a22.89,22.89,0,0,1,17.52-7.52Q495,496.2,503.27,501.59Z"/>
        <path d="M520.72,497.19l-2.55,20.89L538,497.19h9.21l-22.93,22.87L545,546.37h-8.79l-18.54-24-2.93,24h-7.29l6.05-49.18h7.26Z"/>
        <path d="M590.34,504l-5.22,42.39h-7.29L583,504H571.3l0.83-6.78h30.29L601.59,504H590.34Z"/>
        <path d="M654,520.82a27.37,27.37,0,0,1-4.46,15.26,24,24,0,0,1-9.24,8.31,27.17,27.17,0,0,1-12.61,2.93q-11.05,0-18-7t-7-18.28q0-11.18,7.39-18.47t18.73-7.33q11.31,0,18.25,6.78T654,520.82Zm-7.33-.06q0-8.06-4.78-12.9t-12.84-4.81a18.65,18.65,0,0,0-13.6,5.41,19.74,19.74,0,0,0-.38,26.82,17.07,17.07,0,0,0,12.8,5.22,17.71,17.71,0,0,0,13.41-5.64A19.49,19.49,0,0,0,646.72,520.76Z"/>
        <path d="M712.1,503.47l-4.87,4.65q-3.47-5.1-8-5.1a7.55,7.55,0,0,0-5.38,2,6.62,6.62,0,0,0-2.13,5,6.3,6.3,0,0,0,1.46,4.17,14.28,14.28,0,0,0,2.15,1.88q1.42,1.05,3.55,2.32,6.34,3.7,8.47,6.69a13.32,13.32,0,0,1,2.17,7.93,13.5,13.5,0,0,1-4.2,10.32q-4.14,4-10.92,4a17.22,17.22,0,0,1-9.27-2.36,15.69,15.69,0,0,1-3.57-3.07,27.58,27.58,0,0,1-3.18-4.6l5.54-3.76a16.51,16.51,0,0,0,4.43,5.48,9.71,9.71,0,0,0,5.64,1.5,8.5,8.5,0,0,0,6-2,7.55,7.55,0,0,0,2.18-5.8,6.32,6.32,0,0,0-1.59-4.36,14.19,14.19,0,0,0-2.37-2.07q-1.58-1.15-4-2.58-5.54-3.28-7.74-6.24a12.5,12.5,0,0,1-2.1-7.42,13,13,0,0,1,4.14-9.87,14.53,14.53,0,0,1,10.45-4,13.92,13.92,0,0,1,7,1.66A21.52,21.52,0,0,1,712.1,503.47Z"/>
        <path d="M736.6,504l-5.22,42.39h-7.29L729.3,504H717.55l0.83-6.78h30.29L747.84,504H736.6Z"/>
        <path d="M755.45,534.81l-6,11.56h-7.93l27.2-52.68,17,52.68H778.1l-3.57-11.56H755.45Zm3.15-6.31h13.89L767.2,511Z"/>
        <path d="M810.9,525.63l12.36,20.73h-7.71l-11.66-20.22h-2.64l-2.48,20.22h-7.29l6.05-49.18h9.65a26.09,26.09,0,0,1,7.49.86,10.62,10.62,0,0,1,4.78,2.93,14,14,0,0,1,3.85,10.19Q823.29,522.61,810.9,525.63ZM804,504L802,519.77h3.34a16.26,16.26,0,0,0,5.51-.7,7.08,7.08,0,0,0,3.25-2.39,8.93,8.93,0,0,0,1.78-5.54q0-3.73-2.15-5.45T807,504H804Z"/>
        <path d="M848.39,504l-5.22,42.39h-7.29L841.09,504H829.34l0.83-6.78h30.29L859.63,504H848.39Z"/> -->
      <!-- </g>
    </g>
    <g id="CTS_White" data-name="CTS White">
      <g>
        <path class="cls-2" d="M404.86,499l-1,8a20.68,20.68,0,0,0-15.26-6.5A15.9,15.9,0,0,0,376,506q-4.84,5.51-4.84,14.36,0,8.28,4.65,12.93t13.06,4.62a19.25,19.25,0,0,0,12.42-4.33l-1.05,8.63a36.53,36.53,0,0,1-12.64,2.52q-10.7,0-17.23-6.78T363.84,520q0-11.4,6.94-18.92a22.89,22.89,0,0,1,17.52-7.52Q396.61,493.59,404.86,499Z"/>
        <path class="cls-2" d="M421.68,494.58L416.49,537h13.92l-0.83,6.78H408.37l6.05-49.18h7.26Z"/>
        <path class="cls-2" d="M449.8,494.58l-6.05,49.18h-7.29l6.05-49.18h7.29Z"/>
        <path class="cls-2" d="M497.07,499l-1,8a20.68,20.68,0,0,0-15.26-6.5A15.9,15.9,0,0,0,468.21,506q-4.84,5.51-4.84,14.36,0,8.28,4.65,12.93t13.06,4.62a19.25,19.25,0,0,0,12.42-4.33l-1.05,8.63a36.53,36.53,0,0,1-12.64,2.52q-10.7,0-17.23-6.78T456,520q0-11.4,6.94-18.92a22.89,22.89,0,0,1,17.52-7.52Q488.82,493.59,497.07,499Z"/>
        <path class="cls-2" d="M514.52,494.58L512,515.48l19.87-20.89h9.21l-22.93,22.87,20.64,26.31H530l-18.54-24-2.93,24h-7.29l6.05-49.18h7.26Z"/>
        <path class="cls-2" d="M584.14,501.37l-5.22,42.39h-7.29l5.22-42.39H565.1l0.83-6.78h30.29l-0.83,6.78H584.14Z"/>
        <path class="cls-2" d="M647.84,518.21a27.36,27.36,0,0,1-4.46,15.26,24,24,0,0,1-9.24,8.31,27.17,27.17,0,0,1-12.61,2.93q-11.05,0-18-7t-7-18.28q0-11.18,7.39-18.47t18.73-7.33q11.31,0,18.25,6.78T647.84,518.21Zm-7.33-.06q0-8.06-4.78-12.9t-12.84-4.81a18.65,18.65,0,0,0-13.6,5.41,19.74,19.74,0,0,0-.38,26.82,17.08,17.08,0,0,0,12.8,5.22,17.72,17.72,0,0,0,13.41-5.64A19.49,19.49,0,0,0,640.52,518.15Z"/>
        <path class="cls-2" d="M705.91,500.86L701,505.51q-3.47-5.1-8-5.1a7.55,7.55,0,0,0-5.38,2,6.62,6.62,0,0,0-2.13,5,6.3,6.3,0,0,0,1.46,4.17,14.28,14.28,0,0,0,2.15,1.88q1.42,1.05,3.55,2.33,6.34,3.69,8.47,6.69a13.32,13.32,0,0,1,2.17,7.93,13.51,13.51,0,0,1-4.2,10.32q-4.14,3.95-10.92,3.95a17.22,17.22,0,0,1-9.27-2.36,15.66,15.66,0,0,1-3.57-3.07,27.54,27.54,0,0,1-3.18-4.6l5.54-3.76a16.53,16.53,0,0,0,4.43,5.48,9.71,9.71,0,0,0,5.64,1.5,8.49,8.49,0,0,0,6-2,7.55,7.55,0,0,0,2.18-5.8,6.32,6.32,0,0,0-1.59-4.36,14.23,14.23,0,0,0-2.37-2.07q-1.58-1.15-4-2.58-5.54-3.28-7.74-6.24a12.5,12.5,0,0,1-2.1-7.42,13,13,0,0,1,4.14-9.87,14.53,14.53,0,0,1,10.45-3.95,13.91,13.91,0,0,1,7,1.66A21.5,21.5,0,0,1,705.91,500.86Z"/>
        <path class="cls-2" d="M730.4,501.37l-5.22,42.39h-7.29l5.22-42.39H711.35l0.83-6.78h30.29l-0.83,6.78H730.4Z"/>
        <path class="cls-2" d="M749.25,532.2l-6,11.56h-7.93l27.2-52.68,17,52.68H771.9l-3.57-11.56H749.25Zm3.15-6.31h13.89L761,508.41Z"/>
        <path class="cls-2" d="M804.7,523l12.36,20.73h-7.71L797.7,523.53h-2.64l-2.48,20.22h-7.29l6.05-49.18H801a26.13,26.13,0,0,1,7.49.86,10.63,10.63,0,0,1,4.78,2.93,14,14,0,0,1,3.85,10.19Q817.09,520,804.7,523Zm-6.94-21.66-1.91,15.8h3.34a16.23,16.23,0,0,0,5.51-.7,7.08,7.08,0,0,0,3.25-2.39,8.93,8.93,0,0,0,1.78-5.54q0-3.73-2.15-5.45t-6.77-1.72h-3.06Z"/>
        <path class="cls-2" d="M842.19,501.37L837,543.76h-7.29l5.22-42.39H823.14l0.83-6.78h30.29l-0.83,6.78H842.19Z"/> -->
      <!-- </g>
    </g>
  </g> -->

  <g id="Title" data-name="Title">
    <g id="Title_B" data-name="Title B">
      <g>
        <path d="M170.27,406.35V242.61h67.89q72.33,0,72.33,82,0,81.69-75,81.69H170.27Zm47.5-13.55h12.47q17.15,0,23.75-14.81t6.6-53.56q0-38.74-6.54-53.5t-23.81-14.75H217.77V392.79Z"/>
        <path d="M329.92,406.35V285.55a318.45,318.45,0,0,0,43.78-3.24v124H329.92Zm22.19-167.81q20.39,0,20.39,15.83T352.12,270.2q-20.39,0-20.39-15.83T352.12,238.53Z"/>
        <path d="M520.41,402a86.24,86.24,0,0,1-31.31,6.24q-22.55,0-27.83-14-10.92,14.64-31.43,14.63-38.27,0-38.26-35.51,0-27,35-37.91,32.14-10.08,32.15-24.23,0-18.59-18.47-18.59-21.35,0-21.35,18,0,5.64,3.36,14.87l-21.71-4.2a71.75,71.75,0,0,1-.84-10.56q0-28.79,52.54-28.79,49.9,0,49.9,26.87v73.41q0,11.28,7.32,11.28,2.28,0,6.72-2.52Zm-62-68.37a37.12,37.12,0,0,1-9.48,7.8q-13.56,7.92-13.55,26.63,0,24,9.36,24,13.68,0,13.67-23.75V333.65Z"/>
        <path d="M528.09,406.35V242.61q10.67,0,43.78-2.52v58.18q12.24-16,27.23-16,42.94,0,42.94,59.5Q642,409,590.94,409q-24.11,0-41.14-22.67l-10.8,20H528.09Zm57.46-106.4q-14.52,0-14.52,42,0,49.42,14.16,49.42,12.35,0,12.35-25.79l0.72-29.63-0.84-16.67Q595.5,299.95,585.55,299.95Z"/>
        <path d="M747.24,362.08l17.63,5.16q-2.76,41.86-49.42,41.86-60.45,0-60.46-60.34,0-29.27,16.07-48t41.14-18.71q52.42,0,52.42,67.65H700.82q0,47.5,24.11,47.5,22.55,0,22.55-26.87Q747.48,366.76,747.24,362.08ZM700.7,336.17h26.15q0-42.22-12.71-42.22-11.52,0-13,31.31Z"/>
        <path d="M848.72,285.79v13.55H829.29v85.53q0,8,5.16,8,3.71,0,4.44-5.4l12.47,1.2q-5.16,19-32.87,19-33,0-33-28.07V299.35H770.87V285.79h14.63V264.44a197.33,197.33,0,0,0,43.78-18v39.34h19.43Z"/>
        <path d="M949.24,362.08l17.63,5.16q-2.76,41.86-49.42,41.86-60.45,0-60.46-60.34,0-29.27,16.07-48t41.14-18.71q52.42,0,52.42,67.65H902.82q0,47.5,24.11,47.5,22.55,0,22.55-26.87Q949.48,366.76,949.24,362.08ZM902.7,336.17h26.15q0-42.22-12.71-42.22-11.52,0-13,31.31Z"/>
        <path d="M1079.75,316.5l-21.23,3.72q0-27.11-25.19-27.11-15.47,0-15.47,12.71,0,9.36,26.63,20.15,40.78,16.67,40.78,42.34,0,40.91-51.94,40.9-54.94,0-54.94-40.9l22.55-4.56a61.9,61.9,0,0,0-.48,7.44q0,10.56,8.82,18.35a30.39,30.39,0,0,0,20.81,7.8q15.83,0,15.83-13.43,0-9-25.55-19.91-38.5-16.55-38.5-42.46,0-17.15,14.75-28.13t37.9-11Q1075.67,282.43,1079.75,316.5Z"/>
      </g>
      <g>
        <path d="M181.64,138.2l-9.12,74.08H161.87l8.84-74.08h10.93Z"/>
        <path d="M262.39,138.2l-9.69,79.17-45-57.39-6.43,52.3H190.66L200,134.17l44.92,57.29,6.53-53.26h10.94Z"/>
        <path d="M319.1,149.38l-7.34,7q-5.23-7.68-12-7.68a11.7,11.7,0,0,0-8.11,2.88,9.29,9.29,0,0,0-3.21,7.22,8.77,8.77,0,0,0,2.21,6,21.14,21.14,0,0,0,3.24,2.7q2.13,1.51,5.35,3.34,9.55,5.3,12.76,9.6t3.26,11.38q0,9.14-6.11,14.81t-16.29,5.67a25.48,25.48,0,0,1-14-3.63,23.87,23.87,0,0,1-5.37-4.73,43.9,43.9,0,0,1-4.8-7l8.35-5.66q3.41,6,6.67,8.25a14.63,14.63,0,0,0,8.49,2.26q5.81,0,9.09-2.92t3.29-8.31a8.8,8.8,0,0,0-2.4-6.26,21.11,21.11,0,0,0-3.57-3q-2.38-1.64-6-3.7-8.35-4.7-11.66-9A17.31,17.31,0,0,1,277.79,158a18.54,18.54,0,0,1,6-14.16q6.07-5.66,15.57-5.66a20.65,20.65,0,0,1,10.56,2.54Q314.4,143.28,319.1,149.38Z"/>
        <path d="M346.17,138.2L337,212.28H326.4l8.84-74.08h10.93Z"/>
        <path d="M364.25,138.2h14.88a73.84,73.84,0,0,1,13,.86,25.33,25.33,0,0,1,8.53,3.12A28.8,28.8,0,0,1,412,154.7a41.38,41.38,0,0,1,4.15,18.67,44.5,44.5,0,0,1-4.67,20.25A37.75,37.75,0,0,1,406,201.7a31.37,31.37,0,0,1-7.1,5.93,31.91,31.91,0,0,1-9.77,3.69,59.62,59.62,0,0,1-6.49.72q-3.77.24-8.82,0.24H355.19Zm8.44,10.51-6.85,53.07h8.7q9.6,0,15-1.8a19.82,19.82,0,0,0,9.15-6.55q6.8-8.16,6.8-20.46a28.15,28.15,0,0,0-3-13.39,19,19,0,0,0-8.4-8.45q-5-2.42-14.94-2.42h-6.4Z"/>
        <path d="M471.21,138.2L470,148.71H442.75l-2.35,18.66h27.21l-1.15,9.74H439.25l-3.07,24.66h27.21l-1.3,10.51H425.53l7.94-74.08h37.74Z"/>
      </g>
    </g>
    <g id="Title_W" data-name="Title W">
      <g>
        <path class="cls-2" d="M162.08,398.16V234.42H230q72.33,0,72.33,82,0,81.69-75,81.69H162.08Zm47.5-13.55h12.47q17.15,0,23.75-14.81t6.6-53.56q0-38.74-6.54-53.5T222.05,248H209.58V384.6Z"/>
        <path class="cls-2" d="M321.74,398.16V277.36a318.46,318.46,0,0,0,43.78-3.24v124H321.74Zm22.19-167.81q20.39,0,20.39,15.83T343.93,262q-20.39,0-20.39-15.83T343.93,230.34Z"/>
        <path class="cls-2" d="M512.22,393.84a86.25,86.25,0,0,1-31.31,6.24q-22.55,0-27.83-14-10.92,14.64-31.43,14.63-38.27,0-38.26-35.51,0-27,35-37.91,32.14-10.08,32.15-24.23,0-18.59-18.47-18.59-21.35,0-21.35,18,0,5.64,3.36,14.87l-21.71-4.2a71.77,71.77,0,0,1-.84-10.56q0-28.79,52.54-28.79,49.9,0,49.9,26.87V374q0,11.28,7.32,11.28,2.28,0,6.72-2.52Zm-62-68.37a37.12,37.12,0,0,1-9.48,7.8q-13.56,7.92-13.55,26.63,0,24,9.36,24,13.68,0,13.67-23.75V325.47Z"/>
        <path class="cls-2" d="M519.9,398.16V234.42q10.67,0,43.78-2.52v58.18q12.23-16,27.23-16,42.94,0,42.94,59.5,0,67.18-51.1,67.17-24.11,0-41.14-22.67l-10.8,20H519.9Zm57.46-106.4q-14.51,0-14.51,42,0,49.42,14.15,49.42,12.35,0,12.36-25.79l0.72-29.63-0.84-16.67Q587.31,291.76,577.36,291.76Z"/>
        <path class="cls-2" d="M739.05,353.89l17.63,5.16q-2.76,41.86-49.42,41.86-60.46,0-60.46-60.34,0-29.27,16.07-48T704,273.89q52.42,0,52.42,67.65H692.63q0,47.5,24.11,47.5,22.55,0,22.55-26.87Q739.29,358.57,739.05,353.89ZM692.51,328h26.15q0-42.22-12.71-42.22-11.51,0-13,31.31Z"/>
        <path class="cls-2" d="M840.54,277.6v13.55H821.1v85.53q0,8,5.16,8,3.72,0,4.44-5.4l12.48,1.2q-5.16,19-32.87,19-33,0-33-28.07V291.16H762.69V277.6h14.63V256.25a197.27,197.27,0,0,0,43.78-18V277.6h19.43Z"/>
        <path class="cls-2" d="M941.06,353.89l17.63,5.16q-2.76,41.86-49.42,41.86-60.46,0-60.46-60.34,0-29.27,16.07-48T906,273.89q52.42,0,52.42,67.65H894.63q0,47.5,24.11,47.5,22.55,0,22.55-26.87Q941.3,358.57,941.06,353.89ZM894.51,328h26.15q0-42.22-12.71-42.22-11.51,0-13,31.31Z"/>
        <path class="cls-2" d="M1071.57,308.31L1050.33,312q0-27.11-25.19-27.11-15.47,0-15.47,12.71,0,9.36,26.63,20.15,40.78,16.67,40.79,42.34,0,40.91-51.94,40.9-54.94,0-54.94-40.9l22.55-4.56a61.9,61.9,0,0,0-.48,7.44q0,10.56,8.82,18.35a30.38,30.38,0,0,0,20.81,7.8q15.83,0,15.83-13.43,0-9-25.55-19.91-38.5-16.55-38.51-42.46,0-17.15,14.75-28.13t37.91-11Q1067.48,274.25,1071.57,308.31Z"/>
      </g>
      <g>
        <path class="cls-2" d="M173.45,130l-9.12,74.08H153.68L162.52,130h10.93Z"/>
        <path class="cls-2" d="M254.2,130l-9.69,79.17-45-57.39-6.43,52.3H182.47L191.82,126l44.92,57.29L243.26,130H254.2Z"/>
        <path class="cls-2" d="M310.92,141.19l-7.34,7q-5.23-7.68-12-7.68a11.7,11.7,0,0,0-8.11,2.88,9.29,9.29,0,0,0-3.21,7.22,8.77,8.77,0,0,0,2.21,6,21.14,21.14,0,0,0,3.24,2.7q2.13,1.51,5.35,3.34,9.55,5.3,12.76,9.6t3.26,11.38q0,9.14-6.11,14.81t-16.29,5.67a25.48,25.48,0,0,1-14-3.63,23.88,23.88,0,0,1-5.37-4.73,43.94,43.94,0,0,1-4.8-7l8.35-5.66q3.41,6,6.67,8.25a14.63,14.63,0,0,0,8.49,2.26q5.81,0,9.09-2.92t3.29-8.31a8.8,8.8,0,0,0-2.4-6.26,21.16,21.16,0,0,0-3.57-3q-2.38-1.64-6-3.7-8.35-4.7-11.66-9a17.31,17.31,0,0,1-3.17-10.64,18.54,18.54,0,0,1,6-14.16Q281.7,130,291.2,130a20.65,20.65,0,0,1,10.56,2.54Q306.21,135.09,310.92,141.19Z"/>
        <path class="cls-2" d="M338,130l-9.12,74.08H318.21L327,130H338Z"/>
        <path class="cls-2" d="M356.06,130h14.88a73.78,73.78,0,0,1,13,.86,25.33,25.33,0,0,1,8.53,3.12,28.81,28.81,0,0,1,11.35,12.52,41.38,41.38,0,0,1,4.15,18.67,44.5,44.5,0,0,1-4.67,20.25,37.78,37.78,0,0,1-5.44,8.08,31.35,31.35,0,0,1-7.1,5.93,31.91,31.91,0,0,1-9.77,3.69,59.74,59.74,0,0,1-6.49.72q-3.77.24-8.82,0.24H347Zm8.44,10.51-6.85,53.07h8.7q9.6,0,15-1.8a19.82,19.82,0,0,0,9.15-6.55q6.8-8.16,6.8-20.46a28.16,28.16,0,0,0-3-13.39,19,19,0,0,0-8.4-8.45q-5-2.42-14.94-2.42h-6.4Z"/>
        <path class="cls-2" d="M463,130l-1.25,10.51H434.56l-2.35,18.66h27.21l-1.15,9.74H431.06L428,193.58H455.2l-1.3,10.51H417.34L425.28,130H463Z"/>
      </g>
    </g>
  </g>
  <rect id="Start_Button_Outline" class="start-button" data-name="Button Outline" x="270" y="475" width="680" height="70"/>
</svg>
