<svg id="diabetes-menu" xmlns="http://www.w3.org/2000/svg" viewBox="0 0 1225 690">
  <defs>
    <style>
      <!--General CSS classes-->

      .dimmer {
        fill: #2d2d2d;
        pointer-events:none;
      }

      .base {
        fill: #c1c1c1;
      }

      .recess {
        fill: #4c4c4c;
        stroke-width: 3.81px;
        stroke: #211e1f;
        stroke-miterlimit: 10;
      }

      <!--Text CSS classes-->

      .black-text {
        fill: #333;
      }

      <!--Labels CSS classes-->

      .labels {
         fill: #fff;
         pointer-events:none;
      }

      <!--Green Buttons CSS classes-->

      .green-button {
        fill: #2ea062;
        stroke: #211e1f;
        stroke-miterlimit: 10;
        stroke-width: 3.18px;
        cursor: pointer;
      }

      .green-timeline {
         fill:#66FFCC;
         stroke: #fff;
         stroke-miterlimit: 10;
         stroke-width: 2.63px;
         cursor: pointer;
      }

      <!--Sleep CSS classes-->

      .sleep-button {
        fill: #96c;
        stroke: #211e1f;
        stroke-miterlimit: 10;
        stroke-width: 3.18px;
        cursor: pointer;
      }

      .sleep-timeline {
         fill:#CC99FF;
         stroke: #fff;
         stroke-miterlimit: 10;
         stroke-width: 2.63px;
         cursor: pointer;
      }
      <!--Exercise CSS classes-->

      .exercise-button {
        fill: #c36;
        stroke: #211e1f;
        stroke-miterlimit: 10;
        stroke-width: 3.18px;
        cursor: pointer;
      }

      .exercise-timeline {
         fill:#FF66CC;
         stroke: #fff;
         stroke-miterlimit: 10;
         stroke-width: 2.63px;
         cursor: pointer;
      }
      <!--Intro CSS classes-->

      .intro-button {
        fill: #399;
        stroke-width: 2.63px;
        stroke: #211e1f;
        stroke-miterlimit: 10;
        cursor: pointer;
      }

      .intro-timeline {
         fill:#33CCFF;
         stroke: #fff;
         stroke-miterlimit: 10;
         stroke-width: 2.63px;
         cursor: pointer;
      }

    </style>
  </defs>
  <title>Diabetes_Menu-Outline</title>
  <rect id="Background" data-name="Background" class="base" width="1225" height="690"/>
  <path id="Recess" data-name="Recess" class="recess" d="M568.39,284.41H184V195.26H568.39v89.15ZM1039,195.26H654.61v89.15H1039V195.26ZM568.39,314.64H184v89.15H568.39V314.64Zm470.65,0H654.61v89.15H1039V314.64ZM568.39,435.07H184v89.15H568.39V435.07Zm470.65,0H654.61v89.15H1039V435.07ZM568.39,555.51H184v89.15H568.39V555.51Zm470.65,0H654.61v89.15H1039V555.51ZM973,31.43H250v89.15H973V31.43Z"/>
  <g>
    <path class="black-text" d="M304.28,144.35l-0.46,3.91H293.68l-0.88,7h10.13l-0.43,3.63H292.38L291.23,168h10.13l-0.48,3.91H287.27l3-27.59h14.06Z"/>
    <path class="black-text" d="M318.69,157.58l6.88,14.37h-4.29l-5.13-11-7.63,11h-4.79l10.47-14.8-6.06-12.8h4.34l4.25,9.49,6.45-9.49H328Z"/>
    <path class="black-text" d="M332.39,144.35H338a10.43,10.43,0,0,1,5.56,1.21,6.73,6.73,0,0,1,2.47,2.77,8.78,8.78,0,0,1,.89,3.88,8.56,8.56,0,0,1-1.66,5.22q-2.47,3.34-7.77,3.34h-3l-1.38,11.17H329Zm3.77,3.91-1.11,8.88h2.66a5.41,5.41,0,0,0,3.87-1.28,4.86,4.86,0,0,0,1.35-3.7q0-3.9-5-3.9h-1.73Z"/>
    <path class="black-text" d="M357,144.35L354.11,168h7.81l-0.46,3.91h-11.9l3.4-27.59H357Z"/>
    <path class="black-text" d="M392.51,157.64a14.42,14.42,0,0,1-2.49,8.24,13.26,13.26,0,0,1-5.16,4.49,15.61,15.61,0,0,1-7,1.58,13.81,13.81,0,0,1-10.07-3.8,14.28,14.28,0,0,1,.23-19.84,14.54,14.54,0,0,1,10.46-4A14.23,14.23,0,0,1,388.64,148,12.6,12.6,0,0,1,392.51,157.64Zm-4,0a8.93,8.93,0,0,0-2.7-6.81,10.16,10.16,0,0,0-7.25-2.54,10.94,10.94,0,0,0-7.68,2.86,9.92,9.92,0,0,0-.22,14.15,10,10,0,0,0,7.23,2.76,10.36,10.36,0,0,0,7.58-3A9.92,9.92,0,0,0,388.55,157.61Z"/>
    <path class="black-text" d="M406.79,160.31l6.93,11.63H409.4l-6.54-11.35h-1.48L400,171.95h-4.09l3.4-27.59h5.42a14.66,14.66,0,0,1,4.2.48,6,6,0,0,1,2.68,1.64,7.84,7.84,0,0,1,2.16,5.72Q413.75,158.62,406.79,160.31Zm-3.74-12L402,157.13h1.88a9.1,9.1,0,0,0,3.09-.39,4,4,0,0,0,1.82-1.34,5,5,0,0,0,1-3.11,3.68,3.68,0,0,0-1.21-3.06,6.06,6.06,0,0,0-3.8-1h-1.72Z"/>
    <path class="black-text" d="M434.87,144.35l-0.46,3.91H424.27l-0.88,7h10.13l-0.43,3.63H423L421.82,168H432l-0.48,3.91H417.86l3-27.59h14.06Z"/>
    <path class="black-text" d="M459.55,159.6L458,171.95h-4.09l1.57-12.64-7.17-15h4.4l5.09,11,7.24-11h4.7Z"/>
    <path class="black-text" d="M497.56,157.64a14.42,14.42,0,0,1-2.49,8.24,13.26,13.26,0,0,1-5.16,4.49,15.61,15.61,0,0,1-7,1.58,13.81,13.81,0,0,1-10.07-3.8,14.28,14.28,0,0,1,.23-19.84,14.54,14.54,0,0,1,10.46-4A14.23,14.23,0,0,1,493.69,148,12.59,12.59,0,0,1,497.56,157.64Zm-4,0a8.93,8.93,0,0,0-2.7-6.81,10.16,10.16,0,0,0-7.25-2.54,10.94,10.94,0,0,0-7.68,2.86,9.92,9.92,0,0,0-.22,14.15A10,10,0,0,0,483,168a10.36,10.36,0,0,0,7.58-3A9.92,9.92,0,0,0,493.6,157.61Z"/>
    <path class="black-text" d="M525,144.35l-2,16q-0.68,5.29-2.54,7.75a9.93,9.93,0,0,1-8.29,3.82,10.15,10.15,0,0,1-7.06-2.52,8.34,8.34,0,0,1-2.74-6.35q0-.81.06-1.7t0.18-1.89l1.84-15.13h4l-1.95,15.52q-0.09.7-.13,1.29t0,1.1a6,6,0,0,0,10.47,3.83q1.61-2,2.18-6.39l1.93-15.35H525Z"/>
    <path class="black-text" d="M539.08,160.31L546,171.95h-4.32l-6.54-11.35h-1.48l-1.39,11.35h-4.09l3.4-27.59H537a14.66,14.66,0,0,1,4.2.48,6,6,0,0,1,2.68,1.64A7.85,7.85,0,0,1,546,152.2Q546,158.62,539.08,160.31Zm-3.73-12-1.07,8.86h1.88a9.1,9.1,0,0,0,3.09-.39,4,4,0,0,0,1.82-1.34,5,5,0,0,0,1-3.11,3.68,3.68,0,0,0-1.21-3.06,6.06,6.06,0,0,0-3.8-1h-1.72Z"/>
    <path class="black-text" d="M571.89,148.27L569,171.95h-4l2.84-23.68h-6.5l0.46-3.91h16.87l-0.46,3.91h-6.31Z"/>
    <path class="black-text" d="M589.73,160.31l6.93,11.63h-4.32L585.8,160.6h-1.48l-1.39,11.35h-4.09l3.4-27.59h5.42a14.66,14.66,0,0,1,4.2.48,6,6,0,0,1,2.68,1.64,7.85,7.85,0,0,1,2.16,5.72Q596.68,158.62,589.73,160.31Zm-3.73-12-1.07,8.86h1.88a9.1,9.1,0,0,0,3.09-.39,4,4,0,0,0,1.82-1.34,5,5,0,0,0,1-3.11,3.68,3.68,0,0,0-1.21-3.06,6.06,6.06,0,0,0-3.8-1H586Z"/>
    <path class="black-text" d="M617.8,144.35l-0.46,3.91H607.21l-0.88,7h10.13L616,158.85H605.9L604.76,168h10.13l-0.48,3.91H600.79l3-27.59H617.8Z"/>
    <path class="black-text" d="M625.88,165.46l-3.36,6.49h-4.45l15.26-29.56,9.53,29.56h-4.27l-2-6.49H625.88Zm1.77-3.63h7.79l-3-9.81Z"/>
    <path class="black-text" d="M655,148.27L652,171.95h-4l2.84-23.68h-6.51l0.46-3.91h16.87l-0.46,3.91H655Z"/>
    <path class="black-text" d="M690.85,141.74l2.27,30.2h-4.61l-1.23-17.59-10.69,19.52-5.92-19.52-5.5,17.59H661l9.54-29.54,7,22.55Z"/>
    <path class="black-text" d="M714.65,144.35l-0.46,3.91H704.05l-0.88,7h10.13l-0.43,3.63H702.75L701.6,168h10.13l-0.48,3.91H697.64l3-27.59h14.06Z"/>
    <path class="black-text" d="M743.82,144.35l-3.61,29.49-16.75-21.37-2.39,19.48h-4l3.48-29.1,16.73,21.34,2.43-19.84h4.08Z"/>
    <path class="black-text" d="M757.65,148.27l-2.93,23.68h-4l2.84-23.68h-6.5l0.46-3.91h16.87L764,148.27h-6.31Z"/>
    <path class="black-text" d="M805,157.64a14.41,14.41,0,0,1-2.49,8.24,13.26,13.26,0,0,1-5.16,4.49,15.61,15.61,0,0,1-7,1.58,13.81,13.81,0,0,1-10.07-3.8,14.28,14.28,0,0,1,.23-19.84,14.54,14.54,0,0,1,10.46-4A14.23,14.23,0,0,1,801.08,148,12.6,12.6,0,0,1,805,157.64Zm-4,0a8.93,8.93,0,0,0-2.7-6.81,10.16,10.16,0,0,0-7.25-2.54,10.94,10.94,0,0,0-7.68,2.86,9.92,9.92,0,0,0-.22,14.15,10,10,0,0,0,7.23,2.76,10.36,10.36,0,0,0,7.58-3A9.92,9.92,0,0,0,801,157.61Z"/>
    <path class="black-text" d="M811.75,144.35h5.59a10.43,10.43,0,0,1,5.56,1.21,6.74,6.74,0,0,1,2.47,2.77,8.78,8.78,0,0,1,.89,3.88,8.56,8.56,0,0,1-1.66,5.22q-2.47,3.34-7.77,3.34h-3l-1.38,11.17h-4.09Zm3.77,3.91-1.11,8.88h2.66a5.41,5.41,0,0,0,3.87-1.28,4.86,4.86,0,0,0,1.35-3.7q0-3.9-5-3.9h-1.73Z"/>
    <path class="black-text" d="M839.36,148.27l-2.93,23.68h-4l2.84-23.68H828.8l0.46-3.91h16.87l-0.46,3.91h-6.31Z"/>
    <path class="black-text" d="M853.82,144.35l-3.4,27.59h-4l3.29-27.59h4.07Z"/>
    <path class="black-text" d="M886.1,157.64a14.42,14.42,0,0,1-2.49,8.24,13.25,13.25,0,0,1-5.16,4.49,15.61,15.61,0,0,1-7,1.58,13.81,13.81,0,0,1-10.07-3.8,14.28,14.28,0,0,1,.23-19.84,14.54,14.54,0,0,1,10.46-4A14.23,14.23,0,0,1,882.22,148,12.59,12.59,0,0,1,886.1,157.64Zm-4,0a8.93,8.93,0,0,0-2.7-6.81,10.16,10.16,0,0,0-7.25-2.54,10.94,10.94,0,0,0-7.68,2.86,9.92,9.92,0,0,0-.22,14.15,10,10,0,0,0,7.23,2.76,10.36,10.36,0,0,0,7.58-3A9.92,9.92,0,0,0,882.13,157.61Z"/>
    <path class="black-text" d="M916.35,144.35l-3.61,29.49L896,152.47l-2.4,19.48h-4l3.48-29.1,16.73,21.34,2.43-19.84h4.07Z"/>
    <path class="black-text" d="M937.48,148.52l-2.73,2.61q-1.95-2.86-4.47-2.86a4.36,4.36,0,0,0-3,1.07,3.46,3.46,0,0,0-1.2,2.69,3.27,3.27,0,0,0,.82,2.23,7.85,7.85,0,0,0,1.21,1q0.79,0.56,2,1.24a15.47,15.47,0,0,1,4.75,3.58,6.87,6.87,0,0,1,1.21,4.24,7.17,7.17,0,0,1-2.28,5.52,8.54,8.54,0,0,1-6.07,2.11,9.49,9.49,0,0,1-5.2-1.35,8.9,8.9,0,0,1-2-1.76,16.26,16.26,0,0,1-1.79-2.6l3.11-2.11a9.28,9.28,0,0,0,2.48,3.07,5.45,5.45,0,0,0,3.16.84,4.92,4.92,0,0,0,3.39-1.09,3.92,3.92,0,0,0,1.22-3.1,3.28,3.28,0,0,0-.89-2.33,7.89,7.89,0,0,0-1.33-1.11q-0.88-.61-2.24-1.38a14.69,14.69,0,0,1-4.34-3.33,6.44,6.44,0,0,1-1.18-4,6.9,6.9,0,0,1,2.24-5.27,8.16,8.16,0,0,1,5.8-2.11,7.69,7.69,0,0,1,3.93.95A12.17,12.17,0,0,1,937.48,148.52Z"/>
  </g>
  <g id="Button_Incretins">
     <rect id="Incretins_BG" class="green-button" x="670.19" y="566.49" width="353.26" height="67.19"/>
     <g id="INCRETINS" class="labels">
       <path d="M762.46,585.43L759.06,613h-4l3.29-27.59h4.07Z"/>
       <path d="M792.54,585.43l-3.61,29.49-16.75-21.37L769.79,613h-4l3.48-29.09L786,605.27l2.43-19.84h4.07Z"/>
       <path d="M819.06,588.5L818.51,593a11.6,11.6,0,0,0-8.56-3.65,9.18,9.18,0,0,0-7.08,2.92,10.66,10.66,0,0,0-2.72,7.58,8.91,8.91,0,0,0,2.61,6.82q2.59,2.44,7.33,2.44a10.8,10.8,0,0,0,7-2.43l-0.59,4.9a20.07,20.07,0,0,1-7.09,1.44,13,13,0,0,1-9.65-3.66,13.25,13.25,0,0,1-3.54-9.66,14.44,14.44,0,0,1,3.76-10.21,13.07,13.07,0,0,1,9.82-4.06A16.68,16.68,0,0,1,819.06,588.5Z"/>
       <path d="M831.91,601.39L838.84,613h-4.33L828,601.67H826.5L825.1,613H821l3.4-27.59h5.42a14.67,14.67,0,0,1,4.2.48,6,6,0,0,1,2.68,1.64,7.84,7.84,0,0,1,2.16,5.72Q838.86,599.69,831.91,601.39Zm-3.74-12-1.07,8.86H829a9.14,9.14,0,0,0,3.09-.39,4,4,0,0,0,1.82-1.34,5,5,0,0,0,1-3.11,3.68,3.68,0,0,0-1.21-3.06,6.07,6.07,0,0,0-3.8-1h-1.72Z"/>
       <path d="M860,585.43l-0.46,3.91H849.39l-0.88,7h10.13l-0.43,3.63H848.08l-1.14,9.19h10.13L856.59,613H843l3-27.59H860Z"/>
       <path d="M872.89,589.34L870,613h-4l2.84-23.68h-6.51l0.46-3.91h16.87l-0.46,3.91h-6.31Z"/>
       <path d="M887.35,585.43L884,613h-4l3.29-27.59h4.07Z"/>
       <path d="M917.43,585.43l-3.61,29.49-16.75-21.37L894.67,613h-4l3.48-29.09,16.73,21.34,2.43-19.84h4.07Z"/>
       <path d="M938.55,589.59l-2.73,2.61q-1.95-2.86-4.47-2.86a4.36,4.36,0,0,0-3,1.07,3.46,3.46,0,0,0-1.2,2.69,3.27,3.27,0,0,0,.82,2.23,7.85,7.85,0,0,0,1.21,1q0.79,0.56,2,1.24a15.49,15.49,0,0,1,4.75,3.58,6.87,6.87,0,0,1,1.21,4.24,7.17,7.17,0,0,1-2.28,5.52,8.54,8.54,0,0,1-6.07,2.11,9.48,9.48,0,0,1-5.2-1.35,8.89,8.89,0,0,1-2-1.76,16.27,16.27,0,0,1-1.79-2.6l3.11-2.11a9.28,9.28,0,0,0,2.48,3.07,5.45,5.45,0,0,0,3.16.84,4.92,4.92,0,0,0,3.39-1.09,3.93,3.93,0,0,0,1.22-3.1,3.28,3.28,0,0,0-.89-2.33,7.93,7.93,0,0,0-1.33-1.11q-0.88-.61-2.24-1.38a14.67,14.67,0,0,1-4.34-3.33,6.44,6.44,0,0,1-1.18-4,6.91,6.91,0,0,1,2.24-5.27,8.16,8.16,0,0,1,5.8-2.11,7.69,7.69,0,0,1,3.93.95A12.16,12.16,0,0,1,938.55,589.59Z"/>
     </g>
  </g>
  <g id="Button_Gliflozin">
     <rect id="Gliflozin_BG" class="green-button" x="199.55" y="566.49" width="353.26" height="67.19"/>
     <g id="GLIFLOZIN" class="labels">
       <path d="M300.49,600.1h11a16.56,16.56,0,0,1-2.25,7.45A11.4,11.4,0,0,1,299,613a12.57,12.57,0,0,1-9.4-3.73,13.06,13.06,0,0,1-3.65-9.53,16.07,16.07,0,0,1,1.22-6.14,13.18,13.18,0,0,1,3.4-4.88,13.64,13.64,0,0,1,9.35-3.32,13.88,13.88,0,0,1,11.31,5.63l-2.66,2.72a10.49,10.49,0,0,0-8.72-4.43,9.47,9.47,0,0,0-7.17,2.87,10.35,10.35,0,0,0-2.77,7.45,9.3,9.3,0,0,0,2.59,6.81,9,9,0,0,0,6.74,2.64,8.55,8.55,0,0,0,5-1.44,6.46,6.46,0,0,0,2.65-3.94H300Z"/>
       <path d="M322.58,585.43l-2.91,23.68h7.81L327,613h-11.9l3.4-27.59h4.08Z"/>
       <path d="M338.24,585.43L334.84,613h-4l3.29-27.59h4.07Z"/>
       <path d="M358.5,585.43L358,589.34h-9.54l-0.88,6.92h9.54l-0.43,3.63h-9.56L345.56,613h-4l3.31-27.59h13.6Z"/>
       <path d="M367.12,585.43l-2.91,23.68H372L371.55,613h-11.9l3.4-27.59h4.07Z"/>
       <path d="M402.61,598.72a14.42,14.42,0,0,1-2.49,8.23,13.26,13.26,0,0,1-5.16,4.49,15.61,15.61,0,0,1-7,1.58,13.81,13.81,0,0,1-10.07-3.8,14.28,14.28,0,0,1,.23-19.84,14.54,14.54,0,0,1,10.46-4,14.23,14.23,0,0,1,10.19,3.66A12.59,12.59,0,0,1,402.61,598.72Zm-4,0a8.93,8.93,0,0,0-2.7-6.81,10.16,10.16,0,0,0-7.25-2.54A10.94,10.94,0,0,0,381,592.2a9.92,9.92,0,0,0-.22,14.15,10,10,0,0,0,7.23,2.76,10.36,10.36,0,0,0,7.58-3A9.92,9.92,0,0,0,398.64,598.69Z"/>
       <path d="M425,609.11L424.54,613H404.22l16.32-23.68H408.92l0.46-3.91h18.26l-16.28,23.68H425Z"/>
       <path d="M436.33,585.43L432.94,613h-4l3.29-27.59h4.07Z"/>
       <path d="M466.41,585.43l-3.61,29.49-16.75-21.37L443.66,613h-4l3.48-29.09,16.73,21.34,2.43-19.84h4.07Z"/>
     </g>
  </g>
  <g id="Button_Secretagogue">
     <rect id="Secretagogue_BG" class="green-button" x="670.19" y="446.05" width="353.26" height="67.19"/>
     <g id="SECRETAGOGUE" class="labels">
       <path d="M724.06,469.16l-2.73,2.61q-1.95-2.86-4.47-2.86a4.36,4.36,0,0,0-3,1.07,3.46,3.46,0,0,0-1.2,2.69,3.27,3.27,0,0,0,.82,2.23,7.9,7.9,0,0,0,1.21,1q0.79,0.56,2,1.24a15.46,15.46,0,0,1,4.75,3.58,6.87,6.87,0,0,1,1.22,4.24,7.17,7.17,0,0,1-2.28,5.52,8.54,8.54,0,0,1-6.07,2.11,9.49,9.49,0,0,1-5.2-1.35,8.92,8.92,0,0,1-2-1.76,16.39,16.39,0,0,1-1.79-2.6l3.11-2.11a9.27,9.27,0,0,0,2.48,3.07,5.45,5.45,0,0,0,3.16.84,4.91,4.91,0,0,0,3.39-1.09,3.92,3.92,0,0,0,1.22-3.1,3.28,3.28,0,0,0-.89-2.33,7.9,7.9,0,0,0-1.33-1.11q-0.88-.61-2.24-1.38a14.69,14.69,0,0,1-4.34-3.33,6.45,6.45,0,0,1-1.18-4,6.91,6.91,0,0,1,2.24-5.27,8.17,8.17,0,0,1,5.8-2.11,7.7,7.7,0,0,1,3.93.95A12.21,12.21,0,0,1,724.06,469.16Z"/>
       <path d="M743.79,465l-0.46,3.91H733.19l-0.87,7h10.13L742,479.49H731.89l-1.14,9.19h10.13l-0.48,3.91H726.78l3-27.59h14.06Z"/>
       <path d="M769.39,468.07l-0.55,4.48a11.6,11.6,0,0,0-8.56-3.65,9.18,9.18,0,0,0-7.08,2.92,10.66,10.66,0,0,0-2.72,7.58,8.91,8.91,0,0,0,2.61,6.82q2.59,2.44,7.33,2.44a10.8,10.8,0,0,0,7-2.43l-0.59,4.9a20.07,20.07,0,0,1-7.1,1.45,13,13,0,0,1-9.65-3.66,13.25,13.25,0,0,1-3.54-9.66A14.44,14.44,0,0,1,750.27,469a13.06,13.06,0,0,1,9.82-4.06A16.68,16.68,0,0,1,769.39,468.07Z"/>
       <path d="M782.24,481l6.93,11.63h-4.32l-6.54-11.35h-1.48l-1.39,11.35h-4.09l3.4-27.59h5.42a14.64,14.64,0,0,1,4.2.48,6,6,0,0,1,2.68,1.64,7.84,7.84,0,0,1,2.16,5.72Q789.19,479.25,782.24,481Zm-3.74-12-1.07,8.86h1.88a9.1,9.1,0,0,0,3.09-.39,4,4,0,0,0,1.82-1.34,5,5,0,0,0,1-3.11,3.68,3.68,0,0,0-1.21-3.06,6.06,6.06,0,0,0-3.8-1H778.5Z"/>
       <path d="M810.31,465l-0.46,3.91H799.71l-0.88,7H809l-0.43,3.63H798.41l-1.14,9.19H807.4l-0.48,3.91H793.3l3-27.59h14.06Z"/>
       <path d="M823.21,468.91l-2.93,23.68h-4l2.84-23.68h-6.5l0.46-3.91H830l-0.46,3.91h-6.31Z"/>
       <path d="M833.92,486.1l-3.36,6.49h-4.45L841.37,463l9.53,29.56h-4.27l-2-6.49H833.92Zm1.77-3.63h7.79l-3-9.81Z"/>
       <path d="M867.64,479.67h11a16.56,16.56,0,0,1-2.25,7.44,11.4,11.4,0,0,1-10.29,5.48,12.57,12.57,0,0,1-9.4-3.73,13.06,13.06,0,0,1-3.65-9.53,16.06,16.06,0,0,1,1.22-6.14,13.17,13.17,0,0,1,3.4-4.88,13.64,13.64,0,0,1,9.35-3.32,13.88,13.88,0,0,1,11.31,5.63l-2.66,2.72a10.49,10.49,0,0,0-8.72-4.43,9.47,9.47,0,0,0-7.17,2.87,10.36,10.36,0,0,0-2.77,7.45,9.3,9.3,0,0,0,2.59,6.81,9,9,0,0,0,6.74,2.64,8.55,8.55,0,0,0,5-1.44,6.46,6.46,0,0,0,2.65-3.94H867.2Z"/>
       <path d="M911.18,478.28a14.42,14.42,0,0,1-2.49,8.24,13.25,13.25,0,0,1-5.16,4.49,15.6,15.6,0,0,1-7,1.58,13.81,13.81,0,0,1-10.07-3.8,14.28,14.28,0,0,1,.23-19.84,14.54,14.54,0,0,1,10.46-4,14.23,14.23,0,0,1,10.19,3.66A12.6,12.6,0,0,1,911.18,478.28Zm-4,0a8.94,8.94,0,0,0-2.7-6.81,10.16,10.16,0,0,0-7.25-2.54,10.94,10.94,0,0,0-7.68,2.86,9.92,9.92,0,0,0-.21,14.15,10,10,0,0,0,7.23,2.76,10.36,10.36,0,0,0,7.58-3A9.92,9.92,0,0,0,907.21,478.25Z"/>
       <path d="M929.48,479.67h11a16.53,16.53,0,0,1-2.25,7.44A11.4,11.4,0,0,1,928,492.59a12.57,12.57,0,0,1-9.4-3.73,13.06,13.06,0,0,1-3.65-9.53,16.06,16.06,0,0,1,1.22-6.14,13.16,13.16,0,0,1,3.4-4.88,13.63,13.63,0,0,1,9.35-3.32,13.88,13.88,0,0,1,11.31,5.63l-2.66,2.72a10.48,10.48,0,0,0-8.72-4.43,9.47,9.47,0,0,0-7.17,2.87,10.36,10.36,0,0,0-2.77,7.45,9.31,9.31,0,0,0,2.59,6.81,9,9,0,0,0,6.74,2.64,8.56,8.56,0,0,0,5-1.44,6.46,6.46,0,0,0,2.64-3.94H929Z"/>
       <path d="M968,465l-2,16q-0.68,5.29-2.54,7.75a9.93,9.93,0,0,1-8.29,3.82,10.15,10.15,0,0,1-7.06-2.52,8.34,8.34,0,0,1-2.74-6.35q0-.81.06-1.7t0.18-1.89L947.43,465h4l-1.95,15.52q-0.09.7-.13,1.29c0,0.39,0,.76,0,1.1a6,6,0,0,0,10.47,3.83q1.61-2,2.18-6.39L963.9,465H968Z"/>
       <path d="M988.35,465l-0.46,3.91H977.75l-0.87,7H987l-0.43,3.63H976.45l-1.14,9.19h10.13L985,492.59H971.33l3-27.59h14.06Z"/>
     </g>
  </g>
  <g id="Button_TZD">
     <rect id="TZD_BG" class="green-button" x="199.55" y="446.05" width="353.26" height="67.19"/>
     <g id="TZD" class="labels">
       <path d="M355.15,468.91l-2.93,23.68h-4l2.84-23.68h-6.51l0.46-3.91h16.87l-0.46,3.91h-6.31Z"/>
       <path d="M381.12,488.67l-0.48,3.91H360.32l16.32-23.68H365l0.46-3.91h18.26l-16.28,23.68h13.65Z"/>
       <path d="M388.44,465H394a27.47,27.47,0,0,1,4.83.32,9.45,9.45,0,0,1,3.18,1.16,10.73,10.73,0,0,1,4.23,4.66,15.41,15.41,0,0,1,1.54,7,16.57,16.57,0,0,1-1.74,7.54,14.07,14.07,0,0,1-2,3,11.69,11.69,0,0,1-2.65,2.21,11.88,11.88,0,0,1-3.64,1.38,22.51,22.51,0,0,1-2.42.27q-1.4.09-3.29,0.09h-6.94Zm3.14,3.91L389,488.67h3.24a18.31,18.31,0,0,0,5.58-.67,7.38,7.38,0,0,0,3.41-2.44,11.51,11.51,0,0,0,2.53-7.62,10.49,10.49,0,0,0-1.14-5,7.07,7.07,0,0,0-3.13-3.15,13.35,13.35,0,0,0-5.57-.9h-2.38Z"/>
     </g>
  </g>
  <g id="Button_Insulin">
     <rect id="Insulin_BG" class="green-button" x="670.19" y="325.61" width="353.26" height="67.19"/>
     <g id="INSULIN" class="labels">
       <path d="M783.33,344.56l-3.4,27.59h-4l3.29-27.59h4.07Z"/>
       <path d="M813.4,344.56L809.79,374,793,352.67l-2.39,19.48h-4l3.48-29.09L806.9,364.4l2.43-19.84h4.08Z"/>
       <path d="M834.53,348.72l-2.73,2.61q-1.95-2.86-4.47-2.86a4.36,4.36,0,0,0-3,1.07,3.46,3.46,0,0,0-1.2,2.69,3.27,3.27,0,0,0,.82,2.23,7.84,7.84,0,0,0,1.21,1q0.8,0.56,2,1.24a15.51,15.51,0,0,1,4.75,3.58,6.88,6.88,0,0,1,1.21,4.24,7.17,7.17,0,0,1-2.28,5.52,8.54,8.54,0,0,1-6.07,2.11,9.49,9.49,0,0,1-5.2-1.35,8.89,8.89,0,0,1-2-1.76,16.27,16.27,0,0,1-1.79-2.6l3.11-2.11a9.27,9.27,0,0,0,2.48,3.07,5.45,5.45,0,0,0,3.16.84,4.92,4.92,0,0,0,3.39-1.09,3.93,3.93,0,0,0,1.22-3.1,3.28,3.28,0,0,0-.89-2.33,7.89,7.89,0,0,0-1.33-1.11q-0.88-.61-2.24-1.38a14.67,14.67,0,0,1-4.34-3.33,6.45,6.45,0,0,1-1.18-4,6.91,6.91,0,0,1,2.24-5.27,8.16,8.16,0,0,1,5.8-2.11,7.69,7.69,0,0,1,3.93.95A12.19,12.19,0,0,1,834.53,348.72Z"/>
       <path d="M861.12,344.56l-2,16q-0.68,5.3-2.54,7.75a9.93,9.93,0,0,1-8.29,3.82,10.15,10.15,0,0,1-7.06-2.52,8.34,8.34,0,0,1-2.74-6.35q0-.81.06-1.7t0.18-1.89l1.84-15.13h4l-1.95,15.52c-0.06.46-.1,0.89-0.13,1.29s0,0.76,0,1.1a6,6,0,0,0,10.47,3.83q1.61-2,2.18-6.39L857,344.56h4.07Z"/>
       <path d="M872,344.56L869,368.24h7.81l-0.46,3.91h-11.9l3.4-27.59H872Z"/>
       <path d="M887.61,344.56l-3.4,27.59h-4l3.29-27.59h4.07Z"/>
       <path d="M917.68,344.56L914.07,374l-16.75-21.37-2.4,19.48h-4l3.48-29.09,16.73,21.34,2.43-19.84h4.07Z"/>
     </g>
  </g>
  <g id="Button_Metformin">
     <rect id="Metformin_BG" class="green-button" x="199.55" y="325.61" width="353.26" height="67.19"/>
     <g id="METFORMIN" class="labels">
       <path d="M296.33,341.95l2.27,30.2H294l-1.23-17.58-10.69,19.52-5.92-19.52-5.5,17.58h-4.18L276,342.61l7,22.55Z"/>
       <path d="M320.13,344.56l-0.46,3.91H309.53l-0.88,7h10.13l-0.43,3.63H308.23l-1.14,9.19h10.13l-0.48,3.91H303.12l3-27.59h14.06Z"/>
       <path d="M333,348.47l-2.93,23.68h-4L329,348.47h-6.5l0.46-3.91h16.87l-0.46,3.91H333Z"/>
       <path d="M357,344.56l-0.46,3.91H347l-0.88,6.92h9.54L355.27,359h-9.56l-1.61,13.13h-4l3.31-27.59H357Z"/>
       <path d="M387.54,357.85a14.42,14.42,0,0,1-2.49,8.24,13.26,13.26,0,0,1-5.16,4.49,15.6,15.6,0,0,1-7,1.58,13.81,13.81,0,0,1-10.07-3.8,14.28,14.28,0,0,1,.23-19.84,14.54,14.54,0,0,1,10.46-4,14.23,14.23,0,0,1,10.19,3.66A12.6,12.6,0,0,1,387.54,357.85Zm-4,0a8.93,8.93,0,0,0-2.7-6.81,10.15,10.15,0,0,0-7.25-2.54,10.94,10.94,0,0,0-7.68,2.86,9.92,9.92,0,0,0-.22,14.15,10,10,0,0,0,7.23,2.76,10.37,10.37,0,0,0,7.58-3A9.92,9.92,0,0,0,383.58,357.82Z"/>
       <path d="M401.82,360.52l6.93,11.63h-4.32l-6.54-11.35h-1.48L395,372.15h-4.09l3.4-27.59h5.42a14.67,14.67,0,0,1,4.2.48,6,6,0,0,1,2.68,1.64,7.85,7.85,0,0,1,2.16,5.72Q408.77,358.82,401.82,360.52Zm-3.73-12L397,357.34h1.88a9.13,9.13,0,0,0,3.09-.39,4,4,0,0,0,1.82-1.34,5,5,0,0,0,1-3.11,3.68,3.68,0,0,0-1.21-3.06,6.07,6.07,0,0,0-3.8-1h-1.72Z"/>
       <path d="M441.66,341.95l2.27,30.2h-4.61l-1.23-17.58L427.4,374.08l-5.92-19.52L416,372.15h-4.18l9.54-29.54,7,22.55Z"/>
       <path d="M455.81,344.56l-3.4,27.59h-4l3.29-27.59h4.07Z"/>
       <path d="M485.89,344.56L482.28,374l-16.75-21.37-2.39,19.48h-4l3.48-29.09,16.73,21.34,2.43-19.84h4.08Z"/>
     </g>
  </g>
  <g id="Button_Sleep">
     <rect id="Sleep_BG" class="sleep-button" x="670.19" y="206.24" width="353.26" height="67.19"/>
     <g id="SLEEP" class="labels">
       <path d="M818.62,229.35L815.89,232q-1.95-2.86-4.47-2.86a4.36,4.36,0,0,0-3,1.07,3.46,3.46,0,0,0-1.2,2.69,3.26,3.26,0,0,0,.82,2.23,7.84,7.84,0,0,0,1.21,1q0.8,0.56,2,1.24a15.5,15.5,0,0,1,4.75,3.58,6.88,6.88,0,0,1,1.21,4.24,7.17,7.17,0,0,1-2.28,5.52,8.54,8.54,0,0,1-6.07,2.11,9.49,9.49,0,0,1-5.2-1.35,8.93,8.93,0,0,1-2-1.76,16.42,16.42,0,0,1-1.79-2.6l3.11-2.11a9.28,9.28,0,0,0,2.48,3.07,5.46,5.46,0,0,0,3.16.84,4.92,4.92,0,0,0,3.39-1.09,3.93,3.93,0,0,0,1.22-3.1,3.28,3.28,0,0,0-.89-2.33,7.87,7.87,0,0,0-1.33-1.11q-0.88-.61-2.24-1.38a14.69,14.69,0,0,1-4.34-3.33,6.45,6.45,0,0,1-1.18-4,6.91,6.91,0,0,1,2.24-5.27,8.16,8.16,0,0,1,5.8-2.11,7.69,7.69,0,0,1,3.93.95A12.19,12.19,0,0,1,818.62,229.35Z"/>
       <path d="M828.81,225.18l-2.91,23.68h7.81l-0.46,3.91h-11.9l3.4-27.59h4.08Z"/>
       <path d="M854.11,225.18l-0.46,3.91H843.52l-0.88,7h10.13l-0.43,3.63H842.21l-1.14,9.19H851.2l-0.48,3.91H837.1l3-27.59h14.06Z"/>
       <path d="M873.58,225.18l-0.46,3.91H863l-0.87,7h10.13l-0.43,3.63H861.67l-1.14,9.19h10.13l-0.48,3.91H856.56l3-27.59h14.06Z"/>
       <path d="M879.28,225.18h5.59a10.42,10.42,0,0,1,5.56,1.22,6.73,6.73,0,0,1,2.47,2.77,8.77,8.77,0,0,1,.89,3.88,8.55,8.55,0,0,1-1.66,5.22q-2.47,3.34-7.77,3.34h-3L880,252.78h-4.09ZM883,229.1L881.94,238h2.66a5.41,5.41,0,0,0,3.87-1.28,4.86,4.86,0,0,0,1.35-3.7q0-3.9-5-3.9H883Z"/>
     </g>
  </g>
  <g id="Button_Exercise">
     <rect id="Exercise_BG" class="exercise-button" x="199.55" y="206.24" width="353.26" height="67.19"/>
     <g id="EXERCISE" class="labels">
       <path d="M315.12,225.18l-0.46,3.91H304.52l-0.88,7h10.13l-0.43,3.63H303.22l-1.14,9.19H312.2l-0.48,3.91H298.1l3-27.59h14.06Z"/>
       <path d="M329.52,238.41l6.88,14.37h-4.29l-5.13-11-7.63,11h-4.79L325,238,319,225.18h4.34l4.25,9.49,6.45-9.49h4.83Z"/>
       <path d="M357,225.18l-0.46,3.91H346.39l-0.88,7h10.13l-0.43,3.63H345.09l-1.14,9.19h10.13l-0.48,3.91H340l3-27.59H357Z"/>
       <path d="M370.18,241.14l6.93,11.63h-4.32l-6.54-11.35h-1.48l-1.39,11.35h-4.09l3.4-27.59h5.42a14.65,14.65,0,0,1,4.2.48,6,6,0,0,1,2.68,1.64,7.85,7.85,0,0,1,2.16,5.72Q377.13,239.44,370.18,241.14Zm-3.73-12L365.37,238h1.88a9.13,9.13,0,0,0,3.09-.39,4,4,0,0,0,1.82-1.34,5,5,0,0,0,1-3.11,3.68,3.68,0,0,0-1.21-3.06,6.06,6.06,0,0,0-3.8-1h-1.72Z"/>
       <path d="M403.94,228.26l-0.55,4.48a11.6,11.6,0,0,0-8.56-3.65,9.18,9.18,0,0,0-7.08,2.92A10.66,10.66,0,0,0,385,239.6a8.91,8.91,0,0,0,2.61,6.82q2.59,2.44,7.33,2.44a10.8,10.8,0,0,0,7-2.43l-0.59,4.9a20.08,20.08,0,0,1-7.1,1.44,13,13,0,0,1-9.65-3.66,13.25,13.25,0,0,1-3.54-9.66,14.44,14.44,0,0,1,3.76-10.21,13.06,13.06,0,0,1,9.82-4.06A16.68,16.68,0,0,1,403.94,228.26Z"/>
       <path d="M413.41,225.18L410,252.78h-4l3.29-27.59h4.07Z"/>
       <path d="M434.52,229.35L431.78,232q-1.95-2.86-4.47-2.86a4.36,4.36,0,0,0-3,1.07,3.46,3.46,0,0,0-1.2,2.69,3.26,3.26,0,0,0,.82,2.23,7.87,7.87,0,0,0,1.21,1q0.79,0.56,2,1.24a15.48,15.48,0,0,1,4.75,3.58,6.88,6.88,0,0,1,1.22,4.24,7.17,7.17,0,0,1-2.28,5.52,8.54,8.54,0,0,1-6.07,2.11,9.49,9.49,0,0,1-5.2-1.35,8.92,8.92,0,0,1-2-1.76,16.42,16.42,0,0,1-1.79-2.6l3.11-2.11a9.29,9.29,0,0,0,2.48,3.07,5.45,5.45,0,0,0,3.16.84,4.92,4.92,0,0,0,3.39-1.09,3.93,3.93,0,0,0,1.22-3.1,3.28,3.28,0,0,0-.89-2.33,7.89,7.89,0,0,0-1.33-1.11q-0.88-.61-2.24-1.38a14.69,14.69,0,0,1-4.34-3.33,6.45,6.45,0,0,1-1.18-4,6.91,6.91,0,0,1,2.24-5.27,8.16,8.16,0,0,1,5.8-2.11,7.69,7.69,0,0,1,3.93.95A12.18,12.18,0,0,1,434.52,229.35Z"/>
       <path d="M454.25,225.18l-0.46,3.91H443.65l-0.88,7h10.13l-0.43,3.63H442.35l-1.14,9.19h10.13l-0.48,3.91H437.24l3-27.59h14.06Z"/>
     </g>
  </g>
  <g id="Button_Intro">
     <rect id="Intro_BG" class="intro-button" x="263.7" y="42.41" width="695.6" height="67.19"/>
     <g id="INTRO" class="labels">
       <path d="M362.74,61.35l-3.4,27.59h-4l3.29-27.59h4.07Z"/>
       <path d="M392.82,61.35l-3.61,29.49L372.47,69.46l-2.4,19.48h-4l3.48-29.1,16.73,21.34,2.43-19.84h4.07Z"/>
       <path d="M406.65,65.26l-2.93,23.68h-4l2.84-23.68h-6.5l0.46-3.91h16.87L413,65.26h-6.31Z"/>
       <path d="M424.49,77.31l6.93,11.63H427.1L420.56,77.6h-1.48l-1.39,11.35h-4.09L417,61.35h5.42a14.63,14.63,0,0,1,4.2.48,6,6,0,0,1,2.68,1.64,7.85,7.85,0,0,1,2.16,5.72Q431.44,75.61,424.49,77.31Zm-3.74-12-1.07,8.86h1.88a9.12,9.12,0,0,0,3.09-.39,4,4,0,0,0,1.82-1.34,5,5,0,0,0,1-3.11,3.68,3.68,0,0,0-1.21-3.06,6.06,6.06,0,0,0-3.8-1h-1.72Z"/>
       <path d="M464,74.64a14.41,14.41,0,0,1-2.49,8.24,13.25,13.25,0,0,1-5.16,4.49,15.6,15.6,0,0,1-7,1.58,13.81,13.81,0,0,1-10.07-3.8,13.21,13.21,0,0,1-3.89-9.87,13.19,13.19,0,0,1,4.13-10,14.54,14.54,0,0,1,10.46-4A14.24,14.24,0,0,1,460.07,65,12.6,12.6,0,0,1,464,74.64Zm-4,0a8.94,8.94,0,0,0-2.7-6.81A10.16,10.16,0,0,0,450,65.26a10.94,10.94,0,0,0-7.68,2.86,9.92,9.92,0,0,0-.22,14.15A10,10,0,0,0,449.37,85a10.36,10.36,0,0,0,7.58-3A9.92,9.92,0,0,0,460,74.61Z"/>
       <path d="M470.86,61.35h5.54a27.46,27.46,0,0,1,4.83.32,9.44,9.44,0,0,1,3.18,1.16,10.73,10.73,0,0,1,4.23,4.66,15.42,15.42,0,0,1,1.54,7A16.57,16.57,0,0,1,488.45,82a14.06,14.06,0,0,1-2,3,11.69,11.69,0,0,1-2.65,2.21,11.89,11.89,0,0,1-3.64,1.38,22.3,22.3,0,0,1-2.42.27q-1.4.09-3.29,0.09h-6.94ZM474,65.26L471.46,85h3.24a18.32,18.32,0,0,0,5.58-.67,7.38,7.38,0,0,0,3.41-2.44,11.51,11.51,0,0,0,2.53-7.62,10.49,10.49,0,0,0-1.14-5A7.07,7.07,0,0,0,482,66.17a13.35,13.35,0,0,0-5.57-.9H474Z"/>
       <path d="M517.57,61.35l-2,16q-0.68,5.29-2.54,7.75a9.93,9.93,0,0,1-8.29,3.82,10.15,10.15,0,0,1-7.06-2.52,8.34,8.34,0,0,1-2.74-6.35q0-.81.06-1.7t0.18-1.89L497,61.35h4l-1.95,15.52q-0.09.7-.13,1.29t0,1.1a6,6,0,0,0,10.47,3.83q1.61-2,2.18-6.39l1.93-15.35h4.07Z"/>
       <path d="M544.07,64.43l-0.55,4.48A11.6,11.6,0,0,0,535,65.26a9.18,9.18,0,0,0-7.08,2.92,10.66,10.66,0,0,0-2.72,7.58,8.91,8.91,0,0,0,2.61,6.82Q530.36,85,535.1,85a10.8,10.8,0,0,0,7-2.43l-0.59,4.9a20.07,20.07,0,0,1-7.1,1.45,13,13,0,0,1-9.65-3.66,13.25,13.25,0,0,1-3.54-9.66A14.44,14.44,0,0,1,525,65.41a13.07,13.07,0,0,1,9.82-4.06A16.68,16.68,0,0,1,544.07,64.43Z"/>
       <path d="M556.63,65.26L553.7,88.94h-4l2.84-23.68h-6.5l0.46-3.91h16.87l-0.46,3.91h-6.31Z"/>
       <path d="M571.09,61.35l-3.4,27.59h-4L567,61.35h4.07Z"/>
       <path d="M603.37,74.64a14.42,14.42,0,0,1-2.49,8.24,13.26,13.26,0,0,1-5.16,4.49,15.6,15.6,0,0,1-7,1.58,13.81,13.81,0,0,1-10.07-3.8,13.21,13.21,0,0,1-3.89-9.87,13.19,13.19,0,0,1,4.13-10,14.54,14.54,0,0,1,10.46-4A14.23,14.23,0,0,1,599.49,65,12.6,12.6,0,0,1,603.37,74.64Zm-4,0a8.94,8.94,0,0,0-2.7-6.81,10.16,10.16,0,0,0-7.25-2.54,10.94,10.94,0,0,0-7.68,2.86,9.92,9.92,0,0,0-.22,14.15A10,10,0,0,0,588.78,85a10.36,10.36,0,0,0,7.58-3A9.92,9.92,0,0,0,599.4,74.61Z"/>
       <path d="M633.63,61.35L630,90.84,613.27,69.46l-2.39,19.48h-4l3.48-29.1,16.73,21.34,2.43-19.84h4.08Z"/>
       <path d="M658.75,65.26l-2.93,23.68h-4l2.84-23.68h-6.5l0.46-3.91h16.87l-0.46,3.91h-6.31Z"/>
       <path d="M694.48,74.64A14.41,14.41,0,0,1,692,82.87a13.25,13.25,0,0,1-5.16,4.49,15.6,15.6,0,0,1-7,1.58,13.81,13.81,0,0,1-10.07-3.8,13.21,13.21,0,0,1-3.89-9.87,13.19,13.19,0,0,1,4.13-10,14.54,14.54,0,0,1,10.46-4A14.24,14.24,0,0,1,690.6,65,12.6,12.6,0,0,1,694.48,74.64Zm-4,0a8.94,8.94,0,0,0-2.7-6.81,10.16,10.16,0,0,0-7.25-2.54,11,11,0,0,0-7.68,2.86,9.92,9.92,0,0,0-.21,14.15A10,10,0,0,0,679.89,85a10.36,10.36,0,0,0,7.58-3A9.92,9.92,0,0,0,690.51,74.61Z"/>
       <path d="M712.69,61.35h5.54a27.46,27.46,0,0,1,4.83.32,9.44,9.44,0,0,1,3.18,1.16,10.73,10.73,0,0,1,4.23,4.66,15.42,15.42,0,0,1,1.54,7A16.58,16.58,0,0,1,730.27,82a14.06,14.06,0,0,1-2,3,11.69,11.69,0,0,1-2.65,2.21A11.9,11.9,0,0,1,722,88.59a22.28,22.28,0,0,1-2.42.27q-1.4.09-3.29,0.09h-6.94Zm3.14,3.91L713.28,85h3.24a18.32,18.32,0,0,0,5.58-.67,7.38,7.38,0,0,0,3.41-2.44A11.51,11.51,0,0,0,728,74.3a10.48,10.48,0,0,0-1.14-5,7.06,7.06,0,0,0-3.13-3.15,13.35,13.35,0,0,0-5.57-.9h-2.38Z"/>
       <path d="M742.88,61.35l-3.4,27.59h-4l3.29-27.59h4.07Z"/>
       <path d="M751.86,82.46l-3.36,6.49h-4.45l15.26-29.56,9.53,29.56h-4.27l-2-6.49H751.86Zm1.77-3.63h7.79l-3-9.81Z"/>
       <path d="M775.47,61.35h5.11a12.26,12.26,0,0,1,3.91.52,5.41,5.41,0,0,1,2.4,1.75,7.25,7.25,0,0,1,1.57,4.7,6.93,6.93,0,0,1-4,6.38q4.88,1.22,4.88,6.11a8.68,8.68,0,0,1-.86,3.81,7.21,7.21,0,0,1-2.3,2.86,6.51,6.51,0,0,1-2.6,1.16,16.3,16.3,0,0,1-1.79.22q-1,.08-2.48.08h-7.21Zm1.68,15.33L776,85H779a9.29,9.29,0,0,0,4.5-.76,4.12,4.12,0,0,0,1.87-3.81,4.25,4.25,0,0,0-.32-1.72,2.75,2.75,0,0,0-1-1.17,4.64,4.64,0,0,0-1.73-.67,13.2,13.2,0,0,0-2.55-.21h-2.63Zm1.93-11.42-1,8.44h1.16q5.25,0,5.25-5,0-3.43-4-3.43h-1.41Z"/>
       <path d="M810.41,61.35l-0.46,3.91H799.81l-0.87,7h10.13l-0.43,3.63H798.51L797.37,85H807.5L807,88.94H793.4l3-27.59h14.06Z"/>
       <path d="M823.32,65.26l-2.93,23.68h-4l2.84-23.68h-6.51l0.46-3.91h16.87l-0.46,3.91h-6.31Z"/>
       <path d="M847.43,61.35L847,65.26H836.83l-0.88,7h10.13l-0.43,3.63H835.52L834.38,85h10.13L844,88.94H830.41l3-27.59h14.06Z"/>
       <path d="M867.62,65.51l-2.73,2.61q-1.95-2.86-4.47-2.86a4.36,4.36,0,0,0-3,1.07A3.46,3.46,0,0,0,856.2,69a3.27,3.27,0,0,0,.82,2.23,7.81,7.81,0,0,0,1.21,1q0.8,0.56,2,1.24A15.49,15.49,0,0,1,865,77.08a6.88,6.88,0,0,1,1.21,4.24,7.17,7.17,0,0,1-2.28,5.52,8.54,8.54,0,0,1-6.07,2.11,9.49,9.49,0,0,1-5.2-1.35,8.9,8.9,0,0,1-2-1.76,16.27,16.27,0,0,1-1.79-2.6L852,81.12a9.28,9.28,0,0,0,2.48,3.07,5.45,5.45,0,0,0,3.16.84A4.92,4.92,0,0,0,861,83.94a3.93,3.93,0,0,0,1.22-3.1,3.28,3.28,0,0,0-.89-2.33A7.85,7.85,0,0,0,860,77.41q-0.88-.61-2.24-1.38a14.68,14.68,0,0,1-4.34-3.33,6.45,6.45,0,0,1-1.18-4,6.91,6.91,0,0,1,2.24-5.27,8.16,8.16,0,0,1,5.8-2.11,7.69,7.69,0,0,1,3.93.95A12.19,12.19,0,0,1,867.62,65.51Z"/>
     </g>
  </g>
  <rect id="Dimmer" data-name="Dimmer" class="dimmer" width="1224.74" height="690"/>
</svg>
